<?xml version="1.0" encoding="UTF-8"?>
<svg height="772.528" width="530.494" xmlns="http://www.w3.org/2000/svg">
 <g id="page" xmlns:svgx="http://www.xml-cml.org/schema/svgx">
  <g begin="text">
   <text y="62.979" x="76.535,84.059,87.598,90.252,93.352,96.452,98.668,102.207,104.422" svgx:width="0.94,0.44,0.33,0.39,0.39,0.28,0.44,0.28,0.39" style="fill:rgb(0,0,0);font-family:URWPalladioL-Ital;font-size:7.97px;stroke:none;">Materials</text>
   <text y="62.979" x="109.515,113.5,117.485,121.47" svgx:width="0.5,0.5,0.5,0.5" style="fill:rgb(0,0,0);font-family:URWPalladioL-Bold;font-size:7.97px;stroke:none;">2020</text>
   <text y="62.979" x="125.455" svgx:width="0.25" style="fill:rgb(0,0,0);font-family:URWPalladioL-Roma;font-size:7.97px;stroke:none;">,</text>
   <text y="62.979" x="129.44,133.425" svgx:width="0.5,0.5" style="fill:rgb(0,0,0);font-family:URWPalladioL-Ital;font-size:7.97px;stroke:none;">13</text>
   <text y="62.979" x="137.41,139.4025,141.395,145.38,149.365,153.35000000000002,495.794,499.779,501.772,506.123,508.7531,510.77,514.755" svgx:width="0.25,0.55,0.5,0.5,0.5,0.55,0.5,0.55,0.55,0.33,0.55,0.5,0.5" style="fill:rgb(0,0,0);font-family:URWPalladioL-Roma;font-size:7.97px;stroke:none;">, 560 9 of 11</text>
   <text y="97.848" x="76.535,81.516,84.006,87.494,94.687,100.226,106.313,110.737,114.054,120.141,124.565,127.882,133.421,139.509" svgx:width="0.5,0.25,0.55,0.72,0.56,0.61,0.44,0.33,0.61,0.44,0.33,0.56,0.61,0.44" style="fill:rgb(0,0,0);font-family:URWPalladioL-Bold;font-size:9.96px;stroke:none;">4. Conclusions</text>
   <text y="117.335" x="97.795,101.22,106.9968,112.235,115.548,121.462,124.419,128.6022,133.829,138.138,141.45,147.578,153.787,158.329,160.81900000000002,166.621,175.096,179.8768,185.065,189.374,195.024,200.938,204.251,210.165,215.032,219.341,222.298,227.379,232.246,238.32160000000002,243.557,252.001,257.621,261.005,267.213,272.762,278.869,283.737,289.81260000000003,295.047,299.355,302.668,307.749,313.369,316.326,319.283,322.24,327.321,332.188,338.2636,343.498,348.01,354.138,359.757,362.715,367.226,370.61,376.718,382.632,387.713,392.021,396.8018,401.99,408.199,414.408,421.186,429.0544,434.264,440.371,445.92,454.395,460.604,465.471,469.455,474.586,480.714,485.023,487.98,493.894,499.4716,504.645,507.958,513.872" svgx:width="0.34,0.58,0.55,0.33,0.58,0.29,0.42,0.55,0.42,0.33,0.6,0.61,0.56,0.25,0.55,0.83,0.48,0.55,0.42,0.56,0.58,0.33,0.58,0.48,0.42,0.29,0.5,0.48,0.61,0.55,0.83,0.55,0.33,0.61,0.55,0.6,0.48,0.61,0.55,0.42,0.33,0.5,0.55,0.29,0.29,0.29,0.5,0.48,0.61,0.55,0.44,0.6,0.55,0.29,0.44,0.33,0.6,0.58,0.5,0.42,0.48,0.55,0.61,0.61,0.67,0.79,0.55,0.6,0.55,0.83,0.61,0.48,0.4,0.55,0.6,0.42,0.29,0.58,0.56,0.55,0.33,0.58,0.48" style="fill:rgb(0,0,0);font-family:URWPalladioL-Roma;font-size:9.96px;stroke:none;">In this study, we synthesized Nb-doped stabilized cubic-phase LLZO powder using the</text>
   <text y="130.845" x="76.535,80.936,86.349,92.118,97.719,102.467,108.236,111.468,114.352,119.765,125.534,130.49,133.3784,135.873,140.076,145.488,148.373,151.258,157.314,160.615,164.818,168.05,173.006,176.238,181.0188,183.494,187.231,191.979,196.936,201.337,204.569,207.453,212.866,218.64280000000002,221.133,226.089,231.858,237.9336,240.413,246.371,250.108,254.856,260.814,265.77,269.507,274.255,280.3306,282.82,287.023,293.001,298.482,307.235,310.11,314.511,318.248,323.661,329.4378,331.938,337.995,344.051,350.663,358.901,366.7694,369.19,375.148,380.56,388.827,394.884,399.632,403.616,406.056,412.033,416.236,419.121,424.89,430.4676,432.9,436.131,441.901,446.6818,449.147,454.103,457.335,460.566,464.482,467.366,470.598,473.483,478.895,484.67179999999996,487.172,495.925,498.81,501.694,504.579,507.464,513.233" svgx:width="0.44,0.55,0.58,0.56,0.48,0.58,0.33,0.29,0.55,0.58,0.5,0.29,0.55,0.42,0.55,0.29,0.29,0.61,0.33,0.42,0.33,0.5,0.33,0.48,0.55,0.4,0.48,0.5,0.44,0.33,0.29,0.55,0.58,0.55,0.5,0.58,0.61,0.55,0.6,0.4,0.48,0.6,0.5,0.4,0.48,0.61,0.55,0.42,0.6,0.55,0.88,0.29,0.44,0.4,0.55,0.58,0.55,0.61,0.61,0.67,0.83,0.79,0.55,0.6,0.55,0.83,0.61,0.48,0.4,0.55,0.6,0.42,0.29,0.58,0.56,0.55,0.33,0.58,0.48,0.55,0.5,0.33,0.33,0.4,0.29,0.33,0.29,0.55,0.58,0.55,0.88,0.29,0.29,0.29,0.29,0.58,0.56" style="fill:rgb(0,0,0);font-family:URWPalladioL-Roma;font-size:9.96px;stroke:none;">conventional solid-state reaction and prepared submicron LLZNO powder using the attrition milling</text>
   <text y="144.354" x="76.236,82.343,86.174,91.723,96.235,101.102,105.411,109.719,112.20899999999999,117.696,123.905,126.862,131.73,136.242,139.544,143.386,148.934,151.891,157.541,160.854,165.6348,168.861,173.373,178.241,182.255,187.336,196.308,199.266,203.777,207.9602,211.216,217.323,221.164,226.032,232.139,237.22,241.051,245.919,251.99460000000002,255.267,261.395,265.704,268.661,274.575,280.1526,283.365,287.674,293.801,299.421,308.394,311.341,315.852,319.694,325.242,331.0188,334.296,340.505,346.714,353.492,361.936,369.8044,373.053,379.161,384.709,393.184,399.393,404.26,408.24399999999997,411.414,415.926,421.007,426.7838,430.061,435.681,440.4618,443.688,447.997,450.954,456.868,460.181,465.049,468.88,473.747,479.8226,483.096,491.571,494.528,497.841,503.755,509.304,515.431" svgx:width="0.6,0.4,0.55,0.44,0.48,0.42,0.42,0.25,0.55,0.61,0.29,0.48,0.44,0.33,0.4,0.55,0.29,0.56,0.33,0.48,0.55,0.44,0.48,0.4,0.5,0.88,0.29,0.44,0.42,0.55,0.6,0.4,0.48,0.6,0.5,0.4,0.48,0.61,0.55,0.6,0.42,0.29,0.58,0.56,0.55,0.42,0.6,0.55,0.88,0.29,0.44,0.4,0.55,0.58,0.55,0.61,0.61,0.67,0.83,0.79,0.55,0.6,0.55,0.83,0.61,0.48,0.4,0.55,0.44,0.5,0.58,0.55,0.55,0.48,0.55,0.42,0.29,0.58,0.33,0.48,0.4,0.48,0.61,0.55,0.83,0.29,0.33,0.58,0.55,0.6,0.33" style="fill:rgb(0,0,0);font-family:URWPalladioL-Roma;font-size:9.96px;stroke:none;">process. Electrolyte ceramics prepared using submicron LLZNO powder can be sintered without</text>
   <text y="157.864" x="76.535,85.226,90.601,93.81,99.538,104.253,108.237,110.641,116.557,121.931,130.14,136.154,140.869,144.019,146.50900000000001,148.97,157.179,162.908,165.772,170.142,175.9188,178.371,182.082,186.797,192.811,198.746,203.117,207.831,212.0142,214.495,217.704,223.433,228.2138,230.648,234.821,237.685,243.414,246.623,251.338,255.226,258.09,263.819,269.39660000000003,271.782,274.991,279.705,288.397,294.312,299.027,302.915,307.837,311.046,316.981,320.692,325.4728,327.897,332.818,338.547,344.62260000000003,347.061,351.235,356.963,362.338,366.226,369.435,374.149,379.878,384.0612,386.542,389.751,395.479,400.2598,402.694,406.868,409.732,415.461,418.67,423.384,427.272,430.137,435.865,441.4426,443.828,447.037,449.902,458.593,463.308,465.798,469.273,476.931,480.208,483.417,488.132,492.116,494.52,499.963,504.678,507.542,513.271" svgx:width="0.88,0.55,0.33,0.58,0.48,0.4,0.55,0.6,0.55,0.83,0.61,0.48,0.4,0.25,0.55,0.83,0.58,0.29,0.44,0.58,0.55,0.4,0.48,0.61,0.6,0.44,0.48,0.42,0.55,0.33,0.58,0.48,0.55,0.42,0.29,0.58,0.33,0.48,0.4,0.29,0.58,0.56,0.55,0.33,0.48,0.88,0.6,0.48,0.4,0.5,0.33,0.6,0.4,0.48,0.55,0.5,0.58,0.61,0.55,0.42,0.58,0.55,0.4,0.33,0.48,0.58,0.42,0.55,0.33,0.58,0.48,0.55,0.42,0.29,0.58,0.33,0.48,0.4,0.29,0.58,0.56,0.55,0.33,0.29,0.88,0.48,0.25,0.55,0.78,0.33,0.33,0.48,0.4,0.55,0.55,0.48,0.29,0.58,0.56" style="fill:rgb(0,0,0);font-family:URWPalladioL-Roma;font-size:9.96px;stroke:none;">mother powder, which reduces the sintering temperature and shortens the sintering time. After being</text>
   <text y="171.373" x="76.535,80.73,83.608,89.366,92.591,97.33,101.059,105.798,111.8736,114.346,119.292,122.5788,125.02,129.966,134.913,139.859" svgx:width="0.42,0.29,0.58,0.33,0.48,0.4,0.48,0.61,0.55,0.5,0.33,0.55,0.5,0.5,0.5,0.5" style="fill:rgb(0,0,0);font-family:URWPalladioL-Roma;font-size:9.96px;stroke:none;">sintered at 1150</text>
   <text y="167.757" x="147.302" svgx:width="0.52" style="fill:rgb(0,0,0);font-family:Pxsy;font-size:7.57px;stroke:none;">◦</text>
   <text y="171.373" x="151.76,158.83159999999998,161.277,164.571,169.973,173.95700000000002,176.383,181.33,186.31,188.779,197.514,200.383,206.141,208.631,211.127,214.352,220.11,224.8908,227.341,230.567,235.968,239.193,244.14,247.02839999999998,249.521,252.4,257.802,263.559,266.438,270.8204,273.333,277.726,283.127,288.885,294.93,300.895,305.287,308.512,311.391,316.981,319.859,323.085,327.477,329.967,332.453,336.183,340.921,343.8,348.747,351.972,354.851,360.44,365.2208,367.682,373.726,378.465,384.222,388.417,391.296,394.521,398.913,401.403,403.889,408.836,414.594,420.6696,423.141,428.087,432.48,435.705,438.584,444.173,449.12,452.345,455.224,460.625,466.4018,468.886,473.624,479.382,484.121,487.85,493.351,498.9286,501.344,509.595,514.541" svgx:width="0.71,0.55,0.33,0.55,0.4,0.55,0.5,0.5,0.55,0.88,0.29,0.58,0.25,0.55,0.33,0.58,0.48,0.55,0.33,0.55,0.33,0.5,0.29,0.55,0.29,0.55,0.58,0.29,0.44,0.55,0.44,0.55,0.58,0.61,0.6,0.44,0.33,0.29,0.56,0.29,0.33,0.56,0.25,0.55,0.4,0.48,0.29,0.5,0.33,0.29,0.56,0.48,0.55,0.61,0.48,0.58,0.42,0.29,0.33,0.56,0.25,0.55,0.5,0.58,0.61,0.55,0.5,0.44,0.33,0.29,0.56,0.5,0.33,0.29,0.55,0.58,0.55,0.48,0.58,0.48,0.4,0.56,0.56,0.55,0.83,0.5,0.42" style="fill:rgb(0,0,0);font-family:URWPalladioL-Roma;font-size:9.96px;stroke:none;">C for 60 min, the total ionic conductivity, relative density, and activation energy was</text>
   <text y="184.882" x="76.535,81.417,83.858,88.739" svgx:width="0.5,0.25,0.5,0.5" style="fill:rgb(0,0,0);font-family:URWPalladioL-Roma;font-size:9.96px;stroke:none;">3.49</text>
   <text y="184.882" x="95.913" svgx:width="0.67" style="fill:rgb(0,0,0);font-family:Pxsy;font-size:9.96px;stroke:none;">×</text>
   <text y="184.882" x="104.869,109.751" svgx:width="0.5,0.5" style="fill:rgb(0,0,0);font-family:URWPalladioL-Roma;font-size:9.96px;stroke:none;">10</text>
   <text y="181.266" x="114.633" svgx:width="0.67" style="fill:rgb(0,0,0);font-family:Pxsy;font-size:7.57px;stroke:none;">−</text>
   <text y="181.266" x="119.698" svgx:width="0.5" style="fill:rgb(0,0,0);font-family:URWPalladioL-Roma;font-size:7.57px;stroke:none;">4</text>
   <text y="184.882" x="126.274" svgx:width="0.52" style="fill:rgb(0,0,0);font-family:URWPalladioL-Roma;font-size:9.96px;stroke:none;">S</text>
   <text y="184.882" x="131.399" svgx:width="0.25" style="fill:rgb(0,0,0);font-family:Pxsy;font-size:9.96px;stroke:none;">·</text>
   <text y="184.882" x="133.89,138.225" svgx:width="0.44,0.88" style="fill:rgb(0,0,0);font-family:URWPalladioL-Roma;font-size:9.96px;stroke:none;">cm</text>
   <text y="181.266" x="146.846" svgx:width="0.67" style="fill:rgb(0,0,0);font-family:Pxsy;font-size:7.57px;stroke:none;">−</text>
   <text y="181.266" x="151.911" svgx:width="0.5" style="fill:rgb(0,0,0);font-family:URWPalladioL-Roma;font-size:7.57px;stroke:none;">1</text>
   <text y="184.882" x="156.195,158.685,160.969,165.851,170.733,173.173,178.055,186.256,188.746,191.031,195.912,201.595,207.6706,209.845,214.726,217.167,222.049,226.93,231.91,234.106,238.783,244.544,247.03400000000002,249.279,252.96,257.636,261.776,267.644,272.32,276.655,279.838,282.679,288.195,292.872,295.713,300.029,302.519,305.896,315.66,321.342,326.019,331.7958,333.986,338.125,340.966,346.649,349.831,354.508,358.189,362.866,368.9416,371.125,376.007,379.29380000000003,381.474,386.356,391.238,396.12" svgx:width="0.25,0.55,0.5,0.5,0.25,0.5,0.84,0.25,0.55,0.5,0.58,0.61,0.55,0.5,0.25,0.5,0.5,0.5,0.55,0.48,0.72,0.25,0.55,0.4,0.48,0.42,0.6,0.48,0.44,0.33,0.29,0.56,0.48,0.29,0.56,0.25,0.55,1.0,0.58,0.48,0.58,0.55,0.42,0.29,0.58,0.33,0.48,0.4,0.48,0.61,0.55,0.5,0.33,0.55,0.5,0.5,0.5,0.5" style="fill:rgb(0,0,0);font-family:URWPalladioL-Roma;font-size:9.96px;stroke:none;">, 90.4%, and 0.316 eV, respectively. When sintered at 1200</text>
   <text y="181.266" x="403.297" svgx:width="0.52" style="fill:rgb(0,0,0);font-family:Pxsy;font-size:7.57px;stroke:none;">◦</text>
   <text y="184.882" x="407.755,414.8266,416.972,420.223,425.554,429.53799999999995,431.695,436.576,441.55600000000004,443.752,452.374,455.215,460.897,463.387,465.671,473.814,478.5948,480.785,486.116,491.515,494.698,499.579,502.42,508.103,512.779" svgx:width="0.71,0.55,0.33,0.55,0.4,0.55,0.5,0.5,0.55,0.88,0.29,0.58,0.25,0.55,0.83,0.48,0.55,0.55,0.55,0.33,0.5,0.29,0.58,0.48,0.61" style="fill:rgb(0,0,0);font-family:URWPalladioL-Roma;font-size:9.96px;stroke:none;">C for 30 min, we obtained</text>
   <text y="198.392" x="76.535,79.848,85.762,90.5428,93.81,99.724,102.681,108.331,114.246,119.113,123.422,126.7088,129.925,133.238,138.787,142.099,147.18,150.0684,153.318,156.275,161.823,167.738,170.695,175.07739999999998,178.387,182.899,188.447,194.362,200.571,206.698,211.21,214.523,217.48,223.221,226.178,229.491,235.0686,238.322,243.87,247.1568,250.445,255.526,258.066,263.147" svgx:width="0.33,0.58,0.48,0.55,0.58,0.29,0.56,0.58,0.48,0.42,0.33,0.55,0.33,0.55,0.33,0.5,0.29,0.55,0.29,0.55,0.58,0.29,0.44,0.55,0.44,0.55,0.58,0.61,0.6,0.44,0.33,0.29,0.56,0.29,0.33,0.56,0.55,0.55,0.33,0.55,0.5,0.25,0.5,0.5" style="fill:rgb(0,0,0);font-family:URWPalladioL-Roma;font-size:9.96px;stroke:none;">the highest total ionic conductivity of 5.09</text>
   <text y="198.392" x="271.409" svgx:width="0.67" style="fill:rgb(0,0,0);font-family:Pxsy;font-size:9.96px;stroke:none;">×</text>
   <text y="198.392" x="281.258,286.339" svgx:width="0.5,0.5" style="fill:rgb(0,0,0);font-family:URWPalladioL-Roma;font-size:9.96px;stroke:none;">10</text>
   <text y="194.775" x="291.42" svgx:width="0.67" style="fill:rgb(0,0,0);font-family:Pxsy;font-size:7.57px;stroke:none;">−</text>
   <text y="194.775" x="296.485" svgx:width="0.5" style="fill:rgb(0,0,0);font-family:URWPalladioL-Roma;font-size:7.57px;stroke:none;">4</text>
   <text y="198.392" x="303.953" svgx:width="0.52" style="fill:rgb(0,0,0);font-family:URWPalladioL-Roma;font-size:9.96px;stroke:none;">S</text>
   <text y="198.392" x="309.288" svgx:width="0.25" style="fill:rgb(0,0,0);font-family:Pxsy;font-size:9.96px;stroke:none;">·</text>
   <text y="198.392" x="311.778,316.29" svgx:width="0.44,0.88" style="fill:rgb(0,0,0);font-family:URWPalladioL-Roma;font-size:9.96px;stroke:none;">cm</text>
   <text y="194.775" x="325.263" svgx:width="0.67" style="fill:rgb(0,0,0);font-family:Pxsy;font-size:7.57px;stroke:none;">−</text>
   <text y="194.775" x="330.329" svgx:width="0.5" style="fill:rgb(0,0,0);font-family:URWPalladioL-Roma;font-size:7.57px;stroke:none;">1</text>
   <text y="198.392" x="334.613,337.103,340.507,343.82,349.734,354.5148,357.792,361.623,366.491,369.448,374.529,377.842,380.799,386.54,391.3208,394.588,400.797,405.665,411.579,415.888,418.845,422.157,427.7346,430.988,439.463,444.544,448.7272,452.043,457.124,462.205,464.746,469.827,478.363,480.853,484.257,489.337,495.252,501.3276,504.641,507.954,513.868" svgx:width="0.25,0.55,0.33,0.58,0.48,0.55,0.4,0.48,0.29,0.5,0.33,0.29,0.56,0.48,0.55,0.61,0.48,0.58,0.42,0.29,0.33,0.56,0.55,0.83,0.5,0.42,0.55,0.5,0.5,0.25,0.5,0.84,0.25,0.55,0.5,0.58,0.61,0.55,0.33,0.58,0.48" style="fill:rgb(0,0,0);font-family:URWPalladioL-Roma;font-size:9.96px;stroke:none;">, the relative density was 87.3%, and the</text>
   <text y="211.901" x="76.535,80.734,89.478,94.429,97.311,100.193,104.936,109.135,112.4218,114.849,119.8,124.197,127.426,130.307,135.902,140.854,144.082,146.964,152.371,158.14780000000002,160.61,165.353,171.117,175.86,179.594,185.1,190.67759999999998,193.091,201.35,206.302,210.4852,212.986,217.937,220.413,225.365,230.316,235.296,237.743,242.487,248.359,250.84900000000002,253.31,258.816,264.223,268.207,270.62,273.849,279.612,284.3928,286.841,292.387,298.358,303.31,307.509,310.39,313.688,317.887,323.294,326.175,329.057,335.108,338.405,342.604,345.832,350.784,354.012,358.7928,361.231,366.708,371.659,374.887,378.116,382.859,386.771,389.652,394.396,398.5792,401.08,406.032,410.23,414.429,419.173,427.917,433.393,436.275,441.018,447.0936,449.555,457.813,460.695,463.924,469.70079999999996,472.173,476.371,482.343,487.819,496.563,499.445,503.842,507.565,512.972" svgx:width="0.42,0.88,0.5,0.29,0.29,0.48,0.42,0.33,0.55,0.5,0.44,0.33,0.29,0.56,0.5,0.33,0.29,0.55,0.58,0.55,0.48,0.58,0.48,0.4,0.56,0.56,0.55,0.83,0.5,0.42,0.55,0.5,0.25,0.5,0.5,0.5,0.55,0.48,0.72,0.25,0.55,0.56,0.55,0.4,0.55,0.33,0.58,0.48,0.55,0.56,0.6,0.5,0.42,0.29,0.33,0.42,0.55,0.29,0.29,0.61,0.33,0.42,0.33,0.5,0.33,0.48,0.55,0.55,0.5,0.33,0.33,0.48,0.4,0.29,0.48,0.42,0.55,0.5,0.42,0.42,0.48,0.88,0.55,0.29,0.48,0.61,0.55,0.83,0.29,0.33,0.58,0.55,0.42,0.6,0.55,0.88,0.29,0.44,0.4,0.55,0.58" style="fill:rgb(0,0,0);font-family:URWPalladioL-Roma;font-size:9.96px;stroke:none;">smallest activation energy was 0.311 eV. For the quasi-solid-state batteries assembled with submicron</text>
   <text y="225.411" x="76.535,82.5,88.466,94.978,103.091,112.991,118.859,124.19,132.333,138.298,142.975,146.089,148.579,150.815,153.997,159.68,164.4608,166.582,170.917,175.799,181.667,186.548,190.883,193.724,196.907,202.4846,204.562,208.233,212.909,216.092,220.769,226.451,229.634,232.475,237.806,243.58280000000002,245.714,249.571,254.452,257.635,262.4158,264.538,272.681,277.562,281.7452,283.928,288.81,293.691,296.132,301.014,305.896,316.323,321.205,326.887,332.9626,335.078,338.261,343.943,348.7238,350.846,354.986,360.853,365.53,369.865,372.706,378.613,382.9954,385.174,389.509,394.391,400.258,405.14,409.475,412.316,415.499,421.07660000000004,423.153,431.296,436.178,440.3612,442.543,447.425,452.307,457.189,459.629,464.60900000000004,466.737,475.358,482.954" svgx:width="0.61,0.61,0.67,0.83,0.79,0.6,0.55,0.83,0.61,0.48,0.4,0.25,0.55,0.33,0.58,0.48,0.55,0.44,0.5,0.6,0.5,0.44,0.29,0.33,0.56,0.55,0.4,0.48,0.33,0.48,0.58,0.33,0.29,0.55,0.58,0.55,0.4,0.5,0.33,0.48,0.55,0.83,0.5,0.42,0.55,0.5,0.5,0.25,0.5,0.5,0.84,0.5,0.58,0.61,0.55,0.33,0.58,0.48,0.55,0.42,0.6,0.48,0.44,0.29,0.61,0.44,0.55,0.44,0.5,0.6,0.5,0.44,0.29,0.33,0.56,0.55,0.83,0.5,0.42,0.55,0.5,0.5,0.5,0.25,0.5,0.55,0.88,0.78,0.58" style="fill:rgb(0,0,0);font-family:URWPalladioL-Roma;font-size:9.96px;stroke:none;">LLZNOpowder, the capacity retention rate was 99.15%and the speciﬁc capacity was 105.5 mAh</text>
   <text y="225.411" x="488.635" svgx:width="0.29" style="fill:rgb(0,0,0);font-family:Rpxr;font-size:9.96px;stroke:none;">/</text>
   <text y="225.411" x="491.437,497.01460000000003,499.091,503.973,507.224,510.407,515.084" svgx:width="0.56,0.55,0.5,0.33,0.33,0.48,0.4" style="fill:rgb(0,0,0);font-family:URWPalladioL-Roma;font-size:9.96px;stroke:none;">g after</text>
   <text y="238.92" x="76.535,81.471,86.45100000000001,88.886,93.27,98.759,103.143,106.016,110.745,114.9282,117.409,122.345,125.6318,128.042,131.764,137.155,142.545,153.741,156.96,161.689,170.407,176.341,181.07,184.969,189.906,193.125,199.078,202.8,207.5808,210.007,218.241,221.114,224.333,230.1098,232.557,237.53699999999998,239.972,244.355,250.309,254.208,257.93,262.66,268.406,271.69280000000003,274.102,280.135,284.864,290.61,294.796,297.669,300.888,306.4656,308.855,314.246,317.5328,320.012,324.948,327.416,332.353,337.333,339.767,348.485" svgx:width="0.5,0.5,0.55,0.44,0.56,0.44,0.29,0.48,0.42,0.55,0.5,0.33,0.55,0.4,0.55,0.55,0.88,0.33,0.48,0.88,0.6,0.48,0.4,0.5,0.33,0.6,0.4,0.48,0.55,0.83,0.29,0.33,0.58,0.55,0.5,0.55,0.44,0.6,0.4,0.4,0.48,0.58,0.33,0.55,0.61,0.48,0.58,0.42,0.29,0.33,0.56,0.55,0.55,0.33,0.55,0.5,0.25,0.5,0.5,0.55,0.88,0.78" style="fill:rgb(0,0,0);font-family:URWPalladioL-Roma;font-size:9.96px;stroke:none;">50 cycles at roomtemperature with a current density of 0.02 mA</text>
   <text y="238.92" x="356.167" svgx:width="0.29" style="fill:rgb(0,0,0);font-family:Rpxr;font-size:9.96px;stroke:none;">/</text>
   <text y="238.92" x="359.0,363.384" svgx:width="0.44,0.88" style="fill:rgb(0,0,0);font-family:URWPalladioL-Roma;font-size:9.96px;stroke:none;">cm</text>
   <text y="235.303" x="372.102" svgx:width="0.5" style="fill:rgb(0,0,0);font-family:URWPalladioL-Roma;font-size:7.57px;stroke:none;">2</text>
   <text y="238.92" x="376.385,378.875,382.338,388.391,394.137,398.866,402.588,407.317,410.605,415.995,419.707,424.437,426.927,429.393,437.627,442.4078,444.834,450.58,455.517,461.095,465.8758,468.302,474.236,477.958,482.687,486.873,491.602,497.348,500.567,505.296,511.3716,513.806" svgx:width="0.25,0.55,0.61,0.58,0.48,0.4,0.48,0.33,0.55,0.4,0.48,0.25,0.55,0.83,0.48,0.55,0.58,0.5,0.56,0.48,0.55,0.6,0.4,0.48,0.42,0.48,0.58,0.33,0.48,0.61,0.55,0.5" style="fill:rgb(0,0,0);font-family:URWPalladioL-Roma;font-size:9.96px;stroke:none;">. Therefore, we have presented a</text>
   <text y="252.429" x="76.535,80.746,83.637,92.407,98.377,101.267,106.0478,108.518,117.289,122.047,125.285,131.066,136.489,142.5646,145.041,148.279,153.757,156.195,159.94,164.698,170.767,176.756,181.166,185.9468,188.417,191.655,197.436,202.2168,204.687,212.971,217.937,222.149,225.387,230.1678,232.628,238.051,241.3378,243.852,247.775,252.741,261.00780000000003,263.518,272.289,277.255,280.493,285.251,289.175,292.065,297.031,299.922,304.1052,306.616,311.583,317.364,323.4396,325.926,330.683,336.464,341.222,344.967,350.489,356.0666,358.505,364.494,368.706,373.464,379.5396,382.016,390.299,396.08,400.838,406.6148,409.112,413.323,416.214,421.995,425.233,429.991,433.914,436.804,442.585,448.1626,450.601,456.67,462.739,469.364,477.2324,479.664,484.074,488.832,492.755,497.722,506.492,509.383,513.793,518.004" svgx:width="0.42,0.29,0.88,0.6,0.29,0.48,0.55,0.88,0.48,0.33,0.58,0.55,0.61,0.55,0.33,0.55,0.55,0.4,0.48,0.61,0.6,0.44,0.48,0.55,0.33,0.58,0.48,0.55,0.83,0.5,0.42,0.33,0.48,0.55,0.55,0.33,0.55,0.4,0.5,0.83,0.55,0.88,0.5,0.33,0.48,0.4,0.29,0.5,0.29,0.42,0.55,0.5,0.58,0.61,0.55,0.48,0.58,0.48,0.4,0.56,0.56,0.55,0.6,0.42,0.48,0.61,0.55,0.83,0.58,0.48,0.58,0.55,0.42,0.29,0.58,0.33,0.48,0.4,0.29,0.58,0.56,0.55,0.61,0.61,0.67,0.79,0.55,0.44,0.48,0.4,0.5,0.88,0.29,0.44,0.42,0.25" style="fill:rgb(0,0,0);font-family:URWPalladioL-Roma;font-size:9.96px;stroke:none;">simple method to reduce the waste of raw materials and energy used when sintering LLZO ceramics.</text>
   <text y="265.939" x="76.147,84.053,87.3398,90.597,93.9,99.814,104.59479999999999,107.913,112.222,117.303,126.275,131.0558,134.374,137.687,140.644,149.617,154.485,156.97500000000002,160.429,163.742,169.656,174.4368,177.755,183.863,187.694,192.561,198.668,203.749,207.58,212.448,218.52360000000002,221.888,226.197,232.325,237.944,246.917,249.874,254.386,258.217,263.765,269.54179999999997,272.911,279.12,285.329,292.107,299.97540000000004,303.315,309.422,314.971,323.446,329.655,334.522,338.506,341.768,346.279,351.36,357.1368,360.496,365.577,368.534,372.843,378.321,381.622,387.242,392.0228,395.331,400.412,406.519,412.626,415.583,418.54,423.408,429.4836,432.848,435.805,441.5818,444.941,450.632,456.759,461.84,466.149,469.106,472.49,476.798,482.347,485.304,488.261,494.47,497.854,502.162,505.475,510.556,513.869" svgx:width="0.78,0.33,0.55,0.33,0.58,0.48,0.55,0.42,0.5,0.88,0.48,0.55,0.33,0.29,0.88,0.48,0.25,0.55,0.33,0.58,0.48,0.55,0.6,0.4,0.48,0.6,0.5,0.4,0.48,0.61,0.55,0.42,0.6,0.55,0.88,0.29,0.44,0.4,0.55,0.58,0.55,0.61,0.61,0.67,0.79,0.55,0.6,0.55,0.83,0.61,0.48,0.4,0.55,0.44,0.5,0.58,0.55,0.5,0.29,0.42,0.55,0.55,0.55,0.48,0.55,0.5,0.6,0.6,0.29,0.29,0.48,0.61,0.55,0.29,0.58,0.55,0.56,0.6,0.5,0.42,0.29,0.33,0.42,0.55,0.29,0.29,0.61,0.33,0.42,0.33,0.5,0.33,0.48" style="fill:rgb(0,0,0);font-family:URWPalladioL-Roma;font-size:9.96px;stroke:none;">At the same time, the prepared submicron LLZO powder can also be applied in quasi-solid-state</text>
   <text y="279.448" x="76.535,82.044,87.026,90.273,93.521,98.293,102.229,105.128,109.9,114.124,116.61399999999999,119.105,127.414,130.313,133.561,139.33780000000002,141.85,146.82999999999998,149.322,154.861,160.301,165.74,171.81560000000002,174.318,179.09,181.989,186.761,191.185,194.432,198.188,203.628,208.051,213.849,218.622,227.419,230.318,234.741,239.722,242.6104,245.112,251.1,255.872,259.807,263.124,268.564,272.499,281.296,286.278,292.076,296.499,301.271" svgx:width="0.55,0.5,0.33,0.33,0.48,0.4,0.29,0.48,0.42,0.25,0.55,0.83,0.29,0.33,0.58,0.55,0.5,0.55,0.56,0.55,0.55,0.61,0.55,0.48,0.29,0.48,0.44,0.33,0.4,0.55,0.44,0.58,0.48,0.88,0.29,0.44,0.5,0.29,0.55,0.6,0.48,0.4,0.33,0.55,0.4,0.88,0.5,0.58,0.44,0.48,0.25" style="fill:rgb(0,0,0);font-family:URWPalladioL-Roma;font-size:9.96px;stroke:none;">batteries, with a good electrochemical performance.</text>
   <text y="301.535" x="76.186,83.162,88.64,91.626,97.105,102.09,105.5883,107.828,114.302,119.287,124.766,127.752,131.24,134.226,139.704,145.182,148.168,151.154,156.139,161.618,165.599" svgx:width="0.78,0.61,0.33,0.61,0.56,0.39,0.55,0.72,0.56,0.61,0.33,0.39,0.33,0.61,0.61,0.33,0.33,0.56,0.61,0.44,0.25" style="fill:rgb(0,0,0);font-family:URWPalladioL-Bold;font-size:8.97px;stroke:none;">Author Contributions:</text>
   <text y="301.535" x="170.994,179.595,183.95,186.914,192.205,197.17,202.725,207.689,210.335,215.299,220.354,225.37720000000002,227.655,232.201,237.492,242.9637,245.302,249.339,254.303,259.595,263.632,267.987,273.451,276.415,281.897,286.443,289.089,291.735,296.281,300.827,303.791,306.436,311.401,316.692,318.9345,321.211,327.275,329.548,335.994,338.267,340.5095,342.795,347.868,350.141,353.169,355.442,357.6845,359.961,364.507,369.798,375.2697,377.608,384.054,386.327,392.392,394.664,396.9065,399.192,402.62,406.975,410.83,415.794,421.277,424.704,428.741,433.096,436.951,439.19350000000003,441.479,447.543,449.816,456.262,458.5045,460.781,465.327,470.618,476.0897,478.428,485.993,488.266,494.33,496.603,498.8455,501.131,506.686,511.232,514.196" svgx:width="0.95,0.48,0.33,0.58,0.55,0.61,0.55,0.29,0.55,0.56,0.56,0.55,0.5,0.58,0.61,0.55,0.44,0.55,0.58,0.44,0.48,0.6,0.33,0.6,0.5,0.29,0.29,0.5,0.5,0.33,0.29,0.55,0.58,0.25,0.55,0.67,0.25,0.71,0.25,0.25,0.55,0.67,0.25,0.33,0.25,0.25,0.55,0.5,0.58,0.61,0.55,0.71,0.25,0.67,0.25,0.25,0.55,0.4,0.48,0.42,0.55,0.6,0.4,0.44,0.48,0.42,0.25,0.55,0.67,0.25,0.71,0.25,0.55,0.5,0.58,0.61,0.55,0.83,0.25,0.67,0.25,0.25,0.55,0.61,0.5,0.33,0.5" style="fill:rgb(0,0,0);font-family:URWPalladioL-Roma;font-size:8.97px;stroke:none;">Methodology and conceptualization, Z.C., Y.J., and C.Z.; resources, Z.C. and H.Z.; data</text>
   <text y="311.667" x="76.535,80.596,86.111,89.723,94.296,97.278,99.939,104.932,110.255,112.4975,115.487,120.59,122.876,125.922,128.208,130.4505,133.449,139.933,142.22,148.32,150.606,152.8485,155.838,160.1,162.386,167.974,170.26,172.5025,175.492,181.08,183.366,188.954,191.241,193.48350000000002,196.472,201.045,206.368,211.8397,214.764,219.026,221.312,226.415,228.702,230.9445,234.079,241.707,245.32,247.981,250.962,253.624,258.947,264.032,273.177,278.171,281.783,284.445,289.53,292.191,297.514,302.087,304.68829999999997,307.556,313.144,316.757,321.33,324.375,327.3351,330.155,335.652,339.109,343.49,348.986,353.559,357.172,361.745,364.726,367.387,372.381,377.704,379.9465,382.935,388.039,390.325,393.37,395.657,397.8995,401.035,408.662,412.275,414.936,417.918,420.579,425.902,430.987,440.133,443.581,447.961,453.129,455.79,460.171,467.6161,470.606,475.179,480.502,485.9737,488.898,493.278,498.866,501.528,504.509,507.171,512.494,517.579" svgx:width="0.44,0.6,0.4,0.5,0.33,0.29,0.55,0.58,0.25,0.55,0.67,0.25,0.33,0.25,0.25,0.55,0.71,0.25,0.67,0.25,0.25,0.55,0.56,0.25,0.61,0.25,0.25,0.55,0.61,0.25,0.61,0.25,0.25,0.55,0.5,0.58,0.61,0.55,0.56,0.25,0.67,0.25,0.25,0.55,0.83,0.4,0.29,0.33,0.29,0.58,0.56,1.0,0.55,0.4,0.29,0.56,0.29,0.58,0.5,0.29,0.55,0.61,0.4,0.5,0.33,0.33,0.55,0.6,0.4,0.48,0.6,0.5,0.4,0.5,0.33,0.29,0.55,0.58,0.25,0.55,0.67,0.25,0.33,0.25,0.25,0.55,0.83,0.4,0.29,0.33,0.29,0.58,0.56,1.0,0.4,0.48,0.56,0.29,0.48,0.83,0.55,0.5,0.58,0.61,0.55,0.48,0.61,0.29,0.33,0.29,0.58,0.56,0.25" style="fill:rgb(0,0,0);font-family:URWPalladioL-Roma;font-size:8.97px;stroke:none;">curation, Y.J., C.Z., F.L., B.L., and F.Y.; writing—original draft preparation, Y.J.; writing—review and editing,</text>
   <text y="321.799" x="76.239,81.342,83.629,86.674,88.91650000000001,91.412,95.985,101.307,106.7787,109.337,112.383,114.669,121.748,124.035,126.2775,128.864,131.909,137.424,142.747,148.335,150.996,156.319,161.3422,163.855,168.428,172.489,177.61,183.125,185.787,189.664,192.326,195.307,197.969,202.962,208.285,210.5275,213.068,219.168,221.455,227.939,230.1815,232.668,237.24,242.563,248.0347,250.593,258.202,260.489,266.589,268.8315,271.327,278.442,281.103,283.7043,286.207,290.78,296.294,299.276,304.599,309.592,313.205,316.9724,319.524,324.847,329.42,334.587,338.8926,341.41,344.867,349.248,353.821,359.2927,361.851,366.424,371.747,377.2187,379.786,384.359,389.444,392.891,397.272,401.653,407.1247,409.683,412.665,417.5985,420.109,423.091,428.413,432.71860000000004,435.236,440.733,446.248,451.305,453.967,456.628,460.506,465.829,470.209,475.6807,478.239,483.407,487.787,491.4,495.278,497.939,502.933,508.1356,510.697,515.691" svgx:width="0.67,0.25,0.33,0.25,0.55,0.5,0.58,0.61,0.55,0.33,0.25,0.77,0.25,0.25,0.55,0.33,0.6,0.58,0.61,0.29,0.58,0.56,0.55,0.5,0.44,0.56,0.6,0.29,0.42,0.29,0.33,0.29,0.55,0.58,0.25,0.55,0.67,0.25,0.71,0.25,0.55,0.5,0.58,0.61,0.55,0.83,0.25,0.67,0.25,0.55,0.78,0.29,0.29,0.55,0.5,0.6,0.33,0.58,0.55,0.4,0.42,0.55,0.58,0.5,0.56,0.48,0.55,0.4,0.48,0.5,0.61,0.55,0.5,0.58,0.61,0.55,0.5,0.56,0.4,0.48,0.48,0.61,0.55,0.33,0.55,0.55,0.33,0.58,0.48,0.55,0.6,0.6,0.55,0.29,0.29,0.42,0.58,0.48,0.61,0.55,0.56,0.48,0.4,0.42,0.29,0.55,0.58,0.55,0.55,0.33" style="fill:rgb(0,0,0);font-family:URWPalladioL-Roma;font-size:8.97px;stroke:none;">Y.J. and J.D.; funding acquisition, Z.C. and H.Z. All authors have read and agreed to the published version of</text>
   <text y="331.931" x="76.535,79.458,84.676,88.9816,91.213,99.13,103.614,108.832,114.239,118.04,122.022,125.563,128.173,133.561,136.484" svgx:width="0.33,0.58,0.48,0.55,0.88,0.5,0.58,0.6,0.42,0.44,0.4,0.29,0.6,0.33,0.25" style="fill:rgb(0,0,0);font-family:URWPalladioL-Roma;font-size:8.97px;stroke:none;">the manuscript.</text>
   <text y="348.041" x="76.535,81.52,86.999,92.477,97.956,100.942,106.42,111.405" svgx:width="0.56,0.61,0.61,0.61,0.33,0.61,0.56,0.25" style="fill:rgb(0,0,0);font-family:URWPalladioL-Bold;font-size:8.97px;stroke:none;">Funding:</text>
   <text y="348.041" x="118.853,124.459,129.782,132.444,136.2114,139.596,147.223,152.217,155.829,160.8522,164.188,171.816,176.389,180.15640000000002,183.541,187.419,192.933,198.43,203.927,208.92,212.533,215.514,219.895,225.3667,228.757,233.815,238.8382,242.183,245.165,250.487,254.7926,258.142,265.742,270.315,273.297,275.958,280.952,286.275,290.848,293.4493,296.783,304.383,308.956,311.938,317.452,321.065,325.638,328.23929999999996,331.573,336.375,340.436,343.097,347.478,352.801,356.861,361.1666,364.516,369.601,374.595,380.11,385.433,391.021,395.594,398.575,401.236,406.23,411.43260000000004,414.827,419.821,422.78110000000004,426.14,432.625,437.947,440.609,445.932,450.41700000000003,453.779,456.824,464.424,469.418,471.6605,477.951,482.524,487.097,491.669,496.242,500.815,505.388,509.961,514.534,517.579" svgx:width="0.61,0.58,0.29,0.42,0.55,0.83,0.55,0.4,0.56,0.55,0.83,0.5,0.42,0.55,0.42,0.6,0.6,0.6,0.55,0.4,0.33,0.48,0.61,0.55,0.55,0.56,0.55,0.33,0.58,0.48,0.55,0.83,0.5,0.33,0.29,0.55,0.58,0.5,0.29,0.55,0.83,0.5,0.33,0.6,0.4,0.5,0.29,0.55,0.52,0.44,0.29,0.48,0.58,0.44,0.48,0.55,0.56,0.55,0.6,0.58,0.61,0.5,0.33,0.29,0.55,0.58,0.55,0.55,0.33,0.55,0.71,0.58,0.29,0.58,0.5,0.55,0.33,0.83,0.55,0.25,0.55,0.5,0.5,0.5,0.5,0.5,0.5,0.5,0.5,0.33,0.25" style="fill:rgb(0,0,0);font-family:URWPalladioL-Roma;font-size:8.97px;stroke:none;">This work was supported by the National Natural Science Foundation of China (No. 51874048),</text>
   <text y="358.173" x="76.535,79.517,84.839,89.1446,92.293,99.893,104.466,107.448,110.109,115.103,120.425,124.998,127.5993,130.742,135.543,139.604,142.265,146.646,151.969,156.03,160.3356,163.483,168.568,173.562,179.077,184.4,189.988,194.561,197.542,200.204,205.197,210.3996,213.593,216.638,221.632,225.22,228.327,233.595,238.588,244.103,249.426,254.4492,257.593,262.394,266.455,269.117,273.497,278.82,281.802,284.463,288.341,291.322,295.0894,298.273,303.267,306.2271,309.385,315.87,321.192,323.854,329.177,333.66200000000003,336.832,339.877,347.477,352.471,354.7135,360.4,364.973,369.546,374.119,378.692,383.264,387.837,392.41,396.983,400.029,402.2715,405.598,408.58,413.903,418.20860000000005,421.356,427.466,431.847,435.724,440.105,444.678,448.126,452.187,457.38960000000003,460.592,465.677,470.67,476.185,481.508,487.096,491.669,494.65,497.312,502.305,507.5076,510.701,515.695" svgx:width="0.33,0.58,0.48,0.55,0.83,0.5,0.33,0.29,0.55,0.58,0.5,0.29,0.55,0.52,0.44,0.29,0.48,0.58,0.44,0.48,0.55,0.56,0.55,0.6,0.58,0.61,0.5,0.33,0.29,0.55,0.58,0.55,0.33,0.55,0.4,0.55,0.67,0.55,0.6,0.58,0.56,0.55,0.52,0.44,0.29,0.48,0.58,0.33,0.29,0.42,0.33,0.42,0.55,0.55,0.33,0.55,0.71,0.58,0.29,0.58,0.5,0.55,0.33,0.83,0.55,0.25,0.55,0.5,0.5,0.5,0.5,0.5,0.5,0.5,0.5,0.33,0.25,0.55,0.33,0.58,0.48,0.55,0.67,0.48,0.42,0.48,0.5,0.4,0.44,0.58,0.55,0.56,0.55,0.6,0.58,0.61,0.5,0.33,0.29,0.55,0.58,0.55,0.55,0.33" style="fill:rgb(0,0,0);font-family:URWPalladioL-Roma;font-size:8.97px;stroke:none;">the National Science Foundation for Young Scientists of China (No. 51604042), the Research Foundation of</text>
   <text y="368.305" x="76.535,82.123,87.711,93.226,97.287,101.86,104.841,107.502,112.496,117.6986,120.91,126.498,132.013,135.47,139.851,144.424,149.806,153.03,158.023,160.9831,164.169,171.779,177.294,182.616,187.189,192.39159999999998,195.603,201.127,204.575,209.569,214.736,217.398,222.72,226.781,231.0866,234.262,237.308,244.908,249.901,252.14350000000002,257.886,262.459,267.031,274.147,278.72,283.293,287.865,290.911,293.1535,296.508,299.49,304.813,309.1186,312.285,317.086,321.147,323.808,328.189,333.512,336.493,339.155,344.688,348.6348,351.849,357.958,362.339,366.217,370.598,375.171,378.618,382.679,387.8816,391.093,396.178,401.693,407.016,412.4877,415.704,420.698,423.6581,426.835,433.319,438.642,443.215,448.538,453.623,457.5,462.823,467.308,470.496,475.298,479.359,482.02,486.401,491.724,495.784,500.0896,503.256,507.829,513.152" svgx:width="0.61,0.61,0.6,0.44,0.5,0.33,0.29,0.55,0.58,0.55,0.61,0.6,0.4,0.48,0.5,0.6,0.55,0.55,0.33,0.55,0.83,0.6,0.58,0.5,0.58,0.55,0.6,0.4,0.55,0.56,0.29,0.58,0.44,0.48,0.55,0.33,0.83,0.55,0.25,0.55,0.5,0.5,0.78,0.5,0.5,0.5,0.33,0.25,0.55,0.33,0.58,0.48,0.55,0.52,0.44,0.29,0.48,0.58,0.33,0.29,0.61,0.44,0.55,0.67,0.48,0.42,0.48,0.5,0.4,0.44,0.58,0.55,0.56,0.6,0.58,0.61,0.55,0.55,0.33,0.55,0.71,0.58,0.5,0.58,0.56,0.42,0.58,0.5,0.55,0.52,0.44,0.29,0.48,0.58,0.44,0.48,0.55,0.5,0.58,0.61" style="fill:rgb(0,0,0);font-family:URWPalladioL-Roma;font-size:8.97px;stroke:none;">Education Bureau of Hunan Province (No. 19A003), the Scientiﬁc Research Fund of Changsha Science and</text>
   <text y="378.437" x="76.257,80.929,85.223,89.204,94.423,99.641,104.537,107.146,112.042,117.027,122.0502,124.254,129.733,135.139,138.52,142.815,147.298,152.68,154.946,157.932,165.383,170.279,172.5215,175.659,180.644,185.665,190.148,194.631,199.115,203.598,208.081,212.564,217.047,220.033,222.2755,224.516,229.0,234.218,239.6897,241.938,244.861,250.08,254.3856,256.616,262.032,266.928,270.729,273.652,278.638,282.179,286.663,292.141,297.548,302.031,304.954,309.25960000000003,311.491,314.512,319.731,324.949,329.845,334.911,339.394,342.317,344.926,349.992,354.29760000000005,356.529,361.2,365.495,369.297,372.25710000000004,374.462,379.877,383.258,388.153,393.139,396.68,401.163,411.322,416.218,419.17810000000003,421.445,428.906,434.312,439.531,444.014,449.2166,451.474,456.89,460.27,465.166,470.232,472.841,478.059,482.04,486.335" svgx:width="0.61,0.48,0.44,0.58,0.58,0.55,0.29,0.55,0.56,0.56,0.55,0.61,0.6,0.4,0.48,0.5,0.6,0.55,0.33,0.83,0.55,0.25,0.55,0.56,0.56,0.5,0.5,0.5,0.5,0.5,0.5,0.5,0.33,0.25,0.55,0.5,0.58,0.61,0.55,0.33,0.58,0.48,0.55,0.6,0.55,0.42,0.33,0.56,0.4,0.5,0.61,0.6,0.5,0.33,0.48,0.55,0.34,0.58,0.58,0.55,0.56,0.5,0.33,0.29,0.56,0.48,0.55,0.61,0.48,0.42,0.33,0.55,0.6,0.4,0.55,0.56,0.4,0.5,0.88,0.55,0.33,0.55,0.83,0.6,0.58,0.5,0.58,0.55,0.6,0.4,0.55,0.56,0.29,0.58,0.44,0.48,0.25" style="fill:rgb(0,0,0);font-family:URWPalladioL-Roma;font-size:8.97px;stroke:none;">Technology Bureau (No. kq1901100), and the Postgraduate Innovative Test Programof Hunan Province.</text>
   <text y="394.547" x="76.535,83.009,87.994,93.473,98.951,101.937,105.918,108.904,112.85079999999999,115.126,120.112,123.6103,125.841,129.329,134.808,137.793,142.277,145.765,150.248,154.229,157.215" svgx:width="0.72,0.56,0.61,0.61,0.33,0.44,0.33,0.44,0.55,0.56,0.39,0.55,0.39,0.61,0.33,0.5,0.39,0.5,0.44,0.33,0.25" style="fill:rgb(0,0,0);font-family:URWPalladioL-Bold;font-size:8.97px;stroke:none;">Conﬂicts of Interest:</text>
   <text y="394.547" x="162.594,168.09,173.309,177.6146,179.845,184.329,189.735,192.658,197.877,202.772,206.314,210.0814,212.358,217.836,222.131,226.112,228.721,233.204,236.585,240.8906,243.121,248.34,253.2735,255.477,259.458,264.354,269.572,275.024,277.633,281.614,284.5741,286.779,291.674,294.6341,296.902,299.511,304.729,307.652,311.947,315.328,319.623,323.424,326.347" svgx:width="0.61,0.58,0.48,0.55,0.5,0.6,0.33,0.58,0.55,0.4,0.42,0.55,0.61,0.48,0.44,0.29,0.5,0.4,0.48,0.55,0.58,0.55,0.55,0.44,0.55,0.58,0.61,0.29,0.44,0.33,0.55,0.55,0.33,0.55,0.29,0.58,0.33,0.48,0.4,0.48,0.42,0.33,0.25" style="fill:rgb(0,0,0);font-family:URWPalladioL-Roma;font-size:8.97px;stroke:none;">The authors declare no conﬂict of interest.</text>
   <text y="420.848" x="76.535,83.728,88.709,92.585,97.566,101.441,106.423,112.51,116.933,121.915" svgx:width="0.72,0.5,0.39,0.5,0.39,0.5,0.61,0.44,0.5,0.44" style="fill:rgb(0,0,0);font-family:URWPalladioL-Bold;font-size:9.96px;stroke:none;">References</text>
   <text y="439.737" x="76.535,81.018,83.26050000000001,98.05,104.15,109.473,114.988,117.2305,120.073,126.557,128.844,131.0865,134.212,142.535,146.916,149.577,151.8195,154.662,161.741,164.027,166.2695,169.396,178.093,183.608,185.8505,188.693,193.797,196.083,198.3255,201.452,207.552,212.875,217.448,222.77,227.855,230.0975,232.94,239.041,241.327,243.5695,246.696,252.796,258.119,262.691,268.014,273.099,275.3415,278.184,285.163,287.449,289.6915,292.818,299.896,305.411,309.984,315.307,317.5495,320.392,323.437,325.724,327.9665,331.092,336.68,339.342,341.5845,344.427,350.015,352.301,354.5435,357.67,363.77,369.093,374.608,376.8505,379.693,387.302,389.589,391.8315,394.957,401.057,406.38,411.895,414.1375,416.98,423.08,425.367,427.6095,430.735,437.219,442.542,446.923,452.246,454.4885,457.331,463.431,465.6735,468.516,475.0,479.994,485.317,488.298,491.755,496.749,499.41,502.072,506.645,511.702,514.364" svgx:width="0.5,0.25,0.55,0.67,0.58,0.6,0.25,0.55,0.71,0.25,0.25,0.55,1.0,0.48,0.29,0.25,0.55,0.77,0.25,0.25,0.55,1.0,0.6,0.25,0.55,0.67,0.25,0.25,0.55,0.67,0.58,0.5,0.58,0.56,0.25,0.55,0.67,0.25,0.25,0.55,0.67,0.58,0.5,0.58,0.56,0.25,0.55,0.76,0.25,0.25,0.55,0.77,0.6,0.5,0.58,0.25,0.55,0.33,0.25,0.25,0.55,0.61,0.29,0.25,0.55,0.61,0.25,0.25,0.55,0.67,0.58,0.6,0.25,0.55,0.83,0.25,0.25,0.55,0.67,0.58,0.6,0.25,0.55,0.67,0.25,0.25,0.55,0.71,0.58,0.48,0.58,0.25,0.55,0.67,0.25,0.55,0.71,0.55,0.58,0.33,0.4,0.55,0.29,0.29,0.5,0.55,0.29,0.48" style="fill:rgb(0,0,0);font-family:URWPalladioL-Roma;font-size:8.97px;stroke:none;">1. Zhu, C.; Wei, D.; Wu, Y.; Zhang, Z.; Zhang, G.; Duan, J.; Li, L.; Zhu, H.; Zhu, Z.; Chen, Z. Controllable</text>
   <text y="452.649" x="98.05,102.111,107.104,112.427,116.305,119.286,122.826,128.341,132.401,135.383,138.044,143.038,148.2406,153.665,158.659,161.6191,167.009,169.67,174.993,177.975,182.355,185.812,189.873,194.867,200.189,205.512,209.893,213.954,216.935,221.316,226.7877,232.209,237.01,242.333" svgx:width="0.44,0.55,0.58,0.42,0.33,0.4,0.6,0.44,0.33,0.29,0.55,0.58,0.55,0.55,0.33,0.55,0.29,0.58,0.33,0.48,0.4,0.44,0.55,0.58,0.58,0.48,0.44,0.33,0.48,0.61,0.55,0.52,0.58,0.79" style="fill:rgb(0,0,0);font-family:URWPalladioL-Roma;font-size:8.97px;stroke:none;">construction of interconnected SnO</text>
   <text y="453.994" x="249.518" svgx:width="0.52" style="fill:rgb(0,0,0);font-family:URWPalladioL-Roma;font-size:6.97px;stroke:none;">x</text>
   <text y="452.649" x="253.615" svgx:width="0.29" style="fill:rgb(0,0,0);font-family:Rpxr;font-size:8.97px;stroke:none;">/</text>
   <text y="452.649" x="256.239,263.839,266.885,272.473,277.466,282.963,287.344,292.8157,298.236,302.297,306.87,310.482,315.54,320.533" svgx:width="0.83,0.33,0.61,0.55,0.6,0.48,0.61,0.55,0.44,0.5,0.4,0.55,0.55,0.58" style="fill:rgb(0,0,0);font-family:URWPalladioL-Roma;font-size:8.97px;stroke:none;">N-doped carbon</text>
   <text y="452.649" x="325.857" svgx:width="0.29" style="fill:rgb(0,0,0);font-family:Rpxr;font-size:8.97px;stroke:none;">/</text>
   <text y="452.649" x="328.482,332.543,337.116,340.728,345.786,350.779,355.9816,361.407,365.467,370.461,378.537,384.033,389.027,392.904,395.566,398.547,402.85260000000005,408.233,411.278,416.272,419.86,425.189,429.57,434.893,440.215,444.788,450.111,454.172,458.553,464.141,467.186,472.683,477.063,480.676,483.722,488.715,492.328,500.403,504.976,510.299,514.36" svgx:width="0.44,0.5,0.4,0.55,0.55,0.58,0.55,0.44,0.55,0.88,0.6,0.55,0.42,0.29,0.33,0.48,0.55,0.33,0.55,0.4,0.55,0.48,0.58,0.58,0.5,0.58,0.44,0.48,0.61,0.33,0.6,0.48,0.4,0.33,0.55,0.4,0.88,0.5,0.58,0.44,0.48" style="fill:rgb(0,0,0);font-family:URWPalladioL-Roma;font-size:8.97px;stroke:none;">carbon composite for enhanced-performance</text>
   <text y="465.561" x="98.05,100.659,103.268,106.191,111.41,114.019,119.426,127.343,130.329,132.938,137.834,143.0366,145.294,150.252,154.736,157.659,160.582,164.877,168.418,171.028,175.322,179.0894,181.366,185.849,191.067,195.963,201.442,205.736,209.538" svgx:width="0.29,0.29,0.33,0.58,0.29,0.6,0.88,0.33,0.29,0.55,0.58,0.55,0.55,0.5,0.33,0.33,0.48,0.4,0.29,0.48,0.42,0.55,0.5,0.58,0.55,0.61,0.48,0.42,0.25" style="fill:rgb(0,0,0);font-family:URWPalladioL-Roma;font-size:8.97px;stroke:none;">lithium-ion batteries anodes.</text>
   <text y="465.561" x="214.917,217.903,220.1455,222.386,228.86,231.352,233.845,237.826,241.978,244.22050000000002,247.357,253.338,257.319,264.295,268.778,273.261" svgx:width="0.33,0.25,0.55,0.72,0.28,0.28,0.44,0.5,0.25,0.55,0.67,0.44,0.78,0.5,0.5,0.25" style="fill:rgb(0,0,0);font-family:URWPalladioL-Ital;font-size:8.97px;stroke:none;">J. Alloy. Compd.</text>
   <text y="465.561" x="278.64,283.123,287.606,292.09" svgx:width="0.5,0.5,0.5,0.5" style="fill:rgb(0,0,0);font-family:URWPalladioL-Bold;font-size:8.97px;stroke:none;">2019</text>
   <text y="465.561" x="296.573" svgx:width="0.25" style="fill:rgb(0,0,0);font-family:URWPalladioL-Roma;font-size:8.97px;stroke:none;">,</text>
   <text y="465.561" x="301.056,305.539,310.022" svgx:width="0.5,0.5,0.5" style="fill:rgb(0,0,0);font-family:URWPalladioL-Ital;font-size:8.97px;stroke:none;">778</text>
   <text y="465.561" x="314.506,316.7485,318.989,323.472,327.956,332.439,336.922,341.405,345.888,350.372,352.6145,355.752" svgx:width="0.25,0.55,0.5,0.5,0.5,0.5,0.5,0.5,0.5,0.25,0.55,0.33" style="fill:rgb(0,0,0);font-family:URWPalladioL-Roma;font-size:8.97px;stroke:none;">, 731–740. [</text>
   <text y="465.561" x="358.737,365.095,368.475,373.371,377.172,380.974,386.964,391.258" svgx:width="0.71,0.4,0.55,0.42,0.42,0.67,0.48,0.33" style="fill:rgb(8,117,183);font-family:URWPalladioL-Roma;font-size:8.97px;stroke:none;">CrossRef</text>
   <text y="465.561" x="394.244" svgx:width="0.33" style="fill:rgb(0,0,0);font-family:URWPalladioL-Roma;font-size:8.97px;stroke:none;">]</text>
   <text y="478.472" x="76.535,81.018,83.26050000000001,98.05,103.419,105.976,108.2185,110.387,116.248,118.445,120.6875,122.865,128.726,133.84,138.233,143.347,148.233,150.4755,152.644,159.023,161.22,163.4625,165.64,173.953,176.51,179.374,181.931,184.488,189.602,191.8445,194.022,200.824,203.02,205.26250000000002,207.44,212.475,216.869,221.983,226.868,229.1105,231.28,237.141,239.337,241.5795,243.757,251.718,256.112,261.226,266.111,268.3535,270.523,278.835,281.032,283.2745,285.452,290.021,294.415,299.529,304.406,306.6485,308.825,313.685,315.881,318.1235,320.301,323.227,325.784,330.178,335.292,340.178,342.4205,344.598,348.657,350.854,353.0965,355.274,362.075,367.374,369.61650000000003,371.785,376.653,378.85,381.09250000000003,383.27,389.131,394.245,398.454,403.568,408.453,410.6955,412.864,415.791,418.0335,420.202,425.087,430.386,435.5,440.869,445.262,453.021,457.23,462.344,465.209,469.603,472.2043,474.374,476.931,482.045,485.771,488.328,493.213,498.328,501.2881,503.406,505.964,511.078,513.942" svgx:width="0.5,0.25,0.55,0.61,0.29,0.25,0.55,0.67,0.25,0.25,0.55,0.67,0.58,0.5,0.58,0.56,0.25,0.55,0.73,0.25,0.25,0.55,0.95,0.29,0.33,0.29,0.29,0.58,0.25,0.55,0.77,0.25,0.25,0.55,0.67,0.5,0.58,0.56,0.25,0.55,0.67,0.25,0.25,0.55,1.0,0.5,0.58,0.56,0.25,0.55,0.95,0.25,0.25,0.55,0.61,0.5,0.58,0.56,0.25,0.55,0.67,0.25,0.25,0.55,0.33,0.29,0.5,0.58,0.56,0.25,0.55,0.56,0.25,0.25,0.55,0.77,0.6,0.25,0.55,0.67,0.25,0.25,0.55,0.67,0.58,0.48,0.58,0.56,0.25,0.55,0.33,0.25,0.55,0.56,0.6,0.58,0.61,0.5,0.88,0.48,0.58,0.33,0.5,0.29,0.55,0.29,0.58,0.42,0.29,0.56,0.58,0.33,0.55,0.29,0.58,0.33,0.55" style="fill:rgb(0,0,0);font-family:URWPalladioL-Roma;font-size:8.97px;stroke:none;">2. Li, X.; Zhang, K.; Mitlin, D.; Yang, Z.; Wang, M.; Tang, Y.; Jiang, F.; Du, Y.; Zheng, J. Fundamental insight into</text>
   <text y="491.384" x="98.05,103.911,107.499,109.201,116.96,121.758,127.126,129.683,135.0,138.901,143.295,146.159,148.716,153.514,158.7166,160.456,165.254,168.2141,169.999,175.367,177.924,180.851,185.244,190.358,195.8297,197.546,205.859,210.973,213.899,217.37,219.927,223.828,229.0306,230.77,234.671,239.065,241.93,247.044,251.841,257.21,261.419,265.145,267.3875,270.268,274.169,278.967,286.726,291.585,294.142,299.256,303.465,308.9367,310.653,313.518,316.989,321.382,326.496,330.222,337.981,340.538,344.264,347.989,350.546,355.344,360.5466,362.277,366.486,369.043,373.252,377.154,380.018,383.331,388.129,393.33160000000004,395.062,402.821,405.378,409.279,412.592,417.39,421.115,425.017,429.815,435.096,440.1192,441.8,446.194,451.308,456.7797,458.504,462.713,465.27,469.479,473.381,476.246,479.549,484.347,488.249,493.363,497.572,505.331,507.888,511.789,516.183" svgx:width="0.67,0.4,0.55,0.88,0.55,0.61,0.29,0.61,0.44,0.5,0.33,0.29,0.55,0.58,0.55,0.55,0.33,0.55,0.61,0.29,0.33,0.5,0.58,0.61,0.55,0.95,0.58,0.33,0.4,0.29,0.44,0.58,0.55,0.44,0.5,0.33,0.58,0.55,0.61,0.48,0.42,0.25,0.55,0.44,0.55,0.88,0.55,0.29,0.58,0.48,0.61,0.55,0.33,0.4,0.5,0.58,0.42,0.88,0.29,0.42,0.42,0.29,0.55,0.58,0.55,0.48,0.29,0.48,0.44,0.33,0.4,0.55,0.58,0.55,0.88,0.29,0.44,0.4,0.55,0.42,0.44,0.55,0.6,0.56,0.55,0.5,0.58,0.61,0.55,0.48,0.29,0.48,0.44,0.33,0.4,0.55,0.44,0.58,0.48,0.88,0.29,0.44,0.5,0.29" style="fill:rgb(0,0,0);font-family:URWPalladioL-Roma;font-size:8.97px;stroke:none;">Zr modiﬁcation of Li-and Mn-rich cathodes: combined transmission electron microscopy and electrochemical</text>
   <text y="504.295" x="98.05,100.659,108.577,113.965,118.26,123.739,128.222,133.44,137.421,141.7266,143.958,147.76,153.149,157.443,161.425,164.348,167.728,172.624,176.425,180.406,185.302,190.691,195.7142,197.918,201.72,204.643,210.049,215.528,219.518" svgx:width="0.29,0.88,0.6,0.48,0.61,0.5,0.58,0.44,0.48,0.55,0.42,0.6,0.48,0.44,0.33,0.4,0.55,0.42,0.44,0.55,0.6,0.56,0.55,0.42,0.33,0.6,0.61,0.56,0.25" style="fill:rgb(0,0,0);font-family:URWPalladioL-Roma;font-size:8.97px;stroke:none;">impedance spectroscopy study.</text>
   <text y="504.295" x="224.896,230.877,235.36,238.848,245.8446,248.065,256.529,260.511,263.496,266.984" svgx:width="0.67,0.5,0.39,0.78,0.55,0.94,0.44,0.33,0.39,0.39" style="fill:rgb(0,0,0);font-family:URWPalladioL-Ital;font-size:8.97px;stroke:none;">Chem Mater</text>
   <text y="504.295" x="272.713,277.196,281.679,286.163" svgx:width="0.5,0.5,0.5,0.5" style="fill:rgb(0,0,0);font-family:URWPalladioL-Bold;font-size:8.97px;stroke:none;">2018</text>
   <text y="504.295" x="290.646" svgx:width="0.25" style="fill:rgb(0,0,0);font-family:URWPalladioL-Roma;font-size:8.97px;stroke:none;">,</text>
   <text y="504.295" x="295.129,299.612" svgx:width="0.5,0.5" style="fill:rgb(0,0,0);font-family:URWPalladioL-Ital;font-size:8.97px;stroke:none;">30</text>
   <text y="504.295" x="304.096,306.3385,308.579,313.062,317.546,322.029,326.512,330.995,335.479,339.962,344.445,348.928,351.1705,354.308" svgx:width="0.25,0.55,0.5,0.5,0.5,0.5,0.5,0.5,0.5,0.5,0.5,0.25,0.55,0.33" style="fill:rgb(0,0,0);font-family:URWPalladioL-Roma;font-size:8.97px;stroke:none;">, 2566–2573. [</text>
   <text y="504.295" x="357.294,363.651,367.031,371.927,375.729,379.53,385.52,389.815" svgx:width="0.71,0.4,0.55,0.42,0.42,0.67,0.48,0.33" style="fill:rgb(8,117,183);font-family:URWPalladioL-Roma;font-size:8.97px;stroke:none;">CrossRef</text>
   <text y="504.295" x="392.801" svgx:width="0.33" style="fill:rgb(0,0,0);font-family:URWPalladioL-Roma;font-size:8.97px;stroke:none;">]</text>
   <text y="517.207" x="76.535,81.018,83.26050000000001,98.054,104.412,109.63,113.925,119.143,121.38550000000001,123.618,129.598,131.84,134.0825,136.323,142.304,147.71,149.95250000000001,152.194,160.676,162.917,165.1595,167.401,173.381,178.6,184.006,186.2485,188.49,195.95,198.191,200.4335,202.674,208.655,211.264,215.559,217.8015,220.042,224.875,227.117,229.3595,231.6,239.742,244.225,249.443,254.42,256.66249999999997,258.903,267.044,269.286,271.5285,273.769,279.75,284.968,289.451,294.347,296.5895,298.83,305.878,308.1205,310.361,315.839,321.058,326.276,330.76,335.978,339.959,344.254,349.7257,351.974,356.269,358.878,363.173,367.154,370.077,373.457,378.353,382.334,387.553,391.848,399.765,402.374,406.355,410.838,413.4393,415.689,421.078,425.373,428.915,431.9,436.796,440.338,448.246,452.729,457.948,461.929,466.2346,468.465,473.361,476.3211,478.588,483.977,488.873,491.482,496.467,500.951,504.932,509.227,514.445" svgx:width="0.5,0.25,0.55,0.71,0.58,0.48,0.58,0.25,0.55,0.67,0.25,0.25,0.55,0.67,0.6,0.25,0.55,0.95,0.25,0.25,0.55,0.67,0.58,0.6,0.25,0.55,0.83,0.25,0.25,0.55,0.67,0.29,0.48,0.25,0.55,0.61,0.25,0.25,0.55,1.0,0.5,0.58,0.56,0.25,0.55,1.0,0.25,0.25,0.55,0.67,0.58,0.5,0.55,0.25,0.55,0.79,0.25,0.55,0.61,0.58,0.58,0.5,0.58,0.44,0.48,0.61,0.55,0.48,0.29,0.48,0.44,0.33,0.4,0.55,0.44,0.58,0.48,0.88,0.29,0.44,0.5,0.29,0.55,0.6,0.48,0.4,0.33,0.55,0.4,0.88,0.5,0.58,0.44,0.48,0.55,0.55,0.33,0.55,0.6,0.55,0.29,0.56,0.5,0.44,0.48,0.58,0.48" style="fill:rgb(0,0,0);font-family:URWPalladioL-Roma;font-size:8.97px;stroke:none;">3. Chen, Z.; Xu, M.; Zhu, H.; Xie, T.; Wang, W.; Zhao, Q. Enhanced electrochemical performance of polyacene</text>
   <text y="530.119" x="98.05,102.031,106.927,111.41,114.333,118.628,124.0997,126.348,131.826,134.436,142.918" svgx:width="0.44,0.55,0.5,0.33,0.48,0.61,0.55,0.61,0.29,0.95,0.58" style="fill:rgb(0,0,0);font-family:URWPalladioL-Roma;font-size:8.97px;stroke:none;">coated LiMn</text>
   <text y="531.91" x="148.136" svgx:width="0.5" style="fill:rgb(0,0,0);font-family:URWPalladioL-Roma;font-size:6.97px;stroke:none;">2</text>
   <text y="530.119" x="152.121" svgx:width="0.79" style="fill:rgb(0,0,0);font-family:URWPalladioL-Roma;font-size:8.97px;stroke:none;">O</text>
   <text y="531.91" x="159.169,162.656,164.399,167.886" svgx:width="0.5,0.25,0.5,0.5" style="fill:rgb(0,0,0);font-family:URWPalladioL-Roma;font-size:6.97px;stroke:none;">3.95</text>
   <text y="530.119" x="171.871" svgx:width="0.56" style="fill:rgb(0,0,0);font-family:URWPalladioL-Roma;font-size:8.97px;stroke:none;">F</text>
   <text y="531.91" x="176.856,180.343,182.086,185.573" svgx:width="0.5,0.25,0.5,0.5" style="fill:rgb(0,0,0);font-family:URWPalladioL-Roma;font-size:6.97px;stroke:none;">0.05</text>
   <text y="530.119" x="191.8,194.786,199.682,203.26999999999998,205.465,208.074,210.683,213.606,218.825,221.434,226.841,237.0,239.609,244.505,249.70759999999999,251.965,256.923,261.406,264.329,267.252,271.547,275.089,277.698,281.993,285.795" svgx:width="0.33,0.55,0.4,0.55,0.29,0.29,0.33,0.58,0.29,0.6,0.88,0.29,0.55,0.58,0.55,0.55,0.5,0.33,0.33,0.48,0.4,0.29,0.48,0.42,0.25" style="fill:rgb(0,0,0);font-family:URWPalladioL-Roma;font-size:8.97px;stroke:none;">for lithiumion batteries.</text>
   <text y="530.119" x="291.173,297.647,302.13,306.613,309.106,311.3485,314.486,319.471,324.456,327.944,330.437,332.6795,335.817,340.802,344.451,346.944" svgx:width="0.72,0.5,0.5,0.28,0.25,0.55,0.56,0.56,0.39,0.28,0.25,0.55,0.56,0.41,0.28,0.25" style="fill:rgb(0,0,0);font-family:URWPalladioL-Ital;font-size:8.97px;stroke:none;">Appl. Surf. Sci.</text>
   <text y="530.119" x="352.323,356.806,361.289,365.773" svgx:width="0.5,0.5,0.5,0.5" style="fill:rgb(0,0,0);font-family:URWPalladioL-Bold;font-size:8.97px;stroke:none;">2013</text>
   <text y="530.119" x="370.256" svgx:width="0.25" style="fill:rgb(0,0,0);font-family:URWPalladioL-Roma;font-size:8.97px;stroke:none;">,</text>
   <text y="530.119" x="374.739,379.222,383.705" svgx:width="0.5,0.5,0.5" style="fill:rgb(0,0,0);font-family:URWPalladioL-Ital;font-size:8.97px;stroke:none;">286</text>
   <text y="530.119" x="388.189,390.4315,392.672,397.155,401.639,406.122,410.605,415.088,419.572,424.055,426.2975,429.435" svgx:width="0.25,0.55,0.5,0.5,0.5,0.5,0.5,0.5,0.5,0.25,0.55,0.33" style="fill:rgb(0,0,0);font-family:URWPalladioL-Roma;font-size:8.97px;stroke:none;">, 177–183. [</text>
   <text y="530.119" x="432.42,438.778,442.158,447.054,450.855,454.657,460.647,464.942" svgx:width="0.71,0.4,0.55,0.42,0.42,0.67,0.48,0.33" style="fill:rgb(8,117,183);font-family:URWPalladioL-Roma;font-size:8.97px;stroke:none;">CrossRef</text>
   <text y="530.119" x="467.927" svgx:width="0.33" style="fill:rgb(0,0,0);font-family:URWPalladioL-Roma;font-size:8.97px;stroke:none;">]</text>
   <text y="543.03" x="76.535,81.018,83.26050000000001,98.05,104.28,109.394,113.603,118.717,120.9595,123.102,128.963,131.16,133.4025,135.562,141.423,146.537,150.931,156.045,160.93,163.1725,165.306,171.167,173.364,175.6065,177.766,183.627,188.741,193.135,197.933,200.1755,202.317,209.224,211.421,213.6635,215.823,222.624,227.923,232.316,237.43,239.6725,241.815,244.741,246.938,249.1805,251.332,257.193,262.307,267.605,269.8475,271.99,279.301,281.5435,283.686,290.522,295.636,301.005,305.214,308.685,312.411,315.275,319.669,324.783,330.152,332.709,337.823,342.84619999999995,344.896,347.761,352.875,357.1806,359.263,362.225,369.983,375.265,379.658,383.56,386.5201,388.612,393.41,396.37010000000004,398.524,404.903,407.829,414.631,419.428,424.709,427.266,432.38,437.40319999999997,439.445,444.243,449.4456,451.545,454.41,459.524,463.8296,465.921,470.534,473.399,476.799,482.098,485.999,488.864,494.162,497.466,501.77160000000003,503.863,508.257,513.371" svgx:width="0.5,0.25,0.55,0.71,0.58,0.48,0.58,0.25,0.55,0.67,0.25,0.25,0.55,0.67,0.58,0.5,0.58,0.56,0.25,0.55,0.67,0.25,0.25,0.55,0.67,0.58,0.5,0.55,0.25,0.55,0.79,0.25,0.25,0.55,0.77,0.6,0.5,0.58,0.25,0.55,0.33,0.25,0.25,0.55,0.67,0.58,0.6,0.25,0.55,0.83,0.25,0.55,0.78,0.58,0.61,0.48,0.4,0.42,0.33,0.5,0.58,0.61,0.29,0.58,0.56,0.55,0.33,0.58,0.48,0.55,0.34,0.88,0.6,0.5,0.44,0.33,0.55,0.55,0.33,0.55,0.73,0.33,0.77,0.55,0.6,0.29,0.58,0.56,0.55,0.55,0.58,0.55,0.33,0.58,0.48,0.55,0.52,0.33,0.4,0.6,0.44,0.33,0.6,0.4,0.48,0.55,0.5,0.58,0.61" style="fill:rgb(0,0,0);font-family:URWPalladioL-Roma;font-size:8.97px;stroke:none;">4. Chen, Z.; Zhang, Z.; Zhao, Q.; Duan, J.; Zhu, H. Understanding the Impact of K-Doping on the Structure and</text>
   <text y="555.942" x="98.05,103.466,107.761,111.302,114.288,119.184,122.726,130.643,135.126,140.344,144.326,148.6316,150.862,155.758,158.71810000000002,160.985,166.464,169.073,174.058,178.353,183.769" svgx:width="0.6,0.48,0.4,0.33,0.55,0.4,0.88,0.5,0.58,0.44,0.48,0.55,0.55,0.33,0.55,0.61,0.29,0.56,0.48,0.6,0.79" style="fill:rgb(0,0,0);font-family:URWPalladioL-Roma;font-size:8.97px;stroke:none;">Performance of LiFePO</text>
   <text y="557.733" x="190.816" svgx:width="0.5" style="fill:rgb(0,0,0);font-family:URWPalladioL-Roma;font-size:6.97px;stroke:none;">4</text>
   <text y="555.942" x="194.801" svgx:width="0.29" style="fill:rgb(0,0,0);font-family:Rpxr;font-size:8.97px;stroke:none;">/</text>
   <text y="555.942" x="197.374,203.74269999999999,205.973,212.33,216.813,219.736,224.955,229.85,235.329,239.6346,241.865,250.348,254.831,257.754,262.049,265.59,268.2,272.683,275.292,279.094" svgx:width="0.71,0.55,0.71,0.5,0.33,0.58,0.55,0.61,0.48,0.55,0.95,0.5,0.33,0.48,0.4,0.29,0.5,0.29,0.42,0.25" style="fill:rgb(0,0,0);font-family:URWPalladioL-Roma;font-size:8.97px;stroke:none;">C Cathode Materials.</text>
   <text y="555.942" x="284.473,287.459,289.7015,291.942,298.918,302.899,307.884,311.865,315.353,319.003,321.2455,324.382,331.358,335.339,340.325,344.306,347.292,350.78,354.429,358.912,363.897,367.878,370.371" svgx:width="0.33,0.25,0.55,0.78,0.44,0.56,0.44,0.39,0.41,0.25,0.55,0.78,0.44,0.56,0.44,0.33,0.39,0.41,0.5,0.56,0.44,0.28,0.25" style="fill:rgb(0,0,0);font-family:URWPalladioL-Ital;font-size:8.97px;stroke:none;">J. Nanosc. Nanotechnol.</text>
   <text y="555.942" x="375.749,380.232,384.715,389.199" svgx:width="0.5,0.5,0.5,0.5" style="fill:rgb(0,0,0);font-family:URWPalladioL-Bold;font-size:8.97px;stroke:none;">2019</text>
   <text y="555.942" x="393.682" svgx:width="0.25" style="fill:rgb(0,0,0);font-family:URWPalladioL-Roma;font-size:8.97px;stroke:none;">,</text>
   <text y="555.942" x="398.165,402.648" svgx:width="0.5,0.5" style="fill:rgb(0,0,0);font-family:URWPalladioL-Ital;font-size:8.97px;stroke:none;">19</text>
   <text y="555.942" x="407.131,409.3735,411.614,416.097,420.581,425.064,429.547,434.03,438.514,442.997,445.2395,448.377" svgx:width="0.25,0.55,0.5,0.5,0.5,0.5,0.5,0.5,0.5,0.25,0.55,0.33" style="fill:rgb(0,0,0);font-family:URWPalladioL-Roma;font-size:8.97px;stroke:none;">, 119–124. [</text>
   <text y="555.942" x="451.362,457.72,461.1,465.996,469.797,473.599,479.589,483.884" svgx:width="0.71,0.4,0.55,0.42,0.42,0.67,0.48,0.33" style="fill:rgb(8,117,183);font-family:URWPalladioL-Roma;font-size:8.97px;stroke:none;">CrossRef</text>
   <text y="555.942" x="486.869" svgx:width="0.33" style="fill:rgb(0,0,0);font-family:URWPalladioL-Roma;font-size:8.97px;stroke:none;">]</text>
   <text y="568.854" x="76.535,81.018,83.26050000000001,98.05,103.638,106.299,111.814,114.0565,116.332,124.655,126.941,129.1835,131.469,139.078,144.593,146.8355,149.111,156.089,158.375,160.6175,162.902,169.981,175.496,177.73850000000002,180.014,186.654,188.94,191.1825,193.467,198.991,203.372,208.695,213.78,216.0225,218.298,224.398,226.685,228.9275,231.212,237.696,242.269,247.253,249.4955,251.781,256.884,259.1265,261.402,266.99,272.313,277.636,282.208,287.531,291.592,295.973,301.4447,303.802,307.679,310.661,315.654,319.267,323.84,328.925,333.23060000000004,335.537,341.034,344.482,349.475,354.972,359.353,362.965,365.947,370.9702,373.272,378.266,381.22610000000003,383.543,389.131,391.793,399.393" svgx:width="0.5,0.25,0.55,0.61,0.29,0.6,0.25,0.55,1.0,0.25,0.25,0.55,0.83,0.6,0.25,0.55,0.76,0.25,0.25,0.55,0.77,0.6,0.25,0.55,0.73,0.25,0.25,0.55,0.6,0.48,0.58,0.56,0.25,0.55,0.67,0.25,0.25,0.55,0.71,0.5,0.55,0.25,0.55,0.67,0.25,0.55,0.61,0.58,0.58,0.5,0.58,0.44,0.48,0.61,0.55,0.42,0.33,0.55,0.4,0.5,0.56,0.48,0.55,0.6,0.4,0.55,0.6,0.48,0.4,0.33,0.56,0.55,0.55,0.33,0.55,0.61,0.29,0.83,0.29" style="fill:rgb(0,0,0);font-family:URWPalladioL-Roma;font-size:8.97px;stroke:none;">5. Liu, W.; Hu, G.; Du, K.; Peng, Z.; Cao, Y. Enhanced storage property of LiNi</text>
   <text y="570.645" x="402.053,405.54,407.283" svgx:width="0.5,0.25,0.5" style="fill:rgb(0,0,0);font-family:URWPalladioL-Roma;font-size:6.97px;stroke:none;">0.8</text>
   <text y="568.854" x="411.268,417.752" svgx:width="0.71,0.55" style="fill:rgb(0,0,0);font-family:URWPalladioL-Roma;font-size:8.97px;stroke:none;">Co</text>
   <text y="570.645" x="422.746,426.233,427.976,431.463" svgx:width="0.5,0.25,0.5,0.5" style="fill:rgb(0,0,0);font-family:URWPalladioL-Roma;font-size:6.97px;stroke:none;">0.15</text>
   <text y="568.854" x="435.448,442.563" svgx:width="0.78,0.29" style="fill:rgb(0,0,0);font-family:URWPalladioL-Roma;font-size:8.97px;stroke:none;">Al</text>
   <text y="570.645" x="445.225,448.712,450.455,453.942" svgx:width="0.5,0.25,0.5,0.5" style="fill:rgb(0,0,0);font-family:URWPalladioL-Roma;font-size:6.97px;stroke:none;">0.05</text>
   <text y="568.854" x="457.927" svgx:width="0.79" style="fill:rgb(0,0,0);font-family:URWPalladioL-Roma;font-size:8.97px;stroke:none;">O</text>
   <text y="570.645" x="465.116" svgx:width="0.5" style="fill:rgb(0,0,0);font-family:URWPalladioL-Roma;font-size:6.97px;stroke:none;">2</text>
   <text y="568.854" x="471.335,475.396,480.389,484.962,487.944,492.324,497.7957,500.144,507.772,510.433,513.414" svgx:width="0.44,0.55,0.5,0.33,0.48,0.61,0.55,0.83,0.29,0.33,0.58" style="fill:rgb(0,0,0);font-family:URWPalladioL-Roma;font-size:8.97px;stroke:none;">coated with</text>
   <text y="581.765" x="98.05,103.528,106.138,112.495,117.391" svgx:width="0.61,0.29,0.71,0.55,0.79" style="fill:rgb(0,0,0);font-family:URWPalladioL-Roma;font-size:8.97px;stroke:none;">LiCoO</text>
   <text y="583.557" x="124.438" svgx:width="0.5" style="fill:rgb(0,0,0);font-family:URWPalladioL-Roma;font-size:6.97px;stroke:none;">2</text>
   <text y="581.765" x="128.423" svgx:width="0.25" style="fill:rgb(0,0,0);font-family:URWPalladioL-Roma;font-size:8.97px;stroke:none;">.</text>
   <text y="581.765" x="133.803,136.789,139.0315,141.272,146.751,150.732,157.205,160.693,164.1913,166.423,171.408,175.389,180.375,183.701,187.35,190.838" svgx:width="0.33,0.25,0.55,0.61,0.44,0.72,0.39,0.39,0.55,0.56,0.44,0.56,0.39,0.41,0.39,0.39" style="fill:rgb(0,0,0);font-family:URWPalladioL-Ital;font-size:8.97px;stroke:none;">J. Power Sources</text>
   <text y="581.765" x="196.567,201.05,205.533,210.017" svgx:width="0.5,0.5,0.5,0.5" style="fill:rgb(0,0,0);font-family:URWPalladioL-Bold;font-size:8.97px;stroke:none;">2013</text>
   <text y="581.765" x="214.5" svgx:width="0.25" style="fill:rgb(0,0,0);font-family:URWPalladioL-Roma;font-size:8.97px;stroke:none;">,</text>
   <text y="581.765" x="218.983,223.466,227.949" svgx:width="0.5,0.5,0.5" style="fill:rgb(0,0,0);font-family:URWPalladioL-Ital;font-size:8.97px;stroke:none;">230</text>
   <text y="581.765" x="232.433,234.6755,236.916,241.399,245.883,250.366,254.849,259.332,263.815,268.299,270.5415,273.678" svgx:width="0.25,0.55,0.5,0.5,0.5,0.5,0.5,0.5,0.5,0.25,0.55,0.33" style="fill:rgb(0,0,0);font-family:URWPalladioL-Roma;font-size:8.97px;stroke:none;">, 201–206. [</text>
   <text y="581.765" x="276.664,283.021,286.402,291.297,295.099,298.901,304.891,309.185" svgx:width="0.71,0.4,0.55,0.42,0.42,0.67,0.48,0.33" style="fill:rgb(8,117,183);font-family:URWPalladioL-Roma;font-size:8.97px;stroke:none;">CrossRef</text>
   <text y="581.765" x="312.171" svgx:width="0.33" style="fill:rgb(0,0,0);font-family:URWPalladioL-Roma;font-size:8.97px;stroke:none;">]</text>
   <text y="594.677" x="76.535,81.018,83.26050000000001,98.05,103.611,106.259,108.50150000000001,110.773,116.843,119.119,121.3615,123.633,129.703,135.0,139.55,144.847,149.907,152.14950000000002,154.421,161.028,163.303,165.5455,167.817,176.099,180.65,185.946,191.007,193.2495,195.521,204.13,206.405,208.6475,210.919,216.48,219.128,224.616,226.85850000000002,229.13,234.199,236.475,238.7175,240.989,248.142,253.63,255.8725,258.153,266.753,269.029,271.2715,273.552,279.622,284.919,289.469,294.438,296.6805,298.952,307.225,309.5,311.7425,314.014,320.085,325.381,329.741,335.037,340.098,342.3405,344.612,347.642,349.8845,352.156,359.2,364.688,369.239,371.84029999999996,374.126,377.156,382.644,387.941,391.982,394.949,397.597,402.566,407.863,411.6304,413.96,418.93,421.8901,424.199,428.749,431.398,434.829,438.87,443.839,449.135,451.784,457.272,465.1656,467.547,475.583,480.552,486.112,488.761,494.267,498.308,502.858,505.825,508.473,513.442" svgx:width="0.5,0.25,0.55,0.61,0.29,0.25,0.55,0.67,0.25,0.25,0.55,0.67,0.58,0.5,0.58,0.56,0.25,0.55,0.73,0.25,0.25,0.55,1.0,0.5,0.58,0.56,0.25,0.55,0.95,0.25,0.25,0.55,0.61,0.29,0.6,0.25,0.55,0.67,0.25,0.25,0.55,0.79,0.6,0.25,0.55,0.95,0.25,0.25,0.55,0.67,0.58,0.5,0.55,0.25,0.55,1.0,0.25,0.25,0.55,0.67,0.58,0.48,0.58,0.56,0.25,0.55,0.33,0.25,0.55,0.77,0.6,0.5,0.29,0.55,0.33,0.6,0.58,0.44,0.33,0.29,0.55,0.58,0.42,0.55,0.55,0.33,0.55,0.5,0.29,0.4,0.44,0.55,0.58,0.29,0.6,0.88,0.55,0.88,0.55,0.61,0.29,0.61,0.44,0.5,0.33,0.29,0.55,0.58" style="fill:rgb(0,0,0);font-family:URWPalladioL-Roma;font-size:8.97px;stroke:none;">6. Li, X.; Zhang, K.; Wang, M.; Liu, Y.; Qu, M.; Zhao, W.; Zheng, J. Dual functions of zirconium modiﬁcation</text>
   <text y="607.588" x="98.05,102.96,108.1626,110.443,113.06,121.001,126.406,129.796,134.707,139.788,142.405,147.639,152.6622,154.879,157.81,163.045,167.3506,169.601,173.908,176.526,180.833,184.826,187.758,191.149,196.059,200.052,205.286,209.594,217.535,220.152,224.145,228.642,231.2433,233.498,238.903,243.211,246.763,249.758,254.668,258.221,266.162,270.658,275.892,279.885,284.1906,286.442,291.352,294.3121,296.595,304.068,306.685,309.68,313.233,315.85,319.843,325.04560000000004,327.316,332.811,335.428,342.901" svgx:width="0.55,0.58,0.55,0.29,0.88,0.6,0.4,0.55,0.56,0.29,0.58,0.56,0.55,0.33,0.58,0.48,0.55,0.48,0.29,0.48,0.44,0.33,0.4,0.55,0.44,0.58,0.48,0.88,0.29,0.44,0.5,0.29,0.55,0.6,0.48,0.4,0.33,0.55,0.4,0.88,0.5,0.58,0.44,0.48,0.55,0.55,0.33,0.55,0.83,0.29,0.33,0.4,0.29,0.44,0.58,0.55,0.61,0.29,0.83,0.29" style="fill:rgb(0,0,0);font-family:URWPalladioL-Roma;font-size:8.97px;stroke:none;">on improving the electrochemical performance of Ni-rich LiNi</text>
   <text y="609.38" x="345.519,349.006,350.749" svgx:width="0.5,0.25,0.5" style="fill:rgb(0,0,0);font-family:URWPalladioL-Roma;font-size:6.97px;stroke:none;">0.8</text>
   <text y="607.588" x="354.735,361.111" svgx:width="0.71,0.55" style="fill:rgb(0,0,0);font-family:URWPalladioL-Roma;font-size:8.97px;stroke:none;">Co</text>
   <text y="609.38" x="366.021,369.508,371.251" svgx:width="0.5,0.25,0.5" style="fill:rgb(0,0,0);font-family:URWPalladioL-Roma;font-size:6.97px;stroke:none;">0.1</text>
   <text y="607.588" x="375.237,383.745" svgx:width="0.95,0.58" style="fill:rgb(0,0,0);font-family:URWPalladioL-Roma;font-size:8.97px;stroke:none;">Mn</text>
   <text y="609.38" x="388.978,392.465,394.208" svgx:width="0.5,0.25,0.5" style="fill:rgb(0,0,0);font-family:URWPalladioL-Roma;font-size:6.97px;stroke:none;">0.1</text>
   <text y="607.588" x="398.194" svgx:width="0.79" style="fill:rgb(0,0,0);font-family:URWPalladioL-Roma;font-size:8.97px;stroke:none;">O</text>
   <text y="609.38" x="405.263" svgx:width="0.5" style="fill:rgb(0,0,0);font-family:URWPalladioL-Roma;font-size:6.97px;stroke:none;">2</text>
   <text y="607.588" x="409.248" svgx:width="0.25" style="fill:rgb(0,0,0);font-family:URWPalladioL-Roma;font-size:8.97px;stroke:none;">.</text>
   <text y="607.588" x="414.644,419.644,424.645,428.143,431.138,435.131,437.631,442.65419999999995,444.879,450.374,455.375,458.873,462.21,466.695,468.945,473.946,478.946,482.444,484.945" svgx:width="0.56,0.56,0.39,0.33,0.44,0.28,0.56,0.55,0.61,0.56,0.39,0.39,0.5,0.55,0.56,0.56,0.39,0.28,0.39" style="fill:rgb(0,0,0);font-family:URWPalladioL-Ital;font-size:8.97px;stroke:none;">Sustain Energ Fuels</text>
   <text y="607.588" x="490.689,495.172,499.655,504.139" svgx:width="0.5,0.5,0.5,0.5" style="fill:rgb(0,0,0);font-family:URWPalladioL-Bold;font-size:8.97px;stroke:none;">2018</text>
   <text y="607.588" x="508.622" svgx:width="0.25" style="fill:rgb(0,0,0);font-family:URWPalladioL-Roma;font-size:8.97px;stroke:none;">,</text>
   <text y="607.588" x="513.116" svgx:width="0.5" style="fill:rgb(0,0,0);font-family:URWPalladioL-Ital;font-size:8.97px;stroke:none;">2</text>
   <text y="607.588" x="517.613" svgx:width="0.25" style="fill:rgb(0,0,0);font-family:URWPalladioL-Roma;font-size:8.97px;stroke:none;">,</text>
   <text y="620.5" x="98.05,102.533,107.016,111.5,115.983,120.466,124.949,129.432,131.6745,134.812" svgx:width="0.5,0.5,0.5,0.5,0.5,0.5,0.5,0.25,0.55,0.33" style="fill:rgb(0,0,0);font-family:URWPalladioL-Roma;font-size:8.97px;stroke:none;">413–421. [</text>
   <text y="620.5" x="137.798,144.155,147.536,152.431,156.233,160.035,166.024,170.319" svgx:width="0.71,0.4,0.55,0.42,0.42,0.67,0.48,0.33" style="fill:rgb(8,117,183);font-family:URWPalladioL-Roma;font-size:8.97px;stroke:none;">CrossRef</text>
   <text y="620.5" x="173.305" svgx:width="0.33" style="fill:rgb(0,0,0);font-family:URWPalladioL-Roma;font-size:8.97px;stroke:none;">]</text>
   <text y="633.412" x="76.535,81.018,83.26050000000001,98.05,105.495,110.891,113.13350000000001,115.365,122.193,124.43,126.67250000000001,128.895,134.363,136.967,142.363,144.6055,146.837,154.962,157.199,159.44150000000002,161.665,167.07,171.356,176.564,181.539,183.7815,186.013,191.982,194.219,196.4615,198.693,205.62,211.015,213.2575,215.481,221.977,224.214,226.4565,228.689,235.033,239.507,244.393,246.6355,248.859,253.834,256.0765,258.308,263.006,267.981,273.189,276.107,281.315,285.601,289.395,291.999,295.76640000000003,298.021,302.496,307.704,313.1757,315.408,319.695,322.299,326.585,330.558,333.475,336.84,341.726,345.699,350.907,355.193,363.095,365.699,369.672,374.146,376.7473,378.987,384.365,387.739,392.625,398.003,402.289,405.824,408.741,411.345,415.631,419.3984,421.653,426.539,429.4991,431.756,437.224,439.828,447.264" svgx:width="0.5,0.25,0.55,0.83,0.6,0.25,0.55,0.76,0.25,0.25,0.55,0.61,0.29,0.6,0.25,0.55,1.0,0.25,0.25,0.55,0.6,0.48,0.58,0.56,0.25,0.55,0.67,0.25,0.25,0.55,0.77,0.6,0.25,0.55,0.73,0.25,0.25,0.55,0.71,0.5,0.55,0.25,0.55,0.67,0.25,0.55,0.52,0.56,0.58,0.33,0.58,0.48,0.42,0.29,0.42,0.55,0.5,0.58,0.61,0.55,0.48,0.29,0.48,0.44,0.33,0.4,0.55,0.44,0.58,0.48,0.88,0.29,0.44,0.5,0.29,0.55,0.6,0.4,0.55,0.6,0.48,0.4,0.33,0.29,0.48,0.42,0.55,0.55,0.33,0.55,0.61,0.29,0.83,0.29" style="fill:rgb(0,0,0);font-family:URWPalladioL-Roma;font-size:8.97px;stroke:none;">7. Hu, G.; Liu, W.; Peng, Z.; Du, K.; Cao, Y. Synthesis and electrochemical properties of LiNi</text>
   <text y="635.203" x="449.865,453.352,455.0945,457.536" svgx:width="0.5,0.25,0.55,0.5" style="fill:rgb(0,0,0);font-family:URWPalladioL-Roma;font-size:6.97px;stroke:none;">0. 8</text>
   <text y="633.412" x="461.521,467.865" svgx:width="0.71,0.55" style="fill:rgb(0,0,0);font-family:URWPalladioL-Roma;font-size:8.97px;stroke:none;">Co</text>
   <text y="635.203" x="472.751,476.238,477.981,481.468" svgx:width="0.5,0.25,0.5,0.5" style="fill:rgb(0,0,0);font-family:URWPalladioL-Roma;font-size:6.97px;stroke:none;">0.15</text>
   <text y="633.412" x="485.454,492.416" svgx:width="0.78,0.29" style="fill:rgb(0,0,0);font-family:URWPalladioL-Roma;font-size:8.97px;stroke:none;">Al</text>
   <text y="635.203" x="495.019,498.506,500.249,503.736" svgx:width="0.5,0.25,0.5,0.5" style="fill:rgb(0,0,0);font-family:URWPalladioL-Roma;font-size:6.97px;stroke:none;">0.05</text>
   <text y="633.412" x="507.722" svgx:width="0.79" style="fill:rgb(0,0,0);font-family:URWPalladioL-Roma;font-size:8.97px;stroke:none;">O</text>
   <text y="635.203" x="514.755" svgx:width="0.5" style="fill:rgb(0,0,0);font-family:URWPalladioL-Roma;font-size:6.97px;stroke:none;">2</text>
   <text y="646.323" x="97.781,103.17,106.55,110.845,116.234,120.717,124.097,128.392,133.8637,136.112,139.098,142.479,147.374,157.533,160.456,165.675,169.9806,172.211,177.6,180.98,185.275,189.256,194.663,198.205,202.006,206.902,210.48999999999998,212.685,220.137" svgx:width="0.6,0.4,0.48,0.6,0.5,0.4,0.48,0.61,0.55,0.33,0.4,0.55,0.88,0.33,0.58,0.48,0.55,0.6,0.4,0.48,0.44,0.6,0.4,0.42,0.55,0.4,0.55,0.83,0.29" style="fill:rgb(0,0,0);font-family:URWPalladioL-Roma;font-size:8.97px;stroke:none;">prepared fromthe precursor Ni</text>
   <text y="648.115" x="222.745,226.232,227.975" svgx:width="0.5,0.25,0.5" style="fill:rgb(0,0,0);font-family:URWPalladioL-Roma;font-size:6.97px;stroke:none;">0.8</text>
   <text y="646.323" x="231.96,238.317" svgx:width="0.71,0.55" style="fill:rgb(0,0,0);font-family:URWPalladioL-Roma;font-size:8.97px;stroke:none;">Co</text>
   <text y="648.115" x="243.213,246.7,248.443,251.93" svgx:width="0.5,0.25,0.5,0.5" style="fill:rgb(0,0,0);font-family:URWPalladioL-Roma;font-size:6.97px;stroke:none;">0.15</text>
   <text y="646.323" x="255.915,262.891" svgx:width="0.78,0.29" style="fill:rgb(0,0,0);font-family:URWPalladioL-Roma;font-size:8.97px;stroke:none;">Al</text>
   <text y="648.115" x="265.5,268.987,270.73,274.217" svgx:width="0.5,0.25,0.5,0.5" style="fill:rgb(0,0,0);font-family:URWPalladioL-Roma;font-size:6.97px;stroke:none;">0.05</text>
   <text y="646.323" x="278.202,285.25,292.297,299.757" svgx:width="0.79,0.79,0.83,0.25" style="fill:rgb(0,0,0);font-family:URWPalladioL-Roma;font-size:8.97px;stroke:none;">OOH.</text>
   <text y="646.323" x="304.241,307.227,309.4695,311.71,317.189,321.17,327.643,331.131,334.62929999999994,336.861,341.846,345.827,350.813,354.139,357.788,361.276" svgx:width="0.33,0.25,0.55,0.61,0.44,0.72,0.39,0.39,0.55,0.56,0.44,0.56,0.39,0.41,0.39,0.39" style="fill:rgb(0,0,0);font-family:URWPalladioL-Ital;font-size:8.97px;stroke:none;">J. Power Sources</text>
   <text y="646.323" x="367.004,371.487,375.97,380.454" svgx:width="0.5,0.5,0.5,0.5" style="fill:rgb(0,0,0);font-family:URWPalladioL-Bold;font-size:8.97px;stroke:none;">2012</text>
   <text y="646.323" x="384.937" svgx:width="0.25" style="fill:rgb(0,0,0);font-family:URWPalladioL-Roma;font-size:8.97px;stroke:none;">,</text>
   <text y="646.323" x="389.42,393.903,398.386" svgx:width="0.5,0.5,0.5" style="fill:rgb(0,0,0);font-family:URWPalladioL-Ital;font-size:8.97px;stroke:none;">198</text>
   <text y="646.323" x="402.87,405.1125,407.353,411.836,416.32,420.803,425.286,429.769,434.253,438.736,440.9785,444.116" svgx:width="0.25,0.55,0.5,0.5,0.5,0.5,0.5,0.5,0.5,0.25,0.55,0.33" style="fill:rgb(0,0,0);font-family:URWPalladioL-Roma;font-size:8.97px;stroke:none;">, 258–263. [</text>
   <text y="646.323" x="447.101,453.459,456.839,461.735,465.536,469.338,475.328,479.622" svgx:width="0.71,0.4,0.55,0.42,0.42,0.67,0.48,0.33" style="fill:rgb(8,117,183);font-family:URWPalladioL-Roma;font-size:8.97px;stroke:none;">CrossRef</text>
   <text y="646.323" x="482.608" svgx:width="0.33" style="fill:rgb(0,0,0);font-family:URWPalladioL-Roma;font-size:8.97px;stroke:none;">]</text>
   <text y="659.235" x="76.535,81.018,83.26050000000001,98.05,103.638,106.299,111.814,114.0565,116.762,119.808,122.094,124.3365,127.243,132.831,135.493,141.007,143.2495,145.955,153.144,155.43,157.6725,160.589,166.689,172.012,177.526,179.76850000000002,182.474,190.084,192.37,194.6125,197.519,203.107,205.768,211.091,213.33350000000002,216.039,220.301,222.587,224.8295,227.746,230.791,233.453,235.6955,238.391,243.504,245.79,248.0325,250.939,256.527,259.189,261.4315,264.137,269.725,272.011,274.25350000000003,277.169,284.248,289.763,294.336,299.659,301.9015,304.606,307.652,309.938,312.1805,315.087,320.675,323.337,325.5795,328.285,333.873,336.159,338.4015,341.317,347.802,353.125,357.505,362.828,365.0705,367.767,373.867,376.1095,378.815" svgx:width="0.5,0.25,0.55,0.61,0.29,0.6,0.25,0.55,0.33,0.25,0.25,0.55,0.61,0.29,0.6,0.25,0.55,0.79,0.25,0.25,0.55,0.67,0.58,0.6,0.25,0.55,0.83,0.25,0.25,0.55,0.61,0.29,0.58,0.25,0.55,0.56,0.25,0.25,0.55,0.33,0.29,0.25,0.55,0.67,0.25,0.25,0.55,0.61,0.29,0.25,0.55,0.61,0.25,0.25,0.55,0.77,0.6,0.5,0.58,0.25,0.55,0.33,0.25,0.25,0.55,0.61,0.29,0.25,0.55,0.61,0.25,0.25,0.55,0.71,0.58,0.48,0.58,0.25,0.55,0.67,0.25,0.55,0.61" style="fill:rgb(0,0,0);font-family:URWPalladioL-Roma;font-size:8.97px;stroke:none;">8. Liu, J.; Liu, Q.; Zhu, H.; Lin, F.; Ji, Y.; Li, B.; Duan, J.; Li, L.; Chen, Z. E</text>
   <text y="659.235" x="384.404" svgx:width="0.61" style="fill:rgb(0,0,0);font-family:Rpxr;font-size:8.97px;stroke:none;">ﬀ</text>
   <text y="659.235" x="389.965,394.346,398.406,401.3661,404.049,409.043,412.0031,414.75,421.829" svgx:width="0.48,0.44,0.33,0.55,0.55,0.33,0.55,0.77,0.29" style="fill:rgb(0,0,0);font-family:URWPalladioL-Roma;font-size:8.97px;stroke:none;">ect of Di</text>
   <text y="659.235" x="424.486" svgx:width="0.61" style="fill:rgb(0,0,0);font-family:Rpxr;font-size:8.97px;stroke:none;">ﬀ</text>
   <text y="659.235" x="430.047,434.428,437.876,442.257,447.579,450.5391,453.222,459.707,464.7,472.776,478.272,483.266,487.144,489.805,492.787,495.448,500.442,505.6446,508.426,513.419" svgx:width="0.48,0.4,0.48,0.58,0.33,0.55,0.71,0.55,0.88,0.6,0.55,0.42,0.29,0.33,0.29,0.55,0.58,0.55,0.55,0.58" style="fill:rgb(0,0,0);font-family:URWPalladioL-Roma;font-size:8.97px;stroke:none;">erent Composition on</text>
   <text y="672.146" x="97.728,103.101,107.918,110.486,113.362,117.774,122.679,126.9846,129.146,136.011,138.887,141.763,145.989,151.124,156.445,160.856,163.732,166.3,171.117,176.31959999999998,178.484,183.302,186.2621,188.481,193.872,196.439,199.377,205.271,207.838,211.756,216.9586,219.132,225.387,229.799,232.675,237.81,242.627,248.018,252.3236,254.485,262.832,267.243,270.111,274.337,277.822,280.389,284.801,287.40229999999997,289.609,292.547,297.365,300.95300000000003,303.091,308.482,311.049,313.925,319.06,321.628,326.948,334.739,337.677,340.244,345.061,350.2636,352.437,357.828,362.24,365.107,367.983,372.21,375.695,378.262,382.488,386.229" svgx:width="0.72,0.55,0.29,0.33,0.5,0.56,0.48,0.55,0.78,0.33,0.33,0.48,0.58,0.6,0.5,0.33,0.29,0.55,0.58,0.55,0.55,0.33,0.55,0.61,0.29,0.33,0.67,0.29,0.44,0.58,0.55,0.71,0.5,0.33,0.58,0.55,0.61,0.48,0.55,0.95,0.5,0.33,0.48,0.4,0.29,0.5,0.29,0.55,0.33,0.55,0.4,0.55,0.61,0.29,0.33,0.58,0.29,0.6,0.88,0.33,0.29,0.55,0.58,0.55,0.61,0.5,0.33,0.33,0.48,0.4,0.29,0.48,0.42,0.25" style="fill:rgb(0,0,0);font-family:URWPalladioL-Roma;font-size:8.97px;stroke:none;">Voltage Attenuation of Li-Rich Cathode Material for Lithium-ion Batteries.</text>
   <text y="672.146" x="391.576,399.905,403.822,406.76,410.192,413.625,416.077,419.995,422.448" svgx:width="0.94,0.44,0.33,0.39,0.39,0.28,0.44,0.28,0.39" style="fill:rgb(0,0,0);font-family:URWPalladioL-Ital;font-size:8.97px;stroke:none;">Materials</text>
   <text y="672.146" x="428.117,432.6,437.083,441.567" svgx:width="0.5,0.5,0.5,0.5" style="fill:rgb(0,0,0);font-family:URWPalladioL-Bold;font-size:8.97px;stroke:none;">2020</text>
   <text y="672.146" x="446.05" svgx:width="0.25" style="fill:rgb(0,0,0);font-family:URWPalladioL-Roma;font-size:8.97px;stroke:none;">,</text>
   <text y="672.146" x="450.495,454.906" svgx:width="0.5,0.5" style="fill:rgb(0,0,0);font-family:URWPalladioL-Ital;font-size:8.97px;stroke:none;">13</text>
   <text y="672.146" x="459.318,461.5605,463.765,468.176,472.588,474.83050000000003,477.926" svgx:width="0.25,0.55,0.5,0.5,0.25,0.55,0.33" style="fill:rgb(0,0,0);font-family:URWPalladioL-Roma;font-size:8.97px;stroke:none;">, 40. [</text>
   <text y="672.146" x="480.864,487.119,490.445,495.263,499.004,502.745,508.638,512.864" svgx:width="0.71,0.4,0.55,0.42,0.42,0.67,0.48,0.33" style="fill:rgb(8,117,183);font-family:URWPalladioL-Roma;font-size:8.97px;stroke:none;">CrossRef</text>
   <text y="672.146" x="515.802" svgx:width="0.33" style="fill:rgb(0,0,0);font-family:URWPalladioL-Roma;font-size:8.97px;stroke:none;">]</text>
   <text y="685.058" x="76.535,81.018,83.26050000000001,98.05,105.154,110.414,113.361,117.88,120.1225,122.372,127.117,129.376,131.6185,133.868,138.613,142.942,147.968,150.598,152.84050000000002,155.09,158.099,160.359,162.60150000000002,164.851,170.048,174.567,179.592,182.222,184.46450000000002,186.714,191.748,194.008,196.25050000000002,198.5,205.062,207.692,212.952,215.582,219.152,223.671,225.9135,228.163,233.197,235.457,237.6995,239.949,244.658,249.177,254.437,257.067,259.3095,261.559,266.439,268.699,270.9415,273.191,280.223,284.055,288.574,293.509,298.534,303.053,305.2955,307.536,312.416,314.6585,316.908,323.316,328.251,331.261,335.093,337.723,342.983,345.93,350.259,353.829,358.348,363.346,365.976,370.2816,372.529,375.159,377.789,380.736,385.996,388.626,394.076,404.289,409.314,413.833,417.403,422.664,426.993,429.939,432.949,435.895,440.921,446.353,450.65860000000004,452.914,457.84,462.504,465.134,470.656,474.96160000000003,477.218,481.547,484.177,488.506,492.519,495.466,498.873,503.808,506.438,511.463,514.41" svgx:width="0.5,0.25,0.55,0.79,0.58,0.33,0.5,0.25,0.55,0.52,0.25,0.25,0.55,0.52,0.48,0.56,0.29,0.25,0.55,0.33,0.25,0.25,0.55,0.67,0.5,0.56,0.29,0.25,0.55,0.67,0.25,0.25,0.55,0.73,0.29,0.58,0.29,0.4,0.5,0.25,0.55,0.67,0.25,0.25,0.55,0.61,0.5,0.58,0.29,0.25,0.55,0.61,0.25,0.25,0.55,0.78,0.42,0.5,0.55,0.56,0.5,0.25,0.55,0.61,0.25,0.55,0.71,0.55,0.33,0.42,0.29,0.58,0.33,0.48,0.4,0.5,0.55,0.29,0.48,0.55,0.29,0.29,0.33,0.58,0.29,0.6,0.88,0.56,0.5,0.4,0.58,0.48,0.33,0.33,0.33,0.56,0.6,0.48,0.55,0.55,0.52,0.29,0.61,0.48,0.55,0.48,0.29,0.48,0.44,0.33,0.4,0.55,0.29,0.56,0.33,0.48" style="fill:rgb(0,0,0);font-family:URWPalladioL-Roma;font-size:8.97px;stroke:none;">9. Ohta, S.; Seki, J.; Yagi, Y.; Kihira, Y.; Tani, T.; Asaoka, T. Co-sinterable lithiumgarnet-type oxide electrolyte</text>
   <text y="697.97" x="97.674,105.152,107.761,110.684,115.8866,118.144,122.125,126.609,129.532,134.75,139.646,145.124,149.4296,151.661,154.647,159.542,163.13,165.326,169.809,172.418,175.027,178.013,181.815,186.71,189.32,191.929,197.407,200.393,204.195,207.118,211.601,214.524,218.8296,221.061,223.67,226.279,229.202,234.421,237.03,242.437,252.595,255.205,260.1,265.30260000000004,267.56,272.519,277.002,279.925,282.848,287.143,290.685,294.675" svgx:width="0.83,0.29,0.33,0.58,0.55,0.44,0.5,0.33,0.58,0.55,0.61,0.48,0.55,0.33,0.55,0.4,0.55,0.5,0.29,0.29,0.33,0.42,0.55,0.29,0.29,0.61,0.33,0.42,0.33,0.5,0.33,0.48,0.55,0.29,0.29,0.33,0.58,0.29,0.6,0.88,0.29,0.55,0.58,0.55,0.55,0.5,0.33,0.33,0.48,0.4,0.56,0.25" style="fill:rgb(0,0,0);font-family:URWPalladioL-Roma;font-size:8.97px;stroke:none;">with cathode for all-solid-state lithiumion battery.</text>
   <text y="697.97" x="300.051,303.037,305.2795,307.52,312.999,316.98,323.453,326.941,330.4393,332.671,337.656,341.637,346.622,349.949,353.598,357.086" svgx:width="0.33,0.25,0.55,0.61,0.44,0.72,0.39,0.39,0.55,0.56,0.44,0.56,0.39,0.41,0.39,0.39" style="fill:rgb(0,0,0);font-family:URWPalladioL-Ital;font-size:8.97px;stroke:none;">J. Power Sources</text>
   <text y="697.97" x="362.815,367.298,371.781,376.265" svgx:width="0.5,0.5,0.5,0.5" style="fill:rgb(0,0,0);font-family:URWPalladioL-Bold;font-size:8.97px;stroke:none;">2014</text>
   <text y="697.97" x="380.748" svgx:width="0.25" style="fill:rgb(0,0,0);font-family:URWPalladioL-Roma;font-size:8.97px;stroke:none;">,</text>
   <text y="697.97" x="385.231,389.714,394.197" svgx:width="0.5,0.5,0.5" style="fill:rgb(0,0,0);font-family:URWPalladioL-Ital;font-size:8.97px;stroke:none;">265</text>
   <text y="697.97" x="398.681,400.9235,403.164,407.647,412.131,416.614,421.097,425.58,427.8225,430.96" svgx:width="0.25,0.55,0.5,0.5,0.5,0.5,0.5,0.25,0.55,0.33" style="fill:rgb(0,0,0);font-family:URWPalladioL-Roma;font-size:8.97px;stroke:none;">, 40–44. [</text>
   <text y="697.97" x="433.946,440.303,443.683,448.579,452.381,456.183,462.172,466.467" svgx:width="0.71,0.4,0.55,0.42,0.42,0.67,0.48,0.33" style="fill:rgb(8,117,183);font-family:URWPalladioL-Roma;font-size:8.97px;stroke:none;">CrossRef</text>
   <text y="697.97" x="469.453" svgx:width="0.33" style="fill:rgb(0,0,0);font-family:URWPalladioL-Roma;font-size:8.97px;stroke:none;">]</text>
   <text y="710.881" x="76.535,81.018,85.501,87.74350000000001,98.05,102.729,107.185,112.141,117.515,122.961,127.417,129.6595,131.891,138.825,141.053,143.2955,145.527,150.171,154.618,159.574,163.843,169.217,173.174,178.361,180.955,183.19750000000002,185.429,190.233,192.461,194.70350000000002,196.935,203.406,208.272,213.201,217.657,222.613,227.069,230.848,236.035,238.628,240.8705,243.103,250.518,252.7605,254.992,260.438,263.031,267.3,271.257,274.163,277.523,282.389,287.835,292.1406,294.35,302.22,307.086,310.607,315.963,321.15,326.016,328.61,333.476,338.423,343.4462,345.624,348.218,353.42060000000004,355.651,360.107,362.701,365.294,368.262,372.041,376.907,379.501,382.095,387.54,390.508,394.287,397.192,401.649,404.554,408.8596,411.069,413.663,416.257,419.162,424.349,426.943,432.317,442.433,446.212,450.481,454.438,459.304,464.492,469.937,474.393,477.914,482.93719999999996,485.115,490.044,494.5,497.406,500.311,504.58,508.101,510.694,514.964" svgx:width="0.5,0.5,0.25,0.55,0.52,0.5,0.56,0.6,0.61,0.5,0.25,0.55,0.78,0.25,0.25,0.55,0.61,0.5,0.56,0.48,0.6,0.44,0.58,0.29,0.25,0.55,0.61,0.25,0.25,0.55,0.73,0.55,0.55,0.5,0.56,0.5,0.42,0.58,0.29,0.25,0.55,0.83,0.25,0.55,0.61,0.29,0.48,0.44,0.33,0.4,0.55,0.61,0.48,0.55,0.88,0.55,0.4,0.6,0.58,0.55,0.29,0.55,0.56,0.56,0.55,0.29,0.58,0.55,0.5,0.29,0.29,0.33,0.42,0.55,0.29,0.29,0.61,0.33,0.42,0.33,0.5,0.33,0.48,0.55,0.29,0.29,0.33,0.58,0.29,0.6,0.88,0.42,0.48,0.44,0.55,0.58,0.61,0.5,0.4,0.56,0.55,0.55,0.5,0.33,0.33,0.48,0.4,0.29,0.48,0.42" style="fill:rgb(0,0,0);font-family:URWPalladioL-Roma;font-size:8.97px;stroke:none;">10. Sakuda, A.; Takeuchi, T.; Kobayashi, H. Electrode morphology in all-solid-state lithiumsecondary batteries</text>
   <text y="723.793" x="98.05,102.031,106.927,112.145,115.947,118.556,122.358,125.281,127.89,133.109,138.1322,140.336,145.231,148.1911,150.459,155.937,158.546,165.997" svgx:width="0.44,0.55,0.58,0.42,0.29,0.42,0.33,0.29,0.58,0.56,0.55,0.55,0.33,0.55,0.61,0.29,0.83,0.29" style="fill:rgb(0,0,0);font-family:URWPalladioL-Roma;font-size:8.97px;stroke:none;">consisting of LiNi</text>
   <text y="725.584" x="168.606" svgx:width="0.5" style="fill:rgb(0,0,0);font-family:URWPalladioL-Roma;font-size:6.97px;stroke:none;">1</text>
   <text y="725.584" x="172.093" svgx:width="0.29" style="fill:rgb(0,0,0);font-family:Rpxr;font-size:6.97px;stroke:none;">/</text>
   <text y="725.584" x="174.094" svgx:width="0.5" style="fill:rgb(0,0,0);font-family:URWPalladioL-Roma;font-size:6.97px;stroke:none;">3</text>
   <text y="723.793" x="178.079,184.436" svgx:width="0.71,0.55" style="fill:rgb(0,0,0);font-family:URWPalladioL-Roma;font-size:8.97px;stroke:none;">Co</text>
   <text y="725.584" x="189.332" svgx:width="0.5" style="fill:rgb(0,0,0);font-family:URWPalladioL-Roma;font-size:6.97px;stroke:none;">1</text>
   <text y="725.584" x="192.819" svgx:width="0.29" style="fill:rgb(0,0,0);font-family:Rpxr;font-size:6.97px;stroke:none;">/</text>
   <text y="725.584" x="194.821" svgx:width="0.5" style="fill:rgb(0,0,0);font-family:URWPalladioL-Roma;font-size:6.97px;stroke:none;">3</text>
   <text y="723.793" x="198.806,207.288" svgx:width="0.95,0.58" style="fill:rgb(0,0,0);font-family:URWPalladioL-Roma;font-size:8.97px;stroke:none;">Mn</text>
   <text y="725.584" x="212.506" svgx:width="0.5" style="fill:rgb(0,0,0);font-family:URWPalladioL-Roma;font-size:6.97px;stroke:none;">1</text>
   <text y="725.584" x="215.993" svgx:width="0.29" style="fill:rgb(0,0,0);font-family:Rpxr;font-size:6.97px;stroke:none;">/</text>
   <text y="725.584" x="217.995" svgx:width="0.5" style="fill:rgb(0,0,0);font-family:URWPalladioL-Roma;font-size:6.97px;stroke:none;">3</text>
   <text y="723.793" x="221.98" svgx:width="0.79" style="fill:rgb(0,0,0);font-family:URWPalladioL-Roma;font-size:8.97px;stroke:none;">O</text>
   <text y="725.584" x="229.027" svgx:width="0.5" style="fill:rgb(0,0,0);font-family:URWPalladioL-Roma;font-size:6.97px;stroke:none;">2</text>
   <text y="723.793" x="235.254,239.737,244.956,250.4277,252.676,258.154" svgx:width="0.5,0.58,0.61,0.55,0.61,0.29" style="fill:rgb(0,0,0);font-family:URWPalladioL-Roma;font-size:8.97px;stroke:none;">and Li</text>
   <text y="725.584" x="260.763" svgx:width="0.5" style="fill:rgb(0,0,0);font-family:URWPalladioL-Roma;font-size:6.97px;stroke:none;">2</text>
   <text y="723.793" x="264.748,269.455,272.441" svgx:width="0.52,0.33,0.6" style="fill:rgb(0,0,0);font-family:URWPalladioL-Roma;font-size:8.97px;stroke:none;">S-P</text>
   <text y="725.584" x="277.857" svgx:width="0.5" style="fill:rgb(0,0,0);font-family:URWPalladioL-Roma;font-size:6.97px;stroke:none;">2</text>
   <text y="723.793" x="281.842" svgx:width="0.52" style="fill:rgb(0,0,0);font-family:URWPalladioL-Roma;font-size:8.97px;stroke:none;">S</text>
   <text y="725.584" x="286.549" svgx:width="0.5" style="fill:rgb(0,0,0);font-family:URWPalladioL-Roma;font-size:6.97px;stroke:none;">5</text>
   <text y="723.793" x="292.776,296.578,301.473,304.083,306.692,312.1637,314.412,318.707,321.316,325.611,329.592,332.515,335.895,340.791,343.4,348.386,351.309,355.603,359.405" svgx:width="0.42,0.55,0.29,0.29,0.61,0.55,0.48,0.29,0.48,0.44,0.33,0.4,0.55,0.29,0.56,0.33,0.48,0.42,0.25" style="fill:rgb(0,0,0);font-family:URWPalladioL-Roma;font-size:8.97px;stroke:none;">solid electrolytes.</text>
   <text y="723.793" x="364.784,369.769,373.75,376.243,378.736,383.221,385.46,390.446,393.432,397.413,400.398,403.8963,406.128,409.114,413.095,418.08,420.573,424.222" svgx:width="0.56,0.44,0.28,0.28,0.5,0.55,0.56,0.33,0.44,0.33,0.39,0.55,0.33,0.44,0.56,0.28,0.41,0.39" style="fill:rgb(0,0,0);font-family:URWPalladioL-Ital;font-size:8.97px;stroke:none;">Solid State Ionics</text>
   <text y="723.793" x="429.95,434.433,438.916,443.4" svgx:width="0.5,0.5,0.5,0.5" style="fill:rgb(0,0,0);font-family:URWPalladioL-Bold;font-size:8.97px;stroke:none;">2016</text>
   <text y="723.793" x="447.883" svgx:width="0.25" style="fill:rgb(0,0,0);font-family:URWPalladioL-Roma;font-size:8.97px;stroke:none;">,</text>
   <text y="723.793" x="452.366,456.849,461.332" svgx:width="0.5,0.5,0.5" style="fill:rgb(0,0,0);font-family:URWPalladioL-Ital;font-size:8.97px;stroke:none;">285</text>
   <text y="723.793" x="465.816,468.0585,470.299,474.782,479.266,483.749,488.232,492.715,497.198,501.682" svgx:width="0.25,0.55,0.5,0.5,0.5,0.5,0.5,0.5,0.5,0.25" style="fill:rgb(0,0,0);font-family:URWPalladioL-Roma;font-size:8.97px;stroke:none;">, 112–117.</text>
   <text y="736.704" x="76.535,81.018,85.501,87.74350000000001,98.05,106.748,112.262,114.50450000000001,116.844,122.433,124.719,126.9615,129.328,137.651,142.224,147.547,152.632,154.8745,157.214,162.015,164.302,166.5445,168.911,174.499,179.666,184.239,189.562,193.44,195.6825,198.022,206.345,208.631,211.677,213.963,216.2055,218.545,221.627,227.736,229.9785,232.318,239.397,243.778,249.101,254.186,256.4285,258.768,265.847,268.133,274.233,276.52,278.7625,281.129,286.406,290.979,296.302,301.387,303.6295,305.969,309.015,311.301,313.5435,315.91,322.011,324.672,329.245,334.238,336.4805,338.82,341.866,344.1085,346.457,349.539,354.862,357.844,362.224,365.828,368.873,373.446,377.507,380.168,384.741,387.34229999999997,389.707,394.765,399.146,404.469,409.041,414.209,416.87,421.855,427.369,430.982,434.74940000000004,437.164,442.222,446.603,449.584,457.212,461.593,465.973,471.17560000000003,473.592,476.253,478.915,481.896,487.219,489.88,495.395,503.2886,505.766,508.428,513.421" svgx:width="0.5,0.5,0.25,0.55,1.0,0.6,0.25,0.55,0.61,0.25,0.25,0.55,1.0,0.5,0.58,0.56,0.25,0.55,0.52,0.25,0.25,0.55,0.61,0.56,0.5,0.58,0.42,0.25,0.55,1.0,0.25,0.33,0.25,0.25,0.55,0.34,0.72,0.25,0.55,0.77,0.48,0.58,0.56,0.25,0.55,0.77,0.25,0.67,0.25,0.25,0.55,0.67,0.5,0.58,0.56,0.25,0.55,0.33,0.25,0.25,0.55,0.67,0.29,0.5,0.55,0.25,0.55,0.33,0.25,0.55,0.34,0.58,0.33,0.48,0.4,0.33,0.5,0.44,0.29,0.5,0.29,0.55,0.55,0.48,0.58,0.5,0.56,0.29,0.55,0.6,0.4,0.42,0.55,0.55,0.48,0.33,0.83,0.48,0.48,0.58,0.55,0.29,0.29,0.33,0.58,0.29,0.6,0.88,0.55,0.29,0.55,0.58" style="fill:rgb(0,0,0);font-family:URWPalladioL-Roma;font-size:8.97px;stroke:none;">11. Wu, B.; Wang, S.; Evans, W.J., IV; Deng, D.Z.; Yang, J.; Xiao, J. Interfacial behaviours between lithium ion</text>
   <text y="749.616" x="98.05,102.111,107.104,112.427,118.015,123.53,127.591,130.572,135.566,139.178,142.9454,145.891,150.464,155.787,161.2587,164.21,168.591,171.252,175.633,179.694,182.675,186.132,191.126,196.714,201.0196,203.93,212.006,216.579,219.56,223.941,227.553,230.215,234.788,237.449,241.21640000000002,244.162,246.824,252.0266,254.982,260.149,264.722,268.334,270.996,275.989,281.504,285.2714,288.226,293.284,297.857,300.838,303.82,308.201,311.813,316.83619999999996,319.733,323.611,328.696,332.574,335.555,339.936,348.012,351.89" svgx:width="0.44,0.55,0.58,0.61,0.6,0.44,0.33,0.55,0.4,0.42,0.55,0.5,0.58,0.61,0.55,0.48,0.29,0.48,0.44,0.33,0.4,0.55,0.61,0.48,0.55,0.88,0.5,0.33,0.48,0.4,0.29,0.5,0.29,0.42,0.55,0.29,0.58,0.55,0.56,0.5,0.4,0.29,0.55,0.6,0.42,0.55,0.55,0.5,0.33,0.33,0.48,0.4,0.56,0.55,0.42,0.56,0.42,0.33,0.48,0.88,0.42,0.25" style="fill:rgb(0,0,0);font-family:URWPalladioL-Roma;font-size:8.97px;stroke:none;">conductors and electrode materials in various battery systems.</text>
   <text y="749.616" x="359.1,362.146,364.3885,367.267,375.901,379.961,383.007,386.565,389.464,391.7065,396.671,402.771,407.344,410.901,418.017,420.2595,425.233" svgx:width="0.33,0.25,0.55,0.94,0.44,0.33,0.39,0.39,0.25,0.55,0.67,0.5,0.39,0.78,0.25,0.55,0.72" style="fill:rgb(0,0,0);font-family:URWPalladioL-Ital;font-size:8.97px;stroke:none;">J. Mater. Chem. A</text>
   <text y="749.616" x="434.67,439.153,443.636,448.12" svgx:width="0.5,0.5,0.5,0.5" style="fill:rgb(0,0,0);font-family:URWPalladioL-Bold;font-size:8.97px;stroke:none;">2016</text>
   <text y="749.616" x="452.603" svgx:width="0.25" style="fill:rgb(0,0,0);font-family:URWPalladioL-Roma;font-size:8.97px;stroke:none;">,</text>
   <text y="749.616" x="457.876" svgx:width="0.5" style="fill:rgb(0,0,0);font-family:URWPalladioL-Ital;font-size:8.97px;stroke:none;">4</text>
   <text y="749.616" x="462.449,464.6915,467.726,472.299,476.872,481.445,486.018,490.59,495.163,499.736,504.3,508.873,513.446,518.019" svgx:width="0.25,0.55,0.5,0.5,0.5,0.5,0.5,0.5,0.5,0.5,0.5,0.5,0.5,0.25" style="fill:rgb(0,0,0);font-family:URWPalladioL-Roma;font-size:8.97px;stroke:none;">, 15266–15280.</text>
   <text y="762.528" x="98.05" svgx:width="0.33" style="fill:rgb(0,0,0);font-family:URWPalladioL-Roma;font-size:8.97px;stroke:none;">[</text>
   <text y="762.528" x="101.036,107.393,110.773,115.669,119.471,123.272,129.262,133.557" svgx:width="0.71,0.4,0.55,0.42,0.42,0.67,0.48,0.33" style="fill:rgb(8,117,183);font-family:URWPalladioL-Roma;font-size:8.97px;stroke:none;">CrossRef</text>
   <text y="762.528" x="136.543" svgx:width="0.33" style="fill:rgb(0,0,0);font-family:URWPalladioL-Roma;font-size:8.97px;stroke:none;">]</text>
  </g>
 </g>
</svg>
