<?xml version="1.0" encoding="UTF-8"?>
<svg height="770.5" width="4133.489" xmlns="http://www.w3.org/2000/svg">
 <g id="page" xmlns:svgx="http://www.xml-cml.org/schema/svgx">
  <g begin="text">
   <text y="62.979" x="76.535,84.059,87.598,90.252,93.352,96.452,98.668,102.207,104.422" svgx:width="0.94,0.44,0.33,0.39,0.39,0.28,0.44,0.28,0.39" style="fill:rgb(0,0,0);font-family:URWPalladioL-Ital;font-size:7.97px;stroke:none;">Materials</text>
   <text y="62.979" x="109.515,113.5,117.485,121.47" svgx:width="0.5,0.5,0.5,0.5" style="fill:rgb(0,0,0);font-family:URWPalladioL-Bold;font-size:7.97px;stroke:none;">2020</text>
   <text y="62.979" x="125.455" svgx:width="0.25" style="fill:rgb(0,0,0);font-family:URWPalladioL-Roma;font-size:7.97px;stroke:none;">,</text>
   <text y="62.979" x="129.44,133.425" svgx:width="0.5,0.5" style="fill:rgb(0,0,0);font-family:URWPalladioL-Ital;font-size:7.97px;stroke:none;">13</text>
   <text y="62.979" x="137.41,139.4025,141.395,145.38,149.365,153.35000000000002,495.794,499.779,501.772,506.123,508.7531,510.77,514.755" svgx:width="0.25,0.55,0.5,0.5,0.5,0.55,0.5,0.55,0.55,0.33,0.55,0.5,0.5" style="fill:rgb(0,0,0);font-family:URWPalladioL-Roma;font-size:7.97px;stroke:none;">, 560 6 of 11</text>
   <text y="97.848" x="76.207,79.525,84.755,90.842,95.823,99.141,101.631,105.118,114.543,119.315,124.296,130.095,138.404,144.202,147.101,150.0,154.772,157.262,159.743,164.72299999999998,167.215,173.014,175.913,181.452,187.25,192.022,196.006,198.438,201.686,207.125,210.373,215.355,218.24339999999998,220.734,223.633,229.073,234.871,237.77,242.1524,244.684,249.108,254.547,260.346,266.433,272.44,276.864,280.102,283.001,288.629,291.529,294.776,300.35360000000003,302.806,306.124,311.105,313.596,318.577" svgx:width="0.33,0.52,0.61,0.5,0.33,0.25,0.55,0.95,0.48,0.5,0.58,0.83,0.58,0.29,0.29,0.48,0.25,0.55,0.5,0.55,0.58,0.29,0.56,0.58,0.48,0.4,0.55,0.33,0.55,0.33,0.5,0.29,0.55,0.29,0.55,0.58,0.29,0.44,0.55,0.44,0.55,0.58,0.61,0.6,0.44,0.33,0.29,0.56,0.29,0.33,0.56,0.55,0.33,0.5,0.25,0.5,0.5" style="fill:rgb(0,0,0);font-family:URWPalladioL-Roma;font-size:9.96px;stroke:none;">(SL5). Meanwhile, a higher total ionic conductivity (3.49</text>
   <text y="97.848" x="326.041" svgx:width="0.67" style="fill:rgb(0,0,0);font-family:Pxsy;font-size:9.96px;stroke:none;">×</text>
   <text y="97.848" x="335.19,340.171" svgx:width="0.5,0.5" style="fill:rgb(0,0,0);font-family:URWPalladioL-Roma;font-size:9.96px;stroke:none;">10</text>
   <text y="94.232" x="345.153" svgx:width="0.67" style="fill:rgb(0,0,0);font-family:Pxsy;font-size:7.57px;stroke:none;">−</text>
   <text y="94.232" x="350.218" svgx:width="0.5" style="fill:rgb(0,0,0);font-family:URWPalladioL-Roma;font-size:7.57px;stroke:none;">4</text>
   <text y="97.848" x="356.986" svgx:width="0.52" style="fill:rgb(0,0,0);font-family:URWPalladioL-Roma;font-size:9.96px;stroke:none;">S</text>
   <text y="97.848" x="362.217" svgx:width="0.25" style="fill:rgb(0,0,0);font-family:Pxsy;font-size:9.96px;stroke:none;">·</text>
   <text y="97.848" x="364.707,369.13" svgx:width="0.44,0.88" style="fill:rgb(0,0,0);font-family:URWPalladioL-Roma;font-size:9.96px;stroke:none;">cm</text>
   <text y="94.232" x="377.928" svgx:width="0.67" style="fill:rgb(0,0,0);font-family:Pxsy;font-size:7.57px;stroke:none;">−</text>
   <text y="94.232" x="382.993" svgx:width="0.5" style="fill:rgb(0,0,0);font-family:URWPalladioL-Roma;font-size:7.57px;stroke:none;">1</text>
   <text y="97.848" x="387.277,390.5638,393.075,398.057,403.855,409.9306,412.433,417.413,419.895,425.693,428.592,434.131,439.929,444.701,448.685,451.117,454.873,459.645,462.544,467.526,470.774,473.673,479.302,484.0828,486.564,492.651,497.424,503.222,507.446,510.345,513.593" svgx:width="0.33,0.55,0.5,0.58,0.61,0.55,0.5,0.55,0.58,0.29,0.56,0.58,0.48,0.4,0.55,0.4,0.48,0.29,0.5,0.33,0.29,0.56,0.48,0.55,0.61,0.48,0.58,0.42,0.29,0.33,0.56" style="fill:rgb(0,0,0);font-family:URWPalladioL-Roma;font-size:9.96px;stroke:none;">) and a higher relative density</text>
   <text y="111.358" x="76.207,79.458,84.34,89.222,91.662,96.544,104.745,108.0318,110.34,115.67,118.9568,121.265,125.6,130.276,134.133,139.015,147.636,150.477,154.8594,157.155,163.023,167.699,170.54,173.382,178.058,181.241,185.4242,187.724,190.975,196.101,202.066,206.948,209.43800000000002,211.761,216.643,221.525,226.406" svgx:width="0.33,0.5,0.5,0.25,0.5,0.84,0.33,0.55,0.55,0.33,0.55,0.44,0.48,0.4,0.5,0.88,0.29,0.44,0.55,0.6,0.48,0.29,0.29,0.48,0.33,0.42,0.55,0.33,0.52,0.61,0.5,0.25,0.55,0.5,0.5,0.5,0.5" style="fill:rgb(0,0,0);font-family:URWPalladioL-Roma;font-size:9.96px;stroke:none;">(90.3%) of ceramic pellets (SL3, 1150</text>
   <text y="107.741" x="233.636" svgx:width="0.52" style="fill:rgb(0,0,0);font-family:Pxsy;font-size:7.57px;stroke:none;">◦</text>
   <text y="111.358" x="238.094" svgx:width="0.71" style="fill:rgb(0,0,0);font-family:URWPalladioL-Roma;font-size:9.96px;stroke:none;">C</text>
   <text y="111.358" x="247.361" svgx:width="0.67" style="fill:rgb(0,0,0);font-family:Pxsy;font-size:9.96px;stroke:none;">×</text>
   <text y="111.358" x="256.37,261.252,266.232,268.477,277.098,279.939,285.621,288.9078,291.215,299.358,304.035,307.715,312.4958,314.735,320.066,325.465,328.648,333.53,336.371,342.053,346.73,352.8056,355.038,363.181,368.863,373.54,379.3168,381.565,385.705,388.546,394.228,397.411,402.088,405.769,410.445,416.5206,418.754,422.005,427.336,431.32,433.536,438.417,443.397,445.642,454.263,457.104,462.88079999999997,465.13,468.381,472.062,477.393,488.357,493.239,498.12,503.002,507.982,510.227,513.41" svgx:width="0.5,0.5,0.55,0.88,0.29,0.58,0.33,0.55,0.83,0.48,0.4,0.48,0.55,0.55,0.55,0.33,0.5,0.29,0.58,0.48,0.61,0.55,0.83,0.58,0.48,0.58,0.55,0.42,0.29,0.58,0.33,0.48,0.4,0.48,0.61,0.55,0.33,0.55,0.4,0.55,0.5,0.5,0.55,0.88,0.29,0.58,0.55,0.33,0.4,0.55,0.88,0.5,0.5,0.5,0.5,0.55,0.33,0.55" style="fill:rgb(0,0,0);font-family:URWPalladioL-Roma;font-size:9.96px;stroke:none;">60 min) were obtained when sintered for 60 min from1100 to</text>
   <text y="124.867" x="76.037,80.919,85.8,90.682" svgx:width="0.5,0.5,0.5,0.5" style="fill:rgb(0,0,0);font-family:URWPalladioL-Roma;font-size:9.96px;stroke:none;">1200</text>
   <text y="121.251" x="98.037" svgx:width="0.52" style="fill:rgb(0,0,0);font-family:Pxsy;font-size:7.57px;stroke:none;">◦</text>
   <text y="124.867" x="102.495,109.417,111.907,114.328,119.21,124.892,130.9676,133.337,136.52,142.203,145.044,149.2272,151.653,155.324,160.001,164.141,170.028,172.869,176.1558,178.532,181.373,187.055,193.021,195.862,200.197,205.078,208.261,212.938,217.1212,219.548,222.731,228.413,233.295,236.477,238.967,241.398,244.239,250.0158,252.392,255.575,261.257,264.098,268.2812,270.708,274.847,278.03,283.917,289.883,294.208,296.69800000000004,299.129,301.97,307.652,311.987,315.658,320.335,325.216,329.356,332.197,337.879,343.45660000000004,345.778,348.961,354.643,359.42379999999997,361.8,365.939,368.78,374.463,377.646,382.322,386.179,389.02,394.702,400.2796,402.601,405.784,410.46,419.081,424.949,429.626,433.482,438.364,441.547,447.434,451.115,455.8958,458.262,461.444,466.775,472.253,474.576,483.197,489.085,493.419,499.19579999999996,501.572,509.714,514.596" svgx:width="0.71,0.25,0.55,0.5,0.58,0.61,0.55,0.33,0.58,0.29,0.42,0.55,0.4,0.48,0.42,0.6,0.29,0.33,0.55,0.29,0.58,0.61,0.29,0.44,0.5,0.33,0.48,0.42,0.55,0.33,0.58,0.5,0.33,0.25,0.55,0.29,0.58,0.55,0.33,0.58,0.29,0.42,0.55,0.42,0.33,0.6,0.61,0.56,0.25,0.55,0.29,0.58,0.44,0.4,0.48,0.5,0.42,0.29,0.58,0.56,0.55,0.33,0.58,0.48,0.55,0.42,0.29,0.58,0.33,0.48,0.4,0.29,0.58,0.56,0.55,0.33,0.48,0.88,0.6,0.48,0.4,0.5,0.33,0.6,0.4,0.48,0.55,0.33,0.55,0.55,0.55,0.88,0.6,0.44,0.58,0.55,0.83,0.5,0.42" style="fill:rgb(0,0,0);font-family:URWPalladioL-Roma;font-size:9.96px;stroke:none;">C, and this result indicates that, in this study, increasing the sintering temperature too much was</text>
   <text y="138.377" x="76.535,82.622,85.521,89.745,94.727,100.814,106.443,111.424,117.222,120.47,125.451,130.991,135.763,141.202,147.21,151.3932,153.924,157.242,162.682,166.666,169.107,174.547,180.056,183.304,188.285,191.185,196.983,199.882,205.68,211.2576,213.71,219.797,225.884,232.529,240.808,248.6764,251.13,255.553,260.325,264.26,269.242,278.038,280.938,285.361,289.5442,292.076,300.385,303.284,306.532,312.30879999999996,314.82,320.36,325.799,331.239,337.3146,339.817,345.804,350.576,354.511,357.829,363.269,367.204,376.001,380.982,386.78,391.204,395.976" svgx:width="0.61,0.29,0.42,0.5,0.61,0.56,0.5,0.58,0.33,0.5,0.56,0.48,0.55,0.6,0.42,0.55,0.33,0.55,0.4,0.55,0.55,0.55,0.33,0.5,0.29,0.58,0.29,0.58,0.56,0.55,0.61,0.61,0.67,0.83,0.79,0.55,0.44,0.48,0.4,0.5,0.88,0.29,0.44,0.42,0.55,0.83,0.29,0.33,0.58,0.55,0.56,0.55,0.55,0.61,0.55,0.6,0.48,0.4,0.33,0.55,0.4,0.88,0.5,0.58,0.44,0.48,0.25" style="fill:rgb(0,0,0);font-family:URWPalladioL-Roma;font-size:9.96px;stroke:none;">disadvantageous for obtaining LLZNO ceramics with good performance.</text>
   <text y="163.118" x="97.499,102.484,106.968,112.446,115.432,119.917,122.201,126.685" svgx:width="0.67,0.5,0.61,0.33,0.5,0.55,0.5,0.25" style="fill:rgb(0,0,0);font-family:URWPalladioL-Bold;font-size:8.97px;stroke:none;">Table 2.</text>
   <text y="163.118" x="132.199,137.001,139.662,144.985,147.966,152.347,155.96,158.621,163.944,168.9672,171.315,175.376,180.37,185.692,191.28,193.942,196.923,199.585,204.578,209.901,212.14350000000002,214.483,218.544,222.925,225.586,228.18730000000002,230.534,236.03,240.603,244.216,248.789,256.864,261.245,264.227,268.608,271.552,273.7945,276.144,279.125,284.119,287.1,291.673,294.2743,296.621,299.273,304.267,309.59,312.251,316.1978,318.598,322.659,327.652,332.975,338.563,344.078,348.139,351.12,353.782,358.949,361.61,364.592,369.61519999999996,371.963,376.536,379.4961,381.804,386.377" svgx:width="0.52,0.29,0.58,0.33,0.48,0.4,0.29,0.58,0.56,0.55,0.44,0.55,0.58,0.61,0.29,0.33,0.29,0.55,0.58,0.25,0.55,0.44,0.48,0.29,0.29,0.55,0.6,0.5,0.4,0.5,0.88,0.48,0.33,0.48,0.4,0.25,0.55,0.33,0.55,0.33,0.5,0.29,0.55,0.29,0.55,0.58,0.29,0.44,0.55,0.44,0.55,0.58,0.61,0.6,0.44,0.33,0.29,0.56,0.29,0.33,0.56,0.55,0.5,0.33,0.55,0.5,0.5" style="fill:rgb(0,0,0);font-family:URWPalladioL-Roma;font-size:8.97px;stroke:none;">Sintering condition, cell parameter, total ionic conductivity at 25</text>
   <text y="159.863" x="393.239" svgx:width="0.52" style="fill:rgb(0,0,0);font-family:Pxsy;font-size:6.97px;stroke:none;">◦</text>
   <text y="163.118" x="397.384,403.868,406.1105,408.441,413.014,417.075,420.056,422.718,427.885,432.458,435.439,438.101,443.094,448.2966,450.704,455.084,460.407,464.788,468.236,473.321,477.409,479.6515,482.0,486.573,491.896" svgx:width="0.71,0.25,0.55,0.5,0.44,0.33,0.29,0.56,0.5,0.33,0.29,0.55,0.58,0.55,0.48,0.58,0.48,0.4,0.56,0.56,0.25,0.55,0.5,0.58,0.61" style="fill:rgb(0,0,0);font-family:URWPalladioL-Roma;font-size:8.97px;stroke:none;">C, activation energy, and</text>
   <text y="175.94" x="97.795,101.175,105.47,108.079,112.563,115.486,118.095,123.161,127.4666,129.697,135.176,139.471,144.689,148.491,151.1,154.023,159.0462,161.25,166.146,169.1061,171.373,176.852,182.33,188.311,195.762,202.8483,205.051,209.032,213.327,216.869,221.352,229.269,231.879,235.86,239.661" svgx:width="0.4,0.48,0.29,0.5,0.33,0.29,0.56,0.48,0.55,0.61,0.48,0.58,0.42,0.29,0.33,0.56,0.55,0.55,0.33,0.55,0.61,0.61,0.67,0.83,0.79,0.55,0.44,0.48,0.4,0.5,0.88,0.29,0.44,0.42,0.25" style="fill:rgb(0,0,0);font-family:URWPalladioL-Roma;font-size:8.97px;stroke:none;">relative density of LLZNO ceramics.</text>
  </g>
  <path style="fill:none;stroke:rgb(0,0,0);stroke-width:1.0;" d="M77.930 186.150 L517.340 186.150 "/>
  <g begin="text">
   <text y="196.681" x="86.477,91.791,96.14,103.872,109.186,112.082" svgx:width="0.61,0.5,0.89,0.61,0.33,0.5" style="fill:rgb(0,0,0);font-family:URWPalladioL-Bold;font-size:8.7px;stroke:none;">Sample</text>
   <text y="207.312" x="89.617,96.862,101.21,108.942" svgx:width="0.83,0.5,0.89,0.5" style="fill:rgb(0,0,0);font-family:URWPalladioL-Bold;font-size:8.7px;stroke:none;">Name</text>
   <text y="196.681" x="149.106,154.42,157.316,162.63,165.526,169.875,173.258,176.155,181.469" svgx:width="0.61,0.33,0.61,0.33,0.5,0.39,0.33,0.61,0.56" style="fill:rgb(0,0,0);font-family:URWPalladioL-Bold;font-size:8.7px;stroke:none;">Sintering</text>
   <text y="207.312" x="147.414,153.694,158.529,163.843,169.158,172.054,174.95,177.846,182.682" svgx:width="0.72,0.56,0.61,0.61,0.33,0.33,0.33,0.56,0.61" style="fill:rgb(0,0,0);font-family:URWPalladioL-Bold;font-size:8.7px;stroke:none;">Condition</text>
   <text y="196.681" x="216.913,223.192,227.541,230.437,233.30800000000002,235.508,240.822,245.17,248.554,252.902,260.634,264.983,267.879,272.228" svgx:width="0.72,0.5,0.33,0.33,0.55,0.61,0.5,0.39,0.5,0.89,0.5,0.33,0.5,0.39" style="fill:rgb(0,0,0);font-family:URWPalladioL-Bold;font-size:8.7px;stroke:none;">Cell Parameter</text>
   <text y="207.312" x="239.756,242.652,249.419" svgx:width="0.33,0.78,0.33" style="fill:rgb(0,0,0);font-family:URWPalladioL-Bold;font-size:8.7px;stroke:none;">(Å)</text>
   <text y="196.681" x="293.968,298.804,303.64,306.536,310.885,313.756,315.956,319.339,324.175,329.489,332.385,336.21299999999997,338.421,344.7,349.536,354.85,360.164,365.479,369.34,372.236,375.133,379.968,382.865,385.761" svgx:width="0.67,0.56,0.33,0.5,0.33,0.55,0.39,0.56,0.61,0.33,0.44,0.55,0.72,0.56,0.61,0.61,0.61,0.44,0.33,0.33,0.56,0.33,0.33,0.56" style="fill:rgb(0,0,0);font-family:URWPalladioL-Bold;font-size:8.7px;stroke:none;">Total Ionic Conductivity</text>
   <text y="207.312" x="302.945,305.841,310.19" svgx:width="0.33,0.5,0.5" style="fill:rgb(0,0,0);font-family:URWPalladioL-Bold;font-size:8.7px;stroke:none;">(10</text>
   <text y="204.856" x="314.538" svgx:width="0.67" style="fill:rgb(0,0,0);font-family:Pxsy;font-size:6.76px;stroke:none;">−</text>
   <text y="204.856" x="319.063" svgx:width="0.5" style="fill:rgb(0,0,0);font-family:URWPalladioL-Bold;font-size:6.76px;stroke:none;">4</text>
   <text y="207.312" x="325.103" svgx:width="0.61" style="fill:rgb(0,0,0);font-family:URWPalladioL-Bold;font-size:8.7px;stroke:none;">S</text>
   <text y="207.312" x="330.417" svgx:width="0.25" style="fill:rgb(0,0,0);font-family:Pxsy;font-size:8.7px;stroke:none;">·</text>
   <text y="207.312" x="332.592,336.454" svgx:width="0.44,0.89" style="fill:rgb(0,0,0);font-family:URWPalladioL-Bold;font-size:8.7px;stroke:none;">cm</text>
   <text y="204.856" x="344.185" svgx:width="0.67" style="fill:rgb(0,0,0);font-family:Pxsy;font-size:6.76px;stroke:none;">−</text>
   <text y="204.856" x="348.71" svgx:width="0.5" style="fill:rgb(0,0,0);font-family:URWPalladioL-Bold;font-size:6.76px;stroke:none;">1</text>
   <text y="207.312" x="352.576,355.472,357.647,359.821,364.169" svgx:width="0.33,0.25,0.55,0.5,0.5" style="fill:rgb(0,0,0);font-family:URWPalladioL-Bold;font-size:8.7px;stroke:none;">), 25</text>
   <text y="204.154" x="370.693" svgx:width="0.52" style="fill:rgb(0,0,0);font-family:Pxsy;font-size:6.76px;stroke:none;">◦</text>
   <text y="207.312" x="374.714" svgx:width="0.72" style="fill:rgb(0,0,0);font-family:URWPalladioL-Bold;font-size:8.7px;stroke:none;">C</text>
   <text y="196.681" x="413.781,420.547,424.409,427.305,430.202,435.037,439.386,442.282,445.179,450.014" svgx:width="0.78,0.44,0.33,0.33,0.56,0.5,0.33,0.33,0.56,0.61" style="fill:rgb(0,0,0);font-family:URWPalladioL-Bold;font-size:8.7px;stroke:none;">Activation</text>
   <text y="207.312" x="410.997,416.311,421.625,425.974,429.357,434.193,439.065,441.203,444.099,448.448,455.215" svgx:width="0.61,0.61,0.5,0.39,0.56,0.56,0.55,0.33,0.5,0.78,0.33" style="fill:rgb(0,0,0);font-family:URWPalladioL-Bold;font-size:8.7px;stroke:none;">Energy (eV)</text>
   <text y="196.681" x="475.65,481.93,486.279,489.175,493.524,496.42,499.316,504.152" svgx:width="0.72,0.5,0.33,0.5,0.33,0.33,0.56,0.5" style="fill:rgb(0,0,0);font-family:URWPalladioL-Bold;font-size:8.7px;stroke:none;">Relative</text>
   <text y="207.312" x="476.377,483.622,487.971,493.285,497.146,500.043,502.939" svgx:width="0.83,0.5,0.61,0.44,0.33,0.33,0.56" style="fill:rgb(0,0,0);font-family:URWPalladioL-Bold;font-size:8.7px;stroke:none;">Density</text>
  </g>
  <path style="fill:none;stroke:rgb(0,0,0);stroke-width:0.77;" d="M77.930 212.310 L517.340 212.310 "/>
  <g begin="text">
   <text y="222.6" x="91.43,95.996" svgx:width="0.52,0.61" style="fill:rgb(0,0,0);font-family:URWPalladioL-Roma;font-size:8.7px;stroke:none;">SL</text>
   <text y="222.6" x="101.31" svgx:width="0.67" style="fill:rgb(0,0,0);font-family:Pxsy;font-size:8.7px;stroke:none;">−</text>
   <text y="222.6" x="107.129,111.479,134.674,139.022,143.371,147.72" svgx:width="0.5,0.55,0.5,0.5,0.5,0.5" style="fill:rgb(0,0,0);font-family:URWPalladioL-Roma;font-size:8.7px;stroke:none;">1 1200</text>
   <text y="219.442" x="154.24" svgx:width="0.52" style="fill:rgb(0,0,0);font-family:Pxsy;font-size:6.76px;stroke:none;">◦</text>
   <text y="222.6" x="158.262" svgx:width="0.71" style="fill:rgb(0,0,0);font-family:URWPalladioL-Roma;font-size:8.7px;stroke:none;">C</text>
   <text y="222.6" x="166.602" svgx:width="0.67" style="fill:rgb(0,0,0);font-family:Pxsy;font-size:8.7px;stroke:none;">×</text>
   <text y="222.6" x="174.594,178.943,183.293,185.466,193.146,195.677,200.72299999999998,232.049,236.398,240.747,242.921,247.27,251.619,255.967,260.317,334.505,338.854,341.028,345.377,349.72700000000003,424.767,429.115,431.29,435.638,439.987,444.33700000000005,480.813,485.162,489.51,491.685,496.033" svgx:width="0.5,0.5,0.55,0.88,0.29,0.58,0.55,0.5,0.5,0.25,0.5,0.5,0.5,0.5,0.55,0.5,0.25,0.5,0.5,0.55,0.5,0.25,0.5,0.5,0.5,0.55,0.5,0.5,0.25,0.5,0.84" style="fill:rgb(0,0,0);font-family:URWPalladioL-Roma;font-size:8.7px;stroke:none;">60 min 12.8952 1.58 0.315 86.7%</text>
   <text y="233.461" x="91.43,95.996" svgx:width="0.52,0.61" style="fill:rgb(0,0,0);font-family:URWPalladioL-Roma;font-size:8.7px;stroke:none;">SL</text>
   <text y="233.461" x="101.31" svgx:width="0.67" style="fill:rgb(0,0,0);font-family:Pxsy;font-size:8.7px;stroke:none;">−</text>
   <text y="233.461" x="107.129,111.479,134.674,139.022,143.371,147.72" svgx:width="0.5,0.55,0.5,0.5,0.5,0.5" style="fill:rgb(0,0,0);font-family:URWPalladioL-Roma;font-size:8.7px;stroke:none;">2 1200</text>
   <text y="230.303" x="154.24" svgx:width="0.52" style="fill:rgb(0,0,0);font-family:Pxsy;font-size:6.76px;stroke:none;">◦</text>
   <text y="233.461" x="158.262" svgx:width="0.71" style="fill:rgb(0,0,0);font-family:URWPalladioL-Roma;font-size:8.7px;stroke:none;">C</text>
   <text y="233.461" x="166.602" svgx:width="0.67" style="fill:rgb(0,0,0);font-family:Pxsy;font-size:8.7px;stroke:none;">×</text>
   <text y="233.461" x="174.594,178.943,183.293,185.466,193.146,195.677,200.72299999999998,232.049,236.398,240.747,242.921,247.27,251.619,255.967,260.317,334.505,338.854,341.028,345.377,349.72700000000003,424.767,429.115,431.29,435.638,439.987,444.33700000000005,480.813,485.162,489.51,491.685,496.033" svgx:width="0.5,0.5,0.55,0.88,0.29,0.58,0.55,0.5,0.5,0.25,0.5,0.5,0.5,0.5,0.55,0.5,0.25,0.5,0.5,0.55,0.5,0.25,0.5,0.5,0.5,0.55,0.5,0.5,0.25,0.5,0.84" style="fill:rgb(0,0,0);font-family:URWPalladioL-Roma;font-size:8.7px;stroke:none;">30 min 12.8953 5.09 0.311 87.3%</text>
   <text y="244.322" x="91.43,95.996" svgx:width="0.52,0.61" style="fill:rgb(0,0,0);font-family:URWPalladioL-Roma;font-size:8.7px;stroke:none;">SL</text>
   <text y="244.322" x="101.31" svgx:width="0.67" style="fill:rgb(0,0,0);font-family:Pxsy;font-size:8.7px;stroke:none;">−</text>
   <text y="244.322" x="107.129,111.479,134.674,139.022,143.371,147.72" svgx:width="0.5,0.55,0.5,0.5,0.5,0.5" style="fill:rgb(0,0,0);font-family:URWPalladioL-Roma;font-size:8.7px;stroke:none;">3 1150</text>
   <text y="241.165" x="154.24" svgx:width="0.52" style="fill:rgb(0,0,0);font-family:Pxsy;font-size:6.76px;stroke:none;">◦</text>
   <text y="244.322" x="158.262" svgx:width="0.71" style="fill:rgb(0,0,0);font-family:URWPalladioL-Roma;font-size:8.7px;stroke:none;">C</text>
   <text y="244.322" x="166.602" svgx:width="0.67" style="fill:rgb(0,0,0);font-family:Pxsy;font-size:8.7px;stroke:none;">×</text>
   <text y="244.322" x="174.594,178.943,183.293,185.466,193.146,195.677,200.72299999999998,232.049,236.398,240.747,242.921,247.27,251.619,255.967,260.317,334.505,338.854,341.028,345.377,349.72700000000003,424.767,429.115,431.29,435.638,439.987,444.33700000000005,480.813,485.162,489.51,491.685,496.033" svgx:width="0.5,0.5,0.55,0.88,0.29,0.58,0.55,0.5,0.5,0.25,0.5,0.5,0.5,0.5,0.55,0.5,0.25,0.5,0.5,0.55,0.5,0.25,0.5,0.5,0.5,0.55,0.5,0.5,0.25,0.5,0.84" style="fill:rgb(0,0,0);font-family:URWPalladioL-Roma;font-size:8.7px;stroke:none;">60 min 12.9028 3.49 0.316 90.4%</text>
   <text y="255.183" x="91.43,95.996" svgx:width="0.52,0.61" style="fill:rgb(0,0,0);font-family:URWPalladioL-Roma;font-size:8.7px;stroke:none;">SL</text>
   <text y="255.183" x="101.31" svgx:width="0.67" style="fill:rgb(0,0,0);font-family:Pxsy;font-size:8.7px;stroke:none;">−</text>
   <text y="255.183" x="107.129,111.479,134.674,139.022,143.371,147.72" svgx:width="0.5,0.55,0.5,0.5,0.5,0.5" style="fill:rgb(0,0,0);font-family:URWPalladioL-Roma;font-size:8.7px;stroke:none;">4 1100</text>
   <text y="252.026" x="154.24" svgx:width="0.52" style="fill:rgb(0,0,0);font-family:Pxsy;font-size:6.76px;stroke:none;">◦</text>
   <text y="255.183" x="158.262" svgx:width="0.71" style="fill:rgb(0,0,0);font-family:URWPalladioL-Roma;font-size:8.7px;stroke:none;">C</text>
   <text y="255.183" x="166.602" svgx:width="0.67" style="fill:rgb(0,0,0);font-family:Pxsy;font-size:8.7px;stroke:none;">×</text>
   <text y="255.183" x="174.594,178.943,183.293,185.466,193.146,195.677,200.72299999999998,232.049,236.398,240.747,242.921,247.27,251.619,255.967,260.317,334.505,338.854,341.028,345.377,349.72700000000003,424.767,429.115,431.29,435.638,439.987,444.33700000000005,480.813,485.162,489.51,491.685,496.033" svgx:width="0.5,0.5,0.55,0.88,0.29,0.58,0.55,0.5,0.5,0.25,0.5,0.5,0.5,0.5,0.55,0.5,0.25,0.5,0.5,0.55,0.5,0.25,0.5,0.5,0.5,0.55,0.5,0.5,0.25,0.5,0.84" style="fill:rgb(0,0,0);font-family:URWPalladioL-Roma;font-size:8.7px;stroke:none;">60 min 12.8916 0.51 0.319 90.3%</text>
   <text y="266.044" x="91.43,95.996" svgx:width="0.52,0.61" style="fill:rgb(0,0,0);font-family:URWPalladioL-Roma;font-size:8.7px;stroke:none;">SL</text>
   <text y="266.044" x="101.31" svgx:width="0.67" style="fill:rgb(0,0,0);font-family:Pxsy;font-size:8.7px;stroke:none;">−</text>
   <text y="266.044" x="107.129,111.479,132.499,136.848,141.197,145.545" svgx:width="0.5,0.55,0.5,0.5,0.5,0.5" style="fill:rgb(0,0,0);font-family:URWPalladioL-Roma;font-size:8.7px;stroke:none;">5 1100</text>
   <text y="262.887" x="152.066" svgx:width="0.52" style="fill:rgb(0,0,0);font-family:Pxsy;font-size:6.76px;stroke:none;">◦</text>
   <text y="266.044" x="156.087" svgx:width="0.71" style="fill:rgb(0,0,0);font-family:URWPalladioL-Roma;font-size:8.7px;stroke:none;">C</text>
   <text y="266.044" x="164.428" svgx:width="0.67" style="fill:rgb(0,0,0);font-family:Pxsy;font-size:8.7px;stroke:none;">×</text>
   <text y="266.044" x="172.421,176.769,181.118,185.468,187.641,195.321,197.852,202.898,232.041,236.39,240.739,242.913,247.262,251.611,255.959,260.309,334.506,338.854,341.029,345.377,349.72700000000003,424.767,429.116,431.29,435.639,439.988,444.338,480.813,485.162,489.511,491.685,496.034" svgx:width="0.5,0.5,0.5,0.55,0.88,0.29,0.58,0.55,0.5,0.5,0.25,0.5,0.5,0.5,0.5,0.55,0.5,0.25,0.5,0.5,0.55,0.5,0.25,0.5,0.5,0.5,0.55,0.5,0.5,0.25,0.5,0.84" style="fill:rgb(0,0,0);font-family:URWPalladioL-Roma;font-size:8.7px;stroke:none;">360 min 12.8870 0.35 0.328 83.4%</text>
  </g>
  <path style="fill:none;stroke:rgb(0,0,0);stroke-width:0.29;" d="M77.930 271.510 L517.340 271.510 "/>
  <g begin="text">
   <text y="297.365" x="97.795,105.701,109.715,113.546,119.46,124.328,130.242,133.199,139.326,143.5092,147.11,153.218,156.175,161.723,165.036,169.2192,172.82,177.901,183.815,189.8906,193.509,196.822,202.736,207.5168,211.079,214.036,216.993,222.908,227.775,232.856,236.84,240.345,246.493,249.806,253.119,256.076,261.99,267.5676,271.116,275.627,281.755,285.769,291.51,296.2908,299.853,304.934,308.765,313.5458,317.108,321.417,327.331,332.879,341.354,346.222,352.2976,355.906,358.863,364.6398,368.253,373.903,376.86,382.51,388.637,392.478" svgx:width="0.78,0.4,0.4,0.58,0.48,0.58,0.29,0.6,0.42,0.55,0.6,0.29,0.55,0.33,0.42,0.55,0.5,0.58,0.61,0.55,0.33,0.58,0.48,0.55,0.29,0.29,0.58,0.48,0.5,0.4,0.55,0.61,0.33,0.33,0.29,0.58,0.56,0.55,0.44,0.6,0.4,0.56,0.48,0.55,0.5,0.4,0.48,0.55,0.42,0.58,0.55,0.83,0.48,0.61,0.55,0.29,0.58,0.55,0.56,0.29,0.56,0.6,0.4,0.48" style="fill:rgb(0,0,0);font-family:URWPalladioL-Roma;font-size:9.96px;stroke:none;">Arrhenius plots and the linear ﬁtting curve are showed in Figure</text>
   <text y="297.365" x="400.821" svgx:width="0.5" style="fill:rgb(8,117,183);font-family:URWPalladioL-Roma;font-size:9.96px;stroke:none;">5</text>
   <text y="297.365" x="405.902,410.983,413.473,419.966,426.195,432.11,436.8908,440.453,445.533,450.045,453.358,456.315,462.057,467.138,470.45,473.407,478.956,484.7328,488.345,493.213,499.127,503.995,507.826,513.476" svgx:width="0.5,0.25,0.55,0.61,0.58,0.48,0.55,0.5,0.44,0.33,0.29,0.56,0.5,0.33,0.29,0.55,0.58,0.55,0.48,0.58,0.48,0.4,0.56,0.56" style="fill:rgb(0,0,0);font-family:URWPalladioL-Roma;font-size:9.96px;stroke:none;">a. The activation energy</text>
   <text y="310.875" x="76.535,82.083,85.3698,88.699,93.211,98.078,102.092,107.173,116.146,119.103,123.615,127.7982,131.155,135.464,140.545,149.517,155.625,158.582,163.449,167.6322,170.979,173.936,178.1192,181.476,185.785,191.699,197.248,205.723,210.59,216.6656,220.031,222.988,228.7648,232.133,237.783,240.74,246.39,252.518,256.349" svgx:width="0.55,0.33,0.55,0.44,0.48,0.4,0.5,0.88,0.29,0.44,0.42,0.55,0.42,0.5,0.88,0.6,0.29,0.48,0.42,0.55,0.29,0.42,0.55,0.42,0.58,0.55,0.83,0.48,0.61,0.55,0.29,0.58,0.55,0.56,0.29,0.56,0.6,0.4,0.48" style="fill:rgb(0,0,0);font-family:URWPalladioL-Roma;font-size:9.96px;stroke:none;">of ceramics samples is showed in Figure</text>
   <text y="310.875" x="264.448" svgx:width="0.5" style="fill:rgb(8,117,183);font-family:URWPalladioL-Roma;font-size:9.96px;stroke:none;">5</text>
   <text y="310.875" x="269.529,275.007,278.38,283.461,289.375,295.4506,298.815,304.12,309.201,314.82,317.777" svgx:width="0.55,0.55,0.5,0.58,0.61,0.55,0.61,0.5,0.55,0.29,0.48" style="fill:rgb(0,0,0);font-family:URWPalladioL-Roma;font-size:9.96px;stroke:none;">b and Table</text>
   <text y="310.875" x="325.876" svgx:width="0.5" style="fill:rgb(8,117,183);font-family:URWPalladioL-Roma;font-size:9.96px;stroke:none;">2</text>
   <text y="310.875" x="330.957,333.447,336.912,341.993,347.907,353.9826,357.348,360.66,366.575,371.442,374.399,378.383,381.645,387.386,392.467,395.424,401.552,406.419,410.6022,413.959,419.04,422.871,427.6518,430.97,439.445,442.402,445.715,451.629,454.586,460.3628,463.732,467.045,472.959,477.7398,481.048,485.062,490.143,496.057,501.707,506.4878,509.806,515.354" svgx:width="0.25,0.55,0.5,0.58,0.61,0.55,0.33,0.58,0.48,0.29,0.4,0.55,0.56,0.5,0.29,0.6,0.48,0.42,0.55,0.5,0.4,0.48,0.55,0.83,0.29,0.33,0.58,0.29,0.58,0.55,0.33,0.58,0.48,0.55,0.4,0.5,0.58,0.56,0.48,0.55,0.55,0.33" style="fill:rgb(0,0,0);font-family:URWPalladioL-Roma;font-size:9.96px;stroke:none;">, and their values are within the range of</text>
   <text y="324.384" x="76.535,81.571,84.089,89.125,94.161,99.197,104.234,106.752,111.788,116.768,119.312,124.136,130.129,132.619,135.135,141.309,147.171,150.102,154.2852,156.861,159.792,165.654,171.808,174.739,179.211,184.247,187.53,192.355,196.5382,199.114,202.397,208.259,213.295,216.5818,219.067,222.35,228.212,233.037,236.834,241.6148,244.146,252.546,257.583,261.7662,264.341,270.203,275.681,278.2,283.7,289.27,294.96,297.891,303.391,309.464,313.6472,316.223" svgx:width="0.5,0.25,0.5,0.5,0.5,0.5,0.25,0.5,0.5,0.55,0.48,0.72,0.25,0.55,0.61,0.58,0.29,0.42,0.55,0.29,0.58,0.61,0.29,0.44,0.5,0.33,0.48,0.42,0.55,0.33,0.58,0.5,0.33,0.55,0.33,0.58,0.48,0.4,0.48,0.55,0.83,0.5,0.42,0.55,0.58,0.55,0.55,0.55,0.55,0.56,0.29,0.55,0.6,0.42,0.55,0.48" style="fill:rgb(0,0,0);font-family:URWPalladioL-Roma;font-size:9.96px;stroke:none;">0.31–0.33 eV. This indicates that there was no obvious e</text>
   <text y="324.384" x="321.044" svgx:width="0.61" style="fill:rgb(0,0,0);font-family:Rpxr;font-size:9.96px;stroke:none;">ﬀ</text>
   <text y="324.384" x="327.168,331.993,336.465,339.7518,342.236,347.735,353.5118,356.085,359.369,365.231,370.0118,372.543,377.579,382.051,385.335,388.266,393.957,398.993,402.276,405.207,410.707,416.4838,419.057,423.881,429.743,434.568,438.375,443.975,449.55260000000004,452.063,457.563,460.8498,463.404,466.688,472.55,477.3308,479.862,484.334,489.159,493.137,498.174,507.067,509.998,514.47" svgx:width="0.48,0.44,0.33,0.55,0.55,0.58,0.55,0.33,0.58,0.48,0.55,0.5,0.44,0.33,0.29,0.56,0.5,0.33,0.29,0.55,0.58,0.55,0.48,0.58,0.48,0.4,0.56,0.56,0.55,0.55,0.33,0.55,0.33,0.58,0.48,0.55,0.44,0.48,0.4,0.5,0.88,0.29,0.44,0.42" style="fill:rgb(0,0,0);font-family:URWPalladioL-Roma;font-size:9.96px;stroke:none;">ect on the activation energy of the ceramics</text>
   <text y="337.894" x="76.117,84.592,90.506,95.374,101.15079999999999,103.889,107.202,113.116,117.8968,120.575,126.225,130.066,134.934,139.801,145.5778,148.307,154.414,159.282,162.239,165.196,170.063,173.376,177.5592,180.286,186.393,190.224,195.092,201.199,206.28,210.121,214.989,221.0646,223.789,227.173,231.014,236.562,245.32680000000002,248.127,251.439,257.354,262.1348,264.823,269.131,275.259,280.878,289.851,292.808,297.32,301.151,306.7,312.47679999999997,315.215,321.424,327.633,334.411,342.855,350.7234,353.444,359.551,365.1,373.575,379.784,384.651,388.635,391.256,399.731,404.599,408.44,413.2208,415.899,420.207,423.164,429.079,432.391,437.259,441.1,445.968,452.177,454.66700000000003,458.528,464.757,470.671,475.4518,478.13,483.871,488.952,492.966,495.923,501.004,504.317,507.274,512.823" svgx:width="0.83,0.58,0.48,0.58,0.55,0.33,0.58,0.48,0.55,0.56,0.4,0.48,0.48,0.58,0.55,0.6,0.48,0.29,0.29,0.48,0.33,0.42,0.55,0.6,0.4,0.48,0.6,0.5,0.4,0.48,0.61,0.55,0.33,0.4,0.55,0.88,0.55,0.33,0.58,0.48,0.55,0.42,0.6,0.55,0.88,0.29,0.44,0.4,0.55,0.58,0.55,0.61,0.61,0.67,0.83,0.79,0.55,0.6,0.55,0.83,0.61,0.48,0.4,0.55,0.83,0.48,0.4,0.48,0.55,0.42,0.29,0.58,0.33,0.48,0.4,0.48,0.61,0.25,0.55,0.61,0.58,0.48,0.55,0.56,0.5,0.4,0.29,0.5,0.33,0.29,0.55,0.58" style="fill:rgb(0,0,0);font-family:URWPalladioL-Roma;font-size:9.96px;stroke:none;">when the green pellets prepared from the submicron LLZNO powder were sintered. The variation</text>
   <text y="351.403" x="76.535,79.835,84.683,90.574,96.759,101.607,107.498,111.992,117.56960000000001,120.11,125.637,128.9238,131.508,134.807,140.698,145.4788,148.037,153.098,157.592,160.892,163.837,169.556,174.617,177.917,180.862,186.389,192.16580000000002,194.77,199.619,205.51,210.358,214.184,219.812,225.3896,227.93,236.372,241.433,245.6162,248.214,252.506,255.451,264.389,267.335,270.28,275.341,279.325,281.84,285.139,290.617,293.156,296.456,302.347,307.1278,309.685,312.985,318.512,321.811,326.872,329.7604,332.318,335.263,340.79,346.681,349.627,354.0094,356.611,361.105,366.632,372.523,378.707,384.811,389.305,392.605,395.55,401.269,404.215,407.514,412.039,414.529,417.059,422.12,428.011,434.08660000000003,436.686,439.986,445.877,450.6578,453.225,456.171,461.697,470.139,474.988,479.279,482.5658,485.069,490.13,496.021,502.0966,504.706,508.005,513.896" svgx:width="0.33,0.48,0.58,0.61,0.48,0.58,0.44,0.56,0.55,0.55,0.33,0.55,0.33,0.58,0.48,0.55,0.5,0.44,0.33,0.29,0.56,0.5,0.33,0.29,0.55,0.58,0.55,0.48,0.58,0.48,0.4,0.56,0.56,0.55,0.83,0.5,0.42,0.55,0.42,0.29,0.88,0.29,0.29,0.5,0.4,0.55,0.33,0.55,0.55,0.33,0.58,0.48,0.55,0.33,0.55,0.33,0.5,0.29,0.55,0.29,0.55,0.58,0.29,0.44,0.55,0.44,0.55,0.58,0.61,0.6,0.44,0.33,0.29,0.56,0.29,0.33,0.56,0.25,0.55,0.5,0.58,0.61,0.55,0.33,0.58,0.48,0.55,0.29,0.55,0.83,0.48,0.42,0.33,0.55,0.5,0.58,0.61,0.55,0.33,0.58,0.48" style="fill:rgb(0,0,0);font-family:URWPalladioL-Roma;font-size:9.96px;stroke:none;">tendency of the activation energy was similar to the total ionic conductivity, and the lowest and the</text>
   <text y="364.912" x="76.535,82.264,85.128,90.601,96.329,101.044,105.218,108.5048,110.917,115.838,120.209,123.417,126.282,131.843,136.765,139.973,142.838,148.212,153.9888,156.431,161.146,166.874,171.589,175.3,180.773,186.3506,188.736,196.945,201.867,206.0502,208.53,213.452,215.913,220.834,225.756,230.736,233.167,237.882,245.0532,247.479,250.757,255.925,261.939,266.86,269.35,271.811,276.733,281.654,286.576" svgx:width="0.58,0.29,0.56,0.58,0.48,0.42,0.33,0.55,0.5,0.44,0.33,0.29,0.56,0.5,0.33,0.29,0.55,0.58,0.55,0.48,0.58,0.48,0.4,0.56,0.56,0.55,0.83,0.5,0.42,0.55,0.5,0.25,0.5,0.5,0.5,0.55,0.48,0.72,0.55,0.33,0.52,0.61,0.5,0.25,0.55,0.5,0.5,0.5,0.5" style="fill:rgb(0,0,0);font-family:URWPalladioL-Roma;font-size:9.96px;stroke:none;">highest activation energy was 0.311 eV (SL2, 1200</text>
   <text y="361.296" x="293.988" svgx:width="0.52" style="fill:rgb(0,0,0);font-family:Pxsy;font-size:7.57px;stroke:none;">◦</text>
   <text y="364.912" x="298.446" svgx:width="0.71" style="fill:rgb(0,0,0);font-family:URWPalladioL-Roma;font-size:9.96px;stroke:none;">C</text>
   <text y="364.912" x="307.915" svgx:width="0.67" style="fill:rgb(0,0,0);font-family:Pxsy;font-size:9.96px;stroke:none;">×</text>
   <text y="364.912" x="317.071,321.993,326.973,329.404,338.096,340.96,346.689,349.97580000000005,352.457,357.378,363.107,369.18260000000004,371.611,376.533,378.994,383.915,388.837,393.817,396.248,400.963,408.1342,410.56,413.838,419.006,425.02,429.941,432.431,434.892,439.814,444.735,449.657" svgx:width="0.5,0.5,0.55,0.88,0.29,0.58,0.33,0.55,0.5,0.58,0.61,0.55,0.5,0.25,0.5,0.5,0.5,0.55,0.48,0.72,0.55,0.33,0.52,0.61,0.5,0.25,0.55,0.5,0.5,0.5,0.5" style="fill:rgb(0,0,0);font-family:URWPalladioL-Roma;font-size:9.96px;stroke:none;">30 min) and 0.328 eV (SL5, 1100</text>
   <text y="361.296" x="457.071" svgx:width="0.52" style="fill:rgb(0,0,0);font-family:Pxsy;font-size:7.57px;stroke:none;">◦</text>
   <text y="364.912" x="461.529" svgx:width="0.71" style="fill:rgb(0,0,0);font-family:URWPalladioL-Roma;font-size:9.96px;stroke:none;">C</text>
   <text y="364.912" x="470.999" svgx:width="0.67" style="fill:rgb(0,0,0);font-family:Pxsy;font-size:9.96px;stroke:none;">×</text>
   <text y="364.912" x="480.154,485.076,489.997,494.97700000000003,497.409,506.1,508.965,514.693,517.971" svgx:width="0.5,0.5,0.5,0.55,0.88,0.29,0.58,0.33,0.25" style="fill:rgb(0,0,0);font-family:URWPalladioL-Roma;font-size:9.96px;stroke:none;">360 min).</text>
  </g>
  <rect style="stroke:blue;stroke-width:0.3;" x="123.489" y="338.785" height="339.228" width="348.3" title="6"/>
  <text y="338.785" class="image" id="image.6.1" width="348" height="339" x="123.489">image.6.1.123_472.339_678</text>
  <g begin="text">
   <text y="734.856" x="97.795,102.78,105.766,110.751,116.23,119.718,124.203,126.945,131.428" svgx:width="0.56,0.33,0.56,0.61,0.39,0.5,0.55,0.5,0.25" style="fill:rgb(0,0,0);font-family:URWPalladioL-Bold;font-size:8.97px;stroke:none;">Figure 4.</text>
   <text y="734.856" x="138.303" svgx:width="0.33" style="fill:rgb(0,0,0);font-family:URWPalladioL-Roma;font-size:8.97px;stroke:none;">(</text>
   <text y="734.856" x="141.348" svgx:width="0.5" style="fill:rgb(0,0,0);font-family:URWPalladioL-Bold;font-size:8.97px;stroke:none;">a</text>
   <text y="734.856" x="145.832" svgx:width="0.25" style="fill:rgb(0,0,0);font-family:URWPalladioL-Roma;font-size:8.97px;stroke:none;">,</text>
   <text y="734.856" x="150.984" svgx:width="0.61" style="fill:rgb(0,0,0);font-family:URWPalladioL-Bold;font-size:8.97px;stroke:none;">b</text>
   <text y="734.856" x="156.462,159.4221,162.251,169.367,175.73569999999998,178.586,181.247,189.323,194.819,199.2,204.788,209.361,214.684,218.744,223.0496,225.869,231.365,234.027,239.02,242.002,245.76940000000002,248.623,253.617,256.5771,259.397,262.379,267.701,272.00660000000005,274.826,280.414,286.002,292.102,299.702,306.7883,309.635,313.695,318.076,321.689,326.262,334.337,336.999,341.059,344.82640000000004,347.672,355.299,357.961,360.942,366.1446,369.009,374.597" svgx:width="0.33,0.55,0.78,0.71,0.55,0.29,0.88,0.6,0.48,0.61,0.5,0.58,0.44,0.48,0.55,0.6,0.29,0.55,0.33,0.42,0.55,0.55,0.33,0.55,0.33,0.58,0.48,0.55,0.61,0.61,0.67,0.83,0.79,0.55,0.44,0.48,0.4,0.5,0.88,0.29,0.44,0.42,0.55,0.83,0.29,0.33,0.58,0.55,0.61,0.29" style="fill:rgb(0,0,0);font-family:URWPalladioL-Roma;font-size:8.97px;stroke:none;">) AC impedance plots of the LLZNO ceramics with di</text>
   <text y="734.856" x="377.258" svgx:width="0.61" style="fill:rgb(0,0,0);font-family:Rpxr;font-size:8.97px;stroke:none;">ﬀ</text>
   <text y="734.856" x="382.818,387.199,390.647,395.028,400.35,403.31010000000003,406.076,409.953,412.615,417.938,420.919,425.3,428.912,431.574,436.897,441.92019999999997,444.725,448.786,453.78,459.102,464.69,467.352,470.333,472.995,477.988,483.311,487.0784,489.924,494.496" svgx:width="0.48,0.4,0.48,0.58,0.33,0.55,0.42,0.29,0.58,0.33,0.48,0.4,0.29,0.58,0.56,0.55,0.44,0.55,0.58,0.61,0.29,0.33,0.29,0.55,0.58,0.42,0.55,0.5,0.33" style="fill:rgb(0,0,0);font-family:URWPalladioL-Roma;font-size:8.97px;stroke:none;">erent sintering conditions at</text>
   <text y="747.678" x="97.795,102.274" svgx:width="0.5,0.5" style="fill:rgb(0,0,0);font-family:URWPalladioL-Roma;font-size:8.97px;stroke:none;">25</text>
   <text y="744.423" x="108.997" svgx:width="0.52" style="fill:rgb(0,0,0);font-family:Pxsy;font-size:6.97px;stroke:none;">◦</text>
   <text y="747.678" x="113.143,119.494,121.7365,123.981" svgx:width="0.71,0.25,0.55,0.33" style="fill:rgb(0,0,0);font-family:URWPalladioL-Roma;font-size:8.97px;stroke:none;">C; (</text>
   <text y="747.678" x="126.96" svgx:width="0.44" style="fill:rgb(0,0,0);font-family:URWPalladioL-Bold;font-size:8.97px;stroke:none;">c</text>
   <text y="747.678" x="130.941,133.9011,136.172,143.141,149.50969999999998,151.731,154.338,162.247,167.631,171.921,177.394,181.873,187.086,191.063,195.3686,197.602,202.986,205.592,210.483,213.403,217.1704,219.44,223.919,229.132,234.6037,236.854,242.273,245.193,248.113,250.72,255.933,260.95619999999997,263.153,267.13,272.531,276.069,281.13,285.4356,287.669,292.56,295.5201,297.782,302.485,307.958,312.44300000000004,314.685,319.164,322.1241,324.332,328.811" svgx:width="0.33,0.55,0.78,0.71,0.55,0.29,0.88,0.6,0.48,0.61,0.5,0.58,0.44,0.48,0.55,0.6,0.29,0.55,0.33,0.42,0.55,0.5,0.58,0.61,0.55,0.61,0.33,0.33,0.29,0.58,0.56,0.55,0.44,0.6,0.4,0.56,0.48,0.55,0.55,0.33,0.55,0.52,0.61,0.5,0.55,0.5,0.33,0.55,0.5,0.5" style="fill:rgb(0,0,0);font-family:URWPalladioL-Roma;font-size:8.97px;stroke:none;">) AC impedance plots and ﬁtting curve of SL2 at 25</text>
   <text y="744.423" x="335.53" svgx:width="0.52" style="fill:rgb(0,0,0);font-family:Pxsy;font-size:6.97px;stroke:none;">◦</text>
   <text y="747.678" x="339.675,346.026,348.2685,350.513" svgx:width="0.71,0.25,0.55,0.33" style="fill:rgb(0,0,0);font-family:URWPalladioL-Roma;font-size:8.97px;stroke:none;">C; (</text>
   <text y="747.678" x="353.493" svgx:width="0.61" style="fill:rgb(0,0,0);font-family:URWPalladioL-Bold;font-size:8.97px;stroke:none;">d</text>
   <text y="747.678" x="358.971,361.9311,364.202,368.493,373.509,378.91,381.517,386.578,391.057,393.663,397.954,403.167,406.1271,408.327,412.304,414.91,418.287,422.264,427.666,430.272,433.2321,435.441,438.361,443.29449999999997,445.491,450.91,453.87010000000004,456.079,458.999,464.212,468.5176,470.742,474.719,480.12,483.659,488.72,493.01,496.808" svgx:width="0.33,0.55,0.48,0.56,0.6,0.29,0.56,0.5,0.29,0.48,0.58,0.33,0.55,0.44,0.29,0.4,0.44,0.6,0.29,0.33,0.55,0.33,0.55,0.55,0.61,0.33,0.55,0.33,0.58,0.48,0.55,0.44,0.6,0.4,0.56,0.48,0.42,0.25" style="fill:rgb(0,0,0);font-family:URWPalladioL-Roma;font-size:8.97px;stroke:none;">) equivalent circuit to ﬁt the curves.</text>
   <text y="760.5" x="97.499" svgx:width="0.33" style="fill:rgb(0,0,0);font-family:URWPalladioL-Roma;font-size:8.97px;stroke:none;">(</text>
   <text y="760.5" x="100.485" svgx:width="0.5" style="fill:rgb(0,0,0);font-family:URWPalladioL-Bold;font-size:8.97px;stroke:none;">e</text>
   <text y="760.5" x="104.968,107.9281,110.195,114.867,119.763,122.686,127.169,129.7703,132.02,136.001,140.896,146.115,151.593,157.0,160.981,163.904,166.513,171.579,174.189,177.112,182.1352,184.339,188.822,194.04,199.5117,201.76,205.141,209.436,212.045,216.528,219.451,222.06,227.126,231.4316,233.663,239.141,243.436,248.655,252.456,255.066,257.989,263.01219999999995,265.216,270.111,273.0711,275.339,278.262,283.48,287.78560000000004,290.017,295.495,300.974,306.954,314.405,321.49129999999997,323.694,327.676,331.97,335.512,339.995,347.913,350.522,354.503,358.305" svgx:width="0.33,0.55,0.61,0.55,0.33,0.5,0.29,0.55,0.44,0.55,0.58,0.61,0.6,0.44,0.33,0.29,0.56,0.29,0.33,0.56,0.55,0.5,0.58,0.61,0.55,0.4,0.48,0.29,0.5,0.33,0.29,0.56,0.48,0.55,0.61,0.48,0.58,0.42,0.29,0.33,0.56,0.55,0.55,0.33,0.55,0.33,0.58,0.48,0.55,0.61,0.61,0.67,0.83,0.79,0.55,0.44,0.48,0.4,0.5,0.88,0.29,0.44,0.42,0.25" style="fill:rgb(0,0,0);font-family:URWPalladioL-Roma;font-size:8.97px;stroke:none;">) Total conductivity and relative density of the LLZNO ceramics.</text>
  </g>
 </g>
</svg>
