<?xml version="1.0" encoding="UTF-8"?>
<svg height="774.244" width="2665.638" xmlns="http://www.w3.org/2000/svg">
 <g id="page" xmlns:svgx="http://www.xml-cml.org/schema/svgx">
  <path style="fill:rgb(206,221,228);stroke:none;stroke-width:1.0;" d="M382.560 8.590 L382.560 26.390 L548.650 26.390 C548.650 26.390 554.310 26.390 554.310 20.720 L554.310 8.590 Z"/>
  <g begin="text">
   <text y="764.23" x="549.838" svgx:width="0.48" style="fill:rgb(206,221,228);font-family:Corbel2;font-size:10.0px;stroke:none;">5</text>
   <text y="764.244" x="40.794,45.842,50.946,53.586,58.562,64.818,69.81,72.45,77.05,79.69" svgx:width="0.58,0.58,0.28,0.57,0.73,0.57,0.28,0.52,0.28,0.58" style="fill:rgb(0,0,0);font-family:Corbel-Bold2;font-size:8.0px;stroke:none;">Scientific</text>
   <text y="764.244" x="84.65" svgx:width="0.2" style="fill:rgb(0,0,0);font-family:Corbel2;font-size:8.0px;stroke:none;"> </text>
   <text y="764.244" x="86.25,91.706,96.682,101.922,108.226,113.682,118.674" svgx:width="0.63,0.57,0.6,0.73,0.63,0.57,0.58" style="fill:rgb(0,0,0);font-family:Corbel-Bold2;font-size:8.0px;stroke:none;">RepoRtS</text>
   <text y="764.244" x="123.57,125.01,126.826" svgx:width="0.2,0.23,0.2" style="fill:rgb(0,0,0);font-family:Corbel2;font-size:8.0px;stroke:none;"> | </text>
   <text y="764.244" x="128.266,129.722,131.178,132.634,134.09,135.546,137.002,138.458,139.914,142.186,146.122,150.058,153.994,157.93,160.202,161.658,165.594,169.53,171.218,175.154,179.09,183.026,186.962" svgx:width="0.18,0.18,0.18,0.18,0.18,0.18,0.18,0.18,0.28,0.49,0.49,0.49,0.49,0.28,0.18,0.49,0.49,0.21,0.49,0.49,0.49,0.49,0.18" style="fill:rgb(0,0,0);font-family:MyriadPro-It;font-size:8.0px;stroke:none;"> (2020) 10:7481 </text>
   <text y="764.244" x="188.418,189.858,191.674" svgx:width="0.2,0.23,0.2" style="fill:rgb(0,0,0);font-family:Corbel2;font-size:8.0px;stroke:none;"> | </text>
   <text y="764.244" x="193.114,197.37,200.146,202.922,207.17,210.402,212.514,214.714,216.914,221.202,225.466,227.322,229.434,233.698,236.378,240.626,242.826,246.93,251.034,253.146,257.25,261.354,265.458,269.562,271.762,274.994,279.098,283.202,287.306,291.41,295.514,298.178,302.282,306.386,310.49,313.154,317.258,321.362,325.466,329.57,333.674,336.338" svgx:width="0.53,0.35,0.35,0.53,0.4,0.26,0.28,0.28,0.54,0.53,0.23,0.26,0.53,0.34,0.53,0.28,0.51,0.51,0.26,0.51,0.51,0.51,0.51,0.28,0.4,0.51,0.51,0.51,0.51,0.51,0.33,0.51,0.51,0.51,0.33,0.51,0.51,0.51,0.51,0.51,0.33,0.51" style="fill:rgb(0,0,0);font-family:Corbel;font-size:8.0px;stroke:none;">https://doi.org/10.1038/s41598-020-63328-6</text>
  </g>
  <g begin="text">
   <text y="22.277" x="389.724,397.484,405.243,412.702,415.869,421.732,427.216,431.234,437.005,440.9,446.465,449.633,454.583,460.508,469.466,472.746,477.349,482.299,485.139,490.699,496.562,500.58,503.419,507.14,509.979,514.93,518.825,524.391,530.295,536.219,540.115,544.133" svgx:width="0.71,0.71,0.71,0.26,0.53,0.49,0.35,0.52,0.34,0.5,0.26,0.44,0.53,0.83,0.28,0.4,0.44,0.23,0.5,0.53,0.35,0.23,0.32,0.23,0.44,0.34,0.5,0.53,0.53,0.34,0.35,0.4" style="fill:rgb(0,0,0);font-family:Corbel2;font-size:10.25px;stroke:none;">www.nature.com/scientificreports</text>
  </g>
  <path style="fill:none;stroke:rgb(0,0,0);stroke-width:1.0;" d="M40.640 752.550 L554.640 752.550 "/>
  <g begin="text">
   <text y="22.46" x="40.638,48.208,55.778,63.055,66.145,71.865,77.215,81.135,86.765,90.565,95.995,99.085,103.915,109.695,118.435,121.635,126.125,130.955,133.725,139.15,144.87,148.79,151.56,155.19,157.96,162.79,166.59,172.02,177.78,183.56,187.36,191.28,195.77" svgx:width="0.71,0.71,0.71,0.26,0.53,0.49,0.35,0.52,0.34,0.5,0.26,0.44,0.53,0.83,0.28,0.4,0.44,0.23,0.5,0.53,0.35,0.23,0.32,0.23,0.44,0.34,0.5,0.53,0.53,0.34,0.35,0.4,0.28" style="fill:rgb(0,0,0);font-family:Corbel2;font-size:10.0px;stroke:none;">www.nature.com/scientificreports/</text>
  </g>
  <g begin="text">
   <text y="665.51" x="155.638,163.217,165.956,170.62,175.471,181.466,186.13,190.794,193.533,199.627" svgx:width="0.69,0.25,0.42,0.44,0.55,0.42,0.42,0.25,0.55,0.56" style="fill:rgb(0,0,0);font-family:Corbel-Bold2;font-size:11.0px;stroke:none;">Discussion</text>
   <text y="675.51" x="155.638,161.781,165.151,167.225,170.551,173.417,177.265,180.023,183.96,188.78,190.859,193.337,198.328,200.402,203.269,208.106,211.999,214.073,216.553,221.372,224.23,227.519,232.258,236.969,241.815,245.752,248.61,251.089,255.639,260.629,262.749,264.823,267.69,272.527,276.419,278.498,283.173,286.462,290.354,293.797,297.69,302.509,305.267,309.205,314.024,316.103,323.504,327.397,330.263,335.101,339.839,344.659,346.733,350.023,353.915,358.591,361.88,365.772,369.214,373.107,377.926,380.739,384.109,386.184,390.121,395.112,397.186,401.034,405.718,410.394,413.684,418.386,422.404,426.224,431.098,433.177,435.826,440.376,443.782,445.857,450.47,455.011,457.876,461.814,464.293,469.284,471.763,476.682,480.961,483.036,485.794,489.687,496.954,501.818,505.71,509.117,512.964,515.687,520.534,523.823,527.715,529.79,534.636,538.483,541.35,545.368,547.443,551.992,554.656" svgx:width="0.69,0.37,0.23,0.37,0.31,0.44,0.31,0.43,0.53,0.23,0.27,0.55,0.23,0.31,0.53,0.43,0.23,0.27,0.55,0.31,0.37,0.51,0.53,0.53,0.42,0.31,0.27,0.51,0.55,0.23,0.23,0.31,0.53,0.43,0.23,0.52,0.37,0.43,0.37,0.43,0.55,0.31,0.43,0.53,0.23,0.82,0.43,0.31,0.53,0.51,0.53,0.23,0.37,0.43,0.52,0.37,0.43,0.37,0.43,0.55,0.31,0.37,0.23,0.44,0.55,0.23,0.44,0.52,0.52,0.37,0.51,0.44,0.42,0.53,0.23,0.3,0.51,0.37,0.23,0.51,0.51,0.31,0.44,0.27,0.55,0.27,0.55,0.47,0.23,0.31,0.43,0.82,0.52,0.43,0.37,0.44,0.31,0.53,0.37,0.43,0.23,0.53,0.44,0.31,0.44,0.23,0.51,0.3,0.23" style="fill:rgb(0,0,0);font-family:MinionPro-Regular;font-size:9.0px;stroke:none;">As stated in the introduction, the presented method represents an approach for obtaining temperature data of </text>
   <text y="685.509" x="155.638,159.715,161.983,165.363,170.268,173.784,176.574,180.651,184.584,188.535,190.803,195.704,199.697,203.041,207.919,211.87,216.919,219.457,224.43,228.768,231.036,235.929,239.93,243.833,246.704,248.972,251.884,255.229,259.23,263.132,266.045,273.502,277.453,282.327,285.198,287.466,292.197,295.541,300.335,304.268,308.219,311.599,315.028,317.296,323.646,328.539,332.49,335.834,339.785,342.053,344.975,349.867,353.818,357.162,361.113,363.381,365.889,369.318,371.586,376.594,381.31" svgx:width="0.44,0.23,0.37,0.53,0.37,0.3,0.44,0.42,0.43,0.23,0.53,0.44,0.37,0.53,0.43,0.55,0.27,0.55,0.47,0.23,0.53,0.43,0.44,0.31,0.23,0.31,0.37,0.43,0.44,0.31,0.82,0.43,0.55,0.31,0.23,0.52,0.37,0.51,0.42,0.43,0.37,0.37,0.23,0.69,0.53,0.43,0.37,0.43,0.23,0.31,0.53,0.43,0.37,0.43,0.23,0.27,0.37,0.23,0.55,0.51,0.23" style="fill:rgb(0,0,0);font-family:MinionPro-Regular;font-size:9.0px;stroke:none;">a surface hardening heat treatment process where there is no </text>
   <text y="685.509" x="383.578,386.042,390.956,394.088,397.155,399.609,402.414" svgx:width="0.27,0.53,0.33,0.34,0.27,0.31,0.53" style="fill:rgb(0,0,0);font-family:MinionPro-It;font-size:9.0px;stroke:none;">in-situ</text>
   <text y="685.509" x="407.337,409.605,417.062,421.063,425.11,428.491,433.391,436.737,440.683,448.141,452.092,456.966,459.837,462.105,467.024,471.74,475.12,478.549,481.047,485.679,488.082,492.033,494.301,498.905,502.37,504.638,508.55,512.843,516.836,519.415,521.841,525.843,530.475,532.873,536.767,538.945,541.213,550.939,554.764" svgx:width="0.23,0.82,0.43,0.44,0.37,0.53,0.37,0.43,0.82,0.43,0.55,0.31,0.23,0.52,0.51,0.37,0.37,0.27,0.51,0.25,0.43,0.23,0.51,0.37,0.23,0.44,0.46,0.44,0.27,0.25,0.44,0.51,0.25,0.43,0.23,0.23,1.07,0.43,0.23" style="fill:rgb(0,0,0);font-family:MinionPro-Regular;font-size:9.0px;stroke:none;"> measurement possible or available. The </text>
   <text y="695.508" x="155.638,158.437,163.207,167.689,170.911,175.402,180.181,184.456,189.262,191.089,193.501,198.217,202.312,206.137,209.395,212.185,214.597,218.809,222.589,225.379,227.791,232.272,237.195,239.022,243.504,246.168,247.995,250.794,255.564,259.389,261.216,268.587,270.999,274.806,278.028,282.618,285.876,288.666,292.094,296.873,300.743,303.398,308.177,311.399,315.224,317.051,319.463,324.386,326.213,329.012,333.782,337.607,339.434,342.692,347.471,350.864,353.528,357.479,361.286,365.111,366.938,371.716,375.587,378.809,383.561,387.386,392.273,396.142,400.894,402.721,405.943,409.768,414.025,416.437,420.919,425.842,427.669,430.927,435.598,440.215,444.868,447.145,449.557,453.382,456.685,458.512,461.851,465.631,468.43,473.2,477.025,480.364,482.191,486.798,490.02,493.89,497.697,500.082,503.457,507.282,509.109,512.448,516.319,521.17,525.31,529.135,532.438,534.265,538.747,541.411,543.238,546.037,550.807,554.632" svgx:width="0.31,0.53,0.51,0.37,0.51,0.53,0.47,0.53,0.23,0.27,0.55,0.46,0.43,0.37,0.31,0.27,0.47,0.44,0.31,0.27,0.51,0.55,0.23,0.51,0.3,0.23,0.31,0.53,0.43,0.23,0.82,0.27,0.42,0.37,0.51,0.37,0.31,0.37,0.53,0.42,0.31,0.53,0.37,0.43,0.23,0.27,0.55,0.23,0.31,0.53,0.43,0.23,0.37,0.53,0.37,0.3,0.44,0.42,0.43,0.23,0.53,0.44,0.37,0.53,0.43,0.55,0.43,0.53,0.23,0.37,0.43,0.47,0.27,0.51,0.55,0.23,0.37,0.53,0.52,0.52,0.25,0.27,0.43,0.37,0.23,0.37,0.44,0.31,0.53,0.43,0.37,0.23,0.52,0.37,0.43,0.42,0.27,0.37,0.43,0.23,0.37,0.44,0.55,0.47,0.43,0.37,0.23,0.51,0.3,0.23,0.31,0.53,0.43,0.23" style="fill:rgb(0,0,0);font-family:MinionPro-Regular;font-size:9.0px;stroke:none;">thorough investigation of the microstructure in the surface hardened region supplies rather precise ranges of the </text>
   <text y="705.507" x="155.638,158.477,161.861,165.779,170.679,174.027,176.379,179.217,181.674,186.205,191.173,193.18,195.982,199.253,203.783,211.199,213.206,217.737,222.673,226.543,228.55,235.966,238.423,242.275,245.544,250.179,253.486,256.325,259.802,264.626,268.545,271.248,276.072,279.456,283.5,285.822,287.829,291.1,294.97,299.275,301.732,306.263,311.231,313.238,315.977,320.612,322.619,326.538,331.474,336.013,338.861,343.679,347.549,350.37,352.467,354.474,357.242,360.032,362.039,364.471,367.819,369.826,372.283,379.532,384.377,388.908,392.386,395.233,399.152,403.952,406.742,408.749,411.49,416.125,418.132,423.067,427.606,430.346,434.216,436.223,439.07,443.898,447.727,450.517,452.524,455.371,460.19,464.06,466.067,468.905,472.289,476.208,481.108,484.456,486.808,489.646,492.103,496.634,501.533,504.881,506.888,510.807,514.077,517.947,519.954,524.89,529.43,532.22,534.227,537.542,542.37,546.288,549.766,554.482" svgx:width="0.31,0.37,0.44,0.55,0.37,0.27,0.31,0.27,0.51,0.55,0.23,0.3,0.37,0.51,0.82,0.23,0.51,0.55,0.43,0.23,0.82,0.27,0.42,0.37,0.51,0.37,0.31,0.37,0.53,0.42,0.31,0.53,0.37,0.44,0.25,0.23,0.37,0.43,0.47,0.27,0.51,0.55,0.23,0.31,0.51,0.23,0.44,0.55,0.51,0.31,0.53,0.43,0.37,0.23,0.23,0.34,0.31,0.23,0.27,0.37,0.23,0.27,0.82,0.52,0.51,0.37,0.31,0.44,0.55,0.31,0.23,0.31,0.51,0.23,0.55,0.51,0.31,0.43,0.23,0.31,0.53,0.44,0.31,0.23,0.31,0.53,0.43,0.23,0.31,0.37,0.44,0.55,0.37,0.27,0.31,0.27,0.51,0.55,0.37,0.23,0.44,0.37,0.43,0.23,0.55,0.51,0.31,0.23,0.37,0.53,0.44,0.37,0.52,0.23" style="fill:rgb(0,0,0);font-family:MinionPro-Regular;font-size:9.0px;stroke:none;">transition from one microstructural region to another. It is important to note that the transitions are not sharp </text>
   <text y="715.506" x="155.638,160.223,165.006,167.859,170.091,173.538,177.431,180.341,185.223,189.156,192.603,194.835,197.737,201.184,205.167,210.129,213.54,215.957,218.858,221.378,225.973,230.981,235.089,237.474,239.706,243.688,247.022,251.013,255.049,258.46,260.692,265.449,270.336,274.269,276.501,279.303,284.001,286.233,288.618,293.402,297.348,301.455,303.84,306.072,310.932,313.452,318.532,322.465,325.798,329.731,334.731,338.646,342.579,345.99,348.222,350.742,355.773,358.005,361.869,366.751,370.684,378.163,380.66,384.03,386.932,390.643,394.882,397.114,401.88,405.861,409.807,413.7,418.563,422.05,425.983,428.215,432.809,435.581,437.813,442.534,445.867,450.65,455.406,460.293,464.276,467.178,469.698,474.292,479.323,481.555,484.889,488.789,491.206,495.097,497.9,501.883,506.742,508.974,512.461,516.394,520.763,524.097,528.03,532.35,536.242,539.143,541.663,546.257,551.221,554.524" svgx:width="0.51,0.53,0.31,0.23,0.37,0.44,0.31,0.53,0.43,0.37,0.23,0.31,0.37,0.44,0.55,0.37,0.27,0.31,0.27,0.51,0.55,0.44,0.25,0.23,0.44,0.37,0.43,0.44,0.37,0.23,0.53,0.53,0.43,0.23,0.31,0.51,0.23,0.25,0.51,0.42,0.44,0.25,0.23,0.53,0.27,0.56,0.43,0.37,0.43,0.55,0.42,0.43,0.37,0.23,0.27,0.55,0.23,0.42,0.53,0.43,0.82,0.27,0.37,0.31,0.37,0.46,0.23,0.51,0.43,0.42,0.44,0.53,0.37,0.43,0.23,0.51,0.3,0.23,0.52,0.37,0.51,0.53,0.53,0.42,0.31,0.27,0.51,0.55,0.23,0.37,0.43,0.25,0.44,0.31,0.43,0.53,0.23,0.37,0.43,0.47,0.37,0.43,0.47,0.44,0.31,0.27,0.51,0.55,0.37,0.23" style="fill:rgb(0,0,0);font-family:MinionPro-Regular;font-size:9.0px;stroke:none;">but rather transitional areas due to local differences in chemistry because of production related segregations </text>
   <text y="725.505" x="155.638,159.536,164.451,169.23,171.201,176.026,180.643,183.929,187.259,189.663,194.199,196.503,200.355,202.326,206.52,210.418,213.839,216.306,220.114,222.932,225.371,229.881,234.761,238.091,240.062,242.501,247.451,249.422,252.248,257.046,260.898,262.869,265.588,269.44,276.668,281.493,285.345,288.711,292.519,295.202,300.008,303.258,307.11,309.081,313.86,316.273,319.559,322.376,325.797,328.201,332.702,337.401,340.219,342.658,347.168,352.118,354.089,356.528,363.756,368.581,373.198,376.601,380.498,385.277,387.248,391.704,395.862,397.833,400.66,405.459,409.311,411.282,413.721,418.636,423.308,428.114,432.011,434.829,437.206,441.329,445.181,447.152,451.95,455.857,459.665,462.437,464.408,468.576,472.428,477.343,481.195,484.561,488.369,491.187,493.626,498.136,503.086,505.165,507.136,513.833,518.307,524.428,528.353,532.476,536.328,539.128,541.207,543.178,546.006,550.804,554.628" svgx:width="0.44,0.55,0.53,0.23,0.52,0.51,0.37,0.37,0.27,0.51,0.25,0.43,0.23,0.46,0.44,0.37,0.27,0.44,0.31,0.27,0.51,0.55,0.37,0.23,0.27,0.55,0.23,0.31,0.53,0.43,0.23,0.31,0.43,0.82,0.52,0.43,0.37,0.44,0.31,0.53,0.37,0.43,0.23,0.53,0.27,0.37,0.31,0.37,0.27,0.51,0.53,0.31,0.27,0.51,0.55,0.23,0.27,0.82,0.52,0.51,0.37,0.43,0.53,0.23,0.51,0.46,0.23,0.31,0.53,0.43,0.23,0.27,0.55,0.53,0.53,0.42,0.31,0.27,0.46,0.43,0.23,0.53,0.43,0.44,0.31,0.23,0.47,0.43,0.55,0.43,0.37,0.44,0.31,0.27,0.51,0.55,0.23,0.23,0.77,0.51,0.69,0.43,0.46,0.43,0.37,0.23,0.23,0.31,0.53,0.43,0.23" style="fill:rgb(0,0,0);font-family:MinionPro-Regular;font-size:9.0px;stroke:none;">and possible variations in the temperature distribution imposed by the inductive heat generation. However, the </text>
   <text y="735.504" x="155.638,159.51,163.65,167.621,169.765,174.546,178.301,180.968,184.812,189.537,191.247,194.013,197.325,201.17,205.997,209.273,211.552,214.317,216.702,221.16,226.056,227.766,232.491,236.289,240.881,243.655,248.364,251.64,253.35,255.735,260.631,262.341,266.121,270.579,277.835,282.274,284.659,289.531,293.286,296.051,298.436,302.892,307.788,309.498,315.665,317.944,320.719,325.498,327.208,331.132,332.842,338.613,343.484,349.282,352.459,355.656,359.501,363.281,367.737,370.935,375.66,378.045,382.871,387.056,388.766,391.325,395.781,399.093,400.803,403.578,408.323,412.121,413.831,418.415,421.611,426.257,430.037,433.835,437.069,440.345,442.055,445.835,450.293,455.154,459.879,462.158,464.923,467.308,471.765,476.592,479.868,481.578,484.81,489.457,494.049,498.678,500.866,504.97,506.68,509.454,514.199,517.997,519.707,522.473,525.785,529.63,534.456,537.732,540.012,542.777,545.162,549.619,554.542" svgx:width="0.43,0.46,0.44,0.25,0.53,0.44,0.31,0.43,0.53,0.23,0.31,0.37,0.44,0.55,0.37,0.27,0.31,0.27,0.51,0.55,0.23,0.53,0.43,0.52,0.31,0.53,0.37,0.23,0.27,0.55,0.23,0.42,0.51,0.82,0.51,0.27,0.55,0.44,0.31,0.27,0.51,0.55,0.23,0.69,0.27,0.31,0.53,0.23,0.44,0.23,0.62,0.62,0.69,0.36,0.37,0.43,0.42,0.51,0.37,0.53,0.27,0.55,0.47,0.23,0.3,0.51,0.37,0.23,0.31,0.53,0.43,0.23,0.52,0.37,0.51,0.42,0.43,0.37,0.37,0.23,0.42,0.51,0.55,0.53,0.27,0.31,0.27,0.51,0.55,0.37,0.23,0.37,0.53,0.52,0.52,0.25,0.46,0.23,0.31,0.53,0.43,0.23,0.31,0.37,0.44,0.55,0.37,0.27,0.31,0.27,0.51,0.55,0.23" style="fill:rgb(0,0,0);font-family:MinionPro-Regular;font-size:9.0px;stroke:none;">evaluated transition depths in combination with a TTA-recording for the process conditions supply the transition </text>
  </g>
  <rect style="fill:pink;opacity:0.2;stroke:blue;stroke-width:0.3;" x="155.638" y="64.138" height="260.76" width="396.0" title="5"/>
  <text y="64.138" class="image" id="image.5.1" width="396" height="260" x="155.638" style="font-size:5.0px;">image.5.1.156_552.64_325</text>
  <path style="fill:none;stroke:rgb(206,221,228);stroke-width:0.3;" d="M159.130 395.800 L552.640 395.800 "/>
  <path style="fill:none;stroke:rgb(206,221,228);stroke-width:1.0;" d="M156.140 395.800 L156.140 395.800 M554.140 395.800 L554.140 395.800 "/>
  <g begin="text">
   <text y="325.803" x="155.638,160.552,163.207,167.662,172.657,176.221,180.154,181.909,186.409" svgx:width="0.55,0.29,0.49,0.56,0.4,0.44,0.22,0.5,0.25" style="fill:rgb(0,0,0);font-family:MinionPro-Bold;font-size:9.0px;stroke:none;">Figure 4.</text>
   <text y="325.803" x="188.695,190.765,193.195,201.151,203.563,207.37,210.592,215.182,219.439,222.778,226.557,231.21,235.944,239.247,241.083,245.565,248.229,250.065,252.864,257.634,261.459,263.295,266.085,269.424,273.294,278.145,281.448,283.752,286.542,288.954,293.436,298.359,300.195,303.975,308.457,313.344,317.169,319.221,321.057" svgx:width="0.23,0.55,0.89,0.27,0.42,0.37,0.51,0.47,0.37,0.44,0.52,0.53,0.37,0.23,0.51,0.3,0.23,0.31,0.53,0.43,0.23,0.31,0.37,0.44,0.55,0.37,0.27,0.31,0.27,0.51,0.55,0.23,0.42,0.51,0.55,0.43,0.23,0.23,0.35" style="fill:rgb(0,0,0);font-family:MinionPro-Regular;font-size:9.0px;stroke:none;"> Micrographs of the transition zone: (</text>
   <text y="325.803" x="324.171" svgx:width="0.47" style="fill:rgb(0,0,0);font-family:MinionPro-Bold;font-size:9.0px;stroke:none;">a</text>
   <text y="325.803" x="328.365,331.479,333.315,336.582,341.352,345.798,351.963,355.266,357.102,359.9,364.671,368.496,370.332,374.157,378.909,381.699,384.111,387.333,391.158,392.994,396.801,401.284,408.483,413.28,417.87,421.173,423.477,426.168,429.993,431.829,434.241,441.585,445.49,449.63,453.455,455.291,460.043,463.868,466.667,470.537,472.994,475.271,477.683,482.534,486.746,488.582,491.381,496.151,499.976,501.812,505.565,510.344,514.214,519.065,523.322,525.734,530.585,534.797" svgx:width="0.35,0.23,0.37,0.53,0.51,0.69,0.37,0.23,0.31,0.53,0.43,0.23,0.43,0.55,0.31,0.27,0.37,0.43,0.23,0.42,0.51,0.82,0.52,0.51,0.37,0.27,0.31,0.43,0.23,0.27,0.82,0.44,0.47,0.43,0.23,0.53,0.43,0.31,0.44,0.27,0.25,0.27,0.55,0.47,0.23,0.31,0.53,0.43,0.23,0.42,0.53,0.44,0.55,0.47,0.27,0.55,0.47,0.23" style="fill:rgb(0,0,0);font-family:MinionPro-Regular;font-size:9.0px;stroke:none;">) shows the entire composite image detailing the changing </text>
   <text y="335.802" x="155.638,163.009,165.421,169.228,172.45,177.04,180.298,183.087,186.516,191.295,195.165,197.82,202.599,205.821,209.646,211.482,213.894,218.817,220.653,224.604,226.44,231.192,235.017,239.634,242.433,247.239,249.075,253.557,256.221,258.057,262.377,266.697,271.017,275.337" svgx:width="0.82,0.27,0.42,0.37,0.51,0.37,0.31,0.37,0.53,0.42,0.31,0.53,0.37,0.43,0.23,0.27,0.55,0.23,0.44,0.23,0.53,0.43,0.52,0.31,0.53,0.23,0.51,0.3,0.23,0.48,0.48,0.48,0.48,0.23" style="fill:rgb(0,0,0);font-family:MinionPro-Regular;font-size:9.0px;stroke:none;">microstructure in a depth of 4400 </text>
   <text y="335.802" x="276.472" svgx:width="0.52" style="fill:rgb(0,0,0);font-family:EuclidSymbol;font-size:9.0px;stroke:none;">μ</text>
   <text y="335.802" x="281.134,288.505,290.341,293.032,297.622,299.458,303.778,308.098,312.418,316.738" svgx:width="0.82,0.23,0.31,0.51,0.23,0.48,0.48,0.48,0.48,0.23" style="fill:rgb(0,0,0);font-family:MinionPro-Regular;font-size:9.0px;stroke:none;">m to 5300 </text>
   <text y="335.802" x="317.872" svgx:width="0.52" style="fill:rgb(0,0,0);font-family:EuclidSymbol;font-size:9.0px;stroke:none;">μ</text>
   <text y="335.802" x="322.534,329.905,331.741,334.494,337.716,342.198,349.569,351.405,354.204,358.974,362.799,364.635,367.893,372.672,376.064,378.728,382.679,386.486,390.257,392.309,394.145,403.748,407.573,409.409,414.224,417.508,420.766,423.511,425.347,429.667,433.987,438.307" svgx:width="0.82,0.23,0.3,0.37,0.51,0.82,0.23,0.31,0.53,0.43,0.23,0.37,0.53,0.37,0.3,0.44,0.42,0.43,0.23,0.23,1.07,0.43,0.23,0.54,0.37,0.37,0.31,0.23,0.48,0.48,0.48,0.23" style="fill:rgb(0,0,0);font-family:MinionPro-Regular;font-size:9.0px;stroke:none;">m from the surface. The first 200 </text>
   <text y="335.802" x="439.453" svgx:width="0.52" style="fill:rgb(0,0,0);font-family:EuclidSymbol;font-size:9.0px;stroke:none;">μ</text>
   <text y="335.802" x="444.115,451.486,453.322,457.192,460.414,464.239,466.075,470.683,473.905,477.73,481.105,484.93,489.682,492.373,496.243,500.995,502.831,505.243,510.166,512.002,516.763,519.175,523.414,525.466" svgx:width="0.82,0.23,0.44,0.37,0.43,0.23,0.52,0.37,0.43,0.37,0.43,0.55,0.31,0.43,0.53,0.23,0.27,0.55,0.23,0.53,0.27,0.47,0.23,0.23" style="fill:rgb(0,0,0);font-family:MinionPro-Regular;font-size:9.0px;stroke:none;">m are presented in Fig. </text>
   <text y="335.802" x="527.311,531.631" svgx:width="0.48,0.53" style="fill:rgb(0,0,255);font-family:MinionPro-Regular;font-size:9.0px;stroke:none;">3d</text>
   <text y="335.802" x="536.329,538.381" svgx:width="0.23,0.23" style="fill:rgb(0,0,0);font-family:MinionPro-Regular;font-size:9.0px;stroke:none;">, </text>
   <text y="345.801" x="155.638,161.83,164.134,166.933,171.739,173.575,177.526,179.362,184.249,188.74,191.53,193.942,197.749,201.628,205.507,210.016,212.293,216.118,217.954,222.401,226.496,230.321,233.623,235.927,239.707,244.423,246.259,250.741,253.405,255.241,260.461,264.781,269.101" svgx:width="0.69,0.27,0.31,0.53,0.23,0.44,0.23,0.55,0.51,0.31,0.27,0.42,0.43,0.44,0.51,0.25,0.43,0.23,0.51,0.46,0.43,0.37,0.25,0.44,0.52,0.23,0.51,0.3,0.23,0.58,0.48,0.48,0.23" style="fill:rgb(0,0,0);font-family:MinionPro-Regular;font-size:9.0px;stroke:none;">with a noticeable overlap of ~20 </text>
   <text y="345.801" x="270.235" svgx:width="0.52" style="fill:rgb(0,0,0);font-family:EuclidSymbol;font-size:9.0px;stroke:none;">μ</text>
   <text y="345.801" x="274.897,282.268,284.104,290.296,292.599,295.398,300.204,302.04" svgx:width="0.82,0.23,0.69,0.27,0.31,0.53,0.23,0.35" style="fill:rgb(0,0,0);font-family:MinionPro-Regular;font-size:9.0px;stroke:none;">m with (</text>
   <text y="345.801" x="305.154" svgx:width="0.53" style="fill:rgb(0,0,0);font-family:MinionPro-Bold;font-size:9.0px;stroke:none;">b</text>
   <text y="345.801" x="309.96,313.074,315.126,316.962,320.742,323.487,325.323,329.643,333.963,338.283,342.603" svgx:width="0.35,0.23,0.23,0.44,0.31,0.23,0.48,0.48,0.48,0.48,0.23" style="fill:rgb(0,0,0);font-family:MinionPro-Regular;font-size:9.0px;stroke:none;">), at 4700 </text>
   <text y="345.801" x="343.738" svgx:width="0.52" style="fill:rgb(0,0,0);font-family:EuclidSymbol;font-size:9.0px;stroke:none;">μ</text>
   <text y="345.801" x="348.4,355.771,357.607,362.359,366.184,370.8,373.599,378.405,380.457,382.293,388.521,393.291,397.116,400.338,404.163,405.999,410.778,415.53,418.319,421.658,425.528,430.379,433.682,436.265,440.747,444.14,451.475,455.345,460.097,461.933,466.729,470.608,474.478,477.781,480.058,482.362,485.053,488.878,490.714,495.367,499.236,503.043,507.525,514.86,518.685,521.988,523.824,531.159,535.641,538.863,542.688" svgx:width="0.82,0.23,0.53,0.43,0.52,0.31,0.53,0.23,0.23,0.69,0.53,0.43,0.37,0.43,0.23,0.53,0.55,0.31,0.37,0.44,0.55,0.37,0.3,0.51,0.37,0.82,0.43,0.53,0.23,0.52,0.43,0.44,0.37,0.25,0.27,0.31,0.43,0.23,0.51,0.43,0.42,0.51,0.82,0.43,0.37,0.23,0.82,0.51,0.37,0.43,0.23" style="fill:rgb(0,0,0);font-family:MinionPro-Regular;font-size:9.0px;stroke:none;">m depth, where untransformed pearlite becomes more </text>
   <text y="355.8" x="155.638,160.246,163.468,167.95,172.837,177.328,182.107,186.994,190.801,194.671,199.369,201.421,203.257,212.86,216.685,218.521,222.391,229.726,234.217,238.996,243.748,246.493,248.329,252.811,255.475,257.311,264.655,268.525,271.953,274.644,278.469,283.32,286.623,288.927,291.618,295.443,297.279,299.664,302.967,304.803,308.61,313.092,317.943,321.246,323.658,328.41,332.235,335.574,339.452,343.961,346.175,350.306,352.142,356.894,360.764,364.571,367.793,371.672,375.596,378.899,381.311,386.161,390.373,392.209,394.9,399.346,405.511,409.381,412.603,417.328,420.631,422.467" svgx:width="0.52,0.37,0.51,0.55,0.51,0.53,0.55,0.42,0.43,0.53,0.23,0.23,1.07,0.43,0.23,0.44,0.82,0.51,0.53,0.55,0.31,0.23,0.51,0.3,0.23,0.82,0.44,0.37,0.31,0.43,0.55,0.37,0.27,0.31,0.43,0.23,0.27,0.37,0.23,0.42,0.51,0.55,0.37,0.27,0.53,0.43,0.37,0.44,0.51,0.25,0.46,0.23,0.53,0.43,0.42,0.37,0.43,0.44,0.37,0.27,0.55,0.47,0.23,0.31,0.51,0.69,0.44,0.37,0.53,0.37,0.23,0.35" style="fill:rgb(0,0,0);font-family:MinionPro-Regular;font-size:9.0px;stroke:none;">pronounced. The amount of martensite is considerably decreasing towards (</text>
   <text y="355.8" x="425.581" svgx:width="0.42" style="fill:rgb(0,0,0);font-family:MinionPro-Bold;font-size:9.0px;stroke:none;">c</text>
   <text y="355.8" x="429.379,432.493,434.329,440.521,442.825,445.624,450.43,452.266,454.569,457.314,460.617,462.453,464.758,468.681,471.939,474.684,476.52,479.31,482.649,486.6,490.407,494.232,497.535,499.371,503.178,505.59,508.812,512.565,514.842,518.712,523.464,525.3,527.712,532.635,534.471" svgx:width="0.35,0.23,0.69,0.27,0.31,0.53,0.23,0.27,0.31,0.37,0.23,0.25,0.44,0.37,0.31,0.23,0.31,0.37,0.44,0.42,0.43,0.37,0.23,0.42,0.27,0.37,0.42,0.25,0.43,0.53,0.23,0.27,0.55,0.23,0.35" style="fill:rgb(0,0,0);font-family:MinionPro-Regular;font-size:9.0px;stroke:none;">) with its last traces circled in (</text>
   <text y="355.8" x="537.585" svgx:width="0.55" style="fill:rgb(0,0,0);font-family:MinionPro-Bold;font-size:9.0px;stroke:none;">d</text>
   <text y="355.8" x="542.508,545.622,547.674" svgx:width="0.35,0.23,0.23" style="fill:rgb(0,0,0);font-family:MinionPro-Regular;font-size:9.0px;stroke:none;">), </text>
   <text y="365.799" x="155.638,159.418,162.163,163.999,168.319,172.639,176.959,181.279" svgx:width="0.44,0.31,0.23,0.48,0.48,0.48,0.48,0.23" style="fill:rgb(0,0,0);font-family:MinionPro-Regular;font-size:9.0px;stroke:none;">at 5000 </text>
   <text y="365.799" x="182.404" svgx:width="0.52" style="fill:rgb(0,0,0);font-family:EuclidSymbol;font-size:9.0px;stroke:none;">μ</text>
   <text y="365.799" x="187.066,194.437,196.273,201.025,204.85,209.466,212.265,217.071,219.123,220.959,223.758,228.528,232.353,234.189,238.356,242.28,245.538,248.283,250.119,257.463,261.242,263.591,268.073,271.466,273.77,276.542,280.673,282.509,286.991,289.655,291.491,294.289,299.06,302.885,304.721,312.092,314.504,318.311,321.533,326.123,329.381,332.171,335.599,340.378,344.248,346.903,351.682,354.904,358.729,360.565,365.218,369.043,371.455,376.305,380.517,382.353,385.152,389.922,393.747,395.583,400.065,403.458,405.87,410.126,412.538,417.434,421.43,423.707,425.543,428.126,431.951,435.344,438.736,441.04,443.83,446.242,450.049,453.253,458.05,461.928,465.799,469.101,471.378,473.682,476.472,478.884,482.691,484.527,487.785,490.575,494.004,498.783,502.653,505.308,510.087,513.309,517.134,518.97,522.273,524.685,528.941,533.864,536.276,541.091,544.916,548.219" svgx:width="0.82,0.23,0.53,0.43,0.52,0.31,0.53,0.23,0.23,0.31,0.53,0.43,0.23,0.46,0.44,0.37,0.31,0.23,0.82,0.44,0.26,0.51,0.37,0.27,0.31,0.46,0.23,0.51,0.3,0.23,0.31,0.53,0.43,0.23,0.82,0.27,0.42,0.37,0.51,0.37,0.31,0.37,0.53,0.42,0.31,0.53,0.37,0.43,0.23,0.51,0.43,0.27,0.55,0.47,0.23,0.31,0.53,0.43,0.23,0.51,0.37,0.27,0.47,0.27,0.55,0.44,0.25,0.23,0.3,0.43,0.37,0.37,0.27,0.31,0.27,0.42,0.36,0.52,0.43,0.44,0.37,0.25,0.27,0.31,0.27,0.42,0.23,0.37,0.31,0.37,0.53,0.42,0.31,0.53,0.37,0.43,0.23,0.37,0.27,0.47,0.55,0.27,0.54,0.43,0.37,0.23" style="fill:rgb(0,0,0);font-family:MinionPro-Regular;font-size:9.0px;stroke:none;">m depth; the vast majority of the microstructure being the original ferritic-pearlitic structure signifies </text>
   <text y="375.798" x="155.638,158.437,163.216,166.996,169.741,171.577,177.562" svgx:width="0.31,0.53,0.44,0.31,0.23,0.69,0.42" style="fill:rgb(0,0,0);font-family:MinionPro-Regular;font-size:9.0px;stroke:none;">that Ac</text>
   <text y="377.603" x="181.372,184.18" svgx:width="0.48,0.51" style="fill:rgb(0,0,0);font-family:MinionPro-Regular;font-size:5.85px;stroke:none;">1b</text>
   <text y="375.803" x="187.151,188.987,195.152,199.076,202.379,204.215,208.832,212.702,215.924,219.713,221.927,226.058,227.894,231.116,234.995,238.946,242.699,247.469,251.339,256.037,258.089,259.925,265.775,268.52,270.356,274.676,278.996,283.316,287.636" svgx:width="0.23,0.69,0.44,0.37,0.23,0.51,0.44,0.37,0.43,0.25,0.46,0.23,0.37,0.43,0.44,0.42,0.53,0.43,0.53,0.23,0.23,0.69,0.31,0.23,0.48,0.48,0.48,0.48,0.23" style="fill:rgb(0,0,0);font-family:MinionPro-Regular;font-size:9.0px;stroke:none;"> was barely reached. At 5200 </text>
   <text y="375.803" x="288.77" svgx:width="0.52" style="fill:rgb(0,0,0);font-family:EuclidSymbol;font-size:9.0px;stroke:none;">μ</text>
   <text y="375.803" x="293.432,300.803,302.855,304.691,307.957,312.727,317.173,323.365,328.288,330.124,332.536,337.459,339.295" svgx:width="0.82,0.23,0.23,0.37,0.53,0.51,0.69,0.55,0.23,0.27,0.55,0.23,0.35" style="fill:rgb(0,0,0);font-family:MinionPro-Regular;font-size:9.0px;stroke:none;">m, shown in (</text>
   <text y="375.803" x="342.409" svgx:width="0.44" style="fill:rgb(0,0,0);font-family:MinionPro-Bold;font-size:9.0px;stroke:none;">e</text>
   <text y="375.803" x="346.342,349.456,351.508,353.344,356.143,360.913,364.738,366.574,373.945,376.357,380.164,383.386,387.976,391.234,394.024,397.453,402.232,406.102,408.757,413.535,416.757,420.582,422.418,426.225,430.707,435.559,438.862,441.246,444.504,447.249,450.552,452.388,456.214,460.966,463.756,466.168,469.389,473.178,475.393,479.524,481.36,485.842,488.506,490.342,495.139,499.018,502.888,506.19,508.467,510.771,513.462,517.287,519.123,522.993,527.88,532.632" svgx:width="0.35,0.23,0.23,0.31,0.53,0.43,0.23,0.82,0.27,0.42,0.37,0.51,0.37,0.31,0.37,0.53,0.42,0.31,0.53,0.37,0.43,0.23,0.42,0.51,0.55,0.37,0.27,0.37,0.31,0.37,0.23,0.43,0.55,0.31,0.27,0.37,0.43,0.25,0.46,0.23,0.51,0.3,0.23,0.52,0.43,0.44,0.37,0.25,0.27,0.31,0.43,0.23,0.44,0.55,0.53,0.23" style="fill:rgb(0,0,0);font-family:MinionPro-Regular;font-size:9.0px;stroke:none;">), the microstructure consists entirely of pearlite and </text>
   <text y="385.802" x="155.633,158.216,162.041,165.434,168.827,171.131,173.821,177.592,179.644,181.48,186.133,189.958,192.37,197.221,201.433,203.269,207.076,211.558,216.409,219.712,222.097,225.355,228.046,231.871,236.623,239.368,241.204,247.396,249.7,252.499,257.305,259.141,261.94,266.71,270.535,272.371,277.15,282.046,285.826,290.578,293.836,296.527,300.352,305.275,307.579,310.369,312.754,316.129,319.998,324.75,326.586,331.203,335.127,338.502,342.327,344.163,351.498,355.323,358.122,362.118,364.341" svgx:width="0.3,0.43,0.37,0.37,0.27,0.31,0.43,0.23,0.23,0.51,0.43,0.27,0.55,0.47,0.23,0.42,0.51,0.55,0.37,0.27,0.37,0.31,0.43,0.55,0.31,0.23,0.69,0.27,0.31,0.53,0.23,0.31,0.53,0.43,0.23,0.53,0.55,0.44,0.53,0.37,0.31,0.43,0.55,0.27,0.31,0.27,0.37,0.43,0.53,0.23,0.51,0.44,0.37,0.43,0.23,0.82,0.43,0.31,0.44,0.25,0.23" style="fill:rgb(0,0,0);font-family:MinionPro-Regular;font-size:9.0px;stroke:none;">ferrite, being consistent with the unaustenitised base metal.</text>
  </g>
  <rect style="fill:pink;opacity:0.2;stroke:blue;stroke-width:0.3;" x="155.638" y="431.648" height="159.36" width="217.2" title="5"/>
  <text y="431.648" class="image" id="image.5.2" width="217" height="159" x="155.638" style="font-size:5.0px;">image.5.2.156_373.432_591</text>
  <path style="fill:none;stroke:rgb(206,221,228);stroke-width:1.0;" d="M159.130 641.910 L552.640 641.910 "/>
  <path style="fill:none;stroke:rgb(206,221,228);stroke-width:1.0;" d="M156.140 641.910 L156.140 641.910 M554.140 641.910 L554.140 641.910 "/>
  <g begin="text">
   <text y="591.913" x="155.638,160.552,163.207,167.662,172.657,176.221,180.154,181.909,186.409" svgx:width="0.55,0.29,0.49,0.56,0.4,0.44,0.22,0.5,0.25" style="fill:rgb(0,0,0);font-family:MinionPro-Bold;font-size:9.0px;stroke:none;">Figure 5.</text>
   <text y="591.913" x="188.695,190.765,193.195,199.873,203.743,206.965,211.717,216.604,220.429,223.687,226.99,228.826,233.578,235.963,239.221,242.011,245.403,247.779,252.252,256.923,259.713,262.125,266.607,271.53,273.366,277.146,279.891,281.727,284.526,289.296,293.121,294.957,299.61,303.489,307.359,310.752,313.164,318.015,322.227,324.063,326.412,330.903,335.682,339.075,343.971,347.967,350.244,352.08,355.887,359.712,364.464,367.254,370.476,374.264,376.541,378.953,383.84,387.665,389.501,392.768,397.538,401.984,408.176,410.588,415.439,419.651,421.487,425.438,427.274,431.927,434.231,438.011,440.702,444.581,448.361,453.14,454.976,459.458,462.122,463.958,468.278,472.598,476.918,478.754,485.648,491.975,496.295,498.131,502.883,507.329,513.52,518.443,520.279,522.97,527.56,529.396,533.347" svgx:width="0.23,0.55,0.77,0.44,0.37,0.53,0.55,0.43,0.37,0.37,0.23,0.53,0.27,0.37,0.31,0.37,0.27,0.51,0.53,0.31,0.27,0.51,0.55,0.23,0.44,0.31,0.23,0.31,0.53,0.43,0.23,0.51,0.43,0.44,0.37,0.27,0.55,0.47,0.23,0.26,0.51,0.53,0.37,0.55,0.44,0.25,0.23,0.42,0.43,0.55,0.31,0.37,0.43,0.25,0.27,0.55,0.43,0.23,0.37,0.53,0.51,0.69,0.27,0.55,0.47,0.23,0.44,0.23,0.52,0.25,0.44,0.31,0.43,0.44,0.53,0.23,0.51,0.3,0.23,0.48,0.48,0.48,0.23,0.77,0.7,0.48,0.23,0.53,0.51,0.69,0.55,0.23,0.31,0.51,0.23,0.44,0.23" style="fill:rgb(0,0,0);font-family:MinionPro-Regular;font-size:9.0px;stroke:none;"> Hardness distribution at the bearing journal centreline showing a plateau of 650 HV1 down to a </text>
   <text y="601.912" x="155.638,160.39,164.215,168.832,171.631,176.437,178.273,182.755,185.419,187.255,191.575,193.411,200.782,208.153,209.989,212.572,217.099,219.421,221.698,226.144,232.237,236.106,240.858,242.694,247.122,251.253,253.089,256.959,261.882,263.718,267.498,272.115,276.723,279.945,284.391,288.639,291.051,298.395,302.175,304.866,308.654,310.869,315.0,316.836,319.113,321.525,326.412,330.291,334.161,337.5,339.336,344.088,347.958,351.71,353.987,356.399,361.286,365.111,366.947,369.638,374.228,376.064,380.384,384.704,389.024,390.86,397.754,404.081,408.401,410.237,414.017,416.762,418.598,422.918,424.97,429.29,431.126,438.497,445.868,447.92,449.756,453.626,458.513,463.265,465.101,469.052,470.888,474.146,476.837,480.707,484.532,489.248,491.084,495.836,499.058,503.549,508.265,510.101,512.792,517.382,519.218,523.169,525.005,528.263,531.062,534.941,539.45,541.727,545.552" svgx:width="0.53,0.43,0.52,0.31,0.53,0.23,0.51,0.3,0.23,0.48,0.23,0.82,0.82,0.23,0.3,0.51,0.25,0.25,0.51,0.69,0.43,0.53,0.23,0.51,0.46,0.23,0.44,0.55,0.23,0.44,0.52,0.52,0.37,0.51,0.47,0.27,0.82,0.44,0.31,0.43,0.25,0.46,0.23,0.25,0.27,0.55,0.43,0.44,0.37,0.23,0.53,0.43,0.42,0.25,0.27,0.55,0.43,0.23,0.31,0.51,0.23,0.48,0.48,0.48,0.23,0.77,0.7,0.48,0.23,0.44,0.31,0.23,0.48,0.23,0.48,0.23,0.82,0.82,0.23,0.23,0.44,0.55,0.53,0.23,0.44,0.23,0.37,0.31,0.43,0.43,0.52,0.23,0.53,0.37,0.51,0.52,0.23,0.31,0.51,0.23,0.44,0.23,0.37,0.31,0.44,0.51,0.25,0.43,0.23" style="fill:rgb(0,0,0);font-family:MinionPro-Regular;font-size:9.0px;stroke:none;">depth of 2 mm followed by an approximately linear decline to 520 HV1 at 4.2 mm, and a steep drop to a stable </text>
   <text y="611.911" x="155.638,160.417,164.287,167.509,172.261,177.148,180.973,184.231,187.534,189.37,193.852,196.516,198.352,202.672,206.992,211.312,213.148,220.042,226.369,230.689,232.525,235.279,238.501,242.983,250.354,252.19,256.51,258.346,265.717,273.088,274.924,279.676,284.122,290.314,295.03,301.195,305.065,308.287,312.985,315.037,316.873,319.285,324.172,328.924,331.336,335.169,338.949,341.739,344.151,349.002,353.214,355.05,357.849,362.619,366.444,368.28,372.762,376.155,378.567,382.824,385.236,390.132,394.128,396.405,398.241,405.612,408.024,411.831,415.053,419.643,422.901,425.691,429.12,433.899,437.768,440.423,445.202,448.424,452.249,454.085,458.567,461.231,463.067,465.866,470.636,474.461,476.297,480.914,484.838,488.213,492.038,493.874,501.218,504.998,507.689,511.514,514.906,517.345,521.341,523.564,525.616,527.452,537.055,540.88" svgx:width="0.53,0.44,0.37,0.53,0.55,0.43,0.37,0.37,0.23,0.51,0.3,0.23,0.48,0.48,0.48,0.23,0.77,0.7,0.48,0.23,0.3,0.37,0.51,0.82,0.23,0.48,0.23,0.82,0.82,0.23,0.53,0.51,0.69,0.55,0.69,0.44,0.37,0.53,0.23,0.23,0.27,0.55,0.53,0.27,0.42,0.44,0.31,0.27,0.55,0.47,0.23,0.31,0.53,0.43,0.23,0.51,0.37,0.27,0.47,0.27,0.55,0.44,0.25,0.23,0.82,0.27,0.42,0.37,0.51,0.37,0.31,0.37,0.53,0.42,0.31,0.53,0.37,0.43,0.23,0.51,0.3,0.23,0.31,0.53,0.43,0.23,0.51,0.44,0.37,0.43,0.23,0.82,0.44,0.31,0.43,0.37,0.27,0.44,0.25,0.23,0.23,1.07,0.43,0.23" style="fill:rgb(0,0,0);font-family:MinionPro-Regular;font-size:9.0px;stroke:none;">hardness of 280 HV1 from 5 mm downward, indicating the original microstructure of the base material. The </text>
   <text y="621.91" x="155.638,159.589,163.396,167.203,171.685,178.885,183.645,187.515,192.232,196.389,198.801,203.652,207.864,209.7,214.353,219.132,223.056,226.431,230.256,232.092,234.845,238.184,242.135,246.005,248.795,251.207,255.689,260.54,263.843,265.679,269.549,272.771,276.596,278.432,281.698,286.468,290.914,297.106,302.029,303.865,308.644,313.531,318.283,322.108,325.501,330.388,334.267,338.046,340.845,345.651,347.487,350.286,355.056,358.881,360.717,365.496,369.366,372.588,377.34,382.227,386.052,389.31,392.613,394.665,396.501,402.692,404.997,407.795,412.601,414.437,417.236,422.006,425.831,427.667,435.038,437.45,441.257,444.479,449.069,452.327,455.117,458.546,463.325,467.195,469.85,474.629,477.851,481.676,483.512,488.165,492.062,496.121,500.603,505.49,510.242,512.078,516.398,518.45,522.77,524.606,531.977,539.348" svgx:width="0.44,0.42,0.42,0.51,0.82,0.52,0.44,0.55,0.46,0.27,0.55,0.47,0.23,0.52,0.53,0.44,0.37,0.43,0.23,0.3,0.37,0.44,0.42,0.31,0.27,0.51,0.55,0.37,0.23,0.44,0.37,0.43,0.23,0.37,0.53,0.51,0.69,0.55,0.23,0.53,0.55,0.53,0.43,0.37,0.55,0.43,0.44,0.31,0.53,0.23,0.31,0.53,0.43,0.23,0.53,0.44,0.37,0.53,0.55,0.43,0.37,0.37,0.23,0.23,0.69,0.27,0.31,0.53,0.23,0.31,0.53,0.43,0.23,0.82,0.27,0.42,0.37,0.51,0.37,0.31,0.37,0.53,0.42,0.31,0.53,0.37,0.43,0.23,0.51,0.43,0.46,0.51,0.55,0.53,0.23,0.48,0.23,0.48,0.23,0.82,0.82,0.23" style="fill:rgb(0,0,0);font-family:MinionPro-Regular;font-size:9.0px;stroke:none;">accompanying phase fractions are shown underneath the hardness, with the microstructure beyond 5.3 mm </text>
   <text y="631.909" x="155.638,159.562,162.82,166.078,170.857,178.192,182.062,186.814,188.65,191.341,195.931,197.767,202.42,206.245,208.081,212.563,215.227,217.063,220.87,225.352,230.203,233.461,236.26,240.13,244.882,247.627,249.463,253.27,257.752,264.952,269.749,274.339,277.642,279.946,282.735,285.147,289.629,294.552" svgx:width="0.44,0.37,0.37,0.53,0.82,0.43,0.53,0.23,0.31,0.51,0.23,0.51,0.43,0.23,0.51,0.3,0.23,0.42,0.51,0.55,0.37,0.31,0.44,0.55,0.31,0.23,0.42,0.51,0.82,0.52,0.51,0.37,0.27,0.31,0.27,0.51,0.55,0.23" style="fill:rgb(0,0,0);font-family:MinionPro-Regular;font-size:9.0px;stroke:none;">assumed to be of constant composition.</text>
  </g>
 </g>
</svg>
