<?xml version="1.0" encoding="UTF-8"?>
<svg height="740.545" width="2651.732" xmlns="http://www.w3.org/2000/svg">
 <g id="page" xmlns:svgx="http://www.xml-cml.org/schema/svgx">
  <g begin="text">
   <text y="65.083" x="141.732,147.71,150.699,156.676,159.666,164.636,171.235,176.459,182.437,187.661,192.886,198.863,204.841,208.69,212.032,218.009,224.587,228.586,234.564,241.163,247.741,251.774,256.999,262.223,268.2,273.425,280.024,283.252,289.851,295.831,299.85,304.453,311.052,315.655,320.879,326.104,332.703,336.552,339.78,346.38,349.607,352.835,356.063,359.913" svgx:width="0.5,0.25,0.5,0.25,0.55,0.55,0.44,0.5,0.44,0.44,0.5,0.5,0.32,0.27,0.5,0.55,0.55,0.5,0.55,0.55,0.55,0.44,0.44,0.5,0.44,0.55,0.27,0.55,0.5,0.55,0.38,0.55,0.38,0.44,0.44,0.55,0.32,0.27,0.55,0.27,0.27,0.27,0.32,0.5" style="fill:rgb(0,0,0);font-family:AdvOTe3b1fbf3.B;font-size:11.96px;stroke:none;">3.3. Segregation and cracking susceptibility</text>
   <text y="87.534" x="141.732,144.94,149.92,153.127,158.109,162.462,167.444,171.797,175.005,179.359,182.153,184.643,187.823,191.659,196.012,200.994,205.347,208.555,212.9374,216.169,220.004,224.358,229.339,232.547,236.901,241.882,246.236,248.926,251.616,256.704,261.684,264.867,267.557,272.53700000000003,275.752,279.588,282.278,286.631,290.985,293.67420000000004,296.899,304.052,309.033,314.014,316.704,321.684,324.905,327.594,332.576,335.784,340.764,344.01,346.7,351.681,354.371,359.351,362.548,367.529,371.883,375.091,380.071,383.297,388.279,393.26,397.614,401.449,405.83140000000003,409.036,412.871,415.561,418.769,423.832,428.186,430.876,435.857,439.065,443.419,445.909,449.173,456.326,461.307,463.997,468.351" svgx:width="0.32,0.5,0.55,0.5,0.44,0.5,0.44,0.32,0.44,0.27,0.25,0.55,0.38,0.44,0.5,0.44,0.32,0.44,0.55,0.38,0.44,0.5,0.32,0.44,0.5,0.44,0.27,0.27,0.5,0.5,0.55,0.27,0.5,0.55,0.38,0.27,0.44,0.44,0.27,0.55,0.72,0.5,0.5,0.27,0.5,0.55,0.27,0.5,0.32,0.5,0.55,0.27,0.5,0.27,0.5,0.55,0.5,0.44,0.32,0.5,0.55,0.5,0.5,0.44,0.38,0.44,0.55,0.38,0.27,0.32,0.5,0.44,0.27,0.5,0.32,0.44,0.25,0.55,0.72,0.5,0.27,0.44,0.5" style="fill:rgb(0,0,0);font-family:AdvOTb0c9bf5d;font-size:9.96px;stroke:none;">In general, severe segregation in steel would turn into hard phase structure, which</text>
   <text y="102.444" x="141.732,148.885,153.867,158.848,161.538,166.518,170.248,175.229,179.583,184.564,188.918,192.126,196.48,199.17,203.55239999999998,207.268,211.622,214.83,219.183,223.537,228.518,231.208,236.19,241.17,244.912,249.893,254.874,258.082,260.772,265.754,270.73400000000004,274.448,277.138,282.119,286.50140000000005,290.152,293.36,298.341,301.549,306.53,309.22,314.202,319.182,322.92,327.901,331.109,336.09,340.444,344.798,348.633,352.469,354.959,358.693,364.71,369.691,374.0734,377.684,382.666,387.019,390.227,395.208,400.19,404.543,408.468,412.25280000000004,415.951,420.932,424.11920000000003,427.856,431.692,436.045,441.026,444.234,448.588,453.569,457.923,460.613,463.303,468.391" svgx:width="0.72,0.5,0.5,0.27,0.5,0.55,0.5,0.44,0.5,0.44,0.32,0.44,0.27,0.44,0.55,0.44,0.32,0.44,0.44,0.5,0.27,0.5,0.5,0.55,0.5,0.5,0.32,0.27,0.5,0.5,0.55,0.27,0.5,0.44,0.55,0.32,0.5,0.32,0.5,0.27,0.5,0.5,0.55,0.5,0.32,0.5,0.44,0.44,0.38,0.38,0.25,0.55,0.6,0.5,0.44,0.55,0.5,0.44,0.32,0.5,0.5,0.44,0.38,0.38,0.55,0.5,0.32,0.55,0.38,0.44,0.5,0.32,0.44,0.5,0.44,0.27,0.27,0.5,0.5" style="fill:rgb(0,0,0);font-family:AdvOTb0c9bf5d;font-size:9.96px;stroke:none;">would generate cracking during the forging process. The hardness of segregation</text>
   <text y="117.411" x="141.732,146.086,151.067,156.047,159.25,162.458,166.812,171.793,176.775,179.546,183.9,187.0872,190.261,194.097,196.786,199.994,205.057,209.411,212.101,217.082,220.29,224.67239999999998,227.848,230.538,235.518,238.733,243.714,246.404,251.385,256.367,259.575,263.928,266.618,269.308,274.392,279.372,282.555,290.227,295.208,300.189,302.879,307.85900000000004,311.071,314.907,317.597,321.951,326.304,328.9932,332.218,339.371,343.725,347.50980000000004,350.756,354.592,359.573,364.555,371.789,376.769,379.953,382.643" svgx:width="0.44,0.5,0.5,0.55,0.32,0.44,0.5,0.5,0.27,0.44,0.32,0.55,0.38,0.27,0.32,0.5,0.44,0.27,0.5,0.32,0.44,0.55,0.27,0.5,0.55,0.5,0.27,0.5,0.5,0.32,0.44,0.27,0.27,0.5,0.5,0.55,0.77,0.5,0.5,0.27,0.5,0.55,0.38,0.27,0.44,0.44,0.27,0.55,0.72,0.44,0.38,0.55,0.38,0.5,0.5,0.72,0.5,0.55,0.27,0.5" style="fill:rgb(0,0,0);font-family:AdvOTb0c9bf5d;font-size:9.96px;stroke:none;">and regular structure in high-alloy mould steel was shown in</text>
   <text y="117.411" x="390.783,396.283,398.973,403.954,406.444,409.661" svgx:width="0.55,0.27,0.5,0.25,0.55,0.5" style="fill:rgb(0,121,173);font-family:AdvOTb0c9bf5d;font-size:9.96px;stroke:none;">Fig. 6</text>
   <text y="117.411" x="414.651,417.141,420.32,425.82,430.801,434.637,437.327,440.016,442.706,447.688,452.668,455.923" svgx:width="0.25,0.55,0.55,0.5,0.38,0.27,0.27,0.27,0.5,0.5,0.55,0.5" style="fill:rgb(0,0,0);font-family:AdvOTb0c9bf5d;font-size:9.96px;stroke:none;">. Position 1</text>
   <text y="117.411" x="460.912" svgx:width="0.75" style="fill:rgb(0,0,0);font-family:AdvPS44A44B;font-size:9.96px;stroke:none;">e</text>
   <text y="117.411" x="468.396" svgx:width="0.5" style="fill:rgb(0,0,0);font-family:AdvOTb0c9bf5d;font-size:9.96px;stroke:none;">3</text>
   <text y="132.378" x="141.733,146.087,149.295,153.67739999999998,157.153,159.843,162.533,167.514,171.868,175.65279999999998,179.207,183.56,188.541,193.523,196.213,200.566,203.357,208.338,211.028,216.009,220.98899999999998,224.447,227.137,232.118,235.326,239.679,244.0614,247.577,252.558,257.539,260.229,265.211,267.986,271.7708,275.243,278.451,281.659,286.64,294.3092,297.863,302.844,307.826,312.20840000000004,315.664,320.645,325.627,329.98,333.188,335.96,340.314,343.50120000000004,346.959,349.649,354.629,358.127,360.817,365.798,370.1804,373.66,378.014,382.368,387.349,390.039,394.393,397.5802,401.156,406.138,411.118,414.593,417.283,422.264,426.6464,430.07,433.905,436.595,440.949,445.93,448.42,451.953,457.452,460.66,465.641" svgx:width="0.44,0.32,0.44,0.55,0.27,0.27,0.5,0.44,0.38,0.55,0.44,0.5,0.5,0.27,0.44,0.27,0.5,0.27,0.5,0.5,0.55,0.27,0.5,0.32,0.44,0.44,0.55,0.5,0.5,0.27,0.5,0.27,0.38,0.55,0.32,0.32,0.5,0.77,0.55,0.5,0.5,0.44,0.55,0.5,0.5,0.44,0.32,0.27,0.44,0.32,0.55,0.27,0.5,0.55,0.27,0.5,0.44,0.55,0.44,0.44,0.5,0.27,0.44,0.32,0.55,0.5,0.5,0.55,0.27,0.5,0.44,0.55,0.38,0.27,0.44,0.5,0.25,0.55,0.55,0.32,0.5,0.77" style="fill:rgb(0,0,0);font-family:AdvOTb0c9bf5d;font-size:9.96px;stroke:none;">are lines containing three points from one quarter to the center on the slab. From</text>
   <text y="147.288" x="141.733,146.715,151.696,154.8832,159.478,167.149,171.502,175.856,179.692,184.673,187.881,192.235,200.012,204.366,209.347,212.037,214.52700000000002,219.118,221.808,226.789,231.17139999999998,235.672,239.507,243.861,248.842,252.05,256.404,261.467,265.82,268.51,271.2,276.181,281.161,285.731,289.566,292.256,295.464,300.527,304.881,307.571,312.552,315.76,320.1424,324.678,331.832,336.185,339.9698,344.578,349.559,353.913,357.121,362.101,366.688,371.669,376.65,381.004,384.84,389.2224,393.787,397.623,400.312,403.52,408.502,412.855,415.545,420.527,423.734,428.1164,432.735,435.943,440.924,445.905" svgx:width="0.5,0.5,0.32,0.55,0.77,0.44,0.44,0.38,0.5,0.32,0.44,0.77,0.44,0.5,0.27,0.25,0.55,0.27,0.5,0.44,0.55,0.38,0.44,0.5,0.32,0.44,0.5,0.44,0.27,0.27,0.5,0.5,0.55,0.38,0.27,0.32,0.5,0.44,0.27,0.5,0.32,0.44,0.55,0.72,0.44,0.38,0.55,0.5,0.44,0.32,0.5,0.55,0.5,0.5,0.44,0.38,0.44,0.55,0.38,0.27,0.32,0.5,0.44,0.27,0.5,0.32,0.44,0.55,0.32,0.5,0.5,0.5" style="fill:rgb(0,0,0);font-family:AdvOTb0c9bf5d;font-size:9.96px;stroke:none;">our measurement, the segregation structure was hard phase structure (370</text>
   <text y="147.288" x="450.935" svgx:width="0.75" style="fill:rgb(0,0,0);font-family:AdvPS44A44B;font-size:9.96px;stroke:none;">e</text>
   <text y="147.288" x="458.419,463.401,468.382" svgx:width="0.5,0.5,0.5" style="fill:rgb(0,0,0);font-family:AdvOTb0c9bf5d;font-size:9.96px;stroke:none;">380</text>
   <text y="162.254" x="141.734,148.887,156.041,159.248,161.738,163.844,168.198,173.179,178.159,180.229,182.919,187.9,192.2824,194.345,197.553,201.906,206.888,211.869,214.641,218.994,222.1812,224.278,229.26,234.241,238.595,242.3798,244.517,251.67,256.024,259.314,263.69640000000004,265.72,269.555,274.537,277.745,280.43420000000003,282.558,287.539,292.52,296.874,300.709,305.0914,307.162,310.998,313.688,316.896,321.877,326.231,328.921,333.902,337.11,341.49240000000003,343.615,346.823,351.805,356.786" svgx:width="0.72,0.72,0.32,0.25,0.55,0.44,0.5,0.5,0.55,0.27,0.5,0.44,0.55,0.32,0.44,0.5,0.5,0.27,0.44,0.32,0.55,0.5,0.5,0.44,0.38,0.55,0.72,0.44,0.32,0.44,0.55,0.38,0.5,0.32,0.27,0.55,0.5,0.5,0.44,0.38,0.44,0.55,0.38,0.27,0.32,0.5,0.44,0.27,0.5,0.32,0.44,0.55,0.32,0.5,0.5,0.5" style="fill:rgb(0,0,0);font-family:AdvOTb0c9bf5d;font-size:9.96px;stroke:none;">HV), and the regular ones were soft phase structure (170</text>
   <text y="162.254" x="361.815" svgx:width="0.75" style="fill:rgb(0,0,0);font-family:AdvPS44A44B;font-size:9.96px;stroke:none;">e</text>
   <text y="162.254" x="369.299,374.28,379.262,384.242,386.307,393.46,400.707,403.915,406.40500000000003,408.474,414.491,419.473,423.826,427.662,432.0444,434.099,436.789,443.942,448.922,451.05,454.886,457.576,460.783,465.765,470.118" svgx:width="0.5,0.5,0.5,0.55,0.72,0.72,0.32,0.25,0.55,0.6,0.5,0.44,0.38,0.44,0.55,0.27,0.72,0.5,0.55,0.38,0.27,0.32,0.5,0.44,0.32" style="fill:rgb(0,0,0);font-family:AdvOTb0c9bf5d;font-size:9.96px;stroke:none;">180 HV). These two struc-</text>
   <text y="177.164" x="141.734,144.424,149.405,152.613,156.967,160.7518,163.617,168.598,172.952,177.932,180.738,185.1204,187.881,191.717,194.406,199.388,204.369,207.101,212.6,216.954,221.308,226.376,229.0652,231.819,236.8,239.529,245.539,249.892,253.1,257.454,262.435,266.789,271.1714,273.998,276.688,281.668,284.43,287.12,292.101,296.4834,299.283,304.264,308.618,311.826,316.807,321.788,326.142,330.066,333.8508,336.643,343.796,348.777,351.553,355.906,360.886,363.628,370.781,375.135,378.9198,381.827,384.517,389.498,393.8804,396.623,399.831,404.185,408.539,412.374,417.356,422.336,425.196,428.404,433.385,436.5722,439.369,443.723,446.931,451.284,455.638,460.619,463.407,468.388" svgx:width="0.27,0.5,0.32,0.44,0.38,0.55,0.5,0.44,0.5,0.55,0.44,0.55,0.38,0.27,0.5,0.5,0.27,0.55,0.44,0.44,0.5,0.27,0.55,0.5,0.27,0.6,0.44,0.32,0.44,0.5,0.44,0.44,0.55,0.27,0.5,0.55,0.27,0.5,0.44,0.55,0.5,0.44,0.32,0.5,0.5,0.44,0.38,0.38,0.55,0.72,0.5,0.27,0.44,0.5,0.55,0.72,0.44,0.38,0.55,0.27,0.5,0.44,0.55,0.32,0.44,0.44,0.38,0.5,0.5,0.55,0.32,0.5,0.32,0.55,0.44,0.32,0.44,0.44,0.5,0.27,0.5,0.5" style="fill:rgb(0,0,0);font-family:AdvOTb0c9bf5d;font-size:9.96px;stroke:none;">tures had a signiﬁcant diﬀerence in the hardness which was the reason for cracking</text>
   <text y="192.131" x="141.734,146.716,151.697,154.905,157.595,162.654,167.634,170.591,173.281,178.262,182.6444,185.671,188.879,193.861,197.068,202.05,204.74,209.721,214.701,217.759,222.74,225.948,230.929,235.283,239.637,243.554,247.39" svgx:width="0.5,0.5,0.32,0.27,0.5,0.5,0.55,0.27,0.5,0.44,0.55,0.32,0.5,0.32,0.5,0.27,0.5,0.5,0.55,0.5,0.32,0.5,0.44,0.44,0.38,0.38,0.25" style="fill:rgb(0,0,0);font-family:AdvOTb0c9bf5d;font-size:9.96px;stroke:none;">during the forging process.</text>
   <text y="214.525" x="141.734,148.369,152.723,157.077,161.43,166.508,170.344,174.72639999999998,177.166,179.856,184.837,189.21939999999998,191.736,194.426,199.408,202.616,206.451,209.141,211.831,216.81099999999998,219.346,223.181,227.535,232.516,235.724,240.078,245.141,249.495,252.185,254.874,259.937,264.91700000000003,267.365,272.346,276.699,279.389,283.743,288.097,290.892,293.582,298.563,303.543,306.029,310.383,315.364,320.429,323.119,328.09900000000005,330.577,335.559,340.54,343.23,348.21000000000004,350.759,355.741,358.949,363.93,368.911,371.601,376.583,380.96540000000005,383.471,386.161,391.142,395.5244,398.041,403.022,408.004,412.357,415.565,419.919,422.609,425.2982,427.861,431.697,436.05,441.032,444.24,448.593,453.656,458.01,460.7,463.39,468.371" svgx:width="0.67,0.44,0.44,0.44,0.5,0.38,0.44,0.55,0.27,0.5,0.44,0.55,0.27,0.5,0.32,0.38,0.27,0.27,0.5,0.55,0.38,0.44,0.5,0.32,0.44,0.5,0.44,0.27,0.27,0.5,0.5,0.55,0.5,0.44,0.27,0.44,0.44,0.27,0.27,0.5,0.5,0.55,0.44,0.5,0.5,0.27,0.5,0.55,0.5,0.5,0.27,0.5,0.55,0.5,0.32,0.5,0.5,0.27,0.5,0.44,0.55,0.27,0.5,0.44,0.55,0.5,0.5,0.44,0.32,0.44,0.27,0.27,0.55,0.38,0.44,0.5,0.32,0.44,0.5,0.44,0.27,0.27,0.5,0.5" style="fill:rgb(0,0,0);font-family:AdvOTb0c9bf5d;font-size:9.96px;stroke:none;">Because the in-situ segregation detection could only provide the overall segregation</text>
   <text y="229.492" x="141.734,144.424,152.095,156.449,161.43,165.8124,168.72,171.41,176.39,179.321,183.7034,186.521,189.211,193.565,196.773,201.754,206.13639999999998,209.084,213.438,216.646,221.0,225.353,227.84300000000002,230.798,233.488,238.469,242.85139999999998,245.708,249.543,257.215,261.568,264.258,266.9472,269.915,274.269,277.477,281.83,286.2124,289.077,292.913,297.266,302.248,305.456,309.809,314.872,319.226,321.916,324.606,329.669,334.649,337.549,342.53,346.884,349.574,353.928,358.281,360.971,363.661,368.642,373.622,376.611,383.764,388.117,391.90180000000004,394.865,398.073,402.427,406.78,409.47,412.16,416.514,420.867,425.84700000000004,428.824,433.805,438.785,441.693,446.047,448.737,453.09,457.444,460.134,463.342,468.323" svgx:width="0.27,0.77,0.44,0.5,0.44,0.55,0.27,0.5,0.55,0.44,0.55,0.27,0.44,0.32,0.5,0.44,0.55,0.44,0.32,0.44,0.44,0.25,0.55,0.27,0.5,0.44,0.55,0.38,0.77,0.44,0.27,0.27,0.55,0.44,0.32,0.44,0.44,0.55,0.38,0.44,0.5,0.32,0.44,0.5,0.44,0.27,0.27,0.5,0.5,0.55,0.5,0.44,0.27,0.44,0.44,0.27,0.27,0.5,0.5,0.55,0.72,0.44,0.38,0.55,0.32,0.44,0.44,0.27,0.27,0.44,0.44,0.5,0.55,0.5,0.5,0.55,0.44,0.27,0.44,0.44,0.27,0.32,0.5,0.5" style="fill:rgb(0,0,0);font-family:AdvOTb0c9bf5d;font-size:9.96px;stroke:none;">image in a large area, the small area segregation detection was realized by electron</text>
   <text y="244.459" x="141.734,146.716,149.924,154.905,159.886,164.26839999999999,167.869,175.54,178.23,182.584,185.792,190.773,195.127,200.108,204.462,207.27,212.251,216.087,218.777,222.56179999999998,226.205,230.559,234.3438,237.94,241.776,246.757,251.738,258.973,263.95300000000003,267.477,270.167" svgx:width="0.5,0.32,0.5,0.5,0.44,0.55,0.77,0.27,0.44,0.32,0.5,0.44,0.5,0.44,0.27,0.5,0.38,0.27,0.38,0.55,0.44,0.38,0.55,0.38,0.5,0.5,0.72,0.5,0.55,0.27,0.5" style="fill:rgb(0,0,0);font-family:AdvOTb0c9bf5d;font-size:9.96px;stroke:none;">probe microanalysis as shown in</text>
   <text y="244.459" x="278.761,284.26,286.95,291.931,294.421,297.98" svgx:width="0.55,0.27,0.5,0.25,0.55,0.5" style="fill:rgb(0,121,173);font-family:AdvOTb0c9bf5d;font-size:9.96px;stroke:none;">Fig. 7</text>
   <text y="244.459" x="302.969,305.459,309.035,312.243,314.9322,318.503,322.856,327.838,332.819,335.509,340.48900000000003,344.071,349.052,353.43440000000004,356.996,361.35,366.331,371.312,375.666,378.356,383.415,388.396,392.75,397.73,401.33,404.02,409.001,413.355,416.04420000000005,419.641,423.995,428.348,431.556,436.538,441.519,446.5,448.99,452.579,456.933,461.914,465.122,470.104" svgx:width="0.25,0.55,0.32,0.27,0.55,0.44,0.5,0.5,0.27,0.5,0.55,0.5,0.44,0.55,0.44,0.5,0.5,0.44,0.27,0.5,0.5,0.44,0.5,0.55,0.27,0.5,0.44,0.27,0.55,0.44,0.44,0.32,0.5,0.5,0.5,0.25,0.55,0.44,0.5,0.32,0.5,0.32" style="fill:rgb(0,0,0);font-family:AdvOTb0c9bf5d;font-size:9.96px;stroke:none;">. It could be concluded that carbon, chro-</text>
   <text y="259.369" x="141.735,149.406,152.096,157.078,164.749,167.239,169.571,177.242,182.223,184.913,189.894,194.876,199.857,204.211,209.192,214.173,221.954,224.44400000000002,226.716,231.697,236.679,241.66,245.496,250.477,255.458,260.504,263.712,268.694,272.529,275.019,277.285,281.639,286.62,291.6,293.896,297.732,302.713,305.403,308.692,313.674,316.8612,319.124,323.478,328.459,333.44,337.794,342.148,347.129,349.908,353.116,357.469,360.159,364.513,369.493,371.791,376.144,378.834,383.815,388.797,393.77700000000004,396.111,398.801,403.782,408.1644,410.398,414.751,417.959,422.313,426.667,431.648,434.435,439.417,444.398,446.88800000000003,449.175,456.328,461.309,463.999,468.353" svgx:width="0.77,0.27,0.5,0.77,0.25,0.55,0.77,0.5,0.27,0.5,0.5,0.5,0.44,0.5,0.5,0.77,0.25,0.55,0.5,0.5,0.5,0.38,0.5,0.5,0.5,0.32,0.5,0.38,0.25,0.55,0.44,0.5,0.5,0.55,0.38,0.5,0.27,0.32,0.5,0.32,0.55,0.44,0.5,0.5,0.44,0.44,0.5,0.27,0.32,0.44,0.27,0.44,0.5,0.55,0.44,0.27,0.5,0.5,0.5,0.55,0.27,0.5,0.44,0.55,0.44,0.32,0.44,0.44,0.5,0.27,0.5,0.5,0.25,0.55,0.72,0.5,0.27,0.44,0.5" style="fill:rgb(0,0,0);font-family:AdvOTb0c9bf5d;font-size:9.96px;stroke:none;">mium, molybdenum, phosphorus, and sulfur concentrated along the cracking, which</text>
   <text y="274.336" x="141.735,144.943,149.297,153.132,158.114,160.804,163.494,167.847,172.827,175.921,178.611,183.59099999999998,186.579,189.269,194.25,198.6324,201.659,206.641,210.994,214.202,219.182,222.239,227.22,232.202,236.555,240.391,244.77339999999998,247.75,251.586,254.276,257.484,262.547,266.9,269.59,274.572,277.779,282.1614,285.167,290.148,295.129,299.51140000000004,302.515,305.204,310.184,313.173,315.862,320.844,325.2264,328.253,332.089,336.442,341.424,344.632,348.985,354.048,358.402,361.092,363.782,368.763,373.744" svgx:width="0.32,0.44,0.38,0.5,0.27,0.27,0.44,0.5,0.55,0.27,0.5,0.55,0.27,0.5,0.44,0.55,0.5,0.44,0.32,0.5,0.55,0.5,0.5,0.44,0.38,0.44,0.55,0.38,0.27,0.32,0.5,0.44,0.27,0.5,0.32,0.44,0.55,0.5,0.5,0.44,0.55,0.27,0.5,0.55,0.27,0.5,0.44,0.55,0.38,0.44,0.5,0.32,0.44,0.5,0.44,0.27,0.27,0.5,0.5,0.25" style="fill:rgb(0,0,0);font-family:AdvOTb0c9bf5d;font-size:9.96px;stroke:none;">resulted in the hard phase structure due to the segregation.</text>
   <text y="296.729" x="141.735,147.235,149.925,154.906,157.39600000000002,160.217" svgx:width="0.55,0.27,0.5,0.25,0.55,0.5" style="fill:rgb(0,121,173);font-family:AdvOTb0c9bf5d;font-size:9.96px;stroke:none;">Fig. 8</text>
   <text y="296.729" x="167.984,172.337,177.319" svgx:width="0.44,0.5,0.5" style="fill:rgb(0,0,0);font-family:AdvOTb0c9bf5d;font-size:9.96px;stroke:none;">and</text>
   <text y="296.729" x="185.104,191.122,195.476,200.457,203.147,207.52939999999998,210.333" svgx:width="0.6,0.44,0.5,0.27,0.44,0.55,0.5" style="fill:rgb(0,121,173);font-family:AdvOTb0c9bf5d;font-size:9.96px;stroke:none;">Table 2</text>
   <text y="296.729" x="218.043,221.878,226.86,231.841,239.0122,241.853,244.543,249.525,253.9074,256.65,262.667,268.167,277.059,284.2302,286.981,289.671,292.361,297.342,301.7244,304.499,308.335,312.689,317.042,322.022,324.852,329.206,334.187,339.16700000000003,341.973,346.954,351.935,356.289,361.27,363.96,366.747,369.436,373.79,376.48,379.17,384.151,388.53340000000003,391.351,395.705,400.686,405.04,407.73,412.711,416.547,419.237,423.02180000000004,425.933,430.915,434.10220000000004,436.875,441.229,444.437,448.791,453.144,458.126,460.913,465.894,470.876" svgx:width="0.38,0.5,0.5,0.72,0.55,0.27,0.5,0.44,0.55,0.6,0.55,0.88,0.72,0.55,0.27,0.27,0.5,0.44,0.55,0.38,0.44,0.44,0.5,0.55,0.44,0.5,0.5,0.55,0.5,0.5,0.44,0.5,0.27,0.27,0.27,0.44,0.27,0.27,0.5,0.44,0.55,0.44,0.5,0.44,0.27,0.5,0.38,0.27,0.38,0.55,0.5,0.32,0.55,0.44,0.32,0.44,0.44,0.5,0.27,0.5,0.5,0.25" style="fill:rgb(0,0,0);font-family:AdvOTb0c9bf5d;font-size:9.96px;stroke:none;">show the EPMA line scan and quantitative analysis of cracking.</text>
   <text y="311.696" x="141.734,147.752,152.733,157.1154,160.159,167.83,170.52,175.501,178.191,185.954,190.936,198.6052,201.658,206.64,210.993,213.683,218.664,223.018,226.8028,229.948,234.302,237.51,241.89239999999998,244.972,249.325,254.307,259.288,261.978,266.959,271.391,274.08,278.434,283.415,286.105,288.795,293.77500000000003,296.845,300.681,305.034,312.705,317.0874,320.202,324.556,328.3408,331.427,334.117,339.098,343.48040000000003,346.508,351.554,355.907,359.743,364.1254,367.144,374.815,379.169,381.859,386.213,389.421,392.11,396.464,399.289,401.779,404.788,411.941,416.922,419.698,424.052,429.03200000000004,432.057,434.746,437.436,441.272,443.962,448.316,453.296,456.434,461.415,465.769,468.977" svgx:width="0.6,0.5,0.44,0.55,0.77,0.27,0.5,0.27,0.77,0.5,0.77,0.55,0.5,0.44,0.27,0.5,0.44,0.38,0.55,0.44,0.32,0.44,0.55,0.44,0.5,0.5,0.27,0.5,0.44,0.27,0.44,0.5,0.27,0.27,0.5,0.55,0.38,0.44,0.77,0.44,0.55,0.44,0.38,0.55,0.27,0.5,0.44,0.55,0.5,0.44,0.38,0.44,0.55,0.77,0.44,0.27,0.44,0.32,0.27,0.44,0.27,0.25,0.55,0.72,0.5,0.27,0.44,0.5,0.55,0.27,0.27,0.38,0.27,0.44,0.5,0.55,0.5,0.44,0.32,0.44" style="fill:rgb(0,0,0);font-family:AdvOTb0c9bf5d;font-size:9.96px;stroke:none;">The minimum values are equivalently same as the base material, which listed here</text>
   <text y="326.606" x="141.734,144.942,149.924,153.1112,157.325,161.70739999999998,165.829,170.182,175.164,182.835,187.816,192.17,195.378,198.068,201.903,206.987,211.969,214.459,218.61,224.627,229.608,233.962,237.17,241.55239999999998,245.709,252.862,257.216,260.505,264.8874,268.953,273.999,278.98,283.961,286.651,291.633,296.614,300.3988,304.613,309.594,312.284,317.265,322.245,326.439,330.792,335.774,340.755,345.109,349.462,354.444,357.222,360.43,364.784,367.474,370.164,375.145,380.125,384.322,389.303,392.4902,396.68,401.034,405.387,408.595,413.577,418.558,423.538,427.747,430.955,435.937,438.427,443.409" svgx:width="0.32,0.5,0.32,0.55,0.44,0.55,0.44,0.5,0.77,0.5,0.44,0.32,0.27,0.38,0.5,0.5,0.25,0.55,0.6,0.5,0.44,0.32,0.44,0.55,0.72,0.44,0.32,0.44,0.55,0.5,0.5,0.5,0.27,0.5,0.5,0.38,0.55,0.5,0.27,0.5,0.5,0.55,0.44,0.5,0.5,0.44,0.44,0.5,0.27,0.32,0.44,0.27,0.27,0.5,0.5,0.55,0.5,0.32,0.55,0.44,0.44,0.32,0.5,0.5,0.5,0.55,0.32,0.5,0.25,0.5,0.5" style="fill:rgb(0,0,0);font-family:AdvOTb0c9bf5d;font-size:9.96px;stroke:none;">for a comparison. There were obvious high concentration of carbon (0.28</text>
   <text y="326.606" x="448.442" svgx:width="0.75" style="fill:rgb(0,0,0);font-family:AdvPS44A44B;font-size:9.96px;stroke:none;">e</text>
   <text y="326.606" x="455.926,460.907,463.398,468.379" svgx:width="0.5,0.25,0.5,0.5" style="fill:rgb(0,0,0);font-family:AdvOTb0c9bf5d;font-size:9.96px;stroke:none;">1.80</text>
   <text y="341.573" x="141.735,149.406,153.76,157.596,161.431,168.89,172.098,174.58800000000002,176.997,180.833,185.814,188.504,193.485,198.466,203.448,206.6352,209.084,212.292,217.274,219.764,224.746" svgx:width="0.77,0.44,0.38,0.38,0.74,0.32,0.25,0.55,0.38,0.5,0.27,0.5,0.5,0.5,0.32,0.55,0.32,0.5,0.25,0.5,0.5" style="fill:rgb(0,0,0);font-family:AdvOTb0c9bf5d;font-size:9.96px;stroke:none;">mass%), sulphur (0.01</text>
   <text y="341.573" x="229.779" svgx:width="0.75" style="fill:rgb(0,0,0);font-family:AdvPS44A44B;font-size:9.96px;stroke:none;">e</text>
   <text y="341.573" x="237.263,242.244,244.735,249.716,254.696,257.162,264.833,269.187,273.022,276.858,284.22,287.428,289.918,292.368,296.721,301.703,304.911,309.892,317.653,320.343,325.324,332.9932,335.397,338.605,343.587,346.077,351.058" svgx:width="0.5,0.25,0.5,0.5,0.55,0.77,0.44,0.38,0.38,0.74,0.32,0.25,0.55,0.44,0.5,0.32,0.5,0.77,0.27,0.5,0.77,0.55,0.32,0.5,0.25,0.5,0.5" style="fill:rgb(0,0,0);font-family:AdvOTb0c9bf5d;font-size:9.96px;stroke:none;">1.73 mass%), chromium (1.26</text>
   <text y="341.573" x="356.091" svgx:width="0.75" style="fill:rgb(0,0,0);font-family:AdvPS44A44B;font-size:9.96px;stroke:none;">e</text>
   <text y="341.573" x="363.574,368.621,371.111,376.092,381.072,383.474,391.145,395.499,399.334,403.17,410.532,413.74,416.23,418.68,423.033,428.015,432.995,435.461,443.132,448.113,450.803,455.784,460.766,465.747,470.101" svgx:width="0.5,0.25,0.5,0.5,0.55,0.77,0.44,0.38,0.38,0.74,0.32,0.25,0.55,0.44,0.5,0.5,0.55,0.77,0.5,0.27,0.5,0.5,0.5,0.44,0.32" style="fill:rgb(0,0,0);font-family:AdvOTb0c9bf5d;font-size:9.96px;stroke:none;">8.14 mass%), and molybde-</text>
   <text y="356.483" x="141.736,146.718,151.699,159.3682,161.692,164.9,169.882,172.372,177.354" svgx:width="0.5,0.5,0.77,0.55,0.32,0.5,0.25,0.5,0.5" style="fill:rgb(0,0,0);font-family:AdvOTb0c9bf5d;font-size:9.96px;stroke:none;">num (0.12</text>
   <text y="356.483" x="182.385" svgx:width="0.75" style="fill:rgb(0,0,0);font-family:AdvPS44A44B;font-size:9.96px;stroke:none;">e</text>
   <text y="356.483" x="189.869,194.85,197.341,202.322,207.302,209.541,217.212,221.566,225.401,229.326,236.689,239.897,242.387,244.69,250.707,255.688,258.378,262.1628,264.475,268.311,272.665,277.646,280.854,285.208,290.271,294.624,297.314,300.004,305.067,310.047,312.267,317.248,322.301,326.655,331.636,336.618,344.289,348.643,353.624,358.605,363.58500000000004,365.898,373.051,377.405,381.1898,383.529,387.882,390.572,393.262,396.568,399.258,404.239,409.22,411.91,416.264,421.244,423.553,426.243,431.223,433.474,436.164,441.145,445.5274,447.817,451.653,456.006,458.696,463.05,467.404,470.094" svgx:width="0.5,0.25,0.5,0.5,0.55,0.77,0.44,0.38,0.38,0.74,0.32,0.25,0.55,0.6,0.5,0.27,0.38,0.55,0.38,0.44,0.5,0.32,0.44,0.5,0.44,0.27,0.27,0.5,0.5,0.55,0.5,0.5,0.44,0.5,0.5,0.77,0.44,0.5,0.5,0.5,0.55,0.72,0.44,0.38,0.55,0.44,0.27,0.27,0.32,0.27,0.5,0.5,0.27,0.44,0.5,0.55,0.27,0.5,0.55,0.27,0.5,0.44,0.55,0.38,0.44,0.27,0.44,0.44,0.27,0.32" style="fill:rgb(0,0,0);font-family:AdvOTb0c9bf5d;font-size:9.96px;stroke:none;">0.61 mass%). This segregation phenomenon was attributed to the select-</text>
   <text y="371.45" x="141.736,144.426,149.407,154.387,157.327,161.68,164.888,169.87,173.705,176.489,180.842,183.532,186.222,188.912,193.266,197.619,200.309,202.999,207.981,212.96099999999998,216.003,220.357,225.338,230.31799999999998,233.294,238.276,242.629,247.611,252.592,255.8,258.58,261.269,265.6514,268.557,272.393,277.374,280.064,282.754,287.735,290.498,295.997,300.351,304.705,307.394,310.17,315.151,320.13100000000003,323.039,328.02,331.2072,334.207,338.042,340.732,345.086,349.44,352.13,354.62,357.621,363.638,368.62,373.0024,375.932,380.286,384.64,389.621,392.311,396.664,399.8512,402.861,406.697,411.05,416.032,419.24,423.593,428.656,433.01,435.7,438.39,443.453,448.433,451.333,455.687,460.668,465.649,468.339" svgx:width="0.27,0.5,0.5,0.55,0.44,0.32,0.5,0.38,0.27,0.44,0.27,0.27,0.27,0.44,0.44,0.27,0.27,0.5,0.5,0.55,0.44,0.5,0.5,0.55,0.5,0.44,0.5,0.5,0.32,0.27,0.27,0.44,0.55,0.38,0.5,0.27,0.27,0.5,0.27,0.55,0.44,0.44,0.27,0.27,0.5,0.5,0.55,0.5,0.32,0.55,0.38,0.27,0.44,0.44,0.27,0.25,0.55,0.6,0.5,0.44,0.55,0.44,0.44,0.5,0.27,0.44,0.32,0.55,0.38,0.44,0.5,0.32,0.44,0.5,0.44,0.27,0.27,0.5,0.5,0.55,0.44,0.5,0.5,0.27,0.5" style="fill:rgb(0,0,0);font-family:AdvOTb0c9bf5d;font-size:9.96px;stroke:none;">ing crystallization and dendrite solidiﬁcation of steel. The center segregation could</text>
   <text y="386.417" x="141.736,146.718,151.699,154.3882,158.8,163.782,168.1644,172.463,176.817,181.798,186.863,189.553,194.534,198.888,203.868,208.236,213.217,218.198,222.5804,226.944,229.634,234.61399999999998,239.02,241.71,246.691,251.0734,255.404,259.24,264.221,266.911,271.893,274.582,278.9644,283.354,287.707,292.061,296.415,301.396,309.149,314.13,316.82,321.174,323.945,326.635,331.616,336.596,340.953,343.643,348.623,353.029,355.719,360.7,365.0824,369.414,374.913,379.894,384.248,386.9372,391.353,395.189,400.17,402.86,405.55,410.531,413.294,418.793,423.147,427.501,430.19,432.966,437.947,442.929,445.419,449.747,455.764,460.746,465.167,469.003" svgx:width="0.5,0.5,0.27,0.55,0.5,0.44,0.55,0.44,0.5,0.5,0.27,0.5,0.44,0.5,0.55,0.5,0.5,0.44,0.55,0.27,0.5,0.55,0.27,0.5,0.44,0.55,0.38,0.5,0.27,0.5,0.27,0.44,0.55,0.44,0.44,0.44,0.5,0.77,0.5,0.27,0.44,0.27,0.27,0.5,0.5,0.55,0.27,0.5,0.55,0.27,0.5,0.44,0.55,0.55,0.5,0.44,0.27,0.55,0.38,0.5,0.27,0.27,0.5,0.27,0.55,0.44,0.44,0.27,0.27,0.5,0.5,0.25,0.55,0.6,0.5,0.44,0.38,0.44" style="fill:rgb(0,0,0);font-family:AdvOTb0c9bf5d;font-size:9.96px;stroke:none;">not be avoided due to the solute accumulation in the ﬁnal solidiﬁcation. These</text>
  </g>
  <rect style="fill:pink;opacity:0.2;stroke:blue;stroke-width:0.3;" x="141.732" y="481.612" height="234.539" width="331.645" title="9"/>
  <text y="481.612" class="image" id="image.9.1" width="331" height="234" x="141.732" style="font-size:5.0px;">image.9.1.142_473.482_716</text>
  <g begin="text">
   <text y="676.346" x="141.732,146.546,148.698,152.683,154.6755,157.322,161.307" svgx:width="0.6,0.27,0.5,0.25,0.55,0.5,0.25" style="fill:rgb(0,0,0);font-family:AdvOTe3b1fbf3.B;font-size:7.97px;stroke:none;">Fig. 6.</text>
   <text y="676.346" x="166.734,171.548,175.533,179.03979999999999,181.644,185.629,189.112,191.678,195.663,199.648,203.131,206.2,209.2286,211.86,215.845,218.3954,221.1,224.169,227.652,231.637,234.203,237.686,241.671,245.154,247.306,249.458,253.357,257.342,259.99,263.473,267.458,271.44300000000004,274.049,276.616,280.099,284.084,288.069,290.221,293.704,296.25440000000003,298.936,302.005,304.157,306.723,310.708,314.191,316.343,320.328,322.895,326.4018,328.983,331.134,335.119,337.77,341.755,343.907,347.892,351.877,354.443,357.926,360.078,362.147,366.132,370.117,372.748,378.885,382.87,386.855,389.007,392.992,395.651,398.719,400.871,404.354,407.837,409.9889,412.602,416.085,418.651,420.803,424.286,426.8364,429.495,432.062,436.047,438.613,442.598,444.75,448.736,452.721" svgx:width="0.6,0.5,0.44,0.55,0.5,0.44,0.32,0.5,0.5,0.44,0.38,0.38,0.55,0.5,0.32,0.55,0.38,0.44,0.5,0.32,0.44,0.5,0.44,0.27,0.27,0.5,0.5,0.55,0.44,0.5,0.5,0.55,0.32,0.44,0.5,0.5,0.27,0.44,0.32,0.55,0.38,0.27,0.32,0.5,0.44,0.27,0.5,0.32,0.44,0.55,0.27,0.5,0.55,0.5,0.27,0.5,0.5,0.32,0.44,0.27,0.27,0.5,0.5,0.55,0.77,0.5,0.5,0.27,0.5,0.55,0.38,0.27,0.44,0.44,0.27,0.55,0.44,0.32,0.27,0.44,0.32,0.55,0.32,0.5,0.32,0.5,0.27,0.5,0.5,0.25" style="fill:rgb(0,0,0);font-family:AdvOTb0c9bf5d;font-size:7.97px;stroke:none;">The hardness of segregation and regular structure in high-alloy mould steel after forging.</text>
  </g>
  <path style="fill:rgb(153,153,153);stroke:none;stroke-width:1.0;" d="M141.730 424.290 L473.330 424.290 L473.330 658.830 L141.730 658.830 "/>
  <g begin="text">
   <text y="710.646" x="42.52" svgx:width="0.5" style="fill:rgb(0,0,0);font-family:AdvOTe3b1fbf3.B;font-size:6.48px;stroke:none;">9</text>
   <text y="710.646" x="62.362,65.6,67.348,69.097,72.334,74.828,76.576,78.324,80.073,83.311,86.549,88.297,89.916,93.154,95.239,98.477,100.225,103.463,106.701,108.32,111.558,114.796,118.033,121.271,123.02,124.669,126.288,129.526,132.356,134.104,135.853,139.09,142.328,145.566,147.185,150.423,153.661,156.899,160.137,161.755,164.585,167.823,171.061,174.299,177.537" svgx:width="0.5,0.27,0.27,0.5,0.38,0.27,0.27,0.27,0.5,0.5,0.27,0.25,0.5,0.32,0.5,0.27,0.5,0.5,0.25,0.5,0.5,0.5,0.5,0.27,0.27,0.25,0.5,0.44,0.27,0.27,0.5,0.5,0.5,0.25,0.5,0.5,0.5,0.5,0.25,0.44,0.5,0.5,0.5,0.5,0.5" style="fill:rgb(0,121,173);font-family:AdvOTb0c9bf5d;font-size:6.48px;stroke:none;">https://doi.org/10.1016/j.heliyon.2019.e01329</text>
   <text y="720.623" x="62.362,65.6,68.838,72.075,75.313,77.398,80.636,83.874,87.112,90.35" svgx:width="0.5,0.5,0.5,0.5,0.32,0.5,0.5,0.5,0.5,0.27" style="fill:rgb(0,0,0);font-family:AdvOTb0c9bf5d;font-size:6.48px;stroke:none;">2405-8440/</text>
   <text y="720.623" code="1" x="92.069" svgx:width="0.79" style="fill:rgb(0,0,0);font-family:AdvPSSym;font-size:6.48px;stroke:none;">?</text>
   <text y="720.623" x="99.325,102.563,105.801,109.039,112.279,114.406,118.317,121.555,124.40620000000001,126.538,131.188,134.425,136.174,139.412,142.65,144.735,147.228,148.848,150.973,154.548,157.786,161.024,162.772,164.521,167.014,170.252,173.081,176.321,178.414,181.651,184.89100000000002,187.031,190.942,192.691,195.184,198.014,201.251,203.0,205.83,207.9036,210.105,214.016,215.765,219.003,220.623,222.748,226.659,229.897,231.645,234.1074,236.297,238.046,240.5084,242.704,245.534,248.774,250.868,254.105,257.343,260.173,263.413,265.551,268.381,271.211,274.041,276.871,279.364,281.8264,284.034,286.864,288.949,290.697,292.446,295.276,297.024,299.8752,302.006,305.244,308.481,311.719,314.549,316.6226,318.788,320.536,323.774,326.6252,328.709,333.022,337.3636,339.481,343.793,348.443,350.528,355.178,359.491,361.576,366.225,370.8906,373.044,374.792,376.54,379.37,382.2,385.438,387.931" svgx:width="0.5,0.5,0.5,0.5,0.55,0.6,0.5,0.44,0.55,0.72,0.5,0.27,0.5,0.5,0.32,0.38,0.25,0.55,0.55,0.5,0.5,0.27,0.27,0.38,0.5,0.44,0.5,0.55,0.5,0.5,0.55,0.6,0.27,0.38,0.44,0.5,0.27,0.44,0.32,0.55,0.6,0.27,0.5,0.25,0.55,0.6,0.5,0.27,0.38,0.55,0.27,0.38,0.55,0.44,0.5,0.55,0.5,0.5,0.44,0.5,0.55,0.44,0.44,0.44,0.44,0.38,0.38,0.55,0.44,0.32,0.27,0.27,0.44,0.27,0.44,0.55,0.5,0.5,0.5,0.44,0.32,0.55,0.27,0.5,0.44,0.55,0.67,0.67,0.55,0.67,0.72,0.32,0.72,0.67,0.32,0.72,0.72,0.55,0.27,0.27,0.44,0.44,0.5,0.38,0.44" style="fill:rgb(0,0,0);font-family:AdvOTb0c9bf5d;font-size:6.48px;stroke:none;">2019 The Authors. Published by Elsevier Ltd. This is an open access article under the CC BY-NC-ND license</text>
   <text y="730.545" x="62.362" svgx:width="0.32" style="fill:rgb(0,0,0);font-family:AdvOTb0c9bf5d;font-size:6.48px;stroke:none;">(</text>
   <text y="730.545" x="64.459,67.697,69.446,71.194,74.432,76.18,77.929,79.677,82.507,84.592,87.422,90.252,92.0,93.749,96.987,99.817,102.647,105.884,110.871,115.857,119.095,122.287,124.78,126.399,129.637,131.722,134.96,136.709,138.457,140.206,143.035,145.865,149.103,151.596,154.426,156.919,158.668,161.906,165.144,167.229,170.467,173.296,175.297,178.535,181.773,183.521,186.759,188.378,191.616" svgx:width="0.5,0.27,0.27,0.5,0.27,0.27,0.27,0.44,0.32,0.44,0.44,0.27,0.27,0.5,0.44,0.44,0.5,0.77,0.77,0.5,0.5,0.38,0.25,0.5,0.32,0.5,0.27,0.27,0.27,0.44,0.44,0.5,0.38,0.44,0.38,0.27,0.5,0.5,0.32,0.5,0.44,0.32,0.5,0.5,0.27,0.5,0.25,0.5,0.27" style="fill:rgb(0,121,173);font-family:AdvOTb0c9bf5d;font-size:6.48px;stroke:none;">http://creativecommons.org/licenses/by-nc-nd/4.0/</text>
   <text y="730.545" x="193.378,195.463" svgx:width="0.32,0.25" style="fill:rgb(0,0,0);font-family:AdvOTb0c9bf5d;font-size:6.48px;stroke:none;">).</text>
  </g>
  <rect style="fill:pink;opacity:0.2;stroke:blue;stroke-width:0.3;" x="141.732" y="75.748" height="19.389" width="56.013" title="9"/>
  <text y="75.748" class="image" id="image.9.2" width="56" height="19" x="141.732" style="font-size:5.0px;">image.9.2.142_198.76_95</text>
  <g begin="text">
   <text y="37.871" x="422.929,426.84,429.333,431.082,432.83,435.66,437.409,440.2602,442.375,446.688" svgx:width="0.6,0.38,0.27,0.27,0.44,0.27,0.44,0.55,0.67,0.5" style="fill:rgb(0,0,0);font-family:AdvOT6bc95374.I;font-size:6.48px;stroke:none;">Article No</text>
   <text y="37.871" x="448.951" svgx:width="1.0" style="fill:rgb(0,0,0);font-family:AdvPS3FDD77;font-size:6.48px;stroke:none;">w</text>
   <text y="37.871" x="454.393,457.223,460.461,463.699,466.937,470.174" svgx:width="0.44,0.5,0.5,0.5,0.5,0.5" style="fill:rgb(0,0,0);font-family:AdvOT6bc95374.I;font-size:6.48px;stroke:none;">e01329</text>
  </g>
 </g>
</svg>
