<?xml version="1.0" encoding="UTF-8"?>
<svg height="740.545" width="2651.732" xmlns="http://www.w3.org/2000/svg">
 <g id="page" xmlns:svgx="http://www.xml-cml.org/schema/svgx">
  <g begin="text">
   <text y="342.028" x="141.732,146.713,151.695" svgx:width="0.5,0.5,0.5" style="fill:rgb(0,0,0);font-family:AdvOTb0c9bf5d;font-size:9.96px;stroke:none;">513</text>
   <text y="342.028" x="156.699" svgx:width="0.75" style="fill:rgb(0,0,0);font-family:AdvPS44A44B;font-size:9.96px;stroke:none;">e</text>
   <text y="342.028" x="164.183,169.164,174.145,179.125,182.154,189.3252,192.302,199.455,204.437,208.79,213.76999999999998,216.793,219.483,224.465,228.8474,231.817,236.171,241.152,246.133,248.823,251.603,256.584,261.564,264.528,267.736,272.09,274.78,279.1624,282.216,284.906,288.6908,291.74,296.094,301.075,306.056,311.038,315.42040000000003,318.385,323.366,325.857,330.83700000000005,333.862,341.015,343.705,347.541,350.031,353.081,359.098,364.079,368.4614,371.392,379.063,383.417,386.625,389.42,393.774,398.755,402.591,405.281,407.971,412.3534,415.385,418.075,421.283,425.636,430.618,434.453,437.661,442.643,445.851,453.652,458.006,460.696,463.386,468.367" svgx:width="0.5,0.5,0.5,0.55,0.72,0.55,0.72,0.5,0.44,0.5,0.55,0.27,0.5,0.44,0.55,0.44,0.5,0.5,0.27,0.27,0.5,0.5,0.55,0.32,0.44,0.27,0.44,0.55,0.27,0.38,0.55,0.44,0.5,0.5,0.5,0.44,0.55,0.5,0.25,0.5,0.55,0.72,0.27,0.38,0.25,0.55,0.6,0.5,0.44,0.55,0.77,0.44,0.32,0.27,0.44,0.5,0.38,0.27,0.27,0.44,0.55,0.27,0.32,0.44,0.5,0.38,0.32,0.5,0.32,0.77,0.44,0.27,0.27,0.5,0.5" style="fill:rgb(0,0,0);font-family:AdvOTb0c9bf5d;font-size:9.96px;stroke:none;">528 K when the cooling rate is above 0.5 K/s. The martensite transformation</text>
   <text y="356.995" x="141.732,144.94,149.294,154.275,156.965,162.028,167.00799999999998,170.248,177.401,181.755,185.53979999999999,188.9,193.881,198.235,202.071,204.761,207.251,210.557,214.91,218.6948,222.066,225.901,230.882,235.864,243.017,247.99699999999999,251.319,254.009,258.989,262.261,264.951,269.932,274.31440000000003,277.567,284.202,290.837,296.813,300.187,304.541,309.522,312.73,317.711,322.065,324.555,327.91,332.264,337.245,342.225,345.485,348.175,353.156,357.5384,360.849,365.202,368.41,371.1,373.79,376.48,380.834,385.187,387.87620000000004,391.236,395.589,400.571,405.552,408.242,410.932,415.913,420.89300000000003,424.231,427.439,431.792,434.482,438.86440000000005,442.145,449.299,453.652,457.4368,460.797,465.779,470.132" svgx:width="0.32,0.44,0.5,0.27,0.5,0.5,0.55,0.72,0.44,0.38,0.55,0.5,0.44,0.38,0.27,0.25,0.55,0.44,0.38,0.55,0.38,0.5,0.5,0.72,0.5,0.55,0.27,0.5,0.55,0.27,0.5,0.44,0.55,0.67,0.67,0.6,0.55,0.44,0.5,0.32,0.5,0.44,0.25,0.55,0.44,0.5,0.5,0.55,0.27,0.5,0.44,0.55,0.44,0.32,0.27,0.27,0.27,0.44,0.44,0.27,0.55,0.44,0.5,0.5,0.27,0.27,0.5,0.5,0.55,0.32,0.44,0.27,0.44,0.55,0.72,0.44,0.38,0.55,0.5,0.44,0.32" style="fill:rgb(0,0,0);font-family:AdvOTb0c9bf5d;font-size:9.96px;stroke:none;">region was vast, as shown in the CCT curve, and the critical cooling rate was be-</text>
   <text y="371.905" x="141.732,144.422,151.575,155.929,160.283,165.26299999999998,167.924,172.905,175.396" svgx:width="0.27,0.72,0.44,0.44,0.5,0.55,0.5,0.25,0.5" style="fill:rgb(0,0,0);font-family:AdvOTb0c9bf5d;font-size:9.96px;stroke:none;">tween 0.1</text>
   <text y="371.905" x="180.397" svgx:width="0.75" style="fill:rgb(0,0,0);font-family:AdvPS44A44B;font-size:9.96px;stroke:none;">e</text>
   <text y="371.905" x="187.881,192.862,195.353,200.333,202.961,210.114,212.804,216.64,219.13,221.783,228.936,233.289,238.271,242.624,245.832,250.186,252.876,255.566,260.674,263.164,265.72,268.41,273.39000000000004,276.038,278.728,283.709,288.0914,290.665,295.646,298.854,303.208,307.562,310.337,313.027,317.381,321.734,324.4232,327.062,331.415,336.396,341.378,344.068,346.758,351.739,356.72,361.701,366.683,370.4678,373.209,377.563,381.917,385.752,388.442,391.132,396.113,401.093,403.767,408.748,411.956,416.937,421.291,425.644,429.562,433.397,435.887,438.462,441.152,446.134,450.51640000000003,453.089,457.443,462.424,467.489,470.179" svgx:width="0.5,0.25,0.5,0.55,0.72,0.27,0.38,0.25,0.55,0.72,0.44,0.5,0.44,0.32,0.44,0.27,0.27,0.5,0.25,0.55,0.27,0.5,0.55,0.27,0.5,0.44,0.55,0.5,0.32,0.44,0.44,0.27,0.27,0.44,0.44,0.27,0.55,0.44,0.5,0.5,0.27,0.27,0.5,0.5,0.5,0.5,0.38,0.55,0.44,0.44,0.38,0.27,0.27,0.5,0.5,0.55,0.5,0.32,0.5,0.44,0.44,0.38,0.38,0.25,0.55,0.27,0.5,0.44,0.55,0.44,0.5,0.5,0.27,0.32" style="fill:rgb(0,0,0);font-family:AdvOTb0c9bf5d;font-size:9.96px;stroke:none;">0.5 K/s. Generally, in the practical continuous casting process, the cool-</text>
   <text y="386.872" x="141.733,144.423,149.404,154.384,157.04,160.248,164.601,167.291,171.6734,174.388,177.077,180.8618,183.572,190.725,193.415,196.105,201.086,203.776,208.756,211.464,216.446" svgx:width="0.27,0.5,0.5,0.55,0.32,0.44,0.27,0.44,0.55,0.27,0.38,0.55,0.72,0.27,0.27,0.5,0.27,0.5,0.55,0.5,0.5" style="fill:rgb(0,0,0);font-family:AdvOTb0c9bf5d;font-size:9.96px;stroke:none;">ing rate is within 10</text>
   <text y="386.872" x="221.443" svgx:width="0.75" style="fill:rgb(0,0,0);font-family:AdvPS44A44B;font-size:9.96px;stroke:none;">e</text>
   <text y="386.872" x="228.927,233.908,238.88799999999998,241.569,248.723,251.412,255.1968,257.897,261.105,263.795,268.776,273.15840000000003,275.869,280.222,285.204,289.557,292.765,297.119,302.1,306.48240000000004,309.147,313.5,318.482,323.463,326.153,328.932,333.914,338.894,341.518,344.726,349.08,351.77,356.1524,358.866,363.847,367.0342,369.694,374.048,378.402,382.237,384.927,389.367,392.55420000000004,395.206,402.877,407.858,410.626,415.607,418.815,421.305,423.949,428.93,433.911,438.893,443.246,446.4332,449.177,456.33,461.311,464.001,468.355" svgx:width="0.5,0.5,0.55,0.72,0.27,0.38,0.55,0.32,0.27,0.5,0.44,0.55,0.44,0.5,0.44,0.32,0.44,0.5,0.44,0.55,0.44,0.5,0.5,0.27,0.27,0.5,0.5,0.55,0.32,0.44,0.27,0.44,0.55,0.5,0.32,0.55,0.44,0.44,0.38,0.27,0.44,0.32,0.55,0.77,0.5,0.27,0.5,0.32,0.25,0.55,0.5,0.5,0.5,0.44,0.32,0.55,0.72,0.5,0.27,0.44,0.5" style="fill:rgb(0,0,0);font-family:AdvOTb0c9bf5d;font-size:9.96px;stroke:none;">15 K/s (the average cooling rate of caster mold), under which</text>
   <text y="401.782" x="141.733,144.423,149.404,153.7864,157.04,160.875,163.565,167.919,172.273,175.068,178.8528,182.154,186.508,191.489,196.471,199.161,203.514,206.204,211.185,214.9698,218.38,226.052,230.405,233.095,238.076,240.766,245.74599999999998,249.051,256.722,261.076,264.284,267.08,271.433,276.414,280.25,282.94,285.63,289.984,292.474,295.823,299.031,303.384,307.22,312.201,314.891,317.581,320.271,325.252,330.232,333.58,336.27,341.25,344.522,347.212,352.193,356.547,359.755,364.194,368.548,372.383,375.073,380.055,385.035,388.344,391.034,396.016,400.39840000000004,403.651,408.632,412.986,416.194,421.175,425.529,430.51,434.944,439.926,442.616,445.306,447.995,450.685,455.665,458.982,463.405,468.386" svgx:width="0.27,0.5,0.44,0.55,0.38,0.27,0.44,0.44,0.27,0.38,0.55,0.44,0.5,0.5,0.27,0.44,0.27,0.5,0.38,0.55,0.77,0.44,0.27,0.5,0.27,0.5,0.55,0.77,0.44,0.32,0.27,0.44,0.5,0.38,0.27,0.27,0.44,0.25,0.55,0.32,0.44,0.38,0.5,0.27,0.27,0.27,0.5,0.5,0.55,0.27,0.5,0.55,0.27,0.5,0.44,0.32,0.44,0.44,0.38,0.27,0.5,0.5,0.55,0.27,0.5,0.44,0.55,0.5,0.44,0.32,0.5,0.44,0.5,0.44,0.5,0.27,0.27,0.27,0.27,0.5,0.55,0.44,0.5,0.5" style="fill:rgb(0,0,0);font-family:AdvOTb0c9bf5d;font-size:9.96px;stroke:none;">the steels contains mainly martensite, resulting in increasing the hardenability and</text>
   <text y="416.749" x="141.733,146.087,149.295,153.648,158.002,162.983,165.771,170.752,175.732,178.696,182.532,187.513,191.349,195.703,200.056,205.115,207.805,210.495,215.476,218.166,220.856,223.654,226.343,231.325" svgx:width="0.44,0.32,0.44,0.44,0.5,0.27,0.5,0.5,0.55,0.38,0.5,0.38,0.44,0.44,0.5,0.27,0.27,0.5,0.27,0.27,0.27,0.27,0.5,0.25" style="fill:rgb(0,0,0);font-family:AdvOTb0c9bf5d;font-size:9.96px;stroke:none;">cracking susceptibility.</text>
   <text y="439.143" x="141.733,151.068,153.758,156.448,161.428,163.786,166.476,171.458,175.8404,178.13,183.111,186.946,191.3284,193.606,198.588,201.77519999999998,204.094,208.47639999999998,210.784,215.138,220.119,225.1,228.308,233.289,237.643,242.078,244.7672,247.068,249.758,254.111,257.947,262.3,265.48720000000003,267.817,271.652,276.006,280.36,285.341,290.322,293.102,298.083,303.06300000000005,305.348,313.019,315.709,320.144,323.352,328.334,332.169,336.523,341.504,346.563,351.543,353.82,357.028,363.663,369.162,375.18,384.093,387.301,389.791,392.087,394.777,399.758,404.1404,406.43,411.412,414.102,419.083,424.06300000000005,426.386,429.076,433.43,441.101,446.172,450.526,453.734,458.087,460.777,465.759,468.967" svgx:width="0.94,0.27,0.27,0.5,0.55,0.27,0.5,0.44,0.55,0.5,0.38,0.44,0.55,0.5,0.32,0.55,0.44,0.55,0.44,0.5,0.5,0.32,0.5,0.44,0.44,0.27,0.55,0.27,0.44,0.38,0.44,0.32,0.55,0.38,0.44,0.44,0.5,0.5,0.27,0.5,0.5,0.55,0.77,0.27,0.44,0.32,0.5,0.38,0.44,0.5,0.5,0.5,0.55,0.32,0.67,0.55,0.6,0.88,0.32,0.25,0.55,0.27,0.5,0.44,0.55,0.5,0.27,0.5,0.5,0.55,0.27,0.44,0.77,0.5,0.44,0.32,0.44,0.27,0.5,0.32,0.44" style="fill:rgb(0,0,0);font-family:AdvOTb0c9bf5d;font-size:9.96px;stroke:none;">With the use of a confocal laser scanning microscopy (CSLM), the high temperature</text>
   <text y="454.11" x="141.733,144.423,149.403,151.881,155.717,158.407,161.096,166.076,168.548,173.53,178.511,182.347,186.7,189.908,194.967,199.321,202.011,204.701,209.682,214.66199999999998,217.134,224.287,228.641,232.42579999999998,234.992,239.973,244.327,247.535,250.743,255.724,259.03,266.701,271.055,276.035,278.475,282.897,287.878,292.858,295.313,299.148,304.129,309.111,316.264,321.244,323.715,326.405" svgx:width="0.27,0.5,0.55,0.38,0.27,0.27,0.5,0.55,0.5,0.5,0.38,0.44,0.32,0.5,0.44,0.27,0.27,0.5,0.5,0.55,0.72,0.44,0.38,0.55,0.5,0.44,0.32,0.32,0.5,0.32,0.77,0.44,0.5,0.55,0.44,0.5,0.5,0.55,0.38,0.5,0.5,0.72,0.5,0.55,0.27,0.5" style="fill:rgb(0,0,0);font-family:AdvOTb0c9bf5d;font-size:9.96px;stroke:none;">in situ observation was performed and shown in</text>
   <text y="454.11" x="333.865,339.364,342.054,347.035,349.52500000000003,352.007" svgx:width="0.55,0.27,0.5,0.25,0.55,0.5" style="fill:rgb(0,121,173);font-family:AdvOTb0c9bf5d;font-size:9.96px;stroke:none;">Fig. 3</text>
   <text y="454.11" x="356.995,359.485,361.928,367.945,372.926,377.3084,379.785,384.767,389.748,394.729,397.419,402.401,406.18580000000003,408.699,411.389,416.369,418.847,421.537,426.518,430.9004,433.36,438.342,443.323,446.531,449.221,453.656,458.637,463.619,466.309,470.662" svgx:width="0.25,0.55,0.6,0.5,0.44,0.55,0.5,0.5,0.5,0.27,0.5,0.38,0.55,0.27,0.5,0.55,0.27,0.5,0.44,0.55,0.5,0.5,0.32,0.27,0.44,0.5,0.5,0.27,0.44,0.27" style="fill:rgb(0,0,0);font-family:AdvOTb0c9bf5d;font-size:9.96px;stroke:none;">. The photos in the horizontal</text>
   <text y="469.02" x="141.733,146.714,149.404,152.612,156.966,161.405,164.095,166.785,171.766,176.74599999999998,179.263,181.953,185.7378,188.277,190.967,195.949,200.3314,202.791,207.772,212.753,217.107,220.943,225.3254,227.792,230.482,233.69,238.044,243.025,246.954,249.644,252.334,255.024,260.005,264.985,267.534,272.515,277.496,282.478,286.831,290.01820000000004,292.535,295.225,300.206,304.58840000000004,307.048,310.884,315.238,322.909,327.2914,329.782,334.136,339.117,344.182,346.872,349.562,354.543,359.523,361.983,366.337,371.394,376.375,381.356,384.046,386.736,389.426,394.407,399.389,401.879,404.389,409.37,414.352,417.0412,419.583,424.564,427.237,433.304,437.657,440.865,445.219,450.2,452.8892,455.414,458.104,462.457,470.128" svgx:width="0.5,0.27,0.32,0.44,0.44,0.27,0.27,0.5,0.5,0.55,0.27,0.38,0.55,0.27,0.5,0.44,0.55,0.5,0.5,0.44,0.38,0.44,0.55,0.27,0.32,0.44,0.5,0.38,0.27,0.27,0.27,0.5,0.5,0.55,0.5,0.5,0.5,0.44,0.32,0.55,0.27,0.5,0.44,0.55,0.38,0.44,0.77,0.44,0.55,0.44,0.5,0.5,0.27,0.27,0.5,0.5,0.55,0.44,0.5,0.5,0.5,0.27,0.27,0.27,0.5,0.5,0.25,0.55,0.5,0.5,0.27,0.55,0.5,0.27,0.6,0.44,0.32,0.44,0.5,0.27,0.55,0.27,0.44,0.77,0.32" style="fill:rgb(0,0,0);font-family:AdvOTb0c9bf5d;font-size:9.96px;stroke:none;">direction is the phase transition under the same cooling condition, but diﬀerent tem-</text>
   <text y="483.986" x="141.733,146.714,151.068,154.276,158.63,161.405,166.387,169.595,173.948,176.43800000000002,179.036,185.053,190.035,194.4174,197.065,202.565,205.773,209.608,212.2972,214.923,219.905,224.886,229.26839999999999,231.875,234.565,238.3498,241.002,243.692,248.674,253.0564,255.685,258.375,261.065,268.736,273.1184,275.754,280.108,285.089,290.069,292.705,295.395,299.749,307.42,312.401,316.755,319.963,324.317,327.117,332.099,335.306,339.6884,342.311,346.665,351.646,356.627,361.609,364.2982,366.916,369.606,374.586,377.234,382.215,386.569,391.55,396.532,400.885,405.865,408.529,411.219,416.2,420.5824,423.156,428.137,433.118,437.472,441.308,445.6904,448.327,451.017,454.225,458.579,463.56,467.489,470.179" svgx:width="0.5,0.44,0.32,0.44,0.27,0.5,0.32,0.44,0.25,0.55,0.6,0.5,0.44,0.55,0.55,0.32,0.38,0.27,0.55,0.5,0.5,0.44,0.55,0.27,0.38,0.55,0.27,0.5,0.44,0.55,0.27,0.27,0.77,0.44,0.55,0.44,0.5,0.5,0.55,0.27,0.44,0.77,0.5,0.44,0.32,0.44,0.27,0.5,0.32,0.44,0.55,0.44,0.5,0.5,0.5,0.27,0.55,0.27,0.5,0.55,0.5,0.44,0.5,0.5,0.44,0.5,0.55,0.27,0.5,0.44,0.55,0.5,0.5,0.44,0.38,0.44,0.55,0.27,0.32,0.44,0.5,0.38,0.27,0.32" style="fill:rgb(0,0,0);font-family:AdvOTb0c9bf5d;font-size:9.96px;stroke:none;">perature. The ﬁrst one is the time and temperature about to happen the phase transi-</text>
   <text y="498.953" x="141.733,144.423,147.113,152.094,157.076,159.566,162.369,168.386,173.367,177.74939999999998,180.511,184.346,188.7,193.053,198.035,203.016,207.99599999999998,210.841,215.194,220.176,225.15599999999998,227.961,230.651,235.633,238.322,241.53,246.51,249.277,254.259,259.312,263.665,267.44980000000004,270.254,274.607,277.815,282.1974,284.993,287.683,292.664,297.0464,299.79,303.625,306.315,310.669,313.359,318.34,322.1248,325.018,329.999,333.18620000000004,335.96,340.941,345.295,347.985,352.966,357.946,360.791,365.144,370.126,375.106,377.855,382.208,385.416,388.106,392.46,395.6472,398.494,404.05,409.032,411.722,415.557,420.538,423.228,428.21,433.19,436.024,438.714,443.696,448.07840000000004,450.821,455.802,460.783,465.137,468.973" svgx:width="0.27,0.27,0.5,0.5,0.25,0.55,0.6,0.5,0.44,0.55,0.38,0.44,0.44,0.5,0.5,0.5,0.55,0.44,0.5,0.5,0.55,0.27,0.5,0.27,0.32,0.5,0.55,0.5,0.5,0.44,0.38,0.55,0.44,0.32,0.44,0.55,0.27,0.5,0.44,0.55,0.38,0.27,0.44,0.27,0.5,0.38,0.55,0.5,0.32,0.55,0.5,0.44,0.27,0.5,0.5,0.55,0.44,0.5,0.5,0.55,0.44,0.32,0.27,0.44,0.32,0.55,0.55,0.5,0.27,0.38,0.5,0.27,0.5,0.5,0.55,0.27,0.5,0.44,0.55,0.5,0.5,0.44,0.38,0.44" style="fill:rgb(0,0,0);font-family:AdvOTb0c9bf5d;font-size:9.96px;stroke:none;">tion. The second and third ones are the status of being and after ﬁnishing the phase</text>
   <text y="513.863" x="141.733,144.423,147.631,151.985,156.966,160.802,163.491,166.181,169.002,173.983,178.964,181.454,185.669,191.687,196.668,201.0504,205.341,209.177,213.531,221.202,225.5844,229.832,234.814,239.795,244.149,249.13,254.21,261.881,266.235,271.216,276.197,281.177,285.448,292.601,296.954,300.7388,305.12,310.101,315.082,318.918,323.272,326.479,331.461,335.814,340.79400000000004,345.088,347.778,352.759,357.112,359.80120000000005,364.136,371.807,376.161,379.369,382.059,386.413,391.394,395.229,398.038,400.728,405.1104,409.32,414.301,419.282,423.636,427.471,431.8534,436.135,438.825,442.033,446.386,451.368,455.203,457.893,460.583,463.404,468.385" svgx:width="0.27,0.32,0.44,0.5,0.38,0.27,0.27,0.27,0.5,0.5,0.25,0.55,0.6,0.5,0.44,0.55,0.38,0.44,0.77,0.44,0.55,0.5,0.5,0.44,0.5,0.5,0.77,0.44,0.5,0.5,0.5,0.55,0.72,0.44,0.38,0.55,0.5,0.5,0.38,0.44,0.32,0.5,0.44,0.5,0.55,0.27,0.5,0.44,0.27,0.55,0.77,0.44,0.32,0.27,0.44,0.5,0.38,0.27,0.27,0.44,0.55,0.5,0.5,0.44,0.38,0.44,0.55,0.27,0.32,0.44,0.5,0.38,0.27,0.27,0.27,0.5,0.5" style="fill:rgb(0,0,0);font-family:AdvOTb0c9bf5d;font-size:9.96px;stroke:none;">transition. The same phenomenon was observed that martensite phase transition</text>
   <text y="528.83" x="141.733,146.714,151.068,156.049,161.031,165.384,170.366,174.719,179.69899999999998,182.778,187.132,189.8212,192.812,197.166,202.147,207.129,210.337,215.318,220.299,223.086,230.757,235.11,237.8,242.154,244.844,249.82399999999998,252.906,257.887,262.868,267.848,270.82,277.9912,281.025,285.379,288.06820000000005,291.059,293.749,298.731,303.1134,306.083,310.437,315.418,320.399,323.089,325.869,330.85,335.83000000000004,338.794,342.002,346.356,349.046,353.4284,356.482,361.463,364.65020000000004,367.65,372.631,375.121,378.138,383.119,388.1,390.59000000000003,393.615,398.596,403.576,406.54,413.693,416.461,420.24580000000003,423.264,426.472,430.826,434.661,439.643,443.996,448.436,451.126,453.816,458.797,463.151,465.84,470.822" svgx:width="0.5,0.44,0.5,0.5,0.44,0.5,0.44,0.5,0.55,0.44,0.27,0.55,0.44,0.5,0.5,0.32,0.5,0.5,0.27,0.77,0.44,0.27,0.44,0.27,0.5,0.55,0.5,0.5,0.5,0.55,0.72,0.55,0.44,0.27,0.55,0.27,0.5,0.44,0.55,0.44,0.5,0.5,0.27,0.27,0.5,0.5,0.55,0.32,0.44,0.27,0.44,0.55,0.5,0.32,0.55,0.5,0.25,0.55,0.5,0.5,0.25,0.55,0.5,0.5,0.55,0.72,0.27,0.38,0.55,0.32,0.44,0.38,0.5,0.44,0.44,0.27,0.27,0.5,0.44,0.27,0.5,0.25" style="fill:rgb(0,0,0);font-family:AdvOTb0c9bf5d;font-size:9.96px;stroke:none;">happened at approximately 583 K at the cooling rate of 8, 10, 12 K/s respectively.</text>
   <text y="543.74" x="141.733,147.751,152.732,155.422,159.2068,161.348,165.702,170.683,175.665,180.018,183.226,186.01,193.681,198.035,203.016,205.7052,207.78,215.451,219.805,224.786,229.14,232.92479999999998,235.106,237.795,240.4842,242.588,246.942,249.632,253.986,258.339,261.5262,263.678,266.368,271.349,275.703,278.3922,280.459,283.149,288.13,292.5124,294.575,298.411,301.101,304.309,309.372,313.725,316.415,321.397,324.605,328.958,331.64720000000005,333.749,336.439,339.647,344.001,348.982,352.911,356.119,361.101,364.309,371.98,376.333,379.023,381.713,386.695,391.675,393.843,398.824,402.01120000000003,404.104,409.085,411.775,416.757,421.738,424.946,429.3,431.989,434.679,439.763,444.743,446.793,450.628,453.318,457.672,462.026,464.71520000000004,466.862,469.551" svgx:width="0.6,0.5,0.27,0.38,0.55,0.44,0.5,0.5,0.44,0.32,0.27,0.77,0.44,0.5,0.27,0.55,0.77,0.44,0.5,0.44,0.38,0.55,0.27,0.27,0.55,0.44,0.27,0.44,0.44,0.32,0.55,0.27,0.5,0.44,0.27,0.55,0.27,0.5,0.44,0.55,0.38,0.27,0.32,0.5,0.44,0.27,0.5,0.32,0.44,0.27,0.55,0.27,0.32,0.44,0.5,0.38,0.32,0.5,0.32,0.77,0.44,0.27,0.27,0.5,0.5,0.55,0.5,0.32,0.55,0.5,0.27,0.5,0.5,0.32,0.44,0.27,0.27,0.5,0.5,0.55,0.38,0.27,0.44,0.44,0.27,0.55,0.27,0.38" style="fill:rgb(0,0,0);font-family:AdvOTb0c9bf5d;font-size:9.96px;stroke:none;">This experiment makes it clear that the structural transformation of high-alloy steel is</text>
   <text y="558.707" x="141.733,148.886,151.576,154.266,159.247,162.029,167.009,169.172,171.862,176.843,184.0142,186.236,188.926,193.28,200.951,205.932,210.286,213.494,217.847,220.648,225.629,228.837,233.21939999999998,235.387,239.741,244.722,249.704,254.057,256.54699999999997,258.802,264.819,269.8,272.49,276.2748,278.53,281.22,285.574,293.327,298.308,302.662,305.87,310.224,312.913,317.895,321.103,325.4854,327.739,332.092,337.074,342.055,346.4374,348.601,351.291,355.0758,357.332,360.022,365.003,369.3854,371.618,374.308,378.662,386.333,391.314,395.668,398.876,403.229,406.03,411.011,414.219,418.6014,420.77,425.751,428.9382,431.145,433.835,438.816,443.1984,445.431,449.785,454.766,459.747,462.437,465.127,470.108" svgx:width="0.72,0.27,0.27,0.5,0.27,0.5,0.55,0.27,0.5,0.72,0.55,0.27,0.44,0.77,0.5,0.44,0.32,0.44,0.27,0.5,0.32,0.44,0.55,0.44,0.5,0.5,0.44,0.25,0.55,0.6,0.5,0.27,0.38,0.55,0.27,0.44,0.77,0.5,0.44,0.32,0.44,0.27,0.5,0.32,0.44,0.55,0.44,0.5,0.5,0.44,0.55,0.27,0.38,0.55,0.27,0.5,0.44,0.55,0.27,0.44,0.77,0.5,0.44,0.32,0.44,0.27,0.5,0.32,0.44,0.55,0.5,0.32,0.55,0.27,0.5,0.44,0.55,0.44,0.5,0.5,0.27,0.27,0.5,0.32" style="fill:rgb(0,0,0);font-family:AdvOTb0c9bf5d;font-size:9.96px;stroke:none;">within low temperature zone. This temperature zone is the temperature of the contin-</text>
   <text y="573.674" x="141.733,146.714,151.696,156.677,160.46179999999998,165.318,169.671,174.025,177.86,180.55,183.24,188.222,193.202,198.029,201.864,204.554,208.908,213.88799999999998,218.721,223.702,228.684,231.3732,236.126,241.107,244.2942,249.108,253.462,257.815,261.651,264.341,268.78,271.988,274.478,279.212,286.365,291.346,295.7284,300.528,303.218,308.19800000000004,313.0,315.69,320.671,325.0534,329.781,334.762,337.452,342.434,347.41400000000004,352.231,356.585,359.792,364.146,368.5,373.481,376.171,381.257,386.237,390.952,394.787,399.768,403.604,407.958,412.311,417.37,420.06,422.75,427.731,430.421,433.111,435.909,438.599,443.579,448.324,453.305,456.4922,461.306,463.996,468.978" svgx:width="0.5,0.5,0.5,0.38,0.55,0.44,0.44,0.38,0.27,0.27,0.5,0.5,0.55,0.38,0.27,0.44,0.5,0.55,0.5,0.5,0.27,0.55,0.5,0.32,0.55,0.44,0.44,0.38,0.27,0.44,0.32,0.25,0.55,0.72,0.5,0.44,0.55,0.27,0.5,0.55,0.27,0.5,0.44,0.55,0.5,0.27,0.5,0.5,0.55,0.44,0.32,0.44,0.44,0.5,0.27,0.5,0.5,0.55,0.38,0.5,0.38,0.44,0.44,0.5,0.27,0.27,0.5,0.27,0.27,0.27,0.27,0.5,0.55,0.5,0.32,0.55,0.27,0.5,0.44" style="fill:rgb(0,0,0);font-family:AdvOTb0c9bf5d;font-size:9.96px;stroke:none;">uous casting slab out of caster. Due to the high cracking susceptibility of the</text>
   <text y="588.584" x="141.733,149.404,153.758,156.966,159.656,164.009,168.991,172.826,175.635,178.325,182.70739999999998,185.159,190.14,195.122,199.475,203.311" svgx:width="0.77,0.44,0.32,0.27,0.44,0.5,0.38,0.27,0.27,0.44,0.55,0.5,0.5,0.44,0.38,0.44" style="fill:rgb(0,0,0);font-family:AdvOTb0c9bf5d;font-size:9.96px;stroke:none;">martensite phase</text>
   <text y="588.584" x="210.161,213.369,218.35,223.332" svgx:width="0.32,0.5,0.5,0.32" style="fill:rgb(0,121,173);font-family:AdvOTb0c9bf5d;font-size:9.96px;stroke:none;">[23]</text>
   <text y="588.584" x="226.546,229.036,231.478,235.314,238.004,242.985,250.1562,252.625,257.047,262.029,267.01,269.7,272.39,277.371,282.351,284.826,289.18,294.161,299.142,301.832,305.122,310.103,312.79220000000004,315.213,320.194,323.38120000000004,325.871,330.225,335.206,337.896,342.87600000000003,345.373,350.354,354.708,359.061,364.041,366.519,370.873,375.854,380.836,383.525,386.815,391.796,394.4852,396.906,399.596,403.3808,405.92,409.128,413.482,418.463,423.445,426.216,429.424,433.778,438.75800000000004,441.24,443.93,448.91,451.331,455.685,460.666,465.647,468.337" svgx:width="0.25,0.55,0.38,0.27,0.5,0.72,0.55,0.44,0.5,0.5,0.27,0.27,0.5,0.5,0.55,0.44,0.5,0.5,0.27,0.32,0.5,0.27,0.55,0.5,0.32,0.55,0.44,0.5,0.27,0.5,0.55,0.5,0.44,0.44,0.5,0.55,0.44,0.5,0.5,0.27,0.32,0.5,0.27,0.55,0.27,0.38,0.55,0.32,0.44,0.5,0.5,0.27,0.32,0.44,0.5,0.55,0.27,0.5,0.55,0.44,0.5,0.5,0.27,0.5" style="fill:rgb(0,0,0);font-family:AdvOTb0c9bf5d;font-size:9.96px;stroke:none;">, slow cooling control or cold heap control is required to avoid</text>
   <text y="603.551" x="141.733,144.423,149.404,153.7864,156.757,161.11,166.167,171.149,175.502,179.856,183.064,187.418,192.399,196.753,201.13539999999998,204.151,209.132,212.3192,215.376,219.729,222.937,227.291,231.645,236.626,239.413,244.395,249.375,252.339,257.32,262.301,265.509,268.199,273.258,278.238,281.252,283.942,288.923,293.3054,296.276,300.63,305.611,310.592,313.282,316.062,321.043,326.024,331.005,335.987,339.77180000000004,342.82,347.174,351.527,355.363,358.053,360.848,365.83,370.81,373.774,378.82,382.028,387.009,391.363,395.717,399.552,403.388" svgx:width="0.27,0.5,0.44,0.55,0.44,0.5,0.5,0.44,0.44,0.32,0.44,0.5,0.44,0.44,0.55,0.5,0.32,0.55,0.44,0.32,0.44,0.44,0.5,0.27,0.5,0.5,0.55,0.5,0.5,0.32,0.27,0.5,0.5,0.55,0.27,0.5,0.44,0.55,0.44,0.5,0.5,0.27,0.27,0.5,0.5,0.5,0.5,0.38,0.55,0.44,0.44,0.38,0.27,0.27,0.5,0.5,0.55,0.5,0.32,0.5,0.44,0.44,0.38,0.38,0.25" style="fill:rgb(0,0,0);font-family:AdvOTb0c9bf5d;font-size:9.96px;stroke:none;">the appearance of cracking during the continuous casting process.</text>
   <text y="636.435" x="141.732,147.71,150.699,156.676,159.666,164.636,173.841,177.069,183.047,189.646,193.495,197.345,202.677,212.504,219.103,224.328,229.552,235.53,239.379,245.978,251.203,256.4654,260.448,270.275,275.499,280.723,287.323,293.386,299.985,303.213,308.438,314.415,317.6442,321.677,328.276,333.5,339.478,346.077,351.301,356.526,360.375,363.603,368.828" svgx:width="0.5,0.25,0.5,0.25,0.55,0.77,0.27,0.5,0.55,0.32,0.32,0.44,0.82,0.55,0.44,0.44,0.5,0.32,0.55,0.44,0.44,0.55,0.82,0.44,0.44,0.55,0.5,0.55,0.27,0.44,0.5,0.27,0.55,0.55,0.44,0.5,0.55,0.44,0.44,0.32,0.27,0.44,0.38" style="fill:rgb(0,0,0);font-family:AdvOTe3b1fbf3.B;font-size:11.96px;stroke:none;">3.2. High-temperature mechanical properties</text>
   <text y="658.828" x="141.732,147.75,152.731,157.085,160.293,164.6754,167.471,170.16,173.9448,176.768,181.1504,183.854,188.208,190.898,195.879,199.714,204.0964,206.871,210.079,214.432,217.122,221.476,224.275,226.965,231.946,236.928,240.763,245.745,248.435,253.415,256.249,261.23,265.584,268.274,275.427,279.781,284.135,289.115,291.908,294.598,299.58,303.9624,306.762,310.597,315.578,318.786,321.994,326.348,330.702,335.055,337.745,340.55,345.531,350.512,354.866,358.0532,360.846,365.199,368.407,372.761,377.115,382.096,384.883,389.865,394.845,397.583,402.564,405.75120000000004,408.581,412.935,417.916,422.898,425.588,428.277,433.259,438.24,443.221,448.203,451.9878,454.898,459.252,463.606,467.441,470.131" svgx:width="0.6,0.5,0.44,0.32,0.44,0.55,0.27,0.38,0.55,0.44,0.55,0.44,0.27,0.5,0.38,0.44,0.55,0.32,0.44,0.27,0.44,0.27,0.27,0.5,0.5,0.38,0.5,0.27,0.5,0.55,0.5,0.44,0.27,0.72,0.44,0.44,0.5,0.55,0.27,0.5,0.44,0.55,0.38,0.5,0.32,0.32,0.44,0.44,0.44,0.27,0.27,0.5,0.5,0.44,0.32,0.55,0.44,0.32,0.44,0.44,0.5,0.27,0.5,0.5,0.55,0.5,0.32,0.55,0.44,0.5,0.5,0.27,0.27,0.5,0.5,0.5,0.5,0.38,0.55,0.44,0.44,0.38,0.27,0.32" style="fill:rgb(0,0,0);font-family:AdvOTb0c9bf5d;font-size:9.96px;stroke:none;">There is a close relationship between the surface/inner cracking of continuous cast-</text>
   <text y="673.795" x="141.732,144.422,149.403,154.38299999999998,158.853,162.689,165.378,169.732,174.712,179.149,183.571,188.552,193.53199999999998,197.971,200.661,205.642,210.02439999999999,214.411,219.393,222.082,227.064,232.045,235.331,238.021,242.374,250.127,255.108,259.462,262.67,267.024,269.714,274.695,277.903,282.28540000000004,286.751,294.422,298.776,303.129,308.111,312.546,317.527,320.217,324.571,328.924,331.6132,336.129,341.111,344.319,349.3,354.281,358.635,361.843,364.533,367.223,371.576,375.36080000000004,379.953,384.934,388.12120000000004,392.595,396.431,399.121,403.475,408.456,410.946,415.386,424.203,429.184,432.392,436.746,441.805,446.786,451.14,454.348,456.838,461.306,463.996,468.978" svgx:width="0.27,0.5,0.5,0.55,0.38,0.27,0.44,0.5,0.55,0.44,0.5,0.5,0.55,0.27,0.5,0.44,0.55,0.5,0.27,0.5,0.5,0.32,0.27,0.44,0.77,0.5,0.44,0.32,0.44,0.27,0.5,0.32,0.44,0.55,0.77,0.44,0.44,0.5,0.44,0.5,0.27,0.44,0.44,0.27,0.55,0.5,0.32,0.5,0.5,0.44,0.32,0.27,0.27,0.44,0.38,0.55,0.5,0.32,0.55,0.38,0.27,0.44,0.5,0.25,0.55,0.88,0.5,0.32,0.44,0.5,0.5,0.44,0.32,0.25,0.55,0.27,0.5,0.44" style="fill:rgb(0,0,0);font-family:AdvOTb0c9bf5d;font-size:9.96px;stroke:none;">ing slab and the high-temperature mechanical properties of slab. Moreover, the</text>
  </g>
  <rect style="fill:pink;opacity:0.2;stroke:blue;stroke-width:0.3;" x="141.732" y="114.3" height="246.784" width="331.645" title="6"/>
  <text y="114.3" class="image" id="image.6.1" width="331" height="246" x="141.732" style="font-size:5.0px;">image.6.1.142_473.114_361</text>
  <g begin="text">
   <text y="321.222" x="141.732,146.546,148.698,152.683,154.6755,157.322,161.307" svgx:width="0.6,0.27,0.5,0.25,0.55,0.5,0.25" style="fill:rgb(0,0,0);font-family:AdvOTe3b1fbf3.B;font-size:7.97px;stroke:none;">Fig. 2.</text>
   <text y="321.222" x="166.734,171.548,175.533,179.03979999999999,181.644,186.952,192.26,197.042,199.728,203.211,207.196,209.763,213.748,217.231,220.2596,222.915,226.9,229.4504,232.099,236.084,238.236,242.221,246.206,248.773,252.256,254.408,256.56,260.545,264.53000000000003,267.134,273.271,277.256,281.241,283.393,287.378,289.98,293.049,295.201,298.684,302.167,304.3189,306.931,310.0,312.152,315.635,319.62,322.295,325.778,327.92990000000003,330.572,334.557,336.7,341.462,344.945,347.512,350.995,354.98,357.13190000000003,359.774,363.257,367.242,371.227,373.379,375.531,379.516,383.50100000000003,386.135,388.702,392.185,394.337,397.819,400.888" svgx:width="0.6,0.5,0.44,0.55,0.67,0.67,0.6,0.55,0.44,0.5,0.32,0.5,0.44,0.38,0.55,0.5,0.32,0.55,0.5,0.27,0.5,0.5,0.32,0.44,0.27,0.27,0.5,0.5,0.55,0.77,0.5,0.5,0.27,0.5,0.55,0.38,0.27,0.44,0.44,0.27,0.55,0.38,0.27,0.44,0.5,0.55,0.44,0.27,0.55,0.5,0.27,0.6,0.44,0.32,0.44,0.5,0.27,0.55,0.44,0.5,0.5,0.27,0.27,0.5,0.5,0.55,0.32,0.44,0.27,0.44,0.38,0.25" style="fill:rgb(0,0,0);font-family:AdvOTb0c9bf5d;font-size:7.97px;stroke:none;">The CCT curves of high-alloy mould steel slab at diﬀerent cooling rates.</text>
  </g>
  <path style="fill:rgb(153,153,153);stroke:none;stroke-width:1.0;" d="M141.730 56.980 L473.330 56.980 L473.330 303.760 L141.730 303.760 "/>
  <g begin="text">
   <text y="710.646" x="42.52" svgx:width="0.5" style="fill:rgb(0,0,0);font-family:AdvOTe3b1fbf3.B;font-size:6.48px;stroke:none;">6</text>
   <text y="710.646" x="62.362,65.6,67.348,69.097,72.334,74.828,76.576,78.324,80.073,83.311,86.549,88.297,89.916,93.154,95.239,98.477,100.225,103.463,106.701,108.32,111.558,114.796,118.033,121.271,123.02,124.669,126.288,129.526,132.356,134.104,135.853,139.09,142.328,145.566,147.185,150.423,153.661,156.899,160.137,161.755,164.585,167.823,171.061,174.299,177.537" svgx:width="0.5,0.27,0.27,0.5,0.38,0.27,0.27,0.27,0.5,0.5,0.27,0.25,0.5,0.32,0.5,0.27,0.5,0.5,0.25,0.5,0.5,0.5,0.5,0.27,0.27,0.25,0.5,0.44,0.27,0.27,0.5,0.5,0.5,0.25,0.5,0.5,0.5,0.5,0.25,0.44,0.5,0.5,0.5,0.5,0.5" style="fill:rgb(0,121,173);font-family:AdvOTb0c9bf5d;font-size:6.48px;stroke:none;">https://doi.org/10.1016/j.heliyon.2019.e01329</text>
   <text y="720.623" x="62.362,65.6,68.838,72.075,75.313,77.398,80.636,83.874,87.112,90.35" svgx:width="0.5,0.5,0.5,0.5,0.32,0.5,0.5,0.5,0.5,0.27" style="fill:rgb(0,0,0);font-family:AdvOTb0c9bf5d;font-size:6.48px;stroke:none;">2405-8440/</text>
   <text y="720.623" code="1" x="92.069" svgx:width="0.79" style="fill:rgb(0,0,0);font-family:AdvPSSym;font-size:6.48px;stroke:none;">?</text>
   <text y="720.623" x="99.325,102.563,105.801,109.039,112.279,114.406,118.317,121.555,124.40620000000001,126.538,131.188,134.425,136.174,139.412,142.65,144.735,147.228,148.848,150.973,154.548,157.786,161.024,162.772,164.521,167.014,170.252,173.081,176.321,178.414,181.651,184.89100000000002,187.031,190.942,192.691,195.184,198.014,201.251,203.0,205.83,207.9036,210.105,214.016,215.765,219.003,220.623,222.748,226.659,229.897,231.645,234.1074,236.297,238.046,240.5084,242.704,245.534,248.774,250.868,254.105,257.343,260.173,263.413,265.551,268.381,271.211,274.041,276.871,279.364,281.8264,284.034,286.864,288.949,290.697,292.446,295.276,297.024,299.8752,302.006,305.244,308.481,311.719,314.549,316.6226,318.788,320.536,323.774,326.6252,328.709,333.022,337.3636,339.481,343.793,348.443,350.528,355.178,359.491,361.576,366.225,370.8906,373.044,374.792,376.54,379.37,382.2,385.438,387.931" svgx:width="0.5,0.5,0.5,0.5,0.55,0.6,0.5,0.44,0.55,0.72,0.5,0.27,0.5,0.5,0.32,0.38,0.25,0.55,0.55,0.5,0.5,0.27,0.27,0.38,0.5,0.44,0.5,0.55,0.5,0.5,0.55,0.6,0.27,0.38,0.44,0.5,0.27,0.44,0.32,0.55,0.6,0.27,0.5,0.25,0.55,0.6,0.5,0.27,0.38,0.55,0.27,0.38,0.55,0.44,0.5,0.55,0.5,0.5,0.44,0.5,0.55,0.44,0.44,0.44,0.44,0.38,0.38,0.55,0.44,0.32,0.27,0.27,0.44,0.27,0.44,0.55,0.5,0.5,0.5,0.44,0.32,0.55,0.27,0.5,0.44,0.55,0.67,0.67,0.55,0.67,0.72,0.32,0.72,0.67,0.32,0.72,0.72,0.55,0.27,0.27,0.44,0.44,0.5,0.38,0.44" style="fill:rgb(0,0,0);font-family:AdvOTb0c9bf5d;font-size:6.48px;stroke:none;">2019 The Authors. Published by Elsevier Ltd. This is an open access article under the CC BY-NC-ND license</text>
   <text y="730.545" x="62.362" svgx:width="0.32" style="fill:rgb(0,0,0);font-family:AdvOTb0c9bf5d;font-size:6.48px;stroke:none;">(</text>
   <text y="730.545" x="64.459,67.697,69.446,71.194,74.432,76.18,77.929,79.677,82.507,84.592,87.422,90.252,92.0,93.749,96.987,99.817,102.647,105.884,110.871,115.857,119.095,122.287,124.78,126.399,129.637,131.722,134.96,136.709,138.457,140.206,143.035,145.865,149.103,151.596,154.426,156.919,158.668,161.906,165.144,167.229,170.467,173.296,175.297,178.535,181.773,183.521,186.759,188.378,191.616" svgx:width="0.5,0.27,0.27,0.5,0.27,0.27,0.27,0.44,0.32,0.44,0.44,0.27,0.27,0.5,0.44,0.44,0.5,0.77,0.77,0.5,0.5,0.38,0.25,0.5,0.32,0.5,0.27,0.27,0.27,0.44,0.44,0.5,0.38,0.44,0.38,0.27,0.5,0.5,0.32,0.5,0.44,0.32,0.5,0.5,0.27,0.5,0.25,0.5,0.27" style="fill:rgb(0,121,173);font-family:AdvOTb0c9bf5d;font-size:6.48px;stroke:none;">http://creativecommons.org/licenses/by-nc-nd/4.0/</text>
   <text y="730.545" x="193.378,195.463" svgx:width="0.32,0.25" style="fill:rgb(0,0,0);font-family:AdvOTb0c9bf5d;font-size:6.48px;stroke:none;">).</text>
  </g>
  <rect style="fill:pink;opacity:0.2;stroke:blue;stroke-width:0.3;" x="141.732" y="75.748" height="19.389" width="56.013" title="6"/>
  <text y="75.748" class="image" id="image.6.2" width="56" height="19" x="141.732" style="font-size:5.0px;">image.6.2.142_198.76_95</text>
  <g begin="text">
   <text y="37.871" x="422.929,426.84,429.333,431.082,432.83,435.66,437.409,440.2602,442.375,446.688" svgx:width="0.6,0.38,0.27,0.27,0.44,0.27,0.44,0.55,0.67,0.5" style="fill:rgb(0,0,0);font-family:AdvOT6bc95374.I;font-size:6.48px;stroke:none;">Article No</text>
   <text y="37.871" x="448.951" svgx:width="1.0" style="fill:rgb(0,0,0);font-family:AdvPS3FDD77;font-size:6.48px;stroke:none;">w</text>
   <text y="37.871" x="454.393,457.223,460.461,463.699,466.937,470.174" svgx:width="0.44,0.5,0.5,0.5,0.5,0.5" style="fill:rgb(0,0,0);font-family:AdvOT6bc95374.I;font-size:6.48px;stroke:none;">e01329</text>
  </g>
 </g>
</svg>
