<?xml version="1.0" encoding="UTF-8"?>
<svg height="740.545" width="2651.732" xmlns="http://www.w3.org/2000/svg">
 <g id="page" xmlns:svgx="http://www.xml-cml.org/schema/svgx">
  <g begin="text">
   <text y="385.909" x="141.732,146.713,149.403,154.385,159.366,162.652,165.342,169.695,177.366,182.348,186.701,189.909,194.263,197.063,202.045,205.253,209.63539999999998,212.937,217.918,222.899,227.253,229.943,232.723,235.412,238.102,240.792,245.772,249.107,254.088,257.2752,260.616,263.306,268.287,272.6694,276.036,279.872,282.561,286.915,291.89500000000004,295.255,297.945,301.7298,305.12,308.328,313.309,318.29,323.272,327.625,335.296,339.65,344.631,347.321,351.778,354.46720000000005,357.787,360.477,365.457,368.786,373.139,378.196,383.186,388.685,393.666,398.648,401.856,404.546,409.527,414.507,417.881,420.571,425.553,429.9354,433.245,437.08,441.434,445.788,450.769,455.75,460.732,465.162,468.37" svgx:width="0.5,0.27,0.5,0.5,0.32,0.27,0.44,0.77,0.5,0.44,0.32,0.44,0.27,0.5,0.32,0.44,0.55,0.5,0.5,0.44,0.27,0.27,0.27,0.27,0.27,0.5,0.55,0.5,0.32,0.55,0.27,0.5,0.44,0.55,0.38,0.27,0.44,0.5,0.55,0.27,0.38,0.55,0.32,0.5,0.5,0.5,0.44,0.77,0.44,0.5,0.27,0.44,0.27,0.55,0.27,0.5,0.55,0.44,0.5,0.5,0.55,0.5,0.5,0.32,0.27,0.5,0.5,0.55,0.27,0.5,0.44,0.55,0.38,0.44,0.44,0.5,0.5,0.5,0.44,0.32,0.5" style="fill:rgb(0,0,0);font-family:AdvOTb0c9bf5d;font-size:9.96px;stroke:none;">high-temperature ductility of the slab is fundamental in conﬁguring the secondary</text>
   <text y="400.819" x="141.732,146.086,151.067,156.048,158.738,161.428,166.506,171.486,173.99,177.826,182.807,186.643,189.41,193.764,201.435,203.925,206.474,212.492,217.473,221.894,225.102,229.456,232.664,237.645,240.853,245.207,247.697,250.297,252.986,257.966,260.558,265.539,268.747,273.729,278.082,281.2692,283.859,286.548,291.528,294.12,298.474,303.455,308.436,311.126,316.106,318.668,321.358,326.339,330.7214,333.295,337.131,342.112,345.32,348.528,352.881,357.235,361.589,364.279,367.083,372.064,377.046,381.399,384.5862,387.152,391.505,394.713,399.067,403.421,408.402,411.19,416.171,421.151,423.719,428.072,433.053,438.033,440.613,445.594,449.948,453.784,456.474,461.455,466.435,469.015" svgx:width="0.44,0.5,0.5,0.27,0.27,0.5,0.5,0.55,0.38,0.5,0.38,0.27,0.44,0.77,0.25,0.55,0.6,0.5,0.44,0.32,0.44,0.32,0.5,0.32,0.44,0.25,0.55,0.27,0.5,0.55,0.5,0.32,0.5,0.44,0.32,0.55,0.27,0.5,0.55,0.44,0.5,0.5,0.27,0.5,0.55,0.27,0.5,0.44,0.55,0.38,0.5,0.32,0.32,0.44,0.44,0.44,0.27,0.27,0.5,0.5,0.44,0.32,0.55,0.44,0.32,0.44,0.44,0.5,0.27,0.5,0.5,0.55,0.44,0.5,0.5,0.55,0.5,0.44,0.38,0.27,0.5,0.5,0.55,0.44" style="fill:rgb(0,0,0);font-family:AdvOTb0c9bf5d;font-size:9.96px;stroke:none;">cooling system. Therefore, in order to avoid the surface/inner cracking and design a</text>
   <text y="415.785" x="141.732,146.713,151.067,153.757,156.447,160.801,163.98819999999998,167.017,170.853,175.206,179.56,184.541,189.523,194.504,198.991,202.199,207.179,210.159,214.513,219.494,224.475,227.165,229.855,234.837,239.81699999999998,242.814,247.795,251.003,255.984,260.338,264.691,268.609,272.444,274.934,277.906,280.596,283.28520000000003,286.296,288.986,292.7708,295.764,300.745,305.099,309.453,313.806,317.642,321.559,325.913,329.121,334.101,337.093,339.783,344.76300000000003,347.751,351.586,354.276,359.258,364.239,369.219,372.242,374.932,379.913,384.29540000000003,387.265,392.247,394.937,399.918,404.899,408.107,410.797,415.151,422.925,427.906,432.26,435.467,439.821,442.511,447.492,450.7,455.0824,458.074,465.745,470.099" svgx:width="0.5,0.44,0.27,0.27,0.44,0.32,0.55,0.38,0.44,0.44,0.5,0.5,0.5,0.44,0.32,0.5,0.55,0.44,0.5,0.5,0.27,0.27,0.5,0.5,0.55,0.5,0.32,0.5,0.44,0.44,0.38,0.38,0.25,0.55,0.27,0.27,0.55,0.27,0.38,0.55,0.5,0.44,0.44,0.44,0.38,0.38,0.44,0.32,0.5,0.55,0.27,0.5,0.55,0.38,0.27,0.5,0.5,0.5,0.55,0.27,0.5,0.44,0.55,0.5,0.27,0.5,0.5,0.32,0.27,0.44,0.77,0.5,0.44,0.32,0.44,0.27,0.5,0.32,0.44,0.55,0.77,0.44,0.32" style="fill:rgb(0,0,0);font-family:AdvOTb0c9bf5d;font-size:9.96px;stroke:none;">better secondary cooling process, it is necessary to study the high-temperature me-</text>
   <text y="430.695" x="141.732,146.086,151.067,155.421,160.402,163.092,167.527,171.881,174.5702,180.68,185.661,188.869,193.85,198.832,203.185,206.475,209.165,211.855,216.209,219.9938,226.204,231.185,234.3722,240.49,244.326,247.016,251.37,256.351,258.841,264.981,272.135,277.116,280.402,285.383,288.591,291.281,296.262,301.243,305.597,308.287,312.641,315.437,320.418,322.908,328.986,331.676,336.657,341.011,344.219,348.6014,354.725,357.414,361.1988,367.367,370.575,374.929,378.137,382.5194,388.683,391.891,396.245,401.226,406.207,409.415,412.10420000000005,418.276,423.257,428.237,434.32,437.01,441.991,446.3734,452.462,457.443,460.133,465.114,470.095" svgx:width="0.44,0.5,0.44,0.5,0.27,0.44,0.44,0.27,0.55,0.5,0.32,0.5,0.5,0.44,0.32,0.27,0.27,0.44,0.38,0.55,0.5,0.32,0.55,0.38,0.27,0.44,0.5,0.25,0.55,0.72,0.5,0.32,0.5,0.32,0.27,0.5,0.5,0.44,0.27,0.44,0.27,0.5,0.25,0.55,0.27,0.5,0.44,0.32,0.44,0.55,0.27,0.38,0.55,0.32,0.44,0.32,0.44,0.55,0.32,0.44,0.5,0.5,0.32,0.27,0.55,0.5,0.5,0.55,0.27,0.5,0.44,0.55,0.5,0.27,0.5,0.5,0.32" style="fill:rgb(0,0,0);font-family:AdvOTb0c9bf5d;font-size:9.96px;stroke:none;">chanical properties of slab. Unfortunately, there is rare report on the high-</text>
   <text y="445.662" x="141.732,144.422,148.776,156.447,161.428,165.883,169.09,173.444,176.134,181.115,184.323,188.7054,192.925,197.906,202.888,207.241,209.931,212.711,215.401,218.09,220.78,225.76,230.002,234.983,238.1702,242.417,247.398,250.088,255.07,260.051,263.259,267.613,270.302,272.992,278.076,283.05600000000004,287.261,291.096,293.786,298.14,302.494,305.184,307.67400000000004,311.922,319.075,324.057,326.832,331.186,336.166,340.381,345.363,349.716,353.5008,357.786,362.1684,366.347,371.328,374.018,378.999,383.97900000000004,388.23,392.583,396.937,400.145,405.126,410.108,415.088,419.354,423.708,428.689,433.67,436.36,440.714,445.773,448.463,450.95300000000003,455.183,459.019,464.0,468.354" svgx:width="0.27,0.44,0.77,0.5,0.44,0.32,0.44,0.27,0.5,0.32,0.44,0.55,0.5,0.5,0.44,0.27,0.27,0.27,0.27,0.27,0.5,0.55,0.5,0.32,0.55,0.5,0.27,0.5,0.5,0.32,0.44,0.27,0.27,0.5,0.5,0.55,0.38,0.27,0.44,0.44,0.27,0.25,0.55,0.72,0.5,0.27,0.44,0.5,0.55,0.5,0.44,0.38,0.55,0.44,0.55,0.5,0.27,0.5,0.5,0.55,0.44,0.44,0.32,0.5,0.5,0.5,0.55,0.44,0.5,0.5,0.27,0.44,0.5,0.27,0.25,0.55,0.38,0.5,0.44,0.5" style="fill:rgb(0,0,0);font-family:AdvOTb0c9bf5d;font-size:9.96px;stroke:none;">temperature ductility of high-alloy steel, which has a high carbon content, such</text>
   <text y="460.629" x="141.732,146.086,149.8708,153.41,161.082,166.063,171.044,173.82,178.79999999999998,182.267,186.103,188.792,193.146,197.5,200.295" svgx:width="0.44,0.38,0.55,0.77,0.5,0.5,0.27,0.5,0.55,0.38,0.27,0.44,0.44,0.27,0.25" style="fill:rgb(0,0,0);font-family:AdvOTb0c9bf5d;font-size:9.96px;stroke:none;">as mould steel.</text>
   <text y="483.023" x="141.732,147.232,149.921,154.903,157.393,160.157" svgx:width="0.55,0.27,0.5,0.25,0.55,0.5" style="fill:rgb(0,121,173);font-family:AdvOTb0c9bf5d;font-size:9.96px;stroke:none;">Fig. 4</text>
   <text y="483.023" x="167.924,171.759,176.741,181.722,188.957,192.74179999999998,195.533,198.223,203.204,207.5864,210.33,213.02,217.373,222.354,226.19,228.982,231.672,236.0544,238.79,242.625,245.315,248.523,252.877,257.858,262.839,265.529,270.509,273.372,278.353,281.5402,284.314,289.295,291.985,296.966,301.948,305.233,309.587,312.277,314.967,319.948,324.928,327.74,335.411,340.392,345.374,348.064,353.04400000000004,355.859,359.695,362.385,366.738,371.092,373.7812,376.608,380.444,383.134,387.488,392.468,395.26,400.242,404.595,407.285,414.438,418.792,423.146,428.12600000000003,430.976,435.958,440.939" svgx:width="0.38,0.5,0.5,0.72,0.38,0.55,0.27,0.5,0.44,0.55,0.27,0.44,0.5,0.38,0.27,0.27,0.44,0.55,0.38,0.27,0.32,0.44,0.5,0.5,0.27,0.5,0.55,0.5,0.32,0.55,0.5,0.27,0.5,0.5,0.32,0.44,0.27,0.27,0.5,0.5,0.55,0.77,0.5,0.5,0.27,0.5,0.55,0.38,0.27,0.44,0.44,0.27,0.55,0.38,0.27,0.44,0.5,0.55,0.5,0.44,0.27,0.72,0.44,0.44,0.5,0.55,0.5,0.5,0.5" style="fill:rgb(0,0,0);font-family:AdvOTb0c9bf5d;font-size:9.96px;stroke:none;">shows the tensile strength of high-alloy mould steel slab between 973</text>
   <text y="483.023" x="445.945" svgx:width="0.75" style="fill:rgb(0,0,0);font-family:AdvPS44A44B;font-size:9.96px;stroke:none;">e</text>
   <text y="483.023" x="453.429,458.41,463.392,468.373" svgx:width="0.5,0.5,0.5,0.5" style="fill:rgb(0,0,0);font-family:AdvOTb0c9bf5d;font-size:9.96px;stroke:none;">1623</text>
   <text y="497.99" x="141.733,148.886,151.376,154.319,157.527,160.2162,163.22,167.573,172.555,177.536,180.226,185.206,188.164,193.145,197.5274,200.466,204.819,209.801,214.782,219.136,221.826,226.885,231.866,236.219,241.19899999999998,244.176,246.865,251.847,256.2,258.8892,261.863,264.553,269.534,273.9164,276.887,279.577,283.93,288.912,292.747,295.437,298.127,302.5094,305.516,309.352,312.042,315.25,319.604,324.585,329.566,332.256,337.236,340.269,342.959,346.7438,349.736,354.718,359.071,363.425,366.633,370.987,375.34,379.273,381.962,386.944,391.92400000000004,394.92,399.273,401.963,406.945,411.926,416.906,419.864,427.017,429.785,432.475,437.45500000000004,440.386,443.076,448.057,452.43940000000003,455.41,458.1,462.453,470.125" svgx:width="0.72,0.25,0.55,0.32,0.27,0.55,0.44,0.5,0.5,0.27,0.5,0.55,0.5,0.44,0.55,0.44,0.5,0.5,0.44,0.27,0.5,0.5,0.44,0.5,0.55,0.27,0.5,0.44,0.27,0.55,0.27,0.5,0.44,0.55,0.27,0.44,0.5,0.38,0.27,0.27,0.44,0.55,0.38,0.27,0.32,0.44,0.5,0.5,0.27,0.5,0.55,0.27,0.38,0.55,0.5,0.44,0.44,0.32,0.44,0.44,0.38,0.27,0.5,0.5,0.55,0.44,0.27,0.5,0.5,0.5,0.55,0.72,0.27,0.27,0.5,0.55,0.27,0.5,0.44,0.55,0.27,0.44,0.77,0.32" style="fill:rgb(0,0,0);font-family:AdvOTb0c9bf5d;font-size:9.96px;stroke:none;">K. It could be concluded that the tensile strength is decreasing along with the tem-</text>
   <text y="512.9" x="141.733,146.715,151.068,154.276,158.63,161.405,166.387,169.595,173.9774,176.259,178.949,183.93,188.283,191.491,195.931,200.284,204.12,208.474,210.964,213.335,219.353,224.334,228.7164,231.023,233.713,238.067,243.048,246.883,249.573,252.263,256.6454,259.029,262.864,265.554,268.762,273.116,278.097,283.079,285.768,290.748,293.158,296.366,300.719,308.391,312.744,315.434,320.415,324.19980000000004,326.663,330.499,335.48,339.834,342.523,345.213,350.195,357.3662,359.715,364.069,369.126,374.106,376.382,381.364,385.717,390.699,393.388,396.168,400.5504,402.858,407.839,411.047,415.401,420.382,423.072,427.426,432.407,435.0962,437.497,444.65,449.631,453.985,458.96500000000003,461.308,463.997,468.979" svgx:width="0.5,0.44,0.32,0.44,0.27,0.5,0.32,0.44,0.55,0.27,0.5,0.44,0.32,0.44,0.44,0.38,0.44,0.25,0.55,0.6,0.5,0.44,0.55,0.27,0.44,0.5,0.38,0.27,0.27,0.44,0.55,0.38,0.27,0.32,0.44,0.5,0.5,0.27,0.5,0.55,0.32,0.44,0.77,0.44,0.27,0.5,0.38,0.55,0.38,0.5,0.44,0.27,0.27,0.5,0.72,0.55,0.44,0.5,0.5,0.55,0.5,0.44,0.5,0.27,0.27,0.44,0.55,0.5,0.32,0.44,0.5,0.27,0.44,0.5,0.27,0.55,0.72,0.5,0.44,0.5,0.55,0.27,0.5,0.44" style="fill:rgb(0,0,0);font-family:AdvOTb0c9bf5d;font-size:9.96px;stroke:none;">perature increase. The tensile strength remains shallow and gentle gradient when the</text>
   <text y="527.867" x="141.733,144.423,148.777,156.448,161.429,165.884,169.092,173.445,176.135,181.116,184.324,188.7064,191.736,194.425,198.2098,201.26,205.613,210.595,215.576,220.557,224.93939999999998,227.961,232.943,237.924,242.905,247.885,250.922,258.075" svgx:width="0.27,0.44,0.77,0.5,0.44,0.32,0.44,0.27,0.5,0.32,0.44,0.55,0.27,0.38,0.55,0.44,0.5,0.5,0.5,0.44,0.55,0.5,0.5,0.5,0.5,0.55,0.72,0.25" style="fill:rgb(0,0,0);font-family:AdvOTb0c9bf5d;font-size:9.96px;stroke:none;">temperature is above 1273 K.</text>
   <text y="550.261" x="141.733,147.233,149.923,154.904,157.394,160.272" svgx:width="0.55,0.27,0.5,0.25,0.55,0.5" style="fill:rgb(0,121,173);font-family:AdvOTb0c9bf5d;font-size:9.96px;stroke:none;">Fig. 5</text>
   <text y="550.261" x="168.095,171.931,176.912,181.893,189.128,192.91279999999998,195.818,198.508,203.489,207.8714,210.671,215.025,220.006,224.988,227.678,230.967,235.321,239.675,242.364,245.054,250.036,255.016,257.953,262.934,266.12120000000004,269.007,273.361,276.569,281.55,285.386,289.221,292.429,296.265,300.619,304.972,307.785,310.475,315.456,320.437,324.791,327.4802,330.348,334.702,337.91,342.263,346.6454,349.51,352.718,359.353,366.506,369.6932,372.64,377.622,380.80920000000003,383.696,388.677,391.367,396.348,401.33,404.615,408.969,411.659,414.349,419.33,424.31,427.179,434.85,439.831,444.812,447.588,452.56800000000004,455.412,459.247,461.937,466.291,470.644" svgx:width="0.38,0.5,0.5,0.72,0.38,0.55,0.27,0.5,0.44,0.55,0.44,0.5,0.5,0.27,0.32,0.44,0.44,0.27,0.27,0.5,0.5,0.55,0.5,0.32,0.55,0.44,0.32,0.5,0.38,0.38,0.32,0.38,0.44,0.44,0.27,0.27,0.5,0.5,0.44,0.27,0.55,0.44,0.32,0.44,0.44,0.55,0.32,0.67,0.72,0.32,0.55,0.5,0.32,0.55,0.5,0.27,0.5,0.5,0.32,0.44,0.27,0.27,0.5,0.5,0.55,0.77,0.5,0.5,0.27,0.5,0.55,0.38,0.27,0.44,0.44,0.27" style="fill:rgb(0,0,0);font-family:AdvOTb0c9bf5d;font-size:9.96px;stroke:none;">shows the contraction of cross-sectional area (RA) of high-alloy mould steel</text>
   <text y="565.227" x="141.733,144.423,149.403,152.391,157.373,160.101,166.111,170.464,173.672,178.026,183.007,185.6962,188.731,191.421,195.774,203.527,208.509,212.862,216.07,220.424,223.114,228.095,231.303,235.657,238.14700000000002,241.171,247.806,254.9772,258.009,260.699,265.68,270.034,273.242,277.595,281.949,285.784,290.138,293.9228,297.069,300.277,303.485,308.466,316.1352,319.122,324.104,329.085,331.576,336.55600000000004,339.588,346.95840000000004,349.907,352.597,357.577,360.565,365.546,370.599,375.58,380.56,383.524,390.678,393.168,396.167,398.857,403.83700000000005,406.825,411.806,416.786,419.75,427.1204,430.126,432.815,437.795,440.784,445.765,450.746,455.727,460.707,463.688,470.841" svgx:width="0.27,0.5,0.55,0.5,0.27,0.6,0.44,0.32,0.44,0.5,0.27,0.55,0.27,0.44,0.77,0.5,0.44,0.32,0.44,0.27,0.5,0.32,0.44,0.25,0.55,0.67,0.72,0.55,0.27,0.5,0.44,0.32,0.44,0.44,0.38,0.44,0.38,0.55,0.32,0.32,0.5,0.77,0.55,0.5,0.5,0.25,0.5,0.55,0.74,0.55,0.27,0.5,0.55,0.5,0.5,0.5,0.5,0.55,0.72,0.25,0.55,0.27,0.5,0.55,0.5,0.5,0.55,0.74,0.55,0.27,0.5,0.55,0.5,0.5,0.5,0.5,0.55,0.72,0.25" style="fill:rgb(0,0,0);font-family:AdvOTb0c9bf5d;font-size:9.96px;stroke:none;">in diﬀerent temperature. RA increases from 57.6 % in 1623 K, to 86 % in 1473 K.</text>
   <text y="580.138" x="141.733,147.751,152.732,157.1144,160.839,164.674,169.028,176.699,181.758,184.448,188.802,192.58679999999998,196.385,200.221,205.202,210.183,217.3542,221.046,226.028,231.081,236.062,241.042,244.743,249.725,254.706,259.06,261.75,264.529,267.219,269.909,272.599,277.579,281.31,286.292,290.645,293.335,300.488,304.842,309.196,314.17600000000004,317.99,322.971,327.952,332.933" svgx:width="0.6,0.5,0.44,0.55,0.38,0.44,0.77,0.5,0.27,0.44,0.38,0.55,0.38,0.5,0.5,0.72,0.55,0.5,0.5,0.5,0.5,0.55,0.5,0.5,0.44,0.27,0.27,0.27,0.27,0.27,0.5,0.55,0.5,0.44,0.27,0.72,0.44,0.44,0.5,0.55,0.5,0.5,0.5,0.5" style="fill:rgb(0,0,0);font-family:AdvOTb0c9bf5d;font-size:9.96px;stroke:none;">The samples show good ductility between 1198</text>
   <text y="580.138" x="337.947" svgx:width="0.75" style="fill:rgb(0,0,0);font-family:AdvPS44A44B;font-size:9.96px;stroke:none;">e</text>
   <text y="580.138" x="345.43,350.411,355.392,360.373,365.355,372.586,375.076,378.765,383.119,388.1,393.08000000000004,396.85,399.54,404.522,408.9044,412.611,419.246,426.4,430.1848,433.984,438.338,441.546,445.9284,449.688,454.042,459.023,464.004,468.986" svgx:width="0.5,0.5,0.5,0.5,0.72,0.25,0.55,0.44,0.5,0.5,0.55,0.27,0.5,0.44,0.55,0.67,0.72,0.38,0.55,0.44,0.32,0.44,0.55,0.44,0.5,0.5,0.5,0.44" style="fill:rgb(0,0,0);font-family:AdvOTb0c9bf5d;font-size:9.96px;stroke:none;">1523K, and the RAs are above</text>
   <text y="595.104" x="141.733,146.087,151.068,156.049,159.257,164.239,169.22,172.007,179.678,184.031,186.721,191.075,193.765,198.74499999999998,202.223,207.204,212.184,215.546,222.908,225.398,228.812,232.02,236.374,240.728,245.081,250.062,252.85,257.831,262.81100000000004,266.173,268.863,273.843,277.284,282.266,287.24600000000004,290.664,298.026,300.516,303.874,309.891,314.872,319.25440000000003,322.639,329.274,336.4452,339.873,344.855,349.208,353.562,356.77,361.124,365.477,369.41,373.763,377.5478,380.975,385.329,388.019,393.0,397.981,402.961,406.43,413.583,416.273,418.962,423.942,427.349,430.039,435.02,439.4024,442.826,445.516,449.869,457.541,462.522,466.876,470.084" svgx:width="0.44,0.5,0.5,0.32,0.5,0.5,0.27,0.77,0.44,0.27,0.44,0.27,0.5,0.55,0.5,0.5,0.55,0.74,0.25,0.55,0.32,0.44,0.44,0.44,0.5,0.27,0.5,0.5,0.55,0.27,0.5,0.55,0.5,0.5,0.55,0.74,0.25,0.55,0.6,0.5,0.44,0.55,0.67,0.72,0.55,0.5,0.44,0.44,0.32,0.44,0.44,0.38,0.44,0.38,0.55,0.44,0.27,0.5,0.5,0.5,0.55,0.72,0.27,0.27,0.5,0.55,0.27,0.5,0.44,0.55,0.27,0.44,0.77,0.5,0.44,0.32,0.32" style="fill:rgb(0,0,0);font-family:AdvOTb0c9bf5d;font-size:9.96px;stroke:none;">approximately 70 %, reaching to 89 %. The RA decreases along with the temper-</text>
   <text y="610.071" x="141.733,146.087,148.777,153.758,156.966,161.405,163.895,167.301,174.454,179.436,183.789,188.76899999999998,192.302,194.992,199.974,204.35639999999998,207.779,210.469,214.823,222.576,227.557,231.911,235.119,239.472,242.162,247.143,250.351,254.7334,258.235,260.925,264.70980000000003,268.212,270.902,275.884,283.122,287.476,290.6632,294.121,296.811,301.792,306.146,311.12600000000003,314.644,319.625,324.607,329.588,334.56800000000004,338.058,345.211,347.701,351.154,359.971,362.661,367.642,370.332,374.686,377.176,380.69,385.044,387.734" svgx:width="0.44,0.27,0.5,0.32,0.44,0.25,0.55,0.72,0.5,0.44,0.5,0.55,0.27,0.5,0.44,0.55,0.27,0.44,0.77,0.5,0.44,0.32,0.44,0.27,0.5,0.32,0.44,0.55,0.27,0.38,0.55,0.27,0.5,0.72,0.44,0.32,0.55,0.27,0.5,0.44,0.5,0.55,0.5,0.5,0.5,0.5,0.55,0.72,0.25,0.55,0.88,0.27,0.5,0.27,0.44,0.25,0.55,0.44,0.27,0.44" style="fill:rgb(0,0,0);font-family:AdvOTb0c9bf5d;font-size:9.96px;stroke:none;">ature, when the temperature is lower than 1323 K. Mintz. etc</text>
   <text y="610.071" x="395.603,398.811,403.792,408.774" svgx:width="0.32,0.5,0.5,0.32" style="fill:rgb(0,121,173);font-family:AdvOTb0c9bf5d;font-size:9.96px;stroke:none;">[20]</text>
   <text y="610.071" x="415.446,420.427,424.781,429.762,434.1444,437.613,442.594,447.575,451.411,455.764,458.972,464.031,468.385" svgx:width="0.5,0.44,0.5,0.44,0.55,0.5,0.5,0.38,0.44,0.32,0.5,0.44,0.5" style="fill:rgb(0,0,0);font-family:AdvOTb0c9bf5d;font-size:9.96px;stroke:none;">have observed</text>
   <text y="624.981" x="141.733,144.423,149.404,153.7864,156.53,159.22,164.201,168.555,171.762,176.202,180.555,184.391,188.77339999999998,191.565,196.546,199.73319999999998,202.507,206.861,211.842,216.823,219.513,222.293,227.274,232.255,237.237,242.218,246.00279999999998,248.825,252.661,255.351,259.704,264.684,267.534,271.369,276.351,279.559,282.767,287.12,291.474,295.8564,298.658,303.012,306.22,310.573,314.927,319.908,322.696,327.677,332.65700000000004,335.452,342.605,347.586,351.94,356.92,359.716,362.406,367.387,371.7694,374.512,381.147,388.3182,391.123,393.813,397.5978,400.42,403.11,407.464,411.299,415.0838,417.938,420.628,425.61,429.963,434.94300000000004,437.781,442.762,447.743,455.106,457.596,460.401,465.9,470.882" svgx:width="0.27,0.5,0.44,0.55,0.27,0.5,0.44,0.32,0.44,0.44,0.38,0.44,0.55,0.5,0.32,0.55,0.44,0.5,0.5,0.27,0.27,0.5,0.5,0.5,0.5,0.38,0.55,0.38,0.27,0.44,0.5,0.55,0.38,0.5,0.32,0.32,0.44,0.44,0.44,0.55,0.44,0.32,0.44,0.44,0.5,0.27,0.5,0.5,0.55,0.72,0.5,0.44,0.5,0.55,0.27,0.5,0.44,0.55,0.67,0.72,0.55,0.27,0.38,0.55,0.27,0.44,0.38,0.38,0.55,0.27,0.5,0.44,0.5,0.55,0.5,0.5,0.74,0.25,0.55,0.55,0.5,0.25" style="fill:rgb(0,0,0);font-family:AdvOTb0c9bf5d;font-size:9.96px;stroke:none;">the increase of continuous slab surface cracking when the RA is less than 40%. So,</text>
   <text y="639.948" x="141.733,144.423,149.404,153.7864,157.324,163.959,171.1302,174.672,179.653,184.007,186.696,191.678,196.0604,199.616,204.597,207.7842,211.351,216.332,221.31199999999998,224.843,232.21339999999998,235.785,242.938,247.292,251.0768,254.663,258.499,262.853,265.54220000000004,269.12,273.474,277.2588,280.855,285.23740000000004,288.735,293.089,296.297,298.987,301.774,306.128,309.336,312.026,317.007,321.987,325.528,328.218,333.19800000000004,336.753,341.107,346.088,350.442,353.132,358.113,362.548,365.238,369.6204,373.15,375.839,380.821,385.20340000000004,388.74,393.721,396.929,399.619,402.309,404.999,407.789,412.142,417.124,421.477,425.313,429.148,431.63800000000003,435.228,440.727,443.935,448.916,456.5852,460.172,465.153,470.134" svgx:width="0.27,0.5,0.44,0.55,0.67,0.72,0.55,0.5,0.44,0.27,0.5,0.44,0.55,0.5,0.32,0.55,0.5,0.5,0.55,0.74,0.55,0.72,0.44,0.38,0.55,0.38,0.44,0.27,0.55,0.44,0.38,0.55,0.44,0.55,0.44,0.32,0.27,0.27,0.44,0.32,0.27,0.5,0.5,0.55,0.27,0.5,0.55,0.44,0.5,0.44,0.27,0.5,0.44,0.27,0.44,0.55,0.27,0.5,0.44,0.55,0.5,0.32,0.27,0.27,0.27,0.27,0.44,0.5,0.44,0.38,0.38,0.25,0.55,0.55,0.32,0.5,0.77,0.55,0.5,0.5,0.32" style="fill:rgb(0,0,0);font-family:AdvOTb0c9bf5d;font-size:9.96px;stroke:none;">the RA value of 40 % was set as a criterion to evaluate the brittleness. From our</text>
   <text y="654.858" x="141.733,144.941,149.295,153.13,158.112,160.802,163.492,167.327,169.817,173.707,176.397,181.378,185.76039999999998,189.525,192.733,195.941,199.1282,202.961,207.943,211.151,213.841,216.624,219.314,222.004,226.38639999999998,230.173,234.527,239.508,244.489,248.8714,252.623,257.604,260.7912,264.642,269.623,272.313,277.294,282.276,285.561,289.915,292.605,295.295,300.276,305.25600000000003,309.089,316.76,321.741,326.723,329.413,334.39300000000003,338.228,342.064,344.754,349.108,353.461,356.15020000000004,359.999,367.152,371.506,375.2908,379.161,384.142,389.123" svgx:width="0.32,0.44,0.38,0.5,0.27,0.27,0.38,0.25,0.55,0.27,0.5,0.44,0.55,0.32,0.32,0.32,0.55,0.5,0.32,0.27,0.27,0.27,0.27,0.44,0.55,0.44,0.5,0.5,0.44,0.55,0.5,0.32,0.55,0.5,0.27,0.5,0.5,0.32,0.44,0.27,0.27,0.5,0.5,0.55,0.77,0.5,0.5,0.27,0.5,0.55,0.38,0.27,0.44,0.44,0.27,0.55,0.72,0.44,0.38,0.55,0.5,0.5,0.5" style="fill:rgb(0,0,0);font-family:AdvOTb0c9bf5d;font-size:9.96px;stroke:none;">results, the III brittle zone of high-alloy mould steel was 973</text>
   <text y="654.858" x="394.129" svgx:width="0.75" style="fill:rgb(0,0,0);font-family:AdvPS44A44B;font-size:9.96px;stroke:none;">e</text>
   <text y="654.858" x="401.613,406.594,411.575,416.557,421.53700000000003,425.366,432.52,435.01,438.802,445.955,450.936,453.712,458.066,463.046,466.808,469.498" svgx:width="0.5,0.5,0.5,0.5,0.55,0.72,0.25,0.55,0.72,0.5,0.27,0.44,0.5,0.55,0.27,0.38" style="fill:rgb(0,0,0);font-family:AdvOTb0c9bf5d;font-size:9.96px;stroke:none;">1148 K, which is</text>
   <text y="669.825" x="141.733,146.087,148.777,152.612,157.59199999999998,160.215,162.905,167.886,172.26839999999999,174.785,179.139,182.347,186.7,191.054,196.035,198.823,203.804,208.784,211.352,215.187,220.169,224.004,228.358,232.712,237.771,240.461,243.15,248.132,250.822,253.512,256.201,258.891,263.87100000000004,266.514,270.867,275.849,280.83,285.2124,287.773,291.609,296.59,301.571,306.552,310.906,314.815,317.505,320.195,325.177,330.15700000000004,332.73,335.42,340.401,344.78340000000003,347.357,350.047,355.028,362.1992,364.762,369.743,374.725,379.078,381.768,384.548,387.238,389.927,392.617,397.59700000000004,400.195,405.176,408.3632,410.966,414.802,417.492,421.846,426.827,429.317,431.886,440.703,445.684,448.892,453.246,458.305,463.286,467.64,470.848" svgx:width="0.44,0.27,0.38,0.5,0.55,0.27,0.5,0.44,0.55,0.44,0.32,0.44,0.44,0.5,0.27,0.5,0.5,0.55,0.38,0.5,0.38,0.44,0.44,0.5,0.27,0.27,0.5,0.27,0.27,0.27,0.27,0.5,0.55,0.44,0.5,0.5,0.44,0.55,0.38,0.5,0.5,0.5,0.44,0.38,0.27,0.27,0.5,0.5,0.55,0.27,0.5,0.44,0.55,0.27,0.5,0.72,0.55,0.5,0.5,0.44,0.27,0.27,0.27,0.27,0.27,0.5,0.55,0.5,0.32,0.55,0.38,0.27,0.44,0.5,0.25,0.55,0.88,0.5,0.32,0.44,0.5,0.5,0.44,0.32,0.25" style="fill:rgb(0,0,0);font-family:AdvOTb0c9bf5d;font-size:9.96px;stroke:none;">also the cracking susceptibility zone suggesting the low ductility of slab. Moreover,</text>
  </g>
  <rect style="fill:pink;opacity:0.2;stroke:blue;stroke-width:0.3;" x="141.732" y="114.3" height="253.984" width="331.645" title="7"/>
  <text y="114.3" class="image" id="image.7.1" width="331" height="253" x="141.732" style="font-size:5.0px;">image.7.1.142_473.114_368</text>
  <g begin="text">
   <text y="328.422" x="141.732,146.546,148.698,152.683,154.6755,157.492,161.478" svgx:width="0.6,0.27,0.5,0.25,0.55,0.5,0.25" style="fill:rgb(0,0,0);font-family:AdvOTe3b1fbf3.B;font-size:7.97px;stroke:none;">Fig. 3.</text>
   <text y="328.422" x="166.96,171.774,175.759,179.26579999999998,182.04,186.025,188.177,192.162,196.14700000000002,198.934,201.085,204.568,210.706,214.691,218.174,220.74,224.223,226.375,230.36,232.926,236.4328,239.24,241.392,245.377,248.198,251.267,253.419,255.571,259.556,262.371,266.356,270.341,273.409,276.892,279.459,283.444,286.927,289.079,291.231,295.216,299.201,301.998,305.983,308.53340000000003,311.352,317.489,321.475,325.46,327.612,331.59700000000004,334.425,337.494,339.646,343.129,346.612,348.76390000000004,351.546,354.615,356.767,360.25,364.235,367.079,369.646" svgx:width="0.6,0.5,0.44,0.55,0.5,0.27,0.5,0.5,0.55,0.27,0.44,0.77,0.5,0.44,0.32,0.44,0.27,0.5,0.32,0.44,0.55,0.27,0.5,0.55,0.38,0.27,0.27,0.5,0.55,0.5,0.5,0.38,0.44,0.32,0.5,0.44,0.27,0.27,0.5,0.5,0.55,0.5,0.32,0.55,0.77,0.5,0.5,0.27,0.5,0.55,0.38,0.27,0.44,0.44,0.27,0.55,0.38,0.27,0.44,0.5,0.55,0.32,0.44" style="fill:rgb(0,0,0);font-family:AdvOTb0c9bf5d;font-size:7.97px;stroke:none;">The high temperature in situ observation of mould steel slab (a</text>
   <text y="328.422" x="373.153" svgx:width="1.0" style="fill:rgb(0,0,0);font-family:AdvPS3FDD77;font-size:7.97px;stroke:none;">w</text>
   <text y="328.422" x="381.09,384.573,386.7249,389.537,391.689,395.674,399.1808,402.009,405.994,409.979,413.462,416.53,420.03679999999997,422.814,424.966,427.532,431.015,435.0,438.069,440.221,442.373,444.525,448.51,452.495,455.298,458.781,460.9329,463.745,465.897,469.882" svgx:width="0.44,0.27,0.55,0.27,0.5,0.44,0.55,0.5,0.5,0.44,0.38,0.44,0.55,0.27,0.32,0.44,0.5,0.38,0.27,0.27,0.27,0.5,0.5,0.55,0.44,0.27,0.55,0.27,0.5,0.44" style="fill:rgb(0,0,0);font-family:AdvOTb0c9bf5d;font-size:7.97px;stroke:none;">c: the phase transition at the</text>
   <text y="340.384" x="141.731,145.214,149.199,153.185,155.337,157.488,161.474,165.459,168.433,171.0,174.483,176.634,180.14079999999998,183.173,187.15800000000002,190.146,195.869,198.021,201.089,203.2409,206.304" svgx:width="0.44,0.5,0.5,0.27,0.27,0.5,0.5,0.55,0.32,0.44,0.27,0.44,0.55,0.5,0.55,0.72,0.27,0.38,0.27,0.55,0.5" style="fill:rgb(0,0,0);font-family:AdvOTb0c9bf5d;font-size:7.97px;stroke:none;">cooling rate 8 K/s; d</text>
   <text y="340.384" x="210.274" svgx:width="1.0" style="fill:rgb(0,0,0);font-family:AdvPS3FDD77;font-size:7.97px;stroke:none;">w</text>
   <text y="340.384" x="218.21,220.777,222.9289,225.977,228.129,232.114,235.6208,238.62,242.605,246.59,250.073,253.141,256.6478,259.595,261.747,264.314,267.797,271.782,274.85,277.002,279.154,281.306,285.291,289.276,292.306,295.789,297.9409,300.98,303.132,307.117,310.6238,313.622,317.105,321.09,325.075,327.227,329.379,333.364,337.349,340.324,342.89,346.373,348.525,352.0318,355.007,358.992,362.97700000000003,366.005,371.727,373.879,376.948,379.0999,382.162" svgx:width="0.32,0.27,0.55,0.27,0.5,0.44,0.55,0.5,0.5,0.44,0.38,0.44,0.55,0.27,0.32,0.44,0.5,0.38,0.27,0.27,0.27,0.5,0.5,0.55,0.44,0.27,0.55,0.27,0.5,0.44,0.55,0.44,0.5,0.5,0.27,0.27,0.5,0.5,0.55,0.32,0.44,0.27,0.44,0.55,0.5,0.5,0.55,0.72,0.27,0.38,0.27,0.55,0.5" style="fill:rgb(0,0,0);font-family:AdvOTb0c9bf5d;font-size:7.97px;stroke:none;">f: the phase transition at the cooling rate 10 K/s; g</text>
   <text y="340.384" x="386.135" svgx:width="1.0" style="fill:rgb(0,0,0);font-family:AdvPS3FDD77;font-size:7.97px;stroke:none;">w</text>
   <text y="340.384" x="394.072,396.224,398.3759,401.385,403.537,407.522,411.0288,414.028,418.013,421.998,425.481,428.549,432.0558,435.06,437.212,439.779,443.262,447.247,450.315,452.467,454.619,456.771,460.756,464.741,467.714,471.197" svgx:width="0.27,0.27,0.55,0.27,0.5,0.44,0.55,0.5,0.5,0.44,0.38,0.44,0.55,0.27,0.32,0.44,0.5,0.38,0.27,0.27,0.27,0.5,0.5,0.55,0.44,0.27" style="fill:rgb(0,0,0);font-family:AdvOTb0c9bf5d;font-size:7.97px;stroke:none;">i: the phase transition at</text>
   <text y="352.347" x="141.731,143.883,147.868,151.3748,153.976,157.459,161.444,165.429,167.581,169.733,173.718,177.703,180.337,182.904,186.387,188.539,192.04579999999999,194.624,198.609,202.59400000000002,205.225,210.948,213.1,216.168,218.735" svgx:width="0.27,0.5,0.44,0.55,0.44,0.5,0.5,0.27,0.27,0.5,0.5,0.55,0.32,0.44,0.27,0.44,0.55,0.5,0.5,0.55,0.72,0.27,0.38,0.32,0.25" style="fill:rgb(0,0,0);font-family:AdvOTb0c9bf5d;font-size:7.97px;stroke:none;">the cooling rate 12 K/s).</text>
  </g>
  <path style="fill:rgb(153,153,153);stroke:none;stroke-width:1.0;" d="M141.730 56.980 L473.330 56.980 L473.330 310.960 L141.730 310.960 "/>
  <g begin="text">
   <text y="710.646" x="42.52" svgx:width="0.5" style="fill:rgb(0,0,0);font-family:AdvOTe3b1fbf3.B;font-size:6.48px;stroke:none;">7</text>
   <text y="710.646" x="62.362,65.6,67.348,69.097,72.334,74.828,76.576,78.324,80.073,83.311,86.549,88.297,89.916,93.154,95.239,98.477,100.225,103.463,106.701,108.32,111.558,114.796,118.033,121.271,123.02,124.669,126.288,129.526,132.356,134.104,135.853,139.09,142.328,145.566,147.185,150.423,153.661,156.899,160.137,161.755,164.585,167.823,171.061,174.299,177.537" svgx:width="0.5,0.27,0.27,0.5,0.38,0.27,0.27,0.27,0.5,0.5,0.27,0.25,0.5,0.32,0.5,0.27,0.5,0.5,0.25,0.5,0.5,0.5,0.5,0.27,0.27,0.25,0.5,0.44,0.27,0.27,0.5,0.5,0.5,0.25,0.5,0.5,0.5,0.5,0.25,0.44,0.5,0.5,0.5,0.5,0.5" style="fill:rgb(0,121,173);font-family:AdvOTb0c9bf5d;font-size:6.48px;stroke:none;">https://doi.org/10.1016/j.heliyon.2019.e01329</text>
   <text y="720.623" x="62.362,65.6,68.838,72.075,75.313,77.398,80.636,83.874,87.112,90.35" svgx:width="0.5,0.5,0.5,0.5,0.32,0.5,0.5,0.5,0.5,0.27" style="fill:rgb(0,0,0);font-family:AdvOTb0c9bf5d;font-size:6.48px;stroke:none;">2405-8440/</text>
   <text y="720.623" code="1" x="92.069" svgx:width="0.79" style="fill:rgb(0,0,0);font-family:AdvPSSym;font-size:6.48px;stroke:none;">?</text>
   <text y="720.623" x="99.325,102.563,105.801,109.039,112.279,114.406,118.317,121.555,124.40620000000001,126.538,131.188,134.425,136.174,139.412,142.65,144.735,147.228,148.848,150.973,154.548,157.786,161.024,162.772,164.521,167.014,170.252,173.081,176.321,178.414,181.651,184.89100000000002,187.031,190.942,192.691,195.184,198.014,201.251,203.0,205.83,207.9036,210.105,214.016,215.765,219.003,220.623,222.748,226.659,229.897,231.645,234.1074,236.297,238.046,240.5084,242.704,245.534,248.774,250.868,254.105,257.343,260.173,263.413,265.551,268.381,271.211,274.041,276.871,279.364,281.8264,284.034,286.864,288.949,290.697,292.446,295.276,297.024,299.8752,302.006,305.244,308.481,311.719,314.549,316.6226,318.788,320.536,323.774,326.6252,328.709,333.022,337.3636,339.481,343.793,348.443,350.528,355.178,359.491,361.576,366.225,370.8906,373.044,374.792,376.54,379.37,382.2,385.438,387.931" svgx:width="0.5,0.5,0.5,0.5,0.55,0.6,0.5,0.44,0.55,0.72,0.5,0.27,0.5,0.5,0.32,0.38,0.25,0.55,0.55,0.5,0.5,0.27,0.27,0.38,0.5,0.44,0.5,0.55,0.5,0.5,0.55,0.6,0.27,0.38,0.44,0.5,0.27,0.44,0.32,0.55,0.6,0.27,0.5,0.25,0.55,0.6,0.5,0.27,0.38,0.55,0.27,0.38,0.55,0.44,0.5,0.55,0.5,0.5,0.44,0.5,0.55,0.44,0.44,0.44,0.44,0.38,0.38,0.55,0.44,0.32,0.27,0.27,0.44,0.27,0.44,0.55,0.5,0.5,0.5,0.44,0.32,0.55,0.27,0.5,0.44,0.55,0.67,0.67,0.55,0.67,0.72,0.32,0.72,0.67,0.32,0.72,0.72,0.55,0.27,0.27,0.44,0.44,0.5,0.38,0.44" style="fill:rgb(0,0,0);font-family:AdvOTb0c9bf5d;font-size:6.48px;stroke:none;">2019 The Authors. Published by Elsevier Ltd. This is an open access article under the CC BY-NC-ND license</text>
   <text y="730.545" x="62.362" svgx:width="0.32" style="fill:rgb(0,0,0);font-family:AdvOTb0c9bf5d;font-size:6.48px;stroke:none;">(</text>
   <text y="730.545" x="64.459,67.697,69.446,71.194,74.432,76.18,77.929,79.677,82.507,84.592,87.422,90.252,92.0,93.749,96.987,99.817,102.647,105.884,110.871,115.857,119.095,122.287,124.78,126.399,129.637,131.722,134.96,136.709,138.457,140.206,143.035,145.865,149.103,151.596,154.426,156.919,158.668,161.906,165.144,167.229,170.467,173.296,175.297,178.535,181.773,183.521,186.759,188.378,191.616" svgx:width="0.5,0.27,0.27,0.5,0.27,0.27,0.27,0.44,0.32,0.44,0.44,0.27,0.27,0.5,0.44,0.44,0.5,0.77,0.77,0.5,0.5,0.38,0.25,0.5,0.32,0.5,0.27,0.27,0.27,0.44,0.44,0.5,0.38,0.44,0.38,0.27,0.5,0.5,0.32,0.5,0.44,0.32,0.5,0.5,0.27,0.5,0.25,0.5,0.27" style="fill:rgb(0,121,173);font-family:AdvOTb0c9bf5d;font-size:6.48px;stroke:none;">http://creativecommons.org/licenses/by-nc-nd/4.0/</text>
   <text y="730.545" x="193.378,195.463" svgx:width="0.32,0.25" style="fill:rgb(0,0,0);font-family:AdvOTb0c9bf5d;font-size:6.48px;stroke:none;">).</text>
  </g>
  <rect style="fill:pink;opacity:0.2;stroke:blue;stroke-width:0.3;" x="141.732" y="75.748" height="19.389" width="56.013" title="7"/>
  <text y="75.748" class="image" id="image.7.2" width="56" height="19" x="141.732" style="font-size:5.0px;">image.7.2.142_198.76_95</text>
  <g begin="text">
   <text y="37.871" x="422.929,426.84,429.333,431.082,432.83,435.66,437.409,440.2602,442.375,446.688" svgx:width="0.6,0.38,0.27,0.27,0.44,0.27,0.44,0.55,0.67,0.5" style="fill:rgb(0,0,0);font-family:AdvOT6bc95374.I;font-size:6.48px;stroke:none;">Article No</text>
   <text y="37.871" x="448.951" svgx:width="1.0" style="fill:rgb(0,0,0);font-family:AdvPS3FDD77;font-size:6.48px;stroke:none;">w</text>
   <text y="37.871" x="454.393,457.223,460.461,463.699,466.937,470.174" svgx:width="0.44,0.5,0.5,0.5,0.5,0.5" style="fill:rgb(0,0,0);font-family:AdvOT6bc95374.I;font-size:6.48px;stroke:none;">e01329</text>
  </g>
 </g>
</svg>
