<?xml version="1.0" encoding="UTF-8"?>
<svg height="207.222" width="2587.56" xmlns="http://www.w3.org/2000/svg">
 <g id="page" xmlns:svgx="http://www.xml-cml.org/schema/svgx">
  <g begin="text">
   <text y="62.979" x="76.535,84.059,87.598,90.252,93.352,96.452,98.668,102.207,104.422" svgx:width="0.94,0.44,0.33,0.39,0.39,0.28,0.44,0.28,0.39" style="fill:rgb(0,0,0);font-family:URWPalladioL-Ital;font-size:7.97px;stroke:none;">Materials</text>
   <text y="62.979" x="109.515,113.5,117.485,121.47" svgx:width="0.5,0.5,0.5,0.5" style="fill:rgb(0,0,0);font-family:URWPalladioL-Bold;font-size:7.97px;stroke:none;">2019</text>
   <text y="62.979" x="125.455" svgx:width="0.25" style="fill:rgb(0,0,0);font-family:URWPalladioL-Roma;font-size:7.97px;stroke:none;">,</text>
   <text y="62.979" x="129.44,133.425" svgx:width="0.5,0.5" style="fill:rgb(0,0,0);font-family:URWPalladioL-Ital;font-size:7.97px;stroke:none;">12</text>
   <text y="62.979" x="137.41,139.4025,141.395,145.38,149.365,153.35,157.335,491.809,495.794,499.779,501.772,506.123,508.7531,510.77,514.755" svgx:width="0.25,0.55,0.5,0.5,0.5,0.5,0.55,0.5,0.5,0.55,0.55,0.33,0.55,0.5,0.5" style="fill:rgb(0,0,0);font-family:URWPalladioL-Roma;font-size:7.97px;stroke:none;">, 4083 92 of 92</text>
   <text y="97.848" x="76.535,81.018,85.501,89.985,92.2275,98.05,103.92,108.129,113.243,118.357,123.155,126.081,128.3235,129.912,135.281,137.5235,139.112,147.425,149.982,154.867,158.171,162.969,166.695,169.559,172.96,178.258,183.144,186.009,191.307,194.89499999999998,196.412,201.711,206.825,213.82,221.579,225.788,229.689,234.803,239.197,244.311,246.868,250.594,254.495,259.609,263.9146,265.453,270.821,273.378,278.264,282.473,287.587,291.313,295.214,300.328,304.722,307.648,310.513,314.722,321.47,326.839,331.048,334.636,336.153,343.455,346.012,349.914,354.799,359.008,361.557,364.114,368.323,373.208,375.765,379.974,383.375,388.674,393.788,400.308,403.269,412.205,416.599,420.993,425.386,427.62850000000003,430.518,435.825,440.939,443.136,449.937,452.1795,453.76,459.146,464.26,468.469,472.195,474.752,478.478,480.7205,482.432,486.992,491.201,495.103,500.217,505.331,507.888,511.789,516.183" svgx:width="0.5,0.5,0.5,0.25,0.55,0.67,0.48,0.58,0.58,0.55,0.33,0.25,0.55,0.61,0.25,0.55,0.95,0.29,0.56,0.4,0.55,0.42,0.33,0.4,0.6,0.56,0.33,0.6,0.4,0.55,0.6,0.58,0.61,0.88,0.48,0.44,0.58,0.5,0.58,0.29,0.42,0.44,0.58,0.48,0.55,0.61,0.29,0.56,0.48,0.58,0.42,0.44,0.58,0.5,0.33,0.33,0.48,0.58,0.61,0.48,0.4,0.55,0.83,0.29,0.44,0.56,0.48,0.29,0.29,0.48,0.56,0.29,0.48,0.4,0.6,0.58,0.56,0.34,0.83,0.5,0.5,0.5,0.25,0.55,0.6,0.58,0.25,0.77,0.25,0.55,0.61,0.58,0.48,0.42,0.29,0.42,0.25,0.55,0.61,0.48,0.44,0.58,0.58,0.29,0.44,0.5,0.29" style="fill:rgb(0,0,0);font-family:URWPalladioL-Roma;font-size:8.97px;stroke:none;">229. Renhof, L. Mikrostruktur undmechanische Eigenschaftender NickellegierungIN718. Ph.D. Thesis, Technical</text>
   <text y="110.76" x="98.05,105.165,110.488,113.15,118.317,122.698,126.31,130.188,132.85,135.831,140.8542,143.422,152.074,157.589,162.912,165.573,169.634,174.956,177.1985,179.822,188.474,193.989,199.312,201.973,206.034,211.356,213.5985,216.222,223.2,227.581,231.194,239.269,243.842,249.165,253.253,255.4955,258.119,262.691,267.264,271.837,276.41,278.65250000000003,282.647,288.931,294.098,298.671,301.332,303.994,308.566,313.624,316.285,320.59060000000005,323.181,328.175,333.498,336.159,338.821,344.143,348.524" svgx:width="0.78,0.58,0.29,0.56,0.48,0.4,0.42,0.29,0.33,0.56,0.55,0.95,0.6,0.58,0.29,0.44,0.58,0.25,0.55,0.95,0.6,0.58,0.29,0.44,0.58,0.25,0.55,0.76,0.48,0.4,0.88,0.5,0.58,0.56,0.25,0.55,0.5,0.5,0.5,0.5,0.25,0.55,0.78,0.56,0.5,0.29,0.29,0.5,0.55,0.29,0.48,0.55,0.55,0.58,0.29,0.29,0.58,0.48,0.25" style="fill:rgb(0,0,0);font-family:URWPalladioL-Roma;font-size:8.97px;stroke:none;">University Munich, Munich, Germany, 2007. Available online:</text>
   <text y="110.76" x="354.487,359.81,362.791,365.773,371.27" svgx:width="0.58,0.33,0.33,0.6,0.25" style="fill:rgb(8,117,183);font-family:URWPalladioL-Roma;font-size:8.97px;stroke:none;">http:</text>
   <text y="110.76" x="373.554,376.179" svgx:width="0.29,0.29" style="fill:rgb(8,117,183);font-family:Rpxr;font-size:8.97px;stroke:none;">//</text>
   <text y="110.76" x="378.894,386.97,391.35,396.939,399.6,404.173,407.154,412.669,420.745,425.318,427.604,433.119,438.177,440.463,443.445,448.959,457.035,459.322,464.91" svgx:width="0.88,0.48,0.61,0.29,0.5,0.33,0.6,0.88,0.5,0.25,0.6,0.55,0.25,0.33,0.6,0.88,0.25,0.61,0.48" style="fill:rgb(8,117,183);font-family:URWPalladioL-Roma;font-size:8.97px;stroke:none;">mediatum2.ub.tum.de</text>
   <text y="110.76" x="469.289" svgx:width="0.29" style="fill:rgb(8,117,183);font-family:Rpxr;font-size:8.97px;stroke:none;">/</text>
   <text y="110.76" x="472.003,477.591,482.585" svgx:width="0.61,0.55,0.44" style="fill:rgb(8,117,183);font-family:URWPalladioL-Roma;font-size:8.97px;stroke:none;">doc</text>
   <text y="110.76" x="486.645" svgx:width="0.29" style="fill:rgb(8,117,183);font-family:Rpxr;font-size:8.97px;stroke:none;">/</text>
   <text y="110.76" x="489.36,493.933,498.506,503.079,507.651,512.224" svgx:width="0.5,0.5,0.5,0.5,0.5,0.5" style="fill:rgb(8,117,183);font-family:URWPalladioL-Roma;font-size:8.97px;stroke:none;">622870</text>
   <text y="110.76" x="516.797" svgx:width="0.29" style="fill:rgb(8,117,183);font-family:Rpxr;font-size:8.97px;stroke:none;">/</text>
   <text y="123.672" x="98.05,103.528,108.424,112.405,117.812,125.729,130.024,135.243,138.166,140.407,145.796,151.275" svgx:width="0.61,0.55,0.44,0.6,0.88,0.48,0.58,0.33,0.25,0.6,0.61,0.33" style="fill:rgb(8,117,183);font-family:URWPalladioL-Roma;font-size:8.97px;stroke:none;">document.pdf</text>
   <text y="123.672" x="156.502,159.488,163.971,167.952,171.933,176.228,180.03,183.832,188.126,193.5977,195.847,200.742,205.94459999999998,208.202,212.685,217.17000000000002,219.41,222.396,227.803,230.412,235.4352,237.639,242.122,246.605,251.089,255.572,258.558" svgx:width="0.33,0.5,0.44,0.44,0.48,0.42,0.42,0.48,0.61,0.55,0.55,0.58,0.55,0.5,0.5,0.55,0.33,0.6,0.29,0.56,0.55,0.5,0.5,0.5,0.5,0.33,0.25" style="fill:rgb(0,0,0);font-family:URWPalladioL-Roma;font-size:8.97px;stroke:none;">(accessed on 11 July 2018).</text>
   <text y="136.583" x="76.535,81.018,85.501,89.985,92.2275,98.05,101.096,105.668,109.729,114.814,118.692,123.685,129.008,131.25050000000002,133.865,142.517,144.803,149.165,151.452,153.6945,156.473,161.274,164.256,168.829,172.441,175.103,180.426,185.511,187.7535,190.367,199.019,201.305,204.351,206.637,208.8795,211.658,217.768,222.148,226.529,232.117,234.3595,236.974,243.083,245.369,251.854,254.09650000000002,256.71,263.789,268.17,271.151,275.532,279.145,287.22,289.882,295.204,299.777,302.759,305.42,310.414,315.6166,318.307,323.3,326.2601,328.916,331.897,337.22,341.52560000000005,344.171,349.667,353.115,357.496,361.557,364.218,369.715,372.376,375.358,379.93,382.912,385.573,390.567,395.7696,398.46,403.545,406.206,411.529,415.91,418.891,421.553,425.613,429.3804,432.061,437.055,440.0151,442.67,450.27,452.932,457.505,464.62,467.2213,469.851,472.513,477.7156,480.405,483.387,488.71,493.0156,495.66,503.261,505.922,508.968,516.083" svgx:width="0.5,0.5,0.5,0.25,0.55,0.33,0.5,0.44,0.56,0.42,0.55,0.58,0.25,0.55,0.95,0.25,0.6,0.25,0.25,0.55,0.52,0.33,0.5,0.4,0.29,0.58,0.56,0.25,0.55,0.95,0.25,0.33,0.25,0.25,0.55,0.67,0.48,0.48,0.61,0.25,0.55,0.67,0.25,0.71,0.25,0.55,0.77,0.48,0.33,0.48,0.4,0.88,0.29,0.58,0.5,0.33,0.29,0.55,0.58,0.55,0.55,0.33,0.55,0.33,0.58,0.48,0.55,0.6,0.4,0.48,0.44,0.29,0.6,0.29,0.33,0.5,0.33,0.29,0.55,0.58,0.55,0.56,0.29,0.58,0.48,0.33,0.29,0.44,0.42,0.55,0.55,0.33,0.55,0.83,0.29,0.5,0.78,0.29,0.55,0.29,0.58,0.55,0.33,0.58,0.48,0.55,0.83,0.29,0.33,0.78,0.29" style="fill:rgb(0,0,0);font-family:URWPalladioL-Roma;font-size:8.97px;stroke:none;">230. Jackson, M.P.; Starink, M.J.; Reed, R.C. Determination of the precipitation kinetics of Ni3Al in the Ni-Al</text>
   <text y="149.495" x="98.05,101.852,106.837,110.639,113.562,117.857,128.016,133.422,137.224,139.833,145.052,150.0752,152.279,157.757" svgx:width="0.42,0.56,0.42,0.33,0.48,0.88,0.6,0.42,0.29,0.58,0.56,0.55,0.61,0.29" style="fill:rgb(0,0,0);font-family:URWPalladioL-Roma;font-size:8.97px;stroke:none;">systemusing di</text>
   <text y="149.495" x="160.366" svgx:width="0.61" style="fill:rgb(0,0,0);font-family:Rpxr;font-size:8.97px;stroke:none;">ﬀ</text>
   <text y="149.495" x="165.818,170.113,173.493,177.788,183.007,185.93,188.539,193.022,195.6233,197.873,201.675,205.656,210.139,215.357,220.576,223.185,228.403,233.4262,235.63,239.611,244.095,246.704,251.6,255.141,257.751,265.668,269.963,272.886,276.427,280.418" svgx:width="0.48,0.4,0.48,0.58,0.33,0.29,0.5,0.29,0.55,0.42,0.44,0.5,0.58,0.58,0.29,0.58,0.56,0.55,0.44,0.5,0.29,0.55,0.4,0.29,0.88,0.48,0.33,0.4,0.56,0.25" style="fill:rgb(0,0,0);font-family:URWPalladioL-Roma;font-size:8.97px;stroke:none;">erential scanning calorimetry.</text>
   <text y="149.495" x="285.795,294.259,298.24,301.226,304.714,307.538,309.7805,312.918,317.904,321.553,324.046,326.2885,329.425,334.904,339.889,344.372,346.6145,349.752" svgx:width="0.94,0.44,0.33,0.39,0.39,0.25,0.55,0.56,0.41,0.28,0.25,0.55,0.61,0.56,0.5,0.25,0.55,0.72" style="fill:rgb(0,0,0);font-family:URWPalladioL-Ital;font-size:8.97px;stroke:none;">Mater. Sci. Eng. A</text>
   <text y="149.495" x="358.467,362.95,367.433,371.917" svgx:width="0.5,0.5,0.5,0.5" style="fill:rgb(0,0,0);font-family:URWPalladioL-Bold;font-size:8.97px;stroke:none;">1999</text>
   <text y="149.495" x="376.4" svgx:width="0.25" style="fill:rgb(0,0,0);font-family:URWPalladioL-Roma;font-size:8.97px;stroke:none;">,</text>
   <text y="149.495" x="380.883,385.366,389.849" svgx:width="0.5,0.5,0.5" style="fill:rgb(0,0,0);font-family:URWPalladioL-Ital;font-size:8.97px;stroke:none;">264</text>
   <text y="149.495" x="394.332,396.5745,398.815,403.298,407.782,412.265,416.748,421.231,423.4735,426.611" svgx:width="0.25,0.55,0.5,0.5,0.5,0.5,0.5,0.25,0.55,0.33" style="fill:rgb(0,0,0);font-family:URWPalladioL-Roma;font-size:8.97px;stroke:none;">, 26–38. [</text>
   <text y="149.495" x="429.597,435.954,439.334,444.23,448.032,451.834,457.823,462.118" svgx:width="0.71,0.4,0.55,0.42,0.42,0.67,0.48,0.33" style="fill:rgb(8,117,183);font-family:URWPalladioL-Roma;font-size:8.97px;stroke:none;">CrossRef</text>
   <text y="149.495" x="465.104" svgx:width="0.33" style="fill:rgb(0,0,0);font-family:URWPalladioL-Roma;font-size:8.97px;stroke:none;">]</text>
  </g>
  <rect style="fill:pink;opacity:0.2;stroke:blue;stroke-width:0.3;" x="77.56" y="123.093" height="29.098" width="83.136" title="92"/>
  <text y="123.093" class="image" id="image.92.1" width="83" height="29" x="77.56" style="font-size:5.0px;">image.92.1.78_161.123_152</text>
  <g begin="text">
   <text y="171.399" x="167.778" svgx:width="0.91" style="fill:rgb(0,0,0);font-family:Rpcxr;font-size:8.97px;stroke:none;">©</text>
   <text y="171.399" x="178.159,182.669,187.179,191.689,196.174,198.445,203.434,208.4572,210.695,213.635,218.885,223.1906,225.452,229.962,235.401,238.342,243.592,248.517,252.08,255.904,258.1465,261.316,266.828,269.452,273.457,277.778,283.028,286.852,291.173,295.47860000000003,297.749,306.282,313.264,318.703,321.743,323.9855,326.253,331.764,336.274,340.099,344.419,347.044,349.2865,351.545,356.281,363.804,366.429,369.369,373.879,378.2,381.763,384.388,388.898,394.148,399.659,401.9015,405.071,410.6,415.85,418.475,422.24240000000003,424.546,429.056,432.619,435.559,438.184,442.189,444.814,449.11960000000005,451.381,454.006,457.7734,460.076,464.586,469.78860000000003,472.091,477.016,482.437,486.758,491.9606,494.254,498.764,502.769,506.774,511.095,514.919" svgx:width="0.5,0.5,0.5,0.5,0.55,0.55,0.56,0.55,0.33,0.58,0.48,0.55,0.5,0.6,0.33,0.58,0.55,0.4,0.42,0.25,0.55,0.61,0.29,0.44,0.48,0.58,0.42,0.48,0.48,0.55,0.95,0.77,0.6,0.34,0.25,0.55,0.61,0.5,0.42,0.48,0.29,0.25,0.55,0.52,0.83,0.29,0.33,0.5,0.48,0.4,0.29,0.5,0.58,0.61,0.25,0.55,0.61,0.58,0.29,0.42,0.55,0.5,0.4,0.33,0.29,0.44,0.29,0.48,0.55,0.29,0.42,0.55,0.5,0.58,0.55,0.55,0.6,0.48,0.58,0.55,0.5,0.44,0.44,0.48,0.42,0.42" style="fill:rgb(0,0,0);font-family:URWPalladioL-Roma;font-size:8.97px;stroke:none;">2019 by the authors. Licensee MDPI, Basel, Switzerland. This article is an open access</text>
   <text y="184.311" x="169.401,173.898,177.45,180.382,182.999,186.992,189.609,193.9146,196.147,201.642,204.259,208.072,211.004,214.556,217.173,222.147,227.57,230.501,234.809,240.2807,242.534,247.957,253.192,258.686,262.994,266.58200000000005,268.777,271.709,276.943,281.2486,283.472,286.404,290.712,294.264,302.205,305.9724,308.249,312.745,317.979,323.4507,325.705,329.698,334.608,339.842,345.337,347.954,350.886,353.503,358.413,363.647,367.4144,369.691,374.601,377.5611,379.826,382.758,387.992,392.29760000000005,394.53,400.907,404.297,408.605,413.102,416.033,418.65,423.732,428.03760000000005,430.27,436.646,441.556,449.497,457.439,462.349,467.583,471.35040000000004,473.626,480.623,483.555,486.478,490.03,492.647,497.621,503.044,505.975,508.592,513.503" svgx:width="0.5,0.4,0.33,0.29,0.44,0.29,0.48,0.55,0.61,0.29,0.42,0.33,0.4,0.29,0.55,0.6,0.33,0.48,0.61,0.55,0.6,0.58,0.61,0.48,0.4,0.55,0.33,0.58,0.48,0.55,0.33,0.48,0.4,0.88,0.42,0.55,0.5,0.58,0.61,0.55,0.44,0.55,0.58,0.61,0.29,0.33,0.29,0.55,0.58,0.42,0.55,0.55,0.33,0.55,0.33,0.58,0.48,0.55,0.71,0.4,0.48,0.5,0.33,0.29,0.56,0.48,0.55,0.71,0.55,0.88,0.88,0.55,0.58,0.42,0.55,0.78,0.33,0.33,0.4,0.29,0.55,0.6,0.33,0.29,0.55,0.58" style="fill:rgb(0,0,0);font-family:URWPalladioL-Roma;font-size:8.97px;stroke:none;">article distributed under the terms and conditions of the Creative Commons Attribution</text>
   <text y="197.222" x="169.105,172.091,178.448,184.8167,187.047,192.525,198.506,201.4661,203.733,206.342,208.952,212.933,217.228,222.446,226.248,230.5536,232.784,235.77,240.989,243.912,246.835,252.224" svgx:width="0.33,0.71,0.71,0.55,0.61,0.67,0.33,0.55,0.29,0.29,0.44,0.48,0.58,0.42,0.48,0.55,0.33,0.58,0.33,0.33,0.6,0.25" style="fill:rgb(0,0,0);font-family:URWPalladioL-Roma;font-size:8.97px;stroke:none;">(CC BY) license (http:</text>
   <text y="197.222" x="254.464,257.037" svgx:width="0.29,0.29" style="fill:rgb(0,0,0);font-family:Rpxr;font-size:8.97px;stroke:none;">//</text>
   <text y="197.222" x="259.611,263.592,266.972,271.267,275.75,278.674,281.283,286.349,290.644,294.625,299.52,307.438,315.355,320.251,325.469,329.271,331.513,336.408,339.788" svgx:width="0.44,0.4,0.48,0.5,0.33,0.29,0.56,0.48,0.44,0.55,0.88,0.88,0.55,0.58,0.42,0.25,0.55,0.4,0.56" style="fill:rgb(0,0,0);font-family:URWPalladioL-Roma;font-size:8.97px;stroke:none;">creativecommons.org</text>
   <text y="197.222" x="344.773" svgx:width="0.29" style="fill:rgb(0,0,0);font-family:Rpxr;font-size:8.97px;stroke:none;">/</text>
   <text y="197.222" x="347.346,349.955,352.564,356.546,360.84,366.059,369.861,374.156" svgx:width="0.29,0.29,0.44,0.48,0.58,0.42,0.48,0.42" style="fill:rgb(0,0,0);font-family:URWPalladioL-Roma;font-size:8.97px;stroke:none;">licenses</text>
   <text y="197.222" x="377.957" svgx:width="0.29" style="fill:rgb(0,0,0);font-family:Rpxr;font-size:8.97px;stroke:none;">/</text>
   <text y="197.222" x="380.53,385.488" svgx:width="0.55,0.56" style="fill:rgb(0,0,0);font-family:URWPalladioL-Roma;font-size:8.97px;stroke:none;">by</text>
   <text y="197.222" x="390.474" svgx:width="0.29" style="fill:rgb(0,0,0);font-family:Rpxr;font-size:8.97px;stroke:none;">/</text>
   <text y="197.222" x="393.047,397.53,399.772" svgx:width="0.5,0.25,0.5" style="fill:rgb(0,0,0);font-family:URWPalladioL-Roma;font-size:8.97px;stroke:none;">4.0</text>
   <text y="197.222" x="404.255" svgx:width="0.29" style="fill:rgb(0,0,0);font-family:Rpxr;font-size:8.97px;stroke:none;">/</text>
   <text y="197.222" x="406.828,409.814" svgx:width="0.33,0.25" style="fill:rgb(0,0,0);font-family:URWPalladioL-Roma;font-size:8.97px;stroke:none;">).</text>
  </g>
 </g>
</svg>
