<?xml version="1.0" encoding="UTF-8"?>
<svg height="752.875" width="2590.923" xmlns="http://www.w3.org/2000/svg">
 <g id="page" xmlns:svgx="http://www.xml-cml.org/schema/svgx">
  <g begin="text">
   <text y="62.979" x="76.535,84.059,87.598,90.252,93.352,96.452,98.668,102.207,104.422" svgx:width="0.94,0.44,0.33,0.39,0.39,0.28,0.44,0.28,0.39" style="fill:rgb(0,0,0);font-family:URWPalladioL-Ital;font-size:7.97px;stroke:none;">Materials</text>
   <text y="62.979" x="109.515,113.5,117.485,121.47" svgx:width="0.5,0.5,0.5,0.5" style="fill:rgb(0,0,0);font-family:URWPalladioL-Bold;font-size:7.97px;stroke:none;">2019</text>
   <text y="62.979" x="125.455" svgx:width="0.25" style="fill:rgb(0,0,0);font-family:URWPalladioL-Roma;font-size:7.97px;stroke:none;">,</text>
   <text y="62.979" x="129.44,133.425" svgx:width="0.5,0.5" style="fill:rgb(0,0,0);font-family:URWPalladioL-Ital;font-size:7.97px;stroke:none;">12</text>
   <text y="62.979" x="137.41,139.4025,141.395,145.38,149.365,153.35,157.335,491.809,495.794,499.779,501.772,506.123,508.7531,510.77,514.755" svgx:width="0.25,0.55,0.5,0.5,0.5,0.5,0.55,0.5,0.5,0.55,0.55,0.33,0.55,0.5,0.5" style="fill:rgb(0,0,0);font-family:URWPalladioL-Roma;font-size:7.97px;stroke:none;">, 4083 53 of 92</text>
  </g>
  <g begin="text">
   <text y="-61.98" x="81.159,88.547,92.026,94.638,97.687,100.737,102.918,106.398,108.58,111.629" svgx:width="0.94,0.44,0.33,0.39,0.39,0.28,0.44,0.28,0.39,0.25" style="fill:rgb(0,0,0);font-family:PalatinoLinotype,Italic;font-size:7.82px;stroke:none;">Materials </text>
   <text y="-61.98" x="113.558,117.497,121.437,125.377" svgx:width="0.5,0.5,0.5,0.5" style="fill:rgb(0,0,0);font-family:PalatinoLinotype,Bold;font-size:7.82px;stroke:none;">2019</text>
   <text y="-61.98" x="129.316,131.256" svgx:width="0.25,0.25" style="fill:rgb(0,0,0);font-family:PalatinoLinotype;font-size:7.82px;stroke:none;">, </text>
   <text y="-61.98" x="133.197,137.137" svgx:width="0.5,0.5" style="fill:rgb(0,0,0);font-family:PalatinoLinotype,Italic;font-size:7.82px;stroke:none;">12</text>
   <text y="-61.98" x="141.017,142.978,144.918,148.959,150.899,155.253,161.404,166.633,168.632,173.36,178.144,182.927,188.156,190.096,195.325,200.108,205.759,208.401,213.184,221.063" svgx:width="0.25,0.25,0.52,0.25,0.56,0.79,0.67,0.25,0.6,0.61,0.61,0.67,0.25,0.67,0.61,0.72,0.34,0.61,1.0,0.25" style="fill:rgb(0,0,0);font-family:PalatinoLinotype;font-size:7.82px;stroke:none;">, x FOR PEER REVIEW </text>
   <text y="-61.98" x="483.879,487.82" svgx:width="0.51,0.51" style="fill:rgb(0,0,0);font-family:Calibri;font-size:7.82px;stroke:none;">53</text>
   <text y="-61.98" x="491.818,493.77299999999997,495.698,500.001,502.638" svgx:width="0.25,0.55,0.55,0.33,0.25" style="fill:rgb(0,0,0);font-family:PalatinoLinotype;font-size:7.82px;stroke:none;"> of </text>
   <text y="-61.98" x="506.518,510.517" svgx:width="0.51,0.51" style="fill:rgb(0,0,0);font-family:Calibri;font-size:7.82px;stroke:none;">92</text>
   <text y="-61.98" x="514.515" svgx:width="0.25" style="fill:rgb(0,0,0);font-family:PalatinoLinotype;font-size:7.82px;stroke:none;"> </text>
   <text y="660.848" x="81.159" svgx:width="0.23" style="fill:rgb(0,0,0);font-family:Calibri;font-size:8.82px;stroke:none;"> </text>
   <text y="-37.578" x="81.159,84.355,90.063,94.761,97.216,98.054,103.95,107.823,112.521,118.514,121.367,125.721,128.835,131.688,136.98,142.689,146.847,149.30200000000002,150.14,155.433,158.726,161.181,162.019,165.215,170.924,175.569,178.024,178.862,187.525,192.818,198.811,203.509,206.361,208.816,209.655,215.648,220.346,224.168,227.021,232.562,237.26,243.201,245.656,246.494,249.346,255.055,257.51,258.348,264.901,269.599,272.864,275.314,277.769,278.548,281.813,286.717,291.62,296.524,299.789,302.239,305.42,313.032,315.48699999999997,316.326,321.759,326.436,332.124,336.801,340.654,345.593,348.425,350.88,351.718,356.052,361.74,366.679,370.559,373.735,376.19,377.028,382.363,385.656,388.111,388.949,392.124,397.812,402.49,406.627,411.304,413.75899999999996,414.597,420.119,425.058,427.89,433.784,438.461,442.598,445.053,445.833,450.772,454.89,457.34499999999997,458.183,463.066,465.52099999999996,466.3,469.594,475.473,481.161,485.495,488.67,491.551,496.886,502.574,505.029,505.867,511.202,514.446" svgx:width="0.33,0.58,0.48,0.25,0.55,0.6,0.4,0.48,0.61,0.29,0.44,0.33,0.29,0.55,0.58,0.42,0.25,0.55,0.55,0.33,0.25,0.55,0.33,0.58,0.48,0.25,0.55,0.88,0.55,0.61,0.48,0.29,0.25,0.55,0.61,0.48,0.4,0.29,0.56,0.48,0.61,0.25,0.55,0.29,0.58,0.25,0.55,0.67,0.48,0.33,0.25,0.25,0.55,0.33,0.5,0.5,0.5,0.33,0.25,0.25,0.78,0.25,0.55,0.56,0.48,0.58,0.48,0.4,0.5,0.29,0.25,0.55,0.44,0.58,0.5,0.4,0.33,0.25,0.55,0.55,0.33,0.25,0.55,0.33,0.58,0.48,0.42,0.48,0.25,0.55,0.56,0.5,0.29,0.6,0.48,0.42,0.25,0.55,0.5,0.42,0.25,0.55,0.5,0.25,0.55,0.33,0.6,0.58,0.44,0.33,0.29,0.55,0.58,0.25,0.55,0.55,0.33,0.25" style="fill:rgb(0,0,0);font-family:PalatinoLinotype;font-size:9.82px;stroke:none;">the predictions of the model derived in Ref. [119]. A general chart of these values as a function of </text>
   <text y="-24.348" x="81.159,85.524,90.89,96.256,99.119,101.983,107.702,113.111,115.404,119.226,124.165,127.338,132.042,134.276,137.51,142.862,146.746,149.039,153.684,158.623,162.988,168.708,170.942,175.856,180.928,186.0,190.997,193.231,200.875,203.697,205.989,210.87,213.733,216.596,221.889,227.353,229.587,232.451,238.17,243.723,248.432,252.549,255.723,258.586,264.05,268.965,272.138,276.847,282.787,285.08,287.902,292.079,294.313,299.777,302.641,308.11,312.814,318.533,320.826,323.689,329.333,331.626,334.8,340.503,345.211,347.445,352.36,358.266,364.087,368.791,374.51,380.514,383.378,388.449,390.86,393.153,396.016,401.66,403.953,409.362,412.243,417.651,423.531,427.415,432.123,434.416,442.003,446.942,449.353,451.646,459.232,463.409,465.702,469.996,474.935,480.579,482.814,488.249,492.957,495.25,499.419,504.127,508.836,514.556" svgx:width="0.44,0.55,0.55,0.29,0.29,0.58,0.56,0.25,0.4,0.5,0.33,0.48,0.25,0.33,0.55,0.4,0.25,0.48,0.5,0.44,0.58,0.25,0.5,0.52,0.52,0.52,0.25,0.78,0.29,0.25,0.5,0.29,0.29,0.55,0.56,0.25,0.29,0.58,0.56,0.48,0.42,0.33,0.29,0.56,0.5,0.33,0.48,0.61,0.25,0.29,0.42,0.25,0.56,0.29,0.56,0.48,0.58,0.25,0.29,0.58,0.25,0.33,0.58,0.48,0.25,0.5,0.6,0.6,0.48,0.58,0.61,0.29,0.52,0.25,0.25,0.29,0.58,0.25,0.56,0.29,0.56,0.6,0.4,0.48,0.25,0.78,0.5,0.25,0.25,0.78,0.42,0.25,0.44,0.5,0.58,0.25,0.55,0.48,0.25,0.42,0.48,0.48,0.58,0.25" style="fill:rgb(0,0,0);font-family:PalatinoLinotype;font-size:9.82px;stroke:none;">cooling rate for each 7xxx Al alloy investigated is given in the appendix, in Figure A4. As can be seen </text>
   <text y="-11.177" x="81.159,84.426,88.302,93.661,102.327,104.856,110.264,113.145,118.553,124.492,128.368,133.013,135.541,140.448,145.355,147.808,150.337,153.535,159.247,163.948,166.476,175.143,180.501,186.497,191.142,193.998,196.467,202.366,206.242,210.942,216.939,219.794,224.151,227.35,230.206,235.564,241.276,245.437,247.906,252.813,256.635,261.336,263.865,267.132,272.425,278.343,284.055,290.051,292.579,295.778,301.071,303.54,308.962,313.658,316.127,321.667,326.363,330.234,335.686,338.156,343.058,347.41,351.762,357.675,361.497,366.437,369.631,374.275,376.804,379.998,385.351,387.88,392.782,395.31,403.491,406.341,412.333,417.029,419.498,423.37,428.271,433.915,439.383,444.079,446.607,451.9,455.193,457.721,465.308,468.189,474.73,480.437,489.67,495.138,498.4,505.354,511.267,514.53" svgx:width="0.33,0.4,0.55,0.88,0.25,0.56,0.29,0.56,0.6,0.4,0.48,0.25,0.5,0.5,0.25,0.25,0.33,0.58,0.48,0.25,0.88,0.55,0.61,0.48,0.29,0.25,0.6,0.4,0.48,0.61,0.29,0.44,0.33,0.29,0.55,0.58,0.42,0.25,0.5,0.4,0.48,0.25,0.33,0.55,0.6,0.58,0.61,0.25,0.33,0.55,0.25,0.55,0.48,0.25,0.56,0.48,0.4,0.56,0.25,0.5,0.44,0.44,0.6,0.4,0.5,0.33,0.48,0.25,0.33,0.55,0.25,0.5,0.25,0.83,0.29,0.61,0.48,0.25,0.4,0.5,0.58,0.56,0.48,0.25,0.55,0.33,0.25,0.78,0.29,0.67,0.58,0.95,0.56,0.33,0.71,0.6,0.33,0.25" style="fill:rgb(0,0,0);font-family:PalatinoLinotype;font-size:9.82px;stroke:none;">from Figure 55, the model predictions are found to be very accurate to a wide range of AlZnMg(Cu) </text>
   <text y="2.053" x="81.159,86.075,88.897,91.762,97.131,102.597,106.768,109.766,114.683,120.405,126.411,129.468,132.642,138.286,142.996,146.054,149.227,154.579,157.752,162.692,165.557,168.614,172.785,178.693,183.404,187.771,190.593,193.886,196.708,201.06,204.118,210.026,213.912,218.622,222.989,225.854,231.762,234.628,237.801,242.718,245.891,248.756,254.049,259.771,262.828,267.539,273.26,276.434,282.137,287.053,289.918,295.826,301.293,304.35,309.759,314.463,320.184,324.895,328.781,333.661,336.526,339.391,344.858,347.857,353.863,358.573,362.94,366.762,371.466,376.383,380.553,385.198,389.375,392.432,400.628,403.493,406.666,412.369,415.427,418.292,423.936,428.303,432.189,436.899,441.816,445.934,448.815,454.536,460.003,463.06,467.427,472.795,478.088,480.969,483.791,489.494,494.96,498.018,501.904,506.82,509.994,514.58" svgx:width="0.5,0.29,0.29,0.55,0.56,0.42,0.25,0.5,0.58,0.61,0.25,0.33,0.58,0.48,0.25,0.33,0.55,0.33,0.5,0.29,0.25,0.42,0.6,0.48,0.44,0.29,0.33,0.29,0.44,0.25,0.6,0.4,0.48,0.44,0.29,0.6,0.29,0.33,0.5,0.33,0.29,0.55,0.58,0.25,0.48,0.58,0.33,0.58,0.5,0.29,0.6,0.56,0.25,0.56,0.48,0.58,0.48,0.4,0.5,0.29,0.29,0.56,0.25,0.61,0.48,0.44,0.4,0.48,0.5,0.42,0.48,0.42,0.25,0.83,0.29,0.33,0.58,0.25,0.29,0.58,0.44,0.4,0.48,0.5,0.42,0.29,0.58,0.56,0.25,0.44,0.55,0.55,0.29,0.29,0.58,0.56,0.25,0.4,0.5,0.33,0.48,0.25" style="fill:rgb(0,0,0);font-family:PalatinoLinotype;font-size:9.82px;stroke:none;">alloys and the total specific precipitation enthalpy generally decreases with increasing cooling rate </text>
   <text y="15.283" x="81.159,84.435,89.802,93.687,95.687,100.567,103.431,106.296,108.236,113.116,115.981,118.845,124.212,129.621,133.797,136.259,138.199,145.844,147.843,153.564,156.428,161.893,167.614,169.555,172.419,177.128,182.682,187.392,190.214,192.213,197.506,200.799,202.798,206.968,209.832,218.419,221.3,224.122,229.061,232.883,235.764,238.938,244.405,246.404,249.578,254.929,256.929,260.102,265.805,270.515,272.514,280.159,283.023,292.316,297.725,302.886,305.708,307.707,312.588,315.41,318.274,323.641,329.106,333.276,335.217,338.081,342.251,344.191,347.468,352.835,358.762,364.482,370.487,372.428,375.704,381.072,384.957,386.956,390.13,395.832,400.542,402.541,408.007,412.716,418.437,423.146,426.969,431.849,434.713,436.713,442.178,445.042,450.686,455.39,458.563,461.444,465.81,467.81,473.246,477.955,483.676,488.556,494.11,496.974,502.341,508.268,512.153,514.505" svgx:width="0.33,0.55,0.4,0.25,0.5,0.29,0.29,0.25,0.5,0.29,0.29,0.55,0.56,0.42,0.25,0.25,0.78,0.25,0.58,0.29,0.56,0.58,0.25,0.29,0.48,0.56,0.48,0.29,0.25,0.55,0.33,0.25,0.42,0.29,0.88,0.29,0.29,0.5,0.4,0.29,0.33,0.56,0.25,0.33,0.55,0.25,0.33,0.58,0.48,0.25,0.78,0.29,0.95,0.56,0.52,0.29,0.25,0.5,0.29,0.29,0.55,0.56,0.42,0.25,0.29,0.42,0.25,0.33,0.55,0.6,0.58,0.61,0.25,0.33,0.55,0.4,0.25,0.33,0.58,0.48,0.25,0.56,0.48,0.58,0.48,0.4,0.5,0.29,0.25,0.56,0.29,0.58,0.48,0.33,0.29,0.44,0.25,0.55,0.48,0.58,0.5,0.56,0.29,0.55,0.6,0.4,0.25,0.25" style="fill:rgb(0,0,0);font-family:PalatinoLinotype;font-size:9.82px;stroke:none;">for all alloys. A high level of similarity to the AlMgSi alloys is found for the general kinetic behaviour. </text>
   <text y="28.513" x="81.159,89.333,94.7,102.894,107.604,113.158,117.867,121.752,124.214,126.214,129.387,135.09,139.735,141.734,145.904,151.811,156.52,160.886,163.751,166.985,169.849,174.215,176.215,180.924,186.645,189.818,195.521,200.437,203.301,209.208,214.673,216.673,222.142,227.081,229.903,235.842,240.551,244.669,247.131,249.13,254.011,258.187,260.187,268.381,273.09,275.955,278.819,280.759,285.675,289.845,291.844,295.018,300.721,305.43,307.43,312.722,318.13,321.303,326.242,329.106,334.827,339.743,345.091,347.956,352.665,354.665,360.385,365.301,369.123,375.122,380.843,385.552,389.722,393.892,395.891,401.445,406.325,409.19,415.069,419.779,423.948,426.41,428.351,433.266,437.152,441.861,443.861,449.326,454.035,459.679,464.383,468.268,473.148,476.013,478.835,484.3,486.241,491.961,494.825,500.291,506.011,510.721,514.543" svgx:width="0.83,0.55,0.83,0.48,0.56,0.48,0.4,0.25,0.25,0.33,0.58,0.48,0.25,0.42,0.6,0.48,0.44,0.29,0.33,0.29,0.44,0.25,0.48,0.58,0.33,0.58,0.5,0.29,0.6,0.56,0.25,0.56,0.5,0.29,0.6,0.48,0.42,0.25,0.25,0.5,0.42,0.25,0.83,0.48,0.29,0.29,0.25,0.5,0.42,0.25,0.33,0.58,0.48,0.25,0.55,0.55,0.33,0.5,0.29,0.58,0.5,0.55,0.29,0.48,0.25,0.58,0.5,0.4,0.61,0.58,0.48,0.42,0.42,0.25,0.56,0.5,0.29,0.6,0.48,0.42,0.25,0.25,0.5,0.4,0.48,0.25,0.56,0.48,0.58,0.48,0.4,0.5,0.29,0.29,0.56,0.25,0.58,0.29,0.56,0.58,0.48,0.4,0.25" style="fill:rgb(0,0,0);font-family:PalatinoLinotype;font-size:9.82px;stroke:none;">However, the specific enthalpy values, as well as the obtainable hardness values, are generally higher </text>
   <text y="41.743" x="81.159,84.435,89.802,93.687,95.746,98.919,104.622,109.267,111.325,116.241,121.314,126.386,131.383,133.383,138.299,141.121,143.985,149.352,154.817,158.935,161.397,163.455,169.48,175.124,177.988,182.106,184.164,187.029,191.146,193.205,197.027,201.73,206.646,210.816,216.183,221.827,226.743,232.15,235.014,239.659,242.121,244.12,249.036,253.154,255.153,258.327,264.03,268.739,270.797,273.619,278.559,281.732,284.905,289.609,293.494,295.553,299.919,305.286,311.006,314.121,319.037,321.901,327.545,329.603,335.324,338.146,343.611,349.332,354.041,357.863,359.922,364.288,369.58,375.301,379.667,384.376,390.097,393.27,397.151,402.066,405.24,408.104,413.471,419.192,423.309,425.309,430.676,433.952,435.952,440.868,443.69,446.554,451.921,457.329,460.21,465.931,471.339,473.398,478.107,480.929,485.639,494.284,498.994,504.715,507.888,512.065,514.526" svgx:width="0.33,0.55,0.4,0.25,0.33,0.58,0.48,0.25,0.5,0.52,0.52,0.52,0.25,0.5,0.29,0.29,0.55,0.56,0.42,0.25,0.25,0.61,0.58,0.29,0.42,0.25,0.29,0.42,0.25,0.4,0.48,0.5,0.42,0.55,0.58,0.5,0.55,0.29,0.48,0.25,0.25,0.5,0.42,0.25,0.33,0.58,0.48,0.25,0.29,0.5,0.33,0.33,0.48,0.4,0.25,0.44,0.55,0.58,0.33,0.5,0.29,0.58,0.25,0.58,0.29,0.56,0.58,0.48,0.4,0.25,0.44,0.55,0.58,0.44,0.48,0.58,0.33,0.4,0.5,0.33,0.29,0.55,0.58,0.42,0.25,0.55,0.33,0.25,0.5,0.29,0.29,0.55,0.56,0.29,0.58,0.56,0.25,0.48,0.29,0.48,0.88,0.48,0.58,0.33,0.42,0.25,0.25" style="fill:rgb(0,0,0);font-family:PalatinoLinotype;font-size:9.82px;stroke:none;">for the 7xxx alloys. This is reasonable, as the latter contain higher concentrations of alloying elements. </text>
   <text y="54.973" x="81.159,88.805,92.977,95.27,98.548,103.917,107.804,110.097,113.271,118.973,123.685,125.919,130.837,135.911,140.909,145.965,148.258,153.175,155.997,158.863,164.233,169.7,173.818,176.281,178.574,181.748,187.451,192.162,194.455,200.178,205.095,208.982,214.989,220.712,225.357,229.528,233.7,235.934,240.852,244.13,247.304,252.007,255.894,258.128,263.046,268.513,273.158,276.039,281.762,287.229,289.522,293.409,298.054,302.971,307.339,313.062,317.707,321.878,324.171,329.089,331.382,335.5,340.439,343.612,349.551,353.373,358.312,361.486,364.366,369.736,375.458,377.692,380.558,385.27,390.826,395.537,398.403,400.637,403.916,409.285,413.172,415.465,419.833,425.202,430.571,433.393,436.215,441.918,447.386,449.679,453.566,458.483,461.657,466.36,470.532,472.766,477.684,483.091,488.46,493.93,498.641,500.934,504.108,509.811,514.522" svgx:width="0.78,0.42,0.25,0.33,0.55,0.4,0.25,0.33,0.58,0.48,0.25,0.5,0.52,0.52,0.52,0.25,0.5,0.29,0.29,0.55,0.56,0.42,0.25,0.25,0.33,0.58,0.48,0.25,0.58,0.5,0.4,0.61,0.58,0.48,0.42,0.42,0.25,0.5,0.33,0.33,0.48,0.4,0.25,0.5,0.56,0.48,0.29,0.58,0.56,0.25,0.4,0.48,0.5,0.44,0.58,0.48,0.42,0.25,0.5,0.25,0.42,0.5,0.33,0.6,0.4,0.5,0.33,0.29,0.55,0.58,0.25,0.29,0.48,0.56,0.48,0.29,0.25,0.33,0.55,0.4,0.25,0.44,0.55,0.55,0.29,0.29,0.58,0.56,0.25,0.4,0.5,0.33,0.48,0.42,0.25,0.5,0.55,0.55,0.56,0.48,0.25,0.33,0.58,0.48,0.25" style="fill:rgb(0,0,0);font-family:PalatinoLinotype;font-size:9.82px;stroke:none;">As for the 6xxx alloys, the hardness after ageing reaches a saturation level for cooling rates above the </text>
   <text y="68.202" x="81.159,88.77,95.703,102.637,109.224,111.516,115.368,120.307,125.995,131.427,134.308,139.952,145.384,147.676,150.97,154.85,160.184,168.77,171.063,176.003,181.41,186.744,192.637,195.812,198.046,202.985,205.278,212.378,215.494,219.63,221.923,225.216,230.568,234.42,236.713,241.595,246.477,251.416,256.299,258.592,261.766,267.1,269.393,274.332,279.74,285.073,290.967,294.141,296.434,301.316,306.199,311.183,313.417,320.527,323.651,327.796,330.089,333.382,338.734,342.594,344.887,350.583,353.464,358.905,364.601,367.482,372.89,375.183,379.525,384.867,390.564,394.905,399.59,405.286,408.469,412.33,417.269,420.443,425.128,431.108,433.401,438.292,441.173,444.054,449.406,454.846,458.992,461.226,465.371,471.273,475.615,481.311,483.604,488.495,492.64,494.933,499.824,504.715,509.606,514.497" svgx:width="0.78,0.71,0.71,0.67,0.25,0.4,0.5,0.58,0.56,0.29,0.58,0.56,0.25,0.33,0.4,0.55,0.88,0.25,0.5,0.55,0.55,0.6,0.33,0.25,0.5,0.25,0.73,0.32,0.42,0.25,0.33,0.55,0.4,0.25,0.5,0.5,0.5,0.5,0.25,0.33,0.55,0.25,0.5,0.55,0.55,0.6,0.33,0.25,0.5,0.5,0.5,0.25,0.73,0.32,0.42,0.25,0.33,0.55,0.4,0.25,0.58,0.29,0.56,0.58,0.29,0.56,0.25,0.44,0.55,0.58,0.44,0.48,0.58,0.33,0.4,0.5,0.33,0.48,0.61,0.25,0.5,0.29,0.29,0.55,0.56,0.42,0.25,0.42,0.6,0.44,0.58,0.25,0.5,0.42,0.25,0.5,0.5,0.5,0.5,0.25" style="fill:rgb(0,0,0);font-family:PalatinoLinotype;font-size:9.82px;stroke:none;">UCCR ranging from about 3 K/s for 7020 to about 300 K/s for highly concentrated alloys such as 7150 </text>
   <text y="81.374" x="81.159,86.501,90.362,92.832,97.723,102.615,107.555,112.446,120.066,122.503" svgx:width="0.55,0.4,0.25,0.5,0.5,0.5,0.5,0.78,0.25,0.25" style="fill:rgb(0,0,0);font-family:PalatinoLinotype;font-size:9.82px;stroke:none;">or 7049A. </text>
   <text y="525.549" x="514.808" svgx:width="0.25" style="fill:rgb(0,0,0);font-family:PalatinoLinotype;font-size:11.76px;stroke:none;"> </text>
   <text y="547.599" x="101.974,106.899,109.84,114.747,120.139,123.574,127.987,129.692,134.106,138.519,140.729" svgx:width="0.56,0.33,0.56,0.61,0.39,0.5,0.25,0.5,0.5,0.25,0.25" style="fill:rgb(0,0,0);font-family:PalatinoLinotype,Bold;font-size:8.82px;stroke:none;">Figure 55. </text>
   <text y="547.599" x="142.429,150.721,154.955,159.306,163.07,168.39,171.876,176.103,181.493,183.198,188.183,192.595,195.164,200.484,204.71,208.452,210.157,214.508,219.623,225.013,226.718,234.507,239.324,244.714,248.941,251.51,253.215,258.517,262.003,266.23,271.582,274.111,278.052,280.929,283.498,288.316,293.45,297.192,298.897,301.778,306.601,310.087,311.792,316.927,321.338,324.824,330.119,335.259,339.49,343.237,346.984,348.689,353.106,356.051,358.934,363.166,366.657,368.362,372.779,377.69,381.865,384.451,389.591,394.502,396.207,400.624,405.764,411.16,412.865,416.612,421.919,426.151,430.033,432.607,435.552,438.126,442.008,443.713,448.946,452.415,456.647,460.57,463.145,468.452,471.026,473.909,478.326,481.209,483.784,488.606,493.746" svgx:width="0.95,0.48,0.5,0.42,0.6,0.4,0.48,0.61,0.25,0.56,0.5,0.29,0.6,0.48,0.42,0.25,0.5,0.58,0.61,0.25,0.88,0.55,0.61,0.48,0.29,0.25,0.6,0.4,0.48,0.61,0.29,0.44,0.33,0.29,0.55,0.58,0.42,0.25,0.33,0.55,0.4,0.25,0.58,0.5,0.4,0.61,0.58,0.48,0.42,0.42,0.25,0.5,0.33,0.33,0.48,0.4,0.25,0.5,0.56,0.48,0.29,0.58,0.56,0.25,0.5,0.58,0.61,0.25,0.42,0.6,0.48,0.44,0.29,0.33,0.29,0.44,0.25,0.6,0.4,0.48,0.44,0.29,0.6,0.29,0.33,0.5,0.33,0.29,0.55,0.58,0.25" style="fill:rgb(0,0,0);font-family:PalatinoLinotype;font-size:8.82px;stroke:none;">Measured values and model predictions for hardness after ageing and specific precipitation </text>
   <text y="560.3" x="101.974,106.196,111.326,114.199,119.33,123.737,126.302,131.599,134.164,138.386,142.124,144.329,145.005,149.818,152.699,154.90400000000002,155.58,159.317,161.882,166.43,168.63500000000002,169.311,176.17,178.734,184.614,189.744,198.084,202.985,205.92,212.165,217.479,220.412,222.61700000000002,223.293,227.699,230.262,232.825,237.636,242.535,246.27,248.47500000000002,249.152,252.085,256.49,260.896,265.301,268.235,270.436,272.64099999999996,273.317,279.608,284.018,286.581,291.894,296.115,299.85,302.055,302.731,305.613,310.435,313.915,316.12,316.796,319.668,324.796,328.971,331.176,331.852,334.723,339.487,342.358,346.764,349.327,352.168,355.906,361.203,365.426,369.339,371.904,374.839,377.404,381.317,383.522,384.198,389.496,392.978,397.152,401.093,403.658,408.956,411.52,414.394,418.801,421.674,424.239,429.052,434.182,436.387,437.063,441.285,446.415,449.289,454.345,458.752,461.317,466.615,471.516,473.721,474.397,481.749,485.971,489.453,493.675" svgx:width="0.48,0.58,0.33,0.58,0.5,0.29,0.6,0.29,0.48,0.42,0.25,0.55,0.55,0.33,0.25,0.55,0.42,0.29,0.52,0.25,0.55,0.78,0.29,0.67,0.58,0.95,0.56,0.33,0.71,0.6,0.33,0.25,0.55,0.5,0.29,0.29,0.55,0.56,0.42,0.25,0.55,0.33,0.5,0.5,0.5,0.33,0.25,0.25,0.55,0.72,0.5,0.29,0.6,0.48,0.42,0.25,0.55,0.33,0.55,0.4,0.25,0.55,0.33,0.58,0.48,0.25,0.55,0.33,0.55,0.33,0.5,0.29,0.25,0.42,0.6,0.48,0.44,0.29,0.33,0.29,0.44,0.25,0.55,0.6,0.4,0.48,0.44,0.29,0.6,0.29,0.33,0.5,0.33,0.29,0.55,0.58,0.25,0.55,0.48,0.58,0.33,0.58,0.5,0.29,0.6,0.56,0.25,0.55,0.83,0.48,0.4,0.48,0.25" style="fill:rgb(0,0,0);font-family:PalatinoLinotype;font-size:8.82px;stroke:none;">enthalpies of six AlZnMg(Cu) alloys [119]. Values for the total specific precipitation enthalpy were </text>
   <text y="573.06" x="101.974,106.792,111.672,114.55,118.963,121.533,126.668,130.896,136.287,138.49200000000002,139.697,144.577,149.483,151.68800000000002,152.894,155.464,160.52,162.72500000000002,163.93,167.672,170.242,173.121,178.442,180.64700000000002,181.852,185.771,190.589,195.352,197.922,200.492,205.628,210.534,212.739,213.944,220.773,225.406,231.661,233.866,235.071,239.484,243.226,245.431,246.636,251.454,256.775,259.654,262.224,264.794,269.929,274.104,279.514,281.719,282.925,287.337,292.251,297.07,302.057,306.232,308.466,310.671,311.876,316.783,321.602,325.09,327.29499999999996,328.5,332.913,337.327,341.74,346.154,353.018,355.228,357.433,358.638,362.558,367.694,370.265,375.569,378.45,382.215,386.443,391.499,395.242,400.061,403.549,405.75399999999996,406.959,411.84,416.254,419.997,424.225,429.617,431.822,433.028,438.42,440.991,443.932,446.813,450.987,454.457,458.685,463.822,466.701,469.272,473.685,476.256,478.46099999999996,479.666,482.607,487.021,490.764,493.644" svgx:width="0.55,0.55,0.33,0.5,0.29,0.58,0.48,0.61,0.25,0.55,0.55,0.56,0.25,0.55,0.29,0.58,0.25,0.55,0.42,0.29,0.33,0.6,0.25,0.55,0.44,0.55,0.55,0.29,0.29,0.58,0.56,0.25,0.55,0.77,0.52,0.71,0.25,0.55,0.5,0.42,0.25,0.55,0.55,0.6,0.33,0.29,0.29,0.58,0.48,0.61,0.25,0.55,0.5,0.55,0.55,0.56,0.48,0.25,0.25,0.55,0.56,0.55,0.4,0.25,0.55,0.5,0.5,0.5,0.5,0.78,0.25,0.25,0.55,0.44,0.58,0.29,0.6,0.33,0.42,0.48,0.58,0.42,0.55,0.4,0.25,0.55,0.55,0.5,0.42,0.48,0.61,0.25,0.55,0.61,0.29,0.33,0.33,0.48,0.4,0.48,0.58,0.33,0.29,0.5,0.29,0.25,0.55,0.33,0.5,0.42,0.33,0.25" style="fill:rgb(0,0,0);font-family:PalatinoLinotype;font-size:8.82px;stroke:none;">obtained by in situ cooling DSC as outlined above. For 7049A, chip-sensor based differential fast </text>
   <text y="585.82" x="101.974,105.712,109.626,114.035,119.166,124.297,126.862,131.993,136.895,139.129,143.044,147.452,150.018,154.831,158.314,160.879,168.664,172.887,175.761,179.244,184.146,186.38,193.733,198.141,201.879,204.113,208.521,213.82,219.119,221.684,224.25,228.473,233.86,236.094,239.03,243.438,247.846,252.254,254.458,258.866,263.275,267.683,270.564,272.768" svgx:width="0.42,0.44,0.5,0.58,0.58,0.29,0.58,0.56,0.25,0.44,0.5,0.29,0.55,0.4,0.29,0.88,0.48,0.33,0.4,0.56,0.25,0.83,0.5,0.42,0.25,0.5,0.6,0.6,0.29,0.29,0.48,0.61,0.25,0.33,0.5,0.5,0.5,0.25,0.5,0.5,0.5,0.33,0.25,0.25" style="fill:rgb(0,0,0);font-family:PalatinoLinotype;font-size:8.82px;stroke:none;">scanning calorimetry was applied [130,162]. </text>
   <text y="610.516" x="101.974,109.62,113.792,116.247,117.085,123.092,125.914,130.086,134.454,140.383,144.5,148.672,153.383,159.324,161.77900000000002,162.676,165.954,171.323,175.146,177.601,178.439,186.085,188.951,198.185,203.652,208.769,211.65,214.10500000000002,214.943,219.861,222.683,225.549,230.918,236.386,240.503,242.967,245.42200000000003,246.26,249.127,252.3,254.75500000000002,255.593,260.511,263.333,267.504,272.797,275.252,276.149,281.872,287.241,290.107,296.047,300.165,302.62,303.517,306.796,312.165,315.987,318.442,319.338,326.925,329.747,336.304,342.026,351.322,356.789,363.758,369.638,372.09299999999996,372.989,377.869,380.735,383.601,388.894,394.361,398.533,400.988,401.885,405.059,410.702,415.62,418.794,421.24899999999997,422.087,426.967,429.42199999999997,430.319,433.185,438.555,446.669,451.373,455.26,457.715,458.612,462.98,468.349,474.072,478.44,483.151,488.874,492.047,495.869,500.787,503.96,508.672,514.612" svgx:width="0.78,0.42,0.25,0.55,0.61,0.29,0.42,0.44,0.6,0.42,0.42,0.48,0.61,0.25,0.55,0.33,0.55,0.4,0.25,0.55,0.78,0.29,0.95,0.56,0.52,0.29,0.25,0.55,0.5,0.29,0.29,0.55,0.56,0.42,0.25,0.25,0.55,0.29,0.33,0.25,0.55,0.5,0.29,0.42,0.55,0.25,0.55,0.58,0.55,0.29,0.61,0.42,0.25,0.55,0.33,0.55,0.4,0.25,0.55,0.78,0.29,0.67,0.58,0.95,0.56,0.71,0.6,0.25,0.55,0.5,0.29,0.29,0.55,0.56,0.42,0.25,0.55,0.33,0.58,0.5,0.33,0.25,0.55,0.5,0.25,0.55,0.29,0.55,0.83,0.48,0.4,0.25,0.55,0.44,0.55,0.58,0.44,0.48,0.58,0.33,0.4,0.5,0.33,0.48,0.61,0.25" style="fill:rgb(0,0,0);font-family:PalatinoLinotype;font-size:9.82px;stroke:none;">As discussed for AlMgSi alloys, it also holds for AlZnMgCu alloys that a lower concentrated </text>
   <text y="623.687" x="81.159,88.793,91.648,98.193,103.904,113.187,118.643,125.523,131.461,133.754,138.66,141.514,144.369,149.726,155.182,157.475,161.769,166.708,172.419,174.653,179.559,183.915,189.626,192.48,197.18,202.724,207.424,209.717,215.427,218.282,223.737,229.448,234.148,238.023,240.316,245.96,250.899,254.775,260.77,266.481,271.18,275.34,279.5,281.793,287.262,292.202,295.056,300.973,305.673,309.833,312.067,314.921,318.24,320.533,324.891,330.25,335.61,338.466,341.322,347.035,352.492,354.785,357.642,361.804,364.097,367.974,372.619,376.78,379.98,383.858,386.714,391.072,394.272,398.974,404.971,407.264,410.464,415.823,418.116,426.784,431.485,437.483,440.339,446.258,454.925,457.218,461.576,466.936,472.228,475.085,477.941,483.654,489.111,491.345,495.222,500.13,503.33,508.032,512.194,514.546" svgx:width="0.78,0.29,0.67,0.58,0.95,0.56,0.71,0.6,0.25,0.5,0.29,0.29,0.55,0.56,0.25,0.44,0.5,0.58,0.25,0.5,0.44,0.58,0.29,0.48,0.56,0.48,0.25,0.58,0.29,0.56,0.58,0.48,0.4,0.25,0.58,0.5,0.4,0.61,0.58,0.48,0.42,0.42,0.25,0.56,0.5,0.29,0.6,0.48,0.42,0.25,0.29,0.33,0.25,0.44,0.55,0.55,0.29,0.29,0.58,0.56,0.25,0.29,0.42,0.25,0.4,0.48,0.42,0.33,0.4,0.29,0.44,0.33,0.48,0.61,0.25,0.33,0.55,0.25,0.88,0.48,0.61,0.29,0.6,0.88,0.25,0.44,0.55,0.55,0.29,0.29,0.58,0.56,0.25,0.4,0.5,0.33,0.48,0.42,0.25,0.25" style="fill:rgb(0,0,0);font-family:PalatinoLinotype;font-size:9.82px;stroke:none;">AlZnMgCu alloy can achieve higher hardness values if cooling is restricted to medium cooling rates. </text>
   <text y="636.916" x="81.159,86.625,89.49,94.899,100.837,104.723,109.434,112.197,117.113,122.03,124.852,129.219,134.512,143.157,149.037,153.954,157.84,162.55,166.721,169.484,174.401,179.281,184.161,189.101,192.336,194.805,197.628,202.508,207.447,212.327,217.267,220.03,224.947,230.668,236.674,239.437,244.354,249.234,254.151,259.031,261.897,267.265,275.46,282.399,288.278,290.748,293.57,301.294,304.571,307.334,310.508,316.211,320.921,325.092,329.802,332.625,335.798,341.501,345.387,350.097,354.808,357.63,363.185,368.101,371.987,374.809,379.726,385.448,388.621,392.798,395.26,398.024,402.905,407.844,412.724,417.605,420.427,425.795,433.99,440.929,446.867,449.33,452.152,457.874,462.754,466.925,469.747,472.92,478.564,483.275,486.097,488.962,494.33,502.525,507.236,511.406,514.521" svgx:width="0.56,0.29,0.56,0.6,0.4,0.48,0.25,0.5,0.5,0.25,0.44,0.55,0.88,0.6,0.5,0.4,0.48,0.42,0.25,0.5,0.5,0.5,0.5,0.34,0.25,0.25,0.5,0.5,0.5,0.5,0.25,0.5,0.58,0.61,0.25,0.5,0.5,0.5,0.5,0.29,0.55,0.83,0.71,0.6,0.25,0.25,0.79,0.33,0.25,0.33,0.58,0.48,0.42,0.48,0.25,0.33,0.58,0.4,0.48,0.48,0.25,0.56,0.5,0.4,0.29,0.5,0.58,0.33,0.42,0.25,0.25,0.5,0.5,0.5,0.5,0.29,0.55,0.83,0.71,0.6,0.25,0.25,0.58,0.5,0.42,0.25,0.33,0.58,0.48,0.25,0.29,0.55,0.83,0.48,0.42,0.33,0.25" style="fill:rgb(0,0,0);font-family:PalatinoLinotype;font-size:9.82px;stroke:none;">Figure 56 compares 7075I, 7085 and 7085lowCu. Of these three variants, 7085lowCu, has the lowest </text>
  </g>
  <rect style="fill:pink;opacity:0.2;stroke:blue;stroke-width:0.3;" x="80.923" y="47.48" height="436.062" width="433.709" title="53"/>
  <text y="47.48" class="image" id="image.53.1" width="433" height="436" x="80.923" style="font-size:5.0px;">image.53.1.81_515.47_484</text>
  <g begin="text">
   <text y="544.117" x="97.795,102.78,105.766,110.751,116.23,119.718,124.203,126.434,130.917,135.4" svgx:width="0.56,0.33,0.56,0.61,0.39,0.5,0.55,0.5,0.5,0.25" style="fill:rgb(0,0,0);font-family:URWPalladioL-Bold;font-size:8.97px;stroke:none;">Figure 55.</text>
   <text y="544.117" x="140.782,149.128,153.355,157.766,161.507,166.827,170.154,174.38,179.8517,182.003,186.988,191.399,193.967,199.287,203.513,207.28040000000001,209.495,213.906,219.041,224.5127,226.664,234.455,239.272,244.663,248.889,251.49030000000002,253.689,258.992,262.318,266.544,271.935,274.502,278.42,281.296,283.864,288.681,293.816,297.5834,299.798,302.736,307.553,311.141,313.27,318.405,322.817,326.143,331.534,336.669,340.895,344.636,348.40340000000003,350.609,355.021,357.959,360.835,365.061,368.649,370.787,375.199,380.104,384.33,386.898,392.033,397.0562,399.171,403.582,408.717,414.1887,416.349,420.09,425.392,429.618,433.536,436.103,441.432,445.3788,447.591,452.893,456.22,460.446,464.363,466.931,472.233,474.801,477.677,482.089,484.965,487.532,492.35" svgx:width="0.95,0.48,0.5,0.42,0.6,0.4,0.48,0.61,0.55,0.56,0.5,0.29,0.6,0.48,0.42,0.55,0.5,0.58,0.61,0.55,0.88,0.55,0.61,0.48,0.29,0.55,0.6,0.4,0.48,0.61,0.29,0.44,0.33,0.29,0.55,0.58,0.42,0.55,0.33,0.55,0.4,0.55,0.58,0.5,0.4,0.61,0.58,0.48,0.42,0.42,0.55,0.5,0.33,0.33,0.48,0.4,0.55,0.5,0.56,0.48,0.29,0.58,0.56,0.55,0.5,0.58,0.61,0.55,0.42,0.6,0.48,0.44,0.29,0.61,0.44,0.55,0.6,0.4,0.48,0.44,0.29,0.6,0.29,0.33,0.5,0.33,0.29,0.55,0.58" style="fill:rgb(0,0,0);font-family:URWPalladioL-Roma;font-size:8.97px;stroke:none;">Measured values and model predictions for hardness after ageing and speciﬁc precipitation</text>
   <text y="556.939" x="97.795,102.176,107.499,110.48,115.803,120.376,123.037,128.534,131.195,135.576,139.3434,141.914,146.898,149.8581,152.404,156.282,158.943,163.6074,166.123,173.238,175.9,182.0,187.323,195.974,201.059,204.105,210.589,216.104,219.06410000000002,221.601,226.174,228.835,231.496,236.49,241.575,245.3424,247.913" svgx:width="0.48,0.58,0.33,0.58,0.5,0.29,0.6,0.29,0.48,0.42,0.55,0.55,0.33,0.55,0.42,0.29,0.52,0.55,0.78,0.29,0.67,0.58,0.95,0.56,0.33,0.71,0.6,0.33,0.55,0.5,0.29,0.29,0.55,0.56,0.42,0.55,0.33" style="fill:rgb(0,0,0);font-family:URWPalladioL-Roma;font-size:8.97px;stroke:none;">enthalpies of six AlZnMg(Cu) alloys [</text>
   <text y="556.939" x="250.955,255.438,259.921" svgx:width="0.5,0.5,0.5" style="fill:rgb(8,117,183);font-family:URWPalladioL-Roma;font-size:8.97px;stroke:none;">119</text>
   <text y="556.939" x="264.405,267.451,269.69350000000003,273.523,279.294,283.867,286.529,292.043,296.424,300.1914,302.762,305.808,310.801,314.389,316.865,319.846,325.169,329.4746,332.01,334.992,339.985,342.967,347.54,350.1413,352.652,356.53,362.026,366.407,370.468,373.129,378.663,382.6098,385.183,390.68,394.128,398.509,402.569,405.231,410.727,413.389,416.37,420.943,423.925,426.586,431.58,436.7826,439.363,443.744,449.066,452.048,457.371,461.944,464.605,470.102,475.12519999999995,477.638,485.265,489.646,493.103" svgx:width="0.33,0.25,0.55,0.72,0.5,0.29,0.6,0.48,0.42,0.55,0.33,0.55,0.4,0.55,0.33,0.58,0.48,0.55,0.33,0.55,0.33,0.5,0.29,0.55,0.42,0.6,0.48,0.44,0.29,0.61,0.44,0.55,0.6,0.4,0.48,0.44,0.29,0.6,0.29,0.33,0.5,0.33,0.29,0.55,0.58,0.55,0.48,0.58,0.33,0.58,0.5,0.29,0.6,0.56,0.55,0.83,0.48,0.4,0.48" style="fill:rgb(0,0,0);font-family:URWPalladioL-Roma;font-size:8.97px;stroke:none;">]. Values for the total speciﬁc precipitation enthalpy were</text>
   <text y="569.761" x="97.795,102.789,107.846,110.828,115.401,118.062,123.385,127.766,133.23770000000002,136.299,141.356,146.3792,149.395,152.057,157.25959999999998,160.324,164.202,166.864,169.845,175.227,178.314,182.375,187.368,192.362,195.023,197.685,203.007,208.0302,211.037,218.116,222.918,229.2867,232.347,236.92,240.6874,243.752,248.745,254.26,257.242,259.903,262.564,267.887,272.268,277.73969999999997,280.801,285.374,290.431,295.425,300.592,304.973,307.2155,312.528,317.603,322.597,326.185,329.164,333.736,338.309,342.882,347.455,354.57,356.8125,359.802,363.863,369.185,371.847,377.343,380.389,384.267,388.647,393.97,397.848,402.842,406.43,409.408,414.466,419.039,422.916,427.297,432.7687,435.83,441.418" svgx:width="0.55,0.55,0.33,0.5,0.29,0.58,0.48,0.61,0.55,0.55,0.56,0.55,0.29,0.58,0.55,0.42,0.29,0.33,0.6,0.55,0.44,0.55,0.55,0.29,0.29,0.58,0.56,0.55,0.77,0.52,0.71,0.55,0.5,0.42,0.55,0.55,0.6,0.33,0.29,0.29,0.58,0.48,0.61,0.55,0.5,0.55,0.55,0.56,0.48,0.25,0.55,0.56,0.55,0.4,0.55,0.5,0.5,0.5,0.5,0.78,0.25,0.55,0.44,0.58,0.29,0.6,0.33,0.42,0.48,0.58,0.42,0.55,0.4,0.55,0.55,0.5,0.42,0.48,0.61,0.55,0.61,0.29" style="fill:rgb(0,0,0);font-family:URWPalladioL-Roma;font-size:8.97px;stroke:none;">obtained by in situ cooling DSC as outlined above. For 7049A, chip-sensor based di</text>
   <text y="569.761" x="444.081" svgx:width="0.61" style="fill:rgb(0,0,0);font-family:Rpxr;font-size:8.97px;stroke:none;">ﬀ</text>
   <text y="569.761" x="449.642,454.023,457.471,461.852,467.174,470.156,472.817,477.39,479.99129999999997,483.006,486.051,490.624,494.502" svgx:width="0.48,0.4,0.48,0.58,0.33,0.29,0.5,0.29,0.55,0.33,0.5,0.42,0.33" style="fill:rgb(0,0,0);font-family:URWPalladioL-Roma;font-size:8.97px;stroke:none;">erential fast</text>
   <text y="582.583" x="97.795,101.597,105.578,110.061,115.279,120.498,123.107,128.326,133.3492,135.553,139.534,144.017,146.626,151.522,155.063,157.673,165.59,169.885,172.808,176.35,181.3732,183.577,191.055,195.538,199.30540000000002,201.581,206.064,211.453,216.842,219.451,222.06,226.355,231.8267,234.075" svgx:width="0.42,0.44,0.5,0.58,0.58,0.29,0.58,0.56,0.55,0.44,0.5,0.29,0.55,0.4,0.29,0.88,0.48,0.33,0.4,0.56,0.55,0.83,0.5,0.42,0.55,0.5,0.6,0.6,0.29,0.29,0.48,0.61,0.55,0.33" style="fill:rgb(0,0,0);font-family:URWPalladioL-Roma;font-size:8.97px;stroke:none;">scanning calorimetry was applied [</text>
   <text y="582.583" x="237.061,241.544,246.028" svgx:width="0.5,0.5,0.5" style="fill:rgb(8,117,183);font-family:URWPalladioL-Roma;font-size:8.97px;stroke:none;">130</text>
   <text y="582.583" x="250.511" svgx:width="0.25" style="fill:rgb(0,0,0);font-family:URWPalladioL-Roma;font-size:8.97px;stroke:none;">,</text>
   <text y="582.583" x="252.752,257.236,261.719" svgx:width="0.5,0.5,0.5" style="fill:rgb(8,117,183);font-family:URWPalladioL-Roma;font-size:8.97px;stroke:none;">162</text>
   <text y="582.583" x="266.202,269.188" svgx:width="0.33,0.25" style="fill:rgb(0,0,0);font-family:URWPalladioL-Roma;font-size:8.97px;stroke:none;">].</text>
   <text y="605.916" x="97.795,105.701,109.88419999999999,112.946,119.155,122.112,126.421,130.933,137.06,141.369,145.678,150.545,156.6206,159.681,163.065,168.613,172.597,175.564,183.47,186.427,196.04,201.69,207.025,209.9134,212.919,218.0,220.957,223.914,229.462,235.112,239.421,241.911,245.01,247.967,251.2538,254.206,259.287,262.244,266.553,272.031,275.038,280.952,286.501,289.458,295.667,299.8502,302.912,306.296,311.844,315.828,318.785,326.691,329.648,336.426,342.34,351.953,357.603,364.808,370.784,373.872,378.953,381.91,384.867,390.416,396.066,400.2492,403.311,406.624,412.538,417.619,420.90580000000006,423.868,428.848,431.876,434.833,440.381,448.856,453.724,457.70799999999997,460.675,465.186,470.735,476.649,481.161,486.028,491.943,495.255,499.269,504.35,507.663,512.531" svgx:width="0.78,0.42,0.55,0.61,0.29,0.42,0.44,0.6,0.42,0.42,0.48,0.61,0.55,0.33,0.55,0.4,0.55,0.78,0.29,0.95,0.56,0.52,0.29,0.55,0.5,0.29,0.29,0.55,0.56,0.42,0.25,0.55,0.29,0.33,0.55,0.5,0.29,0.42,0.55,0.55,0.58,0.55,0.29,0.61,0.42,0.55,0.33,0.55,0.4,0.55,0.78,0.29,0.67,0.58,0.95,0.56,0.71,0.6,0.55,0.5,0.29,0.29,0.55,0.56,0.42,0.55,0.33,0.58,0.5,0.33,0.55,0.5,0.55,0.29,0.55,0.83,0.48,0.4,0.55,0.44,0.55,0.58,0.44,0.48,0.58,0.33,0.4,0.5,0.33,0.48,0.61" style="fill:rgb(0,0,0);font-family:URWPalladioL-Roma;font-size:9.96px;stroke:none;">As discussed for AlMgSi alloys, it also holds for AlZnMgCu alloys that a lower concentrated</text>
   <text y="619.425" x="76.147,83.937,86.85,93.529,99.356,108.828,114.394,121.493,127.469,130.014,135.02,137.934,140.847,146.314,151.89159999999998,154.364,158.809,163.816,169.5928,172.126,177.132,181.578,187.405,190.319,195.114,200.771,205.5518,208.051,213.878,216.791,222.358,228.185,232.981,236.965,239.419,245.247,250.253,254.028,260.145,265.972,270.768,275.014,279.1972,281.742,287.399,292.405,295.319,301.356,306.152,310.3352,312.88,315.794,319.0808,321.611,326.057,331.524,336.99,339.904,342.818,348.645,354.2226,356.695,359.608,363.7912,366.337,370.111,374.907,379.153,382.417,386.372,389.285,393.731,396.995,401.791,407.8666,410.391,413.655,419.133,421.605,430.446,435.242,441.36,444.273,450.311,461.635,466.08,471.547,477.014,479.928,482.841,488.668,494.2456,496.718,500.673,505.68,508.944,513.74,517.985" svgx:width="0.78,0.29,0.67,0.58,0.95,0.56,0.71,0.6,0.55,0.5,0.29,0.29,0.55,0.56,0.55,0.44,0.5,0.58,0.55,0.5,0.44,0.58,0.29,0.48,0.56,0.48,0.55,0.58,0.29,0.56,0.58,0.48,0.4,0.55,0.58,0.5,0.4,0.61,0.58,0.48,0.42,0.42,0.55,0.56,0.5,0.29,0.6,0.48,0.42,0.55,0.29,0.33,0.55,0.44,0.55,0.55,0.29,0.29,0.58,0.56,0.55,0.29,0.42,0.55,0.4,0.48,0.42,0.33,0.4,0.29,0.44,0.33,0.48,0.61,0.55,0.33,0.55,0.55,0.88,0.48,0.61,0.29,0.6,0.88,0.44,0.55,0.55,0.29,0.29,0.58,0.56,0.55,0.4,0.5,0.33,0.48,0.42,0.25" style="fill:rgb(0,0,0);font-family:URWPalladioL-Roma;font-size:9.96px;stroke:none;">AlZnMgCu alloy can achieve higher hardness values if cooling is restricted to mediumcooling rates.</text>
   <text y="632.935" x="76.535,82.163,85.108,90.736,96.84,100.656" svgx:width="0.56,0.29,0.56,0.6,0.4,0.48" style="fill:rgb(0,0,0);font-family:URWPalladioL-Roma;font-size:9.96px;stroke:none;">Figure</text>
   <text y="632.935" x="108.004,113.065" svgx:width="0.5,0.5" style="fill:rgb(8,117,183);font-family:URWPalladioL-Roma;font-size:9.96px;stroke:none;">56</text>
   <text y="632.935" x="120.616,125.11,130.637,139.575,145.658,150.719,154.535,159.384,163.56719999999999,166.165,171.226,176.287,181.348,186.409,189.82,192.31,194.851,199.912,204.973,210.034,215.01399999999998,217.585,222.646,228.537,234.61260000000001,237.212,242.273,247.334,252.395,257.456,260.401,265.928,274.37,281.546,287.65,290.14,293.672,301.628,304.9148,307.499,310.799,316.69,321.538,325.83,330.6108,333.168,336.468,342.359,346.175,351.024,355.8048,358.362,364.081,369.142,373.14,376.086,381.147,387.038,390.337,394.629,397.119,399.66,404.721,409.782,414.843,419.904,422.849,428.376,436.818,443.994,450.098,452.588,455.118,461.009,466.07,470.2532,472.852,476.152,482.043,486.8238,489.391,492.337,497.863,506.305,511.154,515.445" svgx:width="0.44,0.55,0.88,0.6,0.5,0.4,0.48,0.42,0.55,0.5,0.5,0.5,0.5,0.34,0.25,0.55,0.5,0.5,0.5,0.5,0.55,0.5,0.58,0.61,0.55,0.5,0.5,0.5,0.5,0.29,0.55,0.83,0.71,0.6,0.25,0.55,0.79,0.33,0.55,0.33,0.58,0.48,0.42,0.48,0.55,0.33,0.58,0.4,0.48,0.48,0.55,0.56,0.5,0.4,0.29,0.5,0.58,0.33,0.42,0.25,0.55,0.5,0.5,0.5,0.5,0.29,0.55,0.83,0.71,0.6,0.25,0.55,0.58,0.5,0.42,0.55,0.33,0.58,0.48,0.55,0.29,0.55,0.83,0.48,0.42,0.33" style="fill:rgb(0,0,0);font-family:URWPalladioL-Roma;font-size:9.96px;stroke:none;">compares 7075I, 7085 and 7085lowCu. Of these three variants, 7085lowCu, has the lowest</text>
   <text y="646.444" x="76.535,85.912,91.48960000000001,93.912,98.313,103.726,109.495,112.727,117.475,123.244,126.476,128.966,131.442,137.499,142.247,146.45,152.407,155.292,158.524,163.3048,165.76,168.645,171.876,176.0592,178.567,181.452,186.864,195.1308,197.62,204.648,210.624,213.113,217.515,222.927,228.696,231.928,236.676,242.445,245.677,248.167,251.635,257.711,263.48,268.2608,270.717,275.673,281.185,285.933,289.234,295.003,299.959,303.697,309.753,314.501,320.271,323.155,328.925,334.50260000000003,336.924,342.882,348.294,351.526,356.274,362.043,365.275,368.159,373.116,376.0044,378.488,383.901,387.18780000000004,389.69,394.646,399.603,404.559,409.515,412.4,417.812,426.08,433.108,439.084,441.573,444.805,450.574,455.531,458.81780000000003,461.25,464.987,469.736,478.489,483.445,486.33,492.099,496.2822,498.79,503.746,507.047,510.279,515.027" svgx:width="0.95,0.56,0.55,0.44,0.55,0.58,0.33,0.48,0.58,0.33,0.25,0.55,0.61,0.48,0.42,0.6,0.29,0.33,0.48,0.55,0.29,0.33,0.42,0.55,0.29,0.55,0.83,0.55,0.71,0.6,0.55,0.44,0.55,0.58,0.33,0.48,0.58,0.33,0.25,0.55,0.61,0.58,0.48,0.55,0.5,0.56,0.48,0.33,0.58,0.5,0.4,0.61,0.48,0.58,0.29,0.58,0.56,0.55,0.6,0.55,0.33,0.48,0.58,0.33,0.29,0.5,0.29,0.55,0.55,0.33,0.55,0.5,0.5,0.5,0.5,0.29,0.55,0.83,0.71,0.6,0.55,0.33,0.58,0.5,0.33,0.55,0.4,0.48,0.88,0.5,0.29,0.58,0.42,0.55,0.5,0.33,0.33,0.48,0.4" style="fill:rgb(0,0,0);font-family:URWPalladioL-Roma;font-size:9.96px;stroke:none;">Mg content, despite its low Cu content. The age-hardening potential of 7085lowCu that remains after</text>
   <text y="659.954" x="76.535,81.047,86.595,92.144,95.101,98.058,103.972,109.5496,112.935,118.016,121.3028,124.641,129.621,133.035" svgx:width="0.44,0.55,0.55,0.29,0.29,0.58,0.56,0.55,0.5,0.33,0.55,0.5,0.55,0.73" style="fill:rgb(0,0,0);font-family:URWPalladioL-Roma;font-size:9.96px;stroke:none;">cooling at 1 K</text>
   <text y="659.954" x="140.408" svgx:width="0.29" style="fill:rgb(0,0,0);font-family:Rpxr;font-size:9.96px;stroke:none;">/</text>
   <text y="659.954" x="143.324,147.5072,150.945,154.776,159.644,163.953,170.08,173.037,176.35,180.5332,183.971,186.928,192.7048,196.155,201.135,204.549,210.463,215.544,219.375,225.584,231.498,236.366,240.675,244.8582,248.296,253.844,257.1308,260.541,265.622,268.579,277.552,283.1,287.409,290.6958,294.034,299.115,304.196,309.17600000000004,312.59,321.045,328.382,333.462,335.952,341.948,349.853,353.13980000000004,356.479,359.792,365.706,368.663,372.8462,376.284,380.796,386.345,391.893,394.85,397.807,403.721,409.2986,412.674,416.688,421.769,425.082,429.949,432.439,436.006,439.318,445.233,450.0138,453.413,458.494,464.144,469.011,472.395,478.309,483.39,487.232,493.44,498.308,504.222,507.179,513.094" svgx:width="0.42,0.55,0.4,0.48,0.42,0.6,0.29,0.33,0.42,0.55,0.29,0.58,0.55,0.5,0.55,0.58,0.5,0.4,0.61,0.58,0.48,0.42,0.42,0.55,0.55,0.33,0.55,0.5,0.29,0.88,0.55,0.42,0.33,0.55,0.5,0.5,0.5,0.55,0.83,0.72,0.5,0.25,0.55,0.78,0.33,0.55,0.33,0.58,0.29,0.42,0.55,0.44,0.55,0.55,0.29,0.29,0.58,0.56,0.55,0.4,0.5,0.33,0.48,0.25,0.55,0.33,0.58,0.48,0.55,0.5,0.56,0.48,0.33,0.58,0.5,0.4,0.61,0.48,0.58,0.29,0.58,0.56" style="fill:rgb(0,0,0);font-family:URWPalladioL-Roma;font-size:9.96px;stroke:none;">s results in a hardness of almost 150 HV1. At this cooling rate, the age-hardening</text>
   <text y="673.463" x="76.236,82.104,87.435,90.617,95.294,100.976,104.159,107.0,111.882,114.77040000000001,116.978,122.309,125.5958,127.806,132.688,137.569,142.451,147.333,150.7194,152.878,158.561,163.442,167.6252,169.837,174.719,177.56,181.231,185.908,190.789,196.755,202.33259999999999,204.439,210.404,214.075,219.406,225.274,231.141,235.818,241.89360000000002,244.039,247.222,252.70000000000002,254.808,257.092,262.98,267.119,270.40580000000006,272.548,277.429,282.311,287.291,289.448,297.571,304.62,309.502,311.992,315.35,322.946,328.628,334.594,339.27,343.25399999999996,345.382,348.565,354.247,358.924,363.064,367.8448,369.986,374.321,379.652,385.334,391.299,394.14,397.323,400.164,405.495,411.177,415.317,417.807,420.062,423.245,428.927,433.7078,435.849,438.691,444.021,452.164,456.841,460.825,462.953,467.287,472.618,478.301,482.635,487.312,492.994,496.177,500.034,504.915,508.098,512.775" svgx:width="0.6,0.55,0.33,0.48,0.58,0.33,0.29,0.5,0.29,0.55,0.55,0.33,0.55,0.5,0.5,0.5,0.5,0.34,0.55,0.58,0.5,0.42,0.55,0.5,0.29,0.4,0.48,0.5,0.61,0.56,0.55,0.61,0.4,0.55,0.6,0.6,0.48,0.61,0.55,0.33,0.55,0.55,0.23,0.6,0.42,0.33,0.55,0.5,0.5,0.5,0.55,0.83,0.72,0.5,0.25,0.55,0.78,0.58,0.61,0.48,0.4,0.55,0.33,0.58,0.48,0.42,0.48,0.55,0.44,0.55,0.58,0.61,0.29,0.33,0.29,0.55,0.58,0.42,0.25,0.55,0.33,0.58,0.48,0.55,0.29,0.55,0.83,0.48,0.4,0.55,0.44,0.55,0.58,0.44,0.48,0.58,0.33,0.4,0.5,0.33,0.48,0.61" style="fill:rgb(0,0,0);font-family:URWPalladioL-Roma;font-size:9.96px;stroke:none;">potential of 7075I has already dropped to just 100 HV1. Under these conditions, the lower concentrated</text>
   <text y="686.972" x="76.535,81.616,84.573,87.53,93.078,98.6556,101.269,109.744,115.292,121.42,124.377,130.4526,133.126,138.207,142.719,148.633,151.59,156.458,162.199" svgx:width="0.5,0.29,0.29,0.55,0.56,0.55,0.83,0.55,0.6,0.29,0.61,0.55,0.5,0.44,0.58,0.29,0.48,0.56,0.48" style="fill:rgb(0,0,0);font-family:URWPalladioL-Roma;font-size:9.96px;stroke:none;">alloy would achieve</text>
   <text y="686.972" x="169.609" svgx:width="0.67" style="fill:rgb(0,0,0);font-family:Pxsy;font-size:9.96px;stroke:none;">≈</text>
   <text y="686.972" x="176.274,181.355,186.436,191.416,194.057,202.4234,205.134,210.682,213.9688,216.606,219.919,225.833,230.6138,233.241,237.55,240.863,244.704,249.571,255.486,261.136,264.448,270.22479999999996,272.903,278.451,281.73780000000005,284.376,287.689,293.603,298.3838,301.011,306.925,309.882,315.532,321.446,324.403,329.98060000000004,332.594,337.106,342.654,348.568,353.08,357.948,363.862,367.175,371.188,376.269,379.582,384.45,390.5256,393.199,398.28,401.237,404.194,409.743,415.3206,417.933,421.317,424.274,426.814,431.682,434.222,436.712,439.314,444.395,449.475,454.556,459.637,462.594,468.143,476.618,483.822,489.798,492.491,495.448,499.6312,502.297,505.254,510.121,514.43" svgx:width="0.5,0.5,0.5,0.55,0.84,0.55,0.55,0.33,0.55,0.33,0.58,0.48,0.55,0.42,0.33,0.4,0.48,0.58,0.56,0.33,0.58,0.55,0.55,0.33,0.55,0.33,0.58,0.48,0.55,0.58,0.29,0.56,0.58,0.29,0.56,0.55,0.44,0.55,0.58,0.44,0.48,0.58,0.33,0.4,0.5,0.33,0.48,0.61,0.55,0.5,0.29,0.29,0.55,0.56,0.55,0.33,0.29,0.25,0.48,0.25,0.25,0.55,0.5,0.5,0.5,0.5,0.29,0.55,0.83,0.71,0.6,0.55,0.29,0.42,0.55,0.29,0.48,0.42,0.42" style="fill:rgb(0,0,0);font-family:URWPalladioL-Roma;font-size:9.96px;stroke:none;">150 % of the strength of the highly concentrated alloy (i.e., 7085lowCu is less</text>
   <text y="700.482" x="76.256,81.723,87.611,92.287,97.97,102.305,108.0818,110.311,114.45,119.127,124.809,128.949,131.79,134.973,137.814,143.33,148.1108,150.331,153.513,159.196,164.077,169.8538,172.093,177.492,182.823,186.006,191.7828,194.012,198.893,203.775,208.657,213.538,216.92440000000002,219.152,224.034,229.716,235.79160000000002,238.005,242.887,247.769,252.65,257.532,260.783,263.273,266.661,273.583,278.914,284.596,288.736,291.577,297.542,302.219,306.075,308.916,314.599,320.1766,322.351,325.534,331.216,335.9968,338.216,342.551,347.882,353.564,357.899,362.576,368.258,371.441,375.298,380.179,383.362,386.203,391.534,397.216,401.3992,403.689,409.02,412.3068,414.595,419.477,422.318,425.159,430.49,435.918,438.759,444.442,450.0196,452.194,456.87,459.711,464.388,473.009,477.686,483.368,486.551,490.69,493.18,495.494,498.335,501.6218,503.842,508.177,513.058" svgx:width="0.56,0.6,0.48,0.58,0.44,0.58,0.55,0.42,0.48,0.58,0.42,0.29,0.33,0.29,0.56,0.48,0.55,0.33,0.58,0.5,0.58,0.55,0.55,0.55,0.33,0.58,0.55,0.5,0.5,0.5,0.5,0.34,0.55,0.5,0.58,0.61,0.55,0.5,0.5,0.5,0.5,0.33,0.25,0.55,0.71,0.55,0.58,0.42,0.29,0.61,0.48,0.4,0.29,0.58,0.56,0.55,0.33,0.58,0.48,0.55,0.44,0.55,0.58,0.44,0.48,0.58,0.33,0.4,0.5,0.33,0.29,0.55,0.58,0.42,0.55,0.55,0.33,0.55,0.5,0.29,0.29,0.55,0.56,0.29,0.58,0.56,0.55,0.48,0.29,0.48,0.88,0.48,0.58,0.33,0.42,0.25,0.55,0.29,0.33,0.55,0.44,0.5,0.58" style="fill:rgb(0,0,0);font-family:URWPalladioL-Roma;font-size:9.96px;stroke:none;">quench sensitive than both 7075I and 7085). Considering the concentrations of alloying elements, it can</text>
   <text y="713.991" x="76.535,82.155,86.9358,89.776,94.857,99.165,103.474,109.602,118.575,123.442,129.5176,132.405,135.718,141.632,146.713,149.9998,152.779,156.092,162.006,166.7868,169.628,174.14,179.688,185.602,190.114,194.982,200.896,204.208,208.222,213.303,216.616,219.573,225.122,230.89880000000002,233.8,239.348,242.6348,245.486,255.099,260.6766,263.503,269.61,273.441,278.309,284.518,290.066,299.039,301.996,307.91,312.991,318.905,322.218,325.175,330.75260000000003,333.579,339.788,343.802,346.759,352.5,357.368,361.5512,364.43,367.743,373.657,378.4378,381.279,387.386,391.227,396.095,400.607,403.564,409.671,412.628,415.941,421.022,424.335,427.292,432.84,438.61679999999996,441.508,447.158,450.115,456.029,460.897,464.21,467.167,471.679,475.987,478.47700000000003,482.806,489.035,494.949,497.906,502.0892,504.969,511.117,514.43" svgx:width="0.55,0.48,0.55,0.5,0.42,0.42,0.6,0.88,0.48,0.61,0.55,0.33,0.58,0.5,0.33,0.55,0.33,0.58,0.48,0.55,0.44,0.55,0.58,0.44,0.48,0.58,0.33,0.4,0.5,0.33,0.29,0.55,0.58,0.55,0.55,0.33,0.55,0.95,0.56,0.55,0.6,0.4,0.48,0.61,0.55,0.88,0.29,0.58,0.5,0.58,0.33,0.29,0.56,0.55,0.61,0.4,0.29,0.56,0.48,0.42,0.55,0.33,0.58,0.48,0.55,0.6,0.4,0.48,0.44,0.29,0.6,0.29,0.33,0.5,0.33,0.29,0.55,0.58,0.55,0.56,0.29,0.58,0.48,0.33,0.29,0.44,0.42,0.25,0.55,0.61,0.58,0.29,0.42,0.55,0.61,0.33,0.42" style="fill:rgb(0,0,0);font-family:URWPalladioL-Roma;font-size:9.96px;stroke:none;">be assumed that the concentration of Mg predominantly drives the precipitation kinetics. This ﬁts</text>
   <text y="727.501" x="76.117,84.26,87.101,90.284,96.0608,98.309,101.492,107.174,111.9548,114.204,120.111,125.793,131.758,134.599,140.282,145.8596,148.053,150.894,156.6708,158.92" svgx:width="0.83,0.29,0.33,0.58,0.55,0.33,0.58,0.48,0.55,0.61,0.58,0.61,0.29,0.58,0.56,0.55,0.29,0.58,0.55,0.33" style="fill:rgb(0,0,0);font-family:URWPalladioL-Roma;font-size:9.96px;stroke:none;">with the ﬁnding in [</text>
   <text y="727.501" x="162.172,167.153,172.135" svgx:width="0.5,0.5,0.5" style="fill:rgb(8,117,183);font-family:URWPalladioL-Roma;font-size:9.96px;stroke:none;">119</text>
   <text y="727.501" x="177.116,180.4028,182.71,185.893,191.576,196.457,199.7438,201.993,205.176,210.858,215.6388,217.878,226.499,231.381,234.222,239.99880000000002,242.247,247.715,253.602,258.279,263.961,268.296,273.978,277.229,280.07,285.753,291.718,297.605,301.94,306.617,312.6926,314.926,320.793,324.474,329.151,333.486,336.327,342.195,345.036,348.219,353.1,356.283,361.0638,363.303,369.171,374.853,379.735,383.874,388.6548,390.904,394.077,399.759,404.641,407.92780000000005,410.177,414.512,419.393,425.281,429.42,434.097,438.2802,440.58,446.047,451.935,456.611,462.294,466.629,472.4058,474.654,478.794,483.47,489.153,493.292,496.133,499.316,502.157,507.674,510.515,513.698" svgx:width="0.33,0.55,0.33,0.58,0.5,0.33,0.55,0.33,0.58,0.48,0.55,0.88,0.5,0.29,0.58,0.55,0.56,0.6,0.48,0.58,0.44,0.58,0.33,0.29,0.58,0.61,0.6,0.44,0.48,0.61,0.55,0.6,0.4,0.48,0.44,0.29,0.6,0.29,0.33,0.5,0.33,0.48,0.55,0.6,0.58,0.5,0.42,0.48,0.55,0.33,0.58,0.5,0.33,0.55,0.44,0.5,0.6,0.42,0.48,0.42,0.55,0.56,0.6,0.48,0.58,0.44,0.58,0.55,0.42,0.48,0.58,0.42,0.29,0.33,0.29,0.56,0.29,0.33,0.56" style="fill:rgb(0,0,0);font-family:URWPalladioL-Roma;font-size:9.96px;stroke:none;">] that the main quench-induced precipitate phase that causes quench sensitivity</text>
   <text y="741.01" x="76.535,79.434" svgx:width="0.29,0.42" style="fill:rgb(0,0,0);font-family:URWPalladioL-Roma;font-size:9.96px;stroke:none;">is</text>
   <text y="741.01" x="86.149" svgx:width="0.56" style="fill:rgb(0,0,0);font-family:EURM10;font-size:9.96px;stroke:none;">η</text>
   <text y="741.01" x="91.73,95.048,104.472,110.011,113.329,119.974,125.772,128.263,135.326,141.334,143.824,151.575,154.474" svgx:width="0.33,0.95,0.56,0.33,0.67,0.58,0.25,0.71,0.6,0.25,0.78,0.29,0.33" style="fill:rgb(0,0,0);font-family:URWPalladioL-Roma;font-size:9.96px;stroke:none;">-Mg(Zn,Cu,Al)</text>
   <text y="742.875" x="157.791" svgx:width="0.5" style="fill:rgb(0,0,0);font-family:URWPalladioL-Roma;font-size:7.57px;stroke:none;">2</text>
   <text y="741.01" x="164.566,167.884,173.323,177.30700000000002,179.749,182.997,188.795,193.567,197.791,202.5718,205.054,208.302,213.841,219.828,224.601,228.7842,231.315,236.755,240.0418,242.563,247.544,250.444,253.343,258.782,264.321,268.546" svgx:width="0.33,0.55,0.4,0.55,0.33,0.58,0.48,0.42,0.48,0.55,0.33,0.56,0.6,0.48,0.42,0.55,0.55,0.33,0.55,0.5,0.29,0.29,0.55,0.56,0.42,0.25" style="fill:rgb(0,0,0);font-family:URWPalladioL-Roma;font-size:9.96px;stroke:none;">for these types of alloys.</text>
  </g>
 </g>
</svg>
