<?xml version="1.0" encoding="UTF-8"?>
<svg height="1291.122" width="2655.778" xmlns="http://www.w3.org/2000/svg">
 <g id="page" xmlns:svgx="http://www.xml-cml.org/schema/svgx">
  <g begin="text">
   <text y="62.979" x="76.535,84.059,87.598,90.252,93.352,96.452,98.668,102.207,104.422" svgx:width="0.94,0.44,0.33,0.39,0.39,0.28,0.44,0.28,0.39" style="fill:rgb(0,0,0);font-family:URWPalladioL-Ital;font-size:7.97px;stroke:none;">Materials</text>
   <text y="62.979" x="109.515,113.5,117.485,121.47" svgx:width="0.5,0.5,0.5,0.5" style="fill:rgb(0,0,0);font-family:URWPalladioL-Bold;font-size:7.97px;stroke:none;">2019</text>
   <text y="62.979" x="125.455" svgx:width="0.25" style="fill:rgb(0,0,0);font-family:URWPalladioL-Roma;font-size:7.97px;stroke:none;">,</text>
   <text y="62.979" x="129.44,133.425" svgx:width="0.5,0.5" style="fill:rgb(0,0,0);font-family:URWPalladioL-Ital;font-size:7.97px;stroke:none;">12</text>
   <text y="62.979" x="137.41,139.4025,141.395,145.38,149.365,153.35,157.335,491.809,495.794,499.779,501.772,506.123,508.7531,510.77,514.755" svgx:width="0.25,0.55,0.5,0.5,0.5,0.5,0.55,0.5,0.5,0.55,0.55,0.33,0.55,0.5,0.5" style="fill:rgb(0,0,0);font-family:URWPalladioL-Roma;font-size:7.97px;stroke:none;">, 4083 10 of 92</text>
   <text y="97.848" x="76.535,81.515,84.482,87.794,92.662,101.635,107.742,112.61,116.624,121.704,125.017,131.145,134.976,139.7568,142.709,147.018,151.885,157.799,162.108,167.656,170.928,173.418,176.426,179.383,181.924,186.791,189.332,191.822,194.829,198.142,204.056,208.8368,211.789,216.098,220.965,226.88,231.188,236.737,240.721,243.616,246.573,250.7562,253.748,259.367,264.915,268.228,274.0048,277.008,281.988,284.944,288.328,294.456,298.47,304.384,309.465,313.977,318.7578,321.71,326.791,332.705,338.7806,341.78,346.76,349.726,354.035,358.902,364.816,369.125,374.673,378.657,381.553,386.634,389.92080000000004,392.812,396.125,402.039,406.8198,409.762,414.071,419.152,428.125,432.9058,435.858,439.171,442.128,451.101,455.968,458.458,463.112,469.341,475.255,478.213,482.3962,485.387,491.128,495.996,500.01,504.318,507.275,512.824" svgx:width="0.5,0.55,0.33,0.48,0.88,0.6,0.48,0.4,0.5,0.33,0.6,0.4,0.48,0.55,0.42,0.48,0.58,0.42,0.55,0.4,0.25,0.55,0.29,0.25,0.48,0.25,0.25,0.55,0.33,0.58,0.48,0.55,0.42,0.48,0.58,0.42,0.55,0.4,0.55,0.29,0.42,0.55,0.55,0.55,0.33,0.58,0.55,0.5,0.55,0.33,0.6,0.4,0.58,0.5,0.44,0.48,0.55,0.5,0.58,0.61,0.55,0.5,0.55,0.42,0.48,0.58,0.42,0.55,0.4,0.55,0.5,0.33,0.55,0.33,0.58,0.48,0.55,0.42,0.5,0.88,0.48,0.55,0.33,0.29,0.88,0.48,0.25,0.55,0.61,0.58,0.29,0.42,0.55,0.56,0.48,0.4,0.42,0.29,0.55,0.58" style="fill:rgb(0,0,0);font-family:URWPalladioL-Roma;font-size:9.96px;stroke:none;">a temperature sensor, i.e., the sensor is both a furnace and a sensor at the same time. This version</text>
   <text y="111.358" x="76.535,82.083,85.3698,88.262,96.127,101.462,108.5336,111.451,114.408,118.5912,121.511,126.023,131.104,134.061,137.018,141.886,147.9616,150.879,156.986,162.535,171.01,175.877,179.708,183.092,187.604,193.152,202.125,208.233,213.1,219.014,223.323,228.404,231.717,236.584,242.6596,245.588,253.453,258.788,265.8596,268.777,272.161,276.469,281.337,286.1178,288.999,294.649,297.606,303.256,309.384,313.215" svgx:width="0.55,0.33,0.55,0.77,0.52,0.71,0.55,0.29,0.42,0.55,0.44,0.5,0.29,0.29,0.48,0.61,0.55,0.6,0.55,0.83,0.48,0.4,0.33,0.44,0.55,0.88,0.6,0.48,0.58,0.42,0.5,0.33,0.48,0.61,0.55,0.77,0.52,0.71,0.55,0.33,0.42,0.48,0.48,0.55,0.56,0.29,0.56,0.6,0.4,0.48" style="fill:rgb(0,0,0);font-family:URWPalladioL-Roma;font-size:9.96px;stroke:none;">of DSC is called power-compensated DSC (see Figure</text>
   <text y="111.358" x="320.877" svgx:width="0.5" style="fill:rgb(8,117,183);font-family:URWPalladioL-Roma;font-size:9.96px;stroke:none;">4</text>
   <text y="111.358" x="325.958,329.341,331.831,336.262,344.706,349.574,355.315,360.183,364.197,367.509,373.424,378.291,381.248,386.116,390.424,394.733,397.223,400.139,405.759,411.307,414.62,420.3968,423.328,426.641,432.291,438.398,443.266,447.4492,450.359,455.907,459.1938,462.086,469.951,475.286,482.3576,485.275,491.484,496.351,502.093,505.05,509.562,514.429" svgx:width="0.33,0.25,0.55,0.83,0.48,0.56,0.48,0.4,0.33,0.58,0.48,0.29,0.48,0.42,0.42,0.25,0.55,0.55,0.55,0.33,0.58,0.55,0.33,0.56,0.6,0.48,0.42,0.55,0.55,0.33,0.55,0.77,0.52,0.71,0.55,0.61,0.48,0.56,0.29,0.44,0.48,0.42" style="fill:rgb(0,0,0);font-family:URWPalladioL-Roma;font-size:9.96px;stroke:none;">). Nevertheless, both types of DSC devices</text>
   <text y="124.867" x="76.535,80.985,85.996,91.77279999999999,94.325,99.867,104.6478,107.163,113.207,117.456,122.257,128.3326,130.876,133.793,139.56980000000001,142.111,147.09099999999998,149.618,155.281,160.082,164.04,169.61759999999998,172.108,176.358,179.274,188.124,191.041,193.957,198.968,202.952,205.423,213.781,218.793,223.253,225.743,228.254,233.265,239.098,245.17360000000002,247.717,250.984,256.817,261.5978,264.114,268.363,273.164,276.431,282.475,288.451,290.994,296.466,299.75280000000004,302.299,305.566,311.399,316.1798,318.696,323.496,328.668,334.691,339.492,343.451,346.367,355.217,360.018,365.851,369.108,373.2912,375.853,380.864,386.697,392.7726,395.317,398.584,404.417,409.1978,411.713,417.837,422.848,426.115,431.095,433.622,438.423,444.086,449.097,452.013,458.057,463.068,466.335,469.252,474.724,480.50079999999997,483.053,488.064,491.842,496.6228,499.139,504.801,509.602,513.561" svgx:width="0.44,0.5,0.58,0.55,0.55,0.48,0.55,0.6,0.42,0.48,0.61,0.55,0.29,0.58,0.55,0.5,0.55,0.56,0.48,0.4,0.56,0.55,0.42,0.29,0.88,0.29,0.29,0.5,0.4,0.55,0.83,0.5,0.56,0.25,0.55,0.5,0.58,0.61,0.55,0.33,0.58,0.48,0.55,0.42,0.48,0.33,0.6,0.6,0.55,0.55,0.33,0.55,0.33,0.58,0.48,0.55,0.48,0.52,0.6,0.48,0.4,0.29,0.88,0.48,0.58,0.33,0.42,0.55,0.5,0.58,0.61,0.55,0.33,0.58,0.48,0.55,0.61,0.5,0.33,0.5,0.55,0.48,0.56,0.5,0.29,0.6,0.5,0.33,0.29,0.55,0.58,0.55,0.5,0.4,0.48,0.55,0.56,0.48,0.4,0.56" style="fill:rgb(0,0,0);font-family:URWPalladioL-Roma;font-size:9.96px;stroke:none;">can be used in a very similar way, and the setup of the experiments and the data evaluation are very</text>
   <text y="138.377" x="76.535,81.546,84.463,87.379,92.952,97.752,100.24199999999999,102.754,107.765,111.9482,114.5,117.416,123.19279999999999,125.745,131.287,136.759,140.027,145.8038,148.355,152.805,157.816,162.066,166.867,171.0502,173.602,176.869,182.702,187.4828,189.998,193.336,198.136,201.053,205.854,210.304,213.571,217.349,222.822,228.655,231.571,236.021,239.3078,241.854,246.104,249.02,254.592,260.425,265.437,268.3254,270.839,273.755,277.9382,280.5,284.95,290.422,296.255,301.918,306.719,310.678,313.945,318.746,324.8216,327.365,330.632,336.11,338.59,341.857,347.69,352.4708,354.987,360.649,365.66,368.577,374.62,379.4008,381.917,387.389,390.67580000000004,393.212,399.045,403.846,408.857,412.14380000000006,414.62,420.713,426.186,434.45279999999997,437.04,442.582,448.1596,450.64,455.09,460.101,463.018,465.934,471.477,475.435,480.447,483.714,486.63,492.103,497.936,500.426,503.939,509.512,514.984" svgx:width="0.5,0.29,0.29,0.56,0.48,0.25,0.55,0.5,0.42,0.55,0.29,0.58,0.55,0.55,0.55,0.33,0.58,0.55,0.44,0.5,0.42,0.48,0.42,0.55,0.33,0.58,0.48,0.55,0.33,0.48,0.29,0.48,0.44,0.33,0.4,0.55,0.58,0.29,0.44,0.33,0.55,0.42,0.29,0.56,0.58,0.5,0.29,0.55,0.29,0.42,0.55,0.44,0.55,0.58,0.56,0.48,0.4,0.33,0.48,0.61,0.55,0.33,0.55,0.55,0.33,0.58,0.48,0.55,0.56,0.5,0.29,0.6,0.48,0.55,0.55,0.33,0.55,0.58,0.48,0.5,0.33,0.55,0.61,0.55,0.83,0.55,0.55,0.56,0.55,0.44,0.5,0.29,0.29,0.55,0.4,0.5,0.33,0.29,0.55,0.58,0.25,0.55,0.56,0.55,0.4" style="fill:rgb(0,0,0);font-family:URWPalladioL-Roma;font-size:9.96px;stroke:none;">alike, as in both cases the (electronic) signal is converted to the value of heat ﬂow by calibration. For</text>
   <text y="151.886" x="76.535,85.165,90.501,94.186,98.9668,101.359,107.331,112.012,115.198,120.085,122.929,125.773,129.9562,132.399,137.735,143.51180000000002,145.916,150.06,155.933,160.615,164.954,167.798,173.711,178.0934,180.543,184.686,189.368,192.554,198.447,204.321,208.5042,210.957,215.844,221.532,227.60760000000002,229.996,233.182,238.87,243.6508,246.043,251.917,256.598,260.938,266.831,269.675,272.519,277.406,281.266,284.11,287.296,290.14,294.822,299.0052,301.458,306.794,310.0808,312.531,315.717,321.405,326.1858,328.579,334.55" svgx:width="0.88,0.55,0.4,0.48,0.55,0.61,0.48,0.33,0.5,0.29,0.29,0.42,0.55,0.55,0.58,0.55,0.42,0.6,0.48,0.44,0.29,0.61,0.44,0.55,0.42,0.48,0.33,0.6,0.6,0.42,0.55,0.5,0.58,0.61,0.55,0.33,0.58,0.48,0.55,0.6,0.48,0.44,0.6,0.29,0.29,0.5,0.4,0.29,0.33,0.29,0.48,0.42,0.55,0.55,0.33,0.55,0.33,0.58,0.48,0.55,0.61,0.29" style="fill:rgb(0,0,0);font-family:URWPalladioL-Roma;font-size:9.96px;stroke:none;">more details on speciﬁc setups and the peculiarities of the di</text>
   <text y="151.886" x="337.398" svgx:width="0.61" style="fill:rgb(0,0,0);font-family:Rpxr;font-size:9.96px;stroke:none;">ﬀ</text>
   <text y="151.886" x="343.34,348.021,351.706,356.387,362.075,365.3618,367.754,370.93,376.364,382.238,386.919,391.1022,393.555,398.442,404.13,410.2056,412.594,417.93,423.804,428.485,432.346,437.232,440.418,443.262,448.599,454.37579999999997,456.779,465.409,470.745,476.716,481.398,485.5812,488.034,493.37,496.65680000000003,499.117,506.681,511.812" svgx:width="0.48,0.4,0.48,0.58,0.33,0.55,0.33,0.56,0.6,0.48,0.42,0.55,0.5,0.58,0.61,0.55,0.55,0.6,0.48,0.4,0.5,0.33,0.29,0.55,0.58,0.55,0.88,0.55,0.61,0.48,0.42,0.55,0.55,0.33,0.55,0.77,0.52,0.71" style="fill:rgb(0,0,0);font-family:URWPalladioL-Roma;font-size:9.96px;stroke:none;">erent types and operation modes of DSC</text>
   <text y="165.395" x="76.535,82.622,87.394,93.023,95.922,100.346,105.118,109.342,111.832,114.323,117.571,123.369,128.1498,130.632,134.388,139.16,144.141,150.228,155.0,158.984,161.426,164.325,168.5082,171.04,174.796,179.568,182.886,187.658,191.593,195.349,200.121,206.19660000000002,208.699,211.947,217.425,219.877,226.532,231.304,234.621,237.11100000000002,239.603" svgx:width="0.61,0.48,0.56,0.29,0.44,0.48,0.42,0.25,0.55,0.33,0.58,0.48,0.55,0.4,0.48,0.5,0.61,0.48,0.4,0.55,0.29,0.42,0.55,0.4,0.48,0.33,0.48,0.4,0.4,0.48,0.61,0.55,0.33,0.55,0.55,0.67,0.48,0.33,0.25,0.55,0.33" style="fill:rgb(0,0,0);font-family:URWPalladioL-Roma;font-size:9.96px;stroke:none;">devices, the reader is referred to Ref. [</text>
   <text y="165.395" x="242.92,247.902,252.883" svgx:width="0.5,0.5,0.5" style="fill:rgb(8,117,183);font-family:URWPalladioL-Roma;font-size:9.96px;stroke:none;">113</text>
   <text y="165.395" x="257.864,261.182" svgx:width="0.33,0.25" style="fill:rgb(0,0,0);font-family:URWPalladioL-Roma;font-size:9.96px;stroke:none;">].</text>
  </g>
  <g begin="text">
   <text y="168.942" x="145.802" svgx:width="0.25" style="fill:rgb(0,0,0);font-family:Palatino Linotype,Italic;font-size:8.04px;stroke:none;"> </text>
  </g>
  <g begin="text">
   <text y="903.918" x="364.348" svgx:width="0.5" style="fill:rgb(0,0,0);font-family:Palatino Linotype;font-size:9.96px;stroke:none;">4</text>
  </g>
  <g begin="text">
   <text y="903.918" x="369.388" svgx:width="0.25" style="fill:rgb(0,0,0);font-family:Palatino Linotype;font-size:9.96px;stroke:none;"> </text>
  </g>
  <g begin="text">
   <text y="341.762" x="451.848" svgx:width="0.25" style="fill:rgb(0,0,0);font-family:Palatino Linotype;font-size:9.0px;stroke:none;"> </text>
  </g>
  <g begin="text">
   <text y="359.282" x="145.802" svgx:width="0.25" style="fill:rgb(0,0,0);font-family:Palatino Linotype;font-size:9.96px;stroke:none;"> </text>
  </g>
  <g begin="text">
   <text y="359.282" x="289.828" svgx:width="0.25" style="fill:rgb(0,0,0);font-family:Palatino Linotype;font-size:9.0px;stroke:none;"> </text>
  </g>
  <rect style="fill:pink;opacity:0.2;stroke:blue;stroke-width:0.3;" x="145.778" y="136.412" height="162.96" width="305.52" title="10"/>
  <text y="136.412" class="image" id="image.10.1" width="305" height="162" x="145.778" style="font-size:5.0px;">image.10.1.146_451.136_299</text>
  <g begin="text">
   <text y="355.746" x="97.795,102.78,105.766,110.751,116.23,119.718,124.203,129.294,133.777" svgx:width="0.56,0.33,0.56,0.61,0.39,0.5,0.55,0.5,0.25" style="fill:rgb(0,0,0);font-family:URWPalladioL-Bold;font-size:8.97px;stroke:none;">Figure 4.</text>
   <text y="355.746" x="147.696,154.18,159.174,164.497,168.374,171.356,174.895,180.41,184.471,187.452,190.114,195.107,200.3096,205.524,209.402,213.463,218.786,223.167,231.242,235.5476,240.708,245.702,248.6621,253.832,258.317,263.499,268.996,273.989,281.617,285.998,289.446,292.491,296.552,301.545,309.621,315.118,319.498,324.821,328.699,333.272,336.253,340.634,346.1057,351.316,355.194,359.255,363.828,369.151,374.473,377.135,382.458,387.4812,392.628,396.688,401.261,403.923,408.916,412.529,415.19,423.266,427.647,430.628,435.009,438.59700000000004,443.707,446.752,452.276,456.657,460.269,465.354,468.016,473.339,478.927,481.588,489.664,494.045" svgx:width="0.71,0.55,0.58,0.42,0.33,0.4,0.6,0.44,0.33,0.29,0.55,0.58,0.55,0.42,0.44,0.58,0.48,0.88,0.48,0.55,0.55,0.33,0.55,0.5,0.55,0.6,0.55,0.83,0.48,0.4,0.33,0.44,0.55,0.88,0.6,0.48,0.58,0.42,0.5,0.33,0.48,0.61,0.55,0.42,0.44,0.5,0.58,0.58,0.29,0.58,0.56,0.55,0.44,0.5,0.29,0.55,0.4,0.29,0.88,0.48,0.33,0.48,0.4,0.55,0.33,0.6,0.48,0.4,0.56,0.29,0.58,0.61,0.29,0.88,0.48,0.4" style="fill:rgb(0,0,0);font-family:URWPalladioL-Roma;font-size:8.97px;stroke:none;">Construction scheme of a power-compensated scanning calorimeter (PerkinElmer</text>
   <text y="368.568" x="97.795,100.877,106.2,110.078,113.059,116.599,122.113,130.189,134.57,139.893,142.874,146.752,149.798,152.0405,162.108,166.909,169.1515,173.732,178.534,183.106,191.182,196.679,199.34,203.6456,208.257,211.303,216.818,220.43,225.753,230.326,234.386,238.6916,243.294,250.922,253.583,256.565,261.7676,266.424,270.302,274.875,282.95,288.447,291.108,295.41360000000003,300.025,302.687,307.88960000000003,312.546,316.607,320.146,325.661,329.722,332.383,337.441,340.102,344.483,346.7255,352.458,358.567,360.8095,365.39,368.838,373.219,376.264,380.645,384.093,388.474,393.797,397.857,402.238,405.284,408.329,413.844,417.456,422.779,427.352,431.413,435.71860000000004,440.33,443.375,447.948,453.271,457.844,460.505,465.499,470.584,475.578,481.092,484.8594,489.507,492.488" svgx:width="0.34,0.58,0.42,0.33,0.4,0.6,0.88,0.48,0.58,0.33,0.42,0.33,0.25,0.55,0.52,0.25,0.55,0.52,0.5,0.88,0.6,0.29,0.48,0.55,0.33,0.6,0.4,0.58,0.5,0.44,0.48,0.55,0.83,0.29,0.33,0.58,0.55,0.42,0.5,0.88,0.6,0.29,0.48,0.55,0.29,0.58,0.55,0.44,0.4,0.6,0.44,0.29,0.55,0.29,0.48,0.25,0.55,0.67,0.25,0.55,0.4,0.48,0.33,0.48,0.4,0.48,0.58,0.44,0.48,0.33,0.33,0.6,0.4,0.58,0.5,0.44,0.48,0.55,0.33,0.5,0.58,0.5,0.29,0.55,0.56,0.55,0.6,0.42,0.55,0.33,0.55" style="fill:rgb(0,0,0);font-family:URWPalladioL-Roma;font-size:8.97px;stroke:none;">Instruments). S: Sample furnace with sample in crucible; R: reference-furnace (analogous to</text>
   <text y="381.39" x="97.795,101.521,105.914,113.673,118.954,121.511,125.72,128.646,131.573,136.871,140.342,145.456,149.85,153.751,157.96,160.886,163.1285,165.324,169.717,171.95950000000002,175.06,180.174,184.383,188.776,191.641,194.198,199.312,204.33520000000001,206.447,213.776,216.333,219.637,223.846,226.0885,228.292,232.77700000000002,234.926,238.239,242.448,246.174,248.731,252.456,255.321,259.714,264.828,268.73,273.03560000000004,275.18,278.044,283.158,287.367,290.838,298.597,303.395,311.154,315.363,318.227,322.436,325.248,327.4905,330.591,335.96,340.758,343.622,348.82460000000003,350.977,354.703,358.912,364.026,367.751,372.549,376.02,379.7874,381.986,386.38,389.693,393.9986,396.142,399.868,404.077,409.358,413.752,417.223,421.616,424.481,428.69,434.1617,436.308,439.234,442.538,447.336,457.344,461.553,465.947,469.848,475.05060000000003,477.203,482.001,484.865,489.979,494.188" svgx:width="0.42,0.5,0.88,0.6,0.29,0.48,0.33,0.33,0.6,0.4,0.58,0.5,0.44,0.48,0.33,0.25,0.55,0.5,0.25,0.55,0.58,0.48,0.5,0.33,0.29,0.58,0.56,0.55,0.83,0.29,0.4,0.48,0.25,0.55,0.5,0.55,0.4,0.48,0.42,0.29,0.42,0.33,0.5,0.58,0.44,0.48,0.55,0.33,0.58,0.48,0.4,0.88,0.55,0.88,0.48,0.33,0.48,0.4,0.25,0.55,0.61,0.55,0.33,0.58,0.55,0.42,0.48,0.58,0.42,0.55,0.4,0.42,0.55,0.5,0.4,0.48,0.55,0.42,0.48,0.6,0.5,0.4,0.5,0.33,0.48,0.61,0.55,0.33,0.4,0.55,0.88,0.48,0.5,0.44,0.58,0.55,0.55,0.33,0.58,0.48,0.4" style="fill:rgb(0,0,0);font-family:URWPalladioL-Roma;font-size:8.97px;stroke:none;">sample-furnace); 1: heating wire; 2 resistance thermometer. Both sensors are separated fromeach other</text>
   <text y="394.212" x="97.795,102.278,107.497,112.9687,115.217,117.826,122.722,126.703,131.186,134.109,138.404,143.8757,146.124,148.733,153.9356,156.193,159.995,165.402,168.943,172.324,177.219,182.626,187.845,193.323,195.932,201.151,206.136,209.9034,212.179,216.663,219.62310000000002,221.827,225.808,230.704,235.922,239.724,242.647,247.13,252.349,255.3091,257.514,260.437,264.731,272.649,278.038,282.332,285.874,290.357,293.28,298.687,302.068,306.3736,308.604,311.59,315.571,320.467,323.076,328.5477,330.796,335.754,338.363,343.259,347.24,352.226,355.1861,357.453" svgx:width="0.5,0.58,0.61,0.55,0.29,0.55,0.44,0.5,0.33,0.48,0.61,0.55,0.29,0.58,0.55,0.42,0.6,0.4,0.4,0.55,0.6,0.58,0.61,0.29,0.58,0.56,0.42,0.55,0.5,0.33,0.55,0.44,0.55,0.58,0.42,0.33,0.5,0.58,0.33,0.55,0.33,0.48,0.88,0.6,0.48,0.4,0.5,0.33,0.6,0.4,0.48,0.55,0.33,0.44,0.55,0.29,0.61,0.55,0.55,0.29,0.55,0.44,0.56,0.33,0.55,0.33" style="fill:rgb(0,0,0);font-family:URWPalladioL-Roma;font-size:8.97px;stroke:none;">and located in surroundings at constant temperature (cold block) [</text>
   <text y="394.212" x="360.439,364.922,369.405" svgx:width="0.5,0.5,0.5" style="fill:rgb(8,117,183);font-family:URWPalladioL-Roma;font-size:8.97px;stroke:none;">113</text>
   <text y="394.212" x="373.888,376.874" svgx:width="0.33,0.25" style="fill:rgb(0,0,0);font-family:URWPalladioL-Roma;font-size:8.97px;stroke:none;">].</text>
   <text y="417.545" x="97.795,101.22,106.9968,110.701,114.013,119.928,122.885,127.0682,130.75,139.225,144.773,148.787,154.437,156.92700000000002,160.809,165.676,170.757,175.269,181.0458,184.75,188.063,192.93,201.903,208.01,212.878,216.892,221.973,225.286,231.413,235.244,240.112,243.496,246.808,249.765,258.738,263.5188,267.173,273.28,277.111,282.659,288.807,291.764,296.5448,300.199,305.747,309.03380000000004,312.688,317.668,321.335,329.201,334.536,341.6076,345.307,354.28,359.148,364.229,368.537,374.665,378.496,383.363,392.336,397.204,403.118,406.4048,409.998,414.306,417.619,422.7,426.714,430.027,434.2102,437.892,442.973,448.887,454.9626,458.663,463.53,469.444,475.653,479.8362,483.519,491.993,494.951,498.263,504.03979999999996,507.744,512.825" svgx:width="0.34,0.58,0.55,0.33,0.58,0.29,0.42,0.55,0.83,0.55,0.4,0.56,0.25,0.55,0.48,0.5,0.44,0.58,0.55,0.33,0.48,0.88,0.6,0.48,0.4,0.5,0.33,0.6,0.4,0.48,0.33,0.33,0.29,0.88,0.48,0.55,0.6,0.4,0.55,0.61,0.29,0.48,0.55,0.55,0.33,0.55,0.5,0.55,0.77,0.52,0.71,0.55,0.88,0.48,0.5,0.42,0.6,0.4,0.48,0.88,0.48,0.58,0.33,0.55,0.42,0.33,0.5,0.4,0.33,0.42,0.55,0.5,0.58,0.61,0.55,0.48,0.58,0.61,0.42,0.55,0.83,0.29,0.33,0.58,0.55,0.5,0.58" style="fill:rgb(0,0,0);font-family:URWPalladioL-Roma;font-size:9.96px;stroke:none;">In this work, each temperature-time proﬁle of a DSC measurement starts and ends with an</text>
   <text y="431.055" x="76.535,79.425,83.637,89.06,92.298,98.079,102.837,106.76,115.531,120.497,123.3854,125.881,130.092,134.85,139.26,142.498,145.389,150.812,156.58880000000002,159.086,162.393,166.605,171.363,176.1438,178.623,184.146,187.036,192.559,198.548,202.293" svgx:width="0.29,0.42,0.55,0.33,0.58,0.48,0.4,0.88,0.5,0.29,0.55,0.42,0.48,0.44,0.33,0.29,0.55,0.58,0.55,0.33,0.42,0.48,0.48,0.55,0.56,0.29,0.56,0.6,0.4,0.48" style="fill:rgb(0,0,0);font-family:URWPalladioL-Roma;font-size:9.96px;stroke:none;">isothermal section (see Figure</text>
   <text y="431.055" x="209.544" svgx:width="0.5" style="fill:rgb(8,117,183);font-family:URWPalladioL-Roma;font-size:9.96px;stroke:none;">5</text>
   <text y="431.055" x="214.51,217.818,220.30800000000002,223.797,229.886,235.667,238.557,242.7402,245.262,248.152,252.3352,254.867,260.648,265.405,270.163,276.232,280.99,287.0656,289.552,292.859,298.283,302.267,304.699,310.48,315.238,320.204,323.49080000000004,325.935,330.346,335.312,341.281,346.248,350.658,353.548,356.786,362.3636,364.802,369.212,374.179,377.069,381.479,387.469,390.359,395.325,398.563,401.454,406.877,412.6538,415.161,419.919,428.689,434.659,437.549,442.973,448.495,451.386,457.166,462.7436,465.182,468.42,476.704,482.182,484.62,490.044,494.02799999999996,496.46,499.698,505.479,509.224,513.982" svgx:width="0.33,0.25,0.55,0.61,0.58,0.29,0.42,0.55,0.29,0.42,0.55,0.58,0.48,0.48,0.61,0.48,0.61,0.55,0.33,0.55,0.4,0.55,0.58,0.48,0.5,0.33,0.55,0.44,0.5,0.6,0.5,0.44,0.29,0.33,0.56,0.55,0.44,0.5,0.29,0.44,0.6,0.29,0.5,0.33,0.29,0.55,0.58,0.55,0.48,0.88,0.6,0.29,0.55,0.56,0.29,0.58,0.56,0.55,0.33,0.83,0.55,0.55,0.55,0.4,0.55,0.33,0.58,0.4,0.48,0.48" style="fill:rgb(0,0,0);font-family:URWPalladioL-Roma;font-size:9.96px;stroke:none;">). This is needed for heat capacity calculation employing two or three</text>
   <text y="444.564" x="76.535,80.958,86.966,90.901,96.53,101.3108,103.793,112.59,117.362,120.61,126.408,131.847,137.934,142.1172,144.649,147.967,151.284,156.724,160.708,163.15,169.237,174.009,177.257,182.238,185.137,188.036,192.2192,194.751,198.975,203.747,208.5278,211.01" svgx:width="0.44,0.6,0.4,0.56,0.48,0.55,0.88,0.48,0.33,0.58,0.55,0.61,0.42,0.55,0.33,0.33,0.55,0.4,0.55,0.61,0.48,0.33,0.5,0.29,0.29,0.42,0.55,0.42,0.48,0.48,0.55,0.33" style="fill:rgb(0,0,0);font-family:URWPalladioL-Roma;font-size:9.96px;stroke:none;">curve methods (for details see [</text>
   <text y="444.564" x="214.328,219.309,224.29" svgx:width="0.5,0.5,0.5" style="fill:rgb(8,117,183);font-family:URWPalladioL-Roma;font-size:9.96px;stroke:none;">112</text>
   <text y="444.564" x="229.272,232.589,235.907" svgx:width="0.33,0.33,0.25" style="fill:rgb(0,0,0);font-family:URWPalladioL-Roma;font-size:9.96px;stroke:none;">]).</text>
   <text y="458.073" x="97.795,101.22,106.9968,111.168,116.818,121.686,127.6,132.467,136.481,141.562,144.519,147.00900000000001,151.48,156.561,162.33780000000002,166.509,171.59,176.102,180.614,186.742,190.756,195.837,199.149,203.9298,208.061,215.927,221.262,228.3336,232.501,237.581,243.496,248.577,251.534,257.184,261.492,264.449,268.6322,272.792,278.341,281.62780000000004,285.759,289.072,294.986,299.7668,303.888,308.196,313.277,322.25,328.357,331.314,336.0948,340.216,344.057,348.925,354.615,360.743,363.7,367.531,372.399,376.5822,380.742,385.822,389.10880000000003,393.169,396.127,400.994,406.075,410.384,413.67080000000004,417.731,421.043,429.518,434.996,439.101,448.074,452.941,458.022,462.331,468.459,472.3,477.167,486.14,491.008,496.922,500.235,504.543,507.033,513.659" svgx:width="0.34,0.58,0.55,0.56,0.48,0.58,0.48,0.4,0.5,0.29,0.25,0.55,0.5,0.58,0.55,0.5,0.44,0.44,0.6,0.4,0.5,0.33,0.48,0.55,0.77,0.52,0.71,0.55,0.5,0.58,0.5,0.29,0.56,0.42,0.29,0.42,0.55,0.55,0.33,0.55,0.33,0.58,0.48,0.55,0.42,0.5,0.88,0.6,0.29,0.48,0.55,0.4,0.48,0.56,0.6,0.29,0.4,0.48,0.42,0.55,0.5,0.33,0.55,0.29,0.48,0.5,0.42,0.33,0.55,0.33,0.83,0.55,0.55,0.88,0.48,0.5,0.42,0.6,0.4,0.48,0.88,0.48,0.58,0.33,0.42,0.25,0.55,0.5" style="fill:rgb(0,0,0);font-family:URWPalladioL-Roma;font-size:9.96px;stroke:none;">In general, an accurate DSC analysis of the sample requires at least two measurements: a</text>
   <text y="471.583" x="76.535,85.508,90.375,95.456,99.765,105.893,109.724,114.591,123.564,128.432,134.346,137.6328,140.341,145.89,149.1768,151.946,156.926,159.71,164.018,169.099,178.072,184.179,187.137,191.9178,194.677,200.418,205.286,209.3,213.608,219.736,223.9192,226.717,231.697,234.481,238.312,243.179,246.563,251.431,255.272,260.139,266.053,270.565,275.433,277.923,280.697,285.778,291.692,297.7676,300.573,305.553,308.337,313.956,319.037,323.346,328.214,331.171,334.128,340.042,344.8228,347.582,356.555,361.422,366.503,370.812,376.94,380.771,385.638,394.611,399.479,405.393,408.6798,411.388,414.772,417.729,423.643,428.511,432.525,435.8118,438.51,442.341,447.209,450.593,455.46,459.301,464.169,470.083,474.595,479.3758,482.135,486.444,491.525,500.498,506.605,509.562,514.429" svgx:width="0.88,0.48,0.5,0.42,0.6,0.4,0.48,0.88,0.48,0.58,0.33,0.55,0.55,0.33,0.55,0.5,0.55,0.42,0.5,0.88,0.6,0.29,0.48,0.55,0.56,0.48,0.4,0.42,0.6,0.42,0.55,0.5,0.55,0.4,0.48,0.33,0.48,0.4,0.48,0.58,0.44,0.48,0.25,0.55,0.5,0.58,0.61,0.55,0.5,0.55,0.55,0.5,0.42,0.48,0.29,0.29,0.58,0.48,0.55,0.88,0.48,0.5,0.42,0.6,0.4,0.48,0.88,0.48,0.58,0.33,0.55,0.33,0.29,0.58,0.48,0.4,0.33,0.55,0.4,0.48,0.33,0.48,0.4,0.48,0.58,0.44,0.48,0.55,0.42,0.5,0.88,0.6,0.29,0.48,0.42" style="fill:rgb(0,0,0);font-family:URWPalladioL-Roma;font-size:9.96px;stroke:none;">measurement of a sample versus a reference, and a baseline measurement (inert reference samples</text>
   <text y="485.092" x="76.535,82.083,87.85979999999999,91.615,97.235,102.783,106.096,111.8728,115.628,119.936,124.804,130.718,135.027,140.575,144.589,148.898,152.281,154.77100000000002,161.691,167.921,173.835,178.6158,182.32,188.234,193.102,198.183,201.4698,205.123,211.301,216.85,225.11679999999998,228.942,233.251,236.208,241.858,247.772,252.853,255.7414,259.428,264.976,268.2628,271.978,275.291,281.205,285.9858,289.69,295.31,300.39,304.699,309.567,312.524,315.481,321.395,326.1758,329.88,338.853,343.721,348.801,353.11,359.238,363.069,367.936,376.909,381.777,387.691,390.9778,394.621,397.578,401.7612,405.515,409.823,415.951,421.57,424.883,428.897,433.978,438.49,441.803,446.67,452.7456,456.497,459.881,463.712,469.26,478.02479999999997,481.851,485.163,491.078,495.8588,499.563,505.477,510.344,515.425" svgx:width="0.55,0.58,0.55,0.55,0.55,0.33,0.58,0.55,0.42,0.48,0.58,0.42,0.55,0.4,0.42,0.33,0.25,0.55,0.61,0.58,0.48,0.55,0.58,0.48,0.5,0.33,0.55,0.61,0.55,0.83,0.55,0.42,0.29,0.56,0.58,0.5,0.29,0.55,0.55,0.33,0.55,0.33,0.58,0.48,0.55,0.55,0.5,0.42,0.48,0.29,0.29,0.58,0.48,0.55,0.88,0.48,0.5,0.42,0.6,0.4,0.48,0.88,0.48,0.58,0.33,0.55,0.29,0.42,0.55,0.42,0.6,0.55,0.33,0.4,0.5,0.44,0.33,0.48,0.61,0.55,0.33,0.4,0.55,0.88,0.55,0.33,0.58,0.48,0.55,0.58,0.48,0.5,0.33" style="fill:rgb(0,0,0);font-family:URWPalladioL-Roma;font-size:9.96px;stroke:none;">on both sensors). The heat ﬂow signal of the baseline measurement is subtracted from the heat</text>
   <text y="498.602" x="76.535,82.713,88.262,96.5288,100.222,104.531,107.488,113.138,119.052,124.133,127.0214,130.576,136.124,139.4108,142.994,146.306,152.22,157.0008,160.563,164.872,169.953,178.926,185.033,187.99,192.7708,196.343,205.316,210.184,215.265,219.573,225.701,229.542,234.41,243.382,248.25,254.164,257.477,259.967,263.747,268.828,274.742,280.8176,284.436,287.749,293.663,298.4438,302.016,305.847,310.715,315.023,321.151,324.108,327.421,330.378,336.292,341.8696,345.428,351.342,356.209,361.29,364.57680000000005,368.089,374.267,379.815,388.0818,391.766,396.074,399.031,404.681,410.596,415.677,418.5654,422.119,425.076,429.2592,432.87,437.382,442.931,446.945,450.786,455.643,460.155,463.468,468.335,474.4106,478.03,481.414,486.962,490.94599999999997,494.461,498.77,507.743,512.824,515.781" svgx:width="0.61,0.55,0.83,0.55,0.42,0.29,0.56,0.58,0.5,0.29,0.55,0.55,0.33,0.55,0.33,0.58,0.48,0.55,0.42,0.5,0.88,0.6,0.29,0.48,0.55,0.88,0.48,0.5,0.42,0.6,0.4,0.48,0.88,0.48,0.58,0.33,0.25,0.55,0.5,0.58,0.61,0.55,0.33,0.58,0.48,0.55,0.4,0.48,0.42,0.6,0.29,0.33,0.29,0.58,0.56,0.55,0.58,0.48,0.5,0.33,0.55,0.61,0.55,0.83,0.55,0.42,0.29,0.56,0.58,0.5,0.29,0.55,0.29,0.42,0.55,0.44,0.55,0.4,0.4,0.48,0.44,0.33,0.48,0.61,0.55,0.33,0.55,0.4,0.55,0.42,0.88,0.5,0.29,0.29" style="fill:rgb(0,0,0);font-family:URWPalladioL-Roma;font-size:9.96px;stroke:none;">ﬂow signal of the sample measurement, and the resulting heat ﬂow signal is corrected for small</text>
   <text y="512.111" x="76.535,82.573,87.307,92.891,95.767,100.155,104.889,108.18,112.37,118.31,123.044,127.432,130.308,136.287,140.6694,143.146,148.097,152.278,157.772,166.499,175.226,179.96,183.181,187.085,189.961,194.695,198.8782,201.366,209.608,215.36,218.236,222.624,228.376,230.866,233.327,238.269,241.145,244.366,250.118,255.514,261.474,266.969,272.7458,275.191,283.918,286.794,292.546,295.421,304.148,307.024,311.214,315.948,322.0236,324.467,327.343,333.1198,335.566,338.788,344.54,349.3208,351.754,357.793,362.526,366.717,369.593,375.088,380.839,383.329,385.791,390.179,395.12,400.8968,403.343,407.533,410.755,413.631,416.507,419.3954,421.863,424.739,430.491,436.5,442.459,447.193,452.945,457.333,462.1138,464.538,467.76,473.511,478.2918,480.726,485.667,490.055,494.443,500.403,504.307,509.248,513.636" svgx:width="0.61,0.48,0.56,0.29,0.44,0.48,0.33,0.42,0.6,0.48,0.44,0.29,0.61,0.44,0.55,0.5,0.42,0.56,0.88,0.88,0.48,0.33,0.4,0.29,0.48,0.42,0.55,0.83,0.58,0.29,0.44,0.58,0.25,0.55,0.5,0.29,0.33,0.58,0.55,0.6,0.56,0.58,0.55,0.88,0.29,0.58,0.29,0.88,0.29,0.42,0.48,0.61,0.55,0.29,0.58,0.55,0.33,0.58,0.48,0.55,0.61,0.48,0.42,0.29,0.56,0.58,0.25,0.55,0.44,0.5,0.58,0.55,0.42,0.33,0.29,0.29,0.29,0.55,0.29,0.58,0.61,0.6,0.48,0.58,0.44,0.48,0.55,0.33,0.58,0.48,0.55,0.5,0.44,0.44,0.6,0.4,0.5,0.44,0.56" style="fill:rgb(0,0,0);font-family:URWPalladioL-Roma;font-size:9.96px;stroke:none;">device-speciﬁc asymmetries which, although minimised in the design, can still inﬂuence the accuracy</text>
   <text y="525.62" x="76.117,84.359,90.111,94.845,100.6218,103.087,105.963,111.359,119.602,122.893,128.645,133.379,138.32,141.542,144.833,150.842,156.238,163.561,166.05100000000002,168.532,174.284,177.16,182.655,188.406,191.697,196.639,201.027,205.415,211.374,215.278,220.22,224.608,230.1856,232.593,241.32,246.053,250.995,255.185,261.145,264.87,269.604,278.331,283.065,288.817,292.039,296.2222,298.719,303.661,307.387,312.1678,314.611,318.337,323.071,328.605,334.565,337.441,341.166,345.9,351.939,354.42900000000003,357.898,363.937,369.036,373.978,382.704,388.644,391.52,396.254,400.4372,402.935,408.331,411.61780000000005,414.112,418.302,424.262,428.65,434.42679999999996,436.902,441.092,449.819,454.76,457.636,460.5244,463.003,467.944,472.135,477.629,486.356,495.083,499.817,503.038,506.942,509.818,514.552" svgx:width="0.83,0.58,0.48,0.58,0.55,0.29,0.55,0.83,0.33,0.58,0.48,0.5,0.33,0.33,0.61,0.55,0.83,0.25,0.55,0.58,0.29,0.56,0.58,0.33,0.5,0.44,0.44,0.6,0.4,0.5,0.44,0.56,0.55,0.88,0.48,0.5,0.42,0.6,0.4,0.48,0.88,0.48,0.58,0.33,0.42,0.55,0.5,0.4,0.48,0.55,0.4,0.48,0.56,0.6,0.29,0.4,0.48,0.61,0.25,0.55,0.61,0.52,0.5,0.88,0.6,0.29,0.48,0.42,0.55,0.55,0.33,0.55,0.42,0.6,0.44,0.58,0.55,0.42,0.88,0.5,0.29,0.29,0.55,0.5,0.42,0.56,0.88,0.88,0.48,0.33,0.4,0.29,0.48,0.42" style="fill:rgb(0,0,0);font-family:URWPalladioL-Roma;font-size:9.96px;stroke:none;">when low-heat-ﬂow, high-accuracy measurements are required. Examples of such small asymmetries</text>
   <text y="539.13" x="76.535,79.434,85.232,89.656,92.555,98.562,104.649,109.4298,111.912,116.136,119.035,121.935,127.474,133.272,136.5588,139.01,145.098" svgx:width="0.29,0.58,0.44,0.29,0.6,0.61,0.48,0.55,0.42,0.29,0.29,0.56,0.58,0.33,0.55,0.61,0.29" style="fill:rgb(0,0,0);font-family:URWPalladioL-Roma;font-size:9.96px;stroke:none;">include slight di</text>
   <text y="539.13" x="147.996" svgx:width="0.61" style="fill:rgb(0,0,0);font-family:Rpxr;font-size:9.96px;stroke:none;">ﬀ</text>
   <text y="539.13" x="154.053,158.825,162.581,167.353,173.151,177.575,182.347,186.5302,189.062,191.961,197.73780000000002,200.25,204.474,209.246,215.044,219.268,224.708,228.692,231.134,237.121,242.561,246.785,249.684,252.932,255.831,261.27,267.069,271.2522,273.783,278.765,284.563,290.6386,293.141,299.228" svgx:width="0.48,0.4,0.48,0.58,0.44,0.48,0.42,0.55,0.29,0.58,0.55,0.42,0.48,0.58,0.42,0.55,0.4,0.55,0.6,0.55,0.42,0.29,0.33,0.29,0.55,0.58,0.42,0.55,0.5,0.58,0.61,0.55,0.61,0.29" style="fill:rgb(0,0,0);font-family:URWPalladioL-Roma;font-size:9.96px;stroke:none;">erences in sensor positions and di</text>
   <text y="539.13" x="302.127" svgx:width="0.61" style="fill:rgb(0,0,0);font-family:Rpxr;font-size:9.96px;stroke:none;">ﬀ</text>
   <text y="539.13" x="308.184,312.956,316.712,321.484,327.282,331.706,336.478,340.6612,343.193,346.092,351.86879999999996,354.381,357.628,363.427,368.2078,370.689,374.914,379.686,385.484,389.708,395.148,399.083,403.2662,405.798,409.046,414.844,419.616,428.413,432.637,437.409,440.308,445.937,450.709,454.933" svgx:width="0.48,0.4,0.48,0.58,0.44,0.48,0.42,0.55,0.29,0.58,0.55,0.33,0.58,0.48,0.55,0.42,0.48,0.58,0.42,0.55,0.4,0.42,0.55,0.33,0.58,0.48,0.88,0.42,0.48,0.29,0.56,0.48,0.42,0.25" style="fill:rgb(0,0,0);font-family:URWPalladioL-Roma;font-size:9.96px;stroke:none;">erences in the sensors themselves.</text>
  </g>
  <g begin="text">
   <text y="546.146" x="157.937" svgx:width="0.25" style="fill:rgb(0,0,0);font-family:Palatino Linotype,Italic;font-size:8.04px;stroke:none;"> </text>
  </g>
  <g begin="text">
   <text y="1281.122" x="376.483" svgx:width="0.5" style="fill:rgb(0,0,0);font-family:Palatino Linotype;font-size:9.96px;stroke:none;">5</text>
  </g>
  <g begin="text">
   <text y="1281.122" x="381.523" svgx:width="0.25" style="fill:rgb(0,0,0);font-family:Palatino Linotype;font-size:9.96px;stroke:none;"> </text>
  </g>
  <g begin="text">
   <text y="697.126" x="423.543" svgx:width="0.25" style="fill:rgb(0,0,0);font-family:Palatino Linotype;font-size:9.0px;stroke:none;"> </text>
  </g>
  <g begin="text">
   <text y="714.766" x="157.937" svgx:width="0.25" style="fill:rgb(0,0,0);font-family:Palatino Linotype;font-size:9.96px;stroke:none;"> </text>
  </g>
  <g begin="text">
   <text y="714.766" x="301.963" svgx:width="0.25" style="fill:rgb(0,0,0);font-family:Palatino Linotype;font-size:9.0px;stroke:none;"> </text>
  </g>
  <path style="fill:none;stroke:rgb(255,0,0);stroke-width:1.0;" d="M206.620 678.630 L217.260 678.630 L263.270 564.730 L273.910 564.730 "/>
  <path style="fill:none;stroke:rgb(81,81,81);stroke-width:1.95;" d="M273.910 564.730 L276.830 564.730 "/>
  <path style="fill:none;stroke:rgb(81,81,81);stroke-width:1.95;" d="M282.070 564.730 L284.990 564.730 "/>
  <path style="fill:none;stroke:rgb(81,81,81);stroke-width:1.95;" d="M290.240 564.730 L293.160 564.730 "/>
  <path style="fill:none;stroke:rgb(81,81,81);stroke-width:1.95;" d="M298.410 564.730 L301.330 564.730 "/>
  <path style="fill:none;stroke:rgb(81,81,81);stroke-width:1.95;" d="M306.580 564.730 L309.500 564.730 "/>
  <path style="fill:none;stroke:rgb(81,81,81);stroke-width:1.95;" d="M314.740 564.730 L317.660 564.730 "/>
  <path style="fill:none;stroke:rgb(81,81,81);stroke-width:1.95;" d="M322.910 564.730 L325.830 564.730 "/>
  <path style="fill:none;stroke:rgb(81,81,81);stroke-width:1.95;" d="M331.080 564.730 L334.000 564.730 "/>
  <path style="fill:none;stroke:rgb(81,81,81);stroke-width:1.95;" d="M339.250 564.730 L342.170 564.730 "/>
  <path style="fill:none;stroke:rgb(81,81,81);stroke-width:1.95;" d="M347.410 564.730 L350.340 564.730 "/>
  <path style="fill:none;stroke:rgb(81,81,81);stroke-width:1.95;" d="M355.580 564.730 L358.500 564.730 "/>
  <path style="fill:none;stroke:rgb(0,0,255);stroke-width:1.95;" d="M358.950 564.730 L369.520 564.730 L392.600 678.630 L403.160 678.630 "/>
  <path style="fill:none;stroke:rgb(0,0,0);stroke-width:1.95;" d="M197.780 682.980 L410.280 682.980 "/>
  <path style="fill:none;stroke:rgb(0,0,0);stroke-width:1.95;" d="M197.780 682.980 L197.780 684.930 "/>
  <path style="fill:none;stroke:rgb(0,0,0);stroke-width:1.95;" d="M215.460 682.980 L215.460 684.930 "/>
  <path style="fill:none;stroke:rgb(0,0,0);stroke-width:1.95;" d="M233.220 682.980 L233.220 684.930 "/>
  <path style="fill:none;stroke:rgb(0,0,0);stroke-width:1.95;" d="M250.900 682.980 L250.900 684.930 "/>
  <path style="fill:none;stroke:rgb(0,0,0);stroke-width:1.95;" d="M268.590 682.980 L268.590 684.930 "/>
  <path style="fill:none;stroke:rgb(0,0,0);stroke-width:1.95;" d="M286.350 682.980 L286.350 684.930 "/>
  <path style="fill:none;stroke:rgb(0,0,0);stroke-width:1.95;" d="M304.030 682.980 L304.030 684.930 "/>
  <path style="fill:none;stroke:rgb(0,0,0);stroke-width:1.95;" d="M321.710 682.980 L321.710 684.930 "/>
  <path style="fill:none;stroke:rgb(0,0,0);stroke-width:1.95;" d="M339.470 682.980 L339.470 684.930 "/>
  <path style="fill:none;stroke:rgb(0,0,0);stroke-width:1.95;" d="M357.150 682.980 L357.150 684.930 "/>
  <path style="fill:none;stroke:rgb(0,0,0);stroke-width:1.95;" d="M374.840 682.980 L374.840 684.930 "/>
  <path style="fill:none;stroke:rgb(0,0,0);stroke-width:1.95;" d="M392.600 682.980 L392.600 684.930 "/>
  <path style="fill:none;stroke:rgb(0,0,0);stroke-width:1.95;" d="M410.280 682.980 L410.280 684.930 "/>
  <path style="fill:none;stroke:rgb(0,0,0);stroke-width:1.95;" d="M206.620 682.980 L206.620 686.800 "/>
  <path style="fill:none;stroke:rgb(0,0,0);stroke-width:1.95;" d="M224.380 682.980 L224.380 686.800 "/>
  <path style="fill:none;stroke:rgb(0,0,0);stroke-width:1.95;" d="M242.060 682.980 L242.060 686.800 "/>
  <path style="fill:none;stroke:rgb(0,0,0);stroke-width:1.95;" d="M259.740 682.980 L259.740 686.800 "/>
  <path style="fill:none;stroke:rgb(0,0,0);stroke-width:1.95;" d="M277.500 682.980 L277.500 686.800 "/>
  <path style="fill:none;stroke:rgb(0,0,0);stroke-width:1.95;" d="M295.190 682.980 L295.190 686.800 "/>
  <path style="fill:none;stroke:rgb(0,0,0);stroke-width:1.95;" d="M312.870 682.980 L312.870 686.800 "/>
  <path style="fill:none;stroke:rgb(0,0,0);stroke-width:1.95;" d="M330.630 682.980 L330.630 686.800 "/>
  <path style="fill:none;stroke:rgb(0,0,0);stroke-width:1.95;" d="M348.310 682.980 L348.310 686.800 "/>
  <path style="fill:none;stroke:rgb(0,0,0);stroke-width:1.95;" d="M366.000 682.980 L366.000 686.800 "/>
  <path style="fill:none;stroke:rgb(0,0,0);stroke-width:1.95;" d="M383.750 682.980 L383.750 686.800 "/>
  <path style="fill:none;stroke:rgb(0,0,0);stroke-width:1.95;" d="M401.440 682.980 L401.440 686.800 "/>
  <path style="fill:none;stroke:rgb(0,0,0);stroke-width:1.95;" d="M197.780 682.980 L197.780 562.560 "/>
  <path style="fill:none;stroke:rgb(0,0,0);stroke-width:1.95;" d="M197.780 661.080 L195.830 661.080 "/>
  <path style="fill:none;stroke:rgb(0,0,0);stroke-width:1.95;" d="M197.780 617.290 L195.830 617.290 "/>
  <path style="fill:none;stroke:rgb(0,0,0);stroke-width:1.95;" d="M197.780 573.500 L195.830 573.500 "/>
  <path style="fill:none;stroke:rgb(0,0,0);stroke-width:1.95;" d="M197.780 682.980 L193.950 682.980 "/>
  <path style="fill:none;stroke:rgb(0,0,0);stroke-width:1.95;" d="M197.780 639.190 L193.950 639.190 "/>
  <path style="fill:none;stroke:rgb(0,0,0);stroke-width:1.95;" d="M197.780 595.400 L193.950 595.400 "/>
  <path style="fill:none;stroke:rgb(128,128,128);stroke-width:1.95;" d="M310.170 614.140 L362.770 569.160 "/>
  <path style="fill:rgb(128,128,128);stroke:none;stroke-width:0.3;" d="M362.770 569.160 L358.730 574.330 L357.900 573.350 L357.080 572.380 L362.770 569.160 Z"/>
  <g begin="text">
   <text y="593.524" x="377.759,383.98,390.898,397.766,400.528,403.29,410.208" svgx:width="0.5,0.56,0.56,0.22,0.22,0.56,0.56" style="fill:rgb(0,0,255);font-family:Arial;font-size:12.45px;stroke:none;">cooling</text>
  </g>
  <g begin="text">
   <text y="659.659" matrix="[9.331461E-7,12.447618,-12.441947,9.335714E-7,186.53636,182.23071]" x="186.536" svgx:width="0.28" style="fill:rgb(0,0,0);font-family:Arial;font-size:0.0px;stroke:none;">t</text>
   <text y="656.199" matrix="[9.331461E-7,12.447618,-12.441947,9.335714E-7,186.53636,185.69116]" x="186.536" svgx:width="0.56" style="fill:rgb(0,0,0);font-family:Arial;font-size:0.0px;stroke:none;">e</text>
   <text y="649.278" matrix="[9.331461E-7,12.447618,-12.441947,9.335714E-7,186.53636,192.61203]" x="186.536" svgx:width="0.83" style="fill:rgb(0,0,0);font-family:Arial;font-size:0.0px;stroke:none;">m</text>
   <text y="638.971" matrix="[9.331461E-7,12.447618,-12.441947,9.335714E-7,186.53636,202.91866]" x="186.536" svgx:width="0.56" style="fill:rgb(0,0,0);font-family:Arial;font-size:0.0px;stroke:none;">p</text>
   <text y="632.05" matrix="[9.331461E-7,12.447618,-12.441947,9.335714E-7,186.53636,209.83954]" x="186.536" svgx:width="0.56" style="fill:rgb(0,0,0);font-family:Arial;font-size:0.0px;stroke:none;">e</text>
   <text y="625.179" matrix="[9.331461E-7,12.447618,-12.441947,9.335714E-7,186.53636,216.71062]" x="186.536" svgx:width="0.33" style="fill:rgb(0,0,0);font-family:Arial;font-size:0.0px;stroke:none;">r</text>
   <text y="621.034" matrix="[9.331461E-7,12.447618,-12.441947,9.335714E-7,186.53636,220.85568]" x="186.536" svgx:width="0.56" style="fill:rgb(0,0,0);font-family:Arial;font-size:0.0px;stroke:none;">a</text>
   <text y="614.163" matrix="[9.331461E-7,12.447618,-12.441947,9.335714E-7,186.53636,227.72676]" x="186.536" svgx:width="0.28" style="fill:rgb(0,0,0);font-family:Arial;font-size:0.0px;stroke:none;">t</text>
   <text y="610.703" matrix="[9.331461E-7,12.447618,-12.441947,9.335714E-7,186.53636,231.1872]" x="186.536" svgx:width="0.56" style="fill:rgb(0,0,0);font-family:Arial;font-size:0.0px;stroke:none;">u</text>
   <text y="603.782" matrix="[9.331461E-7,12.447618,-12.441947,9.335714E-7,186.53636,238.10806]" x="186.536" svgx:width="0.33" style="fill:rgb(0,0,0);font-family:Arial;font-size:0.0px;stroke:none;">r</text>
   <text y="599.699" matrix="[9.331461E-7,12.447618,-12.441947,9.335714E-7,186.53636,242.19089]" x="186.536" svgx:width="0.56" style="fill:rgb(0,0,0);font-family:Arial;font-size:0.0px;stroke:none;">e</text>
  </g>
  <g begin="text">
   <text y="696.177" x="369.966,373.425,376.187,386.552" svgx:width="0.28,0.22,0.83,0.56" style="fill:rgb(0,0,0);font-family:Arial;font-size:12.45px;stroke:none;">time</text>
  </g>
  <g begin="text">
   <text y="596.675" x="206.319,213.237,220.105,227.023,230.482,233.244,240.112" svgx:width="0.56,0.56,0.56,0.28,0.22,0.56,0.56" style="fill:rgb(255,0,0);font-family:Arial;font-size:12.45px;stroke:none;">heating</text>
  </g>
  <path style="fill:rgb(255,255,255);stroke:none;stroke-width:0.3;" d="M264.690 203.670 L361.720 203.670 L361.720 227.520 L264.690 227.520 L264.690 203.670 "/>
  <g begin="text">
   <text y="623.517" x="264.764,266.997,272.539,279.666,282.985,285.756,291.298,293.511,299.053,304.596,307.915,310.686,316.228,324.531,330.074,335.616,338.935,344.477,347.248,352.791,356.11" svgx:width="0.22,0.56,0.72,0.33,0.28,0.56,0.22,0.56,0.56,0.33,0.28,0.56,0.83,0.56,0.56,0.33,0.56,0.28,0.56,0.33,0.56" style="fill:rgb(128,128,128);font-family:Arial;font-size:9.97px;stroke:none;">low-/high-temperature</text>
  </g>
  <g begin="text">
   <text y="635.815" x="272.931,275.164,280.178,285.72,288.491,294.033,299.575,302.894,311.198,316.74,318.983,321.754,326.768,332.31,337.324,340.095,342.338,347.88" svgx:width="0.22,0.5,0.56,0.28,0.56,0.56,0.33,0.83,0.56,0.22,0.28,0.5,0.56,0.5,0.28,0.22,0.56,0.56" style="fill:rgb(128,128,128);font-family:Arial;font-size:9.97px;stroke:none;">isothermal section</text>
  </g>
  <path style="fill:none;stroke:rgb(128,128,128);stroke-width:0.67;" d="M309.120 614.440 L267.760 568.860 "/>
  <path style="fill:rgb(128,128,128);stroke:none;stroke-width:0.3;" d="M267.760 568.860 L273.010 572.750 L272.110 573.650 L271.130 574.480 L267.760 568.860 Z"/>
  <path style="fill:none;stroke:rgb(128,128,128);stroke-width:0.3;" d="M309.120 638.290 L213.960 676.230 "/>
  <path style="fill:rgb(128,128,128);stroke:none;stroke-width:0.3;" d="M213.960 676.230 L219.510 672.630 L219.950 673.830 L220.400 675.030 L213.960 676.230 Z"/>
  <path style="fill:none;stroke:rgb(128,128,128);stroke-width:0.3;" d="M310.470 638.740 L397.090 676.830 "/>
  <path style="fill:rgb(128,128,128);stroke:none;stroke-width:0.3;" d="M397.090 676.830 L390.650 675.410 L391.170 674.210 L391.700 673.080 L397.090 676.830 Z"/>
  <g begin="text">
   <text y="715.105" x="176.297,181.282,184.268,189.253,194.732,198.22,202.705,204.945,209.428" svgx:width="0.56,0.33,0.56,0.61,0.39,0.5,0.55,0.5,0.25" style="fill:rgb(0,0,0);font-family:URWPalladioL-Bold;font-size:8.97px;stroke:none;">Figure 5.</text>
   <text y="715.105" x="214.808,220.286,224.77,228.571,231.181,235.1278,237.403,240.326,242.936,250.853,255.148,258.134,261.057,265.352,273.269,278.658,282.953,286.494,290.977,293.901,299.307,302.688,306.9936,309.224,314.613,317.993,322.889,328.314,330.923,335.22860000000003,337.459,342.355,345.31510000000003,347.582,354.522,359.23,365.5987,367.828,372.123,376.75,382.139,386.434,389.975,392.585,400.502,404.797,410.015,412.938,416.74" svgx:width="0.61,0.5,0.42,0.29,0.44,0.55,0.33,0.29,0.88,0.48,0.33,0.33,0.48,0.88,0.6,0.48,0.4,0.5,0.33,0.6,0.4,0.48,0.55,0.6,0.4,0.55,0.61,0.29,0.48,0.55,0.55,0.33,0.55,0.77,0.52,0.71,0.55,0.48,0.52,0.6,0.48,0.4,0.29,0.88,0.48,0.58,0.33,0.42,0.25" style="fill:rgb(0,0,0);font-family:URWPalladioL-Roma;font-size:8.97px;stroke:none;">Basic time-temperature proﬁle of DSC experiments.</text>
  </g>
 </g>
</svg>
