<?xml version="1.0" encoding="UTF-8"?>
<svg height="1174.101" width="531.3430000000001" xmlns="http://www.w3.org/2000/svg">
 <g id="page" xmlns:svgx="http://www.xml-cml.org/schema/svgx">
  <g begin="text">
   <text y="62.979" x="76.535,84.059,87.598,90.252,93.352,96.452,98.668,102.207,104.422" svgx:width="0.94,0.44,0.33,0.39,0.39,0.28,0.44,0.28,0.39" style="fill:rgb(0,0,0);font-family:URWPalladioL-Ital;font-size:7.97px;stroke:none;">Materials</text>
   <text y="62.979" x="109.515,113.5,117.485,121.47" svgx:width="0.5,0.5,0.5,0.5" style="fill:rgb(0,0,0);font-family:URWPalladioL-Bold;font-size:7.97px;stroke:none;">2019</text>
   <text y="62.979" x="125.455" svgx:width="0.25" style="fill:rgb(0,0,0);font-family:URWPalladioL-Roma;font-size:7.97px;stroke:none;">,</text>
   <text y="62.979" x="129.44,133.425" svgx:width="0.5,0.5" style="fill:rgb(0,0,0);font-family:URWPalladioL-Ital;font-size:7.97px;stroke:none;">12</text>
   <text y="62.979" x="137.41,139.4025,141.395,145.38,149.365,153.35,157.335,491.809,495.794,499.779,501.772,506.123,508.7531,510.77,514.755" svgx:width="0.25,0.55,0.5,0.5,0.5,0.5,0.55,0.5,0.5,0.55,0.55,0.33,0.55,0.5,0.5" style="fill:rgb(0,0,0);font-family:URWPalladioL-Roma;font-size:7.97px;stroke:none;">, 4083 35 of 92</text>
   <text y="97.848" x="97.795,104.024,109.938,114.7188,117.407,122.956,128.575,131.888,136.969,139.926,145.84,150.708,156.7836,159.528,167.434,174.639,181.844,188.632,192.8152,195.542,198.926,204.474,208.458,211.1,216.181,221.262,226.342" svgx:width="0.61,0.58,0.48,0.55,0.55,0.55,0.33,0.5,0.29,0.58,0.48,0.61,0.55,0.78,0.71,0.71,0.67,0.42,0.55,0.33,0.55,0.4,0.55,0.5,0.5,0.5,0.5" style="fill:rgb(0,0,0);font-family:URWPalladioL-Roma;font-size:9.96px;stroke:none;">The obtained UCCRs for 6082</text>
   <text y="99.713" x="231.421" svgx:width="0.34" style="fill:rgb(0,0,0);font-family:URWPalladioL-Roma;font-size:7.57px;stroke:none;">I</text>
   <text y="97.848" x="237.076,242.157,248.071,254.1466,256.881,261.962,267.043,272.124,277.10400000000004,279.817,284.329,289.877,293.891,297.722,302.59,306.898,313.005,318.554,324.468,330.5436,333.288,341.763,346.631,349.588,352.4764,355.147,363.622,366.579,369.891,375.6678,378.417,381.73,387.644,392.4248,395.113,398.944,403.812,408.12,414.248,417.205,420.518,424.7012,427.438,432.986,438.606,441.919,447.0,449.957,455.871,460.738,466.8136,469.549,472.506,478.28279999999995,481.032,487.82,492.687,496.071,498.56100000000004,501.213" svgx:width="0.5,0.58,0.61,0.55,0.5,0.5,0.5,0.5,0.55,0.44,0.55,0.4,0.4,0.48,0.42,0.6,0.55,0.58,0.61,0.55,0.83,0.48,0.29,0.29,0.55,0.83,0.29,0.33,0.58,0.55,0.33,0.58,0.48,0.55,0.4,0.48,0.42,0.6,0.29,0.33,0.42,0.55,0.55,0.55,0.33,0.5,0.29,0.58,0.48,0.61,0.55,0.29,0.58,0.55,0.67,0.48,0.33,0.25,0.55,0.33" style="fill:rgb(0,0,0);font-family:URWPalladioL-Roma;font-size:9.96px;stroke:none;">and 6063 correspond well with the results obtained in Ref. [</text>
   <text y="97.848" x="504.597,509.578" svgx:width="0.5,0.5" style="fill:rgb(8,117,183);font-family:URWPalladioL-Roma;font-size:9.96px;stroke:none;">23</text>
   <text y="97.848" x="514.559,517.943" svgx:width="0.33,0.25" style="fill:rgb(0,0,0);font-family:URWPalladioL-Roma;font-size:9.96px;stroke:none;">].</text>
   <text y="111.358" x="76.535,79.825,85.6018,87.753" svgx:width="0.34,0.58,0.55,0.33" style="fill:rgb(0,0,0);font-family:URWPalladioL-Roma;font-size:9.96px;stroke:none;">In [</text>
   <text y="111.358" x="91.0,95.981" svgx:width="0.5,0.5" style="fill:rgb(8,117,183);font-family:URWPalladioL-Roma;font-size:9.96px;stroke:none;">23</text>
   <text y="111.358" x="100.963,104.214,106.704,108.949,113.831,119.6078,121.749,129.345,136.267,143.189,149.8622,151.957,157.288,160.5748,162.775,167.755,169.902" svgx:width="0.33,0.25,0.55,0.5,0.58,0.55,0.78,0.71,0.71,0.67,0.55,0.55,0.33,0.55,0.5,0.55,0.73" style="fill:rgb(0,0,0);font-family:URWPalladioL-Roma;font-size:9.96px;stroke:none;">], an UCCR of 1 K</text>
   <text y="111.358" x="176.989" svgx:width="0.29" style="fill:rgb(0,0,0);font-family:Rpxr;font-size:9.96px;stroke:none;">/</text>
   <text y="111.358" x="179.791,183.9742,186.176,189.427,194.758,198.74200000000002,200.851,205.732,210.614,215.496,220.476,222.623,225.464,229.6472,231.839,235.52,240.197,246.065,251.395,255.252,258.435,263.111,269.077,271.567,273.812,281.955,287.637,290.478,294.813,300.58979999999997,302.731,305.572,309.7552,311.957,315.14,320.823,325.6038,327.735,331.875,336.756,345.377,350.1578,352.3,357.181,361.3642,363.557,366.74,372.422,377.304,380.5908,382.732,385.983,391.314,397.201,402.884,408.9596,411.095,413.936,419.71279999999996,421.854,425.037,430.719,433.56,437.7432,439.945,448.088,453.419,457.275,462.8526,464.939,468.191,473.521,477.505,479.624,484.60400000000004,486.741,490.881,493.722,496.563,501.991,507.674,510.856,513.698" svgx:width="0.42,0.55,0.33,0.55,0.4,0.55,0.5,0.5,0.5,0.5,0.55,0.29,0.42,0.55,0.4,0.48,0.6,0.55,0.4,0.33,0.48,0.61,0.25,0.55,0.83,0.58,0.29,0.44,0.58,0.55,0.29,0.42,0.55,0.33,0.58,0.48,0.55,0.42,0.5,0.88,0.48,0.55,0.5,0.42,0.55,0.33,0.58,0.5,0.33,0.55,0.33,0.55,0.6,0.58,0.61,0.55,0.29,0.58,0.55,0.33,0.58,0.29,0.42,0.55,0.83,0.55,0.4,0.56,0.55,0.33,0.55,0.4,0.55,0.5,0.55,0.42,0.29,0.29,0.56,0.58,0.33,0.29,0.56" style="fill:rgb(0,0,0);font-family:URWPalladioL-Roma;font-size:9.96px;stroke:none;">s for 6063 is reported, which is the same as that found in this work for a slightly</text>
   <text y="124.867" x="76.535,82.432,85.38,91.014,96.91,101.764,105.74799999999999,108.268,112.767,118.299,124.196,128.684,133.537,139.434,142.737,146.739,151.805,155.108,159.962,166.0376,168.655,174.379,179.233,183.235,187.531,190.479,196.011,201.7878,204.4,209.932,213.2188,215.809,220.875,225.941,231.007,235.987,238.565" svgx:width="0.58,0.29,0.56,0.58,0.48,0.4,0.55,0.44,0.55,0.58,0.44,0.48,0.58,0.33,0.4,0.5,0.33,0.48,0.61,0.55,0.56,0.48,0.4,0.42,0.29,0.55,0.58,0.55,0.55,0.33,0.55,0.5,0.5,0.5,0.5,0.55,0.33" style="fill:rgb(0,0,0);font-family:URWPalladioL-Roma;font-size:9.96px;stroke:none;">higher concentrated version of 6063 [</text>
   <text y="124.867" x="241.944,246.925,251.907" svgx:width="0.5,0.5,0.5" style="fill:rgb(8,117,183);font-family:URWPalladioL-Roma;font-size:9.96px;stroke:none;">128</text>
   <text y="124.867" x="256.888,260.262,262.752,266.301,271.934,277.466,281.45,283.971,289.037,294.103,299.169,304.235,306.725,309.26,316.028,320.881,324.255,326.745,329.291" svgx:width="0.33,0.25,0.55,0.56,0.55,0.4,0.55,0.5,0.5,0.5,0.5,0.25,0.55,0.67,0.48,0.33,0.25,0.55,0.33" style="fill:rgb(0,0,0);font-family:URWPalladioL-Roma;font-size:9.96px;stroke:none;">]. For 6082, Ref. [</text>
   <text y="124.867" x="332.664,337.645" svgx:width="0.5,0.5" style="fill:rgb(8,117,183);font-family:URWPalladioL-Roma;font-size:9.96px;stroke:none;">23</text>
   <text y="124.867" x="342.627,345.91380000000004,348.493,352.323,357.177,363.266,368.798,372.8,376.103,380.2862,382.891,387.957,393.7338,396.357,404.239,411.423,418.607,425.28020000000004,427.867,433.399,436.68580000000003,439.276,444.342,449.945,455.477,461.201,465.9818,468.547,473.613,478.593,481.182" svgx:width="0.33,0.55,0.4,0.48,0.6,0.55,0.4,0.33,0.42,0.55,0.5,0.58,0.55,0.78,0.71,0.71,0.67,0.55,0.55,0.33,0.55,0.5,0.55,0.55,0.56,0.48,0.55,0.5,0.5,0.55,0.73" style="fill:rgb(0,0,0);font-family:URWPalladioL-Roma;font-size:9.96px;stroke:none;">] reports an UCCR of above 10 K</text>
   <text y="124.867" x="488.535" svgx:width="0.29" style="fill:rgb(0,0,0);font-family:Rpxr;font-size:9.96px;stroke:none;">/</text>
   <text y="124.867" x="491.443,495.739,498.229,501.778,507.988,513.885" svgx:width="0.42,0.25,0.55,0.61,0.58,0.48" style="fill:rgb(0,0,0);font-family:URWPalladioL-Roma;font-size:9.96px;stroke:none;">s. The</text>
   <text y="138.377" x="76.535,81.506,90.286,95.714,101.71,107.496,110.738,114.9212,117.449,122.878,126.1648,128.674,138.08,143.6576,146.104,151.075,156.862,162.9376,165.432,170.652,173.54039999999998,176.041,178.935,184.7118,187.207,190.448,196.235,201.0158,203.493,208.464,213.436,218.407,223.387,225.874,231.492,236.463,240.39,243.284,248.255,254.042,257.3288,259.769,264.183,269.612,275.399,279.614,282.508,288.583,293.345,297.093,301.856,307.9316,310.427,313.32,319.0968,321.602" svgx:width="0.5,0.88,0.55,0.6,0.58,0.33,0.42,0.55,0.55,0.33,0.55,0.95,0.56,0.55,0.5,0.58,0.61,0.55,0.52,0.29,0.55,0.29,0.58,0.55,0.33,0.58,0.48,0.55,0.5,0.5,0.5,0.5,0.55,0.56,0.5,0.4,0.29,0.5,0.58,0.33,0.55,0.44,0.55,0.58,0.42,0.29,0.61,0.48,0.4,0.48,0.61,0.55,0.29,0.58,0.55,0.33" style="fill:rgb(0,0,0);font-family:URWPalladioL-Roma;font-size:9.96px;stroke:none;">amounts of Mg and Si in the 6082 variant considered in [</text>
   <text y="138.377" x="324.912,329.893" svgx:width="0.5,0.5" style="fill:rgb(8,117,183);font-family:URWPalladioL-Roma;font-size:9.96px;stroke:none;">23</text>
   <text y="138.377" x="334.874,338.16080000000005,340.681,343.574,347.7572,350.275,354.69,357.583,363.012,367.227,372.0078,374.486,377.727,383.205,385.651,388.893,394.679,400.108,404.324,409.1048,411.582,417.01,420.2968,422.807,426.048,431.835,436.6158,439.093,444.064,449.036,454.007" svgx:width="0.33,0.55,0.29,0.42,0.55,0.44,0.29,0.55,0.42,0.48,0.55,0.33,0.55,0.55,0.33,0.58,0.55,0.42,0.48,0.55,0.55,0.33,0.55,0.33,0.58,0.48,0.55,0.5,0.5,0.5,0.5" style="fill:rgb(0,0,0);font-family:URWPalladioL-Roma;font-size:9.96px;stroke:none;">] is close to those of the 6082</text>
   <text y="140.241" x="458.979" svgx:width="0.34" style="fill:rgb(0,0,0);font-family:URWPalladioL-Roma;font-size:7.57px;stroke:none;">I</text>
   <text y="138.377" x="464.521,467.414,473.19079999999997,475.697,478.938,484.725,487.618,491.8012,494.319,502.611,508.04,511.967,517.496" svgx:width="0.29,0.58,0.55,0.33,0.58,0.29,0.42,0.55,0.83,0.55,0.4,0.56,0.25" style="fill:rgb(0,0,0);font-family:URWPalladioL-Roma;font-size:9.96px;stroke:none;">in this work,</text>
   <text y="151.886" x="76.535,79.853,85.292,89.276,91.718,100.027,105.825,108.724,113.148,118.92479999999999,121.436,129.745,134.5258,137.008,142.448,147.957,151.205,156.186,159.085,164.883,169.655,175.7306,178.233,183.214,188.9908,191.503,199.254,206.318,213.381,220.0542,222.527,227.966" svgx:width="0.33,0.55,0.4,0.55,0.83,0.58,0.29,0.44,0.58,0.55,0.83,0.48,0.55,0.55,0.55,0.33,0.5,0.29,0.58,0.48,0.61,0.55,0.5,0.58,0.55,0.78,0.71,0.71,0.67,0.55,0.55,0.33" style="fill:rgb(0,0,0);font-family:URWPalladioL-Roma;font-size:9.96px;stroke:none;">for which we obtained an UCCR of</text>
   <text y="151.886" x="233.774" svgx:width="0.67" style="fill:rgb(0,0,0);font-family:Pxsy;font-size:9.96px;stroke:none;">≈</text>
   <text y="151.886" x="240.439,245.42,250.39999999999998,252.892" svgx:width="0.5,0.5,0.55,0.73" style="fill:rgb(0,0,0);font-family:URWPalladioL-Roma;font-size:9.96px;stroke:none;">17 K</text>
   <text y="151.886" x="260.125" svgx:width="0.29" style="fill:rgb(0,0,0);font-family:Rpxr;font-size:9.96px;stroke:none;">/</text>
   <text y="151.886" x="262.984,267.208" svgx:width="0.42,0.25" style="fill:rgb(0,0,0);font-family:URWPalladioL-Roma;font-size:9.96px;stroke:none;">s.</text>
   <text y="165.395" x="97.795,104.795,109.731,115.31,120.246,125.183,130.573,134.7562,137.247,142.184,147.93,154.00560000000002,156.46,163.46,168.851" svgx:width="0.71,0.5,0.56,0.5,0.5,0.55,0.42,0.55,0.5,0.58,0.61,0.55,0.71,0.55,0.29" style="fill:rgb(0,0,0);font-family:URWPalladioL-Roma;font-size:9.96px;stroke:none;">Cavazos and Col</text>
   <text y="165.395" x="171.719" svgx:width="0.5" style="fill:rgb(0,0,0);font-family:VnURWPalladioL;font-size:9.96px;stroke:none;">á</text>
   <text y="165.395" x="176.701,180.8842,183.375,188.766,194.225,197.444,202.381,205.254,211.0,215.729,221.80460000000002,224.259,229.23899999999998,231.683,238.683,245.683,251.659,254.134,260.167,263.04,267.976,273.466,277.365,282.302,293.508,296.795,302.186,306.16999999999996,308.584,313.52,318.457,323.393,328.373,330.818,334.105,337.827,343.218,354.424,357.711,363.102,371.82,374.693,380.439,385.928,389.216,392.089,394.962,400.451,405.2318,407.668,413.128,418.065,421.787,425.074,429.804,435.55,441.582,444.87,450.399,456.352,461.081,466.827,471.211,476.9878,479.445,482.663,487.392,491.579,494.797,498.9802,501.481" svgx:width="0.42,0.55,0.55,0.55,0.33,0.5,0.29,0.58,0.48,0.61,0.55,0.5,0.55,0.71,0.71,0.6,0.55,0.61,0.29,0.5,0.56,0.4,0.5,0.88,0.33,0.55,0.4,0.55,0.5,0.5,0.5,0.5,0.55,0.33,0.4,0.55,0.88,0.33,0.55,0.88,0.29,0.58,0.56,0.33,0.29,0.29,0.56,0.48,0.55,0.55,0.5,0.4,0.33,0.48,0.58,0.61,0.33,0.56,0.6,0.48,0.58,0.44,0.58,0.55,0.33,0.48,0.42,0.33,0.42,0.55,0.33" style="fill:rgb(0,0,0);font-family:URWPalladioL-Roma;font-size:9.96px;stroke:none;">s obtained a CCP diagramfor 6063 fromJominy-like bar-end-quench tests [</text>
   <text y="165.395" x="504.765,509.746" svgx:width="0.5,0.5" style="fill:rgb(8,117,183);font-family:URWPalladioL-Roma;font-size:9.96px;stroke:none;">25</text>
   <text y="165.395" x="514.728,518.016" svgx:width="0.33,0.25" style="fill:rgb(0,0,0);font-family:URWPalladioL-Roma;font-size:9.96px;stroke:none;">].</text>
   <text y="178.905" x="76.226,82.455,88.369,93.237,98.8146,101.986,110.959,115.817,120.897,125.206,131.334,135.175,140.042,146.1176,149.341,152.653,158.567,163.3478,166.534,171.615,176.127,179.44,185.568,190.648,193.5364,196.695,201.207,206.755,212.303,215.26,218.218,224.132,229.7096,232.881,236.895,241.976,245.289,250.156,254.3392,257.554,262.635,267.147,273.061,276.018,280.886,286.627,291.495,297.5706,300.803,305.884,309.17080000000004,312.286,318.495" svgx:width="0.61,0.58,0.48,0.56,0.55,0.88,0.48,0.5,0.42,0.6,0.4,0.48,0.61,0.55,0.33,0.58,0.48,0.55,0.5,0.44,0.33,0.6,0.5,0.29,0.55,0.44,0.55,0.55,0.29,0.29,0.58,0.56,0.55,0.4,0.5,0.33,0.48,0.42,0.55,0.5,0.44,0.58,0.29,0.48,0.56,0.48,0.61,0.55,0.5,0.33,0.55,0.61,0.29" style="fill:rgb(0,0,0);font-family:URWPalladioL-Roma;font-size:9.96px;stroke:none;">They measured the actual cooling rates achieved at di</text>
   <text y="178.905" x="321.452" svgx:width="0.61" style="fill:rgb(0,0,0);font-family:Rpxr;font-size:9.96px;stroke:none;">ﬀ</text>
   <text y="178.905" x="327.631,332.499,336.33,341.197,347.111,350.3978,353.523,359.732,362.689,366.998,370.311,375.392,381.306,385.818,390.685,394.8682,398.083,403.631,406.9178,410.115,413.428,419.342,424.1228,427.298,432.989,439.117,443.984,449.898,454.41,460.1868,463.424,469.043,474.124,478.108,481.227,486.095,492.009,498.0846,501.317,504.701,509.01,513.877" svgx:width="0.48,0.4,0.48,0.58,0.33,0.55,0.61,0.29,0.42,0.33,0.5,0.58,0.44,0.48,0.42,0.55,0.55,0.33,0.55,0.33,0.58,0.48,0.55,0.56,0.6,0.48,0.58,0.44,0.58,0.55,0.55,0.5,0.4,0.55,0.48,0.58,0.61,0.55,0.33,0.42,0.48,0.48" style="fill:rgb(0,0,0);font-family:URWPalladioL-Roma;font-size:9.96px;stroke:none;">erent distances of the quench bar end (see</text>
   <text y="192.414" x="76.535,79.835,85.726,90.5068,93.074,97.923,103.146,108.207,117.144,123.228,126.173,130.9538,133.512,136.457,142.2338,144.848,150.476,153.422,159.05,165.153,168.969" svgx:width="0.33,0.58,0.48,0.55,0.48,0.52,0.5,0.88,0.6,0.29,0.48,0.55,0.29,0.58,0.55,0.56,0.29,0.56,0.6,0.4,0.48" style="fill:rgb(0,0,0);font-family:URWPalladioL-Roma;font-size:9.96px;stroke:none;">the example in Figure</text>
   <text y="192.414" x="176.318,181.379" svgx:width="0.5,0.5" style="fill:rgb(8,117,183);font-family:URWPalladioL-Roma;font-size:9.96px;stroke:none;">32</text>
   <text y="192.414" x="186.44,194.2088,196.805,200.175,205.702,209.686,212.2,217.17999999999998,219.761,225.946,228.891,233.183,236.483,241.544,247.435,251.929,256.70980000000003,259.268,264.794,268.0808,270.665,275.726,278.256,283.236,285.807,290.302,299.239,302.61,305.1,308.653,314.858,320.749,325.5298,328.087,332.581,338.472,343.533,347.531,352.592,357.087,360.386,365.235,369.233,372.178,376.47,379.77,382.715,387.0974,389.71,393.009,397.008,402.069,407.96,412.251,415.622,421.149,425.147,434.085,439.146,442.445,445.391,450.917,456.69379999999995,459.298,462.598,467.447,476.384,482.468,487.316,491.314,496.375,499.675,505.779,509.605,514.453" svgx:width="0.78,0.55,0.33,0.55,0.4,0.55,0.5,0.55,0.61,0.29,0.42,0.33,0.5,0.58,0.44,0.48,0.55,0.55,0.33,0.55,0.5,0.25,0.5,0.55,0.44,0.88,0.33,0.25,0.55,0.61,0.58,0.48,0.55,0.44,0.58,0.5,0.4,0.5,0.44,0.33,0.48,0.4,0.29,0.42,0.33,0.29,0.44,0.55,0.33,0.4,0.5,0.58,0.42,0.33,0.55,0.4,0.88,0.5,0.33,0.29,0.55,0.58,0.55,0.33,0.48,0.88,0.6,0.48,0.4,0.5,0.33,0.6,0.4,0.48,0.42" style="fill:rgb(0,0,0);font-family:URWPalladioL-Roma;font-size:9.96px;stroke:none;">A for a distance of 5.5 cm). The characteristic transformation temperatures</text>
   <text y="205.924" x="76.117,84.592,89.46,93.291,98.0718,100.739,105.607,111.348,116.429,119.386,125.514,130.595,133.907,138.775,144.85060000000001,147.565,150.949,154.78,160.328,169.0928,171.882,175.195,181.109,185.8898,188.558,191.515,197.429,203.608,208.475,212.987,216.3,219.257,224.805,230.58180000000002,233.301,239.408,244.956,247.913,253.827,257.14,261.3232,264.03,269.578,272.8648,275.543,278.856,284.77,289.5508,292.219,296.731,302.279,307.828,310.785,313.742,319.656,325.2336,327.887,331.901,336.982,340.295,345.0758,347.743,352.255,358.383,362.397,368.138,372.9188,375.577,379.885,385.799,391.348,399.823,405.59979999999996,408.318,411.275,417.05179999999996,419.77,425.42,428.378,434.028,440.155,443.996" svgx:width="0.83,0.48,0.4,0.48,0.55,0.48,0.56,0.5,0.29,0.6,0.5,0.33,0.48,0.61,0.55,0.33,0.4,0.55,0.88,0.55,0.33,0.58,0.48,0.55,0.29,0.58,0.61,0.48,0.44,0.33,0.29,0.55,0.58,0.55,0.6,0.55,0.29,0.58,0.33,0.42,0.55,0.55,0.33,0.55,0.33,0.58,0.48,0.55,0.44,0.55,0.55,0.29,0.29,0.58,0.56,0.55,0.4,0.5,0.33,0.48,0.55,0.44,0.6,0.4,0.56,0.48,0.55,0.42,0.58,0.55,0.83,0.58,0.55,0.29,0.58,0.55,0.56,0.29,0.56,0.6,0.4,0.48" style="fill:rgb(0,0,0);font-family:URWPalladioL-Roma;font-size:9.96px;stroke:none;">were evaluated from the inﬂection points of the cooling rate curve shown in Figure</text>
   <text y="205.924" x="451.445,456.526" svgx:width="0.5,0.5" style="fill:rgb(8,117,183);font-family:URWPalladioL-Roma;font-size:9.96px;stroke:none;">32</text>
   <text y="205.924" x="461.607,467.816,470.306,472.927,480.833,485.142,488.099,494.013,499.5906,502.244,505.557,511.471,514.428" svgx:width="0.61,0.25,0.55,0.78,0.42,0.29,0.58,0.56,0.55,0.33,0.58,0.29,0.42" style="fill:rgb(0,0,0);font-family:URWPalladioL-Roma;font-size:9.96px;stroke:none;">B. Using this</text>
   <text y="219.433" x="76.535,81.417,87.284,93.152,96.833,102.164,107.045,111.38,117.063,119.553,121.798,124.981,130.663,135.34,139.479,144.2598,146.402,151.283,157.171,160.353,166.036,171.366,175.223,179.4062,181.608,189.751,194.427,198.108,202.8888,205.03,209.912,215.311,218.152,222.9328,225.075,228.257,233.735,235.834,240.169,245.5,251.182,255.321,258.504,262.283,268.17,272.505,275.7918,277.933,282.913,285.061,291.983,298.905,304.881,307.058,313.023,315.864,320.746,326.174,330.031,334.912,343.533,346.023,349.372,355.357,361.039,365.8198,367.961,372.853,377.734,382.616,387.596,389.743,395.26,400.141,403.998,406.839,411.721,417.403,420.68980000000005,422.831,427.166,432.497,438.179,442.319,445.16,451.126,455.802,459.473,464.15,470.2256,472.371,475.212,480.98879999999997,483.14,489.661,494.338,497.589,500.079,502.276" svgx:width="0.5,0.6,0.6,0.4,0.55,0.5,0.44,0.58,0.25,0.55,0.33,0.58,0.48,0.42,0.48,0.55,0.5,0.6,0.33,0.58,0.55,0.4,0.42,0.55,0.83,0.48,0.4,0.48,0.55,0.5,0.55,0.29,0.48,0.55,0.33,0.55,0.55,0.44,0.55,0.58,0.42,0.33,0.4,0.6,0.44,0.33,0.55,0.5,0.55,0.71,0.71,0.6,0.55,0.61,0.29,0.5,0.56,0.4,0.5,0.88,0.25,0.55,0.61,0.58,0.48,0.55,0.5,0.5,0.5,0.5,0.55,0.56,0.5,0.4,0.29,0.5,0.58,0.33,0.55,0.44,0.55,0.58,0.42,0.29,0.61,0.48,0.4,0.48,0.61,0.55,0.29,0.58,0.55,0.67,0.48,0.33,0.25,0.55,0.33" style="fill:rgb(0,0,0);font-family:URWPalladioL-Roma;font-size:9.96px;stroke:none;">approach, these authors were able to construct a CCP diagram. The 6063 variant considered in Ref. [</text>
   <text y="219.433" x="505.526,510.507" svgx:width="0.5,0.5" style="fill:rgb(8,117,183);font-family:URWPalladioL-Roma;font-size:9.96px;stroke:none;">25</text>
   <text y="219.433" x="515.489" svgx:width="0.33" style="fill:rgb(0,0,0);font-family:URWPalladioL-Roma;font-size:9.96px;stroke:none;">]</text>
   <text y="232.942" x="76.535,80.914,86.299,92.04,95.255,100.186,103.057,108.797,113.521,119.5966,122.043,130.752,135.683,139.865,144.0482,146.533,149.817,153.713,158.644,163.023,166.239,169.109,174.494,180.234,184.4172,186.912,192.297,195.5838,198.076,203.008,205.474,210.405,215.337,226.117,231.295,234.155,236.645,239.116,244.048,246.513,251.445,256.376,267.157,276.487,281.971,284.461,286.932,291.863,294.329,299.261,304.192,314.963,320.446,325.2268,327.666,332.598,338.338,344.41360000000003,346.859,351.791,354.257,359.188,364.12,369.051,379.831,386.824,392.772,395.262,397.723,400.593,403.059,407.783,410.249,412.73900000000003,415.21,420.782,425.507,429.403,434.98060000000004,437.382,441.564,444.434,453.143,456.013,458.883,463.815,467.799,470.196,473.411,478.889,481.292,486.677,492.624,496.608,499.016,503.947,508.879,513.81" svgx:width="0.44,0.55,0.58,0.33,0.5,0.29,0.58,0.48,0.61,0.55,0.88,0.5,0.42,0.42,0.55,0.33,0.4,0.5,0.44,0.33,0.29,0.55,0.58,0.42,0.55,0.55,0.33,0.55,0.5,0.25,0.5,0.5,0.84,0.52,0.29,0.25,0.55,0.5,0.25,0.5,0.5,0.84,0.95,0.56,0.25,0.55,0.5,0.25,0.5,0.5,0.84,0.56,0.48,0.55,0.5,0.58,0.61,0.55,0.5,0.25,0.5,0.5,0.5,0.84,0.71,0.6,0.25,0.55,0.29,0.25,0.48,0.25,0.25,0.55,0.56,0.48,0.4,0.56,0.55,0.42,0.29,0.88,0.29,0.29,0.5,0.4,0.55,0.33,0.55,0.55,0.55,0.6,0.4,0.55,0.5,0.5,0.5,0.5" style="fill:rgb(0,0,0);font-family:URWPalladioL-Roma;font-size:9.96px;stroke:none;">contained mass fractions of 0.50%Si, 0.52%Mg, 0.21%Fe and 0.022%Cu, i.e., very similar to our 6063</text>
   <text y="246.452" x="76.256,81.778,86.665,90.525,93.369,98.256,103.944,107.2308,109.622" svgx:width="0.56,0.5,0.4,0.29,0.5,0.58,0.33,0.55,0.33" style="fill:rgb(0,0,0);font-family:URWPalladioL-Roma;font-size:9.96px;stroke:none;">variant [</text>
   <text y="246.452" x="112.875,117.856,122.838" svgx:width="0.5,0.5,0.5" style="fill:rgb(8,117,183);font-family:URWPalladioL-Roma;font-size:9.96px;stroke:none;">128</text>
   <text y="246.452" x="127.819,131.074,133.56400000000002,137.006,142.997,148.685,153.4658,155.859,162.788,169.717,175.693,178.103,184.074,186.918,191.805,197.239,201.099,205.986,214.616,218.7992,221.252,226.588,231.993,235.179,240.065,242.91,248.598,253.279,259.3546,261.743,264.587,270.36379999999997,272.767,279.296,283.977,287.231,291.375,293.865,296.311" svgx:width="0.33,0.25,0.55,0.61,0.58,0.48,0.55,0.71,0.71,0.6,0.55,0.61,0.29,0.5,0.56,0.4,0.5,0.88,0.42,0.55,0.55,0.55,0.33,0.5,0.29,0.58,0.48,0.61,0.55,0.29,0.58,0.55,0.67,0.48,0.33,0.42,0.25,0.55,0.33" style="fill:rgb(0,0,0);font-family:URWPalladioL-Roma;font-size:9.96px;stroke:none;">]. The CCP diagrams obtained in Refs. [</text>
   <text y="246.452" x="299.564,304.545" svgx:width="0.5,0.5" style="fill:rgb(8,117,183);font-family:URWPalladioL-Roma;font-size:9.96px;stroke:none;">25</text>
   <text y="246.452" x="309.526,312.81280000000004,315.273,320.159,325.847,331.9226,334.311" svgx:width="0.33,0.55,0.5,0.58,0.61,0.55,0.33" style="fill:rgb(0,0,0);font-family:URWPalladioL-Roma;font-size:9.96px;stroke:none;">] and [</text>
   <text y="246.452" x="337.563,342.544,347.526" svgx:width="0.5,0.5,0.5" style="fill:rgb(8,117,183);font-family:URWPalladioL-Roma;font-size:9.96px;stroke:none;">128</text>
   <text y="246.452" x="352.507,355.79380000000003,358.254,363.14,366.815,371.5958,373.989,378.328,383.664,392.294,398.168,403.055,406.739,411.42,417.4956,419.884,422.728,428.5048,430.908,436.342,439.186,444.62,450.514,454.188" svgx:width="0.33,0.55,0.5,0.4,0.48,0.55,0.44,0.55,0.88,0.6,0.5,0.4,0.48,0.61,0.55,0.29,0.58,0.55,0.56,0.29,0.56,0.6,0.4,0.48" style="fill:rgb(0,0,0);font-family:URWPalladioL-Roma;font-size:9.96px;stroke:none;">] are compared in Figure</text>
   <text y="246.452" x="461.362,466.249" svgx:width="0.5,0.5" style="fill:rgb(8,117,183);font-family:URWPalladioL-Roma;font-size:9.96px;stroke:none;">33</text>
   <text y="246.452" x="471.135,473.625,477.068,484.671,487.515,490.702,496.39,501.726,507.619,513.053" svgx:width="0.25,0.55,0.78,0.29,0.33,0.58,0.55,0.6,0.56,0.58" style="fill:rgb(0,0,0);font-family:URWPalladioL-Roma;font-size:9.96px;stroke:none;">. Although</text>
   <text y="259.961" x="76.535,79.848,85.762,90.5428,93.221,98.302,103.383,108.464,113.444,116.146,121.887,126.968,130.982,133.939,139.02,144.934,148.2208,150.838,153.796,159.5728,162.301" svgx:width="0.33,0.58,0.48,0.55,0.5,0.5,0.5,0.5,0.55,0.56,0.5,0.4,0.29,0.5,0.58,0.33,0.55,0.29,0.58,0.55,0.33" style="fill:rgb(0,0,0);font-family:URWPalladioL-Roma;font-size:9.96px;stroke:none;">the 6063 variant in [</text>
   <text y="259.961" x="165.686,170.667" svgx:width="0.5,0.5" style="fill:rgb(8,117,183);font-family:URWPalladioL-Roma;font-size:9.96px;stroke:none;">25</text>
   <text y="259.961" x="175.649,178.9358,181.624,185.933,191.847,197.395,205.87,210.738,216.8136,219.548,223.857,226.814,229.771,235.411,241.325,244.638,247.595,253.1726,255.846,259.23,264.311,268.62,271.933,276.8,280.784,283.405,289.096,295.224,300.091,306.005,310.517,316.431,319.815,322.772,328.686,334.895,341.023,345.535,350.402,356.4776,359.203,365.31,369.151,374.018,378.53,381.487,387.595,390.552,393.865,398.946,402.258,405.215,410.764,416.678,419.168,421.83,424.787,428.0738,430.701,435.213,440.294,446.07079999999996,448.8,454.419,459.1998,461.878,466.187,471.054,475.922,481.6988,484.427,487.74,493.654,498.735,502.02180000000004,504.649,507.962,513.876" svgx:width="0.33,0.55,0.42,0.58,0.55,0.83,0.48,0.61,0.55,0.42,0.29,0.29,0.56,0.58,0.33,0.29,0.56,0.55,0.33,0.5,0.42,0.33,0.48,0.4,0.55,0.56,0.6,0.48,0.58,0.44,0.58,0.33,0.29,0.58,0.61,0.6,0.44,0.48,0.61,0.55,0.6,0.4,0.48,0.44,0.29,0.6,0.29,0.33,0.5,0.33,0.29,0.55,0.58,0.25,0.55,0.29,0.33,0.55,0.44,0.5,0.58,0.55,0.55,0.48,0.55,0.42,0.48,0.48,0.58,0.55,0.33,0.58,0.5,0.33,0.55,0.33,0.58,0.48" style="fill:rgb(0,0,0);font-family:URWPalladioL-Roma;font-size:9.96px;stroke:none;">] showed slightly faster quench-induced precipitation, it can be seen that the</text>
   <text y="273.471" x="76.535,82.287,87.683,91.873,96.6538,99.098,102.319,107.053,115.78,121.72,126.454,130.357,135.299,138.521,144.48,148.206,152.9868,155.42,158.296,162.4792,164.977,170.561,175.295,179.199,184.7766,187.184,191.374,194.25,202.977,205.853,208.729,213.67,216.833,219.323,222.792,229.799,235.195,240.947,245.137,248.013,254.052,258.786,262.689,265.565,271.317,276.8946,279.302,282.524,288.276,293.0568,295.501,299.691,304.425,309.959,315.919,320.653,326.404,330.792,335.5728,338.017,343.413,346.69980000000004,349.185,357.407,363.465,370.1382,372.558,377.499,383.251,389.3266,391.78,397.077,403.135,409.737,412.22700000000003,414.698,417.574,420.86080000000004,423.286,427.674,432.616,438.39279999999997,440.858,446.323,451.1038,453.548,457.936,463.332,469.084,473.472,476.348,482.307,488.346,493.079,499.1546,501.599,504.82,510.572,515.514" svgx:width="0.58,0.55,0.42,0.48,0.55,0.33,0.48,0.88,0.6,0.48,0.4,0.5,0.33,0.6,0.4,0.48,0.55,0.29,0.42,0.55,0.56,0.48,0.4,0.56,0.55,0.42,0.29,0.88,0.29,0.29,0.5,0.4,0.25,0.55,0.71,0.55,0.58,0.42,0.29,0.61,0.48,0.4,0.29,0.58,0.56,0.55,0.33,0.58,0.48,0.55,0.42,0.48,0.56,0.6,0.48,0.58,0.44,0.48,0.55,0.55,0.33,0.55,0.83,0.61,0.67,0.55,0.5,0.58,0.61,0.55,0.61,0.61,0.67,0.25,0.55,0.29,0.33,0.55,0.44,0.5,0.58,0.55,0.55,0.48,0.55,0.44,0.55,0.58,0.44,0.29,0.6,0.61,0.48,0.61,0.55,0.33,0.58,0.5,0.33" style="fill:rgb(0,0,0);font-family:URWPalladioL-Roma;font-size:9.96px;stroke:none;">nose temperature is very similar. Considering the sequence of HTR and LTR, it can be concluded that</text>
   <text y="286.98" x="76.535,79.728,85.427,90.2078,92.606,100.186,105.327,112.3986,114.758,120.742,125.638,128.831,133.81099999999998,136.215,141.112,144.804,149.5848,151.972,160.62,166.525,170.873,176.6498,179.06,187.708,193.055,196.747,201.5278,203.925,209.909,214.6,217.793,222.689,225.539,228.389,233.08,239.064,241.554,243.999,248.896,254.596,260.6716,263.067,267.415,272.762,278.295,282.986,286.96999999999997,289.342,294.322,296.726,300.879,306.784,312.199,316.352,319.544,324.441,330.141,333.333,336.183,341.08,343.93,346.779,352.3566,354.712,362.879,365.729,371.713,376.404,380.388,382.76,387.108,392.455,397.802,400.642,403.492,409.192,414.7696,417.124,420.993,425.889,429.082,433.8628,436.26,440.128,445.025,450.725,456.17,460.861,463.351,466.795,472.799,478.498,483.2788,485.677,490.573,496.479,499.671,505.371,510.718,514.586" svgx:width="0.33,0.58,0.48,0.55,0.77,0.52,0.71,0.55,0.61,0.5,0.33,0.5,0.55,0.5,0.4,0.48,0.55,0.88,0.6,0.44,0.58,0.55,0.88,0.55,0.4,0.48,0.55,0.61,0.48,0.33,0.5,0.29,0.29,0.48,0.61,0.25,0.55,0.5,0.58,0.61,0.55,0.44,0.55,0.56,0.48,0.4,0.55,0.5,0.55,0.42,0.6,0.55,0.42,0.33,0.5,0.58,0.33,0.29,0.5,0.29,0.29,0.56,0.55,0.83,0.29,0.61,0.48,0.4,0.55,0.44,0.55,0.55,0.29,0.29,0.58,0.56,0.55,0.4,0.5,0.33,0.48,0.55,0.4,0.5,0.58,0.56,0.48,0.25,0.55,0.61,0.58,0.48,0.55,0.5,0.6,0.33,0.58,0.55,0.4,0.42" style="fill:rgb(0,0,0);font-family:URWPalladioL-Roma;font-size:9.96px;stroke:none;">the DSC data are much more detailed, and cover a substantially wider cooling rate range. The authors</text>
   <text y="300.489" x="76.535,81.958,85.2448,87.749,94.384,99.142,102.449,104.939,107.426" svgx:width="0.55,0.33,0.55,0.67,0.48,0.33,0.25,0.55,0.33" style="fill:rgb(0,0,0);font-family:URWPalladioL-Roma;font-size:9.96px;stroke:none;">of Ref. [</text>
   <text y="300.489" x="110.733,115.714" svgx:width="0.5,0.5" style="fill:rgb(8,117,183);font-family:URWPalladioL-Roma;font-size:9.96px;stroke:none;">25</text>
   <text y="300.489" x="120.695,123.98179999999999,126.486,129.793,135.217,141.206,146.987,153.0626,155.549,158.787,164.568,169.3488,171.809,179.536,186.579,193.621,200.29420000000002,202.749,208.172,211.4588,213.963,218.93,223.896,228.862,233.84199999999998,236.322,239.56,245.038,247.466,252.959" svgx:width="0.33,0.55,0.33,0.55,0.6,0.58,0.61,0.55,0.33,0.58,0.48,0.55,0.78,0.71,0.71,0.67,0.55,0.55,0.33,0.55,0.5,0.5,0.5,0.5,0.55,0.33,0.55,0.55,0.55,0.48" style="fill:rgb(0,0,0);font-family:URWPalladioL-Roma;font-size:9.96px;stroke:none;">] found the UCCR of 6063 to be</text>
   <text y="300.489" x="260.207" svgx:width="0.67" style="fill:rgb(0,0,0);font-family:Pxsy;font-size:9.96px;stroke:none;">≈</text>
   <text y="300.489" x="266.872,271.838,276.81800000000004,279.288" svgx:width="0.5,0.5,0.55,0.73" style="fill:rgb(0,0,0);font-family:URWPalladioL-Roma;font-size:9.96px;stroke:none;">10 K</text>
   <text y="300.489" x="286.503" svgx:width="0.29" style="fill:rgb(0,0,0);font-family:Rpxr;font-size:9.96px;stroke:none;">/</text>
   <text y="300.489" x="289.354,293.5372,296.049" svgx:width="0.42,0.55,0.33" style="fill:rgb(0,0,0);font-family:URWPalladioL-Roma;font-size:9.96px;stroke:none;">s [</text>
   <text y="300.489" x="299.361,304.342" svgx:width="0.5,0.5" style="fill:rgb(8,117,183);font-family:URWPalladioL-Roma;font-size:9.96px;stroke:none;">25</text>
   <text y="300.489" x="309.323,312.631,315.121,317.607,325.891,331.672,334.562,337.452,342.2328,344.693,347.584,353.3608,355.848,362.483,367.241,370.548,373.038,375.525" svgx:width="0.33,0.25,0.55,0.83,0.58,0.29,0.29,0.48,0.55,0.29,0.58,0.55,0.67,0.48,0.33,0.25,0.55,0.33" style="fill:rgb(0,0,0);font-family:URWPalladioL-Roma;font-size:9.96px;stroke:none;">], while in Ref. [</text>
   <text y="300.489" x="378.831,383.812,388.794" svgx:width="0.5,0.5,0.5" style="fill:rgb(8,117,183);font-family:URWPalladioL-Roma;font-size:9.96px;stroke:none;">128</text>
   <text y="300.489" x="393.775,397.0618,399.566,404.532,410.30879999999996,412.806,420.534,427.576,434.618,441.2912,443.737,449.16,452.44680000000005,454.961,460.384,466.165,469.055,474.6326,477.061,482.041,484.52" svgx:width="0.33,0.55,0.5,0.58,0.55,0.78,0.71,0.71,0.67,0.55,0.55,0.33,0.55,0.55,0.58,0.29,0.56,0.55,0.5,0.55,0.73" style="fill:rgb(0,0,0);font-family:URWPalladioL-Roma;font-size:9.96px;stroke:none;">] an UCCR of only 1 K</text>
   <text y="300.489" x="491.729" svgx:width="0.29" style="fill:rgb(0,0,0);font-family:Rpxr;font-size:9.96px;stroke:none;">/</text>
   <text y="300.489" x="494.579,498.7622,501.274,509.558,514.524" svgx:width="0.42,0.55,0.83,0.5,0.42" style="fill:rgb(0,0,0);font-family:URWPalladioL-Roma;font-size:9.96px;stroke:none;">s was</text>
   <text y="313.999" x="76.535,79.813,85.187,91.122,96.851,102.865,105.35499999999999,108.82,114.854,120.583,125.3638,127.788,133.516,136.381,141.853,147.582,152.297,156.281,158.675,166.333,173.312,180.291,186.9642,189.356,194.73,198.0168,200.508,203.717,209.446,214.2268,216.651,221.572,226.494,231.415,236.39499999999998,238.827,244.389,249.31,253.198,256.062,260.984,266.713,269.99980000000005,272.412,277.333,283.062,287.983,290.848,296.32,300.494,305.209,311.2846,313.723,316.587,322.36379999999997,324.806,331.381,336.096,339.374,341.86400000000003,344.325" svgx:width="0.33,0.55,0.6,0.58,0.61,0.25,0.55,0.61,0.58,0.48,0.55,0.58,0.29,0.56,0.58,0.48,0.4,0.55,0.78,0.71,0.71,0.67,0.55,0.55,0.33,0.55,0.33,0.58,0.48,0.55,0.5,0.5,0.5,0.5,0.55,0.56,0.5,0.4,0.29,0.5,0.58,0.33,0.55,0.5,0.58,0.5,0.29,0.56,0.42,0.48,0.61,0.55,0.29,0.58,0.55,0.67,0.48,0.33,0.25,0.55,0.33" style="fill:rgb(0,0,0);font-family:URWPalladioL-Roma;font-size:9.96px;stroke:none;">found. The higher UCCR of the 6063 variant analysed in Ref. [</text>
   <text y="313.999" x="347.602,352.583" svgx:width="0.5,0.5" style="fill:rgb(8,117,183);font-family:URWPalladioL-Roma;font-size:9.96px;stroke:none;">25</text>
   <text y="313.999" x="357.565,360.8518,363.333,367.703,373.078,381.769,387.685,392.606,396.317,401.032,407.1076,409.536,412.745,418.223,420.61,423.819,429.547,434.469,437.7558,440.178,445.552,448.83880000000005,451.32,457.895,462.61,465.888,468.378,470.839" svgx:width="0.33,0.55,0.44,0.55,0.88,0.6,0.5,0.4,0.48,0.61,0.55,0.33,0.55,0.55,0.33,0.58,0.5,0.33,0.55,0.55,0.33,0.55,0.67,0.48,0.33,0.25,0.55,0.33" style="fill:rgb(0,0,0);font-family:URWPalladioL-Roma;font-size:9.96px;stroke:none;">] compared to that of Ref. [</text>
   <text y="313.999" x="474.117,479.098,484.08" svgx:width="0.5,0.5,0.5" style="fill:rgb(8,117,183);font-family:URWPalladioL-Roma;font-size:9.96px;stroke:none;">128</text>
   <text y="313.999" x="489.061,492.3478,494.829,499.751,505.223,510.145,513.009" svgx:width="0.33,0.55,0.5,0.56,0.5,0.29,0.58" style="fill:rgb(0,0,0);font-family:URWPalladioL-Roma;font-size:9.96px;stroke:none;">] again</text>
   <text y="327.508" x="76.535,80.844,86.758,92.306,100.781,104.9642,107.691,111.004,116.918,121.999,125.2858,127.913,131.226,137.14,141.92079999999999,144.609,150.3,156.427,161.295,167.209,171.721,177.4978,180.237,184.545,189.413,195.327,199.636,202.593,205.906,208.863,214.604,217.561,220.874,226.45159999999998,229.125,234.674,237.9608,240.659,246.868" svgx:width="0.42,0.58,0.55,0.83,0.42,0.55,0.33,0.58,0.5,0.33,0.55,0.33,0.58,0.48,0.55,0.56,0.6,0.48,0.58,0.44,0.58,0.55,0.42,0.48,0.58,0.42,0.29,0.33,0.29,0.56,0.29,0.33,0.56,0.55,0.55,0.33,0.55,0.61,0.29" style="fill:rgb(0,0,0);font-family:URWPalladioL-Roma;font-size:9.96px;stroke:none;">shows that the quench sensitivity of di</text>
   <text y="327.508" x="249.827" svgx:width="0.61" style="fill:rgb(0,0,0);font-family:Rpxr;font-size:9.96px;stroke:none;">ﬀ</text>
   <text y="327.508" x="256.005,260.873,264.704,269.571,275.485,278.77180000000004,281.399,287.019,292.1,295.413,299.925,305.839,310.706,314.8892,317.616,323.165,326.45180000000005,329.15,334.231,337.188,340.145,345.694,351.344,355.5272,358.254,361.566,367.481,372.561,375.8478,378.486,383.567,387.398,392.1788,394.867,400.781,406.329,415.302,418.259,424.174,429.254,432.212,435.169,440.7466,443.42,446.733,452.647,457.4278,460.116,464.425,469.506,478.478,483.2588,485.947,494.92,500.001,505.5786,508.253,513.872" svgx:width="0.48,0.4,0.48,0.58,0.33,0.55,0.55,0.5,0.33,0.44,0.58,0.48,0.42,0.55,0.55,0.33,0.55,0.5,0.29,0.29,0.55,0.56,0.42,0.55,0.33,0.58,0.5,0.33,0.55,0.5,0.4,0.48,0.55,0.58,0.55,0.88,0.29,0.58,0.5,0.29,0.29,0.56,0.55,0.33,0.58,0.48,0.55,0.42,0.5,0.88,0.48,0.55,0.88,0.5,0.56,0.55,0.55,0.48" style="fill:rgb(0,0,0);font-family:URWPalladioL-Roma;font-size:9.96px;stroke:none;">erent batches of alloys that are nominally the same may be</text>
   <text y="341.018" x="76.535,80.759,86.767,92.276,96.5,99.748,104.729,110.527,113.775,116.674,121.656,124.555,127.454,133.0316,135.484,141.571" svgx:width="0.42,0.6,0.55,0.42,0.33,0.5,0.58,0.33,0.29,0.5,0.29,0.29,0.56,0.55,0.61,0.29" style="fill:rgb(0,0,0);font-family:URWPalladioL-Roma;font-size:9.96px;stroke:none;">substantially di</text>
   <text y="341.018" x="144.47" svgx:width="0.61" style="fill:rgb(0,0,0);font-family:Rpxr;font-size:9.96px;stroke:none;">ﬀ</text>
   <text y="341.018" x="150.527,155.299,159.055,163.827,169.625,172.873" svgx:width="0.48,0.4,0.48,0.58,0.33,0.25" style="fill:rgb(0,0,0);font-family:URWPalladioL-Roma;font-size:9.96px;stroke:none;">erent.</text>
   <text y="354.527" x="97.795,105.445,109.62819999999999,112.122,116.488,121.404,127.18079999999999,129.625,135.062,139.8428,142.28,146.449,151.159,155.869,161.6458,164.09,167.364,171.071,176.44,187.63,193.097,195.959,201.426,207.355,211.062" svgx:width="0.78,0.42,0.55,0.44,0.5,0.58,0.55,0.55,0.48,0.55,0.42,0.48,0.48,0.58,0.55,0.33,0.4,0.55,0.88,0.56,0.29,0.56,0.6,0.4,0.48" style="fill:rgb(0,0,0);font-family:URWPalladioL-Roma;font-size:9.96px;stroke:none;">As can be seen fromFigure</text>
   <text y="354.527" x="218.27,223.187" svgx:width="0.5,0.5" style="fill:rgb(8,117,183);font-family:URWPalladioL-Roma;font-size:9.96px;stroke:none;">31</text>
   <text y="354.527" x="228.103,230.59300000000002,233.069,236.274,241.997,246.7778,249.215,252.42,260.621,266.099,268.488,271.349,276.265,281.703,287.072,290.956,295.873,299.078,304.447,308.331,313.90860000000004,316.306,321.222,324.084,326.945,332.314,337.781,341.9642,344.458,352.108,354.969,359.886,362.344,367.261,376.563,382.03,386.947,389.405,394.321,399.484,402.37239999999997,404.843,409.759,415.482,421.55760000000004,423.998,431.648,434.509,439.426,441.884,446.801,456.103,461.57,466.486,468.945,473.861,479.024,481.9124,484.383,487.657,493.026,496.91,508.1,513.017" svgx:width="0.25,0.55,0.33,0.58,0.48,0.55,0.33,0.83,0.55,0.55,0.29,0.5,0.55,0.55,0.4,0.5,0.33,0.55,0.4,0.56,0.55,0.5,0.29,0.29,0.55,0.56,0.42,0.55,0.78,0.29,0.5,0.25,0.5,0.95,0.56,0.5,0.25,0.5,0.52,0.29,0.55,0.5,0.58,0.61,0.55,0.78,0.29,0.5,0.25,0.5,0.95,0.56,0.5,0.25,0.5,0.52,0.29,0.55,0.33,0.55,0.4,0.88,0.5,0.58" style="fill:rgb(0,0,0);font-family:URWPalladioL-Roma;font-size:9.96px;stroke:none;">, the two laboratory alloys Al0.6Mg0.8Si and Al0.8Mg0.6Si forman</text>
   <text y="368.036" x="76.535,81.288,86.408,90.814,95.567,101.53,104.765,107.653,113.071,118.84779999999999,121.346,124.234,130.0108,132.499,135.734,140.487,144.407,153.168,157.3512,159.876,165.294,168.5808,171.099,174.334,180.109,184.862,187.749,191.733,194.159,201.879,208.914,215.95,222.578,225.068,227.559,230.794,236.569,241.322,246.8996,249.34,255.115,260.076,265.682,270.4628,272.926,281.688,287.671,292.077,297.8538,300.353,303.24,308.658,316.933,321.686,325.66999999999996,328.106,333.713,338.674,341.562,347.545,352.298,356.4812,358.996,363.402,368.819,377.581,383.545,388.506,392.247,397.0,403.0756,405.563,408.798,414.276,416.716,421.122,426.54,435.302,444.064,448.817,452.548,456.953,459.841,464.802,467.6904,470.19,475.151,478.039,480.927,486.344,491.861,496.0442,498.569,506.845,509.732,512.967" svgx:width="0.48,0.52,0.44,0.48,0.6,0.33,0.29,0.55,0.58,0.55,0.29,0.58,0.55,0.33,0.48,0.4,0.88,0.42,0.55,0.55,0.33,0.55,0.33,0.58,0.48,0.29,0.4,0.55,0.78,0.71,0.71,0.67,0.25,0.55,0.33,0.58,0.48,0.56,0.55,0.58,0.5,0.56,0.48,0.55,0.88,0.6,0.44,0.58,0.55,0.29,0.55,0.83,0.48,0.4,0.55,0.56,0.5,0.29,0.6,0.48,0.42,0.55,0.44,0.55,0.88,0.6,0.5,0.4,0.48,0.61,0.55,0.33,0.55,0.55,0.44,0.55,0.88,0.88,0.48,0.4,0.44,0.29,0.5,0.29,0.55,0.5,0.29,0.29,0.55,0.56,0.42,0.55,0.83,0.29,0.33,0.58" style="fill:rgb(0,0,0);font-family:URWPalladioL-Roma;font-size:9.96px;stroke:none;">exception in terms of their UCCR: they have much lower values compared to commercial alloys with</text>
   <text y="381.546" x="76.535,80.87,86.201,94.822,100.69,105.571,109.428,114.309,119.709,122.55,127.3308,129.648,138.884,144.46159999999998,146.743,151.625,157.307,163.3826,165.694,170.82,173.70839999999998,176.082,180.417,185.748,191.43,194.613,199.29,204.972,208.155,212.294,214.78400000000002,218.201,224.186,229.868,232.71,236.8932,239.28,242.121,246.3042,248.682,254.648,260.535,265.3158,267.633,270.816,276.294,278.578,281.761,287.443,292.2238,294.541,298.68,304.568,309.967,314.107,317.289,322.171,327.853,331.036,333.877,338.759,341.6,344.441,350.0186,352.291,355.132,360.463,368.606,373.282,377.26599999999996,379.56,383.895,389.226,394.908,399.243,403.92,409.602,412.785,416.641,421.523,424.706,427.547,432.878,438.65479999999997,440.991,446.322,449.60880000000003,451.994,457.677,463.564,467.899,470.74,475.417,480.298,483.481,486.322,491.653,497.4298,499.757,503.896,506.737,509.92,514.597" svgx:width="0.44,0.55,0.88,0.6,0.5,0.4,0.5,0.55,0.29,0.48,0.55,0.95,0.56,0.55,0.5,0.58,0.61,0.55,0.52,0.29,0.55,0.44,0.55,0.58,0.33,0.48,0.58,0.33,0.42,0.25,0.55,0.61,0.58,0.29,0.42,0.55,0.29,0.42,0.55,0.61,0.6,0.48,0.55,0.33,0.55,0.55,0.33,0.58,0.48,0.55,0.42,0.6,0.55,0.42,0.33,0.5,0.58,0.33,0.29,0.5,0.29,0.29,0.56,0.55,0.29,0.55,0.83,0.48,0.4,0.55,0.44,0.55,0.58,0.44,0.48,0.58,0.33,0.4,0.5,0.33,0.29,0.55,0.58,0.55,0.55,0.33,0.55,0.58,0.6,0.44,0.29,0.48,0.5,0.33,0.29,0.55,0.58,0.55,0.42,0.29,0.33,0.48,0.42" style="fill:rgb(0,0,0);font-family:URWPalladioL-Roma;font-size:9.96px;stroke:none;">comparable Mg and Si contents. This is due to the substantially lower concentration of nucleation sites</text>
   <text y="395.055" x="76.535,79.853,85.292,89.276,91.718,97.297,103.305,108.077,113.875,118.298,124.096,127.414,130.313,136.111,142.198,148.206,152.629,157.401,163.47660000000002,165.979,171.967,175.723,180.495,184.918,187.817,193.805,196.704,199.952,204.933,208.181,211.08,216.519,222.318,224.80800000000002,227.299,232.28,236.4632,238.995,245.082,249.854,258.651,264.091,269.889,274.113,277.361,281.296,286.278,289.525,294.297,300.37260000000003,302.875,308.385,313.157,316.056,321.495,328.888" svgx:width="0.33,0.55,0.4,0.55,0.56,0.6,0.48,0.58,0.44,0.58,0.33,0.29,0.58,0.61,0.6,0.44,0.48,0.61,0.55,0.6,0.4,0.48,0.44,0.29,0.6,0.29,0.33,0.5,0.33,0.29,0.55,0.58,0.25,0.55,0.5,0.42,0.55,0.61,0.48,0.88,0.55,0.58,0.42,0.33,0.4,0.5,0.33,0.48,0.61,0.55,0.55,0.48,0.29,0.55,0.83,0.25" style="fill:rgb(0,0,0);font-family:URWPalladioL-Roma;font-size:9.96px;stroke:none;">for quench-induced precipitation, as demonstrated below.</text>
   <text y="408.565" x="97.795,103.384,108.873,112.857,115.336,119.598,124.413,130.093,134.908,138.879,143.905,146.7934,149.323,157.144,160.069,169.578,175.167,180.445,183.33339999999998,185.863,190.889,193.814,196.739,202.228,207.817,212.079,214.56900000000002,217.085,224.866,230.143,237.2146,239.763,242.688,248.539,254.681,257.606,262.069,267.095,270.372,275.187,279.3702,281.942,285.219,291.07,295.8508,298.378,302.64,308.701,314.743,319.558,323.529,329.57,335.059,339.321,342.246,345.523,348.448,353.937,359.7138,362.28,367.768,371.0548,373.599,377.861,382.676,388.356,393.171,397.141,402.167,405.05539999999996,407.585,416.462,419.387,423.85,427.65,433.138,437.4,440.677,444.568,450.629,455.092,458.369,464.431,468.402,473.428,476.3164,478.846,482.636,487.451,492.477,496.94,500.217,503.142,508.631,514.481" svgx:width="0.56,0.55,0.4,0.55,0.42,0.48,0.56,0.48,0.4,0.5,0.29,0.55,0.78,0.29,0.95,0.56,0.52,0.29,0.55,0.5,0.29,0.29,0.55,0.56,0.42,0.25,0.55,0.77,0.52,0.71,0.55,0.29,0.58,0.61,0.29,0.44,0.5,0.33,0.48,0.42,0.55,0.33,0.58,0.48,0.55,0.42,0.6,0.6,0.48,0.4,0.6,0.55,0.42,0.29,0.33,0.29,0.55,0.58,0.55,0.55,0.33,0.55,0.42,0.48,0.56,0.48,0.4,0.5,0.29,0.55,0.88,0.29,0.44,0.4,0.55,0.42,0.33,0.4,0.6,0.44,0.33,0.6,0.4,0.5,0.29,0.55,0.4,0.48,0.5,0.44,0.33,0.29,0.55,0.58,0.42" style="fill:rgb(0,0,0);font-family:URWPalladioL-Roma;font-size:9.96px;stroke:none;">For several AlMgSi alloys, DSC indicates the superposition of several microstructural reactions</text>
   <text y="422.074" x="76.535,81.934,86.611,92.293,96.97,101.851,105.034,110.8108,112.943,116.125,121.808,126.5888,128.701,136.824,142.809,149.331,153.5142,155.696,160.578,166.26,172.3356,174.452,179.675,185.66,192.182,196.322,198.812,202.16,208.145,213.827,216.668,220.8512,223.034,225.875,230.0582,232.231,236.908,241.946,246.622,255.243,261.111,263.952,266.793,272.7,277.377,283.4526,285.568,290.967,296.5446,298.622,304.05,306.891,312.32,318.207,321.878" svgx:width="0.55,0.48,0.58,0.48,0.5,0.33,0.58,0.55,0.33,0.58,0.48,0.55,0.83,0.61,0.67,0.42,0.55,0.5,0.58,0.61,0.55,0.61,0.61,0.67,0.42,0.25,0.55,0.61,0.58,0.29,0.42,0.55,0.29,0.42,0.55,0.48,0.52,0.48,0.88,0.6,0.29,0.29,0.61,0.48,0.61,0.55,0.55,0.56,0.55,0.56,0.29,0.56,0.6,0.4,0.48" style="fill:rgb(0,0,0);font-family:URWPalladioL-Roma;font-size:9.96px;stroke:none;">beneath the HTRs and LTRs. This is exempliﬁed by Figure</text>
   <text y="422.074" x="328.781,333.663" svgx:width="0.5,0.5" style="fill:rgb(8,117,183);font-family:URWPalladioL-Roma;font-size:9.96px;stroke:none;">34</text>
   <text y="422.074" x="340.77,344.021,349.352,353.33599999999996,355.425,360.307,365.188,370.07,374.952,377.442,379.668,384.549,390.231,396.3066,398.423,402.758,407.64,413.41679999999997,415.548,420.947,425.7278,427.84,432.722,435.563,439.702,445.18,447.259,451.399,456.075,460.752,466.5288,468.66,471.912,477.242,481.226,483.315,486.156,491.839,495.978,499.161,504.043,509.725,514.06" svgx:width="0.33,0.55,0.4,0.55,0.5,0.5,0.5,0.5,0.25,0.55,0.5,0.58,0.61,0.55,0.44,0.5,0.58,0.55,0.55,0.48,0.55,0.5,0.29,0.42,0.55,0.55,0.42,0.48,0.48,0.58,0.55,0.33,0.55,0.4,0.55,0.29,0.58,0.42,0.33,0.5,0.58,0.44,0.48" style="fill:rgb(0,0,0);font-family:URWPalladioL-Roma;font-size:9.96px;stroke:none;">for 6063, and can be also seen for instance</text>
   <text y="435.583" x="76.535,79.434,85.21079999999999,87.723,93.262,96.161,101.701,107.708,111.464" svgx:width="0.29,0.58,0.55,0.56,0.29,0.56,0.6,0.4,0.48" style="fill:rgb(0,0,0);font-family:URWPalladioL-Roma;font-size:9.96px;stroke:none;">in Figure</text>
   <text y="435.583" x="118.727,126.478" svgx:width="0.78,0.5" style="fill:rgb(8,117,183);font-family:URWPalladioL-Roma;font-size:9.96px;stroke:none;">A1</text>
   <text y="435.583" x="131.459,136.081,138.572,146.174,148.66400000000002,151.155,156.136,161.934,168.0096,170.512,176.051,178.95,184.49,188.714,191.204,194.691,199.673,204.654,209.635,214.617,219.59699999999998,222.088,224.988,230.7648,233.276,239.931,244.704,248.021,250.511,253.002" svgx:width="0.56,0.25,0.76,0.25,0.55,0.5,0.58,0.61,0.55,0.56,0.29,0.56,0.42,0.25,0.55,0.5,0.5,0.5,0.5,0.5,0.55,0.29,0.58,0.55,0.67,0.48,0.33,0.25,0.55,0.33" style="fill:rgb(0,0,0);font-family:URWPalladioL-Roma;font-size:9.96px;stroke:none;">F,G, and Figs. 40–41 in Ref. [</text>
   <text y="435.583" x="256.32,261.301,266.283" svgx:width="0.5,0.5,0.5" style="fill:rgb(8,117,183);font-family:URWPalladioL-Roma;font-size:9.96px;stroke:none;">116</text>
   <text y="435.583" x="271.264,274.581" svgx:width="0.33,0.25" style="fill:rgb(0,0,0);font-family:URWPalladioL-Roma;font-size:9.96px;stroke:none;">].</text>
  </g>
  <g begin="text">
   <text y="443.824" x="85.707" svgx:width="0.25" style="fill:rgb(0,0,0);font-family:Palatino Linotype,Italic;font-size:7.88px;stroke:none;"> </text>
  </g>
  <g begin="text">
   <text y="1164.101" x="297.53,302.469" svgx:width="0.5,0.5" style="fill:rgb(0,0,0);font-family:Palatino Linotype;font-size:9.76px;stroke:none;">21</text>
  </g>
  <g begin="text">
   <text y="1164.101" x="307.291" svgx:width="0.25" style="fill:rgb(0,0,0);font-family:Palatino Linotype;font-size:9.76px;stroke:none;"> </text>
  </g>
  <g begin="text">
   <text y="615.187" x="519.138" svgx:width="0.25" style="fill:rgb(0,0,0);font-family:Palatino Linotype;font-size:8.82px;stroke:none;"> </text>
  </g>
  <g begin="text">
   <text y="632.356" x="85.707" svgx:width="0.25" style="fill:rgb(0,0,0);font-family:Palatino Linotype;font-size:9.76px;stroke:none;"> </text>
  </g>
  <g begin="text">
   <text y="632.356" x="226.853" svgx:width="0.25" style="fill:rgb(0,0,0);font-family:Palatino Linotype;font-size:8.82px;stroke:none;"> </text>
  </g>
  <path style="fill:rgb(255,255,255);stroke:none;stroke-width:1.0;" d="M434.010 331.240 L442.830 331.240 L442.830 344.280 L434.010 344.280 L434.010 331.240 "/>
  <g begin="text">
   <text y="506.412" x="434.349" svgx:width="0.67" style="fill:rgb(255,0,0);font-family:Arial;font-size:9.6px;stroke:none;">P</text>
  </g>
  <g begin="text">
   <text y="509.046" x="440.77" svgx:width="0.28" style="fill:rgb(255,0,0);font-family:Arial;font-size:6.52px;stroke:none;">f</text>
  </g>
  <path style="fill:rgb(255,255,255);stroke:none;stroke-width:0.57;" d="M457.160 304.480 L467.480 304.480 L467.480 317.520 L457.160 317.520 L457.160 304.480 "/>
  <g begin="text">
   <text y="533.174" x="457.506" svgx:width="0.67" style="fill:rgb(255,0,0);font-family:Arial;font-size:9.6px;stroke:none;">P</text>
  </g>
  <g begin="text">
   <text y="535.809" x="463.927" svgx:width="0.5" style="fill:rgb(255,0,0);font-family:Arial;font-size:6.52px;stroke:none;">s</text>
  </g>
  <path style="fill:none;stroke:rgb(0,0,0);stroke-width:0.57;" d="M498.310 485.710 L498.310 486.280 L498.310 486.280 L498.310 486.400 L498.200 486.400 L498.200 486.510 L498.200 486.630 L498.200 486.630 L498.200 486.740 L498.200 486.860 L498.200 486.860 L498.200 486.970 L498.200 487.080 L498.200 487.200 L498.200 487.200 L498.200 487.310 L498.200 487.430 L498.200 487.540 L498.200 487.660 L498.200 487.660 L498.200 487.770 L498.200 487.880 L498.080 488.000 L498.080 488.110 L498.080 488.230 L498.080 488.230 L498.080 488.340 L498.080 488.460 L498.080 488.570 L498.080 488.680 L498.080 488.800 L498.080 488.920 L498.080 489.030 L498.080 489.150 L498.080 489.260 L498.080 489.490 L498.080 489.600 L498.080 489.720 L497.970 489.830 L497.970 489.950 L497.970 490.060 L497.970 490.170 L497.970 490.290 L497.970 490.400 L497.970 490.520 L497.970 490.630 L497.970 490.750 L497.970 490.860 L497.970 491.090 L497.970 491.200 L497.970 491.200 L497.970 491.320 L497.970 491.430 L497.970 491.550 L497.970 491.660 L497.850 491.770 L497.850 491.890 L497.850 492.000 L497.850 492.000 L497.850 492.120 L497.850 492.230 L497.850 492.350 L497.850 492.460 L497.850 492.570 L497.850 492.690 L497.850 492.800 L497.850 492.920 L497.850 493.030 L497.740 493.150 L497.740 493.260 L497.740 493.370 L497.740 493.490 L497.740 493.600 L497.740 493.720 L497.740 493.830 L497.740 493.950 L497.740 493.950 L497.630 494.060 L497.630 494.170 L497.630 494.290 L497.630 494.400 L497.630 494.520 L497.630 494.630 L497.630 494.750 L497.510 494.860 L497.510 494.970 L497.510 495.090 L497.510 495.210 L497.510 495.210 L497.510 495.320 L497.400 495.440 L497.400 495.550 L497.400 495.670 L497.400 495.780 L497.400 495.890 L497.400 496.010 L497.400 496.120 L497.280 496.240 L497.280 496.240 L497.280 496.350 L497.280 496.470 L497.280 496.580 L497.280 496.690 L497.170 496.810 L497.170 496.920 L497.170 497.040 L497.170 497.150 L497.170 497.270 L497.170 497.380 L497.170 497.380 L497.050 497.490 L497.050 497.610 L497.050 497.720 L497.050 497.840 L497.050 497.950 L497.050 498.070 L497.050 498.180 L497.050 498.290 L497.050 498.410 L496.940 498.520 L496.940 498.640 L496.940 498.750 L496.940 498.870 L496.940 498.980 L496.940 499.090 L496.940 499.210 L496.940 499.320 L496.940 499.320 L496.940 499.440 L496.940 499.550 L496.820 499.670 L496.820 499.780 L496.820 499.890 L496.820 500.010 L496.820 500.120 L496.820 500.240 L496.820 500.350 L496.820 500.470 L496.820 500.580 L496.820 500.690 L496.820 500.810 L496.820 500.920 L496.710 501.040 L496.710 501.150 L496.710 501.270 L496.710 501.380 L496.710 501.490 L496.710 501.610 L496.710 501.730 L496.710 501.840 L496.710 501.950 L496.710 502.070 L496.710 502.180 L496.590 502.300 L496.590 502.410 L496.590 502.530 L496.590 502.640 L496.590 502.750 L496.590 502.870 L496.590 502.980 L496.590 503.100 L496.590 503.210 L496.590 503.330 L496.480 503.440 L496.480 503.550 L496.480 503.670 L496.480 503.780 L496.480 503.900 L496.480 504.010 L496.480 504.130 L496.480 504.240 L496.370 504.350 L496.370 504.470 L496.370 504.580 L496.370 504.700 L496.370 504.810 L496.370 504.930 L496.370 505.040 L496.370 505.040 L496.370 505.150 L496.250 505.270 L496.250 505.380 L496.250 505.500 L496.250 505.610 L496.250 505.730 L496.250 505.840 L496.250 505.950 L496.250 506.070 L496.250 506.070 L496.140 506.180 L496.140 506.300 L496.140 506.410 L496.140 506.530 L496.140 506.640 L496.140 506.750 L496.140 506.870 L496.140 506.980 L496.140 507.100 L496.140 507.210 L496.140 507.210 L496.140 507.330 L496.020 507.440 L496.020 507.550 L496.020 507.670 L496.020 507.780 L496.020 507.900 L496.020 508.010 L496.020 508.130 L496.020 508.250 L496.020 508.360 L496.020 508.470 L496.020 508.590 L496.020 508.700 L496.020 508.820 L496.020 508.930 L496.020 509.050 L496.020 509.160 L496.020 509.270 L496.020 509.390 L496.020 509.500 L496.020 509.620 L496.020 509.730 L496.020 509.850 L496.020 509.960 L496.020 510.070 L495.910 510.190 L495.910 510.300 L495.910 510.420 L495.910 510.530 L495.910 510.650 L495.910 510.760 L495.910 510.870 L495.910 510.990 L495.910 511.100 L495.910 511.220 L495.910 511.330 L495.910 511.450 L495.790 511.560 L495.790 511.670 L495.790 511.790 L495.790 511.900 L495.790 511.900 L495.790 512.020 L495.790 512.130 L495.790 512.250 L495.680 512.360 L495.680 512.470 L495.680 512.590 L495.680 512.700 L495.680 512.820 L495.680 512.930 L495.680 513.050 L495.560 513.160 L495.560 513.270 L495.560 513.390 L495.560 513.500 L495.560 513.620 L495.560 513.730 L495.450 513.730 L495.450 513.850 L495.450 513.960 L495.450 514.070 L495.450 514.190 L495.450 514.300 L495.330 514.420 L495.330 514.530 L495.330 514.650 L495.330 514.650 L495.330 514.760 L495.330 514.880 L495.220 514.990 L495.220 515.110 L495.220 515.220 L495.220 515.340 L495.220 515.450 L495.220 515.450 L495.100 515.560 L495.100 515.680 L495.100 515.790 L495.100 515.910 L495.100 516.020 L495.100 516.020 L494.990 516.140 L494.990 516.250 L494.990 516.360 L494.990 516.480 L494.990 516.590 L494.990 516.590 L494.990 516.710 L494.990 516.820 L494.870 516.940 L494.870 517.050 L494.870 517.160 L494.870 517.280 L494.870 517.510 L494.870 517.620 L494.870 517.740 L494.870 517.850 L494.870 517.960 L494.870 518.080 L494.760 518.190 L494.760 518.310 L494.760 518.420 L494.760 518.540 L494.760 518.650 L494.760 518.760 L494.760 518.880 L494.760 518.990 L494.760 519.110 L494.760 519.220 L494.760 519.340 L494.760 519.450 L494.760 519.560 L494.640 519.680 L494.640 519.790 L494.640 519.910 L494.640 519.910 L494.640 520.020 L494.640 520.140 L494.640 520.250 L494.640 520.360 L494.640 520.480 L494.640 520.590 L494.640 520.710 L494.640 520.820 L494.530 520.940 L494.530 521.050 L494.530 521.160 L494.530 521.280 L494.530 521.400 L494.530 521.510 L494.530 521.630 L494.530 521.740 L494.530 521.860 L494.410 521.970 L494.410 522.080 L494.410 522.200 L494.410 522.310 L494.410 522.430 L494.410 522.540 L494.410 522.660 L494.410 522.770 L494.300 522.880 L494.300 523.000 L494.300 523.110 L494.300 523.230 L494.300 523.460 L494.300 523.570 L494.300 523.680 L494.180 523.800 L494.180 523.910 L494.180 524.030 L494.180 524.140 L494.180 524.260 L494.180 524.480 L494.180 524.600 L494.070 524.710 L494.070 524.830 L494.070 524.940 L494.070 525.060 L494.070 525.280 L494.070 525.400 L494.070 525.510 L493.950 525.630 L493.950 525.740 L493.950 525.970 L493.950 526.080 L493.950 526.200 L493.950 526.310 L493.950 526.540 L493.950 526.660 L493.840 526.770 L493.840 526.880 L493.840 527.110 L493.840 527.230 L493.840 527.340 L493.840 527.460 L493.840 527.690 L493.840 527.800 L493.840 527.920 L493.730 528.150 L493.730 528.260 L493.730 528.370 L493.730 528.490 L493.730 528.720 L493.730 528.830 L493.730 528.950 L493.730 529.170 L493.730 529.290 L493.730 529.400 L493.610 529.630 L493.610 529.750 L493.610 529.860 L493.610 530.090 L493.610 530.200 L493.610 530.320 L493.610 530.550 L493.610 530.660 L493.500 530.770 L493.500 531.000 L493.500 531.120 L493.500 531.350 L493.500 531.460 L493.500 531.570 L493.500 531.800 L493.380 531.920 L493.380 532.030 L493.380 532.260 L493.380 532.370 L493.380 532.490 L493.270 532.720 L493.270 532.830 L493.270 532.950 L493.270 533.170 L493.270 533.290 L493.150 533.520 L493.150 533.630 L493.150 533.750 L493.150 533.970 L493.040 534.090 L493.040 534.210 L493.040 534.440 L493.040 534.550 L492.920 534.670 L492.920 534.890 L492.920 535.010 L492.920 535.240 L492.810 535.350 L492.810 535.470 L492.810 535.690 L492.810 535.810 L492.690 535.920 L492.690 536.150 L492.690 536.270 L492.690 536.380 L492.580 536.610 L492.580 536.720 L492.580 536.950 L492.460 537.070 L492.460 537.180 L492.460 537.410 L492.460 537.520 L492.350 537.640 L492.350 537.870 L492.350 537.980 L492.350 538.090 L492.240 538.320 L492.240 538.440 L492.240 538.550 L492.120 538.780 L492.120 538.890 L492.120 539.010 L492.120 539.240 L492.010 539.350 L492.010 539.470 L492.010 539.690 L492.010 539.810 L492.010 539.920 L491.890 540.150 L491.890 540.270 L491.890 540.380 L491.890 540.610 L491.780 540.730 L491.780 540.840 L491.780 541.070 L491.780 541.180 L491.780 541.300 L491.660 541.410 L491.660 541.640 L491.660 541.760 L491.660 541.870 L491.660 541.980 L491.660 542.210 L491.550 542.330 L491.550 542.440 L491.550 542.560 L491.550 542.780 L491.550 542.900 L491.550 543.010 L491.430 543.240 L491.430 543.360 L491.430 543.470 L491.430 543.580 L491.430 543.810 L491.430 543.930 L491.320 544.040 L491.320 544.160 L491.320 544.380 L491.320 544.500 L491.320 544.610 L491.320 544.840 L491.200 544.960 L491.200 545.070 L491.200 545.180 L491.200 545.410 L491.200 545.530 L491.090 545.640 L491.090 545.870 L491.090 545.980 L491.090 546.100 L491.090 546.210 L490.980 546.440 L490.980 546.560 L490.980 546.670 L490.980 546.900 L490.860 547.010 L490.860 547.130 L490.860 547.360 L490.860 547.480 L490.860 547.590 L490.750 547.700 L490.750 547.930 L490.750 548.050 L490.750 548.160 L490.630 548.390 L490.630 548.500 L490.630 548.620 L490.630 548.850 L490.520 548.960 L490.520 549.080 L490.520 549.190 L490.520 549.420 L490.520 549.530 L490.400 549.650 L490.400 549.760 L490.400 549.990 L490.400 550.100 L490.290 550.220 L490.290 550.330 L490.290 550.560 L490.290 550.680 L490.170 550.790 L490.170 550.900 L490.170 551.020 L490.170 551.250 L490.060 551.360 L490.060 551.480 L490.060 551.590 L490.060 551.700 L490.060 551.820 L489.940 552.050 L489.940 552.160 L489.940 552.280 L489.940 552.390 L489.830 552.500 L489.830 552.620 L489.830 552.730 L489.830 552.850 L489.720 552.960 L489.720 553.080 L489.720 553.300 L489.720 553.420 L489.600 553.530 L489.600 553.650 L489.600 553.770 L489.600 553.880 L489.490 553.990 L489.490 554.110 L489.490 554.220 L489.490 554.340 L489.370 554.340 L489.370 554.450 L489.370 554.570 L489.370 554.680 L489.260 554.790 L489.260 554.910 L489.260 555.020 L489.260 555.140 L489.140 555.250 L489.140 555.370 L489.140 555.370 L489.140 555.480 L489.030 555.590 L489.030 555.710 L489.030 555.820 L489.030 555.940 L488.910 555.940 L488.910 556.050 L488.910 556.170 L488.910 556.280 L488.910 556.280 L488.800 556.390 L488.800 556.510 L488.800 556.620 L488.680 556.740 L488.680 556.850 L488.680 556.970 L488.680 557.080 L488.570 557.190 L488.570 557.310 L488.570 557.420 L488.570 557.540 L488.460 557.540 L488.460 557.650 L488.460 557.770 L488.340 557.880 L488.340 557.990 L488.340 558.110 L488.340 558.220 L488.230 558.340 L488.230 558.450 L488.230 558.570 L488.230 558.680 L488.110 558.790 L488.110 558.910 L488.110 558.910 L488.110 559.020 L488.000 559.140 L488.000 559.250 L488.000 559.370 L488.000 559.370 L487.880 559.480 L487.880 559.590 L487.880 559.710 L487.880 559.820 L487.770 559.940 L487.770 560.050 L487.770 560.170 L487.770 560.170 L487.650 560.290 L487.650 560.400 L487.650 560.510 L487.650 560.630 L487.540 560.740 L487.540 560.860 L487.540 560.970 L487.540 560.970 L487.420 561.090 L487.420 561.200 L487.420 561.310 L487.310 561.430 L487.310 561.540 L487.310 561.660 L487.310 561.660 L487.200 561.770 L487.200 561.890 L487.200 562.000 L487.080 562.110 L487.080 562.110 L487.080 562.230 L486.970 562.340 L486.970 562.460 L486.970 562.460 L486.970 562.570 L486.850 562.690 L486.850 562.800 L486.850 562.800 L486.740 562.910 L486.740 563.030 L486.740 563.030 L486.620 563.140 L486.620 563.260 L486.620 563.260 L486.620 563.370 L486.500 563.490 L486.500 563.490 L486.500 563.600 L486.390 563.600 L486.390 563.710 L486.390 563.830 L486.390 563.830 L486.270 563.940 L486.270 564.060 L486.270 564.060 L486.160 564.170 L486.160 564.290 L486.040 564.400 L486.040 564.510 L486.040 564.510 L485.930 564.630 L485.930 564.740 L485.820 564.740 L485.820 564.860 L485.820 564.970 L485.700 564.970 L485.700 565.090 L485.590 565.200 L485.590 565.310 L485.590 565.310 L485.470 565.430 L485.470 565.540 L485.360 565.540 L485.360 565.660 L485.360 565.660 L485.240 565.770 L485.240 565.890 L485.240 565.890 L485.130 566.000 L485.130 566.000 L485.010 566.110 L485.010 566.110 L485.010 566.230 L484.900 566.230 L484.900 566.340 L484.790 566.340 L484.790 566.460 L484.670 566.460 L484.670 566.570 L484.670 566.690 L484.560 566.690 "/>
  <path style="fill:none;stroke:rgb(0,0,0);stroke-width:1.49;" d="M484.560 566.690 L484.560 566.800 L484.440 566.800 L484.440 566.920 L484.330 566.920 L484.330 567.030 L484.210 567.030 L484.210 567.150 L484.100 567.150 L484.100 567.150 L483.980 567.260 L483.980 567.260 L483.870 567.370 L483.750 567.370 L483.750 567.490 L483.640 567.490 L483.640 567.600 L483.530 567.600 L483.410 567.600 L483.410 567.720 L483.300 567.720 L483.300 567.720 L483.180 567.830 L483.180 567.830 L483.070 567.950 L482.950 567.950 L482.950 567.950 L482.840 568.060 L482.840 568.060 L482.720 568.060 L482.610 568.060 L482.610 568.170 L482.490 568.170 L482.490 568.170 L482.380 568.290 L482.270 568.290 L482.150 568.400 L482.150 568.400 L482.030 568.400 L481.920 568.520 L481.810 568.520 L481.810 568.520 L481.690 568.630 L481.580 568.630 L481.460 568.630 L481.350 568.630 L481.350 568.750 L481.230 568.750 L481.120 568.750 L481.010 568.750 L480.890 568.750 L480.780 568.750 L480.780 568.860 L480.660 568.860 L480.550 568.860 L480.430 568.860 L480.320 568.860 L480.200 568.860 L480.090 568.860 L479.970 568.860 L479.860 568.860 L479.740 568.750 L479.630 568.750 L479.520 568.750 L479.400 568.750 L479.290 568.750 L479.290 568.750 L479.170 568.630 L479.060 568.630 L479.060 568.630 L478.940 568.630 L478.830 568.630 L478.710 568.520 L478.710 568.520 L478.600 568.520 L478.480 568.400 L478.480 568.400 L478.370 568.400 L478.260 568.290 L478.260 568.290 L478.140 568.290 L478.020 568.170 L477.910 568.170 L477.910 568.060 L477.790 568.060 L477.680 567.950 L477.680 567.950 L477.560 567.950 L477.450 567.830 L477.450 567.830 L477.330 567.830 L477.330 567.720 L477.220 567.720 L477.220 567.720 L477.100 567.600 L477.100 567.600 L476.990 567.490 L476.990 567.490 L476.880 567.490 L476.880 567.370 L476.760 567.370 L476.760 567.260 L476.650 567.260 L476.530 567.260 L476.530 567.150 L476.420 567.150 L476.420 567.030 L476.300 567.030 L476.300 567.030 L476.190 566.920 L476.190 566.920 L476.070 566.800 L476.070 566.800 L475.960 566.690 L475.960 566.690 L475.840 566.690 L475.840 566.570 L475.730 566.570 L475.730 566.460 L475.620 566.460 L475.500 566.340 L475.500 566.340 L475.390 566.230 L475.390 566.230 L475.270 566.110 L475.270 566.110 L475.160 566.000 L475.160 565.890 L475.040 565.890 L474.930 565.770 L474.930 565.770 L474.810 565.660 L474.810 565.660 L474.700 565.540 L474.700 565.540 L474.580 565.430 L474.580 565.430 L474.470 565.310 L474.360 565.200 L474.360 565.200 L474.240 565.090 L474.240 565.090 L474.130 564.970 L474.130 564.970 L474.010 564.860 L474.010 564.860 L473.900 564.740 L473.900 564.740 L473.780 564.630 L473.780 564.630 L473.670 564.510 L473.670 564.510 L473.550 564.400 L473.440 564.400 L473.440 564.290 L473.320 564.290 L473.320 564.170 L473.210 564.170 L473.210 564.060 L473.090 563.940 L472.980 563.940 L472.980 563.830 L472.870 563.830 L472.870 563.710 L472.750 563.600 L472.750 563.600 L472.640 563.490 L472.520 563.370 L472.520 563.370 L472.410 563.260 L472.410 563.140 L472.290 563.030 L472.180 563.030 L472.180 562.910 L472.060 562.800 L471.950 562.690 L471.950 562.690 L471.830 562.570 L471.720 562.460 L471.720 562.340 L471.610 562.230 L471.610 562.230 L471.490 562.110 L471.380 562.000 L471.380 561.890 L471.260 561.770 L471.260 561.770 L471.150 561.660 L471.030 561.540 L471.030 561.430 L470.920 561.310 L470.920 561.200 L470.800 561.090 L470.690 561.090 L470.690 560.970 L470.570 560.860 L470.570 560.740 L470.460 560.630 L470.460 560.510 L470.350 560.510 L470.350 560.400 L470.230 560.290 L470.120 560.170 L470.120 560.050 L470.120 559.940 L470.000 559.940 L470.000 559.820 L469.890 559.710 L469.890 559.590 L469.770 559.480 L469.770 559.480 L469.660 559.370 L469.660 559.250 L469.540 559.140 L469.540 559.020 L469.540 559.020 L469.430 558.910 L469.430 558.790 L469.310 558.680 L469.310 558.680 L469.310 558.570 L469.190 558.450 L469.190 558.340 L469.080 558.340 L469.080 558.220 L469.080 558.110 L468.970 557.990 L468.970 557.990 L468.850 557.880 L468.850 557.770 L468.850 557.770 L468.740 557.650 L468.740 557.540 L468.620 557.420 L468.620 557.420 L468.510 557.310 L468.510 557.190 L468.510 557.190 L468.390 557.080 L468.390 556.970 L468.280 556.850 L468.280 556.850 L468.170 556.740 L468.170 556.620 L468.050 556.620 L468.050 556.510 L467.940 556.390 L467.940 556.390 L467.820 556.280 L467.820 556.170 L467.820 556.050 L467.710 556.050 L467.710 555.940 L467.590 555.820 L467.590 555.820 L467.480 555.710 L467.480 555.590 L467.360 555.480 L467.360 555.480 L467.250 555.370 L467.250 555.250 L467.130 555.140 L467.020 555.140 L467.020 555.020 L466.900 554.910 L466.900 554.790 L466.790 554.790 L466.790 554.680 L466.680 554.570 L466.680 554.450 L466.560 554.340 L466.560 554.340 L466.450 554.220 L466.450 554.110 L466.330 553.990 L466.220 553.880 L466.220 553.770 L466.100 553.650 L466.100 553.650 L465.990 553.530 L465.990 553.420 L465.870 553.300 L465.870 553.190 L465.760 553.080 L465.640 552.960 L465.640 552.850 L465.530 552.730 L465.530 552.620 L465.420 552.500 L465.420 552.390 L465.300 552.390 L465.180 552.280 L465.180 552.160 L465.070 552.050 L465.070 551.820 L464.960 551.700 L464.960 551.590 L464.840 551.480 L464.730 551.360 L464.730 551.250 L464.610 551.130 L464.610 551.020 L464.500 550.900 L464.500 550.790 L464.380 550.680 L464.270 550.560 L464.270 550.450 L464.160 550.330 L464.160 550.220 L464.040 549.990 L464.040 549.880 L463.930 549.760 L463.810 549.650 L463.810 549.530 L463.700 549.420 L463.700 549.300 L463.580 549.190 L463.470 549.080 L463.470 548.850 L463.350 548.730 L463.350 548.620 L463.240 548.500 L463.120 548.390 L463.120 548.280 L463.010 548.160 L462.890 548.050 L462.890 547.820 L462.780 547.700 L462.670 547.590 L462.670 547.480 L462.550 547.360 L462.550 547.250 L462.440 547.130 L462.320 547.010 L462.320 546.900 L462.210 546.780 L462.090 546.670 L462.090 546.560 L461.980 546.440 L461.860 546.330 L461.860 546.210 L461.750 545.980 L461.750 545.870 L461.640 545.760 L461.520 545.640 L461.520 545.530 L461.410 545.410 L461.290 545.410 L461.290 545.300 L461.180 545.180 L461.180 545.070 L461.060 544.960 L460.950 544.840 L460.950 544.730 L460.830 544.610 L460.710 544.500 L460.710 544.380 L460.600 544.270 L460.600 544.270 L460.480 544.160 L460.480 544.040 L460.370 543.930 L460.250 543.810 L460.250 543.700 L460.140 543.700 L460.140 543.580 L460.030 543.470 L460.030 543.360 L459.910 543.360 L459.910 543.240 L459.800 543.130 L459.800 543.010 L459.680 543.010 L459.680 542.900 L459.570 542.780 L459.570 542.780 L459.450 542.670 L459.450 542.560 L459.340 542.440 L459.340 542.440 L459.220 542.330 L459.220 542.210 L459.110 542.210 L459.110 542.100 L458.990 541.980 L458.990 541.870 L458.880 541.870 L458.880 541.760 L458.880 541.640 L458.770 541.640 L458.770 541.530 L458.650 541.410 L458.650 541.300 L458.540 541.300 L458.540 541.180 L458.540 541.070 L458.420 541.070 L458.420 540.960 L458.310 540.840 L458.310 540.840 L458.310 540.730 L458.190 540.610 L458.190 540.610 L458.080 540.490 L458.080 540.380 L458.080 540.380 L457.960 540.270 L457.960 540.270 L457.960 540.150 L457.850 540.040 L457.850 540.040 L457.730 539.920 L457.730 539.920 L457.730 539.810 L457.620 539.690 L457.620 539.690 L457.510 539.580 L457.510 539.580 L457.510 539.470 L457.390 539.350 L457.390 539.350 L457.280 539.240 L457.280 539.120 L457.160 539.120 L457.160 539.010 L457.050 538.890 L457.050 538.780 L456.930 538.780 L456.930 538.670 L456.820 538.550 L456.820 538.550 L456.700 538.440 L456.700 538.320 L456.590 538.210 L456.590 538.090 L456.470 538.090 L456.360 537.980 L456.360 537.870 L456.250 537.750 L456.250 537.640 L456.130 537.640 L456.020 537.520 L456.020 537.410 L455.900 537.290 L455.790 537.180 L455.670 537.070 L455.670 536.950 L455.560 536.840 L455.440 536.720 L455.330 536.610 L455.210 536.490 L455.100 536.270 L454.990 536.150 L454.870 536.040 L454.760 535.920 L454.640 535.690 L454.530 535.580 L454.410 535.470 L454.300 535.240 L454.070 535.120 L453.950 534.890 L453.840 534.780 L453.610 534.550 L453.500 534.320 L453.270 534.210 L453.150 533.970 L452.920 533.750 L452.810 533.520 L452.580 533.290 L452.350 533.060 L452.230 532.830 L452.000 532.600 L451.770 532.370 L451.540 532.150 L451.320 531.920 L451.090 531.690 L450.860 531.350 L450.630 531.120 L450.400 530.890 L450.170 530.660 L449.940 530.320 L449.710 530.090 L449.480 529.750 L449.250 529.520 L449.020 529.170 L448.800 528.950 L448.570 528.600 L448.220 528.370 L447.990 528.030 L447.760 527.800 L447.540 527.460 L447.190 527.230 L446.960 526.880 L446.730 526.660 L446.500 526.310 L446.160 525.970 L445.930 525.740 L445.700 525.400 L445.360 525.060 L445.130 524.830 L444.900 524.480 L444.560 524.140 L444.330 523.910 L444.100 523.570 L443.870 523.340 L443.520 523.000 L443.290 522.660 L443.060 522.430 L442.830 522.080 L442.490 521.860 L442.260 521.510 L442.030 521.280 L441.800 520.940 L441.570 520.710 L441.340 520.360 L441.000 520.140 L440.770 519.790 L440.540 519.560 L440.310 519.340 L440.080 518.990 L439.850 518.760 L439.740 518.540 L439.510 518.310 L439.280 518.080 L439.050 517.740 L438.820 517.510 L438.710 517.280 L438.480 517.050 L438.250 516.820 L438.140 516.710 L437.910 516.480 L437.790 516.250 L437.560 516.020 L437.450 515.790 L437.220 515.680 L437.100 515.450 L436.880 515.340 L436.760 515.110 L436.650 514.880 L436.530 514.760 L436.300 514.650 L436.190 514.420 L436.070 514.300 L435.960 514.070 L435.840 513.960 L435.730 513.850 L435.620 513.730 L435.500 513.620 L435.390 513.390 L435.270 513.270 L435.150 513.160 L435.040 513.050 L434.920 512.930 L434.920 512.820 L434.700 512.700 L434.580 512.590 L434.580 512.470 L434.470 512.360 L434.350 512.250 L434.240 512.130 L434.120 512.020 L434.010 511.900 L434.010 511.790 L433.890 511.670 L433.780 511.560 L433.780 511.560 L433.660 511.450 L433.550 511.330 L433.550 511.220 L433.430 511.220 L433.320 511.100 L433.320 510.990 L433.200 510.870 L433.090 510.760 L433.090 510.760 L432.980 510.650 L432.860 510.530 L432.860 510.530 L432.750 510.420 L432.750 510.300 L432.630 510.300 L432.520 510.190 L432.520 510.070 L432.400 509.960 L432.290 509.960 L432.290 509.850 L432.170 509.730 L432.060 509.620 L431.950 509.620 L431.950 509.500 L431.830 509.390 L431.720 509.270 L431.600 509.160 L431.600 509.050 L431.490 508.930 L431.370 508.820 L431.260 508.820 L431.140 508.700 L431.030 508.590 L430.910 508.470 L430.800 508.360 L430.690 508.250 L430.570 508.130 L430.570 507.900 L430.460 507.780 L430.340 507.670 L430.110 507.550 L430.000 507.440 L429.880 507.330 L429.770 507.210 L429.650 507.100 L429.540 506.870 L429.430 506.750 L429.310 506.640 L429.080 506.530 L428.970 506.300 L428.850 506.180 L428.740 506.070 L428.510 505.840 L428.390 505.730 L428.170 505.610 L428.050 505.380 L427.820 505.270 L427.710 505.040 L427.480 504.930 L427.360 504.700 L427.130 504.580 L426.900 504.350 L426.680 504.240 L426.440 504.010 L426.210 503.780 L425.980 503.670 L425.750 503.440 L425.520 503.210 L425.300 503.100 L425.070 502.870 L424.720 502.640 L424.490 502.410 L424.150 502.180 L423.920 502.070 L423.580 501.840 L423.350 501.610 L423.000 501.380 L422.660 501.150 L422.430 500.920 L422.090 500.690 L421.740 500.470 L421.400 500.240 L421.060 500.010 L420.710 499.780 L420.480 499.550 L420.140 499.320 L419.800 499.090 L419.450 498.980 L419.110 498.750 L418.770 498.520 L418.420 498.290 L418.080 498.070 L417.730 497.840 L417.390 497.720 L417.160 497.490 L416.810 497.270 L416.470 497.040 L416.130 496.920 L415.900 496.690 L415.550 496.580 L415.210 496.350 L414.980 496.240 L414.640 496.010 L414.410 495.890 L414.060 495.780 L413.840 495.550 L413.490 495.440 L413.260 495.320 L413.030 495.090 L412.690 494.970 L412.460 494.860 L412.230 494.750 L411.890 494.630 L411.660 494.520 L411.430 494.400 L411.200 494.290 L410.860 494.170 L410.630 494.060 L410.400 493.950 L410.170 493.830 L409.940 493.720 L409.600 493.600 L409.360 493.490 L409.130 493.370 L408.900 493.370 L408.560 493.260 L408.330 493.150 L408.100 493.030 L407.870 492.920 L407.530 492.800 L407.300 492.800 L407.070 492.690 L406.730 492.570 L406.500 492.460 "/>
  <path style="fill:none;stroke:rgb(0,0,0);stroke-width:1.49;" d="M406.500 492.460 L406.150 492.350 L405.930 492.230 L405.580 492.230 L405.350 492.120 L405.010 492.000 L404.780 491.890 L404.440 491.770 L404.210 491.770 L403.860 491.660 L403.630 491.550 L403.290 491.430 L403.060 491.320 L402.720 491.320 L402.370 491.200 L402.150 491.090 L401.800 490.970 L401.570 490.970 L401.230 490.860 L401.000 490.750 L400.650 490.750 L400.310 490.630 L400.080 490.520 L399.740 490.400 L399.510 490.400 L399.160 490.290 L398.930 490.290 L398.590 490.170 L398.250 490.060 L398.020 490.060 L397.670 489.950 L397.440 489.830 L397.100 489.830 L396.870 489.720 L396.530 489.720 L396.300 489.600 L395.960 489.490 L395.730 489.490 L395.380 489.370 L395.150 489.370 L394.810 489.260 L394.580 489.260 L394.240 489.150 L393.890 489.150 L393.660 489.030 L393.320 489.030 L393.090 488.920 L392.750 488.920 L392.400 488.800 L392.170 488.800 L391.830 488.680 L391.480 488.680 L391.140 488.680 L390.910 488.570 L390.570 488.570 L390.220 488.460 L389.880 488.460 L389.530 488.340 L389.190 488.340 L388.850 488.340 L388.500 488.230 L388.160 488.230 L387.820 488.110 L387.470 488.110 L387.130 488.110 L386.780 488.000 L386.440 488.000 L386.100 488.000 L385.750 487.880 L385.410 487.880 L384.950 487.880 L384.610 487.770 L384.260 487.770 L383.920 487.770 L383.570 487.660 L383.230 487.660 L382.890 487.660 L382.540 487.540 L382.200 487.540 L381.860 487.540 L381.510 487.540 L381.280 487.430 L380.940 487.430 L380.590 487.430 L380.250 487.430 L379.910 487.430 L379.680 487.310 L379.330 487.310 L379.110 487.310 L378.760 487.310 L378.530 487.310 L378.190 487.200 L377.960 487.200 L377.730 487.200 L377.390 487.200 L377.160 487.200 L376.930 487.200 L376.700 487.200 L376.470 487.080 L376.240 487.080 L375.900 487.080 L375.670 487.080 L375.440 487.080 L375.210 487.080 L374.980 487.080 L374.750 487.080 L374.520 487.080 L374.290 487.080 L374.060 486.970 L373.830 486.970 L373.720 486.970 L373.490 486.970 L373.260 486.970 L373.030 486.970 L372.800 486.970 L372.570 486.970 L372.340 486.970 L372.110 486.970 L371.880 486.970 L371.650 486.970 L371.420 486.860 L371.200 486.860 L370.970 486.860 L370.740 486.860 L370.510 486.860 L370.390 486.860 L370.160 486.860 L369.940 486.860 L369.710 486.860 L369.480 486.860 L369.250 486.860 L369.020 486.860 L368.790 486.740 L368.560 486.740 L368.450 486.740 L368.220 486.740 L367.990 486.740 L367.760 486.740 L367.640 486.740 L367.420 486.740 L367.190 486.740 L367.070 486.740 L366.840 486.740 L366.610 486.740 L366.490 486.630 L366.270 486.630 L366.150 486.630 L365.920 486.630 L365.810 486.630 L365.580 486.630 L365.460 486.630 L365.230 486.630 L365.120 486.630 L365.010 486.630 L364.770 486.630 L364.660 486.630 L364.550 486.630 L364.430 486.630 L364.320 486.630 L364.200 486.630 L364.090 486.630 L363.970 486.630 L363.860 486.510 L363.750 486.510 L363.630 486.510 L363.520 486.510 L363.520 486.510 L363.400 486.510 L363.290 486.510 L363.290 486.510 L363.170 486.510 L363.060 486.510 L363.060 486.510 L362.940 486.510 L362.480 486.510 "/>
  <path style="fill:none;stroke:rgb(255,0,0);stroke-width:1.49;" d="M454.180 538.440 C454.180 539.920 455.330 541.180 456.820 541.180 C458.310 541.180 459.570 539.920 459.570 538.440 C459.570 536.950 458.310 535.810 456.820 535.810 C455.330 535.810 454.180 536.950 454.180 538.440 Z"/>
  <path style="fill:none;stroke:rgb(255,0,0);stroke-width:1.14;" d="M456.700 538.550 L457.160 538.550 "/>
  <path style="fill:none;stroke:rgb(255,0,0);stroke-width:1.14;" d="M430.570 510.760 C430.570 512.250 431.720 513.500 433.200 513.500 C434.700 513.500 435.960 512.250 435.960 510.760 C435.960 509.270 434.700 508.130 433.200 508.130 C431.720 508.130 430.570 509.270 430.570 510.760 Z"/>
  <path style="fill:none;stroke:rgb(255,0,0);stroke-width:1.14;" d="M433.090 510.870 L433.550 510.870 "/>
  <path style="fill:none;stroke:rgb(0,0,0);stroke-width:1.14;" d="M334.750 582.700 L508.050 582.700 "/>
  <path style="fill:none;stroke:rgb(0,0,0);stroke-width:1.49;" d="M366.270 582.700 L366.270 584.180 "/>
  <path style="fill:none;stroke:rgb(0,0,0);stroke-width:1.49;" d="M429.310 582.700 L429.310 584.180 "/>
  <path style="fill:none;stroke:rgb(0,0,0);stroke-width:1.49;" d="M492.350 582.700 L492.350 584.180 "/>
  <path style="fill:none;stroke:rgb(0,0,0);stroke-width:1.49;" d="M334.750 582.700 L334.750 585.670 "/>
  <path style="fill:none;stroke:rgb(0,0,0);stroke-width:1.49;" d="M397.790 582.700 L397.790 585.670 "/>
  <path style="fill:none;stroke:rgb(0,0,0);stroke-width:1.49;" d="M460.830 582.700 L460.830 585.670 "/>
  <path style="fill:none;stroke:rgb(0,0,0);stroke-width:1.49;" d="M334.750 582.700 L334.750 469.250 "/>
  <path style="fill:none;stroke:rgb(0,0,0);stroke-width:1.49;" d="M334.750 566.460 L333.260 566.460 "/>
  <path style="fill:none;stroke:rgb(0,0,0);stroke-width:1.49;" d="M334.750 534.090 L333.260 534.090 "/>
  <path style="fill:none;stroke:rgb(0,0,0);stroke-width:1.49;" d="M334.750 501.610 L333.260 501.610 "/>
  <path style="fill:none;stroke:rgb(0,0,0);stroke-width:1.49;" d="M334.750 469.250 L333.260 469.250 "/>
  <path style="fill:none;stroke:rgb(0,0,0);stroke-width:1.49;" d="M334.750 582.700 L331.760 582.700 "/>
  <path style="fill:none;stroke:rgb(0,0,0);stroke-width:1.49;" d="M334.750 550.330 L331.760 550.330 "/>
  <path style="fill:none;stroke:rgb(0,0,0);stroke-width:1.49;" d="M334.750 517.850 L331.760 517.850 "/>
  <path style="fill:none;stroke:rgb(0,0,0);stroke-width:1.49;" d="M334.750 485.480 L331.760 485.480 "/>
  <g begin="text">
   <text y="595.166" x="332.106" svgx:width="0.56" style="fill:rgb(0,0,0);font-family:Arial;font-size:9.6px;stroke:none;">0</text>
  </g>
  <g begin="text">
   <text y="595.166" x="389.763,395.153,400.542" svgx:width="0.56,0.56,0.56" style="fill:rgb(0,0,0);font-family:Arial;font-size:9.6px;stroke:none;">200</text>
  </g>
  <g begin="text">
   <text y="595.166" x="452.809,458.198,463.587" svgx:width="0.56,0.56,0.56" style="fill:rgb(0,0,0);font-family:Arial;font-size:9.6px;stroke:none;">400</text>
  </g>
  <g begin="text">
   <text y="585.556" x="321.105,324.313" svgx:width="0.33,0.56" style="fill:rgb(0,0,0);font-family:Arial;font-size:9.6px;stroke:none;">-6</text>
  </g>
  <g begin="text">
   <text y="553.19" x="321.105,324.313" svgx:width="0.33,0.56" style="fill:rgb(0,0,0);font-family:Arial;font-size:9.6px;stroke:none;">-4</text>
  </g>
  <g begin="text">
   <text y="520.707" x="321.105,324.313" svgx:width="0.33,0.56" style="fill:rgb(0,0,0);font-family:Arial;font-size:9.6px;stroke:none;">-2</text>
  </g>
  <g begin="text">
   <text y="488.341" x="324.316" svgx:width="0.56" style="fill:rgb(0,0,0);font-family:Arial;font-size:9.6px;stroke:none;">0</text>
  </g>
  <g begin="text">
   <text y="564.171" matrix="[7.2207456E-7,9.604913,-9.627661,7.2036846E-7,317.3245,277.71906]" x="317.324" svgx:width="0.5" style="fill:rgb(0,0,0);font-family:Arial;font-size:0.0px;stroke:none;">c</text>
   <text y="559.369" matrix="[7.2207456E-7,9.604913,-9.627661,7.2036846E-7,317.3245,282.5215]" x="317.324" svgx:width="0.56" style="fill:rgb(0,0,0);font-family:Arial;font-size:0.0px;stroke:none;">o</text>
   <text y="553.999" matrix="[7.2207456E-7,9.604913,-9.627661,7.2036846E-7,317.3245,287.89066]" x="317.324" svgx:width="0.56" style="fill:rgb(0,0,0);font-family:Arial;font-size:0.0px;stroke:none;">o</text>
   <text y="548.63" matrix="[7.2207456E-7,9.604913,-9.627661,7.2036846E-7,317.3245,293.2598]" x="317.324" svgx:width="0.22" style="fill:rgb(0,0,0);font-family:Arial;font-size:0.0px;stroke:none;">l</text>
   <text y="546.469" matrix="[7.2207456E-7,9.604913,-9.627661,7.2036846E-7,317.3245,295.4209]" x="317.324" svgx:width="0.22" style="fill:rgb(0,0,0);font-family:Arial;font-size:0.0px;stroke:none;">i</text>
   <text y="544.308" matrix="[7.2207456E-7,9.604913,-9.627661,7.2036846E-7,317.3245,297.582]" x="317.324" svgx:width="0.56" style="fill:rgb(0,0,0);font-family:Arial;font-size:0.0px;stroke:none;">n</text>
   <text y="538.939" matrix="[7.2207456E-7,9.604913,-9.627661,7.2036846E-7,317.3245,302.95114]" x="317.324" svgx:width="0.56" style="fill:rgb(0,0,0);font-family:Arial;font-size:0.0px;stroke:none;">g</text>
   <text y="533.57" matrix="[7.2207456E-7,9.604913,-9.627661,7.2036846E-7,317.3245,308.32028]" x="317.324" svgx:width="0.28" style="fill:rgb(0,0,0);font-family:Arial;font-size:0.0px;stroke:none;"> </text>
   <text y="530.938" matrix="[7.2207456E-7,9.604913,-9.627661,7.2036846E-7,317.3245,310.95203]" x="317.324" svgx:width="0.33" style="fill:rgb(0,0,0);font-family:Arial;font-size:0.0px;stroke:none;">r</text>
   <text y="527.74" matrix="[7.2207456E-7,9.604913,-9.627661,7.2036846E-7,317.3245,314.15048]" x="317.324" svgx:width="0.56" style="fill:rgb(0,0,0);font-family:Arial;font-size:0.0px;stroke:none;">a</text>
   <text y="522.37" matrix="[7.2207456E-7,9.604913,-9.627661,7.2036846E-7,317.3245,319.51962]" x="317.324" svgx:width="0.28" style="fill:rgb(0,0,0);font-family:Arial;font-size:0.0px;stroke:none;">t</text>
   <text y="519.739" matrix="[7.2207456E-7,9.604913,-9.627661,7.2036846E-7,317.3245,322.15137]" x="317.324" svgx:width="0.56" style="fill:rgb(0,0,0);font-family:Arial;font-size:0.0px;stroke:none;">e</text>
   <text y="514.37" matrix="[7.2207456E-7,9.604913,-9.627661,7.2036846E-7,317.3245,327.5205]" x="317.324" svgx:width="0.28" style="fill:rgb(0,0,0);font-family:Arial;font-size:0.0px;stroke:none;"> </text>
   <text y="511.738" matrix="[7.2207456E-7,9.604913,-9.627661,7.2036846E-7,317.3245,330.15225]" x="317.324" svgx:width="0.22" style="fill:rgb(0,0,0);font-family:Arial;font-size:0.0px;stroke:none;">i</text>
   <text y="509.577" matrix="[7.2207456E-7,9.604913,-9.627661,7.2036846E-7,317.3245,332.31335]" x="317.324" svgx:width="0.56" style="fill:rgb(0,0,0);font-family:Arial;font-size:0.0px;stroke:none;">n</text>
   <text y="504.208" matrix="[7.2207456E-7,9.604913,-9.627661,7.2036846E-7,317.3245,337.6825]" x="317.324" svgx:width="0.28" style="fill:rgb(0,0,0);font-family:Arial;font-size:0.0px;stroke:none;"> </text>
   <text y="501.576" matrix="[7.2207456E-7,9.604913,-9.627661,7.2036846E-7,317.3245,340.3142]" x="317.324" svgx:width="0.67" style="fill:rgb(0,0,0);font-family:Arial;font-size:0.0px;stroke:none;">K</text>
   <text y="495.169" matrix="[7.2207456E-7,9.604913,-9.627661,7.2036846E-7,317.3245,346.7207]" x="317.324" svgx:width="0.28" style="fill:rgb(0,0,0);font-family:Arial;font-size:0.0px;stroke:none;">/</text>
   <text y="492.538" matrix="[7.2207456E-7,9.604913,-9.627661,7.2036846E-7,317.3245,349.35245]" x="317.324" svgx:width="0.5" style="fill:rgb(0,0,0);font-family:Arial;font-size:0.0px;stroke:none;">s</text>
  </g>
  <g begin="text">
   <text y="609.005" x="384.494,387.132,392.514,400.639,406.021,411.403,414.609,419.991,422.629,428.011,431.217,436.599,439.237,441.403,446.785,449.423,453.322" svgx:width="0.28,0.56,0.83,0.56,0.56,0.33,0.56,0.28,0.56,0.33,0.56,0.28,0.22,0.56,0.28,0.75,0.72" style="fill:rgb(0,0,0);font-family:Arial;font-size:9.6px;stroke:none;">temperature in °C</text>
  </g>
  <path style="fill:rgb(255,255,255);stroke:none;stroke-width:1.49;" d="M301.910 378.020 L312.110 378.020 L312.110 389.010 L301.910 389.010 L301.910 378.020 "/>
  <g begin="text">
   <text y="461.581" x="302.251,308.669" svgx:width="0.67,0.33" style="fill:rgb(0,0,0);font-family:Arial;font-size:9.61px;stroke:none;">B)</text>
  </g>
  <path style="fill:none;stroke:rgb(0,0,0);stroke-width:0.57;" d="M121.310 478.920 L121.880 484.290 L122.920 490.910 L123.720 497.880 L124.520 501.990 L125.330 506.560 L126.580 510.100 L128.070 514.440 L129.680 518.550 L131.620 521.870 L133.800 525.750 L135.860 528.260 L137.580 529.860 L139.410 531.920 L142.970 534.660 L146.860 536.940 L150.530 539.000 L154.880 540.830 L160.490 542.880 L164.390 544.590 L169.200 545.620 L174.130 547.220 L179.400 548.710 L184.780 549.960 L191.420 550.990 L198.410 552.590 L206.320 553.390 L217.200 555.100 L227.400 556.930 L236.220 557.960 L245.270 559.440 L258.560 561.500 L270.710 563.100 L283.310 564.350 "/>
  <path style="fill:none;stroke:rgb(0,0,0);stroke-width:1.49;" d="M118.220 582.510 L291.440 582.510 "/>
  <path style="fill:none;stroke:rgb(0,0,0);stroke-width:1.49;" d="M152.820 582.510 L152.820 584.000 "/>
  <path style="fill:none;stroke:rgb(0,0,0);stroke-width:1.49;" d="M222.130 582.510 L222.130 584.000 "/>
  <path style="fill:none;stroke:rgb(0,0,0);stroke-width:1.49;" d="M291.440 582.510 L291.440 584.000 "/>
  <path style="fill:none;stroke:rgb(0,0,0);stroke-width:1.49;" d="M118.220 582.510 L118.220 585.480 "/>
  <path style="fill:none;stroke:rgb(0,0,0);stroke-width:1.49;" d="M187.530 582.510 L187.530 585.480 "/>
  <path style="fill:none;stroke:rgb(0,0,0);stroke-width:1.49;" d="M256.840 582.510 L256.840 585.480 "/>
  <path style="fill:none;stroke:rgb(0,0,0);stroke-width:1.49;" d="M118.220 582.510 L118.220 469.210 "/>
  <path style="fill:none;stroke:rgb(0,0,0);stroke-width:1.49;" d="M118.220 572.230 L116.730 572.230 "/>
  <path style="fill:none;stroke:rgb(0,0,0);stroke-width:1.49;" d="M118.220 551.560 L116.730 551.560 "/>
  <path style="fill:none;stroke:rgb(0,0,0);stroke-width:1.49;" d="M118.220 531.000 L116.730 531.000 "/>
  <path style="fill:none;stroke:rgb(0,0,0);stroke-width:1.49;" d="M118.220 510.440 L116.730 510.440 "/>
  <path style="fill:none;stroke:rgb(0,0,0);stroke-width:1.49;" d="M118.220 489.770 L116.730 489.770 "/>
  <path style="fill:none;stroke:rgb(0,0,0);stroke-width:1.49;" d="M118.220 469.210 L116.730 469.210 "/>
  <path style="fill:none;stroke:rgb(0,0,0);stroke-width:1.49;" d="M118.220 582.510 L115.240 582.510 "/>
  <path style="fill:none;stroke:rgb(0,0,0);stroke-width:1.49;" d="M118.220 561.960 L115.240 561.960 "/>
  <path style="fill:none;stroke:rgb(0,0,0);stroke-width:1.49;" d="M118.220 541.280 L115.240 541.280 "/>
  <path style="fill:none;stroke:rgb(0,0,0);stroke-width:1.49;" d="M118.220 520.720 L115.240 520.720 "/>
  <path style="fill:none;stroke:rgb(0,0,0);stroke-width:1.49;" d="M118.220 500.160 L115.240 500.160 "/>
  <path style="fill:none;stroke:rgb(0,0,0);stroke-width:1.49;" d="M118.220 479.490 L115.240 479.490 "/>
  <g begin="text">
   <text y="594.964" x="115.581" svgx:width="0.56" style="fill:rgb(0,0,0);font-family:Arial;font-size:9.59px;stroke:none;">0</text>
  </g>
  <g begin="text">
   <text y="594.964" x="179.511,184.897,190.283" svgx:width="0.56,0.56,0.56" style="fill:rgb(0,0,0);font-family:Arial;font-size:9.59px;stroke:none;">500</text>
  </g>
  <g begin="text">
   <text y="594.964" x="246.073,251.46,256.846,262.232" svgx:width="0.56,0.56,0.56,0.56" style="fill:rgb(0,0,0);font-family:Arial;font-size:9.59px;stroke:none;">1000</text>
  </g>
  <g begin="text">
   <text y="585.367" x="107.795" svgx:width="0.56" style="fill:rgb(0,0,0);font-family:Arial;font-size:9.59px;stroke:none;">0</text>
  </g>
  <g begin="text">
   <text y="564.81" x="97.024,102.41,107.796" svgx:width="0.56,0.56,0.56" style="fill:rgb(0,0,0);font-family:Arial;font-size:9.59px;stroke:none;">100</text>
  </g>
  <g begin="text">
   <text y="544.137" x="97.024,102.41,107.796" svgx:width="0.56,0.56,0.56" style="fill:rgb(0,0,0);font-family:Arial;font-size:9.59px;stroke:none;">200</text>
  </g>
  <g begin="text">
   <text y="523.58" x="97.024,102.41,107.796" svgx:width="0.56,0.56,0.56" style="fill:rgb(0,0,0);font-family:Arial;font-size:9.59px;stroke:none;">300</text>
  </g>
  <g begin="text">
   <text y="503.021" x="97.024,102.41,107.796" svgx:width="0.56,0.56,0.56" style="fill:rgb(0,0,0);font-family:Arial;font-size:9.59px;stroke:none;">400</text>
  </g>
  <g begin="text">
   <text y="482.349" x="97.024,102.41,107.796" svgx:width="0.56,0.56,0.56" style="fill:rgb(0,0,0);font-family:Arial;font-size:9.59px;stroke:none;">500</text>
  </g>
  <g begin="text">
   <text y="563.555" matrix="[7.217078E-7,9.591899,-9.62277,7.193924E-7,93.2453,278.33536]" x="93.245" svgx:width="0.28" style="fill:rgb(0,0,0);font-family:Arial;font-size:0.0px;stroke:none;">t</text>
   <text y="560.927" matrix="[7.217078E-7,9.591899,-9.62277,7.193924E-7,93.2453,280.96353]" x="93.245" svgx:width="0.56" style="fill:rgb(0,0,0);font-family:Arial;font-size:0.0px;stroke:none;">e</text>
   <text y="555.565" matrix="[7.217078E-7,9.591899,-9.62277,7.193924E-7,93.2453,286.3254]" x="93.245" svgx:width="0.83" style="fill:rgb(0,0,0);font-family:Arial;font-size:0.0px;stroke:none;">m</text>
   <text y="547.575" matrix="[7.217078E-7,9.591899,-9.62277,7.193924E-7,93.24531,294.31546]" x="93.245" svgx:width="0.56" style="fill:rgb(0,0,0);font-family:Arial;font-size:0.0px;stroke:none;">p</text>
   <text y="542.213" matrix="[7.217078E-7,9.591899,-9.62277,7.193924E-7,93.24531,299.67734]" x="93.245" svgx:width="0.56" style="fill:rgb(0,0,0);font-family:Arial;font-size:0.0px;stroke:none;">e</text>
   <text y="536.851" matrix="[7.217078E-7,9.591899,-9.62277,7.193924E-7,93.24531,305.03918]" x="93.245" svgx:width="0.33" style="fill:rgb(0,0,0);font-family:Arial;font-size:0.0px;stroke:none;">r</text>
   <text y="533.657" matrix="[7.217078E-7,9.591899,-9.62277,7.193924E-7,93.24531,308.2333]" x="93.245" svgx:width="0.56" style="fill:rgb(0,0,0);font-family:Arial;font-size:0.0px;stroke:none;">a</text>
   <text y="528.295" matrix="[7.217078E-7,9.591899,-9.62277,7.193924E-7,93.24531,313.59518]" x="93.245" svgx:width="0.28" style="fill:rgb(0,0,0);font-family:Arial;font-size:0.0px;stroke:none;">t</text>
   <text y="525.667" matrix="[7.217078E-7,9.591899,-9.62277,7.193924E-7,93.24531,316.22336]" x="93.245" svgx:width="0.56" style="fill:rgb(0,0,0);font-family:Arial;font-size:0.0px;stroke:none;">u</text>
   <text y="520.305" matrix="[7.217078E-7,9.591899,-9.62277,7.193924E-7,93.24531,321.58524]" x="93.245" svgx:width="0.33" style="fill:rgb(0,0,0);font-family:Arial;font-size:0.0px;stroke:none;">r</text>
   <text y="517.111" matrix="[7.217078E-7,9.591899,-9.62277,7.193924E-7,93.24531,324.77933]" x="93.245" svgx:width="0.56" style="fill:rgb(0,0,0);font-family:Arial;font-size:0.0px;stroke:none;">e</text>
   <text y="511.749" matrix="[7.217078E-7,9.591899,-9.62277,7.193924E-7,93.24531,330.1412]" x="93.245" svgx:width="0.28" style="fill:rgb(0,0,0);font-family:Arial;font-size:0.0px;stroke:none;"> </text>
   <text y="509.121" matrix="[7.217078E-7,9.591899,-9.62277,7.193924E-7,93.24531,332.76938]" x="93.245" svgx:width="0.22" style="fill:rgb(0,0,0);font-family:Arial;font-size:0.0px;stroke:none;">i</text>
   <text y="506.962" matrix="[7.217078E-7,9.591899,-9.62277,7.193924E-7,93.24531,334.92755]" x="93.245" svgx:width="0.56" style="fill:rgb(0,0,0);font-family:Arial;font-size:0.0px;stroke:none;">n</text>
   <text y="501.601" matrix="[7.217078E-7,9.591899,-9.62277,7.193924E-7,93.24531,340.28943]" x="93.245" svgx:width="0.28" style="fill:rgb(0,0,0);font-family:Arial;font-size:0.0px;stroke:none;"> </text>
   <text y="498.972" matrix="[7.217078E-7,9.591899,-9.62277,7.193924E-7,93.24531,342.91757]" x="93.245" svgx:width="0.75" style="fill:rgb(0,0,0);font-family:Arial;font-size:0.0px;stroke:none;">°</text>
   <text y="495.088" matrix="[7.217078E-7,9.591899,-9.62277,7.193924E-7,93.24531,346.8023]" x="93.245" svgx:width="0.72" style="fill:rgb(0,0,0);font-family:Arial;font-size:0.0px;stroke:none;">C</text>
  </g>
  <g begin="text">
   <text y="608.099" x="186.043,188.679,190.845,198.966,204.345,206.982,209.147,214.526,217.163" svgx:width="0.28,0.22,0.83,0.56,0.28,0.22,0.56,0.28,0.5" style="fill:rgb(0,0,0);font-family:Arial;font-size:9.59px;stroke:none;">time in s</text>
  </g>
  <path style="fill:rgb(255,255,255);stroke:none;stroke-width:1.49;" d="M85.450 378.020 L95.550 378.020 L95.550 389.010 L85.450 389.010 L85.450 378.020 "/>
  <g begin="text">
   <text y="461.581" x="85.684,92.102" svgx:width="0.67,0.33" style="fill:rgb(0,0,0);font-family:Arial;font-size:9.61px;stroke:none;">A)</text>
  </g>
  <g begin="text">
   <text y="627.19" x="97.795,102.78,105.766,110.751,116.23,119.718,124.203,126.452,130.935,135.418" svgx:width="0.56,0.33,0.56,0.61,0.39,0.5,0.55,0.5,0.5,0.25" style="fill:rgb(0,0,0);font-family:URWPalladioL-Bold;font-size:8.97px;stroke:none;">Figure 32.</text>
   <text y="627.19" x="140.809" svgx:width="0.33" style="fill:rgb(0,0,0);font-family:URWPalladioL-Roma;font-size:8.97px;stroke:none;">(</text>
   <text y="627.19" x="143.765" svgx:width="0.78" style="fill:rgb(0,0,0);font-family:URWPalladioL-Bold;font-size:8.97px;stroke:none;">A</text>
   <text y="627.19" x="150.74,153.70010000000002,155.942,162.235,167.082,171.929,174.512,177.095,182.261,187.2842,189.443,192.789,197.041,200.805,206.157,208.741,211.634,214.218,219.384,224.4072,226.565,229.521,232.868,237.714,247.798,253.133,255.716,260.155,264.096,266.679,271.845,276.8682,279.027,283.873,289.04,293.34560000000005,295.537,299.789,304.956,310.4277,312.625,317.472,320.4321,322.674,325.567,330.734,335.0396,337.231,341.483,346.064,351.399,355.651,359.157,361.74,369.578,373.83,378.996,381.89,386.329,388.9303,391.158,396.066,400.505,404.093,406.257,408.84,414.0426,416.252,423.655,428.094,430.988,435.24,438.089,440.3315,442.554,450.392,454.644,459.082,462.846,468.199,471.545,475.797,481.2687,483.467,487.905,490.8651,493.045" svgx:width="0.33,0.55,0.71,0.55,0.55,0.29,0.29,0.58,0.56,0.55,0.4,0.48,0.42,0.6,0.29,0.33,0.29,0.58,0.56,0.55,0.33,0.4,0.55,0.88,0.6,0.29,0.5,0.44,0.29,0.58,0.56,0.55,0.55,0.58,0.48,0.55,0.48,0.58,0.61,0.55,0.55,0.33,0.55,0.33,0.58,0.48,0.55,0.48,0.52,0.6,0.48,0.4,0.29,0.88,0.48,0.58,0.33,0.5,0.29,0.55,0.55,0.5,0.4,0.55,0.29,0.58,0.55,0.83,0.5,0.33,0.48,0.4,0.25,0.55,0.88,0.48,0.5,0.42,0.6,0.4,0.48,0.61,0.55,0.5,0.33,0.55,0.5" style="fill:rgb(0,0,0);font-family:URWPalladioL-Roma;font-size:8.97px;stroke:none;">) Cooling resulting fromplacing one end of the experimental bar in water, measured at a</text>
   <text y="640.012" x="97.795,103.367,106.02,109.887,112.859,117.419,122.726,126.775,131.0806,133.377,138.356,141.3161,143.626,148.186,150.465,154.95000000000002,157.259,161.308,169.20159999999998,171.594,174.63,178.068,183.047,190.9406,193.333,196.306,201.613,205.9186,208.215,213.258,217.817,221.405,223.653,228.021,233.328,238.9,241.1425,243.414" svgx:width="0.61,0.29,0.42,0.33,0.5,0.58,0.44,0.48,0.55,0.55,0.33,0.55,0.5,0.25,0.5,0.55,0.44,0.88,0.55,0.33,0.4,0.55,0.88,0.55,0.33,0.58,0.48,0.55,0.55,0.5,0.4,0.55,0.48,0.58,0.61,0.25,0.55,0.33" style="fill:rgb(0,0,0);font-family:URWPalladioL-Roma;font-size:8.97px;stroke:none;">distance of 5.5 cm from the bar end; (</text>
   <text y="640.012" x="246.448" svgx:width="0.67" style="fill:rgb(0,0,0);font-family:URWPalladioL-Bold;font-size:8.97px;stroke:none;">B</text>
   <text y="640.012" x="252.429,255.3891,257.7,262.259,264.913,270.22,274.086,277.059,281.618,286.926,289.898,294.458,299.765,304.133,309.112,314.61,318.3774,320.711,324.76,329.738,334.717,337.371,340.024,345.332,350.35519999999997,352.636,356.238,360.797,363.77,368.0756,370.363,374.922,378.68940000000003,381.023,385.50800000000004,387.816,390.853,396.351,401.659,405.707,408.68,411.334,416.313,421.5156,423.854,428.833,431.79310000000004,434.103,437.076,441.444,449.496,454.976,459.344,462.946,467.506,470.478,475.977,479.415,483.72060000000005,486.017,489.053,493.613" svgx:width="0.33,0.55,0.5,0.29,0.58,0.42,0.33,0.5,0.58,0.33,0.5,0.58,0.48,0.55,0.6,0.42,0.55,0.44,0.55,0.55,0.29,0.29,0.58,0.56,0.55,0.4,0.5,0.33,0.48,0.55,0.5,0.42,0.55,0.5,0.55,0.33,0.6,0.58,0.44,0.33,0.29,0.55,0.58,0.55,0.55,0.33,0.55,0.33,0.48,0.88,0.6,0.48,0.4,0.5,0.33,0.6,0.4,0.48,0.55,0.33,0.5,0.42" style="fill:rgb(0,0,0);font-family:URWPalladioL-Roma;font-size:8.97px;stroke:none;">) “instantaneous cooling rate as a function of temperature (as</text>
   <text y="652.834" x="97.795,102.845,105.488,110.62,114.971,120.17360000000001,122.492,125.135,130.3376,132.646,139.713,142.737,144.9795,147.243,152.81,158.097,162.4026,164.682,170.141,175.1,177.743,183.03,185.991,189.75840000000002,192.067,194.71,199.996,205.546,208.189,212.222,216.764,219.725,224.0306,226.31,229.271,234.557,238.8626,241.142,244.993,247.955,252.496,256.084,259.0441,261.27,264.295,269.781,273.632,276.5921,278.891,283.433,288.719,294.1907,296.503,300.854,306.14,311.6117,313.915,316.94,322.426,325.45,328.4101,330.709,335.669,338.6291,340.928,346.387,349.811,354.162,358.194,360.838,366.296,368.94,371.901,376.442,379.403,382.046,387.006,392.2086,394.526" svgx:width="0.56,0.29,0.56,0.48,0.58,0.55,0.29,0.58,0.55,0.78,0.33,0.25,0.55,0.61,0.58,0.48,0.55,0.6,0.55,0.29,0.58,0.33,0.42,0.55,0.29,0.58,0.61,0.29,0.44,0.5,0.33,0.48,0.55,0.33,0.58,0.48,0.55,0.42,0.33,0.5,0.4,0.33,0.55,0.33,0.6,0.42,0.33,0.55,0.5,0.58,0.61,0.55,0.48,0.58,0.61,0.55,0.33,0.6,0.33,0.33,0.55,0.55,0.33,0.55,0.6,0.4,0.48,0.44,0.29,0.6,0.29,0.33,0.5,0.33,0.29,0.55,0.58,0.55,0.33" style="fill:rgb(0,0,0);font-family:URWPalladioL-Roma;font-size:8.97px;stroke:none;">given in A). The points indicate the start (Ps) and end (Pf) of precipitation [</text>
   <text y="652.834" x="397.546,402.029" svgx:width="0.5,0.5" style="fill:rgb(8,117,183);font-family:URWPalladioL-Roma;font-size:8.97px;stroke:none;">25</text>
   <text y="652.834" x="406.513,409.538,411.808,416.293,418.584,425.614,428.258,433.308,435.951,438.912,441.555,446.097,450.447,455.9187,458.222,463.772,468.313,471.274,475.759,478.05,481.075,484.499,489.459" svgx:width="0.33,0.25,0.5,0.55,0.77,0.29,0.56,0.29,0.33,0.29,0.5,0.48,0.61,0.55,0.61,0.5,0.33,0.5,0.55,0.33,0.4,0.55,0.88" style="fill:rgb(0,0,0);font-family:URWPalladioL-Roma;font-size:8.97px;stroke:none;">].” Digitized data from</text>
   <text y="665.656" x="97.795,103.785,108.079,111.065,113.3075,115.548" svgx:width="0.67,0.48,0.33,0.25,0.55,0.33" style="fill:rgb(0,0,0);font-family:URWPalladioL-Roma;font-size:8.97px;stroke:none;">Ref. [</text>
   <text y="665.656" x="118.534,123.017" svgx:width="0.5,0.5" style="fill:rgb(8,117,183);font-family:URWPalladioL-Roma;font-size:8.97px;stroke:none;">25</text>
   <text y="665.656" x="127.501,130.486" svgx:width="0.33,0.25" style="fill:rgb(0,0,0);font-family:URWPalladioL-Roma;font-size:8.97px;stroke:none;">].</text>
  </g>
 </g>
</svg>
