<?xml version="1.0" encoding="UTF-8"?>
<svg height="771.303" width="530.494" xmlns="http://www.w3.org/2000/svg">
 <g id="page" xmlns:svgx="http://www.xml-cml.org/schema/svgx">
  <g begin="text">
   <text y="62.979" x="76.535,84.059,87.598,90.252,93.352,96.452,98.668,102.207,104.422" svgx:width="0.94,0.44,0.33,0.39,0.39,0.28,0.44,0.28,0.39" style="fill:rgb(0,0,0);font-family:URWPalladioL-Ital;font-size:7.97px;stroke:none;">Materials</text>
   <text y="62.979" x="109.515,113.5,117.485,121.47" svgx:width="0.5,0.5,0.5,0.5" style="fill:rgb(0,0,0);font-family:URWPalladioL-Bold;font-size:7.97px;stroke:none;">2019</text>
   <text y="62.979" x="125.455" svgx:width="0.25" style="fill:rgb(0,0,0);font-family:URWPalladioL-Roma;font-size:7.97px;stroke:none;">,</text>
   <text y="62.979" x="129.44,133.425" svgx:width="0.5,0.5" style="fill:rgb(0,0,0);font-family:URWPalladioL-Ital;font-size:7.97px;stroke:none;">12</text>
   <text y="62.979" x="137.41,139.4025,141.395,145.38,149.365,153.35,157.335,491.809,495.794,499.779,501.772,506.123,508.7531,510.77,514.755" svgx:width="0.25,0.55,0.5,0.5,0.5,0.5,0.55,0.5,0.5,0.55,0.55,0.33,0.55,0.5,0.5" style="fill:rgb(0,0,0);font-family:URWPalladioL-Roma;font-size:7.97px;stroke:none;">, 4083 75 of 92</text>
   <text y="97.848" x="76.535" svgx:width="0.52" style="fill:rgb(0,0,0);font-family:Pxsy;font-size:9.96px;stroke:none;">•</text>
   <text y="97.848" x="97.336,100.761,104.0478,107.386,110.699,116.613,121.3938,124.722,129.803,132.76,135.717,141.266,146.84359999999998,150.157,155.238,161.152,167.2276,170.603,176.517,181.385,186.466,189.778,192.735,198.65,204.2276,207.551,211.565,216.646,219.959,224.7398,228.068,232.377,238.484,243.352,247.864,250.821,256.969,261.3514,264.722,269.031,274.579,277.536,283.278,289.405,293.5882,296.955,300.268,305.136,314.109,320.216,325.083,329.097,334.178,337.491,343.619,347.45,352.2308,355.559,358.516,362.6992,366.066,370.934,376.177,380.689,385.557,390.424,396.633,401.501,407.709,410.199,413.685,416.997,422.912,427.6928,431.021,434.333,439.882,443.195,448.276,451.1644,454.474,457.431,463.346,466.658,471.526,477.176,481.19,486.271,489.1594,492.469,498.018,501.3048,504.643,507.956,513.87" svgx:width="0.34,0.33,0.55,0.33,0.58,0.48,0.55,0.5,0.29,0.29,0.55,0.56,0.55,0.5,0.58,0.61,0.55,0.58,0.48,0.5,0.33,0.29,0.58,0.56,0.55,0.4,0.5,0.33,0.48,0.55,0.42,0.6,0.48,0.44,0.29,0.61,0.44,0.55,0.42,0.55,0.29,0.56,0.6,0.42,0.55,0.33,0.48,0.88,0.6,0.48,0.4,0.5,0.33,0.6,0.4,0.48,0.55,0.29,0.42,0.55,0.48,0.52,0.44,0.48,0.48,0.61,0.48,0.61,0.25,0.55,0.33,0.58,0.48,0.55,0.33,0.55,0.33,0.5,0.29,0.55,0.29,0.58,0.33,0.48,0.56,0.4,0.5,0.29,0.55,0.55,0.33,0.55,0.33,0.58,0.48" style="fill:rgb(0,0,0);font-family:URWPalladioL-Roma;font-size:9.96px;stroke:none;">If the alloy and heating rate speciﬁc solvus temperature is exceeded, the total integral of the</text>
   <text y="111.358" x="97.336,105.201,110.536,117.6076,121.724,127.639,132.506,137.587,140.9,143.857,149.771,155.34859999999998,159.394,163.906,170.034,174.048,179.789,184.5698,188.64,192.481,197.349,203.09,207.958,213.039,215.986,220.1692,224.278,227.591,233.505,238.2858,242.356,247.223,253.137,256.45,262.364,267.445,270.402,276.51,282.0876,286.143,289.1,293.968,299.709,304.577,307.4654,311.517,317.066,320.3528,324.423,327.736,333.65,338.4308,342.501,345.458,351.372,354.329,357.642,360.599,365.68,368.5684,372.621,377.701,380.659,383.616,389.164,394.7416,398.797,403.106,406.419,411.5,414.813,419.68,422.17,430.177,436.407,442.321,445.278,449.4612,453.57,458.437,464.352,467.664,473.579,478.659,481.606,487.714,493.2916,497.347,500.304,505.172,510.913,515.781" svgx:width="0.77,0.52,0.71,0.55,0.58,0.48,0.5,0.33,0.29,0.58,0.56,0.55,0.44,0.6,0.4,0.56,0.48,0.55,0.4,0.48,0.56,0.48,0.5,0.29,0.42,0.55,0.33,0.58,0.48,0.55,0.48,0.58,0.33,0.58,0.5,0.29,0.6,0.56,0.55,0.29,0.48,0.56,0.48,0.29,0.55,0.55,0.33,0.55,0.33,0.58,0.48,0.55,0.29,0.58,0.29,0.33,0.29,0.5,0.29,0.55,0.5,0.29,0.29,0.55,0.56,0.55,0.42,0.33,0.5,0.33,0.48,0.25,0.55,0.61,0.58,0.29,0.42,0.55,0.48,0.58,0.33,0.58,0.5,0.29,0.6,0.56,0.55,0.29,0.48,0.56,0.48,0.29" style="fill:rgb(0,0,0);font-family:URWPalladioL-Roma;font-size:9.96px;stroke:none;">DSC heating curve reveals the enthalpy level of the initial alloy state. This enthalpy level</text>
   <text y="124.867" x="97.037,103.114,106.927,112.448,118.161,121.104,127.282,132.126,136.3092,138.901,141.843,147.729,151.096,156.617,160.611,169.54,174.596,177.893,180.835,186.357,192.1338,194.729,199.785,205.377,210.899,216.996,220.2828,222.79,226.087,231.972,236.7528,239.303,242.6,248.485,253.329,257.323,266.252,271.308,274.1964,276.738,281.026,284.322,289.378,294.97,297.913,300.855,303.798,307.094,312.6716,315.204,320.725,324.01180000000005,326.58,329.877,335.762,340.5428,343.093,346.036,351.921,354.864,358.16,361.103,366.159,369.0474,371.589,376.079,381.6,387.485,393.664,396.606,399.903,402.845,408.366,414.252,416.742,419.267,424.323,430.208,436.28360000000004,438.874,441.817,446.0002,448.602,454.487,457.43,463.052,468.937,473.781,477.765,480.263,483.63,489.151,493.135,495.633,504.562,510.083,513.896" svgx:width="0.6,0.4,0.55,0.56,0.29,0.61,0.48,0.42,0.55,0.29,0.58,0.33,0.55,0.4,0.88,0.5,0.33,0.29,0.55,0.58,0.55,0.5,0.55,0.55,0.6,0.33,0.55,0.33,0.58,0.48,0.55,0.33,0.58,0.48,0.4,0.88,0.5,0.29,0.55,0.42,0.33,0.5,0.55,0.29,0.29,0.29,0.33,0.56,0.55,0.55,0.33,0.55,0.33,0.58,0.48,0.55,0.29,0.58,0.29,0.33,0.29,0.5,0.29,0.55,0.44,0.55,0.58,0.61,0.29,0.33,0.29,0.55,0.58,0.25,0.55,0.5,0.58,0.61,0.55,0.29,0.42,0.55,0.58,0.29,0.56,0.58,0.48,0.4,0.55,0.33,0.55,0.4,0.55,0.88,0.55,0.4,0.48" style="fill:rgb(0,0,0);font-family:URWPalladioL-Roma;font-size:9.96px;stroke:none;">provides information about the thermal stability of the initial condition, and is higher for more</text>
   <text y="138.377" x="97.336,101.56,104.808,109.789,115.299,118.198,122.97879999999999,125.46,129.884,135.323,141.122,147.209,150.108,153.356,156.255,161.694,167.493,171.717" svgx:width="0.42,0.33,0.5,0.55,0.29,0.48,0.55,0.44,0.55,0.58,0.61,0.29,0.33,0.29,0.55,0.58,0.42,0.25" style="fill:rgb(0,0,0);font-family:URWPalladioL-Roma;font-size:9.96px;stroke:none;">stable conditions.</text>
   <text y="152.882" x="76.535" svgx:width="0.52" style="fill:rgb(0,0,0);font-family:Pxsy;font-size:9.96px;stroke:none;">•</text>
   <text y="152.882" x="97.336,102.764,108.095,112.079,114.393,119.274,122.115,128.003,136.624,139.465,145.147,147.988,153.876,164.937,169.819,172.66,175.501,180.832,186.261,190.4442,192.841,198.728,204.411,210.376,215.053,218.733,224.162,229.493,232.334,238.016,243.59359999999998,245.885,251.851" svgx:width="0.56,0.55,0.4,0.55,0.5,0.29,0.6,0.88,0.29,0.58,0.29,0.6,0.88,0.5,0.29,0.29,0.55,0.56,0.42,0.55,0.6,0.58,0.61,0.48,0.4,0.56,0.55,0.29,0.58,0.56,0.55,0.61,0.29" style="fill:rgb(0,0,0);font-family:URWPalladioL-Roma;font-size:9.96px;stroke:none;">For aluminiumalloys undergoing di</text>
   <text y="152.882" x="254.693" svgx:width="0.61" style="fill:rgb(0,0,0);font-family:Rpxr;font-size:9.96px;stroke:none;">ﬀ</text>
   <text y="152.882" x="260.629,265.306,268.986,273.663,279.345,282.63180000000006,284.969,287.81,293.492,296.334,299.516,302.358,307.239,310.12739999999997,312.521,318.203,322.88,327.762,331.0488,333.385,336.568,340.249,344.926,349.807,352.99,361.611,366.288,371.97,375.25680000000006,377.594,381.734,384.916,389.798,392.981,397.658,401.8412,404.238,408.378,414.265,418.6,424.3768,426.723,431.605,435.7882,438.185,443.067,447.949,452.1322,454.529,459.997,465.884,470.56,476.243,480.578,486.26,490.937,496.902,501.784,504.274,506.675,512.66,517.542" svgx:width="0.48,0.4,0.48,0.58,0.33,0.55,0.29,0.58,0.29,0.33,0.29,0.5,0.29,0.55,0.58,0.48,0.5,0.33,0.55,0.33,0.4,0.48,0.5,0.33,0.88,0.48,0.58,0.33,0.55,0.42,0.33,0.5,0.33,0.48,0.42,0.55,0.42,0.6,0.44,0.58,0.55,0.5,0.42,0.55,0.5,0.5,0.42,0.55,0.56,0.6,0.48,0.58,0.44,0.58,0.48,0.61,0.5,0.25,0.55,0.61,0.5,0.25" style="fill:rgb(0,0,0);font-family:URWPalladioL-Roma;font-size:9.96px;stroke:none;">erent initial heat treatment states such as “as quenched”, T4,</text>
   <text y="166.392" x="97.027,103.012,107.992,110.373,115.704,119.68799999999999,122.05,128.035,132.917,135.407,137.838,145.395,150.52,157.5916,159.932,165.615,170.291,175.173,178.356,181.197,186.879,192.45659999999998,194.787,199.122,205.01,208.866,214.382,219.059,223.2422,225.679,229.818,235.501,240.831,251.454,255.594,260.27,265.786,270.463,274.144,278.9248,281.3,287.266" svgx:width="0.61,0.5,0.55,0.55,0.4,0.55,0.61,0.5,0.25,0.55,0.77,0.52,0.71,0.55,0.58,0.48,0.5,0.33,0.29,0.58,0.56,0.55,0.44,0.6,0.4,0.56,0.48,0.42,0.55,0.42,0.58,0.55,0.83,0.42,0.48,0.56,0.48,0.4,0.48,0.55,0.61,0.29" style="fill:rgb(0,0,0);font-family:URWPalladioL-Roma;font-size:9.96px;stroke:none;">T6 or T7, DSC heating curves showsevere di</text>
   <text y="166.392" x="290.111" svgx:width="0.61" style="fill:rgb(0,0,0);font-family:Rpxr;font-size:9.96px;stroke:none;">ﬀ</text>
   <text y="166.392" x="296.047,300.724,304.404,309.081,314.763,319.098,323.775,327.9582,330.394,335.276,338.56280000000004,340.939,344.122,348.798,357.419,363.287,367.964,371.82,376.702,379.885,385.772,389.453,394.13,398.3132,400.749,406.148,410.825,413.666,418.997,429.629,434.511,439.91,445.241,451.118,454.4048,456.791,461.672,466.554" svgx:width="0.48,0.4,0.48,0.58,0.44,0.48,0.42,0.55,0.5,0.33,0.55,0.33,0.48,0.88,0.6,0.48,0.4,0.5,0.33,0.6,0.4,0.48,0.42,0.55,0.55,0.48,0.29,0.55,0.83,0.5,0.55,0.55,0.6,0.33,0.55,0.5,0.5,0.5" style="fill:rgb(0,0,0);font-family:URWPalladioL-Roma;font-size:9.96px;stroke:none;">erences at temperatures belowabout 300</text>
   <text y="162.775" x="473.918" svgx:width="0.52" style="fill:rgb(0,0,0);font-family:Pxsy;font-size:7.57px;stroke:none;">◦</text>
   <text y="166.392" x="478.376,485.298,487.788,490.219,497.815,503.214,508.545,514.061" svgx:width="0.71,0.25,0.55,0.78,0.55,0.55,0.56,0.48" style="fill:rgb(0,0,0);font-family:URWPalladioL-Roma;font-size:9.96px;stroke:none;">C. Above</text>
   <text y="179.901" x="97.336,100.584,106.382,109.281,113.4642,115.996,119.244,124.016,132.813,138.8,143.572,147.508,152.489,155.737,161.744,165.5,170.272,172.762,175.253,178.501,184.299,189.0798,191.562,197.649" svgx:width="0.33,0.58,0.29,0.42,0.55,0.33,0.48,0.88,0.6,0.48,0.4,0.5,0.33,0.6,0.4,0.48,0.25,0.55,0.33,0.58,0.48,0.55,0.61,0.29" style="fill:rgb(0,0,0);font-family:URWPalladioL-Roma;font-size:9.96px;stroke:none;">this temperature, the di</text>
   <text y="179.901" x="200.548" svgx:width="0.61" style="fill:rgb(0,0,0);font-family:Rpxr;font-size:9.96px;stroke:none;">ﬀ</text>
   <text y="179.901" x="206.605,211.377,215.133,219.905,225.703,230.127,234.899,239.0822,241.614,246.595,250.351,255.1318,257.613,260.861,266.401,272.388,275.287,279.711,284.692,287.591,290.49,296.0676,298.52,302.744,311.541,316.522,319.421,322.321" svgx:width="0.48,0.4,0.48,0.58,0.44,0.48,0.42,0.55,0.5,0.4,0.48,0.55,0.33,0.56,0.6,0.29,0.44,0.5,0.29,0.29,0.56,0.55,0.42,0.88,0.5,0.29,0.29,0.25" style="fill:rgb(0,0,0);font-family:URWPalladioL-Roma;font-size:9.96px;stroke:none;">erences are typically small.</text>
   <text y="194.407" x="76.535" svgx:width="0.52" style="fill:rgb(0,0,0);font-family:Pxsy;font-size:9.96px;stroke:none;">•</text>
   <text y="194.407" x="97.336,104.893,110.019,117.09060000000001,119.216,124.898,129.575,134.456,137.639,140.48,146.162,151.7396,153.856,156.697,160.8802,163.112,167.993,173.392,176.234,181.0148,183.175,186.358,191.836,193.964,196.805,202.77,207.447,213.129,216.312,219.153,222.404,227.9816,230.098,234.98,240.847,246.715,250.396,255.727,261.595,265.451,268.292,273.174,276.357,281.1378,283.298,286.481,291.158,299.779,305.647,310.323,314.18,319.062,322.244,328.132,331.813,336.5938,338.754,342.611,347.493,353.175,358.603,363.28,367.4632,369.694,372.946,378.276,382.26,384.408,388.547,393.878,396.719,402.607,405.789,408.621,413.952,419.7288,421.909,425.092,428.772,433.449,438.331,441.514,450.135,454.811,460.494,463.676,466.166,468.431,474.299,479.181,483.037,486.22,489.061,493.396,499.283,502.124,507.006,510.863,513.704" svgx:width="0.77,0.52,0.71,0.55,0.58,0.48,0.5,0.33,0.29,0.58,0.56,0.55,0.29,0.42,0.55,0.5,0.55,0.29,0.48,0.55,0.33,0.55,0.55,0.29,0.61,0.48,0.58,0.33,0.29,0.33,0.56,0.55,0.5,0.6,0.6,0.4,0.55,0.6,0.4,0.29,0.5,0.33,0.48,0.55,0.33,0.48,0.88,0.6,0.48,0.4,0.5,0.33,0.6,0.4,0.48,0.55,0.4,0.5,0.58,0.56,0.48,0.42,0.55,0.33,0.55,0.4,0.55,0.42,0.55,0.29,0.6,0.33,0.29,0.55,0.58,0.55,0.33,0.4,0.48,0.5,0.33,0.88,0.48,0.58,0.33,0.25,0.55,0.6,0.5,0.4,0.33,0.29,0.44,0.6,0.29,0.5,0.4,0.29,0.56" style="fill:rgb(0,0,0);font-family:URWPalladioL-Roma;font-size:9.96px;stroke:none;">DSC heating is able to identify appropriate temperature ranges for solution treatment, particularly</text>
   <text y="207.916" x="97.336,102.417,105.7038,110.475,114.784,117.741,123.289,131.5558,136.51,142.424,147.292,152.373,155.685,158.642,164.557,170.13459999999998,174.952,178.966,184.047,187.36,192.227,196.536,199.026,204.381,208.69,211.647,217.561,222.073,226.8538,231.686,235.07,240.618,244.602,249.378,253.686,256.643,262.192,270.667,275.534,279.518,284.294,290.208,295.075,300.156,303.469,306.426,312.34,317.9176,322.736,326.049,331.963,336.7438,341.576,346.657,349.614,352.571,358.12,363.77,367.0568,371.899,376.98,382.894,388.9696,393.849,399.763,404.63,409.711,413.024,415.981,421.895,427.545,430.929,434.943,440.024,443.337,448.204,451.588,455.897,462.004,466.872,471.384,474.341,480.489,484.8714,489.746,494.055,499.603,502.56,508.302,514.429" svgx:width="0.5,0.33,0.55,0.42,0.29,0.55,0.83,0.55,0.58,0.48,0.5,0.33,0.29,0.58,0.56,0.55,0.4,0.5,0.33,0.48,0.42,0.25,0.55,0.42,0.29,0.58,0.44,0.48,0.55,0.33,0.55,0.4,0.55,0.42,0.29,0.55,0.83,0.48,0.4,0.55,0.58,0.48,0.5,0.33,0.29,0.58,0.56,0.55,0.33,0.58,0.48,0.55,0.5,0.29,0.29,0.55,0.56,0.33,0.55,0.5,0.58,0.61,0.55,0.58,0.48,0.5,0.33,0.29,0.58,0.56,0.33,0.4,0.5,0.33,0.48,0.33,0.42,0.6,0.48,0.44,0.29,0.61,0.44,0.55,0.42,0.55,0.29,0.56,0.6,0.42" style="fill:rgb(0,0,0);font-family:URWPalladioL-Roma;font-size:9.96px;stroke:none;">at slow heating rates, since for slower heating the alloy- and heating-rate-speciﬁc solvus</text>
   <text y="221.425" x="97.336,100.519,105.195,113.817,119.684,124.361,128.217,133.099,136.282,142.169,145.85,150.6308,152.655,156.99,161.872,167.64880000000002,169.682,175.081,179.8618,181.877,184.718,190.683,195.36,201.042,204.225,207.066,212.973,217.65,223.615,226.10500000000002,229.424,237.02,240.3068,242.331,247.848,252.524,256.381,261.9586,263.938,268.077,270.919,276.249,286.52,292.203,296.879,301.761,304.944,307.785,313.467,319.0446,321.024,324.881,329.762,332.945,337.622,341.762,344.252,346.399,349.582,355.264,360.0448,362.069,364.91,369.792,372.975,376.158,380.834,384.818,386.819,394.962,397.803,400.644,403.5324,405.614,411.013,415.7938,417.818,422.153,424.994,430.325,434.465,439.2458,441.27,444.452,449.93,451.912,455.094,460.777,465.5578,467.582,472.258,477.726,483.613,486.454,489.295,492.137,497.536,501.392,504.233,510.121" svgx:width="0.33,0.48,0.88,0.6,0.48,0.4,0.5,0.33,0.6,0.4,0.48,0.55,0.44,0.5,0.58,0.55,0.55,0.48,0.55,0.29,0.61,0.48,0.58,0.33,0.29,0.61,0.48,0.61,0.25,0.55,0.78,0.33,0.55,0.56,0.48,0.4,0.56,0.55,0.42,0.29,0.55,0.83,0.58,0.48,0.5,0.33,0.29,0.58,0.56,0.55,0.4,0.5,0.33,0.48,0.42,0.25,0.55,0.33,0.58,0.48,0.55,0.29,0.5,0.33,0.33,0.48,0.4,0.55,0.83,0.29,0.29,0.29,0.55,0.55,0.48,0.55,0.44,0.29,0.55,0.42,0.48,0.55,0.33,0.55,0.55,0.33,0.58,0.48,0.55,0.48,0.56,0.6,0.29,0.29,0.29,0.55,0.4,0.29,0.6,0.88" style="fill:rgb(0,0,0);font-family:URWPalladioL-Roma;font-size:9.96px;stroke:none;">temperature can be identiﬁed. At very slowheating rates, the latter will be close to the equilibrium</text>
   <text y="234.935" x="97.336,101.645,107.193,110.15,115.892,122.019,126.2022,129.569,132.882,137.75,146.723,152.83,157.697,161.711,166.792,170.105,176.233,180.064,184.931,187.42100000000002,193.213,201.119,207.328,213.537,216.494,219.807,222.764,228.312,234.226,239.307,242.19539999999998,245.496,250.363,255.607,261.714,266.582,270.596,273.553,282.526,287.393,293.307,296.62,300.8032,304.17,308.682,313.763,319.53979999999996,322.919,328.538,333.3188,336.648,342.755,347.622,351.636,355.02,360.569,364.583,373.555,378.423,384.4986,387.873,391.186,396.664,399.976,404.488,410.402,415.27,419.782,425.3596,428.673,437.148,443.063,447.93,451.243,457.157,462.025,466.00899999999996,469.27,474.25,477.592,482.104,487.653,496.626,502.733,505.69,510.558,513.87" svgx:width="0.42,0.55,0.29,0.56,0.6,0.42,0.55,0.33,0.48,0.88,0.6,0.48,0.4,0.5,0.33,0.6,0.4,0.48,0.25,0.55,0.78,0.61,0.61,0.29,0.33,0.29,0.55,0.58,0.5,0.29,0.55,0.48,0.52,0.6,0.48,0.4,0.29,0.88,0.48,0.58,0.33,0.42,0.55,0.44,0.5,0.58,0.55,0.55,0.48,0.55,0.6,0.48,0.4,0.33,0.55,0.4,0.88,0.48,0.61,0.55,0.33,0.55,0.55,0.44,0.58,0.48,0.44,0.56,0.55,0.83,0.58,0.48,0.33,0.58,0.48,0.4,0.55,0.5,0.55,0.44,0.55,0.88,0.6,0.29,0.48,0.33,0.48" style="fill:rgb(0,0,0);font-family:URWPalladioL-Roma;font-size:9.96px;stroke:none;">solvus temperature. Additional experiments can be performed to check whether a complete</text>
   <text y="248.444" x="97.336,103.545,106.502,110.811,115.119,120.668,123.625,129.752,133.065,136.022,141.571,147.3478,150.737,156.285,159.5718,162.931,166.243,172.158,176.9388,180.277,189.25,194.331,196.709,202.257,206.241,209.533,214.614,217.571,220.528,226.076,231.726,234.684,240.598,246.1756,249.5,254.367,257.324,262.192,271.165,276.032,281.946,285.259,289.4422,292.819,298.734,303.815,307.9982,311.385,317.005,321.872,326.74,332.5168,335.906,340.987,345.499,351.413,354.37,359.237,364.979,369.846,376.055,378.545,384.378,390.607,396.521,401.389,405.697,410.4778,413.827,418.908,425.117,431.326,434.283,437.595,440.552,446.101,452.015,457.096,459.9844,463.305,468.172,473.416,479.523,484.391,488.405,491.362,500.335,505.202,511.116,514.429" svgx:width="0.61,0.29,0.42,0.42,0.55,0.29,0.6,0.33,0.29,0.55,0.58,0.55,0.55,0.33,0.55,0.33,0.58,0.48,0.55,0.88,0.5,0.23,0.55,0.4,0.55,0.5,0.29,0.29,0.55,0.56,0.29,0.58,0.56,0.55,0.48,0.29,0.48,0.88,0.48,0.58,0.33,0.42,0.55,0.58,0.5,0.42,0.55,0.55,0.48,0.48,0.58,0.55,0.5,0.44,0.58,0.29,0.48,0.56,0.48,0.61,0.25,0.55,0.61,0.58,0.48,0.42,0.48,0.55,0.5,0.61,0.61,0.29,0.33,0.29,0.55,0.58,0.5,0.29,0.55,0.48,0.52,0.6,0.48,0.4,0.29,0.88,0.48,0.58,0.33,0.42" style="fill:rgb(0,0,0);font-family:URWPalladioL-Roma;font-size:9.96px;stroke:none;">dissolution of the major alloying elements has been achieved. These additional experiments</text>
   <text y="261.954" x="97.336,100.235,106.033,110.457,113.356,119.363,125.45,130.23080000000002,132.713,135.612,139.836,145.276,148.524,154.322,159.094,163.029,171.826,176.808,179.69639999999998,182.197,189.908,195.139,202.2106,204.693,210.78,216.788,220.723,223.622,229.42,234.99759999999998,237.45,241.674,247.114,252.095,257.634,260.533,266.331,271.90860000000004,274.361,282.67,285.569,288.817,294.615,297.514,303.2908,305.803,309.051,314.849,319.6298,322.112,328.1,331.855,336.628,342.256,345.156,350.595,356.603,360.827,363.726,369.3036,371.756,374.655,380.742,385.514,391.312,394.56,397.459,403.487,408.259,414.3346,416.837,420.084,424.856,433.653,439.641,444.413,448.348,453.33,456.577,462.585,466.341,471.1218,473.603,477.539,482.52,488.318,493.857,498.63" svgx:width="0.29,0.58,0.44,0.29,0.6,0.61,0.48,0.55,0.29,0.42,0.55,0.33,0.58,0.48,0.4,0.88,0.5,0.29,0.55,0.77,0.52,0.71,0.55,0.61,0.6,0.4,0.29,0.58,0.56,0.55,0.42,0.55,0.5,0.56,0.29,0.58,0.56,0.55,0.83,0.29,0.33,0.58,0.29,0.58,0.55,0.33,0.58,0.48,0.55,0.6,0.4,0.48,0.56,0.29,0.55,0.6,0.42,0.29,0.56,0.55,0.29,0.61,0.48,0.58,0.33,0.29,0.61,0.48,0.61,0.55,0.33,0.48,0.88,0.6,0.48,0.4,0.5,0.33,0.6,0.4,0.48,0.55,0.4,0.5,0.58,0.56,0.48,0.25" style="fill:rgb(0,0,0);font-family:URWPalladioL-Roma;font-size:9.96px;stroke:none;">include isothermal DSC during soaking within the previously identiﬁed temperature range.</text>
   <text y="285.167" x="76.535,81.516,84.007,88.988,91.478,94.966,101.611,106.034,111.573,114.891,117.661,123.2,128.739,133.162,138.702,142.5864,145.068,151.713,156.136,160.56,163.329,166.099,171.638,176.618,179.11,183.533,189.073,194.053,196.544,203.737,209.277,213.7,216.47,221.451,225.326,228.096,231.9804,234.462,238.886,241.6748,244.146,251.897,257.436,261.311,266.851,270.905,275.887,279.204,282.522,288.061,293.042,298.581,302.636,306.512,311.492,313.984,320.071,323.767,327.642,331.697,334.467,339.448,342.218,345.535,349.959,353.276,356.046,360.469" svgx:width="0.5,0.25,0.5,0.25,0.55,0.67,0.44,0.56,0.33,0.28,0.56,0.56,0.44,0.56,0.39,0.55,0.67,0.44,0.44,0.28,0.28,0.56,0.5,0.55,0.44,0.56,0.5,0.55,0.72,0.56,0.44,0.28,0.5,0.39,0.28,0.39,0.55,0.44,0.28,0.55,0.78,0.56,0.39,0.56,0.41,0.5,0.33,0.33,0.56,0.5,0.56,0.41,0.39,0.5,0.55,0.61,0.39,0.39,0.41,0.28,0.5,0.28,0.33,0.44,0.33,0.28,0.44,0.56" style="fill:rgb(0,0,0);font-family:URWPalladioL-Ital;font-size:9.96px;stroke:none;">7.3. Continuous Cooling and Analysis of Quench-Induced Precipitation</text>
   <text y="304.654" x="76.535" svgx:width="0.52" style="fill:rgb(0,0,0);font-family:Pxsy;font-size:9.96px;stroke:none;">•</text>
   <text y="304.654" x="97.336,105.201,111.329,115.343,118.3,124.214,129.7916,133.339,137.851,143.4,148.948,151.905,154.862,160.776,166.426,168.916,172.696,178.245,184.159,187.116,192.6936,196.251,201.119,206.363,211.911,215.224,221.138,226.005,230.019,238.992,241.949,246.3314,249.937,256.044,259.875,264.742,269.254,272.211,278.319,281.276,284.588,289.669,292.982,295.939,301.488,307.2648,310.887,316.436,320.948,325.459,331.587,335.601,339.91,342.40000000000003,346.169,355.142,360.223,365.873,368.83,374.744,380.32160000000005,383.88,386.837,392.751,396.064,400.931,404.945,411.053,414.884,419.751,423.064,428.145,431.458,434.415,439.963,445.7398,449.353,454.901,458.18780000000004,461.771,469.636,474.971,482.0426,485.651,490.163,495.711,501.259,504.217,507.174,513.088" svgx:width="0.77,0.6,0.4,0.29,0.58,0.56,0.55,0.44,0.55,0.55,0.29,0.29,0.58,0.56,0.25,0.55,0.55,0.58,0.29,0.56,0.55,0.48,0.52,0.55,0.33,0.58,0.48,0.4,0.88,0.29,0.44,0.55,0.6,0.4,0.48,0.44,0.29,0.6,0.29,0.33,0.5,0.33,0.29,0.55,0.58,0.55,0.55,0.44,0.44,0.6,0.4,0.42,0.25,0.55,0.88,0.5,0.56,0.29,0.58,0.56,0.55,0.29,0.58,0.33,0.48,0.4,0.6,0.4,0.48,0.33,0.5,0.33,0.29,0.55,0.58,0.55,0.55,0.33,0.55,0.77,0.52,0.71,0.55,0.44,0.55,0.55,0.29,0.29,0.58,0.56" style="fill:rgb(0,0,0);font-family:URWPalladioL-Roma;font-size:9.96px;stroke:none;">During cooling, only exothermic precipitation occurs, making interpretation of DSC cooling</text>
   <text y="318.163" x="97.336,101.848,107.975,111.989,117.731,122.598,126.7812,129.539,134.406,139.487,143.796,146.753,151.621,155.60500000000002,158.277,161.589,167.504,172.584,178.3608,181.131,184.514,190.063,194.047,196.719,204.584,209.919,216.9906,219.756,225.67,230.538,235.618,238.931,241.888,247.803,253.3806,256.095,260.606,266.734,270.748,276.489,281.357,285.666,288.156,292.129,300.583,306.132,314.607,319.474,325.216,330.083,333.365,335.855,338.578,341.535,347.3118,350.082,359.055,364.603,368.911,372.19780000000003,374.866,379.378,384.459,388.768,393.635,397.944,400.434,403.157,407.466,412.333,418.075,422.942,426.956,432.037,434.92539999999997,437.626,443.835" svgx:width="0.44,0.6,0.4,0.56,0.48,0.42,0.55,0.48,0.5,0.42,0.29,0.48,0.4,0.55,0.33,0.58,0.5,0.58,0.55,0.33,0.55,0.4,0.55,0.77,0.52,0.71,0.55,0.58,0.48,0.5,0.33,0.29,0.58,0.56,0.55,0.44,0.6,0.4,0.56,0.48,0.42,0.25,0.55,0.83,0.55,0.83,0.48,0.56,0.48,0.4,0.25,0.55,0.29,0.58,0.55,0.88,0.55,0.42,0.33,0.55,0.44,0.5,0.42,0.48,0.42,0.25,0.55,0.42,0.48,0.56,0.48,0.4,0.5,0.29,0.55,0.61,0.29" style="fill:rgb(0,0,0);font-family:URWPalladioL-Roma;font-size:9.96px;stroke:none;">curves easier than for DSC heating curves. However, in most cases, several di</text>
   <text y="318.163" x="446.793" svgx:width="0.61" style="fill:rgb(0,0,0);font-family:Rpxr;font-size:9.96px;stroke:none;">ﬀ</text>
   <text y="318.163" x="452.971,457.839,461.67,466.537,472.451,475.73780000000005,478.406,482.237,487.105,492.186,496.697,500.01,502.967,508.516,514.43" svgx:width="0.48,0.4,0.48,0.58,0.33,0.55,0.4,0.48,0.5,0.44,0.33,0.29,0.55,0.58,0.42" style="fill:rgb(0,0,0);font-family:URWPalladioL-Roma;font-size:9.96px;stroke:none;">erent reactions</text>
   <text y="331.672" x="97.336,102.792,108.438,113.224,117.171,120.079,125.075,131.081,133.571,136.077,141.073,146.889,152.96460000000002,155.482,158.74,164.555,169.342,172.25,176.234,178.695,184.8,189.587,194.023,199.479,205.295,210.941,216.397,219.304,225.33,228.587,231.495,236.951,242.7278,245.255,254.078,259.074,264.65160000000003,267.128,272.654,277.4348,279.929,284.365,290.181,295.177,298.085,300.993,305.779,311.595,317.151,320.059,325.874,331.43,333.92,337.425,346.878,352.904,355.812,359.069,361.977,367.982,370.89,375.6708,378.175,381.942,386.728,391.725,396.161,399.419,402.327,407.783,413.598,417.7812,420.323,425.779,430.216,434.652,440.678,444.625,448.572,451.48,457.295,462.87260000000003,465.349,469.586,474.372,479.968,485.994,490.78,496.596,499.853,502.761,507.757,510.665,513.573" svgx:width="0.55,0.56,0.48,0.4,0.29,0.5,0.6,0.25,0.55,0.5,0.58,0.61,0.55,0.33,0.58,0.48,0.29,0.4,0.55,0.61,0.48,0.44,0.55,0.58,0.56,0.55,0.29,0.6,0.33,0.29,0.55,0.58,0.55,0.88,0.5,0.56,0.55,0.55,0.48,0.55,0.44,0.58,0.5,0.29,0.29,0.48,0.58,0.56,0.29,0.58,0.56,0.25,0.55,0.95,0.6,0.29,0.33,0.29,0.6,0.29,0.48,0.55,0.4,0.48,0.5,0.44,0.33,0.29,0.55,0.58,0.42,0.55,0.55,0.44,0.44,0.6,0.4,0.4,0.29,0.58,0.56,0.55,0.42,0.48,0.56,0.6,0.48,0.58,0.33,0.29,0.5,0.29,0.29,0.56" style="fill:rgb(0,0,0);font-family:URWPalladioL-Roma;font-size:9.96px;stroke:none;">overlap, and their deconvolution may be challenging. Multiple reactions occurring sequentially</text>
   <text y="345.182" x="96.918,105.227,109.999,113.755,118.5358,121.018,127.105,131.877,135.125,139.897,144.32,147.568,152.34,158.4156,160.918,164.235,169.675,173.65900000000002,176.101,181.082,183.981,186.86939999999998,189.371,194.352,197.251,200.15,205.59,211.129,215.3122,217.844,220.743,226.541,232.17,236.942,241.166,244.414,247.313,252.853,257.834,261.082,265.854,271.941" svgx:width="0.83,0.48,0.4,0.48,0.55,0.61,0.48,0.33,0.48,0.44,0.33,0.48,0.61,0.55,0.33,0.55,0.4,0.55,0.5,0.29,0.29,0.55,0.5,0.29,0.29,0.55,0.56,0.42,0.55,0.29,0.58,0.56,0.48,0.42,0.33,0.29,0.56,0.5,0.33,0.48,0.61,0.25" style="fill:rgb(0,0,0);font-family:URWPalladioL-Roma;font-size:9.96px;stroke:none;">were detected for all alloys investigated.</text>
   <text y="359.688" x="76.535" svgx:width="0.52" style="fill:rgb(0,0,0);font-family:Pxsy;font-size:9.96px;stroke:none;">•</text>
   <text y="359.688" x="97.336,103.333,109.027,113.8078,116.208,121.902,126.793,129.983,135.882,139.57,144.3508,146.742,151.633,157.327,163.4026,165.799,171.239,174.086,179.78,184.466,187.655,190.502,194.846,199.0292,201.489,206.83,210.1168,212.583,218.062,223.961,228.647,234.341,238.685,244.379,247.636,250.483,256.177,262.155,268.054,272.398,277.084,283.1596,285.556,291.436,295.115,299.801,304.145,306.992,312.871,315.718,318.908,323.799,326.989,331.675,335.8582,338.318,341.164,346.94079999999997,349.353,354.245,359.684,364.37,367.628,373.322,378.214,381.902,387.88,392.566,398.26,401.107,406.801,412.3786,414.735,422.346,425.193,428.451,433.343,436.189,439.036,444.378,449.818,454.0012,456.451,464.61,469.296,472.984,477.7648,480.165,485.057,490.751,495.642,498.489,503.929,508.077,512.763" svgx:width="0.61,0.58,0.48,0.55,0.58,0.5,0.33,0.6,0.4,0.48,0.55,0.5,0.58,0.61,0.55,0.56,0.29,0.58,0.48,0.33,0.29,0.44,0.42,0.55,0.55,0.33,0.55,0.56,0.6,0.48,0.58,0.44,0.58,0.33,0.29,0.58,0.61,0.6,0.44,0.48,0.61,0.55,0.6,0.4,0.48,0.44,0.29,0.6,0.29,0.33,0.5,0.33,0.48,0.42,0.55,0.29,0.58,0.55,0.5,0.56,0.48,0.33,0.58,0.5,0.4,0.61,0.48,0.58,0.29,0.58,0.56,0.55,0.78,0.29,0.33,0.5,0.29,0.29,0.55,0.56,0.42,0.55,0.83,0.48,0.4,0.48,0.55,0.5,0.58,0.5,0.29,0.56,0.42,0.48,0.61" style="fill:rgb(0,0,0);font-family:URWPalladioL-Roma;font-size:9.96px;stroke:none;">The nature and kinetics of quench-induced precipitates in age-hardening Al-alloys were analysed</text>
   <text y="373.197" x="97.336,100.72,106.268,110.252,113.321,118.402,123.382,126.521,132.73" svgx:width="0.33,0.55,0.4,0.55,0.5,0.5,0.55,0.61,0.29" style="fill:rgb(0,0,0);font-family:URWPalladioL-Roma;font-size:9.96px;stroke:none;">for 27 di</text>
   <text y="373.197" x="135.686" svgx:width="0.61" style="fill:rgb(0,0,0);font-family:Rpxr;font-size:9.96px;stroke:none;">ﬀ</text>
   <text y="373.197" x="141.865,146.733,150.564,155.431,161.345,164.6318,167.696,172.777,175.734,178.692,184.24,189.89,194.199,196.68900000000002,199.92,205.001,210.915,216.9906,220.162,225.782,231.33,234.643,240.4198,243.595,249.804" svgx:width="0.48,0.4,0.48,0.58,0.33,0.55,0.5,0.29,0.29,0.55,0.56,0.42,0.25,0.55,0.5,0.58,0.61,0.55,0.55,0.55,0.33,0.58,0.55,0.61,0.29" style="fill:rgb(0,0,0);font-family:URWPalladioL-Roma;font-size:9.96px;stroke:none;">erent alloys, and both di</text>
   <text y="373.197" x="252.757" svgx:width="0.61" style="fill:rgb(0,0,0);font-family:Rpxr;font-size:9.96px;stroke:none;">ﬀ</text>
   <text y="373.197" x="258.936,263.804,267.635,272.502,278.416,282.928,287.796,291.9792,295.143,300.224,306.138,312.2136,315.385,319.694,322.651,331.624,334.581,337.538,342.619,346.633,349.59,352.903,355.86,360.727,364.9102,368.074,376.549,381.417,385.248,390.0288,393.154,396.111,402.32,407.187,413.101,416.414,419.371,425.519,430.387,436.4626,439.634,445.253,450.121,453.434,461.909,466.776,471.644,477.4208,480.596,486.805" svgx:width="0.48,0.4,0.48,0.58,0.44,0.48,0.42,0.55,0.5,0.58,0.61,0.55,0.42,0.29,0.88,0.29,0.29,0.5,0.4,0.29,0.33,0.29,0.48,0.42,0.55,0.83,0.48,0.4,0.48,0.55,0.29,0.61,0.48,0.58,0.33,0.29,0.61,0.48,0.61,0.55,0.55,0.48,0.33,0.83,0.48,0.48,0.58,0.55,0.61,0.29" style="fill:rgb(0,0,0);font-family:URWPalladioL-Roma;font-size:9.96px;stroke:none;">erences and similarities were identiﬁed between di</text>
   <text y="373.197" x="489.765" svgx:width="0.61" style="fill:rgb(0,0,0);font-family:Rpxr;font-size:9.96px;stroke:none;">ﬀ</text>
   <text y="373.197" x="495.944,500.812,504.643,509.51,515.424" svgx:width="0.48,0.4,0.48,0.58,0.33" style="fill:rgb(0,0,0);font-family:URWPalladioL-Roma;font-size:9.96px;stroke:none;">erent</text>
   <text y="386.706" x="97.336,102.317,105.216,108.116,113.555,119.094,121.993,127.792,133.3696,135.822,140.046,145.585,149.809,153.057,157.829,166.626,170.85" svgx:width="0.5,0.29,0.29,0.55,0.56,0.29,0.58,0.56,0.55,0.42,0.56,0.42,0.33,0.48,0.88,0.42,0.25" style="fill:rgb(0,0,0);font-family:URWPalladioL-Roma;font-size:9.96px;stroke:none;">alloying systems:</text>
   <text y="412.171" code="35" x="97.336" svgx:width="0.78" style="fill:rgb(0,0,0);font-family:wasy10;font-size:9.96px;stroke:none;">?</text>
   <text y="412.171" x="128.359,136.103,142.045,146.764,152.499,156.874,162.608,165.889,168.756,174.491,180.511,186.452,190.827,195.547,201.6226,204.079,210.001,213.706,218.425,222.8,225.667,231.589,234.456,237.668,242.595,245.807,248.674,254.054,259.8308,262.301,267.681,272.055,276.43,282.371,286.263,290.4462,292.953,297.88,301.1668,303.605,309.053,314.433,317.645,323.38,325.87,328.355,333.834,337.726,342.652,345.519,351.2958,353.766,359.215,364.595,370.536,376.271,382.291,387.217,391.109,393.976,398.696,402.8792,405.376,410.303,416.037,422.1126,424.57,430.492,434.206,438.926,444.946,450.326,459.026,461.893,467.628,472.554,478.289,481.501,484.368,489.9456,492.359,495.226,500.96,505.138,507.995,514.025" svgx:width="0.79,0.6,0.48,0.58,0.44,0.58,0.33,0.29,0.58,0.61,0.6,0.44,0.48,0.61,0.55,0.6,0.4,0.48,0.44,0.29,0.6,0.29,0.33,0.5,0.33,0.29,0.55,0.58,0.55,0.55,0.44,0.44,0.6,0.4,0.42,0.55,0.5,0.33,0.55,0.55,0.55,0.33,0.58,0.25,0.55,0.56,0.4,0.5,0.29,0.58,0.55,0.55,0.55,0.6,0.58,0.61,0.5,0.4,0.29,0.48,0.42,0.55,0.5,0.58,0.61,0.55,0.6,0.4,0.48,0.61,0.55,0.88,0.29,0.58,0.5,0.58,0.33,0.29,0.56,0.55,0.29,0.58,0.42,0.29,0.61,0.48" style="fill:rgb(0,0,0);font-family:URWPalladioL-Roma;font-size:9.96px;stroke:none;">Quench-induced precipitation occurs at both, grain boundaries and predominantly inside</text>
   <text y="425.68" x="128.359,133.898,137.833,142.815,145.714,151.512,155.736,158.226,161.714,167.821,173.619,178.3998,180.882,183.781,188.762,192.01,195.258,200.03,204.014,206.456,212.443,217.425,221.36,224.608,227.507,231.93,237.938,240.837,245.818,249.753,252.652,258.2296,260.682,266.48,271.92,274.819,280.906,285.0892,287.621,290.939,296.378,300.36199999999997,302.804,308.343,312.279,317.26,320.159,325.9358,328.448,332.672,335.571,340.552,345.324,349.5072,352.039,357.021,362.53,367.969,373.598,378.3788,380.861,385.085,389.857,395.486,400.258,404.194,409.175,412.0634,414.565,417.812,422.585,428.383,432.5662,435.098,440.537" svgx:width="0.56,0.4,0.5,0.29,0.58,0.42,0.25,0.55,0.61,0.58,0.48,0.55,0.29,0.5,0.33,0.33,0.48,0.4,0.55,0.6,0.5,0.4,0.33,0.29,0.44,0.6,0.29,0.5,0.4,0.29,0.56,0.55,0.58,0.55,0.29,0.61,0.42,0.55,0.33,0.55,0.4,0.55,0.56,0.4,0.5,0.29,0.58,0.55,0.42,0.29,0.5,0.48,0.42,0.55,0.5,0.55,0.55,0.56,0.48,0.55,0.42,0.48,0.56,0.48,0.4,0.5,0.29,0.55,0.33,0.48,0.58,0.42,0.55,0.55,0.33" style="fill:rgb(0,0,0);font-family:URWPalladioL-Roma;font-size:9.96px;stroke:none;">grains. The latter particularly holds for grain sizes above several tens of</text>
   <text y="425.68" x="446.342" svgx:width="0.62" style="fill:rgb(0,0,0);font-family:EURM10;font-size:9.96px;stroke:none;">µ</text>
   <text y="425.68" x="452.496,461.293" svgx:width="0.88,0.25" style="fill:rgb(0,0,0);font-family:URWPalladioL-Roma;font-size:9.96px;stroke:none;">m.</text>
   <text y="440.186" code="35" x="97.336" svgx:width="0.78" style="fill:rgb(0,0,0);font-family:wasy10;font-size:9.96px;stroke:none;">?</text>
   <text y="440.186" x="128.359,136.795,142.917,147.424,150.378,155.241,160.317,163.627,166.581,172.124,177.9008,180.53,186.072,189.3588,191.95,197.635,203.757,208.62,214.528,219.036,224.944,228.325,231.279,237.187,243.39,249.512,254.019,258.882,264.9576,267.582,273.683,277.511,282.373,286.881,289.835,295.936,298.891,302.2,307.276,310.585,313.54,319.083,324.8598,327.488,333.133,337.996,343.904,348.767,352.777,357.853,360.807,363.761,369.33860000000004,371.903,377.446,381.953,386.461,392.582,396.592,400.7752,403.384,408.927,414.7038,417.333,422.195,427.434,430.388,434.692,438.002,440.956,446.864,452.4416,455.006,459.514,463.524,469.168,473.473,476.782,481.858,484.7464,487.31,493.512,498.375,501.756,506.619,511.126,514.436" svgx:width="0.83,0.6,0.44,0.29,0.48,0.5,0.33,0.29,0.55,0.58,0.55,0.55,0.33,0.55,0.56,0.6,0.48,0.58,0.44,0.58,0.33,0.29,0.58,0.61,0.6,0.44,0.48,0.61,0.55,0.6,0.4,0.48,0.44,0.29,0.6,0.29,0.33,0.5,0.33,0.29,0.55,0.58,0.55,0.56,0.48,0.58,0.48,0.4,0.5,0.29,0.29,0.56,0.55,0.55,0.44,0.44,0.6,0.4,0.42,0.55,0.55,0.58,0.55,0.48,0.52,0.29,0.42,0.33,0.29,0.58,0.56,0.55,0.44,0.4,0.56,0.42,0.33,0.5,0.29,0.55,0.61,0.48,0.33,0.48,0.44,0.33,0.42" style="fill:rgb(0,0,0);font-family:URWPalladioL-Roma;font-size:9.96px;stroke:none;">Nucleation of quench-induced precipitation generally occurs on existing crystal defects</text>
   <text y="453.695" x="128.359,132.583,138.591,143.014,148.79080000000002,151.303,156.284,160.4672,162.999,168.538,172.473,177.455,180.354,186.13080000000002,188.643,194.152,199.592,205.599,211.397,217.484,222.466,226.401,229.3,234.072,238.296,240.786,243.277,249.265,253.2,256.099,264.896,269.878,273.813,279.3906,281.843,287.83,291.586,296.358,300.782,303.681,309.668,312.567,315.815,320.797,324.044,328.816,332.9992,335.531,340.513,346.311,352.3866,354.889,360.976,363.875,368.099,374.086,378.859,382.794,387.018,392.458,395.357,401.444,405.668" svgx:width="0.42,0.6,0.44,0.58,0.55,0.5,0.42,0.55,0.56,0.4,0.5,0.29,0.58,0.55,0.55,0.55,0.6,0.58,0.61,0.5,0.4,0.29,0.48,0.42,0.25,0.55,0.6,0.4,0.29,0.88,0.5,0.4,0.56,0.55,0.6,0.4,0.48,0.44,0.29,0.6,0.29,0.33,0.5,0.33,0.48,0.42,0.55,0.5,0.58,0.61,0.55,0.61,0.29,0.42,0.6,0.48,0.4,0.42,0.55,0.29,0.61,0.42,0.25" style="fill:rgb(0,0,0);font-family:URWPalladioL-Roma;font-size:9.96px;stroke:none;">such as grain boundaries, primary precipitates and dispersoids.</text>
   <text y="468.201" code="35" x="97.336" svgx:width="0.78" style="fill:rgb(0,0,0);font-family:wasy10;font-size:9.96px;stroke:none;">?</text>
   <text y="468.201" x="128.359,136.265,139.5518,142.504,148.418,151.376,157.026,162.80280000000002,165.866,169.179,174.047,183.02,189.127,193.994,198.008,203.089,206.402,212.53,216.371,221.238,225.4212,228.474" svgx:width="0.78,0.33,0.55,0.58,0.29,0.56,0.58,0.55,0.33,0.48,0.88,0.6,0.48,0.4,0.5,0.33,0.6,0.4,0.48,0.42,0.55,0.33" style="fill:rgb(0,0,0);font-family:URWPalladioL-Roma;font-size:9.96px;stroke:none;">At high temperatures (</text>
   <text y="468.201" x="231.854" svgx:width="0.67" style="fill:rgb(0,0,0);font-family:Pxsy;font-size:9.96px;stroke:none;">≈</text>
   <text y="468.201" x="238.519,243.6,248.681,253.762,258.843,263.924,269.005" svgx:width="0.5,0.5,0.5,0.5,0.5,0.5,0.5" style="fill:rgb(0,0,0);font-family:URWPalladioL-Roma;font-size:9.96px;stroke:none;">500–350</text>
   <text y="464.585" x="277.014" svgx:width="0.52" style="fill:rgb(0,0,0);font-family:Pxsy;font-size:7.57px;stroke:none;">◦</text>
   <text y="468.201" x="281.472,288.677,292.061,294.551,297.528,300.84,306.755,311.5358,314.549,318.857,322.17,327.251,332.871,335.828,340.6088,343.622,348.489,354.18,360.308,363.265,366.222,369.179,374.798,378.812,381.769,387.897,396.66179999999997,399.797,405.904,411.818,416.899,421.208,426.075,430.2582,433.32,438.869,442.15580000000006,445.179,448.492,454.406,459.1868,462.2,467.281,470.238,473.196,478.744,484.32160000000005,487.321,491.629,497.279,501.588,504.901,509.768" svgx:width="0.71,0.33,0.25,0.55,0.33,0.58,0.48,0.55,0.42,0.33,0.5,0.55,0.29,0.48,0.55,0.48,0.56,0.6,0.29,0.29,0.29,0.55,0.4,0.29,0.6,0.88,0.55,0.6,0.58,0.5,0.42,0.48,0.42,0.55,0.55,0.33,0.55,0.33,0.58,0.48,0.55,0.5,0.29,0.29,0.55,0.56,0.55,0.42,0.56,0.42,0.33,0.48,0.88" style="fill:rgb(0,0,0);font-family:URWPalladioL-Roma;font-size:9.96px;stroke:none;">C), the stable equilibrium phases of the alloy system</text>
   <text y="481.71" x="128.06,134.012,137.745,142.488,146.885,149.767,155.719,158.6,161.829,166.78,170.008,174.7888,177.237,182.189,186.3722,188.873,193.27,198.677,203.628,207.54,211.739,216.5198,218.968,224.92,229.871,233.783,237.011,239.893,244.289,247.171,251.915,256.0982,258.599,266.858,269.74,272.968,278.7448,281.217,286.197,288.654,291.536,296.943,307.687,312.639,316.838,322.789,327.533,331.929,335.2158,337.643,341.555,346.506,349.735,352.616,358.094,360.509,363.807,368.758,372.957,378.908,383.652,388.049,391.3358,393.763,397.674,402.626,405.854,408.736,414.143" svgx:width="0.6,0.4,0.48,0.44,0.29,0.6,0.29,0.33,0.5,0.33,0.48,0.55,0.5,0.42,0.55,0.44,0.55,0.5,0.4,0.42,0.48,0.55,0.6,0.5,0.4,0.33,0.29,0.44,0.29,0.48,0.42,0.55,0.83,0.29,0.33,0.58,0.55,0.5,0.55,0.29,0.55,0.83,0.5,0.42,0.6,0.48,0.44,0.33,0.55,0.4,0.5,0.33,0.29,0.55,0.55,0.33,0.5,0.42,0.6,0.48,0.44,0.33,0.55,0.4,0.5,0.33,0.29,0.55,0.42" style="fill:rgb(0,0,0);font-family:URWPalladioL-Roma;font-size:9.96px;stroke:none;">precipitate as coarse particles with a lowaspect ratio (aspect ratios</text>
   <text y="481.71" x="420.831" svgx:width="0.67" style="fill:rgb(0,0,0);font-family:Rpxr;font-size:9.96px;stroke:none;">=</text>
   <text y="481.71" x="429.942,432.824,437.567,443.331,448.837,452.065" svgx:width="0.29,0.48,0.58,0.56,0.33,0.58" style="fill:rgb(0,0,0);font-family:URWPalladioL-Roma;font-size:9.96px;stroke:none;">length</text>
   <text y="481.71" x="457.828" svgx:width="0.29" style="fill:rgb(0,0,0);font-family:Rpxr;font-size:9.96px;stroke:none;">/</text>
   <text y="481.71" x="463.157,466.455,469.683,475.446,478.328,482.725,488.231,493.994,498.738,502.937,507.1202,509.621,515.028" svgx:width="0.33,0.33,0.58,0.29,0.44,0.56,0.58,0.48,0.42,0.42,0.55,0.55,0.4" style="fill:rgb(0,0,0);font-family:URWPalladioL-Roma;font-size:9.96px;stroke:none;">(thickness or</text>
   <text y="495.22" x="128.359,134.446,137.345,142.327,151.124,155.896,159.143,163.915,167.851,171.1378,173.659,176.558,180.7412,183.273,188.254,193.763,199.203,205.21,208.4968,210.949,215.929,218.421,221.669,227.14700000000002,229.599,234.58,237.898,240.388,242.879,247.86,253.659,259.7346,262.236,268.035,274.042,278.465,281.365,286.137,291.118,294.366,297.265,302.704,308.4808,310.993,316.433,320.856,325.28,331.287,335.222,339.4052,341.937,347.377,353.1538,355.666,360.089,365.529,370.51,374.445,378.669,383.4498,385.932,391.92,395.855,398.754,407.551,412.532,416.467,422.0446,424.497,430.485,435.466,439.401,442.649,445.548,449.972,452.871,457.643,461.867" svgx:width="0.61,0.29,0.5,0.88,0.48,0.33,0.48,0.4,0.33,0.55,0.29,0.42,0.55,0.5,0.55,0.55,0.6,0.33,0.55,0.5,0.55,0.33,0.55,0.55,0.5,0.33,0.25,0.55,0.5,0.58,0.61,0.55,0.58,0.6,0.44,0.29,0.48,0.5,0.33,0.29,0.55,0.58,0.55,0.55,0.44,0.44,0.6,0.4,0.42,0.55,0.55,0.58,0.55,0.44,0.55,0.5,0.4,0.42,0.48,0.55,0.6,0.4,0.29,0.88,0.5,0.4,0.56,0.55,0.6,0.5,0.4,0.33,0.29,0.44,0.29,0.48,0.42,0.25" style="fill:rgb(0,0,0);font-family:URWPalladioL-Roma;font-size:9.96px;stroke:none;">diameter) is about 1 to 5), and nucleation occurs on coarse primary particles.</text>
   <text y="509.725" code="35" x="97.336" svgx:width="0.78" style="fill:rgb(0,0,0);font-family:wasy10;font-size:9.96px;stroke:none;">?</text>
   <text y="509.725" x="128.359,136.265,139.5518,143.134,152.107,156.975,163.184,166.141,172.268,181.0328,184.808,188.121,192.978,201.951,208.058,212.926,216.94,222.021,225.333,231.461,235.302,240.17,244.3532,248.035" svgx:width="0.78,0.33,0.55,0.88,0.48,0.61,0.29,0.6,0.88,0.55,0.33,0.48,0.88,0.6,0.48,0.4,0.5,0.33,0.6,0.4,0.48,0.42,0.55,0.33" style="fill:rgb(0,0,0);font-family:URWPalladioL-Roma;font-size:9.96px;stroke:none;">At medium temperatures (</text>
   <text y="509.725" x="251.42" svgx:width="0.67" style="fill:rgb(0,0,0);font-family:Pxsy;font-size:9.96px;stroke:none;">≈</text>
   <text y="509.725" x="258.085,263.166,268.247,273.328,278.409,283.49,288.571" svgx:width="0.5,0.5,0.5,0.5,0.5,0.5,0.5" style="fill:rgb(0,0,0);font-family:URWPalladioL-Roma;font-size:9.96px;stroke:none;">350–200</text>
   <text y="506.109" x="297.211" svgx:width="0.52" style="fill:rgb(0,0,0);font-family:Pxsy;font-size:7.57px;stroke:none;">◦</text>
   <text y="509.725" x="301.669,308.874,312.16080000000005,315.814,318.771,324.5478,328.242,331.555,337.469,342.2498,345.904,353.809,356.767,366.38,372.03,377.365,380.2534,383.878,388.187,393.837,398.146,401.458,406.326,415.299,417.789,421.67,427.778,431.609,436.476,440.988,443.945,450.052,453.009,456.322,461.403,464.716,467.673,473.221,478.9978,482.692,488.241,491.5278,495.181,504.794,510.444,515.779" svgx:width="0.71,0.33,0.55,0.29,0.58,0.55,0.33,0.58,0.48,0.55,0.78,0.29,0.95,0.56,0.52,0.29,0.55,0.42,0.56,0.42,0.33,0.48,0.88,0.25,0.55,0.6,0.4,0.48,0.44,0.29,0.6,0.29,0.33,0.5,0.33,0.29,0.55,0.58,0.55,0.55,0.33,0.55,0.95,0.56,0.52,0.29" style="fill:rgb(0,0,0);font-family:URWPalladioL-Roma;font-size:9.96px;stroke:none;">C) in the AlMgSi system, precipitation of MgSi</text>
   <text y="523.235" x="128.06,133.94,137.628,142.314,146.658,152.557,156.422,160.57,165.911,169.895,172.261,178.141,183.834,188.726,192.874,197.56,201.7432,204.193,209.535,213.879,218.223,224.122,227.986,232.1692,234.61,239.501,243.6842,246.134,249.823,255.164,261.142,265.3252,267.775,275.934,278.781,281.97,287.7468,290.149,295.041,299.189,305.069,309.755,314.099,317.3858,319.773,323.637,328.529,331.718,334.565,339.907,344.0902,346.54,351.882,355.16880000000003,357.625,362.516,367.926,373.268,379.167,382.4538,384.842,389.733,394.625,397.115,400.554,403.851,409.6278,412.029,415.219,420.913,425.6938,428.084,435.695,438.542,445.068,450.761,460.016,465.456,468.714,475.65,481.549,484.8358,487.292,491.44,496.88,501.028,504.217,508.903,517.542" svgx:width="0.6,0.4,0.48,0.44,0.6,0.4,0.42,0.55,0.4,0.55,0.6,0.58,0.5,0.42,0.48,0.42,0.55,0.55,0.44,0.44,0.6,0.4,0.42,0.55,0.5,0.42,0.55,0.4,0.55,0.61,0.42,0.55,0.83,0.29,0.33,0.58,0.55,0.5,0.42,0.6,0.48,0.44,0.33,0.55,0.4,0.5,0.33,0.29,0.55,0.42,0.55,0.55,0.33,0.55,0.5,0.55,0.55,0.6,0.33,0.55,0.5,0.5,0.25,0.55,0.34,0.58,0.55,0.33,0.58,0.48,0.55,0.78,0.29,0.67,0.58,0.95,0.56,0.33,0.71,0.6,0.33,0.55,0.42,0.56,0.42,0.33,0.48,0.88,0.25" style="fill:rgb(0,0,0);font-family:URWPalladioL-Roma;font-size:9.96px;stroke:none;">precursor phases occurs as rods with aspect ratios of about 10. In the AlZnMg(Cu) system,</text>
   <text y="536.744" x="128.06,134.024,137.764,142.517,146.923,149.811,155.774,158.662,161.897,166.858,170.093,172.98,178.398,184.1748,186.664,192.082,195.3688,197.886,201.121,206.896" svgx:width="0.6,0.4,0.48,0.44,0.29,0.6,0.29,0.33,0.5,0.33,0.29,0.55,0.58,0.55,0.55,0.33,0.55,0.33,0.58,0.48" style="fill:rgb(0,0,0);font-family:URWPalladioL-Roma;font-size:9.96px;stroke:none;">precipitation of the</text>
   <text y="536.744" x="214.143" svgx:width="0.56" style="fill:rgb(0,0,0);font-family:EURM10;font-size:9.96px;stroke:none;">η</text>
   <text y="536.744" x="219.724,223.028,232.415,237.932,241.237,247.855,253.63,256.111,263.831,266.718,269.199,276.234,282.217" svgx:width="0.33,0.95,0.56,0.33,0.67,0.58,0.25,0.78,0.29,0.25,0.71,0.6,0.33" style="fill:rgb(0,0,0);font-family:URWPalladioL-Roma;font-size:9.96px;stroke:none;">-Mg(Zn,Al,Cu)</text>
   <text y="538.609" x="285.521" svgx:width="0.5" style="fill:rgb(0,0,0);font-family:URWPalladioL-Roma;font-size:7.57px;stroke:none;">2</text>
   <text y="536.744" x="292.301,298.265,304.04,309.001,313.208,317.9888,320.452,325.87,330.275,334.681,340.664,344.584,348.7672,351.292,356.253,360.4362,362.951,368.914,371.802,376.763,379.998,384.751,388.9342,391.459,399.734,402.622,405.857,411.6338,414.122,419.084,423.291,429.255,434.008,438.413,441.69980000000004,444.149,448.068,453.03,456.264,459.152,464.57,468.7532,471.267,476.685,479.97180000000003,482.49,488.474,494.45,496.928,500.162,505.64,508.081,513.042,518.004" svgx:width="0.6,0.58,0.5,0.42,0.48,0.55,0.55,0.44,0.44,0.6,0.4,0.42,0.55,0.5,0.42,0.55,0.6,0.29,0.5,0.33,0.48,0.42,0.55,0.83,0.29,0.33,0.58,0.55,0.5,0.42,0.6,0.48,0.44,0.33,0.55,0.4,0.5,0.33,0.29,0.55,0.42,0.55,0.55,0.33,0.55,0.6,0.6,0.55,0.33,0.55,0.55,0.5,0.5,0.25" style="fill:rgb(0,0,0);font-family:URWPalladioL-Roma;font-size:9.96px;stroke:none;">phase occurs as plates with aspect ratios of up to 10.</text>
   <text y="550.254" x="128.359,131.773,137.5498,140.163,145.766,151.298,154.601,160.3778,163.0,168.066,171.015,173.963,179.495,185.0726,187.621,191.917,197.55,201.846,205.149,210.002,218.949,223.245,225.735,228.28,233.954,240.064,244.917,250.814,255.313,261.209,264.583,267.532,273.428,279.619,285.729,290.227,295.081,301.1566,303.764,309.853,313.683,318.536,323.035,325.983,332.072,335.021,338.324,343.39,346.693,349.641,355.173,360.9498,363.562,368.628,371.9148,374.434,383.381,388.234,394.424,397.373,403.472,412.23679999999996,414.921,418.224,423.078,432.024,438.113,442.967,446.969,452.035,455.338,461.447,465.267,470.12,474.3032,476.919,482.816,488.925,493.424,496.372,501.225,506.291,509.594,514.448" svgx:width="0.34,0.58,0.55,0.55,0.55,0.33,0.58,0.55,0.5,0.29,0.29,0.55,0.56,0.55,0.42,0.56,0.42,0.33,0.48,0.88,0.42,0.25,0.55,0.56,0.6,0.48,0.58,0.44,0.58,0.33,0.29,0.58,0.61,0.6,0.44,0.48,0.61,0.55,0.6,0.4,0.48,0.44,0.29,0.6,0.29,0.33,0.5,0.33,0.29,0.55,0.58,0.55,0.5,0.33,0.55,0.88,0.48,0.61,0.29,0.6,0.88,0.55,0.33,0.48,0.88,0.6,0.48,0.4,0.5,0.33,0.6,0.4,0.48,0.42,0.55,0.58,0.6,0.44,0.29,0.48,0.5,0.33,0.48,0.42" style="fill:rgb(0,0,0);font-family:URWPalladioL-Roma;font-size:9.96px;stroke:none;">In both alloy systems, quench-induced precipitation at medium temperatures nucleates</text>
   <text y="563.763" x="128.359,133.799,139.57580000000002,142.087,148.175,151.074,155.298,161.285,166.057,169.993,174.217,179.656,182.555,188.643,192.867" svgx:width="0.55,0.58,0.55,0.61,0.29,0.42,0.6,0.48,0.4,0.42,0.55,0.29,0.61,0.42,0.25" style="fill:rgb(0,0,0);font-family:URWPalladioL-Roma;font-size:9.96px;stroke:none;">on dispersoids.</text>
   <text y="578.269" code="35" x="97.336" svgx:width="0.78" style="fill:rgb(0,0,0);font-family:wasy10;font-size:9.96px;stroke:none;">?</text>
   <text y="578.269" x="128.359,136.079,139.3658,141.794,144.682,150.1,158.36679999999998,160.856,164.091,168.844,177.606,183.569,188.322,192.242,197.203,200.438,206.421,210.162,214.915,219.0982,221.603" svgx:width="0.78,0.33,0.55,0.29,0.55,0.83,0.55,0.33,0.48,0.88,0.6,0.48,0.4,0.5,0.33,0.6,0.4,0.48,0.42,0.55,0.33" style="fill:rgb(0,0,0);font-family:URWPalladioL-Roma;font-size:9.96px;stroke:none;">At low temperatures (</text>
   <text y="578.269" x="224.909" svgx:width="0.67" style="fill:rgb(0,0,0);font-family:Pxsy;font-size:9.96px;stroke:none;">≈</text>
   <text y="578.269" x="231.574,236.535,241.497,246.458,251.42,256.381,261.342" svgx:width="0.5,0.5,0.5,0.5,0.5,0.5,0.5" style="fill:rgb(0,0,0);font-family:URWPalladioL-Roma;font-size:9.96px;stroke:none;">250–150</text>
   <text y="574.652" x="268.785" svgx:width="0.52" style="fill:rgb(0,0,0);font-family:Pxsy;font-size:7.57px;stroke:none;">◦</text>
   <text y="578.269" x="273.243,280.278,283.56480000000005,286.063,288.951,294.7278,297.206,300.441,306.216,310.9968,313.45,321.17,324.057,330.676,336.451,345.838,351.355,354.659,361.694,367.678,370.9648,373.463,377.67,383.187,387.394,390.629,395.382,404.144,406.634,409.115,412.35,418.125,421.013,426.78979999999996,429.268,435.232,438.119,443.081,446.316,451.069,455.2522,457.756,462.509,468.285,472.204,475.092,479.497,485.272,490.025,496.1006,498.569,506.844,509.732,512.967" svgx:width="0.71,0.33,0.55,0.29,0.58,0.55,0.33,0.58,0.48,0.55,0.78,0.29,0.67,0.58,0.95,0.56,0.33,0.71,0.6,0.33,0.55,0.42,0.56,0.42,0.33,0.48,0.88,0.25,0.55,0.33,0.58,0.29,0.58,0.55,0.6,0.29,0.5,0.33,0.48,0.42,0.55,0.48,0.58,0.4,0.29,0.44,0.58,0.48,0.61,0.55,0.83,0.29,0.33,0.58" style="fill:rgb(0,0,0);font-family:URWPalladioL-Roma;font-size:9.96px;stroke:none;">C) in the AlZnMg(Cu) system, thin plates enriched with</text>
   <text y="591.778" x="128.359,135.564,141.54,144.781,149.861,155.776,161.85160000000002,165.074,171.852,177.6288,180.865,189.34,194.208,198.039,202.8198,205.996,212.204,217.072,220.385,225.252,229.764,233.077,237.944,244.0196,247.242,252.323,256.50620000000004,259.731,265.422,271.55,276.417,282.331,286.843,292.757,296.141,299.098,305.013,311.221,317.339,321.851,326.718,332.7936,336.027,342.134,345.965,350.832,355.344,358.301,364.409,367.366,370.678,375.759,379.072,382.029,387.578,393.492,395.982,401.316,409.222,412.5088,415.634,421.376,426.243,430.257,435.8346,438.997,441.954,447.502,455.7688,459.066,462.379,467.247,476.219,482.327,487.194,491.208,496.289,499.602,505.729,509.56,514.428" svgx:width="0.71,0.6,0.55,0.5,0.58,0.61,0.55,0.67,0.58,0.55,0.83,0.48,0.4,0.48,0.55,0.61,0.48,0.33,0.48,0.44,0.33,0.48,0.61,0.55,0.5,0.42,0.55,0.56,0.6,0.48,0.58,0.44,0.58,0.33,0.29,0.58,0.61,0.6,0.44,0.48,0.61,0.55,0.6,0.4,0.48,0.44,0.29,0.6,0.29,0.33,0.5,0.33,0.29,0.55,0.58,0.25,0.55,0.78,0.33,0.55,0.56,0.48,0.4,0.56,0.55,0.29,0.55,0.83,0.55,0.33,0.48,0.88,0.6,0.48,0.4,0.5,0.33,0.6,0.4,0.48,0.42" style="fill:rgb(0,0,0);font-family:URWPalladioL-Roma;font-size:9.96px;stroke:none;">Cu and Zn were detected as quench-induced precipitation. At very low temperatures</text>
   <text y="605.287" x="128.03" svgx:width="0.33" style="fill:rgb(0,0,0);font-family:URWPalladioL-Roma;font-size:9.96px;stroke:none;">(</text>
   <text y="605.287" x="131.295" svgx:width="0.67" style="fill:rgb(0,0,0);font-family:Pxsy;font-size:9.96px;stroke:none;">≈</text>
   <text y="605.287" x="137.96,142.862,147.763,152.665,157.566,162.468" svgx:width="0.5,0.5,0.5,0.5,0.5,0.5" style="fill:rgb(0,0,0);font-family:URWPalladioL-Roma;font-size:9.96px;stroke:none;">150–50</text>
   <text y="601.671" x="169.861" svgx:width="0.52" style="fill:rgb(0,0,0);font-family:Pxsy;font-size:7.57px;stroke:none;">◦</text>
   <text y="605.287" x="174.32,181.27,184.5568,187.025,189.878,195.6548,198.073,201.269,206.974,211.7548,214.17,221.797,224.65,231.188,236.894,246.168,251.618,254.883,261.833,267.744,271.03080000000006,273.499,278.401,284.106,290.1816,292.586,300.213,303.065,312.339,317.79,321.054,328.005,333.916,337.2028,339.671,343.827,349.278,353.434,356.63,361.326,369.982,374.139,376.629,379.079,384.569,390.481,395.176,400.882,405.234,410.94,414.204,417.057,422.763,428.752,434.664,439.016,443.712,449.7876,452.202,458.093,461.779,466.475,470.828,473.68,479.572,482.425,485.621,490.522,493.718,496.571,501.923,507.6998,510.119,515.471" svgx:width="0.71,0.33,0.55,0.29,0.58,0.55,0.33,0.58,0.48,0.55,0.78,0.29,0.67,0.58,0.95,0.56,0.33,0.71,0.6,0.33,0.55,0.5,0.58,0.61,0.55,0.78,0.29,0.95,0.56,0.33,0.71,0.6,0.33,0.55,0.42,0.56,0.42,0.33,0.48,0.88,0.42,0.25,0.55,0.56,0.6,0.48,0.58,0.44,0.58,0.33,0.29,0.58,0.61,0.6,0.44,0.48,0.61,0.55,0.6,0.4,0.48,0.44,0.29,0.6,0.29,0.33,0.5,0.33,0.29,0.55,0.58,0.55,0.55,0.33" style="fill:rgb(0,0,0);font-family:URWPalladioL-Roma;font-size:9.96px;stroke:none;">C) in the AlZnMg(Cu) and AlMg(Cu) systems, quench-induced precipitation of</text>
   <text y="618.797" x="128.359,132.782,135.682,141.689,145.913,149.161,153.933,157.868,162.0512,164.583,172.892,177.873,182.0562,184.588,188.344,193.116,198.745,203.517,208.498,211.397,216.169,222.256" svgx:width="0.44,0.29,0.6,0.42,0.33,0.48,0.4,0.42,0.55,0.83,0.5,0.42,0.55,0.4,0.48,0.56,0.48,0.5,0.29,0.48,0.61,0.25" style="fill:rgb(0,0,0);font-family:URWPalladioL-Roma;font-size:9.96px;stroke:none;">clusters was revealed.</text>
   <text y="639.28" x="76.535" svgx:width="0.52" style="fill:rgb(0,0,0);font-family:Pxsy;font-size:9.96px;stroke:none;">•</text>
   <text y="639.28" x="97.336,103.443,109.241,114.0218,116.504,125.301,130.282,132.614,138.053,142.037,144.479,149.46,153.684,159.672,164.444,168.867,172.115,176.2982,178.83,181.729,187.527,193.585,199.592,204.364,210.162,214.586,217.485,223.283,228.86059999999998,231.313,234.561,240.359,245.1398,247.622,253.201,259.208,263.98,269.779,274.202,279.9788,282.491,286.715,291.487,297.285,301.509,304.409,307.656,310.556,316.184,319.083,322.331,327.90860000000004,330.361,335.342,339.098,343.87" svgx:width="0.61,0.58,0.48,0.55,0.88,0.5,0.23,0.55,0.4,0.55,0.5,0.42,0.6,0.48,0.44,0.33,0.42,0.55,0.29,0.58,0.61,0.6,0.48,0.58,0.44,0.29,0.58,0.56,0.55,0.33,0.58,0.48,0.55,0.56,0.6,0.48,0.58,0.44,0.58,0.55,0.42,0.48,0.58,0.42,0.29,0.33,0.29,0.56,0.29,0.33,0.56,0.55,0.5,0.4,0.48,0.25" style="fill:rgb(0,0,0);font-family:URWPalladioL-Roma;font-size:9.96px;stroke:none;">The major aspects inﬂuencing the quench sensitivity are:</text>
   <text y="664.745" code="35" x="97.336" svgx:width="0.78" style="fill:rgb(0,0,0);font-family:wasy10;font-size:9.96px;stroke:none;">?</text>
   <text y="664.745" x="128.359,134.466,140.264,145.0448,147.527,151.95,157.39,163.188,167.612,172.384,178.182,181.43,185.365,190.346,193.594,196.493,201.933,207.731,211.9142,214.446,219.885,223.1718,225.694,228.941,234.74,239.5208,242.002,250.799,255.781,258.68,264.4568,266.969,271.95,277.748,283.8236,286.326,292.413,295.312,299.536,305.524,310.296,314.231,318.455,323.895,326.794,332.881,336.199,339.516,344.956,348.891,357.688,360.587,366.385,371.9626,374.415,379.397,382.296,385.195,390.634,396.174,399.073,404.871,410.4486,412.901,417.673,420.572,425.344,434.141,438.913,444.711,447.959,452.183" svgx:width="0.61,0.58,0.48,0.55,0.44,0.55,0.58,0.44,0.48,0.58,0.33,0.4,0.5,0.33,0.29,0.55,0.58,0.42,0.55,0.55,0.33,0.55,0.33,0.58,0.48,0.55,0.88,0.5,0.29,0.58,0.55,0.5,0.58,0.61,0.55,0.61,0.29,0.42,0.6,0.48,0.4,0.42,0.55,0.29,0.61,0.33,0.33,0.55,0.4,0.88,0.29,0.58,0.56,0.55,0.5,0.29,0.29,0.55,0.56,0.29,0.58,0.56,0.55,0.48,0.29,0.48,0.88,0.48,0.58,0.33,0.42,0.25" style="fill:rgb(0,0,0);font-family:URWPalladioL-Roma;font-size:9.96px;stroke:none;">The concentrations of the main and dispersoid-forming alloying elements;</text>
   <text y="679.25" code="35" x="97.336" svgx:width="0.78" style="fill:rgb(0,0,0);font-family:wasy10;font-size:9.96px;stroke:none;">?</text>
   <text y="679.25" x="128.359,134.582,140.491,145.2718,147.83,154.033,158.896,164.804,169.109,172.063,175.372,180.9496,183.484,189.027,192.3138,194.884,200.793,206.914,211.422,214.376,219.239,224.315,227.624,230.578,236.121,241.89780000000002,244.507,248.811,251.765,255.075,259.938,264.1212,266.709,270.09,274.597,280.14,285.216,289.226,293.53,298.3108,300.87,306.971,310.981,313.936,322.9,327.976,331.986,337.5636,340.107,346.208,351.284,355.294,358.604,361.558,366.055,369.01,373.872,378.177,380.66700000000003,383.192,389.293,394.369,398.379,401.689,404.643,409.15,415.272,418.226,423.302,427.312,430.266,435.84360000000004,438.388,444.59,447.545,451.849,457.95,462.813,466.823,471.128,476.671,479.625,485.828,490.132,492.622,495.147,500.791,504.801,509.877,512.832" svgx:width="0.61,0.58,0.48,0.55,0.61,0.48,0.58,0.42,0.29,0.33,0.56,0.55,0.55,0.33,0.55,0.58,0.6,0.44,0.29,0.48,0.5,0.33,0.29,0.55,0.58,0.55,0.42,0.29,0.33,0.48,0.42,0.55,0.33,0.44,0.55,0.5,0.4,0.42,0.48,0.55,0.6,0.4,0.29,0.88,0.5,0.4,0.56,0.55,0.6,0.5,0.4,0.33,0.29,0.44,0.29,0.48,0.42,0.25,0.55,0.6,0.5,0.4,0.33,0.29,0.44,0.6,0.29,0.5,0.4,0.29,0.56,0.55,0.61,0.29,0.42,0.6,0.48,0.4,0.42,0.55,0.29,0.61,0.42,0.25,0.55,0.56,0.4,0.5,0.29,0.58" style="fill:rgb(0,0,0);font-family:URWPalladioL-Roma;font-size:9.96px;stroke:none;">The density of nucleation sites (coarse primary particles, particularly dispersoids, grain</text>
   <text y="692.76" x="128.359,133.758,139.089,144.976,150.658,156.624,161.506,165.362,168.203,172.88,177.02,179.51000000000002,181.286,187.173,192.856,198.821,201.662,205.802,209.942,215.272,218.113,223.63,228.306,235.922,240.062,244.738,249.073,254.404,260.086,266.052,270.933,274.79,281.878,287.746,293.428,298.31,302.449,307.126,311.266,313.75600000000003,315.532,320.209,326.096,329.279,333.956,338.291,341.473,344.315,348.6974,350.299,354.439,357.622,361.4,367.288,371.623,374.806,380.693,384.374,389.05,392.301,394.791,396.558,399.399,401.84,406.517,408.958,411.44800000000004,413.224,416.407,422.089,426.8698,428.426,431.267,436.949,439.79,442.973,445.814,450.696,453.5844,455.187,463.808,466.649,470.984,474.665,479.996,484.135,487.318,491.097,496.984,501.319,504.502,510.389,514.06" svgx:width="0.55,0.55,0.6,0.58,0.61,0.5,0.4,0.29,0.48,0.42,0.25,0.55,0.6,0.58,0.61,0.29,0.42,0.42,0.55,0.29,0.56,0.48,0.61,0.42,0.48,0.44,0.55,0.58,0.61,0.5,0.4,0.56,0.6,0.58,0.5,0.42,0.48,0.42,0.25,0.55,0.48,0.6,0.33,0.48,0.44,0.33,0.29,0.44,0.55,0.42,0.33,0.4,0.6,0.44,0.33,0.6,0.4,0.48,0.33,0.25,0.55,0.29,0.25,0.48,0.25,0.25,0.55,0.33,0.58,0.48,0.55,0.29,0.58,0.29,0.33,0.29,0.5,0.29,0.55,0.88,0.29,0.44,0.4,0.55,0.42,0.33,0.4,0.6,0.44,0.33,0.6,0.4,0.48" style="fill:rgb(0,0,0);font-family:URWPalladioL-Roma;font-size:9.96px;stroke:none;">boundaries, undissolvedsecondaryphases, eutectic structure), i.e., the initial microstructure</text>
   <text y="706.269" x="128.359,131.258,137.056,139.955,143.203,146.102,151.084,153.9724,156.473,162.461,166.396,169.295,174.735,178.71900000000002,181.161,184.409,189.887,192.339,195.587,201.385,206.1658,208.648,212.872,216.119,221.101,225.036,228.3228,230.774,236.214,239.5008,242.022,246.446,251.885,257.325,260.224,263.123,268.921,274.46" svgx:width="0.29,0.58,0.29,0.33,0.29,0.5,0.29,0.55,0.6,0.4,0.29,0.55,0.4,0.55,0.33,0.55,0.55,0.33,0.58,0.48,0.55,0.42,0.33,0.5,0.4,0.33,0.55,0.55,0.33,0.55,0.44,0.55,0.55,0.29,0.29,0.58,0.56,0.25" style="fill:rgb(0,0,0);font-family:URWPalladioL-Roma;font-size:9.96px;stroke:none;">initial prior to the start of cooling;</text>
   <text y="720.775" code="35" x="97.336" svgx:width="0.78" style="fill:rgb(0,0,0);font-family:wasy10;font-size:9.96px;stroke:none;">?</text>
   <text y="720.775" x="128.359,135.486,140.975,146.825,151.288,156.103,161.954,165.231,169.201,174.227,177.505,180.43,185.918,191.769,195.9522,198.514,203.54,209.39,215.4656,218.005,223.856,229.917,234.38,237.305,242.12,247.147,250.424,253.349,258.837,264.61379999999997,267.171,271.433,274.358,277.635,282.45,286.6332,289.195,292.543,298.031,302.002,313.361,316.638,322.488,327.2688,329.776,338.652,343.678,346.031,351.519,355.503,357.973,361.762,366.578,371.604,375.866,381.354,387.13079999999997,389.688,393.035,398.524,402.508,404.977,408.254,414.105,418.8858,421.402,425.665,428.59,434.179,440.029,442.954,449.036,453.499,458.525,464.376,467.6628,470.126,475.152,478.077,481.002,486.491,492.0686,494.563,500.122,505.148,508.425,512.888" svgx:width="0.71,0.55,0.58,0.44,0.48,0.58,0.33,0.4,0.5,0.33,0.29,0.55,0.58,0.42,0.55,0.5,0.58,0.61,0.55,0.58,0.6,0.44,0.29,0.48,0.5,0.33,0.29,0.55,0.58,0.55,0.42,0.29,0.33,0.48,0.42,0.55,0.33,0.55,0.4,0.88,0.33,0.58,0.48,0.55,0.88,0.5,0.23,0.55,0.4,0.55,0.4,0.48,0.5,0.42,0.55,0.58,0.55,0.33,0.55,0.4,0.55,0.33,0.58,0.48,0.55,0.42,0.29,0.56,0.58,0.29,0.61,0.44,0.5,0.58,0.33,0.55,0.5,0.29,0.29,0.55,0.56,0.55,0.55,0.5,0.33,0.44,0.58" style="fill:rgb(0,0,0);font-family:URWPalladioL-Roma;font-size:9.96px;stroke:none;">Concentrations and nucleation sites formthe major reason for the signiﬁcant alloy batch</text>
   <text y="734.284" x="128.359,132.668,137.535,143.449,147.758,150.715,154.028,156.985,162.726,165.683,168.996,174.5736,178.213,181.17,186.9468,190.661,193.974,198.842,202.855,211.828,216.0112,219.714,225.262,228.5488,232.213,235.526,241.44,246.2208,249.884,255.534,258.492,264.406,269.273,272.586,275.543,280.055,284.2382,287.93,293.479,296.7658,300.44,306.13,312.258,317.125,323.04,327.552,333.466,336.85,339.807,345.721,351.93,358.057,362.569,367.437,373.5126,377.212,383.32,387.161,392.028,396.54,399.497,405.605,408.562,411.875,416.955,420.268,423.225,428.774,434.688,437.178,443.956,449.605,455.154,459.138,462.745,465.702,471.616,475.925,479.237,484.318,490.233,494.744,499.612,502.10200000000003,505.994,509.378,514.926" svgx:width="0.42,0.48,0.58,0.42,0.29,0.33,0.29,0.56,0.29,0.33,0.56,0.55,0.29,0.58,0.55,0.33,0.48,0.4,0.88,0.42,0.55,0.55,0.33,0.55,0.33,0.58,0.48,0.55,0.56,0.29,0.58,0.48,0.33,0.29,0.44,0.42,0.55,0.55,0.33,0.55,0.56,0.6,0.48,0.58,0.44,0.58,0.33,0.29,0.58,0.61,0.6,0.44,0.48,0.61,0.55,0.6,0.4,0.48,0.44,0.29,0.6,0.29,0.33,0.5,0.33,0.29,0.55,0.58,0.25,0.55,0.56,0.55,0.4,0.55,0.29,0.58,0.42,0.33,0.5,0.58,0.44,0.48,0.25,0.55,0.33,0.55,0.4" style="fill:rgb(0,0,0);font-family:URWPalladioL-Roma;font-size:9.96px;stroke:none;">sensitivity in terms of the kinetics of quench-induced precipitation. For instance, for</text>
   <text y="747.794" x="128.359,134.568" svgx:width="0.61,0.29" style="fill:rgb(0,0,0);font-family:URWPalladioL-Roma;font-size:9.96px;stroke:none;">di</text>
   <text y="747.794" x="137.525" svgx:width="0.61" style="fill:rgb(0,0,0);font-family:Rpxr;font-size:9.96px;stroke:none;">ﬀ</text>
   <text y="747.794" x="143.703,148.571,152.402,157.269,163.183,166.4698,169.443,175.062,180.143,183.456,187.968,193.882,198.75,202.9332,205.995,211.544,214.8308,217.874,222.955,228.036,233.117,238.198,240.68800000000002,243.787,247.1,253.014,257.7948,260.829,266.956,273.063,279.171,284.038,288.022,290.989,295.501,299.515,302.472,305.785,308.742,313.254,318.334,321.2224,324.238,328.75,334.299,339.847,342.804,345.761,351.675,357.25260000000003,360.262,364.276,369.357,372.67,377.4508,380.484,383.868,391.774,398.979,406.184,412.972,416.2588,419.292,428.265,431.222,436.872,442.787,446.0738,449.036,454.778,459.859,463.872,469.44960000000003,472.469,478.089,483.6666,486.676,492.803,498.779,501.857,505.17,510.648,513.655" svgx:width="0.48,0.4,0.48,0.58,0.33,0.55,0.55,0.5,0.33,0.44,0.58,0.48,0.42,0.55,0.55,0.33,0.55,0.5,0.5,0.5,0.5,0.25,0.55,0.33,0.58,0.48,0.55,0.6,0.6,0.6,0.48,0.4,0.55,0.44,0.4,0.29,0.33,0.29,0.44,0.5,0.29,0.55,0.44,0.55,0.55,0.29,0.29,0.58,0.56,0.55,0.4,0.5,0.33,0.48,0.55,0.33,0.78,0.71,0.71,0.67,0.33,0.55,0.88,0.29,0.56,0.58,0.33,0.55,0.56,0.5,0.4,0.56,0.55,0.55,0.56,0.55,0.6,0.6,0.55,0.33,0.55,0.55,0.5" style="fill:rgb(0,0,0);font-family:URWPalladioL-Roma;font-size:9.96px;stroke:none;">erent batches of 6082, the upper critical cooling rate (UCCR) might vary by up to a</text>
   <text y="761.303" x="128.359,131.677,136.658,141.081,144.329,149.769,153.75300000000001,156.194,161.634,164.92079999999999,167.442,172.424,177.405" svgx:width="0.33,0.5,0.44,0.33,0.55,0.4,0.55,0.55,0.33,0.55,0.5,0.5,0.25" style="fill:rgb(0,0,0);font-family:URWPalladioL-Roma;font-size:9.96px;stroke:none;">factor of 10;</text>
  </g>
 </g>
</svg>
