<?xml version="1.0" encoding="UTF-8"?>
<svg height="771.036" width="2614.205" xmlns="http://www.w3.org/2000/svg">
 <g id="page" xmlns:svgx="http://www.xml-cml.org/schema/svgx">
  <g begin="text">
   <text y="62.979" x="76.535,84.059,87.598,90.252,93.352,96.452,98.668,102.207,104.422" svgx:width="0.94,0.44,0.33,0.39,0.39,0.28,0.44,0.28,0.39" style="fill:rgb(0,0,0);font-family:URWPalladioL-Ital;font-size:7.97px;stroke:none;">Materials</text>
   <text y="62.979" x="109.515,113.5,117.485,121.47" svgx:width="0.5,0.5,0.5,0.5" style="fill:rgb(0,0,0);font-family:URWPalladioL-Bold;font-size:7.97px;stroke:none;">2019</text>
   <text y="62.979" x="125.455" svgx:width="0.25" style="fill:rgb(0,0,0);font-family:URWPalladioL-Roma;font-size:7.97px;stroke:none;">,</text>
   <text y="62.979" x="129.44,133.425" svgx:width="0.5,0.5" style="fill:rgb(0,0,0);font-family:URWPalladioL-Ital;font-size:7.97px;stroke:none;">12</text>
   <text y="62.979" x="137.41,139.4025,141.395,145.38,149.365,153.35,157.335,491.809,495.794,499.779,501.772,506.123,508.7531,510.77,514.755" svgx:width="0.25,0.55,0.5,0.5,0.5,0.5,0.55,0.5,0.5,0.55,0.55,0.33,0.55,0.5,0.5" style="fill:rgb(0,0,0);font-family:URWPalladioL-Roma;font-size:7.97px;stroke:none;">, 4083 39 of 92</text>
  </g>
  <g begin="text">
   <text y="75.086" x="95.723,102.734,106.036,108.515,111.409,114.302,116.373,119.675,121.745,124.639" svgx:width="0.94,0.44,0.33,0.39,0.39,0.28,0.44,0.28,0.39,0.25" style="fill:rgb(0,0,0);font-family:PalatinoLinotype,Italic;font-size:7.42px;stroke:none;">Materials </text>
   <text y="75.086" x="126.469,130.208,133.947,137.686" svgx:width="0.5,0.5,0.5,0.5" style="fill:rgb(0,0,0);font-family:PalatinoLinotype,Bold;font-size:7.42px;stroke:none;">2019</text>
   <text y="75.086" x="141.424,143.265" svgx:width="0.25,0.25" style="fill:rgb(0,0,0);font-family:PalatinoLinotype;font-size:7.42px;stroke:none;">, </text>
   <text y="75.086" x="145.106,148.845" svgx:width="0.5,0.5" style="fill:rgb(0,0,0);font-family:PalatinoLinotype,Italic;font-size:7.42px;stroke:none;">12</text>
   <text y="75.086" x="152.528,154.389,156.23,160.065,161.906,166.037,171.875,176.837,178.734,183.221,187.76,192.3,197.262,199.103,204.065,208.604,213.967,216.474,221.013,228.49" svgx:width="0.25,0.25,0.52,0.25,0.56,0.79,0.67,0.25,0.6,0.61,0.61,0.67,0.25,0.67,0.61,0.72,0.34,0.61,1.0,0.25" style="fill:rgb(0,0,0);font-family:PalatinoLinotype;font-size:7.42px;stroke:none;">, x FOR PEER REVIEW </text>
   <text y="75.086" x="477.897,481.637" svgx:width="0.51,0.51" style="fill:rgb(0,0,0);font-family:Calibri;font-size:7.42px;stroke:none;">39</text>
   <text y="75.086" x="485.43,487.285,489.113,493.196,495.699" svgx:width="0.25,0.55,0.55,0.33,0.25" style="fill:rgb(0,0,0);font-family:PalatinoLinotype;font-size:7.42px;stroke:none;"> of </text>
   <text y="75.086" x="499.381,503.176" svgx:width="0.51,0.51" style="fill:rgb(0,0,0);font-family:Calibri;font-size:7.42px;stroke:none;">92</text>
   <text y="75.086" x="506.97" svgx:width="0.25" style="fill:rgb(0,0,0);font-family:PalatinoLinotype;font-size:7.42px;stroke:none;"> </text>
   <text y="761.036" x="95.723" svgx:width="0.23" style="fill:rgb(0,0,0);font-family:Calibri;font-size:8.37px;stroke:none;"> </text>
   <text y="705.459" x="498.209" svgx:width="0.25" style="fill:rgb(0,0,0);font-family:PalatinoLinotype;font-size:11.16px;stroke:none;"> </text>
   <text y="725.156" x="115.476,120.147,122.934,127.588,132.702,135.958,140.143,142.2355,142.988,147.173,151.358" svgx:width="0.56,0.33,0.56,0.61,0.39,0.5,0.25,0.55,0.5,0.5,0.25" style="fill:rgb(0,0,0);font-family:PalatinoLinotype,Bold;font-size:8.37px;stroke:none;">Figure 36.</text>
   <text y="725.156" x="153.421,155.5135,156.266,164.182,166.619,170.335,173.642,178.211,181.761,184.49,187.796,192.843,196.559,199.288,204.335,207.642,211.651,213.7435,214.496,219.066,221.854,223.94650000000001,224.644,228.829,233.014,237.199,241.384,247.895,249.9875,250.74,254.925,257.362,259.798,264.368,269.021,271.1135,271.867,275.416,279.545,286.934,291.964,294.4,298.41,301.959,304.0515,304.804,307.241,312.06,316.788,320.75,324.298,327.027,329.462,334.036,338.22,340.949,344.957,350.07,352.16249999999997,352.915,357.099,359.777,361.86949999999996,362.622,367.735,370.17,372.957,375.744,379.753,383.058,387.02,391.89,394.618,396.71049999999997,397.464,400.192,404.201,411.589,416.618,420.627,423.932,428.116,430.845,435.891,439.196,443.27,446.842,448.935,451.0275,451.78" svgx:width="0.25,0.55,0.95,0.29,0.44,0.4,0.55,0.42,0.33,0.4,0.6,0.44,0.33,0.6,0.4,0.48,0.25,0.55,0.55,0.33,0.25,0.55,0.5,0.5,0.5,0.5,0.78,0.25,0.55,0.5,0.29,0.29,0.55,0.56,0.25,0.55,0.42,0.5,0.88,0.6,0.29,0.48,0.42,0.25,0.55,0.29,0.58,0.56,0.48,0.42,0.33,0.29,0.56,0.5,0.33,0.48,0.61,0.25,0.55,0.5,0.33,0.25,0.55,0.61,0.29,0.33,0.33,0.48,0.4,0.48,0.58,0.33,0.25,0.55,0.33,0.48,0.88,0.6,0.48,0.4,0.5,0.33,0.6,0.4,0.48,0.42,0.25,0.25,0.55,0.33" style="fill:rgb(0,0,0);font-family:PalatinoLinotype;font-size:8.37px;stroke:none;"> Microstructure of 6005A alloy samples investigated at different temperatures: (</text>
   <text y="725.156" x="454.574" svgx:width="0.78" style="fill:rgb(0,0,0);font-family:PalatinoLinotype,Bold;font-size:8.37px;stroke:none;">A</text>
   <text y="725.156" x="461.102,463.856,465.94849999999997,466.701,471.714,475.286,477.741,482.595,487.214" svgx:width="0.33,0.25,0.55,0.6,0.42,0.29,0.58,0.56,0.25" style="fill:rgb(0,0,0);font-family:PalatinoLinotype;font-size:8.37px;stroke:none;">) using </text>
   <text y="737.209" x="115.477,119.873,124.989,132.908,135.252,139.883,144.07,147.789,152.445,155.997,159.716,163.903,166.635,169.312,173.33,176.639,180.65,185.766,188.11,192.122,194.561,198.522,202.262,204.994,208.303,212.875,217.748,220.092,222.531,229.923,234.11,238.766,242.778,246.329,248.673,252.86,255.592,257.936,262.123,264.466,268.185,272.758,277.278,279.717,282.156,287.029,291.685,294.029,297.338,301.525,304.257,308.269,310.612,315.185,317.975,320.318,324.506,326.602,330.731,334.918,339.105,343.293,345.636,351.715,354.396,357.948,360.044,362.387,366.575,371.448,376.564,378.908" svgx:width="0.52,0.61,0.95,0.25,0.55,0.5,0.44,0.56,0.42,0.44,0.5,0.33,0.33,0.48,0.4,0.48,0.61,0.25,0.48,0.29,0.48,0.44,0.33,0.4,0.55,0.58,0.25,0.29,0.88,0.5,0.56,0.48,0.42,0.25,0.5,0.33,0.25,0.5,0.25,0.44,0.55,0.55,0.29,0.29,0.58,0.56,0.25,0.4,0.5,0.33,0.48,0.25,0.55,0.33,0.25,0.5,0.25,0.5,0.5,0.5,0.5,0.25,0.73,0.32,0.42,0.25,0.25,0.5,0.58,0.61,0.25,0.33" style="fill:rgb(0,0,0);font-family:PalatinoLinotype;font-size:8.37px;stroke:none;">SEM backscattered electron images at a cooling rate of 0.0016 K/s; and (</text>
   <text y="737.209" x="381.699" svgx:width="0.66" style="fill:rgb(0,0,0);font-family:PalatinoLinotype,Bold;font-size:8.37px;stroke:none;">B</text>
   <text y="737.209" x="387.167,389.958,392.302,397.323,400.896,403.336,408.21,412.867,415.21,419.842,423.152,425.591,430.248,435.123,437.855,440.646,443.437,445.877,449.89,452.329,457.446,459.79,464.869,470.004,477.923,480.267,484.455,487.188" svgx:width="0.33,0.25,0.6,0.42,0.29,0.58,0.56,0.25,0.55,0.4,0.29,0.56,0.58,0.33,0.33,0.33,0.29,0.48,0.29,0.61,0.25,0.61,0.61,0.95,0.25,0.5,0.33,0.25" style="fill:rgb(0,0,0);font-family:PalatinoLinotype;font-size:8.37px;stroke:none;">) using bright-field TEM at </text>
   <text y="749.318" x="115.477,119.661,121.782,125.498,130.068,134.588,137.025,139.461,144.332,148.985,151.105,154.412,158.597,161.326,165.335,167.455,171.976,174.766,176.886,181.071,183.164,187.349,191.478,193.598,199.674,202.353,205.902,208.022,210.81,214.995,219.18,223.365,226.153,228.246" svgx:width="0.5,0.25,0.44,0.55,0.55,0.29,0.29,0.58,0.56,0.25,0.4,0.5,0.33,0.48,0.25,0.55,0.33,0.25,0.5,0.25,0.5,0.5,0.25,0.73,0.32,0.42,0.25,0.33,0.5,0.5,0.5,0.33,0.25,0.25" style="fill:rgb(0,0,0);font-family:PalatinoLinotype;font-size:8.37px;stroke:none;">a cooling rate of 0.16 K/s [128]. </text>
  </g>
  <rect style="fill:pink;opacity:0.2;stroke:blue;stroke-width:0.3;" x="104.205" y="50.941" height="122.537" width="394.171" title="39"/>
  <text y="50.941" class="image" id="image.39.1" width="394" height="122" x="104.205" style="font-size:5.0px;">image.39.1.104_498.51_173</text>
  <rect style="fill:pink;opacity:0.2;stroke:blue;stroke-width:0.3;" x="104.205" y="173.478" height="122.537" width="394.171" title="39"/>
  <text y="173.478" class="image" id="image.39.2" width="394" height="122" x="104.205" style="font-size:5.0px;">image.39.2.104_498.173_296</text>
  <rect style="fill:pink;opacity:0.2;stroke:blue;stroke-width:0.3;" x="104.205" y="296.015" height="122.537" width="394.171" title="39"/>
  <text y="296.015" class="image" id="image.39.3" width="394" height="122" x="104.205" style="font-size:5.0px;">image.39.3.104_498.296_419</text>
  <rect style="fill:pink;opacity:0.2;stroke:blue;stroke-width:0.3;" x="104.205" y="418.552" height="122.536" width="394.171" title="39"/>
  <text y="418.552" class="image" id="image.39.4" width="394" height="122" x="104.205" style="font-size:5.0px;">image.39.4.104_498.419_541</text>
  <rect style="fill:pink;opacity:0.2;stroke:blue;stroke-width:0.3;" x="104.205" y="541.088" height="122.314" width="394.171" title="39"/>
  <text y="541.088" class="image" id="image.39.5" width="394" height="122" x="104.205" style="font-size:5.0px;">image.39.5.104_498.541_663</text>
  <g begin="text">
   <text y="721.013" x="97.795,102.78,105.766,110.751,116.23,119.718,124.203,126.694,131.177,135.66" svgx:width="0.56,0.33,0.56,0.61,0.39,0.5,0.55,0.5,0.5,0.25" style="fill:rgb(0,0,0);font-family:URWPalladioL-Bold;font-size:8.97px;stroke:none;">Figure 36.</text>
   <text y="721.013" x="141.811,150.463,153.124,157.185,160.633,165.626,169.504,172.486,176.025,181.54,185.601,188.582,194.097,197.554,201.8596,204.432,209.425,212.38510000000002,214.968,219.541,224.113,228.686,233.259,240.2556,242.871,247.444,250.106,252.767,257.76,262.78319999999997,265.342,269.22,273.793,281.869,287.365,290.027,294.407,298.1744,300.782,303.443,308.766,313.934,318.314,322.192,325.174,327.835,332.92,337.493,340.474,344.855,350.3267,352.94,357.513,360.4731,362.991,368.579" svgx:width="0.95,0.29,0.44,0.4,0.55,0.42,0.33,0.4,0.6,0.44,0.33,0.6,0.4,0.48,0.55,0.55,0.33,0.55,0.5,0.5,0.5,0.5,0.78,0.55,0.5,0.29,0.29,0.55,0.56,0.55,0.42,0.5,0.88,0.6,0.29,0.48,0.42,0.55,0.29,0.58,0.56,0.48,0.42,0.33,0.29,0.56,0.5,0.33,0.48,0.61,0.55,0.5,0.33,0.55,0.61,0.29" style="fill:rgb(0,0,0);font-family:URWPalladioL-Roma;font-size:8.97px;stroke:none;">Microstructure of 6005A alloy samples investigated at di</text>
   <text y="721.013" x="371.239" svgx:width="0.61" style="fill:rgb(0,0,0);font-family:Rpxr;font-size:8.97px;stroke:none;">ﬀ</text>
   <text y="721.013" x="376.799,381.18,384.628,389.009,394.331,397.29110000000003,399.81,402.791,407.172,415.248,420.744,425.125,428.738,433.31,436.292,441.807,445.264,449.645,453.522,455.7645,459.458" svgx:width="0.48,0.4,0.48,0.58,0.33,0.55,0.33,0.48,0.88,0.6,0.48,0.4,0.5,0.33,0.6,0.4,0.48,0.42,0.25,0.55,0.33" style="fill:rgb(0,0,0);font-family:URWPalladioL-Roma;font-size:8.97px;stroke:none;">erent temperatures: (</text>
   <text y="721.013" x="462.501" svgx:width="0.78" style="fill:rgb(0,0,0);font-family:URWPalladioL-Bold;font-size:8.97px;stroke:none;">A</text>
   <text y="721.013" x="469.476,472.4361,475.018,480.533,484.411,487.072,492.395" svgx:width="0.33,0.55,0.6,0.42,0.29,0.58,0.56" style="fill:rgb(0,0,0);font-family:URWPalladioL-Roma;font-size:8.97px;stroke:none;">) using</text>
   <text y="733.835" x="97.795,102.498,107.971,118.693,123.646,128.125,132.102,137.082,140.88,144.857,149.336,152.256,155.176,159.467,162.844,167.134,172.60569999999998,174.856,179.146,181.753,186.044,190.021,192.941,196.318,201.2,206.40259999999998,208.661,211.268,219.177,223.656,228.636,232.927,236.6944,238.973,243.452,246.4121,248.62,253.10500000000002,255.347,259.324,264.215,269.106,271.712,274.319,279.532,284.55519999999996,286.761,290.299,294.778,297.698,302.0036,304.228,309.119,312.07910000000004,314.35,318.829,321.068,325.547,330.025,334.504,338.98900000000003,341.231" svgx:width="0.52,0.61,0.95,0.55,0.5,0.44,0.56,0.42,0.44,0.5,0.33,0.33,0.48,0.4,0.48,0.61,0.55,0.48,0.29,0.48,0.44,0.33,0.4,0.55,0.58,0.55,0.29,0.88,0.5,0.56,0.48,0.42,0.55,0.5,0.33,0.55,0.5,0.55,0.44,0.55,0.55,0.29,0.29,0.58,0.56,0.55,0.4,0.5,0.33,0.48,0.55,0.55,0.33,0.55,0.5,0.25,0.5,0.5,0.5,0.5,0.55,0.73" style="fill:rgb(0,0,0);font-family:URWPalladioL-Roma;font-size:8.97px;stroke:none;">SEMbackscattered electron images at a cooling rate of 0.0016 K</text>
   <text y="733.835" x="347.734" svgx:width="0.29" style="fill:rgb(0,0,0);font-family:Rpxr;font-size:8.97px;stroke:none;">/</text>
   <text y="733.835" x="350.305,354.103,356.3455,358.591,363.069,368.283,373.7547,376.004" svgx:width="0.42,0.25,0.55,0.5,0.58,0.61,0.55,0.33" style="fill:rgb(0,0,0);font-family:URWPalladioL-Roma;font-size:8.97px;stroke:none;">s; and (</text>
   <text y="733.835" x="378.986" svgx:width="0.67" style="fill:rgb(0,0,0);font-family:URWPalladioL-Bold;font-size:8.97px;stroke:none;">B</text>
   <text y="733.835" x="384.966,387.9261,390.197,395.598,399.396,402.003,407.216,412.2392,414.445,419.398,422.937,425.543,430.524,435.737,438.657,441.64,447.059,451.35,453.956,459.4277,461.669,467.159,472.632,483.355,487.833,490.79310000000004,493.002" svgx:width="0.33,0.55,0.6,0.42,0.29,0.58,0.56,0.55,0.55,0.4,0.29,0.56,0.58,0.33,0.33,0.61,0.48,0.29,0.61,0.55,0.61,0.61,0.95,0.5,0.33,0.55,0.5" style="fill:rgb(0,0,0);font-family:URWPalladioL-Roma;font-size:8.97px;stroke:none;">) using bright-ﬁeld TEMat a</text>
   <text y="746.657" x="97.795,101.776,106.672,111.567,114.177,116.786,122.004,127.02720000000001,129.231,132.773,137.256,140.179,144.4846,146.716,151.611,154.5711,156.839,161.322,163.564,168.047,172.532,174.772" svgx:width="0.44,0.55,0.55,0.29,0.29,0.58,0.56,0.55,0.4,0.5,0.33,0.48,0.55,0.55,0.33,0.55,0.5,0.25,0.5,0.5,0.55,0.73" style="fill:rgb(0,0,0);font-family:URWPalladioL-Roma;font-size:8.97px;stroke:none;">cooling rate of 0.16 K</text>
   <text y="746.657" x="181.28" svgx:width="0.29" style="fill:rgb(0,0,0);font-family:Rpxr;font-size:8.97px;stroke:none;">/</text>
   <text y="746.657" x="183.854,187.62140000000002,189.897" svgx:width="0.42,0.55,0.33" style="fill:rgb(0,0,0);font-family:URWPalladioL-Roma;font-size:8.97px;stroke:none;">s [</text>
   <text y="746.657" x="192.883,197.366,201.85" svgx:width="0.5,0.5,0.5" style="fill:rgb(8,117,183);font-family:URWPalladioL-Roma;font-size:8.97px;stroke:none;">128</text>
   <text y="746.657" x="206.333,209.319" svgx:width="0.33,0.25" style="fill:rgb(0,0,0);font-family:URWPalladioL-Roma;font-size:8.97px;stroke:none;">].</text>
  </g>
 </g>
</svg>
