<?xml version="1.0" encoding="UTF-8"?>
<svg height="364.043" width="530.436" xmlns="http://www.w3.org/2000/svg">
 <g id="page" xmlns:svgx="http://www.xml-cml.org/schema/svgx">
  <g begin="text">
   <text y="62.979" x="76.535,84.059,87.598,90.252,93.352,96.452,98.668,102.207,104.422" svgx:width="0.94,0.44,0.33,0.39,0.39,0.28,0.44,0.28,0.39" style="fill:rgb(0,0,0);font-family:URWPalladioL-Ital;font-size:7.97px;stroke:none;">Materials</text>
   <text y="62.979" x="109.515,113.5,117.485,121.47" svgx:width="0.5,0.5,0.5,0.5" style="fill:rgb(0,0,0);font-family:URWPalladioL-Bold;font-size:7.97px;stroke:none;">2019</text>
   <text y="62.979" x="125.455" svgx:width="0.25" style="fill:rgb(0,0,0);font-family:URWPalladioL-Roma;font-size:7.97px;stroke:none;">,</text>
   <text y="62.979" x="129.44,133.425" svgx:width="0.5,0.5" style="fill:rgb(0,0,0);font-family:URWPalladioL-Ital;font-size:7.97px;stroke:none;">12</text>
   <text y="62.979" x="137.41,139.4025,141.395,145.38,149.365,153.35,157.335,491.809,495.794,499.779,501.772,506.123,508.7531,510.77,514.755" svgx:width="0.25,0.55,0.5,0.5,0.5,0.5,0.55,0.5,0.5,0.55,0.55,0.33,0.55,0.5,0.5" style="fill:rgb(0,0,0);font-family:URWPalladioL-Roma;font-size:7.97px;stroke:none;">, 4136 17 of 25</text>
   <text y="97.848" x="76.535,81.516,84.007,88.988,91.478,94.966,100.505,103.275,111.026,116.565,119.334,123.758,127.075,129.845,134.268,139.8456,142.298,146.722,149.51080000000002,151.982,158.627,163.05,165.82,170.79999999999998,173.292,179.937,184.36,187.13,189.899,192.669,198.208,203.188,205.68,211.767,215.463,219.887,223.942,227.817,231.693" svgx:width="0.5,0.25,0.5,0.25,0.55,0.56,0.28,0.78,0.56,0.28,0.44,0.33,0.28,0.44,0.56,0.55,0.44,0.28,0.55,0.67,0.44,0.28,0.5,0.55,0.67,0.44,0.28,0.28,0.28,0.56,0.5,0.55,0.61,0.39,0.44,0.41,0.39,0.39,0.39" style="fill:rgb(0,0,0);font-family:URWPalladioL-Ital;font-size:9.96px;stroke:none;">3.3. Simulation of Cold Rolling Process</text>
   <text y="117.335" x="97.795,104.024,109.938,114.7188,117.895,124.043,129.957,132.914,136.227,141.0078,144.184,149.051,152.008,156.876,165.849,170.716,176.631,179.9178,183.043,186.427,192.077,198.286,201.5728,204.759,213.732,218.599,221.912,227.826,233.374,239.4496,242.672,248.292,253.373,257.682,262.549,268.6246,271.847,277.396,283.1728,286.399,294.264,300.473,306.123,314.11,320.898,330.512,333.895,338.976,346.6452,349.941,358.416,363.497,367.6802,370.895,377.022,381.331,386.198,392.2736,395.497,398.809,404.28700000000003,407.447,411.756,414.713,423.686,429.813,432.77,437.851,441.164,445.9448,449.131,452.444,458.358,463.1388,466.315,470.826,476.375,479.332,485.541,488.925,492.756,498.304,501.261,504.218,507.175,513.09" svgx:width="0.61,0.58,0.48,0.55,0.61,0.58,0.29,0.33,0.48,0.55,0.48,0.29,0.48,0.88,0.48,0.58,0.33,0.55,0.33,0.56,0.61,0.33,0.55,0.88,0.48,0.33,0.58,0.55,0.61,0.55,0.55,0.5,0.42,0.48,0.61,0.55,0.55,0.58,0.55,0.77,0.61,0.56,0.79,0.67,0.95,0.33,0.5,0.77,0.55,0.83,0.5,0.42,0.55,0.6,0.42,0.48,0.61,0.55,0.33,0.55,0.55,0.42,0.29,0.88,0.6,0.29,0.5,0.33,0.48,0.55,0.33,0.58,0.48,0.55,0.44,0.55,0.29,0.61,0.33,0.4,0.55,0.29,0.29,0.29,0.58,0.56" style="fill:rgb(0,0,0);font-family:URWPalladioL-Roma;font-size:9.96px;stroke:none;">The ﬁnite element (FE) method based on DEFORM-3D was used to simulate the cold-rolling</text>
   <text y="130.845" x="76.236,82.343,86.174,91.723,96.235,101.102,105.411,109.719,112.20899999999999,115.268,120.349,126.263,132.3386,135.378,140.35799999999998,143.355,146.668,152.582,157.45,161.463,170.436,175.985,179.369,183.881,189.429,195.556,201.664,204.621,209.488,215.5636,218.604,224.345,227.302,231.611,236.123,241.671,247.778,250.735,255.816,260.125,263.438,266.395,270.907,273.864,277.176,282.7536,285.723,294.695,300.244,306.453,311.32,314.2084,317.184,325.659,330.74,334.9232,337.944,344.072,348.381,353.248,359.3236,362.363,365.676,371.154,374.12,378.632,383.713,386.67,391.182,397.31,400.267,405.348,408.661,413.4418,416.434,419.747,425.661,430.4418,433.435,437.744,441.057,444.888,449.755,454.064,458.2472,461.269,466.349,472.264,478.3396,481.379,485.687,489.0,493.014,498.095,501.052,506.8288,509.873,512.83" svgx:width="0.6,0.4,0.55,0.44,0.48,0.42,0.42,0.25,0.55,0.5,0.58,0.61,0.55,0.5,0.55,0.33,0.58,0.48,0.4,0.88,0.55,0.33,0.44,0.55,0.6,0.6,0.29,0.48,0.61,0.55,0.56,0.29,0.42,0.44,0.55,0.6,0.29,0.5,0.42,0.33,0.29,0.44,0.29,0.33,0.56,0.55,0.88,0.55,0.61,0.48,0.29,0.55,0.83,0.5,0.42,0.55,0.6,0.42,0.48,0.61,0.55,0.33,0.55,0.55,0.44,0.5,0.29,0.44,0.6,0.29,0.5,0.33,0.48,0.55,0.33,0.58,0.48,0.55,0.42,0.33,0.4,0.48,0.42,0.42,0.55,0.5,0.58,0.61,0.55,0.42,0.33,0.4,0.5,0.29,0.58,0.55,0.29,0.58" style="fill:rgb(0,0,0);font-family:URWPalladioL-Roma;font-size:9.96px;stroke:none;">process, and a thermo-coupled viscoplasticity model was used to calculate the stress and strain in</text>
   <text y="144.354" x="76.535,81.047,86.595,89.552,95.6276,98.82,102.651,108.199,111.156,114.114,117.071,122.985,128.635,131.125,136.368,142.597,148.511,153.2918,156.438,159.822,165.949,171.863,178.072,183.153,192.126,196.994,202.908,206.1948,209.269,218.242,223.11,227.621,233.536,238.617,244.531,247.488,251.796,260.5608,263.828,266.785,270.9682,274.153,279.233,283.542,287.851,293.978,302.951,307.819,313.8946,317.086,320.399,326.313,331.394,334.68080000000003,337.766,342.074,345.387,349.218,354.086,358.394,362.5772,365.762,368.719,372.9022,376.086,381.06600000000003,384.226,387.61,393.737,399.651,404.163,407.476,410.433,415.982,421.7588,424.954,430.503,433.7898,436.935,441.244,444.557,448.571,453.651,456.609,462.38579999999996,465.581,471.79,477.918,481.932,484.889,490.803,496.3806,499.512,504.024,509.572,512.529" svgx:width="0.44,0.55,0.29,0.61,0.55,0.4,0.55,0.29,0.29,0.29,0.58,0.56,0.25,0.55,0.61,0.58,0.48,0.55,0.33,0.6,0.58,0.61,0.5,0.88,0.48,0.58,0.33,0.55,0.88,0.48,0.44,0.58,0.5,0.58,0.29,0.42,0.88,0.55,0.29,0.42,0.55,0.5,0.42,0.42,0.6,0.88,0.48,0.61,0.55,0.33,0.58,0.5,0.33,0.55,0.42,0.33,0.4,0.48,0.42,0.42,0.55,0.29,0.42,0.55,0.5,0.55,0.33,0.6,0.58,0.44,0.33,0.29,0.55,0.58,0.55,0.55,0.33,0.55,0.42,0.33,0.4,0.5,0.29,0.58,0.55,0.61,0.6,0.4,0.29,0.58,0.56,0.55,0.44,0.55,0.29,0.61" style="fill:rgb(0,0,0);font-family:URWPalladioL-Roma;font-size:9.96px;stroke:none;">cold rolling. The fundament mechanism is assumed that stress is a function of strain during cold</text>
   <text y="157.864" x="76.535,80.291,85.73,88.63,91.529,94.428,100.226,105.8036,108.256" svgx:width="0.4,0.55,0.29,0.29,0.29,0.58,0.56,0.55,0.33" style="fill:rgb(0,0,0);font-family:URWPalladioL-Roma;font-size:9.96px;stroke:none;">rolling [</text>
   <text y="157.864" x="111.573,116.555" svgx:width="0.5,0.5" style="fill:rgb(8,117,183);font-family:URWPalladioL-Roma;font-size:9.96px;stroke:none;">35</text>
   <text y="157.864" x="121.536,124.854" svgx:width="0.33,0.25" style="fill:rgb(0,0,0);font-family:URWPalladioL-Roma;font-size:9.96px;stroke:none;">]:</text>
   <text y="177.883" x="212.863" svgx:width="0.55" style="fill:rgb(0,0,0);font-family:Rpxmi;font-size:9.96px;stroke:none;">σ</text>
   <text y="177.883" x="221.264" svgx:width="0.78" style="fill:rgb(0,0,0);font-family:CMR10;font-size:10.38px;stroke:none;">=</text>
   <text y="163.081" code="40" x="232.225" svgx:width="0.59" style="fill:rgb(0,0,0);font-family:Pxex;font-size:9.96px;stroke:none;">?</text>
   <text y="171.131" x="243.105,248.086,253.068,258.049,260.54" svgx:width="0.5,0.5,0.5,0.25,0.5" style="fill:rgb(0,0,0);font-family:URWPalladioL-Roma;font-size:9.96px;stroke:none;">219.1</text>
   <text y="171.131" x="267.458" svgx:width="0.67" style="fill:rgb(0,0,0);font-family:Pxsy;font-size:9.96px;stroke:none;">×</text>
   <text y="171.131" x="276.06,281.041" svgx:width="0.5,0.5" style="fill:rgb(0,0,0);font-family:URWPalladioL-Roma;font-size:9.96px;stroke:none;">10</text>
   <text y="167.514" x="286.022" svgx:width="0.5" style="fill:rgb(0,0,0);font-family:URWPalladioL-Roma;font-size:7.57px;stroke:none;">3</text>
   <text y="171.131" x="290.306" svgx:width="0.49" style="fill:rgb(0,0,0);font-family:Rpxmi;font-size:9.96px;stroke:none;">ε</text>
   <text y="171.131" x="295.228" svgx:width="0.25" style="fill:rgb(0,0,0);font-family:URWPalladioL-Roma;font-size:9.96px;stroke:none;">,</text>
   <text y="171.131" x="301.87" svgx:width="0.49" style="fill:rgb(0,0,0);font-family:Rpxmi;font-size:9.96px;stroke:none;">ε</text>
   <text y="171.131" x="309.559" svgx:width="0.67" style="fill:rgb(0,0,0);font-family:Pxsy;font-size:9.96px;stroke:none;">≤</text>
   <text y="171.131" x="318.991,323.972,326.463,331.444,336.426,341.407,346.388,351.369" svgx:width="0.5,0.25,0.5,0.5,0.5,0.5,0.5,0.5" style="fill:rgb(0,0,0);font-family:URWPalladioL-Roma;font-size:9.96px;stroke:none;">0.001856</text>
   <text y="184.64" x="243.105,248.086,253.068" svgx:width="0.5,0.5,0.5" style="fill:rgb(0,0,0);font-family:URWPalladioL-Roma;font-size:9.96px;stroke:none;">847</text>
   <text y="184.64" x="258.049" svgx:width="0.49" style="fill:rgb(0,0,0);font-family:Rpxmi;font-size:9.96px;stroke:none;">ε</text>
   <text y="181.024" x="262.97,266.756,268.649,272.435,276.22" svgx:width="0.5,0.25,0.5,0.5,0.5" style="fill:rgb(0,0,0);font-family:URWPalladioL-Roma;font-size:7.57px;stroke:none;">0.129</text>
   <text y="184.64" x="282.566" svgx:width="0.78" style="fill:rgb(0,0,0);font-family:CMR10;font-size:10.38px;stroke:none;">+</text>
   <text y="184.64" x="292.697,297.678,302.66,305.15,310.132,315.113" svgx:width="0.5,0.5,0.25,0.5,0.5,0.25" style="fill:rgb(0,0,0);font-family:URWPalladioL-Roma;font-size:9.96px;stroke:none;">30.37,</text>
   <text y="184.64" x="321.755,326.6354,329.446" svgx:width="0.49,0.55,0.67" style="fill:rgb(0,0,0);font-family:Rpxmi;font-size:9.96px;stroke:none;">ε &gt;</text>
   <text y="184.64" x="338.876,343.857,346.348,351.329,356.311,361.292,366.273,371.254" svgx:width="0.5,0.25,0.5,0.5,0.5,0.5,0.5,0.5" style="fill:rgb(0,0,0);font-family:URWPalladioL-Roma;font-size:9.96px;stroke:none;">0.001856</text>
   <text y="177.883" x="507.124,510.442,515.423" svgx:width="0.33,0.5,0.33" style="fill:rgb(0,0,0);font-family:URWPalladioL-Roma;font-size:9.96px;stroke:none;">(2)</text>
   <text y="205.44" x="97.795,103.933,109.014,113.028,118.109,127.081,131.949,135.262,140.129,144.143,148.3262,151.602,154.559,160.3358,163.623,166.936,172.85,177.6308,180.878,185.39,190.471,193.428,197.94,204.068,207.025,212.106,215.418,218.375,223.924,229.70080000000002,232.988,235.945,241.86,246.371,249.328,255.456,261.665,266.532,269.022,273.879,280.088,284.956,290.87,295.179,298.136,301.449" svgx:width="0.6,0.5,0.4,0.5,0.88,0.48,0.33,0.48,0.4,0.42,0.55,0.29,0.58,0.55,0.33,0.58,0.48,0.55,0.44,0.5,0.29,0.44,0.6,0.29,0.5,0.33,0.29,0.55,0.58,0.55,0.29,0.58,0.44,0.29,0.6,0.61,0.48,0.25,0.55,0.61,0.48,0.58,0.42,0.29,0.33,0.56" style="fill:rgb(0,0,0);font-family:URWPalladioL-Roma;font-size:9.96px;stroke:none;">Parameters in the calculation include: density</text>
   <text y="205.44" x="310.253" svgx:width="0.57" style="fill:rgb(0,0,0);font-family:Rpxmi;font-size:9.96px;stroke:none;">ρ</text>
   <text y="205.44" x="319.054" svgx:width="0.67" style="fill:rgb(0,0,0);font-family:Rpxr;font-size:9.96px;stroke:none;">=</text>
   <text y="205.44" x="329.005,334.086,336.626,341.606,344.858,350.508" svgx:width="0.5,0.25,0.5,0.55,0.56,0.56" style="fill:rgb(0,0,0);font-family:URWPalladioL-Roma;font-size:9.96px;stroke:none;">7.6 kg</text>
   <text y="205.44" x="356.16" svgx:width="0.25" style="fill:rgb(0,0,0);font-family:Pxsy;font-size:9.96px;stroke:none;">·</text>
   <text y="205.44" x="358.65" svgx:width="0.88" style="fill:rgb(0,0,0);font-family:URWPalladioL-Roma;font-size:9.96px;stroke:none;">m</text>
   <text y="201.824" x="367.623" svgx:width="0.67" style="fill:rgb(0,0,0);font-family:Pxsy;font-size:7.57px;stroke:none;">−</text>
   <text y="201.824" x="372.689" svgx:width="0.5" style="fill:rgb(0,0,0);font-family:URWPalladioL-Roma;font-size:7.57px;stroke:none;">3</text>
   <text y="205.44" x="376.972,379.462,382.835,387.703,390.66,395.741,400.05,403.362,406.319,410.70140000000004,413.981,422.954,428.503,434.712,440.839,443.796,449.924" svgx:width="0.25,0.55,0.48,0.29,0.5,0.42,0.33,0.29,0.44,0.55,0.88,0.55,0.61,0.6,0.29,0.6,0.42" style="fill:rgb(0,0,0);font-family:URWPalladioL-Roma;font-size:9.96px;stroke:none;">, elastic modulus</text>
   <text y="205.44" x="457.382" svgx:width="0.94" style="fill:rgb(0,0,0);font-family:URWPalladioL-Ital;font-size:9.96px;stroke:none;">M</text>
   <text y="205.44" x="470.127" svgx:width="0.67" style="fill:rgb(0,0,0);font-family:Rpxr;font-size:9.96px;stroke:none;">=</text>
   <text y="205.44" x="480.078,485.159,490.24,495.22,498.471,506.224,512.362,517.443" svgx:width="0.5,0.5,0.5,0.55,0.76,0.6,0.5,0.25" style="fill:rgb(0,0,0);font-family:URWPalladioL-Roma;font-size:9.96px;stroke:none;">142 GPa,</text>
   <text y="218.949" x="76.535,81.616,87.53,93.6056,96.269,102.407,107.955,110.913,115.221,119.53,125.078,130.8548,133.513,137.526,142.607,145.92,148.877" svgx:width="0.5,0.58,0.61,0.55,0.6,0.55,0.29,0.42,0.42,0.55,0.58,0.55,0.4,0.5,0.33,0.29,0.55" style="fill:rgb(0,0,0);font-family:URWPalladioL-Roma;font-size:9.96px;stroke:none;">and Poisson ratio</text>
   <text y="218.949" x="156.953" svgx:width="0.5" style="fill:rgb(0,0,0);font-family:Rpxmi;font-size:9.96px;stroke:none;">ν</text>
   <text y="218.949" x="164.441" svgx:width="0.67" style="fill:rgb(0,0,0);font-family:Rpxr;font-size:9.96px;stroke:none;">=</text>
   <text y="218.949" x="173.765,178.846,181.386,186.467,191.548,194.038,197.686,203.336,206.293,211.943,218.071,221.902" svgx:width="0.5,0.25,0.5,0.5,0.25,0.55,0.56,0.29,0.56,0.6,0.4,0.48" style="fill:rgb(0,0,0);font-family:URWPalladioL-Roma;font-size:9.96px;stroke:none;">0.33. Figure</text>
   <text y="218.949" x="229.3,234.38" svgx:width="0.5,0.5" style="fill:rgb(8,117,183);font-family:URWPalladioL-Roma;font-size:9.96px;stroke:none;">10</text>
   <text y="218.949" x="241.982,246.29,252.204,257.753,266.228,270.4112,273.067,276.379,282.294,287.0748,289.681,295.89,298.847,303.156,306.469,310.483,313.44,319.059,325.187,328.5,331.457,337.005,342.919,347.1022,349.758,355.307,358.59380000000004,361.211,366.078,371.769,377.896,380.853,386.595,391.676,394.633,399.5,405.415,408.70180000000005,411.258,415.566,418.879,422.71,427.578,431.886,436.0692,438.725,442.109,447.19,452.271,457.352,462.433,467.514,470.80080000000004,473.418,478.499,484.413,490.4886,493.152,497.461,500.773,504.787,509.868,512.825" svgx:width="0.42,0.58,0.55,0.83,0.42,0.55,0.33,0.58,0.48,0.55,0.61,0.29,0.42,0.33,0.4,0.29,0.55,0.6,0.33,0.29,0.55,0.58,0.42,0.55,0.55,0.33,0.55,0.48,0.56,0.6,0.29,0.56,0.5,0.29,0.48,0.58,0.33,0.55,0.42,0.33,0.4,0.48,0.42,0.42,0.55,0.33,0.5,0.5,0.5,0.5,0.5,0.33,0.55,0.5,0.58,0.61,0.55,0.42,0.33,0.4,0.5,0.29,0.58" style="fill:rgb(0,0,0);font-family:URWPalladioL-Roma;font-size:9.96px;stroke:none;">shows the distributions of equivalent stress (a1–a4) and strain</text>
   <text y="232.459" x="76.207,79.591,85.21,90.291,95.372,100.992,106.073,109.35979999999999,112.089,118.297,124.425,128.439,131.396,137.31,142.8876,145.592,150.104,155.652,158.609,164.68460000000002,167.45,171.281,176.83,179.787,182.744,185.701,191.615,197.1926,199.897,205.445,208.7318,211.471,214.784,220.698,225.4788,228.198,233.279,235.819,240.9,245.981,253.186,256.57,261.651,264.191,269.272,274.353,281.558,285.542,288.204,292.512,295.825,300.692,305.56,308.517,311.007,314.97,318.394,321.68080000000003,324.339,328.851,334.399,340.527,343.484,349.5596,352.325,357.944,362.7248,365.444,369.752,374.62,379.487,385.2638,388.034,391.417,395.248,400.797,409.5618,412.402,415.714,421.629,426.4098,429.128,433.64,437.481,443.03,447.338,451.647,455.031,459.339,464.207,468.719,472.031,474.989,480.537,486.451,491.532,494.4204,497.121,502.863,505.82,510.687" svgx:width="0.33,0.55,0.5,0.5,0.55,0.5,0.33,0.55,0.61,0.6,0.4,0.29,0.58,0.56,0.55,0.44,0.55,0.29,0.61,0.55,0.4,0.55,0.29,0.29,0.29,0.58,0.56,0.55,0.55,0.33,0.55,0.33,0.58,0.48,0.55,0.5,0.25,0.5,0.5,0.71,0.33,0.5,0.25,0.5,0.5,0.71,0.4,0.55,0.42,0.33,0.48,0.48,0.29,0.25,0.55,0.34,0.33,0.55,0.44,0.55,0.6,0.29,0.61,0.55,0.55,0.48,0.55,0.42,0.48,0.48,0.58,0.55,0.33,0.4,0.55,0.88,0.55,0.33,0.58,0.48,0.55,0.44,0.4,0.55,0.42,0.42,0.33,0.42,0.48,0.44,0.33,0.29,0.55,0.58,0.5,0.29,0.55,0.56,0.29,0.48,0.83" style="fill:rgb(0,0,0);font-family:URWPalladioL-Roma;font-size:9.96px;stroke:none;">(b1–b4) during cold rolling of the 0.10C-1.50Cr steel. It could be seen from the cross-sectional view</text>
   <text y="245.968" x="76.535,79.848,85.762,90.843,94.1298,97.692,101.005,106.919,111.6998,115.323,120.19,125.881,132.009,134.966,140.707,145.788,148.745,153.613,159.527,162.8138,166.376,170.685,173.997,177.828,182.696,187.005,191.1882,194.849,199.93,205.845,211.9206,215.6,219.909,223.221,227.225,232.306,235.263,241.0398,244.724,249.032,251.99,257.64,263.554,266.511,272.659,277.171,282.252,288.156,291.468,294.425,300.00260000000003,303.622,306.579,312.493,317.005,320.836,325.704,330.785,335.093,339.961,346.0366,349.706,358.181,361.138,364.451,370.2278,373.901,376.858,382.772,387.284,391.115,395.983,401.064,405.372,408.33,414.244,419.82160000000005,423.43,429.537,434.618,438.927,443.235,448.103,452.412,454.902,461.578,465.002,470.916,474.229,479.097,482.938,487.805,492.114,495.427,498.384,504.298,509.948,512.905,517.447" svgx:width="0.33,0.58,0.5,0.33,0.55,0.33,0.58,0.48,0.55,0.48,0.56,0.6,0.29,0.56,0.5,0.29,0.48,0.58,0.33,0.55,0.42,0.33,0.4,0.48,0.42,0.42,0.55,0.5,0.58,0.61,0.55,0.42,0.33,0.4,0.5,0.29,0.58,0.55,0.42,0.29,0.56,0.58,0.29,0.61,0.44,0.5,0.58,0.33,0.29,0.56,0.55,0.29,0.58,0.44,0.4,0.48,0.5,0.42,0.48,0.61,0.55,0.83,0.29,0.33,0.58,0.55,0.29,0.58,0.44,0.4,0.48,0.5,0.42,0.29,0.58,0.56,0.55,0.6,0.5,0.42,0.42,0.48,0.42,0.25,0.55,0.34,0.58,0.33,0.48,0.4,0.48,0.42,0.33,0.29,0.58,0.56,0.29,0.56,0.25" style="fill:rgb(0,0,0);font-family:URWPalladioL-Roma;font-size:9.96px;stroke:none;">that the equivalent stress and strain signiﬁcantly increased with increasing passes. Interestingly,</text>
   <text y="259.478" x="76.535,79.848,85.762,90.5428,93.922,98.789,104.48,110.608,113.565,119.306,124.387,127.344,132.212,138.126,141.4128,144.731,149.04,152.353,156.367,161.447,164.405,170.1818,173.611,182.086,187.167,191.3502,194.768,198.081,203.995,208.7758,212.145,215.102,220.183,224.024,229.674,234.542,238.85,242.1368,245.455,250.536,253.8228,257.142,260.454,266.369,271.1498,274.518,279.03,284.579,288.593,294.507,299.374,303.358,306.681,312.229,315.5158,318.905,322.218,328.132,332.9128,336.292,342.4,345.357,350.438,353.75,358.5308,361.91,366.991,370.375,373.688,378.555,382.539,385.862,389.175,395.089,399.8698,403.249,406.633,412.181,418.309,422.323,425.635,431.41179999999997,434.842,440.949,446.03,450.339,454.5222,457.94,461.324,466.974,469.931,475.581,481.698,485.539" svgx:width="0.33,0.58,0.48,0.55,0.48,0.56,0.6,0.29,0.56,0.5,0.29,0.48,0.58,0.33,0.55,0.42,0.33,0.4,0.5,0.29,0.58,0.55,0.83,0.5,0.42,0.55,0.33,0.58,0.48,0.55,0.29,0.5,0.4,0.56,0.48,0.42,0.33,0.55,0.5,0.33,0.55,0.33,0.58,0.48,0.55,0.44,0.55,0.4,0.58,0.48,0.4,0.55,0.55,0.33,0.55,0.33,0.58,0.48,0.55,0.6,0.29,0.5,0.33,0.48,0.55,0.5,0.33,0.33,0.48,0.4,0.55,0.33,0.58,0.48,0.55,0.33,0.55,0.6,0.4,0.33,0.58,0.55,0.6,0.5,0.42,0.42,0.55,0.33,0.56,0.29,0.56,0.6,0.4,0.48" style="fill:rgb(0,0,0);font-family:URWPalladioL-Roma;font-size:9.96px;stroke:none;">the equivalent strain was the largest at the corner of the plate after the fourth pass (Figure</text>
   <text y="259.478" x="493.699,498.78" svgx:width="0.5,0.5" style="fill:rgb(8,117,183);font-family:URWPalladioL-Roma;font-size:9.96px;stroke:none;">10</text>
   <text y="259.478" x="503.861,509.481,514.562,517.946" svgx:width="0.55,0.5,0.33,0.25" style="fill:rgb(0,0,0);font-family:URWPalladioL-Roma;font-size:9.96px;stroke:none;">b4).</text>
   <text y="272.987" x="76.226,82.455,88.369,93.1498,96.113,100.625,106.173,110.187,114.028,118.896,123.204,129.312,134.86,140.774,146.983,149.94,155.854,161.4316,164.38,170.122,175.202,178.16,184.287,189.155,193.3382,196.339,201.42,205.261,210.0418,213.005,217.313,223.441,232.414,241.387,246.468,250.481,253.439,258.519,263.387,269.4626,272.472,275.429,281.20579999999995,284.229,289.879,292.836,298.486,304.614,308.445" svgx:width="0.61,0.58,0.48,0.55,0.44,0.55,0.4,0.4,0.48,0.42,0.6,0.55,0.58,0.61,0.29,0.58,0.56,0.55,0.56,0.5,0.29,0.6,0.48,0.42,0.55,0.5,0.4,0.48,0.55,0.42,0.6,0.88,0.88,0.5,0.4,0.29,0.5,0.48,0.61,0.55,0.29,0.58,0.55,0.56,0.29,0.56,0.6,0.4,0.48" style="fill:rgb(0,0,0);font-family:URWPalladioL-Roma;font-size:9.96px;stroke:none;">The corresponding values are summarized in Figure</text>
   <text y="272.987" x="316.188,321.269" svgx:width="0.5,0.5" style="fill:rgb(8,117,183);font-family:URWPalladioL-Roma;font-size:9.96px;stroke:none;">11</text>
   <text y="272.987" x="326.35,328.84000000000003,333.544,339.194,342.151,346.165,350.474,353.787,356.277,359.305,362.617,368.532,373.3128,376.285,380.594,383.906,387.737,392.605,396.914,401.0972,404.098,409.179,415.093,421.1686,424.188,428.497,431.809,435.823,440.904,443.861,449.63779999999997,452.651,455.608,461.523,466.035,469.866,474.733,479.814,484.123,488.99,495.0656,498.085,506.56,509.517,512.83" svgx:width="0.25,0.55,0.56,0.29,0.4,0.42,0.33,0.25,0.55,0.33,0.58,0.48,0.55,0.42,0.33,0.4,0.48,0.42,0.42,0.55,0.5,0.58,0.61,0.55,0.42,0.33,0.4,0.5,0.29,0.58,0.55,0.29,0.58,0.44,0.4,0.48,0.5,0.42,0.48,0.61,0.55,0.83,0.29,0.33,0.58" style="fill:rgb(0,0,0);font-family:URWPalladioL-Roma;font-size:9.96px;stroke:none;">. First, the stress and strain increased with</text>
   <text y="286.496" x="76.535,79.376,85.058,89.393,93.074,97.751,102.632,106.772,109.613,115.295,120.8726,123.028,128.896,133.777,137.917,142.057,146.733,150.873,153.363,156.731,161.857,166.534,170.868,176.199,181.882,187.847,190.33700000000002,192.631,197.513,200.7998,203.0,206.182,211.865,216.6458,218.846,224.245,228.921,234.35,237.191,242.873,248.555,251.397,257.079,262.6566,264.811,270.142,273.4288,275.698,280.374,285.256,289.591,295.3678,297.577,303.445,308.327,312.466,316.606,319.096,321.39,324.573,330.255,335.0358,337.236,341.376,344.558,348.239,352.916,357.055,361.2382,363.499,368.381,374.063,380.1386,382.333,386.472,389.655,393.512,398.393,401.235,407.0118,409.221,412.062,417.744,422.079,425.76,430.437,435.318,439.458,444.135,450.2106,452.404,460.547,463.388,466.571,472.3478,474.557,477.398,483.081,487.416,491.087,495.763,500.645,504.785,507.626,513.308" svgx:width="0.29,0.58,0.44,0.4,0.48,0.5,0.42,0.29,0.58,0.56,0.55,0.6,0.5,0.42,0.42,0.48,0.42,0.25,0.55,0.52,0.48,0.44,0.55,0.58,0.61,0.25,0.55,0.5,0.33,0.55,0.33,0.58,0.48,0.55,0.55,0.48,0.56,0.29,0.58,0.58,0.29,0.58,0.56,0.55,0.55,0.33,0.55,0.48,0.5,0.44,0.58,0.55,0.6,0.5,0.42,0.42,0.25,0.55,0.33,0.58,0.48,0.55,0.42,0.33,0.4,0.48,0.42,0.42,0.55,0.5,0.58,0.61,0.55,0.42,0.33,0.4,0.5,0.29,0.58,0.55,0.29,0.58,0.44,0.4,0.48,0.5,0.42,0.48,0.61,0.55,0.83,0.29,0.33,0.58,0.55,0.29,0.58,0.44,0.4,0.48,0.5,0.42,0.29,0.58,0.56" style="fill:rgb(0,0,0);font-family:URWPalladioL-Roma;font-size:9.96px;stroke:none;">increasing passes. Second, at the beginning of each pass, the stress and strain increased with increasing</text>
   <text y="300.006" x="76.535,82.701,87.535,93.601,96.891,102.6678,105.257,108.618,112.423,117.933,126.6978,129.347,132.637,138.511,143.2918,145.838,150.117,156.202,160.189,163.549,168.595,173.076,177.8568,180.403,183.693,189.17100000000002,191.696,196.676,199.235,205.401,210.235,216.301,219.591,225.36780000000002,227.957,233.467,236.7538,239.331,245.447,250.427,252.985,261.897,270.808,273.298,275.824,280.87,286.744,292.81960000000004,295.403,299.682,305.767,311.348,315.627,320.461,326.113,332.198,337.033,342.906,346.196,349.133,353.644,356.134,358.66,361.95,367.824,372.6048,375.151,380.853,385.899,388.835,394.921,399.755,403.9382,406.527,412.693,417.527,422.008,425.813,430.647,435.693,439.972,444.806,450.8816,453.475,461.892,464.829,468.119,473.8958,476.485,479.422,485.296,489.777,493.581,498.416,503.462,507.741,512.575" svgx:width="0.61,0.48,0.6,0.33,0.58,0.55,0.33,0.4,0.55,0.88,0.55,0.33,0.58,0.48,0.55,0.42,0.6,0.4,0.33,0.5,0.44,0.48,0.55,0.33,0.55,0.55,0.5,0.55,0.61,0.48,0.6,0.33,0.58,0.55,0.55,0.33,0.55,0.61,0.5,0.55,0.88,0.88,0.25,0.55,0.5,0.58,0.61,0.55,0.42,0.6,0.55,0.42,0.48,0.56,0.6,0.48,0.58,0.33,0.29,0.56,0.25,0.55,0.33,0.58,0.48,0.55,0.56,0.5,0.29,0.6,0.48,0.42,0.55,0.61,0.48,0.44,0.4,0.48,0.5,0.42,0.48,0.61,0.55,0.83,0.29,0.33,0.58,0.55,0.29,0.58,0.44,0.4,0.48,0.5,0.42,0.48,0.61" style="fill:rgb(0,0,0);font-family:URWPalladioL-Roma;font-size:9.96px;stroke:none;">depth from the surface to a depth of ~3 mm, and subsequently, the values decreased with increased</text>
   <text y="313.515" x="76.535,82.64,87.427,93.432,96.69,102.505,104.99499999999999,108.511,114.636,120.452,125.2328,127.737,130.644,135.641,139.408,144.964,149.75,153.987,157.2738,159.732,163.969,167.227,171.004,175.79,180.027,184.2102,186.752,191.748,197.564,203.6396,206.168,210.404,213.662,217.609,222.605,225.513,231.2898,233.827,242.161,246.947,250.714,255.4948,257.999,262.995,267.991,272.971,275.485,284.938,290.974,295.954,298.468,303.464,309.28,315.3556,317.874,322.87,325.368,330.348,332.862,337.859,341.1458,343.614,348.594,351.109,357.214,362.0,368.006,371.263,377.03979999999996,379.577,385.033,388.31980000000004,390.859,395.839,398.353,407.176,418.488,423.484,426.812,430.069,434.855,438.839,441.301,444.558,450.374,455.1548,457.658,460.986,466.442,472.467,476.414,479.672,485.4488,487.985,493.991,498.987,503.224,507.4072,509.959,515.415" svgx:width="0.61,0.48,0.6,0.33,0.58,0.25,0.55,0.61,0.58,0.48,0.55,0.29,0.5,0.4,0.56,0.48,0.42,0.33,0.55,0.42,0.33,0.4,0.48,0.42,0.42,0.55,0.5,0.58,0.61,0.55,0.42,0.33,0.4,0.5,0.29,0.58,0.55,0.83,0.48,0.4,0.48,0.55,0.5,0.5,0.5,0.55,0.95,0.6,0.5,0.55,0.5,0.58,0.61,0.55,0.5,0.25,0.5,0.55,0.5,0.33,0.55,0.5,0.55,0.61,0.48,0.6,0.33,0.58,0.55,0.55,0.33,0.55,0.5,0.55,0.88,0.88,0.5,0.33,0.33,0.48,0.4,0.55,0.33,0.58,0.48,0.55,0.33,0.55,0.6,0.4,0.33,0.58,0.55,0.6,0.5,0.42,0.42,0.55,0.55,0.33" style="fill:rgb(0,0,0);font-family:URWPalladioL-Roma;font-size:9.96px;stroke:none;">depth. The largest stress and strain were 830 MPa and 0.6 at a depth of 3 mmafter the fourth pass of</text>
   <text y="327.025" x="76.535,79.799,85.626,90.4068,92.905,97.911,100.415,105.421,110.427,117.526,120.86,125.866,128.369,133.375,138.382,145.48,149.464,151.918,156.164,159.428,164.224,169.02,171.933,174.423,177.921,184.058,189.886,194.6668,197.155,202.161,206.606,211.052,217.089,225.93,231.968,234.881,239.888,243.152,247.948,254.02360000000002,256.548,260.793,264.057,267.832,272.628,276.873,281.0562,283.602,288.608,294.435,300.5106,303.036,307.281,310.545,314.5,319.506,322.42,328.1968,330.73,333.644,339.4208,341.954,345.218,351.045,355.8258,358.314,361.578,367.045,373.021,375.546,378.459,383.465,389.032,393.828,397.81199999999995,400.266,408.617,413.413,417.187,421.9678,424.466,430.484,435.951,439.215,444.011,449.838,453.102,456.015,461.022,463.935,466.849,472.4266,474.899,479.344,484.35,490.388,494.633,499.429,505.5046,508.02,513.557" svgx:width="0.33,0.58,0.48,0.55,0.5,0.25,0.5,0.5,0.71,0.33,0.5,0.25,0.5,0.5,0.71,0.4,0.55,0.42,0.33,0.48,0.48,0.29,0.25,0.55,0.61,0.58,0.48,0.55,0.5,0.44,0.44,0.6,0.88,0.6,0.29,0.5,0.33,0.48,0.61,0.55,0.42,0.33,0.4,0.48,0.42,0.42,0.55,0.5,0.58,0.61,0.55,0.42,0.33,0.4,0.5,0.29,0.58,0.55,0.29,0.58,0.55,0.33,0.58,0.48,0.55,0.33,0.55,0.6,0.55,0.29,0.5,0.56,0.48,0.4,0.55,0.83,0.48,0.4,0.48,0.55,0.6,0.55,0.33,0.48,0.58,0.33,0.29,0.5,0.29,0.29,0.56,0.55,0.44,0.5,0.6,0.42,0.48,0.61,0.55,0.55,0.56" style="fill:rgb(0,0,0);font-family:URWPalladioL-Roma;font-size:9.96px;stroke:none;">the 0.10C-1.50Cr steel. The accumulated stress and strain in the top layer were potentially caused by</text>
   <text y="340.534" x="76.535,80.844,85.711,91.453,96.32,100.151,104.9318,107.712,113.819,116.776,121.857,126.165,129.478,132.435,136.8174,139.64,145.849,150.717,154.1,159.649,163.663,172.636,177.717,181.029,183.986,189.535,195.449,197.93900000000002,200.733,205.814,209.9972,212.805,221.28,226.148,229.105,231.99339999999998,234.755,239.836,244.0192,246.837,251.918,255.231,258.544,262.558,265.515,268.828,271.785,277.333,283.1098,285.94,289.771,294.639,300.553,306.762,311.629,315.46,320.328,326.4036,329.23,334.849,340.4266,343.192,346.505,352.419,357.1998,359.98,363.811,369.359,372.316,375.273,380.141,384.155,388.463,390.95300000000003,393.747,396.704,401.572,406.653,412.862,415.819,421.733,427.3106,430.076,433.389,438.867,441.62,444.933,450.847,455.6278,458.407,463.956,468.467,472.979,479.107,483.121,486.952,491.819,497.734,502.245,507.0258,509.806,515.354" svgx:width="0.42,0.48,0.56,0.48,0.4,0.48,0.55,0.6,0.29,0.5,0.42,0.33,0.29,0.44,0.55,0.61,0.48,0.33,0.55,0.4,0.88,0.5,0.33,0.29,0.55,0.58,0.25,0.55,0.5,0.42,0.55,0.83,0.48,0.29,0.29,0.55,0.5,0.42,0.55,0.5,0.33,0.33,0.4,0.29,0.33,0.29,0.55,0.58,0.55,0.4,0.48,0.58,0.61,0.48,0.4,0.48,0.61,0.55,0.55,0.56,0.55,0.33,0.58,0.48,0.55,0.4,0.55,0.29,0.29,0.48,0.4,0.42,0.25,0.55,0.29,0.48,0.5,0.61,0.29,0.58,0.56,0.55,0.33,0.55,0.55,0.33,0.58,0.48,0.55,0.55,0.44,0.44,0.6,0.4,0.4,0.48,0.58,0.44,0.48,0.55,0.55,0.33" style="fill:rgb(0,0,0);font-family:URWPalladioL-Roma;font-size:9.96px;stroke:none;">severe plastic deformation, as well as attrition rendered by the rollers, leading to the occurrence of</text>
   <text y="354.043" x="76.535,82.622,87.394,93.192,97.417,102.1978,104.679,110.767,118.517,126.119,132.206,136.3892,138.921,144.36,150.13680000000002,152.649,155.897,161.695,166.4758,168.958,172.206,177.645,183.621,186.124,189.023,194.004,199.543,204.315,207.513" svgx:width="0.61,0.48,0.58,0.42,0.48,0.55,0.61,0.78,0.76,0.61,0.42,0.55,0.55,0.58,0.55,0.33,0.58,0.48,0.55,0.33,0.55,0.6,0.55,0.29,0.5,0.56,0.48,0.4,0.25" style="fill:rgb(0,0,0);font-family:URWPalladioL-Roma;font-size:9.96px;stroke:none;">dense LAGBs on the top layer.</text>
  </g>
 </g>
</svg>
