<?xml version="1.0" encoding="UTF-8"?>
<svg height="757.187" width="4063.06" xmlns="http://www.w3.org/2000/svg">
 <g id="page" xmlns:svgx="http://www.xml-cml.org/schema/svgx">
  <path style="fill:rgb(23,22,21);stroke:none;stroke-width:1.0;" d="M62.430 19.640 L61.640 20.870 L61.640 24.970 L62.430 23.760 L62.430 26.740 L61.640 26.740 L61.640 28.910 L62.460 28.910 L62.460 30.490 L65.200 30.500 L65.200 19.640 ZM55.050 30.500 L58.300 30.500 L59.300 28.910 L61.640 28.910 L61.640 26.740 L60.560 26.730 L61.640 24.970 L61.640 20.870 Z"/>
  <path style="fill:rgb(23,22,21);stroke:none;stroke-width:1.0;" d="M66.550 19.670 L66.550 30.460 L71.020 30.450 C71.100 30.450 71.170 30.450 71.240 30.450 L71.240 27.990 C71.040 28.030 70.920 28.050 70.670 28.050 L69.320 28.050 L69.320 22.070 L70.710 22.060 C70.930 22.060 71.050 22.090 71.240 22.150 L71.240 19.740 C71.180 19.740 71.120 19.730 71.060 19.730 ZM71.240 30.450 C74.510 30.300 75.990 27.530 75.910 25.000 C75.820 22.070 74.140 19.890 71.240 19.740 L71.240 22.150 C72.450 22.470 73.190 23.790 73.150 25.070 C73.130 25.790 73.180 27.650 71.240 27.990 Z"/>
  <path style="fill:rgb(23,22,21);stroke:none;stroke-width:1.0;" d="M125.080 19.630 L125.080 30.470 L129.470 30.460 C129.550 30.460 129.620 30.460 129.700 30.460 L129.700 27.990 C129.500 28.030 129.270 28.050 129.030 28.050 L127.860 28.050 L127.860 22.090 L129.070 22.080 C129.290 22.080 129.500 22.060 129.700 22.120 L129.700 19.700 C129.640 19.690 129.570 19.690 129.510 19.690 ZM129.700 30.460 C132.970 30.310 134.560 27.490 134.480 24.960 C134.390 22.030 132.590 19.850 129.700 19.700 L129.700 22.120 C130.900 22.440 131.710 23.270 131.710 25.030 C131.710 25.750 131.640 27.650 129.700 27.990 Z"/>
  <path style="fill:rgb(23,22,21);stroke:none;stroke-width:1.0;" d="M78.450 19.630 L80.660 27.310 L82.910 19.630 L85.700 19.630 L82.100 30.510 L79.220 30.510 L75.590 19.650 Z"/>
  <path style="fill:rgb(23,22,21);stroke:none;stroke-width:1.0;" d="M88.160 26.730 L89.150 26.730 L89.150 28.920 L87.370 28.920 L86.830 30.490 L83.830 30.490 L88.170 19.620 L89.250 19.620 L89.270 23.090 ZM89.150 26.730 L90.440 26.730 L89.310 22.980 L89.270 23.090 L89.250 19.620 L90.340 19.620 L94.660 30.490 L91.740 30.490 L91.140 28.930 L89.150 28.920 Z"/>
  <path style="fill:rgb(23,22,21);stroke:none;stroke-width:1.0;" d="M95.330 19.650 L97.690 19.650 L101.770 26.180 L101.770 19.650 L104.430 19.650 L104.430 30.490 L102.030 30.480 L97.960 24.090 L97.960 30.550 L95.330 30.550 Z"/>
  <path style="fill:rgb(23,22,21);stroke:none;stroke-width:1.0;" d="M117.640 19.640 L123.630 19.640 L123.630 22.080 L120.330 22.070 L120.330 23.760 L123.590 23.760 L123.590 26.220 L120.420 26.210 L120.420 28.040 L123.710 28.040 L123.710 30.500 L117.640 30.500 Z"/>
  <path style="fill:rgb(23,22,21);stroke:none;stroke-width:1.0;" d="M113.790 26.430 C113.330 27.520 112.340 28.280 111.180 28.280 C109.590 28.280 108.300 26.840 108.300 25.080 C108.300 23.310 109.590 21.880 111.180 21.880 C112.350 21.880 113.360 22.660 113.810 23.770 L116.700 23.770 C116.110 21.280 113.860 19.430 111.180 19.430 C108.040 19.430 105.500 21.950 105.500 25.060 C105.500 28.170 108.040 30.700 111.180 30.700 C113.840 30.700 116.070 28.880 116.680 26.430 Z"/>
  <path style="fill:rgb(23,22,21);stroke:none;stroke-width:1.0;" d="M56.140 33.920 L57.710 33.680 C57.710 33.680 57.760 31.660 54.670 31.660 C51.580 31.660 51.400 33.190 51.400 33.970 C51.400 34.740 51.750 35.860 54.170 36.250 C55.080 36.400 56.320 36.670 56.320 37.520 C56.320 38.370 55.500 38.530 54.500 38.530 C53.510 38.530 52.950 38.260 52.590 37.430 C51.900 37.540 51.010 37.700 51.010 37.700 C51.010 37.700 51.300 39.890 54.520 39.860 C57.720 39.810 57.960 38.200 57.960 37.440 C57.960 36.690 57.760 35.650 55.700 35.160 C53.740 34.700 53.010 34.630 53.010 33.780 C53.010 32.930 53.940 32.900 54.530 32.900 C55.130 32.900 55.780 32.950 56.140 33.920 "/>
  <path style="fill:rgb(23,22,21);stroke:none;stroke-width:1.0;" d="M137.900 33.920 L139.470 33.680 C139.470 33.680 139.510 31.660 136.430 31.660 C133.340 31.660 133.150 33.190 133.150 33.970 C133.150 34.740 133.510 35.860 135.920 36.250 C136.840 36.400 138.070 36.670 138.070 37.520 C138.070 38.370 137.260 38.530 136.260 38.530 C135.260 38.530 134.710 38.260 134.350 37.430 C133.650 37.540 132.760 37.700 132.760 37.700 C132.760 37.700 133.060 39.890 136.280 39.860 C139.480 39.810 139.710 38.200 139.710 37.440 C139.710 36.690 139.510 35.650 137.460 35.160 C135.490 34.700 134.770 34.630 134.770 33.780 C134.770 32.930 135.690 32.900 136.290 32.900 C136.890 32.900 137.540 32.950 137.900 33.920 "/>
  <path style="fill:rgb(23,22,21);stroke:none;stroke-width:1.0;" d="M64.970 34.280 L66.400 33.860 C66.400 33.860 65.980 31.680 62.920 31.680 C59.870 31.680 58.930 33.600 58.930 35.700 C58.930 37.800 60.010 39.870 62.950 39.870 C65.810 39.870 66.500 37.530 66.500 37.530 L65.100 36.980 C65.100 36.980 64.570 38.540 62.940 38.540 C61.310 38.540 60.610 37.380 60.610 35.670 C60.610 33.960 61.410 32.960 62.990 32.960 C64.580 32.960 64.970 34.280 64.970 34.280 "/>
  <path style="fill:rgb(23,22,21);stroke:none;stroke-width:1.0;" d="M92.570 34.280 L94.000 33.860 C94.000 33.860 93.570 31.680 90.520 31.680 C87.460 31.680 86.530 33.600 86.530 35.700 C86.530 37.800 87.610 39.870 90.550 39.870 C93.410 39.870 94.100 37.530 94.100 37.530 L92.700 36.980 C92.700 36.980 92.170 38.540 90.540 38.540 C88.910 38.540 88.210 37.380 88.210 35.670 C88.210 33.960 89.010 32.960 90.590 32.960 C92.180 32.960 92.570 34.280 92.570 34.280 "/>
  <path style="fill:rgb(23,22,21);stroke:none;stroke-width:1.0;" d="M83.840 31.770 L83.840 37.850 L80.410 31.760 L78.830 31.770 L78.490 31.770 L78.490 39.760 L79.970 39.760 L79.970 33.770 L83.380 39.760 L83.840 39.760 L84.920 39.760 L85.320 39.760 L85.320 31.770 Z"/>
  <path style="fill:rgb(23,22,21);stroke:none;stroke-width:1.0;" d="M111.490 31.770 L111.490 37.850 L108.060 31.760 L106.490 31.770 L106.140 31.770 L106.140 39.760 L107.620 39.760 L107.620 33.770 L111.030 39.760 L111.490 39.760 L112.570 39.760 L112.970 39.760 L112.970 31.770 Z"/>
  <path style="fill:rgb(23,22,21);stroke:none;stroke-width:1.0;" d="M72.490 38.430 L72.490 36.400 L76.740 36.400 L76.740 35.110 L72.490 35.110 L72.490 33.070 L77.090 33.070 L77.090 31.780 L72.490 31.780 L72.020 31.780 L70.830 31.780 L70.830 39.760 L72.020 39.760 L72.490 39.760 L77.320 39.760 L77.320 38.430 Z"/>
  <path style="fill:rgb(23,22,21);stroke:none;stroke-width:1.0;" d="M96.980 38.430 L96.980 36.400 L101.240 36.400 L101.240 35.110 L96.980 35.110 L96.980 33.070 L101.580 33.070 L101.580 31.780 L96.980 31.780 L96.510 31.780 L95.330 31.780 L95.330 39.760 L96.510 39.760 L96.980 39.760 L101.810 39.760 L101.810 38.430 Z"/>
  <path style="fill:rgb(23,22,21);stroke:none;stroke-width:1.0;" d="M116.240 38.430 L116.240 36.400 L120.490 36.400 L120.490 35.110 L116.240 35.110 L116.240 33.070 L120.840 33.070 L120.840 31.780 L116.240 31.780 L115.770 31.780 L114.580 31.780 L114.580 39.760 L115.770 39.760 L116.240 39.760 L121.070 39.760 L121.070 38.430 Z"/>
  <path style="fill:rgb(23,22,21);stroke:none;stroke-width:1.0;" d="M121.470 31.770 L123.540 39.770 L125.520 39.780 L126.960 33.430 L128.350 39.790 L130.340 39.790 L132.410 31.770 L130.700 31.770 L129.310 38.110 L127.920 31.760 L126.030 31.760 L124.590 38.120 L123.180 31.770 Z"/>
  <path style="fill:none;stroke:rgb(23,22,21);stroke-width:1.0;" d="M466.330 38.940 L144.280 38.940 "/>
  <g begin="text">
   <text y="50.123" x="51.063,56.591,62.119,67.007,68.935,72.663,76.831,80.463,84.191,88.471,91.943,95.607,99.775,103.271,106.743,108.639,112.303,116.583,120.055,123.719,127.999,131.663,137.191,140.687,142.615,146.087,150.135" svgx:width="0.7,0.7,0.7,0.25,0.48,0.53,0.46,0.48,0.55,0.44,0.47,0.53,0.45,0.44,0.25,0.47,0.55,0.44,0.47,0.55,0.47,0.7,0.45,0.25,0.44,0.52,0.83" style="fill:rgb(23,22,21);font-family:ScalaSansLF-Bold;font-size:8.0px;stroke:none;">www.advancedsciencenews.com</text>
  </g>
  <g begin="text">
   <text y="747.187" x="186.762,191.262,195.762,200.262,204.762,209.262,213.762,218.262,220.512,222.762,225.543,230.043,232.293,236.937,239.529,241.779,246.279,250.779" svgx:width="0.5,0.5,0.5,0.5,0.5,0.5,0.5,0.25,0.55,0.31,0.5,0.25,0.52,0.29,0.25,0.5,0.5,0.31" style="fill:rgb(23,22,21);font-family:ScalaSansLF-Bold;font-size:9.0px;stroke:none;">1903088 (7 of 22)</text>
   <text y="746.136" x="299.131" svgx:width="1.01" style="fill:rgb(23,22,21);font-family:ScalaSansLF-Regular;font-size:6.0px;stroke:none;">©</text>
   <text y="747.136" x="305.185,307.11,310.61,314.11,317.61,321.11,323.035,326.808,330.56,333.843,335.768,339.933,343.72,345.883,349.635,353.366,355.725,358.854,360.611,362.536,366.428,370.215,373.904,375.577,377.306,380.435,384.187,387.47,391.243,393.168,396.857,399.692,401.617,407.665,409.765,413.23,417.003,420.853,422.785,426.866,431.101,436.498,438.423,442.083,445.366,447.725,449.398,452.73,456.279,458.204,463.16,469.089,472.778,478.175,480.1,485.007,486.932,490.991,494.722,496.479,498.404,502.401,507.357,510.689,514.854,516.618,518.543,524.17,527.453,529.182,532.997,536.749,540.032,541.761" svgx:width="0.25,0.5,0.5,0.5,0.5,0.25,0.54,0.54,0.47,0.25,0.6,0.54,0.31,0.54,0.53,0.34,0.45,0.25,0.25,0.56,0.54,0.53,0.24,0.25,0.45,0.54,0.47,0.54,0.25,0.53,0.41,0.25,0.86,0.3,0.5,0.54,0.55,0.28,0.58,0.61,0.77,0.25,0.58,0.47,0.34,0.24,0.48,0.51,0.25,0.71,0.85,0.53,0.77,0.25,0.7,0.25,0.61,0.53,0.25,0.25,0.57,0.71,0.48,0.6,0.25,0.25,0.86,0.47,0.25,0.55,0.54,0.47,0.25,0.85" style="fill:rgb(23,22,21);font-family:ScalaSansLF-Regular;font-size:7.0px;stroke:none;"> 2020 The Authors. Published by WILEY-VCH Verlag GmbH &amp; Co. KGaA, Weinheim</text>
  </g>
  <path style="fill:rgb(23,22,21);stroke:none;stroke-width:0.5;" d="M479.360 13.540 L477.230 13.540 L470.900 22.850 L473.680 22.850 L474.500 21.500 L477.230 21.500 L477.230 22.850 L479.610 22.850 L479.610 13.540 ZM477.230 17.030 L477.230 19.640 L475.640 19.640 Z"/>
  <path style="fill:rgb(23,22,21);stroke:none;stroke-width:0.5;" d="M486.460 18.740 C486.460 19.890 485.530 20.820 484.380 20.820 L483.100 20.820 L483.100 15.610 L484.380 15.610 C485.530 15.610 486.460 16.540 486.460 17.690 ZM484.610 13.530 L480.710 13.530 L480.710 22.870 L484.610 22.870 C486.900 22.870 488.770 21.000 488.770 18.710 L488.770 17.690 C488.770 15.400 486.900 13.530 484.610 13.530 "/>
  <path style="fill:rgb(23,22,21);stroke:none;stroke-width:0.5;" d="M536.780 18.740 C536.780 19.890 535.850 20.820 534.700 20.820 L533.420 20.820 L533.420 15.610 L534.700 15.610 C535.850 15.610 536.780 16.540 536.780 17.690 ZM534.930 13.530 L531.030 13.530 L531.030 22.870 L534.930 22.870 C537.220 22.870 539.090 21.000 539.090 18.710 L539.090 17.690 C539.090 15.400 537.220 13.530 534.930 13.530 "/>
  <path style="fill:rgb(23,22,21);stroke:none;stroke-width:0.5;" d="M491.690 22.880 L494.080 22.880 L497.200 13.540 L494.810 13.560 L492.890 20.140 L490.940 13.540 L488.570 13.540 Z"/>
  <path style="fill:rgb(23,22,21);stroke:none;stroke-width:0.5;" d="M499.290 19.620 L500.300 16.290 L501.260 19.620 ZM501.160 13.530 L499.340 13.530 L495.620 22.870 L498.140 22.850 L498.680 21.500 L501.860 21.500 L502.380 22.880 L504.930 22.880 Z"/>
  <path style="fill:rgb(23,22,21);stroke:none;stroke-width:0.5;" d="M511.140 13.530 L511.140 19.240 L507.660 13.530 L505.430 13.530 L505.430 22.900 L507.660 22.900 L507.660 17.190 L511.140 22.900 L513.360 22.900 L513.360 13.530 Z"/>
  <path style="fill:rgb(23,22,21);stroke:none;stroke-width:0.5;" d="M526.920 23.600 L526.920 29.240 L523.490 23.600 L521.290 23.600 L521.290 32.850 L523.490 32.850 L523.490 27.210 L526.920 32.850 L529.120 32.850 L529.120 23.600 Z"/>
  <path style="fill:rgb(23,22,21);stroke:none;stroke-width:0.5;" d="M521.470 19.380 C521.070 20.320 520.180 20.980 519.150 20.980 C517.720 20.980 516.570 19.740 516.570 18.210 C516.570 16.680 517.720 15.440 519.150 15.440 C520.190 15.440 521.080 16.110 521.480 17.070 L523.850 17.070 C523.330 14.970 521.430 13.410 519.150 13.410 C516.460 13.410 514.290 15.560 514.290 18.210 C514.290 20.860 516.460 23.010 519.150 23.010 C521.420 23.010 523.320 21.460 523.840 19.380 Z"/>
  <path style="fill:rgb(23,22,21);stroke:none;stroke-width:0.5;" d="M537.340 29.400 C536.940 30.350 536.050 31.010 535.020 31.010 C533.600 31.010 532.440 29.770 532.440 28.240 C532.440 26.710 533.600 25.470 535.020 25.470 C536.060 25.470 536.950 26.140 537.350 27.090 L539.720 27.090 C539.200 25.000 537.300 23.440 535.020 23.440 C532.330 23.440 530.160 25.590 530.160 28.240 C530.160 30.890 532.330 33.040 535.020 33.040 C537.290 33.040 539.190 31.490 539.710 29.400 Z"/>
  <path style="fill:rgb(23,22,21);stroke:none;stroke-width:0.5;" d="M507.600 29.430 C507.190 30.380 506.310 31.040 505.270 31.040 C503.850 31.040 502.700 29.800 502.700 28.270 C502.700 26.740 503.850 25.500 505.270 25.500 C506.310 25.500 507.200 26.170 507.610 27.120 L509.980 27.120 C509.450 25.030 507.550 23.470 505.270 23.470 C502.590 23.470 500.420 25.620 500.420 28.270 C500.420 30.920 502.590 33.070 505.270 33.070 C507.550 33.070 509.440 31.520 509.970 29.430 Z"/>
  <path style="fill:rgb(23,22,21);stroke:none;stroke-width:0.5;" d="M529.870 15.640 L529.870 13.510 L526.990 13.510 L524.650 13.510 L524.650 15.640 L524.650 17.110 L524.650 19.190 L524.650 20.680 L524.650 22.800 L524.650 22.820 L526.990 22.820 L526.990 22.800 L529.870 22.800 L529.870 20.680 L526.990 20.680 L526.990 19.190 L529.740 19.190 L529.740 17.110 L526.990 17.110 L526.990 15.640 Z"/>
  <path style="fill:rgb(23,22,21);stroke:none;stroke-width:0.5;" d="M545.820 25.690 L545.820 23.560 L542.950 23.560 L540.610 23.560 L540.610 25.690 L540.610 27.160 L540.610 29.240 L540.610 30.730 L540.610 32.860 L540.610 32.870 L542.950 32.870 L542.950 32.860 L545.820 32.860 L545.820 30.730 L542.950 30.730 L542.950 29.240 L545.690 29.240 L545.690 27.160 L542.950 27.160 L542.950 25.690 Z"/>
  <path style="fill:rgb(23,22,21);stroke:none;stroke-width:0.5;" d="M520.040 25.730 L520.040 23.600 L517.160 23.600 L514.820 23.600 L514.820 25.730 L514.820 27.200 L514.820 29.280 L514.820 30.760 L514.820 32.890 L514.820 32.910 L517.160 32.910 L517.160 32.890 L520.040 32.890 L520.040 30.760 L517.160 30.760 L517.160 29.280 L519.910 29.280 L519.910 27.200 L517.160 27.200 L517.160 25.730 Z"/>
  <path style="fill:rgb(23,22,21);stroke:none;stroke-width:0.5;" d="M497.460 26.330 L499.800 26.330 C499.800 26.330 499.880 23.420 496.780 23.420 C493.670 23.420 493.430 25.680 493.430 26.250 C493.430 26.250 493.370 27.770 495.400 28.680 C497.040 29.460 497.610 29.480 497.540 30.310 C497.540 30.310 497.410 31.120 496.610 31.070 C495.670 31.020 495.590 29.770 495.590 29.770 L493.300 29.770 C493.300 29.770 493.190 33.090 496.660 33.020 C499.880 33.020 499.880 30.490 499.880 30.060 C499.880 30.060 499.940 28.590 498.300 27.820 C496.680 27.110 495.800 26.850 495.770 26.130 C495.750 25.470 496.370 25.370 496.600 25.350 C496.840 25.340 497.460 25.470 497.460 26.330 "/>
  <path style="fill:rgb(23,22,21);stroke:none;stroke-width:0.5;" d="M519.140 37.870 C519.140 37.570 519.220 37.280 519.350 37.010 L470.890 37.010 L470.890 38.670 L519.330 38.670 C519.220 38.420 519.140 38.150 519.140 37.870 "/>
  <path style="fill:rgb(23,22,21);stroke:none;stroke-width:0.5;" d="M547.090 37.870 C547.090 39.230 545.680 40.340 543.970 40.340 L523.330 40.340 C521.610 40.340 520.210 39.230 520.210 37.870 C520.210 36.520 521.610 35.400 523.330 35.400 L543.970 35.400 C545.680 35.400 547.090 36.520 547.090 37.870 "/>
  <path style="fill:rgb(255,255,255);stroke:none;stroke-width:0.5;" d="M523.360 38.930 C522.730 38.930 522.220 38.420 522.220 37.790 C522.220 37.160 522.730 36.640 523.360 36.640 C523.990 36.640 524.510 37.160 524.510 37.790 C524.510 38.420 523.990 38.930 523.360 38.930 M523.360 36.190 C522.480 36.190 521.760 36.910 521.760 37.790 C521.760 38.670 522.480 39.390 523.360 39.390 C524.240 39.390 524.960 38.670 524.960 37.790 C524.960 36.910 524.240 36.190 523.360 36.190 "/>
  <path style="fill:rgb(255,255,255);stroke:none;stroke-width:0.5;" d="M526.450 39.080 C526.100 39.080 525.820 38.790 525.760 38.430 L525.760 38.160 C525.820 37.790 526.100 37.510 526.450 37.510 C526.850 37.510 527.180 37.860 527.180 38.290 C527.180 38.720 526.850 39.080 526.450 39.080 M526.450 37.200 C526.180 37.200 525.940 37.320 525.760 37.500 L525.760 37.240 L525.320 37.240 L525.320 40.400 L525.760 40.400 L525.760 39.080 C525.940 39.270 526.180 39.390 526.450 39.390 C527.010 39.390 527.460 38.900 527.460 38.290 C527.460 37.690 527.010 37.200 526.450 37.200 "/>
  <path style="fill:rgb(255,255,255);stroke:none;stroke-width:0.5;" d="M528.870 37.570 C529.160 37.570 529.400 37.800 529.470 38.110 L528.260 38.110 C528.340 37.800 528.570 37.570 528.870 37.570 M529.930 38.300 C529.930 37.700 529.460 37.210 528.870 37.210 C528.280 37.210 527.800 37.700 527.800 38.300 C527.800 38.900 528.280 39.390 528.870 39.390 C529.240 39.390 529.550 39.180 529.740 38.890 L529.400 38.680 C529.290 38.890 529.100 39.030 528.870 39.030 C528.570 39.030 528.330 38.800 528.260 38.480 L529.880 38.480 L529.880 38.470 L529.900 38.470 C529.910 38.410 529.930 38.360 529.930 38.300 "/>
  <path style="fill:rgb(255,255,255);stroke:none;stroke-width:0.5;" d="M541.080 37.570 C541.380 37.570 541.610 37.800 541.690 38.110 L540.480 38.110 C540.550 37.800 540.790 37.570 541.080 37.570 M542.150 38.300 C542.150 37.700 541.670 37.210 541.080 37.210 C540.500 37.210 540.020 37.700 540.020 38.300 C540.020 38.900 540.500 39.390 541.080 39.390 C541.450 39.390 541.760 39.180 541.950 38.890 L541.620 38.680 C541.510 38.890 541.310 39.030 541.080 39.030 C540.790 39.030 540.550 38.800 540.470 38.480 L542.100 38.480 L542.100 38.470 L542.120 38.470 C542.120 38.410 542.150 38.360 542.150 38.300 "/>
  <path style="fill:rgb(255,255,255);stroke:none;stroke-width:0.5;" d="M531.330 37.200 C531.070 37.200 530.870 37.320 530.710 37.480 L530.710 37.250 L530.240 37.250 L530.240 39.370 L530.710 39.370 L530.710 38.020 C530.750 37.890 530.870 37.590 531.200 37.590 C531.560 37.590 531.640 37.760 531.640 38.160 L531.640 39.360 L532.110 39.360 L532.110 38.120 C532.110 38.120 532.110 37.200 531.330 37.200 "/>
  <path style="fill:rgb(255,255,255);stroke:none;stroke-width:0.5;" d="M533.920 38.220 L534.480 36.890 L535.010 38.220 ZM535.470 39.370 L536.020 39.370 L534.690 36.290 L534.250 36.290 L532.920 39.370 L533.440 39.370 L533.770 38.590 L535.160 38.590 Z"/>
  <path style="fill:rgb(255,255,255);stroke:none;stroke-width:0.5;" d="M537.640 38.710 C537.510 38.870 537.330 38.980 537.110 38.980 C536.740 38.980 536.440 38.680 536.440 38.300 C536.440 37.920 536.740 37.620 537.110 37.620 C537.300 37.620 537.470 37.700 537.590 37.820 L537.900 37.580 C537.710 37.360 537.430 37.210 537.110 37.210 C536.520 37.210 536.040 37.700 536.040 38.300 C536.040 38.900 536.520 39.390 537.110 39.390 C537.430 39.390 537.700 39.240 537.900 39.020 Z"/>
  <path style="fill:rgb(255,255,255);stroke:none;stroke-width:0.5;" d="M539.670 38.710 C539.540 38.870 539.360 38.980 539.140 38.980 C538.770 38.980 538.470 38.680 538.470 38.300 C538.470 37.920 538.770 37.620 539.140 37.620 C539.330 37.620 539.500 37.700 539.620 37.820 L539.930 37.580 C539.740 37.360 539.460 37.210 539.140 37.210 C538.550 37.210 538.070 37.700 538.070 38.300 C538.070 38.900 538.550 39.390 539.140 39.390 C539.460 39.390 539.740 39.240 539.930 39.020 Z"/>
  <path style="fill:rgb(255,255,255);stroke:none;stroke-width:0.5;" d="M543.540 37.830 L543.870 37.550 C543.870 37.550 543.630 37.240 543.190 37.200 C542.750 37.150 542.410 37.490 542.390 37.880 C542.380 38.270 542.770 38.400 542.960 38.430 C543.150 38.460 543.430 38.540 543.430 38.740 C543.430 38.930 543.270 39.000 543.090 39.000 C542.910 39.000 542.620 38.710 542.620 38.710 L542.330 39.020 C542.330 39.020 542.590 39.390 543.090 39.370 C543.590 39.360 543.890 39.130 543.920 38.710 C543.950 38.280 543.460 38.140 543.240 38.070 C543.060 38.020 542.900 37.940 542.880 37.800 C542.860 37.650 543.170 37.390 543.540 37.830 "/>
  <path style="fill:rgb(255,255,255);stroke:none;stroke-width:0.5;" d="M545.400 37.830 L545.720 37.550 C545.720 37.550 545.480 37.240 545.040 37.200 C544.600 37.150 544.260 37.490 544.240 37.880 C544.230 38.270 544.620 38.400 544.810 38.430 C545.010 38.460 545.280 38.540 545.280 38.740 C545.280 38.930 545.120 39.000 544.940 39.000 C544.760 39.000 544.470 38.710 544.470 38.710 L544.180 39.020 C544.180 39.020 544.440 39.390 544.940 39.370 C545.450 39.360 545.740 39.130 545.770 38.710 C545.800 38.280 545.320 38.140 545.090 38.070 C544.920 38.020 544.750 37.940 544.730 37.800 C544.710 37.650 545.020 37.390 545.400 37.830 "/>
  <g begin="text">
   <text y="50.16" x="458.236,463.764,469.292,474.179,476.107,479.835,484.003,487.635,491.363,495.643,499.115,502.779,506.947,510.443,513.915,515.811,519.475,523.755,527.227,530.891,532.819,536.291,540.339" svgx:width="0.7,0.7,0.7,0.25,0.48,0.53,0.46,0.48,0.55,0.44,0.47,0.53,0.45,0.44,0.25,0.47,0.55,0.44,0.47,0.25,0.44,0.52,0.83" style="fill:rgb(23,22,21);font-family:ScalaSansLF-Bold;font-size:8.0px;stroke:none;">www.advancedscience.com</text>
  </g>
  <g begin="text">
   <text y="682.578" x="51.024,56.253,60.366,65.595,70.14,74.982,79.095,82.488,85.179,87.717,91.587,93.99,98.139,101.928,104.178,106.428,108.3,114.015,118.56,121.251,126.363,128.613,130.485,135.03,137.937,140.187,142.059,144.75,149.862,154.011,156.261,158.133,163.533,168.762,175.449,177.699,179.571,183.684,188.913,193.701,195.951,197.823,203.223,208.452,214.725,218.406,223.248,227.793,230.196,234.183,238.332,241.023,246.135,250.122,252.525,256.674,261.903,266.052,268.302,270.174,274.737,277.14,281.127,284.997,289.542,291.945,291.954" svgx:width="0.58,0.46,0.58,0.5,0.54,0.46,0.38,0.3,0.28,0.43,0.27,0.46,0.42,0.25,0.25,0.55,0.63,0.5,0.3,0.57,0.25,0.55,0.5,0.32,0.25,0.55,0.3,0.57,0.46,0.25,0.55,0.6,0.58,0.74,0.25,0.55,0.46,0.58,0.53,0.25,0.55,0.6,0.58,0.74,0.41,0.54,0.5,0.27,0.44,0.46,0.3,0.57,0.44,0.27,0.46,0.58,0.46,0.25,0.55,0.51,0.27,0.44,0.43,0.5,0.27,0.25,0.25" style="fill:rgb(23,22,21);font-family:ScalaLF-Regular;font-size:9.0px;stroke:none;">nanoparticles. Both of the PEO and PEO/polyethylene glycol </text>
   <text y="693.576" x="51.024,53.805,59.205,64.434,71.139,73.92,76.737,81.579,86.124,88.527,92.514,100.461,104.61,108.003,110.82,114.969,117.372,121.521,125.391,128.082,131.475,136.02,138.423,142.41,145.101,149.25,153.039,155.856,162.21,164.748,167.439,172.551,175.368,177.906,181.776,185.925,188.4,191.091,195.24,203.187,208.029,210.432,214.545,217.236,221.385,226.173,228.99,233.769,239.186,244.586,249.986,252.803,258.032,262.145,267.374,271.919,276.761,280.874,284.267,286.958,289.496" svgx:width="0.31,0.6,0.58,0.75,0.31,0.25,0.54,0.5,0.27,0.44,0.88,0.46,0.38,0.25,0.46,0.27,0.46,0.43,0.3,0.38,0.5,0.27,0.44,0.3,0.46,0.42,0.25,0.71,0.28,0.3,0.57,0.25,0.28,0.43,0.46,0.28,0.3,0.46,0.88,0.54,0.27,0.46,0.3,0.46,0.53,0.25,0.53,0.67,0.6,0.6,0.25,0.58,0.46,0.58,0.5,0.54,0.46,0.38,0.3,0.28,0.28" style="fill:rgb(23,22,21);font-family:ScalaLF-Regular;font-size:9.0px;stroke:none;">(PEG) polymer electrolytes with ice-templated LATP nanoparti-</text>
   <text y="704.574" x="51.024,54.894,57.297,61.446,65.235,67.485,69.411,73.2,78.312,82.857,89.211,91.461,93.387,98.499,101.037,105.6,110.712,114.861,118.254,120.504,122.43,124.968,129.513,134.742,137.28,141.15,143.4,145.326,149.196,153.741,158.97,163.758,168.888,172.758,175.449,177.987,181.965,184.503,187.194,191.181,193.431,195.357,198.048,203.16,207.273,212.502,214.752,216.678,219.369,224.481,229.026,232.815,236.964,239.214,241.14,247.494,250.032,252.723,257.835,262.38,267.51,270.201,272.451,274.377,279.624,282.027,284.43,288.579,291.972" svgx:width="0.43,0.27,0.46,0.42,0.25,0.55,0.42,0.57,0.5,0.71,0.25,0.55,0.57,0.28,0.51,0.57,0.46,0.38,0.25,0.55,0.28,0.5,0.58,0.28,0.43,0.25,0.55,0.43,0.5,0.58,0.53,0.57,0.43,0.3,0.28,0.44,0.28,0.3,0.44,0.25,0.55,0.3,0.57,0.46,0.58,0.25,0.55,0.3,0.57,0.5,0.42,0.46,0.25,0.55,0.71,0.28,0.3,0.57,0.5,0.57,0.3,0.25,0.55,0.58,0.27,0.27,0.46,0.38,0.25" style="fill:rgb(23,22,21);font-family:ScalaLF-Regular;font-size:9.0px;stroke:none;">cles show higher ionic conductivity than those without filler </text>
   <text y="715.572" x="51.024,55.569,58.962,61.212,63.381,69.735,72.273,74.964,80.076,82.326,84.495,87.888,92.001,97.23,102.018,106.563,114.51,116.913,120.9,123.15,125.319,130.107,132.645,136.434,141.276,145.425,148.818,152.607,156.756,161.544,163.794,165.963,170.742,176.159,181.559,186.959,189.209,191.378,196.607,200.72,205.949,210.494,215.336,219.449,222.842,225.533,228.071,231.941,234.344,238.493,242.282,244.532,246.701,249.482,254.35,256.888,261.451,266.581,269.974,274.123,276.373,278.542,283.042,286.912,289.693,291.943" svgx:width="0.5,0.38,0.25,0.55,0.71,0.28,0.3,0.57,0.25,0.55,0.38,0.46,0.58,0.53,0.5,0.88,0.27,0.44,0.25,0.55,0.53,0.28,0.42,0.54,0.46,0.38,0.42,0.46,0.53,0.25,0.55,0.53,0.67,0.6,0.6,0.25,0.55,0.58,0.46,0.58,0.5,0.54,0.46,0.38,0.3,0.28,0.43,0.27,0.46,0.42,0.25,0.55,0.31,0.57,0.28,0.51,0.57,0.38,0.46,0.25,0.55,0.5,0.43,0.31,0.25,0.25" style="fill:rgb(23,22,21);font-family:ScalaLF-Regular;font-size:9.0px;stroke:none;">or with randomly dispersed LATP nanoparticles (Figure 5c). </text>
   <text y="682.569" x="306.156,310.845,315.975,319.368,322.059,327.171,331.32,334.713,342.66,347.205,350.598,354.747,356.997,359.247,359.967,365.97,371.1,373.638,375.888,376.608,380.478,385.023,387.498,393.852,398.397,401.79,406.362,410.511,413.904" svgx:width="0.57,0.57,0.38,0.3,0.57,0.46,0.38,0.88,0.5,0.38,0.46,0.25,0.25,0.55,0.67,0.57,0.28,0.25,0.55,0.43,0.5,0.28,0.71,0.5,0.38,0.51,0.46,0.38,0.42" style="fill:rgb(23,22,21);font-family:ScalaLF-Regular;font-size:9.0px;stroke:none;">Furthermore, Cui co-workers</text>
   <text y="679.428" x="417.694,419.27,422.419,425.569" svgx:width="0.25,0.5,0.5,0.25" style="fill:rgb(23,22,21);font-family:ScalaLF-Regular;font-size:6.3px;stroke:none;">[59]</text>
   <text y="682.578" x="427.145,429.395,430.115,434.228,436.63,440.419,444.965,447.215,447.935,452.777,456.17,460.715,464.693,468.842,473.63,475.88,476.6,479.291,484.403,488.552,490.802,491.522,495.311,497.849,502.411,507.641,510.178,515.425,519.295,523.408,528.637,532.507,536.656,538.906,539.626,544.171,547.078" svgx:width="0.25,0.55,0.46,0.27,0.42,0.5,0.25,0.55,0.54,0.38,0.5,0.44,0.46,0.53,0.25,0.55,0.3,0.57,0.46,0.25,0.55,0.42,0.28,0.51,0.58,0.28,0.58,0.43,0.46,0.58,0.43,0.46,0.25,0.55,0.5,0.32,0.25" style="fill:rgb(23,22,21);font-family:ScalaLF-Regular;font-size:9.0px;stroke:none;"> also proved the significance of </text>
   <text y="693.576" x="306.158,310.271,312.674,315.212,319.775,325.004,332.951,337.099,342.328,345.02,347.27,348.089,352.634,355.541,357.791,358.61,362.48,366.629,370.022,374.135,382.082,384.62,388.49,390.74,391.559,396.788,400.901,406.13,410.675,417.029,419.567,422.96,427.109,430.898,433.148,433.967,436.874,441.419,444.812,447.062,447.881,450.572,455.684,459.833,462.083,462.902,467.051,472.28,477.392,481.505,486.734,490.604,494.753,502.7,506.849,512.078,514.768,517.018,517.837,522.382,525.289,527.539,528.358,530.896,535.441,540.67,543.208,547.078" svgx:width="0.46,0.27,0.28,0.51,0.58,0.88,0.46,0.58,0.3,0.25,0.55,0.5,0.32,0.25,0.55,0.43,0.46,0.38,0.46,0.88,0.28,0.43,0.25,0.55,0.58,0.46,0.58,0.5,0.71,0.28,0.38,0.46,0.42,0.25,0.55,0.32,0.5,0.38,0.25,0.55,0.3,0.57,0.46,0.25,0.55,0.46,0.58,0.57,0.46,0.58,0.43,0.46,0.88,0.46,0.58,0.3,0.25,0.55,0.5,0.32,0.25,0.55,0.28,0.5,0.58,0.28,0.43,0.25" style="fill:rgb(23,22,21);font-family:ScalaLF-Regular;font-size:9.0px;stroke:none;">alignment of ceramic nanowires for the enhancement of ionic </text>
   <text y="704.574" x="306.158,310.027,314.573,319.802,324.59,329.72,333.59,336.281,338.819,342.797,345.335,348.026,352.013,353.624,358.169,361.076,362.687,367.745,373.748,378.977,382.766,385.016,386.627,389.165,394.394,398.264,400.667,405.797,410.585,413.122,418.352,422.914,424.525,427.216,432.328,436.477,438.088,442.201,447.43,451.993,454.396,458.545,462.334,463.945,468.058,476.005,480.55,485.779,490.342,491.953,494.644,499.756,503.905,505.516,510.745,514.858,520.087,524.632,530.986,533.524,536.917,541.066,544.855,547.105" svgx:width="0.43,0.5,0.58,0.53,0.57,0.43,0.3,0.28,0.44,0.28,0.3,0.44,0.25,0.5,0.32,0.25,0.56,0.67,0.58,0.42,0.25,0.25,0.28,0.58,0.43,0.27,0.57,0.53,0.28,0.58,0.51,0.25,0.3,0.57,0.46,0.25,0.46,0.58,0.51,0.27,0.46,0.42,0.25,0.46,0.88,0.5,0.58,0.51,0.25,0.3,0.57,0.46,0.25,0.58,0.46,0.58,0.5,0.71,0.28,0.38,0.46,0.42,0.25,0.25" style="fill:rgb(23,22,21);font-family:ScalaLF-Regular;font-size:9.0px;stroke:none;">conductivity of SCEs, including the angles among the nanowires. </text>
   <text y="715.572" x="306.158,311.557,316.669,320.818,324.805,327.055,328.963,333.112,341.059,345.793,349.942,354.73,359.518,363.667,368.455,370.705,372.613,375.304,380.416,384.565,386.815,388.723,392.836,395.239,397.777,402.34,407.569,411.718,416.506,418.756,420.664,425.443,429.321,434.721,441.408,443.658,445.566,450.795,454.908,460.137,464.682,471.036,473.574,476.967,481.116,484.905,487.155,489.063,491.601,496.83,499.08,500.988,506.388,512.436,519.069,521.544,526.323,528.861,534.864,537.267" svgx:width="0.6,0.57,0.46,0.44,0.25,0.55,0.46,0.88,0.53,0.46,0.53,0.53,0.46,0.53,0.25,0.55,0.3,0.57,0.46,0.25,0.55,0.46,0.27,0.28,0.51,0.58,0.46,0.53,0.25,0.55,0.53,0.53,0.6,0.74,0.25,0.55,0.58,0.46,0.58,0.5,0.71,0.28,0.38,0.46,0.42,0.25,0.55,0.28,0.58,0.25,0.55,0.6,0.67,0.74,0.28,0.53,0.28,0.67,0.27,0.74" style="fill:rgb(23,22,21);font-family:ScalaLF-Regular;font-size:9.0px;stroke:none;">They embedded the aligned LLTO nanowires in PAN-LiClO</text>
   <text y="717.378" x="543.937" svgx:width="0.5" style="fill:rgb(23,22,21);font-family:ScalaLF-Regular;font-size:6.3px;stroke:none;">4</text>
   <text y="715.578" x="547.087" svgx:width="0.25" style="fill:rgb(23,22,21);font-family:ScalaLF-Regular;font-size:9.0px;stroke:none;"> </text>
   <text y="747.166" x="51.024,55.189,58.633,61.033" svgx:width="0.6,0.49,0.41,0.25" style="fill:rgb(23,22,21);font-family:ScalaSansLF-Italic;font-size:7.0px;stroke:none;">Adv.</text>
   <text y="747.166" x="62.79" svgx:width="0.25" style="fill:rgb(23,22,21);font-family:ScalaSansLF-Regular;font-size:7.0px;stroke:none;"> </text>
   <text y="747.166" x="64.716,68.454,71.212,72.836" svgx:width="0.53,0.39,0.23,0.25" style="fill:rgb(23,22,21);font-family:ScalaSansLF-Italic;font-size:7.0px;stroke:none;">Sci.</text>
   <text y="747.166" x="74.593" svgx:width="0.25" style="fill:rgb(23,22,21);font-family:ScalaSansLF-Regular;font-size:7.0px;stroke:none;"> </text>
   <text y="747.166" x="76.518,80.018,83.518,87.018" svgx:width="0.5,0.5,0.5,0.5" style="fill:rgb(23,22,21);font-family:ScalaSansLF-Bold;font-size:7.0px;stroke:none;">2020</text>
   <text y="747.166" x="90.518,92.282" svgx:width="0.25,0.25" style="fill:rgb(23,22,21);font-family:ScalaSansLF-Regular;font-size:7.0px;stroke:none;">, </text>
   <text y="747.166" x="94.207" svgx:width="0.5" style="fill:rgb(23,22,21);font-family:ScalaSansLF-Italic;font-size:7.0px;stroke:none;">7</text>
   <text y="747.166" x="97.707,99.471,101.396,104.889,108.389,111.889,115.389,118.889,122.389" svgx:width="0.25,0.25,0.5,0.5,0.5,0.5,0.5,0.5,0.5" style="fill:rgb(23,22,21);font-family:ScalaSansLF-Regular;font-size:7.0px;stroke:none;">, 1903088</text>
  </g>
  <rect style="stroke:blue;stroke-width:0.3;" x="53.06" y="88.504" height="454.44" width="492.0" title="7"/>
  <text y="88.504" class="image" id="image.7.1" width="492" height="454" x="53.06">image.7.1.53_545.89_543</text>
  <g begin="text">
   <text y="539.762" x="51.024,55.2,57.176,61.232,65.592,68.288,72.032,73.856,77.856" svgx:width="0.52,0.25,0.51,0.55,0.34,0.47,0.25,0.5,0.25" style="fill:rgb(23,22,21);font-family:ScalaSansLF-Bold;font-size:8.0px;stroke:none;">Figure 5.</text>
   <text y="539.762" x="79.864,81.864,83.864,87.672,90.576,92.4,98.088,101.84,106.184,109.936,114.296,118.608,122.36,126.72,130.272,134.024,135.848,140.112,142.368,144.192,146.168,150.432,154.792,156.768,160.32,162.144,165.696,169.96,174.32,178.632,182.96,186.512,188.984,190.96,194.536,196.512,198.984,202.224,204.048,208.312,210.568,212.392,216.84,221.6,227.672,230.944,234.904,236.88,241.72,243.632" svgx:width="0.25,0.55,0.48,0.36,0.25,0.71,0.47,0.54,0.47,0.55,0.54,0.47,0.55,0.44,0.47,0.25,0.53,0.28,0.25,0.25,0.53,0.55,0.25,0.44,0.25,0.44,0.53,0.55,0.54,0.54,0.44,0.31,0.25,0.45,0.25,0.31,0.41,0.25,0.53,0.28,0.25,0.56,0.6,0.76,0.41,0.5,0.25,0.61,0.24,0.76" style="fill:rgb(23,22,21);font-family:ScalaSansLF-Regular;font-size:8.0px;stroke:none;"> a) Dependence of ionic conductivity of PAN/LiClO</text>
   <text y="541.362" x="249.749" svgx:width="0.5" style="fill:rgb(23,22,21);font-family:ScalaSansLF-Regular;font-size:5.6px;stroke:none;">4</text>
   <text y="539.762" x="252.549,254.565,256.389,260.837,265.597,271.669,274.941,278.901,280.877,285.717,287.629" svgx:width="0.25,0.25,0.56,0.6,0.76,0.41,0.5,0.25,0.61,0.24,0.76" style="fill:rgb(23,22,21);font-family:ScalaSansLF-Regular;font-size:8.0px;stroke:none;">, PAN/LiClO</text>
   <text y="541.362" x="293.735" svgx:width="0.5" style="fill:rgb(23,22,21);font-family:ScalaSansLF-Regular;font-size:5.6px;stroke:none;">4</text>
   <text y="539.762" x="296.535,298.359,303.703,305.679,308.151,312.439,314.263,318.223,321.382,325.694,331.798,333.622,337.982,341.79,346.15,350.414,355.758,357.734,360.431,364.183,367.759,369.775,371.599,375.407,379.767,384.079,385.903,389.863,393.022,397.334,403.438,405.262,409.622,413.43,417.79,422.054,426.398,430.206,432.902,435.374,437.35,440.902,442.814,446.566,450.142,451.966,456.23,460.59,462.414,464.886,468.638,475.414,479.758,483.51,486.206,490.014,492.486,496.814,499.51,503.262,505.27,507.094,511.766,515.518,519.862,522.558,526.822,531.134,535.462,539.014,542.766,547.078" svgx:width="0.25,0.67,0.25,0.31,0.54,0.25,0.5,0.5,0.54,0.76,0.25,0.55,0.48,0.55,0.53,0.67,0.25,0.34,0.47,0.45,0.25,0.25,0.48,0.55,0.54,0.25,0.5,0.5,0.54,0.76,0.25,0.55,0.48,0.55,0.53,0.54,0.48,0.34,0.31,0.25,0.44,0.24,0.47,0.45,0.25,0.53,0.55,0.25,0.31,0.47,0.85,0.54,0.47,0.34,0.48,0.31,0.54,0.34,0.47,0.25,0.25,0.58,0.47,0.54,0.34,0.53,0.54,0.54,0.44,0.47,0.54,0.25" style="fill:rgb(23,22,21);font-family:ScalaSansLF-Regular;font-size:8.0px;stroke:none;"> with LLTO nanowires, and LLTO nanoparticles on temperature. Reproduced </text>
   <text y="549.258" x="51.023,56.367,58.343,60.815,65.103,67.311,71.655,75.407,78.103,84.879,86.855,90.431,94.007,95.983,100.247,104.607" svgx:width="0.67,0.25,0.31,0.54,0.25,0.54,0.47,0.34,0.85,0.25,0.45,0.45,0.25,0.53,0.55,0.25" style="fill:rgb(23,22,21);font-family:ScalaSansLF-Regular;font-size:8.0px;stroke:none;">with permission.</text>
   <text y="546.462" x="106.613,108.013,110.813,113.613" svgx:width="0.25,0.5,0.5,0.25" style="fill:rgb(23,22,21);font-family:ScalaSansLF-Regular;font-size:5.6px;stroke:none;">[40]</text>
   <text y="549.262" x="115.013,117.221,121.86,126.124,130.468,133.708,136.404,138.38,142.436,146.724,149.196,151.404,155.404,159.404,163.396,167.396,169.412,171.62,176.38,183.156,186.908,189.604,191.58,195.132,198.94,203.3,205.508,210.348,214.636,218.388,225.164,227.14,230.692,234.5,236.412,238.62,242.892,247.156,250.708,252.684,256.436,258.908,261.507,263.515,265.723,269.939,272.843,275.051,277.451,279.363,281.275,285.603,289.179,291.651,294.347,298.155,300.627,302.603,306.867,311.227,313.435,317.699,319.955,322.163,325.915,327.827,331.579,335.131,337.603,340.299,342.275,345.827,348.035,352.011,355.763,357.675,361.987,364.195,368.507,370.483,373.179,376.931,380.483,382.955,386.707,391.019,393.227,397.571,401.379,404.075,407.883,409.795,411.707,415.459,417.371,419.579,423.387,425.299,427.275,431.331,435.691,442.467,446.219,450.579,453.051,455.259,459.523,461.779,463.987,467.947,472.147,476.459,480.907,488.907,493.355,497.667,503.331,509.019,513.779,515.795,518.003,520.699,524.451,528.027,532.355,534.267,536.739,538.715,543.075,547.131" svgx:width="0.25,0.61,0.53,0.54,0.41,0.34,0.25,0.51,0.54,0.31,0.25,0.5,0.5,0.5,0.5,0.25,0.25,0.6,0.85,0.47,0.34,0.25,0.44,0.48,0.55,0.25,0.61,0.54,0.47,0.85,0.25,0.44,0.48,0.24,0.25,0.53,0.53,0.44,0.25,0.47,0.31,0.41,0.25,0.25,0.53,0.36,0.25,0.3,0.24,0.24,0.54,0.45,0.31,0.34,0.48,0.31,0.25,0.53,0.55,0.25,0.53,0.28,0.25,0.47,0.24,0.47,0.44,0.31,0.34,0.25,0.44,0.28,0.5,0.47,0.24,0.54,0.28,0.54,0.25,0.34,0.47,0.44,0.31,0.47,0.54,0.25,0.54,0.48,0.34,0.48,0.24,0.24,0.47,0.24,0.25,0.48,0.24,0.25,0.51,0.55,0.85,0.47,0.55,0.31,0.25,0.53,0.28,0.25,0.5,0.6,0.54,0.56,1.0,0.56,0.54,0.71,0.71,0.6,0.25,0.25,0.34,0.47,0.45,0.54,0.24,0.31,0.25,0.55,0.51,0.25" style="fill:rgb(23,22,21);font-family:ScalaSansLF-Regular;font-size:8.0px;stroke:none;"> Copyright 2015, American Chemical Society. b) Illustration of electric-field-directed parallel alignment of LATP@PEGDA, resulting </text>
   <text y="558.758" x="51.021,52.997,57.357,59.725,61.701,68.477,72.821,75.517,79.781,83.357,87.109,91.421,93.789,95.765,100.029,104.389,106.757,110.309,114.573,118.933,123.245,127.573,131.125,133.597,135.573,139.149,141.125,143.597,146.195,148.203,150.571,154.883,159.171,162.923,165.291,169.043,170.955,174.707,178.259,180.731,183.427,185.403,188.955,191.163,195.139,198.891,200.803,205.115,207.483,211.795,213.771,216.467,220.219,223.771,226.243,228.219,232.483,236.843,239.211,241.187,244.763,247.131,249.107,253.467,257.779,259.755,263.307,267.115,269.587,273.339,277.651,280.019,284.235,287.475,289.843,292.315,296.603,300.355,302.723,307.067,310.875,313.571,317.379,319.291,321.203,324.955,326.867,329.235,333.043,335.739,338.435,342.699,347.402,349.41,351.778,356.45,360.202,364.546,367.242,371.507,375.819,380.147,383.699,387.451,391.763,394.131,399.475,401.451,403.923,408.211,410.579,414.923,418.675,421.371,428.147,430.123,433.699,437.275,439.251,443.515,447.875" svgx:width="0.25,0.55,0.25,0.25,0.85,0.54,0.34,0.53,0.45,0.47,0.54,0.25,0.25,0.53,0.55,0.25,0.44,0.53,0.55,0.54,0.54,0.44,0.31,0.25,0.45,0.25,0.31,0.41,0.25,0.25,0.54,0.54,0.47,0.25,0.47,0.24,0.47,0.44,0.31,0.34,0.25,0.44,0.28,0.5,0.47,0.24,0.54,0.25,0.54,0.25,0.34,0.47,0.44,0.31,0.25,0.53,0.55,0.25,0.25,0.45,0.25,0.25,0.55,0.54,0.25,0.44,0.48,0.31,0.47,0.54,0.25,0.53,0.41,0.25,0.31,0.54,0.47,0.25,0.54,0.48,0.34,0.48,0.24,0.24,0.47,0.24,0.25,0.48,0.34,0.34,0.53,0.67,0.25,0.25,0.58,0.47,0.54,0.34,0.53,0.54,0.54,0.44,0.47,0.54,0.25,0.67,0.25,0.31,0.54,0.25,0.54,0.47,0.34,0.85,0.25,0.45,0.45,0.25,0.53,0.55,0.25" style="fill:rgb(23,22,21);font-family:ScalaSansLF-Regular;font-size:8.0px;stroke:none;">in improved ion conductivity. The electric-field direction is indicated by the parallel arrow. Reproduced with permission.</text>
   <text y="555.962" x="449.922,451.322,454.122,456.922" svgx:width="0.25,0.5,0.5,0.25" style="fill:rgb(23,22,21);font-family:ScalaSansLF-Regular;font-size:5.6px;stroke:none;">[76]</text>
   <text y="558.762" x="458.322,460.69,465.329,469.593,473.937,477.177,479.873,481.849,485.905,490.193,492.665,495.033,499.033,503.033,507.025,511.025,513.041,515.409,520.169,526.945,530.697,533.393,535.369,538.921,542.729,547.089" svgx:width="0.25,0.61,0.53,0.54,0.41,0.34,0.25,0.51,0.54,0.31,0.25,0.5,0.5,0.5,0.5,0.25,0.25,0.6,0.85,0.47,0.34,0.25,0.44,0.48,0.55,0.25" style="fill:rgb(23,22,21);font-family:ScalaSansLF-Regular;font-size:8.0px;stroke:none;"> Copyright 2018, American </text>
   <text y="568.258" x="51.026,55.866,60.154,63.906,70.682,72.658,76.21,80.018,81.93,84.466,88.738,93.002,96.554,98.53,102.282,104.754,107.353,109.361,111.897,115.449,118.353,120.889,125.161,128.713,133.001,136.753,143.529,147.337,149.809,151.785,155.337,157.869,162.133,164.389,166.925,170.501,174.253,176.949,179.421,181.397,184.949,188.757,190.669,192.581,195.821,198.357,202.165,204.077,206.053,210.109,214.469,218.221,222.533,225.069,228.877,233.237,237.549,240.085,243.637,247.901,252.261,256.621,260.373,263.925,266.397,270.149,274.461,276.997,280.549,284.301,286.997,290.805,297.581,299.557,303.109,305.645,309.197,313.485,317.293,321.653,326.013,329.765,331.677,335.253,337.789,340.045,344.309,347.005,349.537,353.289,357.649,361.937,365.745,370.105,373.657,375.633,379.993,384.049,386.585,388.561,392.825,397.185,399.161,402.713,405.249,408.801,413.065,417.425,421.737,426.065,429.617,432.089,434.065,438.329,442.689,445.225,449.033,453.393,457.705,460.241,462.217,466.481,470.841,472.817,476.369,478.905,482.457,486.721,491.081,495.393,499.721,503.273,505.745,507.721,511.297,513.273,515.745,517.721,521.473,525.049,527.581,531.845,534.101,536.637,539.109,543.397,547.149" svgx:width="0.61,0.54,0.47,0.85,0.25,0.44,0.48,0.24,0.25,0.53,0.53,0.44,0.25,0.47,0.31,0.41,0.25,0.25,0.44,0.36,0.25,0.53,0.44,0.54,0.47,0.85,0.48,0.31,0.25,0.44,0.25,0.53,0.28,0.25,0.45,0.47,0.34,0.31,0.25,0.44,0.48,0.24,0.24,0.41,0.25,0.48,0.24,0.25,0.51,0.55,0.47,0.54,0.25,0.48,0.55,0.54,0.25,0.44,0.53,0.55,0.55,0.47,0.44,0.31,0.47,0.54,0.25,0.44,0.47,0.34,0.48,0.85,0.25,0.44,0.25,0.44,0.54,0.48,0.55,0.55,0.47,0.24,0.45,0.25,0.28,0.53,0.34,0.25,0.47,0.55,0.54,0.48,0.55,0.44,0.25,0.55,0.51,0.25,0.25,0.53,0.55,0.25,0.44,0.25,0.44,0.53,0.55,0.54,0.54,0.44,0.31,0.25,0.53,0.55,0.25,0.48,0.55,0.54,0.25,0.25,0.53,0.55,0.25,0.44,0.25,0.44,0.53,0.55,0.54,0.54,0.44,0.31,0.25,0.45,0.25,0.31,0.25,0.47,0.45,0.25,0.53,0.28,0.25,0.31,0.54,0.47,0.25" style="fill:rgb(23,22,21);font-family:ScalaSansLF-Regular;font-size:8.0px;stroke:none;">Chemical Society. c) Schematic of vertically aligned and connected ceramic channels for enhancing ionic conduction and ionic conductivities of the </text>
   <text y="577.754" x="51.026,53.498,57.786,60.482,64.234,67.986,69.986,71.09,74.666,77.138,79.834,84.162,87.714,90.186,94.514,97.21,100.962,104.538,106.554,108.554,109.658,112.13,116.418,120.17,122.17,123.274,127.618,131.946,134.642,138.394,140.394,141.498,145.946,150.258,156.362,159.634,164.082,168.394,174.058,176.074,178.074,179.178,183.626,187.938,194.042,197.314,201.762,206.074,211.738,215.01,217.706,221.514,225.874,230.186,234.45,241.226,243.138,246.378,248.378,249.482,253.794,255.77,259.346,263.69,267.442,270.138,273.714,277.466,281.778,283.778,284.882,288.842,293.041,297.353,301.801,303.801,304.905,309.265,313.073,317.433,321.697,326.041,329.849,332.545,335.017,336.993,340.545,342.457,346.209,349.785,351.801,353.801,354.905,358.713,363.073,367.385,369.385,370.489,374.937,379.249,385.353,388.625,393.073,397.385,403.049,406.321,408.297,411.849,415.601,417.809,420.281,424.033,430.809,435.153,437.065,440.873,443.345,447.097,451.409,453.409,454.513,458.473,462.672,466.984,471.432,473.432,474.536,478.896,482.704,487.064,491.328,495.672,499.48,502.176,504.648,506.624,510.176,512.088,515.84,519.416,521.416,522.52,526.272,528.184,531.936,535.488,537.96,540.656,544.92" svgx:width="0.31,0.54,0.34,0.47,0.47,0.25,0.55,0.45,0.31,0.34,0.54,0.44,0.31,0.54,0.34,0.47,0.45,0.25,0.25,0.55,0.31,0.54,0.47,0.25,0.55,0.54,0.54,0.34,0.47,0.25,0.55,0.56,0.54,0.76,0.41,0.56,0.54,0.71,0.25,0.25,0.55,0.56,0.54,0.76,0.41,0.56,0.54,0.71,0.41,0.34,0.48,0.55,0.54,0.53,0.85,0.24,0.41,0.25,0.55,0.54,0.25,0.45,0.54,0.47,0.34,0.45,0.47,0.54,0.25,0.55,0.5,0.6,0.54,0.56,0.25,0.55,0.55,0.48,0.55,0.53,0.54,0.48,0.34,0.31,0.25,0.44,0.24,0.47,0.45,0.25,0.25,0.55,0.48,0.55,0.54,0.25,0.55,0.56,0.54,0.76,0.41,0.56,0.54,0.71,0.41,0.25,0.44,0.47,0.28,0.31,0.47,0.85,0.54,0.24,0.48,0.31,0.47,0.54,0.25,0.55,0.5,0.6,0.54,0.56,0.25,0.55,0.55,0.48,0.55,0.53,0.54,0.48,0.34,0.31,0.25,0.44,0.24,0.47,0.45,0.25,0.55,0.47,0.24,0.47,0.44,0.31,0.34,0.53,0.28" style="fill:rgb(23,22,21);font-family:ScalaSansLF-Regular;font-size:8.0px;stroke:none;">three structures, the pure PEO/PEG, PEO/PEG/randomly dispersed LATP nanoparticles, and PEO/PEG/ice-templated LATP nanoparticles electro-</text>
   <text y="587.25" x="51.026,52.938,56.178,58.65,62.402,65.978,67.994,69.994,70.778,74.586,77.058,79.058,79.838,84.15,86.126,88.382,90.638,94.39,97.086,100.838,105.198,107.67,109.67,110.454,112.926,116.678,123.454,127.798,131.55,134.246,138.054,140.526,144.854,147.55,151.302,154.878,156.886,158.886,159.665,164.337,168.089,172.433,175.129,179.393,183.705,188.033,191.585,195.337,199.649,201.649,202.429,207.773,209.749,212.221,216.509,218.509,219.293,223.637,227.389,230.085,236.861,238.837,242.413,245.989,247.965,252.229,256.589" svgx:width="0.24,0.41,0.31,0.47,0.45,0.25,0.25,0.55,0.48,0.31,0.25,0.55,0.54,0.25,0.28,0.28,0.47,0.34,0.47,0.55,0.31,0.25,0.55,0.31,0.47,0.85,0.54,0.47,0.34,0.48,0.31,0.54,0.34,0.47,0.45,0.25,0.25,0.55,0.58,0.47,0.54,0.34,0.53,0.54,0.54,0.44,0.47,0.54,0.25,0.55,0.67,0.25,0.31,0.54,0.25,0.55,0.54,0.47,0.34,0.85,0.25,0.45,0.45,0.25,0.53,0.55,0.25" style="fill:rgb(23,22,21);font-family:ScalaSansLF-Regular;font-size:8.0px;stroke:none;">lytes, at different temperatures. Reproduced with permission.</text>
   <text y="584.462" x="258.585,259.985,262.785,265.585" svgx:width="0.25,0.5,0.5,0.25" style="fill:rgb(23,22,21);font-family:ScalaSansLF-Regular;font-size:5.6px;stroke:none;">[60]</text>
   <text y="587.262" x="266.985,268.985,269.769,274.407,278.671,283.015,286.255,288.951,290.927,294.983,299.271,301.743,303.743,304.527,308.527,312.527,316.519,320.519,322.535,324.535,325.319,330.079,336.855,340.607,343.303,345.279,348.831,352.639,356.999,358.999,359.779,364.619,368.907,372.659,379.435,381.411,384.963,388.771,390.683,392.683,393.463,397.735,401.999,405.551,407.527,411.279,413.751,416.351,418.359,420.359,421.139,425.451,428.355,430.355,431.139,435.451,439.739,443.491,445.491,446.275,449.827,454.091,460.867,465.211,469.019,471.715,473.691,477.267,481.531,485.891,487.891,488.671,492.935,495.191,497.191,497.975,502.319,506.583,510.159,513.735,515.711,519.927,521.839,525.591,527.591,528.375,532.335,534.311,536.519,538.495,542.759,547.119" svgx:width="0.25,0.55,0.61,0.53,0.54,0.41,0.34,0.25,0.51,0.54,0.31,0.25,0.55,0.5,0.5,0.5,0.5,0.25,0.25,0.55,0.6,0.85,0.47,0.34,0.25,0.44,0.48,0.55,0.25,0.55,0.61,0.54,0.47,0.85,0.25,0.44,0.48,0.24,0.25,0.55,0.53,0.53,0.44,0.25,0.47,0.31,0.41,0.25,0.25,0.55,0.54,0.36,0.25,0.55,0.54,0.54,0.47,0.25,0.55,0.44,0.53,0.85,0.54,0.48,0.34,0.25,0.45,0.53,0.55,0.25,0.55,0.53,0.28,0.25,0.55,0.54,0.53,0.45,0.45,0.25,0.53,0.24,0.47,0.25,0.55,0.5,0.25,0.28,0.25,0.53,0.55,0.25" style="fill:rgb(23,22,21);font-family:ScalaSansLF-Regular;font-size:8.0px;stroke:none;"> Copyright 2017, American Chemical Society. d) The comparison of possible Li-ion </text>
   <text y="596.758" x="51.025,54.577,58.841,63.201,67.513,71.841,75.393,77.865,79.841,84.105,88.465,90.465,91.073,95.417,99.225,101.697,105.985,111.329,115.137,118.377,121.953,123.961,125.961,126.569,131.329,134.025,136.721,141.009,144.761,149.121,151.097,155.425,159.001,161.001,161.609,165.953,167.865,172.129,174.601,178.177,180.177,180.785,185.049,187.305,189.305,189.913,192.385,196.673,200.425,202.425,203.033,206.585,210.849,217.625,221.969,226.233,229.809,231.785,234.257,238.009,240.009,240.617,244.961,249.225,251.137,254.377,261.153,264.905,267.601,269.601,270.209,273.961,275.873,279.625,283.177,285.649,288.345,292.609,294.521,297.761,300.233,303.985,307.561,309.561,310.169,315.513,317.489,319.961,324.249,326.249,326.857,330.665,332.577,334.553,338.609,342.969,346.721,351.033,353.033,353.641,358.001,361.809,366.169,370.433,375.777,377.753,380.449,384.201,386.201,386.809,390.617,393.313,396.009,399.817,403.057,406.633,408.633,409.241,413.049,415.521,417.521,418.129,421.705,425.513,428.209,430.185,434.449,438.777,442.353,444.353,444.961,449.225,451.921,453.897,457.649,462.009,464.481,468.289,470.761,472.737,477.001,481.361,484.937,486.953,488.953,489.561,492.033,496.297,500.353,504.105,506.577,510.865,514.617,517.313,519.313,519.921,525.265,527.241,529.713,534.001,536.001,536.609,539.081,543.369,547.121" svgx:width="0.44,0.53,0.55,0.54,0.54,0.44,0.31,0.25,0.53,0.55,0.25,0.55,0.54,0.48,0.31,0.54,0.67,0.48,0.41,0.45,0.25,0.25,0.55,0.6,0.34,0.34,0.54,0.47,0.55,0.25,0.54,0.45,0.25,0.55,0.54,0.24,0.53,0.31,0.45,0.25,0.55,0.53,0.28,0.25,0.55,0.31,0.54,0.47,0.25,0.55,0.44,0.53,0.85,0.54,0.53,0.45,0.25,0.31,0.47,0.25,0.55,0.54,0.53,0.24,0.41,0.85,0.47,0.34,0.25,0.55,0.47,0.24,0.47,0.44,0.31,0.34,0.53,0.24,0.41,0.31,0.47,0.45,0.25,0.55,0.67,0.25,0.31,0.54,0.25,0.55,0.48,0.24,0.25,0.51,0.55,0.47,0.54,0.25,0.55,0.55,0.48,0.55,0.53,0.67,0.25,0.34,0.47,0.25,0.55,0.48,0.34,0.34,0.48,0.41,0.45,0.25,0.55,0.48,0.31,0.25,0.55,0.45,0.48,0.34,0.25,0.53,0.54,0.45,0.25,0.55,0.53,0.34,0.25,0.47,0.55,0.31,0.48,0.31,0.25,0.53,0.55,0.45,0.25,0.25,0.55,0.31,0.53,0.51,0.47,0.31,0.54,0.47,0.34,0.25,0.55,0.67,0.25,0.31,0.54,0.25,0.55,0.31,0.54,0.47,0.25" style="fill:rgb(23,22,21);font-family:ScalaSansLF-Regular;font-size:8.0px;stroke:none;">conduction pathways. Arrhenius plots of the composite polymer electrolytes with aligned nanowire arrays at various orientations, together with the </text>
   <text y="606.254" x="51.025,55.337,59.145,61.617,65.425,67.889,70.145,74.409,77.105,79.569,82.041,86.329,90.081,92.545,96.097,100.361,107.137,111.481,115.745,119.321,121.297,123.769,127.521,129.985,133.737,135.649,139.401,142.953,145.425,148.121,152.385,154.297,157.537,160.009,163.761,166.225,171.569,173.545,176.017,180.305,182.769,185.465,189.273,193.633,197.945,202.209,208.985,210.897,214.137,216.601,220.913,222.889,226.465,230.809,234.561,237.257,240.833,244.585,248.897,251.361,255.721,259.529,263.889,268.153,273.497,275.473,278.169,281.921,285.497,287.961,291.769,296.129,300.441,302.905,305.377,309.665,313.417,315.881,319.857,321.769,323.681,327.433,330.129,332.337,334.593,337.289,341.041,344.793,347.257,351.009,352.921,356.673,360.225,362.697,365.393,369.657,371.569,374.809,377.281,381.033,383.041,385.505,390.177,393.929,398.273,400.969,405.233,409.545,413.873,417.425,421.177,425.489,427.953,433.297,435.273,437.745,442.033,444.497,448.841,452.593,455.289,462.065,464.041,467.617,471.193,473.169,477.433,481.793" svgx:width="0.54,0.48,0.31,0.48,0.25,0.28,0.53,0.34,0.25,0.31,0.54,0.47,0.25,0.44,0.53,0.85,0.54,0.53,0.45,0.25,0.31,0.47,0.25,0.47,0.24,0.47,0.44,0.31,0.34,0.53,0.24,0.41,0.31,0.47,0.25,0.67,0.25,0.31,0.54,0.25,0.34,0.48,0.55,0.54,0.53,0.85,0.24,0.41,0.25,0.54,0.25,0.45,0.54,0.47,0.34,0.45,0.47,0.54,0.25,0.55,0.48,0.55,0.53,0.67,0.25,0.34,0.47,0.45,0.25,0.48,0.55,0.54,0.25,0.31,0.54,0.47,0.25,0.5,0.24,0.24,0.47,0.34,0.28,0.28,0.34,0.47,0.47,0.25,0.47,0.24,0.47,0.44,0.31,0.34,0.53,0.24,0.41,0.31,0.47,0.25,0.25,0.58,0.47,0.54,0.34,0.53,0.54,0.54,0.44,0.47,0.54,0.25,0.67,0.25,0.31,0.54,0.25,0.54,0.47,0.34,0.85,0.25,0.45,0.45,0.25,0.53,0.55,0.25" style="fill:rgb(23,22,21);font-family:ScalaSansLF-Regular;font-size:8.0px;stroke:none;">data for the composite electrolyte with randomly dispersed nanowires and the filler-free electrolyte. Reproduced with permission.</text>
   <text y="603.462" x="483.786,485.186,487.986,490.786" svgx:width="0.25,0.5,0.5,0.25" style="fill:rgb(23,22,21);font-family:ScalaSansLF-Regular;font-size:5.6px;stroke:none;">[59]</text>
   <text y="606.262" x="492.186,494.65,499.289,503.553,507.897,511.137,513.833,515.809,519.865,524.153,526.625,529.089,533.089,537.089,541.081,545.081,547.097" svgx:width="0.25,0.61,0.53,0.54,0.41,0.34,0.25,0.51,0.54,0.31,0.25,0.5,0.5,0.5,0.5,0.25,0.25" style="fill:rgb(23,22,21);font-family:ScalaSansLF-Regular;font-size:8.0px;stroke:none;"> Copyright 2017, </text>
   <text y="615.758" x="51.026,55.338,57.25,60.826,64.578,68.154,70.13,73.882,75.938,77.946,79.594,83.346,86.25,87.898,92.17,95.722,100.01,103.762,110.538,114.346,116.818,118.794,122.346,123.994,126.69,130.442,134.786,137.482,141.234,144.81,148.562,152.922,155.394,159.202,161.674,163.65,167.914,172.274,173.922,178.186,180.442,182.09,186.434,190.698,194.274,197.85,199.826,204.042,205.954,209.706,211.354,214.906,219.17,223.53,227.842,232.17,235.722,238.194,240.17,244.434,248.794,250.442,257.218,260.97,264.522,268.81,272.618,276.978,278.954,282.53,289.306,290.954,292.93,297.29,298.938,302.49,306.754,313.53,317.874,322.138,325.714,327.69,330.162,333.914,335.562,339.314,341.226,344.978,348.53,351.002,353.698,357.962,359.874,363.114,365.586,369.338,372.914,374.562,379.906,381.882,384.354,388.642,390.29,394.098,398.154,402.21,404.122,408.386,415.162,418.914,421.61,425.418,427.89,431.642,435.954,437.602,441.962,445.77,450.13,454.394,458.738,462.546,465.242,467.714,469.69,473.242,475.154,478.906,482.482,484.13,487.938,492.298,496.61,498.258,502.258,507.946,509.594,513.146,517.41,521.77,524.242,526.218,530.578,534.906,539.17,543.498,547.074" svgx:width="0.54,0.24,0.45,0.47,0.45,0.25,0.47,0.34,0.25,0.25,0.47,0.36,0.25,0.53,0.44,0.54,0.47,0.85,0.48,0.31,0.25,0.44,0.25,0.34,0.47,0.54,0.34,0.47,0.45,0.47,0.55,0.31,0.48,0.31,0.25,0.53,0.55,0.25,0.53,0.28,0.25,0.54,0.53,0.45,0.45,0.25,0.53,0.24,0.47,0.25,0.44,0.53,0.55,0.54,0.54,0.44,0.31,0.25,0.53,0.55,0.25,0.85,0.47,0.44,0.54,0.48,0.55,0.25,0.45,0.85,0.25,0.25,0.55,0.25,0.44,0.53,0.85,0.54,0.53,0.45,0.25,0.31,0.47,0.25,0.47,0.24,0.47,0.44,0.31,0.34,0.53,0.24,0.41,0.31,0.47,0.45,0.25,0.67,0.25,0.31,0.54,0.25,0.48,0.51,0.51,0.24,0.53,0.85,0.47,0.34,0.48,0.31,0.47,0.54,0.25,0.55,0.48,0.55,0.53,0.54,0.48,0.34,0.31,0.25,0.44,0.24,0.47,0.45,0.25,0.48,0.55,0.54,0.25,0.5,0.71,0.25,0.44,0.53,0.55,0.31,0.25,0.55,0.54,0.53,0.54,0.45,0.25" style="fill:rgb(23,22,21);font-family:ScalaSansLF-Regular;font-size:8.0px;stroke:none;">Elsevier. e) Schematic representation of possible conduction mechanism in composite electrolytes with agglomerated nanoparticles and 3D continuous </text>
   <text y="625.254" x="51.026,53.282,55.978,59.786,66.562,70.314,75.658,79.922,82.618,86.25,88.258,90.226,92.626,96.89,101.25,103.226,106.778,108.746,112.298,116.562,120.922,125.234,129.562,133.114,135.586,137.562,141.138,143.114,145.586,148.826,150.794,155.058,157.314,159.282,163.242,166.402,170.714,176.818,178.786,181.042,183.738,187.546,194.322,198.074,203.418,207.682,210.378,214.01,216.026,217.994,221.954,225.113,229.425,235.529,237.497,241.857,245.665,250.025,254.289,258.633,262.441,265.137,267.609,269.585,273.137,275.049,278.801,280.817,282.785,286.593,290.953,295.265,297.233,300.809,302.785,304.697,306.673,310.225,314.033,316.001,320.345,324.153,326.849,329.321,331.297,334.849,336.761,340.513,342.481,346.033,350.297,357.073,361.417,365.681,369.257,371.233,373.705,377.457,379.425,383.177,385.089,388.841,392.393,394.865,397.561,401.825,403.737,406.977,409.449,413.201,416.777,418.785,420.753,425.425,429.177,433.521,436.217,440.481,444.793,449.121,452.673,456.425,460.737,462.705,468.049,470.025,472.497,476.785,478.753,483.097,486.849,489.545,496.321,498.297,501.873,505.449,507.425,511.689,516.049" svgx:width="0.28,0.34,0.48,0.85,0.47,0.67,0.53,0.34,0.45,0.25,0.25,0.3,0.53,0.55,0.25,0.44,0.25,0.44,0.53,0.55,0.54,0.54,0.44,0.31,0.25,0.45,0.25,0.31,0.41,0.25,0.53,0.28,0.25,0.5,0.5,0.54,0.76,0.25,0.28,0.34,0.48,0.85,0.47,0.67,0.53,0.34,0.45,0.25,0.25,0.5,0.5,0.54,0.76,0.25,0.55,0.48,0.55,0.53,0.54,0.48,0.34,0.31,0.25,0.44,0.24,0.47,0.25,0.25,0.48,0.55,0.54,0.25,0.45,0.25,0.24,0.25,0.44,0.48,0.25,0.54,0.48,0.34,0.31,0.25,0.44,0.24,0.47,0.25,0.44,0.53,0.85,0.54,0.53,0.45,0.25,0.31,0.47,0.25,0.47,0.24,0.47,0.44,0.31,0.34,0.53,0.24,0.41,0.31,0.47,0.45,0.25,0.25,0.58,0.47,0.54,0.34,0.53,0.54,0.54,0.44,0.47,0.54,0.25,0.67,0.25,0.31,0.54,0.25,0.54,0.47,0.34,0.85,0.25,0.45,0.45,0.25,0.53,0.55,0.25" style="fill:rgb(23,22,21);font-family:ScalaSansLF-Regular;font-size:8.0px;stroke:none;">framework. Ionic conductivity of LLTO framework, LLTO nanoparticle, and silica particle composite electrolytes. Reproduced with permission.</text>
   <text y="622.462" x="518.034,519.434,522.234,525.034" svgx:width="0.25,0.5,0.5,0.25" style="fill:rgb(23,22,21);font-family:ScalaSansLF-Regular;font-size:5.6px;stroke:none;">[55]</text>
   <text y="625.262" x="526.434,528.402,533.04,537.304,541.648,544.888" svgx:width="0.25,0.61,0.53,0.54,0.41,0.28" style="fill:rgb(23,22,21);font-family:ScalaSansLF-Regular;font-size:8.0px;stroke:none;"> Copy-</text>
   <text y="634.758" x="51.026,53.722,55.698,59.754,64.042,66.514,69.034,73.034,77.034,81.026,85.026,87.042,89.562,91.962,96.226,100.514,104.874,107.394,114.306,116.282,118.194,121.946,125.186,127.706,131.514,135.874,140.186,142.706,146.978,151.242,155.602,159.178,161.186,163.706,165.946,166.68,169.584,172.104,176.376,179.928,184.216,187.968,194.744,198.552,201.024,203.0,206.552,209.072,213.336,215.592,218.112,222.384,227.224,231.536,235.112,237.632,241.976,244.672,248.936,253.248,257.576,261.128,264.88,269.192,271.712,275.928,279.168,281.688,285.688,291.376,293.896,298.24,300.936,302.912,307.272,309.744,311.72,316.08,320.136,322.656,325.128,328.88,332.432,336.72,341.08,345.344,347.256,351.52,355.576,358.816,361.336,365.144,369.504,373.816,376.336,378.808,383.096,386.848,388.824,391.52,394.04,398.8,401.496,404.192,408.48,412.232,416.592,418.568,422.896,426.472,428.992,433.336,435.248,439.512,441.984,444.504,448.768,451.024,453.544,456.016,460.304,464.056,466.576,468.488,470.464,472.936,477.224,479.2,483.528,490.304,492.512,494.488,498.752,503.112,505.632,509.184,513.448,517.808,522.12,526.448,530.0,532.472,534.448,538.024,540.0,542.472,545.071,547.079" svgx:width="0.34,0.25,0.51,0.54,0.31,0.25,0.5,0.5,0.5,0.5,0.25,0.25,0.3,0.53,0.54,0.55,0.25,0.86,0.25,0.24,0.47,0.41,0.25,0.48,0.55,0.54,0.25,0.53,0.53,0.55,0.45,0.25,0.25,0.28,0.55,0.36,0.25,0.53,0.44,0.54,0.47,0.85,0.48,0.31,0.25,0.44,0.25,0.53,0.28,0.25,0.53,0.61,0.54,0.45,0.25,0.54,0.34,0.53,0.54,0.54,0.44,0.47,0.54,0.25,0.53,0.41,0.25,0.5,0.71,0.25,0.54,0.34,0.25,0.55,0.31,0.25,0.55,0.51,0.25,0.31,0.47,0.44,0.54,0.55,0.53,0.24,0.53,0.51,0.41,0.25,0.48,0.55,0.54,0.25,0.31,0.54,0.47,0.25,0.34,0.25,0.6,0.34,0.34,0.54,0.47,0.55,0.25,0.54,0.45,0.25,0.54,0.24,0.53,0.31,0.25,0.53,0.28,0.25,0.31,0.54,0.47,0.25,0.24,0.25,0.31,0.54,0.25,0.54,0.85,0.28,0.25,0.53,0.55,0.25,0.44,0.53,0.55,0.54,0.54,0.44,0.31,0.25,0.45,0.25,0.31,0.41,0.25,0.25" style="fill:rgb(23,22,21);font-family:ScalaSansLF-Regular;font-size:8.0px;stroke:none;">right 2017, John Wiley and Sons. f ) Schematic of SCEs produced by 3D printing technology and their Arrhenius plot of the lithium-ion conductivity. </text>
   <text y="644.254" x="51.026,55.698,59.45,63.794,66.49,70.754,75.066,79.394,82.946,86.698,91.01,93.058,98.402,100.378,102.85,107.138,109.186,113.53,117.282,119.978,126.754,128.73,132.306,135.882,137.858,142.122,146.482" svgx:width="0.58,0.47,0.54,0.34,0.53,0.54,0.54,0.44,0.47,0.54,0.25,0.67,0.25,0.31,0.54,0.25,0.54,0.47,0.34,0.85,0.25,0.45,0.45,0.25,0.53,0.55,0.25" style="fill:rgb(23,22,21);font-family:ScalaSansLF-Regular;font-size:8.0px;stroke:none;">Reproduced with permission.</text>
   <text y="641.462" x="148.487,149.887,152.687,155.487" svgx:width="0.25,0.5,0.5,0.25" style="fill:rgb(23,22,21);font-family:ScalaSansLF-Regular;font-size:5.6px;stroke:none;">[80]</text>
   <text y="644.262" x="156.887,158.935,163.574,167.837,172.181,175.421,178.117,180.093,184.149,188.437,190.909,192.957,196.957,200.957,204.949,208.949,210.965,213.014,217.686,221.949,225.189,228.997,230.91,232.958,237.23,241.493,245.046,247.021,250.773,253.245,256.486,258.534,262.798,265.054,267.102,271.942,276.23,279.982,286.758,288.734,292.31,294.782,297.478,300.077,302.085,304.133,308.189,311.093,313.141,317.413,320.965,325.253,329.005,335.781,339.589,342.061,344.037,347.589,349.637,353.445,357.805,362.117,364.165,368.925,371.621,374.317,378.605,382.357,386.717,388.693,393.021,396.597,398.645,402.989,404.901,409.165,411.637,413.685,417.949,420.205,422.253,424.725,429.013,432.765,434.813,436.725,438.701,441.173,445.461,447.437,451.765,458.541,460.749,462.725,466.989,471.349,473.397,476.949,481.213,485.573,489.885,494.213,497.765,500.237,502.213,505.789,507.765,510.237,513.477,515.525,519.789,522.045,524.093,528.269,532.021,535.237,537.213,541.429,543.341,547.093" svgx:width="0.25,0.61,0.53,0.54,0.41,0.34,0.25,0.51,0.54,0.31,0.25,0.5,0.5,0.5,0.5,0.25,0.25,0.58,0.53,0.41,0.48,0.24,0.25,0.53,0.53,0.44,0.25,0.47,0.31,0.41,0.25,0.53,0.28,0.25,0.61,0.54,0.47,0.85,0.25,0.45,0.31,0.34,0.41,0.25,0.25,0.51,0.36,0.25,0.53,0.44,0.54,0.47,0.85,0.48,0.31,0.25,0.44,0.25,0.48,0.55,0.54,0.25,0.6,0.34,0.34,0.54,0.47,0.55,0.25,0.54,0.45,0.25,0.54,0.24,0.53,0.31,0.25,0.53,0.28,0.25,0.31,0.54,0.47,0.25,0.24,0.25,0.31,0.54,0.25,0.54,0.85,0.28,0.25,0.53,0.55,0.25,0.44,0.53,0.55,0.54,0.54,0.44,0.31,0.25,0.45,0.25,0.31,0.41,0.25,0.53,0.28,0.25,0.52,0.47,0.4,0.25,0.53,0.24,0.47,0.25" style="fill:rgb(23,22,21);font-family:ScalaSansLF-Regular;font-size:8.0px;stroke:none;"> Copyright 2018, Royal Society of Chemistry. g) Schematic and Arrhenius plot of the lithium-ion conductivity of flexible </text>
   <text y="653.758" x="51.023,52.935,54.911,57.383,61.671,63.647,67.975,74.751,76.959,78.935,83.199,87.559,89.759,93.311,97.575,101.935,106.247,110.575,114.127,116.599,118.575,122.935,126.991,129.191,132.743,136.495,139.191,142.999,149.775,151.751,155.303,157.503,159.975,163.727,166.943,169.415,171.391,173.303,177.055,179.063,181.263,185.935,189.687,194.031,196.727,200.991,205.303,209.631,213.183,216.935,221.247,223.447,228.791,230.767,233.239,237.527,239.727,244.071,247.823,250.519,257.295,259.271,262.847,266.423,268.399,272.663,277.023" svgx:width="0.24,0.25,0.31,0.54,0.25,0.54,0.85,0.28,0.25,0.53,0.55,0.25,0.44,0.53,0.55,0.54,0.54,0.44,0.31,0.25,0.55,0.51,0.25,0.44,0.47,0.34,0.48,0.85,0.25,0.44,0.25,0.31,0.47,0.4,0.31,0.25,0.24,0.47,0.25,0.25,0.58,0.47,0.54,0.34,0.53,0.54,0.54,0.44,0.47,0.54,0.25,0.67,0.25,0.31,0.54,0.25,0.54,0.47,0.34,0.85,0.25,0.45,0.45,0.25,0.53,0.55,0.25" style="fill:rgb(23,22,21);font-family:ScalaSansLF-Regular;font-size:8.0px;stroke:none;">lithium-ion conducting ceramic textile. Reproduced with permission.</text>
   <text y="650.962" x="279.028,280.428,283.228,286.028" svgx:width="0.25,0.5,0.5,0.25" style="fill:rgb(23,22,21);font-family:ScalaSansLF-Regular;font-size:5.6px;stroke:none;">[82]</text>
   <text y="653.762" x="287.428,289.628,294.267,298.531,302.875,306.115,308.811,310.787,314.843,319.131,321.603,323.803,327.803,331.803,335.795,339.795,341.811,344.011,348.323,350.235,353.811,357.563,361.139,363.115,366.867,368.922" svgx:width="0.25,0.61,0.53,0.54,0.41,0.34,0.25,0.51,0.54,0.31,0.25,0.5,0.5,0.5,0.5,0.25,0.25,0.54,0.24,0.45,0.47,0.45,0.25,0.47,0.34,0.25" style="fill:rgb(23,22,21);font-family:ScalaSansLF-Regular;font-size:8.0px;stroke:none;"> Copyright 2018, Elsevier.</text>
  </g>
 </g>
</svg>
