<?xml version="1.0" encoding="UTF-8"?>
<svg height="774.244" width="2665.638" xmlns="http://www.w3.org/2000/svg">
 <g id="page" xmlns:svgx="http://www.xml-cml.org/schema/svgx">
  <g begin="text">
   <text y="22.46" x="40.638,48.208,55.778,63.055,66.145,71.865,77.215,81.135,86.765,90.565,95.995,99.085,103.915,109.695,118.435,121.635,126.125,130.955,133.725,139.15,144.87,148.79,151.56,155.19,157.96,162.79,166.59,172.02,177.78,183.56,187.36,191.28,195.77" svgx:width="0.71,0.71,0.71,0.26,0.53,0.49,0.35,0.52,0.34,0.5,0.26,0.44,0.53,0.83,0.28,0.4,0.44,0.23,0.5,0.53,0.35,0.23,0.32,0.23,0.44,0.34,0.5,0.53,0.53,0.34,0.35,0.4,0.28" style="fill:rgb(255,255,255);font-family:Corbel2;font-size:10.0px;stroke:none;">www.nature.com/scientificreports/</text>
  </g>
  <g begin="text">
   <text y="764.23" x="550.36" svgx:width="0.43" style="fill:rgb(131,144,151);font-family:Corbel2;font-size:10.0px;stroke:none;">7</text>
  </g>
  <g begin="text">
   <text y="764.244" x="40.794,45.642,50.786,53.186,58.026,64.026,68.898,71.298,75.762,78.162" svgx:width="0.55,0.59,0.25,0.55,0.7,0.56,0.25,0.5,0.25,0.59" style="fill:rgb(131,144,151);font-family:Corbel2;font-size:8.0px;stroke:none;">Scientific</text>
   <text y="764.244" x="83.162" svgx:width="0.2" style="fill:rgb(0,0,0);font-family:Corbel2;font-size:8.0px;stroke:none;"> </text>
   <text y="764.244" x="84.762,90.218,95.194,100.434,106.738,112.194,117.186" svgx:width="0.63,0.57,0.6,0.73,0.63,0.57,0.58" style="fill:rgb(131,144,151);font-family:Corbel-Bold2;font-size:8.0px;stroke:none;">RepoRts</text>
   <text y="764.244" x="122.082,123.522,125.338" svgx:width="0.2,0.23,0.2" style="fill:rgb(0,0,0);font-family:Corbel2;font-size:8.0px;stroke:none;"> | </text>
   <text y="764.244" x="126.778,128.234,130.506,134.442,138.378,142.314,146.25,148.522,149.978,153.914,155.602,159.538,163.474,167.41" svgx:width="0.18,0.28,0.49,0.49,0.49,0.49,0.28,0.18,0.49,0.21,0.49,0.49,0.49,0.18" style="fill:rgb(0,0,0);font-family:MyriadPro-It;font-size:8.0px;stroke:none;"> (2018) 8:207 </text>
   <text y="764.244" x="168.866,170.308,172.124,173.566,178.934,184.774,186.742,188.854,192.958,197.062,199.174,203.278,207.382,211.486,215.59,217.79,221.022,225.126,229.23,233.334,237.438,241.542,244.206,248.31,252.414,256.518,259.182,263.286,267.39,271.494,275.598,279.702,282.366" svgx:width="0.2,0.23,0.2,0.67,0.73,0.25,0.26,0.51,0.51,0.26,0.51,0.51,0.51,0.51,0.28,0.4,0.51,0.51,0.51,0.51,0.51,0.33,0.51,0.51,0.51,0.33,0.51,0.51,0.51,0.51,0.51,0.33,0.51" style="fill:rgb(0,0,0);font-family:Corbel;font-size:8.0px;stroke:none;"> | DOI:10.1038/s41598-017-18434-3</text>
  </g>
  <path style="fill:none;stroke:rgb(0,0,0);stroke-width:1.0;" d="M40.640 752.550 L554.640 752.550 "/>
  <g begin="text">
   <text y="561.291" x="155.638,163.978,166.542,171.032,174.606,180.226,184.546,188.416,191.991,197.521,202.011,205.881,211.411,214.985,220.195,222.323,227.938,231.298,233.426,237.296,242.97,248.175,250.059,255.909,262.559,267.909,273.259,278.609,285.409,288.447,291.447,296.797,304.151,306.279,310.599,314.469,319.674,324.879,327.479,329.607,335.262,340.792,344.366,346.93,352.555,358.135,360.264,364.134,369.808,375.013,377.141,381.461,385.331,390.536,396.116,399.52,404.01,409.625,415.245,417.845,420.409,426.034,431.614,433.743,439.416,444.626,449.85,453.72,455.848,459.718,463.292,468.502,473.726,477.596,486.196,491.401,497.026,500.896,503.896" svgx:width="0.83,0.25,0.44,0.35,0.55,0.42,0.38,0.35,0.55,0.44,0.38,0.55,0.35,0.51,0.21,0.55,0.33,0.21,0.38,0.56,0.51,0.21,0.58,0.66,0.53,0.53,0.53,0.67,0.35,0.29,0.53,0.73,0.21,0.42,0.38,0.51,0.51,0.25,0.21,0.56,0.55,0.35,0.25,0.56,0.55,0.21,0.38,0.56,0.51,0.21,0.42,0.38,0.51,0.55,0.33,0.44,0.55,0.55,0.25,0.25,0.56,0.55,0.21,0.56,0.51,0.51,0.38,0.21,0.38,0.35,0.51,0.51,0.38,0.85,0.51,0.56,0.38,0.29,0.21" style="fill:rgb(0,0,0);font-family:Corbel-Bold;font-size:10.0px;stroke:none;">Microstructure of the SA508Gr.4N steel during the step-cooling heat treatment. </text>
   <text y="561.291" x="513.951,523.632,527.538,529.644,537.096,539.589,543.477,546.777,551.448" svgx:width="1.07,0.43,0.23,0.82,0.27,0.42,0.37,0.51,0.36" style="fill:rgb(0,0,0);font-family:MinionPro-Regular;font-size:9.0px;stroke:none;">The micro-</text>
   <text y="571.29" x="155.634,158.892,161.682,165.111,169.89,173.76,176.415,181.194,184.416,188.241,190.104,194.586,197.25,199.113,201.912,206.682,210.507,212.37,216.636,222.855,227.175,231.495,235.815,242.178,244.95,247.002,251.322,258.009,259.872,263.13,265.822,269.691,273.48,275.757,277.62,281.49,286.673,290.498,293.837,295.7,298.499,303.269,307.094,308.957,312.215,314.906,318.731,323.447,326.651,330.458,335.128,339.655,341.932,344.344,349.195,353.407,355.27,360.04,363.918,367.698,370.443,372.306,375.096,378.318,382.196,385.976,388.766,396.101,399.926,404.678,407.423,409.286,411.67,414.973,416.836,420.103,424.873,429.319,435.511,440.434,442.297,444.709,449.632,451.495,456.256,458.668,462.88,466.183" svgx:width="0.37,0.31,0.37,0.53,0.42,0.31,0.53,0.37,0.43,0.23,0.51,0.3,0.23,0.31,0.53,0.43,0.23,0.47,0.69,0.48,0.48,0.48,0.71,0.37,0.23,0.48,0.74,0.23,0.37,0.31,0.43,0.43,0.25,0.23,0.44,0.58,0.43,0.37,0.23,0.31,0.53,0.43,0.23,0.37,0.31,0.43,0.52,0.36,0.42,0.51,0.51,0.25,0.27,0.55,0.47,0.23,0.53,0.43,0.44,0.31,0.23,0.31,0.37,0.43,0.44,0.31,0.82,0.43,0.55,0.31,0.23,0.27,0.37,0.23,0.37,0.53,0.51,0.69,0.55,0.23,0.27,0.55,0.23,0.53,0.27,0.47,0.37,0.23" style="fill:rgb(0,0,0);font-family:MinionPro-Regular;font-size:9.0px;stroke:none;">structure of the SA508Gr.4N steel after the step-cooling heat treatment is shown in Figs </text>
   <text y="571.29" x="468.078" svgx:width="0.48" style="fill:rgb(0,0,255);font-family:MinionPro-Regular;font-size:9.0px;stroke:none;">7</text>
   <text y="571.29" x="472.398,474.262,478.132,483.019,487.771" svgx:width="0.23,0.44,0.55,0.53,0.23" style="fill:rgb(0,0,0);font-family:MinionPro-Regular;font-size:9.0px;stroke:none;"> and </text>
   <text y="571.29" x="489.634" svgx:width="0.48" style="fill:rgb(0,0,255);font-family:MinionPro-Regular;font-size:9.0px;stroke:none;">8</text>
   <text y="571.29" x="493.954,496.006,497.869,503.944,507.247,509.11,513.871,516.283,520.521,522.573" svgx:width="0.23,0.23,0.69,0.37,0.23,0.53,0.27,0.47,0.23,0.23" style="fill:rgb(0,0,0);font-family:MinionPro-Regular;font-size:9.0px;stroke:none;">. As Fig. </text>
   <text y="571.29" x="524.445" svgx:width="0.48" style="fill:rgb(0,0,255);font-family:MinionPro-Regular;font-size:9.0px;stroke:none;">7</text>
   <text y="571.29" x="528.766,530.628,533.895,538.665,543.111,549.276,552.579,554.631" svgx:width="0.23,0.37,0.53,0.51,0.69,0.37,0.23,0.23" style="fill:rgb(0,0,0);font-family:MinionPro-Regular;font-size:9.0px;stroke:none;"> shows, </text>
   <text y="581.289" x="155.634,158.555,163.447,167.393,169.657,173.612,177.604,181.064,185.65,188.183,193.057,197.003,200.428,202.691,205.225,210.269,212.537,215.458,220.349,224.295,226.563,234.028,238.02,241.57,244.383,248.329,253.302,256.726,259.151,261.963,265.91,268.178,272.169,275.513,279.459,281.723,286.596,289.13,294.354,299.228,302.724,306.671,308.934,312.926,317.935,322.809,325.072,328.497,335.962,340.08,342.523,344.921,347.189,350.424,355.307,357.84,362.2,364.373" svgx:width="0.31,0.53,0.43,0.23,0.42,0.44,0.37,0.51,0.27,0.53,0.43,0.37,0.23,0.27,0.55,0.23,0.31,0.53,0.43,0.23,0.82,0.44,0.37,0.31,0.43,0.55,0.37,0.27,0.31,0.43,0.23,0.44,0.37,0.43,0.23,0.53,0.27,0.56,0.53,0.37,0.43,0.23,0.44,0.55,0.53,0.23,0.37,0.82,0.44,0.25,0.25,0.23,0.35,0.53,0.27,0.47,0.23,0.23" style="fill:rgb(0,0,0);font-family:MinionPro-Regular;font-size:9.0px;stroke:none;">the carbides in the martensite are diffuse and small (Fig. </text>
   <text y="581.289" x="366.63,371.072" svgx:width="0.48,0.42" style="fill:rgb(0,0,255);font-family:MinionPro-Regular;font-size:9.0px;stroke:none;">7c</text>
   <text y="581.289" x="375.0,378.236,380.41,382.678,386.669,391.678,396.55,398.818,401.739,406.63,411.342,414.838,418.785,421.048,423.582,428.626,430.894,433.814,438.705,442.652,444.92,449.658,453.65,456.183,461.228,463.653,466.466,470.411,472.679,476.671,480.014,483.961,486.229,491.102,493.609,497.105,501.033,505.637,510.51,513.422,515.955,520.829,525.729,530.342,535.215,538.64,540.903,544.895,549.903,554.656" svgx:width="0.35,0.23,0.23,0.44,0.55,0.53,0.23,0.31,0.53,0.51,0.37,0.43,0.23,0.27,0.55,0.23,0.31,0.53,0.43,0.23,0.51,0.44,0.27,0.55,0.27,0.31,0.43,0.23,0.44,0.37,0.43,0.23,0.53,0.27,0.37,0.42,0.51,0.55,0.31,0.27,0.55,0.53,0.51,0.53,0.37,0.23,0.44,0.55,0.53,0.23" style="fill:rgb(0,0,0);font-family:MinionPro-Regular;font-size:9.0px;stroke:none;">), and those in the bainite are discontinuous and </text>
   <text y="591.288" x="155.634,160.386,162.771,166.029,170.826,174.651,177.936,181.311,185.136,187.062,190.176,194.937,197.349,201.588,203.64" svgx:width="0.53,0.27,0.37,0.52,0.43,0.37,0.37,0.43,0.23,0.35,0.53,0.27,0.47,0.23,0.23" style="fill:rgb(0,0,0);font-family:MinionPro-Regular;font-size:9.0px;stroke:none;">disperse (Fig. </text>
   <text y="591.288" x="205.566,209.887" svgx:width="0.48,0.53" style="fill:rgb(0,0,255);font-family:MinionPro-Regular;font-size:9.0px;stroke:none;">7d</text>
   <text y="591.288" x="214.639,217.753,219.805,221.73,231.334,235.159,237.085,240.919,244.789,248.128,252.592,255.004,259.756,263.581,266.884,268.81,271.222,276.145,278.071,285.415,289.285,292.713,295.404,299.229,304.08,307.383,309.687,312.378,316.203,318.129,321.999,325.221,329.046,330.972,335.787,340.674,344.499,346.425,350.295,355.182,359.934,361.86,366.639,371.562,373.974,376.557,381.039,384.432,391.848,394.062,398.193,400.119,404.871,407.256,410.514,413.304,416.697,419.073,423.546,428.217,430.908,434.777,439.529,441.455,444.569,449.33,451.742,455.981,458.033" svgx:width="0.35,0.23,0.23,1.07,0.43,0.23,0.42,0.44,0.37,0.51,0.27,0.53,0.43,0.37,0.23,0.27,0.55,0.23,0.82,0.44,0.37,0.31,0.43,0.55,0.37,0.27,0.31,0.43,0.23,0.44,0.37,0.43,0.23,0.54,0.55,0.43,0.23,0.44,0.55,0.53,0.23,0.53,0.55,0.27,0.3,0.51,0.37,0.82,0.25,0.46,0.23,0.53,0.27,0.37,0.31,0.37,0.27,0.51,0.53,0.31,0.43,0.53,0.23,0.35,0.53,0.27,0.47,0.23,0.23" style="fill:rgb(0,0,0);font-family:MinionPro-Regular;font-size:9.0px;stroke:none;">). The carbides in martensite are fine and uniformly distributed (Fig. </text>
   <text y="591.288" x="459.979,464.299" svgx:width="0.48,0.43" style="fill:rgb(0,0,255);font-family:MinionPro-Regular;font-size:9.0px;stroke:none;">7e</text>
   <text y="591.288" x="468.124,471.238,473.29,475.216,479.698,484.621,486.547,489.346,494.116,497.941,499.867,504.358,507.156,511.926,515.751,519.09,521.016,525.796,529.666,534.552,539.25,541.302,543.229,546.028,550.797,554.622" svgx:width="0.35,0.23,0.23,0.51,0.55,0.23,0.31,0.53,0.43,0.23,0.51,0.31,0.53,0.43,0.37,0.23,0.53,0.44,0.55,0.53,0.23,0.23,0.31,0.53,0.43,0.23" style="fill:rgb(0,0,0);font-family:MinionPro-Regular;font-size:9.0px;stroke:none;">); on the other hand, the </text>
   <text y="601.287" x="155.634,159.468,163.339,166.678,171.142,173.554,178.306,182.131,185.434,187.354,192.106,194.491,197.749,200.539,203.932,206.308,210.781,215.452,218.242,220.654,225.135,230.058,231.98,234.392,239.315,241.236,245.852,249.722,252.134,257.057,259.361,262.052,265.877,267.799,270.184,273.487,275.407,280.294,284.785,287.53,289.452,294.231,299.154,301.566,304.149,308.631,312.024,319.395,321.315,325.185,330.072,334.824,336.746,339.05,342.92,346.187,350.327,354.152,357.491,359.412,363.246,367.116,370.455,374.919,377.331,382.083,385.908,389.211,391.131,397.224,401.049,404.271,408.096,410.018,414.626,417.848,421.673,425.047,428.872,433.624,436.369,438.29,441.404,446.165,448.577,452.816,454.868" svgx:width="0.42,0.44,0.37,0.51,0.27,0.53,0.43,0.37,0.23,0.53,0.27,0.37,0.31,0.37,0.27,0.51,0.53,0.31,0.27,0.51,0.55,0.23,0.27,0.55,0.23,0.51,0.44,0.27,0.55,0.27,0.31,0.43,0.23,0.27,0.37,0.23,0.55,0.51,0.31,0.23,0.53,0.55,0.27,0.3,0.51,0.37,0.82,0.23,0.44,0.55,0.53,0.23,0.25,0.44,0.37,0.47,0.43,0.37,0.23,0.42,0.44,0.37,0.51,0.27,0.53,0.43,0.37,0.23,0.69,0.43,0.37,0.43,0.23,0.52,0.37,0.43,0.37,0.43,0.55,0.31,0.23,0.35,0.53,0.27,0.47,0.23,0.23" style="fill:rgb(0,0,0);font-family:MinionPro-Regular;font-size:9.0px;stroke:none;">carbides distribution in bainite is not uniform and larger carbides were present (Fig. </text>
   <text y="601.287" x="456.793,461.113" svgx:width="0.48,0.3" style="fill:rgb(0,0,255);font-family:MinionPro-Regular;font-size:9.0px;stroke:none;">7f</text>
   <text y="601.287" x="464.479,467.593,469.645,471.565,481.168,484.993,486.915,491.667,494.052,497.31,500.1,503.493,505.869,510.342,515.013,517.803,520.215,524.698,529.62,531.541,536.023,538.687,540.609,544.442,548.312,551.437" svgx:width="0.35,0.23,0.23,1.07,0.43,0.23,0.53,0.27,0.37,0.31,0.37,0.27,0.51,0.53,0.31,0.27,0.51,0.55,0.23,0.51,0.3,0.23,0.42,0.44,0.37,0.36" style="fill:rgb(0,0,0);font-family:MinionPro-Regular;font-size:9.0px;stroke:none;">). The distribution of car-</text>
   <text y="611.286" x="155.644,160.108,162.52,167.272,171.097,174.4,176.29,180.772,185.695,187.585,190.384,195.154,198.979,200.869,205.126,208.465,212.335,214.747,219.67,221.56,226.213,230.704,235.483,240.37,245.149,249.019,252.412,254.824,258.649,261.952,263.842,267.676,271.456,276.208,279.583,283.408,286.711,288.601,291.4,296.17,299.995,302.407,305.746,307.636,311.461,318.741,323.205,326.598,328.902,331.557,334.356,336.633,340.458,347.793,351.618,356.37,359.115,361.167,363.057,367.665,370.887,375.369,382.704,387.195,389.985,392.397,397.248,401.46,403.35,406.149,410.919,414.744,416.634,419.388,422.727,426.678,430.547,433.202,437.981,441.203,445.028,446.918,451.4,454.064,455.954,458.752,463.522,467.347,469.237,476.581,480.361,483.052,486.877,490.27,492.709,496.704,498.981,500.871,504.867,507.144,511.626,516.477,520.689,522.579,525.378,530.148,533.973,535.863,540.12,543.459,547.329,549.741,554.664" svgx:width="0.51,0.27,0.53,0.43,0.37,0.23,0.51,0.55,0.23,0.31,0.53,0.43,0.23,0.47,0.37,0.44,0.27,0.55,0.23,0.51,0.51,0.53,0.55,0.53,0.44,0.37,0.27,0.43,0.37,0.23,0.42,0.44,0.53,0.37,0.43,0.37,0.23,0.31,0.53,0.43,0.27,0.37,0.23,0.43,0.82,0.51,0.37,0.27,0.31,0.31,0.25,0.43,0.82,0.43,0.55,0.31,0.23,0.23,0.52,0.37,0.51,0.82,0.51,0.31,0.27,0.55,0.47,0.23,0.31,0.53,0.43,0.23,0.3,0.37,0.44,0.42,0.31,0.53,0.37,0.43,0.23,0.51,0.3,0.23,0.31,0.53,0.43,0.23,0.82,0.44,0.31,0.43,0.37,0.27,0.44,0.25,0.23,0.44,0.25,0.51,0.55,0.47,0.23,0.31,0.53,0.43,0.23,0.47,0.37,0.44,0.27,0.55,0.23" style="fill:rgb(0,0,0);font-family:MinionPro-Regular;font-size:9.0px;stroke:none;">bides on the grain boundaries causes their embrittlement, promoting the fracture of the material along the grain </text>
   <text y="621.285" x="155.644,160.297,164.788,169.567,174.454,179.233,183.103,186.496,188.908,192.733,196.036,198.088,199.951,209.554,213.379,215.242,219.499,222.838,226.708,229.12,234.043,235.906,240.559,245.05,249.829,254.716,259.495,263.365,266.965,271.096,272.959,276.793,280.663,284.002,288.465,290.877,295.629,299.454,302.757,304.62,307.032,311.955,313.818,318.435,322.305,324.717,329.64,331.944,334.635,338.46,340.323,344.194,347.416,351.241,353.104,356.911,361.546,365.416,368.701,372.076,375.901,379.24,381.103,383.902,388.681,392.551,397.474,399.337,402.136,406.905,411.495,414.87,418.695,420.558,422.97,427.893,429.756,437.1,440.97,444.399,447.09,450.915,455.766,459.069,461.373,464.064,467.835,469.887,471.75,475.62,480.507,485.259,487.122,489.426,493.296,496.563,500.703,504.528,507.867,509.73,513.564,517.434,520.773,525.237,527.649,532.401,536.226,539.529,541.392,547.584,550.041,552.363,554.64" svgx:width="0.51,0.51,0.53,0.55,0.53,0.44,0.37,0.27,0.43,0.37,0.23,0.23,1.07,0.43,0.23,0.47,0.37,0.44,0.27,0.55,0.23,0.51,0.51,0.53,0.55,0.53,0.44,0.37,0.46,0.23,0.42,0.44,0.37,0.51,0.27,0.53,0.43,0.37,0.23,0.27,0.55,0.23,0.51,0.44,0.27,0.55,0.27,0.31,0.43,0.23,0.44,0.37,0.43,0.23,0.42,0.51,0.44,0.37,0.37,0.43,0.37,0.23,0.31,0.53,0.44,0.55,0.23,0.31,0.53,0.51,0.37,0.43,0.23,0.27,0.55,0.23,0.82,0.44,0.37,0.31,0.43,0.55,0.37,0.27,0.31,0.43,0.23,0.23,0.44,0.55,0.53,0.23,0.25,0.44,0.37,0.47,0.43,0.37,0.23,0.42,0.44,0.37,0.51,0.27,0.53,0.43,0.37,0.23,0.69,0.27,0.25,0.25,0.23" style="fill:rgb(0,0,0);font-family:MinionPro-Regular;font-size:9.0px;stroke:none;">boundaries. The grain boundary carbides in bainite are coarser than those in martensite, and larger carbides will </text>
   <text y="631.284" x="155.644,158.866,162.736,167.38,172.159,175.966,179.791,181.627,184.426,189.196,193.021,194.857,198.664,202.057,204.361,207.151,209.563,213.396,217.392,219.669,221.505,224.259,227.598,231.549,235.418,238.073,242.852,246.074,249.899,251.735,254.993,257.783,261.005,264.83,268.088,271.391,273.227,277.097,281.984,286.736,288.572,293.324,297.194,301.001,304.223,308.102,312.026,315.401,319.226,321.062,323.861,328.631,332.456,334.292,336.983,341.474,346.253,350.528,355.334,360.221,364.046,367.304,370.607,372.443,376.925,379.589,381.425,384.224,388.994,392.819,394.655,401.999,405.779,408.47,412.295,415.688,418.127,422.123,424.346" svgx:width="0.37,0.43,0.53,0.53,0.42,0.43,0.23,0.31,0.53,0.43,0.23,0.42,0.37,0.27,0.31,0.27,0.42,0.44,0.25,0.23,0.3,0.37,0.44,0.42,0.31,0.53,0.37,0.43,0.23,0.37,0.31,0.37,0.43,0.37,0.37,0.23,0.44,0.55,0.53,0.23,0.53,0.43,0.42,0.37,0.43,0.44,0.37,0.43,0.23,0.31,0.53,0.43,0.23,0.31,0.51,0.53,0.47,0.53,0.55,0.43,0.37,0.37,0.23,0.51,0.3,0.23,0.31,0.53,0.43,0.23,0.82,0.44,0.31,0.43,0.37,0.27,0.44,0.25,0.23" style="fill:rgb(0,0,0);font-family:MinionPro-Regular;font-size:9.0px;stroke:none;">reduce the critical fracture stress and decrease the toughness of the material.</text>
   <text y="641.283" x="167.641,173.817,178.986,182.793,186.114,187.833,192.426,195.632,200.144,202.403,206.87,211.705,215.83,219.685,224.419,226.138,228.922,233.676,237.483,240.86,248.189,252.169,254.428,256.147,258.541,263.377,266.62,271.428,273.716,277.482,280.256,282.65,287.116,292.021,294.055,295.774,299.512,301.771,305.634,309.49,312.811,314.53,321.858,325.713,329.127,331.802,335.609,340.445,343.73,346.019,348.695,352.502,354.221,356.509,360.274,363.058,367.776,371.061,372.78,377.562,381.369,384.639,387.924,390.293,393.536,396.263,397.982,400.376,405.281,407.0,409.784,414.539,418.346,420.065,427.418,429.812,433.601,436.807,441.379,444.622,447.397,450.81,455.571,459.425,462.066,466.827,470.033,473.84,475.559,479.414,484.286,489.02,490.739,494.672,496.391,499.676,507.005,510.985,513.292,515.551,517.27,520.009,523.33,527.263,531.117,533.891,536.285,540.752,545.657,547.376,551.843,554.507" svgx:width="0.69,0.58,0.43,0.37,0.23,0.52,0.37,0.51,0.25,0.51,0.55,0.47,0.43,0.53,0.23,0.31,0.53,0.43,0.37,0.82,0.44,0.25,0.23,0.27,0.55,0.37,0.53,0.25,0.44,0.31,0.27,0.51,0.55,0.23,0.23,0.42,0.25,0.43,0.44,0.37,0.23,0.82,0.44,0.37,0.31,0.43,0.55,0.37,0.27,0.31,0.43,0.23,0.25,0.44,0.31,0.53,0.37,0.23,0.52,0.43,0.37,0.37,0.27,0.37,0.31,0.23,0.27,0.55,0.23,0.31,0.53,0.43,0.23,0.82,0.27,0.42,0.37,0.51,0.37,0.31,0.37,0.53,0.42,0.31,0.53,0.37,0.43,0.23,0.44,0.55,0.53,0.23,0.44,0.23,0.37,0.82,0.44,0.25,0.25,0.23,0.3,0.37,0.44,0.42,0.31,0.27,0.51,0.55,0.23,0.51,0.3,0.23" style="fill:rgb(0,0,0);font-family:MinionPro-Regular;font-size:9.0px;stroke:none;">After prolonged thermal insulation, clear martensite laths persist in the microstructure and a small fraction of </text>
   <text y="651.282" x="155.644,158.899,163.639,168.211,171.415,175.669,179.008,182.876,185.288,190.136,193.439,195.176,198.29,203.051,205.463,209.699,211.751" svgx:width="0.37,0.53,0.51,0.36,0.47,0.37,0.44,0.27,0.55,0.37,0.23,0.35,0.53,0.27,0.47,0.23,0.23" style="fill:rgb(0,0,0);font-family:MinionPro-Regular;font-size:9.0px;stroke:none;">sub-grains (Fig. </text>
   <text y="651.282" x="213.451,217.771" svgx:width="0.48,0.44" style="fill:rgb(0,0,255);font-family:MinionPro-Regular;font-size:9.0px;stroke:none;">8a</text>
   <text y="651.282" x="221.722,224.836,226.573,228.955,232.258,233.995,236.575,241.054,244.445,251.776,255.643,260.339,262.391,264.128,271.991,275.857,280.571,284.702,286.439,289.693,294.433,299.005,302.209,306.463,309.802,313.669,316.081,320.929,324.232,325.969,329.837,333.056,336.881,338.618,341.198,345.678,349.067,356.399,360.267,365.019,366.756,369.168,374.091,375.828,378.624,383.391,387.216,388.953,393.568,397.435,399.847,404.77,407.071,409.759,413.584,415.321,418.435,423.196,425.608,429.844,431.896" svgx:width="0.35,0.23,0.27,0.37,0.23,0.3,0.51,0.37,0.82,0.43,0.53,0.23,0.23,0.89,0.44,0.55,0.46,0.23,0.37,0.53,0.51,0.36,0.47,0.37,0.44,0.27,0.55,0.37,0.23,0.44,0.37,0.43,0.23,0.3,0.51,0.37,0.82,0.43,0.53,0.23,0.27,0.55,0.23,0.31,0.53,0.43,0.23,0.51,0.44,0.27,0.55,0.27,0.31,0.43,0.23,0.35,0.53,0.27,0.47,0.23,0.23" style="fill:rgb(0,0,0);font-family:MinionPro-Regular;font-size:9.0px;stroke:none;">) is formed. Many sub-grains are formed in the bainite (Fig. </text>
   <text y="651.282" x="433.528,437.848" svgx:width="0.48,0.51" style="fill:rgb(0,0,255);font-family:MinionPro-Regular;font-size:9.0px;stroke:none;">8b</text>
   <text y="651.282" x="442.42,445.534,447.586,449.323,454.297,458.164,461.428,465.566,469.391,471.128,474.959,478.826,482.165,486.626,489.038,493.79,497.615,500.918,502.655,506.522,509.741,513.566,515.303,520.055,522.438,525.693,528.48,531.87,534.243,538.713,543.381,546.07,549.936,554.688" svgx:width="0.35,0.23,0.23,0.54,0.44,0.37,0.47,0.43,0.23,0.42,0.44,0.37,0.51,0.27,0.53,0.43,0.37,0.23,0.44,0.37,0.43,0.23,0.53,0.27,0.37,0.31,0.37,0.27,0.51,0.53,0.31,0.43,0.53,0.23" style="fill:rgb(0,0,0);font-family:MinionPro-Regular;font-size:9.0px;stroke:none;">). Large carbides are distributed </text>
   <text y="661.281" x="155.644,158.092,163.051,165.031,167.865,172.671,176.532,178.512,185.892,189.798,193.262,195.989,199.85,204.737,208.076,210.416,213.143,217.004,218.984,221.323,225.139,227.974,232.816,234.796,239.484,244.011,248.826,253.749,258.563,262.469,266.105,270.272,272.252,275.402,280.199,282.647,286.922,289.01" svgx:width="0.27,0.55,0.23,0.31,0.53,0.43,0.23,0.82,0.44,0.37,0.31,0.43,0.55,0.37,0.27,0.31,0.43,0.23,0.25,0.44,0.31,0.53,0.23,0.51,0.51,0.53,0.55,0.53,0.44,0.37,0.46,0.23,0.35,0.53,0.27,0.47,0.23,0.23" style="fill:rgb(0,0,0);font-family:MinionPro-Regular;font-size:9.0px;stroke:none;">in the martensite lath boundary (Fig. </text>
   <text y="661.281" x="290.968,295.324" svgx:width="0.48,0.42" style="fill:rgb(0,0,255);font-family:MinionPro-Regular;font-size:9.0px;stroke:none;">8c</text>
   <text y="661.281" x="299.167,302.316,304.297,308.203,313.126,317.914,319.894,323.233,330.613,334.644,337.002,339.315,341.295,345.164,349.07,352.445,357.133,361.651,366.538,369.877,371.857,375.763,379.021,382.882,384.862,389.65,392.071,395.365,400.198,404.059,407.38,410.791,414.696,419.484,421.464,423.912,428.871,430.851,433.686,438.491,442.352,444.332,448.985,452.891,455.339,460.298,462.638,465.365,469.226,471.206,473.824,477.685,481.114,484.542,486.882,489.609,493.47,495.45,502.83,506.645,509.471,512.9,515.348,519.632,521.612,524.762,529.559,532.007,536.281,538.37" svgx:width="0.35,0.23,0.44,0.55,0.53,0.23,0.37,0.82,0.44,0.25,0.25,0.23,0.42,0.44,0.37,0.51,0.51,0.55,0.37,0.23,0.44,0.37,0.43,0.23,0.53,0.27,0.37,0.52,0.43,0.37,0.37,0.43,0.53,0.23,0.27,0.55,0.23,0.31,0.53,0.43,0.23,0.51,0.44,0.27,0.55,0.27,0.31,0.43,0.23,0.3,0.43,0.37,0.37,0.27,0.31,0.43,0.23,0.82,0.44,0.31,0.37,0.27,0.47,0.23,0.35,0.53,0.27,0.47,0.23,0.23" style="fill:rgb(0,0,0);font-family:MinionPro-Regular;font-size:9.0px;stroke:none;">) and small carbons are dispersed in the bainite ferrite matrix (Fig. </text>
   <text y="661.281" x="540.304,544.66" svgx:width="0.48,0.53" style="fill:rgb(0,0,255);font-family:MinionPro-Regular;font-size:9.0px;stroke:none;">8d</text>
   <text y="661.281" x="549.448,552.598,554.65" svgx:width="0.35,0.23,0.23" style="fill:rgb(0,0,0);font-family:MinionPro-Regular;font-size:9.0px;stroke:none;">). </text>
   <text y="671.28" x="155.653,165.256,169.081,170.854,174.688,178.558,181.897,186.361,188.773,193.525,197.35,200.653,202.426,206.296,209.518,213.343,215.116,219.868,222.253,225.511,228.301,231.694,234.069,238.543,243.214,245.904,249.774,254.526,256.299,260.124,262.428,265.227,269.997,273.822,277.161,278.934,283.416,288.339,290.112,292.911,297.681,301.506,303.279,310.623,314.493,317.922,320.613,324.438,329.289,332.592,334.896,337.587,341.412,343.185,345.489,349.269,352.068,356.874,358.647,363.128,366.467,368.24,371.039,375.809,379.634,381.407,386.024,389.894,392.306,397.229,399.533,402.224,406.049,407.822,410.405,414.23,417.623,421.016,423.32,426.011,429.836,431.609,438.953,442.733,445.523,448.916,451.328,455.576,457.628,459.401,463.271,468.158,472.91,474.683,480.874,483.331,485.653,487.93,489.703,497.047,500.918,503.33,508.082,510.881,514.751,517.163,522.086,523.859,527.81,529.583,533.39,537.215,540.644,543.443,547.313,549.725,554.648" svgx:width="1.07,0.43,0.23,0.42,0.44,0.37,0.51,0.27,0.53,0.43,0.37,0.23,0.44,0.37,0.43,0.23,0.53,0.27,0.37,0.31,0.37,0.27,0.51,0.53,0.31,0.43,0.53,0.23,0.43,0.27,0.31,0.53,0.43,0.37,0.23,0.51,0.55,0.23,0.31,0.53,0.43,0.23,0.82,0.44,0.37,0.31,0.43,0.55,0.37,0.27,0.31,0.43,0.23,0.25,0.44,0.31,0.53,0.23,0.51,0.37,0.23,0.31,0.53,0.43,0.23,0.51,0.44,0.27,0.55,0.27,0.31,0.43,0.23,0.3,0.43,0.37,0.37,0.27,0.31,0.43,0.23,0.82,0.44,0.31,0.37,0.27,0.47,0.23,0.23,0.44,0.55,0.53,0.23,0.69,0.27,0.25,0.25,0.23,0.82,0.44,0.27,0.55,0.31,0.44,0.27,0.55,0.23,0.44,0.23,0.42,0.43,0.37,0.31,0.44,0.27,0.55,0.23" style="fill:rgb(0,0,0);font-family:MinionPro-Regular;font-size:9.0px;stroke:none;">The carbides are distributed either on the martensite lath or the bainite ferrite matrix, and will maintain a certain </text>
   <text y="681.279" x="155.653,159.505,164.076,168.89,172.76,176.026,179.896,184.692,187.482,189.471,192.737,196.57,198.918,202.742,205.575,208.032,212.559,217.454,220.764,225.615,227.963,232.724,234.713,240.948,243.296,246.139,250.99,252.979,255.822,260.636,264.506,266.495,273.883,277.707,280.54,283.977,286.434,290.727,292.824,294.813,304.46,308.33,310.319,313.621,316.455,319.721,323.591,326.893,330.241,332.23,337.09,340.923,343.245,348.042,350.031,354.682,357.948,362.663,367.351,372.175,376.027,379.942,384.739,386.728,391.2,395.376,397.365,400.208,405.022,408.892,410.881,415.532,418.798,422.712,426.564,428.912,433.564,435.912,438.755,442.579,445.314,449.184,452.532,454.521,458.399,462.312,467.28,469.269,473.066,477.889,481.804,486.699,490.882,494.752,496.741,499.584,504.398,508.268,510.257,513.558,516.392,519.658,523.528,526.83,530.178,532.167,536.964,539.393,542.695,545.528,548.965,551.422" svgx:width="0.42,0.51,0.53,0.43,0.37,0.43,0.55,0.31,0.23,0.37,0.43,0.25,0.44,0.31,0.27,0.51,0.55,0.37,0.53,0.27,0.52,0.23,0.69,0.27,0.31,0.53,0.23,0.31,0.53,0.43,0.23,0.82,0.44,0.31,0.37,0.27,0.47,0.23,0.23,1.07,0.43,0.23,0.37,0.31,0.37,0.43,0.37,0.37,0.23,0.54,0.43,0.25,0.53,0.23,0.52,0.37,0.51,0.53,0.53,0.42,0.43,0.53,0.23,0.51,0.46,0.23,0.31,0.53,0.43,0.23,0.52,0.37,0.43,0.42,0.27,0.52,0.27,0.31,0.44,0.31,0.43,0.37,0.23,0.42,0.44,0.55,0.23,0.42,0.53,0.44,0.55,0.47,0.43,0.23,0.31,0.53,0.43,0.23,0.37,0.31,0.37,0.43,0.37,0.37,0.23,0.53,0.27,0.37,0.31,0.37,0.27,0.36" style="fill:rgb(0,0,0);font-family:MinionPro-Regular;font-size:9.0px;stroke:none;">coherent relationship with the matrix. The stress field produced by the precipitates can change the stress distri-</text>
   <text y="691.278" x="155.653,160.126,164.797,167.587,169.999,174.481,179.404,181.199,184.979,187.724,189.52,192.319,197.089,200.914,202.709,206.516,209.855,213.806,217.558,222.022,223.818,226.608,228.912,233.628,235.423,239.293,244.18,248.932,250.732,255.339,258.561,262.458,266.553,270.378,275.13,277.875,279.671,282.47,287.24,291.065,292.86,297.612,302.391,306.144,308.421,312.3,316.08,318.87,321.282,325.763,330.686,332.486,336.356,341.243,345.995,347.791,352.399,355.621,360.112,364.873,368.779,372.991,376.77,379.56,381.972,386.454,391.377,393.172,397.654,400.318,402.114,405.921,409.26,413.211,416.964,421.428,424.731,426.783,428.578,435.247,439.693,445.786,449.684,453.779,457.604,460.376,462.428,464.223,466.635,469.299,471.099,473.898,478.668,482.493,484.288,488.122,491.992,495.331,499.795,502.207,506.959,510.784,512.579,514.883,517.628,521.003,524.792,527.069,529.733,531.529,533.914,537.216,539.012,543.107,546.932,550.532,554.663" svgx:width="0.51,0.53,0.31,0.27,0.51,0.55,0.23,0.44,0.31,0.23,0.31,0.53,0.43,0.23,0.42,0.37,0.44,0.42,0.5,0.23,0.31,0.27,0.52,0.23,0.44,0.55,0.53,0.23,0.52,0.37,0.43,0.46,0.43,0.55,0.31,0.23,0.31,0.53,0.43,0.23,0.55,0.53,0.42,0.25,0.43,0.44,0.31,0.27,0.51,0.55,0.23,0.44,0.55,0.53,0.23,0.52,0.37,0.51,0.52,0.44,0.47,0.44,0.31,0.27,0.51,0.55,0.23,0.51,0.3,0.23,0.42,0.37,0.44,0.42,0.5,0.37,0.23,0.23,0.77,0.51,0.69,0.43,0.46,0.43,0.37,0.23,0.23,0.27,0.3,0.23,0.31,0.53,0.43,0.23,0.42,0.44,0.37,0.51,0.27,0.53,0.43,0.23,0.27,0.31,0.37,0.43,0.25,0.3,0.23,0.27,0.37,0.23,0.46,0.43,0.37,0.46,0.23" style="fill:rgb(0,0,0);font-family:MinionPro-Regular;font-size:9.0px;stroke:none;">bution at the crack tip and prevent the nucleation and propagation of cracks. However, if the carbide itself is very </text>
   <text y="701.277" x="155.653,159.028,166.441,170.506,172.897,175.246,177.325,181.265,186.221,191.045,193.124,195.497,198.314,201.689,203.768,207.096,209.954,213.246,217.143,222.064,226.348,229.217,234.095,236.174,238.628,242.003,244.082,249.038,253.599,256.416,258.495,263.373,265.857,270.201,275.079,277.203,279.282,283.305,285.384,290.208,292.662,295.999,298.348,303.088,306.991,310.84,313.699,316.183,320.734,325.729,327.808,335.212,339.773,342.632,345.116,349.667,354.662,356.741,361.482,365.361,369.3,374.151,377.505,380.88,382.959,386.898,391.855,396.679,398.758,401.626,406.465,410.362,412.441,417.265,419.719,423.055,425.404,430.144,434.048,437.897,440.756,443.24,447.792,452.787,454.866,458.745,463.296,468.252,472.131,476.028,480.849,483.709,487.12,490.969,493.729,497.669,502.493,504.572,507.056,512.051,514.13,516.998,521.837,525.734,527.813,531.716,535.656,539.067,543.6,546.084,550.908,554.733" svgx:width="0.37,0.82,0.44,0.25,0.25,0.23,0.44,0.55,0.53,0.23,0.27,0.31,0.37,0.23,0.37,0.31,0.37,0.43,0.55,0.47,0.31,0.53,0.23,0.27,0.37,0.23,0.55,0.51,0.31,0.23,0.53,0.27,0.47,0.53,0.23,0.23,0.44,0.23,0.53,0.27,0.37,0.25,0.51,0.42,0.44,0.31,0.27,0.51,0.55,0.23,0.82,0.51,0.31,0.27,0.51,0.55,0.23,0.51,0.42,0.42,0.53,0.37,0.37,0.23,0.44,0.55,0.53,0.23,0.31,0.53,0.43,0.23,0.53,0.27,0.37,0.25,0.51,0.42,0.44,0.31,0.27,0.51,0.55,0.23,0.42,0.51,0.55,0.42,0.43,0.55,0.31,0.37,0.44,0.31,0.43,0.53,0.23,0.27,0.55,0.23,0.31,0.53,0.43,0.23,0.42,0.44,0.37,0.51,0.27,0.53,0.43,0.23" style="fill:rgb(0,0,0);font-family:MinionPro-Regular;font-size:9.0px;stroke:none;">small and its strength is not high, a dislocation motion occurs and the dislocation concentrated in the carbide </text>
   <text y="711.276" x="155.653,158.236,162.718,166.111,173.41,176.713,178.612,182.563,184.462,188.269,191.608,195.559,199.311,203.775,205.827,207.726,213.954,218.76,221.172,224.925,229.731,231.63,237.821,240.278,242.6,244.877,246.776,249.998,253.868,258.512,263.291,267.098,270.923,272.822,275.621,280.391,284.216,286.115,288.806,293.297,298.076,302.351,307.157,312.044,315.869,319.127,322.43,324.329,328.811,331.475,333.374,336.173,340.943,344.768,346.667,349.925,352.616,356.486,360.275,362.497,364.549,366.448,369.373,372.037,373.936,376.735,381.505,385.33,387.229,391.981,394.366,397.633,399.91,404.581,408.414,412.194,414.984,417.396,421.878,426.801,428.7,432.534,436.404,441.327,446.214,450.705,453.45,455.349,459.219,463.89,466.635,468.534,471.333,476.139,479.361,483.853,488.632,492.907,497.713,499.612,502.411,507.181,511.006,512.905,516.739,520.609,523.948,528.412,530.824,535.576,539.347,541.399,543.298,546.097,550.867,554.692" svgx:width="0.3,0.51,0.37,0.82,0.37,0.23,0.44,0.23,0.42,0.37,0.44,0.42,0.5,0.23,0.23,0.69,0.53,0.27,0.42,0.53,0.23,0.69,0.27,0.25,0.25,0.23,0.37,0.43,0.53,0.53,0.42,0.43,0.23,0.31,0.53,0.43,0.23,0.31,0.51,0.53,0.47,0.53,0.55,0.43,0.37,0.37,0.23,0.51,0.3,0.23,0.31,0.53,0.43,0.23,0.37,0.31,0.43,0.43,0.25,0.23,0.23,0.34,0.3,0.23,0.31,0.53,0.43,0.23,0.53,0.27,0.37,0.25,0.51,0.42,0.44,0.31,0.27,0.51,0.55,0.23,0.42,0.44,0.55,0.55,0.51,0.31,0.23,0.42,0.53,0.31,0.23,0.31,0.53,0.37,0.51,0.53,0.47,0.53,0.23,0.31,0.53,0.43,0.23,0.42,0.44,0.37,0.51,0.27,0.53,0.43,0.23,0.23,0.31,0.53,0.43,0.23" style="fill:rgb(0,0,0);font-family:MinionPro-Regular;font-size:9.0px;stroke:none;">forms a crack, which will reduce the toughness of the steel. If the dislocation cannot cut through the carbide, the </text>
   <text y="721.275" x="155.653,162.376,165.598,170.044,176.209,180.079,185.002,186.838,191.266,195.397,200.158,204.082,207.34,210.643,213.055,217.905,222.117,223.953,231.288,235.158,238.911,243.69,247.56,252.483,254.868,258.171,265.542,267.378,273.569,276.026,278.348,280.625,282.461,287.348,291.839,294.584,296.42,299.723,302.135,306.392,311.315,313.727,318.542,322.376,326.246,330.998,333.797,336.011,340.142,341.978,345.2,349.069,353.713,358.492,362.299,366.124,367.96,370.759,375.529,379.354,381.19,383.881,388.372,393.151,397.425,402.231,407.118,410.943,414.201,417.504,419.34,423.822,426.486,428.322,431.121,435.891,439.716,441.552,448.896,452.676,455.367,459.192,462.585,465.024,469.02,471.242" svgx:width="0.75,0.37,0.51,0.69,0.44,0.55,0.23,0.51,0.46,0.52,0.44,0.37,0.37,0.27,0.55,0.47,0.23,0.82,0.43,0.42,0.53,0.44,0.55,0.27,0.37,0.82,0.23,0.69,0.27,0.25,0.25,0.23,0.55,0.51,0.31,0.23,0.37,0.27,0.47,0.55,0.27,0.54,0.42,0.44,0.55,0.31,0.25,0.46,0.23,0.37,0.43,0.53,0.53,0.42,0.43,0.23,0.31,0.53,0.43,0.23,0.31,0.51,0.53,0.47,0.53,0.55,0.43,0.37,0.37,0.23,0.51,0.3,0.23,0.31,0.53,0.43,0.23,0.82,0.44,0.31,0.43,0.37,0.27,0.44,0.25,0.23" style="fill:rgb(0,0,0);font-family:MinionPro-Regular;font-size:9.0px;stroke:none;">Orowan bypassing mechanism will not significantly reduce the toughness of the material.</text>
  </g>
  <rect style="fill:pink;opacity:0.2;stroke:blue;stroke-width:0.3;" x="155.638" y="64.929" height="444.72" width="396.0" title="7"/>
  <text y="64.929" class="image" id="image.7.1" width="396" height="444" x="155.638" style="font-size:5.0px;">image.7.1.156_552.65_510</text>
  <path style="fill:none;stroke:rgb(131,144,151);stroke-width:0.3;" d="M159.130 530.550 L552.640 530.550 "/>
  <path style="fill:none;stroke:rgb(131,144,151);stroke-width:1.0;" d="M156.140 530.550 L156.140 530.550 M554.140 530.550 L554.140 530.550 "/>
  <g begin="text">
   <text y="510.554" x="155.638,160.552,163.207,167.662,172.657,176.221,180.154,181.909,186.409" svgx:width="0.55,0.29,0.49,0.56,0.4,0.44,0.22,0.5,0.25" style="fill:rgb(0,0,0);font-family:MinionPro-Bold;font-size:9.0px;stroke:none;">Figure 7.</text>
   <text y="510.554" x="188.695,190.765,193.195,199.963,204.58,207.37,209.782,213.615,217.611,219.888,221.724,225.594,230.481,235.233,237.069,241.227,246.339,254.358,256.194,263.565,265.977,269.784,273.005,277.595,281.852,285.191,288.971,293.624,298.358,301.661,303.497,307.979,310.643,312.479,315.278,320.048,323.873,325.709,329.975,336.194,340.514,344.834,349.154,355.517,358.289,360.341,364.661,371.348,373.184,376.442,379.133,383.003,386.792,389.069,390.905,394.775,399.959,403.784,407.123,408.959,412.217,414.908,418.733,423.449,426.653,430.46,435.131,439.658,441.935,444.347,449.198,453.41,455.246,460.016,463.895,467.675,470.42,472.256,475.046,478.268,482.147,485.927,488.716,496.051,499.876,504.628,507.373,509.425,511.261" svgx:width="0.23,0.55,0.75,0.52,0.31,0.27,0.42,0.44,0.25,0.23,0.44,0.55,0.53,0.23,0.47,0.57,0.89,0.23,0.82,0.27,0.42,0.37,0.51,0.47,0.37,0.44,0.52,0.53,0.37,0.23,0.51,0.3,0.23,0.31,0.53,0.43,0.23,0.47,0.69,0.48,0.48,0.48,0.71,0.37,0.23,0.48,0.74,0.23,0.37,0.31,0.43,0.43,0.25,0.23,0.44,0.58,0.43,0.37,0.23,0.37,0.31,0.43,0.52,0.36,0.42,0.51,0.51,0.25,0.27,0.55,0.47,0.23,0.53,0.43,0.44,0.31,0.23,0.31,0.37,0.43,0.44,0.31,0.82,0.43,0.55,0.31,0.23,0.23,0.35" style="fill:rgb(0,0,0);font-family:MinionPro-Regular;font-size:9.0px;stroke:none;"> Optical and SEM micrographs of the SA508Gr.4N steel after step-cooling heat treatment: (</text>
   <text y="510.554" x="514.375" svgx:width="0.47" style="fill:rgb(0,0,0);font-family:MinionPro-Bold;font-size:9.0px;stroke:none;">a</text>
   <text y="510.554" x="518.569" svgx:width="0.23" style="fill:rgb(0,0,0);font-family:MinionPro-Regular;font-size:9.0px;stroke:none;">,</text>
   <text y="510.554" x="520.621" svgx:width="0.42" style="fill:rgb(0,0,0);font-family:MinionPro-Bold;font-size:9.0px;stroke:none;">c</text>
   <text y="510.554" x="524.419" svgx:width="0.23" style="fill:rgb(0,0,0);font-family:MinionPro-Regular;font-size:9.0px;stroke:none;">,</text>
   <text y="510.554" x="526.471" svgx:width="0.44" style="fill:rgb(0,0,0);font-family:MinionPro-Bold;font-size:9.0px;stroke:none;">e</text>
   <text y="510.554" x="530.404,533.518" svgx:width="0.35,0.23" style="fill:rgb(0,0,0);font-family:MinionPro-Regular;font-size:9.0px;stroke:none;">) </text>
   <text y="520.553" x="155.638,163.504,167.374,170.803,173.494,177.319,182.17,185.473,187.776,190.467,194.292,196.344,198.18" svgx:width="0.89,0.44,0.37,0.31,0.43,0.55,0.37,0.27,0.31,0.43,0.23,0.23,0.35" style="fill:rgb(0,0,0);font-family:MinionPro-Regular;font-size:9.0px;stroke:none;">Martensite; (</text>
   <text y="520.553" x="201.294" svgx:width="0.53" style="fill:rgb(0,0,0);font-family:MinionPro-Bold;font-size:9.0px;stroke:none;">b</text>
   <text y="520.553" x="206.1" svgx:width="0.23" style="fill:rgb(0,0,0);font-family:MinionPro-Regular;font-size:9.0px;stroke:none;">,</text>
   <text y="520.553" x="208.152" svgx:width="0.55" style="fill:rgb(0,0,0);font-family:MinionPro-Bold;font-size:9.0px;stroke:none;">d</text>
   <text y="520.553" x="213.075" svgx:width="0.23" style="fill:rgb(0,0,0);font-family:MinionPro-Regular;font-size:9.0px;stroke:none;">,</text>
   <text y="520.553" x="215.127" svgx:width="0.33" style="fill:rgb(0,0,0);font-family:MinionPro-Bold;font-size:9.0px;stroke:none;">f</text>
   <text y="520.553" x="218.106,221.22,223.056,228.428,232.299,234.711,239.634,241.938,244.628,248.399" svgx:width="0.35,0.23,0.59,0.44,0.27,0.55,0.27,0.31,0.43,0.23" style="fill:rgb(0,0,0);font-family:MinionPro-Regular;font-size:9.0px;stroke:none;">) Bainite.</text>
  </g>
 </g>
</svg>
