<?xml version="1.0" encoding="UTF-8"?>
<svg height="774.244" width="2665.638" xmlns="http://www.w3.org/2000/svg">
 <g id="page" xmlns:svgx="http://www.xml-cml.org/schema/svgx">
  <g begin="text">
   <text y="22.46" x="40.638,48.208,55.778,63.055,66.145,71.865,77.215,81.135,86.765,90.565,95.995,99.085,103.915,109.695,118.435,121.635,126.125,130.955,133.725,139.15,144.87,148.79,151.56,155.19,157.96,162.79,166.59,172.02,177.78,183.56,187.36,191.28,195.77" svgx:width="0.71,0.71,0.71,0.26,0.53,0.49,0.35,0.52,0.34,0.5,0.26,0.44,0.53,0.83,0.28,0.4,0.44,0.23,0.5,0.53,0.35,0.23,0.32,0.23,0.44,0.34,0.5,0.53,0.53,0.34,0.35,0.4,0.28" style="fill:rgb(255,255,255);font-family:Corbel2;font-size:10.0px;stroke:none;">www.nature.com/scientificreports/</text>
  </g>
  <g begin="text">
   <text y="764.23" x="549.838" svgx:width="0.48" style="fill:rgb(131,144,151);font-family:Corbel2;font-size:10.0px;stroke:none;">5</text>
  </g>
  <g begin="text">
   <text y="764.244" x="40.794,45.642,50.786,53.186,58.026,64.026,68.898,71.298,75.762,78.162" svgx:width="0.55,0.59,0.25,0.55,0.7,0.56,0.25,0.5,0.25,0.59" style="fill:rgb(131,144,151);font-family:Corbel2;font-size:8.0px;stroke:none;">Scientific</text>
   <text y="764.244" x="83.162" svgx:width="0.2" style="fill:rgb(0,0,0);font-family:Corbel2;font-size:8.0px;stroke:none;"> </text>
   <text y="764.244" x="84.762,90.218,95.194,100.434,106.738,112.194,117.186" svgx:width="0.63,0.57,0.6,0.73,0.63,0.57,0.58" style="fill:rgb(131,144,151);font-family:Corbel-Bold2;font-size:8.0px;stroke:none;">RepoRts</text>
   <text y="764.244" x="122.082,123.522,125.338" svgx:width="0.2,0.23,0.2" style="fill:rgb(0,0,0);font-family:Corbel2;font-size:8.0px;stroke:none;"> | </text>
   <text y="764.244" x="126.778,128.234,130.506,134.442,138.378,142.314,146.25,148.522,149.978,153.914,155.602,159.538,163.474,167.41" svgx:width="0.18,0.28,0.49,0.49,0.49,0.49,0.28,0.18,0.49,0.21,0.49,0.49,0.49,0.18" style="fill:rgb(0,0,0);font-family:MyriadPro-It;font-size:8.0px;stroke:none;"> (2018) 8:207 </text>
   <text y="764.244" x="168.866,170.308,172.124,173.566,178.934,184.774,186.742,188.854,192.958,197.062,199.174,203.278,207.382,211.486,215.59,217.79,221.022,225.126,229.23,233.334,237.438,241.542,244.206,248.31,252.414,256.518,259.182,263.286,267.39,271.494,275.598,279.702,282.366" svgx:width="0.2,0.23,0.2,0.67,0.73,0.25,0.26,0.51,0.51,0.26,0.51,0.51,0.51,0.51,0.28,0.4,0.51,0.51,0.51,0.51,0.51,0.33,0.51,0.51,0.51,0.33,0.51,0.51,0.51,0.51,0.51,0.33,0.51" style="fill:rgb(0,0,0);font-family:Corbel;font-size:8.0px;stroke:none;"> | DOI:10.1038/s41598-017-18434-3</text>
  </g>
  <path style="fill:none;stroke:rgb(0,0,0);stroke-width:1.0;" d="M40.640 752.550 L554.640 752.550 "/>
  <g begin="text">
   <text y="403.0" x="155.638,158.334,161.583,165.361,170.118,173.331,175.541,178.238,180.56,184.949,189.782,191.425,195.201,199.89,203.396,207.398,211.133,214.346,215.993,221.992,225.727,228.856,232.591,234.238,238.689,243.069,245.775,249.551,251.873,256.667,260.443,265.105,266.747,269.409,272.537,276.926,284.207,285.854,291.79,296.475,300.252,303.588,308.066,312.107,313.75,316.072,323.178,327.846,331.707,335.483,338.138,339.785,342.383,346.118,349.282,351.978,354.3,359.058,363.18,364.827,369.215,371.789,373.432,376.057,380.787,383.016,385.203,388.317,391.53,393.852,397.542,401.277,402.919,405.943,410.173,414.403,415.324,422.605,429.886" svgx:width="0.31,0.37,0.44,0.55,0.37,0.27,0.31,0.27,0.51,0.55,0.23,0.42,0.53,0.37,0.46,0.43,0.37,0.23,0.69,0.43,0.37,0.43,0.23,0.51,0.51,0.31,0.44,0.27,0.55,0.43,0.53,0.23,0.3,0.37,0.51,0.82,0.23,0.67,0.53,0.44,0.37,0.52,0.46,0.23,0.27,0.82,0.52,0.44,0.42,0.31,0.23,0.31,0.43,0.37,0.31,0.27,0.55,0.47,0.23,0.51,0.3,0.23,0.3,0.53,0.25,0.25,0.36,0.37,0.27,0.42,0.43,0.23,0.35,0.48,0.48,0.23,0.82,0.82,0.23" style="fill:rgb(0,0,0);font-family:MinionPro-Regular;font-size:9.0px;stroke:none;">transition curves were obtained from Charpy impact testing of full-size (10 mm </text>
   <text y="403.0" x="430.912" svgx:width="0.78" style="fill:rgb(0,0,0);font-family:EuclidSymbol;font-size:9.0px;stroke:none;">×</text>
   <text y="403.0" x="437.815,438.85,443.08,447.31,448.345,455.626,462.907" svgx:width="0.23,0.48,0.48,0.23,0.82,0.82,0.23" style="fill:rgb(0,0,0);font-family:MinionPro-Regular;font-size:9.0px;stroke:none;"> 10 mm </text>
   <text y="403.0" x="463.942" svgx:width="0.78" style="fill:rgb(0,0,0);font-family:EuclidSymbol;font-size:9.0px;stroke:none;">×</text>
   <text y="403.0" x="470.827,471.862,476.092,480.322,481.357,488.638,495.919,498.943,500.586,503.751,508.454,512.231,515.948,518.27,525.512,529.247,534.004,537.217,538.861,544.959,547.17,549.875,554.681" svgx:width="0.23,0.48,0.48,0.23,0.82,0.82,0.35,0.23,0.37,0.52,0.43,0.42,0.27,0.82,0.43,0.55,0.37,0.23,0.69,0.27,0.31,0.53,0.23" style="fill:rgb(0,0,0);font-family:MinionPro-Regular;font-size:9.0px;stroke:none;"> 55 mm) specimens with </text>
   <text y="412.999" x="155.647,159.544,161.389,165.655,167.5,174.817,182.134,185.284,187.507,191.934,196.731,200.889,202.734,207.0,211.266,214.299,216.144,221.85,225.0,229.833,234.27,236.907,240.606,245.358,247.356,249.201,258.75,262.521,264.366,270.072,273.222,275.939,280.016,284.759,288.53,290.375,292.733,299.878,304.585,308.482,312.298,314.989,316.834,319.471,323.242,326.446,329.137,330.982,337.093,340.964,344.213,346.058,349.838,353.654,356.993,360.331,362.689,366.505,371.203,373.048,377.485,382.102,384.793,386.638,392.776,395.026,397.771,402.523,404.368,408.265,410.11,413.431,417.886,422.637,426.453,429.621,433.392,435.237,439.962,443.698,447.838,450.196,454.993,459.151,460.996,465.694,468.052,475.332,479.103,483.9,487.149,489.507,493.935,498.732,501.981,503.826,508.254,510.864,512.709,516.975,521.241" svgx:width="0.44,0.23,0.48,0.23,0.82,0.82,0.36,0.25,0.51,0.55,0.47,0.23,0.48,0.48,0.34,0.23,0.7,0.36,0.55,0.51,0.31,0.42,0.53,0.23,0.23,1.07,0.43,0.23,0.7,0.36,0.31,0.46,0.52,0.43,0.23,0.27,0.82,0.52,0.44,0.42,0.31,0.23,0.31,0.43,0.37,0.31,0.23,0.69,0.44,0.37,0.23,0.42,0.44,0.37,0.37,0.27,0.43,0.53,0.23,0.51,0.53,0.31,0.23,0.69,0.27,0.31,0.53,0.23,0.44,0.23,0.37,0.51,0.53,0.44,0.37,0.43,0.23,0.53,0.44,0.46,0.27,0.55,0.47,0.23,0.53,0.27,0.82,0.43,0.55,0.37,0.27,0.51,0.55,0.37,0.23,0.51,0.3,0.23,0.48,0.48,0.23" style="fill:rgb(0,0,0);font-family:MinionPro-Regular;font-size:9.0px;stroke:none;">a 2 mm-long 45° V-notch. The V-type impact test was carried out with a square having dimensions of 14 </text>
   <text y="412.999" x="522.334" svgx:width="0.78" style="fill:rgb(0,0,0);font-family:EuclidSymbol;font-size:9.0px;stroke:none;">×</text>
   <text y="412.999" x="529.282,530.353,534.619,538.885,539.956,547.273,554.643" svgx:width="0.23,0.48,0.48,0.23,0.82,0.82,0.23" style="fill:rgb(0,0,0);font-family:MinionPro-Regular;font-size:9.0px;stroke:none;"> 14 mm </text>
   <text y="422.998" x="155.647,160.285,163.536,168.238,172.072,175.924,179.212,182.542,184.981,189.861,194.13,196.209,198.288,207.921,211.773,213.852,218.769,223.289,226.01,229.793,234.593,238.493,243.272,245.351,250.13,252.569,255.821,259.72,263.62,266.44,268.879,273.39,278.34,280.419,286.611,290.565,293.895,295.974,300.801,304.653,308.112,312.938,316.79,321.707,326.486,328.925,332.825,337.678,340.012,343.912,347.278,349.357,352.077,356.694,358.773,361.602,366.402,370.254,372.333,375.738,380.276,385.112,389.013,392.264,396.116,398.195,402.842,406.742,409.543,411.622,413.701,418.402,422.254,425.543,428.362,430.801,435.682,439.921,442.0,448.192,452.146,455.476,457.555,462.382,466.233,469.656,472.269,476.781,480.204,487.569,491.469,496.248,498.327,502.136,504.908,506.987,509.708,513.56,520.79,525.616,529.468,532.834,536.644,539.329,544.135,547.387,551.239,554.541" svgx:width="0.52,0.37,0.51,0.42,0.43,0.37,0.37,0.27,0.55,0.47,0.23,0.23,1.07,0.43,0.23,0.55,0.51,0.31,0.42,0.53,0.43,0.53,0.23,0.53,0.27,0.37,0.43,0.42,0.31,0.27,0.51,0.55,0.23,0.69,0.44,0.37,0.23,0.52,0.43,0.37,0.52,0.43,0.55,0.53,0.27,0.42,0.53,0.25,0.44,0.37,0.23,0.31,0.51,0.23,0.31,0.53,0.43,0.23,0.37,0.51,0.53,0.44,0.37,0.43,0.23,0.51,0.44,0.37,0.23,0.23,0.62,0.43,0.37,0.31,0.27,0.55,0.47,0.23,0.69,0.44,0.37,0.23,0.52,0.43,0.37,0.3,0.51,0.37,0.82,0.43,0.53,0.23,0.44,0.31,0.23,0.31,0.43,0.82,0.52,0.43,0.37,0.44,0.31,0.53,0.37,0.43,0.37,0.23" style="fill:rgb(0,0,0);font-family:MinionPro-Regular;font-size:9.0px;stroke:none;">processing. The notched direction was perpendicular to the square bar. Testing was performed at temperatures </text>
   <text y="432.997" x="155.647,158.932,162.748,167.545,171.748,174.106,178.903,183.061,184.843,187.543,190.711,195.139,202.456" svgx:width="0.37,0.44,0.55,0.47,0.27,0.55,0.47,0.23,0.3,0.37,0.51,0.82,0.23" style="fill:rgb(0,0,0);font-family:MinionPro-Regular;font-size:9.0px;stroke:none;">ranging from </text>
   <text y="432.997" x="204.238" svgx:width="0.78" style="fill:rgb(0,0,0);font-family:EuclidSymbol;font-size:9.0px;stroke:none;">−</text>
   <text y="432.997" x="211.195,215.461,219.727,223.993,225.064,228.097,234.028,235.81,238.447,242.983,244.765,249.031,253.297,257.563,258.643,261.676,267.607,269.605,271.387,275.815,280.684,282.466,286.282,291.151,292.933,299.566,302.581,305.731,309.997,314.263,318.529,320.311,322.669,329.815,334.522,338.419,342.234,344.925,346.707,349.344,353.115,356.319,359.055,361.413,366.209,370.367,372.149,379.439,383.336,387.035,391.787,394.145,398.978,402.749,404.531,410.669,412.919,415.664,420.416,422.198,426.095,427.877,435.167,439.064,443.258,445.616,452.762,457.487,464.804,466.586,470.366,474.092,478.799,482.696,486.449,488.699,491.417,495.494,497.276,501.704,504.314,506.096,510.362,514.628,518.894,519.994,522.523" svgx:width="0.48,0.48,0.48,0.23,0.34,0.67,0.23,0.31,0.51,0.23,0.48,0.48,0.48,0.23,0.34,0.67,0.23,0.23,0.51,0.55,0.23,0.44,0.55,0.23,0.74,0.34,0.36,0.48,0.48,0.48,0.23,0.27,0.82,0.52,0.44,0.42,0.31,0.23,0.31,0.43,0.37,0.31,0.27,0.55,0.47,0.23,0.82,0.44,0.42,0.53,0.27,0.55,0.43,0.23,0.69,0.27,0.31,0.53,0.23,0.44,0.23,0.82,0.44,0.47,0.27,0.82,0.53,0.82,0.23,0.42,0.44,0.52,0.44,0.42,0.27,0.31,0.46,0.23,0.51,0.3,0.23,0.48,0.48,0.48,0.23,0.33,0.23" style="fill:rgb(0,0,0);font-family:MinionPro-Regular;font-size:9.0px;stroke:none;">192 °C to 100 °C, on an NI-500 impact testing machine with a maximum capacity of 500 J.</text>
   <text y="453.551" x="155.638,163.968,166.52,171.0,174.563,180.167,184.477,188.337,191.9,197.42,201.9,205.76,211.28,214.844,220.057,222.647,224.737,229.95,235.564,240.777,243.367,248.571,252.876,255.428,259.738,262.728" svgx:width="0.83,0.25,0.44,0.35,0.55,0.42,0.38,0.35,0.55,0.44,0.38,0.55,0.35,0.51,0.25,0.21,0.51,0.56,0.51,0.25,0.51,0.42,0.25,0.42,0.29,0.21" style="fill:rgb(0,0,0);font-family:Corbel-Bold;font-size:10.0px;stroke:none;">Microstructural analysis. </text>
   <text y="453.551" x="272.777,282.447,286.335,288.405,291.73,296.592,300.529,304.399,306.874,314.275,318.163,323.081,326.447,328.517,331.166,335.714,339.116,341.186,345.744,350.428,353.284,355.759,359.66,363.722,366.062,368.132,375.566,378.041,381.911,385.2,389.853,393.294,397.164,401.721,406.359,410.553,412.623,415.8,422.454,430.536,432.651,434.721,440.349,444.237,446.688,450.013,453.379,455.449,459.832,464.215,472.297,477.987,483.603,486.78,488.85,492.787,497.741,502.556,504.626,508.85,514.025,522.107,524.177,527.354,534.171,536.541,539.406,543.42,547.24,552.109,554.521" svgx:width="1.07,0.43,0.23,0.37,0.52,0.43,0.42,0.27,0.82,0.43,0.55,0.37,0.23,0.3,0.51,0.37,0.23,0.51,0.52,0.31,0.27,0.42,0.44,0.25,0.23,0.82,0.27,0.42,0.37,0.51,0.37,0.42,0.51,0.52,0.46,0.23,0.35,0.75,0.89,0.23,0.23,0.6,0.43,0.27,0.37,0.37,0.23,0.48,0.48,0.89,0.69,0.62,0.35,0.23,0.44,0.55,0.53,0.23,0.47,0.57,0.89,0.23,0.35,0.77,0.27,0.31,0.44,0.42,0.53,0.27,0.23" style="fill:rgb(0,0,0);font-family:MinionPro-Regular;font-size:9.0px;stroke:none;">The specimens for optical microscopy (OM, Zeiss 40MAT) and SEM (Hitachi </text>
   <text y="463.549" x="155.642,159.908,164.228,168.548,172.868,177.188,180.302,182.129,188.223,192.048,195.27,199.095,200.922,205.719,210.246,212.523,214.908,218.175,222.945,226.815,231.567,233.394,237.264,242.151,246.903,248.73,252.555,255.246,258.999,263.769,267.639,272.391,274.218,280.41,282.714,285.513,290.319,292.146,296.097,297.924,302.244,309.048,310.875,315.798,318.102,320.892,324.285,326.697,330.504,332.331,336.282,340.089,342.501,347.253" svgx:width="0.47,0.48,0.48,0.48,0.48,0.35,0.23,0.69,0.43,0.37,0.43,0.23,0.52,0.51,0.25,0.27,0.37,0.53,0.43,0.53,0.23,0.44,0.55,0.53,0.23,0.43,0.31,0.42,0.53,0.43,0.53,0.23,0.69,0.27,0.31,0.53,0.23,0.44,0.23,0.48,0.76,0.23,0.55,0.27,0.31,0.37,0.27,0.42,0.23,0.44,0.42,0.27,0.53,0.23" style="fill:rgb(0,0,0);font-family:MinionPro-Regular;font-size:9.0px;stroke:none;">S4300) were polished and etched with a 4% nitric acid </text>
   <text y="463.549" x="349.08" svgx:width="0.78" style="fill:rgb(0,0,0);font-family:EuclidSymbol;font-size:9.0px;stroke:none;">+</text>
   <text y="463.549" x="356.082,360.402,364.722,371.526,373.353,377.178,379.977,384.756,388.626,393.513,398.04,400.317,402.144,405.519,410.046,412.215,416.886,419.676,422.088,426.57,431.493,433.545,435.372,439.953,444.732,448.16,450.959,455.729,459.554,462.893,464.72,469.472,473.297,476.096,479.966,482.423,484.673,487.976,489.803,494.285,496.949,498.776,501.575,506.345,510.17,511.997,519.368,521.78,525.587,528.809,533.399,536.657,539.447,542.876,547.655,551.462" svgx:width="0.48,0.48,0.76,0.23,0.43,0.31,0.53,0.44,0.55,0.51,0.25,0.23,0.37,0.51,0.25,0.53,0.31,0.27,0.51,0.55,0.23,0.23,0.53,0.53,0.37,0.31,0.53,0.43,0.37,0.23,0.53,0.43,0.31,0.44,0.27,0.25,0.37,0.23,0.51,0.3,0.23,0.31,0.53,0.43,0.23,0.82,0.27,0.42,0.37,0.51,0.37,0.31,0.37,0.53,0.42,0.36" style="fill:rgb(0,0,0);font-family:MinionPro-Regular;font-size:9.0px;stroke:none;">96% ethanol solution. Further details of the microstruc-</text>
   <text y="473.548" x="155.642,158.419,163.324,166.668,170.615,172.883,179.098,183.045,186.389,190.336,192.604,195.948,199.966,204.184,208.184,212.303,214.701,218.694,223.567,225.835,230.151,232.712,236.785,239.053,244.291,249.704,253.984,260.721,262.989,266.229,271.112,276.35,279.54,281.808,288.68,293.608,297.6,302.474,305.395,309.468,311.736,316.182,320.623,325.069,327.337,333.652,336.078,338.999,343.931,346.199,352.783,357.387,360.731,365.65,367.986,372.243,375.672,377.94,384.515,388.508,393.516,398.232,401.472,403.74,407.733,412.742,417.615,419.883,425.558,430.796,438.936,441.204,444.444,451.317,453.742,456.663,460.74,464.615,469.543,472.081,474.349,481.369,485.815,490.256,494.702,497.938,500.116,502.384,506.645,511.565,515.556,519.489,522.023,529.48,533.427,538.4,541.825,544.093,546.798,551.401,554.74" svgx:width="0.31,0.53,0.37,0.43,0.23,0.69,0.43,0.37,0.43,0.23,0.37,0.43,0.46,0.43,0.44,0.25,0.43,0.53,0.23,0.46,0.27,0.44,0.23,0.57,0.59,0.47,0.74,0.23,0.35,0.53,0.57,0.34,0.23,0.75,0.53,0.44,0.55,0.31,0.44,0.23,0.48,0.48,0.48,0.23,0.69,0.27,0.31,0.53,0.23,0.74,0.51,0.37,0.53,0.25,0.46,0.37,0.23,0.74,0.44,0.55,0.51,0.35,0.23,0.44,0.55,0.53,0.23,0.62,0.57,0.89,0.23,0.35,0.77,0.27,0.31,0.44,0.42,0.53,0.27,0.23,0.77,0.48,0.48,0.48,0.35,0.23,0.23,0.47,0.52,0.43,0.42,0.27,0.82,0.43,0.55,0.37,0.23,0.3,0.51,0.37,0.23" style="fill:rgb(0,0,0);font-family:MinionPro-Regular;font-size:9.0px;stroke:none;">ture were revealed via EBSD (FEI Quanta 650 with Nordlys Nano) and TEM (Hitachi H800). Specimens for </text>
   <text y="483.547" x="155.642,160.772,166.078,170.25,176.883,178.836,182.721,187.621,192.391,194.344,199.915,205.045,213.078,215.031,221.137,224.98,228.217,232.055,234.008,238.63,241.867,245.71,250.484,254.369,257.605,261.489,266.259,268.212,271.025,275.849,279.085,283.59,288.387,292.675,297.499,299.452,303.277,307.774,312.503,316.613,320.456,325.222,328.026,330.456,334.952,339.862,343.872,346.167,348.12,352.778,357.598,361.608,363.899,367.121,369.484,373.323,376.086,378.039,381.842,384.137,388.021,391.905,394.709,397.945,402.553,405.77,410.582,415.123,417.414,419.813,423.095,427.919,430.344,435.209,439.439,441.392,443.818,448.759,450.712,453.525,458.31,462.148,464.101,467.491,472.032,474.216,478.9,481.704,484.134,488.63,493.571,495.524,500.02,502.702,504.655,508.989,515.811,517.764,522.575,526.414,529.65,533.418,538.282,540.577,545.073,548.48,550.91,554.717" svgx:width="0.57,0.59,0.47,0.74,0.23,0.44,0.55,0.53,0.23,0.62,0.57,0.89,0.23,0.69,0.43,0.37,0.43,0.23,0.52,0.37,0.43,0.52,0.44,0.37,0.43,0.53,0.23,0.31,0.53,0.37,0.51,0.53,0.47,0.53,0.23,0.42,0.51,0.55,0.46,0.43,0.55,0.31,0.27,0.51,0.55,0.44,0.25,0.23,0.53,0.53,0.44,0.25,0.36,0.26,0.43,0.31,0.23,0.43,0.25,0.43,0.42,0.31,0.37,0.51,0.36,0.52,0.51,0.25,0.27,0.37,0.53,0.27,0.55,0.47,0.23,0.27,0.55,0.23,0.31,0.53,0.43,0.23,0.37,0.51,0.25,0.53,0.31,0.27,0.51,0.55,0.23,0.51,0.3,0.23,0.48,0.76,0.23,0.52,0.43,0.37,0.42,0.53,0.25,0.51,0.37,0.27,0.42,0.23" style="fill:rgb(0,0,0);font-family:MinionPro-Regular;font-size:9.0px;stroke:none;">EBSD and TEM were prepared through conventional dual-jet electro-polishing in the solution of 8% perchloric </text>
   <text y="493.546" x="155.642,159.692,163.598,166.105,170.956" svgx:width="0.44,0.42,0.27,0.53,0.23" style="fill:rgb(0,0,0);font-family:MinionPro-Regular;font-size:9.0px;stroke:none;">acid </text>
   <text y="493.546" x="173.12" svgx:width="0.78" style="fill:rgb(0,0,0);font-family:EuclidSymbol;font-size:9.0px;stroke:none;">+</text>
   <text y="493.546" x="180.23,184.649,189.068,195.967,198.136,202.06,204.953,209.828,213.793,218.776,223.398,225.774,227.943,231.818,234.662,236.831,240.881,243.05,245.837,249.761,257.055,261.948,265.872,269.305,273.181,275.931,280.809,284.126,288.05,290.219,294.797,297.555" svgx:width="0.48,0.48,0.76,0.23,0.43,0.31,0.53,0.44,0.55,0.51,0.25,0.23,0.44,0.31,0.23,0.44,0.23,0.31,0.43,0.82,0.52,0.43,0.37,0.44,0.31,0.53,0.37,0.43,0.23,0.51,0.3,0.23" style="fill:rgb(0,0,0);font-family:MinionPro-Regular;font-size:9.0px;stroke:none;">92% ethanol at a temperature of </text>
   <text y="493.546" x="299.724" svgx:width="0.78" style="fill:rgb(0,0,0);font-family:EuclidSymbol;font-size:9.0px;stroke:none;">−</text>
   <text y="493.546" x="306.815,311.234,315.653,316.868,320.054,326.134,328.285,330.454,333.474,338.492,340.661,344.711,349.557,354.408,356.808,359.693,362.204,366.781,371.803,373.954,376.123,380.475,383.913,387.878,390.385,395.407,397.576,402.323,406.91,411.788,416.77,421.644,425.609,429.305,433.535,435.704,439.174,443.098,447.449,450.767,454.691,459.002,462.876,465.762,468.273,472.85,477.872,480.041,484.619,487.377,489.546,493.43,495.806,499.726,507.156,511.08,515.927,518.771,522.173,524.342,528.307,533.587,537.511,540.944,543.113,546.008,550.873,554.697" svgx:width="0.48,0.48,0.23,0.34,0.67,0.23,0.23,0.34,0.55,0.23,0.44,0.53,0.53,0.27,0.31,0.27,0.51,0.55,0.23,0.23,0.47,0.37,0.44,0.27,0.55,0.23,0.51,0.51,0.53,0.55,0.53,0.44,0.37,0.46,0.23,0.37,0.43,0.47,0.37,0.43,0.47,0.44,0.31,0.27,0.51,0.55,0.23,0.51,0.3,0.23,0.43,0.25,0.43,0.82,0.43,0.55,0.31,0.37,0.23,0.44,0.58,0.43,0.37,0.23,0.31,0.53,0.43,0.23" style="fill:rgb(0,0,0);font-family:MinionPro-Regular;font-size:9.0px;stroke:none;">25 °C. In addition, grain boundary segregation of elements after the </text>
   <text y="503.545" x="155.651,158.909,161.6,165.425,170.141,173.345,177.152,181.822,186.349,188.626,191.038,195.889,200.101,201.937,206.707,210.586,214.366,217.111,218.947,221.737,224.959,228.838,232.618,235.408,242.743,246.568,251.32,254.065,255.901,262.066,265.99,269.293,271.129,273.541,278.257,282.352,286.177,289.435,292.225,294.637,298.849,302.629,305.32,309.19,313.942,315.778,319.972,322.411,326.362,328.198,334.417,339.529,343.795,345.631,348.745,355.315,357.529,361.696,365.647,369.454,372.658,377.68,384.574,387.643,390.847,395.167,399.487,403.807,406.921" svgx:width="0.37,0.31,0.43,0.52,0.36,0.42,0.51,0.51,0.25,0.27,0.55,0.47,0.23,0.53,0.43,0.44,0.31,0.23,0.31,0.37,0.43,0.44,0.31,0.82,0.43,0.55,0.31,0.23,0.69,0.44,0.37,0.23,0.27,0.55,0.46,0.43,0.37,0.31,0.27,0.47,0.44,0.31,0.43,0.53,0.23,0.46,0.27,0.44,0.23,0.69,0.57,0.47,0.23,0.35,0.74,0.25,0.46,0.44,0.42,0.36,0.56,0.77,0.34,0.36,0.48,0.48,0.48,0.35,0.23" style="fill:rgb(0,0,0);font-family:MinionPro-Regular;font-size:9.0px;stroke:none;">step-cooling heat treatment was investigated via AES (Ulvac-PHI-700).</text>
   <text y="524.101" x="155.638,162.33,167.973,172.637,178.632,181.404,185.573" svgx:width="0.63,0.51,0.42,0.55,0.25,0.38,0.42" style="fill:rgb(0,0,0);font-family:Corbel-Bold;font-size:11.0px;stroke:none;">Results</text>
   <text y="534.101" x="155.638,163.978,166.548,171.038,174.618,180.238,184.558,188.434,192.014,197.544,202.034,205.91,211.44,215.02,220.23,222.37,227.99,231.35,233.49,237.366,243.046,248.256,250.153,256.003,262.653,268.009,273.359,278.715,285.515,288.556,291.563,296.919,304.279,306.419,310.739,314.615,319.825,325.035,327.642,329.782,332.352,337.982,340.122,343.998,349.678,354.888,357.028,362.608,368.138,373.348,378.978,383.468,389.148,394.358,400.018,402.158,406.478,410.354,415.584,419.46,424.67,427.688" svgx:width="0.83,0.25,0.44,0.35,0.55,0.42,0.38,0.35,0.55,0.44,0.38,0.55,0.35,0.51,0.21,0.55,0.33,0.21,0.38,0.56,0.51,0.21,0.58,0.66,0.53,0.53,0.53,0.67,0.35,0.29,0.53,0.73,0.21,0.42,0.38,0.51,0.51,0.25,0.21,0.25,0.56,0.21,0.38,0.56,0.51,0.21,0.55,0.55,0.51,0.56,0.44,0.56,0.51,0.56,0.21,0.42,0.38,0.51,0.38,0.51,0.29,0.21" style="fill:rgb(0,0,0);font-family:Corbel-Bold;font-size:10.0px;stroke:none;">Microstructure of the SA508Gr.4N steel in the quenched state. </text>
   <text y="534.101" x="437.768,442.61,445.103,449.396,454.256,457.559,461.465" svgx:width="0.53,0.27,0.47,0.53,0.37,0.43,0.23" style="fill:rgb(0,0,0);font-family:MinionPro-Regular;font-size:9.0px;stroke:none;">Figure </text>
   <text y="534.101" x="463.589" svgx:width="0.48" style="fill:rgb(0,0,255);font-family:MinionPro-Regular;font-size:9.0px;stroke:none;">3</text>
   <text y="534.101" x="467.99,470.114,473.462,478.314,482.841,489.087,492.471,494.595,497.475,502.327,506.233,508.357,515.809,518.302,522.19,525.493,530.164,534.503,537.923,541.784,546.519,551.334,554.637" svgx:width="0.23,0.37,0.53,0.51,0.69,0.37,0.23,0.31,0.53,0.43,0.23,0.82,0.27,0.42,0.37,0.51,0.47,0.37,0.44,0.52,0.53,0.37,0.23" style="fill:rgb(0,0,0);font-family:MinionPro-Regular;font-size:9.0px;stroke:none;"> shows the micrographs </text>
   <text y="544.1" x="155.636,160.172,162.89,164.915,169.235,175.508,179.882,184.256,188.63,195.047,197.873,199.979,204.353,211.094,213.119,216.43,219.175,223.099,226.941,229.245,232.602,234.627,237.093,242.07,244.095,246.948,251.772,255.651,257.676,261.654,265.011,268.269,272.832,277.665,281.544,286.485,290.292,295.116,299.039,303.845,305.87,309.181,312.034,315.868,318.612,322.437,324.543,326.568,332.841,334.866,339.429,344.262,348.141,353.081,356.888,361.748,364.214,369.119,373.385,375.41,378.803,382.637,385.381,389.26,391.285,395.82,398.538,400.563,404.937,409.311,410.498,413.639,419.678,422.711,430.136,432.602,437.579,439.604,443.815,446.281,450.123,452.454,457.233,460.59,462.615,466.539,471.516,473.541,477.591,479.922,487.311,491.955,495.266,498.065,500.09,502.447,506.281,509.134,513.994,516.019,523.417,527.341,530.823,533.568,537.447,542.352,545.709,548.066,550.811,554.636" svgx:width="0.51,0.3,0.23,0.47,0.69,0.48,0.48,0.48,0.71,0.37,0.23,0.48,0.74,0.23,0.37,0.31,0.43,0.43,0.25,0.37,0.23,0.27,0.55,0.23,0.31,0.53,0.43,0.23,0.44,0.37,0.36,0.51,0.53,0.43,0.55,0.42,0.53,0.43,0.53,0.23,0.37,0.31,0.44,0.31,0.43,0.23,0.23,0.69,0.23,0.51,0.53,0.43,0.55,0.42,0.53,0.27,0.55,0.47,0.23,0.37,0.44,0.31,0.43,0.23,0.51,0.3,0.23,0.48,0.48,0.23,0.34,0.67,0.33,0.82,0.27,0.55,0.23,0.46,0.27,0.43,0.25,0.53,0.37,0.23,0.44,0.55,0.23,0.44,0.25,0.82,0.51,0.37,0.31,0.23,0.25,0.44,0.31,0.53,0.23,0.82,0.44,0.37,0.31,0.43,0.55,0.37,0.27,0.31,0.43,0.23" style="fill:rgb(0,0,0);font-family:MinionPro-Regular;font-size:9.0px;stroke:none;">of SA508Gr.4N steels in the as-quenched state. A quenching rate of 60 °C/min yields an almost lath martensite </text>
   <text y="554.099" x="155.636,163.007,165.419,169.226,172.448,177.038,180.296,183.085,186.514,191.293,195.163,197.818,202.597,205.819,209.644,211.48,214.594,219.355,221.767,226.006,228.058" svgx:width="0.82,0.27,0.42,0.37,0.51,0.37,0.31,0.37,0.53,0.42,0.31,0.53,0.37,0.43,0.23,0.35,0.53,0.27,0.47,0.23,0.23" style="fill:rgb(0,0,0);font-family:MinionPro-Regular;font-size:9.0px;stroke:none;">microstructure (Fig. </text>
   <text y="554.099" x="229.895,234.215" svgx:width="0.48,0.44" style="fill:rgb(0,0,255);font-family:MinionPro-Regular;font-size:9.0px;stroke:none;">3a</text>
   <text y="554.099" x="238.166,241.28,243.116,249.307,251.612,254.41,259.216,261.052,263.356,267.136,269.935,274.741,276.577,282.769,285.181,289.824,292.624,297.358,300.661,302.497,305.836,309.706,314.557,318.814,321.226,326.077,330.289,332.125,334.879,338.101,342.583,349.954,351.79,356.11,360.43,361.574,366.497,373.868,375.704,378.394,382.984,384.82,389.14,393.46,397.78,398.915,403.838,411.209,413.045,416.159,420.92,423.332,427.571,429.623" svgx:width="0.35,0.23,0.69,0.27,0.31,0.53,0.23,0.25,0.44,0.31,0.53,0.23,0.69,0.27,0.53,0.31,0.53,0.37,0.23,0.37,0.44,0.55,0.47,0.27,0.55,0.47,0.23,0.3,0.37,0.51,0.82,0.23,0.48,0.48,0.23,0.55,0.82,0.23,0.31,0.51,0.23,0.48,0.48,0.48,0.23,0.55,0.82,0.23,0.35,0.53,0.27,0.47,0.23,0.23" style="fill:rgb(0,0,0);font-family:MinionPro-Regular;font-size:9.0px;stroke:none;">) with lath widths ranging from 60 nm to 340 nm (Fig. </text>
   <text y="554.099" x="431.468,435.788" svgx:width="0.48,0.43" style="fill:rgb(0,0,255);font-family:MinionPro-Regular;font-size:9.0px;stroke:none;">3e</text>
   <text y="554.099" x="439.613,442.727" svgx:width="0.35,0.23" style="fill:rgb(0,0,0);font-family:MinionPro-Regular;font-size:9.0px;stroke:none;">).</text>
   <text y="564.098" x="167.642,172.629,176.697,180.568,185.068,189.01,191.872,195.292,197.542,203.852,206.273,209.19,214.113,216.363,221.232,223.761,228.846,232.788,236.127,240.069,244.938,247.8,250.05,253.992,258.357,261.166,265.108,270.077,273.497,276.026,280.625,285.665,287.915,292.784,295.313,298.652,302.64,306.627,309.534,312.063,316.662,321.63,325.05,327.3,332.088,336.012,339.999,344.895,348.351,350.601,356.91,359.332,362.248,367.171,369.7,374.74,376.99,379.907,384.795,388.737,390.987,395.712,399.223,401.752,406.352,409.808,412.058,415.955,420.825,424.2,427.009,430.951,435.991,438.412,441.221,445.163,447.413,451.787,455.243,459.231,461.76,466.728,470.148,472.317,474.567,478.555,483.559,488.428,490.678,493.594,498.482,502.424,504.674,509.301,511.695,516.483,520.354,524.935,528.355,530.605,536.914,539.336,542.252,547.175,549.704,554.627" svgx:width="0.56,0.44,0.42,0.5,0.43,0.31,0.37,0.23,0.69,0.27,0.31,0.53,0.23,0.53,0.27,0.56,0.43,0.37,0.43,0.55,0.31,0.23,0.43,0.47,0.31,0.43,0.55,0.37,0.27,0.51,0.55,0.23,0.53,0.27,0.37,0.43,0.42,0.31,0.27,0.51,0.55,0.37,0.23,0.51,0.42,0.42,0.53,0.37,0.23,0.69,0.27,0.31,0.53,0.27,0.55,0.23,0.31,0.53,0.43,0.23,0.52,0.37,0.27,0.51,0.37,0.23,0.44,0.53,0.37,0.31,0.43,0.55,0.27,0.31,0.43,0.23,0.47,0.37,0.44,0.27,0.55,0.37,0.23,0.23,0.44,0.55,0.53,0.23,0.31,0.53,0.43,0.23,0.51,0.25,0.51,0.42,0.5,0.37,0.23,0.69,0.27,0.31,0.53,0.27,0.55,0.23" style="fill:rgb(0,0,0);font-family:MinionPro-Regular;font-size:9.0px;stroke:none;">Packets with different extension directions occur within the prior austenite grains, and the blocks within </text>
   <text y="574.097" x="155.645,158.474,163.273,167.125,169.096,172.483,176.382,183.747,187.599,189.57,194.36,198.338,202.12,206.532,210.384,213.156,216.486,218.457,224.579,228.431,231.683,235.535,237.506,241.315,245.961,250.599,253.851,258.326,262.601,265.04,272.414,276.224,278.944,282.762,285.006,289.164,291.135,295.926,299.824,303.19,307.216,309.567,311.871,315.69,317.994,319.965,323.106,327.894,330.333,334.6,336.679" svgx:width="0.31,0.53,0.43,0.23,0.37,0.44,0.82,0.43,0.23,0.52,0.44,0.42,0.5,0.43,0.31,0.37,0.23,0.69,0.43,0.37,0.43,0.23,0.44,0.52,0.52,0.37,0.51,0.47,0.27,0.82,0.44,0.31,0.43,0.25,0.46,0.23,0.52,0.44,0.37,0.44,0.25,0.25,0.43,0.25,0.23,0.35,0.53,0.27,0.47,0.23,0.23" style="fill:rgb(0,0,0);font-family:MinionPro-Regular;font-size:9.0px;stroke:none;">the same packets were approximately parallel (Fig. </text>
   <text y="574.097" x="338.696,343.043" svgx:width="0.48,0.42" style="fill:rgb(0,0,255);font-family:MinionPro-Regular;font-size:9.0px;stroke:none;">3c</text>
   <text y="574.097" x="346.877,350.018,352.097,354.068,360.314,362.285,366.824,371.63,375.482,380.399,384.181,389.014,391.453,396.334,400.573,402.544,405.91,409.719,412.44,416.292,418.263,422.774,425.465,427.436,431.783,433.862,438.209,439.397,442.511,448.523,451.529,458.927,461.366,466.316,468.287,472.475,474.914,478.733,481.037,485.791,489.121,491.092,495.07,497.041,501.328,504.694,508.594,513.376,518.229,520.562,524.462,527.828,529.799,534.446,538.344,540.783,545.733,548.067,550.787,554.612" svgx:width="0.35,0.23,0.23,0.69,0.23,0.51,0.53,0.43,0.55,0.42,0.53,0.27,0.55,0.47,0.23,0.37,0.44,0.31,0.43,0.23,0.51,0.3,0.23,0.48,0.23,0.48,0.23,0.34,0.67,0.33,0.82,0.27,0.55,0.23,0.46,0.27,0.43,0.25,0.53,0.37,0.23,0.44,0.23,0.47,0.37,0.44,0.55,0.53,0.25,0.44,0.37,0.23,0.51,0.44,0.27,0.55,0.27,0.31,0.43,0.23" style="fill:rgb(0,0,0);font-family:MinionPro-Regular;font-size:9.0px;stroke:none;">). A quenching rate of 4.4 °C/min yields a granular bainite </text>
   <text y="584.096" x="155.645,158.89,161.666,165.083,169.848,173.705,176.346,181.116,184.325,188.136,189.86,193.653,198.123,205.309,210.093,214.674,218.035,221.892,226.63,228.354,232.822,235.477,237.2,241.142,242.864,247.469,251.325,253.728,258.638,260.928,263.705,266.108,269.919,271.643,274.212,278.024,281.404,284.784,287.074,289.752,293.568,295.29,302.622,306.388,309.165,312.544,314.947,319.182,320.905,324.762,329.636,334.375,336.098,338.47,341.723,344.014,347.871,352.745,357.457,360.746,362.47,366.938,369.589,371.312,378.643,382.5,385.916,388.593,392.409,397.247,400.536,402.828,405.505,409.317,411.04,414.897,419.771,424.51,426.233,430.0,434.739,437.984,440.661,444.477,449.387,451.677,454.356,458.167,459.891,462.991,470.997,474.187,480.397,482.121,484.492,487.746,490.036,493.894,498.767,503.51,505.549,507.272,510.634,514.49,518.302,520.025,524.773,527.176,531.401,533.44" svgx:width="0.37,0.31,0.37,0.53,0.42,0.31,0.53,0.37,0.43,0.23,0.42,0.51,0.82,0.52,0.51,0.37,0.43,0.53,0.23,0.51,0.3,0.23,0.44,0.23,0.51,0.44,0.27,0.55,0.27,0.31,0.27,0.43,0.23,0.3,0.43,0.37,0.37,0.27,0.31,0.43,0.23,0.82,0.44,0.31,0.37,0.27,0.47,0.23,0.44,0.55,0.53,0.23,0.27,0.37,0.25,0.44,0.55,0.53,0.37,0.23,0.51,0.3,0.23,0.82,0.44,0.37,0.31,0.43,0.55,0.37,0.27,0.31,0.43,0.23,0.44,0.55,0.53,0.23,0.44,0.53,0.37,0.31,0.43,0.55,0.27,0.31,0.43,0.23,0.35,0.89,0.36,0.69,0.23,0.27,0.37,0.25,0.44,0.55,0.53,0.23,0.23,0.37,0.43,0.43,0.23,0.53,0.27,0.47,0.23,0.23" style="fill:rgb(0,0,0);font-family:MinionPro-Regular;font-size:9.0px;stroke:none;">structure composed of a bainitie ferrite matrix and islands of martensite and austenite (M-A island; see Fig. </text>
   <text y="584.096" x="535.112,539.419,544.104,546.143" svgx:width="0.48,0.53,0.23,0.3" style="fill:rgb(0,0,255);font-family:MinionPro-Regular;font-size:9.0px;stroke:none;">3d,f</text>
   <text y="584.096" x="549.494,552.595,554.647" svgx:width="0.35,0.23,0.23" style="fill:rgb(0,0,0);font-family:MinionPro-Regular;font-size:9.0px;stroke:none;">). </text>
   <text y="594.095" x="155.645,165.329,167.758,171.106,173.104,180.52,182.977,186.829,190.096,194.731,198.034,200.868,204.342,209.166,213.081,215.781,220.605,223.872,227.742,229.74,233.592,238.119,243.014,246.362,248.792,252.094,254.884,258.232,260.23,264.756,267.465,269.463,272.279,278.417,283.052,285.05,287.866,292.042,296.883,300.753,304.101,306.099,310.626,313.335,315.333,323.397,326.646,332.91,334.908,337.338,340.65,342.998,346.913,351.845,356.614,359.962,361.96,365.119,368.538,372.453,376.323,378.321,383.127,385.584,389.868,391.965" svgx:width="1.07,0.27,0.37,0.23,0.82,0.27,0.42,0.37,0.51,0.37,0.31,0.37,0.53,0.42,0.31,0.53,0.37,0.43,0.23,0.42,0.51,0.55,0.37,0.27,0.37,0.31,0.37,0.23,0.51,0.3,0.23,0.31,0.69,0.51,0.23,0.31,0.46,0.52,0.43,0.37,0.23,0.51,0.3,0.23,0.89,0.36,0.69,0.23,0.27,0.37,0.25,0.44,0.55,0.53,0.37,0.23,0.35,0.37,0.43,0.43,0.23,0.53,0.27,0.47,0.23,0.23" style="fill:rgb(0,0,0);font-family:MinionPro-Regular;font-size:9.0px;stroke:none;">This microstructure consists of two types of M-A islands (see Fig. </text>
   <text y="594.095" x="393.929,398.294" svgx:width="0.48,0.53" style="fill:rgb(0,0,255);font-family:MinionPro-Regular;font-size:9.0px;stroke:none;">3d</text>
   <text y="594.095" x="403.091,406.25,408.347,410.345,415.285,419.2,426.58,430.413,432.672,437.127,439.224,441.222,445.056,447.378,451.905,456.801,461.058,464.883,467.619,471.534,476.331,478.328,480.758,484.07,486.419,490.333,495.265,500.035,503.383,505.381,510.178,512.608,515.911,518.745,522.183,524.603,529.121,533.837,536.572,540.487,545.284,547.282,549.739,554.662" svgx:width="0.35,0.23,0.23,0.55,0.44,0.82,0.43,0.25,0.46,0.23,0.23,0.43,0.25,0.51,0.55,0.47,0.44,0.31,0.43,0.53,0.23,0.27,0.37,0.25,0.44,0.55,0.53,0.37,0.23,0.53,0.27,0.37,0.31,0.37,0.27,0.51,0.53,0.31,0.43,0.53,0.23,0.27,0.55,0.23" style="fill:rgb(0,0,0);font-family:MinionPro-Regular;font-size:9.0px;stroke:none;">), namely: elongated islands distributed in </text>
   <text y="604.094" x="155.645,158.444,163.215,167.04,168.984,173.601,177.472,179.884,184.807,187.111,189.901,192.313,196.12,198.064,200.647,204.472,207.865,211.258,213.563,216.254,220.079,222.023,229.368,233.148,235.938,239.332,241.744,245.992,248.044,249.988,253.858,258.746,263.498,265.442,269.952,272.229,276.9,280.653,285.073,289.204,291.148,293.534,296.801,299.105,302.975,307.862,312.588,315.891,317.835,320.112,324.784,328.618,332.398,335.09,338.96,343.712,345.656,350.265,353.658,356.07,363.415,367.285,370.679,373.136,375.35,379.481,381.425,385.205,387.95,389.894,392.694,397.464,401.289,403.233,405.645,410.397,413.088,416.913,420.306,422.97,426.921,430.728,434.553,436.497,441.151,444.976,447.748,453.842,457.712,461.537,466.46,468.404,471.203,475.973,479.798,481.742,489.086,492.866,495.657,499.049,501.461,505.709,507.653,511.523,516.41,521.162,523.106,525.905,530.676,534.501,536.445,541.053,544.446,546.858,551.34,554.679" svgx:width="0.31,0.53,0.43,0.23,0.51,0.44,0.27,0.55,0.27,0.31,0.27,0.42,0.23,0.3,0.43,0.37,0.37,0.27,0.31,0.43,0.23,0.82,0.44,0.31,0.37,0.27,0.47,0.23,0.23,0.44,0.55,0.53,0.23,0.51,0.25,0.51,0.42,0.5,0.46,0.23,0.27,0.37,0.25,0.44,0.55,0.53,0.37,0.23,0.25,0.51,0.42,0.44,0.31,0.43,0.53,0.23,0.52,0.37,0.27,0.82,0.44,0.37,0.27,0.25,0.46,0.23,0.44,0.31,0.23,0.31,0.53,0.43,0.23,0.27,0.55,0.31,0.43,0.37,0.3,0.44,0.42,0.43,0.23,0.51,0.43,0.31,0.69,0.43,0.43,0.55,0.23,0.31,0.53,0.43,0.23,0.82,0.44,0.31,0.37,0.27,0.47,0.23,0.44,0.55,0.53,0.23,0.31,0.53,0.43,0.23,0.52,0.37,0.27,0.51,0.37,0.23" style="fill:rgb(0,0,0);font-family:MinionPro-Regular;font-size:9.0px;stroke:none;">the bainitic ferrite matrix, and blocky islands located primarily at the interface between the matrix and the prior </text>
   <text y="614.093" x="155.645,159.444,164.215,167.492,170.202,174.045,178.986,181.309,184.019,187.862,189.824,194.099,197.456,201.346,203.775,208.716,210.678,215.35,219.86,224.657,229.563,234.361,238.25,241.662,244.092,247.935,251.256,253.326,255.288,264.91,268.753,270.715,278.078,281.967,285.414,288.124,291.967,296.837,300.158,302.481,305.191,309.034,310.996,317.207,319.531,322.349,327.173,329.603,334.544,336.506,339.324,344.113,347.956,349.918,357.954,361.177,367.414,369.376,371.779,375.065,377.388,381.277,386.183,390.927,394.248,396.21,400.035,404.536,409.406,412.727,415.131,418.408,421.171,424.492,426.454,430.955,433.637,435.599,439.442,443.708,446.516,449.757,453.6,460.953,464.761,466.994,471.143,473.105,477.938,482.844,486.687,488.649,491.44,497.651,500.081,504.951" svgx:width="0.44,0.53,0.37,0.31,0.43,0.55,0.27,0.31,0.43,0.23,0.47,0.37,0.44,0.27,0.55,0.23,0.51,0.51,0.53,0.55,0.53,0.44,0.37,0.27,0.43,0.37,0.23,0.23,1.07,0.43,0.23,0.82,0.44,0.37,0.31,0.43,0.55,0.37,0.27,0.31,0.43,0.23,0.69,0.27,0.31,0.53,0.27,0.55,0.23,0.31,0.53,0.43,0.23,0.89,0.36,0.69,0.23,0.27,0.37,0.25,0.44,0.55,0.53,0.37,0.23,0.42,0.51,0.55,0.37,0.27,0.37,0.31,0.37,0.23,0.51,0.3,0.23,0.43,0.47,0.31,0.37,0.43,0.82,0.43,0.25,0.46,0.23,0.54,0.55,0.43,0.23,0.31,0.69,0.27,0.55,0.37" style="fill:rgb(0,0,0);font-family:MinionPro-Regular;font-size:9.0px;stroke:none;">austenite grain boundaries. The martensite within the M-A islands consists of extremely fine twins</text>
   <text y="611.041" x="508.266,511.086" svgx:width="0.48,0.48" style="fill:rgb(0,0,255);font-family:MinionPro-Regular;font-size:5.85px;stroke:none;">18</text>
   <text y="614.101" x="513.907,515.977,517.939,525.742,530.243,533.484,537.373,541.838,545.952,549.795,552.586,554.638" svgx:width="0.23,0.23,0.89,0.51,0.37,0.43,0.51,0.46,0.43,0.37,0.23,0.23" style="fill:rgb(0,0,0);font-family:MinionPro-Regular;font-size:9.0px;stroke:none;">. Moreover, </text>
   <text y="624.1" x="155.635,158.434,163.204,167.029,168.937,171.322,174.589,176.893,180.763,185.65,190.402,192.31,194.695,197.998,199.906,204.685,208.555,211.777,216.529,220.354,223.693,225.601,228.4,233.179,237.049,241.972,243.88,246.678,251.448,255.273,257.181,259.764,263.589,266.982,270.374,272.678,275.369,279.194,281.102,288.446,292.226,295.016,298.409,300.821,305.069,307.121,309.029,312.899,317.786,322.538,324.446,327.11,331.061,334.868,337.324,339.601,341.905,344.704,348.484,351.274,353.686,358.537,362.749,364.657,369.409,373.207,377.86,382.342,387.229,391.981,394.393,399.244,403.483,405.535,407.443,411.25,414.589,418.54,422.292,426.792,429.204,434.055,438.294,440.346,442.254,446.125,451.012,455.764,457.672,461.479,464.818,468.769,472.522,476.986,478.894,481.306,486.229,488.533,491.323,493.761,497.541,500.331,502.743,507.225,512.148,514.2,516.108,519.942,523.812,528.735,530.643,532.92,536.799,540.75,545.502,547.41,550.101,554.691" svgx:width="0.31,0.53,0.43,0.23,0.27,0.37,0.25,0.44,0.55,0.53,0.23,0.27,0.37,0.23,0.53,0.44,0.37,0.53,0.43,0.37,0.23,0.31,0.53,0.44,0.55,0.23,0.31,0.53,0.43,0.23,0.3,0.43,0.37,0.37,0.27,0.31,0.43,0.23,0.82,0.44,0.31,0.37,0.27,0.47,0.23,0.23,0.44,0.55,0.53,0.23,0.3,0.44,0.42,0.27,0.25,0.27,0.31,0.44,0.31,0.27,0.55,0.47,0.23,0.53,0.43,0.51,0.51,0.55,0.53,0.27,0.55,0.47,0.23,0.23,0.42,0.37,0.44,0.42,0.5,0.27,0.55,0.47,0.23,0.23,0.44,0.55,0.53,0.23,0.42,0.37,0.44,0.42,0.5,0.23,0.27,0.55,0.27,0.31,0.27,0.44,0.31,0.27,0.51,0.55,0.23,0.23,0.42,0.44,0.55,0.23,0.25,0.43,0.44,0.53,0.23,0.31,0.51,0.23" style="fill:rgb(0,0,0);font-family:MinionPro-Regular;font-size:9.0px;stroke:none;">the island is harder than the ferrite matrix, and facilitating debonding, cracking, and crack initiation, can lead to </text>
   <text y="634.099" x="155.635,159.586,161.422,166.174,170.044,173.851,177.073,180.951,184.875,188.25,192.075,193.911,196.323,201.246,203.082,205.881,210.651,214.476,216.312,219.003,223.494,228.273,232.548,237.354,242.241,246.066,249.324,252.627,254.463,258.945,261.609,263.445,266.244,271.014,274.839,276.675,279.933,282.624,286.494,290.283" svgx:width="0.44,0.23,0.53,0.43,0.42,0.37,0.43,0.44,0.37,0.43,0.23,0.27,0.55,0.23,0.31,0.53,0.43,0.23,0.31,0.51,0.53,0.47,0.53,0.55,0.43,0.37,0.37,0.23,0.51,0.3,0.23,0.31,0.53,0.43,0.23,0.37,0.31,0.43,0.43,0.25" style="fill:rgb(0,0,0);font-family:MinionPro-Regular;font-size:9.0px;stroke:none;">a decrease in the toughness of the steel</text>
   <text y="631.041" x="292.58,295.388" svgx:width="0.48,0.48" style="fill:rgb(0,0,255);font-family:MinionPro-Regular;font-size:5.85px;stroke:none;">19</text>
   <text y="634.101" x="298.196" svgx:width="0.23" style="fill:rgb(0,0,0);font-family:MinionPro-Regular;font-size:9.0px;stroke:none;">.</text>
   <text y="654.652" x="155.638,161.528,165.018,168.508,173.848,178.468,182.476,185.079,190.829,194.319,196.922,205.652,208.352,212.972,216.682,222.432,226.882,230.89,234.6,240.26,244.88,248.888,254.548,258.258,263.598,266.201,271.951,277.711,280.314,289.044,294.384,299.004,304.814,310.174,315.934,318.634,323.254,328.614,331.353,333.956,339.666,343.376,349.126,354.836,360.176,363.886,367.894,370.594,375.934,380.384,383.588" svgx:width="0.57,0.33,0.33,0.51,0.44,0.38,0.21,0.55,0.33,0.21,0.85,0.25,0.44,0.35,0.55,0.42,0.38,0.35,0.55,0.44,0.38,0.55,0.35,0.51,0.21,0.55,0.56,0.21,0.85,0.51,0.44,0.56,0.51,0.56,0.25,0.44,0.51,0.25,0.21,0.55,0.35,0.55,0.55,0.51,0.35,0.38,0.25,0.51,0.42,0.29,0.21" style="fill:rgb(0,0,0);font-family:Corbel-Bold;font-size:10.0px;stroke:none;">Effect of microstructure on mechanical properties. </text>
   <text y="654.652" x="393.801,398.738,402.829,407.55,410.039,414.079" svgx:width="0.62,0.44,0.51,0.25,0.43,0.23" style="fill:rgb(0,0,0);font-family:MinionPro-Regular;font-size:9.0px;stroke:none;">Table </text>
   <text y="654.652" x="416.661" svgx:width="0.48" style="fill:rgb(0,0,255);font-family:MinionPro-Regular;font-size:9.0px;stroke:none;">3</text>
   <text y="654.652" x="421.197,423.78,427.258,432.241,436.898,443.279,446.794,449.377,452.388,457.37,461.411,463.994,466.897,470.938,476.0,479.52,482.188,484.677,488.717,491.301,496.121,499.555,504.258,509.267,513.304,516.945,519.947,522.575,526.611,530.13,532.713,537.408,540.288,542.871,545.882,550.863,554.688" svgx:width="0.23,0.37,0.53,0.51,0.69,0.37,0.23,0.31,0.53,0.43,0.23,0.31,0.43,0.55,0.37,0.27,0.25,0.43,0.23,0.52,0.37,0.51,0.52,0.43,0.37,0.31,0.27,0.43,0.37,0.23,0.51,0.3,0.23,0.31,0.53,0.43,0.23" style="fill:rgb(0,0,0);font-family:MinionPro-Regular;font-size:9.0px;stroke:none;"> shows the tensile properties of the </text>
   <text y="664.651" x="155.643,159.927,166.164,170.502,174.84,179.178,185.556,188.343,190.413,194.751,195.873,202.578,204.531,207.804,210.509,214.395,218.198,220.493,222.446,224.876,229.817,231.77,234.584,239.37,243.213,245.166,249.689,254.486,258.329,263.231,267.0,271.785,275.669,280.439,282.392,286.278,291.179,295.949,297.902,300.608,304.451,311.666,316.478,320.321,323.558,327.443,332.213,334.166,337.298,343.964,349.535,352.667,354.62,357.893,360.707,364.502,367.208,371.051,373.004,376.889,381.791,386.561,388.514,391.328,396.113,399.956,401.909,405.794,410.993,414.836,418.193,420.146,423.418,426.124,429.967,434.701,437.923,441.748,446.435,450.977,453.272,455.702,460.568,464.798,466.751,471.536,475.43,479.225,481.988,483.941,486.746,489.984,493.877,497.672,500.478,507.827,511.67,516.436,519.199,521.152,524.284,530.951,536.014,539.236,543.52,545.59,551.593,554.707" svgx:width="0.47,0.69,0.48,0.48,0.48,0.71,0.37,0.23,0.48,0.23,0.74,0.23,0.37,0.31,0.43,0.43,0.25,0.23,0.27,0.55,0.23,0.31,0.53,0.43,0.23,0.51,0.53,0.43,0.55,0.42,0.53,0.43,0.53,0.23,0.44,0.55,0.53,0.23,0.31,0.43,0.82,0.52,0.43,0.37,0.43,0.53,0.23,0.35,0.75,0.62,0.35,0.23,0.37,0.31,0.44,0.31,0.43,0.23,0.44,0.55,0.53,0.23,0.31,0.53,0.43,0.23,0.44,0.58,0.43,0.37,0.23,0.37,0.31,0.43,0.52,0.36,0.42,0.51,0.51,0.25,0.27,0.55,0.47,0.23,0.53,0.43,0.44,0.31,0.23,0.31,0.37,0.43,0.44,0.31,0.82,0.43,0.55,0.31,0.23,0.35,0.75,0.62,0.36,0.47,0.23,0.67,0.35,0.23" style="fill:rgb(0,0,0);font-family:MinionPro-Regular;font-size:9.0px;stroke:none;">SA508Gr.4 N steel in the quenched and tempered (QT) state and the after step-cooling heat treatment (QT-S.C) </text>
   <text y="674.65" x="155.643,158.941,161.781,165.601,168.332,172.143,174.236,176.216,181.152,187.286,191.916,193.896,196.628,200.492,203.791,206.576,209.92,211.9,218.033,221.899,225.16,229.026,231.006,234.88,238.79,242.224,245.656,248.109,252.019,256.812,258.792,263.323,268.035,270.82,272.8,275.424,279.945,283.325,285.305,289.224,293.216,297.009,301.856,303.836,308.484,311.747,316.458,320.305,324.171,327.469,330.812,332.904,334.884,339.515,344.037,347.417,349.397,354.09,358.622,361.46,366.307,368.287,371.584,374.424,378.244,380.976,384.841,388.184,390.277,392.257,395.096,399.907,403.772,405.752,413.128,417.046,421.011,424.309,429.129,432.391,436.301,441.093,443.073,447.937,450.147,452.977,455.43,462.813,466.634,469.365,473.231,475.211,477.942,481.808,486.698,490.042,492.539,494.857,498.721,500.701,504.0,506.829,510.092,513.957,518.849,523.101,525.94,530.787,532.767,535.921,542.586,548.26,552.566,554.618" svgx:width="0.37,0.31,0.44,0.31,0.43,0.23,0.23,0.62,0.69,0.51,0.23,0.31,0.43,0.37,0.31,0.37,0.23,0.69,0.43,0.37,0.43,0.23,0.42,0.44,0.37,0.37,0.27,0.43,0.53,0.23,0.51,0.53,0.31,0.23,0.3,0.51,0.37,0.23,0.43,0.44,0.42,0.53,0.23,0.52,0.37,0.51,0.42,0.43,0.37,0.37,0.23,0.23,0.53,0.51,0.37,0.23,0.51,0.51,0.31,0.53,0.23,0.37,0.31,0.44,0.31,0.43,0.37,0.23,0.23,0.31,0.53,0.43,0.23,0.82,0.43,0.44,0.37,0.53,0.37,0.43,0.53,0.23,0.53,0.25,0.31,0.27,0.82,0.44,0.31,0.43,0.23,0.31,0.43,0.55,0.37,0.27,0.25,0.43,0.23,0.37,0.31,0.37,0.43,0.55,0.47,0.31,0.53,0.23,0.35,0.74,0.62,0.47,0.23,0.23" style="fill:rgb(0,0,0);font-family:MinionPro-Regular;font-size:9.0px;stroke:none;">state. Two tests were carried out for each process. For both states, the measured ultimate tensile strength (UTS: </text>
   <text y="684.649" x="155.643" svgx:width="0.78" style="fill:rgb(0,0,0);font-family:EuclidSymbol;font-size:9.0px;stroke:none;">∼</text>
   <text y="684.649" x="162.681,167.037,171.393,175.749,176.901,184.956,189.859,193.846,196.996,198.97,202.875,207.797,212.585,214.559,218.752,221.2,225.024,227.337,232.125,234.1,237.392,240.217,243.473,247.334,252.219,256.467,259.301,264.143,266.118,269.268,274.748,279.05,281.138" svgx:width="0.48,0.48,0.48,0.23,0.89,0.56,0.44,0.35,0.23,0.44,0.55,0.53,0.23,0.46,0.27,0.43,0.25,0.53,0.23,0.37,0.31,0.37,0.43,0.55,0.47,0.31,0.53,0.23,0.35,0.63,0.47,0.23,0.23" style="fill:rgb(0,0,0);font-family:MinionPro-Regular;font-size:9.0px;stroke:none;">760 MPa) and yield strength (YS: </text>
   <text y="684.649" x="283.092" svgx:width="0.78" style="fill:rgb(0,0,0);font-family:EuclidSymbol;font-size:9.0px;stroke:none;">∼</text>
   <text y="684.649" x="290.13,294.486,298.842,303.198,304.35,312.405,317.308,321.295,324.445,326.419,330.936,333.636,335.611,338.444,343.249,347.11,349.085,351.785,355.743,359.036,361.817,363.792,367.635,372.34,376.902,379.215,381.663,386.549,390.797,392.772,395.922,400.278,404.634,405.771,408.894,414.915,417.93,425.337,427.785,432.744,435.894,437.868,441.259,445.165,452.399,457.086,459.399,463.26,465.236,471.363,475.224,478.48,482.341,484.316,487.618,489.931,492.379,496.688,501.357,504.19,506.439,510.606,512.582,517.424,519.872,524.181,528.985,532.846,536.221,538.197,541.03,545.843,549.747,554.67" svgx:width="0.48,0.48,0.48,0.23,0.89,0.56,0.44,0.35,0.23,0.51,0.3,0.23,0.31,0.53,0.43,0.23,0.3,0.44,0.37,0.31,0.23,0.42,0.51,0.51,0.25,0.27,0.55,0.47,0.23,0.35,0.48,0.48,0.23,0.34,0.67,0.33,0.82,0.27,0.55,0.35,0.23,0.37,0.44,0.82,0.52,0.25,0.43,0.23,0.69,0.43,0.37,0.43,0.23,0.37,0.25,0.27,0.47,0.53,0.31,0.25,0.46,0.23,0.53,0.27,0.47,0.53,0.43,0.37,0.23,0.31,0.53,0.44,0.55,0.23" style="fill:rgb(0,0,0);font-family:MinionPro-Regular;font-size:9.0px;stroke:none;">630 MPa) of the fast cooling (60 °C/min) sample were slightly higher than </text>
   <text y="694.648" x="155.643,158.442,163.212,167.802,171.177,175.002,176.838,179.952,186.576,192.21,196.476,198.528" svgx:width="0.31,0.53,0.51,0.37,0.43,0.23,0.35,0.74,0.62,0.47,0.23,0.23" style="fill:rgb(0,0,0);font-family:MinionPro-Regular;font-size:9.0px;stroke:none;">those (UTS: </text>
   <text y="694.648" x="200.364" svgx:width="0.78" style="fill:rgb(0,0,0);font-family:EuclidSymbol;font-size:9.0px;stroke:none;">∼</text>
   <text y="694.648" x="207.366,211.686,216.006,220.326,221.451,229.47,234.339,238.29,240.342,242.18,247.625,251.891,253.943" svgx:width="0.48,0.48,0.48,0.23,0.89,0.56,0.44,0.23,0.23,0.63,0.47,0.23,0.23" style="fill:rgb(0,0,0);font-family:MinionPro-Regular;font-size:9.0px;stroke:none;">740 MPa, YS: </text>
   <text y="694.648" x="255.786" svgx:width="0.78" style="fill:rgb(0,0,0);font-family:EuclidSymbol;font-size:9.0px;stroke:none;">∼</text>
   <text y="694.648" x="262.788,267.108,271.428,275.748,276.873,284.892,289.761,293.712,296.826,298.662,303.144,305.808,307.644,310.443,315.213,319.038,320.874,324.141,326.418,330.864,337.029,338.865,342.672,347.342,351.87,354.147,356.559,361.409,365.621,367.457,370.571,374.891,376.943,381.263,382.398,385.485,391.47,394.449,401.82,404.232,409.155,412.269,414.105,417.462,421.332,428.532,433.185,435.462,439.233" svgx:width="0.48,0.48,0.48,0.23,0.89,0.56,0.44,0.35,0.23,0.51,0.3,0.23,0.31,0.53,0.43,0.23,0.37,0.25,0.51,0.69,0.23,0.42,0.51,0.51,0.25,0.27,0.55,0.47,0.23,0.35,0.48,0.23,0.48,0.23,0.34,0.67,0.33,0.82,0.27,0.55,0.35,0.23,0.37,0.44,0.82,0.52,0.25,0.43,0.23" style="fill:rgb(0,0,0);font-family:MinionPro-Regular;font-size:9.0px;stroke:none;">600 MPa) of the slow cooling (4.4 °C/min) sample.</text>
   <text y="704.647" x="167.64,173.832,179.016,182.841,186.18,188.043,190.841,195.612,199.437,201.3,204.558,207.249,211.074,215.79,218.994,222.801,227.472,231.999,234.276,236.688,241.538,245.75,247.613,252.383,256.262,260.042,262.787,264.65,267.44,270.662,274.541,278.321,281.11,288.445,292.27,297.022,299.767,301.819,303.682,306.481,311.251,315.076,316.939,320.197,322.987,326.209,330.034,334.885,339.097,341.895,346.701,348.564,353.046,355.71,357.573,361.452,365.403,369.156,373.962,375.825,379.182,383.052,390.251,394.904,397.181,401.006,402.869,407.621,411.491,415.298,418.52,422.399,426.323,429.698,433.523,436.826,438.878,440.741,445.214,449.885,452.63,454.493,457.292,462.062,465.887,467.75,471.008,473.798,477.02,480.845,485.696,489.908,492.706,497.512,499.375,503.857,506.521,508.384,511.183,515.953,519.778,521.641,524.305,528.229,531.487,534.232,536.095,539.902,544.572,549.099,551.376" svgx:width="0.69,0.58,0.43,0.37,0.23,0.31,0.53,0.43,0.23,0.37,0.31,0.43,0.52,0.36,0.42,0.51,0.51,0.25,0.27,0.55,0.47,0.23,0.53,0.43,0.44,0.31,0.23,0.31,0.37,0.43,0.44,0.31,0.82,0.43,0.55,0.31,0.23,0.23,0.31,0.53,0.43,0.23,0.37,0.31,0.37,0.43,0.55,0.47,0.31,0.53,0.23,0.51,0.3,0.23,0.43,0.44,0.42,0.53,0.23,0.37,0.44,0.82,0.52,0.25,0.43,0.23,0.53,0.43,0.42,0.37,0.43,0.44,0.37,0.43,0.37,0.23,0.23,0.51,0.53,0.31,0.23,0.31,0.53,0.43,0.23,0.37,0.31,0.37,0.43,0.55,0.47,0.31,0.53,0.23,0.51,0.3,0.23,0.31,0.53,0.43,0.23,0.3,0.44,0.37,0.31,0.23,0.42,0.51,0.51,0.25,0.36" style="fill:rgb(0,0,0);font-family:MinionPro-Regular;font-size:9.0px;stroke:none;">After the step-cooling heat treatment, the strength of each sample decreases, but the strength of the fast cool-</text>
   <text y="714.646" x="155.643,158.064,162.921,167.142,169.086,172.448,176.325,183.531,188.19,190.476,194.31,197.622,199.566,201.958,205.27,207.214,210.478,213.273,215.737,218.065,220.351,222.295,225.607,228.028,232.291,237.223,239.644,244.468,248.308,252.185,256.943,259.748,261.969,266.109,268.053,272.868,275.289,279.57,284.346,288.18,291.528,293.472" svgx:width="0.27,0.55,0.47,0.23,0.37,0.44,0.82,0.52,0.25,0.43,0.37,0.23,0.27,0.37,0.23,0.37,0.31,0.27,0.25,0.25,0.23,0.37,0.27,0.47,0.55,0.27,0.54,0.42,0.44,0.55,0.31,0.25,0.46,0.23,0.53,0.27,0.47,0.53,0.43,0.37,0.23,0.35" style="fill:rgb(0,0,0);font-family:MinionPro-Regular;font-size:9.0px;stroke:none;">ing samples is still significantly higher (</text>
   <text y="714.646" x="296.595" svgx:width="0.78" style="fill:rgb(0,0,0);font-family:EuclidSymbol;font-size:9.0px;stroke:none;">∼</text>
   <text y="714.646" x="303.576,307.905,312.234,313.359,321.387,326.262,330.222,333.345,335.289,338.093,342.879,346.755,351.687,353.631,356.435,361.221,365.007,367.761,369.705,374.193,376.866,378.81,381.616,386.392,390.226,392.17,395.443,397.729,402.181,408.355,410.299,414.116,418.793,423.326,425.612,428.033,432.89,437.111,439.055,442.419,446.295,453.501,458.161,460.447,464.281,467.593,469.654,471.598,477.796,481.96,489.988,495.109,497.053,500.318,505.12,508.996,512.812,515.233,520.057,523.897,527.683,530.479,532.9,537.389,542.321,544.265,546.854,551.341,554.68" svgx:width="0.48,0.48,0.23,0.89,0.56,0.44,0.35,0.23,0.31,0.53,0.44,0.55,0.23,0.31,0.53,0.44,0.31,0.23,0.51,0.3,0.23,0.31,0.53,0.43,0.23,0.37,0.25,0.51,0.69,0.23,0.42,0.51,0.51,0.25,0.27,0.55,0.47,0.23,0.37,0.44,0.82,0.52,0.25,0.43,0.37,0.23,0.23,0.69,0.47,0.89,0.57,0.23,0.37,0.52,0.43,0.42,0.27,0.54,0.42,0.44,0.31,0.27,0.51,0.55,0.23,0.3,0.51,0.37,0.23" style="fill:rgb(0,0,0);font-family:MinionPro-Regular;font-size:9.0px;stroke:none;">25 MPa) than that of the slow cooling samples. ASME specification for </text>
   <text y="724.645" x="155.643,162.992,166.876,170.645,175.438,179.323,184.264,186.694,190.543,194.553,196.848,198.801,203.425,206.661,211.167,215.979,219.822,223.265,226.069,228.499,232.342,235.663,237.616,242.113,244.795,246.748,251.032,257.269,261.607,265.945,270.283,276.66,279.447,281.517,285.855,292.56,294.513,297.785,300.491,304.376,308.179,310.474,312.427,315.7,318.505,320.823,325.455,330.293,332.612,336.407,339.112,342.955,346.276,348.229,354.871,360.52,364.804,366.757,370.641,375.543,380.313,382.266,387.726,392.01,393.963,398.148,402.159,404.342,409.139,412.982,416.303,418.256,422.754,425.436,427.389,431.727,436.065,440.403,441.465,449.502,454.385,458.354,460.307,464.191,469.093,473.863,475.816,480.154,484.492,488.83,489.957,497.994,502.878,506.847,508.917,510.87,514.106,517.949,521.222,526.033,529.918,533.802,536.607,538.971,543.08,546.884,549.113,552.601,554.653" svgx:width="0.82,0.43,0.42,0.53,0.44,0.55,0.27,0.42,0.44,0.25,0.23,0.52,0.37,0.51,0.52,0.43,0.37,0.31,0.27,0.43,0.37,0.23,0.51,0.3,0.23,0.47,0.69,0.48,0.48,0.48,0.71,0.37,0.23,0.48,0.74,0.23,0.37,0.31,0.43,0.43,0.25,0.23,0.37,0.31,0.27,0.52,0.53,0.25,0.44,0.31,0.43,0.37,0.23,0.74,0.62,0.47,0.23,0.44,0.55,0.53,0.23,0.63,0.47,0.23,0.46,0.44,0.25,0.53,0.43,0.37,0.23,0.51,0.3,0.23,0.48,0.48,0.48,0.23,0.89,0.56,0.44,0.23,0.44,0.55,0.53,0.23,0.48,0.48,0.48,0.23,0.89,0.56,0.44,0.23,0.23,0.37,0.43,0.37,0.52,0.43,0.42,0.31,0.27,0.46,0.43,0.25,0.46,0.23,0.23" style="fill:rgb(0,0,0);font-family:MinionPro-Regular;font-size:9.0px;stroke:none;">mechanical properties of SA508Gr.4N steel stipulates UTS and YS values of 725 MPa and 585 MPa, respectively. </text>
   <text y="734.644" x="155.643,165.255,169.089,171.042,173.742,177.576,180.843,183.597,185.55,188.673,191.039,193.1,196.88,198.941,201.002,202.955,207.23,213.458,217.787,222.116,226.445,232.817,235.598,237.659,241.988,248.684,251.807,253.76,257.027,259.727,263.606,267.404,269.69,271.643,278.987,282.866,286.7,289.454,292.766,294.719,297.527,302.306,306.14,308.093,311.325,315.203,319.721,324.509,326.93,330.161,333.995,341.339,345.173,349.934,352.688,356.0,357.953,362.444,365.117,367.07,369.877,374.656,378.49,380.443,386.644,390.811,398.839,403.96,405.913,409.18,413.986,417.865,421.681,424.102,428.926,432.769,436.557,439.356,441.777,446.268,451.2,453.261,455.214,459.804,464.592,468.03,470.838,475.617,479.451,482.853,490.197,494.688,497.919,501.699,503.76,505.713,508.521,513.299,517.133,519.086,523.847,526.268,531.245,535.079,538.31,542.144,547.04,550.856,554.68" svgx:width="1.07,0.43,0.23,0.31,0.43,0.37,0.31,0.23,0.35,0.27,0.23,0.43,0.23,0.23,0.23,0.47,0.69,0.48,0.48,0.48,0.71,0.37,0.23,0.48,0.74,0.35,0.23,0.37,0.31,0.43,0.43,0.25,0.23,0.82,0.43,0.43,0.31,0.37,0.23,0.31,0.53,0.43,0.23,0.37,0.43,0.51,0.53,0.27,0.37,0.43,0.82,0.43,0.55,0.31,0.37,0.23,0.51,0.3,0.23,0.31,0.53,0.43,0.23,0.69,0.47,0.89,0.57,0.23,0.37,0.52,0.43,0.42,0.27,0.54,0.42,0.44,0.31,0.27,0.51,0.55,0.23,0.23,0.53,0.53,0.37,0.31,0.53,0.43,0.37,0.82,0.51,0.37,0.43,0.23,0.23,0.31,0.53,0.43,0.23,0.53,0.27,0.56,0.43,0.37,0.43,0.55,0.42,0.43,0.23" style="fill:rgb(0,0,0);font-family:MinionPro-Regular;font-size:9.0px;stroke:none;">The test (i.e., SA508Gr.4N) steel meets the requirements of the ASME specification. Furthermore, the difference </text>
  </g>
  <rect style="fill:pink;opacity:0.2;stroke:blue;stroke-width:0.3;" x="155.638" y="64.138" height="302.4" width="396.0" title="5"/>
  <text y="64.138" class="image" id="image.5.1" width="396" height="302" x="155.638" style="font-size:5.0px;">image.5.1.156_552.64_367</text>
  <path style="fill:none;stroke:rgb(131,144,151);stroke-width:0.3;" d="M159.130 377.440 L552.640 377.440 "/>
  <path style="fill:none;stroke:rgb(131,144,151);stroke-width:1.0;" d="M156.140 377.440 L156.140 377.440 M554.140 377.440 L554.140 377.440 "/>
  <g begin="text">
   <text y="367.443" x="155.638,160.552,163.207,167.662,172.657,176.221,180.154,181.909,186.409" svgx:width="0.55,0.29,0.49,0.56,0.4,0.44,0.22,0.5,0.25" style="fill:rgb(0,0,0);font-family:MinionPro-Bold;font-size:9.0px;stroke:none;">Figure 5.</text>
   <text y="367.443" x="188.695,190.765,193.195,199.963,204.58,207.37,209.782,213.615,217.611,219.888,221.724,225.594,230.481,235.233,237.069,241.227,246.339,254.358,256.194,263.565,265.977,269.784,273.005,277.595,281.852,285.191,288.971,293.624,298.358,301.661,303.497,307.979,310.643,312.479,315.278,320.048,323.873,325.709,329.975,336.194,340.514,344.834,349.154,355.517,358.289,360.341,364.661,371.348,373.184,376.442,379.133,383.003,386.792,389.069,390.905,394.775,399.959,403.784,407.123,408.959,411.65,415.475,422.675,427.472,431.297,434.519,438.389,443.141,445.193" svgx:width="0.23,0.55,0.75,0.52,0.31,0.27,0.42,0.44,0.25,0.23,0.44,0.55,0.53,0.23,0.47,0.57,0.89,0.23,0.82,0.27,0.42,0.37,0.51,0.47,0.37,0.44,0.52,0.53,0.37,0.23,0.51,0.3,0.23,0.31,0.53,0.43,0.23,0.47,0.69,0.48,0.48,0.48,0.71,0.37,0.23,0.48,0.74,0.23,0.37,0.31,0.43,0.43,0.25,0.23,0.44,0.58,0.43,0.37,0.23,0.31,0.43,0.82,0.52,0.43,0.37,0.43,0.53,0.23,0.35" style="fill:rgb(0,0,0);font-family:MinionPro-Regular;font-size:9.0px;stroke:none;"> Optical and SEM micrographs of the SA508Gr.4N steel after tempered:(</text>
   <text y="367.443" x="448.307" svgx:width="0.47" style="fill:rgb(0,0,0);font-family:MinionPro-Bold;font-size:9.0px;stroke:none;">a</text>
   <text y="367.443" x="452.501" svgx:width="0.23" style="fill:rgb(0,0,0);font-family:MinionPro-Regular;font-size:9.0px;stroke:none;">,</text>
   <text y="367.443" x="454.553" svgx:width="0.42" style="fill:rgb(0,0,0);font-family:MinionPro-Bold;font-size:9.0px;stroke:none;">c</text>
   <text y="367.443" x="458.351,461.465,463.301,471.167,475.037,478.466,481.157,484.982,489.833,493.136,495.44,498.131,501.956,504.008,505.844" svgx:width="0.35,0.23,0.89,0.44,0.37,0.31,0.43,0.55,0.37,0.27,0.31,0.43,0.23,0.23,0.35" style="fill:rgb(0,0,0);font-family:MinionPro-Regular;font-size:9.0px;stroke:none;">) Martensite; (</text>
   <text y="367.443" x="508.958" svgx:width="0.53" style="fill:rgb(0,0,0);font-family:MinionPro-Bold;font-size:9.0px;stroke:none;">b</text>
   <text y="367.443" x="513.764" svgx:width="0.23" style="fill:rgb(0,0,0);font-family:MinionPro-Regular;font-size:9.0px;stroke:none;">,</text>
   <text y="367.443" x="515.816" svgx:width="0.55" style="fill:rgb(0,0,0);font-family:MinionPro-Bold;font-size:9.0px;stroke:none;">d</text>
   <text y="367.443" x="520.739,523.853,525.689,531.062,534.932,537.344,542.267,544.571,547.262,551.033" svgx:width="0.35,0.23,0.59,0.44,0.27,0.55,0.27,0.31,0.43,0.23" style="fill:rgb(0,0,0);font-family:MinionPro-Regular;font-size:9.0px;stroke:none;">) Bainite.</text>
  </g>
 </g>
</svg>
