<?xml version="1.0" encoding="UTF-8"?>
<svg height="755.32" width="530.429" xmlns="http://www.w3.org/2000/svg">
 <g id="page" xmlns:svgx="http://www.xml-cml.org/schema/svgx">
  <g begin="text">
   <text y="62.979" x="76.535,84.059,87.598,89.813,92.914,96.157,100.589,102.804,105.905" svgx:width="0.94,0.44,0.28,0.39,0.41,0.56,0.28,0.39,0.39" style="fill:rgb(0,0,0);font-family:URWPalladioL-Ital;font-size:7.97px;stroke:none;">Molecules</text>
   <text y="62.979" x="110.998,114.983,118.968,122.953" svgx:width="0.5,0.5,0.5,0.5" style="fill:rgb(0,0,0);font-family:URWPalladioL-Bold;font-size:7.97px;stroke:none;">2020</text>
   <text y="62.979" x="126.938" svgx:width="0.25" style="fill:rgb(0,0,0);font-family:URWPalladioL-Roma;font-size:7.97px;stroke:none;">,</text>
   <text y="62.979" x="130.923,134.908" svgx:width="0.5,0.5" style="fill:rgb(0,0,0);font-family:URWPalladioL-Ital;font-size:7.97px;stroke:none;">25</text>
   <text y="62.979" x="138.893,140.8855,142.878,146.863,150.848,154.83300000000003,491.809,495.794,499.779,501.772,506.123,508.7531,510.77,514.755" svgx:width="0.25,0.55,0.5,0.5,0.5,0.55,0.5,0.5,0.55,0.55,0.33,0.55,0.5,0.5" style="fill:rgb(0,0,0);font-family:URWPalladioL-Roma;font-size:7.97px;stroke:none;">, 891 14 of 17</text>
   <text y="97.848" x="76.535,81.047,86.961,92.042,95.873,101.523" svgx:width="0.44,0.58,0.5,0.4,0.56,0.48" style="fill:rgb(0,0,0);font-family:URWPalladioL-Roma;font-size:9.96px;stroke:none;">charge</text>
   <text y="97.848" x="106.394" svgx:width="0.29" style="fill:rgb(0,0,0);font-family:Rpxr;font-size:9.96px;stroke:none;">/</text>
   <text y="97.848" x="109.311,115.52,118.477,122.786,127.297,133.212,138.293,142.124,147.774,152.5548,155.72,160.232,165.313,171.42,176.501,182.121,185.078,188.035,190.992,194.305,199.8826,203.034,206.347,212.261,217.0418,220.197,225.065,228.022,232.889,237.401,240.714,244.555,250.103,256.312,261.18,265.3632,268.557,277.032,281.9,285.741,290.5218,293.688,299.338,304.418,307.365,313.107,318.188,324.102,329.65,333.959,337.272,342.353,345.665,348.623,353.134,358.215,361.172,364.13,369.7076,372.859,377.37,383.02,387.532,390.489,395.357,401.43260000000004,404.645,410.264,415.132,418.445,426.92,431.787,436.655,442.43179999999995,445.648,450.729,453.269,458.249,461.419,466.5,472.414,478.4896,481.702,486.783,489.324,494.30400000000003,497.484,504.6552,507.889,513.631,517.939" svgx:width="0.61,0.29,0.42,0.44,0.58,0.5,0.4,0.56,0.48,0.55,0.44,0.5,0.6,0.5,0.55,0.29,0.29,0.29,0.33,0.56,0.55,0.33,0.58,0.48,0.55,0.48,0.29,0.48,0.44,0.33,0.4,0.55,0.61,0.48,0.42,0.55,0.83,0.48,0.4,0.48,0.55,0.56,0.5,0.29,0.56,0.5,0.58,0.55,0.42,0.33,0.5,0.33,0.29,0.44,0.5,0.29,0.29,0.56,0.55,0.44,0.56,0.44,0.29,0.48,0.61,0.55,0.55,0.48,0.33,0.83,0.48,0.48,0.58,0.55,0.5,0.25,0.5,0.55,0.5,0.58,0.61,0.55,0.5,0.25,0.5,0.55,0.72,0.55,0.56,0.42,0.25" style="fill:rgb(0,0,0);font-family:URWPalladioL-Roma;font-size:9.96px;stroke:none;">discharge capability the electrodes were galvanostatically cycled between 2.0 and 0.1 V vs.</text>
   <text y="111.358" x="76.535,82.622" svgx:width="0.61,0.29" style="fill:rgb(0,0,0);font-family:URWPalladioL-Roma;font-size:9.96px;stroke:none;">Li</text>
   <text y="111.358" x="85.522" svgx:width="0.29" style="fill:rgb(0,0,0);font-family:Rpxr;font-size:9.96px;stroke:none;">/</text>
   <text y="111.358" x="88.381,94.468" svgx:width="0.61,0.29" style="fill:rgb(0,0,0);font-family:URWPalladioL-Roma;font-size:9.96px;stroke:none;">Li</text>
   <text y="107.741" x="99.858" svgx:width="0.67" style="fill:rgb(0,0,0);font-family:Rpxr;font-size:7.57px;stroke:none;">+</text>
   <text y="111.358" x="105.421" svgx:width="0.25" style="fill:rgb(0,0,0);font-family:URWPalladioL-Roma;font-size:9.96px;stroke:none;">.</text>
   <text y="134.571" x="76.535,81.516,84.006,87.494,94.687,100.226,106.313,110.737,114.054,120.141,124.565,127.882,133.421,139.509" svgx:width="0.5,0.25,0.55,0.72,0.56,0.61,0.44,0.33,0.61,0.44,0.33,0.56,0.61,0.44" style="fill:rgb(0,0,0);font-family:URWPalladioL-Bold;font-size:9.96px;stroke:none;">4. Conclusions</text>
   <text y="154.058" x="97.795,103.92,109.736,114.5168,117.001,125.824,128.732,133.168,136.936,142.391,146.628,149.886,153.753,159.778,164.215,167.473,173.498,177.445,182.441,185.3294,187.837,192.834,198.649,204.7246,207.233,213.238,219.054,224.61,228.846,231.754,236.191,241.647,244.974,249.411,255.227,260.013,268.836,271.744,276.181,281.177,284.0654,286.563,292.569,296.336,301.792,307.797,312.584,316.531,319.788,322.696,327.482,331.6652,334.197,339.653,342.93980000000005,345.469,349.706,352.613,355.521,358.429,362.866,368.322,374.0988,376.615,385.439,388.347,392.783,396.55,402.006,408.012,413.008,416.955,420.213,423.12,427.557,430.465,435.251,439.4342,441.966,450.3,455.086,458.854,463.6348,466.128,470.365,473.622,479.648,485.753,488.661,493.448,499.5236,502.031,507.027,511.2102,513.742" svgx:width="0.61,0.58,0.48,0.55,0.88,0.29,0.44,0.4,0.55,0.42,0.33,0.4,0.6,0.44,0.33,0.6,0.4,0.5,0.29,0.55,0.5,0.58,0.61,0.55,0.6,0.58,0.56,0.42,0.29,0.44,0.55,0.33,0.44,0.58,0.48,0.88,0.29,0.44,0.5,0.29,0.55,0.6,0.4,0.55,0.6,0.48,0.4,0.33,0.29,0.48,0.42,0.55,0.55,0.33,0.55,0.42,0.29,0.29,0.29,0.44,0.55,0.58,0.55,0.88,0.29,0.44,0.4,0.55,0.6,0.5,0.4,0.33,0.29,0.44,0.29,0.48,0.42,0.55,0.83,0.48,0.4,0.48,0.55,0.42,0.33,0.6,0.61,0.29,0.48,0.61,0.55,0.5,0.42,0.55,0.5" style="fill:rgb(0,0,0);font-family:URWPalladioL-Roma;font-size:9.96px;stroke:none;">The microstructural and physico-chemical properties of silicon microparticles were studied as a</text>
   <text y="167.567" x="76.236,82.116,85.804,91.146,99.784,102.631,106.779,109.626,115.32,120.8976,123.254,128.146,133.84,139.9156,142.322,148.016,153.358,159.051,162.309,166.995,172.044,177.923,182.61,188.303,192.451,195.298,200.826,205.6068,208.007,210.854,213.701,216.89,222.584,225.431,231.33,242.473,245.32,250.662,256.4388,258.851,264.261,269.152,272.342,275.531,280.217,284.082,289.6596,292.026,296.917,302.611,307.953,313.93,318.7108,321.111,329.75,334.642,337.831,342.517,346.382,349.228,354.12,356.967,359.457,362.925,368.922,374.616,379.3968,381.807,386.151,391.492,400.131,408.77,413.456,417.134,421.478,424.325,429.217,432.1054,434.568,438.716,441.563,444.41,447.257,451.601,456.942,462.7188,465.131,471.011,476.352,484.512,490.489,495.175,499.159,501.544,509.703,514.595" svgx:width="0.6,0.4,0.55,0.88,0.29,0.42,0.29,0.58,0.56,0.55,0.5,0.58,0.61,0.55,0.58,0.55,0.58,0.33,0.48,0.52,0.6,0.48,0.58,0.42,0.29,0.56,0.48,0.55,0.29,0.29,0.33,0.58,0.29,0.6,0.88,0.29,0.55,0.58,0.55,0.55,0.5,0.33,0.33,0.48,0.4,0.56,0.55,0.5,0.58,0.55,0.61,0.48,0.55,0.88,0.5,0.33,0.48,0.4,0.29,0.5,0.29,0.25,0.55,0.61,0.58,0.48,0.55,0.44,0.55,0.88,0.88,0.48,0.4,0.44,0.29,0.5,0.29,0.55,0.42,0.29,0.29,0.29,0.44,0.55,0.58,0.55,0.6,0.55,0.83,0.61,0.48,0.4,0.55,0.83,0.5,0.42" style="fill:rgb(0,0,0);font-family:URWPalladioL-Roma;font-size:9.96px;stroke:none;">promising and non-expensive lithiumion battery anode material. The commercial silicon powder was</text>
   <text y="181.077" x="76.535,82.663,86.971,91.839,97.9146,100.588,105.669,109.8522,112.518,117.498,120.15,124.458,127.771,132.852,136.866,140.179,143.136,149.05,154.6276,157.24,166.213,171.294,174.607,179.475,183.488,186.446,191.527,194.484,196.97400000000002,200.662,206.891,212.805,217.5858,220.224,225.843,230.924,233.881,236.838,240.222,249.195,252.152,255.109,258.066,261.023,266.938,272.5156,275.128,279.437,282.394,285.351,288.308,292.82,298.368,304.1448,306.823,312.93,318.478,326.953,333.162,338.03,342.01399999999995,344.584,348.415,353.283,357.591,363.719,366.676,369.989,374.856,380.9316,383.616,386.573,392.34979999999996,395.028,398.34,404.255,409.0358,411.663,417.577,422.444,428.094,431.051,434.009,439.659,442.616,448.235,451.192,455.9728,458.6,463.468,469.382,475.296,480.377,486.291,490.803,495.671,504.643,509.511,515.425" svgx:width="0.6,0.42,0.48,0.61,0.55,0.5,0.42,0.55,0.5,0.55,0.42,0.33,0.5,0.4,0.33,0.29,0.58,0.56,0.55,0.88,0.5,0.33,0.48,0.4,0.29,0.5,0.29,0.25,0.55,0.61,0.58,0.48,0.55,0.55,0.5,0.29,0.29,0.33,0.88,0.29,0.29,0.29,0.29,0.58,0.56,0.55,0.42,0.29,0.29,0.29,0.44,0.55,0.58,0.55,0.6,0.55,0.83,0.61,0.48,0.4,0.55,0.4,0.48,0.42,0.6,0.29,0.33,0.48,0.61,0.55,0.29,0.58,0.55,0.33,0.58,0.48,0.55,0.58,0.48,0.56,0.29,0.29,0.56,0.29,0.55,0.29,0.48,0.55,0.48,0.58,0.58,0.5,0.58,0.44,0.48,0.88,0.48,0.58,0.33" style="fill:rgb(0,0,0);font-family:URWPalladioL-Roma;font-size:9.96px;stroke:none;">used as a starting material. The ball-milling silicon powder resulted in the negligible enhancement</text>
   <text y="194.586" x="76.535,82.051,85.3378,87.91,92.961,98.669,103.508,107.498,112.549,118.166,122.9468,125.5,131.571,137.087,140.895,145.6758,148.229,153.28,159.16,165.2356,167.827,172.111,175.05,177.99,180.93,185.415,190.921,196.6978,199.295,205.468,210.984,219.904,224.955,227.894,233.6708,236.269,240.552,243.492,248.543,253.382,255.872,259.403,265.595,271.475,276.2558,278.809,287.729,292.568,295.861,300.912,303.852,307.216,312.267,316.55,320.833,323.773,328.056,331.35,336.189,342.26460000000003,344.856,349.341,355.221,360.06,368.98,371.92,376.405,381.456,384.3444,386.881,391.72,395.013,399.498,405.378,408.317,414.197,419.7746,422.309,425.673,435.229,443.089,450.251,456.423,459.70980000000003,462.283,467.798,471.08480000000003,473.658,477.941,481.234,486.285,490.275,493.569,496.508,502.388,507.9656,510.5,515.803" svgx:width="0.55,0.33,0.55,0.5,0.56,0.48,0.4,0.5,0.56,0.48,0.55,0.6,0.55,0.4,0.48,0.55,0.5,0.58,0.61,0.55,0.42,0.29,0.29,0.29,0.44,0.55,0.58,0.55,0.61,0.55,0.88,0.5,0.29,0.58,0.55,0.42,0.29,0.5,0.48,0.25,0.55,0.61,0.58,0.48,0.55,0.88,0.48,0.33,0.5,0.29,0.33,0.5,0.42,0.42,0.29,0.42,0.33,0.48,0.61,0.55,0.44,0.58,0.48,0.88,0.29,0.44,0.5,0.29,0.55,0.48,0.33,0.44,0.58,0.29,0.58,0.56,0.55,0.33,0.95,0.78,0.71,0.61,0.33,0.55,0.55,0.33,0.55,0.42,0.33,0.5,0.4,0.33,0.29,0.58,0.56,0.55,0.52,0.29" style="fill:rgb(0,0,0);font-family:URWPalladioL-Roma;font-size:9.96px;stroke:none;">of average pore and silicon domain size. The metal-assisted chemical etching (MACE) of starting Si</text>
   <text y="208.095" x="76.535,85.297,90.258,93.493,98.246,102.165,105.053,110.014,112.9024,115.402,119.143,123.896,128.104,134.087,136.974,140.209,144.962,151.0376,153.516,156.403,162.1798,164.679,167.914,173.689,178.4698,180.942,185.149,188.037,193.554,199.329,202.217,208.22,212.626,217.587,223.362,226.6488,229.097,231.985,237.76,242.166,245.906,250.659,255.621,259.828,264.6088,267.072,272.489,275.7758,278.294,283.256,288.862,293.615,297.534,302.496,308.013,312.7938,315.266,321.23,326.648,330.389,335.1698,337.642,341.849,344.737,349.698,354.4788,356.942,360.246,363.55,367.291,372.709,383.971,388.933,391.413,396.375,401.355,403.837,407.072,412.55,414.99,419.951,422.432,427.393,432.373,434.845,440.62,449.382,452.686,455.176,457.668,465.943,471.718,474.606,479.011,484.7878,487.287,490.174,494.3572,496.882,499.77,504.731,508.472,513.989" svgx:width="0.88,0.5,0.33,0.48,0.4,0.29,0.5,0.29,0.55,0.4,0.48,0.42,0.6,0.29,0.33,0.48,0.61,0.55,0.29,0.58,0.55,0.33,0.58,0.48,0.55,0.42,0.29,0.56,0.58,0.29,0.61,0.44,0.5,0.58,0.33,0.55,0.29,0.58,0.44,0.4,0.48,0.5,0.42,0.48,0.55,0.55,0.33,0.55,0.5,0.56,0.48,0.4,0.5,0.56,0.48,0.55,0.6,0.55,0.4,0.48,0.55,0.42,0.29,0.5,0.48,0.55,0.33,0.33,0.4,0.55,0.88,0.5,0.25,0.5,0.5,0.55,0.33,0.55,0.55,0.5,0.25,0.5,0.5,0.55,0.58,0.88,0.33,0.25,0.55,0.83,0.58,0.29,0.44,0.58,0.55,0.29,0.42,0.55,0.29,0.5,0.4,0.56,0.48" style="fill:rgb(0,0,0);font-family:URWPalladioL-Roma;font-size:9.96px;stroke:none;">material resulted in the signiﬁcant increase of average pore size (from0.56 to 3.44 nm), which is large</text>
   <text y="221.605" x="76.535,81.35,87.2,92.689,98.751,104.34,110.1168,112.693,116.04,121.529,125.51299999999999,127.993,131.27,137.12,141.9008,144.438,148.7,154.189,157.114,162.793,167.82,171.097,175.912,181.98760000000001,184.557,187.482,190.407,193.684,199.534,202.46,208.521,219.89,222.815,228.304,234.154,238.3372,240.92,244.197,249.675,252.188,258.23,263.256,267.518,271.7012,274.273,279.088,284.114,288.376,291.301,294.227,299.8046,302.319,305.596,311.446,315.236,320.724,326.786,332.375,338.1518,340.728,344.005,349.856,354.6368,357.164,363.205,368.694,372.483,377.299,381.561,384.051,387.592,393.754,399.604,404.3848,406.923,409.848,414.874,418.664,424.253,429.0338,431.561,437.602,443.091,446.89,451.6708,454.198,458.46,461.386,466.412,471.1928,473.73,482.606,487.632,493.221,498.036,502.2192,504.801,508.078,513.929" svgx:width="0.48,0.58,0.55,0.6,0.56,0.58,0.55,0.33,0.55,0.4,0.55,0.33,0.58,0.48,0.55,0.42,0.55,0.29,0.56,0.5,0.33,0.48,0.61,0.55,0.29,0.29,0.33,0.58,0.29,0.6,0.88,0.29,0.55,0.58,0.42,0.55,0.33,0.55,0.55,0.6,0.5,0.42,0.42,0.55,0.48,0.5,0.42,0.29,0.29,0.56,0.55,0.33,0.58,0.4,0.55,0.6,0.56,0.58,0.55,0.33,0.58,0.48,0.55,0.6,0.55,0.4,0.48,0.42,0.25,0.55,0.61,0.58,0.48,0.55,0.29,0.5,0.4,0.56,0.48,0.55,0.6,0.55,0.4,0.48,0.55,0.42,0.29,0.5,0.48,0.55,0.88,0.5,0.56,0.48,0.42,0.55,0.33,0.58,0.48" style="fill:rgb(0,0,0);font-family:URWPalladioL-Roma;font-size:9.96px;stroke:none;">enough for the solvated lithiumions to pass easily through the pores. The large pore size makes the</text>
   <text y="235.114" x="76.535,85.931,93.659,100.701,106.77659999999999,109.273,113.485,118.451,127.222,133.191,136.082,140.8628,143.342,148.954,153.712,157.636,163.21359999999999,165.661,171.631,175.375,180.799,189.569,192.46,196.671,199.562,205.342,210.9196,213.368,216.676,222.099,226.083,228.525,234.515,238.726,243.5068,245.987,250.953,255.1362,257.668,262.648,265.127,268.018,270.908,274.146,279.927,282.817,288.807,300.081,302.971,308.394,314.1708,316.678,322.171,327.137,330.375,333.613,338.371,342.295,347.87260000000003,350.32,355.287,361.067,366.491,372.56,377.3408,379.82,388.591,393.557,396.795,401.553,405.477,408.367,413.333,416.224,418.714,421.21,429.494,435.275,438.165,442.575,448.35179999999997,450.859,453.75,457.9332,460.464,464.874,470.297,476.078,482.088,486.011,494.782,499.539,505.6146,508.111,513.604" svgx:width="0.95,0.78,0.71,0.61,0.55,0.42,0.5,0.88,0.6,0.29,0.48,0.55,0.56,0.48,0.4,0.56,0.55,0.6,0.4,0.55,0.88,0.29,0.42,0.29,0.58,0.56,0.55,0.33,0.55,0.4,0.55,0.6,0.42,0.48,0.55,0.5,0.42,0.55,0.5,0.55,0.29,0.29,0.33,0.58,0.29,0.6,0.88,0.29,0.55,0.58,0.55,0.55,0.5,0.33,0.33,0.48,0.4,0.56,0.55,0.5,0.58,0.55,0.61,0.48,0.55,0.88,0.5,0.33,0.48,0.4,0.29,0.5,0.29,0.25,0.55,0.83,0.58,0.29,0.44,0.58,0.55,0.29,0.42,0.55,0.44,0.55,0.58,0.61,0.4,0.88,0.48,0.61,0.55,0.55,0.56" style="fill:rgb(0,0,0);font-family:URWPalladioL-Roma;font-size:9.96px;stroke:none;">MACE sample very promising for use as a lithiumion battery anode material, which is conﬁrmed by</text>
   <text y="248.624" x="76.535,79.848,85.762,90.5428,93.322,97.834,103.484,107.996,110.953,113.91,118.2924,121.115,126.857,132.405,135.362,138.675,143.756,152.729,161.702,166.569,169.882,173.896,179.47359999999998,182.249,187.33,193.244,199.3196,202.146,207.796,212.877,215.834,221.575,226.656,232.57,238.119,242.427,245.74,250.821,254.134,257.091,261.4734,264.296,268.807,274.457,278.969,281.926,284.884,290.798,296.3756,299.141,308.114,312.981,318.062,322.371,328.498,332.339,337.207,346.18,351.047,356.962,360.264,364.573,367.063,371.219,377.448,383.362,388.1428,390.922,400.536,408.441,415.646,421.7216,424.548,427.861,431.702,436.569,441.65,444.963,449.831,455.9066,458.732,463.041,468.122,477.095,483.202,486.159,490.9398,493.72,499.929,505.01,508.322,513.657" svgx:width="0.33,0.58,0.48,0.55,0.44,0.56,0.44,0.29,0.29,0.44,0.55,0.56,0.55,0.29,0.33,0.5,0.88,0.88,0.48,0.33,0.4,0.56,0.55,0.5,0.58,0.61,0.55,0.56,0.5,0.29,0.56,0.5,0.58,0.55,0.42,0.33,0.5,0.33,0.29,0.44,0.55,0.44,0.56,0.44,0.29,0.29,0.58,0.56,0.55,0.88,0.48,0.5,0.42,0.6,0.4,0.48,0.88,0.48,0.58,0.33,0.42,0.25,0.55,0.61,0.58,0.48,0.55,0.95,0.78,0.71,0.61,0.55,0.33,0.4,0.48,0.5,0.33,0.48,0.61,0.55,0.42,0.5,0.88,0.6,0.29,0.48,0.55,0.61,0.5,0.33,0.52,0.5" style="fill:rgb(0,0,0);font-family:URWPalladioL-Roma;font-size:9.96px;stroke:none;">the cyclic voltammetry and galvanostatic cycling measurements. The MACE treated sample BatS3</text>
   <text y="262.133" x="76.236,82.224,87.663,91.887,96.111,100.883,105.108,109.332,114.104,120.1796,122.682,125.929,131.728,136.5088,138.99,144.789,147.688,153.227,159.025,163.797,168.021,171.3078,173.76,178.183,183.982,188.963,192.719,198.258,203.0388,205.521,211.15,216.131,219.03,225.037,229.8178,232.3,237.281,243.08,249.15560000000002,251.657,257.197,262.636,268.076,274.15160000000003,276.654" svgx:width="0.6,0.55,0.42,0.42,0.48,0.42,0.42,0.48,0.61,0.55,0.33,0.58,0.48,0.55,0.58,0.29,0.56,0.58,0.48,0.42,0.33,0.55,0.44,0.58,0.5,0.4,0.56,0.48,0.55,0.56,0.5,0.29,0.6,0.48,0.55,0.5,0.58,0.61,0.55,0.56,0.55,0.55,0.61,0.55,0.48" style="fill:rgb(0,0,0);font-family:URWPalladioL-Roma;font-size:9.96px;stroke:none;">possessed the highest charge value and good e</text>
   <text y="262.133" x="281.425" svgx:width="0.92" style="fill:rgb(0,0,0);font-family:Rpxr;font-size:9.96px;stroke:none;">ﬃ</text>
   <text y="262.133" x="290.58,295.003,297.902,302.675,308.473,312.896,318.47360000000003,320.926,326.366,331.995,336.767,340.751,343.193,348.174,353.155,358.135,360.627,365.051,370.59,375.013,377.912,382.684,386.908" svgx:width="0.44,0.29,0.48,0.58,0.44,0.56,0.55,0.55,0.56,0.48,0.4,0.55,0.5,0.5,0.5,0.55,0.44,0.56,0.44,0.29,0.48,0.42,0.25" style="fill:rgb(0,0,0);font-family:URWPalladioL-Roma;font-size:9.96px;stroke:none;">ciency over 700 cycles.</text>
   <text y="286.121" x="76.186,83.162,88.64,91.626,97.105,102.09,105.5883,107.802,114.275,119.261,124.739,127.725,131.213,134.199,139.677,145.156,148.141,151.127,156.112,161.591,165.572" svgx:width="0.78,0.61,0.33,0.61,0.56,0.39,0.55,0.72,0.56,0.61,0.33,0.39,0.33,0.61,0.61,0.33,0.33,0.56,0.61,0.44,0.25" style="fill:rgb(0,0,0);font-family:URWPalladioL-Bold;font-size:8.97px;stroke:none;">Author Contributions:</text>
   <text y="286.121" x="170.947,177.998,182.553,185.523,190.008,192.301,196.345,201.839,205.437,209.992,212.962,215.613,220.587,225.889,228.13150000000002,230.398,239.016,241.293,247.379,249.656,251.8985,254.166,259.231,264.205,267.803,275.847,280.402,283.00329999999997,285.285,289.84,295.142,299.697,302.348,307.413,311.275,313.926,317.789,320.0315,322.289,325.359,327.637,336.255,338.532,340.7745,343.041,349.992,352.27,357.052,359.2945,361.562,366.117,371.419,376.8907,379.208,387.826,390.103,394.886,397.163,399.4055,401.673,410.29,414.654,417.624,422.926,427.9,433.466,438.44,441.091,446.065,451.13,455.202,457.4445,459.711,468.329,470.607,476.692,478.9345,481.193,485.747,491.049,496.5207,498.847,504.414,506.691,515.309,517.586" svgx:width="0.77,0.5,0.33,0.5,0.55,0.44,0.6,0.4,0.5,0.33,0.29,0.55,0.58,0.25,0.55,0.95,0.25,0.67,0.25,0.25,0.55,0.56,0.55,0.4,0.88,0.5,0.29,0.55,0.5,0.58,0.5,0.29,0.56,0.42,0.29,0.42,0.25,0.55,0.34,0.25,0.95,0.25,0.25,0.55,0.76,0.25,0.52,0.25,0.55,0.5,0.58,0.61,0.55,0.95,0.25,0.52,0.25,0.25,0.55,0.95,0.48,0.33,0.58,0.55,0.61,0.55,0.29,0.55,0.56,0.56,0.25,0.55,0.95,0.25,0.67,0.25,0.55,0.5,0.58,0.61,0.55,0.61,0.25,0.95,0.25,0.25" style="fill:rgb(0,0,0);font-family:URWPalladioL-Roma;font-size:8.97px;stroke:none;">Data curation, M.R.; Formal analysis, I.M., G.Š. and M.Š.; Methodology, M.R. and L.M.;</text>
   <text y="296.253" x="76.535,81.2,86.558,91.898,96.155,99.664,104.685,107.271,111.038,113.624,118.476,123.647,125.88950000000001,128.099,136.505,138.726,141.721,143.942,146.1845,148.403,156.622,160.132,162.717,165.614,168.2,173.371,178.312,187.198,192.049,195.559,198.145,203.085,205.671,210.842,215.285,217.8863,220.101,225.53,229.04,233.483,236.442,239.339,241.5815,243.791,252.196,254.418,260.354,262.575,264.8175,267.027,275.255,278.765,281.35,284.247,286.833,292.004,296.945,305.831,309.172,313.428,318.448,321.034,325.29,334.931,341.9276,344.075,348.331,353.76,356.346,359.243,361.828,367.0,371.94,374.1825,376.401,384.798,387.019,393.799,396.0415,398.251,402.694,407.865,413.3367,415.525,423.931,426.152,429.147,431.3895,433.598,440.511,443.097,445.69829999999996,447.913,452.356,457.714,460.611,465.782,470.634,474.144,477.9114,480.142,485.313,489.756,494.776,499.08160000000004,501.263,504.613,508.869,513.312" svgx:width="0.52,0.6,0.6,0.48,0.4,0.56,0.29,0.42,0.29,0.55,0.58,0.25,0.55,0.95,0.25,0.34,0.25,0.25,0.55,1.0,0.4,0.29,0.33,0.29,0.58,0.56,1.0,0.55,0.4,0.29,0.56,0.29,0.58,0.5,0.29,0.55,0.61,0.4,0.5,0.33,0.33,0.25,0.55,0.95,0.25,0.67,0.25,0.25,0.55,1.0,0.4,0.29,0.33,0.29,0.58,0.56,1.0,0.4,0.48,0.56,0.29,0.48,0.83,0.78,0.55,0.48,0.61,0.29,0.33,0.29,0.58,0.56,0.25,0.55,0.95,0.25,0.76,0.25,0.55,0.5,0.58,0.61,0.55,0.95,0.25,0.34,0.25,0.55,0.78,0.29,0.29,0.55,0.5,0.6,0.33,0.58,0.55,0.4,0.42,0.55,0.58,0.5,0.56,0.48,0.55,0.4,0.48,0.5,0.61" style="fill:rgb(0,0,0);font-family:URWPalladioL-Roma;font-size:8.97px;stroke:none;">Supervision, M.I.; Writing—original draft, M.R.; Writing—review&amp; editing, M.G. and M.I. All authors have read</text>
   <text y="306.385" x="76.535,81.018,86.237,91.7087,93.957,98.44,103.425,106.806,111.1,115.395,120.8667,123.115,126.039,130.9725,133.176,136.099,141.317,145.6226,147.854,153.243,158.649,163.608,166.217,168.826,172.628,177.846,182.141,187.6127,189.861,194.927,199.222,202.764,206.566,209.175,214.071,219.2736,221.531,226.426,229.3861,231.654,234.577,239.795,244.1006,246.332,254.249,258.732,263.951,269.357,273.159,277.14,280.682,283.291,288.68,291.603" svgx:width="0.5,0.58,0.61,0.55,0.5,0.56,0.4,0.48,0.48,0.61,0.55,0.33,0.55,0.55,0.33,0.58,0.48,0.55,0.6,0.6,0.55,0.29,0.29,0.42,0.58,0.48,0.61,0.55,0.56,0.48,0.4,0.42,0.29,0.55,0.58,0.55,0.55,0.33,0.55,0.33,0.58,0.48,0.55,0.88,0.5,0.58,0.6,0.42,0.44,0.4,0.29,0.6,0.33,0.25" style="fill:rgb(0,0,0);font-family:URWPalladioL-Roma;font-size:8.97px;stroke:none;">and agreed to the published version of the manuscript.</text>
   <text y="322.495" x="76.535,81.52,86.999,92.477,97.956,100.942,106.42,111.405" svgx:width="0.56,0.61,0.61,0.61,0.33,0.61,0.56,0.25" style="fill:rgb(0,0,0);font-family:URWPalladioL-Bold;font-size:8.97px;stroke:none;">Funding:</text>
   <text y="322.495" x="116.785,122.281,127.5,130.109,133.87640000000002,136.152,139.533,143.828,147.629,151.924,156.408,159.788,163.769,168.9716,171.229,174.609,178.904,182.885,187.18,189.789,194.855,199.15,204.6217,206.87,212.089,217.0225,219.226,223.521,228.148,231.071,235.366,238.907,244.126,248.609,251.21030000000002,253.46,256.446,261.852,267.071,272.549,275.159,280.377,285.362" svgx:width="0.61,0.58,0.29,0.42,0.55,0.4,0.48,0.42,0.48,0.5,0.4,0.44,0.58,0.55,0.4,0.48,0.44,0.48,0.29,0.56,0.48,0.61,0.55,0.58,0.55,0.55,0.48,0.52,0.33,0.48,0.4,0.58,0.5,0.29,0.55,0.33,0.6,0.58,0.61,0.29,0.58,0.56,0.25" style="fill:rgb(0,0,0);font-family:URWPalladioL-Roma;font-size:8.97px;stroke:none;">This research received no external funding.</text>
   <text y="338.604" x="76.535,83.009,87.994,93.473,98.951,101.937,105.918,108.904,112.85079999999999,115.126,120.112,123.6103,125.841,129.329,134.808,137.793,142.277,145.765,150.248,154.229,157.215" svgx:width="0.72,0.56,0.61,0.61,0.33,0.44,0.33,0.44,0.55,0.56,0.39,0.55,0.39,0.61,0.33,0.5,0.39,0.5,0.44,0.33,0.25" style="fill:rgb(0,0,0);font-family:URWPalladioL-Bold;font-size:8.97px;stroke:none;">Conﬂicts of Interest:</text>
   <text y="338.604" x="162.594,168.09,173.309,177.6146,179.845,184.329,189.735,192.658,197.877,202.772,206.314,210.0814,212.358,217.836,222.131,226.112,228.721,233.204,236.585,240.8906,243.121,248.34,253.2735,255.477,259.458,264.354,269.572,275.024,277.633,281.614,284.5741,286.779,291.674,294.6341,296.902,299.511,304.729,307.652,311.947,315.328,319.623,323.424,326.347" svgx:width="0.61,0.58,0.48,0.55,0.5,0.6,0.33,0.58,0.55,0.4,0.42,0.55,0.61,0.48,0.44,0.29,0.5,0.4,0.48,0.55,0.58,0.55,0.55,0.44,0.55,0.58,0.61,0.29,0.44,0.33,0.55,0.55,0.33,0.55,0.29,0.58,0.33,0.48,0.4,0.48,0.42,0.33,0.25" style="fill:rgb(0,0,0);font-family:URWPalladioL-Roma;font-size:8.97px;stroke:none;">The authors declare no conﬂict of interest.</text>
   <text y="364.906" x="76.535,83.728,88.709,92.585,97.566,101.441,106.423,112.51,116.933,121.915" svgx:width="0.72,0.5,0.39,0.5,0.39,0.5,0.61,0.44,0.5,0.44" style="fill:rgb(0,0,0);font-family:URWPalladioL-Bold;font-size:9.96px;stroke:none;">References</text>
   <text y="383.795" x="76.535,81.018,83.26050000000001,98.05,101.075,103.718,109.004,111.24650000000001,113.518,118.578,120.848,123.0905,125.362,131.421,136.707,142.184,144.4265,146.698,152.248,154.519,156.7615,159.033,164.583,170.06,172.3025,174.574,180.632,182.903,185.1455,187.417,192.967,195.61,201.087,203.3295,205.601,213.149,215.42,217.6625,219.925,225.983,231.27,236.747,238.98950000000002,241.261,244.286,246.5285,248.8,255.24,260.526,265.067,267.711,270.354,274.704,279.991,285.041,289.392,293.1594,295.486,300.028,305.314,310.7857,313.107,316.531,320.882,324.915,329.266,334.552,337.51210000000003,339.757,345.215,348.64,353.599,358.649,362.073,366.424,370.275,374.0424,376.37,379.013,384.2156,386.543,389.504,394.79,399.09560000000005,401.385,406.934,411.285,416.417,420.768,423.411,428.37,433.829,441.849,446.2,451.486,454.4461,456.691,461.65,464.6101,466.918,471.687,474.2883,476.564,481.106,486.392,491.351,496.901,501.252,505.0194,507.346,510.371,515.33" svgx:width="0.5,0.25,0.55,0.33,0.29,0.58,0.25,0.55,0.67,0.25,0.25,0.55,0.67,0.58,0.6,0.25,0.55,0.61,0.25,0.25,0.55,0.61,0.6,0.25,0.55,0.67,0.25,0.25,0.55,0.61,0.29,0.6,0.25,0.55,0.83,0.25,0.25,0.55,0.67,0.58,0.6,0.25,0.55,0.33,0.25,0.55,0.71,0.58,0.5,0.29,0.29,0.48,0.58,0.56,0.48,0.42,0.55,0.5,0.58,0.61,0.55,0.4,0.48,0.44,0.48,0.58,0.33,0.55,0.6,0.4,0.55,0.56,0.4,0.48,0.42,0.42,0.55,0.29,0.58,0.55,0.33,0.58,0.48,0.55,0.61,0.48,0.56,0.48,0.29,0.55,0.6,0.88,0.48,0.58,0.33,0.55,0.55,0.33,0.55,0.52,0.29,0.55,0.5,0.58,0.55,0.61,0.48,0.42,0.55,0.33,0.55,0.4" style="fill:rgb(0,0,0);font-family:URWPalladioL-Roma;font-size:8.97px;stroke:none;">1. Jin, Y.; Zhu, B.; Lu, Z.; Liu, N.; Zhu, J. Challenges and recent progress in the development of Si anodes for</text>
   <text y="396.706" x="98.05,100.659,103.268,106.191,111.41,114.019,119.426,127.343,130.329,132.938,137.834,143.0366,145.294,150.252,154.736,157.659,160.582,164.877,168.418,172.408" svgx:width="0.29,0.29,0.33,0.58,0.29,0.6,0.88,0.33,0.29,0.55,0.58,0.55,0.55,0.5,0.33,0.33,0.48,0.4,0.56,0.25" style="fill:rgb(0,0,0);font-family:URWPalladioL-Roma;font-size:8.97px;stroke:none;">lithium-ion battery.</text>
   <text y="396.706" x="177.787,184.261,188.744,192.734,194.97650000000002,198.114,203.592,208.578,212.066,215.392,219.875,224.36,226.6,235.064,239.045,242.031,245.519" svgx:width="0.72,0.5,0.5,0.25,0.55,0.61,0.56,0.39,0.39,0.5,0.5,0.55,0.94,0.44,0.33,0.39,0.39" style="fill:rgb(0,0,0);font-family:URWPalladioL-Ital;font-size:8.97px;stroke:none;">Adv. Energy Mater</text>
   <text y="396.706" x="251.248,255.731,260.214,264.698" svgx:width="0.5,0.5,0.5,0.5" style="fill:rgb(0,0,0);font-family:URWPalladioL-Bold;font-size:8.97px;stroke:none;">2017</text>
   <text y="396.706" x="269.181" svgx:width="0.25" style="fill:rgb(0,0,0);font-family:URWPalladioL-Roma;font-size:8.97px;stroke:none;">,</text>
   <text y="396.706" x="273.664" svgx:width="0.5" style="fill:rgb(0,0,0);font-family:URWPalladioL-Ital;font-size:8.97px;stroke:none;">7</text>
   <text y="396.706" x="278.147,280.3895,282.63,287.113,291.597,296.08,300.563,305.046,309.529,314.013,316.2555,319.393" svgx:width="0.25,0.55,0.5,0.5,0.5,0.5,0.5,0.5,0.5,0.25,0.55,0.33" style="fill:rgb(0,0,0);font-family:URWPalladioL-Roma;font-size:8.97px;stroke:none;">, 1700715. [</text>
   <text y="396.706" x="322.378,328.736,332.116,337.012,340.813,344.615,350.605,354.899" svgx:width="0.71,0.4,0.55,0.42,0.42,0.67,0.48,0.33" style="fill:rgb(8,117,183);font-family:URWPalladioL-Roma;font-size:8.97px;stroke:none;">CrossRef</text>
   <text y="396.706" x="357.885" svgx:width="0.33" style="fill:rgb(0,0,0);font-family:URWPalladioL-Roma;font-size:8.97px;stroke:none;">]</text>
   <text y="409.618" x="76.535,81.018,83.26050000000001,98.05,104.69,109.263,113.14,117.713,122.881,127.454,129.594,131.734,137.249,139.91,144.483,146.7255,149.65,156.766,159.052,161.2945,164.549,172.862,177.435,182.758,187.843,190.0855,193.019,199.504,201.79,204.0325,207.277,214.393,219.889,225.386,228.047,232.428,237.486,241.574,243.81650000000002,246.741,253.857,256.143,259.189,261.4315,264.356,271.956,276.529,281.852,286.845,289.80510000000004,292.781,297.354,302.677,308.1487,311.145,316.203,321.718,324.379,329.464,332.51,336.388,339.049,341.71,344.372,348.433,353.426,358.6286,361.63,366.687,371.26,375.138,379.519,384.9907,387.988,390.649,395.972,399.85,404.231,407.843,410.825,413.486,418.48,423.68260000000004,426.683,431.256,436.579,441.573,447.161,451.541,455.3084,458.3,461.346,466.339,469.927,472.842,475.503,478.165,481.146,486.469,489.13,494.645,502.721,505.766,508.428,513.421" svgx:width="0.5,0.25,0.55,0.73,0.5,0.42,0.5,0.56,0.5,0.23,0.23,0.6,0.29,0.5,0.25,0.55,0.78,0.25,0.25,0.55,1.0,0.5,0.58,0.56,0.25,0.55,0.71,0.25,0.25,0.55,0.78,0.6,0.6,0.29,0.48,0.55,0.56,0.25,0.55,0.78,0.25,0.33,0.25,0.55,0.83,0.5,0.58,0.55,0.33,0.55,0.5,0.58,0.61,0.55,0.55,0.6,0.29,0.56,0.33,0.42,0.29,0.29,0.29,0.44,0.55,0.58,0.55,0.55,0.5,0.42,0.48,0.61,0.55,0.29,0.58,0.42,0.48,0.4,0.33,0.29,0.55,0.58,0.55,0.5,0.58,0.55,0.61,0.48,0.42,0.55,0.33,0.55,0.4,0.55,0.29,0.29,0.33,0.58,0.29,0.6,0.88,0.33,0.29,0.55,0.58" style="fill:rgb(0,0,0);font-family:URWPalladioL-Roma;font-size:8.97px;stroke:none;">2. Kasavajjula, U.; Wang, C.; Appleby, A.J. Nano- and bulk-silicon based insertion anodes for lithium-ion</text>
   <text y="422.53" x="98.05,101.852,106.147,110.128,115.023,120.242,125.72,130.204,133.745,138.7682,140.972,144.953,149.248,151.857,154.467,158.268" svgx:width="0.42,0.48,0.44,0.55,0.58,0.61,0.5,0.4,0.56,0.55,0.44,0.48,0.29,0.29,0.42,0.25" style="fill:rgb(0,0,0);font-family:URWPalladioL-Roma;font-size:8.97px;stroke:none;">secondary cells.</text>
   <text y="422.53" x="163.648,166.634,168.8765,171.117,176.596,180.577,187.05,190.538,194.0363,196.268,201.253,205.234,210.22,213.546,217.195,220.683" svgx:width="0.33,0.25,0.55,0.61,0.44,0.72,0.39,0.39,0.55,0.56,0.44,0.56,0.39,0.41,0.39,0.39" style="fill:rgb(0,0,0);font-family:URWPalladioL-Ital;font-size:8.97px;stroke:none;">J. Power Sources</text>
   <text y="422.53" x="226.412,230.895,235.378,239.862" svgx:width="0.5,0.5,0.5,0.5" style="fill:rgb(0,0,0);font-family:URWPalladioL-Bold;font-size:8.97px;stroke:none;">2007</text>
   <text y="422.53" x="244.344" svgx:width="0.25" style="fill:rgb(0,0,0);font-family:URWPalladioL-Roma;font-size:8.97px;stroke:none;">,</text>
   <text y="422.53" x="248.828,253.311,257.794" svgx:width="0.5,0.5,0.5" style="fill:rgb(0,0,0);font-family:URWPalladioL-Ital;font-size:8.97px;stroke:none;">163</text>
   <text y="422.53" x="262.277,264.5195,266.76,271.243,275.727,280.21,284.693,289.176,293.659,298.143,302.626,307.109,309.3515,312.489" svgx:width="0.25,0.55,0.5,0.5,0.5,0.5,0.5,0.5,0.5,0.5,0.5,0.25,0.55,0.33" style="fill:rgb(0,0,0);font-family:URWPalladioL-Roma;font-size:8.97px;stroke:none;">, 1003–1039. [</text>
   <text y="422.53" x="315.475,321.832,325.212,330.108,333.91,337.711,343.701,347.996" svgx:width="0.71,0.4,0.55,0.42,0.42,0.67,0.48,0.33" style="fill:rgb(8,117,183);font-family:URWPalladioL-Roma;font-size:8.97px;stroke:none;">CrossRef</text>
   <text y="422.53" x="350.982" svgx:width="0.33" style="fill:rgb(0,0,0);font-family:URWPalladioL-Roma;font-size:8.97px;stroke:none;">]</text>
   <text y="435.441" x="76.535,81.018,83.26050000000001,98.05,103.589,108.121,116.126,124.13,128.472,131.391,133.6335,135.897,144.472,146.738,148.9805,151.244,157.825,162.774,168.05,170.688,175.728,179.572,183.914,189.453,193.795,196.714,198.9565,201.219,208.272,210.538,212.78050000000002,215.043,221.96,224.598,230.064,233.908,237.932,243.208,245.846,248.801,251.0435,253.307,257.631,259.897,262.1395,264.402,271.944,276.477,280.502,285.542,289.884,292.794,295.0365,297.308,302.693,304.9355,307.198,310.253,315.529,321.041,326.507,330.849,336.125,340.15,344.4556,346.731,351.681,354.6411,356.938,361.471,366.511,369.149,374.425,379.4482,381.704,386.653,391.85560000000004,394.168,397.124,402.399,406.7046,408.99,414.266,418.608,423.14,426.1001,428.335,432.867,438.143,443.61469999999997,445.921,450.961,455.493,459.2604,461.576,465.918,473.923,476.56,480.404,484.248,486.885,491.835,497.0376,499.35,502.369,505.786,510.736" svgx:width="0.5,0.25,0.55,0.61,0.5,0.88,0.88,0.48,0.4,0.25,0.55,0.95,0.25,0.25,0.55,0.73,0.55,0.58,0.29,0.56,0.42,0.48,0.61,0.48,0.4,0.25,0.55,0.78,0.25,0.25,0.55,0.76,0.29,0.6,0.42,0.44,0.58,0.29,0.33,0.25,0.55,0.6,0.25,0.25,0.55,0.83,0.5,0.44,0.56,0.48,0.4,0.25,0.55,0.72,0.25,0.55,0.34,0.58,0.61,0.6,0.48,0.58,0.44,0.48,0.55,0.55,0.33,0.55,0.5,0.56,0.29,0.58,0.56,0.55,0.55,0.58,0.55,0.33,0.58,0.48,0.55,0.58,0.48,0.5,0.33,0.55,0.5,0.58,0.61,0.55,0.56,0.5,0.42,0.55,0.48,0.88,0.29,0.42,0.42,0.29,0.55,0.58,0.55,0.33,0.4,0.55,0.88" style="fill:rgb(0,0,0);font-family:URWPalladioL-Roma;font-size:8.97px;stroke:none;">3. Lammer, M.; Königseder, A.; Gluschit, P.; Hacker, V. Inﬂuence of aging on the heat and gas emission from</text>
   <text y="448.353" x="98.05,102.027,106.918,114.827,122.737,127.027,130.404,134.381,136.988,141.467,144.06830000000002,146.313,148.919,151.526,154.446,159.659,162.266,167.667,177.816,180.423,185.313,190.51559999999998,192.775,196.752,201.043,203.649,206.256,210.0234,212.293,214.9,220.1026,222.352,226.329,230.808,234.606,238.9116,241.136,246.027,248.9871,251.258,254.178,259.391,263.682,267.22,275.13,279.608,282.2093,284.454,287.437,291.916,294.522,297.129,302.53,305.907,310.198" svgx:width="0.44,0.55,0.88,0.88,0.48,0.4,0.44,0.29,0.5,0.29,0.55,0.29,0.29,0.33,0.58,0.29,0.6,0.88,0.29,0.55,0.58,0.55,0.44,0.48,0.29,0.29,0.42,0.55,0.29,0.58,0.55,0.44,0.5,0.42,0.48,0.55,0.55,0.33,0.55,0.33,0.58,0.48,0.4,0.88,0.5,0.29,0.55,0.33,0.5,0.29,0.29,0.6,0.4,0.48,0.25" style="fill:rgb(0,0,0);font-family:URWPalladioL-Roma;font-size:8.97px;stroke:none;">commercial lithiumion cells in case of thermal failure.</text>
   <text y="448.353" x="315.572,318.555,320.7975,323.034,328.507,330.997,334.481,338.127,341.11,344.433,348.41,352.056,356.534,360.019,366.988,369.2305,372.371,377.351,380.997,383.478,385.7205,388.862,394.335,399.315,403.794" svgx:width="0.33,0.25,0.55,0.61,0.28,0.39,0.41,0.33,0.39,0.44,0.41,0.5,0.39,0.78,0.25,0.55,0.56,0.41,0.28,0.25,0.55,0.61,0.56,0.5,0.25" style="fill:rgb(0,0,0);font-family:URWPalladioL-Ital;font-size:8.97px;stroke:none;">J. Electrochem. Sci. Eng.</text>
   <text y="448.353" x="409.17,413.653,418.136,422.62" svgx:width="0.5,0.5,0.5,0.5" style="fill:rgb(0,0,0);font-family:URWPalladioL-Bold;font-size:8.97px;stroke:none;">2018</text>
   <text y="448.353" x="427.103" svgx:width="0.25" style="fill:rgb(0,0,0);font-family:URWPalladioL-Roma;font-size:8.97px;stroke:none;">,</text>
   <text y="448.353" x="431.584" svgx:width="0.5" style="fill:rgb(0,0,0);font-family:URWPalladioL-Ital;font-size:8.97px;stroke:none;">8</text>
   <text y="448.353" x="436.062,438.3045,440.541,445.019,449.498,453.977,458.456,462.934,467.413,471.892,474.1345,477.275" svgx:width="0.25,0.55,0.5,0.5,0.5,0.5,0.5,0.5,0.5,0.25,0.55,0.33" style="fill:rgb(0,0,0);font-family:URWPalladioL-Roma;font-size:8.97px;stroke:none;">, 101–110. [</text>
   <text y="448.353" x="480.258,486.609,489.986,494.877,498.675,502.472,508.456,512.747" svgx:width="0.71,0.4,0.55,0.42,0.42,0.67,0.48,0.33" style="fill:rgb(8,117,183);font-family:URWPalladioL-Roma;font-size:8.97px;stroke:none;">CrossRef</text>
   <text y="448.353" x="515.729" svgx:width="0.33" style="fill:rgb(0,0,0);font-family:URWPalladioL-Roma;font-size:8.97px;stroke:none;">]</text>
   <text y="461.264" x="76.535,81.018,98.05,104.132,109.631,114.61,119.124,125.206,127.486,131.999,138.082,143.389,148.887,153.392,156.429,158.708,163.222,172.852,171.849,177.347,180.001,182.655,187.022,190.469,193.506,199.078,204.576,208.443,212.491,217.799,222.841,227.401,232.899,240.951,245.456,249.806,252.085,256.608,263.073,268.381,272.749,278.056,283.117,287.63,292.719,294.998,298.035,301.072,305.585,310.373,313.026,315.68,318.333,322.382,327.361,334.893,339.936,344.495,348.362,352.73,360.535,363.189,365.843,368.815,374.122,376.776,382.275,392.561,395.214,400.193,407.725,412.768,417.327,420.3,423.273,427.641,431.243,438.547,443.106,448.414,453.392,458.964,463.332,467.198,472.606,481.934,485.983,491.29,494.728,499.707,505.014,507.668,511.716,514.37" svgx:width="0.5,0.25,0.67,0.6,0.55,0.25,0.67,0.25,0.25,0.67,0.58,0.6,0.25,0.33,0.25,0.25,0.95,0.38,0.6,0.29,0.29,0.48,0.4,0.33,0.61,0.6,0.42,0.44,0.58,0.55,0.5,0.6,0.88,0.25,0.6,0.25,0.25,0.71,0.58,0.48,0.58,0.56,0.25,0.67,0.25,0.33,0.33,0.25,0.52,0.29,0.29,0.29,0.44,0.55,0.58,0.55,0.5,0.42,0.48,0.61,0.29,0.29,0.33,0.58,0.29,0.6,0.88,0.29,0.55,0.58,0.55,0.5,0.33,0.33,0.48,0.4,0.56,0.5,0.58,0.55,0.61,0.48,0.42,0.25,0.78,0.44,0.58,0.4,0.55,0.58,0.29,0.44,0.29,0.48" style="fill:rgb(0,0,0);font-family:URWPalladioL-Roma;font-size:8.97px;stroke:none;">4.Zuo,X.;Zhu,J.;M˝uller-Buschbaum,P.;Cheng,Y.-J.Siliconbasedlithiumionbatteryanodes:Achronicle</text>
   <text y="474.176" x="97.781,103.17,107.465,111.006,114.808,120.197,124.492,128.473,131.396,134.005,139.071,143.3766,145.608,148.988,153.283,158.349,160.958,165.253,171.906" svgx:width="0.6,0.48,0.4,0.42,0.6,0.48,0.44,0.33,0.29,0.56,0.48,0.55,0.4,0.48,0.56,0.29,0.48,0.83,0.25" style="fill:rgb(0,0,0);font-family:URWPalladioL-Roma;font-size:8.97px;stroke:none;">perspective review.</text>
   <text y="474.176" x="177.285,184.261,188.242,193.227,197.1738,199.45,204.928,209.914,213.402,216.728,221.211" svgx:width="0.78,0.44,0.56,0.44,0.55,0.61,0.56,0.39,0.39,0.5,0.5" style="fill:rgb(0,0,0);font-family:URWPalladioL-Ital;font-size:8.97px;stroke:none;">Nano Energy</text>
   <text y="474.176" x="227.936,232.419,236.902,241.386" svgx:width="0.5,0.5,0.5,0.5" style="fill:rgb(0,0,0);font-family:URWPalladioL-Bold;font-size:8.97px;stroke:none;">2017</text>
   <text y="474.176" x="245.868" svgx:width="0.25" style="fill:rgb(0,0,0);font-family:URWPalladioL-Roma;font-size:8.97px;stroke:none;">,</text>
   <text y="474.176" x="250.352,254.835" svgx:width="0.5,0.5" style="fill:rgb(0,0,0);font-family:URWPalladioL-Ital;font-size:8.97px;stroke:none;">31</text>
   <text y="474.176" x="259.318,261.5605,263.801,268.284,272.768,277.251,281.734,286.217,290.701,295.184,297.42650000000003,300.564" svgx:width="0.25,0.55,0.5,0.5,0.5,0.5,0.5,0.5,0.5,0.25,0.55,0.33" style="fill:rgb(0,0,0);font-family:URWPalladioL-Roma;font-size:8.97px;stroke:none;">, 113–143. [</text>
   <text y="474.176" x="303.549,309.907,313.287,318.183,321.984,325.786,331.776,336.07" svgx:width="0.71,0.4,0.55,0.42,0.42,0.67,0.48,0.33" style="fill:rgb(8,117,183);font-family:URWPalladioL-Roma;font-size:8.97px;stroke:none;">CrossRef</text>
   <text y="474.176" x="339.056" svgx:width="0.33" style="fill:rgb(0,0,0);font-family:URWPalladioL-Roma;font-size:8.97px;stroke:none;">]</text>
   <text y="487.088" x="76.535,81.018,83.26050000000001,98.05,103.638,108.019,112.4,114.64250000000001,117.082,120.128,122.414,130.737,133.023,135.2655,137.788,143.065,148.059,153.144,157.525,161.402,166.725,168.9675,171.408,178.048,180.334,182.5765,185.099,192.214,197.537,202.622,208.137,212.198,217.521,222.094,230.169,234.257,236.4995,238.949,245.589,247.875,250.1175,252.64,258.164,263.158,268.654,273.648,277.818,280.0605,282.501,288.089,290.376,297.976,300.2185,302.658,307.46,310.121,318.197,323.712,326.373,330.946,333.927,336.589,341.582,346.7846,349.311,354.304,357.2641,359.746,363.807,369.129,373.702,377.15,382.235,386.616,389.662,395.25,397.911,401.789,405.849,411.172,415.745,419.202,424.287,428.5926,431.064,435.125,440.21,444.271,446.932,449.593,454.916,459.93919999999997,462.397,467.391,470.35110000000003,472.842,475.503,478.165,481.146,486.469,489.13,494.645,502.721,505.767,508.428,513.422" svgx:width="0.5,0.25,0.55,0.61,0.48,0.48,0.25,0.55,0.33,0.25,1.0,0.25,0.25,0.55,0.67,0.55,0.56,0.48,0.42,0.58,0.25,0.55,0.73,0.25,0.25,0.55,0.78,0.58,0.56,0.6,0.44,0.58,0.5,0.88,0.56,0.25,0.55,0.73,0.25,0.25,0.55,0.6,0.55,0.6,0.55,0.56,0.25,0.55,0.61,0.25,0.83,0.25,0.55,0.52,0.29,0.88,0.6,0.29,0.5,0.33,0.29,0.55,0.58,0.55,0.55,0.33,0.55,0.44,0.58,0.5,0.4,0.56,0.48,0.33,0.61,0.29,0.42,0.44,0.58,0.5,0.4,0.56,0.48,0.55,0.44,0.56,0.44,0.29,0.29,0.58,0.56,0.55,0.55,0.33,0.55,0.29,0.29,0.33,0.58,0.29,0.6,0.88,0.33,0.29,0.55,0.58" style="fill:rgb(0,0,0);font-family:URWPalladioL-Roma;font-size:8.97px;stroke:none;">5. Lee, J.W.; Yogesh, K.; Anguchamy, K.; Popov, B.N. Simulation of charge-discharge cycling of lithium-ion</text>
   <text y="499.999" x="98.05,103.008,107.492,110.415,113.338,117.633,121.174,123.784,128.078,131.8454,134.122,139.529,144.747,150.225,154.52,158.108,160.304,162.913,167.809,175.287,178.272,182.567,187.05,190.592,193.515,198.734,201.72,206.615,210.157,215.115,217.725,220.6851,222.889,226.87,231.766,236.984,242.463,245.072,247.995,250.604,255.5,260.718,264.52" svgx:width="0.55,0.5,0.33,0.33,0.48,0.4,0.29,0.48,0.42,0.55,0.6,0.58,0.61,0.48,0.4,0.55,0.29,0.55,0.83,0.33,0.48,0.5,0.4,0.33,0.58,0.33,0.55,0.4,0.55,0.29,0.33,0.55,0.44,0.55,0.58,0.61,0.29,0.33,0.29,0.55,0.58,0.42,0.25" style="fill:rgb(0,0,0);font-family:URWPalladioL-Roma;font-size:8.97px;stroke:none;">batteries under low-earth-orbit conditions.</text>
   <text y="499.999" x="269.898,272.884,275.1265,277.367,282.846,286.827,293.3,296.788,300.2863,302.518,307.503,311.484,316.47,319.796,323.445,326.933" svgx:width="0.33,0.25,0.55,0.61,0.44,0.72,0.39,0.39,0.55,0.56,0.44,0.56,0.39,0.41,0.39,0.39" style="fill:rgb(0,0,0);font-family:URWPalladioL-Ital;font-size:8.97px;stroke:none;">J. Power Sources</text>
   <text y="499.999" x="332.661,337.144,341.627,346.111" svgx:width="0.5,0.5,0.5,0.5" style="fill:rgb(0,0,0);font-family:URWPalladioL-Bold;font-size:8.97px;stroke:none;">2006</text>
   <text y="499.999" x="350.594" svgx:width="0.25" style="fill:rgb(0,0,0);font-family:URWPalladioL-Roma;font-size:8.97px;stroke:none;">,</text>
   <text y="499.999" x="355.077,359.56,364.043" svgx:width="0.5,0.5,0.5" style="fill:rgb(0,0,0);font-family:URWPalladioL-Ital;font-size:8.97px;stroke:none;">162</text>
   <text y="499.999" x="368.527,370.7695,373.01,377.493,381.977,386.46,390.943,395.426,399.91,404.393,408.876,413.359,415.6015,418.739" svgx:width="0.25,0.55,0.5,0.5,0.5,0.5,0.5,0.5,0.5,0.5,0.5,0.25,0.55,0.33" style="fill:rgb(0,0,0);font-family:URWPalladioL-Roma;font-size:8.97px;stroke:none;">, 1395–1400. [</text>
   <text y="499.999" x="421.725,428.082,431.462,436.358,440.16,443.962,449.951,454.246" svgx:width="0.71,0.4,0.55,0.42,0.42,0.67,0.48,0.33" style="fill:rgb(8,117,183);font-family:URWPalladioL-Roma;font-size:8.97px;stroke:none;">CrossRef</text>
   <text y="499.999" x="457.232" svgx:width="0.33" style="fill:rgb(0,0,0);font-family:URWPalladioL-Roma;font-size:8.97px;stroke:none;">]</text>
   <text y="512.911" x="76.535,81.018,83.26050000000001,98.05,103.638,107.086,112.08,117.594,121.472,125.35,129.731,132.392,136.49,138.73250000000002,141.245,149.897,152.184,154.4265,157.067,162.655,165.317,169.698,175.02,178.898,183.471,188.794,191.03650000000002,193.559,197.931,200.217,202.45950000000002,205.101,209.902,212.564,220.639,225.633,230.956,233.1985,235.721,241.309,243.5515,246.074,251.662,254.323,257.305,262.627,265.289,270.804,278.69759999999997,281.349,284.01,289.333,293.211,297.592,301.204,304.186,306.847,311.841,317.0436,319.642,322.303,327.626,330.608,335.5415,338.08,343.402,348.396,352.274,355.2341,357.734,365.809,370.382,373.364,377.745,381.357,384.019,388.591,391.1923,393.731,397.609,399.8515,403.508,409.114,414.437,418.74260000000004,421.297,426.382,430.762,435.7852,438.326,441.307,446.2405,448.779,452.657,458.172,462.233,466.293,470.674,474.552,478.31940000000003,480.908,483.954,488.947,492.535,495.038,500.626,503.22729999999996,505.766,508.428,513.421" svgx:width="0.5,0.25,0.55,0.61,0.4,0.55,0.6,0.42,0.42,0.48,0.29,0.56,0.25,0.55,0.95,0.25,0.25,0.55,0.61,0.29,0.48,0.58,0.42,0.5,0.58,0.25,0.55,0.6,0.25,0.25,0.55,0.52,0.29,0.88,0.55,0.58,0.25,0.55,0.61,0.25,0.55,0.61,0.29,0.33,0.58,0.29,0.6,0.88,0.55,0.29,0.58,0.42,0.48,0.4,0.33,0.29,0.55,0.58,0.55,0.29,0.58,0.33,0.55,0.55,0.58,0.55,0.42,0.33,0.55,0.88,0.5,0.33,0.48,0.4,0.29,0.5,0.29,0.55,0.42,0.25,0.55,0.61,0.58,0.48,0.55,0.56,0.48,0.56,0.55,0.33,0.55,0.55,0.42,0.6,0.44,0.44,0.48,0.42,0.42,0.55,0.33,0.55,0.4,0.55,0.61,0.29,0.55,0.29,0.55,0.58" style="fill:rgb(0,0,0);font-family:URWPalladioL-Roma;font-size:8.97px;stroke:none;">6. Broussely, M.; Biensan, P.; Simon, B. Lithium insertion into host material s: The key to success for Li ion</text>
   <text y="525.822" x="98.05,103.008,107.492,110.415,113.338,117.633,121.174,123.784,128.078,131.88" svgx:width="0.55,0.5,0.33,0.33,0.48,0.4,0.29,0.48,0.42,0.25" style="fill:rgb(0,0,0);font-family:URWPalladioL-Roma;font-size:8.97px;stroke:none;">batteries.</text>
   <text y="525.822" x="137.26,142.738,145.231,148.719,152.368,155.354,158.681,162.662,166.311,170.794,173.287,180.263,182.5055,185.643,192.116,195.766,198.752" svgx:width="0.61,0.28,0.39,0.41,0.33,0.39,0.44,0.41,0.5,0.28,0.78,0.25,0.55,0.72,0.41,0.33,0.44" style="fill:rgb(0,0,0);font-family:URWPalladioL-Ital;font-size:8.97px;stroke:none;">Electrochim. Acta</text>
   <text y="525.822" x="204.973,209.456,213.939,218.423" svgx:width="0.5,0.5,0.5,0.5" style="fill:rgb(0,0,0);font-family:URWPalladioL-Bold;font-size:8.97px;stroke:none;">1999</text>
   <text y="525.822" x="222.906" svgx:width="0.25" style="fill:rgb(0,0,0);font-family:URWPalladioL-Roma;font-size:8.97px;stroke:none;">,</text>
   <text y="525.822" x="227.389,231.872" svgx:width="0.5,0.5" style="fill:rgb(0,0,0);font-family:URWPalladioL-Ital;font-size:8.97px;stroke:none;">45</text>
   <text y="525.822" x="236.355,238.5975,240.838,245.321,249.805,254.288,258.771,261.0135,264.151" svgx:width="0.25,0.55,0.5,0.5,0.5,0.5,0.25,0.55,0.33" style="fill:rgb(0,0,0);font-family:URWPalladioL-Roma;font-size:8.97px;stroke:none;">, 3–22. [</text>
   <text y="525.822" x="267.137,273.494,276.874,281.77,285.572,289.373,295.363,299.658" svgx:width="0.71,0.4,0.55,0.42,0.42,0.67,0.48,0.33" style="fill:rgb(8,117,183);font-family:URWPalladioL-Roma;font-size:8.97px;stroke:none;">CrossRef</text>
   <text y="525.822" x="302.644" svgx:width="0.33" style="fill:rgb(0,0,0);font-family:URWPalladioL-Roma;font-size:8.97px;stroke:none;">]</text>
   <text y="538.734" x="76.535,81.018,83.26050000000001,98.05,106.363,111.16,116.274,119.745,122.302,124.54450000000001,126.309,134.622,136.819,139.0615,140.966,146.001,150.395,155.509,159.902,164.788,167.345,171.071,175.464,182.793,187.186,189.4285,191.193,198.495,200.692,202.9345,204.839,209.4,213.793,215.849,218.407,226.165,230.559,232.8015,234.566,239.434,241.631,243.8735,245.778,254.091,256.648,259.512,263.906,266.771,270.98,273.2225,274.987,282.297,284.494,286.73650000000004,288.642,295.944,300.337,305.223,309.616,311.673,314.23,321.989,326.382,328.6245,330.389,335.002,337.199,339.4415,341.347,346.382,351.179,354.905,360.019,362.576,367.945,372.339,374.5815,376.345,384.658,386.855,389.0975,391.002,396.037,400.835,404.561,407.118,414.877,419.674,422.539,427.337,429.5795,431.344,436.212,438.409,440.6515,442.556,447.169,452.468,456.861,462.16,467.046,469.603,471.8455,473.61,478.328,480.525,482.7675,484.681,492.642,497.036,502.405,506.798,509.0405,510.805,518.116" svgx:width="0.5,0.25,0.55,0.95,0.55,0.58,0.4,0.29,0.25,0.55,0.95,0.25,0.25,0.55,0.67,0.5,0.58,0.5,0.56,0.29,0.42,0.5,0.83,0.5,0.25,0.55,0.83,0.25,0.25,0.55,0.61,0.5,0.23,0.29,0.88,0.5,0.25,0.55,0.67,0.25,0.25,0.55,0.95,0.29,0.33,0.5,0.33,0.48,0.25,0.55,0.83,0.25,0.25,0.55,0.83,0.5,0.56,0.5,0.23,0.29,0.88,0.5,0.25,0.55,0.52,0.25,0.25,0.55,0.67,0.55,0.42,0.58,0.29,0.61,0.5,0.25,0.55,0.95,0.25,0.25,0.55,0.67,0.55,0.42,0.29,0.88,0.55,0.33,0.55,0.25,0.55,0.67,0.25,0.25,0.55,0.52,0.6,0.5,0.6,0.56,0.29,0.25,0.55,0.61,0.25,0.25,0.55,1.0,0.5,0.61,0.5,0.25,0.55,0.83,0.25" style="fill:rgb(0,0,0);font-family:URWPalladioL-Roma;font-size:8.97px;stroke:none;">7. Mohri, M.; Yanagisawa, N.; Tajima, Y.; Mitate, H.; Nakajima, S.; Yoshida, M.; Yosimoto, Y.; Suzuki, T.; Wada, H.</text>
   <text y="551.646" x="98.05,104.159,108.54,112.601,117.924,122.304,126.877,130.325,135.41,139.983,145.041,147.702,152.0076,154.397,157.058,159.72,162.701,168.024,170.685,176.2,184.09359999999998,186.59,191.647,196.22,199.202,202.183,206.564,210.177,215.2002,217.576,222.633,227.206,231.084,235.465,240.9367,243.376,248.369,253.5716,256.006,261.502,266.587,270.035,275.029,277.69,282.775,285.757,288.418,292.3648,294.793,298.854,303.426,307.039,312.097,317.09,322.2926,324.727,329.3,333.0674,335.491,339.976,342.378,347.701,352.082,357.167,361.74,364.721,367.383,372.55,376.85560000000004,379.245,383.625,386.287,390.668,394.728,397.71,401.167,406.16,411.748,416.129" svgx:width="0.67,0.48,0.44,0.58,0.48,0.5,0.4,0.56,0.5,0.55,0.29,0.48,0.55,0.29,0.29,0.33,0.58,0.29,0.6,0.88,0.55,0.55,0.5,0.33,0.33,0.48,0.4,0.56,0.55,0.55,0.5,0.42,0.48,0.61,0.55,0.55,0.58,0.55,0.6,0.56,0.4,0.55,0.29,0.56,0.33,0.29,0.44,0.55,0.44,0.5,0.4,0.55,0.55,0.58,0.55,0.5,0.42,0.55,0.5,0.55,0.58,0.48,0.56,0.5,0.33,0.29,0.56,0.48,0.55,0.48,0.29,0.48,0.44,0.33,0.4,0.55,0.61,0.48,0.25" style="fill:rgb(0,0,0);font-family:URWPalladioL-Roma;font-size:8.97px;stroke:none;">Recheargable lithium battery based on pyrolytic carbon as a negative electrode.</text>
   <text y="551.646" x="421.769,424.815,427.0575,429.415,435.003,439.064,445.667,449.224,452.7223,455.096,460.181,464.242,469.327,472.729,476.451,480.0" svgx:width="0.33,0.25,0.55,0.61,0.44,0.72,0.39,0.39,0.55,0.56,0.44,0.56,0.39,0.41,0.39,0.39" style="fill:rgb(0,0,0);font-family:URWPalladioL-Ital;font-size:8.97px;stroke:none;">J. Power Sources</text>
   <text y="551.646" x="485.877,490.36,494.843,499.327" svgx:width="0.5,0.5,0.5,0.5" style="fill:rgb(0,0,0);font-family:URWPalladioL-Bold;font-size:8.97px;stroke:none;">1989</text>
   <text y="551.646" x="503.809" svgx:width="0.25" style="fill:rgb(0,0,0);font-family:URWPalladioL-Roma;font-size:8.97px;stroke:none;">,</text>
   <text y="551.646" x="508.429,513.002" svgx:width="0.5,0.5" style="fill:rgb(0,0,0);font-family:URWPalladioL-Ital;font-size:8.97px;stroke:none;">26</text>
   <text y="551.646" x="517.575" svgx:width="0.25" style="fill:rgb(0,0,0);font-family:URWPalladioL-Roma;font-size:8.97px;stroke:none;">,</text>
   <text y="564.557" x="98.05,102.533,107.016,111.5,115.983,120.466,124.949,129.432,131.6745,134.812" svgx:width="0.5,0.5,0.5,0.5,0.5,0.5,0.5,0.25,0.55,0.33" style="fill:rgb(0,0,0);font-family:URWPalladioL-Roma;font-size:8.97px;stroke:none;">545–551. [</text>
   <text y="564.557" x="137.798,144.155,147.536,152.431,156.233,160.035,166.024,170.319" svgx:width="0.71,0.4,0.55,0.42,0.42,0.67,0.48,0.33" style="fill:rgb(8,117,183);font-family:URWPalladioL-Roma;font-size:8.97px;stroke:none;">CrossRef</text>
   <text y="564.557" x="173.305" svgx:width="0.33" style="fill:rgb(0,0,0);font-family:URWPalladioL-Roma;font-size:8.97px;stroke:none;">]</text>
   <text y="577.469" x="76.535,81.018,83.26050000000001,98.05,105.21,109.765,114.32,121.918,126.473,128.7155,130.991,137.605,139.8475,142.124,147.69,150.341,153.31,158.612,161.263,166.757,174.801,177.834,180.485,185.459,190.6616,193.002,196.446,200.809,204.854,210.156,214.711,218.145,223.21,227.574,232.129,237.167,239.818,244.1236,246.422,251.46,256.015,258.985,261.955,266.318,269.917,272.568,276.931,280.6984,283.035,290.632,293.283,296.253,301.4556,303.796,309.362,312.013,318.472,323.446" svgx:width="0.5,0.25,0.55,0.79,0.5,0.5,0.83,0.5,0.25,0.55,0.73,0.25,0.55,0.61,0.29,0.33,0.58,0.29,0.6,0.88,0.33,0.29,0.55,0.58,0.55,0.4,0.48,0.44,0.58,0.5,0.4,0.56,0.48,0.5,0.55,0.29,0.48,0.55,0.55,0.5,0.33,0.33,0.48,0.4,0.29,0.48,0.42,0.55,0.83,0.29,0.33,0.58,0.55,0.61,0.29,0.71,0.55,0.79" style="fill:rgb(0,0,0);font-family:URWPalladioL-Roma;font-size:8.97px;stroke:none;">8. Ozawa, K. Lithium-ion rechargeable batteries with LiCoO</text>
   <text y="579.26" x="330.606" svgx:width="0.5" style="fill:rgb(0,0,0);font-family:URWPalladioL-Roma;font-size:6.97px;stroke:none;">2</text>
   <text y="577.469" x="336.833,341.388,346.69,352.1617,354.497,358.542,363.097,366.695,371.733,376.707,381.9096,384.25,388.613,391.264,395.628,399.673,402.643,406.077,411.051,416.617,420.981,424.843,427.0855,430.264,435.848,441.15,445.4556,447.755,453.321,455.972,462.431,467.405" svgx:width="0.5,0.58,0.61,0.55,0.44,0.5,0.4,0.55,0.55,0.58,0.55,0.48,0.29,0.48,0.44,0.33,0.4,0.55,0.61,0.48,0.42,0.25,0.55,0.61,0.58,0.48,0.55,0.61,0.29,0.71,0.55,0.79" style="fill:rgb(0,0,0);font-family:URWPalladioL-Roma;font-size:8.97px;stroke:none;">and carbon electrodes: The LiCoO</text>
   <text y="579.26" x="474.564" svgx:width="0.5" style="fill:rgb(0,0,0);font-family:URWPalladioL-Roma;font-size:6.97px;stroke:none;">2</text>
   <text y="577.469" x="478.549" svgx:width="0.29" style="fill:rgb(0,0,0);font-family:Rpxr;font-size:8.97px;stroke:none;">/</text>
   <text y="577.469" x="481.164,487.5327,489.864,493.727,498.792,502.654,505.624,509.988,518.032" svgx:width="0.71,0.55,0.42,0.56,0.42,0.33,0.48,0.88,0.25" style="fill:rgb(0,0,0);font-family:URWPalladioL-Roma;font-size:8.97px;stroke:none;">C system.</text>
   <text y="590.381" x="97.799,102.784,106.765,109.258,111.751,116.236,118.476,123.461,126.447,130.428,133.414,136.9123,139.143,142.129,146.11,151.095,153.588,157.237" svgx:width="0.56,0.44,0.28,0.28,0.5,0.55,0.56,0.33,0.44,0.33,0.39,0.55,0.33,0.44,0.56,0.28,0.41,0.39" style="fill:rgb(0,0,0);font-family:URWPalladioL-Ital;font-size:8.97px;stroke:none;">Solid State Ionics</text>
   <text y="590.381" x="162.966,167.449,171.932,176.416" svgx:width="0.5,0.5,0.5,0.5" style="fill:rgb(0,0,0);font-family:URWPalladioL-Bold;font-size:8.97px;stroke:none;">1994</text>
   <text y="590.381" x="180.899" svgx:width="0.25" style="fill:rgb(0,0,0);font-family:URWPalladioL-Roma;font-size:8.97px;stroke:none;">,</text>
   <text y="590.381" x="185.382,189.865" svgx:width="0.5,0.5" style="fill:rgb(0,0,0);font-family:URWPalladioL-Ital;font-size:8.97px;stroke:none;">69</text>
   <text y="590.381" x="194.348,196.59050000000002,198.831,203.314,207.798,212.281,216.764,221.247,225.73,230.214,232.4565,235.593" svgx:width="0.25,0.55,0.5,0.5,0.5,0.5,0.5,0.5,0.5,0.25,0.55,0.33" style="fill:rgb(0,0,0);font-family:URWPalladioL-Roma;font-size:8.97px;stroke:none;">, 212–221. [</text>
   <text y="590.381" x="238.579,244.936,248.317,253.212,257.014,260.816,266.806,271.1" svgx:width="0.71,0.4,0.55,0.42,0.42,0.67,0.48,0.33" style="fill:rgb(8,117,183);font-family:URWPalladioL-Roma;font-size:8.97px;stroke:none;">CrossRef</text>
   <text y="590.381" x="274.086" svgx:width="0.33" style="fill:rgb(0,0,0);font-family:URWPalladioL-Roma;font-size:8.97px;stroke:none;">]</text>
   <text y="603.292" x="76.535,81.018,83.26050000000001,98.05,103.638,106.299,108.54150000000001,111.165,115.537,117.823,120.0655,122.853,128.953,134.276,138.849,143.843,146.0855,148.708,155.686,157.973,160.21550000000002,163.012,169.112,174.435,178.816,184.139,189.224,191.4665,194.089,200.19,202.476,204.7185,207.506,213.606,219.121,221.36350000000002,223.987,230.087,232.373,234.6155,237.413,242.681,247.253,252.247,254.48950000000002,257.113,263.597,265.883,268.1255,270.923,275.724,281.239,286.562,288.8045,291.427,299.75,301.9925,304.616,310.725,315.106,319.166,323.547,328.87,331.8301,334.431,339.927,343.375,348.369,353.454,356.902,361.282,365.16,368.92740000000003,371.617,376.611,381.8136,384.513,388.39,391.052,393.713,396.375,400.435,405.429,410.752,413.797,418.855,423.428,427.305,431.686,437.1577,439.853,444.426,449.749,454.743,460.331,464.63660000000004,467.291,475.366,479.939,482.921,487.301,490.914,493.575,498.148,500.81,504.5774,507.267,510.312,515.306" svgx:width="0.5,0.25,0.55,0.61,0.29,0.25,0.55,0.6,0.25,0.25,0.55,0.67,0.58,0.5,0.55,0.25,0.55,0.76,0.25,0.25,0.55,0.67,0.58,0.48,0.58,0.56,0.25,0.55,0.67,0.25,0.25,0.55,0.67,0.6,0.25,0.55,0.67,0.25,0.25,0.55,0.67,0.5,0.55,0.25,0.55,0.71,0.25,0.25,0.55,0.52,0.6,0.58,0.25,0.55,1.0,0.25,0.55,0.67,0.48,0.44,0.48,0.58,0.33,0.55,0.6,0.4,0.55,0.56,0.4,0.48,0.42,0.42,0.55,0.55,0.58,0.55,0.42,0.29,0.29,0.29,0.44,0.55,0.58,0.33,0.55,0.5,0.42,0.48,0.61,0.55,0.5,0.58,0.55,0.61,0.48,0.55,0.88,0.5,0.33,0.48,0.4,0.29,0.5,0.29,0.42,0.55,0.33,0.55,0.4" style="fill:rgb(0,0,0);font-family:URWPalladioL-Roma;font-size:8.97px;stroke:none;">9. Li, P.; Zhao, G.; Zheng, X.; Xu, X.; Yao, C.; Sun, W. Recent progress on silicon-based anode materials for</text>
   <text y="616.204" x="97.781,103.17,106.712,111.195,115.176,118.099,120.708,124.689,129.172,131.7733,134.023,136.632,139.242,142.165,147.383,149.992,155.399,163.316,166.302,168.911,173.807,179.00959999999998,181.267,186.226,190.709,193.632,196.555,200.85,204.392,209.4152,211.618,216.102,221.49,226.879,229.488,232.098,236.079,240.562,243.485,246.094,250.99,256.208,260.01" svgx:width="0.6,0.4,0.5,0.44,0.33,0.29,0.44,0.5,0.29,0.55,0.29,0.29,0.33,0.58,0.29,0.6,0.88,0.33,0.29,0.55,0.58,0.55,0.55,0.5,0.33,0.33,0.48,0.4,0.56,0.55,0.5,0.6,0.6,0.29,0.29,0.44,0.5,0.33,0.29,0.55,0.58,0.42,0.25" style="fill:rgb(0,0,0);font-family:URWPalladioL-Roma;font-size:8.97px;stroke:none;">practical lithium-ion battery applications.</text>
   <text y="616.204" x="265.387,270.865,275.851,279.339,282.665,287.148,291.63300000000004,293.873,298.859,301.844,305.825,309.313,313.294,317.778,321.2763,323.507,331.971,335.953,338.938,342.426,345.251" svgx:width="0.61,0.56,0.39,0.39,0.5,0.5,0.55,0.56,0.33,0.44,0.39,0.44,0.5,0.39,0.55,0.94,0.44,0.33,0.39,0.39,0.25" style="fill:rgb(0,0,0);font-family:URWPalladioL-Ital;font-size:8.97px;stroke:none;">Energy Storage Mater.</text>
   <text y="616.204" x="350.63,355.113,359.596,364.08" svgx:width="0.5,0.5,0.5,0.5" style="fill:rgb(0,0,0);font-family:URWPalladioL-Bold;font-size:8.97px;stroke:none;">2018</text>
   <text y="616.204" x="368.562" svgx:width="0.25" style="fill:rgb(0,0,0);font-family:URWPalladioL-Roma;font-size:8.97px;stroke:none;">,</text>
   <text y="616.204" x="373.046,377.529" svgx:width="0.5,0.5" style="fill:rgb(0,0,0);font-family:URWPalladioL-Ital;font-size:8.97px;stroke:none;">15</text>
   <text y="616.204" x="382.012,384.2545,386.495,390.978,395.462,399.945,404.428,408.911,413.395,417.878,420.1205,423.258" svgx:width="0.25,0.55,0.5,0.5,0.5,0.5,0.5,0.5,0.5,0.25,0.55,0.33" style="fill:rgb(0,0,0);font-family:URWPalladioL-Roma;font-size:8.97px;stroke:none;">, 422–446. [</text>
   <text y="616.204" x="426.243,432.601,435.981,440.877,444.678,448.48,454.47,458.765" svgx:width="0.71,0.4,0.55,0.42,0.42,0.67,0.48,0.33" style="fill:rgb(8,117,183);font-family:URWPalladioL-Roma;font-size:8.97px;stroke:none;">CrossRef</text>
   <text y="616.204" x="461.75" svgx:width="0.33" style="fill:rgb(0,0,0);font-family:URWPalladioL-Roma;font-size:8.97px;stroke:none;">]</text>
   <text y="629.115" x="76.535,81.018,85.501,87.74350000000001,98.054,105.03,108.572,116.489,120.973,126.191,131.669,133.91150000000002,136.153,144.635,146.876,149.1185,151.36,156.031,160.514,164.056,168.539,172.341,176.322,181.218,186.436,188.6785,190.919,199.393,201.6355,203.876,209.354,214.761,217.37,219.98,225.458,228.067,233.286,238.3092,240.513,245.471,249.766,252.689,255.612,259.907,263.495,265.69,270.649,275.132,278.055,280.978,285.273,288.815,291.424,295.719,299.52" svgx:width="0.5,0.5,0.25,0.55,0.78,0.4,0.88,0.5,0.58,0.61,0.25,0.55,0.95,0.25,0.25,0.55,0.61,0.5,0.4,0.5,0.42,0.44,0.55,0.58,0.25,0.55,0.95,0.25,0.55,0.61,0.6,0.29,0.29,0.61,0.29,0.58,0.56,0.55,0.55,0.48,0.33,0.33,0.48,0.4,0.55,0.55,0.5,0.33,0.33,0.48,0.4,0.29,0.48,0.42,0.25" style="fill:rgb(0,0,0);font-family:URWPalladioL-Roma;font-size:8.97px;stroke:none;">10. Armand, M.; Tarascon, M. Building better batteries.</text>
   <text y="629.115" x="304.903,311.879,315.86,318.846,323.831,327.158" svgx:width="0.78,0.44,0.33,0.56,0.39,0.39" style="fill:rgb(0,0,0);font-family:URWPalladioL-Ital;font-size:8.97px;stroke:none;">Nature</text>
   <text y="629.115" x="332.886,337.369,341.852,346.336" svgx:width="0.5,0.5,0.5,0.5" style="fill:rgb(0,0,0);font-family:URWPalladioL-Bold;font-size:8.97px;stroke:none;">2008</text>
   <text y="629.115" x="350.819" svgx:width="0.25" style="fill:rgb(0,0,0);font-family:URWPalladioL-Roma;font-size:8.97px;stroke:none;">,</text>
   <text y="629.115" x="355.302,359.785,364.268" svgx:width="0.5,0.5,0.5" style="fill:rgb(0,0,0);font-family:URWPalladioL-Ital;font-size:8.97px;stroke:none;">451</text>
   <text y="629.115" x="368.752,370.9945,373.235,377.718,382.202,386.685,391.168,395.651,400.135,404.618,406.8605,409.998" svgx:width="0.25,0.55,0.5,0.5,0.5,0.5,0.5,0.5,0.5,0.25,0.55,0.33" style="fill:rgb(0,0,0);font-family:URWPalladioL-Roma;font-size:8.97px;stroke:none;">, 652–657. [</text>
   <text y="629.115" x="412.983,419.341,422.721,427.617,431.418,435.22,441.21,445.505" svgx:width="0.71,0.4,0.55,0.42,0.42,0.67,0.48,0.33" style="fill:rgb(8,117,183);font-family:URWPalladioL-Roma;font-size:8.97px;stroke:none;">CrossRef</text>
   <text y="629.115" x="448.49" svgx:width="0.33" style="fill:rgb(0,0,0);font-family:URWPalladioL-Roma;font-size:8.97px;stroke:none;">]</text>
   <text y="642.027" x="76.535,81.018,85.501,87.74350000000001,98.05,103.449,107.919,113.381,118.584,121.185,123.42750000000001,125.655,132.61,134.845,141.335,143.57,145.8125,148.049,155.477,159.947,165.15,167.242,172.632,177.835,183.297,187.767,191.557,199.013,203.483,211.376,215.345,217.5875,219.824,226.314,228.549,233.242,235.477,237.7195,239.947,246.768,251.649,256.53,261.992,266.274,271.476,276.357,281.748,286.718,291.921,294.1635,296.4,299.368,301.603,310.059,312.30150000000003,314.538,319.937,325.14,330.021,333.812,339.184,344.387,349.268,352.245,357.126,359.727,362.329,367.379,369.981,375.184,379.466,383.2334,385.491,389.961,393.7284,395.986,401.358,406.239,410.03,412.631,415.545,418.147,423.198,427.48,430.456,434.738,437.34,441.622,445.591,448.505,451.876,456.757,462.219,466.5246,468.744,476.638,481.108,484.022,488.304,491.835,494.436,498.906,501.499,505.26640000000003,507.533,510.51,515.391" svgx:width="0.5,0.5,0.25,0.55,0.6,0.5,0.61,0.58,0.29,0.25,0.55,0.78,0.25,0.73,0.25,0.25,0.55,0.83,0.5,0.58,0.23,0.6,0.58,0.61,0.5,0.42,0.83,0.5,0.88,0.56,0.25,0.55,0.73,0.25,0.52,0.25,0.25,0.55,0.76,0.55,0.55,0.61,0.48,0.58,0.55,0.6,0.56,0.58,0.25,0.55,0.33,0.25,0.95,0.25,0.55,0.6,0.58,0.55,0.42,0.6,0.58,0.55,0.33,0.55,0.29,0.29,0.56,0.29,0.58,0.48,0.42,0.55,0.5,0.42,0.55,0.6,0.55,0.42,0.29,0.33,0.29,0.56,0.48,0.33,0.48,0.29,0.48,0.44,0.33,0.4,0.55,0.61,0.48,0.55,0.88,0.5,0.33,0.48,0.4,0.29,0.5,0.29,0.42,0.55,0.33,0.55,0.4" style="fill:rgb(0,0,0);font-family:URWPalladioL-Roma;font-size:8.97px;stroke:none;">11. Padhi, A.K.; Nanjundaswamy, K.S.; Goodenough, J.M. Phospho-olivines as positive-electrode materials for</text>
   <text y="654.939" x="98.05,101.43,105.725,109.706,114.925,119.408,122.788,127.774,132.069,136.552,141.51,144.119,148.4246,150.656,153.265,155.874,158.797,164.016,166.625,172.032,182.191,187.149,191.632,194.555,197.478,201.773,205.315,207.924,212.219,216.021" svgx:width="0.4,0.48,0.44,0.58,0.5,0.4,0.56,0.48,0.5,0.55,0.29,0.48,0.55,0.29,0.29,0.33,0.58,0.29,0.6,0.88,0.55,0.5,0.33,0.33,0.48,0.4,0.29,0.48,0.42,0.25" style="fill:rgb(0,0,0);font-family:URWPalladioL-Roma;font-size:8.97px;stroke:none;">rechargeable lithiumbatteries.</text>
   <text y="654.939" x="221.399,224.385,226.6275,228.868,234.346,236.839,240.327,243.976,246.962,250.289,254.27,257.919,262.402,265.89,272.866,275.1085,278.246,283.231,287.212,290.862" svgx:width="0.33,0.25,0.55,0.61,0.28,0.39,0.41,0.33,0.39,0.44,0.41,0.5,0.39,0.78,0.25,0.55,0.56,0.44,0.41,0.25" style="fill:rgb(0,0,0);font-family:URWPalladioL-Ital;font-size:8.97px;stroke:none;">J. Electrochem. Soc.</text>
   <text y="654.939" x="296.241,300.724,305.207,309.691" svgx:width="0.5,0.5,0.5,0.5" style="fill:rgb(0,0,0);font-family:URWPalladioL-Bold;font-size:8.97px;stroke:none;">1997</text>
   <text y="654.939" x="314.173" svgx:width="0.25" style="fill:rgb(0,0,0);font-family:URWPalladioL-Roma;font-size:8.97px;stroke:none;">,</text>
   <text y="654.939" x="318.657,323.14,327.623" svgx:width="0.5,0.5,0.5" style="fill:rgb(0,0,0);font-family:URWPalladioL-Ital;font-size:8.97px;stroke:none;">144</text>
   <text y="654.939" x="332.106,334.3485,336.589,341.072,345.556,350.039,354.522,359.005,363.489,367.972,372.455,376.938,379.1805,382.318" svgx:width="0.25,0.55,0.5,0.5,0.5,0.5,0.5,0.5,0.5,0.5,0.5,0.25,0.55,0.33" style="fill:rgb(0,0,0);font-family:URWPalladioL-Roma;font-size:8.97px;stroke:none;">, 1188–1194. [</text>
   <text y="654.939" x="385.304,391.661,395.041,399.937,403.739,407.54,413.53,417.825" svgx:width="0.71,0.4,0.55,0.42,0.42,0.67,0.48,0.33" style="fill:rgb(8,117,183);font-family:URWPalladioL-Roma;font-size:8.97px;stroke:none;">CrossRef</text>
   <text y="654.939" x="420.811" svgx:width="0.33" style="fill:rgb(0,0,0);font-family:URWPalladioL-Roma;font-size:8.97px;stroke:none;">]</text>
   <text y="667.85" x="76.535,81.018,85.501,87.74350000000001,98.05,104.534,109.857,114.238,119.323,123.896,129.219,134.541,137.203,142.288,147.281,151.452,153.6945,155.979,163.094,165.381,167.6235,169.899,177.499,182.493,187.66,190.321,195.406,200.4,205.567,210.14,212.3825,214.667,219.469,221.755,223.9975,226.273,232.913,238.428,241.089,246.083,251.25,255.823,258.0655,260.35,265.289,267.575,269.8175,272.102,276.904,281.989,287.504,292.827,298.415,301.076,306.399,308.6415,310.917,318.032,320.319,322.5615,324.846,330.123,334.696,338.144,343.137,347.015,349.676,354.249,359.417,362.398,366.276,370.657,374.827,377.0695,379.354,386.47,388.71250000000003,390.988,396.576,399.237,403.618,407.679,410.66,414.108,419.102,423.162,428.485,432.866,440.942,443.603,447.664,452.237,454.8383,457.139,461.016,463.998,469.513,475.101,480.1242,482.417,487.411,490.3711,492.697,498.285,503.279,508.775,513.156" svgx:width="0.5,0.5,0.25,0.55,0.71,0.58,0.48,0.56,0.5,0.58,0.58,0.29,0.56,0.55,0.56,0.25,0.55,0.78,0.25,0.25,0.55,0.83,0.55,0.56,0.29,0.56,0.55,0.56,0.5,0.25,0.55,0.52,0.25,0.25,0.55,0.73,0.6,0.29,0.55,0.56,0.5,0.25,0.55,0.61,0.25,0.25,0.55,0.52,0.56,0.6,0.58,0.61,0.29,0.58,0.25,0.55,0.78,0.25,0.25,0.55,0.67,0.5,0.4,0.55,0.42,0.29,0.5,0.56,0.33,0.42,0.48,0.56,0.25,0.55,0.78,0.25,0.55,0.61,0.29,0.48,0.44,0.33,0.4,0.55,0.44,0.58,0.48,0.88,0.29,0.44,0.5,0.29,0.55,0.42,0.33,0.6,0.61,0.56,0.55,0.55,0.33,0.55,0.61,0.55,0.6,0.48,0.61" style="fill:rgb(0,0,0);font-family:URWPalladioL-Roma;font-size:8.97px;stroke:none;">12. Chekannikov, A.; Novikova, S.; Kulova, T.; Skundin, A.; Yaroslavtsev, A. Electrochemical study of doped</text>
   <text y="680.762" x="98.05,103.528,106.138,111.123,115.418,120.834" svgx:width="0.61,0.29,0.56,0.48,0.6,0.79" style="fill:rgb(0,0,0);font-family:URWPalladioL-Roma;font-size:8.97px;stroke:none;">LiFePO</text>
   <text y="682.553" x="127.881" svgx:width="0.5" style="fill:rgb(0,0,0);font-family:URWPalladioL-Roma;font-size:6.97px;stroke:none;">4</text>
   <text y="680.762" x="134.108,138.591,142.35840000000002,144.635,149.12,151.359,155.34,159.824,162.747,167.965,172.861,178.339,182.6446,184.876,192.793,197.276,200.199,204.494,208.036,210.645,215.128,217.7293,219.979,222.965,227.861,231.44899999999998,233.644,236.253,238.862,241.786,247.004,249.613,255.02,262.937,265.923,268.532,273.428,278.6306,280.888,285.846,290.33,293.253,296.176,300.471,304.012,308.002" svgx:width="0.5,0.42,0.55,0.5,0.55,0.44,0.5,0.33,0.58,0.55,0.61,0.48,0.55,0.88,0.5,0.33,0.48,0.4,0.29,0.5,0.29,0.55,0.33,0.55,0.4,0.55,0.29,0.29,0.33,0.58,0.29,0.6,0.88,0.33,0.29,0.55,0.58,0.55,0.55,0.5,0.33,0.33,0.48,0.4,0.56,0.25" style="fill:rgb(0,0,0);font-family:URWPalladioL-Roma;font-size:8.97px;stroke:none;">as a cathode material for lithium-ion battery.</text>
   <text y="680.762" x="313.379,316.365,318.6075,320.848,326.327,328.819,332.307,335.956,338.942,342.269,346.25,349.899,354.382,357.87,364.846,367.0885,370.226,375.211,378.861,381.353,383.5955,386.733,392.212,397.197,401.68" svgx:width="0.33,0.25,0.55,0.61,0.28,0.39,0.41,0.33,0.39,0.44,0.41,0.5,0.39,0.78,0.25,0.55,0.56,0.41,0.28,0.25,0.55,0.61,0.56,0.5,0.25" style="fill:rgb(0,0,0);font-family:URWPalladioL-Ital;font-size:8.97px;stroke:none;">J. Electrochem. Sci. Eng.</text>
   <text y="680.762" x="407.059,411.542,416.025,420.509" svgx:width="0.5,0.5,0.5,0.5" style="fill:rgb(0,0,0);font-family:URWPalladioL-Bold;font-size:8.97px;stroke:none;">2016</text>
   <text y="680.762" x="424.992" svgx:width="0.25" style="fill:rgb(0,0,0);font-family:URWPalladioL-Roma;font-size:8.97px;stroke:none;">,</text>
   <text y="680.762" x="429.475" svgx:width="0.5" style="fill:rgb(0,0,0);font-family:URWPalladioL-Ital;font-size:8.97px;stroke:none;">6</text>
   <text y="680.762" x="433.958,436.20050000000003,438.441,442.924,447.408,451.891,454.1335,457.271" svgx:width="0.25,0.55,0.5,0.5,0.5,0.25,0.55,0.33" style="fill:rgb(0,0,0);font-family:URWPalladioL-Roma;font-size:8.97px;stroke:none;">, 1–8. [</text>
   <text y="680.762" x="460.257,466.614,469.994,474.89,478.691,482.493,488.483,492.778" svgx:width="0.71,0.4,0.55,0.42,0.42,0.67,0.48,0.33" style="fill:rgb(8,117,183);font-family:URWPalladioL-Roma;font-size:8.97px;stroke:none;">CrossRef</text>
   <text y="680.762" x="495.763" svgx:width="0.33" style="fill:rgb(0,0,0);font-family:URWPalladioL-Roma;font-size:8.97px;stroke:none;">]</text>
   <text y="693.673" x="76.535,81.018,85.501,87.74350000000001,98.05,105.129,110.122,118.198,120.859,126.182,131.267,136.261,138.5035,140.998,147.108,149.394,151.6365,154.241,159.829,164.21,166.872,171.252,173.49450000000002,175.999,184.651,186.937,189.17950000000002,191.785,198.424,203.418,208.503,213.076,215.737,217.877,220.11950000000002,222.615,229.73,232.017,234.2595,236.864,243.842,248.415,253.473,257.853,261.466,265.344,269.404,273.785,278.87,281.1125,283.608,292.26,294.546,296.7885,299.393,302.439,307.012,315.087,320.41,323.072,328.157,330.3995,332.894,335.94,338.1825,340.686,346.274" svgx:width="0.5,0.5,0.25,0.55,0.77,0.55,0.88,0.29,0.58,0.56,0.55,0.25,0.55,0.67,0.25,0.25,0.55,0.61,0.48,0.29,0.48,0.25,0.55,0.95,0.25,0.25,0.55,0.73,0.55,0.56,0.5,0.29,0.23,0.25,0.55,0.78,0.25,0.25,0.55,0.76,0.5,0.55,0.48,0.4,0.42,0.44,0.48,0.56,0.25,0.55,0.95,0.25,0.25,0.55,0.33,0.5,0.88,0.58,0.29,0.56,0.25,0.55,0.33,0.25,0.55,0.61,0.29" style="fill:rgb(0,0,0);font-family:URWPalladioL-Roma;font-size:8.97px;stroke:none;">13. Dominko, R.; Bele, M.; Kokalj, A.; Gaberscek, M.; Jamnik, J. Li</text>
   <text y="695.465" x="348.932" svgx:width="0.5" style="fill:rgb(0,0,0);font-family:URWPalladioL-Roma;font-size:6.97px;stroke:none;">2</text>
   <text y="693.673" x="352.917,361.569,366.892,371.693,374.355" svgx:width="0.95,0.58,0.52,0.29,0.79" style="fill:rgb(0,0,0);font-family:URWPalladioL-Roma;font-size:8.97px;stroke:none;">MnSiO</text>
   <text y="695.465" x="381.543" svgx:width="0.5" style="fill:rgb(0,0,0);font-family:URWPalladioL-Roma;font-size:6.97px;stroke:none;">4</text>
   <text y="693.673" x="387.982,392.555,396.3224,398.884,403.369,405.917,411.413,416.407,419.388,423.769,429.092,432.074,434.735,439.308,441.9093,444.42,450.008,452.67,455.715,460.773,465.346,468.327,471.309,475.69,479.302,484.3252,486.838,490.899,495.472,498.453,503.776,508.77,514.358" svgx:width="0.5,0.42,0.55,0.5,0.55,0.6,0.55,0.33,0.48,0.58,0.33,0.29,0.5,0.29,0.55,0.61,0.29,0.33,0.55,0.5,0.33,0.33,0.48,0.4,0.56,0.55,0.44,0.5,0.33,0.58,0.55,0.61,0.48" style="fill:rgb(0,0,0);font-family:URWPalladioL-Roma;font-size:8.97px;stroke:none;">as a potential Li-battery cathode</text>
   <text y="706.585" x="98.05,105.967,110.451,113.374,117.668,121.21,123.819,128.303,130.912" svgx:width="0.88,0.5,0.33,0.48,0.4,0.29,0.5,0.29,0.25" style="fill:rgb(0,0,0);font-family:URWPalladioL-Roma;font-size:8.97px;stroke:none;">material.</text>
   <text y="706.585" x="136.292,139.278,141.5205,143.761,149.239,153.221,159.694,163.182,166.6803,168.912,173.897,177.878,182.863,186.19,189.839,193.327" svgx:width="0.33,0.25,0.55,0.61,0.44,0.72,0.39,0.39,0.55,0.56,0.44,0.56,0.39,0.41,0.39,0.39" style="fill:rgb(0,0,0);font-family:URWPalladioL-Ital;font-size:8.97px;stroke:none;">J. Power Sources</text>
   <text y="706.585" x="199.055,203.538,208.021,212.505" svgx:width="0.5,0.5,0.5,0.5" style="fill:rgb(0,0,0);font-family:URWPalladioL-Bold;font-size:8.97px;stroke:none;">2007</text>
   <text y="706.585" x="216.988" svgx:width="0.25" style="fill:rgb(0,0,0);font-family:URWPalladioL-Roma;font-size:8.97px;stroke:none;">,</text>
   <text y="706.585" x="221.471,225.954,230.437" svgx:width="0.5,0.5,0.5" style="fill:rgb(0,0,0);font-family:URWPalladioL-Ital;font-size:8.97px;stroke:none;">174</text>
   <text y="706.585" x="234.921,237.1635,239.404,243.887,248.371,252.854,257.337,261.82,266.303,270.787,273.0295,276.166" svgx:width="0.25,0.55,0.5,0.5,0.5,0.5,0.5,0.5,0.5,0.25,0.55,0.33" style="fill:rgb(0,0,0);font-family:URWPalladioL-Roma;font-size:8.97px;stroke:none;">, 457–461. [</text>
   <text y="706.585" x="279.152,285.509,288.89,293.785,297.587,301.389,307.379,311.673" svgx:width="0.71,0.4,0.55,0.42,0.42,0.67,0.48,0.33" style="fill:rgb(8,117,183);font-family:URWPalladioL-Roma;font-size:8.97px;stroke:none;">CrossRef</text>
   <text y="706.585" x="314.659" svgx:width="0.33" style="fill:rgb(0,0,0);font-family:URWPalladioL-Roma;font-size:8.97px;stroke:none;">]</text>
   <text y="719.497" x="76.535,81.018,85.501,87.74350000000001,98.05,105.129,110.122,118.198,120.859,126.182,131.267,136.261,138.5035,140.998,147.108,149.394,151.6365,154.232,159.82,164.201,166.862,171.243,173.4855,175.981,184.633,186.919,189.16150000000002,191.757,198.735,203.308,208.366,212.747,216.359,220.237,224.298,228.678,233.763,236.0055,238.501,247.153,249.439,251.6815,254.277,262.929,267.31,272.898,277.279,282.602,284.8445,287.339,294.454,296.741,298.9835,301.579,307.688,312.069,320.145,324.023,329.108,333.681,336.635,338.8775,341.363,350.015,352.301,354.5435,357.148,360.194,364.767,372.843,378.165,380.827,385.912,388.1545,390.64,393.686,395.9285,398.423,403.225,406.206,409.746,415.26,419.321,422.303,427.818,431.275,435.5806,438.106,442.679,448.002,453.4737,456.032,460.413,463.074,467.455,471.516,474.497,477.954,482.948,487.009,492.331,496.712,504.788,507.449,511.51,516.083" svgx:width="0.5,0.5,0.25,0.55,0.77,0.55,0.88,0.29,0.58,0.56,0.55,0.25,0.55,0.67,0.25,0.25,0.55,0.61,0.48,0.29,0.48,0.25,0.55,0.95,0.25,0.25,0.55,0.76,0.5,0.55,0.48,0.4,0.42,0.44,0.48,0.56,0.25,0.55,0.95,0.25,0.25,0.55,0.95,0.48,0.61,0.48,0.58,0.25,0.55,0.78,0.25,0.25,0.55,0.67,0.48,0.88,0.42,0.56,0.5,0.4,0.25,0.55,0.95,0.25,0.25,0.55,0.33,0.5,0.88,0.58,0.29,0.56,0.25,0.55,0.33,0.25,0.55,0.52,0.33,0.4,0.6,0.44,0.33,0.6,0.4,0.48,0.55,0.5,0.58,0.61,0.55,0.48,0.29,0.48,0.44,0.33,0.4,0.55,0.44,0.58,0.48,0.88,0.29,0.44,0.5,0.29" style="fill:rgb(0,0,0);font-family:URWPalladioL-Roma;font-size:8.97px;stroke:none;">14. Dominko, R.; Bele, M.; Gaberscek, M.; Meden, A.; Remškar, M.; Jamnik, J. Structure and electrochemical</text>
   <text y="732.408" x="97.781,103.213,107.542,111.112,114.122,119.057,122.627,130.607,135.127,140.387,144.4,148.7056,150.952,155.887,158.8471,161.12,166.643" svgx:width="0.6,0.48,0.4,0.33,0.55,0.4,0.88,0.5,0.58,0.44,0.48,0.55,0.55,0.33,0.55,0.61,0.29" style="fill:rgb(0,0,0);font-family:URWPalladioL-Roma;font-size:8.97px;stroke:none;">performance of Li</text>
   <text y="734.2" x="169.273" svgx:width="0.5" style="fill:rgb(0,0,0);font-family:URWPalladioL-Roma;font-size:6.97px;stroke:none;">2</text>
   <text y="732.408" x="173.258,181.808,187.068,191.813,194.443" svgx:width="0.95,0.58,0.52,0.29,0.79" style="fill:rgb(0,0,0);font-family:URWPalladioL-Roma;font-size:8.97px;stroke:none;">MnSiO</text>
   <text y="734.2" x="201.547" svgx:width="0.5" style="fill:rgb(0,0,0);font-family:URWPalladioL-Roma;font-size:6.97px;stroke:none;">4</text>
   <text y="732.408" x="207.756,212.275,217.535,223.0067,225.281,230.803" svgx:width="0.5,0.58,0.61,0.55,0.61,0.29" style="fill:rgb(0,0,0);font-family:URWPalladioL-Roma;font-size:8.97px;stroke:none;">and Li</text>
   <text y="734.2" x="233.434" svgx:width="0.5" style="fill:rgb(0,0,0);font-family:URWPalladioL-Roma;font-size:6.97px;stroke:none;">2</text>
   <text y="732.408" x="237.419,242.444,246.773,251.519,254.149" svgx:width="0.56,0.48,0.52,0.29,0.79" style="fill:rgb(0,0,0);font-family:URWPalladioL-Roma;font-size:8.97px;stroke:none;">FeSiO</text>
   <text y="734.2" x="261.252" svgx:width="0.5" style="fill:rgb(0,0,0);font-family:URWPalladioL-Roma;font-size:6.97px;stroke:none;">4</text>
   <text y="732.408" x="267.461,271.98,275.7474,278.036,283.468,288.402,291.349,295.678,300.938,303.885,306.515,311.034,313.6353,315.887,321.41,324.04,327.049,332.048,336.567,339.513,342.459,346.789,350.359,355.38219999999995,357.607,361.62,366.139,369.086,374.346,379.281,384.803,389.1086,391.356,399.336,403.856,406.802,411.131,414.701,417.331,421.85,424.481,428.313" svgx:width="0.5,0.42,0.55,0.6,0.55,0.33,0.48,0.58,0.33,0.29,0.5,0.29,0.55,0.61,0.29,0.33,0.55,0.5,0.33,0.33,0.48,0.4,0.56,0.55,0.44,0.5,0.33,0.58,0.55,0.61,0.48,0.55,0.88,0.5,0.33,0.48,0.4,0.29,0.5,0.29,0.42,0.25" style="fill:rgb(0,0,0);font-family:URWPalladioL-Roma;font-size:8.97px;stroke:none;">as potential Li-battery cathode materials.</text>
   <text y="732.408" x="433.704,439.226,441.739,445.255,448.933,451.943,455.296,459.309,462.988,467.507,471.023,478.054,480.2965,483.45,489.478,493.491,500.523,507.555,512.58,517.605" svgx:width="0.61,0.28,0.39,0.41,0.33,0.39,0.44,0.41,0.5,0.39,0.78,0.25,0.55,0.67,0.44,0.78,0.78,0.56,0.56,0.25" style="fill:rgb(0,0,0);font-family:URWPalladioL-Ital;font-size:8.97px;stroke:none;">Electrochem. Commun.</text>
   <text y="745.32" x="98.05,102.533,107.016,111.5" svgx:width="0.5,0.5,0.5,0.5" style="fill:rgb(0,0,0);font-family:URWPalladioL-Bold;font-size:8.97px;stroke:none;">2006</text>
   <text y="745.32" x="115.983" svgx:width="0.25" style="fill:rgb(0,0,0);font-family:URWPalladioL-Roma;font-size:8.97px;stroke:none;">,</text>
   <text y="745.32" x="120.466" svgx:width="0.5" style="fill:rgb(0,0,0);font-family:URWPalladioL-Ital;font-size:8.97px;stroke:none;">8</text>
   <text y="745.32" x="124.95,127.19250000000001,129.433,133.916,138.4,142.883,147.366,151.849,156.332,160.816,163.0585,166.195" svgx:width="0.25,0.55,0.5,0.5,0.5,0.5,0.5,0.5,0.5,0.25,0.55,0.33" style="fill:rgb(0,0,0);font-family:URWPalladioL-Roma;font-size:8.97px;stroke:none;">, 217–222. [</text>
   <text y="745.32" x="169.181,175.538,178.919,183.814,187.616,191.418,197.408,201.702" svgx:width="0.71,0.4,0.55,0.42,0.42,0.67,0.48,0.33" style="fill:rgb(8,117,183);font-family:URWPalladioL-Roma;font-size:8.97px;stroke:none;">CrossRef</text>
   <text y="745.32" x="204.688" svgx:width="0.33" style="fill:rgb(0,0,0);font-family:URWPalladioL-Roma;font-size:8.97px;stroke:none;">]</text>
  </g>
 </g>
</svg>
