<?xml version="1.0" encoding="UTF-8"?>
<svg height="727.647" width="530.5310000000001" xmlns="http://www.w3.org/2000/svg">
 <g id="page" xmlns:svgx="http://www.xml-cml.org/schema/svgx">
  <g begin="text">
   <text y="62.979" x="76.288,81.158,84.696,86.912,90.897,97.098,100.198,103.299" svgx:width="0.61,0.44,0.28,0.5,0.78,0.39,0.39,0.39" style="fill:rgb(0,0,0);font-family:URWPalladioL-Ital;font-size:7.97px;stroke:none;">Polymers</text>
   <text y="62.979" x="108.391,112.376,116.361,120.346" svgx:width="0.5,0.5,0.5,0.5" style="fill:rgb(0,0,0);font-family:URWPalladioL-Bold;font-size:7.97px;stroke:none;">2020</text>
   <text y="62.979" x="124.332" svgx:width="0.25" style="fill:rgb(0,0,0);font-family:URWPalladioL-Roma;font-size:7.97px;stroke:none;">,</text>
   <text y="62.979" x="128.317,132.302" svgx:width="0.5,0.5" style="fill:rgb(0,0,0);font-family:URWPalladioL-Ital;font-size:7.97px;stroke:none;">12</text>
   <text y="62.979" x="136.287,138.2795,140.272,144.257,148.242,152.227,495.794,499.779,501.772,506.123,508.7531,510.77,514.755" svgx:width="0.25,0.55,0.5,0.5,0.5,0.55,0.5,0.55,0.55,0.33,0.55,0.5,0.5" style="fill:rgb(0,0,0);font-family:URWPalladioL-Roma;font-size:7.97px;stroke:none;">, 405 2 of 11</text>
   <text y="97.848" x="76.535,80.844,84.156,87.113,90.071,92.9594,97.468,102.336,107.579,110.537,114.845,118.158,121.115,127.029,132.6066,137.12,140.077,145.8538,150.432,153.745,159.659,164.4398,168.967,173.276,178.824,185.033,187.99,194.118,203.091,206.475,209.432,214.98,220.7568,225.335,230.955,236.035,239.348,242.661,247.528,251.542,257.1196,261.623,264.936,269.803,274.315,280.229,286.144,291.692,294.649,300.197,305.847,311.4246,315.938,322.147,328.275,333.0558,337.583,340.896,346.374,350.885,354.197,360.112,364.979,367.936,371.91999999999996,376.391,379.348,384.429,388.27,393.92,398.788,402.772,407.232,410.189,415.738,421.652,424.609,428.9914,433.561,437.575,442.656,448.865,451.822,454.7104,459.22,464.301,470.215,476.2906,480.865,485.174,488.131,494.258,499.908,505.558,508.515,512.824" svgx:width="0.42,0.33,0.29,0.29,0.29,0.55,0.48,0.52,0.29,0.42,0.33,0.29,0.58,0.56,0.55,0.29,0.58,0.55,0.33,0.58,0.48,0.55,0.42,0.55,0.61,0.29,0.6,0.88,0.33,0.29,0.55,0.58,0.55,0.55,0.5,0.33,0.33,0.48,0.4,0.56,0.55,0.33,0.48,0.44,0.58,0.58,0.55,0.29,0.55,0.56,0.56,0.55,0.61,0.6,0.48,0.55,0.33,0.55,0.55,0.33,0.58,0.48,0.29,0.4,0.55,0.29,0.5,0.4,0.56,0.48,0.4,0.55,0.29,0.55,0.58,0.29,0.44,0.55,0.4,0.5,0.61,0.29,0.29,0.55,0.5,0.58,0.61,0.55,0.42,0.29,0.6,0.56,0.56,0.29,0.42,0.58" style="fill:rgb(0,0,0);font-family:URWPalladioL-Roma;font-size:9.96px;stroke:none;">still existing in the sodium-ion battery technology due to their larger ionic radii and sluggish</text>
   <text y="111.358" x="76.535,82.185,85.142,91.056,95.924,99.237,102.194,106.706,110.8892,114.357,120.566,126.694,130.708,133.665,139.579,145.1566,148.562,151.875,157.789,162.5698,166.0,168.957,174.871,178.184,183.051,186.883,191.394,196.475,199.432,204.513,207.826,210.783,216.332,222.1088,225.589,231.696,235.527,241.076,245.588,250.455,254.764,259.072,261.562,265.169,273.644,279.559,282.516,287.028,292.8048,296.275,300.787,305.868,311.995,316.304,321.0848,324.515,327.472,333.02,341.495,346.363,350.347,353.72,359.827,364.695,368.708,372.092,377.641,381.655,390.628,395.709,401.623,406.135,411.002,413.492,419.579,424.914,431.041,436.661,440.969,445.837,451.528,457.645,462.513,468.427,471.74,474.697,479.249,481.73900000000003,485.336,488.649,494.563,499.431,503.272,508.0528,511.472,514.429" svgx:width="0.56,0.29,0.58,0.48,0.33,0.29,0.44,0.42,0.55,0.61,0.6,0.4,0.29,0.58,0.56,0.55,0.33,0.58,0.48,0.55,0.29,0.58,0.33,0.48,0.4,0.44,0.5,0.29,0.5,0.33,0.29,0.55,0.58,0.55,0.6,0.4,0.55,0.44,0.48,0.42,0.42,0.25,0.55,0.83,0.58,0.29,0.44,0.58,0.55,0.44,0.5,0.6,0.42,0.48,0.55,0.29,0.55,0.83,0.48,0.4,0.55,0.6,0.48,0.4,0.33,0.55,0.4,0.88,0.5,0.58,0.44,0.48,0.25,0.55,0.52,0.6,0.55,0.42,0.48,0.56,0.6,0.48,0.58,0.33,0.29,0.56,0.25,0.55,0.33,0.58,0.48,0.4,0.48,0.55,0.29,0.42" style="fill:rgb(0,0,0);font-family:URWPalladioL-Roma;font-size:9.96px;stroke:none;">kinetics during the intercalation process, which cause lower performance. Subsequently, there is</text>
   <text y="124.867" x="76.535,81.515,84.766,90.68,95.548,100.415,106.4906,109.774,113.087,118.565,121.776,126.084,131.633,134.59,140.331,145.1118,148.349,151.662,157.576,162.443,166.752,171.5328,174.77,180.877,184.708,190.256,195.876,198.833,203.7,212.673,216.8562,220.132,223.089,228.8658,232.154,237.235,243.01180000000002,246.299,251.38,254.337,257.65,262.517,266.531,272.445,277.526,280.839,283.796,289.538,294.3188,297.545,306.02,311.101,316.751,320.9342,324.21,332.685,335.642,338.955,344.73179999999996,348.019,350.976,356.89,362.804,368.353,374.094,379.175,382.488,385.445,391.187,395.9678,399.204,403.513,406.47,415.443,421.55,424.507,429.2878,432.515,435.472,441.681,446.548,451.629,455.8122,459.088" svgx:width="0.5,0.55,0.58,0.48,0.48,0.61,0.55,0.33,0.55,0.55,0.42,0.55,0.29,0.56,0.48,0.55,0.33,0.58,0.48,0.42,0.48,0.55,0.6,0.4,0.55,0.55,0.29,0.48,0.88,0.42,0.55,0.29,0.58,0.55,0.5,0.58,0.55,0.5,0.29,0.33,0.48,0.4,0.58,0.5,0.33,0.29,0.56,0.48,0.55,0.83,0.5,0.56,0.42,0.55,0.83,0.29,0.33,0.58,0.55,0.29,0.58,0.58,0.55,0.56,0.5,0.33,0.29,0.56,0.48,0.55,0.42,0.29,0.88,0.6,0.29,0.48,0.55,0.29,0.61,0.48,0.5,0.42,0.55,0.33" style="fill:rgb(0,0,0);font-family:URWPalladioL-Roma;font-size:9.96px;stroke:none;">a need to solve these problems in an alternative ways with innovative simple ideas [</text>
   <text y="124.867" x="462.474" svgx:width="0.5" style="fill:rgb(8,117,183);font-family:URWPalladioL-Roma;font-size:9.96px;stroke:none;">8</text>
   <text y="124.867" x="467.455,470.839,473.329,478.836,485.045,490.126,494.435,497.392,501.904,506.985,509.942,512.899,517.441" svgx:width="0.33,0.25,0.55,0.61,0.5,0.42,0.29,0.44,0.5,0.29,0.29,0.56,0.25" style="fill:rgb(0,0,0);font-family:URWPalladioL-Roma;font-size:9.96px;stroke:none;">]. Basically,</text>
   <text y="138.377" x="76.535,79.783,85.581,90.3618,92.844,98.831,103.603,107.539,110.856,116.296,120.231,129.028,134.009,139.807,144.231,149.0118,151.5,156.934,160.2208,162.746,167.726,170.221,175.725,180.701,183.946,187.19,191.957,195.889,201.4666,203.921,206.817,211.0002,213.535,219.039,224.015,228.235,233.002,239.07760000000002,241.571,247.006,252.7828,255.296,258.541,264.333,269.1,271.997,275.981,278.426,283.193,286.09,290.857,295.276,298.52,302.273,307.707,313.788,318.555,322.775,325.265,327.761,332.529,335.425,340.192,344.611,347.856,351.608,357.042,359.938,365.472,368.716,373.484,375.974,378.47,383.446,389.239,395.3146,397.818,400.714,406.148,411.941,414.837,419.2194,421.754,426.173,431.607,437.399,443.481,449.482,453.901,457.146,460.042,465.476,471.2528,473.766,479.748,483.5,488.934,494.916,499.683,503.614,506.859,509.755,514.523" svgx:width="0.33,0.58,0.48,0.55,0.6,0.48,0.4,0.33,0.55,0.4,0.88,0.5,0.58,0.44,0.48,0.55,0.55,0.33,0.55,0.5,0.55,0.55,0.5,0.33,0.33,0.48,0.4,0.56,0.55,0.29,0.42,0.55,0.55,0.5,0.42,0.48,0.61,0.55,0.55,0.58,0.55,0.33,0.58,0.48,0.29,0.4,0.55,0.48,0.29,0.48,0.44,0.33,0.4,0.55,0.61,0.48,0.42,0.25,0.55,0.48,0.29,0.48,0.44,0.33,0.4,0.55,0.29,0.56,0.33,0.48,0.25,0.55,0.5,0.58,0.61,0.55,0.29,0.55,0.58,0.29,0.44,0.55,0.44,0.55,0.58,0.61,0.6,0.44,0.33,0.29,0.55,0.58,0.55,0.6,0.4,0.55,0.6,0.48,0.4,0.33,0.29,0.48,0.42" style="fill:rgb(0,0,0);font-family:URWPalladioL-Roma;font-size:9.96px;stroke:none;">the performance of a battery is based on their electrodes, electrolyte, and ionic conduction properties</text>
   <text y="151.886" x="76.535,82.083,85.3698,89.065,92.377,98.292,103.0728,106.756,115.729,120.597,129.57,135.189,139.203,144.284,150.198,155.066,159.374,161.864,168.713,176.619,181.131,185.643,191.191,195.032,201.241,204.198,210.113,215.6906,219.35,222.662,228.14000000000001,231.808,235.121,241.035,245.8158,249.5,253.808,258.676,264.367,270.494,275.362,281.276,284.589,287.546,292.627,295.5154,299.181,303.49,306.803,312.93,319.139,322.096,326.964,331.272,333.762,337.684,340.997,346.911,351.6918,355.376,361.483,366.351,370.365,373.749,379.297,383.311,392.284,397.365,403.279,407.791,412.5718,416.256,421.337,427.251,433.3266,437.057,440.014,442.971,446.355,451.1358,454.82,460.368,463.6548,467.339,472.319,476.018,481.637,486.718,490.031,493.344,498.211,502.225,507.80260000000004,511.472,514.43" svgx:width="0.55,0.33,0.55,0.33,0.58,0.48,0.55,0.88,0.48,0.88,0.55,0.4,0.5,0.58,0.48,0.42,0.25,0.55,0.78,0.44,0.44,0.55,0.4,0.61,0.29,0.58,0.56,0.55,0.33,0.55,0.55,0.33,0.58,0.48,0.55,0.42,0.48,0.56,0.6,0.48,0.58,0.33,0.29,0.5,0.29,0.55,0.42,0.33,0.6,0.61,0.29,0.48,0.42,0.25,0.55,0.33,0.58,0.48,0.55,0.6,0.48,0.4,0.33,0.55,0.4,0.88,0.5,0.58,0.44,0.48,0.55,0.5,0.58,0.61,0.55,0.29,0.29,0.33,0.48,0.55,0.55,0.33,0.55,0.5,0.55,0.55,0.5,0.33,0.33,0.48,0.4,0.56,0.55,0.29,0.42" style="fill:rgb(0,0,0);font-family:URWPalladioL-Roma;font-size:9.96px;stroke:none;">of the membranes. According to the sequential studies, the performance and life of a battery is</text>
   <text y="165.395" x="76.535,79.492,82.449,91.422,94.379,97.692,102.56,108.6356,111.847,117.467,123.0446,126.206,129.519,135.433,140.2138,143.38,147.688,152.556,158.663,163.744,167.758,172.839,176.152,181.7,185.684,188.803,197.776,202.644,211.617,217.236,221.25,226.331,232.245,237.113,241.2962,244.5,249.581,255.495,261.5706,264.793,267.751,270.708,276.398,282.526,285.483,291.5586,294.771,299.638,302.596,307.463,311.975,315.288,319.129,324.677,327.634,333.284,336.597,341.465,343.955,349.269,354.604,357.917,360.874,363.831,366.788,369.278,372.56,375.517,381.2938,384.52,389.601,392.558,395.4464,398.595,401.907,407.557,413.665,418.532,422.7152,425.93,431.478,434.76480000000004,437.941,442.25,447.798,450.755,453.712,459.921,463.305,467.614,470.927,476.008,479.32,484.1008,487.267,492.886,497.967,501.28,504.593,509.46,513.474" svgx:width="0.29,0.29,0.88,0.29,0.33,0.48,0.61,0.55,0.55,0.56,0.55,0.33,0.58,0.48,0.55,0.42,0.48,0.6,0.5,0.4,0.5,0.33,0.55,0.4,0.55,0.88,0.48,0.88,0.55,0.4,0.5,0.58,0.48,0.42,0.55,0.5,0.58,0.61,0.55,0.29,0.29,0.56,0.6,0.29,0.61,0.55,0.48,0.29,0.48,0.44,0.33,0.4,0.55,0.29,0.56,0.33,0.48,0.25,0.55,0.52,0.33,0.29,0.29,0.29,0.25,0.55,0.29,0.58,0.55,0.5,0.29,0.29,0.55,0.33,0.56,0.6,0.48,0.42,0.55,0.55,0.33,0.55,0.42,0.55,0.29,0.29,0.61,0.33,0.42,0.33,0.5,0.33,0.48,0.55,0.55,0.5,0.33,0.33,0.48,0.4,0.56" style="fill:rgb(0,0,0);font-family:URWPalladioL-Roma;font-size:9.96px;stroke:none;">limited by the separator membranes and liquid electrolyte. Still, in all types of solid-state battery</text>
   <text y="178.905" x="76.535,80.844,86.494,90.802,94.115,98.983,107.955,112.264,114.75399999999999,117.294,120.607,126.521,131.30180000000001,133.878,139.986,145.067,149.08,152.393,155.35,161.265,166.84259999999998,169.404,174.953,178.2398,180.826,185.694,188.651,193.518,198.03,201.343,205.174,210.722,216.931,221.799,225.9822,228.597,231.554,235.7372,238.352,244.46,248.291,253.839,259.58,262.538,268.746,273.614,279.6896,282.312,287.932,293.50960000000003,296.072,299.384,305.299,310.0798,312.656,315.613,321.161,327.075,330.459,334.971,340.52,346.434,352.643,358.77,363.282,366.595,369.552,375.466,381.0436,383.606,389.713,395.261,398.219,403.869,412.841,417.709,421.723,426.032,428.522,431.062,436.712,439.669,444.75,449.058,453.367,458.234,462.543,465.033,467.573,472.654,478.568,484.6436,487.267,493.374,498.922,502.753,508.302,514.429" svgx:width="0.42,0.56,0.42,0.33,0.48,0.88,0.42,0.25,0.55,0.33,0.58,0.48,0.55,0.6,0.5,0.4,0.33,0.29,0.58,0.56,0.55,0.55,0.33,0.55,0.48,0.29,0.48,0.44,0.33,0.4,0.55,0.61,0.48,0.42,0.55,0.29,0.42,0.55,0.6,0.4,0.55,0.56,0.29,0.61,0.48,0.61,0.55,0.55,0.56,0.55,0.33,0.58,0.48,0.55,0.29,0.55,0.58,0.33,0.44,0.55,0.58,0.61,0.6,0.44,0.33,0.29,0.58,0.56,0.55,0.6,0.55,0.29,0.56,0.88,0.48,0.4,0.42,0.25,0.55,0.56,0.29,0.5,0.42,0.42,0.48,0.42,0.25,0.55,0.5,0.58,0.61,0.55,0.6,0.55,0.4,0.55,0.6,0.42" style="fill:rgb(0,0,0);font-family:URWPalladioL-Roma;font-size:9.96px;stroke:none;">systems, the parting of electrodes is provided by the ion-conducting polymers, glasses, and porous</text>
   <text y="192.414" x="76.535,80.923,84.827,90.322,94.512,97.734,102.675,105.551,108.427,111.303,117.055,121.8358,124.279,128.667,133.401,137.305,142.246,150.973,153.849,158.237,162.4202,164.928,173.654,178.596,181.818,186.551,190.455,193.331,198.273,201.148,205.339,207.829,211.298,217.356,223.108,227.842,232.033,236.8138,239.267,247.993,252.727,261.454,266.919,270.823,275.764,281.516,286.25,290.4332,292.931,297.872,301.598,306.3788,308.823,314.762,318.488,323.222,327.412,332.146,337.898,341.18480000000005,343.61,346.486,352.26279999999997,354.729,357.605,360.481,363.702,369.454,372.33,378.29,389.516,392.392,397.788,403.5648,406.031,411.496,416.437,419.659,422.881,427.615,431.519,437.0966,439.504,445.444,449.17,454.566,457.788,463.184,466.405,471.9,477.84,482.574,486.764,489.254,491.725,499.968,505.72,508.596,512.984" svgx:width="0.44,0.4,0.56,0.42,0.33,0.5,0.29,0.29,0.29,0.58,0.48,0.55,0.44,0.48,0.4,0.5,0.88,0.29,0.44,0.42,0.55,0.88,0.5,0.33,0.48,0.4,0.29,0.5,0.29,0.42,0.25,0.55,0.61,0.58,0.48,0.42,0.48,0.55,0.88,0.48,0.88,0.55,0.4,0.5,0.58,0.48,0.42,0.55,0.5,0.4,0.48,0.55,0.6,0.4,0.48,0.42,0.48,0.58,0.33,0.55,0.29,0.58,0.55,0.29,0.29,0.33,0.58,0.29,0.6,0.88,0.29,0.55,0.58,0.55,0.55,0.5,0.33,0.33,0.48,0.4,0.56,0.55,0.6,0.4,0.55,0.33,0.55,0.33,0.56,0.6,0.48,0.42,0.25,0.55,0.83,0.58,0.29,0.44,0.58" style="fill:rgb(0,0,0);font-family:URWPalladioL-Roma;font-size:9.96px;stroke:none;">crystalline ceramics materials. These membranes are present in lithiumion battery prototypes, which</text>
   <text y="205.924" x="76.535,82.449,87.53,93.272,98.0528,101.391,107.041,112.589,118.138,124.2136,127.598,132.11,137.76,142.272,145.229,150.31,155.93,158.887,161.844,164.801,168.114,172.666,175.156,178.651,184.759,189.626,193.64,197.024,202.572,206.586,215.559,220.64,226.554,231.066,235.934,238.424,241.919,247.0,252.914,258.9896,262.375,265.332,270.88,276.795,282.37260000000003,285.696,288.653,291.611,294.994,299.7748,303.114" svgx:width="0.58,0.5,0.56,0.48,0.55,0.56,0.55,0.55,0.61,0.55,0.44,0.56,0.44,0.29,0.5,0.55,0.29,0.29,0.29,0.33,0.56,0.25,0.55,0.6,0.48,0.4,0.33,0.55,0.4,0.88,0.5,0.58,0.44,0.48,0.25,0.55,0.5,0.58,0.61,0.55,0.29,0.55,0.58,0.56,0.55,0.29,0.29,0.33,0.48,0.55,0.33" style="fill:rgb(0,0,0);font-family:URWPalladioL-Roma;font-size:9.96px;stroke:none;">have good cyclability, performance, and long life [</text>
   <text y="205.924" x="306.501" svgx:width="0.5" style="fill:rgb(8,117,183);font-family:URWPalladioL-Roma;font-size:9.96px;stroke:none;">9</text>
   <text y="205.924" x="311.482,314.866,317.356,323.188,326.613,332.3898,335.779,340.291,345.839,351.753,355.066,359.08,364.161,368.47,371.782,374.272,377.768,381.081,386.995,391.7758,395.114,399.423,404.971,411.18,414.137,420.265,429.238,432.621,435.579,441.127,446.9038,450.293,455.912,460.993,464.306,467.619,472.486,476.5,482.0776,485.402,491.316,496.397,500.5802,503.968,509.882,515.43" svgx:width="0.33,0.25,0.55,0.34,0.58,0.55,0.44,0.55,0.58,0.33,0.4,0.5,0.42,0.33,0.25,0.55,0.33,0.58,0.48,0.55,0.42,0.55,0.61,0.29,0.6,0.88,0.33,0.29,0.55,0.58,0.55,0.55,0.5,0.33,0.33,0.48,0.4,0.56,0.55,0.58,0.5,0.42,0.55,0.58,0.55,0.33" style="fill:rgb(0,0,0);font-family:URWPalladioL-Roma;font-size:9.96px;stroke:none;">]. In contrast, the sodium-ion battery has not</text>
   <text y="219.433" x="76.535,79.848,85.762,89.776,92.733,98.474,103.342,109.4176,112.295,115.607,121.085,123.91,128.99,134.76680000000002,137.648,142.729,148.837,154.944,158.775,163.642,168.154,171.111,176.192,181.812,184.769,189.5498,192.38,195.337,200.205,205.946,210.814,213.771,216.261,219.126,224.746,229.613,234.125,239.206,245.333,249.642,254.4228,257.253,260.566,266.48,271.2608,274.102,277.059,282.14,285.971,291.621,296.488,300.472,303.246,311.69,316.771,320.155,323.112,328.661,334.575,338.7582,341.627,347.541,352.409,357.276,363.3516,366.239,370.548,375.415,381.523,386.604,390.617,395.698,399.011,404.56,408.544,411.317,420.29,425.158,434.131,439.75,443.764,448.845,454.759,459.627,463.8102,466.679,475.154,478.111,481.424,487.20079999999996,490.082,495.996,498.953,504.603,510.517,513.474" svgx:width="0.33,0.58,0.4,0.29,0.56,0.48,0.61,0.55,0.33,0.55,0.55,0.5,0.58,0.55,0.5,0.6,0.6,0.4,0.48,0.44,0.29,0.5,0.55,0.29,0.48,0.55,0.29,0.48,0.56,0.48,0.29,0.25,0.55,0.55,0.48,0.44,0.5,0.6,0.42,0.48,0.55,0.33,0.58,0.48,0.55,0.29,0.5,0.4,0.56,0.48,0.4,0.55,0.83,0.5,0.33,0.29,0.55,0.58,0.42,0.55,0.58,0.48,0.48,0.61,0.55,0.42,0.48,0.6,0.5,0.4,0.5,0.33,0.55,0.4,0.55,0.88,0.48,0.88,0.55,0.4,0.5,0.58,0.48,0.42,0.55,0.83,0.29,0.33,0.58,0.55,0.58,0.29,0.56,0.58,0.29,0.56" style="fill:rgb(0,0,0);font-family:URWPalladioL-Roma;font-size:9.96px;stroke:none;">thrived to an appreciable level, because the larger Na-ions need separator membranes with highly</text>
   <text y="232.942" x="76.535,81.616,90.589,96.137,100.151,106.258,112.173,117.721,123.849,128.03220000000002,131.582,137.496,142.577,145.89,152.017,155.858,160.726,166.8016,170.359,179.332,184.2,193.173,198.792,202.806,207.887,213.801,218.5818,222.104,230.579,233.536,236.848,242.62480000000002,246.187,249.144,254.225,258.056,263.706,268.574,272.558,276.022,282.13,287.678,291.509,296.2898,299.811,304.12,307.077,312.158,316.9388,320.45,323.834,329.382,333.366,336.821,340.204,344.046,348.913,353.6938,357.205,362.855,365.812,371.727,376.594,379.907,382.864,387.2464,390.81,397.019,403.147,407.161,410.118,416.032,421.6096,425.107,428.419,434.334,439.1148,442.636,447.148,453.062,458.143,461.974,467.624" svgx:width="0.5,0.88,0.55,0.4,0.6,0.58,0.55,0.6,0.42,0.55,0.58,0.5,0.33,0.6,0.4,0.48,0.61,0.55,0.88,0.48,0.88,0.55,0.4,0.5,0.58,0.48,0.55,0.83,0.29,0.33,0.58,0.55,0.29,0.5,0.4,0.56,0.48,0.4,0.55,0.6,0.55,0.4,0.48,0.55,0.42,0.29,0.5,0.48,0.55,0.33,0.55,0.4,0.55,0.33,0.4,0.48,0.48,0.55,0.56,0.29,0.58,0.48,0.33,0.29,0.44,0.55,0.61,0.6,0.4,0.29,0.58,0.56,0.55,0.33,0.58,0.48,0.55,0.44,0.58,0.5,0.4,0.56,0.48" style="fill:rgb(0,0,0);font-family:URWPalladioL-Roma;font-size:9.96px;stroke:none;">amorphous natured membrane with larger pore size for free kinetic during the charge</text>
   <text y="232.942" x="472.49" svgx:width="0.29" style="fill:rgb(0,0,0);font-family:Rpxr;font-size:9.96px;stroke:none;">/</text>
   <text y="232.942" x="475.407,481.616,484.573,488.882,493.393,499.308,504.389,508.22,513.87" svgx:width="0.61,0.29,0.42,0.44,0.58,0.5,0.4,0.56,0.48" style="fill:rgb(0,0,0);font-family:URWPalladioL-Roma;font-size:9.96px;stroke:none;">discharge</text>
   <text y="246.452" x="76.236,82.343,86.174,91.723,96.235,101.102,105.411,109.719,112.20899999999999,118.377,124.586,129.667,133.976,136.933,141.445,146.526,149.472,152.43,156.982,159.472,163.1,166.412,172.326,177.1068,180.558,186.208,189.165,194.246,198.554,202.7372,206.226,212.374,217.994,222.861,226.845,230.249,233.552,239.202,245.309,250.0898,253.55,257.859,262.726,268.834,273.914,277.928,283.009,286.322,291.87,295.884,300.0672,303.557,308.638,312.469,317.2498,320.7,326.827,331.136,336.003,342.0786,345.576,348.96,354.508,358.49199999999996,361.886,366.194,371.743,377.952,380.909,387.036,395.8008,399.373,404.992,410.073,413.386,416.699,421.566,425.58,428.537,433.405,437.5882,441.077,447.286,453.414,458.1948,461.645,464.957,470.435,473.88,477.192,483.106,487.974,490.931,494.91499999999996,498.309,504.223,507.18,512.83" svgx:width="0.6,0.4,0.55,0.44,0.48,0.42,0.42,0.25,0.55,0.61,0.5,0.42,0.29,0.44,0.5,0.29,0.29,0.56,0.25,0.55,0.33,0.58,0.48,0.55,0.56,0.29,0.5,0.42,0.42,0.55,0.61,0.55,0.48,0.4,0.55,0.33,0.56,0.6,0.48,0.55,0.42,0.48,0.6,0.5,0.4,0.5,0.33,0.55,0.4,0.42,0.55,0.5,0.4,0.48,0.55,0.6,0.42,0.48,0.61,0.55,0.33,0.55,0.4,0.55,0.42,0.55,0.61,0.29,0.6,0.88,0.55,0.55,0.5,0.33,0.33,0.48,0.4,0.29,0.48,0.42,0.55,0.61,0.6,0.48,0.55,0.33,0.55,0.55,0.33,0.58,0.48,0.29,0.4,0.55,0.58,0.29,0.56,0.58" style="fill:rgb(0,0,0);font-family:URWPalladioL-Roma;font-size:9.96px;stroke:none;">process. Basically, the glass ﬁber type separators are used for sodium batteries due to their high</text>
   <text y="259.961" x="76.236,82.343,87.892,91.723,97.271,101.58,104.537,107.85,113.4276,116.751,121.832,127.746,133.8216,137.207,142.857,148.405,153.954,160.02960000000002,163.415,166.372,171.92,177.834,180.791,185.1734,188.555,193.067,198.615,204.529,210.738,216.866,221.378,224.69,227.648,233.389,236.346,239.659,245.309,247.799,251.477,257.391,262.94,271.415,276.282,282.024,286.891,290.173,292.663,296.149,299.461,305.375,310.1558,313.495,316.452,321.319,326.4,332.05,337.131,342.781,347.5618,350.901,356.449,359.73580000000004,363.085,367.952,370.909,375.777,380.289,383.601,387.432,392.981,395.938,401.588,404.901,409.6818,413.02,421.993,427.074,432.724,437.591,441.7742,445.152,448.465,454.379,459.246,468.01079999999996,471.471,477.599,483.513,487.821,493.949,496.906,500.219,505.3,510.919,513.876" svgx:width="0.6,0.55,0.4,0.55,0.42,0.29,0.33,0.56,0.55,0.5,0.58,0.61,0.55,0.56,0.55,0.55,0.61,0.55,0.29,0.55,0.58,0.29,0.44,0.55,0.44,0.55,0.58,0.61,0.6,0.44,0.33,0.29,0.56,0.29,0.33,0.56,0.25,0.55,0.58,0.55,0.83,0.48,0.56,0.48,0.4,0.25,0.55,0.33,0.58,0.48,0.55,0.29,0.48,0.5,0.56,0.5,0.56,0.48,0.55,0.55,0.33,0.55,0.48,0.29,0.48,0.44,0.33,0.4,0.55,0.29,0.56,0.33,0.48,0.55,0.88,0.5,0.56,0.48,0.42,0.55,0.33,0.58,0.48,0.88,0.55,0.6,0.58,0.42,0.6,0.29,0.33,0.5,0.55,0.29,0.48" style="fill:rgb(0,0,0);font-family:URWPalladioL-Roma;font-size:9.96px;stroke:none;">porosity and good ionic conductivity; however, the leakage of electrolyte makes them unsuitable</text>
   <text y="273.471" x="76.535,79.912,85.45,89.434,91.951,98.046,102.052,107.123,111.626,114.932,117.884,122.387,127.458,130.3464,132.894,137.965,144.06,150.155,153.107,156.058,160.561,165.632,168.938,171.889,177.427,183.2038,185.824,194.283,200.185,205.043,208.867,213.6478,216.22,219.526,225.429,230.287,235.8646,238.41,242.913,247.984,253.76080000000002,256.382,260.885,265.956,272.071,276.372,281.1528,283.714,289.881,294.952,303.907,312.862,317.933,323.542,326.493,329.444,332.395,335.702,341.2796,343.836,348.907,354.809,360.88460000000003,363.501,368.359,373.592,379.687,382.639,388.176,392.476,395.428,400.965,406.74179999999996,409.352,414.89,418.1768,420.762,424.768,427.719,432.02,437.5976,440.143,445.214,449.514,453.815,459.352,463.855,466.806,471.877,475.184,480.042,486.1176,488.733" svgx:width="0.33,0.55,0.4,0.55,0.6,0.4,0.5,0.44,0.33,0.29,0.44,0.5,0.29,0.55,0.5,0.6,0.6,0.29,0.29,0.44,0.5,0.33,0.29,0.55,0.58,0.55,0.83,0.58,0.48,0.4,0.48,0.55,0.33,0.58,0.48,0.56,0.55,0.44,0.5,0.58,0.55,0.44,0.5,0.6,0.42,0.48,0.55,0.61,0.5,0.88,0.88,0.5,0.55,0.29,0.29,0.29,0.33,0.56,0.55,0.5,0.58,0.61,0.55,0.48,0.52,0.6,0.29,0.55,0.42,0.29,0.55,0.58,0.55,0.55,0.33,0.55,0.4,0.29,0.42,0.56,0.55,0.5,0.42,0.42,0.55,0.44,0.29,0.5,0.33,0.48,0.61,0.55,0.33" style="fill:rgb(0,0,0);font-family:URWPalladioL-Roma;font-size:9.96px;stroke:none;">for practical application where they can cause ﬂammability and explosion of risk associated [</text>
   <text y="273.471" x="492.11,497.091" svgx:width="0.5,0.5" style="fill:rgb(8,117,183);font-family:URWPalladioL-Roma;font-size:9.96px;stroke:none;">10</text>
   <text y="273.471" x="502.073" svgx:width="0.25" style="fill:rgb(0,0,0);font-family:URWPalladioL-Roma;font-size:9.96px;stroke:none;">,</text>
   <text y="273.471" x="504.608,509.589" svgx:width="0.5,0.5" style="fill:rgb(8,117,183);font-family:URWPalladioL-Roma;font-size:9.96px;stroke:none;">11</text>
   <text y="273.471" x="514.571,517.948" svgx:width="0.33,0.25" style="fill:rgb(0,0,0);font-family:URWPalladioL-Roma;font-size:9.96px;stroke:none;">].</text>
   <text y="286.98" x="76.226,81.541,87.01899999999999,90.219,95.767,101.509,106.376,110.217,114.729,120.278,129.251,134.0318,137.248,140.561,146.475,151.342,155.651,160.4318,163.659,169.766,173.597,179.145,184.765,187.722,192.589,201.562,205.871,208.36100000000002,211.714,216.226,222.353,226.367,230.198,235.066,240.98,244.293,247.25,252.8276,256.04,259.353,265.267,270.0478,273.264,279.372,284.92,287.877,293.527,302.5,307.367,311.209,314.593,320.212,325.293,329.602,334.469,340.5446,343.808,348.117,352.984,359.091,364.172,368.186,373.267,376.58,382.128,386.11199999999997,389.282,398.255,403.123,412.096,417.715,421.729,426.81,432.724,437.592,441.7752,445.03,449.339,454.887,459.968,465.618,470.486,476.5616,479.834,482.792,488.56879999999995,491.846,494.803,497.76,503.451,509.578,512.535" svgx:width="0.61,0.55,0.55,0.55,0.56,0.48,0.4,0.44,0.55,0.88,0.48,0.55,0.33,0.58,0.48,0.42,0.48,0.55,0.6,0.4,0.55,0.55,0.29,0.48,0.88,0.42,0.25,0.55,0.44,0.6,0.4,0.4,0.48,0.58,0.33,0.29,0.56,0.55,0.33,0.58,0.48,0.55,0.6,0.55,0.29,0.56,0.88,0.48,0.4,0.33,0.55,0.5,0.42,0.48,0.61,0.55,0.42,0.48,0.6,0.5,0.4,0.5,0.33,0.55,0.4,0.55,0.88,0.48,0.88,0.55,0.4,0.5,0.58,0.48,0.42,0.55,0.42,0.55,0.5,0.56,0.48,0.61,0.55,0.29,0.58,0.55,0.29,0.29,0.56,0.6,0.29,0.61" style="fill:rgb(0,0,0);font-family:URWPalladioL-Roma;font-size:9.96px;stroke:none;">To overcome these problems, currently the polymer-based separator membranes soaked in liquid</text>
   <text y="300.489" x="76.535,81.216,84.06,88.742,93.081,96.267,99.952,105.288,108.132,113.566,116.752,121.434,125.6172,128.06,132.947,136.631,141.4118,143.805,147.949,153.842,156.686,159.872,164.759,170.163,173.007,177.7878,180.181,183.435,188.772,192.756,195.115,197.959,203.295,208.983,211.827,216.2094,218.658,222.998,228.334,234.022,239.994,245.887,250.226,253.412,256.256,261.593,267.3698,269.773,274.66,280.348,286.4236,288.811,293.698,297.373,302.1538,304.546,307.39,312.072,316.958,322.392,327.279,332.713,337.394,340.649,343.904,347.588,352.269,357.0498,359.443,364.33,368.5132,370.956,375.1,379.987,383.241,388.0218,390.415,394.559,399.24,405.114,410.0,413.861,418.748,421.934,427.27,431.25399999999996,433.622,442.252,446.934,455.564,460.968,464.829,469.715,475.403,480.085,484.2682,486.721" svgx:width="0.48,0.29,0.48,0.44,0.33,0.4,0.55,0.29,0.56,0.33,0.48,0.42,0.55,0.5,0.4,0.48,0.55,0.42,0.6,0.29,0.33,0.5,0.55,0.29,0.48,0.55,0.33,0.55,0.4,0.55,0.29,0.55,0.58,0.29,0.44,0.55,0.44,0.55,0.58,0.61,0.6,0.44,0.33,0.29,0.55,0.58,0.55,0.5,0.58,0.61,0.55,0.5,0.4,0.48,0.55,0.29,0.48,0.5,0.56,0.5,0.56,0.48,0.33,0.33,0.4,0.48,0.48,0.55,0.5,0.42,0.55,0.42,0.5,0.33,0.48,0.55,0.42,0.48,0.6,0.5,0.4,0.5,0.33,0.55,0.4,0.55,0.88,0.48,0.88,0.55,0.4,0.5,0.58,0.48,0.42,0.55,0.33" style="fill:rgb(0,0,0);font-family:URWPalladioL-Roma;font-size:9.96px;stroke:none;">electrolytes are suitable for ionic conduction and are leakage-free as safe separator membranes [</text>
   <text y="300.489" x="489.974,494.955" svgx:width="0.5,0.5" style="fill:rgb(8,117,183);font-family:URWPalladioL-Roma;font-size:9.96px;stroke:none;">12</text>
   <text y="300.489" x="499.937" svgx:width="0.5" style="fill:rgb(0,0,0);font-family:URWPalladioL-Roma;font-size:9.96px;stroke:none;">–</text>
   <text y="300.489" x="504.823,509.804" svgx:width="0.5,0.5" style="fill:rgb(8,117,183);font-family:URWPalladioL-Roma;font-size:9.96px;stroke:none;">14</text>
   <text y="300.489" x="514.786,518.041" svgx:width="0.33,0.25" style="fill:rgb(0,0,0);font-family:URWPalladioL-Roma;font-size:9.96px;stroke:none;">].</text>
   <text y="313.999" x="76.226,82.211,87.893,92.6738,94.396,100.293,105.623,108.465,113.893,117.144,122.66,125.502,131.184,136.612,139.453,142.295,148.26,152.937,158.619,163.3998,165.121,171.057,176.945,182.276,186.132,188.973,194.939,199.615,202.9018,204.692,207.943,213.84,220.89,226.855,232.283,235.5698,237.36,240.201,244.3842,246.177,251.507,257.19,261.9708,263.692,269.023,272.30980000000005,274.1,277.283,282.965,287.7458,289.467,298.088,303.419,307.559,310.84580000000005,312.567,320.71,323.551,329.517,334.193,337.034,342.6116,344.288,350.176,354.315,358.992,366.783,372.651,377.982,380.823,386.251,394.872,399.549,403.406,407.5892,409.381,414.262,418.4452,420.228,428.849,433.525,442.146,447.546,451.402,456.284,461.966,466.7468,468.468,477.09,481.971,485.154,489.831,493.687,496.528,501.41,504.251,508.4342,510.217,513.058" svgx:width="0.61,0.58,0.48,0.55,0.6,0.55,0.29,0.56,0.33,0.56,0.29,0.58,0.56,0.29,0.29,0.61,0.48,0.58,0.48,0.55,0.61,0.6,0.55,0.4,0.29,0.61,0.48,0.33,0.55,0.33,0.6,0.72,0.61,0.56,0.33,0.55,0.29,0.42,0.55,0.55,0.58,0.48,0.55,0.55,0.33,0.55,0.33,0.58,0.48,0.55,0.88,0.55,0.42,0.33,0.55,0.83,0.29,0.61,0.48,0.29,0.56,0.55,0.6,0.42,0.48,0.61,0.6,0.55,0.29,0.56,0.88,0.48,0.4,0.42,0.55,0.5,0.42,0.55,0.88,0.48,0.88,0.55,0.4,0.5,0.58,0.48,0.55,0.88,0.5,0.33,0.48,0.4,0.29,0.5,0.29,0.42,0.55,0.29,0.58" style="fill:rgb(0,0,0);font-family:URWPalladioL-Roma;font-size:9.96px;stroke:none;">The Poly(vinylidene ﬂuoride) (PVdF) is one of the most widely usedpolymers as membrane materials in</text>
   <text y="327.508" x="76.535,79.718,85.4,90.1808,92.303,95.144,100.826,106.792,112.679,116.819,120.001,123.858,129.4356,131.512,134.764,140.094,144.078,146.177,149.018,152.201,156.3842,158.576,162.716,165.557,170.986,176.668,179.509,185.416,189.751,194.632,200.315,203.6018,205.724,211.591,215.262,220.593,226.461,231.138,234.994,238.177,241.018,245.695,249.8782,252.07,254.911,257.753,263.181,267.9618,270.084,275.766,278.607,284.035,289.718,294.394,298.378,300.477,303.66,309.342,314.019,317.875,326.496,331.378,334.2664,336.445,341.327,347.009,353.0846,355.201,360.883,366.311,372.277,375.957,381.288,384.129,389.558,392.741,395.582,399.9644,402.143,408.05,411.906,420.527,426.209,430.886,435.026,439.2092,441.391,449.534,452.375,455.558,461.3348,463.466,467.606,473.493,479.361,484.038,487.894,490.735,496.066,500.04999999999995,502.149,507.03,512.713,515.896" svgx:width="0.33,0.58,0.48,0.55,0.29,0.58,0.61,0.6,0.42,0.33,0.4,0.56,0.55,0.33,0.55,0.4,0.55,0.29,0.33,0.42,0.55,0.42,0.29,0.56,0.58,0.29,0.61,0.44,0.5,0.58,0.33,0.55,0.6,0.4,0.55,0.6,0.48,0.4,0.33,0.29,0.48,0.42,0.55,0.29,0.29,0.56,0.48,0.55,0.58,0.29,0.56,0.58,0.48,0.4,0.55,0.33,0.58,0.48,0.4,0.88,0.5,0.29,0.55,0.5,0.58,0.61,0.55,0.58,0.56,0.61,0.4,0.55,0.29,0.56,0.33,0.29,0.44,0.55,0.61,0.4,0.88,0.58,0.48,0.42,0.42,0.55,0.83,0.29,0.33,0.58,0.55,0.42,0.6,0.6,0.48,0.4,0.29,0.55,0.4,0.55,0.5,0.58,0.33,0.29" style="fill:rgb(0,0,0);font-family:URWPalladioL-Roma;font-size:9.96px;stroke:none;">the industry for its signiﬁcant properties like higher thermal and hydrolytic ﬁrmness with superior anti</text>
   <text y="341.018" x="76.535,81.866,86.904,89.745,95.71,100.592,103.775,106.616,111.947,117.7238,119.767,127.91,130.751,133.934,139.7108,141.744,149.887,155.218,159.074,162.257,167.939,173.51659999999998,175.506,184.127,188.804,193.139,198.821,203.703,209.385,212.226,216.561,221.443,224.3314,226.412,229.663,234.994,238.851,247.472,250.313,255.995,261.5726,263.562,269.429,273.11,278.441,284.309,288.985,292.842,296.025,298.866,303.543,307.7262,309.811" svgx:width="0.55,0.52,0.29,0.61,0.5,0.33,0.29,0.55,0.58,0.55,0.83,0.29,0.33,0.58,0.55,0.83,0.55,0.4,0.33,0.58,0.56,0.55,0.88,0.48,0.44,0.58,0.5,0.58,0.29,0.44,0.5,0.29,0.55,0.33,0.55,0.4,0.88,0.29,0.58,0.56,0.55,0.6,0.4,0.55,0.6,0.48,0.4,0.33,0.29,0.48,0.42,0.55,0.33" style="fill:rgb(0,0,0);font-family:URWPalladioL-Roma;font-size:9.96px;stroke:none;">oxidation with worthy mechanical forming properties [</text>
   <text y="341.018" x="313.063,318.044" svgx:width="0.5,0.5" style="fill:rgb(8,117,183);font-family:URWPalladioL-Roma;font-size:9.96px;stroke:none;">15</text>
   <text y="341.018" x="323.026,326.277,328.767,332.086,335.377,341.1538,343.197,348.079,354.044,360.01,362.851,366.034,368.875,374.205,379.888,382.378,384.525,387.708,393.39,398.1708,400.205,405.888,408.729,414.157,419.93379999999996,421.978,427.943,430.784,435.461,438.302,442.978,447.313,450.496,454.353,457.194,461.57640000000004,463.657,467.992,473.323,479.005,483.145,486.328,491.209,496.892,500.1788,502.213,507.094,512.777" svgx:width="0.33,0.25,0.55,0.34,0.58,0.55,0.5,0.61,0.61,0.29,0.33,0.29,0.55,0.58,0.25,0.55,0.33,0.58,0.48,0.55,0.58,0.29,0.56,0.58,0.55,0.61,0.29,0.48,0.29,0.48,0.44,0.33,0.4,0.29,0.44,0.55,0.44,0.55,0.58,0.42,0.33,0.5,0.58,0.33,0.55,0.5,0.58,0.61" style="fill:rgb(0,0,0);font-family:URWPalladioL-Roma;font-size:9.96px;stroke:none;">]. In addition, the high dielectric constant and</text>
   <text y="354.527" x="76.535,80.772,84.029,87.797,93.252,99.068,104.6456,107.132,111.918,114.826,119.613,124.049,127.307,131.074,136.53,142.346,145.673,154.007,156.915,160.172,165.988,172.093,176.04,181.036,189.37,192.278,198.094,203.67159999999998,206.158,209.485,215.511,221.326,225.763,229.02,231.928,237.384,243.2,248.196,251.0844,253.612,259.168,262.935,268.391,274.416,280.422,284.6052,287.167,290.494,297.579,302.575,308.131,311.4178,313.967,322.79,327.786,333.342,336.25,342.065,347.6426,350.129,353.387,359.202,363.989,375.33,384.154,390.179,394.616,400.39279999999997,402.94,411.763,417.219,420.986,425.7668,428.281,431.188,437.004,440.262,445.048,448.815,453.601,457.838,461.096,464.004,469.819,475.39660000000003,477.883,486.707,491.703,494.96,499.747,503.694,506.602,511.598,514.506" svgx:width="0.42,0.33,0.4,0.55,0.58,0.56,0.55,0.48,0.29,0.48,0.44,0.33,0.4,0.55,0.58,0.33,0.83,0.29,0.33,0.58,0.61,0.4,0.5,0.83,0.29,0.58,0.56,0.55,0.33,0.6,0.58,0.44,0.33,0.29,0.55,0.58,0.5,0.29,0.55,0.56,0.4,0.55,0.6,0.6,0.42,0.55,0.33,0.71,0.5,0.56,0.33,0.55,0.88,0.5,0.56,0.29,0.58,0.56,0.55,0.33,0.58,0.48,0.88,0.88,0.6,0.44,0.58,0.55,0.88,0.55,0.4,0.48,0.55,0.29,0.58,0.33,0.48,0.4,0.48,0.42,0.33,0.29,0.58,0.56,0.55,0.88,0.5,0.33,0.48,0.4,0.29,0.5,0.29,0.42" style="fill:rgb(0,0,0);font-family:URWPalladioL-Roma;font-size:9.96px;stroke:none;">strong electron-withdrawing functional groups (C–F) making themmuch more interesting materials</text>
   <text y="368.036" x="76.535,79.919,85.467,89.451,92.53,101.503,106.37,115.343,120.963,124.977,130.057,135.972,140.7528,143.878,149.985,153.826,158.694,164.801,169.882,173.896,178.977,182.289,185.246,190.795,196.5718,199.747" svgx:width="0.33,0.55,0.4,0.55,0.88,0.48,0.88,0.55,0.4,0.5,0.58,0.48,0.55,0.6,0.4,0.48,0.6,0.5,0.4,0.5,0.33,0.29,0.55,0.58,0.55,0.33" style="fill:rgb(0,0,0);font-family:URWPalladioL-Roma;font-size:9.96px;stroke:none;">for membrane preparation [</text>
   <text y="368.036" x="203.133,208.114" svgx:width="0.5,0.5" style="fill:rgb(8,117,183);font-family:URWPalladioL-Roma;font-size:9.96px;stroke:none;">16</text>
   <text y="368.036" x="213.096" svgx:width="0.25" style="fill:rgb(0,0,0);font-family:URWPalladioL-Roma;font-size:9.96px;stroke:none;">,</text>
   <text y="368.036" x="215.636,220.617" svgx:width="0.5,0.5" style="fill:rgb(8,117,183);font-family:URWPalladioL-Roma;font-size:9.96px;stroke:none;">17</text>
   <text y="368.036" x="225.599,228.983,231.473,236.675,246.289,251.369,257.284,262.8616,265.972,269.813,274.681,280.788,286.336,290.35,293.663,297.8462,301.01,306.091,309.932,314.7128,317.838,322.919,328.66,333.741,336.698,339.656,344.737,350.356,353.313,358.0938,361.229,364.613,370.161,374.145,377.214,383.352,390.688,396.897,402.4746,405.596,414.569,419.436,428.409,434.029,438.043,443.124,449.038,453.905,458.0882,461.262,469.737,472.695,476.007,481.7838,484.96,490.701,495.782,499.796,502.753,508.302,514.429" svgx:width="0.33,0.25,0.55,0.95,0.5,0.58,0.56,0.55,0.4,0.48,0.6,0.55,0.4,0.33,0.42,0.55,0.5,0.4,0.48,0.55,0.5,0.56,0.5,0.29,0.29,0.5,0.55,0.29,0.48,0.55,0.33,0.55,0.4,0.55,0.6,0.72,0.61,0.56,0.55,0.88,0.48,0.88,0.55,0.4,0.5,0.58,0.48,0.42,0.55,0.83,0.29,0.33,0.58,0.55,0.56,0.5,0.4,0.29,0.55,0.6,0.42" style="fill:rgb(0,0,0);font-family:URWPalladioL-Roma;font-size:9.96px;stroke:none;">]. Many reports are available for PVdF membranes with various</text>
   <text y="381.546" x="76.236,82.218,85.97,90.737,96.719,101.695,105.626,110.602,113.847,116.743,122.177,127.9538,130.478,133.722,138.49,142.909,148.701,154.494,157.39,162.963,168.965,173.732,177.952,180.442,182.948,187.168,193.17,197.589,203.3658,205.879,210.855,215.0382,217.583,221.803,227.805,231.736,235.05,240.027,244.446,249.2268,251.711,260.499,265.933,272.014,274.911,280.932,285.351,290.327,293.572,296.468,301.902,307.695,310.185,312.691,318.672,324.465,329.998,334.218,337.115,341.533,346.51,349.3984,351.914,360.702,363.598,368.734,371.63,377.423,382.956,385.446,387.953,392.372,398.164,402.931,411.719,414.616,419.035,424.011,426.8994,429.415,433.635,439.617,442.513,445.409,449.828,452.724,458.517,464.05,466.54,469.047,473.814,477.058,481.477,483.967,486.464" svgx:width="0.6,0.4,0.48,0.6,0.5,0.4,0.5,0.33,0.29,0.55,0.58,0.55,0.33,0.48,0.44,0.58,0.58,0.29,0.56,0.6,0.48,0.42,0.25,0.55,0.42,0.6,0.44,0.58,0.55,0.5,0.42,0.55,0.42,0.6,0.4,0.33,0.5,0.44,0.48,0.55,0.88,0.55,0.61,0.29,0.61,0.44,0.5,0.33,0.29,0.55,0.58,0.25,0.55,0.6,0.58,0.56,0.42,0.29,0.44,0.5,0.29,0.55,0.88,0.29,0.52,0.29,0.58,0.56,0.25,0.55,0.44,0.58,0.48,0.88,0.29,0.44,0.5,0.29,0.55,0.42,0.6,0.29,0.29,0.44,0.29,0.58,0.56,0.25,0.55,0.48,0.33,0.44,0.25,0.55,0.33" style="fill:rgb(0,0,0);font-family:URWPalladioL-Roma;font-size:9.96px;stroke:none;">preparation techniques, such as surface modiﬁcation, physical mixing, chemical splicing, etc. [</text>
   <text y="381.546" x="489.78,494.761" svgx:width="0.5,0.5" style="fill:rgb(8,117,183);font-family:URWPalladioL-Roma;font-size:9.96px;stroke:none;">18</text>
   <text y="381.546" x="499.742" svgx:width="0.5" style="fill:rgb(0,0,0);font-family:URWPalladioL-Roma;font-size:9.96px;stroke:none;">–</text>
   <text y="381.546" x="504.719,509.7" svgx:width="0.5,0.5" style="fill:rgb(8,117,183);font-family:URWPalladioL-Roma;font-size:9.96px;stroke:none;">20</text>
   <text y="381.546" x="514.681,517.995" svgx:width="0.33,0.25" style="fill:rgb(0,0,0);font-family:URWPalladioL-Roma;font-size:9.96px;stroke:none;">].</text>
   <text y="395.055" x="76.535,84.874,90.346,98.704,103.505,109.168,113.969,117.186,119.676,122.197,125.464,131.297,136.0778,138.604,144.146,147.062,151.863,157.696,163.82,166.736,172.569,178.14659999999998,180.647,186.12,189.4068,191.963,198.016,205.252,211.376,216.9536,219.444,227.803,230.719,233.987,239.7638,242.325,245.242,251.075,256.547,260.325,265.898,270.909,276.742,279.658,284.04040000000003,286.614,295.464,300.475,303.742,308.543,312.502,315.418,320.43,323.346,327.5292,330.101,333.018,337.2012,339.763,345.425,350.226,354.185,359.7626,362.263,365.179,371.012,374.28,379.08,382.859,387.66,391.909,395.176,398.093,403.926,409.5036,412.004,417.546,422.347,426.797,431.808,437.852,442.101,446.8818,449.397,454.87,458.15680000000003,460.713,463.98,469.813,474.614,477.53,481.51399999999995,483.995,488.244,494.288,497.204,500.471,505.483,511.025,513.941" svgx:width="0.83,0.55,0.83,0.48,0.56,0.48,0.4,0.25,0.55,0.33,0.58,0.48,0.55,0.55,0.29,0.48,0.58,0.61,0.29,0.58,0.56,0.55,0.55,0.33,0.55,0.6,0.72,0.61,0.56,0.55,0.83,0.29,0.33,0.58,0.55,0.29,0.58,0.55,0.4,0.56,0.5,0.58,0.29,0.44,0.55,0.88,0.5,0.33,0.48,0.4,0.29,0.5,0.29,0.42,0.55,0.29,0.42,0.55,0.56,0.48,0.4,0.56,0.55,0.29,0.58,0.33,0.48,0.4,0.48,0.42,0.33,0.29,0.58,0.56,0.55,0.55,0.48,0.44,0.5,0.6,0.42,0.48,0.55,0.55,0.33,0.55,0.33,0.58,0.48,0.29,0.4,0.55,0.42,0.6,0.29,0.33,0.5,0.55,0.29,0.48" style="fill:rgb(0,0,0);font-family:URWPalladioL-Roma;font-size:9.96px;stroke:none;">However, the blending of PVdF with inorganic materials is very interesting because of their suitable</text>
   <text y="408.565" x="76.535,82.083,88.191,93.058,97.072,102.153,105.466,108.423,113.971,119.7478,122.822,126.206,131.755,135.739,138.705,142.089,147.637,151.651,160.624,163.581,169.496,175.0736,178.082,187.055,191.923,200.896,206.515,210.529,215.61,221.524,226.392,230.5752,233.637,242.112,245.069,248.382,254.1588,257.233,262.883,268.431,273.98,280.0556,283.125,286.083,291.631,297.40779999999995,300.482,304.994,310.542,316.456,322.665,328.793,333.305,336.617,339.574,345.489,351.0666,354.065,359.979,365.06,368.373,374.501,378.342,383.1228,386.146" svgx:width="0.55,0.6,0.48,0.4,0.5,0.33,0.29,0.55,0.58,0.55,0.33,0.55,0.4,0.55,0.33,0.55,0.4,0.88,0.29,0.58,0.56,0.55,0.88,0.48,0.88,0.55,0.4,0.5,0.58,0.48,0.42,0.55,0.83,0.29,0.33,0.58,0.55,0.56,0.55,0.55,0.61,0.55,0.29,0.55,0.58,0.55,0.44,0.55,0.58,0.61,0.6,0.44,0.33,0.29,0.58,0.56,0.55,0.58,0.5,0.33,0.6,0.4,0.48,0.55,0.33" style="fill:rgb(0,0,0);font-family:URWPalladioL-Roma;font-size:9.96px;stroke:none;">operation for forming membranes with good ion conducting nature [</text>
   <text y="408.565" x="389.528,394.509" svgx:width="0.5,0.5" style="fill:rgb(8,117,183);font-family:URWPalladioL-Roma;font-size:9.96px;stroke:none;">19</text>
   <text y="408.565" x="399.491,402.875,405.365,410.242,416.095,421.176,427.091,432.6686,435.677,440.545,443.83180000000004,446.794,451.875,454.832,457.322,460.31" svgx:width="0.33,0.25,0.55,0.67,0.5,0.58,0.56,0.55,0.48,0.33,0.55,0.5,0.29,0.25,0.55,0.33" style="fill:rgb(0,0,0);font-family:URWPalladioL-Roma;font-size:9.96px;stroke:none;">]. Yang et al. [</text>
   <text y="408.565" x="463.697,468.678" svgx:width="0.5,0.5" style="fill:rgb(8,117,183);font-family:URWPalladioL-Roma;font-size:9.96px;stroke:none;">20</text>
   <text y="408.565" x="473.66,476.94680000000005,479.981,483.812,488.679,494.786,500.335,504.349,507.662,512.529" svgx:width="0.33,0.55,0.4,0.48,0.6,0.55,0.4,0.33,0.48,0.61" style="fill:rgb(0,0,0);font-family:URWPalladioL-Roma;font-size:9.96px;stroke:none;">] reported</text>
   <text y="422.074" x="76.535,79.841,85.744,90.815,94.1018,96.616,102.711,108.249,111.2,116.839,120.216,125.946,128.898,134.8,140.439,143.391,146.342,152.539,157.397,163.299,168.0798,170.652,176.849,179.8,185.966,192.082,197.619,201.626,204.577,210.774,215.632,219.009,223.512,229.049,232.427,238.329,243.187,248.42,253.491,259.658,265.773,271.311,275.144,280.682,286.777,290.601,296.138,302.233,307.872,310.824,315.682,321.584,326.442,329.72880000000004,332.314,338.44,345.763,351.959,357.598,360.975,369.414,375.052,381.178,384.555,390.164,395.235,399.535,404.393,410.4686,413.085,418.724,423.582,426.533,431.604,437.699,443.237,446.188,451.827,460.782,465.64,469.62399999999997,472.141,476.999,479.95,484.808,489.311,492.618,496.451,501.989,504.94,510.579,513.885" svgx:width="0.33,0.58,0.5,0.33,0.55,0.6,0.55,0.29,0.56,0.33,0.56,0.29,0.58,0.56,0.29,0.29,0.61,0.48,0.58,0.48,0.55,0.61,0.29,0.61,0.6,0.55,0.4,0.29,0.61,0.48,0.33,0.44,0.55,0.33,0.58,0.48,0.52,0.5,0.61,0.6,0.55,0.4,0.55,0.6,0.4,0.55,0.6,0.56,0.29,0.48,0.58,0.48,0.33,0.55,0.6,0.72,0.61,0.56,0.33,0.83,0.56,0.6,0.33,0.55,0.5,0.42,0.48,0.61,0.55,0.56,0.48,0.29,0.5,0.6,0.55,0.29,0.56,0.88,0.48,0.4,0.55,0.48,0.29,0.48,0.44,0.33,0.4,0.55,0.29,0.56,0.33,0.48" style="fill:rgb(0,0,0);font-family:URWPalladioL-Roma;font-size:9.96px;stroke:none;">that poly(vinylidene diﬂuoride-co-hexaﬂuoropropylene) PVdF-HFP-based gel–polymer electrolyte</text>
   <text y="435.583" x="76.535,81.398,86.636,92.545,95.499,101.113,104.067,107.376,112.239,118.3146,120.929,126.005,131.7818,134.401,137.355,142.898,148.806,151.76,156.14239999999998,158.755,163.263,168.806,174.714,180.917,187.038,191.546,194.855,197.809,203.545,206.499,209.809,215.3866,217.941,223.484,226.7708,229.341,234.417,236.955,242.031,247.011,249.594,258.558,263.7372,266.375,270.883" svgx:width="0.48,0.52,0.58,0.29,0.55,0.29,0.33,0.48,0.61,0.55,0.5,0.58,0.55,0.29,0.55,0.58,0.29,0.44,0.55,0.44,0.55,0.58,0.61,0.6,0.44,0.33,0.29,0.56,0.29,0.33,0.56,0.55,0.55,0.33,0.55,0.5,0.25,0.5,0.5,0.55,0.88,0.52,0.55,0.44,0.88" style="fill:rgb(0,0,0);font-family:URWPalladioL-Roma;font-size:9.96px;stroke:none;">exhibited an ionic conductivity of 0.16 mS cm</text>
   <text y="431.967" x="279.85" svgx:width="0.67" style="fill:rgb(0,0,0);font-family:Pxsy;font-size:7.57px;stroke:none;">−</text>
   <text y="431.967" x="284.916" svgx:width="0.5" style="fill:rgb(0,0,0);font-family:URWPalladioL-Roma;font-size:7.57px;stroke:none;">1</text>
   <text y="435.583" x="291.686,296.762,300.0488,302.559,307.635,316.599,322.213,325.167,330.03,335.938,339.2248,341.735,345.044,349.907,358.871,364.972,369.835,373.845,378.921,382.231,388.352,392.18,397.042,399.532,403.062,410.433,416.554,425.518,430.594,434.578,437.092,441.954,445.24080000000004,447.751,452.827,455.781,458.271,460.806" svgx:width="0.5,0.33,0.55,0.5,0.88,0.55,0.29,0.48,0.58,0.33,0.55,0.33,0.48,0.88,0.6,0.48,0.4,0.5,0.33,0.6,0.4,0.48,0.25,0.55,0.73,0.6,0.88,0.5,0.4,0.55,0.48,0.33,0.55,0.5,0.29,0.25,0.55,0.33" style="fill:rgb(0,0,0);font-family:URWPalladioL-Roma;font-size:9.96px;stroke:none;">at ambient temperature. Kumar et al. [</text>
   <text y="435.583" x="464.188,469.169" svgx:width="0.5,0.5" style="fill:rgb(8,117,183);font-family:URWPalladioL-Roma;font-size:9.96px;stroke:none;">21</text>
   <text y="435.583" x="474.151,477.43780000000004,480.019,483.846,488.709,494.81,500.353,504.363,507.673,512.535" svgx:width="0.33,0.55,0.4,0.48,0.6,0.55,0.4,0.33,0.48,0.61" style="fill:rgb(0,0,0);font-family:URWPalladioL-Roma;font-size:9.96px;stroke:none;">] reported</text>
   <text y="449.093" x="76.535,82.673,92.286,101.899,109.805,114.886,121.095,128.299,133.38,139.518,146.723,151.804,160.248,165.329,172.534,175.491" svgx:width="0.6,0.95,0.95,0.78,0.5,0.61,0.71,0.5,0.6,0.71,0.5,0.83,0.5,0.71,0.29,0.79" style="fill:rgb(0,0,0);font-family:URWPalladioL-Roma;font-size:9.96px;stroke:none;">PMMA–EC–PC–NaClO</text>
   <text y="450.957" x="183.478" svgx:width="0.5" style="fill:rgb(0,0,0);font-family:URWPalladioL-Roma;font-size:7.57px;stroke:none;">4</text>
   <text y="449.093" x="187.762,191.146,196.765,201.846,206.155,211.022,217.0976,220.453,226.103,230.97,233.927,239.008,245.115,250.664,253.621,259.271,268.244,273.111,277.09499999999997,280.336,285.204,288.161,293.029,297.54,300.853,304.694,310.243,313.2,318.85,322.152,326.9328,330.241,333.625,339.174,343.15799999999996,346.409,350.717,356.266,362.475,365.432,371.559,380.3238,383.743,386.701,392.249,398.0258,401.384,407.004,412.085,415.398,418.71,423.578,427.592,433.1696,436.463,444.938,447.885,451.198,456.97479999999996,460.333,466.248,471.796,475.109,480.19,485.809,488.766,493.5468,496.855,499.812,505.361,511.275,514.232" svgx:width="0.33,0.55,0.5,0.42,0.48,0.61,0.55,0.56,0.48,0.29,0.5,0.6,0.55,0.29,0.56,0.88,0.48,0.4,0.55,0.48,0.29,0.48,0.44,0.33,0.4,0.55,0.29,0.56,0.33,0.48,0.55,0.33,0.55,0.4,0.55,0.42,0.55,0.61,0.29,0.6,0.88,0.55,0.29,0.55,0.58,0.55,0.55,0.5,0.33,0.33,0.48,0.4,0.56,0.55,0.83,0.29,0.33,0.58,0.55,0.58,0.55,0.33,0.5,0.55,0.29,0.48,0.55,0.29,0.55,0.58,0.29,0.44" style="fill:rgb(0,0,0);font-family:URWPalladioL-Roma;font-size:9.96px;stroke:none;">-based gel–polymer electrolyte for sodium ion battery with notable ionic</text>
   <text y="462.602" x="76.535,80.87,86.201,91.883,97.848,103.736,108.071,111.253,114.095,119.611,122.452,125.635,131.2126,133.416,138.747,142.0338,144.351,149.233,151.674,156.654,158.908,167.529,172.7082,175.008,179.343" svgx:width="0.44,0.55,0.58,0.61,0.6,0.44,0.33,0.29,0.56,0.29,0.33,0.56,0.55,0.55,0.33,0.55,0.5,0.25,0.5,0.55,0.88,0.52,0.55,0.44,0.88" style="fill:rgb(0,0,0);font-family:URWPalladioL-Roma;font-size:9.96px;stroke:none;">conductivity of 3.4 mS cm</text>
   <text y="458.986" x="187.964" svgx:width="0.67" style="fill:rgb(0,0,0);font-family:Pxsy;font-size:7.57px;stroke:none;">−</text>
   <text y="458.986" x="193.029" svgx:width="0.5" style="fill:rgb(0,0,0);font-family:URWPalladioL-Roma;font-size:7.57px;stroke:none;">1</text>
   <text y="462.602" x="199.666,204.548,210.23,216.3056,218.548,226.671,231.553,235.41,239.549,245.232,248.073,252.954,256.137,261.117,263.372,268.048,271.33480000000003,273.584,278.466,281.307,283.797,286.101" svgx:width="0.5,0.58,0.61,0.55,0.83,0.5,0.4,0.42,0.58,0.29,0.5,0.33,0.5,0.55,0.48,0.33,0.55,0.5,0.29,0.25,0.55,0.33" style="fill:rgb(0,0,0);font-family:URWPalladioL-Roma;font-size:9.96px;stroke:none;">and Harshlata et al. [</text>
   <text y="462.602" x="289.352,294.333" svgx:width="0.5,0.5" style="fill:rgb(8,117,183);font-family:URWPalladioL-Roma;font-size:9.96px;stroke:none;">22</text>
   <text y="462.602" x="299.315,302.6018,304.919,308.6,313.277,319.144,324.475,328.332,331.515,336.191,342.2666,344.51,350.377,355.708,358.549,363.978,372.599,377.275,381.25899999999996,383.485,388.161,391.003,395.679,400.014,403.197,406.868,412.199,415.04,420.468,423.651,428.4318,430.681,439.302,443.978,452.6,457.999,461.855,466.737,472.419,477.1998,479.449,485.317,488.997,493.674,499.542,504.423,508.094,512.771" svgx:width="0.33,0.55,0.4,0.48,0.6,0.55,0.4,0.33,0.48,0.61,0.55,0.6,0.55,0.29,0.56,0.88,0.48,0.4,0.55,0.48,0.29,0.48,0.44,0.33,0.4,0.55,0.29,0.56,0.33,0.48,0.55,0.88,0.48,0.88,0.55,0.4,0.5,0.58,0.48,0.55,0.6,0.4,0.48,0.6,0.5,0.4,0.48,0.61" style="fill:rgb(0,0,0);font-family:URWPalladioL-Roma;font-size:9.96px;stroke:none;">] reported polymer electrolyte membrane prepared</text>
   <text y="476.112" x="76.535,82.044,87.6216,90.064,96.052,101.85,106.831,111.055,115.8358,118.308,121.207,127.006,132.634,137.406,141.342,145.566,148.465,153.905,159.6818,162.183,165.431,170.203,174.627,180.425,186.223,189.122,194.701,200.709,205.4898,207.972,211.289,216.729,220.71300000000002,223.145,228.375,233.815,239.902,242.801,248.808,260.086,262.985,268.425,274.2018,276.703,281.127,286.566,292.365,298.452,304.459,308.883,312.13,315.03,320.469,326.2458,328.748,337.057,339.956,343.204,348.9808,351.483,354.382,359.821,365.62,368.519,372.9014,375.423,379.846,385.286,391.084,397.171,403.179,407.602,410.85,413.749,419.189,424.9658,427.467,433.096,438.078,440.977,446.984,451.7648,454.247,459.686,462.9728,465.485,470.466,472.957,477.937,480.419,489.843,494.0262,496.548,500.971" svgx:width="0.55,0.56,0.55,0.6,0.58,0.5,0.42,0.48,0.55,0.29,0.58,0.56,0.48,0.4,0.42,0.29,0.55,0.58,0.55,0.33,0.48,0.44,0.58,0.58,0.29,0.56,0.6,0.48,0.55,0.33,0.55,0.4,0.55,0.52,0.55,0.61,0.29,0.6,0.88,0.29,0.55,0.58,0.55,0.44,0.55,0.58,0.61,0.6,0.44,0.33,0.29,0.55,0.58,0.55,0.83,0.29,0.33,0.58,0.55,0.29,0.55,0.58,0.29,0.44,0.55,0.44,0.55,0.58,0.61,0.6,0.44,0.33,0.29,0.55,0.58,0.55,0.56,0.5,0.29,0.6,0.48,0.55,0.55,0.33,0.55,0.5,0.25,0.5,0.55,0.95,0.42,0.55,0.44,0.88" style="fill:rgb(0,0,0);font-family:URWPalladioL-Roma;font-size:9.96px;stroke:none;">by phase inversion technique for Sodiumion conduction with ionic conduction value of 0.3 Ms cm</text>
   <text y="472.495" x="509.769" svgx:width="0.67" style="fill:rgb(0,0,0);font-family:Pxsy;font-size:7.57px;stroke:none;">−</text>
   <text y="472.495" x="514.835" svgx:width="0.5" style="fill:rgb(0,0,0);font-family:URWPalladioL-Roma;font-size:7.57px;stroke:none;">1</text>
   <text y="489.621" x="76.535,81.531,84.8178,87.277,91.044,96.5,101.956,113.267,116.525,121.311,130.135,136.14,140.927,144.874,149.87,153.127,159.153,162.92,167.706,170.196,173.682,177.009,182.006,187.821,192.818,198.373,201.281,205.228,210.225,219.048,224.044,229.82080000000002,232.348,237.134,240.42079999999999,242.88,247.876,250.784,253.274,255.77" svgx:width="0.5,0.33,0.55,0.4,0.55,0.55,0.88,0.33,0.48,0.88,0.6,0.48,0.4,0.5,0.33,0.6,0.4,0.48,0.25,0.55,0.33,0.5,0.58,0.5,0.56,0.29,0.4,0.5,0.88,0.5,0.58,0.55,0.48,0.33,0.55,0.5,0.29,0.25,0.55,0.33" style="fill:rgb(0,0,0);font-family:URWPalladioL-Roma;font-size:9.96px;stroke:none;">at roomtemperature. Janakiraman et al. [</text>
   <text y="489.621" x="259.095,264.076" svgx:width="0.5,0.5" style="fill:rgb(8,117,183);font-family:URWPalladioL-Roma;font-size:9.96px;stroke:none;">23</text>
   <text y="489.621" x="269.058,272.3448,274.874,280.879,284.646,289.433,295.438,300.434,304.202,308.988,315.0636,317.582,322.562,325.056,331.061,336.517,340.284,345.74,351.766,355.9492,358.491,364.526,371.741,377.846,383.402,386.73,395.043,400.599,406.635,409.962,415.488,420.484,424.721,429.507,435.5826,438.101,442.338,447.124,453.13,458.126,462.073,467.069,470.327,475.783,479.55,482.877,487.314,493.339,502.163,505.49,511.046,515.832" svgx:width="0.33,0.55,0.6,0.4,0.48,0.6,0.5,0.4,0.48,0.61,0.55,0.5,0.55,0.6,0.55,0.4,0.55,0.6,0.42,0.55,0.6,0.72,0.61,0.56,0.33,0.83,0.56,0.6,0.33,0.55,0.5,0.42,0.48,0.61,0.55,0.42,0.48,0.6,0.5,0.4,0.5,0.33,0.55,0.4,0.33,0.44,0.6,0.88,0.33,0.56,0.48,0.29" style="fill:rgb(0,0,0);font-family:URWPalladioL-Roma;font-size:9.96px;stroke:none;">] prepared a porous PVdF-HFP-based separator-cum-gel</text>
   <text y="503.13" x="76.236,82.224,87.663,90.562,96.101,104.898,109.67,113.654,116.096,120.868,123.768,128.54,132.963,136.211,139.967,145.406,148.305,153.845,157.092,161.8728,164.355,167.673,173.112,177.096,179.538,183.762,189.202,195.289,198.188,204.196,212.993,216.31,219.209,224.649,230.4258,232.938,238.447,243.428,246.676,249.924,254.696,258.631,264.2086,266.661,274.97,280.768,286.208,290.432,295.2128,297.695,300.594,306.033,311.832,314.731,319.1134,321.645,326.068,331.508,337.306,343.393,349.401,353.824,357.072,359.971,365.41,371.1868,373.699,379.328,384.309,387.209,393.216,397.9968,400.479,408.788,413.769,417.9522,420.484,425.465,427.956,432.937,437.91700000000003,440.409,449.206,454.3852,456.927,461.35" svgx:width="0.6,0.55,0.29,0.56,0.88,0.48,0.4,0.55,0.48,0.29,0.48,0.44,0.33,0.4,0.55,0.29,0.56,0.33,0.48,0.55,0.33,0.55,0.4,0.55,0.42,0.55,0.61,0.29,0.6,0.88,0.33,0.29,0.55,0.58,0.55,0.55,0.5,0.33,0.33,0.48,0.4,0.56,0.55,0.83,0.58,0.55,0.42,0.48,0.55,0.29,0.55,0.58,0.29,0.44,0.55,0.44,0.55,0.58,0.61,0.6,0.44,0.33,0.29,0.55,0.58,0.55,0.56,0.5,0.29,0.6,0.48,0.55,0.83,0.5,0.42,0.55,0.5,0.25,0.5,0.5,0.55,0.88,0.52,0.55,0.44,0.88" style="fill:rgb(0,0,0);font-family:URWPalladioL-Roma;font-size:9.96px;stroke:none;">polymer electrolyte for sodium-ion battery whose ionic conduction value was 1.13 mS cm</text>
   <text y="499.514" x="470.145" svgx:width="0.67" style="fill:rgb(0,0,0);font-family:Pxsy;font-size:7.57px;stroke:none;">−</text>
   <text y="499.514" x="475.21" svgx:width="0.5" style="fill:rgb(0,0,0);font-family:URWPalladioL-Roma;font-size:7.57px;stroke:none;">1</text>
   <text y="503.13" x="479.494" svgx:width="0.25" style="fill:rgb(0,0,0);font-family:URWPalladioL-Roma;font-size:9.96px;stroke:none;">.</text>
   <text y="516.64" x="97.795,106.25,111.117,114.948,119.816,122.773,128.687,131.17700000000002,134.388,139.469,145.2458,148.401,153.482,156.795,160.107,164.975,173.948,180.055,183.3418,186.386,192.3,197.381,201.5642,204.708,210.327,215.195,220.062,225.83880000000002,229.005,237.978,243.059,249.268,254.0488,257.153,260.466,265.944,269.032,273.341,278.991,284.905,288.218,294.132,299.0,303.308,306.265,311.346,316.1268,319.232,325.146,328.103,333.753,339.52979999999997,342.685,345.643,351.191,357.105,360.062,364.44440000000003,367.602,372.114,377.663,383.577,389.786,395.913,400.425,403.738,406.695,412.609,418.1866,421.277,425.789,431.337,440.31,446.418,451.966,456.275,459.232,462.544,467.3248,470.43,479.403,484.27,493.243,498.863,502.877,507.958,513.872" svgx:width="0.83,0.48,0.4,0.48,0.29,0.58,0.25,0.55,0.5,0.58,0.55,0.5,0.33,0.33,0.48,0.88,0.6,0.33,0.55,0.58,0.5,0.42,0.55,0.55,0.48,0.48,0.58,0.55,0.88,0.5,0.61,0.48,0.55,0.33,0.55,0.55,0.42,0.56,0.58,0.33,0.58,0.48,0.42,0.29,0.5,0.48,0.55,0.58,0.29,0.56,0.58,0.55,0.29,0.55,0.58,0.29,0.44,0.55,0.44,0.55,0.58,0.61,0.6,0.44,0.33,0.29,0.58,0.56,0.55,0.44,0.55,0.88,0.6,0.55,0.42,0.29,0.33,0.48,0.55,0.88,0.48,0.88,0.55,0.4,0.5,0.58,0.48" style="fill:rgb(0,0,0);font-family:URWPalladioL-Roma;font-size:9.96px;stroke:none;">Herein, an attempt has been made to synthesize high ionic conducting composite membrane</text>
   <text y="530.149" x="76.535,82.663,86.971,89.928,95.843,101.42060000000001,106.136,111.685,115.516,121.166,126.247,132.161,135.118" svgx:width="0.6,0.42,0.29,0.58,0.56,0.55,0.55,0.4,0.56,0.5,0.58,0.29,0.44" style="fill:rgb(0,0,0);font-family:URWPalladioL-Roma;font-size:9.96px;stroke:none;">using organic</text>
   <text y="530.149" x="139.63" svgx:width="0.29" style="fill:rgb(0,0,0);font-family:Rpxr;font-size:9.96px;stroke:none;">/</text>
   <text y="530.149" x="142.546,145.503,151.417,156.966,160.797,166.447,171.528,177.442,180.399,184.7814,189.555,194.067,199.615,208.588,214.695,220.244,226.158,231.025,236.939,240.252,244.561,247.05100000000002,257.04,263.177,270.514,276.723,282.373,285.757,291.092,294.049" svgx:width="0.29,0.58,0.55,0.4,0.56,0.5,0.58,0.29,0.44,0.55,0.44,0.55,0.88,0.6,0.55,0.58,0.48,0.58,0.33,0.42,0.25,0.55,0.6,0.72,0.61,0.56,0.33,0.52,0.29,0.79" style="fill:rgb(0,0,0);font-family:URWPalladioL-Roma;font-size:9.96px;stroke:none;">inorganic components. PVdF-SiO</text>
   <text y="532.014" x="302.033" svgx:width="0.5" style="fill:rgb(0,0,0);font-family:URWPalladioL-Roma;font-size:7.57px;stroke:none;">2</text>
   <text y="530.149" x="310.957,319.93,324.797,333.77,339.39,343.404,348.485,354.399,359.1798,363.91,369.825,374.906,379.0892,383.848,389.467,394.335,399.203,404.97979999999995,409.761,415.868,419.699,424.566,430.674,435.755,439.596,444.463,450.53860000000003,455.306,461.047,464.005,468.985,473.729,477.042,482.956,487.7368,492.458,498.565,504.479,509.56,513.869" svgx:width="0.88,0.48,0.88,0.55,0.4,0.5,0.58,0.48,0.55,0.58,0.5,0.42,0.55,0.55,0.48,0.48,0.58,0.55,0.6,0.4,0.48,0.6,0.5,0.4,0.48,0.61,0.55,0.56,0.29,0.5,0.55,0.33,0.58,0.48,0.55,0.6,0.58,0.5,0.42,0.48" style="fill:rgb(0,0,0);font-family:URWPalladioL-Roma;font-size:9.96px;stroke:none;">membrane has been prepared via the phase</text>
   <text y="543.658" x="76.535,79.492,85.406,91.148,96.015,100.029,104.338,107.295,112.843,118.6198,121.867,130.84,135.707,139.02,144.934,150.483,156.5586,159.801,168.276,171.233,174.546,180.3228,183.57,189.311,194.392,198.406,201.363,206.912,213.039,217.2222,220.457,224.471,229.552,232.865,235.822,241.37,245.679,248.169,253.565,259.794,265.708,270.4888,273.685,282.658,287.739,290.117,295.665,299.649,302.789,308.337,313.956,316.334,321.202,325.714,329.027,331.984,337.725,342.5058,345.702,351.25,354.5368,357.744,361.057,366.971,369.928,374.1112,377.346,385.821,391.369,395.383,400.9606,404.143,407.1,411.2832,414.518,417.831,423.309,426.479,430.787,436.437,440.746,444.059,448.926,457.899,462.98,466.293,469.25,473.762,478.843,481.8,484.757,490.3346,493.516,497.825,501.138,507.265,513.474" svgx:width="0.29,0.58,0.56,0.48,0.4,0.42,0.29,0.55,0.58,0.55,0.88,0.48,0.33,0.58,0.55,0.61,0.55,0.83,0.29,0.33,0.58,0.55,0.56,0.5,0.4,0.29,0.55,0.6,0.42,0.55,0.4,0.5,0.33,0.29,0.55,0.42,0.25,0.55,0.61,0.58,0.48,0.55,0.88,0.5,0.23,0.55,0.4,0.55,0.55,0.55,0.23,0.48,0.44,0.33,0.29,0.56,0.48,0.55,0.55,0.33,0.55,0.33,0.58,0.29,0.42,0.55,0.83,0.55,0.4,0.56,0.55,0.29,0.42,0.55,0.33,0.55,0.55,0.42,0.56,0.42,0.33,0.48,0.88,0.5,0.33,0.29,0.44,0.5,0.29,0.29,0.56,0.55,0.42,0.33,0.6,0.61,0.56" style="fill:rgb(0,0,0);font-family:URWPalladioL-Roma;font-size:9.96px;stroke:none;">inversion method with various ratios. The major objective of this work is to systematically study</text>
   <text y="557.168" x="76.535,79.806,85.644,90.4248,92.928,98.957,103.763,107.726,111.066,116.544,120.507,129.365,134.381,140.22,144.675,149.4558,151.958,157.436,160.7228,163.255,169.314,176.557,182.687,188.265,191.606,196.873,199.792" svgx:width="0.33,0.58,0.48,0.55,0.6,0.48,0.4,0.33,0.55,0.4,0.88,0.5,0.58,0.44,0.48,0.55,0.55,0.33,0.55,0.6,0.72,0.61,0.56,0.33,0.52,0.29,0.79" style="fill:rgb(0,0,0);font-family:URWPalladioL-Roma;font-size:9.96px;stroke:none;">the performance of PVdF-SiO</text>
   <text y="559.033" x="207.682" svgx:width="0.5" style="fill:rgb(0,0,0);font-family:URWPalladioL-Roma;font-size:7.57px;stroke:none;">2</text>
   <text y="557.168" x="214.446,223.305,228.11,236.969,242.516,246.479,251.495,257.334,262.14,266.3232,268.871,277.238,280.158,283.428,289.2048,291.745,300.082,305.098,308.439,311.358,316.836,322.6128,325.153,330.731,333.65,339.489,344.294,347.565,350.484,354.939,359.193,361.683,365.192,371.342,377.18,381.9608,384.464,387.383,392.861,398.7,401.619,406.00140000000005,408.552,413.006,418.484,424.322,430.452,436.502,440.956,444.227,447.146,452.814,455.734,459.004,464.58160000000004,467.06,472.538,475.82480000000004,478.357,484.386,488.168,492.974,499.003,504.019,507.801,512.607" svgx:width="0.88,0.48,0.88,0.55,0.4,0.5,0.58,0.48,0.42,0.55,0.83,0.29,0.33,0.58,0.55,0.83,0.5,0.33,0.29,0.55,0.58,0.55,0.56,0.29,0.58,0.48,0.33,0.29,0.44,0.42,0.25,0.55,0.61,0.58,0.48,0.55,0.29,0.55,0.58,0.29,0.44,0.55,0.44,0.55,0.58,0.61,0.6,0.44,0.33,0.29,0.56,0.29,0.33,0.56,0.55,0.55,0.33,0.55,0.6,0.4,0.48,0.6,0.5,0.4,0.48,0.61" style="fill:rgb(0,0,0);font-family:URWPalladioL-Roma;font-size:9.96px;stroke:none;">membranes with Na-ion kinetics. The ionic conductivity of prepared</text>
   <text y="570.677" x="76.535,85.508,90.375,99.348,104.968,108.982,114.063,119.977,124.844,129.0272,132.395,138.309,143.39,147.57319999999999,150.95,156.57,161.437,166.305,172.08180000000002,175.461,181.009,187.116,190.429,193.386,202.359,205.316,210.397,215.265,221.473,223.96300000000002,227.449,232.53,238.444,244.5196,247.894,251.207,257.121,261.989,267.76579999999996,271.155,274.468,280.382,285.1628,288.491,294.039,300.147,303.459,306.416,315.389,318.346,323.427,328.295,334.3706,337.745,346.718,351.586,360.559,366.178,370.192,375.273,381.187,385.9678,389.307,395.221,400.302,404.4852,407.852,413.472,418.339,423.207,428.9838,432.362,436.874,442.423,451.396,457.503,462.584,466.425,471.292,477.3676,480.743,489.218,492.175,495.488,501.2648,504.644,507.956,513.871" svgx:width="0.88,0.48,0.88,0.55,0.4,0.5,0.58,0.48,0.42,0.55,0.58,0.5,0.42,0.55,0.55,0.48,0.48,0.58,0.55,0.55,0.6,0.33,0.29,0.88,0.29,0.5,0.48,0.61,0.25,0.55,0.5,0.58,0.61,0.55,0.33,0.58,0.48,0.58,0.55,0.33,0.58,0.48,0.55,0.55,0.6,0.33,0.29,0.88,0.29,0.5,0.48,0.61,0.55,0.88,0.48,0.88,0.55,0.4,0.5,0.58,0.48,0.55,0.58,0.5,0.42,0.55,0.55,0.48,0.48,0.58,0.55,0.44,0.55,0.88,0.6,0.5,0.4,0.48,0.61,0.55,0.83,0.29,0.33,0.58,0.55,0.33,0.58,0.48" style="fill:rgb(0,0,0);font-family:URWPalladioL-Roma;font-size:9.96px;stroke:none;">membranes has been optimized, and then the optimized membrane has been compared with the</text>
   <text y="584.187" x="76.535,80.901,86.27,94.952,103.635,108.345,112.052,116.418,119.279,124.196,127.057,129.919,135.4966,137.884,142.8,148.356,153.272,156.134,158.995,163.912,169.35,172.211,176.9918,179.428,183.598,188.308,194.217,199.134,203.018,207.935,211.14,216.509,220.493,222.891,231.573,236.283,244.966,250.404,254.288,259.204,264.927,269.637,273.806,276.296,278.772,283.689,289.412,295.4876,297.917,302.834,305.695,308.5834,311.064,316.433,319.638,325.361,330.071,334.055,336.453,340.622,343.828,349.757,355.765,358.627,363.337,367.5202,370.013,378.214,382.924,386.621,391.4018,393.839,398.205,403.121,407.005,410.89,413.751,418.461,424.5366,426.967,432.335,438.265,441.5518,443.978,448.147,454.076,458.442,462.808,467.518,471.687,475.857,479.131,485.06,487.922,490.783,496.36060000000003,498.748,506.949,509.81,513.016" svgx:width="0.44,0.55,0.88,0.88,0.48,0.4,0.44,0.29,0.5,0.29,0.29,0.56,0.55,0.5,0.56,0.5,0.29,0.29,0.5,0.55,0.29,0.48,0.55,0.42,0.48,0.6,0.5,0.4,0.5,0.33,0.55,0.4,0.55,0.88,0.48,0.88,0.55,0.4,0.5,0.58,0.48,0.42,0.25,0.55,0.5,0.58,0.61,0.55,0.5,0.29,0.29,0.55,0.55,0.33,0.58,0.48,0.4,0.55,0.42,0.33,0.6,0.61,0.29,0.48,0.42,0.55,0.83,0.48,0.4,0.48,0.55,0.44,0.5,0.4,0.4,0.29,0.48,0.61,0.55,0.55,0.6,0.33,0.55,0.42,0.6,0.44,0.44,0.48,0.42,0.42,0.33,0.6,0.29,0.29,0.56,0.55,0.83,0.29,0.33,0.58" style="fill:rgb(0,0,0);font-family:URWPalladioL-Roma;font-size:9.96px;stroke:none;">commercially available separator membranes, and all other studies were carried out successfully with</text>
   <text y="597.696" x="76.535,81.516,87.504,93.491,97.247,102.687,108.674,112.61,115.509,120.49,123.738,128.5188,131.001,133.9,139.698,142.946,147.718,151.653,157.641,161.396,166.169,169.416,174.398,177.645,180.545,185.984,191.782" svgx:width="0.5,0.6,0.6,0.4,0.55,0.6,0.4,0.29,0.5,0.33,0.48,0.55,0.29,0.58,0.33,0.48,0.4,0.6,0.4,0.48,0.33,0.5,0.33,0.29,0.55,0.58,0.25" style="fill:rgb(0,0,0);font-family:URWPalladioL-Roma;font-size:9.96px;stroke:none;">appropriate interpretation.</text>
   <text y="620.909" x="76.535,81.516,84.006,87.494,93.581,98.562,104.649,109.631,113.506,116.824,125.681,130.662,136.749,140.066,145.048" svgx:width="0.5,0.25,0.55,0.61,0.5,0.61,0.5,0.39,0.33,0.89,0.5,0.61,0.33,0.5,0.33" style="fill:rgb(0,0,0);font-family:URWPalladioL-Bold;font-size:9.96px;stroke:none;">2. Experimental</text>
   <text y="644.122" x="76.535,81.516,84.007,88.988,91.478,94.966,104.37,108.794,112.111,115.987,119.862,122.632,127.055,129.825" svgx:width="0.5,0.25,0.5,0.25,0.55,0.94,0.44,0.33,0.39,0.39,0.28,0.44,0.28,0.39" style="fill:rgb(0,0,0);font-family:URWPalladioL-Ital;font-size:9.96px;stroke:none;">2.1. Materials</text>
   <text y="663.609" x="97.795,103.776,109.183,112.065,117.571,120.869,126.464,129.345,135.109,140.615,143.497,146.378,152.429,157.172,162.936,167.7168,170.165,176.186,182.157,187.564,191.476,194.357,200.408,205.1888,207.627,210.925,216.906,224.056,230.107,235.613,238.8998,241.396,244.694,251.715,256.666,264.905,269.857,275.363,280.314,283.612,288.721,292.019,295.30580000000003,297.802,301.1,306.299,309.181,314.687,323.431,328.382,333.334,341.038,343.92,349.97,353.882,356.764,361.161,366.924,369.414,371.885,377.084,382.036,384.918,390.681,393.9678,396.385,402.436,407.843,413.814,416.696,420.895,423.385,425.856,433.56,438.759,446.464,449.761,452.25100000000003,454.723,458.921,461.803,464.685,467.566,471.963,477.37,483.1468,485.619,491.67,494.552,499.959,505.068,507.95,514.001" svgx:width="0.6,0.55,0.29,0.56,0.33,0.56,0.29,0.58,0.56,0.29,0.29,0.61,0.48,0.58,0.48,0.55,0.61,0.6,0.55,0.4,0.29,0.61,0.48,0.55,0.33,0.6,0.72,0.61,0.56,0.33,0.55,0.33,0.71,0.5,0.83,0.5,0.56,0.5,0.33,0.52,0.33,0.33,0.55,0.33,0.52,0.29,0.56,0.88,0.5,0.5,0.78,0.29,0.61,0.4,0.29,0.44,0.58,0.25,0.55,0.52,0.5,0.29,0.58,0.33,0.55,0.61,0.55,0.6,0.29,0.42,0.25,0.55,0.78,0.52,0.78,0.33,0.25,0.55,0.42,0.29,0.29,0.29,0.44,0.55,0.58,0.55,0.61,0.29,0.55,0.52,0.29,0.61,0.48" style="fill:rgb(0,0,0);font-family:URWPalladioL-Roma;font-size:9.96px;stroke:none;">Poly(vinylidene ﬂuoride (PVdF) (C2H2F2)x-) (Sigma–Aldrich, Saint Louis, USA), silicon dioxide</text>
   <text y="677.118" x="76.535,82.449,87.53,93.444,98.993,102.377,108.484,114.032,122.507,128.716,133.584,137.598,140.981,146.316,149.274" svgx:width="0.58,0.5,0.58,0.55,0.33,0.6,0.55,0.83,0.61,0.48,0.4,0.33,0.52,0.29,0.79" style="fill:rgb(0,0,0);font-family:URWPalladioL-Roma;font-size:9.96px;stroke:none;">nano-powder(SiO</text>
   <text y="678.983" x="157.261" svgx:width="0.5" style="fill:rgb(0,0,0);font-family:URWPalladioL-Roma;font-size:7.57px;stroke:none;">2</text>
   <text y="677.118" x="161.545,164.929,169.238,175.345,181.259,186.127,190.14,193.098,197.609,202.69,205.5784,210.23,216.338,221.886,225.727,231.276,237.403,241.712,244.9988,249.679,254.76,258.144,263.224,268.204,272.888,278.803,287.5678,292.369,298.476,303.557,307.571,310.884,313.841,318.353,321.31,326.0908,330.76,335.069,338.026,343.107,347.8878,352.557,355.941,361.276,364.233,369.883,378.856,383.937,389.018,396.924,399.881,406.09,410.104,413.061,417.573,423.487,425.97700000000003,431.139,436.22,441.301,443.841,448.922,457.458,459.94800000000004,465.11,470.445,475.526,478.483,484.397,487.6838,492.293,498.502,504.05,510.178,513.135,517.444" svgx:width="0.33,0.42,0.6,0.58,0.48,0.4,0.29,0.44,0.5,0.29,0.55,0.6,0.55,0.4,0.55,0.6,0.42,0.33,0.55,0.5,0.33,0.5,0.5,0.55,0.58,0.88,0.55,0.6,0.5,0.4,0.33,0.29,0.44,0.29,0.48,0.55,0.42,0.29,0.5,0.48,0.55,0.33,0.52,0.29,0.56,0.88,0.5,0.5,0.78,0.29,0.61,0.4,0.29,0.44,0.58,0.25,0.55,0.5,0.5,0.25,0.5,0.84,0.25,0.55,0.52,0.5,0.29,0.58,0.33,0.55,0.61,0.55,0.6,0.29,0.42,0.25" style="fill:rgb(0,0,0);font-family:URWPalladioL-Roma;font-size:9.96px;stroke:none;">-spherical porous) 5-15 nm particle size (Sigma–Aldrich, 99.5%, Saint Louis,</text>
   <text y="690.628" x="76.535,84.441,89.776,97.682,101.066" svgx:width="0.78,0.52,0.78,0.33,0.25" style="fill:rgb(0,0,0);font-family:URWPalladioL-Roma;font-size:9.96px;stroke:none;">USA),</text>
   <text y="690.628" x="106.259" svgx:width="0.78" style="fill:rgb(0,0,0);font-family:URWPalladioL-Ital;font-size:9.96px;stroke:none;">N</text>
   <text y="690.628" x="114.424,117.808,126.781,131.648,134.961,140.875,146.525,149.482,152.866,157.947,161.331,167.438,173.088,176.919,182.468,185.425,188.382,191.339,197.548,203.096,209.011,213.878,217.262,225.706,235.32,241.457,244.841" svgx:width="0.33,0.88,0.48,0.33,0.58,0.56,0.29,0.33,0.5,0.33,0.6,0.56,0.4,0.55,0.29,0.29,0.29,0.61,0.55,0.58,0.48,0.33,0.83,0.95,0.6,0.33,0.71" style="fill:rgb(0,0,0);font-family:URWPalladioL-Roma;font-size:9.96px;stroke:none;">-methyl-2-pyrollidone(NMP(C</text>
   <text y="692.493" x="252.048" svgx:width="0.5" style="fill:rgb(0,0,0);font-family:URWPalladioL-Roma;font-size:7.57px;stroke:none;">5</text>
   <text y="690.628" x="256.332" svgx:width="0.83" style="fill:rgb(0,0,0);font-family:URWPalladioL-Roma;font-size:9.96px;stroke:none;">H</text>
   <text y="692.493" x="264.787" svgx:width="0.5" style="fill:rgb(0,0,0);font-family:URWPalladioL-Roma;font-size:7.57px;stroke:none;">9</text>
   <text y="690.628" x="269.071,277.516,285.503,288.7898,291.539,294.923,300.258,303.215,308.865,317.838,322.919,328.0,335.906,338.863,345.072,349.085,352.043,356.554,362.469,364.959,367.702,372.783,377.864,380.404,385.485,394.021,396.511,399.255,404.59,409.67,412.628,418.542,421.8288,424.507,430.716,436.264,442.392,445.349,449.657,452.147,454.891,462.797,468.132,476.037,479.421,481.911,484.614,488.923,494.471,500.68,503.637,509.765" svgx:width="0.83,0.79,0.33,0.55,0.33,0.52,0.29,0.56,0.88,0.5,0.5,0.78,0.29,0.61,0.4,0.29,0.44,0.58,0.25,0.55,0.5,0.5,0.25,0.5,0.84,0.25,0.55,0.52,0.5,0.29,0.58,0.33,0.55,0.61,0.55,0.6,0.29,0.42,0.25,0.55,0.78,0.52,0.78,0.33,0.25,0.55,0.42,0.55,0.61,0.29,0.6,0.88" style="fill:rgb(0,0,0);font-family:URWPalladioL-Roma;font-size:9.96px;stroke:none;">NO) (Sigma–Aldrich, 99.5%, Saint Louis, USA), sodium</text>
   <text y="704.137" x="76.535,82.449,87.317,92.56,97.641,103.82,109.947,115.496,119.327,124.875,130.982,136.896,142.445,146.753,152.861,158.775,163.856,167.169,171.9498,174.658,178.042,186.486,191.567,197.705" svgx:width="0.58,0.48,0.52,0.5,0.61,0.6,0.55,0.4,0.55,0.6,0.58,0.55,0.42,0.6,0.58,0.5,0.33,0.48,0.55,0.33,0.83,0.5,0.6,0.56" style="fill:rgb(0,0,0);font-family:URWPalladioL-Roma;font-size:9.96px;stroke:none;">hexaﬂuorophosphate (NaPF</text>
   <text y="706.002" x="203.352" svgx:width="0.5" style="fill:rgb(0,0,0);font-family:URWPalladioL-Roma;font-size:7.57px;stroke:none;">6</text>
   <text y="704.137" x="207.636,210.9228,213.632,217.015,222.35,225.307,230.957,239.93,245.011,250.092,257.998,260.955,267.164,271.178,274.135,278.647,284.561,287.051,289.754,294.835,299.916,302.456,307.537,316.073,318.563,321.256,326.591,331.672,334.629,340.543,343.82980000000003,346.477,352.686,358.235,364.362,367.319,371.628,374.118,376.811,384.716,390.051,397.957,401.341,403.831,406.504,411.584,417.499,423.57460000000003,426.319,432.426,436.268,441.816,447.923,453.573,456.53,461.398,467.302,472.0828,474.791,479.303,484.384,488.398,494.017,499.566,505.48,510.561,513.874" svgx:width="0.33,0.55,0.33,0.52,0.29,0.56,0.88,0.5,0.5,0.78,0.29,0.61,0.4,0.29,0.44,0.58,0.25,0.55,0.5,0.5,0.25,0.5,0.84,0.25,0.55,0.52,0.5,0.29,0.58,0.33,0.55,0.61,0.55,0.6,0.29,0.42,0.25,0.55,0.78,0.52,0.78,0.33,0.25,0.55,0.5,0.58,0.61,0.55,0.6,0.4,0.55,0.6,0.56,0.29,0.48,0.58,0.48,0.55,0.44,0.5,0.4,0.55,0.55,0.58,0.5,0.33,0.48" style="fill:rgb(0,0,0);font-family:URWPalladioL-Roma;font-size:9.96px;stroke:none;">) (Sigma–Aldrich, 98.0%, Saint Louis, USA), and propylene carbonate</text>
   <text y="717.647" x="76.207,79.525,85.542,92.605,95.8918,98.414,101.731,106.962,109.861,115.4,124.197,129.178,134.159,141.91,144.809,150.897,154.832,157.731,162.154,167.953,170.443,175.424,180.406,182.896,187.878,196.246,198.73600000000002,201.228,206.458,211.439,214.338,220.137,223.4238,225.875,231.962,237.402,243.409,246.308,250.532,253.02200000000002,255.514,263.265,268.495,276.246,279.5328,282.054,290.363,295.135,298.891,303.6718,306.154,312.161,316.385,321.157,327.2326,329.735,338.044,340.943,344.191,349.989,355.429,361.436,364.7228,367.175,370.492,376.5,380.435,383.683,389.481,394.253,398.23699999999997,400.679,406.666,412.674,416.609,419.508,425.536,429.959,434.94,438.188,441.087,446.527,452.325" svgx:width="0.33,0.6,0.71,0.33,0.55,0.33,0.52,0.29,0.56,0.88,0.5,0.5,0.78,0.29,0.61,0.4,0.29,0.44,0.58,0.25,0.5,0.5,0.25,0.5,0.84,0.25,0.55,0.52,0.5,0.29,0.58,0.33,0.55,0.61,0.55,0.6,0.29,0.42,0.25,0.55,0.78,0.52,0.78,0.33,0.55,0.83,0.48,0.4,0.48,0.55,0.6,0.42,0.48,0.61,0.55,0.83,0.29,0.33,0.58,0.55,0.6,0.33,0.55,0.33,0.6,0.4,0.33,0.58,0.48,0.4,0.55,0.6,0.6,0.4,0.29,0.61,0.44,0.5,0.33,0.29,0.55,0.58,0.25" style="fill:rgb(0,0,0);font-family:URWPalladioL-Roma;font-size:9.96px;stroke:none;">(PC) (Sigma–Aldrich,99.7%, Saint Louis, USA) were used without further puriﬁcation.</text>
  </g>
 </g>
</svg>
