<?xml version="1.0" encoding="UTF-8"?>
<svg height="757.016" width="4126.225" xmlns="http://www.w3.org/2000/svg">
 <g id="page" xmlns:svgx="http://www.xml-cml.org/schema/svgx">
  <path style="fill:rgb(23,22,21);stroke:none;stroke-width:1.0;" d="M59.700 19.640 L58.910 20.870 L58.910 24.970 L59.700 23.760 L59.700 26.740 L58.910 26.740 L58.910 28.910 L59.730 28.910 L59.730 30.490 L62.470 30.500 L62.470 19.640 ZM52.310 30.500 L55.570 30.500 L56.570 28.910 L58.910 28.910 L58.910 26.740 L57.830 26.730 L58.910 24.970 L58.910 20.870 Z"/>
  <path style="fill:rgb(23,22,21);stroke:none;stroke-width:1.0;" d="M63.820 19.670 L63.820 30.460 L68.290 30.450 C68.370 30.450 68.440 30.450 68.510 30.450 L68.510 27.990 C68.310 28.030 68.180 28.050 67.940 28.050 L66.590 28.050 L66.590 22.070 L67.980 22.060 C68.200 22.060 68.310 22.090 68.510 22.150 L68.510 19.740 C68.450 19.740 68.390 19.730 68.330 19.730 ZM68.510 30.450 C71.780 30.300 73.250 27.530 73.180 25.000 C73.090 22.070 71.410 19.890 68.510 19.740 L68.510 22.150 C69.720 22.470 70.460 23.790 70.420 25.070 C70.400 25.790 70.450 27.650 68.510 27.990 Z"/>
  <path style="fill:rgb(23,22,21);stroke:none;stroke-width:1.0;" d="M122.350 19.630 L122.350 30.470 L126.740 30.460 C126.820 30.460 126.890 30.460 126.970 30.460 L126.970 27.990 C126.760 28.030 126.540 28.050 126.300 28.050 L125.130 28.050 L125.130 22.090 L126.340 22.080 C126.560 22.080 126.770 22.060 126.970 22.120 L126.970 19.700 C126.900 19.690 126.840 19.690 126.780 19.690 ZM126.970 30.460 C130.230 30.310 131.820 27.490 131.750 24.960 C131.660 22.030 129.860 19.850 126.970 19.700 L126.970 22.120 C128.170 22.440 128.980 23.270 128.980 25.030 C128.980 25.750 128.900 27.650 126.970 27.990 Z"/>
  <path style="fill:rgb(23,22,21);stroke:none;stroke-width:1.0;" d="M75.720 19.630 L77.930 27.310 L80.180 19.630 L82.970 19.630 L79.370 30.510 L76.490 30.510 L72.860 19.650 Z"/>
  <path style="fill:rgb(23,22,21);stroke:none;stroke-width:1.0;" d="M85.430 26.730 L86.420 26.730 L86.420 28.920 L84.640 28.920 L84.100 30.490 L81.090 30.490 L85.440 19.620 L86.520 19.620 L86.540 23.090 ZM86.420 26.730 L87.710 26.730 L86.580 22.980 L86.540 23.090 L86.520 19.620 L87.610 19.620 L91.930 30.490 L89.010 30.490 L88.410 28.930 L86.420 28.920 Z"/>
  <path style="fill:rgb(23,22,21);stroke:none;stroke-width:1.0;" d="M92.590 19.650 L94.960 19.650 L99.040 26.180 L99.040 19.650 L101.700 19.650 L101.700 30.490 L99.300 30.480 L95.230 24.090 L95.230 30.550 L92.590 30.550 Z"/>
  <path style="fill:rgb(23,22,21);stroke:none;stroke-width:1.0;" d="M114.910 19.640 L120.900 19.640 L120.900 22.080 L117.600 22.070 L117.600 23.760 L120.850 23.760 L120.850 26.220 L117.690 26.210 L117.690 28.040 L120.980 28.040 L120.980 30.500 L114.910 30.500 Z"/>
  <path style="fill:rgb(23,22,21);stroke:none;stroke-width:1.0;" d="M111.060 26.430 C110.600 27.520 109.600 28.280 108.450 28.280 C106.850 28.280 105.560 26.840 105.560 25.080 C105.560 23.310 106.850 21.880 108.450 21.880 C109.620 21.880 110.620 22.660 111.080 23.770 L113.970 23.770 C113.380 21.280 111.130 19.430 108.450 19.430 C105.310 19.430 102.770 21.950 102.770 25.060 C102.770 28.170 105.310 30.700 108.450 30.700 C111.110 30.700 113.340 28.880 113.950 26.430 Z"/>
  <path style="fill:rgb(23,22,21);stroke:none;stroke-width:1.0;" d="M53.410 33.920 L54.980 33.680 C54.980 33.680 55.020 31.660 51.940 31.660 C48.850 31.660 48.660 33.190 48.660 33.970 C48.660 34.740 49.020 35.860 51.430 36.250 C52.350 36.400 53.590 36.670 53.590 37.520 C53.590 38.370 52.770 38.530 51.770 38.530 C50.770 38.530 50.220 38.260 49.860 37.430 C49.170 37.540 48.280 37.700 48.280 37.700 C48.280 37.700 48.570 39.890 51.790 39.860 C54.990 39.810 55.220 38.200 55.220 37.440 C55.220 36.690 55.020 35.650 52.970 35.160 C51.000 34.700 50.280 34.630 50.280 33.780 C50.280 32.930 51.200 32.900 51.800 32.900 C52.400 32.900 53.050 32.950 53.410 33.920 "/>
  <path style="fill:rgb(23,22,21);stroke:none;stroke-width:1.0;" d="M135.160 33.920 L136.740 33.680 C136.740 33.680 136.780 31.660 133.690 31.660 C130.610 31.660 130.420 33.190 130.420 33.970 C130.420 34.740 130.780 35.860 133.190 36.250 C134.100 36.400 135.340 36.670 135.340 37.520 C135.340 38.370 134.520 38.530 133.530 38.530 C132.530 38.530 131.970 38.260 131.620 37.430 C130.920 37.540 130.030 37.700 130.030 37.700 C130.030 37.700 130.320 39.890 133.550 39.860 C136.750 39.810 136.980 38.200 136.980 37.440 C136.980 36.690 136.780 35.650 134.720 35.160 C132.760 34.700 132.040 34.630 132.040 33.780 C132.040 32.930 132.960 32.900 133.560 32.900 C134.160 32.900 134.810 32.950 135.160 33.920 "/>
  <path style="fill:rgb(23,22,21);stroke:none;stroke-width:1.0;" d="M62.240 34.280 L63.670 33.860 C63.670 33.860 63.240 31.680 60.190 31.680 C57.130 31.680 56.200 33.600 56.200 35.700 C56.200 37.800 57.280 39.870 60.220 39.870 C63.080 39.870 63.770 37.530 63.770 37.530 L62.370 36.980 C62.370 36.980 61.840 38.540 60.210 38.540 C58.580 38.540 57.880 37.380 57.880 35.670 C57.880 33.960 58.680 32.960 60.260 32.960 C61.850 32.960 62.240 34.280 62.240 34.280 "/>
  <path style="fill:rgb(23,22,21);stroke:none;stroke-width:1.0;" d="M89.830 34.280 L91.270 33.860 C91.270 33.860 90.840 31.680 87.790 31.680 C84.730 31.680 83.800 33.600 83.800 35.700 C83.800 37.800 84.880 39.870 87.820 39.870 C90.670 39.870 91.370 37.530 91.370 37.530 L89.970 36.980 C89.970 36.980 89.440 38.540 87.810 38.540 C86.180 38.540 85.480 37.380 85.480 35.670 C85.480 33.960 86.280 32.960 87.860 32.960 C89.450 32.960 89.830 34.280 89.830 34.280 "/>
  <path style="fill:rgb(23,22,21);stroke:none;stroke-width:1.0;" d="M81.110 31.770 L81.110 37.850 L77.670 31.760 L76.100 31.770 L75.750 31.770 L75.750 39.760 L77.230 39.760 L77.230 33.770 L80.650 39.760 L81.110 39.760 L82.190 39.760 L82.590 39.760 L82.590 31.770 Z"/>
  <path style="fill:rgb(23,22,21);stroke:none;stroke-width:1.0;" d="M108.760 31.770 L108.760 37.850 L105.330 31.760 L103.760 31.770 L103.410 31.770 L103.410 39.760 L104.890 39.760 L104.890 33.770 L108.300 39.760 L108.760 39.760 L109.840 39.760 L110.240 39.760 L110.240 31.770 Z"/>
  <path style="fill:rgb(23,22,21);stroke:none;stroke-width:1.0;" d="M69.760 38.430 L69.760 36.400 L74.010 36.400 L74.010 35.110 L69.760 35.110 L69.760 33.070 L74.360 33.070 L74.360 31.780 L69.760 31.780 L69.290 31.780 L68.100 31.780 L68.100 39.760 L69.290 39.760 L69.760 39.760 L74.590 39.760 L74.590 38.430 Z"/>
  <path style="fill:rgb(23,22,21);stroke:none;stroke-width:1.0;" d="M94.250 38.430 L94.250 36.400 L98.500 36.400 L98.500 35.110 L94.250 35.110 L94.250 33.070 L98.850 33.070 L98.850 31.780 L94.250 31.780 L93.780 31.780 L92.590 31.780 L92.590 39.760 L93.780 39.760 L94.250 39.760 L99.080 39.760 L99.080 38.430 Z"/>
  <path style="fill:rgb(23,22,21);stroke:none;stroke-width:1.0;" d="M113.510 38.430 L113.510 36.400 L117.760 36.400 L117.760 35.110 L113.510 35.110 L113.510 33.070 L118.110 33.070 L118.110 31.780 L113.510 31.780 L113.040 31.780 L111.850 31.780 L111.850 39.760 L113.040 39.760 L113.510 39.760 L118.340 39.760 L118.340 38.430 Z"/>
  <path style="fill:rgb(23,22,21);stroke:none;stroke-width:1.0;" d="M118.740 31.770 L120.800 39.770 L122.790 39.780 L124.230 33.430 L125.620 39.790 L127.610 39.790 L129.670 31.770 L127.960 31.770 L126.580 38.110 L125.190 31.760 L123.300 31.760 L121.850 38.120 L120.450 31.770 Z"/>
  <path style="fill:none;stroke:rgb(23,22,21);stroke-width:1.0;" d="M463.450 38.940 L141.500 38.940 "/>
  <g begin="text">
   <text y="50.123" x="48.276,53.804,59.332,64.219,66.147,69.875,74.043,77.675,81.403,85.683,89.155,92.819,96.987,100.483,103.955,105.851,109.515,113.795,117.267,120.931,125.211,128.875,134.403,137.899,139.827,143.299,147.347" svgx:width="0.7,0.7,0.7,0.25,0.48,0.53,0.46,0.48,0.55,0.44,0.47,0.53,0.45,0.44,0.25,0.47,0.55,0.44,0.47,0.55,0.47,0.7,0.45,0.25,0.44,0.52,0.83" style="fill:rgb(23,22,21);font-family:ScalaSansLF-Bold;font-size:8.0px;stroke:none;">www.advancedsciencenews.com</text>
  </g>
  <g begin="text">
   <text y="746.936" x="183.587,188.087,192.587,197.087,201.587,206.087,210.587,215.087,217.337,219.587,222.368,226.868,229.118,233.762,236.354,238.604,243.104,247.604" svgx:width="0.5,0.5,0.5,0.5,0.5,0.5,0.5,0.25,0.55,0.31,0.5,0.25,0.52,0.29,0.25,0.5,0.5,0.31" style="fill:rgb(23,22,21);font-family:ScalaSansLF-Bold;font-size:9.0px;stroke:none;">1902643 (2 of 11)</text>
   <text y="745.886" x="295.956" svgx:width="1.01" style="fill:rgb(23,22,21);font-family:ScalaSansLF-Regular;font-size:6.0px;stroke:none;">©</text>
   <text y="746.886" x="302.01,303.935,307.435,310.935,314.435,317.935,319.86,323.633,327.385,330.668,332.593,336.758,340.545,342.708,346.46,350.191,352.55,355.679,357.436,359.361,363.253,367.04,370.729,372.402,374.131,377.26,381.012,384.295,388.068,389.993,393.682,396.517,398.442,404.49,406.59,410.055,413.828,417.678,419.61,423.691,427.926,433.323,435.248,438.909,442.192,444.551,446.224,449.556,453.105,455.03,459.986,465.915,469.604,475.001,476.926,481.833,483.758,487.816,491.547,493.304,495.229,499.226,504.182,507.514,511.679,513.443,515.368,520.995,524.278,526.007,529.822,533.574,536.857,538.586" svgx:width="0.25,0.5,0.5,0.5,0.5,0.25,0.54,0.54,0.47,0.25,0.6,0.54,0.31,0.54,0.53,0.34,0.45,0.25,0.25,0.56,0.54,0.53,0.24,0.25,0.45,0.54,0.47,0.54,0.25,0.53,0.41,0.25,0.86,0.3,0.5,0.54,0.55,0.28,0.58,0.61,0.77,0.25,0.58,0.47,0.34,0.24,0.48,0.51,0.25,0.71,0.85,0.53,0.77,0.25,0.7,0.25,0.61,0.53,0.25,0.25,0.57,0.71,0.48,0.6,0.25,0.25,0.86,0.47,0.25,0.55,0.54,0.47,0.25,0.85" style="fill:rgb(23,22,21);font-family:ScalaSansLF-Regular;font-size:7.0px;stroke:none;"> 2020 The Authors. Published by WILEY-VCH Verlag GmbH &amp; Co. KGaA, Weinheim</text>
  </g>
  <path style="fill:rgb(23,22,21);stroke:none;stroke-width:0.5;" d="M476.530 13.540 L474.400 13.540 L468.060 22.850 L470.840 22.850 L471.670 21.500 L474.400 21.500 L474.400 22.850 L476.770 22.850 L476.770 13.540 ZM474.400 17.030 L474.400 19.640 L472.810 19.640 Z"/>
  <path style="fill:rgb(23,22,21);stroke:none;stroke-width:0.5;" d="M483.630 18.740 C483.630 19.890 482.690 20.820 481.550 20.820 L480.260 20.820 L480.260 15.610 L481.550 15.610 C482.690 15.610 483.630 16.540 483.630 17.690 ZM481.770 13.530 L477.880 13.530 L477.880 22.870 L481.770 22.870 C484.060 22.870 485.930 21.000 485.930 18.710 L485.930 17.690 C485.930 15.400 484.060 13.530 481.770 13.530 "/>
  <path style="fill:rgb(23,22,21);stroke:none;stroke-width:0.5;" d="M533.950 18.740 C533.950 19.890 533.010 20.820 531.870 20.820 L530.580 20.820 L530.580 15.610 L531.870 15.610 C533.010 15.610 533.950 16.540 533.950 17.690 ZM532.090 13.530 L528.200 13.530 L528.200 22.870 L532.090 22.870 C534.380 22.870 536.250 21.000 536.250 18.710 L536.250 17.690 C536.250 15.400 534.380 13.530 532.090 13.530 "/>
  <path style="fill:rgb(23,22,21);stroke:none;stroke-width:0.5;" d="M488.860 22.880 L491.250 22.880 L494.360 13.540 L491.980 13.560 L490.060 20.140 L488.110 13.540 L485.740 13.540 Z"/>
  <path style="fill:rgb(23,22,21);stroke:none;stroke-width:0.5;" d="M496.460 19.620 L497.470 16.290 L498.430 19.620 ZM498.330 13.530 L496.510 13.530 L492.790 22.870 L495.310 22.850 L495.840 21.500 L499.030 21.500 L499.550 22.880 L502.100 22.880 Z"/>
  <path style="fill:rgb(23,22,21);stroke:none;stroke-width:0.5;" d="M508.300 13.530 L508.300 19.240 L504.830 13.530 L502.600 13.530 L502.600 22.900 L504.830 22.900 L504.830 17.190 L508.300 22.900 L510.530 22.900 L510.530 13.530 Z"/>
  <path style="fill:rgb(23,22,21);stroke:none;stroke-width:0.5;" d="M524.090 23.600 L524.090 29.240 L520.660 23.600 L518.460 23.600 L518.460 32.850 L520.660 32.850 L520.660 27.210 L524.090 32.850 L526.290 32.850 L526.290 23.600 Z"/>
  <path style="fill:rgb(23,22,21);stroke:none;stroke-width:0.5;" d="M518.640 19.380 C518.230 20.320 517.340 20.980 516.310 20.980 C514.890 20.980 513.740 19.740 513.740 18.210 C513.740 16.680 514.890 15.440 516.310 15.440 C517.350 15.440 518.240 16.110 518.650 17.070 L521.010 17.070 C520.490 14.970 518.590 13.410 516.310 13.410 C513.630 13.410 511.450 15.560 511.450 18.210 C511.450 20.860 513.630 23.010 516.310 23.010 C518.590 23.010 520.480 21.460 521.010 19.380 Z"/>
  <path style="fill:rgb(23,22,21);stroke:none;stroke-width:0.5;" d="M534.510 29.400 C534.100 30.350 533.220 31.010 532.180 31.010 C530.760 31.010 529.610 29.770 529.610 28.240 C529.610 26.710 530.760 25.470 532.180 25.470 C533.220 25.470 534.110 26.140 534.520 27.090 L536.880 27.090 C536.360 25.000 534.460 23.440 532.180 23.440 C529.500 23.440 527.320 25.590 527.320 28.240 C527.320 30.890 529.500 33.040 532.180 33.040 C534.460 33.040 536.350 31.490 536.880 29.400 Z"/>
  <path style="fill:rgb(23,22,21);stroke:none;stroke-width:0.5;" d="M504.770 29.430 C504.360 30.380 503.470 31.040 502.440 31.040 C501.020 31.040 499.870 29.800 499.870 28.270 C499.870 26.740 501.020 25.500 502.440 25.500 C503.480 25.500 504.370 26.170 504.770 27.120 L507.140 27.120 C506.620 25.030 504.720 23.470 502.440 23.470 C499.760 23.470 497.580 25.620 497.580 28.270 C497.580 30.920 499.760 33.070 502.440 33.070 C504.710 33.070 506.610 31.520 507.140 29.430 Z"/>
  <path style="fill:rgb(23,22,21);stroke:none;stroke-width:0.5;" d="M527.030 15.640 L527.030 13.510 L524.160 13.510 L521.820 13.510 L521.820 15.640 L521.820 17.110 L521.820 19.190 L521.820 20.680 L521.820 22.800 L521.820 22.820 L524.160 22.820 L524.160 22.800 L527.030 22.800 L527.030 20.680 L524.160 20.680 L524.160 19.190 L526.900 19.190 L526.900 17.110 L524.160 17.110 L524.160 15.640 Z"/>
  <path style="fill:rgb(23,22,21);stroke:none;stroke-width:0.5;" d="M542.990 25.690 L542.990 23.560 L540.110 23.560 L537.770 23.560 L537.770 25.690 L537.770 27.160 L537.770 29.240 L537.770 30.730 L537.770 32.860 L537.770 32.870 L540.110 32.870 L540.110 32.860 L542.990 32.860 L542.990 30.730 L540.110 30.730 L540.110 29.240 L542.860 29.240 L542.860 27.160 L540.110 27.160 L540.110 25.690 Z"/>
  <path style="fill:rgb(23,22,21);stroke:none;stroke-width:0.5;" d="M517.200 25.730 L517.200 23.600 L514.330 23.600 L511.990 23.600 L511.990 25.730 L511.990 27.200 L511.990 29.280 L511.990 30.760 L511.990 32.890 L511.990 32.910 L514.330 32.910 L514.330 32.890 L517.200 32.890 L517.200 30.760 L514.330 30.760 L514.330 29.280 L517.070 29.280 L517.070 27.200 L514.330 27.200 L514.330 25.730 Z"/>
  <path style="fill:rgb(23,22,21);stroke:none;stroke-width:0.5;" d="M494.620 26.330 L496.960 26.330 C496.960 26.330 497.040 23.420 493.940 23.420 C490.840 23.420 490.600 25.680 490.600 26.250 C490.600 26.250 490.530 27.770 492.560 28.680 C494.200 29.460 494.770 29.480 494.710 30.310 C494.710 30.310 494.580 31.120 493.780 31.070 C492.840 31.020 492.760 29.770 492.760 29.770 L490.470 29.770 C490.470 29.770 490.350 33.090 493.830 33.020 C497.040 33.020 497.040 30.490 497.040 30.060 C497.040 30.060 497.110 28.590 495.470 27.820 C493.840 27.110 492.970 26.850 492.940 26.130 C492.920 25.470 493.540 25.370 493.760 25.350 C494.010 25.340 494.620 25.470 494.620 26.330 "/>
  <path style="fill:rgb(23,22,21);stroke:none;stroke-width:0.5;" d="M516.310 37.870 C516.310 37.570 516.390 37.280 516.520 37.010 L468.050 37.010 L468.050 38.670 L516.490 38.670 C516.380 38.420 516.310 38.150 516.310 37.870 "/>
  <path style="fill:rgb(23,22,21);stroke:none;stroke-width:0.5;" d="M544.250 37.870 C544.250 39.230 542.850 40.340 541.130 40.340 L520.490 40.340 C518.780 40.340 517.370 39.230 517.370 37.870 C517.370 36.520 518.780 35.400 520.490 35.400 L541.130 35.400 C542.850 35.400 544.250 36.520 544.250 37.870 "/>
  <path style="fill:rgb(255,255,255);stroke:none;stroke-width:0.5;" d="M520.530 38.930 C519.890 38.930 519.380 38.420 519.380 37.790 C519.380 37.160 519.890 36.640 520.530 36.640 C521.160 36.640 521.670 37.160 521.670 37.790 C521.670 38.420 521.160 38.930 520.530 38.930 M520.530 36.190 C519.640 36.190 518.930 36.910 518.930 37.790 C518.930 38.670 519.640 39.390 520.530 39.390 C521.410 39.390 522.130 38.670 522.130 37.790 C522.130 36.910 521.410 36.190 520.530 36.190 "/>
  <path style="fill:rgb(255,255,255);stroke:none;stroke-width:0.5;" d="M523.620 39.080 C523.270 39.080 522.980 38.790 522.920 38.430 L522.920 38.160 C522.980 37.790 523.270 37.510 523.620 37.510 C524.020 37.510 524.340 37.860 524.340 38.290 C524.340 38.720 524.020 39.080 523.620 39.080 M523.620 37.200 C523.350 37.200 523.100 37.320 522.920 37.500 L522.920 37.240 L522.480 37.240 L522.480 40.400 L522.920 40.400 L522.920 39.080 C523.100 39.270 523.350 39.390 523.620 39.390 C524.180 39.390 524.630 38.900 524.630 38.290 C524.630 37.690 524.180 37.200 523.620 37.200 "/>
  <path style="fill:rgb(255,255,255);stroke:none;stroke-width:0.5;" d="M526.030 37.570 C526.330 37.570 526.560 37.800 526.640 38.110 L525.430 38.110 C525.500 37.800 525.740 37.570 526.030 37.570 M527.100 38.300 C527.100 37.700 526.620 37.210 526.030 37.210 C525.450 37.210 524.970 37.700 524.970 38.300 C524.970 38.900 525.450 39.390 526.030 39.390 C526.400 39.390 526.710 39.180 526.900 38.890 L526.570 38.680 C526.460 38.890 526.260 39.030 526.030 39.030 C525.730 39.030 525.500 38.800 525.420 38.480 L527.050 38.480 L527.050 38.470 L527.060 38.470 C527.070 38.410 527.100 38.360 527.100 38.300 "/>
  <path style="fill:rgb(255,255,255);stroke:none;stroke-width:0.5;" d="M538.250 37.570 C538.540 37.570 538.780 37.800 538.860 38.110 L537.640 38.110 C537.720 37.800 537.960 37.570 538.250 37.570 M539.310 38.300 C539.310 37.700 538.840 37.210 538.250 37.210 C537.660 37.210 537.190 37.700 537.190 38.300 C537.190 38.900 537.660 39.390 538.250 39.390 C538.620 39.390 538.930 39.180 539.120 38.890 L538.790 38.680 C538.670 38.890 538.480 39.030 538.250 39.030 C537.950 39.030 537.710 38.800 537.640 38.480 L539.270 38.480 L539.270 38.470 L539.280 38.470 C539.290 38.410 539.310 38.360 539.310 38.300 "/>
  <path style="fill:rgb(255,255,255);stroke:none;stroke-width:0.5;" d="M528.490 37.200 C528.240 37.200 528.030 37.320 527.880 37.480 L527.880 37.250 L527.410 37.250 L527.410 39.370 L527.880 39.370 L527.880 38.020 C527.910 37.890 528.030 37.590 528.360 37.590 C528.720 37.590 528.800 37.760 528.800 38.160 L528.800 39.360 L529.270 39.360 L529.270 38.120 C529.270 38.120 529.270 37.200 528.490 37.200 "/>
  <path style="fill:rgb(255,255,255);stroke:none;stroke-width:0.5;" d="M531.090 38.220 L531.650 36.890 L532.180 38.220 ZM532.640 39.370 L533.190 39.370 L531.860 36.290 L531.420 36.290 L530.090 39.370 L530.610 39.370 L530.930 38.590 L532.330 38.590 Z"/>
  <path style="fill:rgb(255,255,255);stroke:none;stroke-width:0.5;" d="M534.800 38.710 C534.680 38.870 534.490 38.980 534.280 38.980 C533.910 38.980 533.610 38.680 533.610 38.300 C533.610 37.920 533.910 37.620 534.280 37.620 C534.470 37.620 534.630 37.700 534.760 37.820 L535.070 37.580 C534.870 37.360 534.600 37.210 534.280 37.210 C533.690 37.210 533.200 37.700 533.200 38.300 C533.200 38.900 533.690 39.390 534.280 39.390 C534.590 39.390 534.870 39.240 535.070 39.020 Z"/>
  <path style="fill:rgb(255,255,255);stroke:none;stroke-width:0.5;" d="M536.830 38.710 C536.710 38.870 536.520 38.980 536.310 38.980 C535.940 38.980 535.640 38.680 535.640 38.300 C535.640 37.920 535.940 37.620 536.310 37.620 C536.500 37.620 536.670 37.700 536.790 37.820 L537.100 37.580 C536.900 37.360 536.630 37.210 536.310 37.210 C535.720 37.210 535.240 37.700 535.240 38.300 C535.240 38.900 535.720 39.390 536.310 39.390 C536.620 39.390 536.900 39.240 537.100 39.020 Z"/>
  <path style="fill:rgb(255,255,255);stroke:none;stroke-width:0.5;" d="M540.710 37.830 L541.040 37.550 C541.040 37.550 540.790 37.240 540.350 37.200 C539.910 37.150 539.570 37.490 539.560 37.880 C539.540 38.270 539.930 38.400 540.130 38.430 C540.320 38.460 540.600 38.540 540.600 38.740 C540.600 38.930 540.430 39.000 540.260 39.000 C540.080 39.000 539.780 38.710 539.780 38.710 L539.490 39.020 C539.490 39.020 539.750 39.390 540.260 39.370 C540.760 39.360 541.050 39.130 541.080 38.710 C541.120 38.280 540.630 38.140 540.400 38.070 C540.230 38.020 540.060 37.940 540.040 37.800 C540.030 37.650 540.340 37.390 540.710 37.830 "/>
  <path style="fill:rgb(255,255,255);stroke:none;stroke-width:0.5;" d="M542.560 37.830 L542.890 37.550 C542.890 37.550 542.640 37.240 542.210 37.200 C541.770 37.150 541.420 37.490 541.410 37.880 C541.390 38.270 541.780 38.400 541.980 38.430 C542.170 38.460 542.450 38.540 542.450 38.740 C542.450 38.930 542.290 39.000 542.110 39.000 C541.930 39.000 541.640 38.710 541.640 38.710 L541.340 39.020 C541.340 39.020 541.600 39.390 542.110 39.370 C542.610 39.360 542.900 39.130 542.940 38.710 C542.970 38.280 542.480 38.140 542.250 38.070 C542.080 38.020 541.910 37.940 541.900 37.800 C541.880 37.650 542.190 37.390 542.560 37.830 "/>
  <g begin="text">
   <text y="50.16" x="455.494,461.022,466.55,471.438,473.366,477.094,481.262,484.894,488.622,492.902,496.374,500.038,504.206,507.702,511.174,513.07,516.734,521.014,524.486,528.15,530.078,533.55,537.598" svgx:width="0.7,0.7,0.7,0.25,0.48,0.53,0.46,0.48,0.55,0.44,0.47,0.53,0.45,0.44,0.25,0.47,0.55,0.44,0.47,0.25,0.44,0.52,0.83" style="fill:rgb(23,22,21);font-family:ScalaSansLF-Bold;font-size:8.0px;stroke:none;">www.advancedscience.com</text>
  </g>
  <g begin="text">
   <text y="385.578" x="48.189,56.037,60.051,65.181,69.069,71.319,72.39,76.08,78.672,81.966,85.98,88.572,92.622,97.086,99.525,103.575,107.265,109.515,110.586,113.178,117.624,119.874,120.945,123.384,131.232,135.975,139.269,143.715,147.594,151.644,153.894,154.965,157.557,162.57,166.62,168.87,169.941,173.991,176.295,180.345,184.116,186.708,190.002,194.448,198.219,203.232,207.282,215.13,217.569,221.34,225.354,227.658,229.908,230.979,235.722,239.772,243.066,245.874,250.32,253.614,261.462,265.476,270.606,274.377,278.427,280.677,281.748,286.194,289.101" svgx:width="0.88,0.46,0.58,0.44,0.25,0.55,0.42,0.3,0.38,0.46,0.3,0.46,0.51,0.28,0.46,0.42,0.25,0.55,0.3,0.5,0.25,0.55,0.28,0.88,0.54,0.38,0.5,0.44,0.46,0.25,0.55,0.3,0.57,0.46,0.25,0.55,0.46,0.27,0.46,0.43,0.3,0.38,0.5,0.43,0.57,0.46,0.88,0.28,0.43,0.46,0.27,0.25,0.55,0.54,0.46,0.38,0.32,0.5,0.38,0.88,0.46,0.58,0.43,0.46,0.25,0.55,0.5,0.32,0.25" style="fill:rgb(23,22,21);font-family:ScalaLF-Regular;font-size:9.0px;stroke:none;">many strategies to improve the electrochemical performance of </text>
   <text y="396.576" x="48.189,52.869,55.308,57.558,59.349,67.197,71.247,73.839,77.853,80.157,82.407,84.198,88.212,93.342,97.788,102.477,106.527,108.777,110.568,114.258,119.289,123.06,128.073,130.323,132.114,136.128,139.818,142.068,143.859,146.298,151.428,154.02,158.07,161.364,164.172,168.186,171.957,174.396,178.41,180.714,182.964,184.755,192.603,197.049,201.738,204.177,209.325,213.096,217.11,219.702,222.141,226.587,231.717,235.407" svgx:width="0.53,0.28,0.25,0.55,0.88,0.46,0.3,0.46,0.27,0.25,0.55,0.46,0.58,0.5,0.53,0.46,0.25,0.55,0.42,0.57,0.43,0.57,0.25,0.55,0.46,0.42,0.25,0.55,0.28,0.58,0.3,0.46,0.38,0.32,0.46,0.43,0.28,0.46,0.27,0.25,0.55,0.88,0.5,0.53,0.28,0.58,0.43,0.46,0.3,0.28,0.5,0.58,0.42,0.25" style="fill:rgb(23,22,21);font-family:ScalaLF-Regular;font-size:9.0px;stroke:none;">Li metal anode such as interfacial modifications,</text>
   <text y="393.428" x="237.544,239.05,242.131" svgx:width="0.25,0.5,0.25" style="fill:rgb(23,22,21);font-family:ScalaLF-Regular;font-size:6.3px;stroke:none;">[8]</text>
   <text y="396.578" x="243.637,245.887,247.678,251.728,256.858,261.322,263.761,268.891,272.941,276.991,280.285,284.335,289.123" svgx:width="0.25,0.55,0.46,0.58,0.51,0.28,0.58,0.46,0.46,0.38,0.46,0.53,0.25" style="fill:rgb(23,22,21);font-family:ScalaLF-Regular;font-size:9.0px;stroke:none;"> engineered </text>
   <text y="407.576" x="48.193,52.207,57.337,61.783,66.472,70.522,74.212" svgx:width="0.46,0.58,0.5,0.53,0.46,0.42,0.25" style="fill:rgb(23,22,21);font-family:ScalaLF-Regular;font-size:9.0px;stroke:none;">anodes,</text>
   <text y="404.428" x="76.359,77.864,80.945,84.026,87.106,90.187" svgx:width="0.25,0.5,0.5,0.5,0.5,0.25" style="fill:rgb(23,22,21);font-family:ScalaLF-Regular;font-size:6.3px;stroke:none;">[9–11]</text>
   <text y="407.578" x="91.693,93.943,96.139,100.153,103.447,106.039,108.478,113.626,117.397,119.836,123.85,126.154,128.404,130.6,134.29,138.736,141.04,143.479,148.168,150.418,152.614,156.664,158.968,163.018,166.789,169.381,172.675,177.121,179.425,183.313,185.905,189.955,192.205,194.401,196.84,201.97,204.562,208.612,211.906,214.714,218.728,222.499,226.549,228.799,230.995,233.677,238.636,243.766,247.015,249.697,251.947,254.143,259.291,261.595,269.443,273.133" svgx:width="0.25,0.55,0.46,0.38,0.3,0.28,0.58,0.43,0.28,0.46,0.27,0.25,0.55,0.42,0.5,0.27,0.28,0.53,0.25,0.55,0.46,0.27,0.46,0.43,0.3,0.38,0.5,0.27,0.44,0.3,0.46,0.25,0.55,0.28,0.58,0.3,0.46,0.38,0.32,0.46,0.43,0.46,0.25,0.55,0.31,0.56,0.58,0.37,0.31,0.25,0.55,0.58,0.27,0.88,0.42,0.25" style="fill:rgb(23,22,21);font-family:ScalaLF-Regular;font-size:9.0px;stroke:none;"> artificial solid electrolyte interface (SEI) films,</text>
   <text y="404.428" x="275.292,276.798,279.878,281.384,284.465,287.545" svgx:width="0.25,0.5,0.25,0.5,0.5,0.25" style="fill:rgb(23,22,21);font-family:ScalaLF-Regular;font-size:6.3px;stroke:none;">[7,12]</text>
   <text y="407.578" x="289.051" svgx:width="0.25" style="fill:rgb(23,22,21);font-family:ScalaLF-Regular;font-size:9.0px;stroke:none;"> </text>
   <text y="418.576" x="48.193,52.936,56.23,60.676,63.268,67.318,71.089,73.681,76.12,79.999,84.049,86.299,91.105,94.876,99.322,103.336,105.928,108.367,113.497,117.961,120.211,125.017,127.321,131.335,135.223,139.273,142.567,146.257" svgx:width="0.54,0.38,0.5,0.3,0.46,0.43,0.3,0.28,0.44,0.46,0.25,0.55,0.43,0.5,0.46,0.3,0.28,0.58,0.51,0.25,0.55,0.27,0.46,0.44,0.46,0.38,0.42,0.25" style="fill:rgb(23,22,21);font-family:ScalaLF-Regular;font-size:9.0px;stroke:none;">protective coating layers,</text>
   <text y="415.428" x="148.404,149.91,152.99,156.071" svgx:width="0.25,0.5,0.5,0.25" style="fill:rgb(23,22,21);font-family:ScalaLF-Regular;font-size:6.3px;stroke:none;">[13]</text>
   <text y="418.578" x="157.577,159.827,164.633,168.647,173.777,178.466,180.716,185.522,189.293,194.306,198.356,206.204,208.643,212.414,216.428,218.732,220.982,225.788,230.531,233.825,237.875,240.467,243.761,247.811,251.825,254.417,262.265,266.315,271.445,274.037,277.727" svgx:width="0.25,0.55,0.46,0.58,0.53,0.25,0.55,0.43,0.57,0.46,0.88,0.28,0.43,0.46,0.27,0.25,0.55,0.54,0.38,0.46,0.3,0.38,0.46,0.46,0.3,0.88,0.46,0.58,0.3,0.42,0.25" style="fill:rgb(23,22,21);font-family:ScalaLF-Regular;font-size:9.0px;stroke:none;"> and chemical pretreatments.</text>
   <text y="415.428" x="279.878,281.384,284.465,287.545" svgx:width="0.25,0.5,0.5,0.25" style="fill:rgb(23,22,21);font-family:ScalaLF-Regular;font-size:6.3px;stroke:none;">[14]</text>
   <text y="418.578" x="289.051" svgx:width="0.25" style="fill:rgb(23,22,21);font-family:ScalaLF-Regular;font-size:9.0px;stroke:none;"> </text>
   <text y="429.576" x="48.193,51.442,56.572,58.822,60.262,64.276,68.965,73.654,76.093,78.685,81.124,85.57,90.7,92.851,95.101,96.541,100.555,102.805,104.245,109.375,114.406,122.254,126.889,130.939,134.233,136.483,137.923,142.369,145.177,147.427,148.867,151.459,156.472,160.522,164.968,168.262,172.312,174.904,177.343,181.114,185.128,187.432,189.682,191.122,198.97,203.416,208.105,212.155,214.459,218.149,220.399,221.839,228.094,232.144,235.438,239.488,241.738,243.178,247.192,249.496,253.186,257.632,259.882,261.322,265.957,270.988,273.427,275.731,278.323,280.573,282.013,284.605,289.15" svgx:width="0.37,0.58,0.25,0.55,0.46,0.53,0.53,0.28,0.3,0.28,0.5,0.58,0.25,0.25,0.55,0.46,0.25,0.55,0.58,0.57,0.88,0.53,0.46,0.38,0.25,0.55,0.5,0.32,0.25,0.55,0.3,0.57,0.46,0.5,0.38,0.46,0.3,0.28,0.43,0.46,0.27,0.25,0.55,0.88,0.5,0.53,0.46,0.27,0.42,0.25,0.55,0.71,0.46,0.38,0.46,0.25,0.55,0.46,0.27,0.42,0.5,0.25,0.55,0.53,0.57,0.28,0.27,0.3,0.25,0.55,0.3,0.5,0.25" style="fill:rgb(23,22,21);font-family:ScalaLF-Regular;font-size:9.0px;stroke:none;">In addition, a number of theoretical models were also built to </text>
   <text y="440.574" x="48.193,52.882,56.932,60.622,64.393,67.687,70.126,74.761,78.811,80.769,83.361,88.374,92.424,94.386,99.516,104.547,108.318,110.622,114.672,118.686,121.278,123.717,128.163,133.293,135.25,139.264,144.394,149.083,151.045,155.509,158.803,163.249,169.504,172.096,177.109,179.067,186.915,190.965,194.736,199.749,203.763,208.893,211.332,215.022,222.87,226.56,228.517,232.963,235.771,237.733,242.413,244.852,246.81,251.499,255.549,260.679,265.368,268.662,271.101,273.693,277.743" svgx:width="0.53,0.46,0.42,0.43,0.38,0.28,0.53,0.46,0.25,0.3,0.57,0.46,0.25,0.58,0.57,0.43,0.27,0.46,0.46,0.3,0.28,0.5,0.58,0.25,0.46,0.58,0.53,0.25,0.51,0.38,0.5,0.71,0.3,0.57,0.25,0.88,0.46,0.43,0.57,0.46,0.58,0.28,0.42,0.88,0.42,0.25,0.5,0.32,0.25,0.53,0.28,0.25,0.53,0.46,0.58,0.53,0.38,0.28,0.3,0.46,0.25" style="fill:rgb(23,22,21);font-family:ScalaLF-Regular;font-size:9.0px;stroke:none;">describe the nucleation and growth mechanisms of Li dendrite.</text>
   <text y="437.428" x="279.878,281.384,284.465,287.545" svgx:width="0.25,0.5,0.5,0.25" style="fill:rgb(23,22,21);font-family:ScalaLF-Regular;font-size:6.3px;stroke:none;">[15]</text>
   <text y="440.578" x="289.051" svgx:width="0.25" style="fill:rgb(23,22,21);font-family:ScalaLF-Regular;font-size:9.0px;stroke:none;"> </text>
   <text y="451.576" x="48.193,54.097,59.11,63.124,67.246,71.26,73.564,77.443,79.882,83.932,85.335,87.486,91.176,93.426,94.389,102.237,106.683,111.372,115.422,117.726,119.976,120.939,125.628,129.678,133.368,137.139,140.433,142.872,147.507,151.557,155.247,157.497,158.46,161.052,166.065,170.115,172.365,173.328,175.767,180.897,184.776,188.826,192.12,195.81,199.86,202.164,206.052,208.302,209.265,214.008,217.302,221.748,226.491,230.937,234.231,236.823,239.262,243.708,248.838,252.852,255.156,257.406,258.369,261.663,265.713,268.017,272.031,274.623,277.062,281.508,286.638" svgx:width="0.67,0.57,0.46,0.47,0.46,0.27,0.44,0.28,0.46,0.27,0.25,0.42,0.25,0.55,0.88,0.5,0.53,0.46,0.27,0.25,0.55,0.53,0.46,0.42,0.43,0.38,0.28,0.53,0.46,0.42,0.25,0.55,0.3,0.57,0.46,0.25,0.55,0.28,0.58,0.44,0.46,0.38,0.42,0.46,0.27,0.44,0.25,0.55,0.54,0.38,0.5,0.54,0.5,0.38,0.3,0.28,0.5,0.58,0.46,0.27,0.25,0.55,0.38,0.46,0.27,0.46,0.3,0.28,0.5,0.58,0.28" style="fill:rgb(23,22,21);font-family:ScalaLF-Regular;font-size:9.0px;stroke:none;">Chazalviel’s model describes the inversely proportional relation-</text>
   <text y="462.574" x="48.193,51.883,56.896,59.335,64.078,66.328,67.327,71.962,76.012,78.604,84.859,88.909,92.959,98.089,100.339,101.338,103.93,108.943,112.993,115.243,116.242,118.834,121.273,129.121,133.171,135.421,136.42,140.866,143.674,145.924,146.923,151.612,155.662,160.792,165.481,168.775,171.214,173.806,177.856,180.106,181.105,185.569,188.863,193.309,199.564,202.156,207.169,209.419,210.418,214.432,219.562,224.251,226.501,227.5,230.092,235.105,239.155,241.405,242.404,246.175,251.206,254.5,257.794,261.844,266.974,269.566,271.816,272.815,277.504,281.554,286.684" svgx:width="0.42,0.57,0.28,0.54,0.25,0.55,0.53,0.46,0.3,0.71,0.46,0.46,0.58,0.25,0.55,0.3,0.57,0.46,0.25,0.55,0.3,0.28,0.88,0.46,0.25,0.55,0.5,0.32,0.25,0.55,0.53,0.46,0.58,0.53,0.38,0.28,0.3,0.46,0.25,0.55,0.51,0.38,0.5,0.71,0.3,0.57,0.25,0.55,0.46,0.58,0.53,0.25,0.55,0.3,0.57,0.46,0.25,0.55,0.43,0.57,0.38,0.38,0.46,0.58,0.3,0.25,0.55,0.53,0.46,0.58,0.28" style="fill:rgb(23,22,21);font-family:ScalaLF-Regular;font-size:9.0px;stroke:none;">ship between the time of dendrite growth and the current den-</text>
   <text y="473.572" x="48.193,51.883,54.322,56.914,60.802,63.556" svgx:width="0.42,0.28,0.3,0.44,0.25,0.31" style="fill:rgb(23,22,21);font-family:ScalaLF-Regular;font-size:9.0px;stroke:none;">sity (</text>
   <text y="473.578" transform="matrix(1.0,0.0,0.0,1.0,0.0,0.0)" rotateDegrees="0" matrix="[9.0,0.0,1.5869,9.0,66.2306,308.7836]" x="66.231" svgx:width="0.44" style="fill:rgb(23,22,21);font-family:Symbol;font-size:9.0px;stroke:none;">τ</text>
   <text y="473.578" x="70.083" svgx:width="0.25" style="fill:rgb(23,22,21);font-family:ScalaLF-Regular;font-size:9.0px;stroke:none;"> </text>
   <text y="473.578" x="72.837" svgx:width="0.55" style="fill:rgb(23,22,21);font-family:Symbol;font-size:9.0px;stroke:none;">≈</text>
   <text y="473.578" x="77.679,80.433" svgx:width="0.25,0.36" style="fill:rgb(23,22,21);font-family:ScalaLF-Regular;font-size:9.0px;stroke:none;"> J</text>
   <text y="470.428" x="83.603" svgx:width="0.55" style="fill:rgb(23,22,21);font-family:Symbol;font-size:6.3px;stroke:none;">−</text>
   <text y="470.428" x="86.993" svgx:width="0.5" style="fill:rgb(23,22,21);font-family:ScalaLF-Regular;font-size:6.3px;stroke:none;">2</text>
   <text y="473.578" x="90.073,92.755,94.906,97.66,103.402,107.173,110.944,115.39,118.684,123.373,125.812,130.942,135.406,138.16,140.752,145.198,147.952,150.544,155.557,157.996,161.686,164.44,167.032,172.045,176.095,180.541,183.835,187.002,189.153,191.907,195.678,200.124,205.254,208.944,211.536,214.83,219.861,223.632,226.224,228.663,233.793,238.257,241.011,245.412,251.973,254.727,258.417,262.89,266.94,269.244,273.294,275.886,280.332,285.462" svgx:width="0.31,0.25,0.25,0.67,0.43,0.43,0.5,0.38,0.53,0.28,0.58,0.51,0.25,0.3,0.5,0.25,0.3,0.57,0.28,0.42,0.25,0.3,0.57,0.46,0.5,0.38,0.44,0.25,0.25,0.43,0.5,0.58,0.42,0.3,0.38,0.57,0.43,0.3,0.28,0.58,0.51,0.25,0.5,0.74,0.25,0.42,0.51,0.46,0.27,0.46,0.3,0.5,0.58,0.41" style="fill:rgb(23,22,21);font-family:ScalaLF-Regular;font-size:9.0px;stroke:none;">). According to this theory, constructing 3D skeleton/</text>
   <text y="484.576" x="48.187,52.867,55.306,57.556,58.627,62.398,66.844,74.692,79.435,83.881,87.571,90.01,92.602,96.652,98.902,99.973,102.565,107.011,109.261,110.332,114.022,119.053,123.688,127.378,129.97,132.409,135.001,140.032,142.624,146.674,148.924,149.995,154.675,157.114,159.364,160.435,162.874,166.564,168.814,169.885,173.899,179.029,181.279,182.35,186.4,189.164,191.972,196.022,199.793,202.385,204.824,208.703,212.753,215.003,216.074,219.764,222.356,225.65,229.664,232.256,236.306,240.77,244.658,246.908,247.979,250.571,255.017,257.267,258.338,260.777,268.625,273.368,276.662,281.108,284.987,289.136" svgx:width="0.53,0.28,0.25,0.55,0.43,0.5,0.88,0.54,0.5,0.42,0.28,0.3,0.46,0.25,0.55,0.3,0.5,0.25,0.55,0.42,0.57,0.53,0.42,0.3,0.28,0.3,0.57,0.3,0.46,0.25,0.55,0.53,0.28,0.25,0.55,0.28,0.42,0.25,0.55,0.46,0.58,0.25,0.55,0.46,0.32,0.32,0.46,0.43,0.3,0.28,0.44,0.46,0.25,0.55,0.42,0.3,0.38,0.46,0.3,0.46,0.51,0.44,0.25,0.55,0.3,0.5,0.25,0.55,0.28,0.88,0.54,0.38,0.5,0.44,0.46,0.25" style="fill:rgb(23,22,21);font-family:ScalaLF-Regular;font-size:9.0px;stroke:none;">Li composite to substitute Li is an effective strategy to improve </text>
   <text y="495.574" x="48.187,51.958,55.846,59.617,61.921,65.971,68.842,71.146,73.585,76.393,80.443,84.133,88.876,92.89,98.02,100.891,105.526,109.576,113.347,117.361,122.392,126.082,130.132,133.003,135.595,140.608,144.658,147.529,151.93,158.491,161.362,165.052,169.525,173.575,175.879,179.929,182.521,186.967,192.097,194.968,198.739,202.753,207.883,210.754,215.884,220.33,222.922,225.793,230.239,235.369,237.673,241.561,244.432,247.726,251.776,256.465,261.496,265.267,269.317,272.188,274.492,278.938,282.709,286.723,289.126" svgx:width="0.43,0.44,0.43,0.27,0.46,0.25,0.27,0.28,0.32,0.46,0.42,0.54,0.46,0.58,0.25,0.53,0.46,0.43,0.46,0.57,0.42,0.46,0.25,0.3,0.57,0.46,0.25,0.5,0.74,0.25,0.42,0.51,0.46,0.27,0.46,0.3,0.5,0.58,0.25,0.43,0.46,0.58,0.25,0.58,0.5,0.3,0.25,0.5,0.58,0.27,0.44,0.25,0.38,0.46,0.53,0.57,0.43,0.46,0.25,0.27,0.5,0.43,0.46,0.27,0.25" style="fill:rgb(23,22,21);font-family:ScalaLF-Regular;font-size:9.0px;stroke:none;">cycle lifespan because the 3D skeleton can not only reduce local </text>
   <text y="506.572" x="48.187,51.958,56.989,60.283,63.577,67.627,72.757,75.349,77.599,78.526,83.215,87.265,92.395,96.085,98.524,101.116,105.004,107.254,108.181,112.195,117.325,122.014,124.264,125.191,129.655,134.686,137.125,141.814,145.864,148.114,149.041,154.054,158.5,166.348,170.794,175.258,179.308,184.438,188.488,192.934,197.965,201.655,203.905,204.832,209.512,211.951,214.201,215.128,219.817,223.867,228.61,233.056,236.746,239.185,241.777,244.216,248.662,253.792,255.943,258.193,259.12,263.755,268.786,271.378,273.628,274.555,278.569,280.873,284.563,289.108" svgx:width="0.43,0.57,0.38,0.38,0.46,0.58,0.3,0.25,0.55,0.53,0.46,0.58,0.42,0.28,0.3,0.44,0.25,0.55,0.46,0.58,0.53,0.25,0.55,0.51,0.57,0.28,0.53,0.46,0.25,0.55,0.57,0.5,0.88,0.5,0.51,0.46,0.58,0.46,0.5,0.57,0.42,0.25,0.55,0.53,0.28,0.25,0.55,0.53,0.46,0.54,0.5,0.42,0.28,0.3,0.28,0.5,0.58,0.25,0.25,0.55,0.53,0.57,0.3,0.25,0.55,0.46,0.27,0.42,0.5,0.25" style="fill:rgb(23,22,21);font-family:ScalaLF-Regular;font-size:9.0px;stroke:none;">current density and guide homogeneous Li deposition, but also </text>
   <text y="517.57" x="48.187,56.035,58.474,63.604,66.043,73.891,76.33,80.452,84.502,87.148,89.74,94.753,98.803,101.449,105.328,109.774,112.078,117.109,124.957,129.007,131.653,135.424,140.437,144.451,149.581,154.045,158.095,160.246,162.892,169.147,174.16,176.599,180.37,185.383,188.029,191.8,195.814,200.944,206.074,210.52,213.112,215.758,220.393,224.443,227.089,231.103,234.874,238.645,243.091,250.939,255.682,257.986,260.425,264.115,269.128,273.178,277.867,280.513,285.148,289.135" svgx:width="0.88,0.28,0.58,0.28,0.88,0.28,0.47,0.46,0.25,0.3,0.57,0.46,0.25,0.44,0.5,0.27,0.57,0.88,0.46,0.25,0.43,0.57,0.46,0.58,0.51,0.46,0.25,0.25,0.71,0.57,0.28,0.43,0.57,0.25,0.43,0.46,0.58,0.58,0.5,0.3,0.25,0.53,0.46,0.25,0.46,0.43,0.43,0.5,0.88,0.54,0.27,0.28,0.42,0.57,0.46,0.53,0.25,0.53,0.44,0.25" style="fill:rgb(23,22,21);font-family:ScalaLF-Regular;font-size:9.0px;stroke:none;">minimize the volume change, which cannot be accomplished by </text>
   <text y="528.568" x="48.187,52.633,55.225,60.238,64.288,67.582,69.742,77.59,82.036,86.725,89.164,94.312,98.083,102.097,104.689,107.128,111.574,116.704,118.864,125.119,129.133,133.021,136.711" svgx:width="0.5,0.3,0.57,0.46,0.38,0.25,0.88,0.5,0.53,0.28,0.58,0.43,0.46,0.3,0.28,0.5,0.58,0.25,0.71,0.46,0.44,0.42,0.25" style="fill:rgb(23,22,21);font-family:ScalaLF-Regular;font-size:9.0px;stroke:none;">other modification ways.</text>
   <text y="525.428" x="138.866,140.372,143.452,146.533" svgx:width="0.25,0.5,0.5,0.25" style="fill:rgb(23,22,21);font-family:ScalaLF-Regular;font-size:6.3px;stroke:none;">[16]</text>
   <text y="528.578" x="148.039,150.199,154.599,157.893,161.943,169.791,173.841,178.971,183.66,188.106,193.137,196.827,198.987,203.037,205.801,208.609,213.055,216.349,218.941,222.631,224.791,229.237,234.367,236.527,241.216,245.266,248.956,251.395,255.859,260.989,263.428,268.558,273.022,275.182,279.196,284.326,289.114" svgx:width="0.25,0.6,0.38,0.46,0.88,0.46,0.58,0.53,0.5,0.57,0.42,0.25,0.46,0.32,0.32,0.5,0.38,0.3,0.42,0.25,0.5,0.58,0.25,0.53,0.46,0.42,0.28,0.51,0.58,0.28,0.58,0.51,0.25,0.46,0.58,0.53,0.25" style="fill:rgb(23,22,21);font-family:ScalaLF-Regular;font-size:9.0px;stroke:none;"> Tremendous efforts on designing and </text>
   <text y="539.576" x="48.193,51.964,56.41,61.54,65.23,67.822,71.116,76.147,79.918,82.51,84.949,90.079,94.543,96.955,100.834,104.848,108.142,110.581,115.027,120.058,123.748,126.16,132.064,137.095,139.471,141.883,145.897,151.027,155.716,158.128,164.032,166.408,171.043,175.057,178.747,182.797,187.486,189.898,194.299,200.86,203.272,206.962,211.435,215.485,217.789,221.839,224.431,228.877,234.007,236.419,240.19,245.221,248.515,251.809,255.859,260.989,263.581,265.993,269.764,274.21,276.514,278.818,282.868,286.639" svgx:width="0.43,0.5,0.58,0.42,0.3,0.38,0.57,0.43,0.3,0.28,0.58,0.51,0.25,0.44,0.46,0.38,0.28,0.5,0.57,0.42,0.25,0.67,0.57,0.28,0.25,0.46,0.58,0.53,0.25,0.67,0.28,0.53,0.46,0.42,0.46,0.53,0.25,0.5,0.74,0.25,0.42,0.51,0.46,0.27,0.46,0.3,0.5,0.58,0.25,0.43,0.57,0.38,0.38,0.46,0.58,0.3,0.25,0.43,0.5,0.27,0.27,0.46,0.43,0.28" style="fill:rgb(23,22,21);font-family:ScalaLF-Regular;font-size:9.0px;stroke:none;">constructing various Cu- and C-based 3D skeleton current collec-</text>
   <text y="550.574" x="48.193,50.785,55.231,58.525,62.215,64.465,65.518,71.773,75.823,79.117,83.167,85.417,86.47,91.213,94.507,98.953,103.696,108.142,111.832,115.882,120.571" svgx:width="0.3,0.5,0.38,0.42,0.25,0.55,0.71,0.46,0.38,0.46,0.25,0.55,0.54,0.38,0.5,0.54,0.5,0.42,0.46,0.53,0.25" style="fill:rgb(23,22,21);font-family:ScalaLF-Regular;font-size:9.0px;stroke:none;">tors were proposed.</text>
   <text y="547.428" x="122.72,124.226,127.307,130.387,131.893,134.974,138.055" svgx:width="0.25,0.5,0.5,0.25,0.5,0.5,0.25" style="fill:rgb(23,22,21);font-family:ScalaLF-Regular;font-size:6.3px;stroke:none;">[11,17]</text>
   <text y="550.578" x="139.56,141.81,142.863,150.306,154.752,161.007,165.057,168.936,172.986,175.56,177.711,179.961,181.014,183.606,188.619,192.669,196.359,200.409,202.659,203.712,206.304,212.559,217.005,219.255,220.308,224.781,227.22,232.35,237.039,240.729,242.979,244.032,248.478,251.286,253.536,254.589,258.279,262.752,266.802,269.106,273.156,275.748,280.194,285.324,289.113" svgx:width="0.25,0.55,0.84,0.5,0.71,0.46,0.44,0.46,0.38,0.25,0.25,0.55,0.3,0.57,0.46,0.42,0.46,0.25,0.55,0.3,0.71,0.5,0.25,0.55,0.51,0.28,0.58,0.53,0.42,0.25,0.55,0.5,0.32,0.25,0.55,0.42,0.51,0.46,0.27,0.46,0.3,0.5,0.58,0.42,0.25" style="fill:rgb(23,22,21);font-family:ScalaLF-Regular;font-size:9.0px;stroke:none;"> However, these two kinds of skeletons </text>
   <text y="561.576" x="48.192,52.206,55.5,59.55,61.8,62.997,68.127,72.573,75.165,77.415,78.612,80.916,83.355,85.947,90.96,93.399,97.845,102.588,107.601,110.04,112.344,114.783,118.554,120.705,122.955,124.152,132.162,136.608,139.902,143.952,148.398,152.277,156.327,158.901,161.052,163.302,164.499,167.091,172.104,176.154,178.404,179.601,184.281,186.72,189.096,191.904,195.198,199.248,203.298,205.548,206.745,210.516,215.529,219.543,222.837,226.851,230.622,233.214,237.264,240.558,242.997,246.687,249.279,251.718,255.489,257.73900000000003,258.936,263.382,266.19,268.44,269.637,272.229,277.242,281.292,284.982,289.131" svgx:width="0.46,0.38,0.46,0.25,0.55,0.58,0.5,0.3,0.25,0.55,0.27,0.28,0.3,0.57,0.28,0.5,0.54,0.57,0.28,0.27,0.28,0.43,0.25,0.25,0.55,0.9,0.5,0.38,0.46,0.5,0.44,0.46,0.38,0.25,0.25,0.55,0.3,0.57,0.46,0.25,0.55,0.53,0.28,0.28,0.32,0.38,0.46,0.46,0.25,0.55,0.43,0.57,0.46,0.38,0.46,0.43,0.3,0.46,0.38,0.28,0.42,0.3,0.28,0.43,0.25,0.55,0.5,0.32,0.25,0.55,0.3,0.57,0.46,0.42,0.46,0.25" style="fill:rgb(23,22,21);font-family:ScalaLF-Regular;font-size:9.0px;stroke:none;">are not lithiophilic. Moreover, the Li-free characteristic of these </text>
   <text y="572.574" x="48.192,51.882,56.355,60.405,62.709,66.759,69.351,73.797,78.927,82.617,85.227,93.075,97.089,101.562,105.612,109.302,111.912,114.504,119.517,123.567,131.415,134.025,137.796,142.242,150.09,154.833,157.137,159.576,163.347,167.361,169.953,174.003,178.692,181.302,184.11,188.556,191.85,194.46,197.052,202.065,206.115,208.554,211.848,214.458,218.472,223.215,227.958,230.262,232.701,236.472,240.486,243.078,245.517,249.963,255.093,257.703,260.142,265.272,267.882,272.562,275.001,279.402" svgx:width="0.42,0.51,0.46,0.27,0.46,0.3,0.5,0.58,0.42,0.25,0.88,0.46,0.51,0.46,0.42,0.25,0.3,0.57,0.46,0.88,0.25,0.43,0.5,0.88,0.54,0.27,0.28,0.43,0.46,0.3,0.46,0.53,0.25,0.32,0.5,0.38,0.25,0.3,0.57,0.46,0.28,0.38,0.25,0.46,0.54,0.54,0.27,0.28,0.43,0.46,0.3,0.28,0.5,0.58,0.25,0.28,0.58,0.25,0.53,0.28,0.5,0.74" style="fill:rgb(23,22,21);font-family:ScalaLF-Regular;font-size:9.0px;stroke:none;">skeletons makes them complicated for their application in Li–O</text>
   <text y="574.378" x="285.97" svgx:width="0.5" style="fill:rgb(23,22,21);font-family:ScalaLF-Regular;font-size:6.3px;stroke:none;">2</text>
   <text y="572.578" x="289.121" svgx:width="0.25" style="fill:rgb(23,22,21);font-family:ScalaLF-Regular;font-size:9.0px;stroke:none;"> </text>
   <text y="583.576" x="48.191,52.205,57.335,62.024,64.274,65.75,70.43,72.869,77.27,82.229,84.479,85.955,90.59,94.604,97.196,99.788,103.838,107.132,109.571,113.621,117.311,119.462,121.712,123.188,129.137,131.387,132.863,140.711,145.157,148.451,152.501,154.751,156.227,159.917,164.948,167.387,169.979,173.993,178.628,180.932,184.982,187.232,188.708,192.722,197.852,202.541,204.791,206.267,208.859,212.909,216.68,221.693,226.823,229.262,233.033,237.047,239.351,241.655,245.543,247.793,249.269,252.959,255.398,263.246,267.989,270.293,274.342,276.592,278.069,282.47,289.129" svgx:width="0.46,0.58,0.53,0.25,0.55,0.53,0.28,0.5,0.56,0.25,0.55,0.53,0.46,0.3,0.3,0.46,0.38,0.28,0.46,0.42,0.25,0.25,0.55,0.67,0.25,0.55,0.88,0.5,0.38,0.46,0.25,0.55,0.42,0.57,0.28,0.3,0.46,0.53,0.27,0.46,0.25,0.55,0.46,0.58,0.53,0.25,0.55,0.3,0.46,0.43,0.57,0.58,0.28,0.43,0.46,0.27,0.27,0.44,0.25,0.55,0.42,0.28,0.88,0.54,0.27,0.46,0.25,0.55,0.5,0.74,0.25" style="fill:rgb(23,22,21);font-family:ScalaLF-Regular;font-size:9.0px;stroke:none;">and Li–S batteries. A more suitable and technically simple 3D </text>
   <text y="594.574" x="48.191,51.881,56.354,60.404,62.708,66.758,69.35,73.796,78.926,82.508,87.188,89.627,92.003,95.774,100.22,108.068,112.811,117.257,120.947,123.386,125.978,130.028,132.404,136.418,141.548,145.994,150.683,154.733,157.109,159.917,164.363,167.657,170.033,174.713,182.723,188.339,192.029,194.405,196.844,200.534,202.91,207.923,210.362,214.826,219.839,222.143,226.031,228.407,233.096,237.146,240.836,243.275,246.569,250.583,255.218,257.522,261.572" svgx:width="0.42,0.51,0.46,0.27,0.46,0.3,0.5,0.58,0.41,0.53,0.28,0.25,0.43,0.5,0.88,0.54,0.5,0.42,0.28,0.3,0.46,0.25,0.46,0.58,0.5,0.53,0.46,0.25,0.32,0.5,0.38,0.25,0.53,0.9,0.63,0.42,0.25,0.28,0.42,0.25,0.57,0.28,0.51,0.57,0.27,0.44,0.25,0.53,0.46,0.42,0.28,0.38,0.46,0.53,0.27,0.46,0.25" style="fill:rgb(23,22,21);font-family:ScalaLF-Regular;font-size:9.0px;stroke:none;">skeleton/Li composite anode for LMBs is highly desirable.</text>
   <text y="605.572" x="58.19,65.525,69.674,73.067,77.216,79.754,84.983,87.233,89.519,93.632,95.882,98.168,103.397,107.546,113.9,116.15,118.436,122.225,130.172,134.321,136.724,139.415,141.953,147.182,151.745,153.995,156.281,159.674,163.823,167.936,171.806,174.497,177.035,181.58,186.809,189.059,191.345,195.908,200.057,205.286,209.435,212.828,216.941,219.632,223.781,228.569,230.819,233.105,237.605,244.265,246.515,248.801,256.91,261.473,263.723,266.009,270.797,275.342,280.184,284.333,289.121" svgx:width="0.84,0.46,0.38,0.46,0.28,0.58,0.25,0.55,0.46,0.25,0.55,0.58,0.46,0.71,0.25,0.55,0.42,0.88,0.46,0.27,0.3,0.28,0.58,0.51,0.25,0.55,0.38,0.46,0.46,0.43,0.3,0.28,0.5,0.58,0.25,0.55,0.51,0.46,0.58,0.46,0.38,0.46,0.3,0.46,0.53,0.25,0.55,0.5,0.74,0.25,0.55,0.9,0.51,0.25,0.55,0.53,0.5,0.54,0.46,0.53,0.25" style="fill:rgb(23,22,21);font-family:ScalaLF-Regular;font-size:9.0px;stroke:none;">Herein a new smelting reaction generated 3D Mg doped </text>
   <text y="616.57" x="48.191,52.97,55.508,60.008,64.787,67.325,73.04,75.29,76.523,80.636,83.039,85.442,89.987,93.974,96.224,97.457,100.238,105.35,109.499,112.892,117.041,119.579,124.808,128.921,131.783,134.474,138.623,142.016,144.266,145.499,149.369,153.482,155.885,158.288,162.437,167.225,169.475,170.708,175.487,178.025,182.525,188.24,192.74,200.849,205.412,207.662,208.895,212.765,217.31,225.257,230.099,234.644,238.433,240.971,243.662,247.811,250.592,252.842,255.092,256.325,262.679,267.791,270.329,274.199,279.311,281.561,282.794,285.332,289.121" svgx:width="0.53,0.28,0.5,0.53,0.28,0.63,0.25,0.55,0.46,0.27,0.27,0.5,0.44,0.25,0.55,0.31,0.57,0.46,0.38,0.46,0.28,0.58,0.46,0.32,0.3,0.46,0.38,0.25,0.55,0.43,0.46,0.27,0.27,0.46,0.53,0.25,0.55,0.53,0.28,0.5,0.63,0.5,0.9,0.51,0.25,0.55,0.43,0.5,0.88,0.54,0.5,0.42,0.28,0.3,0.46,0.31,0.25,0.25,0.55,0.71,0.57,0.28,0.43,0.57,0.25,0.55,0.28,0.42,0.25" style="fill:rgb(23,22,21);font-family:ScalaLF-Regular;font-size:9.0px;stroke:none;">Li–LiB alloy (hereinafter called Li–B–Mg composite), which is </text>
   <text y="627.568" x="48.191,56.138,60.251,62.789,68.018,70.421,74.408,76.658,78.079,81.95,86.494,94.441,99.284,103.828,107.618,111.767,116.555,118.805,120.227,124.771,127.678,129.928,131.35,136.13,138.667,144.382,146.632,148.054,151.843,156.415,160.564,162.967,167.117,169.807,174.352,179.581,181.831,183.253,187.367,192.596,197.383,199.633,201.055,203.962,207.355,211.505,215.654,217.904,219.326,224.105,226.643,228.893,230.314,236.669,239.206,241.897,247.009,249.259,250.681,254.794,257.044,258.466,261.374,265.522,271.876,274.126,275.548,280.336,282.874,286.663" svgx:width="0.88,0.46,0.28,0.58,0.27,0.44,0.25,0.55,0.43,0.5,0.88,0.54,0.5,0.42,0.46,0.53,0.25,0.55,0.5,0.32,0.25,0.55,0.53,0.28,0.63,0.25,0.55,0.42,0.51,0.46,0.27,0.46,0.3,0.5,0.58,0.25,0.55,0.46,0.58,0.53,0.25,0.55,0.32,0.38,0.46,0.46,0.25,0.55,0.53,0.28,0.25,0.55,0.71,0.28,0.3,0.57,0.25,0.55,0.46,0.25,0.55,0.32,0.46,0.71,0.25,0.55,0.53,0.28,0.42,0.28" style="fill:rgb(23,22,21);font-family:ScalaLF-Regular;font-size:9.0px;stroke:none;">mainly composed of LiB skeleton and free Li with a few dis-</text>
   <text y="638.566" x="48.191,51.98,56.525,58.928,62.906,67.055,71.843,74.093,75.659,83.768,88.331,90.581,92.831,94.397,96.935,100.724,102.974,104.54,109.382,112.775,116.924,120.713,124.862,130.091,132.782,136.931,141.719,143.969,145.535,149.648,153.437,155.687,157.253,161.366,163.616,165.182,170.024,173.417,177.962,185.909,188.447,192.236,194.774,200.003,204.566,206.816,208.382,212.495,214.898,217.589,221.738,225.131,230.36,234.473,237.164,239.702,243.68,247.829,250.079,251.645,255.758,260.987,265.532,270.32,274.469,276.719,278.285,281.192,285.737,289.13" svgx:width="0.42,0.5,0.27,0.44,0.46,0.53,0.25,0.55,0.9,0.51,0.25,0.25,0.55,0.28,0.42,0.25,0.55,0.54,0.38,0.46,0.42,0.46,0.58,0.3,0.46,0.53,0.25,0.55,0.46,0.42,0.25,0.55,0.46,0.25,0.55,0.54,0.38,0.5,0.88,0.28,0.42,0.28,0.58,0.51,0.25,0.55,0.46,0.27,0.3,0.46,0.38,0.58,0.46,0.3,0.28,0.44,0.46,0.25,0.55,0.46,0.58,0.5,0.53,0.46,0.25,0.55,0.32,0.5,0.38,0.25" style="fill:rgb(23,22,21);font-family:ScalaLF-Regular;font-size:9.0px;stroke:none;">solved Mg, is presented as a promising alternative anode for </text>
   <text y="649.564" x="48.191,52.97,61.079,66.794,70.583,72.833,75.083,76.739,82.139,87.251,91.4,93.65,95.306,100.436,105.664,108.202,112.892,118.021,122.171,124.421,126.076,130.577,137.237,139.487,141.143,145.013,149.558,157.505,162.347,166.892,170.681,173.219,175.91,180.059,182.309,183.965,191.912,194.45,198.32,201.713,206.258,210.047,212.738,216.131,221.261,225.131,227.822,232.952,236.345,240.494,242.744,244.4,248.549,253.778,258.566,263.111,269.465,273.254,275.504,277.16,279.851,284.963,289.112" svgx:width="0.53,0.9,0.63,0.42,0.25,0.25,0.55,0.6,0.57,0.46,0.25,0.55,0.57,0.58,0.28,0.52,0.57,0.46,0.25,0.55,0.5,0.74,0.25,0.55,0.43,0.5,0.88,0.54,0.5,0.42,0.28,0.3,0.46,0.25,0.55,0.88,0.28,0.43,0.38,0.5,0.42,0.3,0.38,0.57,0.43,0.3,0.57,0.38,0.46,0.25,0.55,0.46,0.58,0.53,0.5,0.71,0.42,0.25,0.55,0.3,0.57,0.46,0.25" style="fill:rgb(23,22,21);font-family:ScalaLF-Regular;font-size:9.0px;stroke:none;">LMBs. The unique 3D composite microstructure endows the </text>
   <text y="660.562" x="48.191,52.97,55.508,60.008,65.723,70.223,78.332,82.895,85.145,86.045,89.915,94.46,102.407,107.249,111.794,115.583,118.121,120.812,124.961,127.211,128.111,134.465,137.003,139.694,144.806,147.056,147.956,151.745,155.894,159.872,164.021,167.414,171.527,173.93,176.18,177.08,181.193,185.981,189.959,194.072,199.301,201.992,206.105,210.668,214.817,218.606,220.856,223.106,224.006,228.875,231.413,234.806,238.595,241.286,243.536,245.786,246.686,249.377,254.489,258.638,260.888,261.788,266.288,272.948,275.198,276.098,280.876,283.414,289.129" svgx:width="0.53,0.28,0.5,0.63,0.5,0.9,0.51,0.25,0.55,0.43,0.5,0.88,0.54,0.5,0.42,0.28,0.3,0.46,0.25,0.55,0.71,0.28,0.3,0.57,0.25,0.55,0.42,0.46,0.44,0.46,0.38,0.46,0.27,0.25,0.55,0.46,0.53,0.44,0.46,0.58,0.3,0.46,0.51,0.46,0.42,0.25,0.25,0.55,0.57,0.28,0.38,0.42,0.3,0.25,0.25,0.55,0.3,0.57,0.46,0.25,0.55,0.5,0.74,0.25,0.55,0.53,0.28,0.63,0.25" style="fill:rgb(23,22,21);font-family:ScalaLF-Regular;font-size:9.0px;stroke:none;">Li–B–Mg composite with several advantages. First, the 3D LiB </text>
   <text y="671.56" x="48.191,52.061,56.606,64.553,69.395,73.94,79.07,84.299,89.087,91.759,97.007,101.741,105.89,109.283,111.955,115.744,120.316,124.465,126.868,131.018,133.708,138.253,143.482,146.156,152.51,157.622,160.16,164.029,169.141,171.814,174.352,178.141,180.814,183.352,188.581,191.255,195.044,197.581,200.272,205.402,208.076,210.982,215.527,218.921,226.868,231.017,235.805,238.478,242.591,246.461,249.152,252.941,255.614,259.727,263.516,266.189,270.302,272.975,278.087,282.632,286.421,289.112" svgx:width="0.43,0.5,0.88,0.54,0.5,0.57,0.58,0.53,0.25,0.58,0.53,0.46,0.38,0.25,0.42,0.51,0.46,0.27,0.46,0.3,0.5,0.58,0.25,0.71,0.57,0.28,0.43,0.57,0.25,0.28,0.42,0.25,0.28,0.58,0.25,0.42,0.28,0.3,0.57,0.25,0.32,0.5,0.38,0.88,0.46,0.53,0.25,0.46,0.43,0.3,0.42,0.25,0.46,0.42,0.25,0.46,0.25,0.57,0.5,0.42,0.3,0.25" style="fill:rgb(23,22,21);font-family:ScalaLF-Regular;font-size:9.0px;stroke:none;">compound fiber skeleton which is in situ formed acts as a host </text>
   <text y="682.558" x="48.191,51.098,55.643,59.036,61.286,62.735,67.514,70.052,72.302,73.751,78.593,80.996,85.109,87.8,90.338,95.567,100.13,103.811,107.6,110.291,113.684,116.222,121.064,125.906,128.444,133.673,138.236,140.486,142.736,144.185,147.974,152.519,154.769,156.218,160.007,162.545,167.108,172.337,174.875,180.122,183.992,188.105,193.334,196.025,198.275,199.724,203.702,208.247,210.65,215.78,223.727,227.876,230.126,231.575,235.553,239.666,243.059,245.597,249.71,252.401,254.939,259.484,264.713,266.963,268.412,272.282,276.827,281.957,284.36,289.148" svgx:width="0.32,0.5,0.38,0.25,0.55,0.53,0.28,0.25,0.55,0.54,0.27,0.46,0.3,0.28,0.58,0.51,0.41,0.42,0.3,0.38,0.28,0.54,0.54,0.28,0.58,0.51,0.25,0.25,0.55,0.42,0.5,0.25,0.55,0.42,0.28,0.51,0.58,0.28,0.58,0.43,0.46,0.58,0.3,0.25,0.55,0.44,0.5,0.27,0.57,0.88,0.46,0.25,0.55,0.44,0.46,0.38,0.28,0.46,0.3,0.28,0.5,0.58,0.25,0.55,0.43,0.5,0.57,0.27,0.53,0.25" style="fill:rgb(23,22,21);font-family:ScalaLF-Regular;font-size:9.0px;stroke:none;">for Li plating/stripping, so significant volume variation could </text>
   <text y="693.556" x="48.191,52.925,57.074,59.324,61.223,64.616,68.765,73.553,78.683,82.553,86.702,91.49,93.74,95.639,100.427,105.557,108.95,111.488,116.717,121.28,123.53,125.429,128.12,133.232,137.381,139.631,141.53,146.309,148.847,151.097,152.996,157.145,159.548,163.697,167.567,170.258,173.651,178.196,182.066,187.178,191.327,199.274,201.812,205.682,209.795,212.198,214.448,216.347,221.135,223.673,227.462,231.251,235.796,238.199,243.329,246.02,248.558,253.103,258.332,262.013,266.801,270.949,275.792,280.337,284.126,286.664" svgx:width="0.53,0.46,0.25,0.55,0.38,0.46,0.53,0.57,0.43,0.46,0.53,0.25,0.55,0.53,0.57,0.38,0.28,0.58,0.51,0.25,0.55,0.3,0.57,0.46,0.25,0.55,0.53,0.28,0.25,0.55,0.46,0.27,0.46,0.43,0.3,0.38,0.5,0.43,0.57,0.46,0.88,0.28,0.43,0.46,0.27,0.25,0.55,0.53,0.28,0.42,0.42,0.5,0.27,0.57,0.3,0.28,0.5,0.58,0.41,0.53,0.46,0.54,0.5,0.42,0.28,0.28" style="fill:rgb(23,22,21);font-family:ScalaLF-Regular;font-size:9.0px;stroke:none;">be reduced during the Li electrochemical dissolution/deposi-</text>
   <text y="704.554" x="48.191,50.882,53.42,57.965,63.194,65.444,66.29,71.132,74.525,79.07,82.94,87.089,90.878,94.667,96.917,99.167,100.013,105.071,109.22,113.09,117.635,122.864,127.652,129.902,132.152,132.998,135.689,140.801,144.95,147.2,148.046,151.835,156.965,161.807,165.956,169.349,171.752,174.29,176.98,182.092,184.63,189.175,194.017,199.129,201.667,204.07,206.608,210.478,212.728,213.574,217.444,221.989,227.218,232.006,237.136,241.006,243.697,246.235,250.213,254.362,256.61199999999997,257.458,261.958,268.618,270.868,271.714,275.503,280.075,284.224,286.627" svgx:width="0.3,0.28,0.5,0.58,0.25,0.55,0.54,0.38,0.5,0.43,0.46,0.42,0.42,0.25,0.25,0.55,0.56,0.46,0.43,0.5,0.58,0.53,0.25,0.25,0.55,0.3,0.57,0.46,0.25,0.55,0.42,0.57,0.54,0.46,0.38,0.27,0.28,0.3,0.57,0.28,0.5,0.54,0.57,0.28,0.27,0.28,0.43,0.25,0.55,0.43,0.5,0.58,0.53,0.57,0.43,0.3,0.28,0.44,0.46,0.25,0.55,0.5,0.74,0.25,0.55,0.42,0.51,0.46,0.27,0.28" style="fill:rgb(23,22,21);font-family:ScalaLF-Regular;font-size:9.0px;stroke:none;">tion process. Second, the superlithiophilic conductive 3D skel-</text>
   <text y="715.552" x="48.191,52.34,55.031,59.576,64.805,67.055,69.593,73.706,76.109,79.898,84.443,86.693,89.231,94.073,96.476,100.589,104.576,108.365,110.615,113.148,117.261,122.49,124.74,127.278,129.816,137.763,142.605,147.15,150.543,153.234,157.347,162.576,165.267,167.517,170.055,173.448,177.993,180.396,184.545,186.795,189.333,191.871,197.1,199.35,201.888,205.281,209.43,212.121,216.234,219.627,224.415,226.953,232.182,236.745,238.995,241.529,246.308,248.846,251.096,253.633,258.422,262.57,267.799,272.587,275.98,278.518,281.21,285.358,289.147" svgx:width="0.46,0.3,0.5,0.58,0.25,0.55,0.46,0.27,0.42,0.5,0.25,0.55,0.54,0.27,0.46,0.44,0.42,0.25,0.55,0.46,0.58,0.25,0.55,0.28,0.88,0.54,0.5,0.38,0.3,0.46,0.58,0.3,0.25,0.55,0.38,0.5,0.27,0.46,0.25,0.55,0.28,0.58,0.25,0.55,0.38,0.46,0.3,0.46,0.38,0.53,0.28,0.58,0.51,0.25,0.55,0.53,0.28,0.25,0.55,0.53,0.46,0.58,0.53,0.38,0.28,0.3,0.46,0.42,0.25" style="fill:rgb(23,22,21);font-family:ScalaLF-Regular;font-size:9.0px;stroke:none;">eton also plays an important role in retarding Li dendrites </text>
   <text y="385.549" x="303.323,307.885,311.279,315.824,322.178,324.869,329.981,332.231,334.778,339.323,345.677,348.215,353.444,358.007,360.257,362.804,365.495,370.04,372.29,374.837,377.528,382.64,386.789,389.039,391.586,394.979,399.128,403.916,409.046,412.916,417.065,421.853,424.103,426.65,429.052,433.598,437.467,441.581,443.984,446.234,448.781,452.651,457.781,461.174,464.567,468.716,473.945,476.636,478.886,481.433,486.221,490.37,495.599,499.388,501.926,504.617,508.604,510.854,513.401,517.513,522.742,527.531,529.781,532.328,535.018,540.13,544.279" svgx:width="0.51,0.38,0.5,0.71,0.3,0.57,0.25,0.55,0.5,0.71,0.28,0.58,0.51,0.25,0.55,0.3,0.5,0.25,0.55,0.3,0.57,0.46,0.25,0.55,0.38,0.46,0.53,0.57,0.43,0.46,0.53,0.25,0.55,0.27,0.5,0.43,0.46,0.27,0.25,0.55,0.43,0.57,0.38,0.38,0.46,0.58,0.3,0.25,0.55,0.53,0.46,0.58,0.42,0.28,0.3,0.44,0.25,0.55,0.46,0.58,0.53,0.25,0.55,0.3,0.57,0.46,0.25" style="fill:rgb(23,22,21);font-family:ScalaLF-Regular;font-size:9.0px;stroke:none;">growth owing to the reduced local current density and the </text>
   <text y="396.547" x="303.323,308.435,312.98,320.927,325.472,330.035,334.184,339.413,343.561,348.107,353.237,357.026,359.276,360.122,363.515,367.664,372.227,377.357,379.76,383.873,386.564,389.102,393.647,398.876,401.126,401.972,406.517,409.424,411.674,412.52,417.299" svgx:width="0.57,0.5,0.88,0.5,0.51,0.46,0.58,0.46,0.5,0.57,0.42,0.25,0.55,0.38,0.46,0.51,0.57,0.27,0.46,0.3,0.28,0.5,0.58,0.25,0.55,0.5,0.32,0.25,0.55,0.53,0.28" style="fill:rgb(23,22,21);font-family:ScalaLF-Regular;font-size:9.0px;stroke:none;">homogeneous regulation of Li</text>
   <text y="393.428" x="419.837" svgx:width="0.55" style="fill:rgb(23,22,21);font-family:Symbol;font-size:6.3px;stroke:none;">+</text>
   <text y="396.578" x="423.296,425.546,426.392,431.18,435.329,440.171,444.716,448.505,451.043,453.734,456.272,460.817,466.046,468.296,470.546,471.392,476.792,481.904,484.442,487.835,492.623,494.873,497.123,497.969,500.66,505.772,509.921,512.171,513.017,517.13,521.918,526.706,529.244,531.935,534.473,539.018,544.247" svgx:width="0.25,0.55,0.53,0.46,0.54,0.5,0.42,0.28,0.3,0.28,0.5,0.58,0.25,0.25,0.55,0.6,0.57,0.28,0.38,0.53,0.25,0.25,0.55,0.3,0.57,0.46,0.25,0.55,0.46,0.53,0.53,0.28,0.3,0.28,0.5,0.58,0.25" style="fill:rgb(23,22,21);font-family:ScalaLF-Regular;font-size:9.0px;stroke:none;"> deposition. Third, the addition </text>
   <text y="407.576" x="303.317,307.862,310.769,313.487,321.596,326.159,328.877,333.026,335.429,339.578,347.525,351.674,356.903,359.594,362.312,365.003,369.548,372.266,374.957,380.069,384.218,386.936,391.436,398.096,400.814,405.593,408.131,413.846,416.564,420.353,424.925,429.074,431.477,435.626,438.317,442.862,448.091,450.809,453.716,458.846,464.075,468.863,472.976,480.923,485.072,490.301,492.992,497.105,499.508,501.911,505.898,508.616,512.765,517.994,523.106,527.219,532.448,536.318,540.467,544.256" svgx:width="0.5,0.32,0.25,0.9,0.51,0.25,0.46,0.27,0.46,0.88,0.46,0.58,0.3,0.25,0.3,0.5,0.25,0.3,0.57,0.46,0.25,0.5,0.74,0.25,0.53,0.28,0.63,0.25,0.42,0.51,0.46,0.27,0.46,0.3,0.5,0.58,0.25,0.32,0.57,0.58,0.53,0.46,0.88,0.46,0.58,0.3,0.46,0.27,0.27,0.44,0.25,0.46,0.58,0.57,0.46,0.58,0.43,0.46,0.42,0.25" style="fill:rgb(23,22,21);font-family:ScalaLF-Regular;font-size:9.0px;stroke:none;">of Mg element to the 3D LiB skeleton fundamentally enhances </text>
   <text y="418.574" x="303.317,306.008,311.12,315.269,317.519,318.194,322.307,327.095,330.884,335.429,338.822,343.664,346.355,348.893,353.438,358.667,360.917,361.592,365.741,370.97,375.119,378.512,383.075,387.062,389.312,389.987,394.532,397.439,400.364,405.143,407.681,409.931,410.606,414.719,418.589,422.459,427.004,430.397,435.185,437.723,442.952,447.515,449.765,450.44,453.131,457.676,459.926,460.601,463.292,468.404,472.553,474.803,475.478,480.266,484.415,489.644,493.433,495.971,498.662,502.649,504.899,505.574,508.481,513.611,518.84,522.71,525.401,527.939,532.484,537.713,541.826,544.229" svgx:width="0.3,0.57,0.46,0.25,0.55,0.46,0.53,0.42,0.5,0.38,0.54,0.3,0.28,0.5,0.58,0.25,0.55,0.46,0.58,0.46,0.38,0.51,0.44,0.25,0.55,0.5,0.32,0.25,0.53,0.28,0.25,0.55,0.46,0.43,0.43,0.5,0.38,0.53,0.28,0.58,0.51,0.25,0.55,0.3,0.5,0.25,0.55,0.3,0.57,0.46,0.25,0.55,0.53,0.46,0.58,0.42,0.28,0.3,0.44,0.25,0.55,0.32,0.57,0.58,0.43,0.3,0.28,0.5,0.58,0.46,0.27,0.25" style="fill:rgb(23,22,21);font-family:ScalaLF-Regular;font-size:9.0px;stroke:none;">the adsorption energy of Li according to the density functional </text>
   <text y="429.572" x="303.317,306.008,311.12,315.269,319.814,323.207,327.194,329.444,330.502,333.283,339.943,345.082,350.482,353.263,355.513,356.569,360.439,364.552,366.955,370.825,375.955,378.358,382.471,385.162,387.7,392.245,397.474,399.724,401.974,403.032,406.38,409.071,411.321,412.378,417.49,421.603,425.392,427.642,428.699,433.433,437.582,441.731,446.96,449.21,450.267,453.66,457.809,462.651,467.197,470.59,473.281,477.43,482.217,484.467,485.525,488.216,493.328,497.441,500.132,502.382,503.44,506.131,511.243,515.392,517.642,518.698,523.477,526.015,528.796,536.905,541.468,544.249" svgx:width="0.3,0.57,0.46,0.5,0.38,0.44,0.25,0.55,0.31,0.74,0.57,0.6,0.31,0.25,0.55,0.43,0.46,0.27,0.43,0.57,0.27,0.46,0.3,0.28,0.5,0.58,0.25,0.25,0.55,0.37,0.3,0.25,0.55,0.57,0.46,0.42,0.25,0.55,0.53,0.46,0.46,0.58,0.25,0.55,0.38,0.46,0.54,0.5,0.38,0.3,0.46,0.53,0.25,0.55,0.3,0.57,0.46,0.3,0.25,0.55,0.3,0.57,0.46,0.25,0.55,0.53,0.28,0.31,0.9,0.51,0.31,0.25" style="fill:rgb(23,22,21);font-family:ScalaLF-Regular;font-size:9.0px;stroke:none;">theory (DFT) calculation. It has been reported that the Li(Mg) </text>
   <text y="440.57" x="303.317,307.43,309.833,312.236,316.781,320.768,323.018,323.878,327.748,332.293,337.423,339.826,344.614,346.864,347.722,352.951,357.496,360.187,362.437,363.297,367.842,373.071,375.474,379.461,381.711,382.57,387.412,390.805,395.35,400.138,405.268,409.138,413.287,415.537,416.397,420.51,422.76,423.619,426.022,430.567,436.921,441.07,444.463,446.713,447.573,450.111,455.34,458.031,462.18,465.573,468.48,472.593,476.463,479.001,483.114,485.517,487.767,488.626,492.019,496.168,499.957,502.495,506.284,508.975,513.088,518.317,522.187,526.336,528.586,530.836,531.694,536.428,541.558,544.249" svgx:width="0.46,0.27,0.27,0.5,0.44,0.25,0.55,0.43,0.5,0.57,0.27,0.53,0.25,0.55,0.58,0.5,0.3,0.25,0.55,0.5,0.58,0.27,0.44,0.25,0.55,0.54,0.38,0.5,0.53,0.57,0.43,0.46,0.25,0.55,0.46,0.25,0.55,0.27,0.5,0.71,0.46,0.38,0.25,0.55,0.28,0.58,0.3,0.46,0.38,0.32,0.46,0.43,0.28,0.46,0.27,0.25,0.55,0.38,0.46,0.42,0.28,0.42,0.3,0.46,0.58,0.43,0.46,0.25,0.25,0.55,0.53,0.57,0.3,0.25" style="fill:rgb(23,22,21);font-family:ScalaLF-Regular;font-size:9.0px;stroke:none;">alloy could not only produce a lower interfacial resistance, but </text>
   <text y="451.568" x="303.317,307.43,309.833,313.622,318.167,320.417,321.191,329.138,333.251,335.789,341.018,343.709,347.822,350.36,355.589,357.839,358.613,361.304,366.416,370.565,372.815,373.589,377.378,380.069,383.462,388.592,392.462,395.153,400.283,403.676,407.789,410.192,412.442,413.216,415.754,420.983,423.674,427.823,432.386,435.779,438.317,441.008,444.995,447.245,448.019,452.564,455.471,457.721,458.495,461.186,466.298,470.447,472.697,473.471,477.971,484.631,486.881,487.655,492.434,494.972,499.472,505.187,509.687,517.796,522.359,524.609,525.383,529.253,533.798,541.745" svgx:width="0.46,0.27,0.42,0.5,0.25,0.55,0.88,0.46,0.28,0.58,0.3,0.46,0.28,0.58,0.25,0.55,0.3,0.57,0.46,0.25,0.55,0.42,0.3,0.38,0.57,0.43,0.3,0.57,0.38,0.46,0.27,0.25,0.55,0.28,0.58,0.3,0.46,0.51,0.38,0.28,0.3,0.44,0.25,0.55,0.5,0.32,0.25,0.55,0.3,0.57,0.46,0.25,0.55,0.5,0.74,0.25,0.55,0.53,0.28,0.5,0.63,0.5,0.9,0.51,0.25,0.55,0.43,0.5,0.88,0.28" style="fill:rgb(23,22,21);font-family:ScalaLF-Regular;font-size:9.0px;stroke:none;">also maintain the structural integrity of the 3D Li–B–Mg com-</text>
   <text y="462.566" x="303.317,308.159,312.704,316.493,319.031,321.722,325.871,328.121,331.608,335.721,339.114,342.984,348.096,350.634,353.325,357.474,361.344,364.035,369.165,372.558,376.707" svgx:width="0.54,0.5,0.42,0.28,0.3,0.46,0.25,0.55,0.46,0.38,0.43,0.57,0.28,0.3,0.46,0.43,0.3,0.57,0.38,0.46,0.25" style="fill:rgb(23,22,21);font-family:ScalaLF-Regular;font-size:9.0px;stroke:none;">posite architecture.</text>
   <text y="459.428" x="378.96,380.535,383.685,386.835,388.41,391.56,394.71" svgx:width="0.25,0.5,0.5,0.25,0.5,0.5,0.25" style="fill:rgb(23,22,21);font-family:ScalaLF-Regular;font-size:6.3px;stroke:none;">[18,19]</text>
   <text y="462.578" x="396.285,398.535,402.022,407.422,412.534,416.683,420.076,424.225,427.132,431.677,435.07,439.219,441.469,443.719,447.206,449.897,455.009,459.158,461.408,464.896,469.675,472.213,476.713,482.428,486.928,495.037,499.6,501.85,505.336,509.206,513.751,521.698,526.54,531.085,534.874,537.412,540.103,544.252" svgx:width="0.25,0.55,0.6,0.57,0.46,0.38,0.46,0.32,0.5,0.38,0.46,0.25,0.25,0.55,0.3,0.57,0.46,0.25,0.55,0.53,0.28,0.5,0.63,0.5,0.9,0.51,0.25,0.55,0.43,0.5,0.88,0.54,0.5,0.42,0.28,0.3,0.46,0.25" style="fill:rgb(23,22,21);font-family:ScalaLF-Regular;font-size:9.0px;stroke:none;"> Therefore, the Li–B–Mg composite </text>
   <text y="473.576" x="303.324,307.113,312.225,316.77,323.124,327.273,332.061,334.311,336.723,341.511,345.66,350.889,355.677,359.07,361.608,364.299,368.448,370.923,373.83,377.223,381.372,385.521,387.771,390.183,398.13,402.675,406.068,410.91,416.022,420.567,422.97,427.515,432.078,436.065,438.315,440.727,444.84,450.069,454.857,457.107,459.519,461.922,466.071,469.86,473.649,475.899,478.311,482.289,486.834,489.237,494.367,502.314,506.463,508.713,511.125,515.103,519.216,522.609,525.147,529.26,531.951,534.489,539.034,544.263" svgx:width="0.42,0.57,0.5,0.71,0.46,0.53,0.25,0.55,0.53,0.46,0.58,0.53,0.38,0.28,0.3,0.46,0.28,0.32,0.38,0.46,0.46,0.25,0.55,0.88,0.5,0.38,0.54,0.57,0.5,0.27,0.5,0.51,0.44,0.25,0.55,0.46,0.58,0.53,0.25,0.55,0.27,0.46,0.42,0.42,0.25,0.55,0.44,0.5,0.27,0.57,0.88,0.46,0.25,0.55,0.44,0.46,0.38,0.28,0.46,0.3,0.28,0.5,0.58,0.25" style="fill:rgb(23,22,21);font-family:ScalaLF-Regular;font-size:9.0px;stroke:none;">showed dendrite-free morphology and less volume variation </text>
   <text y="484.574" x="303.324,308.112,313.242,316.635,319.173,324.402,328.965,331.215,335.175,339.909,344.022,346.713,349.404,353.553,356.946,360.933,363.183,367.143,371.013,375.0,378.87,381.273,383.811,389.04,393.603,395.853,398.103,402.063,407.463,412.575,416.724,418.974,422.934,425.841,430.971,433.374,435.777,438.027,441.987,446.721,450.834,453.525,456.216,460.365,463.758,467.745,469.995,473.955,477.825,482.37,490.317,495.159,499.704,503.493,507.642,512.43,514.68,518.64,523.185,526.092,528.342,532.302,534.993,540.105,544.254" svgx:width="0.53,0.57,0.38,0.28,0.58,0.51,0.25,0.55,0.53,0.46,0.3,0.3,0.46,0.38,0.44,0.25,0.55,0.43,0.44,0.43,0.27,0.28,0.58,0.51,0.25,0.25,0.55,0.6,0.57,0.46,0.25,0.55,0.32,0.57,0.27,0.27,0.25,0.55,0.53,0.46,0.3,0.3,0.46,0.38,0.44,0.25,0.55,0.43,0.5,0.88,0.54,0.5,0.42,0.46,0.53,0.25,0.55,0.5,0.32,0.25,0.55,0.3,0.57,0.46,0.25" style="fill:rgb(23,22,21);font-family:ScalaLF-Regular;font-size:9.0px;stroke:none;">during battery cycling. The full battery composed of the </text>
   <text y="495.572" x="303.324,308.103,310.641,315.141,320.856,325.356,333.465,338.028,340.278,342.195,346.065,350.61,358.557,363.399,367.944,371.733,374.271,376.962,381.111,383.361,385.278,389.391,394.62,399.165,403.953,408.102,410.352,412.269,416.382,421.611,426.399,428.649,430.566,435.345,437.883,443.886,448.431" svgx:width="0.53,0.28,0.5,0.63,0.5,0.9,0.51,0.25,0.55,0.43,0.5,0.88,0.54,0.5,0.42,0.28,0.3,0.46,0.25,0.55,0.46,0.58,0.5,0.53,0.46,0.25,0.55,0.46,0.58,0.53,0.25,0.55,0.53,0.28,0.67,0.5,0.74" style="fill:rgb(23,22,21);font-family:ScalaLF-Regular;font-size:9.0px;stroke:none;">Li–B–Mg composite anode and LiCoO</text>
   <text y="497.378" x="455.11" svgx:width="0.5" style="fill:rgb(23,22,21);font-family:ScalaLF-Regular;font-size:6.3px;stroke:none;">2</text>
   <text y="495.578" x="458.26,460.51,462.427,466.297,470.41,473.101,478.213,482.758,487.546,491.695,493.945,495.862,500.704,504.853,508.246,511.153,515.698,519.091,527.038,531.187,535.975,538.225,540.142,544.255" svgx:width="0.25,0.55,0.43,0.46,0.3,0.57,0.5,0.53,0.46,0.25,0.55,0.54,0.46,0.38,0.32,0.5,0.38,0.88,0.46,0.53,0.25,0.55,0.46,0.25" style="fill:rgb(23,22,21);font-family:ScalaLF-Regular;font-size:9.0px;stroke:none;"> cathode performed a </text>
   <text y="506.576" x="303.325,305.728,310.273,315.502,320.065,324.214,327.607,329.857,331.081,334.951,338.938,342.808,345.211,349.36,351.61,352.834,355.237,357.775,360.682,364.831,368.62,373.462,377.575,382.804,385.054,386.278,388.969,394.081,398.194,403.423,405.673,406.892,409.583,414.695,418.808,421.499,423.749,424.973,429.518,432.425,434.675,435.899,438.59,443.702,447.851,450.101,451.325,456.167,461.297,464.69,468.839,471.089,472.313,477.092,479.63,481.88,483.104,491.051,495.2,497.891,502.004,504.407,506.657,508.907,510.131,513.479,516.17,518.42,519.644,522.182,525.971,528.221,529.445,533.558,535.961,539.75,544.295" svgx:width="0.27,0.5,0.58,0.51,0.46,0.38,0.25,0.55,0.43,0.44,0.43,0.27,0.46,0.25,0.55,0.27,0.28,0.32,0.46,0.42,0.54,0.46,0.58,0.25,0.55,0.3,0.57,0.46,0.58,0.25,0.55,0.3,0.57,0.46,0.3,0.25,0.55,0.5,0.32,0.25,0.55,0.3,0.57,0.46,0.25,0.55,0.54,0.57,0.38,0.46,0.25,0.55,0.53,0.28,0.25,0.55,0.88,0.46,0.3,0.46,0.27,0.25,0.25,0.55,0.37,0.3,0.25,0.55,0.28,0.42,0.25,0.55,0.46,0.27,0.42,0.5,0.25" style="fill:rgb(23,22,21);font-family:ScalaLF-Regular;font-size:9.0px;stroke:none;">longer cycle lifespan than that of the pure Li metal. It is also </text>
   <text y="517.574" x="303.325,309.679,314.224,317.617,320.308,325.42,328.061,336.008,340.157,345.386,348.077,350.615,355.16,360.389,362.927,368.156,372.719,375.36,378.051,383.163,387.276,389.967,392.609,395.012,399.125,402.518,407.081,411.23,413.705,417.494,421.364,425.477,427.88,432.029,434.669,437.576,441.689,446.423,449.816,452.354,456.224,460.337,463.028,465.566,470.111,475.34,477.981,482.526,485.433,488.074,492.853,495.391,499.891,505.606,510.106,518.215,522.778,525.419,529.289,533.834,541.781" svgx:width="0.71,0.5,0.38,0.3,0.57,0.25,0.88,0.46,0.58,0.3,0.28,0.5,0.58,0.28,0.58,0.51,0.25,0.3,0.57,0.46,0.3,0.25,0.27,0.46,0.38,0.51,0.46,0.28,0.42,0.43,0.46,0.27,0.46,0.25,0.32,0.46,0.53,0.38,0.28,0.43,0.46,0.3,0.28,0.5,0.58,0.25,0.5,0.32,0.25,0.53,0.28,0.5,0.63,0.5,0.9,0.51,0.25,0.43,0.5,0.88,0.28" style="fill:rgb(23,22,21);font-family:ScalaLF-Regular;font-size:9.0px;stroke:none;">worth mentioning that large-scale fabrication of Li–B–Mg com-</text>
   <text y="528.572" x="303.325,308.167,312.712,316.501,319.039,321.73,325.879,328.129,330.01,336.364,338.902,341.593,346.705,348.955,350.836,354.949,357.199,359.075,361.766,365.879,368.417,370.82,375.366,378.759,382.908,387.695,389.945,391.827,395.616,398.307,401.7,406.83,410.7,413.391,418.521,421.914,426.063,428.313,430.194,434.064,438.177,443.406,445.656,447.537,452.271,456.42,458.67,460.551,464.664,468.534,473.646,476.184,480.333,484.311,488.46,493.248,495.498,497.748,499.624,504.466,507.859,512.404,516.382,518.92,523.708,526.246,531.475,536.038,538.288,540.169,544.282" svgx:width="0.54,0.5,0.42,0.28,0.3,0.46,0.25,0.55,0.71,0.28,0.3,0.57,0.25,0.55,0.46,0.25,0.55,0.3,0.46,0.28,0.27,0.5,0.38,0.46,0.53,0.25,0.55,0.42,0.3,0.38,0.57,0.43,0.3,0.57,0.38,0.46,0.25,0.55,0.43,0.46,0.58,0.25,0.55,0.53,0.46,0.25,0.55,0.46,0.43,0.57,0.28,0.46,0.44,0.46,0.53,0.25,0.25,0.55,0.54,0.38,0.5,0.44,0.28,0.53,0.28,0.58,0.51,0.25,0.55,0.46,0.25" style="fill:rgb(23,22,21);font-family:ScalaLF-Regular;font-size:9.0px;stroke:none;">posite with a tailored structure can be achieved, providing a </text>
   <text y="539.57" x="303.325,306.232,310.345,314.323,318.868,322.261,326.374,331.108,333.511,337.66,340.135,343.924,349.054,353.896,358.738,363.283,366.676,369.367,371.842,374.749,379.294,382.687,385.162,387.7,390.391,394.18,396.655,401.497,406.042,408.733,412.882,418.111,420.802,423.34,427.453,429.856,432.331,434.869,440.098,444.886,450.016,453.805,456.496,459.889,462.427,466.54,468.943,471.481,475.702,479.815,482.506,485.044,489.589,494.818" svgx:width="0.32,0.46,0.44,0.5,0.38,0.46,0.53,0.27,0.46,0.25,0.42,0.57,0.54,0.54,0.5,0.38,0.3,0.25,0.32,0.5,0.38,0.25,0.28,0.3,0.42,0.25,0.54,0.5,0.3,0.46,0.58,0.3,0.28,0.46,0.27,0.25,0.28,0.58,0.53,0.57,0.42,0.3,0.38,0.28,0.46,0.27,0.28,0.47,0.46,0.3,0.28,0.5,0.58,0.25" style="fill:rgb(23,22,21);font-family:ScalaLF-Regular;font-size:9.0px;stroke:none;">favorable support for its potential industrialization.</text>
   <text y="576.578" x="303.32,309.07,311.957,315.119,321.835,327.217,332.358,338.625,341.374,344.927,350.068,353.23,358.704,364.972,371.078,374.241,382.417,385.258,390.398,395.504,401.772,406.912,412.053,414.893,420.827" svgx:width="0.5,0.25,0.25,0.58,0.47,0.45,0.55,0.24,0.31,0.45,0.25,0.48,0.55,0.53,0.25,0.71,0.25,0.45,0.44,0.55,0.45,0.45,0.25,0.52,0.55" style="fill:rgb(23,22,21);font-family:ScalaSansLF-Bold;font-size:11.5px;stroke:none;">2. Results and Discussion</text>
   <text y="594.578" x="303.32,307.82,310.079,314.579,316.838,319.313,324.758,329.663,333.947,336.98,341.264,345.26,348.041,352.253,355.286,357.509,361.532,364.313,366.536,370.532,374.555,377.03,381.674,384.266,386.741,391.196,393.419,397.919,403.238,407.738,415.64,420.203,422.678,427.899,432.543,440.031,444.873,449.517,453.54,455.763,458.544" svgx:width="0.5,0.25,0.5,0.25,0.25,0.61,0.55,0.48,0.34,0.48,0.44,0.31,0.47,0.34,0.25,0.45,0.31,0.25,0.44,0.45,0.25,0.52,0.29,0.25,0.5,0.25,0.5,0.59,0.5,0.88,0.51,0.25,0.61,0.52,0.83,0.54,0.52,0.45,0.25,0.31,0.47" style="fill:rgb(23,22,21);font-family:ScalaSansLF-Bold;font-size:9.0px;stroke:none;">2.1. Characteristics of Li–B–Mg Composite</text>
   <text y="616.574" x="303.32,308.72,313.832,317.981,320.231,323.498,327.287,331.157,336.269,340.418,348.365,352.478,355.169,357.707,361.577,363.827,367.094,371.882,374.42,378.533,383.096,386.489,390.602,398.549,400.799,404.066" svgx:width="0.6,0.57,0.46,0.25,0.55,0.42,0.43,0.57,0.46,0.88,0.46,0.3,0.28,0.43,0.25,0.55,0.53,0.28,0.46,0.51,0.38,0.46,0.88,0.25,0.55,0.31" style="fill:rgb(23,22,21);font-family:ScalaLF-Regular;font-size:9.0px;stroke:none;">The schematic diagram (</text>
   <text y="616.574" x="406.847,411.715,414.253,418.816,423.946,427.339" svgx:width="0.57,0.28,0.51,0.57,0.38,0.46" style="fill:rgb(23,22,21);font-family:ScalaLF-Bold;font-size:9.0px;stroke:none;">Figure</text>
   <text y="616.574" x="431.488" svgx:width="0.25" style="fill:rgb(23,22,21);font-family:ScalaLF-Regular;font-size:9.0px;stroke:none;"> </text>
   <text y="616.574" x="436.988" svgx:width="0.5" style="fill:rgb(23,22,21);font-family:ScalaLF-Bold;font-size:9.0px;stroke:none;">1</text>
   <text y="616.574" x="441.488,445.601,448.382,450.632,453.899,458.687,462.836,467.678,470.216,474.086,476.777,480.566,482.816,486.083,488.774,493.886,498.035,500.285,503.552,508.394,511.787,516.332,520.202,524.351,528.14,531.929,534.467,539.696,544.259" svgx:width="0.46,0.31,0.25,0.55,0.53,0.46,0.54,0.28,0.43,0.3,0.42,0.25,0.55,0.3,0.57,0.46,0.25,0.55,0.54,0.38,0.5,0.43,0.46,0.42,0.42,0.28,0.58,0.51,0.25" style="fill:rgb(23,22,21);font-family:ScalaLF-Regular;font-size:9.0px;stroke:none;">a) depicts the processing </text>
   <text y="627.572" x="303.32,307.19,311.735,316.865,320.258,324.047,328.196,330.446,331.58,336.125,339.032,341.282,342.416,345.107,350.219,354.368,356.618,357.752,362.531,365.069,369.569,375.284,379.784,387.893,392.456,394.706,395.84,399.71,404.255,412.202,417.044,421.589,425.378,427.916,430.607,434.756,437.006,438.14,442.253,446.042,448.292,449.426,455.78,459.929,462.332,464.735,466.985,468.119,472.232,476.021,478.271,479.405,482.096,487.208,491.357,493.607,494.741,499.52,502.058,504.308,505.442,509.591,511.994,516.143,520.013,522.704,526.097,530.642,535.43,537.968,541.757" svgx:width="0.43,0.5,0.57,0.38,0.42,0.46,0.25,0.55,0.5,0.32,0.25,0.55,0.3,0.57,0.46,0.25,0.55,0.53,0.28,0.5,0.63,0.5,0.9,0.51,0.25,0.55,0.43,0.5,0.88,0.54,0.5,0.42,0.28,0.3,0.46,0.25,0.55,0.46,0.42,0.25,0.55,0.71,0.46,0.27,0.27,0.25,0.55,0.46,0.42,0.25,0.55,0.3,0.57,0.46,0.25,0.55,0.53,0.28,0.25,0.55,0.46,0.27,0.46,0.43,0.3,0.38,0.5,0.53,0.28,0.42,0.28" style="fill:rgb(23,22,21);font-family:ScalaLF-Regular;font-size:9.0px;stroke:none;">course of the Li–B–Mg composite as well as the Li electrodis-</text>
   <text y="638.57" x="303.32,307.109,311.654,314.057,319.187,321.878,324.416,328.961,334.19,337.871,342.02,344.423,348.572,352.442,355.133,358.526,363.071,367.859,372.008,376.85,381.395,385.184,387.722,390.413,392.951,397.496,402.725,404.975,410.765,415.499,419.648,424.76,428.873,432.851,435.389,439.934,443.327,445.577,451.369,456.157,461.287,464.68,467.218,472.447,477.01,479.26,485.051,489.2,491.603,495.752,499.622,502.313,505.706,510.251,514.121,519.233,523.382,531.329,533.867,537.737,541.85,544.253" svgx:width="0.42,0.5,0.27,0.57,0.3,0.28,0.5,0.58,0.41,0.46,0.27,0.46,0.43,0.3,0.38,0.5,0.53,0.46,0.54,0.5,0.42,0.28,0.3,0.28,0.5,0.58,0.25,0.55,0.53,0.46,0.57,0.46,0.44,0.28,0.5,0.38,0.25,0.55,0.53,0.57,0.38,0.28,0.58,0.51,0.25,0.55,0.46,0.27,0.46,0.43,0.3,0.38,0.5,0.43,0.57,0.46,0.88,0.28,0.43,0.46,0.27,0.25" style="fill:rgb(23,22,21);font-family:ScalaLF-Regular;font-size:9.0px;stroke:none;">solution/electrodeposition behavior during electrochemical </text>
   <text y="649.568" x="303.32,307.19,311.177,315.047,317.45,319.988,325.217,329.78,332.03,334.28,335.522,340.391,342.929,347.492,352.622,356.015,360.164,362.414,363.656,368.156,372.89,375.14,376.382,380.171,384.041,389.153,393.302,401.249,405.362,408.053,410.591,414.461,418.574,420.977,423.38,427.367,429.617,430.859,434.648,439.76,444.305,450.659,454.448,456.698,457.94,460.631,465.743,469.892,472.142,473.384,477.533,479.936,484.085,487.955,490.646,494.039,498.584,503.372,505.91,509.699,513.488,518.033,520.436,525.566,528.257,530.795,535.34,540.569,544.25" svgx:width="0.43,0.44,0.43,0.27,0.28,0.58,0.51,0.25,0.25,0.55,0.57,0.28,0.51,0.57,0.38,0.46,0.25,0.55,0.5,0.53,0.25,0.55,0.42,0.43,0.57,0.46,0.88,0.46,0.3,0.28,0.43,0.46,0.27,0.27,0.44,0.25,0.55,0.42,0.57,0.5,0.71,0.42,0.25,0.55,0.3,0.57,0.46,0.25,0.55,0.46,0.27,0.46,0.43,0.3,0.38,0.5,0.53,0.28,0.42,0.42,0.5,0.27,0.57,0.3,0.28,0.5,0.58,0.41,0.25" style="fill:rgb(23,22,21);font-family:ScalaLF-Regular;font-size:9.0px;stroke:none;">cycling. Figure 1b schematically shows the electrodissolution/ </text>
   <text y="660.566" x="303.32,307.469,309.872,314.021,317.891,320.582,323.975,328.52,333.308,337.457,342.299,346.844,350.633,353.171,355.862,358.4,362.945,368.174,370.424,372.575,377.309,381.458,386.57,390.683,394.661,397.199,401.744,405.137,407.387,409.538,414.083,416.99,419.24,421.391,426.233,431.363,434.756,438.905,441.155,443.306,448.085,450.623,452.873,455.024,459.812,464.942,468.335,470.873,476.102,480.665,482.915,485.066,489.215,491.618,495.767,499.637,502.328,505.721,510.266,514.136,519.248,523.397,531.344,533.882,537.752,541.865,544.268" svgx:width="0.46,0.27,0.46,0.43,0.3,0.38,0.5,0.53,0.46,0.54,0.5,0.42,0.28,0.3,0.28,0.5,0.58,0.25,0.55,0.53,0.46,0.57,0.46,0.44,0.28,0.5,0.38,0.25,0.55,0.5,0.32,0.25,0.55,0.54,0.57,0.38,0.46,0.25,0.55,0.53,0.28,0.25,0.55,0.53,0.57,0.38,0.28,0.58,0.51,0.25,0.55,0.46,0.27,0.46,0.43,0.3,0.38,0.5,0.43,0.57,0.46,0.88,0.28,0.43,0.46,0.27,0.25" style="fill:rgb(23,22,21);font-family:ScalaLF-Regular;font-size:9.0px;stroke:none;">electrodeposition behavior of pure Li during electrochemical </text>
   <text y="671.564" x="303.32,307.19,311.177,315.047,317.45,319.988,325.217,329.78,332.03,334.28,335.9,340.527,343.92,348.465,356.412,358.662,360.282,365.151,367.689,372.252,377.382,380.775,384.924,387.174,388.794,393.294,397.407,399.657,401.277,403.815,406.506,408.756,410.376,414.246,418.359,423.588,425.838,427.458,432.192,436.341,438.591,440.211,445.44,449.985,452.676,456.825,461.613,463.863,465.483,468.174,473.286,477.399,480.09,482.34,483.96,486.651,491.763,495.912,498.162,499.782,503.571,507.558,512.787,515.478,520.59,524.739,528.528,531.066,535.287,539.436,544.224" svgx:width="0.43,0.44,0.43,0.27,0.28,0.58,0.51,0.25,0.25,0.55,0.57,0.38,0.5,0.88,0.25,0.55,0.57,0.28,0.51,0.57,0.38,0.46,0.25,0.55,0.5,0.46,0.25,0.55,0.28,0.3,0.25,0.55,0.43,0.46,0.58,0.25,0.55,0.53,0.46,0.25,0.55,0.58,0.5,0.3,0.46,0.53,0.25,0.55,0.3,0.57,0.46,0.3,0.25,0.55,0.3,0.57,0.46,0.25,0.55,0.42,0.44,0.58,0.3,0.57,0.46,0.42,0.28,0.47,0.46,0.53,0.25" style="fill:rgb(23,22,21);font-family:ScalaLF-Regular;font-size:9.0px;stroke:none;">cycling. From Figure 1a it can be noted that the synthesized </text>
   <text y="682.562" x="303.32,307.19,311.735,319.682,324.524,329.069,332.858,335.396,338.087,342.236,345.116,347.654,352.883,357.446,361.991,364.682,367.562,370.1,373.889,376.769,384.716,388.829,391.367,396.596,398.999,402.986,405.866,409.736,414.281,422.228,427.07,431.615,435.404,439.553,444.341,447.221,451.766,454.673,457.553,460.947,465.06,470.289,475.077,479.622,487.569,489.971,493.958,496.839,501.384,504.777,507.315,511.464,516.693,519.383,523.532,528.32,531.201,535.979,538.518,544.233" svgx:width="0.43,0.5,0.88,0.54,0.5,0.42,0.28,0.3,0.46,0.25,0.28,0.58,0.51,0.5,0.3,0.25,0.28,0.42,0.25,0.88,0.46,0.28,0.58,0.27,0.44,0.25,0.43,0.5,0.88,0.54,0.5,0.42,0.46,0.53,0.25,0.5,0.32,0.25,0.38,0.46,0.58,0.53,0.5,0.88,0.27,0.44,0.25,0.5,0.38,0.28,0.46,0.58,0.3,0.46,0.53,0.25,0.53,0.28,0.63,0.25" style="fill:rgb(23,22,21);font-family:ScalaLF-Regular;font-size:9.0px;stroke:none;">composite ingot is mainly composed of randomly oriented LiB </text>
   <text y="693.56" x="303.32,308.567,313.301,317.45,320.843,323.534,327.323,331.895,336.044,338.447,342.596,345.287,349.832,355.061,357.752,360.443,365.555,369.668,372.359,375.05,377.588,381.377,384.068,386.606,391.835,394.526,398.315,400.853,403.544,408.674,411.365,414.272,418.818,422.211,430.158,434.306,439.094,441.785,445.898,451.128,455.915,458.607,461.514,464.907,469.056,473.204,475.896,480.674,483.212,485.904,488.685,496.794,501.357,504.048,507.837,512.382,514.785,519.915,524.649,527.187,529.59,532.128,536.349,540.498,544.287" svgx:width="0.58,0.53,0.46,0.38,0.25,0.42,0.51,0.46,0.27,0.46,0.3,0.5,0.58,0.25,0.3,0.57,0.46,0.3,0.25,0.28,0.42,0.25,0.28,0.58,0.25,0.42,0.28,0.3,0.57,0.25,0.32,0.5,0.38,0.88,0.46,0.53,0.25,0.46,0.58,0.53,0.25,0.32,0.38,0.46,0.46,0.25,0.53,0.28,0.25,0.31,0.9,0.51,0.25,0.42,0.5,0.27,0.57,0.53,0.28,0.27,0.28,0.47,0.46,0.42,0.25" style="fill:rgb(23,22,21);font-family:ScalaLF-Regular;font-size:9.0px;stroke:none;">fiber skeleton that is in situ formed and free Li (Mg solubilizes </text>
   <text y="704.558" x="303.32,305.858,311.087,313.337,314.057,318.836,321.374,323.624,324.344,329.186,334.298,338.411,342.2,346.349,348.599,350.849,351.569,359.516,363.629,367.022,371.594,375.743,380.531,382.781,383.501,387.614,391.403,393.653,394.373,399.152,401.69,404.471,412.58,417.143,419.924,422.705,424.955,427.205,427.925,433.325,438.437,442.586,444.836,445.556,449.426,453.971,461.918,466.76,471.305,475.094,477.632,480.323,484.472,486.722,487.442,489.98,495.209,499.772,504.317,507.008,509.258,509.978,515.09,519.203,522.992,525.242,525.962,530.696,534.845,538.994,544.223" svgx:width="0.28,0.58,0.25,0.55,0.53,0.28,0.25,0.55,0.54,0.57,0.46,0.42,0.46,0.25,0.25,0.55,0.88,0.46,0.38,0.51,0.46,0.53,0.25,0.55,0.46,0.42,0.25,0.55,0.53,0.28,0.31,0.9,0.51,0.31,0.31,0.25,0.25,0.55,0.6,0.57,0.46,0.25,0.55,0.43,0.5,0.88,0.54,0.5,0.42,0.28,0.3,0.46,0.25,0.55,0.28,0.58,0.51,0.5,0.3,0.25,0.55,0.57,0.46,0.42,0.25,0.55,0.53,0.46,0.46,0.58,0.25" style="fill:rgb(23,22,21);font-family:ScalaLF-Regular;font-size:9.0px;stroke:none;">in Li phase, marked as Li(Mg)). The composite ingot has been </text>
   <text y="715.556" x="303.32,308.108,312.257,317.486,321.275,323.813,329.06,333.209,337.997,340.787,344.9,347.763,350.454,354.603,357.996,360.786,364.179,368.724,371.127,373.53,376.068,381.297,385.86,388.65,392.763,397.992,402.78,405.57,408.261,413.373,417.522,420.312,425.1,429.249,434.478,438.267,440.805,443.496,447.483,450.273,454.818,457.725,460.515,463.206,468.318,472.467,475.257,479.127,483.672,491.619,496.461,501.006,504.795,507.333,510.024,514.173,516.963,521.805,524.208,528.321,531.012,535.161,537.951,540.489,544.278" svgx:width="0.53,0.46,0.58,0.42,0.28,0.58,0.46,0.53,0.25,0.46,0.32,0.3,0.46,0.38,0.25,0.38,0.5,0.27,0.27,0.28,0.58,0.51,0.25,0.46,0.58,0.53,0.25,0.3,0.57,0.46,0.25,0.53,0.46,0.58,0.42,0.28,0.3,0.44,0.25,0.5,0.32,0.25,0.3,0.57,0.46,0.25,0.43,0.5,0.88,0.54,0.5,0.42,0.28,0.3,0.46,0.25,0.54,0.27,0.46,0.3,0.46,0.25,0.28,0.42,0.25" style="fill:rgb(23,22,21);font-family:ScalaLF-Regular;font-size:9.0px;stroke:none;">densified after rolling and the density of the composite plate is </text>
   <text y="747.016" x="48.199,52.364,55.808,58.208" svgx:width="0.6,0.49,0.41,0.25" style="fill:rgb(23,22,21);font-family:ScalaSansLF-Italic;font-size:7.0px;stroke:none;">Adv.</text>
   <text y="747.016" x="59.965" svgx:width="0.25" style="fill:rgb(23,22,21);font-family:ScalaSansLF-Regular;font-size:7.0px;stroke:none;"> </text>
   <text y="747.016" x="61.891,65.629,68.387,70.011" svgx:width="0.53,0.39,0.23,0.25" style="fill:rgb(23,22,21);font-family:ScalaSansLF-Italic;font-size:7.0px;stroke:none;">Sci.</text>
   <text y="747.016" x="71.768" svgx:width="0.25" style="fill:rgb(23,22,21);font-family:ScalaSansLF-Regular;font-size:7.0px;stroke:none;"> </text>
   <text y="747.016" x="73.693,77.193,80.693,84.193" svgx:width="0.5,0.5,0.5,0.5" style="fill:rgb(23,22,21);font-family:ScalaSansLF-Bold;font-size:7.0px;stroke:none;">2020</text>
   <text y="747.016" x="87.693,89.457" svgx:width="0.25,0.25" style="fill:rgb(23,22,21);font-family:ScalaSansLF-Regular;font-size:7.0px;stroke:none;">, </text>
   <text y="747.016" x="91.382" svgx:width="0.5" style="fill:rgb(23,22,21);font-family:ScalaSansLF-Italic;font-size:7.0px;stroke:none;">7</text>
   <text y="747.016" x="94.882,96.646,98.571,102.064,105.564,109.064,112.564,116.064,119.564" svgx:width="0.25,0.25,0.5,0.5,0.5,0.5,0.5,0.5,0.5" style="fill:rgb(23,22,21);font-family:ScalaSansLF-Regular;font-size:7.0px;stroke:none;">, 1902643</text>
  </g>
  <rect style="stroke:blue;stroke-width:0.3;" x="116.225" y="88.508" height="268.92" width="360.0" title="2"/>
  <text y="88.508" class="image" id="image.2.1" width="360" height="268" x="116.225">image.2.1.116_476.89_357</text>
  <g begin="text">
   <text y="354.246" x="48.189,52.365,54.341,58.397,62.757,65.453,69.197,71.405,75.405" svgx:width="0.52,0.25,0.51,0.55,0.34,0.47,0.25,0.5,0.25" style="fill:rgb(23,22,21);font-family:ScalaSansLF-Bold;font-size:8.0px;stroke:none;">Figure 1.</text>
   <text y="354.246" x="77.413,79.413,81.413,85.221,88.125,90.333,94.645,98.933,102.685,104.893,108.469,112.021,116.309,120.061,126.837,130.645,133.117,135.093,138.645,140.853,145.165,147.141,150.949,155.005,157.701,161.509,168.285,170.493,172.749,177.013,179.709,181.917,184.389,188.677,192.429,194.637,196.893,200.701,204.917,207.613,209.589,213.141,216.949,219.421,221.397,225.661,230.021,232.229,235.781,240.045,244.373,247.069,250.645,254.397,256.605,260.413,264.773,269.085,271.293,273.765,278.053,281.805,284.013,287.973,289.949,292.157,295.909,297.821,301.573,305.125,307.597,310.293,314.557,318.869,320.845,324.421,327.997,332.261,334.173,338.501,340.973,342.949,347.213,351.573,354.845,358.597,360.509,364.261,367.813,370.285,372.981,377.245,381.557,385.309,389.653,393.917,397.493,399.469,401.941,403.917,408.181,412.541,414.749,419.093,421.789,426.053,429.605,433.357,436.933,440.509,442.717,446.981,449.237,451.445,455.405,457.381,461.381,466.109,470.109,477.133,481.189,483.397,486.949,491.213,497.989,502.333,506.597,510.173,512.149,514.621,518.373,520.381,522.589,526.805,529.709,531.917,536.229,540.517,544.269" svgx:width="0.25,0.55,0.48,0.36,0.25,0.54,0.54,0.47,0.25,0.45,0.44,0.54,0.47,0.85,0.48,0.31,0.25,0.44,0.25,0.54,0.25,0.48,0.51,0.34,0.48,0.85,0.25,0.28,0.53,0.34,0.25,0.31,0.54,0.47,0.25,0.28,0.48,0.53,0.34,0.25,0.44,0.48,0.31,0.25,0.53,0.55,0.25,0.44,0.53,0.54,0.34,0.45,0.47,0.25,0.48,0.55,0.54,0.25,0.31,0.54,0.47,0.25,0.5,0.25,0.25,0.47,0.24,0.47,0.44,0.31,0.34,0.53,0.54,0.25,0.45,0.45,0.53,0.24,0.54,0.31,0.25,0.53,0.55,0.41,0.47,0.24,0.47,0.44,0.31,0.34,0.53,0.54,0.47,0.54,0.53,0.45,0.25,0.31,0.25,0.53,0.55,0.25,0.54,0.34,0.53,0.44,0.47,0.45,0.45,0.25,0.53,0.28,0.25,0.5,0.25,0.5,0.59,0.5,0.88,0.51,0.25,0.44,0.53,0.85,0.54,0.53,0.45,0.25,0.31,0.47,0.25,0.25,0.53,0.36,0.25,0.54,0.54,0.47,0.25" style="fill:rgb(23,22,21);font-family:ScalaSansLF-Regular;font-size:8.0px;stroke:none;"> a) The schematic diagram for the fabrication course and the Li electrodissolution/electrodeposition process of Li–B–Mg composite. b) The </text>
   <text y="363.742" x="48.189,52.149,54.125,56.325,60.077,61.989,65.741,69.293,71.765,74.461,78.725,83.037,85.013,88.589,92.165,96.429,98.341,102.669,105.141,107.117,111.381,115.741,119.013,122.765,124.677,128.429,131.981,134.453,137.149,141.413,145.725,149.477,153.821,158.085,161.661,163.637,166.109,168.085,172.349,176.709,178.909,183.253,185.949,190.213,193.765,197.517,201.093,204.669,206.869,211.133,213.389,215.589,219.933,224.261,226.957,230.709,232.909,236.869,238.845,241.045,243.301,247.565,249.541,251.453" svgx:width="0.5,0.25,0.25,0.47,0.24,0.47,0.44,0.31,0.34,0.53,0.54,0.25,0.45,0.45,0.53,0.24,0.54,0.31,0.25,0.53,0.55,0.41,0.47,0.24,0.47,0.44,0.31,0.34,0.53,0.54,0.47,0.54,0.53,0.45,0.25,0.31,0.25,0.53,0.55,0.25,0.54,0.34,0.53,0.44,0.47,0.45,0.45,0.25,0.53,0.28,0.25,0.54,0.54,0.34,0.47,0.25,0.5,0.25,0.25,0.28,0.53,0.25,0.24,0.25" style="fill:rgb(23,22,21);font-family:ScalaSansLF-Regular;font-size:8.0px;stroke:none;">Li electrodissolution/electrodeposition process of pure Li foil.</text>
  </g>
 </g>
</svg>
