<?xml version="1.0" encoding="UTF-8"?>
<svg height="779.252" width="530.3585" xmlns="http://www.w3.org/2000/svg">
 <g id="page" xmlns:svgx="http://www.xml-cml.org/schema/svgx">
  <g begin="text">
   <text y="62.979" x="76.535,84.059,87.598,90.252,93.352,96.452,98.668,102.207,104.422" svgx:width="0.94,0.44,0.33,0.39,0.39,0.28,0.44,0.28,0.39" style="fill:rgb(0,0,0);font-family:URWPalladioL-Ital;font-size:7.97px;stroke:none;">Materials</text>
   <text y="62.979" x="109.515,113.5,117.485,121.47" svgx:width="0.5,0.5,0.5,0.5" style="fill:rgb(0,0,0);font-family:URWPalladioL-Bold;font-size:7.97px;stroke:none;">2017</text>
   <text y="62.979" x="125.455" svgx:width="0.25" style="fill:rgb(0,0,0);font-family:URWPalladioL-Roma;font-size:7.97px;stroke:none;">,</text>
   <text y="62.979" x="129.44,133.425" svgx:width="0.5,0.5" style="fill:rgb(0,0,0);font-family:URWPalladioL-Ital;font-size:7.97px;stroke:none;">10</text>
   <text y="62.979" x="137.41,139.4025,141.395,145.38,149.365,153.35000000000002,499.779,503.764,505.757,510.108,512.7381,514.755" svgx:width="0.25,0.55,0.5,0.5,0.5,0.55,0.5,0.55,0.55,0.33,0.55,0.5" style="fill:rgb(0,0,0);font-family:URWPalladioL-Roma;font-size:7.97px;stroke:none;">, 420 8 of 9</text>
   <text y="97.848" x="76.535,81.018,83.26050000000001,98.05,103.616,106.267,110.631,115.668,120.032,123.63,131.674,136.229,141.531,146.833,149.0755,151.343,158.922,161.2,163.4425,165.718,172.669,176.267,180.822,186.124,190.679,198.723,200.96550000000002,203.232,209.691,211.9335,214.21,219.712,223.147,228.121,233.687,239.18,243.225,246.195,248.846,253.82,259.0226,261.353,266.327,269.2871,271.602,276.157,284.201,289.175,292.773,298.239,303.541,308.515,314.008,317.7754,320.112,324.667,327.318,329.969,334.943,339.96619999999996,342.24,345.838,348.489,353.527,358.565,363.539,368.841,372.6084,374.935,379.49,384.792,390.2637,392.599,396.963,399.832,402.866,407.23,411.274,414.244,418.01140000000004,420.339,425.313,428.2731,430.578,435.133,440.608,446.083,450.638,454.236,458.791,461.761,467.254,471.0214,473.358,478.833,483.388,486.986,491.541,499.585,503.949,506.919,511.282,514.881" svgx:width="0.5,0.25,0.55,0.61,0.29,0.48,0.55,0.48,0.4,0.88,0.5,0.58,0.58,0.25,0.55,0.83,0.25,0.25,0.55,0.76,0.4,0.5,0.58,0.5,0.88,0.25,0.55,0.71,0.25,0.55,0.6,0.4,0.55,0.61,0.6,0.44,0.33,0.29,0.55,0.58,0.55,0.55,0.33,0.55,0.5,0.88,0.55,0.4,0.6,0.58,0.55,0.6,0.42,0.55,0.5,0.29,0.29,0.55,0.56,0.55,0.4,0.29,0.55,0.55,0.55,0.58,0.42,0.55,0.5,0.58,0.61,0.55,0.48,0.33,0.33,0.48,0.44,0.33,0.42,0.55,0.55,0.33,0.55,0.5,0.6,0.6,0.5,0.4,0.5,0.33,0.6,0.42,0.55,0.6,0.5,0.4,0.5,0.88,0.48,0.33,0.48,0.4,0.42" style="fill:rgb(0,0,0);font-family:URWPalladioL-Roma;font-size:8.97px;stroke:none;">5. Liebermann, H.; Graham, C. Production of amorphous alloy ribbons and effects of apparatus parameters</text>
   <text y="110.76" x="98.05,103.044,108.2466,112.034,115.646,118.308,123.365,128.423,133.417,138.6196,142.407,147.995,150.656,158.732,163.113,168.436,172.313,174.975,179.968,185.291,189.169,191.41150000000002,198.507,201.589,206.7916,210.57,216.094,219.551,224.545,228.605,232.986,237.367,242.955,245.616,250.939,256.024,259.7914,263.569,268.563,271.5231,275.267,278.248,283.571,287.87660000000005,291.619,294.701,300.29,305.878,311.3497,315.133,319.935,323.547,328.12,333.443,337.321,341.893,345.954,348.936,351.597,356.591,361.913,365.6804,369.45,374.443,379.6456,383.433,392.085,396.658,401.743,407.066,411.447,414.428,417.09,421.15,425.028,427.2705,431.339,438.939,443.32,450.7651,454.615,459.882,464.876,468.489,473.574,475.8165,479.884,487.484,492.588,494.83050000000003,498.541,505.657,510.458,517.574" svgx:width="0.55,0.58,0.55,0.4,0.29,0.55,0.55,0.55,0.58,0.55,0.61,0.29,0.88,0.48,0.58,0.42,0.29,0.55,0.58,0.42,0.25,0.55,0.34,0.58,0.55,0.6,0.4,0.55,0.44,0.48,0.48,0.61,0.29,0.58,0.56,0.42,0.55,0.55,0.33,0.55,0.33,0.58,0.48,0.55,0.34,0.61,0.61,0.61,0.55,0.61,0.4,0.5,0.58,0.42,0.5,0.44,0.33,0.29,0.55,0.58,0.42,0.55,0.55,0.58,0.55,0.95,0.5,0.56,0.58,0.48,0.33,0.29,0.44,0.42,0.25,0.55,0.83,0.48,0.83,0.55,0.67,0.55,0.4,0.56,0.25,0.55,0.83,0.67,0.25,0.55,0.78,0.52,0.78,0.25" style="fill:rgb(0,0,0);font-family:URWPalladioL-Roma;font-size:8.97px;stroke:none;">on ribbon dimensions. In Proceedings of the IEEE Transactions on Magnetics, New York, NY, USA,</text>
   <text y="123.672" x="98.05,102.535,104.775,107.761,112.244,117.462,122.869,127.352,130.894,135.9172,138.121,142.604,147.087,151.57,156.054,158.2965,160.537,166.015,170.911,173.52,178.927,186.844,191.1496,193.381,197.864,202.347,204.58950000000002,206.83,212.219,217.608,219.8505,222.091,226.574,231.058,235.541,240.024,244.507,248.99,253.474" svgx:width="0.5,0.55,0.33,0.5,0.58,0.6,0.5,0.4,0.56,0.55,0.5,0.5,0.5,0.5,0.25,0.55,0.72,0.55,0.29,0.6,0.88,0.48,0.55,0.5,0.5,0.25,0.55,0.6,0.6,0.25,0.55,0.5,0.5,0.5,0.5,0.5,0.5,0.5,0.25" style="fill:rgb(0,0,0);font-family:URWPalladioL-Roma;font-size:8.97px;stroke:none;">6 January 1976; Volume 12, pp. 921–923.</text>
   <text y="136.583" x="76.535,81.018,83.26050000000001,98.05,101.096,106.089,111.412,116.735,120.613,125.606,130.929,133.1715,136.005,144.318,146.605,152.193,154.43550000000002,157.269,162.857,168.372,171.033,176.0562,178.898,185.876,188.538,193.111,196.989,200.866,203.912,208.997,213.99,217.603,225.679,228.34,233.663,238.6862,241.537,250.189,254.57,257.552,262.124,264.786,267.447,270.109,274.0558,276.95,284.065,286.726,289.388,294.381,299.466,303.344,305.5865,309.499,314.301,318.361,321.023,325.404,330.727,334.787,339.0926,341.948,346.521,351.844,357.3157,360.221,365.005,369.385,373.446,378.769,384.092,389.085,391.747,396.74,401.825,405.914" svgx:width="0.5,0.25,0.55,0.33,0.55,0.58,0.58,0.42,0.55,0.58,0.25,0.55,1.0,0.25,0.61,0.25,0.55,0.61,0.6,0.29,0.56,0.55,0.76,0.29,0.5,0.42,0.42,0.33,0.56,0.55,0.4,0.88,0.29,0.58,0.56,0.55,0.95,0.48,0.33,0.5,0.29,0.29,0.29,0.44,0.55,0.78,0.29,0.29,0.55,0.56,0.42,0.25,0.55,0.52,0.44,0.29,0.48,0.58,0.44,0.48,0.55,0.5,0.58,0.61,0.55,0.61,0.48,0.44,0.58,0.58,0.55,0.29,0.55,0.56,0.56,0.25" style="fill:rgb(0,0,0);font-family:URWPalladioL-Roma;font-size:8.97px;stroke:none;">6. Johnson, W.L. Bulk Glass-Forming Metallic Alloys: Science and Technology.</text>
   <text y="136.583" x="412.608,421.242,427.342,432.36519999999996,435.207,440.795,445.88,448.423,450.965" svgx:width="0.94,0.67,0.56,0.55,0.61,0.56,0.28,0.28,0.25" style="fill:rgb(0,0,0);font-family:URWPalladioL-Ital;font-size:8.97px;stroke:none;">MRS Bull.</text>
   <text y="136.583" x="457.666,462.149,466.632,471.116" svgx:width="0.5,0.5,0.5,0.5" style="fill:rgb(0,0,0);font-family:URWPalladioL-Bold;font-size:8.97px;stroke:none;">1999</text>
   <text y="136.583" x="475.598" svgx:width="0.25" style="fill:rgb(0,0,0);font-family:URWPalladioL-Roma;font-size:8.97px;stroke:none;">,</text>
   <text y="136.583" x="480.806,485.379" svgx:width="0.5,0.5" style="fill:rgb(0,0,0);font-family:URWPalladioL-Ital;font-size:8.97px;stroke:none;">24</text>
   <text y="136.583" x="489.951,492.19350000000003,495.155,499.728,504.301,508.874,513.446,518.019" svgx:width="0.25,0.55,0.5,0.5,0.5,0.5,0.5,0.25" style="fill:rgb(0,0,0);font-family:URWPalladioL-Roma;font-size:8.97px;stroke:none;">, 42–56.</text>
   <text y="149.495" x="98.05" svgx:width="0.33" style="fill:rgb(0,0,0);font-family:URWPalladioL-Roma;font-size:8.97px;stroke:none;">[</text>
   <text y="149.495" x="101.036,107.393,110.773,115.669,119.471,123.272,129.262,133.557" svgx:width="0.71,0.4,0.55,0.42,0.42,0.67,0.48,0.33" style="fill:rgb(0,0,255);font-family:URWPalladioL-Roma;font-size:8.97px;stroke:none;">CrossRef</text>
   <text y="149.495" x="136.543" svgx:width="0.33" style="fill:rgb(0,0,0);font-family:URWPalladioL-Roma;font-size:8.97px;stroke:none;">]</text>
   <text y="162.406" x="76.535,81.018,83.26050000000001,98.05,105.165,110.287,112.948,118.536,123.109,125.3515,127.883,132.685,134.971,142.571,144.858,147.1005,149.76,154.561,159.884,164.457,169.78,172.0225,174.554,180.142,182.429,190.038,192.324,194.56650000000002,197.217,204.817,209.39,214.713,219.094,222.048,224.2905,226.822,231.623,233.91,236.1525,238.803,244.391,248.003,252.576,257.634,262.207,266.78,271.773,277.096,279.3385,281.87,288.949,291.1915,293.723,299.832,304.405,309.902,312.563,318.0347,320.639,325.44,330.434,333.095,335.757,341.345,344.006,349.539,353.6,358.173,361.154,363.816,368.809,374.01160000000004,376.62,382.144,385.601,390.595,394.655,399.036,402.914,406.792,409.453,414.776,419.7992,422.348,426.921,432.244,437.7157,440.32,445.908,451.423,454.084,459.1072,461.657,470.309,474.689,477.671,482.244,484.905,487.567,490.228,494.1748,496.776,503.755,506.416,510.989,514.867" svgx:width="0.5,0.25,0.55,0.78,0.56,0.29,0.61,0.5,0.25,0.55,0.52,0.25,0.83,0.25,0.25,0.55,0.52,0.58,0.5,0.58,0.25,0.55,0.61,0.25,0.83,0.25,0.25,0.55,0.83,0.5,0.58,0.48,0.4,0.25,0.55,0.52,0.25,0.25,0.55,0.61,0.4,0.5,0.55,0.5,0.5,0.55,0.58,0.25,0.55,0.77,0.25,0.55,0.67,0.5,0.6,0.29,0.61,0.55,0.52,0.55,0.29,0.29,0.61,0.29,0.61,0.44,0.5,0.33,0.29,0.55,0.58,0.55,0.6,0.4,0.55,0.44,0.48,0.42,0.42,0.29,0.58,0.56,0.55,0.5,0.58,0.61,0.55,0.61,0.6,0.29,0.56,0.55,0.95,0.48,0.33,0.5,0.29,0.29,0.29,0.44,0.55,0.76,0.29,0.5,0.42,0.42" style="fill:rgb(0,0,0);font-family:URWPalladioL-Roma;font-size:8.97px;stroke:none;">7. Aqida, S.N.; Shah, L.H.; Naher, S.; Brabazon, D. Rapid Solidiﬁcation Processing and Bulk Metallic Glass</text>
   <text y="175.318" x="98.05,104.407,108.89,112.692,115.615,118.224,123.443,128.428,130.6705,133.449,136.471" svgx:width="0.71,0.5,0.42,0.33,0.29,0.58,0.56,0.25,0.55,0.34,0.58" style="fill:rgb(0,0,0);font-family:URWPalladioL-Roma;font-size:8.97px;stroke:none;">Casting. In</text>
   <text y="175.318" x="143.931,149.912,153.893,160.869,165.352,168.678,172.166,176.649,180.137,185.123,188.611,191.103,195.586,199.0843,201.316,209.78,213.761,216.747,220.235,223.723,226.216,230.197,232.689,236.1873,238.419,243.897,247.224,251.205,254.854,258.342,261.83,265.318,267.811,272.796" svgx:width="0.67,0.44,0.78,0.5,0.39,0.39,0.5,0.39,0.56,0.39,0.28,0.5,0.39,0.55,0.94,0.44,0.33,0.39,0.39,0.28,0.44,0.28,0.39,0.55,0.61,0.39,0.44,0.41,0.39,0.39,0.39,0.28,0.56,0.5" style="fill:rgb(0,0,0);font-family:URWPalladioL-Ital;font-size:8.97px;stroke:none;">Comprehensive Materials Processing</text>
   <text y="175.318" x="277.277,279.5195,281.76,289.22,293.703,297.505,302.724,310.641,313.25,315.4925,317.733,322.441,324.682,326.9245,329.166,334.644,340.123,342.364,344.6065,346.847,352.326,354.935,358.737,363.032,368.098,370.707,375.002,378.544,380.7865,383.565,388.272,390.881,396.1,401.085,405.568,410.957,415.853,419.233,423.528,425.7705,428.011,432.494,436.978,441.461,445.944,448.1865,450.427,455.816,461.205,463.4475,465.688,470.171,474.654,479.138,483.621,488.104" svgx:width="0.25,0.55,0.83,0.5,0.42,0.58,0.88,0.29,0.25,0.55,0.52,0.25,0.25,0.55,0.61,0.61,0.25,0.25,0.55,0.61,0.29,0.42,0.48,0.56,0.29,0.48,0.4,0.25,0.55,0.52,0.29,0.58,0.56,0.5,0.6,0.55,0.4,0.48,0.25,0.55,0.5,0.5,0.5,0.5,0.25,0.55,0.6,0.6,0.25,0.55,0.5,0.5,0.5,0.5,0.5,0.25" style="fill:rgb(0,0,0);font-family:URWPalladioL-Roma;font-size:8.97px;stroke:none;">; Hashmi, S., Ed.; Elsevier: Singapore, 2014; pp. 69–88.</text>
   <text y="188.23" x="76.535,81.018,83.26050000000001,98.05,105.644,111.148,115.712,121.025,126.1,128.3425,130.609,135.401,137.683,144.155,146.436,148.6785,150.955,156.03,158.686,163.058,168.635,171.291,175.664,178.603,180.84550000000002,183.121,190.715,192.997,199.469,201.7115,203.978,211.08,219.139,224.123,227.729,233.214,238.527,243.511,249.015,252.7824,255.121,258.727,261.383,266.43,271.478,276.462,281.6646,284.001,287.041,292.025,295.63,303.69,308.254,311.23,313.886,319.08860000000004,321.425,325.989,331.302,336.7737,339.115,342.091,347.403,351.70860000000005,354.002,358.375,361.25,364.289,368.662,372.714,375.69,379.4574,381.797,386.78,389.7401,392.047,396.1,400.664,404.534,407.51,410.166,415.478,420.5012,422.78,427.938,432.31,434.966,439.95,444.002,446.659,449.634,453.714" svgx:width="0.5,0.25,0.55,0.83,0.6,0.5,0.58,0.56,0.25,0.55,0.52,0.25,0.71,0.25,0.25,0.55,0.56,0.29,0.48,0.61,0.29,0.48,0.4,0.25,0.55,0.83,0.25,0.71,0.25,0.55,0.78,0.88,0.55,0.4,0.6,0.58,0.55,0.6,0.42,0.55,0.4,0.29,0.55,0.55,0.55,0.58,0.55,0.33,0.55,0.4,0.88,0.5,0.33,0.29,0.58,0.55,0.5,0.58,0.61,0.55,0.33,0.58,0.48,0.55,0.48,0.33,0.33,0.48,0.44,0.33,0.42,0.55,0.55,0.33,0.55,0.44,0.5,0.42,0.33,0.29,0.58,0.56,0.55,0.56,0.48,0.29,0.55,0.44,0.29,0.33,0.56,0.25" style="fill:rgb(0,0,0);font-family:URWPalladioL-Roma;font-size:8.97px;stroke:none;">8. Huang, S.C.; Fiedler, H.C. Amorphous ribbon formatin and the effects of casting velocity.</text>
   <text y="188.23" x="458.774,467.391,471.443,474.483,478.034,480.918,483.1605,485.975,491.05,494.765,497.302,499.5445,502.359,507.936,513.011,517.575" svgx:width="0.94,0.44,0.33,0.39,0.39,0.25,0.55,0.56,0.41,0.28,0.25,0.55,0.61,0.56,0.5,0.25" style="fill:rgb(0,0,0);font-family:URWPalladioL-Ital;font-size:8.97px;stroke:none;">Mater. Sci. Eng.</text>
   <text y="201.141" x="97.602,102.085,106.568,111.052" svgx:width="0.5,0.5,0.5,0.5" style="fill:rgb(0,0,0);font-family:URWPalladioL-Bold;font-size:8.97px;stroke:none;">1981</text>
   <text y="201.141" x="115.535" svgx:width="0.25" style="fill:rgb(0,0,0);font-family:URWPalladioL-Roma;font-size:8.97px;stroke:none;">,</text>
   <text y="201.141" x="120.018,124.501" svgx:width="0.5,0.5" style="fill:rgb(0,0,0);font-family:URWPalladioL-Ital;font-size:8.97px;stroke:none;">51</text>
   <text y="201.141" x="128.984,131.22650000000002,133.467,137.95,142.434,146.917,151.4,155.883,158.12550000000002,160.904" svgx:width="0.25,0.55,0.5,0.5,0.5,0.5,0.5,0.25,0.55,0.33" style="fill:rgb(0,0,0);font-family:URWPalladioL-Roma;font-size:8.97px;stroke:none;">, 39–46. [</text>
   <text y="201.141" x="163.89,170.247,173.628,178.523,182.325,186.127,192.116,196.411" svgx:width="0.71,0.4,0.55,0.42,0.42,0.67,0.48,0.33" style="fill:rgb(0,0,255);font-family:URWPalladioL-Roma;font-size:8.97px;stroke:none;">CrossRef</text>
   <text y="201.141" x="199.397" svgx:width="0.33" style="fill:rgb(0,0,0);font-family:URWPalladioL-Roma;font-size:8.97px;stroke:none;">]</text>
   <text y="214.053" x="76.535,81.018,83.26050000000001,98.05,104.458,108.977,112.547,117.979,122.308,127.569,130.515,134.844,137.755,139.9975,142.237,145.247,147.507,149.7495,151.999,156.744,159.69,164.019,168.349,173.609,175.85150000000002,178.092,182.394,184.6365,186.877,192.336,194.966,199.485,204.745,209.264,212.672,215.681,221.177,226.111,233.5561,235.882,239.714,245.146,247.776,253.036,256.046,260.059,264.578,268.41,271.356,273.986,279.247,284.2702,286.495,291.43,294.3901,296.663,304.644,309.579,312.209,315.155,319.484,324.6866,326.968,334.949,339.278,342.224,346.743,349.373,353.206,355.4485,358.24,363.699,367.106,372.041,376.054,380.383,384.215,387.9824,390.271,395.269,399.598,404.858,409.378,414.484,417.114,422.049,427.499,430.409" svgx:width="0.5,0.25,0.55,0.71,0.5,0.4,0.6,0.48,0.58,0.33,0.48,0.4,0.25,0.55,0.33,0.25,0.25,0.55,0.52,0.33,0.48,0.48,0.58,0.25,0.55,0.6,0.25,0.55,0.6,0.29,0.5,0.58,0.5,0.4,0.33,0.61,0.55,0.83,0.55,0.42,0.6,0.29,0.58,0.33,0.44,0.5,0.42,0.33,0.29,0.58,0.56,0.55,0.55,0.33,0.55,0.88,0.55,0.29,0.33,0.48,0.58,0.55,0.88,0.48,0.33,0.5,0.29,0.42,0.25,0.55,0.6,0.4,0.55,0.44,0.48,0.42,0.42,0.55,0.55,0.48,0.58,0.5,0.56,0.29,0.55,0.6,0.4,0.25" style="fill:rgb(0,0,0);font-family:URWPalladioL-Roma;font-size:8.97px;stroke:none;">9. Carpenter, J.; Steen, P. Planar-ﬂow spin-casting of molten metals: Process behaviour.</text>
   <text y="214.053" x="435.441,438.451,440.69350000000003,442.934,451.466,455.479,458.488,462.004,464.86,467.1025,469.894,474.92,478.598,481.111" svgx:width="0.33,0.25,0.55,0.94,0.44,0.33,0.39,0.39,0.25,0.55,0.56,0.41,0.28,0.25" style="fill:rgb(0,0,0);font-family:URWPalladioL-Ital;font-size:8.97px;stroke:none;">J. Mater. Sci.</text>
   <text y="214.053" x="486.142,490.625,495.108,499.592" svgx:width="0.5,0.5,0.5,0.5" style="fill:rgb(0,0,0);font-family:URWPalladioL-Bold;font-size:8.97px;stroke:none;">1992</text>
   <text y="214.053" x="504.075" svgx:width="0.25" style="fill:rgb(0,0,0);font-family:URWPalladioL-Roma;font-size:8.97px;stroke:none;">,</text>
   <text y="214.053" x="508.563,513.082" svgx:width="0.5,0.5" style="fill:rgb(0,0,0);font-family:URWPalladioL-Ital;font-size:8.97px;stroke:none;">27</text>
   <text y="214.053" x="517.602" svgx:width="0.25" style="fill:rgb(0,0,0);font-family:URWPalladioL-Roma;font-size:8.97px;stroke:none;">,</text>
   <text y="226.964" x="98.05,102.533,107.016,111.5,115.983,120.466,124.949,129.432,131.6745,134.454" svgx:width="0.5,0.5,0.5,0.5,0.5,0.5,0.5,0.25,0.55,0.33" style="fill:rgb(0,0,0);font-family:URWPalladioL-Roma;font-size:8.97px;stroke:none;">215–225. [</text>
   <text y="226.964" x="137.439,143.797,147.177,152.073,155.874,159.676,165.666,169.961" svgx:width="0.71,0.4,0.55,0.42,0.42,0.67,0.48,0.33" style="fill:rgb(0,0,255);font-family:URWPalladioL-Roma;font-size:8.97px;stroke:none;">CrossRef</text>
   <text y="226.964" x="172.946" svgx:width="0.33" style="fill:rgb(0,0,0);font-family:URWPalladioL-Roma;font-size:8.97px;stroke:none;">]</text>
   <text y="239.876" x="76.535,81.018,85.501,87.74350000000001,98.05,106.532,109.144,111.755,117.239,121.539,123.78150000000001,126.035,130.298,132.542,139.489,141.733,143.9755,146.23,154.72,159.208,162.134,165.06,170.284,175.274,179.08,181.32250000000002,183.567,189.051,191.295,195.46,197.70250000000001,199.956,205.44,210.072,215.466,219.765,223.31,225.922,233.847,238.146,243.37,246.296,250.784,253.3853,255.648,258.26,263.484,268.555,272.854,276.66,279.577,282.189,287.179,291.667,294.592,297.204,302.105,307.30760000000004,309.581,314.482,317.44210000000004,319.723,322.649,327.873,332.1786,334.416,339.81,342.422,346.91,352.133,356.621,360.209,362.419,367.876,372.777,380.2221,382.506,386.491,390.979,394.784,397.71,400.322,405.546,410.56919999999997,412.789,418.183,421.567,426.467,430.452,434.752,438.557,442.363,444.6055,447.398,454.345,458.644,463.715,468.014,470.626,475.527,480.921,488.846,493.145,498.369,501.32910000000004,503.548,508.035,513.259" svgx:width="0.5,0.5,0.25,0.55,1.0,0.29,0.29,0.61,0.48,0.25,0.55,0.6,0.25,0.77,0.25,0.25,0.55,0.95,0.5,0.33,0.33,0.58,0.56,0.42,0.25,0.55,0.61,0.25,0.56,0.25,0.55,0.61,0.52,0.6,0.48,0.4,0.29,0.88,0.48,0.58,0.33,0.5,0.29,0.55,0.29,0.58,0.56,0.48,0.42,0.33,0.29,0.56,0.5,0.33,0.29,0.55,0.58,0.55,0.55,0.33,0.55,0.33,0.58,0.48,0.55,0.6,0.29,0.5,0.58,0.5,0.4,0.55,0.61,0.55,0.83,0.55,0.44,0.5,0.42,0.33,0.29,0.58,0.56,0.55,0.6,0.4,0.55,0.44,0.48,0.42,0.42,0.25,0.55,0.77,0.48,0.56,0.48,0.29,0.55,0.6,0.88,0.48,0.58,0.33,0.55,0.5,0.58,0.61" style="fill:rgb(0,0,0);font-family:URWPalladioL-Roma;font-size:8.97px;stroke:none;">10. Wilde, P.D.; Matthys, E.F. Experimental investigation of the planar ﬂow casting process: Development and</text>
   <text y="252.788" x="98.05,101.036,104.416,108.711,113.0166,115.248,119.049,124.456,127.998,130.984,135.467,139.448,143.7536,145.984,149.965,155.184,159.667,163.209,167.692,171.673,174.596,178.891,182.433,185.042,188.844,191.767,194.376,198.357,202.1244,204.4,209.296,212.2561,214.524,217.447,222.665,226.9706,229.202,233.003,237.899,240.508,243.117,248.596,251.205,256.63,260.611,265.094,268.017,270.626,275.522,280.7246,282.982,288.371,293.778,299.256,304.735,307.344,311.639" svgx:width="0.33,0.4,0.48,0.48,0.55,0.42,0.6,0.4,0.33,0.5,0.44,0.48,0.55,0.44,0.58,0.5,0.4,0.5,0.44,0.33,0.48,0.4,0.29,0.42,0.33,0.29,0.44,0.42,0.55,0.55,0.33,0.55,0.33,0.58,0.48,0.55,0.42,0.55,0.29,0.29,0.61,0.29,0.61,0.44,0.5,0.33,0.29,0.55,0.58,0.55,0.6,0.6,0.61,0.61,0.29,0.48,0.25" style="fill:rgb(0,0,0);font-family:URWPalladioL-Roma;font-size:8.97px;stroke:none;">free surface characteristics of the solidiﬁcation puddle.</text>
   <text y="252.788" x="316.657,325.121,329.102,332.088,335.576,338.4,340.6425,343.422,348.407,352.056,354.549,356.7915,359.57,365.049,370.034,374.517,376.7595,379.538" svgx:width="0.94,0.44,0.33,0.39,0.39,0.25,0.55,0.56,0.41,0.28,0.25,0.55,0.61,0.56,0.5,0.25,0.55,0.72" style="fill:rgb(0,0,0);font-family:URWPalladioL-Ital;font-size:8.97px;stroke:none;">Mater. Sci. Eng. A</text>
   <text y="252.788" x="388.253,392.736,397.219,401.703" svgx:width="0.5,0.5,0.5,0.5" style="fill:rgb(0,0,0);font-family:URWPalladioL-Bold;font-size:8.97px;stroke:none;">1992</text>
   <text y="252.788" x="406.185" svgx:width="0.25" style="fill:rgb(0,0,0);font-family:URWPalladioL-Roma;font-size:8.97px;stroke:none;">,</text>
   <text y="252.788" x="410.669,415.152,419.635" svgx:width="0.5,0.5,0.5" style="fill:rgb(0,0,0);font-family:URWPalladioL-Ital;font-size:8.97px;stroke:none;">150</text>
   <text y="252.788" x="424.118,426.3605,428.601,433.084,437.568,442.051,446.534,451.017,455.5,459.984,462.2265,465.005" svgx:width="0.25,0.55,0.5,0.5,0.5,0.5,0.5,0.5,0.5,0.25,0.55,0.33" style="fill:rgb(0,0,0);font-family:URWPalladioL-Roma;font-size:8.97px;stroke:none;">, 237–247. [</text>
   <text y="252.788" x="467.991,474.348,477.728,482.624,486.426,490.227,496.217,500.512" svgx:width="0.71,0.4,0.55,0.42,0.42,0.67,0.48,0.33" style="fill:rgb(0,0,255);font-family:URWPalladioL-Roma;font-size:8.97px;stroke:none;">CrossRef</text>
   <text y="252.788" x="503.498" svgx:width="0.33" style="fill:rgb(0,0,0);font-family:URWPalladioL-Roma;font-size:8.97px;stroke:none;">]</text>
   <text y="265.699" x="76.535,81.018,85.501,87.74350000000001,98.05,102.814,107.768,113.049,116.634,121.171,126.188,128.829,131.07150000000001,133.348,138.112,140.38,142.6225,144.899,151.959,155.543,160.08,165.098,167.738,169.9805,172.248,179.798,182.066,184.3085,186.585,192.129,196.476,199.116,202.074,207.029,209.669,212.31,216.847,222.128,224.768,227.0105,229.287,236.347,238.615,240.85750000000002,243.134,250.058,255.339,260.293,262.934,267.471,275.483,278.123,283.577,288.531,294.003,296.916,299.1585,301.435,307.496,309.7385,312.015,317.495,320.136,324.673,329.954,334.491,338.079,340.317,345.362,348.002,352.957,360.4021,362.775,369.208,373.745,377.593,380.551,383.191,388.472,393.49519999999995,395.768,400.722,403.6821,405.985,411.03" svgx:width="0.5,0.5,0.25,0.55,0.52,0.55,0.58,0.4,0.5,0.55,0.29,0.25,0.55,0.52,0.25,0.25,0.55,0.78,0.4,0.5,0.55,0.29,0.25,0.55,0.83,0.25,0.25,0.55,0.61,0.48,0.29,0.33,0.55,0.29,0.29,0.5,0.58,0.29,0.25,0.55,0.78,0.25,0.25,0.55,0.76,0.58,0.55,0.29,0.5,0.88,0.29,0.6,0.55,0.6,0.4,0.25,0.55,0.67,0.25,0.55,0.6,0.29,0.5,0.58,0.5,0.4,0.55,0.56,0.29,0.55,0.83,0.55,0.71,0.5,0.42,0.33,0.29,0.58,0.56,0.55,0.55,0.33,0.55,0.56,0.48" style="fill:rgb(0,0,0);font-family:URWPalladioL-Roma;font-size:8.97px;stroke:none;">11. Sohrabi, S.; Arabi, H.; Beitollahi, A.; Gholamipour, R. Planar Flow Casting of Fe</text>
   <text y="267.448" x="415.378,418.865" svgx:width="0.5,0.5" style="fill:rgb(0,0,0);font-family:URWPalladioL-Roma;font-size:6.97px;stroke:none;">71</text>
   <text y="265.699" x="422.85,427.614" svgx:width="0.52,0.29" style="fill:rgb(0,0,0);font-family:URWPalladioL-Roma;font-size:8.97px;stroke:none;">Si</text>
   <text y="267.448" x="430.254,433.741,437.228,438.971" svgx:width="0.5,0.5,0.25,0.5" style="fill:rgb(0,0,0);font-family:URWPalladioL-Roma;font-size:6.97px;stroke:none;">13.5</text>
   <text y="265.699" x="442.956" svgx:width="0.61" style="fill:rgb(0,0,0);font-family:URWPalladioL-Roma;font-size:8.97px;stroke:none;">B</text>
   <text y="267.448" x="448.501" svgx:width="0.5" style="fill:rgb(0,0,0);font-family:URWPalladioL-Roma;font-size:6.97px;stroke:none;">9</text>
   <text y="265.699" x="452.486,460.026" svgx:width="0.83,0.55" style="fill:rgb(0,0,0);font-family:URWPalladioL-Roma;font-size:8.97px;stroke:none;">Nb</text>
   <text y="267.448" x="465.044" svgx:width="0.5" style="fill:rgb(0,0,0);font-family:URWPalladioL-Roma;font-size:6.97px;stroke:none;">3</text>
   <text y="265.699" x="469.029,475.462" svgx:width="0.71,0.6" style="fill:rgb(0,0,0);font-family:URWPalladioL-Roma;font-size:8.97px;stroke:none;">Cu</text>
   <text y="267.448" x="480.934" svgx:width="0.5" style="fill:rgb(0,0,0);font-family:URWPalladioL-Roma;font-size:6.97px;stroke:none;">1</text>
   <text y="265.699" x="484.919,491.979" svgx:width="0.78,0.29" style="fill:rgb(0,0,0);font-family:URWPalladioL-Roma;font-size:8.97px;stroke:none;">Al</text>
   <text y="267.448" x="494.619,498.106,499.849" svgx:width="0.5,0.25,0.5" style="fill:rgb(0,0,0);font-family:URWPalladioL-Roma;font-size:6.97px;stroke:none;">1.5</text>
   <text y="265.699" x="503.834,510.757" svgx:width="0.76,0.48" style="fill:rgb(0,0,0);font-family:URWPalladioL-Roma;font-size:8.97px;stroke:none;">Ge</text>
   <text y="267.448" x="515.104" svgx:width="0.5" style="fill:rgb(0,0,0);font-family:URWPalladioL-Roma;font-size:6.97px;stroke:none;">1</text>
   <text y="278.611" x="98.051,104.041,106.65,111.608,116.567,121.462,126.681,130.482" svgx:width="0.67,0.29,0.55,0.55,0.55,0.58,0.42,0.25" style="fill:rgb(0,0,0);font-family:URWPalladioL-Roma;font-size:8.97px;stroke:none;">Ribbons.</text>
   <text y="278.611" x="135.503,138.489,140.7315,142.972,151.436,155.417,158.403,161.891,164.716,166.95850000000002,169.737,175.215,180.201,184.684,186.9265,189.705,195.183,198.671,202.159,204.652,208.633,212.121,219.097" svgx:width="0.33,0.25,0.55,0.94,0.44,0.33,0.39,0.39,0.25,0.55,0.61,0.56,0.5,0.25,0.55,0.61,0.39,0.39,0.28,0.44,0.39,0.78,0.25" style="fill:rgb(0,0,0);font-family:URWPalladioL-Ital;font-size:8.97px;stroke:none;">J. Mater. Eng. Perform.</text>
   <text y="278.611" x="224.116,228.599,233.082,237.566" svgx:width="0.5,0.5,0.5,0.5" style="fill:rgb(0,0,0);font-family:URWPalladioL-Bold;font-size:8.97px;stroke:none;">2013</text>
   <text y="278.611" x="242.049" svgx:width="0.25" style="fill:rgb(0,0,0);font-family:URWPalladioL-Roma;font-size:8.97px;stroke:none;">,</text>
   <text y="278.611" x="246.532,251.015" svgx:width="0.5,0.5" style="fill:rgb(0,0,0);font-family:URWPalladioL-Ital;font-size:8.97px;stroke:none;">22</text>
   <text y="278.611" x="255.498,257.7405,259.981,264.464,268.948,273.431,277.914,282.397,286.88,291.364,295.847,300.33,302.5725,305.351" svgx:width="0.25,0.55,0.5,0.5,0.5,0.5,0.5,0.5,0.5,0.5,0.5,0.25,0.55,0.33" style="fill:rgb(0,0,0);font-family:URWPalladioL-Roma;font-size:8.97px;stroke:none;">, 2185–2190. [</text>
   <text y="278.611" x="308.337,314.694,318.075,322.97,326.772,330.574,336.563,340.858" svgx:width="0.71,0.4,0.55,0.42,0.42,0.67,0.48,0.33" style="fill:rgb(0,0,255);font-family:URWPalladioL-Roma;font-size:8.97px;stroke:none;">CrossRef</text>
   <text y="278.611" x="343.844" svgx:width="0.33" style="fill:rgb(0,0,0);font-family:URWPalladioL-Roma;font-size:8.97px;stroke:none;">]</text>
   <text y="291.522" x="76.535,81.018,85.501,87.74350000000001,98.054,106.537,110.831,113.755,118.74,121.349,125.832,129.634,136.332,138.5745,141.353,147.504,152.57,157.053,159.654,162.263,166.746,171.704,174.314,178.6196,180.85,185.746,190.964,193.573,196.183,201.401,205.696" svgx:width="0.5,0.5,0.25,0.55,0.95,0.48,0.33,0.56,0.29,0.5,0.42,0.75,0.25,0.55,0.78,0.56,0.5,0.29,0.29,0.5,0.55,0.29,0.48,0.55,0.55,0.58,0.29,0.29,0.58,0.48,0.25" style="fill:rgb(0,0,0);font-family:URWPalladioL-Roma;font-size:8.97px;stroke:none;">12. Metglas®. Avaliable online:</text>
   <text y="291.522" x="210.717,215.936,218.859,221.782,227.171,229.412,234.846,240.279,247.757,255.235,261.888,264.13,272.047,276.342,279.265,284.251,286.86,291.343,295.145,297.386,301.368,306.263,314.181" svgx:width="0.58,0.33,0.33,0.6,0.25,0.61,0.61,0.83,0.83,0.83,0.25,0.88,0.48,0.33,0.56,0.29,0.5,0.42,0.25,0.44,0.55,0.88,0.61" style="fill:rgb(0,0,255);font-family:URWPalladioL-Roma;font-size:8.97px;stroke:none;">http://www.metglas.com/</text>
   <text y="291.522" x="321.856,324.842,329.325,333.306,337.287,341.582,345.384,349.185,353.48,358.9517,361.2,366.096,371.2986,373.556,378.039,382.524,384.764,391.812,395.793,398.716,403.611,408.57,412.865,416.45300000000003,418.648,423.131,427.614,432.098,436.581,439.567" svgx:width="0.33,0.5,0.44,0.44,0.48,0.42,0.42,0.48,0.61,0.55,0.55,0.58,0.55,0.5,0.5,0.55,0.79,0.44,0.33,0.55,0.55,0.48,0.4,0.55,0.5,0.5,0.5,0.5,0.33,0.25" style="fill:rgb(0,0,0);font-family:URWPalladioL-Roma;font-size:8.97px;stroke:none;">(accessed on 25 October 2016).</text>
   <text y="304.434" x="76.535,81.018,85.501,87.74350000000001,98.05,103.357,106.828,111.222,113.779,117.505,122.619,126.828,129.631,131.8735,133.945,138.664,140.861,143.787,145.983,148.2255,150.342,156.572,161.686,165.895,171.009,173.2515,175.315,178.241,180.438,185.051,187.248,189.4905,191.606,196.184,199.91,204.119,209.233,214.118,216.3605,218.424,225.26,227.457,234.294,236.53650000000002,238.608,245.444,250.64659999999998,252.667,256.876,261.41,266.691,270.901,274.371,276.928,284.687,288.896,294.01,296.875,301.269,303.8703,305.943,309.669,312.534,317.832,323.192,328.2152,330.196,334.993,337.9531,340.028,345.309,348.622,353.42,357.321,361.53,365.256,369.0234,371.099,375.959,380.159,385.273,389.666,394.631,397.188,401.986,405.574,407.574,410.132,415.3346,417.354,422.636,425.193,429.586,434.7,439.094,442.682,444.682,450.025,454.823,464.26,472.019,476.228,478.785,481.74510000000004,483.767,487.493,492.774,495.331,500.445,505.559,508.116,513.23,518.116" svgx:width="0.5,0.5,0.25,0.55,0.6,0.4,0.5,0.29,0.42,0.58,0.48,0.4,0.25,0.55,0.61,0.25,0.33,0.25,0.25,0.55,0.71,0.58,0.48,0.58,0.25,0.55,0.33,0.25,0.52,0.25,0.25,0.55,0.61,0.42,0.48,0.58,0.56,0.25,0.55,0.78,0.25,0.78,0.25,0.55,0.78,0.58,0.55,0.48,0.52,0.6,0.48,0.4,0.29,0.88,0.48,0.58,0.33,0.5,0.29,0.55,0.42,0.33,0.6,0.61,0.56,0.55,0.55,0.33,0.55,0.6,0.4,0.55,0.44,0.48,0.42,0.42,0.55,0.55,0.48,0.58,0.5,0.56,0.29,0.55,0.4,0.55,0.29,0.58,0.55,0.6,0.29,0.5,0.58,0.5,0.4,0.55,0.61,0.55,0.83,0.88,0.48,0.29,0.33,0.55,0.42,0.6,0.29,0.58,0.58,0.29,0.58,0.56,0.25" style="fill:rgb(0,0,0);font-family:URWPalladioL-Roma;font-size:8.97px;stroke:none;">13. Praisner, T.J.; Chen, J.S.; Tseng, A.A. An experimental study of process behavior in planar ﬂowmelt spinning.</text>
   <text y="317.346" x="98.05,106.514,110.002,112.988,116.969,119.462,121.954,124.1965,126.976,135.44,139.421,142.407,145.895,148.719,150.9615,153.74,158.224,161.711,165.693,170.678,174.166,176.4085,179.187" svgx:width="0.94,0.39,0.33,0.44,0.28,0.28,0.25,0.55,0.94,0.44,0.33,0.39,0.39,0.25,0.55,0.61,0.39,0.44,0.56,0.39,0.25,0.55,0.61" style="fill:rgb(0,0,0);font-family:URWPalladioL-Ital;font-size:8.97px;stroke:none;">Metall. Mater. Trans. B</text>
   <text y="317.346" x="186.906,191.389,195.872,200.356" svgx:width="0.5,0.5,0.5,0.5" style="fill:rgb(0,0,0);font-family:URWPalladioL-Bold;font-size:8.97px;stroke:none;">1995</text>
   <text y="317.346" x="204.839" svgx:width="0.25" style="fill:rgb(0,0,0);font-family:URWPalladioL-Roma;font-size:8.97px;stroke:none;">,</text>
   <text y="317.346" x="209.322,213.805" svgx:width="0.5,0.5" style="fill:rgb(0,0,0);font-family:URWPalladioL-Ital;font-size:8.97px;stroke:none;">26</text>
   <text y="317.346" x="218.288,220.53050000000002,222.771,227.254,231.738,236.221,240.704,245.187,249.67,254.154,258.637,263.12,265.3625,268.141" svgx:width="0.25,0.55,0.5,0.5,0.5,0.5,0.5,0.5,0.5,0.5,0.5,0.25,0.55,0.33" style="fill:rgb(0,0,0);font-family:URWPalladioL-Roma;font-size:8.97px;stroke:none;">, 1199–1208. [</text>
   <text y="317.346" x="271.127,277.484,280.864,285.76,289.562,293.364,299.353,303.648" svgx:width="0.71,0.4,0.55,0.42,0.42,0.67,0.48,0.33" style="fill:rgb(0,0,255);font-family:URWPalladioL-Roma;font-size:8.97px;stroke:none;">CrossRef</text>
   <text y="317.346" x="306.634" svgx:width="0.33" style="fill:rgb(0,0,0);font-family:URWPalladioL-Roma;font-size:8.97px;stroke:none;">]</text>
   <text y="330.257" x="76.535,81.018,85.501,87.74350000000001,98.05,101.063,106.002,111.268,115.601,119.437,121.6795,123.934,131.461,133.70350000000002,135.957,142.9536,145.231,150.668,155.001,158.575,162.411,167.848,172.182,176.199,179.148,181.781,186.892,191.1976,193.461,198.4,203.6026,205.9,208.85,214.115,218.4206,220.692,226.22,230.545,235.656,239.99,242.623,247.562,253.0,260.988,265.322,270.587,273.5471,275.78,280.72,283.68010000000004,285.967,289.541,294.064,299.502,302.134,307.6057,309.897,313.733,318.672,321.305,323.938,329.466,332.098,337.572,341.589,346.112,349.062,351.694,356.634,361.83660000000003,364.134,368.658,373.923,379.3947,381.685,386.951,391.891,397.156,401.49,406.556,412.011,414.644,417.277,419.909,424.912,428.486,431.119,436.574,446.797,452.235,455.645,460.585,464.602,468.936,472.772,476.608,479.24,484.506,489.52919999999995,491.77,496.294,501.559,507.0307,509.322,511.955,514.904" svgx:width="0.5,0.5,0.25,0.55,0.33,0.55,0.58,0.48,0.42,0.25,0.55,0.83,0.25,0.55,0.78,0.55,0.6,0.48,0.4,0.42,0.6,0.48,0.44,0.33,0.29,0.56,0.48,0.55,0.55,0.58,0.55,0.33,0.58,0.48,0.55,0.61,0.48,0.56,0.48,0.29,0.55,0.6,0.88,0.48,0.58,0.33,0.55,0.55,0.33,0.55,0.4,0.5,0.6,0.29,0.61,0.55,0.42,0.55,0.29,0.29,0.61,0.29,0.61,0.44,0.5,0.33,0.29,0.55,0.58,0.55,0.5,0.58,0.61,0.55,0.58,0.55,0.58,0.48,0.56,0.6,0.29,0.29,0.29,0.55,0.4,0.29,0.6,0.88,0.6,0.4,0.55,0.44,0.48,0.42,0.42,0.29,0.58,0.56,0.55,0.5,0.58,0.61,0.55,0.29,0.33,0.42" style="fill:rgb(0,0,0);font-family:URWPalladioL-Roma;font-size:8.97px;stroke:none;">14. Jones, H. A perspective on the development of rapid solidiﬁcation and nonequilibriumprocessing and its</text>
   <text y="343.169" x="98.05,101.036,106.443,109.366,114.772,118.153,122.448" svgx:width="0.33,0.6,0.33,0.6,0.4,0.48,0.25" style="fill:rgb(0,0,0);font-family:URWPalladioL-Roma;font-size:8.97px;stroke:none;">future.</text>
   <text y="343.169" x="127.469,135.933,139.914,142.9,146.388,149.213,151.4555,154.234,159.219,162.868,165.361,167.6035,170.382,175.861,180.846,185.329,187.57150000000001,190.35" svgx:width="0.94,0.44,0.33,0.39,0.39,0.25,0.55,0.56,0.41,0.28,0.25,0.55,0.61,0.56,0.5,0.25,0.55,0.72" style="fill:rgb(0,0,0);font-family:URWPalladioL-Ital;font-size:8.97px;stroke:none;">Mater. Sci. Eng. A</text>
   <text y="343.169" x="199.065,203.548,208.031,212.515" svgx:width="0.5,0.5,0.5,0.5" style="fill:rgb(0,0,0);font-family:URWPalladioL-Bold;font-size:8.97px;stroke:none;">2001</text>
   <text y="343.169" x="216.997" svgx:width="0.25" style="fill:rgb(0,0,0);font-family:URWPalladioL-Roma;font-size:8.97px;stroke:none;">,</text>
   <text y="343.169" x="221.48,225.963,230.446" svgx:width="0.5,0.5,0.5" style="fill:rgb(0,0,0);font-family:URWPalladioL-Ital;font-size:8.97px;stroke:none;">304</text>
   <text y="343.169" x="234.93,237.1725,239.413,243.896,248.38,252.863,257.346,261.829,264.0715,266.85" svgx:width="0.25,0.55,0.5,0.5,0.5,0.5,0.5,0.25,0.55,0.33" style="fill:rgb(0,0,0);font-family:URWPalladioL-Roma;font-size:8.97px;stroke:none;">, 11–19. [</text>
   <text y="343.169" x="269.836,276.193,279.574,284.469,288.271,292.073,298.062,302.357" svgx:width="0.71,0.4,0.55,0.42,0.42,0.67,0.48,0.33" style="fill:rgb(0,0,255);font-family:URWPalladioL-Roma;font-size:8.97px;stroke:none;">CrossRef</text>
   <text y="343.169" x="305.343" svgx:width="0.33" style="fill:rgb(0,0,0);font-family:URWPalladioL-Roma;font-size:8.97px;stroke:none;">]</text>
   <text y="356.08" x="76.535,81.018,85.501,87.74350000000001,98.05,104.534,109.857,114.238,119.561,121.80350000000001,125.323,132.932,135.218,140.02,142.306,144.54850000000002,148.681,157.333,159.994,162.646,165.308,169.689,172.643,174.8855,178.404,184.889,187.175,192.763,195.0055,198.516,205.5126,209.107,215.216,219.789,225.285,227.947,233.4187,237.001,244.19,249.704,254.085,259.408,263.469,268.792,271.453,276.776,281.7992,285.336,290.119,294.5,298.561,303.884,309.207,311.868,316.99,322.504,326.80960000000005,330.351,333.397,338.391,341.97900000000004,345.478,348.46,353.783,358.08860000000004,361.63,367.154,370.611,374.992,380.488,385.061,388.674,393.247,396.228,398.889,403.883,409.0856,412.672,417.666,420.6261,424.187,429.793,435.116,437.777,442.9796,446.566,453.682,459.004,461.666,464.711,469.705,473.317,481.2106,484.868,489.953,492.615,495.276,503.352,507.1194,510.705,515.699" svgx:width="0.5,0.5,0.25,0.55,0.71,0.58,0.48,0.58,0.25,0.55,0.83,0.25,0.52,0.25,0.25,0.55,0.95,0.29,0.29,0.29,0.48,0.4,0.25,0.55,0.71,0.25,0.61,0.25,0.55,0.78,0.55,0.67,0.5,0.6,0.29,0.61,0.55,0.79,0.6,0.48,0.58,0.44,0.58,0.29,0.58,0.56,0.55,0.61,0.48,0.44,0.58,0.58,0.29,0.56,0.6,0.48,0.55,0.33,0.55,0.4,0.55,0.33,0.58,0.48,0.55,0.6,0.4,0.48,0.6,0.5,0.4,0.5,0.33,0.29,0.55,0.58,0.55,0.55,0.33,0.55,0.61,0.58,0.29,0.58,0.55,0.78,0.58,0.29,0.33,0.55,0.4,0.88,0.55,0.56,0.29,0.29,0.88,0.42,0.55,0.55,0.33" style="fill:rgb(0,0,0);font-family:URWPalladioL-Roma;font-size:8.97px;stroke:none;">15. Chen, H.S.; Miller, C.E. A Rapid Quenching Technique for the Preparation of Thin Uniform Films of</text>
   <text y="368.992" x="97.701,104.677,112.594,117.49,121.032,126.42,131.639,136.534,141.941,145.7084,147.985,152.692,157.588,160.197,162.806,168.285,172.086" svgx:width="0.78,0.88,0.55,0.4,0.6,0.58,0.55,0.6,0.42,0.55,0.52,0.55,0.29,0.29,0.61,0.42,0.25" style="fill:rgb(0,0,0);font-family:URWPalladioL-Roma;font-size:8.97px;stroke:none;">Amorphous Solids.</text>
   <text y="368.992" x="177.106,183.087,186.575,190.565,192.8075,195.586,200.571,204.22,206.713,208.9555,211.734,214.72,219.705,223.193,226.179,229.667,234.652,241.628" svgx:width="0.67,0.39,0.5,0.25,0.55,0.56,0.41,0.28,0.25,0.55,0.33,0.56,0.39,0.33,0.39,0.56,0.78,0.25" style="fill:rgb(0,0,0);font-family:URWPalladioL-Ital;font-size:8.97px;stroke:none;">Rev. Sci. Instrum.</text>
   <text y="368.992" x="246.649,251.132,255.615,260.099" svgx:width="0.5,0.5,0.5,0.5" style="fill:rgb(0,0,0);font-family:URWPalladioL-Bold;font-size:8.97px;stroke:none;">1970</text>
   <text y="368.992" x="264.581" svgx:width="0.25" style="fill:rgb(0,0,0);font-family:URWPalladioL-Roma;font-size:8.97px;stroke:none;">,</text>
   <text y="368.992" x="269.064,273.547" svgx:width="0.5,0.5" style="fill:rgb(0,0,0);font-family:URWPalladioL-Ital;font-size:8.97px;stroke:none;">41</text>
   <text y="368.992" x="278.031,280.2735,282.514,286.997,291.481,295.964,300.447,304.93,309.414,313.897,318.38,322.863,325.1055,327.884" svgx:width="0.25,0.55,0.5,0.5,0.5,0.5,0.5,0.5,0.5,0.5,0.5,0.25,0.55,0.33" style="fill:rgb(0,0,0);font-family:URWPalladioL-Roma;font-size:8.97px;stroke:none;">, 1237–1238. [</text>
   <text y="368.992" x="330.87,337.227,340.608,345.503,349.305,353.107,359.096,363.391" svgx:width="0.71,0.4,0.55,0.42,0.42,0.67,0.48,0.33" style="fill:rgb(0,0,255);font-family:URWPalladioL-Roma;font-size:8.97px;stroke:none;">CrossRef</text>
   <text y="368.992" x="366.377" svgx:width="0.33" style="fill:rgb(0,0,0);font-family:URWPalladioL-Roma;font-size:8.97px;stroke:none;">]</text>
   <text y="381.904" x="76.535,81.018,85.501,87.74350000000001,98.028,102.597,107.852,112.202,117.456,122.298,124.811,127.05350000000001,128.765,133.44,135.593,137.8355,139.688,146.48,151.55,154.371,159.441,164.195,169.265,173.114,175.3565,177.059,183.851,186.004,194.273,196.5155,198.227,204.053,208.402,213.64,216.153,221.6247,223.27,228.147,233.402,237.567,242.637,246.494,251.565,254.078,259.148,264.1712,265.791,270.545,275.74760000000003,277.407,280.228,285.298,289.60360000000003,291.265,296.08,298.593,303.663,308.013,311.44,316.4632,318.074,321.756,326.597,330.279,333.1,337.265,344.98,348.7474,350.463,355.217,358.1771,359.891,364.962,367.475,372.316,377.5186,379.188,382.008,386.174,393.889,399.126,403.291,406.718,411.067,413.888,419.143,422.403,426.70860000000005,428.369,433.123,437.613,440.126,445.451,449.616,453.298" svgx:width="0.5,0.5,0.25,0.55,0.52,0.6,0.5,0.6,0.56,0.29,0.25,0.55,0.61,0.25,0.25,0.55,0.78,0.58,0.33,0.58,0.55,0.58,0.56,0.25,0.55,0.78,0.25,0.95,0.25,0.55,0.67,0.5,0.6,0.29,0.61,0.55,0.56,0.6,0.48,0.58,0.44,0.58,0.29,0.58,0.56,0.55,0.55,0.58,0.55,0.33,0.58,0.48,0.55,0.55,0.29,0.58,0.5,0.4,0.56,0.55,0.42,0.56,0.42,0.33,0.48,0.88,0.42,0.55,0.55,0.33,0.55,0.58,0.29,0.56,0.58,0.55,0.33,0.48,0.88,0.6,0.48,0.4,0.5,0.33,0.6,0.4,0.48,0.55,0.55,0.52,0.29,0.61,0.48,0.42,0.25" style="fill:rgb(0,0,0);font-family:URWPalladioL-Roma;font-size:8.97px;stroke:none;">16. Suzuki, T.; Anthony, A.M. Rapid quenching on the binary systems of high temperature oxides.</text>
   <text y="381.904" x="458.075,466.494,470.431,473.372,476.815,479.594,481.8365,484.562,490.498,493.941,497.384,499.6265,502.342,507.776,512.716,515.164,517.612" svgx:width="0.94,0.44,0.33,0.39,0.39,0.25,0.55,0.67,0.39,0.39,0.25,0.55,0.61,0.56,0.28,0.28,0.25" style="fill:rgb(0,0,0);font-family:URWPalladioL-Ital;font-size:8.97px;stroke:none;">Mater. Res. Bull.</text>
   <text y="394.815" x="97.602,102.085,106.568,111.052" svgx:width="0.5,0.5,0.5,0.5" style="fill:rgb(0,0,0);font-family:URWPalladioL-Bold;font-size:8.97px;stroke:none;">1974</text>
   <text y="394.815" x="115.535" svgx:width="0.25" style="fill:rgb(0,0,0);font-family:URWPalladioL-Roma;font-size:8.97px;stroke:none;">,</text>
   <text y="394.815" x="120.018" svgx:width="0.5" style="fill:rgb(0,0,0);font-family:URWPalladioL-Ital;font-size:8.97px;stroke:none;">9</text>
   <text y="394.815" x="124.501,126.74350000000001,128.984,133.467,137.951,142.434,146.917,151.4,155.883,160.367,162.6095,165.388" svgx:width="0.25,0.55,0.5,0.5,0.5,0.5,0.5,0.5,0.5,0.25,0.55,0.33" style="fill:rgb(0,0,0);font-family:URWPalladioL-Roma;font-size:8.97px;stroke:none;">, 745–753. [</text>
   <text y="394.815" x="168.374,174.731,178.111,183.007,186.809,190.61,196.6,200.895" svgx:width="0.71,0.4,0.55,0.42,0.42,0.67,0.48,0.33" style="fill:rgb(0,0,255);font-family:URWPalladioL-Roma;font-size:8.97px;stroke:none;">CrossRef</text>
   <text y="394.815" x="203.881" svgx:width="0.33" style="fill:rgb(0,0,0);font-family:URWPalladioL-Roma;font-size:8.97px;stroke:none;">]</text>
   <text y="407.727" x="76.535,81.018,85.501,87.74350000000001,98.05,103.435,107.657,111.879,114.12150000000001,116.33,119.265,121.469,128.194,130.397,132.6395,134.857,140.181,144.588,148.069,152.97,155.2125,157.421,162.048,164.252,168.879,171.083,173.3255,175.534,180.919,185.141,189.363,191.6055,193.814,198.441,200.645,206.03,208.233,210.4755,212.693,218.942,224.072,229.387,234.517,239.417,241.6595,243.868,251.202,253.405,258.138,260.342,262.5845,264.801,271.2,273.765,281.548,283.7905,285.999,293.324,295.527,298.462,300.7045,302.913,307.54,312.67,316.892,321.114,324.0741,326.235,329.17,333.577,338.451,341.933,344.497,348.411,352.818,355.691,358.256,363.068,368.2706,370.446,375.258,378.2181,380.441,385.315,390.63,393.195,398.21819999999997,400.343,404.75,412.533,417.345,420.826,426.124,431.253,436.066,441.381,445.1484,447.365,451.772,454.337,456.902,461.715,466.615,470.3824,472.6,477.474,482.49719999999996,484.622,487.495,494.846,497.411,502.541,505.476,508.799,513.611,516.176" svgx:width="0.5,0.5,0.25,0.55,0.61,0.48,0.48,0.25,0.55,0.33,0.25,0.76,0.25,0.25,0.55,0.6,0.5,0.4,0.56,0.25,0.55,0.52,0.25,0.52,0.25,0.25,0.55,0.61,0.48,0.48,0.25,0.55,0.52,0.25,0.61,0.25,0.25,0.55,0.71,0.58,0.6,0.58,0.56,0.25,0.55,0.83,0.25,0.61,0.25,0.25,0.55,0.73,0.29,0.88,0.25,0.55,0.83,0.25,0.33,0.25,0.55,0.52,0.58,0.48,0.48,0.33,0.55,0.33,0.5,0.55,0.4,0.29,0.44,0.5,0.33,0.29,0.55,0.58,0.55,0.55,0.33,0.55,0.55,0.6,0.29,0.56,0.55,0.5,0.88,0.55,0.4,0.6,0.58,0.55,0.6,0.42,0.55,0.5,0.29,0.29,0.55,0.56,0.42,0.55,0.55,0.56,0.55,0.33,0.83,0.29,0.58,0.33,0.4,0.55,0.29,0.29" style="fill:rgb(0,0,0);font-family:URWPalladioL-Roma;font-size:8.97px;stroke:none;">17. Lee, J.G.; Park, S.S.; Lee, S.B.; Chung, H.T.; Kim, N.J. Sheet fabrication of bulk amorphous alloys by twin-roll</text>
   <text y="420.638" x="98.05,101.852,104.775,108.317,110.926,116.308,118.556,122.537,127.02,130.822,133.745,136.354,141.573,146.558" svgx:width="0.42,0.33,0.4,0.29,0.6,0.55,0.44,0.5,0.42,0.33,0.29,0.58,0.56,0.25" style="fill:rgb(0,0,0);font-family:URWPalladioL-Roma;font-size:8.97px;stroke:none;">strip casting.</text>
   <text y="420.638" x="151.579,156.564,160.214,163.038,165.28050000000002,168.059,176.524,180.505,183.49,186.978,189.803" svgx:width="0.56,0.41,0.39,0.25,0.55,0.94,0.44,0.33,0.39,0.39,0.25" style="fill:rgb(0,0,0);font-family:URWPalladioL-Ital;font-size:8.97px;stroke:none;">Scr. Mater.</text>
   <text y="420.638" x="194.823,199.306,203.789,208.273" svgx:width="0.5,0.5,0.5,0.5" style="fill:rgb(0,0,0);font-family:URWPalladioL-Bold;font-size:8.97px;stroke:none;">2005</text>
   <text y="420.638" x="212.756" svgx:width="0.25" style="fill:rgb(0,0,0);font-family:URWPalladioL-Roma;font-size:8.97px;stroke:none;">,</text>
   <text y="420.638" x="217.239,221.722" svgx:width="0.5,0.5" style="fill:rgb(0,0,0);font-family:URWPalladioL-Ital;font-size:8.97px;stroke:none;">53</text>
   <text y="420.638" x="226.206,228.4485,230.689,235.172,239.656,244.139,248.622,253.105,257.588,262.072,264.3145,267.093" svgx:width="0.25,0.55,0.5,0.5,0.5,0.5,0.5,0.5,0.5,0.25,0.55,0.33" style="fill:rgb(0,0,0);font-family:URWPalladioL-Roma;font-size:8.97px;stroke:none;">, 693–697. [</text>
   <text y="420.638" x="270.079,276.436,279.816,284.712,288.513,292.315,298.305,302.6" svgx:width="0.71,0.4,0.55,0.42,0.42,0.67,0.48,0.33" style="fill:rgb(0,0,255);font-family:URWPalladioL-Roma;font-size:8.97px;stroke:none;">CrossRef</text>
   <text y="420.638" x="305.586" svgx:width="0.33" style="fill:rgb(0,0,0);font-family:URWPalladioL-Roma;font-size:8.97px;stroke:none;">]</text>
   <text y="433.55" x="76.535,81.018,85.501,87.74350000000001,98.05,103.638,108.019,112.4,114.64250000000001,117.412,120.457,122.743,129.722,132.008,134.25050000000002,137.258,142.846,147.227,151.607,153.8495,156.619,164.229,166.515,168.7575,171.765,178.953,184.276,186.51850000000002,189.288,194.4,196.687,201.488,203.775,206.0175,209.024,214.612,218.993,223.374,225.6165,228.386,233.187,235.474,237.7165,240.723,247.363,250.025,258.1,260.34250000000003,263.112,270.712,272.999,276.044,278.2865,281.056,287.54,292.534,297.857,300.838,303.5,308.823,314.337,319.331,324.846,328.6134,331.449,334.495,339.067,344.125,347.738,350.399,354.46,359.033,362.014,364.676,369.669,374.8716,377.708,382.702,385.6621,388.473,393.53,399.045,401.707,406.73019999999997,409.517,414.09,422.166,427.159,430.772,436.268,441.591,446.585,452.099,455.8664,458.703,463.276,465.937,468.598,473.592,478.61519999999996,481.402,485.28,490.603,494.984,499.365,502.346,506.1134,508.949,514.007" svgx:width="0.5,0.5,0.25,0.55,0.61,0.48,0.48,0.25,0.55,0.33,0.25,0.76,0.25,0.25,0.55,0.61,0.48,0.48,0.25,0.55,0.83,0.25,0.25,0.55,0.79,0.58,0.25,0.55,0.67,0.25,0.52,0.25,0.25,0.55,0.61,0.48,0.48,0.25,0.55,0.52,0.25,0.25,0.55,0.73,0.29,0.88,0.25,0.55,0.83,0.25,0.33,0.25,0.55,0.71,0.55,0.58,0.33,0.29,0.58,0.6,0.55,0.6,0.42,0.55,0.33,0.5,0.55,0.4,0.29,0.44,0.5,0.33,0.29,0.55,0.58,0.55,0.55,0.33,0.55,0.55,0.6,0.29,0.56,0.55,0.5,0.88,0.55,0.4,0.6,0.58,0.55,0.6,0.42,0.55,0.5,0.29,0.29,0.55,0.56,0.55,0.42,0.58,0.48,0.48,0.33,0.42,0.55,0.55,0.56" style="fill:rgb(0,0,0);font-family:URWPalladioL-Roma;font-size:8.97px;stroke:none;">18. Lee, J.G.; Lee, H.; Oh, Y.S.; Lee, S.; Kim, N.J. Continuous fabrication of bulk amorphous alloy sheets by</text>
   <text y="446.462" x="98.05,100.973,108.451,111.06,116.279,119.265,122.645,127.54,130.15,132.75130000000001,135.001,138.802,141.725,145.267,147.876,153.258,155.507,159.488,163.971,167.773,170.696,173.305,178.523,183.509" svgx:width="0.33,0.83,0.29,0.58,0.33,0.4,0.55,0.29,0.29,0.55,0.42,0.33,0.4,0.29,0.6,0.55,0.44,0.5,0.42,0.33,0.29,0.58,0.56,0.25" style="fill:rgb(0,0,0);font-family:URWPalladioL-Roma;font-size:8.97px;stroke:none;">twin-roll strip casting.</text>
   <text y="446.462" x="188.529,191.515,196.5,199.486,202.974,206.462,213.438,216.926,219.911,223.892,226.385,228.878,231.37,235.02" svgx:width="0.33,0.56,0.33,0.39,0.39,0.78,0.39,0.33,0.44,0.28,0.28,0.28,0.41,0.39" style="fill:rgb(0,0,0);font-family:URWPalladioL-Ital;font-size:8.97px;stroke:none;">Intermetallics</text>
   <text y="446.462" x="240.748,245.231,249.714,254.198" svgx:width="0.5,0.5,0.5,0.5" style="fill:rgb(0,0,0);font-family:URWPalladioL-Bold;font-size:8.97px;stroke:none;">2006</text>
   <text y="446.462" x="258.681" svgx:width="0.25" style="fill:rgb(0,0,0);font-family:URWPalladioL-Roma;font-size:8.97px;stroke:none;">,</text>
   <text y="446.462" x="263.164,267.647" svgx:width="0.5,0.5" style="fill:rgb(0,0,0);font-family:URWPalladioL-Ital;font-size:8.97px;stroke:none;">14</text>
   <text y="446.462" x="272.13,274.3725,276.613,281.096,285.58,290.063,294.546,299.029,303.513,307.996,310.2385,313.017" svgx:width="0.25,0.55,0.5,0.5,0.5,0.5,0.5,0.5,0.5,0.25,0.55,0.33" style="fill:rgb(0,0,0);font-family:URWPalladioL-Roma;font-size:8.97px;stroke:none;">, 987–993. [</text>
   <text y="446.462" x="316.003,322.36,325.74,330.636,334.438,338.239,344.229,348.524" svgx:width="0.71,0.4,0.55,0.42,0.42,0.67,0.48,0.33" style="fill:rgb(0,0,255);font-family:URWPalladioL-Roma;font-size:8.97px;stroke:none;">CrossRef</text>
   <text y="446.462" x="351.51" svgx:width="0.33" style="fill:rgb(0,0,0);font-family:URWPalladioL-Roma;font-size:8.97px;stroke:none;">]</text>
   <text y="459.373" x="76.535,81.018,85.501,87.74350000000001,98.05,105.133,110.377,112.6195,114.856,119.875,122.128,126.859,129.112,131.3545,133.599,139.105,143.422,147.738,149.9805,152.217,159.714,161.967,164.20950000000002,166.454,171.96,176.276,180.593,182.8355,185.071,188.072,190.325,197.201,199.453,201.6955,203.941,210.483,213.105,221.062,223.30450000000002,225.541,233.029,235.282,238.283,240.5255,242.761,247.474,254.99,257.612,262.856,265.857,271.877,276.797,279.419,282.02029999999996,284.276,289.007,291.945,295.504,298.126,303.508,305.768,312.157,316.662,320.483,323.421,326.043,331.288,336.3112,338.524,343.444,346.4041,348.67,351.707,355.104,360.024,365.269,368.27,373.776,378.281,382.102,386.4076,388.653,395.664,403.621,408.541,412.1,417.516,422.761,427.681,433.115,436.8824,439.161,446.172,448.794,451.416,456.336,461.347,465.167" svgx:width="0.5,0.5,0.25,0.55,0.79,0.58,0.25,0.55,0.67,0.25,0.52,0.25,0.25,0.55,0.61,0.48,0.48,0.25,0.55,0.83,0.25,0.25,0.55,0.61,0.48,0.48,0.25,0.55,0.33,0.25,0.76,0.25,0.25,0.55,0.73,0.29,0.88,0.25,0.55,0.83,0.25,0.33,0.25,0.55,0.61,0.83,0.29,0.58,0.33,0.67,0.55,0.29,0.29,0.55,0.52,0.33,0.4,0.29,0.6,0.55,0.71,0.5,0.42,0.33,0.29,0.58,0.56,0.55,0.55,0.33,0.55,0.34,0.4,0.55,0.58,0.33,0.61,0.5,0.42,0.48,0.55,0.78,0.88,0.55,0.4,0.6,0.58,0.55,0.6,0.42,0.55,0.78,0.29,0.29,0.55,0.56,0.42,0.25" style="fill:rgb(0,0,0);font-family:URWPalladioL-Roma;font-size:8.97px;stroke:none;">19. Oh, Y.S.; Lee, H.; Lee, J.G.; Kim, N.J. Twin-Roll Strip Casting of Iron-Base Amorphous Alloys.</text>
   <text y="459.373" x="470.193,478.7,482.701,485.701,489.207,492.045,494.2875,497.073,501.588,505.093,509.094,514.105,517.61" svgx:width="0.94,0.44,0.33,0.39,0.39,0.25,0.55,0.61,0.39,0.44,0.56,0.39,0.25" style="fill:rgb(0,0,0);font-family:URWPalladioL-Ital;font-size:8.97px;stroke:none;">Mater. Trans.</text>
   <text y="472.285" x="98.05,102.533,107.016,111.5" svgx:width="0.5,0.5,0.5,0.5" style="fill:rgb(0,0,0);font-family:URWPalladioL-Bold;font-size:8.97px;stroke:none;">2007</text>
   <text y="472.285" x="115.983" svgx:width="0.25" style="fill:rgb(0,0,0);font-family:URWPalladioL-Roma;font-size:8.97px;stroke:none;">,</text>
   <text y="472.285" x="120.466,124.949" svgx:width="0.5,0.5" style="fill:rgb(0,0,0);font-family:URWPalladioL-Ital;font-size:8.97px;stroke:none;">48</text>
   <text y="472.285" x="129.433,131.6755,133.916,138.399,142.883,147.366,151.849,156.332,160.815,165.299,169.782,174.265,176.5075,179.286" svgx:width="0.25,0.55,0.5,0.5,0.5,0.5,0.5,0.5,0.5,0.5,0.5,0.25,0.55,0.33" style="fill:rgb(0,0,0);font-family:URWPalladioL-Roma;font-size:8.97px;stroke:none;">, 1584–1588. [</text>
   <text y="472.285" x="182.272,188.629,192.01,196.905,200.707,204.509,210.498,214.793" svgx:width="0.71,0.4,0.55,0.42,0.42,0.67,0.48,0.33" style="fill:rgb(0,0,255);font-family:URWPalladioL-Roma;font-size:8.97px;stroke:none;">CrossRef</text>
   <text y="472.285" x="217.779" svgx:width="0.33" style="fill:rgb(0,0,0);font-family:URWPalladioL-Roma;font-size:8.97px;stroke:none;">]</text>
   <text y="485.196" x="76.535,81.018,85.501,87.74350000000001,98.05,105.165,108.778,113.351,116.332,120.905,123.14750000000001,126.749,133.865,136.151,138.39350000000002,142.645,150.245,152.906,156.784,162.107,164.768,169.853,174.426,182.502,187.075,189.3175,192.919,200.519,202.805,205.0475,209.299,216.414,224.49,227.151,232.236,236.809,239.0515,242.644,249.284,251.57,253.8125,258.073,261.155,266.478,271.471,276.986,281.367,283.6095,287.202,294.317,296.5595,300.161,306.646,311.639,316.962,319.944,322.605,327.928,333.443,338.436,343.951,347.71840000000003,351.378,355.438,360.011,363.889,366.87,369.532,374.855,379.8782,383.497,388.491,391.4511,395.094,398.076,403.398,406.06,410.121,415.14419999999996,418.754,423.839,428.22,431.265,436.323,440.896,444.774,449.0796,452.712,457.797,460.459,465.031,468.909,472.787,477.81019999999995,481.421,486.917,489.579,494.151,497.133,501.514,505.2814,508.949,514.007" svgx:width="0.5,0.5,0.25,0.55,0.78,0.4,0.5,0.33,0.5,0.25,0.55,0.78,0.25,0.25,0.55,0.83,0.29,0.42,0.58,0.29,0.56,0.5,0.88,0.5,0.25,0.55,0.83,0.25,0.25,0.55,0.78,0.88,0.29,0.56,0.5,0.25,0.55,0.73,0.25,0.25,0.55,0.34,0.58,0.55,0.6,0.48,0.25,0.55,0.78,0.25,0.55,0.71,0.55,0.58,0.33,0.29,0.58,0.6,0.55,0.6,0.42,0.55,0.44,0.5,0.42,0.33,0.29,0.58,0.56,0.55,0.55,0.33,0.55,0.33,0.58,0.29,0.44,0.56,0.55,0.56,0.48,0.33,0.55,0.5,0.42,0.48,0.55,0.56,0.29,0.5,0.42,0.42,0.56,0.55,0.6,0.29,0.5,0.33,0.48,0.42,0.55,0.55,0.56" style="fill:rgb(0,0,0);font-family:URWPalladioL-Roma;font-size:8.97px;stroke:none;">20. Urata, A.; Nishiyama, N.; Amiya, K.; Inoue, A. Continuous casting of thick Fe-base glassy plates by</text>
   <text y="498.108" x="98.05,100.973,108.451,111.06,116.279,119.265,122.645,127.54,130.15,132.759,137.054,140.642,142.837,150.755,155.049,157.659,160.582,163.568,167.369,172.758,175.367,180.586,185.804,188.413,193.632,198.617" svgx:width="0.33,0.83,0.29,0.58,0.33,0.4,0.55,0.29,0.29,0.48,0.4,0.55,0.88,0.48,0.29,0.33,0.33,0.42,0.6,0.29,0.58,0.58,0.29,0.58,0.56,0.25" style="fill:rgb(0,0,0);font-family:URWPalladioL-Roma;font-size:8.97px;stroke:none;">twin-roller melt-spinning.</text>
   <text y="498.108" x="203.637,212.101,216.082,219.068,222.556,225.381,227.6235,230.402,235.387,239.036,241.529,243.7715,246.55,252.029,257.014,261.497,263.7395,266.518" svgx:width="0.94,0.44,0.33,0.39,0.39,0.25,0.55,0.56,0.41,0.28,0.25,0.55,0.61,0.56,0.5,0.25,0.55,0.72" style="fill:rgb(0,0,0);font-family:URWPalladioL-Ital;font-size:8.97px;stroke:none;">Mater. Sci. Eng. A</text>
   <text y="498.108" x="275.233,279.716,284.199,288.683" svgx:width="0.5,0.5,0.5,0.5" style="fill:rgb(0,0,0);font-family:URWPalladioL-Bold;font-size:8.97px;stroke:none;">2007</text>
   <text y="498.108" x="293.166" svgx:width="0.25" style="fill:rgb(0,0,0);font-family:URWPalladioL-Roma;font-size:8.97px;stroke:none;">,</text>
   <text y="498.108" x="297.649,302.132,306.615" svgx:width="0.5,0.5,0.5" style="fill:rgb(0,0,0);font-family:URWPalladioL-Ital;font-size:8.97px;stroke:none;">449</text>
   <text y="498.108" x="311.098,313.3405,315.581,320.064,324.548,329.031,333.514,337.997,342.481,346.964,349.2065,351.985" svgx:width="0.25,0.55,0.5,0.5,0.5,0.5,0.5,0.5,0.5,0.25,0.55,0.33" style="fill:rgb(0,0,0);font-family:URWPalladioL-Roma;font-size:8.97px;stroke:none;">, 269–272. [</text>
   <text y="498.108" x="354.971,361.328,364.708,369.604,373.406,377.207,383.197,387.492" svgx:width="0.71,0.4,0.55,0.42,0.42,0.67,0.48,0.33" style="fill:rgb(0,0,255);font-family:URWPalladioL-Roma;font-size:8.97px;stroke:none;">CrossRef</text>
   <text y="498.108" x="390.478" svgx:width="0.33" style="fill:rgb(0,0,0);font-family:URWPalladioL-Roma;font-size:8.97px;stroke:none;">]</text>
   <text y="511.02" x="76.535,81.018,85.501,87.74350000000001,98.05,105.361,110.159,113.085,120.844,125.237,130.351,135.465,137.7075,139.393,146.194,148.391,154.621,156.818,159.06050000000002,160.913,166.782,171.58,176.439,180.648,184.119,186.984,190.71,192.95250000000001,194.629,199.242,201.439,208.741,210.938,213.1805,215.032,217.958,222.756,227.87,232.984,236.71,241.508,246.622,248.86450000000002,250.55,258.511,260.707,266.076,268.31850000000003,270.004,274.582,281.911,284.468,289.67060000000004,291.313,297.174,301.972,304.529,307.1303,308.817,313.43,318.544,322.753,326.962,329.9221,331.558,337.788,342.181,345.907,348.772,351.329,356.443,361.46619999999996,363.051,367.848,370.8081,372.505,377.874,383.173,385.73,390.7532,392.338,400.65,404.859,407.724,412.117,414.675,417.232,419.789,423.7358,425.421,432.126,434.683,439.076,442.802,446.528,450.737,454.50440000000003,456.193,460.587,465.701,472.792,479.022,483.82,491.579,496.86,501.658,505.383,507.94,510.805,515.014" svgx:width="0.5,0.5,0.25,0.55,0.83,0.55,0.33,0.88,0.5,0.58,0.58,0.25,0.55,0.77,0.25,0.71,0.25,0.25,0.55,0.67,0.55,0.55,0.48,0.4,0.33,0.42,0.25,0.55,0.52,0.25,0.83,0.25,0.25,0.55,0.33,0.55,0.58,0.58,0.42,0.55,0.58,0.25,0.55,1.0,0.25,0.61,0.25,0.55,0.61,0.83,0.29,0.58,0.55,0.67,0.55,0.29,0.29,0.55,0.52,0.58,0.48,0.48,0.33,0.55,0.71,0.5,0.42,0.33,0.29,0.58,0.56,0.55,0.55,0.33,0.55,0.61,0.6,0.29,0.56,0.55,0.95,0.48,0.33,0.5,0.29,0.29,0.29,0.44,0.55,0.76,0.29,0.5,0.42,0.42,0.48,0.42,0.55,0.5,0.58,0.61,0.71,0.55,0.88,0.6,0.55,0.42,0.29,0.33,0.48,0.42" style="fill:rgb(0,0,0);font-family:URWPalladioL-Roma;font-size:8.97px;stroke:none;">21. Hofmann, D.C.; Roberts, S.N.; Johnson, W.L. Twin Roll Sheet Casting of Bulk Metallic Glasses andComposites</text>
   <text y="523.931" x="98.05,100.659,105.86160000000001,108.119,112.602,117.80460000000001,120.063,123.084,128.303,132.598,136.139,139.09910000000002,141.304,146.782,152.001,157.067,159.676,163.056,167.952,173.171,181.088,185.383,190.601,193.524,195.7665,198.545,203.961,208.444,211.367,215.662,220.881,223.8411,226.045,233.021,237.729,242.212,246.695,251.178,255.661,260.145,264.628,269.111,273.594,278.077,282.561,287.046,289.285,296.261,300.745,302.9875,305.228,309.711,314.196,316.436,319.422,323.905,329.123,334.53,339.013,342.555,347.5782,349.782,354.265,358.748,363.232,367.715" svgx:width="0.29,0.58,0.55,0.5,0.58,0.55,0.34,0.58,0.48,0.4,0.33,0.55,0.61,0.58,0.56,0.29,0.4,0.55,0.58,0.88,0.48,0.58,0.33,0.25,0.55,0.6,0.5,0.33,0.48,0.58,0.33,0.55,0.78,0.52,0.5,0.5,0.5,0.5,0.5,0.5,0.5,0.5,0.5,0.5,0.5,0.55,0.78,0.5,0.25,0.55,0.5,0.5,0.55,0.33,0.5,0.58,0.6,0.5,0.4,0.56,0.55,0.5,0.5,0.5,0.5,0.25" style="fill:rgb(0,0,0);font-family:URWPalladioL-Roma;font-size:8.97px;stroke:none;">in an Inert Environment. Patent US20130025746 A1, 31 January 2013.</text>
   <text y="536.843" x="76.535,81.018,85.501,87.74350000000001,98.05,103.457,107.882,111.635,114.52,116.7625,118.971,125.821,128.033,133.945,136.157,138.39950000000002,140.6,147.025,151.264,153.839,156.415,160.84,168.654,170.8965,173.105,181.477,183.69,185.9325,188.141,194.894,197.469,202.363,206.115,210.947,216.098,218.34050000000002,220.541,228.913,231.125,238.01,240.223,242.46550000000002,244.674,249.32,253.559,257.798,262.692,266.932,269.763,272.0055,274.215,281.1,283.313,285.5555,287.764,293.171,295.747,300.172,305.322,310.243,312.4855,314.685,321.535,323.748,325.9905,328.199,335.553,338.129,342.368,344.6105,346.819,349.766,351.979,356.076,358.31850000000003,360.519,367.404,375.218,380.05,383.546,388.865,394.015,398.847,404.184,407.95140000000004,410.175,417.989,422.414,427.335,432.485,436.725,440.477,443.052,448.389,458.433,462.186,467.336,471.575,475.814,478.77410000000003,480.938,486.257,489.593,494.425,499.833,505.169,509.099,513.338" svgx:width="0.5,0.5,0.25,0.55,0.61,0.5,0.42,0.33,0.25,0.55,0.77,0.25,0.67,0.25,0.25,0.55,0.73,0.48,0.29,0.29,0.5,0.88,0.25,0.55,0.95,0.25,0.25,0.55,0.76,0.29,0.55,0.42,0.55,0.58,0.25,0.55,0.95,0.25,0.78,0.25,0.25,0.55,0.52,0.48,0.48,0.55,0.48,0.4,0.25,0.55,0.78,0.25,0.25,0.55,0.61,0.29,0.5,0.58,0.56,0.25,0.55,0.77,0.25,0.25,0.55,0.83,0.29,0.48,0.25,0.55,0.33,0.25,0.56,0.25,0.55,0.78,0.88,0.55,0.4,0.6,0.58,0.55,0.6,0.42,0.55,0.88,0.5,0.56,0.58,0.48,0.42,0.29,0.6,0.88,0.42,0.58,0.48,0.48,0.33,0.55,0.6,0.4,0.55,0.61,0.6,0.44,0.48,0.61" style="fill:rgb(0,0,0);font-family:URWPalladioL-Roma;font-size:8.97px;stroke:none;">22. East, D.R.; Kellam, M.; Gibson, M.A.; Seeber, A.; Liang, D.; Nie, J.F. Amorphous magnesiumsheet produced</text>
   <text y="549.754" x="98.05,103.008,108.0312,110.235,113.158,120.636,123.246,128.4486,130.706,134.086,138.982,141.591,144.19230000000002,146.442,150.423,154.906,158.708,161.631,164.24,169.458,174.444" svgx:width="0.55,0.56,0.55,0.33,0.83,0.29,0.58,0.55,0.4,0.55,0.29,0.29,0.55,0.44,0.5,0.42,0.33,0.29,0.58,0.56,0.25" style="fill:rgb(0,0,0);font-family:URWPalladioL-Roma;font-size:8.97px;stroke:none;">by twin roll casting.</text>
   <text y="549.754" x="179.464,187.928,191.909,194.895,198.383,201.208,203.4505,206.229,211.214,214.863,217.356,219.5985,222.377,227.363,231.344,234.832,239.817" svgx:width="0.94,0.44,0.33,0.39,0.39,0.25,0.55,0.56,0.41,0.28,0.25,0.55,0.56,0.44,0.39,0.56,0.78" style="fill:rgb(0,0,0);font-family:URWPalladioL-Ital;font-size:8.97px;stroke:none;">Mater. Sci. Forum</text>
   <text y="549.754" x="249.033,253.516,257.999,262.483" svgx:width="0.5,0.5,0.5,0.5" style="fill:rgb(0,0,0);font-family:URWPalladioL-Bold;font-size:8.97px;stroke:none;">2010</text>
   <text y="549.754" x="266.966" svgx:width="0.25" style="fill:rgb(0,0,0);font-family:URWPalladioL-Roma;font-size:8.97px;stroke:none;">,</text>
   <text y="549.754" x="271.449,275.932,280.415" svgx:width="0.5,0.5,0.5" style="fill:rgb(0,0,0);font-family:URWPalladioL-Ital;font-size:8.97px;stroke:none;">654</text>
   <text y="549.754" x="284.899,287.1415,289.382,293.865,298.349,302.832,307.315,311.798,316.281,320.765,325.248,329.731,331.9735,334.752" svgx:width="0.25,0.55,0.5,0.5,0.5,0.5,0.5,0.5,0.5,0.5,0.5,0.25,0.55,0.33" style="fill:rgb(0,0,0);font-family:URWPalladioL-Roma;font-size:8.97px;stroke:none;">, 1078–1081. [</text>
   <text y="549.754" x="337.738,344.095,347.476,352.371,356.173,359.975,365.964,370.259" svgx:width="0.71,0.4,0.55,0.42,0.42,0.67,0.48,0.33" style="fill:rgb(0,0,255);font-family:URWPalladioL-Roma;font-size:8.97px;stroke:none;">CrossRef</text>
   <text y="549.754" x="373.245" svgx:width="0.33" style="fill:rgb(0,0,0);font-family:URWPalladioL-Roma;font-size:8.97px;stroke:none;">]</text>
   <text y="562.666" x="76.535,81.018,85.501,87.74350000000001,98.05,103.574,108.147,111.759,116.844,119.0865,121.417,126.521,128.807,133.609,135.895,138.13750000000002,140.486,146.074,150.455,154.836,157.07850000000002,159.409,164.21,166.497,172.085,174.371,176.61350000000002,178.962,185.602,188.264,196.33,198.57250000000002,200.903,208.503,210.789,213.835,216.07750000000001,218.408,227.06,229.721,233.782,237.23,242.223,246.101,249.083,252.622,258.137,262.198,265.179,270.694,274.151,278.45660000000004,280.809,285.382,290.705,296.1767,298.579,307.231,311.612,315.673,320.995,325.568,330.891,333.553,337.613,342.186,344.78729999999996,347.134,352.658,356.106,361.099,366.596,370.977,374.589,377.571,380.232,384.613,388.3804,390.777,395.771,398.7311,401.094,405.895,408.877,412.489,415.151,420.533,422.934,429.418,433.991,437.869,440.82910000000004,443.137,450.252,452.913,455.959,464.611,469.696,472.741,477.543,480.204,483.25,489.2599,491.627,498.743,501.404,504.065,509.059,514.144,518.022" svgx:width="0.5,0.5,0.25,0.55,0.6,0.5,0.4,0.56,0.25,0.55,0.67,0.25,0.52,0.25,0.25,0.55,0.61,0.48,0.48,0.25,0.55,0.52,0.25,0.61,0.25,0.25,0.55,0.73,0.29,0.88,0.25,0.55,0.83,0.25,0.33,0.25,0.55,0.95,0.29,0.44,0.4,0.55,0.42,0.33,0.4,0.6,0.44,0.33,0.6,0.4,0.48,0.55,0.5,0.58,0.61,0.55,0.95,0.48,0.44,0.58,0.5,0.58,0.29,0.44,0.5,0.29,0.55,0.6,0.4,0.55,0.6,0.48,0.4,0.33,0.29,0.48,0.42,0.55,0.55,0.33,0.55,0.52,0.33,0.4,0.29,0.6,0.55,0.71,0.5,0.42,0.33,0.55,0.78,0.29,0.33,0.95,0.56,0.33,0.52,0.29,0.33,0.67,0.55,0.78,0.29,0.29,0.55,0.56,0.42,0.25" style="fill:rgb(0,0,0);font-family:URWPalladioL-Roma;font-size:8.97px;stroke:none;">23. Park, Y.S.; Lee, S.B.; Kim, N.J. Microstructure and Mechanical Properties of Strip Cast Al-Mg-Si-X Alloys.</text>
   <text y="575.578" x="98.05,106.514,110.495,113.481,116.969,119.794,122.0365,124.815,129.298,132.786,136.767,141.752,145.24" svgx:width="0.94,0.44,0.33,0.39,0.39,0.25,0.55,0.61,0.39,0.44,0.56,0.39,0.25" style="fill:rgb(0,0,0);font-family:URWPalladioL-Ital;font-size:8.97px;stroke:none;">Mater. Trans.</text>
   <text y="575.578" x="150.261,154.744,159.227,163.711" svgx:width="0.5,0.5,0.5,0.5" style="fill:rgb(0,0,0);font-family:URWPalladioL-Bold;font-size:8.97px;stroke:none;">2003</text>
   <text y="575.578" x="168.194" svgx:width="0.25" style="fill:rgb(0,0,0);font-family:URWPalladioL-Roma;font-size:8.97px;stroke:none;">,</text>
   <text y="575.578" x="172.677,177.16" svgx:width="0.5,0.5" style="fill:rgb(0,0,0);font-family:URWPalladioL-Ital;font-size:8.97px;stroke:none;">44</text>
   <text y="575.578" x="181.643,183.8855,186.126,190.609,195.093,199.576,204.059,208.542,213.025,217.509,221.992,226.475,228.7175,231.496" svgx:width="0.25,0.55,0.5,0.5,0.5,0.5,0.5,0.5,0.5,0.5,0.5,0.25,0.55,0.33" style="fill:rgb(0,0,0);font-family:URWPalladioL-Roma;font-size:8.97px;stroke:none;">, 2617–2624. [</text>
   <text y="575.578" x="234.482,240.839,244.22,249.115,252.917,256.719,262.708,267.003" svgx:width="0.71,0.4,0.55,0.42,0.42,0.67,0.48,0.33" style="fill:rgb(0,0,255);font-family:URWPalladioL-Roma;font-size:8.97px;stroke:none;">CrossRef</text>
   <text y="575.578" x="269.989" svgx:width="0.33" style="fill:rgb(0,0,0);font-family:URWPalladioL-Roma;font-size:8.97px;stroke:none;">]</text>
   <text y="588.489" x="76.535,81.018,85.501,87.74350000000001,98.05,104.851,107.408,112.522,117.408,119.65050000000001,121.731,125.887,128.084,134.885,137.082,139.3245,141.441,146.748,151.141,156.256,158.4985,160.588,164.647,166.844,171.457,173.654,175.8965,178.012,180.938,183.495,187.889,193.003,197.889,200.13150000000002,202.221,207.59,209.786,212.0285,214.145,222.106,226.499,231.613,236.499,238.7415,240.831,243.757,245.954,248.19650000000001,250.312,255.681,258.238,260.4805,262.57,269.881,272.078,277.447,279.644,281.8865,284.002,292.341,297.64,299.8825,301.972,304.898,307.094,313.324,315.521,317.7635,319.88,327.841,332.05,337.164,339.4065,341.496,346.355,348.5975,350.687,355.265,362.594,365.151,370.265,373.191,376.504,381.301,383.858,386.4593,388.542,392.267,395.132,398.603,401.16,406.54200000000003,408.568,412.469,416.862,420.588,423.453,426.01,431.124,436.1472,438.145,442.943,445.9031,447.995,455.754,460.148,465.033,470.147,474.356,478.082,480.639,485.938,495.823,500.217,502.774,505.331,510.128,515.014" svgx:width="0.5,0.5,0.25,0.55,0.77,0.29,0.58,0.56,0.25,0.55,0.6,0.25,0.77,0.25,0.25,0.55,0.6,0.5,0.58,0.25,0.55,0.56,0.25,0.52,0.25,0.25,0.55,0.33,0.29,0.5,0.58,0.56,0.25,0.55,0.61,0.25,0.25,0.55,1.0,0.5,0.58,0.56,0.25,0.55,0.33,0.25,0.25,0.55,0.61,0.29,0.25,0.55,0.83,0.25,0.61,0.25,0.25,0.55,1.0,0.6,0.25,0.55,0.33,0.25,0.71,0.25,0.25,0.55,1.0,0.48,0.58,0.25,0.55,0.67,0.25,0.55,0.61,0.83,0.29,0.58,0.33,0.4,0.55,0.29,0.29,0.55,0.42,0.33,0.4,0.29,0.6,0.55,0.44,0.5,0.42,0.33,0.29,0.58,0.56,0.55,0.55,0.33,0.55,0.88,0.5,0.56,0.58,0.48,0.42,0.29,0.6,0.88,0.5,0.29,0.29,0.55,0.56,0.42" style="fill:rgb(0,0,0);font-family:URWPalladioL-Roma;font-size:8.97px;stroke:none;">24. Ding, P.D.; Pan, F.S.; Jiang, B.; Wang, J.; Li, H.L.; Wu, J.C.; Wen, Y. Twin-roll strip casting of magnesiumalloys</text>
   <text y="601.401" x="98.05,100.659,105.86160000000001,108.119,114.476,119.695,122.304,127.523,132.006" svgx:width="0.29,0.58,0.55,0.71,0.58,0.29,0.58,0.5,0.25" style="fill:rgb(0,0,0);font-family:URWPalladioL-Roma;font-size:8.97px;stroke:none;">in China.</text>
   <text y="601.401" x="137.027,141.51,144.998,148.979,153.965,157.452,159.6945,162.474,169.45,173.431,178.416,180.909,184.396,187.884,190.709,192.9515,195.73,204.194,207.682,210.668,212.9105,215.689,220.675,224.656,228.305,230.798,233.0405,235.819,241.799,246.283,248.775,253.761" svgx:width="0.61,0.39,0.44,0.56,0.39,0.25,0.55,0.78,0.44,0.56,0.28,0.39,0.39,0.39,0.25,0.55,0.94,0.39,0.33,0.25,0.55,0.56,0.44,0.41,0.28,0.25,0.55,0.67,0.5,0.28,0.56,0.44" style="fill:rgb(0,0,0);font-family:URWPalladioL-Ital;font-size:8.97px;stroke:none;">Trans. Nonferr. Met. Soci. China</text>
   <text y="601.401" x="259.981,264.464,268.947,273.431" svgx:width="0.5,0.5,0.5,0.5" style="fill:rgb(0,0,0);font-family:URWPalladioL-Bold;font-size:8.97px;stroke:none;">2008</text>
   <text y="601.401" x="277.914" svgx:width="0.25" style="fill:rgb(0,0,0);font-family:URWPalladioL-Roma;font-size:8.97px;stroke:none;">,</text>
   <text y="601.401" x="282.397,286.88" svgx:width="0.5,0.5" style="fill:rgb(0,0,0);font-family:URWPalladioL-Ital;font-size:8.97px;stroke:none;">18</text>
   <text y="601.401" x="291.363,293.6055,295.846,299.648,304.131,308.614,312.416,316.899,321.383,323.6255,326.404" svgx:width="0.25,0.55,0.42,0.5,0.5,0.42,0.5,0.5,0.25,0.55,0.33" style="fill:rgb(0,0,0);font-family:URWPalladioL-Roma;font-size:8.97px;stroke:none;">, s7–s11. [</text>
   <text y="601.401" x="329.39,335.747,339.127,344.023,347.825,351.626,357.616,361.911" svgx:width="0.71,0.4,0.55,0.42,0.42,0.67,0.48,0.33" style="fill:rgb(0,0,255);font-family:URWPalladioL-Roma;font-size:8.97px;stroke:none;">CrossRef</text>
   <text y="601.401" x="364.897" svgx:width="0.33" style="fill:rgb(0,0,0);font-family:URWPalladioL-Roma;font-size:8.97px;stroke:none;">]</text>
   <text y="614.312" x="76.535,81.018,85.501,87.74350000000001,98.05,105.659,111.174,113.41650000000001,115.802,121.902,124.188,131.267,133.554,135.7965,138.236,141.282,146.797,149.0395,151.424,158.503,160.79,165.893,168.179,170.4215,172.862,178.962,184.285,188.858,193.852,196.0945,198.479,206.089,208.3315,210.716,215.829,218.07150000000001,220.457,226.063,231.386,235.766,239.379,247.455,252.028,254.6293,257.03,262.591,267.584,275.0291,277.553,281.431,284.092,292.168,297.683,300.344,304.917,307.899,310.56,315.554,320.7566,323.218,328.211,331.1711,333.598,336.58,344.207,346.869,352.192,355.237,358.694,363.688,366.349,368.95029999999997,371.352,375.413,379.985,383.863,386.845,389.506,394.829,399.8522,402.255,410.331,414.904,419.989,425.312,429.692,433.57,436.232,441.746,449.6396,452.163,456.736,459.398,462.059,467.053,471.141" svgx:width="0.5,0.5,0.25,0.55,0.83,0.6,0.25,0.55,0.67,0.25,0.77,0.25,0.25,0.55,0.33,0.6,0.25,0.55,0.77,0.25,0.67,0.25,0.25,0.55,0.67,0.58,0.5,0.55,0.25,0.55,0.83,0.25,0.55,0.67,0.25,0.55,0.61,0.58,0.48,0.4,0.88,0.5,0.29,0.55,0.61,0.55,0.83,0.55,0.42,0.29,0.88,0.6,0.29,0.5,0.33,0.29,0.55,0.58,0.55,0.55,0.33,0.55,0.33,0.83,0.29,0.58,0.33,0.4,0.55,0.29,0.29,0.55,0.44,0.5,0.42,0.33,0.29,0.58,0.56,0.55,0.88,0.5,0.56,0.58,0.48,0.42,0.29,0.6,0.88,0.55,0.5,0.29,0.29,0.55,0.56,0.25" style="fill:rgb(0,0,0);font-family:URWPalladioL-Roma;font-size:8.97px;stroke:none;">25. Hu, X.D.; Ju, D.Y.; Zhao, H. Y. Thermal ﬂow simulation of twin-roll casting magnesium alloy.</text>
   <text y="614.312" x="476.513,479.559,481.80150000000003,484.186,489.271,493.844,497.905,502.99,507.563,512.136,516.196" svgx:width="0.33,0.25,0.55,0.56,0.5,0.44,0.56,0.5,0.5,0.44,0.28" style="fill:rgb(0,0,0);font-family:URWPalladioL-Ital;font-size:8.97px;stroke:none;">J. Shanghai</text>
   <text y="627.224" x="98.05,101.036,103.528,107.51,111.491,114.476,118.458,123.443,127.928,130.168,137.143,142.129,144.621,148.612,150.8545,153.633,158.618,162.267,164.76" svgx:width="0.33,0.28,0.44,0.44,0.33,0.44,0.56,0.5,0.55,0.78,0.56,0.28,0.5,0.25,0.55,0.56,0.41,0.28,0.25" style="fill:rgb(0,0,0);font-family:URWPalladioL-Ital;font-size:8.97px;stroke:none;">Jiaotong Univ. Sci.</text>
   <text y="627.224" x="169.781,174.264,178.747,183.231" svgx:width="0.5,0.5,0.5,0.5" style="fill:rgb(0,0,0);font-family:URWPalladioL-Bold;font-size:8.97px;stroke:none;">2012</text>
   <text y="627.224" x="187.713" svgx:width="0.25" style="fill:rgb(0,0,0);font-family:URWPalladioL-Roma;font-size:8.97px;stroke:none;">,</text>
   <text y="627.224" x="192.197,196.68" svgx:width="0.5,0.5" style="fill:rgb(0,0,0);font-family:URWPalladioL-Ital;font-size:8.97px;stroke:none;">17</text>
   <text y="627.224" x="201.163,203.40550000000002,205.646,210.129,214.613,219.096,223.579,228.062,232.545,237.029,239.2715,242.05" svgx:width="0.25,0.55,0.5,0.5,0.5,0.5,0.5,0.5,0.5,0.25,0.55,0.33" style="fill:rgb(0,0,0);font-family:URWPalladioL-Roma;font-size:8.97px;stroke:none;">, 479–483. [</text>
   <text y="627.224" x="245.036,251.393,254.773,259.669,263.471,267.272,273.262,277.557" svgx:width="0.71,0.4,0.55,0.42,0.42,0.67,0.48,0.33" style="fill:rgb(0,0,255);font-family:URWPalladioL-Roma;font-size:8.97px;stroke:none;">CrossRef</text>
   <text y="627.224" x="280.543" svgx:width="0.33" style="fill:rgb(0,0,0);font-family:URWPalladioL-Roma;font-size:8.97px;stroke:none;">]</text>
   <text y="640.136" x="76.535,81.018,85.501,87.74350000000001,98.05,105.659,110.232,115.317,119.89,122.13250000000001,126.137,131.084,133.371,135.61350000000002,140.477,145.279,150.784,155.357,160.872,165.957,168.618,170.8605,174.865,179.667,181.9095,185.922,194.574,198.955,201.616,204.57610000000003,208.558,212.939,215.079,219.46,223.511,226.493,229.154,234.148,239.3506,243.43,246.412,254.04,256.701,261.90360000000004,265.984,269.441,274.434,277.096,279.6973,283.717,287.778,292.351,296.229,299.21,303.591,307.17900000000003,311.164,314.209,319.203,322.791,326.775,329.757,335.08,339.3856,343.421,347.298,350.28,353.893,356.554,361.936,366.011,370.071,374.644,378.522,381.504,384.165,389.488,394.5112,398.533,403.526,406.4861,410.532,415.105,417.766,423.281,431.357,434.018,439.341,444.856,452.7496,456.892,461.465,464.126,466.787,471.781,475.869" svgx:width="0.5,0.5,0.25,0.55,0.83,0.5,0.56,0.5,0.25,0.55,0.61,0.25,0.25,0.55,0.52,0.6,0.5,0.6,0.56,0.29,0.25,0.55,0.52,0.25,0.55,0.95,0.48,0.29,0.33,0.55,0.48,0.23,0.48,0.44,0.33,0.29,0.55,0.58,0.55,0.33,0.83,0.29,0.58,0.55,0.4,0.55,0.29,0.29,0.55,0.44,0.5,0.42,0.33,0.48,0.4,0.55,0.33,0.55,0.4,0.55,0.33,0.58,0.48,0.55,0.42,0.33,0.4,0.29,0.6,0.55,0.44,0.5,0.42,0.33,0.29,0.58,0.56,0.55,0.55,0.33,0.55,0.5,0.29,0.6,0.88,0.29,0.58,0.6,0.88,0.55,0.5,0.29,0.29,0.55,0.56,0.25" style="fill:rgb(0,0,0);font-family:URWPalladioL-Roma;font-size:8.97px;stroke:none;">26. Haga, T.; Suzuki, S. Melt ejection twin roll caster for the strip casting of aluminum alloy.</text>
   <text y="640.136" x="486.091,489.137,491.3795,495.383,504.017,508.077,511.123,514.681,517.571" svgx:width="0.33,0.25,0.55,0.94,0.44,0.33,0.39,0.39,0.25" style="fill:rgb(0,0,0);font-family:URWPalladioL-Ital;font-size:8.97px;stroke:none;">J. Mater.</text>
   <text y="653.047" x="97.773,103.251,106.578,110.559,114.208,117.696,121.184,124.672,126.9145,129.155,133.639,137.127,140.776,145.259,150.244,154.225,156.718" svgx:width="0.61,0.39,0.44,0.41,0.39,0.39,0.39,0.25,0.55,0.61,0.39,0.41,0.5,0.56,0.44,0.28,0.25" style="fill:rgb(0,0,0);font-family:URWPalladioL-Ital;font-size:8.97px;stroke:none;">Process. Technol.</text>
   <text y="653.047" x="161.738,166.221,170.704,175.188" svgx:width="0.5,0.5,0.5,0.5" style="fill:rgb(0,0,0);font-family:URWPalladioL-Bold;font-size:8.97px;stroke:none;">2003</text>
   <text y="653.047" x="179.671" svgx:width="0.25" style="fill:rgb(0,0,0);font-family:URWPalladioL-Roma;font-size:8.97px;stroke:none;">,</text>
   <text y="653.047" x="184.154,188.637,193.12" svgx:width="0.5,0.5,0.5" style="fill:rgb(0,0,0);font-family:URWPalladioL-Ital;font-size:8.97px;stroke:none;">137</text>
   <text y="653.047" x="197.603,199.84550000000002,202.086,206.569,211.053,215.536,220.019,224.502,226.74450000000002,229.523" svgx:width="0.25,0.55,0.5,0.5,0.5,0.5,0.5,0.25,0.55,0.33" style="fill:rgb(0,0,0);font-family:URWPalladioL-Roma;font-size:8.97px;stroke:none;">, 92–95. [</text>
   <text y="653.047" x="232.509,238.866,242.247,247.142,250.944,254.746,260.735,265.03" svgx:width="0.71,0.4,0.55,0.42,0.42,0.67,0.48,0.33" style="fill:rgb(0,0,255);font-family:URWPalladioL-Roma;font-size:8.97px;stroke:none;">CrossRef</text>
   <text y="653.047" x="268.016" svgx:width="0.33" style="fill:rgb(0,0,0);font-family:URWPalladioL-Roma;font-size:8.97px;stroke:none;">]</text>
   <text y="665.959" x="76.535,81.018,85.501,87.74350000000001,98.05,102.8,108.255,113.521,115.76350000000001,118.026,123.545,125.806,132.845,135.107,137.3495,139.612,145.077,149.6,154.866,157.10850000000002,159.371,167.921,170.183,176.217,178.479,180.72150000000002,182.984,189.019,194.284,198.808,203.747,205.98950000000002,208.244,215.246,217.508,224.619,226.881,229.1235,231.386,239.61,244.134,249.399,254.429,256.6715,258.926,267.149,269.411,276.938,279.2,281.4425,283.706,289.74,292.373,294.6155,296.869,302.903,305.165,311.733,313.995,316.2375,318.501,323.25,327.774,333.039,338.567,343.507,346.411,348.6535,350.916,359.475,361.737,366.613,368.875,371.1175,373.38,381.975,387.431,389.6735,391.936,396.975,399.21750000000003,401.472,408.51,411.143,416.598,424.587,427.22,432.485,437.941,445.929,448.942,452.515,455.148,459.165,464.36760000000004,466.674,471.677,477.133,479.765,484.78819999999996,487.03,495.019,499.352,502.302,506.825,509.458,512.091,514.723" svgx:width="0.5,0.5,0.25,0.55,0.52,0.6,0.58,0.25,0.55,0.61,0.25,0.78,0.25,0.25,0.55,0.6,0.5,0.58,0.25,0.55,0.95,0.25,0.67,0.25,0.25,0.55,0.67,0.58,0.5,0.55,0.25,0.55,0.77,0.25,0.79,0.25,0.25,0.55,1.0,0.5,0.58,0.56,0.25,0.55,1.0,0.25,0.83,0.25,0.25,0.55,0.67,0.29,0.25,0.55,0.67,0.25,0.73,0.25,0.25,0.55,0.52,0.5,0.58,0.61,0.55,0.4,0.25,0.55,0.95,0.25,0.61,0.25,0.25,0.55,1.0,0.6,0.25,0.55,0.67,0.25,0.55,0.78,0.29,0.6,0.88,0.29,0.58,0.6,0.88,0.33,0.4,0.29,0.44,0.58,0.55,0.55,0.6,0.29,0.56,0.55,0.88,0.48,0.33,0.5,0.29,0.29,0.29,0.44" style="fill:rgb(0,0,0);font-family:URWPalladioL-Roma;font-size:8.97px;stroke:none;">27. Sun, B.A.; Pan, M.X.; Zhao, D.Q.; Wang, W.H.; Xi, X.K.; Sandor, M.T.; Wu, Y. Aluminum-rich bulk metallic</text>
   <text y="678.871" x="98.05,103.035,105.645,110.128,113.929,117.731,122.026,125.828" svgx:width="0.56,0.29,0.5,0.42,0.42,0.48,0.42,0.25" style="fill:rgb(0,0,0);font-family:URWPalladioL-Roma;font-size:8.97px;stroke:none;">glasses.</text>
   <text y="678.871" x="130.849,135.834,139.484,142.308,144.5505,147.329,155.794,159.775,162.76,166.248,169.073" svgx:width="0.56,0.41,0.39,0.25,0.55,0.94,0.44,0.33,0.39,0.39,0.25" style="fill:rgb(0,0,0);font-family:URWPalladioL-Ital;font-size:8.97px;stroke:none;">Scr. Mater.</text>
   <text y="678.871" x="174.093,178.576,183.059,187.543" svgx:width="0.5,0.5,0.5,0.5" style="fill:rgb(0,0,0);font-family:URWPalladioL-Bold;font-size:8.97px;stroke:none;">2008</text>
   <text y="678.871" x="192.026" svgx:width="0.25" style="fill:rgb(0,0,0);font-family:URWPalladioL-Roma;font-size:8.97px;stroke:none;">,</text>
   <text y="678.871" x="196.509,200.992" svgx:width="0.5,0.5" style="fill:rgb(0,0,0);font-family:URWPalladioL-Ital;font-size:8.97px;stroke:none;">59</text>
   <text y="678.871" x="205.476,207.7185,209.959,214.442,218.926,223.409,227.892,232.375,236.858,241.342,245.825,250.308,252.5505,255.329" svgx:width="0.25,0.55,0.5,0.5,0.5,0.5,0.5,0.5,0.5,0.5,0.5,0.25,0.55,0.33" style="fill:rgb(0,0,0);font-family:URWPalladioL-Roma;font-size:8.97px;stroke:none;">, 1159–1162. [</text>
   <text y="678.871" x="258.315,264.672,268.052,272.948,276.75,280.552,286.541,290.836" svgx:width="0.71,0.4,0.55,0.42,0.42,0.67,0.48,0.33" style="fill:rgb(0,0,255);font-family:URWPalladioL-Roma;font-size:8.97px;stroke:none;">CrossRef</text>
   <text y="678.871" x="293.822" svgx:width="0.33" style="fill:rgb(0,0,0);font-family:URWPalladioL-Roma;font-size:8.97px;stroke:none;">]</text>
   <text y="691.782" x="76.535,81.018,85.501,87.74350000000001,98.05,104.534,109.857,114.238,119.561,121.80350000000001,124.234,130.334,132.621,136.993,139.279,141.5215,144.026,151.004,155.577,160.57,162.8125,165.244,168.289,170.576,176.164,178.45,180.6925,183.197,191.894,197.409,199.6515,202.083,207.186,209.472,211.71450000000002,214.219,222.542,227.115,232.437,237.522,239.7645,242.196,249.805,252.092,254.33450000000002,256.838,262.426,265.088,270.603,272.8455,275.276,281.376,283.663,286.708,288.995,291.2375,293.75,299.338,304.853,307.0955,309.527,315.627,317.913,322.276,324.5185,326.949,334.028,338.409,342.287,344.948,350.033,355.356,358.017,363.34,368.36319999999995,370.812,376.135,381.129,386.296,390.677,393.2783,395.725,400.783,406.298,408.959,413.9822,416.44,424.516,428.897,431.878,436.451,439.103,441.765,444.426,448.3728,450.883,455.968,458.629,463.202,467.08,470.8474,473.345,477.406,482.399,490.475,495.971,500.965,504.843,507.504,510.486,514.867" svgx:width="0.5,0.5,0.25,0.55,0.71,0.58,0.48,0.58,0.25,0.55,0.67,0.25,0.6,0.25,0.25,0.55,0.76,0.5,0.55,0.25,0.55,0.33,0.25,0.61,0.25,0.25,0.55,1.0,0.6,0.25,0.55,0.67,0.25,0.25,0.55,1.0,0.5,0.58,0.56,0.25,0.55,0.83,0.25,0.25,0.55,0.61,0.29,0.6,0.25,0.55,0.67,0.25,0.33,0.25,0.25,0.55,0.61,0.6,0.25,0.55,0.67,0.25,0.6,0.25,0.55,0.77,0.48,0.42,0.29,0.56,0.58,0.29,0.58,0.56,0.55,0.58,0.55,0.56,0.48,0.29,0.55,0.55,0.6,0.29,0.56,0.55,0.88,0.48,0.33,0.5,0.29,0.29,0.29,0.44,0.55,0.56,0.29,0.5,0.42,0.42,0.55,0.44,0.55,0.88,0.6,0.55,0.42,0.29,0.33,0.48,0.42" style="fill:rgb(0,0,0);font-family:URWPalladioL-Roma;font-size:8.97px;stroke:none;">28. Chen, Z.P.; Gao, J.E.; Wu, Y.; Wang, H.; Liu, X.J.; Lu, Z.P. Designing novel bulk metallic glass composites</text>
   <text y="704.694" x="97.674,105.152,107.761,110.684,115.8866,118.144,122.629,124.869,130.088,132.697,137.682,142.88459999999998,145.142,149.625,152.235,157.641,165.559,168.168,173.386,178.793,188.952,192.933,197.829,203.047,205.97,210.265,215.484,218.407" svgx:width="0.83,0.29,0.33,0.58,0.55,0.5,0.55,0.58,0.29,0.56,0.58,0.55,0.5,0.29,0.6,0.88,0.29,0.58,0.6,0.88,0.44,0.55,0.58,0.33,0.48,0.58,0.33,0.25" style="fill:rgb(0,0,0);font-family:URWPalladioL-Roma;font-size:8.97px;stroke:none;">with a high aluminumcontent.</text>
   <text y="704.694" x="223.426,228.411,232.061,234.553,236.7955,239.574,245.555,249.043,253.526" svgx:width="0.56,0.41,0.28,0.25,0.55,0.67,0.39,0.5,0.25" style="fill:rgb(0,0,0);font-family:URWPalladioL-Ital;font-size:8.97px;stroke:none;">Sci. Rep.</text>
   <text y="704.694" x="258.547,263.03,267.513,271.997" svgx:width="0.5,0.5,0.5,0.5" style="fill:rgb(0,0,0);font-family:URWPalladioL-Bold;font-size:8.97px;stroke:none;">2013</text>
   <text y="704.694" x="276.479" svgx:width="0.25" style="fill:rgb(0,0,0);font-family:URWPalladioL-Roma;font-size:8.97px;stroke:none;">,</text>
   <text y="704.694" x="280.963" svgx:width="0.5" style="fill:rgb(0,0,0);font-family:URWPalladioL-Ital;font-size:8.97px;stroke:none;">3</text>
   <text y="704.694" x="285.446,287.68850000000003,290.467" svgx:width="0.25,0.55,0.33" style="fill:rgb(0,0,0);font-family:URWPalladioL-Roma;font-size:8.97px;stroke:none;">. [</text>
   <text y="704.694" x="293.453,299.81,303.19,308.086,311.888,315.69,321.679,325.974" svgx:width="0.71,0.4,0.55,0.42,0.42,0.67,0.48,0.33" style="fill:rgb(0,0,255);font-family:URWPalladioL-Roma;font-size:8.97px;stroke:none;">CrossRef</text>
   <text y="704.694" x="328.96,331.9201,334.187" svgx:width="0.33,0.55,0.33" style="fill:rgb(0,0,0);font-family:URWPalladioL-Roma;font-size:8.97px;stroke:none;">] [</text>
   <text y="704.694" x="337.173,342.589,347.996,352.954,361.436,365.731" svgx:width="0.6,0.6,0.55,0.95,0.48,0.61" style="fill:rgb(0,0,255);font-family:URWPalladioL-Roma;font-size:8.97px;stroke:none;">PubMed</text>
   <text y="704.694" x="371.21" svgx:width="0.33" style="fill:rgb(0,0,0);font-family:URWPalladioL-Roma;font-size:8.97px;stroke:none;">]</text>
   <text y="717.605" x="76.535,81.018,85.501,87.74350000000001,98.05,102.833,107.406,112.491,116.872,122.387,126.447,131.77,134.432,136.6745,140.184,147.3,149.586,151.82850000000002,155.952,159.034,164.357,169.35,174.865,179.246,181.48850000000002,185.008,192.123,194.3655,197.876,203.464,208.631,213.204,215.865,221.38,225.953,228.935,231.596,236.59,241.7926,245.379,250.372,253.33210000000003,256.884,263.862,266.523,271.096,274.974,278.852,281.897,286.982,291.976,295.589,303.664,306.326,311.648,316.6712,320.2,327.315,332.373,335.034,337.695,340.357,343.338,348.3612,351.89,354.935,359.929,363.517,367.017,375.669,380.049,383.031,387.604,390.265,392.927,395.588,399.5348,403.115,410.093,412.754,417.327,421.205,425.083,429.464,433.2314,436.808,439.853,443.301,448.295,456.1886,459.846,464.958,467.62,475.695,480.076,483.122,489.231,493.612,499.2,504.715,508.775,513.156" svgx:width="0.5,0.5,0.25,0.55,0.61,0.5,0.56,0.48,0.6,0.44,0.58,0.29,0.25,0.55,0.78,0.25,0.25,0.55,0.34,0.58,0.55,0.6,0.48,0.25,0.55,0.78,0.25,0.55,0.61,0.56,0.5,0.29,0.6,0.5,0.33,0.29,0.55,0.58,0.55,0.55,0.33,0.55,0.76,0.29,0.5,0.42,0.42,0.33,0.56,0.55,0.4,0.88,0.29,0.58,0.56,0.55,0.78,0.55,0.29,0.29,0.29,0.33,0.56,0.55,0.33,0.55,0.4,0.55,0.95,0.48,0.33,0.5,0.29,0.29,0.29,0.44,0.55,0.76,0.29,0.5,0.42,0.42,0.48,0.42,0.55,0.33,0.4,0.55,0.88,0.55,0.61,0.29,0.88,0.48,0.33,0.67,0.48,0.61,0.6,0.44,0.48,0.61" style="fill:rgb(0,0,0);font-family:URWPalladioL-Roma;font-size:8.97px;stroke:none;">29. Takeuchi, A.; Inoue, A. Evaluation of Glass-Forming Ability for Metallic Glasses from Time-Reduced</text>
   <text y="730.517" x="97.773,102.445,106.739,114.657,120.046,124.34,127.882,132.365,135.288,140.695,144.076,148.37,151.356,156.046,159.587,164.071,169.289,173.091,176.077,180.972,184.514,192.431,196.915,199.838,202.447,207.342,212.5446,214.802,221.742,224.352,228.835,233.82,237.362,241.845,249.762" svgx:width="0.61,0.48,0.88,0.6,0.48,0.4,0.5,0.33,0.6,0.4,0.48,0.33,0.61,0.4,0.5,0.58,0.42,0.33,0.55,0.4,0.88,0.5,0.33,0.29,0.55,0.58,0.55,0.77,0.29,0.5,0.56,0.4,0.5,0.88,0.25" style="fill:rgb(0,0,0);font-family:URWPalladioL-Roma;font-size:8.97px;stroke:none;">Temperature-Transformation Diagram.</text>
   <text y="730.517" x="254.781,263.245,267.226,270.212,273.7,276.525,278.7675,281.546,286.029,289.517,293.498,298.483,301.971" svgx:width="0.94,0.44,0.33,0.39,0.39,0.25,0.55,0.61,0.39,0.44,0.56,0.39,0.25" style="fill:rgb(0,0,0);font-family:URWPalladioL-Ital;font-size:8.97px;stroke:none;">Mater. Trans.</text>
   <text y="730.517" x="306.992,311.475,315.958,320.442" svgx:width="0.5,0.5,0.5,0.5" style="fill:rgb(0,0,0);font-family:URWPalladioL-Bold;font-size:8.97px;stroke:none;">2001</text>
   <text y="730.517" x="324.924" svgx:width="0.25" style="fill:rgb(0,0,0);font-family:URWPalladioL-Roma;font-size:8.97px;stroke:none;">,</text>
   <text y="730.517" x="329.408,333.891" svgx:width="0.5,0.5" style="fill:rgb(0,0,0);font-family:URWPalladioL-Ital;font-size:8.97px;stroke:none;">42</text>
   <text y="730.517" x="338.374,340.61650000000003,342.857,347.34,351.824,356.307,360.79,365.273,369.757,374.24,378.723,383.206,385.4485,388.227" svgx:width="0.25,0.55,0.5,0.5,0.5,0.5,0.5,0.5,0.5,0.5,0.5,0.25,0.55,0.33" style="fill:rgb(0,0,0);font-family:URWPalladioL-Roma;font-size:8.97px;stroke:none;">, 2374–2381. [</text>
   <text y="730.517" x="391.213,397.57,400.951,405.846,409.648,413.45,419.439,423.734" svgx:width="0.71,0.4,0.55,0.42,0.42,0.67,0.48,0.33" style="fill:rgb(0,0,255);font-family:URWPalladioL-Roma;font-size:8.97px;stroke:none;">CrossRef</text>
   <text y="730.517" x="426.72" svgx:width="0.33" style="fill:rgb(0,0,0);font-family:URWPalladioL-Roma;font-size:8.97px;stroke:none;">]</text>
   <text y="743.429" x="76.535,81.018,85.501,87.74350000000001,98.054,105.03,110.249,112.858,120.775,125.258,130.477,135.695,137.9375,140.179,147.119,149.36,155.35,157.5925,159.833,166.8296,169.05,174.036,176.636,181.854,186.149,189.072,191.682,195.62879999999998,197.904,200.827,204.208,208.503,212.986,215.909,223.826,228.121,233.339,236.2991,238.504,243.4,246.36010000000002,248.627,253.613,256.222,260.705,264.507,268.2744,270.55,273.536,278.432,281.973,289.891,294.374,297.297,299.906,304.802,310.02" svgx:width="0.5,0.5,0.25,0.55,0.78,0.58,0.29,0.88,0.5,0.58,0.58,0.25,0.55,0.77,0.25,0.67,0.25,0.55,0.78,0.55,0.56,0.29,0.58,0.48,0.33,0.29,0.44,0.55,0.33,0.4,0.48,0.5,0.33,0.88,0.48,0.58,0.33,0.55,0.55,0.33,0.55,0.56,0.29,0.5,0.42,0.42,0.55,0.33,0.55,0.4,0.88,0.5,0.33,0.29,0.55,0.58,0.25" style="fill:rgb(0,0,0);font-family:URWPalladioL-Roma;font-size:8.97px;stroke:none;">30. Uhlmann, D.R. A kinetic treatment of glass formation.</text>
   <text y="743.429" x="315.043,318.029,320.2715,322.512,329.488,333.469,338.454,341.44,347.421,350.909,355.392,358.88,361.866,364.1085,366.887,371.872,375.853,378.346,380.838,385.322" svgx:width="0.33,0.25,0.55,0.78,0.44,0.56,0.33,0.67,0.39,0.5,0.39,0.33,0.25,0.55,0.56,0.44,0.28,0.28,0.5,0.39" style="fill:rgb(0,0,0);font-family:URWPalladioL-Ital;font-size:8.97px;stroke:none;">J. Non-Cryst. Solids</text>
   <text y="743.429" x="391.05,395.533,400.016,404.5" svgx:width="0.5,0.5,0.5,0.5" style="fill:rgb(0,0,0);font-family:URWPalladioL-Bold;font-size:8.97px;stroke:none;">1972</text>
   <text y="743.429" x="408.983" svgx:width="0.25" style="fill:rgb(0,0,0);font-family:URWPalladioL-Roma;font-size:8.97px;stroke:none;">,</text>
   <text y="743.429" x="413.466" svgx:width="0.5" style="fill:rgb(0,0,0);font-family:URWPalladioL-Ital;font-size:8.97px;stroke:none;">7</text>
   <text y="743.429" x="417.949,420.1915,422.432,426.915,431.399,435.882,440.365,444.848,449.332,453.815,456.0575,458.836" svgx:width="0.25,0.55,0.5,0.5,0.5,0.5,0.5,0.5,0.5,0.25,0.55,0.33" style="fill:rgb(0,0,0);font-family:URWPalladioL-Roma;font-size:8.97px;stroke:none;">, 337–348. [</text>
   <text y="743.429" x="461.822,468.179,471.559,476.455,480.257,484.058,490.048,494.343" svgx:width="0.71,0.4,0.55,0.42,0.42,0.67,0.48,0.33" style="fill:rgb(0,0,255);font-family:URWPalladioL-Roma;font-size:8.97px;stroke:none;">CrossRef</text>
   <text y="743.429" x="497.329" svgx:width="0.33" style="fill:rgb(0,0,0);font-family:URWPalladioL-Roma;font-size:8.97px;stroke:none;">]</text>
   <text y="756.34" x="76.535,81.018,85.501,87.74350000000001,98.05,103.638,108.019,112.4,114.64250000000001,117.283,122.085,124.371,129.959,132.246,134.48850000000002,137.303,143.943,146.605,154.68,156.9225,159.555,167.155,169.442,172.487,174.7295,177.371,184.011,186.672,191.995,196.376,199.357,202.019,206.079,209.84640000000002,212.555,217.548,220.5081,223.182,227.243,230.855,235.94,239.818,242.799,247.372,250.034,252.695,255.357,259.929,264.502,267.484,270.145,275.139,280.3416,283.059,285.72,290.92260000000005,293.641,297.701,302.695,308.018,310.999,313.661,318.983,324.498,329.492,335.007,338.884,341.546,346.56919999999997,349.219,353.28,358.273,363.267,365.928,370.309,375.7807,378.495,384.083,392.734,399.713" svgx:width="0.5,0.5,0.25,0.55,0.61,0.48,0.48,0.25,0.55,0.52,0.25,0.61,0.25,0.25,0.55,0.73,0.29,0.88,0.25,0.55,0.83,0.25,0.33,0.25,0.55,0.73,0.29,0.58,0.48,0.33,0.29,0.44,0.42,0.55,0.55,0.33,0.55,0.44,0.4,0.56,0.42,0.33,0.5,0.29,0.29,0.29,0.5,0.5,0.33,0.29,0.55,0.58,0.55,0.29,0.58,0.55,0.44,0.55,0.58,0.33,0.29,0.58,0.6,0.55,0.6,0.42,0.29,0.56,0.55,0.44,0.55,0.55,0.29,0.48,0.61,0.55,0.61,0.95,0.76,0.25" style="fill:rgb(0,0,0);font-family:URWPalladioL-Roma;font-size:8.97px;stroke:none;">31. Lee, S.B.; Kim, N.J. Kinetics of crystallization in continuously cooled BMG.</text>
   <text y="756.34" x="404.594,413.228,417.288,420.334,423.891,426.782,429.0245,432.909,437.994,441.717,444.259,446.5015,450.387,455.975,461.06,465.633,467.8755,471.76" svgx:width="0.94,0.44,0.33,0.39,0.39,0.25,0.55,0.56,0.41,0.28,0.25,0.55,0.61,0.56,0.5,0.25,0.55,0.72" style="fill:rgb(0,0,0);font-family:URWPalladioL-Ital;font-size:8.97px;stroke:none;">Mater. Sci. Eng. A</text>
   <text y="756.34" x="480.954,485.437,489.92,494.404" svgx:width="0.5,0.5,0.5,0.5" style="fill:rgb(0,0,0);font-family:URWPalladioL-Bold;font-size:8.97px;stroke:none;">2005</text>
   <text y="756.34" x="498.887" svgx:width="0.25" style="fill:rgb(0,0,0);font-family:URWPalladioL-Roma;font-size:8.97px;stroke:none;">,</text>
   <text y="756.34" x="503.856,508.429,513.002" svgx:width="0.5,0.5,0.5" style="fill:rgb(0,0,0);font-family:URWPalladioL-Ital;font-size:8.97px;stroke:none;">404</text>
   <text y="756.34" x="517.575" svgx:width="0.25" style="fill:rgb(0,0,0);font-family:URWPalladioL-Roma;font-size:8.97px;stroke:none;">,</text>
   <text y="769.252" x="97.602,102.085,106.568,111.052,115.535,120.018,124.501,128.984,131.22650000000002,134.006" svgx:width="0.5,0.5,0.5,0.5,0.5,0.5,0.5,0.25,0.55,0.33" style="fill:rgb(0,0,0);font-family:URWPalladioL-Roma;font-size:8.97px;stroke:none;">153–158. [</text>
   <text y="769.252" x="136.991,143.349,146.729,151.625,155.426,159.228,165.218,169.513" svgx:width="0.71,0.4,0.55,0.42,0.42,0.67,0.48,0.33" style="fill:rgb(0,0,255);font-family:URWPalladioL-Roma;font-size:8.97px;stroke:none;">CrossRef</text>
   <text y="769.252" x="172.498" svgx:width="0.33" style="fill:rgb(0,0,0);font-family:URWPalladioL-Roma;font-size:8.97px;stroke:none;">]</text>
  </g>
 </g>
</svg>
