<?xml version="1.0" encoding="UTF-8"?>
<svg height="722.258" width="2592.838" xmlns="http://www.w3.org/2000/svg">
 <g id="page" xmlns:svgx="http://www.xml-cml.org/schema/svgx">
  <g begin="text">
   <text y="62.979" x="76.535,84.059,87.598,90.252,93.352,96.452,98.668,102.207,104.422" svgx:width="0.94,0.44,0.33,0.39,0.39,0.28,0.44,0.28,0.39" style="fill:rgb(0,0,0);font-family:URWPalladioL-Ital;font-size:7.97px;stroke:none;">Materials</text>
   <text y="62.979" x="109.515,113.5,117.485,121.47" svgx:width="0.5,0.5,0.5,0.5" style="fill:rgb(0,0,0);font-family:URWPalladioL-Bold;font-size:7.97px;stroke:none;">2020</text>
   <text y="62.979" x="125.455" svgx:width="0.25" style="fill:rgb(0,0,0);font-family:URWPalladioL-Roma;font-size:7.97px;stroke:none;">,</text>
   <text y="62.979" x="129.44,133.425" svgx:width="0.5,0.5" style="fill:rgb(0,0,0);font-family:URWPalladioL-Ital;font-size:7.97px;stroke:none;">13</text>
   <text y="62.979" x="137.41,139.4025,141.395,145.38,149.365,153.35,157.335,491.809,495.794,499.779,501.772,506.123,508.7531,510.77,514.755" svgx:width="0.25,0.55,0.5,0.5,0.5,0.5,0.55,0.5,0.5,0.55,0.55,0.33,0.55,0.5,0.5" style="fill:rgb(0,0,0);font-family:URWPalladioL-Roma;font-size:7.97px;stroke:none;">, 5585 12 of 21</text>
  </g>
  <rect style="fill:pink;opacity:0.2;stroke:blue;stroke-width:0.3;" x="82.838" y="45.995" height="174.24" width="429.6" title="12"/>
  <text y="45.995" class="image" id="image.12.1" width="429" height="174" x="82.838" style="font-size:5.0px;">image.12.1.83_512.46_220</text>
  <g begin="text">
   <text y="277.078" x="97.795,102.78,105.766,110.751,116.23,119.718,124.203,127.393,131.876,136.359" svgx:width="0.56,0.33,0.56,0.61,0.39,0.5,0.55,0.5,0.5,0.25" style="fill:rgb(0,0,0);font-family:URWPalladioL-Bold;font-size:8.97px;stroke:none;">Figure 10.</text>
   <text y="277.078" x="144.575" svgx:width="0.33" style="fill:rgb(0,0,0);font-family:URWPalladioL-Roma;font-size:8.97px;stroke:none;">(</text>
   <text y="277.078" x="147.621" svgx:width="0.5" style="fill:rgb(0,0,0);font-family:URWPalladioL-Bold;font-size:8.97px;stroke:none;">a</text>
   <text y="277.078" x="152.104,155.06410000000002,158.341,165.42,169.801,175.298,179.678,185.001,190.589,194.97,200.293,204.354,208.6596,211.917,216.975,221.355,224.337,231.964,236.345,240.726,245.9286,249.241,251.902" svgx:width="0.33,0.55,0.77,0.48,0.6,0.48,0.58,0.61,0.48,0.58,0.44,0.48,0.55,0.55,0.48,0.33,0.83,0.48,0.48,0.58,0.55,0.29,0.58" style="fill:rgb(0,0,0);font-family:URWPalladioL-Roma;font-size:8.97px;stroke:none;">) Dependence between ln</text>
   <text y="270.959" x="262.596" svgx:width="0.25" style="fill:rgb(0,0,0);font-family:URWPalladioL-Roma;font-size:6.97px;stroke:none;">.</text>
   <text y="277.078" x="260.41" svgx:width="0.68" style="fill:rgb(0,0,0);font-family:Rpxmi;font-size:8.97px;stroke:none;">ϕ</text>
   <text y="277.078" x="269.713,274.286,279.609,285.0807,288.389,291.05" svgx:width="0.5,0.58,0.61,0.55,0.29,0.58" style="fill:rgb(0,0,0);font-family:URWPalladioL-Roma;font-size:8.97px;stroke:none;">and ln</text>
   <text y="277.078" x="296.369" svgx:width="0.55" style="fill:rgb(0,0,0);font-family:Rpxmi;font-size:8.97px;stroke:none;">σ</text>
   <text y="277.078" x="304.516,307.562,312.555,316.14300000000003,319.359,324.948,329.328,332.941,335.602,340.77,345.342,348.324,350.976,355.97,361.17260000000005,364.484,369.478" svgx:width="0.33,0.55,0.4,0.55,0.61,0.48,0.4,0.29,0.56,0.5,0.33,0.29,0.55,0.58,0.55,0.55,0.33" style="fill:rgb(0,0,0);font-family:URWPalladioL-Roma;font-size:8.97px;stroke:none;">for derivation of</text>
   <text y="277.078" x="375.713,380.797" svgx:width="0.56,0.33" style="fill:rgb(0,0,0);font-family:URWPalladioL-Ital;font-size:8.97px;stroke:none;">n´</text>
   <text y="277.078" x="387.088,392.585,397.157,400.77,405.343,413.419,417.799,420.781,425.162,428.107,430.34950000000003,433.823" svgx:width="0.6,0.5,0.4,0.5,0.88,0.48,0.33,0.48,0.4,0.25,0.55,0.33" style="fill:rgb(0,0,0);font-family:URWPalladioL-Roma;font-size:8.97px;stroke:none;">parameter, (</text>
   <text y="277.078" x="436.867" svgx:width="0.61" style="fill:rgb(0,0,0);font-family:URWPalladioL-Bold;font-size:8.97px;stroke:none;">b</text>
   <text y="277.078" x="442.345,445.30510000000004,448.582,454.17,458.551,464.048,468.429,473.751,479.339,483.72,489.043,493.104" svgx:width="0.33,0.55,0.61,0.48,0.6,0.48,0.58,0.61,0.48,0.58,0.44,0.48" style="fill:rgb(0,0,0);font-family:URWPalladioL-Roma;font-size:8.97px;stroke:none;">) dependence</text>
   <text y="289.9" x="97.795,102.753,107.048,109.971,117.449,121.744,126.039,131.2416,133.499,136.108" svgx:width="0.55,0.48,0.33,0.83,0.48,0.48,0.58,0.55,0.29,0.58" style="fill:rgb(0,0,0);font-family:URWPalladioL-Roma;font-size:8.97px;stroke:none;">between ln</text>
   <text y="283.781" x="145.754" svgx:width="0.25" style="fill:rgb(0,0,0);font-family:URWPalladioL-Roma;font-size:6.97px;stroke:none;">.</text>
   <text y="289.9" x="143.568" svgx:width="0.68" style="fill:rgb(0,0,0);font-family:Rpxmi;font-size:8.97px;stroke:none;">ϕ</text>
   <text y="289.9" x="151.925,156.408,161.627" svgx:width="0.5,0.58,0.61" style="fill:rgb(0,0,0);font-family:URWPalladioL-Roma;font-size:8.97px;stroke:none;">and</text>
   <text y="289.9" x="169.346" svgx:width="0.55" style="fill:rgb(0,0,0);font-family:Rpxmi;font-size:8.97px;stroke:none;">σ</text>
   <text y="289.9" x="176.546,179.532,184.427,188.015,190.211,195.689,199.984,203.526,206.135,211.201,215.684,218.607,221.217,226.112,231.31459999999998,233.572,238.468" svgx:width="0.33,0.55,0.4,0.55,0.61,0.48,0.4,0.29,0.56,0.5,0.33,0.29,0.55,0.58,0.55,0.55,0.33" style="fill:rgb(0,0,0);font-family:URWPalladioL-Roma;font-size:8.97px;stroke:none;">for derivation of</text>
   <text y="289.9" x="243.694" svgx:width="0.51" style="fill:rgb(0,0,0);font-family:Rpxmi;font-size:8.97px;stroke:none;">β</text>
   <text y="289.9" x="250.536,255.925,260.408,263.95,268.433,276.35,280.645,283.568,287.863,290.741" svgx:width="0.6,0.5,0.4,0.5,0.88,0.48,0.33,0.48,0.4,0.25" style="fill:rgb(0,0,0);font-family:URWPalladioL-Roma;font-size:8.97px;stroke:none;">parameter.</text>
   <text y="313.234" x="97.795,103.815,108.742,112.919,117.639,123.71459999999999,126.162,131.542,137.3188,139.769,145.789,151.307,157.248,162.175,165.387,168.254,173.634,179.4108,181.871,185.152,190.078,195.005,198.286,200.776,203.252,208.232,210.671,216.691,221.411,227.333,232.052,237.787,243.807,248.526,254.261,258.635,263.4158,265.858,274.075,279.002,283.1852,285.682,290.057,293.771,298.491,303.417,306.629,311.349,317.4246,319.862,323.143,328.621,331.489,336.967,342.908,346.623" svgx:width="0.61,0.5,0.42,0.48,0.61,0.55,0.55,0.58,0.55,0.61,0.56,0.6,0.5,0.33,0.29,0.55,0.58,0.55,0.33,0.5,0.5,0.33,0.25,0.55,0.5,0.55,0.61,0.48,0.6,0.48,0.58,0.61,0.48,0.58,0.44,0.48,0.55,0.83,0.5,0.42,0.55,0.44,0.4,0.48,0.5,0.33,0.48,0.61,0.55,0.33,0.56,0.29,0.56,0.6,0.4,0.48" style="fill:rgb(0,0,0);font-family:URWPalladioL-Roma;font-size:9.96px;stroke:none;">Based on Equation (14), a dependence was created (Figure</text>
   <text y="313.234" x="353.845,358.772" svgx:width="0.5,0.5" style="fill:rgb(8,117,183);font-family:URWPalladioL-Roma;font-size:9.96px;stroke:none;">11</text>
   <text y="313.234" x="363.698,368.625,371.906,374.396,376.862,380.143,383.857,389.237,400.44,408.657,414.392,417.259,421.634,427.4108,429.871,433.083,438.817,443.5978,446.03,451.952,456.878,460.77,465.697,474.397,479.116,482.328,487.048" svgx:width="0.5,0.33,0.25,0.55,0.33,0.4,0.55,0.88,0.83,0.58,0.29,0.44,0.58,0.55,0.33,0.58,0.48,0.55,0.6,0.5,0.4,0.5,0.88,0.48,0.33,0.48,0.4" style="fill:rgb(0,0,0);font-family:URWPalladioL-Roma;font-size:9.96px;stroke:none;">a), fromwhich the parameter</text>
   <text y="313.234" x="493.441" svgx:width="0.56" style="fill:rgb(0,0,0);font-family:URWPalladioL-Ital;font-size:9.96px;stroke:none;">n</text>
   <text y="313.234" x="501.419,509.636,514.563" svgx:width="0.83,0.5,0.42" style="fill:rgb(0,0,0);font-family:URWPalladioL-Roma;font-size:9.96px;stroke:none;">was</text>
   <text y="326.743" x="76.535,82.61,87.373,90.614,95.376,99.304,108.083,110.976,116.763,121.526,127.60159999999999,130.096,135.068,139.2512,141.789,145.03,150.817,155.5978,158.075,163.046,168.664,173.426,177.354,182.325,187.853,192.6338,195.111,200.54,203.8268,206.357,209.598,215.384,220.16479999999999,222.643,226.391,231.154,235.568,238.461,244.437,248.185,253.614,258.029,263.0,265.8884,268.389,274.006,278.978,281.871,287.867,292.629,296.8122,299.35,304.779,308.0658,310.586,313.479,316.372,322.159,326.921,331.893,335.87699999999995,338.316,344.331,347.572,350.814,353.707,359.494,365.022,369.2052,371.743" svgx:width="0.61,0.48,0.33,0.48,0.4,0.88,0.29,0.58,0.48,0.61,0.55,0.5,0.42,0.55,0.33,0.58,0.48,0.55,0.5,0.56,0.48,0.4,0.5,0.56,0.48,0.55,0.55,0.33,0.55,0.33,0.58,0.48,0.55,0.4,0.48,0.44,0.29,0.6,0.4,0.55,0.44,0.5,0.29,0.55,0.56,0.5,0.29,0.6,0.48,0.42,0.55,0.55,0.33,0.55,0.29,0.29,0.58,0.48,0.5,0.4,0.55,0.61,0.33,0.33,0.29,0.58,0.56,0.42,0.55,0.33" style="fill:rgb(0,0,0);font-family:URWPalladioL-Roma;font-size:9.96px;stroke:none;">determined as the average of the reciprocal values of linear ﬁttings (</text>
   <text y="326.743" x="375.052" svgx:width="0.56" style="fill:rgb(0,0,0);font-family:URWPalladioL-Ital;font-size:9.96px;stroke:none;">n</text>
   <text y="326.743" x="383.08" svgx:width="0.67" style="fill:rgb(0,0,0);font-family:Rpxi;font-size:9.96px;stroke:none;">=</text>
   <text y="326.743" x="392.231,397.202,399.688,404.659,409.631,414.602,417.913,420.403,423.908,430.003,435.79,440.5708,443.058,448.029,452.444,455.685,458.578,464.196,469.167,472.409,475.302,480.731,486.5078,489.013,493.776,499.562,504.325,508.073,513.601" svgx:width="0.5,0.25,0.5,0.5,0.5,0.33,0.25,0.55,0.61,0.58,0.48,0.55,0.5,0.44,0.33,0.29,0.56,0.5,0.33,0.29,0.55,0.58,0.55,0.48,0.58,0.48,0.4,0.56,0.56" style="fill:rgb(0,0,0);font-family:URWPalladioL-Roma;font-size:9.96px;stroke:none;">3.564). The activation energy</text>
   <text y="340.252" x="76.256,81.84,86.781,89.657,95.617" svgx:width="0.56,0.5,0.29,0.6,0.48" style="fill:rgb(0,0,0);font-family:URWPalladioL-Roma;font-size:9.96px;stroke:none;">value</text>
   <text y="340.252" x="102.848" svgx:width="0.78" style="fill:rgb(0,0,0);font-family:URWPalladioL-Ital;font-size:9.96px;stroke:none;">Q</text>
   <text y="340.252" x="113.035,115.911,120.0942,122.602,128.64,133.374,136.596,141.33,145.233,153.96,156.836,162.588,167.322,173.3976,175.851,181.316,186.257,190.448,195.182,201.2576,203.72,209.117,214.8938,217.369,220.591,226.342,231.1228,233.577,239.072,242.975,247.917,253.856,259.608,262.484,266.872,271.814,274.7024,277.18,283.218,287.952,293.892,298.626,304.378,310.416,315.15,320.902,325.29,330.0708,332.524,336.715,342.466,347.863,356.105,361.8818,364.357,367.233,373.0098,375.475,380.97,383.846,389.341,395.3,399.026" svgx:width="0.29,0.42,0.55,0.61,0.48,0.33,0.48,0.4,0.88,0.29,0.58,0.48,0.61,0.55,0.55,0.5,0.42,0.48,0.61,0.55,0.55,0.58,0.55,0.33,0.58,0.48,0.55,0.56,0.4,0.5,0.6,0.58,0.29,0.44,0.5,0.29,0.55,0.61,0.48,0.6,0.48,0.58,0.61,0.48,0.58,0.44,0.48,0.55,0.42,0.58,0.55,0.83,0.58,0.55,0.29,0.58,0.55,0.56,0.29,0.56,0.6,0.4,0.48" style="fill:rgb(0,0,0);font-family:URWPalladioL-Roma;font-size:9.96px;stroke:none;">is determined based on the graphical dependence shown in Figure</text>
   <text y="340.252" x="406.261,411.202" svgx:width="0.5,0.5" style="fill:rgb(8,117,183);font-family:URWPalladioL-Roma;font-size:9.96px;stroke:none;">11</text>
   <text y="340.252" x="416.143,421.609,424.099,427.588,433.646,439.398,444.1788,446.632,451.574,457.158,461.891,465.795,470.737,476.232,481.0128,483.456,489.04,493.981,496.857,502.816,507.5968,510.051,515.447" svgx:width="0.55,0.25,0.55,0.61,0.58,0.48,0.55,0.5,0.56,0.48,0.4,0.5,0.56,0.48,0.55,0.56,0.5,0.29,0.6,0.48,0.55,0.55,0.33" style="fill:rgb(0,0,0);font-family:URWPalladioL-Roma;font-size:9.96px;stroke:none;">b. The average value of</text>
   <text y="353.762" x="76.535,79.848,85.762,90.5428,93.241,98.322,102.834,106.147,109.104,114.845,119.926,123.239,126.196,131.744,137.5208,140.28,145.148,151.062,155.93,159.761,165.411,170.9886,173.672,177.056,182.604,186.58800000000002,189.24,192.553,198.467,203.2478,205.946,214.919,220.0,223.313,228.18,232.194,235.151,240.232,243.1204,245.801,253.707,257.131,262.466,265.8524,268.513,273.594,278.675,283.756,288.736,291.448,299.923,305.004,309.1872,311.924,316.436,321.517,324.474,328.986,335.114,338.071,343.152,346.464,351.332" svgx:width="0.33,0.58,0.48,0.55,0.5,0.44,0.33,0.29,0.56,0.5,0.33,0.29,0.55,0.58,0.55,0.48,0.58,0.48,0.4,0.56,0.56,0.55,0.33,0.55,0.4,0.55,0.33,0.58,0.48,0.55,0.88,0.5,0.33,0.48,0.4,0.29,0.5,0.29,0.55,0.78,0.34,0.52,0.34,0.55,0.5,0.5,0.5,0.5,0.55,0.83,0.5,0.42,0.55,0.44,0.5,0.29,0.44,0.6,0.29,0.5,0.33,0.48,0.61" style="fill:rgb(0,0,0);font-family:URWPalladioL-Roma;font-size:9.96px;stroke:none;">the activation energy for the material AISI 4340 was calculated</text>
   <text y="353.762" x="360.161" svgx:width="0.78" style="fill:rgb(0,0,0);font-family:URWPalladioL-Ital;font-size:9.96px;stroke:none;">Q</text>
   <text y="353.762" x="370.682" svgx:width="0.67" style="fill:rgb(0,0,0);font-family:Rpxi;font-size:9.96px;stroke:none;">=</text>
   <text y="353.762" x="380.095,385.176,390.257,395.237,397.949,403.599" svgx:width="0.5,0.5,0.5,0.55,0.56,0.33" style="fill:rgb(0,0,0);font-family:URWPalladioL-Roma;font-size:9.96px;stroke:none;">314 kJ</text>
   <text y="353.762" x="406.987" svgx:width="0.29" style="fill:rgb(0,0,0);font-family:Rpxr;font-size:9.96px;stroke:none;">/</text>
   <text y="353.762" x="409.904,418.877,424.425,427.382,429.872,433.784,440.014,445.928,448.885,453.0682,455.805,461.547,466.627,469.585,475.712,480.4928,483.201,486.159,490.3422,493.079,496.036,501.584,510.059,514.927" svgx:width="0.88,0.55,0.29,0.25,0.55,0.61,0.58,0.29,0.42,0.55,0.56,0.5,0.29,0.6,0.48,0.55,0.29,0.42,0.55,0.29,0.55,0.83,0.48,0.4" style="fill:rgb(0,0,0);font-family:URWPalladioL-Roma;font-size:9.96px;stroke:none;">mol. This value is lower</text>
   <text y="367.271" x="76.535,81.047,86.595,95.568,101.675,106.756,110.587,115.455,121.53059999999999,124.509,127.822,133.3,136.205" svgx:width="0.44,0.55,0.88,0.6,0.5,0.4,0.48,0.61,0.55,0.33,0.55,0.55,0.33" style="fill:rgb(0,0,0);font-family:URWPalladioL-Roma;font-size:9.96px;stroke:none;">compared to [</text>
   <text y="367.271" x="139.59,144.571" svgx:width="0.5,0.5" style="fill:rgb(8,117,183);font-family:URWPalladioL-Roma;font-size:9.96px;stroke:none;">43</text>
   <text y="367.271" x="149.553,152.937,155.42700000000002,158.404,166.879,172.793,177.661,181.492,186.2728,189.205,192.517,198.432,203.2128,206.134,211.876,216.957,219.914,226.041" svgx:width="0.33,0.25,0.55,0.83,0.58,0.48,0.4,0.48,0.55,0.33,0.58,0.48,0.55,0.56,0.5,0.29,0.6,0.48" style="fill:rgb(0,0,0);font-family:URWPalladioL-Roma;font-size:9.96px;stroke:none;">], where the value</text>
   <text y="367.271" x="233.748" svgx:width="0.78" style="fill:rgb(0,0,0);font-family:URWPalladioL-Ital;font-size:9.96px;stroke:none;">Q</text>
   <text y="367.271" x="244.493" svgx:width="0.67" style="fill:rgb(0,0,0);font-family:Rpxr;font-size:9.96px;stroke:none;">=</text>
   <text y="367.271" x="254.13,259.211,264.292,269.272,272.208,277.858" svgx:width="0.5,0.5,0.5,0.55,0.56,0.33" style="fill:rgb(0,0,0);font-family:URWPalladioL-Roma;font-size:9.96px;stroke:none;">427 kJ</text>
   <text y="367.271" x="281.246" svgx:width="0.29" style="fill:rgb(0,0,0);font-family:Rpxr;font-size:9.96px;stroke:none;">/</text>
   <text y="367.271" x="284.162,293.135,298.683,301.5714,304.475,312.95,318.031,322.2142,325.185,330.734,336.353,339.666,344.747,347.704,353.618,358.486,364.695,367.185,370.162,378.637,384.551,389.418,393.249,398.0298,400.952,404.265,410.179,414.9598,417.892,423.633,428.714,431.671,437.799,442.666,446.8492,449.81,455.359,458.6458,461.578,467.756,473.304,481.57079999999996,484.625,488.933,492.246,496.077,500.945,505.253,509.562,514.429" svgx:width="0.88,0.55,0.29,0.55,0.83,0.5,0.42,0.55,0.55,0.55,0.33,0.5,0.29,0.58,0.48,0.61,0.25,0.55,0.83,0.58,0.48,0.4,0.48,0.55,0.33,0.58,0.48,0.55,0.56,0.5,0.29,0.6,0.48,0.42,0.55,0.55,0.33,0.55,0.61,0.55,0.83,0.55,0.42,0.33,0.4,0.48,0.42,0.42,0.48,0.42" style="fill:rgb(0,0,0);font-family:URWPalladioL-Roma;font-size:9.96px;stroke:none;">mol was obtained, where the values of ﬂow stresses</text>
   <text y="380.781" x="76.117,84.592,89.46,93.291,98.0718,101.217,107.131,112.679,115.9658,119.041,123.553,129.101,133.115,136.946,141.813,146.325,149.638,154.506,160.5816,163.763,169.382,174.9596,178.091,181.404,187.318,192.0988,195.234" svgx:width="0.83,0.48,0.4,0.48,0.55,0.58,0.55,0.33,0.55,0.44,0.55,0.4,0.4,0.48,0.44,0.33,0.48,0.61,0.55,0.55,0.56,0.55,0.33,0.58,0.48,0.55,0.48" style="fill:rgb(0,0,0);font-family:URWPalladioL-Roma;font-size:9.96px;stroke:none;">were not corrected by the e</text>
   <text y="380.781" x="200.101" svgx:width="0.61" style="fill:rgb(0,0,0);font-family:Rpxr;font-size:9.96px;stroke:none;">ﬀ</text>
   <text y="380.781" x="206.28,211.148,215.659,218.9458,222.021,227.569,230.8558,234.002,237.385,241.399,244.356,248.868,252.181,255.138,260.687,266.4638,269.659,275.868,281.996,286.01,288.967,294.881,300.4586,303.58,308.092,313.64,322.613,328.72,332.551,337.419,341.727,346.036,348.993,354.541,360.456,362.946,368.168,376.156,381.9328,385.118,388.431,394.345,399.1258,402.261,406.773,412.322,418.236,421.549,425.563,430.643,434.657,439.21,441.7,444.941,449.921,453.071,456.028,461.576,470.051,474.919,478.90299999999996,481.981,487.723,492.803,495.761,501.888,506.6688,509.804,515.353" svgx:width="0.48,0.44,0.33,0.55,0.55,0.33,0.55,0.33,0.4,0.29,0.44,0.33,0.29,0.55,0.58,0.55,0.61,0.6,0.4,0.29,0.58,0.56,0.55,0.44,0.55,0.88,0.6,0.4,0.48,0.42,0.42,0.29,0.55,0.58,0.25,0.55,0.79,0.58,0.55,0.33,0.58,0.48,0.55,0.44,0.55,0.58,0.33,0.4,0.5,0.4,0.56,0.25,0.55,0.5,0.55,0.29,0.55,0.83,0.48,0.4,0.55,0.56,0.5,0.29,0.6,0.48,0.55,0.55,0.33" style="fill:rgb(0,0,0);font-family:URWPalladioL-Roma;font-size:9.96px;stroke:none;">ect of friction during compression. On the contrary, a lower value of</text>
   <text y="394.29" x="76.535,81.417,85.752,88.934,91.776,97.292,102.174,105.356,108.198,113.528,119.3048,121.7,126.377,132.059,136.736,140.417,145.845,150.17" svgx:width="0.5,0.44,0.33,0.29,0.56,0.5,0.33,0.29,0.55,0.58,0.55,0.48,0.58,0.48,0.4,0.56,0.56,0.25" style="fill:rgb(0,0,0);font-family:URWPalladioL-Roma;font-size:9.96px;stroke:none;">activation energy,</text>
   <text y="394.29" x="155.1" svgx:width="0.78" style="fill:rgb(0,0,0);font-family:URWPalladioL-Ital;font-size:9.96px;stroke:none;">Q</text>
   <text y="394.29" x="165.188" svgx:width="0.67" style="fill:rgb(0,0,0);font-family:Rpxr;font-size:9.96px;stroke:none;">=</text>
   <text y="394.29" x="174.212,179.094,183.975,188.857,191.298,196.18,201.16,203.551,208.979" svgx:width="0.5,0.5,0.5,0.25,0.5,0.5,0.55,0.56,0.33" style="fill:rgb(0,0,0);font-family:URWPalladioL-Roma;font-size:9.96px;stroke:none;">281.28 kJ</text>
   <text y="394.29" x="212.234" svgx:width="0.29" style="fill:rgb(0,0,0);font-family:Rpxr;font-size:9.96px;stroke:none;">/</text>
   <text y="394.29" x="215.036,223.657,228.988,231.829,234.31900000000002,236.759,244.902,249.784,253.9672,256.423,261.754,267.153,270.336,275.217,278.058,283.741,288.417,294.4926,296.872,302.272,307.8496,310.19,313.372,319.055,323.8358,326.221,331.103,336.99,340.173,345.855,351.186,355.043,359.2262,361.682" svgx:width="0.88,0.55,0.29,0.25,0.55,0.83,0.5,0.42,0.55,0.55,0.55,0.33,0.5,0.29,0.58,0.48,0.61,0.55,0.55,0.56,0.55,0.33,0.58,0.48,0.55,0.5,0.6,0.33,0.58,0.55,0.4,0.42,0.55,0.33" style="fill:rgb(0,0,0);font-family:URWPalladioL-Roma;font-size:9.96px;stroke:none;">mol, was obtained by the authors [</text>
   <text y="394.29" x="364.929,369.91" svgx:width="0.5,0.5" style="fill:rgb(8,117,183);font-family:URWPalladioL-Roma;font-size:9.96px;stroke:none;">44</text>
   <text y="394.29" x="374.891,378.142,380.632,383.073,391.215,396.898,401.574,405.255,409.932,412.422,414.862,420.544,425.875,434.018,438.694,444.211,448.887,452.012,454.502,456.942,460.125,465.807,468.648,472.8312,475.278,480.794,485.676,488.517,494.404,499.1848,501.58,509.723,514.604" svgx:width="0.33,0.25,0.55,0.83,0.58,0.48,0.4,0.48,0.25,0.55,0.58,0.55,0.83,0.48,0.56,0.48,0.4,0.25,0.55,0.33,0.58,0.29,0.42,0.55,0.56,0.5,0.29,0.6,0.48,0.55,0.83,0.5,0.42" style="fill:rgb(0,0,0);font-family:URWPalladioL-Roma;font-size:9.96px;stroke:none;">], where, however, this value was</text>
   <text y="407.799" x="76.535,82.513,87.199,90.388,95.074,98.939,107.577,110.424,116.118,120.804,126.8796,129.267,134.677,140.25459999999998,142.592,147.278,152.326,158.206,161.894,166.58,170.728,174.876,177.723,183.065,188.8418,191.234,194.492,199.834,203.818,206.183,212.161,216.847,220.036,224.722,228.587,237.225,240.072,245.766,248.613,254.307,259.8846,262.231,265.421,271.115,275.8958,278.276,283.168,287.511,290.701,293.548,299.075,303.967,307.156,310.003,315.345,321.1218,323.524,328.21,333.904,338.59,342.278,347.718,353.29560000000004,355.632,360.524,364.7072,367.157,372.137,374.524,377.782,383.681,389.375,393.719,396.908,399.755,405.097,410.87379999999996,413.275,418.617,421.90380000000005,424.36,428.704,434.398,439.084,447.722,450.569,454.913,459.805,462.6934,465.127,469.471,474.812,483.451,489.331,494.672,498.82,501.667,504.857,507.704,513.045" svgx:width="0.61,0.48,0.33,0.48,0.4,0.88,0.29,0.58,0.48,0.61,0.55,0.55,0.56,0.55,0.48,0.52,0.6,0.4,0.48,0.42,0.42,0.29,0.55,0.58,0.55,0.33,0.55,0.4,0.55,0.61,0.48,0.33,0.48,0.4,0.88,0.29,0.58,0.29,0.58,0.56,0.55,0.33,0.58,0.48,0.55,0.5,0.44,0.33,0.29,0.56,0.5,0.33,0.29,0.55,0.58,0.55,0.48,0.58,0.48,0.4,0.56,0.56,0.55,0.5,0.42,0.55,0.5,0.55,0.33,0.6,0.58,0.44,0.33,0.29,0.55,0.58,0.55,0.55,0.33,0.55,0.44,0.58,0.48,0.88,0.29,0.44,0.5,0.29,0.55,0.44,0.55,0.88,0.6,0.55,0.42,0.29,0.33,0.29,0.55,0.58" style="fill:rgb(0,0,0);font-family:URWPalladioL-Roma;font-size:9.96px;stroke:none;">determined by expression for determining the activation energy as a function of chemical composition</text>
   <text y="421.309" x="76.535,82.543,87.253,92.809,97.519,100.38,105.749,111.659,116.369,122.4446,124.865,130.302,135.87959999999998,138.247" svgx:width="0.61,0.48,0.56,0.48,0.29,0.55,0.6,0.48,0.61,0.55,0.55,0.56,0.55,0.33" style="fill:rgb(0,0,0);font-family:URWPalladioL-Roma;font-size:9.96px;stroke:none;">developed by [</text>
   <text y="421.309" x="141.525,146.506" svgx:width="0.5,0.5" style="fill:rgb(8,117,183);font-family:URWPalladioL-Roma;font-size:9.96px;stroke:none;">45</text>
   <text y="421.309" x="151.488,154.762,157.252,160.702,166.729,172.452,175.314,179.4972,181.971,186.336,191.253,194.114,198.48,204.41,207.271,212.188,215.393,218.255,223.624,229.4008,231.834,240.035,244.952,249.1352,251.599,255.965,259.672,264.382,269.298,272.504,277.214,283.2896,285.71,288.984,294.353,298.337,300.715,306.182,310.892,316.615,321.325,325.209,330.126,333.01439999999997,335.475,341.404,345.573,350.3538,352.771,356.046,361.415,365.399,367.777,370.638,376.007,384.208,387.482,392.399,395.26,398.121,403.49,409.0676,411.445,415.615,418.82,423.53,428.24,431.102,435.2852,437.759,442.675,448.398,454.47360000000003,456.884,460.09,465.812,470.522,474.23,478.94,482.214,487.583,491.29,496.0708,498.488,504.496,509.865,514.575" svgx:width="0.33,0.25,0.55,0.61,0.58,0.29,0.42,0.55,0.44,0.5,0.29,0.44,0.6,0.29,0.5,0.33,0.29,0.55,0.58,0.55,0.83,0.5,0.42,0.55,0.44,0.4,0.48,0.5,0.33,0.48,0.61,0.55,0.33,0.55,0.4,0.55,0.56,0.48,0.58,0.48,0.4,0.5,0.29,0.55,0.6,0.42,0.48,0.55,0.33,0.55,0.4,0.55,0.29,0.55,0.83,0.33,0.5,0.29,0.29,0.55,0.56,0.55,0.42,0.33,0.48,0.48,0.29,0.42,0.55,0.5,0.58,0.61,0.55,0.33,0.58,0.48,0.4,0.48,0.33,0.55,0.4,0.48,0.55,0.61,0.55,0.48,0.42" style="fill:rgb(0,0,0);font-family:URWPalladioL-Roma;font-size:9.96px;stroke:none;">]. This calculation was created for general use for low-alloy steels and therefore does</text>
   <text y="434.818" x="76.535,82.449,87.998,91.2848,94.318,100.426,104.267,109.815,115.557,118.514,124.723,129.5038,132.598,137.679,141.8622,144.995,150.076,154.588,159.1,165.228,169.242,174.323,177.635,182.4158,185.511,189.342,194.209,198.518,204.645,207.603,210.915,215.0982,218.242,223.323,227.5062,230.639,233.952,239.866,244.6468,247.742,253.483,258.564,261.521,267.649,272.516,276.6992,279.833,285.381,288.6678,291.773,295.086,301.0,305.7808,308.876,313.956,318.468,321.781,324.738,330.48,335.561,338.873,341.83,347.379,353.1558,356.301,361.168,367.083,371.95,375.791,381.441,387.0186,390.099,395.648,401.267,404.58,409.661,412.618,418.532,423.4,429.4756,432.616,436.0,439.831,445.38,454.1448,457.371,460.683,466.598,471.3788,474.473,483.446,488.314,493.394,497.703,503.831,507.662,512.529" svgx:width="0.58,0.55,0.33,0.55,0.6,0.4,0.55,0.56,0.29,0.61,0.48,0.55,0.5,0.42,0.55,0.5,0.44,0.44,0.6,0.4,0.5,0.33,0.48,0.55,0.4,0.48,0.42,0.6,0.29,0.33,0.42,0.55,0.5,0.42,0.55,0.33,0.58,0.48,0.55,0.56,0.5,0.29,0.6,0.48,0.42,0.55,0.55,0.33,0.55,0.33,0.58,0.48,0.55,0.5,0.44,0.33,0.29,0.56,0.5,0.33,0.29,0.55,0.58,0.55,0.48,0.58,0.48,0.4,0.56,0.56,0.55,0.55,0.55,0.33,0.5,0.29,0.58,0.48,0.61,0.55,0.33,0.4,0.55,0.88,0.55,0.33,0.58,0.48,0.55,0.88,0.48,0.5,0.42,0.6,0.4,0.48,0.61" style="fill:rgb(0,0,0);font-family:URWPalladioL-Roma;font-size:9.96px;stroke:none;">not provide as accurate results as the values of the activation energy obtained from the measured</text>
   <text y="448.328" x="76.535,82.592,88.032,96.2988,98.831,103.055,106.303,110.059,114.831,119.055,123.28,128.052,132.276" svgx:width="0.61,0.55,0.83,0.55,0.42,0.33,0.4,0.48,0.42,0.42,0.48,0.42,0.25" style="fill:rgb(0,0,0);font-family:URWPalladioL-Roma;font-size:9.96px;stroke:none;">ﬂow stresses.</text>
  </g>
  <rect style="fill:pink;opacity:0.2;stroke:blue;stroke-width:0.3;" x="78.278" y="419.603" height="172.32" width="438.72" title="12"/>
  <text y="419.603" class="image" id="image.12.2" width="438" height="172" x="78.278" style="font-size:5.0px;">image.12.2.78_517.420_592</text>
  <g begin="text">
   <text y="649.084" x="97.795,102.78,105.766,110.751,116.23,119.718,124.203,125.734,130.217,134.701" svgx:width="0.56,0.33,0.56,0.61,0.39,0.5,0.55,0.5,0.5,0.25" style="fill:rgb(0,0,0);font-family:URWPalladioL-Bold;font-size:8.97px;stroke:none;">Figure 11.</text>
   <text y="649.084" x="139.84" svgx:width="0.33" style="fill:rgb(0,0,0);font-family:URWPalladioL-Roma;font-size:8.97px;stroke:none;">(</text>
   <text y="649.084" x="142.767" svgx:width="0.5" style="fill:rgb(0,0,0);font-family:URWPalladioL-Bold;font-size:8.97px;stroke:none;">a</text>
   <text y="649.084" x="147.25,150.2101,151.705,158.506,162.715,167.996,172.205,177.319,182.688,186.897,192.011,195.913,200.2186,201.651,206.51,210.719,213.584,220.912,225.121,229.33,235.976,238.585" svgx:width="0.33,0.55,0.77,0.48,0.6,0.48,0.58,0.61,0.48,0.58,0.44,0.48,0.55,0.55,0.48,0.33,0.83,0.48,0.48,0.58,0.29,0.58" style="fill:rgb(0,0,0);font-family:URWPalladioL-Roma;font-size:8.97px;stroke:none;">) Dependence betweenln</text>
   <text y="649.084" x="243.916" svgx:width="0.28" style="fill:rgb(0,0,0);font-family:CMR10;font-size:9.34px;stroke:none;">[</text>
   <text y="649.084" x="246.619,250.421,253.03,258.248" svgx:width="0.42,0.29,0.58,0.58" style="fill:rgb(0,0,0);font-family:URWPalladioL-Roma;font-size:8.97px;stroke:none;">sinh</text>
   <text y="648.99" x="265.109" svgx:width="0.39" style="fill:rgb(0,0,0);font-family:CMR10;font-size:9.34px;stroke:none;">(</text>
   <text y="649.084" x="268.844,274.748" svgx:width="0.66,0.61" style="fill:rgb(0,0,0);font-family:EURM10;font-size:8.97px;stroke:none;">ασ</text>
   <text y="648.99" x="280.287" svgx:width="0.39" style="fill:rgb(0,0,0);font-family:CMR10;font-size:9.34px;stroke:none;">)</text>
   <text y="649.084" x="285.552,289.946,295.06,301.958,304.567" svgx:width="0.5,0.58,0.61,0.29,0.58" style="fill:rgb(0,0,0);font-family:URWPalladioL-Roma;font-size:8.97px;stroke:none;">andln</text>
   <text y="640.319" code="16" x="309.786" svgx:width="0.38" style="fill:rgb(0,0,0);font-family:Pxex;font-size:8.97px;stroke:none;">?</text>
   <text y="642.964" x="315.334" svgx:width="0.25" style="fill:rgb(0,0,0);font-family:URWPalladioL-Roma;font-size:6.97px;stroke:none;">.</text>
   <text y="649.084" x="313.148" svgx:width="0.68" style="fill:rgb(0,0,0);font-family:Rpxmi;font-size:8.97px;stroke:none;">ϕ</text>
   <text y="640.319" code="17" x="319.263" svgx:width="0.38" style="fill:rgb(0,0,0);font-family:Pxex;font-size:8.97px;stroke:none;">?</text>
   <text y="649.084" x="324.156,327.082,331.88,335.468,336.88,342.249,346.458,349.928,352.486,357.45,361.844,364.708,367.265,372.063,378.706,383.504" svgx:width="0.33,0.55,0.4,0.55,0.61,0.48,0.4,0.29,0.56,0.5,0.33,0.29,0.55,0.58,0.55,0.33" style="fill:rgb(0,0,0);font-family:URWPalladioL-Roma;font-size:8.97px;stroke:none;">for derivationof</text>
   <text y="649.084" x="387.963" svgx:width="0.56" style="fill:rgb(0,0,0);font-family:URWPalladioL-Ital;font-size:8.97px;stroke:none;">n</text>
   <text y="649.084" x="394.379,399.66,404.054,407.524,411.918,419.677,423.886,426.751,430.96,433.763,436.0055,437.638" svgx:width="0.6,0.5,0.4,0.5,0.88,0.48,0.33,0.48,0.4,0.25,0.55,0.33" style="fill:rgb(0,0,0);font-family:URWPalladioL-Roma;font-size:8.97px;stroke:none;">parameter, (</text>
   <text y="649.084" x="440.562" svgx:width="0.61" style="fill:rgb(0,0,0);font-family:URWPalladioL-Bold;font-size:8.97px;stroke:none;">b</text>
   <text y="649.084" x="446.04,449.00010000000003,450.495,455.864,460.073,465.354,469.563,474.677,480.046,484.255,489.369,493.271" svgx:width="0.33,0.55,0.61,0.48,0.6,0.48,0.58,0.61,0.48,0.58,0.44,0.48" style="fill:rgb(0,0,0);font-family:URWPalladioL-Roma;font-size:8.97px;stroke:none;">) dependence</text>
   <text y="661.906" x="97.795,102.753,107.048,109.971,117.449,121.744,126.039,131.2416,133.499,136.108" svgx:width="0.55,0.48,0.33,0.83,0.48,0.48,0.58,0.55,0.29,0.58" style="fill:rgb(0,0,0);font-family:URWPalladioL-Roma;font-size:8.97px;stroke:none;">between ln</text>
   <text y="661.906" x="141.438" svgx:width="0.28" style="fill:rgb(0,0,0);font-family:CMR10;font-size:9.34px;stroke:none;">[</text>
   <text y="661.906" x="144.142,147.944,150.553,155.771" svgx:width="0.42,0.29,0.58,0.58" style="fill:rgb(0,0,0);font-family:URWPalladioL-Roma;font-size:8.97px;stroke:none;">sinh</text>
   <text y="661.812" x="163.343" svgx:width="0.39" style="fill:rgb(0,0,0);font-family:CMR10;font-size:9.34px;stroke:none;">(</text>
   <text y="661.906" x="167.077,172.981" svgx:width="0.66,0.61" style="fill:rgb(0,0,0);font-family:EURM10;font-size:8.97px;stroke:none;">ασ</text>
   <text y="661.812" x="178.52" svgx:width="0.39" style="fill:rgb(0,0,0);font-family:CMR10;font-size:9.34px;stroke:none;">)</text>
   <text y="661.906" x="184.496,188.979,194.198,199.6697,201.918,206.401,210.884,215.367" svgx:width="0.5,0.58,0.61,0.55,0.5,0.5,0.5,0.5" style="fill:rgb(0,0,0);font-family:URWPalladioL-Roma;font-size:8.97px;stroke:none;">and 1000</text>
   <text y="661.906" x="219.851" svgx:width="0.29" style="fill:rgb(0,0,0);font-family:Rpxr;font-size:8.97px;stroke:none;">/</text>
   <text y="661.906" x="222.424" svgx:width="0.61" style="fill:rgb(0,0,0);font-family:URWPalladioL-Ital;font-size:8.97px;stroke:none;">T</text>
   <text y="661.906" x="230.359,233.345,238.24,241.828,244.024,249.502,253.797,257.339,259.948,265.014,269.497,272.42,275.03,279.925" svgx:width="0.33,0.55,0.4,0.55,0.61,0.48,0.4,0.29,0.56,0.5,0.33,0.29,0.55,0.58" style="fill:rgb(0,0,0);font-family:URWPalladioL-Roma;font-size:8.97px;stroke:none;">for derivation</text>
   <text y="661.906" x="287.385" svgx:width="0.78" style="fill:rgb(0,0,0);font-family:URWPalladioL-Ital;font-size:8.97px;stroke:none;">Q</text>
   <text y="661.906" x="296.602,301.991,306.474,310.016,314.499,322.416,326.711,329.634,333.929,336.807" svgx:width="0.6,0.5,0.4,0.5,0.88,0.48,0.33,0.48,0.4,0.25" style="fill:rgb(0,0,0);font-family:URWPalladioL-Roma;font-size:8.97px;stroke:none;">parameter.</text>
   <text y="685.239" x="97.795,103.798,109.498,114.2788,116.676,123.208,127.899,133.599,138.29,141.982,146.879,155.027,160.374,163.224,166.073,171.421,180.068,185.415,191.1918,193.602,199.488,204.385,208.253,213.15,221.797,226.488,229.681,234.372" svgx:width="0.61,0.58,0.48,0.55,0.67,0.48,0.58,0.48,0.4,0.5,0.83,0.55,0.29,0.29,0.55,0.88,0.55,0.58,0.55,0.6,0.5,0.4,0.5,0.88,0.48,0.33,0.48,0.4" style="fill:rgb(0,0,0);font-family:URWPalladioL-Roma;font-size:9.96px;stroke:none;">The Zener–Hollomon parameter</text>
   <text y="685.239" x="240.729" svgx:width="0.67" style="fill:rgb(0,0,0);font-family:URWPalladioL-Ital;font-size:9.96px;stroke:none;">Z</text>
   <text y="685.239" x="249.751,252.601,256.7842,259.241,265.224,269.915,273.108,277.799,281.667,290.315,293.164,298.864,303.555,309.6306,312.026,316.923,321.271,325.619,330.966,334.658,340.642,343.492,349.192,354.7696,357.124,360.317,365.795,368.151,374.135,379.619,385.524,390.421,393.614,396.464,401.811,407.58779999999996,410.008,413.269,418.165,421.45180000000005,423.914,427.175,432.522,436.506,438.878,442.071,447.77,452.5508,454.949,458.641,463.332,467.484,473.37,478.061,482.409,485.602,488.451,493.985,498.7658,501.163,504.356,508.146,514.051" svgx:width="0.29,0.42,0.55,0.61,0.48,0.33,0.48,0.4,0.88,0.29,0.58,0.48,0.61,0.55,0.5,0.44,0.44,0.55,0.4,0.61,0.29,0.58,0.56,0.55,0.33,0.55,0.55,0.61,0.56,0.6,0.5,0.33,0.29,0.55,0.58,0.55,0.33,0.5,0.33,0.55,0.33,0.55,0.4,0.55,0.33,0.58,0.48,0.55,0.4,0.48,0.42,0.6,0.48,0.44,0.33,0.29,0.56,0.48,0.55,0.33,0.4,0.6,0.48" style="fill:rgb(0,0,0);font-family:URWPalladioL-Roma;font-size:9.96px;stroke:none;">is determined according to Equation (6) for the respective true</text>
   <text y="698.749" x="76.535,80.78,84.044,87.999,93.005,95.919,101.69579999999999,104.239,109.246,115.073,121.14859999999999,123.683,126.947,132.775,137.5558,140.064,146.081,149.856,154.652,160.769,163.683,168.129,171.393,176.189,182.2646,184.799,190.887,196.354,204.6208,207.197,211.442,214.706,218.481,223.277,227.522,231.767,236.563,240.7462,243.302,248.308,252.083,256.8638,259.372,263.817,268.823,271.737,276.183,282.22,285.134,290.14,293.404,298.2,304.2756,306.811,311.817,316.262,320.708,326.175,329.949,336.067,338.98,344.808,350.3856,352.868,356.132,361.61,364.091,370.209,375.816,381.854,386.86,390.124,393.037,398.504,404.2808,406.824,410.159,415.165,420.171,423.4578,425.998,429.332,434.799,438.78299999999996,441.247,446.253,449.167,452.05539999999996,454.574,458.819,462.083,466.038,471.044,473.958,479.7348,482.278,486.233,491.239,494.503,499.2838,501.792,506.798,512.626" svgx:width="0.42,0.33,0.4,0.5,0.29,0.58,0.55,0.5,0.58,0.61,0.55,0.33,0.58,0.48,0.55,0.6,0.4,0.48,0.61,0.29,0.44,0.33,0.48,0.61,0.55,0.61,0.55,0.83,0.55,0.42,0.33,0.4,0.48,0.42,0.42,0.48,0.42,0.55,0.5,0.4,0.48,0.55,0.44,0.5,0.29,0.44,0.6,0.29,0.5,0.33,0.48,0.61,0.55,0.5,0.44,0.44,0.55,0.4,0.61,0.29,0.58,0.56,0.55,0.33,0.55,0.55,0.61,0.56,0.6,0.5,0.33,0.29,0.55,0.58,0.55,0.33,0.5,0.5,0.33,0.55,0.33,0.55,0.4,0.55,0.5,0.29,0.29,0.55,0.42,0.33,0.4,0.5,0.29,0.58,0.55,0.4,0.5,0.33,0.48,0.55,0.5,0.58,0.61" style="fill:rgb(0,0,0);font-family:URWPalladioL-Roma;font-size:9.96px;stroke:none;">strain and the predicted ﬂow stresses are calculated according to Equation (16) for all strain rate and</text>
   <text y="712.258" x="76.535,82.622,87.394,90.712,96.151,100.087,108.884,113.865,117.113,120.012,125.451,131.2278,133.74,136.988,141.76,150.557,156.545,161.317,165.252,170.233,173.481,179.488,183.244,188.016,192.241" svgx:width="0.61,0.48,0.33,0.55,0.4,0.88,0.5,0.33,0.29,0.55,0.58,0.55,0.33,0.48,0.88,0.6,0.48,0.4,0.5,0.33,0.6,0.4,0.48,0.42,0.25" style="fill:rgb(0,0,0);font-family:URWPalladioL-Roma;font-size:9.96px;stroke:none;">deformation temperatures.</text>
  </g>
 </g>
</svg>
