<?xml version="1.0" encoding="UTF-8"?>
<svg height="755.481" width="2673.635" xmlns="http://www.w3.org/2000/svg">
 <g id="page" xmlns:svgx="http://www.xml-cml.org/schema/svgx">
  <g begin="text">
   <text y="62.979" x="76.535,84.059,87.598,90.252,93.352,96.452,98.668,102.207,104.422" svgx:width="0.94,0.44,0.33,0.39,0.39,0.28,0.44,0.28,0.39" style="fill:rgb(0,0,0);font-family:URWPalladioL-Ital;font-size:7.97px;stroke:none;">Materials</text>
   <text y="62.979" x="109.515,113.5,117.485,121.47" svgx:width="0.5,0.5,0.5,0.5" style="fill:rgb(0,0,0);font-family:URWPalladioL-Bold;font-size:7.97px;stroke:none;">2020</text>
   <text y="62.979" x="125.455" svgx:width="0.25" style="fill:rgb(0,0,0);font-family:URWPalladioL-Roma;font-size:7.97px;stroke:none;">,</text>
   <text y="62.979" x="129.44,133.425" svgx:width="0.5,0.5" style="fill:rgb(0,0,0);font-family:URWPalladioL-Ital;font-size:7.97px;stroke:none;">13</text>
   <text y="62.979" x="137.41,139.4025,141.395,145.38,149.365,153.35,157.335,491.809,495.794,499.779,501.772,506.123,508.7531,510.77,514.755" svgx:width="0.25,0.55,0.5,0.5,0.5,0.5,0.55,0.5,0.5,0.55,0.55,0.33,0.55,0.5,0.5" style="fill:rgb(0,0,0);font-family:URWPalladioL-Roma;font-size:7.97px;stroke:none;">, 5585 16 of 21</text>
  </g>
  <rect style="fill:pink;opacity:0.2;stroke:blue;stroke-width:0.3;" x="122.15" y="45.996" height="172.8" width="350.976" title="16"/>
  <text y="45.996" class="image" id="image.16.1" width="350" height="172" x="122.15" style="font-size:5.0px;">image.16.1.122_473.46_219</text>
  <rect style="fill:pink;opacity:0.2;stroke:blue;stroke-width:0.3;" x="124.262" y="219.792" height="166.272" width="346.752" title="16"/>
  <text y="219.792" class="image" id="image.16.2" width="346" height="166" x="124.262" style="font-size:5.0px;">image.16.2.124_471.220_386</text>
  <g begin="text">
   <text y="442.907" x="97.795,102.78,105.766,110.751,116.23,119.718,124.203,126.371,130.854,135.337" svgx:width="0.56,0.33,0.56,0.61,0.39,0.5,0.55,0.5,0.5,0.25" style="fill:rgb(0,0,0);font-family:URWPalladioL-Bold;font-size:8.97px;stroke:none;">Figure 15.</text>
   <text y="442.907" x="140.698,149.011,151.568,155.469,158.782,163.58,167.305,170.17,173.562,178.86,182.762,185.626,190.925,194.238,198.5436,200.617,205.415,208.3751,210.52,214.246,218.639,226.398,231.679,234.236,238.445,242.2124,244.342,249.71,253.919,256.846,261.643,265.114,272.873,277.082,282.5537,284.621,289.015,291.9751,294.059,297.784,300.649,304.12,308.513,311.062,316.26460000000003,318.355,321.826,326.219,329.084" svgx:width="0.95,0.29,0.44,0.4,0.55,0.42,0.33,0.4,0.6,0.44,0.33,0.6,0.4,0.48,0.55,0.55,0.33,0.55,0.42,0.5,0.88,0.6,0.29,0.48,0.42,0.55,0.61,0.48,0.33,0.55,0.4,0.88,0.48,0.61,0.55,0.5,0.33,0.55,0.42,0.33,0.4,0.5,0.29,0.58,0.55,0.4,0.5,0.33,0.48" style="fill:rgb(0,0,0);font-family:URWPalladioL-Roma;font-size:8.97px;stroke:none;">Microstructure of samples deformed at strain rate</text>
   <text y="442.907" x="335.464" svgx:width="0.68" style="fill:rgb(0,0,0);font-family:Rpxmi;font-size:8.97px;stroke:none;">ϕ</text>
   <text y="442.907" x="341.579" svgx:width="0.28" style="fill:rgb(0,0,0);font-family:URWPalladioL-Roma;font-size:8.97px;stroke:none;">’</text>
   <text y="442.907" x="346.195" svgx:width="0.67" style="fill:rgb(0,0,0);font-family:Rpxr;font-size:8.97px;stroke:none;">=</text>
   <text y="442.907" x="354.247,358.641,363.12600000000003,365.204" svgx:width="0.5,0.5,0.55,0.42" style="fill:rgb(0,0,0);font-family:URWPalladioL-Roma;font-size:8.97px;stroke:none;">10 s</text>
   <text y="439.652" x="368.933" svgx:width="0.67" style="fill:rgb(0,0,0);font-family:Pxsy;font-size:6.97px;stroke:none;">−</text>
   <text y="439.652" x="373.599" svgx:width="0.5" style="fill:rgb(0,0,0);font-family:URWPalladioL-Roma;font-size:6.97px;stroke:none;">1</text>
   <text y="442.907" x="379.757,384.151,387.1111,389.186,392.05,396.259,404.018,409.299,413.508,416.979,421.373,424.237,429.536,432.848,437.057,439.2995,442.356" svgx:width="0.5,0.33,0.55,0.33,0.48,0.88,0.6,0.48,0.4,0.5,0.33,0.6,0.4,0.48,0.25,0.55,0.33" style="fill:rgb(0,0,0);font-family:URWPalladioL-Roma;font-size:8.97px;stroke:none;">at temperature: (</text>
   <text y="442.907" x="445.283" svgx:width="0.5" style="fill:rgb(0,0,0);font-family:URWPalladioL-Bold;font-size:8.97px;stroke:none;">a</text>
   <text y="442.907" x="449.767" svgx:width="0.33" style="fill:rgb(0,0,0);font-family:URWPalladioL-Roma;font-size:8.97px;stroke:none;">)</text>
   <text y="442.907" x="454.866" svgx:width="0.61" style="fill:rgb(0,0,0);font-family:URWPalladioL-Ital;font-size:8.97px;stroke:none;">T</text>
   <text y="442.907" x="462.623" svgx:width="0.67" style="fill:rgb(0,0,0);font-family:Rpxr;font-size:8.97px;stroke:none;">=</text>
   <text y="442.907" x="470.675,475.069,479.462" svgx:width="0.5,0.5,0.5" style="fill:rgb(0,0,0);font-family:URWPalladioL-Roma;font-size:8.97px;stroke:none;">900</text>
   <text y="439.652" x="486.029" svgx:width="0.52" style="fill:rgb(0,0,0);font-family:Pxsy;font-size:6.97px;stroke:none;">◦</text>
   <text y="442.907" x="490.174,496.404" svgx:width="0.71,0.25" style="fill:rgb(0,0,0);font-family:URWPalladioL-Roma;font-size:8.97px;stroke:none;">C;</text>
   <text y="455.729" x="97.499" svgx:width="0.33" style="fill:rgb(0,0,0);font-family:URWPalladioL-Roma;font-size:8.97px;stroke:none;">(</text>
   <text y="455.729" x="100.485" svgx:width="0.61" style="fill:rgb(0,0,0);font-family:URWPalladioL-Bold;font-size:8.97px;stroke:none;">b</text>
   <text y="455.729" x="105.963" svgx:width="0.33" style="fill:rgb(0,0,0);font-family:URWPalladioL-Roma;font-size:8.97px;stroke:none;">)</text>
   <text y="455.729" x="111.191" svgx:width="0.61" style="fill:rgb(0,0,0);font-family:URWPalladioL-Ital;font-size:8.97px;stroke:none;">T</text>
   <text y="455.729" x="119.126" svgx:width="0.67" style="fill:rgb(0,0,0);font-family:Rpxr;font-size:8.97px;stroke:none;">=</text>
   <text y="455.729" x="127.366,131.849,136.332,140.816" svgx:width="0.5,0.5,0.5,0.5" style="fill:rgb(0,0,0);font-family:URWPalladioL-Roma;font-size:8.97px;stroke:none;">1000</text>
   <text y="452.474" x="147.54" svgx:width="0.52" style="fill:rgb(0,0,0);font-family:Pxsy;font-size:6.97px;stroke:none;">◦</text>
   <text y="455.729" x="151.686,158.043,160.2855,162.526" svgx:width="0.71,0.25,0.55,0.33" style="fill:rgb(0,0,0);font-family:URWPalladioL-Roma;font-size:8.97px;stroke:none;">C; (</text>
   <text y="455.729" x="165.512" svgx:width="0.44" style="fill:rgb(0,0,0);font-family:URWPalladioL-Bold;font-size:8.97px;stroke:none;">c</text>
   <text y="455.729" x="169.493" svgx:width="0.33" style="fill:rgb(0,0,0);font-family:URWPalladioL-Roma;font-size:8.97px;stroke:none;">)</text>
   <text y="455.729" x="174.72" svgx:width="0.61" style="fill:rgb(0,0,0);font-family:URWPalladioL-Ital;font-size:8.97px;stroke:none;">T</text>
   <text y="455.729" x="182.656" svgx:width="0.67" style="fill:rgb(0,0,0);font-family:Rpxr;font-size:8.97px;stroke:none;">=</text>
   <text y="455.729" x="190.896,195.379,199.862,204.346" svgx:width="0.5,0.5,0.5,0.5" style="fill:rgb(0,0,0);font-family:URWPalladioL-Roma;font-size:8.97px;stroke:none;">1100</text>
   <text y="452.474" x="211.07" svgx:width="0.52" style="fill:rgb(0,0,0);font-family:Pxsy;font-size:6.97px;stroke:none;">◦</text>
   <text y="455.729" x="215.215,221.572,223.8145,226.055" svgx:width="0.71,0.25,0.55,0.33" style="fill:rgb(0,0,0);font-family:URWPalladioL-Roma;font-size:8.97px;stroke:none;">C; (</text>
   <text y="455.729" x="229.042" svgx:width="0.61" style="fill:rgb(0,0,0);font-family:URWPalladioL-Bold;font-size:8.97px;stroke:none;">d</text>
   <text y="455.729" x="234.52" svgx:width="0.33" style="fill:rgb(0,0,0);font-family:URWPalladioL-Roma;font-size:8.97px;stroke:none;">)</text>
   <text y="455.729" x="239.747" svgx:width="0.61" style="fill:rgb(0,0,0);font-family:URWPalladioL-Ital;font-size:8.97px;stroke:none;">T</text>
   <text y="455.729" x="247.683" svgx:width="0.67" style="fill:rgb(0,0,0);font-family:Rpxr;font-size:8.97px;stroke:none;">=</text>
   <text y="455.729" x="255.923,260.406,264.889,269.373" svgx:width="0.5,0.5,0.5,0.5" style="fill:rgb(0,0,0);font-family:URWPalladioL-Roma;font-size:8.97px;stroke:none;">1200</text>
   <text y="452.474" x="276.097" svgx:width="0.52" style="fill:rgb(0,0,0);font-family:Pxsy;font-size:6.97px;stroke:none;">◦</text>
   <text y="455.729" x="280.242,286.599" svgx:width="0.71,0.25" style="fill:rgb(0,0,0);font-family:URWPalladioL-Roma;font-size:8.97px;stroke:none;">C.</text>
  </g>
  <rect style="fill:pink;opacity:0.2;stroke:blue;stroke-width:0.3;" x="163.635" y="424.657" height="251.16" width="268.008" title="16"/>
  <text y="424.657" class="image" id="image.16.3" width="268" height="251" x="163.635" style="font-size:5.0px;">image.16.3.164_432.425_676</text>
  <g begin="text">
   <text y="732.66" x="97.795,102.78,105.766,110.751,116.23,119.718,124.203,127.958,132.441,136.924" svgx:width="0.56,0.33,0.56,0.61,0.39,0.5,0.55,0.5,0.5,0.25" style="fill:rgb(0,0,0);font-family:URWPalladioL-Bold;font-size:8.97px;stroke:none;">Figure 16.</text>
   <text y="732.66" x="146.845,155.497,158.158,162.219,165.667,170.66,174.538,177.52,181.059,186.574,190.635,193.616,199.131,202.588,206.8936,210.719,215.712,218.6721,222.517,226.395,230.967,239.043,244.54,247.201,251.582,255.3494,259.219,264.807,269.187,272.233,277.227,280.839,288.915,293.296,298.7677,302.633,307.206,310.16610000000003,313.947,317.824,320.806,324.418,328.991,331.653,336.85560000000004,340.734,344.347,348.92,351.901" svgx:width="0.95,0.29,0.44,0.4,0.55,0.42,0.33,0.4,0.6,0.44,0.33,0.6,0.4,0.48,0.55,0.55,0.33,0.55,0.42,0.5,0.88,0.6,0.29,0.48,0.42,0.55,0.61,0.48,0.33,0.55,0.4,0.88,0.48,0.61,0.55,0.5,0.33,0.55,0.42,0.33,0.4,0.5,0.29,0.58,0.55,0.4,0.5,0.33,0.48" style="fill:rgb(0,0,0);font-family:URWPalladioL-Roma;font-size:8.97px;stroke:none;">Microstructure of samples deformed at strain rate</text>
   <text y="732.66" x="360.033" svgx:width="0.68" style="fill:rgb(0,0,0);font-family:Rpxmi;font-size:8.97px;stroke:none;">ϕ</text>
   <text y="732.66" x="366.149" svgx:width="0.33" style="fill:rgb(0,0,0);font-family:URWPalladioL-Roma;font-size:8.97px;stroke:none;">´</text>
   <text y="732.66" x="372.89" svgx:width="0.67" style="fill:rgb(0,0,0);font-family:Rpxr;font-size:8.97px;stroke:none;">=</text>
   <text y="732.66" x="382.764,387.337,389.623,394.196,398.769,403.254,407.101" svgx:width="0.5,0.25,0.5,0.5,0.5,0.55,0.42" style="fill:rgb(0,0,0);font-family:URWPalladioL-Roma;font-size:8.97px;stroke:none;">0.001 s</text>
   <text y="729.405" x="410.976" svgx:width="0.67" style="fill:rgb(0,0,0);font-family:Pxsy;font-size:6.97px;stroke:none;">−</text>
   <text y="729.405" x="415.641" svgx:width="0.5" style="fill:rgb(0,0,0);font-family:URWPalladioL-Roma;font-size:6.97px;stroke:none;">1</text>
   <text y="732.66" x="423.382,427.955,430.9151,434.695,437.677,442.058,450.133,455.63,460.011,463.623,468.196,471.178,476.692,480.14,484.4456,488.28,493.274,496.319" svgx:width="0.5,0.33,0.55,0.33,0.48,0.88,0.6,0.48,0.4,0.5,0.33,0.6,0.4,0.48,0.55,0.55,0.33,0.25" style="fill:rgb(0,0,0);font-family:URWPalladioL-Roma;font-size:8.97px;stroke:none;">at temperature of:</text>
   <text y="745.481" x="97.499" svgx:width="0.33" style="fill:rgb(0,0,0);font-family:URWPalladioL-Roma;font-size:8.97px;stroke:none;">(</text>
   <text y="745.481" x="100.485" svgx:width="0.5" style="fill:rgb(0,0,0);font-family:URWPalladioL-Bold;font-size:8.97px;stroke:none;">a</text>
   <text y="745.481" x="104.968" svgx:width="0.33" style="fill:rgb(0,0,0);font-family:URWPalladioL-Roma;font-size:8.97px;stroke:none;">)</text>
   <text y="745.481" x="110.196" svgx:width="0.61" style="fill:rgb(0,0,0);font-family:URWPalladioL-Ital;font-size:8.97px;stroke:none;">T</text>
   <text y="745.481" x="118.131" svgx:width="0.67" style="fill:rgb(0,0,0);font-family:Rpxr;font-size:8.97px;stroke:none;">=</text>
   <text y="745.481" x="126.371,130.854,135.337" svgx:width="0.5,0.5,0.5" style="fill:rgb(0,0,0);font-family:URWPalladioL-Roma;font-size:8.97px;stroke:none;">900</text>
   <text y="742.227" x="142.062" svgx:width="0.52" style="fill:rgb(0,0,0);font-family:Pxsy;font-size:6.97px;stroke:none;">◦</text>
   <text y="745.481" x="146.207,152.564,154.8065,157.047" svgx:width="0.71,0.25,0.55,0.33" style="fill:rgb(0,0,0);font-family:URWPalladioL-Roma;font-size:8.97px;stroke:none;">C; (</text>
   <text y="745.481" x="160.034" svgx:width="0.61" style="fill:rgb(0,0,0);font-family:URWPalladioL-Bold;font-size:8.97px;stroke:none;">b</text>
   <text y="745.481" x="165.512" svgx:width="0.33" style="fill:rgb(0,0,0);font-family:URWPalladioL-Roma;font-size:8.97px;stroke:none;">)</text>
   <text y="745.481" x="170.739" svgx:width="0.61" style="fill:rgb(0,0,0);font-family:URWPalladioL-Ital;font-size:8.97px;stroke:none;">T</text>
   <text y="745.481" x="178.675" svgx:width="0.67" style="fill:rgb(0,0,0);font-family:Rpxr;font-size:8.97px;stroke:none;">=</text>
   <text y="745.481" x="186.915,191.398,195.881,200.365" svgx:width="0.5,0.5,0.5,0.5" style="fill:rgb(0,0,0);font-family:URWPalladioL-Roma;font-size:8.97px;stroke:none;">1000</text>
   <text y="742.227" x="207.089" svgx:width="0.52" style="fill:rgb(0,0,0);font-family:Pxsy;font-size:6.97px;stroke:none;">◦</text>
   <text y="745.481" x="211.234,217.591,219.83350000000002,222.074" svgx:width="0.71,0.25,0.55,0.33" style="fill:rgb(0,0,0);font-family:URWPalladioL-Roma;font-size:8.97px;stroke:none;">C; (</text>
   <text y="745.481" x="225.061" svgx:width="0.44" style="fill:rgb(0,0,0);font-family:URWPalladioL-Bold;font-size:8.97px;stroke:none;">c</text>
   <text y="745.481" x="229.042" svgx:width="0.33" style="fill:rgb(0,0,0);font-family:URWPalladioL-Roma;font-size:8.97px;stroke:none;">)</text>
   <text y="745.481" x="234.269" svgx:width="0.61" style="fill:rgb(0,0,0);font-family:URWPalladioL-Ital;font-size:8.97px;stroke:none;">T</text>
   <text y="745.481" x="242.204" svgx:width="0.67" style="fill:rgb(0,0,0);font-family:Rpxr;font-size:8.97px;stroke:none;">=</text>
   <text y="745.481" x="250.444,254.927,259.41,263.894" svgx:width="0.5,0.5,0.5,0.5" style="fill:rgb(0,0,0);font-family:URWPalladioL-Roma;font-size:8.97px;stroke:none;">1100</text>
   <text y="742.227" x="270.619" svgx:width="0.52" style="fill:rgb(0,0,0);font-family:Pxsy;font-size:6.97px;stroke:none;">◦</text>
   <text y="745.481" x="274.764,281.121,283.3635,285.604" svgx:width="0.71,0.25,0.55,0.33" style="fill:rgb(0,0,0);font-family:URWPalladioL-Roma;font-size:8.97px;stroke:none;">C; (</text>
   <text y="745.481" x="288.59" svgx:width="0.61" style="fill:rgb(0,0,0);font-family:URWPalladioL-Bold;font-size:8.97px;stroke:none;">d</text>
   <text y="745.481" x="294.069" svgx:width="0.33" style="fill:rgb(0,0,0);font-family:URWPalladioL-Roma;font-size:8.97px;stroke:none;">)</text>
   <text y="745.481" x="299.296" svgx:width="0.61" style="fill:rgb(0,0,0);font-family:URWPalladioL-Ital;font-size:8.97px;stroke:none;">T</text>
   <text y="745.481" x="307.231" svgx:width="0.67" style="fill:rgb(0,0,0);font-family:Rpxr;font-size:8.97px;stroke:none;">=</text>
   <text y="745.481" x="315.471,319.954,324.437,328.921" svgx:width="0.5,0.5,0.5,0.5" style="fill:rgb(0,0,0);font-family:URWPalladioL-Roma;font-size:8.97px;stroke:none;">1200</text>
   <text y="742.227" x="335.646" svgx:width="0.52" style="fill:rgb(0,0,0);font-family:Pxsy;font-size:6.97px;stroke:none;">◦</text>
   <text y="745.481" x="339.791,346.148" svgx:width="0.71,0.25" style="fill:rgb(0,0,0);font-family:URWPalladioL-Roma;font-size:8.97px;stroke:none;">C.</text>
  </g>
 </g>
</svg>
