<?xml version="1.0" encoding="UTF-8"?>
<svg height="770.007" width="530.53" xmlns="http://www.w3.org/2000/svg">
 <g id="page" xmlns:svgx="http://www.xml-cml.org/schema/svgx">
  <g begin="text">
   <text y="62.979" x="76.535,84.059,87.598,90.252,93.352,96.452,98.668,102.207,104.422" svgx:width="0.94,0.44,0.33,0.39,0.39,0.28,0.44,0.28,0.39" style="fill:rgb(0,0,0);font-family:URWPalladioL-Ital;font-size:7.97px;stroke:none;">Materials</text>
   <text y="62.979" x="109.515,113.5,117.485,121.47" svgx:width="0.5,0.5,0.5,0.5" style="fill:rgb(0,0,0);font-family:URWPalladioL-Bold;font-size:7.97px;stroke:none;">2020</text>
   <text y="62.979" x="125.455" svgx:width="0.25" style="fill:rgb(0,0,0);font-family:URWPalladioL-Roma;font-size:7.97px;stroke:none;">,</text>
   <text y="62.979" x="129.44,133.425" svgx:width="0.5,0.5" style="fill:rgb(0,0,0);font-family:URWPalladioL-Ital;font-size:7.97px;stroke:none;">13</text>
   <text y="62.979" x="137.41,139.4025,141.395,145.38,149.365,153.35000000000002,495.794,499.779,501.772,506.123,508.7531,510.77,514.755" svgx:width="0.25,0.55,0.5,0.5,0.5,0.55,0.5,0.55,0.55,0.33,0.55,0.5,0.5" style="fill:rgb(0,0,0);font-family:URWPalladioL-Roma;font-size:7.97px;stroke:none;">, 801 9 of 45</text>
   <text y="97.848" x="76.535,82.155,87.235,90.548,93.861,98.729,102.742,105.7,110.567,114.75019999999999,117.782" svgx:width="0.55,0.5,0.33,0.33,0.48,0.4,0.29,0.48,0.42,0.55,0.33" style="fill:rgb(0,0,0);font-family:URWPalladioL-Roma;font-size:9.96px;stroke:none;">batteries [</text>
   <text y="97.848" x="121.162,126.143" svgx:width="0.5,0.5" style="fill:rgb(8,117,183);font-family:URWPalladioL-Roma;font-size:9.96px;stroke:none;">51</text>
   <text y="97.848" x="131.124,134.508,136.99800000000002,141.774,149.68,155.594,158.978,164.526,168.54,171.853,177.98,183.894,188.975,192.288,197.156,200.113,204.655,207.145,210.204,216.412,222.54,226.554,229.511,235.425,241.0026,243.971,247.284,253.198,257.97880000000004,260.972,267.079,270.91,276.459,280.971,285.838,290.147,294.3302,297.362,300.319,309.292,315.399,318.356,323.224,332.196,337.064,342.978,346.291,351.158,357.2336,360.263,365.883,371.4606,374.439,382.345,391.318,394.275,398.787,404.335,408.166,413.034,415.524,418.582,424.791,427.6794,430.644,433.602,437.7852,440.816,447.025,452.574,461.049,466.963,472.613,476.627,481.708,487.917,492.784,498.8596,501.899,505.212,510.69,513.657" svgx:width="0.33,0.25,0.55,0.78,0.58,0.33,0.55,0.4,0.33,0.6,0.58,0.5,0.33,0.48,0.29,0.56,0.25,0.55,0.61,0.6,0.4,0.29,0.58,0.56,0.55,0.33,0.58,0.48,0.55,0.6,0.4,0.55,0.44,0.48,0.42,0.42,0.55,0.29,0.88,0.6,0.29,0.48,0.88,0.48,0.58,0.33,0.48,0.61,0.55,0.55,0.56,0.55,0.78,0.88,0.29,0.44,0.55,0.4,0.48,0.25,0.55,0.61,0.29,0.55,0.29,0.42,0.55,0.61,0.55,0.83,0.58,0.56,0.4,0.5,0.61,0.48,0.61,0.55,0.33,0.55,0.55,0.5" style="fill:rgb(0,0,0);font-family:URWPalladioL-Roma;font-size:9.96px;stroke:none;">]. Unfortunately, during the process implemented by Umicore, Li is downgraded to a</text>
   <text y="111.358" x="76.535,79.434,84.874,93.183,96.5,102.129,107.11,110.009,116.017,120.7978,123.28,127.703,132.475,141.272,146.044,151.842,155.1288,157.581,162.562,168.649,174.736,177.635,180.883,183.782,189.411,194.183" svgx:width="0.29,0.55,0.83,0.33,0.56,0.5,0.29,0.6,0.48,0.55,0.44,0.48,0.88,0.48,0.58,0.33,0.55,0.5,0.61,0.61,0.29,0.33,0.29,0.56,0.48,0.25" style="fill:rgb(0,0,0);font-family:URWPalladioL-Roma;font-size:9.96px;stroke:none;">low-value cement additive.</text>
   <text y="124.867" x="97.795,103.992,109.063,113.363,116.669,119.62,124.154,126.64399999999999,129.164,132.47,138.373,143.1538,145.716,149.539,154.397,158.9,164.539,169.042,171.993,174.945,180.847,186.4246,188.961,191.912,197.45,202.987,208.963,211.557,216.06,221.131,226.9078,229.518,235.127,239.9078,242.459,246.76,252.662,258.2,262.206,265.512,270.37,276.273,281.131,287.2066,289.802,295.41,300.98760000000004,303.524,309.721,312.672,316.506,321.364,325.867,329.173,332.124,337.70160000000004,340.238,344.061,348.919,354.558,359.416,365.319,370.177,374.183,379.254,382.56,385.511,391.414,396.9916,399.527,402.834,408.736,413.5168,416.079,422.174,425.998,431.535,437.631,442.489,446.495,449.801,452.752,457.61,461.7932,464.385,469.923,473.20980000000003,475.774,479.081,484.983,489.7638,492.316,497.387,501.89,505.196,508.147,513.878" svgx:width="0.61,0.5,0.42,0.33,0.29,0.56,0.25,0.55,0.33,0.58,0.48,0.55,0.4,0.48,0.44,0.56,0.44,0.29,0.29,0.58,0.56,0.55,0.29,0.55,0.55,0.6,0.55,0.44,0.5,0.58,0.55,0.55,0.48,0.55,0.42,0.58,0.55,0.4,0.33,0.48,0.58,0.48,0.61,0.55,0.55,0.56,0.55,0.61,0.29,0.4,0.48,0.44,0.33,0.29,0.56,0.55,0.4,0.48,0.56,0.48,0.58,0.48,0.4,0.5,0.33,0.29,0.58,0.56,0.55,0.33,0.58,0.48,0.55,0.6,0.4,0.55,0.6,0.48,0.4,0.33,0.29,0.48,0.42,0.55,0.55,0.33,0.55,0.33,0.58,0.48,0.55,0.5,0.44,0.33,0.29,0.56,0.48" style="fill:rgb(0,0,0);font-family:URWPalladioL-Roma;font-size:9.96px;stroke:none;">Lastly, the recycling loop can be shortened by directly regenerating the properties of the active</text>
   <text y="138.377" x="76.535,85.508,90.589,93.902,98.769,102.783,105.74,110.821,113.778,118.087,120.577,130.342,136.571,142.485,145.443,149.6262,154.314,157.271,161.4542,166.142,169.455,175.369,180.1498,184.81,193.782,199.331,203.639,206.9258,211.515,216.382,222.297,228.038,230.995,234.826,240.374,246.289,255.262,260.129,266.043,269.356,274.437,277.394,280.351,285.9286,290.574,293.958,297.972,300.929,305.786,311.701,317.909,320.867,326.44460000000004,331.089,340.062,344.93,348.243,354.157,359.705,365.914,368.404,373.535,379.155,385.283,388.56980000000004,393.158,396.115,399.40180000000004,404.001,406.958,411.1412,415.829,420.91,423.867,428.176,433.654,438.287,447.26,452.808,456.649,461.4298,466.08,470.388,475.256,481.17,485.478,488.436,491.748,494.705,500.447,505.2278,509.877,513.19" svgx:width="0.88,0.5,0.33,0.48,0.4,0.29,0.5,0.29,0.42,0.25,0.55,0.61,0.58,0.29,0.42,0.55,0.29,0.42,0.55,0.33,0.58,0.48,0.55,0.88,0.55,0.42,0.33,0.55,0.48,0.58,0.56,0.29,0.4,0.55,0.58,0.88,0.48,0.58,0.33,0.5,0.29,0.29,0.56,0.55,0.33,0.4,0.29,0.48,0.58,0.61,0.29,0.56,0.55,0.88,0.48,0.33,0.58,0.55,0.61,0.25,0.55,0.55,0.6,0.33,0.55,0.29,0.33,0.55,0.29,0.42,0.55,0.5,0.29,0.42,0.55,0.55,0.88,0.55,0.4,0.48,0.55,0.42,0.48,0.58,0.42,0.29,0.33,0.29,0.56,0.48,0.55,0.33,0.55" style="fill:rgb(0,0,0);font-family:URWPalladioL-Roma;font-size:9.96px;stroke:none;">materials. This is the most environmentally friendly method, but it is also more sensitive to</text>
   <text y="151.886" x="76.535,79.848,85.762,90.5428,94.105,98.413,101.726,106.807,110.12,114.987,118.371,123.92,127.304,130.688,136.602,141.469,146.55,149.507,152.82,158.5968,162.21,167.758,171.0448,174.617,180.826,184.251,190.46,194.768,197.258,203.751,211.617,216.484,219.868,224.735,229.247,232.56,236.7432,240.344,245.425,251.339,257.4146,261.023,263.981,272.953,279.061,285.188,289.202,292.159,295.472,298.429,303.297,307.4802,311.07,316.151,320.663,325.175,331.303,340.276,346.403,349.36,354.441,357.754,362.622,368.6976,372.306,378.515,384.642,388.656,391.613,397.528,403.10560000000004,406.653,411.165,416.815,421.327,424.284,427.241,433.155,438.7326,442.28,447.829,451.813,455.318,459.83,464.911,471.038,475.347,480.214,486.2896,489.899,495.518,501.0956,504.644,507.956,513.871" svgx:width="0.33,0.58,0.48,0.55,0.42,0.33,0.5,0.33,0.48,0.33,0.55,0.33,0.33,0.58,0.48,0.5,0.29,0.33,0.58,0.55,0.55,0.33,0.55,0.61,0.34,0.61,0.42,0.25,0.55,0.77,0.48,0.33,0.48,0.44,0.33,0.42,0.55,0.5,0.58,0.61,0.55,0.29,0.88,0.6,0.6,0.4,0.29,0.33,0.29,0.48,0.42,0.55,0.5,0.44,0.44,0.6,0.88,0.6,0.29,0.5,0.33,0.48,0.61,0.55,0.61,0.6,0.4,0.29,0.58,0.56,0.55,0.44,0.56,0.44,0.29,0.29,0.58,0.56,0.55,0.55,0.4,0.55,0.44,0.5,0.6,0.42,0.48,0.61,0.55,0.55,0.56,0.55,0.33,0.58,0.48" style="fill:rgb(0,0,0);font-family:URWPalladioL-Roma;font-size:9.96px;stroke:none;">the state-of-health of LIBs. Defects and impurities accumulated during cycling or caused by the</text>
   <text y="165.395" x="76.535,81.866,87.382,92.059,95.74,98.991,104.956,107.797,111.937,116.272,121.954,126.836,130.507,135.935,138.776,144.459,150.0366,151.791,156.673,162.355,170.224,173.065,181.686,187.554,191.225,196.556,202.424,207.1,211.084,212.861,217.0,220.183,225.514,229.37,234.252,239.681,244.4618,246.261,251.592,254.8788,256.737,262.703,265.993,271.958,276.1412,278.002,282.337,287.667,293.555,296.396,304.265" svgx:width="0.55,0.56,0.48,0.4,0.33,0.61,0.29,0.42,0.44,0.58,0.5,0.4,0.56,0.29,0.58,0.56,0.55,0.5,0.58,0.61,0.29,0.88,0.6,0.4,0.55,0.6,0.48,0.4,0.55,0.42,0.33,0.55,0.4,0.5,0.56,0.48,0.55,0.55,0.33,0.55,0.61,0.34,0.61,0.42,0.55,0.44,0.55,0.6,0.29,0.61,0.5" style="fill:rgb(0,0,0);font-family:URWPalladioL-Roma;font-size:9.96px;stroke:none;">over-discharging andimproper storage of LIBs coulda</text>
   <text y="165.395" x="309.144" svgx:width="0.61" style="fill:rgb(0,0,0);font-family:Rpxr;font-size:9.96px;stroke:none;">ﬀ</text>
   <text y="165.395" x="315.08,319.757,324.092,327.3788,329.178,332.361,338.043,342.8238,344.614,350.082,355.969,360.851,363.692,366.533,369.716,375.2936,377.048,382.379,385.66580000000005,387.534,390.717,396.399,401.1798,402.97,406.65,411.327,414.578,420.466,424.322,429.721,432.562,436.702,442.384,447.061,454.93,459.812,464.147,467.33,470.171,475.687,480.4678,482.258,490.879,495.761,498.943,503.62,507.477,510.318,515.199,518.04" svgx:width="0.48,0.44,0.33,0.55,0.33,0.58,0.48,0.55,0.56,0.6,0.5,0.29,0.29,0.33,0.56,0.55,0.55,0.33,0.55,0.33,0.58,0.48,0.55,0.4,0.48,0.33,0.6,0.4,0.55,0.29,0.42,0.58,0.48,0.61,0.5,0.44,0.33,0.29,0.56,0.48,0.55,0.88,0.5,0.33,0.48,0.4,0.29,0.5,0.29,0.25" style="fill:rgb(0,0,0);font-family:URWPalladioL-Roma;font-size:9.96px;stroke:none;">ect the quality of the refurbishedactive material.</text>
   <text y="178.905" x="76.535,84.131,86.972,90.155,92.996,101.617,106.499,109.682,114.358,117.199,121.525,124.015,126.143,131.024,134.275,137.458,142.135,146.119,148.1,156.721,161.603,167.285,172.8626,174.823,179.158,184.586,188.921,191.762,196.439,200.578,203.068,205.196,208.379,214.062,218.8428,220.847,225.729,230.064,233.246,236.088,241.604,246.3848,248.389,257.01,261.892,265.075,269.752,273.608,276.449,281.331,284.2194,286.271,294.892,297.733,303.162,308.844,312.1308,314.136,319.818,324.7,330.216,334.9968,337.002,340.185,345.663,347.614,353.014,357.7948,359.799,365.764,368.606,372.745,377.08,381.962,385.643,391.608,396.285,402.36060000000003,404.349,409.231,414.913,420.9886,422.987,426.668,431.345,435.485,440.913,446.595,449.778,455.46,460.137,464.277,467.118,471.999,476.676,482.7516,484.741,490.14,494.816,499.151,504.033,509.92,514.06" svgx:width="0.78,0.29,0.33,0.29,0.88,0.5,0.33,0.48,0.29,0.56,0.25,0.55,0.5,0.33,0.33,0.48,0.4,0.55,0.88,0.5,0.58,0.56,0.55,0.44,0.56,0.44,0.29,0.48,0.42,0.25,0.55,0.33,0.58,0.48,0.55,0.5,0.44,0.33,0.29,0.56,0.48,0.55,0.88,0.5,0.33,0.48,0.4,0.29,0.5,0.29,0.55,0.88,0.29,0.56,0.58,0.33,0.55,0.58,0.5,0.56,0.48,0.55,0.33,0.55,0.55,0.55,0.48,0.55,0.61,0.29,0.42,0.44,0.5,0.4,0.61,0.48,0.61,0.55,0.5,0.58,0.61,0.55,0.4,0.48,0.42,0.56,0.58,0.33,0.58,0.48,0.42,0.29,0.5,0.48,0.61,0.55,0.55,0.48,0.44,0.5,0.6,0.42,0.48" style="fill:rgb(0,0,0);font-family:URWPalladioL-Roma;font-size:9.96px;stroke:none;">Ultimately, after many cycles, the active material might have to be discarded and resynthesized because</text>
   <text y="192.414" x="76.535,82.744,85.701,89.532,94.4,98.911,102.1978,104.927,108.758,113.626,118.138,123.788,128.299,131.257,134.214,140.128,145.70559999999998,148.481,152.993,158.074,163.988,169.902,175.45,178.7368,181.456,187.106,191.974,195.2608,197.979,201.363,207.491,210.448,213.405,218.9826,221.758,225.589,230.457,234.765,238.078,243.626,247.467,252.2478,255.028,258.341,264.255,269.0358,271.825,274.783,280.697,283.654,286.967,289.913,294.994,297.8824,300.655,306.762,310.593,316.141,322.248,327.116,331.13,334.443,337.4,342.267,346.4502,349.279,354.827,358.1138,360.904,367.011,371.025,373.982,378.291,381.604,384.561,390.475,395.2558,398.046,403.127,407.639,410.951,413.908,419.65,424.4308,427.21,436.183,441.264,444.577,449.444,453.458,456.415,461.496,464.453,468.762,471.252,475.408,483.314,486.271,489.584,495.498,501.046,507.174,512.824" svgx:width="0.61,0.29,0.4,0.48,0.44,0.33,0.55,0.4,0.48,0.44,0.56,0.44,0.29,0.29,0.58,0.56,0.55,0.44,0.5,0.58,0.58,0.55,0.33,0.55,0.56,0.48,0.33,0.55,0.33,0.6,0.29,0.29,0.56,0.55,0.4,0.48,0.42,0.33,0.55,0.4,0.48,0.55,0.33,0.58,0.48,0.55,0.29,0.58,0.29,0.33,0.29,0.5,0.29,0.55,0.6,0.4,0.55,0.6,0.48,0.4,0.33,0.29,0.48,0.42,0.55,0.55,0.33,0.55,0.6,0.4,0.29,0.42,0.33,0.29,0.58,0.48,0.55,0.5,0.44,0.33,0.29,0.56,0.48,0.55,0.88,0.5,0.33,0.48,0.4,0.29,0.5,0.29,0.42,0.25,0.55,0.78,0.29,0.33,0.58,0.55,0.6,0.56,0.58" style="fill:rgb(0,0,0);font-family:URWPalladioL-Roma;font-size:9.96px;stroke:none;">direct recycling cannot yet fully restore the initial properties of pristine active materials. Although</text>
   <text y="205.924" x="76.535,85.27,90.672,94.402,99.1828,101.643,106.036,111.437,120.172,126.118,128.997,133.736,138.9152,141.333,147.279,151.008,155.747,158.972,162.702,167.441,172.387,175.612,184.347,189.086,194.844,198.1308,200.572,203.451,207.6342,210.138,213.868,218.606,224.146,230.112,232.991,236.72,241.459,247.5346,250.006,253.231,258.709,261.126,266.072,271.662,277.063,279.942,286.0176,288.49,292.882,296.612,302.013,306.208,310.3912,312.895,317.288,322.689,328.447,331.672,336.618,345.354,348.233,353.99,358.937,362.162,365.041,370.442,376.2188,378.703,381.997,385.727,391.128,402.366,406.759,412.16,420.896,426.841,432.243,437.991,442.729,448.487,451.712,455.8952,458.409,463.811,467.0978,469.608,475.01,478.235,483.992,488.731,492.715,495.132,498.357,503.857,509.803,514.542" svgx:width="0.88,0.55,0.4,0.48,0.55,0.44,0.55,0.88,0.6,0.29,0.48,0.52,0.55,0.6,0.4,0.48,0.33,0.4,0.48,0.5,0.33,0.88,0.48,0.58,0.33,0.55,0.29,0.42,0.55,0.4,0.48,0.56,0.6,0.29,0.4,0.48,0.61,0.55,0.33,0.55,0.55,0.5,0.56,0.55,0.29,0.61,0.55,0.44,0.4,0.55,0.42,0.42,0.55,0.44,0.55,0.58,0.33,0.5,0.88,0.29,0.58,0.5,0.33,0.29,0.55,0.58,0.55,0.33,0.4,0.55,0.88,0.44,0.55,0.88,0.6,0.55,0.58,0.48,0.58,0.33,0.42,0.55,0.55,0.33,0.55,0.55,0.33,0.58,0.48,0.4,0.55,0.33,0.56,0.6,0.48,0.42" style="fill:rgb(0,0,0);font-family:URWPalladioL-Roma;font-size:9.96px;stroke:none;">more complex pretreatment is required to avoid cross contamination fromcomponents of other types</text>
   <text y="219.433" x="76.535,81.975,85.2618,87.793,93.88,97.237,103.324,107.549,110.039,112.54,115.788,121.586,124.485,128.6682,131.2,136.181,142.169,148.156,151.912,157.352,162.333,166.756,172.5328,175.055,178.811,183.583,189.67,195.678,200.101,204.873,209.0562,211.598,214.846,220.644,225.4248,227.907,231.663,236.435,242.014,248.021,250.92,254.676,259.448,265.5236,268.036,273.017,281.814,287.254,293.261,299.06,302.307,306.4902,309.032,314.472,317.7588,320.29,325.062,330.86,335.632,339.388,344.927,350.50460000000004,352.957,357.939,363.737,369.81260000000003,372.325,376.081,380.853,385.834,391.373,396.145,401.943,405.191,409.3742,411.916,416.897,422.695,428.7706,431.273,436.255,439.154,447.951,452.1342,454.675,457.923,463.401,465.863,470.088,472.987,481.784,487.771,490.67,493.569,496.887,502.4646,504.927,508.175,513.973" svgx:width="0.55,0.33,0.55,0.61,0.34,0.61,0.42,0.25,0.55,0.33,0.58,0.29,0.42,0.55,0.5,0.6,0.6,0.4,0.55,0.5,0.44,0.58,0.55,0.4,0.48,0.61,0.6,0.44,0.48,0.42,0.55,0.33,0.58,0.48,0.55,0.4,0.48,0.56,0.6,0.29,0.4,0.48,0.61,0.55,0.5,0.88,0.55,0.6,0.58,0.33,0.42,0.55,0.55,0.33,0.55,0.48,0.58,0.48,0.4,0.56,0.56,0.55,0.5,0.58,0.61,0.55,0.4,0.48,0.5,0.56,0.48,0.58,0.33,0.42,0.55,0.5,0.58,0.61,0.55,0.5,0.29,0.88,0.42,0.55,0.33,0.55,0.55,0.42,0.29,0.88,0.6,0.29,0.29,0.33,0.56,0.55,0.33,0.58,0.48" style="fill:rgb(0,0,0);font-family:URWPalladioL-Roma;font-size:9.96px;stroke:none;">of LIBs, this approach reduces the required amounts of energy and reagents and aims to simplify the</text>
   <text y="232.942" x="76.535,80.958,86.398,90.154,94.9348,97.417,103.404,107.16,112.6,117.023,121.795,126.019,130.243,132.733,135.225,143.533,149.332,152.231,156.654,162.4308,164.943,169.367,174.806,180.814,183.713,189.7886,192.29,196.046,200.818,205.043,211.05,213.949,217.2358,219.688,222.587,228.3638,230.876,235.1,243.897,248.878,251.777,254.676,259.448,263.43199999999996,265.874,270.855,276.654,282.7296,285.232,294.029,299.468,303.224,308.0048,310.487" svgx:width="0.44,0.55,0.4,0.48,0.55,0.6,0.4,0.55,0.44,0.48,0.42,0.42,0.25,0.55,0.83,0.58,0.29,0.44,0.58,0.55,0.44,0.55,0.6,0.29,0.61,0.55,0.4,0.48,0.42,0.6,0.29,0.33,0.55,0.29,0.58,0.55,0.42,0.88,0.5,0.29,0.29,0.48,0.4,0.55,0.5,0.58,0.61,0.55,0.88,0.55,0.4,0.48,0.55,0.5" style="fill:rgb(0,0,0);font-family:URWPalladioL-Roma;font-size:9.96px;stroke:none;">core process, which could result in smaller and more a</text>
   <text y="232.942" x="315.467" svgx:width="0.61" style="fill:rgb(0,0,0);font-family:Rpxr;font-size:9.96px;stroke:none;">ﬀ</text>
   <text y="232.942" x="321.524,326.964,330.72,336.807,341.788,347.297,350.196,354.9768,357.459,361.215,365.987,370.411,375.95,380.373,383.272,386.171,391.97,397.54760000000005,399.999,405.987,408.886,413.867,419.666,422.913,427.138" svgx:width="0.55,0.4,0.61,0.5,0.55,0.29,0.48,0.55,0.4,0.48,0.44,0.56,0.44,0.29,0.29,0.58,0.56,0.55,0.6,0.29,0.5,0.58,0.33,0.42,0.25" style="fill:rgb(0,0,0);font-family:URWPalladioL-Roma;font-size:9.96px;stroke:none;">ordable recycling plants.</text>
   <text y="246.452" x="97.795,103.13,107.997,110.955,115.822,120.334,123.647,126.604,132.345,137.1258,141.684,147.598,153.248,159.457,163.298,168.847,177.82,182.687,186.0,191.081,194.038,196.995,203.123,206.954,212.604,218.1816,222.725,225.682,229.8652,234.462,239.543,245.31980000000001,249.938,252.895,258.81,262.122,266.99,271.004,279.977,284.844,291.053,294.01,299.091,302.404,307.1848,311.743,316.824,322.931,329.038,332.869,338.418,343.498,348.01,353.78679999999997,358.406,364.025,368.893,372.206,380.681,385.548,390.416,396.1928,400.801,407.01,409.967,413.798,418.666,423.177,426.46380000000005,430.961,434.803,439.67,444.182,449.73,455.645,461.853,464.811,468.123,471.08,476.629,482.543,485.5,491.414,496.9916,501.535,506.616,512.531" svgx:width="0.52,0.48,0.29,0.48,0.44,0.33,0.29,0.56,0.48,0.55,0.58,0.56,0.61,0.4,0.55,0.88,0.48,0.33,0.5,0.29,0.29,0.6,0.4,0.56,0.56,0.55,0.29,0.42,0.55,0.5,0.58,0.55,0.29,0.58,0.33,0.48,0.4,0.88,0.48,0.61,0.29,0.5,0.33,0.48,0.55,0.5,0.6,0.6,0.4,0.55,0.5,0.44,0.58,0.55,0.55,0.48,0.33,0.83,0.48,0.48,0.58,0.55,0.61,0.29,0.4,0.48,0.44,0.33,0.55,0.4,0.48,0.44,0.55,0.58,0.61,0.29,0.33,0.29,0.55,0.58,0.29,0.58,0.56,0.55,0.5,0.58,0.61" style="fill:rgb(0,0,0);font-family:URWPalladioL-Roma;font-size:9.96px;stroke:none;">Selective hydrometallurgy is an intermediate approach between direct reconditioning and</text>
   <text y="259.961" x="76.535,80.216,84.892,89.227,94.656,98.991,101.832,104.673,110.355,115.784,118.274,121.671,127.656,133.338,138.1188,140.407,144.742,147.583,152.26,157.141,162.823,165.665,171.347,176.9246,179.158" svgx:width="0.4,0.48,0.44,0.56,0.44,0.29,0.29,0.58,0.56,0.25,0.55,0.61,0.58,0.48,0.55,0.44,0.29,0.48,0.5,0.58,0.29,0.58,0.56,0.55,0.48" style="fill:rgb(0,0,0);font-family:URWPalladioL-Roma;font-size:9.96px;stroke:none;">recycling. The cleaning e</text>
   <text y="259.961" x="183.838" svgx:width="0.61" style="fill:rgb(0,0,0);font-family:Rpxr;font-size:9.96px;stroke:none;">ﬀ</text>
   <text y="259.961" x="189.774,194.451,198.786,202.0728,204.36,209.691,212.9778,215.325,219.464,224.141,226.982,231.659,235.994,239.177,242.018,247.534,252.3148,254.603,257.444,262.12,267.002,271.337,277.019,279.86,285.543,291.1206,293.353,297.034,301.711,307.676,313.564,317.898,322.575,326.7582,329.107,332.29,337.972,342.7528,345.031,350.899,354.579,359.91,364.245,368.922,373.061,377.2442,379.583,383.723,388.4,394.082,398.221,401.063,404.245,407.087,412.603,415.444,418.627,424.2046,426.447,429.63,435.108,437.343,441.678,447.009,452.691,455.874,460.756,469.377,472.218,477.9,482.782,485.965,488.806,494.137,499.9138,502.211,507.093,512.775" svgx:width="0.48,0.44,0.33,0.55,0.55,0.33,0.55,0.42,0.48,0.29,0.48,0.44,0.33,0.29,0.56,0.48,0.55,0.29,0.48,0.5,0.44,0.58,0.29,0.58,0.56,0.55,0.4,0.48,0.61,0.6,0.44,0.48,0.42,0.55,0.33,0.58,0.48,0.55,0.6,0.4,0.55,0.44,0.48,0.42,0.42,0.55,0.42,0.48,0.58,0.42,0.29,0.33,0.29,0.56,0.29,0.33,0.56,0.55,0.33,0.55,0.55,0.44,0.55,0.58,0.33,0.5,0.88,0.29,0.58,0.5,0.33,0.29,0.55,0.58,0.55,0.5,0.58,0.61" style="fill:rgb(0,0,0);font-family:URWPalladioL-Roma;font-size:9.96px;stroke:none;">ect of selective leaching reduces the process sensitivity to contamination and</text>
   <text y="273.471" x="76.535,82.044,87.026,90.273,93.521,98.293,102.229,107.8066,110.258,116.346,121.118,124.435,129.207,133.631,136.878,141.103" svgx:width="0.55,0.5,0.33,0.33,0.48,0.4,0.56,0.55,0.61,0.48,0.33,0.48,0.44,0.33,0.42,0.25" style="fill:rgb(0,0,0);font-family:URWPalladioL-Roma;font-size:9.96px;stroke:none;">battery defects.</text>
   <text y="286.98" x="97.795,105.585,108.498,111.38640000000001,113.905,117.169,122.996,126.771,131.567,136.3478,138.846,143.852,149.87,155.887,159.672,165.138,170.145,174.59,180.417,185.213,189.3962,191.942,196.948,200.723,205.5038,208.012,212.457,217.924,226.765,232.782,237.789,241.563,246.359,252.43460000000002,254.97,257.883,263.65979999999996,266.194,269.458,275.285,280.0658,282.574,286.819,292.837,295.75,301.868,306.664,310.64799999999997,313.112,317.557,323.385,328.391,332.346,335.63280000000003,338.093,341.007,346.7838,349.327,354.894,357.807,363.374,369.412,373.186" svgx:width="0.78,0.29,0.29,0.55,0.33,0.58,0.4,0.48,0.48,0.55,0.5,0.6,0.6,0.4,0.55,0.5,0.44,0.58,0.48,0.42,0.55,0.5,0.4,0.48,0.55,0.44,0.55,0.88,0.6,0.5,0.4,0.48,0.61,0.55,0.29,0.58,0.55,0.33,0.58,0.48,0.55,0.42,0.6,0.29,0.61,0.48,0.4,0.55,0.44,0.58,0.5,0.4,0.33,0.55,0.29,0.58,0.55,0.56,0.29,0.56,0.6,0.4,0.48" style="fill:rgb(0,0,0);font-family:URWPalladioL-Roma;font-size:9.96px;stroke:none;">All three approaches are compared in the spider chart in Figure</text>
   <text y="286.98" x="380.475" svgx:width="0.5" style="fill:rgb(8,117,183);font-family:URWPalladioL-Roma;font-size:9.96px;stroke:none;">6</text>
   <text y="286.98" x="387.975,394.012,398.257,401.171,406.998,412.5756,415.048,420.515,426.553,430.537,433.001,438.467,446.818,452.59479999999996,455.138,459.583,463.538,466.452,469.716,474.512,478.467,481.38,486.387,488.877,491.373,499.723,505.55,508.464,512.91" svgx:width="0.6,0.42,0.29,0.58,0.56,0.55,0.55,0.6,0.4,0.55,0.55,0.83,0.58,0.55,0.44,0.4,0.29,0.33,0.48,0.4,0.29,0.5,0.25,0.55,0.83,0.58,0.29,0.44,0.58" style="fill:rgb(0,0,0);font-family:URWPalladioL-Roma;font-size:9.96px;stroke:none;">using our own criteria, which</text>
   <text y="300.489" x="76.117,84.359,89.093,92.819,97.5998,100.044,104.777,108.968,112.19,117.131,122.596,125.472,128.348,132.538,138.29,143.024,149.0996,151.553,156.495,159.786,163.007,167.741,171.72500000000002,174.136,179.077,183.267,187.458,192.192,196.382,200.572,203.448,209.2,214.77759999999998,217.186,222.127,225.003,228.729,233.463,238.404,244.443,250.0206,252.428,258.368,264.327,269.792,272.668,275.544,279.734,285.486,290.22,296.29560000000004,298.749,301.625,307.377,310.668,316.064,319.968,328.694,333.636,336.858,339.733,345.13,350.9068,353.372" svgx:width="0.83,0.48,0.4,0.48,0.55,0.48,0.42,0.33,0.5,0.55,0.29,0.29,0.42,0.58,0.48,0.61,0.55,0.5,0.33,0.33,0.48,0.4,0.55,0.5,0.42,0.42,0.48,0.42,0.42,0.29,0.58,0.56,0.55,0.5,0.29,0.4,0.48,0.5,0.61,0.56,0.55,0.6,0.6,0.55,0.29,0.29,0.42,0.58,0.48,0.61,0.55,0.29,0.58,0.33,0.55,0.4,0.88,0.5,0.33,0.29,0.55,0.58,0.55,0.33" style="fill:rgb(0,0,0);font-family:URWPalladioL-Roma;font-size:9.96px;stroke:none;">were established after assessing already published information [</text>
   <text y="300.489" x="356.659" svgx:width="0.5" style="fill:rgb(8,117,183);font-family:URWPalladioL-Roma;font-size:9.96px;stroke:none;">4</text>
   <text y="300.489" x="361.64" svgx:width="0.25" style="fill:rgb(0,0,0);font-family:URWPalladioL-Roma;font-size:9.96px;stroke:none;">,</text>
   <text y="300.489" x="364.111" svgx:width="0.5" style="fill:rgb(8,117,183);font-family:URWPalladioL-Roma;font-size:9.96px;stroke:none;">6</text>
   <text y="300.489" x="369.092" svgx:width="0.25" style="fill:rgb(0,0,0);font-family:URWPalladioL-Roma;font-size:9.96px;stroke:none;">,</text>
   <text y="300.489" x="371.563,376.544" svgx:width="0.5,0.5" style="fill:rgb(8,117,183);font-family:URWPalladioL-Roma;font-size:9.96px;stroke:none;">10</text>
   <text y="300.489" x="381.526" svgx:width="0.25" style="fill:rgb(0,0,0);font-family:URWPalladioL-Roma;font-size:9.96px;stroke:none;">,</text>
   <text y="300.489" x="383.996,388.977" svgx:width="0.5,0.5" style="fill:rgb(8,117,183);font-family:URWPalladioL-Roma;font-size:9.96px;stroke:none;">11</text>
   <text y="300.489" x="393.959" svgx:width="0.25" style="fill:rgb(0,0,0);font-family:URWPalladioL-Roma;font-size:9.96px;stroke:none;">,</text>
   <text y="300.489" x="396.43,401.411" svgx:width="0.5,0.5" style="fill:rgb(8,117,183);font-family:URWPalladioL-Roma;font-size:9.96px;stroke:none;">52</text>
   <text y="300.489" x="406.392,409.6788,412.173,417.115,422.867,428.9426,431.396,436.792,442.751,446.73499999999996,449.145,454.541,462.784,468.5608,471.026,475.76,480.86,486.799,491.533,495.437,498.313,503.047,508.799,513.187,517.921" svgx:width="0.33,0.55,0.5,0.58,0.61,0.55,0.55,0.6,0.4,0.55,0.55,0.83,0.58,0.55,0.48,0.52,0.6,0.48,0.4,0.29,0.48,0.58,0.44,0.48,0.25" style="fill:rgb(0,0,0);font-family:URWPalladioL-Roma;font-size:9.96px;stroke:none;">] and our own experience.</text>
   <text y="323.702" x="76.535,81.516,84.007,88.988,91.478,94.966,101.611,107.15,111.026,114.722,118.597,124.136,127.454,130.223,135.203,137.695,145.446,149.322,153.197,158.177,160.669,167.314,171.19,175.244,180.226,184.28,187.05,189.82,195.359,200.339,202.831,208.918,212.614,217.038,221.092,224.968,228.843,232.719,236.594" svgx:width="0.5,0.25,0.5,0.25,0.55,0.67,0.56,0.39,0.39,0.39,0.56,0.33,0.28,0.5,0.55,0.78,0.39,0.39,0.5,0.55,0.67,0.39,0.41,0.5,0.41,0.28,0.28,0.56,0.5,0.55,0.61,0.39,0.44,0.41,0.39,0.39,0.39,0.39,0.39" style="fill:rgb(0,0,0);font-family:URWPalladioL-Ital;font-size:9.96px;stroke:none;">4.1. Currently Used Recycling Processes</text>
   <text y="343.189" x="97.795,102.921,107.597,113.114,117.79,121.647,126.529,129.4174,131.859,135.54,140.217,144.552,149.98,154.315,157.156,159.997,165.68,171.2576,173.598,179.465,182.307,187.188,192.87,196.053,200.2362,202.683,207.018,212.905,216.761,220.432,225.109,230.791,233.974,236.815,242.3926,244.733,250.064,255.932,260.609,264.465,269.347,272.53,277.3108,279.696,287.839,293.169,297.026,299.867,305.832,313.975,316.816,322.782,327.5628,329.948,333.199,336.04,341.8168,344.212,351.134,356.817,359.658,365.34,370.222,372.712,375.152,381.118,387.005,390.686,396.016,401.884,406.561,409.051,411.491,414.743,419.624,425.492,430.374,436.056,438.546,440.986,445.868,451.55,457.6256,460.005,467.601,472.727,480.323,483.574,486.064,488.505,493.572,498.454,503.853,506.694" svgx:width="0.52,0.48,0.56,0.48,0.4,0.5,0.29,0.55,0.4,0.48,0.44,0.56,0.44,0.29,0.29,0.58,0.56,0.55,0.6,0.29,0.5,0.58,0.33,0.42,0.55,0.44,0.6,0.4,0.4,0.48,0.58,0.33,0.29,0.56,0.55,0.55,0.6,0.48,0.4,0.5,0.33,0.48,0.55,0.83,0.55,0.4,0.29,0.61,0.83,0.29,0.61,0.48,0.55,0.33,0.29,0.58,0.55,0.71,0.58,0.29,0.58,0.5,0.25,0.55,0.61,0.6,0.4,0.55,0.6,0.48,0.25,0.55,0.33,0.5,0.6,0.5,0.58,0.25,0.55,0.5,0.58,0.61,0.55,0.78,0.52,0.78,0.33,0.25,0.55,0.61,0.5,0.55,0.29,0.48" style="fill:rgb(0,0,0);font-family:URWPalladioL-Roma;font-size:9.96px;stroke:none;">Several recycling plants currently operate worldwide (in China, Europe, Japan, and USA). Table</text>
   <text y="343.189" x="513.86" svgx:width="0.5" style="fill:rgb(8,117,183);font-family:URWPalladioL-Roma;font-size:9.96px;stroke:none;">3</text>
   <text y="356.699" x="76.236,82.343,86.174,91.042,95.35,100.218,106.132,109.445,113.62819999999999,116.934,121.914,125.186,131.1,136.648,142.562,145.946,150.814,156.057,161.972,167.052,173.18,177.489,180.801,183.759,189.5,194.2808,197.548,200.505,203.462,207.771,211.0578,214.254,219.803,223.0898,226.367,230.879,237.007,241.021,244.852,249.719,255.633,258.946,261.903,267.48060000000004,270.724,276.272,282.379,287.247,291.261,296.342,299.654,302.612,308.526,314.10360000000003,317.356,323.565,326.99,333.0656,336.369,340.21,345.078,349.59,355.24,359.752,362.709,367.576,371.59,375.899,378.389,383.977,389.627,395.176,399.15999999999997,402.36,411.333,416.414,422.328,427.9056,431.159,435.671,441.219,450.192,456.299,461.38,467.295,470.252,475.119,479.428,481.918,485.311,489.62,495.748,500.26,506.03679999999997,509.354,514.435" svgx:width="0.6,0.4,0.48,0.42,0.48,0.58,0.33,0.42,0.55,0.5,0.55,0.58,0.55,0.58,0.33,0.48,0.52,0.58,0.5,0.6,0.42,0.33,0.29,0.56,0.48,0.55,0.29,0.29,0.42,0.33,0.55,0.55,0.33,0.55,0.44,0.6,0.4,0.4,0.48,0.58,0.33,0.29,0.56,0.55,0.55,0.6,0.48,0.4,0.5,0.33,0.29,0.58,0.56,0.55,0.61,0.34,0.61,0.55,0.4,0.48,0.44,0.56,0.44,0.29,0.48,0.4,0.42,0.25,0.55,0.56,0.55,0.4,0.55,0.88,0.5,0.58,0.56,0.55,0.44,0.55,0.88,0.6,0.5,0.58,0.29,0.48,0.42,0.25,0.55,0.42,0.6,0.44,0.58,0.55,0.5,0.42" style="fill:rgb(0,0,0);font-family:URWPalladioL-Roma;font-size:9.96px;stroke:none;">presents a non-exhaustive list of currently operating LIB recyclers. For many companies, such as</text>
   <text y="370.208" x="76.535,81.87,90.314,98.22,110.425,115.506,121.42,127.4956,130.22,137.974,140.931,145.798,151.712,156.224,161.773,165.604,170.471,173.855,180.633,184.942,188.254,192.268,197.349,200.662,205.743,208.233,210.905,214.218,220.132,224.9128,227.591,230.904,234.735,239.602,244.683,247.996,256.969,261.836,267.751,271.0378,273.655,279.203,282.4898,285.178,291.387,294.812,301.02,305.2032,307.92,310.877,315.0602,317.777,322.858,328.6348,331.364,336.231,341.475,347.582,352.663,358.577,362.886,365.843,371.391,377.1678,379.897,385.445,388.7318,391.42,394.733,400.647,405.515,408.472,412.45599999999996,415.077,418.034,423.948,426.905,430.218,433.175,438.256,441.14439999999996,443.805,452.249,455.206,458.59,464.21,469.291,473.599,478.467,484.5426,487.267,492.886,497.967,501.28,504.593,509.46,513.474" svgx:width="0.52,0.83,0.78,0.95,0.5,0.58,0.61,0.55,0.76,0.29,0.48,0.58,0.44,0.55,0.4,0.48,0.33,0.67,0.42,0.33,0.4,0.5,0.33,0.5,0.25,0.55,0.33,0.58,0.48,0.55,0.33,0.4,0.48,0.5,0.33,0.88,0.48,0.58,0.33,0.55,0.55,0.33,0.55,0.61,0.34,0.61,0.42,0.55,0.29,0.42,0.55,0.5,0.58,0.55,0.48,0.52,0.6,0.5,0.58,0.42,0.29,0.55,0.58,0.55,0.55,0.33,0.55,0.33,0.58,0.48,0.29,0.4,0.55,0.29,0.58,0.29,0.33,0.29,0.5,0.29,0.55,0.83,0.29,0.33,0.55,0.5,0.42,0.48,0.61,0.55,0.55,0.5,0.33,0.33,0.48,0.4,0.56" style="fill:rgb(0,0,0);font-family:URWPalladioL-Roma;font-size:9.96px;stroke:none;">SNAMand Glencore-Xstrata, the treatment of LIBs is an expansion of their initial Ni-based battery</text>
   <text y="383.718" x="76.207,79.525,87.803,90.703,94.02,101.084,107.1596,109.661,114.643,120.441,126.5166,129.019,134.817,137.716,142.139,147.679,152.451,155.35,160.331,169.128,173.9,177.148,182.129,185.01739999999998,187.519,193.317,198.857,204.944,208.879,211.778,217.865,222.6458,225.128,228.445,236.724,239.623,249.048,257.337,260.655,263.9418,266.463,270.219,274.991,279.414,284.953,289.377,292.276,295.175,300.973,306.55060000000003,309.003,314.443,320.43,325.202,329.138,334.119,337.367,340.266,345.705,351.504,355.728" svgx:width="0.33,0.83,0.29,0.33,0.71,0.61,0.55,0.5,0.58,0.61,0.55,0.58,0.29,0.44,0.56,0.48,0.29,0.5,0.88,0.48,0.33,0.5,0.29,0.55,0.58,0.56,0.61,0.4,0.29,0.61,0.48,0.55,0.33,0.83,0.29,0.95,0.83,0.33,0.33,0.55,0.4,0.48,0.44,0.56,0.44,0.29,0.29,0.58,0.56,0.55,0.55,0.6,0.48,0.4,0.5,0.33,0.29,0.55,0.58,0.42,0.25" style="fill:rgb(0,0,0);font-family:URWPalladioL-Roma;font-size:9.96px;stroke:none;">(Ni-Cd and nickel–metal hydride (NiMH)) recycling operations.</text>
   <text y="408.459" x="148.932,153.917,158.401,163.879,166.865,171.35000000000002,173.59,178.073" svgx:width="0.67,0.5,0.61,0.33,0.5,0.55,0.5,0.25" style="fill:rgb(0,0,0);font-family:URWPalladioL-Bold;font-size:8.97px;stroke:none;">Table 3.</text>
   <text y="408.459" x="183.453,188.931,191.541,195.342,198.30210000000002,200.507,205.403,208.3631,210.63,214.611,220.018,223.56,226.94,231.235,236.453,239.41310000000001,241.618,244.998,249.293,253.274,258.26,262.241,264.85,267.459,272.678,277.7012,279.905,282.89,287.374,291.355,293.964,296.573,299.182,302.105,304.715,309.009,312.7764,315.053,319.536,324.755,330.2267,332.475,335.855,340.15,344.131,349.116,353.097,355.707,358.316,363.534,368.55719999999997,370.761,376.15,379.53,384.426,388.407,392.702,396.504,400.305,404.6,408.36740000000003,410.644,413.567,418.785,423.08,428.10319999999996,430.307,435.714,439.515,443.81" svgx:width="0.61,0.29,0.42,0.33,0.55,0.55,0.33,0.55,0.44,0.6,0.4,0.4,0.48,0.58,0.33,0.55,0.4,0.48,0.44,0.56,0.44,0.29,0.29,0.58,0.56,0.55,0.33,0.5,0.44,0.29,0.29,0.29,0.33,0.29,0.48,0.42,0.55,0.5,0.58,0.61,0.55,0.4,0.48,0.44,0.56,0.44,0.29,0.29,0.58,0.56,0.55,0.6,0.4,0.55,0.44,0.48,0.42,0.42,0.48,0.42,0.55,0.33,0.58,0.48,0.56,0.55,0.6,0.42,0.48,0.25" style="fill:rgb(0,0,0);font-family:URWPalladioL-Roma;font-size:8.97px;stroke:none;">List of current recycling facilities and recycling processes they use.</text>
  </g>
  <path style="fill:none;stroke:rgb(0,0,0);stroke-width:1.0;" d="M76.540 418.680 L518.740 418.680 "/>
  <g begin="text">
   <text y="429.538" x="108.52,114.994,119.979,127.95,133.429,137.912,143.39,148.4132,150.617,153.603,159.082,164.067,168.048,172.531,175.517,178.503,183.488,188.967,191.92710000000002,271.269,276.748,280.236,285.221,289.202,293.685,297.666,301.6128,303.889,309.063,314.048,319.526,324.011,403.577,410.051,414.534,418.515,423.501,428.486,432.969,436.457,440.94,446.4117,448.66,454.139,457.125,461.608,469.579,474.062,479.541,482.527" svgx:width="0.72,0.56,0.89,0.61,0.5,0.61,0.56,0.55,0.33,0.61,0.56,0.44,0.5,0.33,0.33,0.56,0.61,0.33,0.55,0.61,0.39,0.56,0.44,0.5,0.44,0.44,0.55,0.67,0.56,0.61,0.5,0.55,0.72,0.5,0.44,0.56,0.56,0.5,0.39,0.5,0.61,0.55,0.61,0.33,0.5,0.89,0.5,0.61,0.33,0.44" style="fill:rgb(0,0,0);font-family:URWPalladioL-Bold;font-size:8.97px;stroke:none;">Company (Location) Process Type Recovered Elements</text>
  </g>
  <path style="fill:none;stroke:rgb(0,0,0);stroke-width:0.8;" d="M76.540 434.930 L518.740 434.930 "/>
  <g begin="text">
   <text y="445.537" x="116.518,122.508,126.802,129.726,133.267,135.876,140.171,145.1942,147.479,150.465,156.822,161.305,166.524,171.007,176.485,180.968,183.9281,252.476,258.833,262.374,267.36,272.255,275.241,280.46,285.445,290.923,294.304,299.199,307.117,311.412,314.335,318.818,321.427,324.036,329.443,332.823,337.809,342.8322,440.994,446.473" svgx:width="0.67,0.48,0.33,0.4,0.29,0.48,0.56,0.55,0.33,0.71,0.5,0.58,0.5,0.61,0.5,0.33,0.55,0.71,0.4,0.56,0.55,0.33,0.58,0.56,0.61,0.4,0.55,0.88,0.48,0.33,0.5,0.29,0.29,0.6,0.4,0.56,0.56,0.55,0.61,0.29" style="fill:rgb(0,0,0);font-family:URWPalladioL-Roma;font-size:8.97px;stroke:none;">Retriev (Canada) Cryo-hydrometallurgy Li</text>
   <text y="456.734" x="112.452,119.428,127.345,129.954,133.935,138.831,142.211,146.5166,148.748,151.734,157.212,161.507,164.116,169.102,171.711,177.118,185.035,187.9951,253.027,258.443,263.428,266.809,271.704,274.69,279.908,284.894,290.372,293.753,298.648,306.566,310.86,313.784,318.267,320.876,323.485,328.892,332.272,337.258,342.28119999999996,414.342,420.699,425.595,427.83750000000003,430.078,437.529,440.138,442.3805,444.621,449.104,454.323,459.7947,462.043,470.525" svgx:width="0.78,0.88,0.29,0.44,0.55,0.4,0.48,0.55,0.33,0.61,0.48,0.29,0.56,0.29,0.6,0.88,0.33,0.55,0.6,0.56,0.4,0.55,0.33,0.58,0.56,0.61,0.4,0.55,0.88,0.48,0.33,0.5,0.29,0.29,0.6,0.4,0.56,0.56,0.55,0.71,0.55,0.25,0.55,0.83,0.29,0.25,0.55,0.5,0.58,0.61,0.55,0.95,0.58" style="fill:rgb(0,0,0);font-family:URWPalladioL-Roma;font-size:8.97px;stroke:none;">Umicore (Belgium) Pyro-hydrometallurgy Co, Ni, and Mn</text>
   <text y="467.931" x="114.214,118.921,124.328,132.245,134.855,142.772,147.668,150.591,155.52450000000002,157.728,160.714,163.7,168.183,173.572,178.055,183.273,186.2331,253.032,258.448,263.433,266.813,271.709,274.695,279.913,284.898,290.377,293.757,298.653,306.57,310.865,313.788,318.271,320.881,323.49,328.896,332.277,337.262,342.2852,423.178,429.535,434.942,437.1845,439.425,443.909,449.127,454.5987,456.847,464.298" svgx:width="0.52,0.6,0.88,0.29,0.88,0.55,0.33,0.55,0.55,0.33,0.33,0.5,0.6,0.5,0.58,0.33,0.55,0.6,0.56,0.4,0.55,0.33,0.58,0.56,0.61,0.4,0.55,0.88,0.48,0.33,0.5,0.29,0.29,0.6,0.4,0.56,0.56,0.55,0.71,0.6,0.25,0.55,0.5,0.58,0.61,0.55,0.83,0.29" style="fill:rgb(0,0,0);font-family:URWPalladioL-Roma;font-size:8.97px;stroke:none;">Sumimoto (Japan) Pyro-hydrometallurgy Cu, and Ni</text>
   <text y="479.128" x="116.55,122.54,126.834,130.816,136.222,141.611,146.596,149.1973,151.447,154.433,159.418,162.96,167.443,172.662,176.643,180.938,183.8981,262.738,270.198,275.184,280.662,284.042,288.938,296.855,301.15,304.073,308.556,311.166,313.775,319.182,322.562,327.547,332.5702,392.894,398.373,400.982,403.22450000000003,405.465,411.823,416.718,418.9605,421.201,428.652,431.262,433.5045,435.745,444.227,449.446,451.68850000000003,453.929,460.286,465.693,467.9355,470.176,474.659,479.878,485.3497,487.598,494.574" svgx:width="0.67,0.48,0.44,0.6,0.6,0.56,0.29,0.55,0.33,0.56,0.4,0.5,0.58,0.44,0.48,0.33,0.55,0.83,0.56,0.61,0.4,0.55,0.88,0.48,0.33,0.5,0.29,0.29,0.6,0.4,0.56,0.56,0.55,0.61,0.29,0.25,0.55,0.71,0.55,0.25,0.55,0.83,0.29,0.25,0.55,0.95,0.58,0.25,0.55,0.71,0.6,0.25,0.55,0.5,0.58,0.61,0.55,0.78,0.29" style="fill:rgb(0,0,0);font-family:URWPalladioL-Roma;font-size:8.97px;stroke:none;">Recupyl (France) Hydrometallurgy Li, Co, Ni, Mn, Cu, and Al</text>
   <text y="490.325" x="121.714,126.421,131.64,136.123,146.282,149.268,154.253,157.795,162.278,167.496,171.478,175.772,178.7321,266.503,271.919,276.904,280.285,285.18,293.098,297.393,300.316,304.799,307.408,310.017,315.424,318.804,323.79,328.8132,408.388,414.745,420.223,422.4655,424.707,432.158,434.767,437.0095,439.25,445.607,450.503,452.7455,454.986,459.469,464.688,470.1597,472.408,477.393" svgx:width="0.52,0.58,0.5,0.88,0.33,0.56,0.4,0.5,0.58,0.44,0.48,0.33,0.55,0.6,0.56,0.4,0.55,0.88,0.48,0.33,0.5,0.29,0.29,0.6,0.4,0.56,0.56,0.55,0.71,0.61,0.25,0.55,0.83,0.29,0.25,0.55,0.71,0.55,0.25,0.55,0.5,0.58,0.61,0.55,0.56,0.48" style="fill:rgb(0,0,0);font-family:URWPalladioL-Roma;font-size:8.97px;stroke:none;">Snam(France) Pyrometallurgy Cd, Ni, Co, and Fe</text>
   <text y="501.522" x="111.488,118.464,122.445,126.426,131.833,135.213,139.508,143.4548,145.731,148.716,155.558,159.853,163.395,171.312,175.795,181.013,185.999,188.9591,266.499,271.915,276.9,280.28,285.176,293.093,297.388,300.311,304.795,307.404,310.013,315.42,318.8,323.785,328.8082,401.39,408.365,410.975,413.21750000000003,415.458,421.815,427.222,429.4645,431.705,438.062,442.958,445.20050000000003,447.441,454.892,457.501,459.7435,461.985,466.468,471.686,477.1577,479.406,484.392" svgx:width="0.78,0.44,0.44,0.6,0.4,0.48,0.44,0.55,0.33,0.76,0.48,0.4,0.88,0.5,0.58,0.56,0.33,0.55,0.6,0.56,0.4,0.55,0.88,0.48,0.33,0.5,0.29,0.29,0.6,0.4,0.56,0.56,0.55,0.78,0.29,0.25,0.55,0.71,0.6,0.25,0.55,0.71,0.55,0.25,0.55,0.83,0.29,0.25,0.55,0.5,0.58,0.61,0.55,0.56,0.48" style="fill:rgb(0,0,0);font-family:URWPalladioL-Roma;font-size:8.97px;stroke:none;">Accurec (Germany) Pyrometallurgy Al, Cu, Co, Ni, and Fe</text>
   <text y="512.719" x="113.12,119.961,122.571,126.865,132.084,136.065,140.961,144.341,148.6466,150.878,153.863,160.22,164.704,169.922,174.405,179.884,184.367,187.3271,253.032,258.447,263.433,266.813,271.709,274.694,279.913,284.898,290.377,293.757,298.653,306.57,310.865,313.788,318.271,320.88,323.49,328.896,332.277,337.262,342.2852,423.429,430.88,433.489,435.7315,437.973,442.456,447.674,453.1457,455.394,461.752" svgx:width="0.76,0.29,0.48,0.58,0.44,0.55,0.4,0.48,0.55,0.33,0.71,0.5,0.58,0.5,0.61,0.5,0.33,0.55,0.6,0.56,0.4,0.55,0.33,0.58,0.56,0.61,0.4,0.55,0.88,0.48,0.33,0.5,0.29,0.29,0.6,0.4,0.56,0.56,0.55,0.83,0.29,0.25,0.55,0.5,0.58,0.61,0.55,0.71,0.55" style="fill:rgb(0,0,0);font-family:URWPalladioL-Roma;font-size:8.97px;stroke:none;">Glencore (Canada) Pyro-hydrometallurgy Ni, and Co</text>
   <text y="523.916" x="109.946,115.424,119.908,122.831,126.211,130.506,134.4528,136.729,139.714,144.422,151.9,154.509,157.432,161.915,166.21,169.752,172.361,176.844,182.063,187.541,190.5011,253.032,258.448,263.433,266.813,271.709,274.695,279.913,284.898,290.377,293.757,298.653,306.57,310.865,313.788,318.271,320.881,323.49,328.896,332.277,337.262,342.2852,398.036,404.017,409.235,411.4775,413.719,420.076,424.971,427.2135,429.455,436.906,439.515,441.7575,443.998,452.48,457.699,459.9415,462.182,466.665,471.884,477.3557,479.604,487.064" svgx:width="0.61,0.5,0.33,0.4,0.48,0.44,0.55,0.33,0.52,0.83,0.29,0.33,0.5,0.48,0.4,0.29,0.5,0.58,0.61,0.33,0.55,0.6,0.56,0.4,0.55,0.33,0.58,0.56,0.61,0.4,0.55,0.88,0.48,0.33,0.5,0.29,0.29,0.6,0.4,0.56,0.56,0.55,0.67,0.58,0.25,0.55,0.71,0.55,0.25,0.55,0.83,0.29,0.25,0.55,0.95,0.58,0.25,0.55,0.5,0.58,0.61,0.55,0.83,0.56" style="fill:rgb(0,0,0);font-family:URWPalladioL-Roma;font-size:8.97px;stroke:none;">Batrec (Switzerland) Pyro-hydrometallurgy Zn, Co, Ni, Mn, and Hg</text>
   <text y="535.113" x="106.243,113.219,118.204,123.189,128.596,133.304,137.599,141.18699999999998,143.382,150.429,155.4522,157.656,160.642,165.627,168.237,173.455,176.064,180.548,185.766,191.244,194.2041,274.955,283.437,287.732,291.713,296.931,301.415,306.633,309.242,313.223,317.707,320.3083,405.801,411.28,414.302,419.7737,422.022,426.505,430.486,433.409,436.018,441.084,445.38960000000003,447.621,455.538,460.021,462.944,467.239,470.781,473.39,477.873,480.483" svgx:width="0.78,0.56,0.56,0.6,0.52,0.48,0.4,0.55,0.79,0.56,0.55,0.33,0.56,0.29,0.58,0.29,0.5,0.58,0.61,0.33,0.55,0.95,0.48,0.44,0.58,0.5,0.58,0.29,0.44,0.5,0.29,0.55,0.61,0.34,0.61,0.55,0.5,0.44,0.33,0.29,0.56,0.48,0.55,0.88,0.5,0.33,0.48,0.4,0.29,0.5,0.29,0.42" style="fill:rgb(0,0,0);font-family:URWPalladioL-Roma;font-size:8.97px;stroke:none;">AkkuSer Oy (Finland) Mechanical LIB active materials</text>
   <text y="546.31" x="101.885,108.933,114.151,118.823,123.75649999999999,125.96,130.631,134.926,138.907,144.126,149.344,154.24,156.849,161.745,166.73,171.7532,173.957,176.943,183.919,188.626,195.602,198.56210000000002,265.127,272.067,274.677,278.057,282.352,286.333,289.29310000000004,291.497,297.487,301.782,305.763,310.748,314.729,317.339,319.948,325.166,330.18919999999997,405.801,411.28,414.301,419.7727,422.021,426.505,430.486,433.409,436.018,441.084,445.38960000000003,447.62,455.538,460.021,462.944,467.239,470.781,473.39,477.873,480.482" svgx:width="0.79,0.58,0.61,0.55,0.55,0.61,0.48,0.44,0.58,0.58,0.55,0.29,0.55,0.56,0.56,0.55,0.33,0.78,0.52,0.78,0.33,0.55,0.77,0.29,0.4,0.48,0.44,0.33,0.55,0.67,0.48,0.44,0.56,0.44,0.29,0.29,0.58,0.56,0.55,0.61,0.34,0.61,0.55,0.5,0.44,0.33,0.29,0.56,0.48,0.55,0.88,0.5,0.33,0.48,0.4,0.29,0.5,0.29,0.42" style="fill:rgb(0,0,0);font-family:URWPalladioL-Roma;font-size:8.97px;stroke:none;">OnTo Technology (USA) Direct Recycling LIB active materials</text>
   <text y="557.507" x="122.952,129.892,134.788,142.266,146.751,148.99,151.976,154.962,159.445,164.834,169.317,174.536,177.4961,266.504,271.92,276.905,280.285,285.181,293.098,297.393,300.316,304.799,307.409,310.018,315.425,318.805,323.79,328.8132,414.342,420.699,425.595,427.83750000000003,430.078,437.529,440.138,442.3805,444.622,449.105,454.323,459.7947,462.043,470.525" svgx:width="0.77,0.55,0.83,0.5,0.55,0.33,0.33,0.5,0.6,0.5,0.58,0.33,0.55,0.6,0.56,0.4,0.55,0.88,0.48,0.33,0.5,0.29,0.29,0.6,0.4,0.56,0.56,0.55,0.71,0.55,0.25,0.55,0.83,0.29,0.25,0.55,0.5,0.58,0.61,0.55,0.95,0.58" style="fill:rgb(0,0,0);font-family:URWPalladioL-Roma;font-size:8.97px;stroke:none;">Dowa (Japan) Pyrometallurgy Co, Ni, and Mn</text>
   <text y="568.704" x="82.513,89.815,92.372,96.274,101.159,105.368,107.925,113.039,118.338,121.202,124.067,128.3726,130.446,137.283,142.581,146.8866,148.961,155.665,163.424,168.284,173.48659999999998,175.568,178.494,185.199,189.408,192.879,200.638,205.031,210.145,215.031,217.99110000000002,266.502,271.918,276.903,280.283,285.179,293.096,297.391,300.314,304.797,307.407,310.016,315.423,318.803,323.788,328.8112,414.34,420.697,425.593,427.8355,430.076,437.527,440.136,442.37850000000003,444.62,449.103,454.321,459.7927,462.041,470.523" svgx:width="0.83,0.29,0.44,0.56,0.48,0.29,0.58,0.6,0.33,0.33,0.48,0.55,0.78,0.6,0.48,0.55,0.76,0.88,0.55,0.58,0.55,0.33,0.76,0.48,0.4,0.88,0.5,0.58,0.56,0.33,0.55,0.6,0.56,0.4,0.55,0.88,0.48,0.33,0.5,0.29,0.29,0.6,0.4,0.56,0.56,0.55,0.71,0.55,0.25,0.55,0.83,0.29,0.25,0.55,0.5,0.58,0.61,0.55,0.95,0.58" style="fill:rgb(0,0,0);font-family:URWPalladioL-Roma;font-size:8.97px;stroke:none;">Nickelhütte Aue Gmbh (Germany) Pyrometallurgy Co, Ni, and Mn</text>
   <text y="579.901" x="121.705,127.183,130.653,136.06,141.279,146.661,148.909,151.895,158.252,163.471,166.08,171.298,175.781,178.74110000000002,243.2,248.615,253.601,256.981,261.877,264.8371,267.104,271.587,276.806,282.2777,284.526,289.744,294.73,300.208,303.588,308.484,316.401,320.696,323.619,328.103,330.712,333.321,338.728,342.108,347.093,352.1162,392.894,398.372,400.981,403.2235,405.465,411.822,416.717,418.9595,421.201,428.652,431.261,433.50350000000003,435.744,444.226,449.445,451.6875,453.928,460.285,465.692,467.9345,470.175,474.658,479.877,485.3487,487.597,494.573" svgx:width="0.61,0.4,0.6,0.58,0.6,0.55,0.33,0.71,0.58,0.29,0.58,0.5,0.33,0.55,0.6,0.56,0.4,0.55,0.33,0.55,0.5,0.58,0.61,0.55,0.58,0.56,0.61,0.4,0.55,0.88,0.48,0.33,0.5,0.29,0.29,0.6,0.4,0.56,0.56,0.55,0.61,0.29,0.25,0.55,0.71,0.55,0.25,0.55,0.83,0.29,0.25,0.55,0.95,0.58,0.25,0.55,0.71,0.6,0.25,0.55,0.5,0.58,0.61,0.55,0.78,0.29" style="fill:rgb(0,0,0);font-family:URWPalladioL-Roma;font-size:8.97px;stroke:none;">Brunp (China) Pyro- and hydrometallurgy Li, Co, Ni, Mn, Cu, and Al</text>
  </g>
  <path style="fill:none;stroke:rgb(0,0,0);stroke-width:0.3;" d="M76.540 585.540 L518.740 585.540 "/>
  <g begin="text">
   <text y="611.404" x="97.795,103.903,109.525,113.337,118.858,127.787,132.631,135.928,140.984,143.926,146.869,152.966,156.779,162.401,167.9786,170.521,173.463,177.6462,180.249,183.545,189.43,194.2108,196.762,205.69,211.212,215.499,218.7858,221.293,225.783,231.304,240.233,249.162,254.683,260.4598,263.056,271.985,276.829,280.125,286.01,291.532,297.6076,300.208,304.697,310.795,314.789,318.602,323.445,329.33,332.627,335.57,341.1476,343.679,349.777,354.064,358.908,364.9836,367.584,370.527,376.30379999999997,378.9,382.196,388.081,392.8618,395.423,399.235,404.079,408.568,414.191,418.68,421.623,424.566,430.451,436.02860000000004,438.571,441.513,447.398,453.577,459.674,463.962,467.259,471.253,476.8306,479.363,484.955,490.5326,493.075,502.003,507.06,509.426,514.947" svgx:width="0.6,0.56,0.4,0.55,0.88,0.48,0.33,0.5,0.29,0.29,0.6,0.4,0.56,0.56,0.55,0.29,0.42,0.55,0.33,0.58,0.48,0.55,0.88,0.55,0.42,0.33,0.55,0.44,0.55,0.88,0.88,0.55,0.58,0.55,0.88,0.48,0.33,0.58,0.55,0.61,0.55,0.44,0.6,0.4,0.4,0.48,0.58,0.33,0.29,0.56,0.55,0.6,0.42,0.48,0.61,0.55,0.29,0.58,0.55,0.33,0.58,0.48,0.55,0.4,0.48,0.44,0.56,0.44,0.29,0.29,0.58,0.56,0.55,0.29,0.58,0.61,0.6,0.42,0.33,0.4,0.56,0.55,0.55,0.56,0.55,0.88,0.5,0.23,0.55,0.4" style="fill:rgb(0,0,0);font-family:URWPalladioL-Roma;font-size:9.96px;stroke:none;">Pyrometallurgy is the most common method currently used in the recycling industry by major</text>
   <text y="624.913" x="76.535,81.047,86.595,95.568,101.675,106.756,112.671,115.628,120.495,124.804,127.294,130.525,134.834,140.961,145.473,151.24980000000002,154.426,159.507,163.6902,166.864,174.77,183.743,186.7,191.211,196.76,200.591,205.3718,208.507,211.891,218.1,222.967,225.924,231.574,234.531,240.659,249.632,253.016,255.506,258.737,266.602,272.151,280.626,285.606,288.745,293.826,299.74,305.8156,308.997,314.332,320.46,329.433,332.39,335.703,341.251,350.224,355.702,358.811,362.195,365.579,370.66,376.767,381.848,387.762,391.146,393.636,396.867,404.773,409.285,413.797,419.924,423.755,428.623,433.0054,436.183,439.567,447.321,452.188,456.202,465.175,470.256,476.17,481.82,485.204,487.694,490.925,497.134,502.215,505.528,509.359,514.226" svgx:width="0.44,0.55,0.88,0.6,0.5,0.58,0.29,0.48,0.42,0.25,0.55,0.42,0.6,0.44,0.58,0.55,0.5,0.42,0.55,0.78,0.88,0.29,0.44,0.55,0.4,0.48,0.55,0.33,0.61,0.48,0.29,0.56,0.29,0.6,0.88,0.33,0.25,0.55,0.77,0.55,0.83,0.5,0.55,0.5,0.58,0.61,0.55,0.52,0.6,0.88,0.29,0.33,0.55,0.88,0.55,0.55,0.33,0.33,0.5,0.6,0.5,0.58,0.33,0.25,0.55,0.78,0.44,0.44,0.6,0.4,0.48,0.44,0.55,0.33,0.76,0.48,0.4,0.88,0.5,0.58,0.56,0.33,0.25,0.55,0.61,0.5,0.33,0.4,0.48,0.44" style="fill:rgb(0,0,0);font-family:URWPalladioL-Roma;font-size:9.96px;stroke:none;">companies, such as Umicore (Belgium), Dowa and Sumitomo (Japan), Accurec (Germany), Batrec</text>
   <text y="638.423" x="76.207,79.591,84.926,93.401,96.358,99.671,104.752,109.619,113.633,116.59,121.671,127.585,133.794,137.178,139.668,143.56,148.641,154.555,160.63060000000002,164.341,172.785,175.742,180.254,185.904,190.772,193.729,199.643,205.771,209.083,212.396,217.1768,220.841,228.747,234.874,239.6548,243.319,251.072,260.045,265.665,271.4418,275.146,278.529,286.283,291.15,295.164,304.137,309.218,315.132,320.782,324.166,326.656,333.454,339.683,345.598,350.3788,354.032,360.139,365.789,369.63,375.179,384.152,389.019,392.332,397.413,400.37,403.327,409.455,413.286,418.936,421.893,426.405,431.486,434.3744,438.02,444.127,447.958,453.506,458.018,462.886,467.194,471.3772,475.08,478.037,482.2202,485.923,492.05,496.359,502.486,507.567,510.524,513.482" svgx:width="0.33,0.52,0.83,0.29,0.33,0.5,0.48,0.4,0.29,0.5,0.58,0.61,0.33,0.25,0.55,0.5,0.58,0.61,0.55,0.83,0.29,0.44,0.56,0.48,0.29,0.58,0.6,0.33,0.33,0.48,0.55,0.78,0.6,0.48,0.55,0.76,0.88,0.55,0.58,0.55,0.33,0.76,0.48,0.4,0.88,0.5,0.58,0.56,0.33,0.25,0.55,0.61,0.58,0.48,0.55,0.6,0.56,0.4,0.55,0.88,0.48,0.33,0.5,0.29,0.29,0.6,0.4,0.56,0.29,0.44,0.5,0.29,0.55,0.6,0.4,0.55,0.44,0.48,0.42,0.42,0.55,0.29,0.42,0.55,0.6,0.42,0.6,0.5,0.29,0.29,0.56" style="fill:rgb(0,0,0);font-family:URWPalladioL-Roma;font-size:9.96px;stroke:none;">(Switzerland), and Nickelhütte Aue Gmbh (Germany). The pyrometallurgical process is usually</text>
   <text y="651.932" x="76.535,79.846,85.275,88.168,91.061,96.49,104.782,109.545,115.6206,118.115,123.614,129.1916,131.627,137.414,142.942,149.017,152.766,158.194,166.974,171.736,174.977,179.949,182.842,185.735,191.731,195.479,201.007,203.901,208.315,213.287,216.1754,218.676,222.891,226.133,230.895,236.871,241.0542,243.582,246.823,252.30100000000002,254.748,259.51,264.641,267.872,271.799,276.771,281.185,284.47180000000003,286.922,292.54,297.511,300.404,306.4,311.371,316.869,319.763,324.5438,327.021,335.8,340.563,343.804,348.775,351.669,355.8522,358.38,361.691,365.439,370.868,382.133,385.374,391.161,395.9418,398.419,407.199,412.17,415.411,418.653,423.415,425.90500000000003,428.396,433.368,437.5512,440.079,446.055,451.583,455.331,460.76,469.539,474.302,477.543,482.514,485.408,488.301,494.286,498.035,503.563,506.456,510.871,515.842" svgx:width="0.33,0.55,0.29,0.29,0.55,0.83,0.48,0.61,0.55,0.55,0.56,0.55,0.58,0.56,0.61,0.4,0.55,0.88,0.48,0.33,0.5,0.29,0.29,0.6,0.4,0.56,0.29,0.44,0.5,0.29,0.55,0.42,0.33,0.48,0.6,0.42,0.55,0.33,0.55,0.55,0.48,0.52,0.33,0.4,0.5,0.44,0.33,0.55,0.56,0.5,0.29,0.6,0.5,0.55,0.29,0.48,0.55,0.88,0.48,0.33,0.5,0.29,0.42,0.55,0.33,0.4,0.55,0.88,0.33,0.58,0.48,0.55,0.88,0.5,0.33,0.33,0.48,0.25,0.55,0.5,0.42,0.55,0.6,0.56,0.4,0.55,0.88,0.48,0.33,0.5,0.29,0.29,0.6,0.4,0.56,0.29,0.44,0.5,0.29" style="fill:rgb(0,0,0);font-family:URWPalladioL-Roma;font-size:9.96px;stroke:none;">followed by hydrometallurgical steps to extract valuable metals fromthe matte, as pyrometallurgical</text>
   <text y="665.442" x="76.236,82.104,85.785,91.115,95.45,100.127,104.267,108.406,113.083,117.2662,119.361,123.696,128.577,134.26,139.942,145.273,148.5598,150.594,155.475,159.81,165.493,168.334,173.01,178.527,183.3078,185.341,188.524,194.206,198.9868,201.031" svgx:width="0.6,0.4,0.55,0.44,0.48,0.42,0.42,0.48,0.42,0.55,0.44,0.5,0.58,0.58,0.55,0.33,0.55,0.5,0.44,0.58,0.29,0.48,0.56,0.48,0.55,0.33,0.58,0.48,0.55,0.48" style="fill:rgb(0,0,0);font-family:URWPalladioL-Roma;font-size:9.96px;stroke:none;">processes cannot achieve the e</text>
   <text y="665.442" x="205.705" svgx:width="0.92" style="fill:rgb(0,0,0);font-family:Rpxr;font-size:9.96px;stroke:none;">ﬃ</text>
   <text y="665.442" x="214.677,219.012,221.853,226.53,232.212,235.4988,237.533,241.673,246.349,252.217,257.099,260.955,265.837,269.02,271.861,277.192,282.9688,285.022,290.353,293.63980000000004,295.742,301.258,306.14,309.997,312.838,318.169,324.056,328.2392,330.334,338.955,343.631,346.814,351.696,354.537,358.677,361.16700000000003,364.486,367.776,373.5528,375.606,379.941,385.272,390.954,394.137,397.994,402.875,407.015,410.188,412.678,414.845,418.526,423.203,427.538,432.966,437.301,440.142,442.983,448.665,454.24260000000004,456.232,462.1,464.941,469.823,475.505,478.688,482.8712,484.966,488.149,493.831,498.712,501.9988,504.034,509.921,514.06" svgx:width="0.44,0.29,0.48,0.58,0.33,0.55,0.42,0.48,0.6,0.5,0.4,0.5,0.33,0.29,0.55,0.58,0.55,0.55,0.33,0.55,0.56,0.5,0.4,0.29,0.55,0.6,0.42,0.55,0.88,0.48,0.33,0.5,0.29,0.42,0.25,0.55,0.34,0.58,0.55,0.44,0.55,0.58,0.33,0.4,0.5,0.42,0.33,0.25,0.55,0.4,0.48,0.44,0.56,0.44,0.29,0.29,0.58,0.56,0.55,0.6,0.29,0.5,0.58,0.33,0.42,0.55,0.33,0.58,0.5,0.33,0.55,0.6,0.42,0.48" style="fill:rgb(0,0,0);font-family:URWPalladioL-Roma;font-size:9.96px;stroke:none;">cient separation of various metals. In contrast, recycling plants that use</text>
   <text y="678.951" x="76.535,81.975,87.773,90.672,96.2496,98.702,104.5,110.039,116.126,119.882,125.322,134.119,138.891,142.139,147.12,150.019,152.918,158.926,162.682,168.221,171.12,175.543,180.525,183.4134,185.914,191.902,195.658,201.097,205.521,210.293,214.517,218.741,223.513,227.6962,230.218,235.199,238.955,243.7358,246.218,250.442,253.69,256.589,259.488,262.3764,264.878,268.813,273.794,277.55,282.322,284.812,287.304,292.285,298.083,304.15860000000004,306.661,309.909,315.707,320.4878,322.97,331.767,337.206,341.431,344.7178,347.159,350.058,358.855,364.843,370.282,374.217,377.465,382.447,388.245,391.53180000000003,393.983,398.965,402.72,407.5008,409.983,416.638,421.41,424.658,428.593,431.492,436.265,441.8426,444.384,447.702,454.765,459.746,465.545,470.526,476.613,481.593,484.085,489.066,494.865,500.9406,503.442,511.193,516.424" svgx:width="0.55,0.58,0.29,0.56,0.55,0.58,0.56,0.61,0.4,0.55,0.88,0.48,0.33,0.5,0.29,0.29,0.6,0.4,0.56,0.29,0.44,0.5,0.29,0.55,0.6,0.4,0.55,0.44,0.48,0.42,0.42,0.48,0.42,0.55,0.5,0.4,0.48,0.55,0.42,0.33,0.29,0.29,0.29,0.55,0.4,0.5,0.4,0.48,0.25,0.55,0.5,0.58,0.61,0.55,0.33,0.58,0.48,0.55,0.88,0.55,0.42,0.33,0.55,0.29,0.88,0.6,0.55,0.4,0.33,0.5,0.58,0.33,0.55,0.5,0.4,0.48,0.55,0.67,0.48,0.33,0.4,0.29,0.48,0.56,0.55,0.33,0.71,0.5,0.58,0.5,0.61,0.5,0.55,0.5,0.58,0.61,0.55,0.78,0.52,0.33" style="fill:rgb(0,0,0);font-family:URWPalladioL-Roma;font-size:9.96px;stroke:none;">only hydrometallurgical processes are still rare, and the most important are Retriev (Canada and US)</text>
   <text y="692.46" x="76.535,81.417,87.099,93.1746,95.427,101.949,106.626,110.961,116.848,122.716,128.144,131.0324,133.348,136.599,142.028,145.884,150.766,156.448,160.783,165.46,168.711,171.20100000000002,174.598,184.557,188.237,192.914,198.43,201.272,205.948,216.454,221.784,225.0708,227.398,230.581,236.263,241.0438,243.303,249.268,253.945,259.461,264.138,266.979,272.31,278.177,286.798,291.475,297.157,300.4438,302.703,306.843,310.026,314.907,318.09,323.977,328.1602,330.48,335.811,339.0978,341.424,347.107,352.535,358.501,362.172,367.502,376.123,380.8,383.983,388.865,391.706,394.547,400.434,404.115,409.543,412.384,416.719,421.601,424.4894,426.805,430.486,435.162,439.497,444.926,449.261,452.102,454.943,460.625,466.2026,468.416,474.284,477.955,483.286,487.621,492.297,496.437,500.577,505.253,509.4362,511.756,514.597" svgx:width="0.5,0.58,0.61,0.55,0.67,0.48,0.44,0.6,0.6,0.56,0.29,0.55,0.33,0.56,0.4,0.5,0.58,0.44,0.48,0.33,0.25,0.55,0.78,0.4,0.48,0.56,0.29,0.48,0.83,0.55,0.33,0.55,0.33,0.58,0.48,0.55,0.61,0.48,0.56,0.48,0.29,0.55,0.6,0.88,0.48,0.58,0.33,0.55,0.42,0.33,0.5,0.33,0.6,0.42,0.55,0.55,0.33,0.55,0.58,0.56,0.61,0.4,0.55,0.88,0.48,0.33,0.5,0.29,0.29,0.6,0.4,0.56,0.29,0.44,0.5,0.29,0.55,0.4,0.48,0.44,0.56,0.44,0.29,0.29,0.58,0.56,0.55,0.6,0.4,0.55,0.44,0.48,0.42,0.42,0.48,0.42,0.55,0.29,0.42" style="fill:rgb(0,0,0);font-family:URWPalladioL-Roma;font-size:9.96px;stroke:none;">and Recupyl (France). Areviewof the development status of hydrometallurgical recycling processes is</text>
   <text y="705.97" x="76.236,82.224,85.979,91.419,97.048,99.947,106.034,110.806,116.88159999999999,119.384,122.283,128.0598,130.572,133.82,139.618,144.3988,146.881,151.105,157.112,162.622,166.846,171.618,177.197,183.204,187.976,193.775,197.0618,199.513,203.737,208.509,212.933,216.181,219.08,224.519,230.318,234.542" svgx:width="0.6,0.4,0.55,0.56,0.29,0.61,0.48,0.61,0.55,0.29,0.58,0.55,0.33,0.58,0.48,0.55,0.42,0.6,0.55,0.42,0.48,0.56,0.6,0.48,0.58,0.33,0.55,0.42,0.48,0.44,0.33,0.29,0.55,0.58,0.42,0.25" style="fill:rgb(0,0,0);font-family:URWPalladioL-Roma;font-size:9.96px;stroke:none;">provided in the subsequent sections.</text>
   <text y="719.479" x="97.795,104.004,109.085,113.393,118.261,124.33659999999999,126.97,132.518,138.2948,140.932,146.582,149.539,155.088,160.707,165.788,168.6764,171.245,177.454,180.878,186.9536,189.587,193.418,198.286,202.797,208.447,212.959,215.916,218.873,224.788,230.3656,232.937,237.449,242.53,248.638,253.718,258.23,261.187,264.5,270.0776,272.65,275.607,281.3838,284.021,289.102,294.183,299.264,304.244,306.845,310.229,315.309,320.39,322.931,328.012,333.093,338.07300000000004,340.673,343.986,349.535,355.449,359.757,363.04380000000003,365.641,369.472,374.34,380.447,385.995,390.009,393.322,398.19,404.2656,406.898,412.518,418.0956,420.668,430.281,435.362,441.012,446.662,451.743,455.9262,458.551,463.419,466.7058,469.231,474.312,477.269,479.759,482.309" svgx:width="0.61,0.5,0.42,0.48,0.61,0.55,0.55,0.58,0.55,0.56,0.29,0.55,0.55,0.5,0.29,0.55,0.61,0.34,0.61,0.55,0.4,0.48,0.44,0.56,0.44,0.29,0.29,0.58,0.56,0.55,0.44,0.5,0.6,0.5,0.44,0.29,0.33,0.56,0.55,0.29,0.58,0.55,0.5,0.5,0.5,0.5,0.55,0.33,0.5,0.5,0.25,0.5,0.5,0.5,0.55,0.33,0.55,0.58,0.42,0.33,0.55,0.4,0.48,0.6,0.55,0.4,0.33,0.48,0.61,0.55,0.55,0.56,0.55,0.95,0.5,0.56,0.56,0.5,0.42,0.55,0.48,0.33,0.55,0.5,0.29,0.25,0.55,0.33" style="fill:rgb(0,0,0);font-family:URWPalladioL-Roma;font-size:9.96px;stroke:none;">Based on global LIB recycling capacity in 2016 (94,000 tons) reported by Mayyas et al. [</text>
   <text y="719.479" x="485.69,490.671" svgx:width="0.5,0.5" style="fill:rgb(8,117,183);font-family:URWPalladioL-Roma;font-size:9.96px;stroke:none;">53</text>
   <text y="719.479" x="495.653,498.93980000000005,501.537,506.618,512.532" svgx:width="0.33,0.55,0.5,0.58,0.61" style="fill:rgb(0,0,0);font-family:URWPalladioL-Roma;font-size:9.96px;stroke:none;">] and</text>
   <text y="732.989" x="76.535,82.185,85.142,90.69,96.31,101.391,104.27940000000001,107.386,113.595,117.02,123.09559999999999,126.267,130.576,135.657,138.614,143.481,147.6642,150.828,154.212,159.761,163.745,166.813,171.894,176.975,182.056,187.036,190.175,193.559,198.64,203.721,208.802,211.342,216.423,221.504,226.48399999999998,229.623,232.936,238.484,244.399,248.707,251.9938,255.13,258.513,265.718,270.799,273.756,278.268,284.396,287.353,292.434,295.747,300.614,306.6896,309.861,315.481,320.562,324.87,329.738,335.8136,338.985,344.534,350.3108,353.486,358.354,364.268,369.135,372.966,378.616,384.1936,387.305,391.613,396.694,399.651,404.519,408.7022,411.866,416.175,419.487,424.568,427.881,430.838,435.147,438.46,441.417,445.928,450.1112,453.276,456.659,460.501,466.049,474.81379999999996,478.06,484.198,487.155,490.112,495.661,498.94780000000003,502.012" svgx:width="0.56,0.29,0.55,0.55,0.5,0.29,0.55,0.61,0.34,0.61,0.55,0.42,0.5,0.29,0.48,0.42,0.55,0.33,0.55,0.4,0.55,0.5,0.5,0.5,0.5,0.55,0.33,0.5,0.5,0.5,0.25,0.5,0.5,0.5,0.55,0.33,0.55,0.58,0.42,0.33,0.55,0.33,0.71,0.5,0.29,0.44,0.6,0.29,0.5,0.33,0.48,0.61,0.55,0.55,0.5,0.42,0.48,0.61,0.55,0.55,0.58,0.55,0.48,0.58,0.48,0.4,0.56,0.56,0.55,0.42,0.5,0.29,0.48,0.42,0.55,0.42,0.33,0.5,0.33,0.29,0.42,0.33,0.29,0.44,0.42,0.55,0.33,0.4,0.55,0.88,0.55,0.6,0.29,0.29,0.55,0.33,0.55,0.33" style="fill:rgb(0,0,0);font-family:URWPalladioL-Roma;font-size:9.96px;stroke:none;">global LIB sales for 2016 (500,000 tons) (Calculated based on energy sales statistics from Pilot [</text>
   <text y="732.989" x="505.394,510.375" svgx:width="0.5,0.5" style="fill:rgb(8,117,183);font-family:URWPalladioL-Roma;font-size:9.96px;stroke:none;">54</text>
   <text y="732.989" x="515.356" svgx:width="0.33" style="fill:rgb(0,0,0);font-family:URWPalladioL-Roma;font-size:9.96px;stroke:none;">]</text>
   <text y="746.498" x="76.535,81.516,87.315,93.39059999999999,95.872,100.296,105.735,111.534,115.758,118.657,124.744,129.516,133.451,136.35,142.149,147.7266,150.169,155.15,160.92680000000001,163.419,168.4,174.029,178.801,182.736,187.718,193.257,198.0378,200.51,205.282,211.08,215.852,219.608,225.147,230.72459999999998,233.157,239.244,244.016,249.814,254.039,256.938,260.185,265.7626,268.195,273.635,276.9218,279.433,284.415,289.396,294.37600000000003,296.848,306.81" svgx:width="0.5,0.58,0.61,0.55,0.44,0.55,0.58,0.42,0.29,0.61,0.48,0.4,0.29,0.58,0.56,0.55,0.5,0.58,0.55,0.5,0.56,0.48,0.4,0.5,0.56,0.48,0.55,0.48,0.58,0.48,0.4,0.56,0.56,0.55,0.61,0.48,0.58,0.42,0.29,0.33,0.56,0.55,0.55,0.33,0.55,0.5,0.5,0.5,0.55,1.0,0.58" style="fill:rgb(0,0,0);font-family:URWPalladioL-Roma;font-size:9.96px;stroke:none;">and considering an average energy density of 180 Wh</text>
   <text y="746.498" x="312.612" svgx:width="0.29" style="fill:rgb(0,0,0);font-family:Rpxr;font-size:9.96px;stroke:none;">/</text>
   <text y="746.498" x="315.471,321.01,326.549,329.867,332.357,334.838,338.086,343.884,348.6648,351.127,354.375,360.173,364.945,370.385,374.141,378.913,382.161,385.06,389.483,394.465,397.35339999999997,399.844,402.733,408.532,412.756,416.004,420.985,423.884,426.783,431.555,437.6306,440.123,443.879,448.651,453.074,458.614,463.037,465.936,468.835,474.634,480.21160000000003,482.643,487.067,492.048,498.036,503.017,507.44,510.34,513.587" svgx:width="0.56,0.56,0.33,0.25,0.55,0.33,0.58,0.48,0.55,0.33,0.58,0.48,0.55,0.4,0.48,0.33,0.29,0.44,0.5,0.29,0.55,0.29,0.58,0.42,0.33,0.5,0.29,0.29,0.48,0.61,0.55,0.4,0.48,0.44,0.56,0.44,0.29,0.29,0.58,0.56,0.55,0.44,0.5,0.6,0.5,0.44,0.29,0.33,0.56" style="fill:rgb(0,0,0);font-family:URWPalladioL-Roma;font-size:9.96px;stroke:none;">kg), the theoretical installed recycling capacity</text>
   <text y="760.007" x="76.535,81.969,87.762,90.658,96.2356,98.68,103.099,108.533,114.156,118.923,122.675,127.443,133.5186,136.012,140.988,145.965,156.813,162.247,165.5338,168.059,171.304,177.096,181.8768,184.352,189.328,194.305,199.281,204.261,206.745,215.534,220.51,226.302,232.304,235.618,240.594,245.013,248.258,254.259,258.191,261.087,266.879,272.45660000000004,274.901,280.335,286.128,290.895,293.385,295.871,300.848,305.067,309.287,315.289,324.077,326.973,332.766,338.34360000000004,340.787,344.032,349.824,354.801,358.0878,360.543,365.52,368.416,371.3044,373.8,377.552,382.32,386.739,392.272,396.691,399.588,402.484,408.276,413.85360000000003,416.298,422.28,425.176,430.152,435.945,439.189,443.3722,445.897,454.198,458.965,462.717,467.4978,469.973,474.74,479.876,484.294,487.191,493.192,497.412,500.308,505.931,510.699,513.595" svgx:width="0.55,0.58,0.29,0.56,0.55,0.44,0.55,0.56,0.48,0.4,0.48,0.61,0.55,0.5,0.5,0.84,0.55,0.33,0.55,0.33,0.58,0.48,0.55,0.5,0.5,0.5,0.5,0.55,0.88,0.5,0.58,0.6,0.33,0.5,0.44,0.33,0.6,0.4,0.29,0.58,0.56,0.55,0.55,0.58,0.48,0.25,0.55,0.5,0.42,0.42,0.6,0.88,0.29,0.58,0.56,0.55,0.33,0.58,0.5,0.33,0.55,0.5,0.29,0.29,0.55,0.4,0.48,0.44,0.56,0.44,0.29,0.29,0.58,0.56,0.55,0.6,0.29,0.5,0.58,0.33,0.42,0.55,0.83,0.48,0.4,0.48,0.55,0.48,0.52,0.44,0.29,0.6,0.42,0.29,0.56,0.48,0.29,0.56" style="fill:rgb(0,0,0);font-family:URWPalladioL-Roma;font-size:9.96px;stroke:none;">only covered 19%of the 2016 manufacturing one, assuming that all recycling plants were exclusively</text>
  </g>
 </g>
</svg>
