<?xml version="1.0" encoding="UTF-8"?>
<svg height="779.252" width="530.3585" xmlns="http://www.w3.org/2000/svg">
 <g id="page" xmlns:svgx="http://www.xml-cml.org/schema/svgx">
  <g begin="text">
   <text y="62.979" x="76.535,84.059,87.598,90.252,93.352,96.452,98.668,102.207,104.422" svgx:width="0.94,0.44,0.33,0.39,0.39,0.28,0.44,0.28,0.39" style="fill:rgb(0,0,0);font-family:URWPalladioL-Ital;font-size:7.97px;stroke:none;">Materials</text>
   <text y="62.979" x="109.515,113.5,117.485,121.47" svgx:width="0.5,0.5,0.5,0.5" style="fill:rgb(0,0,0);font-family:URWPalladioL-Bold;font-size:7.97px;stroke:none;">2020</text>
   <text y="62.979" x="125.455" svgx:width="0.25" style="fill:rgb(0,0,0);font-family:URWPalladioL-Roma;font-size:7.97px;stroke:none;">,</text>
   <text y="62.979" x="129.44,133.425" svgx:width="0.5,0.5" style="fill:rgb(0,0,0);font-family:URWPalladioL-Ital;font-size:7.97px;stroke:none;">13</text>
   <text y="62.979" x="137.41,139.4025,141.395,145.38,149.365,153.35000000000002,491.809,495.794,499.779,501.772,506.123,508.7531,510.77,514.755" svgx:width="0.25,0.55,0.5,0.5,0.5,0.55,0.5,0.5,0.55,0.55,0.33,0.55,0.5,0.5" style="fill:rgb(0,0,0);font-family:URWPalladioL-Roma;font-size:7.97px;stroke:none;">, 801 37 of 45</text>
   <text y="97.848" x="76.535,81.018,85.501,87.74350000000001,98.05,103.507,106.105,110.571,115.768,120.734,122.9765,125.217,130.173,132.406,134.6485,136.889,141.577,146.963,149.2055,151.446,154.42,156.652,158.8945,161.135,167.092,169.691,171.9335,174.165,179.622,181.854,184.09650000000002,186.337,191.49,196.875,199.1175,201.358,206.315,208.548,210.7905,213.031,216.005,218.603,220.84550000000002,223.086,229.999,232.231,234.4735,236.714,241.403,246.788,251.986,254.2285,256.46,261.425,263.658,265.9005,268.141,274.473,279.858,282.457,284.6995,286.931,293.263,295.495,297.7375,299.978,305.935,311.133,316.518,318.7605,321.001,323.975,326.21750000000003,328.458,333.914,336.513,339.487,343.79260000000005,346.006,349.971,354.937,358.902,361.501,365.8066,368.029,372.494,376.281,380.067,384.345,388.132,391.918,399.804,404.082,409.279,412.2391,414.432,419.308,422.2681,424.533,427.131,429.73,432.641,437.839,440.438,445.823,453.709,456.682,459.281,464.157,469.3596,471.605,476.544,481.009,483.921,486.832,491.11,494.637,497.236,501.514,505.2814,507.542,510.516,515.392" svgx:width="0.5,0.5,0.25,0.55,0.61,0.29,0.5,0.58,0.56,0.25,0.55,0.67,0.25,0.25,0.55,0.52,0.6,0.25,0.55,0.33,0.25,0.25,0.55,0.67,0.29,0.25,0.55,0.61,0.25,0.25,0.55,0.67,0.6,0.25,0.55,0.67,0.25,0.25,0.55,0.33,0.29,0.25,0.55,0.77,0.25,0.25,0.55,0.52,0.6,0.58,0.25,0.55,0.67,0.25,0.25,0.55,0.71,0.6,0.29,0.25,0.55,0.71,0.25,0.25,0.55,0.67,0.58,0.6,0.25,0.55,0.33,0.25,0.55,0.61,0.29,0.33,0.48,0.55,0.44,0.56,0.44,0.29,0.48,0.55,0.5,0.42,0.42,0.48,0.42,0.42,0.88,0.48,0.58,0.33,0.55,0.55,0.33,0.55,0.29,0.29,0.33,0.58,0.29,0.6,0.88,0.33,0.29,0.55,0.58,0.55,0.55,0.5,0.33,0.33,0.48,0.4,0.29,0.48,0.42,0.55,0.33,0.55,0.4" style="fill:rgb(0,0,0);font-family:URWPalladioL-Roma;font-size:8.97px;stroke:none;">41. Liang, Y.; Su, J.; Xi, B.; Yu, Y.; Ji, D.; Sun, Y.; Cui, C.; Zhu, J. Life cycle assessment of lithium-ion batteries for</text>
   <text y="110.76" x="98.05,103.035,106.416,110.711,115.005,120.224,125.442,130.338,135.745,139.547,143.8526,146.083,151.068,155.552,159.3194,161.595,165.89,173.807,176.416,180.218,184.02,186.629,191.525,196.743,200.545" svgx:width="0.56,0.4,0.48,0.48,0.58,0.58,0.55,0.6,0.42,0.48,0.55,0.56,0.5,0.42,0.55,0.48,0.88,0.29,0.42,0.42,0.29,0.55,0.58,0.42,0.25" style="fill:rgb(0,0,0);font-family:URWPalladioL-Roma;font-size:8.97px;stroke:none;">greenhouse gas emissions.</text>
   <text y="110.76" x="205.924,211.905,215.393,218.88,222.862,227.847,230.671,232.9135,236.051,242.032,246.013,250.998,254.486,257.974,261.462,265.452,267.6945,270.832,276.812,280.3,283.95,288.433,292.082,294.575" svgx:width="0.67,0.39,0.39,0.44,0.56,0.39,0.25,0.55,0.67,0.44,0.56,0.39,0.39,0.39,0.5,0.25,0.55,0.67,0.39,0.41,0.5,0.41,0.28,0.25" style="fill:rgb(0,0,0);font-family:URWPalladioL-Ital;font-size:8.97px;stroke:none;">Resour. Conserv. Recycl.</text>
   <text y="110.76" x="299.953,304.436,308.919,313.403" svgx:width="0.5,0.5,0.5,0.5" style="fill:rgb(0,0,0);font-family:URWPalladioL-Bold;font-size:8.97px;stroke:none;">2017</text>
   <text y="110.76" x="317.886" svgx:width="0.25" style="fill:rgb(0,0,0);font-family:URWPalladioL-Roma;font-size:8.97px;stroke:none;">,</text>
   <text y="110.76" x="322.369,326.852,331.335" svgx:width="0.5,0.5,0.5" style="fill:rgb(0,0,0);font-family:URWPalladioL-Ital;font-size:8.97px;stroke:none;">117</text>
   <text y="110.76" x="335.819,338.0615,340.302,344.785,349.269,353.752,358.235,362.718,367.202,371.685,373.9275,377.065" svgx:width="0.25,0.55,0.5,0.5,0.5,0.5,0.5,0.5,0.5,0.25,0.55,0.33" style="fill:rgb(0,0,0);font-family:URWPalladioL-Roma;font-size:8.97px;stroke:none;">, 285–293. [</text>
   <text y="110.76" x="380.05,386.408,389.788,394.684,398.485,402.287,408.277,412.572" svgx:width="0.71,0.4,0.55,0.42,0.42,0.67,0.48,0.33" style="fill:rgb(8,117,183);font-family:URWPalladioL-Roma;font-size:8.97px;stroke:none;">CrossRef</text>
   <text y="110.76" x="415.557" svgx:width="0.33" style="fill:rgb(0,0,0);font-family:URWPalladioL-Roma;font-size:8.97px;stroke:none;">]</text>
   <text y="123.672" x="76.535,81.018,85.501,87.74350000000001,98.05,104.15,109.473,114.046,119.369,124.454,126.6965,129.017,133.389,135.676,137.9185,140.258,145.535,150.528,155.613,160.607,165.692,170.265,178.34,182.913,185.15550000000002,187.477,192.425,194.711,196.95350000000002,199.293,202.375,205.357,209.93,214.987,219.56,223.438,228.761,231.422,233.6645,235.995,243.184,245.47,247.7125,250.052,254.854,260.368,264.941,270.456,275.541,278.203,280.4455,282.766,287.714,290.001,298.652,300.939,303.1815,305.521,308.603,313.926,318.919,324.434,328.815,331.0575,333.388,340.028,342.2705,344.591,352.201,357.286,362.874,366.322,371.315,379.391,383.772,386.753,391.326,393.988,396.649,402.164,405.621,410.706,413.367,417.428,422.001,424.60229999999996,426.94,432.436,435.884,440.878,444.938,449.319,453.197,456.9644,459.361,462.407,467.4,470.988,473.29,476.738,481.119,485.179,490.173,495.34,499.721,503.334,508.3572,510.705,515.699" svgx:width="0.5,0.5,0.25,0.55,0.67,0.58,0.5,0.58,0.56,0.25,0.55,0.6,0.25,0.25,0.55,0.67,0.55,0.56,0.55,0.56,0.5,0.88,0.5,0.25,0.55,0.61,0.25,0.25,0.55,0.34,0.33,0.5,0.55,0.5,0.42,0.58,0.29,0.25,0.55,0.79,0.25,0.25,0.55,0.52,0.6,0.5,0.6,0.56,0.29,0.25,0.55,0.61,0.25,0.95,0.25,0.25,0.55,0.34,0.58,0.55,0.6,0.48,0.25,0.55,0.73,0.25,0.55,0.83,0.56,0.61,0.4,0.55,0.88,0.48,0.33,0.5,0.29,0.29,0.6,0.4,0.56,0.29,0.44,0.5,0.29,0.55,0.6,0.4,0.55,0.44,0.48,0.42,0.42,0.55,0.33,0.55,0.4,0.55,0.4,0.48,0.44,0.55,0.56,0.48,0.4,0.56,0.55,0.55,0.33" style="fill:rgb(0,0,0);font-family:URWPalladioL-Roma;font-size:8.97px;stroke:none;">42. Zhang, P.; Yokoyama, T.; Itabashi, O.; Suzuki, T.M.; Inoue, K. Hydrometallurgical process for recovery of</text>
   <text y="136.583" x="98.05,105.967,110.262,113.185,117.668,120.2693,122.519,127.585,132.069,134.678,140.084,144.379,148.1464,150.423,153.409,156.789,161.685,171.844,175.645,181.034,185.329,190.547,193.5071,195.712,198.321,200.931,203.854,209.072,211.681,217.088,225.005,227.991,230.6,235.496,240.6986,242.956,246.758,251.053,255.034,259.929,265.148,270.626,275.11,278.651,283.6742,285.878,290.837,295.32,298.243,301.166,305.461,309.003,311.612,315.907,319.708" svgx:width="0.88,0.48,0.33,0.5,0.29,0.55,0.56,0.5,0.29,0.6,0.48,0.42,0.55,0.33,0.4,0.55,0.88,0.42,0.6,0.48,0.58,0.33,0.55,0.29,0.29,0.33,0.58,0.29,0.6,0.88,0.33,0.29,0.55,0.58,0.55,0.42,0.48,0.44,0.55,0.58,0.61,0.5,0.4,0.56,0.55,0.55,0.5,0.33,0.33,0.48,0.4,0.29,0.48,0.42,0.25" style="fill:rgb(0,0,0);font-family:URWPalladioL-Roma;font-size:8.97px;stroke:none;">metal values fromspent lithium-ion secondary batteries.</text>
   <text y="136.583" x="325.085,332.061,336.544,341.027,344.354,348.335,355.311,358.799,361.784,365.766,368.258,370.751,375.736,379.063,383.546" svgx:width="0.78,0.5,0.5,0.39,0.44,0.78,0.39,0.33,0.44,0.28,0.28,0.56,0.39,0.5,0.5" style="fill:rgb(0,0,0);font-family:URWPalladioL-Ital;font-size:8.97px;stroke:none;">Hydrometallurgy</text>
   <text y="136.583" x="390.27,394.753,399.236,403.72" svgx:width="0.5,0.5,0.5,0.5" style="fill:rgb(0,0,0);font-family:URWPalladioL-Bold;font-size:8.97px;stroke:none;">1998</text>
   <text y="136.583" x="408.203" svgx:width="0.25" style="fill:rgb(0,0,0);font-family:URWPalladioL-Roma;font-size:8.97px;stroke:none;">,</text>
   <text y="136.583" x="412.686,417.169" svgx:width="0.5,0.5" style="fill:rgb(0,0,0);font-family:URWPalladioL-Ital;font-size:8.97px;stroke:none;">47</text>
   <text y="136.583" x="421.652,423.8945,426.135,430.618,435.102,439.585,444.068,448.551,453.035,457.518,459.7605,462.898" svgx:width="0.25,0.55,0.5,0.5,0.5,0.5,0.5,0.5,0.5,0.25,0.55,0.33" style="fill:rgb(0,0,0);font-family:URWPalladioL-Roma;font-size:8.97px;stroke:none;">, 259–271. [</text>
   <text y="136.583" x="465.883,472.241,475.621,480.517,484.318,488.12,494.11,498.405" svgx:width="0.71,0.4,0.55,0.42,0.42,0.67,0.48,0.33" style="fill:rgb(8,117,183);font-family:URWPalladioL-Roma;font-size:8.97px;stroke:none;">CrossRef</text>
   <text y="136.583" x="501.39" svgx:width="0.33" style="fill:rgb(0,0,0);font-family:URWPalladioL-Roma;font-size:8.97px;stroke:none;">]</text>
   <text y="149.495" x="76.535,81.018,85.501,87.74350000000001,98.05,103.977,108.828,114.186,116.42850000000001,118.647,126.04,128.261,130.5035,132.713,139.493,143.003,147.446,150.342,154.785,157.0275,159.246,164.675,166.896,169.1385,171.357,178.27,183.61,187.867,190.452,193.038,197.481,202.652,204.8945,207.104,213.982,216.203,218.4455,220.664,228.723,233.166,238.337,243.278,245.5205,247.739,252.67,254.9125,257.122,264.1186,266.274,271.446,276.297,281.318,285.574,288.1753,290.399,298.245,302.501,305.389,310.56,315.412,320.8837,323.08,325.977,330.91049999999996,333.068,336.409,340.665,344.61,349.551,353.496,356.082,360.3876,362.577,370.423,373.009,377.594,381.85,387.3217,389.519,393.464,397.907,400.804,405.975,410.827,416.256,420.5616,422.742,430.589,435.031,437.928,442.184,445.694,448.28,452.723,455.309,459.07640000000004,461.315,464.274,469.126,472.714,474.866,477.452,480.038,482.934,488.106,490.692,496.05,506.135,508.721,513.572" svgx:width="0.5,0.5,0.25,0.55,0.67,0.55,0.6,0.25,0.55,0.83,0.25,0.25,0.55,0.76,0.4,0.5,0.33,0.5,0.25,0.55,0.61,0.25,0.25,0.55,0.78,0.6,0.48,0.29,0.29,0.5,0.58,0.25,0.55,0.77,0.25,0.25,0.55,1.0,0.5,0.58,0.56,0.25,0.55,0.67,0.25,0.55,0.78,0.55,0.58,0.55,0.56,0.48,0.29,0.55,0.88,0.48,0.33,0.58,0.55,0.61,0.55,0.33,0.55,0.55,0.4,0.48,0.44,0.56,0.44,0.29,0.48,0.55,0.88,0.29,0.52,0.48,0.61,0.55,0.44,0.5,0.33,0.58,0.55,0.61,0.48,0.55,0.88,0.5,0.33,0.48,0.4,0.29,0.5,0.29,0.42,0.55,0.33,0.55,0.4,0.55,0.29,0.29,0.33,0.58,0.29,0.6,0.88,0.29,0.55,0.58" style="fill:rgb(0,0,0);font-family:URWPalladioL-Roma;font-size:8.97px;stroke:none;">43. Zou, H.; Gratz, E.; Apelian, D.; Wang, Y. A novel method to recycle mixed cathode materials for lithiumion</text>
   <text y="162.406" x="98.05,103.008,107.492,110.415,113.338,117.633,121.174,123.784,128.078,131.88" svgx:width="0.55,0.5,0.33,0.33,0.48,0.4,0.29,0.48,0.42,0.25" style="fill:rgb(0,0,0);font-family:URWPalladioL-Roma;font-size:8.97px;stroke:none;">batteries.</text>
   <text y="162.406" x="137.26,143.734,147.06,150.548,154.036,159.0592,161.263,167.244,171.727,175.215,182.191" svgx:width="0.72,0.39,0.39,0.39,0.56,0.55,0.67,0.5,0.39,0.78,0.25" style="fill:rgb(0,0,0);font-family:URWPalladioL-Ital;font-size:8.97px;stroke:none;">Green Chem.</text>
   <text y="162.406" x="187.57,192.053,196.536,201.02" svgx:width="0.5,0.5,0.5,0.5" style="fill:rgb(0,0,0);font-family:URWPalladioL-Bold;font-size:8.97px;stroke:none;">2013</text>
   <text y="162.406" x="205.502" svgx:width="0.25" style="fill:rgb(0,0,0);font-family:URWPalladioL-Roma;font-size:8.97px;stroke:none;">,</text>
   <text y="162.406" x="209.986,214.469" svgx:width="0.5,0.5" style="fill:rgb(0,0,0);font-family:URWPalladioL-Ital;font-size:8.97px;stroke:none;">15</text>
   <text y="162.406" x="218.952,221.1945,223.435,227.918,232.402,236.885,241.368,245.851,250.334,254.818,259.301,263.784,266.0265,269.164" svgx:width="0.25,0.55,0.5,0.5,0.5,0.5,0.5,0.5,0.5,0.5,0.5,0.25,0.55,0.33" style="fill:rgb(0,0,0);font-family:URWPalladioL-Roma;font-size:8.97px;stroke:none;">, 1183–1191. [</text>
   <text y="162.406" x="272.15,278.507,281.887,286.783,290.585,294.386,300.376,304.671" svgx:width="0.71,0.4,0.55,0.42,0.42,0.67,0.48,0.33" style="fill:rgb(8,117,183);font-family:URWPalladioL-Roma;font-size:8.97px;stroke:none;">CrossRef</text>
   <text y="162.406" x="307.657" svgx:width="0.33" style="fill:rgb(0,0,0);font-family:URWPalladioL-Roma;font-size:8.97px;stroke:none;">]</text>
   <text y="175.318" x="76.535,81.018,85.501,87.74350000000001,98.05,102.661,106.909,112.327,114.402,118.836,121.674,123.91650000000001,126.134,130.24,132.48250000000002,134.709,140.633,144.881,148.818,153.748,157.686,160.266,162.847,168.008,173.0312,175.182,182.081,185.841,190.089,195.5607,197.75,203.169,205.749,209.997,213.934,216.825,220.328,222.908,226.85479999999998,229.089,235.376,239.624,242.204,244.785,248.5524,250.797,255.701,260.7242,262.875,270.253,275.184,280.602,283.945,288.787,296.617,300.865,303.756,308.19,310.77,313.351,318.698,322.032,326.963,329.543,333.48,337.914,340.51529999999997,342.747,347.376,350.711,354.958,359.392,362.283,370.113,374.361,379.522,382.413,384.6555,387.787,395.83,400.672,404.174,406.755,412.2267,414.417,419.773,424.207,427.098,431.345,436.506,439.4661,441.641,450.509,457.5953,459.731,464.165,468.599,473.033,477.467,481.901,486.334,490.768,495.202,499.636,504.12100000000004,506.314,513.213,517.647" svgx:width="0.5,0.5,0.25,0.55,0.61,0.48,0.61,0.23,0.5,0.4,0.25,0.55,0.56,0.25,0.55,0.67,0.48,0.44,0.56,0.44,0.29,0.29,0.58,0.56,0.55,0.78,0.42,0.48,0.61,0.55,0.61,0.29,0.48,0.44,0.33,0.4,0.29,0.44,0.55,0.71,0.48,0.29,0.29,0.42,0.55,0.55,0.56,0.55,0.83,0.56,0.61,0.4,0.55,0.88,0.48,0.33,0.5,0.29,0.29,0.6,0.4,0.56,0.29,0.44,0.5,0.29,0.55,0.61,0.4,0.48,0.5,0.33,0.88,0.48,0.58,0.33,0.25,0.55,1.0,0.55,0.4,0.29,0.61,0.55,0.6,0.5,0.33,0.48,0.58,0.33,0.55,1.0,0.79,0.55,0.5,0.5,0.5,0.5,0.5,0.5,0.5,0.5,0.5,0.5,0.55,0.78,0.5,0.25" style="fill:rgb(0,0,0);font-family:URWPalladioL-Roma;font-size:8.97px;stroke:none;">44. Tedjar, F. Recycling Used Electric Cells by Hydrometallurgical Treatment. World Patent WO 2003021708 A2,</text>
   <text y="188.23" x="98.05,102.533,107.016,111.5,115.983" svgx:width="0.5,0.5,0.5,0.5,0.25" style="fill:rgb(0,0,0);font-family:URWPalladioL-Roma;font-size:8.97px;stroke:none;">2003.</text>
   <text y="201.141" x="76.535,81.018,85.501,87.74350000000001,98.05,102.833,107.214,112.802,114.942,119.515,122.46,124.7025,127.545,131.807,134.093,136.3355,139.462,144.547,149.54,155.055,160.643,164.256,168.829,173.402,175.6445,178.487,181.532,183.819,186.864,193.348,195.59050000000002,198.434,207.085,211.466,214.439,219.761,224.755,230.2267,233.142,236.187,241.181,244.769,247.592,250.573,255.896,260.2016,263.076,271.727,274.389,279.108,283.489,288.9607,291.875,297.985,302.366,306.426,311.511,315.572,318.233,320.895,326.218,331.2412,334.101,339.095,342.05510000000004,344.939,350.527,353.188,356.17,361.493,364.154,369.669,377.745,380.79,385.848,390.421,394.298,398.679,404.1507,407.066,414.181,418.754,424.077,429.07,434.659,438.9646,441.838,447.426,451.999,454.98,457.962,462.343,465.955,468.617,472.997,476.7644,479.674,484.247,489.569,495.0407,497.956,504.44,508.821,511.483,514.144,518.022" svgx:width="0.5,0.5,0.25,0.55,0.61,0.48,0.61,0.23,0.5,0.4,0.25,0.55,0.56,0.25,0.25,0.55,0.56,0.55,0.6,0.61,0.4,0.5,0.5,0.25,0.55,0.33,0.25,0.33,0.71,0.25,0.55,0.95,0.48,0.33,0.58,0.55,0.61,0.55,0.33,0.55,0.4,0.55,0.33,0.58,0.48,0.55,0.95,0.29,0.52,0.48,0.61,0.55,0.67,0.48,0.44,0.56,0.44,0.29,0.29,0.58,0.56,0.55,0.55,0.33,0.55,0.61,0.29,0.33,0.58,0.29,0.6,0.88,0.33,0.55,0.5,0.42,0.48,0.61,0.55,0.78,0.5,0.58,0.55,0.61,0.48,0.55,0.61,0.5,0.33,0.33,0.48,0.4,0.29,0.48,0.42,0.55,0.5,0.58,0.61,0.55,0.71,0.48,0.29,0.29,0.42,0.25" style="fill:rgb(0,0,0);font-family:URWPalladioL-Roma;font-size:8.97px;stroke:none;">45. Tedjar, F.; Foudraz, J.-C. Method for the Mixed Recycling of Lithium-based Aanode Batteries and Cells.</text>
   <text y="214.053" x="97.602,105.743,110.639,114.181,116.79,122.2617,124.51,129.926,134.409,137.332,141.627,146.845,149.8051,152.01,160.977,168.0633,170.266,174.749,179.232,183.715,188.199,192.682,197.165,201.648,206.131,210.615,215.10000000000002,217.339,224.315,228.798,231.0405,233.282,237.765,242.248,246.731,251.214" svgx:width="1.0,0.55,0.4,0.29,0.61,0.55,0.6,0.5,0.33,0.48,0.58,0.33,0.55,1.0,0.79,0.55,0.5,0.5,0.5,0.5,0.5,0.5,0.5,0.5,0.5,0.5,0.55,0.78,0.5,0.25,0.55,0.5,0.5,0.5,0.5,0.25" style="fill:rgb(0,0,0);font-family:URWPalladioL-Roma;font-size:8.97px;stroke:none;">World Patent WO 2005101564 A1, 2005.</text>
   <text y="226.964" x="76.535,81.018,85.501,87.74350000000001,98.05,102.763,107.088,112.605,114.718,119.232,122.131,124.3735,126.618,130.817,133.074,135.31650000000002,137.562,142.582,147.512,152.956,158.473,162.04,166.554,171.069,173.3115,175.556,178.563,180.82,183.827,190.229,192.47150000000002,194.707,203.249,207.574,210.517,215.772,220.702,226.1737,228.449,231.456,236.386,239.974,242.183,245.126,250.381,254.6866,256.936,265.478,268.105,272.764,277.089,282.5607,284.836,290.868,295.193,299.202,304.222,308.231,310.858,313.486,318.741,323.76419999999996,325.982,330.912,333.8721,336.149,341.666,344.293,347.237,352.492,355.119,360.564,368.537,371.543,377.06,381.575,385.403,389.728,395.1997,397.475,404.5,409.755,414.685,420.202,424.5076,426.757,432.273,436.788,439.732,442.675,447.0,450.567,453.194,457.519,461.2864,463.569,468.083,473.338,478.8097,481.085,487.487,491.812,494.439,497.067,500.895,503.1375,506.286,513.31,518.051" svgx:width="0.5,0.5,0.25,0.55,0.61,0.48,0.61,0.23,0.5,0.4,0.25,0.55,0.56,0.25,0.25,0.55,0.56,0.55,0.6,0.61,0.4,0.5,0.5,0.25,0.55,0.33,0.25,0.33,0.71,0.25,0.55,0.95,0.48,0.33,0.58,0.55,0.61,0.55,0.33,0.55,0.4,0.55,0.33,0.58,0.48,0.55,0.95,0.29,0.52,0.48,0.61,0.55,0.67,0.48,0.44,0.56,0.44,0.29,0.29,0.58,0.56,0.55,0.55,0.33,0.55,0.61,0.29,0.33,0.58,0.29,0.6,0.88,0.33,0.61,0.5,0.42,0.48,0.61,0.55,0.78,0.58,0.55,0.61,0.48,0.55,0.61,0.5,0.33,0.33,0.48,0.4,0.29,0.48,0.42,0.55,0.5,0.58,0.61,0.55,0.71,0.48,0.29,0.29,0.42,0.25,0.55,0.78,0.52,0.25" style="fill:rgb(0,0,0);font-family:URWPalladioL-Roma;font-size:8.97px;stroke:none;">46. Tedjar, F.; Foudraz, J.-C. Method for the Mixed Recycling of Lithium-Based Anode Batteries and Cells. US.</text>
   <text y="239.876" x="98.05,103.466,107.949,110.872,115.167,120.385,123.3451,125.55,130.033,134.516,139.0,143.483,147.966,152.449,156.932,161.416,165.899,170.382,174.86700000000002,177.107,184.083,188.566,190.8085,193.049,197.532,202.015,206.499,210.982" svgx:width="0.6,0.5,0.33,0.48,0.58,0.33,0.55,0.5,0.5,0.5,0.5,0.5,0.5,0.5,0.5,0.5,0.5,0.5,0.55,0.78,0.5,0.25,0.55,0.5,0.5,0.5,0.5,0.25" style="fill:rgb(0,0,0);font-family:URWPalladioL-Roma;font-size:8.97px;stroke:none;">Patent 20070196725 A1, 2007.</text>
   <text y="252.788" x="76.535,81.018,85.501,87.74350000000001,98.05,105.659,110.232,113.845,119.341,123.722,126.667,128.9095,131.743,138.721,141.007,143.2495,146.358,151.159,156.153,164.229,172.304,176.685,180.298,185.465,188.126,190.788,193.449,197.83,200.07250000000002,202.906,209.015,211.302,213.5445,216.643,223.282,227.663,232.986,238.574,242.187,244.848,248.909,253.994,256.2365,259.07,264.658,266.944,269.1865,272.294,279.373,282.986,285.647,289.525,293.586,298.579,301.241,303.902,306.1445,308.978,314.566,316.852,319.0945,322.203,326.995,329.656,334.229,337.211,341.592,344.546,346.7885,349.622,353.984,356.271,358.5135,361.621,366.422,369.404,374.397,377.059,382.144,384.805,390.128,392.3705,395.204,401.313,403.6,405.84250000000003,408.95,417.263,421.836,424.498,427.479,432.473,437.796,440.0385,442.871,449.987,452.273,454.51550000000003,457.624,464.108,469.431,473.043,475.705,479.582,482.564,486.945,492.268,496.145,500.526,505.849,508.0915,510.925,515.287,517.574" svgx:width="0.5,0.5,0.25,0.55,0.83,0.5,0.4,0.6,0.48,0.4,0.25,0.55,0.76,0.25,0.25,0.55,0.52,0.55,0.88,0.88,0.48,0.4,0.56,0.29,0.29,0.29,0.48,0.25,0.55,0.67,0.25,0.25,0.55,0.73,0.48,0.58,0.61,0.4,0.29,0.44,0.56,0.25,0.55,0.61,0.25,0.25,0.55,0.77,0.4,0.29,0.42,0.44,0.55,0.29,0.29,0.25,0.55,0.61,0.25,0.25,0.55,0.52,0.29,0.5,0.33,0.48,0.4,0.25,0.55,0.6,0.25,0.25,0.55,0.52,0.33,0.55,0.29,0.56,0.29,0.58,0.25,0.55,0.67,0.25,0.25,0.55,1.0,0.5,0.29,0.33,0.55,0.58,0.25,0.55,0.78,0.25,0.25,0.55,0.71,0.58,0.4,0.29,0.42,0.33,0.48,0.58,0.42,0.48,0.58,0.25,0.55,0.6,0.25,0.25" style="fill:rgb(0,0,0);font-family:URWPalladioL-Roma;font-size:8.97px;stroke:none;">47. Harper, G.; Sommerville, R.; Kendrick, E.; Driscoll, L.; Slater, P.; Stolkin, R.; Walton, A.; Christensen, P.;</text>
   <text y="265.699" x="98.05,105.361,109.57,112.127,117.496,120.967,123.524,127.425,132.539,134.7815,136.862,143.769,145.966,148.20850000000002,150.333,155.702,160.096,167.854,172.714,176.923,180.394,183.258,185.50050000000002,187.581,192.195,194.391,196.6335,198.759,202.968,205.9281,207.959,212.352,214.909,217.1515,220.208,226.078,230.287,234.188,239.074,242.975,245.532,248.089,253.203,258.2262,260.215,262.772,265.329,268.194,273.308,275.865,281.164,288.923,291.849,294.406,299.204,304.4066,306.444,311.303,315.697,318.562,321.426,325.635,329.106,331.663,335.872,339.6394,341.724,344.65,347.963,352.761,362.646,366.855,369.412,373.621,377.523,380.387,383.858,386.415,390.3618,392.452,397.417,401.617,406.731,409.288,413.189,415.746,419.956,423.681" svgx:width="0.83,0.48,0.29,0.61,0.4,0.29,0.44,0.58,0.25,0.55,0.79,0.25,0.25,0.55,0.61,0.5,0.88,0.55,0.48,0.4,0.33,0.25,0.55,0.52,0.25,0.25,0.55,0.48,0.33,0.55,0.5,0.29,0.25,0.55,0.67,0.48,0.44,0.56,0.44,0.29,0.29,0.58,0.56,0.55,0.29,0.29,0.33,0.58,0.29,0.6,0.88,0.33,0.29,0.55,0.58,0.55,0.55,0.5,0.33,0.33,0.48,0.4,0.29,0.48,0.42,0.55,0.33,0.4,0.55,0.88,0.48,0.29,0.48,0.44,0.33,0.4,0.29,0.44,0.55,0.56,0.48,0.58,0.29,0.44,0.29,0.48,0.42,0.25" style="fill:rgb(0,0,0);font-family:URWPalladioL-Roma;font-size:8.97px;stroke:none;">Heidrich, O.; Lambert, S.; et al. Recycling lithium-ion batteries fromelectric vehicles.</text>
   <text y="265.699" x="428.982,435.818,439.72,442.646,447.531,450.792" svgx:width="0.78,0.44,0.33,0.56,0.39,0.39" style="fill:rgb(0,0,0);font-family:URWPalladioL-Ital;font-size:8.97px;stroke:none;">Nature</text>
   <text y="265.699" x="456.335,460.818,465.301,469.785" svgx:width="0.5,0.5,0.5,0.5" style="fill:rgb(0,0,0);font-family:URWPalladioL-Bold;font-size:8.97px;stroke:none;">2019</text>
   <text y="265.699" x="474.268" svgx:width="0.25" style="fill:rgb(0,0,0);font-family:URWPalladioL-Roma;font-size:8.97px;stroke:none;">,</text>
   <text y="265.699" x="478.616,483.01,487.403" svgx:width="0.5,0.5,0.5" style="fill:rgb(0,0,0);font-family:URWPalladioL-Ital;font-size:8.97px;stroke:none;">575</text>
   <text y="265.699" x="491.797,494.03950000000003,496.147,500.54,504.934,509.327,513.721,518.114" svgx:width="0.25,0.55,0.5,0.5,0.5,0.5,0.5,0.25" style="fill:rgb(0,0,0);font-family:URWPalladioL-Roma;font-size:8.97px;stroke:none;">, 75–86.</text>
   <text y="278.611" x="98.05" svgx:width="0.33" style="fill:rgb(0,0,0);font-family:URWPalladioL-Roma;font-size:8.97px;stroke:none;">[</text>
   <text y="278.611" x="101.036,107.393,110.773,115.669,119.471,123.272,129.262,133.557" svgx:width="0.71,0.4,0.55,0.42,0.42,0.67,0.48,0.33" style="fill:rgb(8,117,183);font-family:URWPalladioL-Roma;font-size:8.97px;stroke:none;">CrossRef</text>
   <text y="278.611" x="136.543" svgx:width="0.33" style="fill:rgb(0,0,0);font-family:URWPalladioL-Roma;font-size:8.97px;stroke:none;">]</text>
   <text y="291.522" x="76.535,81.018,85.501,87.74350000000001,98.05,104.755,109.148,111.705,116.819,121.028,124.754,126.99650000000001,128.62,133.989,136.186,138.4285,140.237,144.85,150.149,152.706,155.263,157.82,162.784,167.178,172.292,174.5345,176.158,179.084,181.281,183.5235,185.341,190.71,196.008,199.479,204.593,209.707,214.101,221.86,224.10250000000002,225.726,232.562,234.80450000000002,236.429,241.798,246.007,248.6083,250.224,255.593,258.15,261.076,265.285,268.212,274.442,279.327,283.229,285.786,290.0916,291.664,298.501,303.615,308.008,310.565,315.451,319.177,321.734,325.5014,327.129,330.055,334.853,338.44100000000003,339.993,345.362,347.919,350.784,355.898,358.455,363.753,371.512,374.438,377.4,382.197,387.3996,388.981,394.35,398.743,401.608,404.473,408.682,412.153,417.1762,418.699,424.006,427.319,432.117,437.486,442.784,446.686,449.55,452.107,456.905,462.1076,463.689,468.082,473.196,480.235,486.105,490.314,494.215,499.101,503.002,505.559,508.116,513.23,518.116" svgx:width="0.5,0.5,0.25,0.55,0.76,0.5,0.29,0.58,0.48,0.42,0.25,0.55,0.61,0.25,0.25,0.55,0.52,0.6,0.29,0.29,0.29,0.56,0.5,0.58,0.25,0.55,0.33,0.25,0.25,0.55,0.61,0.6,0.4,0.58,0.58,0.5,0.88,0.25,0.55,0.78,0.25,0.55,0.61,0.48,0.29,0.55,0.61,0.29,0.33,0.48,0.33,0.71,0.56,0.44,0.29,0.48,0.55,0.78,0.58,0.5,0.29,0.56,0.42,0.29,0.42,0.55,0.33,0.55,0.4,0.55,0.61,0.29,0.33,0.58,0.29,0.6,0.88,0.33,0.34,0.55,0.58,0.55,0.61,0.5,0.33,0.33,0.48,0.4,0.56,0.55,0.6,0.4,0.55,0.61,0.6,0.44,0.33,0.29,0.55,0.58,0.55,0.5,0.58,0.61,0.67,0.48,0.44,0.56,0.44,0.29,0.29,0.58,0.56,0.25" style="fill:rgb(0,0,0);font-family:URWPalladioL-Roma;font-size:8.97px;stroke:none;">48. Gaines, L.; Sullivan, J.; Burnham, A. Bel Life-Cycle Analysis for Lithium-Ion Battery Production andRecycling.</text>
   <text y="304.434" x="97.504,101.987,105.475,109.456,114.442,117.929,122.413,124.6555,127.792,133.773,137.261,140.749,142.9915,146.129,151.607,155.588,159.569,163.057,167.542,169.782,174.265,178.749,181.734,186.21900000000002,188.459,194.933,199.918,204.904,209.889,212.13150000000002,215.269,223.733,227.221,230.709,233.695" svgx:width="0.61,0.39,0.44,0.56,0.39,0.5,0.25,0.55,0.67,0.39,0.39,0.25,0.55,0.61,0.44,0.44,0.39,0.5,0.55,0.5,0.5,0.33,0.5,0.55,0.72,0.56,0.56,0.56,0.25,0.55,0.94,0.39,0.39,0.33,0.25" style="fill:rgb(0,0,0);font-family:URWPalladioL-Ital;font-size:8.97px;stroke:none;">Transp. Res. Board 90th Annu. Meet.</text>
   <text y="304.434" x="239.072,243.555,248.038,252.522" svgx:width="0.5,0.5,0.5,0.5" style="fill:rgb(0,0,0);font-family:URWPalladioL-Bold;font-size:8.97px;stroke:none;">2011</text>
   <text y="304.434" x="257.005,259.2475,261.488,265.971,270.455,274.938,279.421" svgx:width="0.25,0.55,0.5,0.5,0.5,0.5,0.25" style="fill:rgb(0,0,0);font-family:URWPalladioL-Roma;font-size:8.97px;stroke:none;">, 1–15.</text>
   <text y="317.346" x="76.535,81.018,85.501,87.74350000000001,98.05,104.15,106.812,111.192,119.268,123.841,129.164,134.487,136.7295,139.215,144.016,146.303,148.5455,151.141,159.793,165.308,167.969,170.631,175.011,177.956,180.1985,182.694,189.773,192.059,197.647,199.933,202.1755,204.772,209.573,213.634,218.947,223.328,228.386,232.767,237.852,240.0945,242.589,248.177,250.464,252.7065,255.302,263.615,267.996,270.657,273.319,275.5615,278.056,286.708,288.95050000000003,291.436,300.088,305.082,310.67,315.051,317.712,320.374,325.696,330.7192,333.232,336.214,341.537,345.8426,348.359,353.856,358.85,361.831,366.212,371.535,374.516,377.178,381.75,384.3513,386.854,389.515,397.591,403.087,407.66,411.721,414.6811,417.154,422.147,425.1071,427.635,430.296,432.957,435.939,441.262,443.923,449.438,457.3316,459.965,463.413,467.793,471.854,476.939,481.0,483.661,486.323,491.645,496.66819999999996,499.172,502.218,505.675,510.669" svgx:width="0.5,0.5,0.25,0.55,0.67,0.29,0.48,0.88,0.5,0.58,0.58,0.25,0.55,0.52,0.25,0.25,0.55,0.95,0.6,0.29,0.29,0.48,0.4,0.25,0.55,0.77,0.25,0.61,0.25,0.25,0.55,0.52,0.44,0.58,0.48,0.55,0.48,0.56,0.25,0.55,0.61,0.25,0.25,0.55,1.0,0.48,0.29,0.29,0.25,0.55,0.95,0.25,0.55,0.95,0.55,0.61,0.48,0.29,0.29,0.58,0.56,0.55,0.33,0.58,0.48,0.55,0.6,0.55,0.33,0.48,0.58,0.33,0.29,0.5,0.29,0.55,0.29,0.88,0.6,0.5,0.44,0.33,0.55,0.55,0.33,0.55,0.29,0.29,0.33,0.58,0.29,0.6,0.88,0.55,0.4,0.48,0.44,0.56,0.44,0.29,0.29,0.58,0.56,0.55,0.33,0.4,0.55,0.88" style="fill:rgb(0,0,0);font-family:URWPalladioL-Roma;font-size:8.97px;stroke:none;">49. Ziemann, S.; Müller, D.B.; Schebek, L.; Weil, M. Modeling the potential impact of lithium recycling from</text>
   <text y="330.257" x="98.05,103.638,110.0964,113.04,118.097,122.67,125.652,128.633,133.014,136.627,139.288,143.669,147.43640000000002,150.345,155.339,160.5416,163.451,166.113,168.774,171.755,177.078,179.74,185.255,193.1486,196.129,201.717,206.098,214.173,218.746,224.069,229.657,231.89950000000002,236.196,243.1926,246.11,251.698,256.783,262.106,266.679,274.755,277.416,281.3628,284.275,292.927,297.345,304.3416,307.259,311.831,317.328,322.825,326.273,331.266,335.839,339.9,345.223" svgx:width="0.61,0.72,0.55,0.55,0.5,0.33,0.33,0.48,0.4,0.29,0.48,0.42,0.55,0.55,0.58,0.55,0.29,0.29,0.33,0.58,0.29,0.6,0.88,0.55,0.61,0.48,0.88,0.5,0.58,0.61,0.25,0.55,0.78,0.55,0.61,0.56,0.58,0.5,0.88,0.29,0.44,0.55,0.95,0.56,0.78,0.55,0.5,0.6,0.6,0.4,0.55,0.5,0.44,0.58,0.25" style="fill:rgb(0,0,0);font-family:URWPalladioL-Roma;font-size:8.97px;stroke:none;">EV batteries on lithium demand: A dynamic MFA approach.</text>
   <text y="330.257" x="352.315,358.415,361.973,365.531,369.591,374.676,377.566,379.8085,384.663,390.764,394.824,399.909,403.467,407.025,410.582,414.661,416.9035,421.749,427.849,431.407,435.129,439.702,443.425,445.967" svgx:width="0.67,0.39,0.39,0.44,0.56,0.39,0.25,0.55,0.67,0.44,0.56,0.39,0.39,0.39,0.5,0.25,0.55,0.67,0.39,0.41,0.5,0.41,0.28,0.25" style="fill:rgb(0,0,0);font-family:URWPalladioL-Ital;font-size:8.97px;stroke:none;">Resour. Conserv. Recycl.</text>
   <text y="330.257" x="453.062,457.545,462.028,466.512" svgx:width="0.5,0.5,0.5,0.5" style="fill:rgb(0,0,0);font-family:URWPalladioL-Bold;font-size:8.97px;stroke:none;">2018</text>
   <text y="330.257" x="470.995" svgx:width="0.25" style="fill:rgb(0,0,0);font-family:URWPalladioL-Roma;font-size:8.97px;stroke:none;">,</text>
   <text y="330.257" x="476.217,480.79,485.363" svgx:width="0.5,0.5,0.5" style="fill:rgb(0,0,0);font-family:URWPalladioL-Ital;font-size:8.97px;stroke:none;">133</text>
   <text y="330.257" x="489.936,492.1785,495.158,499.731,504.304,508.877,513.45,518.023" svgx:width="0.25,0.55,0.5,0.5,0.5,0.5,0.5,0.25" style="fill:rgb(0,0,0);font-family:URWPalladioL-Roma;font-size:8.97px;stroke:none;">, 76–85.</text>
   <text y="343.169" x="98.05" svgx:width="0.33" style="fill:rgb(0,0,0);font-family:URWPalladioL-Roma;font-size:8.97px;stroke:none;">[</text>
   <text y="343.169" x="101.036,107.393,110.773,115.669,119.471,123.272,129.262,133.557" svgx:width="0.71,0.4,0.55,0.42,0.42,0.67,0.48,0.33" style="fill:rgb(8,117,183);font-family:URWPalladioL-Roma;font-size:8.97px;stroke:none;">CrossRef</text>
   <text y="343.169" x="136.543" svgx:width="0.33" style="fill:rgb(0,0,0);font-family:URWPalladioL-Roma;font-size:8.97px;stroke:none;">]</text>
   <text y="356.08" x="76.535,81.018,85.501,87.74350000000001,98.05,100.976,105.589,112.891,119.728,128.04,131.0001,132.566,135.492,140.105,144.498,147.056,151.3616,152.864,157.662,160.62210000000002,162.178,169.014,171.571,174.129,178.926,183.812,187.538,190.464,192.7065,195.587,201.597,206.562,210.955,213.512,216.069,220.463,225.322,227.879,232.1846,233.687,238.485,243.599,246.156,248.713,253.827,258.036" svgx:width="0.5,0.5,0.25,0.55,0.33,0.52,0.83,0.78,0.95,0.33,0.55,0.33,0.52,0.5,0.29,0.48,0.55,0.55,0.33,0.55,0.78,0.29,0.29,0.55,0.56,0.42,0.33,0.25,0.55,0.78,0.56,0.5,0.29,0.29,0.5,0.55,0.29,0.48,0.55,0.55,0.58,0.29,0.29,0.58,0.48,0.25" style="fill:rgb(0,0,0);font-family:URWPalladioL-Roma;font-size:8.97px;stroke:none;">50. (SNAM) [Sale of Alloys]. Available online:</text>
   <text y="356.08" x="263.054,268.168,271.032,273.897,279.169" svgx:width="0.58,0.33,0.33,0.6,0.25" style="fill:rgb(8,117,183);font-family:URWPalladioL-Roma;font-size:8.97px;stroke:none;">http:</text>
   <text y="356.08" x="281.37,283.892" svgx:width="0.29,0.29" style="fill:rgb(8,117,183);font-family:Rpxr;font-size:8.97px;stroke:none;">//</text>
   <text y="356.08" x="286.503,293.831,301.16,307.662,309.859,313.585,318.699,323.092,330.851,333.048,336.95,341.747" svgx:width="0.83,0.83,0.83,0.25,0.42,0.58,0.5,0.88,0.25,0.44,0.55,0.88" style="fill:rgb(8,117,183);font-family:URWPalladioL-Roma;font-size:8.97px;stroke:none;">www.snam.com</text>
   <text y="356.08" x="349.507" svgx:width="0.29" style="fill:rgb(8,117,183);font-family:Rpxr;font-size:8.97px;stroke:none;">/</text>
   <text y="356.08" x="352.119,356.513,360.414,363.279,365.836,370.8,373.357,376.222,380.431" svgx:width="0.5,0.44,0.33,0.29,0.56,0.29,0.33,0.48,0.42" style="fill:rgb(8,117,183);font-family:URWPalladioL-Roma;font-size:8.97px;stroke:none;">activites</text>
   <text y="356.08" x="384.156" svgx:width="0.29" style="fill:rgb(8,117,183);font-family:Rpxr;font-size:8.97px;stroke:none;">/</text>
   <text y="356.08" x="386.767,391.732,395.941,401.055,403.919,408.128,411.854,415.281,419.675,422.232,424.789,427.346,431.739,436.625,440.834,444.252,447.978,453.276,455.833,458.698,462.907,465.104,470.385,475.499" svgx:width="0.56,0.48,0.58,0.33,0.48,0.42,0.33,0.5,0.29,0.29,0.29,0.5,0.56,0.48,0.33,0.42,0.6,0.29,0.33,0.48,0.25,0.6,0.58,0.6" style="fill:rgb(8,117,183);font-family:URWPalladioL-Roma;font-size:8.97px;stroke:none;">ventes-alliage-suite.php</text>
   <text y="356.08" x="482.379,485.305,489.699,493.6,497.502,501.711,505.436,509.162,513.371" svgx:width="0.33,0.5,0.44,0.44,0.48,0.42,0.42,0.48,0.61" style="fill:rgb(0,0,0);font-family:URWPalladioL-Roma;font-size:8.97px;stroke:none;">(accessed</text>
   <text y="368.992" x="98.05,102.946,108.1486,110.406,114.891,117.131,120.116,125.523,130.741,135.0466,137.278,141.761,146.244,150.728,155.211,158.197" svgx:width="0.55,0.58,0.55,0.5,0.55,0.33,0.6,0.58,0.48,0.55,0.5,0.5,0.5,0.5,0.33,0.25" style="fill:rgb(0,0,0);font-family:URWPalladioL-Roma;font-size:8.97px;stroke:none;">on 3 June 2019).</text>
   <text y="381.904" x="76.535,81.018,85.501,87.74350000000001,98.05,100.994,107.872,115.679,118.251,122.177,127.004,130.337,134.572,137.5321,139.77,146.719,152.05,155.638,157.797,163.702,167.937,171.862,176.778,180.703,183.276,185.849,190.994,196.0172,198.164,203.504,206.828,211.655,215.581,219.815,223.564,227.312,229.55450000000002,232.705,238.753,243.748,248.168,250.741,253.313,257.734,262.623,265.196,269.50160000000005,271.685,276.512,281.657,284.23,286.803,291.948,296.183" svgx:width="0.5,0.5,0.25,0.55,0.33,0.78,0.88,0.29,0.44,0.55,0.4,0.48,0.33,0.55,0.79,0.6,0.4,0.55,0.67,0.48,0.44,0.56,0.44,0.29,0.29,0.58,0.56,0.55,0.6,0.4,0.55,0.44,0.48,0.42,0.42,0.25,0.55,0.78,0.56,0.5,0.29,0.29,0.5,0.55,0.29,0.48,0.55,0.55,0.58,0.29,0.29,0.58,0.48,0.25" style="fill:rgb(0,0,0);font-family:URWPalladioL-Roma;font-size:8.97px;stroke:none;">51. (Umicore) Our Recycling Process. Available online:</text>
   <text y="381.904" x="301.558,306.703,309.586,312.468,317.781,321.53" svgx:width="0.58,0.33,0.33,0.6,0.42,0.25" style="fill:rgb(8,117,183);font-family:URWPalladioL-Roma;font-size:8.97px;stroke:none;">https:</text>
   <text y="381.904" x="323.739,326.276" svgx:width="0.29,0.29" style="fill:rgb(8,117,183);font-family:Rpxr;font-size:8.97px;stroke:none;">//</text>
   <text y="381.904" x="328.904,332.829,336.578,344.384,346.595,351.926,359.732,362.305,366.23,371.057,374.39,378.625,380.835,384.761,389.588" svgx:width="0.44,0.42,0.88,0.25,0.6,0.88,0.29,0.44,0.55,0.4,0.48,0.25,0.44,0.55,0.88" style="fill:rgb(8,117,183);font-family:URWPalladioL-Roma;font-size:8.97px;stroke:none;">csm.umicore.com</text>
   <text y="381.904" x="397.391" svgx:width="0.29" style="fill:rgb(8,117,183);font-family:Rpxr;font-size:8.97px;stroke:none;">/</text>
   <text y="381.904" x="400.018,404.253" svgx:width="0.48,0.58" style="fill:rgb(8,117,183);font-family:URWPalladioL-Roma;font-size:8.97px;stroke:none;">en</text>
   <text y="381.904" x="409.398" svgx:width="0.29" style="fill:rgb(8,117,183);font-family:Rpxr;font-size:8.97px;stroke:none;">/</text>
   <text y="381.904" x="412.025,415.358,419.593,423.518,428.434,432.359,434.932,437.504,442.65" svgx:width="0.4,0.48,0.44,0.56,0.44,0.29,0.29,0.58,0.56" style="fill:rgb(8,117,183);font-family:URWPalladioL-Roma;font-size:8.97px;stroke:none;">recycling</text>
   <text y="381.904" x="447.562" svgx:width="0.29" style="fill:rgb(8,117,183);font-family:Rpxr;font-size:8.97px;stroke:none;">/</text>
   <text y="381.904" x="450.189,455.078,459.498,462.381,465.263,469.497,472.99,477.905,481.344,484.677,488.912,492.837,497.753,501.678,504.251,506.824,511.969" svgx:width="0.55,0.5,0.33,0.33,0.48,0.4,0.56,0.33,0.4,0.48,0.44,0.56,0.44,0.29,0.29,0.58,0.56" style="fill:rgb(8,117,183);font-family:URWPalladioL-Roma;font-size:8.97px;stroke:none;">battery-recycling</text>
   <text y="381.904" x="516.884" svgx:width="0.29" style="fill:rgb(8,117,183);font-family:Rpxr;font-size:8.97px;stroke:none;">/</text>
   <text y="394.815" x="98.05,102.946,108.352,111.733,115.221,118.601,122.896,126.877,131.862,135.843,138.453,141.062,146.28,151.266,154.745,160.133,163.514,168.409,172.39,176.685,180.487" svgx:width="0.55,0.6,0.4,0.33,0.4,0.48,0.44,0.56,0.44,0.29,0.29,0.58,0.56,0.33,0.6,0.4,0.55,0.44,0.48,0.42,0.42" style="fill:rgb(8,117,183);font-family:URWPalladioL-Roma;font-size:8.97px;stroke:none;">our-recycling-process</text>
   <text y="394.815" x="184.289" svgx:width="0.29" style="fill:rgb(8,117,183);font-family:Rpxr;font-size:8.97px;stroke:none;">/</text>
   <text y="394.815" x="189.194,192.18,196.663,200.644,204.625,208.92,212.722,216.524,220.818,226.2897,228.539,233.434,238.6366,240.894,245.37900000000002,247.619,250.605,256.012,261.23,265.53560000000004,267.767,272.25,276.733,281.216,285.699,288.685" svgx:width="0.33,0.5,0.44,0.44,0.48,0.42,0.42,0.48,0.61,0.55,0.55,0.58,0.55,0.5,0.55,0.33,0.6,0.58,0.48,0.55,0.5,0.5,0.5,0.5,0.33,0.25" style="fill:rgb(0,0,0);font-family:URWPalladioL-Roma;font-size:8.97px;stroke:none;">(accessed on 3 June 2019).</text>
   <text y="407.727" x="76.535,81.018,85.501,87.74350000000001,98.05,104.049,109.283,113.779,119.013,124.014,126.2565,128.51,134.509,136.757,138.9995,141.245,146.74,149.357,151.5995,153.853,159.348,161.597,163.83950000000002,166.093,171.094,175.59,180.824,183.06650000000002,185.312,190.807,193.055,195.2975,197.552,203.55,208.973,213.281,215.5235,217.769,224.837,227.086,229.32850000000002,231.582,237.077,239.694,244.191,249.425,251.66750000000002,253.922,258.922,261.17,263.4125,265.667,274.211,279.634,281.8765,284.121,288.303,290.551,292.7935,295.039,301.415,306.649,310.957,316.191,318.4335,320.688,326.696,328.93850000000003,331.183,335.878,340.788,348.288,352.785,356.176,361.6477,363.91,367.723,373.146,376.959,379.891,384.388,387.005,392.239,396.735,401.709,404.326,408.63160000000005,410.882,415.378,420.613,426.0847,428.347,432.16,437.16,440.973,443.905,448.213,456.154,460.651,463.583,466.2,470.1468,472.441,475.831,480.139,484.132,489.133,493.126,495.743,498.36,503.594,508.61719999999997,510.833,515.744" svgx:width="0.5,0.5,0.25,0.55,0.67,0.58,0.5,0.58,0.56,0.25,0.55,0.67,0.25,0.25,0.55,0.61,0.29,0.25,0.55,0.61,0.25,0.25,0.55,0.56,0.5,0.58,0.25,0.55,0.61,0.25,0.25,0.55,0.67,0.6,0.48,0.25,0.55,0.79,0.25,0.25,0.55,0.61,0.29,0.5,0.58,0.25,0.55,0.67,0.25,0.25,0.55,1.0,0.6,0.25,0.55,0.56,0.25,0.25,0.55,0.71,0.58,0.48,0.58,0.25,0.55,0.67,0.25,0.55,0.61,0.55,0.83,0.5,0.4,0.61,0.55,0.42,0.6,0.42,0.33,0.5,0.29,0.58,0.5,0.55,0.29,0.48,0.55,0.5,0.58,0.61,0.55,0.42,0.56,0.42,0.33,0.48,0.88,0.5,0.33,0.29,0.44,0.55,0.4,0.48,0.44,0.56,0.44,0.29,0.29,0.58,0.56,0.55,0.55,0.33" style="fill:rgb(0,0,0);font-family:URWPalladioL-Roma;font-size:8.97px;stroke:none;">52. Zhang, X.; Li, L.; Fan, E.; Xue, Q.; Bian, Y.; Wu, F.; Chen, R. Toward sustainable and systematic recycling of</text>
   <text y="420.638" x="98.05,101.852,107.241,111.535,116.754,119.7141,121.919,125.299,129.594,133.575,138.793,143.277,146.657,151.642,155.937,160.42,165.379,167.988,172.2936,174.524,179.483,183.966,186.889,189.812,194.107,197.649,200.258,204.553,208.355" svgx:width="0.42,0.6,0.48,0.58,0.33,0.55,0.4,0.48,0.44,0.58,0.5,0.4,0.56,0.48,0.5,0.55,0.29,0.48,0.55,0.55,0.5,0.33,0.33,0.48,0.4,0.29,0.48,0.42,0.25" style="fill:rgb(0,0,0);font-family:URWPalladioL-Roma;font-size:8.97px;stroke:none;">spent rechargeable batteries.</text>
   <text y="420.638" x="213.733,219.714,224.197,227.685,234.661,236.9035,240.04,245.026,249.007,252.656,254.8985,258.036,264.017,267.505,271.495" svgx:width="0.67,0.5,0.39,0.78,0.25,0.55,0.56,0.44,0.41,0.25,0.55,0.67,0.39,0.5,0.25" style="fill:rgb(0,0,0);font-family:URWPalladioL-Ital;font-size:8.97px;stroke:none;">Chem. Soc. Rev.</text>
   <text y="420.638" x="276.874,281.357,285.84,290.324" svgx:width="0.5,0.5,0.5,0.5" style="fill:rgb(0,0,0);font-family:URWPalladioL-Bold;font-size:8.97px;stroke:none;">2018</text>
   <text y="420.638" x="294.807" svgx:width="0.25" style="fill:rgb(0,0,0);font-family:URWPalladioL-Roma;font-size:8.97px;stroke:none;">,</text>
   <text y="420.638" x="299.29,303.773" svgx:width="0.5,0.5" style="fill:rgb(0,0,0);font-family:URWPalladioL-Ital;font-size:8.97px;stroke:none;">47</text>
   <text y="420.638" x="308.256,310.4985,312.739,317.222,321.706,326.189,330.672,335.155,339.638,344.122,348.605,353.088,355.33050000000003,358.468" svgx:width="0.25,0.55,0.5,0.5,0.5,0.5,0.5,0.5,0.5,0.5,0.5,0.25,0.55,0.33" style="fill:rgb(0,0,0);font-family:URWPalladioL-Roma;font-size:8.97px;stroke:none;">, 7239–7302. [</text>
   <text y="420.638" x="361.454,367.811,371.191,376.087,379.889,383.69,389.68,393.975" svgx:width="0.71,0.4,0.55,0.42,0.42,0.67,0.48,0.33" style="fill:rgb(8,117,183);font-family:URWPalladioL-Roma;font-size:8.97px;stroke:none;">CrossRef</text>
   <text y="420.638" x="396.961" svgx:width="0.33" style="fill:rgb(0,0,0);font-family:URWPalladioL-Roma;font-size:8.97px;stroke:none;">]</text>
   <text y="433.55" x="76.535,81.018,85.501,87.74350000000001,98.05,106.498,110.964,115.929,120.894,125.36,129.146,131.3885,133.62,140.568,142.801,145.0435,147.284,151.973,154.884,159.162,166.61,171.075,174.442,179.898,182.1405,184.373,191.285,193.517,195.7595,198.001,206.449,210.914,216.112,221.309,223.5515,225.783,234.232,236.4745,238.715,244.189,249.387,253.6926,255.906,259.871,264.337,268.123,272.4286,274.651,277.625,282.501,286.089,288.27,291.637,295.915,299.88,304.845,308.811,311.409,314.008,319.206,324.171,326.4135,329.547,336.567,341.612,345.89,349.418,354.464,357.062,361.34,368.7851,371.03,375.495,380.693,386.1647,388.4,392.365,397.562,402.028,404.626,407.225,411.503,416.7,421.666,425.944,429.7114,431.972,434.57,439.7726,442.01,444.921,450.119,454.42460000000005,456.647,464.532,468.998,471.909,476.187,479.714,482.313,486.778,489.3793,491.619,495.405,500.79,506.158,511.525,514.124" svgx:width="0.5,0.5,0.25,0.55,0.95,0.5,0.56,0.56,0.5,0.42,0.25,0.55,0.78,0.25,0.25,0.55,0.52,0.33,0.48,0.83,0.5,0.4,0.61,0.25,0.55,0.77,0.25,0.25,0.55,0.95,0.5,0.58,0.58,0.25,0.55,0.95,0.25,0.55,0.61,0.58,0.48,0.55,0.44,0.5,0.42,0.48,0.55,0.33,0.55,0.4,0.55,0.4,0.48,0.44,0.56,0.44,0.29,0.29,0.58,0.56,0.25,0.55,0.79,0.56,0.48,0.4,0.56,0.29,0.48,0.83,0.55,0.5,0.58,0.61,0.55,0.44,0.58,0.5,0.29,0.29,0.48,0.58,0.56,0.48,0.42,0.55,0.29,0.58,0.55,0.33,0.58,0.48,0.55,0.88,0.5,0.33,0.48,0.4,0.29,0.5,0.29,0.55,0.42,0.6,0.6,0.6,0.29,0.56" style="fill:rgb(0,0,0);font-family:URWPalladioL-Roma;font-size:8.97px;stroke:none;">53. Mayyas, A.; Steward, D.; Mann, M. The case for recycling: Overview and challenges in the material supply</text>
   <text y="446.462" x="98.05,102.031,107.25,111.733,114.342,119.5446,121.802,124.788,129.683,133.271,135.467,139.95,145.357,148.28,153.175,161.093,165.988,168.911,171.521,176.587,180.8926,183.123,185.732,188.342,191.327,193.937,198.832,204.03459999999998,206.292,211.251,215.734,218.657,221.58,225.875,229.417,232.026,236.321,240.123" svgx:width="0.44,0.58,0.5,0.29,0.58,0.55,0.33,0.55,0.4,0.55,0.5,0.6,0.33,0.55,0.88,0.55,0.33,0.29,0.56,0.48,0.55,0.29,0.29,0.33,0.29,0.55,0.58,0.55,0.55,0.5,0.33,0.33,0.48,0.4,0.29,0.48,0.42,0.25" style="fill:rgb(0,0,0);font-family:URWPalladioL-Roma;font-size:8.97px;stroke:none;">chain for automotive li-ion batteries.</text>
   <text y="446.462" x="245.5,250.485,255.471,258.959,261.944,265.925,268.418,273.403,275.6455,278.783,287.248,291.229,294.214,297.702,300.527,302.7695,305.907,310.39,313.878,317.527,322.01,326.996,330.977,333.469" svgx:width="0.56,0.56,0.39,0.33,0.44,0.28,0.56,0.25,0.55,0.94,0.44,0.33,0.39,0.39,0.25,0.55,0.61,0.39,0.41,0.5,0.56,0.44,0.28,0.25" style="fill:rgb(0,0,0);font-family:URWPalladioL-Ital;font-size:8.97px;stroke:none;">Sustain. Mater. Technol.</text>
   <text y="446.462" x="338.848,343.331,347.814,352.298" svgx:width="0.5,0.5,0.5,0.5" style="fill:rgb(0,0,0);font-family:URWPalladioL-Bold;font-size:8.97px;stroke:none;">2019</text>
   <text y="446.462" x="356.781" svgx:width="0.25" style="fill:rgb(0,0,0);font-family:URWPalladioL-Roma;font-size:8.97px;stroke:none;">,</text>
   <text y="446.462" x="361.264,365.747" svgx:width="0.5,0.5" style="fill:rgb(0,0,0);font-family:URWPalladioL-Ital;font-size:8.97px;stroke:none;">19</text>
   <text y="446.462" x="370.23,372.4725,374.713,379.008,383.491,387.975,392.458,396.941,401.424,403.6665,406.804" svgx:width="0.25,0.55,0.48,0.5,0.5,0.5,0.5,0.5,0.25,0.55,0.33" style="fill:rgb(0,0,0);font-family:URWPalladioL-Roma;font-size:8.97px;stroke:none;">, e00087. [</text>
   <text y="446.462" x="409.79,416.147,419.527,424.423,428.225,432.027,438.016,442.311" svgx:width="0.71,0.4,0.55,0.42,0.42,0.67,0.48,0.33" style="fill:rgb(8,117,183);font-family:URWPalladioL-Roma;font-size:8.97px;stroke:none;">CrossRef</text>
   <text y="446.462" x="445.297" svgx:width="0.33" style="fill:rgb(0,0,0);font-family:URWPalladioL-Roma;font-size:8.97px;stroke:none;">]</text>
   <text y="459.373" x="76.535,81.018,85.501,87.74350000000001,98.05,103.498,106.123,108.748,111.373,116.298,119.238,121.4805,123.74,130.135,132.3775,134.636,140.165,145.415,149.7206,151.973,157.998,162.319,166.324,171.574,176.084,179.493,184.509,188.829,193.339,198.319,200.943,205.2486,207.51,213.021,217.532,220.472,223.413,227.733,231.296,236.3192,238.558,247.091,251.601,255.164,260.179,264.5,267.4601,269.686,274.196,279.446,284.9177,287.204,295.737,300.247,302.872,308.07460000000003,310.367,315.085,318.486,322.806,328.056,333.567,337.3344,339.638,344.148,348.658,353.168,357.678,362.189,366.699,371.209,375.719,380.229,382.4715,385.632,388.672,393.87460000000004,396.168,401.616,405.016,409.941,413.946,418.267,422.588,428.099,430.724,435.974,440.989,444.7564,447.06,451.985,454.9451,457.225,460.166,465.416,469.7216,471.982,476.493,481.003,486.252,491.7237,494.01,497.05,503.445,508.956,514.9659,517.228" svgx:width="0.5,0.5,0.25,0.55,0.6,0.29,0.29,0.29,0.55,0.33,0.25,0.55,0.71,0.25,0.55,0.61,0.58,0.48,0.55,0.67,0.48,0.44,0.58,0.5,0.4,0.56,0.48,0.5,0.55,0.29,0.48,0.55,0.61,0.5,0.33,0.33,0.48,0.4,0.56,0.55,0.95,0.5,0.4,0.56,0.48,0.33,0.55,0.5,0.58,0.61,0.55,0.95,0.5,0.29,0.58,0.55,0.61,0.4,0.48,0.58,0.61,0.42,0.55,0.5,0.5,0.5,0.5,0.5,0.5,0.5,0.5,0.5,0.25,0.55,0.34,0.58,0.55,0.6,0.4,0.55,0.44,0.48,0.48,0.61,0.29,0.58,0.56,0.42,0.55,0.55,0.33,0.55,0.33,0.58,0.48,0.55,0.5,0.5,0.58,0.61,0.55,0.34,0.71,0.61,0.67,0.55,0.33" style="fill:rgb(0,0,0);font-family:URWPalladioL-Roma;font-size:8.97px;stroke:none;">54. Pillot, C. The Rechargeable Battery Market and Main Trends 2014–2025. In Proceedings of the 22nd ICBR -</text>
   <text y="472.285" x="98.05,101.072,106.29,109.213,113.508,117.05,122.268,126.751,129.674,132.284,137.179,142.398,146.881,149.4823,151.732,158.089,162.985,168.203,173.188,176.569,180.864,184.665,188.4324,190.709,195.604,200.8066,203.065,208.543,213.026,215.949,218.872,223.167,226.709,231.7322,233.936,239.925,244.22,248.201,253.187,257.168,259.777,262.386,267.605,272.59,274.8325,277.073,282.552,285.161,288.963,293.921,298.817,304.035,306.27750000000003,308.518,313.934,318.83,322.372,325.295,330.701,335.687,340.17,342.779,345.0215,347.262,351.745,356.229,360.712,365.195,369.68,371.92,376.627,380.922,386.311,389.234,393.529,401.446,406.405,410.699,414.28700000000003,416.483,420.966,425.449,429.932,434.416,436.6585,438.899,443.382,447.865,452.349,456.832" svgx:width="0.34,0.58,0.33,0.48,0.4,0.58,0.5,0.33,0.29,0.55,0.58,0.5,0.29,0.55,0.71,0.55,0.58,0.56,0.4,0.48,0.42,0.42,0.55,0.55,0.58,0.55,0.61,0.5,0.33,0.33,0.48,0.4,0.56,0.55,0.67,0.48,0.44,0.56,0.44,0.29,0.29,0.58,0.56,0.25,0.55,0.61,0.29,0.42,0.55,0.55,0.58,0.25,0.55,0.6,0.55,0.4,0.33,0.6,0.56,0.5,0.29,0.25,0.55,0.5,0.5,0.5,0.5,0.5,0.55,0.52,0.48,0.6,0.33,0.48,0.88,0.55,0.48,0.4,0.55,0.5,0.5,0.5,0.5,0.25,0.55,0.5,0.5,0.5,0.5,0.25" style="fill:rgb(0,0,0);font-family:URWPalladioL-Roma;font-size:8.97px;stroke:none;">International Congress on Battery Recycling, Lisbon, Portugal, 20–22 September 2017; 2017.</text>
   <text y="485.196" x="76.535,81.018,85.501,87.74350000000001,98.05,105.361,110.159,115.457,120.826,125.035,127.2775,129.13,133.743" svgx:width="0.5,0.5,0.25,0.55,0.83,0.55,0.6,0.61,0.48,0.25,0.55,0.52,0.25" style="fill:rgb(0,0,0);font-family:URWPalladioL-Roma;font-size:8.97px;stroke:none;">55. Houde, S.</text>
   <text y="485.196" x="137.84,142.726,145.168,147.611" svgx:width="0.56,0.28,0.28,0.28" style="fill:rgb(0,0,0);font-family:URWPalladioL-Ital;font-size:8.97px;stroke:none;">Fili</text>
   <text y="485.196" x="150.054" svgx:width="0.39" style="fill:rgb(0,0,0);font-family:VnURWPalladioL-Italic;font-size:8.97px;stroke:none;">è</text>
   <text y="485.196" x="153.542,156.802,160.3003,162.118,166.512,169.93,173.4283,175.246,179.314,183.216,186.142,189.068,192.486,195.904,198.347,201.765,205.2633,207.082,209.524,211.967,214.893,219.287,221.73,226.615,233.452,236.378,238.821,242.722,247.608,249.8505,252.766" svgx:width="0.39,0.39,0.55,0.5,0.39,0.39,0.55,0.46,0.44,0.33,0.33,0.39,0.39,0.28,0.39,0.39,0.55,0.28,0.28,0.33,0.5,0.28,0.56,0.78,0.33,0.28,0.44,0.56,0.25,0.55,0.78" style="fill:rgb(0,0,0);font-family:URWPalladioL-Ital;font-size:8.97px;stroke:none;">re des batteries lithium-ion: D</text>
   <text y="485.196" x="259.606" svgx:width="0.39" style="fill:rgb(0,0,0);font-family:VnURWPalladioL-Italic;font-size:8.97px;stroke:none;">é</text>
   <text y="485.196" x="263.094,267.488,270.906,273.349,277.25,281.643,286.037,289.455,292.9533,294.771,299.657,304.68019999999996,306.441,309.859,313.277,316.853,319.779,323.198,328.083,331.58130000000006,333.399,337.793,341.694,345.113,348.039,351.457,356.342,359.84029999999996,361.659,366.052,368.495,372.396,376.79,380.208,385.094,387.537,391.0353,392.853,397.246,401.148,406.033,409.5313,411.35,413.792" svgx:width="0.5,0.39,0.28,0.44,0.5,0.5,0.39,0.39,0.55,0.56,0.56,0.55,0.39,0.39,0.41,0.33,0.39,0.56,0.39,0.55,0.5,0.44,0.39,0.33,0.39,0.56,0.39,0.55,0.5,0.28,0.44,0.5,0.39,0.56,0.28,0.39,0.55,0.5,0.44,0.56,0.39,0.55,0.28,0.28" style="fill:rgb(0,0,0);font-family:URWPalladioL-Ital;font-size:8.97px;stroke:none;">velopper un secteur porteur d’avenir pour l’</text>
   <text y="485.196" x="416.239" svgx:width="0.39" style="fill:rgb(0,0,0);font-family:VnURWPalladioL-Italic;font-size:8.97px;stroke:none;">é</text>
   <text y="485.196" x="419.726,423.302,427.204,432.089,435.991,442.827,445.27,448.76829999999995,450.586,454.98,460.0032,461.763,468.6" svgx:width="0.41,0.44,0.56,0.44,0.78,0.28,0.39,0.55,0.5,0.56,0.55,0.78,0.56" style="fill:rgb(0,0,0);font-family:URWPalladioL-Ital;font-size:8.97px;stroke:none;">conomie du Qu</text>
   <text y="485.196" x="473.487" svgx:width="0.39" style="fill:rgb(0,0,0);font-family:VnURWPalladioL-Italic;font-size:8.97px;stroke:none;">é</text>
   <text y="485.196" x="476.975,481.043,484.462" svgx:width="0.46,0.39,0.41" style="fill:rgb(0,0,0);font-family:URWPalladioL-Ital;font-size:8.97px;stroke:none;">bec</text>
   <text y="485.196" x="488.038,490.2805,492.247,498.117,502.326,507.607,512.405,515.875" svgx:width="0.25,0.55,0.67,0.48,0.6,0.55,0.4,0.33" style="fill:rgb(0,0,0);font-family:URWPalladioL-Roma;font-size:8.97px;stroke:none;">; Report</text>
   <text y="498.108" x="98.05,102.946,105.9061,108.173,113.589,116.969,121.865,127.254,132.66,135.27,139.071,141.681,146.576,151.77859999999998,154.036,161.084" svgx:width="0.55,0.33,0.55,0.6,0.4,0.55,0.6,0.6,0.29,0.42,0.29,0.55,0.58,0.55,0.79,0.6" style="fill:rgb(0,0,0);font-family:URWPalladioL-Roma;font-size:8.97px;stroke:none;">of Propulsion Qu</text>
   <text y="498.108" x="166.49" svgx:width="0.48" style="fill:rgb(0,0,0);font-family:VnURWPalladioL;font-size:8.97px;stroke:none;">é</text>
   <text y="498.108" x="170.785,175.743,180.038,184.019,186.2615,188.503,193.918,197.299,202.194,207.583,212.99,215.599,219.401,222.01,226.906,232.1086,234.366,241.413" svgx:width="0.55,0.48,0.44,0.25,0.55,0.6,0.4,0.55,0.6,0.6,0.29,0.42,0.29,0.55,0.58,0.55,0.79,0.6" style="fill:rgb(0,0,0);font-family:URWPalladioL-Roma;font-size:8.97px;stroke:none;">bec; Propulsion Qu</text>
   <text y="498.108" x="246.819" svgx:width="0.48" style="fill:rgb(0,0,0);font-family:VnURWPalladioL;font-size:8.97px;stroke:none;">é</text>
   <text y="498.108" x="251.114,256.072,260.367,264.348,266.5905,269.728,278.21,283.106,288.325,291.248,294.628,298.923,303.406,306.015,308.2575,310.498,317.546,323.903,326.1455,328.386,334.744,339.227,344.445,348.928,354.407,358.89,361.1325,363.373,367.857,372.34,376.823,381.306" svgx:width="0.55,0.48,0.44,0.25,0.55,0.95,0.55,0.58,0.33,0.4,0.48,0.5,0.29,0.25,0.55,0.79,0.71,0.25,0.55,0.71,0.5,0.58,0.5,0.61,0.5,0.25,0.55,0.5,0.5,0.5,0.5,0.25" style="fill:rgb(0,0,0);font-family:URWPalladioL-Roma;font-size:8.97px;stroke:none;">bec: Montreal, QC, Canada, 2019.</text>
   <text y="511.02" x="76.535,81.018,85.501,87.74350000000001,98.05,102.768,107.097,112.619,114.734,119.253,122.155,124.39750000000001,126.665,130.867,133.127,135.36950000000002,137.637,142.662,147.597,153.047,158.569,162.139,166.658,171.178,173.4205,175.679,178.688,180.948,183.957,190.366,192.60850000000002,194.876,200.335,203.742,208.677,212.69,217.019,222.541,226.8466,229.121,234.643,238.9486,241.214,247.252,251.581,255.594,260.619,264.632,267.262,271.781,276.806,281.1116,283.386,287.715,292.9176,295.217,303.767,308.096,310.726,315.245,320.506,325.531,329.83660000000003,332.111,337.633,341.9386,344.213,349.672,352.302,354.932,359.261,363.02840000000003,365.335,369.664,372.6241,374.861,380.383,384.902,387.849,390.795,395.124,398.694,401.325,405.654,409.4214,411.727,416.212,418.497,424.019,428.538,432.37,436.67560000000003,438.95,444.473,446.985,451.504,456.764,461.699,467.222,471.5276,473.792,478.121,483.3236,485.632,491.154,493.785,496.731,501.991,504.621,510.071,518.052" svgx:width="0.5,0.5,0.25,0.55,0.61,0.48,0.61,0.23,0.5,0.4,0.25,0.55,0.56,0.25,0.25,0.55,0.56,0.55,0.6,0.61,0.4,0.5,0.5,0.25,0.55,0.33,0.25,0.33,0.71,0.25,0.55,0.6,0.4,0.55,0.44,0.48,0.61,0.48,0.55,0.61,0.48,0.55,0.67,0.48,0.44,0.56,0.44,0.29,0.5,0.56,0.48,0.55,0.48,0.58,0.55,0.95,0.48,0.29,0.5,0.58,0.56,0.48,0.55,0.61,0.48,0.55,0.6,0.29,0.29,0.48,0.42,0.55,0.48,0.33,0.55,0.61,0.5,0.33,0.33,0.48,0.4,0.29,0.48,0.42,0.55,0.5,0.55,0.61,0.5,0.42,0.48,0.55,0.61,0.28,0.5,0.58,0.55,0.61,0.48,0.55,0.48,0.58,0.55,0.61,0.29,0.33,0.58,0.29,0.6,0.88,0.25" style="fill:rgb(0,0,0);font-family:URWPalladioL-Roma;font-size:8.97px;stroke:none;">56. Tedjar, F.; Foudraz, J.-C. Procede de Recyclage en Melange de Piles et Batteries a Base d’anode en Lithium.</text>
   <text y="523.931" x="98.05,103.035,106.416,110.711,115.929,119.91,125.1126,127.37,132.786,137.269,140.192,144.487,149.705,152.66510000000002,154.87,159.353,163.836,168.32,172.803,177.286,181.769,186.25400000000002,188.494,195.47,199.953,202.1955,204.436,208.92,213.403,217.886,222.369" svgx:width="0.56,0.4,0.48,0.58,0.44,0.58,0.55,0.6,0.5,0.33,0.48,0.58,0.33,0.55,0.5,0.5,0.5,0.5,0.5,0.5,0.5,0.55,0.78,0.5,0.25,0.55,0.5,0.5,0.5,0.5,0.25" style="fill:rgb(0,0,0);font-family:URWPalladioL-Roma;font-size:8.97px;stroke:none;">French Patent 2868603 A1, 2004.</text>
   <text y="536.843" x="76.535,81.018,85.501,87.74350000000001,98.05,104.064,108.376,112.373,117.378,121.375,123.995,126.614,131.854,136.87720000000002,139.1,144.016,146.9761,149.255,154.692,158.248,160.868,168.817,173.318,176.874,181.8972,184.13,188.631,193.87,199.3417,201.612,206.338,210.65,214.647,219.563,224.802,230.302,234.803,238.359,243.3822,245.606,251.107,253.726,256.661,261.9,264.52,269.948,280.139,285.639,290.14,293.075,296.01,300.322,303.878,306.498,310.81,314.5774,316.868,319.866,325.375,332.379,337.879,340.913,346.414,352.751,358.27,361.267,363.5095,365.759,371.944,377.03,381.531,384.151,386.771,391.272,396.25,398.87,403.17560000000003,405.423,410.339,415.578,418.198,420.817,426.057,430.369" svgx:width="0.5,0.5,0.25,0.55,0.67,0.48,0.44,0.56,0.44,0.29,0.29,0.58,0.56,0.55,0.55,0.33,0.55,0.6,0.4,0.29,0.88,0.5,0.4,0.56,0.55,0.5,0.58,0.61,0.55,0.52,0.48,0.44,0.55,0.58,0.61,0.5,0.4,0.56,0.55,0.61,0.29,0.33,0.58,0.29,0.6,0.88,0.61,0.5,0.33,0.33,0.48,0.4,0.29,0.48,0.42,0.55,0.33,0.72,0.78,0.61,0.34,0.61,0.78,0.61,0.33,0.25,0.55,0.78,0.56,0.5,0.29,0.29,0.5,0.55,0.29,0.48,0.55,0.55,0.58,0.29,0.29,0.58,0.48,0.25" style="fill:rgb(0,0,0);font-family:URWPalladioL-Roma;font-size:8.97px;stroke:none;">57. Recycling of Primary and Secondary LithiumBatteries (VALIBAT). Available online:</text>
   <text y="536.843" x="435.761,441.0,443.935,446.87,452.28,456.097" svgx:width="0.58,0.33,0.33,0.6,0.42,0.25" style="fill:rgb(8,117,183);font-family:URWPalladioL-Roma;font-size:8.97px;stroke:none;">https:</text>
   <text y="536.843" x="458.347,460.931" svgx:width="0.29,0.29" style="fill:rgb(8,117,183);font-family:Rpxr;font-size:8.97px;stroke:none;">//</text>
   <text y="536.843" x="463.603,467.6,472.515,475.909,481.409,484.029,487.846,490.097,494.409,499.837,503.231,508.146,513.557,518.058" svgx:width="0.44,0.55,0.4,0.61,0.29,0.42,0.25,0.48,0.6,0.4,0.55,0.6,0.5,0.25" style="fill:rgb(8,117,183);font-family:URWPalladioL-Roma;font-size:8.97px;stroke:none;">cordis.europa.</text>
   <text y="549.754" x="98.05,102.345" svgx:width="0.48,0.6" style="fill:rgb(8,117,183);font-family:URWPalladioL-Roma;font-size:8.97px;stroke:none;">eu</text>
   <text y="549.754" x="107.752" svgx:width="0.29" style="fill:rgb(8,117,183);font-family:Rpxr;font-size:8.97px;stroke:none;">/</text>
   <text y="549.754" x="110.415,115.804,119.184,124.08,126.178,130.473,134.454" svgx:width="0.6,0.4,0.55,0.23,0.48,0.44,0.33" style="fill:rgb(8,117,183);font-family:URWPalladioL-Roma;font-size:8.97px;stroke:none;">project</text>
   <text y="549.754" x="137.376" svgx:width="0.29" style="fill:rgb(8,117,183);font-family:Rpxr;font-size:8.97px;stroke:none;">/</text>
   <text y="549.754" x="140.039,143.419,147.4" svgx:width="0.4,0.44,0.58" style="fill:rgb(8,117,183);font-family:URWPalladioL-Roma;font-size:8.97px;stroke:none;">rcn</text>
   <text y="549.754" x="152.619" svgx:width="0.29" style="fill:rgb(8,117,183);font-family:Rpxr;font-size:8.97px;stroke:none;">/</text>
   <text y="549.754" x="155.282,159.765,164.248,168.732,173.215" svgx:width="0.5,0.5,0.5,0.5,0.5" style="fill:rgb(8,117,183);font-family:URWPalladioL-Roma;font-size:8.97px;stroke:none;">51959</text>
   <text y="549.754" x="177.698" svgx:width="0.29" style="fill:rgb(8,117,183);font-family:Rpxr;font-size:8.97px;stroke:none;">/</text>
   <text y="549.754" x="180.361,183.347,187.83,191.811,194.734,198.536,203.754,208.049,212.344" svgx:width="0.33,0.5,0.44,0.33,0.42,0.58,0.48,0.48,0.33" style="fill:rgb(8,117,183);font-family:URWPalladioL-Roma;font-size:8.97px;stroke:none;">factsheet</text>
   <text y="549.754" x="215.267" svgx:width="0.29" style="fill:rgb(8,117,183);font-family:Rpxr;font-size:8.97px;stroke:none;">/</text>
   <text y="549.754" x="217.93,222.225" svgx:width="0.48,0.58" style="fill:rgb(8,117,183);font-family:URWPalladioL-Roma;font-size:8.97px;stroke:none;">en</text>
   <text y="549.754" x="229.685,232.671,237.154,241.135,245.116,249.411,253.213,257.015,261.309,266.7807,269.03,273.925,279.12760000000003,281.385,285.868,290.353,292.593,299.569,304.976,309.961,315.368,319.17,322.1301,324.334,328.818,333.301,337.784,342.267,345.253" svgx:width="0.33,0.5,0.44,0.44,0.48,0.42,0.42,0.48,0.61,0.55,0.55,0.58,0.55,0.5,0.5,0.55,0.78,0.6,0.56,0.6,0.42,0.33,0.55,0.5,0.5,0.5,0.5,0.33,0.25" style="fill:rgb(0,0,0);font-family:URWPalladioL-Roma;font-size:8.97px;stroke:none;">(accessed on 12 August 2019).</text>
   <text y="562.666" x="76.535,81.018,85.501,87.74350000000001,98.054,102.762,105.371,110.267,115.162,120.551,122.79350000000001,125.034,129.742,131.983,137.462,139.7045,141.945,147.934,152.229,154.839,160.048,162.971,166.351,171.247,176.726,182.132,186.113,189.036,191.646,196.541,201.7436,204.001,208.897,211.8571,214.124,219.603,222.212,225.135,230.354,232.963,238.37,248.529,251.55,256.769,259.692,264.6255,266.829,272.819,277.113,281.095,286.08,290.061,292.67,296.965,302.4367,304.685,310.164,314.647,317.57,320.493,324.788,328.329,333.3522,335.556,344.039,348.522,351.445,355.74,359.281,361.891,366.374,368.983,372.785,375.02750000000003,378.165,385.141,387.382,392.09,394.3325,396.573,401.988,406.472,409.395,413.69,418.908,421.8681,424.073,428.556,433.039,437.522,442.005,446.489,450.972,455.457,457.697,463.175,467.658,469.9005,472.142,476.625,481.108,485.591,490.075" svgx:width="0.5,0.5,0.25,0.55,0.52,0.29,0.55,0.55,0.6,0.25,0.55,0.52,0.25,0.61,0.25,0.55,0.67,0.48,0.29,0.58,0.33,0.4,0.55,0.61,0.6,0.44,0.33,0.29,0.55,0.58,0.55,0.55,0.33,0.55,0.61,0.29,0.33,0.58,0.29,0.6,0.88,0.34,0.58,0.33,0.55,0.55,0.67,0.48,0.44,0.56,0.44,0.29,0.48,0.61,0.55,0.61,0.5,0.33,0.33,0.48,0.4,0.56,0.55,0.95,0.5,0.33,0.48,0.4,0.29,0.5,0.29,0.42,0.25,0.55,0.78,0.25,0.52,0.25,0.55,0.6,0.5,0.33,0.48,0.58,0.33,0.55,0.5,0.5,0.5,0.5,0.5,0.5,0.5,0.55,0.61,0.5,0.25,0.55,0.5,0.5,0.5,0.5,0.25" style="fill:rgb(0,0,0);font-family:URWPalladioL-Roma;font-size:8.97px;stroke:none;">58. Sloop, S.E. Reintroduction of LithiumInto Recycled Battery Materials. U.S. Patent 9287552 B2, 2016.</text>
   <text y="575.578" x="76.535,81.018,85.501,87.74350000000001,98.05,102.696,105.271,110.103,114.935,120.254,122.49650000000001,124.715,129.361,131.573,136.98,139.2225,141.441,147.352,151.592,154.167,159.317,162.202,165.539,170.371,175.778,181.115,185.044,187.929,190.504,195.336,200.5386,202.735,207.567,210.52710000000002,212.762,218.169,220.744,223.629,228.78,231.355,236.692,246.754,249.736,254.887,257.772,262.7055,264.852,270.763,275.003,278.932,283.852,287.782,290.357,294.596,300.0677,302.251,307.658,312.083,314.968,317.853,322.092,325.588,330.6112,332.757,341.129,345.553,348.438,352.678,356.173,358.749,363.173,365.749,369.501,371.7435,374.873,381.758,383.971,388.617,390.8595,393.077,398.422,402.847,405.732,409.971,415.122,418.0821,420.255,427.14,432.459,437.778,440.353,442.928,446.858,451.283,454.168,456.743,461.575,466.7776,468.973,473.398,477.823,482.248,486.673,491.098,495.523,499.948,504.373,508.798,513.223,517.648" svgx:width="0.5,0.5,0.25,0.55,0.52,0.29,0.55,0.55,0.6,0.25,0.55,0.52,0.25,0.61,0.25,0.55,0.67,0.48,0.29,0.58,0.33,0.4,0.55,0.61,0.6,0.44,0.33,0.29,0.55,0.58,0.55,0.55,0.33,0.55,0.61,0.29,0.33,0.58,0.29,0.6,0.88,0.34,0.58,0.33,0.55,0.55,0.67,0.48,0.44,0.56,0.44,0.29,0.48,0.61,0.55,0.61,0.5,0.33,0.33,0.48,0.4,0.56,0.55,0.95,0.5,0.33,0.48,0.4,0.29,0.5,0.29,0.42,0.25,0.55,0.78,0.25,0.52,0.25,0.55,0.6,0.5,0.33,0.48,0.58,0.33,0.55,0.78,0.6,0.6,0.29,0.29,0.44,0.5,0.33,0.29,0.55,0.58,0.55,0.5,0.5,0.5,0.5,0.5,0.5,0.5,0.5,0.5,0.5,0.5,0.25" style="fill:rgb(0,0,0);font-family:URWPalladioL-Roma;font-size:8.97px;stroke:none;">59. Sloop, S.E. Reintroduction of LithiumInto Recycled Battery Materials. U.S. Patent Application 20090214933,</text>
   <text y="588.489" x="98.05,102.533,107.016,111.5,115.983" svgx:width="0.5,0.5,0.5,0.5,0.25" style="fill:rgb(0,0,0);font-family:URWPalladioL-Roma;font-size:8.97px;stroke:none;">2009.</text>
   <text y="601.401" x="76.535,81.018,85.501,87.74350000000001,98.054,105.505,110.401,115.467,118.076,121.84339999999999,124.12,128.827,136.744,139.354,142.277,147.495,149.7375,151.978,160.12,162.361,164.6035,166.845,171.552,179.03" svgx:width="0.5,0.5,0.25,0.55,0.83,0.55,0.56,0.29,0.42,0.55,0.52,0.88,0.29,0.33,0.58,0.25,0.55,1.0,0.25,0.25,0.55,0.52,0.83,0.55" style="fill:rgb(0,0,0);font-family:URWPalladioL-Roma;font-size:8.97px;stroke:none;">60. Novis Smith, W.; Swo</text>
   <text y="601.401" x="183.921" svgx:width="0.61" style="fill:rgb(0,0,0);font-family:Rpxr;font-size:8.97px;stroke:none;">ﬀ</text>
   <text y="601.401" x="189.372,193.667,196.545,198.7875,201.028,205.736,207.9785,210.219,216.208,220.503,224.484,229.38,234.446,238.741,242.283,247.3062,249.51,254.405,257.3651,259.633,265.111,267.72,270.644,275.862,278.471,283.878,294.037,297.059,301.954,307.1566,309.414,314.893,319.376,322.299,325.222,329.517,333.059,335.668,339.963,343.764,346.0065,349.144,356.12,358.362,363.069,365.3115,367.552,372.968,377.451,380.374,384.669,389.888,392.8481,395.052,399.536,404.019,408.502,412.985,417.468,421.95300000000003,424.193,429.672,434.155,436.3975,438.638,443.121,447.605,452.088,456.571" svgx:width="0.48,0.4,0.25,0.55,0.52,0.25,0.55,0.67,0.48,0.44,0.55,0.56,0.48,0.4,0.56,0.55,0.55,0.33,0.55,0.61,0.29,0.33,0.58,0.29,0.6,0.88,0.34,0.55,0.58,0.55,0.61,0.5,0.33,0.33,0.48,0.4,0.29,0.48,0.42,0.25,0.55,0.78,0.25,0.52,0.25,0.55,0.6,0.5,0.33,0.48,0.58,0.33,0.55,0.5,0.5,0.5,0.5,0.5,0.5,0.55,0.61,0.5,0.25,0.55,0.5,0.5,0.5,0.5,0.25" style="fill:rgb(0,0,0);font-family:URWPalladioL-Roma;font-size:8.97px;stroke:none;">er, S. Recovery of LithiumIon Batteries. U.S. Patent 861475 B1, 2013.</text>
   <text y="614.312" x="76.535,81.018,85.501,87.74350000000001,98.05,103.494,106.082,111.259,113.847,116.435,120.883,126.059,131.005,133.2475,135.461,141.394,143.617,145.8595,148.074,155.474,160.33,165.507,170.453,175.629,180.993,183.581,185.8235,188.037,192.823,195.046,197.2885,199.511,206.912,212.275,216.723,221.899,224.1415,226.356,232.662,234.886,237.1285,239.342,246.333,251.696,256.873,261.819,264.407,269.584,274.529,276.7715,278.985,283.78,286.003,288.2455,290.459,297.344,302.707,304.9495,307.164,315.231,317.4735,319.687,326.6836,328.84,337.254,341.515,344.415,349.591,354.448,359.9197,362.115,366.971,369.9311,372.175,378.116,382.368,386.317,391.263,395.212,397.8,400.389,405.565,410.5882,412.752,418.347,422.794,425.383,430.746,435.193,440.112,442.701,447.00660000000005,449.194,457.608,461.869,464.768,469.216,471.8173,474.037,476.998,480.352,485.208,495.295,503.362,507.81,511.581,514.481" svgx:width="0.5,0.5,0.25,0.55,0.67,0.29,0.58,0.29,0.29,0.5,0.58,0.56,0.25,0.55,0.67,0.25,0.25,0.55,0.83,0.55,0.58,0.56,0.58,0.6,0.29,0.25,0.55,0.61,0.25,0.25,0.55,0.83,0.6,0.5,0.58,0.25,0.55,0.71,0.25,0.25,0.55,0.79,0.6,0.58,0.56,0.29,0.58,0.56,0.25,0.55,0.61,0.25,0.25,0.55,0.77,0.6,0.25,0.55,1.0,0.25,0.55,0.78,0.55,0.95,0.48,0.33,0.58,0.55,0.61,0.55,0.55,0.33,0.55,0.67,0.48,0.44,0.56,0.44,0.29,0.29,0.58,0.56,0.55,0.72,0.5,0.29,0.6,0.5,0.55,0.29,0.48,0.55,0.95,0.48,0.33,0.5,0.29,0.55,0.33,0.4,0.55,0.88,1.0,0.5,0.42,0.33,0.48" style="fill:rgb(0,0,0);font-family:URWPalladioL-Roma;font-size:8.97px;stroke:none;">61. Yinliang, Z.; Honghui, T.; Huan, C.; Qunying, T.; Du, W. A Method of Recycling Valuable Metal fromWaste</text>
   <text y="627.224" x="98.05,102.533,107.752,113.2237,115.472,122.519,125.129,130.60070000000002,132.849,138.327,140.936,143.859,149.078,151.687,157.094,167.253,169.862,174.758,179.9606,182.218,187.696,192.179,195.102,198.025,202.32,205.862,209.852,212.0945,215.232,221.589,226.808,229.417,234.635,238.93,242.732,247.0376,249.268,254.684,259.167,262.09,266.385,271.604,274.5641,276.768,283.125,290.5701,292.818,297.301,301.785,306.268,310.751,315.234,319.717,324.201,328.684,333.16900000000004,335.409,342.385,344.6275,346.868,351.351,355.834,360.317,364.801" svgx:width="0.5,0.58,0.61,0.55,0.79,0.29,0.61,0.55,0.61,0.29,0.33,0.58,0.29,0.6,0.88,0.29,0.55,0.58,0.55,0.61,0.5,0.33,0.33,0.48,0.4,0.56,0.25,0.55,0.71,0.58,0.29,0.58,0.48,0.42,0.48,0.55,0.6,0.5,0.33,0.48,0.58,0.33,0.55,0.71,0.83,0.55,0.5,0.5,0.5,0.5,0.5,0.5,0.5,0.5,0.5,0.55,0.78,0.25,0.55,0.5,0.5,0.5,0.5,0.25" style="fill:rgb(0,0,0);font-family:URWPalladioL-Roma;font-size:8.97px;stroke:none;">and Old Lithiumion Battery. Chinese Patent CN 108987841 A, 2018.</text>
   <text y="640.136" x="76.535,81.018,85.501,87.74350000000001,98.05,106.702,111.695,115.308,117.969,123.292,125.53450000000001,128.295,135.374,137.66,139.9025,142.901,149.879,154.452,159.537,164.86,169.24,172.286,177.874,182.867,188.382,191.83,196.952,202.467,206.848,209.09050000000002,211.85,218.335,220.621,222.86350000000002,225.862,233.462,238.035,243.623,248.003,252.576,258.091,260.3335,263.094,268.682,270.968,273.2105,276.2,282.684,287.678,293.192,296.174,301.689,305.146,309.527,311.7695,314.529,320.117,322.3595,325.111,330.699,333.36,336.342,341.665,344.326,349.841,357.917,360.962,363.624,368.617,373.81960000000004,376.656,382.244,386.817,389.799,392.78,397.161,400.774,403.435,407.816,411.5834,414.41,420.519,424.9,428.961,434.046,438.106,440.768,443.429,448.752,453.7752,456.553,462.077,465.525,470.519,474.579,478.96,482.838,486.716,488.9585,493.566,501.889,506.882,510.495,513.156" svgx:width="0.5,0.5,0.25,0.55,0.95,0.55,0.4,0.29,0.58,0.25,0.55,0.77,0.25,0.25,0.55,0.76,0.5,0.56,0.58,0.48,0.33,0.61,0.55,0.6,0.4,0.56,0.6,0.48,0.25,0.55,0.71,0.25,0.25,0.55,0.83,0.5,0.61,0.48,0.5,0.6,0.25,0.55,0.61,0.25,0.25,0.55,0.71,0.55,0.6,0.33,0.6,0.4,0.48,0.25,0.55,0.61,0.25,0.55,0.61,0.29,0.33,0.58,0.29,0.6,0.88,0.33,0.29,0.55,0.58,0.55,0.61,0.5,0.33,0.33,0.48,0.4,0.29,0.48,0.42,0.55,0.67,0.48,0.44,0.56,0.44,0.29,0.29,0.58,0.56,0.55,0.6,0.4,0.55,0.44,0.48,0.42,0.42,0.25,0.55,1.0,0.55,0.4,0.29,0.61" style="fill:rgb(0,0,0);font-family:URWPalladioL-Roma;font-size:8.97px;stroke:none;">62. Morin, D.; Gagne-Bourque, C.; Nadeau, E.; Couture, B. Lithium-ion Batteries Recycling Process. World</text>
   <text y="653.047" x="98.05,103.466,107.949,110.872,115.167,120.385,123.3451,125.55,132.526,137.915,143.303,145.913,148.522,152.503,156.986,159.909,162.518,167.414,172.61659999999998,174.874,183.841,190.9273,193.13,197.613,202.096,206.579,211.063,215.546,220.029,224.512,228.995,233.479,237.96400000000003,240.203,247.179,251.662,253.9045,256.146,260.629,265.112,269.595,274.078" svgx:width="0.6,0.5,0.33,0.48,0.58,0.33,0.55,0.78,0.6,0.6,0.29,0.29,0.44,0.5,0.33,0.29,0.55,0.58,0.55,1.0,0.79,0.55,0.5,0.5,0.5,0.5,0.5,0.5,0.5,0.5,0.5,0.5,0.55,0.78,0.5,0.25,0.55,0.5,0.5,0.5,0.5,0.25" style="fill:rgb(0,0,0);font-family:URWPalladioL-Roma;font-size:8.97px;stroke:none;">Patent Application WO 2019060996 A1, 2019.</text>
   <text y="665.959" x="76.535,81.018,85.501,87.74350000000001,98.05,104.69,107.351,115.427,117.66950000000001,120.53,125.332,127.618,129.8605,133.014,138.291,142.864,148.187,153.272,155.5145,158.384,165.463,167.75,169.9925,173.136,179.246,184.569,188.949,193.33,195.57250000000002,198.443,205.082,207.369,209.6115,212.765,217.566,222.56,227.883,233.206,235.4485,238.309,241.354,243.59650000000002,246.458,252.567,256.948,261.009,266.094,270.154,272.816,275.477,280.8,285.8232,288.711,294.208,297.656,302.649,306.71,311.091,314.968,318.7354,321.663,326.657,329.6171,332.528,336.406,341.902,346.283,351.606,354.5661,357.405,362.462,367.035,370.016,372.998,377.379,380.991,386.01419999999996,388.893,396.969,401.962,407.551,413.065,415.727,420.108,423.8754,426.811,429.473,434.67560000000003,437.613,443.127,447.005,451.386,456.8577,459.791,465.114,470.199,475.256,478.869,481.53,487.00169999999997,489.944,494.325,496.987,501.367,505.428,508.41,512.022,514.683" svgx:width="0.5,0.5,0.25,0.55,0.73,0.29,0.88,0.25,0.55,0.52,0.25,0.25,0.55,0.67,0.5,0.58,0.56,0.25,0.55,0.77,0.25,0.25,0.55,0.67,0.58,0.48,0.48,0.25,0.55,0.73,0.25,0.25,0.55,0.52,0.55,0.58,0.58,0.25,0.55,0.33,0.25,0.55,0.67,0.48,0.44,0.56,0.44,0.29,0.29,0.58,0.56,0.55,0.6,0.4,0.55,0.44,0.48,0.42,0.42,0.55,0.55,0.33,0.55,0.42,0.6,0.48,0.58,0.33,0.55,0.55,0.5,0.33,0.33,0.48,0.4,0.56,0.55,0.88,0.55,0.61,0.6,0.29,0.48,0.42,0.55,0.29,0.58,0.55,0.6,0.42,0.48,0.61,0.55,0.58,0.56,0.55,0.4,0.29,0.61,0.55,0.48,0.29,0.48,0.44,0.33,0.4,0.29,0.44" style="fill:rgb(0,0,0);font-family:URWPalladioL-Roma;font-size:8.97px;stroke:none;">63. Kim, S.; Yang, D.; Rhee, K.; Sohn, J. Recycling process of spent battery modules in used hybrid electric</text>
   <text y="678.871" x="97.799,102.865,107.16,112.378,114.988,118.969,121.578,125.873,129.6404,131.916,137.323,141.125,143.734,148.952,153.9752,156.179,161.568,166.787,171.772,175.574,178.183,182.164,186.647" svgx:width="0.56,0.48,0.58,0.29,0.44,0.29,0.48,0.42,0.55,0.6,0.42,0.29,0.58,0.56,0.55,0.6,0.58,0.56,0.42,0.29,0.44,0.5,0.29" style="fill:rgb(0,0,0);font-family:URWPalladioL-Roma;font-size:8.97px;stroke:none;">vehicles using physical</text>
   <text y="678.871" x="189.255" svgx:width="0.29" style="fill:rgb(0,0,0);font-family:Rpxr;font-size:8.97px;stroke:none;">/</text>
   <text y="678.871" x="191.828,195.809,201.028,205.322,213.24,215.849,219.83,224.313,226.9143,229.164,232.087,235.467,239.762,244.246,247.169,255.086,259.381,264.599,267.522,271.324" svgx:width="0.44,0.58,0.48,0.88,0.29,0.44,0.5,0.29,0.55,0.33,0.4,0.48,0.5,0.33,0.88,0.48,0.58,0.33,0.42,0.25" style="fill:rgb(0,0,0);font-family:URWPalladioL-Roma;font-size:8.97px;stroke:none;">chemical treatments.</text>
   <text y="678.871" x="276.703,282.684,286.172,289.659,291.9015,295.039,301.02,305.503,308.991,315.967,318.2095,321.347,324.332,329.318,332.304,335.792,339.279,346.255,349.743,354.226" svgx:width="0.67,0.39,0.39,0.25,0.55,0.67,0.5,0.39,0.78,0.25,0.55,0.33,0.56,0.33,0.39,0.39,0.78,0.39,0.5,0.25" style="fill:rgb(0,0,0);font-family:URWPalladioL-Ital;font-size:8.97px;stroke:none;">Res. Chem. Intermed.</text>
   <text y="678.871" x="359.605,364.088,368.571,373.055" svgx:width="0.5,0.5,0.5,0.5" style="fill:rgb(0,0,0);font-family:URWPalladioL-Bold;font-size:8.97px;stroke:none;">2014</text>
   <text y="678.871" x="377.538" svgx:width="0.25" style="fill:rgb(0,0,0);font-family:URWPalladioL-Roma;font-size:8.97px;stroke:none;">,</text>
   <text y="678.871" x="382.021,386.504" svgx:width="0.5,0.5" style="fill:rgb(0,0,0);font-family:URWPalladioL-Ital;font-size:8.97px;stroke:none;">40</text>
   <text y="678.871" x="390.987,393.22950000000003,395.47,399.953,404.437,408.92,413.403,417.886,422.37,426.853,431.336,435.819,438.0615,441.199" svgx:width="0.25,0.55,0.5,0.5,0.5,0.5,0.5,0.5,0.5,0.5,0.5,0.25,0.55,0.33" style="fill:rgb(0,0,0);font-family:URWPalladioL-Roma;font-size:8.97px;stroke:none;">, 2447–2456. [</text>
   <text y="678.871" x="444.185,450.542,453.922,458.818,462.62,466.421,472.411,476.706" svgx:width="0.71,0.4,0.55,0.42,0.42,0.67,0.48,0.33" style="fill:rgb(8,117,183);font-family:URWPalladioL-Roma;font-size:8.97px;stroke:none;">CrossRef</text>
   <text y="678.871" x="479.692" svgx:width="0.33" style="fill:rgb(0,0,0);font-family:URWPalladioL-Roma;font-size:8.97px;stroke:none;">]</text>
   <text y="691.782" x="76.535,81.018,85.501,87.74350000000001,98.05,105.585,110.113,112.748,115.383,119.721,123.76,126.00250000000001,128.252,132.563,134.827,137.0695,139.328,145.902,150.24,155.683,158.318,162.656,165.563,167.8055,170.055,176.63" svgx:width="0.5,0.5,0.25,0.55,0.83,0.5,0.29,0.29,0.48,0.56,0.25,0.55,0.6,0.25,0.25,0.55,0.73,0.48,0.6,0.29,0.48,0.4,0.25,0.55,0.73,0.25" style="fill:rgb(0,0,0);font-family:URWPalladioL-Roma;font-size:8.97px;stroke:none;">64. Hailey, P.; Kepler, K.</text>
   <text y="691.782" x="181.12,188.166,190.683,194.043,197.566,201.252,204.21210000000002,206.495,212.536,216.058,219.744,224.272,227.958,230.476,232.993,238.028,242.513,244.784,249.321,252.844,256.53,261.058,266.093,270.114,272.632,276.652,281.181,285.666,287.927,290.445,294.466,297.9643,300.216,305.75,308.267,313.302,317.83,320.846,323.364,328.38719999999995,330.627,336.16,338.678,342.2,345.886,348.902,352.425,354.942,358.6197,360.856,366.57,370.093,374.621,377.139,380.824,383.342,386.84029999999996,389.084,394.119,396.636,399.652,404.18,406.698,411.733,418.778,421.794,424.81,428.831,433.8542,436.094,441.627,445.648,448.663,451.679,455.202,458.725,463.21000000000004,465.48,471.014,475.035,478.72,482.741" svgx:width="0.78,0.28,0.39,0.39,0.41,0.33,0.55,0.67,0.39,0.41,0.5,0.41,0.28,0.28,0.56,0.5,0.55,0.61,0.39,0.41,0.5,0.56,0.44,0.28,0.44,0.5,0.5,0.55,0.28,0.44,0.39,0.55,0.61,0.28,0.56,0.5,0.33,0.28,0.56,0.55,0.61,0.28,0.39,0.41,0.33,0.39,0.28,0.41,0.55,0.72,0.39,0.5,0.28,0.41,0.28,0.39,0.55,0.56,0.28,0.33,0.5,0.28,0.56,0.78,0.33,0.33,0.44,0.56,0.55,0.61,0.44,0.33,0.33,0.39,0.39,0.5,0.55,0.61,0.44,0.41,0.44,0.39" style="fill:rgb(0,0,0);font-family:URWPalladioL-Ital;font-size:8.97px;stroke:none;">Direct Recycling Technology for Plug-in Electric Vehicle Lithium-Ion Battery Packs</text>
   <text y="691.782" x="486.262,488.5045,490.754,495.789,500.317,503.894,508.422,512.262,514.897" svgx:width="0.25,0.55,0.56,0.5,0.4,0.5,0.42,0.29,0.42" style="fill:rgb(0,0,0);font-family:URWPalladioL-Roma;font-size:8.97px;stroke:none;">; Farasis</text>
   <text y="704.694" x="98.05,103.528,108.747,113.042,116.422,121.407,126.4302,128.634,131.656,136.875,140.856,143.097,145.33950000000002,148.477,155.937,160.42,165.406,172.884,177.367,180.747,186.226,188.4685,190.709,197.066,204.042,206.2845,208.525,215.501,220.208,227.184,229.4265,231.667,236.151,240.634,245.117,249.6" svgx:width="0.61,0.58,0.48,0.4,0.56,0.56,0.55,0.34,0.58,0.44,0.25,0.25,0.55,0.83,0.5,0.56,0.83,0.5,0.4,0.61,0.25,0.55,0.71,0.78,0.25,0.55,0.78,0.52,0.78,0.25,0.55,0.5,0.5,0.5,0.5,0.25" style="fill:rgb(0,0,0);font-family:URWPalladioL-Roma;font-size:8.97px;stroke:none;">Energy Inc.: Hayward, CA, USA, 2015.</text>
   <text y="717.605" x="76.535,81.018,85.501,87.74350000000001,98.05,103.923,109.047,113.45,118.574,123.47,125.7125,127.917,132.645,134.846,137.0885,139.293,146.618,150.836,153.07850000000002,155.283,160.16,162.362,164.6045,166.808,173.526,177.744,179.9865,182.191,187.57,189.772,192.0145,194.209,199.105,204.414,206.6565,208.861,214.743,216.944,219.1865,221.39,227.263,232.388,236.79,241.915,246.81,249.0525,251.257,257.13,259.331,261.5735,263.778,271.103,276.413,280.815,285.94,290.827,293.0695,295.273,300.151,302.3935,304.598,310.84,315.965,320.367,323.845,328.248,332.157,335.028,339.245,342.723,345.286,349.019,351.889,354.452,358.361,362.1284,364.34,369.147,372.1071,374.316,381.659,385.877,388.8371,390.992,395.395,400.519,405.9907,408.144,413.524,417.002,422.0252,424.143,428.052,431.451,436.761,440.494,445.618,448.181,453.305,458.3282,460.446,468.221,472.438,475.309,480.433,485.241,490.621,494.3884,496.599,499.162,504.3646,506.531,509.402,514.526" svgx:width="0.5,0.5,0.25,0.55,0.67,0.58,0.5,0.58,0.56,0.25,0.55,0.61,0.25,0.25,0.55,0.83,0.48,0.25,0.55,0.67,0.25,0.25,0.55,0.76,0.48,0.25,0.55,0.61,0.25,0.25,0.55,0.56,0.6,0.25,0.55,0.67,0.25,0.25,0.55,0.67,0.58,0.5,0.58,0.56,0.25,0.55,0.67,0.25,0.25,0.55,0.83,0.6,0.5,0.58,0.56,0.25,0.55,0.67,0.25,0.55,0.71,0.58,0.5,0.4,0.5,0.44,0.33,0.48,0.4,0.29,0.42,0.33,0.29,0.44,0.42,0.55,0.55,0.33,0.55,0.83,0.48,0.33,0.55,0.5,0.58,0.61,0.55,0.61,0.4,0.56,0.55,0.44,0.4,0.6,0.42,0.58,0.29,0.58,0.56,0.55,0.88,0.48,0.33,0.58,0.55,0.61,0.42,0.55,0.29,0.58,0.55,0.33,0.58,0.48" style="fill:rgb(0,0,0);font-family:URWPalladioL-Roma;font-size:8.97px;stroke:none;">65. Zhang, T.; He, Y.; Ge, L.; Fu, R.; Zhang, X.; Huang, Y. Characteristics of wet and dry crushing methods in the</text>
   <text y="730.517" x="98.05,101.43,105.725,109.706,114.692,118.673,121.282,123.891,129.11,134.13320000000002,136.337,141.725,145.106,150.001,153.982,158.277,162.079,165.84640000000002,168.122,173.018,175.9781,178.246,182.047,187.436,191.731,196.949,199.90910000000002,202.114,204.723,207.333,210.256,215.474,218.083,223.49,231.407,234.393,237.002,241.898,247.1006,249.358,254.316,258.8,261.723,264.646,268.941,272.482,275.092,279.386,283.188" svgx:width="0.4,0.48,0.44,0.56,0.44,0.29,0.29,0.58,0.56,0.55,0.6,0.4,0.55,0.44,0.48,0.42,0.42,0.55,0.55,0.33,0.55,0.42,0.6,0.48,0.58,0.33,0.55,0.29,0.29,0.33,0.58,0.29,0.6,0.88,0.33,0.29,0.55,0.58,0.55,0.55,0.5,0.33,0.33,0.48,0.4,0.29,0.48,0.42,0.25" style="fill:rgb(0,0,0);font-family:URWPalladioL-Roma;font-size:8.97px;stroke:none;">recycling process of spent lithium-ion batteries.</text>
   <text y="730.517" x="288.565,291.551,293.7935,296.034,301.513,305.494,311.967,315.455,318.9533,321.185,326.17,330.151,335.137,338.463,342.112,345.6" svgx:width="0.33,0.25,0.55,0.61,0.44,0.72,0.39,0.39,0.55,0.56,0.44,0.56,0.39,0.41,0.39,0.39" style="fill:rgb(0,0,0);font-family:URWPalladioL-Ital;font-size:8.97px;stroke:none;">J. Power Sources</text>
   <text y="730.517" x="351.329,355.812,360.295,364.779" svgx:width="0.5,0.5,0.5,0.5" style="fill:rgb(0,0,0);font-family:URWPalladioL-Bold;font-size:8.97px;stroke:none;">2013</text>
   <text y="730.517" x="369.262" svgx:width="0.25" style="fill:rgb(0,0,0);font-family:URWPalladioL-Roma;font-size:8.97px;stroke:none;">,</text>
   <text y="730.517" x="373.745,378.228,382.711" svgx:width="0.5,0.5,0.5" style="fill:rgb(0,0,0);font-family:URWPalladioL-Ital;font-size:8.97px;stroke:none;">240</text>
   <text y="730.517" x="387.195,389.4375,391.678,396.161,400.645,405.128,409.611,414.094,418.578,423.061,425.3035,428.441" svgx:width="0.25,0.55,0.5,0.5,0.5,0.5,0.5,0.5,0.5,0.25,0.55,0.33" style="fill:rgb(0,0,0);font-family:URWPalladioL-Roma;font-size:8.97px;stroke:none;">, 766–771. [</text>
   <text y="730.517" x="431.426,437.784,441.164,446.06,449.861,453.663,459.653,463.948" svgx:width="0.71,0.4,0.55,0.42,0.42,0.67,0.48,0.33" style="fill:rgb(8,117,183);font-family:URWPalladioL-Roma;font-size:8.97px;stroke:none;">CrossRef</text>
   <text y="730.517" x="466.933" svgx:width="0.33" style="fill:rgb(0,0,0);font-family:URWPalladioL-Roma;font-size:8.97px;stroke:none;">]</text>
   <text y="743.429" x="76.535,81.018,85.501,87.74350000000001,98.05,103.638,106.299,108.54150000000001,111.339,114.384,116.671,118.91350000000001,121.957,130.28,134.852,140.175,145.26,147.5025,150.3,157.278,159.564,161.8065,164.86,170.96,176.475,178.7175,181.505,187.605,189.8475,192.644,199.622,204.003,209.326,213.707,217.319,221.892,224.874,227.535,232.529,237.7316,240.604,245.177,250.5,255.9717,258.832,264.42,268.801,271.782,276.163,280.224,283.205,285.867,290.86,296.06260000000003,298.936,303.929,306.8891,309.728,317.804,322.184,325.166,329.739,332.34029999999996,335.153,337.814,342.808,348.131,351.8984,354.752,359.325,364.648,370.1197,372.989,378.156,383.15,385.811,390.384,393.366,396.027,398.688,402.9936,405.822,410.816,414.264,419.349,423.921,429.244,431.906,435.8528,438.719,442.78,447.773,455.849,461.346,466.339,471.854,477.177,482.765,486.5324,489.396,492.441,499.044,506.233,512.717,516.595" svgx:width="0.5,0.5,0.25,0.55,0.61,0.29,0.25,0.55,0.33,0.25,0.25,0.55,1.0,0.5,0.58,0.56,0.25,0.55,0.76,0.25,0.25,0.55,0.67,0.6,0.25,0.55,0.67,0.25,0.55,0.76,0.48,0.58,0.48,0.4,0.5,0.33,0.29,0.55,0.58,0.55,0.5,0.58,0.61,0.55,0.61,0.48,0.33,0.48,0.44,0.33,0.29,0.55,0.58,0.55,0.55,0.33,0.55,0.88,0.48,0.33,0.5,0.29,0.55,0.29,0.55,0.58,0.42,0.55,0.5,0.58,0.61,0.55,0.56,0.55,0.29,0.5,0.33,0.29,0.29,0.48,0.55,0.55,0.4,0.56,0.5,0.58,0.29,0.44,0.55,0.44,0.55,0.88,0.6,0.55,0.6,0.58,0.61,0.42,0.55,0.33,0.72,0.79,0.71,0.42,0.33" style="fill:rgb(0,0,0);font-family:URWPalladioL-Roma;font-size:8.97px;stroke:none;">66. Li, J.; Wang, G.; Xu, Z. Generation and detection of metal ions and volatile organic compounds (VOCs)</text>
   <text y="756.34" x="98.05,102.336,110.238,112.842,116.636,120.43,123.034,127.92,133.128,136.8954,139.168,142.148,145.522,150.407,160.555,163.472,168.68,172.9856,175.213,180.591,183.964,188.251,191.168,194.541,198.828,203.302,206.219,214.121,218.407,223.615,226.57510000000002,228.778,234.156,237.53,242.416,246.389,250.675,254.469,258.263,262.55,266.3174,268.59,271.57,276.456,280.04400000000004,282.236,285.61,289.896,293.869,298.845,302.818,305.422,308.026,313.234,318.25719999999995,320.455,324.249,329.627,333.914,339.122,342.0821,344.285,346.889,349.493,352.41,357.618,360.222,365.618,373.52,376.499,379.103,383.989,389.1916,391.443,396.392,400.866,403.783,406.701,410.987,414.521,417.125,421.412,425.206" svgx:width="0.48,0.88,0.29,0.42,0.42,0.29,0.55,0.58,0.42,0.55,0.33,0.4,0.55,0.88,0.33,0.58,0.48,0.55,0.6,0.4,0.48,0.33,0.4,0.48,0.5,0.33,0.88,0.48,0.58,0.33,0.55,0.6,0.4,0.55,0.44,0.48,0.42,0.42,0.48,0.42,0.55,0.33,0.55,0.4,0.55,0.4,0.48,0.44,0.56,0.44,0.29,0.29,0.58,0.56,0.55,0.42,0.6,0.48,0.58,0.33,0.55,0.29,0.29,0.33,0.58,0.29,0.6,0.88,0.33,0.29,0.55,0.58,0.55,0.55,0.5,0.33,0.33,0.48,0.4,0.29,0.48,0.42,0.25" style="fill:rgb(0,0,0);font-family:URWPalladioL-Roma;font-size:8.97px;stroke:none;">emissions fromthe pretreatment processes for recycling spent lithium-ion batteries.</text>
   <text y="756.34" x="430.595,438.863,442.837,446.317,449.297,452.7953,455.024,463.472,467.445,472.42,476.393,480.867" svgx:width="0.94,0.44,0.39,0.33,0.39,0.55,0.94,0.44,0.56,0.44,0.5,0.25" style="fill:rgb(0,0,0);font-family:URWPalladioL-Ital;font-size:8.97px;stroke:none;">Waste Manag.</text>
   <text y="756.34" x="486.258,490.741,495.224,499.708" svgx:width="0.5,0.5,0.5,0.5" style="fill:rgb(0,0,0);font-family:URWPalladioL-Bold;font-size:8.97px;stroke:none;">2015</text>
   <text y="756.34" x="504.19" svgx:width="0.25" style="fill:rgb(0,0,0);font-family:URWPalladioL-Roma;font-size:8.97px;stroke:none;">,</text>
   <text y="756.34" x="508.676,513.15" svgx:width="0.5,0.5" style="fill:rgb(0,0,0);font-family:URWPalladioL-Ital;font-size:8.97px;stroke:none;">52</text>
   <text y="756.34" x="517.624" svgx:width="0.25" style="fill:rgb(0,0,0);font-family:URWPalladioL-Roma;font-size:8.97px;stroke:none;">,</text>
   <text y="769.252" x="98.05,102.533,107.016,111.5,115.983,120.466,124.949,129.432,131.6745,134.812" svgx:width="0.5,0.5,0.5,0.5,0.5,0.5,0.5,0.25,0.55,0.33" style="fill:rgb(0,0,0);font-family:URWPalladioL-Roma;font-size:8.97px;stroke:none;">221–227. [</text>
   <text y="769.252" x="137.798,144.155,147.536,152.431,156.233,160.035,166.024,170.319" svgx:width="0.71,0.4,0.55,0.42,0.42,0.67,0.48,0.33" style="fill:rgb(8,117,183);font-family:URWPalladioL-Roma;font-size:8.97px;stroke:none;">CrossRef</text>
   <text y="769.252" x="173.305" svgx:width="0.33" style="fill:rgb(0,0,0);font-family:URWPalladioL-Roma;font-size:8.97px;stroke:none;">]</text>
  </g>
 </g>
</svg>
