<?xml version="1.0" encoding="UTF-8"?>
<svg height="870.494" width="4168.611" xmlns="http://www.w3.org/2000/svg">
 <g id="page" xmlns:svgx="http://www.xml-cml.org/schema/svgx">
  <g begin="text">
   <text y="62.979" x="76.535,84.059,87.598,90.252,93.352,96.452,98.668,102.207,104.422" svgx:width="0.94,0.44,0.33,0.39,0.39,0.28,0.44,0.28,0.39" style="fill:rgb(0,0,0);font-family:URWPalladioL-Ital;font-size:7.97px;stroke:none;">Materials</text>
   <text y="62.979" x="109.515,113.5,117.485,121.47" svgx:width="0.5,0.5,0.5,0.5" style="fill:rgb(0,0,0);font-family:URWPalladioL-Bold;font-size:7.97px;stroke:none;">2020</text>
   <text y="62.979" x="125.455" svgx:width="0.25" style="fill:rgb(0,0,0);font-family:URWPalladioL-Roma;font-size:7.97px;stroke:none;">,</text>
   <text y="62.979" x="129.44,133.425" svgx:width="0.5,0.5" style="fill:rgb(0,0,0);font-family:URWPalladioL-Ital;font-size:7.97px;stroke:none;">13</text>
   <text y="62.979" x="137.41,139.4025,141.395,145.38,149.365,153.35000000000002,495.794,499.779,501.772,506.123,508.7531,510.77,514.755" svgx:width="0.25,0.55,0.5,0.5,0.5,0.55,0.5,0.55,0.55,0.33,0.55,0.5,0.5" style="fill:rgb(0,0,0);font-family:URWPalladioL-Roma;font-size:7.97px;stroke:none;">, 801 6 of 45</text>
   <text y="96.861" x="97.499,102.484,106.968,112.446,115.432,119.917,121.385,125.869" svgx:width="0.67,0.5,0.61,0.33,0.5,0.55,0.5,0.25" style="fill:rgb(0,0,0);font-family:URWPalladioL-Bold;font-size:8.97px;stroke:none;">Table 2.</text>
   <text y="96.861" x="130.987,136.505,140.899,144.37,146.927,151.32,154.185,156.742,161.54,168.121,172.919,175.87910000000002,177.312,181.521,185.247,188.112,190.669,198.428,202.821,205.686,209.895,216.731,221.617,224.174,228.972,233.831,238.224,240.8253,242.249,249.577,253.971,257.442,265.201,267.758,272.872,279.216,284.497,289.295,292.159,296.368,301.483,304.347,306.904,311.298,313.8993,315.322,318.248,324.953,333.74,339.047,342.00710000000004,343.441,348.239,351.1991,352.632,355.189,357.746,360.611,365.725,368.282,373.58,381.339,384.266,386.823,390.135,394.933,400.047,402.973,408.254,413.368,418.166,421.892,427.173,432.287,436.68,439.545,443.85060000000004,445.213,448.938,453.824,458.938,461.803,466.917,471.126,474.851,477.408,481.1754,482.602,486.995,492.109" svgx:width="0.72,0.5,0.4,0.29,0.5,0.33,0.29,0.55,0.58,0.55,0.33,0.55,0.48,0.42,0.33,0.29,0.88,0.5,0.33,0.48,0.61,0.56,0.29,0.55,0.55,0.5,0.29,0.55,0.83,0.5,0.4,0.88,0.29,0.58,0.56,0.6,0.55,0.33,0.48,0.58,0.33,0.29,0.5,0.29,0.55,0.33,0.76,1.0,0.6,0.33,0.55,0.55,0.33,0.55,0.29,0.29,0.33,0.58,0.29,0.6,0.88,0.33,0.29,0.4,0.55,0.58,0.33,0.6,0.58,0.55,0.42,0.6,0.58,0.5,0.33,0.48,0.55,0.42,0.56,0.58,0.33,0.58,0.48,0.42,0.29,0.42,0.55,0.5,0.58,0.61" style="fill:rgb(0,0,0);font-family:URWPalladioL-Roma;font-size:8.97px;stroke:none;">Variationof estimatedglobal warmingpotential (GWP) of lithium-iron-phosphate synthesis and</text>
   <text y="109.683" x="97.795,101.764,105.295,109.765,115.227,117.828,122.11,125.087,128.002,132.883,135.859,140.83,145.3,148.214,152.5196,154.731,159.013,164.216,168.498,171.868,176.838,181.8612,184.052,188.021,192.902,198.105,201.896,207.286,215.18,220.552,223.467,226.068,230.949,236.1516,238.387,242.356,246.825,249.427,253.396,258.786,261.388,265.858,268.772,273.054,278.5257,280.76,283.737,288.618,292.206,294.384,298.869,301.097,306.068,311.09119999999996,313.273,317.742,321.712,324.626,327.227,332.278,336.58360000000005,338.804,346.698,351.167,354.073,358.355,361.886,364.487,368.957,371.5583,373.802,379.175,382.545,387.426,392.888,398.278,402.248,405.162,407.763,412.644,417.8466,420.082,423.059,426.429,431.31,441.447,446.909,451.379,454.293,458.778,460.998,466.371,469.741,474.622,479.673,482.274,487.736,492.018" svgx:width="0.44,0.4,0.5,0.61,0.29,0.48,0.33,0.33,0.55,0.33,0.56,0.5,0.33,0.48,0.55,0.48,0.58,0.48,0.4,0.56,0.56,0.55,0.44,0.55,0.58,0.42,0.6,0.88,0.6,0.33,0.29,0.55,0.58,0.55,0.44,0.5,0.29,0.44,0.6,0.29,0.5,0.33,0.48,0.61,0.55,0.33,0.55,0.4,0.55,0.5,0.55,0.56,0.56,0.55,0.5,0.44,0.33,0.29,0.56,0.48,0.55,0.88,0.5,0.33,0.48,0.4,0.29,0.5,0.29,0.55,0.6,0.4,0.55,0.61,0.6,0.44,0.33,0.29,0.55,0.58,0.55,0.33,0.4,0.55,0.88,0.61,0.5,0.33,0.5,0.55,0.6,0.4,0.55,0.56,0.29,0.61,0.48,0.61" style="fill:rgb(0,0,0);font-family:URWPalladioL-Roma;font-size:8.97px;stroke:none;">cradle-to-gate energy consumption calculated for 1 kg active material production fromdata provided</text>
   <text y="122.505" x="97.795,100.404,105.6066,107.864,110.473,113.083,116.006,120.301,123.842,128.326,131.249,136.655,140.036,144.331,146.5735,148.814,154.032,158.327,161.708,166.002,168.24450000000002,170.486,175.193,179.9,182.1425,184.384,191.844,196.677,198.9195,201.16,205.643,210.861,216.3327,218.581,226.033,228.274,232.982,235.2245,237.465,241.948,245.328,249.6336,251.865,255.667,260.562,263.171,265.781,271.2527,273.501,277.303,280.226,284.709,287.632,291.927,294.1695,296.41,301.628,306.614,312.092,315.472,320.368,323.291,328.51,332.804,336.346,344.264,348.747,351.356,353.5985,355.839,360.322,365.541,371.0127,373.261,378.479,383.375,386.3351,388.54,392.341,397.73,402.025,406.006,408.615,414.04,418.335,423.813,426.0555,428.297,431.677,435.972,439.774,445.162,449.457,453.438,456.361,458.971,464.037,468.332,470.941,474.931" svgx:width="0.29,0.58,0.55,0.29,0.29,0.33,0.48,0.4,0.5,0.33,0.6,0.4,0.48,0.25,0.55,0.58,0.48,0.4,0.48,0.25,0.55,0.52,0.52,0.25,0.55,0.83,0.61,0.25,0.55,0.5,0.58,0.61,0.55,0.83,0.25,0.52,0.25,0.55,0.5,0.4,0.48,0.55,0.42,0.55,0.29,0.29,0.61,0.55,0.42,0.33,0.5,0.33,0.48,0.25,0.55,0.58,0.56,0.61,0.4,0.55,0.33,0.58,0.48,0.4,0.88,0.5,0.29,0.25,0.55,0.5,0.58,0.61,0.55,0.58,0.55,0.33,0.55,0.42,0.6,0.48,0.44,0.29,0.61,0.48,0.61,0.25,0.55,0.4,0.48,0.42,0.6,0.48,0.44,0.33,0.29,0.56,0.48,0.29,0.56,0.25" style="fill:rgb(0,0,0);font-family:URWPalladioL-Roma;font-size:8.97px;stroke:none;">in literature; here, SS, HT, and N.S. are solid state, hydrothermal, and not speciﬁed, respectively.</text>
  </g>
  <path style="fill:none;stroke:rgb(0,0,0);stroke-width:1.0;" d="M90.930 132.730 L504.340 132.730 "/>
  <g begin="text">
   <text y="143.584" x="112.157,117.635,122.621,128.099,131.085,136.564,141.047,145.028,148.014,151.9608,154.236,163.203,167.686,170.672,176.15,181.135,186.6067,232.011,237.489,242.9607,291.306,296.784,302.2557,349.363,356.832,362.8419,408.667,416.136,422.14590000000004,469.217,474.695" svgx:width="0.61,0.56,0.61,0.33,0.61,0.5,0.44,0.33,0.44,0.55,1.0,0.5,0.33,0.61,0.56,0.61,0.55,0.61,0.61,0.55,0.61,0.61,0.55,0.83,0.67,0.55,0.83,0.67,0.55,0.61,0.61" style="fill:rgb(0,0,0);font-family:URWPalladioL-Bold;font-size:8.97px;stroke:none;">Synthesis Method SS SS HT HT SS</text>
  </g>
  <path style="fill:none;stroke:rgb(0,0,0);stroke-width:0.8;" d="M90.930 148.980 L504.340 148.980 "/>
  <g begin="text">
   <text y="159.583" x="128.117,134.107,138.401,141.387,145.682,149.063,153.357,158.576,162.557,166.852,170.6194,230.02" svgx:width="0.67,0.48,0.33,0.48,0.4,0.48,0.58,0.44,0.48,0.42,0.55,0.33" style="fill:rgb(0,0,0);font-family:URWPalladioL-Roma;font-size:8.97px;stroke:none;">References [</text>
   <text y="159.583" x="233.006,237.489" svgx:width="0.5,0.5" style="fill:rgb(8,117,183);font-family:URWPalladioL-Roma;font-size:8.97px;stroke:none;">41</text>
   <text y="159.583" x="241.972,244.93210000000002,289.315" svgx:width="0.33,0.55,0.33" style="fill:rgb(0,0,0);font-family:URWPalladioL-Roma;font-size:8.97px;stroke:none;">] [</text>
   <text y="159.583" x="292.301,296.784" svgx:width="0.5,0.5" style="fill:rgb(8,117,183);font-family:URWPalladioL-Roma;font-size:8.97px;stroke:none;">39</text>
   <text y="159.583" x="301.267,304.2271,348.619" svgx:width="0.33,0.55,0.33" style="fill:rgb(0,0,0);font-family:URWPalladioL-Roma;font-size:8.97px;stroke:none;">] [</text>
   <text y="159.583" x="351.605,356.088" svgx:width="0.5,0.5" style="fill:rgb(8,117,183);font-family:URWPalladioL-Roma;font-size:8.97px;stroke:none;">37</text>
   <text y="159.583" x="360.571,363.53110000000004,407.922" svgx:width="0.33,0.55,0.33" style="fill:rgb(0,0,0);font-family:URWPalladioL-Roma;font-size:8.97px;stroke:none;">] [</text>
   <text y="159.583" x="410.908,415.391" svgx:width="0.5,0.5" style="fill:rgb(8,117,183);font-family:URWPalladioL-Roma;font-size:8.97px;stroke:none;">38</text>
   <text y="159.583" x="419.875,422.8351,467.226" svgx:width="0.33,0.55,0.33" style="fill:rgb(0,0,0);font-family:URWPalladioL-Roma;font-size:8.97px;stroke:none;">] [</text>
   <text y="159.583" x="470.212,474.695" svgx:width="0.5,0.5" style="fill:rgb(8,117,183);font-family:URWPalladioL-Roma;font-size:8.97px;stroke:none;">38</text>
   <text y="159.583" x="479.178" svgx:width="0.33" style="fill:rgb(0,0,0);font-family:URWPalladioL-Roma;font-size:8.97px;stroke:none;">]</text>
   <text y="170.78" x="97.782,104.623,113.59,118.97200000000001,121.247,124.233,129.218,134.2412,136.445,142.802" svgx:width="0.76,1.0,0.6,0.55,0.33,0.56,0.56,0.55,0.71,0.79" style="fill:rgb(0,0,0);font-family:URWPalladioL-Roma;font-size:8.97px;stroke:none;">GWP (kg CO</text>
   <text y="172.572" x="149.85" svgx:width="0.5" style="fill:rgb(0,0,0);font-family:URWPalladioL-Roma;font-size:6.97px;stroke:none;">2</text>
   <text y="170.78" x="156.076,160.371,165.392,170.799,173.408,178.474,182.957,185.566,189.861,195.08,198.003,200.9631,231.887,236.37,238.612,243.097,291.182,295.665,297.907,302.392,350.485,354.969,357.21,361.695,409.789,414.272,416.514,420.999,469.084,473.567,475.809" svgx:width="0.48,0.56,0.6,0.29,0.56,0.5,0.29,0.48,0.58,0.33,0.33,0.55,0.5,0.25,0.5,0.55,0.5,0.25,0.5,0.55,0.5,0.25,0.5,0.55,0.5,0.25,0.5,0.55,0.5,0.25,0.5" style="fill:rgb(0,0,0);font-family:URWPalladioL-Roma;font-size:8.97px;stroke:none;">equivalent) 4.2 2.0 5.3 4.5 3.0</text>
   <text y="181.977" x="98.125,103.603,108.822,113.117,116.497,121.482,126.5052,128.709,132.69,137.586,142.805,146.606,152.013,159.93,165.319,168.242,170.851,175.747,180.9496,183.207,186.193,194.675,197.661,200.6211,229.169,236.62,238.862,243.569,245.8115,292.301,296.785,301.27000000000004,347.768,355.219,357.46,362.168,364.4105,410.909,415.392,419.877,470.204,474.687" svgx:width="0.61,0.58,0.48,0.4,0.56,0.56,0.55,0.44,0.55,0.58,0.42,0.6,0.88,0.6,0.33,0.29,0.55,0.58,0.55,0.33,0.95,0.33,0.33,0.55,0.83,0.25,0.52,0.25,0.55,0.5,0.5,0.55,0.83,0.25,0.52,0.25,0.55,0.5,0.5,0.55,0.5,0.5" style="fill:rgb(0,0,0);font-family:URWPalladioL-Roma;font-size:8.97px;stroke:none;">Energy consumption (MJ) N.S. 19 N.S. 56 34</text>
  </g>
  <path style="fill:none;stroke:rgb(0,0,0);stroke-width:0.3;" d="M90.930 187.620 L504.340 187.620 "/>
  <g begin="text">
   <text y="122.434" x="77.731,85.271,88.822,91.486,94.598,97.709,99.935,103.485,105.71,108.822" svgx:width="0.94,0.44,0.33,0.39,0.39,0.28,0.44,0.28,0.39,0.25" style="fill:rgb(0,0,0);font-family:PalatinoLinotype,Italic;font-size:7.98px;stroke:none;">Materials </text>
   <text y="122.434" x="110.791,114.812,118.832,122.852" svgx:width="0.5,0.5,0.5,0.5" style="fill:rgb(0,0,0);font-family:PalatinoLinotype,Bold;font-size:7.98px;stroke:none;">2020</text>
   <text y="122.434" x="126.871,128.851" svgx:width="0.25,0.25" style="fill:rgb(0,0,0);font-family:PalatinoLinotype;font-size:7.98px;stroke:none;">, </text>
   <text y="122.434" x="130.831,134.851" svgx:width="0.5,0.5" style="fill:rgb(0,0,0);font-family:PalatinoLinotype,Italic;font-size:7.98px;stroke:none;">13</text>
   <text y="122.434" x="138.811,140.811,142.791,146.914,148.894,153.337,159.615,164.951,166.99,171.816,176.697,181.579,186.915,188.895,194.231,199.112,204.88,207.574,212.456,220.496,222.491,493.771,497.789,499.784,501.329,505.715,508.355,510.35,511.895,515.914,519.932" svgx:width="0.25,0.25,0.52,0.25,0.56,0.79,0.67,0.25,0.6,0.61,0.61,0.67,0.25,0.67,0.61,0.72,0.34,0.61,1.0,0.25,0.55,0.5,0.25,0.55,0.55,0.33,0.25,0.55,0.5,0.5,0.25" style="fill:rgb(0,0,0);font-family:PalatinoLinotype;font-size:7.98px;stroke:none;">, x FOR PEER REVIEW 6 of 47 </text>
   <text y="860.494" x="77.731" svgx:width="0.25" style="fill:rgb(0,0,0);font-family:TimesNewRoman;font-size:9.0px;stroke:none;"> </text>
   <text y="148.294" x="121.471,127.593,133.164,139.287,142.623,148.684,153.724,158.106,161.466,165.915,168.435,178.395,183.435,186.771,192.832,198.404,204.465,206.97,247.785,253.907,260.03,262.53499999999997,302.089,308.212,314.334,316.839,355.074,363.421,370.104,372.609,409.405,417.751,424.435,426.94,465.115,471.237,477.359" svgx:width="0.61,0.56,0.61,0.33,0.61,0.5,0.44,0.33,0.44,0.25,1.0,0.5,0.33,0.61,0.56,0.61,0.25,0.55,0.61,0.61,0.25,0.55,0.61,0.61,0.25,0.55,0.83,0.67,0.25,0.55,0.83,0.67,0.25,0.55,0.61,0.61,0.25" style="fill:rgb(0,0,0);font-family:PalatinoLinotype,Bold;font-size:10.02px;stroke:none;">Synthesis Method SS SS HT HT SS </text>
  </g>
  <g begin="text">
   <text y="162.334" x="139.171,145.883,150.702,154.002,158.801,162.778,167.597,173.447,177.915,182.734,186.935,189.44,245.736,249.091,254.071,259.1,262.4,264.905,300.02,303.376,308.356,313.385,316.684,319.189,354.365,357.72,362.7,367.729,371.029,373.534,408.649,412.005,416.985,422.014,425.313,427.818,462.933,466.289,471.269,476.298,479.598" svgx:width="0.67,0.48,0.33,0.48,0.4,0.48,0.58,0.44,0.48,0.42,0.25,0.55,0.33,0.5,0.5,0.33,0.25,0.55,0.33,0.5,0.5,0.33,0.25,0.55,0.33,0.5,0.5,0.33,0.25,0.55,0.33,0.5,0.5,0.33,0.25,0.55,0.33,0.5,0.5,0.33,0.25" style="fill:rgb(0,0,0);font-family:PalatinoLinotype;font-size:10.02px;stroke:none;">References [41] [39] [37] [38] [38] </text>
  </g>
  <g begin="text">
   <text y="175.774" x="106.111,113.748,123.76,129.804,132.324,135.653,141.216,146.779,149.299,156.395" svgx:width="0.76,1.0,0.6,0.25,0.33,0.56,0.56,0.25,0.71,0.79" style="fill:rgb(0,0,0);font-family:PalatinoLinotype;font-size:10.02px;stroke:none;">GWP (kg CO</text>
   <text y="175.774" x="164.251" svgx:width="0.5" style="fill:rgb(0,0,0);font-family:PalatinoLinotype;font-size:6.0px;stroke:none;">2</text>
   <text y="175.774" x="167.191,169.711,174.533,180.112,186.176,189.114,194.694,199.734,202.672,207.493,213.253,216.552,219.851,222.356,247.751,252.783,255.243,260.223,262.728,302.043,307.075,309.535,314.515,317.02,356.395,361.427,363.887,368.867,371.372,410.687,415.719,418.179,423.159,425.664,464.979,470.011,472.471,477.451" svgx:width="0.25,0.48,0.56,0.6,0.29,0.56,0.5,0.29,0.48,0.58,0.33,0.33,0.25,0.55,0.5,0.25,0.5,0.25,0.55,0.5,0.25,0.5,0.25,0.55,0.5,0.25,0.5,0.25,0.55,0.5,0.25,0.5,0.25,0.55,0.5,0.25,0.5,0.25" style="fill:rgb(0,0,0);font-family:PalatinoLinotype;font-size:10.02px;stroke:none;"> equivalent) 4.2 2.0 5.3 4.5 3.0 </text>
   <text y="189.274" x="105.691,111.824,117.667,122.478,126.447,132.029,137.611,140.071,144.531,150.013,155.855,160.115,166.115,174.936,180.935,184.234,187.161,192.643,198.486,200.945,204.293,213.715,217.063,220.362,222.867,244.782,253.12,255.636,260.857,263.317,265.822,303.397,308.418,313.398,315.903,353.478,361.816,364.332,369.553,372.013,374.518,411.973,416.994,421.974,424.479,466.314,471.335,476.315" svgx:width="0.61,0.58,0.48,0.4,0.56,0.56,0.25,0.44,0.55,0.58,0.42,0.6,0.88,0.6,0.33,0.29,0.55,0.58,0.25,0.33,0.95,0.33,0.33,0.25,0.55,0.83,0.25,0.52,0.25,0.25,0.55,0.5,0.5,0.25,0.55,0.83,0.25,0.52,0.25,0.25,0.55,0.5,0.5,0.25,0.55,0.5,0.5,0.25" style="fill:rgb(0,0,0);font-family:PalatinoLinotype;font-size:10.02px;stroke:none;">Energy consumption (MJ) N.S. 19 N.S. 56 34 </text>
  </g>
  <path style="fill:rgb(0,0,0);stroke:none;stroke-width:0.8;" d="M335.730 192.330 L389.790 192.330 L389.790 193.290 L335.730 193.290 "/>
  <g begin="text">
   <text y="402.574" x="439.051" svgx:width="0.25" style="fill:rgb(0,0,0);font-family:PalatinoLinotype;font-size:10.02px;stroke:none;"> </text>
   <text y="418.834" x="98.971,103.998,106.999,112.008,117.511,121.017,125.521,127.771,131.221,135.725,137.98" svgx:width="0.56,0.33,0.56,0.61,0.39,0.5,0.25,0.55,0.5,0.25,0.25" style="fill:rgb(0,0,0);font-family:PalatinoLinotype,Bold;font-size:9.0px;stroke:none;">Figure 3. </text>
   <text y="418.834" x="143.671,149.179,154.426,158.686,162.226,167.204,172.183,174.433,177.883,181.888,186.811,192.058,195.883,201.283,209.205,214.623,217.566,220.194,225.117,230.364,232.614,236.063,239.069,243.992,247.556,249.806,253.256,258.764,261.392,264.398,267.404,271.724,275.204,279.524,284.771,287.714,289.964,293.413,297.238,302.217,307.464,310.407,315.654,319.974,323.799,326.427,330.252,332.502,335.892,343.814,348.134,351.077,356.324,361.247,366.755,370.58,372.83,376.28,380.789,386.036,391.544,393.794,397.184,402.278,406.787,410.351,412.979,417.902,423.302,427.127,429.377,432.827,437.336,441.341,444.284,446.864,451.958,456.218,458.468,461.918,469.839,474.339,477.282,481.602,485.166,487.794,492.303,494.931,498.756" svgx:width="0.61,0.58,0.48,0.4,0.56,0.56,0.25,0.55,0.44,0.55,0.58,0.42,0.6,0.88,0.6,0.33,0.29,0.55,0.58,0.25,0.55,0.33,0.55,0.4,0.25,0.55,0.61,0.29,0.33,0.33,0.48,0.4,0.48,0.58,0.33,0.25,0.55,0.42,0.56,0.58,0.33,0.58,0.48,0.42,0.29,0.42,0.25,0.55,0.88,0.48,0.33,0.58,0.55,0.61,0.42,0.25,0.55,0.5,0.58,0.61,0.25,0.55,0.56,0.5,0.4,0.29,0.55,0.6,0.42,0.25,0.55,0.5,0.44,0.33,0.29,0.56,0.48,0.25,0.55,0.88,0.5,0.33,0.48,0.4,0.29,0.5,0.29,0.42,0.25" style="fill:rgb(0,0,0);font-family:PalatinoLinotype;font-size:9.0px;stroke:none;">Energy consumption for different synthesis methods and various active materials </text>
   <text y="431.854" x="98.971,101.973,105.534,109.85,115.265,118.825,123.744,129.249,134.649,138.65,142.967,148.428,150.348,157.859,160.483,163.423,168.666,170.586,176.0,180.317,183.877,191.799,194.423,198.205,202.026,204.651,209.57,214.73,216.59,219.593,223.153,228.072,235.994,237.914,243.436,248.68,252.996,254.916,260.933,265.853,270.831,275.331,277.912,279.831,284.562,289.423,293.424,296.048,300.365,303.271,308.19,310.109,315.024,317.964,319.884,326.266,331.505,335.765,343.686,346.306,350.123,353.058,356.614,361.593,363.513,369.525,373.837,376.835,379.056,380.975,383.973,388.474,392.975,395.915,398.913,401.133,403.053,408.292,412.604,416.16,420.472,422.692,424.612,432.092,440.606,446.988,449.209,451.069,456.53,465.052,471.065,474.063,481.543,490.058,496.44,498.691" svgx:width="0.33,0.4,0.48,0.6,0.4,0.55,0.61,0.6,0.44,0.48,0.61,0.25,0.83,0.29,0.33,0.58,0.25,0.6,0.48,0.4,0.88,0.29,0.42,0.42,0.29,0.55,0.58,0.25,0.33,0.4,0.55,0.88,0.25,0.61,0.58,0.48,0.25,0.67,0.55,0.56,0.5,0.29,0.25,0.52,0.55,0.44,0.29,0.48,0.33,0.56,0.25,0.55,0.33,0.25,0.71,0.58,0.48,0.88,0.29,0.42,0.33,0.4,0.56,0.25,0.67,0.48,0.33,0.25,0.25,0.33,0.5,0.5,0.33,0.33,0.25,0.25,0.58,0.48,0.4,0.48,0.25,0.25,0.83,0.95,0.71,0.25,0.25,0.61,0.95,0.67,0.33,0.83,0.95,0.71,0.25,0.25" style="fill:rgb(0,0,0);font-family:PalatinoLinotype;font-size:9.0px;stroke:none;">(reproduced with permission from The Royal Society of Chemistry Ref. [38]); here, NMC, LMR-NMC, </text>
   <text y="444.814" x="98.971,104.476,110.864,117.944,120.2,122.12,126.626,131.871,137.376,139.296,144.801,149.78,155.18,157.04,161.546,165.107,169.425,171.344,173.97,176.595,179.535,184.78,187.405,192.805,200.727,203.73,208.974,211.6,215.562,220.54,224.86,227.486,230.489,238.411,242.911,248.155,253.134,257.64,262.884,267.202,271.024,275.404,278.404,282.406,287.327,292.31,296.816,299.441,302.382,304.291,309.208,313.827,316.407,321.929,326.243,328.464,330.383,335.845,338.484,340.404,344.908,350.149,355.652,357.572,366.089,371.331,374.331,377.89,380.513,384.512,389.754,391.673,394.254,396.834,399.773,405.014,407.637,413.037,420.959,423.959,429.201,431.823,435.823,440.802,445.122,447.744,450.745,458.667,463.167,468.408,473.387,477.891,483.132,487.447,491.267,495.581" svgx:width="0.61,0.71,0.79,0.25,0.25,0.5,0.58,0.61,0.25,0.61,0.56,0.6,0.25,0.5,0.4,0.48,0.25,0.29,0.29,0.33,0.58,0.29,0.6,0.88,0.33,0.58,0.29,0.44,0.56,0.48,0.29,0.33,0.88,0.5,0.58,0.56,0.5,0.58,0.48,0.42,0.48,0.33,0.44,0.55,0.55,0.5,0.29,0.33,0.25,0.55,0.52,0.29,0.61,0.48,0.25,0.25,0.61,0.29,0.25,0.5,0.58,0.61,0.25,0.95,0.58,0.33,0.4,0.29,0.44,0.58,0.25,0.29,0.29,0.33,0.58,0.29,0.6,0.88,0.33,0.58,0.29,0.44,0.56,0.48,0.29,0.33,0.88,0.5,0.58,0.56,0.5,0.58,0.48,0.42,0.48,0.33" style="fill:rgb(0,0,0);font-family:PalatinoLinotype;font-size:9.0px;stroke:none;">LCO, and LFP are lithium-nickel-manganese-cobalt oxide, Li and Mn-rich lithium-nickel-manganese-</text>
   <text y="457.834" x="98.971,102.977,107.901,112.888,117.398,120.026,122.97,125.13,130.054,134.673,137.253,142.775,147.096,149.356,151.455,154.084,156.713,159.591,164.839,167.468,172.868,180.79,183.797,187.803,192.727,197.714,202.224,204.852,207.796,209.956,214.88,219.499,222.128,227.637,231.958,234.218,236.317,240.827,246.075,251.584,253.744,256.373,259.002,261.946,267.105,269.745,275.145,283.067,286.074,288.703,292.268,297.211,302.453,304.613,310.025,315.267,320.185,324.004,329.417,334.659,339.162,342.1,346.414,348.668,350.828,354.387,358.701,362.521,367.933,372.193,376.214,379.152,381.774,386.863,391.123,393.745,398.753,401.007,403.167,407.67,412.912,418.414,420.574,425.303,430.032,432.192,436.695,441.937,447.439,449.539,457.031,462.551,464.711,469.215,472.773,477.088,479.248,483.068,487.985,490.608,493.23,498.733" svgx:width="0.44,0.55,0.55,0.5,0.29,0.33,0.25,0.55,0.52,0.29,0.61,0.48,0.25,0.25,0.29,0.29,0.33,0.58,0.29,0.6,0.88,0.33,0.44,0.55,0.55,0.5,0.29,0.33,0.25,0.55,0.52,0.29,0.61,0.48,0.25,0.25,0.5,0.58,0.61,0.25,0.29,0.29,0.33,0.58,0.29,0.6,0.88,0.33,0.29,0.4,0.55,0.58,0.25,0.6,0.58,0.55,0.42,0.6,0.58,0.5,0.33,0.48,0.25,0.25,0.4,0.48,0.42,0.6,0.48,0.44,0.33,0.29,0.56,0.48,0.29,0.56,0.25,0.25,0.5,0.58,0.61,0.25,0.52,0.52,0.25,0.5,0.58,0.61,0.25,0.83,0.61,0.25,0.5,0.4,0.48,0.25,0.42,0.55,0.29,0.29,0.61,0.25" style="fill:rgb(0,0,0);font-family:PalatinoLinotype;font-size:9.0px;stroke:none;">cobalt oxide, lithium-cobalt oxide, and lithium-iron phosphate, respectively; and SS and HT are solid </text>
   <text y="470.855" x="98.971,102.782,105.71,110.205,113.133,117.439,119.719,124.213,129.446,134.939,137.219,142.452,147.45,152.944,156.494,161.402,164.331,169.563,173.869,177.419,185.36,189.855,192.468,194.748,198.559,203.557,208.79,211.719,216.951,221.257,225.067,227.681,231.492,233.771,241.713,246.018,248.947,254.18,259.088,264.582,268.392,270.637" svgx:width="0.42,0.33,0.5,0.33,0.48,0.25,0.5,0.58,0.61,0.25,0.58,0.56,0.61,0.4,0.55,0.33,0.58,0.48,0.4,0.88,0.5,0.29,0.25,0.42,0.56,0.58,0.33,0.58,0.48,0.42,0.29,0.42,0.25,0.88,0.48,0.33,0.58,0.55,0.61,0.42,0.25,0.25" style="fill:rgb(0,0,0);font-family:PalatinoLinotype;font-size:9.0px;stroke:none;">state and hydrothermal synthesis methods. </text>
   <text y="496.054" x="298.831" svgx:width="0.25" style="fill:rgb(0,0,0);font-family:PalatinoLinotype;font-size:10.02px;stroke:none;"> </text>
   <text y="733.054" x="449.551" svgx:width="0.25" style="fill:rgb(0,0,0);font-family:PalatinoLinotype;font-size:10.02px;stroke:none;"> </text>
   <text y="749.314" x="98.971,103.989,106.983,111.983,117.479,120.976,125.472,127.722,130.512,135.009,137.255" svgx:width="0.56,0.33,0.56,0.61,0.39,0.5,0.25,0.55,0.5,0.25,0.25" style="fill:rgb(0,0,0);font-family:PalatinoLinotype,Bold;font-size:9.0px;stroke:none;">Figure 4. </text>
   <text y="749.314" x="142.231,149.13,153.63,157.429,159.679,162.469,166.763,174.693,177.332,181.114,184.955,187.595,192.492,197.713,201.512,203.762,206.552,209.531,214.428,217.966,220.216,223.006,226.847,231.826,237.047,239.964,245.185,249.479,253.32,255.9,259.699,261.949,264.739,272.669,276.963,279.88,285.101,289.998,295.519,299.318,301.568,304.358,307.338,312.235,315.773,318.023,320.753,325.853,330.451,333.999,336.611,341.517,346.937,350.746,352.996,355.786,360.279,364.268,367.194,369.806,374.884,379.188,381.438,384.228,392.168,396.66,399.587,403.891,407.439,410.051,414.543,417.151,420.945,423.195,425.985,428.961,432.494,436.783,442.171,445.704,450.596,456.074,461.479,465.5,469.82,475.342,477.592,480.382,487.866,490.506,493.418,498.635" svgx:width="0.76,0.5,0.42,0.25,0.55,0.48,0.88,0.29,0.42,0.42,0.29,0.55,0.58,0.42,0.25,0.55,0.33,0.55,0.4,0.25,0.55,0.42,0.56,0.58,0.33,0.58,0.48,0.42,0.29,0.42,0.25,0.55,0.88,0.48,0.33,0.58,0.55,0.61,0.42,0.25,0.55,0.33,0.55,0.4,0.25,0.55,0.56,0.5,0.4,0.29,0.55,0.6,0.42,0.25,0.55,0.5,0.44,0.33,0.29,0.56,0.48,0.25,0.55,0.88,0.5,0.33,0.48,0.4,0.29,0.5,0.29,0.42,0.25,0.55,0.33,0.4,0.48,0.6,0.4,0.55,0.61,0.6,0.44,0.48,0.61,0.25,0.55,0.83,0.29,0.33,0.58,0.25" style="fill:rgb(0,0,0);font-family:PalatinoLinotype;font-size:9.0px;stroke:none;">Gas emissions for synthesis methods for various active materials (reproduced with </text>
   <text y="762.334" x="98.971,104.385,108.7,112.26,120.181,122.805,126.625,130.446,133.069,137.988,143.23,145.87,148.872,152.431,157.292,165.214,167.853,173.375,178.617,182.933,185.573,191.589,196.508,201.486,205.986,208.61,211.25,215.931,220.852,224.852,227.476,231.791,234.73,239.709,242.348,247.267,250.207,252.847,259.232,264.475,268.79,276.712,279.336,283.156,286.095,289.654,294.633,297.273,303.289,307.605,310.606,312.826,315.466,318.468,322.972,327.477,330.478,333.418,335.639,338.278,343.521,347.836,351.396,355.711,357.966,360.546,368.03,376.548,382.934,385.573,390.078,395.237,400.741,403.381,408.884,417.403,423.419,426.359,433.843,442.361,448.747,451.387,455.826,459.366,463.682,466.321,468.945,471.568,474.507,479.749,482.373,487.773,495.695" svgx:width="0.6,0.48,0.4,0.88,0.29,0.42,0.42,0.29,0.55,0.58,0.25,0.33,0.4,0.55,0.88,0.25,0.61,0.58,0.48,0.25,0.67,0.55,0.56,0.5,0.29,0.25,0.52,0.55,0.44,0.29,0.48,0.33,0.56,0.25,0.55,0.33,0.25,0.71,0.58,0.48,0.88,0.29,0.42,0.33,0.4,0.56,0.25,0.67,0.48,0.33,0.25,0.25,0.33,0.5,0.5,0.33,0.33,0.25,0.25,0.58,0.48,0.4,0.48,0.25,0.25,0.83,0.95,0.71,0.25,0.5,0.58,0.61,0.25,0.61,0.95,0.67,0.33,0.83,0.95,0.71,0.25,0.5,0.4,0.48,0.25,0.29,0.29,0.33,0.58,0.29,0.6,0.88,0.33" style="fill:rgb(0,0,0);font-family:PalatinoLinotype;font-size:9.0px;stroke:none;">permission from The Royal Society of Chemistry Ref. [38]); here, NMC and LMR-NMC are lithium-</text>
   <text y="775.354" x="98.971,104.219,106.848,110.854,115.833,120.153,122.782,125.789,133.711,138.221,143.469,148.448,152.948,158.196,162.516,166.342,170.663,173.67,177.676,182.6,187.587,192.026,194.666,197.61,199.86,200.79,205.714,210.333,212.961,218.423,222.744,224.994,225.923,230.433,235.651,241.158,243.408,244.338,249.845,252.426,254.676,255.605,260.113,265.359,270.867,273.117,273.987,282.509,287.755,290.76,294.323,296.95,300.954,306.201,308.451,309.38,312.007,314.634,317.577,322.823,325.45,330.789,338.711,341.716,346.962,349.59,353.594,358.572,362.892,365.519,368.491,376.446,380.954,386.201,391.213,395.721,400.967,405.286,409.11,413.429,416.434,420.438,425.36,430.346,434.854,437.481,440.359,442.609,443.539,448.4,453.018,455.645,461.153,465.472,467.73,469.98,470.85,475.583,480.316,482.566,483.496,488.004,493.25,498.711" svgx:width="0.58,0.29,0.44,0.56,0.48,0.29,0.33,0.88,0.5,0.58,0.56,0.5,0.58,0.48,0.42,0.48,0.33,0.44,0.55,0.55,0.5,0.29,0.33,0.25,0.55,0.55,0.52,0.29,0.61,0.48,0.25,0.55,0.5,0.58,0.61,0.25,0.55,0.61,0.29,0.25,0.55,0.5,0.58,0.61,0.25,0.55,0.95,0.58,0.33,0.4,0.29,0.44,0.58,0.25,0.55,0.29,0.29,0.33,0.58,0.29,0.6,0.88,0.33,0.58,0.29,0.44,0.56,0.48,0.29,0.33,0.88,0.5,0.58,0.56,0.5,0.58,0.48,0.42,0.48,0.33,0.44,0.55,0.55,0.5,0.29,0.33,0.25,0.55,0.55,0.52,0.29,0.61,0.48,0.25,0.25,0.55,0.52,0.52,0.25,0.55,0.5,0.58,0.61,0.25" style="fill:rgb(0,0,0);font-family:PalatinoLinotype;font-size:9.0px;stroke:none;">nickel-manganese-cobalt oxide and Li and Mn-rich lithium-nickel-manganese-cobalt oxide; SS and </text>
   <text y="788.375" x="98.971,106.468,111.994,114.274,118.783,122.347,126.667,128.887,132.712,137.635,140.263,142.843,148.351,150.572,154.397,157.275,161.784,164.727,169.047,171.327,175.836,181.083,186.591,188.87,194.117,199.096,204.604,208.168,213.091,215.969,221.216,225.536,229.1,237.022,241.531,244.159,246.439,250.264,255.242,260.489,263.432,268.679,272.999,276.824,279.452,283.277,285.557,293.479,297.799,300.742,305.989,310.912,316.373,320.198,322.418,324.698,329.207,334.454,339.962,342.242,349.08,356.58,363.418,365.698,368.326,372.107,374.387,379.366,382.906,387.226,391.485,396.732,401.979,406.902,412.302,416.144,420.464,422.743,427.722,432.222,436.047,438.267" svgx:width="0.83,0.61,0.25,0.5,0.4,0.48,0.25,0.42,0.55,0.29,0.29,0.61,0.25,0.42,0.33,0.5,0.33,0.48,0.25,0.5,0.58,0.61,0.25,0.58,0.56,0.61,0.4,0.55,0.33,0.58,0.48,0.4,0.88,0.5,0.29,0.25,0.42,0.56,0.58,0.33,0.58,0.48,0.42,0.29,0.42,0.25,0.88,0.48,0.33,0.58,0.55,0.61,0.42,0.25,0.25,0.5,0.58,0.61,0.25,0.76,0.83,0.76,0.25,0.29,0.42,0.25,0.56,0.4,0.48,0.48,0.58,0.58,0.55,0.6,0.42,0.48,0.25,0.56,0.5,0.42,0.25,0.25" style="fill:rgb(0,0,0);font-family:PalatinoLinotype;font-size:9.0px;stroke:none;">HT are solid state and hydrothermal synthesis methods; and GHG is greenhouse gas. </text>
   <text y="813.514" x="77.731,82.745,85.254,87.774,94.855,99.895,104.348,109.923,114.305,117.665,121.005,127.132,132.707,135.167,142.966,149.092,155.219,159.12,164.696,169.71,174.162,180.224,185.238,189.619" svgx:width="0.5,0.25,0.25,0.71,0.5,0.44,0.56,0.44,0.33,0.33,0.61,0.56,0.25,0.78,0.61,0.61,0.39,0.56,0.5,0.44,0.61,0.5,0.44,0.25" style="fill:rgb(0,0,0);font-family:PalatinoLinotype,Bold;font-size:10.02px;stroke:none;">4. Recycling Approaches </text>
   <text y="833.014" x="98.971,105.67,110.474,114.928,120.504,124.886,127.807,130.728,136.487,142.063,145.063,150.464,153.764,156.704,162.831,166.213,172.34,176.593,179.593,185.353,190.393,194.594,197.594,203.14,207.945,212.684,218.504,221.504,225.705,229.004,235.051,241.112,244.033,248.838,254.9,257.84,262.855,267.056,269.996,274.8,279.815,283.715,286.655,292.173,295.173,300.153,304.415,307.354,312.334,315.694,318.966,323.705,327.668,330.608,333.879,339.716,344.456,347.456,351.909,357.385,366.238,375.091,379.895,383.858,388.312,391.192,396.232,399.112,402.052,407.032,412.012,415.31,418.231,423.707,429.466,432.466,437.942,441.242,444.242,450.304,457.384,465.265,468.265,473.811,478.791,482.062,485.301,490.105,494.068,496.989,501.729,505.982,508.922,514.468,519.986" svgx:width="0.67,0.48,0.44,0.56,0.44,0.29,0.29,0.58,0.56,0.25,0.55,0.33,0.25,0.61,0.34,0.61,0.42,0.25,0.58,0.5,0.42,0.25,0.55,0.48,0.48,0.58,0.25,0.42,0.33,0.6,0.61,0.29,0.48,0.61,0.25,0.5,0.42,0.25,0.48,0.5,0.4,0.29,0.56,0.25,0.5,0.42,0.25,0.5,0.33,0.33,0.48,0.4,0.25,0.33,0.58,0.48,0.25,0.44,0.55,0.88,0.88,0.48,0.4,0.44,0.29,0.5,0.29,0.29,0.5,0.5,0.33,0.29,0.55,0.58,0.25,0.55,0.33,0.25,0.61,0.71,0.79,0.25,0.55,0.5,0.33,0.33,0.48,0.4,0.29,0.48,0.42,0.25,0.55,0.56,0.25" style="fill:rgb(0,0,0);font-family:PalatinoLinotype;font-size:10.02px;stroke:none;">Recycling of LIBs has been studied as early as after the commercialization of LCO batteries by </text>
   <text y="846.514" x="77.731,83.001,88.48,94.321,99.901,102.40599999999999,103.562,106.486,112.327,114.832,115.927,120.907,125.947,130.927,135.907,138.412,139.567,142.913,147.893,152.912,156.212,158.726,161.231,162.386,168.537,174.378,179.186,181.691,182.847,186.146,189.086,193.053,197.255,200.53,203.035,204.19,212.556,218.036,222.003,227.583,230.088,231.243,236.723,242.564,245.069,246.224,252.356,255.656,261.787,266.045,268.55,269.705,273.672,278.481,282.939,288.519,292.9,295.825,298.75,304.51,310.09,312.59499999999997,313.75,318.769,322.045,324.55,325.705,331.644,334.569,337.493,342.894,346.17,348.675,349.83,352.755,357.563,363.234,367.974,370.899,373.404,374.499,378.757,381.995,387.014,390.981,394.22,399.019,405.15,407.655,408.811,411.736,417.576,420.081,421.176,426.156,431.136,436.155,441.174,443.679,444.835,450.385,455.965,458.46999999999997,459.565,466.267,471.076,475.458,481.518,487.457,493.035,495.96,498.465,499.62,507.986,510.865,514.141,519.982" svgx:width="0.52,0.55,0.58,0.56,0.25,0.55,0.29,0.58,0.25,0.55,0.5,0.5,0.5,0.5,0.25,0.55,0.33,0.5,0.5,0.33,0.25,0.25,0.55,0.61,0.58,0.48,0.25,0.55,0.33,0.29,0.4,0.42,0.33,0.25,0.55,0.83,0.55,0.4,0.56,0.25,0.55,0.55,0.58,0.25,0.55,0.61,0.34,0.61,0.42,0.25,0.55,0.4,0.48,0.44,0.56,0.44,0.29,0.29,0.58,0.56,0.25,0.55,0.5,0.33,0.25,0.55,0.6,0.29,0.29,0.55,0.33,0.25,0.55,0.29,0.48,0.56,0.48,0.29,0.25,0.55,0.42,0.33,0.5,0.4,0.33,0.48,0.61,0.25,0.55,0.29,0.58,0.25,0.55,0.5,0.5,0.5,0.5,0.25,0.55,0.55,0.56,0.25,0.55,0.67,0.48,0.44,0.6,0.6,0.56,0.29,0.25,0.55,0.83,0.29,0.33,0.58,0.25" style="fill:rgb(0,0,0);font-family:PalatinoLinotype;font-size:10.02px;stroke:none;">Sony in 1991 [21]. The first work on LIBs recycling at pilot level started in 1995 by Recupyl with </text>
  </g>
  <rect style="stroke:blue;stroke-width:0.3;" x="158.611" y="163.404" height="197.28" width="280.26" title="6"/>
  <text y="163.404" class="image" id="image.6.1" width="280" height="197" x="158.611">image.6.1.159_439.163_361</text>
  <rect style="stroke:blue;stroke-width:0.3;" x="148.111" y="469.164" height="222.0" width="301.5" title="6"/>
  <text y="469.164" class="image" id="image.6.2" width="301" height="222" x="148.111">image.6.2.148_450.469_691</text>
  <g begin="text">
   <text y="422.531" x="97.795,102.78,105.766,110.751,116.23,119.718,124.203,125.994,130.478" svgx:width="0.56,0.33,0.56,0.61,0.39,0.5,0.55,0.5,0.25" style="fill:rgb(0,0,0);font-family:URWPalladioL-Bold;font-size:8.97px;stroke:none;">Figure 3.</text>
   <text y="422.531" x="135.713,141.082,146.196,150.405,153.718,158.603,163.6262,165.282,169.183,173.981,179.095,182.821,188.119,195.878,201.159,204.024,206.581,211.378,216.58059999999998,218.294,221.22,226.018,229.606,231.281,236.65" svgx:width="0.61,0.58,0.48,0.4,0.56,0.56,0.55,0.44,0.55,0.58,0.42,0.6,0.88,0.6,0.33,0.29,0.55,0.58,0.55,0.33,0.55,0.4,0.55,0.61,0.29" style="fill:rgb(0,0,0);font-family:URWPalladioL-Roma;font-size:8.97px;stroke:none;">Energy consumption for di</text>
   <text y="422.531" x="239.208" svgx:width="0.61" style="fill:rgb(0,0,0);font-family:Rpxr;font-size:8.97px;stroke:none;">ﬀ</text>
   <text y="422.531" x="244.551,248.76,252.073,256.282,261.396,264.3561,266.053,269.779,274.664,279.778,282.643,287.757,291.966,295.692,298.249,302.01640000000003,303.776,311.535,315.744,318.608,323.723,328.52,333.889,337.6564,339.407,343.801,348.915,354.3867,356.085,361.05,365.444,368.914,371.471,376.269,381.568,385.3354,387.086,391.48,395.381,398.246,400.803,405.767,410.0726,411.778,419.537,423.93,426.795,431.004,434.475,437.032,441.425,443.982,447.74940000000004,449.501,452.427,455.739,459.948,465.229,468.533,473.331,478.7,483.999,487.9,492.109" svgx:width="0.48,0.4,0.48,0.58,0.33,0.55,0.42,0.56,0.58,0.33,0.58,0.48,0.42,0.29,0.42,0.55,0.88,0.48,0.33,0.58,0.55,0.61,0.42,0.55,0.5,0.58,0.61,0.55,0.56,0.5,0.4,0.29,0.55,0.6,0.42,0.55,0.5,0.44,0.33,0.29,0.56,0.48,0.55,0.88,0.5,0.33,0.48,0.4,0.29,0.5,0.29,0.42,0.55,0.33,0.4,0.48,0.6,0.4,0.55,0.61,0.6,0.44,0.48,0.61" style="fill:rgb(0,0,0);font-family:URWPalladioL-Roma;font-size:8.97px;stroke:none;">erent synthesis methods and various active materials (reproduced</text>
   <text y="435.353" x="97.419,104.747,107.304,110.169,115.3716,117.322,122.603,126.812,130.283,138.042,140.599,144.324,148.05,150.607,155.405,160.6076,162.566,165.492,168.796,173.594,183.401,188.787,193.901,198.2066,200.149,206.018,210.816,215.702,220.095,222.6963,224.7,229.313,234.111,238.012,240.569,244.778,247.643,252.6662,254.567,259.365,262.3251,264.338,270.568,275.682,279.891,287.65,290.207,293.933,296.798,300.269,305.2922,307.193,313.063,317.272,320.198,322.4405,324.442" svgx:width="0.83,0.29,0.33,0.58,0.55,0.6,0.48,0.4,0.88,0.29,0.42,0.42,0.29,0.55,0.58,0.55,0.33,0.4,0.55,0.88,0.61,0.58,0.48,0.55,0.67,0.55,0.56,0.5,0.29,0.55,0.52,0.55,0.44,0.29,0.48,0.33,0.56,0.55,0.55,0.33,0.55,0.71,0.58,0.48,0.88,0.29,0.42,0.33,0.4,0.56,0.55,0.67,0.48,0.33,0.25,0.55,0.33" style="fill:rgb(0,0,0);font-family:URWPalladioL-Roma;font-size:8.97px;stroke:none;">with permission fromThe Royal Society of Chemistry Ref. [</text>
   <text y="435.353" x="327.364,331.847" svgx:width="0.5,0.5" style="fill:rgb(8,117,183);font-family:URWPalladioL-Roma;font-size:8.97px;stroke:none;">38</text>
   <text y="435.353" x="336.33,339.256,342.182,344.4245,346.488,351.602,355.811,359.124,363.333,365.57550000000003,367.612,374.914,383.227,389.457,391.6995,393.692,399.061,407.373,413.243,416.169,423.471,431.784,438.014,440.2565,442.258,447.627,453.857,460.764,463.0065,464.999,469.393,474.507,479.9787,481.923,487.292,492.178" svgx:width="0.33,0.33,0.25,0.55,0.58,0.48,0.4,0.48,0.25,0.55,0.83,0.95,0.71,0.25,0.55,0.61,0.95,0.67,0.33,0.83,0.95,0.71,0.25,0.55,0.61,0.71,0.79,0.25,0.55,0.5,0.58,0.61,0.55,0.61,0.56,0.6" style="fill:rgb(0,0,0);font-family:URWPalladioL-Roma;font-size:8.97px;stroke:none;">]); here, NMC, LMR-NMC, LCO, and LFP</text>
   <text y="448.175" x="97.795,102.368,105.816,110.1216,112.556,115.218,117.879,120.861,126.183,128.845,134.36,142.435,145.481,150.804,153.465,157.526,162.611,166.992,169.653,172.699,180.774,185.347,190.67,195.755,200.328,205.651,210.031,213.909,218.29,221.335,225.396,230.39,235.447,240.02,242.682,245.6421,248.014,253.007,257.726,260.388,265.976,270.357,272.59950000000003,275.03,280.618,283.2193,285.639,290.212,295.535,301.0067,303.473,312.125,317.448,320.493,324.106,326.767,330.828,336.0306,338.511,341.172,343.833,346.815,352.138,354.799,360.314,368.39,371.435,376.758,379.419,383.48,388.565,392.946,395.607,398.653,406.729,411.301,416.624,421.709,426.282,431.605,435.986,439.863,444.244,447.29,451.351,456.344,461.402,465.975,468.636,471.59610000000004,473.968,478.961,483.681,486.342,491.93,496.311" svgx:width="0.5,0.4,0.48,0.55,0.29,0.29,0.33,0.58,0.29,0.6,0.88,0.33,0.58,0.29,0.44,0.56,0.48,0.29,0.33,0.88,0.5,0.58,0.56,0.5,0.58,0.48,0.42,0.48,0.33,0.44,0.55,0.55,0.5,0.29,0.33,0.55,0.55,0.52,0.29,0.61,0.48,0.25,0.55,0.61,0.29,0.55,0.5,0.58,0.61,0.55,0.95,0.58,0.33,0.4,0.29,0.44,0.58,0.55,0.29,0.29,0.33,0.58,0.29,0.6,0.88,0.33,0.58,0.29,0.44,0.56,0.48,0.29,0.33,0.88,0.5,0.58,0.56,0.5,0.58,0.48,0.42,0.48,0.33,0.44,0.55,0.55,0.5,0.29,0.33,0.55,0.55,0.52,0.29,0.61,0.48,0.25" style="fill:rgb(0,0,0);font-family:URWPalladioL-Roma;font-size:8.97px;stroke:none;">are lithium-nickel-manganese-cobalt oxide, Li and Mn-rich lithium-nickel-manganese-cobalt oxide,</text>
   <text y="460.997" x="97.795,100.456,103.118,106.099,111.422,114.084,119.598,127.674,130.72,134.78,139.774,144.831,149.404,152.066,155.0261,157.855,162.849,167.568,170.229,175.817,180.198,182.44050000000001,185.438,190.011,195.334,200.8057,203.739,206.4,209.062,212.043,217.366,220.028,225.543,233.618,236.664,239.325,242.773,247.767,252.96959999999999,255.897,261.394,266.717,271.71,275.588,281.085,286.407,290.98,293.962,298.342,300.5845,303.583,307.04,311.421,315.299,320.795,325.176,329.237,332.209,334.87,340.038,344.419,347.08,352.165,354.4075,357.552,362.125,367.448,372.9197,375.843,380.645,385.3094,388.263,392.836,398.159,403.6307,406.555,414.164,419.6357,422.578,427.151,430.608,434.91360000000003,437.797,441.674,446.668,449.329,451.991,457.4627,460.396,464.273,467.255,471.828,474.809,479.11460000000005,481.998,486.571,491.894" svgx:width="0.29,0.29,0.33,0.58,0.29,0.6,0.88,0.33,0.44,0.55,0.55,0.5,0.29,0.33,0.55,0.55,0.52,0.29,0.61,0.48,0.25,0.55,0.5,0.58,0.61,0.55,0.29,0.29,0.33,0.58,0.29,0.6,0.88,0.33,0.29,0.4,0.55,0.58,0.55,0.6,0.58,0.55,0.42,0.6,0.58,0.5,0.33,0.48,0.25,0.55,0.4,0.48,0.42,0.6,0.48,0.44,0.33,0.29,0.56,0.48,0.29,0.56,0.25,0.55,0.5,0.58,0.61,0.55,0.52,0.52,0.55,0.5,0.58,0.61,0.55,0.83,0.61,0.55,0.5,0.4,0.48,0.55,0.42,0.55,0.29,0.29,0.61,0.55,0.42,0.33,0.5,0.33,0.48,0.55,0.5,0.58,0.61" style="fill:rgb(0,0,0);font-family:URWPalladioL-Roma;font-size:8.97px;stroke:none;">lithium-cobalt oxide, and lithium-iron phosphate, respectively; and SS and HT are solid state and</text>
   <text y="473.819" x="97.795,103.013,107.999,113.477,116.858,121.753,124.676,129.895,134.19,137.731,145.649,150.132,152.7333,154.983,158.784,163.77,168.988,171.911,177.13,181.425,185.226,187.836,191.60340000000002,193.879,201.796,206.091,209.014,214.233,219.128,224.607,228.409" svgx:width="0.58,0.56,0.61,0.4,0.55,0.33,0.58,0.48,0.4,0.88,0.5,0.29,0.55,0.42,0.56,0.58,0.33,0.58,0.48,0.42,0.29,0.42,0.55,0.88,0.48,0.33,0.58,0.55,0.61,0.42,0.25" style="fill:rgb(0,0,0);font-family:URWPalladioL-Roma;font-size:8.97px;stroke:none;">hydrothermal synthesis methods.</text>
  </g>
  <g begin="text">
   <text y="103.342" x="76.586,84.126,87.677,90.341,93.453,96.564,98.79,102.34,104.565,107.677" svgx:width="0.94,0.44,0.33,0.39,0.39,0.28,0.44,0.28,0.39,0.25" style="fill:rgb(0,0,0);font-family:PalatinoLinotype,Italic;font-size:7.98px;stroke:none;">Materials </text>
   <text y="103.342" x="109.646,113.667,117.687,121.707" svgx:width="0.5,0.5,0.5,0.5" style="fill:rgb(0,0,0);font-family:PalatinoLinotype,Bold;font-size:7.98px;stroke:none;">2020</text>
   <text y="103.342" x="125.726,127.706" svgx:width="0.25,0.25" style="fill:rgb(0,0,0);font-family:PalatinoLinotype;font-size:7.98px;stroke:none;">, </text>
   <text y="103.342" x="129.686,133.706" svgx:width="0.5,0.5" style="fill:rgb(0,0,0);font-family:PalatinoLinotype,Italic;font-size:7.98px;stroke:none;">13</text>
   <text y="103.342" x="137.666,139.666,141.646,145.769,147.749,152.192,158.47,163.806,165.845,170.671,175.552,180.434,185.77,187.75,193.086,197.967,203.735,206.429,211.311,219.351,221.346,492.626,496.644,498.639,500.184,504.57,507.21,509.205,510.75,514.769,518.787" svgx:width="0.25,0.25,0.52,0.25,0.56,0.79,0.67,0.25,0.6,0.61,0.61,0.67,0.25,0.67,0.61,0.72,0.34,0.61,1.0,0.25,0.55,0.5,0.25,0.55,0.55,0.33,0.25,0.55,0.5,0.5,0.25" style="fill:rgb(0,0,0);font-family:PalatinoLinotype;font-size:7.98px;stroke:none;">, x FOR PEER REVIEW 6 of 47 </text>
   <text y="841.402" x="76.586" svgx:width="0.25" style="fill:rgb(0,0,0);font-family:TimesNewRoman;font-size:9.0px;stroke:none;"> </text>
   <text y="129.202" x="120.326,126.448,132.019,138.142,141.478,147.539,152.579,156.961,160.321,164.77,167.29,177.25,182.29,185.626,191.687,197.259,203.32,205.825,246.64,252.762,258.885,261.39,300.944,307.067,313.189,315.694,353.929,362.276,368.959,371.464,408.26,416.606,423.29,425.795,463.97,470.092,476.214" svgx:width="0.61,0.56,0.61,0.33,0.61,0.5,0.44,0.33,0.44,0.25,1.0,0.5,0.33,0.61,0.56,0.61,0.25,0.55,0.61,0.61,0.25,0.55,0.61,0.61,0.25,0.55,0.83,0.67,0.25,0.55,0.83,0.67,0.25,0.55,0.61,0.61,0.25" style="fill:rgb(0,0,0);font-family:PalatinoLinotype,Bold;font-size:10.02px;stroke:none;">Synthesis Method SS SS HT HT SS </text>
  </g>
  <g begin="text">
   <text y="143.242" x="138.026,144.738,149.557,152.857,157.656,161.633,166.452,172.302,176.77,181.589,185.79,188.295,244.591,247.946,252.926,257.955,261.255,263.76,298.875,302.231,307.211,312.24,315.539,318.044,353.22,356.575,361.555,366.584,369.884,372.389,407.504,410.86,415.84,420.869,424.168,426.673,461.788,465.144,470.124,475.153,478.453" svgx:width="0.67,0.48,0.33,0.48,0.4,0.48,0.58,0.44,0.48,0.42,0.25,0.55,0.33,0.5,0.5,0.33,0.25,0.55,0.33,0.5,0.5,0.33,0.25,0.55,0.33,0.5,0.5,0.33,0.25,0.55,0.33,0.5,0.5,0.33,0.25,0.55,0.33,0.5,0.5,0.33,0.25" style="fill:rgb(0,0,0);font-family:PalatinoLinotype;font-size:10.02px;stroke:none;">References [41] [39] [37] [38] [38] </text>
  </g>
  <g begin="text">
   <text y="156.682" x="104.966,112.603,122.615,128.659,131.179,134.508,140.071,145.634,148.154,155.25" svgx:width="0.76,1.0,0.6,0.25,0.33,0.56,0.56,0.25,0.71,0.79" style="fill:rgb(0,0,0);font-family:PalatinoLinotype;font-size:10.02px;stroke:none;">GWP (kg CO</text>
   <text y="156.682" x="163.106" svgx:width="0.5" style="fill:rgb(0,0,0);font-family:PalatinoLinotype;font-size:6.0px;stroke:none;">2</text>
   <text y="156.682" x="166.046,168.566,173.388,178.967,185.031,187.969,193.549,198.589,201.527,206.348,212.108,215.407,218.706,221.21099999999998,246.606,251.638,254.098,259.078,261.58299999999997,300.898,305.93,308.39,313.37,315.875,355.25,360.282,362.742,367.722,370.227,409.542,414.574,417.034,422.014,424.519,463.834,468.866,471.326,476.306" svgx:width="0.25,0.48,0.56,0.6,0.29,0.56,0.5,0.29,0.48,0.58,0.33,0.33,0.25,0.55,0.5,0.25,0.5,0.25,0.55,0.5,0.25,0.5,0.25,0.55,0.5,0.25,0.5,0.25,0.55,0.5,0.25,0.5,0.25,0.55,0.5,0.25,0.5,0.25" style="fill:rgb(0,0,0);font-family:PalatinoLinotype;font-size:10.02px;stroke:none;"> equivalent) 4.2 2.0 5.3 4.5 3.0 </text>
   <text y="170.182" x="104.546,110.679,116.522,121.333,125.302,130.884,136.466,138.926,143.386,148.868,154.71,158.97,164.97,173.791,179.79,183.089,186.016,191.498,197.34,199.8,203.148,212.57,215.918,219.217,221.722,243.637,251.975,254.491,259.712,262.172,264.677,302.252,307.273,312.253,314.758,352.333,360.671,363.187,368.408,370.868,373.373,410.828,415.849,420.829,423.334,465.169,470.19,475.17" svgx:width="0.61,0.58,0.48,0.4,0.56,0.56,0.25,0.44,0.55,0.58,0.42,0.6,0.88,0.6,0.33,0.29,0.55,0.58,0.25,0.33,0.95,0.33,0.33,0.25,0.55,0.83,0.25,0.52,0.25,0.25,0.55,0.5,0.5,0.25,0.55,0.83,0.25,0.52,0.25,0.25,0.55,0.5,0.5,0.25,0.55,0.5,0.5,0.25" style="fill:rgb(0,0,0);font-family:PalatinoLinotype;font-size:10.02px;stroke:none;">Energy consumption (MJ) N.S. 19 N.S. 56 34 </text>
  </g>
  <path style="fill:rgb(0,0,0);stroke:none;stroke-width:0.8;" d="M334.590 173.240 L388.650 173.240 L388.650 174.200 L334.590 174.200 "/>
  <g begin="text">
   <text y="383.482" x="437.906" svgx:width="0.25" style="fill:rgb(0,0,0);font-family:PalatinoLinotype;font-size:10.02px;stroke:none;"> </text>
   <text y="399.742" x="97.826,102.853,105.854,110.863,116.366,119.872,124.376,126.626,130.076,134.58,136.835" svgx:width="0.56,0.33,0.56,0.61,0.39,0.5,0.25,0.55,0.5,0.25,0.25" style="fill:rgb(0,0,0);font-family:PalatinoLinotype,Bold;font-size:9.0px;stroke:none;">Figure 3. </text>
   <text y="399.742" x="142.526,148.034,153.281,157.541,161.081,166.059,171.038,173.288,176.738,180.743,185.666,190.913,194.738,200.138,208.06,213.478,216.421,219.049,223.972,229.219,231.469,234.918,237.924,242.847,246.411,248.661,252.111,257.619,260.247,263.253,266.259,270.579,274.059,278.379,283.626,286.569,288.819,292.268,296.093,301.072,306.319,309.262,314.509,318.829,322.654,325.282,329.107,331.357,334.747,342.669,346.989,349.932,355.179,360.102,365.61,369.435,371.685,375.135,379.644,384.891,390.399,392.649,396.039,401.133,405.642,409.206,411.834,416.757,422.157,425.982,428.232,431.682,436.191,440.196,443.139,445.719,450.813,455.073,457.323,460.773,468.694,473.194,476.137,480.457,484.021,486.649,491.158,493.786,497.611" svgx:width="0.61,0.58,0.48,0.4,0.56,0.56,0.25,0.55,0.44,0.55,0.58,0.42,0.6,0.88,0.6,0.33,0.29,0.55,0.58,0.25,0.55,0.33,0.55,0.4,0.25,0.55,0.61,0.29,0.33,0.33,0.48,0.4,0.48,0.58,0.33,0.25,0.55,0.42,0.56,0.58,0.33,0.58,0.48,0.42,0.29,0.42,0.25,0.55,0.88,0.48,0.33,0.58,0.55,0.61,0.42,0.25,0.55,0.5,0.58,0.61,0.25,0.55,0.56,0.5,0.4,0.29,0.55,0.6,0.42,0.25,0.55,0.5,0.44,0.33,0.29,0.56,0.48,0.25,0.55,0.88,0.5,0.33,0.48,0.4,0.29,0.5,0.29,0.42,0.25" style="fill:rgb(0,0,0);font-family:PalatinoLinotype;font-size:9.0px;stroke:none;">Energy consumption for different synthesis methods and various active materials </text>
   <text y="412.762" x="97.826,100.828,104.389,108.705,114.12,117.68,122.599,128.104,133.504,137.505,141.822,147.283,149.203,156.714,159.338,162.278,167.521,169.441,174.855,179.172,182.732,190.654,193.278,197.06,200.881,203.506,208.425,213.585,215.445,218.448,222.008,226.927,234.849,236.769,242.291,247.535,251.851,253.771,259.788,264.708,269.686,274.186,276.767,278.686,283.417,288.278,292.279,294.904,299.22,302.126,307.045,308.964,313.879,316.819,318.739,325.121,330.36,334.62,342.541,345.161,348.978,351.913,355.469,360.448,362.368,368.38,372.692,375.69,377.911,379.83,382.828,387.329,391.83,394.77,397.768,399.988,401.908,407.147,411.459,415.015,419.327,421.547,423.467,430.947,439.461,445.843,448.064,449.924,455.385,463.907,469.92,472.918,480.398,488.913,495.295,497.546" svgx:width="0.33,0.4,0.48,0.6,0.4,0.55,0.61,0.6,0.44,0.48,0.61,0.25,0.83,0.29,0.33,0.58,0.25,0.6,0.48,0.4,0.88,0.29,0.42,0.42,0.29,0.55,0.58,0.25,0.33,0.4,0.55,0.88,0.25,0.61,0.58,0.48,0.25,0.67,0.55,0.56,0.5,0.29,0.25,0.52,0.55,0.44,0.29,0.48,0.33,0.56,0.25,0.55,0.33,0.25,0.71,0.58,0.48,0.88,0.29,0.42,0.33,0.4,0.56,0.25,0.67,0.48,0.33,0.25,0.25,0.33,0.5,0.5,0.33,0.33,0.25,0.25,0.58,0.48,0.4,0.48,0.25,0.25,0.83,0.95,0.71,0.25,0.25,0.61,0.95,0.67,0.33,0.83,0.95,0.71,0.25,0.25" style="fill:rgb(0,0,0);font-family:PalatinoLinotype;font-size:9.0px;stroke:none;">(reproduced with permission from The Royal Society of Chemistry Ref. [38]); here, NMC, LMR-NMC, </text>
   <text y="425.722" x="97.826,103.331,109.719,116.799,119.055,120.975,125.481,130.726,136.231,138.15,143.656,148.635,154.035,155.895,160.401,163.962,168.28,170.199,172.825,175.45,178.39,183.635,186.26,191.66,199.582,202.585,207.829,210.455,214.417,219.395,223.715,226.341,229.344,237.266,241.766,247.01,251.989,256.495,261.739,266.057,269.879,274.259,277.259,281.261,286.182,291.165,295.671,298.296,301.237,303.146,308.063,312.682,315.262,320.784,325.098,327.319,329.238,334.7,337.339,339.259,343.763,349.004,354.507,356.427,364.944,370.186,373.186,376.745,379.368,383.367,388.609,390.529,393.109,395.689,398.628,403.869,406.492,411.892,419.814,422.814,428.056,430.678,434.678,439.657,443.977,446.599,449.6,457.522,462.022,467.263,472.242,476.746,481.987,486.302,490.122,494.436" svgx:width="0.61,0.71,0.79,0.25,0.25,0.5,0.58,0.61,0.25,0.61,0.56,0.6,0.25,0.5,0.4,0.48,0.25,0.29,0.29,0.33,0.58,0.29,0.6,0.88,0.33,0.58,0.29,0.44,0.56,0.48,0.29,0.33,0.88,0.5,0.58,0.56,0.5,0.58,0.48,0.42,0.48,0.33,0.44,0.55,0.55,0.5,0.29,0.33,0.25,0.55,0.52,0.29,0.61,0.48,0.25,0.25,0.61,0.29,0.25,0.5,0.58,0.61,0.25,0.95,0.58,0.33,0.4,0.29,0.44,0.58,0.25,0.29,0.29,0.33,0.58,0.29,0.6,0.88,0.33,0.58,0.29,0.44,0.56,0.48,0.29,0.33,0.88,0.5,0.58,0.56,0.5,0.58,0.48,0.42,0.48,0.33" style="fill:rgb(0,0,0);font-family:PalatinoLinotype;font-size:9.0px;stroke:none;">LCO, and LFP are lithium-nickel-manganese-cobalt oxide, Li and Mn-rich lithium-nickel-manganese-</text>
   <text y="438.742" x="97.826,101.832,106.756,111.743,116.253,118.882,121.825,123.985,128.909,133.528,136.108,141.63,145.951,148.211,150.31,152.939,155.568,158.446,163.694,166.323,171.723,179.645,182.652,186.658,191.582,196.569,201.079,203.707,206.651,208.811,213.735,218.354,220.983,226.492,230.813,233.073,235.172,239.682,244.93,250.439,252.599,255.228,257.857,260.801,265.96,268.6,274.0,281.922,284.929,287.558,291.123,296.066,301.308,303.468,308.88,314.122,319.04,322.859,328.272,333.514,338.017,340.955,345.269,347.523,349.683,353.242,357.556,361.376,366.788,371.048,375.069,378.007,380.629,385.718,389.978,392.6,397.608,399.862,402.022,406.525,411.767,417.269,419.429,424.158,428.887,431.047,435.55,440.792,446.294,448.394,455.886,461.406,463.566,468.07,471.628,475.943,478.103,481.923,486.84,489.463,492.085,497.588" svgx:width="0.44,0.55,0.55,0.5,0.29,0.33,0.25,0.55,0.52,0.29,0.61,0.48,0.25,0.25,0.29,0.29,0.33,0.58,0.29,0.6,0.88,0.33,0.44,0.55,0.55,0.5,0.29,0.33,0.25,0.55,0.52,0.29,0.61,0.48,0.25,0.25,0.5,0.58,0.61,0.25,0.29,0.29,0.33,0.58,0.29,0.6,0.88,0.33,0.29,0.4,0.55,0.58,0.25,0.6,0.58,0.55,0.42,0.6,0.58,0.5,0.33,0.48,0.25,0.25,0.4,0.48,0.42,0.6,0.48,0.44,0.33,0.29,0.56,0.48,0.29,0.56,0.25,0.25,0.5,0.58,0.61,0.25,0.52,0.52,0.25,0.5,0.58,0.61,0.25,0.83,0.61,0.25,0.5,0.4,0.48,0.25,0.42,0.55,0.29,0.29,0.61,0.25" style="fill:rgb(0,0,0);font-family:PalatinoLinotype;font-size:9.0px;stroke:none;">cobalt oxide, lithium-cobalt oxide, and lithium-iron phosphate, respectively; and SS and HT are solid </text>
   <text y="451.763" x="97.826,101.637,104.565,109.06,111.988,116.294,118.574,123.068,128.301,133.794,136.074,141.307,146.305,151.799,155.349,160.257,163.186,168.418,172.724,176.274,184.215,188.71,191.323,193.603,197.414,202.412,207.645,210.574,215.806,220.112,223.922,226.536,230.347,232.626,240.568,244.873,247.802,253.035,257.943,263.437,267.247,269.492" svgx:width="0.42,0.33,0.5,0.33,0.48,0.25,0.5,0.58,0.61,0.25,0.58,0.56,0.61,0.4,0.55,0.33,0.58,0.48,0.4,0.88,0.5,0.29,0.25,0.42,0.56,0.58,0.33,0.58,0.48,0.42,0.29,0.42,0.25,0.88,0.48,0.33,0.58,0.55,0.61,0.42,0.25,0.25" style="fill:rgb(0,0,0);font-family:PalatinoLinotype;font-size:9.0px;stroke:none;">state and hydrothermal synthesis methods. </text>
   <text y="476.962" x="297.686" svgx:width="0.25" style="fill:rgb(0,0,0);font-family:PalatinoLinotype;font-size:10.02px;stroke:none;"> </text>
   <text y="713.962" x="448.406" svgx:width="0.25" style="fill:rgb(0,0,0);font-family:PalatinoLinotype;font-size:10.02px;stroke:none;"> </text>
   <text y="730.222" x="97.826,102.844,105.838,110.838,116.334,119.831,124.327,126.577,129.367,133.864,136.11" svgx:width="0.56,0.33,0.56,0.61,0.39,0.5,0.25,0.55,0.5,0.25,0.25" style="fill:rgb(0,0,0);font-family:PalatinoLinotype,Bold;font-size:9.0px;stroke:none;">Figure 4. </text>
   <text y="730.222" x="141.086,147.985,152.485,156.284,158.534,161.324,165.618,173.548,176.187,179.969,183.81,186.45,191.347,196.568,200.367,202.617,205.407,208.386,213.283,216.821,219.071,221.861,225.702,230.681,235.902,238.819,244.04,248.334,252.175,254.755,258.554,260.804,263.594,271.524,275.818,278.735,283.956,288.853,294.374,298.173,300.423,303.213,306.193,311.09,314.628,316.878,319.608,324.708,329.306,332.854,335.466,340.372,345.792,349.601,351.851,354.641,359.134,363.123,366.049,368.661,373.739,378.043,380.293,383.083,391.023,395.515,398.442,402.746,406.294,408.906,413.398,416.006,419.8,422.05,424.84,427.816,431.349,435.638,441.026,444.559,449.451,454.929,460.334,464.355,468.675,474.197,476.447,479.237,486.721,489.361,492.273,497.49" svgx:width="0.76,0.5,0.42,0.25,0.55,0.48,0.88,0.29,0.42,0.42,0.29,0.55,0.58,0.42,0.25,0.55,0.33,0.55,0.4,0.25,0.55,0.42,0.56,0.58,0.33,0.58,0.48,0.42,0.29,0.42,0.25,0.55,0.88,0.48,0.33,0.58,0.55,0.61,0.42,0.25,0.55,0.33,0.55,0.4,0.25,0.55,0.56,0.5,0.4,0.29,0.55,0.6,0.42,0.25,0.55,0.5,0.44,0.33,0.29,0.56,0.48,0.25,0.55,0.88,0.5,0.33,0.48,0.4,0.29,0.5,0.29,0.42,0.25,0.55,0.33,0.4,0.48,0.6,0.4,0.55,0.61,0.6,0.44,0.48,0.61,0.25,0.55,0.83,0.29,0.33,0.58,0.25" style="fill:rgb(0,0,0);font-family:PalatinoLinotype;font-size:9.0px;stroke:none;">Gas emissions for synthesis methods for various active materials (reproduced with </text>
   <text y="743.242" x="97.826,103.24,107.555,111.115,119.036,121.66,125.48,129.301,131.924,136.843,142.085,144.725,147.727,151.286,156.147,164.069,166.708,172.23,177.472,181.788,184.428,190.444,195.363,200.341,204.841,207.465,210.105,214.786,219.707,223.707,226.331,230.646,233.585,238.564,241.203,246.122,249.062,251.702,258.087,263.33,267.645,275.567,278.191,282.011,284.95,288.509,293.488,296.128,302.144,306.46,309.461,311.681,314.321,317.323,321.827,326.332,329.333,332.273,334.494,337.133,342.376,346.691,350.251,354.566,356.821,359.401,366.885,375.403,381.789,384.428,388.933,394.092,399.596,402.236,407.739,416.258,422.274,425.215,432.698,441.216,447.602,450.242,454.681,458.221,462.537,465.176,467.8,470.423,473.362,478.604,481.228,486.628,494.55" svgx:width="0.6,0.48,0.4,0.88,0.29,0.42,0.42,0.29,0.55,0.58,0.25,0.33,0.4,0.55,0.88,0.25,0.61,0.58,0.48,0.25,0.67,0.55,0.56,0.5,0.29,0.25,0.52,0.55,0.44,0.29,0.48,0.33,0.56,0.25,0.55,0.33,0.25,0.71,0.58,0.48,0.88,0.29,0.42,0.33,0.4,0.56,0.25,0.67,0.48,0.33,0.25,0.25,0.33,0.5,0.5,0.33,0.33,0.25,0.25,0.58,0.48,0.4,0.48,0.25,0.25,0.83,0.95,0.71,0.25,0.5,0.58,0.61,0.25,0.61,0.95,0.67,0.33,0.83,0.95,0.71,0.25,0.5,0.4,0.48,0.25,0.29,0.29,0.33,0.58,0.29,0.6,0.88,0.33" style="fill:rgb(0,0,0);font-family:PalatinoLinotype;font-size:9.0px;stroke:none;">permission from The Royal Society of Chemistry Ref. [38]); here, NMC and LMR-NMC are lithium-</text>
   <text y="756.262" x="97.826,103.074,105.703,109.709,114.688,119.008,121.637,124.644,132.566,137.076,142.324,147.303,151.803,157.051,161.371,165.197,169.518,172.525,176.531,181.455,186.442,190.881,193.521,196.465,198.715,199.645,204.569,209.188,211.816,217.278,221.599,223.849,224.778,229.288,234.506,240.013,242.263,243.193,248.7,251.281,253.531,254.46,258.968,264.214,269.722,271.972,272.842,281.364,286.61,289.615,293.178,295.805,299.809,305.056,307.306,308.235,310.862,313.489,316.432,321.678,324.305,329.644,337.566,340.571,345.817,348.445,352.449,357.427,361.747,364.374,367.346,375.301,379.81,385.056,390.068,394.576,399.822,404.141,407.965,412.284,415.289,419.293,424.215,429.201,433.709,436.336,439.214,441.464,442.394,447.255,451.873,454.5,460.008,464.327,466.585,468.835,469.705,474.438,479.171,481.421,482.351,486.859,492.105,497.566" svgx:width="0.58,0.29,0.44,0.56,0.48,0.29,0.33,0.88,0.5,0.58,0.56,0.5,0.58,0.48,0.42,0.48,0.33,0.44,0.55,0.55,0.5,0.29,0.33,0.25,0.55,0.55,0.52,0.29,0.61,0.48,0.25,0.55,0.5,0.58,0.61,0.25,0.55,0.61,0.29,0.25,0.55,0.5,0.58,0.61,0.25,0.55,0.95,0.58,0.33,0.4,0.29,0.44,0.58,0.25,0.55,0.29,0.29,0.33,0.58,0.29,0.6,0.88,0.33,0.58,0.29,0.44,0.56,0.48,0.29,0.33,0.88,0.5,0.58,0.56,0.5,0.58,0.48,0.42,0.48,0.33,0.44,0.55,0.55,0.5,0.29,0.33,0.25,0.55,0.55,0.52,0.29,0.61,0.48,0.25,0.25,0.55,0.52,0.52,0.25,0.55,0.5,0.58,0.61,0.25" style="fill:rgb(0,0,0);font-family:PalatinoLinotype;font-size:9.0px;stroke:none;">nickel-manganese-cobalt oxide and Li and Mn-rich lithium-nickel-manganese-cobalt oxide; SS and </text>
   <text y="769.283" x="97.826,105.323,110.849,113.129,117.638,121.202,125.522,127.742,131.567,136.49,139.118,141.698,147.206,149.427,153.252,156.13,160.639,163.582,167.902,170.182,174.691,179.938,185.446,187.725,192.972,197.951,203.459,207.023,211.946,214.824,220.071,224.391,227.955,235.877,240.386,243.014,245.294,249.119,254.097,259.344,262.287,267.534,271.854,275.68,278.307,282.133,284.412,292.334,296.654,299.597,304.844,309.767,315.228,319.053,321.273,323.553,328.062,333.309,338.817,341.097,347.935,355.435,362.273,364.553,367.181,370.962,373.242,378.221,381.761,386.081,390.34,395.587,400.834,405.757,411.157,414.999,419.319,421.598,426.577,431.077,434.902,437.122" svgx:width="0.83,0.61,0.25,0.5,0.4,0.48,0.25,0.42,0.55,0.29,0.29,0.61,0.25,0.42,0.33,0.5,0.33,0.48,0.25,0.5,0.58,0.61,0.25,0.58,0.56,0.61,0.4,0.55,0.33,0.58,0.48,0.4,0.88,0.5,0.29,0.25,0.42,0.56,0.58,0.33,0.58,0.48,0.42,0.29,0.42,0.25,0.88,0.48,0.33,0.58,0.55,0.61,0.42,0.25,0.25,0.5,0.58,0.61,0.25,0.76,0.83,0.76,0.25,0.29,0.42,0.25,0.56,0.4,0.48,0.48,0.58,0.58,0.55,0.6,0.42,0.48,0.25,0.56,0.5,0.42,0.25,0.25" style="fill:rgb(0,0,0);font-family:PalatinoLinotype;font-size:9.0px;stroke:none;">HT are solid state and hydrothermal synthesis methods; and GHG is greenhouse gas. </text>
   <text y="794.422" x="76.586,81.6,84.109,86.629,93.71,98.75,103.203,108.778,113.16,116.52,119.86,125.987,131.562,134.022,141.821,147.947,154.074,157.975,163.551,168.565,173.017,179.079,184.093,188.474" svgx:width="0.5,0.25,0.25,0.71,0.5,0.44,0.56,0.44,0.33,0.33,0.61,0.56,0.25,0.78,0.61,0.61,0.39,0.56,0.5,0.44,0.61,0.5,0.44,0.25" style="fill:rgb(0,0,0);font-family:PalatinoLinotype,Bold;font-size:10.02px;stroke:none;">4. Recycling Approaches </text>
   <text y="813.922" x="97.826,104.525,109.329,113.783,119.359,123.741,126.662,129.583,135.342,140.918,143.918,149.319,152.619,155.559,161.686,165.068,171.195,175.448,178.448,184.208,189.248,193.449,196.449,201.995,206.8,211.539,217.359,220.359,224.56,227.859,233.906,239.967,242.888,247.693,253.755,256.695,261.71,265.911,268.851,273.655,278.67,282.57,285.51,291.028,294.028,299.008,303.27,306.21,311.189,314.549,317.821,322.56,326.523,329.463,332.734,338.571,343.311,346.311,350.764,356.24,365.093,373.946,378.75,382.713,387.167,390.047,395.087,397.967,400.907,405.887,410.867,414.165,417.086,422.562,428.321,431.321,436.797,440.097,443.097,449.159,456.239,464.12,467.12,472.666,477.646,480.917,484.156,488.96,492.923,495.844,500.584,504.837,507.777,513.323,518.841" svgx:width="0.67,0.48,0.44,0.56,0.44,0.29,0.29,0.58,0.56,0.25,0.55,0.33,0.25,0.61,0.34,0.61,0.42,0.25,0.58,0.5,0.42,0.25,0.55,0.48,0.48,0.58,0.25,0.42,0.33,0.6,0.61,0.29,0.48,0.61,0.25,0.5,0.42,0.25,0.48,0.5,0.4,0.29,0.56,0.25,0.5,0.42,0.25,0.5,0.33,0.33,0.48,0.4,0.25,0.33,0.58,0.48,0.25,0.44,0.55,0.88,0.88,0.48,0.4,0.44,0.29,0.5,0.29,0.29,0.5,0.5,0.33,0.29,0.55,0.58,0.25,0.55,0.33,0.25,0.61,0.71,0.79,0.25,0.55,0.5,0.33,0.33,0.48,0.4,0.29,0.48,0.42,0.25,0.55,0.56,0.25" style="fill:rgb(0,0,0);font-family:PalatinoLinotype;font-size:10.02px;stroke:none;">Recycling of LIBs has been studied as early as after the commercialization of LCO batteries by </text>
   <text y="827.422" x="76.586,81.856,87.335,93.176,98.756,101.261,102.417,105.341,111.182,113.687,114.782,119.762,124.802,129.782,134.762,137.267,138.422,141.768,146.748,151.767,155.067,157.581,160.08599999999998,161.241,167.392,173.233,178.041,180.546,181.702,185.001,187.941,191.908,196.11,199.385,201.89,203.045,211.411,216.891,220.858,226.438,228.94299999999998,230.098,235.578,241.419,243.924,245.079,251.211,254.511,260.642,264.9,267.405,268.56,272.527,277.336,281.794,287.374,291.755,294.68,297.605,303.365,308.945,311.45,312.605,317.624,320.9,323.405,324.56,330.499,333.424,336.348,341.749,345.025,347.53,348.685,351.61,356.418,362.089,366.829,369.754,372.259,373.354,377.612,380.85,385.869,389.836,393.075,397.874,404.005,406.51,407.666,410.591,416.431,418.936,420.031,425.011,429.991,435.01,440.029,442.534,443.69,449.24,454.82,457.325,458.42,465.122,469.931,474.313,480.373,486.312,491.89,494.815,497.32,498.475,506.841,509.72,512.996,518.837" svgx:width="0.52,0.55,0.58,0.56,0.25,0.55,0.29,0.58,0.25,0.55,0.5,0.5,0.5,0.5,0.25,0.55,0.33,0.5,0.5,0.33,0.25,0.25,0.55,0.61,0.58,0.48,0.25,0.55,0.33,0.29,0.4,0.42,0.33,0.25,0.55,0.83,0.55,0.4,0.56,0.25,0.55,0.55,0.58,0.25,0.55,0.61,0.34,0.61,0.42,0.25,0.55,0.4,0.48,0.44,0.56,0.44,0.29,0.29,0.58,0.56,0.25,0.55,0.5,0.33,0.25,0.55,0.6,0.29,0.29,0.55,0.33,0.25,0.55,0.29,0.48,0.56,0.48,0.29,0.25,0.55,0.42,0.33,0.5,0.4,0.33,0.48,0.61,0.25,0.55,0.29,0.58,0.25,0.55,0.5,0.5,0.5,0.5,0.25,0.55,0.55,0.56,0.25,0.55,0.67,0.48,0.44,0.6,0.6,0.56,0.29,0.25,0.55,0.83,0.29,0.33,0.58,0.25" style="fill:rgb(0,0,0);font-family:PalatinoLinotype;font-size:10.02px;stroke:none;">Sony in 1991 [21]. The first work on LIBs recycling at pilot level started in 1995 by Recupyl with </text>
  </g>
  <rect style="stroke:blue;stroke-width:0.3;" x="157.466" y="144.312" height="197.28" width="280.26" title="6"/>
  <text y="144.312" class="image" id="image.6.3" width="280" height="197" x="157.466">image.6.3.157_438.144_342</text>
  <rect style="stroke:blue;stroke-width:0.3;" x="146.966" y="450.072" height="222.0" width="301.5" title="6"/>
  <text y="450.072" class="image" id="image.6.4" width="301" height="222" x="146.966">image.6.4.147_448.450_672</text>
  <g begin="text">
   <text y="731.957" x="97.795,102.78,105.766,110.751,116.23,119.718,124.203,128.406,132.889" svgx:width="0.56,0.33,0.56,0.61,0.39,0.5,0.55,0.5,0.25" style="fill:rgb(0,0,0);font-family:URWPalladioL-Bold;font-size:8.97px;stroke:none;">Figure 4.</text>
   <text y="731.957" x="144.171,151.149,155.722,159.48940000000002,163.807,168.188,176.263,178.925,182.803,186.68,189.342,194.335,199.658,203.4254,207.743,210.788,215.782,219.37,223.602,227.479,232.564,237.887,240.869,246.192,250.572,254.45,257.112,260.87940000000003,265.196,273.272,277.653,280.634,285.957,290.951,296.539,300.3064,304.624,307.669,312.663,316.25100000000003,320.482,325.65,330.223,333.835,336.496,341.49,347.005,350.7724,355.09,359.663,363.723,366.705,369.366,374.534,378.8396,383.121,391.197,395.77,398.751,403.132,406.745,409.406,413.979,416.64,420.4074,424.725,427.771,431.228,435.609,441.105,444.553,449.547,455.135,460.65,464.71,469.091,474.5627,478.886,486.514,489.175,492.157" svgx:width="0.76,0.5,0.42,0.55,0.48,0.88,0.29,0.42,0.42,0.29,0.55,0.58,0.42,0.55,0.33,0.55,0.4,0.55,0.42,0.56,0.58,0.33,0.58,0.48,0.42,0.29,0.42,0.55,0.88,0.48,0.33,0.58,0.55,0.61,0.42,0.55,0.33,0.55,0.4,0.55,0.56,0.5,0.4,0.29,0.55,0.6,0.42,0.55,0.5,0.44,0.33,0.29,0.56,0.48,0.55,0.88,0.5,0.33,0.48,0.4,0.29,0.5,0.29,0.42,0.55,0.33,0.4,0.48,0.6,0.4,0.55,0.61,0.6,0.44,0.48,0.61,0.55,0.83,0.29,0.33,0.58" style="fill:rgb(0,0,0);font-family:URWPalladioL-Roma;font-size:8.97px;stroke:none;">Gas emissions for synthesis methods for various active materials (reproduced with</text>
   <text y="744.779" x="97.526,103.023,107.403,111.016,119.092,121.753,125.631,129.509,132.17,137.164,142.36659999999998,147.297,150.343,153.791,158.784,166.67759999999998,171.67,177.277,182.6,186.9056,191.782,197.891,202.885,207.97,212.543,215.14430000000002,220.015,224.816,229.81,233.871,236.532,240.913,243.894,248.9172,253.79,258.783,261.7431,266.631,273.115,278.438,282.818,290.894,293.556,297.433,300.415,304.027,309.05019999999996,313.923,320.032,324.413,327.459,329.7015,334.556" svgx:width="0.6,0.48,0.4,0.88,0.29,0.42,0.42,0.29,0.55,0.58,0.55,0.33,0.4,0.55,0.88,0.55,0.61,0.58,0.48,0.55,0.67,0.55,0.56,0.5,0.29,0.55,0.52,0.55,0.44,0.29,0.48,0.33,0.56,0.55,0.55,0.33,0.55,0.71,0.58,0.48,0.88,0.29,0.42,0.33,0.4,0.56,0.55,0.67,0.48,0.33,0.25,0.55,0.33" style="fill:rgb(0,0,0);font-family:URWPalladioL-Roma;font-size:8.97px;stroke:none;">permission from The Royal Society of Chemistry Ref. [</text>
   <text y="744.779" x="337.6,342.083" svgx:width="0.5,0.5" style="fill:rgb(8,117,183);font-family:URWPalladioL-Roma;font-size:8.97px;stroke:none;">38</text>
   <text y="744.779" x="346.566,349.612,352.657,354.8995,361.035,366.357,370.738,374.186,378.567,380.8095,386.304,393.904,402.556,408.9247,413.851,418.424,423.747,429.2187,434.136,439.724,448.376,454.486,457.531,465.131,473.783,480.1517,485.078,489.651,493.099" svgx:width="0.33,0.33,0.25,0.55,0.58,0.48,0.4,0.48,0.25,0.55,0.83,0.95,0.71,0.55,0.5,0.58,0.61,0.55,0.61,0.95,0.67,0.33,0.83,0.95,0.71,0.55,0.5,0.4,0.48" style="fill:rgb(0,0,0);font-family:URWPalladioL-Roma;font-size:8.97px;stroke:none;">]); here, NMC and LMR-NMC are</text>
   <text y="757.601" x="97.795,100.37,102.946,105.831,110.981,113.557,118.893,126.707,129.654,134.805,137.38,141.31,146.23,150.469,153.045,155.992,163.806,168.231,173.381,178.302,182.727,187.877,192.117,195.869,200.108,203.055,206.984,211.816,216.71,221.135,223.71,226.67010000000002,228.817,233.649,238.215,240.791,246.198,250.5036,252.658,257.083,262.234,267.7057,269.862,275.27,277.87129999999996,280.066,284.491,289.642,295.1137,297.27,305.642,310.793,313.74,317.236,319.811,323.74,328.9426,331.112,333.687,336.263,339.148,344.298,346.874,352.21,360.025,362.972,368.122,370.698,374.627,379.547,383.778,386.353,389.3,397.114,401.539,406.69,411.61,416.035,421.186,425.425,429.177,433.416,436.363,440.293,445.125,450.019,454.443,457.019,459.9791,462.125,466.957,471.524,474.099,479.506,483.745,485.9875,488.188,492.834" svgx:width="0.29,0.29,0.33,0.58,0.29,0.6,0.88,0.33,0.58,0.29,0.44,0.56,0.48,0.29,0.33,0.88,0.5,0.58,0.56,0.5,0.58,0.48,0.42,0.48,0.33,0.44,0.55,0.55,0.5,0.29,0.33,0.55,0.55,0.52,0.29,0.61,0.48,0.55,0.5,0.58,0.61,0.55,0.61,0.29,0.55,0.5,0.58,0.61,0.55,0.95,0.58,0.33,0.4,0.29,0.44,0.58,0.55,0.29,0.29,0.33,0.58,0.29,0.6,0.88,0.33,0.58,0.29,0.44,0.56,0.48,0.29,0.33,0.88,0.5,0.58,0.56,0.5,0.58,0.48,0.42,0.48,0.33,0.44,0.55,0.55,0.5,0.29,0.33,0.55,0.55,0.52,0.29,0.61,0.48,0.25,0.55,0.52,0.52" style="fill:rgb(0,0,0);font-family:URWPalladioL-Roma;font-size:8.97px;stroke:none;">lithium-nickel-manganese-cobalt oxide and Li and Mn-rich lithium-nickel-manganese-cobalt oxide; SS</text>
   <text y="770.423" x="97.795,102.278,107.497,112.9687,115.217,122.677,128.14870000000002,130.415,134.898,138.278,142.5836,144.815,148.617,153.512,156.121,158.731,164.2027,166.451,170.253,173.176,177.659,180.582,184.8876,187.118,191.602,196.82,202.2917,204.54,209.758,214.744,220.222,223.603,228.498,231.421,236.64,240.935,244.476,252.394,256.877,259.4783,261.728,265.53,270.515,275.733,278.656,283.875,288.17,291.971,294.581,298.3484,300.624,308.541,312.836,315.759,320.978,325.873,331.352,335.154,337.3965,339.637,344.12,349.339,354.8107,357.059,363.9,371.36,378.1772,380.443,383.052,386.81940000000003,389.096,394.081,397.461,401.756,406.051,411.269,416.488,421.384,426.79,430.592,434.8976,437.129,442.114,446.597,450.399" svgx:width="0.5,0.58,0.61,0.55,0.83,0.61,0.55,0.5,0.4,0.48,0.55,0.42,0.55,0.29,0.29,0.61,0.55,0.42,0.33,0.5,0.33,0.48,0.55,0.5,0.58,0.61,0.55,0.58,0.56,0.61,0.4,0.55,0.33,0.58,0.48,0.4,0.88,0.5,0.29,0.55,0.42,0.56,0.58,0.33,0.58,0.48,0.42,0.29,0.42,0.55,0.88,0.48,0.33,0.58,0.55,0.61,0.42,0.25,0.55,0.5,0.58,0.61,0.55,0.76,0.83,0.76,0.55,0.29,0.42,0.55,0.56,0.4,0.48,0.48,0.58,0.58,0.55,0.6,0.42,0.48,0.55,0.56,0.5,0.42,0.25" style="fill:rgb(0,0,0);font-family:URWPalladioL-Roma;font-size:8.97px;stroke:none;">and HT are solid state and hydrothermal synthesis methods; and GHG is greenhouse gas.</text>
  </g>
 </g>
</svg>
