<?xml version="1.0" encoding="UTF-8"?>
<svg height="778.333" width="530.513" xmlns="http://www.w3.org/2000/svg">
 <g id="page" xmlns:svgx="http://www.xml-cml.org/schema/svgx">
  <g begin="text">
   <text y="62.979" x="76.535,84.059,87.598,90.252,93.352,96.452,98.668,102.207,104.422" svgx:width="0.94,0.44,0.33,0.39,0.39,0.28,0.44,0.28,0.39" style="fill:rgb(0,0,0);font-family:URWPalladioL-Ital;font-size:7.97px;stroke:none;">Materials</text>
   <text y="62.979" x="109.515,113.5,117.485,121.47" svgx:width="0.5,0.5,0.5,0.5" style="fill:rgb(0,0,0);font-family:URWPalladioL-Bold;font-size:7.97px;stroke:none;">2020</text>
   <text y="62.979" x="125.455" svgx:width="0.25" style="fill:rgb(0,0,0);font-family:URWPalladioL-Roma;font-size:7.97px;stroke:none;">,</text>
   <text y="62.979" x="129.44,133.425" svgx:width="0.5,0.5" style="fill:rgb(0,0,0);font-family:URWPalladioL-Ital;font-size:7.97px;stroke:none;">13</text>
   <text y="62.979" x="137.41,139.4025,141.395,145.38,149.365,153.35000000000002,491.809,495.794,499.779,501.772,506.123,508.7531,510.77,514.755" svgx:width="0.25,0.55,0.5,0.5,0.5,0.55,0.5,0.5,0.55,0.55,0.33,0.55,0.5,0.5" style="fill:rgb(0,0,0);font-family:URWPalladioL-Roma;font-size:7.97px;stroke:none;">, 801 10 of 45</text>
   <text y="97.848" x="76.535,82.744,87.611,93.82,96.777,101.289,106.37,109.683,114.55,120.62559999999999,123.757,127.07,132.548,135.616,141.825,145.249,151.3246,154.456,158.287,163.155,167.666,173.316,177.828,180.785,183.743,189.657,195.307,197.797,202.857,208.507,214.055,218.03900000000002,221.067,226.148,231.229,236.31,241.391,243.881,247.061,250.374,256.288,259.245,263.4282,266.551,270.565,275.646,278.959,281.916,287.394,290.462,293.846,298.927,301.884,304.841,309.0242,312.148,317.767,322.635,325.592,331.14,339.4068,342.613,347.694,356.0604,359.228,364.309,368.82,373.332,378.881,382.712,388.921,391.878,397.792,403.3696,406.44,409.752,415.23,418.298,421.611,427.525,432.3058,435.391,440.258,445.502,451.609,456.476,460.988,464.301,469.169,475.2446,478.375,484.584,488.009,494.0846,497.215,501.524,506.605,509.562,514.43" svgx:width="0.61,0.48,0.61,0.29,0.44,0.5,0.33,0.48,0.61,0.55,0.33,0.55,0.55,0.61,0.34,0.61,0.55,0.4,0.48,0.44,0.56,0.44,0.29,0.29,0.58,0.56,0.25,0.55,0.56,0.55,0.4,0.55,0.5,0.5,0.5,0.5,0.25,0.55,0.33,0.58,0.29,0.42,0.55,0.4,0.5,0.33,0.29,0.55,0.55,0.33,0.5,0.29,0.29,0.42,0.55,0.55,0.48,0.29,0.55,0.83,0.55,0.5,0.84,0.55,0.5,0.44,0.44,0.55,0.4,0.61,0.29,0.58,0.56,0.55,0.33,0.55,0.55,0.33,0.58,0.48,0.55,0.48,0.52,0.6,0.48,0.44,0.33,0.48,0.61,0.55,0.61,0.34,0.61,0.55,0.42,0.5,0.29,0.48,0.42" style="fill:rgb(0,0,0);font-family:URWPalladioL-Roma;font-size:9.96px;stroke:none;">dedicated to LIB recycling. For 2024, this ratio falls below 9% according to the expected LIB sales</text>
   <text y="111.358" x="76.207,79.485,84.406,86.867,91.789,96.71,101.632,104.092,109.014,113.935,118.915,121.337,124.546,129.921,135.649,139.823,143.1098,145.591,150.512,156.241,162.31660000000002,164.735,167.944,173.673,178.4538,180.868,184.579,189.294,193.664,199.137,203.507,206.371,209.236,214.964,220.5416,222.927,227.298,232.219,238.135,243.057,247.427,250.291,253.5,259.0776,261.453,264.731,270.105,273.816,278.531,282.901,287.823,291.996,295.2828,297.685,300.963,305.885,310.806,315.728,318.188,323.11,328.031,333.011,335.443,338.652,344.026,349.755,353.928,357.2148,359.687,365.602,369.313,374.687,380.249,383.113,389.127,393.842,399.9176,402.337,407.78,413.3576,415.733,421.678,425.389,430.763,436.679,442.614,445.479,449.652,452.516,457.891,463.6678,466.11,473.846,479.782,484.496,489.94,494.654,499.0364,501.505" svgx:width="0.33,0.5,0.25,0.5,0.5,0.5,0.25,0.5,0.5,0.5,0.55,0.33,0.55,0.58,0.42,0.33,0.55,0.5,0.58,0.61,0.55,0.33,0.58,0.48,0.55,0.4,0.48,0.44,0.56,0.44,0.29,0.29,0.58,0.56,0.55,0.44,0.5,0.6,0.5,0.44,0.29,0.33,0.56,0.55,0.33,0.55,0.4,0.48,0.44,0.5,0.42,0.33,0.55,0.33,0.5,0.5,0.5,0.25,0.5,0.5,0.5,0.55,0.33,0.55,0.58,0.42,0.33,0.55,0.6,0.4,0.55,0.56,0.29,0.61,0.48,0.61,0.55,0.55,0.56,0.55,0.6,0.4,0.55,0.6,0.6,0.29,0.42,0.29,0.55,0.58,0.55,0.79,0.6,0.48,0.55,0.48,0.44,0.55,0.33" style="fill:rgb(0,0,0);font-family:URWPalladioL-Roma;font-size:9.96px;stroke:none;">(3,000,000 tons) and the recycling capacity forecast (264,000 tons) provided by Propulsion Quebec [</text>
   <text y="111.358" x="504.783,509.764" svgx:width="0.5,0.5" style="fill:rgb(8,117,183);font-family:URWPalladioL-Roma;font-size:9.96px;stroke:none;">55</text>
   <text y="111.358" x="514.745,518.023" svgx:width="0.33,0.25" style="fill:rgb(0,0,0);font-family:URWPalladioL-Roma;font-size:9.96px;stroke:none;">].</text>
   <text y="124.867" x="97.795,101.22,106.9968,110.274,113.587,119.501,122.458,126.6412,129.896,134.205,139.072,143.584,146.897,149.854,155.403,161.317,163.80700000000002,167.16,175.635,180.4158,183.642,189.191,195.105,198.062,203.6396,206.852,211.933,218.142,224.351,228.182,233.049,237.358,241.5412,244.807,247.764,253.54080000000002,256.808,263.017,267.884,271.197,276.278,279.235,282.1234,285.332,288.645,294.559,299.3398,302.566,308.775,311.732,315.563,320.431,324.943,328.2298,331.396,337.31,342.96,349.169,353.0,358.548,367.521,372.389,375.701,380.782,383.739,386.696,392.824,396.665,402.315,405.272,409.784,414.865,417.7534,420.952,427.059,430.901,436.449,440.961,445.828,450.137,454.446,459.313,463.4962,466.752,470.135,473.519,477.361,482.909,491.67379999999997,495.012,499.32,503.832,507.846,512.927" svgx:width="0.34,0.58,0.55,0.33,0.58,0.29,0.42,0.55,0.42,0.48,0.44,0.33,0.29,0.55,0.58,0.25,0.55,0.83,0.48,0.55,0.55,0.58,0.29,0.56,0.55,0.5,0.61,0.61,0.4,0.48,0.42,0.42,0.55,0.29,0.58,0.55,0.61,0.48,0.33,0.5,0.29,0.29,0.55,0.33,0.58,0.48,0.55,0.61,0.29,0.4,0.48,0.44,0.33,0.55,0.58,0.56,0.61,0.4,0.55,0.88,0.48,0.33,0.5,0.29,0.29,0.6,0.4,0.56,0.29,0.44,0.5,0.29,0.55,0.6,0.4,0.55,0.44,0.48,0.42,0.42,0.48,0.42,0.55,0.33,0.33,0.4,0.55,0.88,0.55,0.42,0.44,0.4,0.5,0.6" style="fill:rgb(0,0,0);font-family:URWPalladioL-Roma;font-size:9.96px;stroke:none;">In this section, we only address in detail the direct hydrometallurgical processes (from scrap</text>
   <text y="138.377" x="76.535,82.044,87.026,90.273,93.521,98.293,102.229,105.128,109.9,114.0832,116.615,119.862,125.33999999999999,127.793,133.82,139.618,144.599,147.48739999999998,149.989,158.786,163.768,167.015,171.787,175.723,178.622,183.603,186.502,190.726,194.044,196.53400000000002,200.021,206.128,211.927,216.699,220.923,225.7038,228.186,234.173,237.929,243.369,247.792,252.564,256.788,261.012,265.784,269.9672,272.499,277.481,281.237,286.0178,288.499,291.398,294.297,298.522,301.769,306.542,312.6176,315.119,318.018,323.79479999999995,326.307,330.731,336.529,340.285,345.724,351.523,356.962,359.861,365.301,370.84,373.739,378.163,383.144,386.0324,388.534,393.973,397.729,403.816,408.589,412.573,415.014,417.914,423.69079999999997,426.202,431.393,436.374,441.884,444.783" svgx:width="0.55,0.5,0.33,0.33,0.48,0.4,0.29,0.48,0.42,0.55,0.33,0.55,0.55,0.61,0.58,0.5,0.29,0.55,0.88,0.5,0.33,0.48,0.4,0.29,0.5,0.29,0.42,0.33,0.25,0.55,0.61,0.58,0.48,0.42,0.48,0.55,0.6,0.4,0.55,0.44,0.48,0.42,0.42,0.48,0.42,0.55,0.5,0.4,0.48,0.55,0.29,0.29,0.42,0.33,0.48,0.61,0.55,0.29,0.58,0.55,0.44,0.58,0.4,0.55,0.58,0.55,0.29,0.55,0.56,0.29,0.44,0.5,0.29,0.55,0.55,0.4,0.61,0.48,0.4,0.55,0.29,0.58,0.55,0.61,0.5,0.55,0.29,0.48" style="fill:rgb(0,0,0);font-family:URWPalladioL-Roma;font-size:9.96px;stroke:none;">batteries to ﬁnal materials). These processes are listed in chronological order in Table</text>
   <text y="138.377" x="452.045" svgx:width="0.5" style="fill:rgb(8,117,183);font-family:URWPalladioL-Roma;font-size:9.96px;stroke:none;">4</text>
   <text y="138.377" x="457.027" svgx:width="0.25" style="fill:rgb(0,0,0);font-family:URWPalladioL-Roma;font-size:9.96px;stroke:none;">.</text>
   <text y="163.118" x="128.736,133.721,138.205,143.683,146.669,151.15400000000002,153.394,157.877" svgx:width="0.67,0.5,0.61,0.33,0.5,0.55,0.5,0.25" style="fill:rgb(0,0,0);font-family:URWPalladioL-Bold;font-size:8.97px;stroke:none;">Table 4.</text>
   <text y="163.118" x="163.256,168.734,171.344,175.145,178.10510000000002,180.31,185.206,188.1661,190.433,194.414,199.821,203.363,206.743,211.038,216.256,219.2161,221.421,224.801,229.096,233.077,238.063,242.044,244.653,247.262,252.481,257.50419999999997,259.708,264.603,269.992,274.287,277.829,282.312,285.235,287.844,292.74,297.958,301.76,304.0025,307.14,312.358,317.344,322.822,326.202,331.098,339.015,343.31,346.233,350.717,353.326,355.935,361.342,364.722,369.707,372.317,376.298,380.781,383.3823,385.632,390.115,395.333,400.8047,403.053,408.532,411.141,414.521,418.816,422.797,425.75710000000004,427.962,431.342,435.637,439.618,444.604,448.585,451.194,453.803,459.022,464.007" svgx:width="0.61,0.29,0.42,0.33,0.55,0.55,0.33,0.55,0.44,0.6,0.4,0.4,0.48,0.58,0.33,0.55,0.4,0.48,0.44,0.56,0.44,0.29,0.29,0.58,0.56,0.55,0.55,0.6,0.48,0.4,0.5,0.33,0.29,0.55,0.58,0.42,0.25,0.55,0.58,0.56,0.61,0.4,0.55,0.88,0.48,0.33,0.5,0.29,0.29,0.6,0.4,0.56,0.29,0.44,0.5,0.29,0.55,0.5,0.58,0.61,0.55,0.61,0.29,0.4,0.48,0.44,0.33,0.55,0.4,0.48,0.44,0.56,0.44,0.29,0.29,0.58,0.56,0.25" style="fill:rgb(0,0,0);font-family:URWPalladioL-Roma;font-size:8.97px;stroke:none;">List of current recycling operations: hydrometallurgical and direct recycling.</text>
  </g>
  <path style="fill:none;stroke:rgb(0,0,0);stroke-width:1.0;" d="M79.210 173.300 L516.070 173.300 "/>
  <g begin="text">
   <text y="192.934" x="101.071,106.897,111.384,118.558,123.488,127.523,132.454,136.97320000000002,180.114,185.045,187.732,191.767,194.906,197.5691,199.611,206.333,210.368,213.055" svgx:width="0.72,0.56,0.89,0.61,0.5,0.61,0.56,0.55,0.61,0.33,0.5,0.39,0.33,0.55,0.83,0.5,0.33,0.5" style="fill:rgb(0,0,0);font-family:URWPalladioL-Bold;font-size:8.07px;stroke:none;">Company Start Date</text>
   <text y="188.003" x="245.001,253.071,257.106,259.793,264.724,269.211,274.13370000000003,276.159,282.437,286.02,290.055,294.9777,297.003,299.69,304.2092,306.194,312.473,316.056,319.639,323.674,327.257" svgx:width="1.0,0.5,0.33,0.61,0.56,0.61,0.55,0.78,0.44,0.5,0.61,0.55,0.33,0.56,0.55,0.78,0.44,0.44,0.5,0.44,0.44" style="fill:rgb(0,0,0);font-family:URWPalladioL-Bold;font-size:8.07px;stroke:none;">Method Used to Access</text>
   <text y="197.865" x="250.718,253.405,258.336,262.37100000000004,264.388,270.667,274.25,276.937,279.624,284.111,288.146,290.163,298.233,302.268,304.955,308.99,312.129,314.816,318.851,321.538" svgx:width="0.33,0.61,0.5,0.55,0.78,0.44,0.33,0.33,0.56,0.5,0.55,1.0,0.5,0.33,0.5,0.39,0.33,0.5,0.33,0.44" style="fill:rgb(0,0,0);font-family:URWPalladioL-Bold;font-size:8.07px;stroke:none;">the Active Materials</text>
   <text y="183.071" x="344.881,352.95,356.985,359.673,364.603,369.09,374.0127,376.038,382.316,385.899,389.934,394.85670000000005,396.882,399.57,404.0892,406.074,411.9,415.935,419.518,424.005,428.492,432.526" svgx:width="1.0,0.5,0.33,0.61,0.56,0.61,0.55,0.78,0.44,0.5,0.61,0.55,0.33,0.56,0.55,0.72,0.5,0.44,0.56,0.56,0.5,0.39" style="fill:rgb(0,0,0);font-family:URWPalladioL-Bold;font-size:8.07px;stroke:none;">Method Used to Recover</text>
   <text y="192.934" x="367.0,369.687,374.618,378.653,380.67,386.053,390.088,392.775,397.705,401.74,406.671,409.358" svgx:width="0.33,0.61,0.5,0.55,0.78,0.5,0.33,0.61,0.5,0.61,0.33,0.5" style="fill:rgb(0,0,0);font-family:URWPalladioL-Bold;font-size:8.07px;stroke:none;">the Valuable</text>
   <text y="202.797" x="366.662,372.488,376.975,384.149,389.079,393.566,398.497,402.532,407.462,410.15" svgx:width="0.72,0.56,0.89,0.61,0.56,0.61,0.5,0.61,0.33,0.44" style="fill:rgb(0,0,0);font-family:URWPalladioL-Bold;font-size:8.07px;stroke:none;">Components</text>
   <text y="192.934" x="459.343,465.169,469.204,472.343,476.378,479.517,483.552,488.483,492.066,496.1" svgx:width="0.72,0.5,0.39,0.5,0.39,0.5,0.61,0.44,0.5,0.44" style="fill:rgb(0,0,0);font-family:URWPalladioL-Bold;font-size:8.07px;stroke:none;">References</text>
  </g>
  <path style="fill:none;stroke:rgb(0,0,0);stroke-width:0.72;" d="M79.210 207.430 L516.070 207.430 "/>
  <g begin="text">
   <text y="226.384" x="89.092,94.482,98.348,101.931,106.797,111.647,116.133,118.4733,120.499,123.186,127.673,130.861,134.896,139.592,143.175,147.041,149.70409999999998,173.267,177.754,181.62,186.082,189.205,194.071,198.106,201.294,205.81320000000002,207.798,211.833,215.868,219.903" svgx:width="0.67,0.48,0.44,0.6,0.6,0.56,0.29,0.55,0.33,0.56,0.4,0.5,0.58,0.44,0.48,0.33,0.55,0.56,0.48,0.55,0.4,0.6,0.5,0.4,0.56,0.55,0.5,0.5,0.5,0.5" style="fill:rgb(0,0,0);font-family:URWPalladioL-Roma;font-size:8.07px;stroke:none;">Recupyl (France) February 1996</text>
   <text y="216.736" x="259.793,266.039,269.226,273.7452,275.731,282.856,286.722,290.305,295.001,299.036,303.733,306.081,309.664,313.699" svgx:width="0.77,0.4,0.56,0.55,0.88,0.48,0.44,0.58,0.5,0.58,0.29,0.44,0.5,0.29" style="fill:rgb(0,0,0);font-family:URWPalladioL-Roma;font-size:8.07px;stroke:none;">Dry mechanical</text>
   <text y="226.599" x="249.504,252.135,255.177,259.042,263.077,265.708,272.834,276.699,281.396,284.0591,286.044,290.91,295.607,300.537,304.403,307.63100000000003,309.608,311.956,316.653,320.518,323.705" svgx:width="0.33,0.4,0.48,0.5,0.33,0.88,0.48,0.58,0.33,0.55,0.6,0.58,0.61,0.48,0.4,0.55,0.29,0.58,0.48,0.4,0.33" style="fill:rgb(0,0,0);font-family:URWPalladioL-Roma;font-size:8.07px;stroke:none;">treatment under inert</text>
   <text y="236.462" x="266.951,270.985,273.616,280.742,285.148,288.569,293.419,298.116,301.981,305.024" svgx:width="0.5,0.33,0.88,0.55,0.42,0.6,0.58,0.48,0.4,0.48" style="fill:rgb(0,0,0);font-family:URWPalladioL-Roma;font-size:8.07px;stroke:none;">atmosphere</text>
   <text y="216.981" x="361.925" svgx:width="0.83" style="fill:rgb(0,0,0);font-family:URWPalladioL-Roma;font-size:8.07px;stroke:none;">H</text>
   <text y="218.594" x="368.639" svgx:width="0.5" style="fill:rgb(0,0,0);font-family:URWPalladioL-Roma;font-size:6.28px;stroke:none;">2</text>
   <text y="216.981" x="372.225,376.462" svgx:width="0.52,0.79" style="fill:rgb(0,0,0);font-family:URWPalladioL-Roma;font-size:8.07px;stroke:none;">SO</text>
   <text y="218.594" x="382.805" svgx:width="0.5" style="fill:rgb(0,0,0);font-family:URWPalladioL-Roma;font-size:6.28px;stroke:none;">4</text>
   <text y="216.981" x="388.409,390.757,394.623,398.658,402.241,406.937,409.286,413.982" svgx:width="0.29,0.48,0.5,0.44,0.58,0.29,0.58,0.56" style="fill:rgb(0,0,0);font-family:URWPalladioL-Roma;font-size:8.07px;stroke:none;">leaching</text>
   <text y="226.778" x="467.747" svgx:width="0.33" style="fill:rgb(0,0,0);font-family:URWPalladioL-Roma;font-size:8.07px;stroke:none;">[</text>
   <text y="226.778" x="470.434,474.469" svgx:width="0.5,0.5" style="fill:rgb(8,117,183);font-family:URWPalladioL-Roma;font-size:8.07px;stroke:none;">56</text>
   <text y="226.778" x="478.504" svgx:width="0.25" style="fill:rgb(0,0,0);font-family:URWPalladioL-Roma;font-size:8.07px;stroke:none;">,</text>
   <text y="226.778" x="480.521,484.556" svgx:width="0.5,0.5" style="fill:rgb(8,117,183);font-family:URWPalladioL-Roma;font-size:8.07px;stroke:none;">57</text>
   <text y="226.778" x="488.591" svgx:width="0.33" style="fill:rgb(0,0,0);font-family:URWPalladioL-Roma;font-size:8.07px;stroke:none;">]</text>
   <text y="227.059" x="361.889" svgx:width="0.83" style="fill:rgb(0,0,0);font-family:URWPalladioL-Roma;font-size:8.07px;stroke:none;">H</text>
   <text y="228.671" x="368.603" svgx:width="0.5" style="fill:rgb(0,0,0);font-family:URWPalladioL-Roma;font-size:6.28px;stroke:none;">2</text>
   <text y="227.059" x="372.189" svgx:width="0.79" style="fill:rgb(0,0,0);font-family:URWPalladioL-Roma;font-size:8.07px;stroke:none;">O</text>
   <text y="228.671" x="378.532" svgx:width="0.5" style="fill:rgb(0,0,0);font-family:URWPalladioL-Roma;font-size:6.28px;stroke:none;">2</text>
   <text y="227.059" x="384.136,387.178,391.044,395.974,400.84,404.423,407.054,409.402,413.808" svgx:width="0.4,0.48,0.61,0.6,0.44,0.33,0.29,0.55,0.58" style="fill:rgb(0,0,0);font-family:URWPalladioL-Roma;font-size:8.07px;stroke:none;">reduction</text>
   <text y="237.136" x="350.72,354.956,358.822,361.17,365.036,368.619,371.249,373.598,378.157,382.0306,384.04,388.89,391.932,395.797,399.38,401.729,406.579,408.927,411.558,415.593,418.223,420.572,424.978" svgx:width="0.52,0.48,0.29,0.48,0.44,0.33,0.29,0.56,0.48,0.55,0.6,0.4,0.48,0.44,0.29,0.6,0.29,0.33,0.5,0.33,0.29,0.55,0.58" style="fill:rgb(0,0,0);font-family:URWPalladioL-Roma;font-size:8.07px;stroke:none;">Selective precipitation</text>
  </g>
  <path style="fill:none;stroke:rgb(0,0,0);stroke-width:0.27;" d="M79.210 241.990 L516.070 241.990 "/>
  <g begin="text">
   <text y="256.516" x="87.74,94.083,98.779,102.984,107.4225,109.407,113.612,117.477,121.06,125.757,130.453,134.859,137.208,141.614,146.1" svgx:width="0.79,0.58,0.61,0.55,0.55,0.61,0.48,0.44,0.58,0.58,0.55,0.29,0.55,0.56,0.56" style="fill:rgb(0,0,0);font-family:URWPalladioL-Roma;font-size:8.07px;stroke:none;">OnTo Technology</text>
   <text y="266.379" x="108.192,110.88,117.158,121.395,127.673" svgx:width="0.33,0.78,0.52,0.78,0.33" style="fill:rgb(0,0,0);font-family:URWPalladioL-Roma;font-size:8.07px;stroke:none;">(USA)</text>
   <text y="251.535" x="170.435,177.141,181.548,186.107,189.972,197.098,201.561,205.426,208.654,210.631,214.666,218.701,222.736,226.771,256.621,260.857,265.723,270.573,274.439,277.481,281.064,284.251,286.6,289.23,291.579,295.162,299.197,301.5373,303.562,309.284" svgx:width="0.83,0.55,0.56,0.48,0.88,0.55,0.48,0.4,0.55,0.5,0.5,0.5,0.5,0.55,0.52,0.6,0.6,0.48,0.4,0.44,0.4,0.29,0.33,0.29,0.44,0.5,0.29,0.55,0.71,0.79" style="fill:rgb(0,0,0);font-family:URWPalladioL-Roma;font-size:8.07px;stroke:none;">November 2005 Supercritical CO</text>
   <text y="253.148" x="315.629" svgx:width="0.5" style="fill:rgb(0,0,0);font-family:URWPalladioL-Roma;font-size:6.28px;stroke:none;">2</text>
   <text y="257.303" x="350.097,356.811,360.677,364.711,367.342,369.69,374.387,378.9062,380.891,384.926,387.5891,389.574,393.609,397.644,401.679,405.714,409.749,413.784" svgx:width="0.83,0.48,0.5,0.33,0.29,0.58,0.56,0.55,0.5,0.33,0.55,0.5,0.5,0.5,0.5,0.5,0.5,0.5" style="fill:rgb(0,0,0);font-family:URWPalladioL-Roma;font-size:8.07px;stroke:none;">Heating at 400–900</text>
   <text y="254.374" x="419.835" svgx:width="0.52" style="fill:rgb(0,0,0);font-family:Pxsy;font-size:6.28px;stroke:none;">◦</text>
   <text y="257.303" x="423.566,429.287" svgx:width="0.71,0.25" style="fill:rgb(0,0,0);font-family:URWPalladioL-Roma;font-size:8.07px;stroke:none;">C,</text>
   <text y="267.166" x="349.368,354.299,356.647,362.99,369.6881,371.721,375.756,378.104,382.591,386.626,388.974,391.323,396.019,399.8926,401.902,405.324,409.73,412.078,416.944,419.575,421.923,426.329" svgx:width="0.61,0.29,0.79,0.83,0.55,0.5,0.29,0.56,0.5,0.29,0.29,0.58,0.48,0.55,0.42,0.55,0.29,0.6,0.33,0.29,0.55,0.58" style="fill:rgb(0,0,0);font-family:URWPalladioL-Roma;font-size:8.07px;stroke:none;">LiOH alkaline solution</text>
   <text y="261.331" x="467.747" svgx:width="0.33" style="fill:rgb(0,0,0);font-family:URWPalladioL-Roma;font-size:8.07px;stroke:none;">[</text>
   <text y="261.331" x="470.434,474.469" svgx:width="0.5,0.5" style="fill:rgb(8,117,183);font-family:URWPalladioL-Roma;font-size:8.07px;stroke:none;">58</text>
   <text y="261.331" x="478.504" svgx:width="0.25" style="fill:rgb(0,0,0);font-family:URWPalladioL-Roma;font-size:8.07px;stroke:none;">,</text>
   <text y="261.331" x="480.521,484.556" svgx:width="0.5,0.5" style="fill:rgb(8,117,183);font-family:URWPalladioL-Roma;font-size:8.07px;stroke:none;">59</text>
   <text y="261.331" x="488.591" svgx:width="0.33" style="fill:rgb(0,0,0);font-family:URWPalladioL-Roma;font-size:8.07px;stroke:none;">]</text>
   <text y="261.612" x="181.467,184.154,189.02,193.717,197.59060000000002,199.6,203.634,207.669,211.704,215.739,251.553,257.799,260.147,263.569,267.603,271.025,274.447,278.312,285.438,289.9,292.248" svgx:width="0.33,0.6,0.58,0.48,0.55,0.5,0.5,0.5,0.5,0.55,0.77,0.29,0.42,0.5,0.42,0.42,0.48,0.88,0.55,0.29,0.56" style="fill:rgb(0,0,0);font-family:URWPalladioL-Roma;font-size:8.07px;stroke:none;">June 2010 Disassembly</text>
   <text y="261.612" x="296.732" svgx:width="0.29" style="fill:rgb(0,0,0);font-family:Rpxr;font-size:8.07px;stroke:none;">/</text>
   <text y="261.612" x="299.048,302.631,307.497,310.128,312.759,315.107,319.804" svgx:width="0.44,0.6,0.33,0.33,0.29,0.58,0.56" style="fill:rgb(0,0,0);font-family:URWPalladioL-Roma;font-size:8.07px;stroke:none;">cutting</text>
   <text y="271.69" x="170.436,177.141,181.548,186.107,189.972,197.098,201.561,205.426,208.654,210.631,214.666,218.701,222.736,226.771,286.576" svgx:width="0.83,0.55,0.56,0.48,0.88,0.55,0.48,0.4,0.55,0.5,0.5,0.5,0.5,0.55,0.33" style="fill:rgb(0,0,0);font-family:URWPalladioL-Roma;font-size:8.07px;stroke:none;">November 2016 -</text>
  </g>
  <path style="fill:none;stroke:rgb(0,0,0);stroke-width:0.27;" d="M79.210 276.540 L516.070 276.540 "/>
  <g begin="text">
   <text y="291.02" x="88.66,94.05,97.916,100.546,103.734,106.082,109.948,114.46719999999999,116.525,119.212,124.933,128.968,133.665,137.7,142.63,146.665,149.3281,171.423,177.669,181.535,185.118,188.983,196.109,200.571,204.437,207.66500000000002,209.642,213.676,217.711,221.746" svgx:width="0.67,0.48,0.33,0.4,0.29,0.48,0.56,0.55,0.33,0.71,0.5,0.58,0.5,0.61,0.5,0.33,0.55,0.77,0.48,0.44,0.48,0.88,0.55,0.48,0.4,0.55,0.5,0.5,0.5,0.5" style="fill:rgb(0,0,0);font-family:URWPalladioL-Roma;font-size:8.07px;stroke:none;">Retriev (Canada) December 2013</text>
   <text y="286.089" x="259.841,267.169,271.034,273.6971,275.682,282.808,286.673,290.256,294.953,298.988,303.684,306.033,309.616,313.651" svgx:width="1.0,0.48,0.33,0.55,0.88,0.48,0.44,0.58,0.5,0.58,0.29,0.44,0.5,0.29" style="fill:rgb(0,0,0);font-family:URWPalladioL-Roma;font-size:8.07px;stroke:none;">Wet mechanical</text>
   <text y="295.952" x="270.659,273.289,276.332,280.197,284.232,286.863,293.988,297.854,302.55" svgx:width="0.33,0.4,0.48,0.5,0.33,0.88,0.48,0.58,0.33" style="fill:rgb(0,0,0);font-family:URWPalladioL-Roma;font-size:8.07px;stroke:none;">treatment</text>
   <text y="286.089" x="351.273,355.759,358.108,362.514,365.144,369.179,371.81,374.158,378.564,383.24460000000005,385.278,389.313,394.01,398.9327,400.958,404.993,407.341,411.828,415.863,418.211,420.56,425.256" svgx:width="0.56,0.29,0.55,0.33,0.5,0.33,0.29,0.55,0.58,0.55,0.5,0.58,0.61,0.55,0.5,0.29,0.56,0.5,0.29,0.29,0.58,0.48" style="fill:rgb(0,0,0);font-family:URWPalladioL-Roma;font-size:8.07px;stroke:none;">Flotation and alkaline</text>
   <text y="295.952" x="372.935,375.566,378.609,382.474,386.509,389.14,396.265,400.13,404.827" svgx:width="0.33,0.4,0.48,0.5,0.33,0.88,0.48,0.58,0.33" style="fill:rgb(0,0,0);font-family:URWPalladioL-Roma;font-size:8.07px;stroke:none;">treatment</text>
   <text y="291.02" x="472.791" svgx:width="0.33" style="fill:rgb(0,0,0);font-family:URWPalladioL-Roma;font-size:8.07px;stroke:none;">[</text>
   <text y="291.02" x="475.478,479.513" svgx:width="0.5,0.5" style="fill:rgb(8,117,183);font-family:URWPalladioL-Roma;font-size:8.07px;stroke:none;">60</text>
   <text y="291.02" x="483.548" svgx:width="0.33" style="fill:rgb(0,0,0);font-family:URWPalladioL-Roma;font-size:8.07px;stroke:none;">]</text>
  </g>
  <path style="fill:none;stroke:rgb(0,0,0);stroke-width:0.27;" d="M79.210 300.590 L516.070 300.590 "/>
  <g begin="text">
   <text y="329.402" x="93.731,98.662,101.785,106.651,111.347,116.189,118.215,120.902,126.624,131.32,133.668,138.365,142.4,145.06310000000002,176.091,182.369,187.236,191.722,196.588,200.01,202.67309999999998,204.658,208.693,212.728,216.763,220.798,243.781,248.558,252.955,255.936,260.254,262.555,266.953,270.306,272.607" svgx:width="0.61,0.4,0.6,0.58,0.6,0.55,0.33,0.71,0.58,0.29,0.58,0.5,0.33,0.55,0.78,0.6,0.56,0.6,0.42,0.33,0.55,0.5,0.5,0.5,0.5,0.55,0.6,0.56,0.4,0.55,0.29,0.56,0.42,0.29,0.42" style="fill:rgb(0,0,0);font-family:URWPalladioL-Roma;font-size:8.07px;stroke:none;">Brunp (China) August 2018 Pyrolysis</text>
   <text y="329.402" x="275.957" svgx:width="0.29" style="fill:rgb(0,0,0);font-family:Rpxr;font-size:8.07px;stroke:none;">/</text>
   <text y="329.402" x="278.227,282.829,287.226,292.058,295.04,299.358,306.341,310.129,312.707,316.661,318.963,321.264,326.033,329.006,333.403" svgx:width="0.58,0.56,0.61,0.4,0.55,0.88,0.48,0.33,0.5,0.29,0.29,0.6,0.4,0.56,0.56" style="fill:rgb(0,0,0);font-family:URWPalladioL-Roma;font-size:8.07px;stroke:none;">hydrometallurgy</text>
   <text y="310.136" x="361.925" svgx:width="0.83" style="fill:rgb(0,0,0);font-family:URWPalladioL-Roma;font-size:8.07px;stroke:none;">H</text>
   <text y="311.749" x="368.639" svgx:width="0.5" style="fill:rgb(0,0,0);font-family:URWPalladioL-Roma;font-size:6.28px;stroke:none;">2</text>
   <text y="310.136" x="372.225,376.462" svgx:width="0.52,0.79" style="fill:rgb(0,0,0);font-family:URWPalladioL-Roma;font-size:8.07px;stroke:none;">SO</text>
   <text y="311.749" x="382.805" svgx:width="0.5" style="fill:rgb(0,0,0);font-family:URWPalladioL-Roma;font-size:6.28px;stroke:none;">4</text>
   <text y="310.136" x="388.408,390.757,394.622,398.657,402.24,406.936,409.285,413.981" svgx:width="0.29,0.48,0.5,0.44,0.58,0.29,0.58,0.56" style="fill:rgb(0,0,0);font-family:URWPalladioL-Roma;font-size:8.07px;stroke:none;">leaching</text>
   <text y="329.795" x="472.791" svgx:width="0.33" style="fill:rgb(0,0,0);font-family:URWPalladioL-Roma;font-size:8.07px;stroke:none;">[</text>
   <text y="329.795" x="475.478,479.513" svgx:width="0.5,0.5" style="fill:rgb(8,117,183);font-family:URWPalladioL-Roma;font-size:8.07px;stroke:none;">61</text>
   <text y="329.795" x="483.548" svgx:width="0.33" style="fill:rgb(0,0,0);font-family:URWPalladioL-Roma;font-size:8.07px;stroke:none;">]</text>
   <text y="320.213" x="351.113" svgx:width="0.83" style="fill:rgb(0,0,0);font-family:URWPalladioL-Roma;font-size:8.07px;stroke:none;">H</text>
   <text y="321.826" x="357.827" svgx:width="0.5" style="fill:rgb(0,0,0);font-family:URWPalladioL-Roma;font-size:6.28px;stroke:none;">2</text>
   <text y="320.213" x="361.414" svgx:width="0.79" style="fill:rgb(0,0,0);font-family:URWPalladioL-Roma;font-size:8.07px;stroke:none;">O</text>
   <text y="321.826" x="367.757" svgx:width="0.5" style="fill:rgb(0,0,0);font-family:URWPalladioL-Roma;font-size:6.28px;stroke:none;">2</text>
   <text y="320.213" x="371.343,373.3605,375.378,382.084" svgx:width="0.25,0.55,0.83,0.5" style="fill:rgb(0,0,0);font-family:URWPalladioL-Roma;font-size:8.07px;stroke:none;">, Na</text>
   <text y="321.826" x="386.119" svgx:width="0.5" style="fill:rgb(0,0,0);font-family:URWPalladioL-Roma;font-size:6.28px;stroke:none;">2</text>
   <text y="320.213" x="389.705,393.942,395.9595,397.977,402.383,405.611,407.588,414.294,418.329,425.043" svgx:width="0.52,0.25,0.55,0.55,0.4,0.55,0.83,0.5,0.83,0.52" style="fill:rgb(0,0,0);font-family:URWPalladioL-Roma;font-size:8.07px;stroke:none;">S, or NaHS</text>
   <text y="330.076" x="373.012,376.054,379.92,384.85,389.716,393.299,395.93,398.278,402.684" svgx:width="0.4,0.48,0.61,0.6,0.44,0.33,0.29,0.55,0.58" style="fill:rgb(0,0,0);font-family:URWPalladioL-Roma;font-size:8.07px;stroke:none;">reduction</text>
   <text y="339.939" x="350.054,356.76,361.19849999999997,363.183,365.532,370.228,375.159,377.507,381.09,385.125,387.756,390.104,394.51,399.1906,401.224,405.63,408.2931,410.335,417.461,421.326,423.957,427.992" svgx:width="0.83,0.55,0.55,0.29,0.58,0.61,0.29,0.44,0.5,0.33,0.29,0.55,0.58,0.55,0.55,0.33,0.55,0.88,0.48,0.33,0.5,0.29" style="fill:rgb(0,0,0);font-family:URWPalladioL-Roma;font-size:8.07px;stroke:none;">No indication of metal</text>
   <text y="349.802" x="356.457,359.5,363.365,366.948,371.354,375.914,379.779,382.966,387.4852,389.471,391.819,396.49960000000004,398.533,401.575,405.441,410.291,414.697,417.884,420.515" svgx:width="0.4,0.48,0.44,0.55,0.56,0.48,0.4,0.56,0.55,0.29,0.58,0.55,0.4,0.48,0.6,0.55,0.4,0.33,0.42" style="fill:rgb(0,0,0);font-family:URWPalladioL-Roma;font-size:8.07px;stroke:none;">recovery in reports</text>
  </g>
  <path style="fill:none;stroke:rgb(0,0,0);stroke-width:0.27;" d="M79.210 354.660 L516.070 354.660 "/>
  <g begin="text">
   <text y="380.486" x="97.795,103.786,109.474,114.2548,116.657,121.994,127.682,130.526,136.1036,138.462,144.336,148.01,153.346,157.686,162.367,166.511,170.6942,173.157,176.343,182.031,186.918,190.2048,192.606,198.294,203.181,207.3642,209.826,215.231,219.913,224.594,230.3708,232.774,236.459,241.14,247.014,252.35,256.211,259.397,264.078,270.1536,272.552,275.738,281.216,283.576,287.251,291.932,296.271,301.608,307.129,311.811,315.79499999999996,318.173,323.578,328.914,332.1,337.8768,340.29,346.262,349.1504,351.608,354.862,358.537,363.873,375.005,378.191,383.879,388.6598,391.063,395.744,398.588,403.269,407.609,410.795,414.47,419.806,425.777,430.459,434.6422,437.105,441.991,447.679,453.7546,456.153,462.095,467.988,473.325,477.185,480.029,485.717,490.398,493.653,499.058,503.944,508.088,512.77" svgx:width="0.61,0.58,0.48,0.55,0.55,0.58,0.29,0.56,0.55,0.6,0.4,0.55,0.44,0.48,0.42,0.42,0.55,0.33,0.58,0.5,0.33,0.55,0.58,0.5,0.42,0.55,0.55,0.48,0.48,0.58,0.55,0.4,0.48,0.6,0.55,0.4,0.33,0.48,0.61,0.55,0.33,0.55,0.55,0.4,0.48,0.44,0.55,0.56,0.48,0.4,0.55,0.55,0.55,0.33,0.58,0.55,0.61,0.29,0.55,0.33,0.4,0.55,0.88,0.33,0.58,0.48,0.55,0.48,0.29,0.48,0.44,0.33,0.4,0.55,0.61,0.48,0.42,0.55,0.5,0.58,0.61,0.55,0.61,0.6,0.55,0.4,0.29,0.58,0.48,0.33,0.55,0.5,0.42,0.48,0.61" style="fill:rgb(0,0,0);font-family:URWPalladioL-Roma;font-size:9.96px;stroke:none;">The only process that has been reported to recover both Li fromthe electrodes and ﬂuorine-based</text>
   <text y="393.996" x="76.535,81.616,87.53,90.487,96.036,101.95,106.1332,109.185,114.266,118.4492,121.501,129.976,134.844,137.801,140.68939999999998,143.685,148.765,152.94819999999999,156.001,162.21" svgx:width="0.5,0.58,0.29,0.55,0.58,0.42,0.55,0.5,0.42,0.55,0.83,0.48,0.29,0.29,0.55,0.5,0.42,0.55,0.61,0.29" style="fill:rgb(0,0,0);font-family:URWPalladioL-Roma;font-size:9.96px;stroke:none;">anions as well as Li</text>
   <text y="390.379" x="165.164" svgx:width="0.67" style="fill:rgb(0,0,0);font-family:Rpxr;font-size:7.57px;stroke:none;">+</text>
   <text y="393.996" x="173.654,176.611,182.159,188.074,192.2572,195.309,198.693,202.524,208.072,216.8368,219.972,224.484,230.032,235.946,242.155,248.283,252.795,256.107,259.064,264.806,269.5868,272.6,276.909,281.99,284.947,288.259,292.4422,295.495,298.452,302.6352,305.687,309.0,314.914,319.995,323.28180000000003,326.234,329.191,338.164,344.271,347.229,352.096,361.069,365.936,371.851,375.163,380.031,386.1066,389.166,394.786,400.3636,403.363,410.151,415.018,419.53,425.658,431.765,437.415,440.3034,443.299,446.683,451.194,454.152,459.232,462.19,470.9548,474.089,479.17,481.66,484.739,489.82,494.901,498.18780000000004,501.211" svgx:width="0.29,0.55,0.58,0.42,0.55,0.33,0.4,0.55,0.88,0.55,0.44,0.55,0.58,0.61,0.6,0.44,0.33,0.29,0.56,0.48,0.55,0.42,0.5,0.29,0.33,0.42,0.55,0.29,0.42,0.55,0.33,0.58,0.5,0.33,0.55,0.29,0.88,0.6,0.29,0.48,0.88,0.48,0.58,0.33,0.48,0.61,0.55,0.55,0.56,0.55,0.67,0.48,0.44,0.6,0.6,0.56,0.29,0.55,0.33,0.44,0.29,0.5,0.29,0.88,0.55,0.5,0.25,0.55,0.5,0.5,0.33,0.55,0.33" style="fill:rgb(0,0,0);font-family:URWPalladioL-Roma;font-size:9.96px;stroke:none;">ions from conductive salts is that implemented by Recupyl [claim 5, 11] [</text>
   <text y="393.996" x="504.597,509.578" svgx:width="0.5,0.5" style="fill:rgb(8,117,183);font-family:URWPalladioL-Roma;font-size:9.96px;stroke:none;">56</text>
   <text y="393.996" x="514.559,517.943" svgx:width="0.33,0.25" style="fill:rgb(0,0,0);font-family:URWPalladioL-Roma;font-size:9.96px;stroke:none;">].</text>
   <text y="407.505" x="76.226,82.455,88.369,93.1498,97.617,101.448,106.315,110.827,116.375,122.117,126.984,130.998,136.57559999999998,141.028,146.577,149.8638,154.34,158.649,164.756,169.624,175.538,178.8248,183.23,188.098,191.055,195.922,200.434,203.737,207.578,213.126,216.084,221.734,225.046,229.914,234.0972,238.602,241.559,245.7422,250.238,255.786,261.7,266.4808,270.947,276.496,279.7828,284.259,287.572,293.486,298.2668,302.734,311.707,317.255,321.564,324.85080000000005,329.256,332.213,341.186,347.293,352.842,356.856,360.168,365.249,371.164,374.4508,378.846,383.358,389.272,394.353,397.31,400.267,405.135,411.049,416.699,421.4798,425.946,428.903,434.6798,439.197,442.51,448.424,453.2048,457.671,463.88,467.305,473.3806,477.883,481.724,486.592,491.104,496.754,501.266,504.223,507.18,513.094" svgx:width="0.61,0.58,0.48,0.55,0.4,0.48,0.44,0.55,0.56,0.48,0.4,0.56,0.55,0.55,0.33,0.55,0.42,0.6,0.48,0.58,0.33,0.55,0.48,0.29,0.48,0.44,0.33,0.4,0.55,0.29,0.56,0.33,0.48,0.42,0.55,0.29,0.42,0.55,0.55,0.58,0.48,0.55,0.55,0.33,0.55,0.33,0.58,0.48,0.55,0.88,0.55,0.42,0.33,0.55,0.29,0.88,0.6,0.55,0.4,0.33,0.5,0.58,0.33,0.55,0.44,0.58,0.5,0.29,0.29,0.48,0.58,0.56,0.48,0.55,0.29,0.58,0.55,0.33,0.58,0.48,0.55,0.61,0.34,0.61,0.55,0.4,0.48,0.44,0.56,0.44,0.29,0.29,0.58,0.56" style="fill:rgb(0,0,0);font-family:URWPalladioL-Roma;font-size:9.96px;stroke:none;">The recovery of spent electrolytes is one of the most important challenge in the LIB recycling</text>
   <text y="421.014" x="76.535,79.483,85.38,91.571,97.68,101.976,105.279,109.282,114.8596,117.407" svgx:width="0.29,0.58,0.61,0.6,0.42,0.33,0.4,0.56,0.55,0.33" style="fill:rgb(0,0,0);font-family:URWPalladioL-Roma;font-size:9.96px;stroke:none;">industry [</text>
   <text y="421.014" x="120.785" svgx:width="0.5" style="fill:rgb(8,117,183);font-family:URWPalladioL-Roma;font-size:9.96px;stroke:none;">6</text>
   <text y="421.014" x="125.767" svgx:width="0.25" style="fill:rgb(0,0,0);font-family:URWPalladioL-Roma;font-size:9.96px;stroke:none;">,</text>
   <text y="421.014" x="128.3,133.281" svgx:width="0.5,0.5" style="fill:rgb(8,117,183);font-family:URWPalladioL-Roma;font-size:9.96px;stroke:none;">11</text>
   <text y="421.014" x="138.262" svgx:width="0.25" style="fill:rgb(0,0,0);font-family:URWPalladioL-Roma;font-size:9.96px;stroke:none;">,</text>
   <text y="421.014" x="140.795,145.776" svgx:width="0.5,0.5" style="fill:rgb(8,117,183);font-family:URWPalladioL-Roma;font-size:9.96px;stroke:none;">52</text>
   <text y="421.014" x="150.758,154.0448,156.624,161.69,167.587,173.6626,176.28,180.576,186.473,192.005,198.115,201.063,207.1386,209.746,215.349,220.1298,222.705,225.653,234.6,240.689,243.638,248.491,257.437,262.291,268.187,271.49,276.344,282.4196,285.027,288.401,293.933,297.917,300.427,305.281,310.509,313.457,317.753,321.056,324.004,329.901,335.47860000000003,338.037,343.569,347.553,350.064,356.254,361.108,366.832,371.685,374.634,380.166,386.255,389.204,395.1,400.67760000000004,403.226,409.315,413.145,418.677,423.176,428.029,432.325,436.621,441.474,445.77,448.26,451.809,458.02,463.917,466.865,471.0482,473.653,476.602,485.548,491.638,497.17,501.172,504.475,509.541,515.438" svgx:width="0.33,0.55,0.5,0.58,0.61,0.55,0.42,0.58,0.55,0.6,0.29,0.61,0.55,0.55,0.48,0.55,0.29,0.88,0.6,0.29,0.48,0.88,0.48,0.58,0.33,0.48,0.61,0.55,0.33,0.55,0.4,0.55,0.48,0.52,0.29,0.42,0.33,0.29,0.58,0.56,0.55,0.55,0.4,0.55,0.61,0.48,0.56,0.48,0.29,0.55,0.6,0.29,0.58,0.56,0.55,0.6,0.4,0.55,0.44,0.48,0.42,0.42,0.48,0.42,0.25,0.55,0.61,0.58,0.29,0.42,0.55,0.29,0.88,0.6,0.55,0.4,0.33,0.5,0.58,0.33" style="fill:rgb(0,0,0);font-family:URWPalladioL-Roma;font-size:9.96px;stroke:none;">] and should be implemented for existing or developing processes. This important</text>
   <text y="434.524" x="76.535,80.784,84.052,88.853,94.829,97.382,103.215,108.226,112.4092,114.971,120.513,125.314,130.115,135.89180000000002,138.453,141.37,147.203,151.653,155.431,160.232,165.243,169.493,172.409,178.242,183.814,186.731,192.30859999999998,194.799,199.048,202.316,208.359,214.483,217.399,222.2,228.2756,230.829,236.302,240.286,242.756,245.673,251.506,254.773,259.574,265.146,269.105,274.116,277.383,282.184,288.308,290.798,293.319,296.235,302.068,306.518,309.435,315.478,321.602,324.518,330.352,335.9296,338.42,341.336,347.1128,349.675,352.942,358.775,363.5558,366.071,369.86,374.66,379.11,383.911,389.744,393.03080000000006,395.507,401.53,404.447,407.363,412.836,416.12280000000004,418.608,424.632,427.548,432.56,438.393,441.6798,444.156,450.179,453.957,459.43,461.775,466.576,471.026,474.31280000000004,476.798,482.822,486.6,492.073,498.096,503.568,507.818,512.618" svgx:width="0.42,0.33,0.48,0.6,0.55,0.58,0.5,0.42,0.55,0.55,0.48,0.48,0.58,0.55,0.29,0.58,0.44,0.4,0.48,0.5,0.42,0.29,0.58,0.56,0.29,0.56,0.55,0.42,0.33,0.6,0.61,0.29,0.48,0.61,0.55,0.55,0.4,0.55,0.29,0.58,0.33,0.48,0.56,0.4,0.5,0.33,0.48,0.61,0.25,0.55,0.29,0.58,0.44,0.29,0.6,0.61,0.29,0.58,0.56,0.55,0.29,0.58,0.55,0.33,0.58,0.48,0.55,0.4,0.48,0.44,0.48,0.58,0.33,0.55,0.6,0.29,0.29,0.55,0.33,0.55,0.6,0.29,0.5,0.58,0.33,0.55,0.6,0.4,0.55,0.23,0.48,0.44,0.33,0.55,0.6,0.4,0.55,0.6,0.55,0.42,0.48,0.61" style="fill:rgb(0,0,0);font-family:URWPalladioL-Roma;font-size:9.96px;stroke:none;">step has been increasingly studied or integrated, including in the recent pilot plant project proposed</text>
   <text y="448.033" x="76.535,82.155,87.7326,91.686,98.474,103.342,107.854,113.504,118.016,120.973,126.054,131.704,136.4848,140.453,146.662,149.619,152.932,158.846,161.803,167.351,173.266,175.756,180.033,188.508,194.423,199.29,203.121,207.9018,211.871,215.183,221.097,225.8778,229.847,235.395,239.236,244.886,249.967,255.882,258.839,263.2214,267.232,271.744,276.825,280.839,286.459,292.007,297.921,303.002,306.315,311.0958,315.064,319.373,324.921,327.878,333.62,338.487,344.401,347.714,351.8972,355.905,360.986,364.817,369.5978,373.566,378.078,383.159,389.266,392.579,398.706,402.537,407.405,413.4806,417.496,423.705,429.832,433.846,436.803,442.717,448.2946,452.249,455.562,461.476,466.2568,470.225,475.306,481.434,484.747,490.295,499.268,504.349,507.662,512.529" svgx:width="0.55,0.56,0.55,0.67,0.48,0.44,0.56,0.44,0.29,0.5,0.56,0.48,0.55,0.61,0.29,0.33,0.58,0.29,0.55,0.58,0.25,0.55,0.83,0.58,0.48,0.4,0.48,0.55,0.33,0.58,0.48,0.55,0.55,0.4,0.56,0.5,0.58,0.29,0.44,0.55,0.44,0.5,0.4,0.55,0.55,0.58,0.5,0.33,0.48,0.55,0.42,0.55,0.29,0.56,0.48,0.58,0.33,0.42,0.55,0.5,0.4,0.48,0.55,0.44,0.5,0.6,0.33,0.6,0.4,0.48,0.61,0.55,0.61,0.6,0.4,0.29,0.58,0.56,0.55,0.33,0.58,0.48,0.55,0.5,0.6,0.33,0.55,0.88,0.5,0.33,0.48,0.61" style="fill:rgb(0,0,0);font-family:URWPalladioL-Roma;font-size:9.96px;stroke:none;">by Recyclage Lithion, where the organic carbonate solvents are captured during the automated</text>
   <text y="461.543" x="76.535,82.622,85.521,89.745,98.542,103.524,109.322,112.57,115.469,118.368,124.166,129.7436,132.196,136.42,139.668,144.44,150.416,152.918,157.9,163.698,169.77360000000002,172.276,177.257,181.013,185.7938,188.275,192.5,198.507,204.016,208.241,213.013,218.592,224.599,229.371,235.169,238.417,241.316,246.8936,249.346,255.433,258.332,262.557,265.804,268.703,271.603,274.502,279.274,285.3496,287.852,290.751,296.549,299.797,305.27500000000003,307.727,311.951,316.723,322.352,327.124,331.059,336.041,338.9294,341.431,344.748,348.683,353.665,358.088,361.336,364.235,369.674,375.473,379.6562,382.188" svgx:width="0.61,0.29,0.42,0.88,0.5,0.58,0.33,0.29,0.29,0.58,0.56,0.55,0.42,0.33,0.48,0.6,0.55,0.5,0.58,0.61,0.55,0.5,0.4,0.48,0.55,0.42,0.6,0.55,0.42,0.48,0.56,0.6,0.48,0.58,0.33,0.29,0.56,0.55,0.61,0.29,0.42,0.33,0.29,0.29,0.29,0.48,0.61,0.55,0.29,0.58,0.33,0.55,0.55,0.42,0.48,0.56,0.48,0.4,0.5,0.29,0.55,0.33,0.4,0.5,0.44,0.33,0.29,0.55,0.58,0.42,0.55,0.33" style="fill:rgb(0,0,0);font-family:URWPalladioL-Roma;font-size:9.96px;stroke:none;">dismantling step and are subsequently distilled into several fractions [</text>
   <text y="461.543" x="385.505,390.486" svgx:width="0.5,0.5" style="fill:rgb(8,117,183);font-family:URWPalladioL-Roma;font-size:9.96px;stroke:none;">62</text>
   <text y="461.543" x="395.468,398.785" svgx:width="0.33,0.25" style="fill:rgb(0,0,0);font-family:URWPalladioL-Roma;font-size:9.96px;stroke:none;">].</text>
   <text y="475.052" x="97.795,105.678,111.574,117.107,120.41,126.306,131.16,135.144,137.644,140.592,149.539,155.628,161.16,165.162,168.465,173.531,179.428,182.7148,185.214,190.28,194.576,200.665,205.518,210.017,213.3038,215.792,221.324,224.6108,227.18,231.01,235.863,240.362,245.995,250.494,253.442,256.38,262.277,267.8546,270.393,274.892,280.424,286.32,290.819,295.672,299.674,305.571,309.7542,312.349,317.983,321.985,327.051,333.14,339.037,341.985,345.288,350.142,352.632,356.16,364.043,368.541,373.04,378.572,382.392,388.582,391.531,397.427,403.00460000000004,405.543,408.846,414.324,416.861,420.164,426.06,430.8408,433.396,437.895,440.843,445.909,450.205,454.501,457.449,463.579,468.078,473.144,476.447,479.395,484.927,490.7038,493.296,498.828,502.1148,504.684,507.987,513.884" svgx:width="0.78,0.58,0.55,0.33,0.58,0.48,0.4,0.55,0.29,0.88,0.6,0.55,0.4,0.33,0.5,0.58,0.33,0.55,0.5,0.42,0.6,0.48,0.44,0.33,0.55,0.55,0.33,0.55,0.4,0.48,0.44,0.56,0.44,0.29,0.29,0.58,0.56,0.55,0.44,0.55,0.58,0.44,0.48,0.4,0.58,0.42,0.55,0.56,0.4,0.5,0.6,0.58,0.29,0.33,0.48,0.25,0.55,0.78,0.44,0.44,0.55,0.4,0.61,0.29,0.58,0.56,0.55,0.33,0.55,0.55,0.33,0.58,0.48,0.55,0.44,0.29,0.5,0.42,0.42,0.29,0.61,0.44,0.5,0.33,0.29,0.55,0.58,0.55,0.55,0.33,0.55,0.33,0.58,0.48" style="fill:rgb(0,0,0);font-family:URWPalladioL-Roma;font-size:9.96px;stroke:none;">Another important aspect of recycling concerns graphite. According to the classiﬁcation of the</text>
   <text y="488.561" x="76.535,82.5,88.388,92.068,97.399,103.267,107.944,112.825,120.265,127.861,133.543,136.384,141.715,147.397,149.887,151.742,157.171,161.027,165.909,171.776,177.459,180.3,183.483,188.2638,189.917,192.758,196.9412,198.655,202.99,208.321,214.003,218.143,220.984,226.949,231.626,235.307,239.983,247.706,250.889,257.977,263.376,268.1568,269.81,274.79,276.449,280.589,283.772,287.628,292.51,295.693,300.37,305.798,308.639,313.0214,314.732,323.353,328.234,331.417,336.094,339.95,342.791,347.673,350.514,353.004,356.196,365.96,371.642,376.319,383.768,389.636,395.064,398.735,404.066,412.687,417.364,420.547,425.428,428.27,431.111,436.998,440.679,446.107,448.948,453.283,458.165,461.0534,462.763,468.631,472.312,477.643,481.978,486.654,490.794,494.934,499.61,503.7932,505.507,510.389,514.06" svgx:width="0.61,0.6,0.4,0.55,0.6,0.48,0.5,0.58,0.78,0.58,0.29,0.55,0.58,0.25,0.55,0.56,0.4,0.5,0.6,0.58,0.29,0.33,0.48,0.55,0.29,0.42,0.55,0.44,0.55,0.58,0.42,0.29,0.61,0.48,0.4,0.48,0.61,0.33,0.55,0.55,0.48,0.55,0.5,0.55,0.42,0.33,0.4,0.5,0.33,0.48,0.56,0.29,0.44,0.55,0.88,0.5,0.33,0.48,0.4,0.29,0.5,0.29,0.25,0.55,1.0,0.58,0.48,0.58,0.6,0.56,0.4,0.55,0.88,0.48,0.33,0.5,0.29,0.29,0.6,0.4,0.56,0.29,0.44,0.5,0.29,0.55,0.6,0.4,0.55,0.44,0.48,0.42,0.42,0.48,0.42,0.55,0.5,0.4,0.48" style="fill:rgb(0,0,0);font-family:URWPalladioL-Roma;font-size:9.96px;stroke:none;">EuropeanUnion, graphite is consideredtobe a strategic material. Whenpyrometallurgical processes are</text>
   <text y="502.071" x="76.535,82.464,86.634,91.344,97.352,99.842,102.317,106.683,111.6,115.484,120.922,126.29,132.0668,134.511,139.427,145.15,151.22560000000001,153.666,159.133,163.017,167.934,173.843,179.566,182.428,185.633,188.495,192.8774,195.358,198.632,202.517,207.433,211.799,215.005,217.866,223.235,229.01180000000002,231.465,236.382,240.079,244.8598,247.296,250.158,255.527,259.696,262.902,265.392,268.88,277.061,282.43,290.631,295.341,300.897,305.607,308.753,311.243,313.719,316.58,321.29,326.207,330.573,336.296,339.157,344.88,350.4576,352.845,355.706,359.8892,362.383,368.312,372.481,377.191,383.2666,385.697,388.903,394.38100000000003,396.779,402.148,407.586,410.791,415.708,418.569,424.3458,426.79,432.699,438.629,442.336,447.1168,449.543,455.01,458.895,463.811,469.721,475.444,478.305,481.511" svgx:width="0.6,0.42,0.48,0.61,0.25,0.55,0.44,0.5,0.4,0.55,0.55,0.58,0.55,0.5,0.58,0.61,0.55,0.56,0.4,0.5,0.6,0.58,0.29,0.33,0.29,0.44,0.55,0.33,0.4,0.5,0.44,0.33,0.29,0.55,0.58,0.55,0.5,0.4,0.48,0.55,0.29,0.55,0.42,0.33,0.25,0.55,0.83,0.55,0.83,0.48,0.56,0.48,0.4,0.25,0.55,0.29,0.48,0.5,0.44,0.58,0.29,0.58,0.56,0.55,0.29,0.42,0.55,0.6,0.42,0.48,0.61,0.55,0.33,0.55,0.55,0.55,0.55,0.33,0.5,0.29,0.58,0.55,0.6,0.6,0.4,0.48,0.55,0.56,0.4,0.5,0.6,0.58,0.29,0.33,0.48" style="fill:rgb(0,0,0);font-family:URWPalladioL-Roma;font-size:9.96px;stroke:none;">used, carbon and graphitic fraction are lost. However, leaching is used to obtain pure graphite</text>
   <text y="502.071" x="486.222" svgx:width="0.29" style="fill:rgb(0,0,0);font-family:Rpxr;font-size:9.96px;stroke:none;">/</text>
   <text y="502.071" x="489.045,493.411,498.327,502.211,507.649,513.018" svgx:width="0.44,0.5,0.4,0.55,0.55,0.58" style="fill:rgb(0,0,0);font-family:URWPalladioL-Roma;font-size:9.96px;stroke:none;">carbon</text>
   <text y="515.58" x="76.535,79.793,83.657,88.549,92.893,96.082,98.929,104.271,109.964,114.1472,116.598,122.575,128.474,132.339,135.186,140.88,146.45759999999999,148.804,151.993,157.687,162.4678,164.858,170.738,174.426,179.768,184.112,188.798,192.946,197.1292,199.579,205.479,209.627,214.313,220.3886,222.775,228.186,233.7636,236.11,242.645,247.331,251.675,257.574,263.454,268.894,271.7824,274.226" svgx:width="0.33,0.4,0.5,0.44,0.33,0.29,0.55,0.58,0.42,0.55,0.61,0.6,0.4,0.29,0.58,0.56,0.55,0.33,0.58,0.48,0.55,0.6,0.4,0.55,0.44,0.48,0.42,0.42,0.55,0.6,0.42,0.48,0.61,0.55,0.55,0.56,0.55,0.67,0.48,0.44,0.6,0.6,0.56,0.29,0.55,0.33" style="fill:rgb(0,0,0);font-family:URWPalladioL-Roma;font-size:9.96px;stroke:none;">fractions during the process used by Recupyl [</text>
   <text y="515.58" x="277.483,282.464" svgx:width="0.5,0.5" style="fill:rgb(8,117,183);font-family:URWPalladioL-Roma;font-size:9.96px;stroke:none;">56</text>
   <text y="515.58" x="287.445" svgx:width="0.25" style="fill:rgb(0,0,0);font-family:URWPalladioL-Roma;font-size:9.96px;stroke:none;">,</text>
   <text y="515.58" x="289.891,294.872" svgx:width="0.5,0.5" style="fill:rgb(8,117,183);font-family:URWPalladioL-Roma;font-size:9.96px;stroke:none;">57</text>
   <text y="515.58" x="299.854,303.112,305.60200000000003,309.041,316.73,322.424,326.768,331.54879999999997,333.939,337.627,342.313,346.657,351.999,357.526,362.213,365.901,370.587,376.565,379.055,381.496,384.685,390.379,395.065,399.213,403.9938,406.384,415.023,419.914,423.104,427.79,431.654,434.501,439.393,442.24,446.4232,448.873,453.765,457.443,462.2238,464.614,470.494,476.393,480.258,483.105,489.023,493.71,499.7856,502.182,507.074,512.767" svgx:width="0.33,0.25,0.55,0.79,0.58,0.44,0.48,0.55,0.4,0.48,0.44,0.55,0.56,0.48,0.4,0.48,0.61,0.25,0.55,0.33,0.58,0.48,0.42,0.48,0.55,0.88,0.5,0.33,0.48,0.4,0.29,0.5,0.29,0.42,0.55,0.5,0.4,0.48,0.55,0.6,0.6,0.4,0.29,0.61,0.48,0.61,0.55,0.5,0.58,0.61" style="fill:rgb(0,0,0);font-family:URWPalladioL-Roma;font-size:9.96px;stroke:none;">]. Once recovered, these materials are puriﬁed and</text>
   <text y="529.09" x="76.535,80.981,85.987,91.76379999999999,94.307,98.552,103.348,107.303,112.96,117.7408,120.249,125.255,129.4382,131.994,137.561,141.516,146.522,152.539,158.366,161.28,164.544,169.3248,171.833,176.078,181.545,187.583,191.367,195.813,200.5938,203.102,206.016,211.7928,214.336,223.177,228.183,234.01,240.048,243.382,248.388,252.834,256.098,262.135,266.09,269.004,274.831,280.40860000000004,282.891,288.358,291.64480000000003,294.185,300.012,304.808,313.0748,315.651,320.658,326.485,331.952,338.069,342.865,345.355,347.861,351.125,356.953,362.99,367.1732,369.728,373.503,378.299,384.317,387.23,392.236,396.682,399.595,405.423,411.0006,413.493,419.51,423.465,426.379,435.22,440.226,444.181,449.7586,452.241,456.686,461.692,465.647,471.184,476.651,482.4278,484.971,489.217,494.683,500.721,504.495,508.941,513.737,517.982" svgx:width="0.44,0.5,0.58,0.55,0.42,0.48,0.4,0.56,0.48,0.55,0.5,0.42,0.55,0.56,0.4,0.5,0.6,0.58,0.29,0.33,0.48,0.55,0.42,0.55,0.6,0.4,0.44,0.48,0.55,0.29,0.58,0.55,0.88,0.5,0.58,0.6,0.33,0.5,0.44,0.33,0.6,0.4,0.29,0.58,0.56,0.55,0.55,0.33,0.55,0.58,0.48,0.83,0.55,0.5,0.58,0.55,0.61,0.48,0.25,0.55,0.33,0.58,0.6,0.42,0.55,0.4,0.48,0.6,0.29,0.5,0.44,0.29,0.58,0.56,0.55,0.6,0.4,0.29,0.88,0.5,0.4,0.56,0.55,0.44,0.5,0.4,0.55,0.55,0.58,0.55,0.42,0.55,0.6,0.4,0.44,0.48,0.42,0.25" style="fill:rgb(0,0,0);font-family:URWPalladioL-Roma;font-size:9.96px;stroke:none;">can serve as graphite source in manufacturing of new anode, thus replacing primary carbon sources.</text>
   <text y="542.599" x="76.535,81.765,87.773,92.196,97.97279999999999,100.485,104.241,109.013,113.436,118.976,123.399,126.298,129.197,134.996,140.5736,143.025,151.822,156.594,159.842,165.64,171.08,177.15560000000002,179.658,187.967,193.406,199.414,202.313,208.3886,210.891,216.4,221.1808,223.663,228.643,231.135,236.674,240.43,245.202,250.183,253.4698,255.921,264.23,269.212,274.7896,277.241,282.681,285.9678,288.489,291.388,300.185,306.173,309.072,313.844,322.641,327.413,333.211,336.459,339.358,345.156,350.7336,353.186,357.61,360.509,364.265,368.688,374.696,377.595,382.576,386.56,389.002,393.774,398.197,403.637,409.435,414.875,423.672,429.24960000000004,431.702,437.689,441.624,444.523,450.322,454.745,457.644,463.632,466.531,471.303,475.527" svgx:width="0.52,0.6,0.44,0.58,0.55,0.4,0.48,0.44,0.56,0.44,0.29,0.29,0.58,0.56,0.55,0.88,0.48,0.33,0.58,0.55,0.61,0.55,0.83,0.55,0.6,0.29,0.61,0.55,0.55,0.48,0.55,0.5,0.55,0.56,0.4,0.48,0.5,0.33,0.55,0.83,0.5,0.56,0.55,0.55,0.33,0.55,0.29,0.88,0.6,0.29,0.48,0.88,0.48,0.58,0.33,0.29,0.58,0.56,0.55,0.44,0.29,0.4,0.44,0.6,0.29,0.5,0.4,0.55,0.48,0.44,0.55,0.58,0.55,0.88,0.56,0.55,0.6,0.4,0.29,0.58,0.44,0.29,0.6,0.29,0.48,0.42,0.25" style="fill:rgb(0,0,0);font-family:URWPalladioL-Roma;font-size:9.96px;stroke:none;">Such recycling method would be a great way of implementing circular economy principles.</text>
   <text y="565.812" x="76.535,81.516,84.007,88.988,91.478,94.966,101.053,104.749,108.625,111.942,115.638,119.514,123.937,127.255,135.005,138.881,144.42,147.7068,150.228,154.652,157.4408,159.912,165.451,170.432,174.308,179.847,183.1338,185.655,191.195,194.512,200.599" svgx:width="0.5,0.25,0.5,0.25,0.55,0.61,0.39,0.39,0.33,0.39,0.39,0.44,0.33,0.78,0.39,0.56,0.33,0.55,0.44,0.28,0.55,0.56,0.5,0.39,0.56,0.33,0.55,0.56,0.33,0.61,0.39" style="fill:rgb(0,0,0);font-family:URWPalladioL-Ital;font-size:9.96px;stroke:none;">4.2. Pretreatment of Spent LIBs</text>
   <text y="585.299" x="97.795,104.45,109.222,113.646,119.185,123.608,126.507,129.406,135.205,140.7826,143.234,149.222,152.121,157.102,162.901,166.148,170.3312,172.863,176.619,181.391,185.815,190.587,193.486,199.115,203.8958,206.377,210.601,216.589,221.361,227.159,230.4458,232.898,238.985,242.342,248.429,252.6122,255.144,258.043,263.8198,266.332,269.58,277.889,283.367,285.819,289.067,294.606,300.594,305.366,309.5492,312.081,317.52,320.8068,323.328,326.227,331.667,336.648,342.735,346.96" svgx:width="0.67,0.48,0.44,0.56,0.44,0.29,0.29,0.58,0.56,0.55,0.6,0.29,0.5,0.58,0.33,0.42,0.55,0.4,0.48,0.44,0.48,0.29,0.56,0.48,0.55,0.42,0.6,0.48,0.58,0.33,0.55,0.61,0.34,0.61,0.42,0.55,0.29,0.58,0.55,0.33,0.83,0.55,0.55,0.33,0.56,0.6,0.48,0.42,0.55,0.55,0.33,0.55,0.29,0.55,0.5,0.61,0.42,0.25" style="fill:rgb(0,0,0);font-family:URWPalladioL-Roma;font-size:9.96px;stroke:none;">Recycling plants receive spent LIBs in two types of loads:</text>
   <text y="608.771" code="110" x="76.535" svgx:width="0.76" style="fill:rgb(0,0,0);font-family:Dingbats;font-size:4.98px;stroke:none;">?</text>
   <text y="608.771" x="99.598,105.576,111.475,114.322,119.8996,122.256,126.404,132.098,134.945,140.825,149.463,154.15,159.843,163.1298,165.518,170.859,174.1458,176.612,180.76,189.399,194.29,197.137,199.984,203.242,207.39,210.237,215.129,219.9098,222.3,228.277,231.574,237.552,241.7,244.19,246.641,249.488,255.181,259.525,262.372,268.271,274.249,277.096,282.79,288.36760000000004,290.714,296.594,301.936,305.8,308.989,313.881,319.291,322.138,326.9188,329.319,334.661,340.355,345.041,349.189,351.67900000000003,354.12,358.268,366.906,371.798,374.645,377.5334,379.987,384.673,387.52,392.206,396.55,399.739,403.427,408.769,414.463,417.31,421.654,425.802,428.29200000000003,430.733,435.624,441.318,447.3936,449.79,455.768,459.026,464.436,467.283,472.722,477.5028,479.893,488.532,493.874,499.851,505.751,508.598,513.284,517.432" svgx:width="0.61,0.6,0.29,0.56,0.55,0.42,0.58,0.29,0.6,0.88,0.48,0.58,0.33,0.55,0.55,0.33,0.55,0.42,0.88,0.5,0.29,0.29,0.33,0.42,0.29,0.5,0.48,0.55,0.61,0.34,0.61,0.42,0.25,0.55,0.29,0.58,0.44,0.29,0.6,0.61,0.29,0.58,0.56,0.55,0.6,0.55,0.4,0.33,0.5,0.55,0.29,0.48,0.55,0.55,0.58,0.48,0.42,0.25,0.55,0.42,0.88,0.5,0.29,0.29,0.55,0.48,0.29,0.48,0.44,0.33,0.4,0.55,0.58,0.29,0.44,0.42,0.25,0.55,0.5,0.58,0.61,0.55,0.61,0.33,0.55,0.29,0.56,0.48,0.55,0.88,0.55,0.61,0.6,0.29,0.48,0.42,0.25" style="fill:rgb(0,0,0);font-family:URWPalladioL-Roma;font-size:9.96px;stroke:none;">Bulk shipment of small-size LIBs, including portable ones, small electronics, and E-bike modules;</text>
   <text y="623.277" code="110" x="76.535" svgx:width="0.76" style="fill:rgb(0,0,0);font-family:Dingbats;font-size:4.98px;stroke:none;">?</text>
   <text y="623.277" x="99.598,105.685,110.666,113.914,117.162,121.934,125.869,131.4466,133.899,139.887,144.868,149.291,154.831,159.0142,161.545,164.863,168.619,174.058,185.346,191.354,195.578,200.35,206.4256,208.928,214.367,218.351,220.793,225.216,229.152,234.133,238.357,244.155,248.927,255.0026,257.505,262.277,265.176,269.948,274.372,277.62,281.555,284.454,288.8364,291.368,296.349,302.148,308.22360000000003,310.725,316.524,322.063,327.572,331.507,334.406,340.4816,342.984,348.613,353.385,359.184,362.083,366.506,369.405,374.177,378.3602,380.892,386.332,390.316,392.758,396.982,400.229,405.211,408.459,411.358,416.797,422.596,427.577,431.512,437.0896,439.542,445.629,450.401,456.03,458.929,463.353,468.125,472.349" svgx:width="0.61,0.5,0.33,0.33,0.48,0.4,0.56,0.55,0.6,0.5,0.44,0.56,0.42,0.55,0.33,0.4,0.55,0.88,0.6,0.42,0.48,0.61,0.55,0.55,0.4,0.55,0.44,0.4,0.5,0.42,0.58,0.48,0.61,0.55,0.48,0.29,0.48,0.44,0.33,0.4,0.29,0.44,0.55,0.5,0.58,0.61,0.55,0.58,0.56,0.55,0.4,0.29,0.61,0.55,0.56,0.48,0.58,0.29,0.44,0.29,0.48,0.42,0.55,0.55,0.4,0.55,0.42,0.33,0.5,0.33,0.29,0.55,0.58,0.5,0.4,0.56,0.55,0.61,0.48,0.56,0.29,0.44,0.48,0.42,0.25" style="fill:rgb(0,0,0);font-family:URWPalladioL-Roma;font-size:9.96px;stroke:none;">Battery packs fromused or crashed electric and hybrid vehicles or stationary devices.</text>
   <text y="646.749" x="97.795,103.78,109.462,114.139,118.278,123.0588,125.22,128.471,133.148,137.825,143.79,147.9732,150.185,154.325,160.007,165.338,171.225,174.066,180.1416,182.297,187.696,192.4768,194.638,200.32,205.202,210.884,216.849,219.69,224.367,230.4426,232.588,238.553" svgx:width="0.61,0.58,0.48,0.42,0.48,0.55,0.33,0.48,0.48,0.61,0.42,0.55,0.42,0.58,0.55,0.6,0.29,0.61,0.55,0.55,0.48,0.55,0.58,0.5,0.58,0.61,0.29,0.48,0.61,0.55,0.61,0.29" style="fill:rgb(0,0,0);font-family:URWPalladioL-Roma;font-size:9.96px;stroke:none;">These feeds should be handled di</text>
   <text y="646.749" x="241.399" svgx:width="0.61" style="fill:rgb(0,0,0);font-family:Rpxr;font-size:9.96px;stroke:none;">ﬀ</text>
   <text y="646.749" x="247.335,252.012,255.692,260.369,266.051,269.234,272.075,277.6526,279.759,285.09,293.233,296.074,301.756,307.3336,309.449,312.632,318.11,320.228,323.411,329.093,333.8738,336.025,341.991" svgx:width="0.48,0.4,0.48,0.58,0.33,0.29,0.56,0.55,0.55,0.83,0.29,0.58,0.56,0.55,0.33,0.55,0.55,0.33,0.58,0.48,0.55,0.61,0.29" style="fill:rgb(0,0,0);font-family:URWPalladioL-Roma;font-size:9.96px;stroke:none;">erently owing to the di</text>
   <text y="646.749" x="344.835" svgx:width="0.61" style="fill:rgb(0,0,0);font-family:Rpxr;font-size:9.96px;stroke:none;">ﬀ</text>
   <text y="646.749" x="350.771,355.448,359.128,363.805,369.487,373.822,378.6028,380.754,383.595,389.3718,391.543,394.726,400.408,405.085,407.926,411.90999999999997,414.047,418.187,421.028,425.91,430.586,433.076,435.331,438.583,443.913,447.77,456.391,461.273,464.455,466.945,469.2,474.082,479.764,485.8396,487.995,492.672,495.513,500.189,504.524,507.707,511.564,514.405" svgx:width="0.48,0.4,0.48,0.58,0.44,0.48,0.55,0.29,0.58,0.55,0.33,0.58,0.48,0.29,0.4,0.55,0.42,0.29,0.5,0.48,0.25,0.55,0.33,0.55,0.4,0.88,0.5,0.33,0.25,0.55,0.5,0.58,0.61,0.55,0.48,0.29,0.48,0.44,0.33,0.4,0.29,0.44" style="fill:rgb(0,0,0);font-family:URWPalladioL-Roma;font-size:9.96px;stroke:none;">erence in their size, format, and electric</text>
   <text y="660.258" x="76.236,82.343,87.892,96.367,101.234,104.506,106.996,112.707,122.32,127.868,131.699,136.4798,139.778,144.087,150.194,155.061,159.573,162.53,168.678,173.19,178.271,181.228,184.185,188.728,191.21800000000002,194.662,197.975,203.889,208.6698,211.968,218.177,221.601,227.81,231.9932,235.33,238.287,244.06380000000001,247.412,250.725,256.639,261.4198,264.718,270.866,274.88,279.189,282.47580000000005,285.712,289.025,294.675,300.782,305.5628,308.861,314.41,317.69680000000005,321.015,323.972,329.52,334.601,340.81,344.9932,348.33,354.437,358.268,363.136,367.444,372.312,378.226,381.5128,384.75,389.73,393.042,401.517,404.474,410.683,415.4638,418.762,424.503,429.584,433.598,436.555,441.423,444.735,450.31260000000003,453.596,459.145,462.4318,465.74,469.053,474.703,480.81,485.677,489.986,492.476,495.921,500.229,503.186,508.267,513.135,517.443" svgx:width="0.6,0.55,0.83,0.48,0.4,0.25,0.55,0.95,0.55,0.4,0.48,0.55,0.42,0.6,0.48,0.44,0.29,0.61,0.44,0.5,0.29,0.29,0.56,0.25,0.55,0.33,0.58,0.48,0.55,0.61,0.34,0.61,0.42,0.55,0.29,0.58,0.55,0.33,0.58,0.48,0.55,0.61,0.4,0.42,0.33,0.55,0.33,0.56,0.6,0.48,0.55,0.55,0.33,0.55,0.29,0.55,0.5,0.61,0.42,0.55,0.6,0.4,0.48,0.42,0.48,0.58,0.33,0.55,0.5,0.55,0.83,0.29,0.61,0.48,0.55,0.56,0.5,0.4,0.29,0.48,0.33,0.56,0.55,0.55,0.33,0.55,0.33,0.56,0.6,0.48,0.42,0.25,0.55,0.42,0.29,0.5,0.48,0.42,0.25" style="fill:rgb(0,0,0);font-family:URWPalladioL-Roma;font-size:9.96px;stroke:none;">power. More speciﬁcally, the LIBs in the ﬁrst type of loads present a wide variety of types, sizes,</text>
   <text y="673.767" x="76.535,81.616,87.53,93.6056,96.696,101.208,107.122,111.99,120.963,123.92,128.228,131.541,135.555,138.512,143.38,147.688,150.178,155.096,160.431,166.559,171.071,176.8478,179.942,185.562,191.689,194.646,200.22359999999998,203.243,212.216,215.173,220.417,223.729,229.857,233.698,238.566,242.7492,245.821,250.13,256.044,261.592,267.72,270.677,276.75260000000003,279.843,285.463,290.2438,293.277,297.586,303.134,307.148,310.461,315.328,321.4036,324.494,330.114,335.6916,338.711,342.095,347.643,351.657,360.63,365.711,369.024,371.514,374.633,378.941,381.899,386.98,391.847,394.337,397.456,402.537,408.452,414.5276,417.617,422.129,428.044,432.911,441.884,444.841,449.15,452.462,456.476,462.0536,465.073,471.181,475.195,478.152,483.7,487.68399999999997,490.671,493.984,499.462,502.479,507.56,513.474" svgx:width="0.5,0.58,0.61,0.55,0.44,0.58,0.48,0.88,0.29,0.42,0.33,0.4,0.29,0.48,0.42,0.25,0.55,0.52,0.6,0.44,0.58,0.55,0.55,0.6,0.29,0.56,0.55,0.88,0.29,0.52,0.33,0.6,0.4,0.48,0.42,0.55,0.42,0.58,0.55,0.6,0.29,0.61,0.55,0.55,0.48,0.55,0.42,0.55,0.4,0.33,0.48,0.61,0.55,0.55,0.56,0.55,0.33,0.55,0.4,0.88,0.5,0.33,0.25,0.55,0.42,0.29,0.5,0.48,0.25,0.55,0.5,0.58,0.61,0.55,0.44,0.58,0.48,0.88,0.29,0.42,0.33,0.4,0.56,0.55,0.6,0.4,0.29,0.55,0.4,0.55,0.33,0.55,0.55,0.5,0.58,0.56" style="fill:rgb(0,0,0);font-family:URWPalladioL-Roma;font-size:9.96px;stroke:none;">and chemistries. Such bulk mixtures should be sorted by format, size, and chemistry prior to any</text>
   <text y="687.277" x="76.535,79.773,83.518,88.275,93.242,96.48,105.25,110.008,115.789,119.027,121.517,124.997,131.085,136.866,141.6468,144.097,148.309,153.067,157.477,162.9,168.681,174.75660000000002,177.223,180.461,185.984,191.953,196.7338,199.194,204.617,207.9038,210.398,213.289,218.712,223.678,229.747,233.9302,236.442,239.332,245.113,249.523,252.414,258.403,264.472,269.2528,271.703,274.593,279.56,283.304,288.827,293.6078,296.058,301.024,305.236,309.447,314.205,322.976,328.468,331.359,334.249,339.007,343.1902,345.702,351.125,354.4118,356.906,362.398,367.365,370.603,373.841,378.599,382.522,388.0996,390.528,399.299,404.722,410.791,416.77,419.661,424.418,428.6012,431.113,434.421,439.178,444.145,447.383,453.372,457.296,460.186,465.967,471.5446,473.963,478.174,481.412,486.17,490.928,493.8164,496.301,501.725,505.709,508.121,515.849" svgx:width="0.33,0.4,0.48,0.5,0.33,0.88,0.48,0.58,0.33,0.25,0.55,0.61,0.58,0.48,0.55,0.42,0.48,0.44,0.55,0.58,0.61,0.55,0.33,0.56,0.6,0.48,0.55,0.55,0.33,0.55,0.29,0.55,0.5,0.61,0.42,0.55,0.29,0.58,0.44,0.29,0.6,0.61,0.48,0.55,0.29,0.5,0.4,0.56,0.48,0.55,0.5,0.42,0.42,0.48,0.88,0.55,0.29,0.29,0.48,0.42,0.55,0.55,0.33,0.55,0.55,0.5,0.33,0.33,0.48,0.4,0.56,0.55,0.88,0.55,0.61,0.6,0.29,0.48,0.42,0.55,0.33,0.48,0.5,0.33,0.6,0.4,0.29,0.58,0.56,0.55,0.42,0.33,0.48,0.48,0.29,0.55,0.55,0.4,0.55,0.78,0.29" style="fill:rgb(0,0,0);font-family:URWPalladioL-Roma;font-size:9.96px;stroke:none;">treatment. The second type of loads include large assemblies of battery modules featuring steel or Al</text>
   <text y="700.786" x="76.535,79.833,83.744,88.696,97.44,102.183,106.382,108.872,111.343,116.295,122.058,128.1336,130.585,133.466,139.23,143.627,146.508,152.48,158.53,163.3108,165.759,171.711,174.593,179.544,183.743,186.971,189.853,194.2354,196.726,201.122,206.529,215.274,221.225,226.632,232.396,237.139,242.902,246.131,250.33,252.82000000000002,255.291,258.519,264.283,269.026,272.938,281.682,286.633,289.52139999999997,292.001,294.882,300.646,304.845,310.816,313.698,318.649,321.868,324.749,330.156,335.92,338.41,340.881,345.624,348.506,353.25,357.646,360.875,364.786,367.668,372.0504,374.551,378.947,383.899,389.375,392.257,397.0,401.199,403.689,406.15,410.894,413.776,418.519,422.916,426.144,429.878,435.285,441.048,443.93,448.3124,450.812,456.764,460.675,463.557,469.321,472.549,477.292,483.3676,485.819,490.216,493.097,496.831,501.227,507.199,510.081,513.309,517.508" svgx:width="0.33,0.4,0.5,0.88,0.48,0.42,0.25,0.55,0.5,0.58,0.61,0.55,0.29,0.58,0.44,0.29,0.6,0.61,0.48,0.55,0.6,0.29,0.5,0.42,0.33,0.29,0.44,0.55,0.44,0.55,0.88,0.6,0.55,0.58,0.48,0.58,0.33,0.42,0.25,0.55,0.33,0.58,0.48,0.4,0.88,0.5,0.29,0.55,0.29,0.58,0.42,0.6,0.29,0.5,0.33,0.29,0.55,0.58,0.25,0.55,0.48,0.29,0.48,0.44,0.33,0.4,0.29,0.44,0.55,0.44,0.5,0.55,0.29,0.48,0.42,0.25,0.55,0.48,0.29,0.48,0.44,0.33,0.4,0.55,0.58,0.29,0.44,0.55,0.6,0.4,0.29,0.58,0.33,0.48,0.61,0.55,0.44,0.29,0.4,0.44,0.6,0.29,0.33,0.42,0.25" style="fill:rgb(0,0,0);font-family:URWPalladioL-Roma;font-size:9.96px;stroke:none;">frames, and include plastic components, thermal insulation, electric cables, electronic printed circuits,</text>
   <text y="714.296" x="76.535,81.616,87.53,93.6056,96.401,99.359,105.273,111.482,114.439,120.18,123.137,129.346,135.474,140.555,143.4434,146.184,150.696,155.564,158.521,161.478,165.787,168.27700000000002,172.331,180.237,184.545,190.673,195.754,198.711,201.668,206.21,208.70000000000002,211.464,214.777,220.691,225.559,229.867,234.6478,237.397,243.504,248.585,253.097,258.747,262.9302,265.728,270.809,274.64,279.4208,282.17,286.682,291.763,295.604,300.472,303.856,309.983,312.94,315.897,321.4746,324.21,330.419,333.376,337.684,346.657,351.738,357.652,360.965,363.922,368.79,374.86560000000003,377.661,386.634,391.715,397.629,403.757,408.838,411.795,414.752,420.3296,423.064,426.021,431.936,435.248,440.726,443.469,452.442,457.991,464.199,470.327,473.284,478.152,482.3352,485.123,490.671,494.655,497.347,502.215,507.956,512.824" svgx:width="0.5,0.58,0.61,0.55,0.29,0.58,0.61,0.29,0.56,0.29,0.61,0.6,0.5,0.29,0.55,0.44,0.48,0.29,0.29,0.42,0.25,0.55,0.78,0.42,0.6,0.5,0.29,0.29,0.56,0.25,0.55,0.33,0.58,0.48,0.42,0.48,0.55,0.6,0.5,0.44,0.56,0.42,0.55,0.5,0.4,0.48,0.55,0.44,0.5,0.4,0.48,0.33,0.6,0.29,0.29,0.56,0.55,0.61,0.29,0.42,0.88,0.5,0.58,0.33,0.29,0.48,0.61,0.55,0.88,0.5,0.58,0.6,0.5,0.29,0.29,0.56,0.55,0.29,0.58,0.33,0.55,0.55,0.88,0.55,0.61,0.6,0.29,0.48,0.42,0.55,0.55,0.4,0.55,0.48,0.56,0.48,0.58" style="fill:rgb(0,0,0);font-family:URWPalladioL-Roma;font-size:9.96px;stroke:none;">and individual cells. Usually, these packs are carefully dismantled manually into modules or even</text>
   <text y="727.805" x="76.535,79.492,85.406,91.615,94.572,100.314,103.271,109.48,115.607,120.688,123.5764,126.226,130.738,135.606,138.563,141.52,145.7032,148.42,154.527,158.541,161.498,167.047,171.031,173.642,176.954,182.43200000000002,185.084,188.925,193.793,198.304,203.954,208.466,211.423,214.38,220.295,225.87259999999998,228.526" svgx:width="0.29,0.58,0.61,0.29,0.56,0.29,0.61,0.6,0.5,0.29,0.55,0.44,0.48,0.29,0.29,0.42,0.55,0.6,0.4,0.29,0.55,0.4,0.55,0.33,0.55,0.55,0.4,0.48,0.44,0.56,0.44,0.29,0.29,0.58,0.56,0.55,0.33" style="fill:rgb(0,0,0);font-family:URWPalladioL-Roma;font-size:9.96px;stroke:none;">individual cells prior to recycling [</text>
   <text y="727.805" x="231.909" svgx:width="0.5" style="fill:rgb(8,117,183);font-family:URWPalladioL-Roma;font-size:9.96px;stroke:none;">4</text>
   <text y="727.805" x="236.891,240.275,242.76500000000001,246.585,251.92,258.048,262.56,268.3368,271.055,276.604,282.711,287.578,291.592,296.673,299.986,302.943,308.491,314.26779999999997,316.987,321.499,327.047,333.175,336.132,342.2076,344.932,349.799,355.043,361.15,366.699,371.007,375.7878,378.456,386.931,392.479,396.493,402.143,407.011,411.025,415.2082,417.914,421.227,426.705,429.367,433.675,436.632,442.282,448.197,451.154,457.302,461.813,466.894,472.809,476.09580000000005,478.702,483.57,486.527,491.395,495.906,499.219,503.233,506.19,510.702,515.783" svgx:width="0.33,0.25,0.55,0.52,0.6,0.44,0.58,0.55,0.55,0.6,0.48,0.4,0.5,0.33,0.29,0.55,0.58,0.55,0.44,0.55,0.6,0.29,0.61,0.55,0.48,0.52,0.6,0.55,0.42,0.48,0.55,0.83,0.55,0.4,0.56,0.48,0.4,0.42,0.55,0.33,0.55,0.55,0.42,0.29,0.56,0.58,0.29,0.61,0.44,0.5,0.58,0.33,0.55,0.48,0.29,0.48,0.44,0.33,0.4,0.29,0.44,0.5,0.29" style="fill:rgb(0,0,0);font-family:URWPalladioL-Roma;font-size:9.96px;stroke:none;">]. Such operation could expose workers to signiﬁcant electrical</text>
   <text y="741.314" x="76.535,80.47,83.369,87.593,93.133,97.3162,99.847,105.357,110.129,114.552,119.534,125.541,129.765,134.54579999999999,137.028,140.276,146.074,150.846,155.07,159.8508,162.333,168.42,171.777,177.865,182.0482,184.579,189.003,194.442,200.45,203.349,209.4246,211.927,217.914,221.67,227.11,232.739,235.638,241.725,246.5058,248.988,257.785,263.224,266.98,271.7608,274.243,277.491,283.289,288.27,294.04679999999996,296.559,301.54,306.522,311.502,313.994,321.1652,323.677,328.659,334.457,340.5326,343.035,348.016,352.997,357.97700000000003,360.469,366.008,378.462" svgx:width="0.4,0.29,0.42,0.56,0.42,0.55,0.55,0.48,0.44,0.5,0.6,0.42,0.48,0.55,0.33,0.58,0.48,0.42,0.48,0.55,0.61,0.34,0.61,0.42,0.55,0.44,0.55,0.6,0.29,0.61,0.55,0.6,0.4,0.55,0.56,0.29,0.61,0.48,0.55,0.88,0.55,0.4,0.48,0.55,0.33,0.58,0.5,0.58,0.55,0.5,0.5,0.5,0.55,0.72,0.55,0.5,0.58,0.61,0.55,0.5,0.5,0.5,0.55,0.56,1.0,0.33" style="fill:rgb(0,0,0);font-family:URWPalladioL-Roma;font-size:9.96px;stroke:none;">risks because these LIBs could provide more than 450 V and 150 kW[</text>
   <text y="741.314" x="381.779,386.76" svgx:width="0.5,0.5" style="fill:rgb(8,117,183);font-family:URWPalladioL-Roma;font-size:9.96px;stroke:none;">63</text>
   <text y="741.314" x="391.742,395.059" svgx:width="0.33,0.25" style="fill:rgb(0,0,0);font-family:URWPalladioL-Roma;font-size:9.96px;stroke:none;">].</text>
   <text y="754.824" x="97.795,107.408,112.489,118.403,123.98060000000001,126.766,131.847,137.975,141.288,147.202,152.75,156.764,160.9472,163.786,166.743,172.657,178.866,181.823,186.335,191.416,194.729,199.596,205.6716,208.519,211.831,217.745,222.826,226.1128,228.852,232.165,238.079,242.8598,245.66,251.767,255.598,260.466,263.779,267.62,272.487,277.568,280.881,289.854,294.722,300.636,303.92280000000005,306.662,312.21,315.4968,318.307,322.616,328.723,333.591,339.505,342.7918,345.531,351.74,355.164,361.373,365.5562,368.395,371.352,375.5352,378.374,383.35400000000004,386.168,391.818,396.686,402.2636,405.049,409.357,412.67,417.538,423.514,426.358,432.466,436.479,439.437,444.985,448.969,451.712,455.025,460.503,463.286,466.599,472.513,477.2938,480.094,483.925,488.793,493.305,498.853,504.594,509.462,513.476" svgx:width="0.95,0.5,0.58,0.56,0.55,0.5,0.6,0.33,0.58,0.55,0.4,0.42,0.55,0.29,0.58,0.61,0.29,0.44,0.5,0.33,0.48,0.61,0.55,0.33,0.58,0.5,0.33,0.55,0.33,0.58,0.48,0.55,0.6,0.4,0.48,0.33,0.4,0.48,0.5,0.33,0.88,0.48,0.58,0.33,0.55,0.55,0.33,0.55,0.42,0.6,0.48,0.58,0.33,0.55,0.61,0.34,0.61,0.42,0.55,0.29,0.42,0.55,0.5,0.55,0.56,0.48,0.56,0.55,0.42,0.33,0.48,0.6,0.55,0.6,0.4,0.29,0.55,0.4,0.55,0.33,0.55,0.55,0.33,0.58,0.48,0.55,0.4,0.48,0.44,0.55,0.56,0.48,0.4,0.56" style="fill:rgb(0,0,0);font-family:URWPalladioL-Roma;font-size:9.96px;stroke:none;">Many authors indicated that the pretreatment of spent LIBs is a key step prior to the recovery</text>
   <text y="768.333" x="76.535,81.969,85.2558,87.772,92.19,97.167,100.411,106.204,111.638,117.719,122.4998,124.965,129.384,134.818,143.606,149.587,155.022,160.814,165.581,171.374,174.618,178.838,181.328,183.814,189.796,194.772,198.704,201.948,204.844,209.263,215.265,218.161,223.137,227.069,229.965,235.5426,237.987,241.301,246.735,250.71900000000002,253.155,258.947,264.481,270.562,274.314,279.748,288.536,293.303,296.548,301.524,304.421,307.317,313.318,317.07,322.604,325.5,329.919,334.896,337.7844,340.27,345.246,351.039,357.1146,359.608,365.689,368.585,372.337,377.105,381.524,384.81080000000003,387.256,391.009,395.776,400.195,405.728,410.147,413.044,415.94,421.732,427.30960000000005,429.744,435.726,439.478,444.912,449.331,454.098,458.318,462.538,467.305,471.4882,474.013" svgx:width="0.55,0.33,0.55,0.44,0.5,0.33,0.58,0.55,0.61,0.48,0.55,0.44,0.55,0.88,0.6,0.55,0.58,0.48,0.58,0.33,0.42,0.25,0.55,0.6,0.5,0.4,0.33,0.29,0.44,0.6,0.29,0.5,0.4,0.29,0.56,0.55,0.33,0.55,0.4,0.55,0.58,0.56,0.61,0.4,0.55,0.88,0.48,0.33,0.5,0.29,0.29,0.6,0.4,0.56,0.29,0.44,0.5,0.29,0.55,0.5,0.58,0.61,0.55,0.61,0.29,0.4,0.48,0.44,0.33,0.55,0.4,0.48,0.44,0.56,0.44,0.29,0.29,0.58,0.56,0.55,0.6,0.4,0.55,0.44,0.48,0.42,0.42,0.48,0.42,0.55,0.33" style="fill:rgb(0,0,0);font-family:URWPalladioL-Roma;font-size:9.96px;stroke:none;">of cathode components, particularly for hydrometallurgical and direct recycling processes [</text>
   <text y="768.333" x="477.329,482.31" svgx:width="0.5,0.5" style="fill:rgb(8,117,183);font-family:URWPalladioL-Roma;font-size:9.96px;stroke:none;">40</text>
   <text y="768.333" x="487.292" svgx:width="0.25" style="fill:rgb(0,0,0);font-family:URWPalladioL-Roma;font-size:9.96px;stroke:none;">,</text>
   <text y="768.333" x="489.78,494.761" svgx:width="0.5,0.5" style="fill:rgb(8,117,183);font-family:URWPalladioL-Roma;font-size:9.96px;stroke:none;">64</text>
   <text y="768.333" x="499.742" svgx:width="0.5" style="fill:rgb(0,0,0);font-family:URWPalladioL-Roma;font-size:9.96px;stroke:none;">–</text>
   <text y="768.333" x="504.719,509.7" svgx:width="0.5,0.5" style="fill:rgb(8,117,183);font-family:URWPalladioL-Roma;font-size:9.96px;stroke:none;">67</text>
   <text y="768.333" x="514.681,517.995" svgx:width="0.33,0.25" style="fill:rgb(0,0,0);font-family:URWPalladioL-Roma;font-size:9.96px;stroke:none;">].</text>
  </g>
 </g>
</svg>
