<?xml version="1.0" encoding="UTF-8"?>
<svg height="779.482" width="530.4350000000001" xmlns="http://www.w3.org/2000/svg">
 <g id="page" xmlns:svgx="http://www.xml-cml.org/schema/svgx">
  <g begin="text">
   <text y="62.979" x="76.535,84.059,87.598,90.252,93.352,96.452,98.668,102.207,104.422" svgx:width="0.94,0.44,0.33,0.39,0.39,0.28,0.44,0.28,0.39" style="fill:rgb(0,0,0);font-family:URWPalladioL-Ital;font-size:7.97px;stroke:none;">Materials</text>
   <text y="62.979" x="109.515,113.5,117.485,121.47" svgx:width="0.5,0.5,0.5,0.5" style="fill:rgb(0,0,0);font-family:URWPalladioL-Bold;font-size:7.97px;stroke:none;">2020</text>
   <text y="62.979" x="125.455" svgx:width="0.25" style="fill:rgb(0,0,0);font-family:URWPalladioL-Roma;font-size:7.97px;stroke:none;">,</text>
   <text y="62.979" x="129.44,133.425" svgx:width="0.5,0.5" style="fill:rgb(0,0,0);font-family:URWPalladioL-Ital;font-size:7.97px;stroke:none;">13</text>
   <text y="62.979" x="137.41,139.4025,141.395,145.38,149.365,153.35000000000002,495.794,499.779,501.772,506.123,508.7531,510.77,514.755" svgx:width="0.25,0.55,0.5,0.5,0.5,0.55,0.5,0.55,0.55,0.33,0.55,0.5,0.5" style="fill:rgb(0,0,0);font-family:URWPalladioL-Roma;font-size:7.97px;stroke:none;">, 958 2 of 15</text>
   <text y="97.848" x="97.795,104.024,109.938,114.7188,118.403,124.511,128.352,133.219,137.528,142.395,148.31,152.821,157.6018,161.286,166.835,170.1218,173.816,177.647,182.514,185.827,190.908,193.865,199.779,204.647,210.7226,214.463,219.544,225.672,229.98,233.293,238.161,244.075,247.032,250.345,255.1258,258.81,261.767,265.9502,269.673,275.881,282.009,286.7898,290.474,293.787,299.265,302.932,305.889,309.202,313.3852,317.118,323.032,325.989,331.639,337.4158,341.151,344.464,350.378,355.245,359.259,368.232,373.313,376.2014,379.868,384.176,387.489,392.57,398.189,401.146,404.104,407.061,410.373,415.9506,419.621,423.462,428.329,434.071,438.938,444.019,446.976,449.934,455.848,461.42560000000003,465.095,471.304,477.431,481.445,484.402,490.317,495.8946,499.564,505.478,510.346,515.427" svgx:width="0.61,0.58,0.48,0.55,0.6,0.4,0.48,0.42,0.48,0.58,0.44,0.48,0.55,0.55,0.33,0.55,0.4,0.48,0.33,0.5,0.29,0.58,0.48,0.61,0.55,0.5,0.6,0.42,0.33,0.48,0.58,0.29,0.33,0.48,0.55,0.29,0.42,0.55,0.61,0.6,0.48,0.55,0.33,0.55,0.55,0.29,0.33,0.42,0.55,0.58,0.29,0.56,0.58,0.55,0.33,0.58,0.48,0.4,0.88,0.5,0.29,0.55,0.42,0.33,0.5,0.55,0.29,0.29,0.29,0.33,0.56,0.55,0.4,0.48,0.56,0.48,0.5,0.29,0.29,0.58,0.56,0.55,0.61,0.6,0.4,0.29,0.58,0.56,0.55,0.58,0.48,0.5,0.33" style="fill:rgb(0,0,0);font-family:URWPalladioL-Roma;font-size:9.96px;stroke:none;">The presence of retained austenite is due to its high thermal stability revealing during heat</text>
   <text y="111.358" x="76.535,79.718,83.399,88.075,92.957,96.14,104.761,109.437,115.12,118.303,120.79299999999999,124.239,127.529,130.712,134.8952,137.341,141.481,144.664,149.545,154.944,157.786,160.627,163.468,166.651,172.2286,174.579,177.42,181.6032,184.049,186.89,192.572,198.509,204.396,209.072,214.755,219.09,223.766,229.8416,232.221,237.621,243.1986,245.548,249.883,254.765,258.621,264.021,269.351,275.1278,277.523,282.405,288.087,294.1626,296.552,305.173,310.055,315.737,321.166,326.047,331.73,336.406,340.546,345.3268,347.712,352.047,357.378,363.06,366.243,370.92,376.602,379.785,383.9682,386.414,389.255,395.0318,397.437,400.62,406.302,411.0828,413.468,418.35,424.237,428.377,431.56,436.236,441.919,444.76,447.943,452.619,455.10900000000004,457.56,462.54,464.931,473.552,478.883,482.739,488.607,494.289,499.62,502.461,507.792,513.22,517.546" svgx:width="0.33,0.4,0.48,0.5,0.33,0.88,0.48,0.58,0.33,0.25,0.55,0.34,0.33,0.42,0.55,0.42,0.33,0.5,0.55,0.29,0.29,0.29,0.33,0.56,0.55,0.29,0.42,0.55,0.29,0.58,0.61,0.6,0.48,0.58,0.44,0.48,0.61,0.55,0.55,0.56,0.55,0.44,0.5,0.4,0.55,0.55,0.58,0.55,0.5,0.58,0.61,0.55,0.88,0.5,0.58,0.56,0.5,0.58,0.48,0.42,0.48,0.55,0.44,0.55,0.58,0.33,0.48,0.58,0.33,0.42,0.55,0.29,0.58,0.55,0.33,0.58,0.48,0.55,0.5,0.6,0.42,0.33,0.48,0.58,0.29,0.33,0.48,0.25,0.55,0.5,0.55,0.88,0.55,0.4,0.6,0.58,0.55,0.29,0.55,0.56,0.56,0.25" style="fill:rgb(0,0,0);font-family:URWPalladioL-Roma;font-size:9.96px;stroke:none;">treatment. Its stability is inﬂuenced by carbon and manganese contents in the austenite, a morphology,</text>
   <text y="124.867" x="76.535,82.744,85.701,90.01,92.967,98.515,103.027,108.108,111.421,114.378,119.926,125.7028,128.432,134.64,139.508,145.422,149.731,152.688,156.001,161.5786,164.232,169.313,175.227,181.3026,184.027,187.34,193.254,198.0348,200.703,206.617,211.484,214.442,220.092,226.006,231.625,237.174,241.015,246.929,252.477,258.026,264.1016,266.816,272.364,275.6508,278.339,282.648,288.196,291.58,294.8668,297.474,303.022,307.006,309.628,315.542,320.623,324.454,330.5296,333.254,339.361,345.275,350.356,354.665,359.533,363.7162,366.422" svgx:width="0.61,0.29,0.42,0.29,0.55,0.44,0.5,0.33,0.29,0.55,0.58,0.55,0.61,0.48,0.58,0.42,0.29,0.33,0.56,0.55,0.5,0.58,0.61,0.55,0.33,0.58,0.48,0.55,0.58,0.48,0.29,0.56,0.58,0.55,0.55,0.4,0.58,0.55,0.55,0.61,0.55,0.55,0.33,0.55,0.42,0.55,0.33,0.33,0.55,0.55,0.4,0.55,0.58,0.5,0.4,0.61,0.55,0.6,0.58,0.5,0.42,0.48,0.42,0.55,0.33" style="fill:rgb(0,0,0);font-family:URWPalladioL-Roma;font-size:9.96px;stroke:none;">dislocation density and the neighborhood of soft or hard phases [</text>
   <text y="124.867" x="369.811" svgx:width="0.5" style="fill:rgb(8,117,183);font-family:URWPalladioL-Roma;font-size:9.96px;stroke:none;">7</text>
   <text y="124.867" x="374.792" svgx:width="0.5" style="fill:rgb(0,0,0);font-family:URWPalladioL-Roma;font-size:9.96px;stroke:none;">–</text>
   <text y="124.867" x="379.873" svgx:width="0.5" style="fill:rgb(8,117,183);font-family:URWPalladioL-Roma;font-size:9.96px;stroke:none;">9</text>
   <text y="124.867" x="384.855,388.239,390.729,394.56,400.789,406.703,411.571,415.879,420.6598,423.328,426.712,431.793,436.305,439.617,445.166,449.18,453.3632,456.079,462.288,467.156,470.469,475.336,479.35,488.323,491.28,497.194,501.9748,504.643,507.956,513.87" svgx:width="0.33,0.25,0.55,0.61,0.58,0.48,0.42,0.48,0.55,0.33,0.5,0.44,0.33,0.55,0.4,0.42,0.55,0.61,0.48,0.33,0.48,0.4,0.88,0.29,0.58,0.48,0.55,0.33,0.58,0.48" style="fill:rgb(0,0,0);font-family:URWPalladioL-Roma;font-size:9.96px;stroke:none;">]. These factors determine the</text>
   <text y="138.377" x="76.535,81.417,90.038,95.369,101.256,106.938,110.2248,112.171,117.502,120.7888,122.804,126.475,131.151,134.334,139.216,142.057,147.739,152.416,158.4916,160.431,165.313,171.2,175.34,178.523,183.2,188.882,191.723,194.906,199.6868,201.633,207.501,211.172,215.848,219.988,224.665,230.347,233.6338,235.58,238.421,244.1978,246.154,249.337,255.019,259.7998,261.736,270.357,273.198,277.533,281.214,286.545,290.684,293.867,297.646,303.533,307.868,311.051,316.938,320.609,325.3898,327.336,332.218,337.9,343.9756,345.916,349.596,354.273,358.413,364.3,367.141,370.324,373.165,378.847,384.4246,386.316,394.937,399.614,403.949,409.631,414.513,420.195,423.036,427.371,432.253,435.1414,437.144,443.012,446.693,452.024,457.891,462.568,466.425,469.607,472.449,477.125,481.265,483.755,487.045,496.681,502.11,507.44,512.771" svgx:width="0.5,0.88,0.55,0.6,0.58,0.33,0.55,0.55,0.33,0.55,0.4,0.48,0.33,0.5,0.29,0.58,0.48,0.61,0.55,0.5,0.6,0.42,0.33,0.48,0.58,0.29,0.33,0.48,0.55,0.6,0.4,0.48,0.42,0.48,0.58,0.33,0.55,0.29,0.58,0.55,0.33,0.58,0.48,0.55,0.88,0.29,0.44,0.4,0.55,0.42,0.33,0.4,0.6,0.44,0.33,0.6,0.4,0.48,0.55,0.5,0.58,0.61,0.55,0.4,0.48,0.42,0.6,0.29,0.33,0.29,0.58,0.56,0.55,0.88,0.48,0.44,0.58,0.5,0.58,0.29,0.44,0.5,0.29,0.55,0.6,0.4,0.55,0.6,0.48,0.4,0.33,0.29,0.48,0.42,0.25,0.55,0.78,0.56,0.55,0.55,0.61" style="fill:rgb(0,0,0);font-family:URWPalladioL-Roma;font-size:9.96px;stroke:none;">amount of retained austenite present in the microstructure and resulting mechanical properties. Agood</text>
   <text y="151.886" x="76.117,84.26,89.141,94.71860000000001,97.02,100.203,105.681,107.975,113.94,118.617,121.8,126.476,130.333,138.954,141.795,147.477,152.2578,154.605,157.787,163.47,168.2508,170.587,174.727,177.91,182.791,188.19,191.032,193.873,196.714,199.897,205.47459999999998,207.776,213.107,216.3938,218.799,223.68,229.568,233.707,236.89,241.567,247.249,250.09,253.273,258.0538,260.4,263.241,267.4242,269.822,275.787,278.628,281.469,286.351,289.534,294.865,303.486,308.162,311.345,315.202,319.527,322.017,325.444,331.428,337.111,339.952,344.1352,346.532,355.153,359.83,363.013,368.695,374.026,380.1016,382.442,387.324,390.165,393.006,398.337,406.479,410.6622,413.06,416.311,421.642,425.626,427.949,432.831,438.513,443.395,446.236,451.664,456.546,459.387,465.069,470.64660000000003,472.948,477.283,482.965,487.847,493.529,498.958,503.634,507.8172,510.215,513.056" svgx:width="0.83,0.5,0.56,0.55,0.33,0.55,0.55,0.61,0.48,0.33,0.48,0.4,0.88,0.29,0.58,0.48,0.55,0.33,0.58,0.48,0.55,0.42,0.33,0.5,0.55,0.29,0.29,0.29,0.33,0.56,0.55,0.55,0.33,0.55,0.5,0.6,0.42,0.33,0.48,0.58,0.29,0.33,0.48,0.55,0.29,0.42,0.55,0.61,0.29,0.29,0.5,0.33,0.55,0.88,0.48,0.33,0.4,0.56,0.25,0.55,0.61,0.58,0.29,0.42,0.55,0.88,0.48,0.33,0.58,0.55,0.61,0.55,0.5,0.29,0.29,0.55,0.83,0.42,0.55,0.33,0.55,0.4,0.55,0.5,0.58,0.5,0.29,0.56,0.5,0.29,0.58,0.56,0.55,0.44,0.58,0.5,0.58,0.56,0.48,0.42,0.55,0.29,0.58" style="fill:rgb(0,0,0);font-family:URWPalladioL-Roma;font-size:9.96px;stroke:none;">way to determine the stability of austenite is dilatometry. This method allows for analyzing changes in</text>
   <text y="165.395" x="76.535,81.515,83.942,88.107,93.018,101.692,107.596,110.454,115.23479999999999,117.655,120.513,125.218,130.935,136.397,139.599,145.3758,147.821,153.823,159.747,163.627,166.485,172.202,177.7796,180.159,185.876,190.581,195.493,198.7798,201.19,204.393,208.096,212.801,217.713,220.915,229.589,234.294,240.011,243.214,245.704,249.176,255.198,260.915,265.6958,268.115,272.477,278.194,283.105,288.822,294.284,299.0648,301.484,304.343,310.1198,312.555,315.414,320.119,325.836,331.298,334.5,340.2768,342.712,347.074,352.437,356.317,360.021,364.726,368.891,374.794,380.158,385.875,391.877,396.0602,398.537,401.739,407.217,409.598,412.8,418.517,423.2978,425.727,431.631,437.348,442.26,446.425,451.2058,453.625,456.827,460.708,465.619,471.336,475.501,478.772,484.136,488.016,496.69,501.601,504.804,507.662,513.026" svgx:width="0.5,0.55,0.42,0.5,0.88,0.6,0.29,0.48,0.55,0.29,0.48,0.58,0.56,0.33,0.58,0.55,0.61,0.6,0.4,0.29,0.58,0.56,0.55,0.58,0.48,0.5,0.33,0.55,0.33,0.4,0.48,0.5,0.33,0.88,0.48,0.58,0.33,0.25,0.55,0.61,0.58,0.48,0.55,0.44,0.58,0.5,0.58,0.56,0.48,0.55,0.29,0.58,0.55,0.29,0.48,0.58,0.56,0.33,0.58,0.55,0.44,0.55,0.4,0.4,0.48,0.42,0.6,0.55,0.58,0.61,0.42,0.55,0.33,0.55,0.55,0.33,0.58,0.48,0.55,0.6,0.58,0.5,0.42,0.48,0.55,0.33,0.4,0.5,0.58,0.42,0.33,0.55,0.4,0.88,0.5,0.33,0.29,0.55,0.58" style="fill:rgb(0,0,0);font-family:URWPalladioL-Roma;font-size:9.96px;stroke:none;">a sample length during heat treatment. The change in length corresponds to the phase transformation</text>
   <text y="178.905" x="76.535,82.446,88.152,94.142,98.837,102.533,107.984,113.336,116.189,121.894,127.47160000000001,129.835,132.688,138.4648,140.883,144.079,149.784,154.5648,156.98,165.636,170.538,173.734,178.429,182.302,185.154,190.056,192.909,195.399,198.859,204.869,210.574,215.27,218.956,223.7368,226.151,231.053,234.739,239.5198,241.935,247.826,253.179,257.335,261.492,264.345,269.766,272.619,275.471,278.324,281.52,284.373,289.068,293.2512,295.715,298.911,304.389,306.753,312.743,317.439,320.635,325.33,329.203,337.859,340.712,346.417,351.1978,353.613,357.965,361.837,364.69,367.886,370.739,375.091,379.993,382.8814,385.336,388.532,393.227,401.883,407.775,412.471,416.343,421.245,424.441,430.352,434.048,438.743,442.9262,445.39,450.743,454.0298,456.507,460.663,463.859,468.555,473.251,476.103,478.593,482.044" svgx:width="0.6,0.58,0.61,0.48,0.4,0.56,0.55,0.29,0.58,0.56,0.55,0.29,0.58,0.55,0.33,0.58,0.48,0.55,0.88,0.5,0.33,0.48,0.4,0.29,0.5,0.29,0.25,0.55,0.61,0.58,0.48,0.4,0.48,0.55,0.5,0.4,0.48,0.55,0.6,0.55,0.42,0.42,0.29,0.55,0.29,0.29,0.29,0.33,0.29,0.48,0.42,0.55,0.33,0.55,0.55,0.61,0.48,0.33,0.48,0.4,0.88,0.29,0.58,0.48,0.55,0.44,0.4,0.29,0.33,0.29,0.44,0.5,0.29,0.55,0.33,0.48,0.88,0.6,0.48,0.4,0.5,0.33,0.6,0.4,0.48,0.42,0.55,0.55,0.33,0.55,0.42,0.33,0.48,0.48,0.29,0.25,0.55,0.78" style="fill:rgb(0,0,0);font-family:URWPalladioL-Roma;font-size:9.96px;stroke:none;">undergoing in the material. There are possibilities to determine critical temperatures of steel: A</text>
   <text y="180.77" x="489.671,493.033" svgx:width="0.44,0.5" style="fill:rgb(0,0,0);font-family:URWPalladioL-Roma;font-size:7.57px;stroke:none;">c1</text>
   <text y="178.905" x="497.317,499.807,502.258" svgx:width="0.25,0.55,0.78" style="fill:rgb(0,0,0);font-family:URWPalladioL-Roma;font-size:9.96px;stroke:none;">, A</text>
   <text y="180.77" x="509.889,513.251" svgx:width="0.44,0.5" style="fill:rgb(0,0,0);font-family:URWPalladioL-Roma;font-size:7.57px;stroke:none;">c3</text>
   <text y="178.905" x="517.535" svgx:width="0.25" style="fill:rgb(0,0,0);font-family:URWPalladioL-Roma;font-size:9.96px;stroke:none;">,</text>
   <text y="192.414" x="76.535,85.332,90.313,94.249,97.496,102.268,108.067,112.291,115.19,118.438,123.2188,125.7,129.925,133.172,138.154,142.089,145.3758,147.827,151.145" svgx:width="0.88,0.5,0.4,0.33,0.48,0.58,0.42,0.29,0.33,0.48,0.55,0.42,0.33,0.5,0.4,0.33,0.55,0.33,0.95" style="fill:rgb(0,0,0);font-family:URWPalladioL-Roma;font-size:9.96px;stroke:none;">martensite start (M</text>
   <text y="193.909" x="160.569" svgx:width="0.42" style="fill:rgb(0,0,0);font-family:URWPalladioL-Roma;font-size:7.57px;stroke:none;">s</text>
   <text y="192.414" x="164.278,167.5648,170.086,175.067,180.866,186.94160000000002,189.444,195.471,201.269,204.168,208.392,214.1688,216.681,219.999" svgx:width="0.33,0.55,0.5,0.58,0.61,0.55,0.61,0.58,0.29,0.42,0.58,0.55,0.33,0.95" style="fill:rgb(0,0,0);font-family:URWPalladioL-Roma;font-size:9.96px;stroke:none;">) and ﬁnish (M</text>
   <text y="194.279" x="229.423" svgx:width="0.33" style="fill:rgb(0,0,0);font-family:URWPalladioL-Roma;font-size:7.57px;stroke:none;">f</text>
   <text y="192.414" x="232.442,235.7288,238.25,241.498,246.27,255.067,261.055,265.827,269.762,274.743,277.991,283.998,287.754,292.526,296.751,299.241,302.728,308.835,314.634,319.4148,321.896,325.832,330.813,334.061,338.8418,341.323,346.763,350.0498,352.571,355.819,359.754,364.736,370.534,374.758,378.075,383.515,387.45,396.247,401.229,404.476,407.375,412.815,418.5918,421.104,425.527,430.509,436.2858,438.797,444.307,449.0878,451.57,456.551,459.45,463.674,469.152,471.604,476.586,482.384,487.365,490.264,495.803,500.785,505.557,511.644" svgx:width="0.33,0.55,0.33,0.48,0.88,0.6,0.48,0.4,0.5,0.33,0.6,0.4,0.48,0.42,0.25,0.55,0.61,0.58,0.48,0.55,0.4,0.5,0.33,0.48,0.55,0.55,0.33,0.55,0.33,0.4,0.5,0.58,0.42,0.33,0.55,0.4,0.88,0.5,0.33,0.29,0.55,0.58,0.55,0.44,0.5,0.58,0.55,0.55,0.48,0.55,0.5,0.29,0.42,0.55,0.55,0.5,0.58,0.5,0.29,0.56,0.5,0.48,0.61,0.25" style="fill:rgb(0,0,0);font-family:URWPalladioL-Roma;font-size:9.96px;stroke:none;">) temperatures. The rate of transformation can be also analyzed.</text>
   <text y="205.924" x="97.795,103.939,109.772,114.5528,117.058,120.836,125.637,130.648,134.898,140.37,146.203,150.3862,152.948,161.307,167.14,172.71759999999998,175.198,180.209,186.252,190.502,193.769,198.57,204.403,207.319,210.587,215.3678,217.873,221.651,226.452,235.302,240.313,243.23,249.063,253.2462,255.808,258.724,264.50079999999997,267.043,270.31,276.143,280.92379999999997,283.429,292.279,295.196,299.646,303.424,308.896,313.146,316.413,320.292,326.335,330.785,334.052,340.096,343.874,348.6548,351.171,356.182,359.96,364.7408,367.246,373.37" svgx:width="0.61,0.58,0.48,0.55,0.4,0.48,0.5,0.42,0.55,0.58,0.42,0.55,0.83,0.58,0.56,0.55,0.5,0.6,0.42,0.33,0.48,0.58,0.29,0.33,0.48,0.55,0.4,0.48,0.88,0.5,0.29,0.58,0.42,0.55,0.29,0.58,0.55,0.33,0.58,0.48,0.55,0.88,0.29,0.44,0.4,0.55,0.42,0.33,0.4,0.6,0.44,0.33,0.6,0.4,0.48,0.55,0.5,0.4,0.48,0.55,0.61,0.29" style="fill:rgb(0,0,0);font-family:URWPalladioL-Roma;font-size:9.96px;stroke:none;">The reasons why austenite remains in the microstructure are di</text>
   <text y="205.924" x="376.289" svgx:width="0.61" style="fill:rgb(0,0,0);font-family:Rpxr;font-size:9.96px;stroke:none;">ﬀ</text>
   <text y="205.924" x="382.383,387.184,390.962,395.763,401.596,404.88280000000003,407.349,410.686,416.158,420.142,422.613,428.446,433.918,437.185,440.523,444.301,449.773,452.69,455.607,460.407,466.4826,469.016,473.266,476.533,481.334,486.135,489.0234,491.537,495.786,501.619,506.42,511.221,514.488" svgx:width="0.48,0.4,0.48,0.58,0.33,0.55,0.33,0.55,0.4,0.55,0.58,0.55,0.33,0.33,0.4,0.55,0.29,0.29,0.48,0.61,0.55,0.42,0.33,0.48,0.48,0.29,0.55,0.42,0.58,0.48,0.48,0.33,0.42" style="fill:rgb(0,0,0);font-family:URWPalladioL-Roma;font-size:9.96px;stroke:none;">erent for hot-rolled steel sheets</text>
   <text y="219.433" x="76.535,81.616,87.53,93.6056,96.859,101.371,106.919,109.876,116.085,119.469,123.31,128.858,131.815,134.773,139.64,145.7156,148.969,153.277,156.59,161.458,166.325,169.21339999999998,172.402,176.711,182.625,187.492,192.36,195.673,199.981,202.471,207.897,214.126,220.041,226.168,230.477,232.967,236.3,241.848,247.762,252.274,257.0548,260.261,266.175,271.724,275.0108,278.156,281.997,287.546,290.503,293.46,296.417,302.331,307.90860000000004,311.101,314.058,319.8348,323.092,326.405,332.319,337.0998,340.306,345.387,351.515,355.823,359.136,364.004,369.918,372.875,376.188,379.145,383.5274,386.786,392.934,397.802,400.759,406.8346,410.088,416.002,421.083,425.2662,428.511,434.13,438.998,443.866,449.64279999999997,452.899,457.98,464.088,470.195,473.152,476.109,480.977,487.185,489.675,493.008,497.876,500.833,504.146,510.06,514.927" svgx:width="0.5,0.58,0.61,0.55,0.44,0.55,0.29,0.61,0.33,0.4,0.55,0.29,0.29,0.48,0.61,0.55,0.42,0.33,0.48,0.48,0.29,0.55,0.42,0.58,0.48,0.48,0.33,0.42,0.25,0.55,0.61,0.58,0.6,0.42,0.25,0.55,0.55,0.58,0.44,0.48,0.55,0.58,0.55,0.33,0.55,0.4,0.55,0.29,0.29,0.29,0.58,0.56,0.55,0.29,0.58,0.55,0.33,0.58,0.48,0.55,0.5,0.6,0.42,0.33,0.48,0.58,0.29,0.33,0.29,0.44,0.55,0.61,0.48,0.29,0.61,0.55,0.58,0.5,0.42,0.55,0.55,0.48,0.48,0.58,0.55,0.5,0.6,0.6,0.29,0.29,0.48,0.61,0.25,0.55,0.48,0.29,0.33,0.58,0.48,0.4" style="fill:rgb(0,0,0);font-family:URWPalladioL-Roma;font-size:9.96px;stroke:none;">and cold-rolled steel sheets. Thus, once hot rolling in the austenitic ﬁeld has been applied, either</text>
   <text y="232.942" x="76.535,80.963,86.408,89.31,92.212,95.114,100.918,106.49560000000001,108.956" svgx:width="0.44,0.55,0.29,0.29,0.29,0.58,0.56,0.55,0.33" style="fill:rgb(0,0,0);font-family:URWPalladioL-Roma;font-size:9.96px;stroke:none;">coiling [</text>
   <text y="232.942" x="112.281" svgx:width="0.5" style="fill:rgb(8,117,183);font-family:URWPalladioL-Roma;font-size:9.96px;stroke:none;">8</text>
   <text y="232.942" x="117.262,120.5488,123.076,128.521,132.505,134.963,139.95,145.963,150.191,153.442,158.219,167.025,173.019,177.795,181.735,184.637,190.441,196.0186,198.479" svgx:width="0.33,0.55,0.55,0.4,0.55,0.5,0.6,0.42,0.33,0.48,0.88,0.6,0.48,0.4,0.29,0.58,0.56,0.55,0.33" style="fill:rgb(0,0,0);font-family:URWPalladioL-Roma;font-size:9.96px;stroke:none;">] or austempering [</text>
   <text y="232.942" x="201.801" svgx:width="0.5" style="fill:rgb(8,117,183);font-family:URWPalladioL-Roma;font-size:9.96px;stroke:none;">1</text>
   <text y="232.942" x="206.782" svgx:width="0.25" style="fill:rgb(0,0,0);font-family:URWPalladioL-Roma;font-size:9.96px;stroke:none;">,</text>
   <text y="232.942" x="209.275" svgx:width="0.5" style="fill:rgb(8,117,183);font-family:URWPalladioL-Roma;font-size:9.96px;stroke:none;">2</text>
   <text y="232.942" x="214.256,217.5428,220.07,222.972,227.1552,229.703,235.717,239.945,245.959,250.945,253.847,256.749,262.32660000000004,264.787,269.773,275.767,281.76,284.662,287.564,292.341,298.4166,300.937,305.166,310.644,313.104,318.09,324.104,328.332,331.583,336.36,342.164,345.066,348.317,353.0978,355.587,358.489,362.6722,365.221,368.98,373.757,377.008,381.994,384.896,390.7,395.477,401.5526,404.064,406.966,412.7428,415.263,418.514,424.318,429.0988,431.598,437.631,443.435,448.422,451.3104,453.817,462.622,465.525,469.952,473.712,479.157,483.385,486.636,490.496,496.509,500.937,504.188,510.202,513.961" svgx:width="0.33,0.55,0.29,0.42,0.55,0.6,0.42,0.6,0.5,0.29,0.29,0.56,0.55,0.5,0.6,0.6,0.29,0.29,0.48,0.61,0.55,0.42,0.55,0.55,0.5,0.6,0.42,0.33,0.48,0.58,0.29,0.33,0.48,0.55,0.29,0.42,0.55,0.4,0.48,0.33,0.5,0.29,0.58,0.48,0.61,0.55,0.29,0.58,0.55,0.33,0.58,0.48,0.55,0.61,0.58,0.5,0.29,0.55,0.88,0.29,0.44,0.4,0.55,0.42,0.33,0.4,0.6,0.44,0.33,0.6,0.4,0.48" style="fill:rgb(0,0,0);font-family:URWPalladioL-Roma;font-size:9.96px;stroke:none;">] is usually applied so austenite is retained in the ﬁnal microstructure</text>
   <text y="246.452" x="76.535,81.457,85.6402,88.12,94.036,98.957,102.845,106.1318,108.545,113.919,117.2058,119.687,122.551,125.76,129.94320000000002,132.424,135.288,141.017,145.387,150.761,159.453,165.368,168.233,172.948,176.156,180.9368,183.362,186.57,190.458,195.38,201.109,205.282,208.56,213.934,217.822,226.513,231.435,234.644,237.508,242.882,248.6588,251.101,256.476,262.2528,264.685,270.64,276.369,281.29,284.1784,286.645,291.015,296.389,301.764,304.628,307.492,313.221,318.694,321.184,324.649,332.385,338.16179999999997,340.604,343.813,349.542,354.3228,356.737,361.107,366.482,372.21,375.419,379.307,384.229,388.117,392.487,394.97700000000003,397.438,400.647,406.376,411.1568,413.581,417.951,423.325,426.19,432.204,435.481,439.192,444.567,447.431,450.295,455.01,461.0856,463.514,472.206,476.921,482.935,485.799,491.734,500.426,503.704,513.015" svgx:width="0.5,0.42,0.55,0.6,0.5,0.4,0.33,0.55,0.55,0.33,0.55,0.29,0.33,0.42,0.55,0.29,0.58,0.44,0.55,0.88,0.6,0.29,0.48,0.33,0.48,0.55,0.33,0.4,0.5,0.58,0.42,0.33,0.55,0.4,0.88,0.5,0.33,0.29,0.55,0.58,0.55,0.55,0.58,0.55,0.61,0.58,0.5,0.29,0.55,0.44,0.55,0.55,0.29,0.29,0.58,0.56,0.25,0.55,0.79,0.58,0.55,0.33,0.58,0.48,0.55,0.44,0.55,0.58,0.33,0.4,0.5,0.4,0.56,0.25,0.55,0.33,0.58,0.48,0.55,0.44,0.55,0.29,0.61,0.33,0.4,0.55,0.29,0.29,0.48,0.61,0.55,0.88,0.48,0.61,0.29,0.6,0.88,0.33,0.95,0.58" style="fill:rgb(0,0,0);font-family:URWPalladioL-Roma;font-size:9.96px;stroke:none;">as part of its incomplete transformation on ﬁnal cooling. On the contrary, the cold-rolled medium-Mn</text>
   <text y="259.961" x="76.535,80.844,84.156,89.024,93.891,96.849,101.0322,103.84,107.671,112.538,118.229,124.357,127.314,131.145,135.9258,138.695,141.652,147.566,150.879,155.747,159.578,164.09,168.103,171.061,174.373,177.33,181.842,186.923,189.8114,192.563,197.644,203.558,209.472,214.34,219.421,222.378,225.335,231.249,236.82659999999998,239.572,244.653,248.8362,251.644,256.624,259.397,265.545,271.46,276.541,279.4294,282.18,288.095,292.962,298.043,301.32980000000003,304.028,307.341,311.182,316.05,321.131,324.444,333.416,338.284,344.198,347.4848,350.184,354.492,357.805,362.672,368.648,371.462" svgx:width="0.42,0.33,0.48,0.48,0.29,0.42,0.55,0.4,0.48,0.56,0.6,0.29,0.4,0.48,0.55,0.29,0.58,0.33,0.48,0.4,0.44,0.4,0.29,0.33,0.29,0.44,0.5,0.29,0.55,0.5,0.58,0.58,0.48,0.5,0.29,0.29,0.58,0.56,0.55,0.5,0.42,0.55,0.5,0.55,0.61,0.58,0.5,0.29,0.55,0.58,0.48,0.5,0.33,0.55,0.33,0.4,0.48,0.5,0.33,0.88,0.48,0.58,0.33,0.55,0.42,0.33,0.48,0.6,0.55,0.33" style="fill:rgb(0,0,0);font-family:URWPalladioL-Roma;font-size:9.96px;stroke:none;">steels require intercritical annealing as a ﬁnal heat treatment step [</text>
   <text y="259.961" x="374.843" svgx:width="0.5" style="fill:rgb(8,117,183);font-family:URWPalladioL-Roma;font-size:9.96px;stroke:none;">6</text>
   <text y="259.961" x="379.824" svgx:width="0.25" style="fill:rgb(0,0,0);font-family:URWPalladioL-Roma;font-size:9.96px;stroke:none;">,</text>
   <text y="259.961" x="382.364" svgx:width="0.5" style="fill:rgb(8,117,183);font-family:URWPalladioL-Roma;font-size:9.96px;stroke:none;">7</text>
   <text y="259.961" x="387.346,390.73,393.22,397.315,400.739,406.51579999999996,409.336,413.645,419.772,424.284,430.0608,432.881,437.393,442.474,446.783,451.65,455.959,458.449,461.223,464.535,470.45,475.2308,477.99,483.071,489.198,493.507,496.82,501.687,507.601,510.558,513.871" svgx:width="0.33,0.25,0.55,0.34,0.58,0.55,0.42,0.6,0.44,0.58,0.55,0.44,0.5,0.42,0.48,0.42,0.25,0.55,0.33,0.58,0.48,0.55,0.5,0.6,0.42,0.33,0.48,0.58,0.29,0.33,0.48" style="fill:rgb(0,0,0);font-family:URWPalladioL-Roma;font-size:9.96px;stroke:none;">]. In such cases, the austenite</text>
   <text y="273.471" x="76.535,79.492,83.6752,86.362,89.745,95.294,99.308,108.281,113.148,119.22359999999999,121.918,128.045,134.153,139.701,145.4778,148.176,154.09,158.958,164.039,167.351,170.309,176.223,181.8006,184.434,188.945,194.494,200.408,206.617,209.574,212.887,215.844,221.392,227.306,231.615,234.10500000000002,237.844,244.073,249.988,254.855,259.164,263.9448,266.592,269.905,275.819,279.66,284.528,289.3088,291.956,298.063,303.612,307.92,312.229,315.186,320.806,323.763,328.5438,331.191,337.105,341.973,347.054,350.3408,352.927,356.23,360.071,364.938,370.019,373.332,382.305,387.173,393.087,396.3738,398.96,402.791,408.34,414.467,417.78,422.648,426.8312,429.517,434.598,438.429,443.2098,445.857,450.166,453.123,462.096,468.224,471.181,476.262,479.574,484.442,490.5176,493.212,496.169,501.94579999999996,504.644,507.956,513.871" svgx:width="0.29,0.42,0.55,0.33,0.55,0.4,0.88,0.48,0.61,0.55,0.6,0.6,0.55,0.58,0.55,0.58,0.48,0.5,0.33,0.29,0.58,0.56,0.55,0.44,0.55,0.58,0.61,0.29,0.33,0.29,0.55,0.58,0.42,0.25,0.55,0.61,0.58,0.48,0.42,0.48,0.55,0.33,0.58,0.4,0.48,0.48,0.55,0.6,0.55,0.42,0.42,0.29,0.55,0.29,0.48,0.55,0.58,0.48,0.5,0.33,0.55,0.33,0.4,0.48,0.5,0.33,0.88,0.48,0.58,0.33,0.55,0.4,0.55,0.6,0.33,0.48,0.42,0.55,0.5,0.4,0.48,0.55,0.42,0.29,0.88,0.6,0.29,0.5,0.33,0.48,0.61,0.55,0.29,0.58,0.55,0.33,0.58,0.48" style="fill:rgb(0,0,0);font-family:URWPalladioL-Roma;font-size:9.96px;stroke:none;">is formed upon heating conditions. These three possible heat treatment routes are simulated in the</text>
   <text y="286.98" x="76.236,82.224,85.979,90.752,94.976,99.748,105.546,108.8328,111.284,119.593,125.033,128.968,134.507" svgx:width="0.6,0.4,0.48,0.42,0.48,0.58,0.33,0.55,0.83,0.55,0.4,0.56,0.25" style="fill:rgb(0,0,0);font-family:URWPalladioL-Roma;font-size:9.96px;stroke:none;">present work.</text>
   <text y="310.193" x="76.535,81.516,84.006,87.494,97.456,102.438,105.755,110.737,114.612,117.93,122.911,126.1978,128.719,133.7,139.788,145.86360000000002,148.365,154.452,159.434,165.521,170.502,174.378,177.695,186.552,191.533,197.62,200.938" svgx:width="0.5,0.25,0.55,1.0,0.5,0.33,0.5,0.39,0.33,0.5,0.33,0.55,0.5,0.61,0.61,0.55,0.61,0.5,0.61,0.5,0.39,0.33,0.89,0.5,0.61,0.33,0.44" style="fill:rgb(0,0,0);font-family:URWPalladioL-Bold;font-size:9.96px;stroke:none;">2. Material and Experiments</text>
   <text y="333.406" x="76.535,81.516,84.007,88.988,91.478,94.966,104.37,108.794,112.111,115.987,119.862,122.632,127.055" svgx:width="0.5,0.25,0.5,0.25,0.55,0.94,0.44,0.33,0.39,0.39,0.28,0.44,0.28" style="fill:rgb(0,0,0);font-family:URWPalladioL-Ital;font-size:9.96px;stroke:none;">2.1. Material</text>
   <text y="352.893" x="97.795,105.5638,110.213,113.17,118.251,123.87,129.409,133.422,138.503,141.816,147.365,151.378,157.028,160.412,169.385,174.253,177.21,180.523,185.39,191.4656,196.111,205.084,209.951,216.16,219.117,225.245,234.0098,238.73,247.703,252.784,258.698,264.348,269.429,275.343,280.21,284.519,289.2998,293.898,298.207,301.52,306.387,311.245,314.1334,318.714,327.189,332.27,336.4532,341.09,345.399,348.711,354.839,361.048,364.005,368.873,374.9486,379.593,382.55,388.3268,392.966,396.279,402.193,405.15,409.3332,413.971,422.446,427.994,432.008,437.5856,442.17,447.251,453.165,459.24060000000003,463.876,466.833,470.146,474.3292,478.966,483.478,489.392,494.26,503.233,506.19,510.702,515.782" svgx:width="0.78,0.55,0.29,0.5,0.55,0.55,0.4,0.5,0.33,0.55,0.4,0.56,0.33,0.88,0.48,0.29,0.33,0.48,0.61,0.55,0.88,0.48,0.61,0.29,0.6,0.88,0.55,0.88,0.5,0.58,0.56,0.5,0.58,0.48,0.42,0.48,0.55,0.42,0.33,0.48,0.48,0.29,0.55,0.83,0.5,0.42,0.55,0.42,0.33,0.6,0.61,0.29,0.48,0.61,0.55,0.29,0.58,0.55,0.33,0.58,0.29,0.42,0.55,0.83,0.55,0.4,0.56,0.55,0.5,0.58,0.61,0.55,0.29,0.33,0.42,0.55,0.44,0.58,0.48,0.88,0.29,0.44,0.5,0.29" style="fill:rgb(0,0,0);font-family:URWPalladioL-Roma;font-size:9.96px;stroke:none;">A laboratory-melted medium manganese steel was studied in this work and its chemical</text>
   <text y="366.402" x="76.535,80.892,86.25,94.915,100.813,106.171,110.332,113.187,116.386,119.242,124.6,130.3768,132.794,135.649,139.8322,142.283,148.279,152.98,156.179,161.085,163.941,166.796,171.497,177.57260000000002,179.976,182.831,188.6078,191.025,196.118,201.025,206.451,209.307" svgx:width="0.44,0.55,0.88,0.6,0.55,0.42,0.29,0.33,0.29,0.55,0.58,0.55,0.29,0.42,0.55,0.61,0.48,0.33,0.5,0.29,0.29,0.48,0.61,0.55,0.29,0.58,0.55,0.61,0.5,0.55,0.29,0.48" style="fill:rgb(0,0,0);font-family:URWPalladioL-Roma;font-size:9.96px;stroke:none;">composition is detailed in Table</text>
   <text y="366.402" x="216.49" svgx:width="0.5" style="fill:rgb(8,117,183);font-family:URWPalladioL-Roma;font-size:9.96px;stroke:none;">1</text>
   <text y="366.402" x="221.397,223.887,227.334,235.1028,237.451,241.151,245.851,248.707,253.614,256.813,259.668,265.213,269.913,272.769,278.3466,280.698,283.553,288.911,299.578,303.935,308.842,312.718,318.145,323.503,329.27979999999997,331.697,336.054,341.412,347.123,350.322,355.023,360.734,364.0208,366.406,371.764,375.05080000000004,377.514,380.714,386.425,391.2058,393.608,396.464,402.175,407.719,412.42,416.581,419.78,422.635,428.092,432.998,436.197,440.898,446.97360000000003,449.376,453.537,456.736,461.437,466.137,469.0254,471.466,474.733,479.64,482.093,487.0,491.98,494.389,502.573,505.773,508.226,516.469" svgx:width="0.25,0.55,0.78,0.55,0.4,0.48,0.29,0.5,0.33,0.29,0.56,0.48,0.29,0.56,0.55,0.29,0.55,0.83,0.44,0.5,0.4,0.55,0.55,0.58,0.55,0.44,0.55,0.58,0.33,0.48,0.58,0.33,0.55,0.55,0.33,0.55,0.33,0.58,0.48,0.55,0.29,0.58,0.56,0.48,0.42,0.33,0.29,0.56,0.5,0.33,0.48,0.61,0.55,0.42,0.33,0.48,0.48,0.29,0.55,0.33,0.5,0.25,0.5,0.5,0.55,0.83,0.33,0.25,0.84,0.33" style="fill:rgb(0,0,0);font-family:URWPalladioL-Roma;font-size:9.96px;stroke:none;">. A relatively lowcarbon content of the investigated steel (0.16 wt.%)</text>
   <text y="379.912" x="76.535,79.431,83.6142,86.149,91.643,96.41,102.203,106.97,112.992,117.41,120.307,125.283,128.1714,130.677,136.758,142.76,147.5408,150.015,153.26,158.738,161.192,164.437,170.229,175.0098,177.485,180.381,189.169,195.151,198.903,204.337,209.96,214.727,223.516,228.283,234.075,237.3618,239.818,242.714,248.4908,250.995,255.215,258.459,263.227,267.994,270.8824,273.388,281.689,286.456,289.352,295.433,300.41,305.913,308.81,311.706,314.602,317.847,323.4246,325.868" svgx:width="0.29,0.42,0.55,0.55,0.48,0.58,0.48,0.61,0.44,0.29,0.5,0.29,0.55,0.61,0.6,0.48,0.55,0.33,0.55,0.55,0.33,0.58,0.48,0.55,0.29,0.88,0.6,0.4,0.55,0.56,0.48,0.88,0.48,0.58,0.33,0.55,0.29,0.58,0.55,0.42,0.33,0.48,0.48,0.29,0.55,0.83,0.48,0.29,0.61,0.5,0.55,0.29,0.29,0.29,0.33,0.56,0.55,0.33" style="fill:rgb(0,0,0);font-family:URWPalladioL-Roma;font-size:9.96px;stroke:none;">is beneﬁcial due to the improvement in steel weldability [</text>
   <text y="379.912" x="329.184,334.165" svgx:width="0.5,0.5" style="fill:rgb(8,117,183);font-family:URWPalladioL-Roma;font-size:9.96px;stroke:none;">10</text>
   <text y="379.912" x="339.146,342.46,344.95,348.442,354.543,360.335,365.1158,367.601,372.577,375.065,380.045,382.53,390.83,394.075,396.563,407.411,412.845,416.13180000000006,418.658,427.446,432.422,438.215,443.748,448.725,454.517,459.284,463.504,468.2848,470.76,479.06,484.036,488.2192,490.754,495.731,501.812,507.893,512.66" svgx:width="0.33,0.25,0.55,0.61,0.58,0.48,0.55,0.5,0.25,0.5,0.55,0.83,0.33,0.25,0.84,0.55,0.33,0.55,0.88,0.5,0.58,0.56,0.5,0.58,0.48,0.42,0.48,0.55,0.83,0.5,0.42,0.55,0.5,0.61,0.61,0.48,0.61" style="fill:rgb(0,0,0);font-family:URWPalladioL-Roma;font-size:9.96px;stroke:none;">]. The 4.7 wt.%of manganese was added</text>
   <text y="393.421" x="76.535,79.848,85.326,88.882,93.749,99.663,105.578,110.659,116.573,121.085,125.8658,129.427,132.74,138.654,143.4348,147.007,150.32,156.234,161.102,165.116,174.089,179.17,182.05839999999998,185.612,189.921,193.234,198.315,203.934,206.891,209.848,212.805,216.118,221.69559999999998,225.244,230.792,234.0788,237.661,242.742,248.87,253.178,256.491,261.359,267.273,270.23,273.543,278.3238,281.896,288.023,294.131,299.679,305.45579999999995,309.069,313.58,319.129,324.677,327.634,330.591,336.506,342.156,344.646,351.159,358.9278,362.55,368.465,371.422,377.072,382.8488,386.461,391.542,394.499,400.627,409.6,412.557,418.471,424.599,433.36379999999997,437.057,441.569,447.117,453.031,456.344,461.212,467.126,470.4128,473.924,477.308,482.389,484.93,489.91,493.486,501.961,505.274,507.814,516.35" svgx:width="0.33,0.55,0.55,0.48,0.58,0.58,0.5,0.58,0.44,0.48,0.55,0.33,0.58,0.48,0.55,0.33,0.58,0.48,0.4,0.88,0.5,0.29,0.55,0.42,0.33,0.5,0.55,0.29,0.29,0.29,0.33,0.56,0.55,0.55,0.33,0.55,0.5,0.6,0.42,0.33,0.48,0.58,0.29,0.33,0.48,0.55,0.6,0.6,0.55,0.58,0.55,0.44,0.55,0.55,0.29,0.29,0.58,0.56,0.25,0.55,0.78,0.55,0.58,0.29,0.56,0.58,0.55,0.5,0.29,0.6,0.88,0.29,0.58,0.6,0.88,0.55,0.44,0.55,0.58,0.33,0.48,0.58,0.33,0.55,0.33,0.5,0.25,0.5,0.55,0.83,0.33,0.25,0.84,0.33" style="fill:rgb(0,0,0);font-family:URWPalladioL-Roma;font-size:9.96px;stroke:none;">to enhance the thermal stability of austenite upon cooling. A high aluminum content (1.6 wt.%)</text>
   <text y="406.931" x="76.236,82.134,85.833,90.534,96.078,100.779,106.49,109.689,113.87219999999999,116.333,119.532,125.243,130.0238,132.426,136.783,141.69,145.566,150.993,153.848,159.844,164.6248,167.037,172.935,176.634,181.335,185.692,188.548,194.445,197.291,200.49,205.397,208.596,211.452,216.81,222.5868,225.013,231.009,236.927,240.803,243.658,249.37,254.9476,257.308,262.288,264.708,270.134,275.041,277.896,283.608,286.463,289.662,294.4428,296.846,300.545,305.246,310.152,314.509,317.708,320.564,325.922,331.633,334.123,336.569,342.281,346.981,352.692,357.049,361.8298,364.233,367.088,372.8,377.157,380.856,385.557,390.463,394.624,397.48,403.191,408.7686,411.14,414.329,420.04,424.8208,427.233,431.59,436.497,440.373,445.8,451.158,456.9348,459.352,463.709,469.067,474.778,477.977,482.678,488.389,491.67580000000004,494.081,496.936,502.71279999999996,505.13,508.329,514.04" svgx:width="0.6,0.4,0.48,0.56,0.48,0.58,0.33,0.42,0.55,0.33,0.58,0.48,0.55,0.44,0.5,0.4,0.55,0.29,0.61,0.48,0.55,0.6,0.4,0.48,0.44,0.29,0.6,0.29,0.33,0.5,0.33,0.29,0.55,0.58,0.55,0.61,0.6,0.4,0.29,0.58,0.56,0.55,0.5,0.55,0.55,0.5,0.29,0.58,0.29,0.33,0.48,0.55,0.4,0.48,0.5,0.44,0.33,0.29,0.55,0.58,0.25,0.55,0.58,0.48,0.58,0.44,0.48,0.55,0.29,0.58,0.44,0.4,0.48,0.5,0.42,0.29,0.58,0.56,0.55,0.33,0.58,0.48,0.55,0.44,0.5,0.4,0.55,0.55,0.58,0.55,0.44,0.55,0.58,0.33,0.48,0.58,0.33,0.55,0.29,0.58,0.55,0.33,0.58,0.48" style="fill:rgb(0,0,0);font-family:URWPalladioL-Roma;font-size:9.96px;stroke:none;">prevents the carbide precipitation during a bainite reaction, hence increasing the carbon content in the</text>
   <text y="420.44" x="76.535,81.432,87.337,91.489,94.682,99.373,105.072,107.922,111.115,115.8958,118.303" svgx:width="0.5,0.6,0.42,0.33,0.48,0.58,0.29,0.33,0.48,0.55,0.33" style="fill:rgb(0,0,0);font-family:URWPalladioL-Roma;font-size:9.96px;stroke:none;">austenite [</text>
   <text y="420.44" x="121.567,126.548" svgx:width="0.5,0.5" style="fill:rgb(8,117,183);font-family:URWPalladioL-Roma;font-size:9.96px;stroke:none;">11</text>
   <text y="420.44" x="131.53,134.791,137.281,140.755,150.02,155.367,159.059,163.75,169.097,174.63,179.321,182.445,184.935,187.4,192.297,195.147,201.052,209.7,212.549,218.249,224.154,235.299,238.149,243.849,248.197,251.889,256.58,261.476,265.629,270.32,274.5032,276.969,280.162,285.862,290.6428,293.06,296.928,301.825,305.017,309.7978,312.205,317.553" svgx:width="0.33,0.25,0.55,0.95,0.55,0.4,0.48,0.55,0.56,0.48,0.4,0.25,0.55,0.5,0.29,0.6,0.88,0.29,0.58,0.6,0.88,0.29,0.58,0.44,0.4,0.48,0.5,0.42,0.48,0.42,0.55,0.33,0.58,0.48,0.55,0.4,0.5,0.33,0.48,0.55,0.55,0.33" style="fill:rgb(0,0,0);font-family:URWPalladioL-Roma;font-size:9.96px;stroke:none;">]. Moreover, aluminumincreases the rate of</text>
   <text y="420.44" x="323.313" svgx:width="0.61" style="fill:rgb(0,0,0);font-family:EURM10;font-size:9.96px;stroke:none;">γ</text>
   <text y="420.44" x="331.875,335.068" svgx:width="0.33,0.55" style="fill:rgb(0,0,0);font-family:URWPalladioL-Roma;font-size:9.96px;stroke:none;">to</text>
   <text y="420.44" x="342.916" svgx:width="0.66" style="fill:rgb(0,0,0);font-family:EURM10;font-size:9.96px;stroke:none;">α</text>
   <text y="420.44" x="351.976,355.169,359.037,363.934,369.633,373.786,377.047,382.394,386.262,394.91,399.806,402.999,405.849,411.196,416.9728,419.393,422.654,425.504,431.203,435.551,439.244,443.934,448.831,452.983,457.674,461.8572,464.324,467.517,473.216,477.9968,480.414,484.763,490.462,495.153,503.801,506.65,510.999,515.895" svgx:width="0.33,0.4,0.5,0.58,0.42,0.33,0.55,0.4,0.88,0.5,0.33,0.29,0.55,0.58,0.55,0.33,0.29,0.58,0.44,0.4,0.48,0.5,0.42,0.48,0.42,0.55,0.33,0.58,0.48,0.55,0.44,0.58,0.48,0.88,0.29,0.44,0.5,0.29" style="fill:rgb(0,0,0);font-family:URWPalladioL-Roma;font-size:9.96px;stroke:none;">transformation (increases the chemical</text>
   <text y="433.949" x="76.535,82.744,86.758,89.715,95.456,98.413,104.328,109.9056,112.752,116.136,121.684,125.525,130.037,134.905,138.1918,141.063" svgx:width="0.61,0.4,0.29,0.56,0.29,0.58,0.56,0.55,0.33,0.55,0.4,0.44,0.48,0.33,0.55,0.33" style="fill:rgb(0,0,0);font-family:URWPalladioL-Roma;font-size:9.96px;stroke:none;">driving force) [</text>
   <text y="433.949" x="144.447,149.428" svgx:width="0.5,0.5" style="fill:rgb(8,117,183);font-family:URWPalladioL-Roma;font-size:9.96px;stroke:none;">12</text>
   <text y="433.949" x="154.41" svgx:width="0.25" style="fill:rgb(0,0,0);font-family:URWPalladioL-Roma;font-size:9.96px;stroke:none;">,</text>
   <text y="433.949" x="156.951,161.932" svgx:width="0.5,0.5" style="fill:rgb(8,117,183);font-family:URWPalladioL-Roma;font-size:9.96px;stroke:none;">13</text>
   <text y="433.949" x="166.913,170.297,172.787,177.187,182.522,185.479,188.436,191.393,195.905,201.453,207.2298,210.141,216.056,221.137,225.3202,228.23,233.20999999999998,236.085,240.393,243.35,252.323,255.28,258.238,263.318,267.30199999999996,270.107,273.948,279.496,282.453,287.2338,290.095,295.176,299.3592,302.259,307.34,310.297,316.424,325.397,328.354,334.269,340.396,349.369,351.85900000000004,354.765,360.415,365.283,368.56980000000004,371.37,374.327,377.639,381.8222,384.732,389.244,394.793,400.707,404.02,408.887,414.801,418.0878,420.888,429.363,434.444,438.6272,441.527,444.484,447.441,456.414,459.371,462.684,467.551,473.6266,476.545,482.754,488.881,493.66179999999997,496.523,499.836,505.314,508.158,511.115,514.428" svgx:width="0.33,0.25,0.55,0.52,0.29,0.29,0.29,0.44,0.55,0.58,0.55,0.58,0.5,0.42,0.55,0.5,0.55,0.42,0.29,0.88,0.29,0.29,0.5,0.4,0.55,0.4,0.55,0.29,0.48,0.55,0.5,0.42,0.55,0.5,0.29,0.6,0.88,0.29,0.58,0.6,0.88,0.25,0.55,0.56,0.48,0.33,0.55,0.29,0.33,0.42,0.55,0.44,0.55,0.58,0.33,0.48,0.58,0.33,0.55,0.83,0.5,0.42,0.55,0.29,0.29,0.88,0.29,0.33,0.48,0.61,0.55,0.61,0.6,0.48,0.55,0.33,0.55,0.55,0.29,0.33,0.42" style="fill:rgb(0,0,0);font-family:URWPalladioL-Roma;font-size:9.96px;stroke:none;">]. Silicon has a similar role as aluminum, yet its content was limited due to its</text>
   <text y="447.459" x="76.535,82.5,85.342,89.481,94.363,100.328,105.845,110.726,116.409,119.591,124.473,129.901,134.578,138.7612,141.041,147.007,152.894,156.751,159.592,165.274,170.8516,173.036,178.718,184.049,187.232,190.483,196.448,199.29,205.266,207.481,212.909,217.791,220.632,226.149,231.03,236.712,239.554,244.435,247.276,252.959,258.387,260.877,264.265,270.25,275.932,278.773,282.9562,285.236,289.913,292.754,297.431,306.052,310.728,316.411,319.69780000000003,321.917,325.168,330.499,334.356,342.977,347.1602,349.45,354.43,356.655,359.838,365.52,368.361,374.13779999999997,376.377,381.259,389.88,395.211,399.067,404.935,410.617,415.948,421.835,426.0182,428.299,431.14,436.021,441.45,446.127,450.111,452.307,460.449,466.132,468.973,473.308,479.0848,481.323,487.191,490.862,495.539,501.055,505.732,511.414,514.597" svgx:width="0.61,0.29,0.42,0.5,0.61,0.56,0.5,0.58,0.33,0.5,0.56,0.48,0.42,0.55,0.61,0.6,0.4,0.29,0.58,0.56,0.55,0.58,0.55,0.33,0.33,0.61,0.29,0.6,0.55,0.56,0.5,0.29,0.56,0.5,0.58,0.29,0.5,0.29,0.58,0.56,0.25,0.55,0.61,0.58,0.29,0.42,0.55,0.48,0.29,0.48,0.88,0.48,0.58,0.33,0.55,0.33,0.55,0.4,0.88,0.42,0.55,0.5,0.55,0.33,0.58,0.29,0.58,0.55,0.5,0.88,0.55,0.4,0.6,0.58,0.55,0.6,0.42,0.55,0.29,0.5,0.56,0.48,0.4,0.55,0.83,0.58,0.29,0.44,0.58,0.55,0.6,0.4,0.48,0.56,0.48,0.58,0.33,0.42" style="fill:rgb(0,0,0);font-family:URWPalladioL-Roma;font-size:9.96px;stroke:none;">disadvantages during hot-dip galvanizing. This element forms a thin amorphous layer which prevents</text>
   <text y="460.968" x="76.535,79.783,85.581,90.3618,92.844,98.383,103.823,109.262,115.3376,117.84,123.927" svgx:width="0.33,0.58,0.48,0.55,0.56,0.55,0.55,0.61,0.55,0.61,0.29" style="fill:rgb(0,0,0);font-family:URWPalladioL-Roma;font-size:9.96px;stroke:none;">the good di</text>
   <text y="460.968" x="126.826" svgx:width="0.61" style="fill:rgb(0,0,0);font-family:Rpxr;font-size:9.96px;stroke:none;">ﬀ</text>
   <text y="460.968" x="132.883,138.89,143.115,146.014,151.453,157.2298,159.742,164.166,169.605,175.403,181.202,185.974,190.397,193.645,196.544,201.984,207.76080000000002,210.272,215.782,220.554,223.802,232.11,236.883,241.655,247.4318,249.944,254.168,257.415,262.188,266.96,269.84839999999997,272.349,277.331,283.129,289.2046,291.707,296.688,299.587,305.385,309.7674,312.299" svgx:width="0.6,0.42,0.29,0.55,0.58,0.55,0.44,0.55,0.58,0.58,0.48,0.44,0.33,0.29,0.55,0.58,0.55,0.55,0.48,0.33,0.83,0.48,0.48,0.58,0.55,0.42,0.33,0.48,0.48,0.29,0.55,0.5,0.58,0.61,0.55,0.5,0.29,0.58,0.44,0.55,0.33" style="fill:rgb(0,0,0);font-family:URWPalladioL-Roma;font-size:9.96px;stroke:none;">usion connection between steel and zinc [</text>
   <text y="460.968" x="315.617" svgx:width="0.5" style="fill:rgb(8,117,183);font-family:URWPalladioL-Roma;font-size:9.96px;stroke:none;">2</text>
   <text y="460.968" x="320.598,323.916" svgx:width="0.33,0.25" style="fill:rgb(0,0,0);font-family:URWPalladioL-Roma;font-size:9.96px;stroke:none;">].</text>
   <text y="484.144" x="186.209,191.194,195.678,201.156,204.142,208.627,210.867,215.35" svgx:width="0.67,0.5,0.61,0.33,0.5,0.55,0.5,0.25" style="fill:rgb(0,0,0);font-family:URWPalladioL-Bold;font-size:8.97px;stroke:none;">Table 1.</text>
   <text y="484.144" x="220.73,227.087,232.306,236.601,244.518,247.127,251.108,255.591,258.1923,260.442,264.423,269.319,277.236,282.625,287.521,291.322,293.932,296.855,299.464,304.36,309.56260000000003,311.82,316.715,319.6751,321.943,326.426,331.644,336.128,338.737,343.722,348.205,352.5,357.9717,360.22,364.022,366.945,371.24,375.535,378.1363,380.386,383.372,390.85,393.773,396.014,403.546,406.532" svgx:width="0.71,0.58,0.48,0.88,0.29,0.44,0.5,0.29,0.55,0.44,0.55,0.88,0.6,0.55,0.42,0.29,0.33,0.29,0.55,0.58,0.55,0.55,0.33,0.55,0.5,0.58,0.5,0.29,0.56,0.5,0.48,0.61,0.55,0.42,0.33,0.48,0.48,0.29,0.55,0.33,0.83,0.33,0.25,0.84,0.33,0.25" style="fill:rgb(0,0,0);font-family:URWPalladioL-Roma;font-size:8.97px;stroke:none;">Chemical composition of analyzed steel (wt.%).</text>
  </g>
  <path style="fill:none;stroke:rgb(0,0,0);stroke-width:1.0;" d="M213.340 494.370 L381.940 494.370 "/>
  <g begin="text">
   <text y="505.224" x="229.119,235.5774,259.578,268.544,274.0157,293.408,298.887,301.8471,323.499,330.475,333.43510000000003,355.94,364.906" svgx:width="0.72,0.55,1.0,0.61,0.55,0.61,0.33,0.55,0.78,0.33,0.55,1.0,0.56" style="fill:rgb(0,0,0);font-family:URWPalladioL-Bold;font-size:8.97px;stroke:none;">C Mn Si Al Mo</text>
  </g>
  <path style="fill:none;stroke:rgb(0,0,0);stroke-width:0.8;" d="M213.340 510.620 L381.940 510.620 "/>
  <g begin="text">
   <text y="521.223" x="224.51,228.993,231.235,235.718,240.203,261.192,265.675,267.916,272.401,292.036,296.519,298.761,303.24600000000004,322.871,327.355,329.596,334.081,357.311,361.795,364.036" svgx:width="0.5,0.25,0.5,0.5,0.55,0.5,0.25,0.5,0.55,0.5,0.25,0.5,0.55,0.5,0.25,0.5,0.55,0.5,0.25,0.5" style="fill:rgb(0,0,0);font-family:URWPalladioL-Roma;font-size:8.97px;stroke:none;">0.16 4.7 0.2 1.6 0.2</text>
  </g>
  <path style="fill:none;stroke:rgb(0,0,0);stroke-width:0.3;" d="M213.340 526.860 L381.940 526.860 "/>
  <g begin="text">
   <text y="551.16" x="97.795,104.024,109.938,114.7188,117.336,120.293,126.208,129.165,132.477,135.434,140.515,143.40339999999998,146.013,154.986,157.943,162.455,166.286,171.834,176.143,179.456,183.388,189.516,194.028,197.34,203.468,207.309,212.0898,214.707,220.255,223.5418,226.17,229.482,235.397,240.1778,242.805,247.113,250.426,255.294,260.161,263.0494,265.648,271.268,276.135,279.519,285.068,288.909,293.6898,296.307,302.221,307.088,312.169,315.4558,318.012,321.325,325.166,330.034,335.115,338.428,347.401,352.268,358.182,361.46880000000004,364.025,372.5,377.581,381.7642,384.43,393.403,398.484,402.498,405.801,410.668,416.582,420.891,423.848,427.161,431.9418,434.569,437.953,441.337,446.885,450.899,459.872,464.739,470.8146,473.479,479.688,485.815,489.829,492.786,498.7,504.2776,506.891,511.972,514.929" svgx:width="0.61,0.58,0.48,0.55,0.29,0.58,0.29,0.33,0.29,0.5,0.29,0.55,0.88,0.29,0.44,0.4,0.55,0.42,0.33,0.4,0.6,0.44,0.33,0.6,0.4,0.48,0.55,0.55,0.33,0.55,0.33,0.58,0.48,0.55,0.42,0.33,0.48,0.48,0.29,0.55,0.55,0.48,0.33,0.55,0.4,0.48,0.55,0.58,0.48,0.5,0.33,0.55,0.33,0.4,0.48,0.5,0.33,0.88,0.48,0.58,0.33,0.55,0.83,0.5,0.42,0.55,0.88,0.5,0.4,0.33,0.48,0.58,0.42,0.29,0.33,0.48,0.55,0.33,0.33,0.55,0.4,0.88,0.48,0.61,0.55,0.61,0.6,0.4,0.29,0.58,0.56,0.55,0.5,0.29,0.4" style="fill:rgb(0,0,0);font-family:URWPalladioL-Roma;font-size:9.96px;stroke:none;">The initial microstructure of the steel before heat treatment was martensite (formed during air</text>
   <text y="564.67" x="76.535,80.958,86.398,91.838,94.737,97.636,103.434,109.0116,111.464,116.445,119.763,123.011,127.783,131.767,134.208,140.007,145.446,148.7328,151.185,154.502,159.942,163.698,169.237,172.136,177.934,183.474,186.791,189.281,192.769,198.876,204.674,207.573,211.7562,214.288,217.187,221.3702,223.902,227.15,232.948,237.7288,240.21,243.966,248.738,252.963,258.97,261.869,265.15580000000006,267.608,273.047,276.33380000000005,278.855,282.103,287.901,292.6818,295.164,300.962,303.862,309.401,315.1778,317.69,323.488,328.469,332.225,338.312,343.084,348.883,353.864,359.373,362.272,365.171,368.07,371.318,376.8956,379.348,384.788,388.07480000000004,390.596,393.844,399.642,404.4228,406.905,411.886,417.684,422.666,425.565,431.104,436.085,440.857,446.93260000000004,449.435,453.659,456.907,461.679,466.451,469.35" svgx:width="0.44,0.55,0.55,0.29,0.29,0.58,0.56,0.55,0.5,0.33,0.33,0.48,0.4,0.55,0.58,0.55,0.33,0.55,0.33,0.55,0.4,0.56,0.29,0.58,0.56,0.33,0.25,0.55,0.61,0.58,0.29,0.42,0.55,0.29,0.42,0.55,0.33,0.58,0.48,0.55,0.4,0.48,0.42,0.6,0.29,0.33,0.55,0.55,0.33,0.55,0.33,0.58,0.48,0.55,0.58,0.29,0.56,0.58,0.55,0.58,0.5,0.4,0.61,0.48,0.58,0.5,0.55,0.29,0.29,0.29,0.33,0.56,0.55,0.55,0.33,0.55,0.33,0.58,0.48,0.55,0.5,0.58,0.5,0.29,0.56,0.5,0.48,0.61,0.55,0.42,0.33,0.48,0.48,0.29,0.25" style="fill:rgb(0,0,0);font-family:URWPalladioL-Roma;font-size:9.96px;stroke:none;">cooling after hot forging). This is the result of the high hardenability of the analyzed steel.</text>
   <text y="587.883" x="76.535,81.516,84.007,88.988,91.478,94.966,101.053,106.034,111.016,114.891,118.766,121.536,129.287,133.162,138.702,142.019,146.443,149.23180000000002,151.703,159.454,163.329,166.647,171.07,173.84,176.609" svgx:width="0.5,0.25,0.5,0.25,0.55,0.61,0.5,0.5,0.39,0.39,0.28,0.78,0.39,0.56,0.33,0.44,0.28,0.55,0.78,0.39,0.33,0.44,0.28,0.28,0.39" style="fill:rgb(0,0,0);font-family:URWPalladioL-Ital;font-size:9.96px;stroke:none;">2.2. Experimental Details</text>
   <text y="607.37" x="97.795,104.024,109.938,114.7188,117.519,122.6,125.557,134.3218,137.243,142.792,146.0788,148.889,152.202,158.116,162.8968,165.696,170.005,173.318,179.445,185.654,191.2316,194.018,202.493,207.573,211.7562,214.605,217.918,223.39600000000002,226.18,232.389,237.256,240.569,245.437,249.45,258.423,261.38,267.295,272.0758,274.875,278.188,284.102,288.8828,291.683" svgx:width="0.61,0.58,0.48,0.55,0.5,0.29,0.88,0.55,0.55,0.33,0.55,0.33,0.58,0.48,0.55,0.42,0.33,0.6,0.61,0.56,0.55,0.83,0.5,0.42,0.55,0.33,0.55,0.55,0.61,0.48,0.33,0.48,0.4,0.88,0.29,0.58,0.48,0.55,0.33,0.58,0.48,0.55,0.48" style="fill:rgb(0,0,0);font-family:URWPalladioL-Roma;font-size:9.96px;stroke:none;">The aim of the study was to determine the e</text>
   <text y="607.37" x="296.549" svgx:width="0.61" style="fill:rgb(0,0,0);font-family:Rpxr;font-size:9.96px;stroke:none;">ﬀ</text>
   <text y="607.37" x="302.727,307.595,312.106,315.3928,318.132,323.681,326.9678,329.778,335.987" svgx:width="0.48,0.44,0.33,0.55,0.55,0.33,0.55,0.61,0.29" style="fill:rgb(0,0,0);font-family:URWPalladioL-Roma;font-size:9.96px;stroke:none;">ect of di</text>
   <text y="607.37" x="338.946" svgx:width="0.61" style="fill:rgb(0,0,0);font-family:Rpxr;font-size:9.96px;stroke:none;">ﬀ</text>
   <text y="607.37" x="345.124,349.992,353.823,358.69,364.604,367.8908,370.63,376.544,381.412,386.493,389.7798,392.529,395.842,399.673,404.54,409.621,412.934,421.907,426.774,432.689,436.001,440.1842,443.023,448.572,454.3488,457.199,460.512,466.426,471.2068,474.007,477.391,482.939,486.953,495.926,501.007,504.32,507.277,512.825" svgx:width="0.48,0.4,0.48,0.58,0.33,0.55,0.58,0.48,0.5,0.33,0.55,0.33,0.4,0.48,0.5,0.33,0.88,0.48,0.58,0.33,0.42,0.55,0.55,0.58,0.55,0.33,0.58,0.48,0.55,0.33,0.55,0.4,0.88,0.5,0.33,0.29,0.55,0.58" style="fill:rgb(0,0,0);font-family:URWPalladioL-Roma;font-size:9.96px;stroke:none;">erent heat treatments on the formation</text>
   <text y="620.879" x="76.535,81.616,87.53,93.6056,97.621,101.929,105.242,110.323,115.943,118.9,121.857,124.814,128.127,133.7046,137.659,143.207,146.4938,150.473,154.314,159.181,162.494,167.575,170.532,176.446,181.314,187.3896,191.405,196.486,202.613,206.922,210.234,215.102,221.016,223.973,227.286,232.0668,236.035,238.992,244.7688,248.789,252.101,258.015,262.7958,266.765,271.073,274.386,279.254,284.121,287.00939999999997,290.96,295.472,301.02,306.935,310.247,315.328,318.285,324.2,327.157,333.071,338.64860000000004,342.603,347.684,356.0504,360.101,369.715,375.49179999999996,379.511,384.591,390.506,396.5816,400.596,403.909,409.823,414.6038,418.573,421.53,427.444,431.956,435.797,440.665,445.745,450.054,454.922,460.99760000000003,465.012,472.918,475.8064,479.757,484.838,491.047,497.256,500.213,503.526,506.483,512.031,517.945" svgx:width="0.5,0.58,0.61,0.55,0.42,0.33,0.5,0.55,0.29,0.29,0.29,0.33,0.56,0.55,0.55,0.33,0.55,0.4,0.48,0.33,0.5,0.29,0.58,0.48,0.61,0.55,0.5,0.6,0.42,0.33,0.48,0.58,0.29,0.33,0.48,0.55,0.29,0.58,0.55,0.33,0.58,0.48,0.55,0.42,0.33,0.48,0.48,0.29,0.55,0.44,0.55,0.58,0.33,0.5,0.29,0.58,0.29,0.58,0.56,0.55,0.5,0.84,0.55,0.95,0.58,0.55,0.5,0.58,0.61,0.55,0.33,0.58,0.48,0.55,0.29,0.58,0.44,0.4,0.48,0.5,0.42,0.48,0.61,0.55,0.78,0.29,0.55,0.5,0.61,0.61,0.29,0.33,0.29,0.55,0.58,0.25" style="fill:rgb(0,0,0);font-family:URWPalladioL-Roma;font-size:9.96px;stroke:none;">and stability of retained austenite in the steel containing 5% Mn and the increased Al addition.</text>
   <text y="634.388" x="76.535,79.96,85.73679999999999,88.953,94.501,98.332,104.541,109.409,113.393,116.502,119.814,125.29199999999999,128.432,137.405,140.362,146.276,149.233,158.206,161.163,166.244,171.0248,174.19,177.503,183.417,188.1978,191.354,197.268,203.396,212.368,217.988,222.855,226.839,229.948,235.497,238.7838,241.96,245.273,250.14,254.449,257.761,261.9442,265.139,270.22,276.134,282.2096,285.422,290.503,293.46,297.769,303.247,306.386,311.467,317.208,322.757,325.714,331.7896,335.002,339.982,343.162,346.474,350.488,353.445,358.526,361.483,364.867,369.735,373.749,377.58,383.128,387.11199999999997,390.221,395.302,401.399,407.507,411.348,416.896,421.977,426.489,432.403,434.89300000000003,438.165,441.122,446.8988,450.105,453.418,459.332,464.1128,467.279,473.426,477.44,481.749,485.03580000000005,488.141,492.449,495.762,500.63,506.606,509.806,515.354" svgx:width="0.34,0.58,0.55,0.55,0.4,0.61,0.48,0.4,0.55,0.33,0.55,0.55,0.88,0.29,0.58,0.29,0.88,0.29,0.5,0.48,0.55,0.33,0.58,0.48,0.55,0.58,0.6,0.88,0.55,0.48,0.4,0.55,0.55,0.33,0.55,0.33,0.48,0.42,0.33,0.42,0.55,0.5,0.58,0.61,0.55,0.5,0.29,0.42,0.55,0.55,0.5,0.56,0.55,0.29,0.61,0.55,0.5,0.55,0.33,0.4,0.29,0.5,0.29,0.33,0.48,0.4,0.4,0.55,0.4,0.55,0.5,0.6,0.6,0.4,0.55,0.5,0.44,0.58,0.25,0.55,0.29,0.58,0.55,0.33,0.58,0.48,0.55,0.61,0.4,0.42,0.33,0.55,0.42,0.33,0.48,0.6,0.55,0.55,0.33" style="fill:rgb(0,0,0);font-family:URWPalladioL-Roma;font-size:9.96px;stroke:none;">In order to minimize the number of tests and also avoid a trial-error approach, in the ﬁrst step of</text>
   <text y="647.898" x="76.535,79.848,85.762,90.5428,93.272,97.103,101.97,106.279,111.146,116.227,120.068,124.58,130.494,132.984,135.718,139.03,144.945,149.812,155.36,159.191,164.059,167.372,170.329,174.841,179.922,182.8104,185.521,190.033,195.114,198.071,202.583,208.71,211.667,216.748,220.061,223.018,228.566,234.481,238.6642,241.431,247.051,252.132,256.44,261.308,267.3836,270.159,275.707,281.4838,284.264,287.576,293.49,298.2708,301.0,306.081,311.701,317.249,322.99,327.7708,330.5,335.012,340.926,345.794,354.766,357.724,362.235,367.316,370.20439999999996,372.916,377.427,382.976,391.949,398.056,403.604,407.913,410.87,414.183,417.14,422.688,428.46479999999997,431.245,439.72,444.587,448.418,453.1988,455.928,460.44,465.521,469.534,473.548,476.505,481.373,487.4486,490.224,495.772,501.9,505.1868,507.855,513.474" svgx:width="0.33,0.58,0.48,0.55,0.4,0.48,0.42,0.48,0.5,0.4,0.44,0.58,0.25,0.55,0.33,0.58,0.48,0.55,0.4,0.48,0.33,0.29,0.44,0.5,0.29,0.55,0.44,0.5,0.29,0.44,0.6,0.29,0.5,0.33,0.29,0.55,0.58,0.42,0.55,0.55,0.5,0.42,0.48,0.61,0.55,0.55,0.58,0.55,0.33,0.58,0.48,0.55,0.5,0.55,0.55,0.56,0.48,0.55,0.44,0.58,0.48,0.88,0.29,0.44,0.5,0.29,0.55,0.44,0.55,0.88,0.6,0.55,0.42,0.29,0.33,0.29,0.55,0.58,0.55,0.83,0.48,0.4,0.48,0.55,0.44,0.5,0.4,0.4,0.29,0.48,0.61,0.55,0.55,0.6,0.33,0.55,0.55,0.56" style="fill:rgb(0,0,0);font-family:URWPalladioL-Roma;font-size:9.96px;stroke:none;">the research, theoretical calculations based on the above chemical composition were carried out by</text>
   <text y="661.407" x="76.535,79.848,85.762,90.5428,93.322,96.706,106.319,111.4,114.713,120.851,124.682,130.16,132.923,136.307,142.516,147.597,150.91,155.991,161.61,166.691,171.0,175.7808,178.55,184.291,189.159,192.441,194.931,199.056,204.137,209.218,211.759,216.84,220.1268,222.917,228.566,233.434,239.348,244.216,248.23,253.311,256.1994,258.961,263.269,266.582,271.45,276.317,279.2054,281.957,290.93,296.478,302.687,308.815,311.772,316.5528,319.332" svgx:width="0.33,0.58,0.48,0.55,0.33,0.95,0.5,0.33,0.6,0.4,0.55,0.55,0.33,0.61,0.5,0.33,0.5,0.55,0.5,0.42,0.48,0.55,0.56,0.48,0.4,0.25,0.55,0.5,0.5,0.25,0.5,0.33,0.55,0.56,0.48,0.58,0.48,0.4,0.5,0.29,0.55,0.42,0.33,0.48,0.48,0.29,0.55,0.88,0.55,0.61,0.6,0.29,0.48,0.55,0.33" style="fill:rgb(0,0,0);font-family:URWPalladioL-Roma;font-size:9.96px;stroke:none;">the JMatPro (database ver. 11.2) general steel module [</text>
   <text y="661.407" x="322.716,327.697" svgx:width="0.5,0.5" style="fill:rgb(8,117,183);font-family:URWPalladioL-Roma;font-size:9.96px;stroke:none;">14</text>
   <text y="661.407" x="332.678,336.062,338.552,342.687,348.917,354.831,359.6118,362.381,371.994,379.9,387.105,394.6746,397.551,400.935,407.144,412.225,415.538,420.619,426.238,431.319,435.628,440.4088,443.188,448.93,453.797,457.069,459.559,463.695,468.776,473.857,477.14380000000006,479.933,484.242,489.79,493.174,496.487,504.962,510.043,513.874" svgx:width="0.33,0.25,0.55,0.61,0.58,0.48,0.55,0.95,0.78,0.71,0.76,0.55,0.33,0.61,0.5,0.33,0.5,0.55,0.5,0.42,0.48,0.55,0.56,0.48,0.4,0.25,0.55,0.5,0.5,0.33,0.55,0.42,0.55,0.33,0.33,0.83,0.5,0.4,0.48" style="fill:rgb(0,0,0);font-family:URWPalladioL-Roma;font-size:9.96px;stroke:none;">]. The MUCG (database ver. 83) software</text>
   <text y="674.917" x="76.117,84.417,89.394,93.5772,96.112,101.088,107.07,113.051,115.947,118.844,123.611,129.6866,132.19,135.435,140.913,143.367,147.786,152.762,155.658,160.077,166.079,168.975,173.951,177.196,181.9768,184.461,187.706,193.498,198.2788,200.764" svgx:width="0.83,0.5,0.42,0.55,0.5,0.6,0.6,0.29,0.29,0.48,0.61,0.55,0.33,0.55,0.55,0.44,0.5,0.29,0.44,0.6,0.29,0.5,0.33,0.48,0.55,0.33,0.58,0.48,0.55,0.48" style="fill:rgb(0,0,0);font-family:URWPalladioL-Roma;font-size:9.96px;stroke:none;">was applied to calculate the e</text>
   <text y="674.917" x="205.528" svgx:width="0.61" style="fill:rgb(0,0,0);font-family:Rpxr;font-size:9.96px;stroke:none;">ﬀ</text>
   <text y="674.917" x="211.579,216.346,220.765,224.01,228.1932,230.728,236.162,239.4488,241.974,250.763,255.739,261.531,267.065,272.041,277.834,282.601,286.821,291.6018,294.086,299.063,304.855,310.9306,313.434,318.411,321.307,327.308,336.096,338.993,344.785,350.786,362.073,367.507,373.2838,375.797,379.042,384.834,389.6148,392.1,399.694,402.59,408.094,413.597,417.7802,420.315,423.62,427.372,432.139,436.9198,439.405,444.172,449.964,454.732,458.484,464.018,469.5956,472.049,476.468,482.261,487.237,493.029,498.563,503.33,507.5132,510.048,512.945" svgx:width="0.48,0.44,0.33,0.42,0.55,0.55,0.33,0.55,0.88,0.5,0.58,0.56,0.5,0.58,0.48,0.42,0.48,0.55,0.5,0.58,0.61,0.55,0.5,0.29,0.6,0.88,0.29,0.58,0.6,0.88,0.55,0.58,0.55,0.33,0.58,0.48,0.55,0.76,0.29,0.55,0.55,0.42,0.55,0.33,0.4,0.48,0.48,0.55,0.48,0.58,0.48,0.4,0.56,0.56,0.55,0.44,0.58,0.5,0.58,0.56,0.48,0.42,0.55,0.29,0.58" style="fill:rgb(0,0,0);font-family:URWPalladioL-Roma;font-size:9.96px;stroke:none;">ects of manganese and aluminumon the Gibbs free energy changes in</text>
   <text y="688.426" x="76.535,79.848,85.762,90.5428,93.231,97.743,102.824,107.132,111.9128,114.611,120.16,123.4468,126.145,129.458,135.372,140.1528,142.851,147.932,153.846,158.927,161.884,167.534,172.615,177.483,183.5586,186.293,190.602,193.915,198.782,203.65,206.5384,209.208" svgx:width="0.33,0.58,0.48,0.55,0.44,0.5,0.42,0.48,0.55,0.55,0.33,0.55,0.33,0.58,0.48,0.55,0.5,0.58,0.5,0.29,0.56,0.5,0.48,0.61,0.55,0.42,0.33,0.48,0.48,0.29,0.55,0.33" style="fill:rgb(0,0,0);font-family:URWPalladioL-Roma;font-size:9.96px;stroke:none;">the case of the analyzed steel [</text>
   <text y="688.426" x="212.597,217.578" svgx:width="0.5,0.5" style="fill:rgb(8,117,183);font-family:URWPalladioL-Roma;font-size:9.96px;stroke:none;">15</text>
   <text y="688.426" x="222.559,225.943,228.43300000000002,232.314,238.544,244.458,249.2388,251.937,256.449,261.53,264.487,268.999,275.126,278.083,283.164,286.477,289.424,294.972,300.887,305.0702,307.807,310.764,316.5408,319.28,324.147,329.838,335.965,338.922,341.879,344.837,350.456,354.47,357.427,363.555,372.3198,375.139,380.22,386.134,392.2096,394.945,400.859,406.407,412.321,415.705,420.573,426.263,432.391,435.348,438.305,441.262,446.882,450.896,453.853,459.98,468.7448,471.555,476.067,481.615,487.529,493.738,496.695,500.008,502.965,508.513,514.428" svgx:width="0.33,0.25,0.55,0.61,0.58,0.48,0.55,0.44,0.5,0.29,0.44,0.6,0.29,0.5,0.33,0.29,0.55,0.58,0.42,0.55,0.29,0.58,0.55,0.48,0.56,0.6,0.29,0.29,0.29,0.55,0.4,0.29,0.6,0.88,0.55,0.5,0.58,0.61,0.55,0.58,0.55,0.58,0.33,0.48,0.56,0.6,0.29,0.29,0.29,0.55,0.4,0.29,0.6,0.88,0.55,0.44,0.55,0.58,0.61,0.29,0.33,0.29,0.55,0.58,0.42" style="fill:rgb(0,0,0);font-family:URWPalladioL-Roma;font-size:9.96px;stroke:none;">]. The calculations in equilibrium and non-equilibrium conditions</text>
   <text y="701.935" x="76.117,84.592,89.46,93.291,98.0718,100.78,109.753,114.834,121.043,125.8238,128.532,131.845,137.323,140.005,146.213,151.081,154.394,159.261,163.275,172.248,175.205,181.119,185.8998,188.609,193.69,199.797,205.904,209.735,215.284,221.391,225.405,228.362,233.443,236.756,241.5368,244.245,250.159,255.027,260.107,263.39380000000006,266.032,269.345,273.186,278.053,283.134,286.447,295.42,300.287,306.202,309.4888,312.126,316.435,320.947,326.861,331.728,337.937,344.065,347.022,351.889,356.0722,358.82,362.204,367.752,371.736,374.378,377.69,383.604,388.3848,391.094,396.175,402.089,407.17,410.127,415.777,420.858,425.725,431.80060000000003,434.546,438.854,442.167,447.035,451.902,454.859,457.349,461.272,467.48,472.561,476.87,481.738,487.8136,490.568,496.117,501.8938,504.642,507.955,513.869" svgx:width="0.83,0.48,0.4,0.48,0.55,0.88,0.5,0.61,0.48,0.55,0.33,0.55,0.55,0.61,0.48,0.33,0.48,0.4,0.88,0.29,0.58,0.48,0.55,0.5,0.6,0.6,0.4,0.55,0.6,0.4,0.29,0.5,0.33,0.48,0.55,0.58,0.48,0.5,0.33,0.55,0.33,0.4,0.48,0.5,0.33,0.88,0.48,0.58,0.33,0.55,0.42,0.44,0.58,0.48,0.61,0.6,0.29,0.48,0.42,0.55,0.33,0.55,0.4,0.55,0.33,0.58,0.48,0.55,0.5,0.58,0.5,0.29,0.56,0.5,0.48,0.61,0.55,0.42,0.33,0.48,0.48,0.29,0.25,0.55,0.61,0.5,0.42,0.48,0.61,0.55,0.55,0.58,0.55,0.33,0.58,0.48" style="fill:rgb(0,0,0);font-family:URWPalladioL-Roma;font-size:9.96px;stroke:none;">were made to determine appropriate heat treatment schedules for the analyzed steel. Based on the</text>
   <text y="715.445" x="76.535,80.985,85.996,88.913,93.363,99.406,102.323,107.334,110.601,113.518,118.99,124.823,129.072,131.562,134.083,137.351,143.184,147.9648,150.49,156.514,161.525,165.484,170.495,179.345,184.145,187.413,192.213,196.172,200.3552,202.927,206.265,211.737,215.721,218.191,221.459,227.292,232.0728,234.598,237.865,243.698,247.477,252.277,257.0578,259.584,265.707" svgx:width="0.44,0.5,0.29,0.44,0.6,0.29,0.5,0.33,0.29,0.55,0.58,0.42,0.25,0.55,0.33,0.58,0.48,0.55,0.6,0.5,0.4,0.5,0.88,0.48,0.33,0.48,0.4,0.42,0.55,0.33,0.55,0.4,0.55,0.33,0.58,0.48,0.55,0.33,0.58,0.4,0.48,0.48,0.55,0.61,0.29" style="fill:rgb(0,0,0);font-family:URWPalladioL-Roma;font-size:9.96px;stroke:none;">calculations, the parameters for the three di</text>
   <text y="715.445" x="268.624" svgx:width="0.61" style="fill:rgb(0,0,0);font-family:Rpxr;font-size:9.96px;stroke:none;">ﬀ</text>
   <text y="715.445" x="274.718,279.519,283.297,288.098,293.931,297.2178,299.704,302.971,306.75,311.55,316.561,319.829,328.678,333.479,339.312,342.58,346.7632,349.335,357.693,362.494,366.272,371.0528,373.579,377.828,382.629,385.545,390.346,394.796,398.063,402.864,408.988,411.478,415.011,421.155,426.988,431.7688,434.294,437.211,441.46,446.932,450.2,456.033,460.833,464.792,473.642,478.653,481.5414,484.075,489.908,495.381,498.297,504.421,507.337,513.17" svgx:width="0.48,0.4,0.48,0.58,0.33,0.55,0.33,0.4,0.48,0.5,0.33,0.88,0.48,0.58,0.33,0.42,0.55,0.83,0.48,0.4,0.48,0.55,0.42,0.48,0.29,0.48,0.44,0.33,0.48,0.61,0.25,0.55,0.61,0.58,0.48,0.55,0.29,0.42,0.55,0.33,0.58,0.48,0.4,0.88,0.5,0.29,0.55,0.58,0.55,0.29,0.61,0.29,0.58,0.56" style="fill:rgb(0,0,0);font-family:URWPalladioL-Roma;font-size:9.96px;stroke:none;">erent treatments were selected. The isothermal holding</text>
   <text y="728.954" x="76.535,79.492,85.2688,87.998,92.97800000000001,95.66,101.279,106.36,109.317,115.231,118.188,121.501,126.2818,128.96,132.791,137.659,143.309,146.266,151.814,157.5908,160.319,165.4,171.315,177.3906,180.115,183.428,189.342,194.1228,196.79,201.302,206.851,209.808,212.765,215.722,221.636,227.21359999999999,229.877,234.186,237.143,246.116,252.244,255.201,260.282,263.594,266.551,272.1,277.8768,280.595,284.436,289.985,296.112,299.425,304.293,308.4762,311.182,315.023,319.891,326.069,330.937,335.449,338.762,343.629,349.7046,352.419,356.728,360.04,364.908,369.776,372.6644,375.324,379.836,385.384,390.933,393.89,396.847,402.761,408.33860000000004,411.002,414.386,418.217,423.765,432.52979999999997,435.33,438.642,444.557,449.3378,452.005,457.086,463.214,467.522,470.835,475.703,481.617,484.574,487.887,490.844,495.925,501.006,504.319,507.276,512.824" svgx:width="0.29,0.58,0.55,0.5,0.55,0.55,0.5,0.29,0.58,0.29,0.33,0.48,0.55,0.4,0.48,0.56,0.29,0.55,0.58,0.55,0.5,0.58,0.61,0.55,0.33,0.58,0.48,0.55,0.44,0.55,0.29,0.29,0.29,0.58,0.56,0.55,0.42,0.29,0.88,0.6,0.29,0.5,0.33,0.29,0.55,0.58,0.55,0.4,0.55,0.6,0.33,0.48,0.42,0.55,0.4,0.48,0.61,0.48,0.44,0.33,0.48,0.61,0.55,0.42,0.33,0.48,0.48,0.29,0.55,0.44,0.55,0.55,0.29,0.29,0.58,0.56,0.55,0.33,0.4,0.55,0.88,0.55,0.33,0.58,0.48,0.55,0.5,0.6,0.42,0.33,0.48,0.58,0.29,0.33,0.29,0.5,0.5,0.33,0.29,0.55,0.58" style="fill:rgb(0,0,0);font-family:URWPalladioL-Roma;font-size:9.96px;stroke:none;">in a bainite region and the coiling simulation routes reﬂected steel cooling from the austenitization</text>
   <text y="742.464" x="76.535,80.844,84.156,89.024,95.131,97.621,100.934,109.409,115.323,120.19,124.032,128.899,133.98,138.1632,141.398,144.711,150.625,155.4058,158.602,161.915,167.829,170.786,174.617,180.6926,183.936,189.484,195.398,200.266,202.756,206.068,209.025,214.939,218.252,223.12,226.961,231.473,235.487,238.444,241.757,244.714,249.225,254.306,257.19440000000003,260.373,265.454,271.368,277.282,282.15,287.231,290.188,293.145,299.059,304.709,307.199,310.512,315.023,320.572,324.586,328.417,333.284,337.593,343.7,349.249,355.163,361.372,366.239,372.3146,375.558,378.87,384.348,387.528,390.841,396.755,401.5358,404.732,413.705,416.662,421.174,425.015,430.564,434.872,438.185,442.118,448.245,452.757,456.07,462.198,466.029,470.8098,474.006,477.389,482.938,486.952,495.925,501.006,504.318,507.275,512.824" svgx:width="0.42,0.33,0.48,0.6,0.25,0.55,0.83,0.58,0.48,0.4,0.48,0.5,0.42,0.55,0.33,0.58,0.48,0.55,0.33,0.58,0.29,0.4,0.61,0.55,0.55,0.58,0.48,0.25,0.55,0.29,0.58,0.33,0.48,0.4,0.44,0.4,0.29,0.33,0.29,0.44,0.5,0.29,0.55,0.5,0.58,0.58,0.48,0.5,0.29,0.29,0.58,0.56,0.25,0.55,0.44,0.55,0.4,0.4,0.48,0.42,0.6,0.55,0.58,0.61,0.48,0.61,0.55,0.33,0.55,0.55,0.33,0.58,0.48,0.55,0.88,0.29,0.44,0.4,0.55,0.42,0.33,0.4,0.6,0.44,0.33,0.6,0.4,0.48,0.55,0.33,0.55,0.4,0.88,0.5,0.33,0.29,0.55,0.58" style="fill:rgb(0,0,0);font-family:URWPalladioL-Roma;font-size:9.96px;stroke:none;">step, whereas the third one, intercritical annealing, corresponded to the microstructure formation</text>
   <text y="755.973" x="76.535,82.428,88.302,93.638,99.4148,101.809,107.497,112.178,117.065,120.251,123.095,128.783,134.36059999999998,136.699,139.954,143.629,148.965,160.077,163.762,169.098,174.434,185.547,188.733,193.414,202.044,207.918,212.599,216.459,221.346,224.532,230.426,234.1,238.8808,241.264,244.519,248.663,253.344,258.1248,260.508,265.942,268.786,274.22,280.113,283.798" svgx:width="0.6,0.6,0.55,0.58,0.55,0.58,0.48,0.5,0.33,0.29,0.58,0.56,0.55,0.33,0.4,0.55,0.88,0.4,0.55,0.55,0.88,0.33,0.48,0.88,0.6,0.48,0.4,0.5,0.33,0.6,0.4,0.48,0.55,0.33,0.42,0.48,0.48,0.55,0.56,0.29,0.56,0.6,0.4,0.48" style="fill:rgb(0,0,0);font-family:URWPalladioL-Roma;font-size:9.96px;stroke:none;">upon heating fromroomtemperature (see Figure</text>
   <text y="755.973" x="290.952" svgx:width="0.5" style="fill:rgb(8,117,183);font-family:URWPalladioL-Roma;font-size:9.96px;stroke:none;">1</text>
   <text y="755.973" x="298.321,301.575,306.911,310.895,313.254,318.23400000000004,320.623,326.057,330.739,336.427,341.108,344.969,349.855,352.7434,355.182,359.326,363.665,369.353,374.035,382.664,387.4448,389.828,395.165,398.45180000000005,400.892,404.078,409.766,414.5468,416.93,422.901,427.583,431.727,436.066,439.926,442.77,448.175,452.856,458.9316,461.31,464.995,470.331,476.224,479.411,484.092,488.236,491.49,493.98,497.413,505.535,510.871,514.057" svgx:width="0.33,0.55,0.4,0.55,0.5,0.55,0.56,0.48,0.58,0.48,0.4,0.5,0.29,0.55,0.42,0.44,0.58,0.48,0.88,0.48,0.55,0.55,0.33,0.55,0.33,0.58,0.48,0.55,0.61,0.48,0.42,0.44,0.4,0.29,0.55,0.48,0.61,0.55,0.4,0.55,0.6,0.33,0.48,0.42,0.33,0.25,0.55,0.83,0.55,0.33,0.48" style="fill:rgb(0,0,0);font-family:URWPalladioL-Roma;font-size:9.96px;stroke:none;">for a general scheme of the described routes). Note</text>
   <text y="769.482" x="76.535,79.848,85.762,90.843,94.1298,96.96,100.273,106.187,110.9678,113.859,117.172,121.013,125.881,130.962,134.275,143.248,148.115,154.029,157.3158,160.147,166.254,171.335,175.349,180.43,189.403,194.27,197.583,202.451,206.464,210.6472,213.578,217.886,223.801,229.349,237.824,243.60080000000002,246.543,249.5,255.2768,258.229,263.879,266.836,272.486,278.614,282.445" svgx:width="0.33,0.58,0.5,0.33,0.55,0.33,0.58,0.48,0.55,0.33,0.4,0.48,0.5,0.33,0.88,0.48,0.58,0.33,0.55,0.6,0.5,0.4,0.5,0.88,0.48,0.33,0.48,0.4,0.42,0.55,0.42,0.58,0.55,0.83,0.58,0.55,0.29,0.58,0.55,0.56,0.29,0.56,0.6,0.4,0.48" style="fill:rgb(0,0,0);font-family:URWPalladioL-Roma;font-size:9.96px;stroke:none;">that the treatment parameters shown in Figure</text>
   <text y="769.482" x="290.117" svgx:width="0.5" style="fill:rgb(8,117,183);font-family:URWPalladioL-Roma;font-size:9.96px;stroke:none;">1</text>
   <text y="769.482" x="298.013,303.093,306.924,311.7048,314.597,317.909,323.824,328.6048,331.496,335.337,340.204,344.513,350.641,353.598,356.88480000000004,359.715,365.264,368.55080000000004,371.452,374.765,380.679,385.547,391.095,394.936,399.804,403.116,406.074,410.575,415.656,418.5444,421.428,425.94,431.021,433.978,438.49,444.617,447.575,452.656,455.968,458.925,464.474,470.388,474.697,477.187,480.123,485.204,489.3872,492.317,495.274,498.56080000000003,501.392,509.867,512.824,515.781" svgx:width="0.5,0.4,0.48,0.55,0.33,0.58,0.48,0.55,0.4,0.48,0.42,0.6,0.29,0.33,0.55,0.55,0.33,0.55,0.33,0.58,0.48,0.55,0.4,0.48,0.33,0.29,0.44,0.5,0.29,0.55,0.44,0.5,0.29,0.44,0.6,0.29,0.5,0.33,0.29,0.55,0.58,0.42,0.25,0.55,0.5,0.42,0.55,0.29,0.33,0.55,0.83,0.29,0.29,0.29" style="fill:rgb(0,0,0);font-family:URWPalladioL-Roma;font-size:9.96px;stroke:none;">are the result of theoretical calculations, as it will</text>
  </g>
 </g>
</svg>
