<?xml version="1.0" encoding="UTF-8"?>
<svg height="765.413" width="2660.178" xmlns="http://www.w3.org/2000/svg">
 <g id="page" xmlns:svgx="http://www.xml-cml.org/schema/svgx">
  <g begin="text">
   <text y="62.979" x="76.535,84.059,87.598,90.252,93.352,96.452,98.668,102.207,104.422" svgx:width="0.94,0.44,0.33,0.39,0.39,0.28,0.44,0.28,0.39" style="fill:rgb(0,0,0);font-family:URWPalladioL-Ital;font-size:7.97px;stroke:none;">Materials</text>
   <text y="62.979" x="109.515,113.5,117.485,121.47" svgx:width="0.5,0.5,0.5,0.5" style="fill:rgb(0,0,0);font-family:URWPalladioL-Bold;font-size:7.97px;stroke:none;">2020</text>
   <text y="62.979" x="125.455" svgx:width="0.25" style="fill:rgb(0,0,0);font-family:URWPalladioL-Roma;font-size:7.97px;stroke:none;">,</text>
   <text y="62.979" x="129.44,133.425" svgx:width="0.5,0.5" style="fill:rgb(0,0,0);font-family:URWPalladioL-Ital;font-size:7.97px;stroke:none;">13</text>
   <text y="62.979" x="137.41,139.4025,141.395,145.38,149.365,153.35000000000002,491.809,495.794,499.779,501.772,506.123,508.7531,510.77,514.755" svgx:width="0.25,0.55,0.5,0.5,0.5,0.55,0.5,0.5,0.55,0.55,0.33,0.55,0.5,0.5" style="fill:rgb(0,0,0);font-family:URWPalladioL-Roma;font-size:7.97px;stroke:none;">, 958 13 of 15</text>
  </g>
  <g begin="text">
   <text y="-464.214" x="78.582,86.14,89.733,92.371,95.498,98.626,100.885,104.366,106.642,109.769" svgx:width="0.94,0.44,0.33,0.39,0.39,0.28,0.44,0.28,0.39,0.25" style="fill:rgb(0,0,0);font-family:PalatinoLinotype-Italic;font-size:8.04px;stroke:none;">Materials </text>
  </g>
  <g begin="text">
   <text y="-464.214" x="111.698,115.778" svgx:width="0.5,0.5" style="fill:rgb(0,0,0);font-family:PalatinoLinotype-Bold;font-size:8.04px;stroke:none;">20</text>
  </g>
  <g begin="text">
   <text y="-464.214" x="119.738,123.698" svgx:width="0.5,0.5" style="fill:rgb(0,0,0);font-family:PalatinoLinotype-Bold;font-size:8.04px;stroke:none;">20</text>
  </g>
  <g begin="text">
   <text y="-464.214" x="127.778,129.818" svgx:width="0.25,0.25" style="fill:rgb(0,0,0);font-family:PalatinoLinotype-Roman;font-size:8.04px;stroke:none;">, </text>
  </g>
  <g begin="text">
   <text y="-464.214" x="131.738" svgx:width="0.5" style="fill:rgb(0,0,0);font-family:PalatinoLinotype-Italic;font-size:8.04px;stroke:none;">1</text>
  </g>
  <g begin="text">
   <text y="-464.214" x="135.698" svgx:width="0.5" style="fill:rgb(0,0,0);font-family:PalatinoLinotype-Italic;font-size:8.04px;stroke:none;">3</text>
  </g>
  <g begin="text">
   <text y="-464.214" x="139.778,141.812,143.734,147.923,149.957,154.274,160.626" svgx:width="0.25,0.25,0.52,0.25,0.56,0.79,0.67" style="fill:rgb(0,0,0);font-family:PalatinoLinotype-Roman;font-size:8.04px;stroke:none;">, x FOR</text>
  </g>
  <g begin="text">
   <text y="-464.214" x="165.938" svgx:width="0.25" style="fill:rgb(0,0,0);font-family:PalatinoLinotype-Roman;font-size:8.04px;stroke:none;"> </text>
  </g>
  <g begin="text">
   <text y="-464.214" x="167.978,172.778,177.69,182.603,187.901,189.935,195.33,200.13,205.887,208.636,213.549" svgx:width="0.6,0.61,0.61,0.67,0.25,0.67,0.61,0.72,0.34,0.61,1.0" style="fill:rgb(0,0,0);font-family:PalatinoLinotype-Roman;font-size:8.04px;stroke:none;">PEER REVIEW</text>
  </g>
  <g begin="text">
   <text y="-464.214" x="221.528" svgx:width="0.25" style="fill:rgb(0,0,0);font-family:PalatinoLinotype-Roman;font-size:8.04px;stroke:none;"> </text>
  </g>
  <g begin="text">
   <text y="-464.214" x="490.738,494.818" svgx:width="0.5,0.5" style="fill:rgb(0,0,0);font-family:PalatinoLinotype-Roman;font-size:8.04px;stroke:none;">12</text>
  </g>
  <g begin="text">
   <text y="-464.214" x="498.778" svgx:width="0.25" style="fill:rgb(0,0,0);font-family:PalatinoLinotype-Roman;font-size:8.04px;stroke:none;"> </text>
  </g>
  <g begin="text">
   <text y="-464.214" x="502.378,506.695,509.333" svgx:width="0.55,0.33,0.25" style="fill:rgb(0,0,0);font-family:PalatinoLinotype-Roman;font-size:8.04px;stroke:none;">of </text>
  </g>
  <g begin="text">
   <text y="-464.214" x="512.938,516.898" svgx:width="0.5,0.5" style="fill:rgb(0,0,0);font-family:PalatinoLinotype-Roman;font-size:8.04px;stroke:none;">14</text>
  </g>
  <g begin="text">
   <text y="-464.214" x="520.858" svgx:width="0.25" style="fill:rgb(0,0,0);font-family:PalatinoLinotype-Roman;font-size:8.04px;stroke:none;"> </text>
  </g>
  <g begin="text">
   <text y="273.906" x="78.582" svgx:width="0.25" style="fill:rgb(0,0,0);font-family:TimesNewRomanPSMT;font-size:9.0px;stroke:none;"> </text>
  </g>
  <g begin="text">
   <text y="-439.354" x="78.582,83.353,89.15,93.084,96.092,100.514,106.311,115.056,119.826,125.623,128.87,131.36,132.446,137.954,141.3,143.79000000000002,144.886,149.806,155.812,160.035,163.242,168.152,173.909,176.897,180.144,184.915,187.405,188.53,191.518,195.742,198.232,199.188,202.176,207.684,215.99,220.761,224.695,227.185,228.191,231.179,236.936,239.42600000000002,240.522,243.769,249.526,254.296,256.786,257.912,261.258,266.657,270.591,279.386,284.156,288.13,290.62,291.716,294.963,300.72,305.64,311.397,313.887,314.983,317.971,323.728,326.218,327.313,330.56,336.317,341.088,343.57800000000003,344.703,347.691,352.612,355.859,360.629,364.603,367.113,369.603,370.699,375.619" svgx:width="0.48,0.58,0.4,0.29,0.44,0.58,0.88,0.48,0.58,0.33,0.25,0.55,0.55,0.33,0.25,0.55,0.5,0.6,0.42,0.33,0.48,0.58,0.29,0.33,0.48,0.25,0.55,0.29,0.42,0.25,0.55,0.29,0.55,0.83,0.48,0.4,0.25,0.55,0.29,0.58,0.25,0.55,0.33,0.58,0.48,0.25,0.55,0.33,0.55,0.4,0.88,0.48,0.4,0.25,0.55,0.33,0.58,0.5,0.58,0.25,0.55,0.29,0.58,0.25,0.55,0.33,0.58,0.48,0.25,0.55,0.29,0.5,0.33,0.48,0.4,0.25,0.25,0.55,0.5,0.58" style="fill:rgb(0,0,0);font-family:PalatinoLinotype-Roman;font-size:9.96px;stroke:none;">enrichment of austenite is lower in the former than in the later, an</text>
  </g>
  <g begin="text">
   <text y="-439.354" x="381.748,387.853,390.343,391.439,395.662,401.15,403.64,404.736,407.724,410.971,413.461,414.437,417.425,421.648,424.13800000000003,425.213,428.46,434.217,438.988,441.478,442.604,447.524,453.53,457.753,460.96,465.731,471.527,474.505,477.752,482.523,485.01300000000003,486.139,489.386,495.143,499.913,504.017,512.782,517.702,520.69" svgx:width="0.61,0.25,0.55,0.42,0.55,0.25,0.55,0.29,0.33,0.25,0.55,0.29,0.42,0.25,0.55,0.33,0.58,0.48,0.25,0.55,0.5,0.6,0.42,0.33,0.48,0.58,0.29,0.33,0.48,0.25,0.55,0.33,0.58,0.48,0.4,0.88,0.5,0.29,0.25" style="fill:rgb(0,0,0);font-family:PalatinoLinotype-Roman;font-size:9.96px;stroke:none;">d so it is the austenite thermal </text>
  </g>
  <g begin="text">
   <text y="-425.914" x="78.582,82.805,86.022,91.052,96.45,99.438,102.426,105.414,108.661,114.199,117.287,120.633,125.663,130.583,133.93,136.44,139.547,147.854,153.591,156.579,161.001,166.798,169.885,174.656,179.726,185.712,188.72,193.64,196.628,202.385,206.608,209.695,212.942,218.699,223.47,226.608,232.713,237.484,240.731,245.542,249.964,253.211,256.209,261.717,267.473,270.581,276.089,279.435,282.543,285.89,289.824,294.644,298.867,304.604,307.712,316.586,321.507,325.441,328.688,333.498,339.365,343.588,346.556,349.803,354.574,357.701,363.807,369.813,373.747,376.755,382.512,388.049,391.137,395.559,401.087,406.485,409.473,412.461,418.218,423.756,426.843,432.351,435.698,438.686,442.909,447.919,456.684,462.67,465.678,470.448,474.671,477.789,481.036,484.97,489.781,494.701,497.948,502.719,508.854,511.962,516.991,520.238" svgx:width="0.42,0.33,0.5,0.55,0.29,0.29,0.29,0.33,0.56,0.25,0.33,0.5,0.5,0.33,0.25,0.25,0.83,0.58,0.29,0.44,0.58,0.25,0.48,0.52,0.6,0.29,0.5,0.29,0.58,0.42,0.25,0.33,0.58,0.48,0.25,0.61,0.48,0.33,0.48,0.44,0.33,0.29,0.55,0.58,0.25,0.55,0.33,0.25,0.33,0.4,0.48,0.42,0.58,0.25,0.88,0.5,0.4,0.33,0.48,0.58,0.42,0.29,0.33,0.48,0.25,0.61,0.6,0.4,0.29,0.58,0.56,0.25,0.44,0.55,0.55,0.29,0.29,0.58,0.56,0.25,0.55,0.33,0.25,0.42,0.5,0.88,0.6,0.29,0.48,0.42,0.25,0.33,0.4,0.48,0.5,0.33,0.48,0.61,0.25,0.5,0.33,0.25" style="fill:rgb(0,0,0);font-family:PalatinoLinotype-Roman;font-size:9.96px;stroke:none;">stability [23], which explains the detection of fresh martensite during cooling of samples treated at </text>
  </g>
  <g begin="text">
   <text y="-412.354" x="78.582,83.612,88.642,93.671,96.54,100.504,107.566,110.454,118.761,124.498,129.268,135.065,137.924,142.346,147.874,153.382,156.37,161.14,167.276,170.144,176.25,181.758,190.064,195.801,198.67,201.917,207.425,210.293,214.227,219.765,225.273,234.038,236.906,240.153,244.924,253.719,259.705,264.495,268.43,273.38,276.627,282.633,286.567,291.367,293.877,296.746,302.981,308.738,311.726,315.949,318.797,321.785,326.008,328.857,333.08,339.086,345.072,351.058,356.566,360.5,363.747,368.557,374.663,377.531,382.452,385.44,389.663,395.151,398.019,403.527,409.065,411.933,418.039,422.959,426.306,431.226,434.094,437.202,442.959,445.827,451.365,454.333,459.871,465.877,469.811,474.602,477.47,482.5,487.53,490.04,492.908,501.215,506.952,509.94,514.362,520.248" svgx:width="0.5,0.5,0.5,0.25,0.54,0.71,0.25,0.83,0.58,0.48,0.58,0.25,0.44,0.55,0.55,0.29,0.48,0.61,0.25,0.61,0.55,0.83,0.58,0.25,0.33,0.55,0.25,0.4,0.55,0.55,0.88,0.25,0.33,0.48,0.88,0.6,0.48,0.4,0.5,0.33,0.6,0.4,0.48,0.25,0.25,0.61,0.58,0.29,0.42,0.25,0.29,0.42,0.25,0.42,0.6,0.6,0.6,0.55,0.4,0.33,0.48,0.61,0.25,0.5,0.29,0.42,0.55,0.25,0.55,0.56,0.25,0.61,0.5,0.33,0.5,0.25,0.29,0.58,0.25,0.56,0.29,0.56,0.6,0.4,0.48,0.25,0.5,0.5,0.25,0.25,0.83,0.58,0.29,0.44,0.58,0.25" style="fill:rgb(0,0,0);font-family:PalatinoLinotype-Roman;font-size:9.96px;stroke:none;">720 °C when cooled down to room temperature. This is supported also by data in Figure 13, which </text>
  </g>
  <g begin="text">
   <text y="-398.914" x="78.582,82.805,88.542,94.05,102.357,106.53,109.02,110.484,113.731,119.488,124.259,126.749,128.113,135.304,137.794,139.139,143.561,149.089,154.846,158.093,162.864,168.76,172.007,174.497,175.831,181.339,184.686,187.17600000000002,188.521,191.767" svgx:width="0.42,0.58,0.55,0.83,0.42,0.25,0.55,0.33,0.58,0.48,0.25,0.55,0.71,0.25,0.55,0.44,0.55,0.58,0.33,0.48,0.58,0.33,0.25,0.55,0.55,0.33,0.25,0.55,0.33,0.58" style="fill:rgb(0,0,0);font-family:PalatinoLinotype-Roman;font-size:9.96px;stroke:none;">shows the C content of th</text>
  </g>
  <g begin="text">
   <text y="-398.914" x="197.768,202.539,205.029,206.393,212.379,218.176,223.186,227.409,232.18,236.403,238.893,240.218,246.203,250.168,255.078,259.301,264.072,269.839,273.185,275.675,277.02,280.008,285.765,288.255,289.599,292.846,298.603,303.374,305.86400000000003,307.358,316.123,319.111,323.533,327.497,333.005,337.228,340.445,344.379,350.385,354.837,358.084,364.09,368.024,372.825,375.315,376.66,381.689,385.912,388.402,389.837,394.757,397.247,398.591,401.938,407.944,413.701,418.253,421.5,424.487,429.995,435.752,438.242,439.587,445.095,448.441,450.931,452.276,455.523,461.28,466.051,468.541,469.905,472.893,478.65,481.897,486.668,490.642,495.064,499.028,502.016,505.263,508.251,512.673,517.613,520.512" svgx:width="0.48,0.25,0.55,0.6,0.58,0.5,0.42,0.48,0.42,0.25,0.55,0.6,0.4,0.48,0.42,0.48,0.58,0.33,0.25,0.55,0.29,0.58,0.25,0.55,0.33,0.58,0.48,0.25,0.55,0.88,0.29,0.44,0.4,0.55,0.42,0.33,0.4,0.6,0.44,0.33,0.6,0.4,0.48,0.25,0.55,0.5,0.42,0.25,0.55,0.5,0.25,0.55,0.33,0.6,0.58,0.44,0.33,0.29,0.55,0.58,0.25,0.55,0.55,0.33,0.25,0.55,0.33,0.58,0.48,0.25,0.55,0.29,0.58,0.33,0.48,0.4,0.44,0.4,0.29,0.33,0.29,0.44,0.5,0.29,0.25" style="fill:rgb(0,0,0);font-family:PalatinoLinotype-Roman;font-size:9.96px;stroke:none;">e phases present in the microstructure as a function of the intercritical </text>
  </g>
  <g begin="text">
   <text y="-385.354" x="78.582,81.829,86.6,95.394,101.38,106.171,110.105,115.056,118.402,124.408,128.342,133.153,137.376,139.866,142.276,148.382,153.153,157.615,162.535,168.64,172.863,177.634,180.045,183.391,188.162,192.146,196.08,198.979,202.225,206.996,209.427,213.361,218.181,220.572,225.343,229.805,233.052,237.245,239.645,244.416,249.486,253.908,258.719,262.942,267.115,269.515,274.067,278.987,283.061,288.459,293.967,299.724,302.124,305.371,310.879,313.28,316.527,322.283,327.054,329.484,334.405,340.51,344.733,347.95,352.721,358.518,361.496,364.743,369.514,372.044,374.444,377.691,383.448,388.219,390.649,396.406,399.394,404.931,410.678,415.449,419.433,421.834,425.18,430.937,435.708,438.248,441.594,446.365,450.349,454.283,457.301,460.548,465.319,467.739,470.976,474.91,479.861,484.283,487.53,490.528,496.036,501.793,504.302,506.703,509.95,515.707,520.477" svgx:width="0.33,0.48,0.88,0.6,0.48,0.4,0.5,0.33,0.6,0.4,0.48,0.42,0.25,0.25,0.61,0.48,0.44,0.5,0.6,0.42,0.48,0.25,0.33,0.48,0.4,0.4,0.29,0.33,0.48,0.25,0.4,0.48,0.23,0.48,0.44,0.33,0.42,0.25,0.48,0.52,0.44,0.48,0.42,0.42,0.25,0.44,0.5,0.4,0.55,0.55,0.58,0.25,0.33,0.55,0.25,0.33,0.58,0.48,0.25,0.5,0.6,0.42,0.33,0.48,0.58,0.29,0.33,0.48,0.25,0.25,0.33,0.58,0.48,0.25,0.58,0.29,0.56,0.58,0.48,0.4,0.25,0.33,0.58,0.48,0.25,0.33,0.48,0.4,0.4,0.29,0.33,0.48,0.25,0.33,0.4,0.5,0.44,0.33,0.29,0.55,0.58,0.25,0.25,0.33,0.58,0.48,0.25" style="fill:rgb(0,0,0);font-family:PalatinoLinotype-Roman;font-size:9.96px;stroke:none;">temperatures. Because ferrite rejects excess carbon to the austenite, the higher the ferrite fraction, the </text>
  </g>
  <g begin="text">
   <text y="-371.914" x="78.582,84.339,87.327,92.865,98.612,103.382,107.366,109.528,112.775,118.532,123.302,125.494,130.045,134.966,139.039,144.438,149.945,155.702,157.864,162.286,167.814,173.571,176.818,181.718,187.475,190.722,192.873,195.861,201.618,203.779,207.026,212.783,217.554,219.865,225.622,230.392,238.699,241.687,247.225,249.366,252.713,258.221,262.155,270.95,275.72,281.846,284.007,288.927,295.033,299.256,302.473,307.244,313.041,316.138,319.385,324.156,326.686,328.847,336.636,341.058,345.51,351.018,354.952,360.978,363.966,369.723,375.261,377.402,380.649,386.157,388.318,391.565,397.322,402.093,404.284" svgx:width="0.58,0.29,0.56,0.58,0.48,0.4,0.25,0.33,0.58,0.48,0.25,0.44,0.5,0.4,0.55,0.55,0.58,0.25,0.44,0.55,0.58,0.33,0.48,0.58,0.33,0.25,0.29,0.58,0.25,0.33,0.58,0.48,0.25,0.58,0.48,0.83,0.29,0.56,0.25,0.33,0.55,0.4,0.88,0.48,0.61,0.25,0.5,0.6,0.42,0.33,0.48,0.58,0.29,0.33,0.48,0.25,0.25,0.78,0.44,0.44,0.55,0.4,0.61,0.29,0.58,0.56,0.25,0.33,0.55,0.25,0.33,0.58,0.48,0.25,0.33" style="fill:rgb(0,0,0);font-family:PalatinoLinotype-Roman;font-size:9.96px;stroke:none;">higher the carbon content in the newly formed austenite. According to the J</text>
  </g>
  <g begin="text">
   <text y="-371.914" x="407.908,417.38,422.3,425.547,431.563,435.607,441.115,443.276,447.698,452.638,455.626,460.049,466.055,469.052,473.973,477.22,480.208,485.716,491.472,495.695,498.185,500.357,504.58,510.586,515.008,520.755" svgx:width="0.95,0.5,0.33,0.6,0.4,0.55,0.25,0.44,0.5,0.29,0.44,0.6,0.29,0.5,0.33,0.29,0.55,0.58,0.42,0.25,0.25,0.42,0.6,0.44,0.58,0.25" style="fill:rgb(0,0,0);font-family:PalatinoLinotype-Roman;font-size:9.96px;stroke:none;">MatPro calculations, such </text>
  </g>
  <g begin="text">
   <text y="-358.354" x="78.582,83.353,89.15,93.084,96.092,100.514,106.311,115.056,119.826,125.623,128.87,131.36,139.667,144.687,148.91,151.29,154.637,158.571,164.109,172.873,175.274,180.303,182.813,187.843,196.23,198.63,201.877,207.385,209.785,214.815,217.325,222.355,227.384,235.661,238.062,246.368,252.105,256.876,262.673,265.063,268.41,274.167,278.937,281.368,284.615,289.385,298.18,304.166,308.957,313.03,317.951,321.297,327.303,331.237,336.048,338.448,346.755,351.755,355.978,358.358,364.464,369.235,373.697,377.631,382.452,387.372,391.595,396.366,402.481,404.882,408.228,412.162,417.7,426.465,428.865,433.895,438.925,443.955,446.355,449.602,455.11,457.51,462.54,467.57,472.6,475.0,478.964,486.026,488.556,490.956,497.062,502.858,507.759,511.006,513.396,516.384,520.468" svgx:width="0.48,0.58,0.4,0.29,0.44,0.58,0.88,0.48,0.58,0.33,0.25,0.83,0.5,0.42,0.25,0.33,0.4,0.55,0.88,0.25,0.5,0.25,0.5,0.84,0.25,0.33,0.55,0.25,0.5,0.25,0.5,0.5,0.84,0.25,0.83,0.58,0.48,0.58,0.25,0.33,0.58,0.48,0.25,0.33,0.48,0.88,0.6,0.48,0.4,0.5,0.33,0.6,0.4,0.48,0.25,0.83,0.5,0.42,0.25,0.61,0.48,0.44,0.4,0.48,0.5,0.42,0.48,0.61,0.25,0.33,0.4,0.55,0.88,0.25,0.5,0.5,0.5,0.25,0.33,0.55,0.25,0.5,0.5,0.5,0.25,0.54,0.71,0.25,0.25,0.61,0.58,0.5,0.33,0.25,0.29,0.42,0.25" style="fill:rgb(0,0,0);font-family:PalatinoLinotype-Roman;font-size:9.96px;stroke:none;">enrichment was from 0.4% to 0.46% when the temperature was decreased from 720 to 700 °C. That is </text>
  </g>
  <g begin="text">
   <text y="-344.914" x="78.582,86.889,92.626,98.163,100.424,106.181,111.689,113.85,122.725,127.645,131.579,134.826,139.637,145.503,149.726,152.694,155.941,160.712,162.893,171.2,176.09,180.403,182.564,188.67,193.441,196.817,201.588,206.05,209.297,214.068,220.203,222.365,228.37,234.356,239.874,245.631,247.792,252.215,257.743,263.25,266.149,269.117,274.874,280.411,282.553,285.541,291.298,293.459,296.706,302.463,307.234,309.425,313.847,318.897,323.12,327.891,330.052,335.56,338.907,341.068,346.098,351.128,356.157,358.319,362.283,369.344,371.526,376.446,382.203,387.96,392.731,397.681,400.669,403.657,409.414,414.951,417.441,419.613,425.718,431.515,436.286,438.576,447.341,452.849,456.783,462.799,468.556,474.064,477.052,482.56,488.098,493.595,495.757,501.265,504.611,506.773,510.02,515.776,520.458" svgx:width="0.83,0.58,0.56,0.25,0.58,0.55,0.25,0.88,0.5,0.4,0.33,0.48,0.58,0.42,0.29,0.33,0.48,0.25,0.83,0.5,0.42,0.25,0.61,0.48,0.33,0.48,0.44,0.33,0.48,0.61,0.25,0.6,0.6,0.55,0.58,0.25,0.44,0.55,0.55,0.29,0.29,0.58,0.56,0.25,0.29,0.58,0.25,0.33,0.58,0.48,0.25,0.44,0.5,0.42,0.48,0.25,0.55,0.33,0.25,0.5,0.5,0.5,0.25,0.54,0.71,0.25,0.5,0.58,0.58,0.48,0.5,0.29,0.29,0.58,0.56,0.25,0.25,0.61,0.58,0.48,0.25,0.88,0.55,0.4,0.6,0.58,0.55,0.29,0.55,0.56,0.56,0.25,0.55,0.33,0.25,0.33,0.58,0.48,0.25" style="fill:rgb(0,0,0);font-family:PalatinoLinotype-Roman;font-size:9.96px;stroke:none;">why no martensite was detected upon cooling in the case of 700 °C annealing. The morphology of the </text>
  </g>
  <g begin="text">
   <text y="-331.474" x="78.582,81.929,84.917,90.673,95.594,98.582,100.623,109.388,112.376,116.799,120.653,126.161,130.384,133.601,137.535,143.541,147.993,151.24,157.246,161.18,165.981,168.023,171.011,175.234,177.256,181.578,187.086,195.851,201.837,207.365,211.588,216.359,222.474,224.516" svgx:width="0.33,0.29,0.58,0.5,0.29,0.25,0.88,0.29,0.44,0.4,0.55,0.42,0.33,0.4,0.6,0.44,0.33,0.6,0.4,0.48,0.25,0.29,0.42,0.25,0.44,0.55,0.88,0.6,0.55,0.42,0.48,0.61,0.25,0.55" style="fill:rgb(0,0,0);font-family:PalatinoLinotype-Roman;font-size:9.96px;stroke:none;">final microstructure is composed o</text>
  </g>
  <g begin="text">
   <text y="-331.474" x="230.168,233.405,235.327,238.315,243.236,246.482,252.239,254.281,258.703,264.231,269.988,274.211,277.428,280.416,283.663,289.669,294.44,300.237,303.484,307.657,310.167,312.328,322.288,328.045,332.816,338.612,340.644,343.891,349.648,354.419,356.491,360.425,365.365,370.883,375.654,379.638,383.861,388.632,390.673,395.594,401.699,405.922,409.139,413.91,419.707,422.685,425.932,430.703,432.764,436.011,439.946,444.886,450.752,454.975,458.292,463.82,467.754,476.549,481.459,484.706,487.694,493.202,498.959,501.0,504.247,509.755,515.263,520.661" svgx:width="0.33,0.25,0.29,0.5,0.33,0.58,0.25,0.44,0.55,0.58,0.42,0.33,0.29,0.33,0.6,0.48,0.58,0.33,0.42,0.25,0.25,1.0,0.58,0.48,0.58,0.25,0.33,0.58,0.48,0.25,0.4,0.48,0.56,0.48,0.4,0.42,0.48,0.25,0.5,0.6,0.42,0.33,0.48,0.58,0.29,0.33,0.48,0.25,0.33,0.4,0.5,0.58,0.42,0.33,0.55,0.4,0.88,0.5,0.33,0.29,0.55,0.58,0.25,0.33,0.55,0.55,0.56,0.25" style="fill:rgb(0,0,0);font-family:PalatinoLinotype-Roman;font-size:9.96px;stroke:none;">f lath constituents. When the reverse austenite transformation took </text>
  </g>
  <g begin="text">
   <text y="-317.914" x="78.582,84.568,87.576,92.496,96.918,101.729,104.239,106.988,110.235,115.992,120.763,123.541,132.306,137.814,141.748,147.764,153.521,159.029,162.017,167.525,173.063,178.561,181.309,186.817,190.164,192.793,201.558,206.478,210.413,213.66,218.59,224.347,228.57,231.538,234.785,239.556,242.324,245.312,249.535,252.265,255.253,261.009,266.766,271.537,275.521,278.509,281.756,286.527,292.662,295.411,300.81,306.347,309.076,314.106,320.112,324.335,327.542,332.313,338.11,341.088,344.335,349.106,351.875,356.904,362.661,368.767,371.516,374.862,379.633,383.617,387.551,390.569,393.816,398.587,401.356,404.702,409.623,414.652,417.162,422.192,427.112,430.459,432.969,435.598,445.07,450.578,454.512,459.333,464.841,470.359,475.13,479.114,481.624,484.373,487.619,493.376,496.364,500.587,503.316,506.304,511.225,514.472,520.228" svgx:width="0.6,0.29,0.5,0.44,0.48,0.25,0.25,0.33,0.58,0.48,0.25,0.88,0.55,0.4,0.6,0.58,0.55,0.29,0.55,0.56,0.56,0.25,0.55,0.33,0.25,0.88,0.5,0.4,0.33,0.48,0.58,0.42,0.29,0.33,0.48,0.25,0.29,0.42,0.25,0.29,0.58,0.58,0.48,0.4,0.29,0.33,0.48,0.61,0.25,0.55,0.56,0.25,0.5,0.6,0.42,0.33,0.48,0.58,0.29,0.33,0.48,0.25,0.5,0.58,0.61,0.25,0.33,0.48,0.4,0.4,0.29,0.33,0.48,0.25,0.33,0.5,0.5,0.25,0.5,0.5,0.33,0.25,0.25,0.95,0.55,0.4,0.48,0.55,0.56,0.48,0.4,0.25,0.25,0.33,0.58,0.29,0.42,0.25,0.29,0.5,0.33,0.58,0.25" style="fill:rgb(0,0,0);font-family:PalatinoLinotype-Roman;font-size:9.96px;stroke:none;">place, the morphology of martensite is inherited by austenite and ferrite [23,24]. Moreover, this lath </text>
  </g>
  <g begin="text">
   <text y="-304.474" x="78.582,87.347,92.855,96.789,102.805,108.562,114.069,117.057,122.565,128.103,133.601,136.111,141.619,144.856,147.366,152.286,158.292,162.515,165.722,170.493,176.29,179.268,182.515,187.285,189.815,192.803,198.56,201.907,204.895,210.901,215.671,221.468,225.89,230.681,234.904,237.394,243.38,248.908,253.131,256.099,259.217,262.205,267.722,272.493,275.511,281.049,283.539,286.537,289.784,293.977,296.487,300.71,303.927,308.957,314.355,317.343,320.241,323.209,326.456,331.994,334.484,337.841,342.87,347.9,350.301,355.33,360.36,363.597" svgx:width="0.88,0.55,0.4,0.6,0.58,0.55,0.29,0.55,0.56,0.56,0.25,0.55,0.33,0.25,0.5,0.6,0.42,0.33,0.48,0.58,0.29,0.33,0.48,0.25,0.29,0.58,0.33,0.29,0.6,0.48,0.58,0.44,0.48,0.42,0.25,0.6,0.55,0.42,0.29,0.33,0.29,0.56,0.48,0.29,0.56,0.25,0.29,0.33,0.42,0.25,0.42,0.33,0.5,0.55,0.29,0.29,0.29,0.33,0.56,0.25,0.33,0.5,0.5,0.25,0.5,0.5,0.33,0.25" style="fill:rgb(0,0,0);font-family:PalatinoLinotype-Roman;font-size:9.96px;stroke:none;">morphology of austenite influences positively its stability [25,26].</text>
  </g>
  <g begin="text">
   <text y="-304.474" x="366.388" svgx:width="0.25" style="fill:rgb(0,0,0);font-family:PalatinoLinotype-Bold;font-size:9.96px;stroke:none;"> </text>
  </g>
  <g begin="text">
   <text y="37.216" x="478.978" svgx:width="0.25" style="fill:rgb(0,0,0);font-family:PalatinoLinotype-Roman;font-size:12.0px;stroke:none;"> </text>
  </g>
  <g begin="text">
   <text y="57.256" x="99.822,104.844,107.841,112.89,118.389,121.89,126.444,128.69400000000002,129.792,134.346,138.9,141.168" svgx:width="0.56,0.33,0.56,0.61,0.39,0.5,0.25,0.55,0.5,0.5,0.25,0.25" style="fill:rgb(0,0,0);font-family:PalatinoLinotype-Bold;font-size:9.0px;stroke:none;">Figure 12. </text>
  </g>
  <g begin="text">
   <text y="57.256" x="144.698,149.378,153.338,158.612,162.923,170.735,175.289,178.169,180.788,184.784,187.034,188.24,191.831,196.142,201.551,205.142,209.453,213.296,217.499,222.773,225.653,230.207,233.087,235.706,240.53,245.804,248.054,249.278,254.075,257.072,259.322,260.546,265.1,267.35,268.574,271.193,275.522,280.562,284.873,288.473,290.723,291.947,295.538,300.965,303.584,307.895,310.145,311.369,315.923,321.197,326.696,328.946,330.188,333.068,338.225,342.536,347.342,350.933,355.244,358.133,360.752,364.748,369.284,371.903,374.153,375.395,379.355,383.909,386.528,390.524,395.906,398.525,403.097,405.977,408.596,413.42,418.694,422.51,424.76,426.002,431.429,435.245,437.864,443.156,448.187,450.437,451.661,454.541,463.055,467.609,470.489,475.889,479.48,484.277,486.527,487.751,490.865,495.662,499.253" svgx:width="0.52,0.44,0.58,0.48,0.88,0.5,0.33,0.29,0.44,0.25,0.55,0.4,0.48,0.6,0.4,0.48,0.42,0.48,0.58,0.33,0.5,0.33,0.29,0.55,0.58,0.25,0.55,0.55,0.33,0.25,0.55,0.5,0.25,0.55,0.29,0.48,0.56,0.48,0.4,0.25,0.55,0.4,0.6,0.29,0.48,0.25,0.55,0.5,0.58,0.61,0.25,0.55,0.33,0.58,0.48,0.55,0.4,0.48,0.33,0.29,0.44,0.5,0.29,0.25,0.55,0.44,0.5,0.29,0.44,0.6,0.29,0.5,0.33,0.29,0.55,0.58,0.42,0.25,0.55,0.6,0.42,0.29,0.58,0.56,0.25,0.55,0.33,0.95,0.5,0.33,0.6,0.4,0.55,0.25,0.55,0.33,0.55,0.4,0.25" style="fill:rgb(0,0,0);font-family:PalatinoLinotype-Roman;font-size:9.0px;stroke:none;">Schematic representation of a lever rule and theoretical calculations using JMatPro for </text>
  </g>
  <g begin="text">
   <text y="70.246" x="99.822,102.441,107.733,110.613,114.924,118.524,122.484,126.075,128.694,131.592,134.211,138.207,142.743,145.362,148.017,152.94,155.208,159.762,164.919,170.193,174.504,179.067,181.587,185.898,191.415,193.683,197.499,200.406,204.717,209.028,211.674,215.49,217.677,222.114,224.994,227.262,231.816,236.37,240.807,243.075,247.629,252.786,258.285,260.58,265.017,269.571,274.008,276.276,279.876,286.257" svgx:width="0.29,0.58,0.33,0.48,0.4,0.44,0.4,0.29,0.33,0.29,0.44,0.5,0.29,0.29,0.56,0.25,0.5,0.58,0.58,0.48,0.5,0.29,0.48,0.61,0.25,0.42,0.33,0.48,0.48,0.29,0.42,0.25,0.5,0.33,0.25,0.5,0.5,0.5,0.25,0.5,0.58,0.61,0.25,0.5,0.5,0.5,0.25,0.54,0.71,0.25" style="fill:rgb(0,0,0);font-family:PalatinoLinotype-Roman;font-size:9.0px;stroke:none;">intercritically annealed steels at 720 and 700 °C.</text>
  </g>
  <g begin="text">
   <text y="70.246" x="288.608" svgx:width="0.25" style="fill:rgb(0,0,0);font-family:PalatinoLinotype-Bold;font-size:9.0px;stroke:none;"> </text>
  </g>
  <g begin="text">
   <text y="260.466" x="449.218" svgx:width="0.25" style="fill:rgb(0,0,0);font-family:PalatinoLinotype-Roman;font-size:11.04px;stroke:none;"> </text>
  </g>
  <rect style="fill:pink;opacity:0.2;stroke:blue;stroke-width:0.3;" x="120.398" y="-339.534" height="334.75" width="357.89" title="13"/>
  <text y="-339.534" class="image" id="image.13.1" width="357" height="334" x="120.398" style="font-size:5.0px;">image.13.1.120_478.-340_-5</text>
  <rect style="fill:pink;opacity:0.2;stroke:blue;stroke-width:0.3;" x="150.178" y="46.862" height="171.55" width="298.95" title="13"/>
  <text y="46.862" class="image" id="image.13.2" width="298" height="171" x="150.178" style="font-size:5.0px;">image.13.2.150_449.47_218</text>
  <g begin="text">
   <text y="275.819" x="97.795,102.78,105.766,110.751,116.23,119.718,124.203,125.627,130.11,134.593" svgx:width="0.56,0.33,0.56,0.61,0.39,0.5,0.55,0.5,0.5,0.25" style="fill:rgb(0,0,0);font-family:URWPalladioL-Bold;font-size:8.97px;stroke:none;">Figure 13.</text>
   <text y="275.819" x="139.679,142.561,150.83,155.179,158.0,163.264,166.532,172.701,176.383,178.896,186.611,191.865,194.379,198.728,201.549,204.062,208.816,215.301,220.054,223.0141,224.351,228.209,232.558,235.985,240.801,245.555,252.039,256.205,261.275,264.702,267.215,271.072,276.142,283.857,288.022,293.093,296.05310000000003,297.328,299.841,306.326,309.147,314.217,319.796,324.146,329.401,333.082,335.903,340.068,345.138,347.651,350.472,356.052,360.401,363.3611,364.637,369.962,372.475,375.357,378.239,382.404,385.664,389.829,394.899,397.8591,399.135,401.648,406.718,409.539,413.704,416.973,420.83,424.257,426.77,429.591,432.104,435.961,440.311,442.91229999999996,444.239,447.059,451.224,458.939,464.177,468.342,471.769,476.118,478.939,484.193,487.462,491.627,495.309" svgx:width="0.33,0.95,0.5,0.33,0.6,0.4,0.55,0.42,0.29,0.88,0.6,0.29,0.5,0.33,0.29,0.55,0.58,0.55,0.33,0.55,0.44,0.5,0.4,0.55,0.55,0.58,0.48,0.58,0.4,0.29,0.44,0.58,0.88,0.48,0.58,0.33,0.55,0.29,0.58,0.33,0.58,0.48,0.5,0.6,0.42,0.33,0.48,0.58,0.29,0.33,0.48,0.5,0.33,0.55,0.61,0.29,0.33,0.33,0.48,0.4,0.48,0.58,0.33,0.55,0.29,0.58,0.33,0.48,0.4,0.44,0.4,0.29,0.33,0.29,0.44,0.5,0.29,0.55,0.33,0.48,0.88,0.6,0.48,0.4,0.5,0.33,0.6,0.4,0.48,0.42,0.25" style="fill:rgb(0,0,0);font-family:URWPalladioL-Roma;font-size:8.97px;stroke:none;">JMatProsimulationof carbonenrichment intheausteniteat different intercritical temperatures.</text>
   <text y="296.901" x="76.535,81.516,84.006,87.494,94.687,100.226,106.313,110.737,114.054,120.141,124.565,127.882,133.421,139.509" svgx:width="0.5,0.25,0.55,0.72,0.56,0.61,0.44,0.33,0.61,0.44,0.33,0.56,0.61,0.44" style="fill:rgb(0,0,0);font-family:URWPalladioL-Bold;font-size:9.96px;stroke:none;">5. Conclusions</text>
   <text y="316.388" x="97.795,103.78,109.462,114.2428,115.721,121.051,126.45,129.633,134.515,137.356,143.038,147.715,155.262,158.943,163.62,167.759,173.646,176.488,179.67,183.8532,185.392,189.531,195.214,200.545,210.269,213.452,219.134,224.016,227.3028,228.78,234.462,239.139,244.021,247.204,250.045,255.727,262.737,265.988,269.669,275.0,285.202,288.385,294.068,298.8488,300.326,303.167,308.849,311.69,314.873,317.714,322.596,325.4844,327.019,335.64,340.522,344.378,347.561,352.238,357.92,362.06,364.901,368.084,372.8648,374.342,382.963,385.804,390.139,393.82,399.151,403.29,406.473,410.242,416.129,420.464,423.647,429.534,433.215,437.9958,439.473,442.314,447.997,451.179,458.092,462.974,470.238,473.079,478.761,481.944,486.62,490.301,494.636,497.819,500.66,503.843,506.684,511.019,515.901" svgx:width="0.61,0.58,0.48,0.55,0.55,0.55,0.33,0.5,0.29,0.58,0.48,0.61,0.4,0.48,0.42,0.6,0.29,0.33,0.42,0.55,0.42,0.58,0.55,0.83,0.33,0.58,0.5,0.33,0.55,0.58,0.48,0.5,0.33,0.29,0.58,0.56,0.33,0.4,0.55,0.88,0.33,0.58,0.48,0.55,0.29,0.58,0.29,0.33,0.29,0.5,0.29,0.55,0.88,0.5,0.4,0.33,0.48,0.58,0.42,0.29,0.33,0.48,0.55,0.88,0.29,0.44,0.4,0.55,0.42,0.33,0.4,0.6,0.44,0.33,0.6,0.4,0.48,0.55,0.29,0.58,0.33,0.55,0.5,0.58,0.29,0.58,0.33,0.48,0.4,0.44,0.33,0.29,0.33,0.29,0.44,0.5,0.29" style="fill:rgb(0,0,0);font-family:URWPalladioL-Roma;font-size:9.96px;stroke:none;">The obtainedresults showthat heatingfromthe initial martensite microstructure intoaninterctitical</text>
   <text y="329.898" x="76.535,80.276,85.029,90.546,93.433,98.851,104.6278,107.117,109.995,114.1782,116.692,121.672,124.144,130.108,133.849,138.602,141.906,146.659,150.579,154.309,159.062,165.13760000000002,167.616,173.391,178.144,183.105,186.3918,188.831,192.066,195.806,200.549,205.511,208.746,217.507,222.26,228.036,231.3228,233.761,237.065,242.483,246.467,248.893,252.128,257.903,262.6838,265.137,270.098,280.924,290.311,296.08779999999996,298.566,302.774,306.008,310.761,315.514,318.402,320.892,323.373,328.335,332.5182,335.023,337.91,341.19680000000005,343.635,346.523,350.7062,353.221,361.983,367.966,372.372,378.1488,380.627,385.38,390.342,394.549,397.437,402.19,406.174,408.6,411.834,417.312,419.733,423.474,428.227,431.462,436.423,439.311,445.08779999999996,447.576,452.538,458.521,462.728,465.963,470.716,476.491,479.379,482.613,487.3938,489.847,493.151,498.569,502.553,504.979,508.214,513.989" svgx:width="0.4,0.48,0.56,0.29,0.55,0.58,0.55,0.29,0.42,0.55,0.5,0.55,0.6,0.4,0.48,0.33,0.48,0.4,0.4,0.48,0.61,0.55,0.58,0.48,0.5,0.33,0.55,0.33,0.4,0.48,0.5,0.33,0.88,0.48,0.58,0.33,0.55,0.33,0.55,0.4,0.55,0.33,0.58,0.48,0.55,0.5,0.84,0.95,0.58,0.55,0.42,0.33,0.48,0.48,0.29,0.25,0.55,0.5,0.42,0.55,0.29,0.33,0.55,0.29,0.42,0.55,0.88,0.6,0.44,0.58,0.55,0.48,0.5,0.42,0.29,0.48,0.4,0.55,0.33,0.55,0.55,0.4,0.48,0.33,0.5,0.29,0.58,0.55,0.5,0.6,0.42,0.33,0.48,0.58,0.29,0.33,0.48,0.55,0.33,0.55,0.4,0.55,0.33,0.58,0.48" style="fill:rgb(0,0,0);font-family:URWPalladioL-Roma;font-size:9.96px;stroke:none;">region is a preferred heat treatment for the 5%Mn steel, as it is much easier to retain austenite for the</text>
   <text y="343.407" x="76.535,79.443,85.258,88.516,93.302,97.07,101.506,105.453,108.361,111.619,114.526,118.963,123.959,126.867,129.775,135.3526,137.829,143.834,147.602,153.057,157.494,162.281,166.517,170.754,175.541,181.6166,184.154,192.977,197.974,201.231,206.018,209.965,212.873,217.869,220.7574,223.275,228.271,232.4542,235.016,239.453,244.908,253.732,259.737,264.734,268.501,273.287,279.3626,281.891,285.148,290.62600000000003,293.102,296.36,302.175,306.9558,309.47,313.907,318.903,323.14,327.9208,330.424,335.88,339.1668,341.716,346.152,351.608,354.516,357.424,360.332,366.147,371.7246,374.201,379.657,383.64099999999996,386.102,389.01,393.247,398.703,401.96,407.776,412.562,416.509,425.333,430.329,433.2174,435.745,441.271,446.267,449.175,454.99,457.898,461.156,464.064,468.44640000000004,470.998,474.256,478.023,482.809,487.806,491.063,499.887,504.673,510.489,513.746,517.983" svgx:width="0.29,0.58,0.33,0.48,0.4,0.44,0.4,0.29,0.33,0.29,0.44,0.5,0.29,0.29,0.56,0.55,0.6,0.4,0.55,0.44,0.48,0.42,0.42,0.48,0.61,0.55,0.88,0.5,0.33,0.48,0.4,0.29,0.5,0.29,0.55,0.5,0.42,0.55,0.44,0.55,0.88,0.6,0.5,0.4,0.48,0.61,0.55,0.33,0.55,0.55,0.33,0.58,0.48,0.55,0.44,0.5,0.42,0.48,0.55,0.55,0.33,0.55,0.44,0.55,0.29,0.29,0.29,0.58,0.56,0.55,0.55,0.4,0.55,0.29,0.42,0.55,0.33,0.58,0.48,0.4,0.88,0.5,0.29,0.55,0.55,0.5,0.29,0.58,0.29,0.33,0.29,0.44,0.55,0.33,0.4,0.48,0.5,0.33,0.88,0.48,0.58,0.33,0.42,0.25" style="fill:rgb(0,0,0);font-family:URWPalladioL-Roma;font-size:9.96px;stroke:none;">intercritically processed material as compared to the case of coiling or isothermal bainitic treatments.</text>
   <text y="356.917" x="76.535,83.057,87.734,91.873,97.761,100.602,103.785,107.9682,110.385,114.524,120.206,125.537,133.68,138.347,144.42260000000002,146.773,149.955,155.638,160.519,163.8058,166.162,169.004,174.686,177.869,182.536,186.216,190.551,194.408,197.249,200.432,203.273,207.608,212.49,215.3784,217.791,222.673,228.355,234.037,238.714,243.596,246.437,249.278,254.96,260.5376,262.839,267.721,271.00780000000003,273.364,278.246,283.127" svgx:width="0.67,0.48,0.42,0.6,0.29,0.33,0.42,0.55,0.42,0.58,0.55,0.83,0.48,0.61,0.55,0.33,0.58,0.5,0.33,0.55,0.29,0.58,0.33,0.48,0.4,0.44,0.4,0.29,0.33,0.29,0.44,0.5,0.29,0.55,0.5,0.58,0.58,0.48,0.5,0.29,0.29,0.58,0.56,0.55,0.5,0.33,0.55,0.5,0.5,0.5" style="fill:rgb(0,0,0);font-family:URWPalladioL-Roma;font-size:9.96px;stroke:none;">Results showed that intercritical annealing at 720</text>
   <text y="353.3" x="290.461" svgx:width="0.52" style="fill:rgb(0,0,0);font-family:Pxsy;font-size:7.57px;stroke:none;">◦</text>
   <text y="356.917" x="294.919,301.9906,304.302,309.183,312.024,314.866,320.196,328.339,333.016,339.0916,341.432,347.299,352.181,356.038,359.22,362.062,366.943,369.8314,372.245,376.384,379.567,384.449,389.848,392.679,395.521,398.362,403.243,408.125,411.308,414.149,419.48,425.2568,427.622,432.953,436.2398,438.655,443.546,449.424,453.564,456.746,461.423,467.105,469.947,473.129,477.806,480.296,482.717,487.599,493.281,499.3566,501.697,505.837,509.019,511.861,514.702,517.543" svgx:width="0.71,0.55,0.5,0.29,0.29,0.55,0.83,0.48,0.61,0.55,0.6,0.5,0.4,0.33,0.29,0.5,0.29,0.55,0.42,0.33,0.5,0.55,0.29,0.29,0.29,0.5,0.5,0.33,0.29,0.55,0.58,0.55,0.55,0.33,0.55,0.5,0.6,0.42,0.33,0.48,0.58,0.29,0.33,0.48,0.25,0.55,0.5,0.58,0.61,0.55,0.42,0.33,0.29,0.29,0.29,0.25" style="fill:rgb(0,0,0);font-family:URWPalladioL-Roma;font-size:9.96px;stroke:none;">C allowed partial stabilization of austenite, and still,</text>
   <text y="370.426" x="76.535,80.844,86.392,95.365,100.1458,103.464,106.848,110.689,115.557,119.865,125.64179999999999,129.011,137.984,143.065,147.079,150.391,155.259,161.173,165.482,168.439,171.752,176.5328,179.851,188.326,193.406,197.5892,200.947,207.155,212.023,215.336,220.203,224.715,228.028,232.895,238.97060000000002,242.336,247.884,253.6608,257.04,261.552,267.1,272.649,275.606,278.563,284.477,290.0546,293.358,298.439,301.72580000000005,304.984,308.296,314.211,318.9918,322.31,328.457,334.372,339.453,342.34139999999996,345.641,349.95,353.263,358.344,363.993,368.861,371.351,377.123,385.11,390.8868,394.255,397.568,403.482,408.2628,411.581,417.13,420.443,426.357,431.224,435.20799999999997,438.47,444.384,449.465,455.379,461.588,464.07800000000003,467.553,470.51,476.424,479.737,484.604,488.435,492.947,496.961,499.918,503.231,506.188,510.7,515.781" svgx:width="0.42,0.55,0.88,0.48,0.55,0.33,0.4,0.48,0.42,0.58,0.55,0.88,0.5,0.4,0.33,0.48,0.58,0.42,0.29,0.33,0.48,0.55,0.83,0.5,0.42,0.55,0.61,0.48,0.33,0.48,0.44,0.33,0.48,0.61,0.55,0.55,0.58,0.55,0.44,0.55,0.55,0.29,0.29,0.58,0.56,0.55,0.5,0.33,0.55,0.33,0.58,0.48,0.55,0.61,0.58,0.5,0.29,0.55,0.42,0.33,0.5,0.56,0.48,0.25,0.55,0.79,0.58,0.55,0.33,0.58,0.48,0.55,0.55,0.33,0.58,0.48,0.4,0.55,0.58,0.5,0.58,0.61,0.25,0.55,0.29,0.58,0.33,0.48,0.4,0.44,0.4,0.29,0.33,0.29,0.44,0.5,0.29" style="fill:rgb(0,0,0);font-family:URWPalladioL-Roma;font-size:9.96px;stroke:none;">some fresh martensite was detected on cooling at the ﬁnal stage. On the other hand, intercritical</text>
   <text y="383.935" x="76.535,81.616,87.53,93.444,98.312,103.393,106.35,109.307,115.221,120.79860000000001,124.733,129.814,133.1008,136.988,142.069,147.15" svgx:width="0.5,0.58,0.58,0.48,0.5,0.29,0.29,0.58,0.56,0.55,0.5,0.33,0.55,0.5,0.5,0.5" style="fill:rgb(0,0,0);font-family:URWPalladioL-Roma;font-size:9.96px;stroke:none;">annealing at 700</text>
   <text y="380.319" x="156.09" svgx:width="0.52" style="fill:rgb(0,0,0);font-family:Pxsy;font-size:7.57px;stroke:none;">◦</text>
   <text y="383.935" x="160.548,167.6196,171.614,176.695,179.652,182.609,188.158,196.633,200.8162,204.803,208.187,213.735,217.71900000000002,221.611,225.919,232.047,236.559,242.3358,246.334,250.846,255.927,259.941,265.561,271.109,276.88579999999996,280.874,285.742,291.656,295.67,298.627,303.139,309.053,318.026,322.894,328.808,332.0948,335.982,338.939,344.7158,348.715,352.028,357.942,362.7228,366.671,372.585,377.453,385.928,388.885,394.4626,398.396,401.78,407.329,411.342,420.315,425.183,431.2586,435.253,440.334,446.462,450.77,454.083,458.951,464.865,467.822,471.135,475.9158,479.864,483.177,489.091,494.172,497.45880000000005,501.346,504.303,507.5898,511.477,514.435" svgx:width="0.71,0.55,0.5,0.29,0.29,0.55,0.83,0.42,0.55,0.33,0.55,0.4,0.55,0.42,0.6,0.44,0.58,0.55,0.44,0.5,0.4,0.55,0.55,0.58,0.55,0.48,0.58,0.4,0.29,0.44,0.58,0.88,0.48,0.58,0.33,0.55,0.29,0.58,0.55,0.33,0.58,0.48,0.55,0.58,0.48,0.83,0.29,0.56,0.55,0.33,0.55,0.4,0.88,0.48,0.61,0.55,0.5,0.6,0.42,0.33,0.48,0.58,0.29,0.33,0.48,0.55,0.33,0.58,0.5,0.33,0.55,0.29,0.33,0.55,0.29,0.42" style="fill:rgb(0,0,0);font-family:URWPalladioL-Roma;font-size:9.96px;stroke:none;">C allows for such carbon enrichment in the newly formed austenite that it is</text>
   <text y="397.445" x="76.535,80.366,85.234,88.546,93.627,96.584,102.499,107.366,113.4416,116.715,121.796,125.0828,128.239,132.07,137.618,143.166,151.9308,155.279,158.592,163.46,172.432,178.54,183.407,187.421,192.502,195.815,201.932,205.773,210.5538,213.771,222.246,225.203,228.516,234.2928,237.56,243.474,248.952,252.162,256.471,259.428,265.078,270.85479999999995,274.122,279.67,282.95680000000004,286.184,295.157,300.238,304.252,307.565,312.432,318.346,322.655,325.612,328.925,331.882,336.2644,339.524,342.837,346.85,351.931,357.846,362.154,365.538,371.086,375.1,384.073,389.154,392.467,395.424,400.972,406.887,409.377,414.843,418.268,421.5548,424.711,430.625,435.706,439.8892,443.154,448.774,453.641,458.509,464.2858,467.553,472.634,475.591,479.9,485.378,488.578,492.886,498.801,504.349,512.824" svgx:width="0.4,0.48,0.33,0.5,0.29,0.58,0.48,0.61,0.55,0.5,0.33,0.55,0.4,0.55,0.55,0.88,0.55,0.33,0.48,0.88,0.6,0.48,0.4,0.5,0.33,0.6,0.4,0.48,0.55,0.83,0.29,0.33,0.58,0.55,0.58,0.55,0.55,0.42,0.29,0.56,0.58,0.55,0.55,0.33,0.55,0.88,0.5,0.4,0.33,0.48,0.58,0.42,0.29,0.33,0.29,0.44,0.55,0.33,0.4,0.5,0.58,0.42,0.33,0.55,0.4,0.88,0.5,0.33,0.29,0.55,0.58,0.25,0.55,0.34,0.33,0.55,0.58,0.5,0.42,0.55,0.55,0.48,0.48,0.58,0.55,0.5,0.29,0.42,0.55,0.55,0.42,0.58,0.55,0.83,0.58" style="fill:rgb(0,0,0);font-family:URWPalladioL-Roma;font-size:9.96px;stroke:none;">retained at room temperature with no sign of martensitic transformation. It has been also shown</text>
   <text y="410.954" x="76.535,79.848,85.762,90.843,94.1298,97.468,103.576,107.407,112.955,115.912,121.461,127.375,133.025,135.982,141.896,147.47359999999998,150.869,154.172,160.086,164.8668,168.276,173.357,179.271,185.186,190.053,195.134,198.091,201.048,206.962,212.53959999999998,215.925,219.238,222.195,231.168,236.035,238.525,242.092,245.476,251.024,255.008,258.351,263.432,267.6152,271.053,274.01,279.559,285.473,291.05060000000003,294.436,299.517,303.7002,307.138,312.118,315.532,321.446,323.93600000000004,327.512,333.721,339.27,344.137,348.3202,351.759,357.673,363.221,366.50780000000003,369.847,372.804,378.718,384.896,391.024,395.892,401.806,406.318,411.0988,414.498,417.811,423.725,428.5058,431.905,435.218,441.132,446.0,450.014,458.986,464.067,466.9554,470.337,474.646,477.959,483.04,488.659,491.616,494.573,497.53,500.843,506.42060000000004,509.806,515.354" svgx:width="0.33,0.58,0.5,0.33,0.55,0.6,0.4,0.55,0.29,0.55,0.58,0.56,0.29,0.58,0.56,0.55,0.33,0.58,0.48,0.55,0.5,0.58,0.58,0.48,0.5,0.29,0.29,0.58,0.56,0.55,0.33,0.29,0.88,0.48,0.25,0.55,0.33,0.55,0.4,0.55,0.5,0.42,0.55,0.29,0.55,0.58,0.56,0.55,0.5,0.42,0.55,0.5,0.55,0.58,0.25,0.55,0.61,0.55,0.48,0.42,0.55,0.58,0.55,0.33,0.55,0.29,0.58,0.61,0.6,0.48,0.58,0.44,0.48,0.55,0.33,0.58,0.48,0.55,0.33,0.58,0.48,0.4,0.88,0.5,0.29,0.55,0.42,0.33,0.5,0.55,0.29,0.29,0.29,0.33,0.56,0.55,0.55,0.33" style="fill:rgb(0,0,0);font-family:URWPalladioL-Roma;font-size:9.96px;stroke:none;">that prolonging the annealing time, for as long as 5 h, does not inﬂuence the thermal stability of</text>
   <text y="424.464" x="76.535,80.265,85.003,88.228,93.175,96.054,101.811,106.55,112.62559999999999,115.078,120.024,125.989,130.184,133.409,138.148,143.905,146.784,150.009,154.748,157.238,159.704,164.651,170.408,176.4836,178.936,182.161,187.919,192.6998,195.141,200.542,206.3,209.178,214.7556,217.162,223.207" svgx:width="0.4,0.48,0.33,0.5,0.29,0.58,0.48,0.61,0.55,0.5,0.6,0.42,0.33,0.48,0.58,0.29,0.33,0.48,0.25,0.55,0.5,0.58,0.61,0.55,0.33,0.58,0.48,0.55,0.55,0.58,0.29,0.56,0.55,0.61,0.29" style="fill:rgb(0,0,0);font-family:URWPalladioL-Roma;font-size:9.96px;stroke:none;">retained austenite, and the only di</text>
   <text y="424.464" x="226.084" svgx:width="0.61" style="fill:rgb(0,0,0);font-family:Rpxr;font-size:9.96px;stroke:none;">ﬀ</text>
   <text y="424.464" x="232.099,236.838,240.567,245.306,251.064,255.456,260.2368,262.678,265.972,271.374,277.339,283.097,289.1726,291.624,299.875,302.754,305.979,311.75579999999997,314.22,318.958,324.063,327.288,332.027,337.784,343.829,348.568,354.6436,357.095,360.32,363.199,371.934,376.7148,379.156,382.035,386.2182,388.713,393.69300000000004,396.142,404.878,407.756,410.635,416.7106,419.163" svgx:width="0.48,0.4,0.48,0.58,0.44,0.48,0.55,0.33,0.55,0.6,0.58,0.61,0.55,0.83,0.29,0.33,0.58,0.55,0.48,0.52,0.33,0.48,0.58,0.61,0.48,0.61,0.55,0.33,0.29,0.88,0.48,0.55,0.29,0.42,0.55,0.5,0.55,0.88,0.29,0.29,0.61,0.55,0.48" style="fill:rgb(0,0,0);font-family:URWPalladioL-Roma;font-size:9.96px;stroke:none;">erence found with extended time is a mild e</text>
   <text y="424.464" x="423.899" svgx:width="0.61" style="fill:rgb(0,0,0);font-family:Rpxr;font-size:9.96px;stroke:none;">ﬀ</text>
   <text y="424.464" x="429.913,434.652,439.044,442.3308,444.752,450.154,455.9308,458.395,461.62,467.377,472.1578,474.599,478.794,481.672,486.619,491.3998,493.841,499.242,502.52880000000005,505.02,508.245,514.002" svgx:width="0.48,0.44,0.33,0.55,0.55,0.58,0.55,0.33,0.58,0.48,0.55,0.42,0.29,0.5,0.48,0.55,0.55,0.33,0.55,0.33,0.58,0.48" style="fill:rgb(0,0,0);font-family:URWPalladioL-Roma;font-size:9.96px;stroke:none;">ect on the size of the</text>
   <text y="437.973" x="76.535,80.291,85.063,89.287,95.295,98.194,101.442,104.341,110.139,115.7166,118.169,126.966,129.865,134.288,138.044,143.484,147.708,150.956,154.811,160.819,165.242,168.49,174.497,178.253,183.025" svgx:width="0.4,0.48,0.42,0.6,0.29,0.33,0.29,0.58,0.56,0.55,0.88,0.29,0.44,0.4,0.55,0.42,0.33,0.4,0.6,0.44,0.33,0.6,0.4,0.48,0.25" style="fill:rgb(0,0,0);font-family:URWPalladioL-Roma;font-size:9.96px;stroke:none;">resulting microstructure.</text>
   <text y="451.482" x="97.795,101.146,106.9228,109.438,112.679,118.466,123.2468,125.734,130.148,135.12,139.335,144.1158,146.604,152.032,155.3188,157.849,160.742,164.958,170.386,173.628,179.414,184.177,188.104,196.884,201.855,204.74339999999998,207.254,210.495,214.244,219.006,223.978,227.219,235.998,240.761,246.547,249.8338,252.294,257.266,263.052,269.12760000000003,271.623,276.037,281.466,284.359,287.253,290.146,295.933,301.5106,303.966,308.182,311.075,319.855,325.85,328.744,333.715,336.956,339.849,345.278,351.065,353.555,356.066,361.853,367.331,369.787,375.285,380.257,383.15,388.937,391.83,395.061,397.954,402.3364,404.875,410.303,414.287,416.736,420.047,424.81,428.737,432.664,435.558,438.799,441.692,446.0744,448.612,451.854,455.781,460.752,466.539,470.755,474.066,479.494,483.422,492.201,497.173,500.414,503.307,508.736,514.523" svgx:width="0.34,0.58,0.55,0.33,0.58,0.48,0.55,0.44,0.5,0.42,0.48,0.55,0.55,0.33,0.55,0.29,0.42,0.55,0.33,0.58,0.48,0.4,0.88,0.5,0.29,0.55,0.33,0.4,0.48,0.5,0.33,0.88,0.48,0.58,0.33,0.55,0.5,0.58,0.61,0.55,0.44,0.55,0.29,0.29,0.29,0.58,0.56,0.55,0.42,0.29,0.88,0.6,0.29,0.5,0.33,0.29,0.55,0.58,0.25,0.55,0.58,0.55,0.55,0.55,0.5,0.29,0.58,0.29,0.33,0.29,0.44,0.55,0.55,0.4,0.55,0.33,0.48,0.4,0.4,0.29,0.33,0.29,0.44,0.55,0.33,0.4,0.5,0.58,0.42,0.33,0.55,0.4,0.88,0.5,0.33,0.29,0.55,0.58,0.42" style="fill:rgb(0,0,0);font-family:URWPalladioL-Roma;font-size:9.96px;stroke:none;">In the case of isothermal treatment and coiling simulation, no bainitic or ferritic transformations</text>
   <text y="464.992" x="76.535,82.083,86.595,91.107,97.235,101.219,103.83,109.957,116.065,121.613,127.3898,130.098,134.61,140.158,145.707,148.664,151.621,157.535,163.1126,165.766,169.15,172.981,178.53,187.2948,190.084,193.396,199.311,204.0918,206.759,211.84,217.968,222.276,225.589,230.457,236.371,239.328,242.641,245.598,249.9804,252.681,256.694,261.775,267.69,273.34,278.207,280.697,284.497,290.727,296.641,299.598,303.7812,306.488,309.445,313.6282,316.334,321.202,326.445,332.553,335.5,340.581,343.538,349.452,354.319,360.3946,363.109,368.729,374.3066,376.96,380.273,386.187,390.9678,393.625,397.934,401.247,405.088,410.636,416.55,422.12760000000003,424.782" svgx:width="0.55,0.44,0.44,0.6,0.4,0.55,0.6,0.6,0.55,0.58,0.55,0.44,0.55,0.55,0.29,0.29,0.58,0.56,0.55,0.33,0.4,0.55,0.88,0.55,0.33,0.58,0.48,0.55,0.5,0.6,0.42,0.33,0.48,0.58,0.29,0.33,0.29,0.44,0.55,0.4,0.5,0.58,0.56,0.48,0.25,0.55,0.61,0.58,0.29,0.42,0.55,0.29,0.42,0.55,0.48,0.52,0.6,0.29,0.5,0.29,0.58,0.48,0.61,0.55,0.55,0.56,0.55,0.33,0.58,0.48,0.55,0.42,0.33,0.4,0.55,0.58,0.56,0.55,0.48" style="fill:rgb(0,0,0);font-family:URWPalladioL-Roma;font-size:9.96px;stroke:none;">occur upon cooling from the austenitic range. This is explained by the strong e</text>
   <text y="464.992" x="429.644" svgx:width="0.61" style="fill:rgb(0,0,0);font-family:Rpxr;font-size:9.96px;stroke:none;">ﬀ</text>
   <text y="464.992" x="435.823,440.691,445.202,448.4888,451.096,454.409,460.323,465.404,468.6908,471.288,480.901,486.6778,489.396,495.31,500.391,504.5742,507.281,512.83" svgx:width="0.48,0.44,0.33,0.55,0.33,0.58,0.5,0.33,0.55,0.95,0.58,0.55,0.58,0.5,0.42,0.55,0.55,0.58" style="fill:rgb(0,0,0);font-family:URWPalladioL-Roma;font-size:9.96px;stroke:none;">ect that Mn has on</text>
   <text y="478.501" x="76.535,80.291,85.063,91.15,97.158,101.581,104.48,110.278,115.85560000000001,118.308,121.556,127.354,132.1348,134.617,139.04,144.839,149.611,158.408,161.307,165.73,170.711,173.5994,176.101,182.188,186.124,189.023,194.652,197.551,203.349,208.92659999999998,211.379,214.696,220.136,223.892,228.315,233.0958,235.578,241.018" svgx:width="0.4,0.48,0.61,0.6,0.44,0.29,0.58,0.56,0.55,0.33,0.58,0.48,0.55,0.44,0.58,0.48,0.88,0.29,0.44,0.5,0.29,0.55,0.61,0.4,0.29,0.56,0.29,0.58,0.56,0.55,0.33,0.55,0.4,0.44,0.48,0.55,0.55,0.33" style="fill:rgb(0,0,0);font-family:URWPalladioL-Roma;font-size:9.96px;stroke:none;">reducing the chemical driving force of</text>
   <text y="478.501" x="246.825" svgx:width="0.61" style="fill:rgb(0,0,0);font-family:EURM10;font-size:9.96px;stroke:none;">γ</text>
   <text y="478.501" x="255.378,258.626" svgx:width="0.33,0.55" style="fill:rgb(0,0,0);font-family:URWPalladioL-Roma;font-size:9.96px;stroke:none;">to</text>
   <text y="478.501" x="266.555" svgx:width="0.66" style="fill:rgb(0,0,0);font-family:EURM10;font-size:9.96px;stroke:none;">α</text>
   <text y="478.501" x="275.606,278.854,282.789,287.77,293.569,297.793,301.11,306.55,310.485,319.282,324.263,327.511,330.41,335.85,341.648" svgx:width="0.33,0.4,0.5,0.58,0.42,0.33,0.55,0.4,0.88,0.5,0.33,0.29,0.55,0.58,0.25" style="fill:rgb(0,0,0);font-family:URWPalladioL-Roma;font-size:9.96px;stroke:none;">transformation.</text>
   <text y="500.588" x="76.186,83.162,88.64,91.626,97.105,102.09,105.5883,109.353,115.826,120.812,126.29,129.276,132.764,135.75,141.228,146.707,149.693,152.678,157.664,163.142,167.123" svgx:width="0.78,0.61,0.33,0.61,0.56,0.39,0.55,0.72,0.56,0.61,0.33,0.39,0.33,0.61,0.61,0.33,0.33,0.56,0.61,0.44,0.25" style="fill:rgb(0,0,0);font-family:URWPalladioL-Bold;font-size:8.97px;stroke:none;">Author Contributions:</text>
   <text y="500.588" x="175.577,182.061,187.055,192.378,196.438,200.819,206.316,209.297,214.812,219.385,222.046,224.708,229.281,233.854,236.835,239.496,244.49,249.813,252.0555,256.261,264.912,267.199,275.851,278.137,280.3795,284.585,291.7,293.987,300.965,303.2075,307.029,311.601,316.924,322.3957,326.289,332.774,335.06,342.038,344.325,347.37,356.022,358.309,360.55150000000003,365.141,370.729,375.301,378.283,382.76800000000003,386.633,390.694,396.209,399.821,404.394,407.376,410.037,415.031,420.353,422.5955,426.801,435.453,437.739,446.391,448.678,450.9205,455.125,463.448,465.734,471.835,474.0775,477.898,482.471,487.794,493.2657,497.159,505.811,508.098,515.286,517.573" svgx:width="0.71,0.55,0.58,0.44,0.48,0.6,0.33,0.6,0.5,0.29,0.29,0.5,0.5,0.33,0.29,0.55,0.58,0.25,0.55,0.95,0.25,0.95,0.25,0.25,0.55,0.78,0.25,0.76,0.25,0.55,0.5,0.58,0.61,0.55,0.71,0.25,0.76,0.25,0.33,0.95,0.25,0.25,0.55,0.61,0.5,0.33,0.5,0.55,0.44,0.6,0.4,0.5,0.33,0.29,0.55,0.58,0.25,0.55,0.95,0.25,0.95,0.25,0.25,0.55,1.0,0.25,0.67,0.25,0.55,0.5,0.58,0.61,0.55,0.95,0.25,0.79,0.25,0.25" style="fill:rgb(0,0,0);font-family:URWPalladioL-Roma;font-size:8.97px;stroke:none;">Conceptualization, M.M., A.G. and C.G.-M.; data curation, M.M., W.Z. and M.O.;</text>
   <text y="510.72" x="76.535,79.581,84.574,88.187,96.262,100.835,103.43629999999999,105.737,110.31,115.633,120.206,122.867,127.952,131.83,134.491,138.369,140.6115,142.896,150.012,152.298,159.276,161.563,163.8055,166.09,169.136,174.65,179.973,185.561,188.223,193.545,198.5682,200.871,205.444,209.505,214.626,220.141,222.803,226.68,229.342,232.323,234.985,239.978,245.301,247.5435,249.828,258.48,260.767,269.418,271.6605,273.946,278.518,283.841,289.3127,291.67,298.785,301.072,308.05,310.336,312.5785,314.864,317.525,322.848,328.015,332.396,336.274,339.255,341.917,347.002,351.575,354.556,357.217,362.211,367.534,369.7765,372.061,380.713,382.999,391.651,393.938,396.1805,398.465,405.58,407.866,414.845,417.131,419.3735,421.658,429.981,432.267,438.367,440.654,442.8965,445.181,451.665,453.952,460.93,463.216,466.262,474.914,477.1565,479.441,484.014,489.337,494.8087,497.165,505.817,508.104,515.292,517.579" svgx:width="0.33,0.55,0.4,0.88,0.5,0.29,0.55,0.5,0.58,0.5,0.29,0.56,0.42,0.29,0.42,0.25,0.55,0.78,0.25,0.76,0.25,0.25,0.55,0.33,0.6,0.58,0.61,0.29,0.58,0.56,0.55,0.5,0.44,0.56,0.6,0.29,0.42,0.29,0.33,0.29,0.55,0.58,0.25,0.55,0.95,0.25,0.95,0.25,0.55,0.5,0.58,0.61,0.55,0.78,0.25,0.76,0.25,0.25,0.55,0.29,0.58,0.56,0.48,0.42,0.33,0.29,0.56,0.5,0.33,0.29,0.55,0.58,0.25,0.55,0.95,0.25,0.95,0.25,0.25,0.55,0.78,0.25,0.76,0.25,0.25,0.55,1.0,0.25,0.67,0.25,0.25,0.55,0.71,0.25,0.76,0.25,0.33,0.95,0.25,0.55,0.5,0.58,0.61,0.55,0.95,0.25,0.79,0.25,0.25" style="fill:rgb(0,0,0);font-family:URWPalladioL-Roma;font-size:8.97px;stroke:none;">formal analysis, A.G.; funding acquisition, M.M. and A.G.; investigation, M.M., A.G., W.Z., C.G.-M. and M.O.;</text>
   <text y="520.852" x="76.535,84.405,88.674,91.579,96.767,101.633,107.078,111.945,114.538,119.405,124.36,128.317,130.5595,132.791,141.223,143.451,151.882,154.11,156.35250000000002,158.575,166.659,168.887,174.832,177.06,179.3025,181.534,187.853,190.082,196.882,199.11,202.078,210.509,212.7515,214.974,219.431,224.618,230.0897,232.309,240.741,242.969,249.974,252.202,254.4445,256.668,260.446,265.313,268.281,271.186,278.619,283.076,286.436,290.705,292.9475,295.17,303.263,305.491,311.435,313.6775,315.901,320.357,325.544,331.0157,333.227,341.658,343.886,350.892,353.12,355.3625,357.594,361.373,366.747,372.104,376.373,379.893,384.929,387.522,391.301,393.895,398.761,403.948,406.1905,408.413,415.347,417.576,424.376,426.604,428.8465,431.069,436.105,438.698,442.477,447.852,452.308,454.902,457.495,461.951,466.408,469.313,471.907,476.773,481.96,484.2025,486.434,492.753,494.981,501.782,504.01,506.978,515.409,517.637" svgx:width="0.88,0.48,0.33,0.58,0.55,0.61,0.55,0.29,0.55,0.56,0.56,0.25,0.55,0.95,0.25,0.95,0.25,0.25,0.55,1.0,0.25,0.67,0.25,0.25,0.55,0.71,0.25,0.76,0.25,0.33,0.95,0.25,0.55,0.5,0.58,0.61,0.55,0.95,0.25,0.79,0.25,0.25,0.55,0.42,0.55,0.33,0.33,0.83,0.5,0.4,0.48,0.25,0.55,1.0,0.25,0.67,0.25,0.55,0.5,0.58,0.61,0.55,0.95,0.25,0.79,0.25,0.25,0.55,0.42,0.6,0.6,0.48,0.4,0.56,0.29,0.42,0.29,0.55,0.58,0.25,0.55,0.78,0.25,0.76,0.25,0.25,0.55,0.56,0.29,0.42,0.6,0.5,0.29,0.29,0.5,0.5,0.33,0.29,0.55,0.58,0.25,0.55,0.71,0.25,0.76,0.25,0.33,0.95,0.25,0.25" style="fill:rgb(0,0,0);font-family:URWPalladioL-Roma;font-size:8.97px;stroke:none;">methodology, M.M., W.Z., C.G.-M. and M.O.; software, W.Z. and M.O.; supervision, A.G.; visualization, C.G.-M.;</text>
   <text y="530.984" x="76.159,83.697,87.267,89.897,92.843,95.473,100.734,105.759,114.797,119.732,123.302,125.932,130.957,133.587,138.847,143.367,145.9683,148.229,153.751,157.321,161.84,164.85,167.797,170.0395,172.289,180.839,183.098,191.648,193.8905,196.14,200.659,205.919,211.3907,213.674,220.082,222.342,229.238,231.497,234.507,243.057,245.317,247.5595,249.809,257.346,260.917,263.547,266.493,269.123,274.383,279.409,288.447,291.854,296.183,301.29,303.92,308.249,315.69410000000005,318.019,322.539,327.799,333.2707,335.553,339.883,345.405,348.035,350.982,353.612,358.872,363.897,366.1395,368.389,375.421,377.68,384.576,386.836,389.0785,391.328,399.543,401.803,407.831,410.0735,412.323,416.842,422.103,427.5747,429.857,438.407,440.667,447.771,450.0135,452.263,459.295,461.925,464.5263,466.778,471.297,476.747,479.694,484.954,489.889,493.459,497.2264,499.523,504.783,509.303,514.409" svgx:width="0.83,0.4,0.29,0.33,0.29,0.58,0.56,1.0,0.55,0.4,0.29,0.56,0.29,0.58,0.5,0.29,0.55,0.61,0.4,0.5,0.33,0.33,0.25,0.55,0.95,0.25,0.95,0.25,0.55,0.5,0.58,0.61,0.55,0.71,0.25,0.76,0.25,0.33,0.95,0.25,0.25,0.55,0.83,0.4,0.29,0.33,0.29,0.58,0.56,1.0,0.4,0.48,0.56,0.29,0.48,0.83,0.55,0.5,0.58,0.61,0.55,0.48,0.61,0.29,0.33,0.29,0.58,0.56,0.25,0.55,0.78,0.25,0.76,0.25,0.25,0.55,1.0,0.25,0.67,0.25,0.55,0.5,0.58,0.61,0.55,0.95,0.25,0.79,0.25,0.55,0.78,0.29,0.29,0.55,0.5,0.6,0.33,0.58,0.55,0.4,0.42,0.55,0.58,0.5,0.56,0.48" style="fill:rgb(0,0,0);font-family:URWPalladioL-Roma;font-size:8.97px;stroke:none;">writing—original draft, M.M. and C.G.-M.; writing—review and editing, A.G., W.Z. and M.O. All authors have</text>
   <text y="541.117" x="76.535,79.915,84.21,88.693,94.1647,96.414,100.897,106.115,111.5867,113.835,118.318,123.304,126.684,130.979,135.274,140.7457,142.994,145.917,150.8505,153.054,155.977,161.196,165.5016,167.732,173.121,178.528,183.486,186.095,188.705,192.506,197.725,202.02,207.4917,209.74,214.806,219.101,222.643,226.444,229.053,233.949,239.1516,241.409,246.305,249.26510000000002,251.532,254.455,259.674,263.9796,266.21,274.128,278.611,283.829,289.236,293.038,297.019,300.561,303.17,308.559,311.482" svgx:width="0.4,0.48,0.5,0.61,0.55,0.5,0.58,0.61,0.55,0.5,0.56,0.4,0.48,0.48,0.61,0.55,0.33,0.55,0.55,0.33,0.58,0.48,0.55,0.6,0.6,0.55,0.29,0.29,0.42,0.58,0.48,0.61,0.55,0.56,0.48,0.4,0.42,0.29,0.55,0.58,0.55,0.55,0.33,0.55,0.33,0.58,0.48,0.55,0.88,0.5,0.58,0.6,0.42,0.44,0.4,0.29,0.6,0.33,0.25" style="fill:rgb(0,0,0);font-family:URWPalladioL-Roma;font-size:8.97px;stroke:none;">read and agreed to the published version of the manuscript.</text>
   <text y="557.226" x="76.535,81.52,86.999,92.477,97.956,100.942,106.42,111.405" svgx:width="0.56,0.61,0.61,0.61,0.33,0.61,0.56,0.25" style="fill:rgb(0,0,0);font-family:URWPalladioL-Bold;font-size:8.97px;stroke:none;">Funding:</text>
   <text y="557.226" x="119.257,124.863,130.186,134.4916,138.042,143.575,148.898,153.471,158.794,162.855,165.516,170.089,172.6903,176.226,180.104,185.618,191.115,196.612,201.605,205.218,208.1781,211.675,216.668,219.62810000000002,223.198,226.18,231.503,235.80859999999998,239.359,246.959,251.532,254.513,257.175,262.168,267.491,272.064,274.6653,278.201,283.002,287.063,289.724,294.105,299.428,303.488,307.7936,311.345,317.829,322.21,327.533,330.514,334.895,337.849,340.0915,343.922,349.446,354.439,357.101,361.674,366.996,372.584,374.8265,378.657,381.319,385.0864,388.672,393.757,397.369,401.942,404.924,409.305,412.35,417.865,420.526,423.188,428.21119999999996,431.748,436.321,440.382,445.467,450.79,455.783,463.411,466.072,470.453,476.041,481.126,485.507,491.095,493.33750000000003,497.168,502.253,505.865,510.438,515.761" svgx:width="0.61,0.58,0.48,0.55,0.61,0.58,0.5,0.58,0.44,0.29,0.5,0.29,0.55,0.42,0.6,0.6,0.6,0.55,0.4,0.33,0.55,0.55,0.33,0.55,0.33,0.58,0.48,0.55,0.83,0.5,0.33,0.29,0.55,0.58,0.5,0.29,0.55,0.52,0.44,0.29,0.48,0.58,0.44,0.48,0.55,0.71,0.48,0.58,0.33,0.48,0.4,0.25,0.55,0.6,0.55,0.29,0.5,0.58,0.61,0.25,0.55,0.29,0.42,0.55,0.56,0.4,0.5,0.33,0.48,0.33,0.6,0.29,0.29,0.56,0.55,0.5,0.44,0.56,0.58,0.55,0.83,0.29,0.48,0.61,0.56,0.48,0.61,0.25,0.55,0.56,0.4,0.5,0.58,0.33" style="fill:rgb(0,0,0);font-family:URWPalladioL-Roma;font-size:8.97px;stroke:none;">The ﬁnancial support of the National Science Center, Poland, is gratefully acknowledged, grant</text>
   <text y="567.358" x="76.535,81.753,86.649,88.89150000000001,91.132,95.616,100.099,104.582" svgx:width="0.58,0.55,0.25,0.55,0.5,0.5,0.5,0.5" style="fill:rgb(0,0,0);font-family:URWPalladioL-Roma;font-size:8.97px;stroke:none;">no. 2017</text>
   <text y="567.358" x="109.065" svgx:width="0.29" style="fill:rgb(0,0,0);font-family:Rpxr;font-size:8.97px;stroke:none;">/</text>
   <text y="567.358" x="111.639,116.122" svgx:width="0.5,0.5" style="fill:rgb(0,0,0);font-family:URWPalladioL-Roma;font-size:8.97px;stroke:none;">27</text>
   <text y="567.358" x="120.605" svgx:width="0.29" style="fill:rgb(0,0,0);font-family:Rpxr;font-size:8.97px;stroke:none;">/</text>
   <text y="567.358" x="123.178" svgx:width="0.61" style="fill:rgb(0,0,0);font-family:URWPalladioL-Roma;font-size:8.97px;stroke:none;">B</text>
   <text y="567.358" x="128.657" svgx:width="0.29" style="fill:rgb(0,0,0);font-family:Rpxr;font-size:8.97px;stroke:none;">/</text>
   <text y="567.358" x="131.23,135.937,141.434" svgx:width="0.52,0.61,0.5" style="fill:rgb(0,0,0);font-family:URWPalladioL-Roma;font-size:8.97px;stroke:none;">ST8</text>
   <text y="567.358" x="145.917" svgx:width="0.29" style="fill:rgb(0,0,0);font-family:Rpxr;font-size:8.97px;stroke:none;">/</text>
   <text y="567.358" x="148.49,152.973,157.456,161.94,166.423,170.906" svgx:width="0.5,0.5,0.5,0.5,0.5,0.25" style="fill:rgb(0,0,0);font-family:URWPalladioL-Roma;font-size:8.97px;stroke:none;">02864.</text>
   <text y="583.468" x="76.186,83.162,87.143,92.621,98.1,103.085,110.554,113.54,118.023,123.502,128.487,136.458,140.941,146.42,149.406,153.387" svgx:width="0.78,0.44,0.61,0.61,0.56,0.83,0.33,0.5,0.61,0.56,0.89,0.5,0.61,0.33,0.44,0.25" style="fill:rgb(0,0,0);font-family:URWPalladioL-Bold;font-size:8.97px;stroke:none;">Acknowledgments:</text>
   <text y="583.468" x="158.759,167.089,169.3315,171.517,179.847,184.654,188.132,192.535,199.878,202.441,206.658,210.60479999999998,212.795,217.198,221.107,226.003,231.127,235.935,243.278,245.84,250.058,255.438,260.333,264.551,268.3184,270.512,273.382,278.507,282.81260000000003,284.952,288.686,293.995,299.287,304.579,309.386,312.864,315.8241,317.962,320.894,324.214,329.021,339.024,341.894,347.019,351.32460000000003,353.464,357.197,361.107,366.231,371.039,373.601,378.003,381.481,385.215,390.339,392.901,398.283,400.421,403.353,408.662,413.787,419.2587,421.394,426.202,429.1621,431.362,434.232,439.357,443.66260000000005,445.802,450.424,452.987,455.549,459.767,463.5,466.062,470.465,475.6676,477.826,484.676,489.8,492.363,497.337,501.555,505.033,508.766,511.32,514.19" svgx:width="0.95,0.25,0.55,0.95,0.55,0.4,0.5,0.83,0.29,0.48,0.44,0.55,0.5,0.44,0.56,0.58,0.55,0.83,0.29,0.48,0.61,0.56,0.48,0.42,0.55,0.33,0.58,0.48,0.55,0.42,0.6,0.6,0.6,0.55,0.4,0.33,0.55,0.33,0.4,0.55,0.88,0.33,0.58,0.48,0.55,0.42,0.44,0.58,0.55,0.29,0.5,0.4,0.42,0.58,0.29,0.6,0.55,0.33,0.6,0.58,0.61,0.55,0.55,0.33,0.55,0.33,0.58,0.48,0.55,0.52,0.29,0.29,0.48,0.42,0.29,0.5,0.58,0.55,0.78,0.58,0.29,0.56,0.48,0.4,0.42,0.29,0.33,0.56" style="fill:rgb(0,0,0);font-family:URWPalladioL-Roma;font-size:8.97px;stroke:none;">M. Morawiec acknowledges the support fromthe scholarship fund of the Silesian University</text>
   <text y="593.6" x="76.535,81.529,84.4891,87.19,91.964,96.345,100.405,105.728,111.051,116.045,118.706,123.7,128.785,133.8082,136.485,139.147,144.34959999999998,147.076,151.649,156.222,160.795,165.367,167.6095,171.907,178.391,180.6335,183.293,190.271,194.844,198.292,202.353,205.014,209.587,212.633,221.284,225.857,228.839,233.22,238.1535,240.82,248.447,253.441,258.956,261.617,267.0887,269.821,272.482,275.144,280.229,284.5346,287.225,290.207,295.1405,297.807,302.38,306.44,311.525,316.848,321.842,329.469,332.131,336.511,342.099,347.185,351.49060000000003,354.181,357.163,362.485,366.79060000000004,369.473,373.35,378.865,384.362,389.858,394.852,398.465,401.4251,404.062,409.055,412.0151,414.707,417.689,423.012,427.3176,430.008,435.532,440.855,445.428,449.306,453.6116,456.293,461.095,464.707,469.28,474.603,478.481,481.526,486.52,490.132,498.208,502.781,505.762,508.424,513.417" svgx:width="0.55,0.33,0.55,0.61,0.48,0.44,0.58,0.58,0.55,0.29,0.55,0.56,0.56,0.55,0.29,0.58,0.55,0.5,0.5,0.5,0.5,0.25,0.55,0.71,0.25,0.55,0.76,0.5,0.4,0.44,0.29,0.5,0.33,0.95,0.5,0.33,0.48,0.55,0.55,0.83,0.55,0.6,0.29,0.61,0.55,0.29,0.29,0.56,0.48,0.55,0.33,0.55,0.55,0.5,0.44,0.56,0.58,0.55,0.83,0.29,0.48,0.61,0.56,0.48,0.55,0.33,0.58,0.48,0.55,0.42,0.6,0.6,0.6,0.55,0.4,0.33,0.55,0.55,0.33,0.55,0.33,0.58,0.48,0.55,0.6,0.58,0.5,0.42,0.48,0.55,0.61,0.4,0.5,0.58,0.42,0.33,0.55,0.4,0.88,0.5,0.33,0.29,0.55,0.58" style="fill:rgb(0,0,0);font-family:URWPalladioL-Roma;font-size:8.97px;stroke:none;">of Technology in 2019. C. Garcia-Mateo would like to acknowledge the support of the Phase Transformation</text>
   <text y="603.732" x="76.535,82.013,86.497,91.455,96.351,99.892,104.376,107.299,112.194,115.736,120.7592,122.963,127.446,130.4061,132.611,138.968,144.447,151.898,154.919,163.401" svgx:width="0.61,0.5,0.55,0.55,0.4,0.5,0.33,0.55,0.4,0.56,0.55,0.5,0.33,0.55,0.71,0.61,0.83,0.34,0.95,0.25" style="fill:rgb(0,0,0);font-family:URWPalladioL-Roma;font-size:8.97px;stroke:none;">Laboratory at CENIM.</text>
   <text y="619.842" x="76.535,83.009,87.994,93.473,98.951,101.937,105.918,108.904,112.85079999999999,115.126,120.112,123.6103,125.841,129.329,134.808,137.793,142.277,145.765,150.248,154.229,157.215" svgx:width="0.72,0.56,0.61,0.61,0.33,0.44,0.33,0.44,0.55,0.56,0.39,0.55,0.39,0.61,0.33,0.5,0.39,0.5,0.44,0.33,0.25" style="fill:rgb(0,0,0);font-family:URWPalladioL-Bold;font-size:8.97px;stroke:none;">Conﬂicts of Interest:</text>
   <text y="619.842" x="162.594,168.09,173.309,177.6146,179.845,184.329,189.735,192.658,197.877,202.772,206.314,210.0814,212.358,217.836,222.131,226.112,228.721,233.204,236.585,240.8906,243.121,248.34,253.2735,255.477,259.458,264.354,269.572,275.024,277.633,281.614,284.537,288.3044,290.58,295.476,298.4361,300.703,303.313,308.531,311.454,315.749,319.129,323.424,327.226,330.149" svgx:width="0.61,0.58,0.48,0.55,0.5,0.6,0.33,0.58,0.55,0.4,0.42,0.55,0.61,0.48,0.44,0.29,0.5,0.4,0.48,0.55,0.58,0.55,0.55,0.44,0.55,0.58,0.61,0.29,0.44,0.33,0.42,0.55,0.55,0.33,0.55,0.29,0.58,0.33,0.48,0.4,0.48,0.42,0.33,0.25" style="fill:rgb(0,0,0);font-family:URWPalladioL-Roma;font-size:8.97px;stroke:none;">The authors declare no conﬂicts of interest.</text>
   <text y="646.143" x="76.535,83.728,88.709,92.585,97.566,101.441,106.423,112.51,116.933,121.915" svgx:width="0.72,0.5,0.39,0.5,0.39,0.5,0.61,0.44,0.5,0.44" style="fill:rgb(0,0,0);font-family:URWPalladioL-Bold;font-size:9.96px;stroke:none;">References</text>
   <text y="665.032" x="76.535,81.018,83.26050000000001,98.05,104.782,108.267,112.678,114.743,118.66,123.072,125.895,128.1375,130.333,137.197,139.403,141.6455,143.85,150.255,157.614,162.025,165.766,170.901,174.81,177.0525,179.248,187.25,189.456,191.6985,193.902,199.787,204.199,206.766,210.984,214.901,219.807,222.374,224.6165,226.821,234.814,237.0565,239.261,247.608,250.175,254.092,257.41,262.227,265.968,268.844,272.259,277.579,281.497,284.373,289.693,293.019,297.245,300.184,305.486,308.812,313.63,318.932,323.158,326.643,329.52,334.54319999999996,336.658,339.984,344.21,346.777,351.189,354.065,356.633,361.45,366.585,370.326,375.461,378.028,383.331,387.0984,389.304,391.871,397.0736,399.239,404.647,410.541,413.514,418.896,421.084,425.496,428.063,433.454,437.68,443.1517,445.303,453.094,457.32,462.711,465.278,470.598,478.389,481.327,487.6957,489.824,494.703,499.114,501.682,506.817,509.384,512.252,514.819" svgx:width="0.5,0.25,0.55,0.76,0.4,0.5,0.23,0.44,0.5,0.4,0.25,0.55,0.78,0.25,0.25,0.55,0.73,0.83,0.5,0.42,0.58,0.56,0.25,0.55,1.0,0.25,0.25,0.55,0.67,0.5,0.29,0.48,0.44,0.56,0.29,0.25,0.55,1.0,0.25,0.55,0.95,0.29,0.44,0.4,0.55,0.42,0.33,0.4,0.6,0.44,0.33,0.6,0.4,0.48,0.33,0.6,0.4,0.55,0.6,0.48,0.4,0.33,0.56,0.55,0.4,0.48,0.29,0.5,0.33,0.29,0.55,0.58,0.42,0.58,0.29,0.6,0.42,0.55,0.29,0.58,0.55,0.61,0.67,0.34,0.6,0.55,0.5,0.29,0.61,0.48,0.61,0.55,0.88,0.48,0.61,0.29,0.6,0.88,0.33,0.71,0.55,0.55,0.5,0.29,0.58,0.29,0.33,0.29,0.44" style="fill:rgb(0,0,0);font-family:URWPalladioL-Roma;font-size:8.97px;stroke:none;">1. Grajcar, A.; Kwasny, W.; Zalecki, W. Microstructure-property relationships in TRIP aided medium-C bainitic</text>
   <text y="677.944" x="98.05,101.852,104.775,109.07,113.365,115.96629999999999,118.215,125.693,128.303,131.226,136.4286,138.686,141.295,145.778,153.695,157.99,160.6,163.209,167.692,171.28,173.475,176.856,181.151,184.074,188.557,191.166,196.385,200.679,206.1507,208.4,212.883,218.289,222.091,225.014,229.309,234.528,237.137,240.06,244.355" svgx:width="0.42,0.33,0.48,0.48,0.29,0.55,0.83,0.29,0.33,0.58,0.55,0.29,0.5,0.88,0.48,0.29,0.29,0.5,0.4,0.55,0.4,0.48,0.33,0.5,0.29,0.58,0.48,0.61,0.55,0.5,0.6,0.42,0.33,0.48,0.58,0.29,0.33,0.48,0.25" style="fill:rgb(0,0,0);font-family:URWPalladioL-Roma;font-size:8.97px;stroke:none;">steel with lamellar retained austenite.</text>
   <text y="677.944" x="249.733,258.197,262.178,265.164,268.652,271.477,273.7195,276.856,281.842,285.491,287.984,290.2265,293.363,297.847,301.335,304.984,309.467,314.452,318.434,320.926" svgx:width="0.94,0.44,0.33,0.39,0.39,0.25,0.55,0.56,0.41,0.28,0.25,0.55,0.61,0.39,0.41,0.5,0.56,0.44,0.28,0.25" style="fill:rgb(0,0,0);font-family:URWPalladioL-Ital;font-size:8.97px;stroke:none;">Mater. Sci. Technol.</text>
   <text y="677.944" x="326.305,330.788,335.271,339.755" svgx:width="0.5,0.5,0.5,0.5" style="fill:rgb(0,0,0);font-family:URWPalladioL-Bold;font-size:8.97px;stroke:none;">2015</text>
   <text y="677.944" x="344.237" svgx:width="0.25" style="fill:rgb(0,0,0);font-family:URWPalladioL-Roma;font-size:8.97px;stroke:none;">,</text>
   <text y="677.944" x="348.72,353.203" svgx:width="0.5,0.5" style="fill:rgb(0,0,0);font-family:URWPalladioL-Ital;font-size:8.97px;stroke:none;">31</text>
   <text y="677.944" x="357.687,359.9295,362.17,366.653,371.137,375.62,380.103,384.586,389.07,393.553,395.7955,398.933" svgx:width="0.25,0.55,0.5,0.5,0.5,0.5,0.5,0.5,0.5,0.25,0.55,0.33" style="fill:rgb(0,0,0);font-family:URWPalladioL-Roma;font-size:8.97px;stroke:none;">, 781–794. [</text>
   <text y="677.944" x="401.918,408.276,411.656,416.552,420.353,424.155,430.145,434.44" svgx:width="0.71,0.4,0.55,0.42,0.42,0.67,0.48,0.33" style="fill:rgb(8,117,183);font-family:URWPalladioL-Roma;font-size:8.97px;stroke:none;">CrossRef</text>
   <text y="677.944" x="437.425" svgx:width="0.33" style="fill:rgb(0,0,0);font-family:URWPalladioL-Roma;font-size:8.97px;stroke:none;">]</text>
   <text y="690.855" x="76.535,81.018,83.26050000000001,98.05,104.755,108.225,112.619,114.675,118.577,122.97,125.782,128.0245,129.833,136.669,138.866,141.10850000000002,143.04,148.91,153.303,158.672,166.0,170.394,175.508,179.234,184.119,186.676,188.9185,190.727,197.107,199.3495,201.157,209.47,212.027,215.929,219.241,224.039,227.765,230.629,234.03,239.329,243.23,246.095,251.393,254.864,259.258,261.85929999999996,263.669,267.57,272.368,280.127,285.408,289.801,293.272,295.829,299.555,304.353,309.5556,311.321,316.119,319.07910000000004,320.899,323.763,328.877,333.18260000000004,334.941,337.805,342.919,347.128,350.599,358.358,363.156,370.915,375.124,379.025,384.139,388.533,393.647,396.204,400.105,404.499,407.056,409.613,414.6362,416.353,419.217,422.521,426.73,431.124,433.988,438.197,443.6687,445.42,449.814,454.928,460.3997,462.151,466.052,470.85,473.407,478.8787,480.63,485.999,490.208,493.134,497.932,501.403,509.162,513.371" svgx:width="0.5,0.25,0.55,0.76,0.4,0.5,0.23,0.44,0.5,0.4,0.25,0.55,0.78,0.25,0.25,0.55,0.67,0.5,0.61,0.83,0.5,0.58,0.42,0.56,0.29,0.25,0.55,0.73,0.25,0.55,0.95,0.29,0.44,0.4,0.55,0.42,0.33,0.4,0.6,0.44,0.33,0.6,0.4,0.5,0.29,0.55,0.44,0.55,0.88,0.6,0.5,0.4,0.29,0.42,0.55,0.58,0.55,0.55,0.33,0.55,0.33,0.58,0.48,0.55,0.33,0.58,0.48,0.4,0.88,0.55,0.88,0.48,0.44,0.58,0.5,0.58,0.29,0.44,0.5,0.29,0.29,0.56,0.55,0.33,0.4,0.48,0.5,0.33,0.48,0.61,0.55,0.5,0.58,0.61,0.55,0.44,0.55,0.29,0.61,0.55,0.61,0.48,0.33,0.55,0.4,0.88,0.48,0.61" style="fill:rgb(0,0,0);font-family:URWPalladioL-Roma;font-size:8.97px;stroke:none;">2. Grajcar, A.; Radwanski, K. Microstructural comparison of the thermomechanically treated and cold deformed</text>
   <text y="703.767" x="98.05,105.501,110.46,113.445,121.363,123.972,127.953,131.333,136.229,140.712,143.321,145.931,150.826,155.812,160.106,165.5777,167.827,173.323,179.313,182.334,187.716,189.991,193.793,196.716,201.011,205.306,207.915" svgx:width="0.83,0.55,0.33,0.88,0.29,0.44,0.4,0.55,0.5,0.29,0.29,0.55,0.56,0.48,0.61,0.55,0.61,0.67,0.34,0.6,0.55,0.42,0.33,0.48,0.48,0.29,0.25" style="fill:rgb(0,0,0);font-family:URWPalladioL-Roma;font-size:8.97px;stroke:none;">Nb-microalloyed TRIP steel.</text>
   <text y="703.767" x="213.294,221.758,225.739,228.725,232.213,235.038,237.28050000000002,240.417,244.901,248.388,252.038,256.521,261.506,265.487,267.98" svgx:width="0.94,0.44,0.33,0.39,0.39,0.25,0.55,0.61,0.39,0.41,0.5,0.56,0.44,0.28,0.25" style="fill:rgb(0,0,0);font-family:URWPalladioL-Ital;font-size:8.97px;stroke:none;">Mater. Technol.</text>
   <text y="703.767" x="273.359,277.842,282.325,286.809" svgx:width="0.5,0.5,0.5,0.5" style="fill:rgb(0,0,0);font-family:URWPalladioL-Bold;font-size:8.97px;stroke:none;">2014</text>
   <text y="703.767" x="291.292" svgx:width="0.25" style="fill:rgb(0,0,0);font-family:URWPalladioL-Roma;font-size:8.97px;stroke:none;">,</text>
   <text y="703.767" x="295.775,300.258" svgx:width="0.5,0.5" style="fill:rgb(0,0,0);font-family:URWPalladioL-Ital;font-size:8.97px;stroke:none;">48</text>
   <text y="703.767" x="304.741,306.9835,309.224,313.707,318.191,322.674,327.157,331.64,336.124,340.607" svgx:width="0.25,0.55,0.5,0.5,0.5,0.5,0.5,0.5,0.5,0.25" style="fill:rgb(0,0,0);font-family:URWPalladioL-Roma;font-size:8.97px;stroke:none;">, 679–683.</text>
   <text y="716.679" x="76.535,81.018,83.26050000000001,98.05,102.852,110.927,113.589,118.674,121.335,125.716,133.343,136.005,140.065,144.638,146.8805,150.455,157.57,159.857,162.0995,166.323,169.368,173.941,178.999,181.66,186.654,191.977,195.854,200.939,205.512,207.7545,211.329,219.981,222.267,227.855,230.0975,233.672,239.278,244.601,248.9066,252.521" svgx:width="0.5,0.25,0.55,0.52,0.88,0.29,0.56,0.29,0.48,0.83,0.29,0.44,0.5,0.25,0.55,0.78,0.25,0.25,0.55,0.33,0.5,0.55,0.29,0.55,0.58,0.42,0.56,0.5,0.25,0.55,0.95,0.25,0.61,0.25,0.55,0.61,0.58,0.48,0.55,0.48" style="fill:rgb(0,0,0);font-family:URWPalladioL-Roma;font-size:8.97px;stroke:none;">3. Smiglewicz, A.; Jablonska, M.B. The e</text>
   <text y="716.679" x="256.898" svgx:width="0.61" style="fill:rgb(0,0,0);font-family:Rpxr;font-size:8.97px;stroke:none;">ﬀ</text>
   <text y="716.679" x="262.459,266.84,270.901,273.8611,277.412,282.406,285.3661,288.982,292.859,295.841,299.453,304.026,306.688,311.8906,315.55,319.162,323.735,326.717,331.0226,334.628,339.621,344.8236,348.475,351.456,356.779,361.0846,364.69,367.351,375.427,380.924,385.496,389.557,392.5171,396.069,399.947,402.928,406.385,410.766,416.089,421.174,424.155,429.3576,433.008,438.002,440.9621,444.578,447.559,452.882,457.18760000000003,460.793,466.116,468.777,473.862,479.185,482.231,490.883,496.0856,499.745,503.623,506.604,510.985,515.366,518.027" svgx:width="0.48,0.44,0.33,0.55,0.55,0.33,0.55,0.42,0.33,0.4,0.5,0.29,0.58,0.55,0.4,0.5,0.33,0.48,0.55,0.55,0.58,0.55,0.33,0.58,0.48,0.55,0.29,0.88,0.6,0.5,0.44,0.33,0.55,0.42,0.33,0.4,0.48,0.58,0.56,0.33,0.58,0.55,0.55,0.33,0.55,0.33,0.58,0.48,0.55,0.58,0.29,0.56,0.58,0.33,0.95,0.58,0.55,0.42,0.33,0.48,0.48,0.29,0.25" style="fill:rgb(0,0,0);font-family:URWPalladioL-Roma;font-size:8.97px;stroke:none;">ect of strain rate on the impact strength of the high-Mn steel.</text>
   <text y="729.59" x="98.05,106.514,110.002,112.988,116.969,119.462,124.447,127.774,132.257,134.749,137.242" svgx:width="0.94,0.39,0.33,0.44,0.28,0.56,0.39,0.5,0.28,0.28,0.44" style="fill:rgb(0,0,0);font-family:URWPalladioL-Ital;font-size:8.97px;stroke:none;">Metalurgija</text>
   <text y="729.59" x="143.464,147.947,152.43,156.914" svgx:width="0.5,0.5,0.5,0.5" style="fill:rgb(0,0,0);font-family:URWPalladioL-Bold;font-size:8.97px;stroke:none;">2015</text>
   <text y="729.59" x="161.397" svgx:width="0.25" style="fill:rgb(0,0,0);font-family:URWPalladioL-Roma;font-size:8.97px;stroke:none;">,</text>
   <text y="729.59" x="165.88,170.363" svgx:width="0.5,0.5" style="fill:rgb(0,0,0);font-family:URWPalladioL-Ital;font-size:8.97px;stroke:none;">54</text>
   <text y="729.59" x="174.847,177.08950000000002,179.33,183.813,188.297,192.78,197.263,201.746,206.229,210.713" svgx:width="0.25,0.55,0.5,0.5,0.5,0.5,0.5,0.5,0.5,0.25" style="fill:rgb(0,0,0);font-family:URWPalladioL-Roma;font-size:8.97px;stroke:none;">, 631–634.</text>
   <text y="742.502" x="76.535,81.018,83.26050000000001,98.05,104.83,108.34,112.782,114.862,118.807,123.25,126.093,128.3355,130.563,137.476,139.697,141.9395,144.158,148.823,153.763,157.273,161.716,166.656,171.997,175.942,180.385,185.325,190.266,192.5085,194.735,198.947,201.169,203.41150000000002,205.629,213.688,218.54,222.983,228.154,230.74,235.183,240.123,242.3655,244.593,251.47,253.7125,255.931,261.378,266.549,270.806,274.316,282.162,287.013,294.859,299.116,303.061,308.232,312.675,317.847,320.432,324.378,328.82,331.406,333.992,339.0152,341.172,344.522,349.373,351.959,354.545,358.801,364.2727,366.478,374.324,378.581,384.01,386.595,391.954,399.8,402.759,411.164,416.3666,418.575,422.343,425.239,429.496,433.752,436.338,440.10540000000003,442.353,446.29,451.141,456.313,459.209,463.652,466.238,471.41,473.995,479.167,484.19019999999995,486.355,489.705,493.961,496.858,501.301,503.887,509.058,513.315" svgx:width="0.5,0.25,0.55,0.76,0.4,0.5,0.23,0.44,0.5,0.4,0.25,0.55,0.78,0.25,0.25,0.55,0.52,0.56,0.4,0.5,0.56,0.6,0.44,0.5,0.56,0.56,0.25,0.55,0.6,0.25,0.25,0.55,1.0,0.55,0.5,0.58,0.29,0.5,0.56,0.25,0.55,0.77,0.25,0.55,0.61,0.58,0.48,0.4,0.88,0.55,0.88,0.48,0.44,0.58,0.5,0.58,0.29,0.44,0.5,0.29,0.29,0.56,0.55,0.4,0.55,0.29,0.29,0.48,0.61,0.55,0.88,0.48,0.61,0.29,0.6,0.88,0.33,0.95,0.58,0.55,0.42,0.33,0.48,0.48,0.29,0.42,0.55,0.44,0.55,0.58,0.33,0.5,0.29,0.58,0.29,0.58,0.56,0.55,0.4,0.48,0.33,0.5,0.29,0.58,0.48,0.61" style="fill:rgb(0,0,0);font-family:URWPalladioL-Roma;font-size:8.97px;stroke:none;">4. Grajcar, A.; Skrzypczyk, P.; Wozniak, D. Thermomechanically rolled medium-Mn steels containing retained</text>
   <text y="755.413" x="98.05,102.533,107.94,111.742,114.665,118.96,124.178,126.787,129.71,134.005" svgx:width="0.5,0.6,0.42,0.33,0.48,0.58,0.29,0.33,0.48,0.25" style="fill:rgb(0,0,0);font-family:URWPalladioL-Roma;font-size:8.97px;stroke:none;">austenite.</text>
   <text y="755.413" x="139.385,145.859,149.185,152.835,157.318,159.56050000000002,162.698,171.162,174.65,177.636,181.617,184.109,186.602,188.8445,191.982,200.446,204.427,207.413,210.901,213.725" svgx:width="0.72,0.39,0.41,0.5,0.25,0.55,0.94,0.39,0.33,0.44,0.28,0.28,0.25,0.55,0.94,0.44,0.33,0.39,0.39,0.25" style="fill:rgb(0,0,0);font-family:URWPalladioL-Ital;font-size:8.97px;stroke:none;">Arch. Metall. Mater.</text>
   <text y="755.413" x="219.104,223.587,228.07,232.554" svgx:width="0.5,0.5,0.5,0.5" style="fill:rgb(0,0,0);font-family:URWPalladioL-Bold;font-size:8.97px;stroke:none;">2014</text>
   <text y="755.413" x="237.037" svgx:width="0.25" style="fill:rgb(0,0,0);font-family:URWPalladioL-Roma;font-size:8.97px;stroke:none;">,</text>
   <text y="755.413" x="241.52,246.003" svgx:width="0.5,0.5" style="fill:rgb(0,0,0);font-family:URWPalladioL-Ital;font-size:8.97px;stroke:none;">59</text>
   <text y="755.413" x="250.486,252.7285,254.969,259.452,263.936,268.419,272.902,277.385,281.868,286.352,290.835,295.318,297.5605,300.698" svgx:width="0.25,0.55,0.5,0.5,0.5,0.5,0.5,0.5,0.5,0.5,0.5,0.25,0.55,0.33" style="fill:rgb(0,0,0);font-family:URWPalladioL-Roma;font-size:8.97px;stroke:none;">, 1691–1697. [</text>
   <text y="755.413" x="303.684,310.041,313.421,318.317,322.119,325.92,331.91,336.205" svgx:width="0.71,0.4,0.55,0.42,0.42,0.67,0.48,0.33" style="fill:rgb(8,117,183);font-family:URWPalladioL-Roma;font-size:8.97px;stroke:none;">CrossRef</text>
   <text y="755.413" x="339.191" svgx:width="0.33" style="fill:rgb(0,0,0);font-family:URWPalladioL-Roma;font-size:8.97px;stroke:none;">]</text>
  </g>
 </g>
</svg>
