<?xml version="1.0" encoding="UTF-8"?>
<svg height="193.504" width="2587.56" xmlns="http://www.w3.org/2000/svg">
 <g id="page" xmlns:svgx="http://www.xml-cml.org/schema/svgx">
  <g begin="text">
   <text y="62.979" x="76.535,84.059,87.598,90.252,93.352,96.452,98.668,102.207,104.422" svgx:width="0.94,0.44,0.33,0.39,0.39,0.28,0.44,0.28,0.39" style="fill:rgb(0,0,0);font-family:URWPalladioL-Ital;font-size:7.97px;stroke:none;">Materials</text>
   <text y="62.979" x="109.515,113.5,117.485,121.47" svgx:width="0.5,0.5,0.5,0.5" style="fill:rgb(0,0,0);font-family:URWPalladioL-Bold;font-size:7.97px;stroke:none;">2019</text>
   <text y="62.979" x="125.455" svgx:width="0.25" style="fill:rgb(0,0,0);font-family:URWPalladioL-Roma;font-size:7.97px;stroke:none;">,</text>
   <text y="62.979" x="129.44,133.425" svgx:width="0.5,0.5" style="fill:rgb(0,0,0);font-family:URWPalladioL-Ital;font-size:7.97px;stroke:none;">12</text>
   <text y="62.979" x="137.41,139.4025,141.395,145.38,149.365,153.35,157.335,491.809,495.794,499.779,501.772,506.123,508.7531,510.77,514.755" svgx:width="0.25,0.55,0.5,0.5,0.5,0.5,0.55,0.5,0.5,0.55,0.55,0.33,0.55,0.5,0.5" style="fill:rgb(0,0,0);font-family:URWPalladioL-Roma;font-size:7.97px;stroke:none;">, 1070 11 of 11</text>
   <text y="97.848" x="76.535,81.018,85.501,87.74350000000001,98.05,102.852,108.174,110.836,118.911,121.15350000000001,124.234,127.28,129.566,137.175,139.462,141.7045,145.178,150.766,155.851,161.366,166.689,168.9315,172.002,175.048,177.334,182.136,184.422,186.6645,190.138,196.623,201.946,206.939,209.1815,212.262,217.365,219.652,227.974,230.261,232.5035,235.977,243.165,248.488,250.7305,253.811,258.914,261.201,264.246,266.533,268.7755,272.249,277.05,282.373,285.034,293.11,295.3525,298.424,301.469,303.756,310.835,313.121,315.3635,318.837,324.425,328.806,333.187,335.4295,338.51,345.588,347.875,355.475,357.71750000000003,360.798,369.45,374.6526,377.8,382.372,387.43,391.308,396.301,399.914,405.411,408.392,411.053,416.047,421.24960000000004,424.406,428.467,433.79,438.363,441.975,446.548,450.609,453.59,457.971,461.584,464.245,468.123,471.104,473.766,477.826,481.59340000000003,484.731,489.725,492.68510000000003,495.807,500.919" svgx:width="0.5,0.5,0.25,0.55,0.52,0.58,0.29,0.88,0.25,0.55,0.33,0.25,0.83,0.25,0.25,0.55,0.61,0.56,0.6,0.58,0.25,0.55,0.33,0.25,0.52,0.25,0.25,0.55,0.71,0.58,0.55,0.25,0.55,0.67,0.25,1.0,0.25,0.25,0.55,0.79,0.58,0.25,0.55,0.67,0.25,0.33,0.25,0.25,0.55,0.52,0.58,0.29,0.88,0.25,0.55,0.33,0.25,0.77,0.25,0.25,0.55,0.61,0.48,0.48,0.25,0.55,0.77,0.25,0.83,0.25,0.55,0.95,0.58,0.55,0.5,0.55,0.42,0.55,0.4,0.6,0.33,0.29,0.55,0.58,0.55,0.44,0.58,0.5,0.4,0.5,0.44,0.33,0.48,0.4,0.29,0.42,0.33,0.29,0.44,0.42,0.55,0.55,0.33,0.55,0.61,0.29" style="fill:rgb(0,0,0);font-family:URWPalladioL-Roma;font-size:8.97px;stroke:none;">26. Shim, J.H.; Byun, J.S.; Cho, Y.W.; Oh, Y.J.; Shim, J.D.; Lee, D.N. Mn absorption characteristics of Ti</text>
   <text y="99.597" x="503.582" svgx:width="0.5" style="fill:rgb(0,0,0);font-family:URWPalladioL-Roma;font-size:6.97px;stroke:none;">2</text>
   <text y="97.848" x="507.567" svgx:width="0.79" style="fill:rgb(0,0,0);font-family:URWPalladioL-Roma;font-size:8.97px;stroke:none;">O</text>
   <text y="99.597" x="514.755" svgx:width="0.5" style="fill:rgb(0,0,0);font-family:URWPalladioL-Roma;font-size:6.97px;stroke:none;">3</text>
   <text y="110.76" x="98.05,100.659,105.878,109.859,112.468,117.875,121.676,124.286,129.181,134.4,138.16740000000001,140.443,143.052,148.25459999999998,150.512,153.122,158.017,165.4621,167.737,171.718,176.201,179.743,184.701,189.597,194.7996,197.057,200.859,203.782,208.077,212.372,214.981,218.783" svgx:width="0.29,0.58,0.44,0.29,0.6,0.42,0.29,0.55,0.58,0.42,0.55,0.29,0.58,0.55,0.29,0.55,0.83,0.55,0.44,0.5,0.4,0.55,0.55,0.58,0.55,0.42,0.33,0.48,0.48,0.29,0.42,0.25" style="fill:rgb(0,0,0);font-family:URWPalladioL-Roma;font-size:8.97px;stroke:none;">inclusions in low carbon steels.</text>
   <text y="110.76" x="223.802,228.787,232.437,235.261,237.5035,240.282,248.747,252.728,255.713,259.201,262.026" svgx:width="0.56,0.41,0.39,0.25,0.55,0.94,0.44,0.33,0.39,0.39,0.25" style="fill:rgb(0,0,0);font-family:URWPalladioL-Ital;font-size:8.97px;stroke:none;">Scr. Mater.</text>
   <text y="110.76" x="267.047,271.53,276.013,280.497" svgx:width="0.5,0.5,0.5,0.5" style="fill:rgb(0,0,0);font-family:URWPalladioL-Bold;font-size:8.97px;stroke:none;">2001</text>
   <text y="110.76" x="284.979" svgx:width="0.25" style="fill:rgb(0,0,0);font-family:URWPalladioL-Roma;font-size:8.97px;stroke:none;">,</text>
   <text y="110.76" x="289.462,293.945" svgx:width="0.5,0.5" style="fill:rgb(0,0,0);font-family:URWPalladioL-Ital;font-size:8.97px;stroke:none;">44</text>
   <text y="110.76" x="298.429,300.6715,302.912,307.395,311.879,316.362,320.845,325.328,327.5705,330.349" svgx:width="0.25,0.55,0.5,0.5,0.5,0.5,0.5,0.25,0.55,0.33" style="fill:rgb(0,0,0);font-family:URWPalladioL-Roma;font-size:8.97px;stroke:none;">, 49–54. [</text>
   <text y="110.76" x="333.335,339.692,343.073,347.968,351.77,355.572,361.562,365.856" svgx:width="0.71,0.4,0.55,0.42,0.42,0.67,0.48,0.33" style="fill:rgb(8,117,183);font-family:URWPalladioL-Roma;font-size:8.97px;stroke:none;">CrossRef</text>
   <text y="110.76" x="368.842" svgx:width="0.33" style="fill:rgb(0,0,0);font-family:URWPalladioL-Roma;font-size:8.97px;stroke:none;">]</text>
   <text y="123.672" x="76.535,81.018,85.501,87.74350000000001,98.05,104.019,109.227,113.701,118.909,123.884,126.12650000000001,128.358,135.285,137.522,139.7645,141.996,146.649,150.935,154.47,158.944,162.738,167.213,172.188,174.792,177.0345,179.266,186.711,188.949,191.19150000000002,193.423,199.919,204.805,212.707,215.311,219.785,224.671,226.9135,229.136,234.111,236.349,239.364,241.6065,243.838,246.854,252.0566,254.29,258.084,260.688,263.606,268.988,271.239,276.125,281.073,284.867,289.154,292.688,297.744,302.218,305.135,307.74,312.625,317.8276,320.07,324.956,327.91610000000003,330.164,333.082,338.29,342.59560000000005,344.813,347.793,352.679,356.213,364.115,368.589,371.506,374.11,378.996,384.1986,386.432,391.318,394.2781,396.535,399.139,404.347,407.264,410.799,415.273,420.249,423.783,428.257,433.465,438.861,441.465,445.94,449.528,451.702,456.186,460.15,462.754,466.727,472.123,474.727,479.201,482.78900000000004,484.973,487.953,492.239,495.774,499.308,501.912,504.83,509.1356,511.353,515.827" svgx:width="0.5,0.5,0.25,0.55,0.67,0.58,0.5,0.58,0.56,0.25,0.55,0.77,0.25,0.25,0.55,0.61,0.48,0.4,0.5,0.42,0.5,0.56,0.29,0.25,0.55,0.83,0.25,0.25,0.55,0.73,0.55,0.88,0.29,0.5,0.55,0.25,0.55,0.67,0.25,0.34,0.25,0.55,0.34,0.58,0.55,0.42,0.29,0.33,0.6,0.55,0.55,0.55,0.42,0.48,0.4,0.56,0.5,0.33,0.29,0.55,0.58,0.55,0.55,0.33,0.55,0.33,0.58,0.48,0.55,0.33,0.55,0.4,0.88,0.5,0.33,0.29,0.55,0.58,0.55,0.55,0.33,0.55,0.29,0.58,0.33,0.4,0.5,0.56,0.4,0.5,0.58,0.6,0.29,0.5,0.4,0.55,0.5,0.44,0.29,0.44,0.6,0.29,0.5,0.4,0.55,0.33,0.48,0.4,0.4,0.29,0.33,0.48,0.55,0.5,0.33" style="fill:rgb(0,0,0);font-family:URWPalladioL-Roma;font-size:8.97px;stroke:none;">27. Zhang, D.; Terasaki, H.; Komizo, Y.I. In situ observation of the formation of intragranular acicular ferrite at</text>
   <text y="136.583" x="98.05,103.268,108.164,113.383,116.368,124.286,128.581,131.504,135.987,138.596,141.205,143.815,147.7618,150.037,152.646,157.865,161.846,164.455,169.862,173.664,176.273,181.169,186.387,190.1544,192.43,195.04,200.24259999999998,202.5,208.857,213.34,221.822,227.0246,229.282,233.084,236.007,240.302,244.597,247.206" svgx:width="0.58,0.55,0.58,0.33,0.88,0.48,0.33,0.5,0.29,0.29,0.29,0.44,0.55,0.29,0.58,0.44,0.29,0.6,0.42,0.29,0.55,0.58,0.42,0.55,0.29,0.58,0.55,0.71,0.5,0.95,0.58,0.55,0.42,0.33,0.48,0.48,0.29,0.25" style="fill:rgb(0,0,0);font-family:URWPalladioL-Roma;font-size:8.97px;stroke:none;">non-metallic inclusions in C–Mn steel.</text>
   <text y="136.583" x="252.225,258.699,262.348,265.334,269.2808,271.557,280.021,284.002,286.988,290.476,293.3" svgx:width="0.72,0.41,0.33,0.44,0.55,0.94,0.44,0.33,0.39,0.39,0.25" style="fill:rgb(0,0,0);font-family:URWPalladioL-Ital;font-size:8.97px;stroke:none;">Acta Mater.</text>
   <text y="136.583" x="298.321,302.804,307.287,311.771" svgx:width="0.5,0.5,0.5,0.5" style="fill:rgb(0,0,0);font-family:URWPalladioL-Bold;font-size:8.97px;stroke:none;">2010</text>
   <text y="136.583" x="316.254" svgx:width="0.25" style="fill:rgb(0,0,0);font-family:URWPalladioL-Roma;font-size:8.97px;stroke:none;">,</text>
   <text y="136.583" x="320.737,325.22" svgx:width="0.5,0.5" style="fill:rgb(0,0,0);font-family:URWPalladioL-Ital;font-size:8.97px;stroke:none;">58</text>
   <text y="136.583" x="329.703,331.9455,334.186,338.669,343.153,347.636,352.119,356.602,361.086,365.569,370.052,374.535,376.77750000000003,379.556" svgx:width="0.25,0.55,0.5,0.5,0.5,0.5,0.5,0.5,0.5,0.5,0.5,0.25,0.55,0.33" style="fill:rgb(0,0,0);font-family:URWPalladioL-Roma;font-size:8.97px;stroke:none;">, 1369–1378. [</text>
   <text y="136.583" x="382.542,388.899,392.28,397.175,400.977,404.779,410.768,415.063" svgx:width="0.71,0.4,0.55,0.42,0.42,0.67,0.48,0.33" style="fill:rgb(8,117,183);font-family:URWPalladioL-Roma;font-size:8.97px;stroke:none;">CrossRef</text>
   <text y="136.583" x="418.049" svgx:width="0.33" style="fill:rgb(0,0,0);font-family:URWPalladioL-Roma;font-size:8.97px;stroke:none;">]</text>
  </g>
  <rect style="fill:pink;opacity:0.2;stroke:blue;stroke-width:0.3;" x="77.56" y="109.339" height="29.098" width="83.136" title="11"/>
  <text y="109.339" class="image" id="image.11.1" width="83" height="29" x="77.56" style="font-size:5.0px;">image.11.1.78_161.109_138</text>
  <g begin="text">
   <text y="157.68" x="168.065,174.7925,177.012,181.549,186.086,190.623,195.108,197.41,202.428,207.4512,209.724,212.682,217.963,222.2686,224.551,229.088,234.559,237.517,242.798,247.753,251.337,255.185,257.4275,260.257,265.801,268.442,272.47,276.817,282.098,285.945,290.292,294.5976,296.889,305.473,312.496,317.977,321.034,323.2765,325.553,331.098,335.635,339.482,343.828,346.469,348.7115,350.988,355.752,363.319,365.96,368.918,373.455,377.801,381.386,384.026,388.563,393.844,399.388,401.6305,404.452,410.014,415.295,417.936,421.7034,424.033,428.57,432.155,435.113,437.753,441.782,444.423,448.72860000000003,451.02,453.66,457.42740000000003,459.758,464.295,469.49760000000003,471.817,476.772,482.225,486.571,491.77360000000004,494.103,498.64,502.669,506.698,511.044,514.891" svgx:width="0.75,0.55,0.5,0.5,0.5,0.5,0.55,0.55,0.56,0.55,0.33,0.58,0.48,0.55,0.5,0.6,0.33,0.58,0.55,0.4,0.42,0.25,0.55,0.61,0.29,0.44,0.48,0.58,0.42,0.48,0.48,0.55,0.95,0.77,0.6,0.34,0.25,0.55,0.61,0.5,0.42,0.48,0.29,0.25,0.55,0.52,0.83,0.29,0.33,0.5,0.48,0.4,0.29,0.5,0.58,0.61,0.25,0.55,0.61,0.58,0.29,0.42,0.55,0.5,0.4,0.33,0.29,0.44,0.29,0.48,0.55,0.29,0.42,0.55,0.5,0.58,0.55,0.55,0.6,0.48,0.58,0.55,0.5,0.44,0.44,0.48,0.42,0.42" style="fill:rgb(0,0,0);font-family:URWPalladioL-Roma;font-size:8.97px;stroke:none;">© 2019 by the authors. Licensee MDPI, Basel, Switzerland. This article is an open access</text>
   <text y="170.592" x="169.401,173.898,177.45,180.382,182.999,186.992,189.609,193.9146,196.147,201.642,204.259,208.072,211.004,214.556,217.173,222.147,227.57,230.501,234.809,240.2807,242.534,247.957,253.192,258.686,262.994,266.58200000000005,268.777,271.709,276.943,281.2486,283.472,286.404,290.712,294.264,302.205,305.9724,308.249,312.745,317.979,323.4507,325.705,329.698,334.608,339.842,345.337,347.954,350.886,353.503,358.413,363.647,367.4144,369.691,374.601,377.5611,379.826,382.758,387.992,392.29760000000005,394.53,400.907,404.297,408.605,413.102,416.033,418.65,423.732,428.03760000000005,430.27,436.646,441.556,449.497,457.439,462.349,467.583,471.35040000000004,473.626,480.623,483.555,486.478,490.03,492.647,497.621,503.044,505.975,508.592,513.503" svgx:width="0.5,0.4,0.33,0.29,0.44,0.29,0.48,0.55,0.61,0.29,0.42,0.33,0.4,0.29,0.55,0.6,0.33,0.48,0.61,0.55,0.6,0.58,0.61,0.48,0.4,0.55,0.33,0.58,0.48,0.55,0.33,0.48,0.4,0.88,0.42,0.55,0.5,0.58,0.61,0.55,0.44,0.55,0.58,0.61,0.29,0.33,0.29,0.55,0.58,0.42,0.55,0.55,0.33,0.55,0.33,0.58,0.48,0.55,0.71,0.4,0.48,0.5,0.33,0.29,0.56,0.48,0.55,0.71,0.55,0.88,0.88,0.55,0.58,0.42,0.55,0.78,0.33,0.33,0.4,0.29,0.55,0.6,0.33,0.29,0.55,0.58" style="fill:rgb(0,0,0);font-family:URWPalladioL-Roma;font-size:8.97px;stroke:none;">article distributed under the terms and conditions of the Creative Commons Attribution</text>
   <text y="183.504" x="169.105,172.091,178.448,184.8167,187.047,192.525,198.506,201.4661,203.733,206.342,208.952,212.933,217.228,222.446,226.248,230.5536,232.784,235.77,240.989,243.912,246.835,252.224,254.465,259.899,265.332,269.313,272.694,276.989,281.472,284.395,287.004,292.07,296.365,300.346,305.242,313.159,321.076,325.972,331.191,334.992,337.234,342.13,345.51,350.495,355.929,358.538,361.147,365.128,369.423,374.642,378.443,382.738,386.54,391.974,396.932,401.917,407.351,411.834,414.076,418.559,423.993,426.978" svgx:width="0.33,0.71,0.71,0.55,0.61,0.67,0.33,0.55,0.29,0.29,0.44,0.48,0.58,0.42,0.48,0.55,0.33,0.58,0.33,0.33,0.6,0.25,0.61,0.61,0.44,0.4,0.48,0.5,0.33,0.29,0.56,0.48,0.44,0.55,0.88,0.88,0.55,0.58,0.42,0.25,0.55,0.4,0.56,0.61,0.29,0.29,0.44,0.48,0.58,0.42,0.48,0.42,0.61,0.55,0.56,0.61,0.5,0.25,0.5,0.61,0.33,0.25" style="fill:rgb(0,0,0);font-family:URWPalladioL-Roma;font-size:8.97px;stroke:none;">(CC BY) license (http://creativecommons.org/licenses/by/4.0/).</text>
  </g>
 </g>
</svg>
