<?xml version="1.0" encoding="UTF-8"?>
<svg height="779.482" width="530.533" xmlns="http://www.w3.org/2000/svg">
 <g id="page" xmlns:svgx="http://www.xml-cml.org/schema/svgx">
  <g begin="text">
   <text y="62.979" x="76.535,84.059,87.598,90.252,93.352,96.452,98.668,102.207,104.422" svgx:width="0.94,0.44,0.33,0.39,0.39,0.28,0.44,0.28,0.39" style="fill:rgb(0,0,0);font-family:URWPalladioL-Ital;font-size:7.97px;stroke:none;">Materials</text>
   <text y="62.979" x="109.515,113.5,117.485,121.47" svgx:width="0.5,0.5,0.5,0.5" style="fill:rgb(0,0,0);font-family:URWPalladioL-Bold;font-size:7.97px;stroke:none;">2019</text>
   <text y="62.979" x="125.455" svgx:width="0.25" style="fill:rgb(0,0,0);font-family:URWPalladioL-Roma;font-size:7.97px;stroke:none;">,</text>
   <text y="62.979" x="129.44,133.425" svgx:width="0.5,0.5" style="fill:rgb(0,0,0);font-family:URWPalladioL-Ital;font-size:7.97px;stroke:none;">12</text>
   <text y="62.979" x="137.41,139.4025,141.395,145.38,149.365,153.35,157.335,495.794,499.779,501.772,506.123,508.7531,510.77,514.755" svgx:width="0.25,0.55,0.5,0.5,0.5,0.5,0.55,0.5,0.55,0.55,0.33,0.55,0.5,0.5" style="fill:rgb(0,0,0);font-family:URWPalladioL-Roma;font-size:7.97px;stroke:none;">, 3136 3 of 19</text>
   <text y="97.848" x="97.795,101.22,106.9968,110.579,113.891,119.806,122.763,126.9462,130.506,136.613,141.694,147.801,152.669,155.951,158.441,162.17,168.379,173.714,179.943,188.2098,191.833,197.381,200.6678,204.21,212.116,215.54,220.875,224.2614,227.745,232.826,237.907,242.988,247.968,251.503,259.978,265.059,269.2422,272.813,278.92,283.787,287.801,291.185,296.734,300.748,309.72,314.588,320.66360000000003,324.242,329.851,335.4286,338.946,347.39,353.599,356.14,362.003,369.909,377.4786,381.107,387.204,393.332,396.289,400.598,405.465,411.5406,415.119,418.076,423.157,427.466,432.333,436.317,439.792,448.267,451.224,454.537,460.31379999999996,463.886,468.86600000000004,472.412,481.384,486.465,491.709,494.666,503.639,509.767" svgx:width="0.34,0.58,0.55,0.33,0.58,0.29,0.42,0.55,0.6,0.5,0.6,0.48,0.4,0.25,0.55,0.61,0.52,0.61,0.83,0.55,0.55,0.33,0.55,0.78,0.34,0.52,0.34,0.55,0.5,0.5,0.5,0.5,0.55,0.83,0.5,0.42,0.55,0.6,0.48,0.4,0.33,0.55,0.4,0.88,0.48,0.61,0.55,0.55,0.56,0.55,0.83,0.61,0.25,0.67,0.78,0.76,0.55,0.6,0.6,0.29,0.42,0.48,0.61,0.55,0.29,0.5,0.42,0.48,0.4,0.55,0.83,0.29,0.33,0.58,0.55,0.5,0.55,0.88,0.5,0.52,0.29,0.88,0.6,0.88" style="fill:rgb(0,0,0);font-family:URWPalladioL-Roma;font-size:9.96px;stroke:none;">In this paper, LSTH of AISI 4130 was performed by Nd:YAG pulsed laser with a maximum</text>
   <text y="111.358" x="76.236,82.182,87.583,95.834,100.572,104.556,106.973,112.375,115.6618,118.162,123.108,128.055,133.035,135.494,144.477,146.967,149.443,155.508,161.265,166.04579999999999,168.497" svgx:width="0.6,0.55,0.83,0.48,0.4,0.55,0.55,0.33,0.55,0.5,0.5,0.5,0.55,1.0,0.25,0.55,0.61,0.58,0.48,0.55,0.48" style="fill:rgb(0,0,0);font-family:URWPalladioL-Roma;font-size:9.96px;stroke:none;">power of 400 W. The e</text>
   <text y="111.358" x="173.234" svgx:width="0.61" style="fill:rgb(0,0,0);font-family:Rpxr;font-size:9.96px;stroke:none;">ﬀ</text>
   <text y="111.358" x="179.249,183.988,188.38,191.605,195.7882,198.293,203.694,206.9808,209.482,212.36,217.307,221.501,226.24,230.22400000000002,232.641,235.935,241.337,245.729,250.675,253.5634,256.047,261.993,267.394,270.273,276.031,279.31780000000003,281.749,287.695,293.096,297.291,300.169,303.395,306.273,311.675,317.432,319.922,322.399,325.277,330.224,334.419,339.157,343.14099999999996,345.568,351.504,357.469,360.348,364.542,369.3228,371.784,380.035,382.913,388.958,392.183,397.941,400.431,402.907,407.853,413.611,419.6866,422.148,428.193,433.387,438.5662,441.073,449.324,454.063,457.792,462.5728,465.024,467.903,473.661,479.25,483.989,488.183,491.408,494.287,499.788,504.734,507.959,512.698" svgx:width="0.48,0.44,0.33,0.42,0.55,0.55,0.33,0.55,0.29,0.5,0.42,0.48,0.4,0.55,0.33,0.55,0.44,0.5,0.29,0.55,0.6,0.55,0.29,0.58,0.33,0.55,0.6,0.55,0.42,0.29,0.33,0.29,0.55,0.58,0.25,0.55,0.29,0.5,0.42,0.48,0.4,0.55,0.6,0.6,0.29,0.42,0.48,0.55,0.83,0.29,0.61,0.33,0.58,0.25,0.55,0.5,0.58,0.61,0.55,0.61,0.52,0.52,0.55,0.83,0.48,0.4,0.48,0.55,0.29,0.58,0.56,0.48,0.42,0.33,0.29,0.56,0.5,0.33,0.48,0.61" style="fill:rgb(0,0,0);font-family:URWPalladioL-Roma;font-size:9.96px;stroke:none;">ects of laser focal point position, laser pulse width, and LSS were investigated</text>
   <text y="124.867" x="76.535,81.616,85.0,88.313,93.18,97.164,100.07,106.279,111.614,117.843,126.1098,129.163,134.712,137.9988,140.971,148.877,152.302,157.637,161.0234,163.937,169.018,174.099,179.18,184.16,187.137,192.218,195.175,198.122,203.67,209.24759999999998,212.196,216.504,219.817,224.685,229.552,232.509,234.999,239.684,245.913,251.827,256.6078,259.57,268.543,271.5,276.012,279.843,285.392,289.7,293.013,296.946,303.073,307.585,310.898,317.025,320.867,325.6478,328.6,337.075,342.156,346.3392,349.34,354.421,360.335,365.416,368.373,374.023,379.104,383.972,390.0476,393.056,398.676,404.2536,407.202,412.75,418.857,422.16,425.117,429.629,434.71,437.59839999999997,440.543,449.516,452.473,456.985,460.826,466.374,470.683,475.195,480.743,486.85,492.42760000000004,495.366,498.75,506.737,516.35" svgx:width="0.5,0.33,0.33,0.48,0.4,0.55,0.61,0.52,0.61,0.83,0.55,0.55,0.33,0.55,0.78,0.34,0.52,0.34,0.55,0.5,0.5,0.5,0.5,0.55,0.5,0.29,0.29,0.55,0.56,0.55,0.42,0.33,0.48,0.48,0.29,0.25,0.55,0.61,0.58,0.48,0.55,0.88,0.29,0.44,0.4,0.55,0.42,0.33,0.4,0.6,0.44,0.33,0.6,0.4,0.48,0.55,0.83,0.5,0.42,0.55,0.5,0.58,0.5,0.29,0.56,0.5,0.48,0.61,0.55,0.55,0.56,0.55,0.55,0.6,0.33,0.29,0.44,0.5,0.29,0.55,0.88,0.29,0.44,0.4,0.55,0.42,0.44,0.55,0.6,0.56,0.55,0.33,0.79,0.95,0.33" style="fill:rgb(0,0,0);font-family:URWPalladioL-Roma;font-size:9.96px;stroke:none;">after LSTH of AISI 4130 alloy steel. The microstructure was analyzed by optical microscopy (OM)</text>
   <text y="138.377" x="76.535,81.616,87.53,93.6056,96.513,100.822,105.334,110.415,116.329,122.243,125.2,131.114,136.6916,139.528,144.396,147.353,152.22,156.732,160.045,163.886,169.435,175.2118,178.113,187.086,190.043,194.555,198.396,203.944,208.253,212.765,218.313,224.42,229.288,231.77800000000002,236.157,245.77,251.319,255.15,260.017,265.566,271.307,276.175,279.457,281.947,284.833,291.621,294.578,299.09,304.74,309.607,313.621,317.8042,320.704,329.677,332.634,337.146,340.977,346.525,349.909,355.823,360.904,364.745,370.954,376.869,381.736,386.045,390.2282,393.117,396.43,401.298,405.606,408.919,413.1022,416.002,424.477,429.344,433.175,437.9558,440.817,445.329,450.41,454.424,458.438,461.395,466.262,472.3376,475.245,480.794,486.921,490.2078,493.008,495.955,501.73179999999996,504.644,507.956,513.871" svgx:width="0.5,0.58,0.61,0.55,0.42,0.44,0.5,0.58,0.58,0.29,0.58,0.56,0.55,0.48,0.29,0.48,0.44,0.33,0.4,0.55,0.58,0.55,0.88,0.29,0.44,0.4,0.55,0.42,0.44,0.55,0.6,0.48,0.25,0.55,0.95,0.55,0.4,0.48,0.55,0.56,0.48,0.4,0.25,0.55,0.72,0.29,0.44,0.56,0.48,0.4,0.42,0.55,0.88,0.29,0.44,0.4,0.55,0.33,0.58,0.5,0.4,0.61,0.58,0.48,0.42,0.42,0.55,0.33,0.48,0.42,0.33,0.42,0.55,0.83,0.48,0.4,0.48,0.55,0.44,0.5,0.4,0.4,0.29,0.48,0.61,0.55,0.55,0.6,0.33,0.55,0.29,0.58,0.55,0.33,0.58,0.48" style="fill:rgb(0,0,0);font-family:URWPalladioL-Roma;font-size:9.96px;stroke:none;">and scanning electron microscope. Moreover, Vickers micro-hardness tests were carried out in the</text>
   <text y="151.886" x="76.535,79.718,83.574,88.456,94.138,98.278,103.794,108.471,112.327,116.467,121.349,124.23740000000001,126.514,130.653,135.33,139.665,142.848,145.689,151.02,156.702,159.192,162.57,168.555,174.237,179.0178,181.237,184.918,189.595,193.734,199.622,202.463,205.646,209.8292,212.109,217.44,220.7268,223.005,228.97,234.096,240.081,250.528,258.67,263.347,267.028,271.8088,274.028,278.363,283.694,292.315,298.183,303.064,306.735,311.412,317.4876,319.701,327.844,330.685,333.868,339.6448,341.874,345.056,350.739,356.069,360.209,364.9898,367.209,372.54,377.939,381.122,386.004,388.845,394.527,399.204,405.2796,407.493,412.892,418.4696,420.644,423.895,429.783,433.639,439.322,444.203,448.538,453.3188,455.529,461.211,465.888,470.769,474.05580000000003,476.276,479.459,483.139,487.816,492.698,495.881,504.502,509.178,514.861,518.043" svgx:width="0.33,0.4,0.5,0.58,0.42,0.56,0.48,0.4,0.42,0.5,0.29,0.55,0.42,0.48,0.44,0.33,0.29,0.55,0.58,0.25,0.55,0.61,0.58,0.48,0.55,0.4,0.48,0.42,0.6,0.29,0.33,0.42,0.55,0.55,0.33,0.55,0.61,0.52,0.61,0.83,0.83,0.48,0.4,0.48,0.55,0.44,0.55,0.88,0.6,0.5,0.4,0.48,0.61,0.55,0.83,0.29,0.33,0.58,0.55,0.33,0.58,0.55,0.42,0.48,0.55,0.55,0.55,0.33,0.5,0.29,0.58,0.48,0.61,0.55,0.55,0.56,0.55,0.33,0.6,0.4,0.58,0.5,0.44,0.48,0.55,0.58,0.48,0.5,0.33,0.55,0.33,0.4,0.48,0.5,0.33,0.88,0.48,0.58,0.33,0.25" style="fill:rgb(0,0,0);font-family:URWPalladioL-Roma;font-size:9.96px;stroke:none;">transversal section. The results of LSTHwere compared with those obtained by furnace heat treatment.</text>
   <text y="165.395" x="97.795,103.943,109.628,114.448,120.304,123.584,129.652,134.683,137.611,140.539,145.027,147.517,150.028,155.00799999999998,157.534,163.622,169.478,172.406,175.687,180.4678,182.982,187.802,190.73,195.55,204.434,209.254,215.11,218.3968,220.866,229.751,235.245,241.393,246.213,249.10139999999998,251.626,254.977,260.572,266.72,276.238,279.5248,282.065,290.456,295.488,299.6712,302.229,307.049,315.934,321.981,324.909,330.403,335.998,340.818,346.8936,349.441,352.792,358.286,362.27,364.746,368.026,373.882,378.6628,381.177,385.444,388.372,397.257,403.324,406.253,411.284,414.564,417.492,422.986,428.76279999999997,431.318,436.811,440.0978,442.638,445.918,451.774,456.5548,459.079,465.227,470.51,476.678,484.9448,487.525,493.019,496.30580000000003,498.845,506.673,510.064,515.347" svgx:width="0.61,0.56,0.48,0.58,0.33,0.6,0.5,0.29,0.29,0.56,0.25,0.55,0.5,0.55,0.61,0.58,0.29,0.33,0.48,0.55,0.48,0.29,0.48,0.88,0.48,0.58,0.33,0.55,0.88,0.55,0.61,0.48,0.29,0.55,0.33,0.56,0.61,0.95,0.33,0.55,0.83,0.5,0.42,0.55,0.48,0.88,0.6,0.29,0.55,0.56,0.48,0.61,0.55,0.33,0.55,0.4,0.55,0.33,0.58,0.48,0.55,0.42,0.29,0.88,0.6,0.29,0.5,0.33,0.29,0.55,0.58,0.55,0.55,0.33,0.55,0.33,0.58,0.48,0.55,0.61,0.52,0.61,0.83,0.55,0.55,0.33,0.55,0.78,0.34,0.52,0.34" style="fill:rgb(0,0,0);font-family:URWPalladioL-Roma;font-size:9.96px;stroke:none;">Eventually, a ﬁnite element model (FEM) was employed for the simulation of the LSTH of AISI</text>
   <text y="178.905" x="76.535,81.496,86.458,91.419,96.399,98.871,103.078,106.313,111.066,115.819,118.707,121.19699999999999,124.67,130.187,135.605,139.589,142.015,145.25,151.025,153.913,158.0962,160.61,166.574,172.557,176.477,182.441,187.858,192.066,196.819,199.309,201.79,206.76999999999998,209.232,213.638,219.155,222.042,224.93,230.705,236.768,240.687,243.575,247.98,252.942,255.8304,258.32,264.095,268.848,273.809,277.09580000000005,279.535,283.742,289.16,295.143,298.884,303.29,308.0708,310.533,318.809,323.77,327.9532,330.468,339.23,344.648,350.71,355.463,358.351,361.238,365.991,372.0666,374.535,377.77,383.248,385.678,389.885,392.773,401.535,407.518,410.406,415.367,418.602,423.3828,425.845,429.08,434.855,439.6358,442.099,446.306,452.29,456.209,459.513,464.475,468.88,473.6608,476.124,481.899,486.86,490.591,496.654,501.407,507.182,511.935,517.998" svgx:width="0.5,0.5,0.5,0.5,0.55,0.42,0.33,0.48,0.48,0.29,0.25,0.55,0.56,0.55,0.4,0.55,0.33,0.58,0.29,0.42,0.55,0.6,0.6,0.4,0.6,0.55,0.42,0.48,0.25,0.55,0.5,0.55,0.44,0.56,0.29,0.29,0.58,0.61,0.4,0.29,0.44,0.5,0.29,0.55,0.58,0.48,0.5,0.33,0.55,0.42,0.55,0.6,0.4,0.44,0.48,0.55,0.83,0.5,0.42,0.55,0.88,0.55,0.61,0.48,0.29,0.29,0.48,0.61,0.55,0.33,0.55,0.55,0.42,0.29,0.88,0.6,0.29,0.5,0.33,0.48,0.55,0.33,0.58,0.48,0.55,0.42,0.6,0.4,0.33,0.5,0.44,0.48,0.55,0.58,0.5,0.4,0.61,0.48,0.58,0.48,0.61,0.25" style="fill:rgb(0,0,0);font-family:URWPalladioL-Roma;font-size:9.96px;stroke:none;">4130 steel. For this purpose, a cylindrical heat source was modelled to simulate the surface hardened.</text>
   <text y="192.414" x="76.147,83.9158,86.305,90.675,96.05,101.778,104.987,107.851,113.58,119.515,124.89,130.825,135.0082,137.499,141.869,147.243,152.618,155.482,158.346,164.075,169.65259999999998,172.048,175.257,179.145,184.066,189.795,193.968,197.246,202.62,206.508,215.2,220.121,223.33,226.185,231.559,237.3358,239.788,243.065,250.044,257.023,263.057,266.34380000000004,268.834,273.205,279.14,283.028,288.589,293.3698,295.804,299.082,304.456,308.44,310.845,318.502,321.82,326.987,330.3734,332.804,337.726,342.647,347.569,352.54900000000004,354.991,359.164,362.373,367.088,371.802,374.6904,377.167,385.376,390.298,394.4812,396.961,401.676,410.368,416.283,419.148,424.522,429.995,434.709,440.7846,443.224,446.501,451.876,455.85999999999996,458.264,461.473,467.201,471.9818,474.416,479.978,484.899,487.763,490.628,496.642,501.563,504.772,507.636,513.011" svgx:width="0.78,0.55,0.44,0.55,0.58,0.33,0.29,0.58,0.6,0.55,0.6,0.42,0.55,0.44,0.55,0.55,0.29,0.29,0.58,0.56,0.55,0.33,0.4,0.5,0.58,0.42,0.33,0.55,0.4,0.88,0.5,0.33,0.29,0.55,0.58,0.55,0.33,0.71,0.71,0.61,0.33,0.55,0.44,0.6,0.4,0.56,0.48,0.55,0.33,0.55,0.4,0.55,0.78,0.34,0.52,0.34,0.55,0.5,0.5,0.5,0.5,0.55,0.42,0.33,0.48,0.48,0.29,0.55,0.83,0.5,0.42,0.55,0.48,0.88,0.6,0.29,0.55,0.56,0.48,0.61,0.55,0.33,0.55,0.4,0.55,0.33,0.58,0.48,0.55,0.56,0.5,0.29,0.29,0.61,0.5,0.33,0.29,0.55,0.58" style="fill:rgb(0,0,0);font-family:URWPalladioL-Roma;font-size:9.96px;stroke:none;">A continuous cooling transformation (CCT) curve for AISI 4130 steel was employed for the validation</text>
   <text y="205.924" x="76.535,82.029,85.3158,87.885,91.165,97.022,101.8028,104.337,110.193,116.261,125.146,129.965,133.94,136.868,141.336,146.367,149.25539999999998,151.8,160.685,166.179,172.327,177.147,180.075,182.565,186.103,192.271,198.127,202.9078,205.452,209.246,214.065,218.332,224.399,227.327,230.608,234.7912,237.37,241.636,247.492,252.986,261.2528,263.884,267.164,273.02,278.051,281.3378,283.827,287.107,292.963,297.7438,300.289,309.174,314.668,320.816,325.635,328.5234,331.059,335.526,340.558,346.3348,348.919,354.967,358.76,363.58,369.728,372.656,377.124,380.41080000000005,382.899,391.291,394.219,397.5,403.2768,405.861,410.892,415.36,419.828,425.895,429.87,434.901,439.369,444.94660000000005,447.459,450.739,456.595,461.3758,463.92,467.201,472.02,480.905,486.953,491.773,495.747,500.778,504.059,510.126,513.92" svgx:width="0.55,0.33,0.55,0.33,0.58,0.48,0.55,0.58,0.6,0.88,0.48,0.4,0.29,0.44,0.5,0.29,0.55,0.88,0.55,0.61,0.48,0.29,0.25,0.55,0.61,0.58,0.48,0.55,0.4,0.48,0.42,0.6,0.29,0.33,0.42,0.55,0.42,0.58,0.55,0.83,0.55,0.33,0.58,0.5,0.33,0.55,0.33,0.58,0.48,0.55,0.88,0.55,0.61,0.48,0.29,0.55,0.44,0.5,0.58,0.55,0.6,0.4,0.48,0.61,0.29,0.44,0.33,0.55,0.83,0.29,0.33,0.58,0.55,0.5,0.44,0.44,0.6,0.4,0.5,0.44,0.56,0.55,0.33,0.58,0.48,0.55,0.33,0.48,0.88,0.6,0.48,0.4,0.5,0.33,0.6,0.4,0.48" style="fill:rgb(0,0,0);font-family:URWPalladioL-Roma;font-size:9.96px;stroke:none;">of the numerical model. The results show that the model can predict with accuracy the temperature</text>
   <text y="219.433" x="76.236,82.224,85.979,91.419,97.446,100.345,105.1258,107.608,112.59,118.388,124.4636,126.966,130.213,136.012,140.7928,143.274,147.498,150.398,155.379,160.1598,162.642,167.623,173.421,179.4966,181.999,185.247,191.045,195.8258,198.308,202.532,208.33,213.311,219.299,224.0798,226.562,232.001,235.2878,237.809,241.057,246.855,251.6358,254.118,257.017,261.999,266.223,270.995,274.979,277.421,283.219,288.2,291.956,298.043,302.815,308.614,313.386,319.46160000000003,321.964,325.719,330.492,336.031,338.93,344.369,350.168" svgx:width="0.6,0.4,0.55,0.61,0.29,0.48,0.55,0.5,0.58,0.61,0.55,0.33,0.58,0.48,0.55,0.42,0.29,0.5,0.48,0.55,0.5,0.58,0.61,0.55,0.33,0.58,0.48,0.55,0.42,0.58,0.5,0.6,0.48,0.55,0.55,0.33,0.55,0.33,0.58,0.48,0.55,0.29,0.5,0.42,0.48,0.4,0.55,0.58,0.5,0.4,0.61,0.48,0.58,0.48,0.61,0.55,0.4,0.48,0.56,0.29,0.55,0.58,0.25" style="fill:rgb(0,0,0);font-family:URWPalladioL-Roma;font-size:9.96px;stroke:none;">proﬁle and the size and the shape of the laser hardened region.</text>
   <text y="242.646" x="76.535,81.516,84.006,87.494,93.581,98.562,104.649,109.631,113.506,116.824,125.681,130.662,136.749,140.066,145.048,148.3348,150.856,160.081,165.621,169.496" svgx:width="0.5,0.25,0.55,0.61,0.5,0.61,0.5,0.39,0.33,0.89,0.5,0.61,0.33,0.5,0.33,0.55,1.0,0.56,0.39,0.61" style="fill:rgb(0,0,0);font-family:URWPalladioL-Bold;font-size:9.96px;stroke:none;">2. Experimental Work</text>
   <text y="262.133" x="97.795,103.13,108.211,117.184,123.291,126.248,131.116,135.2992,137.914,143.462,146.7488,149.336,154.417,159.397,161.977,170.95,179.7148,182.413,188.622,191.579,196.66,205.633,210.5,213.813,218.68,222.66400000000002,225.184,230.265,236.179,242.2546,244.878,249.959,254.939,257.519,266.492,275.2568,277.954,281.267,287.181,290.139,294.65,300.3,306.215,311.082,315.391,319.5742,322.189,330.664,335.532,339.363,344.1438,346.72,355.693,360.774,365.285,371.2,374.157,380.071,384.938,391.0136,393.637,398.718,404.632,410.7076,413.32,416.633,420.474,425.342,430.423,433.736,438.603,444.6786,447.302,450.686,456.234,460.21799999999996,462.727,465.685,470.765,475.074,479.942,483.926,486.445,490.754,496.881,500.895,504.279,509.36,513.872" svgx:width="0.52,0.5,0.88,0.6,0.29,0.48,0.42,0.55,0.55,0.33,0.55,0.5,0.5,0.55,0.88,0.88,0.55,0.61,0.29,0.5,0.88,0.48,0.33,0.48,0.4,0.55,0.5,0.58,0.61,0.55,0.5,0.5,0.55,0.88,0.88,0.55,0.33,0.58,0.29,0.44,0.56,0.58,0.48,0.42,0.42,0.55,0.83,0.48,0.4,0.48,0.55,0.88,0.5,0.44,0.58,0.29,0.58,0.48,0.61,0.55,0.5,0.58,0.61,0.55,0.33,0.4,0.48,0.5,0.33,0.48,0.61,0.55,0.33,0.55,0.4,0.55,0.29,0.5,0.42,0.48,0.4,0.55,0.42,0.6,0.4,0.33,0.5,0.44,0.48" style="fill:rgb(0,0,0);font-family:URWPalladioL-Roma;font-size:9.96px;stroke:none;">Samples of 65 mm diameter and 10 mm thickness were machined and treated for laser surface</text>
   <text y="275.642" x="76.535,81.541,87.368,93.44359999999999,95.979,99.313,105.351,109.306,115.133,120.139,124.585,129.3658,131.874,137.701,142.707,146.482,152.599,157.395,163.222,166.136,171.963,177.53,180.02,183.528,188.754,193.76,199.297,202.211" svgx:width="0.5,0.58,0.61,0.55,0.33,0.6,0.4,0.58,0.5,0.44,0.48,0.55,0.58,0.5,0.4,0.61,0.48,0.58,0.29,0.58,0.56,0.25,0.55,0.61,0.5,0.55,0.29,0.48" style="fill:rgb(0,0,0);font-family:URWPalladioL-Roma;font-size:9.96px;stroke:none;">and furnace hardening. Table</text>
   <text y="275.642" x="209.5" svgx:width="0.5" style="fill:rgb(8,117,183);font-family:URWPalladioL-Roma;font-size:9.96px;stroke:none;">1</text>
   <text y="275.642" x="216.999,221.244,227.072,232.538,240.889,245.0722,247.627,250.891,256.718,261.4988,264.007,271.797,275.171,280.428,283.8144,286.295,291.301,296.307,301.314,306.29400000000004,308.813,313.258,319.086,323.882,332.723,335.636,340.082,345.088,347.9764,350.495,354.94,360.407,369.248,375.265,380.732,384.977,387.891,391.155,394.069,399.535,405.3118,407.856,411.19,414.454,420.281,425.0618,427.57,436.411,441.207,447.325,450.238,455.245,461.0218,463.565,466.829,472.656,476.431,481.227,486.0078,488.516,493.983,497.26980000000003,499.81,506.488,513.176" svgx:width="0.42,0.58,0.55,0.83,0.42,0.55,0.33,0.58,0.48,0.55,0.78,0.34,0.52,0.34,0.55,0.5,0.5,0.5,0.5,0.55,0.44,0.58,0.48,0.88,0.29,0.44,0.5,0.29,0.55,0.44,0.55,0.88,0.6,0.55,0.42,0.29,0.33,0.29,0.55,0.58,0.55,0.33,0.33,0.58,0.48,0.55,0.88,0.48,0.61,0.29,0.5,0.58,0.55,0.33,0.58,0.4,0.48,0.48,0.55,0.55,0.33,0.55,0.67,0.67,0.56" style="fill:rgb(0,0,0);font-family:URWPalladioL-Roma;font-size:9.96px;stroke:none;">shows the AISI 4130 chemical composition (the median three of XRF</text>
   <text y="289.152" x="76.535,85.27,90.009,94.956,99.15,105.115,108.845,113.584,122.319,127.058,132.815,136.041,140.235,143.529,146.019,149.495,156.093,162.702,168.2796,170.685,173.98,180.578,183.873,187.78,192.727,198.3046,200.72,206.735,212.7,218.102,221.831,226.57,230.765,235.157,239.896,245.653,250.046,254.785,258.0718,260.572,263.451,267.6342,270.138,275.118,277.578,283.335,288.737,294.495,297.789,303.833,308.562,312.757,315.982,319.81,325.776,330.168,333.393,336.272,341.862,346.6428,349.093,354.04,359.797,364.744,367.623,373.123,376.348,379.227,383.619,388.566,391.45439999999996,393.938,397.163,401.901,406.294,412.051,417.809,420.688,426.228,432.193,436.9738,439.425,445.39,449.585,454.324,460.3996,462.861,466.086,471.564,473.971,480.015,484.754,487.979,492.718,496.626,505.361,508.24,513.997" svgx:width="0.88,0.48,0.5,0.42,0.6,0.4,0.48,0.88,0.48,0.58,0.33,0.42,0.33,0.25,0.55,0.67,0.67,0.56,0.55,0.33,0.67,0.33,0.4,0.5,0.56,0.55,0.61,0.6,0.55,0.4,0.48,0.42,0.44,0.48,0.58,0.44,0.48,0.33,0.55,0.29,0.42,0.55,0.5,0.55,0.58,0.55,0.58,0.33,0.61,0.48,0.42,0.33,0.4,0.6,0.44,0.33,0.29,0.56,0.48,0.55,0.5,0.58,0.5,0.29,0.56,0.33,0.29,0.44,0.5,0.29,0.55,0.33,0.48,0.44,0.58,0.58,0.29,0.56,0.6,0.48,0.55,0.6,0.42,0.48,0.61,0.55,0.33,0.55,0.55,0.61,0.48,0.33,0.48,0.4,0.88,0.29,0.58,0.48" style="fill:rgb(0,0,0);font-family:URWPalladioL-Roma;font-size:9.96px;stroke:none;">measurements). XRF (X-ray ﬂuorescence) is a non-destructive analytical technique used to determine</text>
   <text y="302.661" x="76.535,79.783,85.581,90.3618,92.844,97.616,100.515,105.287,114.084,118.856,124.654,127.902,132.883,135.7714,138.273,142.697,148.136,156.933,162.921,168.36,172.584,175.484,178.731,181.63,187.07,192.8468,195.359,200.798,204.0848,206.607,215.404,220.385,223.633,228.405,232.34,235.239,240.22,243.12,247.344" svgx:width="0.33,0.58,0.48,0.55,0.48,0.29,0.48,0.88,0.48,0.58,0.33,0.5,0.29,0.55,0.44,0.55,0.88,0.6,0.55,0.42,0.29,0.33,0.29,0.55,0.58,0.55,0.55,0.33,0.55,0.88,0.5,0.33,0.48,0.4,0.29,0.5,0.29,0.42,0.25" style="fill:rgb(0,0,0);font-family:URWPalladioL-Roma;font-size:9.96px;stroke:none;">the elemental composition of materials.</text>
   <text y="327.032" x="184.532,189.517,194.001,199.479,202.465,206.95000000000002,209.19,213.673" svgx:width="0.67,0.5,0.61,0.33,0.5,0.55,0.5,0.25" style="fill:rgb(0,0,0);font-family:URWPalladioL-Bold;font-size:8.97px;stroke:none;">Table 1.</text>
   <text y="327.032" x="219.053,225.41,230.629,234.924,242.841,245.45,249.431,253.914,256.51529999999997,258.765,262.746,267.642,275.559,280.948,285.844,289.645,292.255,295.178,297.787,302.683,307.8856,310.143,315.038,317.9981,320.266,327.242,330.263,334.971,338.0208,340.234,344.717,349.2,353.684,358.16900000000004,360.408,364.21,367.133,371.428,375.723,378.3243,380.574,383.56,392.526,395.449,397.691,405.222,408.208" svgx:width="0.71,0.58,0.48,0.88,0.29,0.44,0.5,0.29,0.55,0.44,0.55,0.88,0.6,0.55,0.42,0.29,0.33,0.29,0.55,0.58,0.55,0.55,0.33,0.55,0.78,0.34,0.52,0.34,0.55,0.5,0.5,0.5,0.5,0.55,0.42,0.33,0.48,0.48,0.29,0.55,0.33,1.0,0.33,0.25,0.84,0.33,0.25" style="fill:rgb(0,0,0);font-family:URWPalladioL-Roma;font-size:8.97px;stroke:none;">Chemical composition of AISI 4130 steel (Wt.%).</text>
  </g>
  <path style="fill:none;stroke:rgb(0,0,0);stroke-width:1.0;" d="M76.540 337.250 L518.740 337.250 "/>
  <g begin="text">
   <text y="348.35" x="92.089,97.567,100.553,105.036,113.008,117.491,122.969,125.92909999999999,128.197,135.666,140.149,148.12" svgx:width="0.61,0.33,0.5,0.89,0.5,0.61,0.33,0.55,0.83,0.5,0.89,0.5" style="fill:rgb(0,0,0);font-family:URWPalladioL-Bold;font-size:8.97px;stroke:none;">Element Name</text>
   <text y="348.111" x="176.58,183.054,186.5523,203.641,208.626,213.11100000000002,232.45,237.9217,257.027,264.002,266.9621,282.85,289.324,294.7957,310.413,317.882,320.8421,335.232,344.198,349.6697,365.78,372.7766,393.343,398.8147,419.659,426.1174,442.739,451.705,456.72819999999996,486.701,492.179" svgx:width="0.72,0.39,0.55,0.56,0.5,0.55,0.61,0.55,0.78,0.33,0.55,0.72,0.61,0.55,0.83,0.33,0.55,1.0,0.61,0.55,0.78,0.55,0.61,0.55,0.72,0.55,1.0,0.56,0.55,0.61,0.33" style="fill:rgb(0,0,0);font-family:URWPalladioL-Bold;font-size:8.97px;stroke:none;">Cr Fe S Al Cu Ni Mn V S C Mo Si</text>
  </g>
  <path style="fill:none;stroke:rgb(0,0,0);stroke-width:0.8;" d="M76.540 353.500 L518.740 353.500 "/>
  <g begin="text">
   <text y="364.11" x="92.385,100.526,104.821,107.431,112.416,117.634,120.5941,122.799,128.215,132.51,135.89,139.871,144.166,149.384,152.3441,174.131,178.525,180.721,185.115,189.60000000000002,200.949,205.343,207.539,211.933,216.327,220.812,227.759,232.152,234.349,238.742,243.227,254.577,258.97,261.167,265.56,270.045,281.395,285.788,287.985,292.379,296.86400000000003,308.204,312.598,314.794,319.188,323.581,328.06600000000003,335.022,339.416,341.613,346.006,350.491,361.84,366.234,368.431,372.824,377.309,388.65,393.043,395.24,399.633,404.118,417.295,421.778,424.02,428.505,442.284,446.678,448.874,453.268,457.753,475.656,481.134,485.618,488.227,492.71,497.929,501.91" svgx:width="1.0,0.48,0.29,0.56,0.58,0.33,0.55,0.6,0.48,0.4,0.44,0.48,0.58,0.33,0.55,0.5,0.25,0.5,0.5,0.55,0.5,0.25,0.5,0.5,0.5,0.55,0.5,0.25,0.5,0.5,0.55,0.5,0.25,0.5,0.5,0.55,0.5,0.25,0.5,0.5,0.55,0.5,0.25,0.5,0.5,0.5,0.55,0.5,0.25,0.5,0.5,0.55,0.5,0.25,0.5,0.5,0.55,0.5,0.25,0.5,0.5,0.55,0.5,0.25,0.5,0.55,0.5,0.25,0.5,0.5,0.55,0.61,0.5,0.29,0.5,0.58,0.44,0.48" style="fill:rgb(0,0,0);font-family:URWPalladioL-Roma;font-size:8.97px;stroke:none;">Weight Percent 0.03 0.024 0.06 0.05 0.87 0.012 0.03 0.25 0.25 0.3 1.01 Balance</text>
  </g>
  <path style="fill:none;stroke:rgb(0,0,0);stroke-width:0.3;" d="M76.540 369.510 L518.740 369.510 "/>
  <g begin="text">
   <text y="395.004" x="97.795,103.926,109.748,114.5288,117.03,121.821,126.982,132.994,137.785,141.736,144.646,153.479,158.27,164.091,167.352,171.5352,174.084,182.426,187.217,190.988,195.7688,198.27,204.281,209.072,213.023,216.354,221.815,225.766,234.599,239.39,245.4656,248.002,253.533,259.1106,261.585,266.565,269.077,274.078,279.079,284.059,286.571,299.064,304.065,309.717,314.508,318.459,323.46,329.022,333.8028,336.303,339.214,344.215,348.456,353.247,357.231,359.689,365.701,371.162,379.504,384.295,388.279,390.737,396.748,402.78,405.69,409.931,414.722,420.7976,423.335,431.647,437.758,440.259,446.01,453.792,461.36159999999995,463.914,466.825,471.826,476.067,480.859,484.84299999999996,487.3,490.631,499.463,504.924,511.036,515.827" svgx:width="0.61,0.58,0.48,0.55,0.48,0.52,0.6,0.48,0.4,0.29,0.88,0.48,0.58,0.33,0.42,0.55,0.83,0.48,0.4,0.48,0.55,0.6,0.48,0.4,0.33,0.55,0.4,0.88,0.48,0.61,0.55,0.55,0.56,0.55,0.5,0.55,0.5,0.5,0.5,0.55,1.0,0.5,0.56,0.48,0.4,0.5,0.56,0.48,0.55,0.29,0.5,0.42,0.48,0.4,0.55,0.6,0.55,0.83,0.48,0.4,0.55,0.6,0.6,0.29,0.42,0.48,0.61,0.55,0.83,0.61,0.25,0.67,0.78,0.76,0.55,0.29,0.5,0.42,0.48,0.4,0.55,0.33,0.88,0.55,0.61,0.48,0.29" style="fill:rgb(0,0,0);font-family:URWPalladioL-Roma;font-size:9.96px;stroke:none;">The experiments were performed by a 400 Waverage laser power pulsed Nd:YAG laser (model</text>
   <text y="408.514" x="76.535,79.842,87.555,93.551,96.819,101.725,106.632,109.122,111.578,117.505,122.412,127.868,132.84799999999998,135.267,141.194,146.101,149.977,153.176,158.534,161.024,163.48,168.582,173.283,178.994,182.87,187.777,193.488,195.978,198.434,201.741,205.617,210.524,216.235,219.503,221.993,225.45,231.465,237.176,241.9568,244.37,249.276,254.821,259.727,262.583,265.438,270.345,275.772,278.627,283.4078,285.82,289.696,294.603,300.314,305.77,310.5508,312.964,316.231,321.589,325.573,327.958,331.157,336.868,341.6488,344.061,349.959,355.876,358.732,362.893,367.67379999999997,370.086,373.354,377.053,381.754,387.249,393.166,397.867,403.578,407.935,412.283,414.773,417.228,420.427,426.139,430.9198,433.332,439.229,445.147,448.002,452.163,456.9438,459.356,465.352,471.269,475.146,480.052,483.251,486.107,491.465,497.176,499.666,502.122,507.029,512.74" svgx:width="0.34,0.79,0.61,0.33,0.5,0.5,0.25,0.55,0.6,0.5,0.56,0.5,0.55,0.6,0.5,0.4,0.33,0.55,0.25,0.55,0.61,0.48,0.58,0.4,0.5,0.58,0.25,0.55,0.34,0.4,0.5,0.58,0.33,0.25,0.55,0.61,0.58,0.48,0.55,0.5,0.56,0.5,0.29,0.29,0.5,0.55,0.29,0.48,0.55,0.4,0.5,0.58,0.56,0.48,0.55,0.33,0.55,0.4,0.55,0.33,0.58,0.48,0.55,0.6,0.6,0.29,0.42,0.48,0.55,0.33,0.4,0.48,0.56,0.6,0.48,0.58,0.44,0.56,0.25,0.55,0.33,0.58,0.48,0.55,0.6,0.6,0.29,0.42,0.48,0.55,0.61,0.6,0.4,0.5,0.33,0.29,0.55,0.58,0.25,0.55,0.5,0.58,0.61" style="fill:rgb(0,0,0);font-family:URWPalladioL-Roma;font-size:9.96px;stroke:none;">IQL-10, Paya Parto, Tehran, Iran). The available range for the pulse frequency, the pulse duration, and</text>
   <text y="422.023" x="76.535,79.793,85.608,90.3888,92.873,98.878,104.904,107.811,112.048,116.8288,119.313,124.099,129.915,134.701,138.468,144.024,149.6016,152.058,160.392,165.178,168.946,173.7268,176.21,181.206,183.704,188.701,193.697,198.693,203.673,206.168,214.991,219.228,221.71800000000002,224.204,229.2,234.196,239.193,244.189,249.185,254.165,256.66,264.973,269.97,272.46000000000004,274.946,279.942,285.758,291.8336,294.341,299.338,304.334,309.33,314.31,316.804,320.132,322.622,325.108,328.875,333.662,337.899,343.904,348.69,353.127,356.385,359.292,364.938,369.725,372.632,377.079,379.569,383.065,389.19,395.006,399.78679999999997,402.27,407.266,412.912,417.699,421.646,426.642,432.198,436.9788,439.462,445.468,450.924,459.257,464.044,468.02799999999996,470.469,475.925,479.21180000000004,481.73,484.988,490.804,495.5848,498.068,500.976,505.972,510.209,514.995" svgx:width="0.33,0.58,0.48,0.55,0.6,0.6,0.29,0.42,0.48,0.55,0.48,0.58,0.48,0.4,0.56,0.56,0.55,0.83,0.48,0.4,0.48,0.55,0.5,0.25,0.5,0.5,0.5,0.5,0.55,0.88,0.42,0.25,0.55,0.5,0.5,0.5,0.5,0.5,0.5,0.55,0.83,0.5,0.25,0.55,0.5,0.58,0.61,0.55,0.5,0.5,0.5,0.5,0.55,0.33,0.25,0.55,0.4,0.48,0.42,0.6,0.48,0.44,0.33,0.29,0.56,0.48,0.29,0.56,0.25,0.55,0.61,0.58,0.48,0.55,0.5,0.56,0.48,0.4,0.5,0.56,0.48,0.55,0.6,0.55,0.83,0.48,0.4,0.55,0.55,0.33,0.55,0.33,0.58,0.48,0.55,0.29,0.5,0.42,0.48,0.4" style="fill:rgb(0,0,0);font-family:URWPalladioL-Roma;font-size:9.96px;stroke:none;">the pulse energy were 0.2–20 ms, 1–1000 Hz, and 0–40 J, respectively. The average power of the laser</text>
   <text y="435.532" x="76.535,82.744,85.701,91.77659999999999,94.755,100.669,106.218,109.5048,112.386,117.254,122.497,127.009,131.876,136.744,142.8196,145.798,150.879,155.96,160.94,163.896,173.134,175.624,178.53,184.759,190.673,194.504,199.372,204.1528,207.084,210.041,214.909,220.823,225.132,229.999,234.1822,237.163,240.547,245.628,250.60799999999998,253.555,262.527,271.29179999999997,274.356,277.74,283.288,287.8,292.881,295.76939999999996,298.683,301.64,306.508,312.422,318.072,321.385,327.299,330.5858,333.528,342.003,346.871,350.712,355.4928,358.425,364.552,368.861,373.729,379.8046,382.783,385.74,391.5168,394.509,397.822,403.736,408.5168,411.449,414.833,420.382,424.893,431.021,435.33,438.287,444.201,449.77860000000004,452.696,458.245,464.352,467.665,470.622,475.134,480.215,483.10339999999997,486.027,490.336,495.986,500.294,503.607,508.475,517.448" svgx:width="0.61,0.29,0.61,0.55,0.58,0.55,0.33,0.55,0.48,0.52,0.44,0.48,0.48,0.61,0.55,0.5,0.5,0.5,0.55,1.0,0.25,0.55,0.61,0.58,0.4,0.48,0.48,0.55,0.29,0.48,0.58,0.42,0.48,0.42,0.55,0.33,0.5,0.5,0.55,0.88,0.88,0.55,0.33,0.55,0.44,0.5,0.29,0.55,0.29,0.48,0.58,0.56,0.33,0.58,0.33,0.55,0.83,0.48,0.4,0.48,0.55,0.6,0.42,0.48,0.61,0.55,0.29,0.58,0.55,0.33,0.58,0.48,0.55,0.33,0.55,0.44,0.6,0.42,0.29,0.58,0.56,0.55,0.55,0.6,0.33,0.29,0.44,0.5,0.29,0.55,0.42,0.56,0.42,0.33,0.48,0.88,0.25" style="fill:rgb(0,0,0);font-family:URWPalladioL-Roma;font-size:9.96px;stroke:none;">did not exceed 700 W. Three lenses (75 mm focal length) were used in the focusing optical system,</text>
   <text y="449.042" x="76.535,81.541,87.368,93.44359999999999,95.979,99.243,105.07,109.85079999999999,112.369,121.21,124.124,129.951,132.865,141.706,147.743,159.077,163.323,169.34,174.807,178.0938,180.574,184.819,187.733,192.739,197.5198,200.028,208.378,213.385,217.5682,220.123,225.129,230.135,235.11499999999998,237.645,246.486,255.327,257.817,261.334,268.203,273.86,278.656,282.61,287.617,293.184,297.9648,300.483,306.5,311.967,320.317,325.113,329.097,331.561,334.475,340.2518,342.805,347.601,352.607,357.053,362.8298,365.373,370.169,375.335,381.353,386.149,390.104,393.017,401.858,406.654,412.482,415.76880000000006,418.239,423.245,429.072,435.1476,437.693,443.71,449.748,452.661,456.907,461.6878,464.196,468.992,474.819,479.615,483.389,488.956,494.53360000000004,497.026,505.377,510.173,513.947" svgx:width="0.5,0.58,0.61,0.55,0.33,0.58,0.48,0.55,0.88,0.29,0.58,0.29,0.88,0.6,0.88,0.42,0.6,0.55,0.33,0.55,0.42,0.29,0.5,0.48,0.55,0.83,0.5,0.42,0.55,0.5,0.5,0.5,0.55,0.88,0.88,0.25,0.55,0.78,0.56,0.48,0.4,0.5,0.56,0.48,0.55,0.6,0.55,0.83,0.48,0.4,0.55,0.29,0.58,0.55,0.48,0.5,0.44,0.58,0.55,0.48,0.52,0.6,0.48,0.4,0.29,0.88,0.48,0.58,0.33,0.55,0.5,0.58,0.61,0.55,0.6,0.6,0.29,0.42,0.48,0.55,0.48,0.58,0.48,0.4,0.56,0.56,0.55,0.83,0.48,0.4,0.48" style="fill:rgb(0,0,0);font-family:URWPalladioL-Roma;font-size:9.96px;stroke:none;">and the minimumspot size was 250 mm. Average power in each experiment and pulse energy were</text>
   <text y="462.551" x="76.535,85.156,89.833,94.714,98.854,104.741,108.422,113.099,119.1746,121.407,126.806,132.3836,134.588,140.553,148.149,153.031,157.912,162.794,172.001,175.252,181.218,187.194,189.468,191.752,197.083,202.97,205.811,210.5918,212.831,221.452,226.129,229.312,233.988,237.972,240.198,243.449,249.415,255.38,261.267,264.518,267.36,272.241,277.64,280.13,282.454,289.542,294.424,298.104,303.435,308.913,311.109,318.031,320.873,326.203,330.343,335.02,337.51,339.843,345.808,350.485,355.523,363.665,368.342,371.183,374.0714,376.367,382.333,388.22,392.36,395.201,400.883,405.56,409.699,413.8822,416.192,422.089,426.971,430.827,436.256,438.746,441.069,449.182,454.513,458.37,461.621,466.952,469.793,475.221,477.711,480.035,486.0,491.682,497.111,499.952,504.833,510.516,516.481" svgx:width="0.88,0.48,0.5,0.42,0.6,0.4,0.48,0.61,0.55,0.55,0.56,0.55,0.61,0.78,0.5,0.5,0.5,1.0,0.33,0.61,0.6,0.55,0.23,0.55,0.6,0.29,0.48,0.55,0.88,0.48,0.33,0.48,0.4,0.55,0.33,0.61,0.61,0.6,0.33,0.29,0.5,0.55,0.25,0.55,0.73,0.5,0.4,0.55,0.55,0.55,0.71,0.29,0.55,0.42,0.48,0.25,0.55,0.61,0.48,0.52,0.83,0.48,0.29,0.29,0.55,0.61,0.6,0.42,0.29,0.58,0.48,0.42,0.42,0.55,0.6,0.5,0.4,0.56,0.25,0.55,0.83,0.55,0.4,0.33,0.55,0.29,0.56,0.25,0.55,0.61,0.58,0.56,0.29,0.5,0.58,0.61,0.33" style="fill:rgb(0,0,0);font-family:URWPalladioL-Roma;font-size:9.96px;stroke:none;">measured by LA300W-LP joule meter (Edu-lab, Karoo Close, Bexwell Business Park, Norfolk, England)</text>
   <text y="476.061" x="76.535,81.417,87.099,93.1746,95.417,100.299,105.181,110.062,114.944,124.161,127.412,133.377,139.353,141.617,149.291,155.159,160.842,163.683,167.667,169.892,173.143,180.817,186.685,192.367,195.209,199.193,201.408,207.305,212.988,218.318,221.501,226.832,232.514,235.355,239.69,243.8732,246.183,253.632,257.313,262.644,268.531,274.399,277.65,285.324,291.192,296.874,299.715,303.386,306.638,311.763,317.631,320.472,324.329,327.17,331.505,336.836,342.518,345.008,347.341,355.454,360.785,364.642,367.824,373.6008,375.85,381.815,387.146,392.575,397.456,403.139,405.629,407.962,415.558,420.8,423.29,425.594,433.19,438.316,445.912,449.163,451.653,453.957,459.932,465.614,470.3948,472.644,478.512,481.353,486.234,492.01079999999996,494.27,499.6,502.88680000000005,505.195,508.378,514.06" svgx:width="0.5,0.58,0.61,0.55,0.5,0.5,0.5,0.5,1.0,0.33,0.61,0.6,0.55,0.79,0.6,0.58,0.29,0.4,0.55,0.33,0.79,0.6,0.58,0.29,0.4,0.55,0.6,0.58,0.55,0.33,0.55,0.58,0.29,0.44,0.42,0.55,0.76,0.4,0.55,0.6,0.6,0.33,0.79,0.6,0.58,0.29,0.4,0.33,0.52,0.6,0.29,0.4,0.29,0.44,0.55,0.58,0.25,0.55,0.83,0.55,0.4,0.33,0.58,0.55,0.61,0.55,0.56,0.5,0.58,0.25,0.55,0.78,0.61,0.25,0.55,0.78,0.52,0.78,0.33,0.25,0.55,0.61,0.58,0.48,0.55,0.6,0.29,0.5,0.58,0.55,0.55,0.33,0.55,0.33,0.58,0.48" style="fill:rgb(0,0,0);font-family:URWPalladioL-Roma;font-size:9.96px;stroke:none;">and 5000W-LP Ophir (Ophir Photonics Group-Ophir-Spiricon, North Logan, UT, USA). The plan of the</text>
   <text y="489.57" x="76.535,81.307,86.448,92.435,97.207,101.143,104.042,112.839,117.611,123.409,126.6958,129.148,132.465,137.905,141.889,144.331,150.418,155.648,161.755,170.02179999999998,172.535,175.434,179.6172,182.148,186.373,192.171,197.61,205.919,211.69580000000002,214.208,217.107,222.8838,225.396,230.587,235.568,241.077,243.976" svgx:width="0.48,0.52,0.6,0.48,0.4,0.29,0.88,0.48,0.58,0.33,0.55,0.33,0.55,0.4,0.55,0.61,0.52,0.61,0.83,0.55,0.29,0.42,0.55,0.42,0.58,0.55,0.83,0.58,0.55,0.29,0.58,0.55,0.61,0.5,0.55,0.29,0.48" style="fill:rgb(0,0,0);font-family:URWPalladioL-Roma;font-size:9.96px;stroke:none;">experiment for LSTH is shown in Table</text>
   <text y="489.57" x="251.239" svgx:width="0.5" style="fill:rgb(8,117,183);font-family:URWPalladioL-Roma;font-size:9.96px;stroke:none;">2</text>
   <text y="489.57" x="256.22" svgx:width="0.25" style="fill:rgb(0,0,0);font-family:URWPalladioL-Roma;font-size:9.96px;stroke:none;">.</text>
   <text y="513.941" x="128.059,133.044,137.528,143.006,145.992,150.477,152.717,157.2" svgx:width="0.67,0.5,0.61,0.33,0.5,0.55,0.5,0.25" style="fill:rgb(0,0,0);font-family:URWPalladioL-Bold;font-size:8.97px;stroke:none;">Table 2.</text>
   <text y="513.941" x="162.579,168.057,172.684,178.073,182.368,185.91,188.519,196.436,200.731,205.949,208.873,213.356,215.9573,218.207,222.008,226.303,229.226,232.149,234.759,239.977,245.0002,247.204,251.687,256.906,262.3777,264.626,268.006,272.301,276.103,281.509,284.119,287.042,290.8094,293.085,297.981,300.9411,303.208,305.817,310.3,314.102,318.397,321.985,324.18,327.982,333.389,336.931,339.916,344.4,348.381,352.6866,354.917,360.136,364.619,367.999,373.478,377.773,382.991,385.6,390.819,395.8422,398.046,403.004,408.0272,410.231,417.682,423.161,425.402,430.558,437.534,444.3512,446.617,449.226,453.709,457.511,461.806,464.684" svgx:width="0.61,0.52,0.6,0.48,0.4,0.29,0.88,0.48,0.58,0.33,0.5,0.29,0.55,0.42,0.48,0.33,0.33,0.29,0.58,0.56,0.55,0.5,0.58,0.61,0.55,0.4,0.48,0.42,0.6,0.29,0.33,0.42,0.55,0.55,0.33,0.55,0.29,0.5,0.42,0.48,0.4,0.55,0.42,0.6,0.4,0.33,0.5,0.44,0.48,0.55,0.58,0.5,0.4,0.61,0.48,0.58,0.29,0.58,0.56,0.55,0.55,0.56,0.55,0.83,0.61,0.25,0.67,0.78,0.76,0.55,0.29,0.5,0.42,0.48,0.4,0.25" style="fill:rgb(0,0,0);font-family:URWPalladioL-Roma;font-size:8.97px;stroke:none;">Experimental setting and results of laser surface hardening by Nd:YAG laser.</text>
  </g>
  <path style="fill:none;stroke:rgb(0,0,0);stroke-width:0.8;" d="M76.590 524.040 L518.690 524.040 "/>
  <g begin="text">
   <text y="548.244" x="83.902,89.13,92.62" svgx:width="0.83,0.56,0.25" style="fill:rgb(0,0,0);font-family:URWPalladioL-Bold;font-size:6.28px;stroke:none;">No.</text>
   <text y="531.644" x="150.747,153.188,157.023,160.858,164.693,166.7654,168.352,172.539,175.677,178.119,180.209,183.347,187.182,189.272,192.41,195.1732,341.282,346.51,350.345,352.435,356.27,360.105,362.17740000000003,363.764,368.296,371.434,374.221,378.056,381.546,385.381,388.167,391.306" svgx:width="0.39,0.61,0.61,0.61,0.33,0.55,0.78,0.5,0.39,0.33,0.5,0.61,0.33,0.5,0.44,0.55,0.83,0.61,0.33,0.61,0.61,0.33,0.55,0.72,0.5,0.44,0.61,0.56,0.61,0.44,0.5,0.44" style="fill:rgb(0,0,0);font-family:URWPalladioL-Bold;font-size:6.28px;stroke:none;">Input Variables Output Responses</text>
   <text y="543.941" x="494.02,497.855,501.69,504.131,506.573,509.711,512.498" svgx:width="0.61,0.61,0.39,0.39,0.5,0.44,0.5" style="fill:rgb(0,0,0);font-family:URWPalladioL-Bold;font-size:6.28px;stroke:none;">Surface</text>
   <text y="551.612" x="494.02,500.296,503.435,505.525,507.615,509.705,513.54" svgx:width="1.0,0.5,0.33,0.33,0.33,0.61,0.56" style="fill:rgb(0,0,0);font-family:URWPalladioL-Bold;font-size:6.28px;stroke:none;">Melting</text>
  </g>
  <path style="fill:none;stroke:rgb(0,0,0);stroke-width:0.56;" d="M100.400 535.250 L489.840 535.250 "/>
  <g begin="text">
   <text y="542.676" x="113.126,116.616,120.106,122.892,126.031" svgx:width="0.56,0.56,0.44,0.5,0.33" style="fill:rgb(0,0,0);font-family:URWPalladioL-Bold;font-size:6.28px;stroke:none;">Focal</text>
   <text y="550.347" x="112.605,116.44,118.53,121.669,125.503" svgx:width="0.61,0.33,0.5,0.61,0.5" style="fill:rgb(0,0,0);font-family:URWPalladioL-Bold;font-size:6.28px;stroke:none;">Plane</text>
   <text y="558.018" x="108.77,112.605,116.095,118.881,120.971,123.062,125.152,128.641" svgx:width="0.61,0.56,0.44,0.33,0.33,0.33,0.56,0.61" style="fill:rgb(0,0,0);font-family:URWPalladioL-Bold;font-size:6.28px;stroke:none;">Position</text>
   <text y="565.69" x="112.85,114.94,120.52,126.1" svgx:width="0.33,0.89,0.89,0.33" style="fill:rgb(0,0,0);font-family:URWPalladioL-Bold;font-size:6.28px;stroke:none;">(mm)</text>
   <text y="546.511" x="150.452,154.287,158.122,160.212,162.999" svgx:width="0.61,0.61,0.33,0.44,0.5" style="fill:rgb(0,0,0);font-family:URWPalladioL-Bold;font-size:6.28px;stroke:none;">Pulse</text>
   <text y="554.182" x="149.191,155.235,157.325,161.16,163.25" svgx:width="1.0,0.33,0.61,0.33,0.61" style="fill:rgb(0,0,0);font-family:URWPalladioL-Bold;font-size:6.28px;stroke:none;">Width</text>
   <text y="561.854" x="151.917,154.007,159.587,162.374" svgx:width="0.33,0.89,0.44,0.33" style="fill:rgb(0,0,0);font-family:URWPalladioL-Bold;font-size:6.28px;stroke:none;">(ms)</text>
   <text y="546.511" x="185.583,189.418,192.556,195.343,198.481" svgx:width="0.61,0.5,0.44,0.5,0.39" style="fill:rgb(0,0,0);font-family:URWPalladioL-Bold;font-size:6.28px;stroke:none;">Laser</text>
   <text y="554.182" x="184.187,188.022,191.511,196.74,199.878" svgx:width="0.61,0.56,0.83,0.5,0.39" style="fill:rgb(0,0,0);font-family:URWPalladioL-Bold;font-size:6.28px;stroke:none;">Power</text>
   <text y="561.854" x="187.862,189.952,196.228" svgx:width="0.33,1.0,0.33" style="fill:rgb(0,0,0);font-family:URWPalladioL-Bold;font-size:6.28px;stroke:none;">(W)</text>
   <text y="546.511" x="214.828,218.663,221.449,224.588,228.423,232.258,234.348,238.183" svgx:width="0.61,0.44,0.5,0.61,0.61,0.33,0.61,0.56" style="fill:rgb(0,0,0);font-family:URWPalladioL-Bold;font-size:6.28px;stroke:none;">Scanning</text>
   <text y="554.182" x="219.202,223.037,226.872,230.01,233.148" svgx:width="0.61,0.61,0.5,0.5,0.61" style="fill:rgb(0,0,0);font-family:URWPalladioL-Bold;font-size:6.28px;stroke:none;">Speed</text>
   <text y="561.854" x="218.0,220.09,225.67" svgx:width="0.33,0.89,0.89" style="fill:rgb(0,0,0);font-family:URWPalladioL-Bold;font-size:6.28px;stroke:none;">(mm</text>
   <text y="561.854" x="231.25" svgx:width="0.29" style="fill:rgb(0,0,0);font-family:Rpxb;font-size:6.28px;stroke:none;">/</text>
   <text y="561.854" x="233.101,235.888" svgx:width="0.44,0.33" style="fill:rgb(0,0,0);font-family:URWPalladioL-Bold;font-size:6.28px;stroke:none;">s)</text>
   <text y="546.511" x="250.178,255.407,258.545,262.38,264.47,268.30080000000004,269.874,273.364" svgx:width="0.83,0.5,0.61,0.33,0.61,0.55,0.56,0.39" style="fill:rgb(0,0,0);font-family:URWPalladioL-Bold;font-size:6.28px;stroke:none;">Depth of</text>
   <text y="554.182" x="249.726,254.954,258.093,260.534,264.369,268.204,271.342,274.129" svgx:width="0.83,0.5,0.39,0.61,0.61,0.5,0.44,0.44" style="fill:rgb(0,0,0);font-family:URWPalladioL-Bold;font-size:6.28px;stroke:none;">Hardness</text>
   <text y="561.854" x="255.98" svgx:width="0.33" style="fill:rgb(0,0,0);font-family:URWPalladioL-Bold;font-size:6.28px;stroke:none;">(</text>
   <text y="561.854" x="258.07" svgx:width="0.65" style="fill:rgb(0,0,0);font-family:EURB10;font-size:6.28px;stroke:none;">µ</text>
   <text y="561.854" x="262.127,267.706" svgx:width="0.89,0.33" style="fill:rgb(0,0,0);font-family:URWPalladioL-Bold;font-size:6.28px;stroke:none;">m)</text>
   <text y="546.511" x="285.194,291.238,293.328,297.163,299.253,303.0838,304.657,308.147" svgx:width="1.0,0.33,0.61,0.33,0.61,0.55,0.56,0.39" style="fill:rgb(0,0,0);font-family:URWPalladioL-Bold;font-size:6.28px;stroke:none;">Width of</text>
   <text y="554.182" x="284.625,289.854,292.992,295.433,299.268,303.103,306.242,309.028" svgx:width="0.83,0.5,0.39,0.61,0.61,0.5,0.44,0.44" style="fill:rgb(0,0,0);font-family:URWPalladioL-Bold;font-size:6.28px;stroke:none;">Hardness</text>
   <text y="561.854" x="290.879" svgx:width="0.33" style="fill:rgb(0,0,0);font-family:URWPalladioL-Bold;font-size:6.28px;stroke:none;">(</text>
   <text y="561.854" x="292.969" svgx:width="0.65" style="fill:rgb(0,0,0);font-family:EURB10;font-size:6.28px;stroke:none;">µ</text>
   <text y="561.854" x="297.025,302.605" svgx:width="0.89,0.33" style="fill:rgb(0,0,0);font-family:URWPalladioL-Bold;font-size:6.28px;stroke:none;">m)</text>
   <text y="550.347" x="320.322,325.205,329.04,332.53,334.62,337.76,339.327,342.817" svgx:width="0.78,0.61,0.56,0.33,0.5,0.55,0.56,0.39" style="fill:rgb(0,0,0);font-family:URWPalladioL-Bold;font-size:6.28px;stroke:none;">Angle of</text>
   <text y="558.018" x="320.619,324.454,328.289,330.379,332.82,336.3368,337.879" svgx:width="0.61,0.61,0.33,0.39,0.56,0.55,0.33" style="fill:rgb(0,0,0);font-family:URWPalladioL-Bold;font-size:6.28px;stroke:none;">Entry (</text>
   <text y="555.74" x="339.969" svgx:width="0.52" style="fill:rgb(0,0,0);font-family:Pxsy;font-size:4.88px;stroke:none;">◦</text>
   <text y="558.018" x="342.871" svgx:width="0.33" style="fill:rgb(0,0,0);font-family:URWPalladioL-Bold;font-size:6.28px;stroke:none;">)</text>
   <text y="546.511" x="354.424,360.7,363.839,366.977,369.067,374.647,378.482" svgx:width="1.0,0.5,0.5,0.33,0.89,0.61,0.89" style="fill:rgb(0,0,0);font-family:URWPalladioL-Bold;font-size:6.28px;stroke:none;">Maximum</text>
   <text y="554.182" x="354.424,359.652,362.79,365.232,369.067,372.902,376.04,378.827" svgx:width="0.83,0.5,0.39,0.61,0.61,0.5,0.44,0.44" style="fill:rgb(0,0,0);font-family:URWPalladioL-Bold;font-size:6.28px;stroke:none;">Hardness</text>
   <text y="561.854" x="361.833,363.923,367.758,371.248" svgx:width="0.33,0.61,0.56,0.33" style="fill:rgb(0,0,0);font-family:URWPalladioL-Bold;font-size:6.28px;stroke:none;">(hv)</text>
   <text y="546.511" x="393.174,396.663,399.802,402.243,404.685,406.775,408.865" svgx:width="0.56,0.5,0.39,0.39,0.33,0.33,0.5" style="fill:rgb(0,0,0);font-family:URWPalladioL-Bold;font-size:6.28px;stroke:none;">Ferrite</text>
   <text y="554.182" x="391.956,395.791,398.929,401.37,404.157,407.295,411.13" svgx:width="0.61,0.5,0.39,0.44,0.5,0.61,0.33" style="fill:rgb(0,0,0);font-family:URWPalladioL-Bold;font-size:6.28px;stroke:none;">Percent</text>
   <text y="561.854" x="397.605,399.695,405.275" svgx:width="0.33,0.89,0.33" style="fill:rgb(0,0,0);font-family:URWPalladioL-Bold;font-size:6.28px;stroke:none;">(%)</text>
   <text y="550.347" x="425.374,431.65,436.878,442.0904,443.676,445.766" svgx:width="1.0,0.83,0.83,0.55,0.33,0.61" style="fill:rgb(0,0,0);font-family:URWPalladioL-Bold;font-size:6.28px;stroke:none;">MHD in</text>
   <text y="558.018" x="428.424,433.652,436.79,440.625,442.715" svgx:width="0.83,0.5,0.61,0.33,0.61" style="fill:rgb(0,0,0);font-family:URWPalladioL-Bold;font-size:6.28px;stroke:none;">Depth</text>
   <text y="550.347" x="460.273,466.549,471.778,476.9904,478.575,480.665" svgx:width="1.0,0.83,0.83,0.55,0.33,0.61" style="fill:rgb(0,0,0);font-family:URWPalladioL-Bold;font-size:6.28px;stroke:none;">MHD in</text>
   <text y="558.018" x="463.282,469.326,471.417,475.251,477.341" svgx:width="1.0,0.33,0.61,0.33,0.61" style="fill:rgb(0,0,0);font-family:URWPalladioL-Bold;font-size:6.28px;stroke:none;">Width</text>
  </g>
  <path style="fill:none;stroke:rgb(0,0,0);stroke-width:0.25;" d="M76.590 569.300 L518.690 569.300 "/>
  <g begin="text">
   <text y="576.722" x="86.927,90.06700000000001,117.487,120.626,123.766,155.159,158.297,161.43699999999998,188.487,191.625,194.763,197.903,226.522,229.66199999999998,259.857,262.995,266.135,291.616,294.754,297.892,301.03,304.16999999999996,327.298,330.436,332.005,335.143,338.28299999999996,362.979,366.118,369.256,372.39599999999996,395.529,398.668,401.806,403.375,406.513,409.65299999999996,431.211,434.349,437.488,440.626,443.76599999999996,463.755,466.893,470.031,471.6,474.738,477.877,481.017,503.215" svgx:width="0.5,0.55,0.5,0.5,0.55,0.5,0.5,0.55,0.5,0.5,0.5,0.55,0.5,0.55,0.5,0.5,0.55,0.5,0.5,0.5,0.5,0.55,0.5,0.25,0.5,0.5,0.55,0.5,0.5,0.5,0.55,0.5,0.5,0.25,0.5,0.5,0.55,0.5,0.5,0.5,0.5,0.55,0.5,0.5,0.25,0.5,0.5,0.5,0.55,0.33" style="fill:rgb(0,0,0);font-family:URWPalladioL-Roma;font-size:6.28px;stroke:none;">1 11 15 130 1 71 1821 4.37 397 14.05 1592 21,474 -</text>
   <text y="584.393" x="86.927,90.06700000000001,119.057,122.197,155.159,158.297,161.43699999999998,188.487,191.625,194.763,197.903,226.522,229.66199999999998,256.719,259.857,262.995,266.133,269.27299999999997,291.616,294.754,297.892,301.03,304.16999999999996,327.298,330.436,333.574,335.143,338.28299999999996,362.979,366.118,369.256,372.39599999999996,397.098,400.237,401.806,404.944,408.084,429.642,432.78,435.918,439.057,442.195,445.335,463.755,466.893,470.031,471.6,474.738,477.877,481.017,499.681,503.171,506.177" svgx:width="0.5,0.55,0.5,0.55,0.5,0.5,0.55,0.5,0.5,0.5,0.55,0.5,0.55,0.5,0.5,0.5,0.5,0.55,0.5,0.5,0.5,0.5,0.55,0.5,0.5,0.25,0.5,0.55,0.5,0.5,0.5,0.55,0.5,0.25,0.5,0.5,0.55,0.5,0.5,0.5,0.5,0.5,0.55,0.5,0.5,0.25,0.5,0.5,0.5,0.55,0.56,0.48,0.42" style="fill:rgb(0,0,0);font-family:URWPalladioL-Roma;font-size:6.28px;stroke:none;">2 8 15 130 1 1291 1774 53.3 698 0.25 19501 19,768 yes</text>
   <text y="592.064" x="86.927,90.06700000000001,119.057,122.197,155.159,158.297,161.43699999999998,188.487,191.625,194.763,197.903,226.522,229.66199999999998,258.288,261.426,264.564,267.704,291.616,294.754,297.892,301.031,304.171,325.729,328.867,332.005,333.574,336.712,339.852,362.979,366.118,369.256,372.39599999999996,397.098,400.237,401.806,404.944,408.084,428.857,431.996,435.134,436.703,439.841,442.98,446.12,463.755,466.893,470.031,471.6,474.738,477.877,481.017,499.681,503.171,506.177" svgx:width="0.5,0.55,0.5,0.55,0.5,0.5,0.55,0.5,0.5,0.5,0.55,0.5,0.55,0.5,0.5,0.5,0.55,0.5,0.5,0.5,0.5,0.55,0.5,0.5,0.25,0.5,0.5,0.55,0.5,0.5,0.5,0.55,0.5,0.25,0.5,0.5,0.55,0.5,0.5,0.25,0.5,0.5,0.5,0.55,0.5,0.5,0.25,0.5,0.5,0.5,0.55,0.56,0.48,0.42" style="fill:rgb(0,0,0);font-family:URWPalladioL-Roma;font-size:6.28px;stroke:none;">3 9 15 130 1 360 1805 21.67 690 0.32 17,040 21,115 yes</text>
   <text y="599.736" x="86.927,90.06700000000001,119.057,122.197,155.159,158.297,161.43699999999998,188.487,191.625,194.763,197.903,226.522,229.66199999999998,258.288,261.426,264.564,267.704,291.616,294.754,297.892,301.031,304.171,325.729,328.867,332.005,333.574,336.712,339.852,362.979,366.118,369.256,372.39599999999996,398.668,401.806,403.375,406.515,431.211,434.349,437.488,440.626,443.76599999999996,466.108,469.247,472.385,475.523,478.663,499.681,503.171,506.177" svgx:width="0.5,0.55,0.5,0.55,0.5,0.5,0.55,0.5,0.5,0.5,0.55,0.5,0.55,0.5,0.5,0.5,0.55,0.5,0.5,0.5,0.5,0.55,0.5,0.5,0.25,0.5,0.5,0.55,0.5,0.5,0.5,0.55,0.5,0.25,0.5,0.55,0.5,0.5,0.5,0.5,0.55,0.5,0.5,0.5,0.5,0.55,0.56,0.48,0.42" style="fill:rgb(0,0,0);font-family:URWPalladioL-Roma;font-size:6.28px;stroke:none;">4 9 17 135 1 271 1768 17.07 681 0.4 9242 7848 yes</text>
   <text y="607.407" x="86.927,90.06700000000001,117.487,120.626,123.766,155.159,158.297,161.43699999999998,188.487,191.625,194.763,197.903,226.522,229.66199999999998,258.288,261.426,264.564,267.704,291.616,294.754,297.892,301.031,304.171,327.298,330.436,332.005,335.143,338.28299999999996,362.979,366.118,369.256,372.39599999999996,397.098,400.237,401.806,404.944,408.084,431.211,434.349,437.488,440.626,443.76599999999996,463.755,466.893,470.031,471.6,474.739,477.877,481.017,503.215" svgx:width="0.5,0.55,0.5,0.5,0.55,0.5,0.5,0.55,0.5,0.5,0.5,0.55,0.5,0.55,0.5,0.5,0.5,0.55,0.5,0.5,0.5,0.5,0.55,0.5,0.25,0.5,0.5,0.55,0.5,0.5,0.5,0.55,0.5,0.25,0.5,0.5,0.55,0.5,0.5,0.5,0.5,0.55,0.5,0.5,0.25,0.5,0.5,0.5,0.55,0.33" style="fill:rgb(0,0,0);font-family:URWPalladioL-Roma;font-size:6.28px;stroke:none;">5 11 17 135 1 100 1837 6.14 548 1.07 1932 22,042 -</text>
   <text y="615.078" x="86.927,90.06700000000001,117.487,120.626,123.766,155.159,158.297,161.43699999999998,188.487,191.625,194.763,197.903,226.522,229.66199999999998,258.288,261.426,264.564,267.704,291.616,294.754,297.892,301.031,304.171,327.298,330.436,332.005,335.143,338.28299999999996,362.979,366.118,369.256,372.39599999999996,397.098,400.237,401.806,404.944,408.084,431.211,434.349,437.488,440.626,443.76599999999996,463.755,466.893,470.031,471.6,474.739,477.877,481.017,503.215" svgx:width="0.5,0.55,0.5,0.5,0.55,0.5,0.5,0.55,0.5,0.5,0.5,0.55,0.5,0.55,0.5,0.5,0.5,0.55,0.5,0.5,0.5,0.5,0.55,0.5,0.25,0.5,0.5,0.55,0.5,0.5,0.5,0.55,0.5,0.25,0.5,0.5,0.55,0.5,0.5,0.5,0.5,0.55,0.5,0.5,0.25,0.5,0.5,0.5,0.55,0.33" style="fill:rgb(0,0,0);font-family:URWPalladioL-Roma;font-size:6.28px;stroke:none;">6 11 20 155 1 141 1862 8.63 566 0.92 4730 26,435 -</text>
   <text y="622.75" x="86.927,90.06700000000001,117.487,120.626,123.766,155.159,158.297,161.43699999999998,188.487,191.625,194.763,197.903,224.169,227.307,228.876,232.016,258.288,261.426,264.564,267.704,291.616,294.754,297.892,301.031,304.171,327.298,330.436,332.005,335.143,338.28299999999996,362.979,366.118,369.256,372.39599999999996,397.098,400.237,401.806,404.944,408.084,431.211,434.349,437.488,440.626,443.76599999999996,463.755,466.893,470.031,471.6,474.739,477.877,481.017,503.215" svgx:width="0.5,0.55,0.5,0.5,0.55,0.5,0.5,0.55,0.5,0.5,0.5,0.55,0.5,0.25,0.5,0.55,0.5,0.5,0.5,0.55,0.5,0.5,0.5,0.5,0.55,0.5,0.25,0.5,0.5,0.55,0.5,0.5,0.5,0.55,0.5,0.25,0.5,0.5,0.55,0.5,0.5,0.5,0.5,0.55,0.5,0.5,0.25,0.5,0.5,0.5,0.55,0.33" style="fill:rgb(0,0,0);font-family:URWPalladioL-Roma;font-size:6.28px;stroke:none;">7 11 17 135 0.5 143 1897 8.35 585 0.81 5520 34,454 -</text>
   <text y="630.421" x="86.927,90.06700000000001,117.487,120.626,123.766,155.159,158.297,161.43699999999998,188.487,191.625,194.763,197.903,224.169,227.307,228.876,232.016,258.288,261.426,264.564,267.704,291.616,294.754,297.892,301.031,304.171,328.867,332.005,333.574,336.714,362.979,366.118,369.256,372.39599999999996,397.098,400.237,401.806,404.944,408.084,431.211,434.349,437.488,440.626,443.76599999999996,463.755,466.893,470.031,471.6,474.738,477.877,481.017,503.215" svgx:width="0.5,0.55,0.5,0.5,0.55,0.5,0.5,0.55,0.5,0.5,0.5,0.55,0.5,0.25,0.5,0.55,0.5,0.5,0.5,0.55,0.5,0.5,0.5,0.5,0.55,0.5,0.25,0.5,0.55,0.5,0.5,0.5,0.55,0.5,0.25,0.5,0.5,0.55,0.5,0.5,0.5,0.5,0.55,0.5,0.5,0.25,0.5,0.5,0.5,0.55,0.33" style="fill:rgb(0,0,0);font-family:URWPalladioL-Roma;font-size:6.28px;stroke:none;">8 11 20 155 0.5 157 1915 9.1 665 0.47 7300 37,136 -</text>
   <text y="638.091" x="86.927,90.06700000000001,117.487,120.626,123.766,155.159,158.297,161.43699999999998,188.487,191.625,194.763,197.903,224.169,227.307,228.876,232.016,258.288,261.426,264.564,267.704,291.616,294.754,297.892,301.031,304.171,327.298,330.436,332.005,335.143,338.28299999999996,362.979,366.118,369.256,372.39599999999996,397.098,400.237,401.806,404.944,408.084,431.211,434.349,437.488,440.626,443.76599999999996,463.755,466.893,470.031,471.6,474.739,477.877,481.017,503.215" svgx:width="0.5,0.55,0.5,0.5,0.55,0.5,0.5,0.55,0.5,0.5,0.5,0.55,0.5,0.25,0.5,0.55,0.5,0.5,0.5,0.55,0.5,0.5,0.5,0.5,0.55,0.5,0.25,0.5,0.5,0.55,0.5,0.5,0.5,0.55,0.5,0.25,0.5,0.5,0.55,0.5,0.5,0.5,0.5,0.55,0.5,0.5,0.25,0.5,0.5,0.5,0.55,0.33" style="fill:rgb(0,0,0);font-family:URWPalladioL-Roma;font-size:6.28px;stroke:none;">9 11 20 155 0.2 193 2284 9.63 673 0.43 8563 43,202 -</text>
   <text y="645.763" x="85.358,88.496,91.636,117.487,120.625,123.765,155.159,158.297,161.43699999999998,188.487,191.625,194.763,197.903,224.168,227.307,228.876,232.016,258.287,261.426,264.564,267.704,291.615,294.754,297.892,301.03,304.16999999999996,327.297,330.436,332.005,335.143,338.28299999999996,362.979,366.117,369.256,372.39599999999996,397.098,400.236,401.805,404.944,408.084,431.211,434.349,437.487,440.626,443.76599999999996,463.754,466.893,470.031,471.6,474.738,477.876,481.01599999999996,503.215" svgx:width="0.5,0.5,0.55,0.5,0.5,0.55,0.5,0.5,0.55,0.5,0.5,0.5,0.55,0.5,0.25,0.5,0.55,0.5,0.5,0.5,0.55,0.5,0.5,0.5,0.5,0.55,0.5,0.25,0.5,0.5,0.55,0.5,0.5,0.5,0.55,0.5,0.25,0.5,0.5,0.55,0.5,0.5,0.5,0.5,0.55,0.5,0.5,0.25,0.5,0.5,0.5,0.55,0.33" style="fill:rgb(0,0,0);font-family:URWPalladioL-Roma;font-size:6.28px;stroke:none;">10 11 18 140 0.5 146 1936 8.41 599 0.76 6430 39,079 -</text>
  </g>
  <path style="fill:none;stroke:rgb(0,0,0);stroke-width:0.25;" d="M76.590 649.540 L518.690 649.540 "/>
  <g begin="text">
   <text y="674.917" x="97.795,104.024,109.938,114.7188,118.495,124.602,130.73,133.687,137.995,142.7758,146.541,149.925,153.766,158.634,164.325,170.452,175.32,181.234,185.746,191.3236,195.085,203.56,208.64,212.82319999999999,216.628,222.278,227.145,233.252,236.5388,240.254,245.335,248.6218,252.336,257.417,262.397,266.187,274.642,279.723,282.213,289.336,297.242,300.626,303.938,308.806,312.78999999999996,316.498,322.707,328.042,334.271,342.726,345.216,348.955,352.268,358.182,362.9628,366.739,371.047,376.128,385.101,391.208,394.165,399.033,403.2162,407.03,410.414,414.245,419.794,428.55879999999996,432.455,435.768,441.682,446.4628,450.239,459.211,464.079,470.288,473.245,479.373,488.13779999999997,492.024,497.572,500.85880000000003,504.645,507.958,513.872" svgx:width="0.61,0.58,0.48,0.55,0.6,0.6,0.29,0.42,0.48,0.55,0.33,0.4,0.48,0.56,0.6,0.48,0.58,0.44,0.56,0.55,0.83,0.5,0.42,0.55,0.56,0.48,0.6,0.33,0.55,0.5,0.33,0.55,0.5,0.5,0.55,0.83,0.5,0.25,0.55,0.78,0.33,0.33,0.48,0.4,0.55,0.61,0.52,0.61,0.83,0.25,0.55,0.33,0.58,0.48,0.55,0.42,0.5,0.88,0.6,0.29,0.48,0.42,0.55,0.33,0.4,0.55,0.88,0.55,0.33,0.58,0.48,0.55,0.88,0.48,0.61,0.29,0.6,0.88,0.55,0.55,0.33,0.55,0.33,0.58,0.48" style="fill:rgb(0,0,0);font-family:URWPalladioL-Roma;font-size:9.96px;stroke:none;">The pulse frequency was kept at 15 Hz. After LSTH, the samples from the medium of the</text>
   <text y="688.426" x="76.535,82.391,87.422,91.216,97.364,102.184,108.04,110.968,116.824,122.4016,124.914,127.842,130.77,136.627,141.4078,143.942,152.334,157.154,160.947,165.7278,168.262,172.529,177.348,181.816,185.096,188.024,193.518,199.375,204.194,210.2696,212.838,218.402,223.97959999999998,226.492,234.884,237.812,241.606,246.3868,248.921,253.389,259.456,262.74280000000005,265.232,271.38,279.168,291.182,294.533,299.353,302.281,307.101,311.568,314.849,318.823,321.751,326.219,331.25,334.1384,336.664,342.812,345.74,350.006,354.474,360.33,365.361,369.164,374.759,379.5398,382.064,390.949,395.98,400.448,406.304,409.232,415.088,418.017,423.873,429.467,432.818,435.308,438.835,445.003,450.86,455.6408,458.175,462.441,467.472,476.357,482.405,485.333,490.153,494.3362,496.914,505.306,510.126,513.92" svgx:width="0.58,0.5,0.4,0.61,0.48,0.58,0.29,0.58,0.56,0.55,0.29,0.29,0.58,0.48,0.55,0.83,0.48,0.4,0.48,0.55,0.42,0.48,0.44,0.33,0.29,0.55,0.58,0.48,0.61,0.55,0.55,0.56,0.55,0.83,0.29,0.4,0.48,0.55,0.44,0.6,0.33,0.55,0.61,0.77,0.95,0.33,0.48,0.29,0.48,0.44,0.33,0.4,0.29,0.44,0.5,0.29,0.55,0.61,0.29,0.42,0.44,0.58,0.5,0.4,0.56,0.48,0.55,0.88,0.5,0.44,0.58,0.29,0.58,0.29,0.58,0.56,0.33,0.25,0.55,0.61,0.58,0.48,0.55,0.42,0.5,0.88,0.6,0.29,0.48,0.42,0.55,0.83,0.48,0.4,0.48" style="fill:rgb(0,0,0);font-family:URWPalladioL-Roma;font-size:9.96px;stroke:none;">hardening line were sectioned by wire cut EDM(electrical discharge machining). The samples were</text>
   <text y="701.935" x="76.236,82.164,85.882,90.606,96.534,101.465,105.184,109.908,115.9836,118.44,126.665,129.536,132.751,138.5278,140.996,145.178,148.394,153.325,159.065,165.092,170.023,173.732,179.8076,182.263,190.972,195.696,198.912,203.843,206.713,209.583,214.969,220.452,224.348,229.28,235.207,240.948,243.818,248.2004,250.702,256.186,260.082,262.952,268.692,274.719,277.589,283.329,288.9066,291.318,296.249,301.99,308.0656,310.521,316.449,321.834,324.704,327.574,331.756,337.496,340.366,346.107,351.68460000000005,354.096,357.311,362.035,366.415,372.155,377.895,380.765,386.289,392.236,396.96,401.1432,403.647,408.579,414.319,420.3946,422.851,427.575,430.79,435.169,440.91,443.78,449.52,455.0976,457.509,460.724,466.202,468.615,474.0,479.454,483.636,488.361,492.256,497.829,502.6098,505.059,508.274,514.014" svgx:width="0.6,0.4,0.48,0.6,0.5,0.4,0.48,0.61,0.55,0.83,0.29,0.33,0.58,0.55,0.42,0.33,0.5,0.58,0.61,0.5,0.4,0.61,0.55,0.88,0.48,0.33,0.5,0.29,0.29,0.55,0.56,0.4,0.5,0.6,0.58,0.29,0.44,0.55,0.56,0.4,0.29,0.58,0.61,0.29,0.58,0.56,0.55,0.5,0.58,0.61,0.55,0.6,0.55,0.29,0.29,0.42,0.58,0.29,0.58,0.56,0.55,0.33,0.48,0.44,0.58,0.58,0.29,0.56,0.6,0.48,0.42,0.55,0.5,0.58,0.61,0.55,0.48,0.33,0.44,0.58,0.29,0.58,0.56,0.55,0.33,0.55,0.55,0.55,0.55,0.42,0.48,0.4,0.56,0.48,0.55,0.33,0.58,0.48" style="fill:rgb(0,0,0);font-family:URWPalladioL-Roma;font-size:9.96px;stroke:none;">prepared with standard metallographic grinding and polishing techniques and etching to observe the</text>
   <text y="715.445" x="76.535,85.156,87.997,92.332,96.013,101.344,105.483,108.666,112.435,118.322,122.657,125.84,131.727,135.408,140.085,144.2682,146.626,154.769,157.61,160.793,166.56980000000001,168.877,172.06,177.742,182.5228,184.811,188.062,193.392,196.234,199.075,204.406,212.548,215.389,221.072,226.6496,228.902,232.583,237.259,242.141,247.569,252.246,257.928,261.111,263.601,266.989,271.87,282.473,290.587,293.428,296.611,301.492,304.333,307.048,311.2312,313.589,317.719,323.05,325.891,331.778,334.961,337.802,343.133,348.90979999999996,351.217,354.468,359.145,362.328,368.01,372.892,378.574,383.905,386.79339999999996,389.148,394.029,398.911,407.112,409.60200000000003,411.974,417.657,420.498,423.681,427.537,430.369,434.75140000000005,437.105,441.987,446.322,449.163,455.2386,457.53,462.412,470.613,473.8998,476.266,481.148,485.483,489.818,495.148,498.819,504.785,507.626,513.308" svgx:width="0.88,0.29,0.44,0.4,0.55,0.42,0.33,0.4,0.6,0.44,0.33,0.6,0.4,0.48,0.42,0.55,0.83,0.29,0.33,0.58,0.55,0.33,0.58,0.48,0.55,0.33,0.55,0.29,0.29,0.55,0.83,0.29,0.58,0.56,0.55,0.4,0.48,0.5,0.56,0.48,0.58,0.33,0.25,0.55,0.5,0.84,0.83,0.29,0.33,0.5,0.29,0.28,0.42,0.55,0.42,0.55,0.29,0.6,0.33,0.29,0.55,0.58,0.55,0.33,0.48,0.33,0.58,0.5,0.58,0.55,0.29,0.55,0.5,0.5,0.84,0.25,0.55,0.58,0.29,0.33,0.4,0.29,0.44,0.55,0.5,0.44,0.29,0.61,0.55,0.5,0.84,0.33,0.55,0.5,0.44,0.44,0.55,0.4,0.61,0.29,0.58,0.56" style="fill:rgb(0,0,0);font-family:URWPalladioL-Roma;font-size:9.96px;stroke:none;">microstructures with the following reagent: 2%Nital’s solution (ethanol 98%, nitric acid 2%) according</text>
   <text y="728.954" x="76.535,79.848,85.326,88.252,96.158,101.493,107.722,117.184,120.19,126.26559999999999,129.245,134.325,139.406,144.487,146.977,151.611,157.82,162.687,165.644,170.156,175.136,178.082,187.696,193.904,199.4816,202.41,207.491,215.2598,218.252,223.801,229.908,233.221,236.178,240.69,245.771,248.65939999999998,251.583,260.556,263.513,268.025,271.856,277.404,281.713,286.225,291.773,297.88,303.4576,306.386,309.77,315.979,320.846,323.803,328.315,333.295,336.252,345.865,348.822,353.334,357.165,362.713,367.022,372.672,376.98,380.293,385.161,394.133,398.442,400.932,403.93,409.01,414.091,419.172,424.15200000000004,427.109,433.318,438.185,441.142,447.351,452.219,456.203,459.078,465.287,470.368,476.282,481.149,483.639,486.637,492.846" svgx:width="0.33,0.55,0.55,0.78,0.52,0.61,0.95,0.55,0.61,0.55,0.5,0.5,0.5,0.25,0.55,0.61,0.48,0.29,0.44,0.5,0.55,0.95,0.61,0.56,0.55,0.5,0.78,0.55,0.55,0.6,0.33,0.29,0.44,0.5,0.29,0.55,0.88,0.29,0.44,0.4,0.55,0.42,0.44,0.55,0.6,0.56,0.55,0.33,0.61,0.48,0.29,0.44,0.5,0.55,0.95,0.29,0.44,0.4,0.55,0.42,0.56,0.42,0.33,0.48,0.88,0.42,0.25,0.55,0.5,0.5,0.5,0.5,0.55,0.61,0.48,0.29,0.61,0.48,0.4,0.55,0.61,0.5,0.58,0.48,0.25,0.55,0.61,0.6" style="fill:rgb(0,0,0);font-family:URWPalladioL-Roma;font-size:9.96px;stroke:none;">to ASTM E 407. Leica MEF 4A optical microscopy (Leica Microsystems, 1700 Leider Lane, Bu</text>
   <text y="728.954" x="498.976" svgx:width="0.61" style="fill:rgb(0,0,0);font-family:Rpxr;font-size:9.96px;stroke:none;">ﬀ</text>
   <text y="728.954" x="505.154,510.235,513.192" svgx:width="0.5,0.29,0.55" style="fill:rgb(0,0,0);font-family:URWPalladioL-Roma;font-size:9.96px;stroke:none;">alo</text>
   <text y="742.464" x="76.535,84.045,87.756,93.13,98.692,103.407,105.89699999999999,108.367,111.685,117.699,120.189,122.65,130.308,135.475,143.133,146.4198,148.911,157.12,159.984,163.193,168.96980000000002,171.412,176.334,181.255,186.177,191.098,196.02,200.941,207.6142,210.007,218.698,223.62,229.092,234.821,237.685,243.64,248.011,252.932,256.141,259.005,264.38,270.1568,272.609,277.53,283.259,289.3346,291.763,294.972,300.701,305.4818,307.916,311.233,319.924,324.846,330.318,335.033,338.31980000000004,340.811,344.985,350.359,353.637,356.845,365.055,369.976,373.677,378.4578,380.892,384.17,390.184,397.92,404.899,408.216,410.706,413.177,420.835,426.564,429.428,434.989,439.704,443.592,447.766,450.63,453.839,459.4166,461.802,467.176,470.4628,472.954,482.246,485.11,489.284,493.654,499.028,504.757,508.93,511.795,517.523" svgx:width="0.76,0.4,0.55,0.56,0.48,0.25,0.55,0.34,0.61,0.25,0.55,0.78,0.52,0.78,0.33,0.55,0.83,0.29,0.33,0.58,0.55,0.5,0.5,0.5,0.5,0.5,0.5,0.67,0.55,0.88,0.5,0.56,0.58,0.29,0.61,0.44,0.5,0.33,0.29,0.55,0.58,0.55,0.5,0.58,0.61,0.55,0.33,0.58,0.48,0.55,0.34,0.88,0.5,0.56,0.48,0.33,0.55,0.42,0.55,0.33,0.33,0.83,0.5,0.4,0.48,0.55,0.33,0.61,0.79,0.71,0.34,0.25,0.55,0.78,0.58,0.29,0.56,0.48,0.4,0.42,0.29,0.33,0.56,0.55,0.55,0.33,0.55,1.0,0.29,0.42,0.44,0.55,0.58,0.42,0.29,0.58,0.25" style="fill:rgb(0,0,0);font-family:URWPalladioL-Roma;font-size:9.96px;stroke:none;">Grove, IL, USA) with 50–100X magniﬁcation and the ImageJ software (LOCI, University of Wisconsin,</text>
   <text y="755.973" x="76.535,85.771,90.653,96.618,99.459,103.599,108.93,114.612,117.10199999999999,119.357,129.12,132.411,134.901,137.107,144.703,149.828,157.424,160.7108,162.931,171.074,175.955,180.1382,182.35,188.238,192.377,197.054,203.1296,205.275,208.526,213.857,217.841,219.968,228.589,233.266,238.148,242.287,248.175,252.031,254.872,260.555,266.1326,268.238,271.421,277.104,281.8848,284.036,289.464,294.141,299.471,308.092,312.769,315.952,319.808,325.3856,327.492,330.743,335.42,340.302,343.485,349.372,353.053,357.729,361.9122,364.124,369.455,372.7418,374.962,378.145,383.827,388.6078,390.759,396.441,401.323,405.004,410.969,415.646,421.328,426.004,432.0796,434.225,438.56,443.442,447.581,452.258,454.748,456.993,459.834,462.275,466.952,469.393,471.883,474.138,482.28,485.121,491.087,494.27,500.04679999999996,502.207,507.089,512.771" svgx:width="0.95,0.5,0.61,0.29,0.42,0.55,0.58,0.25,0.55,1.0,0.34,0.25,0.55,0.78,0.52,0.78,0.33,0.55,0.83,0.5,0.42,0.55,0.6,0.42,0.48,0.61,0.55,0.33,0.55,0.4,0.55,0.88,0.48,0.5,0.42,0.6,0.4,0.29,0.58,0.56,0.55,0.33,0.58,0.48,0.55,0.56,0.48,0.55,0.88,0.48,0.33,0.4,0.56,0.55,0.33,0.48,0.5,0.33,0.6,0.4,0.48,0.42,0.55,0.55,0.33,0.55,0.33,0.58,0.48,0.55,0.58,0.5,0.4,0.61,0.48,0.58,0.48,0.61,0.55,0.44,0.5,0.42,0.48,0.25,0.55,0.29,0.25,0.48,0.25,0.25,0.55,0.83,0.29,0.61,0.33,0.58,0.55,0.5,0.58,0.61" style="fill:rgb(0,0,0);font-family:URWPalladioL-Roma;font-size:9.96px;stroke:none;">Madison, WI, USA) was used for measuring the geometry features of the hardened case, i.e., width and</text>
   <text y="769.482" x="76.535,82.622,87.394,93.382,96.63,102.40679999999999,104.918,110.358,113.6448,116.166,121.964,126.946,130.702,136.789,141.561,147.359,152.131,158.2066,160.709,165.132,170.114,174.338,179.11,181.60000000000002,184.091,189.072,194.871,200.41,203.309,208.0898,210.572,216.011,219.2978,221.82,226.592,232.39,235.638,239.573,245.1506,247.603,253.042,256.3288,258.851,264.649,269.63,273.386,279.473,284.245,290.043,294.816,300.8916,303.393,308.375,312.131,316.903,321.884,324.374,326.865,331.089,335.862,340.6428,343.124,348.664,351.563,357.102,363.109,366.865" svgx:width="0.61,0.48,0.6,0.33,0.58,0.55,0.55,0.33,0.55,0.58,0.5,0.4,0.61,0.48,0.58,0.48,0.61,0.55,0.44,0.5,0.42,0.48,0.25,0.55,0.5,0.58,0.56,0.29,0.48,0.55,0.55,0.33,0.55,0.48,0.58,0.33,0.4,0.56,0.55,0.55,0.33,0.55,0.58,0.5,0.4,0.61,0.48,0.58,0.48,0.61,0.55,0.5,0.4,0.48,0.5,0.25,0.55,0.42,0.48,0.48,0.55,0.56,0.29,0.56,0.6,0.4,0.48" style="fill:rgb(0,0,0);font-family:URWPalladioL-Roma;font-size:9.96px;stroke:none;">depth of hardened case, angle of entry of hardened area; see Figure</text>
   <text y="769.482" x="374.128" svgx:width="0.5" style="fill:rgb(8,117,183);font-family:URWPalladioL-Roma;font-size:9.96px;stroke:none;">1</text>
   <text y="769.482" x="379.109" svgx:width="0.25" style="fill:rgb(0,0,0);font-family:URWPalladioL-Roma;font-size:9.96px;stroke:none;">.</text>
  </g>
 </g>
</svg>
