<?xml version="1.0" encoding="UTF-8"?>
<svg height="1194.046" width="2712.036" xmlns="http://www.w3.org/2000/svg">
 <g id="page" xmlns:svgx="http://www.xml-cml.org/schema/svgx">
  <g begin="text">
   <text y="62.979" x="76.535,84.059,87.598,90.252,93.352,96.452,98.668,102.207,104.422" svgx:width="0.94,0.44,0.33,0.39,0.39,0.28,0.44,0.28,0.39" style="fill:rgb(0,0,0);font-family:URWPalladioL-Ital;font-size:7.97px;stroke:none;">Materials</text>
   <text y="62.979" x="109.515,113.5,117.485,121.47" svgx:width="0.5,0.5,0.5,0.5" style="fill:rgb(0,0,0);font-family:URWPalladioL-Bold;font-size:7.97px;stroke:none;">2019</text>
   <text y="62.979" x="125.455" svgx:width="0.25" style="fill:rgb(0,0,0);font-family:URWPalladioL-Roma;font-size:7.97px;stroke:none;">,</text>
   <text y="62.979" x="129.44,133.425" svgx:width="0.5,0.5" style="fill:rgb(0,0,0);font-family:URWPalladioL-Ital;font-size:7.97px;stroke:none;">12</text>
   <text y="62.979" x="137.41,139.4025,141.395,145.38,149.365,153.35,157.335,495.794,499.779,501.772,506.123,508.7531,510.77,514.755" svgx:width="0.25,0.55,0.5,0.5,0.5,0.5,0.55,0.5,0.55,0.55,0.33,0.55,0.5,0.5" style="fill:rgb(0,0,0);font-family:URWPalladioL-Roma;font-size:7.97px;stroke:none;">, 3136 5 of 19</text>
   <text y="97.848" x="76.535,81.516,84.006,87.494,95.793,101.88,110.737,115.718,119.593,122.911,127.334,132.316,135.6028,138.124,148.086,153.626,159.713,164.694" svgx:width="0.5,0.25,0.55,0.83,0.61,0.89,0.5,0.39,0.33,0.44,0.5,0.33,0.55,1.0,0.56,0.61,0.5,0.33" style="fill:rgb(0,0,0);font-family:URWPalladioL-Bold;font-size:9.96px;stroke:none;">3. Numerical Model</text>
   <text y="117.335" x="97.795,106.239,111.788,120.263,125.344,131.553,136.634,142.284,146.592,149.08200000000002,151.988,155.301,161.215,165.9958,168.867,175.015,180.929,183.886,187.199,191.9798,194.851,199.718,202.675,207.543,216.516,221.383,227.298,230.5848,233.395,242.368,247.235,250.548,256.462,262.01,268.0856,271.004,274.388,280.038,286.246,295.86,299.14680000000004,302.028,307.942,313.023,317.2062,320.126,325.746,330.613,335.47,341.2468,344.179,350.388,355.256,360.997,365.865,368.822,374.37,380.477,385.345,391.42060000000004,394.338,397.651,403.129,405.983,409.815,414.682,420.891,427.019,431.53,436.3108,439.182,443.491,449.039,451.996,458.124,461.437,464.394,469.942,475.7188,478.641,481.953,484.911,493.883,498.6638,501.535,506.616,512.53" svgx:width="0.83,0.55,0.83,0.5,0.61,0.5,0.56,0.42,0.25,0.55,0.33,0.58,0.48,0.55,0.61,0.58,0.29,0.33,0.48,0.55,0.48,0.29,0.48,0.88,0.48,0.58,0.33,0.55,0.88,0.48,0.33,0.58,0.55,0.61,0.55,0.33,0.56,0.61,0.95,0.33,0.55,0.58,0.5,0.42,0.55,0.55,0.48,0.48,0.58,0.55,0.61,0.48,0.56,0.48,0.29,0.55,0.6,0.48,0.61,0.55,0.33,0.55,0.55,0.4,0.48,0.61,0.6,0.44,0.48,0.55,0.42,0.55,0.29,0.6,0.33,0.29,0.55,0.58,0.55,0.33,0.29,0.88,0.48,0.55,0.5,0.58,0.61" style="fill:rgb(0,0,0);font-family:URWPalladioL-Roma;font-size:9.96px;stroke:none;">Nowadays, the ﬁnite element method (FEM) has been developed to reduce solution time and</text>
   <text y="130.845" x="76.535,79.848,85.326,88.282,94.389,98.231,103.098,109.307,112.264,116.766,120.0528,122.975,126.287,132.202,137.069,141.083,150.056,155.137,158.0254,160.98,167.189,170.146,174.455,177.767,183.316,187.33,190.642,193.6,199.148,205.062,209.371,211.86100000000002,214.899,218.73,223.597,227.906,230.863,237.072,243.2,248.28,251.1684,254.124,258.432,261.745,265.576,270.443,274.752,279.061,281.551,284.589,289.67,295.584,301.6596,304.679,313.652,318.519,321.832,326.913,329.87,332.827,338.955,342.796,348.446,351.403,355.915,360.996,363.88439999999997,366.839,371.351,377.265,382.346,388.26,393.91,398.6908,401.663,407.872,414.0,418.014,420.971,426.885,432.4626,435.421,438.734,444.648,449.4288,452.401,458.316,463.183,468.264,471.55080000000004,474.463,477.776,481.617,486.484,491.565,494.878,503.851,508.718,514.633,517.945" svgx:width="0.33,0.55,0.55,0.6,0.4,0.48,0.61,0.29,0.44,0.33,0.55,0.33,0.58,0.48,0.4,0.88,0.5,0.29,0.55,0.61,0.29,0.42,0.33,0.55,0.4,0.33,0.29,0.55,0.58,0.42,0.25,0.55,0.4,0.48,0.42,0.29,0.61,0.6,0.5,0.29,0.55,0.42,0.33,0.4,0.48,0.42,0.42,0.25,0.55,0.5,0.58,0.61,0.55,0.88,0.48,0.33,0.5,0.29,0.29,0.6,0.4,0.56,0.29,0.44,0.5,0.29,0.55,0.44,0.58,0.5,0.58,0.56,0.48,0.55,0.61,0.6,0.4,0.29,0.58,0.56,0.55,0.33,0.58,0.48,0.55,0.58,0.48,0.5,0.33,0.55,0.33,0.4,0.48,0.5,0.33,0.88,0.48,0.58,0.33,0.25" style="fill:rgb(0,0,0);font-family:URWPalladioL-Roma;font-size:9.96px;stroke:none;">to predict thermal distortions, residual stress, and metallurgical change during the heat treatment.</text>
   <text y="144.354" x="76.226,82.229,87.929,92.62,96.312,101.003,104.264,109.611,113.293,117.984,120.47399999999999,122.94,125.79,131.5668,133.986,139.432,145.415,157.187,161.339,164.189,172.836,178.742,181.591,186.488,189.681,192.53,197.878,203.577,206.067,208.523,211.373,217.1498,219.579,224.926,228.609,234.592,239.283,243.267,245.659,248.851,254.329,256.696,262.043,267.458,270.651,275.548,278.398,284.1748,286.594,291.574,293.998,298.151,303.047,306.24,309.09,313.242,316.503,321.4,325.738,328.931,334.278,338.146,343.72360000000003,346.098,351.984,355.676,361.013,365.361,370.052,374.205,378.3882,380.864,384.556,389.247,395.123,398.815,403.506,407.658,412.349,418.049,421.242,426.138,429.331,432.181,437.528,443.228,445.718,448.183,451.375,457.075,461.8558,464.263,468.612,474.311,479.658,482.508,486.856,491.6368,494.045,499.392,502.6788,505.16,508.353,514.052" svgx:width="0.61,0.58,0.48,0.4,0.48,0.33,0.55,0.4,0.48,0.25,0.55,0.29,0.58,0.55,0.56,0.61,0.95,0.42,0.29,0.88,0.6,0.29,0.5,0.33,0.29,0.55,0.58,0.25,0.55,0.29,0.58,0.55,0.55,0.4,0.61,0.48,0.4,0.55,0.33,0.55,0.55,0.55,0.55,0.33,0.5,0.29,0.58,0.55,0.5,0.55,0.42,0.5,0.33,0.29,0.42,0.33,0.5,0.44,0.33,0.55,0.4,0.56,0.55,0.6,0.4,0.55,0.44,0.48,0.42,0.42,0.55,0.4,0.48,0.6,0.4,0.48,0.42,0.48,0.58,0.33,0.5,0.33,0.29,0.55,0.58,0.25,0.55,0.33,0.58,0.48,0.55,0.44,0.58,0.55,0.29,0.44,0.48,0.55,0.55,0.33,0.55,0.33,0.58,0.48" style="fill:rgb(0,0,0);font-family:URWPalladioL-Roma;font-size:9.96px;stroke:none;">Therefore, in FEMsimulation, in order to obtain a satisfactory process representation, the choice of the</text>
   <text y="157.864" x="76.535,82.217,86.894,91.776,95.0628,97.35,101.49,106.821,112.708,116.389,120.724,125.5048,127.793,136.414,141.744,147.71,152.386,155.27439999999999,157.629,160.471,164.6542,167.002,172.518,177.195,181.052,186.62959999999998,188.882,191.723,200.344,206.202,211.533,215.389,218.572,223.454,229.136,232.319,234.809,238.216,247.452,252.783,256.464,261.14,266.471,271.987,276.664,279.779,282.269,284.641,290.157,295.039,297.88,300.721,306.686,311.568,314.751,317.592,322.923,328.6998,330.997,335.879,341.561,347.6366,349.928,354.263,359.145,361.986,364.827,370.217,374.073,378.955,382.138,384.979,390.31,396.0868,398.394,403.724,407.0108,409.368,412.55,418.233,423.0138,425.311,433.932,439.263,445.228,449.905,452.79339999999996,455.138,460.02,463.701,468.4818,470.769,475.446,479.586,483.725,488.402,494.084,497.267,500.108,504.99,507.8784,510.223,513.406" svgx:width="0.58,0.48,0.5,0.33,0.55,0.42,0.55,0.6,0.4,0.44,0.48,0.55,0.88,0.55,0.61,0.48,0.29,0.55,0.29,0.42,0.55,0.56,0.48,0.4,0.56,0.55,0.29,0.88,0.6,0.55,0.4,0.33,0.5,0.58,0.33,0.25,0.55,0.95,0.55,0.4,0.48,0.55,0.56,0.48,0.4,0.25,0.55,0.56,0.5,0.29,0.29,0.61,0.5,0.33,0.29,0.55,0.58,0.55,0.5,0.58,0.61,0.55,0.44,0.5,0.29,0.29,0.55,0.4,0.5,0.33,0.29,0.55,0.58,0.55,0.55,0.33,0.55,0.33,0.58,0.48,0.55,0.88,0.55,0.61,0.48,0.29,0.55,0.5,0.4,0.48,0.55,0.48,0.42,0.42,0.48,0.58,0.33,0.29,0.5,0.29,0.55,0.33,0.55" style="fill:rgb(0,0,0);font-family:URWPalladioL-Roma;font-size:9.96px;stroke:none;">heat source model is very important. Moreover, validation and calibration of the model are essential to</text>
   <text y="171.373" x="76.535,82.5,87.177,93.084,98.766,103.5468,105.776,111.458,116.135,121.017,124.3038,126.533,130.673,136.004,141.891,145.572,149.907,154.6878,156.917,162.784,167.666,171.523,176.404,185.025,189.702,192.885,197.561,201.418,205.6012,207.891,212.226,217.557,221.413,225.084,229.761,234.096,237.279,240.12,245.6976,247.882,250.723,256.4998,258.739,264.069,267.75,273.716,278.392,282.376,284.582,287.765,293.243,295.429,300.106,304.246,307.428,312.31,317.709,320.55,323.391,327.531,333.3078,335.547,340.52700000000004,342.762,345.603,348.444,354.126,359.7036,361.888,367.288,371.964,375.147,383.29,387.966,392.643,398.41979999999995,400.659,406.341,412.228,420.849,425.526,429.382,432.224,436.558,441.44,444.3284,446.615,451.496,457.179,463.2546,465.478,470.154,475.192,481.06,485.736,489.593,492.434,501.055,505.732,511.414,514.597" svgx:width="0.61,0.48,0.61,0.58,0.48,0.55,0.58,0.48,0.5,0.33,0.55,0.42,0.55,0.6,0.4,0.44,0.48,0.55,0.6,0.5,0.4,0.5,0.88,0.48,0.33,0.48,0.4,0.42,0.55,0.44,0.55,0.4,0.4,0.48,0.44,0.33,0.29,0.56,0.55,0.29,0.58,0.55,0.55,0.4,0.61,0.48,0.4,0.55,0.33,0.55,0.55,0.48,0.42,0.33,0.5,0.55,0.29,0.29,0.42,0.58,0.55,0.5,0.55,0.29,0.29,0.58,0.56,0.55,0.55,0.48,0.33,0.83,0.48,0.48,0.58,0.55,0.58,0.6,0.88,0.48,0.4,0.29,0.44,0.5,0.29,0.55,0.5,0.58,0.61,0.55,0.48,0.52,0.6,0.48,0.4,0.29,0.88,0.48,0.58,0.33,0.42" style="fill:rgb(0,0,0);font-family:URWPalladioL-Roma;font-size:9.96px;stroke:none;">deﬁne heat source parameters correctly in order to establish a link between numerical and experiments</text>
   <text y="184.882" x="76.535,80.366,85.234,89.542,95.67,98.627,101.94,106.248,108.738,113.412,123.025,128.106,134.021,139.59859999999998,142.536,146.845,150.158,156.285,162.494,165.451,170.319,174.5022,177.493,183.407,188.488,194.23,199.0108,201.973,207.592,212.46,217.327,223.1038,226.107,230.619,236.168,242.082,248.291,254.418,258.93,262.243,267.11,273.1856,276.185,284.66,287.617,290.93,296.7068,299.71,305.918" svgx:width="0.4,0.48,0.42,0.6,0.29,0.33,0.42,0.25,0.55,0.95,0.5,0.58,0.56,0.55,0.42,0.33,0.6,0.61,0.29,0.48,0.42,0.55,0.58,0.5,0.56,0.48,0.55,0.55,0.48,0.48,0.58,0.55,0.44,0.55,0.58,0.61,0.6,0.44,0.33,0.48,0.61,0.55,0.83,0.29,0.33,0.58,0.55,0.61,0.29" style="fill:rgb(0,0,0);font-family:URWPalladioL-Roma;font-size:9.96px;stroke:none;">results. Many studies have been conducted with di</text>
   <text y="184.882" x="308.877" svgx:width="0.61" style="fill:rgb(0,0,0);font-family:Rpxr;font-size:9.96px;stroke:none;">ﬀ</text>
   <text y="184.882" x="315.055,319.923,323.754,328.621,334.535,337.82180000000005,340.724,346.638,351.506,356.586,359.87280000000004,362.765,367.073,372.622,378.749,382.58,387.092,391.8728,394.825,403.798,409.347,415.556,420.423,423.38,427.5632,430.565" svgx:width="0.48,0.4,0.48,0.58,0.33,0.55,0.58,0.48,0.5,0.33,0.55,0.42,0.55,0.6,0.4,0.44,0.48,0.55,0.88,0.55,0.61,0.48,0.29,0.42,0.55,0.33" style="fill:rgb(0,0,0);font-family:URWPalladioL-Roma;font-size:9.96px;stroke:none;">erent heat source models [</text>
   <text y="184.882" x="433.944,438.925" svgx:width="0.5,0.5" style="fill:rgb(8,117,183);font-family:URWPalladioL-Roma;font-size:9.96px;stroke:none;">30</text>
   <text y="184.882" x="443.907,447.291,449.781,454.455,461.243,466.792,471.1,475.968,481.882,485.195,491.109,496.19,499.0784,502.012" svgx:width="0.33,0.25,0.55,0.67,0.55,0.42,0.48,0.58,0.33,0.58,0.5,0.29,0.55,0.33" style="fill:rgb(0,0,0);font-family:URWPalladioL-Roma;font-size:9.96px;stroke:none;">]. Rosenthal [</text>
   <text y="184.882" x="505.394,510.375" svgx:width="0.5,0.5" style="fill:rgb(8,117,183);font-family:URWPalladioL-Roma;font-size:9.96px;stroke:none;">31</text>
   <text y="184.882" x="515.356" svgx:width="0.33" style="fill:rgb(0,0,0);font-family:URWPalladioL-Roma;font-size:9.96px;stroke:none;">]</text>
   <text y="198.392" x="76.535,80.759,86.767,92.306,97.845,102.617,106.841,110.089,114.861,120.9366,123.429,128.409,130.881,139.678,144.659,147.907,153.705,158.477,167.274,172.256,175.503,178.403,182.826,187.807,190.69539999999998,193.187,201.984,207.424,213.511,218.283,221.17139999999998,223.653,229.092,232.3788,234.891,240.878,246.318,254.626,259.398,263.382,265.814,271.902,276.674,282.472,286.696,289.595,292.843,298.42060000000004,300.853,306.94,309.839,314.063,317.311,321.246,324.146,329.655,335.662,338.91,341.809,347.249,353.047,355.53700000000003,359.025,367.313,372.0938,374.556,380.544,384.3,389.739,395.727,401.166,405.391,410.163,416.2386,418.73,424.24,429.679,432.927,438.7038,441.196,447.184,453.191,458.989,463.413,466.661,472.668,477.649,480.5374,483.029,488.01,493.809,499.88460000000003,502.376,505.276,508.175,513.973" svgx:width="0.42,0.6,0.56,0.56,0.48,0.42,0.33,0.48,0.61,0.55,0.5,0.55,0.88,0.5,0.33,0.58,0.48,0.88,0.5,0.33,0.29,0.44,0.5,0.29,0.55,0.88,0.55,0.61,0.48,0.29,0.55,0.55,0.33,0.55,0.6,0.55,0.83,0.48,0.4,0.55,0.61,0.48,0.58,0.42,0.29,0.33,0.56,0.55,0.61,0.29,0.42,0.33,0.4,0.29,0.55,0.6,0.33,0.29,0.55,0.58,0.25,0.55,0.83,0.48,0.55,0.6,0.4,0.55,0.6,0.55,0.42,0.48,0.61,0.55,0.55,0.55,0.33,0.58,0.55,0.6,0.6,0.58,0.44,0.33,0.6,0.5,0.29,0.55,0.5,0.58,0.61,0.55,0.29,0.29,0.58,0.48" style="fill:rgb(0,0,0);font-family:URWPalladioL-Roma;font-size:9.96px;stroke:none;">suggested a mathematical model of power density distribution. He proposed both punctual and line</text>
   <text y="211.901" x="76.535,82.31,87.063,92.024,95.3108,97.74,101.947,107.365,113.348,117.089,121.495,126.248,128.738,132.212,138.205,143.166,148.773,153.526,156.413,161.166,165.5484,168.062,172.815,176.1018,178.531,183.492,186.38,188.87,191.341" svgx:width="0.58,0.48,0.5,0.33,0.55,0.42,0.55,0.6,0.4,0.44,0.48,0.25,0.55,0.6,0.5,0.56,0.48,0.29,0.48,0.44,0.55,0.48,0.33,0.55,0.5,0.29,0.25,0.55,0.33" style="fill:rgb(0,0,0);font-family:URWPalladioL-Roma;font-size:9.96px;stroke:none;">heat source. Pavelec et al. [</text>
   <text y="211.901" x="194.649,199.63" svgx:width="0.5,0.5" style="fill:rgb(8,117,183);font-family:URWPalladioL-Roma;font-size:9.96px;stroke:none;">32</text>
   <text y="211.901" x="204.612,207.8988,210.397,216.46,221.213,226.819,231.572,234.46,239.877,245.841,250.594,256.6696,259.147,264.127,266.589,274.16,279.122,285.105,289.313,293.52,296.407,301.369,307.1458,309.624,315.588,321.006,329.281,334.034,338.018,340.444,346.507,351.26,357.035,361.243,364.13,367.365,372.9426,375.363,381.425,384.313,388.52,391.755,395.674,398.562,404.049,410.033,413.267,416.155,421.573,427.34979999999996,429.829,435.246,441.02279999999996,443.502,446.737,452.512,457.2928,459.756,463.963,469.946,473.866,477.17,482.131,486.537,491.3178,493.771,499.189,502.47580000000005,504.973,508.208,513.983" svgx:width="0.33,0.55,0.61,0.48,0.56,0.48,0.29,0.55,0.6,0.48,0.61,0.55,0.5,0.55,0.76,0.5,0.6,0.42,0.42,0.29,0.5,0.58,0.55,0.6,0.55,0.83,0.48,0.4,0.55,0.61,0.48,0.58,0.42,0.29,0.33,0.56,0.55,0.61,0.29,0.42,0.33,0.4,0.29,0.55,0.6,0.33,0.29,0.55,0.58,0.55,0.55,0.58,0.55,0.33,0.58,0.48,0.55,0.42,0.6,0.4,0.33,0.5,0.44,0.48,0.55,0.55,0.33,0.55,0.33,0.58,0.48" style="fill:rgb(0,0,0);font-family:URWPalladioL-Roma;font-size:9.96px;stroke:none;">] developed a Gaussian power density distribution on the surface of the</text>
   <text y="225.411" x="76.117,84.426,89.865,93.801,99.34,105.327,108.226,112.999,117.422,122.194,124.684,128.172,136.002,139.25,145.048,149.82,153.804,156.246,160.002,164.774,168.998,173.77,178.752,182.508,186.931,192.729,197.501,201.437,205.6202,208.151" svgx:width="0.83,0.55,0.4,0.56,0.6,0.29,0.48,0.44,0.48,0.25,0.55,0.79,0.33,0.58,0.48,0.4,0.55,0.4,0.48,0.42,0.48,0.5,0.4,0.44,0.58,0.48,0.4,0.42,0.55,0.33" style="fill:rgb(0,0,0);font-family:URWPalladioL-Roma;font-size:9.96px;stroke:none;">workpiece. Other researchers [</text>
   <text y="225.411" x="211.469,216.45" svgx:width="0.5,0.5" style="fill:rgb(8,117,183);font-family:URWPalladioL-Roma;font-size:9.96px;stroke:none;">33</text>
   <text y="225.411" x="221.431,224.7178,227.24,233.227,236.983,242.423,248.41,253.85,258.074,262.846,268.9216,271.424,276.404,278.896,283.319,288.759,294.557,297.456,301.879,306.861,309.7494,312.251,318.049,322.821,327.802,331.08880000000005,333.541,337.765,343.204,349.212,352.968,357.391,362.1718,364.654,373.451,378.89,384.978,389.75,392.649" svgx:width="0.33,0.55,0.6,0.4,0.55,0.6,0.55,0.42,0.48,0.61,0.55,0.5,0.55,0.44,0.55,0.58,0.29,0.44,0.5,0.29,0.55,0.58,0.48,0.5,0.33,0.55,0.42,0.55,0.6,0.4,0.44,0.48,0.55,0.88,0.55,0.61,0.48,0.29,0.25" style="fill:rgb(0,0,0);font-family:URWPalladioL-Roma;font-size:9.96px;stroke:none;">] proposed a conical heat source model.</text>
   <text y="238.92" x="97.795,101.183,106.9598,109.516,112.793,118.643,121.569,125.7522,128.324,134.365,139.391,145.433,150.248,153.475,155.965,158.481,161.758,167.608,172.3888,174.906,180.988,186.838,189.763,193.04,197.8208,200.348,205.163,208.088,212.903,221.78,226.595,232.445,235.7318,238.205,247.081,252.57,258.712,263.527,266.4154,268.935,277.318,282.344,286.5272,289.1,294.658,300.72,303.645,306.57,309.8568,312.33,318.392,322.654,325.579,331.43,337.0076,339.512,342.789,348.639,353.4198,355.937,361.214,364.14,373.016,379.077,382.425,387.451,391.914,395.2008,397.674,406.812,411.627,414.552,420.694,423.619,429.469,435.0466,437.551,442.577,445.09,450.07,452.6,456.862,462.35,465.698,468.975,477.358,482.384,486.174,490.9548,493.482,496.829,506.339,511.616" svgx:width="0.34,0.58,0.55,0.33,0.58,0.29,0.42,0.55,0.6,0.5,0.6,0.48,0.4,0.25,0.55,0.33,0.58,0.48,0.55,0.61,0.58,0.29,0.33,0.48,0.55,0.48,0.29,0.48,0.88,0.48,0.58,0.33,0.55,0.88,0.55,0.61,0.48,0.29,0.55,0.83,0.5,0.42,0.55,0.55,0.6,0.29,0.29,0.33,0.55,0.6,0.42,0.29,0.58,0.56,0.55,0.33,0.58,0.48,0.55,0.52,0.29,0.88,0.6,0.33,0.5,0.44,0.33,0.55,1.0,0.48,0.29,0.61,0.29,0.58,0.56,0.55,0.5,0.25,0.5,0.55,0.42,0.55,0.33,0.33,0.83,0.5,0.4,0.48,0.55,0.33,0.95,0.52,0.71" style="fill:rgb(0,0,0);font-family:URWPalladioL-Roma;font-size:9.96px;stroke:none;">In this paper, the ﬁnite element model was built using the Simufact Welding 8.0 software (MSC</text>
   <text y="252.429" x="76.535,81.661,86.992,90.243,93.426,101.568,106.45,110.131,114.807,117.297,119.211,127.334,132.215,140.836,146.236,152.123,155.804,161.232,163.722,165.635,173.085,177.761,181.618,190.239,195.121,200.803,206.231,209.482,211.972,215.194,221.179,226.861,231.538,235.394,244.015,249.346,254.228,260.096,265.778,271.206,275.346,278.187,282.522,287.404,290.2924,292.08,296.962,302.644,310.445,319.066,323.743,328.078,333.76,338.642,344.324,347.165,351.5,356.382,359.2704,361.059,366.926,370.597,375.928,381.796,386.473,390.329,393.512,396.353,401.03,405.2132,407.005,412.687,417.569,423.085,427.8658,429.597,432.438,441.059,446.927,452.258,456.114,459.297,464.179,469.861,473.1478,474.88,477.721,483.403,489.339,495.227,499.903,505.585,509.92,514.597" svgx:width="0.52,0.55,0.33,0.33,0.83,0.5,0.4,0.48,0.25,0.55,0.83,0.5,0.88,0.55,0.6,0.4,0.56,0.25,0.55,0.76,0.48,0.4,0.88,0.5,0.58,0.56,0.33,0.25,0.55,0.61,0.58,0.48,0.4,0.88,0.55,0.5,0.6,0.58,0.56,0.42,0.29,0.44,0.5,0.29,0.55,0.5,0.58,0.61,0.88,0.48,0.44,0.58,0.5,0.58,0.29,0.44,0.5,0.29,0.55,0.6,0.4,0.55,0.6,0.48,0.4,0.33,0.29,0.48,0.42,0.55,0.58,0.5,0.56,0.48,0.55,0.29,0.88,0.6,0.55,0.4,0.33,0.5,0.58,0.33,0.55,0.29,0.58,0.61,0.6,0.48,0.58,0.44,0.48,0.42" style="fill:rgb(0,0,0);font-family:URWPalladioL-Roma;font-size:9.96px;stroke:none;">Software, Hamburg, Germany). Thermo–physical andmechanical properties have important inﬂuences</text>
   <text y="265.939" x="76.535,82.083,87.85979999999999,91.168,94.481,100.395,105.1758,108.433,112.264,117.132,121.44,127.568,130.525,133.838,138.0212,141.317,146.865,150.1518,153.42,159.07,165.278,174.73999999999998,178.062,182.371,185.328,194.301,200.428,203.385,208.466,211.779,214.736,220.285,226.199,228.68900000000002,234.257,240.486,246.4,251.268,255.282,264.255,269.336,272.2244,275.463,279.975,285.524,291.438,297.647,303.774,308.286,311.599,314.556,320.298,323.255,326.567,332.1446,335.388,343.863,348.944,353.1272,356.423,359.736,364.817,370.467,375.334,381.1108,384.419,389.5,393.6832,396.979,402.06,407.141,409.681,414.661,417.922" svgx:width="0.55,0.58,0.55,0.33,0.58,0.48,0.55,0.4,0.48,0.42,0.6,0.29,0.33,0.42,0.55,0.55,0.33,0.55,0.56,0.61,0.95,0.55,0.42,0.29,0.88,0.6,0.29,0.5,0.33,0.29,0.55,0.58,0.25,0.55,0.61,0.58,0.48,0.4,0.88,0.5,0.29,0.55,0.44,0.55,0.58,0.61,0.6,0.44,0.33,0.29,0.56,0.29,0.33,0.56,0.55,0.83,0.5,0.42,0.55,0.33,0.5,0.56,0.48,0.58,0.55,0.5,0.42,0.55,0.5,0.5,0.25,0.5,0.55,1.0" style="fill:rgb(0,0,0);font-family:URWPalladioL-Roma;font-size:9.96px;stroke:none;">on the results of FEM simulation. Thermal conductivity was taken as 42.7 W</text>
   <text y="265.939" x="428.089" svgx:width="0.29" style="fill:rgb(0,0,0);font-family:Rpxr;font-size:9.96px;stroke:none;">/</text>
   <text y="265.939" x="431.006,439.979,447.356,449.846,453.067,461.542,467.457,470.414,473.371,478.1518,481.409,484.366,487.323,493.014,499.141,502.098,508.307,514.435" svgx:width="0.88,0.73,0.25,0.55,0.83,0.58,0.29,0.29,0.48,0.55,0.29,0.29,0.56,0.6,0.29,0.61,0.6,0.42" style="fill:rgb(0,0,0);font-family:URWPalladioL-Roma;font-size:9.96px;stroke:none;">mK, while liquidus</text>
   <text y="279.448" x="76.535,79.718,84.395,93.016,98.883,103.56,107.416,112.298,115.481,121.368,125.049,129.8298,132.167,137.048,142.73,148.8056,151.137,155.276,160.607,163.448,166.289,172.255,178.142,182.3252,184.723,187.906,192.582,201.203,207.071,211.748,215.604,220.486,223.669,229.556,233.237,238.0178,240.354,248.497,253.174,256.854,261.6348,263.972,267.155,272.036,277.465,282.141,287.9178,290.264,295.146,300.028,304.91,309.89000000000004,312.232,319.50280000000004,321.761,326.643,332.325,338.4006,340.741,345.623,350.504,355.386,360.36600000000004,362.709,369.797,372.28700000000003,374.678,378.359,383.036,387.176,393.043,397.72,402.055,405.238,408.079,413.595,418.272,421.113,425.428,427.918,431.345,437.33,443.012,447.689,451.828,456.6088,458.946,464.814,468.494,473.825,479.693,484.37,488.226,491.409,494.25,498.917,503.1002,505.507,510.389,514.06" svgx:width="0.33,0.48,0.88,0.6,0.48,0.4,0.5,0.33,0.6,0.4,0.48,0.55,0.5,0.58,0.61,0.55,0.42,0.55,0.29,0.29,0.61,0.6,0.42,0.55,0.33,0.48,0.88,0.6,0.48,0.4,0.5,0.33,0.6,0.4,0.48,0.55,0.83,0.48,0.4,0.48,0.55,0.33,0.5,0.56,0.48,0.58,0.55,0.5,0.5,0.5,0.5,0.55,0.73,0.55,0.5,0.58,0.61,0.55,0.5,0.5,0.5,0.5,0.55,0.73,0.25,0.55,0.4,0.48,0.42,0.6,0.48,0.44,0.33,0.29,0.56,0.48,0.29,0.56,0.25,0.55,0.61,0.58,0.48,0.42,0.48,0.55,0.6,0.4,0.55,0.6,0.48,0.4,0.33,0.29,0.48,0.42,0.55,0.5,0.4,0.48" style="fill:rgb(0,0,0);font-family:URWPalladioL-Roma;font-size:9.96px;stroke:none;">temperature and solidus temperature were taken 1733 K and 1693 K, respectively. These properties are</text>
   <text y="292.958" x="76.535,82.622,85.521,89.745,95.733,98.632,103.613,109.153,113.925,120.00059999999999,122.502,125.402,131.1788,133.69,138.881,143.862,149.372,152.271" svgx:width="0.61,0.29,0.42,0.6,0.29,0.5,0.56,0.48,0.61,0.55,0.29,0.58,0.55,0.61,0.5,0.55,0.29,0.48" style="fill:rgb(0,0,0);font-family:URWPalladioL-Roma;font-size:9.96px;stroke:none;">displayed in Table</text>
   <text y="292.958" x="159.533" svgx:width="0.5" style="fill:rgb(8,117,183);font-family:URWPalladioL-Roma;font-size:9.96px;stroke:none;">3</text>
   <text y="292.958" x="164.515" svgx:width="0.25" style="fill:rgb(0,0,0);font-family:URWPalladioL-Roma;font-size:9.96px;stroke:none;">.</text>
   <text y="316.684" x="166.909,171.894,176.378,181.856,184.842,189.32700000000003,191.567,196.05" svgx:width="0.67,0.5,0.61,0.33,0.5,0.55,0.5,0.25" style="fill:rgb(0,0,0);font-family:URWPalladioL-Bold;font-size:8.97px;stroke:none;">Table 3.</text>
   <text y="316.684" x="201.43,209.912,214.207,218.188,223.407,227.89,233.108,235.717,239.699,244.182,246.7833,249.033,253.516,258.734,264.2057,266.454,269.377,274.596,278.891,282.432,290.35,295.245,299.729,305.117,310.336,315.321,319.123,321.732,325.713,330.196,332.7973,335.047,340.436,343.816,348.712,354.101,358.396,361.937,364.861,367.47,371.765,375.5324,377.808,382.704,385.6641,387.931,394.907,397.929,402.636,405.68580000000003,407.899,412.382,416.866,421.349,425.832" svgx:width="0.95,0.48,0.44,0.58,0.5,0.58,0.29,0.44,0.5,0.29,0.55,0.5,0.58,0.61,0.55,0.33,0.58,0.48,0.4,0.88,0.55,0.5,0.6,0.58,0.56,0.42,0.29,0.44,0.5,0.29,0.55,0.6,0.4,0.55,0.6,0.48,0.4,0.33,0.29,0.48,0.42,0.55,0.55,0.33,0.55,0.78,0.34,0.52,0.34,0.55,0.5,0.5,0.5,0.5,0.25" style="fill:rgb(0,0,0);font-family:URWPalladioL-Roma;font-size:8.97px;stroke:none;">Mechanical and thermo–physical properties of AISI 4130.</text>
  </g>
  <path style="fill:none;stroke:rgb(0,0,0);stroke-width:1.0;" d="M184.540 326.910 L410.740 326.910 "/>
  <g begin="text">
   <text y="337.764" x="241.401,246.879,250.367,255.353,260.831,265.314,268.802,271.788,276.8112,352.387,359.363,362.851,368.329,371.82730000000004,374.059,378.542,383.025,387.508" svgx:width="0.61,0.39,0.56,0.61,0.5,0.39,0.33,0.56,0.55,0.78,0.39,0.61,0.39,0.55,0.5,0.5,0.5,0.5" style="fill:rgb(0,0,0);font-family:URWPalladioL-Bold;font-size:8.97px;stroke:none;">Property AISI 4130</text>
  </g>
  <path style="fill:none;stroke:rgb(0,0,0);stroke-width:0.8;" d="M184.540 343.150 L410.740 343.150 "/>
  <g begin="text">
   <text y="353.763" x="214.901,220.057,224.952,230.359,235.578,240.6012,242.804,250.722,255.617,261.096,266.503,269.112,274.519,278.2864,280.562,283.548,290.389,295.805,300.288,303.2481,365.465,369.948,374.431" svgx:width="0.67,0.55,0.6,0.58,0.56,0.55,0.88,0.55,0.61,0.6,0.29,0.6,0.42,0.55,0.33,0.76,0.6,0.5,0.33,0.55,0.5,0.5,0.5" style="fill:rgb(0,0,0);font-family:URWPalladioL-Roma;font-size:8.97px;stroke:none;">Young modulus (GPa) 190</text>
   <text y="365.498" x="227.873,234.813,239.108,244.326,248.128,250.737,253.66,258.6832,260.887,263.873" svgx:width="0.77,0.48,0.58,0.42,0.29,0.33,0.56,0.55,0.33,0.56" style="fill:rgb(0,0,0);font-family:URWPalladioL-Roma;font-size:8.97px;stroke:none;">Density (g</text>
   <text y="365.498" x="268.858" svgx:width="0.29" style="fill:rgb(0,0,0);font-family:Rpxr;font-size:8.97px;stroke:none;">/</text>
   <text y="365.498" x="271.431,275.412" svgx:width="0.44,0.88" style="fill:rgb(0,0,0);font-family:URWPalladioL-Roma;font-size:8.97px;stroke:none;">cm</text>
   <text y="362.243" x="283.329" svgx:width="0.5" style="fill:rgb(0,0,0);font-family:URWPalladioL-Roma;font-size:6.97px;stroke:none;">3</text>
   <text y="365.498" x="287.314" svgx:width="0.33" style="fill:rgb(0,0,0);font-family:URWPalladioL-Roma;font-size:8.97px;stroke:none;">)</text>
   <text y="365.229" x="364.343,368.826,371.068,375.551" svgx:width="0.5,0.25,0.5,0.5" style="fill:rgb(0,0,0);font-family:URWPalladioL-Roma;font-size:8.97px;stroke:none;">7.85</text>
   <text y="376.457" x="199.057,204.553,209.772,214.067,217.608,225.526,230.009,232.6103,234.86,238.841,243.737,248.955,254.433,259.84,263.821,266.744,269.354,274.42,277.029,279.952,284.9752,287.179,290.165" svgx:width="0.61,0.58,0.48,0.4,0.88,0.5,0.29,0.55,0.44,0.55,0.58,0.61,0.6,0.44,0.33,0.29,0.56,0.29,0.33,0.56,0.55,0.33,1.0" style="fill:rgb(0,0,0);font-family:URWPalladioL-Roma;font-size:8.97px;stroke:none;">Thermal conductivity (W</text>
   <text y="376.457" x="299.13" svgx:width="0.29" style="fill:rgb(0,0,0);font-family:Rpxr;font-size:8.97px;stroke:none;">/</text>
   <text y="376.457" x="301.703,309.62,316.13,319.0901,364.342,368.826,373.309,375.55" svgx:width="0.88,0.73,0.33,0.55,0.5,0.5,0.25,0.5" style="fill:rgb(0,0,0);font-family:URWPalladioL-Roma;font-size:8.97px;stroke:none;">mK) 42.7</text>
   <text y="387.654" x="208.275,213.753,216.363,221.384,226.791,229.4,234.878,240.285,244.0524,246.328,249.251,253.546,261.464,266.852,271.147,274.689,279.172,282.095,287.502,290.882,295.18760000000003,297.419,300.405,306.914,309.8741,363.223,367.706,372.19,376.673" svgx:width="0.61,0.29,0.56,0.6,0.29,0.61,0.6,0.42,0.55,0.33,0.48,0.88,0.6,0.48,0.4,0.5,0.33,0.6,0.4,0.48,0.55,0.33,0.73,0.33,0.55,0.5,0.5,0.5,0.5" style="fill:rgb(0,0,0);font-family:URWPalladioL-Roma;font-size:8.97px;stroke:none;">Liquidus temperature (K) 1733</text>
   <text y="398.851" x="211.426,216.133,221.029,223.638,226.247,231.726,237.133,240.90040000000002,243.176,246.099,250.394,258.311,263.7,267.995,271.537,276.02,278.943,284.35,287.73,292.03560000000004,294.266,297.252,303.762,306.7221,363.227,367.71,372.193,376.677" svgx:width="0.52,0.55,0.29,0.29,0.61,0.6,0.42,0.55,0.33,0.48,0.88,0.6,0.48,0.4,0.5,0.33,0.6,0.4,0.48,0.55,0.33,0.73,0.33,0.55,0.5,0.5,0.5,0.5" style="fill:rgb(0,0,0);font-family:URWPalladioL-Roma;font-size:8.97px;stroke:none;">Solidus temperature (K) 1693</text>
  </g>
  <path style="fill:none;stroke:rgb(0,0,0);stroke-width:0.3;" d="M184.540 404.490 L410.740 404.490 "/>
  <g begin="text">
   <text y="429.339" x="97.795,101.085,106.86179999999999,108.623,113.953,117.624,123.59,128.266,132.25,133.978,137.161,142.639,144.337,150.302,154.979,159.119,163.454,167.31,170.151,175.55,180.3308,182.082,185.265,190.947,195.7278,197.469,200.31,205.192,209.331,214.008,217.99200000000002,219.72,225.119,229.795,234.677,245.143,251.011,256.342,264.485,269.161,273.145,274.873,280.838,283.679,287.819,291.002,294.858,297.7,303.099,308.986,312.169,315.01,320.341,326.023,328.51300000000003,330.436,333.619,339.301,344.0818,345.833,348.674,353.556,357.695,362.372,366.356,368.074,373.473,378.15,383.031,393.507,401.65,406.532,410.7152,412.517,421.138,426.468,432.434,437.11,439.952,442.793,447.469,455.29,460.171,464.3542,466.156,471.136,472.893,477.228,482.656,485.498,488.339,494.021,499.986,503.843,506.684,511.019,515.901" svgx:width="0.34,0.58,0.55,0.55,0.4,0.61,0.48,0.4,0.55,0.33,0.55,0.55,0.61,0.48,0.42,0.44,0.4,0.29,0.55,0.48,0.55,0.33,0.58,0.48,0.55,0.29,0.5,0.42,0.48,0.4,0.55,0.55,0.48,0.5,0.88,0.6,0.55,0.83,0.48,0.4,0.55,0.61,0.29,0.42,0.33,0.4,0.29,0.55,0.6,0.33,0.29,0.55,0.58,0.25,0.55,0.33,0.58,0.48,0.55,0.29,0.5,0.42,0.48,0.4,0.55,0.55,0.48,0.5,0.88,0.83,0.5,0.42,0.55,0.88,0.55,0.61,0.48,0.29,0.29,0.48,0.61,0.5,0.42,0.55,0.5,0.55,0.44,0.56,0.29,0.29,0.58,0.61,0.4,0.29,0.44,0.5,0.29" style="fill:rgb(0,0,0);font-family:URWPalladioL-Roma;font-size:9.96px;stroke:none;">In order to describe the laser beampower distribution, the laser beamwas modelledas a cylindrical</text>
   <text y="442.849" x="76.535,85.332,90.772,96.4,99.3,105.098,110.6756,113.128,118.926,123.698,128.679,131.9658,134.418,138.642,144.081,150.089,153.845,158.268,163.0488,165.531,173.84,176.739,179.987,185.7638,188.275,195.877,200.858,206.866,211.09,215.314,218.213,223.194,228.9708,231.483,237.281,242.054,247.035,250.3218,252.773,258.831,264.838,270.0172,272.469,278.557,281.456,285.68,288.928,292.863,295.762,301.271,307.279,310.526,313.426,318.865,324.6418,327.154,331.378,334.277,343.074,349.082,351.981,356.962,360.21,363.109,368.549,374.347,376.837,379.328,384.309,388.4922,391.024,395.248,401.047,406.486,414.795,419.567,425.6426,428.145,431.044,436.82079999999996,439.333,444.872,447.771,453.311,459.318,463.074" svgx:width="0.88,0.55,0.56,0.29,0.58,0.56,0.55,0.58,0.48,0.5,0.33,0.55,0.42,0.55,0.6,0.4,0.44,0.48,0.55,0.83,0.29,0.33,0.58,0.55,0.76,0.5,0.6,0.42,0.42,0.29,0.5,0.58,0.55,0.58,0.48,0.5,0.33,0.55,0.61,0.6,0.52,0.55,0.61,0.29,0.42,0.33,0.4,0.29,0.55,0.6,0.33,0.29,0.55,0.58,0.55,0.42,0.29,0.88,0.6,0.29,0.5,0.33,0.29,0.55,0.58,0.25,0.55,0.5,0.42,0.55,0.42,0.58,0.55,0.83,0.48,0.61,0.55,0.29,0.58,0.55,0.56,0.29,0.56,0.6,0.4,0.48" style="fill:rgb(0,0,0);font-family:URWPalladioL-Roma;font-size:9.96px;stroke:none;">moving heat source with Gaussian heat ﬂux distribution simulation, as showed in Figure</text>
   <text y="442.849" x="470.337" svgx:width="0.5" style="fill:rgb(8,117,183);font-family:URWPalladioL-Roma;font-size:9.96px;stroke:none;">4</text>
   <text y="442.849" x="477.809" svgx:width="0.33" style="fill:rgb(0,0,0);font-family:URWPalladioL-Roma;font-size:9.96px;stroke:none;">[</text>
   <text y="442.849" x="481.126,486.107" svgx:width="0.5,0.5" style="fill:rgb(8,117,183);font-family:URWPalladioL-Roma;font-size:9.96px;stroke:none;">34</text>
   <text y="442.849" x="491.089" svgx:width="0.5" style="fill:rgb(0,0,0);font-family:URWPalladioL-Roma;font-size:9.96px;stroke:none;">–</text>
   <text y="442.849" x="496.07,501.051" svgx:width="0.5,0.5" style="fill:rgb(8,117,183);font-family:URWPalladioL-Roma;font-size:9.96px;stroke:none;">36</text>
   <text y="442.849" x="506.033,509.35" svgx:width="0.33,0.25" style="fill:rgb(0,0,0);font-family:URWPalladioL-Roma;font-size:9.96px;stroke:none;">].</text>
  </g>
  <g begin="text">
   <text y="446.226" x="73.936,81.475,85.025,87.69,90.802,93.914,96.14,99.69,101.917,105.028" svgx:width="0.94,0.44,0.33,0.39,0.39,0.28,0.44,0.28,0.39,0.25" style="fill:rgb(0,0,0);font-family:PalatinoLinotype,Italic;font-size:7.98px;stroke:none;">Materials </text>
   <text y="446.226" x="106.996,111.016,115.037,119.057" svgx:width="0.5,0.5,0.5,0.5" style="fill:rgb(0,0,0);font-family:PalatinoLinotype,Bold;font-size:7.98px;stroke:none;">2019</text>
   <text y="446.226" x="123.076,125.056" svgx:width="0.25,0.25" style="fill:rgb(0,0,0);font-family:PalatinoLinotype;font-size:7.98px;stroke:none;">, </text>
   <text y="446.226" x="127.036,131.056" svgx:width="0.5,0.5" style="fill:rgb(0,0,0);font-family:PalatinoLinotype,Italic;font-size:7.98px;stroke:none;">12</text>
   <text y="446.226" x="135.016,137.017,138.997,143.12,145.1,149.542,155.819,161.155,163.194,168.02,172.901,177.781,183.117,185.097,190.433,195.313,201.08,203.775,208.656,216.696,218.691,493.096,497.114,499.094,503.48,506.12,508.1,512.118,516.137" svgx:width="0.25,0.25,0.52,0.25,0.56,0.79,0.67,0.25,0.6,0.61,0.61,0.67,0.25,0.67,0.61,0.72,0.34,0.61,1.0,0.25,0.55,0.5,0.25,0.55,0.33,0.25,0.5,0.5,0.25" style="fill:rgb(0,0,0);font-family:PalatinoLinotype;font-size:7.98px;stroke:none;">, x FOR PEER REVIEW 6 of 21 </text>
   <text y="1184.046" x="73.936" svgx:width="0.25" style="fill:rgb(0,0,0);font-family:TimesNewRoman;font-size:9.0px;stroke:none;"> </text>
   <text y="623.406" x="388.036" svgx:width="0.25" style="fill:rgb(0,0,0);font-family:PalatinoLinotype;font-size:12.0px;stroke:none;"> </text>
   <text y="639.966" x="215.176,220.201,223.202,228.21,233.712,237.217,241.72,244.0,248.504,250.724" svgx:width="0.56,0.33,0.56,0.61,0.39,0.5,0.25,0.5,0.25,0.25" style="fill:rgb(0,0,0);font-family:PalatinoLinotype,Bold;font-size:9.0px;stroke:none;">Figure 4. </text>
   <text y="639.966" x="252.976,259.362,264.372,266.998,269.624,274.868,280.373,283.935,286.561,290.563,295.069,297.65,299.929,305.173,309.491,313.997,316.938,319.158,322.98,327.901,333.3,336.84,340.843,345.16,347.44,355.391,360.312,365.816,370.134,372.714,374.934" svgx:width="0.71,0.56,0.29,0.29,0.58,0.61,0.4,0.29,0.44,0.5,0.29,0.25,0.58,0.48,0.5,0.33,0.25,0.42,0.55,0.6,0.4,0.44,0.48,0.25,0.88,0.55,0.61,0.48,0.29,0.25,0.25" style="fill:rgb(0,0,0);font-family:PalatinoLinotype;font-size:9.0px;stroke:none;">Cylindrical heat source model. </text>
   <text y="665.166" x="95.176,101.319,107.151,111.952,114.472,120.494,125.966,134.323,139.123,143.083,145.603,151.725,156.465,162.297,166.547,169.465,172.703,178.275,180.795,186.856,189.796,194.046,197.284,201.184,204.124,209.666,215.665,218.904,221.843,227.315,233.147,235.667,244.024,249.004,253.254,255.713,260.724,264.974,267.434,270.773,276.173,279.091,282.008,287.48,295.837,300.038,302.498" svgx:width="0.61,0.58,0.48,0.25,0.6,0.55,0.83,0.48,0.4,0.25,0.61,0.48,0.58,0.42,0.29,0.33,0.56,0.25,0.61,0.29,0.42,0.33,0.4,0.29,0.55,0.6,0.33,0.29,0.55,0.58,0.25,0.83,0.5,0.42,0.25,0.5,0.42,0.25,0.33,0.55,0.29,0.29,0.55,0.83,0.42,0.25,0.25" style="fill:rgb(0,0,0);font-family:PalatinoLinotype;font-size:10.02px;stroke:none;">The power density distribution was as follows: </text>
   <text y="694.026" x="262.276" svgx:width="0.68" style="fill:rgb(0,0,0);font-family:CambriaMath;font-size:9.0px;stroke:none;">𝑄</text>
   <text y="695.886" code="3045" x="268.036" svgx:width="0.53" style="fill:rgb(0,0,0);font-family:CambriaMath;font-size:6.48px;stroke:none;">?</text>
   <text y="694.026" x="274.636,281.386,283.875" svgx:width="0.75,0.55,0.68" style="fill:rgb(0,0,0);font-family:CambriaMath;font-size:9.0px;stroke:none;">= 𝑄</text>
   <text y="695.886" code="3042" x="289.636" svgx:width="0.59" style="fill:rgb(0,0,0);font-family:CambriaMath;font-size:6.48px;stroke:none;">?</text>
   <text y="694.026" x="294.016,298.4,302.739,307.734,307.733" svgx:width="0.49,0.48,0.56,0.22,0.41" style="fill:rgb(0,0,0);font-family:CambriaMath;font-size:9.0px;stroke:none;">exp (</text>
   <text y="687.186" code="3398" x="311.476,318.195" svgx:width="0.75,0.48" style="fill:rgb(0,0,0);font-family:CambriaMath;font-size:9.0px;stroke:none;">?𝑟</text>
   <text y="683.886" code="2870" x="322.876" svgx:width="0.58" style="fill:rgb(0,0,0);font-family:CambriaMath;font-size:6.48px;stroke:none;">?</text>
   <text y="700.386" x="314.836" svgx:width="0.48" style="fill:rgb(0,0,0);font-family:CambriaMath;font-size:9.0px;stroke:none;">𝑟</text>
   <text y="702.246" code="3042" x="317.596" svgx:width="0.59" style="fill:rgb(0,0,0);font-family:CambriaMath;font-size:6.48px;stroke:none;">?</text>
   <text y="697.086" code="2870" x="319.516" svgx:width="0.58" style="fill:rgb(0,0,0);font-family:CambriaMath;font-size:6.48px;stroke:none;">?</text>
  </g>
  <path style="fill:rgb(0,0,0);stroke:none;stroke-width:0.8;" d="M311.480 150.140 L327.080 150.140 L327.080 150.740 L311.480 150.740 L311.480 150.140 "/>
  <g begin="text">
   <text y="694.026" x="327.076" svgx:width="0.41" style="fill:rgb(0,0,0);font-family:CambriaMath;font-size:9.0px;stroke:none;">)</text>
   <text y="694.026" x="330.736" svgx:width="0.25" style="fill:rgb(0,0,0);font-family:PalatinoLinotype;font-size:12.0px;stroke:none;"> </text>
   <text y="694.266" x="499.636,502.996,507.976,511.277" svgx:width="0.33,0.5,0.33,0.25" style="fill:rgb(0,0,0);font-family:PalatinoLinotype;font-size:10.02px;stroke:none;">(1) </text>
   <text y="723.246" x="73.938,82.289,88.117,92.912,96.866,101.662,104.167,105.142" svgx:width="0.83,0.58,0.48,0.4,0.48,0.25,0.55,0.79" style="fill:rgb(0,0,0);font-family:PalatinoLinotype;font-size:10.02px;stroke:none;">where Q</text>
   <text y="723.246" x="112.996" svgx:width="0.4" style="fill:rgb(0,0,0);font-family:PalatinoLinotype;font-size:6.0px;stroke:none;">r</text>
   <text y="723.246" x="115.336,117.841,118.816,124.936,129.676,133.012,135.928,141.758,146.557,150.805,153.31,154.284,160.043,164.843,169.852,173.118,175.623,176.539,180.787,186.256,192.256,196.215,200.663,205.462,207.96699999999998,208.942,211.857,217.687,220.954,225.752,231.583,235.784,238.7,241.966,247.536,249.996,252.501,253.417" svgx:width="0.25,0.55,0.61,0.48,0.33,0.29,0.58,0.48,0.42,0.25,0.55,0.58,0.48,0.5,0.33,0.25,0.55,0.42,0.55,0.6,0.4,0.44,0.48,0.25,0.55,0.29,0.58,0.33,0.48,0.58,0.42,0.29,0.33,0.56,0.25,0.25,0.55,0.79" style="fill:rgb(0,0,0);font-family:PalatinoLinotype;font-size:10.02px;stroke:none;"> defines heat source intensity, Q</text>
   <text y="723.246" x="261.256" svgx:width="0.5" style="fill:rgb(0,0,0);font-family:PalatinoLinotype;font-size:6.0px;stroke:none;">0</text>
   <text y="723.246" x="264.256,266.76099999999997,267.736,271.694,276.494,282.515,286.473,291.273,295.522,300.322,306.153,309.391,313.593,316.098,317.072,320.311,326.13,330.929,333.43399999999997,334.409,343.255,348.265,353.364,356.304,365.15,371.15,379.996,382.501,383.475,386.392,392.223,395.462,400.261,406.093,410.341,413.258,416.496,422.015,424.535,427.04,427.955,436.311,442.142,445.059,447.975,452.715,455.21999999999997,456.195" svgx:width="0.25,0.55,0.4,0.48,0.6,0.4,0.48,0.42,0.48,0.58,0.33,0.42,0.25,0.55,0.33,0.58,0.48,0.25,0.55,0.88,0.5,0.52,0.29,0.88,0.6,0.88,0.25,0.55,0.29,0.58,0.33,0.48,0.58,0.42,0.29,0.33,0.56,0.25,0.25,0.55,0.83,0.58,0.29,0.29,0.48,0.25,0.55,0.4" style="fill:rgb(0,0,0);font-family:PalatinoLinotype;font-size:10.02px;stroke:none;"> represents the maximum intensity, while r</text>
   <text y="723.246" x="460.156" svgx:width="0.55" style="fill:rgb(0,0,0);font-family:PalatinoLinotype;font-size:6.0px;stroke:none;">o</text>
   <text y="723.246" x="463.396,465.901,466.876,472.993,477.733,481.066,483.979,489.806,494.602,498.847,501.352,502.326,505.589,511.417,516.156" svgx:width="0.25,0.55,0.61,0.48,0.33,0.29,0.58,0.48,0.42,0.25,0.55,0.33,0.58,0.48,0.25" style="fill:rgb(0,0,0);font-family:PalatinoLinotype;font-size:10.02px;stroke:none;"> defines the </text>
   <text y="736.746" x="73.938,79.992,85.991,91.991,96.79,100.761,103.281,108.303,114.062,120.196,122.716,125.954,131.713,136.525,139.045,141.974,147.456,155.824,160.635,164.536,167.056,170.956,175.996,182.13,185.009,191.009,195.271,197.791,200.719,206.479,208.999,212.237,218.056,222.868,225.388,231.441,237.441,243.441,248.24,252.141,254.661,260.66,263.6,268.622,274.465,279.205,281.665,286.687,289.925,292.445,297.467,299.927,304.949,307.409" svgx:width="0.6,0.6,0.6,0.48,0.4,0.25,0.5,0.58,0.61,0.25,0.33,0.58,0.48,0.25,0.29,0.55,0.83,0.48,0.4,0.25,0.4,0.5,0.61,0.29,0.6,0.42,0.25,0.29,0.58,0.25,0.33,0.58,0.48,0.25,0.6,0.6,0.6,0.48,0.4,0.25,0.6,0.29,0.5,0.58,0.48,0.25,0.5,0.33,0.25,0.5,0.25,0.5,0.25,0.5" style="fill:rgb(0,0,0);font-family:PalatinoLinotype;font-size:10.02px;stroke:none;">upper and the lower radius in the upper plane at z = z</text>
   <text y="736.746" x="312.376" svgx:width="0.6" style="fill:rgb(0,0,0);font-family:PalatinoLinotype;font-size:6.0px;stroke:none;">u</text>
   <text y="736.746" x="315.976,318.496,323.516,329.357,335.489,337.949,340.876,346.717,349.237,352.475,358.295,363.104,365.564,368.444,373.905,382.27,387.08,391.048,393.568,399.568,402.447,407.467,413.309,418.118,420.578,425.598,428.776,431.296,436.316,438.776,443.796,446.256" svgx:width="0.25,0.5,0.58,0.61,0.25,0.29,0.58,0.25,0.33,0.58,0.48,0.25,0.29,0.55,0.83,0.48,0.4,0.25,0.6,0.29,0.5,0.58,0.48,0.25,0.5,0.33,0.25,0.5,0.25,0.5,0.25,0.5" style="fill:rgb(0,0,0);font-family:PalatinoLinotype;font-size:10.02px;stroke:none;"> and in the lower plane at z = z</text>
   <text y="736.746" x="451.276" svgx:width="0.29" style="fill:rgb(0,0,0);font-family:PalatinoLinotype;font-size:6.0px;stroke:none;">l</text>
   <text y="736.746" x="453.016,455.49,458.01,461.936,466.704,470.966,476.965,481.733,486.15,489.385,492.325,497.954,502.721,505.661,511.18,513.654" svgx:width="0.25,0.25,0.4,0.48,0.42,0.6,0.48,0.44,0.33,0.29,0.56,0.48,0.29,0.56,0.25,0.25" style="fill:rgb(0,0,0);font-family:PalatinoLinotype;font-size:10.02px;stroke:none;">, respectively. </text>
   <text y="750.246" x="95.177,101.305,107.122,111.908,114.428,118.372,123.368,129.476,132.379,138.406,142.641,145.161,149.106,151.626,154.528,158.763,161.283,166.84,169.742,175.39,180.175,185.992,188.512,194.039,199.596" svgx:width="0.61,0.58,0.48,0.25,0.4,0.5,0.61,0.29,0.6,0.42,0.25,0.4,0.25,0.29,0.42,0.25,0.56,0.29,0.56,0.48,0.58,0.25,0.55,0.56,0.25" style="fill:rgb(0,0,0);font-family:PalatinoLinotype;font-size:10.02px;stroke:none;">The radius r is given by </text>
   <text y="771.306" x="270.076,273.766,276.319" svgx:width="0.41,0.55,0.75" style="fill:rgb(0,0,0);font-family:CambriaMath;font-size:9.0px;stroke:none;">r =</text>
   <text y="771.366" code="3493" x="285.556" svgx:width="0.74" style="fill:rgb(0,0,0);font-family:CambriaMath;font-size:9.0px;stroke:none;">?</text>
   <text y="771.306" x="292.216" svgx:width="0.48" style="fill:rgb(0,0,0);font-family:CambriaMath;font-size:9.0px;stroke:none;">x</text>
   <text y="768.606" code="2870" x="296.956" svgx:width="0.58" style="fill:rgb(0,0,0);font-family:CambriaMath;font-size:6.48px;stroke:none;">?</text>
   <text y="771.306" code="3397" x="303.076,311.775" svgx:width="0.75,0.5" style="fill:rgb(0,0,0);font-family:CambriaMath;font-size:9.0px;stroke:none;">?y</text>
   <text y="768.606" code="2870" x="316.696" svgx:width="0.58" style="fill:rgb(0,0,0);font-family:CambriaMath;font-size:6.48px;stroke:none;">?</text>
  </g>
  <path style="fill:rgb(0,0,0);stroke:none;stroke-width:0.8;" d="M292.220 78.620 L320.780 78.620 L320.780 79.220 L292.220 79.220 L292.220 78.620 "/>
  <g begin="text">
   <text y="771.306" x="320.776" svgx:width="0.25" style="fill:rgb(0,0,0);font-family:PalatinoLinotype;font-size:9.0px;stroke:none;">.</text>
   <text y="771.306" x="322.996" svgx:width="0.25" style="fill:rgb(0,0,0);font-family:PalatinoLinotype;font-size:12.0px;stroke:none;"> </text>
   <text y="771.186" x="499.636,502.996,507.976,511.277" svgx:width="0.33,0.5,0.33,0.25" style="fill:rgb(0,0,0);font-family:PalatinoLinotype;font-size:10.02px;stroke:none;">(2) </text>
   <text y="804.006" x="73.938,78.953,81.464,83.984,91.065,96.105,100.559,106.621,109.963,113.306,117.688,120.208,125.223,131.284,137.411,139.931,148.262,151.604,156.058,160.512,166.639,171.093,175.547,178.89,184.465,190.527" svgx:width="0.5,0.25,0.25,0.71,0.5,0.44,0.61,0.33,0.33,0.44,0.25,0.5,0.61,0.61,0.25,0.83,0.33,0.44,0.44,0.61,0.44,0.44,0.33,0.56,0.61,0.25" style="fill:rgb(0,0,0);font-family:PalatinoLinotype,Bold;font-size:10.02px;stroke:none;">4. Results and Discussion </text>
   <text y="823.506" x="95.178,98.554,104.384,106.889,108.764,112.031,117.861,120.777,125.024,127.529,129.344,133.592,136.858,142.899,149.02,154.539,157.059,159.564,161.439,164.705,170.535,175.334,177.839,179.714,184.453,187.79,191.126,195.866,200.314,203.58,207.828,210.333,212.148,217.617,220.954,223.459,225.274,233.598,239.719,242.224,248.905,256.699,264.257,266.762,268.637,271.553,276.562,280.809,285.608,289.508,292.013,293.888,299.909,304.918,308.875,313.877,322.699,327.475,330.653,335.453,339.387,343.612,346.117,347.932,351.292,354.172,356.692,361.491,364.011,366.471,368.976,370.851,376.949,382.229,387.511,389.971,392.476,394.351,397.243,402.283,406.508,411.284,415.218,417.723,419.598,425.596,431.042,439.374,444.149,448.084,450.566,453.07099999999997,454.946,459.986,465.805,471.903,474.408,476.283,480.507,483.686,488.726,494.545,500.643,504.003,509.45,512.763,516.076" svgx:width="0.34,0.58,0.25,0.55,0.33,0.58,0.29,0.42,0.25,0.55,0.42,0.33,0.6,0.61,0.56,0.25,0.25,0.55,0.33,0.58,0.48,0.25,0.55,0.48,0.33,0.33,0.48,0.44,0.33,0.42,0.25,0.55,0.55,0.33,0.25,0.55,0.83,0.61,0.25,0.67,0.78,0.76,0.25,0.55,0.29,0.5,0.42,0.48,0.4,0.25,0.55,0.6,0.5,0.4,0.5,0.88,0.48,0.33,0.48,0.4,0.42,0.25,0.55,0.33,0.29,0.25,0.48,0.25,0.25,0.25,0.55,0.61,0.52,0.52,0.25,0.25,0.55,0.29,0.5,0.42,0.48,0.4,0.25,0.55,0.6,0.55,0.83,0.48,0.4,0.25,0.25,0.55,0.5,0.58,0.61,0.25,0.55,0.42,0.33,0.5,0.58,0.61,0.33,0.55,0.33,0.33,0.25" style="fill:rgb(0,0,0);font-family:PalatinoLinotype;font-size:10.02px;stroke:none;">In this study, the effects of Nd:YAG laser parameters (i.e., LSS, laser power, and stand-off </text>
   <text y="837.006" x="73.938,80.037,82.976,87.202,90.446,95.486,101.306,105.732,110.508,113.823,116.463,121.91,127.719,130.299,138.07,141.425,146.706,150.066,152.647,157.634,162.674,167.661,172.648,175.288,179.514,182.758,187.534,192.311,195.251,197.831,200.77,206.59,209.23,212.474,218.282,223.059,225.699,229.925,235.944,239.879,243.193,248.18,252.606,257.383,260.023,265.831,270.871,274.807,280.905,285.682,291.49,294.43,300.316,305.893,308.474,314.501,318.465,323.942,328.397,333.203,337.458,341.659,344.3,352.661,357.641,361.896,364.476,368.678,371.916,377.964,384.091,387.014,391.82,397.881,400.401,403.042,409.189,414.59,417.23,420.153,425.912,431.579,436.385,440.64,443.878,446.8,452.319,457.335,460.573,465.379,468.019,471.257,477.077,481.882,484.463,488.717,494.765,498.665,502.025,507.041,511.496,516.176" svgx:width="0.61,0.29,0.42,0.33,0.5,0.58,0.44,0.48,0.33,0.25,0.55,0.58,0.25,0.78,0.34,0.52,0.34,0.25,0.5,0.5,0.5,0.5,0.25,0.42,0.33,0.48,0.48,0.29,0.25,0.29,0.58,0.25,0.33,0.58,0.48,0.25,0.42,0.6,0.4,0.33,0.5,0.44,0.48,0.25,0.58,0.5,0.4,0.61,0.48,0.58,0.29,0.58,0.56,0.25,0.6,0.4,0.55,0.44,0.48,0.42,0.42,0.25,0.83,0.5,0.42,0.25,0.42,0.33,0.6,0.61,0.29,0.48,0.61,0.25,0.25,0.61,0.55,0.25,0.29,0.58,0.56,0.48,0.42,0.33,0.29,0.56,0.5,0.33,0.48,0.25,0.33,0.58,0.48,0.25,0.42,0.6,0.4,0.33,0.5,0.44,0.48,0.25" style="fill:rgb(0,0,0);font-family:PalatinoLinotype;font-size:10.02px;stroke:none;">distance) on AISI 4130 steel in the surface hardening process was studied. To investigate the surface </text>
   <text y="850.506" x="73.938,79.952,83.904,89.367,95.382,100.175,104.126,107.386,110.296,115.089,119.33,121.829,124.829,130.393,135.133,140.596,149.435,154.228,157.488,161.44,164.349,168.791,173.794,176.704,179.704,185.765,188.645,197.484,202.277,208.101,212.343,215.253,220.716,226.541,230.782,233.782,239.246,242.576,245.576,248.754,254.573,259.366,262.366,268.19,273.193,277.145,283.259,288.052,293.876,298.669,304.696,307.636,312.648,318.121,323.954,328.756,331.216,334.216,343.038,345.977,350.429,354.389,359.862,365.621,370.633,374.593,380.717,386.55,391.29,395.541,399.791,402.731,408.855,411.734,415.985,419.223,423.184,426.063,431.581,437.641,440.879,443.819,449.291,455.125,458.064,460.983,466.816,469.816,478.096,481.036,487.098,490.336,496.169,499.169,504.181,510.014,516.138" svgx:width="0.6,0.4,0.55,0.6,0.48,0.4,0.33,0.29,0.48,0.42,0.25,0.25,0.56,0.48,0.55,0.88,0.48,0.33,0.4,0.29,0.44,0.5,0.29,0.25,0.61,0.29,0.88,0.48,0.58,0.42,0.29,0.55,0.58,0.42,0.25,0.55,0.33,0.25,0.33,0.58,0.48,0.25,0.58,0.5,0.4,0.61,0.48,0.58,0.48,0.61,0.25,0.5,0.55,0.58,0.48,0.25,0.25,0.88,0.29,0.44,0.4,0.55,0.58,0.5,0.4,0.61,0.58,0.48,0.42,0.42,0.25,0.61,0.29,0.42,0.33,0.4,0.29,0.55,0.6,0.33,0.29,0.55,0.58,0.25,0.29,0.58,0.25,0.83,0.29,0.61,0.33,0.58,0.25,0.5,0.58,0.61,0.25" style="fill:rgb(0,0,0);font-family:PalatinoLinotype;font-size:10.02px;stroke:none;">properties, geometrical dimensions of the hardened zone, microhardness distribution in width and </text>
   <text y="864.006" x="73.938,80.054,84.847,90.863,94.124,99.949,102.454,103.669,109.134,112.465,114.97,116.185,122.301,127.555,133.617,141.956,144.456,146.96099999999998,148.176,154.192,158.986,162.886,167.327,172.121,177.946,181.207,186.211,191.73,196.53,199.035,200.25,205.714,209.046,211.551,212.766,216.027,221.852,226.646,229.15099999999998,230.306,233.637,238.431,242.383,246.283,249.194,252.372,257.166,259.671,260.885,266.901,272.726,277.73,281.973,286.767,289.267,291.772,292.877,297.885,303.714,309.834,312.339,313.494,322.338,325.252,329.699,333.656,339.124,343.371,346.637,350.593,356.632,361.08,364.345,370.384,374.285,379.084,381.589,382.804,388.273,391.608,394.113,395.328,398.594,404.423,409.221,411.726,412.94,418.7,423.74,427.696,433.758,438.555,444.385,449.182,455.302,457.807,458.962,463.209,469.248,473.149,476.508,481.516,485.898,490.696,493.201,494.356,502.709,507.507,511.463,516.202" svgx:width="0.61,0.48,0.6,0.33,0.58,0.25,0.55,0.55,0.33,0.25,0.55,0.61,0.52,0.61,0.83,0.25,0.25,0.55,0.6,0.48,0.4,0.44,0.48,0.58,0.33,0.5,0.56,0.48,0.25,0.55,0.55,0.33,0.25,0.55,0.33,0.58,0.48,0.25,0.55,0.33,0.48,0.4,0.4,0.29,0.33,0.48,0.25,0.55,0.6,0.58,0.5,0.42,0.48,0.25,0.25,0.55,0.5,0.58,0.61,0.25,0.55,0.88,0.29,0.44,0.4,0.55,0.42,0.33,0.4,0.6,0.44,0.33,0.6,0.4,0.48,0.25,0.55,0.55,0.33,0.25,0.55,0.33,0.58,0.48,0.25,0.55,0.58,0.5,0.4,0.61,0.48,0.58,0.48,0.61,0.25,0.55,0.42,0.6,0.4,0.33,0.5,0.44,0.48,0.25,0.55,0.83,0.48,0.4,0.48,0.25" style="fill:rgb(0,0,0);font-family:PalatinoLinotype;font-size:10.02px;stroke:none;">depth of LSTH, percentage of the ferrite phase, and microstructure of the hardened surface were </text>
   <text y="877.506" x="73.938,76.864,82.704,88.374,93.183,97.44,100.679,103.604,109.123,114.142,117.38,122.189,128.32,130.78" svgx:width="0.29,0.58,0.56,0.48,0.42,0.33,0.29,0.56,0.5,0.33,0.48,0.61,0.25,0.25" style="fill:rgb(0,0,0);font-family:PalatinoLinotype;font-size:10.02px;stroke:none;">investigated. </text>
   <text y="903.006" x="73.938,78.946,81.45,86.458,88.962,91.422,99.214,103.661,107.499,112.54,116.436,122.005,125.843,130.883,133.343,140.023,144.471,148.367,152.263,154.783,162.015,165.911,170.292,178.093,181.989,185.325,189.163,194.143" svgx:width="0.5,0.25,0.5,0.25,0.25,0.78,0.44,0.39,0.5,0.39,0.56,0.39,0.5,0.25,0.67,0.44,0.39,0.39,0.25,0.72,0.39,0.44,0.78,0.39,0.33,0.39,0.5,0.25" style="fill:rgb(0,0,0);font-family:PalatinoLinotype,Italic;font-size:10.02px;stroke:none;">4.1. Hardened Case Geometry </text>
   <text y="922.446" x="95.178,101.318,107.147,111.945,114.44999999999999,116.864,121.111,126.941,131.949,137.968,142.766,145.271,147.686,153.154,156.49,158.995,161.41,164.675,170.504,175.302,177.807,180.222,186.051,191.059,195.015,201.135,205.933,211.762,216.502,222.623,225.128,227.543,232.551,238.02,243.849,248.647,251.152,253.567,261.847,266.887,271.134,273.639,275.994,281.002,284.337,287.672,292.47,296.917,300.182,304.98,311.1,313.605,315.976,321.515,327.084,329.589,332.004,335.269,341.099,345.896,348.401,350.816,355.063,360.892,365.9,371.92,376.718,379.223,381.637,387.038,390.398,392.903,395.318,398.584,404.413,409.211,411.716,414.13,421.773,426.781,432.82,437.067,441.314,444.228,449.236,454.996,457.501,459.916,462.83,467.838,472.085,476.883,480.839,483.344,485.759,490.556,496.386,501.183,505.14,510.659,516.177" svgx:width="0.61,0.58,0.48,0.25,0.55,0.42,0.58,0.5,0.6,0.48,0.25,0.55,0.55,0.33,0.25,0.55,0.33,0.58,0.48,0.25,0.55,0.58,0.5,0.4,0.61,0.48,0.58,0.48,0.61,0.25,0.55,0.5,0.55,0.58,0.48,0.25,0.55,0.83,0.5,0.42,0.25,0.55,0.5,0.33,0.33,0.48,0.44,0.33,0.48,0.61,0.25,0.55,0.55,0.56,0.25,0.55,0.33,0.58,0.48,0.25,0.55,0.42,0.58,0.5,0.6,0.48,0.25,0.55,0.55,0.33,0.25,0.55,0.33,0.58,0.48,0.25,0.55,0.76,0.5,0.6,0.42,0.42,0.29,0.5,0.58,0.25,0.55,0.29,0.5,0.42,0.48,0.4,0.25,0.55,0.48,0.58,0.48,0.4,0.56,0.56,0.25" style="fill:rgb(0,0,0);font-family:PalatinoLinotype;font-size:10.02px;stroke:none;">The shape of the hardened zone was affected by the shape of the Gaussian laser energy </text>
   <text y="935.946" x="73.938,80.063,82.982,87.234,90.504,94.466,97.385,102.843,108.903,112.173,115.093,120.566,126.401,128.861,131.36599999999999,132.281,137.294,141.546,144.051,144.966,149.218,155.052,160.526,168.884,174.719,177.224,178.139,181.059,186.893,189.398,190.314,195.888,198.807,204.326,210.386,214.347,219.15,221.655,222.57,227.583,230.043,232.548,233.523,239.668,245.502,250.242,252.74699999999999,253.721,262.049,268.174,270.683,277.283,285.08,292.727,295.23199999999997,296.177,299.086,304.089,308.331,313.124,317.075,319.58,320.555,326.589,330.831,335.624,341.739,344.24399999999997,345.159,348.069,353.893,356.39799999999997,357.373,360.633,366.392,369.302,373.543,376.048,377.023,381.265,384.525,390.56,396.674,402.238,404.743,405.718,411.477,416.517,422.579,425.084,425.999,431.002,433.507,434.482,442.04,447.08,453.115,457.356,461.598,464.508,469.511,475.335,477.84,478.756,487.595,493.058,499.173,503.966,506.471,507.445,510.355,516.179" svgx:width="0.61,0.29,0.42,0.33,0.4,0.29,0.55,0.6,0.33,0.29,0.55,0.58,0.25,0.25,0.55,0.5,0.42,0.25,0.55,0.42,0.58,0.55,0.83,0.58,0.25,0.55,0.29,0.58,0.25,0.55,0.56,0.29,0.56,0.6,0.4,0.48,0.25,0.55,0.5,0.25,0.25,0.55,0.61,0.58,0.48,0.25,0.55,0.83,0.61,0.25,0.67,0.78,0.76,0.25,0.55,0.29,0.5,0.42,0.48,0.4,0.25,0.55,0.6,0.42,0.48,0.61,0.25,0.55,0.29,0.58,0.25,0.55,0.33,0.58,0.29,0.42,0.25,0.55,0.42,0.33,0.6,0.61,0.56,0.25,0.55,0.58,0.5,0.61,0.25,0.55,0.5,0.25,0.55,0.76,0.5,0.6,0.42,0.42,0.29,0.5,0.58,0.25,0.55,0.88,0.55,0.61,0.48,0.25,0.55,0.29,0.58,0.25" style="fill:rgb(0,0,0);font-family:PalatinoLinotype;font-size:10.02px;stroke:none;">distribution, as shown in Figure 5. The Nd:YAG laser used in this study had a Gaussian mode in </text>
   <text y="949.446" x="73.938,82.289,88.116,91.029,95.474,101.302,104.121,107.384,113.212,118.007,120.827,129.589,134.569,139.735,142.648,151.49,157.527,166.369,169.189,173.985,179.744,184.539,188.494,194.013,199.592,202.411,210.762,215.768,220.013,222.774,226.107,231.574,236.019,242.056,246.301,251.041,257.159,259.978,264.984,268.247,271.067,274.33,280.157,284.897,287.716,296.558,299.471,305.533,311.594,314.534,319.33,322.149,327.55,330.91,333.73,336.993,342.82,347.616,350.376,353.289,358.295,362.54,367.335,371.236,374.055,379.592,384.388,389.394,398.236,400.738,403.557,409.695,415.522,420.318,423.079,425.991,430.997,435.242,440.038,443.992,446.811,451.607,457.366,462.162,466.116,471.683,477.202,480.021,483.976,488.715,494.833,500.871,505.316,510.112,516.173" svgx:width="0.83,0.58,0.29,0.44,0.58,0.25,0.33,0.58,0.48,0.25,0.88,0.5,0.52,0.29,0.88,0.6,0.88,0.25,0.48,0.58,0.48,0.4,0.56,0.56,0.25,0.83,0.5,0.42,0.25,0.33,0.55,0.44,0.6,0.42,0.48,0.61,0.25,0.5,0.33,0.25,0.33,0.58,0.48,0.25,0.88,0.29,0.61,0.61,0.29,0.48,0.25,0.55,0.33,0.25,0.33,0.58,0.48,0.25,0.29,0.5,0.42,0.48,0.4,0.25,0.55,0.48,0.5,0.88,0.25,0.25,0.61,0.58,0.48,0.25,0.29,0.5,0.42,0.48,0.4,0.25,0.48,0.58,0.48,0.4,0.56,0.56,0.25,0.4,0.48,0.61,0.6,0.44,0.48,0.61,0.25" style="fill:rgb(0,0,0);font-family:PalatinoLinotype;font-size:10.02px;stroke:none;">which the maximum energy was focused at the middle of the laser beam. The laser energy reduced </text>
   <text y="962.945" x="73.938,78.946,83.193,86.107,92.227,97.025,99.364,102.63,108.459,113.257,115.596,124.44,127.355,133.417,139.539,142.453,147.251,149.591,154.991,158.352,160.691,163.957,169.786,174.584,176.923,179.838,184.846,189.093,193.832,197.789,200.128,205.667,210.465,215.473,224.317,226.821,229.101,235.22,240.789,243.069,245.984,251.743,256.19,260.146,264.944,269.952,274.199,277.113,282.943,288.512,290.851,294.117,299.946,304.744,306.977,313.039,315.978,320.235,323.473,328.491,334.331,338.788,343.527,345.867,349.213,353.179,358.658,367.512,369.852,373.03,378.849,383.657,385.996,389.342,394.82,399.202,404.243,407.167,409.507,415.446,418.386,423.404,429.243,433.983,436.323,439.668,443.925,448.733,453.472,455.812,460.83,463.11,466.034,471.874,474.213,479.732,482.672,488.191,494.19,498.157,502.964,505.304,510.284,513.644,516.158" svgx:width="0.5,0.42,0.29,0.61,0.48,0.25,0.33,0.58,0.48,0.25,0.88,0.29,0.61,0.61,0.29,0.48,0.25,0.55,0.33,0.25,0.33,0.58,0.48,0.25,0.29,0.5,0.42,0.48,0.4,0.25,0.55,0.48,0.5,0.88,0.25,0.25,0.61,0.56,0.25,0.29,0.58,0.44,0.4,0.48,0.5,0.42,0.29,0.58,0.56,0.25,0.33,0.58,0.48,0.25,0.61,0.29,0.42,0.33,0.5,0.58,0.44,0.48,0.25,0.33,0.4,0.55,0.88,0.25,0.33,0.58,0.48,0.25,0.33,0.55,0.44,0.5,0.29,0.25,0.6,0.29,0.5,0.58,0.48,0.25,0.33,0.42,0.48,0.48,0.25,0.5,0.25,0.29,0.58,0.25,0.56,0.29,0.56,0.6,0.4,0.48,0.25,0.5,0.33,0.25,0.25" style="fill:rgb(0,0,0);font-family:PalatinoLinotype;font-size:10.02px;stroke:none;">aside the middle of the laser beam. By increasing the distance from the focal plane (see z in Figure 5), </text>
   <text y="976.445" x="73.938,79.763,85.228,88.489,91.009,96.474,102.299,105.21,110.775,113.295,116.556,122.381,127.175,129.695,134.434,140.254,145.047,149.0,154.565,160.13,162.65,170.93,175.97,180.213,182.733,186.685,191.424,197.54,203.576,208.019,212.813,218.928,221.428,223.948,229.483,235.519,238.78,241.24,246.244,249.155,253.397,258.862,261.382,264.643,270.469,275.262,277.782,280.693,285.697,289.94,294.734,298.686,301.206,306.664,311.463,316.467,325.307,327.827,333.889,336.829,342.484,347.277,351.23,356.795,361.534,367.596,370.116" svgx:width="0.58,0.55,0.33,0.25,0.55,0.58,0.29,0.56,0.25,0.33,0.58,0.48,0.25,0.48,0.58,0.48,0.4,0.56,0.56,0.25,0.83,0.5,0.42,0.25,0.4,0.48,0.61,0.6,0.44,0.48,0.61,0.25,0.25,0.55,0.6,0.33,0.25,0.5,0.29,0.42,0.55,0.25,0.33,0.58,0.48,0.25,0.29,0.5,0.42,0.48,0.4,0.25,0.55,0.48,0.5,0.88,0.25,0.61,0.29,0.56,0.48,0.4,0.56,0.48,0.61,0.25,0.25" style="fill:rgb(0,0,0);font-family:PalatinoLinotype;font-size:10.02px;stroke:none;">not only the energy was reduced, but also the laser beam diverged. </text>
   <text y="1115.106" x="443.536" svgx:width="0.25" style="fill:rgb(0,0,0);font-family:PalatinoLinotype;font-size:10.98px;stroke:none;"> </text>
   <text y="1132.086" x="174.496,179.521,182.522,187.53,193.032,196.537,201.04,203.32,207.824,210.044" svgx:width="0.56,0.33,0.56,0.61,0.39,0.5,0.25,0.5,0.25,0.25" style="fill:rgb(0,0,0);font-family:PalatinoLinotype,Bold;font-size:9.0px;stroke:none;">Figure 5. </text>
   <text y="1132.086" x="212.296,217.03,221.035,226.281,230.541,238.463,242.963,245.907,248.536,252.541,254.82,259.743,262.683,264.963,267.592,272.1,275.882,280.202,283.766,286.046,290.964,295.284,299.793,307.715,309.995,316.833,321.333,326.732,330.558,334.383,337.012,341.52,346.767,348.987,354.495,357.124,360.949,363.892,367.457,370.086,375.071,380.471,383.414,386.043,390.966,396.125,398.405,401.412,405.921,410.36,413.36,415.581" svgx:width="0.52,0.44,0.58,0.48,0.88,0.5,0.33,0.29,0.44,0.25,0.55,0.33,0.25,0.29,0.5,0.42,0.48,0.4,0.25,0.55,0.48,0.5,0.88,0.25,0.76,0.5,0.6,0.42,0.42,0.29,0.5,0.58,0.25,0.61,0.29,0.42,0.33,0.4,0.29,0.55,0.6,0.33,0.29,0.55,0.58,0.25,0.33,0.5,0.5,0.33,0.25,0.25" style="fill:rgb(0,0,0);font-family:PalatinoLinotype;font-size:9.0px;stroke:none;">Schematic of laser beam Gaussian distribution [35]. </text>
   <text y="1157.346" x="95.176,101.312,107.137,111.931,114.15,117.061,122.886,128.902,134.938,138.199,140.418,146.358,151.398,155.298,160.338,169.178,173.972,177.233,182.027,185.979,188.199,192.938,196.27,199.601,204.394,208.838,212.099,216.342,218.561,224.026,229.851,232.071,235.332,241.157,245.951,248.17,253.93,258.97,262.922,269.038,273.777,279.597,284.39,290.506,292.726,297.73,303.194,308.954,313.753,315.973,321.492,326.291,331.692,340.514,345.308,348.569,352.521,358.086,360.306,365.31,369.21,374.003,376.223,382.239,385.149,390.55,393.811,397.072,401.866,407.982,410.201,413.112,418.937,421.157,426.676,429.615,435.134,441.194,445.146,449.886,454.128,456.348,461.352,466.356,471.36,473.86,476.079,482.215,488.041,492.834,494.995,498.326,503.791,508.172,513.212,516.122" svgx:width="0.61,0.58,0.48,0.25,0.29,0.58,0.6,0.6,0.33,0.25,0.6,0.5,0.4,0.5,0.88,0.48,0.33,0.48,0.4,0.25,0.48,0.33,0.33,0.48,0.44,0.33,0.42,0.25,0.55,0.58,0.25,0.33,0.58,0.48,0.25,0.58,0.5,0.4,0.61,0.48,0.58,0.48,0.61,0.25,0.5,0.55,0.58,0.48,0.25,0.56,0.48,0.55,0.88,0.48,0.33,0.4,0.56,0.25,0.5,0.4,0.48,0.25,0.6,0.29,0.55,0.33,0.33,0.48,0.61,0.25,0.29,0.58,0.25,0.56,0.29,0.56,0.6,0.4,0.48,0.42,0.25,0.5,0.5,0.5,0.25,0.25,0.61,0.58,0.48,0.25,0.33,0.55,0.44,0.5,0.29,0.25" style="fill:rgb(0,0,0);font-family:PalatinoLinotype;font-size:10.02px;stroke:none;">The input parameter effects on the hardened zone geometry are plotted in Figures 6–8. The focal </text>
   <text y="1170.846" x="73.936,79.957,82.872,87.881,93.712,98.51,101.151,107.171,112.641,116.889,119.804,123.071,125.986,131.387,137.206,139.846,145.677,150.686,156.806,159.447,164.456,167.036,173.157,176.072,180.03,184.828,189.276,192.454,195.095,199.893,203.23,206.566,211.365,215.813,219.079,221.719,227.189,233.019,235.659,238.926,244.756,249.555,252.135,260.489,263.405,269.526,272.792,278.622,281.262,286.271,292.102,298.222,300.795,305.804,308.445,312.345,317.145,322.805,327.603,331.561,335.808,340.607,343.247,348.046,351.382,354.719,359.517,363.965,367.232,369.812,375.282,381.112,383.752,387.018,392.849,397.647,400.288,406.408,411.207,417.228,420.494,426.324,429.024,434.033,439.864,445.985,448.625,453.634,459.393,464.963,467.879,472.677,475.257,478.594,483.603,488.612,491.948,494.453,497.093,503.234,509.064,511.98,516.228" svgx:width="0.6,0.29,0.5,0.58,0.48,0.25,0.6,0.55,0.42,0.29,0.33,0.29,0.55,0.58,0.25,0.58,0.5,0.61,0.25,0.5,0.25,0.61,0.29,0.4,0.48,0.44,0.33,0.25,0.48,0.33,0.33,0.48,0.44,0.33,0.25,0.55,0.58,0.25,0.33,0.58,0.48,0.25,0.83,0.29,0.61,0.33,0.58,0.25,0.5,0.58,0.61,0.25,0.5,0.25,0.4,0.48,0.56,0.48,0.4,0.42,0.48,0.25,0.48,0.33,0.33,0.48,0.44,0.33,0.25,0.55,0.58,0.25,0.33,0.58,0.48,0.25,0.61,0.48,0.6,0.33,0.58,0.25,0.5,0.58,0.61,0.25,0.5,0.58,0.56,0.29,0.48,0.25,0.33,0.5,0.5,0.33,0.25,0.25,0.61,0.58,0.29,0.42,0.25" style="fill:rgb(0,0,0);font-family:PalatinoLinotype;font-size:10.02px;stroke:none;">plane position had a direct effect on the width and a reverse effect on the depth and angle [37]. This </text>
  </g>
  <rect style="fill:pink;opacity:0.2;stroke:blue;stroke-width:0.3;" x="202.036" y="419.036" height="162.42" width="185.64" title="5"/>
  <text y="419.036" class="image" id="image.5.1" width="185" height="162" x="202.036" style="font-size:5.0px;">image.5.1.202_388.419_581</text>
  <rect style="fill:pink;opacity:0.2;stroke:blue;stroke-width:0.3;" x="146.176" y="943.976" height="128.64" width="297.36" title="5"/>
  <text y="943.976" class="image" id="image.5.2" width="297" height="128" x="146.176" style="font-size:5.0px;">image.5.2.146_444.944_1073</text>
  <g begin="text">
   <text y="641.078" x="217.721,222.706,225.692,230.677,236.156,239.644,244.12900000000002,246.369,250.852" svgx:width="0.56,0.33,0.56,0.61,0.39,0.5,0.55,0.5,0.25" style="fill:rgb(0,0,0);font-family:URWPalladioL-Bold;font-size:8.97px;stroke:none;">Figure 4.</text>
   <text y="641.078" x="256.232,262.589,267.574,270.184,272.793,278.011,283.49,287.032,289.641,293.622,298.105,300.7063,302.956,308.174,312.469,316.952,319.9121,322.117,325.919,330.815,336.221,339.602,343.583,347.88860000000005,350.119,358.036,362.932,368.411,372.706,375.315" svgx:width="0.71,0.56,0.29,0.29,0.58,0.61,0.4,0.29,0.44,0.5,0.29,0.55,0.58,0.48,0.5,0.33,0.55,0.42,0.55,0.6,0.4,0.44,0.48,0.55,0.88,0.55,0.61,0.48,0.29,0.25" style="fill:rgb(0,0,0);font-family:URWPalladioL-Roma;font-size:8.97px;stroke:none;">Cylindrical heat source model.</text>
   <text y="663.397" x="97.795,103.902,109.7,114.4808,116.963,122.951,128.39,136.699,141.471,145.455,147.897,153.984,158.756,164.554,168.778,171.678,174.925,180.5026,182.955,189.042,191.942,196.166,199.413,203.349,206.248,211.757,217.765,221.012,223.911,229.351,235.1278,237.64,245.949,250.93,255.1132,257.645,262.626,266.8092,269.341,272.658,278.098,280.997,283.896,289.336,297.645,301.869" svgx:width="0.61,0.58,0.48,0.55,0.6,0.55,0.83,0.48,0.4,0.55,0.61,0.48,0.58,0.42,0.29,0.33,0.56,0.55,0.61,0.29,0.42,0.33,0.4,0.29,0.55,0.6,0.33,0.29,0.55,0.58,0.55,0.83,0.5,0.42,0.55,0.5,0.42,0.55,0.33,0.55,0.29,0.29,0.55,0.83,0.42,0.25" style="fill:rgb(0,0,0);font-family:URWPalladioL-Roma;font-size:9.96px;stroke:none;">The power density distribution was as follows:</text>
   <text y="694.022" x="257.916" svgx:width="0.78" style="fill:rgb(0,0,0);font-family:URWPalladioL-Ital;font-size:9.96px;stroke:none;">Q</text>
   <text y="695.517" x="265.667" svgx:width="0.39" style="fill:rgb(0,0,0);font-family:URWPalladioL-Ital;font-size:7.57px;stroke:none;">r</text>
   <text y="694.022" x="272.002" svgx:width="0.78" style="fill:rgb(0,0,0);font-family:CMR10;font-size:10.38px;stroke:none;">=</text>
   <text y="694.022" x="282.963" svgx:width="0.78" style="fill:rgb(0,0,0);font-family:URWPalladioL-Ital;font-size:9.96px;stroke:none;">Q</text>
   <text y="695.517" x="290.714" svgx:width="0.44" style="fill:rgb(0,0,0);font-family:URWPalladioL-Ital;font-size:7.57px;stroke:none;">o</text>
   <text y="694.022" x="296.234,301.006,306.147" svgx:width="0.48,0.52,0.6" style="fill:rgb(0,0,0);font-family:URWPalladioL-Roma;font-size:9.96px;stroke:none;">exp</text>
   <text y="679.22" code="32" x="312.135" svgx:width="0.4" style="fill:rgb(0,0,0);font-family:Pxex;font-size:9.96px;stroke:none;">?</text>
   <text y="687.278" x="317.335" svgx:width="0.67" style="fill:rgb(0,0,0);font-family:Pxsy;font-size:9.96px;stroke:none;">−</text>
   <text y="687.278" x="324.0" svgx:width="0.39" style="fill:rgb(0,0,0);font-family:URWPalladioL-Ital;font-size:9.96px;stroke:none;">r</text>
   <text y="683.661" x="327.875" svgx:width="0.5" style="fill:rgb(0,0,0);font-family:URWPalladioL-Roma;font-size:7.57px;stroke:none;">2</text>
  </g>
  <path style="fill:none;stroke:rgb(0,0,0);stroke-width:0.8;" d="M317.330 691.320 L332.160 691.320 "/>
  <g begin="text">
   <text y="702.127" x="320.668" svgx:width="0.39" style="fill:rgb(0,0,0);font-family:URWPalladioL-Ital;font-size:9.96px;stroke:none;">r</text>
   <text y="698.576" x="324.543" svgx:width="0.5" style="fill:rgb(0,0,0);font-family:URWPalladioL-Roma;font-size:7.57px;stroke:none;">2</text>
   <text y="704.616" x="324.543" svgx:width="0.44" style="fill:rgb(0,0,0);font-family:URWPalladioL-Ital;font-size:7.57px;stroke:none;">o</text>
   <text y="679.22" code="33" x="333.355" svgx:width="0.4" style="fill:rgb(0,0,0);font-family:Pxex;font-size:9.96px;stroke:none;">?</text>
   <text y="694.022" x="507.124,510.442,515.423" svgx:width="0.33,0.5,0.33" style="fill:rgb(0,0,0);font-family:URWPalladioL-Roma;font-size:9.96px;stroke:none;">(1)</text>
   <text y="723.998" x="76.117,84.592,90.506,95.374,99.205,103.9858,107.07" svgx:width="0.83,0.58,0.48,0.4,0.48,0.55,0.79" style="fill:rgb(0,0,0);font-family:URWPalladioL-Roma;font-size:9.96px;stroke:none;">where Q</text>
   <text y="725.492" x="115.052" svgx:width="0.4" style="fill:rgb(0,0,0);font-family:URWPalladioL-Roma;font-size:7.57px;stroke:none;">r</text>
   <text y="723.998" x="121.531,127.74,132.607,138.755,144.67,149.537,153.7202,156.833,162.747,167.615,172.696,175.9828,178.996,183.305,188.853,194.981,198.822,203.334,208.1148,211.189,214.146,220.06,223.373,228.241,234.155,238.463,241.42,244.733,249.276,251.76600000000002,254.926" svgx:width="0.61,0.48,0.61,0.58,0.48,0.42,0.55,0.58,0.48,0.5,0.33,0.55,0.42,0.55,0.6,0.4,0.44,0.48,0.55,0.29,0.58,0.33,0.48,0.58,0.42,0.29,0.33,0.56,0.25,0.55,0.79" style="fill:rgb(0,0,0);font-family:URWPalladioL-Roma;font-size:9.96px;stroke:none;">deﬁnes heat source intensity, Q</text>
   <text y="725.863" x="262.917" svgx:width="0.5" style="fill:rgb(0,0,0);font-family:URWPalladioL-Roma;font-size:7.57px;stroke:none;">0</text>
   <text y="723.998" x="270.19,274.021,278.889,284.996,288.837,293.704,298.013,302.881,308.795,312.108,316.2912,319.404,322.717,328.631,333.41179999999997,336.486,345.459,350.54,355.783,358.74,367.713,373.841,382.6058,385.801,388.758,394.673,397.985,402.853,408.767,413.076,416.033,419.346,423.888,426.378,429.548,438.023,443.937,446.894,449.851,454.6318,457.707" svgx:width="0.4,0.48,0.6,0.4,0.48,0.42,0.48,0.58,0.33,0.42,0.55,0.33,0.58,0.48,0.55,0.88,0.5,0.52,0.29,0.88,0.6,0.88,0.55,0.29,0.58,0.33,0.48,0.58,0.42,0.29,0.33,0.56,0.25,0.55,0.83,0.58,0.29,0.29,0.48,0.55,0.4" style="fill:rgb(0,0,0);font-family:URWPalladioL-Roma;font-size:9.96px;stroke:none;">represents the maximum intensity, while r</text>
   <text y="725.492" x="461.72" svgx:width="0.55" style="fill:rgb(0,0,0);font-family:URWPalladioL-Roma;font-size:7.57px;stroke:none;">o</text>
   <text y="723.998" x="469.342,475.551,480.418,486.566,492.481,497.348,501.5312,504.644,507.957,513.871" svgx:width="0.61,0.48,0.61,0.58,0.48,0.42,0.55,0.33,0.58,0.48" style="fill:rgb(0,0,0);font-family:URWPalladioL-Roma;font-size:9.96px;stroke:none;">deﬁnes the</text>
   <text y="737.507" x="76.535,82.542,88.53,94.518,99.29,103.274,105.715,110.697,116.495,122.5706,125.073,128.321,134.119,138.8998,141.382,144.281,149.72,158.029,162.801,166.785,169.227,173.162,178.144,184.231,187.13,193.137,197.3202,199.852,202.751,208.5278,211.04,214.288,220.086,224.8668,227.349,233.356,239.344,245.331,250.103,254.08700000000002,256.529,262.517,265.416,270.397,276.195,280.9758,283.458,288.439,291.72580000000005,294.178" svgx:width="0.6,0.6,0.6,0.48,0.4,0.55,0.5,0.58,0.61,0.55,0.33,0.58,0.48,0.55,0.29,0.55,0.83,0.48,0.4,0.55,0.4,0.5,0.61,0.29,0.6,0.42,0.55,0.29,0.58,0.55,0.33,0.58,0.48,0.55,0.6,0.6,0.6,0.48,0.4,0.55,0.6,0.29,0.5,0.58,0.48,0.55,0.5,0.33,0.55,0.5" style="fill:rgb(0,0,0);font-family:URWPalladioL-Roma;font-size:9.96px;stroke:none;">upper and the lower radius in the upper plane at z</text>
   <text y="737.507" x="301.648" svgx:width="0.67" style="fill:rgb(0,0,0);font-family:Rpxr;font-size:9.96px;stroke:none;">=</text>
   <text y="737.507" x="310.804" svgx:width="0.5" style="fill:rgb(0,0,0);font-family:URWPalladioL-Roma;font-size:9.96px;stroke:none;">z</text>
   <text y="739.002" x="315.785" svgx:width="0.6" style="fill:rgb(0,0,0);font-family:URWPalladioL-Roma;font-size:7.57px;stroke:none;">u</text>
   <text y="737.507" x="323.34,328.321,334.12,340.1956,342.697,345.596,351.3728,353.885,357.133,362.931,367.7118,370.194,373.093,378.533,386.842,391.614,395.59799999999996,398.04,404.027,406.926,411.908,417.706,422.4868,424.969,429.95,433.2368,435.688" svgx:width="0.5,0.58,0.61,0.55,0.29,0.58,0.55,0.33,0.58,0.48,0.55,0.29,0.55,0.83,0.48,0.4,0.55,0.6,0.29,0.5,0.58,0.48,0.55,0.5,0.33,0.55,0.5" style="fill:rgb(0,0,0);font-family:URWPalladioL-Roma;font-size:9.96px;stroke:none;">and in the lower plane at z</text>
   <text y="737.507" x="443.159" svgx:width="0.67" style="fill:rgb(0,0,0);font-family:Rpxr;font-size:9.96px;stroke:none;">=</text>
   <text y="737.507" x="452.315" svgx:width="0.5" style="fill:rgb(0,0,0);font-family:URWPalladioL-Roma;font-size:9.96px;stroke:none;">z</text>
   <text y="739.372" x="457.296" svgx:width="0.29" style="fill:rgb(0,0,0);font-family:URWPalladioL-Roma;font-size:7.57px;stroke:none;">l</text>
   <text y="737.507" x="459.997,462.487,464.978,468.734,473.506,477.73,483.718,488.49,492.913,496.161,499.06,504.689,509.461,512.36,516.794" svgx:width="0.25,0.55,0.4,0.48,0.42,0.6,0.48,0.44,0.33,0.29,0.56,0.48,0.29,0.56,0.25" style="fill:rgb(0,0,0);font-family:URWPalladioL-Roma;font-size:9.96px;stroke:none;">, respectively.</text>
   <text y="751.017" x="97.795,103.902,109.7,114.4808,116.963,120.898,125.88,131.967,134.866,140.873,145.0562,147.588,151.572,154.014,156.913,161.0962,163.628,169.167,172.066,177.695,182.467,188.24380000000002,190.756,196.265" svgx:width="0.61,0.58,0.48,0.55,0.4,0.5,0.61,0.29,0.6,0.42,0.55,0.4,0.55,0.29,0.42,0.55,0.56,0.29,0.56,0.48,0.58,0.55,0.55,0.56" style="fill:rgb(0,0,0);font-family:URWPalladioL-Roma;font-size:9.96px;stroke:none;">The radius r is given by</text>
   <text y="768.707" x="266.629" svgx:width="0.4" style="fill:rgb(0,0,0);font-family:URWPalladioL-Roma;font-size:9.96px;stroke:none;">r</text>
   <text y="768.707" x="273.456" svgx:width="0.78" style="fill:rgb(0,0,0);font-family:CMR10;font-size:10.38px;stroke:none;">=</text>
   <text y="756.003" code="113" x="286.078" svgx:width="0.87" style="fill:rgb(0,0,0);font-family:Pxex;font-size:9.96px;stroke:none;">?</text>
  </g>
  <path style="fill:none;stroke:rgb(0,0,0);stroke-width:0.59;" d="M294.710 755.710 L326.160 755.710 "/>
  <g begin="text">
   <text y="768.707" x="294.715" svgx:width="0.52" style="fill:rgb(0,0,0);font-family:URWPalladioL-Roma;font-size:9.96px;stroke:none;">x</text>
   <text y="765.828" x="299.856" svgx:width="0.5" style="fill:rgb(0,0,0);font-family:URWPalladioL-Roma;font-size:7.57px;stroke:none;">2</text>
   <text y="768.707" x="306.202" svgx:width="0.78" style="fill:rgb(0,0,0);font-family:CMR10;font-size:10.38px;stroke:none;">+</text>
   <text y="768.707" x="316.333" svgx:width="0.56" style="fill:rgb(0,0,0);font-family:URWPalladioL-Roma;font-size:9.96px;stroke:none;">y</text>
   <text y="765.828" x="321.872" svgx:width="0.5" style="fill:rgb(0,0,0);font-family:URWPalladioL-Roma;font-size:7.57px;stroke:none;">2</text>
   <text y="768.707" x="326.156,328.646,507.127,510.444,515.425" svgx:width="0.25,0.55,0.33,0.5,0.33" style="fill:rgb(0,0,0);font-family:URWPalladioL-Roma;font-size:9.96px;stroke:none;">. (2)</text>
  </g>
 </g>
</svg>
