<?xml version="1.0" encoding="UTF-8"?>
<svg height="809.37" width="2868.178" xmlns="http://www.w3.org/2000/svg">
 <g id="page" xmlns:svgx="http://www.xml-cml.org/schema/svgx">
  <g begin="text">
   <text y="72.695" x="114.903,134.016,146.3,153.13,164.038,173.595,180.425,192.709,199.538" svgx:width="0.78,0.5,0.28,0.44,0.39,0.28,0.5,0.28,0.39" style="fill:rgb(147,95,47);font-family:TimesNewRomanPS-BoldItalicMT;font-size:24.57px;stroke:none;">materials</text>
  </g>
  <path style="fill:rgb(191,163,143);stroke:none;stroke-width:1.0;" d="M110.450 75.570 L110.500 53.630 L110.450 75.570 ZM76.570 49.300 L76.570 83.250 L110.570 83.250 L110.570 49.300 L76.570 49.300 "/>
  <path style="fill:rgb(147,95,47);stroke:none;stroke-width:1.0;" d="M109.810 49.300 L76.540 73.670 L76.540 75.150 L110.520 50.260 L110.520 49.300 L109.810 49.300 "/>
  <path style="fill:rgb(147,95,47);stroke:none;stroke-width:1.0;" d="M93.840 71.200 C93.840 73.060 92.620 74.560 91.110 74.560 L88.840 74.560 C87.330 74.560 86.110 73.060 86.110 71.200 L86.110 67.650 C86.110 65.790 87.330 64.290 88.840 64.290 L91.110 64.290 C92.620 64.290 93.840 65.790 93.840 67.650 L93.840 71.200 "/>
  <path style="fill:rgb(147,95,47);stroke:none;stroke-width:1.0;" d="M90.000 64.230 C91.930 64.230 93.490 65.160 93.490 66.310 C93.490 67.460 91.930 68.390 90.000 68.390 C88.070 68.390 86.510 67.460 86.510 66.310 C86.510 65.160 88.070 64.230 90.000 64.230 "/>
  <path style="fill:none;stroke:rgb(191,163,143);stroke-width:1.0;" d="M90.000 64.230 C91.930 64.230 93.490 65.160 93.490 66.310 C93.490 67.460 91.930 68.390 90.000 68.390 C88.070 68.390 86.510 67.460 86.510 66.310 C86.510 65.160 88.070 64.230 90.000 64.230 Z"/>
  <path style="fill:rgb(147,95,47);stroke:none;stroke-width:0.63;" d="M84.090 79.970 C84.090 81.780 82.900 83.250 81.430 83.250 L79.200 83.250 C77.730 83.250 76.540 81.780 76.540 79.970 L76.540 76.500 C76.540 74.680 77.730 73.210 79.200 73.210 L81.430 73.210 C82.900 73.210 84.090 74.680 84.090 76.500 L84.090 79.970 "/>
  <path style="fill:rgb(147,95,47);stroke:none;stroke-width:0.63;" d="M80.340 73.150 C82.230 73.150 83.750 74.060 83.750 75.190 C83.750 76.310 82.230 77.220 80.340 77.220 C78.460 77.220 76.930 76.310 76.930 75.190 C76.930 74.060 78.460 73.150 80.340 73.150 "/>
  <path style="fill:none;stroke:rgb(191,163,143);stroke-width:0.63;" d="M80.340 73.150 C82.230 73.150 83.750 74.060 83.750 75.190 C83.750 76.310 82.230 77.220 80.340 77.220 C78.460 77.220 76.930 76.310 76.930 75.190 C76.930 74.060 78.460 73.150 80.340 73.150 Z"/>
  <path style="fill:rgb(147,95,47);stroke:none;stroke-width:0.63;" d="M103.810 61.650 C103.810 63.500 102.590 65.010 101.080 65.010 L98.810 65.010 C97.300 65.010 96.080 63.500 96.080 61.650 L96.080 58.100 C96.080 56.240 97.300 54.730 98.810 54.730 L101.080 54.730 C102.590 54.730 103.810 56.240 103.810 58.100 L103.810 61.650 "/>
  <path style="fill:rgb(147,95,47);stroke:none;stroke-width:0.63;" d="M99.970 54.670 C101.900 54.670 103.460 55.610 103.460 56.750 C103.460 57.900 101.900 58.840 99.970 58.840 C98.040 58.840 96.480 57.900 96.480 56.750 C96.480 55.610 98.040 54.670 99.970 54.670 "/>
  <path style="fill:none;stroke:rgb(191,163,143);stroke-width:0.63;" d="M99.970 54.670 C101.900 54.670 103.460 55.610 103.460 56.750 C103.460 57.900 101.900 58.840 99.970 58.840 C98.040 58.840 96.480 57.900 96.480 56.750 C96.480 55.610 98.040 54.670 99.970 54.670 Z"/>
  <path style="fill:rgb(147,95,47);stroke:none;stroke-width:0.63;" d="M94.940 79.960 C94.940 81.780 93.720 83.250 92.210 83.250 L89.940 83.250 C88.430 83.250 87.210 81.780 87.210 79.960 L87.210 76.480 C87.210 74.660 88.430 73.180 89.940 73.180 L92.210 73.180 C93.720 73.180 94.940 74.660 94.940 76.480 L94.940 79.960 "/>
  <path style="fill:rgb(147,95,47);stroke:none;stroke-width:0.63;" d="M91.100 73.130 C93.030 73.130 94.590 74.040 94.590 75.170 C94.590 76.290 93.030 77.210 91.100 77.210 C89.170 77.210 87.610 76.290 87.610 75.170 C87.610 74.040 89.170 73.130 91.100 73.130 "/>
  <path style="fill:none;stroke:rgb(191,163,143);stroke-width:0.63;" d="M91.100 73.130 C93.030 73.130 94.590 74.040 94.590 75.170 C94.590 76.290 93.030 77.210 91.100 77.210 C89.170 77.210 87.610 76.290 87.610 75.170 C87.610 74.040 89.170 73.130 91.100 73.130 Z"/>
  <path style="fill:rgb(147,95,47);stroke:none;stroke-width:0.63;" d="M104.970 71.250 C104.970 73.110 103.750 74.620 102.240 74.620 L99.970 74.620 C98.460 74.620 97.240 73.110 97.240 71.250 L97.240 67.700 C97.240 65.840 98.460 64.340 99.970 64.340 L102.240 64.340 C103.750 64.340 104.970 65.840 104.970 67.700 L104.970 71.250 "/>
  <path style="fill:rgb(147,95,47);stroke:none;stroke-width:0.63;" d="M101.130 64.280 C103.060 64.280 104.620 65.210 104.620 66.360 C104.620 67.510 103.060 68.440 101.130 68.440 C99.200 68.440 97.640 67.510 97.640 66.360 C97.640 65.210 99.200 64.280 101.130 64.280 "/>
  <path style="fill:none;stroke:rgb(191,163,143);stroke-width:0.63;" d="M101.130 64.280 C103.060 64.280 104.620 65.210 104.620 66.360 C104.620 67.510 103.060 68.440 101.130 68.440 C99.200 68.440 97.640 67.510 97.640 66.360 C97.640 65.210 99.200 64.280 101.130 64.280 Z"/>
  <path style="fill:rgb(147,95,47);stroke:none;stroke-width:0.63;" d="M106.440 79.970 C106.440 81.780 105.220 83.250 103.710 83.250 L101.440 83.250 C99.930 83.250 98.710 81.780 98.710 79.970 L98.710 76.500 C98.710 74.680 99.930 73.210 101.440 73.210 L103.710 73.210 C105.220 73.210 106.440 74.680 106.440 76.500 L106.440 79.970 "/>
  <path style="fill:rgb(147,95,47);stroke:none;stroke-width:0.63;" d="M102.600 73.150 C104.530 73.150 106.090 74.060 106.090 75.190 C106.090 76.310 104.530 77.220 102.600 77.220 C100.670 77.220 99.110 76.310 99.110 75.190 C99.110 74.060 100.670 73.150 102.600 73.150 "/>
  <path style="fill:none;stroke:rgb(191,163,143);stroke-width:0.63;" d="M102.600 73.150 C104.530 73.150 106.090 74.060 106.090 75.190 C106.090 76.310 104.530 77.220 102.600 77.220 C100.670 77.220 99.110 76.310 99.110 75.190 C99.110 74.060 100.670 73.150 102.600 73.150 Z"/>
  <path style="fill:rgb(147,95,47);stroke:none;stroke-width:0.63;" d="M108.210 67.650 L108.210 71.200 C108.210 73.060 109.220 74.570 110.460 74.570 L110.530 74.570 L110.550 64.290 L110.460 64.290 C109.220 64.290 108.210 65.790 108.210 67.650 "/>
  <path style="fill:rgb(147,95,47);stroke:none;stroke-width:0.63;" d="M109.440 54.580 L109.440 54.580 C108.030 54.580 106.900 56.080 106.900 57.940 L106.900 61.490 C106.900 63.350 108.030 64.850 109.440 64.850 L110.500 64.850 L110.540 54.580 L109.440 54.580 "/>
  <path style="fill:rgb(147,95,47);stroke:none;stroke-width:0.63;" d="M106.980 56.810 C106.980 57.960 108.430 58.890 110.230 58.890 C110.230 58.890 110.230 58.890 110.230 58.890 L110.240 54.730 C110.240 54.730 110.230 54.730 110.230 54.730 C108.430 54.730 106.980 55.660 106.980 56.810 "/>
  <path style="fill:none;stroke:rgb(191,163,143);stroke-width:0.63;" d="M106.980 56.810 C106.980 57.960 108.430 58.890 110.230 58.890 C110.230 58.890 110.230 58.890 110.230 58.890 L110.240 54.730 C110.240 54.730 110.230 54.730 110.230 54.730 C108.430 54.730 106.980 55.660 106.980 56.810 Z"/>
  <path style="fill:rgb(147,95,47);stroke:none;stroke-width:0.63;" d="M108.610 66.310 C108.610 67.240 109.290 68.030 110.230 68.290 L110.230 64.330 C109.290 64.590 108.610 65.380 108.610 66.310 "/>
  <path style="fill:none;stroke:rgb(191,163,143);stroke-width:0.63;" d="M108.610 66.310 C108.610 67.240 109.290 68.030 110.230 68.290 L110.230 64.330 C109.290 64.590 108.610 65.380 108.610 66.310 Z"/>
  <path style="fill:rgb(147,95,47);stroke:none;stroke-width:0.63;" d="M109.030 66.310 C109.030 67.220 109.700 67.950 110.570 68.080 L110.560 64.540 C109.690 64.670 109.030 65.410 109.030 66.310 "/>
  <path style="fill:rgb(147,95,47);stroke:none;stroke-width:0.63;" d="M109.570 55.040 C108.340 55.040 107.350 55.840 107.350 56.830 C107.350 57.810 108.340 58.610 109.570 58.610 C109.920 58.610 110.250 58.540 110.540 58.420 L110.550 55.230 C110.250 55.120 109.920 55.040 109.570 55.040 "/>
  <rect style="fill:pink;opacity:0.2;stroke:blue;stroke-width:0.3;" x="476.363" y="13.209" height="27.476" width="41.6" title="1"/>
  <text y="13.209" class="image" id="image.1.1" width="41" height="27" x="476.363,476.363,476.363,476.363" style="font-size:5.0px;">image.1.1.476_518.13_41image.1.2.476_518.13_41image.1.3.476_518.13_41image.1.4.476_518.13_41</text>
  <rect style="fill:pink;opacity:0.2;stroke:blue;stroke-width:0.3;" x="476.363" y="13.209" height="27.476" width="41.6" title="1"/>
  <rect style="fill:pink;opacity:0.2;stroke:blue;stroke-width:0.3;" x="476.363" y="13.209" height="27.476" width="41.6" title="1"/>
  <rect style="fill:pink;opacity:0.2;stroke:blue;stroke-width:0.3;" x="476.363" y="13.209" height="27.476" width="41.6" title="1"/>
  <g begin="text">
   <text y="108.46" x="76.177,83.37,87.245,90.563,93.333,97.387,100.157" svgx:width="0.72,0.39,0.33,0.28,0.41,0.28,0.39" style="fill:rgb(0,0,0);font-family:URWPalladioL-Ital;font-size:9.96px;stroke:none;">Article</text>
   <text y="127.727" x="76.535,87.492,96.458,107.415,116.382,123.358,129.329,145.271,154.238,165.195,171.166,180.133,186.0499,190.588,199.554,210.511,221.4483,225.951,240.889,251.846,267.788,276.755,283.731,289.702,297.664,306.631,312.54789999999997,317.086,328.043,334.014,344.971,355.928,365.9688,370.382,380.352,387.3447,391.812,405.763,412.739,423.696,430.68870000000004,435.155,444.121,453.088,462.054,471.01899999999995,475.504,486.461,492.432,501.399,510.365" svgx:width="0.61,0.5,0.61,0.5,0.39,0.33,0.89,0.5,0.61,0.33,0.5,0.33,0.55,0.5,0.61,0.61,0.55,0.83,0.61,0.89,0.5,0.39,0.33,0.44,0.5,0.33,0.55,0.61,0.33,0.61,0.61,0.56,0.55,0.56,0.39,0.55,0.78,0.39,0.61,0.39,0.55,0.5,0.5,0.5,0.5,0.55,0.61,0.33,0.5,0.5,0.33" style="fill:rgb(0,0,0);font-family:URWPalladioL-Bold;font-size:17.93px;stroke:none;">Experimental and Numerical Study of AISI 4130 Steel</text>
   <text y="147.991" x="76.535,87.492,98.449,105.425,112.401,121.367,129.329,138.294,142.779,157.717,166.683,173.659,184.616,193.582,204.539,210.511,221.468,231.50879999999998,235.922,246.879,256.9198,261.333,272.289,283.246,289.218,297.18,306.147,317.0843,321.587,336.525,347.482,351.965,362.94,376.892,391.77389999999997,396.313,407.27,416.236,424.198,433.165" svgx:width="0.61,0.61,0.39,0.39,0.5,0.44,0.5,0.55,0.83,0.5,0.39,0.61,0.5,0.61,0.33,0.61,0.56,0.55,0.61,0.56,0.55,0.61,0.61,0.33,0.44,0.5,0.61,0.55,0.83,0.61,0.25,0.67,0.78,0.83,0.55,0.61,0.5,0.44,0.5,0.39" style="fill:rgb(0,0,0);font-family:URWPalladioL-Bold;font-size:17.93px;stroke:none;">Surface Hardening by Pulsed Nd:YAG Laser</text>
   <text y="177.683" x="76.535,84.834,88.151,94.239,98.662,103.643,109.73,115.818,120.798,123.289,130.482,135.464,139.887,144.868,148.186,151.504,157.591" svgx:width="0.83,0.33,0.61,0.44,0.5,0.61,0.61,0.5,0.55,0.72,0.5,0.44,0.5,0.33,0.33,0.61,0.56" style="fill:rgb(0,0,0);font-family:URWPalladioL-Bold;font-size:9.96px;stroke:none;">Giuseppe Casalino</text>
   <text y="174.066" x="165.621" svgx:width="0.5" style="fill:rgb(0,0,0);font-family:URWPalladioL-Bold;font-size:7.57px;stroke:none;">1</text>
  </g>
  <path style="fill:rgb(179,201,62);stroke:none;stroke-width:0.63;" d="M476.380 759.350 L517.930 759.350 L517.930 786.740 L476.380 786.740 L476.380 759.350 M488.210 73.600 L488.210 67.020 L486.500 73.600 L484.720 73.600 L482.960 67.020 L482.960 73.600 L480.840 73.600 L480.840 64.400 L484.520 64.400 L485.850 69.290 L487.120 64.400 L490.820 64.400 L490.820 73.600 L488.210 73.600 M499.310 72.310 C498.490 73.170 497.420 73.600 496.110 73.600 L492.400 73.600 L492.400 64.400 L495.940 64.400 C497.480 64.400 498.630 64.860 499.390 65.780 C500.160 66.700 500.540 67.750 500.540 68.960 C500.540 70.330 500.130 71.450 499.310 72.310 M497.180 67.220 C496.890 66.730 496.480 66.490 495.950 66.490 L495.210 66.490 L495.210 71.480 L495.950 71.480 C496.410 71.480 496.800 71.250 497.120 70.800 C497.440 70.350 497.600 69.730 497.600 68.950 C497.600 68.280 497.460 67.700 497.180 67.220 M508.610 69.450 C508.000 69.980 507.190 70.250 506.170 70.250 L504.580 70.250 L504.580 73.600 L501.730 73.600 L501.730 64.400 L505.650 64.400 C506.620 64.400 507.360 64.520 507.870 64.740 C508.380 64.970 508.780 65.310 509.080 65.770 C509.380 66.230 509.530 66.750 509.530 67.330 C509.530 68.200 509.220 68.910 508.610 69.450 M505.580 66.490 L504.550 66.490 L504.550 68.290 L505.490 68.290 C506.310 68.290 506.730 67.980 506.730 67.360 C506.730 66.780 506.350 66.490 505.580 66.490 M510.570 73.600 L510.570 64.400 L513.380 64.400 L513.380 73.600 L510.570 73.600 M476.380 759.350 L517.930 759.350 L517.930 786.740 L476.380 786.740 L476.380 759.350 M517.090 75.980 L517.090 62.890 L517.780 62.410 L517.780 76.450 L517.090 75.980 M507.150 82.560 L507.160 81.750 L517.110 75.980 L517.780 76.440 L507.150 82.560 M496.570 76.420 L497.230 75.950 L507.170 81.750 L507.170 82.560 L496.570 76.420 M515.980 75.580 L507.450 80.510 L507.460 79.700 L515.980 74.790 L515.980 75.580 M476.380 759.350 L517.930 759.350 L517.930 786.740 L476.380 786.740 L476.380 759.350 M477.260 75.030 L476.560 75.500 L476.560 61.460 L477.260 61.930 L477.260 75.030 M487.180 56.150 L477.230 61.920 L476.560 61.460 L487.190 55.340 L487.180 56.150 M497.110 61.950 L487.170 56.150 L487.170 55.340 L497.770 61.490 L497.110 61.950 M486.880 58.200 L478.360 63.120 L478.370 62.330 L486.890 57.390 L486.880 58.200 M476.380 759.350 L517.930 759.350 L517.930 786.740 L476.380 786.740 L476.380 759.350 M178.980 173.150 C178.980 175.650 176.950 177.680 174.440 177.680 C171.940 177.680 169.900 175.650 169.900 173.150 C169.900 170.640 171.940 168.610 174.440 168.610 C176.950 168.610 178.980 170.640 178.980 173.150 "/>
  <path style="fill:rgb(255,255,255);stroke:none;stroke-width:0.63;" d="M174.250 171.800 L174.250 174.810 L174.860 174.810 C175.390 174.810 175.810 174.670 176.110 174.400 C176.400 174.130 176.550 173.750 176.550 173.270 C176.550 172.780 176.400 172.410 176.090 172.170 C175.790 171.920 175.380 171.800 174.890 171.800 L174.250 171.800 ZM173.720 175.250 L173.720 171.350 L174.910 171.350 C175.540 171.350 176.070 171.520 176.490 171.870 C176.910 172.210 177.120 172.670 177.120 173.250 C177.120 173.860 176.910 174.340 176.490 174.710 C176.070 175.070 175.530 175.250 174.860 175.250 L173.720 175.250 "/>
  <path style="fill:rgb(255,255,255);stroke:none;stroke-width:0.63;" d="M172.940 175.260 L172.400 175.260 L172.400 171.360 L172.940 171.360 L172.940 175.260 "/>
  <path style="fill:rgb(255,255,255);stroke:none;stroke-width:0.63;" d="M173.040 170.710 C173.040 170.900 172.880 171.050 172.700 171.050 C172.510 171.050 172.350 170.900 172.350 170.710 C172.350 170.520 172.510 170.370 172.700 170.370 C172.880 170.370 173.040 170.520 173.040 170.710 "/>
  <g begin="text">
   <text y="177.683" x="178.976,181.466,183.957,193.92,198.901,204.988,213.845,219.384,225.471,231.5466,234.049,244.012,249.551,253.426,258.408,264.495" svgx:width="0.25,0.55,1.0,0.5,0.61,0.89,0.56,0.61,0.61,0.55,1.0,0.56,0.39,0.5,0.61,0.33" style="fill:rgb(0,0,0);font-family:URWPalladioL-Bold;font-size:9.96px;stroke:none;">, Mahmoud Moradi</text>
   <text y="174.066" x="270.303,274.589,276.981,281.259" svgx:width="0.5,0.25,0.5,0.25" style="fill:rgb(0,0,0);font-family:URWPalladioL-Bold;font-size:7.57px;stroke:none;">2,3,</text>
   <text y="177.683" x="283.653,288.076,290.56600000000003,293.058,303.02,308.56,311.877,315.195,320.176,326.263,331.243,333.735,341.486,346.467,350.343,355.324,364.181,367.4678,369.989,379.952,385.491,391.03,397.117,402.098,408.186,413.167" svgx:width="0.44,0.25,0.55,1.0,0.56,0.33,0.33,0.5,0.61,0.5,0.55,0.78,0.5,0.39,0.5,0.89,0.33,0.55,1.0,0.56,0.56,0.61,0.5,0.61,0.5,0.89" style="fill:rgb(0,0,0);font-family:URWPalladioL-Bold;font-size:9.96px;stroke:none;">*, Mojtaba Karami Moghadam</text>
   <text y="174.066" x="424.514,428.8,431.192" svgx:width="0.5,0.25,0.5" style="fill:rgb(0,0,0);font-family:URWPalladioL-Bold;font-size:7.57px;stroke:none;">2,3</text>
   <text y="177.683" x="435.473,437.963,440.454,448.205,451.523,454.80980000000005,457.331,465.082,471.169,476.708,480.584,484.459,489.44" svgx:width="0.25,0.55,0.78,0.33,0.33,0.55,0.78,0.61,0.56,0.39,0.39,0.5,0.89" style="fill:rgb(0,0,0);font-family:URWPalladioL-Bold;font-size:9.96px;stroke:none;">, Ali Khorram</text>
   <text y="174.066" x="500.787" svgx:width="0.5" style="fill:rgb(0,0,0);font-family:URWPalladioL-Bold;font-size:7.57px;stroke:none;">4</text>
  </g>
  <path style="fill:rgb(179,201,62);stroke:none;stroke-width:0.63;" d="M514.140 173.150 C514.140 175.650 512.110 177.680 509.610 177.680 C507.100 177.680 505.070 175.650 505.070 173.150 C505.070 170.640 507.100 168.610 509.610 168.610 C512.110 168.610 514.140 170.640 514.140 173.150 "/>
  <path style="fill:rgb(255,255,255);stroke:none;stroke-width:0.63;" d="M509.420 171.800 L509.420 174.810 L510.030 174.810 C510.560 174.810 510.970 174.670 511.270 174.400 C511.570 174.130 511.720 173.750 511.720 173.270 C511.720 172.780 511.560 172.410 511.260 172.170 C510.950 171.920 510.550 171.800 510.050 171.800 L509.420 171.800 ZM508.880 175.250 L508.880 171.350 L510.070 171.350 C510.710 171.350 511.230 171.520 511.650 171.870 C512.070 172.210 512.280 172.670 512.280 173.250 C512.280 173.860 512.070 174.340 511.650 174.710 C511.230 175.070 510.690 175.250 510.030 175.250 L508.880 175.250 "/>
  <path style="fill:rgb(255,255,255);stroke:none;stroke-width:0.63;" d="M508.110 175.260 L507.570 175.260 L507.570 171.360 L508.110 171.360 L508.110 175.260 "/>
  <path style="fill:rgb(255,255,255);stroke:none;stroke-width:0.63;" d="M508.200 170.710 C508.200 170.900 508.050 171.050 507.860 171.050 C507.670 171.050 507.520 170.900 507.520 170.710 C507.520 170.520 507.670 170.370 507.860 170.370 C508.050 170.370 508.200 170.520 508.200 170.710 "/>
  <g begin="text">
   <text y="191.192" x="76.535,81.516,87.603,93.67859999999999,96.181,102.268,107.25,110.567,114.443,117.76,122.742,126.059,131.039,133.531,139.618,144.599,148.475,154.562,157.88,161.197" svgx:width="0.5,0.61,0.61,0.55,0.61,0.5,0.33,0.39,0.33,0.5,0.33,0.5,0.55,0.61,0.5,0.39,0.61,0.33,0.33,0.33" style="fill:rgb(0,0,0);font-family:URWPalladioL-Bold;font-size:9.96px;stroke:none;">and Patrizia Perulli</text>
   <text y="187.576" x="167.006" svgx:width="0.5" style="fill:rgb(0,0,0);font-family:URWPalladioL-Bold;font-size:7.57px;stroke:none;">1</text>
   <text y="206.02" x="82.205" svgx:width="0.5" style="fill:rgb(0,0,0);font-family:URWPalladioL-Roma;font-size:6.97px;stroke:none;">1</text>
   <text y="209.274" x="97.398,104.338,108.633,114.022,118.505,122.047,124.97,132.887,137.182,142.4,145.36010000000002,147.565,152.461,155.42110000000002,157.688,166.17,170.465,174.446,179.665,184.148,189.366,191.976,195.957,199.758,202.00050000000002,204.242,212.724,217.207,220.13,225.349,229.643,237.561,242.044,244.967,247.576,251.557,255.3244,257.601,264.5976,266.818,275.3,279.784,285.002,289.485,294.471,302.388,306.683,311.901,314.824,317.0665,319.307,324.723,329.619,332.228,334.837,337.76,342.055,346.036,351.255,353.864,357.845,362.7785,364.982,370.461,373.0623,375.312,380.79,385.273,388.815,391.424,393.6665,395.907,400.973,403.583,408.066,410.675,414.98060000000004,417.212,420.197,424.681,430.069,432.679,437.664,440.264,444.749,446.989,451.472,455.955,460.439,462.6815,464.922,469.405,473.888,478.372,482.855,487.34000000000003,489.58,495.058,499.541,503.083,505.692" svgx:width="0.77,0.48,0.6,0.5,0.4,0.33,0.88,0.48,0.58,0.33,0.55,0.55,0.33,0.55,0.95,0.48,0.44,0.58,0.5,0.58,0.29,0.44,0.42,0.25,0.55,0.95,0.5,0.33,0.58,0.48,0.88,0.5,0.33,0.29,0.44,0.42,0.55,0.78,0.55,0.95,0.5,0.58,0.5,0.56,0.88,0.48,0.58,0.33,0.25,0.55,0.6,0.55,0.29,0.29,0.33,0.48,0.44,0.58,0.29,0.44,0.55,0.55,0.61,0.29,0.55,0.61,0.5,0.4,0.29,0.25,0.55,0.56,0.29,0.5,0.29,0.48,0.55,0.33,0.5,0.6,0.29,0.56,0.29,0.5,0.55,0.5,0.5,0.5,0.25,0.55,0.5,0.5,0.5,0.5,0.5,0.55,0.61,0.5,0.4,0.29,0.25" style="fill:rgb(0,0,0);font-family:URWPalladioL-Roma;font-size:8.97px;stroke:none;">Department of Mechanics, Mathematics &amp; Managment, Politecnico di Bari, viale Japigia 182, 70124 Bari,</text>
   <text y="221.379" x="97.447,100.469,103.392,107.875,110.484,115.469,117.7115,119.953,124.938,127.547,132.954,136.756,141.051,146.439,151.828,156.123,158.365,162.346,166.829,170.631,175.114,177.723,180.332,185.551,190.447,197.144,202.533,207.429,210.038,212.647,217.606,222.089,224.331,226.94,229.9001,232.104,235.09,241.932,244.173,250.53,252.772,255.758,258.0005,260.241,265.63,270.113,273.036,276.578,279.187,283.67,286.279,290.763,293.004,298.393,302.688,306.158,311.565,314.174,316.783,319.392,326.09,331.479,336.375,338.984,341.593,346.552,351.035,353.276,355.886,358.84610000000004,361.05,364.036,368.295,370.537,374.796,377.037" svgx:width="0.34,0.33,0.5,0.29,0.56,0.25,0.55,0.56,0.29,0.6,0.42,0.48,0.6,0.6,0.48,0.25,0.44,0.5,0.42,0.5,0.29,0.29,0.58,0.55,0.75,0.6,0.55,0.29,0.29,0.55,0.5,0.25,0.29,0.33,0.55,0.33,0.76,0.25,0.71,0.25,0.33,0.25,0.55,0.6,0.5,0.33,0.4,0.29,0.5,0.29,0.5,0.25,0.6,0.48,0.4,0.6,0.29,0.29,0.29,0.75,0.6,0.55,0.29,0.29,0.55,0.5,0.25,0.29,0.33,0.55,0.33,0.6,0.25,0.6,0.25,0.33" style="fill:rgb(0,0,0);font-family:URWPalladioL-Roma;font-size:8.97px;stroke:none;">Italy; giuseppe.casalino@poliba.it (G.C.); patrizia.perulli@poliba.it (P.P.)</text>
   <text y="230.229" x="82.205" svgx:width="0.5" style="fill:rgb(0,0,0);font-family:URWPalladioL-Roma;font-size:6.97px;stroke:none;">2</text>
   <text y="233.484" x="97.398,104.338,108.633,114.022,118.505,122.047,124.97,132.887,137.182,142.4,145.36010000000002,147.565,152.461,155.42110000000002,157.688,166.17,170.465,174.446,179.665,184.148,189.366,191.976,195.957,200.44,203.0413,205.291,210.769,215.988,220.973,223.582,228.801,233.096,237.39,240.932,243.541,248.76,253.745,255.9875,258.228,263.214,267.697,271.678,277.085,279.694,282.617,287.6402,289.844,294.74,297.7001,299.967,305.445,310.664,315.649,318.258,323.477,327.772,332.067,335.608,338.218,343.436,348.421,350.6635,352.905,361.387,365.87,368.479,372.962,377.948,382.243,385.831,388.026,395.002,400.22,402.829,407.895,412.19,415.732,419.534,422.134,425.057,429.047,431.28950000000003,433.53,437.789,440.031,447.079,449.3215,451.562,457.04,461.936,466.6004,468.804,473.287,477.771,482.254,486.737,491.22,494.206,498.689,503.172,507.656,512.139,516.622" svgx:width="0.77,0.48,0.6,0.5,0.4,0.33,0.88,0.48,0.58,0.33,0.55,0.55,0.33,0.55,0.95,0.48,0.44,0.58,0.5,0.58,0.29,0.44,0.5,0.29,0.55,0.61,0.58,0.56,0.29,0.58,0.48,0.48,0.4,0.29,0.58,0.56,0.25,0.55,0.56,0.5,0.44,0.6,0.29,0.33,0.56,0.55,0.55,0.33,0.55,0.61,0.58,0.56,0.29,0.58,0.48,0.48,0.4,0.29,0.58,0.56,0.25,0.55,0.95,0.5,0.29,0.5,0.56,0.48,0.4,0.55,0.78,0.58,0.29,0.56,0.48,0.4,0.42,0.29,0.33,0.56,0.25,0.55,0.6,0.25,0.79,0.25,0.55,0.61,0.55,0.52,0.55,0.5,0.5,0.5,0.5,0.5,0.33,0.5,0.5,0.5,0.5,0.5,0.25" style="fill:rgb(0,0,0);font-family:URWPalladioL-Roma;font-size:8.97px;stroke:none;">Department of Mechanical Engineering, Faculty of Engineering, Malayer University, P.O. Box 65719-95863,</text>
   <text y="245.588" x="97.447,105.929,110.412,113.022,117.505,122.49,126.785,129.663,131.90550000000002,134.147,137.168,140.71,145.193,150.412,152.6545,154.895,162.812,167.708,169.806,172.729,177.212,182.171,186.654,188.895,193.881,201.798,206.694,211.679,216.897,221.381,226.859,231.342,239.26,243.743,248.226,252.709,257.192,263.89,268.876,276.793,281.276,283.885,286.495,288.736,292.717,297.613" svgx:width="0.95,0.5,0.29,0.5,0.56,0.48,0.4,0.25,0.55,0.34,0.4,0.5,0.58,0.25,0.55,0.88,0.55,0.23,0.33,0.5,0.55,0.5,0.25,0.56,0.88,0.55,0.56,0.58,0.5,0.61,0.5,0.88,0.5,0.5,0.5,0.5,0.75,0.56,0.88,0.5,0.29,0.29,0.25,0.44,0.55,0.88" style="fill:rgb(0,0,0);font-family:URWPalladioL-Roma;font-size:8.97px;stroke:none;">Malayer, Iran; mojtaba.kmoghadam1991@gmail.com</text>
   <text y="254.438" x="82.205" svgx:width="0.5" style="fill:rgb(0,0,0);font-family:URWPalladioL-Roma;font-size:6.97px;stroke:none;">3</text>
   <text y="257.693" x="97.398,102.876,107.36,111.161,115.456,119.044,121.24,129.722,134.205,137.128,141.423,144.965,147.574,152.057,154.666,158.4334,160.71,166.125,169.506,174.401,178.383,182.677,186.479,190.281,192.89,198.109,203.1322,205.336,211.325,215.62,219.422,223.717,228.2,231.58,235.561,240.7636,243.021,249.379,253.673,258.892,261.815,265.195,269.49,271.7325,273.973,282.456,286.939,289.548,294.031,299.017,303.311,306.899,309.095,316.071,321.289,323.898,328.964,333.259,336.801,340.603,343.212,346.135,350.125,352.3675,354.608,363.09,367.574,370.183,374.666,379.651,383.946,387.53400000000005,389.729,394.213,398.696,403.179,407.662,412.146,415.131,419.615,424.098,428.581,433.064,437.547,439.78950000000003,442.031,445.052,448.594,453.077" svgx:width="0.61,0.5,0.42,0.48,0.4,0.55,0.95,0.5,0.33,0.48,0.4,0.29,0.5,0.29,0.42,0.55,0.6,0.4,0.55,0.44,0.48,0.42,0.42,0.29,0.58,0.56,0.55,0.67,0.48,0.42,0.48,0.5,0.4,0.44,0.58,0.55,0.71,0.48,0.58,0.33,0.4,0.48,0.25,0.55,0.95,0.5,0.29,0.5,0.56,0.48,0.4,0.55,0.78,0.58,0.29,0.56,0.48,0.4,0.42,0.29,0.33,0.56,0.25,0.55,0.95,0.5,0.29,0.5,0.56,0.48,0.4,0.55,0.5,0.5,0.5,0.5,0.5,0.33,0.5,0.5,0.5,0.5,0.5,0.25,0.55,0.34,0.4,0.5,0.58" style="fill:rgb(0,0,0);font-family:URWPalladioL-Roma;font-size:8.97px;stroke:none;">Laser Materials Processing Research Centre, Malayer University, Malayer 65719-95863, Iran</text>
   <text y="266.543" x="82.205" svgx:width="0.5" style="fill:rgb(0,0,0);font-family:URWPalladioL-Roma;font-size:6.97px;stroke:none;">4</text>
   <text y="269.798" x="97.397,104.323,108.609,113.987,118.462,121.996,124.914,132.815,137.101,142.309,145.2691,147.464,152.35,155.3101,157.575,166.041,170.327,174.3,179.508,183.982,189.19,191.794,195.768,200.242,202.8433,205.083,210.55,215.758,220.734,223.338,228.546,232.832,237.118,240.653,243.257,248.465,253.44,255.6825,257.924,264.42,266.6625,268.894,276.331,278.5735,280.814,285.476,290.362,295.248,299.042,301.64329999999995,303.883,310.845,316.053,318.657,323.713,327.999,331.534,335.328,337.932,340.849,345.87219999999996,348.061,352.947,355.9071,358.173,362.835,367.122,371.095,376.303,381.511,386.397,389.001,393.887,398.862,402.835,405.0775,407.318,411.569,413.806,420.839,423.0815,425.314,430.781,435.667,440.3314,442.53,447.005,451.479,455.953,460.427,464.902,467.881,472.356,476.83,481.304,485.778,488.0205,490.253,494.915,499.201,504.409,507.944,512.418,517.626" svgx:width="0.77,0.48,0.6,0.5,0.4,0.33,0.88,0.48,0.58,0.33,0.55,0.55,0.33,0.55,0.95,0.48,0.44,0.58,0.5,0.58,0.29,0.44,0.5,0.29,0.55,0.61,0.58,0.56,0.29,0.58,0.48,0.48,0.4,0.29,0.58,0.56,0.25,0.55,0.73,0.25,0.55,0.83,0.25,0.55,0.61,0.55,0.55,0.42,0.29,0.55,0.78,0.58,0.29,0.56,0.48,0.4,0.42,0.29,0.33,0.56,0.55,0.55,0.33,0.55,0.61,0.48,0.44,0.58,0.58,0.55,0.29,0.55,0.56,0.56,0.25,0.55,0.6,0.25,0.79,0.25,0.55,0.61,0.55,0.52,0.55,0.5,0.5,0.5,0.5,0.5,0.33,0.5,0.5,0.5,0.5,0.25,0.55,0.61,0.48,0.58,0.4,0.5,0.58,0.25" style="fill:rgb(0,0,0);font-family:URWPalladioL-Roma;font-size:8.97px;stroke:none;">Department of Mechanical Engineering, K. N. Toosi University of Technology, P.O. Box 19395-1999, Tehran,</text>
   <text y="281.902" x="97.447,100.469,104.01,108.494,113.712,115.95450000000001,118.195,122.678,125.288,127.897,132.882,138.101,142.996,146.538,150.08,154.563,162.48,169.178,174.164,182.081,186.564,189.173,191.783,194.024,198.005,202.901" svgx:width="0.34,0.4,0.5,0.58,0.25,0.55,0.5,0.29,0.29,0.56,0.58,0.55,0.4,0.4,0.5,0.88,0.75,0.56,0.88,0.5,0.29,0.29,0.25,0.44,0.55,0.88" style="fill:rgb(0,0,0);font-family:URWPalladioL-Roma;font-size:8.97px;stroke:none;">Iran; alikhorram@ymail.com</text>
   <text y="294.007" x="81.407" svgx:width="0.44" style="fill:rgb(0,0,0);font-family:URWPalladioL-Bold;font-size:8.97px;stroke:none;">*</text>
   <text y="294.007" x="97.447,103.804,108.7,112.242,115.622,119.917,123.719,129.107,134.003,139.221,144.7,148.995,154.213,158.194,162.489,164.7315,167.869,175.786,180.682,184.224,188.707,194.186,196.795,203.493,211.41,215.893,218.502,222.986,227.971,232.266,235.736,241.143,243.384,247.867,251.848,254.09,256.699" svgx:width="0.71,0.55,0.4,0.4,0.48,0.42,0.6,0.55,0.58,0.61,0.48,0.58,0.44,0.48,0.25,0.55,0.88,0.55,0.4,0.5,0.61,0.29,0.75,0.88,0.5,0.29,0.5,0.56,0.48,0.4,0.6,0.25,0.5,0.44,0.25,0.29,0.4" style="fill:rgb(0,0,0);font-family:URWPalladioL-Roma;font-size:8.97px;stroke:none;">Correspondence: moradi@malayeru.ac.ir</text>
   <text y="320.011" x="82.205,88.195,92.489,96.471,100.765,103.375,108.441,112.736,118.214,120.4565,123.594,128.079,130.319,137.295,142.701,147.687,153.093,156.895,159.85510000000002,162.06,166.543,171.026,175.509,179.993,182.2355,184.476,191.452,195.433,199.414,203.709,209.098,212.021,216.315,221.794,224.03650000000002,227.174,231.657,236.14200000000002,238.382,243.089,247.384,252.773,255.696,259.991,267.908,272.867,277.161,280.749,282.945,287.428,291.911,296.394,300.878,303.1205,305.361,310.777,316.183,321.142,323.751,326.36,330.162,335.38,339.675,345.154,347.3965,350.534,355.017,359.502,361.742,366.449,370.744,376.133,379.056,383.351,391.268,396.226,400.521,404.10900000000004,406.305,410.788,415.271,419.754" svgx:width="0.67,0.48,0.44,0.48,0.29,0.56,0.48,0.61,0.25,0.55,0.5,0.55,0.78,0.6,0.56,0.6,0.42,0.33,0.55,0.5,0.5,0.5,0.5,0.25,0.55,0.78,0.44,0.44,0.48,0.6,0.33,0.48,0.61,0.25,0.55,0.5,0.5,0.55,0.52,0.48,0.6,0.33,0.48,0.88,0.55,0.48,0.4,0.55,0.5,0.5,0.5,0.5,0.25,0.55,0.6,0.6,0.55,0.29,0.29,0.42,0.58,0.48,0.61,0.25,0.55,0.5,0.5,0.55,0.52,0.48,0.6,0.33,0.48,0.88,0.55,0.48,0.4,0.55,0.5,0.5,0.5,0.5" style="fill:rgb(0,0,0);font-family:URWPalladioL-Roma;font-size:8.97px;stroke:none;">Received: 8 August 2019; Accepted: 23 September 2019; Published: 26 September 2019</text>
  </g>
  <path style="fill:rgb(255,207,0);stroke:none;stroke-width:0.63;" d="M477.390 316.430 L475.250 318.570 L469.500 312.820 L471.640 310.680 L475.250 314.290 L482.590 306.950 C481.080 304.990 478.700 303.730 476.030 303.730 C471.450 303.730 467.740 307.440 467.740 312.020 C467.740 316.590 471.450 320.300 476.030 320.300 C480.610 320.300 484.320 316.590 484.320 312.020 C484.320 311.250 484.210 310.510 484.020 309.800 L477.390 316.430 "/>
  <g begin="text">
   <text y="311.088" code="1" x="487.076,490.658,494.948,498.979,502.561,506.671,508.458,510.68,514.915" svgx:width="0.46,0.54,0.5,0.46,0.5,0.2,0.29,0.54,0.35" style="fill:rgb(4,5,8);font-family:SourceSansRoman-Regular;font-size:7.87px;stroke:none;">?????????</text>
   <text y="311.088" code="1" x="517.85" svgx:width="0.2" style="fill:rgb(4,5,8);font-family:SourceSansRoman.613wght;font-size:6.99px;stroke:none;">?</text>
   <text y="318.238" code="1" x="487.076,491.858,496.861,501.682,506.142,509.467,514.071" svgx:width="0.57,0.57,0.57,0.53,0.38,0.52,0.44" style="fill:rgb(4,5,8);font-family:SourceSansRoman-Bold;font-size:7.87px;stroke:none;">???????</text>
  </g>
  <g begin="text">
   <text y="344.143" x="81.816,89.567,95.654,100.077,103.395,107.27,112.252,116.675,119.993" svgx:width="0.78,0.61,0.44,0.33,0.39,0.5,0.44,0.33,0.25" style="fill:rgb(0,0,0);font-family:URWPalladioL-Bold;font-size:9.96px;stroke:none;">Abstract:</text>
   <text y="344.143" x="125.847,131.812,136.694,140.834,145.51,149.494,151.612,155.752,161.639,165.496,168.747,173.629,177.964,182.7448,184.886,188.069,191.925,196.807,202.489,206.629,209.88,215.211,219.067,227.688,232.57,235.753,238.594,243.925,249.70180000000002,251.853,257.535,262.417,266.098,272.063,276.74,282.422,285.263,290.945,296.5226,298.619,301.87,307.836,312.962,318.947,327.07,330.3568,332.566,337.897,341.1838,343.394,350.99,354.28,359.406,362.7924,364.942,369.823,374.705,379.587,384.567,386.714,394.857,399.738,403.9212,406.124,408.965,414.647,420.163,424.84,428.979,432.162,435.003,440.432,445.314,448.496,453.173,459.2486,461.384,466.783,472.36060000000003,474.457,479.437,481.584,489.698,495.663,498.104,503.698,511.294" svgx:width="0.61,0.5,0.42,0.48,0.4,0.55,0.42,0.6,0.4,0.33,0.5,0.44,0.48,0.55,0.33,0.4,0.5,0.58,0.42,0.33,0.55,0.4,0.88,0.5,0.33,0.29,0.55,0.58,0.55,0.58,0.5,0.4,0.61,0.48,0.58,0.29,0.58,0.56,0.55,0.33,0.61,0.52,0.61,0.83,0.33,0.55,0.55,0.33,0.55,0.78,0.34,0.52,0.34,0.55,0.5,0.5,0.5,0.5,0.55,0.83,0.5,0.42,0.55,0.29,0.58,0.56,0.48,0.42,0.33,0.29,0.56,0.5,0.33,0.48,0.61,0.55,0.55,0.56,0.55,0.5,0.55,0.83,0.61,0.25,0.67,0.78,0.76" style="fill:rgb(0,0,0);font-family:URWPalladioL-Roma;font-size:9.96px;stroke:none;">Laser surface transformation hardening (LSTH) of AISI 4130 was investigated by a Nd:YAG</text>
   <text y="357.653" x="81.906,88.013,94.141,97.098,101.407,106.274,112.3496,115.156,118.113,123.194,127.502,132.37,135.652,138.142,142.237,148.446,153.527,157.835,162.703,166.687,169.389,172.773,178.322,182.834,187.914,190.80239999999998,193.554,199.468,204.336,207.293,212.943,218.857,222.1438,224.843,228.226,234.435,240.085,248.54,251.924,254.41400000000002,257.137,263.244,269.372,272.329,276.638,281.4188,284.188,292.663,295.62,301.829,305.142,310.9188,313.728,317.112,323.321,329.459,339.621,343.005,345.495,348.228,352.536,357.048,362.129,368.043,373.958,376.915,382.829,388.4066,391.151,395.46,401.567,406.435,411.302,417.37760000000003,420.184,423.568,429.777,435.112,440.447,443.831,446.321,449.054,454.135,460.049,466.1246,468.93,475.038,480.586,489.061,493.928,497.912,500.625,504.009,510.218,516.356" svgx:width="0.6,0.6,0.29,0.42,0.48,0.61,0.55,0.29,0.5,0.42,0.48,0.4,0.25,0.55,0.61,0.5,0.42,0.48,0.4,0.55,0.33,0.55,0.44,0.5,0.29,0.55,0.58,0.48,0.29,0.56,0.58,0.33,0.55,0.33,0.61,0.56,0.83,0.33,0.25,0.55,0.6,0.6,0.29,0.42,0.48,0.55,0.83,0.29,0.61,0.33,0.58,0.55,0.33,0.61,0.6,1.0,0.33,0.25,0.55,0.42,0.44,0.5,0.58,0.58,0.29,0.58,0.56,0.55,0.42,0.6,0.48,0.48,0.61,0.55,0.33,0.61,0.52,0.52,0.33,0.25,0.55,0.5,0.58,0.61,0.55,0.6,0.55,0.83,0.48,0.4,0.55,0.33,0.61,0.6,0.33" style="fill:rgb(0,0,0);font-family:URWPalladioL-Roma;font-size:9.96px;stroke:none;">pulsed laser. Laser focal height (LFH), pulse width (LPW), scanning speed (LSS), and power (LP)</text>
   <text y="371.162" x="81.926,87.561,92.547,96.486,99.388,104.165,110.2406,112.761,118.854,124.868,128.807,131.709,137.513,143.0906,145.561,148.812,154.616,159.3968,161.896,166.673,171.819,177.812,182.589,186.528,189.43,198.236,203.013,208.817,212.068,216.296,218.786,222.31,228.423,234.227,239.0078,241.507,250.313,253.215,257.643,261.402,266.847,271.076,274.327,278.186,284.199,288.627,291.868,297.882,301.651,306.4318,308.921,314.366,317.6528,320.19,323.441,329.246,334.0268,336.526,339.777,343.536,348.313,353.299,356.55,361.327,367.4026,369.924,374.91,380.355,386.159,390.9398,393.439,401.756,406.742,410.9252,413.474,417.902,423.706,428.692,432.631,437.617,442.045,445.296,450.073,454.012,456.914,461.9,466.677,472.75260000000003,475.274,480.789,486.3666,488.836,494.281,500.275,503.526,506.428,510.856,515.842" svgx:width="0.56,0.5,0.4,0.29,0.48,0.61,0.55,0.61,0.6,0.4,0.29,0.58,0.56,0.55,0.33,0.58,0.48,0.55,0.48,0.52,0.6,0.48,0.4,0.29,0.88,0.48,0.58,0.33,0.42,0.25,0.55,0.61,0.58,0.48,0.55,0.88,0.29,0.44,0.4,0.55,0.42,0.33,0.4,0.6,0.44,0.33,0.6,0.4,0.48,0.55,0.55,0.33,0.55,0.33,0.58,0.48,0.55,0.33,0.4,0.48,0.5,0.33,0.48,0.61,0.55,0.5,0.55,0.58,0.48,0.55,0.83,0.5,0.42,0.55,0.44,0.58,0.5,0.4,0.5,0.44,0.33,0.48,0.4,0.29,0.5,0.48,0.61,0.55,0.55,0.56,0.55,0.55,0.6,0.33,0.29,0.44,0.5,0.29" style="fill:rgb(0,0,0);font-family:URWPalladioL-Roma;font-size:9.96px;stroke:none;">varied during the experiments. The microstructure of the treated zone was characterized by optical</text>
   <text y="384.672" x="81.876,85.127,92.801,102.037,105.3238,107.485,112.367,118.049,124.1246,126.211,132.118,136.795,139.636,145.7116,147.798,152.475,161.096,163.937,168.077,172.216,175.048,180.378,186.1548,188.257,192.397,196.732,201.614,207.296,212.978,215.819,221.502,227.0796,229.127,233.803,236.645,241.321,245.656,248.839,252.52,257.851,263.6278,265.73,274.351,277.192,281.527,285.198,290.529,294.668,299.003,304.334,310.202,315.7796,317.827,321.078,326.506,332.472,337.598,343.563,352.799,356.05,358.54,360.688,369.924,372.765,377.1,380.781,386.112,389.363,395.045,399.927,403.598,409.563,415.245,419.922,424.062,428.2452,430.398,438.541,443.422,447.6052,449.759,458.38,463.057,467.938,472.078,477.965,481.646,486.323,492.3986,494.475,497.316,503.09279999999995,505.195,508.378,514.06" svgx:width="0.33,0.79,0.95,0.33,0.55,0.5,0.58,0.61,0.55,0.61,0.48,0.29,0.61,0.55,0.48,0.88,0.29,0.42,0.42,0.29,0.55,0.58,0.55,0.42,0.44,0.5,0.58,0.58,0.29,0.58,0.56,0.55,0.48,0.29,0.48,0.44,0.33,0.4,0.55,0.58,0.55,0.88,0.29,0.44,0.4,0.55,0.42,0.44,0.55,0.6,0.56,0.55,0.33,0.56,0.61,0.52,0.61,0.95,0.33,0.25,0.55,0.95,0.29,0.44,0.4,0.55,0.33,0.58,0.5,0.4,0.61,0.58,0.48,0.42,0.42,0.55,0.83,0.5,0.42,0.55,0.88,0.48,0.5,0.42,0.6,0.4,0.48,0.61,0.55,0.29,0.58,0.55,0.33,0.58,0.48" style="fill:rgb(0,0,0);font-family:URWPalladioL-Roma;font-size:9.96px;stroke:none;">(OM) and ﬁeld emission scanning electron microscopy (FESEM). Micro-hardness was measured in the</text>
   <text y="398.181" x="81.786,89.929,92.77,98.735,101.918,107.6948,110.041,114.923,120.605,126.6806,129.011,134.977,139.653,145.521,148.704,154.48080000000002,156.837,162.802,165.643,169.314,173.991,178.326,181.509,184.35,189.681,195.363,199.503,201.993,205.419,211.941,216.618,220.758,226.645,229.486,232.669,236.8522,239.249,243.389,249.071,254.402,262.545,267.221,273.2966,275.628,278.81,284.493,289.374,292.66080000000005,294.998,298.181,303.863,308.6438,310.981,316.663,321.545,325.225,331.191,336.873,341.55,345.689,349.8722,352.27,357.152,362.834,368.9096,371.24,377.205,381.882,387.75,390.933,396.7098,399.066,404.396,407.68280000000004,410.088,415.771,420.652,424.323,430.289,434.965,440.648,445.324,451.3996,453.74,456.581,461.463,466.892,471.568,475.55199999999996,477.866,480.707,486.389,490.724,494.405,499.072,503.953,508.093,512.77" svgx:width="0.83,0.29,0.61,0.33,0.58,0.55,0.5,0.58,0.61,0.55,0.61,0.48,0.6,0.33,0.58,0.55,0.61,0.29,0.4,0.48,0.44,0.33,0.29,0.55,0.58,0.42,0.25,0.55,0.67,0.48,0.42,0.6,0.29,0.33,0.42,0.55,0.42,0.58,0.55,0.83,0.48,0.61,0.55,0.33,0.58,0.5,0.33,0.55,0.33,0.58,0.48,0.55,0.58,0.5,0.4,0.61,0.58,0.48,0.42,0.42,0.55,0.5,0.58,0.61,0.55,0.61,0.48,0.6,0.33,0.58,0.55,0.55,0.33,0.55,0.58,0.5,0.4,0.61,0.48,0.58,0.48,0.61,0.55,0.29,0.5,0.56,0.48,0.4,0.55,0.29,0.58,0.44,0.4,0.48,0.5,0.42,0.48,0.61" style="fill:rgb(0,0,0);font-family:URWPalladioL-Roma;font-size:9.96px;stroke:none;">width and depth directions. Results showed that the hardness and depth of hardened layer increased</text>
   <text y="411.69" x="82.205,87.825,93.4026,96.513,102.722,107.589,112.101,115.942,120.81,125.891,130.199,133.157,139.071,144.6486,147.759,151.072,156.986,161.7668,164.902,171.111,176.446,181.6252,184.819,189.9,195.815,201.8906,205.072,208.385,214.299,219.0798,222.205,225.162,230.243,234.551,239.419,243.40300000000002,246.481,249.865,255.414,259.926,265.007,267.8954,271.012,277.119,282.668,286.976,289.923,293.236,296.193,301.742,307.5188,310.704,314.088,320.297,325.947,332.085,335.469,337.959,341.058,346.139,352.053,358.1286,361.3,366.92,372.49760000000003,375.618,378.575,384.49,389.001,392.832,397.7,402.781,407.09,410.047,415.961,421.53860000000003,424.649,427.962,433.876,438.6568,441.792,448.001,454.139,463.386,465.87600000000003,468.965,475.194,481.108,485.8888,489.025,492.856,497.723,502.032,508.159,511.116,514.429" svgx:width="0.55,0.56,0.55,0.61,0.48,0.44,0.4,0.48,0.5,0.42,0.29,0.58,0.56,0.55,0.33,0.58,0.48,0.55,0.61,0.52,0.52,0.55,0.5,0.58,0.61,0.55,0.33,0.58,0.48,0.55,0.29,0.5,0.42,0.48,0.4,0.55,0.33,0.55,0.44,0.5,0.29,0.55,0.6,0.55,0.42,0.29,0.33,0.29,0.55,0.58,0.55,0.33,0.61,0.56,0.6,0.33,0.25,0.55,0.5,0.58,0.61,0.55,0.55,0.56,0.55,0.29,0.58,0.44,0.4,0.48,0.5,0.42,0.29,0.58,0.56,0.55,0.33,0.58,0.48,0.55,0.61,0.6,1.0,0.25,0.55,0.61,0.58,0.48,0.55,0.4,0.48,0.42,0.6,0.29,0.33,0.42" style="fill:rgb(0,0,0);font-family:URWPalladioL-Roma;font-size:9.96px;stroke:none;">by decreasing the LSS and the laser focal position (LFP), and by increasing the LPW. The results</text>
   <text y="425.2" x="81.786,90.095,94.867,98.623,103.4038,105.876,110.299,115.739,124.536,130.523,135.504,139.26,144.032,150.10760000000002,152.6,160.909,163.808,167.056,172.83280000000002,175.335,178.583,184.381,189.82,194.045,198.8258,201.297,206.737,212.246,215.494,220.475,223.374,229.173,233.945,240.0206,242.513,248.022,253.59959999999998,256.032,259.349,265.357,269.292,275.09,280.072,284.495,289.2758,291.748,297.546,302.318,307.299,310.5858,313.028,316.276,320.032,324.804,329.785,333.033,341.83,346.602,352.4,355.6868,358.129,363.568,366.8548,369.366,372.614,378.412,383.1928,385.665,389.889,394.871,403.668,408.4488,410.92,415.144,418.392,423.164,427.936,430.836,433.326,436.803,442.89,448.519,453.291,459.09,462.337,468.345,473.326,476.225,479.124,483.558,486.048,488.539,493.519,495.991,502.018,507.817,510.716,513.964" svgx:width="0.83,0.48,0.4,0.48,0.55,0.44,0.55,0.88,0.6,0.5,0.4,0.48,0.61,0.55,0.83,0.29,0.33,0.58,0.55,0.33,0.58,0.55,0.42,0.48,0.55,0.55,0.55,0.33,0.5,0.29,0.58,0.48,0.61,0.55,0.55,0.56,0.55,0.33,0.6,0.4,0.58,0.5,0.44,0.48,0.55,0.58,0.48,0.5,0.33,0.55,0.33,0.4,0.48,0.5,0.33,0.88,0.48,0.58,0.33,0.55,0.55,0.33,0.55,0.33,0.58,0.48,0.55,0.42,0.5,0.88,0.48,0.55,0.42,0.33,0.48,0.48,0.29,0.25,0.55,0.61,0.56,0.48,0.58,0.33,0.6,0.5,0.29,0.29,0.56,0.25,0.55,0.5,0.55,0.61,0.58,0.29,0.33,0.48" style="fill:rgb(0,0,0);font-family:URWPalladioL-Roma;font-size:9.96px;stroke:none;">were compared with those obtained by furnace heat treatment of the same steel. Eventually, a ﬁnite</text>
   <text y="438.709" x="82.205,87.073,90.03,94.897,103.87,108.738,114.652,117.9388,120.464,129.437,134.986,141.195,146.062,148.9504,151.519,159.994,165.075,169.2582,171.883,176.751,185.724,191.831,194.788,200.337,205.987,210.854,216.92960000000002,219.563,222.947,228.495,232.479,235.009,238.322,244.236,249.0168,251.603,255.912,258.869,267.842,273.969,276.926,282.007,285.32,288.277,293.826,299.6028,302.24,307.788,311.07480000000004,313.672,316.984,322.899,327.6798,330.266,336.475,341.81,348.039,356.3058,358.983,364.532,367.8188,370.415,378.321,381.746,387.081,390.4674,393.005,398.086,403.167,408.248,413.228,415.829,420.137,423.45,428.318,433.185,436.0734,438.642,443.723,449.637,455.7126,458.346,462.858,467.939,470.896,475.408,481.535,484.492,489.573,492.886,495.843,501.392,507.1688,509.806,515.354" svgx:width="0.48,0.29,0.48,0.88,0.48,0.58,0.33,0.55,0.88,0.55,0.61,0.48,0.29,0.55,0.83,0.5,0.42,0.55,0.48,0.88,0.6,0.29,0.55,0.56,0.48,0.61,0.55,0.33,0.55,0.4,0.55,0.33,0.58,0.48,0.55,0.42,0.29,0.88,0.6,0.29,0.5,0.33,0.29,0.55,0.58,0.55,0.55,0.33,0.55,0.33,0.58,0.48,0.55,0.61,0.52,0.61,0.83,0.55,0.55,0.33,0.55,0.78,0.34,0.52,0.34,0.55,0.5,0.5,0.5,0.5,0.55,0.42,0.33,0.48,0.48,0.29,0.55,0.5,0.58,0.61,0.55,0.44,0.5,0.29,0.44,0.6,0.29,0.5,0.33,0.29,0.55,0.58,0.55,0.55,0.33" style="fill:rgb(0,0,0);font-family:URWPalladioL-Roma;font-size:9.96px;stroke:none;">element model was employed for the simulation of the LSTH of AISI 4130 steel and calculation of</text>
   <text y="452.219" x="82.205,85.433,91.197,95.9778,98.416,104.179,108.923,113.874,117.103,120.4,123.629,127.362,132.105,137.057,140.285,145.029,151.1046,153.565,158.516,163.923,169.687,174.43,176.92000000000002,180.382,186.452,192.215,196.9958,199.445,203.178,207.921,212.12,218.092,220.973,224.192,228.3752,230.876,235.075,240.838,246.245,254.504,259.248,265.3236,267.774,271.002,276.766,281.717,285.0038,287.431,290.659,296.423,301.2038,303.642,312.386,317.793,323.844,328.587,331.4754,333.945,338.342,343.293,349.0698,351.542,357.494,361.227,365.97,372.021,374.903,379.3,382.58680000000004,385.004,393.263,396.144,399.373,405.14979999999997,407.612,412.563,416.96,421.357,427.328,431.24,436.191,440.588,446.16560000000004,448.58,451.808,457.572,462.3528,464.791,468.019,472.763,481.507,487.458,492.202,496.113,501.065,504.293,510.265,513.998" svgx:width="0.33,0.58,0.48,0.55,0.58,0.48,0.5,0.33,0.33,0.33,0.4,0.48,0.5,0.33,0.48,0.61,0.55,0.5,0.55,0.58,0.48,0.25,0.55,0.61,0.58,0.48,0.55,0.4,0.48,0.42,0.6,0.29,0.33,0.42,0.55,0.42,0.58,0.55,0.83,0.48,0.61,0.55,0.33,0.58,0.5,0.33,0.55,0.33,0.58,0.48,0.55,0.88,0.55,0.61,0.48,0.29,0.55,0.44,0.5,0.58,0.55,0.6,0.4,0.48,0.61,0.29,0.44,0.33,0.55,0.83,0.29,0.33,0.58,0.55,0.5,0.44,0.44,0.6,0.4,0.5,0.44,0.56,0.55,0.33,0.58,0.48,0.55,0.33,0.48,0.88,0.6,0.48,0.4,0.5,0.33,0.6,0.4,0.48" style="fill:rgb(0,0,0);font-family:URWPalladioL-Roma;font-size:9.96px;stroke:none;">the heat-treated zone. The results showed that the model can predict with accuracy the temperature</text>
   <text y="465.728" x="81.906,87.894,91.649,97.089,103.116,106.015,110.7958,113.278,118.26,124.058,130.1336,132.636,135.883,141.682,146.4628,148.944,153.168,156.068,161.049,165.8298,168.312,173.293,179.091,185.16660000000002,187.669,190.917,196.715,201.4958,203.978,208.202,214.0,218.981,224.969,229.7498,232.232,237.671,240.9578,243.479,246.727,252.525,257.30580000000003,259.788,262.687,267.669,271.893,276.665,280.649,283.091,288.889,293.87,297.626,303.713,308.485,314.284,319.056,325.1316,327.634,331.389,336.162,341.701,344.6,350.039,355.838" svgx:width="0.6,0.4,0.55,0.61,0.29,0.48,0.55,0.5,0.58,0.61,0.55,0.33,0.58,0.48,0.55,0.42,0.29,0.5,0.48,0.55,0.5,0.58,0.61,0.55,0.33,0.58,0.48,0.55,0.42,0.58,0.5,0.6,0.48,0.55,0.55,0.33,0.55,0.33,0.58,0.48,0.55,0.29,0.5,0.42,0.48,0.4,0.55,0.58,0.5,0.4,0.61,0.48,0.58,0.48,0.61,0.55,0.4,0.48,0.56,0.29,0.55,0.58,0.25" style="fill:rgb(0,0,0);font-family:URWPalladioL-Roma;font-size:9.96px;stroke:none;">proﬁle and the size and the shape of the laser hardened region.</text>
   <text y="491.193" x="82.205,89.956,94.937,100.476,108.775,114.314,118.19,124.277,128.7" svgx:width="0.78,0.5,0.56,0.83,0.56,0.39,0.61,0.44,0.25" style="fill:rgb(0,0,0);font-family:URWPalladioL-Bold;font-size:9.96px;stroke:none;">Keywords:</text>
   <text y="491.193" x="134.455,137.296,142.178,146.317,150.994,154.978,156.901,161.041,166.928,170.784,174.036,178.917,183.252,188.0328,189.969,193.152,197.009,201.89,207.573,211.712,214.964,220.294,224.151,232.772,237.654,240.836,243.678,249.008,254.78480000000002,256.741,262.423,267.305,270.976,276.941,281.618,287.3,290.141,295.824,301.252,303.742,305.89,314.003,319.968,322.409,328.004,335.599,345.099,350.967,356.854,359.695,363.835,368.512,374.5876,376.527,379.368,384.25,388.39,393.066,396.923,399.413,401.551,409.147,412.437,417.563,420.94939999999997,422.903,427.785,432.667,437.548,442.528,444.48,448.62,451.803,456.479,461.156,463.997,466.487,468.625,474.053,480.019,491.305,499.926,505.257,511.222,515.899" svgx:width="0.29,0.5,0.42,0.48,0.4,0.55,0.42,0.6,0.4,0.33,0.5,0.44,0.48,0.55,0.33,0.4,0.5,0.58,0.42,0.33,0.55,0.4,0.88,0.5,0.33,0.29,0.55,0.58,0.55,0.58,0.5,0.4,0.61,0.48,0.58,0.29,0.58,0.56,0.25,0.55,0.83,0.61,0.25,0.67,0.78,0.76,0.6,0.6,0.29,0.42,0.48,0.61,0.55,0.29,0.5,0.42,0.48,0.4,0.25,0.55,0.78,0.34,0.52,0.34,0.55,0.5,0.5,0.5,0.5,0.55,0.42,0.33,0.48,0.48,0.29,0.25,0.55,0.56,0.61,0.95,0.88,0.55,0.61,0.48,0.29" style="fill:rgb(0,0,0);font-family:URWPalladioL-Roma;font-size:9.96px;stroke:none;">laser surface transformation hardening; Nd:YAGpulsed laser; AISI 4130 steel; FEMmodel</text>
  </g>
  <path style="fill:none;stroke:rgb(0,0,0);stroke-width:0.63;" d="M76.540 510.150 L518.740 510.150 "/>
  <g begin="text">
   <text y="542.136" x="76.535,81.516,84.006,87.494,91.369,97.456,100.774,104.649,110.189,116.276,122.363,126.786,130.104,133.421,138.961" svgx:width="0.5,0.25,0.55,0.39,0.61,0.33,0.39,0.56,0.61,0.61,0.44,0.33,0.33,0.56,0.61" style="fill:rgb(0,0,0);font-family:URWPalladioL-Bold;font-size:9.96px;stroke:none;">1. Introduction</text>
   <text y="561.623" x="97.795,103.13,109.258,113.271,116.655,121.736,126.248,131.02880000000002,136.481,139.794,143.808,148.889,154.803,159.112,162.496,168.044,172.058,181.031,186.112,189.424,192.382,197.93,203.70680000000002,209.21,215.124,220.205,224.036,230.245,235.112,241.026,243.983,249.898,255.4756,260.913,267.02,270.851,276.4,280.912,285.779,290.088,294.396,299.264,303.4472,308.938,314.019,317.85,322.6308,328.083,334.292,339.159,344.901,349.768,352.725,358.274,364.381,369.248,375.3236,380.823,384.136,389.61400000000003,395.039,401.147,404.988,410.536,416.745,422.873,427.384,432.1648,437.607,446.082,450.95,456.031,459.872,463.256,465.746,471.873,476.385,481.933,485.947,489.788,495.337,499.645,502.602,508.151,514.065,517.449" svgx:width="0.52,0.6,0.4,0.33,0.5,0.44,0.48,0.55,0.33,0.4,0.5,0.58,0.42,0.33,0.55,0.4,0.88,0.5,0.33,0.29,0.55,0.58,0.55,0.58,0.5,0.4,0.61,0.48,0.58,0.29,0.58,0.56,0.55,0.6,0.4,0.55,0.44,0.48,0.42,0.42,0.48,0.42,0.55,0.5,0.4,0.48,0.55,0.61,0.48,0.56,0.48,0.29,0.55,0.6,0.48,0.61,0.55,0.33,0.55,0.55,0.6,0.4,0.55,0.61,0.6,0.44,0.48,0.55,0.83,0.48,0.5,0.4,0.33,0.25,0.55,0.44,0.55,0.4,0.4,0.55,0.42,0.29,0.55,0.58,0.33,0.25" style="fill:rgb(0,0,0);font-family:URWPalladioL-Roma;font-size:9.96px;stroke:none;">Surface transformation hardening processes are developed to produce wear-, corrosion-,</text>
   <text y="575.133" x="76.535,81.601,87.498,93.5736,96.181,99.555,104.621,107.924,110.872,116.506,122.615,127.468,130.842,134.662,139.515,143.811,146.76,151.056,154.359,159.425,165.321,168.6078,171.117,175.413,181.522,185.525,188.898,193.964,198.463,203.316,207.4992,210.105,213.053,218.8298,221.442,226.974,230.794,236.985,241.838,245.822,248.333,251.636,257.114,259.66,264.513,270.41,276.307,281.373,287.27,291.758,296.5388,299.104,302.407,308.304,313.0848,315.649,318.598,321.546,324.92,329.773,334.069,340.159,345.224,351.00079999999997,353.614,356.988,362.52,366.50399999999996,369.014,374.911,381.021,389.967,394.82,398.64,404.172,410.282,414.4652,417.07,420.019,425.915,432.106,438.216,442.512,445.815,449.817,452.765,457.831,460.7194,463.272,468.338,474.427,480.517,483.465,486.413,490.912,495.978,499.281,502.229,507.761,513.658,517.954" svgx:width="0.5,0.58,0.61,0.55,0.33,0.5,0.33,0.29,0.56,0.6,0.48,0.33,0.4,0.48,0.42,0.29,0.42,0.33,0.5,0.58,0.33,0.55,0.42,0.6,0.4,0.33,0.5,0.44,0.48,0.42,0.55,0.29,0.58,0.55,0.55,0.4,0.61,0.48,0.4,0.55,0.33,0.55,0.55,0.48,0.58,0.58,0.5,0.58,0.44,0.48,0.55,0.33,0.58,0.48,0.55,0.29,0.29,0.33,0.48,0.42,0.6,0.5,0.58,0.55,0.33,0.55,0.4,0.55,0.58,0.6,0.88,0.48,0.4,0.55,0.6,0.42,0.55,0.29,0.58,0.61,0.6,0.42,0.33,0.4,0.29,0.5,0.29,0.55,0.5,0.6,0.6,0.29,0.29,0.44,0.5,0.33,0.29,0.55,0.58,0.42,0.25" style="fill:rgb(0,0,0);font-family:URWPalladioL-Roma;font-size:9.96px;stroke:none;">and fatigue-resistant surfaces in order to enhance the lifespan for numerous industrial applications.</text>
   <text y="588.642" x="76.226,82.211,87.893,92.57,96.251,101.0318,102.929,107.81,111.491,116.2718,118.179,122.319,126.995,132.502,137.179,141.035,145.917,148.8054,150.769,159.39,164.067,167.25,172.932,178.263,184.228,188.4112,190.379,193.22,198.9968,200.904,206.235,209.915,215.881,220.558,224.542,226.425,229.598,235.07600000000002,236.94,239.782,248.403,254.27,257.951,263.282,268.798,273.5788,275.476,279.616,285.503,289.36,292.611,297.493,301.828,306.6088,308.516,314.383,318.064,323.395,329.263,333.939,337.796,340.969,343.81,348.487,352.626,355.116,358.396,365.992,374.613,379.944,385.626,391.2036,393.066,396.249,401.931,406.608,410.748,415.5288,417.426,423.293,426.974,432.305,436.64,441.317,445.456,449.596,454.273,458.412,460.902,462.952,465.793,471.476,477.441,483.328,487.663,492.34,498.4156,500.316,505.999,510.675,515.557" svgx:width="0.61,0.58,0.48,0.4,0.48,0.55,0.5,0.4,0.48,0.55,0.42,0.48,0.56,0.48,0.4,0.5,0.29,0.55,0.88,0.48,0.33,0.58,0.55,0.61,0.42,0.55,0.29,0.58,0.55,0.55,0.4,0.61,0.48,0.4,0.55,0.33,0.55,0.55,0.29,0.88,0.6,0.4,0.55,0.56,0.48,0.55,0.42,0.6,0.4,0.33,0.5,0.44,0.48,0.55,0.6,0.4,0.55,0.6,0.48,0.4,0.33,0.29,0.48,0.42,0.25,0.55,0.78,0.88,0.55,0.58,0.56,0.55,0.33,0.58,0.48,0.42,0.48,0.55,0.6,0.4,0.55,0.44,0.48,0.42,0.42,0.48,0.42,0.25,0.55,0.29,0.58,0.61,0.6,0.44,0.48,0.61,0.55,0.58,0.48,0.5,0.33" style="fill:rgb(0,0,0);font-family:URWPalladioL-Roma;font-size:9.96px;stroke:none;">There are several methods in order to improve surface properties. Among these processes, induced heat</text>
   <text y="602.152" x="76.535,79.718,83.399,88.075,92.957,96.14,104.761,109.437,115.12,118.4068,120.675,125.557,131.239,137.3146,139.587,145.523,150.404,159.026,163.8068,166.084,171.767,176.443,181.325,184.6118,186.89,190.073,193.744,198.421,203.302,206.485,215.106,219.783,225.465,228.7518,231.03,235.912,239.593,244.3738,246.652,255.273,259.949,263.132,268.814,274.145,280.111,284.2942,286.623,289.806,295.284,297.519,300.36,308.981,314.849,318.529,323.86,329.376,334.1568,336.435,340.575,343.758,348.434,353.111,355.9994,358.325,362.464,368.352,372.208,375.459,380.341,384.676,389.4568,391.735,397.417,402.299,405.98,411.945,417.627,422.304,426.444,430.6272,432.966,437.847,443.529,449.6046,451.877,460.02,464.696,469.578,473.56199999999995,475.807,479.488,484.165,488.304,491.145,495.285,498.468,503.35,509.032,513.367,518.043" svgx:width="0.33,0.4,0.48,0.5,0.33,0.88,0.48,0.58,0.33,0.55,0.5,0.58,0.61,0.55,0.61,0.5,0.88,0.48,0.55,0.58,0.48,0.5,0.33,0.55,0.33,0.4,0.48,0.5,0.33,0.88,0.48,0.58,0.33,0.55,0.5,0.4,0.48,0.55,0.88,0.48,0.33,0.58,0.55,0.61,0.42,0.55,0.33,0.55,0.55,0.29,0.88,0.6,0.4,0.55,0.56,0.48,0.55,0.42,0.33,0.48,0.48,0.29,0.55,0.42,0.6,0.4,0.33,0.5,0.44,0.48,0.55,0.58,0.5,0.4,0.61,0.58,0.48,0.42,0.42,0.55,0.5,0.58,0.61,0.55,0.83,0.48,0.5,0.4,0.55,0.4,0.48,0.42,0.29,0.42,0.33,0.5,0.58,0.44,0.48,0.25" style="fill:rgb(0,0,0);font-family:URWPalladioL-Roma;font-size:9.96px;stroke:none;">treatment and ﬂame heat treatment are methods to improve steel surface hardness and wear resistance.</text>
   <text y="615.661" x="76.037,86.199,92.113,95.07,98.027,102.8078,106.716,112.843,117.152,122.019,128.0946,132.059,135.443,140.992,144.976,148.826,154.568,159.649,163.663,166.62,172.168,178.296,182.4792,186.435,189.392,195.307,201.516,207.643,211.952,215.265,219.278,222.236,227.316,230.2044,234.094,240.222,243.535,246.492,249.449,252.406,257.487,262.568,265.881,268.838,274.386,280.3,284.4832,288.44,292.749,298.876,303.388,309.16479999999996,313.123,318.204,322.3872,326.344,334.819,339.686,342.643,348.852,351.809,357.723,363.30060000000003,367.194" svgx:width="1.0,0.58,0.29,0.29,0.48,0.55,0.6,0.42,0.48,0.61,0.55,0.33,0.55,0.4,0.55,0.56,0.5,0.4,0.29,0.55,0.6,0.42,0.55,0.29,0.58,0.61,0.6,0.42,0.33,0.4,0.29,0.5,0.29,0.55,0.6,0.33,0.29,0.29,0.29,0.5,0.5,0.33,0.29,0.55,0.58,0.42,0.55,0.42,0.6,0.44,0.58,0.55,0.5,0.42,0.55,0.83,0.48,0.29,0.61,0.29,0.58,0.56,0.55,0.33" style="fill:rgb(0,0,0);font-family:URWPalladioL-Roma;font-size:9.96px;stroke:none;">While used for various industrial utilizations such as welding [</text>
   <text y="615.661" x="370.579" svgx:width="0.5" style="fill:rgb(8,117,183);font-family:URWPalladioL-Roma;font-size:9.96px;stroke:none;">1</text>
   <text y="615.661" x="375.56" svgx:width="0.25" style="fill:rgb(0,0,0);font-family:URWPalladioL-Roma;font-size:9.96px;stroke:none;">,</text>
   <text y="615.661" x="378.1" svgx:width="0.5" style="fill:rgb(8,117,183);font-family:URWPalladioL-Roma;font-size:9.96px;stroke:none;">2</text>
   <text y="615.661" x="383.082,386.466,388.956,393.163,399.371,403.385,406.342,409.3,412.257,415.214,421.128,426.7056,430.609" svgx:width="0.33,0.25,0.55,0.61,0.4,0.29,0.29,0.29,0.29,0.58,0.56,0.55,0.33" style="fill:rgb(0,0,0);font-family:URWPalladioL-Roma;font-size:9.96px;stroke:none;">], drilling [</text>
   <text y="615.661" x="433.99" svgx:width="0.5" style="fill:rgb(8,117,183);font-family:URWPalladioL-Roma;font-size:9.96px;stroke:none;">3</text>
   <text y="615.661" x="438.971,442.355,444.845,449.052,454.133,460.047,466.12260000000003,470.087,474.598,480.726,484.039,487.352,490.309,496.223,501.80060000000003,505.694" svgx:width="0.33,0.25,0.55,0.5,0.58,0.61,0.55,0.44,0.6,0.33,0.33,0.29,0.58,0.56,0.55,0.33" style="fill:rgb(0,0,0);font-family:URWPalladioL-Roma;font-size:9.96px;stroke:none;">], and cutting [</text>
   <text y="615.661" x="509.08" svgx:width="0.5" style="fill:rgb(8,117,183);font-family:URWPalladioL-Roma;font-size:9.96px;stroke:none;">4</text>
   <text y="615.661" x="514.061,517.445" svgx:width="0.33,0.25" style="fill:rgb(0,0,0);font-family:URWPalladioL-Roma;font-size:9.96px;stroke:none;">],</text>
   <text y="629.17" x="76.535,79.492,84.573,88.882,93.749,97.73299999999999,100.72,106.34,111.207,116.288,125.05279999999999,128.228,131.541,135.372,140.24,145.321,148.633,157.606,162.474,168.388,171.6748,174.658,177.615,181.7982,184.891" svgx:width="0.29,0.5,0.42,0.48,0.4,0.55,0.55,0.48,0.5,0.88,0.55,0.33,0.4,0.48,0.5,0.33,0.88,0.48,0.58,0.33,0.55,0.29,0.42,0.55,0.48" style="fill:rgb(0,0,0);font-family:URWPalladioL-Roma;font-size:9.96px;stroke:none;">laser beam treatment is e</text>
   <text y="629.17" x="189.753" svgx:width="0.61" style="fill:rgb(0,0,0);font-family:Rpxr;font-size:9.96px;stroke:none;">ﬀ</text>
   <text y="629.17" x="195.932,200.8,205.311,208.624,211.581,217.323,222.1038,225.147,233.622,239.536,244.404,250.1808,253.285,258.265,261.323,264.281,269.829,274.341,279.422,282.379,285.336,290.417,295.284,301.3596,304.45,307.763,311.594,316.462,321.543,324.855,333.828,338.696,344.61,347.89680000000004,350.89,353.847,358.0302,361.113,364.944,369.811,375.502,381.63,384.587,388.428,393.295,399.3706,402.461" svgx:width="0.48,0.44,0.33,0.29,0.56,0.48,0.55,0.83,0.58,0.48,0.58,0.55,0.5,0.55,0.29,0.55,0.44,0.5,0.29,0.29,0.5,0.48,0.61,0.55,0.33,0.4,0.48,0.5,0.33,0.88,0.48,0.58,0.33,0.55,0.29,0.42,0.55,0.4,0.48,0.56,0.6,0.29,0.4,0.48,0.61,0.55,0.33" style="fill:rgb(0,0,0);font-family:URWPalladioL-Roma;font-size:9.96px;stroke:none;">ective when a localized treatment is required [</text>
   <text y="629.17" x="405.845" svgx:width="0.5" style="fill:rgb(8,117,183);font-family:URWPalladioL-Roma;font-size:9.96px;stroke:none;">5</text>
   <text y="629.17" x="410.827,414.211,416.701,421.649,425.074,430.8508,433.945,437.329,442.41,446.922,450.235,452.725,455.854,458.811,463.892,468.201,473.068,477.05199999999996,480.039,485.954,491.034,495.2172,498.3,504.214,507.171,512.821" svgx:width="0.33,0.25,0.55,0.34,0.58,0.55,0.33,0.5,0.44,0.33,0.25,0.55,0.29,0.5,0.42,0.48,0.4,0.55,0.58,0.5,0.42,0.55,0.58,0.29,0.56,0.58" style="fill:rgb(0,0,0);font-family:URWPalladioL-Roma;font-size:9.96px;stroke:none;">]. In fact, laser has high</text>
   <text y="642.68" x="76.535,81.491,85.893,90.294,96.271,100.187,105.143,109.545,115.1226,117.544,122.501,128.27,134.34560000000002,136.815,141.563,150.316,153.201,156.432,160.6152,163.123,168.10299999999998,170.578,174.979,179.727,185.496,188.728,192.643,197.6,200.484,203.369,208.326,213.074,219.14960000000002,221.619,227.1,231.849,236.805,245.558,248.048,250.524,258.792,264.561,267.445,271.847,277.62379999999996,280.104,284.505,289.462,295.23879999999997,297.719,303.201,307.9818,310.437,316.415,320.618,325.366,331.4416,333.911,337.212,342.624,346.608,349.038,354.807,359.555,364.511,367.79780000000005,370.231,373.463,377.2,381.948,386.904,390.136,393.021,398.79,404.36760000000004,406.789,415.542,420.291,423.522,428.479,431.3674,433.851,438.054,444.032,447.947,451.248,456.205,460.606,465.354,469.5372,472.045" svgx:width="0.5,0.44,0.44,0.6,0.4,0.5,0.44,0.56,0.55,0.5,0.58,0.61,0.55,0.48,0.88,0.29,0.33,0.42,0.55,0.5,0.55,0.44,0.48,0.58,0.33,0.4,0.5,0.29,0.29,0.5,0.48,0.61,0.55,0.55,0.48,0.5,0.88,0.25,0.55,0.83,0.58,0.29,0.44,0.58,0.55,0.44,0.5,0.58,0.55,0.55,0.48,0.55,0.6,0.42,0.48,0.61,0.55,0.33,0.55,0.4,0.55,0.58,0.48,0.5,0.33,0.55,0.33,0.4,0.48,0.5,0.33,0.29,0.58,0.56,0.55,0.88,0.48,0.33,0.5,0.29,0.55,0.42,0.6,0.4,0.33,0.5,0.44,0.48,0.42,0.55,0.33" style="fill:rgb(0,0,0);font-family:URWPalladioL-Roma;font-size:9.96px;stroke:none;">accuracy and emits a centralized beam, which can be used for heat treating metal surfaces [</text>
   <text y="642.68" x="475.346" svgx:width="0.5" style="fill:rgb(8,117,183);font-family:URWPalladioL-Roma;font-size:9.96px;stroke:none;">6</text>
   <text y="642.68" x="480.327,483.628,486.118,489.595,497.843,502.591,508.36,512.762,517.51" svgx:width="0.33,0.25,0.55,0.83,0.48,0.58,0.44,0.48,0.25" style="fill:rgb(0,0,0);font-family:URWPalladioL-Roma;font-size:9.96px;stroke:none;">]. Hence,</text>
   <text y="656.189" x="76.535,79.437,84.423,88.652,93.429,97.413,99.851,104.079,110.093,114.032,117.353,122.339,126.767,131.5478,134.027,137.278,141.217,146.203,152.007,156.236,159.557,165.002,168.941,177.747,182.733,185.984,188.886,194.331,200.1078,202.618,208.422,213.408,217.168,223.261,228.038,233.842,236.744,242.548,248.1256,250.576,253.897,259.99,265.226,271.339,279.636,282.92280000000005,285.44,288.342,292.5252,295.064,300.04400000000004,302.533,308.527,312.286,317.063,321.491,324.393,328.621,333.4018,335.881,344.687,349.464,352.715,358.519,363.964,370.0396,372.54,378.055,382.832,387.26,392.246,398.26,402.488,407.2688,409.748,412.65,415.9368,418.384" svgx:width="0.29,0.5,0.42,0.48,0.4,0.55,0.42,0.6,0.4,0.33,0.5,0.44,0.48,0.55,0.33,0.4,0.5,0.58,0.42,0.33,0.55,0.4,0.88,0.5,0.33,0.29,0.55,0.58,0.55,0.58,0.5,0.4,0.61,0.48,0.58,0.29,0.58,0.56,0.55,0.33,0.61,0.52,0.61,0.83,0.33,0.55,0.29,0.42,0.55,0.5,0.55,0.6,0.4,0.48,0.44,0.29,0.42,0.48,0.55,0.88,0.48,0.33,0.58,0.55,0.61,0.55,0.55,0.48,0.44,0.5,0.6,0.42,0.48,0.55,0.29,0.33,0.55,0.55" style="fill:rgb(0,0,0);font-family:URWPalladioL-Roma;font-size:9.96px;stroke:none;">laser surface transformation hardening (LSTH) is a precise method because it o</text>
   <text y="656.189" x="423.83" svgx:width="0.61" style="fill:rgb(0,0,0);font-family:Rpxr;font-size:9.96px;stroke:none;">ﬀ</text>
   <text y="656.189" x="429.893,434.67,438.609,442.7922,445.321,449.748,455.193,460.997,464.248,468.008,473.453,476.355,479.257,484.243,489.758,492.66,497.4408,499.92,505.724,510.501,515.487" svgx:width="0.48,0.4,0.42,0.55,0.44,0.55,0.58,0.33,0.4,0.55,0.29,0.29,0.5,0.55,0.29,0.48,0.55,0.58,0.48,0.5,0.33" style="fill:rgb(0,0,0);font-family:URWPalladioL-Roma;font-size:9.96px;stroke:none;">ers controllable heat</text>
   <text y="669.699" x="76.535,79.46,85.23679999999999,87.814,91.091,96.941,101.7218,104.249,108.511,113.326,116.251,121.067,125.53,128.807,133.622,139.69760000000002,142.267,147.293,151.083,155.898,160.878,163.417,166.342,172.11880000000002,174.695,180.184,183.974,190.116,194.931,198.91500000000002,201.404,204.681,210.15900000000002,212.663,218.704,222.494,227.982,234.124,240.186,244.649,249.4298,251.967,257.818,262.844,266.633,272.775,277.59,283.441,288.256,294.3316,296.901,301.163,307.224,311.195,314.542,319.569,324.032,328.8128,331.34,334.265,339.291,344.88,349.695,353.666,357.928,360.418,363.949,373.459,378.947,382.737,387.552,393.04,398.72,403.535,406.772,409.262,411.788,415.065,420.915,425.6958,428.223,431.5,437.089,443.131,447.91179999999997,450.449,455.937,459.22380000000004,461.788,464.703,469.729,473.991,478.806,482.78999999999996,485.28,490.306,496.156,502.2316,504.801,508.078,513.929" svgx:width="0.29,0.58,0.55,0.33,0.58,0.48,0.55,0.42,0.48,0.29,0.48,0.44,0.33,0.48,0.61,0.55,0.5,0.4,0.48,0.5,0.55,0.29,0.58,0.55,0.55,0.4,0.61,0.48,0.4,0.55,0.33,0.55,0.55,0.6,0.4,0.55,0.61,0.6,0.44,0.48,0.55,0.58,0.5,0.4,0.61,0.48,0.58,0.48,0.61,0.55,0.42,0.6,0.4,0.33,0.5,0.44,0.48,0.55,0.29,0.5,0.56,0.48,0.4,0.42,0.25,0.55,0.95,0.55,0.4,0.48,0.55,0.56,0.48,0.4,0.25,0.55,0.33,0.58,0.48,0.55,0.33,0.56,0.6,0.48,0.55,0.55,0.33,0.55,0.29,0.5,0.42,0.48,0.4,0.55,0.5,0.58,0.61,0.55,0.33,0.58,0.48" style="fill:rgb(0,0,0);font-family:URWPalladioL-Roma;font-size:9.96px;stroke:none;">in the selected area in order to produce hardened surface layers. Moreover, the type of laser and the</text>
   <text y="683.208" x="76.535,80.958,86.757,92.196,95.095,99.519,104.2998,106.781,112.221,115.5078,118.029,126.826,131.807,135.055,139.827,143.763,146.662,151.643,154.5314,157.033,161.456,166.437,172.21380000000002,174.726,177.625,183.424,189.481,195.488,200.26,206.059,210.482,215.2628,217.745,220.993,226.791,231.5718,234.054,239.852,244.833,248.589,254.676,259.448,265.247,268.146,273.944,279.52160000000003,281.974,287.961,291.717,297.157,301.58,306.352,310.576,314.801" svgx:width="0.44,0.58,0.55,0.29,0.44,0.48,0.55,0.55,0.33,0.55,0.88,0.5,0.33,0.48,0.4,0.29,0.5,0.29,0.55,0.44,0.5,0.58,0.55,0.29,0.58,0.61,0.6,0.48,0.58,0.44,0.48,0.55,0.33,0.58,0.48,0.55,0.58,0.5,0.4,0.61,0.48,0.58,0.29,0.58,0.56,0.55,0.6,0.4,0.55,0.44,0.48,0.42,0.42,0.25" style="fill:rgb(0,0,0);font-family:URWPalladioL-Roma;font-size:9.96px;stroke:none;">choice of material can inﬂuence the hardening process.</text>
   <text y="696.717" x="97.795,101.139,106.914,110.149,114.902,118.643,123.396,127.603,130.838,133.725,139.5,145.0776,147.518,151.259,156.012,160.219,166.202,169.09,172.325,176.5082,179.033,187.308,192.061,195.802,200.5828,203.056,208.473,213.961,217.195,222.157,225.044,230.819,235.572,241.6476,244.136,247.023,252.7998,255.299,261.362" svgx:width="0.34,0.58,0.33,0.48,0.4,0.48,0.42,0.33,0.29,0.58,0.56,0.55,0.4,0.48,0.42,0.6,0.29,0.33,0.42,0.55,0.83,0.48,0.4,0.48,0.55,0.55,0.55,0.33,0.5,0.29,0.58,0.48,0.61,0.55,0.29,0.58,0.55,0.61,0.29" style="fill:rgb(0,0,0);font-family:URWPalladioL-Roma;font-size:9.96px;stroke:none;">Interesting results were obtained in di</text>
   <text y="696.717" x="264.251" svgx:width="0.61" style="fill:rgb(0,0,0);font-family:Rpxr;font-size:9.96px;stroke:none;">ﬀ</text>
   <text y="696.717" x="270.284,275.037,278.778,283.531,289.306,292.5928,295.041,299.248,302.483,308.467,314.53,317.417,322.17,326.3532,328.878,334.296,340.0728,342.571,348.634,353.843,359.926,368.182,370.672,373.163,379.226,384.704,387.144,391.897,395.1838,397.642,402.604,405.491,407.981,410.472" svgx:width="0.48,0.4,0.48,0.58,0.33,0.55,0.42,0.33,0.6,0.61,0.29,0.48,0.42,0.55,0.55,0.58,0.55,0.61,0.52,0.61,0.83,0.25,0.55,0.61,0.55,0.55,0.48,0.33,0.55,0.5,0.29,0.25,0.55,0.33" style="fill:rgb(0,0,0);font-family:URWPalladioL-Roma;font-size:9.96px;stroke:none;">erent studies on LSTH. Lo et al. [</text>
   <text y="696.717" x="413.773" svgx:width="0.5" style="fill:rgb(8,117,183);font-family:URWPalladioL-Roma;font-size:9.96px;stroke:none;">7</text>
   <text y="696.717" x="418.754,422.04080000000005,424.559,432.834,438.252,442.172,447.689,452.442,458.5176,461.005,466.423,472.1998,474.698,482.418,485.762,490.972,494.35839999999996,496.816,501.778,506.739,511.7" svgx:width="0.33,0.55,0.83,0.55,0.4,0.56,0.48,0.61,0.55,0.55,0.58,0.55,0.78,0.34,0.52,0.34,0.55,0.5,0.5,0.5,0.71" style="fill:rgb(0,0,0);font-family:URWPalladioL-Roma;font-size:9.96px;stroke:none;">] worked on AISI 440C</text>
   <text y="710.227" x="76.535,82.58,87.773,93.838,102.068,104.55799999999999,107.025,113.089,118.847,123.585,129.1626,131.569,137.614,142.352,151.088,156.489,162.247,166.441,169.666,173.574,178.521,181.746,186.484,192.55960000000002,195.012,198.237,203.995,208.941,212.2278,214.649,217.874,223.632,226.511,230.6942,233.188,241.924,246.663,249.888,255.645,261.047,267.12260000000003,269.574,273.967,279.368,285.334,288.203,294.2786,296.73,302.201,306.9818,309.423,314.893,319.632,322.857,326.082,330.821,334.805,337.212,340.437,346.194,351.141,356.9178,359.382,364.362,366.811,370.106,376.071,379.979,385.736,390.683,395.075,399.8558,402.297,407.243,410.5298,412.952,415.83,421.232,425.624,430.571,433.449,436.328,441.275,446.013,452.0886,454.541,460.299,465.037,469.984,473.2708,475.692,478.917,482.647,487.385,492.332,495.557,504.292,509.031,514.789,518.014" svgx:width="0.61,0.52,0.61,0.83,0.25,0.55,0.61,0.58,0.48,0.56,0.55,0.61,0.48,0.88,0.55,0.58,0.42,0.33,0.4,0.5,0.33,0.48,0.61,0.55,0.33,0.58,0.5,0.33,0.55,0.33,0.58,0.29,0.42,0.55,0.88,0.48,0.33,0.58,0.55,0.61,0.55,0.44,0.55,0.6,0.29,0.61,0.55,0.55,0.48,0.55,0.55,0.48,0.33,0.33,0.48,0.4,0.55,0.33,0.58,0.5,0.58,0.55,0.5,0.55,0.33,0.6,0.4,0.58,0.5,0.44,0.48,0.55,0.5,0.33,0.55,0.29,0.55,0.44,0.5,0.29,0.29,0.5,0.48,0.61,0.55,0.58,0.48,0.5,0.33,0.55,0.33,0.4,0.48,0.5,0.33,0.88,0.48,0.58,0.33,0.25" style="fill:rgb(0,0,0);font-family:URWPalladioL-Roma;font-size:9.96px;stroke:none;">LSTH. They demonstrated that this method could be better than a furnace at localized heat treatment.</text>
   <text y="723.736" x="76.535,84.092,89.979,98.6,101.441,104.624,109.301,113.157,117.297,121.632,127.608,129.687,134.363,137.6498,139.704,144.586,147.427,149.917,152.035" svgx:width="0.77,0.6,0.88,0.29,0.33,0.48,0.4,0.42,0.44,0.6,0.55,0.48,0.33,0.55,0.5,0.29,0.25,0.55,0.33" style="fill:rgb(0,0,0);font-family:URWPalladioL-Roma;font-size:9.96px;stroke:none;">Dumiterscu et al. [</text>
   <text y="723.736" x="155.287" svgx:width="0.5" style="fill:rgb(8,117,183);font-family:URWPalladioL-Roma;font-size:9.96px;stroke:none;">8</text>
   <text y="723.736" x="160.269,163.5558,165.688,168.529,174.211,179.727,184.404,188.544,191.727,194.568,199.996,204.878,208.061,212.737,218.8126,220.86,224.043,229.725,234.5058,236.57,242.476,247.875,252.552,256.536,258.576,261.417,266.299,270.439,275.115,279.099,281.129,285.269,291.156,295.013,298.264,303.146,307.481,312.2618,314.325,320.007,324.684,329.565,332.8518,334.916,338.099,341.779,346.456,351.338,354.511,363.132,367.808,373.491,376.7778,378.841,384.172,387.45880000000005,389.59,397.186,400.477,405.602,408.98839999999996,411.06,418.617,423.59700000000004,425.656,429.796,432.979,437.655,442.332,445.173,447.663,450.992,456.977,462.659,467.4398,469.503,474.385,480.351,485.867,490.749,496.431,499.614,504.495,509.924,514.6" svgx:width="0.33,0.55,0.29,0.58,0.56,0.48,0.42,0.33,0.29,0.56,0.5,0.33,0.48,0.61,0.55,0.33,0.58,0.48,0.55,0.61,0.55,0.48,0.4,0.55,0.29,0.5,0.42,0.48,0.4,0.55,0.42,0.6,0.4,0.33,0.5,0.44,0.48,0.55,0.58,0.48,0.5,0.33,0.55,0.33,0.4,0.48,0.5,0.33,0.88,0.48,0.58,0.33,0.55,0.55,0.33,0.55,0.78,0.34,0.52,0.34,0.55,0.77,0.5,0.55,0.42,0.33,0.48,0.48,0.29,0.25,0.55,0.61,0.58,0.48,0.55,0.5,0.61,0.56,0.5,0.58,0.33,0.5,0.56,0.48,0.42" style="fill:rgb(0,0,0);font-family:URWPalladioL-Roma;font-size:9.96px;stroke:none;">] investigated the ﬁber laser surface heat treatment of AISI D2 steel. The advantages</text>
   <text y="737.246" x="76.535,82.029,85.3158,87.875,91.155,97.012,99.94,104.1232,106.712,112.759,116.552,122.046,126.514,131.334,135.6,139.7832,142.362,150.754,155.574,159.367,164.1478,166.693,170.043,175.074,178.3608,180.921,185.388,190.419,193.7,198.731,202.997,206.277,210.071,215.565,221.612,227.468,230.396,234.77839999999998,237.36,240.71,244.685,249.716,254.184,257.464,263.531,267.325,272.1058,274.65,280.144,283.43080000000003,285.99,289.271,295.127,299.9078,302.442,308.509,312.776,317.596,323.6716,326.249,330.717,335.748,339.723,345.287,348.215,354.363,359.1438,361.678,364.959,370.453,375.947,378.875,383.0582,385.636,390.104,395.598,401.666,404.594,410.6696,413.247,418.812,423.5928,426.127,429.92,434.74,443.625,449.119,454.804,459.624,465.772,468.262,470.783,474.134,479.165,482.45180000000005,485.021,488.301,493.795,499.289,502.1774,504.713,507.641,510.569,513.92" svgx:width="0.55,0.33,0.55,0.33,0.58,0.29,0.42,0.55,0.6,0.4,0.55,0.44,0.48,0.42,0.42,0.55,0.83,0.48,0.4,0.48,0.55,0.33,0.5,0.33,0.55,0.44,0.5,0.33,0.5,0.42,0.33,0.4,0.55,0.6,0.58,0.29,0.44,0.55,0.33,0.4,0.5,0.44,0.33,0.6,0.4,0.48,0.55,0.55,0.33,0.55,0.33,0.58,0.48,0.55,0.6,0.42,0.48,0.61,0.55,0.44,0.5,0.4,0.55,0.29,0.61,0.48,0.55,0.33,0.55,0.55,0.29,0.42,0.55,0.44,0.55,0.6,0.29,0.61,0.55,0.55,0.48,0.55,0.4,0.48,0.88,0.55,0.56,0.48,0.61,0.25,0.55,0.33,0.5,0.33,0.55,0.33,0.55,0.55,0.29,0.55,0.29,0.29,0.33,0.48" style="fill:rgb(0,0,0);font-family:URWPalladioL-Roma;font-size:9.96px;stroke:none;">of this process were (1) catastrophic fracture of the used carbide tools could be removed, (2) tool life</text>
   <text y="750.755" x="76.117,84.393,89.354,93.5372,96.042,98.929,107.691,113.655,117.396,122.813,128.42,133.173,139.236,141.726,144.197,147.501,152.463,155.7498,158.258,162.663,168.438,173.4,176.634,179.869,184.622,188.60600000000002,191.022,196.44,199.7268,202.225,210.987,215.948,220.354,226.129,229.017,234.792,237.679,243.454,249.0316,251.452,256.413,262.188,268.2636,270.732,274.036,279.454,283.373,292.135,297.097,300.331,303.219,308.637,314.4138,316.902,322.32,325.6068,328.105,332.312,337.274,345.5408,348.03,351.265,356.683,362.1,365.335,371.11179999999996,373.591,377.997,383.772,386.659,392.623,396.8062,399.311,403.716,409.134,415.118,418.005,424.0806,426.559,432.046,436.8268,439.28,445.243,448.984,453.737,459.343,464.096,469.871,473.106,477.859,483.922,486.41200000000003,488.883,493.845,499.62,505.6956,508.163,511.468,516.429" svgx:width="0.83,0.5,0.42,0.55,0.29,0.88,0.6,0.4,0.55,0.56,0.48,0.61,0.25,0.55,0.33,0.5,0.33,0.55,0.44,0.58,0.5,0.33,0.33,0.48,0.4,0.55,0.55,0.33,0.55,0.88,0.5,0.44,0.58,0.29,0.58,0.29,0.58,0.56,0.55,0.5,0.58,0.61,0.55,0.33,0.55,0.4,0.88,0.5,0.33,0.29,0.55,0.58,0.55,0.55,0.33,0.55,0.42,0.5,0.83,0.55,0.33,0.55,0.55,0.33,0.58,0.55,0.44,0.58,0.29,0.6,0.42,0.55,0.44,0.55,0.6,0.29,0.61,0.55,0.55,0.48,0.55,0.6,0.4,0.48,0.56,0.48,0.58,0.33,0.48,0.61,0.25,0.55,0.5,0.58,0.61,0.55,0.33,0.5,0.33" style="fill:rgb(0,0,0);font-family:URWPalladioL-Roma;font-size:9.96px;stroke:none;">was improved, (3) chatter of machining and formation of saw tooth chips could be prevented, and (4)</text>
   <text y="764.264" x="76.535,79.825,85.699,90.4798,93.015,96.305,102.179,106.085,112.17,116.449,119.7358,122.222,128.287,133.333,137.32,140.6068,143.092,148.603,151.8898,154.446,157.736,163.61,168.3908,170.927,175.407,181.493,184.783,188.073,191.01,196.883,202.4606,204.977,208.338,213.848,217.653,222.134,226.91479999999999,229.451,237.868,242.914,247.0972,249.675,255.842,260.676,265.157,268.961,273.795,278.842,283.121,287.955,294.121,296.611,300.126,309.673,314.719,320.593,329.504,335.014,340.525,346.691,349.57939999999996,352.11,356.944,360.23080000000004,362.717,367.763,370.7,373.19,376.715,381.196,386.242,390.228,394.215,397.151,401.986,408.0616,410.635,416.145,422.23,425.51680000000005,428.003,434.169,439.468,445.644,453.9108,456.523,462.034,465.3208,467.877,475.729,479.13,484.428,487.8144,490.312,495.358,500.404,505.384,507.933,513.514" svgx:width="0.33,0.58,0.48,0.55,0.33,0.58,0.4,0.6,0.42,0.33,0.55,0.6,0.5,0.4,0.33,0.55,0.55,0.33,0.55,0.33,0.58,0.48,0.55,0.44,0.6,0.33,0.33,0.29,0.58,0.56,0.55,0.33,0.55,0.4,0.44,0.48,0.55,0.83,0.5,0.42,0.55,0.61,0.48,0.44,0.4,0.48,0.5,0.42,0.48,0.61,0.25,0.55,0.95,0.5,0.58,0.88,0.55,0.55,0.61,0.29,0.55,0.48,0.33,0.55,0.5,0.29,0.25,0.55,0.44,0.5,0.4,0.4,0.29,0.48,0.61,0.55,0.55,0.6,0.33,0.55,0.61,0.52,0.61,0.83,0.55,0.55,0.33,0.55,0.78,0.34,0.52,0.34,0.55,0.5,0.5,0.5,0.55,0.55,0.56" style="fill:rgb(0,0,0);font-family:URWPalladioL-Roma;font-size:9.96px;stroke:none;">the thrust part of the cutting force was decreased. Mahmoodi et al. carried out LSTH of AISI 420 by</text>
   <text y="799.37" x="76.535,84.059,87.598,90.252,93.352,96.452,98.668,102.207,104.422" svgx:width="0.94,0.44,0.33,0.39,0.39,0.28,0.44,0.28,0.39" style="fill:rgb(0,0,0);font-family:URWPalladioL-Ital;font-size:7.97px;stroke:none;">Materials</text>
   <text y="799.37" x="109.515,113.5,117.485,121.47" svgx:width="0.5,0.5,0.5,0.5" style="fill:rgb(0,0,0);font-family:URWPalladioL-Bold;font-size:7.97px;stroke:none;">2019</text>
   <text y="799.37" x="125.455" svgx:width="0.25" style="fill:rgb(0,0,0);font-family:URWPalladioL-Roma;font-size:7.97px;stroke:none;">,</text>
   <text y="799.37" x="129.44,133.425" svgx:width="0.5,0.5" style="fill:rgb(0,0,0);font-family:URWPalladioL-Ital;font-size:7.97px;stroke:none;">12</text>
   <text y="799.37" x="137.41,139.4025,141.395,145.38,149.365,153.35,157.335,159.32750000000001,161.32,166.19,170.542,172.861,174.854,178.839,182.824,184.816,188.801,192.786,196.771" svgx:width="0.25,0.55,0.5,0.5,0.5,0.5,0.25,0.55,0.61,0.55,0.29,0.25,0.5,0.5,0.25,0.5,0.5,0.5,0.5" style="fill:rgb(0,0,0);font-family:URWPalladioL-Roma;font-size:7.97px;stroke:none;">, 3136; doi:10.3390</text>
   <text y="799.37" x="200.757" svgx:width="0.29" style="fill:rgb(0,0,0);font-family:Rpxr;font-size:7.97px;stroke:none;">/</text>
   <text y="799.37" x="203.044,210.082,214.067,218.052,222.037,226.022,230.007,233.992,237.977,241.962,245.947,399.324,405.971,412.618,418.532,420.524,427.562,432.431,437.221,439.541,441.533,445.072,449.424" svgx:width="0.88,0.5,0.5,0.5,0.5,0.5,0.5,0.5,0.5,0.5,0.55,0.83,0.83,0.83,0.25,0.88,0.61,0.6,0.29,0.25,0.44,0.55,0.88" style="fill:rgb(0,0,0);font-family:URWPalladioL-Roma;font-size:7.97px;stroke:none;">ma12193136 www.mdpi.com</text>
   <text y="799.37" x="456.462" svgx:width="0.29" style="fill:rgb(0,0,0);font-family:Rpxr;font-size:7.97px;stroke:none;">/</text>
   <text y="799.37" x="458.75,460.615,464.967,469.773,472.921,477.559,481.544" svgx:width="0.23,0.55,0.6,0.4,0.58,0.5,0.29" style="fill:rgb(0,0,0);font-family:URWPalladioL-Roma;font-size:7.97px;stroke:none;">journal</text>
   <text y="799.37" x="483.863" svgx:width="0.29" style="fill:rgb(0,0,0);font-family:Rpxr;font-size:7.97px;stroke:none;">/</text>
   <text y="799.37" x="486.151,493.189,497.174,499.772,503.59,506.738,509.057,513.042,515.361" svgx:width="0.88,0.5,0.33,0.48,0.4,0.29,0.5,0.29,0.42" style="fill:rgb(0,0,0);font-family:URWPalladioL-Roma;font-size:7.97px;stroke:none;">materials</text>
  </g>
 </g>
</svg>
