<?xml version="1.0" encoding="UTF-8"?>
<svg height="774.47" width="530.3585" xmlns="http://www.w3.org/2000/svg">
 <g id="page" xmlns:svgx="http://www.xml-cml.org/schema/svgx">
  <g begin="text">
   <text y="62.979" x="76.535,82.736,86.274,90.706,94.245,100.445,103.984,106.638,109.738,112.839,115.055,118.593,120.809" svgx:width="0.78,0.44,0.56,0.44,0.78,0.44,0.33,0.39,0.39,0.28,0.44,0.28,0.39" style="fill:rgb(0,0,0);font-family:URWPalladioL-Ital;font-size:7.97px;stroke:none;">Nanomaterials</text>
   <text y="62.979" x="125.901,129.886,133.871,137.856" svgx:width="0.5,0.5,0.5,0.5" style="fill:rgb(0,0,0);font-family:URWPalladioL-Bold;font-size:7.97px;stroke:none;">2020</text>
   <text y="62.979" x="141.842" svgx:width="0.25" style="fill:rgb(0,0,0);font-family:URWPalladioL-Roma;font-size:7.97px;stroke:none;">,</text>
   <text y="62.979" x="145.827,149.812" svgx:width="0.5,0.5" style="fill:rgb(0,0,0);font-family:URWPalladioL-Ital;font-size:7.97px;stroke:none;">10</text>
   <text y="62.979" x="153.797,155.7895,157.782,161.767,165.752,169.73700000000002,491.809,495.794,499.779,501.772,506.123,508.7531,510.77,514.755" svgx:width="0.25,0.55,0.5,0.5,0.5,0.55,0.5,0.5,0.55,0.55,0.33,0.55,0.5,0.5" style="fill:rgb(0,0,0);font-family:URWPalladioL-Roma;font-size:7.97px;stroke:none;">, 249 16 of 19</text>
   <text y="97.848" x="76.535,80.468,85.305,88.804,92.144,96.388,100.144,105.468,110.305,115.461,120.873,123.451,128.607,133.6302,135.783,141.142,144.03,146.918,151.162" svgx:width="0.44,0.55,0.4,0.4,0.48,0.42,0.6,0.55,0.58,0.61,0.29,0.58,0.56,0.55,0.61,0.33,0.33,0.48,0.61" style="fill:rgb(0,0,0);font-family:URWPalladioL-Roma;font-size:8.97px;stroke:none;">corresponding ﬁtted</text>
   <text y="97.848" x="158.825" svgx:width="0.67" style="fill:rgb(0,0,0);font-family:URWPalladioL-Ital;font-size:8.97px;stroke:none;">R</text>
   <text y="99.197" x="164.733,167.571" svgx:width="0.41,0.33" style="fill:rgb(0,0,0);font-family:URWPalladioL-Ital;font-size:6.97px;stroke:none;">ct</text>
   <text y="97.848" x="172.644,175.594,178.172,183.328,187.084,191.327,194.215,197.165,199.4075,201.639,206.245,210.675,215.574,218.152,222.45759999999999,224.645,229.296,233.725,235.9675,239.094,244.524,249.68,253.9856,256.174,263.562,267.805,270.383,275.309,280.464,283.4241,285.603,288.553,292.052,296.481,300.415,303.302,305.88,310.717,315.873,319.6404,321.888,326.725,329.68510000000003,331.925,336.576,341.732" svgx:width="0.33,0.29,0.58,0.42,0.48,0.33,0.33,0.25,0.55,0.61,0.5,0.55,0.29,0.48,0.55,0.52,0.5,0.25,0.55,0.61,0.58,0.48,0.55,0.83,0.48,0.29,0.56,0.58,0.33,0.55,0.33,0.4,0.5,0.44,0.33,0.29,0.55,0.58,0.42,0.55,0.55,0.33,0.55,0.52,0.58,0.79" style="fill:rgb(0,0,0);font-family:URWPalladioL-Roma;font-size:8.97px;stroke:none;">(inset); Table S1: The weight fractions of SnO</text>
   <text y="99.64" x="348.692" svgx:width="0.5" style="fill:rgb(0,0,0);font-family:URWPalladioL-Roma;font-size:6.97px;stroke:none;">2</text>
   <text y="97.848" x="354.929,359.358,364.514,369.9857,372.177,377.103" svgx:width="0.5,0.58,0.61,0.55,0.56,0.48" style="fill:rgb(0,0,0);font-family:URWPalladioL-Roma;font-size:8.97px;stroke:none;">and Fe</text>
   <text y="99.64" x="381.347" svgx:width="0.5" style="fill:rgb(0,0,0);font-family:URWPalladioL-Roma;font-size:6.97px;stroke:none;">2</text>
   <text y="97.848" x="385.332" svgx:width="0.79" style="fill:rgb(0,0,0);font-family:URWPalladioL-Roma;font-size:8.97px;stroke:none;">O</text>
   <text y="99.64" x="392.295" svgx:width="0.5" style="fill:rgb(0,0,0);font-family:URWPalladioL-Roma;font-size:6.97px;stroke:none;">3</text>
   <text y="97.848" x="398.532,401.11,406.31260000000003,408.516,413.929,416.879,421.529,426.455,433.418,440.035,446.4037,448.566,452.323,456.752,464.574,469.898,472.476,476.7816,478.97,482.903,487.333,489.911,493.844,499.186,501.764,506.193,509.081,513.324" svgx:width="0.29,0.58,0.55,0.61,0.33,0.52,0.56,0.79,0.75,0.71,0.55,0.42,0.5,0.88,0.6,0.29,0.48,0.55,0.44,0.5,0.29,0.44,0.6,0.29,0.5,0.33,0.48,0.61" style="fill:rgb(0,0,0);font-family:URWPalladioL-Roma;font-size:8.97px;stroke:none;">in B-SFO@C sample calculated</text>
   <text y="107.98" x="76.535,82.063" svgx:width="0.61,0.29" style="fill:rgb(0,0,0);font-family:URWPalladioL-Roma;font-size:8.97px;stroke:none;">di</text>
   <text y="107.98" x="84.696" svgx:width="0.61" style="fill:rgb(0,0,0);font-family:Rpxr;font-size:8.97px;stroke:none;">ﬀ</text>
   <text y="107.98" x="90.196,94.53,97.94,102.274,107.539,110.4991,112.723,120.712,125.045,127.995,133.26,138.2,143.728,147.564,149.8065,152.06,156.774,161.297,166.3,168.933,173.2386,175.501,180.251,184.774,187.0165,190.166,195.712,200.978,205.2836,207.546,211.879,214.512,218.846,222.863,225.812,229.223,234.162,238.179,243.445,247.778,255.767,258.4,262.417,266.94,269.5413,271.807,277.236,281.569,285.143,288.156,293.095,296.669,304.657,309.181,314.446,318.463,322.797,326.56440000000003,328.867,333.807,336.7671,339.055,344.582,347.595,352.345,357.375,364.486,371.244,377.6127,379.884,384.408,389.673,395.1447,397.435,402.185,407.451" svgx:width="0.48,0.4,0.48,0.58,0.33,0.55,0.88,0.48,0.33,0.58,0.55,0.61,0.42,0.25,0.55,0.61,0.5,0.55,0.29,0.48,0.55,0.52,0.5,0.25,0.55,0.61,0.58,0.48,0.55,0.48,0.29,0.48,0.44,0.33,0.4,0.55,0.44,0.58,0.48,0.88,0.29,0.44,0.5,0.29,0.55,0.6,0.48,0.4,0.33,0.55,0.4,0.88,0.5,0.58,0.44,0.48,0.42,0.55,0.55,0.33,0.55,0.61,0.33,0.52,0.56,0.79,0.75,0.71,0.55,0.5,0.58,0.61,0.55,0.52,0.58,0.79" style="fill:rgb(0,0,0);font-family:URWPalladioL-Roma;font-size:8.97px;stroke:none;">erent methods; Table S2: The electrochemical performances of B-SFO@C and SnO</text>
   <text y="109.772" x="414.558" svgx:width="0.5" style="fill:rgb(0,0,0);font-family:URWPalladioL-Roma;font-size:6.97px;stroke:none;">2</text>
   <text y="107.98" x="418.543,421.556,426.559,431.082,434.918,439.252,444.7237,447.014,451.031,455.971,463.959,469.397,474.336,478.172,480.805,483.754,488.088,491.85540000000003,494.15,498.673,503.939,508.878,514.406" svgx:width="0.33,0.55,0.5,0.42,0.48,0.61,0.55,0.44,0.55,0.88,0.6,0.55,0.42,0.29,0.33,0.48,0.42,0.55,0.5,0.58,0.55,0.61,0.48" style="fill:rgb(0,0,0);font-family:URWPalladioL-Roma;font-size:8.97px;stroke:none;">-based composites anode</text>
   <text y="118.112" x="76.535,84.452,88.936,91.859,96.153,99.695,102.304,106.788,109.397,113.1644,115.44,118.049,123.25160000000001,125.509,128.433,133.651,137.9566,140.187,145.576,148.957,153.252,158.318,160.927,165.822,171.229,174.99640000000002,177.273,180.653,184.948,190.337,195.232,198.774,201.697,205.499" svgx:width="0.88,0.5,0.33,0.48,0.4,0.29,0.5,0.29,0.42,0.55,0.29,0.58,0.55,0.33,0.58,0.48,0.55,0.6,0.4,0.48,0.56,0.29,0.55,0.6,0.42,0.55,0.4,0.48,0.6,0.55,0.4,0.33,0.42,0.25" style="fill:rgb(0,0,0);font-family:URWPalladioL-Roma;font-size:8.97px;stroke:none;">materials in the previous reports.</text>
   <text y="134.222" x="76.186,83.162,88.64,91.626,97.105,102.09,105.5883,107.811,114.284,119.27,124.748,127.734,131.222,134.208,139.686,145.165,148.15,151.136,156.121,161.6,165.581" svgx:width="0.78,0.61,0.33,0.61,0.56,0.39,0.55,0.72,0.56,0.61,0.33,0.39,0.33,0.61,0.61,0.33,0.33,0.56,0.61,0.44,0.25" style="fill:rgb(0,0,0);font-family:URWPalladioL-Bold;font-size:8.97px;stroke:none;">Author Contributions:</text>
   <text y="134.222" x="170.961,177.375,182.315,187.581,191.597,195.931,201.368,204.318,209.773,214.297,216.929,219.562,224.086,228.609,231.558,234.191,239.131,244.396,246.6385,248.893,251.905,254.167,261.17,263.4125,265.666,270.19,275.455,280.9267,283.226,288.266,290.527,297.53,299.792,302.0345,304.288,307.337,312.602,317.714,322.047,325.883,328.833,331.465,336.496,341.019,343.969,346.601,351.541,356.806,359.0485,361.303,364.315,366.577,373.58,375.8225,378.085,382.609,387.874,393.3457,395.637,400.676,402.938,409.94,412.202,414.4445,416.698,421.448,426.903,432.341,436.674,440.248,445.359,447.992,451.828,454.461,459.4,464.666,466.9085,469.162,474.69,476.952,482.48,484.7225,486.985,491.509,496.774,502.2457,504.536,507.549,509.811,515.339,517.6" svgx:width="0.71,0.55,0.58,0.44,0.48,0.6,0.33,0.6,0.5,0.29,0.29,0.5,0.5,0.33,0.29,0.55,0.58,0.25,0.55,0.33,0.25,0.77,0.25,0.55,0.5,0.58,0.61,0.55,0.67,0.25,0.77,0.25,0.25,0.55,0.34,0.58,0.56,0.48,0.42,0.33,0.29,0.56,0.5,0.33,0.29,0.55,0.58,0.25,0.55,0.33,0.25,0.77,0.25,0.55,0.5,0.58,0.61,0.55,0.67,0.25,0.77,0.25,0.25,0.55,0.52,0.6,0.6,0.48,0.4,0.56,0.29,0.42,0.29,0.55,0.58,0.25,0.55,0.61,0.25,0.61,0.25,0.55,0.5,0.58,0.61,0.55,0.33,0.25,0.61,0.25,0.25" style="fill:rgb(0,0,0);font-family:URWPalladioL-Roma;font-size:8.97px;stroke:none;">Conceptualization, J.D. and Y.D.; Investigation, J.D. and Y.D.; Supervision, L.L. and J.L.;</text>
   <text y="144.354" x="76.087,84.565,88.178,90.839,93.821,96.482,101.805,106.89,116.036,121.029,124.642,127.303,132.388,135.05,140.372,144.945,147.5463,149.838,155.426,159.039,163.612,166.657,169.639,171.88150000000002,174.148,177.193,179.479,186.558,188.8005,191.067,195.64,200.963,206.4347,208.782,213.886,216.172,223.251,225.537,227.7795,230.055,238.533,242.146,244.807,247.789,250.45,255.773,260.858,270.004,273.452,277.833,283.0,285.661,290.042,297.4871,299.901,304.474,309.797,315.2687,317.607,321.988,327.576,330.238,333.219,335.881,341.203,346.288,348.5305,350.797,356.897,359.184,365.284,367.571,369.81350000000003,372.089,376.89,379.176,383.978,386.264,388.5065,390.782,395.355,400.678,406.1497,408.489,416.098,418.384,425.463,427.75,429.9925,432.268,439.346,442.008,445.885,449.946,455.461,459.339,463.217,465.878,470.872,476.194,478.4365,481.609,484.654,486.941,494.019,496.306,498.5485,500.815,505.927,508.214,515.292,517.579" svgx:width="1.0,0.4,0.29,0.33,0.29,0.58,0.56,1.0,0.55,0.4,0.29,0.56,0.29,0.58,0.5,0.29,0.55,0.61,0.4,0.5,0.33,0.33,0.25,0.55,0.33,0.25,0.77,0.25,0.55,0.5,0.58,0.61,0.55,0.67,0.25,0.77,0.25,0.25,0.55,1.0,0.4,0.29,0.33,0.29,0.58,0.56,1.0,0.4,0.48,0.56,0.29,0.48,0.83,0.55,0.5,0.58,0.61,0.55,0.48,0.61,0.29,0.33,0.29,0.58,0.56,0.25,0.55,0.67,0.25,0.67,0.25,0.25,0.55,0.52,0.25,0.52,0.25,0.25,0.55,0.5,0.58,0.61,0.55,0.83,0.25,0.77,0.25,0.25,0.55,0.77,0.29,0.42,0.44,0.6,0.42,0.42,0.29,0.55,0.58,0.25,0.55,0.33,0.25,0.77,0.25,0.25,0.55,0.67,0.25,0.77,0.25,0.25" style="fill:rgb(0,0,0);font-family:URWPalladioL-Roma;font-size:8.97px;stroke:none;">Writing—original draft, J.D. and Y.D.; Writing—review and editing, Z.X., S.S., and H.D.; Discussion: J.D., Y.D.,</text>
   <text y="154.486" x="76.535,83.995,86.237,93.177,95.41950000000001,97.66,104.636,107.245,109.8463,112.096,116.579,121.986,124.909,130.127,135.023,138.565,142.3324,144.608,149.826,154.31,159.376,163.6816,165.912,169.292,173.587,178.071,183.5427,185.791,190.274,195.492,200.9637,203.212,207.696,212.681,216.061,220.356,224.651,230.1227,232.371,235.294,240.22750000000002,242.431,245.354,250.573,254.8786,257.109,262.498,267.905,272.863,275.473,278.082,281.884,287.102,291.397,296.8687,299.117,304.183,308.478,312.02,315.821,318.431,323.326,328.52860000000004,330.786,335.682,338.6421,340.909,343.832,349.051,353.3566,355.587,363.505,367.988,373.206,378.613,382.415,386.396,389.938,392.547,397.936,400.859" svgx:width="0.83,0.25,0.77,0.25,0.55,0.78,0.29,0.29,0.55,0.5,0.6,0.33,0.58,0.55,0.4,0.42,0.55,0.58,0.5,0.56,0.48,0.55,0.4,0.48,0.5,0.61,0.55,0.5,0.58,0.61,0.55,0.5,0.56,0.4,0.48,0.48,0.61,0.55,0.33,0.55,0.55,0.33,0.58,0.48,0.55,0.6,0.6,0.55,0.29,0.29,0.42,0.58,0.48,0.61,0.55,0.56,0.48,0.4,0.42,0.29,0.55,0.58,0.55,0.55,0.33,0.55,0.33,0.58,0.48,0.55,0.88,0.5,0.58,0.6,0.42,0.44,0.4,0.29,0.6,0.33,0.25" style="fill:rgb(0,0,0);font-family:URWPalladioL-Roma;font-size:8.97px;stroke:none;">H.D. All authors have read and agreed to the published version of the manuscript.</text>
   <text y="170.596" x="76.535,81.52,86.999,92.477,97.956,100.942,106.42,111.405" svgx:width="0.56,0.61,0.61,0.61,0.33,0.61,0.56,0.25" style="fill:rgb(0,0,0);font-family:URWPalladioL-Bold;font-size:8.97px;stroke:none;">Funding:</text>
   <text y="170.596" x="116.785,122.281,127.5,130.109,133.87640000000002,136.152,143.63,148.526,152.068,157.09120000000001,159.295,161.904,165.6714,167.947,171.749,177.156,182.545,187.933,192.829,196.371,199.294,203.589,209.0607,211.309,216.267,221.2902,223.494,226.417,231.636,235.9416,238.172,245.623,250.106,253.03,255.639,260.534,265.753,270.236,272.83729999999997,275.087,282.538,287.021,289.944,295.351,298.893,303.376,305.97729999999996,308.227,312.934,316.915,319.524,323.819,329.038,333.019,337.32460000000003,339.555,344.541,349.436,354.843,360.061,365.54,370.023,372.946,375.555,380.451,385.65360000000004,387.911,392.807,395.7671,398.034,404.391,409.61,412.219,417.437,421.922,424.162,427.148,431.631,436.115,440.598,445.081,449.564,454.047,458.531,463.014,466.0" svgx:width="0.61,0.58,0.29,0.42,0.55,0.83,0.55,0.4,0.56,0.55,0.29,0.42,0.55,0.42,0.6,0.6,0.6,0.55,0.4,0.33,0.48,0.61,0.55,0.55,0.56,0.55,0.33,0.58,0.48,0.55,0.83,0.5,0.33,0.29,0.55,0.58,0.5,0.29,0.55,0.83,0.5,0.33,0.6,0.4,0.5,0.29,0.55,0.52,0.44,0.29,0.48,0.58,0.44,0.48,0.55,0.56,0.55,0.6,0.58,0.61,0.5,0.33,0.29,0.55,0.58,0.55,0.55,0.33,0.55,0.71,0.58,0.29,0.58,0.5,0.55,0.33,0.5,0.5,0.5,0.5,0.5,0.5,0.5,0.5,0.33,0.25" style="fill:rgb(0,0,0);font-family:URWPalladioL-Roma;font-size:8.97px;stroke:none;">This work is supported by the National Natural Science Foundation of China (21806015).</text>
   <text y="186.705" x="76.186,83.162,87.143,92.621,98.1,103.085,110.554,113.54,118.023,123.502,128.487,136.458,140.941,146.42,149.406,153.387" svgx:width="0.78,0.44,0.61,0.61,0.56,0.83,0.33,0.5,0.61,0.56,0.89,0.5,0.61,0.33,0.44,0.25" style="fill:rgb(0,0,0);font-family:URWPalladioL-Bold;font-size:8.97px;stroke:none;">Acknowledgments:</text>
   <text y="186.705" x="158.765,166.907,171.2126,173.443,178.921,183.216,187.511,192.9,195.509,200.5322,202.736,205.659,210.878,215.361,220.579,225.6022,227.806,235.948,240.243,242.8443,245.094,251.451,256.669,262.051,264.318,266.927,272.12960000000004,274.387,279.094,281.703,285.684,290.903,296.31,300.793,305.9956,308.253,315.229,320.447,323.056,328.122,332.417,335.959,339.761,342.37,345.293,350.3162,352.52,355.506,360.401,363.98900000000003,366.185,369.108,374.326,378.63160000000005,380.863,385.848,389.228,393.523,398.006,400.9661,403.171,406.973,412.38,417.768,423.157,428.053,431.595,434.55510000000004,436.759,441.242,446.461,451.9327,454.181,459.399,463.694,466.304,471.692" svgx:width="1.0,0.48,0.55,0.61,0.48,0.48,0.6,0.29,0.56,0.55,0.33,0.58,0.5,0.58,0.56,0.55,1.0,0.48,0.29,0.55,0.71,0.58,0.6,0.55,0.29,0.58,0.55,0.52,0.29,0.44,0.58,0.6,0.5,0.58,0.55,0.78,0.58,0.29,0.56,0.48,0.4,0.42,0.29,0.33,0.56,0.55,0.33,0.55,0.4,0.55,0.33,0.58,0.48,0.55,0.56,0.4,0.48,0.5,0.33,0.55,0.42,0.6,0.6,0.6,0.55,0.4,0.33,0.55,0.5,0.58,0.61,0.55,0.58,0.48,0.29,0.6,0.25" style="fill:rgb(0,0,0);font-family:URWPalladioL-Roma;font-size:8.97px;stroke:none;">We deeply thank Wei Chu in Sichuan University for the great support and help.</text>
   <text y="202.815" x="76.535,83.009,87.994,93.473,98.951,101.937,105.918,108.904,112.85079999999999,115.126,120.112,123.6103,125.841,129.329,134.808,137.793,142.277,145.765,150.248,154.229,157.215" svgx:width="0.72,0.56,0.61,0.61,0.33,0.44,0.33,0.44,0.55,0.56,0.39,0.55,0.39,0.61,0.33,0.5,0.39,0.5,0.44,0.33,0.25" style="fill:rgb(0,0,0);font-family:URWPalladioL-Bold;font-size:8.97px;stroke:none;">Conﬂicts of Interest:</text>
   <text y="202.815" x="162.594,168.09,173.309,177.6146,179.845,184.329,189.735,192.658,197.877,202.772,206.314,210.0814,212.358,217.836,222.131,226.112,228.721,233.204,236.585,240.8906,243.121,248.34,253.2735,255.477,259.458,264.354,269.572,275.024,277.633,281.614,284.5741,286.779,291.674,294.6341,296.902,299.511,304.729,307.652,311.947,315.328,319.623,323.424,326.347" svgx:width="0.61,0.58,0.48,0.55,0.5,0.6,0.33,0.58,0.55,0.4,0.42,0.55,0.61,0.48,0.44,0.29,0.5,0.4,0.48,0.55,0.58,0.55,0.55,0.44,0.55,0.58,0.61,0.29,0.44,0.33,0.55,0.55,0.33,0.55,0.29,0.58,0.33,0.48,0.4,0.48,0.42,0.33,0.25" style="fill:rgb(0,0,0);font-family:URWPalladioL-Roma;font-size:8.97px;stroke:none;">The authors declare no conﬂict of interest.</text>
   <text y="229.116" x="76.535,83.728,88.709,92.585,97.566,101.442,106.423,112.51,116.933,121.915" svgx:width="0.72,0.5,0.39,0.5,0.39,0.5,0.61,0.44,0.5,0.44" style="fill:rgb(0,0,0);font-family:URWPalladioL-Bold;font-size:9.96px;stroke:none;">References</text>
   <text y="248.006" x="76.535,81.018,83.26050000000001,98.05,103.419,105.976,111.275,113.51750000000001,115.703,122.504,124.701,126.9435,129.13,135.36,139.753,144.551,146.7935,148.98,155.684,157.9265,160.104,165.473,170.587,175.473,178.03,183.144,187.353,191.562,195.033,197.59,202.704,207.7272,209.822,214.936,219.329,224.443,229.241,232.967,235.831,239.232,244.531,248.432,251.297,256.595,259.899,264.108,269.5797,271.709,275.918,278.475,282.684,286.585,289.45,292.754,297.552,302.921,307.13,310.8974,313.087,317.481,322.595,328.0667,330.196,333.122,337.515,342.374,345.845,348.402,352.304,356.697,359.562,362.119,366.917,372.1196,374.254,379.052,382.01210000000003,384.21,389.526,392.083,402.074,406.283,408.84,413.049,416.95,419.815,423.119,427.917,433.285,437.494,441.26140000000004,443.452,446.378,451.176,454.764,456.879" svgx:width="0.5,0.25,0.55,0.61,0.29,0.6,0.25,0.55,0.77,0.25,0.25,0.55,0.71,0.5,0.55,0.25,0.55,0.76,0.25,0.55,0.61,0.58,0.56,0.29,0.58,0.48,0.48,0.4,0.29,0.58,0.56,0.55,0.58,0.5,0.58,0.55,0.42,0.33,0.4,0.6,0.44,0.33,0.6,0.4,0.48,0.61,0.55,0.48,0.29,0.48,0.44,0.33,0.4,0.55,0.61,0.48,0.42,0.55,0.5,0.58,0.61,0.55,0.33,0.5,0.55,0.4,0.29,0.44,0.5,0.33,0.29,0.55,0.58,0.55,0.55,0.33,0.55,0.61,0.29,0.88,0.48,0.29,0.48,0.44,0.33,0.4,0.55,0.61,0.48,0.42,0.55,0.33,0.55,0.4,0.55,0.48" style="fill:rgb(0,0,0);font-family:URWPalladioL-Roma;font-size:8.97px;stroke:none;">1. Liu, D.; Cao, G. Engineering nanostructured electrodes and fabrication of ﬁlmelectrodes for e</text>
   <text y="248.006" x="461.083" svgx:width="0.92" style="fill:rgb(0,0,0);font-family:Rpxr;font-size:8.97px;stroke:none;">ﬃ</text>
   <text y="248.006" x="469.159,473.06,475.617,479.827,484.941,487.9011,490.037,492.594,495.151,498.016,503.13,505.687,510.985" svgx:width="0.44,0.29,0.48,0.58,0.33,0.55,0.29,0.29,0.33,0.58,0.29,0.6,0.88" style="fill:rgb(0,0,0);font-family:URWPalladioL-Roma;font-size:8.97px;stroke:none;">cient lithium</text>
   <text y="260.917" x="98.05,100.659,105.555,110.75760000000001,113.015,115.624,120.843,123.766,128.061,131.441,135.422,139.905,142.514,146.998,149.921,152.53,157.426,162.644" svgx:width="0.29,0.55,0.58,0.55,0.29,0.58,0.33,0.48,0.4,0.44,0.5,0.29,0.5,0.33,0.29,0.55,0.58,0.25" style="fill:rgb(0,0,0);font-family:URWPalladioL-Roma;font-size:8.97px;stroke:none;">ion intercalation.</text>
   <text y="260.917" x="168.023,173.501,178.487,181.975,185.301,189.784,194.269,196.509,201.988,206.973,211.456,213.949,217.275,221.257,226.242,228.4845,231.622,236.607,240.256,242.749" svgx:width="0.61,0.56,0.39,0.39,0.5,0.5,0.55,0.61,0.56,0.5,0.28,0.39,0.44,0.56,0.25,0.55,0.56,0.41,0.28,0.25" style="fill:rgb(0,0,0);font-family:URWPalladioL-Ital;font-size:8.97px;stroke:none;">Energy Environ. Sci.</text>
   <text y="260.917" x="248.128,252.611,257.094,261.578" svgx:width="0.5,0.5,0.5,0.5" style="fill:rgb(0,0,0);font-family:URWPalladioL-Bold;font-size:8.97px;stroke:none;">2010</text>
   <text y="260.917" x="266.061" svgx:width="0.25" style="fill:rgb(0,0,0);font-family:URWPalladioL-Roma;font-size:8.97px;stroke:none;">,</text>
   <text y="260.917" x="270.544" svgx:width="0.5" style="fill:rgb(0,0,0);font-family:URWPalladioL-Ital;font-size:8.97px;stroke:none;">3</text>
   <text y="260.917" x="275.027,277.2695,279.51,283.993,288.477,292.96,297.443,301.926,306.41,310.893,315.376,319.859,322.1015,325.239" svgx:width="0.25,0.55,0.5,0.5,0.5,0.5,0.5,0.5,0.5,0.5,0.5,0.25,0.55,0.33" style="fill:rgb(0,0,0);font-family:URWPalladioL-Roma;font-size:8.97px;stroke:none;">, 1218–1237. [</text>
   <text y="260.917" x="328.225,334.582,337.962,342.858,346.66,350.462,356.451,360.746" svgx:width="0.71,0.4,0.55,0.42,0.42,0.67,0.48,0.33" style="fill:rgb(8,117,183);font-family:URWPalladioL-Roma;font-size:8.97px;stroke:none;">CrossRef</text>
   <text y="260.917" x="363.732" svgx:width="0.33" style="fill:rgb(0,0,0);font-family:URWPalladioL-Roma;font-size:8.97px;stroke:none;">]</text>
   <text y="273.829" x="76.535,81.018,83.26050000000001,98.05,106.069,110.489,115.634,120.55,122.7925,124.997,129.895,132.105,134.3475,136.552,141.954,144.526,146.76850000000002,148.973,156.329,158.539,160.7815,162.986,170.342,174.577,176.8195,179.024,183.205,185.415,187.6575,189.862,197.218,202.045,205.794,210.621,215.766,220.593,222.8355,225.04,230.442,232.652,234.8945,237.099,242.996,248.142,252.969,258.3,260.5425,262.747,270.102,272.3445,274.549,281.896,286.316,291.462,296.39549999999997,298.526,302.946,306.863,309.745,312.317,317.312,321.61760000000004,323.784,331.59,336.011,338.893,343.128,346.62,349.193,353.613,356.186,359.9534,362.171,365.115,369.942,373.53000000000003,375.671,378.244,380.816,383.699,388.844,391.417,396.748,404.554,407.498,410.071,414.898,420.10060000000004,422.28,427.169,431.59,434.472,437.354,441.589,445.081,447.653,451.888,455.637" svgx:width="0.5,0.25,0.55,1.0,0.5,0.58,0.56,0.25,0.55,0.67,0.25,0.25,0.55,0.61,0.29,0.25,0.55,0.83,0.25,0.25,0.55,0.83,0.48,0.25,0.55,0.6,0.25,0.25,0.55,0.83,0.55,0.42,0.55,0.58,0.55,0.25,0.55,0.61,0.25,0.25,0.55,0.67,0.58,0.55,0.6,0.25,0.55,0.83,0.25,0.55,0.83,0.5,0.58,0.55,0.55,0.5,0.44,0.33,0.29,0.56,0.48,0.55,0.88,0.5,0.33,0.48,0.4,0.29,0.5,0.29,0.42,0.55,0.33,0.55,0.4,0.55,0.29,0.29,0.33,0.58,0.29,0.6,0.88,0.33,0.29,0.55,0.58,0.55,0.55,0.5,0.33,0.33,0.48,0.4,0.29,0.48,0.42,0.25" style="fill:rgb(0,0,0);font-family:URWPalladioL-Roma;font-size:8.97px;stroke:none;">2. Wang, Y.; Li, H.; He, P.; Hosono, E.; Zhou, H. Nano active materials for lithium-ion batteries.</text>
   <text y="273.829" x="460.979,467.857,471.783,476.698,480.623,484.063,487.661,491.586,494.044" svgx:width="0.78,0.44,0.56,0.44,0.39,0.41,0.44,0.28,0.39" style="fill:rgb(0,0,0);font-family:URWPalladioL-Ital;font-size:8.97px;stroke:none;">Nanoscale</text>
   <text y="273.829" x="499.718,504.201,508.684,513.168" svgx:width="0.5,0.5,0.5,0.5" style="fill:rgb(0,0,0);font-family:URWPalladioL-Bold;font-size:8.97px;stroke:none;">2010</text>
   <text y="273.829" x="517.651" svgx:width="0.25" style="fill:rgb(0,0,0);font-family:URWPalladioL-Roma;font-size:8.97px;stroke:none;">,</text>
   <text y="286.74" x="97.826" svgx:width="0.5" style="fill:rgb(0,0,0);font-family:URWPalladioL-Ital;font-size:8.97px;stroke:none;">2</text>
   <text y="286.74" x="102.31,104.55250000000001,106.793,111.276,115.76,120.243,124.726,129.209,133.692,138.176,142.659,147.142,149.3845,152.522" svgx:width="0.25,0.55,0.5,0.5,0.5,0.5,0.5,0.5,0.5,0.5,0.5,0.25,0.55,0.33" style="fill:rgb(0,0,0);font-family:URWPalladioL-Roma;font-size:8.97px;stroke:none;">, 1294–1305. [</text>
   <text y="286.74" x="155.508,161.865,165.245,170.141,173.943,177.744,183.734,188.029" svgx:width="0.71,0.4,0.55,0.42,0.42,0.67,0.48,0.33" style="fill:rgb(8,117,183);font-family:URWPalladioL-Roma;font-size:8.97px;stroke:none;">CrossRef</text>
   <text y="286.74" x="191.015,193.9751,196.242" svgx:width="0.33,0.55,0.33" style="fill:rgb(0,0,0);font-family:URWPalladioL-Roma;font-size:8.97px;stroke:none;">] [</text>
   <text y="286.74" x="199.228,204.644,210.05,215.009,223.491,227.786" svgx:width="0.6,0.6,0.55,0.95,0.48,0.61" style="fill:rgb(8,117,183);font-family:URWPalladioL-Roma;font-size:8.97px;stroke:none;">PubMed</text>
   <text y="286.74" x="233.264" svgx:width="0.33" style="fill:rgb(0,0,0);font-family:URWPalladioL-Roma;font-size:8.97px;stroke:none;">]</text>
   <text y="299.652" x="76.535,81.018,83.26050000000001,98.05,104.09,109.361,114.306,119.766,122.00850000000001,124.276,129.81,132.074,134.31650000000002,136.575,142.615,147.886,152.414,157.684,162.719,164.9615,167.229,173.804,176.068,178.31050000000002,180.569,188.104,193.564,195.8065,198.074,204.115,206.379,208.6215,210.889,215.607,220.135,225.079,227.32150000000001,229.589,235.63,237.894,240.1365,242.404,250.971,255.499,258.134,260.3765,262.635,268.168,270.432,272.6745,274.942,281.517,286.045,291.316,296.351,298.5935,300.852,305.896,308.16,316.727,318.991,321.2335,323.501,329.922,335.192,340.137,345.598,347.8405,350.108,354.862,357.126,362.659,364.923,367.1655,369.424,375.845,381.115,385.453,390.724,392.9665,395.234,398.25,400.4925,402.75,408.8,413.138,417.159,421.496,426.767,429.7271,431.965,437.499,441.836,446.953,451.291,453.926,458.871,464.314,472.31,476.648,481.919,484.871,488.6384,490.947,495.892,501.0946,503.409,507.937,513.207" svgx:width="0.5,0.25,0.55,0.67,0.58,0.55,0.6,0.25,0.55,0.61,0.25,0.25,0.55,0.67,0.58,0.5,0.58,0.56,0.25,0.55,0.73,0.25,0.25,0.55,0.83,0.6,0.25,0.55,0.67,0.25,0.25,0.55,0.61,0.5,0.55,0.25,0.55,0.67,0.25,0.25,0.55,0.95,0.5,0.29,0.25,0.55,0.61,0.25,0.25,0.55,0.73,0.5,0.58,0.56,0.25,0.55,0.67,0.25,0.95,0.25,0.25,0.55,0.71,0.58,0.55,0.6,0.25,0.55,0.52,0.25,0.61,0.25,0.25,0.55,0.71,0.58,0.48,0.58,0.25,0.55,0.33,0.25,0.55,0.67,0.48,0.44,0.48,0.58,0.33,0.55,0.61,0.48,0.56,0.48,0.29,0.55,0.6,0.88,0.48,0.58,0.33,0.42,0.55,0.55,0.58,0.55,0.5,0.58,0.61" style="fill:rgb(0,0,0);font-family:URWPalladioL-Roma;font-size:8.97px;stroke:none;">3. Zhou, L.; Zhang, K.; Hu, Z.; Tao, Z.; Mai, L.; Kang, Y.M.; Chou, S.L.; Chen, J. Recent developments on and</text>
   <text y="312.564" x="97.781,103.272,106.717,111.705,115.579,121.071,125.447,129.504,132.482,136.2494,138.595,141.637,146.626,150.214,152.483,156.859,159.518,163.895,167.951,170.93,174.375,179.363,184.946,189.2516,191.561,199.629,204.197,207.176,211.552,215.161,217.82,222.388,225.047,228.8144,231.16,238.78,241.438,244.417,249.6196,251.973,257.291,259.949,264.326,267.935,272.503,275.948,280.005,285.322,287.981,292.038,296.606,299.2073,301.513,305.387,308.365,311.901,317.411,321.467,324.446,329.955,333.4,337.776,341.5434,343.889,346.931,351.92,355.50800000000004,357.768,360.426,363.085,366.064,371.381,374.04,379.55,387.617,390.66,393.319,398.307,403.50960000000003,405.863,410.916,415.484,418.463,421.442,425.818,429.427,432.086,436.462,440.336" svgx:width="0.6,0.4,0.55,0.42,0.6,0.48,0.44,0.33,0.42,0.55,0.33,0.55,0.4,0.55,0.48,0.29,0.48,0.44,0.33,0.4,0.55,0.61,0.48,0.55,0.88,0.5,0.33,0.48,0.4,0.29,0.5,0.29,0.42,0.55,0.83,0.29,0.33,0.58,0.55,0.58,0.29,0.48,0.4,0.5,0.4,0.44,0.58,0.29,0.44,0.5,0.29,0.55,0.42,0.33,0.4,0.6,0.44,0.33,0.6,0.4,0.48,0.42,0.55,0.33,0.55,0.4,0.55,0.29,0.29,0.33,0.58,0.29,0.6,0.88,0.33,0.29,0.55,0.58,0.55,0.55,0.5,0.33,0.33,0.48,0.4,0.29,0.48,0.42,0.25" style="fill:rgb(0,0,0);font-family:URWPalladioL-Roma;font-size:8.97px;stroke:none;">prospects for electrode materials with hierarchical structures for lithium-ion batteries.</text>
   <text y="312.564" x="445.76,452.357,456.925,461.0,463.2425,466.418,472.001,477.081,480.635,484.034,488.602,493.087,495.409,504.034,508.091,511.134,514.688,517.575" svgx:width="0.72,0.5,0.5,0.25,0.55,0.61,0.56,0.39,0.39,0.5,0.5,0.55,0.94,0.44,0.33,0.39,0.39,0.25" style="fill:rgb(0,0,0);font-family:URWPalladioL-Ital;font-size:8.97px;stroke:none;">Adv. Energy Mater.</text>
   <text y="325.475" x="98.05,102.533,107.016,111.5" svgx:width="0.5,0.5,0.5,0.5" style="fill:rgb(0,0,0);font-family:URWPalladioL-Bold;font-size:8.97px;stroke:none;">2018</text>
   <text y="325.475" x="115.983" svgx:width="0.25" style="fill:rgb(0,0,0);font-family:URWPalladioL-Roma;font-size:8.97px;stroke:none;">,</text>
   <text y="325.475" x="120.466" svgx:width="0.5" style="fill:rgb(0,0,0);font-family:URWPalladioL-Ital;font-size:8.97px;stroke:none;">8</text>
   <text y="325.475" x="124.95,127.19250000000001,129.433,133.916,138.4,142.883,147.366,151.849,156.332,160.816,163.0585,166.195" svgx:width="0.25,0.55,0.5,0.5,0.5,0.5,0.5,0.5,0.5,0.25,0.55,0.33" style="fill:rgb(0,0,0);font-family:URWPalladioL-Roma;font-size:8.97px;stroke:none;">, 1701415. [</text>
   <text y="325.475" x="169.181,175.538,178.919,183.814,187.616,191.418,197.408,201.702" svgx:width="0.71,0.4,0.55,0.42,0.42,0.67,0.48,0.33" style="fill:rgb(8,117,183);font-family:URWPalladioL-Roma;font-size:8.97px;stroke:none;">CrossRef</text>
   <text y="325.475" x="204.688" svgx:width="0.33" style="fill:rgb(0,0,0);font-family:URWPalladioL-Roma;font-size:8.97px;stroke:none;">]</text>
   <text y="338.387" x="76.535,81.018,83.26050000000001,98.05,104.957,107.514,109.7565,111.547,119.508,121.705,123.9475,125.87,130.483,135.597,139.991,145.272,148.136,152.345,155.148,157.3905,159.182,162.108,164.305,171.009,173.206,175.4485,177.371,185.71,191.008,193.25050000000002,195.033,201.94,204.136,206.3785,208.301,213.67,216.227,221.341,223.58350000000002,225.375,230.093,232.29,234.5325,236.455,243.16,247.553,252.351,254.5935,256.384,263.089,265.286,267.5285,269.451,275.681,280.979,283.536,285.7785,287.561,294.362,296.60450000000003,298.395,305.697,310.091,315.205,320.003,323.728,326.593,329.994,335.292,339.194,342.058,347.357,350.661,354.87,360.3417,362.075,366.469,371.583,376.38,381.749,386.05460000000005,387.786,395.545,399.939,402.803,407.012,410.483,413.04,417.434,419.991,423.7584,425.553,428.479,433.277,436.865,438.575,441.132,443.689,446.554,451.668,454.225,459.524,467.283,470.209,472.766,477.563,482.7656,484.514,489.373,493.767,496.631,499.496,503.705,507.176,509.733,513.942,517.668" svgx:width="0.5,0.25,0.55,0.79,0.29,0.25,0.55,1.0,0.25,0.25,0.55,0.52,0.58,0.5,0.6,0.33,0.48,0.4,0.25,0.55,0.33,0.25,0.76,0.25,0.25,0.55,1.0,0.6,0.25,0.55,0.79,0.25,0.25,0.55,0.67,0.29,0.58,0.25,0.55,0.61,0.25,0.25,0.55,0.76,0.5,0.55,0.25,0.55,0.76,0.25,0.25,0.55,0.71,0.6,0.29,0.25,0.55,0.77,0.25,0.55,0.83,0.5,0.58,0.55,0.42,0.33,0.4,0.6,0.44,0.33,0.6,0.4,0.48,0.61,0.55,0.5,0.58,0.55,0.61,0.48,0.55,0.88,0.5,0.33,0.48,0.4,0.29,0.5,0.29,0.42,0.55,0.33,0.55,0.4,0.55,0.29,0.29,0.33,0.58,0.29,0.6,0.88,0.33,0.29,0.55,0.58,0.55,0.55,0.5,0.33,0.33,0.48,0.4,0.29,0.48,0.42,0.25" style="fill:rgb(0,0,0);font-family:URWPalladioL-Roma;font-size:8.97px;stroke:none;">4. Qi, W.; Shapter, J.G.; Wu, Q.; Yin, T.; Gao, G.; Cui, D. Nanostructured anode materials for lithium-ion batteries:</text>
   <text y="351.298" x="98.05,103.466,107.007,109.617,114.835,118.816,121.425,126.814,129.423,133.718,135.9605,138.202,141.582,145.877,149.858,154.153,159.371,162.33110000000002,164.536,169.925,173.305,178.201,183.186,186.566,190.861,194.663,198.43040000000002,200.706,205.19,210.408,215.87969999999999,218.128,221.114,226.521,229.444,234.85,238.231,242.5366,244.767,250.156,254.451,257.993,261.794,267.183,271.478,275.459,278.382,280.991,286.057,290.352,294.154" svgx:width="0.6,0.4,0.29,0.58,0.44,0.29,0.6,0.29,0.48,0.25,0.55,0.4,0.48,0.44,0.48,0.58,0.33,0.55,0.6,0.4,0.55,0.56,0.4,0.48,0.42,0.42,0.55,0.5,0.58,0.61,0.55,0.33,0.6,0.33,0.6,0.4,0.48,0.55,0.6,0.48,0.4,0.42,0.6,0.48,0.44,0.33,0.29,0.56,0.48,0.42,0.25" style="fill:rgb(0,0,0);font-family:URWPalladioL-Roma;font-size:8.97px;stroke:none;">Principle, recent progress and future perspectives.</text>
   <text y="351.298" x="299.531,302.517,304.7595,307.0,315.464,319.445,322.431,325.919,328.744,330.98650000000004,334.123,340.104,344.587,348.075,355.051,357.2935,360.431" svgx:width="0.33,0.25,0.55,0.94,0.44,0.33,0.39,0.39,0.25,0.55,0.67,0.5,0.39,0.78,0.25,0.55,0.72" style="fill:rgb(0,0,0);font-family:URWPalladioL-Ital;font-size:8.97px;stroke:none;">J. Mater. Chem. A</text>
   <text y="351.298" x="369.145,373.628,378.111,382.595" svgx:width="0.5,0.5,0.5,0.5" style="fill:rgb(0,0,0);font-family:URWPalladioL-Bold;font-size:8.97px;stroke:none;">2017</text>
   <text y="351.298" x="387.078" svgx:width="0.25" style="fill:rgb(0,0,0);font-family:URWPalladioL-Roma;font-size:8.97px;stroke:none;">,</text>
   <text y="351.298" x="391.561" svgx:width="0.5" style="fill:rgb(0,0,0);font-family:URWPalladioL-Ital;font-size:8.97px;stroke:none;">5</text>
   <text y="351.298" x="396.045,398.2875,400.528,405.011,409.495,413.978,418.461,422.944,427.428,431.911,436.394,440.877,445.36,449.844,452.0865,455.223" svgx:width="0.25,0.55,0.5,0.5,0.5,0.5,0.5,0.5,0.5,0.5,0.5,0.5,0.5,0.25,0.55,0.33" style="fill:rgb(0,0,0);font-family:URWPalladioL-Roma;font-size:8.97px;stroke:none;">, 19521–19540. [</text>
   <text y="351.298" x="458.209,464.566,467.947,472.842,476.644,480.446,486.436,490.73" svgx:width="0.71,0.4,0.55,0.42,0.42,0.67,0.48,0.33" style="fill:rgb(8,117,183);font-family:URWPalladioL-Roma;font-size:8.97px;stroke:none;">CrossRef</text>
   <text y="351.298" x="493.716" svgx:width="0.33" style="fill:rgb(0,0,0);font-family:URWPalladioL-Roma;font-size:8.97px;stroke:none;">]</text>
   <text y="364.21" x="76.535,81.018,83.26050000000001,98.05,103.622,106.275,111.774,114.01650000000001,116.288,119.324,121.604,123.8465,126.118,131.689,134.343,139.842,142.08450000000002,144.355,150.438,152.717,161.006,163.2485,165.52,170.299,177.904,182.882,185.919,191.491,194.144,202.196,206.564,211.871,215.738,218.391,223.37,228.677,233.237,235.8383,238.124,243.432,247.991,253.298,258.277,262.836,266.274,270.323,275.63,278.284,281.256,285.624,289.673,292.646,298.145,301.582,305.95,309.7174,312.051,315.087,320.066,323.654,325.902,328.556,331.209,334.182,339.489,342.143,347.641,355.5346,357.918,361.785,364.758,369.736,373.338,377.898,382.968,387.336" svgx:width="0.5,0.25,0.55,0.61,0.29,0.6,0.25,0.55,0.33,0.25,0.25,0.55,0.61,0.29,0.6,0.25,0.55,0.67,0.25,1.0,0.25,0.55,0.61,0.83,0.55,0.33,0.61,0.29,0.88,0.48,0.58,0.42,0.29,0.55,0.58,0.5,0.29,0.55,0.58,0.5,0.58,0.55,0.5,0.4,0.44,0.58,0.29,0.33,0.48,0.44,0.33,0.6,0.4,0.48,0.42,0.55,0.33,0.55,0.4,0.55,0.29,0.29,0.33,0.58,0.29,0.6,0.88,0.55,0.42,0.33,0.55,0.4,0.5,0.56,0.48,0.25" style="fill:rgb(0,0,0);font-family:URWPalladioL-Roma;font-size:8.97px;stroke:none;">5. Liu, J.; Liu, X.W. Two-dimensional nanoarchitectures for lithium storage.</text>
   <text y="364.21" x="392.754,399.338,403.897,407.964,410.2065,413.381,421.989,426.038,429.074,432.621,435.503" svgx:width="0.72,0.5,0.5,0.25,0.55,0.94,0.44,0.33,0.39,0.39,0.25" style="fill:rgb(0,0,0);font-family:URWPalladioL-Ital;font-size:8.97px;stroke:none;">Adv. Mater.</text>
   <text y="364.21" x="440.917,445.4,449.883,454.367" svgx:width="0.5,0.5,0.5,0.5" style="fill:rgb(0,0,0);font-family:URWPalladioL-Bold;font-size:8.97px;stroke:none;">2012</text>
   <text y="364.21" x="458.85" svgx:width="0.25" style="fill:rgb(0,0,0);font-family:URWPalladioL-Roma;font-size:8.97px;stroke:none;">,</text>
   <text y="364.21" x="463.363,467.922" svgx:width="0.5,0.5" style="fill:rgb(0,0,0);font-family:URWPalladioL-Ital;font-size:8.97px;stroke:none;">24</text>
   <text y="364.21" x="472.482,474.72450000000003,476.996,481.555,486.115,490.674,495.233,499.793,504.352,508.912,513.471,518.031" svgx:width="0.25,0.55,0.5,0.5,0.5,0.5,0.5,0.5,0.5,0.5,0.5,0.25" style="fill:rgb(0,0,0);font-family:URWPalladioL-Roma;font-size:8.97px;stroke:none;">, 4097–4111.</text>
   <text y="377.122" x="98.05" svgx:width="0.33" style="fill:rgb(0,0,0);font-family:URWPalladioL-Roma;font-size:8.97px;stroke:none;">[</text>
   <text y="377.122" x="101.036,107.393,110.773,115.669,119.471,123.272,129.262,133.557" svgx:width="0.71,0.4,0.55,0.42,0.42,0.67,0.48,0.33" style="fill:rgb(8,117,183);font-family:URWPalladioL-Roma;font-size:8.97px;stroke:none;">CrossRef</text>
   <text y="377.122" x="136.543,139.50310000000002,141.77" svgx:width="0.33,0.55,0.33" style="fill:rgb(0,0,0);font-family:URWPalladioL-Roma;font-size:8.97px;stroke:none;">] [</text>
   <text y="377.122" x="144.756,150.172,155.578,160.537,169.019,173.314" svgx:width="0.6,0.6,0.55,0.95,0.48,0.61" style="fill:rgb(8,117,183);font-family:URWPalladioL-Roma;font-size:8.97px;stroke:none;">PubMed</text>
   <text y="377.122" x="178.792" svgx:width="0.33" style="fill:rgb(0,0,0);font-family:URWPalladioL-Roma;font-size:8.97px;stroke:none;">]</text>
   <text y="390.033" x="76.535,81.018,83.26050000000001,98.05,103.419,105.976,111.275,113.51750000000001,115.58,122.487,124.684,126.9265,129.024,135.826,141.124,143.3665,145.43,151.66,153.857,156.0995,158.206,162.82,167.934,172.143,177.257,179.4995,181.554,186.922,189.119,191.3615,193.469,199.33,204.628,209.426,211.6685,213.723,217.879,220.076,222.3185,224.417,230.647,235.761,239.97,245.084,249.97,252.2125,254.275,260.136,262.333,264.57550000000003,266.683,274.995,279.389,281.6315,283.686,288.554,290.75,292.9925,295.1,300.469,303.026,308.14,310.3825,312.437,319.142,321.338,323.58050000000003,325.688,332.392,336.786,341.584,343.8265,345.881,350.749,352.99150000000003,355.054,361.891,367.005,372.374,376.583,380.053,383.779,386.644,391.037,396.151,401.52,404.077,409.191,414.21419999999995,416.177,421.476,426.59,431.959,436.168,439.893,442.45,445.921,450.315,455.174,457.731,462.0366,464.049,468.443,473.557,478.354,483.723,488.02860000000004,490.032,492.589,495.146,498.011,503.125,505.682,510.981" svgx:width="0.5,0.25,0.55,0.61,0.29,0.6,0.25,0.55,0.79,0.25,0.25,0.55,0.77,0.6,0.25,0.55,0.71,0.25,0.25,0.55,0.52,0.58,0.48,0.58,0.25,0.55,0.61,0.25,0.25,0.55,0.67,0.6,0.55,0.25,0.55,0.6,0.25,0.25,0.55,0.71,0.58,0.48,0.58,0.56,0.25,0.55,0.67,0.25,0.25,0.55,0.95,0.5,0.25,0.55,0.67,0.25,0.25,0.55,0.67,0.29,0.58,0.25,0.55,0.76,0.25,0.25,0.55,0.76,0.5,0.55,0.25,0.55,0.67,0.25,0.55,0.78,0.58,0.61,0.48,0.4,0.42,0.33,0.5,0.58,0.61,0.29,0.58,0.56,0.55,0.6,0.58,0.61,0.48,0.42,0.29,0.4,0.5,0.55,0.29,0.48,0.55,0.5,0.58,0.55,0.61,0.48,0.55,0.29,0.29,0.33,0.58,0.29,0.6,0.88" style="fill:rgb(0,0,0);font-family:URWPalladioL-Roma;font-size:8.97px;stroke:none;">6. Liu, Q.; Du, C.; Shen, B.; Zuo, P.; Cheng, X.; Ma, Y.; Yin, G.; Gao, Y. Understanding undesirable anode lithium</text>
   <text y="402.945" x="97.781,103.17,105.779,110.262,113.185,115.795,121.013,126.03620000000001,128.24,130.849,134.651,138.453,143.859,148.154,151.9214,154.198,156.807,162.00959999999998,164.267,166.876,169.485,172.408,177.627,180.236,185.643,193.56,196.546,199.155,204.051,209.25359999999998,211.511,216.469,220.952,223.876,226.799,231.093,234.635,237.244,241.539,245.341" svgx:width="0.6,0.29,0.5,0.33,0.29,0.58,0.56,0.55,0.29,0.42,0.42,0.6,0.48,0.42,0.55,0.29,0.58,0.55,0.29,0.29,0.33,0.58,0.29,0.6,0.88,0.33,0.29,0.55,0.58,0.55,0.55,0.5,0.33,0.33,0.48,0.4,0.29,0.48,0.42,0.25" style="fill:rgb(0,0,0);font-family:URWPalladioL-Roma;font-size:8.97px;stroke:none;">plating issues in lithium-ion batteries.</text>
   <text y="402.945" x="250.719,256.7,261.685,267.6949,269.907,276.381,280.864,284.854" svgx:width="0.67,0.56,0.67,0.55,0.72,0.5,0.5,0.25" style="fill:rgb(0,0,0);font-family:URWPalladioL-Ital;font-size:8.97px;stroke:none;">RSC Adv.</text>
   <text y="402.945" x="290.233,294.716,299.199,303.683" svgx:width="0.5,0.5,0.5,0.5" style="fill:rgb(0,0,0);font-family:URWPalladioL-Bold;font-size:8.97px;stroke:none;">2016</text>
   <text y="402.945" x="308.166" svgx:width="0.25" style="fill:rgb(0,0,0);font-family:URWPalladioL-Roma;font-size:8.97px;stroke:none;">,</text>
   <text y="402.945" x="312.649" svgx:width="0.5" style="fill:rgb(0,0,0);font-family:URWPalladioL-Ital;font-size:8.97px;stroke:none;">6</text>
   <text y="402.945" x="317.132,319.3745,321.615,326.098,330.582,335.065,339.548,344.031,348.515,352.998,357.481,361.964,366.447,370.931,373.1735,376.31" svgx:width="0.25,0.55,0.5,0.5,0.5,0.5,0.5,0.5,0.5,0.5,0.5,0.5,0.5,0.25,0.55,0.33" style="fill:rgb(0,0,0);font-family:URWPalladioL-Roma;font-size:8.97px;stroke:none;">, 88683–88700. [</text>
   <text y="402.945" x="379.296,385.653,389.034,393.929,397.731,401.533,407.522,411.817" svgx:width="0.71,0.4,0.55,0.42,0.42,0.67,0.48,0.33" style="fill:rgb(8,117,183);font-family:URWPalladioL-Roma;font-size:8.97px;stroke:none;">CrossRef</text>
   <text y="402.945" x="414.803" svgx:width="0.33" style="fill:rgb(0,0,0);font-family:URWPalladioL-Roma;font-size:8.97px;stroke:none;">]</text>
   <text y="415.857" x="76.535,81.018,83.26050000000001,98.05,105.011,109.921,117.422,122.656,125.273,129.581,131.8235,134.059,139.554,141.802,147.297,149.546,151.7885,154.024,160.553,164.106,168.602,174.025,177.839,182.146,184.3885,186.625,192.12,194.368,197.363,199.611,201.8535,204.09,209.585,215.008,218.56,223.794,227.607,232.104,234.34650000000002,236.583,239.577,241.826,248.202,250.45,252.6925,254.929,257.924,262.232,267.466,271.279,275.587,280.821,283.06350000000003,285.299,290.794,293.043,300.003,302.252,304.4945,306.73,313.107,318.341,322.649,327.73,331.282,333.899,338.207,341.094,343.3365,345.573,350.906,353.154,358.649,360.897,363.1395,365.385,372.346,376.842,382.076,387.31,389.5525,391.78,394.775,397.023,403.031,405.2735,407.509,410.54,415.74260000000004,418.005,422.726,425.343,428.275,433.657,435.928,442.889,447.197,450.129,454.437,458.43,461.361,463.978,468.889,474.0916,476.353,481.264,484.2241,486.48,491.975,494.592,497.523,502.758,505.375,510.798" svgx:width="0.5,0.25,0.55,0.77,0.55,0.83,0.58,0.29,0.48,0.25,0.55,0.61,0.25,0.61,0.25,0.25,0.55,0.73,0.4,0.5,0.6,0.42,0.48,0.25,0.55,0.61,0.25,0.33,0.25,0.25,0.55,0.61,0.6,0.4,0.58,0.42,0.5,0.25,0.55,0.33,0.25,0.71,0.25,0.25,0.55,0.33,0.48,0.58,0.42,0.48,0.58,0.25,0.55,0.61,0.25,0.77,0.25,0.25,0.55,0.71,0.58,0.48,0.56,0.4,0.29,0.48,0.4,0.25,0.55,0.72,0.25,0.61,0.25,0.25,0.55,0.77,0.5,0.58,0.58,0.25,0.55,0.33,0.25,0.67,0.25,0.55,0.34,0.58,0.55,0.52,0.29,0.33,0.6,0.55,0.77,0.48,0.33,0.48,0.44,0.33,0.29,0.55,0.58,0.55,0.55,0.33,0.55,0.61,0.29,0.33,0.58,0.29,0.6,0.88" style="fill:rgb(0,0,0);font-family:URWPalladioL-Roma;font-size:8.97px;stroke:none;">7. Downie, L.E.; Krause, L.J.; Burnsa, J.C.; Jensen, L.D.; Chevrier, V.L.; Dahn, J.R. In Situ Detection of Lithium</text>
   <text y="428.768" x="98.05,103.558,106.211,110.771,113.744,116.397,121.704,126.7272,128.999,133.978,139.1806,141.501,148.459,152.061,156.62,162.101,167.408,170.061,173.034,177.3396,179.627,185.199,187.852,192.22,196.269,199.242,202.679,207.658,213.23,217.598,221.36540000000002,223.689,228.732,233.7552,236.027,241.599,244.252,248.62,252.669,255.642,259.079,264.058,268.107,273.414,277.782,285.834,288.488,292.536,297.096,299.6973,301.974,308.44,312.999,315.653,320.632,324.233,326.887,334.939,339.298,342.271,345.872,349.949" svgx:width="0.6,0.29,0.5,0.33,0.29,0.58,0.56,0.55,0.55,0.58,0.55,0.76,0.4,0.5,0.6,0.58,0.29,0.33,0.48,0.55,0.61,0.29,0.48,0.44,0.33,0.4,0.55,0.61,0.48,0.42,0.55,0.55,0.56,0.55,0.61,0.29,0.48,0.44,0.33,0.4,0.55,0.44,0.58,0.48,0.88,0.29,0.44,0.5,0.29,0.55,0.71,0.5,0.29,0.55,0.4,0.29,0.88,0.48,0.33,0.4,0.56,0.25" style="fill:rgb(0,0,0);font-family:URWPalladioL-Roma;font-size:8.97px;stroke:none;">Plating on Graphite Electrodes by Electrochemical Calorimetry.</text>
   <text y="428.768" x="355.363,358.4,360.6425,362.904,368.476,371.011,374.558,378.269,381.306,384.689,388.738,392.449,397.009,400.556,407.65,409.8925,413.058,418.128,422.177,425.888" svgx:width="0.33,0.25,0.55,0.61,0.28,0.39,0.41,0.33,0.39,0.44,0.41,0.5,0.39,0.78,0.25,0.55,0.56,0.44,0.41,0.25" style="fill:rgb(0,0,0);font-family:URWPalladioL-Ital;font-size:8.97px;stroke:none;">J. Electrochem. Soc.</text>
   <text y="428.768" x="431.302,435.785,440.268,444.752" svgx:width="0.5,0.5,0.5,0.5" style="fill:rgb(0,0,0);font-family:URWPalladioL-Bold;font-size:8.97px;stroke:none;">2013</text>
   <text y="428.768" x="449.235" svgx:width="0.25" style="fill:rgb(0,0,0);font-family:URWPalladioL-Roma;font-size:8.97px;stroke:none;">,</text>
   <text y="428.768" x="453.741,458.3,462.86" svgx:width="0.5,0.5,0.5" style="fill:rgb(0,0,0);font-family:URWPalladioL-Ital;font-size:8.97px;stroke:none;">160</text>
   <text y="428.768" x="467.419,469.6615,471.924,479.018,483.578,488.137,492.696,497.256,504.35,508.91,513.469,518.029" svgx:width="0.25,0.55,0.78,0.5,0.5,0.5,0.5,0.78,0.5,0.5,0.5,0.25" style="fill:rgb(0,0,0);font-family:URWPalladioL-Roma;font-size:8.97px;stroke:none;">, A588–A594.</text>
   <text y="441.68" x="98.05" svgx:width="0.33" style="fill:rgb(0,0,0);font-family:URWPalladioL-Roma;font-size:8.97px;stroke:none;">[</text>
   <text y="441.68" x="101.036,107.393,110.773,115.669,119.471,123.272,129.262,133.557" svgx:width="0.71,0.4,0.55,0.42,0.42,0.67,0.48,0.33" style="fill:rgb(8,117,183);font-family:URWPalladioL-Roma;font-size:8.97px;stroke:none;">CrossRef</text>
   <text y="441.68" x="136.543" svgx:width="0.33" style="fill:rgb(0,0,0);font-family:URWPalladioL-Roma;font-size:8.97px;stroke:none;">]</text>
   <text y="454.591" x="76.535,81.018,83.26050000000001,98.05,103.911,109.025,113.419,118.216,120.4585,122.302,128.682,130.879,133.1215,135.079,140.386,145.5,149.894,153.365,156.176,158.4185,160.262,168.575,170.772,173.0145,174.972,181.316,183.873,188.267,191.993,195.718,200.112,204.997,207.23950000000002,209.083,212.01,214.206,217.132,219.329,221.57150000000001,223.529,228.143,233.441,238.239,240.4815,242.325,248.186,250.4285,252.272,257.158,260.628,265.022,268.923,271.788,277.087,280.399,284.7046,286.489,291.286,294.2461,296.102,300.311,302.868,307.077,310.978,313.843,317.156,321.953,327.322,331.531,335.2984,337.146,339.703,344.9056,346.707,349.264,351.821,354.685,359.799,362.356,367.655,375.414,378.34,380.897,385.695,390.8976,392.698,397.557,401.951,404.815,407.68,411.889,415.36,417.917,422.126,425.8934,427.732,431.634,436.027,441.326,445.051,449.26,454.7317,456.519,461.378,466.40119999999996,468.153,471.079,475.472,479.198,482.1581,483.952,487.853,492.967,497.361,500.674,505.559,508.116,513.23,518.116" svgx:width="0.5,0.25,0.55,0.67,0.58,0.5,0.55,0.25,0.55,0.73,0.25,0.25,0.55,0.6,0.58,0.5,0.4,0.4,0.25,0.55,0.95,0.25,0.25,0.55,0.72,0.29,0.5,0.42,0.42,0.5,0.56,0.25,0.55,0.33,0.25,0.33,0.25,0.25,0.55,0.52,0.6,0.55,0.25,0.55,0.67,0.25,0.55,0.56,0.4,0.5,0.44,0.33,0.6,0.4,0.48,0.55,0.55,0.33,0.55,0.48,0.29,0.48,0.44,0.33,0.4,0.55,0.61,0.48,0.42,0.55,0.29,0.58,0.55,0.29,0.29,0.33,0.58,0.29,0.6,0.88,0.33,0.29,0.55,0.58,0.55,0.55,0.5,0.33,0.33,0.48,0.4,0.29,0.48,0.42,0.55,0.44,0.5,0.6,0.42,0.48,0.61,0.55,0.55,0.56,0.55,0.33,0.5,0.42,0.33,0.55,0.44,0.58,0.5,0.4,0.56,0.29,0.58,0.56,0.25" style="fill:rgb(0,0,0);font-family:URWPalladioL-Roma;font-size:8.97px;stroke:none;">8. Zhao, K.; Pharr, M.; Vlassak, J.J.; Suo, Z. Fracture of electrodes in lithium-ion batteries caused by fast charging.</text>
   <text y="467.503" x="98.05,101.036,103.27850000000001,105.519,111.993,116.476,120.959,123.452,125.6945,128.832,134.31,138.793,143.277,146.764" svgx:width="0.33,0.25,0.55,0.72,0.5,0.5,0.28,0.25,0.55,0.61,0.5,0.5,0.39,0.25" style="fill:rgb(0,0,0);font-family:URWPalladioL-Ital;font-size:8.97px;stroke:none;">J. Appl. Phys.</text>
   <text y="467.503" x="152.144,156.627,161.11,165.594" svgx:width="0.5,0.5,0.5,0.5" style="fill:rgb(0,0,0);font-family:URWPalladioL-Bold;font-size:8.97px;stroke:none;">2010</text>
   <text y="467.503" x="170.077" svgx:width="0.25" style="fill:rgb(0,0,0);font-family:URWPalladioL-Roma;font-size:8.97px;stroke:none;">,</text>
   <text y="467.503" x="174.56,179.043,183.526" svgx:width="0.5,0.5,0.5" style="fill:rgb(0,0,0);font-family:URWPalladioL-Ital;font-size:8.97px;stroke:none;">108</text>
   <text y="467.503" x="188.01,190.2525,192.493,196.976,201.46,205.943,210.426,214.909,219.392,221.6345,224.772" svgx:width="0.25,0.55,0.5,0.5,0.5,0.5,0.5,0.5,0.25,0.55,0.33" style="fill:rgb(0,0,0);font-family:URWPalladioL-Roma;font-size:8.97px;stroke:none;">, 073517. [</text>
   <text y="467.503" x="227.758,234.115,237.496,242.391,246.193,249.995,255.984,260.279" svgx:width="0.71,0.4,0.55,0.42,0.42,0.67,0.48,0.33" style="fill:rgb(8,117,183);font-family:URWPalladioL-Roma;font-size:8.97px;stroke:none;">CrossRef</text>
   <text y="467.503" x="263.265" svgx:width="0.33" style="fill:rgb(0,0,0);font-family:URWPalladioL-Roma;font-size:8.97px;stroke:none;">]</text>
   <text y="480.415" x="76.535,81.018,83.26050000000001,98.05,103.953,109.103,113.343,118.493,123.414,125.65650000000001,127.874,132.777,134.989,137.2315,139.45,146.406,151.742,156.663,161.087,166.238,171.159,173.4015,175.619,183.991,186.203,192.956,195.168,197.4105,199.62,205.027,210.363,212.6055,214.824,220.231,222.443,224.68550000000002,226.904,232.311,234.886,237.1285,239.338,242.285,244.5275,246.745,253.63,258.781,264.188,268.427,271.923,275.675,278.56,282.985,288.136,293.543,296.118,301.269,306.2922,308.437,312.862,317.783,320.358,325.509,330.5322,332.668,340.483,344.722,348.651,353.802,358.227,363.377,365.952,369.705,377.519,381.2864,383.519,386.095,391.29760000000005,393.484,396.06,398.635,401.52,406.671,409.246,414.582,422.397,425.344,427.919,432.751,437.9536,440.15,445.043,449.468,452.353,455.238,459.478,462.973,467.9962,470.142,475.46,479.885,483.815,488.735,492.487,494.72950000000003,497.842,502.762,506.098,510.93" svgx:width="0.5,0.25,0.55,0.67,0.58,0.48,0.58,0.56,0.25,0.55,0.67,0.25,0.25,0.55,0.79,0.6,0.56,0.5,0.58,0.56,0.25,0.55,0.95,0.25,0.76,0.25,0.25,0.55,0.61,0.6,0.25,0.55,0.61,0.25,0.25,0.55,0.61,0.29,0.25,0.55,0.33,0.25,0.55,0.78,0.58,0.61,0.48,0.4,0.42,0.33,0.5,0.58,0.61,0.29,0.58,0.56,0.55,0.5,0.56,0.29,0.58,0.56,0.55,0.88,0.48,0.44,0.58,0.5,0.58,0.29,0.42,0.88,0.42,0.55,0.29,0.58,0.55,0.29,0.29,0.33,0.58,0.29,0.6,0.88,0.33,0.29,0.55,0.58,0.55,0.55,0.5,0.33,0.33,0.48,0.4,0.56,0.55,0.6,0.5,0.44,0.56,0.42,0.25,0.55,0.56,0.4,0.55,0.88" style="fill:rgb(0,0,0);font-family:URWPalladioL-Roma;font-size:8.97px;stroke:none;">9. Zheng, Y.; Ouyang, M.G.; Lu, L.; Li, J. Understanding aging mechanisms in lithium-ion battery packs: From</text>
   <text y="493.326" x="98.05,102.031,106.326,108.935,111.5363,113.786,117.767,122.25,127.639,132.122,136.103,138.713,141.636,146.6592,148.863,151.472,156.367,160.169,163.93640000000002,166.213,169.136,174.0695,176.273,181.662,186.145,190.126,195.1492,197.353,201.334,205.817,211.206,215.689,219.67,222.279,225.203,230.2262,232.429,236.724,241.79,246.686,249.295,254.702,257.625,260.234,265.13,270.348" svgx:width="0.44,0.48,0.29,0.29,0.55,0.44,0.5,0.6,0.5,0.44,0.29,0.33,0.56,0.55,0.29,0.55,0.42,0.42,0.55,0.33,0.55,0.55,0.6,0.5,0.44,0.56,0.55,0.44,0.5,0.6,0.5,0.44,0.29,0.33,0.56,0.55,0.48,0.56,0.55,0.29,0.6,0.33,0.29,0.55,0.58,0.25" style="fill:rgb(0,0,0);font-family:URWPalladioL-Roma;font-size:8.97px;stroke:none;">cell capacity loss to pack capacity evolution.</text>
   <text y="493.326" x="275.726,278.712,280.9545,283.195,288.674,292.655,299.128,302.616,305.441,307.6835,310.821,315.806,319.787,324.772,328.099,331.748" svgx:width="0.33,0.25,0.55,0.61,0.44,0.72,0.39,0.39,0.25,0.55,0.56,0.44,0.56,0.39,0.41,0.39" style="fill:rgb(0,0,0);font-family:URWPalladioL-Ital;font-size:8.97px;stroke:none;">J. Power. Source</text>
   <text y="493.326" x="337.476,341.959,346.442,350.926" svgx:width="0.5,0.5,0.5,0.5" style="fill:rgb(0,0,0);font-family:URWPalladioL-Bold;font-size:8.97px;stroke:none;">2015</text>
   <text y="493.326" x="355.409" svgx:width="0.25" style="fill:rgb(0,0,0);font-family:URWPalladioL-Roma;font-size:8.97px;stroke:none;">,</text>
   <text y="493.326" x="359.892,364.375,368.858" svgx:width="0.5,0.5,0.5" style="fill:rgb(0,0,0);font-family:URWPalladioL-Ital;font-size:8.97px;stroke:none;">278</text>
   <text y="493.326" x="373.342,375.5845,377.825,382.308,386.792,391.275,395.758,400.241,404.725,409.208,411.45050000000003,414.588" svgx:width="0.25,0.55,0.5,0.5,0.5,0.5,0.5,0.5,0.5,0.25,0.55,0.33" style="fill:rgb(0,0,0);font-family:URWPalladioL-Roma;font-size:8.97px;stroke:none;">, 287–295. [</text>
   <text y="493.326" x="417.573,423.931,427.311,432.207,436.008,439.81,445.8,450.095" svgx:width="0.71,0.4,0.55,0.42,0.42,0.67,0.48,0.33" style="fill:rgb(8,117,183);font-family:URWPalladioL-Roma;font-size:8.97px;stroke:none;">CrossRef</text>
   <text y="493.326" x="453.08" svgx:width="0.33" style="fill:rgb(0,0,0);font-family:URWPalladioL-Roma;font-size:8.97px;stroke:none;">]</text>
   <text y="506.238" x="76.535,81.018,85.501,87.74350000000001,98.05,103.401,107.61,110.475,113.34,117.549,120.352,122.59450000000001,124.657,127.583,129.78,132.0225,134.13,141.432,146.23" svgx:width="0.5,0.5,0.25,0.55,0.72,0.48,0.33,0.33,0.48,0.4,0.25,0.55,0.33,0.25,0.25,0.55,0.83,0.55,0.56" style="fill:rgb(0,0,0);font-family:URWPalladioL-Roma;font-size:8.97px;stroke:none;">10. Vetter, J.; Nov</text>
   <text y="506.238" x="151.192" svgx:width="0.5" style="fill:rgb(0,0,0);font-family:VnURWPalladioL;font-size:8.97px;stroke:none;">á</text>
   <text y="506.238" x="155.675,160.561,162.8035,164.866,169.014,171.211,173.45350000000002,175.56,183.521,187.915,192.8,197.914,202.123,204.935,207.1775,209.232,217.545,219.742,225.611,227.808,230.0505,232.158,237.509,241.718,244.275,247.14,249.3825,251.436,257.667,259.863,262.1055,264.213,272.525,277.323,279.88,282.437,286.646,289.458,291.70050000000003,293.755,300.134,302.331,305.257,311.487,313.684,315.92650000000003,318.034,323.403,327.612,331.337,335.546,340.66,345.775,350.168,353.481,358.85,361.09250000000003,363.155,366.081,368.278,375.185,377.382,379.6245,381.722,390.017,392.574,397.689,400.553,404.762,407.574,409.8165,411.88,420.183,422.389,424.6315,426.73,434.691,439.489,444.603,447.16,450.086,454.479,459.593,463.064,465.929,468.855,477.168,481.377,486.491,489.803,494.012,499.126,502.852,505.0945,507.158,515.47,517.667" svgx:width="0.56,0.25,0.55,0.6,0.25,0.25,0.55,1.0,0.5,0.56,0.58,0.48,0.4,0.25,0.55,0.95,0.25,0.67,0.25,0.25,0.55,0.72,0.48,0.29,0.33,0.25,0.55,0.71,0.25,0.25,0.55,0.95,0.55,0.29,0.29,0.48,0.4,0.25,0.55,0.73,0.25,0.33,0.71,0.25,0.25,0.55,0.61,0.48,0.42,0.48,0.58,0.58,0.5,0.4,0.61,0.25,0.55,0.33,0.25,0.79,0.25,0.25,0.55,1.0,0.29,0.58,0.33,0.48,0.4,0.25,0.55,0.95,0.25,0.25,0.55,1.0,0.55,0.58,0.29,0.33,0.5,0.58,0.4,0.33,0.33,0.95,0.48,0.58,0.4,0.48,0.58,0.42,0.25,0.55,0.95,0.25,0.25" style="fill:rgb(0,0,0);font-family:URWPalladioL-Roma;font-size:8.97px;stroke:none;">k, P.; Wagner, M.R.; Veit, C.; Möller, K.-C.; Besenhard, J.O.; Winter, M.; Wohlfahrt-Mehrens, M.;</text>
   <text y="519.149" x="97.728,103.201,108.092,113.072,115.679,119.969,122.845,125.0875,127.332,133.683,135.923,138.1655,140.419,147.872,152.35,160.26,168.169,173.06,178.461,182.438,187.652,191.942,194.1845,196.43,203.399,205.6415,207.896,214.864,219.845,224.135,226.742,231.955,236.97820000000002,239.184,247.093,251.384,255.361,260.574,265.053,270.266,272.873,276.671,284.58,288.3474,290.626,293.233,298.4356,300.703,303.31,305.917,308.837,314.05,316.657,322.058,329.967,332.95,335.557,340.448,345.6506,347.909,352.863,357.341,360.262,363.182,367.472,371.01,373.617,377.908,381.706" svgx:width="0.72,0.55,0.56,0.29,0.48,0.4,0.25,0.55,0.71,0.25,0.25,0.55,0.83,0.5,0.88,0.88,0.55,0.6,0.44,0.58,0.48,0.25,0.55,0.78,0.25,0.55,0.78,0.56,0.48,0.29,0.58,0.56,0.55,0.88,0.48,0.44,0.58,0.5,0.58,0.29,0.42,0.88,0.42,0.55,0.29,0.58,0.55,0.29,0.29,0.33,0.58,0.29,0.6,0.88,0.33,0.29,0.55,0.58,0.55,0.55,0.5,0.33,0.33,0.48,0.4,0.29,0.48,0.42,0.25" style="fill:rgb(0,0,0);font-family:URWPalladioL-Roma;font-size:8.97px;stroke:none;">Vogler, C.; Hammouche, A. Ageing mechanisms in lithium-ion batteries.</text>
   <text y="519.149" x="387.11,390.093,392.3355,394.58,400.053,404.031,410.498,413.982,417.48030000000006,419.724,424.704,428.681,433.662,436.985,440.631" svgx:width="0.33,0.25,0.55,0.61,0.44,0.72,0.39,0.39,0.55,0.56,0.44,0.56,0.39,0.41,0.39" style="fill:rgb(0,0,0);font-family:URWPalladioL-Ital;font-size:8.97px;stroke:none;">J. Power Source</text>
   <text y="519.149" x="446.364,450.847,455.33,459.814" svgx:width="0.5,0.5,0.5,0.5" style="fill:rgb(0,0,0);font-family:URWPalladioL-Bold;font-size:8.97px;stroke:none;">2005</text>
   <text y="519.149" x="464.296" svgx:width="0.25" style="fill:rgb(0,0,0);font-family:URWPalladioL-Roma;font-size:8.97px;stroke:none;">,</text>
   <text y="519.149" x="468.79,473.269,477.747" svgx:width="0.5,0.5,0.5" style="fill:rgb(0,0,0);font-family:URWPalladioL-Ital;font-size:8.97px;stroke:none;">147</text>
   <text y="519.149" x="482.226,484.4685,486.723,491.201,495.68,500.159,504.638,509.116,513.595,518.074" svgx:width="0.25,0.55,0.5,0.5,0.5,0.5,0.5,0.5,0.5,0.25" style="fill:rgb(0,0,0);font-family:URWPalladioL-Roma;font-size:8.97px;stroke:none;">, 269–281.</text>
   <text y="532.061" x="98.05" svgx:width="0.33" style="fill:rgb(0,0,0);font-family:URWPalladioL-Roma;font-size:8.97px;stroke:none;">[</text>
   <text y="532.061" x="101.036,107.393,110.773,115.669,119.471,123.272,129.262,133.557" svgx:width="0.71,0.4,0.55,0.42,0.42,0.67,0.48,0.33" style="fill:rgb(8,117,183);font-family:URWPalladioL-Roma;font-size:8.97px;stroke:none;">CrossRef</text>
   <text y="532.061" x="136.543" svgx:width="0.33" style="fill:rgb(0,0,0);font-family:URWPalladioL-Roma;font-size:8.97px;stroke:none;">]</text>
   <text y="544.973" x="76.535,81.018,85.501,87.74350000000001,98.05,104.534,109.857,114.238,119.561,121.80350000000001,124.271,127.316,129.603,134.404,136.691,138.9335,141.483,147.071,152.065,157.58,159.82250000000002,162.29,168.39,170.676,178.99,181.23250000000002,183.7,188.501,193.824" svgx:width="0.5,0.5,0.25,0.55,0.71,0.58,0.48,0.58,0.25,0.55,0.33,0.25,0.52,0.25,0.25,0.55,0.61,0.55,0.6,0.25,0.55,0.67,0.25,1.0,0.25,0.55,0.52,0.58,0.79" style="fill:rgb(0,0,0);font-family:URWPalladioL-Roma;font-size:8.97px;stroke:none;">11. Chen, J.S.; Lou, X.W. SnO</text>
   <text y="546.764" x="201.012" svgx:width="0.5" style="fill:rgb(0,0,0);font-family:URWPalladioL-Roma;font-size:6.97px;stroke:none;">2</text>
   <text y="544.973" x="207.417,211.99,217.313,222.7847,225.324,230.437,233.098" svgx:width="0.5,0.58,0.61,0.55,0.61,0.29,0.79" style="fill:rgb(0,0,0);font-family:URWPalladioL-Roma;font-size:8.97px;stroke:none;">and TiO</text>
   <text y="546.764" x="240.284" svgx:width="0.5" style="fill:rgb(0,0,0);font-family:URWPalladioL-Roma;font-size:6.97px;stroke:none;">2</text>
   <text y="544.973" x="246.689,252.012,256.585,261.908,266.901,270.779,276.102,280.482,284.863,287.845,291.61240000000004,294.146,297.192,302.185,305.773,308.212,310.874,313.535,316.517,321.839,324.501,330.016,338.091,341.137,343.798,348.792,353.9946,356.538,361.596,366.169,369.15,372.132,376.513,380.125,382.786,387.167,391.045" svgx:width="0.58,0.5,0.58,0.55,0.42,0.58,0.48,0.48,0.33,0.42,0.55,0.33,0.55,0.4,0.55,0.29,0.29,0.33,0.58,0.29,0.6,0.88,0.33,0.29,0.55,0.58,0.55,0.55,0.5,0.33,0.33,0.48,0.4,0.29,0.48,0.42,0.25" style="fill:rgb(0,0,0);font-family:URWPalladioL-Roma;font-size:8.97px;stroke:none;">nanosheets for lithium-ion batteries.</text>
   <text y="544.973" x="397.001,405.635,409.695,412.741,416.298,419.189,421.4315,425.152,429.743,433.803,438.376,442.437" svgx:width="0.94,0.44,0.33,0.39,0.39,0.25,0.55,0.61,0.44,0.5,0.44,0.5" style="fill:rgb(0,0,0);font-family:URWPalladioL-Ital;font-size:8.97px;stroke:none;">Mater. Today</text>
   <text y="544.973" x="449.432,453.915,458.398,462.882" svgx:width="0.5,0.5,0.5,0.5" style="fill:rgb(0,0,0);font-family:URWPalladioL-Bold;font-size:8.97px;stroke:none;">2012</text>
   <text y="544.973" x="467.365" svgx:width="0.25" style="fill:rgb(0,0,0);font-family:URWPalladioL-Roma;font-size:8.97px;stroke:none;">,</text>
   <text y="544.973" x="472.116,476.689" svgx:width="0.5,0.5" style="fill:rgb(0,0,0);font-family:URWPalladioL-Ital;font-size:8.97px;stroke:none;">15</text>
   <text y="544.973" x="481.262,483.5045,486.009,490.582,495.154,499.727,504.3,508.873,513.446,518.019" svgx:width="0.25,0.55,0.5,0.5,0.5,0.5,0.5,0.5,0.5,0.25" style="fill:rgb(0,0,0);font-family:URWPalladioL-Roma;font-size:8.97px;stroke:none;">, 246–254.</text>
   <text y="557.884" x="98.05" svgx:width="0.33" style="fill:rgb(0,0,0);font-family:URWPalladioL-Roma;font-size:8.97px;stroke:none;">[</text>
   <text y="557.884" x="101.036,107.393,110.773,115.669,119.471,123.272,129.262,133.557" svgx:width="0.71,0.4,0.55,0.42,0.42,0.67,0.48,0.33" style="fill:rgb(8,117,183);font-family:URWPalladioL-Roma;font-size:8.97px;stroke:none;">CrossRef</text>
   <text y="557.884" x="136.543" svgx:width="0.33" style="fill:rgb(0,0,0);font-family:URWPalladioL-Roma;font-size:8.97px;stroke:none;">]</text>
   <text y="570.796" x="76.535,81.018,85.501,87.74350000000001,98.05,105.592,111.058,113.30050000000001,115.573,121.628,123.894,126.13650000000001,128.409,134.455,139.731,144.264,149.539,154.58,156.82250000000002,159.094,166.636,168.902,171.1445,173.417,178.955,184.422,186.6645,188.936,194.982,197.249,199.4915,201.763,207.302,209.94,215.406,217.6485,219.92,222.939,225.205,227.44750000000002,229.729,235.775,240.117,245.384,250.424,252.6665,254.938,263.514,265.78,268.0225,270.304,275.525,280.058,285.333,290.374,292.61650000000003,294.888,300.427,302.693,304.9355,307.207,312.447,317.913,322.446,327.722,329.9645,332.236,337.775,340.041,342.2835,344.555,350.602,355.878,361.344,363.5865,365.858,374.434,376.67650000000003,378.948,386.001,391.277,396.398,400.741,403.378,406.016,408.654,413.93,418.9532,421.209,425.234,428.815,431.453,434.408,437.046,441.071,445.603,448.2043,450.489,454.333,456.971,461.503,465.8086,468.094,473.043,476.0031,478.31,482.335,487.284,491.817,495.397,499.241,503.583,508.859,513.201" svgx:width="0.5,0.5,0.25,0.55,0.83,0.6,0.25,0.55,0.67,0.25,0.25,0.55,0.67,0.58,0.5,0.58,0.56,0.25,0.55,0.83,0.25,0.25,0.55,0.61,0.6,0.25,0.55,0.67,0.25,0.25,0.55,0.61,0.29,0.6,0.25,0.55,0.33,0.25,0.25,0.55,0.67,0.48,0.58,0.56,0.25,0.55,0.95,0.25,0.25,0.55,0.67,0.5,0.58,0.56,0.25,0.55,0.61,0.25,0.25,0.55,0.67,0.6,0.5,0.58,0.25,0.55,0.61,0.25,0.25,0.55,0.67,0.58,0.6,0.25,0.55,0.95,0.25,0.55,0.78,0.58,0.56,0.48,0.29,0.29,0.29,0.58,0.56,0.55,0.44,0.4,0.29,0.33,0.29,0.44,0.5,0.29,0.55,0.42,0.29,0.5,0.48,0.55,0.55,0.33,0.55,0.44,0.55,0.5,0.4,0.42,0.48,0.58,0.48,0.61" style="fill:rgb(0,0,0);font-family:URWPalladioL-Roma;font-size:8.97px;stroke:none;">12. Hu, R.; Zhang, H.; Lu, Z.; Liu, J.; Zeng, M.; Yang, L.; Yuan, B.; Zhu, M. Unveiling critical size of coarsened</text>
   <text y="583.707" x="98.05,102.852,108.05460000000001,110.516,115.838,120.411,125.734,130.728,135.813,139.425,143.998,146.66,151.982,155.7494,158.192,161.238,166.231,169.819,172.185,176.758,180.819,186.142,188.803,193.184,198.351,201.013,206.335,211.3582,213.753,219.075,221.737,226.822,232.0246,234.486,237.934,242.927,248.442,253.765,259.353,262.335,265.947,268.609,273.991,276.447" svgx:width="0.52,0.58,0.55,0.58,0.5,0.58,0.55,0.56,0.4,0.5,0.29,0.58,0.42,0.55,0.33,0.55,0.4,0.55,0.5,0.44,0.58,0.29,0.48,0.56,0.29,0.58,0.56,0.55,0.58,0.29,0.56,0.58,0.55,0.4,0.55,0.6,0.58,0.61,0.33,0.4,0.29,0.6,0.55,0.48" style="fill:rgb(0,0,0);font-family:URWPalladioL-Roma;font-size:8.97px;stroke:none;">Sn nanograins for achieving high roundtrip e</text>
   <text y="583.707" x="280.823" svgx:width="0.92" style="fill:rgb(0,0,0);font-family:Rpxr;font-size:8.97px;stroke:none;">ﬃ</text>
   <text y="583.707" x="289.228,293.289,295.95,300.331,305.654,309.714,314.7372,317.141,322.134,325.0941,327.512,330.96,335.341,340.508,344.889,348.501,352.379,355.041,360.098,362.76,367.0656,369.482,373.542,378.536,383.859,389.026,393.407,397.019,400.897,403.559,408.552,413.75460000000004,416.207,419.664,424.045,428.618,432.679,435.66,438.322,443.315,448.5176,450.97,453.631,458.8336,461.296,463.957,466.618,469.6,474.923,477.584,482.157,485.138,489.519,494.9907,497.439,502.241,507.564" svgx:width="0.44,0.29,0.48,0.58,0.44,0.56,0.55,0.55,0.33,0.55,0.4,0.48,0.56,0.48,0.4,0.42,0.29,0.55,0.29,0.48,0.55,0.44,0.55,0.58,0.56,0.48,0.4,0.42,0.29,0.55,0.58,0.55,0.4,0.48,0.5,0.44,0.33,0.29,0.55,0.58,0.55,0.29,0.58,0.55,0.29,0.29,0.33,0.58,0.29,0.5,0.33,0.48,0.61,0.55,0.52,0.58,0.79" style="fill:rgb(0,0,0);font-family:URWPalladioL-Roma;font-size:8.97px;stroke:none;">ciency of reversible conversion reaction in lithiated SnO</text>
   <text y="585.499" x="514.755" svgx:width="0.5" style="fill:rgb(0,0,0);font-family:URWPalladioL-Roma;font-size:6.97px;stroke:none;">2</text>
   <text y="596.619" x="98.05,103.268,107.752,112.97,117.866,121.847,125.389,130.374,134.176,137.099,141.582,144.191,147.993" svgx:width="0.58,0.5,0.58,0.55,0.44,0.4,0.56,0.42,0.33,0.5,0.29,0.42,0.25" style="fill:rgb(0,0,0);font-family:URWPalladioL-Roma;font-size:8.97px;stroke:none;">nanocrystals.</text>
   <text y="596.619" x="153.372,160.348,164.329,169.314,173.2608,175.537,181.015,186.001,189.489,192.815,197.298" svgx:width="0.78,0.44,0.56,0.44,0.55,0.61,0.56,0.39,0.39,0.5,0.5" style="fill:rgb(0,0,0);font-family:URWPalladioL-Ital;font-size:8.97px;stroke:none;">Nano Energy</text>
   <text y="596.619" x="204.023,208.506,212.989,217.473" svgx:width="0.5,0.5,0.5,0.5" style="fill:rgb(0,0,0);font-family:URWPalladioL-Bold;font-size:8.97px;stroke:none;">2018</text>
   <text y="596.619" x="221.956" svgx:width="0.25" style="fill:rgb(0,0,0);font-family:URWPalladioL-Roma;font-size:8.97px;stroke:none;">,</text>
   <text y="596.619" x="226.439,230.922" svgx:width="0.5,0.5" style="fill:rgb(0,0,0);font-family:URWPalladioL-Ital;font-size:8.97px;stroke:none;">45</text>
   <text y="596.619" x="235.405,237.6475,239.888,244.371,248.855,253.338,257.821,262.304,266.787,271.271,273.5135,276.65" svgx:width="0.25,0.55,0.5,0.5,0.5,0.5,0.5,0.5,0.5,0.25,0.55,0.33" style="fill:rgb(0,0,0);font-family:URWPalladioL-Roma;font-size:8.97px;stroke:none;">, 255–265. [</text>
   <text y="596.619" x="279.636,285.993,289.374,294.269,298.071,301.873,307.863,312.157" svgx:width="0.71,0.4,0.55,0.42,0.42,0.67,0.48,0.33" style="fill:rgb(8,117,183);font-family:URWPalladioL-Roma;font-size:8.97px;stroke:none;">CrossRef</text>
   <text y="596.619" x="315.143" svgx:width="0.33" style="fill:rgb(0,0,0);font-family:URWPalladioL-Roma;font-size:8.97px;stroke:none;">]</text>
   <text y="609.531" x="76.535,81.018,85.501,87.74350000000001,98.05,104.483,109.765,114.111,119.392,124.437,126.6795,128.947,134.01,136.279,138.5215,140.789,146.351,148.991,151.23350000000002,153.501,159.554,161.822,164.0645,166.332,174.58,179.117,184.398,189.443,191.68550000000002,193.953,200.386,202.655,204.8975,207.174,215.794,221.266,223.5085,225.785,230.839,233.107,235.3495,237.617,245.865,250.402,255.683,260.729,262.9715,265.238,270.783,273.0255,275.301,281.735,286.689,291.97,294.928,298.349,303.304,305.944,308.585,313.122,318.14,320.78,325.0856,327.368,330.39,334.927,339.944,343.529,346.169,350.198,354.735,357.693,360.334,365.288,370.49060000000003,372.811,377.765,380.7251,383.028" svgx:width="0.5,0.5,0.25,0.55,0.71,0.58,0.48,0.58,0.56,0.25,0.55,0.67,0.25,0.25,0.55,0.67,0.29,0.25,0.55,0.67,0.25,0.25,0.55,1.0,0.5,0.58,0.56,0.25,0.55,0.71,0.25,0.25,0.55,1.0,0.6,0.25,0.55,0.67,0.25,0.25,0.55,1.0,0.5,0.58,0.56,0.25,0.55,0.61,0.25,0.55,0.71,0.55,0.58,0.33,0.4,0.55,0.29,0.29,0.5,0.55,0.29,0.48,0.55,0.33,0.5,0.55,0.4,0.29,0.44,0.5,0.33,0.29,0.55,0.58,0.55,0.55,0.33,0.55,0.71" style="fill:rgb(0,0,0);font-family:URWPalladioL-Roma;font-size:8.97px;stroke:none;">13. Cheng, Y.; Yi, Z.; Wang, C.; Wu, Y.; Wang, L. Controllable fabrication of C</text>
   <text y="609.531" x="389.465" svgx:width="0.29" style="fill:rgb(0,0,0);font-family:Rpxr;font-size:8.97px;stroke:none;">/</text>
   <text y="609.531" x="392.069,396.833,402.03560000000004,404.355,408.892,414.173,419.6447,421.959" svgx:width="0.52,0.58,0.55,0.5,0.58,0.61,0.55,0.71" style="fill:rgb(0,0,0);font-family:URWPalladioL-Roma;font-size:8.97px;stroke:none;">Sn and C</text>
   <text y="609.531" x="428.396" svgx:width="0.29" style="fill:rgb(0,0,0);font-family:Rpxr;font-size:8.97px;stroke:none;">/</text>
   <text y="609.531" x="431.001,435.765,441.046" svgx:width="0.52,0.58,0.79" style="fill:rgb(0,0,0);font-family:URWPalladioL-Roma;font-size:8.97px;stroke:none;">SnO</text>
   <text y="609.531" x="448.178" svgx:width="0.29" style="fill:rgb(0,0,0);font-family:Rpxr;font-size:8.97px;stroke:none;">/</text>
   <text y="609.531" x="450.782,455.546,460.7486,463.068,467.097,472.051,480.064,485.517,490.472,494.319,496.96,499.918,504.264,508.0314,510.353,514.89" svgx:width="0.52,0.58,0.55,0.44,0.55,0.88,0.6,0.55,0.42,0.29,0.33,0.48,0.42,0.55,0.5,0.42" style="fill:rgb(0,0,0);font-family:URWPalladioL-Roma;font-size:8.97px;stroke:none;">Sn composites as</text>
   <text y="622.442" x="98.05,102.529,107.742,112.633,118.106,122.41159999999999,124.636,132.545,137.024,139.944,144.235,147.773,150.379,154.858,157.465,161.2324,163.502,166.485,171.376,174.964,177.153,182.366,184.973,189.953,195.167,198.149,203.533,207.814,211.353,214.335,219.226,222.764,230.674,235.152,240.366,244.343,248.6486,250.873,253.479,256.086,259.006,264.219,266.826,272.227,280.137,283.12,285.726,290.617,295.81960000000004,298.07,303.023,307.502,310.422,313.342,317.633,321.171,323.777,328.068,331.866" svgx:width="0.5,0.58,0.55,0.61,0.48,0.55,0.88,0.5,0.33,0.48,0.4,0.29,0.5,0.29,0.42,0.55,0.33,0.55,0.4,0.55,0.58,0.29,0.56,0.58,0.33,0.6,0.48,0.4,0.33,0.55,0.4,0.88,0.5,0.58,0.44,0.48,0.55,0.29,0.29,0.33,0.58,0.29,0.6,0.88,0.33,0.29,0.55,0.58,0.55,0.55,0.5,0.33,0.33,0.48,0.4,0.29,0.48,0.42,0.25" style="fill:rgb(0,0,0);font-family:URWPalladioL-Roma;font-size:8.97px;stroke:none;">anode materials for high-performance lithium-ion batteries.</text>
   <text y="622.442" x="337.242,343.217,347.695,351.18,358.149,360.3915,363.523,368.996,373.976,378.455,380.6975,383.83,386.812" svgx:width="0.67,0.5,0.39,0.78,0.25,0.55,0.61,0.56,0.5,0.25,0.55,0.33,0.25" style="fill:rgb(0,0,0);font-family:URWPalladioL-Ital;font-size:8.97px;stroke:none;">Chem. Eng. J.</text>
   <text y="622.442" x="391.294,395.777,400.26,404.744" svgx:width="0.5,0.5,0.5,0.5" style="fill:rgb(0,0,0);font-family:URWPalladioL-Bold;font-size:8.97px;stroke:none;">2017</text>
   <text y="622.442" x="409.226" svgx:width="0.25" style="fill:rgb(0,0,0);font-family:URWPalladioL-Roma;font-size:8.97px;stroke:none;">,</text>
   <text y="622.442" x="413.705,418.184,422.662" svgx:width="0.5,0.5,0.5" style="fill:rgb(0,0,0);font-family:URWPalladioL-Ital;font-size:8.97px;stroke:none;">330</text>
   <text y="622.442" x="427.141,429.3835,431.62,436.098,440.577,445.056,449.535,454.013,458.492,462.971,467.45,471.928,474.1705,477.303" svgx:width="0.25,0.55,0.5,0.5,0.5,0.5,0.5,0.5,0.5,0.5,0.5,0.25,0.55,0.33" style="fill:rgb(0,0,0);font-family:URWPalladioL-Roma;font-size:8.97px;stroke:none;">, 1035–1043. [</text>
   <text y="622.442" x="480.286,486.636,490.013,494.904,498.702,502.5,508.483,512.774" svgx:width="0.71,0.4,0.55,0.42,0.42,0.67,0.48,0.33" style="fill:rgb(8,117,183);font-family:URWPalladioL-Roma;font-size:8.97px;stroke:none;">CrossRef</text>
   <text y="622.442" x="515.757" svgx:width="0.33" style="fill:rgb(0,0,0);font-family:URWPalladioL-Roma;font-size:8.97px;stroke:none;">]</text>
   <text y="635.354" x="76.535,81.018,85.501,87.74350000000001,98.05,105.137,107.788,110.0305,112.298,120.579,122.856,125.0985,127.366,134.945,140.438,144.993,150.295,155.36,157.60250000000002,159.87,165.946,168.223,170.46550000000002,172.733,181.396,186.889,189.13150000000002,191.39,196.956,199.233,201.4755,203.743,210.794,216.287,218.5295,220.796,226.873,229.15,231.3925,233.659,239.736,244.71,250.203,252.4455,254.712,261.171,263.449,265.6915,267.958,275.537,279.901,282.1435,284.401,290.478,292.755,294.9975,297.264,302.521,307.076,310.938,314.801,319.356,322.289,324.5315,326.789,332.875,335.152,339.935,342.212,344.4545,346.731,354.31,359.804,364.359,369.661,374.726,376.9685,379.226,387.516,389.793,392.0355,394.303,399.568,405.061,407.3035,409.571,414.49,416.7325,418.99,426.57,429.221,434.286,439.588,442.621,446.22,450.775,453.745,458.108,460.3505,462.618,465.268,470.242,475.544,480.56719999999996,482.841,486.886,491.951,495.996,498.647,503.011,506.044,508.695,511.346,514.38" svgx:width="0.5,0.5,0.25,0.55,0.78,0.29,0.25,0.55,1.0,0.25,0.25,0.55,0.83,0.6,0.5,0.58,0.56,0.25,0.55,0.67,0.25,0.25,0.55,1.0,0.6,0.25,0.55,0.61,0.25,0.25,0.55,0.77,0.6,0.25,0.55,0.67,0.25,0.25,0.55,0.67,0.55,0.6,0.25,0.55,0.71,0.25,0.25,0.55,0.83,0.48,0.25,0.55,0.67,0.25,0.25,0.55,0.67,0.5,0.42,0.42,0.5,0.4,0.25,0.55,0.67,0.25,0.52,0.25,0.25,0.55,0.83,0.6,0.5,0.58,0.56,0.25,0.55,1.0,0.25,0.25,0.55,0.67,0.6,0.25,0.55,0.61,0.25,0.55,0.83,0.29,0.56,0.58,0.33,0.4,0.5,0.33,0.48,0.25,0.55,0.29,0.55,0.58,0.56,0.55,0.44,0.56,0.44,0.29,0.48,0.33,0.29,0.29,0.33,0.48" style="fill:rgb(0,0,0);font-family:URWPalladioL-Roma;font-size:8.97px;stroke:none;">14. Ai, W.; Huang, Z.; Wu, L.; Du, Z.; Zou, C.; He, Z.; Yassar, R.S.; Huang, W.; Yu, T. High-rate, long cycle-life</text>
   <text y="648.265" x="98.05,103.638,106.299,109.345,112.006,117.0,122.2026,124.673,129.731,134.304,137.285,140.267,144.647,148.26,153.2832,155.686,160.259,165.582,170.576,176.164,180.544,184.31140000000002,186.773,191.153,196.476,201.049,206.107,208.768,213.149,218.6207,221.087,226.145,231.1682,233.571,239.086,241.748,244.729,248.342,252.915,256.792,264.868,269.441,272.102,274.70329999999996,277.114,280.096,282.757,288.08,291.125,296.183,300.756,304.634,309.014,314.4857,316.953,322.276,326.849,332.172,337.165,342.662,347.235,350.847,353.829,356.49,360.551,363.212,367.593,371.3604,373.812,378.193,383.516,387.576,392.149,397.646,401.524,407.038,409.7,414.273,417.254,419.916,424.909,430.232" svgx:width="0.61,0.29,0.33,0.29,0.55,0.58,0.55,0.55,0.5,0.33,0.33,0.48,0.4,0.56,0.55,0.5,0.58,0.55,0.61,0.48,0.42,0.55,0.48,0.58,0.5,0.55,0.29,0.48,0.61,0.55,0.55,0.56,0.55,0.6,0.29,0.33,0.4,0.5,0.42,0.88,0.5,0.29,0.29,0.55,0.33,0.29,0.58,0.33,0.55,0.5,0.42,0.48,0.61,0.55,0.58,0.5,0.58,0.55,0.6,0.5,0.4,0.33,0.29,0.44,0.29,0.48,0.42,0.55,0.48,0.58,0.44,0.5,0.6,0.42,0.6,0.29,0.5,0.33,0.29,0.55,0.58,0.25" style="fill:rgb(0,0,0);font-family:URWPalladioL-Roma;font-size:8.97px;stroke:none;">Li-ion battery anodes enabled by ultrasmall tin-based nanoparticles encapsulation.</text>
   <text y="648.265" x="435.976,441.564,446.649,450.207,453.6,458.173,462.658,465.096,470.181,473.227,477.287,480.845,484.906,489.479,492.9773,495.387,504.02,508.081,511.126,514.684,517.574" svgx:width="0.61,0.56,0.39,0.39,0.5,0.5,0.55,0.56,0.33,0.44,0.39,0.44,0.5,0.39,0.55,0.94,0.44,0.33,0.39,0.39,0.25" style="fill:rgb(0,0,0);font-family:URWPalladioL-Ital;font-size:8.97px;stroke:none;">Energy Storage Mater.</text>
   <text y="661.177" x="98.05,102.533,107.016,111.5" svgx:width="0.5,0.5,0.5,0.5" style="fill:rgb(0,0,0);font-family:URWPalladioL-Bold;font-size:8.97px;stroke:none;">2018</text>
   <text y="661.177" x="115.983" svgx:width="0.25" style="fill:rgb(0,0,0);font-family:URWPalladioL-Roma;font-size:8.97px;stroke:none;">,</text>
   <text y="661.177" x="120.466,124.949" svgx:width="0.5,0.5" style="fill:rgb(0,0,0);font-family:URWPalladioL-Ital;font-size:8.97px;stroke:none;">14</text>
   <text y="661.177" x="129.433,131.6755,133.916,138.399,142.883,147.366,151.849,156.332,160.815,165.299,167.5415,170.678" svgx:width="0.25,0.55,0.5,0.5,0.5,0.5,0.5,0.5,0.5,0.25,0.55,0.33" style="fill:rgb(0,0,0);font-family:URWPalladioL-Roma;font-size:8.97px;stroke:none;">, 169–178. [</text>
   <text y="661.177" x="173.664,180.021,183.402,188.297,192.099,195.901,201.891,206.185" svgx:width="0.71,0.4,0.55,0.42,0.42,0.67,0.48,0.33" style="fill:rgb(8,117,183);font-family:URWPalladioL-Roma;font-size:8.97px;stroke:none;">CrossRef</text>
   <text y="661.177" x="209.171" svgx:width="0.33" style="fill:rgb(0,0,0);font-family:URWPalladioL-Roma;font-size:8.97px;stroke:none;">]</text>
   <text y="674.089" x="76.535,81.018,85.501,87.74350000000001,98.05,103.379,107.791,110.358,114.769" svgx:width="0.5,0.5,0.25,0.55,0.6,0.5,0.29,0.5,0.44" style="fill:rgb(0,0,0);font-family:URWPalladioL-Roma;font-size:8.97px;stroke:none;">15. Palac</text>
   <text y="674.089" x="118.687" svgx:width="0.29" style="fill:rgb(0,0,0);font-family:VnURWPalladioL;font-size:8.97px;stroke:none;">í</text>
   <text y="674.089" x="121.26,126.395,128.6375,130.851,139.197,141.403,147.296,149.502,151.74450000000002,153.958,158.59,161.157,168.948,173.765,178.9,181.1425,183.356,187.529,189.735,191.97750000000002,194.19,198.769,203.181,206.666,211.077,214.818,218.736,223.553,228.688,230.9305,233.144,236.082,238.287,246.634,248.8765,251.089,258.421,262.833,267.968,272.785,280.576,284.987,287.863,292.09,295.575,298.142,302.554,305.121,308.8884,311.112,314.05,318.867,322.45500000000004,324.593,328.82,331.387,335.613,339.531,342.407,345.733,350.55,354.468,359.603,363.829,371.62,374.187,378.105,382.516,385.1173,387.333,391.56,396.694,400.921,404.247,409.152,414.17519999999996,416.299,420.04,422.916,427.734,431.219,435.63,440.536,444.762,447.0045,450.117,455.526,460.661,464.9666,467.137,472.042,476.86,481.677,487.1487,489.318,493.729,498.864,504.3357,506.505,509.381,514.516" svgx:width="0.58,0.25,0.55,0.95,0.25,0.67,0.25,0.25,0.55,0.52,0.29,0.88,0.55,0.58,0.25,0.55,0.6,0.25,0.25,0.55,0.61,0.5,0.4,0.5,0.42,0.44,0.55,0.58,0.25,0.55,0.33,0.25,0.95,0.25,0.55,0.83,0.5,0.58,0.55,0.88,0.5,0.33,0.48,0.4,0.29,0.5,0.29,0.42,0.55,0.33,0.55,0.4,0.55,0.48,0.29,0.48,0.44,0.33,0.4,0.55,0.44,0.58,0.48,0.88,0.29,0.44,0.5,0.29,0.55,0.48,0.58,0.48,0.4,0.56,0.56,0.55,0.42,0.33,0.55,0.4,0.5,0.56,0.48,0.25,0.55,0.61,0.58,0.48,0.55,0.56,0.55,0.55,0.61,0.55,0.5,0.58,0.61,0.55,0.33,0.58,0.48" style="fill:rgb(0,0,0);font-family:URWPalladioL-Roma;font-size:8.97px;stroke:none;">n, M.R.; Simon, P.; Tarascon, J.M. Nanomaterials for electrochemical energy storage: The good and the</text>
   <text y="687.0" x="98.05,103.008,107.492,112.97" svgx:width="0.55,0.5,0.61,0.25" style="fill:rgb(0,0,0);font-family:URWPalladioL-Roma;font-size:8.97px;stroke:none;">bad.</text>
   <text y="687.0" x="118.35,124.824,128.473,131.459,135.4058,137.682,143.662,148.145,150.638,157.614,159.8565,162.994,167.979,170.472,174.453,178.443" svgx:width="0.72,0.41,0.33,0.44,0.55,0.67,0.5,0.28,0.78,0.25,0.55,0.56,0.28,0.44,0.5,0.25" style="fill:rgb(0,0,0);font-family:URWPalladioL-Ital;font-size:8.97px;stroke:none;">Acta Chim. Slov.</text>
   <text y="687.0" x="183.822,188.305,192.788,197.272" svgx:width="0.5,0.5,0.5,0.5" style="fill:rgb(0,0,0);font-family:URWPalladioL-Bold;font-size:8.97px;stroke:none;">2016</text>
   <text y="687.0" x="201.755" svgx:width="0.25" style="fill:rgb(0,0,0);font-family:URWPalladioL-Roma;font-size:8.97px;stroke:none;">,</text>
   <text y="687.0" x="206.238,210.721" svgx:width="0.5,0.5" style="fill:rgb(0,0,0);font-family:URWPalladioL-Ital;font-size:8.97px;stroke:none;">63</text>
   <text y="687.0" x="215.204,217.44650000000001,219.687,224.17,228.654,233.137,237.62,242.103,246.586,251.07,253.3125,256.449" svgx:width="0.25,0.55,0.5,0.5,0.5,0.5,0.5,0.5,0.5,0.25,0.55,0.33" style="fill:rgb(0,0,0);font-family:URWPalladioL-Roma;font-size:8.97px;stroke:none;">, 417–423. [</text>
   <text y="687.0" x="259.435,265.792,269.173,274.068,277.87,281.672,287.661,291.956" svgx:width="0.71,0.4,0.55,0.42,0.42,0.67,0.48,0.33" style="fill:rgb(8,117,183);font-family:URWPalladioL-Roma;font-size:8.97px;stroke:none;">CrossRef</text>
   <text y="687.0" x="294.942" svgx:width="0.33" style="fill:rgb(0,0,0);font-family:URWPalladioL-Roma;font-size:8.97px;stroke:none;">]</text>
   <text y="699.912" x="76.535,81.018,85.501,87.74350000000001,98.05,106.679,112.151,114.3935,116.643,124.192,126.461,128.7035,130.97,137.404,142.685,147.222,152.503,154.7455,157.004,163.927,166.196,168.4385,170.696,177.13,182.411,187.365,190.006,192.2485,194.507,197.528,199.797,208.045,210.313,212.5555,214.814,220.54,225.585,231.057,233.2995,235.557,238.615,240.884,243.1265,245.384,250.611,255.148,260.102,262.3445,264.603,269.666,271.935,274.1775,276.436,285.02,289.049,296.072,301.026,308.594,312.94,315.581,318.221,320.4635,322.722,331.306,333.575,338.466,340.734,342.9765,345.244,350.788,355.134,359.481,361.7235,363.982,368.745,371.014,379.262,381.531,383.7735,386.031,389.053,393.59,397.619,402.664,406.511,411.466,416.747,418.9895,421.248,428.307,430.576,432.81850000000003,435.076,440.303,444.84,450.121,455.166,457.4085,459.667,464.721,466.99,469.2325,471.49,479.04,484.511,486.75350000000003,489.012,494.556,496.825,499.0675,501.326,505.672,508.63210000000004,510.862,515.399,518.04" svgx:width="0.5,0.5,0.25,0.55,1.0,0.6,0.25,0.55,0.83,0.25,0.25,0.55,0.71,0.58,0.5,0.58,0.25,0.55,0.76,0.25,0.25,0.55,0.71,0.58,0.55,0.29,0.25,0.55,0.33,0.25,1.0,0.25,0.25,0.55,0.67,0.56,0.6,0.25,0.55,0.34,0.25,0.25,0.55,0.67,0.5,0.55,0.25,0.55,0.67,0.25,0.25,0.55,0.95,0.44,0.77,0.55,0.83,0.48,0.29,0.29,0.25,0.55,0.95,0.25,0.61,0.25,0.25,0.55,0.61,0.48,0.48,0.25,0.55,0.52,0.25,1.0,0.25,0.25,0.55,0.33,0.5,0.44,0.56,0.42,0.55,0.58,0.25,0.55,0.78,0.25,0.25,0.55,0.67,0.5,0.58,0.56,0.25,0.55,0.67,0.25,0.25,0.55,0.83,0.6,0.25,0.55,0.61,0.25,0.25,0.55,0.48,0.33,0.55,0.5,0.29,0.25" style="fill:rgb(0,0,0);font-family:URWPalladioL-Roma;font-size:8.97px;stroke:none;">16. Wu, H.; Chan, G.; Choi, J.W.; Ryu, I.; Yao, Y.; McDowell, M.T.; Lee, S.W.; Jackson, A.; Yang, Y.; Hu, L.; et al.</text>
   <text y="712.823" x="98.05,102.663,105.528,109.921,114.781,117.338,121.64359999999999,123.743,127.645,132.53,136.432,138.989,141.546,146.66,151.6832,153.742,158.54,161.5001,163.663,169.032,173.83,179.128,183.988,186.545,190.754,193.68,201.008,205.402,207.959,210.516,214.725,220.1967,222.29,226.016,228.573,231.13,233.687,237.589,242.386,247.58859999999999,249.697,254.811,259.205,264.319,269.117,271.981,277.28,282.139,286.44460000000004,288.545,293.404,297.798,300.662,303.527,307.736,311.207,316.23019999999997,318.289,322.683,327.797,332.595,337.963,342.172,345.93940000000003,348.095,350.96,356.074,359.386,364.184,369.483,374.368,379.5706,381.679,385.405,390.203,392.76,395.317,400.686,405.079,409.288,411.845,416.054,419.956,422.82,426.124,430.922,433.479,438.365,441.229,445.5346,447.635,450.192,455.306,458.171,462.38,465.851,471.132,476.246,480.639,484.365,488.67060000000004,490.771,494.672,499.47,504.584,507.449,510.761,515.559,518.116" svgx:width="0.52,0.33,0.5,0.55,0.29,0.48,0.55,0.44,0.56,0.44,0.29,0.29,0.58,0.56,0.55,0.55,0.33,0.55,0.61,0.55,0.6,0.55,0.29,0.48,0.33,0.83,0.5,0.29,0.29,0.48,0.61,0.55,0.42,0.29,0.29,0.29,0.44,0.55,0.58,0.55,0.58,0.5,0.58,0.55,0.33,0.6,0.55,0.48,0.55,0.55,0.5,0.33,0.33,0.48,0.4,0.56,0.55,0.5,0.58,0.55,0.61,0.48,0.42,0.55,0.33,0.58,0.4,0.55,0.6,0.56,0.58,0.55,0.42,0.55,0.29,0.29,0.61,0.5,0.48,0.29,0.48,0.44,0.33,0.4,0.55,0.29,0.56,0.33,0.48,0.55,0.29,0.58,0.33,0.48,0.4,0.6,0.58,0.5,0.42,0.48,0.55,0.44,0.55,0.58,0.33,0.4,0.55,0.29,0.25" style="fill:rgb(0,0,0);font-family:URWPalladioL-Roma;font-size:8.97px;stroke:none;">Stable cycling of double-walled silicon nanotube battery anodes through solid–electrolyte interphase control.</text>
   <text y="725.735" x="98.05,105.026,109.007,111.993,114.2355,117.373,124.348,128.33,133.315,137.296,140.282,143.77,147.419,151.902,156.888,160.869,163.361" svgx:width="0.78,0.44,0.33,0.25,0.55,0.78,0.44,0.56,0.44,0.33,0.39,0.41,0.5,0.56,0.44,0.28,0.25" style="fill:rgb(0,0,0);font-family:URWPalladioL-Ital;font-size:8.97px;stroke:none;">Nat. Nanotechnol.</text>
   <text y="725.735" x="168.741,173.224,177.707,182.191" svgx:width="0.5,0.5,0.5,0.5" style="fill:rgb(0,0,0);font-family:URWPalladioL-Bold;font-size:8.97px;stroke:none;">2012</text>
   <text y="725.735" x="186.673" svgx:width="0.25" style="fill:rgb(0,0,0);font-family:URWPalladioL-Roma;font-size:8.97px;stroke:none;">,</text>
   <text y="725.735" x="191.156" svgx:width="0.5" style="fill:rgb(0,0,0);font-family:URWPalladioL-Ital;font-size:8.97px;stroke:none;">7</text>
   <text y="725.735" x="195.64,197.8825,200.123,204.606,209.09,213.573,218.056,222.539,227.022,231.506,233.7485,236.885" svgx:width="0.25,0.55,0.5,0.5,0.5,0.5,0.5,0.5,0.5,0.25,0.55,0.33" style="fill:rgb(0,0,0);font-family:URWPalladioL-Roma;font-size:8.97px;stroke:none;">, 310–315. [</text>
   <text y="725.735" x="239.871,246.228,249.609,254.504,258.306,262.108,268.098,272.392" svgx:width="0.71,0.4,0.55,0.42,0.42,0.67,0.48,0.33" style="fill:rgb(8,117,183);font-family:URWPalladioL-Roma;font-size:8.97px;stroke:none;">CrossRef</text>
   <text y="725.735" x="275.378" svgx:width="0.33" style="fill:rgb(0,0,0);font-family:URWPalladioL-Roma;font-size:8.97px;stroke:none;">]</text>
   <text y="738.647" x="76.535,81.018,85.501,87.74350000000001,98.05,104.69,109.263,113.14,118.463,123.036,126.018,129.895,133.956,139.279,143.66,148.041,154.845,157.0875,159.528,162.573,164.86,167.10250000000002,169.624,175.139,177.801,182.374,186.434,191.519,195.9,198.1425,200.592,205.531,207.817,210.0595,212.582,217.383,220.365,223.813,228.194,230.855,236.352,240.732,244.345,247.327,249.5695,252.009,257.597,259.884,262.1265,264.649,270.758,275.751,278.733,284.056,288.437,292.049,300.125,304.506,307.167,309.4095,311.85,316.651,318.938,321.1805,323.693,332.016,336.589,341.674,346.997,351.378,354.332,356.5745,359.014,365.124,367.41,369.65250000000003,372.166,380.818,385.198,387.86,391.738,394.719,399.1,402.054,404.2965,406.737,411.099,413.386,415.62850000000003,418.151,423.739,428.311,432.189,437.274,442.268,447.435,450.097,454.157,456.3995,458.84,461.922,464.208,470.693,472.979,475.2215,477.744,486.396,489.057,494.38,497.362,501.742,504.687,506.9295,509.37,518.022" svgx:width="0.5,0.5,0.25,0.55,0.73,0.5,0.42,0.58,0.5,0.33,0.42,0.44,0.58,0.48,0.48,0.83,0.25,0.55,0.33,0.25,0.25,0.55,0.6,0.29,0.5,0.44,0.56,0.48,0.25,0.55,0.61,0.25,0.25,0.55,0.52,0.33,0.4,0.48,0.29,0.6,0.48,0.4,0.33,0.25,0.55,0.61,0.25,0.25,0.55,0.67,0.55,0.33,0.58,0.48,0.4,0.88,0.48,0.29,0.25,0.55,0.52,0.25,0.25,0.55,1.0,0.5,0.56,0.58,0.48,0.4,0.25,0.55,0.67,0.25,0.25,0.55,0.95,0.48,0.29,0.42,0.33,0.48,0.4,0.25,0.55,0.6,0.25,0.25,0.55,0.61,0.5,0.42,0.56,0.55,0.56,0.29,0.44,0.25,0.55,0.34,0.25,0.71,0.25,0.25,0.55,1.0,0.29,0.58,0.33,0.48,0.4,0.25,0.55,0.95,0.25" style="fill:rgb(0,0,0);font-family:URWPalladioL-Roma;font-size:8.97px;stroke:none;">17. Kasnatscheew, J.; Placke, T.; Streipert, B.; Rothermel, S.; Wagner, R.; Meister, P.; Laskovic, I.C.; Winter, M.</text>
   <text y="751.558" x="97.701,104.6976,106.806,111.407,116.713,119.586,124.399,127.88,130.445,134.852,137.4533,139.673,142.238,147.368,150.241,155.17450000000002,157.301,162.625,166.106,170.513,174.427,177.3,179.865,183.778,188.185,190.7863,192.998,199.247,203.654,208.951,213.358,217.271,219.836,222.71,227.7332,229.858,234.265,239.394,244.8657,247.027,255.365,259.772,263.509,267.2764,269.494,274.879,279.286,281.851,286.258,291.388,295.301,297.866,302.996,308.01919999999996,310.144,314.957,317.9171,320.139,325.525,328.089,330.963,336.092,338.657,343.972,354.003,356.973,361.785,366.98760000000004,369.163,374.548,378.955,381.828,384.702,388.923,392.405,394.97,399.192,402.929" svgx:width="0.78,0.55,0.61,0.6,0.33,0.55,0.4,0.29,0.5,0.29,0.55,0.29,0.58,0.33,0.55,0.55,0.6,0.4,0.5,0.44,0.33,0.29,0.44,0.5,0.29,0.55,0.71,0.5,0.6,0.5,0.44,0.29,0.33,0.56,0.55,0.5,0.58,0.61,0.55,0.95,0.5,0.42,0.42,0.55,0.61,0.5,0.29,0.5,0.58,0.44,0.29,0.58,0.56,0.55,0.55,0.33,0.55,0.61,0.29,0.33,0.58,0.29,0.6,0.88,0.34,0.55,0.58,0.55,0.61,0.5,0.33,0.33,0.48,0.4,0.29,0.48,0.42,0.25" style="fill:rgb(0,0,0);font-family:URWPalladioL-Roma;font-size:8.97px;stroke:none;">A Tutorial into Practical Capacity and Mass Balancing of LithiumIon Batteries.</text>
   <text y="751.558" x="408.291,411.226,413.4685,415.677,421.062,423.513,426.941,430.529,433.464,436.734,440.647,444.234,448.641,452.07,458.927,461.1695,464.286,469.187,473.1,476.687" svgx:width="0.33,0.25,0.55,0.61,0.28,0.39,0.41,0.33,0.39,0.44,0.41,0.5,0.39,0.78,0.25,0.55,0.56,0.44,0.41,0.25" style="fill:rgb(0,0,0);font-family:URWPalladioL-Ital;font-size:8.97px;stroke:none;">J. Electrochem. Soc.</text>
   <text y="751.558" x="482.05,486.533,491.016,495.5" svgx:width="0.5,0.5,0.5,0.5" style="fill:rgb(0,0,0);font-family:URWPalladioL-Bold;font-size:8.97px;stroke:none;">2017</text>
   <text y="751.558" x="499.983" svgx:width="0.25" style="fill:rgb(0,0,0);font-family:URWPalladioL-Roma;font-size:8.97px;stroke:none;">,</text>
   <text y="751.558" x="504.437,508.844,513.251" svgx:width="0.5,0.5,0.5" style="fill:rgb(0,0,0);font-family:URWPalladioL-Ital;font-size:8.97px;stroke:none;">164</text>
   <text y="751.558" x="517.658" svgx:width="0.25" style="fill:rgb(0,0,0);font-family:URWPalladioL-Roma;font-size:8.97px;stroke:none;">,</text>
   <text y="764.47" x="97.701,104.677,109.16,113.643,118.126,122.61,127.093,134.069,138.552,143.035,147.518,152.002,154.24450000000002,157.381" svgx:width="0.78,0.5,0.5,0.5,0.5,0.5,0.78,0.5,0.5,0.5,0.5,0.25,0.55,0.33" style="fill:rgb(0,0,0);font-family:URWPalladioL-Roma;font-size:8.97px;stroke:none;">A2479–A2486. [</text>
   <text y="764.47" x="160.367,166.724,170.105,175.0,178.802,182.604,188.593,192.888" svgx:width="0.71,0.4,0.55,0.42,0.42,0.67,0.48,0.33" style="fill:rgb(8,117,183);font-family:URWPalladioL-Roma;font-size:8.97px;stroke:none;">CrossRef</text>
   <text y="764.47" x="195.874" svgx:width="0.33" style="fill:rgb(0,0,0);font-family:URWPalladioL-Roma;font-size:8.97px;stroke:none;">]</text>
  </g>
 </g>
</svg>
