<?xml version="1.0" encoding="UTF-8"?>
<svg height="769.809" width="530.496" xmlns="http://www.w3.org/2000/svg">
 <g id="page" xmlns:svgx="http://www.xml-cml.org/schema/svgx">
  <g begin="text">
   <text y="62.979" x="76.535,82.736,86.274,90.706,94.245,100.445,103.984,106.638,109.738,112.839,115.055,118.593,120.809" svgx:width="0.78,0.44,0.56,0.44,0.78,0.44,0.33,0.39,0.39,0.28,0.44,0.28,0.39" style="fill:rgb(0,0,0);font-family:URWPalladioL-Ital;font-size:7.97px;stroke:none;">Nanomaterials</text>
   <text y="62.979" x="125.901,129.886,133.871,137.856" svgx:width="0.5,0.5,0.5,0.5" style="fill:rgb(0,0,0);font-family:URWPalladioL-Bold;font-size:7.97px;stroke:none;">2020</text>
   <text y="62.979" x="141.842" svgx:width="0.25" style="fill:rgb(0,0,0);font-family:URWPalladioL-Roma;font-size:7.97px;stroke:none;">,</text>
   <text y="62.979" x="145.827,149.812" svgx:width="0.5,0.5" style="fill:rgb(0,0,0);font-family:URWPalladioL-Ital;font-size:7.97px;stroke:none;">10</text>
   <text y="62.979" x="153.797,155.7895,157.782,161.767,165.752,169.73700000000002,495.794,499.779,501.772,506.123,508.7531,510.77,514.755" svgx:width="0.25,0.55,0.5,0.5,0.5,0.55,0.5,0.55,0.55,0.33,0.55,0.5,0.5" style="fill:rgb(0,0,0);font-family:URWPalladioL-Roma;font-size:7.97px;stroke:none;">, 249 9 of 19</text>
   <text y="97.848" x="97.795,105.396,110.378,113.277,118.906,123.887,129.685,135.125,139.349,142.597,147.578,150.826,153.725,158.10739999999998,160.639,166.726,169.625,173.849,178.273,184.071,189.052,192.808,198.348" svgx:width="0.76,0.5,0.29,0.56,0.5,0.58,0.55,0.42,0.33,0.5,0.33,0.29,0.44,0.55,0.61,0.29,0.42,0.44,0.58,0.5,0.4,0.56,0.48" style="fill:rgb(0,0,0);font-family:URWPalladioL-Roma;font-size:9.96px;stroke:none;">Galvanostatic discharge</text>
   <text y="97.848" x="203.123" svgx:width="0.29" style="fill:rgb(0,0,0);font-family:Rpxr;font-size:9.96px;stroke:none;">/</text>
   <text y="97.848" x="205.983,210.406,216.205,221.186,224.942,230.481,235.2618,237.744,243.731,247.487,252.927,258.954,261.853,266.625,270.8082,273.35,278.79,282.07680000000005,284.598,290.685,294.003,299.233,304.772,312.603,320.045,327.108,329.598,332.1,338.187,341.504,346.735,354.565,362.007,369.0786,371.561,376.543,382.341,388.4166,390.929,397.016,400.333,405.564,411.103,418.9714,421.424,426.196,429.095,433.868,438.291,441.539,445.295,450.734,456.821,461.594,465.7772,468.308,473.29,476.57680000000005,479.038,484.019,486.51,491.49,493.982,501.7508,504.233" svgx:width="0.44,0.58,0.5,0.4,0.56,0.48,0.55,0.6,0.4,0.55,0.61,0.29,0.48,0.42,0.55,0.55,0.33,0.55,0.61,0.33,0.52,0.56,0.79,0.75,0.71,0.25,0.55,0.61,0.33,0.52,0.79,0.75,0.71,0.55,0.5,0.58,0.61,0.55,0.61,0.33,0.52,0.56,0.79,0.55,0.48,0.29,0.48,0.44,0.33,0.4,0.55,0.61,0.48,0.42,0.55,0.5,0.33,0.55,0.5,0.25,0.5,0.55,0.78,0.55,0.56" style="fill:rgb(0,0,0);font-family:URWPalladioL-Roma;font-size:9.96px;stroke:none;">charge proﬁles of B-SFO@C, B-SO@C and B-SFO electrodes at 0.2 A g</text>
   <text y="94.232" x="509.769" svgx:width="0.67" style="fill:rgb(0,0,0);font-family:Pxsy;font-size:7.57px;stroke:none;">−</text>
   <text y="94.232" x="514.835" svgx:width="0.5" style="fill:rgb(0,0,0);font-family:URWPalladioL-Roma;font-size:7.57px;stroke:none;">1</text>
   <text y="111.358" x="76.535,82.033,86.796,90.037,98.329,103.092,107.854,113.6308,116.127,121.098,123.584,128.555,133.526,138.498,143.469,148.44,150.926,155.90599999999998,158.383,165.5542,168.047,173.019,176.767,181.5478,184.015,188.231,194.018,199.446,207.739,213.5158,216.011,218.904,224.6808,227.167,232.695,235.588,241.116,247.112,250.86" svgx:width="0.55,0.48,0.33,0.83,0.48,0.48,0.58,0.55,0.5,0.25,0.5,0.5,0.5,0.5,0.5,0.25,0.5,0.55,0.72,0.55,0.5,0.4,0.48,0.55,0.42,0.58,0.55,0.83,0.58,0.55,0.29,0.58,0.55,0.56,0.29,0.56,0.6,0.4,0.48" style="fill:rgb(0,0,0);font-family:URWPalladioL-Roma;font-size:9.96px;stroke:none;">between 0.005–3.0 V are shown in Figure</text>
   <text y="111.358" x="258.108" svgx:width="0.5" style="fill:rgb(8,117,183);font-family:URWPalladioL-Roma;font-size:9.96px;stroke:none;">5</text>
   <text y="111.358" x="263.08,268.06,270.537,273.778,279.25600000000003,281.692,287.668,291.416,296.845,302.343,307.1238,309.591,312.833,318.619,323.3998,325.868,329.178,334.15,339.767,345.196,351.192,355.119,360.09,365.589,368.482,373.2628,375.73,381.228,387.224,390.117,395.69460000000004,398.131,403.56,407.544,409.973,418.752,421.645,426.06,429.808,435.237,438.548,444.623,447.516,456.296,461.058,466.845,471.06,473.954,479.382,485.169,490.14,493.0284,495.51" svgx:width="0.5,0.55,0.33,0.55,0.55,0.6,0.4,0.55,0.55,0.48,0.55,0.33,0.58,0.48,0.55,0.33,0.5,0.56,0.55,0.6,0.4,0.5,0.55,0.29,0.48,0.55,0.55,0.6,0.29,0.56,0.55,0.55,0.4,0.55,0.88,0.29,0.44,0.4,0.55,0.33,0.61,0.29,0.88,0.48,0.58,0.42,0.29,0.55,0.58,0.5,0.29,0.55,0.48" style="fill:rgb(0,0,0);font-family:URWPalladioL-Roma;font-size:9.96px;stroke:none;">a to probe the favourable bulk or micro-dimensional e</text>
   <text y="111.358" x="500.277" svgx:width="0.61" style="fill:rgb(0,0,0);font-family:Rpxr;font-size:9.96px;stroke:none;">ﬀ</text>
   <text y="111.358" x="506.322,511.085,515.499" svgx:width="0.48,0.44,0.33" style="fill:rgb(0,0,0);font-family:URWPalladioL-Roma;font-size:9.96px;stroke:none;">ect</text>
   <text y="124.867" x="76.535,82.051,85.3378,87.9,91.193,97.073,101.85379999999999,104.386,113.307,118.145,121.439,126.49,129.429,132.793,135.733,141.613,144.906,149.745,153.553,158.039,163.09,166.029,171.08,174.374,179.213,185.2886,187.87,192.355,197.406,201.397,206.983,212.499,218.2758,220.853,225.137,228.43,232.339,238.431,242.916,246.209,252.301,256.11,260.8908,263.434,269.525,275.596,281.112,286.8888,289.467,295.053,300.104,303.397,306.691,311.53,315.52,321.0976,323.622,329.693,334.532,338.522,341.886,347.402,351.392,360.312,365.363,371.243,375.728,380.567,383.057,386.578,389.982,395.7588,398.337,402.822,408.338,417.258,423.329,428.38,432.371,435.31,439.594,445.109,450.88579999999996,453.474,456.767,462.245,464.758,468.051,473.93,478.7108,481.254,487.427,490.791,496.094,504.035,511.581" svgx:width="0.55,0.33,0.55,0.33,0.58,0.48,0.55,0.88,0.48,0.33,0.5,0.29,0.33,0.29,0.58,0.33,0.48,0.4,0.44,0.5,0.29,0.5,0.33,0.48,0.61,0.55,0.44,0.5,0.4,0.55,0.55,0.58,0.55,0.42,0.33,0.4,0.6,0.44,0.33,0.6,0.4,0.48,0.55,0.6,0.6,0.55,0.58,0.55,0.55,0.5,0.33,0.33,0.48,0.4,0.56,0.55,0.6,0.48,0.4,0.33,0.55,0.4,0.88,0.5,0.58,0.44,0.48,0.25,0.55,0.34,0.58,0.55,0.44,0.55,0.88,0.6,0.5,0.4,0.29,0.42,0.55,0.58,0.55,0.33,0.55,0.55,0.33,0.58,0.48,0.55,0.61,0.33,0.52,0.79,0.75,0.71" style="fill:rgb(0,0,0);font-family:URWPalladioL-Roma;font-size:9.96px;stroke:none;">of the metal-intercalated carbon structure upon battery performance. In comparison to the B-SO@C</text>
   <text y="138.377" x="76.535,81.403,84.36,89.227,93.739,97.052,100.883,106.431,112.64,117.508,119.99799999999999,122.893,126.206,132.12,136.9008,139.762,145.971,149.355,154.69,160.34,168.327,175.918,182.9896,185.897,190.764,193.721,198.589,203.101,206.414,210.245,215.793,222.002,226.7828,229.644,233.028,237.895,242.976,246.289,252.416,256.257,261.125,265.3082,268.198,273.178,276.053,285.026,290.574,294.415,299.1958,302.057,307.605,313.225,318.966,321.923,327.472,333.599,337.7822,340.682,345.194,351.108,356.189,360.02,365.67,370.4508,373.312,379.419,382.376,387.457,390.77,395.638,400.718,406.694,409.62,412.577,418.3538,421.266,424.578,430.493,435.2738,438.124,442.138,447.219,453.133,458.783,463.5638,466.425,471.973,475.25980000000004,478.132,483.212,485.753,490.834,495.915,500.996,503.536,508.516,511.391,517.448" svgx:width="0.48,0.29,0.48,0.44,0.33,0.4,0.55,0.61,0.48,0.25,0.55,0.33,0.58,0.48,0.55,0.61,0.33,0.52,0.56,0.79,0.75,0.71,0.55,0.48,0.29,0.48,0.44,0.33,0.4,0.55,0.61,0.48,0.55,0.33,0.48,0.5,0.33,0.6,0.4,0.48,0.42,0.55,0.5,0.55,0.88,0.55,0.4,0.48,0.55,0.55,0.55,0.56,0.29,0.55,0.6,0.42,0.55,0.44,0.58,0.5,0.4,0.56,0.48,0.55,0.6,0.29,0.5,0.33,0.48,0.5,0.6,0.55,0.29,0.58,0.55,0.33,0.58,0.48,0.55,0.4,0.5,0.58,0.56,0.48,0.55,0.55,0.33,0.55,0.5,0.25,0.5,0.5,0.5,0.25,0.5,0.55,0.72,0.25" style="fill:rgb(0,0,0);font-family:URWPalladioL-Roma;font-size:9.96px;stroke:none;">electrode, the B-SFO@C electrode features a more obvious charge plateau in the range of 1.0–1.5 V,</text>
   <text y="151.886" x="76.535,82.385,85.311,91.161,94.438,97.363,103.214,108.7916,111.306,114.583,120.433,125.459,128.7458,131.239,135.029,139.844,145.524,150.339,154.309,158.572,161.497,167.056,169.981,172.906,175.831,179.108,184.6856,187.19,192.679,195.9658,198.529,201.806,207.657,212.4378,214.975,219.438,224.926,230.777,236.456,241.271,245.242,249.504,252.429,257.918,263.6948,266.271,270.061,274.876,279.902,284.365,287.643,290.568,296.056,301.83279999999996,304.41,309.898,313.18480000000005,315.739,321.016" svgx:width="0.58,0.29,0.58,0.33,0.29,0.58,0.56,0.55,0.33,0.58,0.5,0.33,0.55,0.4,0.48,0.56,0.48,0.4,0.42,0.29,0.55,0.29,0.29,0.29,0.33,0.56,0.55,0.55,0.33,0.55,0.33,0.58,0.48,0.55,0.44,0.55,0.58,0.56,0.48,0.4,0.42,0.29,0.55,0.58,0.55,0.4,0.48,0.5,0.44,0.33,0.29,0.55,0.58,0.55,0.55,0.33,0.55,0.52,0.58" style="fill:rgb(0,0,0);font-family:URWPalladioL-Roma;font-size:9.96px;stroke:none;">hinting that reversibility of the conversion reaction of Sn</text>
   <text y="151.886" x="326.871" svgx:width="0.29" style="fill:rgb(0,0,0);font-family:Rpxr;font-size:9.96px;stroke:none;">/</text>
   <text y="151.886" x="329.756,335.033,340.884" svgx:width="0.52,0.58,0.79" style="fill:rgb(0,0,0);font-family:URWPalladioL-Roma;font-size:9.96px;stroke:none;">SnO</text>
   <text y="153.751" x="348.785" svgx:width="0.5" style="fill:rgb(0,0,0);font-family:URWPalladioL-Roma;font-size:7.57px;stroke:none;">2</text>
   <text y="151.886" x="355.57,358.495,364.2718,366.849,370.126,375.976,380.7568,383.294,389.436,392.783,398.061,403.65,411.551,419.06,426.1316,428.68,433.495,436.42,441.235,445.699,448.976,452.765,458.254,464.396,469.1768,471.714,474.639,478.8222,481.404,485.666,491.728,497.769,502.584,506.555,509.48,514.969" svgx:width="0.29,0.58,0.55,0.33,0.58,0.48,0.55,0.61,0.33,0.52,0.56,0.79,0.75,0.71,0.55,0.48,0.29,0.48,0.44,0.33,0.4,0.55,0.61,0.48,0.55,0.29,0.42,0.55,0.42,0.6,0.6,0.48,0.4,0.29,0.55,0.4" style="fill:rgb(0,0,0);font-family:URWPalladioL-Roma;font-size:9.96px;stroke:none;">in the B-SFO@C electrode is superior</text>
   <text y="165.395" x="76.535,79.848,85.326,88.028,91.341,97.255,102.336,105.6228,108.281,113.829,117.1158,119.845,123.158,129.072,133.8528,136.581,142.79,146.174,151.509,159.496,167.087,174.15859999999998,176.924,181.791,184.749,189.616,194.128,197.441,201.272,206.82,213.029,217.896,220.386,224.349,230.578,236.493,239.45,243.6332,246.4,251.481,254.439,258.747,264.225,266.927,270.758,275.626,281.367,286.235,291.316,294.273,298.4562,301.214,304.526,310.44,315.2208,317.94,323.681,326.638,329.951,335.032,337.9204,340.631,343.578,352.551,358.658,363.739,368.251,371.564,375.7472,378.515,386.99,392.904,395.861,400.373,406.14979999999997,408.919,412.232,418.146,422.9268,425.645,431.295,436.0758,438.795,443.307,448.855,457.828,463.935,469.484,475.398,480.265,486.18,489.46680000000003,492.124,496.992,502.235,507.103,511.117,514.43" svgx:width="0.33,0.55,0.55,0.33,0.58,0.5,0.33,0.55,0.55,0.33,0.55,0.33,0.58,0.48,0.55,0.61,0.33,0.52,0.79,0.75,0.71,0.55,0.48,0.29,0.48,0.44,0.33,0.4,0.55,0.61,0.48,0.25,0.55,0.61,0.58,0.29,0.42,0.55,0.5,0.29,0.42,0.55,0.55,0.4,0.48,0.56,0.48,0.5,0.29,0.42,0.55,0.33,0.58,0.48,0.55,0.56,0.29,0.33,0.5,0.29,0.55,0.29,0.88,0.6,0.5,0.44,0.33,0.42,0.55,0.83,0.58,0.29,0.44,0.58,0.55,0.33,0.58,0.48,0.55,0.56,0.48,0.55,0.44,0.55,0.88,0.6,0.55,0.58,0.48,0.58,0.33,0.55,0.48,0.52,0.48,0.4,0.33,0.42" style="fill:rgb(0,0,0);font-family:URWPalladioL-Roma;font-size:9.96px;stroke:none;">to that of the B-SO@C electrode. This also reveals the vital impacts which the Fe component exerts</text>
   <text y="178.905" x="76.535,82.47,88.386,93.76,99.5368,101.989,110.681,115.602,121.331,124.195,130.111,136.046,138.91,143.832,147.041,149.905,155.634,161.21159999999998,163.607,166.815,172.544,177.3248,179.759,184.474,187.338,192.053,196.423,199.632,203.343,208.717,213.088,218.816,223.531,232.222,235.087,239.457,244.379,247.26739999999998,249.743,253.021,257.736,262.657,265.866,271.801,275.512,280.227,284.4102,286.901,292.275,295.5618,298.053,303.22,308.949" svgx:width="0.6,0.6,0.55,0.58,0.55,0.88,0.5,0.58,0.29,0.6,0.6,0.29,0.5,0.33,0.29,0.58,0.56,0.55,0.33,0.58,0.48,0.55,0.48,0.29,0.48,0.44,0.33,0.4,0.55,0.44,0.58,0.48,0.88,0.29,0.44,0.5,0.29,0.55,0.33,0.48,0.5,0.33,0.6,0.4,0.48,0.42,0.55,0.55,0.33,0.55,0.52,0.58,0.79" style="fill:rgb(0,0,0);font-family:URWPalladioL-Roma;font-size:9.96px;stroke:none;">upon manipulating the electrochemical features of SnO</text>
   <text y="180.77" x="316.682" svgx:width="0.5" style="fill:rgb(0,0,0);font-family:URWPalladioL-Roma;font-size:7.57px;stroke:none;">2</text>
   <text y="178.905" x="320.966,324.244,329.687,334.608,338.782,343.497,349.5726,352.011,360.702,365.624,368.833,373.548,377.436,380.3,385.221,388.086,392.259,394.749,398.234,404.268,409.996,414.7768,417.211,420.076,425.804,428.669,431.877,434.742,439.663,442.5514,445.028,451.042,453.906,458.08,462.45,468.179,473.1,476.811,482.284" svgx:width="0.33,0.55,0.5,0.42,0.48,0.61,0.55,0.88,0.5,0.33,0.48,0.4,0.29,0.5,0.29,0.42,0.25,0.55,0.61,0.58,0.48,0.55,0.29,0.58,0.29,0.33,0.29,0.5,0.29,0.55,0.61,0.29,0.42,0.44,0.58,0.5,0.4,0.56,0.48" style="fill:rgb(0,0,0);font-family:URWPalladioL-Roma;font-size:9.96px;stroke:none;">-based materials. The initial discharge</text>
   <text y="178.905" x="486.999" svgx:width="0.29" style="fill:rgb(0,0,0);font-family:Rpxr;font-size:9.96px;stroke:none;">/</text>
   <text y="178.905" x="489.824,494.194,499.923,504.844,508.555,514.028" svgx:width="0.44,0.58,0.5,0.4,0.56,0.48" style="fill:rgb(0,0,0);font-family:URWPalladioL-Roma;font-size:9.96px;stroke:none;">charge</text>
   <text y="192.414" x="76.535,80.87,85.752,91.619,96.501,100.836,103.677,106.86,112.4376,114.612,119.943,123.2298,125.518,131.483,134.734,139.86,145.289,152.963,160.256,167.178,169.668,171.942,177.908,181.159,186.285,193.959,201.252,208.3236,210.498,215.38,221.062,227.13760000000002,229.341,235.307,238.558,243.684,249.112,259.11,263.786,266.627,271.304,275.639,278.822,282.503,287.833,293.799,298.475,302.6582,304.939,308.61,313.286,318.168,322.503,328.185,332.862,337.0452,339.325,344.207,349.089,353.97" svgx:width="0.44,0.5,0.6,0.5,0.44,0.29,0.33,0.56,0.55,0.55,0.33,0.55,0.61,0.33,0.52,0.56,0.79,0.75,0.71,0.25,0.55,0.61,0.33,0.52,0.79,0.75,0.71,0.55,0.5,0.58,0.61,0.55,0.61,0.33,0.52,0.56,0.79,0.48,0.29,0.48,0.44,0.33,0.4,0.55,0.61,0.48,0.42,0.55,0.4,0.48,0.5,0.44,0.58,0.48,0.42,0.55,0.5,0.5,0.5,0.5" style="fill:rgb(0,0,0);font-family:URWPalladioL-Roma;font-size:9.96px;stroke:none;">capacity of B-SFO@C, B-SO@C and B-SFOelectrodes reaches 1389</text>
   <text y="192.414" x="358.856" svgx:width="0.29" style="fill:rgb(0,0,0);font-family:Rpxr;font-size:9.96px;stroke:none;">/</text>
   <text y="192.414" x="361.658,366.54,371.421,376.303,378.793,381.097,385.979,390.86,395.742" svgx:width="0.5,0.5,0.5,0.25,0.55,0.5,0.5,0.5,0.5" style="fill:rgb(0,0,0);font-family:URWPalladioL-Roma;font-size:9.96px;stroke:none;">973, 1103</text>
   <text y="192.414" x="400.627" svgx:width="0.29" style="fill:rgb(0,0,0);font-family:Rpxr;font-size:9.96px;stroke:none;">/</text>
   <text y="192.414" x="403.429,408.311,413.192,418.172,420.398,425.279,430.962,437.0376,439.251,444.132,449.014,453.896" svgx:width="0.5,0.5,0.5,0.55,0.5,0.58,0.61,0.55,0.5,0.5,0.5,0.5" style="fill:rgb(0,0,0);font-family:URWPalladioL-Roma;font-size:9.96px;stroke:none;">662 and 1353</text>
   <text y="192.414" x="458.775" svgx:width="0.29" style="fill:rgb(0,0,0);font-family:Rpxr;font-size:9.96px;stroke:none;">/</text>
   <text y="192.414" x="461.577,466.459,471.34,476.32,478.546,487.167,494.763,500.53979999999996,502.769" svgx:width="0.5,0.5,0.5,0.55,0.88,0.78,0.58,0.55,0.56" style="fill:rgb(0,0,0);font-family:URWPalladioL-Roma;font-size:9.96px;stroke:none;">842 mAh g</text>
   <text y="188.798" x="508.195" svgx:width="0.67" style="fill:rgb(0,0,0);font-family:Pxsy;font-size:7.57px;stroke:none;">−</text>
   <text y="188.798" x="513.261" svgx:width="0.5" style="fill:rgb(0,0,0);font-family:URWPalladioL-Roma;font-size:7.57px;stroke:none;">1</text>
   <text y="192.414" x="517.545" svgx:width="0.25" style="fill:rgb(0,0,0);font-family:URWPalladioL-Roma;font-size:9.96px;stroke:none;">,</text>
   <text y="205.924" x="76.535,80.272,85.02,89.223,95.181,99.929,104.33,107.562,110.447,116.047,120.796,123.68,128.081,130.571,133.058,141.325,144.21,147.441,153.2178,155.708,160.11,165.522,169.438,173.175,177.923,182.126,188.084,193.496,199.265,205.322,208.207,213.976,219.5536,221.985,224.87,230.639,233.524,236.755,239.64,244.596,247.4844,249.979,257.007,262.42,268.397,271.282,276.694,285.447,290.929,293.813,298.1954,300.713" svgx:width="0.4,0.48,0.42,0.6,0.48,0.44,0.33,0.29,0.56,0.48,0.29,0.56,0.25,0.55,0.83,0.29,0.33,0.58,0.55,0.44,0.55,0.4,0.4,0.48,0.42,0.6,0.55,0.58,0.61,0.29,0.58,0.56,0.55,0.29,0.58,0.29,0.33,0.29,0.5,0.29,0.55,0.71,0.55,0.6,0.29,0.55,0.88,0.55,0.29,0.44,0.55,0.48" style="fill:rgb(0,0,0);font-family:URWPalladioL-Roma;font-size:9.96px;stroke:none;">respectively, with corresponding initial Coulombic e</text>
   <text y="205.924" x="305.461" svgx:width="0.92" style="fill:rgb(0,0,0);font-family:Rpxr;font-size:9.96px;stroke:none;">ﬃ</text>
   <text y="205.924" x="314.571,318.972,321.857,326.605,332.374,336.776,339.66,344.409,348.5922,351.11,354.411,357.751,364.779,370.836,374.12280000000004,376.635,382.047,385.33380000000005,387.846,392.803,397.759,406.086,408.576,411.062,416.018,420.975,431.8,436.756,442.525,448.6006,451.08,456.036,460.993,469.32,471.81,475.307,480.511,483.743,487.658,490.543,496.054,498.939,504.708,510.22,513.104,517.506" svgx:width="0.44,0.29,0.48,0.58,0.44,0.29,0.48,0.42,0.55,0.33,0.34,0.71,0.61,0.33,0.55,0.55,0.33,0.55,0.5,0.5,0.84,0.25,0.55,0.5,0.5,0.84,0.5,0.58,0.61,0.55,0.5,0.5,0.84,0.25,0.55,0.52,0.33,0.4,0.29,0.56,0.29,0.58,0.56,0.29,0.56,0.25" style="fill:rgb(0,0,0);font-family:URWPalladioL-Roma;font-size:9.96px;stroke:none;">ciencies (ICE) of 70%, 60%and 62%. Strikingly,</text>
   <text y="219.433" x="76.535,79.789,85.599,90.3798,92.866,96.231,103.308,109.3836,111.893,117.344,120.6308,123.163,126.418,132.228,137.0088,139.495,145.594,148.918,154.159,159.709,167.556,175.013,182.0846,184.576,189.357,192.262,197.044,201.476,204.731,208.494,213.944,220.044,224.8248,227.311,233.121,237.902,241.666,246.4468,248.933,253.715,258.866,263.298,268.08,272.861,278.961,283.1442,285.679,291.489,296.939,300.22580000000005,302.689,308.14,313.949,316.854,322.4316,324.89,328.145,333.954,338.7348,341.222,346.862,351.853,354.758,360.777,365.559,369.7422,372.277,377.728,381.01480000000004,383.538,389.637,392.961,398.202,406.048,413.505,420.5766,423.068,428.06,433.869,439.94460000000004,442.464,448.564,451.878,457.119,462.669,470.5374,473.011,477.793,480.697,485.479,489.911,493.166,496.929,502.38,508.479,513.26,517.493" svgx:width="0.33,0.58,0.48,0.55,0.34,0.71,0.61,0.55,0.55,0.33,0.55,0.33,0.58,0.48,0.55,0.61,0.33,0.52,0.56,0.79,0.75,0.71,0.55,0.48,0.29,0.48,0.44,0.33,0.4,0.55,0.61,0.48,0.55,0.58,0.48,0.4,0.48,0.55,0.48,0.52,0.44,0.48,0.48,0.61,0.42,0.55,0.58,0.55,0.33,0.55,0.55,0.58,0.29,0.56,0.55,0.33,0.58,0.48,0.55,0.56,0.5,0.29,0.6,0.48,0.42,0.55,0.55,0.33,0.55,0.61,0.33,0.52,0.79,0.75,0.71,0.55,0.5,0.58,0.61,0.55,0.61,0.33,0.52,0.56,0.79,0.55,0.48,0.29,0.48,0.44,0.33,0.4,0.55,0.61,0.48,0.42,0.25" style="fill:rgb(0,0,0);font-family:URWPalladioL-Roma;font-size:9.96px;stroke:none;">the ICE of the B-SFO@C electrode here exceeds not only the values of B-SO@C and B-SFO electrodes,</text>
   <text y="232.942" x="76.535,82.155,88.282,91.5688,95.162,100.243,103.2,107.508,112.98599999999999,116.634,119.946,125.861,130.64180000000002,134.295,138.807,144.355,150.483,156.397,159.71,164.577,168.591,174.698,179.779,183.793,187.106,191.2892,194.992,200.54,203.8268,207.491,216.464,221.545,227.459,233.0366,236.686,241.553,244.51,249.591,255.211,260.759,264.773,269.854,273.167,278.034,284.1096,287.81,293.724,298.805,304.719,310.268,314.576,317.533,322.614,327.482,333.55760000000004,337.258,342.593,348.507" svgx:width="0.55,0.6,0.33,0.55,0.5,0.29,0.42,0.55,0.55,0.33,0.58,0.48,0.55,0.44,0.55,0.6,0.58,0.33,0.48,0.4,0.6,0.5,0.4,0.33,0.42,0.55,0.55,0.33,0.55,0.88,0.5,0.58,0.56,0.55,0.48,0.29,0.5,0.55,0.55,0.4,0.5,0.33,0.48,0.61,0.55,0.58,0.5,0.58,0.55,0.42,0.29,0.5,0.48,0.61,0.55,0.52,0.58,0.79" style="fill:rgb(0,0,0);font-family:URWPalladioL-Roma;font-size:9.96px;stroke:none;">but also the counterparts of many elaborated nanosized SnO</text>
   <text y="234.807" x="356.498" svgx:width="0.5" style="fill:rgb(0,0,0);font-family:URWPalladioL-Roma;font-size:7.57px;stroke:none;">2</text>
   <text y="232.942" x="360.782,364.166,369.785,374.866,379.175,384.043,390.1186,393.818,398.33,403.878,412.851,418.959,424.507,428.816,431.773,435.086,439.8668,443.53,448.611,454.525,460.073,466.282,471.15,475.3332,479.025,482.409,487.49,492.571,497.652,502.733,507.814,516.35" svgx:width="0.33,0.55,0.5,0.42,0.48,0.61,0.55,0.44,0.55,0.88,0.6,0.55,0.42,0.29,0.33,0.48,0.55,0.5,0.58,0.55,0.61,0.48,0.42,0.55,0.33,0.5,0.5,0.5,0.5,0.5,0.84,0.33" style="fill:rgb(0,0,0);font-family:URWPalladioL-Roma;font-size:9.96px;stroke:none;">-based composite anodes (45–55%)</text>
   <text y="246.452" x="76.535,80.332,85.157,89.629,95.128,98.925,105.08,109.904,115.97959999999999,118.546,121.83,127.30799999999999,129.807,135.961,140.997,144.281,149.0618,151.593" svgx:width="0.4,0.48,0.44,0.55,0.4,0.61,0.48,0.61,0.55,0.33,0.55,0.55,0.61,0.5,0.33,0.48,0.55,0.33" style="fill:rgb(0,0,0);font-family:URWPalladioL-Roma;font-size:9.96px;stroke:none;">recorded to date [</text>
   <text y="246.452" x="154.942,159.923" svgx:width="0.5,0.5" style="fill:rgb(8,117,183);font-family:URWPalladioL-Roma;font-size:9.96px;stroke:none;">26</text>
   <text y="246.452" x="164.905" svgx:width="0.25" style="fill:rgb(0,0,0);font-family:URWPalladioL-Roma;font-size:9.96px;stroke:none;">,</text>
   <text y="246.452" x="167.423,172.404" svgx:width="0.5,0.5" style="fill:rgb(8,117,183);font-family:URWPalladioL-Roma;font-size:9.96px;stroke:none;">49</text>
   <text y="246.452" x="177.386" svgx:width="0.25" style="fill:rgb(0,0,0);font-family:URWPalladioL-Roma;font-size:9.96px;stroke:none;">,</text>
   <text y="246.452" x="179.904,184.885" svgx:width="0.5,0.5" style="fill:rgb(8,117,183);font-family:URWPalladioL-Roma;font-size:9.96px;stroke:none;">50</text>
   <text y="246.452" x="189.866,193.22,195.71,199.223,205.397,211.259,216.03979999999999,218.562,223.034,227.858,233.72,237.004,240.982,246.018,248.9064,251.437,255.234,260.059,265.095,269.366,274.865,280.6418,283.205,288.775,293.599,299.461,302.392,308.254,314.3296,316.896,320.18,326.042,330.8228,333.344,339.206,342.137,347.737,353.5138,356.077,359.471,366.613,372.6886,375.255,380.754,384.04080000000005,386.586,389.869,395.731,400.5118,403.034,409.188,412.542,417.83,423.43,431.347,438.87,445.9416,448.499,453.324,456.255,461.08,465.552,468.835,472.632,478.132,484.286,489.0668,491.588,494.519,498.7022,501.278,504.561,510.423,515.459" svgx:width="0.33,0.25,0.55,0.61,0.58,0.48,0.55,0.44,0.48,0.58,0.33,0.4,0.5,0.29,0.55,0.4,0.48,0.5,0.42,0.55,0.58,0.55,0.55,0.48,0.58,0.29,0.58,0.61,0.55,0.33,0.58,0.48,0.55,0.58,0.29,0.56,0.58,0.55,0.34,0.71,0.61,0.55,0.55,0.33,0.55,0.33,0.58,0.48,0.55,0.61,0.33,0.52,0.56,0.79,0.75,0.71,0.55,0.48,0.29,0.48,0.44,0.33,0.4,0.55,0.61,0.48,0.55,0.29,0.42,0.55,0.33,0.58,0.5,0.33" style="fill:rgb(0,0,0);font-family:URWPalladioL-Roma;font-size:9.96px;stroke:none;">]. The central reason behind the high ICE of the B-SFO@C electrode is that</text>
   <text y="259.961" x="76.535,79.848,85.762,90.5428,93.536,96.493,100.507,104.338,109.205,114.947,119.814,123.828,128.137,131.094,136.714,139.671,144.4518,147.434,151.946,157.027,163.134,168.215,172.727,175.684,178.997,184.5746,187.553,190.51,196.059,200.367,204.5502,207.582,212.45,218.364,224.014,228.871,234.786,240.994,245.862,249.703,254.571,260.6466,263.676,269.295,274.87260000000003,277.851,283.471,289.019,292.332,298.1088,301.153,304.455,310.369,315.1498,318.143,321.527,327.075,331.089,340.062,345.143,348.456,351.413,356.961,362.7378,365.782,371.33,374.6168,377.61,382.945,389.154,392.5404,395.485,401.633,404.59,413.35479999999995,416.459,421.54,427.454,433.5296,436.569,442.189,447.76660000000004,450.735,454.048,459.962,464.7428,467.736,470.693,474.707,478.538,483.405,489.147,494.014,498.028,502.337,505.294,510.913,513.87" svgx:width="0.33,0.58,0.48,0.55,0.29,0.4,0.4,0.48,0.56,0.48,0.4,0.42,0.29,0.55,0.29,0.48,0.55,0.44,0.5,0.6,0.5,0.44,0.29,0.33,0.56,0.55,0.29,0.55,0.42,0.42,0.55,0.48,0.58,0.56,0.48,0.58,0.61,0.48,0.4,0.48,0.61,0.55,0.55,0.56,0.55,0.55,0.55,0.33,0.58,0.55,0.33,0.58,0.48,0.55,0.33,0.55,0.4,0.88,0.5,0.33,0.29,0.55,0.58,0.55,0.55,0.33,0.55,0.52,0.61,0.34,0.55,0.61,0.29,0.88,0.55,0.5,0.58,0.61,0.55,0.55,0.56,0.55,0.33,0.58,0.48,0.55,0.29,0.4,0.4,0.48,0.56,0.48,0.4,0.42,0.29,0.55,0.29,0.48" style="fill:rgb(0,0,0);font-family:URWPalladioL-Roma;font-size:9.96px;stroke:none;">the irreversible capacity loss engendered by both the formation of SEI ﬁlm and by the irreversible</text>
   <text y="273.471" x="76.535,81.034,86.566,92.462,98.187,103.04,107.042,111.338,114.287,119.819,125.5958,128.198,132.696,138.593,143.447,152.393,155.341,159.637,162.94,166.943,172.5206,175.048,180.58,183.8668,186.436,191.756,197.653" svgx:width="0.44,0.55,0.58,0.56,0.48,0.4,0.42,0.29,0.55,0.58,0.55,0.44,0.58,0.48,0.88,0.29,0.42,0.33,0.4,0.56,0.55,0.55,0.33,0.55,0.52,0.58,0.79" style="fill:rgb(0,0,0);font-family:URWPalladioL-Roma;font-size:9.96px;stroke:none;">conversion chemistry of SnO</text>
   <text y="275.335" x="205.617" svgx:width="0.5" style="fill:rgb(0,0,0);font-family:URWPalladioL-Roma;font-size:7.57px;stroke:none;">2</text>
   <text y="273.471" x="212.381,215.329,219.5122,222.108,228.197,232.017,237.549,243.446,248.978,255.087,260.984,265.483,270.336,276.526,279.475,285.05260000000004,287.591,296.041,300.894,305.96,311.593,316.446,322.343,327.196,333.387,335.877,339.395,342.81,348.5868,351.189,356.721,360.024,365.921,370.774,374.758,377.258,385.708,391.24,395.06,401.251,405.547,408.03700000000003,410.562,413.865,419.762,424.5428,427.098,436.044,442.154,446.652,452.42879999999997,455.021,459.317,468.264,473.33,476.278,479.226,484.08,488.06399999999996,490.564,493.979,501.162,507.2376,509.835,515.367" svgx:width="0.29,0.42,0.55,0.6,0.4,0.55,0.58,0.55,0.6,0.58,0.44,0.48,0.61,0.29,0.56,0.55,0.83,0.48,0.5,0.56,0.48,0.58,0.48,0.61,0.25,0.55,0.34,0.58,0.55,0.55,0.33,0.58,0.48,0.4,0.55,0.83,0.55,0.4,0.61,0.42,0.25,0.55,0.33,0.58,0.48,0.55,0.88,0.6,0.44,0.58,0.55,0.42,0.88,0.5,0.29,0.29,0.48,0.4,0.55,0.34,0.71,0.61,0.55,0.55,0.33" style="fill:rgb(0,0,0);font-family:URWPalladioL-Roma;font-size:9.96px;stroke:none;">is pronouncedly weakened. In other words, the much smaller ICE of</text>
   <text y="286.98" x="76.535,82.549,85.827,90.994,98.731,106.084,113.1556,115.553,120.474,126.203,132.2786,134.717,140.731,144.009,149.177,154.649,164.876,169.247,174.621,178.509,182.22,186.935,189.799,194.72,197.929,202.7098,205.134,213.344,216.208,219.417,225.1938,227.636,230.844,236.573,241.3538,243.788,248.71,254.153,258.326,263.041,268.77,273.14,277.9208,280.345,285.719,289.0058,291.487,294.696,300.425,305.2058,307.63,313.073,315.938,321.666,326.588,330.476,336.0536,338.449,341.313,347.042,350.251,354.965,358.666,363.037,367.958,370.822,375.744,378.953,381.817,387.191,392.96779999999995,395.42,399.594,402.802,406.612,412.547,416.917,420.126,426.062,429.763,434.477,436.967,439.438,447.647,453.376,456.24,460.611,466.38779999999997,468.83,471.694,476.409,481.33,487.344,491.5272,494.008,497.217,502.695,505.091,508.3,514.029" svgx:width="0.61,0.33,0.52,0.79,0.75,0.71,0.55,0.5,0.58,0.61,0.55,0.61,0.33,0.52,0.56,0.79,0.44,0.55,0.4,0.4,0.48,0.29,0.5,0.33,0.48,0.55,0.83,0.29,0.33,0.58,0.55,0.33,0.58,0.48,0.55,0.5,0.55,0.42,0.48,0.58,0.44,0.48,0.55,0.55,0.33,0.55,0.33,0.58,0.48,0.55,0.55,0.29,0.58,0.5,0.4,0.56,0.55,0.29,0.58,0.33,0.48,0.4,0.44,0.5,0.29,0.5,0.33,0.29,0.55,0.58,0.55,0.42,0.33,0.4,0.6,0.44,0.33,0.6,0.4,0.48,0.25,0.55,0.83,0.58,0.29,0.44,0.58,0.55,0.29,0.48,0.5,0.61,0.42,0.55,0.33,0.55,0.55,0.33,0.58,0.48" style="fill:rgb(0,0,0);font-family:URWPalladioL-Roma;font-size:9.96px;stroke:none;">B-SO@C and B-SFOcorrelate with the absence of the binary intercalation structure, which leads to the</text>
   <text y="300.489" x="76.236,82.301,86.106,91.616,97.783,103.868,108.349,111.639,114.576,120.086,125.8628,128.453,133.963,137.2498,139.816,142.753,146.74,150.544,155.378,161.08,165.915,169.901,174.18,177.117,182.698,185.635,190.4158,192.961,199.027,204.9,209.946,214.225,219.06,223.2432,225.831,231.342,234.6288,237.195,243.361" svgx:width="0.6,0.4,0.55,0.61,0.6,0.44,0.33,0.29,0.55,0.58,0.55,0.55,0.33,0.55,0.29,0.4,0.4,0.48,0.56,0.48,0.4,0.42,0.29,0.55,0.29,0.48,0.55,0.6,0.58,0.5,0.42,0.48,0.42,0.55,0.55,0.33,0.55,0.61,0.29" style="fill:rgb(0,0,0);font-family:URWPalladioL-Roma;font-size:9.96px;stroke:none;">production of irreversible phases of Li</text>
   <text y="302.354" x="246.303" svgx:width="0.5" style="fill:rgb(0,0,0);font-family:URWPalladioL-Roma;font-size:7.57px;stroke:none;">2</text>
   <text y="300.489" x="250.586,258.4544,261.011,266.057,271.931,278.0066,280.59,286.756" svgx:width="0.79,0.55,0.5,0.58,0.61,0.55,0.61,0.29" style="fill:rgb(0,0,0);font-family:URWPalladioL-Roma;font-size:9.96px;stroke:none;">O and Li</text>
   <text y="301.984" x="289.694" svgx:width="0.5" style="fill:rgb(0,0,0);font-family:URWPalladioL-Ital;font-size:7.57px;stroke:none;">x</text>
   <text y="300.489" x="293.978,299.276,305.0528,307.643,312.124,317.634,326.545,332.611,338.121,343.994,348.829,354.702,357.992,362.1752,364.764,367.701,373.4778,376.067,379.357,385.231,390.0118,392.558,395.495,398.431,401.721,407.595,410.532,415.578,418.868,421.805,427.315,433.0918,435.681,440.515,446.217,451.052,456.925,460.215,462.705,466.23,472.396,477.231,481.51,484.446,490.613,495.447,499.726,502.216,504.742,508.032,513.905" svgx:width="0.52,0.58,0.55,0.44,0.55,0.88,0.6,0.55,0.58,0.48,0.58,0.33,0.42,0.55,0.29,0.58,0.55,0.33,0.58,0.48,0.55,0.29,0.29,0.33,0.58,0.29,0.5,0.33,0.29,0.55,0.58,0.55,0.48,0.56,0.48,0.58,0.33,0.25,0.55,0.61,0.48,0.42,0.29,0.61,0.48,0.42,0.25,0.55,0.33,0.58,0.48" style="fill:rgb(0,0,0);font-family:URWPalladioL-Roma;font-size:9.96px;stroke:none;">Sn components in the lithiation event. Besides, the</text>
   <text y="313.999" x="76.535,79.431,85.224,91.016,95.783,99.536,104.303,110.095,113.34,116.236,121.81360000000001,124.248,130.229,135.664,141.098,145.08200000000002,147.507,152.275,155.171,159.938,164.357,167.602,171.533,174.429,178.848,183.824,186.7124,189.199,193.618,199.052,204.844,210.925,216.927,221.346,224.59,227.487,233.11,236.006,239.251,244.8286,247.263,252.697,255.9838,258.489,262.709,265.605,271.398,276.931,279.828,284.6088,287.073,295.861,300.629,303.873,308.849,311.7374,314.224,319.449,325.2258,327.72,333.701,339.494,344.47,348.69,353.457,357.6402,360.155,363.052,368.844,374.925,380.926,385.345,390.113,394.2962,396.811,400.055,405.848,410.6288,413.093,416.846,421.613,424.509,429.485,432.73,435.626,441.249,446.017,448.913,454.49060000000003,456.925,462.926,468.719,472.939,477.915,481.159,484.056,488.276,491.59,496.566,500.985,504.23,509.664,513.595" svgx:width="0.29,0.58,0.58,0.48,0.4,0.48,0.58,0.33,0.29,0.56,0.55,0.6,0.55,0.55,0.4,0.55,0.48,0.29,0.48,0.44,0.33,0.4,0.29,0.44,0.5,0.29,0.55,0.44,0.55,0.58,0.61,0.6,0.44,0.33,0.29,0.56,0.29,0.33,0.56,0.55,0.55,0.33,0.55,0.42,0.29,0.58,0.56,0.29,0.48,0.55,0.88,0.48,0.33,0.5,0.29,0.55,0.52,0.58,0.55,0.6,0.58,0.5,0.42,0.48,0.42,0.55,0.29,0.58,0.61,0.6,0.44,0.48,0.42,0.55,0.33,0.58,0.48,0.55,0.4,0.48,0.29,0.5,0.33,0.29,0.56,0.48,0.29,0.56,0.55,0.6,0.58,0.42,0.5,0.33,0.29,0.42,0.33,0.5,0.44,0.33,0.55,0.4,0.56" style="fill:rgb(0,0,0);font-family:URWPalladioL-Roma;font-size:9.96px;stroke:none;">inherently poor electrical conductivity of single metal Sn phases induces the relatively unsatisfactory</text>
   <text y="327.508" x="76.535,79.486,85.389,88.34,91.646,94.598,99.669,102.5574,105.095,111.291,114.243,118.543,123.046,128.948,134.019,137.843,143.482" svgx:width="0.29,0.58,0.29,0.33,0.29,0.5,0.29,0.55,0.61,0.29,0.42,0.44,0.58,0.5,0.4,0.56,0.48" style="fill:rgb(0,0,0);font-family:URWPalladioL-Roma;font-size:9.96px;stroke:none;">initial discharge</text>
   <text y="327.508" x="148.338" svgx:width="0.29" style="fill:rgb(0,0,0);font-family:Rpxr;font-size:9.96px;stroke:none;">/</text>
   <text y="327.508" x="151.249,155.752,161.655,166.726,170.549,176.188,180.9688,183.521,188.024,193.095,199.19,204.261,208.764,211.715,215.021,217.973,222.831,227.131,229.621,233.145,238.47,244.585,249.088,254.8648,257.455,263.652,266.603,270.903,275.974,282.171,287.901,292.972,298.875,302.181,307.252,312.891,317.6718,320.224,324.727,329.798,335.5748,338.175,343.783,348.5638,351.106,356.177,362.373,368.57,372.394,377.252,381.552,385.852,390.71,396.7856,399.381,405.111,408.063,413.043,415.598,418.549,424.452,427.758,431.592,437.13,443.326,449.442,453.945,456.896,462.799,468.3766,470.902,474.208,480.111,484.8918,487.444,491.744,496.602,501.105,506.642,512.545" svgx:width="0.44,0.58,0.5,0.4,0.56,0.48,0.55,0.44,0.5,0.6,0.5,0.44,0.29,0.33,0.29,0.48,0.42,0.25,0.55,0.52,0.6,0.44,0.58,0.55,0.61,0.29,0.42,0.5,0.61,0.56,0.5,0.58,0.33,0.5,0.56,0.48,0.55,0.44,0.5,0.58,0.55,0.55,0.48,0.55,0.5,0.61,0.61,0.4,0.48,0.42,0.42,0.48,0.61,0.55,0.56,0.29,0.5,0.55,0.29,0.58,0.33,0.4,0.55,0.61,0.6,0.44,0.29,0.58,0.56,0.55,0.33,0.58,0.48,0.55,0.42,0.48,0.44,0.55,0.58,0.61" style="fill:rgb(0,0,0);font-family:URWPalladioL-Roma;font-size:9.96px;stroke:none;">charge capacities. Such disadvantage can be addressed via introducing the second</text>
   <text y="341.018" x="76.535,80.963,86.408,95.214,101.207,106.652,112.456,117.233,123.037,126.3238,128.781,134.226,137.5128,140.03,145.575,150.3558,152.845,156.166,159.068,163.007,166.767,171.544,175.772,181.765,186.542,190.97,194.221,197.123,202.758,207.5388,210.028,215.473,218.7598,221.277,225.705,230.691,234.63,240.145,245.59,251.3668,253.887,258.115,263.66,268.437,271.339,276.116,279.367,284.812,290.616,293.937,296.427,298.923,307.24,313.044,315.946,320.374,326.1508,328.661,332.421,337.198,346.004,350.99,354.929,360.474,365.46,370.975,373.877,379.4546,381.915,386.692,392.496,398.3,403.286,409.09,413.518,418.295,422.4782,425.016,430.531,435.976,439.227,445.00379999999996,447.514,450.765,456.569,461.3498,463.839,466.741,472.186,477.96279999999996,480.483,485.47,489.897,494.325,499.092,503.321,507.5042,510.042,513.293" svgx:width="0.44,0.55,0.88,0.6,0.55,0.58,0.48,0.58,0.33,0.55,0.55,0.33,0.55,0.56,0.48,0.55,0.33,0.29,0.4,0.4,0.48,0.42,0.6,0.48,0.44,0.33,0.29,0.56,0.48,0.55,0.55,0.33,0.55,0.44,0.5,0.4,0.55,0.55,0.58,0.55,0.42,0.56,0.48,0.29,0.48,0.33,0.55,0.58,0.33,0.25,0.55,0.83,0.58,0.29,0.44,0.58,0.55,0.4,0.48,0.88,0.5,0.4,0.56,0.5,0.55,0.29,0.56,0.55,0.48,0.58,0.58,0.5,0.58,0.44,0.48,0.42,0.55,0.55,0.55,0.33,0.58,0.55,0.33,0.58,0.48,0.55,0.29,0.55,0.58,0.55,0.5,0.44,0.44,0.48,0.42,0.42,0.55,0.33,0.55" style="fill:rgb(0,0,0);font-family:URWPalladioL-Roma;font-size:9.96px;stroke:none;">component of Fe (irrespective of carbon skeleton), which remarkably enhances both the ion access to</text>
   <text y="354.527" x="76.535,81.516,87.315,93.39059999999999,95.892,99.14,104.938,109.7188,112.201,116.973,119.872,124.644,129.068,132.316,136.072,141.511,147.2878,149.8,154.223,159.663,165.461,171.09,175.862,181.401,186.383,192.181,196.604,201.3848,203.867,208.848,211.747,217.187,222.985,228.5626,231.015,234.263,240.061,244.8418,247.324,252.096,254.995,259.767,264.19,267.438,271.194,276.634,281.615,286.038,289.286,292.185,297.814,302.5948,305.077,313.874,318.855,322.103,326.875,330.81,333.71,338.691,341.59,345.814" svgx:width="0.5,0.58,0.61,0.55,0.33,0.58,0.48,0.55,0.48,0.29,0.48,0.44,0.33,0.4,0.55,0.58,0.55,0.44,0.55,0.58,0.56,0.48,0.56,0.5,0.58,0.44,0.48,0.55,0.5,0.29,0.55,0.58,0.56,0.55,0.33,0.58,0.48,0.55,0.48,0.29,0.48,0.44,0.33,0.4,0.55,0.5,0.44,0.33,0.29,0.56,0.48,0.55,0.88,0.5,0.33,0.48,0.4,0.29,0.5,0.29,0.42,0.25" style="fill:rgb(0,0,0);font-family:URWPalladioL-Roma;font-size:9.96px;stroke:none;">and the electron conveyance along the electroactive materials.</text>
   <text y="368.036" x="97.795,104.024,109.938,114.7188,118.281,123.931,126.888,132.803,137.67,140.983,143.94,148.452,152.6352,156.246,161.794,165.0808,168.654,171.966,177.881,182.6618,186.223,192.432,195.816,201.151,206.801,214.788,222.379,229.584,232.074,235.6,241.809,245.193,250.528,258.515,266.106,273.1776,276.796,281.877,287.791,293.8666,297.475,303.684,307.068,312.403,318.053,325.9214,329.516,334.383,337.34,342.208,346.72,350.032,353.863,359.412,365.621,370.488,374.6712,378.282,386.757,391.625,395.456,400.2368,403.799,408.666,414.408,419.489,422.446,428.573,433.654,436.967,441.835,447.9106,451.529,457.077,462.819,467.676,471.65999999999997,475.176,480.156,483.732,489.473,494.554,498.568,504.218,507.175,513.089" svgx:width="0.61,0.58,0.48,0.55,0.56,0.29,0.58,0.48,0.33,0.29,0.44,0.42,0.55,0.55,0.33,0.55,0.33,0.58,0.48,0.55,0.61,0.33,0.52,0.56,0.79,0.75,0.71,0.25,0.55,0.61,0.33,0.52,0.79,0.75,0.71,0.55,0.5,0.58,0.61,0.55,0.61,0.33,0.52,0.56,0.79,0.55,0.48,0.29,0.48,0.44,0.33,0.4,0.55,0.61,0.48,0.42,0.55,0.83,0.48,0.4,0.48,0.55,0.48,0.56,0.5,0.29,0.6,0.5,0.33,0.48,0.61,0.55,0.55,0.56,0.48,0.4,0.55,0.5,0.55,0.56,0.5,0.4,0.56,0.29,0.58,0.56" style="fill:rgb(0,0,0);font-family:URWPalladioL-Roma;font-size:9.96px;stroke:none;">The kinetics of the B-SFO@C, B-SO@C and B-SFO electrodes were evaluated over a varying</text>
   <text y="381.546" x="76.535,80.541,85.612,91.515,97.154,101.9348,104.506,110.044,113.3308,115.926,120.429,126.545,130.551,134.374,139.232,145.135,148.4218,150.946,157.143,162.001,167.904,172.204,175.155,178.461,181.413,186.271,190.4542,193.066,198.674,203.532,206.838,215.297,220.155,225.013,230.7898,233.41,238.481,241.017,245.99699999999999,248.593,253.664,259.566,265.6416,268.258,273.329,275.864,280.844,283.44,291.2088,293.826" svgx:width="0.4,0.5,0.58,0.56,0.48,0.55,0.55,0.33,0.55,0.44,0.6,0.4,0.4,0.48,0.58,0.33,0.55,0.61,0.48,0.58,0.42,0.29,0.33,0.29,0.48,0.42,0.55,0.55,0.48,0.33,0.83,0.48,0.48,0.58,0.55,0.5,0.25,0.5,0.55,0.5,0.58,0.61,0.55,0.5,0.25,0.5,0.55,0.78,0.55,0.56" style="fill:rgb(0,0,0);font-family:URWPalladioL-Roma;font-size:9.96px;stroke:none;">range of current densities between 0.2 and 3.2 A g</text>
   <text y="377.929" x="299.468" svgx:width="0.67" style="fill:rgb(0,0,0);font-family:Pxsy;font-size:7.57px;stroke:none;">−</text>
   <text y="377.929" x="304.533" svgx:width="0.5" style="fill:rgb(0,0,0);font-family:URWPalladioL-Roma;font-size:7.57px;stroke:none;">1</text>
   <text y="381.546" x="308.817,311.307,313.858,318.928,324.831,330.9066,333.523,339.719,343.097,348.421,354.06,362.032,369.608,376.6796,379.303,382.681,387.539,392.61,395.916,402.031,405.855,410.713,414.8962,417.508,420.814,426.717,431.4978,434.08,439.151,442.457,445.763,449.769,454.84,459.343,462.65,465.601,471.331,476.1118,478.684,484.293,490.408,493.359,498.9366,501.503,505.509,510.58,513.887" svgx:width="0.25,0.55,0.5,0.58,0.61,0.55,0.61,0.33,0.52,0.56,0.79,0.75,0.71,0.55,0.33,0.48,0.5,0.33,0.6,0.4,0.48,0.42,0.55,0.33,0.58,0.48,0.55,0.5,0.33,0.33,0.4,0.5,0.44,0.33,0.29,0.56,0.48,0.55,0.55,0.6,0.29,0.56,0.55,0.4,0.5,0.33,0.48" style="fill:rgb(0,0,0);font-family:URWPalladioL-Roma;font-size:9.96px;stroke:none;">, and B-SFO@C features the attractive bulk rate</text>
   <text y="395.055" x="76.535,80.874,85.761,91.635,96.521,101.926,104.77,107.614,110.458,113.644,119.22160000000001,121.58,124.424,130.20080000000002,132.614,136.758,139.944,144.831,150.519,156.49,161.377,165.062,171.13760000000002,173.535,178.217,181.061,185.742,190.081,193.267,196.942,202.278,208.25,213.0308,215.443,218.698,224.034,227.894,236.524,242.417,245.261,250.148,253.334,256.168,261.505,267.193,271.337,273.827,277.308,284.912,289.0952,291.558,295.702,300.383,305.064,310.8408,313.254,316.098,321.8748,324.288,329.722,332.566,338.0,343.894,347.578" svgx:width="0.44,0.5,0.6,0.5,0.55,0.29,0.29,0.29,0.33,0.56,0.55,0.29,0.58,0.55,0.42,0.33,0.5,0.58,0.61,0.5,0.4,0.61,0.55,0.48,0.29,0.48,0.44,0.33,0.4,0.55,0.61,0.48,0.55,0.33,0.55,0.4,0.88,0.6,0.29,0.5,0.33,0.29,0.55,0.58,0.42,0.25,0.55,0.78,0.42,0.55,0.42,0.48,0.48,0.58,0.55,0.29,0.58,0.55,0.56,0.29,0.56,0.6,0.4,0.48" style="fill:rgb(0,0,0);font-family:URWPalladioL-Roma;font-size:9.96px;stroke:none;">capability in standard electrode formulations. As seen in Figure</text>
   <text y="395.055" x="354.762" svgx:width="0.5" style="fill:rgb(8,117,183);font-family:URWPalladioL-Roma;font-size:9.96px;stroke:none;">5</text>
   <text y="395.055" x="359.648,363.988,366.478,368.933,372.119,377.807,382.5878,384.99,389.877,395.399,400.08,403.941,408.828,414.262,419.0428,421.445,427.416,430.26,434.404,438.744,444.432,449.318,453.003,458.437,463.2178,465.62,469.96,474.846,480.72,485.607,489.946,492.79,495.976,498.82,503.502,507.6852,510.147,515.484" svgx:width="0.44,0.25,0.55,0.33,0.58,0.48,0.55,0.5,0.56,0.48,0.4,0.5,0.56,0.48,0.55,0.61,0.29,0.42,0.44,0.58,0.5,0.4,0.56,0.48,0.55,0.44,0.5,0.6,0.5,0.44,0.29,0.33,0.29,0.48,0.42,0.55,0.55,0.33" style="fill:rgb(0,0,0);font-family:URWPalladioL-Roma;font-size:9.96px;stroke:none;">c, the average discharge capacities of</text>
   <text y="408.565" x="76.535,82.634,85.959,91.199,96.75,104.596,112.053,119.1246,121.626,126.617,129.90380000000002,132.367,137.359,139.854,144.845,147.335,149.847,154.838,157.334,162.325,164.815,167.316,172.307,178.117,184.1926,186.712,191.703,194.199,199.179,201.686,209.4548,211.958" svgx:width="0.61,0.33,0.52,0.56,0.79,0.75,0.71,0.55,0.5,0.33,0.55,0.5,0.25,0.5,0.25,0.55,0.5,0.25,0.5,0.25,0.55,0.5,0.58,0.61,0.55,0.5,0.25,0.5,0.55,0.78,0.55,0.56" style="fill:rgb(0,0,0);font-family:URWPalladioL-Roma;font-size:9.96px;stroke:none;">B-SFO@C at 0.2, 0.4, and 0.8 A g</text>
   <text y="404.948" x="217.505" svgx:width="0.67" style="fill:rgb(0,0,0);font-family:Pxsy;font-size:7.57px;stroke:none;">−</text>
   <text y="404.948" x="222.57" svgx:width="0.5" style="fill:rgb(0,0,0);font-family:URWPalladioL-Roma;font-size:7.57px;stroke:none;">1</text>
   <text y="408.565" x="229.352,234.343,243.158,248.608,254.628,260.438,263.7248,266.188,269.442,274.92,277.388,282.379,287.37,292.362,294.85200000000003,297.363,302.354,307.346,312.337,314.827,317.328,322.319,328.129,334.2046,336.724,341.715,346.707,351.687,354.194,363.008,370.775,376.55179999999996,379.09" svgx:width="0.5,0.88,0.55,0.6,0.58,0.33,0.55,0.33,0.55,0.55,0.5,0.5,0.5,0.25,0.55,0.5,0.5,0.5,0.25,0.55,0.5,0.58,0.61,0.55,0.5,0.5,0.5,0.55,0.88,0.78,0.58,0.55,0.56" style="fill:rgb(0,0,0);font-family:URWPalladioL-Roma;font-size:9.96px;stroke:none;">amount to 958, 890, and 774 mAh g</text>
   <text y="404.948" x="384.636" svgx:width="0.67" style="fill:rgb(0,0,0);font-family:Pxsy;font-size:7.57px;stroke:none;">−</text>
   <text y="404.948" x="389.701" svgx:width="0.5" style="fill:rgb(0,0,0);font-family:URWPalladioL-Roma;font-size:7.57px;stroke:none;">1</text>
   <text y="408.565" x="393.985,396.475,398.976,402.74,407.521,411.754,417.753,422.535,426.967,430.222,433.126,438.767,443.548,446.453,450.905,453.395,456.905,463.024,468.834,474.853,479.086,481.576,484.077,487.841,493.291,499.311,504.861,510.671,513.576" svgx:width="0.25,0.55,0.4,0.48,0.42,0.6,0.48,0.44,0.33,0.29,0.56,0.48,0.29,0.56,0.25,0.55,0.61,0.58,0.6,0.42,0.25,0.55,0.4,0.55,0.6,0.56,0.58,0.29,0.56" style="fill:rgb(0,0,0);font-family:URWPalladioL-Roma;font-size:9.96px;stroke:none;">, respectively. Thus, roughly</text>
   <text y="422.074" x="76.535,81.526,84.022,89.013,94.004,100.054,105.045,107.541,112.532,117.512,120.019,126.118" svgx:width="0.5,0.25,0.5,0.5,0.61,0.5,0.25,0.5,0.5,0.55,0.61,0.29" style="fill:rgb(0,0,0);font-family:URWPalladioL-Roma;font-size:9.96px;stroke:none;">5.60~4.53 Li</text>
   <text y="418.457" x="129.023" svgx:width="0.67" style="fill:rgb(0,0,0);font-family:Rpxr;font-size:7.57px;stroke:none;">+</text>
   <text y="422.074" x="134.587" svgx:width="0.29" style="fill:rgb(0,0,0);font-family:Rpxr;font-size:9.96px;stroke:none;">/</text>
   <text y="422.074" x="137.452,143.571,155.51,158.835,164.954,176.893,185.708,190.489,195.48,201.29,205.4732,208.018,211.273,215.216,220.207,226.017,230.25,233.154,236.409,239.314,244.764,250.54080000000002,253.07,261.884,266.666,269.92,274.911,277.816,281.1028,283.636,288.068,293.06,298.8368,301.365,306.885,311.6658,314.163,317.926,322.708,328.348,333.129,337.072,341.305,344.21,349.73,352.635,358.2126,360.671,363.576,369.386,372.64,377.422,381.185,385.617,390.609,393.514,398.505,401.759,406.541,412.6166,415.136,418.39,423.868,426.336,432.436,437.217,440.122,443.027,448.667,453.449,457.433,459.887,464.669,470.479,475.26,479.024,484.574,489.016,491.50600000000003,494.018,502.343,508.153,511.058,513.963" svgx:width="0.61,0.95,0.33,0.61,0.95,0.88,0.48,0.5,0.58,0.42,0.55,0.33,0.4,0.5,0.58,0.42,0.29,0.33,0.29,0.55,0.58,0.55,0.88,0.48,0.33,0.5,0.29,0.33,0.55,0.44,0.5,0.58,0.55,0.55,0.48,0.55,0.4,0.48,0.56,0.48,0.4,0.42,0.29,0.55,0.29,0.56,0.55,0.29,0.58,0.33,0.48,0.4,0.44,0.5,0.29,0.5,0.33,0.48,0.61,0.55,0.33,0.55,0.55,0.61,0.48,0.29,0.29,0.56,0.48,0.4,0.55,0.48,0.58,0.48,0.4,0.56,0.56,0.25,0.55,0.83,0.58,0.29,0.29,0.48" style="fill:rgb(0,0,0);font-family:URWPalladioL-Roma;font-size:9.96px;stroke:none;">TM(TMmeans transition metal) can be reversibly intercalated to deliver energy, while</text>
   <text y="435.583" x="76.535,82.726,86.1,91.419,97.052,105.016,112.585,119.6566,122.25,126.546,132.656,136.952,140.255,145.321,148.269,154.166,158.3492,160.944,165.92399999999998,168.493,172.991,178.057,184.147,189.213,193.711,196.66,199.963,205.54059999999998,208.078,213.61,216.8968,219.467,224.533,227.066,232.132,237.112,239.68,245.871" svgx:width="0.61,0.33,0.52,0.56,0.79,0.75,0.71,0.55,0.42,0.6,0.42,0.33,0.5,0.29,0.58,0.42,0.55,0.5,0.55,0.44,0.5,0.6,0.5,0.44,0.29,0.33,0.56,0.55,0.55,0.33,0.55,0.5,0.25,0.5,0.5,0.55,0.61,0.29" style="fill:rgb(0,0,0);font-family:URWPalladioL-Roma;font-size:9.96px;stroke:none;">B-SFO@C sustains a capacity of 3.71 Li</text>
   <text y="431.967" x="248.818" svgx:width="0.67" style="fill:rgb(0,0,0);font-family:Rpxr;font-size:7.57px;stroke:none;">+</text>
   <text y="435.583" x="254.382" svgx:width="0.29" style="fill:rgb(0,0,0);font-family:Rpxr;font-size:9.96px;stroke:none;">/</text>
   <text y="435.583" x="257.29,263.501,273.086,275.576,278.101,284.292,289.145,293.441,299.53,302.479,305.782,310.5628,313.117,318.09700000000004,320.665,326.299,331.365,334.313,340.08979999999997,342.692,345.641,351.4178,354.02,358.022,363.088,366.391,371.1718,373.727,379.329,384.9066,387.445,392.425,394.993,398.367,403.433,407.932,411.235,416.767,420.751,423.251,428.784,432.0708,434.64,439.493,442.441,448.075,453.972,457.275,459.765,463.293,471.176,474.4628,476.961,482.027,484.56,489.54,492.108,499.8768,502.473" svgx:width="0.61,0.95,0.25,0.55,0.61,0.48,0.42,0.6,0.29,0.33,0.48,0.55,0.5,0.55,0.56,0.5,0.29,0.58,0.55,0.29,0.58,0.55,0.4,0.5,0.33,0.48,0.55,0.55,0.56,0.55,0.5,0.55,0.33,0.5,0.44,0.33,0.55,0.4,0.55,0.55,0.33,0.55,0.48,0.29,0.56,0.58,0.33,0.25,0.55,0.78,0.33,0.55,0.5,0.25,0.5,0.55,0.78,0.55,0.56" style="fill:rgb(0,0,0);font-family:URWPalladioL-Roma;font-size:9.96px;stroke:none;">TM, despite a gain in rate by a factor of eight. At 3.2 A g</text>
   <text y="431.967" x="508.103" svgx:width="0.67" style="fill:rgb(0,0,0);font-family:Pxsy;font-size:7.57px;stroke:none;">−</text>
   <text y="431.967" x="513.169" svgx:width="0.5" style="fill:rgb(0,0,0);font-family:URWPalladioL-Roma;font-size:7.57px;stroke:none;">1</text>
   <text y="435.583" x="517.453" svgx:width="0.25" style="fill:rgb(0,0,0);font-family:URWPalladioL-Roma;font-size:9.96px;stroke:none;">,</text>
   <text y="449.093" x="76.117,84.326,90.055,92.919,97.289,103.0658,105.508,114.2,118.915,123.836,129.565,133.7482,136.238,141.218,143.65,147.538,152.46,155.669,160.4498,162.874,167.588,173.317,179.046,183.967,189.696,194.066,198.781,207.472,212.187,217.916,221.2028,223.625,229.068,234.6456,237.031,241.953,246.933,249.374,252.652,258.026,260.891,266.905,271.078,273.568,276.029,278.894,282.18080000000003,284.593,288.766,291.975,294.839,297.704,300.5924,303.068,306.779,311.494,320.175,325.107,327.961,333.69,337.8732,340.363,346.279,349.99,355.364,360.807,365.729,371.172,374.036,378.8168,381.242,384.45,389.928,392.315,396.488,404.698,409.619,415.595,418.035,422.956,425.417,430.339,435.319,437.75,443.765" svgx:width="0.83,0.58,0.29,0.44,0.58,0.55,0.88,0.48,0.5,0.58,0.42,0.55,0.5,0.55,0.4,0.5,0.33,0.48,0.55,0.48,0.58,0.58,0.5,0.58,0.44,0.48,0.88,0.48,0.58,0.33,0.55,0.55,0.56,0.55,0.5,0.5,0.55,0.33,0.55,0.29,0.61,0.42,0.25,0.55,0.29,0.33,0.55,0.42,0.33,0.29,0.29,0.29,0.55,0.4,0.48,0.88,0.5,0.29,0.58,0.42,0.55,0.6,0.4,0.55,0.55,0.5,0.55,0.29,0.48,0.55,0.33,0.55,0.55,0.42,0.83,0.5,0.6,0.55,0.5,0.25,0.5,0.5,0.55,0.61,0.29" style="fill:rgb(0,0,0);font-family:URWPalladioL-Roma;font-size:9.96px;stroke:none;">which means a rate enhancement by 16 folds, it still remains probable to swap 2.70 Li</text>
   <text y="445.476" x="446.63" svgx:width="0.67" style="fill:rgb(0,0,0);font-family:Rpxr;font-size:7.57px;stroke:none;">+</text>
   <text y="449.093" x="452.194" svgx:width="0.29" style="fill:rgb(0,0,0);font-family:Rpxr;font-size:9.96px;stroke:none;">/</text>
   <text y="449.093" x="455.019,461.053,472.855,477.776,483.505,489.5806,492.019,496.941,501.311,505.681,510.396,514.569" svgx:width="0.61,0.95,0.5,0.58,0.61,0.55,0.5,0.44,0.44,0.48,0.42,0.42" style="fill:rgb(0,0,0);font-family:URWPalladioL-Roma;font-size:9.96px;stroke:none;">TMand access</text>
   <text y="462.602" x="76.535,81.516,86.498,91.47800000000001,93.97,102.767,110.517,116.29379999999999,118.806" svgx:width="0.5,0.5,0.5,0.55,0.88,0.78,0.58,0.55,0.56" style="fill:rgb(0,0,0);font-family:URWPalladioL-Roma;font-size:9.96px;stroke:none;">462 mAh g</text>
   <text y="458.986" x="124.346" svgx:width="0.67" style="fill:rgb(0,0,0);font-family:Pxsy;font-size:7.57px;stroke:none;">−</text>
   <text y="458.986" x="129.411" svgx:width="0.5" style="fill:rgb(0,0,0);font-family:URWPalladioL-Roma;font-size:7.57px;stroke:none;">1</text>
   <text y="462.602" x="133.695,136.185,138.523,143.951,149.282,153.26600000000002,155.472,158.655,164.337,169.1178,171.357,175.497,180.378,185.807,190.5878,192.817,198.148,201.4348,203.732,208.067,213.75,218.426,222.761,228.19,231.031,236.713,242.29059999999998,244.485,247.667,253.35,258.1308,260.36,264.216,269.098,272.281,277.0618,279.291,284.69,289.367,295.049,299.931,305.447,308.288,313.619,319.506,323.48999999999995,325.706,328.547,334.3238,336.563,345.184,350.515,354.195,358.9758,361.205,365.062,367.903,373.332,378.662,382.343,387.674,393.561,397.7442,400.034,404.711,410.393,415.909,418.751,422.431,427.762,433.444,442.065,446.742,452.424,455.607,459.747,462.237,464.55,467.392,476.013,484.634,489.31,495.276,498.117,502.998,506.181,510.858,513.699" svgx:width="0.25,0.55,0.56,0.55,0.4,0.55,0.33,0.58,0.48,0.55,0.42,0.5,0.56,0.48,0.55,0.55,0.33,0.55,0.44,0.58,0.48,0.44,0.56,0.29,0.58,0.56,0.55,0.33,0.58,0.48,0.55,0.4,0.5,0.33,0.48,0.55,0.55,0.48,0.58,0.5,0.56,0.29,0.55,0.6,0.4,0.55,0.29,0.58,0.55,0.88,0.55,0.4,0.48,0.55,0.4,0.29,0.56,0.55,0.4,0.55,0.6,0.42,0.55,0.48,0.58,0.56,0.29,0.4,0.55,0.58,0.88,0.48,0.58,0.33,0.42,0.25,0.55,0.29,0.88,0.88,0.48,0.61,0.29,0.5,0.33,0.48,0.29,0.56" style="fill:rgb(0,0,0);font-family:URWPalladioL-Roma;font-size:9.96px;stroke:none;">. For the sake of checking the rate behaviour in more rigorous environments, immediately</text>
   <text y="476.112" x="76.535,81.501,84.809,88.047,92.805,96.789,99.221,104.714,109.472,112.362,118.143,123.7206,126.159,131.125,135.337,139.548,144.306,148.517,152.729,157.487,163.5626,166.049,171.015,174.3018,176.746,181.713,184.196,189.176,191.655,199.4238,201.876" svgx:width="0.5,0.33,0.33,0.48,0.4,0.55,0.55,0.48,0.29,0.58,0.56,0.55,0.5,0.42,0.42,0.48,0.42,0.42,0.48,0.61,0.55,0.5,0.33,0.55,0.5,0.25,0.5,0.55,0.78,0.55,0.56" style="fill:rgb(0,0,0);font-family:URWPalladioL-Roma;font-size:9.96px;stroke:none;">after being assessed at 3.2 A g</text>
   <text y="472.495" x="207.403" svgx:width="0.67" style="fill:rgb(0,0,0);font-family:Pxsy;font-size:7.57px;stroke:none;">−</text>
   <text y="472.495" x="212.469" svgx:width="0.5" style="fill:rgb(0,0,0);font-family:URWPalladioL-Roma;font-size:7.57px;stroke:none;">1</text>
   <text y="476.112" x="216.753,219.243,221.729,224.967,230.748,235.5288,237.999,242.409,248.399,252.322,256.067,260.824,266.605,269.89180000000005,272.336,278.405,283.163,288.944,293.155,296.046,299.284,304.8616,307.3,311.044,315.802,321.414,326.172,330.095,333.333,337.5162,340.038,343.276,348.754,351.192,356.159,358.642,363.622,366.101,373.8698,376.332" svgx:width="0.25,0.55,0.33,0.58,0.48,0.55,0.44,0.6,0.4,0.4,0.48,0.58,0.33,0.55,0.61,0.48,0.58,0.42,0.29,0.33,0.56,0.55,0.4,0.48,0.56,0.48,0.4,0.33,0.42,0.55,0.33,0.55,0.55,0.5,0.25,0.5,0.55,0.78,0.55,0.56" style="fill:rgb(0,0,0);font-family:URWPalladioL-Roma;font-size:9.96px;stroke:none;">, the current density reverts to 0.2 A g</text>
   <text y="472.495" x="381.85" svgx:width="0.67" style="fill:rgb(0,0,0);font-family:Pxsy;font-size:7.57px;stroke:none;">−</text>
   <text y="472.495" x="386.915" svgx:width="0.5" style="fill:rgb(0,0,0);font-family:URWPalladioL-Roma;font-size:7.57px;stroke:none;">1</text>
   <text y="476.112" x="391.199,393.689,396.175,401.142,404.4288,406.873,415.157,420.938,423.828,428.238,434.0148,436.512,439.75,445.531,450.3118,452.782,456.02,460.778,464.989,468.2758,470.72,479.004,483.971,488.1542,490.685,495.095,500.618,505.028,507.918,512.676" svgx:width="0.25,0.55,0.5,0.33,0.55,0.83,0.58,0.29,0.44,0.58,0.55,0.33,0.58,0.48,0.55,0.33,0.48,0.42,0.33,0.55,0.83,0.5,0.42,0.55,0.44,0.56,0.44,0.29,0.48,0.61" style="fill:rgb(0,0,0);font-family:URWPalladioL-Roma;font-size:9.96px;stroke:none;">, at which the test was cycled</text>
   <text y="489.621" x="76.535,81.866,87.382,92.059,96.04299999999999,97.79,102.671,107.65100000000001,109.428,113.206,119.093,124.776,128.915,131.405,134.637,137.927,143.7038,145.484,149.623,155.511,159.846,165.6228,167.412,171.747,174.588,178.259,182.594,188.482,197.103,201.242,204.425,209.307,214.989,219.324,224.001,228.14,230.63,232.583,237.464,239.905,244.787,249.767,251.543,257.508" svgx:width="0.55,0.56,0.48,0.4,0.55,0.5,0.5,0.55,0.4,0.6,0.58,0.42,0.25,0.55,0.34,0.58,0.55,0.42,0.6,0.44,0.58,0.55,0.44,0.29,0.4,0.44,0.6,0.88,0.42,0.33,0.5,0.58,0.44,0.48,0.42,0.25,0.55,0.5,0.25,0.5,0.5,0.55,0.61,0.29" style="fill:rgb(0,0,0);font-family:URWPalladioL-Roma;font-size:9.96px;stroke:none;">over 50 runs. In such circumstances, 4.46 Li</text>
   <text y="486.004" x="260.35" svgx:width="0.67" style="fill:rgb(0,0,0);font-family:Rpxr;font-size:7.57px;stroke:none;">+</text>
   <text y="489.621" x="265.913" svgx:width="0.29" style="fill:rgb(0,0,0);font-family:Rpxr;font-size:9.96px;stroke:none;">/</text>
   <text y="489.621" x="268.715,274.7,285.811,289.062,293.943,297.624,302.955,308.842,314.525,322.365,327.246,332.128,337.108,338.884,347.505,355.101,360.8778,362.658" svgx:width="0.61,0.95,0.33,0.5,0.4,0.55,0.6,0.58,0.61,0.5,0.5,0.5,0.55,0.88,0.78,0.58,0.55,0.56" style="fill:rgb(0,0,0);font-family:URWPalladioL-Roma;font-size:9.96px;stroke:none;">TM(around762 mAh g</text>
   <text y="486.004" x="368.088" svgx:width="0.67" style="fill:rgb(0,0,0);font-family:Pxsy;font-size:7.57px;stroke:none;">−</text>
   <text y="486.004" x="373.153" svgx:width="0.5" style="fill:rgb(0,0,0);font-family:URWPalladioL-Roma;font-size:7.57px;stroke:none;">1</text>
   <text y="489.621" x="377.437,380.72380000000004,382.563,386.898,391.779,397.5558,399.336,404.765,409.441,412.7278,414.499,418.18,422.856,428.372,433.049,436.906,441.045,443.886,449.286,452.127,457.7046,459.43,462.271,467.953,472.093,476.769,480.626,483.809,488.485,494.451,496.94100000000003,498.893,507.036,509.877,513.06" svgx:width="0.33,0.55,0.44,0.5,0.58,0.55,0.56,0.48,0.33,0.55,0.4,0.48,0.56,0.48,0.4,0.42,0.29,0.55,0.29,0.56,0.55,0.29,0.58,0.42,0.48,0.4,0.33,0.48,0.61,0.25,0.55,0.83,0.29,0.33,0.58" style="fill:rgb(0,0,0);font-family:URWPalladioL-Roma;font-size:9.96px;stroke:none;">) can get reversibly inserted, with</text>
   <text y="503.13" x="76.535,81.515,83.974,88.921,91.394,96.341,101.321,103.78,109.825" svgx:width="0.5,0.55,0.5,0.25,0.5,0.5,0.55,0.61,0.29" style="fill:rgb(0,0,0);font-family:URWPalladioL-Roma;font-size:9.96px;stroke:none;">a 4.82 Li</text>
   <text y="499.514" x="112.707" svgx:width="0.67" style="fill:rgb(0,0,0);font-family:Rpxr;font-size:7.57px;stroke:none;">+</text>
   <text y="503.13" x="118.271" svgx:width="0.29" style="fill:rgb(0,0,0);font-family:Rpxr;font-size:9.96px;stroke:none;">/</text>
   <text y="503.13" x="121.11,127.174,139.026,143.765,148.869,153.262,159.019,163.966,169.724,175.224,179.963,186.0386,188.5,191.794,197.196,201.18,203.597,208.577,211.046,214.776,219.514,224.461,228.843,232.068,234.947,240.537,245.483,248.708,253.447" svgx:width="0.61,0.95,0.48,0.52,0.44,0.58,0.5,0.58,0.56,0.48,0.61,0.55,0.33,0.55,0.4,0.55,0.5,0.55,0.4,0.48,0.5,0.44,0.33,0.29,0.56,0.5,0.33,0.48,0.61" style="fill:rgb(0,0,0);font-family:URWPalladioL-Roma;font-size:9.96px;stroke:none;">TMexchanged for a reactivated</text>
   <text y="503.13" x="259.496" svgx:width="0.29" style="fill:rgb(0,0,0);font-family:Rpxr;font-size:9.96px;stroke:none;">/</text>
   <text y="503.13" x="262.335,266.53,271.268,274.493,277.718,280.597,285.336,291.4116,293.873,298.266,303.212,309.158,314.104,318.497,321.376,324.601,330.1786,332.594,337.996,341.2828,343.783,348.729,353.676,358.656,361.125,369.861,377.557,383.3338,385.808" svgx:width="0.42,0.48,0.33,0.33,0.29,0.48,0.61,0.55,0.44,0.5,0.6,0.5,0.44,0.29,0.33,0.56,0.55,0.55,0.33,0.55,0.5,0.5,0.5,0.55,0.88,0.78,0.58,0.55,0.56" style="fill:rgb(0,0,0);font-family:URWPalladioL-Roma;font-size:9.96px;stroke:none;">settled capacity of 825 mAh g</text>
   <text y="499.514" x="391.306" svgx:width="0.67" style="fill:rgb(0,0,0);font-family:Pxsy;font-size:7.57px;stroke:none;">−</text>
   <text y="499.514" x="396.372" svgx:width="0.5" style="fill:rgb(0,0,0);font-family:URWPalladioL-Roma;font-size:7.57px;stroke:none;">1</text>
   <text y="503.13" x="403.15,408.096,411.391,414.616,419.354,423.33799999999997,425.755,430.702,435.682,438.141,442.534,447.935,453.693,457.887,462.626,467.018,472.984,476.209,479.088,484.677,489.4578,491.909,496.301,501.802,506.194,509.073,513.812,518.006" svgx:width="0.5,0.33,0.33,0.48,0.4,0.55,0.5,0.5,0.55,0.44,0.55,0.58,0.42,0.48,0.44,0.6,0.33,0.29,0.56,0.48,0.55,0.44,0.56,0.44,0.29,0.48,0.42,0.25" style="fill:rgb(0,0,0);font-family:URWPalladioL-Roma;font-size:9.96px;stroke:none;">after 40 consecutive cycles.</text>
   <text y="516.64" x="76.226,82.455,88.369,93.1498,95.879,99.893,104.974,108.287,113.0678,115.796,121.416,126.283,132.197,137.278,143.02,145.977,151.525,155.50900000000001,158.181,161.138,166.9148,169.695,173.007,178.922,183.7028,186.431,192.051,195.008,200.922,206.003,210.017,215.59459999999999,218.309,227.282,232.149,235.462,240.543,243.5,246.884,249.841,255.755,259.139,263.651,268.732,272.746,278.366,283.914,289.69079999999997,292.47,296.982,302.53,308.445,314.593,320.243,326.37,330.384,335.465,338.778,341.735,347.283,353.0598,355.839,360.707,365.951,370.462,375.33,380.197,386.406,390.5892,393.357,398.33700000000005,401.08,406.822,411.902,415.916,418.873,423.741,427.054,432.6316,435.356,440.904,444.1908,446.93,452.011,457.926,463.474,469.683,474.4638,477.192,486.165,491.246,494.559,499.427,503.44,506.398,511.478,514.436" svgx:width="0.61,0.58,0.48,0.55,0.4,0.5,0.33,0.48,0.55,0.55,0.48,0.58,0.5,0.56,0.29,0.55,0.4,0.55,0.29,0.58,0.55,0.33,0.58,0.48,0.55,0.55,0.29,0.58,0.5,0.4,0.56,0.55,0.88,0.48,0.33,0.5,0.29,0.33,0.29,0.58,0.33,0.44,0.5,0.4,0.55,0.55,0.58,0.55,0.44,0.55,0.58,0.61,0.56,0.6,0.4,0.5,0.33,0.29,0.55,0.58,0.55,0.48,0.52,0.44,0.48,0.48,0.61,0.42,0.55,0.5,0.55,0.56,0.5,0.4,0.29,0.48,0.33,0.56,0.55,0.55,0.33,0.55,0.5,0.58,0.55,0.61,0.48,0.55,0.88,0.5,0.33,0.48,0.4,0.29,0.5,0.29,0.42" style="fill:rgb(0,0,0);font-family:URWPalladioL-Roma;font-size:9.96px;stroke:none;">The rate behavior in the binary metal-in-carbon conﬁguration exceeds a variety of anode materials</text>
   <text y="530.149" x="76.535,81.616,87.53,93.6056,97.194,102.062,107.803,112.671,118.4478,122.05,127.7,132.567,137.435,143.542,147.7252,151.306,156.387,162.006,165.837,170.705,175.786,180.094,183.3808,186.862,195.337,198.294,201.607,207.3838,210.986,215.295,220.843,229.816,234.5968,238.139,241.096,244.053,247.366,253.28,256.237,262.365,271.1298,274.793,279.101,284.65,287.607,290.564,296.63960000000003,300.228,305.095,308.052,312.92,317.432,320.745,324.586,330.134,333.091,338.741,342.054,346.922,351.23,353.72,360.152,366.382,372.296,377.0768,380.618,386.532,389.49,395.139,400.9158,404.519,408.533,413.614,416.926,421.7068,425.249,429.761,434.842,440.949,446.03,451.65,454.607,457.564,460.521,463.834,469.4116,472.939,475.896,481.81,487.724,492.592,496.423,501.29,507.204,510.517,513.474" svgx:width="0.5,0.58,0.61,0.55,0.48,0.56,0.48,0.58,0.55,0.56,0.48,0.48,0.6,0.42,0.55,0.5,0.55,0.4,0.48,0.5,0.42,0.33,0.55,0.83,0.29,0.33,0.58,0.55,0.42,0.55,0.88,0.48,0.55,0.29,0.29,0.33,0.58,0.29,0.6,0.88,0.55,0.42,0.55,0.29,0.29,0.61,0.55,0.48,0.29,0.48,0.44,0.33,0.4,0.55,0.29,0.56,0.33,0.48,0.42,0.25,0.55,0.61,0.58,0.48,0.55,0.58,0.29,0.56,0.58,0.55,0.4,0.5,0.33,0.48,0.55,0.44,0.5,0.6,0.5,0.55,0.29,0.29,0.29,0.33,0.56,0.55,0.29,0.58,0.58,0.48,0.4,0.48,0.58,0.33,0.29,0.56" style="fill:rgb(0,0,0);font-family:URWPalladioL-Roma;font-size:9.96px;stroke:none;">and even keeps abreast with some lithium solid electrolytes. The high rate capability inherently</text>
   <text y="543.658" x="76.535,80.91,86.289,90.181,93.896,98.616,101.483,106.409,109.621,114.341,118.5242,121.002,129.219,132.086,135.298,141.0748,143.526,146.738,152.472,157.2528,159.685,164.404,169.488,173.863,178.583,181.45,184.317,189.037,194.771,198.0578,200.466,209.166,214.546,219.995,222.862,225.729,228.597,231.809" svgx:width="0.44,0.55,0.4,0.4,0.48,0.29,0.5,0.33,0.48,0.42,0.55,0.83,0.29,0.33,0.58,0.55,0.33,0.58,0.48,0.55,0.48,0.52,0.44,0.48,0.29,0.29,0.48,0.58,0.33,0.55,0.88,0.55,0.55,0.29,0.29,0.29,0.33,0.56" style="fill:rgb(0,0,0);font-family:URWPalladioL-Roma;font-size:9.96px;stroke:none;">correlates with the excellent mobility</text>
   <text y="543.658" x="237.291" svgx:width="0.29" style="fill:rgb(0,0,0);font-family:Rpxr;font-size:9.96px;stroke:none;">/</text>
   <text y="543.658" x="240.119,243.331,247.223,252.15,257.884,262.062,267.983,273.363,277.255,280.5418,282.96,288.34,291.6268,294.104,296.971,299.838,303.05,308.785,311.652,317.593,328.786,331.653,337.033,342.768,346.9512,349.438,352.305,358.0818,360.523,363.735,369.469,374.2498,376.682,381.056,386.436,395.136,401.058,406.438,410.615,413.483,416.695,421.4758,423.907,429.848,435.583,441.603,446.323,450.30699999999996,452.698,458.718,461.585,467.152,471.872,475.764,479.941,484.7218,487.154,491.528,497.47,501.362,505.076,509.796,515.53" svgx:width="0.33,0.4,0.5,0.58,0.42,0.6,0.55,0.4,0.33,0.55,0.55,0.33,0.55,0.29,0.29,0.33,0.58,0.29,0.6,0.88,0.29,0.55,0.58,0.42,0.55,0.29,0.58,0.55,0.33,0.58,0.48,0.55,0.44,0.55,0.88,0.6,0.55,0.42,0.29,0.33,0.48,0.55,0.6,0.58,0.61,0.48,0.4,0.55,0.61,0.29,0.56,0.48,0.4,0.42,0.48,0.55,0.44,0.6,0.4,0.4,0.48,0.58,0.33" style="fill:rgb(0,0,0);font-family:URWPalladioL-Roma;font-size:9.96px;stroke:none;">transport of lithiumions in the composite under diverse current</text>
   <text y="557.168" x="76.535,82.561,87.286,93.026,97.208,100.078,103.293,106.163,110.888,115.07,117.55999999999999,121.037,124.361,130.1378,132.596,135.811,141.552,144.422,148.6052,151.109,155.291,160.015,165.746,169.928,174.652,177.142,179.623,182.838,188.578,193.3588,195.798,199.694,204.625,207.841,212.6218,215.06,220.446,226.393,229.608,233.988,239.373,248.082,252.806,256.98920000000004,259.483,263.665,269.613,275.096,280.58,285.305,289.487,292.77380000000005,295.197,298.413,304.153,309.084,312.37080000000003,314.795,318.01,323.751,328.5318,330.97,335.152,341.08,345.804,350.529,356.555,362.1326,364.534,367.404,370.274,373.49,379.23,382.1,388.047,399.252,402.122,407.507,413.2838,415.752,424.461,429.847,433.062,435.932,441.317,447.0938,449.553,453.932,458.863,464.6398,467.099,472.553,477.3338,479.773,484.704,489.084,494.824,497.694,502.418,507.991,512.715" svgx:width="0.61,0.48,0.58,0.42,0.29,0.33,0.29,0.48,0.42,0.25,0.55,0.34,0.58,0.55,0.33,0.58,0.29,0.42,0.55,0.42,0.48,0.58,0.42,0.48,0.25,0.55,0.33,0.58,0.48,0.55,0.4,0.5,0.33,0.48,0.55,0.55,0.6,0.33,0.44,0.55,0.88,0.48,0.42,0.55,0.42,0.6,0.56,0.56,0.48,0.42,0.33,0.55,0.33,0.58,0.5,0.33,0.55,0.33,0.58,0.48,0.55,0.42,0.6,0.48,0.48,0.61,0.56,0.55,0.29,0.29,0.33,0.58,0.29,0.6,0.88,0.29,0.55,0.58,0.55,0.88,0.55,0.33,0.29,0.55,0.58,0.55,0.44,0.5,0.58,0.55,0.55,0.48,0.55,0.5,0.44,0.58,0.29,0.48,0.56,0.48,0.61" style="fill:rgb(0,0,0);font-family:URWPalladioL-Roma;font-size:9.96px;stroke:none;">densities. In this sense, the rate outcomes suggest that the speedy lithiumion motion can be achieved</text>
   <text y="570.677" x="76.535,79.848,85.326,88.302,91.615,97.529,102.3098,105.303,108.26,113.341,117.172,122.822,127.6028,130.596,133.553,136.51,139.823,145.737,148.694,154.822,163.5868,166.701,171.213,176.761,182.676,185.988,190.856,196.77,200.083,204.2662,207.298,210.682,216.809,222.785,225.813,229.125,234.603,237.58,242.661,245.201,250.18099999999998,253.189,259.398" svgx:width="0.33,0.55,0.55,0.33,0.58,0.48,0.55,0.29,0.5,0.4,0.56,0.48,0.55,0.29,0.29,0.33,0.58,0.29,0.6,0.88,0.55,0.44,0.55,0.58,0.33,0.48,0.58,0.33,0.42,0.55,0.33,0.6,0.6,0.55,0.33,0.55,0.55,0.5,0.25,0.5,0.55,0.61,0.29" style="fill:rgb(0,0,0);font-family:URWPalladioL-Roma;font-size:9.96px;stroke:none;">to the large lithium contents (up to 2.7 Li</text>
   <text y="567.061" x="262.356" svgx:width="0.67" style="fill:rgb(0,0,0);font-family:Rpxr;font-size:7.57px;stroke:none;">+</text>
   <text y="570.677" x="267.919" svgx:width="0.29" style="fill:rgb(0,0,0);font-family:Rpxr;font-size:9.96px;stroke:none;">/</text>
   <text y="570.677" x="270.836,277.065,286.678,290.062,292.552,295.509,300.844,306.972,313.079,319.186,324.734,329.043,332.0,337.914,343.4916,346.471,349.783,355.698,360.4788,363.471,366.855,372.973,376.987,380.299,386.214,391.081,395.065,398.001,403.55,409.657,412.97,415.927,424.9,427.857,432.938,438.019,441.331,444.289,449.837,455.61379999999997,458.657,464.206,467.49280000000005,470.496,473.809,479.723,482.68,486.8632,489.895,495.514,498.471,504.386,509.467,513.481" svgx:width="0.61,0.95,0.33,0.25,0.55,0.52,0.6,0.6,0.6,0.55,0.42,0.29,0.58,0.56,0.55,0.33,0.58,0.48,0.55,0.33,0.6,0.4,0.33,0.58,0.48,0.4,0.55,0.55,0.6,0.33,0.29,0.88,0.29,0.5,0.5,0.33,0.29,0.55,0.58,0.55,0.55,0.33,0.55,0.33,0.58,0.29,0.42,0.55,0.55,0.29,0.58,0.5,0.4,0.56" style="fill:rgb(0,0,0);font-family:URWPalladioL-Roma;font-size:9.96px;stroke:none;">TM). Supposing the further optimization of this binary</text>
   <text y="584.187" x="76.535,85.156,89.833,93.016,97.897,100.738,103.99,106.831,112.513,116.653,121.329,125.186,128.369,133.045,139.1206,141.452,145.786,150.668,154.525,159.924,165.255,171.0318,173.378,177.517,180.7,184.479,190.366,194.701,197.884,203.771,207.452,212.128,214.618,217.02,219.861,223.044,227.2272,229.624,232.465,238.148,241.331,245.187,248.028,253.711,257.85,260.691,265.0734,267.467,271.607,275.942,281.272,287.14,291.9208,294.267,297.519,302.849,306.83299999999997,309.147,312.33,318.012,322.7928,325.129,330.812,333.653,339.081,344.763,348.015,351.871,356.753,359.936,364.7168,367.053,375.674,381.562,384.403,387.586,390.427,393.678,397.359,402.035,408.001,413.331,418.5102,420.81,425.145,430.827,435.504,444.125,446.966,451.106,454.289,458.145,463.7226,466.014,474.157,476.998,479.839,482.7274,485.121,489.798,493.938,498.273,503.154,505.995,510.877,514.06" svgx:width="0.88,0.48,0.33,0.5,0.29,0.33,0.29,0.58,0.42,0.48,0.4,0.33,0.48,0.61,0.55,0.44,0.5,0.4,0.55,0.55,0.58,0.55,0.42,0.33,0.4,0.6,0.44,0.33,0.6,0.4,0.48,0.25,0.55,0.29,0.33,0.42,0.55,0.29,0.58,0.33,0.4,0.29,0.58,0.42,0.29,0.44,0.55,0.42,0.44,0.55,0.6,0.48,0.55,0.33,0.55,0.4,0.55,0.33,0.58,0.48,0.55,0.58,0.29,0.56,0.58,0.33,0.4,0.5,0.33,0.48,0.55,0.88,0.6,0.29,0.33,0.29,0.33,0.4,0.48,0.61,0.55,0.52,0.55,0.44,0.58,0.48,0.88,0.29,0.42,0.33,0.4,0.56,0.55,0.83,0.29,0.29,0.29,0.55,0.48,0.42,0.44,0.5,0.29,0.5,0.33,0.48" style="fill:rgb(0,0,0);font-family:URWPalladioL-Roma;font-size:9.96px;stroke:none;">metal-inserted carbon structure, its intrinsic scope for the high-rate multi-redox chemistry will escalate</text>
   <text y="597.696" x="76.535,82.657,88.633,91.255,94.565,100.04299999999999,102.595,107.575,110.168,119.132,125.254,129.761,135.5378,138.167,143.812,147.639,152.502,157.578,160.887,165.75,169.734,172.257,175.211,180.074,185.81,190.673,193.5614,196.124,201.667,204.9538,207.535,213.738" svgx:width="0.6,0.6,0.55,0.33,0.55,0.55,0.5,0.55,0.88,0.6,0.44,0.58,0.55,0.56,0.4,0.48,0.5,0.33,0.48,0.4,0.55,0.29,0.48,0.56,0.48,0.29,0.55,0.55,0.33,0.55,0.61,0.29" style="fill:rgb(0,0,0);font-family:URWPalladioL-Roma;font-size:9.96px;stroke:none;">up to a much greater level of Li</text>
   <text y="594.08" x="216.695" svgx:width="0.67" style="fill:rgb(0,0,0);font-family:Rpxr;font-size:7.57px;stroke:none;">+</text>
   <text y="597.696" x="222.258" svgx:width="0.29" style="fill:rgb(0,0,0);font-family:Rpxr;font-size:9.96px;stroke:none;">/</text>
   <text y="597.696" x="225.172,231.395,240.999,243.489,246.034,252.257,258.166,262.9468,265.516,271.658,277.566,283.769,286.723,292.631,298.2086,300.773,304.083,309.991,315.067,318.35380000000004,320.874,324.183,330.092,334.8728,337.442,346.406,349.36,353.867,357.705,363.248,372.212,377.075,380.384,385.247,389.074,392.455,396.759,399.713,404.789,409.652,415.7276,418.352,427.316,432.859,438.768,444.311,447.265,450.219,453.529,459.3058,461.924,467.467,470.7538,473.345,476.655,482.563,487.3438,489.923,495.537,498.491,504.4,509.476,513.486" svgx:width="0.61,0.95,0.25,0.55,0.61,0.58,0.48,0.55,0.61,0.58,0.61,0.29,0.58,0.56,0.55,0.33,0.58,0.5,0.33,0.55,0.33,0.58,0.48,0.55,0.88,0.29,0.44,0.4,0.55,0.88,0.48,0.33,0.48,0.4,0.33,0.42,0.29,0.5,0.48,0.61,0.55,0.88,0.55,0.58,0.55,0.29,0.29,0.33,0.58,0.55,0.55,0.33,0.55,0.33,0.58,0.48,0.55,0.55,0.29,0.58,0.5,0.4,0.56" style="fill:rgb(0,0,0);font-family:URWPalladioL-Roma;font-size:9.96px;stroke:none;">TM. The ﬁnding that the micrometer-sized monolith of the binary</text>
   <text y="611.205" x="76.535,85.508,90.375,93.688,98.769,101.726,105.11,108.067,113.981,117.294,122.162,125.993,130.505,135.586,138.543,143.624,146.936,151.804,157.8796,161.356,165.868,170.949,174.963,180.582,186.131,191.9078,195.388,199.9,205.448,214.421,220.528,226.077,230.385,233.343,236.655,241.4358,244.866,248.25,254.459,257.843,263.178,268.828,276.815,284.406,291.611,294.8978,298.338,302.646,308.561,314.109,322.584,326.7672,330.236,335.103,340.347,343.66,347.674,352.754,358.303,362.134,368.343,371.3,377.214,382.295,386.309,391.88660000000004,395.302,399.316,404.397,407.71,412.4908,415.921,421.54,426.408,432.322,437.403,443.144,446.101,451.65,455.63399999999996,459.007,464.088,470.002,476.0776,479.554,484.066,489.614,495.742,498.699,504.7746,508.251,513.871" svgx:width="0.88,0.48,0.33,0.5,0.29,0.33,0.29,0.58,0.33,0.48,0.4,0.44,0.5,0.29,0.5,0.33,0.48,0.61,0.55,0.44,0.5,0.4,0.55,0.55,0.58,0.55,0.44,0.55,0.88,0.6,0.55,0.42,0.29,0.33,0.48,0.55,0.33,0.61,0.33,0.52,0.56,0.79,0.75,0.71,0.33,0.55,0.42,0.58,0.55,0.83,0.42,0.55,0.48,0.52,0.33,0.4,0.5,0.55,0.4,0.61,0.29,0.58,0.5,0.4,0.56,0.55,0.4,0.5,0.33,0.48,0.55,0.55,0.48,0.58,0.5,0.56,0.29,0.55,0.4,0.55,0.5,0.58,0.61,0.55,0.44,0.55,0.6,0.29,0.61,0.55,0.55,0.48" style="fill:rgb(0,0,0);font-family:URWPalladioL-Roma;font-size:9.96px;stroke:none;">metal-intercalated carbon composite (B-SFO@C) shows extraordinary rate behavior and could be</text>
   <text y="624.715" x="76.535,80.963,86.508,90.935,93.837,98.614,104.6896,107.211,113.224,119.028,125.121,129.898,133.882,136.33,139.582,145.386,150.1668,152.666,158.3,163.077,167.016,172.59359999999998,175.064,179.841,182.733,187.51,193.144,198.13,201.381,206.158,212.2336,214.755,218.694,223.68,226.931,231.708,235.8912,238.439,244.453,250.257,254.196,259.182,264.817,269.594,272.496,276.6792,279.217,282.468,288.272,293.0528,295.552,299.781,305.794,311.788,316.565,320.504,323.406,328.851,332.835,335.293,339.521,342.772,346.632,352.645,357.073,360.324,366.338,370.277,375.263,378.15139999999997,380.658,384.418,389.195,393.423,396.325,399.227,402.129,406.906,412.71,417.138,421.915,424.40500000000003,426.911,432.904,437.891,441.83,445.081,447.983,452.411,458.424,461.326,466.312,470.252,473.154,478.7316,481.201,486.746,489.648,495.283,500.059,505.8358,508.357,511.259,514.51" svgx:width="0.44,0.56,0.44,0.29,0.48,0.61,0.55,0.6,0.58,0.61,0.48,0.4,0.55,0.33,0.58,0.48,0.55,0.56,0.48,0.4,0.56,0.55,0.48,0.29,0.48,0.56,0.5,0.33,0.48,0.61,0.55,0.4,0.5,0.33,0.48,0.42,0.55,0.6,0.58,0.4,0.5,0.56,0.48,0.29,0.42,0.55,0.33,0.58,0.48,0.55,0.42,0.6,0.6,0.48,0.4,0.29,0.55,0.4,0.55,0.42,0.33,0.4,0.6,0.44,0.33,0.6,0.4,0.5,0.29,0.55,0.4,0.48,0.42,0.29,0.29,0.29,0.48,0.58,0.44,0.48,0.25,0.55,0.6,0.5,0.4,0.33,0.29,0.44,0.6,0.29,0.5,0.4,0.29,0.56,0.55,0.56,0.29,0.56,0.48,0.58,0.55,0.29,0.33,0.42" style="fill:rgb(0,0,0);font-family:URWPalladioL-Roma;font-size:9.96px;stroke:none;">cycled under the very elevated rates unravels the superior structural resilience, particularly given its</text>
   <text y="638.224" x="76.535,82.163,87.689,93.216,99.29159999999999,101.901,106.749,109.695,114.543,119.037,122.337,126.153,131.68,134.625,140.253,143.553,148.3338,150.901,153.847,159.738,165.862,168.807,172.107,176.105,181.166,184.466,187.401,192.928,198.7048,201.319,206.38,212.271,218.3466,220.956,224.255,230.146,234.9268,237.485,241.777,247.668,253.194,257.192,260.47880000000004,262.992,269.177" svgx:width="0.56,0.55,0.55,0.61,0.55,0.48,0.29,0.48,0.44,0.33,0.4,0.55,0.29,0.56,0.33,0.48,0.55,0.29,0.58,0.61,0.29,0.33,0.4,0.5,0.33,0.29,0.55,0.58,0.55,0.5,0.58,0.61,0.55,0.33,0.58,0.48,0.55,0.42,0.58,0.55,0.4,0.33,0.55,0.61,0.29" style="fill:rgb(0,0,0);font-family:URWPalladioL-Roma;font-size:9.96px;stroke:none;">good electrolyte inﬁltration and the short Li</text>
   <text y="634.608" x="272.123" svgx:width="0.67" style="fill:rgb(0,0,0);font-family:Rpxr;font-size:7.57px;stroke:none;">+</text>
   <text y="638.224" x="277.687" svgx:width="0.29" style="fill:rgb(0,0,0);font-family:Rpxr;font-size:9.96px;stroke:none;">/</text>
   <text y="638.224" x="280.592,285.44,288.386,293.234,297.729,301.028,304.844,310.371,316.14779999999996,318.762,324.947" svgx:width="0.48,0.29,0.48,0.44,0.33,0.4,0.55,0.58,0.55,0.61,0.29" style="fill:rgb(0,0,0);font-family:URWPalladioL-Roma;font-size:9.96px;stroke:none;">electron di</text>
   <text y="638.224" x="327.891" svgx:width="0.61" style="fill:rgb(0,0,0);font-family:Rpxr;font-size:9.96px;stroke:none;">ﬀ</text>
   <text y="638.224" x="334.045,340.149,344.44,347.386,352.912,358.68879999999996,361.304,364.249,369.097,374.988,380.616,383.916,389.807,392.297,395.84,402.024,407.6016,410.152,414.646,420.173,426.064,429.364,433.362,438.423,442.715,446.015,448.505,451.035,454.335,460.226,465.0068,467.574,472.423,477.646,482.14,486.988,493.072,496.371,499.317,504.844,510.735,515.796" svgx:width="0.6,0.42,0.29,0.55,0.58,0.55,0.29,0.48,0.58,0.56,0.33,0.58,0.25,0.55,0.61,0.56,0.55,0.44,0.55,0.58,0.33,0.4,0.5,0.42,0.33,0.25,0.55,0.33,0.58,0.48,0.55,0.48,0.52,0.44,0.48,0.6,0.33,0.29,0.55,0.58,0.5,0.29" style="fill:rgb(0,0,0);font-family:URWPalladioL-Roma;font-size:9.96px;stroke:none;">usion length. By contrast, the exceptional</text>
   <text y="651.734" x="76.535,79.492,82.449,85.762,91.676,94.633,100.761,109.5258,112.376,116.684,119.997,125.546,129.56,134.64,140.29,145.0708,147.8,153.907,157.738,163.287,169.394,174.262,178.275,181.588,184.545,189.413,193.5962,196.364,200.875,205.956,211.871,217.785,223.333,226.6198,229.288,234.907,239.6878,242.407,248.616,253.483,256.796,261.664,266.175,269.488,274.356,280.4316,283.207,286.591,292.139,296.123,298.795,302.108,308.022,312.8028,315.532,321.08,324.393,330.307,335.174,339.15799999999996,341.831,345.143,353.618,359.096,361.799,366.31,371.859,380.832,386.939,392.487,396.796,399.753,403.066,407.933,412.1162,414.884,423.359,426.316,429.629,435.4058,438.185,444.394" svgx:width="0.29,0.29,0.33,0.58,0.29,0.6,0.88,0.55,0.42,0.33,0.55,0.4,0.5,0.56,0.48,0.55,0.6,0.4,0.55,0.6,0.48,0.4,0.33,0.29,0.48,0.42,0.55,0.44,0.5,0.58,0.58,0.55,0.33,0.55,0.55,0.48,0.55,0.61,0.48,0.33,0.48,0.44,0.33,0.48,0.61,0.55,0.33,0.55,0.4,0.55,0.33,0.58,0.48,0.55,0.55,0.33,0.58,0.48,0.4,0.55,0.33,0.83,0.55,0.55,0.44,0.55,0.88,0.6,0.55,0.42,0.29,0.33,0.48,0.42,0.55,0.83,0.29,0.33,0.58,0.55,0.61,0.29" style="fill:rgb(0,0,0);font-family:URWPalladioL-Roma;font-size:9.96px;stroke:none;">lithium storage properties cannot be detected for the other two composites with di</text>
   <text y="651.734" x="447.352" svgx:width="0.61" style="fill:rgb(0,0,0);font-family:Rpxr;font-size:9.96px;stroke:none;">ﬀ</text>
   <text y="651.734" x="453.53,458.398,462.229,467.096,473.01,476.2968,478.965,483.477,489.391,494.259,503.232,506.189,510.701,515.781" svgx:width="0.48,0.4,0.48,0.58,0.33,0.55,0.44,0.58,0.48,0.88,0.29,0.44,0.5,0.29" style="fill:rgb(0,0,0);font-family:URWPalladioL-Roma;font-size:9.96px;stroke:none;">erent chemical</text>
   <text y="665.243" x="76.535,81.047,86.595,95.568,101.675,107.224,111.532,114.49,117.802,120.759,126.308,132.222,136.4052,139.528,144.609,150.523,156.5986,159.73,164.039,167.351,171.284,177.412,181.924,185.236,191.364,195.378,200.459,203.3474,206.414,215.387,220.935,224.248,227.205,230.589,234.897,237.387,242.458,248.667,252.05,257.385,265.373,272.964,280.0356,283.166,288.247,291.56,294.873,299.953,302.911,308.825,313.0082,316.131,321.212,326.98879999999997,330.124,335.205,340.946,345.814,349.828,354.909,360.559,365.3398,368.424,372.936,378.017,384.124,389.205,393.717,396.674,399.987,405.56460000000004,408.634,414.183,417.4698,420.565,425.645,430.726,435.807,438.297,441.478,446.559,451.639,456.72,459.21000000000004,462.381,467.462,472.542,477.623,480.113,483.294,488.375,493.456,498.43600000000004,501.534,506.615,512.529" svgx:width="0.44,0.55,0.88,0.6,0.55,0.42,0.29,0.33,0.29,0.55,0.58,0.42,0.55,0.5,0.58,0.61,0.55,0.42,0.33,0.4,0.6,0.44,0.33,0.6,0.4,0.5,0.29,0.55,0.88,0.55,0.33,0.29,0.33,0.42,0.25,0.55,0.61,0.33,0.52,0.79,0.75,0.71,0.55,0.5,0.33,0.33,0.5,0.29,0.58,0.42,0.55,0.5,0.58,0.55,0.5,0.56,0.48,0.4,0.5,0.56,0.48,0.55,0.44,0.5,0.6,0.5,0.44,0.29,0.33,0.56,0.55,0.55,0.33,0.55,0.5,0.5,0.5,0.25,0.55,0.5,0.5,0.5,0.25,0.55,0.5,0.5,0.5,0.25,0.55,0.5,0.5,0.5,0.55,0.5,0.58,0.61" style="fill:rgb(0,0,0);font-family:URWPalladioL-Roma;font-size:9.96px;stroke:none;">compositions and structural motifs. B-SO@C attains an average capacity of 663, 580, 474, 338 and</text>
   <text y="678.752" x="76.037,81.118,86.199,91.179,94.338,103.311,111.217,116.9938,120.18" svgx:width="0.5,0.5,0.5,0.55,0.88,0.78,0.58,0.55,0.56" style="fill:rgb(0,0,0);font-family:URWPalladioL-Roma;font-size:9.96px;stroke:none;">190 mAh g</text>
   <text y="675.136" x="125.832" svgx:width="0.67" style="fill:rgb(0,0,0);font-family:Pxsy;font-size:7.57px;stroke:none;">−</text>
   <text y="675.136" x="130.898" svgx:width="0.5" style="fill:rgb(0,0,0);font-family:URWPalladioL-Roma;font-size:7.57px;stroke:none;">1</text>
   <text y="678.752" x="138.236,143.317,146.6038,149.688,154.769,157.31,162.391,164.881,168.122,173.203,175.743,180.824,183.31400000000002,186.566,191.647,194.187,199.268,201.758,204.999,210.08,212.621,217.601,220.76,225.841,231.756,237.8316,241.013,246.094,248.634,253.61399999999998,256.774,264.5428,267.729" svgx:width="0.5,0.33,0.55,0.5,0.25,0.5,0.25,0.55,0.5,0.25,0.5,0.25,0.55,0.5,0.25,0.5,0.25,0.55,0.5,0.25,0.5,0.55,0.5,0.58,0.61,0.55,0.5,0.25,0.5,0.55,0.78,0.55,0.56" style="fill:rgb(0,0,0);font-family:URWPalladioL-Roma;font-size:9.96px;stroke:none;">at 0.2, 0.4, 0.8, 1.6 and 3.2 A g</text>
   <text y="675.136" x="273.382" svgx:width="0.67" style="fill:rgb(0,0,0);font-family:Pxsy;font-size:7.57px;stroke:none;">−</text>
   <text y="675.136" x="278.448" svgx:width="0.5" style="fill:rgb(0,0,0);font-family:URWPalladioL-Roma;font-size:7.57px;stroke:none;">1</text>
   <text y="678.752" x="282.732,285.22200000000004,288.463,292.304,297.172,301.481,307.588,312.455,316.967,320.28,323.237,328.979,333.846,336.803,341.346,343.836,347.077,351.589,357.137,363.051,368.793,371.75,377.664,382.176,385.133,391.047,396.697,399.654,405.2316,408.363,414.491,420.405,424.917,430.465,436.206,441.074,445.088,448.045,453.959,459.5366,462.658,465.97,471.885,476.966,480.25280000000004,483.337,486.65,492.564,497.3448,500.49,503.447,507.278,512.827" svgx:width="0.25,0.55,0.4,0.48,0.42,0.6,0.48,0.44,0.33,0.29,0.56,0.48,0.29,0.56,0.25,0.55,0.44,0.55,0.58,0.56,0.29,0.58,0.44,0.29,0.58,0.56,0.29,0.56,0.55,0.6,0.58,0.44,0.55,0.56,0.48,0.4,0.29,0.58,0.56,0.55,0.33,0.58,0.5,0.33,0.55,0.33,0.58,0.48,0.55,0.29,0.4,0.55,0.58" style="fill:rgb(0,0,0);font-family:URWPalladioL-Roma;font-size:9.96px;stroke:none;">, respectively, convincingly uncovering that the iron</text>
   <text y="692.262" x="76.535,80.923,86.319,95.046,100.985,106.381,112.133,116.867,122.619,125.9058,128.331,131.553,136.495,141.989,146.723,150.9062,153.404,158.346,164.1228,166.588,171.322,175.512,179.703,184.437,190.188,193.41,196.286,201.228,204.1164,206.604,212.543,217.485,221.389,224.6758,227.101,229.977,235.7538,238.219,242.953,248.705,254.457,259.398,265.15,269.538,272.414,278.166,283.7436,286.151,289.373,295.125,299.9058,302.349,308.388,311.264,315.454,319.842,325.594,330.535,334.261,339.756,344.53679999999997,346.981,351.369,356.31,362.25,367.191,371.579,374.455,377.677,380.553,385.287,389.477,391.967,395.436,401.495,407.247,412.0278,414.471,420.509,423.8,428.989,434.484,442.3524,444.752,449.486,452.352,457.086,461.474,464.696,468.422,473.818,479.856,484.6368,487.081,491.469,496.865,502.616,505.908,510.641,514.545" svgx:width="0.44,0.55,0.88,0.6,0.55,0.58,0.48,0.58,0.33,0.55,0.33,0.5,0.56,0.48,0.42,0.55,0.5,0.58,0.55,0.48,0.42,0.42,0.48,0.58,0.33,0.29,0.5,0.29,0.55,0.6,0.5,0.4,0.33,0.55,0.29,0.58,0.55,0.48,0.58,0.58,0.5,0.58,0.44,0.29,0.58,0.56,0.55,0.33,0.58,0.48,0.55,0.61,0.29,0.42,0.44,0.58,0.5,0.4,0.56,0.48,0.55,0.44,0.5,0.6,0.5,0.44,0.29,0.33,0.29,0.48,0.42,0.25,0.55,0.61,0.58,0.48,0.55,0.61,0.33,0.52,0.56,0.79,0.55,0.48,0.29,0.48,0.44,0.33,0.4,0.55,0.61,0.48,0.55,0.44,0.55,0.58,0.33,0.48,0.4,0.42" style="fill:rgb(0,0,0);font-family:URWPalladioL-Roma;font-size:9.96px;stroke:none;">component takes an essential part in enhancing the discharge capacities. The B-SFO electrode confers</text>
   <text y="705.771" x="76.535,81.422,87.19879999999999,89.592,94.479,100.001,104.682,108.543,113.429,118.863,123.6438,126.037,130.376,135.263,141.137,146.023,150.363,153.197,156.383,161.9606,164.309,169.645,172.9318,175.382,180.269,185.156,190.042,192.532,194.968,199.855,204.741,209.721,212.12,217.007,222.695,228.7706,231.149,236.035,240.922,245.902,248.291,256.921,264.525,270.30179999999996,272.695" svgx:width="0.5,0.58,0.55,0.5,0.56,0.48,0.4,0.5,0.56,0.48,0.55,0.44,0.5,0.6,0.5,0.44,0.29,0.33,0.56,0.55,0.55,0.33,0.55,0.5,0.5,0.5,0.25,0.55,0.5,0.5,0.5,0.55,0.5,0.58,0.61,0.55,0.5,0.5,0.5,0.55,0.88,0.78,0.58,0.55,0.56" style="fill:rgb(0,0,0);font-family:URWPalladioL-Roma;font-size:9.96px;stroke:none;">an average capacity of 588, 282 and 138 mAh g</text>
   <text y="702.155" x="278.133" svgx:width="0.67" style="fill:rgb(0,0,0);font-family:Pxsy;font-size:7.57px;stroke:none;">−</text>
   <text y="702.155" x="283.198" svgx:width="0.5" style="fill:rgb(0,0,0);font-family:URWPalladioL-Roma;font-size:7.57px;stroke:none;">1</text>
   <text y="705.771" x="289.967,295.86,301.548,307.52,312.201,316.185,318.544,323.431,325.874,330.761,333.25100000000003,335.696,340.583,343.026,348.00600000000003,350.395,355.282,360.97,367.04560000000004,369.424,374.311,376.754,381.73400000000004,384.123,394.219" svgx:width="0.6,0.58,0.61,0.48,0.4,0.55,0.5,0.25,0.5,0.25,0.55,0.5,0.25,0.5,0.55,0.5,0.58,0.61,0.55,0.5,0.25,0.5,0.55,0.78,0.56" style="fill:rgb(0,0,0);font-family:URWPalladioL-Roma;font-size:9.96px;stroke:none;">under 0.2, 0.4 and 0.8 Ag</text>
   <text y="702.155" x="399.65" svgx:width="0.67" style="fill:rgb(0,0,0);font-family:Pxsy;font-size:7.57px;stroke:none;">−</text>
   <text y="702.155" x="404.715" svgx:width="0.5" style="fill:rgb(0,0,0);font-family:URWPalladioL-Roma;font-size:7.57px;stroke:none;">1</text>
   <text y="705.771" x="408.999,411.48900000000003,413.925,417.609,422.291,426.435,432.308,436.99,441.329,444.515,447.359,452.881,457.563,460.407,464.736,467.226,469.662,474.549,480.237,486.31260000000003,488.691,491.535,495.7182,498.171,502.852,508.374,513.055" svgx:width="0.25,0.55,0.4,0.48,0.42,0.6,0.48,0.44,0.33,0.29,0.56,0.48,0.29,0.56,0.25,0.55,0.5,0.58,0.61,0.55,0.29,0.42,0.55,0.48,0.56,0.48,0.58" style="fill:rgb(0,0,0);font-family:URWPalladioL-Roma;font-size:9.96px;stroke:none;">, respectively, and is even</text>
   <text y="719.281" x="76.535,82.217,87.099,90.78,96.745,99.586,105.1636,107.28,113.245,116.086,120.226,124.561,130.243,135.125,138.796,144.224,148.901,154.97660000000002,157.141,160.324,165.80200000000002,167.92,172.06,175.242,180.573,184.254,189.0348,191.196,197.161,200.0494,202.267,205.109,210.439,216.122,220.3052,222.526,227.408,230.6948,232.856,237.738,240.178,245.158,247.335,252.217,257.899,263.9746,266.129,271.011,273.452,278.432,280.599,290.46" svgx:width="0.58,0.5,0.4,0.61,0.29,0.56,0.55,0.61,0.29,0.42,0.44,0.58,0.5,0.4,0.56,0.48,0.61,0.55,0.33,0.55,0.55,0.42,0.33,0.55,0.4,0.48,0.55,0.61,0.29,0.55,0.29,0.55,0.58,0.42,0.55,0.5,0.33,0.55,0.5,0.25,0.5,0.55,0.5,0.58,0.61,0.55,0.5,0.25,0.5,0.55,0.78,0.56" style="fill:rgb(0,0,0);font-family:URWPalladioL-Roma;font-size:9.96px;stroke:none;">hardly discharged to store Li ions at 1.6 and 3.2 Ag</text>
   <text y="715.664" x="295.89" svgx:width="0.67" style="fill:rgb(0,0,0);font-family:Pxsy;font-size:7.57px;stroke:none;">−</text>
   <text y="715.664" x="300.955" svgx:width="0.5" style="fill:rgb(0,0,0);font-family:URWPalladioL-Roma;font-size:7.57px;stroke:none;">1</text>
   <text y="719.281" x="305.239,307.729,309.994,318.136,323.819,326.66,330.995,336.7718,338.942,342.623,347.3,352.816,357.492,362.374,365.215,369.3982,371.62,376.6,378.767,384.283,388.96,392.816,398.3936,400.51,406.378,411.708,417.039,421.02299999999997,423.161,427.017,431.899,435.082,439.8628,442.033,446.915,452.314,455.155,457.996,460.838,464.02,468.336,470.826,474.194,480.179,485.861,490.6418,492.803,496.659,501.541,504.724,510.406,515.083" svgx:width="0.25,0.55,0.83,0.58,0.29,0.44,0.58,0.55,0.4,0.48,0.56,0.48,0.5,0.29,0.42,0.55,0.5,0.55,0.56,0.48,0.4,0.56,0.55,0.6,0.55,0.55,0.4,0.55,0.4,0.5,0.33,0.48,0.55,0.5,0.55,0.29,0.29,0.29,0.33,0.56,0.25,0.55,0.61,0.58,0.48,0.55,0.4,0.5,0.33,0.58,0.48,0.4" style="fill:rgb(0,0,0);font-family:URWPalladioL-Roma;font-size:9.96px;stroke:none;">, which reveals a very poor rate ability. The rather</text>
   <text y="732.79" x="76.535,80.844,83.801,92.774,95.731,98.688,103.769,107.753,110.486,114.998,120.079,126.186,131.267,135.779,138.736,142.048,147.6256,150.391,155.472,158.7588,161.488,164.801,170.715,175.4958,178.286,181.243,186.791,195.0578,197.969,202.481,208.609,212.622,216.454,221.321,227.235,230.5218,233.251,239.46,244.327,250.242,254.55,257.507,260.82,266.3976,269.173,274.254,280.168,286.2436,289.07,292.383,298.297,303.0778,305.868,308.825,314.739,319.251,323.082,327.949,333.03,337.339,340.296,346.21,351.7876,354.563,360.213,366.341,369.298,372.58480000000003,375.385,380.466,383.75280000000004,386.482,392.396,395.353,401.003,406.77979999999997,409.61,414.122,420.25,424.263,428.105,432.972,438.886,442.17280000000005,444.892,451.101,455.968,461.883,466.191,469.148,472.461,478.03860000000003,480.814,486.434,491.301,494.614,503.089,507.956,512.824" svgx:width="0.42,0.29,0.88,0.29,0.29,0.5,0.4,0.55,0.44,0.5,0.6,0.5,0.44,0.29,0.33,0.56,0.55,0.5,0.33,0.55,0.33,0.58,0.48,0.55,0.29,0.55,0.83,0.55,0.44,0.6,0.4,0.4,0.48,0.58,0.33,0.55,0.61,0.48,0.58,0.42,0.29,0.33,0.56,0.55,0.5,0.58,0.61,0.55,0.33,0.58,0.48,0.55,0.29,0.58,0.44,0.4,0.48,0.5,0.42,0.29,0.58,0.56,0.55,0.56,0.6,0.29,0.33,0.55,0.5,0.33,0.55,0.58,0.29,0.56,0.58,0.55,0.44,0.6,0.4,0.4,0.48,0.58,0.33,0.55,0.61,0.48,0.58,0.42,0.29,0.33,0.56,0.55,0.55,0.48,0.33,0.83,0.48,0.48,0.58" style="fill:rgb(0,0,0);font-family:URWPalladioL-Roma;font-size:9.96px;stroke:none;">similar capacity at the low current density and the increasing gulf at high current density between</text>
   <text y="746.299" x="76.535,79.789,85.599,90.381,94.613,99.3938,101.901,106.682,109.587,114.369,118.801,122.055,125.819,131.269,137.369,142.15,146.3332,148.878,151.214,157.234,161.466,164.721,167.626,173.665,178.656,184.177,187.081,192.65859999999998,195.137,201.157,206.967,212.607,217.388,220.293,223.1814,225.704,228.958,234.768,239.5488,242.055,248.055,251.998,254.893,263.707,268.699,272.642,278.2196,280.698,284.461,289.911,292.816,297.5968,300.104,308.429,314.239,317.144,321.576,327.3528,329.891,333.146,338.956,343.7368,346.233,350.665,355.656,359.599,365.12,370.57,376.3468,378.886,383.118,388.669,393.45,396.355,401.137,404.391,409.841,415.6178,418.157,424.156,427.061,432.053,437.603,441.7862,444.331,447.236,453.01279999999997,455.551,458.456,467.271,473.27,477.034,482.484,488.124,491.029,496.839,502.4166,504.895,508.149,513.959" svgx:width="0.33,0.58,0.48,0.42,0.48,0.55,0.48,0.29,0.48,0.44,0.33,0.4,0.55,0.61,0.48,0.42,0.55,0.23,0.6,0.42,0.33,0.29,0.61,0.5,0.55,0.29,0.56,0.55,0.6,0.58,0.56,0.48,0.29,0.29,0.55,0.33,0.58,0.48,0.55,0.6,0.4,0.29,0.88,0.5,0.4,0.56,0.55,0.4,0.55,0.29,0.48,0.55,0.83,0.58,0.29,0.44,0.58,0.55,0.33,0.58,0.48,0.55,0.44,0.5,0.4,0.55,0.55,0.58,0.55,0.42,0.56,0.48,0.29,0.48,0.33,0.55,0.58,0.55,0.6,0.29,0.5,0.56,0.42,0.55,0.29,0.58,0.55,0.29,0.88,0.6,0.4,0.55,0.56,0.29,0.58,0.56,0.55,0.33,0.58,0.48" style="fill:rgb(0,0,0);font-family:URWPalladioL-Roma;font-size:9.96px;stroke:none;">these electrodes justiﬁably unveil the primary role which the carbon skeleton plays in improving the</text>
   <text y="759.809" x="76.535,79.437,82.339,85.59,91.394,94.296,100.31,111.599,117.692" svgx:width="0.29,0.29,0.33,0.58,0.29,0.6,0.88,0.61,0.29" style="fill:rgb(0,0,0);font-family:URWPalladioL-Roma;font-size:9.96px;stroke:none;">lithiumdi</text>
   <text y="759.809" x="120.59" svgx:width="0.61" style="fill:rgb(0,0,0);font-family:Rpxr;font-size:9.96px;stroke:none;">ﬀ</text>
   <text y="759.809" x="126.654,132.667,136.896,139.798,145.243,151.047,153.537,157.02,163.134,168.938,173.924,177.2108,179.658,182.56,186.7432,189.272,192.523,198.001,200.441,204.669,209.656,214.093,216.583,219.07,222.829,227.606,233.151,238.137,241.897,247.99,250.892,255.669,259.897,264.0802,266.609,272.054,275.3408,277.858,282.838,285.317,289.546,292.448,298.252,303.797,306.699,311.4798,313.959,319.404,323.388,325.826,331.341,334.243,340.047,345.033,348.972,354.5496,356.99,365.796,370.573,373.824,378.81,381.6984,384.195,388.424,393.968,398.197,401.448,406.225,415.03,417.52,420.007,423.258,429.062,433.8428,436.312,440.74,445.726,449.665,455.18,460.625,466.4018,468.912,477.718,482.704,485.955,489.894,492.796,497.9752,500.425,503.327,507.5102,510.029,512.931" svgx:width="0.6,0.42,0.29,0.55,0.58,0.25,0.55,0.61,0.58,0.5,0.33,0.55,0.29,0.42,0.55,0.33,0.55,0.55,0.42,0.5,0.56,0.25,0.55,0.4,0.48,0.56,0.5,0.4,0.61,0.29,0.48,0.42,0.42,0.55,0.55,0.33,0.55,0.5,0.55,0.42,0.29,0.58,0.56,0.29,0.48,0.55,0.55,0.4,0.55,0.55,0.29,0.58,0.5,0.4,0.56,0.55,0.88,0.48,0.33,0.5,0.29,0.55,0.42,0.56,0.42,0.33,0.48,0.88,0.25,0.55,0.33,0.58,0.48,0.55,0.44,0.5,0.4,0.55,0.55,0.58,0.55,0.88,0.5,0.33,0.4,0.29,0.52,0.55,0.29,0.42,0.55,0.29,0.58" style="fill:rgb(0,0,0);font-family:URWPalladioL-Roma;font-size:9.96px;stroke:none;">usion. That is to say, regardless of a single or binary metal system, the carbon matrix is in</text>
  </g>
 </g>
</svg>
