<?xml version="1.0" encoding="UTF-8"?>
<svg height="837.184" width="4109.899" xmlns="http://www.w3.org/2000/svg">
 <g id="page" xmlns:svgx="http://www.xml-cml.org/schema/svgx">
  <g begin="text">
   <text y="62.979" x="76.535,82.736,86.274,90.706,94.245,100.445,103.984,106.638,109.738,112.839,115.055,118.593,120.809" svgx:width="0.78,0.44,0.56,0.44,0.78,0.44,0.33,0.39,0.39,0.28,0.44,0.28,0.39" style="fill:rgb(0,0,0);font-family:URWPalladioL-Ital;font-size:7.97px;stroke:none;">Nanomaterials</text>
   <text y="62.979" x="125.901,129.886,133.871,137.856" svgx:width="0.5,0.5,0.5,0.5" style="fill:rgb(0,0,0);font-family:URWPalladioL-Bold;font-size:7.97px;stroke:none;">2020</text>
   <text y="62.979" x="141.842" svgx:width="0.25" style="fill:rgb(0,0,0);font-family:URWPalladioL-Roma;font-size:7.97px;stroke:none;">,</text>
   <text y="62.979" x="145.827,149.812" svgx:width="0.5,0.5" style="fill:rgb(0,0,0);font-family:URWPalladioL-Ital;font-size:7.97px;stroke:none;">10</text>
   <text y="62.979" x="153.797,155.7895,157.782,161.767,165.752,169.73700000000002,491.809,495.794,499.779,501.772,506.123,508.7531,510.77,514.755" svgx:width="0.25,0.55,0.5,0.5,0.5,0.55,0.5,0.5,0.55,0.55,0.33,0.55,0.5,0.5" style="fill:rgb(0,0,0);font-family:URWPalladioL-Roma;font-size:7.97px;stroke:none;">, 249 10 of 19</text>
   <text y="97.848" x="76.535,82.223,85.067,90.501,96.2778,98.691,104.663,109.344,117.974,122.86,128.549,134.62460000000002,137.022,140.277,145.613,149.597,151.985,156.872,160.058,163.244,168.13,170.975,176.663,179.507,185.195,190.77259999999998,193.131,196.317,202.005,206.7858,209.188,213.87,216.714,221.395,226.917,231.804,234.99,239.671,245.7466,248.145,252.484,257.371,263.244,268.131,272.47,275.314,278.5,284.0776,286.436,290.121,294.802,297.988,302.67,308.358,311.544,314.388,319.724,325.412,327.902,330.358,333.544,339.232,344.568,350.461,355.895,361.67179999999996,364.095,369.07500000000005,371.484,375.628,384.257,389.144,391.988,394.8764,397.334,403.306,406.15,410.293,414.633,420.321,425.208,428.892,434.326,439.1068,441.509,445.849,450.735,456.609,461.496,465.835,468.679,471.865,477.4426,479.801,485.137,489.477,493.816,499.709,503.57,507.7532,510.216,513.402" svgx:width="0.58,0.29,0.56,0.58,0.55,0.61,0.48,0.88,0.5,0.58,0.61,0.55,0.33,0.55,0.4,0.55,0.5,0.33,0.33,0.5,0.29,0.58,0.29,0.58,0.56,0.55,0.33,0.58,0.48,0.55,0.48,0.29,0.48,0.56,0.5,0.33,0.48,0.61,0.55,0.44,0.5,0.6,0.5,0.44,0.29,0.33,0.56,0.55,0.4,0.48,0.33,0.48,0.58,0.33,0.29,0.55,0.58,0.25,0.55,0.33,0.58,0.55,0.6,0.56,0.58,0.55,0.5,0.55,0.42,0.88,0.5,0.29,0.29,0.55,0.61,0.29,0.42,0.44,0.58,0.5,0.4,0.56,0.48,0.55,0.44,0.5,0.6,0.5,0.44,0.29,0.33,0.56,0.55,0.55,0.44,0.44,0.6,0.4,0.42,0.55,0.33,0.55" style="fill:rgb(0,0,0);font-family:URWPalladioL-Roma;font-size:9.96px;stroke:none;">high demand for attaining the elevated capacity retention, though a small discharge capacity occurs to</text>
   <text y="111.358" x="76.535,82.531,85.799,90.951,98.664,105.994,112.952,115.442,117.888,123.903,129.614,134.3948,136.798,142.342,145.198,150.742,153.598,159.67360000000002,162.086,167.984,172.684,176.561,179.819,185.176,189.053,197.718,202.624,208.336,212.693,217.4738,219.886,224.243,229.601,238.266,244.163,249.07,252.946,255.802,259.963,265.321,271.0978,273.515,278.421,283.848,289.206,294.75,299.5308,301.933,307.851,313.562,316.418,321.962,327.32,331.677,336.584,339.439,342.295,347.87260000000003,350.234,356.23,360.93,366.641,371.999,375.199,379.899,384.0822,386.543,389.742,395.453,400.2338,402.636,405.492,411.203,417.199,420.054,424.215,430.113,434.813,440.525,444.685,449.592,455.019,457.874,462.6548,465.067,467.923,476.578,482.476,485.332,488.187,492.544,497.451,500.65,503.506,508.863,514.575" svgx:width="0.61,0.33,0.52,0.79,0.75,0.71,0.25,0.55,0.61,0.58,0.48,0.55,0.56,0.29,0.56,0.29,0.61,0.55,0.6,0.48,0.4,0.33,0.55,0.4,0.88,0.5,0.58,0.44,0.48,0.55,0.44,0.55,0.88,0.6,0.5,0.4,0.29,0.42,0.55,0.58,0.55,0.5,0.55,0.55,0.56,0.48,0.55,0.6,0.58,0.29,0.56,0.55,0.44,0.5,0.29,0.29,0.56,0.55,0.61,0.48,0.58,0.55,0.33,0.48,0.42,0.55,0.33,0.58,0.48,0.55,0.29,0.58,0.61,0.29,0.42,0.6,0.48,0.58,0.42,0.5,0.55,0.29,0.48,0.55,0.29,0.88,0.6,0.29,0.29,0.44,0.5,0.33,0.29,0.55,0.58,0.42" style="fill:rgb(0,0,0);font-family:URWPalladioL-Roma;font-size:9.96px;stroke:none;">B-SO@C. The vivid performance comparison above univocally denotes the indispensable implications</text>
   <text y="124.867" x="76.535,79.848,85.762,90.843,94.1298,97.072,102.692,108.24,111.553,117.32979999999999,120.383,123.686,129.6,134.3808,137.384,141.896,146.977,150.991,156.61,162.159,167.9358,170.989,174.373,178.387,183.468,192.441,197.309,205.784,211.332,215.346,220.9236,223.912,228.993,234.908,240.9836,244.023,246.98,250.821,256.369,262.1458,265.2,271.307,277.221,282.302,286.611,291.3918,294.385,300.299,305.38,311.121,315.9018,318.905,325.033,331.14,336.689,342.4658,345.519,348.832,354.96,360.874,363.831,369.745,375.3226,378.301,381.614,387.528,392.3088,395.312,398.269,401.226,404.539,410.453,413.41,419.538,428.3028,431.427,434.385,439.933,445.7098,448.764,453.072,456.385,461.933,465.947,471.028,476.678,481.4588,484.452,490.559,494.4,499.949,504.461,509.328,513.637,517.945" svgx:width="0.33,0.58,0.5,0.33,0.55,0.55,0.55,0.33,0.58,0.55,0.33,0.58,0.48,0.55,0.44,0.5,0.4,0.55,0.55,0.58,0.55,0.33,0.4,0.5,0.88,0.48,0.83,0.55,0.4,0.56,0.55,0.5,0.58,0.61,0.55,0.29,0.4,0.55,0.58,0.55,0.6,0.58,0.5,0.42,0.48,0.55,0.58,0.5,0.56,0.48,0.55,0.6,0.6,0.55,0.58,0.55,0.33,0.6,0.58,0.29,0.58,0.56,0.55,0.33,0.58,0.48,0.55,0.29,0.29,0.33,0.58,0.29,0.6,0.88,0.55,0.29,0.55,0.58,0.55,0.42,0.33,0.55,0.4,0.5,0.56,0.48,0.55,0.6,0.4,0.55,0.44,0.48,0.42,0.42,0.25" style="fill:rgb(0,0,0);font-family:URWPalladioL-Roma;font-size:9.96px;stroke:none;">that both the carbon framework and iron phase have upon tuning the lithium ion storage process.</text>
   <text y="138.377" x="76.535,82.673,88.8,92.0868,94.786,99.867,105.781,111.329,114.642,120.556,125.424,129.40800000000002,132.12,140.595,145.676,150.219,152.709,155.482,158.795,164.709,169.4898,172.249,175.207,181.121,184.434,189.301,193.132,197.644,202.725,205.682,210.763,214.076,217.033,222.581,228.3578,231.168,236.716,240.0028,242.783,248.402,251.359,257.274,262.355,266.369,271.94660000000005,274.691,283.664,288.532,291.844,296.925,299.882,304.0652,306.864,309.821,315.735,320.043,323.001,329.209,333.9898,336.75,341.73,344.513,349.025,354.106,358.12,363.739,369.288,375.202,380.283,384.795,389.662,395.211,401.338,405.5212,408.319,413.939,420.067,423.024,428.6016,431.346,440.319,445.4,448.713,452.727,455.684,460.8632,463.6,468.112,473.193,478.96979999999996,481.79,485.621,490.488,494.797,500.924,503.882,507.16880000000003,509.867,512.824" svgx:width="0.6,0.6,0.33,0.55,0.5,0.58,0.55,0.33,0.58,0.48,0.4,0.55,0.83,0.5,0.56,0.25,0.55,0.33,0.58,0.48,0.55,0.29,0.58,0.33,0.48,0.4,0.44,0.5,0.29,0.5,0.33,0.29,0.55,0.58,0.55,0.55,0.33,0.55,0.55,0.29,0.58,0.5,0.4,0.56,0.55,0.88,0.48,0.33,0.5,0.29,0.42,0.55,0.29,0.58,0.42,0.29,0.61,0.48,0.55,0.5,0.55,0.44,0.5,0.4,0.55,0.55,0.58,0.5,0.44,0.48,0.55,0.6,0.42,0.55,0.55,0.6,0.29,0.56,0.55,0.88,0.5,0.33,0.4,0.29,0.52,0.55,0.44,0.5,0.58,0.55,0.4,0.48,0.42,0.6,0.29,0.33,0.55,0.29,0.58" style="fill:rgb(0,0,0);font-family:URWPalladioL-Roma;font-size:9.96px;stroke:none;">Put another way, the intercalation of binary metals inside a carbonaceous bulk matrix can result in</text>
   <text y="151.886" x="76.535,81.515,84.888,90.538,96.086,101.635,107.7106,111.106,114.063,119.977,123.29,128.157,133.807,137.821,142.902,146.215,149.172,154.72,160.4968,163.907,169.455,172.7418,176.101,179.414,185.328,190.1088,193.467,196.424,202.339,208.253,213.334,216.647,221.4278,224.786,228.17,234.298,240.212,244.724,248.037,250.983,256.532,262.446,266.6292,270.027,275.575,278.8618,282.231,285.544,291.458,296.2388,299.588,303.429,308.296,312.605,318.712,323.58,328.092,331.404,334.361,340.103,344.8838,348.232,353.1,359.014,362.327,365.284,368.597,371.554,376.421,380.6042,384.002,386.959,392.7358,396.135,399.448,405.362,410.1428,413.502,419.416,424.497,430.411,435.96,440.268,444.78,449.861,452.818,457.686,460.176,463.691,466.648,472.4248,475.825,480.805,484.178,493.151,498.232,504.146,510.06,514.927" svgx:width="0.5,0.55,0.56,0.55,0.55,0.61,0.55,0.29,0.58,0.33,0.48,0.56,0.4,0.5,0.33,0.29,0.55,0.58,0.55,0.55,0.33,0.55,0.33,0.58,0.48,0.55,0.29,0.58,0.58,0.5,0.33,0.48,0.55,0.33,0.6,0.58,0.44,0.33,0.29,0.55,0.58,0.42,0.55,0.55,0.33,0.55,0.33,0.58,0.48,0.55,0.4,0.48,0.42,0.6,0.48,0.44,0.33,0.29,0.56,0.48,0.55,0.48,0.58,0.33,0.29,0.33,0.29,0.48,0.42,0.55,0.29,0.58,0.55,0.33,0.58,0.48,0.55,0.58,0.5,0.58,0.55,0.42,0.44,0.5,0.29,0.48,0.25,0.55,0.29,0.58,0.55,0.5,0.55,0.88,0.5,0.58,0.58,0.48,0.4" style="fill:rgb(0,0,0);font-family:URWPalladioL-Roma;font-size:9.96px;stroke:none;">a good integration of the innate functions of the respective entities in the nanoscale, in a manner</text>
   <text y="165.395" x="76.117,84.592,90.506,93.463,97.975,103.75179999999999,106.369,112.476,116.307,121.855,128.064,134.192,138.704,143.571,147.7542,150.359,153.672,159.586,164.3668,166.933,172.848,178.396,184.137,189.005,191.89339999999999,194.442,198.953,204.502,213.475,219.582,225.13,229.439,232.396,235.709,240.4898,243.046,252.019,257.1,260.412,265.28,269.294,272.251,277.332,280.289,284.4722,287.077,290.461,296.009,299.993,302.503,308.051,314.158,317.471,320.428,329.401,332.358,337.439,340.396,346.31,351.8876,354.44,357.753,363.667,368.4478,371.014,373.971,379.885,384.194,389.061,393.075,396.388,399.345,404.893,410.66979999999995,413.287,418.836,422.12280000000004,424.689,427.646,430.603,433.916,439.83,442.787,448.915,457.6798,460.367,463.324,468.872,474.787,478.9702,481.575,486.656,489.94280000000003,492.448,498.067,501.898,507.447,512.528" svgx:width="0.83,0.58,0.29,0.44,0.58,0.55,0.6,0.4,0.55,0.61,0.6,0.44,0.48,0.42,0.55,0.33,0.58,0.48,0.55,0.58,0.55,0.56,0.48,0.29,0.55,0.44,0.55,0.88,0.6,0.55,0.42,0.29,0.33,0.48,0.55,0.88,0.5,0.33,0.48,0.4,0.29,0.5,0.29,0.42,0.55,0.33,0.55,0.4,0.55,0.55,0.6,0.33,0.29,0.88,0.29,0.5,0.29,0.58,0.56,0.55,0.33,0.58,0.48,0.55,0.29,0.58,0.42,0.48,0.4,0.33,0.29,0.55,0.58,0.55,0.55,0.33,0.55,0.29,0.29,0.33,0.58,0.29,0.6,0.88,0.55,0.29,0.55,0.58,0.42,0.55,0.5,0.33,0.55,0.55,0.4,0.55,0.5,0.61" style="fill:rgb(0,0,0);font-family:URWPalladioL-Roma;font-size:9.96px;stroke:none;">which produces the novel composite materials for optimizing the insertion of lithium ions at broad</text>
   <text y="178.905" x="76.535,80.47,85.452,88.699,93.4798,95.962,98.861,104.301,109.282,115.369,118.268,124.067,129.606" svgx:width="0.4,0.5,0.33,0.48,0.55,0.29,0.55,0.5,0.61,0.29,0.58,0.56,0.25" style="fill:rgb(0,0,0);font-family:URWPalladioL-Roma;font-size:9.96px;stroke:none;">rate loading.</text>
  </g>
  <g begin="text">
   <text y="89.124" x="76.379,82.56,86.101,90.543,94.145,100.326,103.867,106.53,109.64,112.75,114.975,118.577,120.798,123.908" svgx:width="0.78,0.44,0.56,0.44,0.78,0.44,0.33,0.39,0.39,0.28,0.44,0.28,0.39,0.25" style="fill:rgb(0,0,0);font-family:PalatinoLinotype,Italic;font-size:7.98px;stroke:none;">Nanomaterials </text>
   <text y="89.124" x="125.879,129.899,133.92,137.94" svgx:width="0.5,0.5,0.5,0.5" style="fill:rgb(0,0,0);font-family:PalatinoLinotype,Bold;font-size:7.98px;stroke:none;">2019</text>
   <text y="89.124" x="141.959,143.939" svgx:width="0.25,0.25" style="fill:rgb(0,0,0);font-family:PalatinoLinotype;font-size:7.98px;stroke:none;">, </text>
   <text y="89.124" x="145.919" svgx:width="0.5" style="fill:rgb(0,0,0);font-family:PalatinoLinotype,Italic;font-size:7.98px;stroke:none;">9</text>
   <text y="89.124" x="149.939,151.94,153.92,158.042,160.022,164.463,170.762,176.097,178.077,182.937,187.798,192.72,198.06,200.055,201.6,203.595,488.399,492.418,496.437,498.432,499.977,504.362,507.003,508.998,510.543,514.561,518.58" svgx:width="0.25,0.25,0.52,0.25,0.56,0.79,0.67,0.25,0.6,0.61,0.61,0.67,0.25,0.55,0.25,0.55,0.5,0.5,0.25,0.55,0.55,0.33,0.25,0.55,0.5,0.5,0.25" style="fill:rgb(0,0,0);font-family:PalatinoLinotype;font-size:7.98px;stroke:none;">, x FOR PEER 10 of 19 </text>
   <text y="827.184" x="76.379" svgx:width="0.25" style="fill:rgb(0,0,0);font-family:TimesNewRoman;font-size:9.0px;stroke:none;"> </text>
   <text y="114.024" x="76.379,79.655,85.496,90.304,92.644,95.57,101.41,107.472,110.411,114.669,120.669,125.477,131.318,135.519,140.56,146.077,149.017,153.757,156.156,159.082,167.904,173.904,176.783,179.709,184.091,189.11,192.348,195.228,200.689,206.529,210.787,213.126,216.403,222.243,227.223,230.461,232.861,238.379,243.839,247.116,252.875,255.215,258.491,264.331,269.14,271.54,275.922,280.962,284.929,290.447,295.927,301.678,304.078,307.405,311.353,316.353,325.189,329.979,338.324,343.785,347.733,353.294,355.634,360.634,366.455,372.567,374.907,377.814,381.762,387.223,393.044,395.444,401.455,407.214,412.214,416.453,421.243,423.643,429.402,434.382,440.033,444.823,447.222,453.254,459.266,464.726,470.486,472.885,476.143,482.174,487.996,490.902,496.723,502.284,504.624,507.881,513.703,518.492" svgx:width="0.33,0.58,0.48,0.25,0.29,0.58,0.61,0.29,0.42,0.6,0.48,0.58,0.42,0.5,0.55,0.29,0.48,0.25,0.29,0.88,0.6,0.29,0.29,0.44,0.5,0.33,0.29,0.55,0.58,0.42,0.25,0.33,0.58,0.5,0.33,0.25,0.55,0.55,0.33,0.58,0.25,0.33,0.58,0.48,0.25,0.44,0.5,0.4,0.55,0.55,0.58,0.25,0.33,0.4,0.5,0.88,0.48,0.83,0.55,0.4,0.56,0.25,0.5,0.58,0.61,0.25,0.29,0.4,0.55,0.58,0.25,0.6,0.58,0.5,0.42,0.48,0.25,0.58,0.5,0.56,0.48,0.25,0.6,0.6,0.55,0.58,0.25,0.33,0.6,0.58,0.29,0.58,0.56,0.25,0.33,0.58,0.48,0.25" style="fill:rgb(0,0,0);font-family:PalatinoLinotype;font-size:10.02px;stroke:none;">the indispensable implications that both the carbon framework and iron phase have upon tuning the </text>
   <text y="127.524" x="76.379,79.305,82.184,85.46,91.301,94.18,100.24,109.062,111.102,114.028,119.508,125.348,127.388,131.59,134.828,140.308,144.275,149.294,154.874,159.683,161.723,167.723,171.682,177.162,181.62,186.36,190.621,194.823,197.343,199.383,205.444,211.444,214.72,216.76,221.779,227.62,233.02,236.318,242.159,246.967,250.935,252.915,261.279,266.298,271.878,274.393,276.373,279.65,285.49,290.299,292.339,295.265,301.024,304.3,309.109,313.009,317.45,322.469,325.349,330.329,333.627,336.553,342.032,347.873,349.913,355.393,358.739,360.779,366.237,369.117,374.957,379.976,383.943,389.523,391.563,400.386,405.125,408.401,413.381,416.307,420.565,422.545,425.424,431.244,435.502,438.427,444.558,449.367,451.347,456.366,458.406,462.864,467.883,471.851,477.368,482.769,488.588,493.607,498.066,502.874,508.354,514.354,518.615" svgx:width="0.29,0.29,0.33,0.58,0.29,0.6,0.88,0.25,0.29,0.55,0.58,0.25,0.42,0.33,0.55,0.4,0.5,0.56,0.48,0.25,0.6,0.4,0.55,0.44,0.48,0.42,0.42,0.25,0.25,0.6,0.6,0.33,0.25,0.5,0.58,0.55,0.33,0.58,0.48,0.4,0.25,0.83,0.5,0.56,0.25,0.25,0.33,0.58,0.48,0.25,0.29,0.58,0.33,0.48,0.4,0.44,0.5,0.29,0.5,0.33,0.29,0.55,0.58,0.25,0.55,0.33,0.25,0.55,0.29,0.58,0.5,0.4,0.56,0.25,0.88,0.48,0.33,0.5,0.29,0.42,0.25,0.29,0.58,0.42,0.29,0.61,0.48,0.25,0.5,0.25,0.44,0.5,0.4,0.55,0.55,0.58,0.5,0.44,0.48,0.55,0.6,0.42,0.25" style="fill:rgb(0,0,0);font-family:PalatinoLinotype;font-size:10.02px;stroke:none;">lithium ion storage process. Put another way, the intercalation of binary metals inside a carbonaceous </text>
   <text y="140.963" x="76.379,81.926,87.974,90.896,96.473,99.653,108.415,113.455,116.693,120.653,123.575,128.752,131.932,136.314,141.354,147.191,150.371,154.336,159.075,163.33,169.329,172.252,175.525,178.645,181.568,187.405,190.525,195.505,198.685,204.262,209.739,215.216,221.344,224.524,227.446,233.206,236.479,241.284,246.803,250.763,255.743,259.041,261.964,267.44,273.278,276.458,281.858,285.219,288.339,291.612,297.449,302.255,305.458,308.383,314.142,319.981,324.999,328.274,333.014,336.194,339.494,345.554,351.393,355.85,359.089,362.028,367.507,373.266,377.523,380.703,386.182,389.527,392.647,395.922,401.762,406.569,409.75,413.716,418.455,422.712,428.712,433.451,437.892,441.168,444.092,449.733,454.533,457.653,462.461,468.3,471.538,474.478,477.716,480.656,485.464,489.72,492.84,495.765,501.604,504.784,508.06,513.899,518.578" svgx:width="0.55,0.6,0.29,0.56,0.25,0.88,0.5,0.33,0.4,0.29,0.52,0.25,0.44,0.5,0.58,0.25,0.4,0.48,0.42,0.6,0.29,0.33,0.25,0.29,0.58,0.25,0.5,0.25,0.56,0.55,0.55,0.61,0.25,0.29,0.58,0.33,0.48,0.56,0.4,0.5,0.33,0.29,0.55,0.58,0.25,0.55,0.33,0.25,0.33,0.58,0.48,0.25,0.29,0.58,0.58,0.5,0.33,0.48,0.25,0.33,0.6,0.58,0.44,0.33,0.29,0.55,0.58,0.42,0.25,0.55,0.33,0.25,0.33,0.58,0.48,0.25,0.4,0.48,0.42,0.6,0.48,0.44,0.33,0.29,0.56,0.48,0.25,0.48,0.58,0.33,0.29,0.33,0.29,0.48,0.42,0.25,0.29,0.58,0.25,0.33,0.58,0.48,0.25" style="fill:rgb(0,0,0);font-family:PalatinoLinotype;font-size:10.02px;stroke:none;">bulk matrix can result in a good integration of the innate functions of the respective entities in the </text>
   <text y="154.463" x="76.379,82.207,87.214,93.043,98.51,102.756,107.138,112.145,115.059,119.855,122.358,124.638,127.552,133.38,135.6,140.607,142.886,151.729,156.736,162.565,168.393,173.19,177.145,179.425,187.777,193.605,196.519,200.965,206.793,209.073,215.092,219.047,224.515,230.633,236.672,241.118,245.915,250.161,252.38,255.644,261.473,266.269,268.549,274.377,279.845,285.503,290.3,293.213,295.493,299.939,305.338,314.1,320.099,325.577,329.833,332.757,335.995,340.801,343.081,351.934,356.914,360.188,364.995,368.895,371.775,376.792,379.672,383.927,386.207,389.551,395.029,398.994,401.274,406.752,412.691,415.965,418.889,427.651,430.531,435.548,438.471,444.31,449.888,452.107,455.381,461.22,466.026,468.246,471.17,477.008,481.264,486.003,489.904,493.202,496.126,501.603,507.442,509.721,515.122,518.541" svgx:width="0.58,0.5,0.58,0.55,0.42,0.44,0.5,0.29,0.48,0.25,0.25,0.29,0.58,0.25,0.5,0.25,0.88,0.5,0.58,0.58,0.48,0.4,0.25,0.83,0.58,0.29,0.44,0.58,0.25,0.6,0.4,0.55,0.61,0.6,0.44,0.48,0.42,0.25,0.33,0.58,0.48,0.25,0.58,0.55,0.56,0.48,0.29,0.25,0.44,0.55,0.88,0.6,0.55,0.42,0.29,0.33,0.48,0.25,0.88,0.5,0.33,0.48,0.4,0.29,0.5,0.29,0.42,0.25,0.33,0.55,0.4,0.25,0.55,0.6,0.33,0.29,0.88,0.29,0.5,0.29,0.58,0.56,0.25,0.33,0.58,0.48,0.25,0.29,0.58,0.42,0.48,0.4,0.33,0.29,0.55,0.58,0.25,0.55,0.33,0.25" style="fill:rgb(0,0,0);font-family:PalatinoLinotype;font-size:10.02px;stroke:none;">nanoscale, in a manner which produces the novel composite materials for optimizing the insertion of </text>
   <text y="167.963" x="76.379,79.303,82.182,85.456,91.295,94.174,100.234,109.087,111.607,114.531,120.009,125.768,130.03,132.49,137.47,140.768,143.288,148.836,152.801,158.202,163.242,169.371,171.891,175.791,180.771,184.045,188.852,191.312,194.191,199.652,204.669,210.798,213.721,219.481,225.058,227.518" svgx:width="0.29,0.29,0.33,0.58,0.29,0.6,0.88,0.25,0.29,0.55,0.58,0.42,0.25,0.5,0.33,0.25,0.55,0.4,0.55,0.5,0.61,0.25,0.4,0.5,0.33,0.48,0.25,0.29,0.55,0.5,0.61,0.29,0.58,0.56,0.25,0.25" style="fill:rgb(0,0,0);font-family:PalatinoLinotype;font-size:10.02px;stroke:none;">lithium ions at broad rate loading. </text>
   <text y="599.604" x="494.699" svgx:width="0.25" style="fill:rgb(0,0,0);font-family:PalatinoLinotype;font-size:12.0px;stroke:none;"> </text>
   <text y="623.064" x="97.619,102.642,105.64,110.645,116.144,119.646,124.147,126.188,130.688" svgx:width="0.56,0.33,0.56,0.61,0.39,0.5,0.25,0.5,0.25" style="fill:rgb(0,0,0);font-family:PalatinoLinotype,Bold;font-size:9.0px;stroke:none;">Figure 5.</text>
   <text y="623.064" x="132.959,135.0" svgx:width="0.25,0.33" style="fill:rgb(0,0,0);font-family:PalatinoLinotype;font-size:9.0px;stroke:none;"> (</text>
   <text y="623.064" x="137.999" svgx:width="0.5" style="fill:rgb(0,0,0);font-family:PalatinoLinotype,Bold;font-size:9.0px;stroke:none;">a</text>
   <text y="623.064" x="142.499,145.502,147.482,150.521,155.764,158.344,161.282,163.907,168.413,171.038,173.078,178.54,181.179,185.001,189.003,194.246,198.751,202.312,207.29,211.61,214.496,218.457,223.7,228.206,231.766,236.745,241.061,243.102,247.103,252.503,256.064,261.154,265.47,269.292,271.332,276.251,279.254,281.295,286.799,289.802,294.532,299.51,306.589,312.74,319.126,321.419,323.399,328.906,331.911,336.644,343.725,349.88,356.268,358.308,362.816,368.062,373.569,375.609,381.116,384.122,388.854,393.773,400.854,402.894,407.213,409.841,414.16,418.164,421.107,424.671,429.531,435.053,439.372,443.197,445.237,449.745,452.624,454.604,459.112,461.371,465.879,467.919,474.928,476.969" svgx:width="0.33,0.25,0.34,0.58,0.29,0.33,0.29,0.5,0.29,0.25,0.61,0.29,0.42,0.44,0.58,0.5,0.4,0.56,0.48,0.32,0.44,0.58,0.5,0.4,0.56,0.48,0.25,0.44,0.6,0.4,0.56,0.48,0.42,0.25,0.55,0.33,0.25,0.61,0.33,0.52,0.56,0.79,0.68,0.71,0.25,0.25,0.61,0.33,0.52,0.79,0.68,0.71,0.25,0.5,0.58,0.61,0.25,0.61,0.33,0.52,0.56,0.79,0.25,0.48,0.29,0.48,0.44,0.33,0.4,0.55,0.61,0.48,0.42,0.25,0.5,0.33,0.25,0.5,0.25,0.5,0.25,0.78,0.25,0.56" style="fill:rgb(0,0,0);font-family:PalatinoLinotype;font-size:9.0px;stroke:none;">) Initial discharge/charge curves of B-SFO@C, B-SO@C and B-SFO electrodes at 0.2 A g</text>
   <text y="620.544" x="481.919,484.679" svgx:width="0.5,0.5" style="fill:rgb(0,0,0);font-family:PalatinoLinotype;font-size:5.52px;stroke:none;">−1</text>
   <text y="623.064" x="487.439,489.419,492.07,497.339" svgx:width="0.25,0.29,0.58,0.25" style="fill:rgb(0,0,0);font-family:PalatinoLinotype;font-size:9.0px;stroke:none;"> in </text>
   <text y="636.084" x="97.619,100.554,105.793,110.104,112.685,118.094,123.009,125.944,130.256,135.495,138.43,141.051,145.552,148.172,150.752,154.309,158.748,163.987,168.992,173.303,175.884,180.798,183.797,186.377,190.878,193.13,197.63,202.131,206.632,211.133,215.634,217.886,222.386,224.967,231.465,233.716,236.297" svgx:width="0.33,0.58,0.48,0.25,0.6,0.55,0.33,0.48,0.58,0.33,0.29,0.5,0.29,0.25,0.4,0.5,0.58,0.56,0.48,0.25,0.55,0.33,0.25,0.5,0.25,0.5,0.5,0.5,0.5,0.5,0.25,0.5,0.25,0.72,0.25,0.25,0.33" style="fill:rgb(0,0,0);font-family:PalatinoLinotype;font-size:9.0px;stroke:none;">the potential range of 0.005–3.0 V, (</text>
   <text y="636.084" x="239.279" svgx:width="0.61" style="fill:rgb(0,0,0);font-family:PalatinoLinotype,Bold;font-size:9.0px;stroke:none;">b</text>
   <text y="636.084" x="244.799,247.749,250.329,254.35,259.329,263.277,265.917,268.556,272.517,275.037,280.015,284.335,289.525,294.025,299.126,301.765,306.686,310.226,312.806,317.306,320.245,322.825,327.277,329.557,334.009,336.589,343.611,346.191" svgx:width="0.33,0.25,0.44,0.56,0.44,0.29,0.29,0.44,0.25,0.55,0.48,0.58,0.5,0.56,0.29,0.55,0.4,0.25,0.5,0.33,0.25,0.5,0.25,0.5,0.25,0.78,0.25,0.56" style="fill:rgb(0,0,0);font-family:PalatinoLinotype;font-size:9.0px;stroke:none;">) cyclic behavior at 0.2 A g</text>
   <text y="633.564" x="351.179,353.939" svgx:width="0.5,0.5" style="fill:rgb(0,0,0);font-family:PalatinoLinotype;font-size:5.52px;stroke:none;">−1</text>
   <text y="636.084" x="356.699,359.279,363.791,368.95,374.46,377.041" svgx:width="0.25,0.5,0.58,0.61,0.25,0.33" style="fill:rgb(0,0,0);font-family:PalatinoLinotype;font-size:9.0px;stroke:none;"> and (</text>
   <text y="636.084" x="380.039" svgx:width="0.44" style="fill:rgb(0,0,0);font-family:PalatinoLinotype,Bold;font-size:9.0px;stroke:none;">c</text>
   <text y="636.084" x="384.059,386.999,389.58,393.059,397.559,400.497,404.81,407.39,411.389,415.892,421.303,425.806,430.785,433.366,435.988,438.61,441.548,446.554,449.134,452.915,458.315,466.263,474.211,478.714,482.272,487.279,489.859,494.361,497.299" svgx:width="0.33,0.25,0.4,0.5,0.33,0.48,0.25,0.44,0.5,0.6,0.5,0.55,0.29,0.29,0.29,0.33,0.56,0.25,0.42,0.6,0.88,0.88,0.5,0.4,0.56,0.25,0.5,0.33,0.25" style="fill:rgb(0,0,0);font-family:PalatinoLinotype;font-size:9.0px;stroke:none;">) rate capability summary at </text>
   <text y="649.044" x="97.619,102.711,107.218,110.781,113.408,118.329,123.728,127.552,130.431,134.435,139.834,143.397,146.959,151.278,156.522,159.464,162.344,167.85,172.168,177.413,181.194,183.821,186.763,189.389,193.649,197.473,200.352,203.357,206.92,211.78,219.702,222.581,227.088,229.346,233.854,236.733,243.695,246.574" svgx:width="0.56,0.5,0.4,0.29,0.55,0.6,0.42,0.25,0.44,0.6,0.4,0.4,0.48,0.58,0.33,0.25,0.61,0.48,0.58,0.42,0.29,0.33,0.29,0.48,0.42,0.25,0.33,0.4,0.55,0.88,0.25,0.5,0.25,0.5,0.25,0.78,0.25,0.56" style="fill:rgb(0,0,0);font-family:PalatinoLinotype;font-size:9.0px;stroke:none;">various current densities from 0.2 A g</text>
   <text y="646.524" x="251.519,254.279" svgx:width="0.5,0.5" style="fill:rgb(0,0,0);font-family:PalatinoLinotype;font-size:5.52px;stroke:none;">−1</text>
   <text y="649.044" x="257.039,259.919,262.848,267.709,270.529,275.024,277.269,281.764,284.643,291.639,294.519" svgx:width="0.25,0.33,0.55,0.25,0.5,0.25,0.5,0.25,0.78,0.25,0.56" style="fill:rgb(0,0,0);font-family:PalatinoLinotype;font-size:9.0px;stroke:none;"> to 3.2 A g</text>
   <text y="646.524" x="299.519,302.279" svgx:width="0.5,0.5" style="fill:rgb(0,0,0);font-family:PalatinoLinotype;font-size:5.52px;stroke:none;">−1</text>
   <text y="649.044" x="305.039,307.919,312.833,315.772,318.652,321.587,326.824,330.38,334.691,339.002,341.882,346.193,348.812,353.072,357.093,360.028,363.583,368.497,373.996,378.255,382.097,384.348,387.227,389.808,394.729,399.966,404.97,407.968,410.902,415.213,418.769,426.714,429.594,434.831,437.451,442.455,447.693,450.752,454.292,458.792,461.727,466.038,468.918,472.914,477.917,481.914,484.494,487.113,492.351,497.355" svgx:width="0.25,0.55,0.33,0.25,0.33,0.58,0.4,0.48,0.48,0.25,0.48,0.29,0.48,0.44,0.33,0.4,0.55,0.61,0.48,0.42,0.25,0.25,0.29,0.55,0.58,0.56,0.33,0.33,0.48,0.4,0.88,0.25,0.58,0.29,0.56,0.58,0.33,0.4,0.5,0.33,0.48,0.25,0.44,0.56,0.44,0.29,0.29,0.58,0.56,0.25" style="fill:rgb(0,0,0);font-family:PalatinoLinotype;font-size:9.0px;stroke:none;"> of three electrodes, long-term high-rate cycling </text>
   <text y="662.064" x="97.619,103.03,107.344,110.902,113.902,118.818,122.376,130.325,134.827,140.068,144.066,148.38,150.66,155.576,158.577,160.856,163.793,169.034,173.348,175.627,181.128,184.068,188.796,193.802,200.878,207.027,213.41,215.69,219.949,222.589,226.903,230.901,233.839,237.397,242.313,247.814,252.074,254.354,258.856,261.794,264.014" svgx:width="0.6,0.48,0.4,0.33,0.55,0.4,0.88,0.5,0.58,0.44,0.48,0.25,0.55,0.33,0.25,0.33,0.58,0.48,0.25,0.61,0.33,0.52,0.56,0.79,0.68,0.71,0.25,0.48,0.29,0.48,0.44,0.33,0.4,0.55,0.61,0.48,0.25,0.5,0.33,0.25,0.33" style="fill:rgb(0,0,0);font-family:PalatinoLinotype;font-size:9.0px;stroke:none;">performance of the B-SFO@C electrode at (</text>
   <text y="662.064" x="266.999" svgx:width="0.61" style="fill:rgb(0,0,0);font-family:PalatinoLinotype,Bold;font-size:9.0px;stroke:none;">d</text>
   <text y="662.064" x="272.519,275.525,277.745,282.253,284.533,291.542,293.822" svgx:width="0.33,0.25,0.5,0.25,0.78,0.25,0.56" style="fill:rgb(0,0,0);font-family:PalatinoLinotype;font-size:9.0px;stroke:none;">) 1 A g</text>
   <text y="659.544" x="298.799,301.559" svgx:width="0.5,0.5" style="fill:rgb(0,0,0);font-family:PalatinoLinotype;font-size:5.52px;stroke:none;">−1</text>
   <text y="662.064" x="304.259,306.539,311.049,316.298,321.807,324.087" svgx:width="0.25,0.5,0.58,0.61,0.25,0.33" style="fill:rgb(0,0,0);font-family:PalatinoLinotype;font-size:9.0px;stroke:none;"> and (</text>
   <text y="662.064" x="327.059" svgx:width="0.5" style="fill:rgb(0,0,0);font-family:PalatinoLinotype,Bold;font-size:9.0px;stroke:none;">e</text>
   <text y="662.064" x="331.559,334.499,336.719,341.219,343.499,350.521,352.8" svgx:width="0.33,0.25,0.5,0.25,0.78,0.25,0.56" style="fill:rgb(0,0,0);font-family:PalatinoLinotype;font-size:9.0px;stroke:none;">) 3 A g</text>
   <text y="659.544" x="357.779,360.539" svgx:width="0.5,0.5" style="fill:rgb(0,0,0);font-family:PalatinoLinotype;font-size:5.52px;stroke:none;">−1</text>
   <text y="662.064" x="363.239,365.459" svgx:width="0.25,0.25" style="fill:rgb(0,0,0);font-family:PalatinoLinotype;font-size:9.0px;stroke:none;">. </text>
   <text y="687.264" x="97.619,100.993,106.822,109.222,114.229,120.347,126.466,129.38,132.644,135.558,141.025,146.785,149.288,151.687,154.952,160.78,165.577,167.976,170.89,176.358,182.186,187.754,191.088,194.353,199.149,203.105,211.867,214.206,218.652,224.22,228.666,231.58,234.494,240.253,245.821,248.221,254.239,258.979,262.934,266.268,271.669,275.628,284.472,289.479,295.307,299.753,304.55,308.795,311.195,316.596,319.956,322.296,325.56,331.319,336.116,338.516,344.578,347.938,353.195,358.763,366.635,373.475,380.575,383.078,385.478,391.54,394.9,400.157,408.029,414.869,421.889,424.289,429.296,435.055,441.174,443.514,449.575,452.936,458.193,463.761,471.559,473.959,478.699,481.638,486.435,490.817,494.081,498.037,503.504,509.566,514.363,518.608" svgx:width="0.34,0.58,0.25,0.5,0.61,0.61,0.29,0.33,0.29,0.55,0.58,0.25,0.25,0.33,0.58,0.48,0.25,0.29,0.55,0.58,0.56,0.33,0.33,0.48,0.4,0.88,0.25,0.44,0.56,0.44,0.29,0.29,0.58,0.56,0.25,0.6,0.48,0.4,0.33,0.55,0.4,0.88,0.5,0.58,0.44,0.48,0.42,0.25,0.55,0.33,0.25,0.33,0.58,0.48,0.25,0.61,0.33,0.52,0.56,0.79,0.68,0.71,0.25,0.25,0.61,0.33,0.52,0.79,0.68,0.71,0.25,0.5,0.58,0.61,0.25,0.61,0.33,0.52,0.56,0.79,0.25,0.48,0.29,0.48,0.44,0.33,0.4,0.55,0.61,0.48,0.42,0.25" style="fill:rgb(0,0,0);font-family:PalatinoLinotype;font-size:10.02px;stroke:none;">In addition, the long-term cycling performances of the B-SFO@C, B-SO@C and B-SFO electrodes </text>
   <text y="700.764" x="76.379,84.745,89.556,93.525,98.336,101.036,106.057,112.057,118.057,121.957,126.978,129.857,134.059,138.87,145.003,147.703,152.683,155.981,158.682,163.662,166.182,171.203,173.843,181.648,184.349" svgx:width="0.83,0.48,0.4,0.48,0.25,0.5,0.6,0.6,0.4,0.5,0.29,0.42,0.48,0.61,0.25,0.5,0.33,0.25,0.5,0.25,0.5,0.25,0.78,0.25,0.56" style="fill:rgb(0,0,0);font-family:PalatinoLinotype;font-size:10.02px;stroke:none;">were appraised at 0.2 A g</text>
   <text y="698.244" x="189.899,192.839" svgx:width="0.5,0.5" style="fill:rgb(0,0,0);font-family:PalatinoLinotype;font-size:6.0px;stroke:none;">−1</text>
   <text y="700.764" x="195.839,198.539,201.871,207.436,210.346,215.911,221.947,225.899,230.693,233.333,238.337,243.872,247.203,249.703,252.343,258.479,264.304,269.098,271.798,277.914,281.246,286.5,292.065,299.933,306.712,313.81,316.51,321.303,324.214,329.008,333.451,336.712,340.664,346.129,352.245,357.039,359.739,364.121,369.161,374.986,377.687,386.527,391.531,394.441,400.267,403.528,408.532,411.443,417.268,419.968,424.972,427.672,433.327,438.121,442.073,447.638,450.339,454.581,457.843,462.847,468.381,471.292,476.086,478.786,483.79,489.615,495.731,498.432,504.257,507.167,512.732,518.558" svgx:width="0.25,0.33,0.56,0.29,0.56,0.6,0.4,0.48,0.25,0.5,0.55,0.33,0.25,0.25,0.61,0.58,0.48,0.25,0.61,0.33,0.52,0.56,0.79,0.68,0.71,0.25,0.48,0.29,0.48,0.44,0.33,0.4,0.55,0.61,0.48,0.25,0.44,0.5,0.58,0.25,0.88,0.5,0.29,0.58,0.33,0.5,0.29,0.58,0.25,0.5,0.25,0.56,0.48,0.4,0.56,0.25,0.42,0.33,0.5,0.55,0.29,0.48,0.25,0.5,0.58,0.61,0.25,0.58,0.29,0.56,0.58,0.25" style="fill:rgb(0,0,0);font-family:PalatinoLinotype;font-size:10.02px;stroke:none;"> (Figure 5b). The B-SFO@C electrode can maintain a very stable and high </text>
   <text y="714.264" x="76.379,80.799,85.839,91.832,96.872,101.292,104.232,107.47,113.012,115.517,116.611,122.053,125.414,127.919,128.953,133.934,138.974,143.955,146.46,147.555,156.372,164.137,169.94,172.445,173.479" svgx:width="0.44,0.5,0.6,0.5,0.44,0.29,0.33,0.56,0.25,0.55,0.55,0.33,0.25,0.55,0.5,0.5,0.5,0.25,0.55,0.88,0.78,0.58,0.25,0.55,0.56" style="fill:rgb(0,0,0);font-family:PalatinoLinotype;font-size:10.02px;stroke:none;">capacity of 927 mAh g</text>
   <text y="711.744" x="179.099,182.099" svgx:width="0.5,0.5" style="fill:rgb(0,0,0);font-family:PalatinoLinotype;font-size:6.0px;stroke:none;">−1</text>
   <text y="714.264" x="185.099,187.60399999999998,188.639,196.97,199.91,203.208,208.967,211.472,212.567,217.553,220.058,221.153,225.377,231.395,235.62,238.918,243.904,246.797,252.604,257.644,263.161,266.1,270.876,273.381,274.476,278.41,283.186,286.484,291.284,297.091,300.334,303.227,308.673,314.481,316.986,318.08,323.527,326.888,329.393,330.427,335.413,340.453,342.935,347.975,356.367,358.872,359.906,364.682,370.319,375.095,380.902,383.407,384.502,389.488,392.848,396.091,400.867,404.801,407.306,408.341,413.327,418.313,423.353,425.858,426.952,431.378,436.924,441.35,444.289,449.065,453.29,455.772,458.277,459.311,462.251,468.07,474.168,477.061,481.486,486.526,489.769,492.709,498.516,504.063,506.568,507.663,512.703,518.522" svgx:width="0.25,0.55,0.83,0.29,0.33,0.58,0.25,0.55,0.5,0.25,0.55,0.42,0.6,0.42,0.33,0.5,0.29,0.58,0.5,0.55,0.29,0.48,0.25,0.55,0.4,0.48,0.33,0.48,0.58,0.33,0.29,0.55,0.58,0.25,0.55,0.55,0.33,0.25,0.55,0.5,0.5,0.25,0.5,0.84,0.25,0.55,0.48,0.56,0.48,0.58,0.25,0.55,0.5,0.33,0.33,0.48,0.4,0.25,0.55,0.5,0.5,0.5,0.25,0.55,0.44,0.56,0.44,0.29,0.48,0.42,0.25,0.25,0.55,0.29,0.58,0.61,0.29,0.44,0.5,0.33,0.29,0.58,0.56,0.25,0.55,0.5,0.58,0.25" style="fill:rgb(0,0,0);font-family:PalatinoLinotype;font-size:10.02px;stroke:none;"> with a sustainable retention of 95.1% even after 100 cycles, indicating an </text>
   <text y="727.704" x="76.379,81.191,86.373,90.834,95.646,101.68,104.959,107.888,113.37,119.13,124.11,127.038,129.543,130.459,134.841,140.42,144.881,147.809,150.738,155.199,157.704,158.56,161.488,164.368,167.717,172.457,175.736,178.665,187.523,192.262,194.722,197.227,198.143,206.48,211.963,215.242,220.054,222.559,223.414,226.693,232.453,237.475,240.713,243.231,245.736,246.651,249.931,255.69,261.173,267.226,272.809,278.652,281.157,282.073,285.352,291.111,295.923,298.428,299.278,302.661,309.769,315.831,318.336,319.25,324.726,328.068,330.573,331.488,337.615,340.915,346.18,351.756,359.636,366.484,373.592,376.097,376.953,379.874,384.128,386.633,387.547,391.511,396.25,399.172,404.152,407.39,410.33,415.996,420.801,423.722,429.298,431.803,432.659,435.538,440.999,449.359,451.87,454.375,455.29,458.562,464.398,469.203,471.70799999999997,472.622,477.076,482.477,488.524,491.445,496.846,505.668,511.214,514.136,518.59" svgx:width="0.48,0.52,0.44,0.48,0.6,0.33,0.29,0.55,0.58,0.5,0.29,0.25,0.55,0.44,0.56,0.44,0.29,0.29,0.44,0.25,0.55,0.29,0.29,0.33,0.48,0.33,0.29,0.88,0.48,0.25,0.25,0.55,0.83,0.55,0.33,0.48,0.25,0.55,0.33,0.58,0.5,0.33,0.25,0.25,0.55,0.33,0.58,0.55,0.6,0.56,0.58,0.25,0.55,0.33,0.58,0.48,0.25,0.55,0.34,0.71,0.61,0.25,0.55,0.55,0.33,0.25,0.55,0.61,0.33,0.52,0.56,0.79,0.68,0.71,0.25,0.55,0.29,0.42,0.25,0.55,0.4,0.48,0.29,0.5,0.33,0.29,0.56,0.48,0.29,0.56,0.25,0.55,0.29,0.55,0.83,0.25,0.25,0.55,0.33,0.58,0.48,0.25,0.55,0.44,0.55,0.6,0.29,0.55,0.88,0.55,0.29,0.44,0.25" style="fill:rgb(0,0,0);font-family:PalatinoLinotype;font-size:10.02px;stroke:none;">exceptional cyclic lifetime. Note that, though the ICE of B-SFO@C is relatively low, the coulombic </text>
   <text y="741.203" x="76.379,81.184,84.526,87.869,90.79,95.244,98.166,102.971,108.807,113.189,118.768,121.273,122.068,126.522,131.537,137.297,139.802,140.597,144.56,149.575,155.602,158.524,164.585,167.525,173.101,176.341,179.263,185.099,189.553,193.516,198.256,203.296,207.55,212.355,215.595,218.867,224.343,227.583,232.598,237.613,246.033,249.273,252.195,257.954,260.459,261.255,264.527,270.363,275.168,277.673,278.468,282.722,287.527,291.981,297.418,303.252,309.376,311.881,312.676,317.058,322.637,327.088,330.006,334.808,338.048,343.06,348.894,355.017,357.522,358.318,362.7,367.74,373.573,376.813,380.773,385.575,394.397,399.437,402.356,408.189,410.694,411.49,416.962,422.625,427.365,431.324,434.564,439.576,444.588,453.006,456.246,459.165,464.998,467.503,468.298,472.5,478.56,484.077,488.339,493.079,498.718,504.761,509.563,515.322,518.56" svgx:width="0.48,0.33,0.33,0.29,0.44,0.29,0.48,0.58,0.44,0.56,0.25,0.55,0.44,0.5,0.58,0.25,0.55,0.4,0.5,0.6,0.29,0.61,0.29,0.56,0.25,0.29,0.58,0.44,0.4,0.48,0.5,0.42,0.48,0.25,0.33,0.55,0.25,0.5,0.5,0.84,0.25,0.29,0.58,0.25,0.55,0.33,0.58,0.48,0.25,0.55,0.42,0.48,0.44,0.55,0.58,0.61,0.25,0.55,0.44,0.56,0.44,0.29,0.48,0.25,0.5,0.58,0.61,0.25,0.55,0.44,0.5,0.58,0.25,0.4,0.48,0.88,0.5,0.29,0.58,0.25,0.55,0.55,0.56,0.48,0.4,0.25,0.5,0.5,0.84,0.25,0.29,0.58,0.25,0.55,0.42,0.6,0.55,0.42,0.48,0.56,0.6,0.48,0.58,0.33,0.25" style="fill:rgb(0,0,0);font-family:PalatinoLinotype;font-size:10.02px;stroke:none;">efficiency can rapidly increase to 92% in the second cycle and can remain over 98% in subsequent </text>
   <text y="754.703" x="76.379,80.336,86.375,92.205,96.451,98.955,101.656,109.989,115.458,123.811,128.609,134.19,138.989,142.946,145.45,148.15,153.689,159.158,162.423,168.182,170.882,174.148,179.977,184.716,187.417,193.478,196.839,202.097,207.666,215.465,218.165,223.173,229.002,235.064,237.764,243.884,247.219,252.478,260.35,267.191,274.293,276.993,281.791,284.705,289.503,293.885,297.15,301.106,306.575,312.637,317.435,321.681,324.382,329.85,335.68,338.594,344.163,346.864,352.382,355.322,360.981,365.779,368.479,371.744,377.574,382.371,385.072,391.191,395.989,400.436,405.444,411.013,413.928,419.687,425.256,427.956,432.338,437.917,442.364,445.279,448.194,453.953,459.522,462.222,468.242,473.039,476.939,480.3,485.769,489.669,498.513,503.521,509.35,513.797,518.595" svgx:width="0.4,0.6,0.58,0.42,0.25,0.25,0.83,0.55,0.83,0.48,0.56,0.48,0.4,0.25,0.25,0.55,0.55,0.33,0.58,0.25,0.33,0.58,0.48,0.25,0.61,0.33,0.52,0.56,0.79,0.25,0.5,0.58,0.61,0.25,0.61,0.33,0.52,0.79,0.68,0.71,0.25,0.48,0.29,0.48,0.44,0.33,0.4,0.55,0.61,0.48,0.42,0.25,0.55,0.58,0.29,0.56,0.25,0.56,0.29,0.56,0.48,0.25,0.33,0.58,0.48,0.25,0.61,0.48,0.44,0.5,0.56,0.29,0.58,0.56,0.25,0.44,0.56,0.44,0.29,0.29,0.58,0.56,0.25,0.6,0.48,0.4,0.33,0.55,0.4,0.88,0.5,0.58,0.44,0.48,0.25" style="fill:rgb(0,0,0);font-family:PalatinoLinotype;font-size:10.02px;stroke:none;">runs. However, both the B-SFO and B-SO@C electrodes only give the decaying cycling performance </text>
   <text y="768.203" x="76.379,81.824,87.459,92.233,96.165,98.145,103.129,108.169,113.153,115.133,119.556,125.101,129.524,132.464,137.238,141.46,143.44,151.77,154.66,157.959,163.778,165.698,170.738,172.718,177.141,182.181,188.177,193.217,197.64,200.58,203.878,209.397,211.377,216.822,220.182,222.102,227.086,232.126,234.046,239.086,244.906,251.001,252.921,257.905,262.945,267.929,269.91,278.73,286.498,292.303,294.283" svgx:width="0.55,0.56,0.48,0.4,0.25,0.5,0.5,0.5,0.25,0.44,0.56,0.44,0.29,0.48,0.42,0.25,0.83,0.29,0.33,0.58,0.25,0.5,0.25,0.44,0.5,0.6,0.5,0.44,0.29,0.33,0.56,0.25,0.55,0.33,0.25,0.5,0.5,0.25,0.5,0.58,0.61,0.25,0.5,0.5,0.5,0.25,0.88,0.78,0.58,0.25,0.56" style="fill:rgb(0,0,0);font-family:PalatinoLinotype;font-size:10.02px;stroke:none;">over 100 cycles with a capacity of 51 and 488 mAh g</text>
   <text y="765.684" x="299.939,302.939" svgx:width="0.5,0.5" style="fill:rgb(0,0,0);font-family:PalatinoLinotype;font-size:6.0px;stroke:none;">−1</text>
   <text y="768.204" x="305.879,308.371,310.351,314.295,319.081,323.316,329.323,334.109,338.544,341.797,344.737,350.384,355.17,358.109,363.628,366.12,368.1,372.536,377.992,383.81,388.245,393.701,402.533,405.473,408.711,413.751,419.571,422.824,424.804,433.145,436.048,439.301,445.119,447.099,452.139,454.119,458.554,464.011,467.955,471.899,476.685,480.92,486.927,492.384,498.201,504.309,507.249,513.068,518.625" svgx:width="0.25,0.25,0.4,0.48,0.42,0.6,0.48,0.44,0.33,0.29,0.56,0.48,0.29,0.56,0.25,0.25,0.44,0.55,0.58,0.44,0.55,0.88,0.29,0.33,0.5,0.58,0.33,0.25,0.83,0.29,0.33,0.58,0.25,0.5,0.25,0.44,0.55,0.4,0.4,0.48,0.42,0.6,0.55,0.58,0.61,0.29,0.58,0.56,0.25" style="fill:rgb(0,0,0);font-family:PalatinoLinotype;font-size:10.02px;stroke:none;">, respectively, concomitant with a corresponding </text>
   <text y="781.704" x="76.38,80.339,85.138,88.406,93.205,98.964,102.263,105.179,110.65,116.409,118.629,124.1,127.437,129.597,138.444,143.243,147.202,152.001,154.918,160.437,162.656,167.666,176.008,178.227,183.237,188.996,195.118,197.338,202.348,207.358,209.864,214.874,223.289,225.795,228.015,234.156,239.988,244.787,246.948,252.969,259.011,262.969,267.769,269.989,274.371,279.411,283.369,288.91,294.381,300.212,302.279,311.101,316.141,319.416,323.316,326.24,331.417,333.636,339.698,344.498,347.377,350.317,355.958,360.698,364.663,368.919,371.078,376.095,378.315,382.771,388.249,394.087,398.289,401.527,406.567,412.405,415.643,417.804,423.322,429.381,432.656,434.816,437.74,443.217,451.58,453.799,458.181,463.221,469.221,474.261,478.643,481.583,484.857,490.376,492.595,498.073,501.373,503.593,508.573,513.553,518.593" svgx:width="0.4,0.48,0.33,0.48,0.58,0.33,0.29,0.55,0.58,0.25,0.55,0.33,0.25,0.88,0.48,0.4,0.48,0.29,0.56,0.25,0.5,0.84,0.25,0.5,0.58,0.61,0.25,0.5,0.5,0.25,0.5,0.84,0.25,0.25,0.61,0.58,0.48,0.25,0.6,0.6,0.4,0.48,0.25,0.44,0.5,0.4,0.55,0.55,0.58,0.25,0.88,0.5,0.33,0.4,0.29,0.52,0.25,0.61,0.48,0.29,0.29,0.56,0.48,0.4,0.42,0.25,0.5,0.25,0.44,0.55,0.58,0.42,0.33,0.5,0.58,0.33,0.25,0.55,0.6,0.33,0.25,0.29,0.55,0.83,0.25,0.44,0.5,0.6,0.5,0.44,0.29,0.33,0.56,0.25,0.55,0.33,0.25,0.5,0.5,0.5,0.25" style="fill:rgb(0,0,0);font-family:PalatinoLinotype;font-size:10.02px;stroke:none;">retention of merely 6% and 68.4%. The pure carbon matrix delivers a constant but low capacity of 232 </text>
   <text y="795.204" x="76.38,85.217,93.001,98.822,100.983" svgx:width="0.88,0.78,0.58,0.25,0.56" style="fill:rgb(0,0,0);font-family:PalatinoLinotype;font-size:10.02px;stroke:none;">mAh g</text>
   <text y="792.684" x="106.559,109.559" svgx:width="0.5,0.5" style="fill:rgb(0,0,0);font-family:PalatinoLinotype;font-size:6.0px;stroke:none;">−1</text>
   <text y="795.204" x="112.559,114.659,119.639,123.0,126.276,131.015,134.983,137.083,142.102,147.082,149.243,153.701,159.281,163.663,166.602,171.411,175.613,177.773,181.119,186.638,189.564,195.083,201.133,205.101,209.909,212.01,217.279,222.259,225.606,228.065,230.226,238.59,244.431,249.239,253.14,257.948,262.967,267.169,269.329,272.606,278.446,283.186,285.346,289.728,294.768,298.735,304.285,309.686,315.505,318.852,322.198,326.165,330.905,335.704,337.865,343.927,347.287,352.556,358.136,365.935,368.035,372.293,377.312,386.167,392.198,395.123,399.863,401.963,406.982,412.532,416.5,422.55,428.49,431.788,434.714,440.232,442.393,448.524,453.263,456.54,461.348,465.248,468.188,473.668,477.568,482.587,485.825,490.634,494.892,497.052,500.353,504.312,509.792,518.647" svgx:width="0.25,0.5,0.33,0.33,0.48,0.4,0.25,0.5,0.5,0.25,0.44,0.56,0.44,0.29,0.48,0.42,0.25,0.33,0.56,0.29,0.56,0.6,0.4,0.48,0.25,0.52,0.5,0.33,0.25,0.25,0.83,0.58,0.48,0.4,0.48,0.5,0.42,0.25,0.33,0.58,0.48,0.25,0.44,0.5,0.4,0.55,0.55,0.58,0.33,0.33,0.4,0.48,0.48,0.25,0.61,0.33,0.52,0.56,0.79,0.25,0.42,0.5,0.88,0.6,0.29,0.48,0.25,0.5,0.55,0.4,0.6,0.6,0.33,0.29,0.56,0.25,0.61,0.48,0.33,0.48,0.4,0.29,0.55,0.4,0.5,0.33,0.48,0.42,0.25,0.33,0.4,0.55,0.88,0.25" style="fill:rgb(0,0,0);font-family:PalatinoLinotype;font-size:10.02px;stroke:none;"> after 50 cycles (Figure S8), whereas the carbon-free B-SFO sample abruptly deteriorates from </text>
   <text y="808.704" x="76.379,80.347,85.826,91.877,97.457,103.297,106.178,111.758,114.638,119.657,124.638,129.657,132.538,135.777,141.239,144.18,149.16,154.202,159.182,162.123,170.946,178.749,184.589,187.53" svgx:width="0.4,0.55,0.6,0.56,0.58,0.29,0.56,0.25,0.5,0.5,0.5,0.25,0.33,0.55,0.25,0.5,0.5,0.5,0.25,0.88,0.78,0.58,0.25,0.56" style="fill:rgb(0,0,0);font-family:PalatinoLinotype;font-size:10.02px;stroke:none;">roughly 800 to 200 mAh g</text>
   <text y="806.184" x="193.079,196.019" svgx:width="0.5,0.5" style="fill:rgb(0,0,0);font-family:PalatinoLinotype;font-size:6.0px;stroke:none;">−1</text>
   <text y="808.704" x="199.019,201.959,208.077,214.116,218.071,220.985,226.813,232.381,235.261,238.595,241.509,245.464,249.71,252.974,255.854,260.861,265.868,268.807,273.254,278.821,283.268,286.181,290.978,295.224,297.727,300.666,305.112,310.58,316.339,319.674,322.587,326.543,335.305,338.244,344.073,349.641,352.52,355.784,361.619,366.628,369.894,372.774,376.04,381.87,386.669,389.608,394.057,399.066,403.023,408.563,414.033,419.863,422.742,426.99,433.031,438.571,442.818,446.085,449.985,454.994,458.26,463.0,465.939,472.06,477.53,482.329,486.576,489.456,498.301,503.31,506.576,509.843,514.641,518.599" svgx:width="0.25,0.61,0.6,0.4,0.29,0.58,0.56,0.25,0.33,0.29,0.4,0.42,0.33,0.25,0.5,0.5,0.25,0.44,0.56,0.44,0.29,0.48,0.42,0.25,0.25,0.44,0.55,0.58,0.33,0.29,0.4,0.88,0.29,0.58,0.56,0.25,0.33,0.58,0.5,0.33,0.25,0.33,0.58,0.48,0.25,0.44,0.5,0.4,0.55,0.55,0.58,0.25,0.42,0.6,0.55,0.42,0.33,0.4,0.5,0.33,0.48,0.25,0.61,0.55,0.48,0.42,0.25,0.88,0.5,0.33,0.33,0.48,0.4,0.25" style="fill:rgb(0,0,0);font-family:PalatinoLinotype;font-size:10.02px;stroke:none;"> during first 30 cycles, confirming that the carbon substrate does matter </text>
  </g>
  <rect style="stroke:blue;stroke-width:0.3;" x="99.899" y="147.914" height="273.36" width="394.8" title="10"/>
  <text y="147.914" class="image" id="image.10.1" width="394" height="273" x="99.899">image.10.1.100_495.148_421</text>
  <rect style="stroke:blue;stroke-width:0.3;" x="99.899" y="421.274" height="136.56" width="394.8" title="10"/>
  <text y="421.274" class="image" id="image.10.2" width="394" height="136" x="99.899">image.10.2.100_495.421_558</text>
  <g begin="text">
   <text y="617.406" x="97.795,102.78,105.766,110.751,116.23,119.718,124.203,126.443,130.926" svgx:width="0.56,0.33,0.56,0.61,0.39,0.5,0.55,0.5,0.25" style="fill:rgb(0,0,0);font-family:URWPalladioL-Bold;font-size:8.97px;stroke:none;">Figure 5.</text>
   <text y="617.406" x="136.316" svgx:width="0.33" style="fill:rgb(0,0,0);font-family:URWPalladioL-Roma;font-size:8.97px;stroke:none;">(</text>
   <text y="617.406" x="139.242" svgx:width="0.5" style="fill:rgb(0,0,0);font-family:URWPalladioL-Bold;font-size:8.97px;stroke:none;">a</text>
   <text y="617.406" x="143.725,146.6851,148.892,151.853,156.967,159.524,162.389,164.946,169.339,171.9403,174.146,179.515,182.072,185.798,189.699,194.813,199.207,202.511,207.396" svgx:width="0.33,0.55,0.34,0.58,0.29,0.33,0.29,0.5,0.29,0.55,0.61,0.29,0.42,0.44,0.58,0.5,0.4,0.56,0.48" style="fill:rgb(0,0,0);font-family:URWPalladioL-Roma;font-size:8.97px;stroke:none;">) Initial discharge</text>
   <text y="617.406" x="211.608" svgx:width="0.29" style="fill:rgb(0,0,0);font-family:Rpxr;font-size:8.97px;stroke:none;">/</text>
   <text y="617.406" x="214.13,218.031,223.146,227.539,230.852,235.737,240.0426,242.187,246.089,251.387,254.858,259.823,264.032,267.7994,269.998,274.796,277.7561,279.971,285.34,288.266,292.88,297.765,304.672,311.236,317.466,319.7085,321.903,327.272,330.198,334.812,341.718,348.282,354.6507,356.762,361.155,366.269,371.7407,373.879,379.248,382.174,386.787,391.673,400.82,405.029,407.586,411.795,415.697,418.561,421.874,426.672,432.041,436.25,440.0174,442.216,446.609,449.5691,451.724,456.117,458.314,462.79900000000004,464.948,474.025" svgx:width="0.44,0.58,0.5,0.4,0.56,0.48,0.55,0.44,0.6,0.4,0.56,0.48,0.42,0.55,0.55,0.33,0.55,0.61,0.33,0.52,0.56,0.79,0.75,0.71,0.25,0.55,0.61,0.33,0.52,0.79,0.75,0.71,0.55,0.5,0.58,0.61,0.55,0.61,0.33,0.52,0.56,0.79,0.48,0.29,0.48,0.44,0.33,0.4,0.55,0.61,0.48,0.42,0.55,0.5,0.33,0.55,0.5,0.25,0.5,0.55,0.78,0.56" style="fill:rgb(0,0,0);font-family:URWPalladioL-Roma;font-size:8.97px;stroke:none;">charge curves of B-SFO@C, B-SO@C and B-SFOelectrodes at 0.2 Ag</text>
   <text y="614.152" x="478.915" svgx:width="0.67" style="fill:rgb(0,0,0);font-family:Pxsy;font-size:6.97px;stroke:none;">−</text>
   <text y="614.152" x="483.58" svgx:width="0.5" style="fill:rgb(0,0,0);font-family:URWPalladioL-Roma;font-size:6.97px;stroke:none;">1</text>
   <text y="617.406" x="489.809,492.366" svgx:width="0.29,0.58" style="fill:rgb(0,0,0);font-family:URWPalladioL-Roma;font-size:8.97px;stroke:none;">in</text>
   <text y="630.228" x="97.795,100.762,106.059,110.3646,112.657,118.126,123.095,126.062,130.422,135.718,138.685,141.334,145.884,148.4853,150.762,154.357,158.908,164.204,169.264,173.5696,175.862,180.832,183.7921,186.101,190.651,192.927,197.477,202.028,206.578,211.128,215.679,217.954,222.43900000000002,224.743,230.158,232.4005,234.663" svgx:width="0.33,0.58,0.48,0.55,0.6,0.55,0.33,0.48,0.58,0.33,0.29,0.5,0.29,0.55,0.4,0.5,0.58,0.56,0.48,0.55,0.55,0.33,0.55,0.5,0.25,0.5,0.5,0.5,0.5,0.5,0.25,0.5,0.55,0.72,0.25,0.55,0.33" style="fill:rgb(0,0,0);font-family:URWPalladioL-Roma;font-size:8.97px;stroke:none;">the potential range of 0.005–3.0 V, (</text>
   <text y="630.228" x="237.697" svgx:width="0.61" style="fill:rgb(0,0,0);font-family:URWPalladioL-Bold;font-size:8.97px;stroke:none;">b</text>
   <text y="630.228" x="243.176,246.1361,248.445,252.486,257.546,261.587,264.235,266.884,270.8308,273.154,278.187,282.546,287.843,292.394,297.536,300.184,305.153,308.74100000000004,310.987,315.537,318.4971,320.743,325.293,327.569,332.05400000000003,334.358,341.3546,343.668" svgx:width="0.33,0.55,0.44,0.56,0.44,0.29,0.29,0.44,0.55,0.55,0.48,0.58,0.5,0.56,0.29,0.55,0.4,0.55,0.5,0.33,0.55,0.5,0.25,0.5,0.55,0.78,0.55,0.56" style="fill:rgb(0,0,0);font-family:URWPalladioL-Roma;font-size:8.97px;stroke:none;">) cyclic behavior at 0.2 A g</text>
   <text y="626.974" x="348.732" svgx:width="0.67" style="fill:rgb(0,0,0);font-family:Pxsy;font-size:6.97px;stroke:none;">−</text>
   <text y="626.974" x="353.398" svgx:width="0.5" style="fill:rgb(0,0,0);font-family:URWPalladioL-Roma;font-size:6.97px;stroke:none;">1</text>
   <text y="630.228" x="359.619,364.169,369.466,374.9377,377.266" svgx:width="0.5,0.58,0.61,0.55,0.33" style="fill:rgb(0,0,0);font-family:URWPalladioL-Roma;font-size:8.97px;stroke:none;">and (</text>
   <text y="630.228" x="380.294" svgx:width="0.44" style="fill:rgb(0,0,0);font-family:URWPalladioL-Bold;font-size:8.97px;stroke:none;">c</text>
   <text y="630.228" x="384.275,387.2351,389.544,393.139,397.69,400.657,404.9626,407.255,411.296,415.846,421.316,425.866,430.899,433.538,436.186,438.835,441.802,446.8252,449.101,452.959,458.447,466.483,474.519,479.07,482.665,487.6882,489.964,494.514" svgx:width="0.33,0.55,0.4,0.5,0.33,0.48,0.55,0.44,0.5,0.6,0.5,0.55,0.29,0.29,0.29,0.33,0.56,0.55,0.42,0.6,0.88,0.88,0.5,0.4,0.56,0.55,0.5,0.33" style="fill:rgb(0,0,0);font-family:URWPalladioL-Roma;font-size:8.97px;stroke:none;">) rate capability summary at</text>
   <text y="643.05" x="97.544,102.696,107.256,110.857,113.511,118.49,123.989,127.7564,130.089,134.138,139.637,143.238,146.676,151.044,156.351,159.3111,161.558,167.13,171.498,176.805,180.671,183.325,186.298,188.951,193.319,197.0864,199.42,202.456,205.894,210.873,218.76659999999998,221.159,225.718,227.998,232.483,234.792,241.7886,244.111" svgx:width="0.56,0.5,0.4,0.29,0.55,0.6,0.42,0.55,0.44,0.6,0.4,0.4,0.48,0.58,0.33,0.55,0.61,0.48,0.58,0.42,0.29,0.33,0.29,0.48,0.42,0.55,0.33,0.4,0.55,0.88,0.55,0.5,0.25,0.5,0.55,0.78,0.55,0.56" style="fill:rgb(0,0,0);font-family:URWPalladioL-Roma;font-size:8.97px;stroke:none;">various current densities from 0.2 A g</text>
   <text y="639.795" x="249.184" svgx:width="0.67" style="fill:rgb(0,0,0);font-family:Pxsy;font-size:6.97px;stroke:none;">−</text>
   <text y="639.795" x="253.85" svgx:width="0.5" style="fill:rgb(0,0,0);font-family:URWPalladioL-Roma;font-size:6.97px;stroke:none;">1</text>
   <text y="643.05" x="260.067,263.04,267.9735,270.253,274.812,277.092,281.577,283.885,290.8816,293.205" svgx:width="0.33,0.55,0.55,0.5,0.25,0.5,0.55,0.78,0.55,0.56" style="fill:rgb(0,0,0);font-family:URWPalladioL-Roma;font-size:8.97px;stroke:none;">to 3.2 A g</text>
   <text y="639.795" x="298.279" svgx:width="0.67" style="fill:rgb(0,0,0);font-family:Pxsy;font-size:6.97px;stroke:none;">−</text>
   <text y="639.795" x="302.944" svgx:width="0.5" style="fill:rgb(0,0,0);font-family:URWPalladioL-Roma;font-size:6.97px;stroke:none;">1</text>
   <text y="643.05" x="309.162,314.141,317.10110000000003,319.412,322.384,327.691,331.129,335.497,339.80260000000004,342.099,346.467,349.121,353.489,357.537,360.51,363.948,368.927,374.498,378.866,382.733,384.9755,387.246,389.9,394.879,400.186,405.256,408.293,411.265,415.633,419.235,427.1286,429.521,434.828,437.482,442.552,447.859,450.896,454.498,459.057,462.03,466.3356,468.632,472.681,477.751,481.799,484.453,487.107,492.414" svgx:width="0.55,0.33,0.55,0.33,0.58,0.4,0.48,0.48,0.55,0.48,0.29,0.48,0.44,0.33,0.4,0.55,0.61,0.48,0.42,0.25,0.55,0.29,0.55,0.58,0.56,0.33,0.33,0.48,0.4,0.88,0.55,0.58,0.29,0.56,0.58,0.33,0.4,0.5,0.33,0.48,0.55,0.44,0.56,0.44,0.29,0.29,0.58,0.56" style="fill:rgb(0,0,0);font-family:URWPalladioL-Roma;font-size:8.97px;stroke:none;">of three electrodes, long-term high-rate cycling</text>
   <text y="655.872" x="97.526,102.915,107.21,110.751,113.737,118.633,122.175,130.092,134.575,139.794,143.775,148.0806,150.311,155.207,158.1671,160.434,163.357,168.576,172.8816,175.112,180.591,183.577,188.284,193.269,200.317,207.015,213.38369999999998,215.614,219.908,222.518,226.813,230.794,233.717,237.097,241.993,247.471,251.7766,254.008,258.491,261.4511,263.655" svgx:width="0.6,0.48,0.4,0.33,0.55,0.4,0.88,0.5,0.58,0.44,0.48,0.55,0.55,0.33,0.55,0.33,0.58,0.48,0.55,0.61,0.33,0.52,0.56,0.79,0.75,0.71,0.55,0.48,0.29,0.48,0.44,0.33,0.4,0.55,0.61,0.48,0.55,0.5,0.33,0.55,0.33" style="fill:rgb(0,0,0);font-family:URWPalladioL-Roma;font-size:8.97px;stroke:none;">performance of the B-SFO@C electrode at (</text>
   <text y="655.872" x="266.639" svgx:width="0.61" style="fill:rgb(0,0,0);font-family:URWPalladioL-Bold;font-size:8.97px;stroke:none;">d</text>
   <text y="655.872" x="272.118,275.0781,277.345,281.83000000000004,284.07,291.0666,293.288" svgx:width="0.33,0.55,0.5,0.55,0.78,0.55,0.56" style="fill:rgb(0,0,0);font-family:URWPalladioL-Roma;font-size:8.97px;stroke:none;">) 1 A g</text>
   <text y="652.617" x="298.272" svgx:width="0.67" style="fill:rgb(0,0,0);font-family:Pxsy;font-size:6.97px;stroke:none;">−</text>
   <text y="652.617" x="302.938" svgx:width="0.5" style="fill:rgb(0,0,0);font-family:URWPalladioL-Roma;font-size:6.97px;stroke:none;">1</text>
   <text y="655.872" x="309.165,313.648,318.867,324.3387,326.587" svgx:width="0.5,0.58,0.61,0.55,0.33" style="fill:rgb(0,0,0);font-family:URWPalladioL-Roma;font-size:8.97px;stroke:none;">and (</text>
   <text y="655.872" x="329.572" svgx:width="0.5" style="fill:rgb(0,0,0);font-family:URWPalladioL-Bold;font-size:8.97px;stroke:none;">e</text>
   <text y="655.872" x="334.055,337.0151,339.282,343.767,346.007,353.0036,355.225" svgx:width="0.33,0.55,0.5,0.55,0.78,0.55,0.56" style="fill:rgb(0,0,0);font-family:URWPalladioL-Roma;font-size:8.97px;stroke:none;">) 3 A g</text>
   <text y="652.617" x="360.21" svgx:width="0.67" style="fill:rgb(0,0,0);font-family:Pxsy;font-size:6.97px;stroke:none;">−</text>
   <text y="652.617" x="364.875" svgx:width="0.5" style="fill:rgb(0,0,0);font-family:URWPalladioL-Roma;font-size:6.97px;stroke:none;">1</text>
   <text y="655.872" x="368.86" svgx:width="0.25" style="fill:rgb(0,0,0);font-family:URWPalladioL-Roma;font-size:8.97px;stroke:none;">.</text>
   <text y="679.206" x="97.795,101.142,106.91879999999999,109.406,114.373,120.442,126.51,129.401,132.639,135.529,140.953,146.733,149.223,151.69,154.928,160.709,165.4898,167.95,170.84,176.263,182.044,187.567,190.874,194.113,198.87,202.794,214.047,218.458,223.98,228.39,231.281,234.171,239.952,245.5296,247.948,253.917,258.675,262.599,265.906,271.329,275.253,284.023,288.99,294.771,299.181,303.939,308.1222,310.633,316.056,319.3428,321.847,325.085,330.866,335.6468,338.097,344.166,347.474,352.688,358.211,366.018,373.438,380.48,382.97,385.446,391.515,394.823,400.037,407.845,415.264,422.3356,424.78,429.746,435.527,441.6026,444.079,450.148,453.456,458.67,464.193,472.0614,474.483,479.241,482.131,486.889,491.299,494.537,498.282,503.705,509.774,514.532" svgx:width="0.34,0.58,0.55,0.5,0.61,0.61,0.29,0.33,0.29,0.55,0.58,0.25,0.55,0.33,0.58,0.48,0.55,0.29,0.55,0.58,0.56,0.33,0.33,0.48,0.4,0.88,0.44,0.56,0.44,0.29,0.29,0.58,0.56,0.55,0.6,0.48,0.4,0.33,0.55,0.4,0.88,0.5,0.58,0.44,0.48,0.42,0.55,0.55,0.33,0.55,0.33,0.58,0.48,0.55,0.61,0.33,0.52,0.56,0.79,0.75,0.71,0.25,0.55,0.61,0.33,0.52,0.79,0.75,0.71,0.55,0.5,0.58,0.61,0.55,0.61,0.33,0.52,0.56,0.79,0.55,0.48,0.29,0.48,0.44,0.33,0.4,0.55,0.61,0.48,0.42" style="fill:rgb(0,0,0);font-family:URWPalladioL-Roma;font-size:9.96px;stroke:none;">In addition, the long-termcycling performances of the B-SFO@C, B-SO@C and B-SFO electrodes</text>
   <text y="692.715" x="76.117,84.451,89.237,93.004,97.7848,100.269,105.265,111.271,117.276,121.223,126.219,129.127,133.364,138.15,144.22560000000001,146.744,151.74,155.0268,157.476,162.472,164.97,169.95,172.445,180.2138,182.707" svgx:width="0.83,0.48,0.4,0.48,0.55,0.5,0.6,0.6,0.4,0.5,0.29,0.42,0.48,0.61,0.55,0.5,0.33,0.55,0.5,0.25,0.5,0.55,0.78,0.55,0.56" style="fill:rgb(0,0,0);font-family:URWPalladioL-Roma;font-size:9.96px;stroke:none;">were appraised at 0.2 A g</text>
   <text y="689.099" x="188.26" svgx:width="0.67" style="fill:rgb(0,0,0);font-family:Pxsy;font-size:7.57px;stroke:none;">−</text>
   <text y="689.099" x="193.325" svgx:width="0.5" style="fill:rgb(0,0,0);font-family:URWPalladioL-Roma;font-size:7.57px;stroke:none;">1</text>
   <text y="692.715" x="200.09,203.417,208.973,211.881,217.437,223.462,227.23" svgx:width="0.33,0.56,0.29,0.56,0.6,0.4,0.48" style="fill:rgb(0,0,0);font-family:URWPalladioL-Roma;font-size:9.96px;stroke:none;">(Figure</text>
   <text y="692.715" x="234.494" svgx:width="0.5" style="fill:rgb(8,117,183);font-family:URWPalladioL-Roma;font-size:9.96px;stroke:none;">5</text>
   <text y="692.715" x="239.49,245.016,248.344,250.834,254.329,260.455,266.27,271.0508,273.535,279.64,282.968,288.214,293.77,301.624,309.088,316.1596,318.661,323.447,326.355,331.142,335.578,338.836,342.603,348.059,354.164,358.9448,361.429,365.865,370.862,376.6388,379.155,387.979,392.975,395.883,401.698,404.956,409.952,412.86,418.6368,421.164,426.144,428.638,434.284,439.07,443.017,448.5946,451.051,455.288,458.546,463.542,469.068,471.976,476.7568,479.25,484.246,490.062,496.1376,498.646,504.461,507.369,512.925" svgx:width="0.55,0.33,0.25,0.55,0.61,0.58,0.48,0.55,0.61,0.33,0.52,0.56,0.79,0.75,0.71,0.55,0.48,0.29,0.48,0.44,0.33,0.4,0.55,0.61,0.48,0.55,0.44,0.5,0.58,0.55,0.88,0.5,0.29,0.58,0.33,0.5,0.29,0.58,0.55,0.5,0.55,0.56,0.48,0.4,0.56,0.55,0.42,0.33,0.5,0.55,0.29,0.48,0.55,0.5,0.58,0.61,0.55,0.58,0.29,0.56,0.58" style="fill:rgb(0,0,0);font-family:URWPalladioL-Roma;font-size:9.96px;stroke:none;">b). The B-SFO@C electrode can maintain a very stable and high</text>
   <text y="706.225" x="76.535,81.047,86.128,92.235,97.316,101.828,104.785,108.098,113.6756,116.735,122.284,125.5708,128.645,133.726,138.807,143.78699999999998,146.875,155.848,163.754,169.5308,172.656" svgx:width="0.44,0.5,0.6,0.5,0.44,0.29,0.33,0.56,0.55,0.55,0.33,0.55,0.5,0.5,0.5,0.55,0.88,0.78,0.58,0.55,0.56" style="fill:rgb(0,0,0);font-family:URWPalladioL-Roma;font-size:9.96px;stroke:none;">capacity of 927 mAh g</text>
   <text y="702.608" x="178.303" svgx:width="0.67" style="fill:rgb(0,0,0);font-family:Pxsy;font-size:7.57px;stroke:none;">−</text>
   <text y="702.608" x="183.368" svgx:width="0.5" style="fill:rgb(0,0,0);font-family:URWPalladioL-Roma;font-size:7.57px;stroke:none;">1</text>
   <text y="706.225" x="190.637,199.112,202.069,205.382,211.1588,214.284,219.26399999999998,222.342,226.651,232.778,237.087,240.4,245.48,248.438,254.352,259.433,265.052,268.009,272.7898,275.864,279.695,284.563,287.876,292.743,298.657,301.97,304.927,310.476,316.2528,319.377,324.926,328.2128,331.297,336.378,341.459,344.0,349.081,357.4474,360.594,365.461,371.203,376.07,381.8468,384.972,390.053,393.437,396.75,401.617,405.601,408.619,413.7,418.781,423.761,426.839,431.351,437.001,441.513,444.47,449.337,453.646,456.136,459.296,462.253,468.167,474.376,477.333,481.845,486.926,490.239,493.196,499.11,504.68760000000003,507.748,512.829" svgx:width="0.83,0.29,0.33,0.58,0.55,0.5,0.55,0.42,0.6,0.42,0.33,0.5,0.29,0.58,0.5,0.55,0.29,0.48,0.55,0.4,0.48,0.33,0.48,0.58,0.33,0.29,0.55,0.58,0.55,0.55,0.33,0.55,0.5,0.5,0.25,0.5,0.84,0.55,0.48,0.56,0.48,0.58,0.55,0.5,0.33,0.33,0.48,0.4,0.55,0.5,0.5,0.5,0.55,0.44,0.56,0.44,0.29,0.48,0.42,0.25,0.55,0.29,0.58,0.61,0.29,0.44,0.5,0.33,0.29,0.58,0.56,0.55,0.5,0.58" style="fill:rgb(0,0,0);font-family:URWPalladioL-Roma;font-size:9.96px;stroke:none;">with a sustainable retention of 95.1% even after 100 cycles, indicating an</text>
   <text y="719.734" x="76.535,81.403,86.646,91.158,96.025,102.133,105.445,108.403,113.951,119.865,124.946,127.8344,130.759,135.271,140.921,145.432,148.389,151.347,155.7294,158.724,161.681,164.638,168.022,172.89,176.202,179.16,188.132,193.0,195.49,200.134,208.578,214.126,217.439,222.2198,225.162,228.475,234.389,239.47,242.783,245.273,248.28,251.593,257.507,263.056,269.183,274.833,280.6098,283.603,286.916,292.83,297.6108,300.553,303.977,311.182,317.2576,320.257,325.805,329.09180000000003,332.044,338.253,341.637,346.972,352.622,360.609,368.2,375.2716,378.261,381.218,385.4012,388.392,392.223,397.09,400.048,405.128,408.441,411.398,417.14,422.007,424.964,430.5416,433.48,436.437,441.985,449.536,452.026,455.033,458.346,464.26,469.0408,471.983,476.495,482.043,488.171,491.128,496.677,505.649,511.269,514.226" svgx:width="0.48,0.52,0.44,0.48,0.6,0.33,0.29,0.55,0.58,0.5,0.29,0.55,0.44,0.56,0.44,0.29,0.29,0.44,0.55,0.29,0.29,0.33,0.48,0.33,0.29,0.88,0.48,0.25,0.55,0.83,0.55,0.33,0.48,0.55,0.33,0.58,0.5,0.33,0.25,0.55,0.33,0.58,0.55,0.6,0.56,0.58,0.55,0.33,0.58,0.48,0.55,0.34,0.71,0.61,0.55,0.55,0.33,0.55,0.61,0.33,0.52,0.56,0.79,0.75,0.71,0.55,0.29,0.42,0.55,0.4,0.48,0.29,0.5,0.33,0.29,0.56,0.48,0.29,0.56,0.55,0.29,0.55,0.83,0.25,0.55,0.33,0.58,0.48,0.55,0.44,0.55,0.6,0.29,0.55,0.88,0.55,0.29,0.44" style="fill:rgb(0,0,0);font-family:URWPalladioL-Roma;font-size:9.96px;stroke:none;">exceptional cyclic lifetime. Note that, though the ICE of B-SFO@C is relatively low, the coulombic</text>
   <text y="733.243" x="76.535" svgx:width="0.48" style="fill:rgb(0,0,0);font-family:URWPalladioL-Roma;font-size:9.96px;stroke:none;">e</text>
   <text y="733.243" x="81.212" svgx:width="0.92" style="fill:rgb(0,0,0);font-family:Rpxr;font-size:9.96px;stroke:none;">ﬃ</text>
   <text y="733.243" x="90.184,94.519,97.36,102.037,107.719,112.054,117.6316,119.982,124.317,129.198,134.97480000000002,137.38,141.237,146.118,151.986,154.827,160.793,163.634,169.21159999999998,171.562,174.403,180.085,184.42,188.091,192.768,197.649,201.789,206.5698,208.965,212.148,217.626,219.978,224.86,229.741,240.442,243.283,249.0598,251.465,254.648,260.33,265.1108,267.506,271.646,276.322,280.657,285.988,291.67,297.7456,300.135,304.47,309.898,314.233,317.074,321.8548,324.251,329.132,334.814,340.88960000000003,343.279,347.614,352.496,358.27279999999996,360.678,364.349,369.025,377.646,382.528,385.369,391.1458,393.551,398.882,404.398,409.075,413.05899999999997,415.43,420.312,425.194,435.894,438.736,444.51279999999997,446.917,451.057,456.944,462.343,466.483,471.16,476.627,482.514,487.191,492.873,496.1598,498.556,502.334,508.221,513.904,518.043" svgx:width="0.44,0.29,0.48,0.58,0.44,0.56,0.55,0.44,0.5,0.58,0.55,0.4,0.5,0.6,0.29,0.61,0.29,0.56,0.55,0.29,0.58,0.44,0.4,0.48,0.5,0.42,0.48,0.55,0.33,0.55,0.55,0.5,0.5,0.84,0.29,0.58,0.55,0.33,0.58,0.48,0.55,0.42,0.48,0.44,0.55,0.58,0.61,0.55,0.44,0.56,0.44,0.29,0.48,0.55,0.5,0.58,0.61,0.55,0.44,0.5,0.58,0.55,0.4,0.48,0.88,0.5,0.29,0.58,0.55,0.55,0.56,0.48,0.4,0.55,0.5,0.5,0.84,0.29,0.58,0.55,0.42,0.6,0.55,0.42,0.48,0.56,0.6,0.48,0.58,0.33,0.55,0.4,0.6,0.58,0.42,0.25" style="fill:rgb(0,0,0);font-family:URWPalladioL-Roma;font-size:9.96px;stroke:none;">ciency can rapidly increase to 92%in the second cycle and can remain over 98%in subsequent runs.</text>
   <text y="746.753" x="76.535,84.973,90.511,98.969,103.827,109.557,114.415,117.681,120.17099999999999,122.711,128.32,133.857,137.163,142.93980000000002,145.551,148.857,154.76,159.5408,162.113,168.309,171.687,177.011,182.65,190.5184,193.106,198.177,204.08,210.15560000000002,212.772,218.968,222.345,227.67,235.642,243.218,250.28959999999998,252.893,257.751,260.702,265.56,270.063,273.37,277.193,282.731,288.927,293.785,297.9682,300.58,306.118,312.02,314.972,320.5496,323.095,328.734,331.686,337.416,342.1968,344.769,348.075,353.978,358.7588,361.32,367.517,372.375,376.878,381.949,387.588,390.539,396.442,402.0196,404.565,409.068,414.707,419.21,422.162,425.113,431.016,436.59360000000004,439.149,445.245,450.103,454.109,457.486,463.023,467.03,475.985,481.056,486.958,491.461,496.2418,498.804,504.342,510.072,514.93" svgx:width="0.83,0.55,0.83,0.48,0.56,0.48,0.4,0.25,0.55,0.55,0.55,0.33,0.58,0.55,0.33,0.58,0.48,0.55,0.61,0.33,0.52,0.56,0.79,0.55,0.5,0.58,0.61,0.55,0.61,0.33,0.52,0.79,0.75,0.71,0.55,0.48,0.29,0.48,0.44,0.33,0.4,0.55,0.61,0.48,0.42,0.55,0.55,0.58,0.29,0.56,0.55,0.56,0.29,0.56,0.48,0.55,0.33,0.58,0.48,0.55,0.61,0.48,0.44,0.5,0.56,0.29,0.58,0.56,0.55,0.44,0.56,0.44,0.29,0.29,0.58,0.56,0.55,0.6,0.48,0.4,0.33,0.55,0.4,0.88,0.5,0.58,0.44,0.48,0.55,0.55,0.56,0.48,0.4" style="fill:rgb(0,0,0);font-family:URWPalladioL-Roma;font-size:9.96px;stroke:none;">However, both the B-SFO and B-SO@C electrodes only give the decaying cycling performance over</text>
   <text y="760.262" x="76.037,81.118,86.199,91.179,94.176,98.688,104.338,108.85,111.807,116.674,120.8572,123.889,132.364,135.321,138.634,144.4108,147.444,152.42399999999998,155.421,159.933,165.014,171.121,176.202,180.714,183.671,186.984,192.5616,195.54,201.089,204.3758,207.369,212.45,217.42999999999998,220.427,225.508,231.422,237.4976,240.537,245.618,250.699,255.679,258.676,267.649,275.555,281.3318,284.375" svgx:width="0.5,0.5,0.5,0.55,0.44,0.56,0.44,0.29,0.48,0.42,0.55,0.83,0.29,0.33,0.58,0.55,0.5,0.55,0.44,0.5,0.6,0.5,0.44,0.29,0.33,0.56,0.55,0.55,0.33,0.55,0.5,0.5,0.55,0.5,0.58,0.61,0.55,0.5,0.5,0.5,0.55,0.88,0.78,0.58,0.55,0.56" style="fill:rgb(0,0,0);font-family:URWPalladioL-Roma;font-size:9.96px;stroke:none;">100 cycles with a capacity of 51 and 488 mAh g</text>
   <text y="756.646" x="290.021" svgx:width="0.67" style="fill:rgb(0,0,0);font-family:Pxsy;font-size:7.57px;stroke:none;">−</text>
   <text y="756.646" x="295.086" svgx:width="0.5" style="fill:rgb(0,0,0);font-family:URWPalladioL-Roma;font-size:7.57px;stroke:none;">1</text>
   <text y="760.262" x="299.37,301.86,304.908,308.749,313.617,317.926,324.033,328.9,333.412,336.725,339.682,345.423,350.291,353.248,357.79,360.28000000000003,363.329,367.841,373.389,379.303,383.815,389.363,398.336,401.293,404.606,409.687,415.601,418.8878,421.82,430.295,433.252,436.565,442.3418,445.375,450.355,453.352,457.864,463.413,467.427,471.268,476.135,480.444,486.551,492.1,498.014,504.223,507.18,513.094" svgx:width="0.25,0.55,0.4,0.48,0.42,0.6,0.48,0.44,0.33,0.29,0.56,0.48,0.29,0.56,0.25,0.55,0.44,0.55,0.58,0.44,0.55,0.88,0.29,0.33,0.5,0.58,0.33,0.55,0.83,0.29,0.33,0.58,0.55,0.5,0.55,0.44,0.55,0.4,0.4,0.48,0.42,0.6,0.55,0.58,0.61,0.29,0.58,0.56" style="fill:rgb(0,0,0);font-family:URWPalladioL-Roma;font-size:9.96px;stroke:none;">, respectively, concomitant with a corresponding</text>
  </g>
 </g>
</svg>
