<?xml version="1.0" encoding="UTF-8"?>
<svg height="753.429" width="530.3404999999999" xmlns="http://www.w3.org/2000/svg">
 <g id="page" xmlns:svgx="http://www.xml-cml.org/schema/svgx">
  <g begin="text">
   <text y="62.979" x="76.535,82.736,86.274,90.706,94.245,100.445,103.984,106.638,109.738,112.839,115.055,118.593,120.809" svgx:width="0.78,0.44,0.56,0.44,0.78,0.44,0.33,0.39,0.39,0.28,0.44,0.28,0.39" style="fill:rgb(0,0,0);font-family:URWPalladioL-Ital;font-size:7.97px;stroke:none;">Nanomaterials</text>
   <text y="62.979" x="125.901,129.886,133.871,137.856" svgx:width="0.5,0.5,0.5,0.5" style="fill:rgb(0,0,0);font-family:URWPalladioL-Bold;font-size:7.97px;stroke:none;">2020</text>
   <text y="62.979" x="141.842" svgx:width="0.25" style="fill:rgb(0,0,0);font-family:URWPalladioL-Roma;font-size:7.97px;stroke:none;">,</text>
   <text y="62.979" x="145.827,149.812" svgx:width="0.5,0.5" style="fill:rgb(0,0,0);font-family:URWPalladioL-Ital;font-size:7.97px;stroke:none;">10</text>
   <text y="62.979" x="153.797,155.7895,157.782,161.767,165.752,169.73700000000002,491.809,495.794,499.779,501.772,506.123,508.7531,510.77,514.755" svgx:width="0.25,0.55,0.5,0.5,0.5,0.55,0.5,0.5,0.55,0.55,0.33,0.55,0.5,0.5" style="fill:rgb(0,0,0);font-family:URWPalladioL-Roma;font-size:7.97px;stroke:none;">, 249 18 of 19</text>
   <text y="97.848" x="76.535,81.018,85.501,87.74350000000001,98.05,105.361,110.659,112.90150000000001,114.491,120.352,122.548,124.79050000000001,126.573,134.534,138.927,144.042,148.927,151.1695,152.758,159.463,161.66,163.9025,165.693,173.654,178.048,183.162,188.047,190.2895,191.87,197.238,199.435,201.6775,203.469,208.837,211.394,216.693,218.93550000000002,220.524,226.385,228.582,230.8245,232.606,240.568,244.961,250.075,254.961,257.2035,258.792,266.103,268.3455,269.925,276.155" svgx:width="0.5,0.5,0.25,0.55,0.83,0.6,0.25,0.55,0.67,0.25,0.25,0.55,1.0,0.5,0.58,0.56,0.25,0.55,0.76,0.25,0.25,0.55,1.0,0.5,0.58,0.56,0.25,0.55,0.61,0.25,0.25,0.55,0.61,0.29,0.6,0.25,0.55,0.67,0.25,0.25,0.55,1.0,0.5,0.58,0.56,0.25,0.55,0.83,0.25,0.55,0.71,0.55" style="fill:rgb(0,0,0);font-family:URWPalladioL-Roma;font-size:8.97px;stroke:none;">37. Hu, X.; Wang, G.; Wang, B.; Liu, X.; Wang, H. Co</text>
   <text y="99.64" x="280.957" svgx:width="0.5" style="fill:rgb(0,0,0);font-family:URWPalladioL-Roma;font-size:6.97px;stroke:none;">3</text>
   <text y="97.848" x="284.942,289.555" svgx:width="0.52,0.58" style="fill:rgb(0,0,0);font-family:URWPalladioL-Roma;font-size:8.97px;stroke:none;">Sn</text>
   <text y="99.64" x="294.669" svgx:width="0.5" style="fill:rgb(0,0,0);font-family:URWPalladioL-Roma;font-size:6.97px;stroke:none;">2</text>
   <text y="97.848" x="298.654" svgx:width="0.29" style="fill:rgb(0,0,0);font-family:Rpxr;font-size:8.97px;stroke:none;">/</text>
   <text y="97.848" x="301.176,305.789,310.903" svgx:width="0.52,0.58,0.79" style="fill:rgb(0,0,0);font-family:URWPalladioL-Roma;font-size:8.97px;stroke:none;">SnO</text>
   <text y="99.64" x="317.81" svgx:width="0.5" style="fill:rgb(0,0,0);font-family:URWPalladioL-Roma;font-size:6.97px;stroke:none;">2</text>
   <text y="97.848" x="323.425,328.539,332.748,335.613,339.822,343.134,347.932,351.658,354.522,357.914,363.213,367.114,369.979,375.278,378.59,382.799,386.5664,388.159,393.019,398.317,400.874,403.431,408.8,411.357,416.471,422.983,428.351,433.149,438.448,443.307,445.864,450.1696,451.707,455.433,460.547,464.756,467.313,469.91429999999997,471.496,479.255,481.812,485.713,489.026,493.824,496.75,500.651,505.95,510.809,515.018" svgx:width="0.58,0.48,0.33,0.48,0.4,0.55,0.42,0.33,0.4,0.6,0.44,0.33,0.6,0.4,0.48,0.42,0.55,0.55,0.6,0.29,0.29,0.61,0.29,0.58,0.56,0.61,0.55,0.6,0.55,0.29,0.48,0.55,0.42,0.58,0.48,0.29,0.29,0.55,0.88,0.29,0.44,0.4,0.55,0.33,0.44,0.6,0.55,0.48,0.42" style="fill:rgb(0,0,0);font-family:URWPalladioL-Roma;font-size:8.97px;stroke:none;">heterostructures buildingdouble shell micro-cubes</text>
   <text y="110.76" x="97.674,105.002,108.473,112.867,118.148,123.429,127.638,133.1097,134.843,137.4,142.6026,144.351,147.216,152.33,155.634,159.843,164.052,166.978,172.347,174.904,182.663,186.872,191.986,195.711,198.268,203.066,208.18,212.574,215.17530000000002,216.967,221.853,225.324,229.717,234.998,240.112,244.321,249.436,253.7416,255.481,263.24,267.634,270.498,273.969,276.526,281.1904,282.897,287.29,291.05740000000003,292.852,298.133,301.446,306.244,314.003,316.56,320.286,322.843,327.957,332.98019999999997,334.67,339.064,344.178,348.975,354.344,358.6496,360.39,368.149,372.542,375.407,379.616,383.087,385.644,390.037,392.594,396.3614,398.157,401.083,405.88,409.468,411.188,413.745,416.302,419.166,424.28,426.838,432.136,439.895,442.821,445.378,450.176,455.3786,457.127,461.52,466.634,472.1057,473.84,477.565,482.363,487.732,490.289,495.587,503.346,506.273,508.83,513.627" svgx:width="0.83,0.4,0.5,0.6,0.6,0.48,0.61,0.55,0.29,0.58,0.55,0.33,0.58,0.4,0.48,0.48,0.33,0.61,0.29,0.88,0.48,0.58,0.42,0.29,0.55,0.58,0.5,0.29,0.55,0.56,0.4,0.5,0.6,0.58,0.48,0.58,0.48,0.55,0.88,0.5,0.33,0.4,0.29,0.52,0.55,0.5,0.42,0.55,0.6,0.4,0.55,0.88,0.29,0.42,0.29,0.58,0.56,0.55,0.5,0.58,0.55,0.61,0.48,0.55,0.88,0.5,0.33,0.48,0.4,0.29,0.5,0.29,0.42,0.55,0.33,0.55,0.4,0.55,0.29,0.29,0.33,0.58,0.29,0.6,0.88,0.33,0.29,0.55,0.58,0.55,0.5,0.58,0.61,0.55,0.42,0.55,0.61,0.29,0.6,0.88,0.33,0.29,0.55,0.58" style="fill:rgb(0,0,0);font-family:URWPalladioL-Roma;font-size:8.97px;stroke:none;">wrapped in three-dimensional graphene matrix as promising anode materials for lithium-ion and sodium-ion</text>
   <text y="123.672" x="98.05,103.008,107.492,110.415,113.338,117.633,121.174,123.784,128.078,131.88" svgx:width="0.55,0.5,0.33,0.33,0.48,0.4,0.29,0.48,0.42,0.25" style="fill:rgb(0,0,0);font-family:URWPalladioL-Roma;font-size:8.97px;stroke:none;">batteries.</text>
   <text y="123.672" x="137.26,143.241,147.724,151.212,158.188,160.4305,163.567,169.046,174.031,178.514,180.75650000000002,183.894,186.88" svgx:width="0.67,0.5,0.39,0.78,0.25,0.55,0.61,0.56,0.5,0.25,0.55,0.33,0.25" style="fill:rgb(0,0,0);font-family:URWPalladioL-Ital;font-size:8.97px;stroke:none;">Chem. Eng. J.</text>
   <text y="123.672" x="191.363,195.846,200.329,204.813" svgx:width="0.5,0.5,0.5,0.5" style="fill:rgb(0,0,0);font-family:URWPalladioL-Bold;font-size:8.97px;stroke:none;">2019</text>
   <text y="123.672" x="209.295" svgx:width="0.25" style="fill:rgb(0,0,0);font-family:URWPalladioL-Roma;font-size:8.97px;stroke:none;">,</text>
   <text y="123.672" x="213.779,218.262,222.745" svgx:width="0.5,0.5,0.5" style="fill:rgb(0,0,0);font-family:URWPalladioL-Ital;font-size:8.97px;stroke:none;">355</text>
   <text y="123.672" x="227.228,229.47050000000002,231.711,236.194,240.678,245.161,249.644,254.127,258.61,263.094,265.3365,268.473" svgx:width="0.25,0.55,0.5,0.5,0.5,0.5,0.5,0.5,0.5,0.25,0.55,0.33" style="fill:rgb(0,0,0);font-family:URWPalladioL-Roma;font-size:8.97px;stroke:none;">, 986–998. [</text>
   <text y="123.672" x="271.459,277.816,281.197,286.092,289.894,293.696,299.686,303.98" svgx:width="0.71,0.4,0.55,0.42,0.42,0.67,0.48,0.33" style="fill:rgb(8,117,183);font-family:URWPalladioL-Roma;font-size:8.97px;stroke:none;">CrossRef</text>
   <text y="123.672" x="306.966" svgx:width="0.33" style="fill:rgb(0,0,0);font-family:URWPalladioL-Roma;font-size:8.97px;stroke:none;">]</text>
   <text y="136.583" x="76.535,81.018,85.501,87.74350000000001,98.05,104.534,109.857,114.851,117.512,119.75450000000001,122.643,125.688,127.975,130.2175,133.407,142.059,147.144,152.659,157.982,163.067,165.3095,168.198,173.301,175.587,177.8295,181.02,187.998,193.513,195.7555,198.644,207.296,209.582,216.551,218.838,221.0805,224.27,230.91,233.571,241.647,243.8895,246.778,251.579,253.866,256.911,263.551,265.7935,268.682,276.282,280.855,286.178,291.171,296.494,301.579,306.637,310.249,312.911,318.3827,321.343,325.724,328.385,332.766,336.827,339.808,343.256,348.25,353.838,358.219,361.9864,364.941,369.934,372.89410000000004,375.824,381.321,386.314,389.762,394.756,400.271,404.0384,406.993,412.316,417.309,419.971,422.632,427.625,435.0701,438.097,442.899,448.222" svgx:width="0.5,0.5,0.25,0.55,0.71,0.58,0.55,0.29,0.25,0.55,0.33,0.25,0.25,0.55,0.95,0.56,0.6,0.58,0.56,0.25,0.55,0.67,0.25,0.25,0.55,0.76,0.6,0.25,0.55,0.95,0.25,0.76,0.25,0.25,0.55,0.73,0.29,0.88,0.25,0.55,0.52,0.25,0.33,0.73,0.25,0.55,0.83,0.5,0.58,0.55,0.58,0.56,0.55,0.4,0.29,0.61,0.55,0.48,0.29,0.48,0.44,0.33,0.4,0.55,0.61,0.48,0.42,0.55,0.55,0.33,0.55,0.6,0.55,0.4,0.55,0.6,0.42,0.55,0.58,0.55,0.29,0.29,0.55,0.83,0.55,0.52,0.58,0.79" style="fill:rgb(0,0,0);font-family:URWPalladioL-Roma;font-size:8.97px;stroke:none;">38. Choi, J.; Myung, Y.; Gu, M.G.; Kim, S.-K. Nanohybrid electrodes of porous hollow SnO</text>
   <text y="138.375" x="455.411" svgx:width="0.5" style="fill:rgb(0,0,0);font-family:URWPalladioL-Roma;font-size:6.97px;stroke:none;">2</text>
   <text y="136.583" x="462.239,466.812,472.135,477.6067,480.567,485.652,489.265,493.838,499.334,504.657,509.038,514.361" svgx:width="0.5,0.58,0.61,0.55,0.56,0.4,0.5,0.6,0.58,0.48,0.58,0.48" style="fill:rgb(0,0,0);font-family:URWPalladioL-Roma;font-size:8.97px;stroke:none;">and graphene</text>
   <text y="149.495" x="98.05,102.533,106.828,110.208,115.104,120.089,124.384,126.9853,129.235,132.221,137.117,140.70499999999998,142.9,145.509,148.118,151.041,156.26,158.869,164.276,174.435,177.044,181.94,187.1426,189.4,194.358,198.841,201.764,204.687,208.982,212.524,217.5472,219.751,224.234,229.453,234.348,239.827,244.122,247.923" svgx:width="0.5,0.48,0.4,0.55,0.56,0.48,0.29,0.55,0.33,0.55,0.4,0.55,0.29,0.29,0.33,0.58,0.29,0.6,0.88,0.29,0.55,0.58,0.55,0.55,0.5,0.33,0.33,0.48,0.4,0.56,0.55,0.5,0.58,0.55,0.61,0.48,0.42,0.25" style="fill:rgb(0,0,0);font-family:URWPalladioL-Roma;font-size:8.97px;stroke:none;">aerogel for lithiumion battery anodes.</text>
   <text y="149.495" x="253.301,256.287,258.5295,260.77,263.756,268.741,273.224,275.4665,278.604,284.083,289.068,293.551,295.7935,298.931,304.912,309.395,312.883,319.859" svgx:width="0.33,0.25,0.55,0.33,0.56,0.5,0.25,0.55,0.61,0.56,0.5,0.25,0.55,0.67,0.5,0.39,0.78,0.25" style="fill:rgb(0,0,0);font-family:URWPalladioL-Ital;font-size:8.97px;stroke:none;">J. Ind. Eng. Chem.</text>
   <text y="149.495" x="325.238,329.721,334.204,338.688" svgx:width="0.5,0.5,0.5,0.5" style="fill:rgb(0,0,0);font-family:URWPalladioL-Bold;font-size:8.97px;stroke:none;">2019</text>
   <text y="149.495" x="343.171" svgx:width="0.25" style="fill:rgb(0,0,0);font-family:URWPalladioL-Roma;font-size:8.97px;stroke:none;">,</text>
   <text y="149.495" x="347.654,352.137" svgx:width="0.5,0.5" style="fill:rgb(0,0,0);font-family:URWPalladioL-Ital;font-size:8.97px;stroke:none;">71</text>
   <text y="149.495" x="356.62,358.8625,361.103,365.586,370.07,374.553,379.036,383.519,388.003,392.486,394.7285,397.866" svgx:width="0.25,0.55,0.5,0.5,0.5,0.5,0.5,0.5,0.5,0.25,0.55,0.33" style="fill:rgb(0,0,0);font-family:URWPalladioL-Roma;font-size:8.97px;stroke:none;">, 345–350. [</text>
   <text y="149.495" x="400.851,407.209,410.589,415.485,419.286,423.088,429.078,433.372" svgx:width="0.71,0.4,0.55,0.42,0.42,0.67,0.48,0.33" style="fill:rgb(8,117,183);font-family:URWPalladioL-Roma;font-size:8.97px;stroke:none;">CrossRef</text>
   <text y="149.495" x="436.358" svgx:width="0.33" style="fill:rgb(0,0,0);font-family:URWPalladioL-Roma;font-size:8.97px;stroke:none;">]</text>
   <text y="162.406" x="76.535,81.018,85.501,87.74350000000001,98.05,104.886,109.684,111.9265,113.946,119.807,122.004,124.24650000000001,126.318,129.244,131.801,136.195,141.309,146.194,148.4365,150.447,153.373,155.57,157.8125,159.893,165.763,171.062,175.455,180.569,182.8115,184.822,189.69,191.887,194.1295,196.202,201.57,204.128,206.3705,208.389,214.25,216.447,218.6895,220.761,226.622,231.736,236.13,241.244,246.13,248.3725,250.391,255.259,257.456,259.6985,261.771,266.384,271.682,276.797,279.03950000000003,281.058,283.984,286.181,288.4235,290.496,298.457,302.85,307.964,312.85,315.09250000000003,317.112,323.342,325.5845,327.595,334.906,339.703,344.817,349.026,353.912,357.813,362.611,370.37,375.229,378.155,380.713,385.827,389.552,394.833,397.39,400.703,404.912,410.3837,412.337,417.706,421.915,425.641,428.198,433.083,438.28560000000004,440.263,445.06,448.0201,450.043,455.341,457.898,460.763,464.234,468.627,473.943,479.057,483.36260000000004,485.331,489.945,495.059" svgx:width="0.5,0.5,0.25,0.55,0.78,0.55,0.25,0.55,0.67,0.25,0.25,0.55,0.33,0.29,0.5,0.58,0.56,0.25,0.55,0.33,0.25,0.25,0.55,0.67,0.6,0.5,0.58,0.25,0.55,0.67,0.25,0.25,0.55,0.61,0.29,0.25,0.55,0.67,0.25,0.25,0.55,0.67,0.58,0.5,0.58,0.56,0.25,0.55,0.67,0.25,0.25,0.55,0.52,0.6,0.58,0.25,0.55,0.33,0.25,0.25,0.55,1.0,0.5,0.58,0.56,0.25,0.55,0.71,0.25,0.55,0.83,0.55,0.58,0.48,0.56,0.44,0.55,0.88,0.55,0.33,0.29,0.58,0.42,0.6,0.29,0.4,0.48,0.61,0.55,0.61,0.48,0.42,0.29,0.56,0.58,0.55,0.55,0.33,0.55,0.6,0.29,0.33,0.4,0.5,0.61,0.58,0.48,0.55,0.52,0.58,0.79" style="fill:rgb(0,0,0);font-family:URWPalladioL-Roma;font-size:8.97px;stroke:none;">39. Ao, X.; Jiang, J.; Ruan, Y.; Li, Z.; Zhang, Y.; Sun, J.; Wang, C. Honeycomb-inspired design of ultraﬁne SnO</text>
   <text y="164.198" x="501.961" svgx:width="0.5" style="fill:rgb(0,0,0);font-family:URWPalladioL-Roma;font-size:6.97px;stroke:none;">2</text>
   <text y="162.406" x="505.946,512.51" svgx:width="0.75,0.71" style="fill:rgb(0,0,0);font-family:URWPalladioL-Roma;font-size:8.97px;stroke:none;">@C</text>
   <text y="175.318" x="98.05,103.347,107.897,113.194,118.163,122.022,127.491,132.788,137.147,140.578,144.938,148.7054,151.054,155.413,163.449,168.482,172.841,178.402,183.962,188.322,193.7937,196.13,198.779,203.9816,206.323,210.364,214.915,218.509,223.542,228.511,233.71359999999999,236.065,241.562,244.21,252.1036,254.503,259.054,262.8214,265.161,269.711,275.008,279.977,285.538,289.84360000000004,292.145,300.181,304.731,307.698,312.058,315.652,318.301,322.851,325.5,329.2674,331.615,334.646,339.615,343.20300000000003,345.458,350.755,353.403,358.463,363.66560000000004,366.008,371.477,375.837,379.431,382.462,387.431,391.026,399.062,403.612,408.909,412.95,417.2556,419.566,422.215,424.863,427.83,433.127,435.775,441.263,449.299,452.2591,454.577,459.128,464.425,469.8967,472.233,476.092,481.061,486.622,489.27,494.758,502.794,505.825,508.473,513.442" svgx:width="0.58,0.5,0.58,0.55,0.42,0.6,0.58,0.48,0.4,0.48,0.42,0.55,0.48,0.88,0.55,0.48,0.61,0.61,0.48,0.61,0.55,0.29,0.58,0.55,0.44,0.5,0.4,0.55,0.55,0.58,0.55,0.61,0.29,0.88,0.55,0.5,0.42,0.55,0.5,0.58,0.55,0.61,0.48,0.55,0.88,0.5,0.33,0.48,0.4,0.29,0.5,0.29,0.42,0.55,0.33,0.55,0.4,0.55,0.58,0.29,0.56,0.58,0.55,0.6,0.48,0.4,0.33,0.55,0.4,0.88,0.5,0.58,0.44,0.48,0.55,0.29,0.29,0.33,0.58,0.29,0.6,0.88,0.33,0.55,0.5,0.58,0.61,0.55,0.42,0.55,0.61,0.29,0.6,0.88,0.33,0.29,0.55,0.58" style="fill:rgb(0,0,0);font-family:URWPalladioL-Roma;font-size:8.97px;stroke:none;">nanospheres embedded in carbon ﬁlm as anode materials for high performance lithium- and sodium-ion</text>
   <text y="188.23" x="98.05,103.008,107.492,110.415,113.338,117.633,121.174,125.164" svgx:width="0.55,0.5,0.33,0.33,0.48,0.4,0.56,0.25" style="fill:rgb(0,0,0);font-family:URWPalladioL-Roma;font-size:8.97px;stroke:none;">battery.</text>
   <text y="188.23" x="130.544,133.53,135.7725,138.013,143.492,147.473,153.946,157.434,160.9323,163.164,168.149,172.13,177.116,180.442,184.091" svgx:width="0.33,0.25,0.55,0.61,0.44,0.72,0.39,0.39,0.55,0.56,0.44,0.56,0.39,0.41,0.39" style="fill:rgb(0,0,0);font-family:URWPalladioL-Ital;font-size:8.97px;stroke:none;">J. Power Source</text>
   <text y="188.23" x="189.82,194.303,198.786,203.27" svgx:width="0.5,0.5,0.5,0.5" style="fill:rgb(0,0,0);font-family:URWPalladioL-Bold;font-size:8.97px;stroke:none;">2017</text>
   <text y="188.23" x="207.753" svgx:width="0.25" style="fill:rgb(0,0,0);font-family:URWPalladioL-Roma;font-size:8.97px;stroke:none;">,</text>
   <text y="188.23" x="212.236,216.719,221.202" svgx:width="0.5,0.5,0.5" style="fill:rgb(0,0,0);font-family:URWPalladioL-Ital;font-size:8.97px;stroke:none;">359</text>
   <text y="188.23" x="225.686,227.9285,230.169,234.652,239.136,243.619,248.102,252.585,257.068,261.552,263.7945,266.931" svgx:width="0.25,0.55,0.5,0.5,0.5,0.5,0.5,0.5,0.5,0.25,0.55,0.33" style="fill:rgb(0,0,0);font-family:URWPalladioL-Roma;font-size:8.97px;stroke:none;">, 340–348. [</text>
   <text y="188.23" x="269.917,276.274,279.655,284.55,288.352,292.154,298.144,302.438" svgx:width="0.71,0.4,0.55,0.42,0.42,0.67,0.48,0.33" style="fill:rgb(8,117,183);font-family:URWPalladioL-Roma;font-size:8.97px;stroke:none;">CrossRef</text>
   <text y="188.23" x="305.424" svgx:width="0.33" style="fill:rgb(0,0,0);font-family:URWPalladioL-Roma;font-size:8.97px;stroke:none;">]</text>
   <text y="201.141" x="76.535,81.018,85.501,87.74350000000001,98.05,106.373,110.945,116.268,121.353,123.5955,126.832,134.441,136.727,138.9695,142.69,145.736,148.397,152.97,158.293,163.378,165.6205,168.865,174.966,177.252,179.49450000000002,183.206,189.69,195.013,199.586,202.247,204.48950000000002,207.735,212.838,215.125,217.3675,221.088,226.365,230.937,236.26,241.345,243.5875,246.824,252.924,255.21,257.4525,261.173,266.469,271.984,276.556,281.879,284.1215,287.358,293.467,295.7095,298.954,303.756,308.329,313.652,319.24,326.867,329.529,333.589,338.912,341.958,344.619,347.28,352.365,356.67060000000004,359.938,366.422,373.254,378.056,383.379" svgx:width="0.5,0.5,0.25,0.55,1.0,0.5,0.58,0.56,0.25,0.55,0.83,0.25,0.25,0.55,0.33,0.29,0.5,0.58,0.56,0.25,0.55,0.67,0.25,0.25,0.55,0.71,0.58,0.5,0.29,0.25,0.55,0.67,0.25,0.25,0.55,0.67,0.5,0.58,0.56,0.25,0.55,0.67,0.25,0.25,0.55,0.67,0.6,0.5,0.58,0.25,0.55,0.67,0.25,0.55,0.52,0.5,0.58,0.61,0.83,0.29,0.44,0.58,0.33,0.29,0.29,0.56,0.48,0.55,0.71,0.75,0.52,0.58,0.79" style="fill:rgb(0,0,0);font-family:URWPalladioL-Roma;font-size:8.97px;stroke:none;">40. Wang, H.; Jiang, X.; Chai, Y.; Yang, X.; Yuan, R. Sandwich-like C@SnO</text>
   <text y="202.933" x="390.568" svgx:width="0.5" style="fill:rgb(0,0,0);font-family:URWPalladioL-Roma;font-size:6.97px;stroke:none;">2</text>
   <text y="201.141" x="394.553" svgx:width="0.29" style="fill:rgb(0,0,0);font-family:Rpxr;font-size:8.97px;stroke:none;">/</text>
   <text y="201.141" x="397.178,401.98" svgx:width="0.52,0.58" style="fill:rgb(0,0,0);font-family:URWPalladioL-Roma;font-size:8.97px;stroke:none;">Sn</text>
   <text y="201.141" x="407.302" svgx:width="0.29" style="fill:rgb(0,0,0);font-family:Rpxr;font-size:8.97px;stroke:none;">/</text>
   <text y="201.141" x="409.927,415.094,420.088,422.749,428.337,435.169,441.5377,444.845,450.168,455.162,457.823,460.485,465.478,472.92310000000003,476.307,480.184,485.681,491.004,495.385,498.833,503.213,506.98040000000003,510.292,514.865" svgx:width="0.56,0.55,0.29,0.61,0.75,0.71,0.55,0.58,0.55,0.29,0.29,0.55,0.83,0.55,0.42,0.6,0.58,0.48,0.4,0.48,0.42,0.55,0.5,0.42" style="fill:rgb(0,0,0);font-family:URWPalladioL-Roma;font-size:8.97px;stroke:none;">void@C hollow spheres as</text>
   <text y="214.053" x="98.05,100.659,108.577,113.965,117.346,122.241,127.307,131.602,137.0737,139.322,143.806,149.024,153.92,159.398,163.7036,165.935,173.852,178.335,181.258,185.553,189.095,191.704,196.187,198.796,202.5634,204.84,207.826,212.721,216.309,218.505,221.114,223.723,226.646,231.865,234.474,239.881,250.039,252.649,257.544,262.7466,265.004,269.963,274.446,277.369,280.292,284.587,288.129,290.738,295.033,298.835" svgx:width="0.29,0.88,0.6,0.4,0.55,0.56,0.48,0.61,0.55,0.5,0.58,0.55,0.61,0.48,0.55,0.88,0.5,0.33,0.48,0.4,0.29,0.5,0.29,0.42,0.55,0.33,0.55,0.4,0.55,0.29,0.29,0.33,0.58,0.29,0.6,0.88,0.29,0.55,0.58,0.55,0.55,0.5,0.33,0.33,0.48,0.4,0.29,0.48,0.42,0.25" style="fill:rgb(0,0,0);font-family:URWPalladioL-Roma;font-size:8.97px;stroke:none;">improved anode materials for lithiumion batteries.</text>
   <text y="214.053" x="304.212,307.198,309.4405,311.681,317.16,321.141,327.614,331.102,334.60029999999995,336.832,341.817,345.798,350.784,354.11,357.759" svgx:width="0.33,0.25,0.55,0.61,0.44,0.72,0.39,0.39,0.55,0.56,0.44,0.56,0.39,0.41,0.39" style="fill:rgb(0,0,0);font-family:URWPalladioL-Ital;font-size:8.97px;stroke:none;">J. Power Source</text>
   <text y="214.053" x="363.488,367.971,372.454,376.938" svgx:width="0.5,0.5,0.5,0.5" style="fill:rgb(0,0,0);font-family:URWPalladioL-Bold;font-size:8.97px;stroke:none;">2018</text>
   <text y="214.053" x="381.421" svgx:width="0.25" style="fill:rgb(0,0,0);font-family:URWPalladioL-Roma;font-size:8.97px;stroke:none;">,</text>
   <text y="214.053" x="385.904,390.387,394.87" svgx:width="0.5,0.5,0.5" style="fill:rgb(0,0,0);font-family:URWPalladioL-Ital;font-size:8.97px;stroke:none;">379</text>
   <text y="214.053" x="399.353,401.5955,403.836,408.319,412.803,417.286,421.769,426.252,430.736,435.219,437.4615,440.599" svgx:width="0.25,0.55,0.5,0.5,0.5,0.5,0.5,0.5,0.5,0.25,0.55,0.33" style="fill:rgb(0,0,0);font-family:URWPalladioL-Roma;font-size:8.97px;stroke:none;">, 191–196. [</text>
   <text y="214.053" x="443.584,449.942,453.322,458.218,462.019,465.821,471.811,476.106" svgx:width="0.71,0.4,0.55,0.42,0.42,0.67,0.48,0.33" style="fill:rgb(8,117,183);font-family:URWPalladioL-Roma;font-size:8.97px;stroke:none;">CrossRef</text>
   <text y="214.053" x="479.091" svgx:width="0.33" style="fill:rgb(0,0,0);font-family:URWPalladioL-Roma;font-size:8.97px;stroke:none;">]</text>
   <text y="226.964" x="76.535,81.018,85.501,87.74350000000001,98.05,103.419,108.533,112.927,115.791,118.656,123.049,126.951,132.065,136.458,139.929,144.815,149.208,151.4505,153.286,157.442,159.639,161.88150000000002,163.839,169.208,173.417,177.626,179.8685,181.703,184.629,186.826,194.137,196.333,198.5755,200.534,206.913,211.307,214.118,216.3605,218.196,224.575,226.772,233.151,235.348,237.59050000000002,239.548,244.856,249.249,252.052,254.2945,256.138,263.449,265.646,270.259,272.5015,274.336,280.566,284.96,288.431,292.824,300.583,305.442,310.24,312.797,317.191,320.117,323.842,328.957,333.35,338.631,342.84,348.3117,350.089,354.703,359.817" svgx:width="0.5,0.5,0.25,0.55,0.61,0.58,0.5,0.33,0.33,0.5,0.44,0.58,0.5,0.4,0.56,0.5,0.25,0.55,0.6,0.25,0.25,0.55,0.61,0.48,0.48,0.25,0.55,0.33,0.25,0.83,0.25,0.25,0.55,0.73,0.5,0.4,0.25,0.55,0.73,0.25,0.73,0.25,0.25,0.55,0.6,0.5,0.4,0.25,0.55,0.83,0.25,0.52,0.25,0.55,0.71,0.5,0.4,0.5,0.88,0.55,0.55,0.29,0.5,0.33,0.42,0.58,0.5,0.6,0.48,0.61,0.55,0.52,0.58,0.79" style="fill:rgb(0,0,0);font-family:URWPalladioL-Roma;font-size:8.97px;stroke:none;">41. Bhattacharya, P.; Lee, J.H.; Kar, K.K.; Par, H.S. Carambola-shaped SnO</text>
   <text y="228.756" x="366.727" svgx:width="0.5" style="fill:rgb(0,0,0);font-family:URWPalladioL-Roma;font-size:6.97px;stroke:none;">2</text>
   <text y="226.964" x="372.596,379.924,383.395,387.789,393.07,398.351,402.56,408.0317,409.809,412.366,417.5686,419.37,423.271,427.665,431.135,435.995,440.792,445.9946,447.787,452.901,457.295,462.409,467.206,470.071,475.37,480.229,484.5346,486.318,491.432,495.641,498.506,505.834,510.632,514.103" svgx:width="0.83,0.4,0.5,0.6,0.6,0.48,0.61,0.55,0.29,0.58,0.55,0.44,0.5,0.4,0.55,0.55,0.58,0.55,0.58,0.5,0.58,0.55,0.33,0.6,0.55,0.48,0.55,0.58,0.48,0.33,0.83,0.55,0.4,0.56" style="fill:rgb(0,0,0);font-family:URWPalladioL-Roma;font-size:8.97px;stroke:none;">wrapped in carbon nanotube network</text>
   <text y="239.876" x="98.05,100.988,105.805,109.393,111.531,116.666,119.234,124.139,129.3416,131.515,136.5,141.318,143.885,149.205,156.996,161.222,164.099,167.584,170.151,174.0978,176.309,180.227,184.638,189.941,194.352,198.27,200.837,203.714,208.7372,210.86,215.272,220.407,225.8787,228.038,230.606,238.396,243.699,247.025,251.843,256.828,261.054,266.5257,268.686,272.171,276.582,279.458,283.76360000000005,285.926,290.337,295.472,300.9437,303.104,307.021,311.927,315.844,318.412,322.7176,324.879,328.62,331.496,335.908,340.787,343.354,345.922,348.489,351.365,356.3882,358.512,363.329,366.2891,368.508,371.076,373.643,376.52,381.655,384.222,389.542,399.574,402.141,406.959,412.1616,414.335,419.214,423.625,426.502,429.378,433.604,437.089,441.006" svgx:width="0.33,0.55,0.4,0.55,0.58,0.29,0.56,0.58,0.55,0.56,0.55,0.29,0.6,0.88,0.48,0.33,0.4,0.29,0.44,0.55,0.44,0.5,0.6,0.5,0.44,0.29,0.33,0.56,0.55,0.5,0.58,0.61,0.55,0.29,0.88,0.6,0.4,0.55,0.56,0.48,0.61,0.55,0.4,0.5,0.33,0.48,0.55,0.5,0.58,0.61,0.55,0.44,0.56,0.44,0.29,0.48,0.55,0.42,0.33,0.5,0.55,0.29,0.29,0.29,0.33,0.56,0.55,0.55,0.33,0.55,0.29,0.29,0.33,0.58,0.29,0.6,0.88,0.29,0.55,0.58,0.55,0.55,0.5,0.33,0.33,0.48,0.4,0.56,0.25" style="fill:rgb(0,0,0);font-family:URWPalladioL-Roma;font-size:8.97px;stroke:none;">for high volumetric capacity and improved rate and cycle stability of lithiumion battery.</text>
   <text y="239.876" x="446.347,452.232,456.643,460.075,466.94,469.1825,472.286,477.677,482.583,486.994,489.23650000000004,492.341,495.279" svgx:width="0.67,0.5,0.39,0.78,0.25,0.55,0.61,0.56,0.5,0.25,0.55,0.33,0.25" style="fill:rgb(0,0,0);font-family:URWPalladioL-Ital;font-size:8.97px;stroke:none;">Chem. Eng. J.</text>
   <text y="239.876" x="499.723,504.206,508.689,513.173" svgx:width="0.5,0.5,0.5,0.5" style="fill:rgb(0,0,0);font-family:URWPalladioL-Bold;font-size:8.97px;stroke:none;">2019</text>
   <text y="239.876" x="517.655" svgx:width="0.25" style="fill:rgb(0,0,0);font-family:URWPalladioL-Roma;font-size:8.97px;stroke:none;">,</text>
   <text y="252.788" x="98.05,102.533,107.016" svgx:width="0.5,0.5,0.5" style="fill:rgb(0,0,0);font-family:URWPalladioL-Ital;font-size:8.97px;stroke:none;">369</text>
   <text y="252.788" x="111.5,113.7425,115.983,120.466,124.95,129.433,133.916,138.399,142.882,147.366,149.60850000000002,152.745" svgx:width="0.25,0.55,0.5,0.5,0.5,0.5,0.5,0.5,0.5,0.25,0.55,0.33" style="fill:rgb(0,0,0);font-family:URWPalladioL-Roma;font-size:8.97px;stroke:none;">, 422–431. [</text>
   <text y="252.788" x="155.731,162.088,165.469,170.364,174.166,177.968,183.958,188.252" svgx:width="0.71,0.4,0.55,0.42,0.42,0.67,0.48,0.33" style="fill:rgb(8,117,183);font-family:URWPalladioL-Roma;font-size:8.97px;stroke:none;">CrossRef</text>
   <text y="252.788" x="191.238" svgx:width="0.33" style="fill:rgb(0,0,0);font-family:URWPalladioL-Roma;font-size:8.97px;stroke:none;">]</text>
   <text y="265.699" x="76.535,81.018,85.501,87.74350000000001,98.05,105.361,110.659,112.90150000000001,114.719,120.589,122.786,125.02850000000001,126.968,134.929,139.323,141.88,144.437,148.646,151.458,153.7005,155.517,162.222,164.419,171.73,173.926,176.1685,178.109,186.07,190.464,195.578,200.463,202.7055,204.523,209.391,211.588,213.8305,215.77,222.0,227.115,231.324,236.438,238.6805,240.497,245.365,247.562,249.80450000000002,251.745,256.78,261.173,266.287,271.173,273.4155,275.233,281.463,283.659,285.9015,287.842,293.703,298.817,303.615,308.913,311.1555,312.973,320.934,323.131,325.3735,327.322,333.183,338.297,343.596,345.8385,347.656,355.968,358.165,360.4075,362.348,367.716,370.274,375.572,377.8145,379.632,387.944,390.1865,392.004,398.234" svgx:width="0.5,0.5,0.25,0.55,0.83,0.6,0.25,0.55,0.67,0.25,0.25,0.55,1.0,0.5,0.29,0.29,0.48,0.4,0.25,0.55,0.76,0.25,0.83,0.25,0.25,0.55,1.0,0.5,0.58,0.56,0.25,0.55,0.67,0.25,0.25,0.55,0.71,0.58,0.48,0.58,0.25,0.55,0.67,0.25,0.25,0.55,0.67,0.5,0.58,0.56,0.25,0.55,0.71,0.25,0.25,0.55,0.67,0.58,0.55,0.6,0.25,0.55,1.0,0.25,0.25,0.55,0.67,0.58,0.6,0.25,0.55,0.95,0.25,0.25,0.55,0.61,0.29,0.6,0.25,0.55,0.95,0.25,0.55,0.71,0.6" style="fill:rgb(0,0,0);font-family:URWPalladioL-Roma;font-size:8.97px;stroke:none;">42. Hu, R.; Waller, G.H.; Wang, Y.; Chen, Y.; Yang, C.; Zhou, W.; Zhu, M.; Liu, M. Cu</text>
   <text y="267.491" x="403.53" svgx:width="0.5" style="fill:rgb(0,0,0);font-family:URWPalladioL-Roma;font-size:6.97px;stroke:none;">6</text>
   <text y="265.699" x="407.516,412.129" svgx:width="0.52,0.58" style="fill:rgb(0,0,0);font-family:URWPalladioL-Roma;font-size:8.97px;stroke:none;">Sn</text>
   <text y="267.491" x="417.243" svgx:width="0.5" style="fill:rgb(0,0,0);font-family:URWPalladioL-Roma;font-size:6.97px;stroke:none;">5</text>
   <text y="265.699" x="421.228,427.792,432.405,437.519" svgx:width="0.75,0.52,0.58,0.79" style="fill:rgb(0,0,0);font-family:URWPalladioL-Roma;font-size:8.97px;stroke:none;">@SnO</text>
   <text y="267.491" x="444.425" svgx:width="0.5" style="fill:rgb(0,0,0);font-family:URWPalladioL-Roma;font-size:6.97px;stroke:none;">2</text>
   <text y="265.699" x="448.411,451.337,459.43,464.544,468.938,474.052,478.849,482.751,487.549,495.308,500.589,505.386,509.112,511.669,514.534" svgx:width="0.33,0.71,0.58,0.5,0.58,0.55,0.44,0.55,0.88,0.6,0.55,0.42,0.29,0.33,0.48" style="fill:rgb(0,0,0);font-family:URWPalladioL-Roma;font-size:8.97px;stroke:none;">-Cnanocomposite</text>
   <text y="278.611" x="97.674,105.047,107.62,110.502,115.7046,117.893,121.642,124.524,128.944,133.833,136.406,140.7116,142.886,146.812,151.639,154.972" svgx:width="0.83,0.29,0.33,0.58,0.55,0.42,0.33,0.5,0.55,0.29,0.48,0.55,0.44,0.55,0.4,0.48" style="fill:rgb(0,0,0);font-family:URWPalladioL-Roma;font-size:8.97px;stroke:none;">with stable core</text>
   <text y="278.611" x="159.204" svgx:width="0.29" style="fill:rgb(0,0,0);font-family:Rpxr;font-size:8.97px;stroke:none;">/</text>
   <text y="278.611" x="161.741,165.49,170.635,174.87,177.442,180.04330000000002,182.261,186.009,188.891,192.313,197.644,201.569,204.451,209.782,213.115,217.4206,219.596,224.016,227.7834,230.01,234.495,236.676,241.822,244.394,249.31,254.5126,256.701,260.025,264.26,269.255,273.49,276.982,280.73,283.303,288.192,290.765,295.0706,297.245,301.665,306.811,311.638,317.04,321.34560000000005,323.52,326.464,331.291,334.879,337.029,342.431,345.003,347.947,350.52,355.347,360.5496,362.738,367.627,372.048,374.93,377.812,382.047,385.539,388.111,392.346,396.095" svgx:width="0.42,0.58,0.48,0.29,0.29,0.55,0.42,0.33,0.4,0.6,0.44,0.33,0.6,0.4,0.48,0.55,0.5,0.42,0.55,0.5,0.55,0.58,0.29,0.56,0.58,0.55,0.4,0.48,0.56,0.48,0.4,0.42,0.29,0.55,0.29,0.48,0.55,0.5,0.58,0.55,0.61,0.48,0.55,0.33,0.55,0.4,0.55,0.61,0.29,0.33,0.29,0.55,0.58,0.55,0.55,0.5,0.33,0.33,0.48,0.4,0.29,0.48,0.42,0.25" style="fill:rgb(0,0,0);font-family:URWPalladioL-Roma;font-size:8.97px;stroke:none;">shell structure as a high reversible anode for Li-ion batteries.</text>
   <text y="278.611" x="401.458,408.336,412.262,417.177,421.1238,423.348,428.75,433.665,437.104,440.384,444.805" svgx:width="0.78,0.44,0.56,0.44,0.55,0.61,0.56,0.39,0.39,0.5,0.5" style="fill:rgb(0,0,0);font-family:URWPalladioL-Ital;font-size:8.97px;stroke:none;">Nano Energy</text>
   <text y="278.611" x="451.468,455.951,460.434,464.918" svgx:width="0.5,0.5,0.5,0.5" style="fill:rgb(0,0,0);font-family:URWPalladioL-Bold;font-size:8.97px;stroke:none;">2015</text>
   <text y="278.611" x="469.401" svgx:width="0.25" style="fill:rgb(0,0,0);font-family:URWPalladioL-Roma;font-size:8.97px;stroke:none;">,</text>
   <text y="278.611" x="473.858,478.278" svgx:width="0.5,0.5" style="fill:rgb(0,0,0);font-family:URWPalladioL-Ital;font-size:8.97px;stroke:none;">18</text>
   <text y="278.611" x="482.699,484.9415,487.155,491.575,495.996,500.416,504.837,509.257,513.677,518.098" svgx:width="0.25,0.55,0.5,0.5,0.5,0.5,0.5,0.5,0.5,0.25" style="fill:rgb(0,0,0);font-family:URWPalladioL-Roma;font-size:8.97px;stroke:none;">, 232–244.</text>
   <text y="291.522" x="98.05" svgx:width="0.33" style="fill:rgb(0,0,0);font-family:URWPalladioL-Roma;font-size:8.97px;stroke:none;">[</text>
   <text y="291.522" x="101.036,107.393,110.773,115.669,119.471,123.272,129.262,133.557" svgx:width="0.71,0.4,0.55,0.42,0.42,0.67,0.48,0.33" style="fill:rgb(8,117,183);font-family:URWPalladioL-Roma;font-size:8.97px;stroke:none;">CrossRef</text>
   <text y="291.522" x="136.543" svgx:width="0.33" style="fill:rgb(0,0,0);font-family:URWPalladioL-Roma;font-size:8.97px;stroke:none;">]</text>
   <text y="304.434" x="76.535,81.018,85.501,87.74350000000001,98.05,103.12,107.535,112.676,117.586,119.8285,122.029,127.425,129.633,131.87550000000002,134.084,140.92,145.336,147.906,150.1485,152.357,157.109,159.317,161.5595,163.768,171.77,176.186,181.326,186.237,188.4795,190.688,195.581,197.789,200.0315,202.24,208.131,210.701,214.931,217.17350000000002,219.383,226.219,228.427,230.6695,232.878,240.217,244.633,248.122,252.538,257.448,261.864,267.004,269.2465,271.456,277.355,279.563,284.96,287.168,289.4105,291.61,297.006,299.576,301.81850000000003,304.028,306.969,309.177,311.4195,313.628,320.967,323.537,328.678,333.588,335.83050000000003,338.039,343.93,346.1725,348.382,354.643,359.784,364.014,367.759,370.638,375.778,381.104,383.983,386.924,389.494,392.064,396.975,401.28060000000005,403.44,408.076,413.217" svgx:width="0.5,0.5,0.25,0.55,0.67,0.5,0.58,0.56,0.25,0.55,0.61,0.25,0.25,0.55,0.77,0.5,0.29,0.25,0.55,0.61,0.25,0.25,0.55,1.0,0.5,0.58,0.56,0.25,0.55,0.67,0.25,0.25,0.55,0.67,0.29,0.48,0.25,0.55,0.77,0.25,0.25,0.55,0.83,0.5,0.4,0.5,0.56,0.5,0.58,0.25,0.55,0.67,0.25,0.61,0.25,0.25,0.55,0.61,0.29,0.25,0.55,0.33,0.25,0.25,0.55,0.83,0.29,0.58,0.56,0.25,0.55,0.67,0.25,0.55,0.71,0.58,0.48,0.42,0.33,0.58,0.6,0.33,0.33,0.29,0.29,0.56,0.48,0.55,0.52,0.58,0.79" style="fill:rgb(0,0,0);font-family:URWPalladioL-Roma;font-size:8.97px;stroke:none;">43. Yang, L.; Dai, T.; Wang, Y.; Xie, D.; Narayan, R.L.; Li, J.; Ning, X. Chestnut-like SnO</text>
   <text y="306.226" x="420.161" svgx:width="0.5" style="fill:rgb(0,0,0);font-family:URWPalladioL-Roma;font-size:6.97px;stroke:none;">2</text>
   <text y="304.434" x="424.146" svgx:width="0.29" style="fill:rgb(0,0,0);font-family:Rpxr;font-size:8.97px;stroke:none;">/</text>
   <text y="304.434" x="426.681,433.0497,435.186,440.326,444.742,449.882,454.705,458.626,463.448,471.247,476.555,481.377,485.122,487.692,490.571,494.802,498.56940000000003,500.79,508.155,510.725,513.605" svgx:width="0.71,0.55,0.58,0.5,0.58,0.55,0.44,0.55,0.88,0.6,0.55,0.42,0.29,0.33,0.48,0.42,0.55,0.83,0.29,0.33,0.58" style="fill:rgb(0,0,0);font-family:URWPalladioL-Roma;font-size:8.97px;stroke:none;">C nanocomposites with</text>
   <text y="317.346" x="98.05,102.345,107.563,112.782,117.265,122.483,126.465,130.759,136.23069999999998,138.479,141.089,143.698,146.621,151.839,154.449,159.855,170.014,172.624,177.519,182.7216,184.979,188.781,191.704,196.6,200.141,204.625,209.61,213.9156,216.146,221.535,224.916,229.811,235.2,239.495,243.037,245.96,248.569,252.864,256.666" svgx:width="0.48,0.58,0.58,0.5,0.58,0.44,0.48,0.61,0.55,0.29,0.29,0.33,0.58,0.29,0.6,0.88,0.29,0.55,0.58,0.55,0.42,0.33,0.55,0.4,0.5,0.56,0.48,0.55,0.6,0.4,0.55,0.6,0.48,0.4,0.33,0.29,0.48,0.42,0.25" style="fill:rgb(0,0,0);font-family:URWPalladioL-Roma;font-size:8.97px;stroke:none;">enhanced lithiumion storage properties.</text>
   <text y="317.346" x="262.043,269.019,273.0,277.985,281.9318,284.208,289.686,294.672,298.16,301.486,305.969" svgx:width="0.78,0.44,0.56,0.44,0.55,0.61,0.56,0.39,0.39,0.5,0.5" style="fill:rgb(0,0,0);font-family:URWPalladioL-Ital;font-size:8.97px;stroke:none;">Nano Energy</text>
   <text y="317.346" x="312.694,317.177,321.66,326.144" svgx:width="0.5,0.5,0.5,0.5" style="fill:rgb(0,0,0);font-family:URWPalladioL-Bold;font-size:8.97px;stroke:none;">2016</text>
   <text y="317.346" x="330.627" svgx:width="0.25" style="fill:rgb(0,0,0);font-family:URWPalladioL-Roma;font-size:8.97px;stroke:none;">,</text>
   <text y="317.346" x="335.11,339.593" svgx:width="0.5,0.5" style="fill:rgb(0,0,0);font-family:URWPalladioL-Ital;font-size:8.97px;stroke:none;">30</text>
   <text y="317.346" x="344.076,346.31850000000003,348.559,353.042,357.526,362.009,366.492,370.975,375.458,379.942,382.1845,385.322" svgx:width="0.25,0.55,0.5,0.5,0.5,0.5,0.5,0.5,0.5,0.25,0.55,0.33" style="fill:rgb(0,0,0);font-family:URWPalladioL-Roma;font-size:8.97px;stroke:none;">, 885–891. [</text>
   <text y="317.346" x="388.307,394.665,398.045,402.941,406.742,410.544,416.534,420.828" svgx:width="0.71,0.4,0.55,0.42,0.42,0.67,0.48,0.33" style="fill:rgb(8,117,183);font-family:URWPalladioL-Roma;font-size:8.97px;stroke:none;">CrossRef</text>
   <text y="317.346" x="423.814" svgx:width="0.33" style="fill:rgb(0,0,0);font-family:URWPalladioL-Roma;font-size:8.97px;stroke:none;">]</text>
   <text y="330.257" x="76.535,81.018,85.501,87.74350000000001,98.05,104.025,109.238,113.717,118.93,123.91,126.1525,128.389,136.522,138.762,141.0045,143.231,150.164,155.566,157.8085,160.044,166.028,168.267,170.5095,172.746,178.721,183.934,188.825,194.226,196.4685,198.696,205.047,207.286,209.5285,211.765,217.175,222.576,224.8185,227.055,231.758,233.997,236.23950000000002,238.476,245.928,250.407,255.62,257.8625,260.09,265.563,267.802,270.0445,272.281,278.256,280.862,285.341,287.5835,289.82,296.323,298.562,300.8045,303.032,309.867,314.345,319.236,321.4785,323.715,330.755,332.995,335.2375,337.473,345.983,351.384,353.6265,355.854,358.837,361.0795,363.315,370.284,372.891,375.811,379.349,383.828,389.247,394.46,398.7656,400.981,405.684,410.897" svgx:width="0.5,0.5,0.25,0.55,0.67,0.58,0.5,0.58,0.56,0.25,0.55,1.0,0.25,0.25,0.55,0.77,0.6,0.25,0.55,0.67,0.25,0.25,0.55,0.67,0.58,0.55,0.6,0.25,0.55,0.71,0.25,0.25,0.55,0.6,0.6,0.25,0.55,0.52,0.25,0.25,0.55,0.83,0.5,0.58,0.25,0.55,0.61,0.25,0.25,0.55,0.67,0.29,0.5,0.25,0.55,0.73,0.25,0.25,0.55,0.76,0.5,0.55,0.25,0.55,0.79,0.25,0.25,0.55,1.0,0.6,0.25,0.55,0.33,0.25,0.55,0.78,0.29,0.33,0.4,0.5,0.61,0.58,0.48,0.55,0.52,0.58,0.79" style="fill:rgb(0,0,0);font-family:URWPalladioL-Roma;font-size:8.97px;stroke:none;">44. Zhang, W.; Du, R.; Zhou, C.; Pu, S.; Han, B.; Xia, K.; Gao, Q.; Wu, J. Ultraﬁne SnO</text>
   <text y="332.049" x="417.941" svgx:width="0.5" style="fill:rgb(0,0,0);font-family:URWPalladioL-Roma;font-size:6.97px;stroke:none;">2</text>
   <text y="330.257" x="424.162,428.641,433.621,438.601,441.978,446.269,451.249,455.728,458.648,462.939,466.70640000000003,468.976,471.583,476.78560000000004,479.026,481.633,486.846,489.766,494.057,497.595,500.202,505.092,508.68,510.87,515.761" svgx:width="0.5,0.56,0.56,0.4,0.48,0.56,0.5,0.33,0.48,0.42,0.55,0.29,0.58,0.55,0.29,0.58,0.33,0.48,0.4,0.29,0.55,0.4,0.55,0.55,0.33" style="fill:rgb(0,0,0);font-family:URWPalladioL-Roma;font-size:8.97px;stroke:none;">aggregates in interior of</text>
   <text y="343.169" x="97.781,103.1,107.932,111.268,116.1,121.437,125.20439999999999,127.419,131.348,135.773,139.269,144.163,148.995,154.1976,156.385,161.535,165.96,171.111,175.943,178.828,184.164,189.058,193.297,197.0644,199.289,203.714,207.4814,209.696,214.847,217.422,222.342,227.493,230.44,235.759,239.998,243.494,246.441,251.273,254.768,262.583,267.008,272.158,276.088,280.39360000000005,282.566,286.991,292.141,296.973,302.38,306.6856,308.858,316.673,321.098,323.974,328.213,331.709,334.284,338.709,341.284,345.0514,347.276,352.108,355.0681,357.294,359.869,362.444,365.329,370.48,373.055,378.392,386.206,389.153,391.728,396.56,401.7626,403.941,408.835,413.26,416.145,419.03,423.269,426.765,429.34,433.579,437.332" svgx:width="0.6,0.55,0.4,0.55,0.6,0.42,0.55,0.44,0.5,0.4,0.55,0.55,0.58,0.55,0.58,0.5,0.58,0.55,0.33,0.6,0.55,0.48,0.42,0.55,0.5,0.42,0.55,0.58,0.29,0.56,0.58,0.33,0.6,0.48,0.4,0.33,0.55,0.4,0.88,0.5,0.58,0.44,0.48,0.55,0.5,0.58,0.55,0.61,0.48,0.55,0.88,0.5,0.33,0.48,0.4,0.29,0.5,0.29,0.42,0.55,0.55,0.33,0.55,0.29,0.29,0.33,0.58,0.29,0.6,0.88,0.33,0.29,0.55,0.58,0.55,0.55,0.5,0.33,0.33,0.48,0.4,0.29,0.48,0.42,0.25" style="fill:rgb(0,0,0);font-family:URWPalladioL-Roma;font-size:8.97px;stroke:none;">porous carbon nanotubes as high-performance anode materials of lithium-ion batteries.</text>
   <text y="343.169" x="442.682,451.036,454.966,457.913,461.355,464.134,466.3765,469.479,473.895,477.825,482.25,486.179,490.664,492.843,498.25,503.171,506.613,509.888,514.313" svgx:width="0.94,0.44,0.33,0.39,0.39,0.25,0.55,0.61,0.44,0.5,0.44,0.5,0.55,0.61,0.56,0.39,0.39,0.5,0.5" style="fill:rgb(0,0,0);font-family:URWPalladioL-Ital;font-size:8.97px;stroke:none;">Mater. Today Energy</text>
   <text y="356.08" x="98.05,102.533,107.016,111.5" svgx:width="0.5,0.5,0.5,0.5" style="fill:rgb(0,0,0);font-family:URWPalladioL-Bold;font-size:8.97px;stroke:none;">2019</text>
   <text y="356.08" x="115.983" svgx:width="0.25" style="fill:rgb(0,0,0);font-family:URWPalladioL-Roma;font-size:8.97px;stroke:none;">,</text>
   <text y="356.08" x="120.466,124.949" svgx:width="0.5,0.5" style="fill:rgb(0,0,0);font-family:URWPalladioL-Ital;font-size:8.97px;stroke:none;">12</text>
   <text y="356.08" x="129.433,131.6755,133.916,138.399,142.883,147.366,151.849,156.332,160.815,165.299,167.5415,170.678" svgx:width="0.25,0.55,0.5,0.5,0.5,0.5,0.5,0.5,0.5,0.25,0.55,0.33" style="fill:rgb(0,0,0);font-family:URWPalladioL-Roma;font-size:8.97px;stroke:none;">, 303–310. [</text>
   <text y="356.08" x="173.664,180.021,183.402,188.297,192.099,195.901,201.891,206.185" svgx:width="0.71,0.4,0.55,0.42,0.42,0.67,0.48,0.33" style="fill:rgb(8,117,183);font-family:URWPalladioL-Roma;font-size:8.97px;stroke:none;">CrossRef</text>
   <text y="356.08" x="209.171" svgx:width="0.33" style="fill:rgb(0,0,0);font-family:URWPalladioL-Roma;font-size:8.97px;stroke:none;">]</text>
   <text y="368.992" x="76.535,81.018,85.501,87.74350000000001,98.05,103.43,105.992,108.23450000000001,110.439,113.371,115.572,117.81450000000001,120.027,128.013,132.416,137.54,142.436,144.6785,146.883,154.199,156.401,158.64350000000002,160.856,167.671,171.889,177.013,181.909,184.1515,186.355,189.287,191.489,193.7315,195.944,202.865,205.427,209.829,214.954,217.19650000000001,219.4,227.387,229.588,235.461,237.662,239.9045,242.109,248.351,253.476,258.785,261.02750000000003,263.241,271.218,273.4605,275.664,280.56,283.122,287.34,291.883,294.446,299.315,301.877,306.18260000000004,308.349,316.123,320.341,323.211,327.614,330.176,333.108,335.979,340.196,347.971,353.263,355.825,360.228,363.098,367.316,372.7877,374.941,377.873,382.275,387.145,390.623,393.185,397.094,401.497,404.367,406.929,411.737,416.93960000000004,419.107,423.914,426.8741,429.1,436.875,441.093,444.826,449.634,454.925,459.733,463.044,467.851,473.161,476.9284,479.148,483.955,489.08,491.642,496.45,501.574,504.506,507.069,509.631,514.526" svgx:width="0.5,0.5,0.25,0.55,0.61,0.29,0.25,0.55,0.33,0.25,0.25,0.55,1.0,0.5,0.58,0.56,0.25,0.55,0.83,0.25,0.25,0.55,0.77,0.48,0.58,0.56,0.25,0.55,0.33,0.25,0.25,0.55,0.79,0.29,0.5,0.58,0.25,0.55,1.0,0.25,0.67,0.25,0.25,0.55,0.71,0.58,0.6,0.25,0.55,1.0,0.25,0.55,0.56,0.29,0.48,0.52,0.29,0.55,0.29,0.48,0.55,0.88,0.48,0.33,0.5,0.29,0.33,0.33,0.48,0.88,0.6,0.29,0.5,0.33,0.48,0.61,0.55,0.33,0.5,0.55,0.4,0.29,0.44,0.5,0.33,0.29,0.55,0.58,0.55,0.55,0.33,0.55,0.88,0.48,0.42,0.55,0.6,0.55,0.4,0.55,0.6,0.42,0.55,0.55,0.58,0.29,0.55,0.58,0.33,0.29,0.29,0.56,0.48" style="fill:rgb(0,0,0);font-family:URWPalladioL-Roma;font-size:8.97px;stroke:none;">45. Li, J.; Wang, N.; Deng, J.; Qian, W.Z.; Chu, W. Flexible metal-templated fabrication of mesoporous onion-like</text>
   <text y="381.904" x="98.05,102.111,106.684,110.296,115.354,120.347,125.5496,128.267,132.84,138.163,143.6347,146.349,151.434" svgx:width="0.44,0.5,0.4,0.55,0.55,0.58,0.55,0.5,0.58,0.61,0.55,0.56,0.48" style="fill:rgb(0,0,0);font-family:URWPalladioL-Roma;font-size:8.97px;stroke:none;">carbon and Fe</text>
   <text y="383.695" x="155.814" svgx:width="0.5" style="fill:rgb(0,0,0);font-family:URWPalladioL-Roma;font-size:6.97px;stroke:none;">2</text>
   <text y="381.904" x="159.799" svgx:width="0.79" style="fill:rgb(0,0,0);font-family:URWPalladioL-Roma;font-size:8.97px;stroke:none;">O</text>
   <text y="383.695" x="166.988" svgx:width="0.5" style="fill:rgb(0,0,0);font-family:URWPalladioL-Roma;font-size:6.97px;stroke:none;">3</text>
   <text y="381.904" x="170.973,177.805,185.405,188.451,194.039,199.032,204.529,208.909,214.3807,217.095,221.156,225.728,229.341,234.399,239.392,244.59459999999999,247.312,250.358,255.351,259.924,267.81759999999997,270.597,273.643,278.637,282.225,284.846,289.227,291.889,296.269,300.33,303.312,306.76,311.753,315.814,321.137,325.517,333.593,336.255,340.315,344.888,347.48929999999996,350.147,354.528,359.851,364.231,367.679,372.764,377.7872,380.447,384.324,387.306,392.3,395.912,400.485,405.57,409.951" svgx:width="0.75,0.83,0.33,0.61,0.55,0.6,0.48,0.61,0.55,0.44,0.5,0.4,0.55,0.55,0.58,0.55,0.33,0.55,0.5,0.88,0.55,0.33,0.55,0.4,0.55,0.48,0.29,0.48,0.44,0.33,0.4,0.55,0.44,0.58,0.48,0.88,0.29,0.44,0.5,0.29,0.55,0.48,0.58,0.48,0.4,0.56,0.56,0.55,0.42,0.33,0.55,0.4,0.5,0.56,0.48,0.25" style="fill:rgb(0,0,0);font-family:URWPalladioL-Roma;font-size:8.97px;stroke:none;">@N-doped carbon foam for electrochemical energy storage.</text>
   <text y="381.904" x="416.446,419.492,421.7345,424.375,433.009,437.07,440.115,443.673,446.563,448.8055,453.056,459.157,463.729,467.287,474.402,476.6445,480.896" svgx:width="0.33,0.25,0.55,0.94,0.44,0.33,0.39,0.39,0.25,0.55,0.67,0.5,0.39,0.78,0.25,0.55,0.72" style="fill:rgb(0,0,0);font-family:URWPalladioL-Ital;font-size:8.97px;stroke:none;">J. Mater. Chem. A</text>
   <text y="381.904" x="490.096,494.579,499.062,503.546" svgx:width="0.5,0.5,0.5,0.5" style="fill:rgb(0,0,0);font-family:URWPalladioL-Bold;font-size:8.97px;stroke:none;">2018</text>
   <text y="381.904" x="508.029" svgx:width="0.25" style="fill:rgb(0,0,0);font-family:URWPalladioL-Roma;font-size:8.97px;stroke:none;">,</text>
   <text y="381.904" x="513.002" svgx:width="0.5" style="fill:rgb(0,0,0);font-family:URWPalladioL-Ital;font-size:8.97px;stroke:none;">6</text>
   <text y="381.904" x="517.575" svgx:width="0.25" style="fill:rgb(0,0,0);font-family:URWPalladioL-Roma;font-size:8.97px;stroke:none;">,</text>
   <text y="394.815" x="97.602,102.085,106.568,111.052,115.535,120.018,124.501,128.984,133.468,137.951,142.434,146.917,149.1595,152.297" svgx:width="0.5,0.5,0.5,0.5,0.5,0.5,0.5,0.5,0.5,0.5,0.5,0.25,0.55,0.33" style="fill:rgb(0,0,0);font-family:URWPalladioL-Roma;font-size:8.97px;stroke:none;">13012–13020. [</text>
   <text y="394.815" x="155.283,161.64,165.02,169.916,173.718,177.52,183.509,187.804" svgx:width="0.71,0.4,0.55,0.42,0.42,0.67,0.48,0.33" style="fill:rgb(8,117,183);font-family:URWPalladioL-Roma;font-size:8.97px;stroke:none;">CrossRef</text>
   <text y="394.815" x="190.79" svgx:width="0.33" style="fill:rgb(0,0,0);font-family:URWPalladioL-Roma;font-size:8.97px;stroke:none;">]</text>
   <text y="407.727" x="76.535,81.018,85.501,87.74350000000001,98.05,104.15,109.473,114.046,119.039,121.28150000000001,124.216,129.804,132.09,134.3325,137.578,143.678,149.193,151.43550000000002,154.369,159.473,161.759,166.707,168.993,171.2355,174.481,182.09,187.605,192.178,197.501,202.586,204.82850000000002,207.762,212.564,214.85,219.953,222.24,224.48250000000002,227.736,233.837,239.16,243.732,249.055,254.14,256.3825,259.317,265.956,268.243,270.4855,273.73,279.026,284.541,288.921,294.244,296.48650000000004,299.421,308.073,310.359,313.405,317.666,319.953,322.1955,325.44,331.541,337.055,339.2975,342.232,345.277,347.564,353.152,355.438,357.6805,360.935,366.02,371.535,373.77750000000003,376.702,382.802,385.089,391.189,393.475,395.71750000000003,398.972,403.773,409.288,414.611,416.8535,419.788,425.897,428.183,430.4255,433.68,441.993,446.987,452.31,457.395,459.6375,462.571,469.056,471.342,474.388,478.759,481.0015,483.927,488.499,495.40590000000003,498.468,504.578,511.556" svgx:width="0.5,0.5,0.25,0.55,0.67,0.58,0.5,0.55,0.25,0.55,0.61,0.25,0.25,0.55,0.67,0.6,0.25,0.55,0.67,0.25,0.61,0.25,0.25,0.55,0.83,0.6,0.5,0.58,0.56,0.25,0.55,0.52,0.25,0.67,0.25,0.25,0.55,0.67,0.58,0.5,0.58,0.56,0.25,0.55,0.73,0.25,0.25,0.55,0.67,0.6,0.48,0.58,0.25,0.55,0.95,0.25,0.33,0.56,0.25,0.25,0.55,0.67,0.6,0.25,0.55,0.33,0.25,0.61,0.25,0.25,0.55,0.56,0.6,0.25,0.55,0.67,0.25,0.67,0.25,0.25,0.55,0.52,0.6,0.58,0.25,0.55,0.67,0.25,0.25,0.55,1.0,0.55,0.58,0.56,0.25,0.55,0.71,0.25,0.33,0.6,0.25,0.55,0.5,0.77,0.55,0.67,0.76,0.79" style="fill:rgb(0,0,0);font-family:URWPalladioL-Roma;font-size:8.97px;stroke:none;">46. Zhao, B.; Xu, Y.T.; Huang, S.Y.; Zhang, K.; Yuen, M.-F.; Xu, J.B.; Fu, X.Z.; Sun, R.; Wong, C.-P. 3D RGO</text>
   <text y="420.638" x="98.05,101.03,104.564,109.039,116.94,121.227,128.69,133.575,137.11,142.085,145.85240000000002,148.135,155.598,159.132,163.606,168.984,174.363,178.649,184.1207,186.371,191.579,196.465,199.069,201.673,206.559,214.0041,216.277,220.071,225.449,230.657,234.944,238.478,241.082,245.055,249.53,252.1313,254.389,259.087,264.295" svgx:width="0.33,0.4,0.5,0.88,0.48,0.83,0.55,0.4,0.56,0.42,0.55,0.83,0.4,0.5,0.6,0.6,0.48,0.61,0.55,0.58,0.55,0.29,0.29,0.55,0.83,0.55,0.42,0.6,0.58,0.48,0.4,0.29,0.44,0.5,0.29,0.55,0.52,0.58,0.79" style="fill:rgb(0,0,0);font-family:URWPalladioL-Roma;font-size:8.97px;stroke:none;">frameworks wrapped hollow spherical SnO</text>
   <text y="422.43" x="271.331" svgx:width="0.5" style="fill:rgb(0,0,0);font-family:URWPalladioL-Roma;font-size:6.97px;stroke:none;">2</text>
   <text y="420.638" x="275.316,278.296,283.271" svgx:width="0.33,0.56,0.48" style="fill:rgb(0,0,0);font-family:URWPalladioL-Roma;font-size:8.97px;stroke:none;">-Fe</text>
   <text y="422.43" x="287.557" svgx:width="0.5" style="fill:rgb(0,0,0);font-family:URWPalladioL-Roma;font-size:6.97px;stroke:none;">2</text>
   <text y="420.638" x="291.542" svgx:width="0.79" style="fill:rgb(0,0,0);font-family:URWPalladioL-Roma;font-size:8.97px;stroke:none;">O</text>
   <text y="422.43" x="298.575" svgx:width="0.5" style="fill:rgb(0,0,0);font-family:URWPalladioL-Roma;font-size:6.97px;stroke:none;">3</text>
   <text y="420.638" x="304.817,312.718,317.005,320.799,325.685,331.063,335.949,339.322,344.208,349.604,353.3714,355.653,360.861,365.335,370.543,375.429,378.409,382.203,387.411,391.698,394.302,396.906,400.7,402.9425,406.105,411.08,415.554,420.503,424.037,426.641,430.615,435.089,438.006,440.61,445.496,450.704,452.9465,455.196,459.169,464.377,468.851,472.386,476.86,480.833,483.751,488.037,491.572,494.176,498.65,503.124,506.041,508.645,513.531" svgx:width="0.88,0.48,0.42,0.55,0.6,0.55,0.4,0.55,0.6,0.42,0.55,0.58,0.5,0.58,0.55,0.33,0.42,0.58,0.48,0.29,0.29,0.42,0.25,0.55,0.56,0.5,0.55,0.4,0.29,0.44,0.5,0.33,0.29,0.55,0.58,0.25,0.55,0.44,0.58,0.5,0.4,0.5,0.44,0.33,0.48,0.4,0.29,0.5,0.5,0.33,0.29,0.55,0.58" style="fill:rgb(0,0,0);font-family:URWPalladioL-Roma;font-size:8.97px;stroke:none;">mesoporous nano-shells: Fabrication, characterization</text>
   <text y="433.55" x="98.05,102.533,107.752,113.2237,115.472,118.081,120.69,123.613,128.832,131.441,136.848,147.007,150.808,153.731,158.627,162.169,166.652,171.637,175.9426,178.174,183.563,186.943,191.839,197.227,201.522,205.064,207.987,210.596,214.891,218.693" svgx:width="0.5,0.58,0.61,0.55,0.29,0.29,0.33,0.58,0.29,0.6,0.88,0.42,0.33,0.55,0.4,0.5,0.56,0.48,0.55,0.6,0.4,0.55,0.6,0.48,0.4,0.33,0.29,0.48,0.42,0.25" style="fill:rgb(0,0,0);font-family:URWPalladioL-Roma;font-size:8.97px;stroke:none;">and lithiumstorage properties.</text>
   <text y="433.55" x="224.071,229.549,232.042,235.53,239.179,242.165,245.492,249.473,253.122,257.605,260.098,267.074,269.3165,272.454,278.927,282.577,285.563" svgx:width="0.61,0.28,0.39,0.41,0.33,0.39,0.44,0.41,0.5,0.28,0.78,0.25,0.55,0.72,0.41,0.33,0.44" style="fill:rgb(0,0,0);font-family:URWPalladioL-Ital;font-size:8.97px;stroke:none;">Electrochim. Acta</text>
   <text y="433.55" x="291.784,296.267,300.75,305.234" svgx:width="0.5,0.5,0.5,0.5" style="fill:rgb(0,0,0);font-family:URWPalladioL-Bold;font-size:8.97px;stroke:none;">2016</text>
   <text y="433.55" x="309.717" svgx:width="0.25" style="fill:rgb(0,0,0);font-family:URWPalladioL-Roma;font-size:8.97px;stroke:none;">,</text>
   <text y="433.55" x="314.2,318.683,323.166" svgx:width="0.5,0.5,0.5" style="fill:rgb(0,0,0);font-family:URWPalladioL-Ital;font-size:8.97px;stroke:none;">202</text>
   <text y="433.55" x="327.65,329.8925,332.133,336.616,341.1,345.583,350.066,354.549,359.033,363.516,365.7585,368.896" svgx:width="0.25,0.55,0.5,0.5,0.5,0.5,0.5,0.5,0.5,0.25,0.55,0.33" style="fill:rgb(0,0,0);font-family:URWPalladioL-Roma;font-size:8.97px;stroke:none;">, 186–196. [</text>
   <text y="433.55" x="371.881,378.239,381.619,386.515,390.316,394.118,400.108,404.403" svgx:width="0.71,0.4,0.55,0.42,0.42,0.67,0.48,0.33" style="fill:rgb(8,117,183);font-family:URWPalladioL-Roma;font-size:8.97px;stroke:none;">CrossRef</text>
   <text y="433.55" x="407.388" svgx:width="0.33" style="fill:rgb(0,0,0);font-family:URWPalladioL-Roma;font-size:8.97px;stroke:none;">]</text>
   <text y="446.462" x="76.535,81.018,85.501,87.74350000000001,98.05,102.852,108.174,112.555,117.878,120.1205,123.347,128.935,131.222,133.46450000000002,137.157,142.745,145.407,150.921,153.1635,156.391,160.643,162.93,165.1725,168.875,175.359,180.682,185.062,190.385,192.6275,195.845,202.824,205.11,207.35250000000002,211.046,217.146,222.469,227.462,232.977,235.2195,238.446,246.055,248.342,255.951,258.237,260.47950000000003,264.173,269.761,274.142,276.3845,279.611,285.711,287.998,291.043,296.147,298.433,300.6755,304.369,313.066,318.581,320.8235,324.05,331.659,333.946,339.534,341.82,344.0625,347.756,356.078,360.651,365.974,371.059,373.30150000000003,376.528,383.507,385.793,388.0355,391.729,397.317,402.831,405.0735,408.301,413.404,415.69,419.952,422.1945,425.412,431.0,436.323,440.384,444.957,450.453,454.331,459.846,462.507,467.08,470.062,472.723,477.717,482.9196,486.222,491.216,494.1761,497.444,502.245,507.568" svgx:width="0.5,0.5,0.25,0.55,0.52,0.58,0.48,0.58,0.25,0.55,0.61,0.25,0.25,0.55,0.61,0.29,0.6,0.25,0.55,0.56,0.25,0.25,0.55,0.71,0.58,0.48,0.58,0.25,0.55,0.76,0.25,0.25,0.55,0.67,0.58,0.55,0.6,0.25,0.55,0.83,0.25,0.83,0.25,0.25,0.55,0.61,0.48,0.25,0.55,0.67,0.25,0.33,0.67,0.25,0.25,0.55,1.0,0.6,0.25,0.55,0.83,0.25,0.61,0.25,0.25,0.55,1.0,0.5,0.58,0.56,0.25,0.55,0.76,0.25,0.25,0.55,0.61,0.6,0.25,0.55,0.67,0.25,0.56,0.25,0.55,0.61,0.58,0.44,0.5,0.6,0.42,0.6,0.29,0.5,0.33,0.29,0.55,0.58,0.55,0.55,0.33,0.55,0.52,0.58,0.79" style="fill:rgb(0,0,0);font-family:URWPalladioL-Roma;font-size:8.97px;stroke:none;">47. Shen, L.; Liu, F.; Chen, G.; Zhou, H.H.; Le, Z.-Y.; Wu, H.B.; Wang, G.; Lu, Y.F. Encapsulation of SnO</text>
   <text y="448.253" x="514.755" svgx:width="0.5" style="fill:rgb(0,0,0);font-family:URWPalladioL-Roma;font-size:6.97px;stroke:none;">2</text>
   <text y="459.373" x="98.05,103.373,107.946,113.268,118.262,122.323,125.935,131.02,134.898,137.88,142.453,145.114,148.8814,151.397,154.058,159.381,162.363,167.2965,169.762,175.084,177.746,182.127,185.739,190.312,193.76,197.821,203.144,205.805,209.866,214.439,217.1,219.761,224.7842,227.252,232.748,237.742,241.199,246.192,251.707,255.4744,257.99,262.051,266.624,270.237,275.294,280.288,285.49060000000003,288.016,293.073,298.09619999999995,300.564,308.639,313.02,315.682,318.6421,321.069,323.73,329.053,334.586,337.247,340.229,343.841,348.414,351.396,354.057,359.051,364.2536,366.779,369.824,374.818,378.406,380.836,386.159,388.82,393.905,399.228,402.273,407.77,412.151,415.763,418.809,423.802,427.415,435.491,440.064,445.386,449.447,453.75260000000003,456.233,458.895,461.556,464.538,469.86,472.522,478.037,485.93059999999997,488.518,492.395,495.377,500.371,503.983,508.556,513.641,518.022" svgx:width="0.58,0.5,0.58,0.55,0.44,0.4,0.56,0.42,0.33,0.5,0.29,0.42,0.55,0.29,0.58,0.33,0.55,0.55,0.58,0.29,0.48,0.4,0.5,0.4,0.44,0.58,0.29,0.44,0.5,0.29,0.29,0.56,0.55,0.6,0.55,0.4,0.55,0.6,0.42,0.55,0.44,0.5,0.4,0.55,0.55,0.58,0.55,0.55,0.56,0.55,0.88,0.48,0.29,0.33,0.55,0.29,0.58,0.61,0.29,0.33,0.4,0.5,0.33,0.29,0.55,0.58,0.55,0.33,0.55,0.4,0.55,0.58,0.29,0.56,0.58,0.33,0.6,0.48,0.4,0.33,0.55,0.4,0.88,0.5,0.58,0.44,0.48,0.55,0.29,0.29,0.33,0.58,0.29,0.6,0.88,0.55,0.42,0.33,0.55,0.4,0.5,0.56,0.48,0.25" style="fill:rgb(0,0,0);font-family:URWPalladioL-Roma;font-size:8.97px;stroke:none;">nanocrystals into hierarchically porous carbon by melt inﬁltration for high-performance lithium storage.</text>
   <text y="472.285" x="98.05,101.036,103.27850000000001,105.519,113.983,117.964,120.95,124.438,127.263,129.5055,132.642,138.623,143.106,146.594,153.57,155.8125,158.95" svgx:width="0.33,0.25,0.55,0.94,0.44,0.33,0.39,0.39,0.25,0.55,0.67,0.5,0.39,0.78,0.25,0.55,0.72" style="fill:rgb(0,0,0);font-family:URWPalladioL-Ital;font-size:8.97px;stroke:none;">J. Mater. Chem. A</text>
   <text y="472.285" x="167.665,172.148,176.631,181.115" svgx:width="0.5,0.5,0.5,0.5" style="fill:rgb(0,0,0);font-family:URWPalladioL-Bold;font-size:8.97px;stroke:none;">2016</text>
   <text y="472.285" x="185.597" svgx:width="0.25" style="fill:rgb(0,0,0);font-family:URWPalladioL-Roma;font-size:8.97px;stroke:none;">,</text>
   <text y="472.285" x="190.081" svgx:width="0.5" style="fill:rgb(0,0,0);font-family:URWPalladioL-Ital;font-size:8.97px;stroke:none;">4</text>
   <text y="472.285" x="194.564,196.8065,199.047,203.53,208.014,212.497,216.98,221.463,225.946,230.43,234.913,239.396,243.879,248.362,250.6045,253.742" svgx:width="0.25,0.55,0.5,0.5,0.5,0.5,0.5,0.5,0.5,0.5,0.5,0.5,0.5,0.25,0.55,0.33" style="fill:rgb(0,0,0);font-family:URWPalladioL-Roma;font-size:8.97px;stroke:none;">, 18706–18710. [</text>
   <text y="472.285" x="256.728,263.085,266.466,271.361,275.163,278.965,284.954,289.249" svgx:width="0.71,0.4,0.55,0.42,0.42,0.67,0.48,0.33" style="fill:rgb(8,117,183);font-family:URWPalladioL-Roma;font-size:8.97px;stroke:none;">CrossRef</text>
   <text y="472.285" x="292.235" svgx:width="0.33" style="fill:rgb(0,0,0);font-family:URWPalladioL-Roma;font-size:8.97px;stroke:none;">]</text>
   <text y="485.196" x="76.535,81.018,85.501,87.74350000000001,98.05,105.532,110.955,113.1975,115.443,121.451,123.699,129.697,131.946,134.1885,136.433,143.502,148.925,153.925,158.422,163.656,168.656,170.8985,173.153,178.153,180.402,184.673,186.922,189.1645,191.418,196.913,199.521,204.018,209.252,214.252,216.49450000000002,218.749,223.596,225.845,228.0875,230.332,238.498,242.995,248.229,253.229,255.47150000000002,257.726,265.208,267.457,269.6995,271.944,277.439,280.056,285.479,287.7215,289.967,292.962,295.21,297.4525,299.698,306.074,311.308,315.616,320.85,323.09250000000003,325.338,328.332,330.581,332.8235,335.077,340.248,344.745,349.979,354.979,357.2215,359.467,365.843,368.092,375.574,377.822,380.0645,382.31,387.481,391.978,397.212,402.212,404.4545,406.709,412.204,414.452,420.828,423.077,425.3195,427.564,433.563,438.797,444.22,446.46250000000003,448.708,457.215,459.4575,461.703,466.424,469.356,473.853,478.826,481.443,484.06,486.677,491.174,493.791,499.025,504.04819999999995,506.265,509.197,514.431" svgx:width="0.5,0.5,0.25,0.55,0.83,0.6,0.25,0.55,0.67,0.25,0.67,0.25,0.25,0.55,0.79,0.6,0.56,0.5,0.58,0.56,0.25,0.55,0.67,0.25,0.6,0.25,0.25,0.55,0.61,0.29,0.5,0.58,0.56,0.25,0.55,0.61,0.25,0.25,0.55,1.0,0.5,0.58,0.56,0.25,0.55,0.83,0.25,0.25,0.55,0.61,0.29,0.6,0.25,0.55,0.33,0.25,0.25,0.55,0.71,0.58,0.48,0.58,0.25,0.55,0.33,0.25,0.25,0.55,0.67,0.5,0.58,0.56,0.25,0.55,0.71,0.25,0.83,0.25,0.25,0.55,0.67,0.5,0.58,0.56,0.25,0.55,0.61,0.25,0.71,0.25,0.25,0.55,0.67,0.58,0.6,0.25,0.55,0.95,0.25,0.55,0.52,0.33,0.5,0.55,0.29,0.29,0.29,0.5,0.29,0.58,0.56,0.55,0.33,0.58,0.48" style="fill:rgb(0,0,0);font-family:URWPalladioL-Roma;font-size:8.97px;stroke:none;">48. Hu, R.Z.; Ouyang, Y.P.; Liang, T.; Wang, H.; Liu, J.; Chen, J.; Yang, C.H.; Yang, L.C.; Zhu, M. Stabilizing the</text>
   <text y="498.108" x="98.05,105.427,109.865,115.031,119.878,123.642,126.535,129.971,135.323,139.265,142.159,147.511,150.858,155.1636,157.338,162.184,165.1441,167.368,172.029,177.195" svgx:width="0.83,0.5,0.58,0.55,0.42,0.33,0.4,0.6,0.44,0.33,0.6,0.4,0.48,0.55,0.55,0.33,0.55,0.52,0.58,0.79" style="fill:rgb(0,0,0);font-family:URWPalladioL-Roma;font-size:8.97px;stroke:none;">Nanostructure of SnO</text>
   <text y="499.9" x="184.173" svgx:width="0.5" style="fill:rgb(0,0,0);font-family:URWPalladioL-Roma;font-size:6.97px;stroke:none;">2</text>
   <text y="498.108" x="190.388,197.294,202.46,207.307,212.731,216.983,220.7504,222.974,227.883,232.9062,235.047,239.68,243.187,247.625,252.791,256.555,259.138,262.032,264.615,269.462,274.6646,276.865,285.263,289.515,292.408,296.847,299.43,303.194,305.4365,308.537,315.5336,317.68,323.61,328.457,333.809,336.703,341.0086,343.183,346.077,351.0105,353.152,360.058,363.999,369.165,371.749,376.001,381.016,385.32160000000005,387.496,394.881,397.465,402.4,407.6026,409.794,412.786,417.952,420.535,423.429,426.012,430.45,433.05129999999997,435.271,441.564,446.411,451.763,454.347,459.184,467.023,471.931,474.515,478.4618,480.693" svgx:width="0.78,0.58,0.55,0.61,0.48,0.42,0.55,0.55,0.56,0.55,0.61,0.4,0.5,0.58,0.42,0.29,0.33,0.29,0.55,0.58,0.55,0.95,0.48,0.33,0.5,0.29,0.42,0.25,0.55,0.78,0.55,0.67,0.55,0.6,0.33,0.48,0.55,0.33,0.55,0.55,0.78,0.44,0.58,0.29,0.48,0.56,0.48,0.55,0.83,0.29,0.56,0.58,0.55,0.34,0.58,0.29,0.33,0.29,0.5,0.29,0.55,0.71,0.55,0.6,0.29,0.55,0.88,0.55,0.29,0.44,0.55,0.61" style="fill:rgb(0,0,0);font-family:URWPalladioL-Roma;font-size:8.97px;stroke:none;">Anodes by Transition Metals: A Route to Achieve High Initial Coulombic E</text>
   <text y="498.108" x="486.113" svgx:width="0.92" style="fill:rgb(0,0,0);font-family:Rpxr;font-size:8.97px;stroke:none;">ﬃ</text>
   <text y="498.108" x="494.271,498.212,500.795,505.047,510.214,514.155" svgx:width="0.44,0.29,0.48,0.58,0.44,0.56" style="fill:rgb(0,0,0);font-family:URWPalladioL-Roma;font-size:8.97px;stroke:none;">ciency</text>
   <text y="511.02" x="98.05,102.533,107.752,113.2237,115.472,120.179,123.102,127.585,132.544,135.153,139.4586,141.689,148.047,152.53,157.919,162.402,166.383,168.992,171.915,174.524,178.819,182.5864,184.863,187.849,192.744,196.332,198.527,204.006,206.615,209.538,214.757,217.366,222.773,232.932,237.639,240.562,245.458,248.999,253.483,258.468,262.763" svgx:width="0.5,0.58,0.61,0.55,0.52,0.33,0.5,0.55,0.29,0.48,0.55,0.71,0.5,0.6,0.5,0.44,0.29,0.33,0.29,0.48,0.42,0.55,0.33,0.55,0.4,0.55,0.61,0.29,0.33,0.58,0.29,0.6,0.88,0.52,0.33,0.55,0.4,0.5,0.56,0.48,0.25" style="fill:rgb(0,0,0);font-family:URWPalladioL-Roma;font-size:8.97px;stroke:none;">and Stable Capacities for LithiumStorage.</text>
   <text y="511.02" x="268.141,274.615,279.098,283.088,285.33050000000003,288.468,296.932,300.913,303.899,307.387,310.211" svgx:width="0.72,0.5,0.5,0.25,0.55,0.94,0.44,0.33,0.39,0.39,0.25" style="fill:rgb(0,0,0);font-family:URWPalladioL-Ital;font-size:8.97px;stroke:none;">Adv. Mater.</text>
   <text y="511.02" x="315.59,320.073,324.556,329.04" svgx:width="0.5,0.5,0.5,0.5" style="fill:rgb(0,0,0);font-family:URWPalladioL-Bold;font-size:8.97px;stroke:none;">2017</text>
   <text y="511.02" x="333.523" svgx:width="0.25" style="fill:rgb(0,0,0);font-family:URWPalladioL-Roma;font-size:8.97px;stroke:none;">,</text>
   <text y="511.02" x="338.006,342.489" svgx:width="0.5,0.5" style="fill:rgb(0,0,0);font-family:URWPalladioL-Ital;font-size:8.97px;stroke:none;">29</text>
   <text y="511.02" x="346.973,349.2155,351.456,355.939,360.423,364.906,369.389,373.872,378.356,382.839,385.0815,388.219" svgx:width="0.25,0.55,0.5,0.5,0.5,0.5,0.5,0.5,0.5,0.25,0.55,0.33" style="fill:rgb(0,0,0);font-family:URWPalladioL-Roma;font-size:8.97px;stroke:none;">, 1605006. [</text>
   <text y="511.02" x="391.204,397.562,400.942,405.838,409.639,413.441,419.431,423.726" svgx:width="0.71,0.4,0.55,0.42,0.42,0.67,0.48,0.33" style="fill:rgb(8,117,183);font-family:URWPalladioL-Roma;font-size:8.97px;stroke:none;">CrossRef</text>
   <text y="511.02" x="426.711" svgx:width="0.33" style="fill:rgb(0,0,0);font-family:URWPalladioL-Roma;font-size:8.97px;stroke:none;">]</text>
   <text y="523.931" x="76.535,81.018,85.501,87.74350000000001,98.05,106.373,110.945,116.268,121.353,123.5955,125.99,132.475,134.761,137.0035,139.462,145.562,150.885,155.878,161.393,163.6355,166.03,171.134,173.42,175.6625,178.121,185.099,189.48,191.7225,194.117,202.769,205.055,210.168,212.454,214.69650000000001,217.146,223.246,228.761,231.0035,233.407,239.507,241.793,247.382,249.668,251.9105,254.36,260.46,265.783,270.356,275.678,280.763,283.0055,285.409,291.51,293.796,299.384,301.671,303.9135,306.362,309.408,312.069,316.642,321.965,327.05,329.2925,331.696,334.742,337.028,343.128,345.3705,347.765,353.353,357.926,361.374,366.459,370.84,373.885,378.687,382.748,387.32,389.982,394.28760000000005,396.722,401.524,406.609,411.932,414.913,420.236,424.617,428.494,431.156,434.9234,437.384,442.378,445.3381,447.783,452.584,457.907" svgx:width="0.5,0.5,0.25,0.55,1.0,0.5,0.58,0.56,0.25,0.55,0.71,0.25,0.25,0.55,0.67,0.58,0.55,0.6,0.25,0.55,0.67,0.25,0.25,0.55,0.76,0.48,0.25,0.55,0.95,0.25,0.67,0.25,0.25,0.55,0.67,0.6,0.25,0.55,0.67,0.25,0.61,0.25,0.25,0.55,0.67,0.58,0.5,0.58,0.56,0.25,0.55,0.67,0.25,0.61,0.25,0.25,0.55,0.33,0.29,0.5,0.58,0.56,0.25,0.55,0.33,0.25,0.67,0.25,0.55,0.61,0.5,0.4,0.56,0.48,0.33,0.52,0.44,0.5,0.29,0.48,0.55,0.52,0.56,0.58,0.33,0.58,0.48,0.42,0.29,0.42,0.55,0.55,0.33,0.55,0.52,0.58,0.79" style="fill:rgb(0,0,0);font-family:URWPalladioL-Roma;font-size:8.97px;stroke:none;">49. Wang, C.; Zhou, Y.; Ge, M.Y.; Xu, X.B.; Zhang, Z.L.; Jiang, J.Z. Large-Scale Synthesis of SnO</text>
   <text y="525.723" x="465.091" svgx:width="0.5" style="fill:rgb(0,0,0);font-family:URWPalladioL-Roma;font-size:6.97px;stroke:none;">2</text>
   <text y="523.931" x="471.43,479.03,483.603,488.926,493.919,497.797,503.12,507.501,511.882,514.863" svgx:width="0.83,0.5,0.58,0.55,0.42,0.58,0.48,0.48,0.33,0.42" style="fill:rgb(0,0,0);font-family:URWPalladioL-Roma;font-size:8.97px;stroke:none;">Nanosheets</text>
   <text y="536.843" x="97.674,105.152,107.761,110.684,115.8866,118.144,125.604,128.214,133.199,138.4016,140.659,146.137,148.747,151.67,156.888,159.497,164.904,175.063,179.77,182.693,187.589,191.131,195.614,200.599,204.9046,207.136,213.493,217.976,223.365,227.848,231.829,234.439,237.362,241.352" svgx:width="0.83,0.29,0.33,0.58,0.55,0.83,0.29,0.56,0.58,0.55,0.61,0.29,0.33,0.58,0.29,0.6,0.88,0.52,0.33,0.55,0.4,0.5,0.56,0.48,0.55,0.71,0.5,0.6,0.5,0.44,0.29,0.33,0.56,0.25" style="fill:rgb(0,0,0);font-family:URWPalladioL-Roma;font-size:8.97px;stroke:none;">with High LithiumStorage Capacity.</text>
   <text y="536.843" x="246.729,249.715,251.9575,254.198,260.672,267.648,269.89050000000003,273.027,279.008,283.491,286.979,293.955,296.1975,299.335,304.32,308.301,311.951" svgx:width="0.33,0.25,0.55,0.72,0.78,0.25,0.55,0.67,0.5,0.39,0.78,0.25,0.55,0.56,0.44,0.41,0.25" style="fill:rgb(0,0,0);font-family:URWPalladioL-Ital;font-size:8.97px;stroke:none;">J. Am. Chem. Soc.</text>
   <text y="536.843" x="317.33,321.813,326.296,330.78" svgx:width="0.5,0.5,0.5,0.5" style="fill:rgb(0,0,0);font-family:URWPalladioL-Bold;font-size:8.97px;stroke:none;">2010</text>
   <text y="536.843" x="335.263" svgx:width="0.25" style="fill:rgb(0,0,0);font-family:URWPalladioL-Roma;font-size:8.97px;stroke:none;">,</text>
   <text y="536.843" x="339.746,344.229,348.712" svgx:width="0.5,0.5,0.5" style="fill:rgb(0,0,0);font-family:URWPalladioL-Ital;font-size:8.97px;stroke:none;">132</text>
   <text y="536.843" x="353.195,355.4375,357.678,362.161,366.645,371.128,375.611,380.094,382.3365,385.474" svgx:width="0.25,0.55,0.5,0.5,0.5,0.5,0.5,0.25,0.55,0.33" style="fill:rgb(0,0,0);font-family:URWPalladioL-Roma;font-size:8.97px;stroke:none;">, 46–47. [</text>
   <text y="536.843" x="388.46,394.817,398.197,403.093,406.895,410.697,416.686,420.981" svgx:width="0.71,0.4,0.55,0.42,0.42,0.67,0.48,0.33" style="fill:rgb(8,117,183);font-family:URWPalladioL-Roma;font-size:8.97px;stroke:none;">CrossRef</text>
   <text y="536.843" x="423.967" svgx:width="0.33" style="fill:rgb(0,0,0);font-family:URWPalladioL-Roma;font-size:8.97px;stroke:none;">]</text>
   <text y="549.754" x="76.535,81.018,85.501,87.74350000000001,98.05,105.45,110.814,115.261,120.438,125.383,127.6255,129.84,135.274,137.498,139.7405,141.963,147.398,149.986,152.2285,154.442,160.375,162.599,169.999,172.223,174.46550000000002,176.688,182.06,186.321,188.909,191.1515,193.365,198.302,200.525,202.7675,204.991,210.425,213.005,215.2475,217.47,222.139,224.363,226.6055,228.819,235.126,239.573,244.429,246.6715,248.895,254.827,257.051,259.2935,261.507,269.922,274.369,278.14,281.912,286.172,288.41450000000003,290.628,296.57,298.794,301.756,308.062,310.286,312.5285,314.751,321.057,325.504,330.361,332.6035,334.817,341.604,343.827,349.76,352.0025,354.216,361.608,366.464,371.49,375.75,378.3513,380.58,386.886,391.334,394.847,399.766,404.622,409.799,412.761,418.196,423.372,427.322,431.769,437.115,440.886,446.249,448.838,453.285,456.185,460.445,465.9167,468.113,473.485,478.341,481.695,486.551,491.915,495.68240000000003,497.919,502.588,507.765" svgx:width="0.5,0.5,0.25,0.55,0.83,0.6,0.5,0.58,0.56,0.25,0.55,0.61,0.25,0.25,0.55,0.61,0.29,0.25,0.55,0.67,0.25,0.83,0.25,0.25,0.55,0.6,0.48,0.29,0.25,0.55,0.67,0.25,0.25,0.55,0.61,0.29,0.25,0.55,0.52,0.25,0.25,0.55,0.71,0.5,0.55,0.25,0.55,0.67,0.25,0.25,0.55,0.95,0.5,0.42,0.42,0.48,0.25,0.55,0.67,0.25,0.33,0.71,0.25,0.25,0.55,0.71,0.5,0.55,0.25,0.55,0.76,0.25,0.67,0.25,0.55,0.83,0.55,0.56,0.48,0.29,0.55,0.71,0.5,0.4,0.55,0.55,0.58,0.33,0.61,0.58,0.44,0.5,0.6,0.42,0.6,0.29,0.5,0.33,0.48,0.61,0.55,0.6,0.55,0.4,0.55,0.6,0.42,0.55,0.52,0.58,0.79" style="fill:rgb(0,0,0);font-family:URWPalladioL-Roma;font-size:8.97px;stroke:none;">50. Huang, B.; Li, X.H.; Pei, Y.; Li, S.; Cao, X.; Masse, R.-C.; Cao, G.Z. Novel Carbon-Encapsulated Porous SnO</text>
   <text y="551.546" x="514.755" svgx:width="0.5" style="fill:rgb(0,0,0);font-family:URWPalladioL-Roma;font-size:6.97px;stroke:none;">2</text>
   <text y="562.666" x="97.701,104.558,109.688,114.5,119.886,124.1916,126.346,129.281,134.094,137.682,139.805,145.191,147.756,150.629,155.759,158.323,163.638,171.421,174.356,177.326,182.139,187.3416,189.507,194.893,199.3,202.173,205.046,209.268,212.75,215.315,219.536,223.3034,225.504,232.854,235.419,238.293,243.4956,245.661,253.999,259.314,263.227,268.4296,270.596,273.566,281.349,286.646,289.96,294.773,299.752,303.974,309.4457,311.598,317.848,322.748,326.661,329.226,331.791,335.7378,337.943,342.571,345.444,349.851,354.725,357.29,359.846,362.411,365.284,369.198" svgx:width="0.78,0.58,0.55,0.61,0.48,0.55,0.33,0.55,0.4,0.55,0.61,0.29,0.33,0.58,0.29,0.6,0.88,0.33,0.34,0.55,0.58,0.55,0.61,0.5,0.33,0.33,0.48,0.4,0.29,0.48,0.42,0.55,0.83,0.29,0.33,0.58,0.55,0.95,0.6,0.44,0.58,0.55,0.34,0.88,0.6,0.4,0.55,0.56,0.48,0.61,0.55,0.71,0.56,0.44,0.29,0.29,0.44,0.55,0.52,0.33,0.5,0.55,0.29,0.29,0.29,0.33,0.56,0.25" style="fill:rgb(0,0,0);font-family:URWPalladioL-Roma;font-size:8.97px;stroke:none;">Anode for Lithium-Ion Batteries with Much Improved Cyclic Stability.</text>
   <text y="562.666" x="374.533,379.434,386.291,390.204,392.655" svgx:width="0.56,0.78,0.44,0.28,0.28" style="fill:rgb(0,0,0);font-family:URWPalladioL-Ital;font-size:8.97px;stroke:none;">Small</text>
   <text y="562.666" x="397.34,401.823,406.306,410.79" svgx:width="0.5,0.5,0.5,0.5" style="fill:rgb(0,0,0);font-family:URWPalladioL-Bold;font-size:8.97px;stroke:none;">2016</text>
   <text y="562.666" x="415.273" svgx:width="0.25" style="fill:rgb(0,0,0);font-family:URWPalladioL-Roma;font-size:8.97px;stroke:none;">,</text>
   <text y="562.666" x="419.713,424.12" svgx:width="0.5,0.5" style="fill:rgb(0,0,0);font-family:URWPalladioL-Ital;font-size:8.97px;stroke:none;">12</text>
   <text y="562.666" x="428.527,430.7695,432.969,437.376,441.783,446.19,450.597,455.004,459.411,463.818,468.225,472.632,474.8745,477.973" svgx:width="0.25,0.55,0.5,0.5,0.5,0.5,0.5,0.5,0.5,0.5,0.5,0.25,0.55,0.33" style="fill:rgb(0,0,0);font-family:URWPalladioL-Roma;font-size:8.97px;stroke:none;">, 1945–1955. [</text>
   <text y="562.666" x="480.908,487.158,490.472,495.284,499.021,502.758,508.646,512.868" svgx:width="0.71,0.4,0.55,0.42,0.42,0.67,0.48,0.33" style="fill:rgb(8,117,183);font-family:URWPalladioL-Roma;font-size:8.97px;stroke:none;">CrossRef</text>
   <text y="562.666" x="515.803" svgx:width="0.33" style="fill:rgb(0,0,0);font-family:URWPalladioL-Roma;font-size:8.97px;stroke:none;">]</text>
   <text y="575.578" x="76.535,81.018,85.501,87.74350000000001,98.05,105.028,110.543,115.537,117.77950000000001,120.338,123.384,125.67,131.77,134.057,136.2995,138.986,145.471,150.793,155.174,160.497,162.73950000000002,165.299,170.887,173.173,175.4155,178.112,186.425,190.998,196.321,201.406,203.6485,206.207,213.186,215.472,218.518,220.804,223.0465,225.743,231.843,237.166,241.739,247.061,252.146,254.3885,256.939,263.039,265.325,267.5675,270.264,275.852,278.514,280.7565,283.315,287.568,289.854,294.116,296.3585,298.918,302.0,307.2026,309.838,313.715,316.377,319.358,324.74,327.379,331.257,336.342,341.665,344.646,349.969,354.35,358.228,360.889,364.6564,367.282,372.275,375.2351,377.836,382.638,387.96" svgx:width="0.5,0.5,0.25,0.55,0.76,0.6,0.55,0.25,0.55,0.33,0.25,0.67,0.25,0.25,0.55,0.71,0.58,0.48,0.58,0.25,0.55,0.61,0.25,0.25,0.55,1.0,0.5,0.58,0.56,0.25,0.55,0.76,0.25,0.33,0.25,0.25,0.55,0.67,0.58,0.5,0.58,0.56,0.25,0.55,0.67,0.25,0.25,0.55,0.61,0.29,0.25,0.55,0.56,0.25,0.56,0.25,0.55,0.34,0.58,0.55,0.42,0.29,0.33,0.6,0.55,0.42,0.56,0.58,0.33,0.58,0.48,0.42,0.29,0.42,0.55,0.55,0.33,0.55,0.52,0.58,0.79" style="fill:rgb(0,0,0);font-family:URWPalladioL-Roma;font-size:8.97px;stroke:none;">51. Guo, J.X.; Chen, L.; Wang, G.J.; Zhang, X.; Li, F.F. In situ synthesis of SnO</text>
   <text y="577.369" x="395.146" svgx:width="0.5" style="fill:rgb(0,0,0);font-family:URWPalladioL-Roma;font-size:6.97px;stroke:none;">2</text>
   <text y="575.578" x="399.131,402.177,407.262" svgx:width="0.33,0.56,0.48" style="fill:rgb(0,0,0);font-family:URWPalladioL-Roma;font-size:8.97px;stroke:none;">-Fe</text>
   <text y="577.369" x="411.642" svgx:width="0.5" style="fill:rgb(0,0,0);font-family:URWPalladioL-Roma;font-size:6.97px;stroke:none;">2</text>
   <text y="575.578" x="415.627" svgx:width="0.79" style="fill:rgb(0,0,0);font-family:URWPalladioL-Roma;font-size:8.97px;stroke:none;">O</text>
   <text y="577.369" x="422.816" svgx:width="0.5" style="fill:rgb(0,0,0);font-family:URWPalladioL-Roma;font-size:6.97px;stroke:none;">3</text>
   <text y="575.578" x="426.801,433.633,439.129,444.123,446.784,451.869,456.442,461.765,464.427,467.088,469.749,475.072,479.37760000000003,481.968,486.541,491.864,497.3357,499.958,502.939,508.262,512.643,515.304" svgx:width="0.75,0.6,0.55,0.29,0.56,0.5,0.58,0.29,0.29,0.29,0.58,0.48,0.55,0.5,0.58,0.61,0.55,0.33,0.58,0.48,0.29,0.4" style="fill:rgb(0,0,0);font-family:URWPalladioL-Roma;font-size:8.97px;stroke:none;">@polyaniline and their</text>
   <text y="588.489" x="98.05,101.951,106.749,111.863,116.828,121.037,124.508,128.234,130.791,135.588,140.79059999999998,142.943,145.808,150.7415,152.837,157.451,162.565" svgx:width="0.44,0.55,0.58,0.56,0.48,0.4,0.42,0.29,0.55,0.58,0.55,0.33,0.55,0.55,0.52,0.58,0.79" style="fill:rgb(0,0,0);font-family:URWPalladioL-Roma;font-size:8.97px;stroke:none;">conversion to SnO</text>
   <text y="590.281" x="169.473" svgx:width="0.5" style="fill:rgb(0,0,0);font-family:URWPalladioL-Roma;font-size:6.97px;stroke:none;">2</text>
   <text y="588.489" x="173.458,177.852,182.737" svgx:width="0.5,0.56,0.48" style="fill:rgb(0,0,0);font-family:URWPalladioL-Roma;font-size:8.97px;stroke:none;">–Fe</text>
   <text y="590.281" x="186.946" svgx:width="0.5" style="fill:rgb(0,0,0);font-family:URWPalladioL-Roma;font-size:6.97px;stroke:none;">2</text>
   <text y="588.489" x="190.931" svgx:width="0.79" style="fill:rgb(0,0,0);font-family:URWPalladioL-Roma;font-size:8.97px;stroke:none;">O</text>
   <text y="590.281" x="197.838" svgx:width="0.5" style="fill:rgb(0,0,0);font-family:URWPalladioL-Roma;font-size:6.97px;stroke:none;">3</text>
   <text y="588.489" x="201.823,208.387,214.7557,216.858,220.759,225.557,233.316,238.597,243.395,247.12,249.677,252.542,256.8476,258.983,263.376,267.1434,269.343,272.269,277.568,280.125,282.682,287.7052,289.799,293.112,297.321,302.286,306.495,309.965,313.691,316.248,321.107,323.664,327.9696,330.114,334.508,339.622,344.42,349.788,354.09360000000004,356.229,363.988,368.382,371.246,375.455,378.926,381.483,385.877,388.4783,390.675,393.601,398.398,401.98600000000005,404.101,406.658,409.215,412.08,417.194,419.751,425.05,432.809,435.735,438.292,443.089,448.2916,450.444,455.303,459.697,462.562,465.426,469.635,473.106,475.663,479.872,483.598" svgx:width="0.75,0.71,0.55,0.44,0.55,0.88,0.6,0.55,0.42,0.29,0.33,0.48,0.55,0.5,0.42,0.55,0.33,0.6,0.29,0.29,0.56,0.55,0.4,0.48,0.56,0.48,0.4,0.42,0.29,0.55,0.29,0.48,0.55,0.5,0.58,0.55,0.61,0.48,0.55,0.88,0.5,0.33,0.48,0.4,0.29,0.5,0.29,0.55,0.33,0.55,0.4,0.55,0.29,0.29,0.33,0.58,0.29,0.6,0.88,0.33,0.29,0.55,0.58,0.55,0.55,0.5,0.33,0.33,0.48,0.4,0.29,0.48,0.42,0.25" style="fill:rgb(0,0,0);font-family:URWPalladioL-Roma;font-size:8.97px;stroke:none;">@C composite as fully reversible anode material for lithium-ion batteries.</text>
   <text y="588.489" x="488.929,491.855,494.0975,496.293,501.661,505.563,511.907,515.325" svgx:width="0.33,0.25,0.55,0.61,0.44,0.72,0.39,0.39" style="fill:rgb(0,0,0);font-family:URWPalladioL-Ital;font-size:8.97px;stroke:none;">J. Power</text>
   <text y="601.401" x="97.799,102.784,106.765,111.751,115.077,118.727,122.215" svgx:width="0.56,0.44,0.56,0.39,0.41,0.39,0.39" style="fill:rgb(0,0,0);font-family:URWPalladioL-Ital;font-size:8.97px;stroke:none;">Sources</text>
   <text y="601.401" x="127.944,132.427,136.91,141.394" svgx:width="0.5,0.5,0.5,0.5" style="fill:rgb(0,0,0);font-family:URWPalladioL-Bold;font-size:8.97px;stroke:none;">2014</text>
   <text y="601.401" x="145.877" svgx:width="0.25" style="fill:rgb(0,0,0);font-family:URWPalladioL-Roma;font-size:8.97px;stroke:none;">,</text>
   <text y="601.401" x="150.36,154.843,159.326" svgx:width="0.5,0.5,0.5" style="fill:rgb(0,0,0);font-family:URWPalladioL-Ital;font-size:8.97px;stroke:none;">246</text>
   <text y="601.401" x="163.809,166.0515,168.292,172.775,177.259,181.742,186.225,190.708,195.191,199.675,201.91750000000002,205.054" svgx:width="0.25,0.55,0.5,0.5,0.5,0.5,0.5,0.5,0.5,0.25,0.55,0.33" style="fill:rgb(0,0,0);font-family:URWPalladioL-Roma;font-size:8.97px;stroke:none;">, 862–867. [</text>
   <text y="601.401" x="208.04,214.397,217.778,222.673,226.475,230.277,236.267,240.561" svgx:width="0.71,0.4,0.55,0.42,0.42,0.67,0.48,0.33" style="fill:rgb(8,117,183);font-family:URWPalladioL-Roma;font-size:8.97px;stroke:none;">CrossRef</text>
   <text y="601.401" x="243.547" svgx:width="0.33" style="fill:rgb(0,0,0);font-family:URWPalladioL-Roma;font-size:8.97px;stroke:none;">]</text>
   <text y="614.312" x="76.535,81.018,85.501,87.74350000000001,98.05,106.282,110.81,116.081,121.116,123.3585,125.626,130.67,132.934,135.1765,137.444,146.056,151.517,153.7595,156.027,162.448,164.712,167.727,169.991,172.23350000000002,174.501,183.114,188.574,190.81650000000002,193.084,199.125,201.389,208.299,210.563,212.8055,215.073,221.493,226.954,229.589,231.8315,234.099,241.009,243.273,251.505,253.769,256.0115,258.279,264.319,266.955,271.293,273.5355,275.803,280.014,282.278,287.322,289.586,291.8285,294.105,301.015,306.475,311.42,313.6625,315.93,321.97,324.234,331.244,333.508,335.7505,338.018,342.772,348.233,353.504,355.7465,358.014,364.054,366.318,370.629,372.8715,375.139,380.174,384.512,389.894,392.236,397.507,402.035,407.297,412.241,415.664,420.609,426.0807,428.388,432.916,436.493,440.071,444.599,449.634,453.4014,455.72,460.664,465.8666,468.181,472.202,476.73,480.307,485.315,490.259,495.46160000000003,497.776,501.797,504.432,509.377,512.329,517.6" svgx:width="0.5,0.5,0.25,0.55,1.0,0.5,0.58,0.56,0.25,0.55,0.67,0.25,0.25,0.55,1.0,0.6,0.25,0.55,0.71,0.25,0.33,0.25,0.25,0.55,1.0,0.6,0.25,0.55,0.67,0.25,0.76,0.25,0.25,0.55,0.71,0.6,0.29,0.25,0.55,0.76,0.25,1.0,0.25,0.25,0.55,0.67,0.29,0.48,0.25,0.55,0.56,0.25,0.67,0.25,0.25,0.55,0.76,0.6,0.55,0.25,0.55,0.67,0.25,0.77,0.25,0.25,0.55,0.52,0.6,0.58,0.25,0.55,0.67,0.25,0.6,0.25,0.55,0.56,0.48,0.6,0.55,0.58,0.5,0.58,0.55,0.4,0.55,0.61,0.55,0.5,0.4,0.4,0.5,0.56,0.42,0.55,0.55,0.58,0.55,0.44,0.5,0.4,0.55,0.55,0.58,0.55,0.44,0.29,0.55,0.33,0.58,0.25" style="fill:rgb(0,0,0);font-family:URWPalladioL-Roma;font-size:8.97px;stroke:none;">52. Wang, Y.; Wu, C.J.; Wu, Z.G.; Cui, G.W.; Xie, F.Y.; Guo, X.D.; Sun, X.P. FeP nanorod arrays on carbon cloth:</text>
   <text y="627.224" x="97.701,104.6976,107.816,113.139,115.8,120.885,126.208,129.254,134.75,139.131,142.744,145.789,150.783,154.395,162.471,167.044,172.367,176.427,180.7326,183.808,188.381,193.704,198.697,204.285,208.5906,211.657,214.702,219.696,223.284,226.308,230.186,235.18,240.768,243.429,248.944,257.02,260.065,262.727,267.72,272.92260000000005,276.043,281.1,285.673,288.655,291.636,296.017,299.629,302.291,306.672,310.549" svgx:width="0.78,0.55,0.58,0.29,0.56,0.58,0.33,0.6,0.48,0.4,0.33,0.55,0.4,0.88,0.5,0.58,0.44,0.48,0.55,0.5,0.58,0.55,0.61,0.48,0.55,0.33,0.55,0.4,0.55,0.42,0.55,0.61,0.29,0.6,0.88,0.33,0.29,0.55,0.58,0.55,0.55,0.5,0.33,0.33,0.48,0.4,0.29,0.48,0.42,0.25" style="fill:rgb(0,0,0);font-family:URWPalladioL-Roma;font-size:8.97px;stroke:none;">A high-performance anode for sodium-ion batteries.</text>
   <text y="627.224" x="318.248,324.348,328.921,332.479,339.594,341.8365,347.295,353.395,357.456,364.571,371.677,376.762,381.847" svgx:width="0.67,0.5,0.39,0.78,0.25,0.55,0.67,0.44,0.78,0.78,0.56,0.56,0.25" style="fill:rgb(0,0,0);font-family:URWPalladioL-Ital;font-size:8.97px;stroke:none;">Chem. Commun.</text>
   <text y="627.224" x="389.549,394.032,398.515,402.999" svgx:width="0.5,0.5,0.5,0.5" style="fill:rgb(0,0,0);font-family:URWPalladioL-Bold;font-size:8.97px;stroke:none;">2018</text>
   <text y="627.224" x="407.481" svgx:width="0.25" style="fill:rgb(0,0,0);font-family:URWPalladioL-Roma;font-size:8.97px;stroke:none;">,</text>
   <text y="627.224" x="412.956,417.529" svgx:width="0.5,0.5" style="fill:rgb(0,0,0);font-family:URWPalladioL-Ital;font-size:8.97px;stroke:none;">54</text>
   <text y="627.224" x="422.102,424.3445,427.58,432.153,436.726,441.299,445.872,450.445,455.018,459.59,464.163,468.736,470.9785,476.428" svgx:width="0.25,0.55,0.5,0.5,0.5,0.5,0.5,0.5,0.5,0.5,0.5,0.25,0.55,0.33" style="fill:rgb(0,0,0);font-family:URWPalladioL-Roma;font-size:8.97px;stroke:none;">, 9341–9344. [</text>
   <text y="627.224" x="479.473,485.958,489.415,494.408,498.286,502.164,508.273,512.654" svgx:width="0.71,0.4,0.55,0.42,0.42,0.67,0.48,0.33" style="fill:rgb(8,117,183);font-family:URWPalladioL-Roma;font-size:8.97px;stroke:none;">CrossRef</text>
   <text y="627.224" x="515.699" svgx:width="0.33" style="fill:rgb(0,0,0);font-family:URWPalladioL-Roma;font-size:8.97px;stroke:none;">]</text>
   <text y="640.136" x="98.05" svgx:width="0.33" style="fill:rgb(0,0,0);font-family:URWPalladioL-Roma;font-size:8.97px;stroke:none;">[</text>
   <text y="640.136" x="101.036,106.452,111.858,116.817,125.299,129.594" svgx:width="0.6,0.6,0.55,0.95,0.48,0.61" style="fill:rgb(8,117,183);font-family:URWPalladioL-Roma;font-size:8.97px;stroke:none;">PubMed</text>
   <text y="640.136" x="135.072" svgx:width="0.33" style="fill:rgb(0,0,0);font-family:URWPalladioL-Roma;font-size:8.97px;stroke:none;">]</text>
   <text y="653.047" x="76.535,81.018,85.501,87.74350000000001,98.05,105.144,110.452,115.759,118.00150000000001,120.282,127.34,129.619,132.656,135.693,137.972,140.21450000000002,142.495,148.577,151.231,155.79,160.769,163.0115,165.292,171.375,173.654,180.119,182.399,184.6415,186.922,192.494,195.147,197.3895,199.67,204.759,207.038,215.327,217.607,219.8495,222.13,226.917,231.477,235.525,240.833,246.404,250.772,254.93,257.1725,259.453,266.548,268.827,271.864,278.484,280.764,283.0065,285.287,290.795,295.354,298.956,304.026,306.2685,308.549,316.136,318.416,321.452,329.741,332.021,334.2635,336.544,341.824,347.322,349.5645,351.845,358.94,361.219,365.569,367.849,370.0915,372.372,378.837,384.144,388.512,393.819,396.0615,398.342,404.424,406.704,415.002,417.2445,419.516,426.61,432.091,437.571,440.225,445.295,447.948,453.255,458.27819999999997,460.569,463.605,469.104,474.411,478.46,481.433,484.086,489.065,494.372,498.932,501.585,504.239,508.798,513.166" svgx:width="0.5,0.5,0.25,0.55,0.78,0.58,0.58,0.25,0.55,0.77,0.25,0.33,0.33,0.25,0.25,0.55,0.67,0.29,0.5,0.55,0.25,0.55,0.67,0.25,0.71,0.25,0.25,0.55,0.61,0.29,0.25,0.55,0.67,0.25,1.0,0.25,0.25,0.55,0.52,0.5,0.44,0.58,0.61,0.48,0.56,0.25,0.55,0.78,0.25,0.33,0.73,0.25,0.25,0.55,0.6,0.5,0.4,0.56,0.25,0.55,0.83,0.25,0.33,1.0,0.25,0.25,0.55,0.67,0.6,0.25,0.55,0.78,0.25,0.6,0.25,0.25,0.55,0.71,0.58,0.48,0.58,0.25,0.55,0.67,0.25,1.0,0.25,0.55,0.78,0.6,0.6,0.29,0.56,0.29,0.58,0.56,0.55,0.33,0.6,0.58,0.44,0.33,0.29,0.55,0.58,0.5,0.29,0.29,0.5,0.48,0.61" style="fill:rgb(0,0,0);font-family:URWPalladioL-Roma;font-size:8.97px;stroke:none;">53. Ahn, D.-J.; Xiao, X.C.; Li, Y.W.; Sachdev, A.-K.; Park, H.-W.; Yu, A.P.; Chen, Z.W. Applying functionalized</text>
   <text y="665.959" x="98.05,102.111,106.684,110.296,115.354,120.347,125.5496,128.341,133.663,138.236,143.559,148.553,151.534,157.049,162.107,166.487,170.2544,173.036,176.017,180.9505,183.672,188.053,193.376,198.699,203.272,208.594,212.655,216.9606,219.706,224.087,226.749,231.129,235.19,238.172,241.62,246.613,250.674,255.997,260.377,268.453,271.115,275.175,279.748,282.34929999999997,285.08,290.577,294.957,298.57,301.616,306.609,310.222,318.297,322.87,328.193,332.254,336.635,340.4024,343.183,348.176,351.1361,353.893,356.874,359.535,364.73760000000004,367.52,372.513,377.232,379.894,385.482,389.78760000000005,392.533,396.594,401.588,409.663,415.16,420.153,424.031,426.693,429.674,433.9796,436.725,441.106,443.768,448.148,452.209,455.191,458.639,463.632,469.22,473.601,477.3684,480.149,483.195,488.188,491.776,494.471,500.06,502.721,505.766,508.428,513.421" svgx:width="0.44,0.5,0.4,0.55,0.55,0.58,0.55,0.58,0.5,0.58,0.55,0.33,0.6,0.55,0.48,0.42,0.55,0.33,0.55,0.55,0.48,0.58,0.58,0.5,0.58,0.44,0.48,0.55,0.48,0.29,0.48,0.44,0.33,0.4,0.55,0.44,0.58,0.48,0.88,0.29,0.44,0.5,0.29,0.55,0.6,0.48,0.4,0.33,0.55,0.4,0.88,0.5,0.58,0.44,0.48,0.42,0.55,0.55,0.33,0.55,0.33,0.29,0.58,0.55,0.55,0.52,0.29,0.61,0.48,0.55,0.44,0.55,0.88,0.6,0.55,0.42,0.29,0.33,0.48,0.55,0.48,0.29,0.48,0.44,0.33,0.4,0.55,0.61,0.48,0.42,0.55,0.33,0.55,0.4,0.55,0.61,0.29,0.33,0.29,0.55,0.58" style="fill:rgb(0,0,0);font-family:URWPalladioL-Roma;font-size:8.97px;stroke:none;">carbon nanotubes to enhance electrochemical performances of tin oxide composite electrodes for Li-ion</text>
   <text y="678.871" x="98.05,103.008,107.492,110.415,113.338,117.633,121.174,125.164" svgx:width="0.55,0.5,0.33,0.33,0.48,0.4,0.56,0.25" style="fill:rgb(0,0,0);font-family:URWPalladioL-Roma;font-size:8.97px;stroke:none;">battery.</text>
   <text y="678.871" x="130.544,133.53,135.7725,138.013,143.492,147.473,153.946,157.434,160.9323,163.164,168.149,172.13,177.116,180.442,184.091,187.579" svgx:width="0.33,0.25,0.55,0.61,0.44,0.72,0.39,0.39,0.55,0.56,0.44,0.56,0.39,0.41,0.39,0.39" style="fill:rgb(0,0,0);font-family:URWPalladioL-Ital;font-size:8.97px;stroke:none;">J. Power Sources</text>
   <text y="678.871" x="193.308,197.791,202.274,206.758" svgx:width="0.5,0.5,0.5,0.5" style="fill:rgb(0,0,0);font-family:URWPalladioL-Bold;font-size:8.97px;stroke:none;">2012</text>
   <text y="678.871" x="211.241" svgx:width="0.25" style="fill:rgb(0,0,0);font-family:URWPalladioL-Roma;font-size:8.97px;stroke:none;">,</text>
   <text y="678.871" x="215.724,220.207,224.69" svgx:width="0.5,0.5,0.5" style="fill:rgb(0,0,0);font-family:URWPalladioL-Ital;font-size:8.97px;stroke:none;">212</text>
   <text y="678.871" x="229.173,231.4155,233.656,238.139,242.623,247.106,251.589,256.072,258.3145,261.452" svgx:width="0.25,0.55,0.5,0.5,0.5,0.5,0.5,0.25,0.55,0.33" style="fill:rgb(0,0,0);font-family:URWPalladioL-Roma;font-size:8.97px;stroke:none;">, 66–72. [</text>
   <text y="678.871" x="264.438,270.795,274.175,279.071,282.873,286.675,292.664,296.959" svgx:width="0.71,0.4,0.55,0.42,0.42,0.67,0.48,0.33" style="fill:rgb(8,117,183);font-family:URWPalladioL-Roma;font-size:8.97px;stroke:none;">CrossRef</text>
   <text y="678.871" x="299.945" svgx:width="0.33" style="fill:rgb(0,0,0);font-family:URWPalladioL-Roma;font-size:8.97px;stroke:none;">]</text>
   <text y="691.782" x="76.535,81.018,85.501,87.74350000000001,98.05,104.15,109.473,114.046,119.369,124.454,126.6965,130.508,138.822,141.108,149.76,152.046,154.2885,158.86,166.469,171.984,174.22650000000002,178.039,181.084,183.371,188.172,190.458,192.7005,197.272,204.25,209.765,214.759,217.0015,220.804,225.907,228.194,235.172,237.458,239.7005,244.272,250.372,255.695,260.076,265.399,270.484,272.7265,276.538,281.34,283.626,287.879,290.165,292.4075,296.979,303.079,308.402,313.395,318.718,323.803,326.0455,329.858,335.446,337.732,342.534,344.82,347.0625,351.634,356.435,361.429,366.752,371.837,374.0795,377.882,386.205,388.491,395.469,397.756,399.9985,404.569,412.892,417.465,422.787,425.0295,428.833,434.421,436.707,439.753,441.9955,445.807,450.92,453.581,458.904,461.949,469.55,474.122,479.445,484.439,489.935,494.508,498.121,501.102,503.764,507.824,510.486,514.867" svgx:width="0.5,0.5,0.25,0.55,0.67,0.58,0.5,0.58,0.56,0.25,0.55,1.0,0.25,0.95,0.25,0.25,0.55,0.83,0.6,0.25,0.55,0.33,0.25,0.52,0.25,0.25,0.55,0.76,0.6,0.55,0.25,0.55,0.67,0.25,0.76,0.25,0.25,0.55,0.67,0.58,0.48,0.58,0.56,0.25,0.55,0.52,0.25,0.56,0.25,0.25,0.55,0.67,0.58,0.55,0.58,0.56,0.25,0.55,0.61,0.25,0.52,0.25,0.25,0.55,0.52,0.55,0.58,0.56,0.25,0.55,1.0,0.25,0.76,0.25,0.25,0.55,1.0,0.5,0.58,0.25,0.55,0.61,0.25,0.33,0.25,0.55,0.61,0.29,0.58,0.33,0.83,0.5,0.58,0.55,0.6,0.5,0.4,0.33,0.29,0.44,0.29,0.48,0.42" style="fill:rgb(0,0,0);font-family:URWPalladioL-Roma;font-size:8.97px;stroke:none;">54. Zhang, W.M.; Hu, J.S.; Guo, Y.G.; Zheng, S.F.; Zhong, L.S.; Song, W.G.; Wan, L.J. Tin-Nanoparticles</text>
   <text y="704.694" x="98.05,103.638,108.961,113.022,117.594,123.091,126.969,132.484,135.145,139.718,142.699,147.08,152.5517,155.732,158.394,163.5966,166.78,172.368,175.03,179.602,183.48,186.462,189.123,193.0698,196.248,203.857,208.85,211.512,214.173,219.167,226.6121,229.858,236.343,240.915,244.528,249.586,254.579,259.7816,262.966,267.767,273.264,278.587,282.967,286.415,290.796,294.5634,297.738,300.783,305.777,309.365,312.453,320.062,322.724,327.809,333.132,336.177,341.701,346.082,349.695,352.74,357.734,361.346,369.422,373.995,379.318,383.378,387.6836,390.823,397.938,403.261,408.255,413.843,418.14860000000004,421.287,429.939,434.512,437.494,441.874,445.487,448.148,452.721,455.3223,458.446,461.108,466.3106,469.494,475.082,477.744,480.725,486.048,488.71,494.224,502.3,505.346,508.428,513.421" svgx:width="0.61,0.58,0.44,0.5,0.6,0.42,0.6,0.29,0.5,0.33,0.48,0.61,0.55,0.29,0.58,0.55,0.61,0.29,0.5,0.42,0.33,0.29,0.44,0.55,0.83,0.55,0.29,0.29,0.55,0.83,0.55,0.71,0.5,0.4,0.55,0.55,0.58,0.55,0.52,0.6,0.58,0.48,0.4,0.48,0.42,0.55,0.33,0.55,0.4,0.55,0.83,0.29,0.56,0.58,0.33,0.6,0.48,0.4,0.33,0.55,0.4,0.88,0.5,0.58,0.44,0.48,0.55,0.78,0.58,0.55,0.61,0.48,0.55,0.95,0.5,0.33,0.48,0.4,0.29,0.5,0.29,0.55,0.29,0.58,0.55,0.61,0.29,0.33,0.58,0.29,0.6,0.88,0.33,0.34,0.55,0.58" style="fill:rgb(0,0,0);font-family:URWPalladioL-Roma;font-size:8.97px;stroke:none;">Encapsulated in Elastic Hollow Carbon Spheres for High-Performance Anode Material in Lithium-Ion</text>
   <text y="717.605" x="98.05,103.528,108.012,110.935,113.858,118.153,121.694,124.304,128.599,132.4" svgx:width="0.61,0.5,0.33,0.33,0.48,0.4,0.29,0.48,0.42,0.25" style="fill:rgb(0,0,0);font-family:URWPalladioL-Roma;font-size:8.97px;stroke:none;">Batteries.</text>
   <text y="717.605" x="137.78,144.254,148.737,152.727,154.9695,158.107,166.571,170.552,173.538,177.026,179.85" svgx:width="0.72,0.5,0.5,0.25,0.55,0.94,0.44,0.33,0.39,0.39,0.25" style="fill:rgb(0,0,0);font-family:URWPalladioL-Ital;font-size:8.97px;stroke:none;">Adv. Mater.</text>
   <text y="717.605" x="185.23,189.713,194.196,198.68" svgx:width="0.5,0.5,0.5,0.5" style="fill:rgb(0,0,0);font-family:URWPalladioL-Bold;font-size:8.97px;stroke:none;">2008</text>
   <text y="717.605" x="203.162" svgx:width="0.25" style="fill:rgb(0,0,0);font-family:URWPalladioL-Roma;font-size:8.97px;stroke:none;">,</text>
   <text y="717.605" x="207.646,212.129" svgx:width="0.5,0.5" style="fill:rgb(0,0,0);font-family:URWPalladioL-Ital;font-size:8.97px;stroke:none;">20</text>
   <text y="717.605" x="216.612,218.8545,221.095,225.578,230.062,234.545,239.028,243.511,247.994,252.478,256.961,261.444,263.6865,266.824" svgx:width="0.25,0.55,0.5,0.5,0.5,0.5,0.5,0.5,0.5,0.5,0.5,0.25,0.55,0.33" style="fill:rgb(0,0,0);font-family:URWPalladioL-Roma;font-size:8.97px;stroke:none;">, 1160–1165. [</text>
   <text y="717.605" x="269.81,276.167,279.547,284.443,288.245,292.046,298.036,302.331" svgx:width="0.71,0.4,0.55,0.42,0.42,0.67,0.48,0.33" style="fill:rgb(8,117,183);font-family:URWPalladioL-Roma;font-size:8.97px;stroke:none;">CrossRef</text>
   <text y="717.605" x="305.317" svgx:width="0.33" style="fill:rgb(0,0,0);font-family:URWPalladioL-Roma;font-size:8.97px;stroke:none;">]</text>
   <text y="730.517" x="76.535,81.018,85.501,87.74350000000001,98.05,104.15,109.473,114.467,119.981,122.2235,124.756,130.856,133.142,137.944,140.23,142.4725,145.132,150.418,155.933,158.1755,160.717,166.305,168.591,170.83350000000002,173.484,179.072,184.066,189.581,191.8235,194.355,200.455,202.741,211.064,213.3065,215.838,220.923,225.917,229.529,237.605,242.178,245.159,247.821,252.814,258.0166,260.625,265.618,268.5781,271.151,278.267,283.589,286.251,289.296,294.29,297.903,305.7966,308.466,316.066,319.111,324.7,329.693,335.19,339.57,345.0417,347.646,354.13,358.703,362.316,367.373,372.367,377.69,380.735,387.22,392.213,396.786,399.768,404.148,409.6197,412.224,417.026,422.348" svgx:width="0.5,0.5,0.25,0.55,0.67,0.58,0.55,0.6,0.25,0.55,0.67,0.25,0.52,0.25,0.25,0.55,0.67,0.6,0.25,0.55,0.61,0.25,0.25,0.55,0.61,0.55,0.6,0.25,0.55,0.67,0.25,1.0,0.25,0.55,0.56,0.55,0.4,0.88,0.5,0.33,0.29,0.55,0.58,0.55,0.55,0.33,0.55,0.78,0.58,0.29,0.33,0.55,0.4,0.88,0.55,0.83,0.33,0.61,0.55,0.6,0.48,0.61,0.55,0.71,0.5,0.4,0.55,0.55,0.58,0.33,0.71,0.55,0.5,0.33,0.48,0.61,0.55,0.52,0.58,0.79" style="fill:rgb(0,0,0);font-family:URWPalladioL-Roma;font-size:8.97px;stroke:none;">55. Zhou, X.S.; Yu, L.; Lou, X.W. Formation of Uniform N-doped Carbon-Coated SnO</text>
   <text y="732.308" x="429.541" svgx:width="0.5" style="fill:rgb(0,0,0);font-family:URWPalladioL-Roma;font-size:6.97px;stroke:none;">2</text>
   <text y="730.517" x="436.014,440.816,446.33,451.388,459.464,462.125,466.186,469.634,474.627,479.685,484.678,489.398,493.778,497.54540000000003,500.144,507.771,510.433,513.414" svgx:width="0.52,0.6,0.55,0.88,0.29,0.44,0.4,0.55,0.55,0.55,0.52,0.48,0.42,0.55,0.83,0.29,0.33,0.58" style="fill:rgb(0,0,0);font-family:URWPalladioL-Roma;font-size:8.97px;stroke:none;">Submicroboxes with</text>
   <text y="743.429" x="98.05,103.528,108.747,113.965,118.449,123.667,127.648,131.943,137.4147,139.663,145.142,147.751,150.674,155.892,158.501,163.908,174.067,178.775,181.698,186.593,190.135,194.618,199.603,203.9086,206.14,211.556,214.936,219.832,225.221,229.515,233.057,235.98,238.589,242.884,246.686" svgx:width="0.61,0.58,0.58,0.5,0.58,0.44,0.48,0.61,0.55,0.61,0.29,0.33,0.58,0.29,0.6,0.88,0.52,0.33,0.55,0.4,0.5,0.56,0.48,0.55,0.6,0.4,0.55,0.6,0.48,0.4,0.33,0.29,0.48,0.42,0.25" style="fill:rgb(0,0,0);font-family:URWPalladioL-Roma;font-size:8.97px;stroke:none;">Enhanced LithiumStorage Properties.</text>
   <text y="743.429" x="252.064,258.538,263.021,267.011,269.25350000000003,272.391,277.869,282.855,286.343,289.669,294.152,298.637,300.877,309.341,313.322,316.308,319.796,322.621" svgx:width="0.72,0.5,0.5,0.25,0.55,0.61,0.56,0.39,0.39,0.5,0.5,0.55,0.94,0.44,0.33,0.39,0.39,0.25" style="fill:rgb(0,0,0);font-family:URWPalladioL-Ital;font-size:8.97px;stroke:none;">Adv. Energy Mater.</text>
   <text y="743.429" x="328.0,332.483,336.966,341.45" svgx:width="0.5,0.5,0.5,0.5" style="fill:rgb(0,0,0);font-family:URWPalladioL-Bold;font-size:8.97px;stroke:none;">2016</text>
   <text y="743.429" x="345.933" svgx:width="0.25" style="fill:rgb(0,0,0);font-family:URWPalladioL-Roma;font-size:8.97px;stroke:none;">,</text>
   <text y="743.429" x="350.416" svgx:width="0.5" style="fill:rgb(0,0,0);font-family:URWPalladioL-Ital;font-size:8.97px;stroke:none;">6</text>
   <text y="743.429" x="354.899,357.1415,359.382,363.865,368.349,372.832,377.315,381.798,386.281,390.765,393.0075,396.145" svgx:width="0.25,0.55,0.5,0.5,0.5,0.5,0.5,0.5,0.5,0.25,0.55,0.33" style="fill:rgb(0,0,0);font-family:URWPalladioL-Roma;font-size:8.97px;stroke:none;">, 1600451. [</text>
   <text y="743.429" x="399.13,405.488,408.868,413.764,417.565,421.367,427.357,431.651" svgx:width="0.71,0.4,0.55,0.42,0.42,0.67,0.48,0.33" style="fill:rgb(8,117,183);font-family:URWPalladioL-Roma;font-size:8.97px;stroke:none;">CrossRef</text>
   <text y="743.429" x="434.637" svgx:width="0.33" style="fill:rgb(0,0,0);font-family:URWPalladioL-Roma;font-size:8.97px;stroke:none;">]</text>
  </g>
 </g>
</svg>
