<?xml version="1.0" encoding="UTF-8"?>
<svg height="771.674" width="530.482" xmlns="http://www.w3.org/2000/svg">
 <g id="page" xmlns:svgx="http://www.xml-cml.org/schema/svgx">
  <g begin="text">
   <text y="62.979" x="76.535,82.736,86.274,90.706,94.245,100.445,103.984,106.638,109.738,112.839,115.055,118.593,120.809" svgx:width="0.78,0.44,0.56,0.44,0.78,0.44,0.33,0.39,0.39,0.28,0.44,0.28,0.39" style="fill:rgb(0,0,0);font-family:URWPalladioL-Ital;font-size:7.97px;stroke:none;">Nanomaterials</text>
   <text y="62.979" x="125.901,129.886,133.871,137.856" svgx:width="0.5,0.5,0.5,0.5" style="fill:rgb(0,0,0);font-family:URWPalladioL-Bold;font-size:7.97px;stroke:none;">2020</text>
   <text y="62.979" x="141.842" svgx:width="0.25" style="fill:rgb(0,0,0);font-family:URWPalladioL-Roma;font-size:7.97px;stroke:none;">,</text>
   <text y="62.979" x="145.827,149.812" svgx:width="0.5,0.5" style="fill:rgb(0,0,0);font-family:URWPalladioL-Ital;font-size:7.97px;stroke:none;">10</text>
   <text y="62.979" x="153.797,155.7895,157.782,161.767,165.752,169.73700000000002,495.794,499.779,501.772,506.123,508.7531,510.77,514.755" svgx:width="0.25,0.55,0.5,0.5,0.5,0.55,0.5,0.55,0.55,0.33,0.55,0.5,0.5" style="fill:rgb(0,0,0);font-family:URWPalladioL-Roma;font-size:7.97px;stroke:none;">, 249 7 of 19</text>
   <text y="97.848" x="76.535,80.844,85.711,88.668,93.536,98.048,101.36,106.228,112.30359999999999,115.313,120.394,124.235,129.102,134.082,137.059,141.927,144.884,149.751,154.263,157.576,161.407,166.955,172.73180000000002,175.745,181.954" svgx:width="0.42,0.48,0.29,0.48,0.44,0.33,0.48,0.61,0.55,0.5,0.4,0.48,0.5,0.55,0.48,0.29,0.48,0.44,0.33,0.4,0.55,0.58,0.55,0.61,0.29" style="fill:rgb(0,0,0);font-family:URWPalladioL-Roma;font-size:9.96px;stroke:none;">selected area electron di</text>
   <text y="97.848" x="184.914" svgx:width="0.61" style="fill:rgb(0,0,0);font-family:Rpxr;font-size:9.96px;stroke:none;">ﬀ</text>
   <text y="97.848" x="191.092,195.106,200.187,204.699,208.011,210.969,216.517,222.2938,225.307,228.691,234.026,241.932,248.141,256.006,259.2928,262.266,268.373,273.454,276.767,280.079,284.947,288.961,294.7378,297.761,301.145,306.795,309.752,315.402,321.53,325.361" svgx:width="0.4,0.5,0.44,0.33,0.29,0.55,0.58,0.55,0.33,0.52,0.78,0.61,0.77,0.33,0.55,0.6,0.5,0.33,0.33,0.48,0.4,0.58,0.55,0.33,0.56,0.29,0.56,0.6,0.4,0.48" style="fill:rgb(0,0,0);font-family:URWPalladioL-Roma;font-size:9.96px;stroke:none;">raction (SAED) pattern (Figure</text>
   <text y="97.848" x="333.104" svgx:width="0.5" style="fill:rgb(8,117,183);font-family:URWPalladioL-Roma;font-size:9.96px;stroke:none;">3</text>
   <text y="97.848" x="338.185,342.5674,345.572,348.53,354.444,358.752,363.62,366.933,370.2198,373.192,377.501,383.415,388.964,397.439,401.6222,404.633,407.946,413.86,418.6408,421.603,427.223,431.237,434.194,439.844,445.758,449.0448,451.947,458.054,463.602,466.559,472.209,476.721,480.735,486.385,490.694,494.007,499.087,502.045,505.002,507.959,513.873" svgx:width="0.44,0.55,0.29,0.58,0.42,0.48,0.33,0.33,0.55,0.42,0.58,0.55,0.83,0.42,0.55,0.33,0.58,0.48,0.55,0.55,0.4,0.29,0.56,0.58,0.33,0.55,0.6,0.55,0.29,0.56,0.44,0.4,0.56,0.42,0.33,0.5,0.29,0.29,0.29,0.58,0.48" style="fill:rgb(0,0,0);font-family:URWPalladioL-Roma;font-size:9.96px;stroke:none;">c inset) shows the bright polycrystalline</text>
   <text y="111.358" x="76.535,82.726" svgx:width="0.61,0.29" style="fill:rgb(0,0,0);font-family:URWPalladioL-Roma;font-size:9.96px;stroke:none;">di</text>
   <text y="111.358" x="85.674" svgx:width="0.61" style="fill:rgb(0,0,0);font-family:Rpxr;font-size:9.96px;stroke:none;">ﬀ</text>
   <text y="111.358" x="91.835,95.837,100.903,105.402,108.705,111.653,117.185,122.9618,125.564,129.566,132.515,138.412,144.045,148.2282,150.823,156.355,159.6418,162.212,167.531,173.428" svgx:width="0.4,0.5,0.44,0.33,0.29,0.55,0.58,0.55,0.4,0.29,0.58,0.56,0.42,0.55,0.55,0.33,0.55,0.52,0.58,0.79" style="fill:rgb(0,0,0);font-family:URWPalladioL-Roma;font-size:9.96px;stroke:none;">raction rings of SnO</text>
   <text y="113.223" x="181.39" svgx:width="0.5" style="fill:rgb(0,0,0);font-family:URWPalladioL-Roma;font-size:7.57px;stroke:none;">2</text>
   <text y="111.358" x="188.156,193.222,199.119,205.1946,207.792,213.425" svgx:width="0.5,0.58,0.61,0.55,0.56,0.48" style="fill:rgb(0,0,0);font-family:URWPalladioL-Roma;font-size:9.96px;stroke:none;">and Fe</text>
   <text y="113.223" x="218.277" svgx:width="0.5" style="fill:rgb(0,0,0);font-family:URWPalladioL-Roma;font-size:7.57px;stroke:none;">2</text>
   <text y="111.358" x="222.561" svgx:width="0.79" style="fill:rgb(0,0,0);font-family:URWPalladioL-Roma;font-size:9.96px;stroke:none;">O</text>
   <text y="113.223" x="230.525" svgx:width="0.5" style="fill:rgb(0,0,0);font-family:URWPalladioL-Roma;font-size:7.57px;stroke:none;">3</text>
   <text y="111.358" x="237.291" svgx:width="0.33" style="fill:rgb(0,0,0);font-family:URWPalladioL-Roma;font-size:9.96px;stroke:none;">[</text>
   <text y="111.358" x="240.665,245.646" svgx:width="0.5,0.5" style="fill:rgb(8,117,183);font-family:URWPalladioL-Roma;font-size:9.96px;stroke:none;">29</text>
   <text y="111.358" x="250.628,254.002,256.492,260.02,266.231,272.128,276.9088,279.464,288.41,293.476,299.109,305.006,307.955,314.084,318.938,325.0136,327.611,333.822,340.012,352.079,355.028,363.974,369.04,374.674,379.4548,382.009,385.383,391.016,393.965,399.598,405.708,409.528,414.3088,416.863,422.182,427.248,430.5348,433.105,436.479,442.588,446.59,449.893,455.79,460.643,464.62699999999995,467.128,470.948,475.801,481.525,486.379,491.444,494.393,498.5762,501.171,504.474,510.371,515.437" svgx:width="0.33,0.25,0.55,0.61,0.58,0.48,0.55,0.88,0.5,0.56,0.58,0.29,0.61,0.48,0.61,0.55,0.61,0.61,0.95,0.29,0.88,0.5,0.56,0.48,0.55,0.33,0.56,0.29,0.56,0.6,0.4,0.48,0.55,0.52,0.5,0.33,0.55,0.33,0.6,0.4,0.33,0.58,0.48,0.4,0.55,0.4,0.48,0.56,0.48,0.5,0.29,0.42,0.55,0.33,0.58,0.5,0.33" style="fill:rgb(0,0,0);font-family:URWPalladioL-Roma;font-size:9.96px;stroke:none;">]. The magniﬁed TEMimage (Figure S7) further reveals that</text>
   <text y="124.867" x="76.535,79.848,85.762,90.5428,93.139,99.267,102.224,105.537,109.551,114.632,118.016,122.324,131.297,136.378,139.335,142.2234,144.813,150.727,155.808,161.722,167.27,173.377,178.458,182.472,185.785,188.742,193.254,196.211,201.079,205.2622,207.897,216.372,219.329,222.642,228.4188,231.076,236.05599999999998,238.667,242.976,245.933,251.014,255.7948,258.402,263.95,267.2368,269.844,274.925,280.544,286.093,292.22,295.50680000000006,298.043,303.023,305.644,311.558,320.3228,323.041,328.122,331.963,336.7438,339.341,344.208,349.95,354.817,360.732,363.689,369.26660000000004,371.859,374.816,383.789,389.896,392.853,397.934,403.848,407.161,412.029,418.1046,420.747,429.222,432.179,435.492,441.406,444.364,450.14079999999996,452.788,456.1,462.015,466.7958,469.402,472.359,478.274,481.586,486.454,490.468,493.425,498.973,502.987,507.1702,509.806,515.354" svgx:width="0.33,0.58,0.48,0.55,0.6,0.29,0.33,0.4,0.5,0.33,0.42,0.88,0.5,0.29,0.29,0.55,0.58,0.5,0.58,0.55,0.6,0.5,0.4,0.33,0.29,0.44,0.29,0.48,0.42,0.55,0.83,0.29,0.33,0.58,0.55,0.5,0.55,0.42,0.29,0.5,0.48,0.55,0.55,0.33,0.55,0.5,0.55,0.55,0.6,0.33,0.55,0.5,0.55,0.58,0.88,0.55,0.5,0.4,0.48,0.55,0.48,0.56,0.48,0.58,0.29,0.56,0.55,0.29,0.88,0.6,0.29,0.5,0.58,0.33,0.48,0.61,0.55,0.83,0.29,0.33,0.58,0.29,0.58,0.55,0.33,0.58,0.48,0.55,0.29,0.58,0.33,0.48,0.4,0.29,0.55,0.4,0.42,0.55,0.55,0.33" style="fill:rgb(0,0,0);font-family:URWPalladioL-Roma;font-size:9.96px;stroke:none;">the ultra-small nanoparticles with a size of about 5 nm are evenly implanted within the interiors of</text>
   <text y="138.377" x="76.535,79.789,85.599,90.3798,92.866,97.299,102.29,106.233,111.753,117.204,122.98079999999999,125.509,128.833,132.777,137.768,146.582,151.364,159.689,165.13,169.073,174.623,177.113,179.615,185.165,188.07,193.71,196.615,202.425,208.0026,210.461,214.404,217.309,221.541,226.3218,228.808,232.063,237.541,240.009,244.98899999999998,247.486,253.505,259.315,262.22,267.81,273.83,278.6108,281.097,289.911,294.693,297.947,302.939,305.8274,308.329,314.329,319.32,323.263,326.517,329.422,333.854,336.759,341.541,345.774,349.098,352.003,357.813,361.137,365.569,370.56,374.503,380.024,385.474,391.25079999999997,393.77,398.002,402.993,408.803,414.903,423.228,426.133,430.565,436.375,439.699,442.604,445.509,451.059,455.8398,458.337,462.769,468.219,474.029,480.069,485.619,491.638,495.581,500.573,503.827,506.732,512.182,517.992" svgx:width="0.33,0.58,0.48,0.55,0.44,0.5,0.4,0.55,0.55,0.58,0.55,0.33,0.4,0.5,0.88,0.48,0.83,0.55,0.4,0.56,0.25,0.55,0.56,0.29,0.56,0.29,0.58,0.56,0.55,0.4,0.29,0.42,0.48,0.55,0.33,0.55,0.55,0.5,0.55,0.6,0.58,0.29,0.56,0.6,0.48,0.55,0.88,0.48,0.33,0.5,0.29,0.55,0.6,0.5,0.4,0.33,0.29,0.44,0.29,0.48,0.42,0.33,0.29,0.58,0.33,0.44,0.5,0.4,0.55,0.55,0.58,0.55,0.42,0.5,0.58,0.61,0.83,0.29,0.44,0.58,0.33,0.29,0.29,0.56,0.48,0.55,0.44,0.55,0.58,0.61,0.56,0.6,0.4,0.5,0.33,0.29,0.55,0.58,0.25" style="fill:rgb(0,0,0);font-family:URWPalladioL-Roma;font-size:9.96px;stroke:none;">the carbon framework, giving rise to a unique metal particles-in-carbon sandwich-like conﬁguration.</text>
   <text y="151.886" x="76.535,79.96,85.73679999999999,89.806,94.887,101.096,107.305,110.262,113.575,116.532,122.08,127.995,130.485,134.834,139.914,144.0972,148.166,152.475,158.389,163.937,172.412,178.18880000000001,182.259,185.216,190.99280000000002,195.073,200.723,203.68,209.33,215.458,219.289" svgx:width="0.34,0.58,0.55,0.5,0.61,0.61,0.29,0.33,0.29,0.55,0.58,0.25,0.55,0.5,0.42,0.55,0.42,0.58,0.55,0.83,0.58,0.55,0.29,0.58,0.55,0.56,0.29,0.56,0.6,0.4,0.48" style="fill:rgb(0,0,0);font-family:URWPalladioL-Roma;font-size:9.96px;stroke:none;">In addition, as shown in Figure</text>
   <text y="151.886" x="228.089" svgx:width="0.5" style="fill:rgb(8,117,183);font-family:URWPalladioL-Roma;font-size:9.96px;stroke:none;">3</text>
   <text y="151.886" x="233.17,239.379,241.869,246.218,249.53,255.445,260.2258,264.255,270.169,273.126,278.776,284.69,288.074,291.905,296.773,301.081,306.63,309.587,315.714,319.027,321.984,327.533,333.3098,337.38,343.609,349.818,359.28,363.374,366.757,375.212,381.624,387.853,394.062,403.675,406.96180000000004,411.002,415.311,421.225,426.093,432.301,436.4842,440.543,443.5,446.457,452.107,458.021,461.30780000000004,465.266,470.815,476.5918,480.672,483.985,492.46,497.938,501.941,506.249,511.117,514.43" svgx:width="0.61,0.25,0.55,0.33,0.58,0.48,0.55,0.58,0.29,0.56,0.58,0.33,0.4,0.48,0.42,0.55,0.29,0.6,0.33,0.29,0.55,0.58,0.55,0.61,0.61,0.95,0.55,0.33,0.83,0.67,0.61,0.61,0.95,0.33,0.55,0.42,0.58,0.48,0.61,0.42,0.55,0.29,0.29,0.56,0.58,0.33,0.55,0.55,0.58,0.55,0.33,0.83,0.55,0.55,0.42,0.48,0.33,0.42" style="fill:rgb(0,0,0);font-family:URWPalladioL-Roma;font-size:9.96px;stroke:none;">d, the high-resolution TEM (HRTEM) sheds light on two sets</text>
   <text y="165.395" x="76.535,82.083,85.3698,89.146,92.459,98.373,103.1538,106.919,115.394,120.261,123.219,126.176,129.56,135.768,140.636,146.784,152.698,157.566,163.6416,167.453,171.965,175.979,181.629,185.938,189.25,194.331,197.21939999999998,200.967,203.924,209.005,212.318,215.63,218.588,223.099,227.8798,231.645,235.029,239.043,242.0,247.915,253.565,258.432,262.6152,266.419,274.894,277.851,281.164,286.94079999999997,290.757,294.07,299.984,304.7648,308.53,311.487,317.401,320.714,325.582,329.596,335.703,338.66,343.741,349.655,354.736,358.71999999999997,362.428,368.637,371.594,375.903,379.216,384.297,390.211,394.723,399.59,403.7732,407.578,413.126,416.4128,420.188,425.269,427.81,432.891,437.87100000000004,441.65,447.564,456.3288,460.216,465.297,471.211,477.2866,481.099,486.18,488.72,493.801,498.781,502.56,508.475,517.448" svgx:width="0.55,0.33,0.55,0.33,0.58,0.48,0.55,0.83,0.48,0.29,0.29,0.33,0.61,0.48,0.61,0.58,0.48,0.61,0.55,0.44,0.4,0.56,0.42,0.33,0.5,0.29,0.55,0.29,0.5,0.33,0.33,0.29,0.44,0.48,0.55,0.33,0.4,0.29,0.58,0.56,0.48,0.42,0.55,0.83,0.29,0.33,0.58,0.55,0.33,0.58,0.48,0.55,0.29,0.58,0.33,0.48,0.4,0.6,0.29,0.5,0.58,0.5,0.4,0.55,0.61,0.29,0.42,0.33,0.5,0.58,0.44,0.48,0.42,0.55,0.55,0.33,0.55,0.5,0.25,0.5,0.5,0.55,0.58,0.88,0.55,0.5,0.58,0.61,0.55,0.5,0.25,0.5,0.5,0.55,0.58,0.88,0.25" style="fill:rgb(0,0,0);font-family:URWPalladioL-Roma;font-size:9.96px;stroke:none;">of the well-deﬁned crystal lattice fringes with the interplanar distances of 0.33 nm and 0.27 nm,</text>
   <text y="178.905" x="76.236,82.283,87.103,91.078,94.358,97.286,103.142,107.962,113.818,117.1048,119.584,122.864,128.342,130.854,134.134,139.99,144.7708,147.295,150.646,155.677,160.708,165.74,169.0268,171.576,174.926,179.957,184.425,189.245,192.5318,195.021,200.515,203.8018,206.351,211.633,217.49" svgx:width="0.6,0.48,0.4,0.33,0.29,0.58,0.48,0.58,0.33,0.55,0.33,0.55,0.55,0.33,0.58,0.48,0.55,0.33,0.5,0.5,0.5,0.33,0.55,0.33,0.5,0.44,0.48,0.33,0.55,0.55,0.33,0.55,0.52,0.58,0.79" style="fill:rgb(0,0,0);font-family:URWPalladioL-Roma;font-size:9.96px;stroke:none;">pertinent to the (110) facet of SnO</text>
   <text y="180.77" x="225.398" svgx:width="0.5" style="fill:rgb(0,0,0);font-family:URWPalladioL-Roma;font-size:7.57px;stroke:none;">2</text>
   <text y="178.905" x="232.17,237.201,243.057,249.1326,251.691,255.041,260.073,265.104,270.135,273.4218,275.981,279.332,284.363,288.83,293.65,296.9368,299.416,304.91,308.19680000000005,310.746,316.341" svgx:width="0.5,0.58,0.61,0.55,0.33,0.5,0.5,0.5,0.33,0.55,0.33,0.5,0.44,0.48,0.33,0.55,0.55,0.33,0.55,0.56,0.48" style="fill:rgb(0,0,0);font-family:URWPalladioL-Roma;font-size:9.96px;stroke:none;">and (104) facet of Fe</text>
   <text y="180.77" x="321.164" svgx:width="0.5" style="fill:rgb(0,0,0);font-family:URWPalladioL-Roma;font-size:7.57px;stroke:none;">2</text>
   <text y="178.905" x="325.448" svgx:width="0.79" style="fill:rgb(0,0,0);font-family:URWPalladioL-Roma;font-size:9.96px;stroke:none;">O</text>
   <text y="180.77" x="333.356" svgx:width="0.5" style="fill:rgb(0,0,0);font-family:URWPalladioL-Roma;font-size:7.57px;stroke:none;">3</text>
   <text y="178.905" x="337.64,340.13,342.641,346.444,351.264,355.531,361.578,366.398,370.865,374.146,377.074,382.759,387.579,390.507,394.995,397.485,400.992,407.14,411.96,416.226,419.154,425.302,430.122,434.388,436.878,439.389,444.369,446.916,451.383,454.311,459.131,464.162,468.14599999999996,470.622,479.507,485.001,490.857,496.351,499.28,502.208,505.488,511.344,514.272" svgx:width="0.25,0.55,0.4,0.48,0.42,0.6,0.48,0.44,0.33,0.29,0.56,0.48,0.29,0.56,0.25,0.55,0.61,0.48,0.42,0.29,0.61,0.48,0.42,0.25,0.55,0.5,0.55,0.44,0.29,0.48,0.5,0.4,0.55,0.88,0.55,0.58,0.55,0.29,0.29,0.33,0.58,0.29,0.44" style="fill:rgb(0,0,0);font-family:URWPalladioL-Roma;font-size:9.96px;stroke:none;">, respectively. Besides, a clear monolithic</text>
   <text y="192.414" x="76.535,80.989,86.467,92.306,95.576,101.054,107.104,111.088,113.544,121.911,124.831,128.101,133.8778,136.418,142.257,147.735,150.212,158.579,163.385,166.304,169.224,172.565,178.042,183.59,187.844,192.649,196.612,202.28,207.297,212.844,215.764,220.5448,223.037,229.067,234.544,238.337,243.814,248.068,250.987,254.258,259.8356,262.304,265.645,268.564,274.403,278.857,281.777,287.826,293.956,296.875,302.714,308.2916,310.77,319.629,324.434,328.688,334.165,340.195,345.672,349.455,354.26,358.4432,360.992,366.008,371.847,377.9226,380.455,389.313,394.329,398.784,402.566,408.044,414.073,419.551,423.333,428.138,432.392,435.6788,438.211,443.688,448.143,452.597,458.647,462.609,466.7922,469.341,472.261,478.0378,480.577,483.848,489.687,494.4678,496.97,503.12,509.25" svgx:width="0.44,0.55,0.58,0.33,0.55,0.6,0.4,0.55,0.83,0.29,0.33,0.58,0.55,0.58,0.55,0.55,0.83,0.48,0.29,0.29,0.33,0.55,0.55,0.42,0.48,0.4,0.56,0.5,0.55,0.29,0.48,0.55,0.6,0.55,0.4,0.55,0.42,0.29,0.33,0.56,0.55,0.33,0.29,0.58,0.44,0.29,0.6,0.61,0.29,0.58,0.56,0.55,0.88,0.48,0.42,0.55,0.6,0.55,0.4,0.48,0.42,0.55,0.5,0.58,0.61,0.55,0.88,0.5,0.44,0.4,0.55,0.6,0.55,0.4,0.48,0.42,0.33,0.55,0.55,0.44,0.44,0.6,0.4,0.42,0.55,0.29,0.58,0.55,0.33,0.58,0.48,0.55,0.61,0.61,0.95" style="fill:rgb(0,0,0);font-family:URWPalladioL-Roma;font-size:9.96px;stroke:none;">contour with no well-observable porosity (including mesopores and macropores) occurs in the TEM</text>
   <text y="205.924" x="76.535,79.423,88.184,93.146,98.663,103.416,107.5992,110.114,113.418,118.935,121.822,127.339,133.323,137.064" svgx:width="0.29,0.88,0.5,0.56,0.48,0.42,0.55,0.33,0.56,0.29,0.56,0.6,0.4,0.48" style="fill:rgb(0,0,0);font-family:URWPalladioL-Roma;font-size:9.96px;stroke:none;">images (Figure</text>
   <text y="205.924" x="144.307" svgx:width="0.5" style="fill:rgb(8,117,183);font-family:URWPalladioL-Roma;font-size:9.96px;stroke:none;">3</text>
   <text y="205.924" x="149.269,153.674,156.155,162.218,165.522,168.012,170.494,175.455,180.972,185.933,188.821,194.5978,197.096,203.06,206.791,212.209,217.815,220.703,226.478,232.0556,234.495,240.27,245.688,251.463,254.767,260.731,266.149,269.89,275.308,281.291" svgx:width="0.44,0.25,0.61,0.33,0.25,0.55,0.5,0.56,0.5,0.29,0.58,0.55,0.6,0.4,0.55,0.56,0.29,0.58,0.56,0.55,0.58,0.55,0.58,0.33,0.6,0.55,0.4,0.55,0.6,0.42" style="fill:rgb(0,0,0);font-family:URWPalladioL-Roma;font-size:9.96px;stroke:none;">c,d), again proving non-porous</text>
   <text y="205.924" x="285.493" svgx:width="0.29" style="fill:rgb(0,0,0);font-family:Rpxr;font-size:9.96px;stroke:none;">/</text>
   <text y="205.924" x="288.341,292.747,298.165,306.926,312.89,317.851,322.257,325.54380000000003,327.982,332.19,335.424,339.264,345.248,349.654,352.888,358.872,362.791,367.753,370.6414,373.131,381.893,387.31,390.545,393.433,396.737,400.944,403.434,406.918,413.0,418.775,423.5558,426.019,431.625,436.378,440.298,449.06,451.947,456.353,462.336,465.224,470.185,473.42,478.2008,480.664,486.726,492.144,500.906,505.867,508.755,514.53" svgx:width="0.44,0.55,0.88,0.6,0.5,0.44,0.33,0.55,0.42,0.33,0.4,0.6,0.44,0.33,0.6,0.4,0.5,0.29,0.55,0.88,0.55,0.33,0.29,0.33,0.42,0.25,0.55,0.61,0.58,0.48,0.55,0.56,0.48,0.4,0.88,0.29,0.44,0.6,0.29,0.5,0.33,0.48,0.55,0.61,0.55,0.88,0.5,0.29,0.58,0.42" style="fill:rgb(0,0,0);font-family:URWPalladioL-Roma;font-size:9.96px;stroke:none;">compact structural motifs. The vermiculate domains</text>
   <text y="219.433" x="76.535,79.78,82.676,88.209,94.002,97.246,100.143,105.7206,108.174,113.151,116.903,122.337,128.338,134.131,140.2066,142.72,148.801,153.777,157.709,163.2866,165.74,169.96,175.942,181.376,184.621,188.8042,191.349,194.663,203.451,208.218,211.463,216.439,219.32739999999998,221.834,227.626,232.602,238.395,243.829,249.81,254.787,258.718,261.963,264.859,269.278,272.174,276.941,281.161,284.44780000000003,286.974,295.274,298.17,301.415,307.1918,309.715,312.96,318.752,323.5328,326.018,331.999,337.433,342.868,346.799,349.695,355.2726,357.737,363.36,366.256,370.476,373.372,378.876,381.772,386.5528,389.038,391.934,396.91,400.155,403.399,406.296,410.715,415.4958,417.98,420.876,423.772,429.565,434.332,438.5152,441.06,445.479,450.455,456.23179999999996,458.746,464.25,469.0308,471.525,474.421,480.214,486.295,491.062,496.198,500.965,507.0406,509.544,514.521" svgx:width="0.33,0.29,0.56,0.58,0.33,0.29,0.56,0.55,0.5,0.4,0.55,0.6,0.58,0.61,0.55,0.61,0.5,0.4,0.56,0.55,0.42,0.6,0.55,0.33,0.42,0.55,0.33,0.88,0.48,0.33,0.5,0.29,0.55,0.58,0.5,0.58,0.55,0.6,0.5,0.4,0.33,0.29,0.44,0.29,0.48,0.42,0.33,0.55,0.83,0.29,0.33,0.58,0.55,0.33,0.58,0.48,0.55,0.6,0.55,0.55,0.4,0.29,0.56,0.55,0.56,0.29,0.42,0.29,0.55,0.29,0.48,0.55,0.29,0.5,0.33,0.33,0.29,0.44,0.48,0.55,0.29,0.29,0.58,0.48,0.42,0.55,0.44,0.5,0.58,0.55,0.55,0.48,0.55,0.29,0.58,0.61,0.48,0.52,0.48,0.61,0.55,0.5,0.42" style="fill:rgb(0,0,0);font-family:URWPalladioL-Roma;font-size:9.96px;stroke:none;">tightly around dark spots (metal nanoparticles) with the poorly visible lattice lines can be indexed as</text>
   <text y="232.942" x="76.535,81.506,90.286,95.714,99.642,105.617,111.404,116.833,122.828,127.0112,129.529,133.944,138.915,142.843,148.341,153.77,159.54680000000002,162.042,164.935,169.907,175.435,180.197,184.125,188.34,190.83,193.312,196.205,201.98180000000002,204.477,210.005,215.434,220.863,226.9386,229.424,233.838,239.267,245.053,249.269,252.162,256.378,259.619,264.382,270.169,274.583,280.16060000000004,282.597,290.889,293.782,297.024,302.8008,305.296,308.537,314.324,319.1048,321.572,327.359,332.788,338.574,342.989,346.916,352.444,356.66,359.901,364.873,367.766,370.659,373.553,379.339,384.1198,386.587,391.002,396.789,401.76,405.687,410.659,415.073,418.315,423.077,427.004,429.898,434.113,437.355,440.248,444.663,448.8462,451.364,455.112,459.875,465.493,470.255,475.226,478.12,482.882,488.9576,491.443,496.931,502.5086,504.945,508.186,513.973" svgx:width="0.5,0.88,0.55,0.4,0.6,0.58,0.55,0.6,0.42,0.55,0.44,0.5,0.4,0.55,0.55,0.58,0.55,0.29,0.5,0.56,0.48,0.4,0.42,0.25,0.55,0.29,0.58,0.55,0.56,0.55,0.55,0.61,0.55,0.44,0.55,0.58,0.42,0.29,0.42,0.33,0.48,0.58,0.44,0.56,0.55,0.83,0.29,0.33,0.58,0.55,0.33,0.58,0.48,0.55,0.58,0.55,0.58,0.44,0.4,0.56,0.42,0.33,0.5,0.29,0.29,0.29,0.58,0.48,0.55,0.44,0.58,0.5,0.4,0.5,0.44,0.33,0.48,0.4,0.29,0.42,0.33,0.29,0.44,0.42,0.55,0.4,0.48,0.56,0.48,0.5,0.29,0.48,0.61,0.55,0.55,0.56,0.55,0.33,0.58,0.48" style="fill:rgb(0,0,0);font-family:URWPalladioL-Roma;font-size:9.96px;stroke:none;">amorphous carbon layers, in good consistency with the noncrystalline characteristics revealed by the</text>
   <text y="246.452" x="76.207,82.985,89.773,97.4422,100.23,105.311,111.225,117.30059999999999,120.035,126.823,131.904,140.877,145.958,151.7348,154.463,159.544,165.459,170.54,173.497,179.147,183.455,186.412,190.721,193.211,197.072,204.978,209.49,214.002,219.55,223.381,229.59,232.547,238.461,244.0386,246.703,250.015,255.493,258.165,261.478,267.392,272.1728,274.851,280.958,284.799,289.667,295.408,298.365,303.914,310.041,314.2242,316.941,320.955,326.036,329.349,332.306,337.854,343.769,348.849,351.807,356.5878,359.276,362.578,368.492,373.573,376.8598,379.487,383.796,387.109,390.94,395.807,400.116,404.2992,407.026,411.538,416.619,422.3958,425.124,430.744,435.5248,438.213,443.294,447.602,451.911,458.039,463.12,468.77,473.637,479.7126,482.437,485.75,491.664,495.495,501.044,507.171,512.821" svgx:width="0.67,0.67,0.77,0.55,0.5,0.58,0.61,0.55,0.67,0.5,0.88,0.5,0.58,0.55,0.5,0.58,0.5,0.29,0.56,0.42,0.29,0.42,0.25,0.55,0.78,0.44,0.44,0.55,0.4,0.61,0.29,0.58,0.56,0.55,0.33,0.55,0.55,0.33,0.58,0.48,0.55,0.6,0.4,0.48,0.56,0.29,0.55,0.6,0.42,0.55,0.4,0.5,0.33,0.29,0.55,0.58,0.5,0.29,0.48,0.55,0.33,0.58,0.5,0.33,0.55,0.42,0.33,0.4,0.48,0.42,0.42,0.55,0.44,0.5,0.58,0.55,0.55,0.48,0.55,0.5,0.42,0.42,0.6,0.5,0.56,0.48,0.61,0.55,0.33,0.58,0.4,0.55,0.6,0.56,0.58" style="fill:rgb(0,0,0);font-family:URWPalladioL-Roma;font-size:9.96px;stroke:none;">XRD and Raman analysis. According to the previous rationale that stress can be assuaged through</text>
   <text y="259.961" x="76.535,82.744,88.292,96.767,102.681,106.99,111.502,116.583,119.54,122.497,128.411,133.9886,136.907,140.219,145.768,154.243,159.324,163.155,169.364,173.5472,176.517,179.83,185.744,190.5248,193.447,199.361,204.442,210.356,215.905,224.878,229.745,233.058,236.899,241.767,244.257,247.234,252.214,255.16,261.369,264.316,273.289,278.156,284.071,288.379,291.336,296.885,302.66179999999997,305.644,308.957,314.871,318.702,323.57,327.878,333.792,339.341,342.298,348.3736,351.352,354.665,360.14300000000003,363.059,367.57,372.651,378.779,383.088,387.8688,390.79,394.103,400.017,404.7978,407.73,412.598,417.841,423.948,429.029,434.943,439.252,442.209,447.758,453.53479999999996,456.517,461.598,467.512,473.5876,476.556,480.865,486.972,490.813,495.681,500.762,506.8376,509.806,515.354" svgx:width="0.61,0.55,0.83,0.58,0.42,0.44,0.5,0.29,0.29,0.58,0.56,0.55,0.33,0.55,0.83,0.5,0.4,0.61,0.42,0.55,0.33,0.58,0.48,0.55,0.58,0.5,0.58,0.55,0.88,0.48,0.33,0.4,0.48,0.25,0.55,0.5,0.55,0.61,0.29,0.88,0.48,0.58,0.42,0.29,0.55,0.58,0.55,0.33,0.58,0.4,0.48,0.42,0.58,0.55,0.29,0.61,0.55,0.33,0.55,0.55,0.44,0.5,0.6,0.42,0.48,0.55,0.33,0.58,0.48,0.55,0.48,0.52,0.6,0.5,0.58,0.42,0.29,0.55,0.58,0.55,0.5,0.58,0.61,0.55,0.42,0.6,0.4,0.48,0.5,0.61,0.55,0.55,0.33" style="fill:rgb(0,0,0);font-family:URWPalladioL-Roma;font-size:9.96px;stroke:none;">downscaling towards the nanometre, a dimension threshold to cause the expansion and spread of</text>
   <text y="273.471" x="76.535,79.919,83.933,89.014,93.526,96.838,102.966,106.797,111.5778,114.317,117.274,123.0508,125.83,129.143,135.057,139.8378,142.567,151.54,156.621,159.933,164.801,168.815,171.772,176.853,179.81,183.9932,186.761,192.675,197.756,201.9392,204.706,210.326,215.193,220.061,225.83780000000002,228.617,234.725,238.566,244.114,249.856,254.723,260.4998,263.279,266.592,272.07,274.783,280.402,285.1828,287.912,291.753,297.301,303.429,309.079,314.993,317.95,323.5276,326.242,331.323,336.404,341.384,344.127,350.041,358.8058,361.656" svgx:width="0.33,0.4,0.5,0.44,0.33,0.6,0.4,0.48,0.55,0.29,0.58,0.55,0.33,0.58,0.48,0.55,0.88,0.5,0.33,0.48,0.4,0.29,0.5,0.29,0.42,0.55,0.58,0.5,0.42,0.55,0.55,0.48,0.48,0.58,0.55,0.6,0.4,0.55,0.56,0.48,0.58,0.55,0.33,0.55,0.55,0.55,0.48,0.55,0.4,0.55,0.6,0.56,0.58,0.29,0.56,0.55,0.5,0.5,0.5,0.55,0.58,0.88,0.55,0.33" style="fill:rgb(0,0,0);font-family:URWPalladioL-Roma;font-size:9.96px;stroke:none;">fracture in the materials has been proven to be roughly 150 nm [</text>
   <text y="273.471" x="365.043,370.024" svgx:width="0.5,0.5" style="fill:rgb(8,117,183);font-family:URWPalladioL-Roma;font-size:9.96px;stroke:none;">30</text>
   <text y="273.471" x="375.006" svgx:width="0.5" style="fill:rgb(0,0,0);font-family:URWPalladioL-Roma;font-size:9.96px;stroke:none;">–</text>
   <text y="273.471" x="380.087,385.068" svgx:width="0.5,0.5" style="fill:rgb(8,117,183);font-family:URWPalladioL-Roma;font-size:9.96px;stroke:none;">32</text>
   <text y="273.471" x="390.05,393.434,395.92400000000004,399.917,407.823,412.803,415.556,420.536,423.279,427.11,431.978,436.286,442.414,445.371,448.684,451.17400000000004,453.907,462.88,469.008,471.965,475.277,478.235,481.547,487.675,493.884,496.841,502.755,508.303,514.431" svgx:width="0.33,0.25,0.55,0.78,0.5,0.55,0.5,0.55,0.4,0.48,0.42,0.6,0.29,0.33,0.25,0.55,0.88,0.6,0.29,0.33,0.29,0.33,0.6,0.61,0.29,0.58,0.55,0.6,0.42" style="fill:rgb(0,0,0);font-family:URWPalladioL-Roma;font-size:9.96px;stroke:none;">]. Aa a result, multitudinous</text>
   <text y="286.98" x="76.535,81.403,86.646,92.337,98.464,101.421,105.73,108.687,112.0,116.7808,119.662,128.635,134.183,138.197,144.304,150.219,155.767,158.724,164.272,169.922,172.88,177.391,182.472,185.3604,188.234,193.102,199.016,204.666,207.623,213.537,218.405,223.272,227.286,230.243,236.157,241.7346,244.602,247.915,253.463,261.938,267.019,270.85,276.92560000000003,279.863,285.778,288.735,294.385,300.299,303.256,308.8336,311.701,317.615,320.572,325.439,329.453,334.534,338.365,342.877,348.791,351.748,356.26,361.341,364.2294,367.103,371.411,374.724,378.657,384.785,389.296,392.609,398.737,402.568,407.435,411.6182,414.549,420.463,425.544,431.285,436.0658,438.947,444.567,449.434,454.302,460.0788,463.01,469.138,475.052,481.261,486.129,490.113,492.947,497.256,500.569,506.696,512.905,517.447" svgx:width="0.48,0.52,0.56,0.6,0.29,0.42,0.29,0.33,0.48,0.55,0.88,0.55,0.4,0.6,0.58,0.55,0.29,0.55,0.56,0.29,0.44,0.5,0.29,0.55,0.48,0.58,0.56,0.29,0.58,0.48,0.48,0.4,0.29,0.58,0.56,0.55,0.33,0.55,0.83,0.5,0.4,0.61,0.55,0.58,0.29,0.56,0.58,0.29,0.56,0.55,0.58,0.29,0.48,0.4,0.5,0.4,0.44,0.58,0.29,0.44,0.5,0.29,0.55,0.42,0.33,0.4,0.6,0.44,0.33,0.6,0.4,0.48,0.42,0.55,0.58,0.5,0.56,0.48,0.55,0.55,0.48,0.48,0.58,0.55,0.6,0.58,0.61,0.48,0.4,0.55,0.42,0.33,0.6,0.61,0.56,0.25" style="fill:rgb(0,0,0);font-family:URWPalladioL-Roma;font-size:9.96px;stroke:none;">exquisite morphological engineering toward highly hierarchical structures have been under study,</text>
   <text y="300.489" x="76.535,79.848,85.326,88.78,92.164,98.292,101.249,107.397,110.28540000000001,113.727,117.04,122.954,127.73479999999999,131.206,136.541,142.3178,145.829,150.137,153.45,157.291,162.159,166.467,170.6502,174.15,177.991,182.858,185.816,190.896,196.14,201.221,204.534,207.491,213.039,218.8158,222.327,228.536,234.664,238.678,241.635,247.549,253.1266,256.583,259.895,265.81,270.5908,274.061,277.018,279.975,283.288,289.202,292.159,297.24,300.553,303.51,309.059,314.8358,318.346,324.454,328.295,333.843,338.355,343.223,347.531,351.84,354.33,360.528,366.178,371.727,375.71099999999996,379.125,382.082,387.996,392.304,395.617,400.698,406.612,411.124,415.992,418.482,422.129,425.442,431.356,436.1368,439.608,448.581,453.662,457.676,463.326,468.193,474.2686,477.786,483.405,488.954,494.502,498.811,502.124,506.3072,509.806,515.354" svgx:width="0.33,0.55,0.55,0.33,0.6,0.29,0.61,0.29,0.55,0.33,0.58,0.48,0.55,0.52,0.58,0.55,0.42,0.33,0.4,0.48,0.42,0.42,0.55,0.4,0.48,0.29,0.5,0.52,0.5,0.33,0.29,0.55,0.58,0.55,0.61,0.6,0.4,0.29,0.58,0.56,0.55,0.33,0.58,0.48,0.55,0.29,0.29,0.33,0.58,0.29,0.5,0.33,0.29,0.55,0.58,0.55,0.6,0.4,0.55,0.44,0.48,0.42,0.42,0.25,0.55,0.56,0.55,0.4,0.55,0.29,0.58,0.42,0.33,0.5,0.58,0.44,0.48,0.25,0.55,0.33,0.58,0.48,0.55,0.88,0.5,0.4,0.56,0.48,0.61,0.55,0.55,0.55,0.55,0.42,0.33,0.42,0.55,0.55,0.33" style="fill:rgb(0,0,0);font-family:URWPalladioL-Roma;font-size:9.96px;stroke:none;">to fulﬁl the Sn stress relaxation during the lithiation process. For instance, the marked boosts of</text>
   <text y="313.999" x="76.535,79.478,84.999,90.884,96.506,99.874,104.363,109.986,114.475,117.418,122.1988,124.769,129.057,132.353,137.409,143.001,145.944,148.887,151.829,155.126,160.7036,163.256,169.141,174.197,179.91,184.6908,187.272,191.762,197.283,206.212,210.9928,213.563,216.86,220.773,226.871,231.6518,234.222,239.814,245.39159999999998,247.944,252.788,258.006,264.083,267.026,272.547,275.489,278.786,281.728,287.614,293.1916,295.744,299.04,304.925,309.7058,312.287,316.575,322.672,328.264,331.631,336.687,341.743,345.111,350.996,359.925,363.292,367.58,370.522,375.578,380.422,386.49760000000003,389.108,394.417" svgx:width="0.29,0.55,0.58,0.56,0.33,0.44,0.56,0.44,0.29,0.48,0.55,0.42,0.33,0.5,0.55,0.29,0.29,0.29,0.33,0.56,0.55,0.58,0.5,0.56,0.48,0.55,0.44,0.55,0.88,0.48,0.55,0.33,0.4,0.6,0.48,0.55,0.55,0.56,0.55,0.48,0.52,0.6,0.29,0.55,0.29,0.33,0.29,0.58,0.56,0.55,0.33,0.58,0.48,0.55,0.42,0.6,0.55,0.33,0.5,0.5,0.33,0.58,0.88,0.33,0.42,0.29,0.5,0.48,0.61,0.55,0.52,0.58" style="fill:rgb(0,0,0);font-family:URWPalladioL-Roma;font-size:9.96px;stroke:none;">long-cycle stability have come true by exploiting the sub-10-nm-sized Sn</text>
   <text y="313.999" x="400.3" svgx:width="0.29" style="fill:rgb(0,0,0);font-family:Rpxr;font-size:9.96px;stroke:none;">/</text>
   <text y="313.999" x="403.202,408.511,414.396" svgx:width="0.52,0.58,0.79" style="fill:rgb(0,0,0);font-family:URWPalladioL-Roma;font-size:9.96px;stroke:none;">SnO</text>
   <text y="315.864" x="422.344" svgx:width="0.5" style="fill:rgb(0,0,0);font-family:URWPalladioL-Roma;font-size:7.57px;stroke:none;">2</text>
   <text y="313.999" x="426.628,429.995,435.587,440.643,444.931,449.774,455.8496,458.461,464.346,469.402,475.287,480.808,486.886,491.942,495.936,499.232,502.175,506.665,509.607,514.451" svgx:width="0.33,0.55,0.5,0.42,0.48,0.61,0.55,0.58,0.5,0.58,0.55,0.6,0.5,0.4,0.33,0.29,0.44,0.29,0.48,0.42" style="fill:rgb(0,0,0);font-family:URWPalladioL-Roma;font-size:9.96px;stroke:none;">-based nanoparticles</text>
   <text y="327.508" x="76.535,81.403,87.317,91.829,96.91,103.017,107.325,113.453,116.41,121.491,124.804,129.671,135.7466,138.908,141.866,147.78,152.088,155.045,161.254,166.0348,169.14,172.453,178.367,183.1478,186.263,192.177,195.134,198.447,202.288,207.836,213.486,218.354" svgx:width="0.48,0.58,0.44,0.5,0.6,0.42,0.6,0.29,0.5,0.33,0.48,0.61,0.55,0.29,0.58,0.42,0.29,0.61,0.48,0.55,0.33,0.58,0.48,0.55,0.58,0.29,0.33,0.4,0.55,0.56,0.48,0.58" style="fill:rgb(0,0,0);font-family:URWPalladioL-Roma;font-size:9.96px;stroke:none;">encapsulated inside the nitrogen</text>
   <text y="327.508" x="224.264" svgx:width="0.29" style="fill:rgb(0,0,0);font-family:Rpxr;font-size:9.96px;stroke:none;">/</text>
   <text y="327.508" x="227.18,233.287,239.201,244.75,249.058,255.166,261.08,266.628,270.561,276.689,280.8722,284.025,288.537,294.086,297.47,303.678,309.227,315.334,320.202,326.2776,329.439,335.353,338.31,343.177,347.191,352.272,356.103,360.615,366.529,369.486,373.998,379.079,382.036,384.993,390.5706,393.672,399.779,405.327,409.158,414.707,420.834,425.0172,428.171,432.683,437.764,441.778,447.397,452.946,458.7228,461.888,466.969,472.883,478.9586,482.11,485.951,490.819,497.028,503.155,507.667,512.535" svgx:width="0.6,0.58,0.55,0.42,0.6,0.58,0.55,0.4,0.6,0.42,0.55,0.44,0.55,0.33,0.61,0.55,0.6,0.48,0.61,0.55,0.58,0.29,0.48,0.4,0.5,0.4,0.44,0.58,0.29,0.44,0.5,0.29,0.29,0.56,0.55,0.6,0.55,0.4,0.55,0.6,0.42,0.55,0.44,0.5,0.4,0.55,0.55,0.58,0.55,0.5,0.58,0.61,0.55,0.4,0.48,0.61,0.6,0.44,0.48,0.61" style="fill:rgb(0,0,0);font-family:URWPalladioL-Roma;font-size:9.96px;stroke:none;">phosphorus co-doped hierarchically porous carbon and reduced</text>
   <text y="341.018" x="76.535,82.085,86.028,91.02,97.019,102.829,107.611,113.42,118.2008,120.698,126.148,131.299,134.204,140.303,145.085,149.2682,151.813" svgx:width="0.56,0.4,0.5,0.6,0.58,0.48,0.58,0.48,0.55,0.55,0.52,0.29,0.61,0.48,0.42,0.55,0.33" style="fill:rgb(0,0,0);font-family:URWPalladioL-Roma;font-size:9.96px;stroke:none;">graphene oxides [</text>
   <text y="341.018" x="155.133,160.114" svgx:width="0.5,0.5" style="fill:rgb(8,117,183);font-family:URWPalladioL-Roma;font-size:9.96px;stroke:none;">14</text>
   <text y="341.018" x="165.096,168.42,170.91,173.411,178.391,180.898,189.713,194.495,198.727,204.178,210.177,215.628,219.391,224.841,230.861,235.0442,237.579,242.011,247.003,250.946,256.466,261.917,267.726,275.183,280.424,286.234" svgx:width="0.33,0.25,0.55,0.5,0.55,0.88,0.48,0.42,0.55,0.6,0.55,0.4,0.55,0.6,0.42,0.55,0.44,0.5,0.4,0.55,0.55,0.58,0.75,0.52,0.58,0.79" style="fill:rgb(0,0,0);font-family:URWPalladioL-Roma;font-size:9.96px;stroke:none;">], a mesoporous carbon@SnO</text>
   <text y="342.882" x="294.085" svgx:width="0.5" style="fill:rgb(0,0,0);font-family:URWPalladioL-Roma;font-size:7.57px;stroke:none;">2</text>
   <text y="341.018" x="298.369,305.83900000000006,308.322,312.754,317.745,321.688,327.208,332.659,338.4358,340.964,346.774,352.225,355.13,358.035,363.485,371.7518,374.296,380.106,385.097,390.907,396.357,400.59,406.59,412.399,417.181,420.944,425.7248,428.222,436.547,439.452,442.706,448.4828,451.012,457.111,463.131,468.122,471.0104,473.522,477.755,483.565,488.346,491.251,494.156,498.3392,500.874" svgx:width="0.75,0.55,0.44,0.5,0.4,0.55,0.55,0.58,0.55,0.58,0.55,0.29,0.29,0.55,0.83,0.55,0.58,0.5,0.58,0.55,0.42,0.6,0.58,0.48,0.4,0.48,0.55,0.83,0.29,0.33,0.58,0.55,0.61,0.6,0.5,0.29,0.55,0.42,0.58,0.48,0.29,0.29,0.42,0.55,0.33" style="fill:rgb(0,0,0);font-family:URWPalladioL-Roma;font-size:9.96px;stroke:none;">@ carbon hollow nanosphere with dual shells [</text>
   <text y="341.018" x="504.203,509.184" svgx:width="0.5,0.5" style="fill:rgb(8,117,183);font-family:URWPalladioL-Roma;font-size:9.96px;stroke:none;">33</text>
   <text y="341.018" x="514.166,517.49" svgx:width="0.33,0.25" style="fill:rgb(0,0,0);font-family:URWPalladioL-Roma;font-size:9.96px;stroke:none;">],</text>
   <text y="354.527" x="76.535,79.848,85.762,90.5428,94.796,100.131,106.045,109.429,114.764,120.678" svgx:width="0.33,0.58,0.48,0.55,0.52,0.58,0.33,0.52,0.58,0.79" style="fill:rgb(0,0,0);font-family:URWPalladioL-Roma;font-size:9.96px;stroke:none;">the Sn-SnO</text>
   <text y="356.392" x="128.663" svgx:width="0.5" style="fill:rgb(0,0,0);font-family:URWPalladioL-Roma;font-size:7.57px;stroke:none;">2</text>
   <text y="354.527" x="137.111,143.025,148.675,154.295,158.309,161.266,167.3416,171.641,177.555,182.636,188.55,194.099,198.611,201.568,207.695,212.004,215.317,220.184,224.198,228.3812,232.663,237.53,246.503,252.123,256.99,263.199,269.408,274.276,280.3516,284.651,287.608,293.522,297.831,300.788,306.997,311.7778,316.031,320.543,325.623,329.637,335.257,340.805,346.5818,350.886,356.8,361.881,367.795,373.343,376.656,382.784,388.403,393.271,397.4542,401.736" svgx:width="0.58,0.56,0.55,0.4,0.29,0.61,0.55,0.58,0.5,0.58,0.55,0.44,0.29,0.6,0.42,0.33,0.48,0.4,0.42,0.55,0.48,0.88,0.55,0.48,0.61,0.61,0.48,0.61,0.55,0.29,0.58,0.42,0.29,0.61,0.48,0.55,0.44,0.5,0.4,0.55,0.55,0.58,0.55,0.58,0.5,0.58,0.55,0.33,0.6,0.55,0.48,0.42,0.55,0.33" style="fill:rgb(0,0,0);font-family:URWPalladioL-Roma;font-size:9.96px;stroke:none;">hybrid nanoclusters embedded inside carbon nanotubes [</text>
   <text y="354.527" x="405.122,410.103" svgx:width="0.5,0.5" style="fill:rgb(8,117,183);font-family:URWPalladioL-Roma;font-size:9.96px;stroke:none;">34</text>
   <text y="354.527" x="415.085,418.469,420.959,425.592,428.905,434.819,439.5998,443.853,449.767,454.635,457.948,462.815,466.646,472.195,476.503,479.816,483.749,489.876,494.388,497.701,503.828,507.659,512.527" svgx:width="0.33,0.25,0.55,0.33,0.58,0.48,0.55,0.58,0.48,0.33,0.48,0.4,0.55,0.42,0.33,0.4,0.6,0.44,0.33,0.6,0.4,0.48,0.61" style="fill:rgb(0,0,0);font-family:URWPalladioL-Roma;font-size:9.96px;stroke:none;">], the heterostructured</text>
   <text y="368.036" x="76.535,81.661,87.343,92.469,95.72,102.232,107.914,113.04,120.333,129.169,134.851,140.182,143.023,145.865,151.195,161.252,166.934,171.816,177.498,182.829,188.228,193.559,198.596,203.273,207.4562,209.326,214.003,222.624,228.023,232.7,238.665,244.631,249.307,257.186,260.027,265.80379999999997,267.623,270.806,276.488,281.2688,283.079,288.507,292.364,297.245,303.113,308.795,313.472,319.154,323.9348,325.745" svgx:width="0.52,0.58,0.52,0.33,0.67,0.58,0.52,0.75,0.71,0.58,0.55,0.29,0.29,0.55,0.83,0.58,0.5,0.58,0.55,0.55,0.55,0.52,0.48,0.42,0.55,0.48,0.88,0.55,0.48,0.61,0.61,0.48,0.61,0.29,0.58,0.55,0.33,0.58,0.48,0.55,0.56,0.4,0.5,0.6,0.58,0.48,0.58,0.48,0.55,0.33" style="fill:rgb(0,0,0);font-family:URWPalladioL-Roma;font-size:9.96px;stroke:none;">SnS-ZnS@Chollownanoboxes embeddedin the graphene [</text>
   <text y="368.036" x="328.998,333.979" svgx:width="0.5,0.5" style="fill:rgb(8,117,183);font-family:URWPalladioL-Roma;font-size:9.96px;stroke:none;">35</text>
   <text y="368.036" x="338.961,342.212,344.702,346.684,349.867,355.549,360.3298,362.139,366.474,371.356,375.212,380.611,385.942,391.625,394.876,399.211,404.541,409.423,412.606,417.283,425.162,430.287,435.97" svgx:width="0.33,0.25,0.55,0.33,0.58,0.48,0.55,0.44,0.5,0.4,0.55,0.55,0.58,0.33,0.44,0.55,0.5,0.33,0.48,0.61,0.52,0.58,0.79" style="fill:rgb(0,0,0);font-family:URWPalladioL-Roma;font-size:9.96px;stroke:none;">], the carbon-coatedSnO</text>
   <text y="369.901" x="443.643" svgx:width="0.5" style="fill:rgb(0,0,0);font-family:URWPalladioL-Roma;font-size:7.57px;stroke:none;">2</text>
   <text y="368.036" x="447.927,452.809,459.731,465.062,474.649,480.078,485.408,488.25,493.678,498.56,502.699,508.382,513.058,515.899" svgx:width="0.5,0.71,0.55,0.79,0.56,0.55,0.29,0.56,0.5,0.42,0.58,0.48,0.29,0.29" style="fill:rgb(0,0,0);font-family:URWPalladioL-Roma;font-size:9.96px;stroke:none;">–CoOyolk–shell</text>
   <text y="381.546" x="76.535,85.174,88.021,92.364,96.053,101.394,105.542,111.422,117.116,121.802,125.481,130.167,134.3502,136.829" svgx:width="0.88,0.29,0.44,0.4,0.55,0.42,0.6,0.58,0.48,0.4,0.48,0.42,0.55,0.33" style="fill:rgb(0,0,0);font-family:URWPalladioL-Roma;font-size:9.96px;stroke:none;">microspheres [</text>
   <text y="381.546" x="140.085,145.066" svgx:width="0.5,0.5" style="fill:rgb(8,117,183);font-family:URWPalladioL-Roma;font-size:9.96px;stroke:none;">36</text>
   <text y="381.546" x="150.048,153.306,155.79600000000002,158.266,161.455,167.149,171.9298,174.34,180.317,185.659,191.558,196.969,199.816,204.5968,207.016,211.164,216.858,221.544,224.391,227.27939999999998,229.743,238.381,241.228,245.572,249.26,254.602,257.86,262.203,268.103,273.513,278.2938,280.704,285.595,289.743,293.892,298.578,307.216,312.626,315.473,320.16,326.23560000000003,328.651,334.062,339.63960000000003,342.006,347.7,352.591,358.285,363.627,367.775,370.622,375.513,380.2,386.2756,388.691,395.628" svgx:width="0.33,0.25,0.55,0.33,0.58,0.48,0.55,0.61,0.55,0.6,0.55,0.29,0.48,0.55,0.42,0.58,0.48,0.29,0.29,0.55,0.88,0.29,0.44,0.4,0.55,0.33,0.44,0.6,0.55,0.48,0.55,0.5,0.42,0.42,0.48,0.88,0.55,0.29,0.48,0.61,0.55,0.55,0.56,0.55,0.58,0.5,0.58,0.55,0.42,0.29,0.5,0.48,0.61,0.55,0.71,0.55" style="fill:rgb(0,0,0);font-family:URWPalladioL-Roma;font-size:9.96px;stroke:none;">], the double shell micro-cube assembled by nanosized Co</text>
   <text y="383.411" x="400.967" svgx:width="0.5" style="fill:rgb(0,0,0);font-family:URWPalladioL-Roma;font-size:7.57px;stroke:none;">3</text>
   <text y="381.546" x="405.251,410.387" svgx:width="0.52,0.58" style="fill:rgb(0,0,0);font-family:URWPalladioL-Roma;font-size:9.96px;stroke:none;">Sn</text>
   <text y="383.411" x="416.081" svgx:width="0.5" style="fill:rgb(0,0,0);font-family:URWPalladioL-Roma;font-size:7.57px;stroke:none;">2</text>
   <text y="381.546" x="420.365" svgx:width="0.29" style="fill:rgb(0,0,0);font-family:Rpxr;font-size:9.96px;stroke:none;">/</text>
   <text y="381.546" x="423.173,428.309,434.003" svgx:width="0.52,0.58,0.79" style="fill:rgb(0,0,0);font-family:URWPalladioL-Roma;font-size:9.96px;stroke:none;">SnO</text>
   <text y="383.411" x="441.692" svgx:width="0.5" style="fill:rgb(0,0,0);font-family:URWPalladioL-Roma;font-size:7.57px;stroke:none;">2</text>
   <text y="381.546" x="448.485,454.179,458.865,462.054,466.741,470.429,475.771,479.919,483.108,486.894,492.793,497.137,500.327,506.216,509.904,514.591" svgx:width="0.58,0.48,0.33,0.48,0.4,0.55,0.42,0.33,0.4,0.6,0.44,0.33,0.6,0.4,0.48,0.42" style="fill:rgb(0,0,0);font-family:URWPalladioL-Roma;font-size:9.96px;stroke:none;">heterostructures</text>
   <text y="395.055" x="76.117,84.334,87.202,90.414,96.1908,98.621,103.548,112.248,117.628,121.52,127.441,133.176,138.556,144.497,148.6802,151.158,155.532,160.459,164.351,169.799,175.179,180.9558,183.387,186.254,191.18,196.659,201.378,205.27,209.4532,211.921,220.138,224.03,228.957,234.879,240.8,245.52,251.59560000000002,254.023,256.89,262.625,266.802,269.66,275.68,280.4608,282.882,286.094,291.829,296.6098,299.022,302.234,307.968,311.683,316.402,321.122,324.403,330.423,333.29,341.991,346.71,352.445,356.622,359.49,364.869,370.604,375.53,378.41839999999996,380.871,386.349,390.241,395.167,401.089,406.824,411.543,417.278,422.0588,424.47,433.171,438.097,441.309,445.201,448.068,453.24719999999996,455.635" svgx:width="0.83,0.29,0.33,0.58,0.55,0.5,0.88,0.55,0.4,0.6,0.58,0.55,0.6,0.42,0.55,0.44,0.5,0.4,0.55,0.55,0.58,0.55,0.29,0.5,0.56,0.48,0.4,0.42,0.55,0.83,0.4,0.5,0.6,0.6,0.48,0.61,0.55,0.29,0.58,0.42,0.29,0.61,0.48,0.55,0.33,0.58,0.48,0.55,0.33,0.58,0.4,0.48,0.48,0.33,0.61,0.29,0.88,0.48,0.58,0.42,0.29,0.55,0.58,0.5,0.29,0.55,0.56,0.4,0.5,0.6,0.58,0.48,0.58,0.48,0.55,0.88,0.5,0.33,0.4,0.29,0.52,0.55,0.33" style="fill:rgb(0,0,0);font-family:URWPalladioL-Roma;font-size:9.96px;stroke:none;">with amorphous carbon layers wrapped inside the three-dimensional graphene matrix [</text>
   <text y="395.055" x="458.914,463.895" svgx:width="0.5,0.5" style="fill:rgb(8,117,183);font-family:URWPalladioL-Roma;font-size:9.96px;stroke:none;">37</text>
   <text y="395.055" x="468.877,472.158,474.648,477.104,482.084,484.504,493.204,496.071,501.156,504.368,510.309,514.024" svgx:width="0.33,0.25,0.55,0.5,0.55,0.88,0.29,0.52,0.33,0.6,0.4,0.48" style="fill:rgb(0,0,0);font-family:URWPalladioL-Roma;font-size:9.96px;stroke:none;">], a mixture</text>
   <text y="408.565" x="76.535,82.083,85.3698,88.292,94.4,99.948,103.779,109.327,115.455,119.6382,122.589,128.503,134.051,137.008,139.965,145.514,153.7808,156.814,162.149,168.063" svgx:width="0.55,0.33,0.55,0.6,0.55,0.4,0.55,0.6,0.42,0.55,0.58,0.55,0.29,0.29,0.55,0.83,0.55,0.52,0.58,0.79" style="fill:rgb(0,0,0);font-family:URWPalladioL-Roma;font-size:9.96px;stroke:none;">of porous hollow SnO</text>
   <text y="410.429" x="176.052" svgx:width="0.5" style="fill:rgb(0,0,0);font-family:URWPalladioL-Roma;font-size:7.57px;stroke:none;">2</text>
   <text y="408.565" x="183.161,189.075,194.156,200.07,205.619,210.131,216.258,221.878,226.65879999999999,229.57,234.651,240.565,246.6406,249.599,255.249,259.263,264.344,270.451,276.366,281.233,287.147,291.9278,294.84,299.921,304.788,308.619,314.168,319.818,324.685,327.5734,330.467" svgx:width="0.58,0.5,0.58,0.55,0.44,0.6,0.55,0.48,0.55,0.5,0.58,0.61,0.55,0.56,0.4,0.5,0.6,0.58,0.48,0.58,0.48,0.55,0.5,0.48,0.4,0.55,0.56,0.48,0.29,0.55,0.33" style="fill:rgb(0,0,0);font-family:URWPalladioL-Roma;font-size:9.96px;stroke:none;">nanocube and graphene aerogel [</text>
   <text y="408.565" x="333.852,338.833" svgx:width="0.5,0.5" style="fill:rgb(8,117,183);font-family:URWPalladioL-Roma;font-size:9.96px;stroke:none;">38</text>
   <text y="408.565" x="343.815,347.199,349.689,352.646,355.958,361.873,366.6538,369.565,375.479,381.028,386.769,391.637,394.5254,397.419,403.333,408.881,414.795,419.663,425.313,429.825,435.373,444.346,449.966,453.35,456.307,459.264,464.914,469.6948,472.606,477.118,482.666,491.639,497.747,503.295,507.604,510.561,513.874" svgx:width="0.33,0.25,0.55,0.33,0.58,0.48,0.55,0.58,0.55,0.56,0.48,0.29,0.55,0.58,0.55,0.58,0.48,0.56,0.44,0.55,0.88,0.55,0.33,0.29,0.29,0.56,0.48,0.55,0.44,0.55,0.88,0.6,0.55,0.42,0.29,0.33,0.48" style="fill:rgb(0,0,0);font-family:URWPalladioL-Roma;font-size:9.96px;stroke:none;">], the novel honeycomb-like composite</text>
   <text y="422.074" x="76.535,81.047,86.595,95.568,101.675,107.224,111.532,114.49,120.404,125.9816,129.61,135.159,138.4458,142.099,145.412,151.326,156.1068,159.75,164.262,169.343,173.357,178.977,184.525,190.30180000000001,194.006,198.874,204.788,209.3,214.38,220.478,224.786,230.914,233.871,238.952,242.265,247.132,253.2076,256.908,262.243,268.157" svgx:width="0.44,0.55,0.88,0.6,0.55,0.42,0.29,0.58,0.56,0.55,0.55,0.33,0.55,0.33,0.58,0.48,0.55,0.44,0.5,0.4,0.55,0.55,0.58,0.55,0.48,0.58,0.44,0.5,0.6,0.42,0.6,0.29,0.5,0.33,0.48,0.61,0.55,0.52,0.58,0.79" style="fill:rgb(0,0,0);font-family:URWPalladioL-Roma;font-size:9.96px;stroke:none;">composing of the carbon encapsulated SnO</text>
   <text y="423.939" x="276.14" svgx:width="0.5" style="fill:rgb(0,0,0);font-family:URWPalladioL-Roma;font-size:7.57px;stroke:none;">2</text>
   <text y="422.074" x="283.982,289.896,294.977,300.891,306.44,310.748,316.856,322.77,327.637,331.468,336.336,340.5192,344.211,349.079,358.052,363.661,368.529,374.737,380.946,385.814,391.88960000000003,395.59,398.547,404.3238,408.017,411.33,417.244,422.0248,425.669,430.18,435.261,439.275,444.895,450.443,456.21979999999996,459.914,466.062,469.019,477.7838,481.549" svgx:width="0.58,0.5,0.58,0.55,0.42,0.6,0.58,0.48,0.4,0.48,0.42,0.55,0.48,0.88,0.55,0.48,0.61,0.61,0.48,0.61,0.55,0.29,0.58,0.55,0.33,0.58,0.48,0.55,0.44,0.5,0.4,0.55,0.55,0.58,0.55,0.61,0.29,0.88,0.55,0.33" style="fill:rgb(0,0,0);font-family:URWPalladioL-Roma;font-size:9.96px;stroke:none;">nanospheres embedded in the carbon ﬁlm [</text>
   <text y="422.074" x="484.934,489.915" svgx:width="0.5,0.5" style="fill:rgb(8,117,183);font-family:URWPalladioL-Roma;font-size:9.96px;stroke:none;">39</text>
   <text y="422.074" x="494.897,498.281,500.771,504.642,507.955,513.869" svgx:width="0.33,0.25,0.55,0.33,0.58,0.48" style="fill:rgb(0,0,0);font-family:URWPalladioL-Roma;font-size:9.96px;stroke:none;">], the</text>
   <text y="435.583" x="76.535,80.742,85.704,91.479,97.541,105.817,108.705,113.11,118.885,122.19,125.077,127.965,133.482,138.2628,140.725,147.76,155.173,160.382,166.157" svgx:width="0.42,0.5,0.58,0.61,0.83,0.29,0.44,0.58,0.33,0.29,0.29,0.56,0.48,0.55,0.71,0.75,0.52,0.58,0.79" style="fill:rgb(0,0,0);font-family:URWPalladioL-Roma;font-size:9.96px;stroke:none;">sandwich-like C@SnO</text>
   <text y="437.448" x="173.957" svgx:width="0.5" style="fill:rgb(0,0,0);font-family:URWPalladioL-Roma;font-size:7.57px;stroke:none;">2</text>
   <text y="435.583" x="178.241" svgx:width="0.29" style="fill:rgb(0,0,0);font-family:Rpxr;font-size:9.96px;stroke:none;">/</text>
   <text y="435.583" x="181.089,186.298" svgx:width="0.52,0.58" style="fill:rgb(0,0,0);font-family:URWPalladioL-Roma;font-size:9.96px;stroke:none;">Sn</text>
   <text y="435.583" x="192.073" svgx:width="0.29" style="fill:rgb(0,0,0);font-family:Rpxr;font-size:9.96px;stroke:none;">/</text>
   <text y="435.583" x="194.921,200.527,205.945,208.833,214.896,222.308,229.37959999999998,231.834,237.609,243.027,245.914,248.802,254.219,262.4858,264.986,269.193,275.156,280.931,285.684,289.425,294.178,298.3612,300.876" svgx:width="0.56,0.55,0.29,0.61,0.75,0.71,0.55,0.58,0.55,0.29,0.29,0.55,0.83,0.55,0.42,0.6,0.58,0.48,0.4,0.48,0.42,0.55,0.33" style="fill:rgb(0,0,0);font-family:URWPalladioL-Roma;font-size:9.96px;stroke:none;">void@C hollow spheres [</text>
   <text y="435.583" x="304.181,309.162" svgx:width="0.5,0.5" style="fill:rgb(8,117,183);font-family:URWPalladioL-Roma;font-size:9.96px;stroke:none;">40</text>
   <text y="435.583" x="314.144,317.448,319.938,322.42,325.654,331.429,336.2098,338.673,343.079,348.04,351.96,356.921,365.683,371.17,376.588,379.475,384.437,387.741,391.948,397.723,402.685,408.648,413.401,419.4766,421.955,427.164,432.939" svgx:width="0.33,0.25,0.55,0.33,0.58,0.48,0.55,0.44,0.5,0.4,0.5,0.88,0.55,0.55,0.29,0.5,0.33,0.42,0.58,0.5,0.6,0.48,0.61,0.55,0.52,0.58,0.79" style="fill:rgb(0,0,0);font-family:URWPalladioL-Roma;font-size:9.96px;stroke:none;">], the carambola-shaped SnO</text>
   <text y="437.448" x="440.739" svgx:width="0.5" style="fill:rgb(0,0,0);font-family:URWPalladioL-Roma;font-size:7.57px;stroke:none;">2</text>
   <text y="435.583" x="447.515,455.791,459.71,464.671,470.635,476.599,481.352,487.4276,489.905,498.181,501.068,504.303,510.078,512.965" svgx:width="0.83,0.4,0.5,0.6,0.6,0.48,0.61,0.55,0.83,0.29,0.33,0.58,0.29,0.58" style="fill:rgb(0,0,0);font-family:URWPalladioL-Roma;font-size:9.96px;stroke:none;">wrapped within</text>
   <text y="449.093" x="76.535,79.848,85.762,90.5428,93.465,97.977,103.057,107.071,112.691,118.239,124.0158,126.989,132.903,137.984,143.898,149.446,152.759,158.887,164.506,169.2868,172.199,178.113,182.98,186.293,194.768,200.317,204.33,209.9076,212.816" svgx:width="0.33,0.58,0.48,0.55,0.44,0.5,0.4,0.55,0.55,0.58,0.55,0.58,0.5,0.58,0.55,0.33,0.6,0.55,0.48,0.55,0.58,0.48,0.33,0.83,0.55,0.4,0.56,0.55,0.33" style="fill:rgb(0,0,0);font-family:URWPalladioL-Roma;font-size:9.96px;stroke:none;">the carbon nanotube network [</text>
   <text y="449.093" x="216.202,221.183" svgx:width="0.5,0.5" style="fill:rgb(8,117,183);font-family:URWPalladioL-Roma;font-size:9.96px;stroke:none;">41</text>
   <text y="449.093" x="226.164,229.548,232.038,235.005,238.318,244.232,249.0128,251.934,256.446,261.995,265.826,270.693,274.077,278.386,284.3,289.167,292.125,295.0134,297.917,302.225,305.538,309.471,315.598,320.11,323.423,329.551,333.392,338.259,344.3346,347.303,354.508" svgx:width="0.33,0.25,0.55,0.33,0.58,0.48,0.55,0.44,0.55,0.4,0.48,0.33,0.42,0.58,0.48,0.29,0.29,0.55,0.42,0.33,0.4,0.6,0.44,0.33,0.6,0.4,0.48,0.61,0.55,0.71,0.6" style="fill:rgb(0,0,0);font-family:URWPalladioL-Roma;font-size:9.96px;stroke:none;">], the core-shell structured Cu</text>
   <text y="450.957" x="360.631" svgx:width="0.5" style="fill:rgb(0,0,0);font-family:URWPalladioL-Roma;font-size:7.57px;stroke:none;">6</text>
   <text y="449.093" x="364.915,370.25" svgx:width="0.52,0.58" style="fill:rgb(0,0,0);font-family:URWPalladioL-Roma;font-size:9.96px;stroke:none;">Sn</text>
   <text y="450.957" x="376.164" svgx:width="0.5" style="fill:rgb(0,0,0);font-family:URWPalladioL-Roma;font-size:7.57px;stroke:none;">5</text>
   <text y="449.093" x="380.448,388.039,393.374,399.288" svgx:width="0.75,0.52,0.58,0.79" style="fill:rgb(0,0,0);font-family:URWPalladioL-Roma;font-size:9.96px;stroke:none;">@SnO</text>
   <text y="450.957" x="407.275" svgx:width="0.5" style="fill:rgb(0,0,0);font-family:URWPalladioL-Roma;font-size:7.57px;stroke:none;">2</text>
   <text y="449.093" x="411.559,414.943,422.0146,424.983,430.897,435.978,441.892,447.44,451.952,457.501,466.474,472.581,478.129,482.438,485.395,488.708,493.575,497.7582,500.719" svgx:width="0.33,0.71,0.55,0.58,0.5,0.58,0.55,0.44,0.55,0.88,0.6,0.55,0.42,0.29,0.33,0.48,0.42,0.55,0.33" style="fill:rgb(0,0,0);font-family:URWPalladioL-Roma;font-size:9.96px;stroke:none;">-C nanocomposites [</text>
   <text y="449.093" x="504.099,509.08" svgx:width="0.5,0.5" style="fill:rgb(8,117,183);font-family:URWPalladioL-Roma;font-size:9.96px;stroke:none;">42</text>
   <text y="449.093" x="514.061,517.445" svgx:width="0.33,0.25" style="fill:rgb(0,0,0);font-family:URWPalladioL-Roma;font-size:9.96px;stroke:none;">],</text>
   <text y="462.602" x="76.535,79.757,85.509,90.2898,92.723,97.111,102.863,107.597,111.787,115.009,120.761,126.72,129.942,133.233,136.109,138.985,144.48,149.2608,151.685,156.873,162.625" svgx:width="0.33,0.58,0.48,0.55,0.44,0.58,0.48,0.42,0.33,0.58,0.6,0.33,0.33,0.29,0.29,0.56,0.48,0.55,0.52,0.58,0.79" style="fill:rgb(0,0,0);font-family:URWPalladioL-Roma;font-size:9.96px;stroke:none;">the chestnut-like SnO</text>
   <text y="464.467" x="170.397" svgx:width="0.5" style="fill:rgb(0,0,0);font-family:URWPalladioL-Roma;font-size:7.57px;stroke:none;">2</text>
   <text y="462.602" x="174.681" svgx:width="0.29" style="fill:rgb(0,0,0);font-family:Rpxr;font-size:9.96px;stroke:none;">/</text>
   <text y="462.602" x="177.517,182.706,188.457" svgx:width="0.52,0.58,0.79" style="fill:rgb(0,0,0);font-family:URWPalladioL-Roma;font-size:9.96px;stroke:none;">SnO</text>
   <text y="464.467" x="196.225" svgx:width="0.5" style="fill:rgb(0,0,0);font-family:URWPalladioL-Roma;font-size:7.57px;stroke:none;">2</text>
   <text y="462.602" x="200.509" svgx:width="0.29" style="fill:rgb(0,0,0);font-family:Rpxr;font-size:9.96px;stroke:none;">/</text>
   <text y="462.602" x="203.346,210.4176,212.834,218.585,223.527,229.279,234.675,239.063,244.459,253.185,259.125,264.521,268.711,271.587,274.809,279.543,283.7262,286.204,294.447,297.322,300.544,306.32079999999996,308.777,311.999,317.75,322.5308,324.965,330.717,333.593,338.327,342.23,347.172,350.898,355.286,361.038,363.914,368.302,373.243,376.1314,378.59,382.78,386.002,389.826,395.786,400.174,403.396,409.355,413.081,417.815,421.9982,424.486" svgx:width="0.71,0.55,0.58,0.5,0.58,0.55,0.44,0.55,0.88,0.6,0.55,0.42,0.29,0.33,0.48,0.42,0.55,0.83,0.29,0.33,0.58,0.55,0.33,0.58,0.48,0.55,0.58,0.29,0.48,0.4,0.5,0.4,0.44,0.58,0.29,0.44,0.5,0.29,0.55,0.42,0.33,0.4,0.6,0.44,0.33,0.6,0.4,0.48,0.42,0.55,0.33" style="fill:rgb(0,0,0);font-family:URWPalladioL-Roma;font-size:9.96px;stroke:none;">C nanocomposites with the hierarchical structures [</text>
   <text y="462.602" x="427.774,432.755" svgx:width="0.5,0.5" style="fill:rgb(8,117,183);font-family:URWPalladioL-Roma;font-size:9.96px;stroke:none;">43</text>
   <text y="462.602" x="437.737,441.028,443.51800000000003,445.979,450.921,456.673,462.7486,465.192,468.414,474.165,478.9458,481.37,487.329,490.205,493.427,497.331,502.272,508.252,514.003" svgx:width="0.33,0.25,0.55,0.5,0.58,0.61,0.55,0.33,0.58,0.48,0.55,0.6,0.29,0.33,0.4,0.5,0.61,0.58,0.48" style="fill:rgb(0,0,0);font-family:URWPalladioL-Roma;font-size:9.96px;stroke:none;">], and the ultraﬁne</text>
   <text y="476.112" x="76.535,81.854,87.751" svgx:width="0.52,0.58,0.79" style="fill:rgb(0,0,0);font-family:URWPalladioL-Roma;font-size:9.96px;stroke:none;">SnO</text>
   <text y="477.976" x="95.715" svgx:width="0.5" style="fill:rgb(0,0,0);font-family:URWPalladioL-Roma;font-size:7.57px;stroke:none;">2</text>
   <text y="476.112" x="102.496,107.562,113.195,118.829,122.648,127.502,133.135,138.201,141.504,146.357,150.5402,153.156,156.104,161.88080000000002,164.493,167.442,173.339,176.642,181.495,185.497,188.445,193.977,197.961,200.472,206.004,209.2908,211.881,217.97,223.502,227.322,232.854,238.963,243.1462,245.762,250.261,255.327,259.329,264.922,270.454,276.2308,278.853,284.75,289.816,295.712,301.245,304.548,310.657,316.26,321.113,325.2962,327.902" svgx:width="0.5,0.56,0.56,0.4,0.48,0.56,0.5,0.33,0.48,0.42,0.55,0.29,0.58,0.55,0.29,0.58,0.33,0.48,0.4,0.29,0.55,0.4,0.55,0.55,0.33,0.55,0.6,0.55,0.4,0.55,0.6,0.42,0.55,0.44,0.5,0.4,0.55,0.55,0.58,0.55,0.58,0.5,0.58,0.55,0.33,0.6,0.55,0.48,0.42,0.55,0.33" style="fill:rgb(0,0,0);font-family:URWPalladioL-Roma;font-size:9.96px;stroke:none;">aggregates in interior of porous carbon nanotubes [</text>
   <text y="476.112" x="331.279,336.26" svgx:width="0.5,0.5" style="fill:rgb(8,117,183);font-family:URWPalladioL-Roma;font-size:9.96px;stroke:none;">44</text>
   <text y="476.112" x="341.241,344.615,347.105,350.654,358.496,361.444,365.74,370.806,376.895,382.985,388.517,391.465,397.362,400.665,403.613,409.51,415.143,418.092,422.621,425.111,427.646,430.949,436.846,441.6268,444.202,448.022,452.875,457.941,460.889,463.838,468.134,471.437,474.385,478.7674,481.376,487.486,491.782,496.848,502.481,507.2618,509.837,515.369" svgx:width="0.33,0.25,0.55,0.77,0.29,0.42,0.5,0.6,0.6,0.55,0.29,0.58,0.33,0.29,0.58,0.56,0.29,0.56,0.25,0.55,0.33,0.58,0.48,0.55,0.4,0.48,0.5,0.29,0.29,0.42,0.33,0.29,0.44,0.55,0.6,0.42,0.5,0.56,0.48,0.55,0.55,0.33" style="fill:rgb(0,0,0);font-family:URWPalladioL-Roma;font-size:9.96px;stroke:none;">]. Disappointingly, the realistic usage of</text>
   <text y="489.621" x="76.535,80.844,86.971,91.483,97.2598,100.161,105.029,110.272,115.353,124.326,130.433,133.391,138.258,142.4412,145.331,151.245,156.326,160.5092,163.399,169.018,173.886,178.753,184.5298,187.431,193.345,198.426,207.399,213.507,218.374,222.205,227.073,233.14860000000002,236.046,241.665,247.24259999999998,250.079,253.392,259.306,264.0868,266.938,271.246,280.219,285.3,288.257,291.1454,293.978,297.291,302.372,308.348,311.243,317.452,322.32,328.234,332.543,335.5,338.812,344.38960000000003,347.226" svgx:width="0.42,0.6,0.44,0.58,0.55,0.48,0.52,0.5,0.88,0.6,0.29,0.48,0.42,0.55,0.58,0.5,0.42,0.55,0.55,0.48,0.48,0.58,0.55,0.58,0.5,0.88,0.6,0.48,0.4,0.48,0.61,0.55,0.55,0.56,0.55,0.33,0.58,0.48,0.55,0.42,0.88,0.5,0.29,0.29,0.55,0.33,0.5,0.6,0.55,0.61,0.48,0.58,0.42,0.29,0.33,0.56,0.55,0.33" style="fill:rgb(0,0,0);font-family:URWPalladioL-Roma;font-size:9.96px;stroke:none;">such examples has been hampered by the small tap density [</text>
   <text y="489.621" x="350.614,355.595" svgx:width="0.5,0.5" style="fill:rgb(8,117,183);font-family:URWPalladioL-Roma;font-size:9.96px;stroke:none;">26</text>
   <text y="489.621" x="360.576" svgx:width="0.25" style="fill:rgb(0,0,0);font-family:URWPalladioL-Roma;font-size:9.96px;stroke:none;">,</text>
   <text y="489.621" x="363.117,368.098" svgx:width="0.5,0.5" style="fill:rgb(8,117,183);font-family:URWPalladioL-Roma;font-size:9.96px;stroke:none;">27</text>
   <text y="489.621" x="373.08,376.3668,379.228,384.776,388.06280000000004,390.924,394.237,400.151,404.9318,407.783,413.697,416.654,421.522,425.536,430.616,434.447,438.959,444.874,447.831,452.342,457.423,460.3114,463.145,466.102,471.183,476.833,482.381,488.509,491.821,496.13,498.62,501.506,506.586,510.7692,513.659" svgx:width="0.33,0.55,0.55,0.33,0.55,0.33,0.58,0.48,0.55,0.58,0.29,0.48,0.4,0.5,0.4,0.44,0.58,0.29,0.44,0.5,0.29,0.55,0.29,0.5,0.56,0.55,0.6,0.33,0.42,0.25,0.55,0.5,0.42,0.55,0.5" style="fill:rgb(0,0,0);font-family:URWPalladioL-Roma;font-size:9.96px;stroke:none;">] of the hierarchical layouts, as a</text>
   <text y="503.13" x="76.535,81.047,86.595,92.509,96.818,101.686,107.376,113.504,118.371,124.286,128.797,133.5778,136.856,142.404,145.6908,148.989,152.302,158.216,162.9968,166.274,171.142,176.385,179.342,183.651,186.964,191.831,197.746,202.257,207.0378,210.326,215.874,219.1608,222.449,227.317,236.289,242.397,245.709,251.2866,254.56,258.391,263.94,269.488" svgx:width="0.44,0.55,0.58,0.42,0.48,0.56,0.6,0.48,0.58,0.44,0.48,0.55,0.55,0.33,0.55,0.33,0.58,0.48,0.55,0.48,0.52,0.29,0.42,0.33,0.48,0.58,0.44,0.48,0.55,0.55,0.33,0.55,0.48,0.88,0.6,0.33,0.56,0.55,0.4,0.55,0.55,0.88" style="fill:rgb(0,0,0);font-family:URWPalladioL-Roma;font-size:9.96px;stroke:none;">consequence of the existence of empty room</text>
   <text y="503.13" x="278.462" svgx:width="0.29" style="fill:rgb(0,0,0);font-family:Rpxr;font-size:9.96px;stroke:none;">/</text>
   <text y="503.13" x="281.379,287.12,292.669,295.626,301.754,310.726,315.5068,318.785,323.866,329.78,335.8556,339.19,344.738,348.051,353.965,358.833,362.817,366.037,369.35,374.899,381.006,386.554,389.511,395.06,400.71,403.667,408.179,413.26,416.1484,419.418,425.525,429.356,434.904,440.524,443.481,448.348,457.321,461.63,464.12,469.77,479.017,484.565,488.579,492.888,497.6688,500.956,505.265,508.578,511.535,514.492,517.449" svgx:width="0.56,0.55,0.29,0.6,0.88,0.48,0.55,0.5,0.58,0.61,0.55,0.55,0.33,0.58,0.48,0.4,0.55,0.33,0.55,0.6,0.55,0.29,0.55,0.56,0.29,0.44,0.5,0.29,0.55,0.6,0.4,0.55,0.55,0.29,0.48,0.88,0.42,0.25,0.55,1.0,0.55,0.4,0.42,0.48,0.55,0.42,0.33,0.29,0.29,0.29,0.25" style="fill:rgb(0,0,0);font-family:URWPalladioL-Roma;font-size:9.96px;stroke:none;">volume and other topological problems. Worse still,</text>
   <text y="516.64" x="76.535,79.848,85.326,88.485,92.794,97.661,102.173,108.301,112.132,116.9128,120.089,123.401,129.316,134.0968,137.262,142.13,151.103,157.21,160.523,166.1006,169.262,173.093,178.641,184.19,193.163,197.3462,200.56,209.035,211.992,214.95,217.83839999999998,220.986,227.195,232.062,238.169,242.183,245.14,250.882,255.6628,258.839,262.151,268.066,272.8468,276.012,284.985,290.066,293.379,298.246,302.26,305.217,310.298,313.255,317.4382,320.653,326.201,329.48780000000005,332.664,338.406,341.363,344.676,349.757,352.6454,355.803,361.544,364.501,368.515,371.828,377.956,382.823,387.0062,390.221,396.43,402.558,406.572,409.529,415.443,421.0206,424.172,427.485,433.399,438.1798,441.356,444.668,447.625,453.275,459.19,462.4768,465.581,470.093,475.174,478.131,482.999,488.913,495.122,500.203,504.217,507.174,513.088" svgx:width="0.33,0.55,0.55,0.42,0.48,0.44,0.6,0.4,0.48,0.55,0.33,0.58,0.48,0.55,0.48,0.88,0.6,0.33,0.56,0.55,0.4,0.55,0.55,0.88,0.42,0.55,0.83,0.29,0.29,0.29,0.55,0.61,0.48,0.6,0.4,0.29,0.56,0.48,0.55,0.33,0.58,0.48,0.55,0.88,0.5,0.33,0.48,0.4,0.29,0.5,0.29,0.42,0.55,0.55,0.33,0.55,0.56,0.29,0.33,0.5,0.29,0.55,0.56,0.29,0.4,0.33,0.6,0.48,0.42,0.55,0.61,0.6,0.4,0.29,0.58,0.56,0.55,0.33,0.58,0.48,0.55,0.33,0.29,0.56,0.58,0.33,0.55,0.44,0.5,0.29,0.48,0.58,0.61,0.5,0.4,0.29,0.58,0.56" style="fill:rgb(0,0,0);font-family:URWPalladioL-Roma;font-size:9.96px;stroke:none;">to secure the empty rooms will deprive the materials of vital virtues during the tight calendaring</text>
   <text y="530.149" x="76.535,79.492,85.2688,89.095,92.408,98.322,103.403,106.6898,110.404,119.377,124.458,126.836,132.385,136.398,139.356,142.668,148.2456,152.007,157.555,160.8418,164.628,169.496,178.469,184.576,187.889,193.4666,197.227,202.969,208.517,211.474,217.602,226.575,231.3558,235.121,244.094,247.051,252.701,258.615,261.90180000000004,265.617,271.744,277.658,283.867,288.735,292.576,298.226,303.704,307.463,310.776,316.69,321.4708,325.236,331.364,334.676,337.989,342.857,346.841,350.559,356.768,361.636,367.377,372.458,376.767,380.08,385.161,388.473,391.43,396.979,402.893,405.383,412.516,420.971,425.838,429.669,434.537,437.494,443.408,445.898,449.942,453.255,459.169,463.9498,467.726,471.038,476.119,482.095,485.905,492.114,496.982,502.896,507.204,510.161,513.474" svgx:width="0.29,0.58,0.55,0.33,0.58,0.5,0.33,0.55,0.88,0.5,0.23,0.55,0.4,0.29,0.33,0.56,0.55,0.55,0.33,0.55,0.48,0.88,0.6,0.33,0.56,0.55,0.56,0.55,0.29,0.6,0.88,0.48,0.55,0.88,0.29,0.56,0.58,0.33,0.55,0.6,0.58,0.61,0.48,0.4,0.56,0.55,0.55,0.33,0.58,0.48,0.55,0.6,0.33,0.33,0.48,0.4,0.55,0.61,0.48,0.56,0.5,0.42,0.33,0.5,0.33,0.29,0.55,0.58,0.25,0.55,0.83,0.48,0.4,0.48,0.29,0.58,0.25,0.55,0.33,0.58,0.48,0.55,0.33,0.5,0.6,0.55,0.61,0.48,0.58,0.42,0.29,0.33,0.56" style="fill:rgb(0,0,0);font-family:URWPalladioL-Roma;font-size:9.96px;stroke:none;">in that majority of empty volume might undergo the utter devastation. Herein, the tap density</text>
   <text y="543.658" x="76.535,79.376,85.058,89.393,93.074,97.751,102.632,106.772,111.449,115.6322,117.58,120.763,126.445,130.126,135.457,141.344,146.773,152.5498,154.447,158.781,164.112,169.795,173.934,177.117,180.895,186.783,191.118,194.301,197.142,202.824,208.4016,210.244,215.224,217.127,221.462,226.793,235.414,241.282,246.163,250.498,253.7848,255.673,259.813,264.489,268.824,274.155,279.837,285.803,290.684,294.541,300.1186,301.971,306.852,310.523,314.858,320.541,323.382,326.565,331.241,335.576,338.759,344.646,348.327,353.1078,354.996,358.247,362.923,367.805,370.988,376.875,380.732,383.573,389.255,394.8326,396.685,399.868,405.55,410.3308,412.219,415.06,420.742,425.624,429.959,433.141,435.983,441.499" svgx:width="0.29,0.58,0.44,0.4,0.48,0.5,0.42,0.48,0.42,0.55,0.33,0.58,0.4,0.55,0.6,0.56,0.58,0.55,0.44,0.55,0.58,0.42,0.33,0.4,0.6,0.44,0.33,0.29,0.58,0.56,0.55,0.5,0.55,0.44,0.55,0.88,0.6,0.5,0.44,0.33,0.55,0.42,0.48,0.44,0.55,0.58,0.61,0.5,0.4,0.56,0.55,0.5,0.4,0.44,0.58,0.29,0.33,0.48,0.44,0.33,0.6,0.4,0.48,0.55,0.33,0.48,0.5,0.33,0.6,0.4,0.29,0.58,0.56,0.55,0.33,0.58,0.48,0.55,0.29,0.58,0.5,0.44,0.33,0.29,0.56,0.48" style="fill:rgb(0,0,0);font-family:URWPalladioL-Roma;font-size:9.96px;stroke:none;">increases through constructing a compact secondary architecture featuring the inactive</text>
   <text y="543.658" x="446.178" svgx:width="0.29" style="fill:rgb(0,0,0);font-family:Rpxr;font-size:9.96px;stroke:none;">/</text>
   <text y="543.658" x="448.98,453.862,458.197,461.379,464.221,469.737,474.5178,476.405,481.804" svgx:width="0.5,0.44,0.33,0.29,0.56,0.48,0.55,0.55,0.6" style="fill:rgb(0,0,0);font-family:URWPalladioL-Roma;font-size:9.96px;stroke:none;">active bu</text>
   <text y="543.658" x="487.696" svgx:width="0.61" style="fill:rgb(0,0,0);font-family:Rpxr;font-size:9.96px;stroke:none;">ﬀ</text>
   <text y="543.658" x="493.632,498.309,502.165,506.3482,508.297,513.696" svgx:width="0.48,0.4,0.42,0.55,0.55,0.56" style="fill:rgb(0,0,0);font-family:URWPalladioL-Roma;font-size:9.96px;stroke:none;">ers by</text>
   <text y="557.168" x="76.535,80.87,86.201,94.822,100.69,106.02,110.16,113.001,116.184,120.861,125.0,127.49,130.741,137.663,142.994,148.676,154.583,160.265,163.107,168.789,174.36659999999998,176.141,181.12099999999998,182.946,188.628,191.469,196.898,202.6748,204.503,210.371,215.702,221.57,227.457,230.298,235.18,238.363,241.204,246.534,252.3108,254.14,259.471,262.75780000000003,264.645,267.828,273.511,278.2918,280.111,285.998,288.839,292.022,295.878,300.76,306.667,312.349,317.1298,318.949,327.57,332.247,335.43,340.311,343.19939999999997,345.076,350.758,355.64,361.322,366.653,372.521,377.402,381.259,384.442,387.283,391.618,394.459,399.136,403.3192,405.199,408.04,413.722,417.862,420.703,426.668,431.4488,433.268,436.451,442.133,446.9138,448.733,454.133,460.02,462.861,468.289,471.541,474.382,477.223,482.651,487.4318,489.251,493.586,498.468,502.324,507.724,513.054" svgx:width="0.44,0.55,0.88,0.6,0.55,0.42,0.29,0.33,0.48,0.42,0.25,0.55,0.71,0.55,0.58,0.61,0.58,0.29,0.58,0.56,0.55,0.5,0.55,0.58,0.29,0.56,0.58,0.55,0.6,0.55,0.6,0.6,0.29,0.5,0.33,0.29,0.55,0.58,0.55,0.55,0.33,0.55,0.33,0.58,0.48,0.55,0.6,0.29,0.33,0.4,0.5,0.61,0.58,0.48,0.55,0.88,0.48,0.33,0.5,0.29,0.55,0.58,0.5,0.58,0.55,0.6,0.5,0.4,0.33,0.29,0.44,0.29,0.48,0.42,0.55,0.29,0.58,0.42,0.29,0.61,0.48,0.55,0.33,0.58,0.48,0.55,0.55,0.6,0.29,0.56,0.33,0.29,0.29,0.56,0.48,0.55,0.44,0.5,0.4,0.55,0.55,0.58" style="fill:rgb(0,0,0);font-family:URWPalladioL-Roma;font-size:9.96px;stroke:none;">composites. Conﬁning a high population of the ultraﬁne metal nanoparticles inside the bulk-like carbon</text>
   <text y="570.677" x="76.535,85.156,90.487,96.169,101.5,104.341,107.182,110.365,116.14179999999999,118.312,122.647,127.529,133.3058,135.486,141.168,146.499,149.7858,151.947,157.278,162.96,165.801,171.37859999999998,173.505,182.126,187.456,193.422,199.309,202.14,207.022,210.205,214.9858,217.157,220.339,226.022,230.8028,232.963,237.103,240.286,243.967,248.643,252.783,256.9662,259.188,264.587,270.474,273.7608,275.932,280.814,283.655,287.794,293.272,295.39,300.721,306.12,311.636,314.478,319.359,322.542,327.3228,329.484,334.464,336.64,342.069,345.74,350.417,355.298,358.58480000000003,360.756,366.721,371.398,376.28,379.16839999999996,381.386,386.717,390.0038,392.243,397.759,403.09,405.921,411.9966,414.161,418.301,424.169,429.051,433.385,438.1658,440.327,445.209,450.891,456.857,459.34700000000004,461.611,464.794,470.476,475.153,478.834,483.51,486.762,492.092,495.763,500.44,502.93,505.195,508.378,514.06" svgx:width="0.88,0.55,0.58,0.55,0.29,0.29,0.33,0.58,0.55,0.44,0.5,0.58,0.55,0.58,0.55,0.33,0.55,0.55,0.58,0.29,0.56,0.55,0.88,0.55,0.61,0.6,0.29,0.5,0.33,0.48,0.55,0.33,0.58,0.48,0.55,0.42,0.33,0.4,0.48,0.42,0.42,0.55,0.55,0.6,0.33,0.55,0.5,0.29,0.42,0.55,0.55,0.55,0.55,0.56,0.29,0.5,0.33,0.48,0.55,0.5,0.55,0.56,0.4,0.48,0.5,0.33,0.55,0.61,0.48,0.5,0.29,0.55,0.55,0.33,0.55,0.56,0.55,0.29,0.61,0.55,0.42,0.6,0.5,0.44,0.48,0.55,0.5,0.58,0.61,0.25,0.55,0.33,0.58,0.48,0.4,0.48,0.33,0.55,0.4,0.48,0.25,0.55,0.33,0.58,0.48" style="fill:rgb(0,0,0);font-family:URWPalladioL-Roma;font-size:9.96px;stroke:none;">monolith can not only modulate the stress but also obviate a great deal of void space and, therefore, the</text>
   <text y="584.187" x="76.535,80.343,85.182,88.122,93.173,96.466,101.305,107.3806,109.963,118.883,124.399,128.389,134.46,140.34,145.855,148.795,154.311,159.928,162.867,167.353,172.404,175.2924,177.829,183.9,187.708,193.224,198.811,201.75,206.589,215.509,219.793,222.28300000000002,225.803,229.208,234.9848,237.562,240.855,246.735,249.674,253.8572,256.443,260.726,265.565,271.444,275.728,280.567,283.057,285.577,289.861,295.952,300.437,306.2138,308.802,313.78200000000004,316.328,321.914,324.854,330.733,335.785,339.775,345.3526,347.877,356.797,361.636,364.929,369.98,372.8684,375.405,380.921,386.133,389.073,395.245,400.0258,402.569,408.449,413.5,419.379,424.895,430.966,436.017,440.008,443.291,446.23,450.716,453.655,458.494,462.778,466.142,469.081,474.961,478.254,483.093,486.912,491.397,496.448,499.388,504.439,507.732,512.571" svgx:width="0.4,0.48,0.29,0.5,0.33,0.48,0.61,0.55,0.88,0.55,0.4,0.6,0.58,0.55,0.29,0.55,0.56,0.29,0.44,0.5,0.29,0.55,0.6,0.4,0.55,0.55,0.29,0.48,0.88,0.42,0.25,0.55,0.34,0.58,0.55,0.33,0.58,0.29,0.42,0.55,0.42,0.48,0.58,0.42,0.48,0.25,0.55,0.42,0.6,0.44,0.58,0.55,0.5,0.55,0.55,0.29,0.58,0.5,0.4,0.56,0.55,0.88,0.48,0.33,0.5,0.29,0.55,0.55,0.52,0.29,0.61,0.48,0.55,0.58,0.5,0.58,0.55,0.6,0.5,0.4,0.33,0.29,0.44,0.29,0.48,0.42,0.33,0.29,0.58,0.33,0.48,0.4,0.44,0.5,0.29,0.5,0.33,0.48,0.61" style="fill:rgb(0,0,0);font-family:URWPalladioL-Roma;font-size:9.96px;stroke:none;">related morphological problems. In this sense, such a binary metal oxide nanoparticles-intercalated</text>
   <text y="597.696" x="76.535,80.914,85.846,89.742,95.196,100.581,106.3578,108.797,117.506,122.891,128.631,134.016,136.887,139.757,142.972,148.74880000000002,151.198,155.38,158.595,162.402,168.349,172.729,175.944,181.891,185.61,190.3908,192.82,195.69,199.8732,202.347,206.726,212.111,217.852,222.231,225.101,231.048,237.075,241.799,247.87460000000002,250.301,253.516,258.99399999999997,261.377,266.831,271.6118,274.041,282.75,288.135,291.854,296.6348,299.054,303.985,312.694,317.419,323.159,328.09,333.544,336.415,341.1958,343.615,346.83,352.308,354.691,357.906,361.802,366.733,372.76,375.63,378.845,381.715,387.1,392.841,397.772,400.6604,403.128,407.852,410.722,415.447,419.826,423.041,426.75,432.135,438.161,442.9418,445.371,451.299,455.017,459.741,465.669,470.6,474.496,479.428,482.643,485.513,490.898,496.6748,499.114,502.33,508.07,513.001" svgx:width="0.44,0.5,0.4,0.55,0.55,0.58,0.55,0.88,0.55,0.58,0.55,0.29,0.29,0.33,0.58,0.55,0.42,0.33,0.4,0.6,0.44,0.33,0.6,0.4,0.48,0.55,0.29,0.42,0.55,0.44,0.55,0.58,0.44,0.29,0.6,0.61,0.48,0.61,0.55,0.33,0.55,0.55,0.55,0.48,0.55,0.88,0.55,0.4,0.48,0.55,0.5,0.88,0.48,0.58,0.5,0.55,0.29,0.48,0.55,0.33,0.55,0.55,0.33,0.4,0.5,0.61,0.29,0.33,0.29,0.55,0.58,0.5,0.29,0.55,0.48,0.29,0.48,0.44,0.33,0.4,0.55,0.61,0.48,0.55,0.6,0.4,0.48,0.6,0.5,0.4,0.5,0.33,0.29,0.55,0.58,0.55,0.33,0.58,0.5,0.58" style="fill:rgb(0,0,0);font-family:URWPalladioL-Roma;font-size:9.96px;stroke:none;">carbon monolith structure is concluded to be more amenable to traditional electrode preparation than</text>
   <text y="611.205" x="76.535,82.007,85.275,91.108,95.908,99.892,102.363,108.486,113.287,117.537,120.453,126.026,131.859,136.659,140.643,143.124,148.957,153.968,159.801,165.273,174.123,179.134,182.401,187.202,191.161,194.077,199.089,202.005,206.255,208.745,211.256,217.279,222.29,226.249,229.517,232.433,236.883,242.926,245.843,250.854,254.813,257.729,263.3066,265.807,269.075,274.086,279.658,282.575,288.408,293.98560000000003,296.476,299.392,305.225,308.493,313.971,316.471,321.482,325.932,330.382,335.854,341.897,347.73,351.01680000000005,353.493,356.761,362.594,367.3748,369.89,373.678,378.479,383.49,386.407,389.744,398.103,403.575,407.534,410.45,416.5256,419.07,425.113,428.38,431.297,434.213,437.13,442.141,447.152,450.42,453.336,458.808,464.5848,467.137,472.679,477.691,481.94,486.741,492.8166,495.37,501.414,507.437,512.909" svgx:width="0.55,0.33,0.58,0.48,0.4,0.55,0.61,0.48,0.42,0.29,0.56,0.58,0.48,0.4,0.55,0.58,0.5,0.58,0.55,0.88,0.5,0.33,0.48,0.4,0.29,0.5,0.29,0.42,0.25,0.55,0.6,0.5,0.4,0.33,0.29,0.44,0.6,0.29,0.5,0.4,0.29,0.56,0.55,0.33,0.5,0.56,0.29,0.58,0.56,0.55,0.29,0.58,0.33,0.55,0.55,0.5,0.44,0.44,0.55,0.6,0.58,0.33,0.55,0.33,0.58,0.48,0.55,0.4,0.48,0.5,0.29,0.33,0.83,0.55,0.4,0.29,0.61,0.55,0.6,0.33,0.29,0.29,0.29,0.5,0.5,0.33,0.29,0.55,0.58,0.55,0.55,0.5,0.42,0.48,0.61,0.55,0.6,0.6,0.55,0.58" style="fill:rgb(0,0,0);font-family:URWPalladioL-Roma;font-size:9.96px;stroke:none;">other designer nanomaterials, particularly taking into account the real-world utilization based upon</text>
   <text y="624.715" x="76.535,79.718,85.4,90.1808,92.127,97.809,100.65,106.079,111.85579999999999,113.821,118.703,124.219,128.896,132.752,137.634,143.062,147.8428,149.789,154.466,160.148,164.825,168.506,173.934" svgx:width="0.33,0.58,0.48,0.55,0.58,0.29,0.56,0.58,0.55,0.5,0.56,0.48,0.4,0.5,0.56,0.48,0.55,0.48,0.58,0.48,0.4,0.56,0.56" style="fill:rgb(0,0,0);font-family:URWPalladioL-Roma;font-size:9.96px;stroke:none;">the high average energy</text>
   <text y="624.715" x="179.362" svgx:width="0.29" style="fill:rgb(0,0,0);font-family:Rpxr;font-size:9.96px;stroke:none;">/</text>
   <text y="624.715" x="182.164,188.032,193.363,201.505,206.182,210.166,212.089,218.054,222.731,228.413,232.553,235.394,238.577,244.1546,246.065,249.922,254.803,257.986,260.827,266.51,271.938,274.428,277.718,285.314,289.4972,291.504,294.755,300.086,304.07,306.002,311.968,315.258,321.223,325.363,327.853,329.942,333.125,338.807,341.648,345.8312,347.848,356.469,361.351,364.534,369.21,373.067,375.908,380.79,383.6784,385.681,388.522,392.7052,394.722,400.59,404.261,409.591,411.876,416.553,420.888,424.07,428.747,434.8226,436.773,439.955,445.433,447.336,452.736,457.5168,459.463,465.428,468.269,472.409,475.592,478.433,484.115,489.543,495.431,498.272,502.411,508.094,512.77" svgx:width="0.6,0.55,0.83,0.48,0.4,0.55,0.61,0.48,0.58,0.42,0.29,0.33,0.56,0.55,0.4,0.5,0.33,0.29,0.58,0.56,0.25,0.55,0.78,0.42,0.55,0.33,0.55,0.4,0.55,0.61,0.34,0.61,0.42,0.25,0.55,0.33,0.58,0.29,0.42,0.55,0.88,0.5,0.33,0.48,0.4,0.29,0.5,0.29,0.55,0.29,0.42,0.55,0.6,0.4,0.55,0.23,0.48,0.44,0.33,0.48,0.61,0.55,0.33,0.55,0.55,0.55,0.48,0.55,0.61,0.29,0.42,0.33,0.29,0.58,0.56,0.6,0.29,0.42,0.58,0.48,0.61" style="fill:rgb(0,0,0);font-family:URWPalladioL-Roma;font-size:9.96px;stroke:none;">power density rating. As for LIBs, this material is projected to be distinguished</text>
   <text y="638.224" x="76.535,82.155,87.7326,90.487,95.568,101.34479999999999,104.165,109.033,111.99,116.857,122.599,127.68,130.992,135.86,141.93560000000002,144.752,149.06,155.167,160.035,164.547,167.504,173.652,178.03439999999998,180.846,185.358,190.439,196.546,201.627,206.139,209.096,212.409,216.951,219.441,222.225,227.093,233.007,239.216,245.344,249.358,254.439,260.058,263.015,267.7958,270.565,275.077,280.727,285.239,288.196,291.153,295.53540000000004,298.348,303.967,308.835,314.749,319.83,325.572,328.529,334.077,340.205,343.477,345.967,348.751,353.832,359.746,365.8216,368.637,374.186,380.293,386.4,390.231,395.099,399.408,403.716,408.584,414.6596,417.475,423.217,428.765,431.722,437.85,446.823,451.6038,454.373,458.682,467.157,472.024,474.981,477.938,480.895,486.81,492.46,494.95,497.784,501.097,507.011,513.139,517.448" svgx:width="0.55,0.56,0.55,0.5,0.58,0.55,0.48,0.29,0.48,0.56,0.5,0.33,0.48,0.61,0.55,0.42,0.6,0.48,0.44,0.29,0.61,0.44,0.55,0.44,0.5,0.6,0.5,0.44,0.29,0.33,0.56,0.25,0.55,0.48,0.58,0.61,0.6,0.4,0.5,0.55,0.29,0.48,0.55,0.44,0.56,0.44,0.29,0.29,0.44,0.55,0.55,0.48,0.58,0.5,0.56,0.29,0.55,0.6,0.4,0.25,0.55,0.5,0.58,0.61,0.55,0.55,0.6,0.6,0.4,0.48,0.42,0.42,0.48,0.61,0.55,0.56,0.55,0.29,0.6,0.88,0.48,0.55,0.42,0.83,0.48,0.29,0.29,0.29,0.58,0.56,0.25,0.55,0.33,0.58,0.6,0.42,0.25" style="fill:rgb(0,0,0);font-family:URWPalladioL-Roma;font-size:9.96px;stroke:none;">by an elevated speciﬁc capacity, endurable cyclic behaviour, and oppressed volume swelling; thus,</text>
   <text y="651.734" x="76.535,81.515,84.007,88.231,97.028,102.009,104.908,107.7964,110.298,113.197,117.133,120.888,125.661,131.289,136.062,139.997,144.221,147.12,152.629,155.528,160.3088,162.791,167.215,172.196,178.183,183.165,187.588,190.487,193.735,199.3126,201.765,204.664,210.104,214.328,218.5112,221.042,226.024,231.822,237.8976,240.4,245.38,247.872,251.628,256.4,260.624,266.631,269.53,272.778,277.759,283.558,286.8448,289.296,295.094,297.994,303.533,309.3098,311.822,316.245,321.226,327.214,332.195,336.619,339.518,342.765,348.3426,350.795,354.551,359.323,362.571,367.343,373.141,376.389,379.288,384.728,390.526" svgx:width="0.5,0.55,0.42,0.88,0.5,0.29,0.29,0.55,0.29,0.4,0.4,0.48,0.56,0.48,0.4,0.42,0.29,0.55,0.29,0.48,0.55,0.44,0.5,0.6,0.5,0.44,0.29,0.33,0.56,0.55,0.29,0.55,0.42,0.42,0.55,0.5,0.58,0.61,0.55,0.5,0.55,0.4,0.48,0.42,0.6,0.29,0.33,0.5,0.58,0.33,0.55,0.58,0.29,0.56,0.58,0.55,0.44,0.5,0.6,0.5,0.44,0.29,0.33,0.56,0.55,0.4,0.48,0.33,0.48,0.58,0.33,0.29,0.55,0.58,0.25" style="fill:rgb(0,0,0);font-family:URWPalladioL-Roma;font-size:9.96px;stroke:none;">a small irreversible capacity loss and a resultant high capacity retention.</text>
   <text y="665.243" x="97.795,103.859,109.617,114.3978,116.849,123.863,131.0342,133.488,137.881,143.846,147.754,153.343,158.082,162.2652,164.77,170.171,173.4578,175.958,179.184,184.941,189.7218,192.163,198.208,201.502,206.696,212.196,219.972,227.362,234.43359999999998,236.869,241.607,244.486,249.225,253.617,256.842,260.572,265.974,272.018,276.79879999999997,279.25,284.196,287.48280000000005,289.904,294.884,297.344,301.538,305.931,310.877,316.6538,319.128,323.036,327.982,331.207,335.9878,338.439,343.84,347.1268,349.618,354.564,357.037,362.017,364.477,373.212,380.3832,382.848" svgx:width="0.61,0.58,0.48,0.55,0.71,0.72,0.55,0.44,0.6,0.4,0.56,0.48,0.42,0.55,0.55,0.33,0.55,0.33,0.58,0.48,0.55,0.61,0.33,0.52,0.56,0.79,0.75,0.71,0.55,0.48,0.29,0.48,0.44,0.33,0.4,0.55,0.61,0.48,0.55,0.5,0.33,0.55,0.5,0.55,0.42,0.44,0.5,0.58,0.55,0.4,0.5,0.33,0.48,0.55,0.55,0.33,0.55,0.5,0.25,0.5,0.55,0.88,0.72,0.55,0.42" style="fill:rgb(0,0,0);font-family:URWPalladioL-Roma;font-size:9.96px;stroke:none;">The CV curves of the B-SFO@C electrode at a scan rate of 0.1 mV s</text>
   <text y="661.627" x="387.039" svgx:width="0.67" style="fill:rgb(0,0,0);font-family:Pxsy;font-size:7.57px;stroke:none;">−</text>
   <text y="661.627" x="392.105" svgx:width="0.5" style="fill:rgb(0,0,0);font-family:URWPalladioL-Roma;font-size:7.57px;stroke:none;">1</text>
   <text y="665.243" x="398.879,402.173,405.903,411.304,422.533,427.479,429.952,434.899,439.845,444.82500000000005,447.275,453.24,459.216,461.679,464.904,470.382,472.798,477.745,480.218,485.19800000000004,487.648,494.8192,497.283,505.534,510.273,514.002" svgx:width="0.33,0.4,0.55,0.88,0.5,0.25,0.5,0.5,0.5,0.55,0.6,0.6,0.55,0.33,0.55,0.55,0.5,0.25,0.5,0.55,0.72,0.55,0.83,0.48,0.4,0.48" style="fill:rgb(0,0,0);font-family:URWPalladioL-Roma;font-size:9.96px;stroke:none;">from0.005 up to 3.0 V were</text>
   <text y="678.752" x="76.535,80.768,86.577,92.028,100.353,106.12979999999999,108.659,111.564,117.34079999999999,119.869,125.419,128.324,133.875,139.894,143.657" svgx:width="0.42,0.58,0.55,0.83,0.58,0.55,0.29,0.58,0.55,0.56,0.29,0.56,0.6,0.4,0.48" style="fill:rgb(0,0,0);font-family:URWPalladioL-Roma;font-size:9.96px;stroke:none;">shown in Figure</text>
   <text y="678.752" x="150.925" svgx:width="0.5" style="fill:rgb(8,117,183);font-family:URWPalladioL-Roma;font-size:9.96px;stroke:none;">4</text>
   <text y="678.752" x="155.916,160.907,163.39700000000002,166.907,173.026,178.836,183.6168,186.103,189.867,194.648,199.639,204.072,207.326,210.231,215.681,221.45780000000002,223.987,229.507,234.289,237.543,245.869,250.65,255.432,261.2088,263.737,269.837,273.161,278.402,283.952,291.798,299.255,306.3266,308.828,313.82,319.629,325.7046,328.214,331.119,334.024,337.279,343.088,345.993,352.013,363.323,368.773,373.206,377.638,383.657,387.6,391.7832,394.329,397.234,403.01079999999996,405.539,408.793,414.603,418.367,423.148,427.9288,430.425,436.525,441.975,450.79,455.781,458.686,464.496,468.6792,471.214,474.538,478.302,483.752,495.062,500.054,502.549,507.529,510.036,513.29" svgx:width="0.5,0.25,0.55,0.61,0.58,0.48,0.55,0.4,0.48,0.5,0.44,0.33,0.29,0.55,0.58,0.55,0.55,0.48,0.33,0.83,0.48,0.48,0.58,0.55,0.61,0.33,0.52,0.56,0.79,0.75,0.71,0.55,0.5,0.58,0.61,0.55,0.29,0.29,0.33,0.58,0.29,0.6,0.88,0.55,0.44,0.44,0.6,0.4,0.42,0.55,0.29,0.58,0.55,0.33,0.58,0.4,0.48,0.48,0.55,0.61,0.55,0.88,0.5,0.29,0.58,0.42,0.55,0.33,0.4,0.55,0.88,0.5,0.25,0.5,0.55,0.33,0.55" style="fill:rgb(0,0,0);font-family:URWPalladioL-Roma;font-size:9.96px;stroke:none;">a. The reaction between B-SFO@C and lithiumoccurs in three domains from0.7 to</text>
   <text y="692.262" x="76.037,81.093,83.621,88.677,93.65700000000001,96.231,102.247,104.737,107.273,115.707,118.649,121.946,127.72279999999999,130.339,133.635,139.52,144.3008,146.862,150.158,156.043,159.856,164.699,169.4798,172.041,175.863,180.707,186.329,189.272,194.793,200.678,204.8612,207.463,213.177,218.02,222.014,227.5916,230.134,235.19,241.076,246.132,249.074,254.595,260.218,265.739,271.837,276.0202,278.622,281.918,287.396,289.947,293.244,299.129,303.9098,306.47,311.991,317.877,322.72,326.9032,329.505,332.448,338.627,343.47,349.355,352.652,355.595,361.712,366.556,372.6316,375.232,378.599,384.121,388.10499999999996,390.623,396.144,399.44,405.326,410.169,414.15299999999996,416.661,421.97,427.855,431.223,436.814,441.87,446.158,451.002,457.0776,459.678,468.607,473.663,476.959,481.803,485.797,488.74,493.796,496.738,501.026,503.516,506.062,509.429,514.95" svgx:width="0.5,0.25,0.5,0.5,0.55,0.72,0.25,0.55,0.83,0.29,0.33,0.58,0.55,0.33,0.58,0.48,0.55,0.33,0.58,0.4,0.48,0.48,0.55,0.4,0.48,0.56,0.29,0.55,0.58,0.42,0.55,0.56,0.48,0.4,0.56,0.55,0.5,0.58,0.5,0.29,0.55,0.56,0.55,0.6,0.42,0.55,0.33,0.55,0.55,0.33,0.58,0.48,0.55,0.55,0.58,0.48,0.42,0.55,0.29,0.61,0.48,0.58,0.33,0.29,0.61,0.48,0.61,0.55,0.33,0.55,0.4,0.55,0.55,0.33,0.58,0.48,0.4,0.55,0.52,0.58,0.33,0.55,0.5,0.42,0.48,0.61,0.55,0.88,0.5,0.33,0.48,0.4,0.29,0.5,0.29,0.42,0.25,0.55,0.33,0.55,0.4" style="fill:rgb(0,0,0);font-family:URWPalladioL-Roma;font-size:9.96px;stroke:none;">1.41 V, with the three regions very analogous to the ones identiﬁed for other Sn-based materials, for</text>
   <text y="705.771" x="76.535,81.212,86.25,91.131,99.752,105.62,108.461,113.138,115.628,117.746,122.872,128.554" svgx:width="0.48,0.52,0.5,0.88,0.6,0.29,0.48,0.25,0.55,0.52,0.58,0.79" style="fill:rgb(0,0,0);font-family:URWPalladioL-Roma;font-size:9.96px;stroke:none;">example, SnO</text>
   <text y="707.636" x="136.23" svgx:width="0.5" style="fill:rgb(0,0,0);font-family:URWPalladioL-Roma;font-size:7.57px;stroke:none;">2</text>
   <text y="705.771" x="140.514" svgx:width="0.29" style="fill:rgb(0,0,0);font-family:Rpxr;font-size:9.96px;stroke:none;">/</text>
   <text y="705.771" x="143.316,150.238,152.728,154.768,161.691" svgx:width="0.71,0.25,0.55,0.71,0.55" style="fill:rgb(0,0,0);font-family:URWPalladioL-Roma;font-size:9.96px;stroke:none;">C, Co</text>
   <text y="707.636" x="167.021" svgx:width="0.5" style="fill:rgb(0,0,0);font-family:URWPalladioL-Roma;font-size:7.57px;stroke:none;">3</text>
   <text y="705.771" x="171.305,176.431" svgx:width="0.52,0.58" style="fill:rgb(0,0,0);font-family:URWPalladioL-Roma;font-size:9.96px;stroke:none;">Sn</text>
   <text y="707.636" x="182.113" svgx:width="0.5" style="fill:rgb(0,0,0);font-family:URWPalladioL-Roma;font-size:7.57px;stroke:none;">2</text>
   <text y="705.771" x="186.397" svgx:width="0.29" style="fill:rgb(0,0,0);font-family:Rpxr;font-size:9.96px;stroke:none;">/</text>
   <text y="705.771" x="189.199,194.325,200.007" svgx:width="0.52,0.58,0.79" style="fill:rgb(0,0,0);font-family:URWPalladioL-Roma;font-size:9.96px;stroke:none;">SnO</text>
   <text y="707.636" x="207.681" svgx:width="0.5" style="fill:rgb(0,0,0);font-family:URWPalladioL-Roma;font-size:7.57px;stroke:none;">2</text>
   <text y="705.771" x="211.965,214.455,216.573,221.455,227.137,233.2126,235.192,240.318,246.0,251.126,254.377,260.889,266.571,271.697,278.99,285.913,288.403,290.443,296.428,302.11,307.997,312.137,314.627,316.745,319.928,325.61,330.3908,332.376,338.244,342.921,347.802,353.231,357.4142,359.46,364.137,372.758,377.434,381.115,386.543,389.385,395.067,400.6446,402.585,407.466,410.75280000000004,412.738,417.62,420.061,424.943,429.923,431.914,437.674,440.164,442.204,447.086,449.527,454.408,459.38800000000003,461.38,470.518,475.4,481.082" svgx:width="0.25,0.55,0.5,0.58,0.61,0.55,0.52,0.58,0.52,0.33,0.67,0.58,0.52,0.75,0.71,0.25,0.55,0.61,0.58,0.6,0.42,0.25,0.55,0.33,0.58,0.48,0.55,0.6,0.48,0.5,0.56,0.42,0.55,0.48,0.88,0.48,0.4,0.56,0.29,0.58,0.56,0.55,0.5,0.33,0.55,0.5,0.25,0.5,0.5,0.55,0.72,0.25,0.55,0.5,0.25,0.5,0.5,0.55,0.72,0.5,0.58,0.61" style="fill:rgb(0,0,0);font-family:URWPalladioL-Roma;font-size:9.96px;stroke:none;">, and SnS-ZnS@C. Thus, the peaks emerging at 1.41 V, 0.77 Vand</text>
   <text y="705.771" x="489.136" svgx:width="0.67" style="fill:rgb(0,0,0);font-family:Rpxr;font-size:9.96px;stroke:none;">&lt;</text>
   <text y="705.771" x="497.757,502.639,505.079,510.059,512.051" svgx:width="0.5,0.25,0.5,0.55,0.72" style="fill:rgb(0,0,0);font-family:URWPalladioL-Roma;font-size:9.96px;stroke:none;">0.7 V</text>
   <text y="719.281" x="76.535,79.466,85.24279999999999,87.826,91.109,96.971,101.7518,104.304,110.398,114.376,118.647,121.9338,124.428,128.9,133.936,137.22,143.082,148.581,154.735,157.666,162.0484,164.636,168.907,173.379,178.415,184.1918,186.775,192.828,196.626,202.125,206.597,211.422,215.692,219.8752,222.471,226.943,231.979,237.75580000000002,240.339,246.493,251.318,256.354,259.2424,261.783,270.183,273.114,276.397,282.17379999999997,284.757,289.229,294.729,300.591,306.282,311.106,315.085,319.355,322.286,327.786,333.5628,336.156,339.953,344.777,349.814,354.286,357.569,360.5,366.0,371.7768,374.359,379.859,383.1458,385.711,390.999,396.861" svgx:width="0.29,0.58,0.55,0.33,0.58,0.48,0.55,0.61,0.4,0.42,0.33,0.55,0.44,0.5,0.33,0.58,0.55,0.61,0.29,0.44,0.55,0.42,0.44,0.5,0.58,0.55,0.6,0.4,0.55,0.44,0.48,0.42,0.42,0.55,0.44,0.5,0.58,0.55,0.61,0.48,0.5,0.29,0.55,0.83,0.29,0.33,0.58,0.55,0.44,0.55,0.58,0.56,0.48,0.4,0.42,0.29,0.55,0.58,0.55,0.4,0.48,0.5,0.44,0.33,0.29,0.55,0.58,0.55,0.55,0.33,0.55,0.52,0.58,0.79" style="fill:rgb(0,0,0);font-family:URWPalladioL-Roma;font-size:9.96px;stroke:none;">in the ﬁrst cathodic scan process can deal with conversion reaction of SnO</text>
   <text y="721.145" x="404.781" svgx:width="0.5" style="fill:rgb(0,0,0);font-family:URWPalladioL-Roma;font-size:7.57px;stroke:none;">2</text>
   <text y="719.281" x="411.566,416.602,422.464,428.5396,431.116,436.716" svgx:width="0.5,0.58,0.61,0.55,0.56,0.48" style="fill:rgb(0,0,0);font-family:URWPalladioL-Roma;font-size:9.96px;stroke:none;">and Fe</text>
   <text y="721.145" x="441.543" svgx:width="0.5" style="fill:rgb(0,0,0);font-family:URWPalladioL-Roma;font-size:7.57px;stroke:none;">2</text>
   <text y="719.281" x="445.827" svgx:width="0.79" style="fill:rgb(0,0,0);font-family:URWPalladioL-Roma;font-size:9.96px;stroke:none;">O</text>
   <text y="721.145" x="453.744" svgx:width="0.5" style="fill:rgb(0,0,0);font-family:URWPalladioL-Roma;font-size:7.57px;stroke:none;">3</text>
   <text y="719.281" x="458.028,460.51800000000003,463.044,466.398,471.897,475.876,484.77,489.806,493.089,496.02,501.52,507.29679999999996,509.89,515.389" svgx:width="0.25,0.55,0.33,0.55,0.4,0.88,0.5,0.33,0.29,0.55,0.58,0.55,0.55,0.33" style="fill:rgb(0,0,0);font-family:URWPalladioL-Roma;font-size:9.96px;stroke:none;">, formation of</text>
   <text y="732.79" x="76.535,81.839,88.011,91.39739999999999,93.911,100.022,102.962,111.7268,114.367,119.418,125.298,131.3736,133.965,139.016,141.956,144.896,150.411,156.028,158.968,164.847,170.4246,172.949,179.021,182.839,188.355,192.84,197.679,201.962,206.1452,208.731,214.246,217.5328,220.106,226.278" svgx:width="0.52,0.61,0.34,0.55,0.61,0.29,0.88,0.55,0.5,0.58,0.61,0.55,0.5,0.29,0.29,0.55,0.56,0.29,0.58,0.56,0.55,0.6,0.4,0.55,0.44,0.48,0.42,0.42,0.55,0.55,0.33,0.55,0.61,0.29" style="fill:rgb(0,0,0);font-family:URWPalladioL-Roma;font-size:9.96px;stroke:none;">SEI ﬁlm and alloying process of Li</text>
   <text y="729.174" x="229.214" svgx:width="0.67" style="fill:rgb(0,0,0);font-family:Rpxr;font-size:7.57px;stroke:none;">+</text>
   <text y="732.79" x="237.269,240.209,246.088,250.371,255.21,259.201,262.494,265.434,271.313,276.8906,279.425,282.365,288.244,291.527,297.005,299.538,304.842,310.721,313.211,315.742,319.55,324.389,328.673,334.744,339.583,344.068,347.361,350.301,356.009,360.848,363.787,369.3646,371.889" svgx:width="0.29,0.58,0.42,0.48,0.4,0.33,0.29,0.58,0.56,0.55,0.29,0.58,0.33,0.55,0.55,0.52,0.58,0.25,0.55,0.4,0.48,0.42,0.6,0.48,0.44,0.33,0.29,0.56,0.48,0.29,0.56,0.55,0.33" style="fill:rgb(0,0,0);font-family:URWPalladioL-Roma;font-size:9.96px;stroke:none;">inserting into Sn, respectively [</text>
   <text y="732.79" x="375.257,380.238" svgx:width="0.5,0.5" style="fill:rgb(8,117,183);font-family:URWPalladioL-Roma;font-size:9.96px;stroke:none;">45</text>
   <text y="732.79" x="385.22" svgx:width="0.25" style="fill:rgb(0,0,0);font-family:URWPalladioL-Roma;font-size:9.96px;stroke:none;">,</text>
   <text y="732.79" x="387.746,392.727" svgx:width="0.5,0.5" style="fill:rgb(8,117,183);font-family:URWPalladioL-Roma;font-size:9.96px;stroke:none;">46</text>
   <text y="732.79" x="397.708,401.072,403.562,407.083,410.487,416.2638,418.862,422.155,428.034,432.8148,435.358,439.642,445.733,451.32,455.603,460.442,466.099,472.191,477.03,482.909,486.1958,488.697,493.748,499.628,505.144,511.316,514.256" svgx:width="0.33,0.25,0.55,0.34,0.58,0.55,0.33,0.58,0.48,0.55,0.42,0.6,0.55,0.42,0.48,0.56,0.6,0.48,0.58,0.33,0.55,0.5,0.58,0.55,0.61,0.29,0.44" style="fill:rgb(0,0,0);font-family:URWPalladioL-Roma;font-size:9.96px;stroke:none;">]. In the subsequent anodic</text>
   <text y="746.299" x="76.535,80.844,85.355,90.436,96.2128,99.104,105.212,109.043,114.591,119.103,123.971,128.279,132.588,135.078,137.953,141.266,147.18,151.9608,154.802,159.11,162.423,166.254,171.802,177.717,183.2946,186.131,192.238,197.105,202.186,207.836,212.0192,214.899,219.98,223.2668,226.046,231.127,233.668,238.749,243.72899999999998,246.583,253.7542,256.674,261.755,267.669,273.7446,276.632,279.945,285.859,290.6398,293.48,301.955,306.823,311.904,317.4816,320.308,326.415,331.283,336.363,341.9406,344.767,349.848,353.13480000000004,355.915,360.996,363.536,368.617,373.59700000000004,376.462,383.6332,386.553,392.101,396.115,399.072,404.722,407.679,413.594,418.675,421.987,426.7678,429.609,432.993,436.824,442.372,451.1368,454.099,457.412,463.326,468.1068,470.947,477.156,482.024,487.104,490.062,493.019,498.567,504.217,507.174,513.088" svgx:width="0.42,0.44,0.5,0.58,0.55,0.6,0.4,0.55,0.44,0.48,0.42,0.42,0.25,0.55,0.33,0.58,0.48,0.55,0.42,0.33,0.4,0.55,0.58,0.56,0.55,0.6,0.48,0.5,0.56,0.42,0.55,0.5,0.33,0.55,0.5,0.25,0.5,0.5,0.55,0.72,0.55,0.5,0.58,0.61,0.55,0.33,0.58,0.48,0.55,0.83,0.48,0.5,0.56,0.55,0.6,0.48,0.5,0.56,0.55,0.5,0.33,0.55,0.5,0.25,0.5,0.5,0.55,0.72,0.55,0.55,0.4,0.29,0.56,0.29,0.58,0.5,0.33,0.48,0.55,0.33,0.4,0.55,0.88,0.55,0.33,0.58,0.48,0.55,0.61,0.48,0.5,0.29,0.29,0.55,0.56,0.29,0.58,0.56" style="fill:rgb(0,0,0);font-family:URWPalladioL-Roma;font-size:9.96px;stroke:none;">scan process, the strong peaks at 0.59 V and the weak peak at 1.89 V originate from the dealloying</text>
   <text y="759.809" x="76.535,81.231,86.77,91.465,97.171,100.4578,102.857,108.209,111.4958,113.973,119.963" svgx:width="0.48,0.56,0.48,0.58,0.33,0.55,0.55,0.33,0.55,0.61,0.29" style="fill:rgb(0,0,0);font-family:URWPalladioL-Roma;font-size:9.96px;stroke:none;">event of Li</text>
   <text y="761.303" x="122.811" svgx:width="0.5" style="fill:rgb(0,0,0);font-family:URWPalladioL-Ital;font-size:7.57px;stroke:none;">x</text>
   <text y="759.809" x="127.095,132.242,138.0188,140.437,143.633,149.11100000000002,151.476,156.622,162.39880000000002,164.827,169.729,175.435,181.5106,183.914,187.11,192.816,197.5968,200.001,205.354,210.412,213.265,219.255,224.156,227.352,230.205,235.558,241.3348,243.753,249.106,252.3928,254.87,260.32,265.1008,267.506,270.702,276.18,278.545,283.995" svgx:width="0.52,0.58,0.55,0.33,0.55,0.55,0.52,0.58,0.55,0.5,0.58,0.61,0.55,0.33,0.58,0.48,0.55,0.55,0.52,0.29,0.61,0.5,0.33,0.29,0.55,0.58,0.55,0.55,0.33,0.55,0.56,0.48,0.55,0.33,0.55,0.55,0.56,0.48" style="fill:rgb(0,0,0);font-family:URWPalladioL-Roma;font-size:9.96px;stroke:none;">Sn to Sn and the oxidation of Fe to Fe</text>
   <text y="761.674" x="288.693" svgx:width="0.5" style="fill:rgb(0,0,0);font-family:URWPalladioL-Roma;font-size:7.57px;stroke:none;">2</text>
   <text y="759.809" x="292.977" svgx:width="0.79" style="fill:rgb(0,0,0);font-family:URWPalladioL-Roma;font-size:9.96px;stroke:none;">O</text>
   <text y="761.674" x="300.682" svgx:width="0.5" style="fill:rgb(0,0,0);font-family:URWPalladioL-Roma;font-size:7.57px;stroke:none;">3</text>
   <text y="759.809" x="304.966,307.456,309.907,313.603,318.298,322.455,328.347,333.042,337.395,340.591,343.444,348.982,353.678,356.531,360.874,363.36400000000003,366.814,372.824,378.529,383.3098,385.725,391.617,396.312,401.214,406.7916,409.155,414.507,418.86,423.212,429.124,432.996,436.868,439.721,445.426,451.0036,453.367,458.269,461.964,467.317,473.228,478.934,485.00960000000003,487.413,492.315,494.766,499.74600000000004,502.158,509.3292,511.735,514.588" svgx:width="0.25,0.55,0.4,0.48,0.42,0.6,0.48,0.44,0.33,0.29,0.56,0.48,0.29,0.56,0.25,0.55,0.61,0.58,0.48,0.55,0.6,0.48,0.5,0.56,0.55,0.55,0.44,0.44,0.6,0.4,0.4,0.29,0.58,0.56,0.55,0.5,0.4,0.55,0.6,0.58,0.61,0.55,0.5,0.25,0.5,0.55,0.72,0.55,0.29,0.42" style="fill:rgb(0,0,0);font-family:URWPalladioL-Roma;font-size:9.96px;stroke:none;">, respectively. The peak occurring around 1.3 V is</text>
  </g>
 </g>
</svg>
