<?xml version="1.0" encoding="UTF-8"?>
<svg height="744.355" width="530.5120000000001" xmlns="http://www.w3.org/2000/svg">
 <g id="page" xmlns:svgx="http://www.xml-cml.org/schema/svgx">
  <g begin="text">
   <text y="62.979" x="76.535,84.059,87.598,90.252,93.352,96.452,98.668,102.207,104.422" svgx:width="0.94,0.44,0.33,0.39,0.39,0.28,0.44,0.28,0.39" style="fill:rgb(0,0,0);font-family:URWPalladioL-Ital;font-size:7.97px;stroke:none;">Materials</text>
   <text y="62.979" x="109.515,113.5,117.485,121.47" svgx:width="0.5,0.5,0.5,0.5" style="fill:rgb(0,0,0);font-family:URWPalladioL-Bold;font-size:7.97px;stroke:none;">2020</text>
   <text y="62.979" x="125.455" svgx:width="0.25" style="fill:rgb(0,0,0);font-family:URWPalladioL-Roma;font-size:7.97px;stroke:none;">,</text>
   <text y="62.979" x="129.44,133.425" svgx:width="0.5,0.5" style="fill:rgb(0,0,0);font-family:URWPalladioL-Ital;font-size:7.97px;stroke:none;">13</text>
   <text y="62.979" x="137.41,139.4025,141.395,145.38,149.365,153.35,157.335,491.809,495.794,499.779,501.772,506.123,508.7531,510.77,514.755" svgx:width="0.25,0.55,0.5,0.5,0.5,0.5,0.55,0.5,0.5,0.55,0.55,0.33,0.55,0.5,0.5" style="fill:rgb(0,0,0);font-family:URWPalladioL-Roma;font-size:7.97px;stroke:none;">, 2491 14 of 18</text>
   <text y="97.848" x="97.795,103.78,109.462,114.2428,116.56,125.181,129.858,134.739,138.879,144.766,148.437,153.114,159.1896,161.501" svgx:width="0.61,0.58,0.48,0.55,0.88,0.48,0.5,0.42,0.6,0.4,0.48,0.61,0.55,0.33" style="fill:rgb(0,0,0);font-family:URWPalladioL-Roma;font-size:9.96px;stroke:none;">The measured t</text>
   <text y="99.713" x="164.683" svgx:width="0.5" style="fill:rgb(0,0,0);font-family:URWPalladioL-Roma;font-size:7.57px;stroke:none;">8</text>
   <text y="99.713" x="168.469" svgx:width="0.29" style="fill:rgb(0,0,0);font-family:Rpxr;font-size:7.57px;stroke:none;">/</text>
   <text y="99.713" x="170.642" svgx:width="0.5" style="fill:rgb(0,0,0);font-family:URWPalladioL-Roma;font-size:7.57px;stroke:none;">5</text>
   <text y="97.848" x="174.926,178.177,181.36,184.201,192.822,197.499,201.6822,204.06,206.901,212.67780000000002,214.995,218.178,223.86,228.6408,230.958,235.84,239.979,243.2658,245.574,253.716,258.393,261.234,267.3096,269.621,275.02,279.696,284.578,290.6536,292.965,298.296,301.5828,303.958,308.84,314.708,320.576,324.256,329.587,334.625,337.466,346.087,350.969,354.152,358.828,361.669,367.2466,369.519,374.499,376.812,380.9952,383.373,387.513,393.195,398.526,409.09,413.23,421.851,426.732,429.574,432.4624,434.826,440.792,445.468,450.985,453.826,458.707,461.89,464.731,470.062,475.744,479.9272,482.305,487.704,492.381,495.564,503.707,508.383,513.06" svgx:width="0.33,0.33,0.29,0.88,0.48,0.42,0.55,0.29,0.58,0.55,0.33,0.58,0.48,0.55,0.5,0.42,0.33,0.55,0.83,0.48,0.29,0.61,0.55,0.55,0.48,0.5,0.61,0.55,0.55,0.33,0.55,0.5,0.6,0.6,0.4,0.55,0.52,0.29,0.88,0.5,0.33,0.48,0.29,0.56,0.55,0.5,0.55,0.42,0.55,0.42,0.58,0.55,0.83,0.42,0.88,0.5,0.29,0.29,0.55,0.61,0.48,0.56,0.29,0.5,0.33,0.29,0.55,0.58,0.42,0.55,0.55,0.48,0.33,0.83,0.48,0.48,0.58" style="fill:rgb(0,0,0);font-family:URWPalladioL-Roma;font-size:9.96px;stroke:none;">-times in the 1st weld bead of approximately 2 s showsmall deviations between</text>
   <text y="111.358" x="76.535,79.848,85.762,90.5428,94.176,99.044,104.287,110.394,115.262,119.276,122.233,131.206,136.073,141.988,145.3,150.381,153.2694,156.885,160.198,164.211,167.169,172.249,175.207,179.3902,183.052,191.527,194.484,197.796,203.5728,207.257,212.338,218.547,220.925,227.052,231.361,234.674,239.541,245.6166,249.297,256.501,262.731,272.892,280.758,283.248,286.845,294.751,299.262,303.774,309.323,313.154,319.363,322.32,328.234,333.8116,337.43,340.743,346.221,349.838,353.151,359.065,363.8458,367.479,374.684,381.888,387.569,390.953,397.162,400.119,405.2,410.85,414.864,419.945,428.918,431.408,435.269,438.581,444.496,449.2768,452.91,456.294,461.842,465.856,474.829,479.91,483.212,486.169,491.718,497.4948,501.178,506.727,510.0138,513.657" svgx:width="0.33,0.58,0.48,0.55,0.48,0.52,0.6,0.48,0.4,0.29,0.88,0.48,0.58,0.33,0.5,0.29,0.55,0.33,0.4,0.29,0.5,0.29,0.42,0.55,0.83,0.29,0.33,0.58,0.55,0.5,0.61,0.23,0.6,0.42,0.33,0.48,0.61,0.55,0.71,0.61,1.0,0.77,0.25,0.55,0.78,0.44,0.44,0.55,0.4,0.61,0.29,0.58,0.56,0.55,0.33,0.55,0.55,0.33,0.58,0.48,0.55,0.71,0.71,0.61,0.33,0.61,0.29,0.5,0.56,0.4,0.5,0.88,0.25,0.55,0.33,0.58,0.48,0.55,0.33,0.55,0.4,0.88,0.5,0.33,0.29,0.55,0.58,0.55,0.55,0.33,0.55,0.5" style="fill:rgb(0,0,0);font-family:URWPalladioL-Roma;font-size:9.96px;stroke:none;">the experimental trials with adjusted CTWD. According to the CCT-diagram, the formation of a</text>
   <text y="124.867" x="76.535,85.508,90.589,94.603,97.916,102.783,108.697,113.006,115.963,119.276,122.233,126.745,130.129,135.748,140.829,143.786,149.7,152.657,155.97,158.927,163.30939999999998,166.132,175.105,178.062,182.574,186.405,191.953,196.262,199.575,203.507,209.635,214.147,217.46,223.587,227.428,232.2088,234.979,243.454,246.411,249.723,255.49980000000002,258.33,264.245,267.202,272.852,278.62879999999996,281.459,287.373,292.454,296.285,302.494,308.408,313.276,317.584,321.7672,324.586,330.327,335.408,338.365,344.493,349.36" svgx:width="0.88,0.5,0.4,0.33,0.48,0.58,0.42,0.29,0.33,0.29,0.44,0.33,0.55,0.5,0.29,0.58,0.29,0.33,0.29,0.44,0.55,0.88,0.29,0.44,0.4,0.55,0.42,0.33,0.4,0.6,0.44,0.33,0.6,0.4,0.48,0.55,0.83,0.29,0.33,0.58,0.55,0.58,0.29,0.56,0.58,0.55,0.58,0.5,0.4,0.61,0.58,0.48,0.42,0.42,0.55,0.56,0.5,0.29,0.6,0.48,0.42" style="fill:rgb(0,0,0);font-family:URWPalladioL-Roma;font-size:9.96px;stroke:none;">martensitic-bainitic microstructure with high hardness values</text>
   <text y="124.867" x="356.364" svgx:width="0.67" style="fill:rgb(0,0,0);font-family:Rpxr;font-size:9.96px;stroke:none;">&gt;</text>
   <text y="124.867" x="365.854,370.935,376.016,380.99600000000004,383.79,392.244,399.4152,402.274,407.355,413.462,419.57,424.437,429.518,433.349,438.217,444.2926,447.118,450.502,456.051,460.03499999999997,462.757" svgx:width="0.5,0.5,0.5,0.55,0.83,0.72,0.55,0.5,0.6,0.6,0.48,0.5,0.4,0.48,0.61,0.55,0.33,0.55,0.4,0.55,0.33" style="fill:rgb(0,0,0);font-family:URWPalladioL-Roma;font-size:9.96px;stroke:none;">257 HV appeared for t</text>
   <text y="126.732" x="466.068" svgx:width="0.5" style="fill:rgb(0,0,0);font-family:URWPalladioL-Roma;font-size:7.57px;stroke:none;">8</text>
   <text y="126.732" x="469.853" svgx:width="0.29" style="fill:rgb(0,0,0);font-family:Rpxr;font-size:7.57px;stroke:none;">/</text>
   <text y="126.732" x="472.026" svgx:width="0.5" style="fill:rgb(0,0,0);font-family:URWPalladioL-Roma;font-size:7.57px;stroke:none;">5</text>
   <text y="124.867" x="476.31,479.694,483.007,485.964,494.937,499.804,503.9872,506.806,512.933" svgx:width="0.33,0.33,0.29,0.88,0.48,0.42,0.55,0.6,0.6" style="fill:rgb(0,0,0);font-family:URWPalladioL-Roma;font-size:9.96px;stroke:none;">-times up</text>
   <text y="138.377" x="76.535,79.835,85.31299999999999,87.841,92.821,95.382,99.674,102.164,105.686,111.891,117.782,122.631,126.922,131.7028,134.241,138.735,144.261,149.788,152.733,155.679,161.57,167.14759999999998,169.678,174.172,179.698,185.589,191.774,194.719,198.019,200.965,206.491,212.382,216.5652,219.154,227.596,232.444,236.26,241.0408,243.588,252.526,257.375,262.436,266.727,272.831,276.647,281.495,287.5706,290.16,293.53,297.346,302.873,311.63779999999997,314.291,317.59,323.481,328.2618,330.81,336.934,340.932,345.224,348.5108,350.993,354.293,359.771,362.299,365.599,371.49,376.2708,378.818,382.118,388.009,390.955,394.771,400.8466,403.435,406.381,411.442,417.069,421.918,425.902,428.396,431.767,436.261,441.787,450.725,456.808,461.869,465.685,470.4658,473.014,478.642,481.587,487.215,493.319,497.135" svgx:width="0.33,0.55,0.55,0.5,0.55,0.42,0.25,0.55,0.61,0.58,0.48,0.42,0.48,0.55,0.44,0.55,0.55,0.29,0.29,0.58,0.56,0.55,0.44,0.55,0.58,0.61,0.29,0.33,0.29,0.55,0.58,0.42,0.55,0.83,0.48,0.4,0.48,0.55,0.88,0.48,0.5,0.42,0.6,0.4,0.48,0.61,0.55,0.33,0.4,0.55,0.88,0.55,0.33,0.58,0.48,0.55,0.61,0.4,0.42,0.33,0.55,0.33,0.55,0.55,0.33,0.58,0.48,0.55,0.33,0.58,0.29,0.4,0.61,0.55,0.29,0.5,0.56,0.48,0.4,0.55,0.33,0.44,0.55,0.88,0.6,0.5,0.4,0.48,0.55,0.56,0.29,0.56,0.6,0.4,0.48" style="fill:rgb(0,0,0);font-family:URWPalladioL-Roma;font-size:9.96px;stroke:none;">to 4 s. These cooling conditions were measured from the ﬁrst to the third layer (compare Figure</text>
   <text y="138.377" x="504.463,509.524" svgx:width="0.5,0.5" style="fill:rgb(8,117,183);font-family:URWPalladioL-Roma;font-size:9.96px;stroke:none;">12</text>
   <text y="138.377" x="514.585,517.956" svgx:width="0.33,0.25" style="fill:rgb(0,0,0);font-family:URWPalladioL-Roma;font-size:9.96px;stroke:none;">).</text>
   <text y="151.886" x="76.037,85.65,88.607,91.92,97.6968,100.344,103.301,109.215,113.727,117.558,122.426,127.507,131.815,134.773,140.687,146.2646,148.847,153.155,156.468,160.401,166.528,171.04,174.353,180.481,184.322,189.1028,191.689,197.603,202.471,205.428,211.078,216.992,220.2788,222.815,227.896,233.81,239.8856,242.529,245.842,251.756,257.883,262.0662,264.702,267.659,273.207,279.122,284.772,289.639,293.623,296.163" svgx:width="1.0,0.29,0.33,0.58,0.55,0.29,0.58,0.44,0.4,0.48,0.5,0.42,0.29,0.58,0.56,0.55,0.42,0.33,0.4,0.6,0.44,0.33,0.6,0.4,0.48,0.55,0.58,0.48,0.29,0.56,0.58,0.33,0.55,0.5,0.58,0.61,0.55,0.33,0.58,0.6,0.42,0.55,0.29,0.55,0.58,0.56,0.48,0.4,0.55,0.33" style="fill:rgb(0,0,0);font-family:URWPalladioL-Roma;font-size:9.96px;stroke:none;">With increasing structure height and thus longer t</text>
   <text y="153.751" x="299.474" svgx:width="0.5" style="fill:rgb(0,0,0);font-family:URWPalladioL-Roma;font-size:7.57px;stroke:none;">8</text>
   <text y="153.751" x="303.26" svgx:width="0.29" style="fill:rgb(0,0,0);font-family:Rpxr;font-size:7.57px;stroke:none;">/</text>
   <text y="153.751" x="305.433" svgx:width="0.5" style="fill:rgb(0,0,0);font-family:URWPalladioL-Roma;font-size:7.57px;stroke:none;">5</text>
   <text y="151.886" x="309.717,313.101,316.414,319.371,328.344,333.211,337.52,340.01,342.57,345.883,351.797,356.5778,359.175,368.148,371.105,375.617,379.448,384.996,389.305,392.617,396.56,402.688,407.2,410.512,416.64,420.471,425.2518,427.849,432.36,437.909,443.823,448.132,451.089,455.397,458.71,463.578,469.6536,472.297,477.845,481.13180000000006,483.729,489.47,494.551,498.565,504.215,507.172,513.086" svgx:width="0.33,0.33,0.29,0.88,0.48,0.42,0.25,0.55,0.33,0.58,0.48,0.55,0.88,0.29,0.44,0.4,0.55,0.42,0.33,0.4,0.6,0.44,0.33,0.6,0.4,0.48,0.55,0.44,0.55,0.58,0.42,0.29,0.42,0.33,0.48,0.61,0.55,0.55,0.33,0.55,0.56,0.5,0.4,0.56,0.29,0.58,0.56" style="fill:rgb(0,0,0);font-family:URWPalladioL-Roma;font-size:9.96px;stroke:none;">-times, the microstructure consisted of varying</text>
   <text y="165.395" x="76.236,82.224,85.979,91.419,97.407,102.846,106.781,110.029,112.928,118.368,124.166,128.3492,130.881,136.32,139.6068,142.129,147.638,152.619,155.518,161.317,164.216,167.464,172.2448,174.726,179.708,185.506,191.5816,194.084,197.401,202.173,206.108,210.044,212.943,216.191,220.9718,223.453,226.771,231.194,236.634,245.431,251.418,256.4,260.156,264.9368,267.418,272.958,275.857,281.396,287.403,291.159" svgx:width="0.6,0.4,0.55,0.6,0.55,0.4,0.33,0.29,0.55,0.58,0.42,0.55,0.55,0.33,0.55,0.55,0.5,0.29,0.58,0.29,0.33,0.48,0.55,0.5,0.58,0.61,0.55,0.33,0.48,0.4,0.4,0.29,0.33,0.48,0.55,0.33,0.44,0.55,0.88,0.6,0.5,0.4,0.48,0.55,0.56,0.29,0.56,0.6,0.4,0.48" style="fill:rgb(0,0,0);font-family:URWPalladioL-Roma;font-size:9.96px;stroke:none;">proportions of bainite and ferrite (compare Figure</text>
   <text y="165.395" x="298.422,303.403" svgx:width="0.5,0.5" style="fill:rgb(8,117,183);font-family:URWPalladioL-Roma;font-size:9.96px;stroke:none;">13</text>
   <text y="165.395" x="308.385,311.702,314.192,317.68,323.787,329.585,334.3658,336.848,341.62,346.76,352.748,357.52,361.944,365.191,370.173,375.682,378.581,383.3618,385.844,391.642,396.623,400.379,406.466,412.265,417.037,421.261,425.4442,427.976,434.063,438.835,443.258,447.014,451.786,456.768,460.992,465.764,471.851" svgx:width="0.33,0.25,0.55,0.61,0.58,0.48,0.55,0.48,0.52,0.6,0.48,0.44,0.33,0.5,0.55,0.29,0.48,0.55,0.58,0.5,0.4,0.61,0.58,0.48,0.42,0.42,0.55,0.61,0.48,0.44,0.4,0.48,0.5,0.42,0.48,0.61,0.25" style="fill:rgb(0,0,0);font-family:URWPalladioL-Roma;font-size:9.96px;stroke:none;">). The expectable hardness decreased.</text>
   <text y="178.905" x="97.795,104.004,108.871,112.184,120.659,125.527,130.394,136.1708,139.855,143.168,149.082,153.8628,157.496,162.577,165.89,171.6668,175.35,180.431,186.345,192.4206,196.101,201.182,206.263,209.575,215.3518,219.036,221.993,227.074,232.724,237.592,240.864,243.354,247.215,250.528,256.442,261.2228,264.856" svgx:width="0.61,0.48,0.33,0.83,0.48,0.48,0.58,0.55,0.33,0.58,0.48,0.55,0.5,0.33,0.58,0.55,0.5,0.58,0.61,0.55,0.5,0.5,0.33,0.58,0.55,0.29,0.5,0.56,0.48,0.4,0.25,0.55,0.33,0.58,0.48,0.55,0.33" style="fill:rgb(0,0,0);font-family:URWPalladioL-Roma;font-size:9.96px;stroke:none;">Between the 4th and 10th layer, the t</text>
   <text y="180.77" x="268.166" svgx:width="0.5" style="fill:rgb(0,0,0);font-family:URWPalladioL-Roma;font-size:7.57px;stroke:none;">8</text>
   <text y="180.77" x="271.952" svgx:width="0.29" style="fill:rgb(0,0,0);font-family:Rpxr;font-size:7.57px;stroke:none;">/</text>
   <text y="180.77" x="274.125" svgx:width="0.5" style="fill:rgb(0,0,0);font-family:URWPalladioL-Roma;font-size:7.57px;stroke:none;">5</text>
   <text y="178.905" x="278.409,281.793,285.106,288.063,297.036,301.903,306.0862,309.758,313.142,318.691,322.67499999999995,326.251,331.231,334.878,342.083,348.312,358.474,366.1432,369.886,375.434,378.72080000000005,382.355,387.436,392.416,396.063,405.036,413.8008,417.555,426.03,430.898,434.739,439.5198,443.153,447.461,450.419,453.376,459.026,464.94,468.253,471.21,476.7876,480.396,483.353,488.901,497.376,502.244,506.228,509.804,515.353" svgx:width="0.33,0.33,0.29,0.88,0.48,0.42,0.55,0.33,0.55,0.4,0.55,0.5,0.55,0.71,0.61,1.0,0.77,0.55,0.55,0.33,0.55,0.5,0.5,0.55,0.88,0.88,0.55,0.83,0.48,0.4,0.48,0.55,0.42,0.29,0.29,0.56,0.58,0.33,0.29,0.56,0.55,0.29,0.55,0.83,0.48,0.4,0.55,0.55,0.33" style="fill:rgb(0,0,0);font-family:URWPalladioL-Roma;font-size:9.96px;stroke:none;">-times for a CTWD of 12 mm were slightly lower of</text>
   <text y="192.414" x="76.535,81.432,87.317,93.203,96.895,102.242,107.296,110.145,118.793,123.689,126.882,131.573,134.423,140.0006,142.365" svgx:width="0.5,0.6,0.6,0.4,0.55,0.52,0.29,0.88,0.5,0.33,0.48,0.29,0.56,0.55,0.33" style="fill:rgb(0,0,0);font-family:URWPalladioL-Roma;font-size:9.96px;stroke:none;">approximately t</text>
   <text y="194.279" x="145.558" svgx:width="0.5" style="fill:rgb(0,0,0);font-family:URWPalladioL-Roma;font-size:7.57px;stroke:none;">8</text>
   <text y="194.279" x="149.344" svgx:width="0.29" style="fill:rgb(0,0,0);font-family:Rpxr;font-size:7.57px;stroke:none;">/</text>
   <text y="194.279" x="151.517" svgx:width="0.5" style="fill:rgb(0,0,0);font-family:URWPalladioL-Roma;font-size:7.57px;stroke:none;">5</text>
   <text y="192.414" x="158.301" svgx:width="0.67" style="fill:rgb(0,0,0);font-family:Rpxr;font-size:9.96px;stroke:none;">=</text>
   <text y="192.414" x="167.354,172.251,174.699,179.679,182.093,186.2762,188.752,191.602,197.3788,199.799,204.147,209.494,218.142,224.027,228.924,232.792,235.642,239.795,245.142,250.9188,253.339,256.531,262.009,264.385,269.365,271.779,278.723,284.726,294.519,302.1882,304.596,309.944,313.23080000000004,315.712,320.608,325.588,328.002,336.65,345.297,347.78700000000003,350.252,353.935,358.626,362.778,368.664,373.355,377.703,380.896,383.745,389.279,393.969,396.819,402.39660000000003,404.771,409.668,414.648,417.062,425.709,434.357,436.84700000000004,440.321,446.324,452.024,454.874,459.0572,461.533,467.517,472.208,477.741,482.432,485.282,490.629,496.514,505.162,509.853,515.552" svgx:width="0.5,0.25,0.5,0.55,0.42,0.55,0.29,0.58,0.55,0.44,0.55,0.88,0.6,0.5,0.4,0.29,0.42,0.55,0.58,0.55,0.33,0.55,0.55,0.5,0.55,0.71,0.61,1.0,0.77,0.55,0.55,0.33,0.55,0.5,0.5,0.55,0.88,0.88,0.25,0.55,0.4,0.48,0.42,0.6,0.48,0.44,0.33,0.29,0.56,0.48,0.29,0.56,0.55,0.5,0.5,0.55,0.88,0.88,0.25,0.55,0.61,0.58,0.29,0.42,0.55,0.61,0.48,0.56,0.48,0.29,0.55,0.6,0.88,0.48,0.58,0.33" style="fill:rgb(0,0,0);font-family:URWPalladioL-Roma;font-size:9.96px;stroke:none;">1.5 s in comparison to a CTWD of 28 mm, respectively 44 mm. This development</text>
   <text y="205.924" x="76.535,79.492,83.6752,86.839,91.351,96.899,102.814,106.126,109.957,115.506,121.247,126.115,130.129,134.437,137.394,142.475,145.36339999999998,148.481,151.794,157.27200000000002,160.38,163.693,169.607,174.3878,177.513,183.621,187.452,193.0,197.512,202.379,206.688,210.8712,214.035,219.654,224.522,230.436,235.517,241.259,244.216,249.764,253.74800000000002,256.816,261.897,267.811,273.8866,277.059,280.9,285.767,291.976,298.104,302.616,307.483,313.5586,316.731,321.598,327.512,332.38,336.211,341.861,347.4386,350.549,353.506,359.421,365.528,371.655,374.9418,378.007,384.114,388.981,392.965,396.044,402.171,408.086,411.043,414.32980000000003,417.394,420.351,425.219,431.133,436.783,440.095,445.8718,449.048,457.523,460.48,463.793,469.5698,472.745,475.703,481.617,486.129,489.96,494.827,499.908,504.217,507.174,513.088" svgx:width="0.29,0.42,0.55,0.44,0.55,0.58,0.33,0.4,0.55,0.56,0.48,0.4,0.42,0.29,0.5,0.29,0.55,0.33,0.55,0.55,0.33,0.58,0.48,0.55,0.6,0.4,0.55,0.44,0.48,0.42,0.42,0.55,0.55,0.48,0.58,0.5,0.56,0.29,0.55,0.4,0.55,0.5,0.58,0.61,0.55,0.4,0.48,0.61,0.6,0.44,0.48,0.61,0.55,0.48,0.58,0.48,0.4,0.56,0.56,0.55,0.29,0.58,0.6,0.6,0.33,0.55,0.6,0.48,0.4,0.55,0.6,0.58,0.29,0.33,0.55,0.29,0.48,0.58,0.56,0.33,0.58,0.55,0.83,0.29,0.33,0.58,0.55,0.29,0.58,0.44,0.4,0.48,0.5,0.42,0.29,0.58,0.56" style="fill:rgb(0,0,0);font-family:URWPalladioL-Roma;font-size:9.96px;stroke:none;">is controversial to the process behavior and reduced energy input per unit length with increasing</text>
   <text y="219.433" x="76.535,83.507,89.534,99.367,106.978,109.46799999999999,111.924,117.952,123.675,128.4558,130.882,134.59,139.3,144.216,148.385,153.754,159.5308,161.965,165.239,170.608,174.592,176.98,180.186,185.908,190.6888,193.116,198.485,204.395,210.304,215.673,219.842,222.704,225.909,230.6898,233.107,239.115,243.825,249.381,254.091,256.952,262.321,268.231,276.914,281.624,287.347,290.6338,293.04,295.901,300.0842,302.568,305.774,311.497,316.2778,318.694,321.969,326.885,331.251,334.5378,336.954,340.15,345.873,350.79,354.07680000000005,356.493,359.698,365.421,370.2018,372.619,380.82,385.53,388.391,394.4666,396.897,402.335,407.045,411.961,418.0366,420.457,425.924,430.634,436.003,444.686,449.396,452.601,456.486,462.0636,464.44,469.357,475.08,481.1556,483.585,486.791,492.514,498.443,502.6262,505.1,508.306,514.029" svgx:width="0.71,0.61,1.0,0.77,0.25,0.55,0.61,0.58,0.48,0.55,0.4,0.48,0.5,0.42,0.55,0.58,0.55,0.33,0.55,0.4,0.55,0.33,0.58,0.48,0.55,0.55,0.6,0.6,0.55,0.42,0.29,0.33,0.48,0.55,0.61,0.48,0.56,0.48,0.29,0.55,0.6,0.88,0.48,0.58,0.33,0.55,0.29,0.42,0.55,0.33,0.58,0.48,0.55,0.33,0.5,0.44,0.33,0.55,0.33,0.58,0.5,0.33,0.55,0.33,0.58,0.48,0.55,0.83,0.48,0.29,0.61,0.55,0.55,0.48,0.5,0.61,0.55,0.56,0.48,0.55,0.88,0.48,0.33,0.4,0.56,0.55,0.5,0.58,0.61,0.55,0.33,0.58,0.6,0.42,0.55,0.33,0.58,0.48" style="fill:rgb(0,0,0);font-family:URWPalladioL-Roma;font-size:9.96px;stroke:none;">CTWD. The reason for the opposite development is the fact that the weld bead geometry and thus the</text>
   <text y="232.942" x="76.535,80.87,86.201,91.883,97.848,100.69,103.872,106.714,112.044,117.727,121.9102,124.278,129.609,132.8958,135.271,140.954,145.63,150.512,153.7988,156.106,160.441,165.772,171.454,177.42,183.307,187.642,190.825,193.666,198.997,204.77380000000002,207.09,210.264,215.74200000000002,218.006,221.189,226.871,231.6518,233.959,238.099,243.986,249.385,253.525,256.708,260.564,265.446,268.629,273.4098,275.717,280.052,285.734,290.616,296.298,301.727,306.5078,308.815,316.958,319.799,322.982,328.7588,331.075,333.917,339.599,343.934,347.605,352.281,357.163,361.303,364.144,369.826,375.40360000000004,377.666,382.001,387.332,393.014,396.197,401.079,405.414,408.7008,411.008,414.191,420.078,425.477,430.2578,432.565,438.531,441.372,445.512,448.695,453.576,459.258,463.593,468.27,470.76,474.167,480.152,485.834,490.6148,492.923,501.065,503.906,509.872,513.055" svgx:width="0.44,0.55,0.58,0.61,0.29,0.33,0.29,0.55,0.58,0.42,0.55,0.55,0.33,0.55,0.58,0.48,0.5,0.33,0.55,0.44,0.55,0.58,0.61,0.6,0.44,0.33,0.29,0.55,0.58,0.55,0.33,0.55,0.55,0.33,0.58,0.48,0.55,0.42,0.6,0.55,0.42,0.33,0.4,0.5,0.33,0.48,0.55,0.44,0.58,0.5,0.58,0.56,0.48,0.55,0.83,0.29,0.33,0.58,0.55,0.29,0.58,0.44,0.4,0.48,0.5,0.42,0.29,0.58,0.56,0.55,0.44,0.55,0.58,0.33,0.5,0.44,0.33,0.55,0.33,0.6,0.55,0.48,0.55,0.61,0.29,0.42,0.33,0.5,0.58,0.44,0.48,0.25,0.55,0.61,0.58,0.48,0.55,0.83,0.29,0.61,0.33,0.58" style="fill:rgb(0,0,0);font-family:URWPalladioL-Roma;font-size:9.96px;stroke:none;">conditions of heat conduction to the substrate change with increasing contact tube distance. The width</text>
   <text y="246.452" x="76.535,82.083,85.3698,88.556,91.869,97.783,102.5638,105.74,114.215,119.083,122.04,128.1156,131.338,136.957,141.825,146.906,152.98160000000001,156.204,159.588,164.1,169.648,178.621,184.728,189.809,193.65,198.4308,201.607,207.257,210.214,215.864,221.992,225.823" svgx:width="0.55,0.33,0.55,0.33,0.58,0.48,0.55,0.83,0.48,0.29,0.61,0.55,0.55,0.48,0.5,0.61,0.55,0.33,0.44,0.55,0.88,0.6,0.5,0.4,0.48,0.55,0.56,0.29,0.56,0.6,0.4,0.48" style="fill:rgb(0,0,0);font-family:URWPalladioL-Roma;font-size:9.96px;stroke:none;">of the weld bead (compare Figure</text>
   <text y="246.452" x="233.78,238.86" svgx:width="0.5,0.5" style="fill:rgb(8,117,183);font-family:URWPalladioL-Roma;font-size:9.96px;stroke:none;">10</text>
   <text y="246.452" x="243.941,249.561,252.8478,256.034,262.243,267.11,271.622,275.463,280.331,285.412,289.721,294.588,300.66360000000003,303.886,309.506,315.0836,318.245,323.326,329.433,335.54,339.371,344.92,350.163,353.12,362.093,367.174,370.487,375.354,378.312,383.88960000000003,387.051,392.132,394.672,399.65200000000004,402.842,411.815,420.5798,423.877,427.261,434.466,440.695,450.857" svgx:width="0.55,0.33,0.55,0.61,0.48,0.44,0.4,0.48,0.5,0.42,0.48,0.61,0.55,0.55,0.56,0.55,0.5,0.6,0.6,0.4,0.55,0.52,0.29,0.88,0.5,0.33,0.48,0.29,0.56,0.55,0.5,0.25,0.5,0.55,0.88,0.88,0.55,0.33,0.71,0.61,1.0,0.77" style="fill:rgb(0,0,0);font-family:URWPalladioL-Roma;font-size:9.96px;stroke:none;">b) decreased by approximately 0.6 mm (CTWD</text>
   <text y="246.452" x="461.817" svgx:width="0.67" style="fill:rgb(0,0,0);font-family:Rpxr;font-size:9.96px;stroke:none;">=</text>
   <text y="246.452" x="471.705,476.786,481.766,484.956,493.929,502.902,506.1888,509.375,514.923" svgx:width="0.5,0.5,0.55,0.88,0.88,0.33,0.55,0.55,0.4" style="fill:rgb(0,0,0);font-family:URWPalladioL-Roma;font-size:9.96px;stroke:none;">28 mm) or</text>
   <text y="259.961" x="76.535,81.556,84.067,89.047,91.568,100.436,111.794,115.138,122.258,128.414,138.456" svgx:width="0.5,0.25,0.5,0.55,0.88,0.88,0.33,0.71,0.61,1.0,0.77" style="fill:rgb(0,0,0);font-family:URWPalladioL-Roma;font-size:9.96px;stroke:none;">0.9 mm(CTWD</text>
   <text y="259.961" x="148.713" svgx:width="0.67" style="fill:rgb(0,0,0);font-family:Rpxr;font-size:9.96px;stroke:none;">=</text>
   <text y="259.961" x="157.916,162.937,167.917,170.439,179.306,188.173,191.4598,194.008,199.029,204.874,210.9496,213.49,217.949,223.432,229.277,233.535,238.345,243.968,250.024,254.834,260.679,263.953,266.875,272.4526,274.949,279.97,282.892,287.15,292.628,295.114,298.388,304.232,309.0128,311.533" svgx:width="0.5,0.5,0.55,0.88,0.88,0.33,0.55,0.5,0.58,0.61,0.55,0.44,0.55,0.58,0.42,0.48,0.56,0.6,0.48,0.58,0.33,0.29,0.56,0.55,0.5,0.29,0.42,0.55,0.55,0.33,0.58,0.48,0.55,0.48" style="fill:rgb(0,0,0);font-family:URWPalladioL-Roma;font-size:9.96px;stroke:none;">44 mm) and consequently also the e</text>
   <text y="259.961" x="316.34" svgx:width="0.61" style="fill:rgb(0,0,0);font-family:Rpxr;font-size:9.96px;stroke:none;">ﬀ</text>
   <text y="259.961" x="322.446,327.256,331.715,334.989,337.911,343.585,348.3658,350.876,355.897,359.693,364.503,369.483,372.005,375.349,380.832,384.816,387.279,393.124,397.934,402.955,406.2418,408.719,413.178,418.661,424.506,430.642,436.697,441.156,444.43,447.352,452.835,458.68,461.17,464.675,470.831,476.676,481.4568,483.966" svgx:width="0.48,0.44,0.33,0.29,0.56,0.48,0.55,0.5,0.4,0.48,0.5,0.55,0.33,0.55,0.4,0.55,0.58,0.48,0.5,0.33,0.55,0.44,0.55,0.58,0.61,0.6,0.44,0.33,0.29,0.55,0.58,0.25,0.55,0.61,0.58,0.48,0.55,0.48" style="fill:rgb(0,0,0);font-family:URWPalladioL-Roma;font-size:9.96px;stroke:none;">ective area for heat conduction. The e</text>
   <text y="259.961" x="488.78" svgx:width="0.61" style="fill:rgb(0,0,0);font-family:Rpxr;font-size:9.96px;stroke:none;">ﬀ</text>
   <text y="259.961" x="494.885,499.695,504.154,507.4408,509.908,515.391" svgx:width="0.48,0.44,0.33,0.55,0.55,0.33" style="fill:rgb(0,0,0);font-family:URWPalladioL-Roma;font-size:9.96px;stroke:none;">ect of</text>
   <text y="273.471" x="76.535,79.841,85.744,90.602,94.608,103.563,108.634,111.5224,114.08,118.583,124.121,130.024,136.22,142.336,146.839,150.145,153.096,158.634,164.4108,167.021,169.973,174.1562,176.768,180.074,185.977,190.7578,193.319,198.177,202.477,206.778,211.636,217.538,220.844,223.796,228.867,231.75539999999998,234.313,240.51,244.516,247.467,253.197,258.055,262.039,264.546,270.084,273.37080000000003,275.956,281.858,286.716,291.787,295.0738,297.588,300.895,304.901,309.972,315.874,320.174,323.542,328.4,332.38399999999996,334.901,339.404,342.355,347.892,352.193,356.9738,359.545,362.852,368.33,370.874,374.18,380.083,384.8638,387.436,391.736,397.851,403.46,407.76,411.066,415.072,420.143,423.45,428.308,430.798,434.332,440.549,446.452,449.403,453.5862,456.188,461.725,467.334,471.634,476.492,480.498,486.228,491.299,494.605,497.557,503.094,508.8708,511.492,514.443" svgx:width="0.33,0.58,0.48,0.4,0.88,0.5,0.29,0.55,0.44,0.55,0.58,0.61,0.6,0.44,0.33,0.29,0.55,0.58,0.55,0.29,0.42,0.55,0.33,0.58,0.48,0.55,0.48,0.42,0.42,0.48,0.58,0.33,0.29,0.5,0.29,0.55,0.61,0.4,0.29,0.56,0.48,0.4,0.55,0.55,0.33,0.55,0.58,0.48,0.5,0.33,0.55,0.33,0.4,0.5,0.58,0.42,0.33,0.48,0.4,0.55,0.44,0.29,0.55,0.42,0.48,0.55,0.33,0.55,0.55,0.33,0.58,0.48,0.55,0.42,0.6,0.55,0.42,0.33,0.4,0.5,0.33,0.48,0.25,0.55,0.61,0.58,0.29,0.42,0.55,0.55,0.55,0.42,0.48,0.4,0.56,0.5,0.33,0.29,0.55,0.58,0.55,0.29,0.42" style="fill:rgb(0,0,0);font-family:URWPalladioL-Roma;font-size:9.96px;stroke:none;">thermal conduction is the essential driver of heat transfer close to the substrate. This observation is</text>
   <text y="286.98" x="76.535,80.958,86.398,92.196,96.42,99.319,103.544,106.791,111.564,117.362,120.6488,123.1,131.409,134.308,137.556,143.33280000000002,145.845,149.093,154.891,159.6718,162.154,165.909,170.682,174.906,179.678,184.659,188.415,192.838,198.6148,201.127,206.567,209.8538,212.375,219.439,225.446,231.244,237.042,239.942,245.74,251.279,257.077,262.059,273.346,278.118,281.4048,283.857,288.838,291.737,294.22700000000003,296.718" svgx:width="0.44,0.55,0.58,0.42,0.29,0.42,0.33,0.48,0.58,0.33,0.55,0.83,0.29,0.33,0.58,0.55,0.33,0.58,0.48,0.55,0.4,0.48,0.42,0.48,0.5,0.4,0.44,0.58,0.55,0.55,0.33,0.55,0.71,0.6,0.58,0.58,0.29,0.58,0.56,0.58,0.5,0.88,0.48,0.33,0.55,0.5,0.29,0.25,0.55,0.33" style="fill:rgb(0,0,0);font-family:URWPalladioL-Roma;font-size:9.96px;stroke:none;">consistent with the research of Cunninghamet al. [</text>
   <text y="286.98" x="300.036" svgx:width="0.5" style="fill:rgb(8,117,183);font-family:URWPalladioL-Roma;font-size:9.96px;stroke:none;">7</text>
   <text y="286.98" x="305.017,308.335" svgx:width="0.33,0.25" style="fill:rgb(0,0,0);font-family:URWPalladioL-Roma;font-size:9.96px;stroke:none;">].</text>
   <text y="300.489" x="97.795,103.223,106.904,112.235,123.004,126.177,131.859,136.6398,138.684,143.566,148.447,151.63,157.4068,159.46,162.301,167.183,172.611,177.288,181.27200000000002,183.293,188.623,194.306,196.79600000000002,198.963,202.146,207.828,212.6088,214.652,218.324,223.0,227.14,233.027,235.868,239.051,241.892,247.575,253.15259999999998,255.151" svgx:width="0.56,0.4,0.55,0.88,0.33,0.58,0.48,0.55,0.5,0.5,0.33,0.58,0.55,0.29,0.5,0.56,0.48,0.4,0.55,0.55,0.58,0.25,0.55,0.33,0.58,0.48,0.55,0.4,0.48,0.42,0.6,0.29,0.33,0.29,0.58,0.56,0.55,0.33" style="fill:rgb(0,0,0);font-family:URWPalladioL-Roma;font-size:9.96px;stroke:none;">Fromthe 12th layer on, the resulting t</text>
   <text y="302.354" x="258.336" svgx:width="0.5" style="fill:rgb(0,0,0);font-family:URWPalladioL-Roma;font-size:7.57px;stroke:none;">8</text>
   <text y="302.354" x="262.122" svgx:width="0.29" style="fill:rgb(0,0,0);font-family:Rpxr;font-size:7.57px;stroke:none;">/</text>
   <text y="302.354" x="264.295" svgx:width="0.5" style="fill:rgb(0,0,0);font-family:URWPalladioL-Roma;font-size:7.57px;stroke:none;">5</text>
   <text y="300.489" x="268.579,271.83,275.013,277.854,286.475,291.152,295.3352,297.439,302.321,308.287,310.571,316.458,320.598,323.781,328.458,334.53360000000004,336.571,339.754,345.232,347.233,352.114,357.89079999999996,359.935,362.776,368.458,372.793,376.474,381.15,386.032,390.172,393.013,398.695,404.124,406.965,412.5426,414.541,418.681,421.864,426.745,429.928,432.769,438.1,443.782,448.664,452.521,458.09860000000003,460.097,464.237,467.419,472.301,475.484,480.2648,482.309,487.698,492.375,495.557,503.7,508.377,513.053" svgx:width="0.33,0.33,0.29,0.88,0.48,0.42,0.55,0.5,0.61,0.23,0.6,0.42,0.33,0.48,0.61,0.55,0.33,0.55,0.55,0.5,0.58,0.55,0.29,0.58,0.44,0.4,0.48,0.5,0.42,0.29,0.58,0.56,0.29,0.56,0.55,0.42,0.33,0.5,0.33,0.29,0.55,0.58,0.5,0.4,0.56,0.55,0.42,0.33,0.5,0.33,0.48,0.55,0.55,0.48,0.33,0.83,0.48,0.48,0.58" style="fill:rgb(0,0,0);font-family:URWPalladioL-Roma;font-size:9.96px;stroke:none;">-times adjusted to an increasingly stationary state between</text>
   <text y="313.999" x="76.037,80.993,85.973,88.438,93.394,99.164,105.2396,107.718,112.675,117.655,120.119,124.322,126.812,130.29,136.366,142.135,145.02,149.2032,151.721,156.122,161.079,166.85580000000002,169.336,174.818,179.5988,182.054,186.802,191.917,197.875,200.76,205.716,208.601,214.37,219.118,225.1936,227.673,233.155,238.7326,241.154,244.386,250.155,254.9358,257.391,260.276,265.688,273.9548,276.454,281.41,290.163,295.575,301.553,307.322,310.60880000000003,313.042,318.454,321.74080000000004,324.243,327.128,332.897,336.129,339.866,345.278,351.335,357.312,361.714,366.462,372.5376,375.017,378.248,384.017,388.766,392.681,401.434,406.391,409.2794,411.763,416.511,422.281,427.029,430.766,436.278,441.85560000000004,444.277,449.234,455.003,461.0786,463.558,466.789,472.558,477.3388,479.795,483.532,488.28,492.483,498.461,501.345,504.577,507.461,513.231" svgx:width="0.5,0.5,0.55,0.5,0.58,0.61,0.55,0.5,0.5,0.55,0.42,0.25,0.55,0.61,0.58,0.29,0.42,0.55,0.44,0.5,0.58,0.55,0.55,0.48,0.55,0.48,0.52,0.6,0.29,0.5,0.29,0.58,0.48,0.61,0.55,0.55,0.56,0.55,0.33,0.58,0.48,0.55,0.29,0.55,0.83,0.55,0.5,0.88,0.55,0.6,0.58,0.33,0.55,0.55,0.33,0.55,0.29,0.58,0.33,0.4,0.55,0.61,0.6,0.44,0.48,0.61,0.55,0.33,0.58,0.48,0.4,0.88,0.5,0.29,0.55,0.48,0.58,0.48,0.4,0.56,0.56,0.55,0.5,0.58,0.61,0.55,0.33,0.58,0.48,0.55,0.4,0.48,0.42,0.6,0.29,0.33,0.29,0.58,0.56" style="fill:rgb(0,0,0);font-family:URWPalladioL-Roma;font-size:9.96px;stroke:none;">15 and 20 s. This can be explained by the low amount of introduced thermal energy and the resulting</text>
   <text y="327.508" x="76.535,79.454,84.932,93.299,98.105,102.089,104.555,107.826,112.631,121.49,127.519,132.325,136.288,141.304,144.574,150.624,154.406,159.1868,161.689,167.267,171.23,176.246,182.376,185.296,190.101,195.94,199.21,203.3932,205.952,211.5,216.306,219.576,227.943,232.749,237.554,243.3308,245.871,249.141,254.98,259.7608,262.274,266.527,269.798,273.68,279.73,284.184,287.455,293.504,297.287,302.0678,304.58,309.596,315.435,321.5106,324.043,327.313,333.152,337.9328,340.446,344.699,350.749,356.297,360.55,363.821,367.784,372.8,376.07,380.876,383.366,386.865,394.67,398.8532,401.412,406.392,408.916,412.698,417.504,421.758,427.807,430.727,433.997,436.487,438.983,443.237,446.507,451.524,454.794,457.714,463.191,469.03,474.046,478.009,483.58660000000003,486.075,490.529,496.007,501.485,504.404,507.323,513.162" svgx:width="0.29,0.55,0.83,0.48,0.4,0.55,0.33,0.48,0.88,0.6,0.48,0.4,0.5,0.33,0.6,0.4,0.48,0.55,0.56,0.4,0.5,0.61,0.29,0.48,0.58,0.33,0.42,0.55,0.55,0.48,0.33,0.83,0.48,0.48,0.58,0.55,0.33,0.58,0.48,0.55,0.42,0.33,0.4,0.6,0.44,0.33,0.6,0.4,0.48,0.55,0.5,0.58,0.61,0.55,0.33,0.58,0.48,0.55,0.42,0.6,0.55,0.42,0.33,0.4,0.5,0.33,0.48,0.25,0.55,0.78,0.42,0.55,0.5,0.55,0.4,0.48,0.42,0.6,0.29,0.33,0.25,0.55,0.42,0.33,0.5,0.33,0.29,0.55,0.58,0.5,0.4,0.56,0.55,0.44,0.55,0.55,0.29,0.29,0.58,0.56" style="fill:rgb(0,0,0);font-family:URWPalladioL-Roma;font-size:9.96px;stroke:none;">lower temperature gradients between the structure and the substrate. As a result, stationary cooling</text>
   <text y="341.018" x="76.535,80.883,86.23,91.93,97.914,100.763,103.956,106.806,112.153,117.853,122.0362,124.483,129.83,133.1168,135.578,138.771,144.471,149.2518,151.639,155.792,160.483,163.7698,166.153,169.003,173.899,179.344,184.035,187.904,192.0872,194.534,198.882,203.779,209.5558,211.966,217.381,222.1618,224.55,229.897,235.313,239.465,244.156,248.024,253.558,258.249,264.232,266.72200000000004,270.167,278.315,283.006,286.688,291.379,294.229,299.929,302.419,304.864,309.844,312.239,318.222" svgx:width="0.44,0.55,0.58,0.61,0.29,0.33,0.29,0.55,0.58,0.42,0.55,0.55,0.33,0.55,0.33,0.58,0.48,0.55,0.42,0.48,0.33,0.55,0.29,0.5,0.56,0.48,0.4,0.42,0.55,0.44,0.5,0.58,0.55,0.55,0.48,0.55,0.55,0.55,0.42,0.48,0.4,0.56,0.48,0.61,0.25,0.55,0.83,0.48,0.4,0.48,0.29,0.58,0.25,0.55,0.5,0.55,0.61,0.29" style="fill:rgb(0,0,0);font-family:URWPalladioL-Roma;font-size:9.96px;stroke:none;">conditions of the set layers can be observed. Herein, a di</text>
   <text y="341.018" x="321.072" svgx:width="0.61" style="fill:rgb(0,0,0);font-family:Rpxr;font-size:9.96px;stroke:none;">ﬀ</text>
   <text y="341.018" x="327.027,331.718,335.41,340.101,345.801,350.149,354.9298,357.317,360.167,365.94379999999995,368.345,371.537,377.237,382.0178,384.406" svgx:width="0.48,0.4,0.48,0.58,0.44,0.48,0.55,0.29,0.58,0.55,0.33,0.58,0.48,0.55,0.33" style="fill:rgb(0,0,0);font-family:URWPalladioL-Roma;font-size:9.96px;stroke:none;">erence in the t</text>
   <text y="342.882" x="387.603" svgx:width="0.5" style="fill:rgb(0,0,0);font-family:URWPalladioL-Roma;font-size:7.57px;stroke:none;">8</text>
   <text y="342.882" x="391.388" svgx:width="0.29" style="fill:rgb(0,0,0);font-family:Rpxr;font-size:7.57px;stroke:none;">/</text>
   <text y="342.882" x="393.561" svgx:width="0.5" style="fill:rgb(0,0,0);font-family:URWPalladioL-Roma;font-size:7.57px;stroke:none;">5</text>
   <text y="341.018" x="397.845,401.106,404.299,407.149,415.796,420.5768,422.965,428.312,431.59880000000004,434.06,438.957,444.843,450.728,454.411,459.758,464.811,467.661,476.308,481.205,484.398,489.089,491.938,497.5156,499.861,504.758,507.206,512.186,514.59" svgx:width="0.33,0.33,0.29,0.88,0.48,0.55,0.55,0.33,0.55,0.5,0.6,0.6,0.4,0.55,0.52,0.29,0.88,0.5,0.33,0.48,0.29,0.56,0.55,0.5,0.25,0.5,0.55,0.42" style="fill:rgb(0,0,0);font-family:URWPalladioL-Roma;font-size:9.96px;stroke:none;">-time of approximately 2.5 s</text>
   <text y="354.527" x="76.535,80.34,85.174,89.453,95.538,98.475,101.765,105.9482,108.527,111.888,117.398,121.38199999999999,123.867,127.157,133.031,137.8118,140.347,146.514" svgx:width="0.4,0.48,0.42,0.6,0.29,0.33,0.42,0.55,0.33,0.55,0.4,0.55,0.33,0.58,0.48,0.55,0.61,0.29" style="fill:rgb(0,0,0);font-family:URWPalladioL-Roma;font-size:9.96px;stroke:none;">results for the di</text>
   <text y="354.527" x="149.448" svgx:width="0.61" style="fill:rgb(0,0,0);font-family:Rpxr;font-size:9.96px;stroke:none;">ﬀ</text>
   <text y="354.527" x="155.584,160.418,164.223,169.057,174.931,178.2178,180.703,187.859,194.045,204.137,211.8062,214.431,219.477,225.643,228.005,234.091,238.37,241.66,250.571,255.405,261.279,264.569,268.848,271.338,274.853,282.6218,285.187,289.668,295.178,299.164,302.969,307.803,310.74,315.786,319.076,322.013,327.523,333.2998,335.88,341.461,346.295,349.585,358.001,362.836,367.67,373.4468,376.026,379.316,385.19,389.9708,392.506,397.341,403.214,408.048,411.853,417.464,423.0416,425.558,428.495,434.369,440.434,446.519,449.80580000000003,452.292,458.358,463.192,467.176,469.651,475.736,481.61,484.547,487.83380000000005,490.319,493.256,498.09,503.964,509.575,512.865" svgx:width="0.48,0.4,0.48,0.58,0.33,0.55,0.71,0.61,1.0,0.77,0.55,0.5,0.61,0.23,0.6,0.42,0.33,0.88,0.48,0.58,0.33,0.42,0.25,0.55,0.78,0.55,0.44,0.55,0.4,0.4,0.48,0.29,0.5,0.33,0.29,0.55,0.58,0.55,0.55,0.48,0.33,0.83,0.48,0.48,0.58,0.55,0.33,0.58,0.48,0.55,0.48,0.58,0.48,0.4,0.56,0.56,0.55,0.29,0.58,0.6,0.6,0.33,0.55,0.6,0.48,0.4,0.55,0.6,0.58,0.29,0.33,0.55,0.29,0.48,0.58,0.56,0.33,0.58" style="fill:rgb(0,0,0);font-family:URWPalladioL-Roma;font-size:9.96px;stroke:none;">erent CTWD adjustments. A correlation between the energy input per unit length</text>
   <text y="368.036" x="76.207,79.591,84.103,89.651,98.624,104.731,109.812,113.643,118.4238,121.681,127.331,130.288,135.938,142.066,145.907" svgx:width="0.33,0.44,0.55,0.88,0.6,0.5,0.4,0.48,0.55,0.56,0.29,0.56,0.6,0.4,0.48" style="fill:rgb(0,0,0);font-family:URWPalladioL-Roma;font-size:9.96px;stroke:none;">(compare Figure</text>
   <text y="368.036" x="153.945" svgx:width="0.5" style="fill:rgb(8,117,183);font-family:URWPalladioL-Roma;font-size:9.96px;stroke:none;">5</text>
   <text y="368.036" x="159.026,162.3128,165.58,170.661,176.576,182.6516,185.955,189.268,195.182,199.9628,203.22,207.051,211.919,216.227,222.355,225.312,228.625,231.582,237.496,243.0736,246.316,250.828,256.377,261.925,264.882,267.839,273.753,279.3306,282.574,286.588,291.669,294.982,299.849,304.0322,307.328,310.712,315.224,320.772,329.745,335.853,340.933,344.775,349.5558,352.813,358.463,361.42,367.07,373.197,377.028" svgx:width="0.33,0.55,0.5,0.58,0.61,0.55,0.33,0.58,0.48,0.55,0.4,0.48,0.42,0.6,0.29,0.33,0.29,0.58,0.56,0.55,0.44,0.55,0.55,0.29,0.29,0.58,0.56,0.55,0.4,0.5,0.33,0.48,0.42,0.55,0.33,0.44,0.55,0.88,0.6,0.5,0.4,0.48,0.55,0.56,0.29,0.56,0.6,0.4,0.48" style="fill:rgb(0,0,0);font-family:URWPalladioL-Roma;font-size:9.96px;stroke:none;">) and the resulting cooling rates (compare Figure</text>
   <text y="368.036" x="385.066,390.147" svgx:width="0.5,0.5" style="fill:rgb(8,117,183);font-family:URWPalladioL-Roma;font-size:9.96px;stroke:none;">13</text>
   <text y="368.036" x="395.228,398.51480000000004,401.783,406.294,411.375,417.1518,420.46,426.08,430.8608,434.118,438.426,444.34,449.889,458.364,464.14079999999996,467.448,470.761,476.675,480.517,486.055,492.182,497.832,503.747,509.295,515.423" svgx:width="0.33,0.55,0.44,0.5,0.58,0.55,0.55,0.48,0.55,0.42,0.58,0.55,0.83,0.58,0.55,0.33,0.58,0.4,0.55,0.6,0.56,0.58,0.55,0.6,0.33" style="fill:rgb(0,0,0);font-family:URWPalladioL-Roma;font-size:9.96px;stroke:none;">) can be shown throughout</text>
   <text y="381.546" x="76.535,82.646,87.438,91.879,95.65,100.441,105.442,109.683,112.594,118.415,123.99260000000001,126.467" svgx:width="0.61,0.48,0.44,0.4,0.48,0.5,0.42,0.29,0.58,0.56,0.55,0.33" style="fill:rgb(0,0,0);font-family:URWPalladioL-Roma;font-size:9.96px;stroke:none;">decreasing t</text>
   <text y="383.411" x="129.725" svgx:width="0.5" style="fill:rgb(0,0,0);font-family:URWPalladioL-Roma;font-size:7.57px;stroke:none;">8</text>
   <text y="383.411" x="133.511" svgx:width="0.29" style="fill:rgb(0,0,0);font-family:Rpxr;font-size:7.57px;stroke:none;">/</text>
   <text y="383.411" x="135.684" svgx:width="0.5" style="fill:rgb(0,0,0);font-family:URWPalladioL-Roma;font-size:7.57px;stroke:none;">5</text>
   <text y="381.546" x="139.968,143.299,146.56,149.47,158.302,163.094,167.2772,169.825,174.827,178.1138,180.568,184.339,189.13,195.242,201.273,205.714,210.505,216.5806,219.107,223.899,229.72,234.511,238.282,243.843,249.42059999999998,251.885,254.796,260.618,266.629,272.66,275.921,278.411,281.913,289.695,294.136,298.577,304.038,307.809,313.921,316.831,322.653,328.23060000000004,330.705,333.965,339.443,341.907,345.168,350.99,355.7708,358.271,365.363,372.455,378.036,381.367,387.479,390.389,395.39,400.952,404.903,409.904,421.227" svgx:width="0.33,0.33,0.29,0.88,0.48,0.42,0.55,0.5,0.33,0.55,0.4,0.48,0.61,0.6,0.44,0.48,0.61,0.55,0.48,0.58,0.48,0.4,0.56,0.56,0.55,0.29,0.58,0.6,0.6,0.33,0.25,0.55,0.78,0.44,0.44,0.55,0.4,0.61,0.29,0.58,0.56,0.55,0.33,0.55,0.55,0.33,0.58,0.48,0.55,0.71,0.71,0.61,0.33,0.61,0.29,0.5,0.56,0.4,0.5,0.88,0.33" style="fill:rgb(0,0,0);font-family:URWPalladioL-Roma;font-size:9.96px;stroke:none;">-times at reduced energy input. According to the CCT-diagram[</text>
   <text y="381.546" x="424.554,429.535" svgx:width="0.5,0.5" style="fill:rgb(8,117,183);font-family:URWPalladioL-Roma;font-size:9.96px;stroke:none;">37</text>
   <text y="381.546" x="434.516,437.847,440.337,442.838,447.81800000000004,450.32,459.152,462.063,466.504,470.275,475.736,479.977,483.238,487.109,493.14,497.581,500.842,506.874,510.825,515.826" svgx:width="0.33,0.25,0.55,0.5,0.55,0.88,0.29,0.44,0.4,0.55,0.42,0.33,0.4,0.6,0.44,0.33,0.6,0.4,0.5,0.29" style="fill:rgb(0,0,0);font-family:URWPalladioL-Roma;font-size:9.96px;stroke:none;">], a microstructural</text>
   <text y="395.055" x="76.535,81.029,86.556,95.494,101.577,107.103,111.395,114.341,117.64,120.586,126.113,131.8898,134.504,140.03,143.3168,145.901,150.962,156.023,164.3894,167.016,172.613,177.674,180.62,186.511,189.456,192.756,197.5368,200.104,205.165,211.056,217.13160000000002,219.741,224.802,229.863,238.2294,240.866,244.236,249.085,253.083,257.081,260.017,263.316,268.0968,270.665,276.191,280.686,285.18,291.283,295.282,299.108,303.956,310.0316,312.631,316.001,321.528,325.512,328.026" svgx:width="0.44,0.55,0.88,0.6,0.55,0.42,0.29,0.33,0.29,0.55,0.58,0.55,0.55,0.33,0.55,0.5,0.5,0.84,0.55,0.55,0.5,0.29,0.58,0.29,0.33,0.48,0.55,0.5,0.58,0.61,0.55,0.5,0.5,0.84,0.55,0.33,0.48,0.4,0.4,0.29,0.33,0.48,0.55,0.55,0.44,0.44,0.6,0.4,0.4,0.48,0.61,0.55,0.33,0.55,0.4,0.55,0.33" style="fill:rgb(0,0,0);font-family:URWPalladioL-Roma;font-size:9.96px;stroke:none;">composition of 63% bainite and 37% ferrite occurred for t</text>
   <text y="396.92" x="331.326" svgx:width="0.5" style="fill:rgb(0,0,0);font-family:URWPalladioL-Roma;font-size:7.57px;stroke:none;">8</text>
   <text y="396.92" x="335.112" svgx:width="0.29" style="fill:rgb(0,0,0);font-family:Rpxr;font-size:7.57px;stroke:none;">/</text>
   <text y="396.92" x="337.285" svgx:width="0.5" style="fill:rgb(0,0,0);font-family:URWPalladioL-Roma;font-size:7.57px;stroke:none;">5</text>
   <text y="395.055" x="341.569,344.94,348.239,351.185,360.123,364.971,369.1542,371.763,377.36,382.209,385.509,393.95,398.799,403.647,409.42379999999997,412.028,417.089,422.069,424.65,427.95,433.428,435.977,441.038,446.01800000000003,448.599,452.7822,455.391,463.833,466.778,470.078,475.85479999999995,478.459,484.35,489.411,493.237,499.422,505.313,510.161,514.453" svgx:width="0.33,0.33,0.29,0.88,0.48,0.42,0.55,0.55,0.48,0.33,0.83,0.48,0.48,0.58,0.55,0.5,0.5,0.55,0.33,0.55,0.55,0.5,0.5,0.55,0.42,0.55,0.83,0.29,0.33,0.58,0.55,0.58,0.5,0.4,0.61,0.58,0.48,0.42,0.42" style="fill:rgb(0,0,0);font-family:URWPalladioL-Roma;font-size:9.96px;stroke:none;">-times between 15 to 20 s with hardness</text>
   <text y="408.565" x="76.256,81.885,86.866,89.765,95.773,100.545,104.7282,107.26,112.769,117.541,120.44,125.88,134.14679999999998,136.679,141.66,146.642,151.62199999999999,154.114,162.403,168.31" svgx:width="0.56,0.5,0.29,0.6,0.48,0.42,0.55,0.55,0.48,0.29,0.55,0.83,0.55,0.5,0.5,0.5,0.55,0.83,0.72,0.25" style="fill:rgb(0,0,0);font-family:URWPalladioL-Roma;font-size:9.96px;stroke:none;">values below 191 HV.</text>
   <text y="422.074" x="97.795,102.908,107.825,113.262,116.124" svgx:width="0.61,0.5,0.55,0.29,0.48" style="fill:rgb(0,0,0);font-family:URWPalladioL-Roma;font-size:9.96px;stroke:none;">Table</text>
   <text y="422.074" x="123.312" svgx:width="0.5" style="fill:rgb(8,117,183);font-family:URWPalladioL-Roma;font-size:9.96px;stroke:none;">3</text>
   <text y="422.074" x="130.716,134.885,140.608,145.977,154.178,158.3612,160.825,164.031,169.754,174.5348,176.951,181.661,185.831,189.036,191.898,200.58,205.497,208.702,213.412,219.48760000000001,221.898,227.808,233.531,238.447,242.617,247.3978,249.815,253.089,258.458,262.342,271.025,275.941,279.147,282.008,287.377,293.1538,295.578,300.494,306.217,312.2926,314.713,320.436,325.352,329.05,335.058,340.78,345.491,349.66,353.8432,356.317,361.872,366.789,369.65,375.58,380.29,384.4732,386.937,390.211,395.58,399.56399999999996,401.952,405.158,410.88,415.6608,418.068,422.985,427.154,430.36,432.85,435.306,440.222,445.139,448.345,454.1218,456.545,461.462,467.185,473.2606,475.681,480.597,485.514,488.719,494.4958,496.92,499.781,504.698,510.165,514.875,518.022" svgx:width="0.42,0.58,0.55,0.83,0.42,0.55,0.33,0.58,0.48,0.55,0.48,0.42,0.33,0.29,0.88,0.5,0.33,0.48,0.61,0.55,0.6,0.58,0.5,0.42,0.48,0.55,0.33,0.55,0.4,0.88,0.5,0.33,0.29,0.55,0.58,0.55,0.5,0.58,0.61,0.55,0.58,0.5,0.4,0.61,0.58,0.48,0.42,0.42,0.55,0.56,0.5,0.29,0.6,0.48,0.42,0.55,0.33,0.55,0.4,0.55,0.33,0.58,0.48,0.55,0.5,0.42,0.33,0.25,0.55,0.5,0.5,0.33,0.58,0.55,0.5,0.58,0.61,0.55,0.5,0.5,0.33,0.58,0.55,0.29,0.5,0.56,0.48,0.4,0.25" style="fill:rgb(0,0,0);font-family:URWPalladioL-Roma;font-size:9.96px;stroke:none;">shows the estimated phase formation and hardness values for the 1st, 35th and 70th layer.</text>
   <text y="435.583" x="76.535,79.886,83.1728,85.623,89.838,95.625,101.054,107.049,109.942,116.01759999999999,118.513,124.011,128.7918,131.269,137.056,142.485,145.726,150.489,156.5646,159.059,162.301,168.087,173.058,176.3448,178.795,183.77499999999998,186.272,193.322,200.371,205.909,209.22,215.295,218.188,223.16,228.688,232.615,237.586,248.871" svgx:width="0.34,0.33,0.55,0.42,0.58,0.55,0.6,0.29,0.61,0.55,0.55,0.48,0.55,0.58,0.55,0.33,0.48,0.61,0.55,0.33,0.58,0.5,0.33,0.55,0.5,0.55,0.71,0.71,0.61,0.33,0.61,0.29,0.5,0.56,0.4,0.5,0.88,0.33" style="fill:rgb(0,0,0);font-family:URWPalladioL-Roma;font-size:9.96px;stroke:none;">It should be noted that a CCT-diagram[</text>
   <text y="435.583" x="252.178,257.159" svgx:width="0.5,0.5" style="fill:rgb(8,117,183);font-family:URWPalladioL-Roma;font-size:9.96px;stroke:none;">37</text>
   <text y="435.583" x="262.141,265.452,267.942,270.433,278.725,284.512,287.405,291.82,297.5968,300.102,302.995,307.1782,309.707,315.782,320.544,324.76,327.653,333.181,338.968,343.731,349.8066,352.301,355.612,361.041,365.025,367.474,372.454,374.941,379.355,385.142,389.904,398.684,401.577,405.992,410.963,413.856,416.75,422.3276,424.773,429.188,434.617,443.396,449.372,454.343,458.27,463.242,468.74,471.633,476.4138,478.891,483.107,486.348,491.111,495.873,498.7614,501.262,509.555,514.526" svgx:width="0.33,0.25,0.55,0.83,0.58,0.29,0.44,0.58,0.55,0.29,0.42,0.55,0.61,0.48,0.42,0.29,0.56,0.58,0.48,0.61,0.55,0.33,0.55,0.4,0.55,0.5,0.55,0.44,0.58,0.48,0.88,0.29,0.44,0.5,0.29,0.29,0.56,0.55,0.44,0.55,0.88,0.6,0.5,0.4,0.5,0.55,0.29,0.48,0.55,0.42,0.33,0.48,0.48,0.29,0.55,0.83,0.5,0.42" style="fill:rgb(0,0,0);font-family:URWPalladioL-Roma;font-size:9.96px;stroke:none;">], which is designed for a chemically comparable steel was</text>
   <text y="449.093" x="76.535,82.663,86.971,91.839,98.048,100.538,104.114,111.98,118.107,122.8878,125.474,128.787,134.26500000000001,136.835,140.148,146.062,149.019,153.328,155.818,158.379,162.687,165.634,168.591,174.241,180.155,183.4418,185.978,192.187,197.055,202.796,205.753,210.834,214.147,217.104,222.652,228.566,232.7492,235.375,240.923,244.2098,246.807,250.12,256.034,260.8148,263.401,266.714,272.628,277.496,283.044,286.885,291.753,295.066,298.023,302.535,307.615,310.5034,313.072,318.814,323.895,326.852,332.979,337.847,342.0302,344.655,347.968,353.446,356.016,359.329,365.243,370.0238,372.621,377.488,382.722,388.829,393.697,397.71,400.668,409.64,414.508,420.422,423.735,428.816,431.773,434.73,440.30760000000004,442.89,451.863,456.73,461.811,466.12,472.248,476.079,480.946,487.02160000000003,489.655,495.396,500.477,503.434,509.562,514.429" svgx:width="0.6,0.42,0.48,0.61,0.25,0.55,0.77,0.6,0.48,0.55,0.33,0.55,0.55,0.33,0.58,0.29,0.42,0.25,0.55,0.42,0.29,0.29,0.56,0.58,0.33,0.55,0.61,0.48,0.56,0.29,0.5,0.33,0.29,0.55,0.58,0.42,0.55,0.55,0.33,0.55,0.33,0.58,0.48,0.55,0.33,0.58,0.48,0.55,0.4,0.48,0.33,0.29,0.44,0.5,0.29,0.55,0.56,0.5,0.29,0.6,0.48,0.42,0.55,0.33,0.55,0.55,0.33,0.58,0.48,0.55,0.48,0.52,0.6,0.48,0.4,0.29,0.88,0.48,0.58,0.33,0.5,0.29,0.29,0.56,0.55,0.88,0.48,0.5,0.42,0.6,0.4,0.48,0.61,0.55,0.56,0.5,0.29,0.6,0.48,0.42" style="fill:rgb(0,0,0);font-family:URWPalladioL-Roma;font-size:9.96px;stroke:none;">used. Due to this, slight deviations of the theoretical values to the experimentally measured values</text>
   <text y="462.602" x="76.535,82.333,87.315,92.943,97.7238,100.206,103.454,108.93199999999999,111.384,116.893,121.6738,124.156,127.404,132.385,137.925,142.697,148.4738,150.985,153.885,159.683,162.931,168.40900000000002,170.861,175.842,180.266,184.689,190.129,196.136,201.934,205.182" svgx:width="0.58,0.5,0.56,0.48,0.55,0.33,0.55,0.55,0.55,0.48,0.55,0.33,0.5,0.56,0.48,0.58,0.55,0.29,0.58,0.33,0.55,0.55,0.5,0.44,0.44,0.55,0.6,0.58,0.33,0.25" style="fill:rgb(0,0,0);font-family:URWPalladioL-Roma;font-size:9.96px;stroke:none;">have to be taken into account.</text>
   <text y="484.743" x="97.499,102.484,106.968,112.446,115.432,119.917,122.175,126.658" svgx:width="0.67,0.5,0.61,0.33,0.5,0.55,0.5,0.25" style="fill:rgb(0,0,0);font-family:URWPalladioL-Bold;font-size:8.97px;stroke:none;">Table 3.</text>
   <text y="484.743" x="132.09,137.678,141.556,144.537,147.199,155.274,159.847,162.829,165.49,170.484,175.6866,178.066,183.059,186.0191,188.364,193.86,199.183,203.756,207.634,211.93959999999998,214.273,218.334,223.328,231.403,236.9,241.894,245.771,248.433,251.414,254.076,259.069,264.27160000000003,266.651,271.224,276.547,282.0187,284.394,289.717,294.289,297.737,303.325,308.648,313.029,316.907,320.6744,323.044,328.632,333.012,338.509,342.89,348.213,353.801,356.462,361.785,366.8082,369.129,374.123,379.3256,381.704,384.686,390.009,394.31460000000004,396.648" svgx:width="0.61,0.42,0.33,0.29,0.88,0.5,0.33,0.29,0.55,0.58,0.55,0.55,0.33,0.55,0.6,0.58,0.5,0.42,0.48,0.55,0.44,0.55,0.88,0.6,0.55,0.42,0.29,0.33,0.29,0.55,0.58,0.55,0.5,0.58,0.61,0.55,0.58,0.5,0.4,0.61,0.58,0.48,0.42,0.42,0.55,0.61,0.48,0.6,0.48,0.58,0.61,0.29,0.58,0.56,0.55,0.55,0.58,0.55,0.33,0.58,0.48,0.55,0.33" style="fill:rgb(0,0,0);font-family:URWPalladioL-Roma;font-size:8.97px;stroke:none;">Estimation of phase composition and hardness depending on the t</text>
   <text y="486.535" x="399.63" svgx:width="0.5" style="fill:rgb(0,0,0);font-family:URWPalladioL-Roma;font-size:6.97px;stroke:none;">8</text>
   <text y="486.535" x="403.117" svgx:width="0.29" style="fill:rgb(0,0,0);font-family:Rpxr;font-size:6.97px;stroke:none;">/</text>
   <text y="486.535" x="405.118" svgx:width="0.5" style="fill:rgb(0,0,0);font-family:URWPalladioL-Roma;font-size:6.97px;stroke:none;">5</text>
   <text y="484.743" x="409.103,412.149,415.13,417.791,425.867,430.17260000000005,432.507,437.08,441.141,445.201,450.195,453.643,459.231,461.892,467.215,472.23819999999995,474.559,477.54,482.4735,484.793,487.775,493.097" svgx:width="0.33,0.33,0.29,0.88,0.48,0.55,0.5,0.44,0.44,0.55,0.4,0.61,0.29,0.58,0.56,0.55,0.33,0.55,0.55,0.33,0.58,0.48" style="fill:rgb(0,0,0);font-family:URWPalladioL-Roma;font-size:8.97px;stroke:none;">-time according to the</text>
   <text y="497.565" x="97.795,104.152,110.509,115.513,118.498,123.977,126.586,131.069,136.055,139.596,144.08,154.238" svgx:width="0.71,0.71,0.61,0.33,0.61,0.29,0.5,0.56,0.4,0.5,0.88,0.33" style="fill:rgb(0,0,0);font-family:URWPalladioL-Roma;font-size:8.97px;stroke:none;">CCT-diagram[</text>
   <text y="497.565" x="157.224,161.708" svgx:width="0.5,0.5" style="fill:rgb(8,117,183);font-family:URWPalladioL-Roma;font-size:8.97px;stroke:none;">37</text>
   <text y="497.565" x="166.191,169.1511,171.418,174.404,178.385,183.281,191.198,196.587,201.07,204.45,208.7556,210.987,215.972,218.581,223.567,228.973,232.354" svgx:width="0.33,0.55,0.33,0.44,0.55,0.88,0.6,0.5,0.4,0.48,0.55,0.56,0.29,0.56,0.6,0.4,0.48" style="fill:rgb(0,0,0);font-family:URWPalladioL-Roma;font-size:8.97px;stroke:none;">] (compare Figure</text>
   <text y="497.565" x="238.89,243.373" svgx:width="0.5,0.5" style="fill:rgb(8,117,183);font-family:URWPalladioL-Roma;font-size:8.97px;stroke:none;">12</text>
   <text y="497.565" x="247.857,250.842" svgx:width="0.33,0.25" style="fill:rgb(0,0,0);font-family:URWPalladioL-Roma;font-size:8.97px;stroke:none;">).</text>
  </g>
  <path style="fill:none;stroke:rgb(0,0,0);stroke-width:1.0;" d="M94.540 507.790 L500.740 507.790 "/>
  <g begin="text">
   <text y="518.645" x="117.111,123.585,129.565,138.532" svgx:width="0.72,0.67,1.0,0.83" style="fill:rgb(0,0,0);font-family:URWPalladioL-Bold;font-size:8.97px;stroke:none;">CTWD</text>
   <text y="529.603" x="120.451,123.437,131.408,139.379" svgx:width="0.33,0.89,0.89,0.33" style="fill:rgb(0,0,0);font-family:URWPalladioL-Bold;font-size:8.97px;stroke:none;">(mm)</text>
   <text y="518.645" x="183.056,190.525,196.003,203.975,209.453,213.936,217.4343,219.666,224.651" svgx:width="0.83,0.61,0.89,0.61,0.5,0.39,0.55,0.56,0.39" style="fill:rgb(0,0,0);font-family:URWPalladioL-Bold;font-size:8.97px;stroke:none;">Number of</text>
   <text y="529.603" x="194.138,199.616,204.1,209.085,213.568" svgx:width="0.61,0.5,0.56,0.5,0.39" style="fill:rgb(0,0,0);font-family:URWPalladioL-Bold;font-size:8.97px;stroke:none;">Layer</text>
   <text y="518.645" x="268.624" svgx:width="0.33" style="fill:rgb(0,0,0);font-family:URWPalladioL-Bold;font-size:8.97px;stroke:none;">t</text>
   <text y="520.513" x="271.61" svgx:width="0.5" style="fill:rgb(0,0,0);font-family:URWPalladioL-Bold;font-size:6.97px;stroke:none;">8</text>
   <text y="520.513" x="275.097" svgx:width="0.29" style="fill:rgb(0,0,0);font-family:Rpxb;font-size:6.97px;stroke:none;">/</text>
   <text y="520.513" x="277.154" svgx:width="0.5" style="fill:rgb(0,0,0);font-family:URWPalladioL-Bold;font-size:6.97px;stroke:none;">5</text>
   <text y="518.645" x="281.139,284.125,289.612,292.598,300.569" svgx:width="0.33,0.67,0.33,0.89,0.5" style="fill:rgb(0,0,0);font-family:URWPalladioL-Bold;font-size:8.97px;stroke:none;">-Time</text>
   <text y="529.603" x="281.714,284.7,288.681" svgx:width="0.33,0.44,0.33" style="fill:rgb(0,0,0);font-family:URWPalladioL-Bold;font-size:8.97px;stroke:none;">(s)</text>
   <text y="518.645" x="348.232,353.71,359.189,363.672,367.653,372.13800000000003,374.378,379.363,384.349,387.837,395.808,400.291,403.277,406.263,411.248" svgx:width="0.61,0.61,0.5,0.44,0.5,0.55,0.56,0.56,0.39,0.89,0.5,0.33,0.33,0.56,0.61" style="fill:rgb(0,0,0);font-family:URWPalladioL-Bold;font-size:8.97px;stroke:none;">Phase Formation</text>
   <text y="529.603" x="375.36,378.346,386.317" svgx:width="0.33,0.89,0.33" style="fill:rgb(0,0,0);font-family:URWPalladioL-Bold;font-size:8.97px;stroke:none;">(%)</text>
   <text y="518.645" x="447.899,455.368,459.851,463.339,468.818,474.296,478.779,482.76" svgx:width="0.83,0.5,0.39,0.61,0.61,0.5,0.44,0.44" style="fill:rgb(0,0,0);font-family:URWPalladioL-Bold;font-size:8.97px;stroke:none;">Hardness</text>
   <text y="529.603" x="452.481,455.467,462.936,469.912,474.395,478.878" svgx:width="0.33,0.83,0.78,0.5,0.5,0.33" style="fill:rgb(0,0,0);font-family:URWPalladioL-Bold;font-size:8.97px;stroke:none;">(HV30)</text>
  </g>
  <path style="fill:none;stroke:rgb(0,0,0);stroke-width:0.8;" d="M94.540 534.760 L500.740 534.760 "/>
  <g begin="text">
   <text y="556.325" x="113.399,117.882,122.365,124.6075,126.849,131.332,135.815,138.0575,140.298,144.781" svgx:width="0.5,0.5,0.25,0.55,0.5,0.5,0.25,0.55,0.5,0.5" style="fill:rgb(0,0,0);font-family:URWPalladioL-Roma;font-size:8.97px;stroke:none;">12; 28; 44</text>
   <text y="545.364" x="203.356,207.841,273.393,277.876,280.117,284.601,289.084,293.567,295.809,300.29400000000004,343.859,352.342,356.825,360.367,363.29,367.585,372.803,376.605,379.214,382.137,384.746,388.727,391.713,396.672,401.155,403.764,408.982,411.592,414.515,417.124" svgx:width="0.5,0.55,0.5,0.25,0.5,0.5,0.5,0.25,0.5,0.55,0.95,0.5,0.4,0.33,0.48,0.58,0.42,0.29,0.33,0.29,0.44,0.33,0.55,0.5,0.29,0.58,0.29,0.33,0.29,0.44" style="fill:rgb(0,0,0);font-family:URWPalladioL-Roma;font-size:8.97px;stroke:none;">1 1.8–1.9 Martensitic-bainitic</text>
   <text y="545.364" x="457.596" svgx:width="0.67" style="fill:rgb(0,0,0);font-family:Rpxr;font-size:8.97px;stroke:none;">&gt;</text>
   <text y="545.364" x="463.594,468.077,472.56" svgx:width="0.5,0.5,0.5" style="fill:rgb(0,0,0);font-family:URWPalladioL-Roma;font-size:8.97px;stroke:none;">257</text>
   <text y="556.561" x="201.114,205.597,210.08200000000002,268.909,273.392,277.875,280.117,284.6,289.083,293.567,298.05,300.291,304.776,337.036,341.43,345.823,355.216,360.076,364.469,367.026,372.14,374.697,377.562,381.771,384.0135,386.033,390.426,394.82,404.213,407.139,411.348,414.819,418.29,420.847,423.712" svgx:width="0.5,0.5,0.55,0.5,0.5,0.25,0.5,0.5,0.5,0.5,0.25,0.5,0.55,0.5,0.5,0.84,0.55,0.5,0.29,0.58,0.29,0.33,0.48,0.25,0.55,0.5,0.5,0.84,0.33,0.48,0.4,0.4,0.29,0.33,0.48" style="fill:rgb(0,0,0);font-family:URWPalladioL-Roma;font-size:8.97px;stroke:none;">35 15.3–17.5 63%bainite, 37%ferrite</text>
   <text y="556.561" x="457.596" svgx:width="0.67" style="fill:rgb(0,0,0);font-family:Rpxr;font-size:8.97px;stroke:none;">&lt;</text>
   <text y="556.561" x="463.594,468.077,472.56" svgx:width="0.5,0.5,0.5" style="fill:rgb(0,0,0);font-family:URWPalladioL-Roma;font-size:8.97px;stroke:none;">191</text>
   <text y="567.758" x="201.114,205.597,210.08200000000002,268.909,273.392,277.875,280.117,284.6,289.083,293.567,298.05,300.291,304.776,337.036,341.43,345.823,355.216,360.076,364.469,367.026,372.14,374.697,377.562,381.771,384.0135,386.033,390.426,394.82,404.213,407.139,411.348,414.819,418.29,420.847,423.712" svgx:width="0.5,0.5,0.55,0.5,0.5,0.25,0.5,0.5,0.5,0.5,0.25,0.5,0.55,0.5,0.5,0.84,0.55,0.5,0.29,0.58,0.29,0.33,0.48,0.25,0.55,0.5,0.5,0.84,0.33,0.48,0.4,0.4,0.29,0.33,0.48" style="fill:rgb(0,0,0);font-family:URWPalladioL-Roma;font-size:8.97px;stroke:none;">70 15.4–17.7 63%bainite, 37%ferrite</text>
   <text y="567.758" x="457.596" svgx:width="0.67" style="fill:rgb(0,0,0);font-family:Rpxr;font-size:8.97px;stroke:none;">&lt;</text>
   <text y="567.758" x="463.594,468.077,472.56" svgx:width="0.5,0.5,0.5" style="fill:rgb(0,0,0);font-family:URWPalladioL-Roma;font-size:8.97px;stroke:none;">191</text>
  </g>
  <path style="fill:none;stroke:rgb(0,0,0);stroke-width:0.3;" d="M94.540 573.400 L500.740 573.400 "/>
  <g begin="text">
   <text y="599.261" x="97.795,101.122,106.8988,109.356,112.575,118.321,123.1018,125.538,131.284,136.013,141.108,144.3948,146.824,151.01,154.229,158.958,164.891,167.381,169.848,178.566,181.439,185.822,189.544,194.935,199.121,202.34,206.16,212.114,216.497,219.716,225.669,229.569,234.506,237.3944,239.867,244.25,247.972,253.363,257.549,261.7322,264.223,268.409,273.138,277.522,280.741,283.614,289.004,294.75,298.9332,301.424,306.815,310.1018,312.591,315.809,321.555,326.3358,328.782,334.716,338.428,343.157,348.735,351.608,356.999,362.952,367.139,370.012,375.5896,377.999,383.459,389.412,392.285,395.158,398.44480000000004,400.865,409.099,414.035,416.908,419.7964,422.269,426.455,429.674,433.495,439.448,443.831,447.05,453.003,456.726,461.455,465.6382,468.129,476.363,479.236,482.454,488.2308,490.688,496.267,501.203,505.103,507.976,512.705" svgx:width="0.34,0.58,0.55,0.33,0.58,0.48,0.55,0.58,0.48,0.52,0.33,0.55,0.42,0.33,0.48,0.6,0.25,0.55,0.88,0.29,0.44,0.4,0.55,0.42,0.33,0.4,0.6,0.44,0.33,0.6,0.4,0.5,0.29,0.55,0.44,0.4,0.55,0.42,0.42,0.55,0.42,0.48,0.44,0.33,0.29,0.55,0.58,0.42,0.55,0.55,0.33,0.55,0.33,0.58,0.48,0.55,0.6,0.4,0.48,0.56,0.29,0.55,0.6,0.42,0.29,0.56,0.55,0.55,0.6,0.29,0.29,0.33,0.55,0.83,0.5,0.29,0.29,0.55,0.42,0.33,0.4,0.6,0.44,0.33,0.6,0.4,0.48,0.42,0.55,0.83,0.29,0.33,0.58,0.55,0.56,0.5,0.4,0.29,0.48,0.61" style="fill:rgb(0,0,0);font-family:URWPalladioL-Roma;font-size:9.96px;stroke:none;">In the next step, microstructural cross sections of the previously built wall structures with varied</text>
   <text y="612.77" x="76.535,83.74,89.969,100.131,107.8002,111.167,116.715,120.0018,123.259,128.34,133.32,136.592,145.564,154.3288,157.708,162.789,168.703,174.7786,178.082,183.163,188.143,191.405,200.378,209.1428,212.521,220.996,225.863,229.694,234.4748,237.733,241.045,246.126,251.776,256.644,262.4208,265.728,269.112,272.943,278.492,287.2568,290.635,293.948,299.862,304.6428,307.89,316.863,319.82,326.029,332.238,335.195,339.9758,343.233,348.781,352.06780000000003,355.336,358.648,364.563,369.3438,372.601,377.682,381.99,385.303,387.793,391.177,396.258,401.338,404.651,410.4278,413.736,418.817,424.731,430.8066,434.1,439.181,444.262,447.575,453.35179999999997,456.66,459.617,464.698,470.348,475.215,478.487,480.97700000000003,486.546,495.0,499.868,503.709,508.576,511.534,517.448" svgx:width="0.71,0.61,1.0,0.77,0.55,0.55,0.33,0.55,0.5,0.5,0.55,0.88,0.88,0.55,0.5,0.58,0.61,0.55,0.5,0.5,0.55,0.88,0.88,0.55,0.83,0.48,0.4,0.48,0.55,0.33,0.5,0.56,0.48,0.58,0.55,0.33,0.4,0.55,0.88,0.55,0.33,0.58,0.48,0.55,0.88,0.29,0.61,0.61,0.29,0.48,0.55,0.55,0.33,0.55,0.33,0.58,0.48,0.55,0.5,0.42,0.33,0.25,0.55,0.5,0.5,0.33,0.58,0.55,0.5,0.58,0.61,0.55,0.5,0.5,0.33,0.58,0.55,0.29,0.5,0.56,0.48,0.4,0.25,0.55,0.83,0.48,0.4,0.48,0.29,0.58,0.25" style="fill:rgb(0,0,0);font-family:URWPalladioL-Roma;font-size:9.96px;stroke:none;">CTWD of 12 mm and 44 mm were taken from the middle of the 1st, 35th and 70th layer. Herein,</text>
   <text y="626.279" x="76.535,85.209,88.067,92.429,96.132,101.496,105.661,108.863,112.664,118.588,122.949,126.152,132.075,135.955,140.867,143.75539999999998,146.21,150.916,156.466,161.829,164.688,170.611,173.813,176.672,182.035,187.8118,190.238,195.601,198.8878,201.357,204.216,209.579,217.772,221.043,225.955,228.813,231.672,237.035,242.497,247.202,253.2776,255.689,259.854,263.056,267.762,272.467,275.3554,277.811,285.306,290.217,295.374,298.233" svgx:width="0.88,0.29,0.44,0.4,0.55,0.42,0.33,0.4,0.6,0.44,0.33,0.6,0.4,0.5,0.29,0.55,0.48,0.56,0.55,0.29,0.6,0.33,0.29,0.55,0.58,0.55,0.55,0.33,0.55,0.29,0.55,0.83,0.33,0.5,0.29,0.29,0.55,0.56,0.48,0.61,0.55,0.42,0.33,0.48,0.48,0.29,0.55,0.76,0.5,0.52,0.29,0.5" style="fill:rgb(0,0,0);font-family:URWPalladioL-Roma;font-size:9.96px;stroke:none;">microstructural evolution of low-alloyed steel G4Si1</text>
   <text y="626.279" x="303.149" svgx:width="0.29" style="fill:rgb(0,0,0);font-family:Rpxr;font-size:9.96px;stroke:none;">/</text>
   <text y="626.279" x="305.969,311.126,318.621,323.601,326.018,328.877,333.0602,335.527,339.692,345.409,350.772,358.965,364.74179999999996,367.177,370.035,375.8118,378.238,384.24,388.945,394.849,399.554,405.271,411.273,415.978,421.695,426.057,430.8378,433.247,438.611,444.38779999999997,446.813,452.815" svgx:width="0.52,0.76,0.5,0.55,0.29,0.42,0.55,0.42,0.58,0.55,0.83,0.58,0.55,0.29,0.58,0.55,0.61,0.48,0.6,0.48,0.58,0.61,0.48,0.58,0.44,0.48,0.55,0.55,0.58,0.55,0.61,0.29" style="fill:rgb(0,0,0);font-family:URWPalladioL-Roma;font-size:9.96px;stroke:none;">SG3 is shown in dependence on di</text>
   <text y="626.279" x="455.674" svgx:width="0.61" style="fill:rgb(0,0,0);font-family:Rpxr;font-size:9.96px;stroke:none;">ﬀ</text>
   <text y="626.279" x="461.647,466.352,470.232,473.091,478.808,484.3856,486.755,491.116,496.48,501.843,504.702,507.56,513.277" svgx:width="0.48,0.4,0.29,0.58,0.56,0.55,0.44,0.55,0.55,0.29,0.29,0.58,0.56" style="fill:rgb(0,0,0);font-family:URWPalladioL-Roma;font-size:9.96px;stroke:none;">ering cooling</text>
   <text y="639.789" x="76.535,80.958,86.398,92.196,98.283,101.182,104.43,107.329,112.769,118.567,122.75019999999999,125.282,131.369,137.377,141.312,144.211,150.009,155.58659999999998,158.039,167.085,174.836,182.587,192.011,194.501,196.993,203.1,208.898,213.6788,216.161,220.584,224.34,229.78,234.004,238.1872,240.719,244.943,249.715,254.138,257.386,260.285,265.725,271.523,275.7062,278.238,283.219,286.975,291.7558,294.238,298.462,304.26,309.7,318.009,323.7858,326.297,329.197,334.9738,337.485,343.025,345.924,351.463,357.47,361.226" svgx:width="0.44,0.55,0.58,0.61,0.29,0.33,0.29,0.55,0.58,0.42,0.55,0.61,0.6,0.4,0.29,0.58,0.56,0.55,1.0,0.78,0.78,0.95,0.25,0.55,0.61,0.58,0.48,0.55,0.44,0.4,0.55,0.42,0.42,0.55,0.42,0.48,0.44,0.33,0.29,0.55,0.58,0.42,0.55,0.5,0.4,0.48,0.55,0.42,0.58,0.55,0.83,0.58,0.55,0.29,0.58,0.55,0.56,0.29,0.56,0.6,0.4,0.48" style="fill:rgb(0,0,0);font-family:URWPalladioL-Roma;font-size:9.96px;stroke:none;">conditions during WAAM. The cross sections are shown in Figure</text>
   <text y="639.789" x="368.489,373.47" svgx:width="0.5,0.5" style="fill:rgb(8,117,183);font-family:URWPalladioL-Roma;font-size:9.96px;stroke:none;">14</text>
   <text y="639.789" x="378.452" svgx:width="0.25" style="fill:rgb(0,0,0);font-family:URWPalladioL-Roma;font-size:9.96px;stroke:none;">.</text>
   <text y="653.298" x="97.795,101.203,106.9798,109.565,112.862,118.747,123.5278,126.078,130.568,134.38,139.902,144.189,148.3722,150.954,155.242,160.085,164.575,167.871,170.814,176.335,182.22,186.4032,188.985,194.507,197.7938,200.361,203.658,209.543,214.3238,216.864,221.92,226.208,229.4948,231.982,234.924,239.98,245.603,250.446,253.702,256.192,258.718,263.69800000000004,266.251,272.329,276.323,279.266,288.195,293.251,297.245,300.188,303.13,308.7076,311.23,316.822,321.878,324.82,330.706,333.648,336.945,339.887,344.2694,346.865,351.152,354.449,358.362,364.46,368.949,372.246,378.343,382.156,386.9368,389.477,397.91,400.853,404.149,409.9258,412.522,417.578,422.068,426.558,432.655,441.584,447.682,450.624,455.68,458.977,461.919,467.441,473.326,477.5092,480.091,485.612,488.89880000000005,491.457,494.824,499.668,503.662,507.656,510.599,513.895" svgx:width="0.34,0.58,0.55,0.33,0.58,0.48,0.55,0.44,0.4,0.55,0.42,0.42,0.55,0.42,0.48,0.44,0.33,0.29,0.55,0.58,0.42,0.55,0.55,0.33,0.55,0.33,0.58,0.48,0.55,0.5,0.42,0.33,0.55,0.29,0.5,0.56,0.48,0.4,0.25,0.55,0.5,0.55,0.6,0.4,0.29,0.88,0.5,0.4,0.29,0.29,0.56,0.55,0.55,0.5,0.29,0.58,0.29,0.33,0.29,0.44,0.55,0.42,0.33,0.4,0.6,0.44,0.33,0.6,0.4,0.48,0.55,0.83,0.29,0.33,0.58,0.55,0.5,0.44,0.44,0.6,0.88,0.6,0.29,0.5,0.33,0.29,0.55,0.58,0.42,0.55,0.55,0.33,0.55,0.33,0.48,0.4,0.4,0.29,0.33,0.48" style="fill:rgb(0,0,0);font-family:URWPalladioL-Roma;font-size:9.96px;stroke:none;">In the cross sections of the 1st layer, a primarily bainitic structure with accumulations of ferrite</text>
   <text y="666.808" x="76.535,82.185,86.199,91.28,94.237,100.151,104.3342,107.051,110.008,114.1912,116.908,121.989,128.096,134.204,139.284,143.115,147.983,153.897,157.1838,159.801,163.185,168.733,172.717,175.339,180.319,183.011,190.216,196.445,206.607,214.2762,217.053,222.602,225.8888,228.577,233.658,238.63799999999998,241.33,250.303,259.0678,261.867,266.948,272.862,278.93760000000003,281.662,286.743,291.723,294.415,303.388,312.361,314.851,318.682,326.588,331.1,335.611,341.16,344.991,351.2,354.157,360.071,365.64860000000004,368.312,371.625,377.103,379.765,385.1,389.967" svgx:width="0.56,0.4,0.5,0.29,0.58,0.42,0.55,0.29,0.42,0.55,0.5,0.6,0.6,0.5,0.4,0.48,0.58,0.33,0.55,0.33,0.55,0.4,0.55,0.5,0.55,0.71,0.61,1.0,0.77,0.55,0.55,0.33,0.55,0.5,0.5,0.55,0.88,0.88,0.55,0.5,0.58,0.61,0.55,0.5,0.5,0.55,0.88,0.88,0.25,0.55,0.78,0.44,0.44,0.55,0.4,0.61,0.29,0.58,0.56,0.55,0.33,0.55,0.55,0.52,0.48,0.56" style="fill:rgb(0,0,0);font-family:URWPalladioL-Roma;font-size:9.96px;stroke:none;">grains is apparent for a CTWD of 12 mm and 44 mm. According to Sey</text>
   <text y="666.808" x="395.618" svgx:width="0.61" style="fill:rgb(0,0,0);font-family:Rpxr;font-size:9.96px;stroke:none;">ﬀ</text>
   <text y="666.808" x="401.796,406.877,410.891,414.204,419.9808,422.709,427.577,430.8638,433.481,438.562,441.519,444.009,446.65" svgx:width="0.5,0.4,0.33,0.58,0.55,0.48,0.33,0.55,0.5,0.29,0.25,0.55,0.33" style="fill:rgb(0,0,0);font-family:URWPalladioL-Roma;font-size:9.96px;stroke:none;">arth et al. [</text>
   <text y="666.808" x="450.03,455.011" svgx:width="0.5,0.5" style="fill:rgb(8,117,183);font-family:URWPalladioL-Roma;font-size:9.96px;stroke:none;">37</text>
   <text y="666.808" x="459.992,463.376,465.866,468.528,477.501,482.582,486.596,489.909,494.776,500.69,504.999,507.956,511.269,514.226" svgx:width="0.33,0.25,0.55,0.88,0.5,0.4,0.33,0.48,0.58,0.42,0.29,0.33,0.29,0.44" style="fill:rgb(0,0,0);font-family:URWPalladioL-Roma;font-size:9.96px;stroke:none;">], martensitic</text>
   <text y="680.317" x="76.236,82.343,88.257,93.338,97.647,102.4278,105.35,109.862,114.943,120.71979999999999,123.682,129.301,134.0818,137.004,141.313,146.18,151.048,156.8248,159.797,162.754,168.5308,171.493,176.574,182.783,188.992,191.949,195.262,198.219,203.767,209.5438,212.517,215.829,221.30700000000002,224.203,227.515,233.43,238.2108,241.132,246.752,251.833,254.79,260.704,263.661,266.974,269.931,274.3134,277.278,286.251,289.208,293.72,297.551,303.099,307.408,310.721,314.653,320.781,325.293,328.606,334.733,338.564,343.3448,346.267,352.476,358.603,363.3838,366.306,369.619,375.09700000000004,377.992" svgx:width="0.6,0.58,0.5,0.42,0.48,0.55,0.44,0.5,0.58,0.55,0.55,0.48,0.55,0.42,0.48,0.48,0.58,0.55,0.29,0.58,0.55,0.5,0.61,0.61,0.29,0.33,0.29,0.55,0.58,0.55,0.33,0.55,0.55,0.33,0.58,0.48,0.55,0.55,0.5,0.29,0.58,0.29,0.33,0.29,0.44,0.55,0.88,0.29,0.44,0.4,0.55,0.42,0.33,0.4,0.6,0.44,0.33,0.6,0.4,0.48,0.55,0.61,0.6,0.48,0.55,0.33,0.55,0.55,0.33" style="fill:rgb(0,0,0);font-family:URWPalladioL-Roma;font-size:9.96px;stroke:none;">phase can be seen in addition to the bainitic microstructure due to t</text>
   <text y="682.182" x="381.309" svgx:width="0.5" style="fill:rgb(0,0,0);font-family:URWPalladioL-Roma;font-size:7.57px;stroke:none;">8</text>
   <text y="682.182" x="385.095" svgx:width="0.29" style="fill:rgb(0,0,0);font-family:Rpxr;font-size:7.57px;stroke:none;">/</text>
   <text y="682.182" x="387.268" svgx:width="0.5" style="fill:rgb(0,0,0);font-family:URWPalladioL-Roma;font-size:7.57px;stroke:none;">5</text>
   <text y="680.317" x="391.551,394.935,398.248,401.205,410.178,415.045" svgx:width="0.33,0.33,0.29,0.88,0.48,0.42" style="fill:rgb(0,0,0);font-family:URWPalladioL-Roma;font-size:9.96px;stroke:none;">-times</text>
   <text y="680.317" x="422.186" svgx:width="0.67" style="fill:rgb(0,0,0);font-family:Rpxr;font-size:9.96px;stroke:none;">&lt;</text>
   <text y="680.317" x="431.815,436.795,439.731,443.9142,446.865,449.822,455.5988,458.571,461.884,467.798,472.5788,475.501,481.649,485.663,489.971,493.25780000000003,496.109,499.066,504.147,509.797,514.665,517.947" svgx:width="0.5,0.55,0.42,0.55,0.29,0.58,0.55,0.33,0.58,0.48,0.55,0.61,0.4,0.42,0.33,0.55,0.29,0.5,0.56,0.48,0.4,0.25" style="fill:rgb(0,0,0);font-family:URWPalladioL-Roma;font-size:9.96px;stroke:none;">2 s in the ﬁrst layer.</text>
   <text y="693.826" x="76.037,85.641,88.595,91.904,97.68079999999999,100.3,103.254,109.163,113.67,117.497,122.36,127.436,131.74,134.695,140.603,146.1806,148.735,155.932,162.155,172.307,179.97619999999998,182.642,188.185,191.4718,194.053,199.129,204.10899999999998,206.692,215.656,224.62,227.11,229.635,232.945,238.853,243.6338,246.203,255.167,258.121,262.629,266.456,271.999,276.303,279.613,283.542,289.663,294.171,297.48,303.602,307.439,312.2198,314.779,320.393,325.256,329.763,335.306,344.27,349.133,353.3162,355.925,362.067,367.975,372.7558,375.325,380.969,384.979,390.055,393.01,398.918,403.781,409.984,412.474,414.999,420.074,423.029,426.338,432.247,437.79,443.911,449.556,455.33279999999996,457.951,461.261,467.169,471.9498,474.519,483.483,488.346,493.422,497.726,503.848,507.675,512.538" svgx:width="1.0,0.29,0.33,0.58,0.55,0.29,0.58,0.44,0.4,0.48,0.5,0.42,0.29,0.58,0.56,0.55,0.71,0.61,1.0,0.77,0.55,0.55,0.33,0.55,0.5,0.5,0.55,0.88,0.88,0.25,0.55,0.33,0.58,0.48,0.55,0.88,0.29,0.44,0.4,0.55,0.42,0.33,0.4,0.6,0.44,0.33,0.6,0.4,0.48,0.55,0.55,0.48,0.44,0.55,0.88,0.48,0.42,0.55,0.61,0.58,0.48,0.55,0.56,0.4,0.5,0.29,0.58,0.48,0.61,0.25,0.55,0.5,0.29,0.33,0.58,0.55,0.6,0.56,0.58,0.55,0.33,0.58,0.48,0.55,0.88,0.48,0.5,0.42,0.6,0.4,0.48,0.61" style="fill:rgb(0,0,0);font-family:URWPalladioL-Roma;font-size:9.96px;stroke:none;">With increasing CTWD of 44 mm, the microstructure becomes ﬁne grained, although the measured</text>
   <text y="707.336" x="76.535,80.985,86.457,91.929,94.846,97.762,103.595,109.1726,111.643,115.602,120.613,123.881,128.681,132.8642,135.416,143.775,148.576,152.354,157.1348,159.641,164.441,170.054,176.097,181.108,184.015,186.505,190.008,196.152,201.985,204.902,209.0852,211.637,217.66,223.493,228.294,234.117,239.589,248.439,253.239,259.073,264.545,270.3218,272.863,277.313,282.324,288.1008,290.633,296.175,300.9558,303.462,308.262,313.434,319.457,322.374,327.385,330.301,336.134,340.935,347.0106,349.534,355.077,360.6546,363.135,366.051,371.523,379.882,384.683,388.667,391.117,395.918,401.751,406.552,410.33,415.903,421.48060000000004,423.961,426.877,432.71,438.733,444.777,448.0638,450.52,458.878,461.795,465.062,470.8388,473.381,476.297,482.13,486.58,490.359,495.159,500.171,504.42,507.337,513.17" svgx:width="0.44,0.55,0.55,0.29,0.29,0.58,0.56,0.55,0.4,0.5,0.33,0.48,0.42,0.55,0.83,0.48,0.4,0.48,0.55,0.48,0.56,0.6,0.5,0.29,0.25,0.55,0.61,0.58,0.29,0.42,0.55,0.6,0.58,0.48,0.58,0.55,0.88,0.48,0.58,0.55,0.58,0.55,0.44,0.5,0.58,0.55,0.55,0.48,0.55,0.48,0.52,0.6,0.29,0.5,0.29,0.58,0.48,0.61,0.55,0.55,0.56,0.55,0.29,0.55,0.83,0.48,0.4,0.55,0.48,0.58,0.48,0.4,0.56,0.56,0.55,0.29,0.58,0.6,0.6,0.33,0.55,0.83,0.29,0.33,0.58,0.55,0.29,0.58,0.44,0.4,0.48,0.5,0.42,0.29,0.58,0.56" style="fill:rgb(0,0,0);font-family:URWPalladioL-Roma;font-size:9.96px;stroke:none;">cooling rates were equal. This phenomenon can be explained by lower energy input with increasing</text>
   <text y="720.845" x="76.535,83.697,89.89,99.992,107.66120000000001,110.306,113.67,118.156,123.671,132.591,138.663,143.714,147.522,152.3028,154.856,160.473,163.413,169.03,175.121,178.93" svgx:width="0.71,0.61,1.0,0.77,0.55,0.33,0.44,0.55,0.88,0.6,0.5,0.4,0.48,0.55,0.56,0.29,0.56,0.6,0.4,0.48" style="fill:rgb(0,0,0);font-family:URWPalladioL-Roma;font-size:9.96px;stroke:none;">CTWD (compare Figure</text>
   <text y="720.845" x="186.254" svgx:width="0.5" style="fill:rgb(8,117,183);font-family:URWPalladioL-Roma;font-size:9.96px;stroke:none;">5</text>
   <text y="720.845" x="191.305,194.669,197.15900000000002,200.69,206.882,212.762,217.6,221.409,226.248,231.834,236.35,238.84,241.36,244.3,249.816,258.241,263.08,267.06399999999996,269.565,275.445,280.284,285.335,288.6218,291.123,294.063,299.942,306.014,312.105,315.39180000000005,317.884,321.702,326.541,330.824,336.916,339.856,343.149,347.988,354.0636,356.645,359.585,365.36179999999996,367.96,374.132,378.971,383.456,387.265,392.104,397.155,401.438,406.277,412.3526,414.944,420.561,424.552,429.603,432.542,438.31879999999995,440.907,446.523,450.342,455.858,464.283,467.576,473.3528,475.941,480.992,485.1752,487.77,496.195,501.034,503.974,506.8624,509.409,514.46" svgx:width="0.33,0.25,0.55,0.61,0.58,0.48,0.4,0.48,0.55,0.56,0.25,0.55,0.29,0.55,0.83,0.48,0.4,0.55,0.58,0.48,0.5,0.33,0.55,0.29,0.58,0.6,0.6,0.33,0.55,0.4,0.48,0.42,0.6,0.29,0.33,0.48,0.61,0.55,0.29,0.58,0.55,0.61,0.48,0.44,0.4,0.48,0.5,0.42,0.48,0.61,0.55,0.56,0.4,0.5,0.29,0.58,0.55,0.56,0.4,0.55,0.83,0.33,0.58,0.55,0.5,0.42,0.55,0.83,0.48,0.29,0.29,0.55,0.5,0.42" style="fill:rgb(0,0,0);font-family:URWPalladioL-Roma;font-size:9.96px;stroke:none;">). Thereby, lower heat input resulted in decreased grain growth as well as</text>
   <text y="734.355" x="76.535,82.622,87.394,91.818,95.574,100.346,105.327,109.551,114.323,120.39859999999999,122.901,128.988,131.887,134.786,140.794,144.042,146.941,152.38,158.1568,160.669,166.178,170.951,174.198,182.507,187.279,192.051,197.8278,200.34,206.368,209.267,212.166,216.938,220.922,223.364,232.161,237.142,240.39,245.162,249.097,251.996,256.978,259.8664,262.367,267.349,273.147,279.2226,281.725,285.949,291.956,297.466,301.69,304.937,308.873,313.854,317.102,321.874" svgx:width="0.61,0.48,0.44,0.4,0.48,0.5,0.42,0.48,0.61,0.55,0.61,0.29,0.29,0.6,0.33,0.29,0.55,0.58,0.55,0.55,0.48,0.33,0.83,0.48,0.48,0.58,0.55,0.61,0.29,0.29,0.48,0.4,0.55,0.88,0.5,0.33,0.48,0.4,0.29,0.5,0.29,0.55,0.5,0.58,0.61,0.55,0.42,0.6,0.55,0.42,0.33,0.4,0.5,0.33,0.48,0.25" style="fill:rgb(0,0,0);font-family:URWPalladioL-Roma;font-size:9.96px;stroke:none;">decreased dilution between ﬁller material and substrate.</text>
  </g>
 </g>
</svg>
