<?xml version="1.0" encoding="UTF-8"?>
<svg height="757.452" width="4064.0" xmlns="http://www.w3.org/2000/svg">
 <g id="page" xmlns:svgx="http://www.xml-cml.org/schema/svgx">
  <g begin="text">
   <text y="34.949" x="44.829,48.834,52.578,56.196,59.9598,61.884,65.502,67.59299999999999,69.507,73.125,74.412,76.3636,480.033,485.838,489.74120000000005,491.661,493.209,497.088,500.8518,502.767,507.159,511.038,512.325,513.612,517.5849,519.561,523.692,524.979,528.597,532.215,534.276,536.346,540.225,541.512,544.743,546.804" svgx:width="0.57,0.54,0.52,0.54,0.55,0.52,0.3,0.55,0.52,0.19,0.28,0.55,0.83,0.56,0.55,0.22,0.56,0.54,0.55,0.63,0.56,0.19,0.19,0.57,0.55,0.59,0.19,0.52,0.52,0.3,0.31,0.56,0.19,0.46,0.3,0.52" style="fill:rgb(109,109,108);font-family:HelveticaNeueLTStd-Lt;font-size:6.97px;stroke:none;">Zhan et al. Mg Ion Solid Electrolyte</text>
  </g>
  <path style="fill:none;stroke:rgb(109,109,108);stroke-width:1.0;" d="M44.830 42.840 L550.450 42.840 "/>
  <rect style="stroke:blue;stroke-width:0.3;" x="54.0" y="89.752" height="260.4" width="226.8" title="5"/>
  <text y="89.752" class="image" id="image.5.1" width="226" height="260" x="54.0">image.5.1.54_281.90_350</text>
  <g begin="text">
   <text y="347.105" x="50.265,54.396,56.457,61.749,66.915,71.946,76.4765,78.408,82.3112,84.438" svgx:width="0.59,0.29,0.76,0.74,0.72,0.65,0.55,0.56,0.55,0.22" style="fill:rgb(23,22,21);font-family:HelveticaNeueLTStd-Bd;font-size:6.97px;stroke:none;">FIGURE 2 |</text>
   <text y="347.105" x="88.137,92.5281,94.473,96.534,97.821,103.626,107.244,108.531,109.818,113.562,117.18639999999999,119.133,123.012,124.8242,126.756,130.239,133.857,137.0632,139.032,143.037,146.655,149.886,153.504,154.791,158.67,162.675,168.48,172.098,175.842,177.93300000000002,179.847,183.726,185.5382,187.47,193.275,197.1782,199.098,200.385,204.264,208.0278,209.952,213.309,217.188,218.475,219.762,223.7349,225.702,229.32,233.199,236.943,240.948,244.692,248.31,250.371,254.25,256.446" svgx:width="0.63,0.55,0.3,0.19,0.83,0.52,0.19,0.19,0.54,0.52,0.55,0.56,0.26,0.55,0.5,0.52,0.46,0.55,0.57,0.52,0.46,0.52,0.19,0.56,0.57,0.83,0.52,0.54,0.3,0.55,0.56,0.26,0.55,0.83,0.56,0.55,0.19,0.56,0.54,0.55,0.48,0.56,0.19,0.19,0.57,0.55,0.52,0.56,0.54,0.57,0.54,0.52,0.3,0.56,0.31,0.48" style="fill:rgb(23,22,21);font-family:HelveticaNeueLTStd-Lt;font-size:6.97px;stroke:none;">A timeline of key development of Mg ion solid conductors</text>
   <text y="347.105" x="261.747,263.808,268.587" svgx:width="0.3,0.69,0.3" style="fill:rgb(23,22,21);font-family:HelveticaNeueLTStd-Bd;font-size:6.97px;stroke:none;">(A)</text>
   <text y="347.105" x="272.592,276.21,279.954" svgx:width="0.52,0.54,0.57" style="fill:rgb(23,22,21);font-family:HelveticaNeueLTStd-Lt;font-size:6.97px;stroke:none;">and</text>
   <text y="356.573" x="50.265,53.8894,55.818,59.175,62.919,68.724,74.529,78.147,80.343,83.5492,85.518,89.397,91.20920000000001,93.141,95.202,98.946,102.57039999999999,104.508,105.795,109.674,113.418,114.705,118.32939999999999,120.276,123.894,127.773,131.517,135.522,139.266,142.884,144.945,146.232,149.463,150.75,152.811,154.098,157.716,161.0616,163.017,166.896,168.70819999999998,170.64,173.871,177.489,179.685,180.972,184.851,188.595,191.9406,193.896,197.253,201.132,202.419,203.706,207.6789,209.646,213.264,217.143,220.887,224.892,228.636,232.254,234.315,238.194,240.39,243.73559999999998,245.691,249.309,252.6546,254.601,258.2254,260.163,261.972,265.716,269.46,273.078,275.139,276.426,280.305" svgx:width="0.52,0.55,0.48,0.54,0.83,0.83,0.52,0.31,0.46,0.55,0.56,0.26,0.55,0.3,0.54,0.52,0.55,0.19,0.56,0.54,0.19,0.52,0.55,0.52,0.56,0.54,0.57,0.54,0.52,0.3,0.19,0.46,0.19,0.3,0.19,0.52,0.48,0.55,0.56,0.26,0.55,0.46,0.52,0.31,0.19,0.56,0.54,0.48,0.55,0.48,0.56,0.19,0.19,0.57,0.55,0.52,0.56,0.54,0.57,0.54,0.52,0.3,0.56,0.31,0.48,0.55,0.52,0.48,0.55,0.52,0.55,0.26,0.54,0.54,0.52,0.3,0.19,0.56,0.54" style="fill:rgb(23,22,21);font-family:HelveticaNeueLTStd-Lt;font-size:6.97px;stroke:none;">a summary of the ionic conductivities of various solid conductors as a function</text>
   <text y="366.032" x="50.265,54.144,55.956199999999995,57.888,59.949,63.567,69.372,73.377,76.995,79.191,82.809,84.87,88.614,90.684,94.30839999999999,96.255,97.542,101.3058,103.23,105.291,109.035,112.65939999999999,114.597,116.667,120.285,124.29,128.169,130.365" svgx:width="0.56,0.26,0.55,0.3,0.52,0.83,0.57,0.52,0.31,0.52,0.3,0.54,0.31,0.52,0.55,0.19,0.54,0.55,0.3,0.54,0.52,0.55,0.31,0.52,0.57,0.56,0.31,0.3" style="fill:rgb(23,22,21);font-family:HelveticaNeueLTStd-Lt;font-size:6.97px;stroke:none;">of temperature in the report</text>
   <text y="366.032" x="134.37,136.431,141.345" svgx:width="0.3,0.7,0.3" style="fill:rgb(23,22,21);font-family:HelveticaNeueLTStd-Bd;font-size:6.97px;stroke:none;">(B)</text>
   <text y="366.032" x="143.406" svgx:width="0.28" style="fill:rgb(23,22,21);font-family:HelveticaNeueLTStd-Lt;font-size:6.97px;stroke:none;">.</text>
  </g>
  <path style="fill:none;stroke:rgb(23,22,21);stroke-width:0.25;" d="M44.830 64.370 L290.170 64.370 "/>
  <path style="fill:none;stroke:rgb(23,22,21);stroke-width:0.25;" d="M44.960 372.670 L44.960 64.360 "/>
  <path style="fill:none;stroke:rgb(23,22,21);stroke-width:0.25;" d="M290.040 372.670 L290.040 64.360 "/>
  <path style="fill:none;stroke:rgb(23,22,21);stroke-width:0.25;" d="M44.830 372.670 L290.170 372.670 "/>
  <g begin="text">
   <text y="401.483" x="44.829,55.674,63.423,69.849,78.039,85.131,91.107,100.404,109.035,118.107,126.296,135.152,138.68,147.53040000000001,150.857,157.949,166.58,174.77,185.615,193.364,204.65,213.947,222.578,231.209,238.983,242.296,245.833,256.678,265.975,273.067,279.484" svgx:width="0.91,0.65,0.61,0.69,0.59,0.5,0.78,0.72,0.76,0.69,0.74,0.29,0.74,0.55,0.59,0.72,0.69,0.91,0.65,0.94,0.78,0.72,0.72,0.65,0.55,0.3,0.91,0.78,0.59,0.54,0.3" style="fill:rgb(23,22,21);font-family:HelveticaNeueLTStd-Bd;font-size:11.96px;stroke:none;">METAL–ORGANIC FRAMEWORKS (MOFs)</text>
   <text y="415.424" x="44.829,55.674,62.9696,66.303,69.831,79.128,87.9784,91.313,99.071,108.368,115.46,118.988,127.83840000000001,131.174,140.03,149.327,158.183,167.039,175.895,184.751,192.059,201.356,209.987" svgx:width="0.91,0.61,0.55,0.29,0.78,0.74,0.55,0.65,0.78,0.59,0.29,0.74,0.55,0.74,0.78,0.74,0.74,0.74,0.74,0.61,0.78,0.72,0.65" style="fill:rgb(23,22,21);font-family:HelveticaNeueLTStd-Bd;font-size:11.96px;stroke:none;">Mg ION SOLID CONDUCTORS</text>
   <text y="436.349" x="44.829,53.262,57.285,60.228,64.386,66.78,71.703,76.527,79.965,84.375,88.533,93.708,96.246,100.2192,108.612,111.411,114.921,119.079,126.828,130.851,137.331,142.155,145.665,150.363,153.8632,162.216,165.492,173.925,180.999,186.003,189.477,192.788,201.114,205.272,208.782,212.84980000000002,221.166,225.171,228.681,233.028,236.502,239.445,243.603,245.997,248.391,250.929,256.104,260.17179999999996,268.488,271.962,276.786,279.18,281.718,286.686" svgx:width="0.89,0.43,0.31,0.44,0.25,0.52,0.51,0.37,0.47,0.44,0.55,0.27,0.42,0.55,0.3,0.37,0.44,0.82,0.43,0.69,0.51,0.37,0.5,0.37,0.55,0.35,0.89,0.75,0.53,0.37,0.35,0.55,0.44,0.37,0.43,0.55,0.42,0.37,0.46,0.37,0.31,0.44,0.25,0.25,0.27,0.55,0.43,0.55,0.37,0.51,0.25,0.27,0.53,0.37" style="fill:rgb(23,22,21);font-family:MinionPro-Regular;font-size:9.46px;stroke:none;">Metal–organic frameworks (MOFs) are crystalline solids</text>
   <text y="447.806" x="44.829,48.834,53.658,61.407,66.366,71.19,74.664,78.687,83.7008,86.31,91.134,93.972,96.561,104.31,108.333,111.276,115.434,117.79899999999999,120.447,122.985,127.809,132.984,136.48420000000002,139.086,143.091,147.915,152.739,156.249,161.244,163.782,168.957,173.115,176.004,180.027,185.0408,187.65,192.456,196.80759999999998,199.422,207.171,212.193,214.587,217.476,220.014,222.813,227.835,233.01,237.015,239.904,242.442,247.266,252.441,256.599,258.964,261.621,266.445,269.883,274.293,278.451,283.626,286.164" svgx:width="0.42,0.51,0.82,0.52,0.51,0.37,0.43,0.53,0.55,0.51,0.3,0.55,0.82,0.43,0.31,0.44,0.25,0.55,0.27,0.51,0.55,0.37,0.55,0.42,0.51,0.51,0.37,0.53,0.27,0.55,0.44,0.31,0.43,0.53,0.55,0.51,0.46,0.55,0.82,0.53,0.25,0.31,0.27,0.3,0.53,0.55,0.42,0.31,0.27,0.51,0.55,0.44,0.25,0.55,0.51,0.37,0.47,0.44,0.55,0.27,0.42" style="fill:rgb(23,22,21);font-family:MinionPro-Regular;font-size:9.46px;stroke:none;">composed of metal ions coordinated by multifunctional organic</text>
   <text y="459.263" x="44.829,52.578,57.402,59.796,63.873,67.878,72.9,75.294,79.299,82.79920000000001,89.154,95.634,98.172,101.097,106.1108,112.518,116.6804,123.048,125.973,131.031,134.541,138.564,142.587,145.953,150.948,153.486,161.235,165.258,170.433,173.907,176.445,181.269,186.444,190.602,192.967,199.368,204.328,209.152,212.662,217.486,222.508,226.00820000000002,232.363,235.837,238.726,242.236,247.258,251.263,254.152,259.174,262.684,266.707,268.8828,275.257,281.089,286.147" svgx:width="0.82,0.51,0.25,0.43,0.42,0.53,0.25,0.43,0.37,0.55,0.69,0.27,0.31,0.53,0.55,0.44,0.55,0.31,0.53,0.37,0.43,0.43,0.36,0.53,0.27,0.82,0.43,0.55,0.37,0.27,0.51,0.55,0.44,0.25,0.55,0.52,0.51,0.37,0.51,0.53,0.37,0.55,0.37,0.31,0.37,0.53,0.42,0.31,0.53,0.37,0.43,0.23,0.55,0.62,0.53,0.43" style="fill:rgb(23,22,21);font-family:MinionPro-Regular;font-size:9.46px;stroke:none;">molecules with a three-dimensional porous structure. The</text>
   <text y="470.72" x="44.829,48.834,53.658,61.407,66.366,71.19,74.664,77.202,80.091,82.629,87.453,92.656,96.93,101.088,106.263,111.27680000000001,115.552,119.026,121.915,125.425,130.447,134.452,137.341,142.363,145.873,149.9408,154.189,159.013,161.851,166.105,174.538,181.612,186.616,190.11620000000002,194.383,198.388,203.212,208.234,210.628,215.6418,219.925,224.731,228.7988,233.047,237.115,241.264,244.738,247.276,249.67,254.02159999999998,258.301,262.459,267.337,269.758,274.78,278.254,281.143,285.166" svgx:width="0.42,0.51,0.82,0.52,0.51,0.37,0.27,0.31,0.27,0.51,0.55,0.55,0.44,0.55,0.53,0.55,0.37,0.31,0.37,0.53,0.42,0.31,0.53,0.37,0.43,0.55,0.51,0.3,0.55,0.89,0.75,0.53,0.37,0.55,0.42,0.51,0.53,0.25,0.53,0.55,0.51,0.43,0.55,0.43,0.44,0.37,0.27,0.25,0.46,0.55,0.44,0.53,0.26,0.53,0.37,0.31,0.43,0.53" style="fill:rgb(23,22,21);font-family:MinionPro-Regular;font-size:9.46px;stroke:none;">composition and structure of MOFs could be easily adjusted</text>
   <text y="482.177" x="44.829,49.212,51.75,55.9124,58.743,61.668,66.726,70.7938,73.584,77.094,81.252,84.141,86.679,91.503,96.678,100.836,103.201,106.074,109.548,113.571,115.965,120.042,124.047,126.936,129.474,134.298,139.501,142.308,147.132,149.97,152.784,155.709,160.767,164.8348,167.625,175.374,179.397,182.34,186.498,188.863,191.727,194.265,199.089,204.292,207.108,211.266,216.441,221.4548,224.28,229.104,232.542,236.952,241.11,246.285,248.823,252.7962,255.672,263.421,268.245,270.639,274.716,278.721,283.743,286.137" svgx:width="0.46,0.27,0.44,0.55,0.31,0.53,0.43,0.55,0.37,0.44,0.31,0.27,0.51,0.55,0.44,0.25,0.55,0.37,0.43,0.25,0.43,0.42,0.31,0.27,0.51,0.55,0.55,0.51,0.3,0.55,0.31,0.53,0.43,0.55,0.82,0.43,0.31,0.44,0.25,0.55,0.27,0.51,0.55,0.55,0.44,0.55,0.53,0.55,0.51,0.37,0.47,0.44,0.55,0.27,0.42,0.55,0.82,0.51,0.25,0.43,0.42,0.53,0.25,0.43" style="fill:rgb(23,22,21);font-family:MinionPro-Regular;font-size:9.46px;stroke:none;">via the rational selection of the metal ion and organic molecule</text>
   <text y="493.634" x="44.829" svgx:width="0.35" style="fill:rgb(23,22,21);font-family:MinionPro-Regular;font-size:9.46px;stroke:none;">(</text>
  </g>
  <g begin="text">
   <text y="493.634" x="48.105,53.983,58.807,63.829,68.859,73.017,78.192,80.74619999999999,83.458,87.481,90.41359999999999,93.097,97.255,99.649,101.809,103.98479999999999,106.687,111.232,115.777,120.322" svgx:width="0.62,0.51,0.53,0.53,0.44,0.55,0.27,0.55,0.43,0.31,0.55,0.44,0.25,0.23,0.23,0.55,0.48,0.48,0.48,0.48" style="fill:rgb(109,109,108);font-family:MinionPro-Regular;font-size:9.46px;stroke:none;">Rouhani et al., 2019</text>
  </g>
  <g begin="text">
   <text y="493.634" x="124.866,128.142,130.3178,133.029,138.033,143.055,146.565,149.49,154.548,158.571,162.081,169.83,174.654,178.164,182.133,184.30880000000002,187.02,189.945,195.003,199.026,203.3776,206.1,208.899,212.967,217.125,220.014,225.036,228.546,232.6138,235.296,240.255,245.079,249.903,253.4032,256.15,260.173,262.567,266.644,270.649,273.538,277.048,279.586,283.618,287.776" svgx:width="0.35,0.23,0.55,0.53,0.53,0.37,0.31,0.53,0.43,0.37,0.82,0.51,0.37,0.43,0.23,0.55,0.31,0.53,0.43,0.46,0.55,0.3,0.43,0.44,0.31,0.53,0.37,0.43,0.55,0.52,0.51,0.51,0.37,0.55,0.43,0.25,0.43,0.42,0.31,0.37,0.27,0.42,0.44,0.25" style="fill:rgb(23,22,21);font-family:MinionPro-Regular;font-size:9.46px;stroke:none;">). Furthermore, they feature poor electrical</text>
   <text y="505.091" x="44.829,48.834,53.658,58.833,63.828,68.85,72.855,75.744,78.282,82.665,85.203,88.092,92.4436,100.638,104.796,109.971,114.9848,123.165,129.645,133.668,136.062,138.456,141.822,146.817,150.831,155.898,161.073,165.096,170.1098,178.299,183.258,188.082,191.592,196.416,201.438,204.9382,213.12,216.594,219.483,222.993,228.015,232.02,234.909,239.931,243.441,247.41,249.5858,257.769,261.927,264.321,266.715,271.539,278.019,280.557,285.732" svgx:width="0.42,0.51,0.55,0.53,0.53,0.42,0.31,0.27,0.46,0.27,0.31,0.46,0.55,0.44,0.55,0.53,0.55,0.69,0.43,0.25,0.25,0.36,0.53,0.43,0.54,0.55,0.43,0.53,0.55,0.52,0.51,0.37,0.51,0.53,0.37,0.55,0.37,0.31,0.37,0.53,0.42,0.31,0.53,0.37,0.43,0.23,0.55,0.44,0.25,0.25,0.51,0.69,0.27,0.55,0.47" style="fill:rgb(23,22,21);font-family:MinionPro-Regular;font-size:9.46px;stroke:none;">conductivity and well-deﬁned porous structure, allowing</text>
   <text y="516.548" x="44.829,47.628,52.452,55.9522,61.56,64.368,68.516,71.99,74.92259999999999,80.468,83.006,87.83,93.033,98.603,103.598,106.136,111.446,116.468,119.942,122.48,127.304,132.507,138.068" svgx:width="0.3,0.51,0.37,0.55,0.3,0.44,0.37,0.31,0.55,0.27,0.51,0.55,0.55,0.53,0.27,0.56,0.53,0.37,0.27,0.51,0.55,0.55,0.35" style="fill:rgb(23,22,21);font-family:MinionPro-Regular;font-size:9.46px;stroke:none;">for fast ion diﬀusion (</text>
  </g>
  <g begin="text">
   <text y="516.548" x="141.345,147.051,152.109,157.1228,162.729,166.752,169.68460000000002,175.221,179.379,181.773,183.933,186.1088,191.682,196.227,200.772,205.317" svgx:width="0.6,0.53,0.53,0.55,0.43,0.31,0.55,0.44,0.25,0.23,0.23,0.55,0.48,0.48,0.48,0.48" style="fill:rgb(109,109,108);font-family:MinionPro-Regular;font-size:9.46px;stroke:none;">Zhu et al., 2019</text>
  </g>
  <g begin="text">
   <text y="516.548" x="209.862,213.138,215.31380000000001,220.896,226.728,231.786,235.809,239.319,243.333,246.132,250.956,254.466,258.435,260.6108,266.184,274.617,281.691,286.695" svgx:width="0.35,0.23,0.55,0.62,0.53,0.43,0.37,0.43,0.3,0.51,0.37,0.43,0.23,0.55,0.89,0.75,0.53,0.37" style="fill:rgb(23,22,21);font-family:MinionPro-Regular;font-size:9.46px;stroke:none;">). Therefore, MOFs</text>
   <text y="528.005" x="44.829,48.834,53.658,58.68,61.074,66.0878,70.704,75.51,79.57780000000001,84.15,89.109,92.619,97.443,105.192,107.73,111.204,113.742,118.917,123.3632,127.972,132.004,136.162,141.337,146.332,148.87,153.882,158.04,160.929,164.934,168.4342,173.025,177.174,180.6742,185.265,187.803,192.798,196.866,201.024,203.389,208.036,210.574,215.398,220.573,223.111,227.08419999999998,231.741,235.746,240.57,245.745,250.74,255.762,259.768,262.656,267.481,270.927,274.4272,279.027,281.826,286.65" svgx:width="0.42,0.51,0.53,0.25,0.53,0.55,0.51,0.43,0.55,0.52,0.37,0.51,0.82,0.27,0.37,0.27,0.55,0.47,0.55,0.42,0.44,0.55,0.53,0.27,0.53,0.44,0.31,0.43,0.37,0.55,0.44,0.37,0.55,0.27,0.53,0.43,0.44,0.25,0.55,0.27,0.51,0.55,0.27,0.42,0.55,0.42,0.51,0.55,0.53,0.53,0.42,0.31,0.51,0.37,0.37,0.55,0.3,0.51,0.37" style="fill:rgb(23,22,21);font-family:MinionPro-Regular;font-size:9.46px;stroke:none;">could be promising candidates as ideal ionic conductors for</text>
   <text y="539.462" x="44.829,48.303,52.326,54.72,58.797,62.802,65.691,68.229,72.612,76.6798,81.135,84.024,87.534,91.692,96.867,100.341,105.3,110.124,113.634,116.523,118.69879999999999,123.192,131.472,135.63,140.805,145.1566,149.652,158.085,165.159,170.163,173.66320000000002,178.137,183.168,187.155,191.538,195.60580000000002,200.052,204.858,208.881,212.904,218.107,222.579,226.089,230.112,235.072,239.896,243.406,246.295,250.318,255.33180000000002,259.822,263.971,267.4712,271.935,275.41,280.234,282.628,285.166" svgx:width="0.37,0.43,0.25,0.43,0.42,0.31,0.27,0.46,0.43,0.55,0.31,0.37,0.44,0.55,0.37,0.52,0.51,0.37,0.31,0.23,0.55,0.89,0.44,0.55,0.46,0.55,0.89,0.75,0.53,0.37,0.55,0.53,0.44,0.46,0.43,0.55,0.51,0.43,0.43,0.55,0.55,0.37,0.43,0.52,0.51,0.37,0.31,0.43,0.53,0.55,0.44,0.37,0.55,0.37,0.51,0.25,0.27,0.53" style="fill:rgb(23,22,21);font-family:MinionPro-Regular;font-size:9.46px;stroke:none;">selective transport. Many MOFs have been reported as solid</text>
   <text y="550.919" x="44.829,49.923" svgx:width="0.54,0.27" style="fill:rgb(23,22,21);font-family:MinionPro-Regular;font-size:9.46px;stroke:none;">Li</text>
   <text y="547.481" x="52.461" svgx:width="0.78" style="fill:rgb(23,22,21);font-family:MTSY;font-size:7.19px;stroke:none;">+</text>
   <text y="550.919" x="61.938,65.943,70.767,75.942,80.937,85.959,89.964,92.853,97.677,101.124,104.598,106.7738,110.124,116.604,119.142,122.067,127.0808,130.491,133.416,138.474,142.5418,145.863,149.868,154.692,159.867,164.862,169.884,173.889,176.778,179.316,183.699,186.237,189.126,191.664,195.668,199.1682,202.499,206.648,210.1482,213.488,218.546,221.084,225.566,230.5798,233.981,238.13,241.6302,244.97" svgx:width="0.42,0.51,0.55,0.53,0.53,0.42,0.31,0.51,0.37,0.37,0.23,0.55,0.69,0.27,0.31,0.53,0.55,0.31,0.53,0.43,0.55,0.42,0.51,0.55,0.53,0.53,0.42,0.31,0.27,0.46,0.27,0.31,0.27,0.43,0.37,0.55,0.44,0.37,0.55,0.53,0.27,0.47,0.53,0.55,0.44,0.37,0.55,0.48" style="fill:rgb(23,22,21);font-family:MinionPro-Regular;font-size:9.46px;stroke:none;">conductors, with the conductivities as high as 3</text>
   <text y="550.919" x="252.881" svgx:width="0.78" style="fill:rgb(23,22,21);font-family:MTSY;font-size:9.46px;stroke:none;">×</text>
   <text y="550.919" x="263.663,268.208" svgx:width="0.48,0.48" style="fill:rgb(23,22,21);font-family:MinionPro-Regular;font-size:9.46px;stroke:none;">10</text>
   <text y="547.481" x="272.754" svgx:width="0.78" style="fill:rgb(23,22,21);font-family:MTSY;font-size:7.19px;stroke:none;">−</text>
   <text y="547.481" x="278.361" svgx:width="0.48" style="fill:rgb(23,22,21);font-family:MinionPro-Regular;font-size:7.19px;stroke:none;">4</text>
   <text y="550.919" x="285.679" svgx:width="0.47" style="fill:rgb(23,22,21);font-family:MinionPro-Regular;font-size:9.46px;stroke:none;">S</text>
   <text y="562.376" x="44.83,48.835" svgx:width="0.42,0.82" style="fill:rgb(23,22,21);font-family:MinionPro-Regular;font-size:9.46px;stroke:none;">cm</text>
   <text y="558.938" x="56.583" svgx:width="0.78" style="fill:rgb(23,22,21);font-family:MTSY;font-size:7.19px;stroke:none;">−</text>
   <text y="558.938" x="62.191" svgx:width="0.48" style="fill:rgb(23,22,21);font-family:MinionPro-Regular;font-size:7.19px;stroke:none;">1</text>
   <text y="562.376" x="69.454,73.612,76.54459999999999,79.804,83.314,88.138,92.962,100.7192,104.023,106.912,110.935,118.684,123.643,127.666,131.176,135.334,138.223,143.245,146.755,150.778,152.9538,156.241,159.472,164.675,167.95,171.955,176.779,181.954,184.843,188.353,192.502,195.976,198.874,201.0498,204.337,207.262,212.32,216.3878,219.646,226.126,230.95,234.46,239.19,242.461,247.285,252.488,255.772,259.246,264.07,266.464,269.002,274.0158,277.309,285.742" svgx:width="0.44,0.31,0.55,0.37,0.51,0.51,0.82,0.55,0.31,0.43,0.82,0.52,0.43,0.37,0.44,0.31,0.53,0.37,0.43,0.23,0.55,0.34,0.55,0.55,0.42,0.51,0.55,0.31,0.37,0.44,0.37,0.31,0.23,0.55,0.31,0.53,0.43,0.55,0.69,0.51,0.37,0.5,0.55,0.51,0.55,0.55,0.37,0.51,0.25,0.27,0.53,0.55,0.89,0.47" style="fill:rgb(23,22,21);font-family:MinionPro-Regular;font-size:9.46px;stroke:none;">at room temperature. In contrast, the work on solid Mg</text>
   <text y="573.833" x="44.83,48.835,53.659,58.834,63.829,68.851,72.856,75.745,80.569,84.016,87.51620000000001,89.649,92.188,95.68820000000001,97.803,101.277,104.166,106.704,109.098,111.463,113.643,116.442,120.465,126.9924,129.096,131.634,136.837,138.96,141.885,146.943,151.01080000000002,153.108,158.175,162.198,164.592,169.587" svgx:width="0.42,0.51,0.55,0.53,0.53,0.42,0.31,0.51,0.37,0.37,0.55,0.27,0.37,0.55,0.37,0.31,0.27,0.25,0.25,0.55,0.3,0.43,0.69,0.55,0.27,0.55,0.55,0.31,0.53,0.43,0.55,0.54,0.43,0.25,0.53,0.23" style="fill:rgb(23,22,21);font-family:MinionPro-Regular;font-size:9.46px;stroke:none;">conductors is still few in the ﬁeld.</text>
   <text y="585.29" x="56.287,59.518,64.721,68.347,72.892,77.437,81.982,86.527,88.7028,92.332,98.875,103.897,108.703,112.213,116.236,120.58760000000001,124.237,128.395,133.57,138.5838,142.219,147.313,152.137,157.312,161.75820000000002,165.394,170.461,173.908,177.382,180.3146,183.916,188.875,192.385,196.39,199.864,203.887,209.062,211.951,215.974,220.9878,224.623,229.582,234.406,237.916,242.74,247.762,251.2622,254.9,263.332,270.406,275.41,278.91020000000003,282.538,287.363" svgx:width="0.34,0.55,0.55,0.48,0.48,0.48,0.48,0.23,0.55,0.69,0.53,0.51,0.37,0.43,0.46,0.55,0.44,0.55,0.53,0.55,0.54,0.51,0.55,0.47,0.55,0.54,0.37,0.37,0.31,0.55,0.52,0.37,0.43,0.37,0.43,0.55,0.31,0.43,0.53,0.55,0.52,0.51,0.37,0.51,0.53,0.37,0.55,0.89,0.75,0.53,0.37,0.55,0.51,0.3" style="fill:rgb(23,22,21);font-family:MinionPro-Regular;font-size:9.46px;stroke:none;">In 2014, Aubrey and Long ﬁrst presented porous MOFs of</text>
   <text y="596.747" x="44.83,53.262" svgx:width="0.89,0.47" style="fill:rgb(23,22,21);font-family:MinionPro-Regular;font-size:9.46px;stroke:none;">Mg</text>
   <text y="598.169" x="57.69" svgx:width="0.48" style="fill:rgb(23,22,21);font-family:MinionPro-Regular;font-size:7.19px;stroke:none;">2</text>
   <text y="596.747" x="61.642,64.918,69.913,74.737,79.543,84.52,88.525,91.83600000000001,94.177,97.453,102.448,107.272,112.078,117.055" svgx:width="0.35,0.53,0.51,0.51,0.53,0.42,0.35,0.55,0.35,0.53,0.51,0.51,0.53,0.42" style="fill:rgb(23,22,21);font-family:MinionPro-Regular;font-size:9.46px;stroke:none;">(dobdc) (dobdc</text>
   <text y="593.309" x="121.06" svgx:width="0.48" style="fill:rgb(23,22,21);font-family:MinionPro-Regular;font-size:7.19px;stroke:none;">4</text>
   <text y="593.309" x="124.516" svgx:width="0.78" style="fill:rgb(23,22,21);font-family:MTSY;font-size:7.19px;stroke:none;">−</text>
   <text y="596.747" x="133.003" svgx:width="0.78" style="fill:rgb(23,22,21);font-family:MTSY;font-size:9.46px;stroke:none;">=</text>
   <text y="596.747" x="142.758,147.303,149.464,154.008,157.374,162.369,164.907,169.731,174.195,176.733,181.728,186.552,191.358,195.381,200.556,204.534,208.557,213.732,217.755,221.121,225.666,227.826,232.371,235.737,240.732,243.27,247.303,251.461,254.98,259.786,264.61,269.074,273.421,275.815,279.973,282.862,286.885" svgx:width="0.48,0.23,0.48,0.36,0.53,0.27,0.51,0.47,0.27,0.53,0.51,0.51,0.43,0.55,0.42,0.43,0.55,0.43,0.36,0.48,0.23,0.48,0.36,0.53,0.27,0.42,0.44,0.37,0.51,0.51,0.47,0.46,0.25,0.44,0.31,0.43,0.35" style="fill:rgb(23,22,21);font-family:MinionPro-Regular;font-size:9.46px;stroke:none;">2,5-dioxidobenzene-1,4-dicarboxylate)</text>
   <text y="608.204" x="44.83,48.988,54.163,59.1768,61.957,64.495,67.384,70.8842,73.648,77.806,82.981,87.139,89.533,94.357,98.8032,101.584,110.016" svgx:width="0.44,0.55,0.53,0.55,0.27,0.31,0.37,0.55,0.44,0.55,0.44,0.25,0.51,0.47,0.55,0.89,0.47" style="fill:rgb(23,22,21);font-family:MinionPro-Regular;font-size:9.46px;stroke:none;">and its analog Mg</text>
   <text y="609.626" x="114.445" svgx:width="0.48" style="fill:rgb(23,22,21);font-family:MinionPro-Regular;font-size:7.19px;stroke:none;">2</text>
   <text y="608.204" x="118.396,121.672,126.667,131.491,136.297,141.256,146.233,150.238,153.549,156.322,159.598,164.593,169.417,174.223,179.183,184.16" svgx:width="0.35,0.53,0.51,0.51,0.52,0.53,0.42,0.35,0.55,0.35,0.53,0.51,0.51,0.52,0.53,0.42" style="fill:rgb(23,22,21);font-family:MinionPro-Regular;font-size:9.46px;stroke:none;">(dobpdc) (dobpdc</text>
   <text y="604.766" x="188.164" svgx:width="0.48" style="fill:rgb(23,22,21);font-family:MinionPro-Regular;font-size:7.19px;stroke:none;">4</text>
   <text y="604.766" x="191.619" svgx:width="0.78" style="fill:rgb(23,22,21);font-family:MTSY;font-size:7.19px;stroke:none;">−</text>
   <text y="608.204" x="199.873" svgx:width="0.78" style="fill:rgb(23,22,21);font-family:MTSY;font-size:9.46px;stroke:none;">=</text>
   <text y="608.204" x="207.253,211.798,213.958" svgx:width="0.48,0.23,0.48" style="fill:rgb(23,22,21);font-family:MinionPro-Regular;font-size:9.46px;stroke:none;">4,4</text>
   <text y="604.766" x="218.503" svgx:width="0.27" style="fill:rgb(23,22,21);font-family:MTSY;font-size:7.19px;stroke:none;">′</text>
   <text y="608.204" x="220.942,224.308,229.303,231.841,236.665,241.129,243.667,248.662,253.486,258.292,260.83,265.789,270.847,274.87,280.045,284.392,286.786" svgx:width="0.36,0.53,0.27,0.51,0.47,0.27,0.53,0.51,0.51,0.27,0.52,0.53,0.43,0.55,0.46,0.25,0.36" style="fill:rgb(23,22,21);font-family:MinionPro-Regular;font-size:9.46px;stroke:none;">-dioxidobiphenyl-</text>
   <text y="619.661" x="44.83,49.375,51.535" svgx:width="0.48,0.23,0.48" style="fill:rgb(23,22,21);font-family:MinionPro-Regular;font-size:9.46px;stroke:none;">3,3</text>
   <text y="616.223" x="56.08" svgx:width="0.27" style="fill:rgb(23,22,21);font-family:MTSY;font-size:7.19px;stroke:none;">′</text>
   <text y="619.661" x="58.519,61.885,66.88,69.418,73.45,77.608,81.127,85.933,90.757,95.221,99.568,101.962,106.12,109.009,113.032,116.34299999999999,121.114,125.262,128.7622,133.534,137.008,141.832,144.226,146.764,151.7778,156.564,164.997" svgx:width="0.36,0.53,0.27,0.42,0.44,0.37,0.51,0.51,0.47,0.46,0.25,0.44,0.31,0.43,0.35,0.55,0.44,0.37,0.55,0.37,0.51,0.25,0.27,0.53,0.55,0.89,0.47" style="fill:rgb(23,22,21);font-family:MinionPro-Regular;font-size:9.46px;stroke:none;">-dicarboxylate) as solid Mg</text>
   <text y="616.223" x="169.426" svgx:width="0.48" style="fill:rgb(23,22,21);font-family:MinionPro-Regular;font-size:7.19px;stroke:none;">2</text>
   <text y="616.223" x="172.882" svgx:width="0.78" style="fill:rgb(23,22,21);font-family:MTSY;font-size:7.19px;stroke:none;">+</text>
   <text y="619.661" x="183.79,187.795,192.619,197.794,202.789,207.811,211.816,214.705,219.529,222.976,226.4762,231.256" svgx:width="0.42,0.51,0.55,0.53,0.53,0.42,0.31,0.51,0.37,0.37,0.55,0.35" style="fill:rgb(23,22,21);font-family:MinionPro-Regular;font-size:9.46px;stroke:none;">conductors (</text>
  </g>
  <g begin="text">
   <text y="619.661" x="234.531,241.074,246.096,250.902,254.412,258.435,262.7866,267.588,271.611,274.54359999999997,279.297,283.455,285.849,288.009" svgx:width="0.69,0.53,0.51,0.37,0.43,0.46,0.55,0.43,0.31,0.55,0.44,0.25,0.23,0.23" style="fill:rgb(109,109,108);font-family:MinionPro-Regular;font-size:9.46px;stroke:none;">Aubrey et al.,</text>
   <text y="631.118" x="44.829,49.374,53.919,58.464" svgx:width="0.48,0.48,0.48,0.48" style="fill:rgb(109,109,108);font-family:MinionPro-Regular;font-size:9.46px;stroke:none;">2014</text>
  </g>
  <g begin="text">
   <text y="631.118" x="63.009,66.285,68.46079999999999,71.901,77.733,82.791,86.796,90.27,94.3378,97.74,106.173,113.247,118.251,121.75120000000001,125.181,129.186,133.65,138.708,141.246,146.052,148.59,151.479,155.502,160.5158,163.953,166.491,171.315,176.49,179.028,183.00119999999998,186.489,190.494,195.318,200.493,205.488,210.51,214.515,217.404,219.942,224.325,226.863,229.752,232.29,236.295,239.7952,243.225,248.049,250.887,254.313,259.335,264.25419999999997,267.751,270.64,275.46459999999996,278.92,283.465,285.625" svgx:width="0.35,0.23,0.55,0.62,0.53,0.43,0.37,0.43,0.55,0.89,0.75,0.53,0.37,0.55,0.43,0.47,0.53,0.27,0.51,0.27,0.31,0.43,0.53,0.55,0.27,0.51,0.55,0.27,0.42,0.55,0.42,0.51,0.55,0.53,0.53,0.42,0.31,0.27,0.46,0.27,0.31,0.27,0.43,0.37,0.55,0.51,0.3,0.55,0.53,0.52,0.55,0.31,0.51,0.55,0.48,0.23,0.48" style="fill:rgb(23,22,21);font-family:MinionPro-Regular;font-size:9.46px;stroke:none;">). These MOFs exhibited ionic conductivities of up to 2.5</text>
   <text y="642.575" x="44.829" svgx:width="0.78" style="fill:rgb(23,22,21);font-family:MTSY;font-size:9.46px;stroke:none;">×</text>
   <text y="642.575" x="55.89,60.435" svgx:width="0.48,0.48" style="fill:rgb(23,22,21);font-family:MinionPro-Regular;font-size:9.46px;stroke:none;">10</text>
   <text y="639.137" x="64.98" svgx:width="0.78" style="fill:rgb(23,22,21);font-family:MTSY;font-size:7.19px;stroke:none;">−</text>
   <text y="639.137" x="70.587" svgx:width="0.48" style="fill:rgb(23,22,21);font-family:MinionPro-Regular;font-size:7.19px;stroke:none;">4</text>
   <text y="642.575" x="78.183,82.62920000000001,86.31,90.315" svgx:width="0.47,0.55,0.42,0.82" style="fill:rgb(23,22,21);font-family:MinionPro-Regular;font-size:9.46px;stroke:none;">S cm</text>
   <text y="639.137" x="98.064" svgx:width="0.78" style="fill:rgb(23,22,21);font-family:MTSY;font-size:7.19px;stroke:none;">−</text>
   <text y="639.137" x="103.671" svgx:width="0.48" style="fill:rgb(23,22,21);font-family:MinionPro-Regular;font-size:7.19px;stroke:none;">1</text>
   <text y="642.575" x="111.267,115.425,118.35759999999999,121.95,125.46,130.284,135.108,142.86520000000002,146.511,149.4,153.423,161.172,166.131,170.154,173.664,177.822,180.711,185.733,189.243,193.3108,196.911,200.997,203.796,206.685,210.708,214.2082,217.854,221.328,226.152,230.31,235.008,239.031,244.0448,247.662,250.2,255.403,259.02,262.494,267.318,269.712,274.734,277.623,280.161,284.985" svgx:width="0.44,0.31,0.55,0.37,0.51,0.51,0.82,0.55,0.31,0.43,0.82,0.52,0.43,0.37,0.44,0.31,0.53,0.37,0.43,0.55,0.44,0.3,0.31,0.43,0.37,0.55,0.37,0.51,0.44,0.5,0.43,0.53,0.55,0.27,0.55,0.55,0.37,0.51,0.25,0.53,0.31,0.27,0.51,0.55" style="fill:rgb(23,22,21);font-family:MinionPro-Regular;font-size:9.46px;stroke:none;">at room temperature after soaked in solution</text>
   <text y="654.032" x="44.829,48.834,53.658,58.833,61.776,65.934,68.472,73.647,76.185,81.36,85.8062,89.631,98.064,102.5102,106.326,109.854,114.012,116.406,119.304,121.4798,125.298,129.303,134.127,141.876,146.835,150.993,154.503,158.58,163.386,165.78,169.8478,173.637,180.117,182.655,185.58,190.59380000000002,194.473,199.432,204.256,206.65,210.997,218.746,222.769,226.2692,230.113,234.541,238.564,240.958,244.432,246.6078,250.444,256.833,260.33320000000003,264.132,268.164,272.322,277.525,281.332,286.138" svgx:width="0.42,0.51,0.55,0.31,0.44,0.27,0.55,0.27,0.55,0.47,0.55,0.89,0.47,0.55,0.37,0.44,0.25,0.31,0.23,0.55,0.42,0.51,0.82,0.52,0.44,0.37,0.44,0.51,0.25,0.43,0.55,0.69,0.27,0.31,0.53,0.55,0.52,0.51,0.25,0.46,0.82,0.43,0.37,0.55,0.47,0.43,0.25,0.37,0.23,0.55,0.69,0.37,0.55,0.42,0.44,0.55,0.55,0.51,0.43" style="fill:rgb(23,22,21);font-family:MinionPro-Regular;font-size:9.46px;stroke:none;">containing Mg salt, comparable with polymer gels. As can be</text>
   <text y="665.489" x="44.829,48.303,52.326,56.349,61.552,64.053,66.591" svgx:width="0.37,0.43,0.43,0.55,0.55,0.27,0.55" style="fill:rgb(23,22,21);font-family:MinionPro-Regular;font-size:9.46px;stroke:none;">seen in</text>
   <text y="665.489" x="74.295,79.443,82.233,86.886,92.142,95.967,100.1294,102.159,106.893" svgx:width="0.55,0.29,0.49,0.56,0.4,0.44,0.55,0.5,0.76" style="fill:rgb(23,22,21);font-family:MinionPro-Bold;font-size:9.46px;stroke:none;">Figure 1D</text>
   <text y="665.489" x="114.093,116.2688,118.782,127.215" svgx:width="0.23,0.55,0.89,0.47" style="fill:rgb(23,22,21);font-family:MinionPro-Regular;font-size:9.46px;stroke:none;">, Mg</text>
   <text y="666.911" x="131.643" svgx:width="0.48" style="fill:rgb(23,22,21);font-family:MinionPro-Regular;font-size:7.19px;stroke:none;">2</text>
   <text y="665.489" x="135.594,138.87,143.865,148.689,153.495,158.472,162.477,165.788,168.291,171.72,176.778,181.602,188.082,191.5822,194.085,197.01,202.068,206.13580000000002,208.611,213.571,218.395,221.905,225.9728,228.457,231.931,234.469,238.447,242.5148,244.999,249.823,252.661,255.151,259.696,264.2368,266.77,273.2974,275.842,280.0,285.175" svgx:width="0.35,0.53,0.51,0.51,0.53,0.42,0.35,0.55,0.37,0.53,0.51,0.69,0.37,0.55,0.31,0.53,0.43,0.55,0.52,0.51,0.37,0.43,0.55,0.37,0.27,0.42,0.43,0.55,0.51,0.3,0.55,0.48,0.48,0.55,0.69,0.55,0.44,0.55,0.53" style="fill:rgb(23,22,21);font-family:MinionPro-Regular;font-size:9.46px;stroke:none;">(dobdc) shows the pore size of 13 Å and</text>
   <text y="676.946" x="44.829,53.262" svgx:width="0.89,0.47" style="fill:rgb(23,22,21);font-family:MinionPro-Regular;font-size:9.46px;stroke:none;">Mg</text>
   <text y="678.368" x="57.69" svgx:width="0.48" style="fill:rgb(23,22,21);font-family:MinionPro-Regular;font-size:7.19px;stroke:none;">2</text>
   <text y="676.946" x="61.641,64.917,69.912,74.736,79.542,84.501,89.478,93.483,96.79400000000001,99.027,104.058,108.207,111.7072,113.94,116.865,121.923,125.99080000000001,128.205,133.164,137.988,141.498,145.5658,147.789,151.263,153.801,157.779,161.8468,164.052,169.074,173.9932,176.301,179.19,184.0146,186.282,190.827,195.3678,197.631,204.174,206.34980000000002,208.593,212.067,217.089,221.571,225.999,230.004,233.478,236.367,238.905,244.08,248.52620000000002,250.776,253.701,258.759,262.782,265.32,268.8202,271.089,275.517,280.341,285.165" svgx:width="0.35,0.53,0.51,0.51,0.52,0.53,0.42,0.35,0.55,0.53,0.44,0.37,0.55,0.31,0.53,0.43,0.55,0.52,0.51,0.37,0.43,0.55,0.37,0.27,0.42,0.43,0.55,0.53,0.52,0.55,0.31,0.51,0.55,0.48,0.48,0.55,0.69,0.23,0.55,0.37,0.53,0.47,0.47,0.43,0.37,0.31,0.27,0.55,0.47,0.55,0.31,0.53,0.43,0.27,0.37,0.55,0.47,0.51,0.51,0.53" style="fill:rgb(23,22,21);font-family:MinionPro-Regular;font-size:9.46px;stroke:none;">(dobpdc) has the pore size up to 21 Å, suggesting their good</text>
   <text y="688.403" x="44.829,48.906,53.712,56.25,58.644,61.182,64.071,68.4226,70.776,73.665,78.48960000000001,80.856,84.996,89.01,93.015,97.839,105.588,113.337,118.161,123.174,127.332,130.221,134.2888,136.611,139.536,144.594,148.6618,150.975,153.513,158.337,163.54,165.879,169.353,174.312,178.389,182.394,184.932,188.937,192.43720000000002,194.778,197.172,199.71,204.408,208.4758,210.789,219.222" svgx:width="0.44,0.51,0.27,0.25,0.27,0.31,0.46,0.55,0.31,0.51,0.55,0.44,0.42,0.42,0.51,0.82,0.82,0.51,0.53,0.44,0.31,0.43,0.55,0.31,0.53,0.43,0.55,0.27,0.51,0.55,0.55,0.37,0.52,0.43,0.42,0.27,0.43,0.37,0.55,0.25,0.27,0.5,0.43,0.55,0.89,0.47" style="fill:rgb(23,22,21);font-family:MinionPro-Regular;font-size:9.46px;stroke:none;">ability to accommodate the ion species like Mg</text>
   <text y="684.965" x="223.65" svgx:width="0.48" style="fill:rgb(23,22,21);font-family:MinionPro-Regular;font-size:7.19px;stroke:none;">2</text>
   <text y="684.965" x="227.106" svgx:width="0.78" style="fill:rgb(23,22,21);font-family:MTSY;font-size:7.19px;stroke:none;">+</text>
   <text y="688.403" x="235.575,238.113,243.316,245.655,250.713,253.251,257.733,262.7468,265.149,269.1,274.131,278.289,281.727,286.155" svgx:width="0.27,0.55,0.55,0.53,0.27,0.47,0.53,0.55,0.42,0.53,0.44,0.37,0.47,0.43" style="fill:rgb(23,22,21);font-family:MinionPro-Regular;font-size:9.46px;stroke:none;">in high charge</text>
   <text y="699.86" x="44.829,49.824,53.847,59.022,62.496,65.034,67.923,72.27,74.44579999999999,77.688,86.526,89.064,91.989,97.00280000000001,100.296,103.221,108.279,112.3468,115.551,118.089,123.264,126.738,130.761,134.271,137.16,139.698,144.522,149.725,152.955,157.779,160.617,163.835,172.268,176.7142,179.954,183.483,187.641,190.035,192.924,196.398,198.5738,201.806,205.9684,209.222,214.28,216.818,221.301,226.3148,229.608,234.603,238.626,243.801,247.275,249.813,252.702,257.0536,260.297,265.121,267.959,271.178,276.002,280.962,284.985" svgx:width="0.53,0.43,0.55,0.37,0.27,0.31,0.46,0.23,0.55,0.97,0.27,0.31,0.53,0.55,0.31,0.53,0.43,0.55,0.27,0.55,0.37,0.43,0.37,0.31,0.27,0.51,0.55,0.55,0.51,0.3,0.55,0.89,0.47,0.55,0.37,0.44,0.25,0.31,0.37,0.23,0.55,0.44,0.55,0.53,0.27,0.47,0.53,0.55,0.53,0.43,0.55,0.37,0.27,0.31,0.46,0.55,0.51,0.3,0.55,0.51,0.52,0.43,0.55" style="fill:rgb(23,22,21);font-family:MinionPro-Regular;font-size:9.46px;stroke:none;">density. With the insertion of Mg salts, a high density of open</text>
   <text y="711.317" x="44.829,52.578,56.601,59.544,63.702,66.067,68.661,72.135,74.673,77.562,81.567,85.0672,87.597,90.135,95.33800000000001,97.875,106.308,113.382,118.386,121.8862,124.425,128.43,133.254,138.276,140.67,145.6838,148.23,152.262,156.42,161.379,164.268,169.29,172.8,176.86780000000002,179.388,184.563,189.585,193.59,195.984,200.007,204.831,209.791,214.849,217.387,219.781,222.319,226.29219999999998,228.889,233.047,238.222,240.76,245.584,250.759,254.2592,256.798,260.956,266.131,271.1448,273.691,276.616,281.674,286.696" svgx:width="0.82,0.43,0.31,0.44,0.25,0.55,0.37,0.27,0.31,0.43,0.37,0.55,0.27,0.55,0.55,0.89,0.75,0.53,0.37,0.55,0.42,0.51,0.53,0.25,0.53,0.55,0.42,0.44,0.52,0.31,0.53,0.37,0.43,0.55,0.55,0.53,0.42,0.25,0.43,0.51,0.52,0.53,0.27,0.25,0.27,0.42,0.55,0.44,0.55,0.27,0.51,0.55,0.37,0.55,0.44,0.55,0.53,0.55,0.31,0.53,0.53,0.37" style="fill:rgb(23,22,21);font-family:MinionPro-Regular;font-size:9.46px;stroke:none;">metal sites in MOFs could capture nucleophilic anions and thus</text>
   <text y="69.725" x="305.109,309.267,311.661,314.055,318.879,325.4064,329.202,332.001,336.825,340.3252,344.178,347.103,352.161,356.2288,360.018,362.826,366.813,371.196,376.02,379.53,383.607,388.413,390.807,395.15860000000004,398.988,401.787,405.297,409.32,413.38779999999997,417.177,424.926,429.75,434.556,437.094,439.488,442.026,444.915,449.26660000000004,453.105,457.929,460.767,464.571,473.004,477.4502,481.266,483.804,488.628,493.803,497.3032,501.119,507.599,510.137,513.062,518.12,520.658,525.861,529.667,534.626,539.451,542.961,546.966" svgx:width="0.44,0.25,0.25,0.51,0.69,0.55,0.3,0.51,0.37,0.55,0.31,0.53,0.43,0.55,0.3,0.44,0.46,0.51,0.37,0.44,0.51,0.25,0.46,0.55,0.3,0.37,0.43,0.43,0.55,0.82,0.51,0.51,0.27,0.25,0.27,0.31,0.46,0.55,0.51,0.3,0.55,0.89,0.47,0.55,0.27,0.51,0.55,0.37,0.55,0.69,0.27,0.31,0.53,0.27,0.55,0.55,0.52,0.51,0.37,0.43,0.37" style="fill:rgb(23,22,21);font-family:MinionPro-Regular;font-size:9.46px;stroke:none;">allow for the favorably free mobility of Mg ions within pores</text>
   <text y="81.182" x="305.109" svgx:width="0.35" style="fill:rgb(23,22,21);font-family:MinionPro-Regular;font-size:9.46px;stroke:none;">(</text>
   <text y="81.182" x="308.385,313.533,316.323,320.976,326.232,330.057,334.2194,336.249,340.983" svgx:width="0.55,0.29,0.49,0.56,0.4,0.44,0.55,0.5,0.58" style="fill:rgb(23,22,21);font-family:MinionPro-Bold;font-size:9.46px;stroke:none;">Figure 1E</text>
   <text y="81.182" x="346.482,349.758,351.93379999999996,354.285,360.117,365.175,369.198,372.708,376.722,379.521,384.345,387.855,391.824,393.9998,396.351,401.409,403.947,408.429,413.4428,415.854,418.392,423.216,428.391,430.929,434.9022,437.301,441.306,446.13,451.305,456.3,461.322,465.327,468.216,470.754,475.137,477.675,480.564,484.91560000000004,487.278,493.758,497.907,501.4072,503.748,507.888,511.839,516.897,519.435,523.539,527.922,531.945,536.9588,539.307,542.106,546.93" svgx:width="0.35,0.23,0.55,0.62,0.53,0.43,0.37,0.43,0.3,0.51,0.37,0.43,0.23,0.55,0.53,0.27,0.47,0.53,0.55,0.27,0.51,0.55,0.27,0.42,0.55,0.42,0.51,0.55,0.53,0.53,0.42,0.31,0.27,0.46,0.27,0.31,0.46,0.55,0.69,0.44,0.37,0.55,0.44,0.42,0.53,0.27,0.43,0.46,0.43,0.53,0.55,0.3,0.51,0.37" style="fill:rgb(23,22,21);font-family:MinionPro-Regular;font-size:9.46px;stroke:none;">). Therefore, high ionic conductivity was achieved for</text>
   <text y="92.639" x="305.109,313.542" svgx:width="0.89,0.47" style="fill:rgb(23,22,21);font-family:MinionPro-Regular;font-size:9.46px;stroke:none;">Mg</text>
   <text y="94.061" x="317.97" svgx:width="0.48" style="fill:rgb(23,22,21);font-family:MinionPro-Regular;font-size:7.19px;stroke:none;">2</text>
   <text y="92.639" x="321.921,325.197,330.192,335.016,339.822,344.781,349.758,353.763,357.07399999999996,359.191,361.729,369.478,374.437,377.947,381.979,386.407,391.582,395.74,398.629,402.652,407.6658,409.798,416.278,418.816,421.741,426.7548,428.95,436.699,440.803,445.231,450.406,454.411,457.885,460.423,465.445,475.345,480.304,485.362,489.385,494.56,499.384,501.778,505.936,508.825,512.83,516.304" svgx:width="0.35,0.53,0.51,0.51,0.52,0.53,0.42,0.35,0.55,0.27,0.82,0.52,0.37,0.43,0.47,0.55,0.44,0.31,0.43,0.53,0.55,0.69,0.27,0.31,0.53,0.55,0.82,0.44,0.47,0.55,0.43,0.37,0.27,0.53,0.82,0.52,0.53,0.43,0.55,0.51,0.25,0.44,0.31,0.43,0.37,0.23" style="fill:rgb(23,22,21);font-family:MinionPro-Regular;font-size:9.46px;stroke:none;">(dobpdc) impregnated with magnesiumphenolates.</text>
   <text y="104.096" x="316.566,319.797,325.0,329.292,333.837,338.382,342.927,347.472,349.64779999999996,353.943,359.064,363.222,366.732,371.46200000000005,375.75,379.908,385.083,390.09680000000003,394.398,401.355,403.893,409.068,413.1,417.2624,421.578,426.538,430.048,434.872,439.831,444.655,448.129,452.152,457.1658,461.476,465.6384,469.954,476.245,481.267,484.543,487.774,491.005,494.281,499.204,503.362,507.34,512.164,514.558,518.716,521.605,525.6728,529.939,538.372,545.446" svgx:width="0.34,0.55,0.55,0.48,0.48,0.48,0.48,0.23,0.55,0.56,0.44,0.37,0.5,0.55,0.44,0.55,0.53,0.55,0.74,0.27,0.55,0.42,0.44,0.55,0.52,0.37,0.51,0.52,0.51,0.37,0.43,0.53,0.55,0.44,0.55,0.67,0.53,0.35,0.34,0.34,0.35,0.52,0.44,0.42,0.51,0.25,0.44,0.31,0.43,0.55,0.89,0.75,0.53" style="fill:rgb(23,22,21);font-family:MinionPro-Regular;font-size:9.46px;stroke:none;">In 2017, Park and Dinca proposed a Cu(II)–azolate MOF</text>
   <text y="115.552" x="305.109,308.385,316.818,320.049,325.359,328.725,333.27,337.815,341.126,346.995,351.144,354.6442,360.522,364.6844,370.584,373.473,378.495,383.67,387.747,392.553,394.947,399.0148,404.874,408.348,413.172,415.566,418.104,423.1178,429.012,433.034,435.428,439.506,443.511,446.4,449.91,454.734,457.128,461.475,464.364,468.43179999999995,474.291,477.09,481.914,485.4142,491.337,496.431" svgx:width="0.35,0.89,0.34,0.62,0.36,0.48,0.48,0.35,0.55,0.44,0.37,0.55,0.44,0.55,0.31,0.53,0.55,0.44,0.51,0.25,0.43,0.55,0.37,0.51,0.25,0.27,0.53,0.55,0.43,0.25,0.43,0.42,0.31,0.37,0.51,0.25,0.46,0.31,0.43,0.55,0.3,0.51,0.37,0.55,0.54,0.27" style="fill:rgb(23,22,21);font-family:MinionPro-Regular;font-size:9.46px;stroke:none;">(MIT-20) as a tunable solid electrolyte for Li</text>
   <text y="112.114" x="498.969" svgx:width="0.78" style="fill:rgb(23,22,21);font-family:MTSY;font-size:7.19px;stroke:none;">+</text>
   <text y="115.552" x="505.08,507.25579999999997,513.144,519.939" svgx:width="0.23,0.55,0.74,0.44" style="fill:rgb(23,22,21);font-family:MinionPro-Regular;font-size:9.46px;stroke:none;">, Na</text>
   <text y="112.114" x="524.097" svgx:width="0.78" style="fill:rgb(23,22,21);font-family:MTSY;font-size:7.19px;stroke:none;">+</text>
   <text y="115.552" x="536.112,540.27,545.445" svgx:width="0.44,0.55,0.53" style="fill:rgb(23,22,21);font-family:MinionPro-Regular;font-size:9.46px;stroke:none;">and</text>
   <text y="127.009" x="305.109,313.542" svgx:width="0.89,0.47" style="fill:rgb(23,22,21);font-family:MinionPro-Regular;font-size:9.46px;stroke:none;">Mg</text>
   <text y="123.571" x="317.97" svgx:width="0.48" style="fill:rgb(23,22,21);font-family:MinionPro-Regular;font-size:7.19px;stroke:none;">2</text>
   <text y="123.571" x="321.426" svgx:width="0.78" style="fill:rgb(23,22,21);font-family:MTSY;font-size:7.19px;stroke:none;">+</text>
   <text y="127.009" x="329.94,334.026,336.825,339.714,343.737,347.23720000000003,349.649,353.123,357.947,362.105,366.803,369.341,374.516,378.9622,381.348,383.885,389.08799999999997,391.473,394.397,399.456,403.5238,405.881,409.886,414.711,418.221,421.731,425.735,429.209,434.169,438.993,444.168,449.163,451.701,456.876,461.32219999999995,463.725,468.756,472.914,475.308,477.846,482.841,486.9088,489.257,494.082,497.5822,500.004,504.963,508.437,512.46,517.482,522.477,527.301,532.332,536.49,538.884,541.422,546.417" svgx:width="0.44,0.3,0.31,0.43,0.37,0.55,0.37,0.51,0.44,0.5,0.27,0.55,0.47,0.55,0.27,0.55,0.55,0.31,0.53,0.43,0.55,0.42,0.51,0.37,0.37,0.43,0.37,0.52,0.51,0.55,0.53,0.27,0.55,0.47,0.55,0.53,0.44,0.25,0.27,0.53,0.43,0.55,0.51,0.37,0.55,0.52,0.37,0.43,0.53,0.53,0.51,0.53,0.44,0.25,0.27,0.53,0.43" style="fill:rgb(23,22,21);font-family:MinionPro-Regular;font-size:9.46px;stroke:none;">after soaking in the corresponding halide or pseudohalide</text>
   <text y="138.466" x="305.109,308.637,312.795,315.189,318.078,321.5782,325.206" svgx:width="0.37,0.44,0.25,0.31,0.37,0.55,0.35" style="fill:rgb(23,22,21);font-family:MinionPro-Regular;font-size:9.46px;stroke:none;">salts (</text>
  </g>
  <g begin="text">
   <text y="138.467" x="328.482,333.603,337.761,341.271,346.00100000000003,349.614,353.637,356.5696,360.18,364.338,366.732,368.892,371.0678,374.697,379.242,383.787,388.332" svgx:width="0.56,0.44,0.37,0.5,0.55,0.43,0.31,0.55,0.44,0.25,0.23,0.23,0.55,0.48,0.48,0.48,0.48" style="fill:rgb(109,109,108);font-family:MinionPro-Regular;font-size:9.46px;stroke:none;">Park et al., 2017</text>
  </g>
  <g begin="text">
   <text y="138.467" x="392.877,396.153,398.3288,401.967,405.198,408.087,411.5872,415.206,423.639" svgx:width="0.35,0.23,0.55,0.34,0.31,0.37,0.55,0.89,0.47" style="fill:rgb(23,22,21);font-family:MinionPro-Regular;font-size:9.46px;stroke:none;">). Its Mg</text>
   <text y="135.029" x="428.067" svgx:width="0.48" style="fill:rgb(23,22,21);font-family:MinionPro-Regular;font-size:7.19px;stroke:none;">2</text>
   <text y="135.029" x="431.523" svgx:width="0.78" style="fill:rgb(23,22,21);font-family:MTSY;font-size:7.19px;stroke:none;">+</text>
   <text y="138.467" x="437.634,441.0,444.474,449.496,454.293,457.767,460.655,463.193,466.082,471.105,473.993,478.017,483.0308,486.666,490.824,495.998,500.156,502.55,507.374,511.829,514.0048,517.653,526.085,529.316,534.626,537.992,542.537,547.082" svgx:width="0.36,0.37,0.53,0.51,0.37,0.31,0.27,0.31,0.53,0.31,0.43,0.53,0.55,0.44,0.55,0.44,0.25,0.51,0.47,0.23,0.55,0.89,0.34,0.62,0.36,0.48,0.48,0.36" style="fill:rgb(23,22,21);font-family:MinionPro-Regular;font-size:9.46px;stroke:none;">-substituted analog, MIT-20-</text>
   <text y="149.924" x="305.109,313.542,317.97,323.532" svgx:width="0.89,0.47,0.59,0.37" style="fill:rgb(23,22,21);font-family:MinionPro-Regular;font-size:9.46px;stroke:none;">MgBr</text>
   <text y="151.346" x="327.042" svgx:width="0.48" style="fill:rgb(23,22,21);font-family:MinionPro-Regular;font-size:7.19px;stroke:none;">2</text>
   <text y="149.924" x="331.002,333.1778,338.211,342.216,346.68,351.738,354.276,359.082,361.62,364.509,368.532,373.5458,378.576,381.501,386.559,390.6268,395.631,404.064,408.5102,413.55,416.088,420.912,426.087,428.625,432.5982,437.688,441.693,446.517,451.692,456.687,461.709,465.714,468.603,471.141,475.524,478.062,480.951,485.30260000000004,490.347,495.171,498.009,503.028,507.573,509.733" svgx:width="0.23,0.55,0.43,0.47,0.53,0.27,0.51,0.27,0.31,0.43,0.53,0.55,0.31,0.53,0.43,0.55,0.89,0.47,0.55,0.27,0.51,0.55,0.27,0.42,0.55,0.42,0.51,0.55,0.53,0.53,0.42,0.31,0.27,0.46,0.27,0.31,0.46,0.55,0.51,0.3,0.55,0.48,0.23,0.48" style="fill:rgb(23,22,21);font-family:MinionPro-Regular;font-size:9.46px;stroke:none;">, exhibited the Mg ionic conductivity of 8.8</text>
   <text y="149.924" x="519.327" svgx:width="0.78" style="fill:rgb(23,22,21);font-family:MTSY;font-size:9.46px;stroke:none;">×</text>
   <text y="149.924" x="531.801,536.346" svgx:width="0.48,0.48" style="fill:rgb(23,22,21);font-family:MinionPro-Regular;font-size:9.46px;stroke:none;">10</text>
   <text y="146.486" x="540.891" svgx:width="0.78" style="fill:rgb(23,22,21);font-family:MTSY;font-size:7.19px;stroke:none;">−</text>
   <text y="146.486" x="546.498" svgx:width="0.48" style="fill:rgb(23,22,21);font-family:MinionPro-Regular;font-size:7.19px;stroke:none;">7</text>
   <text y="161.381" x="305.109,309.55519999999996,314.1,318.105" svgx:width="0.47,0.55,0.42,0.82" style="fill:rgb(23,22,21);font-family:MinionPro-Regular;font-size:9.46px;stroke:none;">S cm</text>
   <text y="157.943" x="325.854" svgx:width="0.78" style="fill:rgb(23,22,21);font-family:MTSY;font-size:7.19px;stroke:none;">−</text>
   <text y="157.943" x="331.461" svgx:width="0.48" style="fill:rgb(23,22,21);font-family:MinionPro-Regular;font-size:7.19px;stroke:none;">1</text>
   <text y="161.381" x="339.93,344.088,347.0206,351.477,354.402,359.46,363.52779999999996,367.983,371.493,376.317,381.141,388.89820000000003,393.408,396.297,400.32,408.069,413.028,417.051,420.561,424.719,427.608,432.63,436.14,440.163,442.3388,446.841,455.274,458.505,463.815,467.181,471.726,476.2668,480.779,487.259,491.408,494.9082,499.391,503.549,506.438,509.327,512.837,516.977,520.982,523.871,526.409,530.792,534.8598000000001,539.306,542.105,546.929" svgx:width="0.44,0.31,0.55,0.31,0.53,0.43,0.55,0.37,0.51,0.51,0.82,0.55,0.31,0.43,0.82,0.52,0.43,0.37,0.44,0.31,0.53,0.37,0.43,0.23,0.55,0.89,0.34,0.62,0.36,0.48,0.48,0.55,0.69,0.44,0.37,0.55,0.44,0.31,0.31,0.37,0.44,0.42,0.31,0.27,0.46,0.43,0.55,0.3,0.51,0.37" style="fill:rgb(23,22,21);font-family:MinionPro-Regular;font-size:9.46px;stroke:none;">at the room temperature. MIT-20 was attractive for</text>
   <text y="172.838" x="305.109,307.647,310.536,314.0362,317.763,320.562,324.63,328.788,331.677,336.699,340.209,344.2768,347.994,352.818,355.656,359.379,361.917,369.666,377.415,382.239,387.045,389.583,391.977,394.515,398.493,401.031,406.206,410.6522,414.396,418.554,423.729,426.267,431.091,436.266,439.7662,443.502,448.308,452.6596,456.408,459.333,464.391,468.4588,472.167,478.458,483.48,486.756,489.987,493.218,496.529,500.247,507.996,512.019,514.962,519.12,521.485,525.267,529.272,533.295,538.47,541.359,545.382,548.289" svgx:width="0.27,0.31,0.37,0.55,0.3,0.43,0.44,0.31,0.53,0.37,0.43,0.55,0.51,0.3,0.55,0.27,0.82,0.82,0.51,0.51,0.27,0.25,0.27,0.42,0.27,0.55,0.47,0.55,0.44,0.55,0.27,0.51,0.55,0.37,0.55,0.51,0.46,0.55,0.31,0.53,0.43,0.55,0.67,0.53,0.35,0.34,0.34,0.35,0.55,0.82,0.43,0.31,0.44,0.25,0.55,0.42,0.43,0.55,0.31,0.43,0.37,0.23" style="fill:rgb(23,22,21);font-family:MinionPro-Regular;font-size:9.46px;stroke:none;">its feature of immobilizing anions by the Cu(II) metal center,</text>
   <text y="184.295" x="305.109,309.267,311.661,314.055,318.879,325.359,327.897,333.072,337.5182,342.783,345.708,350.766,354.8338,360.063,362.871,366.858,371.241,376.065,379.575,383.652,388.458,390.852,395.2036,400.464,403.263,406.773,410.796,414.86379999999997,420.102,427.851,430.389,434.817,438.327,442.485,445.374,447.912,452.736,457.93899999999996,463.185,468.009,470.84700000000004,476.091,480.123,484.281,487.17,489.708,494.532,499.707,503.2072,508.455,514.935,517.473,520.398,525.456,527.994,533.197,538.443,541.368,546.426" svgx:width="0.44,0.25,0.25,0.51,0.69,0.27,0.55,0.47,0.55,0.31,0.53,0.43,0.55,0.3,0.44,0.46,0.51,0.37,0.44,0.51,0.25,0.46,0.55,0.3,0.37,0.43,0.43,0.55,0.82,0.27,0.47,0.37,0.44,0.31,0.27,0.51,0.55,0.55,0.51,0.3,0.55,0.42,0.44,0.31,0.27,0.51,0.55,0.37,0.55,0.69,0.27,0.31,0.53,0.27,0.55,0.55,0.31,0.53,0.43" style="fill:rgb(23,22,21);font-family:MinionPro-Regular;font-size:9.46px;stroke:none;">allowing the favorably free migration of cations within the</text>
   <text y="195.752" x="305.109,309.933,315.108,319.131,322.497,327.492,330.03,337.779,341.802,346.977,350.451,352.989,357.813,362.988,367.146,369.511,375.363,380.323,385.147,388.657,392.662,396.136,398.3118,404.137,409.375,413.533,416.422,420.445,423.9452,429.76,432.298,437.501,443.287,447.832,452.377,456.922,461.467,463.64279999999997,469.432,477.865,480.403,485.578,489.6,493.10020000000003,498.924,501.724,505.233,510.057,517.8142,523.63,530.587,533.125,538.3,542.332,545.742,546.975" svgx:width="0.51,0.55,0.43,0.36,0.53,0.27,0.82,0.43,0.55,0.37,0.27,0.51,0.55,0.44,0.25,0.55,0.52,0.51,0.37,0.43,0.37,0.23,0.55,0.54,0.44,0.31,0.43,0.37,0.55,0.27,0.55,0.55,0.48,0.48,0.48,0.48,0.23,0.55,0.89,0.27,0.55,0.43,0.37,0.55,0.3,0.37,0.51,0.82,0.55,0.74,0.27,0.55,0.42,0.44,0.22,0.37" style="fill:rgb(23,22,21);font-family:MinionPro-Regular;font-size:9.46px;stroke:none;">one-dimensional pores. Later in 2019, Miner from Dinca’s</text>
   <text y="207.209" x="305.109,309.537,313.047,317.871,322.893,327.81219999999996,331.281,335.286,340.11,345.285,348.174,350.712,355.887,360.909,364.932,369.9458,373.347,376.272,381.33,385.353,387.891,391.3912,394.812,401.292,406.116,409.626,414.356,417.744,422.568,427.77099999999996,431.163,434.088,439.146,443.2138,446.581,449.47,454.491,459.666,463.743,468.549,470.943,475.01079999999996,478.386,481.86,486.684,489.078,491.616,496.6298,500.031,504.054,506.448,510.525,514.53,517.419,520.929,525.753,528.148,532.495,535.384,539.4518,542.818,547.641" svgx:width="0.47,0.37,0.51,0.53,0.52,0.55,0.42,0.51,0.55,0.31,0.27,0.55,0.53,0.43,0.53,0.55,0.31,0.53,0.43,0.27,0.37,0.55,0.69,0.51,0.37,0.5,0.55,0.51,0.55,0.55,0.31,0.53,0.43,0.55,0.31,0.53,0.55,0.44,0.51,0.25,0.43,0.55,0.37,0.51,0.25,0.27,0.53,0.55,0.43,0.25,0.43,0.42,0.31,0.37,0.51,0.25,0.46,0.31,0.43,0.55,0.51,0.3" style="fill:rgb(23,22,21);font-family:MinionPro-Regular;font-size:9.46px;stroke:none;">group continued their work on the tunable solid electrolyte of</text>
   <text y="218.666" x="305.109,313.542,320.616,325.6298,328.455" svgx:width="0.89,0.75,0.53,0.55,0.35" style="fill:rgb(23,22,21);font-family:MinionPro-Regular;font-size:9.46px;stroke:none;">MOF (</text>
  </g>
  <g begin="text">
   <text y="218.666" x="331.731,340.164,342.702,347.877,351.9,355.4002,358.254,362.277,365.20959999999997,368.001,372.159,374.553,376.713,378.8888,381.708,386.253,390.798,395.343" svgx:width="0.89,0.27,0.55,0.43,0.37,0.55,0.43,0.31,0.55,0.44,0.25,0.23,0.23,0.55,0.48,0.48,0.48,0.48" style="fill:rgb(109,109,108);font-family:MinionPro-Regular;font-size:9.46px;stroke:none;">Miner et al., 2019</text>
  </g>
  <g begin="text">
   <text y="218.666" x="399.888,403.164,405.33979999999997,408.159,413.991,419.049,423.11679999999996,425.907,434.34,441.414,446.4278,449.253,455.733,459.882,463.3822,466.2,472.491" svgx:width="0.35,0.23,0.55,0.62,0.53,0.43,0.55,0.89,0.75,0.53,0.55,0.69,0.44,0.37,0.55,0.67,0.53" style="fill:rgb(23,22,21);font-family:MinionPro-Regular;font-size:9.46px;stroke:none;">). The MOF was Cu</text>
   <text y="220.088" x="477.513" svgx:width="0.48" style="fill:rgb(23,22,21);font-family:MinionPro-Regular;font-size:7.19px;stroke:none;">4</text>
   <text y="218.666" x="481.464,484.74,487.629,490.518,495.478,503.227" svgx:width="0.35,0.31,0.31,0.52,0.82,0.35" style="fill:rgb(23,22,21);font-family:MinionPro-Regular;font-size:9.46px;stroke:none;">(ttpm)</text>
   <text y="220.088" x="506.502" svgx:width="0.48" style="fill:rgb(23,22,21);font-family:MinionPro-Regular;font-size:7.19px;stroke:none;">2</text>
   <text y="218.666" x="510.453" svgx:width="0.28" style="fill:rgb(23,22,21);font-family:MTSY;font-size:9.46px;stroke:none;">·</text>
   <text y="218.666" x="513.081,517.626,519.786,524.331,530.622,535.644,541.935" svgx:width="0.48,0.23,0.48,0.67,0.53,0.67,0.25" style="fill:rgb(23,22,21);font-family:MinionPro-Regular;font-size:9.46px;stroke:none;">0.6CuCl</text>
   <text y="220.088" x="544.329" svgx:width="0.48" style="fill:rgb(23,22,21);font-family:MinionPro-Regular;font-size:7.19px;stroke:none;">2</text>
   <text y="218.666" x="548.289" svgx:width="0.23" style="fill:rgb(23,22,21);font-family:MinionPro-Regular;font-size:9.46px;stroke:none;">,</text>
   <text y="230.123" x="305.109,310.069,314.893,318.322,321.796,325.801,329.23,332.704,335.242,340.417,344.86319999999995,349.065,354.124,356.661,361.144,366.1578,370.423,373.897,378.919,382.465,385.273,389.412,393.417,397.48479999999995,401.67,405.828,409.338,413.406,417.5684,421.785,428.265,430.803,433.728,438.7418,443.007,447.966,450.36,454.383,459.558,462.447,466.7986,471.015,475.839,478.677,482.868,489.159,494.181,497.457,500.688,503.919,507.22999999999996,511.416,515.448,519.606,522.495,525.033,529.857,535.032,538.5322,542.727,545.616" svgx:width="0.52,0.51,0.37,0.37,0.43,0.37,0.37,0.27,0.55,0.47,0.55,0.53,0.27,0.47,0.53,0.55,0.37,0.53,0.37,0.3,0.44,0.42,0.43,0.55,0.44,0.37,0.43,0.44,0.55,0.69,0.27,0.31,0.53,0.55,0.52,0.25,0.43,0.55,0.31,0.46,0.55,0.51,0.3,0.55,0.67,0.53,0.35,0.34,0.34,0.35,0.55,0.42,0.44,0.31,0.27,0.51,0.55,0.37,0.55,0.31,0.51" style="fill:rgb(23,22,21);font-family:MinionPro-Regular;font-size:9.46px;stroke:none;">possessing high surface area with plenty of Cu(II) cations to</text>
   <text y="241.58" x="305.109,309.915,314.739,319.761,324.936,329.9498,333.828,338.859,343.017,345.411,347.949,352.944,357.0118,360.846,365.004,370.179,372.717,377.541,382.716,386.19,388.3658,392.248,395.479,398.368,401.8682,405.73,409.888,415.063,419.221,421.614,426.438,430.894,433.0698,436.942,443.233" svgx:width="0.51,0.51,0.53,0.55,0.53,0.55,0.53,0.44,0.25,0.27,0.53,0.43,0.55,0.44,0.55,0.27,0.51,0.55,0.37,0.23,0.55,0.34,0.31,0.37,0.55,0.44,0.55,0.44,0.25,0.51,0.47,0.23,0.55,0.67,0.53" style="fill:rgb(23,22,21);font-family:MinionPro-Regular;font-size:9.46px;stroke:none;">bound halide anions. Its analog, Cu</text>
   <text y="243.002" x="448.254" svgx:width="0.48" style="fill:rgb(23,22,21);font-family:MinionPro-Regular;font-size:7.19px;stroke:none;">4</text>
   <text y="241.58" x="452.205,455.481,458.37,461.259,466.219,473.968" svgx:width="0.35,0.31,0.31,0.52,0.82,0.35" style="fill:rgb(23,22,21);font-family:MinionPro-Regular;font-size:9.46px;stroke:none;">(ttpm)</text>
   <text y="243.002" x="477.243" svgx:width="0.48" style="fill:rgb(23,22,21);font-family:MinionPro-Regular;font-size:7.19px;stroke:none;">2</text>
   <text y="241.58" x="481.194" svgx:width="0.28" style="fill:rgb(23,22,21);font-family:MTSY;font-size:9.46px;stroke:none;">·</text>
   <text y="241.58" x="483.823,488.368,490.528,495.073,501.364,506.386,512.677" svgx:width="0.48,0.23,0.48,0.67,0.53,0.67,0.25" style="fill:rgb(23,22,21);font-family:MinionPro-Regular;font-size:9.46px;stroke:none;">0.6CuCl</text>
   <text y="243.002" x="515.07" svgx:width="0.48" style="fill:rgb(23,22,21);font-family:MinionPro-Regular;font-size:7.19px;stroke:none;">2</text>
   <text y="241.58" x="519.03,522.396,530.829,535.257,540.819" svgx:width="0.36,0.89,0.47,0.59,0.37" style="fill:rgb(23,22,21);font-family:MinionPro-Regular;font-size:9.46px;stroke:none;">-MgBr</text>
   <text y="243.002" x="544.329" svgx:width="0.48" style="fill:rgb(23,22,21);font-family:MinionPro-Regular;font-size:7.19px;stroke:none;">2</text>
   <text y="241.58" x="548.289" svgx:width="0.23" style="fill:rgb(23,22,21);font-family:MinionPro-Regular;font-size:9.46px;stroke:none;">,</text>
   <text y="253.037" x="305.109,309.114,313.578,318.636,321.174,325.98,328.518,331.407,335.43,340.4438,345.636,349.794,354.99699999999996,360.18,362.718,367.542,372.717,375.255,379.2282,384.471,388.476,393.3,398.475,403.47,408.492,412.497,415.386,417.924,422.307,424.845,427.734,432.0856,437.292,442.117,444.95500000000004,450.135,454.68,456.84" svgx:width="0.43,0.47,0.53,0.27,0.51,0.27,0.31,0.43,0.53,0.55,0.44,0.55,0.55,0.27,0.51,0.55,0.27,0.42,0.55,0.42,0.51,0.55,0.53,0.53,0.42,0.31,0.27,0.46,0.27,0.31,0.46,0.55,0.51,0.3,0.55,0.48,0.23,0.48" style="fill:rgb(23,22,21);font-family:MinionPro-Regular;font-size:9.46px;stroke:none;">exhibited an ionic conductivity of 1.3</text>
   <text y="253.037" x="466.587" svgx:width="0.78" style="fill:rgb(23,22,21);font-family:MTSY;font-size:9.46px;stroke:none;">×</text>
   <text y="253.037" x="479.223,483.768" svgx:width="0.48,0.48" style="fill:rgb(23,22,21);font-family:MinionPro-Regular;font-size:9.46px;stroke:none;">10</text>
   <text y="249.599" x="488.313" svgx:width="0.78" style="fill:rgb(23,22,21);font-family:MTSY;font-size:7.19px;stroke:none;">−</text>
   <text y="249.599" x="493.92" svgx:width="0.48" style="fill:rgb(23,22,21);font-family:MinionPro-Regular;font-size:7.19px;stroke:none;">4</text>
   <text y="253.037" x="503.082,507.52819999999997,512.775,516.78" svgx:width="0.47,0.55,0.42,0.82" style="fill:rgb(23,22,21);font-family:MinionPro-Regular;font-size:9.46px;stroke:none;">S cm</text>
   <text y="249.599" x="524.529" svgx:width="0.78" style="fill:rgb(23,22,21);font-family:MTSY;font-size:7.19px;stroke:none;">−</text>
   <text y="249.599" x="530.136" svgx:width="0.48" style="fill:rgb(23,22,21);font-family:MinionPro-Regular;font-size:7.19px;stroke:none;">1</text>
   <text y="253.037" x="539.307,542.106,546.93" svgx:width="0.3,0.51,0.37" style="fill:rgb(23,22,21);font-family:MinionPro-Regular;font-size:9.46px;stroke:none;">for</text>
   <text y="264.494" x="305.109,313.542,317.98819999999995,322.425,324.963,329.787,334.962,338.436,340.61179999999996,345.051,350.046,354.069,361.818,366.642,371.817,375.291,378.18,381.69,385.848,388.737,391.275,396.45,400.89619999999996,405.342,408.267,413.325,417.39279999999997,421.794,426.754,430.264,435.088,442.837,445.375,448.849,451.387,456.562,461.0082,465.454,468.253,473.275,476.164,481.186,484.696,488.7638,493.183,498.007,500.845,505.261,513.694,520.768,525.583,528.949,533.8,537.949,541.423,545.446" svgx:width="0.89,0.47,0.55,0.27,0.51,0.55,0.37,0.23,0.55,0.53,0.43,0.82,0.51,0.55,0.37,0.31,0.37,0.44,0.31,0.27,0.55,0.47,0.55,0.31,0.53,0.43,0.55,0.52,0.37,0.51,0.82,0.27,0.37,0.27,0.55,0.47,0.55,0.3,0.53,0.31,0.53,0.37,0.43,0.55,0.51,0.3,0.55,0.89,0.75,0.53,0.36,0.51,0.44,0.37,0.43,0.53" style="fill:rgb(23,22,21);font-family:MinionPro-Regular;font-size:9.46px;stroke:none;">Mg ions, demonstrating the promising future of MOF-based</text>
   <text y="275.951" x="305.109,308.583,313.407,315.801,318.339,323.3528,328.932,332.955,335.349,339.427,343.432,346.32,349.831,354.655,357.049,361.396,364.285,368.3528,373.905,376.794,381.61859999999996,387.207,392.031,396.991,399.88,402.418,410.167,412.705,416.683,420.75079999999997,426.304,429.229,434.287,438.35479999999995,443.899,446.437,451.261,456.436,458.974,462.9472,468.577,472.582,477.406,482.581,487.576,492.598,496.603,499.492,502.03,506.413,508.951,511.84,516.1916,521.776,526.159,528.697,532.8594,538.444,541.369,546.427" svgx:width="0.37,0.51,0.25,0.27,0.53,0.55,0.43,0.25,0.43,0.42,0.31,0.37,0.51,0.25,0.46,0.31,0.43,0.55,0.31,0.51,0.55,0.51,0.52,0.31,0.27,0.82,0.27,0.42,0.43,0.55,0.31,0.53,0.43,0.55,0.27,0.51,0.55,0.27,0.42,0.55,0.42,0.51,0.55,0.53,0.53,0.42,0.31,0.27,0.46,0.27,0.31,0.46,0.55,0.46,0.27,0.44,0.55,0.31,0.53,0.43" style="fill:rgb(23,22,21);font-family:MinionPro-Regular;font-size:9.46px;stroke:none;">solid electrolyte to optimize the ionic conductivity via the</text>
   <text y="287.408" x="305.109,309.114,313.938,319.113,322.002,325.512,330.336,332.701,337.734,342.558,345.396,350.352,352.89,357.885,361.908,367.083,369.972,372.51,375.399,379.746,381.92179999999996,386.901,391.329,395.352,400.176,407.925,411.948,414.837,418.347,422.6986,427.689,431.847,437.022,442.0358,447.012,452.007,454.545,458.018,460.908,464.418,466.956,471.762,476.784,479.672,482.211,487.034,492.23699999999997,497.213,502.037,504.875,509.831,512.756,517.814,521.8818,526.833,530.865,535.023,537.911,540.45,545.273" svgx:width="0.42,0.51,0.55,0.31,0.37,0.51,0.25,0.55,0.51,0.3,0.55,0.27,0.53,0.43,0.55,0.31,0.27,0.31,0.46,0.23,0.55,0.47,0.43,0.51,0.82,0.43,0.31,0.37,0.46,0.55,0.44,0.55,0.53,0.55,0.53,0.27,0.37,0.31,0.37,0.27,0.51,0.53,0.31,0.27,0.51,0.55,0.55,0.51,0.3,0.55,0.31,0.53,0.43,0.55,0.42,0.44,0.31,0.27,0.51,0.55" style="fill:rgb(23,22,21);font-family:MinionPro-Regular;font-size:9.46px;stroke:none;">control of identity, geometry and distribution of the cation</text>
   <text y="298.865" x="305.109,310.167,314.991,319.951,324.91,327.448,332.623,337.06919999999997,339.202,342.676,345.214,348.103,352.108,355.582" svgx:width="0.53,0.51,0.52,0.52,0.27,0.55,0.47,0.55,0.37,0.27,0.31,0.43,0.37,0.23" style="fill:rgb(23,22,21);font-family:MinionPro-Regular;font-size:9.46px;stroke:none;">hopping sites.</text>
   <text y="310.322" x="316.566,319.797,324.972,328.446,331.335,335.403,339.561,344.5748,347.319,352.143,354.981,357.714,362.674,366.184,370.189,373.618,377.092,381.115,386.1288,388.873,393.832,397.855,400.249,402.643,406.666,409.555,413.029,415.2048,417.952,423.046,428.068,432.892,435.0678,437.824,442.774,446.248,451.27,456.445,460.89119999999997,463.645,467.803,472.978,477.9918,480.745,489.934,494.092,499.267,503.7132,506.466,509.94,514.287,519.462,522.388,527.446,531.45,534.924,537.462,541.44,545.463" svgx:width="0.34,0.55,0.37,0.31,0.43,0.44,0.53,0.55,0.51,0.3,0.55,0.52,0.37,0.43,0.37,0.37,0.43,0.53,0.55,0.52,0.43,0.25,0.25,0.43,0.31,0.37,0.23,0.55,0.54,0.53,0.51,0.23,0.55,0.62,0.37,0.53,0.55,0.47,0.55,0.44,0.55,0.53,0.55,0.97,0.44,0.55,0.47,0.55,0.37,0.46,0.55,0.31,0.53,0.43,0.37,0.27,0.42,0.43,0.53" style="fill:rgb(23,22,21);font-family:MinionPro-Regular;font-size:9.46px;stroke:none;">Instead of pressed pellets, Luo, Tsung and Wang synthesized</text>
   <text y="321.779" x="305.109,309.27139999999997,312.642,321.075,325.503,328.869,337.302,344.376,349.191,352.557,357.102,361.64279999999997,365.031,367.956,373.014,375.552,380.755,384.102,389.169,391.563,399.3202,402.687,406.836,410.3362,413.685,416.61,421.668,425.7358,429.066,437.499,441.9452,445.311,447.849,452.673,457.876,461.232,465.237,470.061,475.236,480.231,485.253,489.258,492.147,496.971,500.4712,503.864,506.753,511.57759999999996,514.961,518.984,521.378,523.916,531.665,534.203,539.378,543.536,546.425" svgx:width="0.44,0.55,0.89,0.47,0.36,0.89,0.75,0.53,0.36,0.48,0.48,0.55,0.31,0.53,0.27,0.55,0.55,0.54,0.25,0.82,0.55,0.44,0.37,0.55,0.31,0.53,0.43,0.55,0.89,0.47,0.55,0.27,0.51,0.55,0.55,0.42,0.51,0.55,0.53,0.53,0.42,0.31,0.51,0.37,0.55,0.31,0.51,0.55,0.43,0.25,0.27,0.82,0.27,0.55,0.44,0.31,0.43" style="fill:rgb(23,22,21);font-family:MinionPro-Regular;font-size:9.46px;stroke:none;">a Mg-MOF-74 thin ﬁlm as the Mg ion conductor to eliminate</text>
   <text y="333.236" x="305.109,307.647,312.822,315.711,319.734,323.244,328.204,332.362,335.872,338.761,341.299,345.304,347.698,351.76579999999996,355.924,360.334,364.492,369.451,372.95120000000003,377.137,380.062,385.093,389.251,392.18359999999996,396.343,402.823,406.846,410.356,414.42379999999997,418.6,421.138,426.313,430.417,434.8,437.338,440.281,444.358,449.164,451.558,455.62579999999997,459.785,462.584,467.408,470.9082,475.138,480.098,483.608,487.613,491.042,494.516,498.539,503.5528,507.745,512.705,516.728,519.122,521.516,525.539,528.428,531.9282,536.114,540.272,545.447" svgx:width="0.27,0.55,0.31,0.43,0.37,0.52,0.44,0.37,0.31,0.27,0.42,0.25,0.43,0.55,0.47,0.44,0.52,0.37,0.55,0.31,0.53,0.44,0.31,0.55,0.69,0.43,0.37,0.43,0.55,0.27,0.55,0.43,0.46,0.27,0.31,0.44,0.51,0.25,0.43,0.55,0.3,0.51,0.37,0.55,0.52,0.37,0.43,0.37,0.37,0.43,0.53,0.55,0.52,0.43,0.25,0.25,0.43,0.31,0.37,0.55,0.44,0.55,0.53" style="fill:rgb(23,22,21);font-family:MinionPro-Regular;font-size:9.46px;stroke:none;">interparticle gaps that were inevitable for pressed pellets and</text>
   <text y="344.693" x="305.109,309.132,314.307,318.384,323.19,325.584,329.607,334.62080000000003,336.663,340.137,343.026,348.048,353.043,355.581,359.586,363.0862,365.121,369.945,375.14799999999997,377.182,380.107,385.165,389.2328,391.239,393.777,398.952,404.01,408.033,411.543,415.566,420.741,423.67359999999996,425.691,428.229,433.053,438.228,440.766,444.73920000000004,446.832,450.837,455.661,460.836,465.831,470.853,474.858,477.747,480.285,484.668,487.206,490.095,494.44660000000005,496.494,501.318,504.156,506.178,514.611,521.685,526.689,530.1891999999999,532.224" svgx:width="0.43,0.55,0.44,0.51,0.25,0.43,0.53,0.55,0.37,0.31,0.53,0.53,0.27,0.43,0.37,0.55,0.51,0.55,0.55,0.31,0.53,0.43,0.55,0.27,0.55,0.53,0.43,0.37,0.43,0.55,0.31,0.55,0.27,0.51,0.55,0.27,0.42,0.55,0.42,0.51,0.55,0.53,0.53,0.42,0.31,0.27,0.46,0.27,0.31,0.46,0.55,0.51,0.3,0.55,0.89,0.75,0.53,0.37,0.55,0.35" style="fill:rgb(23,22,21);font-family:MinionPro-Regular;font-size:9.46px;stroke:none;">enabled studies on the inherent ionic conductivity of MOFs (</text>
  </g>
  <g begin="text">
   <text y="344.693" x="535.5,540.594,545.616" svgx:width="0.54,0.53,0.51" style="fill:rgb(109,109,108);font-family:MinionPro-Regular;font-size:9.46px;stroke:none;">Luo</text>
   <text y="356.15" x="305.109,309.132,312.0646,315.054,319.212,321.606,323.766,325.9418,328.95,333.495,338.04,342.585" svgx:width="0.43,0.31,0.55,0.44,0.25,0.23,0.23,0.55,0.48,0.48,0.48,0.48" style="fill:rgb(109,109,108);font-family:MinionPro-Regular;font-size:9.46px;stroke:none;">et al., 2019</text>
  </g>
  <g begin="text">
   <text y="356.15" x="347.13,350.406,352.5818,355.59,358.821,361.7536,364.734,368.163,373.221,378.045,384.525,388.548,393.5618,396.576,399.501,404.559,408.6268,411.606,414.144,418.968,424.143,426.681,430.6542,433.719,437.724,442.548,447.723,452.718,457.74,461.745,464.634,467.172,471.555,474.093,476.982,481.33360000000005,484.353,489.177,492.01500000000004,495.009,499.554,501.714,506.259" svgx:width="0.35,0.23,0.55,0.34,0.31,0.55,0.37,0.53,0.51,0.69,0.43,0.53,0.55,0.31,0.53,0.43,0.55,0.27,0.51,0.55,0.27,0.42,0.55,0.42,0.51,0.55,0.53,0.53,0.42,0.31,0.27,0.46,0.27,0.31,0.46,0.55,0.51,0.3,0.55,0.48,0.23,0.48,0.48" style="fill:rgb(23,22,21);font-family:MinionPro-Regular;font-size:9.46px;stroke:none;">). It showed the ionic conductivity of 3.17</text>
   <text y="356.15" x="513.828" svgx:width="0.78" style="fill:rgb(23,22,21);font-family:MTSY;font-size:9.46px;stroke:none;">×</text>
   <text y="356.15" x="524.277,528.822" svgx:width="0.48,0.48" style="fill:rgb(23,22,21);font-family:MinionPro-Regular;font-size:9.46px;stroke:none;">10</text>
   <text y="352.712" x="533.367" svgx:width="0.78" style="fill:rgb(23,22,21);font-family:MTSY;font-size:7.19px;stroke:none;">−</text>
   <text y="352.712" x="538.974" svgx:width="0.48" style="fill:rgb(23,22,21);font-family:MinionPro-Regular;font-size:7.19px;stroke:none;">6</text>
   <text y="356.15" x="545.958" svgx:width="0.47" style="fill:rgb(23,22,21);font-family:MinionPro-Regular;font-size:9.46px;stroke:none;">S</text>
   <text y="367.607" x="305.109,309.114" svgx:width="0.42,0.82" style="fill:rgb(23,22,21);font-family:MinionPro-Regular;font-size:9.46px;stroke:none;">cm</text>
   <text y="364.169" x="316.863" svgx:width="0.78" style="fill:rgb(23,22,21);font-family:MTSY;font-size:7.19px;stroke:none;">−</text>
   <text y="364.169" x="322.47" svgx:width="0.48" style="fill:rgb(23,22,21);font-family:MinionPro-Regular;font-size:7.19px;stroke:none;">1</text>
   <text y="367.607" x="328.707,332.865,335.7976,338.04,340.965,346.023,350.0908,352.322,355.832,360.656,365.48,375.524,378.413,382.436,390.185,395.145,399.168,402.678,406.836,409.725,414.747,418.257,422.226,424.4018,426.663,433.143,438.201,440.739,444.69,449.7038,452.025,458.505,462.654,466.1542,468.414,470.952,476.155,478.413,482.418,487.242,492.417,495.891,498.429,501.902,504.791,508.814,513.989,516.9216,519.155,525.635,528.173,531.098,536.1117999999999,538.442,541.367,546.425" svgx:width="0.44,0.31,0.55,0.31,0.53,0.43,0.55,0.37,0.51,0.51,0.82,0.31,0.43,0.82,0.52,0.43,0.37,0.44,0.31,0.53,0.37,0.43,0.23,0.55,0.69,0.53,0.27,0.42,0.53,0.55,0.69,0.44,0.37,0.55,0.27,0.55,0.55,0.42,0.51,0.55,0.37,0.27,0.37,0.31,0.43,0.55,0.31,0.55,0.69,0.27,0.31,0.53,0.55,0.31,0.53,0.43" style="fill:rgb(23,22,21);font-family:MinionPro-Regular;font-size:9.46px;stroke:none;">at the roomtemperature, which was in consistent with the</text>
   <text y="379.064" x="305.109,310.068,313.578,317.682,322.065,324.603,329.427,334.449,337.9492,340.083,343.593,347.616,352.576,357.4,360.91,363.8426,365.95,370.756,375.1076,377.245,383.788,388.81,393.616,397.126,401.149,405.496" svgx:width="0.52,0.37,0.43,0.46,0.27,0.51,0.53,0.37,0.55,0.37,0.43,0.52,0.51,0.37,0.31,0.55,0.51,0.46,0.55,0.69,0.53,0.51,0.37,0.43,0.46,0.23" style="fill:rgb(23,22,21);font-family:MinionPro-Regular;font-size:9.46px;stroke:none;">previous report by Aubrey.</text>
   <text y="390.521" x="316.566,323.523,327.528,331.002,335.961,338.499,341.388,345.45579999999995,348.435,351.36,356.418,360.4858,363.456,368.416,371.926,376.75,384.499,387.037,390.511,393.049,398.224,402.67019999999997,405.694,410.653,414.163,418.987,423.947,427.97,431.48,434.369,436.907,440.912,444.386,446.5618,449.57,453.728,458.723,463.717,466.255,469.145,471.682,476.507,481.681,485.839,488.204,491.257,494.785,498.943,501.337,504.26959999999997,507.25,511.255,516.079,521.254,524.143,528.166,533.341,536.23,539.7302,542.728,545.266" svgx:width="0.74,0.43,0.37,0.52,0.27,0.31,0.43,0.55,0.31,0.53,0.43,0.55,0.52,0.37,0.51,0.82,0.27,0.37,0.27,0.55,0.47,0.55,0.52,0.37,0.51,0.52,0.43,0.37,0.31,0.27,0.43,0.37,0.23,0.55,0.44,0.53,0.53,0.27,0.31,0.27,0.51,0.55,0.44,0.25,0.55,0.37,0.44,0.25,0.31,0.55,0.42,0.51,0.55,0.31,0.43,0.55,0.31,0.37,0.55,0.27,0.55" style="fill:rgb(23,22,21);font-family:MinionPro-Regular;font-size:9.46px;stroke:none;">Despite the promising properties, additional salt contents in</text>
   <text y="401.978" x="305.109,309.114,313.497,317.502,321.507,324.936,328.4362,332.667,336.825,340.335,344.40279999999996,348.615,352.125,356.148,360.981,366.003,368.541,372.051,376.074,381.0878,385.343,388.142,392.966,396.4662,400.751,409.184,416.258,421.262,424.7622,428.993,432.467,437.291,439.685,442.223,447.2368,451.484,455.489,460.313,465.488,470.483,475.505,479.51,482.399,487.223,490.67,494.1702,498.419,503.27,507.419,510.893,514.916,519.9298,524.177,529.001,534.204,538.442,541.367,546.425" svgx:width="0.43,0.47,0.42,0.43,0.37,0.37,0.55,0.44,0.37,0.43,0.55,0.37,0.43,0.51,0.53,0.27,0.37,0.43,0.53,0.55,0.3,0.51,0.37,0.55,0.89,0.75,0.53,0.37,0.55,0.37,0.51,0.25,0.27,0.53,0.55,0.42,0.51,0.55,0.53,0.53,0.42,0.31,0.51,0.37,0.37,0.55,0.51,0.44,0.37,0.43,0.53,0.55,0.51,0.55,0.55,0.31,0.53,0.43" style="fill:rgb(23,22,21);font-family:MinionPro-Regular;font-size:9.46px;stroke:none;">excess are required for MOFs solid conductors based on the</text>
   <text y="413.435" x="305.109,310.284,315.306,323.055,327.861,331.884,335.3842,337.662,342.486,345.324,347.553,351.54,355.914,360.072,362.61,365.004,369.081,373.887,376.281,380.3488,382.554,386.712,391.887,394.425,399.249,404.452,406.683,411.489,414.027,419.202,424.197,426.735,431.91,436.3562,438.606,442.08,444.618,447.507,451.512,454.986,457.16179999999997,459.396,464.4,469.422,472.932,475.857,480.915,484.938,488.448,496.197,501.021,504.531,508.5,510.6758,512.928,517.067,521.072,523.961,526.5,530.874,535.032,537.921,540.459,545.283" svgx:width="0.55,0.53,0.82,0.51,0.43,0.37,0.55,0.51,0.3,0.55,0.44,0.46,0.44,0.27,0.25,0.44,0.51,0.25,0.43,0.55,0.44,0.55,0.27,0.51,0.55,0.55,0.51,0.27,0.55,0.53,0.27,0.55,0.47,0.55,0.37,0.27,0.31,0.43,0.37,0.23,0.55,0.53,0.53,0.37,0.31,0.53,0.43,0.37,0.82,0.51,0.37,0.43,0.23,0.55,0.44,0.42,0.31,0.27,0.46,0.44,0.31,0.27,0.51,0.55" style="fill:rgb(23,22,21);font-family:MinionPro-Regular;font-size:9.46px;stroke:none;">number of available anion binding sites. Furthermore, activation</text>
   <text y="424.892" x="305.109,309.132,314.307,318.33,321.768,326.196,328.734,332.739,336.2392,340.056,344.214,347.724,351.79179999999997,355.599,359.073,363.897,371.646,375.669,378.558,381.096,388.845,392.85,396.35020000000003,400.176,405.234,407.772,412.254,417.312,421.335,424.8352,428.688,431.613,436.644,440.802,443.7346,447.525,454.005,459.036,463.194,466.1266,469.926,474.084,477.594,481.66179999999997,485.46,489.465,493.929,498.888,502.965,506.97,509.859,513.882,518.823,520.9988,524.835,529.83,534.852,538.9198,542.727,545.616" svgx:width="0.43,0.55,0.43,0.37,0.47,0.27,0.43,0.37,0.55,0.44,0.37,0.43,0.55,0.37,0.51,0.82,0.43,0.31,0.27,0.82,0.43,0.37,0.55,0.53,0.27,0.47,0.53,0.43,0.37,0.55,0.31,0.53,0.44,0.31,0.55,0.69,0.53,0.44,0.31,0.55,0.44,0.37,0.43,0.55,0.43,0.47,0.52,0.43,0.42,0.31,0.43,0.53,0.23,0.55,0.53,0.53,0.43,0.55,0.31,0.51" style="fill:rgb(23,22,21);font-family:MinionPro-Regular;font-size:9.46px;stroke:none;">energies are sometimes higher that what are expected, due to</text>
   <text y="436.349" x="305.109,308.034,313.092,317.15979999999996,322.146,325.62,328.509,332.019,336.843,342.018,346.46419999999995,351.486,356.445,360.603,363.141,366.651,369.189,374.364,378.81019999999995,383.823,388.629,392.652,395.541,402.021,406.044,410.067,415.27,420.282,424.314,428.472,431.361,433.899,438.723,443.898,447.39820000000003,452.403,456.561,461.736,466.7498,471.771,475.929,481.104,483.642,488.466,493.641,497.1412,502.145,506.969,509.807,514.808,517.733,522.791,526.8588000000001,531.845,535.373,539.531,541.925,544.814,548.288" svgx:width="0.31,0.53,0.43,0.55,0.37,0.31,0.37,0.51,0.55,0.47,0.55,0.52,0.44,0.27,0.37,0.27,0.55,0.47,0.55,0.51,0.43,0.31,0.69,0.43,0.43,0.55,0.55,0.42,0.44,0.31,0.27,0.51,0.55,0.37,0.55,0.44,0.55,0.53,0.55,0.44,0.55,0.27,0.51,0.55,0.37,0.55,0.51,0.3,0.55,0.31,0.53,0.43,0.55,0.37,0.44,0.25,0.31,0.37,0.23" style="fill:rgb(23,22,21);font-family:MinionPro-Regular;font-size:9.46px;stroke:none;">the strong pairing between cations and anions of the salts.</text>
   <text y="447.806" x="305.109,310.482,312.876,316.953,320.958,323.847,327.357,332.181,336.132,341.19,345.213,352.962,355.5,359.532,363.69,366.055,369.666,373.14,376.083,380.16,384.966,387.504,389.898,392.436,395.325,399.6766,403.245,408.267,413.226,418.05,423.253,426.825,430.83,435.177,439.182,441.576,444.114,449.289,453.73519999999996,457.299,459.837,463.3372,466.893,471.051,476.226,481.05,483.975,489.033,493.056,496.5562,500.148,504.1,509.13,513.288,515.682,518.076,522.099,527.274,531.703,535.7708,539.308,542.107,546.931" svgx:width="0.57,0.25,0.43,0.42,0.31,0.37,0.51,0.42,0.53,0.43,0.82,0.27,0.42,0.44,0.25,0.55,0.37,0.31,0.44,0.51,0.27,0.25,0.27,0.31,0.46,0.55,0.53,0.52,0.51,0.55,0.55,0.42,0.46,0.42,0.25,0.27,0.55,0.47,0.55,0.27,0.37,0.55,0.44,0.55,0.51,0.31,0.53,0.43,0.37,0.55,0.42,0.53,0.44,0.25,0.25,0.43,0.55,0.47,0.43,0.55,0.3,0.51,0.37" style="fill:rgb(23,22,21);font-family:MinionPro-Regular;font-size:9.46px;stroke:none;">Electrochemical stability upon cycling is another challenge for</text>
   <text y="459.263" x="305.109,308.583,313.407,321.156,325.2238,327.33,330.84,334.863,339.822,344.646,348.156,351.045,355.068,360.0818,362.223,370.656,377.73,382.734,386.208,389.574,394.425,398.574,402.048,406.071,411.08480000000003,413.217,417.222,422.046,427.221,432.216,437.238,441.243,444.132,448.956,452.403,455.877" svgx:width="0.37,0.51,0.82,0.43,0.55,0.37,0.43,0.52,0.51,0.37,0.31,0.43,0.53,0.55,0.89,0.75,0.53,0.37,0.36,0.51,0.44,0.37,0.43,0.53,0.55,0.42,0.51,0.55,0.53,0.53,0.42,0.31,0.51,0.37,0.37,0.23" style="fill:rgb(23,22,21);font-family:MinionPro-Regular;font-size:9.46px;stroke:none;">some reported MOFs-based conductors.</text>
   <text y="495.623" x="305.109,313.965,323.262,332.118,340.974,348.066,356.922,364.68,368.208,377.505,386.36,394.134,397.466,405.656,414.512,423.3624,426.689,435.986,444.842,452.15,459.242,468.539,477.836" svgx:width="0.74,0.78,0.74,0.74,0.59,0.74,0.65,0.29,0.78,0.74,0.65,0.55,0.69,0.74,0.74,0.55,0.78,0.74,0.61,0.59,0.78,0.78,0.72" style="fill:rgb(23,22,21);font-family:HelveticaNeueLTStd-Bd;font-size:11.96px;stroke:none;">CONCLUSIONS AND OUTLOOK</text>
   <text y="516.548" x="305.109,313.542,317.98819999999995,324.63,329.481,333.639,336.528,339.417,343.44,346.95,351.3016,357.948,360.486,363.9862,370.62,374.625,379.449,384.624,388.098,390.636,395.631,399.654,403.164,407.187,412.2008,418.842,422.991,426.4912,433.125,437.2874,443.934,448.893,452.403,457.227,464.976,467.514,470.988,473.526,478.701,483.1472,489.798,494.973,498.978,503.442,506.331,509.697,514.125,518.148,523.323,527.346,530.856,535.014,537.903,540.441,545.265" svgx:width="0.89,0.47,0.55,0.51,0.44,0.31,0.31,0.43,0.37,0.46,0.55,0.27,0.37,0.55,0.42,0.51,0.55,0.37,0.27,0.53,0.43,0.37,0.43,0.53,0.55,0.44,0.37,0.55,0.44,0.55,0.52,0.37,0.51,0.82,0.27,0.37,0.27,0.55,0.47,0.55,0.55,0.43,0.47,0.31,0.36,0.47,0.43,0.55,0.43,0.37,0.44,0.31,0.27,0.51,0.55" style="fill:rgb(23,22,21);font-family:MinionPro-Regular;font-size:9.46px;stroke:none;">Mg battery is considered as a promising next-generation</text>
   <text y="528.005" x="305.109,309.267,314.199,318.572,322.73,327.905,331.91,335.933,340.9468,349.658,354.509,358.668,361.556,364.445,368.468,371.978,376.3296,385.047,387.936,392.013,395.964,401.022,406.197,411.021,413.415,418.239,422.667,427.0186,435.753,440.712,445.536,448.965,452.439,456.444,459.873,463.347,465.885,471.06,475.5062,484.217,489.276,491.814,496.296,501.3098,510.075,513.0,518.057,522.081,526.904,530.414,534.438,537.326,539.865,543.896,548.054" svgx:width="0.44,0.53,0.46,0.44,0.55,0.42,0.43,0.53,0.55,0.51,0.44,0.31,0.31,0.43,0.37,0.46,0.55,0.31,0.43,0.42,0.53,0.55,0.51,0.25,0.51,0.47,0.46,0.55,0.52,0.51,0.37,0.37,0.43,0.37,0.37,0.27,0.55,0.47,0.55,0.53,0.27,0.47,0.53,0.55,0.31,0.53,0.43,0.51,0.37,0.43,0.31,0.27,0.42,0.44,0.25" style="fill:rgb(23,22,21);font-family:MinionPro-Regular;font-size:9.46px;stroke:none;">advanced battery technology possessing high theoretical</text>
   <text y="539.461" x="305.109,309.492,314.316,316.71,321.732,329.481,333.504,336.393,339.903,342.441,346.4142,351.189,355.212,360.387,364.41,367.848,372.276,376.62760000000003,381.348,386.343,390.366,395.541,399.015,401.553,404.442,408.789,410.96479999999997,415.683,420.111,424.935,429.759,434.7728,439.497,443.025,447.111,449.91,453.933,456.822,461.1736,465.903,470.061,475.236,480.2498,484.965,490.023,492.561,497.043,502.0568,506.835,510.912,515.718,520.74,525.915,530.928,535.086,540.261,544.266,548.289" svgx:width="0.46,0.51,0.25,0.53,0.82,0.43,0.31,0.37,0.27,0.42,0.55,0.43,0.55,0.43,0.37,0.47,0.46,0.55,0.53,0.43,0.55,0.37,0.27,0.31,0.46,0.23,0.55,0.47,0.51,0.51,0.53,0.55,0.37,0.44,0.3,0.43,0.31,0.46,0.55,0.44,0.55,0.53,0.55,0.53,0.27,0.47,0.53,0.55,0.44,0.51,0.53,0.55,0.53,0.44,0.55,0.42,0.43,0.23" style="fill:rgb(23,22,21);font-family:MinionPro-Regular;font-size:9.46px;stroke:none;">volumetric energy density, good safety and high abundance.</text>
   <text y="550.918" x="305.109,312.138,316.241,320.624,324.647,328.157,331.082,336.14,340.163,342.557,346.563,349.991,353.465,355.64079999999996,361.115,365.921,369.935,372.734,377.558,381.068,385.13579999999996,390.59,393.515,398.573,402.64079999999996,408.086,412.938,417.095,419.984,422.873,426.896,430.406,434.7576,440.234,443.123,447.2,451.151,456.21,461.384,466.208,468.602,473.426,477.854,482.2056,487.691,492.497,496.574,500.579,505.403,513.152,517.157,520.6572,526.13,530.513,533.051,537.128,541.934,544.329,548.298" svgx:width="0.74,0.43,0.46,0.43,0.37,0.31,0.53,0.43,0.25,0.43,0.37,0.37,0.23,0.55,0.51,0.43,0.3,0.51,0.37,0.43,0.55,0.31,0.53,0.43,0.55,0.51,0.44,0.31,0.31,0.43,0.37,0.46,0.55,0.31,0.43,0.42,0.53,0.55,0.51,0.25,0.51,0.47,0.46,0.55,0.51,0.43,0.42,0.51,0.82,0.43,0.37,0.55,0.46,0.27,0.44,0.51,0.25,0.43,0.23" style="fill:rgb(23,22,21);font-family:MinionPro-Regular;font-size:9.46px;stroke:none;">Nevertheless, before the battery technology becomes viable,</text>
   <text y="562.375" x="305.109,308.583,312.687,317.07,321.093,324.603,328.761,331.12600000000003,335.556,339.561,343.071,345.609,348.498,351.036,355.068,359.226,361.591,366.012,368.901,372.978,376.929,381.987,387.162,391.986,394.38,399.204,403.632,406.17,410.202,414.36,416.725,421.147,425.098,430.129,434.287,436.681,439.074,443.097,448.272,452.7,456.705,460.2052,464.571,468.0,473.058,477.882,482.904,485.298,490.3118,494.694,499.5,503.5678,507.924,511.929,516.753,521.928,526.761,531.784,535.807,539.317,543.34,548.281" svgx:width="0.37,0.43,0.46,0.43,0.37,0.44,0.25,0.55,0.42,0.37,0.27,0.31,0.27,0.42,0.44,0.25,0.55,0.31,0.43,0.42,0.53,0.55,0.51,0.25,0.51,0.47,0.27,0.42,0.44,0.25,0.55,0.42,0.53,0.44,0.25,0.25,0.43,0.55,0.47,0.43,0.37,0.55,0.37,0.53,0.51,0.53,0.25,0.53,0.55,0.51,0.43,0.55,0.42,0.51,0.55,0.51,0.53,0.43,0.37,0.43,0.53,0.23" style="fill:rgb(23,22,21);font-family:MinionPro-Regular;font-size:9.46px;stroke:none;">several critical technological challenges should be conquered,</text>
   <text y="573.832" x="305.109,307.647,312.822,316.827,319.221,324.243,329.238,331.776,336.951,341.3972,344.925,347.85,352.908,356.9758,360.468,365.463,369.567,373.95,377.973,380.366,385.191,390.15,397.899,401.922,407.097,410.02959999999996,413.541,418.365,421.20300000000003,424.71,429.669,433.179,438.003,442.963,446.986,450.4862,454.042,458.065,460.458,464.536,468.541,471.43,474.94,479.764,482.158,486.505,489.394,493.4618,496.954,501.112,506.287,511.3008,514.819,518.851,523.009,525.934,530.992,535.816,540.811,544.816,548.29" svgx:width="0.27,0.55,0.42,0.25,0.53,0.53,0.27,0.55,0.47,0.55,0.31,0.53,0.43,0.55,0.53,0.43,0.46,0.43,0.25,0.51,0.52,0.82,0.43,0.55,0.31,0.55,0.51,0.3,0.55,0.52,0.37,0.51,0.52,0.43,0.37,0.55,0.43,0.25,0.43,0.42,0.31,0.37,0.51,0.25,0.46,0.31,0.43,0.55,0.44,0.55,0.53,0.55,0.42,0.44,0.31,0.53,0.51,0.53,0.43,0.37,0.23" style="fill:rgb(23,22,21);font-family:MinionPro-Regular;font-size:9.46px;stroke:none;">including the development of proper electrolyte and cathodes.</text>
   <text y="585.288" x="305.109,310.941,315.999,320.0668,322.713,327.195,332.568,335.7844,338.499,341.298,346.122,349.632,357.381,361.404,366.4178,369.108,373.932,379.135,381.806,384.731,389.789,393.85679999999996,396.503,404.936,409.38219999999995,412.064,415.538,420.56,424.106,426.914,431.054,435.059,439.1268,441.782,444.32,447.8202,450.485,453.023,457.847,463.022,465.56,469.565,472.931,477.737,480.131,484.955,488.96,493.658,496.196,501.371,505.81719999999996,508.508,511.307,516.131,519.6311999999999,522.341,530.774,535.2202,537.902,540.44,545.264" svgx:width="0.62,0.53,0.43,0.55,0.47,0.57,0.34,0.55,0.3,0.51,0.37,0.82,0.43,0.53,0.55,0.51,0.55,0.55,0.31,0.53,0.43,0.55,0.89,0.47,0.55,0.37,0.53,0.37,0.3,0.44,0.42,0.43,0.55,0.27,0.37,0.55,0.27,0.51,0.55,0.27,0.42,0.36,0.51,0.25,0.51,0.42,0.5,0.27,0.55,0.47,0.55,0.3,0.51,0.37,0.55,0.89,0.47,0.55,0.27,0.51,0.55" style="fill:rgb(23,22,21);font-family:MinionPro-Regular;font-size:9.46px;stroke:none;">The SEI formed on the Mg surface is ionic-blocking for Mg ion</text>
   <text y="596.745" x="305.109,311.589,316.647,320.67,325.873,329.787,338.22,342.6662,346.581,351.432,355.59,358.479,361.368,365.391,368.901,371.439,375.444,378.9442,382.851,386.874,394.623,399.583,401.977,406.801,411.148,414.64820000000003,418.555,421.48,426.538,430.6058,434.494,438.499,443.323,448.498,452.881,456.904,462.079,464.968,467.506,472.33,477.505,481.663,484.028,487.999,492.031,496.189,499.708,504.514,509.338,514.513,518.671,521.56,525.583,528.949,533.8,537.949,541.423,545.446" svgx:width="0.69,0.53,0.43,0.55,0.55,0.89,0.47,0.55,0.51,0.44,0.31,0.31,0.43,0.37,0.27,0.43,0.37,0.55,0.43,0.82,0.52,0.25,0.51,0.46,0.37,0.55,0.31,0.53,0.43,0.55,0.42,0.51,0.55,0.46,0.43,0.55,0.31,0.27,0.51,0.55,0.44,0.25,0.55,0.42,0.44,0.37,0.51,0.51,0.55,0.44,0.31,0.43,0.36,0.51,0.44,0.37,0.43,0.53" style="fill:rgb(23,22,21);font-family:MinionPro-Regular;font-size:9.46px;stroke:none;">when Mg batteries employs the conventional carbonate-based</text>
   <text y="608.202" x="305.109,308.583,313.407,315.801,320.184,324.207,329.382,332.3146,336.348,340.353,345.177,352.926,360.675,365.499,370.674,373.068,377.4196,381.501,386.523,389.997,394.02,399.0338,403.092,405.63,410.83299999999997,414.882,419.976,423.207,428.769,432.242,434.4178,438.488,444.32,449.378,453.44579999999996,457.469,461.492,463.886,467.963,471.968,474.857,478.367,483.191,485.586,489.933,492.822,496.8898,500.913,505.908,510.011,514.394,518.417,520.811,525.635,530.595,538.344,542.367,547.542" svgx:width="0.37,0.51,0.25,0.46,0.43,0.55,0.31,0.55,0.42,0.51,0.82,0.82,0.51,0.55,0.25,0.46,0.55,0.53,0.37,0.43,0.53,0.55,0.27,0.55,0.55,0.54,0.34,0.59,0.37,0.23,0.55,0.62,0.53,0.43,0.55,0.43,0.25,0.43,0.42,0.31,0.37,0.51,0.25,0.46,0.31,0.43,0.55,0.53,0.43,0.46,0.43,0.25,0.51,0.52,0.82,0.43,0.55,0.31" style="fill:rgb(23,22,21);font-family:MinionPro-Regular;font-size:9.46px;stroke:none;">solvent commonly used in LIBs. The electrolyte development</text>
   <text y="619.658" x="305.109,307.908,312.732,316.23220000000003,318.915,327.348,331.7942,334.44,339.291,343.449,346.338,349.227,353.25,356.76,359.298,363.303,366.8032,369.432,372.357,377.415,381.438,384.948,388.962,391.761,396.585,400.095,404.1628,406.782,410.814,414.972,420.147,425.322,430.146,433.0786,435.699,439.173,441.711,449.46,454.419,456.813,461.1646,463.824,471.573,474.111,481.86,484.398,488.37120000000004,491.067,496.161,499.392,504.97339999999997,507.618,511.641,514.035,518.112,522.117,525.006,528.516,533.34,535.735,540.082,542.971,546.975" svgx:width="0.3,0.51,0.37,0.55,0.89,0.47,0.55,0.51,0.44,0.31,0.31,0.43,0.37,0.27,0.43,0.37,0.55,0.31,0.53,0.43,0.37,0.43,0.3,0.51,0.37,0.43,0.55,0.42,0.44,0.55,0.55,0.51,0.31,0.55,0.37,0.27,0.82,0.52,0.25,0.46,0.55,0.82,0.27,0.82,0.27,0.42,0.55,0.54,0.34,0.59,0.55,0.43,0.25,0.43,0.42,0.31,0.37,0.51,0.25,0.46,0.31,0.43,0.37" style="fill:rgb(23,22,21);font-family:MinionPro-Regular;font-size:9.46px;stroke:none;">for Mg batteries therefore cannot simply mimic LIB electrolytes</text>
   <text y="631.115" x="305.109,309.915,314.937,317.8696,320.184,323.694,327.717,332.55,337.572,340.11,343.62,347.625,351.1252,353.466,358.641,363.465,367.848,371.871,374.236,376.623,381.618,385.623,389.097,391.635,396.063,401.26599999999996,403.596,407.07,409.959,413.469,417.627,420.516,424.548,428.976,431.514,435.519,438.993,441.1688,443.493,449.325,454.383,458.45079999999996,460.764,465.723,469.233,474.057,479.017,483.841,487.368,491.526,493.891,496.279,501.103,503.94100000000003,506.268,510.291,513.216,518.274,522.297,525.591,528.958,533.808,537.957,541.431,545.454" svgx:width="0.51,0.53,0.31,0.55,0.37,0.43,0.51,0.53,0.27,0.37,0.43,0.37,0.55,0.55,0.51,0.46,0.43,0.25,0.55,0.53,0.43,0.37,0.27,0.47,0.55,0.55,0.37,0.31,0.37,0.44,0.31,0.43,0.47,0.27,0.43,0.37,0.23,0.55,0.62,0.53,0.43,0.55,0.52,0.37,0.51,0.52,0.51,0.37,0.44,0.25,0.55,0.51,0.3,0.55,0.43,0.31,0.53,0.43,0.37,0.36,0.51,0.44,0.37,0.43,0.53" style="fill:rgb(23,22,21);font-family:MinionPro-Regular;font-size:9.46px;stroke:none;">but requires novel design strategies. The proposal of ether-based</text>
   <text y="642.572" x="305.109,308.583,313.407,315.801,320.184,324.207,329.382,332.3146,337.689,342.684,346.707,354.456,359.28,364.455,367.929,370.818,374.328,378.486,381.375,385.398,390.4118,395.82,398.745,403.803,407.8708,413.235,417.311,422.117,424.655,427.049,429.587,432.476,436.8276,442.233,445.122,449.9466,455.363,459.35,463.733,468.557,471.095,476.10880000000003,481.508,484.433,489.491,493.55879999999996,498.923,501.722,506.546,510.056,517.805,521.963,524.852,527.39,532.214,537.417,542.816,547.64" svgx:width="0.37,0.51,0.25,0.46,0.43,0.55,0.31,0.55,0.53,0.43,0.82,0.51,0.55,0.37,0.31,0.37,0.44,0.31,0.43,0.53,0.55,0.31,0.53,0.43,0.55,0.44,0.51,0.27,0.25,0.27,0.31,0.46,0.55,0.31,0.51,0.55,0.44,0.46,0.51,0.27,0.53,0.55,0.31,0.53,0.43,0.55,0.3,0.51,0.37,0.82,0.44,0.31,0.27,0.51,0.55,0.55,0.51,0.3" style="fill:rgb(23,22,21);font-family:MinionPro-Regular;font-size:9.46px;stroke:none;">solvent demonstrated the ability to avoid the formation of</text>
   <text y="654.029" x="305.109,307.647,312.822,316.296,321.318,323.712,327.87,330.759,333.297,338.472,342.91819999999996,348.489,353.448,357.597,361.026,364.5,367.038,371.412,375.57,378.459,380.997,385.821,391.024,396.567,398.961,403.119,407.466,411.489,414.396,416.5718,422.136,426.942,431.964,434.8966,440.442,443.367,448.425,452.4928,458.027,462.987,466.497,470.637,474.642,477.531,480.069,484.101,488.259,490.624,496.233,500.391,505.35,510.31,512.704,515.242,519.274,523.432,526.321,528.859,533.683,538.886,544.438,546.976" svgx:width="0.27,0.55,0.37,0.53,0.25,0.44,0.31,0.27,0.55,0.47,0.55,0.52,0.44,0.37,0.37,0.27,0.46,0.44,0.31,0.27,0.51,0.55,0.55,0.25,0.44,0.46,0.43,0.37,0.23,0.55,0.51,0.53,0.31,0.55,0.31,0.53,0.43,0.55,0.52,0.37,0.44,0.42,0.31,0.27,0.42,0.44,0.25,0.55,0.44,0.52,0.52,0.25,0.27,0.42,0.44,0.31,0.27,0.51,0.55,0.55,0.27,0.37" style="fill:rgb(23,22,21);font-family:MinionPro-Regular;font-size:9.46px;stroke:none;">insulating passivation layer, but the practical application is</text>
   <text y="665.485" x="305.109,308.583,311.472,314.01,316.404,318.769,322.353,327.411,329.949,334.431,339.489,341.883,346.2346,349.785,352.179,354.717,362.466,365.004,367.893,371.916,376.9298,380.475,385.281,389.6326,393.183,396.108,401.166,405.2338,408.752,412.757,417.581,421.091,424.602,429.425,432.9,435.438,439.82,443.88779999999997,447.408,449.945,453.375,456.849,461.871,465.876,469.3762,472.905,475.704,479.214,484.038,491.7952,495.36,502.128,505.638,508.176,512.604,517.779,521.937,525.447,530.4608,534.006,537.534,541.692,544.086,546.975" svgx:width="0.37,0.31,0.27,0.25,0.25,0.55,0.53,0.27,0.47,0.53,0.25,0.46,0.55,0.25,0.27,0.82,0.27,0.31,0.43,0.53,0.55,0.51,0.46,0.55,0.31,0.53,0.43,0.55,0.42,0.51,0.37,0.37,0.51,0.37,0.27,0.46,0.43,0.55,0.27,0.37,0.37,0.53,0.43,0.37,0.55,0.3,0.37,0.51,0.82,0.55,0.71,0.37,0.27,0.47,0.55,0.44,0.37,0.53,0.55,0.37,0.44,0.25,0.31,0.37" style="fill:rgb(23,22,21);font-family:MinionPro-Regular;font-size:9.46px;stroke:none;">still highly limited by the corrosive issues from Grignard salts</text>
   <text y="676.942" x="305.109,309.267,314.442,319.4558,324.117,327.042,332.1,336.1678,340.802,344.331,348.417,351.216,355.239,358.128,362.4796,367.145,371.15,375.974,381.149,385.154,389.177,392.687,397.862,400.0378,404.711,408.86,412.3602,417.014,423.494,427.517,429.912,432.277,436.995,441.143,444.6432,449.288,452.213,457.271,461.3388,465.974,469.448,477.197,481.355,483.749,486.11400000000003,490.823,494.846,497.24,501.317,505.322,508.211,511.721,516.545,520.496,525.554,529.577,537.326,539.864,543.896,548.054" svgx:width="0.44,0.55,0.53,0.55,0.31,0.53,0.43,0.55,0.37,0.44,0.3,0.43,0.31,0.46,0.55,0.42,0.51,0.55,0.42,0.43,0.37,0.55,0.23,0.55,0.44,0.37,0.55,0.69,0.43,0.25,0.25,0.55,0.44,0.37,0.55,0.31,0.53,0.43,0.55,0.37,0.82,0.44,0.25,0.25,0.55,0.43,0.25,0.43,0.42,0.31,0.37,0.51,0.42,0.53,0.43,0.82,0.27,0.42,0.44,0.25" style="fill:rgb(23,22,21);font-family:MinionPro-Regular;font-size:9.46px;stroke:none;">and the safety concern, as well as the small electrochemical</text>
   <text y="688.399" x="305.109,310.068,314.892,317.781,321.804,326.979,329.868,332.406,336.564,338.92900000000003,341.388,347.868,350.406,355.581,360.576,365.4,371.88,374.0558,376.479,381.483,385.551,389.709,392.598,397.62,401.13,403.668,408.843,413.2892,415.71,420.768,423.306,427.788,432.8018,435.267,438.741,441.684,445.761,450.567,453.105,455.499,458.037,460.926,465.2776,467.694,471.852,477.027,482.0408,484.452,487.98,492.066,494.865,498.888,501.776,506.124,508.2998,510.705,513.243,518.067,523.242,525.78,529.7532,532.215,535.689,540.513,542.907,545.445" svgx:width="0.52,0.51,0.31,0.43,0.55,0.31,0.27,0.44,0.25,0.55,0.69,0.27,0.55,0.53,0.51,0.69,0.23,0.55,0.53,0.43,0.44,0.31,0.53,0.37,0.27,0.55,0.47,0.55,0.53,0.27,0.47,0.53,0.55,0.37,0.31,0.44,0.51,0.27,0.25,0.27,0.31,0.46,0.55,0.44,0.55,0.53,0.55,0.37,0.44,0.3,0.43,0.31,0.46,0.23,0.55,0.27,0.51,0.55,0.27,0.42,0.55,0.37,0.51,0.25,0.27,0.53" style="fill:rgb(23,22,21);font-family:MinionPro-Regular;font-size:9.46px;stroke:none;">potential window. Featuring high stability and safety, ionic solid</text>
   <text y="699.856" x="305.109,309.114,313.938,319.113,324.108,329.13,333.135,336.024,340.848,344.3482,348.552,352.557,357.381,362.403,364.797,369.81080000000003,373.977,378.783,382.8508,386.991,391.149,396.352,400.509,403.047,408.042,412.11,416.268,418.633,422.838,426.312,431.136,433.53,438.552,441.441,443.979,448.803,454.006,458.172,461.061,465.88559999999995,470.061,472.986,478.044,482.11179999999996,486.252,490.329,495.135,499.959,504.342,508.40979999999996,512.541,517.5,521.01,525.834,530.641,533.034,537.057,544.806,548.28" svgx:width="0.42,0.51,0.55,0.53,0.53,0.42,0.31,0.51,0.37,0.55,0.42,0.51,0.53,0.25,0.53,0.55,0.51,0.43,0.55,0.44,0.55,0.55,0.27,0.53,0.43,0.44,0.25,0.55,0.37,0.51,0.25,0.53,0.31,0.27,0.51,0.55,0.55,0.31,0.51,0.55,0.31,0.53,0.43,0.55,0.44,0.51,0.51,0.46,0.43,0.55,0.52,0.37,0.51,0.51,0.25,0.43,0.82,0.37,0.23" style="fill:rgb(23,22,21);font-family:MinionPro-Regular;font-size:9.46px;stroke:none;">conductor could be an ideal solution to the above problems.</text>
   <text y="711.312" x="305.109,310.671,315.693,318.62559999999996,321.525,329.958,334.4042,337.32,339.858,344.682,349.857,353.35720000000003,356.265,361.295,365.283,369.666,373.7338,376.613,380.087,382.481,387.503,391.985,396.413,398.951,402.38,407.3938,410.372,418.121,422.945,427.751,430.289,432.683,435.221,438.11,442.46160000000003,445.392,451.872,454.41,457.335,462.393,464.931,470.13399999999996,473.04,476.514,481.338,483.732,486.27,491.2838,494.207,498.212,503.037,508.211,513.206,518.228,522.233,525.122,529.946,533.4462,536.4,541.395,546.417" svgx:width="0.59,0.53,0.31,0.55,0.89,0.47,0.55,0.27,0.51,0.55,0.37,0.55,0.53,0.44,0.46,0.43,0.55,0.37,0.25,0.53,0.47,0.47,0.27,0.37,0.53,0.55,0.82,0.51,0.51,0.27,0.25,0.27,0.31,0.46,0.55,0.69,0.27,0.31,0.53,0.27,0.55,0.55,0.37,0.51,0.25,0.27,0.53,0.55,0.42,0.51,0.55,0.53,0.53,0.42,0.31,0.51,0.37,0.55,0.53,0.53,0.43" style="fill:rgb(23,22,21);font-family:MinionPro-Regular;font-size:9.46px;stroke:none;">But Mg ions have sluggish mobility within solid conductor due</text>
  </g>
  <path style="fill:none;stroke:rgb(109,109,108);stroke-width:0.25;" d="M44.830 736.150 L550.450 736.150 "/>
  <g begin="text">
   <text y="747.452" x="44.829,48.573,50.643,54.522,58.266,60.327,61.614,65.232,67.428,70.7736,72.738,74.025,77.78880000000001,79.704,84.618,88.362,91.98,97.785,99.072,102.429,104.49,106.686,109.8922,111.861,113.3944,115.353,120.519,125.685,130.464,132.399,134.208,136.278,140.157,143.901,145.962,147.249,150.867,153.063,156.42,157.707,161.451,163.386,167.265,169.461" svgx:width="0.54,0.31,0.56,0.54,0.3,0.19,0.52,0.31,0.48,0.55,0.19,0.54,0.55,0.7,0.54,0.52,0.83,0.19,0.48,0.3,0.31,0.46,0.55,0.22,0.55,0.74,0.74,0.74,0.28,0.26,0.31,0.56,0.54,0.3,0.19,0.52,0.31,0.48,0.19,0.54,0.28,0.56,0.31,0.56" style="fill:rgb(109,109,108);font-family:HelveticaNeueLTStd-Lt;font-size:6.97px;stroke:none;">Frontiers in Chemistry | www.frontiersin.org</text>
   <text y="747.452" x="295.695" svgx:width="0.56" style="fill:rgb(109,109,108);font-family:HelveticaNeueLTStd-Bd;font-size:6.97px;stroke:none;">5</text>
   <text y="747.452" x="435.834,439.578,443.196,447.201,449.397,453.141,456.759,458.955,462.1612,464.13,468.009,471.888,475.767,479.6702,481.581,483.1144,485.064,488.808,492.687,493.974,497.718,503.523,507.1474,509.094,512.9972,514.908,516.4414,518.401,522.793,524.989,527.05,528.337,531.955,533.242,536.8664,538.813,542.692,546.571" svgx:width="0.54,0.52,0.57,0.31,0.54,0.52,0.31,0.46,0.55,0.56,0.56,0.56,0.56,0.55,0.22,0.55,0.59,0.56,0.19,0.54,0.83,0.52,0.55,0.56,0.55,0.22,0.55,0.63,0.31,0.3,0.19,0.52,0.19,0.52,0.55,0.56,0.56,0.56" style="fill:rgb(109,109,108);font-family:HelveticaNeueLTStd-Lt;font-size:6.97px;stroke:none;">February 2020 | Volume 8 | Article 125</text>
  </g>
 </g>
</svg>
