<?xml version="1.0" encoding="UTF-8"?>
<svg height="786.535" width="2563.592" xmlns="http://www.w3.org/2000/svg">
 <g id="page" xmlns:svgx="http://www.xml-cml.org/schema/svgx">
  <g begin="text">
   <text y="50.64" x="50.037,56.509,61.986,67.462,73.934,80.406,86.878,93.35,98.976,105.448,110.4712,112.683,117.667,124.139,130.118,136.59,143.062,148.38,154.852,159.836,166.308,172.78,178.257,184.729" svgx:width="0.72,0.61,0.61,0.72,0.72,0.72,0.72,0.67,0.72,0.56,0.55,0.56,0.72,0.67,0.72,0.72,0.61,0.72,0.56,0.72,0.72,0.61,0.72,0.56" style="fill:rgb(0,0,0);font-family:Times-Roman;font-size:8.97px;stroke:none;">ALEXANDROS SARANTOPOULOS</text>
   <text y="50.64" x="191.981,195.961,198.4726,200.704,205.185,207.676" svgx:width="0.44,0.28,0.55,0.5,0.28,0.25" style="fill:rgb(0,0,0);font-family:Times-Italic;font-size:8.97px;stroke:none;">et al.</text>
   <text y="50.64" x="360.399,365.386,371.862,378.337,383.324,386.312,392.294,398.77,404.2417,406.492,412.474,417.954,424.43,427.418,432.898,443.59,451.563,457.035,462.516,467.996,473.978,476.966,483.441,488.922" svgx:width="0.56,0.72,0.72,0.56,0.33,0.67,0.72,0.61,0.55,0.67,0.61,0.72,0.33,0.61,0.94,0.89,0.72,0.61,0.61,0.67,0.33,0.72,0.61,0.56" style="fill:rgb(0,0,0);font-family:Times-Roman;font-size:8.97px;stroke:none;">PHYSICAL REVIEWMATERIALS</text>
   <text y="50.64" x="496.132" svgx:width="0.5" style="fill:rgb(0,0,0);font-family:Times-Bold;font-size:8.97px;stroke:none;">4</text>
   <text y="50.64" x="500.615,502.8575,505.097,509.579,514.062,518.544,523.026,527.509,531.994,534.241,537.225,541.708,546.19,550.672,555.155" svgx:width="0.25,0.55,0.5,0.5,0.5,0.5,0.5,0.5,0.55,0.33,0.5,0.5,0.5,0.5,0.33" style="fill:rgb(0,0,0);font-family:Times-Roman;font-size:8.97px;stroke:none;">, 054002 (2020)</text>
  </g>
  <path style="fill:none;stroke:rgb(0,0,0);stroke-width:1.0;" d="M50.040 55.060 L558.130 55.060 "/>
  <rect style="fill:pink;opacity:0.2;stroke:blue;stroke-width:0.3;" x="53.592" y="60.119" height="204.36" width="501.6" title="2"/>
  <text y="60.119" class="image" id="image.2.1" width="501" height="204" x="53.592" style="font-size:5.0px;">image.2.1.54_555.60_264</text>
  <g begin="text">
   <text y="292.515" x="61.998,66.983,69.969,76.443,78.6855,81.168,85.651,87.8935,92.382,98.856,101.349,105.832,110.315,113.301,116.287,120.268,123.756,128.239,130.732,135.215,137.708,140.2,144.683,149.168,151.658,154.647,158.628,162.609,165.102,169.585,172.571,177.054,181.035,185.016,187.52759999999998,190.002,193.49,197.973,201.955,205.936,209.8828,212.407,219.383,223.364,227.847,231.3453,233.832,236.818,242.798,247.784,255.755,259.243,262.2031,264.706,269.189,272.14910000000003,274.661,279.647,284.965,291.42339999999996,293.921,296.414,300.897,303.39,307.875,310.365,315.351,317.843,324.819,328.31730000000005,330.795,335.278,338.263,342.521,348.995,353.48,355.969,360.453,364.938,367.428,370.413,374.395,377.3551,379.867,385.348,390.333,395.805,401.2767,403.779,406.768,411.251,415.736,418.217,422.7,429.676,432.6361,435.157,439.138,443.622,448.107,450.596,453.582,456.568,459.5281,462.031,468.505,473.49,479.9484,482.455,485.444,489.927,494.41200000000003,496.902,501.385,508.361,511.3211,513.833,517.321,521.804,526.287,529.775,532.268,535.254,539.235,541.728,545.709,549.2072999999999,551.685,555.666" svgx:width="0.56,0.33,0.72,0.25,0.55,0.5,0.25,0.55,0.72,0.28,0.5,0.5,0.33,0.33,0.44,0.39,0.5,0.28,0.5,0.28,0.28,0.5,0.5,0.55,0.33,0.44,0.44,0.28,0.5,0.33,0.5,0.44,0.44,0.28,0.55,0.39,0.5,0.44,0.44,0.44,0.55,0.78,0.44,0.5,0.39,0.55,0.33,0.67,0.56,0.89,0.39,0.33,0.55,0.5,0.33,0.55,0.56,0.61,0.72,0.55,0.28,0.5,0.28,0.5,0.55,0.56,0.28,0.78,0.39,0.55,0.5,0.33,0.5,0.72,0.5,0.55,0.5,0.5,0.55,0.33,0.44,0.33,0.55,0.61,0.56,0.72,0.61,0.55,0.33,0.5,0.5,0.55,0.5,0.78,0.33,0.55,0.44,0.5,0.5,0.55,0.33,0.33,0.33,0.55,0.72,0.56,0.72,0.55,0.33,0.5,0.5,0.55,0.5,0.78,0.33,0.55,0.39,0.5,0.5,0.39,0.28,0.33,0.44,0.28,0.44,0.39,0.55,0.44,0.28" style="fill:rgb(0,0,0);font-family:Times-Roman;font-size:8.97px;stroke:none;">FIG. 1. High-resolution reciprocal space maps (RSMs) of STO thin ﬁlms grown on (a) LSAT (65 nm) and (f) DSO (50 nm) substrates at</text>
   <text y="303.468" x="50.037,54.52,59.003,63.488,66.203,73.179,77.94,82.423,85.409,88.037,90.27950000000001,92.997,96.978,99.964,104.447,108.93,113.413,117.898,120.613,123.106,127.589,131.5358,134.285,138.264,141.751,146.235,153.21,160.186,164.167,166.66,169.646,172.139,176.0858,178.835,184.815,187.801,191.782,196.265,200.75,203.456,206.445,210.426,215.411,219.392,223.373,225.866,228.359,232.842,237.325,240.8233,243.535,246.521,251.004,255.488,259.971,262.9311,265.668,269.649,274.132,278.617,281.332,284.321,288.804,293.287,297.77,300.756,302.9985,305.707,308.695,312.676,316.164,320.647,324.628,328.609,331.102,333.371,337.717,341.698,344.191,348.088,350.33050000000003,353.065,359.046,362.032,366.515,370.003,373.491,376.476,379.964,383.945,387.926,390.419,392.912,397.395,401.88,404.577,409.059,411.552,416.035,420.518,423.504,426.49,430.471,433.959,438.442,440.935,445.418,447.911,450.403,454.887,459.372,462.078,468.551,475.025,481.499,487.973,492.958,495.944,500.929,506.408,511.886,519.8693000000001,522.579,525.071,532.047,536.028,540.511,544.492,547.9902999999999,550.694,555.177" svgx:width="0.5,0.5,0.5,0.55,0.78,0.61,0.5,0.33,0.33,0.25,0.55,0.44,0.33,0.5,0.5,0.5,0.5,0.55,0.28,0.5,0.44,0.55,0.44,0.39,0.5,0.78,0.78,0.44,0.28,0.33,0.28,0.44,0.55,0.67,0.33,0.44,0.5,0.5,0.55,0.33,0.44,0.56,0.44,0.44,0.28,0.28,0.5,0.5,0.39,0.55,0.33,0.5,0.5,0.5,0.33,0.55,0.44,0.5,0.5,0.55,0.33,0.5,0.5,0.5,0.33,0.25,0.55,0.33,0.44,0.39,0.5,0.44,0.44,0.28,0.28,0.5,0.44,0.28,0.5,0.25,0.55,0.67,0.33,0.5,0.39,0.39,0.33,0.39,0.44,0.44,0.28,0.28,0.5,0.5,0.55,0.5,0.28,0.5,0.5,0.33,0.33,0.44,0.39,0.5,0.28,0.5,0.28,0.28,0.5,0.5,0.55,0.72,0.72,0.72,0.72,0.56,0.33,0.56,0.61,0.61,0.89,0.55,0.28,0.78,0.44,0.5,0.44,0.39,0.55,0.5,0.33" style="fill:rgb(0,0,0);font-family:Times-Roman;font-size:8.97px;stroke:none;">100 mTorr, around the asymmetric Bragg reﬂections (103) and (332), respectively. Cross-section high-resolution HAADF-STEM images of</text>
   <text y="314.431" x="50.037,55.022,60.341,66.7994,69.134,71.627,76.11,78.603,83.088,85.407,90.394,92.886,99.862,103.3603,105.667,110.149,113.135,117.392,123.866,128.351,130.68,135.163,139.64800000000002,141.968,144.953,149.437,152.39710000000002,154.737,160.219,165.204,170.676,176.1477,178.48,182.458,186.941,191.42600000000002,193.755,196.741,201.224,204.1841,206.525,212.996,217.981,224.455,226.69750000000002,229.018,232.996,235.489,239.972,244.455,248.94000000000003,251.269,257.743,260.235,262.728,267.213,269.532,272.025,276.508,280.489,282.982,285.94210000000004,288.292,292.27,296.754,299.739,302.725,306.706,310.194,314.677,319.161,323.644,328.127,330.62,335.103,339.588,341.916,344.409,348.892,351.878,356.361,358.854,362.835,367.318,371.299" svgx:width="0.56,0.61,0.72,0.55,0.28,0.5,0.28,0.5,0.55,0.56,0.28,0.78,0.39,0.55,0.5,0.33,0.5,0.72,0.5,0.55,0.5,0.5,0.55,0.33,0.5,0.33,0.55,0.61,0.56,0.72,0.61,0.55,0.44,0.5,0.5,0.55,0.33,0.5,0.33,0.55,0.72,0.56,0.72,0.25,0.55,0.44,0.28,0.5,0.5,0.5,0.55,0.72,0.28,0.28,0.5,0.55,0.28,0.5,0.44,0.28,0.33,0.55,0.44,0.5,0.33,0.33,0.44,0.39,0.5,0.5,0.5,0.5,0.28,0.5,0.5,0.55,0.28,0.5,0.33,0.5,0.28,0.44,0.5,0.44,0.25" style="fill:rgb(0,0,0);font-family:Times-Roman;font-size:8.97px;stroke:none;">STO thin ﬁlms grown on (b) LSAT and (g) DSO, along with their corresponding in-plane,</text>
   <text y="314.431" x="375.847" svgx:width="0.45" style="fill:rgb(0,0,0);font-family:RMTMI;font-size:8.97px;stroke:none;">ε</text>
   <text y="315.771" x="379.887,382.74" svgx:width="0.44,0.44" style="fill:rgb(0,0,0);font-family:Times-Italic;font-size:5.98px;stroke:none;">xx</text>
   <text y="314.43" x="388.41,391.396,394.382,398.363,401.3231,403.673,407.651,412.134,416.619,418.939,421.925,426.408,429.394,432.379,434.6215,436.934,440.915,445.398,449.88300000000004,452.211,456.695,461.178,463.67,466.656,471.139,474.125,477.111,481.594,484.087,488.068,492.551,496.532" svgx:width="0.33,0.33,0.44,0.33,0.55,0.44,0.5,0.5,0.55,0.33,0.5,0.33,0.33,0.25,0.55,0.44,0.5,0.5,0.55,0.5,0.5,0.28,0.33,0.5,0.33,0.33,0.5,0.28,0.44,0.5,0.44,0.25" style="fill:rgb(0,0,0);font-family:Times-Roman;font-size:8.97px;stroke:none;">[(c) and (h)], and out-of-plane,</text>
   <text y="314.43" x="501.093" svgx:width="0.45" style="fill:rgb(0,0,0);font-family:RMTMI;font-size:8.97px;stroke:none;">ε</text>
   <text y="315.771" x="505.14,507.868" svgx:width="0.44,0.44" style="fill:rgb(0,0,0);font-family:Times-Italic;font-size:5.98px;stroke:none;">yy</text>
   <text y="314.43" x="513.411,516.399,519.386,523.871,526.8311,529.181,533.16,537.645,542.13,544.449,547.437,549.931,552.919,555.906" svgx:width="0.33,0.33,0.5,0.33,0.55,0.44,0.5,0.5,0.55,0.33,0.28,0.33,0.33,0.25" style="fill:rgb(0,0,0);font-family:Times-Roman;font-size:8.97px;stroke:none;">[(d) and (i)],</text>
   <text y="325.392" x="50.036,53.523,56.016,59.002,62.983,65.476,69.961,72.027,79.003,82.984,87.468,90.9663,93.029,97.513,101.996,104.488,108.47,110.962,115.445,119.426,123.911,125.987,128.973,131.959,136.442,145.487,149.4338,151.544,156.027,160.008,164.492,171.467,175.449,177.941,180.927,183.42,187.401,191.382,193.8936,195.954,200.437,204.92,208.901,212.389,216.3358,218.446,222.427,226.91,230.891,233.384,237.867,241.355,243.848,247.3463,249.41,253.893,256.8531,258.951,261.443,265.927,269.8738,271.975,278.448,284.922,291.396,297.87,302.855,305.841,310.826,316.304,321.783,331.827,334.32,341.296,345.277,349.76,353.741,357.229,359.4715,361.549,367.03,371.513,375.4598,377.561,380.054,382.546,387.03,390.97679999999997,393.086,397.569,400.554,405.038,410.023,412.516,416.497,419.99530000000004,422.05,426.533" svgx:width="0.39,0.28,0.33,0.44,0.28,0.5,0.55,0.78,0.44,0.5,0.39,0.55,0.5,0.5,0.28,0.44,0.28,0.5,0.44,0.5,0.55,0.33,0.33,0.5,0.78,0.44,0.55,0.5,0.44,0.5,0.78,0.44,0.28,0.33,0.28,0.44,0.44,0.28,0.55,0.5,0.5,0.44,0.39,0.44,0.55,0.44,0.5,0.44,0.28,0.5,0.39,0.28,0.39,0.55,0.5,0.33,0.55,0.28,0.5,0.44,0.55,0.72,0.72,0.72,0.72,0.56,0.33,0.56,0.61,0.61,0.89,0.28,0.78,0.44,0.5,0.44,0.39,0.25,0.55,0.61,0.5,0.44,0.55,0.28,0.28,0.5,0.44,0.55,0.5,0.33,0.5,0.56,0.28,0.44,0.39,0.55,0.5,0.33" style="fill:rgb(0,0,0);font-family:Times-Roman;font-size:8.97px;stroke:none;">strain maps obtained froma geometrical phase analysis of the HAADF-STEMimages. The line proﬁles of</text>
   <text y="325.392" x="431.568" svgx:width="0.45" style="fill:rgb(0,0,0);font-family:RMTMI;font-size:8.97px;stroke:none;">ε</text>
   <text y="326.733" x="435.606,438.459" svgx:width="0.44,0.44" style="fill:rgb(0,0,0);font-family:Times-Italic;font-size:5.98px;stroke:none;">xx</text>
   <text y="325.392" x="443.886,447.865,452.347" svgx:width="0.44,0.5,0.5" style="fill:rgb(0,0,0);font-family:Times-Roman;font-size:8.97px;stroke:none;">and</text>
   <text y="325.392" x="458.898" svgx:width="0.45" style="fill:rgb(0,0,0);font-family:RMTMI;font-size:8.97px;stroke:none;">ε</text>
   <text y="326.733" x="462.948,465.676" svgx:width="0.44,0.44" style="fill:rgb(0,0,0);font-family:Times-Italic;font-size:5.98px;stroke:none;">yy</text>
   <text y="325.392" x="470.976,474.957,477.45,481.933,486.416,490.901,492.977,495.47,499.953,503.89979999999997,506.001,510.987,513.479,522.525,525.017,529.501,531.993,535.974,540.458,544.941,548.922,552.41,555.898" svgx:width="0.44,0.28,0.5,0.5,0.5,0.55,0.28,0.5,0.44,0.55,0.56,0.28,0.78,0.28,0.5,0.28,0.44,0.5,0.5,0.44,0.39,0.39,0.25" style="fill:rgb(0,0,0);font-family:Times-Roman;font-size:8.97px;stroke:none;">along the ﬁlmthickness,</text>
   <text y="336.345" x="50.036,53.022,57.505,60.4651,62.734,65.227,69.71,73.65679999999999,75.938,80.923,83.416,90.392,93.8903,96.116,100.599,105.084,107.322,112.801,117.786,123.258,128.7297,130.989,134.97,139.453,143.93800000000002,146.176,152.647,157.633,164.09140000000002,166.354,169.842,174.325,178.809,182.296,184.789,187.775,191.756,194.249,198.23,201.718,203.9605,206.191,210.169,213.155,217.1018,219.383,223.867,226.359,230.842,233.335,235.828,239.809,244.294,246.532,249.024,253.50900000000001,255.756,258.745,262.726,265.6861,267.955,271.936,276.419,280.904,283.143,286.131,288.624,291.609,293.8515,296.092,299.08,303.061,306.549,311.032,315.014,318.995,321.487,323.756,328.103,332.084,334.576,338.473" svgx:width="0.33,0.5,0.33,0.55,0.28,0.5,0.44,0.55,0.56,0.28,0.78,0.39,0.55,0.5,0.5,0.55,0.61,0.56,0.72,0.61,0.55,0.44,0.5,0.5,0.55,0.72,0.56,0.72,0.55,0.39,0.5,0.5,0.39,0.28,0.33,0.44,0.28,0.44,0.39,0.25,0.55,0.44,0.33,0.44,0.55,0.5,0.28,0.5,0.28,0.28,0.44,0.5,0.55,0.28,0.5,0.55,0.33,0.44,0.33,0.55,0.44,0.5,0.5,0.55,0.33,0.28,0.33,0.25,0.55,0.33,0.44,0.39,0.5,0.44,0.44,0.28,0.28,0.5,0.44,0.28,0.5,0.25" style="fill:rgb(0,0,0);font-family:Times-Roman;font-size:8.97px;stroke:none;">for the ﬁlms on LSAT and DSO substrates, are plotted in (e) and (j), respectively.</text>
   <text y="362.436" x="50.037,52.806,57.786,62.168400000000005,66.291,71.271,75.694,80.674,85.654,89.529,92.297,95.066,97.835,102.815,107.795,111.67,114.16,118.24,122.6224,126.745,131.167,135.59,138.906,143.329,151.079,153.847,158.2294,162.352,165.121,169.543,172.685,177.665,182.087,184.8758,188.937,196.029,200.448,204.3324,208.404,213.382,217.256,221.679,226.659,230.733,237.924,242.904,247.884,251.759,256.1414,260.264,264.143,266.912,271.892,274.661,279.083,284.063,286.832,291.812" svgx:width="0.28,0.5,0.44,0.55,0.5,0.44,0.5,0.5,0.39,0.28,0.28,0.28,0.5,0.5,0.39,0.25,0.55,0.44,0.55,0.44,0.44,0.33,0.44,0.78,0.28,0.44,0.55,0.28,0.44,0.33,0.5,0.44,0.28,0.55,0.72,0.44,0.39,0.55,0.5,0.39,0.44,0.5,0.55,0.72,0.5,0.5,0.39,0.44,0.55,0.39,0.28,0.5,0.28,0.44,0.5,0.28,0.5,0.33" style="fill:rgb(0,0,0);font-family:Times-Roman;font-size:9.96px;stroke:none;">the depositions, a ceramic target was used whose stoichio-</text>
   <text y="373.893" x="50.037,57.787,62.209,64.978,68.294,71.063,75.4454,79.397,83.819,88.799,96.549,101.53,106.51,110.384,113.153,115.922,118.69,123.671,128.651,132.571,139.664,144.086,147.9704,151.88,156.704,161.123,164.439,167.208,172.746,177.169,182.149,186.069,191.05,196.03,199.941,204.364,209.344,213.766,216.908,221.888,226.868,230.185,235.165,237.934,241.808,246.788,251.211,254.527,258.402,260.921,265.745,270.1274,274.106,279.086,282.403,285.719,290.142" svgx:width="0.78,0.44,0.28,0.33,0.28,0.44,0.55,0.44,0.5,0.78,0.5,0.5,0.39,0.28,0.28,0.28,0.5,0.5,0.55,0.72,0.44,0.39,0.55,0.5,0.44,0.33,0.28,0.56,0.44,0.5,0.55,0.5,0.5,0.55,0.44,0.5,0.44,0.33,0.5,0.5,0.33,0.5,0.28,0.39,0.5,0.44,0.33,0.39,0.28,0.5,0.44,0.55,0.5,0.33,0.33,0.44,0.5" style="fill:rgb(0,0,0);font-family:Times-Roman;font-size:9.96px;stroke:none;">metric composition was veriﬁed by energy-dispersive x-ray</text>
   <text y="385.35" x="50.037,53.91,58.89,63.311,67.733,70.5,73.816,78.795,82.668,87.09,92.069,96.947,101.927,106.46,109.781,115.866,123.057,130.248,133.5348,138.077,142.499,147.478,151.9,154.667,159.647,163.52,166.288,170.161,172.651,177.19,183.274,188.253,192.63539999999998,197.191,201.612,206.033,209.349,213.77,221.519,224.287,228.6694,233.233,236.001,240.422,243.564,248.543,252.964,255.7528,260.254,267.346,271.766,275.65040000000005,280.163,285.142,289.564,292.331" svgx:width="0.39,0.5,0.44,0.44,0.28,0.33,0.5,0.39,0.44,0.5,0.5,0.5,0.55,0.33,0.61,0.72,0.72,0.33,0.55,0.44,0.5,0.44,0.28,0.5,0.39,0.28,0.39,0.25,0.55,0.61,0.5,0.44,0.55,0.44,0.44,0.33,0.44,0.78,0.28,0.44,0.55,0.28,0.44,0.33,0.5,0.44,0.28,0.55,0.72,0.44,0.39,0.55,0.5,0.44,0.28,0.28" style="fill:rgb(0,0,0);font-family:Times-Roman;font-size:9.96px;stroke:none;">spectroscopy (EDX) analysis. The ceramic target was ball</text>
   <text y="396.807" x="50.037,57.787,60.556,63.324,66.093,70.515,75.495,79.362,83.784,88.765,93.745,97.611,101.486,104.254,109.235,112.003,116.426,119.742,124.165,129.145,133.003,137.425,140.21380000000002,144.067,149.047,151.816,154.885,158.206,162.628,165.945,170.367,175.348,178.13680000000002,181.981,184.749,189.172,196.922,201.902,206.324,209.641,214.063,216.832,221.812,225.129,229.551,233.4354,237.3,240.068,245.049,248.365,252.788,257.17040000000003,261.077,266.054,268.823,271.892,275.209,279.631,282.948,287.37,292.35" svgx:width="0.78,0.28,0.28,0.28,0.44,0.5,0.55,0.44,0.5,0.5,0.55,0.39,0.28,0.5,0.28,0.44,0.33,0.44,0.5,0.55,0.44,0.28,0.55,0.5,0.28,0.33,0.33,0.44,0.33,0.44,0.5,0.28,0.55,0.28,0.44,0.78,0.5,0.44,0.33,0.44,0.28,0.5,0.33,0.44,0.39,0.55,0.28,0.5,0.33,0.44,0.44,0.55,0.5,0.28,0.33,0.33,0.44,0.33,0.44,0.5,0.28" style="fill:rgb(0,0,0);font-family:Times-Roman;font-size:9.96px;stroke:none;">milled and sintered at different temperatures three different</text>
   <text y="408.264" x="50.037,52.806,55.574,63.324,67.747,71.6314,74.119,76.887,81.867,84.357,88.78,93.202,98.182,100.951,105.118,109.942,114.3244,116.881,119.653,124.633,129.0154,131.545,136.525,141.506,144.274,147.043,154.793,159.215,162.0038,164.489,169.47,173.892,178.872,182.747,185.515,188.284,192.613" svgx:width="0.28,0.28,0.78,0.44,0.39,0.55,0.28,0.5,0.55,0.44,0.44,0.5,0.28,0.44,0.5,0.44,0.55,0.28,0.5,0.44,0.55,0.5,0.5,0.28,0.28,0.78,0.44,0.28,0.55,0.5,0.44,0.5,0.39,0.28,0.28,0.5,0.25" style="fill:rgb(0,0,0);font-family:Times-Roman;font-size:9.96px;stroke:none;">times to achieve the optimal density.</text>
   <text y="436.983" x="84.84,88.329,91.818,95.306,97.5485,101.273,106.259,112.24,118.442,124.916,131.391,137.372,143.847,150.322,156.796,162.80589999999998,165.023,171.498,178.474,184.949,191.424,197.4,203.874,209.856,215.837,222.312,225.801,231.782,237.399,243.38,246.869,253.846" svgx:width="0.39,0.39,0.39,0.25,0.55,0.56,0.67,0.72,0.72,0.72,0.67,0.72,0.72,0.72,0.67,0.55,0.72,0.78,0.72,0.72,0.72,0.72,0.67,0.67,0.72,0.39,0.67,0.72,0.67,0.39,0.78,0.72" style="fill:rgb(0,0,0);font-family:Times-Bold;font-size:8.97px;stroke:none;">III. STRUCTURAL CHARACTERIZATION</text>
   <text y="454.416" x="61.998" svgx:width="0.72" style="fill:rgb(0,0,0);font-family:Times-Roman;font-size:9.96px;stroke:none;">A</text>
   <text y="454.416" x="71.871,77.253" svgx:width="0.44,0.47" style="fill:rgb(0,0,0);font-family:RMTMI;font-size:9.96px;stroke:none;">θ/</text>
   <text y="454.416" x="81.933" svgx:width="0.5" style="fill:rgb(0,0,0);font-family:Times-Roman;font-size:9.96px;stroke:none;">2</text>
   <text y="454.416" x="86.964" svgx:width="0.44" style="fill:rgb(0,0,0);font-family:RMTMI;font-size:9.96px;stroke:none;">θ</text>
   <text y="454.416" x="95.028,100.007,103.323,106.638,111.06,116.04,118.728,123.705,126.473,129.542,132.858,136.174,140.595,145.016,147.784,150.552,155.531,160.511,163.19,167.612,172.591,177.571,180.268,183.584,188.005,192.426,195.194,200.173,203.489,208.468,212.89,217.311,220.09980000000002,222.783,226.657,231.636,236.058,240.479,244.8614,247.589,255.338,259.76,264.74,267.428,270.748,277.391,282.929,291.783" svgx:width="0.5,0.33,0.33,0.44,0.5,0.55,0.5,0.28,0.33,0.33,0.33,0.44,0.44,0.28,0.28,0.5,0.5,0.55,0.44,0.5,0.5,0.55,0.33,0.44,0.44,0.28,0.5,0.33,0.5,0.44,0.44,0.28,0.55,0.39,0.5,0.44,0.44,0.44,0.55,0.78,0.44,0.5,0.55,0.33,0.67,0.56,0.89,0.33" style="fill:rgb(0,0,0);font-family:Times-Roman;font-size:9.96px;stroke:none;">x-ray diffraction and reciprocal space map (RSM)</text>
   <text y="465.873" x="50.037,54.458,59.438,63.859,66.627,71.606,75.479,78.247,82.1314,86.275,90.148,95.128,99.853,107.044,110.9284,115.063,120.042,125.021,130.001,134.981,139.126,146.875,151.297,154.064,158.486,163.465,166.233,171.212,176.19199999999998,180.347,185.326,189.747,192.515,199.706,204.127,208.549,213.529,217.684,220.451,225.43,229.8124,233.989,236.761,241.74,245.056,250.035,252.803,257.224,262.203,266.5854,270.771,273.539,277.96,280.728,283.495,286.263,290.685" svgx:width="0.44,0.5,0.44,0.28,0.5,0.39,0.28,0.39,0.55,0.39,0.5,0.5,0.72,0.39,0.55,0.5,0.5,0.5,0.5,0.55,0.78,0.44,0.28,0.44,0.5,0.28,0.5,0.5,0.55,0.5,0.44,0.28,0.72,0.44,0.44,0.5,0.55,0.28,0.5,0.44,0.55,0.28,0.5,0.33,0.5,0.28,0.44,0.5,0.44,0.55,0.28,0.44,0.28,0.28,0.28,0.44,0.44" style="fill:rgb(0,0,0);font-family:Times-Roman;font-size:9.96px;stroke:none;">analysis shows good matching between the in-plane lattice</text>
   <text y="477.33" x="50.037,55.017,59.44,62.756,67.179,74.928,79.351,82.119,86.542,89.8288,93.301,98.281,101.5678,105.03,107.799,112.779,117.1614,120.627,126.162,132.066,139.2372,142.686,148.224,150.993,158.743,162.6274,166.041,170.464,175.444,180.42399999999998,183.86,186.628,191.608,195.9904,199.456,204.433,207.202,210.271,213.588,218.01,221.327,225.749,230.73,233.5188,236.93,240.805,245.785,250.765,254.64,257.408,260.725,265.147,267.916,272.338,276.213,279.0018,282.405,286.284,290.706" svgx:width="0.5,0.44,0.33,0.44,0.78,0.44,0.28,0.44,0.33,0.55,0.5,0.33,0.55,0.28,0.5,0.44,0.55,0.56,0.61,0.72,0.55,0.56,0.28,0.78,0.39,0.55,0.44,0.5,0.5,0.55,0.28,0.5,0.44,0.55,0.5,0.28,0.33,0.33,0.44,0.33,0.44,0.5,0.28,0.55,0.39,0.5,0.5,0.39,0.28,0.33,0.44,0.28,0.44,0.39,0.28,0.55,0.39,0.44,0.44" style="fill:rgb(0,0,0);font-family:Times-Roman;font-size:9.96px;stroke:none;">parameter of the STO ﬁlms and the different substrates; see</text>
   <text y="488.787" x="50.037,55.575,58.344,63.324,67.198" svgx:width="0.56,0.28,0.5,0.39,0.25" style="fill:rgb(0,0,0);font-family:Times-Roman;font-size:9.96px;stroke:none;">Figs.</text>
   <text y="488.787" x="73.257,78.236,81.552,85.973" svgx:width="0.5,0.33,0.44,0.33" style="fill:rgb(0,0,255);font-family:Times-Roman;font-size:9.96px;stroke:none;">1(a)</text>
   <text y="488.787" x="92.858,97.278,102.255" svgx:width="0.44,0.5,0.5" style="fill:rgb(0,0,0);font-family:Times-Roman;font-size:9.96px;stroke:none;">and</text>
   <text y="488.787" x="110.804,115.786,119.105,122.423" svgx:width="0.5,0.33,0.33,0.33" style="fill:rgb(0,0,255);font-family:Times-Roman;font-size:9.96px;stroke:none;">1(f)</text>
   <text y="488.787" x="125.744,128.234,131.792,135.113,140.093,143.653,146.975,151.397,155.272,160.252,165.232,170.213,174.087,178.46939999999998,182.079,184.851,189.831,193.392,197.814,202.794,205.563,208.332,212.754,217.734,220.503,224.925,227.71380000000002,231.27,235.145,237.913,241.23,245.652,248.421,253.401,255.89100000000002,259.45,262.221,267.202,271.5844,275.194,280.732,283.5,291.25" svgx:width="0.25,0.55,0.33,0.5,0.55,0.33,0.44,0.39,0.5,0.5,0.5,0.39,0.44,0.55,0.28,0.5,0.55,0.44,0.5,0.28,0.28,0.44,0.5,0.28,0.44,0.28,0.55,0.39,0.28,0.33,0.44,0.28,0.5,0.25,0.55,0.28,0.5,0.44,0.55,0.56,0.28,0.78,0.39" style="fill:rgb(0,0,0);font-family:Times-Roman;font-size:9.96px;stroke:none;">. In response to epitaxial strain, the ﬁlms</text>
   <text y="500.244" x="50.036,54.302,59.279,64.257,68.676,73.653" svgx:width="0.44,0.5,0.5,0.44,0.5,0.5" style="fill:rgb(0,0,0);font-family:Times-Roman;font-size:9.96px;stroke:none;">expand</text>
   <text y="500.244" x="78.63" svgx:width="0.47" style="fill:rgb(0,0,0);font-family:RMTMI;font-size:9.96px;stroke:none;">/</text>
   <text y="500.244" x="83.31,87.731,92.711,100.46,105.439,108.754,113.176,117.049,120.9334,123.466,126.238,131.218,133.708,136.479,141.459,145.8414,148.371,153.35,158.329,161.097,164.413,169.392,172.707,176.023,181.002,183.77,188.191,193.171,197.55339999999998,200.092,205.071,207.839,211.154,215.575,219.997,222.764,225.532,230.511,235.491" svgx:width="0.44,0.5,0.78,0.5,0.33,0.44,0.39,0.39,0.55,0.28,0.5,0.55,0.28,0.5,0.44,0.55,0.5,0.5,0.28,0.33,0.5,0.33,0.33,0.5,0.28,0.44,0.5,0.44,0.55,0.5,0.28,0.33,0.44,0.44,0.28,0.28,0.5,0.5,0.25" style="fill:rgb(0,0,0);font-family:Times-Roman;font-size:9.96px;stroke:none;">compress in the out-of-plane direction.</text>
   <text y="511.701" x="61.998,68.085,73.066,77.4484,84.028,88.448,91.765,96.747,100.622,103.392,107.815,110.585,113.354,116.124,121.105,125.48740000000001,132.058,137.039,142.021,146.444,149.214,151.983,154.753,159.73299999999998,166.264,170.687,175.668,180.648,187.188,189.958,194.939,199.32139999999998,205.901,210.878,213.648,217.523,220.293,223.61,226.38,231.159,236.14,238.91,241.679,246.661,251.641,258.163,263.14,266.4268,272.995,276.874,279.644,282.961,287.385,290.154" svgx:width="0.61,0.5,0.44,0.55,0.44,0.33,0.5,0.39,0.28,0.44,0.28,0.28,0.28,0.5,0.44,0.55,0.5,0.5,0.44,0.28,0.28,0.28,0.5,0.55,0.44,0.5,0.5,0.55,0.28,0.5,0.44,0.55,0.5,0.28,0.39,0.28,0.33,0.28,0.5,0.5,0.28,0.28,0.5,0.5,0.55,0.5,0.33,0.55,0.39,0.28,0.33,0.44,0.28,0.5" style="fill:rgb(0,0,0);font-family:Times-Roman;font-size:9.96px;stroke:none;">The crystalline quality and the distribution of strain</text>
   <text y="523.158" x="50.037,54.459,57.228,62.208,67.189,72.169,76.809,79.578,84.558,88.94040000000001,93.612,99.148,101.916,109.666,112.438,116.3224,120.934,123.702,128.683,131.451,135.874,140.854,145.834,150.257,154.131,158.0154,162.645,169.836,174.259,177.575,181.95739999999998,186.629,190.509,193.277,198.257,203.238,206.006,210.429,215.409,220.041,225.021,230.00099999999998,234.633,238.507,242.93,245.698,250.121,254.543,257.312,261.734,266.714,271.346,275.768,279.085,284.065,287.94,291.814" svgx:width="0.44,0.28,0.5,0.5,0.5,0.55,0.28,0.5,0.44,0.55,0.56,0.28,0.78,0.33,0.39,0.55,0.28,0.5,0.28,0.44,0.5,0.5,0.44,0.39,0.39,0.55,0.72,0.44,0.33,0.44,0.55,0.39,0.28,0.5,0.5,0.28,0.44,0.5,0.55,0.5,0.5,0.55,0.39,0.44,0.28,0.44,0.44,0.28,0.44,0.5,0.55,0.44,0.33,0.5,0.39,0.39,0.33" style="fill:rgb(0,0,0);font-family:Times-Roman;font-size:9.96px;stroke:none;">along the ﬁlm’s thickness were studied on selected cross-</text>
   <text y="534.615" x="50.037,53.91,58.332,62.753,65.521,68.288,73.268,78.247,82.668,85.4568,92.82,96.694,101.673,106.094,110.516,113.283,121.032,125.454,130.433,134.3174,141.692,146.671,151.65099999999998,159.028,161.795,166.775,171.1574,178.564,183.544,187.965,192.944,200.693,205.115,207.882,211.198,213.965,218.387,222.808,225.5968,232.969,237.948,242.928,247.349,251.223,255.6054,263.021,267.443,272.422,276.843,279.611,284.59,288.464,291.231" svgx:width="0.39,0.44,0.44,0.28,0.28,0.5,0.5,0.44,0.28,0.55,0.39,0.5,0.44,0.44,0.28,0.78,0.44,0.5,0.39,0.55,0.5,0.5,0.55,0.28,0.5,0.44,0.55,0.5,0.44,0.5,0.78,0.44,0.28,0.33,0.28,0.44,0.44,0.28,0.55,0.5,0.5,0.44,0.39,0.44,0.55,0.44,0.5,0.44,0.28,0.5,0.39,0.28,0.39" style="fill:rgb(0,0,0);font-family:Times-Roman;font-size:9.96px;stroke:none;">sectional specimens by the geometrical phase analysis</text>
   <text y="546.072" x="50.037,53.352,60.543,65.16,72.351,75.6378,82.593,87.57,90.85679999999999,97.821,102.798,105.565,110.545,115.524,118.84,123.261,128.24,133.22,135.987,140.36939999999998,147.346,151.767,156.746,161.726,166.705,169.473,173.894,177.1808,184.154,189.134,193.555,196.871,201.851,208.778,214.315,218.737,221.504,226.48399999999998,233.42,236.741,243.932,251.123,258.314,265.505,271.042,274.3288,281.284,284.055,291.804" svgx:width="0.33,0.72,0.56,0.72,0.33,0.55,0.5,0.33,0.55,0.5,0.28,0.5,0.5,0.33,0.44,0.5,0.5,0.28,0.44,0.55,0.44,0.5,0.5,0.5,0.28,0.44,0.33,0.55,0.5,0.44,0.33,0.5,0.55,0.56,0.44,0.28,0.5,0.55,0.33,0.72,0.72,0.72,0.72,0.56,0.33,0.55,0.28,0.78,0.33" style="fill:rgb(0,0,0);font-family:Times-Roman;font-size:9.96px;stroke:none;">(GPA) of high-angle annular dark ﬁeld (HAADF) im-</text>
   <text y="557.529" x="50.037,54.459,59.44,63.862,67.74640000000001,71.035,73.804,78.784,82.057,85.931,90.354,94.776,99.756,104.737,107.505,112.485,117.465,120.756,123.525,126.842,131.264,136.244,140.119,147.869,150.637,154.512,158.386,161.155,166.135,171.11499999999998,174.388,178.81,181.579,186.001,190.424,193.192,196.509,201.489,206.469,209.76,217.509,220.278,224.7,228.017,232.997,236.871,241.294,246.274,251.152,256.132,259.423,262.743,268.282,274.368,280.454,289.31,292.626" svgx:width="0.44,0.5,0.44,0.39,0.55,0.28,0.5,0.55,0.39,0.44,0.44,0.5,0.5,0.28,0.5,0.5,0.55,0.28,0.33,0.44,0.5,0.39,0.78,0.28,0.39,0.39,0.28,0.5,0.5,0.55,0.44,0.28,0.44,0.44,0.28,0.33,0.5,0.5,0.55,0.78,0.28,0.44,0.33,0.5,0.39,0.44,0.5,0.5,0.5,0.55,0.33,0.56,0.61,0.61,0.89,0.33,0.25" style="fill:rgb(0,0,0);font-family:Times-Roman;font-size:9.96px;stroke:none;">ages in scanning transmission electron microscopy (STEM).</text>
   <text y="568.986" x="50.037,56.123,61.103,65.4854,71.175,75.597,80.577,88.327,93.307,96.624,101.046,104.921,108.795,111.315,116.139" svgx:width="0.61,0.5,0.44,0.55,0.44,0.5,0.78,0.5,0.33,0.44,0.39,0.39,0.28,0.5,0.44" style="fill:rgb(0,0,0);font-family:Times-Roman;font-size:9.96px;stroke:none;">The compressive</text>
   <text y="568.986" x="120.552" svgx:width="0.47" style="fill:rgb(0,0,0);font-family:RMTMI;font-size:9.96px;stroke:none;">/</text>
   <text y="568.986" x="125.233,128.001,132.424,137.404,141.278,144.047,146.816,151.1984,156.896,160.77,163.539,166.855,171.278,174.046,179.02599999999998,184.657,187.974,192.396,196.271,201.251,204.02,206.788,210.6724,216.302,219.07,224.04999999999998,229.69,234.0724,239.744,244.724,249.704,257.454,262.434,267.415,271.837,276.817,281.24,286.22,291.201" svgx:width="0.28,0.44,0.5,0.39,0.28,0.28,0.44,0.55,0.39,0.28,0.33,0.44,0.28,0.5,0.55,0.33,0.44,0.39,0.5,0.28,0.28,0.39,0.55,0.28,0.5,0.55,0.44,0.55,0.5,0.5,0.78,0.5,0.5,0.44,0.5,0.44,0.5,0.5,0.39" style="fill:rgb(0,0,0);font-family:Times-Roman;font-size:9.96px;stroke:none;">tensile strain results in a homogeneous</text>
   <text y="580.443" x="50.037,54.458,57.226,62.205,67.185,72.108,76.529,79.297,82.065,87.044" svgx:width="0.44,0.28,0.5,0.5,0.5,0.44,0.28,0.28,0.5,0.5" style="fill:rgb(0,0,0);font-family:Times-Roman;font-size:9.96px;stroke:none;">elongation</text>
   <text y="580.443" x="92.022" svgx:width="0.47" style="fill:rgb(0,0,0);font-family:RMTMI;font-size:9.96px;stroke:none;">/</text>
   <text y="580.443" x="96.703,101.125,106.105,111.086,113.854,117.171,121.593,126.016,128.784,131.553,136.533,141.51299999999998,145.074,150.051,153.3378,156.892,159.663,164.644,169.0264,172.582,177.562,182.542,185.311,188.628,193.608,196.924,200.241,205.221,207.99,212.412,217.393,221.7754,225.349,228.117,232.54,235.308,238.077,240.846,245.268,249.6504,253.197,258.177,262.6,265.916,270.339,278.089,282.511,285.28,289.702,292.627" svgx:width="0.44,0.5,0.5,0.28,0.33,0.44,0.44,0.28,0.28,0.5,0.5,0.55,0.5,0.33,0.55,0.28,0.5,0.44,0.55,0.5,0.5,0.28,0.33,0.5,0.33,0.33,0.5,0.28,0.44,0.5,0.44,0.55,0.28,0.44,0.28,0.28,0.28,0.44,0.44,0.55,0.5,0.44,0.33,0.44,0.78,0.44,0.28,0.44,0.33,0.25" style="fill:rgb(0,0,0);font-family:Times-Roman;font-size:9.96px;stroke:none;">contraction of the out-of-plane lattice parameter,</text>
   <text y="591.9" x="50.037,54.458,58.3424,61.1,64.974,69.953,74.678,81.869,86.849,89.609,94.587,99.56700000000001,102.327,105.094,107.862,112.841,117.2234,120.023,125.0,128.316,133.295,138.833,141.6,146.022,149.9064,152.664,157.643" svgx:width="0.44,0.39,0.55,0.39,0.5,0.5,0.72,0.5,0.55,0.5,0.5,0.55,0.28,0.28,0.5,0.44,0.55,0.5,0.33,0.5,0.56,0.28,0.44,0.39,0.55,0.5,0.33" style="fill:rgb(0,0,0);font-family:Times-Roman;font-size:9.96px;stroke:none;">as shown by line proﬁles of</text>
   <text y="591.9" x="163.726" svgx:width="0.45" style="fill:rgb(0,0,0);font-family:RMTMI;font-size:9.96px;stroke:none;">ε</text>
   <text y="593.394" x="168.225,171.555" svgx:width="0.44,0.44" style="fill:rgb(0,0,0);font-family:Times-Italic;font-size:6.97px;stroke:none;">xx</text>
   <text y="591.9" x="178.134,182.553,187.531" svgx:width="0.44,0.5,0.5" style="fill:rgb(0,0,0);font-family:Times-Roman;font-size:9.96px;stroke:none;">and</text>
   <text y="591.9" x="195.279" svgx:width="0.45" style="fill:rgb(0,0,0);font-family:RMTMI;font-size:9.96px;stroke:none;">ε</text>
   <text y="593.394" x="199.779,202.956" svgx:width="0.44,0.44" style="fill:rgb(0,0,0);font-family:Times-Italic;font-size:6.97px;stroke:none;">yy</text>
   <text y="591.9" x="209.391,212.161,217.141,219.892,225.431,228.2,233.182,237.057" svgx:width="0.28,0.5,0.55,0.56,0.28,0.5,0.39,0.25" style="fill:rgb(0,0,0);font-family:Times-Roman;font-size:9.96px;stroke:none;">in Figs.</text>
   <text y="591.9" x="242.312,247.292,250.607,255.029" svgx:width="0.5,0.33,0.44,0.33" style="fill:rgb(0,0,255);font-family:Times-Roman;font-size:9.96px;stroke:none;">1(e)</text>
   <text y="591.9" x="261.104,265.523,270.501" svgx:width="0.44,0.5,0.5" style="fill:rgb(0,0,0);font-family:Times-Roman;font-size:9.96px;stroke:none;">and</text>
   <text y="591.9" x="278.24,283.222,286.54,289.311" svgx:width="0.5,0.33,0.28,0.33" style="fill:rgb(0,0,255);font-family:Times-Roman;font-size:9.96px;stroke:none;">1(j)</text>
   <text y="591.9" x="292.631" svgx:width="0.25" style="fill:rgb(0,0,0);font-family:Times-Roman;font-size:9.96px;stroke:none;">.</text>
   <text y="603.357" x="50.036,57.228,62.209,64.977,69.95700000000001,74.031,78.41340000000001,82.518,90.267,93.036,98.016,102.996,106.2828,110.386,115.111,119.53,122.847,125.616,130.038,132.807,135.575,140.555,145.535,149.609,154.433,159.257,163.677,166.9638,171.084,173.855,178.836,183.2184,187.323,192.861,195.63,203.3988,207.446,210.218,215.198,217.967,222.389,227.369,232.35,236.772,240.647,244.5314,248.603,251.374,255.2584,259.312,264.293,269.273,273.148,277.57,280.887,285.71,290.13" svgx:width="0.72,0.5,0.28,0.5,0.55,0.44,0.55,0.78,0.28,0.5,0.5,0.33,0.55,0.5,0.44,0.33,0.28,0.44,0.28,0.28,0.5,0.5,0.55,0.5,0.5,0.44,0.33,0.55,0.28,0.5,0.44,0.55,0.56,0.28,0.78,0.55,0.28,0.5,0.28,0.44,0.5,0.5,0.44,0.39,0.39,0.55,0.28,0.39,0.55,0.5,0.5,0.39,0.44,0.33,0.5,0.44,0.5" style="fill:rgb(0,0,0);font-family:Times-Roman;font-size:9.96px;stroke:none;">Only a minor variation over the ﬁlm thickness is observed</text>
   <text y="614.814" x="50.036,52.804,57.784000000000006,61.138,63.905,68.884,73.2664,76.669,79.441,84.42,87.736,92.715,95.483,99.904,104.883,109.2654,112.668,117.647,122.069,125.384,130.364,133.679,141.428,145.85,148.617,151.385,156.364,161.344,164.716,169.693,172.9798,176.371,179.143,184.122,188.5044,191.898,197.435,203.339,210.5102,213.896,218.873,222.189,226.914,234.105,239.08499999999998,242.457,247.436,252.416,255.77,258.538,263.517,267.8994,271.302,277.386,282.923,289.007" svgx:width="0.28,0.5,0.55,0.28,0.5,0.44,0.55,0.28,0.5,0.33,0.5,0.28,0.44,0.5,0.44,0.55,0.5,0.44,0.33,0.5,0.33,0.78,0.44,0.28,0.28,0.5,0.5,0.55,0.5,0.33,0.55,0.28,0.5,0.44,0.55,0.56,0.61,0.72,0.55,0.5,0.33,0.5,0.72,0.5,0.55,0.5,0.5,0.55,0.28,0.5,0.44,0.55,0.61,0.56,0.72,0.61" style="fill:rgb(0,0,0);font-family:Times-Roman;font-size:9.96px;stroke:none;">in the in-plane deformation of the STO grown on the LSAT</text>
   <text y="626.271" x="50.036,53.91,58.889,63.868,67.742,70.509,73.825,78.246,81.014,85.435,87.925,92.24,98.325,103.304,107.726,111.041,115.463,118.778,123.757,127.073,131.494,133.984,138.299,141.067,146.046,150.42839999999998,154.776,160.311,166.215,173.3862,177.708,180.476,185.455,188.222,193.202,197.502,203.039,205.806,213.555,217.4394,221.737,226.716,230.937,235.761,240.14339999999999,244.5,249.48,254.459,259.438,263.86,267.001,271.98,276.959,281.939,286.32140000000004,290.687" svgx:width="0.39,0.5,0.5,0.39,0.28,0.33,0.44,0.28,0.44,0.25,0.55,0.61,0.5,0.44,0.33,0.44,0.33,0.5,0.33,0.44,0.25,0.55,0.28,0.5,0.44,0.55,0.56,0.61,0.72,0.55,0.28,0.5,0.28,0.5,0.55,0.56,0.28,0.78,0.39,0.55,0.5,0.44,0.5,0.44,0.55,0.5,0.5,0.5,0.44,0.33,0.5,0.5,0.5,0.44,0.55,0.44" style="fill:rgb(0,0,0);font-family:Times-Roman;font-size:9.96px;stroke:none;">substrate. Therefore, the STO thin ﬁlms have undergone a</text>
   <text y="637.728" x="50.036,55.016,59.995,62.762,66.078,71.057,74.373,82.1418,85.821,88.589,93.01,95.778,99.093,103.514,108.494,113.473,118.452,122.874,125.66279999999999,129.353,134.333,138.754,142.07,147.049,150.365,158.114,162.535,165.303,168.07,173.049,178.029,180.519,184.221,191.412,194.179,196.947,201.926,206.905,211.885,214.6738,218.355,223.335,228.314,231.082,235.503,240.482,243.25,247.6324,251.377,254.149,259.128,264.108,266.875,271.297,275.718,278.486,281.253,286.233,291.212" svgx:width="0.5,0.5,0.28,0.33,0.5,0.33,0.78,0.55,0.28,0.44,0.28,0.33,0.44,0.5,0.5,0.5,0.44,0.28,0.55,0.5,0.44,0.33,0.5,0.33,0.78,0.44,0.28,0.28,0.5,0.5,0.25,0.55,0.72,0.28,0.28,0.5,0.5,0.5,0.28,0.55,0.5,0.5,0.28,0.44,0.5,0.28,0.44,0.55,0.28,0.5,0.5,0.28,0.44,0.44,0.28,0.28,0.5,0.5,0.39" style="fill:rgb(0,0,0);font-family:Times-Roman;font-size:9.96px;stroke:none;">uniform tetragonal deformation, without notable indications</text>
   <text y="649.185" x="50.036,55.017,58.3038,60.831,68.581,71.349,75.772,79.088,84.068,87.943,90.712,94.028,99.008,103.431,106.199,111.18,114.496,118.919,121.70779999999999,124.184,127.5,131.923,134.691,139.114,144.094,148.517,151.285,154.054,159.034,164.014" svgx:width="0.5,0.33,0.55,0.78,0.28,0.44,0.33,0.5,0.39,0.28,0.33,0.5,0.44,0.28,0.5,0.33,0.44,0.28,0.55,0.33,0.44,0.28,0.44,0.5,0.44,0.28,0.28,0.5,0.5,0.25" style="fill:rgb(0,0,0);font-family:Times-Roman;font-size:9.96px;stroke:none;">of microstructural relaxation.</text>
   <text y="677.904" x="61.026,64.514,69.689,71.9315,75.665,81.651,88.626,94.607,101.081,109.545,116.019,122.02890000000001,124.236,130.709,137.685,144.159,150.633,157.106,163.58,169.561,173.049,179.522,183.01,188.991,195.44940000000003,197.713,206.177,212.157,218.631,223.616,230.09,236.564,242.545,251.009,256.989,263.463,269.444,274.4672,276.671" svgx:width="0.39,0.72,0.25,0.55,0.67,0.78,0.67,0.72,0.94,0.72,0.67,0.55,0.72,0.78,0.72,0.72,0.72,0.72,0.67,0.39,0.72,0.39,0.67,0.72,0.55,0.94,0.67,0.72,0.56,0.72,0.72,0.67,0.94,0.67,0.72,0.67,0.56,0.55,0.83" style="fill:rgb(0,0,0);font-family:Times-Bold;font-size:8.97px;stroke:none;">IV. THERMAL CONDUCTIVITY MEASUREMENTS &amp;</text>
   <text y="689.361" x="126.375,132.849,139.139,145.613,150.771,157.244,162.23,165.718,170.7412,172.954,181.418,187.398,193.379,200.355,207.331,213.805" svgx:width="0.72,0.72,0.72,0.67,0.72,0.56,0.39,0.56,0.55,0.94,0.67,0.67,0.78,0.78,0.72,0.56" style="fill:rgb(0,0,0);font-family:Times-Bold;font-size:8.97px;stroke:none;">ANALYSIS METHODS</text>
   <text y="706.794" x="61.998,68.083,73.062,77.4444,82.288,85.059,90.039,94.46,97.776,105.525,109.946,112.73479999999999,117.533,121.954,126.933,131.913,136.892,141.871,146.293,149.06,151.58,156.557,159.325,162.092,164.86,169.281,173.1654,177.976,182.953,186.2398,191.08,193.852,198.831,203.21339999999998,208.057,213.594,216.362,224.11,227.9944,232.787,239.978,244.399,247.715,252.0974,256.949,264.698,269.119,273.541,277.414,282.394,285.709,290.131" svgx:width="0.61,0.5,0.44,0.55,0.28,0.5,0.44,0.33,0.78,0.44,0.28,0.55,0.44,0.5,0.5,0.5,0.5,0.44,0.28,0.28,0.5,0.28,0.28,0.28,0.44,0.39,0.55,0.5,0.33,0.55,0.28,0.5,0.44,0.55,0.56,0.28,0.78,0.39,0.55,0.72,0.44,0.33,0.44,0.55,0.78,0.44,0.44,0.39,0.5,0.33,0.44,0.5" style="fill:rgb(0,0,0);font-family:Times-Roman;font-size:9.96px;stroke:none;">The thermal conductivities of the ﬁlms were measured</text>
   <text y="718.251" x="50.037,55.016,59.995999999999995,63.89,67.205,70.521,74.942,79.922,84.901,89.322,94.302,98.568,103.548,107.468,112.448,117.427,125.176,129.597,132.365,137.345,141.247,144.019,148.998,153.42,156.735,164.484,169.464,172.779,177.201,182.738,187.159,191.581,194.348,198.77,203.749,208.17,212.55239999999998,216.513,219.829,225.366,232.557,238.642,245.285,248.5718,252.503" svgx:width="0.5,0.5,0.55,0.33,0.33,0.44,0.5,0.5,0.44,0.5,0.44,0.5,0.55,0.5,0.5,0.78,0.44,0.28,0.5,0.55,0.28,0.5,0.44,0.33,0.78,0.5,0.33,0.44,0.56,0.44,0.44,0.28,0.44,0.5,0.44,0.44,0.55,0.33,0.56,0.72,0.61,0.67,0.33,0.55,0.33" style="fill:rgb(0,0,0);font-family:Times-Roman;font-size:9.96px;stroke:none;">by frequency domain thermoreﬂectance (FDTR) [</text>
   <text y="718.251" x="255.812,260.79" svgx:width="0.5,0.5" style="fill:rgb(0,0,255);font-family:Times-Roman;font-size:9.96px;stroke:none;">18</text>
   <text y="718.251" x="265.766" svgx:width="0.25" style="fill:rgb(0,0,0);font-family:Times-Roman;font-size:9.96px;stroke:none;">,</text>
   <text y="718.251" x="268.259,273.236" svgx:width="0.5,0.5" style="fill:rgb(0,0,255);font-family:Times-Roman;font-size:9.96px;stroke:none;">19</text>
   <text y="718.251" x="278.212,281.534,284.024,287.924" svgx:width="0.33,0.25,0.55,0.72" style="fill:rgb(0,0,0);font-family:Times-Roman;font-size:9.96px;stroke:none;">]. A</text>
   <text y="729.708" x="50.036,53.909,56.677,61.656,66.636,70.509,75.488,78.256,83.235,87.657,90.424,93.192,98.172,103.317,111.066,116.045,121.024,126.004,128.771,133.193,135.96,140.382,145.362,150.516,154.937,159.916,164.896,167.663,170.431,175.41,180.39,185.369,190.348,194.2324,199.384,206.477,210.698,215.522,219.90439999999998,225.089,228.404,232.826,240.017,243.3038,248.477,253.456,258.436,266.185,271.165,276.31,279.081,283.503,287.376,291.797" svgx:width="0.39,0.28,0.5,0.5,0.39,0.5,0.28,0.5,0.44,0.28,0.28,0.5,0.55,0.78,0.5,0.5,0.5,0.28,0.44,0.28,0.44,0.5,0.55,0.44,0.5,0.5,0.28,0.28,0.5,0.5,0.5,0.5,0.39,0.55,0.72,0.44,0.5,0.44,0.55,0.33,0.44,0.72,0.33,0.55,0.5,0.5,0.78,0.5,0.55,0.28,0.44,0.39,0.44,0.33" style="fill:rgb(0,0,0);font-family:Times-Roman;font-size:9.96px;stroke:none;">sinusoidally modulated continuous wave (cw) pump laser</text>
   <text y="741.165" x="50.036" svgx:width="0.33" style="fill:rgb(0,0,0);font-family:Times-Roman;font-size:9.96px;stroke:none;">(</text>
   <text y="741.165" x="53.356" svgx:width="0.55" style="fill:rgb(0,0,0);font-family:RMTMI;font-size:9.96px;stroke:none;">λ</text>
   <text y="741.165" x="61.574" svgx:width="0.78" style="fill:rgb(0,0,0);font-family:MTSY;font-size:9.96px;stroke:none;">=</text>
   <text y="741.165" x="72.113,77.092,82.072,87.052,91.918,96.897,104.646,107.136,111.999,119.748,124.728,129.707,134.686,137.454,141.875,144.643,147.41,152.39" svgx:width="0.5,0.5,0.5,0.55,0.5,0.78,0.25,0.55,0.78,0.5,0.5,0.5,0.28,0.44,0.28,0.28,0.5,0.5" style="fill:rgb(0,0,0);font-family:Times-Roman;font-size:9.96px;stroke:none;">488 nm, modulating</text>
   <text y="741.165" x="163.761" svgx:width="0.28" style="fill:rgb(0,0,0);font-family:Times-Italic;font-size:9.96px;stroke:none;">f</text>
   <text y="741.165" x="171.06" svgx:width="0.78" style="fill:rgb(0,0,0);font-family:MTSY;font-size:9.96px;stroke:none;">=</text>
   <text y="741.165" x="181.599" svgx:width="0.5" style="fill:rgb(0,0,0);font-family:Times-Roman;font-size:9.96px;stroke:none;">0</text>
   <text y="741.165" x="186.639" svgx:width="0.28" style="fill:rgb(0,0,0);font-family:RMTMI;font-size:9.96px;stroke:none;">.</text>
   <text y="741.165" x="189.375,194.354,199.333,204.313,209.179,218.034,225.225,229.647,232.9338,237.828,240.596,244.4804,249.326,252.641,257.621,262.042,267.021,270.895,275.316,280.296,285.162,290.142" svgx:width="0.5,0.5,0.5,0.55,0.89,0.72,0.44,0.33,0.55,0.28,0.39,0.55,0.33,0.5,0.44,0.5,0.39,0.44,0.5,0.55,0.5,0.5" style="fill:rgb(0,0,0);font-family:Times-Roman;font-size:9.96px;stroke:none;">1–6 MHz) is focused on</text>
   <text y="752.622" x="50.036,52.804,57.783,62.165400000000005,66.944,70.824,75.803,79.119,82.341,86.762,91.183,95.56540000000001,100.345,105.324,108.6108,113.388,116.156,121.135,125.51740000000001,130.288,135.823,138.59,146.339,148.829,153.575,157.997,162.976,167.397,170.165,174.586,179.566,184.316,189.295,194.27499999999998,199.025,203.4074,208.177,213.157,218.136,221.451,226.431,234.18,237.495,240.263,245.242,248.01,252.431,257.411,262.161,264.928,269.35,274.329,278.75,282.0368,286.814,291.793" svgx:width="0.28,0.5,0.44,0.55,0.39,0.5,0.33,0.33,0.44,0.44,0.44,0.55,0.5,0.33,0.55,0.28,0.5,0.44,0.55,0.56,0.28,0.78,0.25,0.55,0.44,0.5,0.44,0.28,0.44,0.5,0.55,0.5,0.5,0.55,0.44,0.55,0.5,0.5,0.33,0.5,0.78,0.33,0.28,0.5,0.28,0.44,0.5,0.55,0.28,0.44,0.5,0.44,0.33,0.55,0.5,0.33" style="fill:rgb(0,0,0);font-family:Times-Roman;font-size:9.96px;stroke:none;">the surface of the ﬁlm, coated by a 70-nm-thick layer of</text>
   <text y="362.438" x="313.051,316.925,321.905,326.886,329.654,332.423,336.845,340.162,344.584,349.564,354.16,361.351,366.332,368.822,373.424,376.193,381.173,385.76,390.74,394.057,399.037,404.017,408.997,413.42,417.80240000000003,422.456,426.878,431.858,436.454,441.435,445.309,449.732,452.5,455.269,458.037,462.46,465.228,470.209,473.525,478.505,483.092,490.842,495.823,500.803,505.783,508.552,512.974,515.743,518.511,523.492,528.472,533.077,538.054,541.3408,545.974,548.746,553.726" svgx:width="0.39,0.5,0.5,0.28,0.28,0.44,0.33,0.44,0.5,0.55,0.72,0.5,0.25,0.55,0.28,0.5,0.55,0.5,0.33,0.5,0.5,0.5,0.44,0.44,0.55,0.44,0.5,0.55,0.5,0.39,0.44,0.28,0.28,0.28,0.44,0.28,0.5,0.33,0.5,0.55,0.78,0.5,0.5,0.5,0.28,0.44,0.28,0.28,0.5,0.5,0.55,0.5,0.33,0.55,0.28,0.5,0.44" style="fill:rgb(0,0,0);font-family:Times-Roman;font-size:9.96px;stroke:none;">sputtered Au, to produce an oscillatory modulation of the</text>
   <text y="373.895" x="313.051,316.925,321.905,325.222,328.444,332.866,337.289,341.6714,344.029,346.798,351.22,358.97,363.951,368.373,371.689,376.112,378.88,383.861,387.177,391.6,394.09000000000003,396.415,402.501,407.481,410.25,414.124,416.61400000000003,418.93,421.702,426.682,428.991,431.763,436.743,440.06,445.04,447.53000000000003,449.846,453.163,457.585,461.46,466.44,469.208,471.977,475.8614,478.16,480.929,485.909,488.218,492.60040000000004,494.95,499.93,504.353,507.669,510.438,515.418,520.398,523.167,527.5494,529.908,534.33,539.31,543.733,548.713,553.693" svgx:width="0.39,0.5,0.33,0.33,0.44,0.44,0.44,0.55,0.28,0.44,0.78,0.5,0.44,0.33,0.44,0.28,0.5,0.33,0.44,0.25,0.55,0.61,0.5,0.28,0.39,0.25,0.55,0.28,0.5,0.55,0.28,0.5,0.33,0.5,0.25,0.55,0.33,0.44,0.39,0.5,0.28,0.28,0.39,0.55,0.28,0.5,0.55,0.44,0.55,0.5,0.44,0.33,0.28,0.5,0.5,0.28,0.44,0.55,0.44,0.5,0.44,0.5,0.5,0.44" style="fill:rgb(0,0,0);font-family:Times-Roman;font-size:9.96px;stroke:none;">surface temperature. This, in turn, results in a periodic change</text>
   <text y="385.352" x="313.051,318.03,321.3168,323.835,326.603,331.582,335.9644,338.485,345.676,350.656,353.146,355.918,360.897,365.318,368.634,376.383,381.362,384.678,389.099,394.636,399.058,403.479,406.247,410.668,415.647,420.069,424.49,426.98,429.503,436.694,441.674,444.441,448.863,453.843,456.333,459.104,462.9884,465.458,469.338,474.317,479.296,483.17,487.591,492.571,497.55,501.971,506.951,509.718,512.486,517.466,519.965,527.714,532.135,536.556,540.43,545.409,548.725,553.146" svgx:width="0.5,0.33,0.55,0.28,0.5,0.44,0.55,0.72,0.5,0.55,0.28,0.5,0.44,0.33,0.78,0.5,0.33,0.44,0.56,0.44,0.44,0.28,0.44,0.5,0.44,0.44,0.25,0.55,0.72,0.5,0.28,0.44,0.5,0.55,0.28,0.39,0.55,0.39,0.5,0.5,0.39,0.44,0.5,0.5,0.44,0.5,0.28,0.28,0.5,0.55,0.78,0.44,0.44,0.39,0.5,0.33,0.44,0.5" style="fill:rgb(0,0,0);font-family:Times-Roman;font-size:9.96px;stroke:none;">of the Au thermoreﬂectance, which is subsequently measured</text>
   <text y="396.809" x="313.051,318.03,323.01,325.905,330.2874,333.213,337.632,344.8032,347.721,352.699,356.014,360.994,365.973,370.35540000000003,373.299,376.067,380.488,384.362,388.783,392.06980000000004,394.984,399.963,404.385,408.806,416.5748,419.462" svgx:width="0.5,0.5,0.55,0.44,0.55,0.44,0.72,0.55,0.5,0.33,0.5,0.5,0.44,0.55,0.28,0.44,0.39,0.44,0.33,0.55,0.5,0.44,0.44,0.78,0.55,0.33" style="fill:rgb(0,0,0);font-family:Times-Roman;font-size:9.96px;stroke:none;">by a cw probe laser beam (</text>
   <text y="396.809" x="422.78" svgx:width="0.55" style="fill:rgb(0,0,0);font-family:RMTMI;font-size:9.96px;stroke:none;">λ</text>
   <text y="396.809" x="430.997" svgx:width="0.78" style="fill:rgb(0,0,0);font-family:MTSY;font-size:9.96px;stroke:none;">=</text>
   <text y="396.809" x="441.536,446.516,451.495,456.475,459.415,464.394,472.143,475.459,477.949,480.85,486.387,489.702,494.682,502.4508,505.32,508.087,513.067,517.4494,520.384,525.363,530.343,534.764,538.638,543.0204,545.964,548.736,553.157" svgx:width="0.5,0.5,0.5,0.55,0.5,0.78,0.33,0.25,0.55,0.56,0.33,0.5,0.78,0.55,0.28,0.5,0.44,0.55,0.5,0.5,0.44,0.39,0.44,0.55,0.28,0.44,0.5" style="fill:rgb(0,0,0);font-family:Times-Roman;font-size:9.96px;stroke:none;">532 nm). From the phase lag</text>
   <text y="408.266" x="313.052,318.031,322.452,325.22,332.411,336.832,341.254,346.23400000000004,350.1,352.868,357.847,362.2294,366.118,371.098,376.077,383.826,388.80600000000004,392.673,397.094,402.073,407.053,410.911,413.679,418.658,423.04040000000003,426.929,431.906,435.222,440.201,445.181,449.5634,453.46,456.228,460.649,464.523,468.944,472.23080000000004,476.117,481.097,485.518,489.94,497.688,501.562,504.052,507.916,510.684,515.663,520.0454,523.934,528.353,531.423,534.744,539.166,543.587,546.355,548.874,553.698" svgx:width="0.5,0.44,0.28,0.72,0.44,0.44,0.5,0.55,0.28,0.5,0.44,0.55,0.5,0.5,0.78,0.5,0.55,0.44,0.5,0.5,0.55,0.28,0.5,0.44,0.55,0.5,0.33,0.5,0.5,0.44,0.55,0.28,0.44,0.39,0.44,0.33,0.55,0.5,0.44,0.44,0.78,0.39,0.25,0.55,0.28,0.5,0.44,0.55,0.44,0.33,0.33,0.44,0.44,0.28,0.28,0.5,0.44" style="fill:rgb(0,0,0);font-family:Times-Roman;font-size:9.96px;stroke:none;">between the pump and the probe laser beams, the effective</text>
   <text y="419.723" x="313.052,315.819,320.798,325.22,328.535,336.284,340.706,343.4948,346.214,350.635,355.615,360.594,365.573,370.553,374.974,377.742,380.261,385.239,388.006,390.774,395.754,398.505,403.484,406.7708,409.532,412.3,417.279,421.6614,424.434,427.206,432.185,434.953,439.933,442.666,448.201,450.969,458.718" svgx:width="0.28,0.5,0.44,0.33,0.78,0.44,0.28,0.55,0.44,0.5,0.5,0.5,0.5,0.44,0.28,0.28,0.5,0.28,0.28,0.5,0.55,0.5,0.33,0.55,0.28,0.5,0.44,0.55,0.28,0.5,0.28,0.5,0.55,0.56,0.28,0.78,0.25" style="fill:rgb(0,0,0);font-family:Times-Roman;font-size:9.96px;stroke:none;">thermal conductivity of the thin ﬁlm,</text>
   <text y="419.723" x="463.947" svgx:width="0.49" style="fill:rgb(0,0,0);font-family:RMTMI;font-size:9.96px;stroke:none;">κ</text>
   <text y="421.215" x="468.852,471.948,474.1" svgx:width="0.44,0.33,0.33" style="fill:rgb(0,0,0);font-family:Times-Roman;font-size:6.97px;stroke:none;">eff</text>
   <text y="419.721" x="476.916,479.406,482.136,486.557,490.977,495.957,498.69,503.669,508.0514,510.824,515.802,520.222,522.989,527.409,530.724,538.472,541.239,546.217,550.637,555.616" svgx:width="0.25,0.55,0.44,0.44,0.5,0.55,0.5,0.44,0.55,0.5,0.44,0.28,0.44,0.33,0.78,0.28,0.5,0.44,0.5,0.25" style="fill:rgb(0,0,0);font-family:Times-Roman;font-size:9.96px;stroke:none;">, can be determined.</text>
   <text y="431.178" x="313.053,316.37,319.65680000000003,324.506,327.275,332.255,336.6374,341.498,345.921,350.901,355.324,358.64,363.062,367.485,370.253,374.676,377.992,380.761,384.635,387.404,390.173,394.5554,399.416,402.185,404.953,412.703,417.0854,421.946,425.268,430.248,433.5348,438.385,443.365,447.787,452.21,454.99879999999996,459.806,464.787,467.555,470.625,473.946,478.927,482.801,485.57,490.55,495.53000000000003,500.351,503.123,508.103,512.915,515.687,520.667,525.0494,529.91,533.785,538.207,545.957,550.937,553.706" svgx:width="0.33,0.33,0.55,0.28,0.5,0.44,0.55,0.44,0.5,0.44,0.33,0.44,0.44,0.28,0.44,0.33,0.28,0.39,0.28,0.28,0.44,0.55,0.28,0.28,0.78,0.44,0.55,0.33,0.5,0.33,0.55,0.5,0.44,0.44,0.28,0.55,0.5,0.28,0.33,0.33,0.5,0.39,0.28,0.5,0.5,0.55,0.28,0.5,0.55,0.28,0.5,0.44,0.55,0.39,0.44,0.78,0.5,0.28,0.44" style="fill:rgb(0,0,0);font-family:Times-Roman;font-size:9.96px;stroke:none;">If the characteristic time for heat diffusion in the sample</text>
   <text y="442.635" x="313.053" svgx:width="0.33" style="fill:rgb(0,0,0);font-family:Times-Roman;font-size:9.96px;stroke:none;">(</text>
   <text y="442.635" x="316.123" svgx:width="0.28" style="fill:rgb(0,0,0);font-family:Times-Italic;font-size:9.96px;stroke:none;">t</text>
   <text y="439.017" x="319.866" svgx:width="0.5" style="fill:rgb(0,0,0);font-family:Times-Roman;font-size:6.97px;stroke:none;">2</text>
   <text y="442.635" x="323.889,328.569" svgx:width="0.47,0.57" style="fill:rgb(0,0,0);font-family:RMTMI;font-size:9.96px;stroke:none;">/α</text>
   <text y="442.635" x="334.654,337.144,342.186,349.377,354.358,358.78,362.097" svgx:width="0.25,0.55,0.72,0.5,0.44,0.33,0.44" style="fill:rgb(0,0,0);font-family:Times-Roman;font-size:9.96px;stroke:none;">, where</text>
   <text y="442.635" x="371.311" svgx:width="0.28" style="fill:rgb(0,0,0);font-family:Times-Italic;font-size:9.96px;stroke:none;">t</text>
   <text y="442.635" x="380.104,384.523,389.501" svgx:width="0.44,0.5,0.5" style="fill:rgb(0,0,0);font-family:Times-Roman;font-size:9.96px;stroke:none;">and</text>
   <text y="442.635" x="399.526" svgx:width="0.57" style="fill:rgb(0,0,0);font-family:RMTMI;font-size:9.96px;stroke:none;">α</text>
   <text y="442.635" x="410.65,415.072,418.387,422.7694,427.847,430.618,435.598,439.98040000000003,445.057,450.594,453.362,461.1308,466.16,468.931,473.911,476.678,481.1,486.079,491.058,495.48,499.353,503.23740000000004,508.273,512.694,517.673,522.653,527.709,530.476,535.456,539.877,543.193,550.942,555.363" svgx:width="0.44,0.33,0.44,0.55,0.28,0.5,0.44,0.55,0.56,0.28,0.78,0.55,0.28,0.5,0.28,0.44,0.5,0.5,0.44,0.39,0.39,0.55,0.44,0.5,0.5,0.55,0.28,0.5,0.44,0.33,0.78,0.44,0.28" style="fill:rgb(0,0,0);font-family:Times-Roman;font-size:9.96px;stroke:none;">are the ﬁlm thickness and thermal</text>
   <text y="454.092" x="313.054,318.034,320.803,323.872,327.193,332.173,336.047,338.567,343.544,346.313,349.082,353.41,355.90000000000003,359.872,363.194,367.616,371.49,376.471,380.893,385.316,388.084,390.604,395.428,399.85,402.619,407.599,410.8858,414.907,417.675,421.55940000000004,425.514,433.264,438.244,442.666,447.646,451.622,455.496,460.476,465.457,468.773,471.542,475.964,479.2508,483.245,486.017,490.997,495.419,500.399,504.375,507.143,512.124,516.5064,520.511,523.283,526.051,533.801,538.224,542.098,546.521,550.943,553.712" svgx:width="0.5,0.28,0.33,0.33,0.5,0.39,0.28,0.5,0.28,0.28,0.5,0.25,0.55,0.33,0.44,0.39,0.5,0.44,0.44,0.28,0.28,0.5,0.44,0.28,0.5,0.33,0.55,0.28,0.39,0.55,0.78,0.5,0.44,0.5,0.55,0.39,0.5,0.5,0.33,0.28,0.44,0.33,0.55,0.28,0.5,0.44,0.5,0.55,0.28,0.5,0.44,0.55,0.28,0.28,0.78,0.44,0.39,0.44,0.44,0.28,0.44" style="fill:rgb(0,0,0);font-family:Times-Roman;font-size:9.96px;stroke:none;">diffusivity, respectively) is much shorter than the timescale</text>
   <text y="465.549" x="313.054,318.033,321.31980000000004,324.945,327.713,332.692,337.0744,340.711,345.69,350.112,354.533,357.3218,360.905,368.654,373.633,378.613,383.592,386.359,390.781,393.548,396.316,401.295,406.27500000000003,409.881" svgx:width="0.5,0.33,0.55,0.28,0.5,0.44,0.55,0.5,0.44,0.44,0.28,0.55,0.78,0.5,0.5,0.5,0.28,0.44,0.28,0.28,0.5,0.5,0.55,0.33" style="fill:rgb(0,0,0);font-family:Times-Roman;font-size:9.96px;stroke:none;">of the heat modulation (</text>
   <text y="465.549" x="414.727" svgx:width="0.28" style="fill:rgb(0,0,0);font-family:Times-Italic;font-size:9.96px;stroke:none;">f</text>
   <text y="461.931" x="419.253" svgx:width="0.78" style="fill:rgb(0,0,0);font-family:MTSY;font-size:6.97px;stroke:none;">−</text>
   <text y="461.931" x="424.69" svgx:width="0.5" style="fill:rgb(0,0,0);font-family:Times-Roman;font-size:6.97px;stroke:none;">1</text>
   <text y="465.549" x="428.676,431.993,434.483,438.077,440.845,445.826,450.20840000000004,453.836,456.607,461.03,468.779,473.76,478.182,481.499,485.921,488.69,493.67,496.987,501.36940000000004,505.014,509.992,513.308,518.289,523.827,526.595,530.9774,534.614,537.386,542.366,545.963,548.734,553.715" svgx:width="0.33,0.25,0.55,0.28,0.5,0.44,0.55,0.28,0.44,0.78,0.5,0.44,0.33,0.44,0.28,0.5,0.33,0.44,0.55,0.5,0.33,0.5,0.56,0.28,0.44,0.55,0.28,0.5,0.55,0.28,0.5,0.44" style="fill:rgb(0,0,0);font-family:Times-Roman;font-size:9.96px;stroke:none;">), the temperature proﬁle in the</text>
   <text y="477.006" x="313.053,318.59,321.358,329.1268,332.419,336.841,341.262,346.242,349.569,354.548,358.9304,362.279,366.701,371.68,376.659,379.975,384.954,389.933,392.701,400.45,404.871,407.639,412.06,417.04,420.376,425.353,430.333,433.651,438.03340000000003,441.391,445.271,448.038,452.46,456.881,461.86,466.84,470.155,474.029,476.796,481.218,483.985,488.36740000000003,491.716,496.696,501.675,506.096,509.412,514.391,517.159,524.908,529.329,534.308,538.182,540.949,545.929,550.908,555.329" svgx:width="0.56,0.28,0.78,0.55,0.44,0.44,0.5,0.55,0.5,0.44,0.55,0.44,0.5,0.5,0.33,0.5,0.5,0.28,0.78,0.44,0.28,0.44,0.5,0.55,0.5,0.5,0.55,0.44,0.55,0.39,0.28,0.44,0.44,0.5,0.5,0.33,0.39,0.28,0.44,0.28,0.44,0.55,0.5,0.5,0.44,0.33,0.5,0.28,0.78,0.44,0.5,0.39,0.28,0.5,0.5,0.44,0.28" style="fill:rgb(0,0,0);font-family:Times-Roman;font-size:9.96px;stroke:none;">ﬁlm can be approximated by a steady-state one-dimensional</text>
   <text y="488.463" x="313.053,316.371,321.352,328.545,331.83180000000004,335.259,339.134,344.115,346.885,351.866,354.636,357.405,362.387,367.367,370.756,375.176,377.945,382.927,387.908,392.88800000000003,396.296,399.066,401.836,405.72040000000004,409.098,411.868,416.849,419.619,424.042,429.023,434.005,438.428,442.304,446.179,448.669,452.074,455.392,460.372,463.761,466.531,471.512,474.282,478.1664,481.544,484.314,487.083,494.834,497.604,500.374,502.86400000000003,506.251,509.02,514.001,518.3833999999999,521.813,526.237,531.218,536.199,538.969,542.286,545.056,549.835,554.812" svgx:width="0.33,0.5,0.72,0.33,0.55,0.39,0.5,0.28,0.5,0.28,0.28,0.5,0.5,0.55,0.44,0.28,0.5,0.5,0.5,0.55,0.28,0.28,0.39,0.55,0.28,0.5,0.28,0.44,0.5,0.5,0.44,0.39,0.39,0.25,0.55,0.33,0.5,0.55,0.28,0.5,0.28,0.39,0.55,0.28,0.28,0.78,0.28,0.28,0.25,0.55,0.28,0.5,0.44,0.55,0.44,0.5,0.5,0.28,0.33,0.28,0.5,0.5,0.33" style="fill:rgb(0,0,0);font-family:Times-Roman;font-size:9.96px;stroke:none;">(1D) solution along its thickness. In this limit, the contribu-</text>
   <text y="499.92" x="313.053,315.822,318.59,323.571,328.55100000000004,332.031,337.008,340.2948,343.813,346.584,351.565,355.9474,359.467,363.889,366.658,371.638,374.407,377.723,380.492,385.472,389.347,392.115,396.538,400.92040000000003,404.44,407.212,412.192,416.614,419.931,427.681,432.103,434.8918,438.358,441.678,446.101,449.975,452.744,456.618,459.387,463.809,468.79,473.212,477.5944,481.123,486.104,489.3908,492.899,495.668,500.648,505.03040000000004,508.559,514.095,516.863,524.6318000000001,528.095,532.517,537.498,542.4780000000001,545.967,548.736,553.716" svgx:width="0.28,0.28,0.5,0.5,0.55,0.5,0.33,0.55,0.28,0.5,0.44,0.55,0.44,0.28,0.5,0.28,0.33,0.28,0.5,0.39,0.28,0.44,0.44,0.55,0.28,0.5,0.44,0.33,0.78,0.44,0.28,0.55,0.33,0.44,0.39,0.28,0.39,0.28,0.44,0.5,0.44,0.44,0.55,0.5,0.33,0.55,0.28,0.5,0.44,0.55,0.56,0.28,0.78,0.55,0.44,0.5,0.5,0.55,0.28,0.5,0.44" style="fill:rgb(0,0,0);font-family:Times-Roman;font-size:9.96px;stroke:none;">tion of the “intrinsic” thermal resistance of the ﬁlm and the</text>
   <text y="511.377" x="313.053,318.032,320.8,323.869,327.19,331.611,334.927,339.348,344.328,347.11679999999996,350.709,353.476,358.456,361.223,365.645,368.96,372.182,376.603,381.025,385.446,389.33040000000005,392.925,397.347,401.768,406.748,410.363,415.342,419.7244,423.37,427.791,432.771,437.75,442.171,447.151,450.766,453.534,458.514,462.11,467.09,472.069,474.837,479.258,482.026,487.00600000000003,490.62,493.392,498.371,502.7534,506.39,509.158,514.137,516.905,521.326,524.1148000000001,527.707,530.479,535.458,539.88,543.195,550.944,555.365" svgx:width="0.5,0.28,0.33,0.33,0.44,0.33,0.44,0.5,0.28,0.55,0.28,0.5,0.28,0.44,0.33,0.33,0.44,0.44,0.44,0.39,0.55,0.44,0.44,0.5,0.55,0.5,0.44,0.55,0.44,0.5,0.5,0.44,0.5,0.55,0.28,0.5,0.55,0.5,0.5,0.28,0.44,0.28,0.5,0.55,0.28,0.5,0.44,0.55,0.28,0.5,0.28,0.44,0.28,0.55,0.28,0.5,0.44,0.33,0.78,0.44,0.28" style="fill:rgb(0,0,0);font-family:Times-Roman;font-size:9.96px;stroke:none;">different interfaces can be added to obtain the total thermal</text>
   <text y="522.834" x="313.053,316.37,320.792,324.666,327.435,331.31,334.078,338.501,343.481,347.903,352.326" svgx:width="0.33,0.44,0.39,0.28,0.39,0.28,0.44,0.5,0.44,0.44,0.25" style="fill:rgb(0,0,0);font-family:Times-Roman;font-size:9.96px;stroke:none;">resistance,</text>
   <text y="538.413" x="408.174" svgx:width="0.28" style="fill:rgb(0,0,0);font-family:Times-Italic;font-size:9.96px;stroke:none;">t</text>
  </g>
  <path style="fill:none;stroke:rgb(0,0,0);stroke-width:0.5;" d="M403.690 542.910 L416.660 542.910 "/>
  <g begin="text">
   <text y="552.471" x="403.692" svgx:width="0.49" style="fill:rgb(0,0,0);font-family:RMTMI;font-size:9.96px;stroke:none;">κ</text>
   <text y="553.965" x="408.597,411.693,413.845" svgx:width="0.44,0.33,0.33" style="fill:rgb(0,0,0);font-family:Times-Roman;font-size:6.97px;stroke:none;">eff</text>
   <text y="545.397" x="420.621" svgx:width="0.78" style="fill:rgb(0,0,0);font-family:MTSY;font-size:9.96px;stroke:none;">=</text>
   <text y="538.413" x="433.203" svgx:width="0.28" style="fill:rgb(0,0,0);font-family:Times-Italic;font-size:9.96px;stroke:none;">t</text>
  </g>
  <path style="fill:none;stroke:rgb(0,0,0);stroke-width:0.46;" d="M432.360 542.910 L438.060 542.910 "/>
  <g begin="text">
   <text y="552.471" x="432.357" svgx:width="0.49" style="fill:rgb(0,0,0);font-family:RMTMI;font-size:9.96px;stroke:none;">κ</text>
   <text y="545.396" x="441.465" svgx:width="0.78" style="fill:rgb(0,0,0);font-family:MTSY;font-size:9.96px;stroke:none;">+</text>
   <text y="545.396" x="451.446" svgx:width="0.61" style="fill:rgb(0,0,0);font-family:Times-Italic;font-size:9.96px;stroke:none;">R</text>
   <text y="546.891" x="457.53,459.465,462.949" svgx:width="0.28,0.5,0.28" style="fill:rgb(0,0,0);font-family:Times-Roman;font-size:6.97px;stroke:none;">int</text>
   <text y="545.397" x="465.396" svgx:width="0.33" style="fill:rgb(0,0,0);font-family:RMTMI;font-size:9.96px;stroke:none;">,</text>
   <text y="545.397" x="546.521,549.838,554.818" svgx:width="0.33,0.5,0.33" style="fill:rgb(0,0,0);font-family:Times-Roman;font-size:9.96px;stroke:none;">(1)</text>
   <text y="569.31" x="313.053,320.244,325.223,329.645,332.96" svgx:width="0.72,0.5,0.44,0.33,0.44" style="fill:rgb(0,0,0);font-family:Times-Roman;font-size:9.96px;stroke:none;">where</text>
   <text y="569.31" x="341.638" svgx:width="0.49" style="fill:rgb(0,0,0);font-family:RMTMI;font-size:9.96px;stroke:none;">κ</text>
   <text y="569.31" x="351.573,354.342,358.2264,362.459,365.228,370.208,374.59040000000005,378.876,383.295,386.064,391.044,393.813,397.129,399.898,404.878,408.753,411.521,415.944,420.32640000000004,424.611,427.38,432.36,436.782,440.099,447.849,452.271,455.0598,459.3,463.722,468.703,473.683,478.663,483.644,488.066,490.835,493.354,498.332,501.1,503.869,508.84900000000005,513.112,518.092,521.3788,525.661,528.43,533.41,537.7923999999999,542.077,547.612,550.381" svgx:width="0.28,0.39,0.55,0.28,0.5,0.44,0.55,0.44,0.28,0.5,0.28,0.33,0.28,0.5,0.39,0.28,0.44,0.44,0.55,0.28,0.5,0.44,0.33,0.78,0.44,0.28,0.55,0.44,0.5,0.5,0.5,0.5,0.44,0.28,0.28,0.5,0.28,0.28,0.5,0.55,0.5,0.33,0.55,0.28,0.5,0.44,0.55,0.56,0.28,0.78" style="fill:rgb(0,0,0);font-family:Times-Roman;font-size:9.96px;stroke:none;">is the “intrinsic” thermal conductivity of the ﬁlm</text>
   <text y="580.767" x="313.053,317.472,322.45" svgx:width="0.44,0.5,0.5" style="fill:rgb(0,0,0);font-family:Times-Roman;font-size:9.96px;stroke:none;">and</text>
   <text y="580.767" x="330.702" svgx:width="0.61" style="fill:rgb(0,0,0);font-family:Times-Italic;font-size:9.96px;stroke:none;">R</text>
   <text y="582.261" x="336.786,338.721,342.205" svgx:width="0.28,0.5,0.28" style="fill:rgb(0,0,0);font-family:Times-Roman;font-size:6.97px;stroke:none;">int</text>
   <text y="580.767" x="347.91,350.679,354.5634,357.807,360.575,365.556,369.9384,373.242,376.014,380.994,383.762,388.185,390.9738,394.215,398.09,403.07,410.8388,414.077,419.054,422.3408,425.633,428.405,433.385,437.7674,441.071,443.84,448.82,453.243,456.559,464.309,468.732,471.5208,474.771,478.092,482.515,486.389,489.158,493.032,495.801,500.223,505.204,509.626,514.0083999999999,517.312,522.292,527.273,531.6554,534.959,537.728,542.708,545.972,548.74,553.72" svgx:width="0.28,0.39,0.55,0.28,0.5,0.44,0.55,0.28,0.5,0.28,0.44,0.28,0.55,0.39,0.5,0.78,0.55,0.5,0.33,0.55,0.28,0.5,0.44,0.55,0.28,0.5,0.44,0.33,0.78,0.44,0.28,0.55,0.33,0.44,0.39,0.28,0.39,0.28,0.44,0.5,0.44,0.44,0.55,0.5,0.5,0.44,0.55,0.28,0.5,0.55,0.28,0.5,0.44" style="fill:rgb(0,0,0);font-family:Times-Roman;font-size:9.96px;stroke:none;">is the total sum of the thermal resistance due to the</text>
   <text y="592.224" x="313.053,315.821,320.802,323.57,327.993,331.309,334.531,338.954,343.376,347.798,351.673,354.163,356.722,362.806,367.786,372.767,376.641,379.13100000000003,381.69,384.462,389.442,393.8244,396.417,400.839,403.608,408.588,411.357,414.673,417.442,422.422,426.297,429.065,433.488,437.8704,440.454,443.225,448.206,452.628,455.945,463.695,468.117,470.9058,473.445,477.867,482.848,487.828,492.808,497.789,502.211,504.98,507.499,512.476,515.245,518.014,522.994,525.573,530.554,533.8408,536.422,540.589,545.413,549.835,553.152" svgx:width="0.28,0.5,0.28,0.44,0.33,0.33,0.44,0.44,0.44,0.39,0.25,0.55,0.61,0.5,0.5,0.39,0.25,0.55,0.28,0.5,0.44,0.55,0.44,0.28,0.5,0.28,0.33,0.28,0.5,0.39,0.28,0.44,0.44,0.55,0.28,0.5,0.44,0.33,0.78,0.44,0.28,0.55,0.44,0.5,0.5,0.5,0.5,0.44,0.28,0.28,0.5,0.28,0.28,0.5,0.55,0.5,0.33,0.55,0.44,0.5,0.44,0.33,0.5" style="fill:rgb(0,0,0);font-family:Times-Roman;font-size:9.96px;stroke:none;">interfaces. Thus, the “intrinsic” thermal conductivity of every</text>
   <text y="603.681" x="313.053,318.59,321.358,329.1268,332.428,336.849,341.271,346.25100000000003,349.569,354.548,358.9304,362.288,367.267,372.247,375.014,379.436,382.203,387.183,391.604,396.584,399.92,403.235,406.551,411.53,419.29879999999997,422.592,425.359,430.339,434.7214,438.07,441.949,444.717,449.696,454.675,459.05740000000003,462.415,467.394" svgx:width="0.56,0.28,0.78,0.55,0.44,0.44,0.5,0.55,0.5,0.44,0.55,0.5,0.5,0.28,0.44,0.28,0.5,0.44,0.5,0.55,0.33,0.33,0.5,0.78,0.55,0.28,0.5,0.44,0.55,0.39,0.28,0.5,0.5,0.44,0.55,0.5,0.33" style="fill:rgb(0,0,0);font-family:Times-Roman;font-size:9.96px;stroke:none;">ﬁlm can be obtained from the slope of</text>
   <text y="603.681" x="473.776" svgx:width="0.28" style="fill:rgb(0,0,0);font-family:Times-Italic;font-size:9.96px;stroke:none;">t</text>
   <text y="603.681" x="477.519,482.2" svgx:width="0.47,0.49" style="fill:rgb(0,0,0);font-family:RMTMI;font-size:9.96px;stroke:none;">/κ</text>
   <text y="605.175" x="487.104,490.2,492.352" svgx:width="0.44,0.33,0.33" style="fill:rgb(0,0,0);font-family:Times-Roman;font-size:6.97px;stroke:none;">eff</text>
   <text y="603.681" x="498.489,503.466" svgx:width="0.5,0.39" style="fill:rgb(0,0,0);font-family:Times-Roman;font-size:9.96px;stroke:none;">vs</text>
   <text y="603.681" x="510.405" svgx:width="0.28" style="fill:rgb(0,0,0);font-family:Times-Italic;font-size:9.96px;stroke:none;">t</text>
   <text y="603.681" x="514.149,516.639,519.954,527.703,532.125,536.546,540.42,545.399,548.714,553.136" svgx:width="0.25,0.55,0.78,0.44,0.44,0.39,0.5,0.33,0.44,0.5" style="fill:rgb(0,0,0);font-family:Times-Roman;font-size:9.96px;stroke:none;">, measured</text>
   <text y="615.138" x="313.054,316.371,321.351,324.6378,327.552,331.93440000000004,334.869,338.744,343.166,346.483,349.251,353.674,357.5584,360.432,365.413,368.69980000000004,371.613,375.488,379.91,387.66,392.64,395.409,399.831,403.71540000000005,406.608,411.585,414.8718,417.786,422.763,425.532,428.602,431.918,436.34,439.657,444.079,449.06,451.8488,454.729,457.498,462.478,465.247,469.669,474.65,479.63,484.052,487.927,491.801,496.224,500.1084,502.991,507.411,511.29540000000003,514.178,516.95,521.93,526.911,531.891,534.786,539.208,543.0924,545.976,548.745,553.725" svgx:width="0.33,0.5,0.33,0.55,0.44,0.55,0.39,0.44,0.33,0.28,0.44,0.39,0.55,0.5,0.33,0.55,0.39,0.44,0.78,0.5,0.28,0.44,0.39,0.55,0.5,0.33,0.55,0.5,0.28,0.33,0.33,0.44,0.33,0.44,0.5,0.28,0.55,0.28,0.5,0.28,0.44,0.5,0.5,0.44,0.39,0.39,0.44,0.39,0.55,0.44,0.39,0.55,0.28,0.5,0.5,0.5,0.55,0.44,0.39,0.55,0.28,0.5,0.44" style="fill:rgb(0,0,0);font-family:Times-Roman;font-size:9.96px;stroke:none;">for a series of samples of different thicknesses as long as the</text>
   <text y="626.595" x="313.054,318.591,321.359,329.108,331.879,335.76340000000005,339.961,342.733,347.712,352.133,355.449,363.198,367.619,370.4078,374.603,379.024,384.004,388.983,393.962,398.942,403.363,406.131,408.651,413.629,416.396,419.164,424.144,428.38,431.148,435.03240000000005,439.22,444.2,449.179,451.96779999999995,456.163,458.931,463.91,466.677,471.099,476.078,481.057,485.479,489.352,493.2364,497.452,502.431,506.853,511.832,516.253,521.233,526.212,530.633,535.613,538.38,540.87,545.112,553.716" svgx:width="0.56,0.28,0.78,0.33,0.39,0.55,0.28,0.5,0.44,0.33,0.78,0.44,0.28,0.55,0.44,0.5,0.5,0.5,0.5,0.44,0.28,0.28,0.5,0.28,0.28,0.5,0.55,0.28,0.39,0.55,0.5,0.5,0.28,0.55,0.28,0.5,0.28,0.44,0.5,0.5,0.44,0.39,0.39,0.55,0.5,0.44,0.5,0.44,0.5,0.5,0.44,0.5,0.28,0.25,0.55,0.94,0.44" style="fill:rgb(0,0,0);font-family:Times-Roman;font-size:9.96px;stroke:none;">ﬁlm’s thermal conductivity is not thickness dependent. We</text>
   <text y="638.052" x="313.054,318.033,321.349,325.516,332.6872,336.991,340.307,345.286,350.265,353.5518,357.862,362.841,365.609,368.678,372.0,376.421,379.737,384.158,389.137,391.9258,396.193,401.73,404.498,412.247,416.13140000000004,420.401,427.592,430.36,433.127,438.107,442.38,445.147,450.126,452.894,457.315,462.295,467.274,471.695,475.569,479.442,483.864,487.7484,492.027,497.006,501.428,504.195,511.386,515.808,520.229,525.2090000000001,529.499,534.479,539.4590000000001,543.74,548.161,553.141" svgx:width="0.5,0.33,0.44,0.72,0.55,0.33,0.5,0.5,0.33,0.55,0.5,0.28,0.33,0.33,0.44,0.33,0.44,0.5,0.28,0.55,0.56,0.28,0.78,0.39,0.55,0.72,0.28,0.28,0.5,0.55,0.28,0.5,0.28,0.44,0.5,0.5,0.44,0.39,0.39,0.44,0.39,0.55,0.5,0.44,0.28,0.72,0.44,0.44,0.5,0.55,0.5,0.5,0.55,0.44,0.5,0.5" style="fill:rgb(0,0,0);font-family:Times-Roman;font-size:9.96px;stroke:none;">grew four different ﬁlms with thicknesses between 10 and</text>
   <text y="649.509" x="313.054,318.033,323.01300000000003,325.503,330.483,338.2518,340.715,345.695,350.675,353.165,357.586,362.007,366.429,371.409,373.908,377.781,382.76,387.74,391.613,394.381,397.696,402.118,404.885,409.2674,411.788,416.768,421.747,426.726,431.148,434.43480000000005,436.962,439.73,444.709,449.13,454.11,456.877,459.645,464.066,468.488,471.2768,473.753,478.174,483.154,488.133,493.112,495.88,498.647,501.415,506.394,511.374,515.247,517.737,520.233,526.317,531.297,535.6794,538.209,543.188,548.167,553.147" svgx:width="0.5,0.5,0.55,0.5,0.78,0.55,0.5,0.5,0.55,0.44,0.44,0.44,0.5,0.55,0.39,0.5,0.5,0.39,0.28,0.33,0.44,0.28,0.44,0.55,0.5,0.5,0.5,0.44,0.33,0.55,0.28,0.5,0.44,0.5,0.28,0.28,0.44,0.44,0.28,0.55,0.44,0.5,0.5,0.5,0.28,0.28,0.28,0.5,0.5,0.39,0.25,0.55,0.61,0.5,0.44,0.55,0.5,0.5,0.5,0.5" style="fill:rgb(0,0,0);font-family:Times-Roman;font-size:9.96px;stroke:none;">65 nm on each substrate under identical conditions. The good</text>
   <text y="660.966" x="313.054,318.592,321.361,324.13,326.898,331.879,336.85900000000004,339.061,341.832,346.812,349.014,355.098,360.079,362.569,364.777" svgx:width="0.56,0.28,0.28,0.28,0.5,0.5,0.55,0.28,0.5,0.55,0.61,0.5,0.25,0.55,0.33" style="fill:rgb(0,0,0);font-family:Times-Roman;font-size:9.96px;stroke:none;">ﬁtting to Eq. (</text>
   <text y="660.966" x="368.098" svgx:width="0.5" style="fill:rgb(0,0,255);font-family:Times-Roman;font-size:9.96px;stroke:none;">1</text>
   <text y="660.966" x="373.075,376.3618,378.593,381.914,385.793,390.77,395.496,402.687,407.66700000000003,409.869,412.64,417.62,419.822,425.358,428.129,433.106" svgx:width="0.33,0.55,0.33,0.39,0.5,0.5,0.72,0.5,0.55,0.28,0.5,0.55,0.56,0.28,0.5,0.25" style="fill:rgb(0,0,0);font-family:Times-Roman;font-size:9.96px;stroke:none;">) [shown in Fig.</text>
   <text y="660.966" x="437.803,442.782,446.098,450.519" svgx:width="0.5,0.33,0.44,0.33" style="fill:rgb(0,0,255);font-family:Times-Roman;font-size:9.96px;stroke:none;">2(a)</text>
   <text y="660.966" x="453.841,457.12780000000004,459.358,464.083,468.506,471.274,474.043,479.023,483.446,486.214,490.637,494.5214,496.73,499.498,504.479,508.8614,511.103,514.982,517.751,522.173,526.596,531.576,536.556,539.873,543.747,546.516,550.938,553.707" svgx:width="0.33,0.55,0.5,0.44,0.28,0.28,0.5,0.44,0.28,0.44,0.39,0.55,0.28,0.5,0.44,0.55,0.39,0.28,0.44,0.44,0.5,0.5,0.33,0.39,0.28,0.44,0.28,0.44" style="fill:rgb(0,0,0);font-family:Times-Roman;font-size:9.96px;stroke:none;">] validates the steady-state</text>
   <text y="672.423" x="313.054,318.034,325.2052,328.052,332.474,337.455,342.435,345.751,350.732,355.712,358.481,366.231,370.653,373.422,376.19,381.171,386.151,388.641,391.488,395.91,400.891,405.87100000000004,408.702,411.471,416.451,420.326,423.094,425.863,431.401,435.823,439.7074,442.519,445.288,450.268,454.6504,457.513,462.238,466.661,469.429,472.198,477.178,479.947,482.715,487.695,490.527,495.507,498.79380000000003,501.654,504.423,509.403,513.7854,516.648,521.068,523.836,528.816,531.585,534.902,537.67,542.651,546.525,549.294,553.716" svgx:width="0.5,0.72,0.55,0.44,0.5,0.5,0.33,0.5,0.5,0.28,0.78,0.44,0.28,0.28,0.5,0.5,0.25,0.55,0.44,0.5,0.5,0.55,0.28,0.5,0.39,0.28,0.28,0.56,0.44,0.39,0.55,0.28,0.5,0.44,0.55,0.5,0.44,0.28,0.28,0.5,0.28,0.28,0.5,0.55,0.5,0.33,0.55,0.28,0.5,0.44,0.55,0.44,0.28,0.5,0.28,0.33,0.28,0.5,0.39,0.28,0.44,0.44" style="fill:rgb(0,0,0);font-family:Times-Roman;font-size:9.96px;stroke:none;">1D approximation, and justiﬁes the validity of the “intrinsic”</text>
   <text y="683.88" x="313.054,315.822,320.801,325.222,328.538,336.287,340.708,343.4968,346.801,351.223,356.202,361.181,366.161,371.14,375.561,378.329,380.849,385.826,388.594,391.361,395.69,398.18,401.531,407.615,412.594,415.362,419.24640000000005,422.562,427.539,430.855,435.834,440.256,444.677,449.656,454.636,457.951,462.33340000000004,465.709,472.801,477.223,481.10740000000004,484.414,487.729,492.151,497.13,501.551,505.973,508.74,513.162,518.142,521.478,524.793,529.772,533.0588,536.406,540.573,545.397,549.816,553.132" svgx:width="0.28,0.5,0.44,0.33,0.78,0.44,0.28,0.55,0.44,0.5,0.5,0.5,0.5,0.44,0.28,0.28,0.5,0.28,0.28,0.5,0.25,0.55,0.61,0.5,0.28,0.39,0.55,0.5,0.33,0.5,0.44,0.44,0.5,0.5,0.33,0.44,0.55,0.72,0.44,0.39,0.55,0.33,0.44,0.5,0.44,0.44,0.28,0.44,0.5,0.55,0.33,0.5,0.33,0.55,0.44,0.5,0.44,0.33,0.5" style="fill:rgb(0,0,0);font-family:Times-Roman;font-size:9.96px;stroke:none;">thermal conductivity. This procedure was repeated for every</text>
   <text y="695.337" x="313.054,315.822,320.243,327.992,332.971,337.393,340.708,345.13,347.897,352.877,356.192,360.5744,364.184,368.606,373.585,378.006,380.774,385.753,390.175,394.596,399.576,403.155,405.922,410.90200000000004,414.454,417.222,422.201,424.969,428.8534,432.403,437.382,441.804,446.783,451.204,453.976,456.466,460.042,467.233,472.213,474.98,479.36240000000004,482.963,485.735,490.714,495.136,497.9248,501.463,504.23,509.21,513.631,516.947,521.368,525.789,529.663,532.431,537.41,542.39,545.96,548.731,553.711" svgx:width="0.28,0.44,0.78,0.5,0.44,0.33,0.44,0.28,0.5,0.33,0.44,0.55,0.44,0.5,0.44,0.28,0.5,0.44,0.44,0.5,0.55,0.28,0.5,0.55,0.28,0.5,0.28,0.39,0.55,0.5,0.44,0.5,0.44,0.33,0.25,0.55,0.72,0.5,0.28,0.44,0.55,0.28,0.5,0.44,0.28,0.55,0.28,0.5,0.44,0.33,0.44,0.44,0.39,0.28,0.5,0.5,0.55,0.28,0.5,0.44" style="fill:rgb(0,0,0);font-family:Times-Roman;font-size:9.96px;stroke:none;">temperature analyzed in this paper. Note that increasing the</text>
   <text y="706.794" x="313.054,318.592,321.361,329.1298,332.152,334.924,339.904,342.673,347.095,352.076,357.056,361.478,365.353,369.23740000000004,372.274,376.693,379.462,383.336,388.31600000000003,391.346,394.118,399.098,403.521,406.837,411.26,415.682,419.556,423.979,427.8634,430.9,433.668,438.649,443.0314,446.11,451.087,454.404,458.826,461.595,466.57500000000005,469.614,473.488,476.257,480.679,485.0614,488.131,490.9,495.88,498.919,503.899,508.879,511.648,516.628,521.051,524.367,529.347,533.222,535.99,540.413,543.182,545.95,548.719,553.699" svgx:width="0.56,0.28,0.78,0.55,0.28,0.5,0.28,0.44,0.5,0.5,0.44,0.39,0.39,0.55,0.44,0.28,0.39,0.5,0.55,0.28,0.5,0.44,0.33,0.44,0.44,0.39,0.44,0.39,0.55,0.28,0.5,0.44,0.55,0.5,0.33,0.44,0.28,0.5,0.55,0.39,0.28,0.44,0.44,0.55,0.28,0.5,0.55,0.5,0.5,0.28,0.5,0.44,0.33,0.5,0.39,0.28,0.44,0.28,0.28,0.28,0.5,0.44" style="fill:rgb(0,0,0);font-family:Times-Roman;font-size:9.96px;stroke:none;">ﬁlm thickness also increases the grain size in polycrystalline</text>
   <text y="718.251" x="313.054,318.592,321.361,329.111,332.985,335.475,339.043,343.465,348.445,353.426,355.916,359.492,362.26,367.24,370.801,373.57,378.55,382.93240000000003,386.533,390.956,395.378,399.253,403.6354,407.245,412.222,415.5088,419.107,422.428,426.85,430.167,433.483,438.463,442.886,445.654,450.077,454.499,457.268,460.584,463.353,467.775,471.65,474.14,477.707,482.127,484.895,488.77,493.75,497.311,500.082,505.063,509.4454,513.055,518.593,524.6686,528.241,533.221,538.201,545.951,550.373,553.142" svgx:width="0.56,0.28,0.78,0.39,0.25,0.55,0.44,0.5,0.5,0.25,0.55,0.28,0.5,0.55,0.28,0.5,0.44,0.55,0.44,0.44,0.39,0.44,0.55,0.5,0.33,0.55,0.33,0.44,0.33,0.33,0.5,0.44,0.28,0.44,0.44,0.28,0.33,0.28,0.44,0.39,0.25,0.55,0.44,0.28,0.39,0.5,0.55,0.28,0.5,0.44,0.55,0.56,0.61,0.55,0.5,0.5,0.78,0.44,0.28,0.5" style="fill:rgb(0,0,0);font-family:Times-Roman;font-size:9.96px;stroke:none;">ﬁlms, and, in the case of ferroelectrics, also the FE domain</text>
   <text y="729.708" x="313.054,316.929,319.697,324.12,328.5024,330.969" svgx:width="0.39,0.28,0.44,0.44,0.55,0.33" style="fill:rgb(0,0,0);font-family:Times-Roman;font-size:9.96px;stroke:none;">size [</text>
   <text y="729.708" x="334.294,339.272" svgx:width="0.5,0.5" style="fill:rgb(0,0,255);font-family:Times-Roman;font-size:9.96px;stroke:none;">20</text>
   <text y="729.708" x="344.248" svgx:width="0.5" style="fill:rgb(0,0,0);font-family:Times-Roman;font-size:9.96px;stroke:none;">–</text>
   <text y="729.708" x="349.225,354.203" svgx:width="0.5,0.5" style="fill:rgb(0,0,255);font-family:Times-Roman;font-size:9.96px;stroke:none;">22</text>
   <text y="729.708" x="359.179,362.495,364.985,367.418,370.734,374.0208,376.476,381.455,386.435,394.184,398.605,401.373,406.353,408.789,412.668,415.436,419.857,424.279,428.1634,430.579,435.0,438.316,442.6984,445.165,449.587,454.566,462.315,467.294,471.715,475.031,479.452,484.432,487.199,491.58140000000003,494.067,496.838,501.81800000000004,504.245,509.225,514.204,519.183,524.163,529.142,534.1220000000001,536.567,544.316,548.737,553.159" svgx:width="0.33,0.25,0.55,0.33,0.33,0.55,0.5,0.5,0.78,0.44,0.28,0.5,0.55,0.39,0.28,0.44,0.44,0.39,0.55,0.44,0.33,0.44,0.55,0.44,0.5,0.78,0.5,0.44,0.33,0.44,0.5,0.28,0.44,0.55,0.28,0.5,0.55,0.5,0.5,0.5,0.5,0.5,0.5,0.55,0.78,0.44,0.44,0.5" style="fill:rgb(0,0,0);font-family:Times-Roman;font-size:9.96px;stroke:none;">]. If domain sizes are comparable to phonon mean</text>
   <text y="741.165" x="313.054,316.37,319.685,324.107,328.48940000000005,332.639,337.618,342.039,344.807,349.786,353.67040000000003,357.778,362.2,367.179,372.159,376.278,379.045,384.025,388.446,391.214,394.5008,398.648,403.069,408.049,412.47,417.449,422.429,426.85,430.73440000000005,434.86,442.051,444.818,447.586,452.56600000000003,456.667,459.435,464.414,467.181,471.603,476.582,481.562,485.983,489.856,493.7404,497.857,502.277,505.592,509.9744,514.124,517.998,520.765,525.745,530.724,533.492,539.029,543.45,547.872,552.851,555.619" svgx:width="0.33,0.33,0.44,0.44,0.55,0.5,0.44,0.28,0.5,0.39,0.55,0.44,0.5,0.5,0.55,0.28,0.5,0.44,0.28,0.33,0.55,0.44,0.5,0.44,0.5,0.5,0.44,0.39,0.55,0.72,0.28,0.28,0.5,0.55,0.28,0.5,0.28,0.44,0.5,0.5,0.44,0.39,0.39,0.55,0.44,0.33,0.44,0.55,0.39,0.28,0.5,0.5,0.28,0.56,0.44,0.44,0.5,0.28,0.25" style="fill:rgb(0,0,0);font-family:Times-Roman;font-size:9.96px;stroke:none;">free paths and their changes with thickness are signiﬁcant,</text>
   <text y="752.622" x="313.054" svgx:width="0.49" style="fill:rgb(0,0,0);font-family:RMTMI;font-size:9.96px;stroke:none;">κ</text>
   <text y="752.622" x="323.656,326.426,329.196,333.071,337.494,340.264,343.55080000000004,348.481,356.23,360.653,365.63300000000004,370.544,373.314,378.295,382.719,386.036,390.46,394.883,398.758,403.1404,408.1,415.291,418.061,420.831,425.81100000000004,430.712,433.482,438.463,441.233,445.656,450.638,455.619,460.042,463.918,467.793,470.283,475.209,478.527,483.508,487.932,491.249,495.673,500.096,503.971,508.395,512.2794,517.188,519.957" svgx:width="0.28,0.28,0.39,0.44,0.28,0.33,0.55,0.78,0.44,0.5,0.55,0.28,0.5,0.44,0.33,0.44,0.44,0.39,0.44,0.55,0.72,0.28,0.28,0.5,0.55,0.28,0.5,0.28,0.44,0.5,0.5,0.44,0.39,0.39,0.25,0.55,0.33,0.5,0.44,0.33,0.44,0.44,0.39,0.44,0.39,0.55,0.28,0.5" style="fill:rgb(0,0,0);font-family:Times-Roman;font-size:9.96px;stroke:none;">itself may increase with thickness. Increases in</text>
   <text y="752.622" x="529.82" svgx:width="0.49" style="fill:rgb(0,0,0);font-family:RMTMI;font-size:9.96px;stroke:none;">κ</text>
   <text y="752.622" x="540.423,547.617,550.387,553.158" svgx:width="0.72,0.28,0.28,0.5" style="fill:rgb(0,0,0);font-family:Times-Roman;font-size:9.96px;stroke:none;">with</text>
   <text y="776.535" x="286.899,291.382,295.865,300.349,304.832,309.315,313.798,316.784" svgx:width="0.5,0.5,0.5,0.5,0.5,0.5,0.33,0.5" style="fill:rgb(0,0,0);font-family:Times-Roman;font-size:8.97px;stroke:none;">054002-2</text>
  </g>
 </g>
</svg>
