<?xml version="1.0" encoding="UTF-8"?>
<svg height="553.658" width="529.962" xmlns="http://www.w3.org/2000/svg">
 <g id="page" xmlns:svgx="http://www.xml-cml.org/schema/svgx">
  <g begin="text">
   <text y="62.979" x="76.535,84.059,87.598,90.252,93.352,96.452,98.668,102.207,104.422" svgx:width="0.94,0.44,0.33,0.39,0.39,0.28,0.44,0.28,0.39" style="fill:rgb(0,0,0);font-family:URWPalladioL-Ital;font-size:7.97px;stroke:none;">Materials</text>
   <text y="62.979" x="109.515,113.5,117.485,121.47" svgx:width="0.5,0.5,0.5,0.5" style="fill:rgb(0,0,0);font-family:URWPalladioL-Bold;font-size:7.97px;stroke:none;">2020</text>
   <text y="62.979" x="125.455" svgx:width="0.25" style="fill:rgb(0,0,0);font-family:URWPalladioL-Roma;font-size:7.97px;stroke:none;">,</text>
   <text y="62.979" x="129.44,133.425" svgx:width="0.5,0.5" style="fill:rgb(0,0,0);font-family:URWPalladioL-Ital;font-size:7.97px;stroke:none;">13</text>
   <text y="62.979" x="137.41,139.4025,141.395,145.38,149.365,153.35,157.335,495.794,499.779,501.772,506.123,508.7531,510.77,514.755" svgx:width="0.25,0.55,0.5,0.5,0.5,0.5,0.55,0.5,0.55,0.55,0.33,0.55,0.5,0.5" style="fill:rgb(0,0,0);font-family:URWPalladioL-Roma;font-size:7.97px;stroke:none;">, 1312 2 of 20</text>
   <text y="97.848" x="76.535,79.799,84.595,89.041,94.868,100.695,106.162,109.075,114.542,120.109,123.023,127.819,132.00220000000002,134.567,142.917,145.831,149.085,154.912,157.826,163.6028,166.156,171.136,173.665,182.016,184.929,191.047,195.8278,198.336,202.291,207.297,213.124,218.691,223.487,225.977,229.505,235.642,241.469,246.2498,248.758,252.093,257.559,261.334,266.13,271.697,277.164,280.077,285.904,291.4816,293.974,297.749,302.545,306.79,312.828,315.741,319.005,323.1882,325.744,329.078,332.863,338.329,349.664,352.928,358.755,363.5358,366.054,369.388,374.394,378.84,382.1268,384.597,387.861,393.688,398.694,401.98080000000004,404.461,413.302,418.309,424.136,429.71360000000004,432.196,440.546,445.342,448.256,454.373,457.287,463.114,468.6916,471.184,475.63,481.096,489.937,495.955,500.961,506.788,509.702,514.498" svgx:width="0.33,0.48,0.44,0.58,0.58,0.55,0.29,0.55,0.56,0.29,0.48,0.42,0.55,0.83,0.29,0.33,0.58,0.29,0.58,0.55,0.5,0.55,0.83,0.29,0.61,0.48,0.55,0.4,0.5,0.58,0.56,0.48,0.25,0.55,0.61,0.58,0.48,0.55,0.33,0.55,0.4,0.48,0.56,0.55,0.29,0.58,0.56,0.55,0.4,0.48,0.42,0.6,0.29,0.33,0.42,0.55,0.33,0.4,0.55,0.88,0.33,0.58,0.48,0.55,0.33,0.5,0.44,0.33,0.55,0.33,0.58,0.5,0.33,0.55,0.88,0.5,0.58,0.56,0.55,0.83,0.48,0.29,0.61,0.29,0.58,0.56,0.55,0.44,0.55,0.88,0.6,0.5,0.58,0.29,0.48,0.42" style="fill:rgb(0,0,0);font-family:URWPalladioL-Roma;font-size:9.96px;stroke:none;">technologies within a wide range. The foregoing results fromthe fact that many welding companies</text>
   <text y="111.358" x="76.535,81.551,85.333,90.1138,92.637,95.556,101.395,105.85,109.642,114.447,119.463,123.717,126.637,132.475,138.053,140.973,146.5506,149.049,151.968,157.807,161.077,165.883,169.665,174.471,178.724,181.995,186.8,192.87560000000002,195.428,198.348,204.12480000000002,206.695,209.965,215.804,220.5848,223.107,228.124,234.153,240.182,243.102,246.021,250.476,255.492,258.762,261.682,267.159,272.9358,275.496,280.974,284.2608,286.813,290.083,294.889,299.343,305.182,311.021,316.498,319.418,324.895,330.473,333.393,337.847,342.863,345.7514,348.291,351.21,356.226,360.48,365.286,369.248,373.4312,376.0,378.92,384.6968,387.256,393.286,397.068,402.546,408.675,414.725,419.179,422.45,425.369,430.847,436.62379999999996,439.194,445.223,449.005,454.483,458.937,463.743,467.997,472.25,477.056,481.2392,483.808,489.356,494.161,498.615,503.632,509.681,513.935" svgx:width="0.5,0.4,0.48,0.55,0.29,0.58,0.44,0.4,0.48,0.5,0.42,0.29,0.58,0.56,0.29,0.56,0.55,0.29,0.58,0.33,0.48,0.4,0.48,0.42,0.33,0.48,0.61,0.55,0.29,0.58,0.55,0.33,0.58,0.48,0.55,0.5,0.6,0.6,0.29,0.29,0.44,0.5,0.33,0.29,0.55,0.58,0.55,0.55,0.33,0.55,0.33,0.48,0.44,0.58,0.58,0.55,0.29,0.55,0.56,0.29,0.44,0.5,0.29,0.55,0.29,0.5,0.42,0.48,0.4,0.42,0.55,0.29,0.58,0.55,0.6,0.4,0.55,0.61,0.6,0.44,0.33,0.29,0.55,0.58,0.55,0.6,0.4,0.55,0.44,0.48,0.42,0.42,0.48,0.42,0.55,0.55,0.48,0.44,0.5,0.6,0.42,0.48" style="fill:rgb(0,0,0);font-family:URWPalladioL-Roma;font-size:9.96px;stroke:none;">are increasingly interested in the application of technological lasers in production processes because</text>
   <text y="124.867" x="76.535,79.483,82.7698,85.279,90.132,96.029,101.095,106.698,109.646,114.499,118.6822,121.298,124.601,130.498,135.2788,137.844,140.792,146.689,149.992,153.811,159.344,165.534,171.644,176.142,179.445,182.394,187.926,193.7028,196.315,201.847,205.1338,207.724,212.02,218.129,222.628,228.4048,231.017,233.965,239.031,243.327,248.181,252.183,256.3662,258.971,262.345,267.877,271.861,274.382,277.685,283.582,288.435,292.731,297.5118,300.077,304.575,310.107,319.054,325.143,330.209,336.106,339.054,343.907,348.0902,350.696,353.999,359.47700000000003,362.023,370.97,376.502,382.693,387.546,391.548,397.445,400.393,404.689,409.4698,412.045,418.235,424.345,428.347,431.296,437.192,442.7696,445.318,448.621,454.518,459.371,462.32,466.304,468.814,474.904,478.733,484.265,490.456,496.566,501.064,504.367,507.316,512.848" svgx:width="0.29,0.33,0.55,0.48,0.58,0.5,0.55,0.29,0.48,0.42,0.55,0.33,0.58,0.48,0.55,0.29,0.58,0.33,0.4,0.55,0.61,0.6,0.44,0.33,0.29,0.55,0.58,0.55,0.55,0.33,0.55,0.42,0.6,0.44,0.58,0.55,0.29,0.5,0.42,0.48,0.4,0.42,0.55,0.33,0.55,0.4,0.55,0.33,0.58,0.48,0.42,0.48,0.55,0.44,0.55,0.88,0.6,0.5,0.58,0.29,0.48,0.42,0.55,0.33,0.55,0.55,0.88,0.55,0.61,0.48,0.4,0.58,0.29,0.42,0.48,0.55,0.61,0.6,0.4,0.29,0.58,0.56,0.55,0.33,0.58,0.48,0.29,0.4,0.55,0.6,0.4,0.55,0.61,0.6,0.44,0.33,0.29,0.55,0.58" style="fill:rgb(0,0,0);font-family:URWPalladioL-Roma;font-size:9.96px;stroke:none;">it enables the introduction of such lasers for these companies to modernise during their production</text>
   <text y="138.377" x="76.236,82.337,86.165,91.707,96.215,101.078,105.382,109.686,114.549,118.854,121.344,123.909,128.214,131.523,136.599,140.609,143.8958,146.416,149.725,155.634,160.41479999999999,163.004,169.105,172.933,178.476,184.678,190.8,195.307,198.617,201.571,207.114,212.8908,215.53,221.073,224.3598,226.961,230.271,235.133,239.641,245.549,251.458,257.001,259.955,265.498,271.142,274.096,278.604,283.68,286.634,289.588,295.233,298.613,303.689,309.892,315.628,320.704,326.612,331.12,335.982,342.05760000000004,344.693,350.794,354.621,360.164,366.367,372.488,376.996,380.305,384.61,387.1,389.655,395.198,399.18199999999996,401.716,410.68,415.756,421.664,427.786,431.166,436.242,440.75,444.059,450.181,454.008,458.7888,461.378,467.287,472.15,480.41679999999997,483.124,489.225,493.052,498.595,504.798,510.92,515.427" svgx:width="0.6,0.4,0.55,0.44,0.48,0.42,0.42,0.48,0.42,0.25,0.55,0.42,0.33,0.5,0.4,0.33,0.55,0.33,0.58,0.48,0.55,0.6,0.4,0.55,0.61,0.6,0.44,0.33,0.29,0.55,0.58,0.55,0.55,0.33,0.55,0.33,0.48,0.44,0.58,0.58,0.55,0.29,0.55,0.56,0.29,0.44,0.5,0.29,0.29,0.56,0.33,0.5,0.61,0.56,0.5,0.58,0.44,0.48,0.61,0.55,0.6,0.4,0.55,0.61,0.6,0.44,0.33,0.42,0.25,0.55,0.55,0.4,0.55,0.88,0.5,0.58,0.6,0.33,0.5,0.44,0.33,0.6,0.4,0.48,0.55,0.58,0.48,0.83,0.55,0.6,0.4,0.55,0.61,0.6,0.44,0.33" style="fill:rgb(0,0,0);font-family:URWPalladioL-Roma;font-size:9.96px;stroke:none;">processes, start the production of technologically-advanced products, or manufacture new product</text>
   <text y="151.886" x="76.535,82.185,87.053,92.967,97.834,101.848,106.929,110.242,113.199,118.747,124.662,128.97,131.46,137.465,143.695,148.562,152.576,158.15359999999998,161.539,167.087,170.471,173.784,178.651,184.566,187.056,190.632,193.945,199.859,202.816,206.9992,210.438,216.545,220.376,225.924,230.436,235.304,239.612,243.7952,247.234,250.191,254.3742,257.812,263.94,268.248,273.116,279.1916,282.638,285.95,291.428,294.822,297.2,302.748,305.705,311.48179999999996,314.932,321.039,323.996,329.077,332.39,337.258,341.4412,344.879,348.263,353.811,357.0978,360.508,363.821,369.735,372.692,377.204,382.854,388.768,393.636,397.944,402.253,407.12,411.3032,414.742,419.609,424.853,429.365,434.232,439.1,445.309,448.266,454.18,459.7576,463.143,468.123,471.536,480.509,489.482,492.76880000000006,496.179,500.488,503.445,509.359,513.871" svgx:width="0.56,0.48,0.58,0.48,0.4,0.5,0.33,0.29,0.55,0.58,0.42,0.25,0.55,0.72,0.48,0.4,0.56,0.55,0.55,0.33,0.33,0.48,0.58,0.25,0.55,0.33,0.58,0.29,0.42,0.55,0.6,0.4,0.55,0.44,0.48,0.42,0.42,0.55,0.29,0.42,0.55,0.6,0.42,0.48,0.61,0.55,0.33,0.55,0.55,0.23,0.55,0.29,0.58,0.55,0.6,0.29,0.5,0.33,0.48,0.42,0.55,0.33,0.55,0.33,0.55,0.33,0.58,0.29,0.44,0.56,0.58,0.48,0.42,0.42,0.48,0.42,0.55,0.48,0.52,0.44,0.48,0.48,0.61,0.29,0.58,0.56,0.55,0.5,0.55,0.88,0.88,0.33,0.55,0.42,0.29,0.58,0.44,0.48" style="fill:rgb(0,0,0);font-family:URWPalladioL-Roma;font-size:9.96px;stroke:none;">generations. Very often, this process is used to join plates (of thicknesses exceeding 4 mm) since</text>
   <text y="165.395" x="76.535,79.848,85.762,90.5428,93.627,98.708,104.815,110.923,113.88,116.837,121.349,126.43,129.742,132.7,138.248,144.0248,147.16,152.708,155.9948,159.09,162.403,168.317,173.0978,176.182,179.139,184.22,188.529,193.396,197.38,200.398,206.017,210.885,215.966,224.73080000000002,227.936,236.909,241.99,247.64,252.508,256.69120000000004,259.814,262.771,266.05780000000004,269.082,275.189,280.737,285.046,289.355,292.312,297.931,300.888,305.6688,308.754,312.066,317.544,320.612,326.161,331.78,335.093,340.174,343.131,348.90779999999995,352.043,357.957,360.914,366.564,372.479,375.862,381.553,387.681,392.762,395.719,398.676,401.989,407.5666,410.636,413.014,418.563,421.52,427.434,430.747,434.9302,438.043,446.518,449.475,452.788,458.702,464.25,470.378,473.6648,476.688,482.816,487.125,490.082,495.996,501.5736,504.644,507.956,513.871" svgx:width="0.33,0.58,0.48,0.55,0.5,0.6,0.6,0.29,0.29,0.44,0.5,0.33,0.29,0.55,0.58,0.55,0.55,0.33,0.55,0.33,0.58,0.48,0.55,0.29,0.5,0.42,0.48,0.4,0.55,0.55,0.48,0.5,0.88,0.55,0.88,0.5,0.56,0.48,0.42,0.55,0.29,0.33,0.55,0.6,0.55,0.42,0.42,0.29,0.55,0.29,0.48,0.55,0.33,0.55,0.55,0.55,0.55,0.33,0.5,0.29,0.58,0.55,0.58,0.29,0.56,0.58,0.33,0.56,0.6,0.5,0.29,0.29,0.33,0.56,0.55,0.23,0.55,0.29,0.58,0.33,0.42,0.55,0.83,0.29,0.33,0.58,0.55,0.6,0.33,0.55,0.6,0.42,0.29,0.58,0.56,0.55,0.33,0.58,0.48" style="fill:rgb(0,0,0);font-family:URWPalladioL-Roma;font-size:9.96px;stroke:none;">the application of the laser beam makes it possible to obtain high-quality joints without using the</text>
   <text y="178.905" x="76.535,82.683,85.64,88.597,93.465,97.449,100.354,109.327,114.195,117.508,122.589,125.546,128.036,131.063,139.538,145.453,148.41,152.922,158.6988,161.722,165.553,170.42,176.629,182.757,187.269,192.136,196.3192,199.331,203.843,209.391,213.7,217.012,221.1952,224.197,229.278,235.192,241.26760000000002,244.277,248.118,252.985,257.294,260.607,264.621,267.578,272.09,275.402,279.5852,282.587,285.9,291.814,296.5948,299.567,302.951,308.5,312.514,321.486,326.567,329.87,332.827,338.375,344.1518,347.176,352.724,356.0108,358.984,367.459,372.326,375.283,381.492,384.449,390.363,395.9406,398.899,403.208,406.521,410.535,415.616,418.573,424.487,428.6702,431.671" svgx:width="0.61,0.29,0.29,0.48,0.4,0.55,0.88,0.48,0.33,0.5,0.29,0.25,0.55,0.83,0.58,0.29,0.44,0.58,0.55,0.4,0.48,0.61,0.6,0.44,0.48,0.42,0.55,0.44,0.55,0.42,0.33,0.42,0.55,0.5,0.58,0.61,0.55,0.4,0.48,0.42,0.33,0.4,0.29,0.44,0.33,0.42,0.55,0.33,0.58,0.48,0.55,0.33,0.55,0.4,0.88,0.5,0.33,0.29,0.55,0.58,0.55,0.55,0.33,0.55,0.83,0.48,0.29,0.61,0.29,0.58,0.56,0.55,0.42,0.33,0.4,0.5,0.29,0.58,0.42,0.55,0.33" style="fill:rgb(0,0,0);font-family:URWPalladioL-Roma;font-size:9.96px;stroke:none;">ﬁller metal, which reduces costs and restricts the formation of welding strains [</text>
   <text y="178.905" x="435.056,440.037" svgx:width="0.5,0.5" style="fill:rgb(8,117,183);font-family:URWPalladioL-Roma;font-size:9.96px;stroke:none;">10</text>
   <text y="178.905" x="445.019" svgx:width="0.5" style="fill:rgb(0,0,0);font-family:URWPalladioL-Roma;font-size:9.96px;stroke:none;">–</text>
   <text y="178.905" x="450.1,455.081" svgx:width="0.5,0.5" style="fill:rgb(8,117,183);font-family:URWPalladioL-Roma;font-size:9.96px;stroke:none;">16</text>
   <text y="178.905" x="460.063,463.447,465.937,470.641,479.086,484.634,492.195,494.685,497.713,500.67,505.751,510.059,514.927" svgx:width="0.33,0.25,0.55,0.83,0.55,0.83,0.25,0.55,0.29,0.5,0.42,0.48,0.4" style="fill:rgb(0,0,0);font-family:URWPalladioL-Roma;font-size:9.96px;stroke:none;">]. Now, laser</text>
   <text y="192.414" x="76.117,84.592,89.46,92.417,98.625,101.583,107.497,113.0746,115.819,118.776,122.9592,125.758,131.885,136.194,141.061,147.13660000000002,149.943,152.9,158.67680000000001,161.487,164.799,170.714,175.4948,178.254,182.562,188.477,191.434,197.541,200.925,206.544,212.672,215.619,218.576,224.785,227.742,233.656,239.2336,241.979,247.527,251.511,254.214,260.321,265.869,274.344,279.212,283.19599999999997,285.898,291.548,296.416,302.33,307.197,311.211,316.292,319.605,322.562,328.111,333.88779999999997,336.697,339.654,345.569,351.777,357.905,362.214,365.526,369.54,372.497,377.365,381.674,384.164,386.927,395.402,401.316,406.184,410.025,414.8058,417.565,420.522,423.8088,426.508,429.465,433.6482,436.446,442.36,447.228,451.74,456.607,460.916,465.224,470.305,474.319,479.89660000000003,482.632,485.944,491.422,494.165,503.138,508.219,513.869" svgx:width="0.83,0.48,0.29,0.61,0.29,0.58,0.56,0.55,0.29,0.42,0.55,0.6,0.42,0.48,0.61,0.55,0.29,0.58,0.55,0.33,0.58,0.48,0.55,0.42,0.58,0.29,0.6,0.33,0.55,0.6,0.29,0.29,0.61,0.29,0.58,0.56,0.55,0.55,0.4,0.55,0.6,0.55,0.83,0.48,0.4,0.55,0.56,0.48,0.58,0.48,0.4,0.5,0.33,0.29,0.55,0.58,0.55,0.29,0.58,0.61,0.6,0.42,0.33,0.4,0.29,0.48,0.42,0.25,0.55,0.83,0.58,0.48,0.4,0.48,0.55,0.29,0.33,0.55,0.29,0.42,0.55,0.58,0.48,0.44,0.48,0.42,0.42,0.5,0.4,0.56,0.55,0.33,0.55,0.55,0.88,0.5,0.56,0.48" style="fill:rgb(0,0,0);font-family:URWPalladioL-Roma;font-size:9.96px;stroke:none;">welding is used in the ship-building or power generation industries, where it is necessary to make</text>
   <text y="205.924" x="76.535,79.724,85.418,88.265,92.609,98.1866,100.543,102.832,108.174,111.011,116.705,119.894,124.0772,126.537,129.384,135.1608,137.563,143.257,146.104,151.543,157.237,160.495,164.643,167.833,171.521,176.207,181.901,187.34,190.53,196.3068,198.718,202.866,206.056,210.742,215.428,218.275,222.423,224.913,227.354,232.04,234.486,239.925,242.371,244.86100000000002,247.312,253.309,262.564,269.5,275.476,277.894,282.042,285.232,289.918,294.604,297.451,301.599,304.089,307.528,313.525,319.219,323.9998,326.4,329.247,337.885,343.765,346.612,351.298,359.937,364.623,370.317,373.506,378.398,381.587,384.434,389.776,395.5528,397.955,403.296,406.5828,409.049,415.046,424.301,431.237,437.213,439.631,443.78,446.969,451.655,456.341,459.188,463.3712,465.831,469.979,472.826,478.266,483.959,486.806,492.725,497.069,501.961,507.655,510.844,513.691" svgx:width="0.33,0.58,0.29,0.44,0.56,0.55,0.23,0.55,0.29,0.58,0.33,0.42,0.55,0.29,0.58,0.55,0.58,0.29,0.56,0.58,0.33,0.42,0.33,0.4,0.48,0.58,0.56,0.33,0.58,0.55,0.42,0.33,0.48,0.48,0.29,0.42,0.25,0.55,0.48,0.25,0.56,0.25,0.25,0.55,0.61,0.95,0.71,0.6,0.55,0.42,0.33,0.48,0.48,0.29,0.42,0.25,0.55,0.61,0.58,0.48,0.55,0.29,0.88,0.6,0.29,0.48,0.88,0.48,0.58,0.33,0.5,0.33,0.29,0.55,0.58,0.55,0.55,0.33,0.55,0.61,0.95,0.71,0.6,0.55,0.42,0.33,0.48,0.48,0.29,0.42,0.55,0.42,0.29,0.56,0.58,0.29,0.61,0.44,0.5,0.58,0.33,0.29,0.56" style="fill:rgb(0,0,0);font-family:URWPalladioL-Roma;font-size:9.96px;stroke:none;">thick joints in high-strength steels, e.g., TMCP steels. The implementation of TMCP steels signiﬁcantly</text>
   <text y="219.433" x="76.535,82.744,87.611,92.123,95.954,100.822,105.903,110.211,115.079,119.26219999999999,122.426,125.739,131.653,136.4338,139.549,142.861,145.818,154.791,159.5718,162.687,168.236,171.5228,174.648,183.123,187.99,190.947,197.156,200.113,206.027,211.60459999999998,214.706,223.181,228.729,232.743,238.393,242.5762,245.73,251.349,256.9266,260.028,263.869,268.736,274.945,281.073,285.585,288.542,294.456,300.03360000000004,303.134,306.447,312.361,317.1418,320.257,326.364,330.195,335.063,340.977,345.844,350.925,354.238,357.195,363.109,368.6866,371.788,375.1,379.968,388.941,395.048,399.916,403.929,409.01,412.323,418.451,422.292,427.0728,430.188,435.736,439.71999999999997,442.778,447.646,453.387,458.255,464.0318,467.197,472.065,475.022,477.979,486.952,489.909,495.823,500.904,504.217,507.174,513.088" svgx:width="0.61,0.48,0.44,0.4,0.48,0.5,0.42,0.48,0.42,0.55,0.33,0.58,0.48,0.55,0.33,0.29,0.88,0.48,0.55,0.55,0.33,0.55,0.83,0.48,0.29,0.61,0.29,0.58,0.56,0.55,0.83,0.55,0.4,0.56,0.42,0.55,0.55,0.56,0.55,0.4,0.48,0.61,0.6,0.44,0.29,0.58,0.56,0.55,0.33,0.58,0.48,0.55,0.6,0.4,0.48,0.58,0.48,0.5,0.33,0.29,0.58,0.56,0.55,0.33,0.48,0.88,0.6,0.48,0.4,0.5,0.33,0.6,0.4,0.48,0.55,0.55,0.4,0.55,0.48,0.56,0.48,0.58,0.55,0.48,0.29,0.29,0.88,0.29,0.58,0.5,0.33,0.29,0.58,0.56" style="fill:rgb(0,0,0);font-family:URWPalladioL-Roma;font-size:9.96px;stroke:none;">decreases the time of welding works by reducing the preheating temperature or even eliminating</text>
   <text y="232.942" x="76.535,79.848,85.762,90.5428,93.475,99.582,103.423,108.291,114.205,119.073,124.153,127.466,130.423,136.338,141.91559999999998,144.833,150.94,154.771,160.319,164.831,169.699,174.007,178.1902,181.172,186.253,190.43619999999999,193.406,197.715,203.843,208.355,214.269,216.75900000000001,221.372,224.796,230.5728,233.556,238.637,244.846,251.055,254.012,257.325,260.282,265.83,271.744,274.23400000000004,277.221,280.534,286.448,291.2288,294.171,300.299,304.608,309.3888,312.32,317.869,321.15580000000006,324.108,330.337,339.95,347.155,353.131,356.138,360.447,363.76,368.627,373.495,376.3834,379.297,388.27,393.351,399.001,403.868,408.0512,411.033,413.99,417.27680000000004,420.148,426.255,431.803,436.112,440.421,443.378,448.997,451.954,456.7348,459.667,462.98,468.458,471.384,475.215,480.082,486.291,492.419,496.931,501.7118,504.643,507.956,513.87" svgx:width="0.33,0.58,0.48,0.55,0.6,0.4,0.48,0.58,0.48,0.5,0.33,0.29,0.58,0.56,0.55,0.6,0.4,0.55,0.44,0.48,0.42,0.42,0.55,0.5,0.42,0.55,0.42,0.6,0.44,0.58,0.25,0.55,0.34,0.58,0.55,0.5,0.61,0.61,0.29,0.33,0.29,0.55,0.58,0.25,0.55,0.33,0.58,0.48,0.55,0.6,0.42,0.48,0.55,0.55,0.33,0.55,0.61,0.95,0.71,0.6,0.55,0.42,0.33,0.48,0.48,0.29,0.55,0.88,0.5,0.56,0.48,0.42,0.55,0.29,0.33,0.55,0.6,0.55,0.42,0.42,0.29,0.55,0.29,0.48,0.55,0.33,0.55,0.55,0.4,0.48,0.61,0.6,0.44,0.48,0.55,0.33,0.58,0.48" style="fill:rgb(0,0,0);font-family:URWPalladioL-Roma;font-size:9.96px;stroke:none;">the preheating process as such. In addition, the use of TMCP steel makes it possible to reduce the</text>
   <text y="246.452" x="76.535,81.016,84.821,90.331,94.61,98.889,102.25,106.529,111.363,115.844,119.134,122.071,127.581,133.454,137.6372,140.226,145.737,149.0238,151.59,155.869,159.159,163.075,169.16,173.641,176.931,183.017,186.993,192.039,194.92739999999998,197.479,202.313,205.25,210.084,218.995,223.829,229.703,232.993,237.272,239.762,243.287,251.139,255.3222,257.91,262.89000000000004,265.449,269.264,274.098,278.377,284.453,287.389,290.68,293.17,295.705,304.122,308.956,311.893,318.059,322.894,328.9696,331.553,335.832,339.122,343.027,349.113,353.594,356.884,362.969,366.774,371.608,375.7912,378.38,386.797,389.734,393.024,398.8008,401.39,404.68,410.554,415.3348,417.881,422.16,427.206,436.117,440.8978,443.444,446.381,451.891,456.937,463.0126,465.606,470.087,475.133,481.198,486.245,490.725,493.662,496.952,502.5296,505.056,510.102,513.907" svgx:width="0.44,0.4,0.55,0.42,0.42,0.33,0.42,0.48,0.44,0.33,0.29,0.55,0.58,0.42,0.55,0.55,0.33,0.55,0.42,0.33,0.4,0.6,0.44,0.33,0.6,0.4,0.5,0.29,0.55,0.48,0.29,0.48,0.88,0.48,0.58,0.33,0.42,0.25,0.55,0.78,0.42,0.55,0.5,0.55,0.4,0.48,0.42,0.6,0.29,0.33,0.25,0.55,0.83,0.48,0.29,0.61,0.48,0.61,0.55,0.42,0.33,0.4,0.6,0.44,0.33,0.6,0.4,0.48,0.42,0.55,0.83,0.29,0.33,0.58,0.55,0.33,0.58,0.48,0.55,0.42,0.5,0.88,0.48,0.55,0.29,0.55,0.5,0.61,0.55,0.44,0.5,0.6,0.5,0.44,0.29,0.33,0.56,0.55,0.5,0.4,0.48" style="fill:rgb(0,0,0);font-family:URWPalladioL-Roma;font-size:9.96px;stroke:none;">cross-sections of structural elements. As a result, welded structures with the same load capacity are</text>
   <text y="259.961" x="76.535,82.217,87.548,98.161,101.344,107.026,109.867,115.549,121.232,125.908,129.892,132.245,137.126,142.809,148.8846,151.244,154.085,156.926,162.355,168.037,171.22,175.897,179.021,181.511,184.937,190.366,196.253,200.11,203.293,208.975,213.651,217.508,226.129,231.46,235.141,239.817,242.30700000000002,244.738,247.921,253.603,258.3838,260.75,266.637,270.777,275.5578,277.933,283.264,286.55080000000004,288.985,294.97,304.206,311.129,317.105,319.506,323.645,326.818,331.495,336.172,339.013,343.1962,345.632,349.313,353.99,359.955,365.842,370.177,374.854,379.0372,381.464,389.606,394.283,397.124,403.09,405.931,411.613,417.1906,419.511,423.846,429.177,433.317,436.5,440.6832,443.119,448.518,454.0956,456.417,462.382,467.059,471.394,475.075,479.751,484.633,488.773,491.614,497.296,502.8736,505.195,508.377,514.06" svgx:width="0.58,0.55,0.83,0.33,0.58,0.29,0.58,0.58,0.48,0.4,0.55,0.5,0.58,0.61,0.55,0.29,0.29,0.56,0.58,0.33,0.48,0.4,0.25,0.55,0.56,0.6,0.4,0.33,0.58,0.48,0.4,0.88,0.55,0.4,0.48,0.25,0.55,0.33,0.58,0.48,0.55,0.6,0.42,0.48,0.55,0.55,0.33,0.55,0.61,0.95,0.71,0.6,0.55,0.42,0.33,0.48,0.48,0.29,0.42,0.55,0.4,0.48,0.61,0.6,0.44,0.48,0.42,0.55,0.83,0.48,0.29,0.61,0.29,0.58,0.56,0.55,0.44,0.55,0.42,0.33,0.42,0.55,0.55,0.56,0.55,0.61,0.48,0.44,0.4,0.48,0.5,0.42,0.29,0.58,0.56,0.55,0.33,0.58,0.48" style="fill:rgb(0,0,0);font-family:URWPalladioL-Roma;font-size:9.96px;stroke:none;">nowthinner and lighter. Furthermore, the use of TMCP steels reduces welding costs by decreasing the</text>
   <text y="273.471" x="76.535,81.047,86.595,92.509,96.818,102.946,111.919,118.026,121.339,124.296,129.844,135.6208,138.583,144.132,147.4188,150.341,156.488,159.446,162.403,167.27,171.25400000000002,174.109,183.082,187.95,191.262,196.343,199.3,203.609,206.09900000000002,209.056,213.364,219.279,224.827,228.841,232.154,237.021,242.935,245.892,251.807,257.3846,260.282,263.594,269.509,274.2898,277.211,280.524,283.481,292.454,297.2348,300.146,305.695,308.9818,311.904,320.379,325.246,328.203,334.412,337.369,343.284,348.8616,351.758,357.866,361.697,367.245,371.757,376.625,380.933,385.242,390.109,394.418,396.908,399.865,404.946,410.86,416.9356,419.894,423.735,428.602,434.811,440.939,445.451,448.408,454.322,459.8996,462.797,467.309,472.857,477.166,480.479,484.6622,487.612,491.443,496.311,499.268,504.349,507.662,512.529" svgx:width="0.44,0.55,0.58,0.42,0.6,0.88,0.6,0.33,0.29,0.55,0.58,0.55,0.55,0.33,0.55,0.61,0.29,0.29,0.48,0.4,0.55,0.88,0.48,0.33,0.5,0.29,0.42,0.25,0.55,0.42,0.58,0.55,0.4,0.33,0.48,0.58,0.29,0.58,0.56,0.55,0.33,0.58,0.48,0.55,0.33,0.29,0.88,0.48,0.55,0.55,0.33,0.55,0.83,0.48,0.29,0.61,0.29,0.58,0.56,0.55,0.6,0.4,0.55,0.44,0.48,0.42,0.42,0.48,0.42,0.25,0.55,0.5,0.58,0.61,0.55,0.4,0.48,0.61,0.6,0.44,0.29,0.58,0.56,0.55,0.44,0.55,0.42,0.33,0.42,0.55,0.4,0.48,0.29,0.5,0.33,0.48,0.61" style="fill:rgb(0,0,0);font-family:URWPalladioL-Roma;font-size:9.96px;stroke:none;">consumption of ﬁller metals, shortening the time of welding processes, and reducing costs related</text>
   <text y="286.98" x="76.535,79.848,85.326,88.262,91.575,97.489,102.2698,105.212,109.52,112.833,116.847,121.928,124.885,130.535,136.449,139.762,144.63,150.544,153.501,159.415,164.99259999999998,167.931,173.479,176.7658,179.718,184.027,187.34,191.272,197.4,201.912,205.225,211.352,215.193,220.061,224.2442,227.225,232.306,238.22,244.2956,247.295,250.608,256.522,261.3028,264.255,267.568,272.435,276.744,280.057,283.014,288.928,294.5056,297.433,302.982,306.26880000000006,309.231,317.706,322.574,325.531,331.74,335.9232,338.904" svgx:width="0.33,0.55,0.55,0.33,0.58,0.48,0.55,0.42,0.33,0.4,0.5,0.29,0.56,0.58,0.33,0.48,0.58,0.29,0.58,0.56,0.55,0.55,0.33,0.55,0.42,0.33,0.4,0.6,0.44,0.33,0.6,0.4,0.48,0.42,0.55,0.5,0.58,0.61,0.55,0.33,0.58,0.48,0.55,0.33,0.48,0.42,0.33,0.29,0.58,0.56,0.55,0.55,0.33,0.55,0.83,0.48,0.29,0.61,0.42,0.55,0.33" style="fill:rgb(0,0,0);font-family:URWPalladioL-Roma;font-size:9.96px;stroke:none;">to the straightening of structures and the testing of welds [</text>
   <text y="286.98" x="342.291,347.272" svgx:width="0.5,0.5" style="fill:rgb(8,117,183);font-family:URWPalladioL-Roma;font-size:9.96px;stroke:none;">17</text>
   <text y="286.98" x="352.253" svgx:width="0.5" style="fill:rgb(0,0,0);font-family:URWPalladioL-Roma;font-size:9.96px;stroke:none;">–</text>
   <text y="286.98" x="357.334,362.315" svgx:width="0.5,0.5" style="fill:rgb(8,117,183);font-family:URWPalladioL-Roma;font-size:9.96px;stroke:none;">22</text>
   <text y="286.98" x="367.297,370.681,373.171,377.825,381.249,384.53580000000005,387.417,391.726,397.64,403.189,409.316,412.273,418.34860000000003,421.348,426.429,429.386,433.695,439.173,442.098,447.718,452.4988,455.451,461.365,466.914,470.226,475.094,481.1696,484.168,487.481,493.395,498.476,501.7628,504.645,507.957,513.872" svgx:width="0.33,0.25,0.55,0.34,0.33,0.55,0.42,0.58,0.55,0.6,0.29,0.61,0.55,0.5,0.29,0.42,0.55,0.55,0.55,0.48,0.55,0.58,0.55,0.33,0.48,0.61,0.55,0.33,0.58,0.5,0.33,0.55,0.33,0.58,0.48" style="fill:rgb(0,0,0);font-family:URWPalladioL-Roma;font-size:9.96px;stroke:none;">]. It should also be noted that the</text>
   <text y="300.489" x="76.117,84.451,89.237,92.145,98.25,101.158,106.974,112.55160000000001,115.028,118.285,124.101,128.887,132.834,141.658,146.654,149.5424,152.06,156.497,162.052,166.489,169.397,174.1778,176.671,179.579,182.837,187.074,191.86,194.768,198.0548,200.593,204.83,207.738,213.294,219.11,222.017,228.063,232.499,237.496,243.311,246.569,249.477,255.0546,257.531,263.636" svgx:width="0.83,0.48,0.29,0.61,0.29,0.58,0.56,0.55,0.33,0.58,0.48,0.4,0.88,0.5,0.29,0.55,0.44,0.56,0.44,0.29,0.48,0.55,0.29,0.33,0.42,0.48,0.29,0.33,0.55,0.42,0.29,0.56,0.58,0.29,0.61,0.44,0.5,0.58,0.33,0.29,0.56,0.55,0.61,0.29" style="fill:rgb(0,0,0);font-family:URWPalladioL-Roma;font-size:9.96px;stroke:none;">welding thermal cycle itself signiﬁcantly di</text>
   <text y="300.489" x="266.542" svgx:width="0.61" style="fill:rgb(0,0,0);font-family:Rpxr;font-size:9.96px;stroke:none;">ﬀ</text>
   <text y="300.489" x="272.618,277.404,281.351,285.5342,288.086,291.414,295.181,300.637,311.958,315.216,321.032,325.8128,328.306,332.743,335.651,340.647,344.884,349.12,352.028,356.465,361.461,364.3494,366.867,370.125,375.94,380.727,384.674,393.497,398.953,407.776,412.563,416.999,422.815,427.811,433.627,436.535,440.971,445.968,448.8564,451.374,454.631,458.398,463.185,468.181,471.438,480.262,485.048,490.864,494.1508,496.619,501.056,506.612,511.049,513.956" svgx:width="0.48,0.4,0.42,0.55,0.33,0.4,0.55,0.88,0.33,0.58,0.48,0.55,0.44,0.29,0.5,0.42,0.42,0.29,0.44,0.5,0.29,0.55,0.33,0.58,0.48,0.4,0.88,0.55,0.88,0.48,0.44,0.58,0.5,0.58,0.29,0.44,0.5,0.29,0.55,0.33,0.4,0.48,0.5,0.33,0.88,0.48,0.58,0.33,0.55,0.44,0.56,0.44,0.29,0.48" style="fill:rgb(0,0,0);font-family:URWPalladioL-Roma;font-size:9.96px;stroke:none;">ers fromthe classical thermomechanical treatment cycle</text>
   <text y="313.999" x="76.207,79.591,85.21,90.7876,93.462,99.081,103.949,106.906,112.82,118.3976,121.082,125.594,131.142,137.056,141.365,144.322,150.531,155.398,159.412,164.493,170.113,173.07,178.64759999999998,181.321,190.294,195.842,199.674,204.4548,207.153,210.11,216.024,219.337,224.204,230.118,234.427,239.295,242.678,245.168,249.05,256.956,261.1392,263.866,268.846,271.548,275.389,280.257,284.566,290.693,293.65,296.9368,299.565,305.113,308.3998,311.108,314.421,320.335,325.1158,327.804,331.117,337.031,341.899,345.913,354.886,359.967,362.8554,365.525,374.0,378.868,381.825,388.034,390.991,396.905,402.4826,405.167,409.678,415.328,419.84,422.797,427.665,430.15500000000003,432.837,437.349,442.43,446.444,452.063,455.021,461.229,466.0098,468.698,473.779,479.694,485.7696,488.514,494.428,497.375,500.688,504.702,507.659,513.868" svgx:width="0.33,0.55,0.56,0.55,0.55,0.48,0.29,0.58,0.56,0.55,0.44,0.55,0.58,0.42,0.29,0.61,0.48,0.4,0.5,0.55,0.29,0.56,0.55,0.88,0.55,0.4,0.48,0.55,0.29,0.58,0.33,0.48,0.58,0.42,0.48,0.33,0.25,0.55,0.78,0.42,0.55,0.5,0.55,0.4,0.48,0.42,0.6,0.29,0.33,0.55,0.55,0.33,0.55,0.33,0.58,0.48,0.55,0.33,0.58,0.48,0.4,0.88,0.5,0.29,0.55,0.83,0.48,0.29,0.61,0.29,0.58,0.56,0.55,0.44,0.56,0.44,0.29,0.48,0.25,0.55,0.44,0.5,0.4,0.55,0.29,0.61,0.48,0.55,0.5,0.58,0.61,0.55,0.58,0.29,0.33,0.4,0.29,0.61,0.48" style="fill:rgb(0,0,0);font-family:URWPalladioL-Roma;font-size:9.96px;stroke:none;">(by being considerably more intense). As a result of the thermal welding cycle, carbide and nitride</text>
   <text y="327.508" x="76.535,82.744,87.611,93.719,99.267,103.576,106.533,109.846,114.0292,116.918,121.999,125.84,130.6208,133.472,139.579,144.66,148.674,151.987,154.944,160.025,162.982,165.939,171.51659999999998,174.353,180.562,183.519,187.828,192.136,197.685,200.642,206.383,211.251,217.3266,220.234,223.191,228.9678,231.869,236.95,243.078,247.386,250.699,255.566,261.481,264.438,267.751,272.618,275.108,279.477,282.902,288.67879999999997,291.58,296.661,302.87,309.079,312.036,315.349,318.306,323.854,329.768,332.258,335.154,339.168,344.249,350.346,353.303,359.3786,362.286,366.798,372.346,377.895,380.852,383.809,389.723,395.30060000000003,398.137,401.094,405.962,411.043,417.252,421.4352,424.334,427.647,433.125,435.96,440.268,446.396,452.503,457.371,461.385,465.693,470.774,474.087,480.215,484.228,489.309,492.622,495.579,501.128,506.90479999999997,509.806,515.354" svgx:width="0.61,0.48,0.6,0.55,0.42,0.29,0.33,0.42,0.55,0.5,0.4,0.48,0.55,0.6,0.5,0.4,0.33,0.29,0.5,0.29,0.29,0.56,0.55,0.61,0.29,0.42,0.42,0.55,0.29,0.56,0.48,0.61,0.55,0.29,0.58,0.55,0.5,0.6,0.42,0.33,0.48,0.58,0.29,0.33,0.48,0.25,0.55,0.34,0.58,0.55,0.5,0.61,0.61,0.29,0.33,0.29,0.55,0.58,0.25,0.55,0.4,0.5,0.6,0.29,0.61,0.55,0.44,0.55,0.55,0.29,0.29,0.58,0.56,0.55,0.29,0.48,0.5,0.61,0.42,0.55,0.33,0.55,0.55,0.42,0.6,0.6,0.48,0.4,0.42,0.5,0.33,0.6,0.4,0.5,0.33,0.29,0.55,0.58,0.55,0.55,0.33" style="fill:rgb(0,0,0);font-family:URWPalladioL-Roma;font-size:9.96px;stroke:none;">deposits are partially dissolved in austenite. In addition, rapid cooling leads to supersaturation of</text>
   <text y="341.018" x="76.535,79.848,85.762" svgx:width="0.33,0.58,0.48" style="fill:rgb(0,0,0);font-family:URWPalladioL-Roma;font-size:9.96px;stroke:none;">the</text>
   <text y="341.018" x="93.647" svgx:width="0.66" style="fill:rgb(0,0,0);font-family:EURM10;font-size:9.96px;stroke:none;">α</text>
   <text y="341.018" x="103.225,107.534,113.082,116.039,122.167,125.479,128.437,133.985,139.76180000000002,142.917,151.392,154.349,157.662,163.43880000000001,166.594,175.567,178.524,183.036,186.867,192.416,195.799,200.88,207.089,213.298,216.255,219.568,222.525,228.267,233.134,237.443,239.93300000000002,243.133,246.09,248.631,253.498,256.039,258.529,261.73,268.8016,271.952,277.033,282.947,289.0226,292.174,300.44079999999997,303.637,308.718,314.632" svgx:width="0.42,0.55,0.29,0.6,0.33,0.29,0.55,0.58,0.55,0.83,0.29,0.33,0.58,0.55,0.88,0.29,0.44,0.4,0.55,0.33,0.5,0.61,0.61,0.29,0.33,0.29,0.56,0.48,0.42,0.25,0.55,0.29,0.25,0.48,0.25,0.25,0.55,0.71,0.55,0.5,0.58,0.61,0.55,0.83,0.55,0.5,0.58,0.61" style="fill:rgb(0,0,0);font-family:URWPalladioL-Roma;font-size:9.96px;stroke:none;">solution with micro-additives, i.e., C and N and</text>
   <text y="341.018" x="320.838" svgx:width="0.29" style="fill:rgb(0,0,0);font-family:Rpxr;font-size:9.96px;stroke:none;">/</text>
   <text y="341.018" x="323.754,329.302,333.286,336.334,339.647,345.561,350.429,353.386,357.37,360.418,366.546,372.46,376.972,382.52,388.434,391.747,395.578,401.126,404.083,407.04,411.908,417.9836,421.135,427.242,431.073,435.941,440.453,443.41,449.517,452.474,455.787,460.868,464.181,467.138,472.686,478.6,481.09000000000003,486.211,494.077,500.204,504.218,507.175,513.089" svgx:width="0.55,0.4,0.55,0.33,0.58,0.48,0.29,0.4,0.55,0.6,0.58,0.44,0.55,0.58,0.33,0.4,0.55,0.29,0.29,0.48,0.61,0.55,0.6,0.4,0.48,0.44,0.29,0.6,0.29,0.33,0.5,0.33,0.29,0.55,0.58,0.25,0.55,0.77,0.6,0.4,0.29,0.58,0.56" style="fill:rgb(0,0,0);font-family:URWPalladioL-Roma;font-size:9.96px;stroke:none;">or their uncontrolled precipitation. During</text>
   <text y="354.527" x="76.535,79.809,85.653,90.4338,92.944,101.319,106.13,109.052,115.188,118.11,123.955,129.5326,132.019,137.502,140.7888,143.316,149.472,158.972,166.092,172.068,174.638,178.896,182.17,186.98,191.79,194.713,198.971,201.461,203.962,207.236,213.08,217.8608,220.371,228.746,233.556,236.479,242.55460000000002,245.095,248.017,252.2002,254.746,260.781,264.567,270.05,275.724,278.646,284.782,289.592,295.6676,298.209,306.584,309.506,312.78,318.55679999999995,321.105,329.972,332.895,337.354,341.139,346.623,349.967,354.988,361.124,367.259,370.182,373.456,376.378,381.861,387.706,391.8892,394.444,398.702,404.757,409.216,414.9928,417.541,422.562,426.7452,429.291,435.135,438.058,443.541,449.094,452.016,458.072,466.939,469.42900000000003,471.93,477.604,482.625,488.47,493.491,499.627,502.549,508.605,517.472" svgx:width="0.33,0.58,0.48,0.55,0.83,0.48,0.29,0.61,0.29,0.58,0.56,0.55,0.55,0.33,0.55,0.61,0.95,0.71,0.6,0.55,0.42,0.33,0.48,0.48,0.29,0.42,0.25,0.55,0.33,0.58,0.48,0.55,0.83,0.48,0.29,0.61,0.55,0.29,0.42,0.55,0.6,0.4,0.55,0.56,0.29,0.61,0.48,0.61,0.55,0.83,0.29,0.33,0.58,0.55,0.88,0.29,0.44,0.4,0.55,0.33,0.5,0.61,0.61,0.29,0.33,0.29,0.55,0.58,0.42,0.55,0.42,0.6,0.44,0.58,0.55,0.5,0.42,0.55,0.58,0.29,0.55,0.55,0.29,0.6,0.88,0.25,0.55,0.56,0.5,0.58,0.5,0.61,0.29,0.6,0.88,0.25" style="fill:rgb(0,0,0);font-family:URWPalladioL-Roma;font-size:9.96px;stroke:none;">the welding of TMCP steels, the weld is provided with micro-additions such as niobium, vanadium,</text>
   <text y="368.036" x="76.535,81.616,87.53,93.6056,96.269,99.582,102.539,105.852,110.933,116.847,119.804,125.932,134.905,137.395,141.063,148.928,155.056,159.07,162.027,167.941,173.5186,176.121,180.633,186.181,191.73,194.687,197.644,203.558,209.208,211.698,214.289,217.602,223.516,228.2968,230.914,237.021,240.852,245.72,251.461,254.418,259.967,266.094,270.403,273.36,278.93760000000003,281.55,290.523,295.391,301.305,304.618,307.575,313.123,319.037,323.905,329.9806,332.644,341.617,344.574,349.086,352.917,358.465,361.849,366.93,373.139,379.348,382.305,385.618,388.575,394.123,400.038,404.2212,406.876,412.984,416.825,421.692,426.204,429.161,435.269,438.226,441.528,446.609,449.922,454.7028,457.33,460.287,466.06379999999996,468.732,472.044,477.959,482.7398,485.356,488.74,494.289,498.303,507.0678,509.806,515.354" svgx:width="0.5,0.58,0.61,0.55,0.33,0.29,0.33,0.5,0.58,0.29,0.6,0.88,0.25,0.55,0.77,0.6,0.4,0.29,0.58,0.56,0.55,0.44,0.55,0.55,0.29,0.29,0.58,0.56,0.25,0.55,0.33,0.58,0.48,0.55,0.6,0.4,0.48,0.56,0.29,0.55,0.6,0.42,0.29,0.56,0.55,0.88,0.48,0.58,0.33,0.29,0.55,0.58,0.48,0.61,0.55,0.88,0.29,0.44,0.4,0.55,0.33,0.5,0.61,0.61,0.29,0.33,0.29,0.55,0.58,0.42,0.55,0.6,0.4,0.48,0.44,0.29,0.6,0.29,0.33,0.5,0.33,0.48,0.55,0.29,0.58,0.55,0.33,0.58,0.48,0.55,0.33,0.55,0.4,0.88,0.55,0.55,0.33" style="fill:rgb(0,0,0);font-family:URWPalladioL-Roma;font-size:9.96px;stroke:none;">and titanium. During cooling, the previously mentioned micro-additions precipitate in the form of</text>
   <text y="381.546" x="76.535,81.042,86.118,90.128,95.742,98.697,104.899,109.762,113.9452,116.554,121.63,127.538,133.6136,136.228,140.736,145.811,149.821,155.435,160.978,166.887,169.841,173.151,177.161,180.115,186.318,191.18,195.485,197.97500000000002,201.505,207.728,213.636,218.4168,220.986,226.062,235.026,240.569,246.691,252.599,255.8858,258.396,263.939,267.22580000000005,269.807,275.908,279.745,284.598,289.105,292.06,298.161,301.115,304.425,309.501,312.81,317.673,321.8562,324.464,330.667,335.53,341.631,346.494,352.402,358.605,362.7882,365.397,370.94,376.7168,379.335,382.645,388.553,393.3338,395.903,399.913,404.989,408.299,413.0798,415.649,421.192,424.47880000000004,427.06,431.567,437.11,442.653,445.607,448.561,454.47,460.114,462.604,466.144,474.042,479.81879999999995,482.438,485.392,491.301,495.808,499.635,504.498,509.574,513.878" svgx:width="0.44,0.5,0.4,0.55,0.29,0.61,0.48,0.42,0.55,0.5,0.58,0.61,0.55,0.44,0.5,0.4,0.55,0.55,0.58,0.29,0.33,0.4,0.29,0.61,0.48,0.42,0.25,0.55,0.61,0.58,0.48,0.55,0.5,0.88,0.55,0.6,0.58,0.33,0.55,0.55,0.33,0.55,0.6,0.4,0.48,0.44,0.29,0.6,0.29,0.33,0.5,0.33,0.48,0.42,0.55,0.61,0.48,0.6,0.48,0.58,0.61,0.42,0.55,0.55,0.58,0.55,0.33,0.58,0.48,0.55,0.4,0.5,0.33,0.48,0.55,0.55,0.33,0.55,0.44,0.55,0.55,0.29,0.29,0.58,0.56,0.25,0.55,0.78,0.58,0.55,0.29,0.58,0.44,0.4,0.48,0.5,0.42,0.48" style="fill:rgb(0,0,0);font-family:URWPalladioL-Roma;font-size:9.96px;stroke:none;">carbides and carbonitrides. The amount of precipitates depends on the rate of cooling. An increase</text>
   <text y="395.055" x="76.535,79.492,85.2688,88.302,91.615,97.529,102.3098,105.293,109.307,114.388,117.701,122.48179999999999,125.464,131.013,134.2998,137.293,141.805,147.353,152.901,155.858,158.816,164.73,170.30759999999998,173.276,176.233,180.4162,183.438,188.519,193.03,197.542,203.091,212.064,218.171,223.252,229.166,232.123,236.991,243.06660000000002,246.096,251.715,257.2926,260.261,265.342,271.11879999999996,274.153,277.11,283.024,287.536,291.367,296.234,301.315,305.624,310.4048,313.387,316.345,322.1218,325.155,328.468,334.382,339.1628,342.145,346.657,352.206,358.12,362.632,367.499,373.413,376.726,380.74,385.821,389.134,392.091,397.639,403.4158,406.45,411.998,415.2848,418.278,427.251,430.208,434.72,438.551,444.099,447.483,452.564,458.773,464.982,467.939,471.252,474.209,479.757,485.671,489.8542,492.876,495.833,501.6098,504.644,507.956,513.871" svgx:width="0.29,0.58,0.55,0.33,0.58,0.48,0.55,0.4,0.5,0.33,0.48,0.55,0.55,0.33,0.55,0.44,0.55,0.55,0.29,0.29,0.58,0.56,0.55,0.29,0.42,0.55,0.5,0.44,0.44,0.55,0.88,0.6,0.5,0.58,0.29,0.48,0.61,0.55,0.55,0.56,0.55,0.5,0.58,0.55,0.29,0.58,0.44,0.4,0.48,0.5,0.42,0.48,0.55,0.29,0.58,0.55,0.33,0.58,0.48,0.55,0.44,0.55,0.58,0.44,0.48,0.58,0.33,0.4,0.5,0.33,0.29,0.55,0.58,0.55,0.55,0.33,0.55,0.88,0.29,0.44,0.4,0.55,0.33,0.5,0.61,0.61,0.29,0.33,0.29,0.55,0.58,0.42,0.55,0.29,0.58,0.55,0.33,0.58,0.48" style="fill:rgb(0,0,0);font-family:URWPalladioL-Roma;font-size:9.96px;stroke:none;">in the rate of cooling is accompanied by an increase in the concentration of micro-additions in the</text>
   <text y="408.565" x="76.535,80.759,86.199,89.098,95.105,98.353,101.252,106.692,112.49,114.97999999999999,118.468,126.2368,128.709,132.933,135.832,144.629,147.529,150.428,155.409,159.393,161.835,166.059,168.958,172.206,178.213,183.195,186.442,189.341,194.781,200.55780000000001,203.07,207.493,212.475,218.2518,220.764,226.273,231.0538,233.526,239.324,244.763,248.011,250.91,255.334,260.106,266.1816,268.684,271.583,277.3598,279.872,283.119,288.918,293.6988,296.18,301.979,306.751,311.732,315.01880000000006,317.47" svgx:width="0.42,0.55,0.29,0.6,0.33,0.29,0.55,0.58,0.25,0.55,0.78,0.55,0.42,0.29,0.88,0.29,0.29,0.5,0.4,0.55,0.42,0.29,0.33,0.6,0.5,0.33,0.29,0.55,0.58,0.55,0.44,0.5,0.58,0.55,0.55,0.48,0.55,0.58,0.55,0.33,0.29,0.44,0.48,0.61,0.55,0.29,0.58,0.55,0.33,0.58,0.48,0.55,0.58,0.48,0.5,0.33,0.55,0.5" style="fill:rgb(0,0,0);font-family:URWPalladioL-Roma;font-size:9.96px;stroke:none;">solution. A similar situation can be noticed in the heat a</text>
   <text y="408.565" x="322.452" svgx:width="0.61" style="fill:rgb(0,0,0);font-family:Rpxr;font-size:9.96px;stroke:none;">ﬀ</text>
   <text y="408.565" x="328.509,333.281,337.705,340.952,345.724,351.7996,354.302,359.284,364.723,370.521,375.293,377.783,381.271,387.378,393.176,397.9568,400.439,405.42,414.217,419.657,425.664,431.463,434.74980000000005,437.201,442.641,445.92780000000005,448.449,457.246,460.145,464.568,468.324,473.764,477.081,482.063,488.15,494.237,497.136,500.384,503.283,508.723,514.521" svgx:width="0.48,0.44,0.33,0.48,0.61,0.55,0.5,0.55,0.58,0.48,0.25,0.55,0.61,0.58,0.48,0.55,0.5,0.88,0.55,0.6,0.58,0.33,0.55,0.55,0.33,0.55,0.88,0.29,0.44,0.4,0.55,0.33,0.5,0.61,0.61,0.29,0.33,0.29,0.55,0.58,0.42" style="fill:rgb(0,0,0);font-family:URWPalladioL-Roma;font-size:9.96px;stroke:none;">ected zone. The amount of micro-additions</text>
   <text y="422.074" x="76.535,79.492,84.36,87.744,91.0308,93.861,96.818,102.59479999999999,105.537,108.85,114.764,119.5448,122.446,126.755,132.303,135.26,141.388,144.701,147.658,153.206,158.9828,161.925,166.234,169.191,174.841,180.755,183.712,189.86,194.372,199.453,205.367,208.68,211.637,217.2146,220.091" svgx:width="0.29,0.48,0.33,0.33,0.55,0.29,0.58,0.55,0.33,0.58,0.48,0.55,0.42,0.55,0.29,0.6,0.33,0.29,0.55,0.58,0.55,0.42,0.29,0.56,0.58,0.29,0.61,0.44,0.5,0.58,0.33,0.29,0.56,0.55,0.5" style="fill:rgb(0,0,0);font-family:URWPalladioL-Roma;font-size:9.96px;stroke:none;">left in the solution signiﬁcantly a</text>
   <text y="422.074" x="225.174" svgx:width="0.61" style="fill:rgb(0,0,0);font-family:Rpxr;font-size:9.96px;stroke:none;">ﬀ</text>
   <text y="422.074" x="231.352,236.22,240.731,244.044,248.2272,251.157,257.265,263.179,268.26,272.568,277.3488,280.241,283.553,287.567,292.648,298.562,302.871,306.255,311.803,315.817,324.79,329.871,333.184,336.141,341.689,347.604,351.7872,354.727,360.936,367.063,371.077,374.034,379.949,385.52660000000003,388.403,392.915,398.464,404.012,406.969,409.926,415.84,421.4176,424.295,429.376,433.5592,436.489,444.964,449.832,452.789,455.6774,458.561,463.642,467.8252,470.755,475.267,481.181,486.262,492.176,497.826,502.694,506.8772,509.807,515.355" svgx:width="0.48,0.44,0.33,0.42,0.55,0.6,0.58,0.5,0.42,0.48,0.55,0.33,0.4,0.5,0.58,0.42,0.33,0.55,0.4,0.88,0.5,0.33,0.29,0.55,0.58,0.42,0.55,0.61,0.6,0.4,0.29,0.58,0.56,0.55,0.44,0.55,0.55,0.29,0.29,0.58,0.56,0.55,0.5,0.42,0.55,0.83,0.48,0.29,0.29,0.55,0.5,0.42,0.55,0.44,0.58,0.5,0.58,0.56,0.48,0.42,0.55,0.55,0.33" style="fill:rgb(0,0,0);font-family:URWPalladioL-Roma;font-size:9.96px;stroke:none;">ects phase transformations during cooling as well as changes of</text>
   <text y="435.583" x="76.236,82.301,86.106,91.616,97.682,102.516,106.502,109.792,112.729,117.563,121.7462,124.335,127.696,133.206,136.143,139.08,144.59,153.007,155.943,161.817,167.3946,169.921,173.211,179.085,183.8658,186.402,192.275,197.109,202.155,205.4418,207.938,211.228,215.033,219.867,224.913,228.203,237.114,241.948,247.822,251.1088,253.605" svgx:width="0.6,0.4,0.55,0.6,0.48,0.4,0.33,0.29,0.48,0.42,0.55,0.33,0.55,0.29,0.29,0.55,0.83,0.29,0.58,0.56,0.55,0.33,0.58,0.48,0.55,0.58,0.48,0.5,0.33,0.55,0.33,0.4,0.48,0.5,0.33,0.88,0.48,0.58,0.33,0.55,0.33" style="fill:rgb(0,0,0);font-family:URWPalladioL-Roma;font-size:9.96px;stroke:none;">properties following the heat treatment [</text>
   <text y="435.583" x="256.966,261.947" svgx:width="0.5,0.5" style="fill:rgb(8,117,183);font-family:URWPalladioL-Roma;font-size:9.96px;stroke:none;">23</text>
   <text y="435.583" x="266.928" svgx:width="0.5" style="fill:rgb(0,0,0);font-family:URWPalladioL-Roma;font-size:9.96px;stroke:none;">–</text>
   <text y="435.583" x="271.975,276.956" svgx:width="0.5,0.5" style="fill:rgb(8,117,183);font-family:URWPalladioL-Roma;font-size:9.96px;stroke:none;">31</text>
   <text y="435.583" x="281.937,285.298,287.788,291.313,297.489,303.363,306.299,310.578,313.068,315.594,318.531,324.3078,326.897,330.187,336.273,340.259,346.133,348.623,351.149,354.953,359.788,364.067,370.152,373.089,376.379,380.5622,383.151,386.088,391.8648,394.444,399.49,405.2668,407.856,410.793,416.667,421.148,424.952,429.786,434.832,439.112,443.8928,446.438,449.375,455.1518,457.742,461.032,466.905,471.6858,474.222,478.703,484.213,490.087,493.377,498.211,504.085,507.3718,509.867,515.378" svgx:width="0.33,0.25,0.55,0.61,0.58,0.29,0.42,0.25,0.55,0.29,0.58,0.55,0.33,0.6,0.4,0.58,0.25,0.55,0.4,0.48,0.42,0.6,0.29,0.33,0.42,0.55,0.29,0.58,0.55,0.5,0.58,0.55,0.29,0.58,0.44,0.4,0.48,0.5,0.42,0.48,0.55,0.29,0.58,0.55,0.33,0.58,0.48,0.55,0.44,0.55,0.58,0.33,0.48,0.58,0.33,0.55,0.55,0.33" style="fill:rgb(0,0,0);font-family:URWPalladioL-Roma;font-size:9.96px;stroke:none;">]. This, in turn, results in an increase in the content of</text>
   <text y="449.093" x="76.535,79.848,85.762,90.5428,93.231,99.338,103.179,108.728,114.937,121.054,125.566,128.879,133.0622,135.799,141.347,144.6338,147.333,150.645,156.56,161.3408,164.029,170.237" svgx:width="0.33,0.58,0.48,0.55,0.6,0.4,0.55,0.61,0.6,0.44,0.33,0.42,0.55,0.55,0.33,0.55,0.33,0.58,0.48,0.55,0.61,0.29" style="fill:rgb(0,0,0);font-family:URWPalladioL-Roma;font-size:9.96px;stroke:none;">the products of the di</text>
   <text y="449.093" x="173.194" svgx:width="0.61" style="fill:rgb(0,0,0);font-family:Rpxr;font-size:9.96px;stroke:none;">ﬀ</text>
   <text y="449.093" x="179.372,185.5,189.808,192.765,198.314,204.228,207.185,212.052,216.361,220.5442,223.271,228.352,234.266,240.3416,243.077,246.034,251.948,255.261,260.128,264.142,273.115,277.983,284.191,287.149,292.229,295.542,300.3228,303.011,306.395,312.015,317.096,320.053,325.967,328.924,332.237,335.194,339.706,342.99280000000005,345.691,349.004,353.018,358.099,364.013,368.322,371.705,377.254,381.268,390.241,395.322,398.634,401.591,407.14,413.054,415.544,419.425,424.73,430.208,432.89,437.87,440.572,444.881,447.838,453.488,459.402,462.359,468.507,473.019,478.1,484.014,487.30080000000004,489.928,494.796,500.039,503.352,508.22,514.134,517.447" svgx:width="0.6,0.42,0.29,0.55,0.58,0.29,0.48,0.42,0.42,0.55,0.5,0.58,0.61,0.55,0.29,0.58,0.33,0.48,0.4,0.88,0.48,0.61,0.29,0.5,0.33,0.48,0.55,0.33,0.55,0.5,0.29,0.58,0.29,0.33,0.29,0.44,0.33,0.55,0.33,0.4,0.5,0.58,0.42,0.33,0.55,0.4,0.88,0.5,0.33,0.29,0.55,0.58,0.25,0.55,0.61,0.55,0.55,0.5,0.55,0.42,0.29,0.56,0.58,0.29,0.61,0.44,0.5,0.58,0.33,0.55,0.48,0.52,0.33,0.48,0.58,0.33,0.25" style="fill:rgb(0,0,0);font-family:URWPalladioL-Roma;font-size:9.96px;stroke:none;">usionless and intermediate (bainitic) transformation. To a signiﬁcant extent,</text>
   <text y="462.602" x="76.535,79.815,85.672,90.4528,92.977,99.024,102.818,107.637,113.323,116.251,121.745,127.812,132.078,135.007,140.5846,143.077,151.961,156.781,162.637,165.918,168.846,174.34,180.196,185.016,191.0916,193.649,197.916,201.196,205.09,211.158,215.625,218.905,224.973,228.766,233.586,237.7692,240.328,245.359,249.163,253.9438,256.458,260.251,265.071,269.337,275.385,280.879,286.735,291.001,293.929,299.494,302.422,307.2028,309.727,313.078,318.572,322.556,325.022,328.302,334.158,338.9388,341.463,345.257,350.077,356.225,362.292,366.76,370.04,372.968,378.462,384.23879999999997,386.804,392.298,395.58480000000003,398.124,401.404,406.898,412.965,418.56,424.416,430.272,435.092,439.359,443.625,446.115,449.622,453.013,458.78979999999996,461.355,465.822,470.853,475.12,479.94,484.1232,486.681,492.175,495.46180000000004,498.011,504.059,510.126,513.92" svgx:width="0.33,0.58,0.48,0.55,0.6,0.4,0.48,0.56,0.29,0.55,0.6,0.42,0.29,0.56,0.55,0.88,0.48,0.58,0.33,0.29,0.55,0.58,0.48,0.61,0.55,0.42,0.33,0.4,0.6,0.44,0.33,0.6,0.4,0.48,0.42,0.55,0.5,0.4,0.48,0.55,0.4,0.48,0.42,0.6,0.55,0.58,0.42,0.29,0.55,0.29,0.48,0.55,0.33,0.55,0.4,0.55,0.33,0.58,0.48,0.55,0.4,0.48,0.61,0.6,0.44,0.33,0.29,0.55,0.58,0.55,0.55,0.33,0.55,0.33,0.55,0.6,0.56,0.58,0.58,0.48,0.42,0.42,0.25,0.55,0.34,0.58,0.55,0.44,0.5,0.42,0.48,0.42,0.55,0.55,0.33,0.55,0.6,0.6,0.4,0.48" style="fill:rgb(0,0,0);font-family:URWPalladioL-Roma;font-size:9.96px;stroke:none;">the previously mentioned structures are responsible for the reduction of toughness. In cases of pure</text>
   <text y="476.112" x="76.535,81.047,86.961,91.829,100.802,103.759,108.27,113.351,116.2394,119.255,124.123,127.08,131.948,140.921,145.788,151.702,155.015,159.324,161.81400000000002,164.923,168.236,174.15,178.9308,181.964,186.273,189.586,194.667,200.286,203.243,206.2,209.157,212.47,218.0476,221.067,226.615,229.9018,232.946,239.053,244.968,250.049,254.357,259.225,263.4082,266.48,270.311,275.179,279.487,285.595,291.143,297.057,301.366,304.323,309.943,312.9,317.6808,320.714,324.098,329.646,333.63,336.607,342.521,347.602,351.433,357.642,362.51,368.424,371.381,377.295,382.87260000000003,385.892,390.404,395.485,401.2618,404.346,409.966,414.7468,417.78,423.887,427.718,432.586,436.894,441.762,447.676,450.989,455.856,461.9316,465.012,470.561,476.33779999999996,479.422,482.735,488.649,493.4298,496.463,502.083,507.164,511.472,514.429" svgx:width="0.44,0.58,0.48,0.88,0.29,0.44,0.5,0.29,0.55,0.48,0.29,0.48,0.88,0.48,0.58,0.33,0.42,0.25,0.55,0.33,0.58,0.48,0.55,0.42,0.33,0.5,0.55,0.29,0.29,0.29,0.33,0.56,0.55,0.55,0.33,0.55,0.6,0.58,0.5,0.42,0.48,0.42,0.55,0.4,0.48,0.42,0.6,0.55,0.58,0.42,0.29,0.55,0.29,0.48,0.55,0.33,0.55,0.4,0.55,0.58,0.5,0.4,0.61,0.48,0.58,0.29,0.58,0.56,0.55,0.44,0.5,0.58,0.55,0.55,0.48,0.55,0.6,0.4,0.48,0.42,0.48,0.58,0.33,0.48,0.61,0.55,0.55,0.58,0.55,0.33,0.58,0.48,0.55,0.55,0.5,0.42,0.29,0.42" style="fill:rgb(0,0,0);font-family:URWPalladioL-Roma;font-size:9.96px;stroke:none;">chemical elements, the stability of phases responsible for hardening can be presented on the basis</text>
   <text y="489.621" x="76.535,82.083,85.3698,88.252,96.005,98.962,104.582,110.201,114.51,117.894,121.278,125.119,129.986,134.7668,137.638,142.506,148.42,151.733,157.647,162.728,165.685,171.792,177.3696,180.227" svgx:width="0.55,0.33,0.55,0.76,0.29,0.55,0.55,0.42,0.33,0.33,0.4,0.48,0.48,0.55,0.48,0.58,0.33,0.58,0.5,0.29,0.6,0.56,0.55,0.33" style="fill:rgb(0,0,0);font-family:URWPalladioL-Roma;font-size:9.96px;stroke:none;">of Gibbs-free enthalpy [</text>
   <text y="489.621" x="183.611,188.592" svgx:width="0.5,0.5" style="fill:rgb(8,117,183);font-family:URWPalladioL-Roma;font-size:9.96px;stroke:none;">32</text>
   <text y="489.621" x="193.573,196.8598,199.741,203.125,208.775,211.732,217.382,223.51,227.351" svgx:width="0.33,0.55,0.33,0.56,0.29,0.56,0.6,0.4,0.48" style="fill:rgb(0,0,0);font-family:URWPalladioL-Roma;font-size:9.96px;stroke:none;">] (Figure</text>
   <text y="489.621" x="235.003" svgx:width="0.5" style="fill:rgb(8,117,183);font-family:URWPalladioL-Roma;font-size:9.96px;stroke:none;">1</text>
   <text y="489.621" x="240.084,243.468,245.958,250.378,256.607,262.521,267.3018,270.183,275.264,281.178,286.259,289.216,294.866,299.175,302.132,306.3152,309.225,314.773,318.05980000000005,320.942,324.254,330.169,334.9498,337.82,342.129,345.442,350.523,356.142,359.099,362.056,365.014,368.326,373.90360000000004,376.771,382.319,385.60580000000004,388.487,394.402,399.483,403.314,409.522,414.39,420.304,423.261,429.175,434.75260000000003,437.61,443.717,449.631,454.712,459.021,463.888,468.0712,470.991,477.2,483.328,487.342,490.299,496.213,501.79060000000004,504.647,507.96,513.874" svgx:width="0.33,0.25,0.55,0.61,0.58,0.48,0.55,0.5,0.58,0.5,0.29,0.56,0.42,0.29,0.42,0.55,0.55,0.33,0.55,0.33,0.58,0.48,0.55,0.42,0.33,0.5,0.55,0.29,0.29,0.29,0.33,0.56,0.55,0.55,0.33,0.55,0.58,0.5,0.4,0.61,0.48,0.58,0.29,0.58,0.56,0.55,0.6,0.58,0.5,0.42,0.48,0.42,0.55,0.61,0.6,0.4,0.29,0.58,0.56,0.55,0.33,0.58,0.48" style="fill:rgb(0,0,0);font-family:URWPalladioL-Roma;font-size:9.96px;stroke:none;">). The analysis of the stability of hardening phases during the</text>
   <text y="503.13" x="76.236,82.176,85.901,91.298,97.336,103.295,107.683,110.905,113.781,119.177,124.9538,127.429,132.825,136.1118,138.617,142.807,146.029,150.763,155.497,158.3854,160.873,163.749,167.9322,170.44,173.316,182.042,187.982,192.716,198.754,203.488,209.5636,212.027,216.217,219.083,224.835,229.223,234.0038,236.458,239.679,245.431,250.2118,252.665,257.607,263.072,268.468,274.052,278.786,282.077,287.829,292.77,301.497,306.231,312.3066,314.77,320.709,326.461,331.403,335.593,340.327,344.5102,347.017,351.959,355.685,360.4658,362.919,367.307,372.703,381.43,387.369,392.765,396.956,401.69,407.7656,410.228,415.625,418.9118,421.416,425.804,431.2,436.952,441.142,444.364,447.24,450.462,456.421,461.155,466.907,470.129,474.3122,476.819,482.858,485.734,489.924,494.115,499.511,502.386,507.97,512.704" svgx:width="0.6,0.4,0.55,0.61,0.6,0.44,0.33,0.29,0.55,0.58,0.55,0.55,0.33,0.55,0.42,0.33,0.48,0.48,0.29,0.55,0.29,0.42,0.55,0.29,0.88,0.6,0.48,0.61,0.48,0.61,0.55,0.42,0.29,0.58,0.44,0.48,0.55,0.33,0.58,0.48,0.55,0.5,0.55,0.55,0.56,0.48,0.33,0.58,0.5,0.88,0.48,0.61,0.55,0.6,0.58,0.5,0.42,0.48,0.42,0.55,0.5,0.4,0.48,0.55,0.44,0.55,0.88,0.6,0.55,0.42,0.48,0.61,0.55,0.55,0.33,0.55,0.44,0.55,0.58,0.42,0.33,0.29,0.33,0.6,0.48,0.58,0.33,0.42,0.55,0.61,0.29,0.42,0.42,0.55,0.29,0.56,0.48,0.61" style="fill:rgb(0,0,0);font-family:URWPalladioL-Roma;font-size:9.96px;stroke:none;">production of steel is impeded since the above-named phases are composed of constituents dissolved</text>
   <text y="516.64" x="76.535,79.44,85.21679999999999,87.735,90.99,96.8,101.5808,104.077,108.309,113.76,116.665,122.684,125.939,128.843,134.294,140.104,142.59400000000002,146.083,153.81,159.829,163.772,166.677,172.487,178.06459999999998,180.523,188.848,193.63,196.535,202.634,205.539,211.349,216.899,219.389,221.891,225.145,230.955,235.7358,238.222,242.455,248.264,253.715,257.658,260.94480000000004,263.408,266.662,269.567,278.382,283.1628,285.649,291.099,294.3858,296.909,302.719,307.501,312.492,315.746,318.651,324.461,330.011,332.50100000000003,335.003,338.257,344.067,348.8478,351.334,355.566,358.471,363.463,368.2438,370.74,376.19,379.4768,382.0,385.255,391.064,395.8448,398.332,401.237,404.141,409.732,415.751,418.656,424.7316,427.251,436.066,440.847,444.102,449.093,451.9814,454.483,460.483,465.933,471.384,474.289,476.779,479.28,484.271,490.081,496.1566,498.666,504.476,507.381,512.931" svgx:width="0.29,0.58,0.55,0.33,0.58,0.48,0.55,0.42,0.55,0.29,0.6,0.33,0.29,0.55,0.58,0.25,0.55,0.77,0.6,0.4,0.29,0.58,0.56,0.55,0.83,0.48,0.29,0.61,0.29,0.58,0.56,0.25,0.55,0.33,0.58,0.48,0.55,0.42,0.58,0.55,0.4,0.33,0.55,0.33,0.29,0.88,0.48,0.55,0.55,0.33,0.55,0.58,0.48,0.5,0.33,0.29,0.58,0.56,0.25,0.55,0.33,0.58,0.48,0.55,0.42,0.29,0.5,0.48,0.55,0.55,0.33,0.55,0.33,0.58,0.48,0.55,0.29,0.29,0.56,0.6,0.29,0.61,0.55,0.88,0.48,0.33,0.5,0.29,0.55,0.6,0.55,0.55,0.29,0.25,0.55,0.5,0.58,0.61,0.55,0.58,0.29,0.56,0.58" style="fill:rgb(0,0,0);font-family:URWPalladioL-Roma;font-size:9.96px;stroke:none;">in the solution. During welding, the short time of heating, the size of the liquid metal pool, and high</text>
   <text y="530.149" x="76.535,81.034,86.566,92.098,95.046,97.994,103.891,109.46860000000001,112.017,116.019,121.085,124.388,129.241,133.4242,136.03,138.978,147.925,154.014,158.867,165.058,169.8388,172.414,175.717,181.614,186.3948,188.959,194.025,199.922,204.988,207.936,213.57,217.866,220.814,224.9972,227.603,233.135,236.4218,239.001,245.192,250.045,254.543,260.076,269.022,275.111,280.643,284.939,287.888,291.191,294.139,299.671,305.4478,308.06,314.15,317.98,323.512,328.01,332.864,337.16,341.455,346.309,350.4922,353.097,358.163,364.06,370.1356,372.743,376.046,381.943,386.7238,389.288,393.118,397.972,401.345,407.435,411.255,416.108,420.606,423.555,429.644,432.592,435.896,440.961,444.264,447.213,452.745,458.5218,461.134,466.666,469.9528,472.533,478.429,483.495,487.325,493.516,498.369,504.266,507.214,513.111" svgx:width="0.44,0.55,0.55,0.29,0.29,0.58,0.56,0.55,0.4,0.5,0.33,0.48,0.42,0.55,0.29,0.88,0.6,0.48,0.61,0.48,0.55,0.33,0.58,0.48,0.55,0.5,0.58,0.5,0.29,0.56,0.42,0.29,0.42,0.55,0.55,0.33,0.55,0.61,0.48,0.44,0.55,0.88,0.6,0.55,0.42,0.29,0.33,0.29,0.55,0.58,0.55,0.6,0.4,0.55,0.44,0.48,0.42,0.42,0.48,0.42,0.55,0.5,0.58,0.61,0.55,0.33,0.58,0.48,0.55,0.4,0.48,0.33,0.6,0.4,0.48,0.44,0.29,0.6,0.29,0.33,0.5,0.33,0.29,0.55,0.58,0.55,0.55,0.33,0.55,0.58,0.5,0.4,0.61,0.48,0.58,0.29,0.58,0.56" style="fill:rgb(0,0,0);font-family:URWPalladioL-Roma;font-size:9.96px;stroke:none;">cooling rates impede the analysis of decomposition processes and the re-precipitation of hardening</text>
   <text y="543.658" x="76.236,82.224,88.022,93.003,97.227,101.999,106.1822,108.714,111.613,117.3898,119.902,123.15,128.948,133.7288,136.211,144.52,149.292,152.191,158.2666,160.769,165.75,171.548,177.6236,180.126,183.025,188.80180000000001,191.314,194.562,200.36,205.1408,207.623,215.912,223.663,230.33620000000002,232.798,236.116,244.405,249.177,254.158,257.4448,259.896" svgx:width="0.6,0.58,0.5,0.42,0.48,0.42,0.55,0.29,0.58,0.55,0.33,0.58,0.48,0.55,0.83,0.48,0.29,0.61,0.55,0.5,0.58,0.61,0.55,0.29,0.58,0.55,0.33,0.58,0.48,0.55,0.83,0.78,0.67,0.55,0.33,0.83,0.48,0.5,0.33,0.55,0.78" style="fill:rgb(0,0,0);font-family:URWPalladioL-Roma;font-size:9.96px;stroke:none;">phases in the weld and in the HAZ (Heat A</text>
   <text y="543.658" x="267.647" svgx:width="0.61" style="fill:rgb(0,0,0);font-family:Rpxr;font-size:9.96px;stroke:none;">ﬀ</text>
   <text y="543.658" x="273.704,278.476,282.9,286.147,290.919,294.2058,296.658,303.303,308.742,314.541,319.313,322.5998,325.121,330.102,333.858,338.63,343.612" svgx:width="0.48,0.44,0.33,0.48,0.33,0.55,0.67,0.55,0.58,0.48,0.33,0.55,0.5,0.4,0.48,0.5,0.25" style="fill:rgb(0,0,0);font-family:URWPalladioL-Roma;font-size:9.96px;stroke:none;">ectet Zone) area.</text>
  </g>
 </g>
</svg>
