<?xml version="1.0" encoding="UTF-8"?>
<svg height="761.395" width="2587.56" xmlns="http://www.w3.org/2000/svg">
 <g id="page" xmlns:svgx="http://www.xml-cml.org/schema/svgx">
  <g begin="text">
   <text y="62.979" x="76.535,84.059,87.598,90.252,93.352,96.452,98.668,102.207,104.422" svgx:width="0.94,0.44,0.33,0.39,0.39,0.28,0.44,0.28,0.39" style="fill:rgb(0,0,0);font-family:URWPalladioL-Ital;font-size:7.97px;stroke:none;">Materials</text>
   <text y="62.979" x="109.515,113.5,117.485,121.47" svgx:width="0.5,0.5,0.5,0.5" style="fill:rgb(0,0,0);font-family:URWPalladioL-Bold;font-size:7.97px;stroke:none;">2020</text>
   <text y="62.979" x="125.455" svgx:width="0.25" style="fill:rgb(0,0,0);font-family:URWPalladioL-Roma;font-size:7.97px;stroke:none;">,</text>
   <text y="62.979" x="129.44,133.425" svgx:width="0.5,0.5" style="fill:rgb(0,0,0);font-family:URWPalladioL-Ital;font-size:7.97px;stroke:none;">13</text>
   <text y="62.979" x="137.41,139.4025,141.395,145.38,149.365,153.35,157.335,491.809,495.794,499.779,501.772,506.123,508.7531,510.77,514.755" svgx:width="0.25,0.55,0.5,0.5,0.5,0.5,0.55,0.5,0.5,0.55,0.55,0.33,0.55,0.5,0.5" style="fill:rgb(0,0,0);font-family:URWPalladioL-Roma;font-size:7.97px;stroke:none;">, 1312 20 of 20</text>
   <text y="97.848" x="76.535,81.018,85.501,98.05,103.55,108.052,110.158,113.282,112.778,116.775,121.267,128.748,130.998,135.499,140.226,142.845,144.952,149.957,149.453,153.45,158.455,161.075,164.073,170.077,174.389,177.945,182.446,188.028,187.533,191.53,194.644,194.149,198.146,202.638,207.977,210.227,214.728,220.742,225.243,230.248,232.868,238.107,242.599,251.116,253.366,257.867,264.403,269.318,274.404,279.401,278.905,282.902,287.215,292.301,295.416,294.92,298.917,303.41,309.945,314.437" svgx:width="0.5,0.5,0.25,0.61,0.5,0.23,0.29,0.33,0.44,0.25,0.83,0.25,0.25,0.52,0.29,0.23,0.5,0.33,0.44,0.56,0.29,0.33,0.67,0.48,0.4,0.5,0.56,0.33,0.44,0.29,0.33,0.44,0.25,0.72,0.25,0.25,0.67,0.5,0.56,0.29,0.58,0.25,0.95,0.25,0.25,0.73,0.55,0.56,0.5,0.33,0.44,0.48,0.56,0.29,0.33,0.44,0.25,0.73,0.25,0.61" style="fill:rgb(0,0,0);font-family:URWPalladioL-Roma;font-size:8.97px;stroke:none;">19.Baji´c,N.;Šijaˇcki-Žeravˇci´c,V.;Rakin,M.;Kovaˇcevi´c,K.E</text>
   <text y="97.848" x="319.939" svgx:width="0.61" style="fill:rgb(0,0,0);font-family:Rpxr;font-size:8.97px;stroke:none;">ﬀ</text>
   <text y="97.848" x="325.413,329.725,333.722,336.6821,338.898,343.814,346.77410000000003,349.062,351.997,357.236,361.5416,363.79,371.298,375.61,378.229,383.73,386.349,391.589,396.6122,398.836,406.785,411.7,417.2,421.5056,423.754,428.255,433.494,438.9657,441.245,446.692,449.311,451.931,456.243,459.831,462.04,466.037,470.953,476.192,479.127,483.439,488.678,491.6381,493.854,498.77,503.9726,506.251,509.185,514.425" svgx:width="0.48,0.44,0.33,0.55,0.55,0.33,0.55,0.33,0.58,0.48,0.55,0.83,0.48,0.29,0.61,0.29,0.58,0.56,0.55,0.88,0.55,0.61,0.48,0.55,0.5,0.58,0.61,0.55,0.61,0.29,0.29,0.48,0.4,0.55,0.44,0.55,0.58,0.33,0.48,0.58,0.33,0.55,0.55,0.58,0.55,0.33,0.58,0.48" style="fill:rgb(0,0,0);font-family:URWPalladioL-Roma;font-size:8.97px;stroke:none;">ect of the welding mode and ﬁller content on the</text>
   <text y="110.76" x="98.05,101.852,104.775,108.245,113.652,117.633,120.556,125.962,129.343,133.6486,135.879,140.775,143.73510000000002,146.002,153.92,156.529,160.51,163.89,168.786,173.269,175.878,178.488,183.383,188.369,192.663,198.1347,200.384,207.835" svgx:width="0.42,0.33,0.4,0.6,0.44,0.33,0.6,0.4,0.48,0.55,0.55,0.33,0.55,0.88,0.29,0.44,0.4,0.55,0.5,0.29,0.29,0.55,0.56,0.48,0.61,0.55,0.83,0.55" style="fill:rgb(0,0,0);font-family:URWPalladioL-Roma;font-size:8.97px;stroke:none;">structure of microalloyed Nb</text>
   <text y="110.76" x="212.792" svgx:width="0.29" style="fill:rgb(0,0,0);font-family:Rpxr;font-size:8.97px;stroke:none;">/</text>
   <text y="110.76" x="215.365,220.368,222.9693,225.219,229.021,231.944,236.239,240.534,243.1353,245.384,252.862,257.157,259.767,265.245,273.162,277.457,282.676,285.599,289.401" svgx:width="0.61,0.29,0.55,0.42,0.33,0.48,0.48,0.29,0.55,0.83,0.48,0.29,0.61,0.88,0.48,0.58,0.33,0.42,0.25" style="fill:rgb(0,0,0);font-family:URWPalladioL-Roma;font-size:8.97px;stroke:none;">Ti steel weldments.</text>
   <text y="110.76" x="294.779,303.243,307.224,310.21,313.698,316.522,318.7645,321.902,326.888,330.537,333.03" svgx:width="0.94,0.44,0.33,0.39,0.39,0.25,0.55,0.56,0.41,0.28,0.25" style="fill:rgb(0,0,0);font-family:URWPalladioL-Ital;font-size:8.97px;stroke:none;">Mater. Sci.</text>
   <text y="110.76" x="338.409,342.892,347.375,351.859" svgx:width="0.5,0.5,0.5,0.5" style="fill:rgb(0,0,0);font-family:URWPalladioL-Bold;font-size:8.97px;stroke:none;">2010</text>
   <text y="110.76" x="356.342" svgx:width="0.25" style="fill:rgb(0,0,0);font-family:URWPalladioL-Roma;font-size:8.97px;stroke:none;">,</text>
   <text y="110.76" x="360.825,365.308" svgx:width="0.5,0.5" style="fill:rgb(0,0,0);font-family:URWPalladioL-Ital;font-size:8.97px;stroke:none;">46</text>
   <text y="110.76" x="369.791,372.0335,374.274,378.757,383.241,387.724,392.207,396.69,401.174,405.657,407.8995,411.037" svgx:width="0.25,0.55,0.5,0.5,0.5,0.5,0.5,0.5,0.5,0.25,0.55,0.33" style="fill:rgb(0,0,0);font-family:URWPalladioL-Roma;font-size:8.97px;stroke:none;">, 124–133. [</text>
   <text y="110.76" x="414.022,420.38,423.76,428.656,432.457,436.259,442.249,446.544" svgx:width="0.71,0.4,0.55,0.42,0.42,0.67,0.48,0.33" style="fill:rgb(8,117,183);font-family:URWPalladioL-Roma;font-size:8.97px;stroke:none;">CrossRef</text>
   <text y="110.76" x="449.529" svgx:width="0.33" style="fill:rgb(0,0,0);font-family:URWPalladioL-Roma;font-size:8.97px;stroke:none;">]</text>
   <text y="123.672" x="76.535,81.018,85.501,98.05,106.464,109.055,114.237,118.19,122.642,126.907,131.857,136.336,139.301,141.526,146.014,154.437,159.298,164.738,168.255,172.707,177.657,181.611,186.561,191.013,195.491,202.418,204.644,209.132,215.925,220.377,227.803,231.159,237.143,236.021,241.203,244.978,249.928,254.38,258.859,264.299,268.786,275.713,280.895,285.347,287.938,292.888,295.791,298.382,302.335,306.787,311.63,317.071,321.335,325.111,329.064,332.581,335.172,340.523,343.425,346.016,350.878,358.312,363.174,368.391,371.294,376.476,383.002,385.905,390.169,398.031,403.382,407.647,411.164,415.616,418.519,423.888,427.235,433.762,439.148,443.413,446.004,453.697,456.288,461.47,466.91,472.279,476.232,480.497,488.19,493.113,500.316,502.907,507.359,511.134,515.399" svgx:width="0.5,0.5,0.25,1.0,0.29,0.58,0.44,0.5,0.48,0.56,0.25,0.33,0.25,0.25,0.95,0.55,0.61,0.4,0.5,0.56,0.44,0.56,0.5,0.25,0.78,0.25,0.25,0.76,0.5,0.83,0.4,0.55,0.33,0.58,0.42,0.56,0.5,0.25,0.61,0.25,0.78,0.58,0.5,0.29,0.56,0.33,0.29,0.44,0.5,0.29,0.61,0.48,0.42,0.44,0.4,0.29,0.6,0.33,0.29,0.55,0.58,0.55,0.33,0.33,0.58,0.48,0.33,0.48,0.88,0.6,0.48,0.4,0.5,0.33,0.6,0.4,0.48,0.61,0.48,0.29,0.61,0.29,0.58,0.61,0.6,0.44,0.48,0.61,0.55,0.56,0.29,0.5,0.42,0.48,0.4" style="fill:rgb(0,0,0);font-family:URWPalladioL-Roma;font-size:8.97px;stroke:none;">20.Winczek,J.;Modrzycka,A.;Gawro´nska,E.Analyticaldescriptionofthetemperatureﬁeldinducedbylaser</text>
   <text y="136.583" x="98.05,103.268,107.563,112.047,115.0071,117.211,121.013,125.909,131.315,134.696,138.677,142.9826,145.213,152.691,155.3,158.224,163.42659999999998,165.684,170.167,175.385,180.4082,182.612,185.535,189.077,193.56,195.658,199.953,203.934,206.857,211.753,215.295,219.285" svgx:width="0.58,0.48,0.5,0.33,0.55,0.42,0.55,0.6,0.4,0.44,0.48,0.55,0.83,0.29,0.33,0.58,0.55,0.5,0.58,0.56,0.55,0.33,0.4,0.5,0.23,0.48,0.44,0.33,0.55,0.4,0.56,0.25" style="fill:rgb(0,0,0);font-family:URWPalladioL-Roma;font-size:8.97px;stroke:none;">heat source with any trajectory.</text>
   <text y="136.583" x="224.663,230.141,233.468,237.449,241.098,244.586,249.07,251.562,255.5088,257.785,263.263,268.249,272.732" svgx:width="0.61,0.39,0.44,0.41,0.39,0.5,0.28,0.44,0.55,0.61,0.56,0.5,0.25" style="fill:rgb(0,0,0);font-family:URWPalladioL-Ital;font-size:8.97px;stroke:none;">Procedia Eng.</text>
   <text y="136.583" x="278.111,282.594,287.077,291.561" svgx:width="0.5,0.5,0.5,0.5" style="fill:rgb(0,0,0);font-family:URWPalladioL-Bold;font-size:8.97px;stroke:none;">2016</text>
   <text y="136.583" x="296.044" svgx:width="0.25" style="fill:rgb(0,0,0);font-family:URWPalladioL-Roma;font-size:8.97px;stroke:none;">,</text>
   <text y="136.583" x="300.527,305.01,309.493" svgx:width="0.5,0.5,0.5" style="fill:rgb(0,0,0);font-family:URWPalladioL-Ital;font-size:8.97px;stroke:none;">149</text>
   <text y="136.583" x="313.977,316.2195,318.46,322.943,327.427,331.91,336.393,340.876,345.359,349.843,352.0855,355.223" svgx:width="0.25,0.55,0.5,0.5,0.5,0.5,0.5,0.5,0.5,0.25,0.55,0.33" style="fill:rgb(0,0,0);font-family:URWPalladioL-Roma;font-size:8.97px;stroke:none;">, 553–558. [</text>
   <text y="136.583" x="358.208,364.566,367.946,372.842,376.643,380.445,386.435,390.729" svgx:width="0.71,0.4,0.55,0.42,0.42,0.67,0.48,0.33" style="fill:rgb(8,117,183);font-family:URWPalladioL-Roma;font-size:8.97px;stroke:none;">CrossRef</text>
   <text y="136.583" x="393.715" svgx:width="0.33" style="fill:rgb(0,0,0);font-family:URWPalladioL-Roma;font-size:8.97px;stroke:none;">]</text>
   <text y="149.495" x="76.535,81.018,85.501,87.74350000000001,98.05,104.644,107.287,112.338,114.5805,116.852,121.757,124.027,126.26950000000001,128.551" svgx:width="0.5,0.5,0.25,0.55,0.73,0.29,0.56,0.25,0.55,0.61,0.25,0.25,0.55,0.76" style="fill:rgb(0,0,0);font-family:URWPalladioL-Roma;font-size:8.97px;stroke:none;">21. Kik, T.; G</text>
   <text y="149.495" x="135.482" svgx:width="0.55" style="fill:rgb(0,0,0);font-family:VnURWPalladioL;font-size:8.97px;stroke:none;">ó</text>
   <text y="149.495" x="140.378,143.966,149.016,153.557,155.7995,158.072,161.096,163.3385,165.62,173.167,178.645,186.665,191.016,194.603,197.246,201.279,205.821,208.4223,210.707,215.476,218.119,226.139,231.616,234.26,238.801,241.762,244.405,249.364,254.651,258.4184,260.755,265.714,268.6741,270.982,276.532,281.073,284.924,289.275,292.863,295.106,299.648,304.934,310.4057,312.736,320.293,325.343,330.366,333.954,336.597,342.0687,344.39,349.159,353.7,358.242,362.783,371.376,377.74469999999997,380.068,385.137,388.161,391.186,396.145,398.788,404.074,407.0341,409.288,417.545,421.895,424.538,430.088,432.731,438.018,443.068" svgx:width="0.4,0.56,0.5,0.25,0.55,0.33,0.25,0.55,0.83,0.6,0.88,0.48,0.4,0.29,0.44,0.5,0.29,0.55,0.52,0.29,0.88,0.6,0.29,0.5,0.33,0.29,0.55,0.58,0.42,0.55,0.55,0.33,0.55,0.61,0.5,0.42,0.48,0.4,0.55,0.5,0.58,0.61,0.55,0.83,0.56,0.55,0.4,0.29,0.61,0.55,0.52,0.5,0.5,0.5,0.95,0.71,0.55,0.61,0.33,0.33,0.55,0.29,0.58,0.33,0.55,1.0,0.48,0.29,0.61,0.29,0.58,0.56,0.25" style="fill:rgb(0,0,0);font-family:URWPalladioL-Roma;font-size:8.97px;stroke:none;">rka, J. Numerical Simulations of Laser and Hybrid S700MC T-Joint Welding.</text>
   <text y="149.495" x="448.494,457.068,461.101,464.126,467.659,471.192,473.717,477.75,480.275" svgx:width="0.94,0.44,0.33,0.39,0.39,0.28,0.44,0.28,0.39" style="fill:rgb(0,0,0);font-family:URWPalladioL-Ital;font-size:8.97px;stroke:none;">Materials</text>
   <text y="149.495" x="486.055,490.538,495.021,499.505" svgx:width="0.5,0.5,0.5,0.5" style="fill:rgb(0,0,0);font-family:URWPalladioL-Bold;font-size:8.97px;stroke:none;">2019</text>
   <text y="149.495" x="503.988" svgx:width="0.25" style="fill:rgb(0,0,0);font-family:URWPalladioL-Roma;font-size:8.97px;stroke:none;">,</text>
   <text y="149.495" x="508.507,513.048" svgx:width="0.5,0.5" style="fill:rgb(0,0,0);font-family:URWPalladioL-Ital;font-size:8.97px;stroke:none;">12</text>
   <text y="149.495" x="517.59" svgx:width="0.25" style="fill:rgb(0,0,0);font-family:URWPalladioL-Roma;font-size:8.97px;stroke:none;">,</text>
   <text y="162.406" x="98.05,102.533,107.016,111.5,113.7425,116.879" svgx:width="0.5,0.5,0.5,0.25,0.55,0.33" style="fill:rgb(0,0,0);font-family:URWPalladioL-Roma;font-size:8.97px;stroke:none;">516. [</text>
   <text y="162.406" x="119.865,126.222,129.603,134.498,138.3,142.102,148.091,152.386" svgx:width="0.71,0.4,0.55,0.42,0.42,0.67,0.48,0.33" style="fill:rgb(8,117,183);font-family:URWPalladioL-Roma;font-size:8.97px;stroke:none;">CrossRef</text>
   <text y="162.406" x="155.372" svgx:width="0.33" style="fill:rgb(0,0,0);font-family:URWPalladioL-Roma;font-size:8.97px;stroke:none;">]</text>
   <text y="175.318" x="76.535,81.018,85.501,98.05,102.663,107.549,112.347,119.675,122.988,128.901,127.785,132.9,136.625,141.511,145.904,150.043,155.412,157.609,161.844,166.457,170.851,176.149,178.707,182.608,186.747,189.673,191.87,196.105,202.335,207.449,215.208,217.765,221.974,224.531,228.74,236.069,239.794,244.68,247.237,251.376,256.094,258.291,262.535,267.148,271.542,274.099,278.493,282.394,286.067,284.951,290.065,293.791,298.676,301.233,305.372,310.091,312.288,316.523,321.136,328.465,331.022,335.231,338.543,342.445,346.838,350.977,356.847,360.986,366.293,369.606,374.403,379.685,383.894,387.356,390.22,392.777,396.986,402.654,407.047,412.162,419.472,427.231,429.788,433.69,437.003,441.8,445.526,448.391,451.791,457.09,460.991,463.856,469.154,472.458,478.609,483.407,488.275,493.389,498.275,503.134,506.605,509.162,514.531" svgx:width="0.5,0.5,0.25,0.52,0.56,0.55,0.83,0.4,0.55,0.33,0.58,0.42,0.56,0.5,0.25,0.61,0.25,0.25,0.52,0.5,0.6,0.29,0.44,0.25,0.33,0.25,0.25,0.71,0.58,0.88,0.29,0.48,0.29,0.48,0.83,0.42,0.56,0.29,0.25,0.61,0.25,0.25,0.52,0.5,0.29,0.5,0.44,0.29,0.33,0.58,0.42,0.56,0.29,0.25,0.61,0.25,0.25,0.52,0.83,0.29,0.48,0.4,0.44,0.5,0.25,0.67,0.25,0.6,0.4,0.55,0.6,0.48,0.4,0.33,0.29,0.48,0.42,0.5,0.58,0.61,0.88,0.29,0.44,0.4,0.55,0.42,0.33,0.4,0.6,0.44,0.33,0.6,0.4,0.48,0.55,0.33,0.58,0.56,0.55,0.4,0.29,0.61,0.48" style="fill:rgb(0,0,0);font-family:URWPalladioL-Roma;font-size:8.97px;stroke:none;">22.Skowro´nska,B.;Szulc,J.;Chmielewski,T.;Sałaci´nski,T.;Swiercz,R.Propertiesandmicrostructureofhybride</text>
   <text y="188.23" x="98.05,103.574,106.235,110.808,114.686,122.762" svgx:width="0.6,0.29,0.5,0.42,0.88,0.5" style="fill:rgb(0,0,0);font-family:URWPalladioL-Roma;font-size:8.97px;stroke:none;">Plasma</text>
   <text y="188.23" x="130.123" svgx:width="0.67" style="fill:rgb(0,0,0);font-family:Rpxr;font-size:8.97px;stroke:none;">+</text>
   <text y="188.23" x="139.031,147.683,154.798,161.61520000000002,164.566,172.193,176.574,179.236,184.824,189.204,194.6757,197.582,199.722,204.716,207.377,212.7,215.681,219.44840000000002,222.349,227.342,230.30210000000002,233.168,236.149,241.472,245.853,249.466,257.541,262.535,270.611,274.991,279.052,284.375,288.948,294.271,296.932,300.993,305.566,308.227,310.888,315.91119999999995,318.763,321.744,325.201,329.582,334.155,337.137,341.517,346.9887,349.886,354.687,359.26,363.833,368.406,377.058,383.4267,386.332,390.209,393.191,397.572,401.952,404.614,406.8565,411.683,414.766,419.96860000000004,422.878,428.402,431.85,436.843,440.904,445.285,449.666,455.254,457.915,463.238,468.323,472.0904,474.99,479.984,482.9441,485.819,488.8,494.123,498.4286,501.293,505.866,510.439,513.421" svgx:width="0.95,0.78,0.76,0.55,0.83,0.48,0.29,0.61,0.48,0.61,0.55,0.23,0.55,0.29,0.58,0.33,0.42,0.55,0.55,0.33,0.55,0.33,0.58,0.48,0.4,0.88,0.55,0.88,0.48,0.44,0.58,0.5,0.58,0.29,0.44,0.5,0.29,0.29,0.56,0.55,0.33,0.4,0.48,0.5,0.33,0.48,0.61,0.55,0.52,0.5,0.5,0.5,0.95,0.71,0.55,0.42,0.33,0.48,0.48,0.29,0.25,0.55,0.34,0.58,0.55,0.6,0.4,0.55,0.44,0.48,0.48,0.61,0.29,0.58,0.56,0.42,0.55,0.55,0.33,0.55,0.33,0.58,0.48,0.55,0.5,0.5,0.33,0.58" style="fill:rgb(0,0,0);font-family:URWPalladioL-Roma;font-size:8.97px;stroke:none;">MAG welded joints of thermomechanically treated S700MC steel. In Proceedings of the 27th</text>
   <text y="201.141" x="97.701,104.635,109.822,115.009,117.603,122.638,126.908,130.428,134.207,138.663,142.184,147.2072,149.376,152.38,157.567,160.472,164.742,168.262,173.449,177.905,180.811,183.405,188.271,193.458,197.914,200.5153,202.736,209.055,213.921,219.108,222.076,226.345,229.706,233.975,239.162,243.119,247.4246,249.625,254.491,259.6936,261.916,270.347,274.616,277.522,281.978,284.572,287.165,292.539,295.899,300.855,305.8782,308.038,312.495,317.682,323.1537,325.365,333.796,338.252,341.158,345.427,348.947,351.541,355.997,358.591,362.3584,364.607,367.575,376.006,381.452,386.255,393.189,398.635,401.603,403.8455,406.059,411.505,415.025,420.212,425.079,427.3215,429.544,435.863,440.319,444.588,448.545,453.74760000000003,455.97,461.923,466.192,471.549,476.923,481.852,484.445,487.039,491.994,494.23650000000004,496.46,500.916,505.372,509.829,514.285" svgx:width="0.78,0.58,0.58,0.29,0.56,0.48,0.4,0.42,0.5,0.4,0.56,0.55,0.34,0.58,0.33,0.48,0.4,0.58,0.5,0.33,0.29,0.55,0.58,0.5,0.29,0.55,0.71,0.55,0.58,0.33,0.48,0.4,0.48,0.58,0.44,0.48,0.55,0.55,0.58,0.55,0.95,0.48,0.33,0.5,0.29,0.29,0.6,0.4,0.56,0.56,0.55,0.5,0.58,0.61,0.55,0.95,0.5,0.33,0.48,0.4,0.29,0.5,0.29,0.42,0.55,0.33,0.95,0.61,0.61,0.78,0.61,0.33,0.25,0.55,0.61,0.4,0.58,0.55,0.25,0.55,0.71,0.5,0.48,0.44,0.58,0.55,0.67,0.48,0.6,0.6,0.55,0.29,0.29,0.56,0.25,0.55,0.5,0.5,0.5,0.5,0.5" style="fill:rgb(0,0,0);font-family:URWPalladioL-Roma;font-size:8.97px;stroke:none;">Anniversary International Conference on Metallurgy and Materials (METAL), Brno, Czech Republik, 23–25</text>
   <text y="214.053" x="98.05,106.532,111.015,116.0382,118.242,122.726,127.209,131.692,136.175" svgx:width="0.95,0.5,0.56,0.55,0.5,0.5,0.5,0.5,0.25" style="fill:rgb(0,0,0);font-family:URWPalladioL-Roma;font-size:8.97px;stroke:none;">May 2018.</text>
   <text y="226.964" x="76.535,81.018,85.501,87.74350000000001,98.05,102.786,108.035,110.66,115.91,118.1525,120.402,125.426,127.681,132.552,134.807,137.0495,139.299,145.848,150.358,155.608,160.623,162.8655,165.115,169.851,172.106,180.305,182.56,184.8025,187.052,192.564,196.884,201.205,203.44750000000002,205.706,213.211,215.466,223.656,225.8985,228.157,233.173,236.736,241.246,245.251,248.191,253.63,257.031,261.33660000000003,263.589,267.594,272.843,277.354,280.917,285.427,289.432,292.372,296.693,300.256,302.881,306.705,309.646,312.271,316.276,320.0434,322.346,327.271,330.2311,332.512,338.041,346.575,352.97,358.35200000000003,360.655,365.165,370.415,375.8867,378.172,385.262,390.7337,393.029,396.853,399.794,404.114,408.435,411.0363,413.306,420.829,425.15,427.774,433.286,441.242,445.562,450.812,453.753,457.5204,459.823,467.346,469.971,472.912,478.1146,480.398,483.799,488.12,491.944,497.365,501.686,505.691,508.6511,510.878,513.818" svgx:width="0.5,0.5,0.25,0.55,0.52,0.58,0.29,0.58,0.25,0.55,0.67,0.25,0.61,0.25,0.25,0.55,0.73,0.5,0.58,0.56,0.25,0.55,0.52,0.25,1.0,0.25,0.25,0.55,0.61,0.48,0.48,0.25,0.55,0.83,0.25,1.0,0.25,0.55,0.56,0.4,0.5,0.44,0.33,0.6,0.4,0.48,0.55,0.44,0.58,0.5,0.4,0.5,0.44,0.33,0.48,0.4,0.29,0.42,0.33,0.29,0.44,0.42,0.55,0.55,0.33,0.55,0.61,0.95,0.71,0.6,0.55,0.5,0.58,0.61,0.55,0.79,0.61,0.55,0.42,0.33,0.48,0.48,0.29,0.55,0.83,0.48,0.29,0.61,0.88,0.48,0.58,0.33,0.42,0.55,0.83,0.29,0.33,0.58,0.55,0.4,0.48,0.42,0.6,0.48,0.44,0.33,0.55,0.33,0.55" style="fill:rgb(0,0,0);font-family:URWPalladioL-Roma;font-size:8.97px;stroke:none;">23. Shin, Y.T.; Kang, S.W.; Lee, H.W. Fracture characteristics of TMCP and QT steel weldments with respect to</text>
   <text y="239.876" x="98.05,102.031,105.573,110.056,114.037,119.06020000000001,121.264,123.873,128.168,133.387,138.372,141.295,146.513" svgx:width="0.44,0.4,0.5,0.44,0.56,0.55,0.29,0.48,0.58,0.56,0.33,0.58,0.25" style="fill:rgb(0,0,0);font-family:URWPalladioL-Roma;font-size:8.97px;stroke:none;">crack length.</text>
   <text y="239.876" x="151.893,160.357,164.338,167.324,170.812,173.637,175.8795,179.016,184.002,187.651,190.144,192.3865,195.523,201.002,205.987,210.47,212.7125,215.85" svgx:width="0.94,0.44,0.33,0.39,0.39,0.25,0.55,0.56,0.41,0.28,0.25,0.55,0.61,0.56,0.5,0.25,0.55,0.72" style="fill:rgb(0,0,0);font-family:URWPalladioL-Ital;font-size:8.97px;stroke:none;">Mater. Sci. Eng. A</text>
   <text y="239.876" x="224.565,229.048,233.531,238.015" svgx:width="0.5,0.5,0.5,0.5" style="fill:rgb(0,0,0);font-family:URWPalladioL-Bold;font-size:8.97px;stroke:none;">2006</text>
   <text y="239.876" x="242.497" svgx:width="0.25" style="fill:rgb(0,0,0);font-family:URWPalladioL-Roma;font-size:8.97px;stroke:none;">,</text>
   <text y="239.876" x="246.981,251.464,255.947" svgx:width="0.5,0.5,0.5" style="fill:rgb(0,0,0);font-family:URWPalladioL-Ital;font-size:8.97px;stroke:none;">434</text>
   <text y="239.876" x="260.43,262.6725,264.913,269.396,273.88,278.363,282.846,287.329,291.813,296.296,298.5385,301.676" svgx:width="0.25,0.55,0.5,0.5,0.5,0.5,0.5,0.5,0.5,0.25,0.55,0.33" style="fill:rgb(0,0,0);font-family:URWPalladioL-Roma;font-size:8.97px;stroke:none;">, 365–371. [</text>
   <text y="239.876" x="304.661,311.019,314.399,319.295,323.096,326.898,332.888,337.182" svgx:width="0.71,0.4,0.55,0.42,0.42,0.67,0.48,0.33" style="fill:rgb(8,117,183);font-family:URWPalladioL-Roma;font-size:8.97px;stroke:none;">CrossRef</text>
   <text y="239.876" x="340.168" svgx:width="0.33" style="fill:rgb(0,0,0);font-family:URWPalladioL-Roma;font-size:8.97px;stroke:none;">]</text>
   <text y="252.788" x="76.535,81.018,85.501,87.74350000000001,98.05,104.664,107.315,115.359,117.6015,119.886,124.961,127.238,129.4805,131.766,138.379,145.977,150.951,156.253,158.4955,160.781,163.814,166.092,168.33450000000002,170.619,176.185,180.549,184.913,187.15550000000002,189.44,197.02,199.297,201.5395,203.825,206.849,211.404,216.706,221.771,224.0135,226.299,234.589,236.8315,239.107" svgx:width="0.5,0.5,0.25,0.55,0.73,0.29,0.88,0.25,0.55,0.67,0.25,0.25,0.55,0.73,0.83,0.55,0.58,0.25,0.55,0.33,0.25,0.25,0.55,0.61,0.48,0.48,0.25,0.55,0.83,0.25,0.25,0.55,0.33,0.5,0.58,0.56,0.25,0.55,1.0,0.25,0.55,0.61" style="fill:rgb(0,0,0);font-family:URWPalladioL-Roma;font-size:8.97px;stroke:none;">24. Kim, Y.; Kwon, J.; Lee, H.; Jang, W. E</text>
   <text y="252.788" x="244.675" svgx:width="0.61" style="fill:rgb(0,0,0);font-family:Rpxr;font-size:8.97px;stroke:none;">ﬀ</text>
   <text y="252.788" x="250.214,254.578,258.622,261.5821,263.842,268.816,271.7761,274.091,282.135,284.786,288.831,292.274,297.248,301.111,304.071,307.606,313.099,317.144,320.114,325.607,329.042,333.3476,335.655,340.629,345.83160000000004,348.172,351.206,355.761,358.731,361.382,366.447,371.94,376.2456,378.554,382.598,386.197,390.752,394.797,399.8202,402.103,407.578,411.021,415.995,421.47,426.025,431.09,435.645,438.615,441.266,446.24,451.4426,453.783,458.338,463.64,469.1117,471.456,476.239,480.794,488.2391,490.614,493.639,498.193,501.163,503.814,508.879,514.373" svgx:width="0.48,0.44,0.33,0.55,0.55,0.33,0.55,0.88,0.29,0.44,0.4,0.55,0.42,0.33,0.4,0.6,0.44,0.33,0.6,0.4,0.48,0.55,0.55,0.58,0.55,0.33,0.5,0.33,0.29,0.56,0.6,0.48,0.55,0.44,0.4,0.5,0.44,0.56,0.55,0.6,0.4,0.55,0.6,0.5,0.56,0.5,0.33,0.29,0.55,0.58,0.55,0.5,0.58,0.61,0.55,0.52,0.5,0.83,0.55,0.33,0.5,0.33,0.29,0.56,0.6,0.48" style="fill:rgb(0,0,0);font-family:URWPalladioL-Roma;font-size:8.97px;stroke:none;">ect of microstructure on fatigue crack propagation and S–N fatigue</text>
   <text y="265.699" x="98.05,103.093,107.461,112.768,117.327,122.479,125.133,130.112,135.61,139.212,142.9794,145.313,150.292,153.2521,155.562,161.152,169.779,176.244,181.626,183.995,187.861,190.834,195.202,199.57,202.223,205.99040000000002,208.324,215.929,218.583,221.555,226.7576,229.097,234.167,236.82,241.188,243.842,249.3137,251.648,255.514,258.487,261.924,266.292,271.6,276.67,279.642,284.949,288.7164,291.059,296.038,298.9981,301.309,305.868,311.348,316.829,320.267,325.246,329.951,332.604,340.656,345.216,348.189,352.556,355.21,360.23319999999995,362.514,367.074,371.633,376.118,378.436,387.062,392.57,397.129" svgx:width="0.55,0.48,0.58,0.5,0.56,0.29,0.55,0.6,0.4,0.42,0.55,0.55,0.33,0.55,0.61,0.95,0.71,0.6,0.55,0.42,0.33,0.48,0.48,0.29,0.42,0.55,0.83,0.29,0.33,0.58,0.55,0.56,0.29,0.48,0.29,0.61,0.55,0.42,0.33,0.4,0.48,0.58,0.56,0.33,0.58,0.42,0.55,0.55,0.33,0.55,0.5,0.6,0.6,0.4,0.55,0.52,0.29,0.88,0.5,0.33,0.48,0.29,0.56,0.55,0.5,0.5,0.5,0.55,0.95,0.6,0.5,0.25" style="fill:rgb(0,0,0);font-family:URWPalladioL-Roma;font-size:8.97px;stroke:none;">behaviours of TMCP steels with yield strengths of approximately 450 MPa.</text>
   <text y="265.699" x="402.541,411.149,414.696,417.733,421.782,424.317,426.852,429.0945,432.268,440.877,444.925,447.962,451.509,454.391,456.6335,459.807,464.385,467.932,471.981,477.051,480.598" svgx:width="0.94,0.39,0.33,0.44,0.28,0.28,0.25,0.55,0.94,0.44,0.33,0.39,0.39,0.25,0.55,0.61,0.39,0.44,0.56,0.39,0.25" style="fill:rgb(0,0,0);font-family:URWPalladioL-Ital;font-size:8.97px;stroke:none;">Metall. Mater. Trans.</text>
   <text y="265.699" x="486.013,490.496,494.979,499.463" svgx:width="0.5,0.5,0.5,0.5" style="fill:rgb(0,0,0);font-family:URWPalladioL-Bold;font-size:8.97px;stroke:none;">2011</text>
   <text y="265.699" x="503.946" svgx:width="0.25" style="fill:rgb(0,0,0);font-family:URWPalladioL-Roma;font-size:8.97px;stroke:none;">,</text>
   <text y="265.699" x="508.463,513.022" svgx:width="0.5,0.5" style="fill:rgb(0,0,0);font-family:URWPalladioL-Ital;font-size:8.97px;stroke:none;">42</text>
   <text y="265.699" x="517.581" svgx:width="0.25" style="fill:rgb(0,0,0);font-family:URWPalladioL-Roma;font-size:8.97px;stroke:none;">,</text>
   <text y="278.611" x="98.05,102.533,107.016,111.5,115.983,120.466,124.949,129.432,131.6745,134.812" svgx:width="0.5,0.5,0.5,0.5,0.5,0.5,0.5,0.25,0.55,0.33" style="fill:rgb(0,0,0);font-family:URWPalladioL-Roma;font-size:8.97px;stroke:none;">986–999. [</text>
   <text y="278.611" x="137.798,144.155,147.536,152.431,156.233,160.035,166.024,170.319" svgx:width="0.71,0.4,0.55,0.42,0.42,0.67,0.48,0.33" style="fill:rgb(8,117,183);font-family:URWPalladioL-Roma;font-size:8.97px;stroke:none;">CrossRef</text>
   <text y="278.611" x="173.305" svgx:width="0.33" style="fill:rgb(0,0,0);font-family:URWPalladioL-Roma;font-size:8.97px;stroke:none;">]</text>
   <text y="291.522" x="76.535,81.018,85.501,87.74350000000001,98.05,104.886,107.443,110.308,115.607,120.721,125.114,127.35650000000001,129.481,137.794,139.991,146.827,149.024,151.2665,153.409,156.37,160.763,165.157,168.083,176.396,180.605,185.719,191.088,193.645,198.038,200.28050000000002,202.405,209.242,211.438,213.6805,215.823,222.528,227.826,230.383,233.248,235.805,240.014,243.485,246.798,251.007,255.4,257.6425,259.759,262.72,264.96250000000003,267.087,272.394,275.707,279.916,283.818,286.375,291.656,294.213,297.077,301.471,304.335,306.892,311.69,316.8926,318.966,322.692,325.556,328.869,333.078,338.192,343.078,345.942,351.056,355.265,360.379,362.936,368.05,373.0732,375.106,379.966,384.9892,387.013,389.939,394.737,398.208,405.967,410.36,413.225,415.782,420.579,425.694,428.251,433.4536,435.535,438.461,442.67,446.141,449.612,452.169,455.034,459.3396,461.404,466.202,469.1621,471.298,478.601,483.5345,485.63,489.532,493.925,497.396,502.255,504.812,510.181,514.39,518.116" svgx:width="0.5,0.5,0.25,0.55,0.78,0.29,0.33,0.6,0.58,0.5,0.25,0.55,0.95,0.25,0.78,0.25,0.25,0.55,0.34,0.5,0.5,0.33,0.95,0.48,0.58,0.61,0.29,0.5,0.25,0.55,0.78,0.25,0.25,0.55,0.76,0.6,0.29,0.33,0.29,0.48,0.4,0.4,0.48,0.5,0.25,0.55,0.34,0.25,0.55,0.6,0.4,0.48,0.44,0.29,0.6,0.29,0.33,0.5,0.33,0.29,0.55,0.58,0.55,0.42,0.33,0.4,0.48,0.58,0.56,0.33,0.58,0.48,0.58,0.29,0.58,0.56,0.55,0.55,0.56,0.55,0.33,0.55,0.4,0.88,0.5,0.33,0.29,0.55,0.58,0.29,0.58,0.55,0.33,0.48,0.4,0.4,0.29,0.33,0.48,0.55,0.55,0.33,0.55,0.83,0.55,0.55,0.44,0.5,0.4,0.55,0.29,0.61,0.48,0.42,0.25" style="fill:rgb(0,0,0);font-family:URWPalladioL-Roma;font-size:8.97px;stroke:none;">25. Altuna, M.A.; Iza-Mendia, A.; Guitierrez, I. Precipitation strengthening by formationin ferrite of Nb carbides.</text>
   <text y="304.434" x="98.05,101.057,106.2596,108.479,113.868,117.231,122.103,126.064,130.337,134.611,140.062,142.658,147.85,152.811,156.57840000000002,158.824,163.695,166.6551,168.896,171.805,176.997,181.3026,183.492,187.953,191.316,196.7877,198.998,202.004,207.196,210.105,214.378,217.902,223.095,227.555,230.464,233.06,237.931,243.124,247.584,250.1853,252.411,258.736,263.608,268.8,271.771,276.044,279.408,283.681,288.873,292.835,297.1406,299.338,304.21,309.4126,311.632,317.101,322.294,326.567,330.091,337.969,342.84,350.718,354.991,358.952,364.145,368.606,373.798,376.394,380.355,384.816,387.41729999999995,389.643,395.031,398.395,403.257,407.218,411.492,415.274,419.057,421.653,426.846,431.8692,434.036,438.908,441.8681,444.109,448.793,451.701,455.975,460.248,462.844,466.627,468.8695,471.088,476.476,480.937,486.388,491.768,496.229,498.4715,500.698,503.705,506.613,511.074,513.67,517.631" svgx:width="0.34,0.58,0.55,0.6,0.4,0.55,0.44,0.48,0.48,0.61,0.29,0.58,0.56,0.42,0.55,0.55,0.33,0.55,0.33,0.58,0.48,0.55,0.5,0.4,0.61,0.55,0.34,0.58,0.33,0.48,0.4,0.58,0.5,0.33,0.29,0.55,0.58,0.5,0.29,0.55,0.71,0.55,0.58,0.33,0.48,0.4,0.48,0.58,0.44,0.48,0.55,0.55,0.58,0.55,0.61,0.58,0.48,0.4,0.88,0.55,0.88,0.48,0.44,0.58,0.5,0.58,0.29,0.44,0.5,0.29,0.55,0.6,0.4,0.55,0.44,0.48,0.42,0.42,0.29,0.58,0.56,0.55,0.55,0.33,0.55,0.52,0.33,0.48,0.48,0.29,0.42,0.25,0.55,0.6,0.5,0.61,0.6,0.5,0.25,0.55,0.34,0.33,0.5,0.29,0.56,0.25" style="fill:rgb(0,0,0);font-family:URWPalladioL-Roma;font-size:8.97px;stroke:none;">In Proceedings of the 3rd International Conference on Thermomechanical Processing of Steels, Padua, Italy,</text>
   <text y="317.346" x="97.602,102.085,106.568,111.052,115.535,120.02,122.26,126.967,131.262,136.651,139.574,143.869,151.786,156.744,161.039,164.62699999999998,166.823,171.306,175.789,180.272,184.755,186.9975,189.239,194.627,200.016,202.2585,204.499,208.983,213.466,217.949,222.432" svgx:width="0.5,0.5,0.5,0.5,0.5,0.55,0.52,0.48,0.6,0.33,0.48,0.88,0.55,0.48,0.4,0.55,0.5,0.5,0.5,0.5,0.25,0.55,0.6,0.6,0.25,0.55,0.5,0.5,0.5,0.5,0.25" style="fill:rgb(0,0,0);font-family:URWPalladioL-Roma;font-size:8.97px;stroke:none;">10–12 September 2008; pp. 1–12.</text>
   <text y="330.257" x="76.535,81.018,85.501,87.74350000000001,98.05,104.69,107.351,112.436,114.67850000000001,116.963,121.911,124.198,126.4405,128.725,137.377,142.37,145.983,150.556,155.723,160.104,164.164,166.4065,168.701,171.746,174.033,176.2755,178.56,186.16,191.154,196.321,200.894,205.979,210.972,216.14,220.712,222.9545,225.249,228.331,230.5735,232.858,240.458,244.839,252.2841,254.707,262.783,267.164,270.145,275.468,280.462,285.9337,288.299,293.293,296.2531,298.579,304.076,307.533,312.526,316.587,320.968,324.846,328.723,331.385,336.708,341.7312,344.033,349.356,353.737,358.31,361.2701,363.532,366.514,369.971,374.351,378.924,381.906,389.982,394.362,399.685,402.6451,404.907,409.288,414.007,419.504,423.885,427.497,430.159,438.234,442.615,447.938,450.919,454.6864,457.038,464.665,467.327,470.308,475.5106,477.881,483.204,488.719,496.794,501.175,504.788,507.449,511.51,516.083" svgx:width="0.5,0.5,0.25,0.55,0.73,0.29,0.56,0.25,0.55,0.61,0.25,0.25,0.55,0.95,0.55,0.4,0.5,0.56,0.48,0.44,0.25,0.55,0.33,0.25,0.25,0.55,0.83,0.55,0.56,0.5,0.56,0.55,0.56,0.5,0.25,0.55,0.34,0.25,0.55,0.83,0.48,0.83,0.55,0.88,0.48,0.33,0.58,0.55,0.61,0.55,0.55,0.33,0.55,0.6,0.4,0.55,0.44,0.48,0.42,0.42,0.29,0.58,0.56,0.55,0.58,0.48,0.5,0.33,0.55,0.33,0.4,0.48,0.5,0.33,0.88,0.48,0.58,0.33,0.55,0.48,0.52,0.6,0.48,0.4,0.29,0.88,0.48,0.58,0.33,0.42,0.55,0.83,0.29,0.33,0.58,0.55,0.58,0.6,0.88,0.48,0.4,0.29,0.44,0.5,0.29" style="fill:rgb(0,0,0);font-family:URWPalladioL-Roma;font-size:8.97px;stroke:none;">26. Kik, T.; Moravec, J.; Novakova, I. New method of processing heat treatment experiments with numerical</text>
   <text y="343.169" x="98.05,101.878,104.506,112.479,117.923,120.551,125.065,128.009,130.636,135.566,140.7686,143.051,146.88,152.324,157.751,163.168,168.098,171.665,174.608,176.8505,179.999,183.042" svgx:width="0.42,0.29,0.88,0.6,0.29,0.5,0.33,0.29,0.55,0.58,0.55,0.42,0.6,0.6,0.6,0.55,0.4,0.33,0.25,0.55,0.34,0.58" style="fill:rgb(0,0,0);font-family:URWPalladioL-Roma;font-size:8.97px;stroke:none;">simulation support. In</text>
   <text y="343.169" x="190.527,193.534,200.558,206.0297,208.296,214.319,218.328,223.348,225.858,229.37,232.729,236.242,241.262,244.937,248.4353,250.67,255.69,259.203,262.715,265.225,268.738,272.25,275.257,283.78,287.789,290.796,294.308,297.821,300.331,304.34,306.85,310.3483,312.583,317.603,321.278,323.788,327.301,332.321,335.996,339.49429999999995,341.738,345.747,350.768,355.253,357.503,363.02,368.04,372.555,375.065,380.085,383.598,387.11,390.622,393.132,398.153" svgx:width="0.33,0.78,0.61,0.55,0.67,0.44,0.56,0.28,0.39,0.39,0.39,0.56,0.41,0.39,0.55,0.56,0.39,0.39,0.28,0.39,0.39,0.33,0.94,0.44,0.33,0.39,0.39,0.28,0.44,0.28,0.39,0.55,0.56,0.41,0.28,0.39,0.56,0.41,0.39,0.55,0.44,0.56,0.5,0.55,0.61,0.56,0.5,0.28,0.56,0.39,0.39,0.39,0.28,0.56,0.5" style="fill:rgb(0,0,0);font-family:URWPalladioL-Ital;font-size:8.97px;stroke:none;">IOP Conference Series-Materials Science and Engineering</text>
   <text y="343.169" x="402.671,404.9135,407.158,410.201,417.298,422.68,424.982,430.436,435.88,440.873,443.501,446.128,449.957,455.212,457.839,463.094,468.114,470.3565,473.496,479.012,482.579,485.206,489.035,491.978,496.908,499.536,501.7785,504.023,511.048,517.603" svgx:width="0.25,0.55,0.34,0.79,0.6,0.55,0.6,0.6,0.55,0.29,0.29,0.42,0.58,0.29,0.58,0.56,0.25,0.55,0.61,0.4,0.29,0.42,0.33,0.55,0.29,0.25,0.55,0.78,0.73,0.25" style="fill:rgb(0,0,0);font-family:URWPalladioL-Roma;font-size:8.97px;stroke:none;">; IOP Publishing: Bristol, UK,</text>
   <text y="356.08" x="98.05,102.533,107.016,111.5,115.983,118.22550000000001,120.466,125.944,130.84,133.449,138.856,146.773,151.0786,153.31,157.793,162.276,166.76" svgx:width="0.5,0.5,0.5,0.5,0.25,0.55,0.72,0.55,0.29,0.6,0.88,0.48,0.55,0.5,0.5,0.5,0.25" style="fill:rgb(0,0,0);font-family:URWPalladioL-Roma;font-size:8.97px;stroke:none;">2017; Volume 227.</text>
   <text y="368.992" x="76.535,81.018,85.501,87.74350000000001,98.05,105.435,109.874,113.638,118.804,121.387,129.225,134.072,136.966,141.812,144.05450000000002,146.277,150.938,153.157,155.39950000000002,157.631,160.622,165.558,169.81,175.233,179.672,181.9145,184.145,188.806,191.025,193.2675,195.499,200.159,205.512,210.447,213.03,220.868,225.715,228.609,233.456,235.6985,237.921,244.365,246.584,248.8265,251.058,259.456,262.039,266.974,271.413,276.348,280.6,282.84250000000003,285.074,289.734,291.9765,294.199" svgx:width="0.5,0.5,0.25,0.55,0.83,0.5,0.42,0.58,0.29,0.88,0.55,0.33,0.55,0.25,0.55,0.52,0.25,0.25,0.55,0.34,0.56,0.48,0.61,0.5,0.25,0.55,0.52,0.25,0.25,0.55,0.52,0.6,0.56,0.29,0.88,0.55,0.33,0.55,0.25,0.55,0.73,0.25,0.25,0.55,0.95,0.29,0.56,0.5,0.56,0.48,0.25,0.55,0.52,0.25,0.55,0.61" style="fill:rgb(0,0,0);font-family:URWPalladioL-Roma;font-size:8.97px;stroke:none;">27. Hashimoto, S.; Ikeda, S.; Sugimoto, K.; Miyake, S. E</text>
   <text y="368.992" x="299.625" svgx:width="0.61" style="fill:rgb(0,0,0);font-family:Rpxr;font-size:8.97px;stroke:none;">ﬀ</text>
   <text y="368.992" x="305.022,309.274,313.215,316.109,319.8764,322.119,326.965,329.9251,332.176,339.553,344.4865,346.707,351.146,356.312,361.7837,363.99,372.388,377.32149999999996,379.48,383.918,389.342,394.766,397.349,400.243,402.826,407.673,412.8756,415.094,417.987,422.9205,425.08,429.518,431.737,436.176,443.632,449.926,454.364,458.803,461.022,465.46,472.917,481.314,486.51660000000004,488.735,492.499,495.393,499.644,503.896,506.4973,508.725,513.572" svgx:width="0.48,0.44,0.33,0.42,0.55,0.55,0.33,0.55,0.83,0.55,0.55,0.5,0.58,0.61,0.55,0.95,0.55,0.55,0.5,0.61,0.61,0.29,0.33,0.29,0.55,0.58,0.55,0.33,0.55,0.55,0.5,0.25,0.5,0.84,0.71,0.5,0.5,0.25,0.5,0.84,0.95,0.58,0.55,0.42,0.33,0.48,0.48,0.29,0.55,0.55,0.58" style="fill:rgb(0,0,0);font-family:URWPalladioL-Roma;font-size:8.97px;stroke:none;">ects of Nb and Mo addition to 0.2%C–1.5%Mn steel on</text>
   <text y="381.904" x="98.05,105.967,110.262,114.243,119.462,123.945,129.163,131.773,135.754,140.237,142.8383,145.088,150.477,153.857,158.753,164.141,168.436,171.978,174.901,177.51,181.805,185.57240000000002,187.849,192.744,195.7041,197.972,203.19,208.086,211.04610000000002,213.25,216.631,221.526,224.136,226.745,231.04,236.5117,238.76,244.256,250.246,253.267,258.683,261.669,266.152,268.761,274.24,278.535,284.0067,286.255,290.057,292.98,297.275,301.569,304.1703,306.42,310.222,315.44,319.735,324.03,326.953,330.755" svgx:width="0.88,0.48,0.44,0.58,0.5,0.58,0.29,0.44,0.5,0.29,0.55,0.6,0.4,0.55,0.6,0.48,0.4,0.33,0.29,0.48,0.42,0.55,0.55,0.33,0.55,0.58,0.55,0.33,0.55,0.4,0.55,0.29,0.29,0.48,0.61,0.55,0.61,0.67,0.34,0.6,0.33,0.5,0.29,0.61,0.48,0.61,0.55,0.42,0.33,0.48,0.48,0.29,0.55,0.42,0.58,0.48,0.48,0.33,0.42,0.25" style="fill:rgb(0,0,0);font-family:URWPalladioL-Roma;font-size:8.97px;stroke:none;">mechanical properties of hot rolled TRIP-aided steel sheets.</text>
   <text y="381.904" x="336.132,339.118,344.103,347.089,350.0491,352.316,355.302,360.288,363.273" svgx:width="0.33,0.56,0.33,0.33,0.55,0.33,0.56,0.33,0.25" style="fill:rgb(0,0,0);font-family:URWPalladioL-Ital;font-size:8.97px;stroke:none;">ISIJ Int.</text>
   <text y="381.904" x="368.652,373.135,377.618,382.102" svgx:width="0.5,0.5,0.5,0.5" style="fill:rgb(0,0,0);font-family:URWPalladioL-Bold;font-size:8.97px;stroke:none;">2004</text>
   <text y="381.904" x="386.585" svgx:width="0.25" style="fill:rgb(0,0,0);font-family:URWPalladioL-Roma;font-size:8.97px;stroke:none;">,</text>
   <text y="381.904" x="391.068,395.551" svgx:width="0.5,0.5" style="fill:rgb(0,0,0);font-family:URWPalladioL-Ital;font-size:8.97px;stroke:none;">44</text>
   <text y="381.904" x="400.035,402.27750000000003,404.518,409.001,413.485,417.968,422.451,426.934,431.418,435.901,440.384,444.867,447.1095,450.247" svgx:width="0.25,0.55,0.5,0.5,0.5,0.5,0.5,0.5,0.5,0.5,0.5,0.25,0.55,0.33" style="fill:rgb(0,0,0);font-family:URWPalladioL-Roma;font-size:8.97px;stroke:none;">, 1590–1598. [</text>
   <text y="381.904" x="453.233,459.59,462.97,467.866,471.668,475.47,481.459,485.754" svgx:width="0.71,0.4,0.55,0.42,0.42,0.67,0.48,0.33" style="fill:rgb(8,117,183);font-family:URWPalladioL-Roma;font-size:8.97px;stroke:none;">CrossRef</text>
   <text y="381.904" x="488.74" svgx:width="0.33" style="fill:rgb(0,0,0);font-family:URWPalladioL-Roma;font-size:8.97px;stroke:none;">]</text>
   <text y="394.815" x="76.535,81.018,85.501,87.74350000000001,98.05,106.29,110.823,116.098,121.139,123.3815,125.635,131.681,133.948,140.964,143.23,145.4725,147.726,155.268,160.735,165.267,170.543,175.583,177.8255,180.07,185.609,187.875,193.922,196.188,198.4305,200.684,208.924,213.457,218.733,223.773,226.0155,228.269,233.808,236.074,238.31650000000002,240.57,246.626,251.575,256.851,261.891,264.1335,266.388,271.437,273.703,281.245,283.4875,285.741,294.317,296.955,300.98,304.397,309.347,313.19,316.146,319.654,325.12,329.145,332.1,337.566,340.984,345.2896,347.556,352.088,357.364,362.8357,365.124,373.128,377.47,381.495,386.771,391.304,396.58,399.217,403.242,407.775,410.37629999999996,412.643,418.091,421.508,426.458,431.906,436.248,439.829,442.784,445.422,449.764,453.5314,455.829,460.778,463.73810000000003,466.027,474.031,476.669,480.694,484.111,489.061,493.593,496.231,498.869,503.819,508.859,513.201" svgx:width="0.5,0.5,0.25,0.55,1.0,0.5,0.58,0.56,0.25,0.55,0.67,0.25,0.77,0.25,0.25,0.55,0.83,0.6,0.5,0.58,0.56,0.25,0.55,0.61,0.25,0.67,0.25,0.25,0.55,1.0,0.5,0.58,0.56,0.25,0.55,0.61,0.25,0.25,0.55,0.67,0.55,0.58,0.56,0.25,0.55,0.67,0.25,0.83,0.25,0.55,0.95,0.29,0.44,0.4,0.55,0.42,0.33,0.4,0.6,0.44,0.33,0.6,0.4,0.48,0.55,0.5,0.58,0.61,0.55,0.88,0.48,0.44,0.58,0.5,0.58,0.29,0.44,0.5,0.29,0.55,0.6,0.4,0.55,0.6,0.48,0.4,0.33,0.29,0.48,0.42,0.55,0.55,0.33,0.55,0.88,0.29,0.44,0.4,0.55,0.5,0.29,0.29,0.55,0.56,0.48,0.61" style="fill:rgb(0,0,0);font-family:URWPalladioL-Roma;font-size:8.97px;stroke:none;">28. Wang, X.D.; Huang, B.X.; Wang, L.; Rong, Y.H. Microstructure and mechanical properties of microalloyed</text>
   <text y="407.727" x="98.05,103.268,105.878,110.863,116.081,119.067,122.869,125.792,129.172,133.467,138.686,143.671,146.594,151.79659999999998,154.054,156.977,160.519,165.002,170.221,174.022,177.008,181.904,185.446,193.363,197.846,200.769,203.378,208.274,213.492,216.478,219.087,224.306,229.784,235.191,239.172,243.467,248.9387,251.187,256.576,259.185,263.668,267.47,270.393,273.002,276.983,279.593,282.516,287.5392,289.743,293.544,296.467,300.762,305.057,307.666,311.468" svgx:width="0.58,0.29,0.56,0.58,0.33,0.42,0.33,0.4,0.48,0.58,0.56,0.33,0.58,0.55,0.33,0.4,0.5,0.58,0.42,0.33,0.55,0.4,0.88,0.5,0.33,0.29,0.55,0.58,0.33,0.29,0.58,0.61,0.6,0.44,0.48,0.61,0.55,0.6,0.29,0.5,0.42,0.33,0.29,0.44,0.29,0.33,0.56,0.55,0.42,0.33,0.48,0.48,0.29,0.42,0.25" style="fill:rgb(0,0,0);font-family:URWPalladioL-Roma;font-size:8.97px;stroke:none;">high-strength transformation-induced plasticity steels.</text>
   <text y="407.727" x="316.845,325.309,328.797,331.783,335.764,338.257,340.749,342.99150000000003,346.129,354.594,358.575,361.56,365.048,367.873,370.1155,373.253,377.736,381.224,385.205,390.19,393.678,395.9205,399.058" svgx:width="0.94,0.39,0.33,0.44,0.28,0.28,0.25,0.55,0.94,0.44,0.33,0.39,0.39,0.25,0.55,0.61,0.39,0.44,0.56,0.39,0.25,0.55,0.72" style="fill:rgb(0,0,0);font-family:URWPalladioL-Ital;font-size:8.97px;stroke:none;">Metall. Mater. Trans. A</text>
   <text y="407.727" x="407.772,412.255,416.738,421.222" svgx:width="0.5,0.5,0.5,0.5" style="fill:rgb(0,0,0);font-family:URWPalladioL-Bold;font-size:8.97px;stroke:none;">2008</text>
   <text y="407.727" x="425.705" svgx:width="0.25" style="fill:rgb(0,0,0);font-family:URWPalladioL-Roma;font-size:8.97px;stroke:none;">,</text>
   <text y="407.727" x="430.188,434.671" svgx:width="0.5,0.5" style="fill:rgb(0,0,0);font-family:URWPalladioL-Ital;font-size:8.97px;stroke:none;">39</text>
   <text y="407.727" x="439.154,441.3965,443.637,448.12,452.604,457.087,459.3295,462.467" svgx:width="0.25,0.55,0.5,0.5,0.5,0.25,0.55,0.33" style="fill:rgb(0,0,0);font-family:URWPalladioL-Roma;font-size:8.97px;stroke:none;">, 1–7. [</text>
   <text y="407.727" x="465.453,471.81,475.19,480.086,483.887,487.689,493.679,497.974" svgx:width="0.71,0.4,0.55,0.42,0.42,0.67,0.48,0.33" style="fill:rgb(8,117,183);font-family:URWPalladioL-Roma;font-size:8.97px;stroke:none;">CrossRef</text>
   <text y="407.727" x="500.959" svgx:width="0.33" style="fill:rgb(0,0,0);font-family:URWPalladioL-Roma;font-size:8.97px;stroke:none;">]</text>
   <text y="420.638" x="76.535,81.018,85.501,87.74350000000001,98.05,103.085,107.479,111.204,116.503,121.617,126.01,129.411,134.71,136.95250000000001,138.321,142.934,145.131,147.3735,149.024,155.93,159.656,164.05,171.809,177.107,179.3495,180.719,189.031,191.228,193.47050000000002,195.112,202.423,204.98,208.293,213.09,216.816,221.93,224.487,226.7295,228.099,232.826,235.0685,236.438,244.75,248.959,252.861,257.975,262.368,267.482,270.039,273.941,278.334,280.9353,282.306,287.587,290.9,295.689,300.97,305.179,308.65,311.514,314.071,318.28,322.0474,323.43,327.823,332.937,339.721,343.025,347.234,350.098,354.492,357.049,362.163,366.372,373.164,377.558,382.856,386.582,389.447,393.656,398.77,401.327,404.191,408.4966,409.815,412.372,418.901,421.458,426.572,429.437,433.646,436.95,440.851,444.322,446.879,449.744,452.301,456.202,460.596,463.153,465.71,472.019,477.133,481.342,485.736,488.6,491.526,494.391,497.695,501.904,506.297,509.162,513.371" svgx:width="0.5,0.5,0.25,0.55,0.67,0.5,0.42,0.6,0.58,0.5,0.4,0.6,0.25,0.55,0.52,0.25,0.25,0.55,0.79,0.42,0.5,0.88,0.6,0.25,0.55,0.95,0.25,0.25,0.55,0.83,0.29,0.4,0.55,0.42,0.58,0.29,0.25,0.55,0.61,0.25,0.55,0.95,0.48,0.44,0.58,0.5,0.58,0.29,0.44,0.5,0.29,0.55,0.6,0.4,0.55,0.6,0.48,0.4,0.33,0.29,0.48,0.42,0.55,0.5,0.58,0.61,0.4,0.48,0.33,0.5,0.29,0.58,0.48,0.61,0.5,0.6,0.42,0.33,0.48,0.58,0.29,0.33,0.48,0.55,0.29,0.58,0.29,0.58,0.33,0.48,0.4,0.44,0.4,0.29,0.33,0.29,0.44,0.5,0.29,0.29,0.56,0.58,0.48,0.5,0.33,0.33,0.33,0.4,0.48,0.5,0.33,0.48,0.61" style="fill:rgb(0,0,0);font-family:URWPalladioL-Roma;font-size:8.97px;stroke:none;">29. Yasuharu, S.; Osamu, M.; Hiroshi, T. Mechanical properties andretainedaustenite inintercriticallyheat-treated</text>
   <text y="433.55" x="98.05,103.008,107.492,110.101,115.319,117.929,120.852,125.146,128.132,131.055,134.597,139.08,144.299,148.1,151.086,155.982,159.524,167.441,171.736,177.2077,179.456,183.258,186.181,190.476,194.771,197.3723,199.621,204.105,209.323,214.7947,217.043,219.966,225.185,229.48,232.089,235.677,237.872,242.938,247.421,250.963,253.572,258.055,260.978,263.588,268.483,273.6856,275.943,283.421,286.031,288.954,294.1566,296.414,301.121,303.72229999999996,305.972,310.455,315.674,321.1457,323.394,331.876,337.0786,339.336,343.819,349.298,354.776,357.385,360.308,362.918,367.813,373.032,376.833" svgx:width="0.55,0.5,0.29,0.58,0.29,0.33,0.48,0.33,0.33,0.4,0.5,0.58,0.42,0.33,0.55,0.4,0.88,0.48,0.61,0.55,0.42,0.33,0.48,0.48,0.29,0.55,0.5,0.58,0.61,0.55,0.33,0.58,0.48,0.29,0.4,0.55,0.56,0.5,0.4,0.29,0.5,0.33,0.29,0.55,0.58,0.55,0.83,0.29,0.33,0.58,0.55,0.52,0.29,0.55,0.5,0.58,0.61,0.55,0.95,0.58,0.55,0.5,0.61,0.61,0.29,0.33,0.29,0.55,0.58,0.42,0.25" style="fill:rgb(0,0,0);font-family:URWPalladioL-Roma;font-size:8.97px;stroke:none;">bainite-transformed steel and their variation with Si and Mn additions.</text>
   <text y="433.55" x="382.21,390.674,394.162,397.148,401.129,403.622,406.114,408.3565,411.494,415.977,419.465,423.446,428.432,431.92,434.1625,437.3" svgx:width="0.94,0.39,0.33,0.44,0.28,0.28,0.25,0.55,0.61,0.39,0.44,0.56,0.39,0.25,0.55,0.72" style="fill:rgb(0,0,0);font-family:URWPalladioL-Ital;font-size:8.97px;stroke:none;">Metall. Trans. A</text>
   <text y="433.55" x="446.013,450.496,454.979,459.463" svgx:width="0.5,0.5,0.5,0.5" style="fill:rgb(0,0,0);font-family:URWPalladioL-Bold;font-size:8.97px;stroke:none;">1991</text>
   <text y="433.55" x="463.946" svgx:width="0.25" style="fill:rgb(0,0,0);font-family:URWPalladioL-Roma;font-size:8.97px;stroke:none;">,</text>
   <text y="433.55" x="468.429,472.912" svgx:width="0.5,0.5" style="fill:rgb(0,0,0);font-family:URWPalladioL-Ital;font-size:8.97px;stroke:none;">22</text>
   <text y="433.55" x="477.396,479.6385,481.879,486.362,490.846,495.329,499.812,504.295,508.779,513.262" svgx:width="0.25,0.55,0.5,0.5,0.5,0.5,0.5,0.5,0.5,0.25" style="fill:rgb(0,0,0);font-family:URWPalladioL-Roma;font-size:8.97px;stroke:none;">, 489–498.</text>
   <text y="446.462" x="76.535,81.018,85.501,87.74350000000001,98.05,106.249,110.759,116.009,121.024,123.26650000000001,125.526,130.261,132.516,140.021,142.276,144.51850000000002,146.786,153.181,158.431,161.056,165.566,170.816,175.831,178.0735,180.341,186.737,188.992,195.387,197.642,199.8845,202.152,208.547,213.797,218.307,223.557,225.7995,228.058,233.57,235.825,238.864,241.1065,243.374" svgx:width="0.5,0.5,0.25,0.55,1.0,0.5,0.58,0.56,0.25,0.55,0.52,0.25,0.83,0.25,0.25,0.55,0.71,0.58,0.29,0.5,0.58,0.56,0.25,0.55,0.71,0.25,0.71,0.25,0.25,0.55,0.71,0.58,0.5,0.58,0.25,0.55,0.61,0.25,0.34,0.25,0.55,0.61" style="fill:rgb(0,0,0);font-family:URWPalladioL-Roma;font-size:8.97px;stroke:none;">30. Wang, S.H.; Chiang, C.C.; Chan, L.I. E</text>
   <text y="446.462" x="248.886" svgx:width="0.61" style="fill:rgb(0,0,0);font-family:Rpxr;font-size:8.97px;stroke:none;">ﬀ</text>
   <text y="446.462" x="254.37,258.691,262.696,265.65610000000004,267.891,272.816,275.7761,278.066,280.691,285.941,288.566,291.506,294.131,298.641,301.2423,303.521,311.486,314.111,318.116,321.516,326.441,330.266,333.207,336.697,342.137,346.141,349.082,354.521,357.922,362.22760000000005,364.489,369.414,374.6166,376.918,379.859,385.109,389.4146,391.675,395.68,399.09,403.411,407.731,413.113,415.399,420.387,424.707,429.957,434.467,439.564,442.189,447.114,452.553,456.141,458.371,463.296,466.2561,468.546,474.075,482.608,489.003,494.385,496.707,502.218,509.723,514.233" svgx:width="0.48,0.44,0.33,0.55,0.55,0.33,0.55,0.29,0.58,0.29,0.33,0.29,0.5,0.29,0.55,0.88,0.29,0.44,0.4,0.55,0.42,0.33,0.4,0.6,0.44,0.33,0.6,0.4,0.48,0.55,0.55,0.58,0.55,0.33,0.58,0.48,0.55,0.44,0.4,0.48,0.48,0.6,0.55,0.55,0.48,0.58,0.5,0.56,0.29,0.55,0.6,0.4,0.55,0.55,0.33,0.55,0.61,0.95,0.71,0.6,0.55,0.61,0.83,0.5,0.5" style="fill:rgb(0,0,0);font-family:URWPalladioL-Roma;font-size:8.97px;stroke:none;">ect of initial microstructure on the creep behaviour of TMCP EH36</text>
   <text y="459.373" x="98.05,102.533,107.752,113.2237,115.472,120.179,124.662,129.145,133.629,142.111,148.47969999999998,150.71,154.511,157.434,161.729,166.024,168.633,172.435" svgx:width="0.5,0.58,0.61,0.55,0.52,0.5,0.5,0.5,0.95,0.71,0.55,0.42,0.33,0.48,0.48,0.29,0.42,0.25" style="fill:rgb(0,0,0);font-family:URWPalladioL-Roma;font-size:8.97px;stroke:none;">and S490MC steels.</text>
   <text y="459.373" x="177.815,186.279,190.26,193.246,196.734,199.559,201.8015,204.938,209.924,213.573,216.066,218.3085,221.445,226.924,231.909,236.392,238.6345,241.772" svgx:width="0.94,0.44,0.33,0.39,0.39,0.25,0.55,0.56,0.41,0.28,0.25,0.55,0.61,0.56,0.5,0.25,0.55,0.72" style="fill:rgb(0,0,0);font-family:URWPalladioL-Ital;font-size:8.97px;stroke:none;">Mater. Sci. Eng. A</text>
   <text y="459.373" x="250.487,254.97,259.453,263.937" svgx:width="0.5,0.5,0.5,0.5" style="fill:rgb(0,0,0);font-family:URWPalladioL-Bold;font-size:8.97px;stroke:none;">2003</text>
   <text y="459.373" x="268.419" svgx:width="0.25" style="fill:rgb(0,0,0);font-family:URWPalladioL-Roma;font-size:8.97px;stroke:none;">,</text>
   <text y="459.373" x="272.903,277.386,281.869" svgx:width="0.5,0.5,0.5" style="fill:rgb(0,0,0);font-family:URWPalladioL-Ital;font-size:8.97px;stroke:none;">344</text>
   <text y="459.373" x="286.352,288.5945,290.835,295.318,299.802,304.285,308.768,313.251,317.734,322.218,324.4605,327.598" svgx:width="0.25,0.55,0.5,0.5,0.5,0.5,0.5,0.5,0.5,0.25,0.55,0.33" style="fill:rgb(0,0,0);font-family:URWPalladioL-Roma;font-size:8.97px;stroke:none;">, 288–295. [</text>
   <text y="459.373" x="330.583,336.941,340.321,345.217,349.018,352.82,358.81,363.104" svgx:width="0.71,0.4,0.55,0.42,0.42,0.67,0.48,0.33" style="fill:rgb(8,117,183);font-family:URWPalladioL-Roma;font-size:8.97px;stroke:none;">CrossRef</text>
   <text y="459.373" x="366.09" svgx:width="0.33" style="fill:rgb(0,0,0);font-family:URWPalladioL-Roma;font-size:8.97px;stroke:none;">]</text>
   <text y="472.285" x="76.535,81.018,85.501,87.74350000000001,98.05,102.959,105.524,113.307,118.119,123.02,128.15,132.557,135.122,140.251,144.658,146.9005,149.109,152.08,154.283,159.668,161.872,164.11450000000002,166.332,173.665,178.477,183.863,188.763,192.5,197.313,202.443,204.68550000000002,206.903,211.072,213.275,220.097,222.301,224.5435,226.76,232.084,236.306,239.62,243.842,246.407,251.219,259.002,263.409,265.6515,267.869,273.254,275.458,280.667,282.9095,285.118" svgx:width="0.5,0.5,0.25,0.55,0.61,0.29,0.88,0.55,0.56,0.58,0.5,0.29,0.58,0.5,0.25,0.55,0.34,0.25,0.61,0.25,0.25,0.55,0.83,0.55,0.61,0.56,0.42,0.55,0.58,0.25,0.55,0.6,0.25,0.77,0.25,0.25,0.55,0.6,0.48,0.4,0.48,0.29,0.55,0.88,0.5,0.25,0.55,0.61,0.25,0.72,0.25,0.55,0.61" style="fill:rgb(0,0,0);font-family:URWPalladioL-Roma;font-size:8.97px;stroke:none;">31. Timokhaina, I.B.; Hodgson, P.D.; Pereloma, E.V. E</text>
   <text y="472.285" x="290.502" svgx:width="0.61" style="fill:rgb(0,0,0);font-family:Rpxr;font-size:8.97px;stroke:none;">ﬀ</text>
   <text y="472.285" x="295.861,300.083,303.996,306.9561,309.117,313.93,316.8901,319.121,326.904,329.469,333.382,336.705,341.517,345.254,348.119,351.53,356.845,360.758,363.632,368.946,372.269,376.57460000000003,378.739,383.551,388.7536,390.937,393.811,398.94,403.2456,405.41,409.147,412.02,416.427,421.301,423.866,426.431,428.996,431.869,436.8922,439.026,443.839,446.7991,449.021,452.344,456.566,459.439,463.846,466.411,471.541,475.763,481.2347,483.396,487.803,493.118,496.855,499.728,503.95,509.08,511.645,514.518" svgx:width="0.48,0.44,0.33,0.55,0.55,0.33,0.55,0.88,0.29,0.44,0.4,0.55,0.42,0.33,0.4,0.6,0.44,0.33,0.6,0.4,0.48,0.55,0.55,0.58,0.55,0.33,0.58,0.48,0.55,0.42,0.33,0.5,0.55,0.29,0.29,0.29,0.33,0.56,0.55,0.55,0.33,0.55,0.4,0.48,0.33,0.5,0.29,0.58,0.48,0.61,0.55,0.5,0.6,0.42,0.33,0.48,0.58,0.29,0.33,0.48" style="fill:rgb(0,0,0);font-family:URWPalladioL-Roma;font-size:8.97px;stroke:none;">ect of microstructure on the stability of retained austenite</text>
   <text y="485.196" x="98.05,100.659,105.86160000000001,108.119,111.042,114.584,119.067,124.286,128.087,131.073,135.969,139.511,147.428,151.911,154.834,157.443,162.339,167.558,170.543,173.153,178.371,183.85,189.256,193.237,197.532,203.011,205.997,211.385,213.995,218.478,222.279,225.203,227.812,231.793,234.402,237.325,242.3482,244.552,248.354,251.277,255.572,259.867,262.476,266.278" svgx:width="0.29,0.58,0.55,0.33,0.4,0.5,0.58,0.42,0.33,0.55,0.4,0.88,0.5,0.33,0.29,0.55,0.58,0.33,0.29,0.58,0.61,0.6,0.44,0.48,0.61,0.33,0.6,0.29,0.5,0.42,0.33,0.29,0.44,0.29,0.33,0.56,0.55,0.42,0.33,0.48,0.48,0.29,0.42,0.25" style="fill:rgb(0,0,0);font-family:URWPalladioL-Roma;font-size:8.97px;stroke:none;">in transformation-induced-plasticity steels.</text>
   <text y="485.196" x="271.655,280.119,283.607,286.593,290.574,293.067,295.559,297.80150000000003,300.939,309.404,313.385,316.37,319.858,322.683,324.9255,328.063,332.546,336.034,340.015,345.0,348.488,350.7305,353.868" svgx:width="0.94,0.39,0.33,0.44,0.28,0.28,0.25,0.55,0.94,0.44,0.33,0.39,0.39,0.25,0.55,0.61,0.39,0.44,0.56,0.39,0.25,0.55,0.72" style="fill:rgb(0,0,0);font-family:URWPalladioL-Ital;font-size:8.97px;stroke:none;">Metall. Mater. Trans. A</text>
   <text y="485.196" x="362.582,367.065,371.548,376.032" svgx:width="0.5,0.5,0.5,0.5" style="fill:rgb(0,0,0);font-family:URWPalladioL-Bold;font-size:8.97px;stroke:none;">2004</text>
   <text y="485.196" x="380.515" svgx:width="0.25" style="fill:rgb(0,0,0);font-family:URWPalladioL-Roma;font-size:8.97px;stroke:none;">,</text>
   <text y="485.196" x="384.998,389.481" svgx:width="0.5,0.5" style="fill:rgb(0,0,0);font-family:URWPalladioL-Ital;font-size:8.97px;stroke:none;">35</text>
   <text y="485.196" x="393.964,396.2065,398.447,402.93,407.414,411.897,416.38,420.863,425.346,429.83,434.313,438.796,441.0385,444.176" svgx:width="0.25,0.55,0.5,0.5,0.5,0.5,0.5,0.5,0.5,0.5,0.5,0.25,0.55,0.33" style="fill:rgb(0,0,0);font-family:URWPalladioL-Roma;font-size:8.97px;stroke:none;">, 2331–2341. [</text>
   <text y="485.196" x="447.162,453.519,456.899,461.795,465.597,469.398,475.388,479.683" svgx:width="0.71,0.4,0.55,0.42,0.42,0.67,0.48,0.33" style="fill:rgb(8,117,183);font-family:URWPalladioL-Roma;font-size:8.97px;stroke:none;">CrossRef</text>
   <text y="485.196" x="482.669" svgx:width="0.33" style="fill:rgb(0,0,0);font-family:URWPalladioL-Roma;font-size:8.97px;stroke:none;">]</text>
   <text y="498.108" x="76.535,81.018,85.501,87.74350000000001,98.054,103.533,108.016,111.558,114.167,119.385,121.62750000000001,123.869,126.89" svgx:width="0.5,0.5,0.25,0.55,0.61,0.5,0.4,0.29,0.58,0.25,0.55,0.34,0.25" style="fill:rgb(0,0,0);font-family:URWPalladioL-Roma;font-size:8.97px;stroke:none;">32. Barin, I.</text>
   <text y="498.108" x="131.369,136.848,141.331,144.819,148.307,155.282,159.264,162.913,167.396,170.884,177.86,180.352,184.002,187.983,190.4946,192.717,199.693,203.674,206.66,210.6068,212.883,216.864,219.3756,221.598,227.076,232.062,235.388,238.8863,241.118,246.103,251.088,255.24,258.728,261.714,265.695,270.68,274.329,277.817" svgx:width="0.61,0.5,0.39,0.39,0.78,0.44,0.41,0.5,0.39,0.78,0.28,0.41,0.44,0.28,0.55,0.78,0.44,0.33,0.44,0.55,0.44,0.28,0.55,0.61,0.56,0.39,0.39,0.55,0.56,0.56,0.46,0.39,0.33,0.44,0.56,0.41,0.39,0.39" style="fill:rgb(0,0,0);font-family:URWPalladioL-Ital;font-size:8.97px;stroke:none;">Thermochemical Data of Pure Substances</text>
   <text y="498.108" x="281.303,283.5455,285.786,292.26,298.617,306.077,308.3195,310.56,318.702,322.997,325.606,330.824,336.043,340.338,342.947,350.864,353.1065,355.348,362.189,366.484,370.026,377.943,382.426,387.645,391.635,393.8775,396.118,400.601,405.084,409.567,414.051" svgx:width="0.25,0.55,0.72,0.71,0.83,0.25,0.55,1.0,0.48,0.29,0.58,0.58,0.48,0.29,0.88,0.25,0.55,0.76,0.48,0.4,0.88,0.5,0.58,0.56,0.25,0.55,0.5,0.5,0.5,0.5,0.25" style="fill:rgb(0,0,0);font-family:URWPalladioL-Roma;font-size:8.97px;stroke:none;">; VCH: Weinheim, Germany, 1995.</text>
   <text y="511.02" x="76.535,81.018,85.501,87.74350000000001,98.05,103.638,108.961,113.534,119.122,123.503,127.38,132.703,135.365,139.937,142.17950000000002,144.501,152.11,154.397,161.037" svgx:width="0.5,0.5,0.25,0.55,0.61,0.58,0.5,0.61,0.48,0.42,0.58,0.29,0.5,0.25,0.55,0.83,0.25,0.73,0.25" style="fill:rgb(0,0,0);font-family:URWPalladioL-Roma;font-size:8.97px;stroke:none;">33. Bhadeshia, H.K.</text>
   <text y="511.02" x="165.596,171.184,175.245,177.787,182.872,185.415,188.46,191.9583,194.295,196.838,201.8612,204.191,209.276,212.322,215.879,219.437,221.979" svgx:width="0.61,0.44,0.28,0.56,0.28,0.33,0.39,0.55,0.28,0.56,0.55,0.56,0.33,0.39,0.39,0.28,0.39" style="fill:rgb(0,0,0);font-family:URWPalladioL-Ital;font-size:8.97px;stroke:none;">Bainite in Steels</text>
   <text y="511.02" x="225.54,227.7825,230.113,234.686,240.009,245.48069999999998,247.865,252.246,257.834,260.12,262.3625,264.702,267.784,273.107,276.985,279.966,282.628,285.609,291.124,294.105,298.41060000000004,300.764,305.757,308.7171,311.071,319.723,324.296,327.277,331.658,335.27,337.932,342.505,345.166,349.044,351.2865,353.617,362.269,364.93,370.253,374.634,378.246,382.819,385.48,389.2474,391.635,396.208,401.531,407.0027,409.397,418.048,420.701,426.023,428.685,434.008,439.093,441.3355,444.589,450.177,455.171,460.494,466.082,471.075,476.398,478.64050000000003,480.971,488.086,494.726,496.9685,499.281,503.854,508.426,512.999,517.572" svgx:width="0.25,0.55,0.5,0.58,0.61,0.55,0.48,0.61,0.25,0.25,0.55,0.34,0.58,0.42,0.33,0.29,0.33,0.6,0.33,0.48,0.55,0.55,0.33,0.55,0.95,0.5,0.33,0.48,0.4,0.29,0.5,0.29,0.42,0.25,0.55,0.95,0.29,0.58,0.48,0.4,0.5,0.29,0.42,0.55,0.5,0.58,0.61,0.55,0.95,0.29,0.58,0.29,0.58,0.56,0.25,0.55,0.61,0.55,0.58,0.61,0.55,0.58,0.25,0.55,0.78,0.73,0.25,0.55,0.5,0.5,0.5,0.5,0.25" style="fill:rgb(0,0,0);font-family:URWPalladioL-Roma;font-size:8.97px;stroke:none;">, 2nd ed.; Institute of Materials, Minerals and Mining: London, UK, 2001;</text>
   <text y="523.931" x="97.781,103.17,108.559,110.8015,113.042,117.525,122.008,126.491,130.975,135.458,139.941,144.424" svgx:width="0.6,0.6,0.25,0.55,0.5,0.5,0.5,0.5,0.5,0.5,0.5,0.25" style="fill:rgb(0,0,0);font-family:URWPalladioL-Roma;font-size:8.97px;stroke:none;">pp. 265–268.</text>
   <text y="536.843" x="76.535,81.018,85.501,87.74350000000001,98.05,105.239,110.735,113.397,117.777,120.439,125.012,127.25450000000001,130.243,138.895,141.13750000000002,144.135,149.742,155.064,159.445,163.049,171.124,176.118,181.706,186.791,192.114,196.687,204.762,207.424,211.3708,214.439,219.011,224.334,228.907,231.568,236.654,240.531,243.193,246.96040000000002,250.015,255.009,257.96909999999997,260.999,263.981,269.304,273.6096,276.629,282.126,285.583,289.964,294.025,296.686,302.183,304.844,307.826,312.398,315.38,318.041,323.035,328.23760000000004,331.303,336.296,339.2561,342.287,346.347,350.92,354.533,359.59,364.584,369.907,372.568,375.55,379.162,381.824,387.412,391.792,395.5594,398.615,401.277,406.4796,409.553,417.629,420.29,424.351,427.799,432.793,437.366,440.027,442.688,447.682,452.767,457.148,462.6197,465.681,469.559,472.54,476.921,481.302,483.963,487.841" svgx:width="0.5,0.5,0.25,0.55,0.79,0.6,0.29,0.48,0.29,0.5,0.25,0.55,0.95,0.25,0.55,0.61,0.58,0.48,0.4,0.88,0.55,0.61,0.56,0.58,0.5,0.88,0.29,0.44,0.55,0.5,0.58,0.5,0.29,0.56,0.42,0.29,0.42,0.55,0.55,0.33,0.55,0.33,0.58,0.48,0.55,0.6,0.4,0.48,0.44,0.29,0.6,0.29,0.33,0.5,0.33,0.29,0.55,0.58,0.55,0.55,0.33,0.55,0.44,0.5,0.4,0.55,0.55,0.58,0.29,0.33,0.4,0.29,0.61,0.48,0.42,0.55,0.29,0.58,0.55,0.88,0.29,0.44,0.4,0.55,0.5,0.29,0.29,0.55,0.56,0.48,0.61,0.55,0.42,0.33,0.48,0.48,0.29,0.42,0.25" style="fill:rgb(0,0,0);font-family:URWPalladioL-Roma;font-size:8.97px;stroke:none;">34. Opiela, M. Thermodynamic analysis of the precipitation of carbonitrides in microalloyed steels.</text>
   <text y="536.843" x="495.383,504.017,508.077,511.123,514.68,517.57" svgx:width="0.94,0.44,0.33,0.39,0.39,0.25" style="fill:rgb(0,0,0);font-family:URWPalladioL-Ital;font-size:8.97px;stroke:none;">Mater.</text>
   <text y="549.754" x="97.504,101.987,105.475,109.124,113.608,118.593,122.574,125.067" svgx:width="0.61,0.39,0.41,0.5,0.56,0.44,0.28,0.25" style="fill:rgb(0,0,0);font-family:URWPalladioL-Ital;font-size:8.97px;stroke:none;">Technol.</text>
   <text y="549.754" x="130.446,134.929,139.412,143.896" svgx:width="0.5,0.5,0.5,0.5" style="fill:rgb(0,0,0);font-family:URWPalladioL-Bold;font-size:8.97px;stroke:none;">2015</text>
   <text y="549.754" x="148.378" svgx:width="0.25" style="fill:rgb(0,0,0);font-family:URWPalladioL-Roma;font-size:8.97px;stroke:none;">,</text>
   <text y="549.754" x="152.862,157.345" svgx:width="0.5,0.5" style="fill:rgb(0,0,0);font-family:URWPalladioL-Ital;font-size:8.97px;stroke:none;">49</text>
   <text y="549.754" x="161.828,164.0705,166.311,170.794,175.278,179.761,184.244,188.727,193.21,197.694,199.9365,203.073" svgx:width="0.25,0.55,0.5,0.5,0.5,0.5,0.5,0.5,0.5,0.25,0.55,0.33" style="fill:rgb(0,0,0);font-family:URWPalladioL-Roma;font-size:8.97px;stroke:none;">, 395–401. [</text>
   <text y="549.754" x="206.059,212.416,215.797,220.692,224.494,228.296,234.285,238.58" svgx:width="0.71,0.4,0.55,0.42,0.42,0.67,0.48,0.33" style="fill:rgb(8,117,183);font-family:URWPalladioL-Roma;font-size:8.97px;stroke:none;">CrossRef</text>
   <text y="549.754" x="241.566" svgx:width="0.33" style="fill:rgb(0,0,0);font-family:URWPalladioL-Roma;font-size:8.97px;stroke:none;">]</text>
   <text y="562.666" x="76.535,81.018,85.501,87.74350000000001,98.05,103.911,109.21,113.419,115.6615,117.672,123.04,125.237,127.4795,129.543,134.156,139.27,143.664,148.778,151.0205,153.031,157.899,160.096,162.3385,164.401,170.262,175.376,179.585,184.699,189.585,191.82750000000001,193.838,198.451,200.648,202.8905,204.962,210.331,215.129,220.428,222.6705,224.672,229.285,231.5275,233.538,241.85,244.407,248.309,251.613,256.411,260.136,263.001,266.401,271.7,275.602,278.466,283.765,287.236,291.629,294.2303,296.242,300.144,305.258,309.651,313.122,317.516,321.417,324.282,328.491,331.962,334.519,338.245,341.109,343.666,347.6128,349.615,354.413,357.3731,359.395,361.952,366.75,376.126,380.027,384.421,387.892,392.751,397.548,402.7506,404.719,412.478,415.035,418.936,422.24,427.038,431.431,433.988,436.545,441.343,446.229,450.438,455.9097,457.863,461.589,464.453,468.662,472.871,475.428,479.1954,481.21,486.491,489.795,494.593,499.962,505.26,509.162,513.371" svgx:width="0.5,0.5,0.25,0.55,0.67,0.6,0.48,0.25,0.55,0.61,0.25,0.25,0.55,0.52,0.58,0.5,0.58,0.25,0.55,0.67,0.25,0.25,0.55,0.67,0.58,0.48,0.58,0.56,0.25,0.55,0.52,0.25,0.25,0.55,0.61,0.55,0.6,0.25,0.55,0.52,0.25,0.55,0.95,0.29,0.44,0.4,0.55,0.42,0.33,0.4,0.6,0.44,0.33,0.6,0.4,0.5,0.29,0.55,0.44,0.58,0.5,0.4,0.5,0.44,0.33,0.48,0.4,0.29,0.42,0.33,0.29,0.44,0.55,0.55,0.33,0.55,0.29,0.55,0.83,0.44,0.5,0.4,0.55,0.55,0.58,0.55,0.88,0.29,0.44,0.4,0.55,0.5,0.29,0.29,0.55,0.56,0.48,0.61,0.55,0.42,0.33,0.48,0.48,0.29,0.42,0.55,0.6,0.4,0.55,0.61,0.6,0.44,0.48,0.61" style="fill:rgb(0,0,0);font-family:URWPalladioL-Roma;font-size:8.97px;stroke:none;">35. Xue, E.; Shan, Y.; Zheng, S.; Lou, S. Microstructural characteristic of lowcarbon microalloyed steels produced</text>
   <text y="575.578" x="98.05,103.008,108.0312,110.235,113.158,117.453,120.995,128.912,133.808,141.725,146.02,150.001,155.22,159.703,164.921,167.531,171.512,175.995,178.5963,180.846,184.827,189.722,194.941,197.864,201.244,206.14,208.749,211.358,215.653,221.1247,223.373,228.762,232.143,237.038,241.019,245.314,249.116,252.918" svgx:width="0.55,0.56,0.55,0.33,0.48,0.4,0.88,0.55,0.88,0.48,0.44,0.58,0.5,0.58,0.29,0.44,0.5,0.29,0.55,0.44,0.55,0.58,0.33,0.4,0.55,0.29,0.29,0.48,0.61,0.55,0.6,0.4,0.55,0.44,0.48,0.42,0.42,0.25" style="fill:rgb(0,0,0);font-family:URWPalladioL-Roma;font-size:8.97px;stroke:none;">by termomechanical controlled process.</text>
   <text y="575.578" x="258.296,266.76,270.741,273.727,277.215,280.04,282.2825,285.419,290.405,294.054,296.547,298.78950000000003,301.927,307.405,312.39,316.874" svgx:width="0.94,0.44,0.33,0.39,0.39,0.25,0.55,0.56,0.41,0.28,0.25,0.55,0.61,0.56,0.5,0.25" style="fill:rgb(0,0,0);font-family:URWPalladioL-Ital;font-size:8.97px;stroke:none;">Mater. Sci. Eng.</text>
   <text y="575.578" x="322.252,326.735,331.218,335.702" svgx:width="0.5,0.5,0.5,0.5" style="fill:rgb(0,0,0);font-family:URWPalladioL-Bold;font-size:8.97px;stroke:none;">2006</text>
   <text y="575.578" x="340.185" svgx:width="0.25" style="fill:rgb(0,0,0);font-family:URWPalladioL-Roma;font-size:8.97px;stroke:none;">,</text>
   <text y="575.578" x="344.668,349.151,353.634" svgx:width="0.5,0.5,0.5" style="fill:rgb(0,0,0);font-family:URWPalladioL-Ital;font-size:8.97px;stroke:none;">438</text>
   <text y="575.578" x="358.118,360.3605,362.601,367.084,371.568,376.051,380.534,385.017,389.501,393.984,396.2265,399.364" svgx:width="0.25,0.55,0.5,0.5,0.5,0.5,0.5,0.5,0.5,0.25,0.55,0.33" style="fill:rgb(0,0,0);font-family:URWPalladioL-Roma;font-size:8.97px;stroke:none;">, 285–287. [</text>
   <text y="575.578" x="402.349,408.707,412.087,416.983,420.784,424.586,430.576,434.871" svgx:width="0.71,0.4,0.55,0.42,0.42,0.67,0.48,0.33" style="fill:rgb(8,117,183);font-family:URWPalladioL-Roma;font-size:8.97px;stroke:none;">CrossRef</text>
   <text y="575.578" x="437.856" svgx:width="0.33" style="fill:rgb(0,0,0);font-family:URWPalladioL-Roma;font-size:8.97px;stroke:none;">]</text>
   <text y="588.489" x="76.535,81.018,85.501,87.74350000000001,98.05,106.363,110.572,115.94,118.498,123.612,128.005,130.2475,132.284,136.898,139.094,143.154,145.351,147.5935,149.692,156.396,161.194,168.953,173.162,177.555,179.7975,181.835,190.147,192.344,194.5865,196.676,203.381,208.178,215.937,220.146,224.54,226.7825,228.819,232.975,235.2175,237.255" svgx:width="0.5,0.5,0.25,0.55,0.95,0.48,0.61,0.29,0.58,0.5,0.25,0.55,0.52,0.25,0.56,0.25,0.25,0.55,0.76,0.55,0.88,0.48,0.5,0.25,0.55,0.95,0.25,0.25,0.55,0.76,0.55,0.88,0.48,0.5,0.25,0.55,0.6,0.25,0.55,0.61" style="fill:rgb(0,0,0);font-family:URWPalladioL-Roma;font-size:8.97px;stroke:none;">36. Medina, S.F.; Gomez, M.; Gomez, P. E</text>
   <text y="588.489" x="242.624" svgx:width="0.61" style="fill:rgb(0,0,0);font-family:Rpxr;font-size:8.97px;stroke:none;">ﬀ</text>
   <text y="588.489" x="247.967,252.176,256.077,258.942,262.7094,264.75,269.548,272.5081,274.565,281.0234,282.992,287.386,292.5,297.9717,299.951,307.253,312.18649999999997,314.195,318.993,324.1956,326.198,329.924,332.789,337.182,340.047,342.604,346.5508,348.588,351.892,356.101,360.002,363.473,368.359,372.084,374.949,379.342,381.9,384.457,387.014,391.407,395.801,398.665,401.222,406.02,411.2226,413.225,418.023,420.98310000000004,423.032,427.425,432.724,436.45,439.314,443.523,448.637,451.194,454.059,458.36460000000005,460.35,464.744,469.858,475.3297,477.31,482.591,485.903,490.112,494.014,496.571,501.852,504.409,507.273,511.667,514.532" svgx:width="0.48,0.44,0.33,0.42,0.55,0.55,0.33,0.55,0.72,0.55,0.5,0.58,0.61,0.55,0.83,0.55,0.55,0.55,0.58,0.55,0.42,0.33,0.5,0.33,0.29,0.44,0.55,0.4,0.48,0.44,0.4,0.56,0.42,0.33,0.5,0.29,0.29,0.29,0.5,0.5,0.33,0.29,0.55,0.58,0.55,0.55,0.33,0.55,0.5,0.6,0.42,0.33,0.48,0.58,0.29,0.33,0.48,0.55,0.5,0.58,0.61,0.55,0.6,0.4,0.48,0.44,0.29,0.6,0.29,0.33,0.5,0.33,0.48" style="fill:rgb(0,0,0);font-family:URWPalladioL-Roma;font-size:8.97px;stroke:none;">ects of V and Nb on static recrystallization of austenite and precipitate</text>
   <text y="601.401" x="98.05,101.852,104.461,108.944,113.2496,115.481,118.09,123.29260000000001,125.55,133.467,136.077,140.058,143.438,148.334,152.817,155.426,158.035,162.931,167.916,172.211,177.6827,179.931,183.733,186.656,190.951,195.246,197.855,201.657" svgx:width="0.42,0.29,0.5,0.48,0.55,0.29,0.58,0.55,0.88,0.29,0.44,0.4,0.55,0.5,0.29,0.29,0.55,0.56,0.48,0.61,0.55,0.42,0.33,0.48,0.48,0.29,0.42,0.25" style="fill:rgb(0,0,0);font-family:URWPalladioL-Roma;font-size:8.97px;stroke:none;">size in microalloyed steels.</text>
   <text y="601.401" x="207.035,210.021,212.2635,214.504,222.968,226.949,229.935,233.423,236.248,238.4905,241.627,246.613,250.262,252.755" svgx:width="0.33,0.25,0.55,0.94,0.44,0.33,0.39,0.39,0.25,0.55,0.56,0.41,0.28,0.25" style="fill:rgb(0,0,0);font-family:URWPalladioL-Ital;font-size:8.97px;stroke:none;">J. Mater. Sci.</text>
   <text y="601.401" x="258.134,262.617,267.1,271.584" svgx:width="0.5,0.5,0.5,0.5" style="fill:rgb(0,0,0);font-family:URWPalladioL-Bold;font-size:8.97px;stroke:none;">2010</text>
   <text y="601.401" x="276.067" svgx:width="0.25" style="fill:rgb(0,0,0);font-family:URWPalladioL-Roma;font-size:8.97px;stroke:none;">,</text>
   <text y="601.401" x="280.55,285.033" svgx:width="0.5,0.5" style="fill:rgb(0,0,0);font-family:URWPalladioL-Ital;font-size:8.97px;stroke:none;">45</text>
   <text y="601.401" x="289.517,291.7595,294.0,298.483,302.967,307.45,311.933,316.416,320.9,325.383,329.866,334.349,336.5915,339.729" svgx:width="0.25,0.55,0.5,0.5,0.5,0.5,0.5,0.5,0.5,0.5,0.5,0.25,0.55,0.33" style="fill:rgb(0,0,0);font-family:URWPalladioL-Roma;font-size:8.97px;stroke:none;">, 5553–5557. [</text>
   <text y="601.401" x="342.715,349.072,352.452,357.348,361.15,364.952,370.941,375.236" svgx:width="0.71,0.4,0.55,0.42,0.42,0.67,0.48,0.33" style="fill:rgb(8,117,183);font-family:URWPalladioL-Roma;font-size:8.97px;stroke:none;">CrossRef</text>
   <text y="601.401" x="378.222" svgx:width="0.33" style="fill:rgb(0,0,0);font-family:URWPalladioL-Roma;font-size:8.97px;stroke:none;">]</text>
   <text y="614.312" x="76.535,81.018,85.501,87.74350000000001,98.054,105.505,108.115,111.916,117.135,119.744,124.64,129.625,134.108,136.3505,138.583,145.092,147.334,149.5765,151.808,154.83,158.811,164.029,166.638,171.624,176.107,183.585,188.068,190.31050000000002,192.551,199.061,201.3035,203.535,208.951,212.331,217.227,222.212,225.593,229.887,233.689,237.4564,239.724,242.333,247.5356,249.784,252.707,257.002,260.544,268.461,273.357,281.274,285.569,289.55,294.768,299.252,304.47,307.079,311.06,315.543,318.1443,320.394,324.375,329.271,334.489,337.413,340.793,345.688,348.28929999999997,350.53,355.426,358.3861,360.644,364.446,367.369,371.664,375.959,378.5603,380.801,386.19,388.799,393.282,396.205,400.5,404.2674,406.543,411.027,416.245,421.7167,423.956,426.879,432.098,436.393,439.002,442.59000000000003,444.776,448.757,453.653,461.57,469.488,473.782,477.163,481.144,483.753,488.236,490.845,493.455,497.938,502.421,505.344,507.953,512.849,518.067" svgx:width="0.5,0.5,0.25,0.55,0.83,0.29,0.42,0.58,0.29,0.55,0.56,0.5,0.25,0.55,0.73,0.25,0.25,0.55,0.34,0.44,0.58,0.29,0.56,0.5,0.83,0.5,0.25,0.55,0.73,0.25,0.55,0.6,0.4,0.55,0.56,0.4,0.48,0.42,0.42,0.55,0.29,0.58,0.55,0.33,0.48,0.4,0.88,0.55,0.88,0.48,0.44,0.58,0.5,0.58,0.29,0.44,0.5,0.29,0.55,0.44,0.55,0.58,0.33,0.4,0.55,0.29,0.55,0.55,0.33,0.55,0.42,0.33,0.48,0.48,0.29,0.55,0.6,0.29,0.5,0.33,0.48,0.42,0.55,0.5,0.58,0.61,0.55,0.33,0.58,0.48,0.29,0.4,0.55,0.44,0.55,0.88,0.88,0.48,0.4,0.44,0.29,0.5,0.29,0.29,0.5,0.5,0.33,0.29,0.55,0.58,0.25" style="fill:rgb(0,0,0);font-family:URWPalladioL-Roma;font-size:8.97px;stroke:none;">37. Nishioka, K.; Ichikawa, K. Progress in termomechanical control of steel plates and their commercialization.</text>
   <text y="627.224" x="97.799,102.784,106.434,108.926,111.16850000000001,114.306,118.789,122.277,125.927,130.41,135.395,139.376,141.869,144.1115,147.249,153.722,158.206,162.196,164.4385,167.576,176.04,180.021,183.007,186.495,189.319" svgx:width="0.56,0.41,0.28,0.25,0.55,0.61,0.39,0.41,0.5,0.56,0.44,0.28,0.25,0.55,0.72,0.5,0.5,0.25,0.55,0.94,0.44,0.33,0.39,0.39,0.25" style="fill:rgb(0,0,0);font-family:URWPalladioL-Ital;font-size:8.97px;stroke:none;">Sci. Technol. Adv. Mater.</text>
   <text y="627.224" x="194.698,199.181,203.664,208.148" svgx:width="0.5,0.5,0.5,0.5" style="fill:rgb(0,0,0);font-family:URWPalladioL-Bold;font-size:8.97px;stroke:none;">2012</text>
   <text y="627.224" x="212.631" svgx:width="0.25" style="fill:rgb(0,0,0);font-family:URWPalladioL-Roma;font-size:8.97px;stroke:none;">,</text>
   <text y="627.224" x="217.114,221.597" svgx:width="0.5,0.5" style="fill:rgb(0,0,0);font-family:URWPalladioL-Ital;font-size:8.97px;stroke:none;">13</text>
   <text y="627.224" x="226.08,228.32250000000002,230.563,235.046,239.53,244.013,248.496,252.979,257.462,259.7045,262.842" svgx:width="0.25,0.55,0.5,0.5,0.5,0.5,0.5,0.5,0.25,0.55,0.33" style="fill:rgb(0,0,0);font-family:URWPalladioL-Roma;font-size:8.97px;stroke:none;">, 023001. [</text>
   <text y="627.224" x="265.828,272.185,275.566,280.461,284.263,288.065,294.054,298.349" svgx:width="0.71,0.4,0.55,0.42,0.42,0.67,0.48,0.33" style="fill:rgb(8,117,183);font-family:URWPalladioL-Roma;font-size:8.97px;stroke:none;">CrossRef</text>
   <text y="627.224" x="301.335,304.2951,306.562" svgx:width="0.33,0.55,0.33" style="fill:rgb(0,0,0);font-family:URWPalladioL-Roma;font-size:8.97px;stroke:none;">] [</text>
   <text y="627.224" x="309.548,314.964,320.371,325.329,333.811,338.106" svgx:width="0.6,0.6,0.55,0.95,0.48,0.61" style="fill:rgb(8,117,183);font-family:URWPalladioL-Roma;font-size:8.97px;stroke:none;">PubMed</text>
   <text y="627.224" x="343.585" svgx:width="0.33" style="fill:rgb(0,0,0);font-family:URWPalladioL-Roma;font-size:8.97px;stroke:none;">]</text>
   <text y="640.136" x="76.535,81.018,85.501,87.74350000000001,98.05" svgx:width="0.5,0.5,0.25,0.55,0.76" style="fill:rgb(0,0,0);font-family:URWPalladioL-Roma;font-size:8.97px;stroke:none;">38. G</text>
   <text y="640.136" x="104.755" svgx:width="0.55" style="fill:rgb(0,0,0);font-family:VnURWPalladioL;font-size:8.97px;stroke:none;">ó</text>
   <text y="640.136" x="109.651,113.122,118.008,122.401,124.6435,126.487,129.413,131.65550000000002,133.499,140.335,144.061,147.787,151.996,155.722,159.447,167.206,171.415,176.529,179.4891,181.283,186.081,189.0411,190.896,195.51,198.374,202.583,206.792,209.3933,211.238,215.852,221.15,226.009,228.066,232.275,236.176,239.041,243.25,248.7217,250.508,253.372,258.3055,260.059,262.924,268.038,272.34360000000004,274.136,279.523,284.637,288.846,292.317,300.076,304.873,312.632,316.841,320.743,325.857,330.25,335.365,337.922,341.823,346.217,348.81829999999997,350.663,356.893,361.691,366.805,369.669,372.973,377.771,380.3723,382.217,387.525,390.837,395.635,399.536,403.745,407.471,411.2384,413.086,420.415,422.972,425.836,431.03860000000003,432.839,438.709,442.918,446.644,451.925,456.134,460.035,462.99510000000004,464.789,467.654,472.5875,474.341,482.302,486.511,489.068,494.437,498.83,503.69,506.247,508.804,511.361,514.225,518.109" svgx:width="0.4,0.56,0.5,0.25,0.55,0.33,0.25,0.55,0.78,0.42,0.42,0.48,0.42,0.42,0.88,0.48,0.58,0.33,0.55,0.55,0.33,0.55,0.52,0.33,0.48,0.48,0.29,0.55,0.52,0.6,0.55,0.23,0.48,0.44,0.33,0.48,0.61,0.55,0.33,0.55,0.55,0.33,0.58,0.48,0.55,0.61,0.58,0.48,0.4,0.88,0.55,0.88,0.48,0.44,0.58,0.5,0.58,0.29,0.44,0.5,0.29,0.55,0.71,0.55,0.58,0.33,0.4,0.55,0.29,0.55,0.6,0.4,0.55,0.44,0.48,0.42,0.42,0.55,0.83,0.29,0.33,0.58,0.55,0.67,0.48,0.42,0.6,0.48,0.44,0.33,0.55,0.33,0.55,0.55,1.0,0.48,0.29,0.61,0.5,0.55,0.29,0.29,0.29,0.33,0.56,0.25" style="fill:rgb(0,0,0);font-family:URWPalladioL-Roma;font-size:8.97px;stroke:none;">rka, J. Assessment of Steel Subjected to the Thermomechanical Control Process with Respect to Weldability.</text>
   <text y="653.047" x="98.05,106.514,110.002,112.988,116.969,119.462" svgx:width="0.94,0.39,0.33,0.44,0.28,0.39" style="fill:rgb(0,0,0);font-family:URWPalladioL-Ital;font-size:8.97px;stroke:none;">Metals</text>
   <text y="653.047" x="125.191,129.674,134.157,138.641" svgx:width="0.5,0.5,0.5,0.5" style="fill:rgb(0,0,0);font-family:URWPalladioL-Bold;font-size:8.97px;stroke:none;">2018</text>
   <text y="653.047" x="143.124" svgx:width="0.25" style="fill:rgb(0,0,0);font-family:URWPalladioL-Roma;font-size:8.97px;stroke:none;">,</text>
   <text y="653.047" x="147.607" svgx:width="0.5" style="fill:rgb(0,0,0);font-family:URWPalladioL-Ital;font-size:8.97px;stroke:none;">8</text>
   <text y="653.047" x="152.09,154.3325,156.573,161.056,165.54,170.023,172.2655,175.403" svgx:width="0.25,0.55,0.5,0.5,0.5,0.25,0.55,0.33" style="fill:rgb(0,0,0);font-family:URWPalladioL-Roma;font-size:8.97px;stroke:none;">, 169. [</text>
   <text y="653.047" x="178.388,184.746,188.126,193.022,196.823,200.625,206.615,210.91" svgx:width="0.71,0.4,0.55,0.42,0.42,0.67,0.48,0.33" style="fill:rgb(8,117,183);font-family:URWPalladioL-Roma;font-size:8.97px;stroke:none;">CrossRef</text>
   <text y="653.047" x="213.895" svgx:width="0.33" style="fill:rgb(0,0,0);font-family:URWPalladioL-Roma;font-size:8.97px;stroke:none;">]</text>
   <text y="665.959" x="76.535,81.018,85.501,87.74350000000001,98.05,105.607,108.25,111.838,115.689,119.722,125.008,127.2505,129.513,133.846,136.117,141.666,143.937,146.17950000000002,148.451,156.008,160.968,168.543,171.177,175.528,177.7705,180.042,185.592,187.862,190.1045,192.367,199.915,202.559,206.591,211.878,216.837,219.48,223.331,228.291,233.577,235.8195,238.091,245.158,247.428,256.021,258.292,260.5345,262.797,268.283,272.824,276.676,281.962,286.313,288.956,293.306,297.357,299.59950000000003,301.872,308.902,311.173,319.429,321.7,323.9425,326.214,335.297,340.583,344.934,347.577,352.11,357.396,359.6385,361.91,370.503,372.773,375.798" svgx:width="0.5,0.5,0.25,0.55,0.83,0.29,0.4,0.42,0.44,0.58,0.25,0.55,0.6,0.25,0.61,0.25,0.25,0.55,0.83,0.55,0.83,0.29,0.48,0.25,0.55,0.61,0.25,0.25,0.55,0.83,0.29,0.44,0.58,0.55,0.29,0.42,0.55,0.58,0.25,0.55,0.78,0.25,0.95,0.25,0.25,0.55,0.6,0.5,0.42,0.58,0.48,0.29,0.48,0.56,0.25,0.55,0.77,0.25,1.0,0.25,0.25,0.55,1.0,0.58,0.48,0.29,0.5,0.58,0.25,0.55,0.95,0.25,0.33,0.25" style="fill:rgb(0,0,0);font-family:URWPalladioL-Roma;font-size:8.97px;stroke:none;">39. Hirsch, P.B.; Howie, B.; Nicholson, A.M.; Pasheley, D.W.; Whelan, M.J.</text>
   <text y="665.959" x="380.305,385.855,388.38,391.913,395.61,398.634,402.004,406.037,411.06019999999995,413.322,421.896,424.421,428.118,431.497,435.529,439.063,442.759,446.792,451.334,455.819,458.11,462.142,464.6536,466.902,472.452,476.993,479.518,484.54119999999995,486.812,492.87,496.403,500.945,504.478,507.503,511.536,514.061" svgx:width="0.61,0.28,0.39,0.41,0.33,0.39,0.44,0.56,0.55,0.94,0.28,0.41,0.39,0.44,0.39,0.41,0.44,0.5,0.5,0.55,0.44,0.28,0.55,0.61,0.5,0.28,0.56,0.55,0.67,0.39,0.5,0.39,0.33,0.44,0.28,0.39" style="fill:rgb(0,0,0);font-family:URWPalladioL-Ital;font-size:8.97px;stroke:none;">Electron Microscopy of Thin Crystals</text>
   <text y="665.959" x="517.59" svgx:width="0.25" style="fill:rgb(0,0,0);font-family:URWPalladioL-Roma;font-size:8.97px;stroke:none;">;</text>
   <text y="678.871" x="98.05,103.528,108.935,111.858,114.781,119.076,122.618,130.096,134.992,138.533,141.456,146.675,150.477,152.7195,155.856,161.335,166.231,171.449,176.927,181.823,187.042,189.2845,191.525,198.501,205.01,207.2525,209.493,213.977,218.46,222.943,227.426" svgx:width="0.61,0.6,0.33,0.33,0.48,0.4,0.83,0.55,0.4,0.33,0.58,0.42,0.25,0.55,0.61,0.55,0.58,0.61,0.55,0.58,0.25,0.55,0.78,0.73,0.25,0.55,0.5,0.5,0.5,0.5,0.25" style="fill:rgb(0,0,0);font-family:URWPalladioL-Roma;font-size:8.97px;stroke:none;">Butterworths: London, UK, 1965.</text>
   <text y="691.782" x="76.535,81.018,85.501" svgx:width="0.5,0.5,0.25" style="fill:rgb(0,0,0);font-family:URWPalladioL-Roma;font-size:8.97px;stroke:none;">40.</text>
   <text y="691.782" x="98.05,100.976,105.862,114.42,118.814,123.207,127.601,131.994,136.388,139.314,143.708,145.904,150.298,154.691,159.085,163.57000000000002,165.201,173.32,176.738,179.181,183.575,186.017,190.903,195.297,198.223,203.592,206.034,209.453,213.029,215.955,219.206,223.108,227.993,231.4913,233.134,237.035,241.921,246.406,248.037,252.922,256.824,260.242,263.66,267.15830000000005,268.8,274.169,277.588,281.489,290.048,298.167,301.585,304.028,308.421,311.84,316.325,317.955,320.881,324.783,327.226,332.111,335.037,338.456,341.382,347.726,352.612,355.054,359.448,363.349,368.235,371.811,375.3093,376.952,380.853,385.8762,387.461,394.297,399.183,403.084,405.527,407.97,410.896,415.38100000000003,417.012,421.898,425.316,429.709,433.127,435.57,439.0683,440.711,443.154,447.055,450.55330000000004,452.195,455.121,461.958,466.351,469.77,473.188,475.631,479.049,482.625,485.551,487.994,491.895,496.781,500.199,503.125,508.494,512.396,515.814" svgx:width="0.33,0.56,0.78,0.5,0.5,0.5,0.5,0.5,0.33,0.5,0.25,0.5,0.5,0.5,0.5,0.55,0.94,0.39,0.28,0.5,0.28,0.56,0.5,0.33,0.61,0.28,0.39,0.41,0.33,0.39,0.44,0.56,0.39,0.55,0.44,0.56,0.5,0.55,0.56,0.44,0.39,0.39,0.39,0.55,0.61,0.39,0.44,0.78,0.94,0.39,0.28,0.5,0.39,0.5,0.55,0.33,0.44,0.28,0.56,0.33,0.39,0.33,0.72,0.56,0.28,0.5,0.44,0.56,0.41,0.39,0.55,0.44,0.56,0.55,0.78,0.56,0.44,0.28,0.28,0.33,0.5,0.55,0.56,0.39,0.5,0.39,0.28,0.39,0.55,0.28,0.44,0.39,0.55,0.33,0.78,0.5,0.39,0.39,0.28,0.39,0.41,0.33,0.28,0.44,0.56,0.39,0.33,0.61,0.44,0.39,0.33" style="fill:rgb(0,0,0);font-family:URWPalladioL-Ital;font-size:8.97px;stroke:none;">ISO13919-1:2002 Welding-Electrons and Laser BeamWelded Joints-Guidance on Quality Levels for Imperfections-Part</text>
   <text y="704.694" x="97.602,102.085,104.3275,107.465,112.45,115.436,118.924,122.412" svgx:width="0.5,0.25,0.55,0.56,0.33,0.39,0.39,0.28" style="fill:rgb(0,0,0);font-family:URWPalladioL-Ital;font-size:8.97px;stroke:none;">1: Steel</text>
   <text y="704.694" x="124.904,127.1465,129.387,132.409,137.116,144.164,146.4065,148.647,155.488,159.783,165.002,169.297,174.363,178.846,181.0885,183.329,188.036,195.514,198.124,201.047,205.53,209.825,213.367,215.976,220.459,225.677,231.156,233.3985,235.639,240.122,244.605,249.089,253.572" svgx:width="0.25,0.55,0.34,0.52,0.79,0.25,0.55,0.76,0.48,0.58,0.48,0.56,0.5,0.25,0.55,0.52,0.83,0.29,0.33,0.5,0.48,0.4,0.29,0.5,0.58,0.61,0.25,0.55,0.5,0.5,0.5,0.5,0.25" style="fill:rgb(0,0,0);font-family:URWPalladioL-Roma;font-size:8.97px;stroke:none;">; ISO: Geneva, Switzerland, 2002.</text>
  </g>
  <rect style="fill:pink;opacity:0.2;stroke:blue;stroke-width:0.3;" x="77.56" y="677.266" height="29.098" width="83.136" title="20"/>
  <text y="677.266" class="image" id="image.20.1" width="83" height="29" x="77.56" style="font-size:5.0px;">image.20.1.78_161.677_706</text>
  <g begin="text">
   <text y="725.571" x="167.778" svgx:width="0.91" style="fill:rgb(0,0,0);font-family:Rpcxr;font-size:8.97px;stroke:none;">©</text>
   <text y="725.571" x="178.171,182.744,187.317,191.89,196.375,198.721,203.779,208.8022,211.123,214.105,219.427,223.7326,226.067,230.64,236.155,239.136,244.459,249.453,252.407,254.64950000000002,257.885,263.473,266.135,270.195,274.576,279.899,283.777,288.157,292.4626,294.797,303.449,310.528,316.052,319.134,321.3765,323.68,329.268,333.84,337.718,342.099,344.76,347.0025,349.315,354.116,361.744,364.405,367.387,371.96,376.341,379.953,382.615,387.187,392.51,398.098,400.3405,403.577,409.183,414.506,417.167,420.9344,423.313,427.886,431.498,434.48,437.141,441.202,443.863,448.1686,450.503,453.165,456.93240000000003,459.301,463.874,469.07660000000004,471.456,476.45,481.946,486.327,491.5296,493.909,498.482,502.543,506.603,510.984,514.862" svgx:width="0.5,0.5,0.5,0.5,0.55,0.55,0.56,0.55,0.33,0.58,0.48,0.55,0.5,0.6,0.33,0.58,0.55,0.4,0.25,0.55,0.61,0.29,0.44,0.48,0.58,0.42,0.48,0.48,0.55,0.95,0.77,0.6,0.34,0.25,0.55,0.61,0.5,0.42,0.48,0.29,0.25,0.55,0.52,0.83,0.29,0.33,0.5,0.48,0.4,0.29,0.5,0.58,0.61,0.25,0.55,0.61,0.58,0.29,0.42,0.55,0.5,0.4,0.33,0.29,0.44,0.29,0.48,0.55,0.29,0.42,0.55,0.5,0.58,0.55,0.55,0.6,0.48,0.58,0.55,0.5,0.44,0.44,0.48,0.42,0.42" style="fill:rgb(0,0,0);font-family:URWPalladioL-Roma;font-size:8.97px;stroke:none;">2020 by the author. Licensee MDPI, Basel, Switzerland. This article is an open access</text>
   <text y="738.483" x="169.401,173.898,177.45,180.382,182.999,186.992,189.609,193.9146,196.147,201.642,204.259,208.072,211.004,214.556,217.173,222.147,227.57,230.501,234.809,240.2807,242.534,247.957,253.192,258.686,262.994,266.58200000000005,268.777,271.709,276.943,281.2486,283.472,286.404,290.712,294.264,302.205,305.9724,308.249,312.745,317.979,323.4507,325.705,329.698,334.608,339.842,345.337,347.954,350.886,353.503,358.413,363.647,367.4144,369.691,374.601,377.5611,379.826,382.758,387.992,392.29760000000005,394.53,400.907,404.297,408.605,413.102,416.033,418.65,423.732,428.03760000000005,430.27,436.646,441.556,449.497,457.439,462.349,467.583,471.35040000000004,473.626,480.623,483.555,486.478,490.03,492.647,497.621,503.044,505.975,508.592,513.503" svgx:width="0.5,0.4,0.33,0.29,0.44,0.29,0.48,0.55,0.61,0.29,0.42,0.33,0.4,0.29,0.55,0.6,0.33,0.48,0.61,0.55,0.6,0.58,0.61,0.48,0.4,0.55,0.33,0.58,0.48,0.55,0.33,0.48,0.4,0.88,0.42,0.55,0.5,0.58,0.61,0.55,0.44,0.55,0.58,0.61,0.29,0.33,0.29,0.55,0.58,0.42,0.55,0.55,0.33,0.55,0.33,0.58,0.48,0.55,0.71,0.4,0.48,0.5,0.33,0.29,0.56,0.48,0.55,0.71,0.55,0.88,0.88,0.55,0.58,0.42,0.55,0.78,0.33,0.33,0.4,0.29,0.55,0.6,0.33,0.29,0.55,0.58" style="fill:rgb(0,0,0);font-family:URWPalladioL-Roma;font-size:8.97px;stroke:none;">article distributed under the terms and conditions of the Creative Commons Attribution</text>
   <text y="751.395" x="169.105,172.091,178.448,184.8167,187.047,192.525,198.506,201.4661,203.733,206.342,208.952,212.933,217.228,222.446,226.248,230.5536,232.784,235.77,240.989,243.912,246.835,252.224" svgx:width="0.33,0.71,0.71,0.55,0.61,0.67,0.33,0.55,0.29,0.29,0.44,0.48,0.58,0.42,0.48,0.55,0.33,0.58,0.33,0.33,0.6,0.25" style="fill:rgb(0,0,0);font-family:URWPalladioL-Roma;font-size:8.97px;stroke:none;">(CC BY) license (http:</text>
   <text y="751.395" x="254.464,257.037" svgx:width="0.29,0.29" style="fill:rgb(0,0,0);font-family:Rpxr;font-size:8.97px;stroke:none;">//</text>
   <text y="751.395" x="259.611,263.592,266.972,271.267,275.75,278.674,281.283,286.349,290.644,294.625,299.52,307.438,315.355,320.251,325.469,329.271,331.513,336.408,339.788" svgx:width="0.44,0.4,0.48,0.5,0.33,0.29,0.56,0.48,0.44,0.55,0.88,0.88,0.55,0.58,0.42,0.25,0.55,0.4,0.56" style="fill:rgb(0,0,0);font-family:URWPalladioL-Roma;font-size:8.97px;stroke:none;">creativecommons.org</text>
   <text y="751.395" x="344.773" svgx:width="0.29" style="fill:rgb(0,0,0);font-family:Rpxr;font-size:8.97px;stroke:none;">/</text>
   <text y="751.395" x="347.346,349.955,352.564,356.546,360.84,366.059,369.861,374.156" svgx:width="0.29,0.29,0.44,0.48,0.58,0.42,0.48,0.42" style="fill:rgb(0,0,0);font-family:URWPalladioL-Roma;font-size:8.97px;stroke:none;">licenses</text>
   <text y="751.395" x="377.957" svgx:width="0.29" style="fill:rgb(0,0,0);font-family:Rpxr;font-size:8.97px;stroke:none;">/</text>
   <text y="751.395" x="380.53,385.488" svgx:width="0.55,0.56" style="fill:rgb(0,0,0);font-family:URWPalladioL-Roma;font-size:8.97px;stroke:none;">by</text>
   <text y="751.395" x="390.474" svgx:width="0.29" style="fill:rgb(0,0,0);font-family:Rpxr;font-size:8.97px;stroke:none;">/</text>
   <text y="751.395" x="393.047,397.53,399.772" svgx:width="0.5,0.25,0.5" style="fill:rgb(0,0,0);font-family:URWPalladioL-Roma;font-size:8.97px;stroke:none;">4.0</text>
   <text y="751.395" x="404.255" svgx:width="0.29" style="fill:rgb(0,0,0);font-family:Rpxr;font-size:8.97px;stroke:none;">/</text>
   <text y="751.395" x="406.828,409.814" svgx:width="0.33,0.25" style="fill:rgb(0,0,0);font-family:URWPalladioL-Roma;font-size:8.97px;stroke:none;">).</text>
  </g>
 </g>
</svg>
