<?xml version="1.0" encoding="UTF-8"?>
<svg height="768.268" width="4321.017" xmlns="http://www.w3.org/2000/svg">
 <g id="page" xmlns:svgx="http://www.xml-cml.org/schema/svgx">
  <g begin="text">
   <text y="56.183" x="42.52,47.648,51.1,55.395,60.524,65.007,68.459,72.942,75.928,78.636,83.487,88.869,93.485,98.336,101.2961,105.844,110.329,114.915,118.834,121.541,126.957,131.53,134.139,138.4446,142.977,147.084,150.536,154.454,158.372,161.358,165.841,168.44230000000002,173.023,177.874" svgx:width="0.57,0.38,0.48,0.57,0.5,0.38,0.5,0.33,0.3,0.54,0.6,0.55,0.54,0.33,0.55,0.5,0.55,0.44,0.3,0.6,0.51,0.29,0.48,0.55,0.46,0.38,0.44,0.44,0.33,0.5,0.29,0.55,0.54,0.33" style="fill:rgb(0,0,0);font-family:AdvOT999035f4;font-size:8.97px;stroke:none;">preparation of a single crystal of</text>
   <text y="56.183" x="185.386,190.515,196.397,201.714,204.233" svgx:width="0.57,0.66,0.59,0.28,0.52" style="fill:rgb(0,0,0);font-family:AdvOTaa6301a5.B;font-size:8.97px;stroke:none;">PCT-1</text>
   <text y="56.183" x="208.914" svgx:width="0.45" style="fill:rgb(0,0,0);font-family:AdvPS44A44B;font-size:8.97px;stroke:none;">$</text>
   <text y="56.183" x="212.939,219.376,227.401" svgx:width="0.72,0.89,0.55" style="fill:rgb(0,0,0);font-family:AdvOTaa6301a5.B;font-size:8.97px;stroke:none;">DMF</text>
   <text y="56.183" x="236.92,242.147,246.065,248.773,254.189,258.7637,263.282,267.29,271.773,275.225,277.933,282.783,288.011" svgx:width="0.58,0.44,0.3,0.6,0.51,0.55,0.45,0.5,0.38,0.3,0.54,0.58,0.44" style="fill:rgb(0,0,0);font-family:AdvOT999035f4;font-size:8.97px;stroke:none;">using various</text>
   <text y="68.089" x="42.519,46.437,51.288,53.897,57.905,62.2,67.615,70.57509999999999,74.776,78.883,83.733,91.758,96.887,99.595,105.01,109.493,112.479,115.187,120.038,125.453,129.3998,133.564,136.55,141.3938,145.526,150.01,152.619,155.228,160.079,166.358,170.471,174.389,177.097,182.512,187.085,189.694,193.989,196.509,200.615,204.067,207.986,211.904,214.89,219.373,221.9743,226.198,231.703,234.223,237.675,242.158,246.10479999999998,250.235,255.462,258.18,263.962,267.414,271.897,276.004,278.99,281.698,286.548" svgx:width="0.44,0.54,0.29,0.45,0.48,0.6,0.33,0.55,0.46,0.54,0.89,0.57,0.3,0.6,0.5,0.33,0.3,0.54,0.6,0.44,0.55,0.33,0.54,0.55,0.5,0.29,0.29,0.54,0.7,0.55,0.44,0.3,0.6,0.51,0.29,0.48,0.28,0.46,0.38,0.44,0.44,0.33,0.5,0.29,0.55,0.61,0.28,0.38,0.5,0.44,0.55,0.58,0.3,0.64,0.38,0.5,0.46,0.33,0.3,0.54,0.6" style="fill:rgb(0,0,0);font-family:AdvOT999035f4;font-size:8.97px;stroke:none;">solvent combinations to allow single-crystal X-ray diﬀraction</text>
   <text y="80.051" x="42.519,50.544,54.839,59.322,63.24,68.467,71.919,76.214,84.239,88.534,93.95,96.935,100.8818,105.899,108.885,113.7288,118.768,123.897,128.20260000000002,133.225,137.331,141.814,145.266,148.718,151.426,155.721,160.9236,165.992,170.843,176.07,179.056,181.4779,186.514,193.517,198.368,204.617,208.912,212.92,217.215,220.667,223.0889,228.125,232.976,238.391,241.0,244.9468,249.952,255.179,260.595,264.513,269.74,272.448,275.434,279.917,285.046,287.655" svgx:width="0.89,0.48,0.5,0.44,0.58,0.38,0.48,0.89,0.48,0.6,0.33,0.44,0.55,0.33,0.54,0.55,0.57,0.48,0.55,0.46,0.5,0.38,0.38,0.3,0.48,0.58,0.55,0.54,0.58,0.33,0.27,0.55,0.78,0.54,0.7,0.48,0.45,0.48,0.38,0.27,0.55,0.54,0.6,0.29,0.44,0.55,0.58,0.6,0.44,0.58,0.3,0.33,0.5,0.57,0.29,0.48" style="fill:rgb(0,0,0);font-family:AdvOT999035f4;font-size:8.97px;stroke:none;">measurements to be carried out. However, only unsuitable</text>
   <text y="92.013" x="42.519,47.746,50.355,53.341,56.793,61.284,66.727,72.143,76.4486,79.482,84.898,89.193,93.488,98.715,101.324,105.619,108.139,110.748,113.456,118.307,122.6126,125.629,129.736,133.188,137.106,141.024,144.01,148.493,151.103,155.0498,158.113,164.363,168.658,172.11,176.4156,179.486,184.337,189.466,192.452,196.935,199.643,205.058,209.353,214.5556,217.64,222.768,226.7148,229.715,232.701,238.117,242.4226,245.476,249.483,253.967,259.095,263.946,267.3546,270.476,275.704,278.419,284.202,289.429" svgx:width="0.58,0.29,0.33,0.38,0.5,0.6,0.6,0.48,0.55,0.6,0.48,0.48,0.58,0.29,0.48,0.28,0.29,0.3,0.54,0.48,0.55,0.46,0.38,0.44,0.44,0.33,0.5,0.29,0.44,0.55,0.7,0.48,0.38,0.48,0.55,0.54,0.57,0.33,0.5,0.3,0.6,0.48,0.58,0.55,0.57,0.44,0.55,0.33,0.6,0.48,0.55,0.45,0.5,0.57,0.54,0.38,0.55,0.58,0.3,0.64,0.58,0.28" style="fill:rgb(0,0,0);font-family:AdvOT999035f4;font-size:8.97px;stroke:none;">ultrane needle-like crystals were obtained by the vapor diﬀu-</text>
   <text y="103.974" x="42.519,46.437,49.145,53.996,59.378,61.908,69.932,74.227,77.213,82.629,87.479,92.6816,95.185,99.668,102.6281,105.163,108.615,113.466,118.316,126.2993,128.803,131.789,136.084,144.109,149.238,153.532,156.984,161.468,164.453,169.681,173.133,177.4386,179.938,185.166,190.393,194.6986,197.172,200.158,205.00179999999997,207.491,210.477,215.892,220.1976,222.684,225.67,230.153,234.071,237.0311,239.521,244.937,250.164,254.271,256.88,261.175,265.658,268.644,271.351,276.202,281.584,284.137,288.987" svgx:width="0.44,0.3,0.54,0.6,0.55,0.89,0.48,0.33,0.6,0.54,0.58,0.55,0.5,0.33,0.55,0.38,0.54,0.54,0.89,0.55,0.33,0.48,0.89,0.57,0.48,0.38,0.5,0.33,0.58,0.38,0.48,0.55,0.58,0.58,0.48,0.55,0.33,0.54,0.55,0.33,0.6,0.48,0.55,0.33,0.5,0.44,0.33,0.55,0.6,0.58,0.46,0.29,0.48,0.5,0.33,0.3,0.54,0.6,0.55,0.54,0.33" style="fill:rgb(0,0,0);font-family:AdvOT999035f4;font-size:8.97px;stroke:none;">sion method at room temperature due to the fast nucleation of</text>
   <text y="115.936" x="42.519,47.648,53.529,58.846,61.366" svgx:width="0.57,0.66,0.59,0.28,0.52" style="fill:rgb(0,0,0);font-family:AdvOTaa6301a5.B;font-size:8.97px;stroke:none;">PCT-1</text>
   <text y="115.936" x="66.046" svgx:width="0.45" style="fill:rgb(0,0,0);font-family:AdvPS44A44B;font-size:8.97px;stroke:none;">$</text>
   <text y="115.936" x="70.071,76.509,84.534" svgx:width="0.72,0.89,0.55" style="fill:rgb(0,0,0);font-family:AdvOTaa6301a5.B;font-size:8.97px;stroke:none;">DMF</text>
   <text y="115.936" x="92.466,95.263,100.213,102.92,107.493,109.91489999999999,112.931,117.504,122.1684,125.176,127.884,133.266,136.288,139.274,144.69,148.9956,151.992,157.309,161.882" svgx:width="0.31,0.55,0.3,0.51,0.27,0.55,0.51,0.52,0.55,0.3,0.6,0.55,0.33,0.6,0.48,0.55,0.59,0.51,0.34" style="fill:rgb(0,0,0);font-family:AdvOT999035f4;font-size:8.97px;stroke:none;">(Fig. S1 in the ESI</text>
   <text y="115.936" x="164.976" svgx:width="0.5" style="fill:rgb(0,0,0);font-family:AdvPS497E2;font-size:8.97px;stroke:none;">†</text>
   <text y="115.936" x="169.455,172.252,174.6739,177.675,182.992,188.408,193.635,197.553,199.9749,202.959,205.945,210.78879999999998,213.788,217.706,220.315,225.166,231.445,234.424,237.409,242.825,247.1306,250.127,254.234,257.686,261.604,265.522,268.508,272.991,275.601,278.21,280.918,284.925,289.409" svgx:width="0.31,0.27,0.55,0.59,0.6,0.58,0.44,0.27,0.55,0.33,0.54,0.55,0.44,0.29,0.54,0.7,0.55,0.33,0.6,0.48,0.55,0.46,0.38,0.44,0.44,0.33,0.5,0.29,0.29,0.3,0.45,0.5,0.28" style="fill:rgb(0,0,0);font-family:AdvOT999035f4;font-size:8.97px;stroke:none;">). Thus, to slow the crystalliza-</text>
   <text y="127.898" x="42.519,45.505,48.212,53.063,58.445,61.51,64.962,69.446,72.431,76.726,79.14789999999999,82.203,86.688,89.743,94.871,99.722,103.174,108.025,113.44,117.924,120.909,125.2146,128.292,132.587,136.505,139.491,143.786,147.1946,150.288,156.17,162.608,167.5415,170.584,173.381,179.263,185.701,190.65,193.17,197.832,200.6127,203.691,209.94,214.423,218.3698,221.379,226.606,230.524,234.819,240.02159999999998,243.091,247.575,251.52179999999998,254.543,259.026,264.408,267.469,274.472,281.474,286.791" svgx:width="0.33,0.3,0.54,0.6,0.55,0.38,0.5,0.33,0.48,0.27,0.55,0.5,0.55,0.57,0.54,0.38,0.54,0.6,0.5,0.33,0.48,0.55,0.48,0.44,0.33,0.48,0.38,0.55,0.66,0.72,0.55,0.55,0.31,0.66,0.72,0.55,0.28,0.52,0.31,0.55,0.7,0.5,0.44,0.55,0.58,0.44,0.48,0.58,0.55,0.5,0.44,0.55,0.5,0.6,0.55,0.78,0.78,0.59,0.57" style="fill:rgb(0,0,0);font-family:AdvOT999035f4;font-size:8.97px;stroke:none;">tion rate, a boronate ester COF (COF-5) was used as an HHTP</text>
   <text y="139.86" x="42.519,46.437,51.288,56.515,59.967,64.074,68.369,70.7909,73.812,79.129,83.0758,86.001,88.987,94.402,98.7076,101.648,104.634,108.086,112.569,120.594,124.889,131.138,135.989,139.441,144.2848,147.341,152.192,155.15210000000002,158.112,163.994,170.432,175.382,177.901,182.5654,185.551,188.259,192.20579999999998,195.189,199.296,204.146,212.171,217.3,222.151,226.069,230.364,235.5666,238.557,243.408,246.3681,249.386,256.388,263.391,268.708,273.82090000000005,276.824,281.308,286.723" svgx:width="0.44,0.54,0.58,0.38,0.46,0.48,0.27,0.55,0.59,0.44,0.55,0.33,0.6,0.48,0.55,0.33,0.38,0.5,0.89,0.48,0.7,0.54,0.38,0.54,0.55,0.54,0.33,0.55,0.66,0.72,0.55,0.28,0.52,0.55,0.3,0.44,0.55,0.46,0.54,0.89,0.57,0.54,0.44,0.48,0.58,0.55,0.54,0.33,0.55,0.78,0.78,0.59,0.57,0.55,0.5,0.6,0.58" style="fill:rgb(0,0,0);font-family:AdvOT999035f4;font-size:8.97px;stroke:none;">source. As the framework of COF-5 is composed of HHTP and</text>
   <text y="151.822" x="42.519,47.648,52.498,55.95,60.801,66.217,68.925,73.0512,77.27,81.754,85.86,88.568,93.795,96.2169,100.457,104.94,110.356,115.5586,119.846,122.832,128.247,132.5526,136.74,141.869,146.72,150.172,155.023,160.438,164.921,167.907,172.2126,176.481,180.776,184.694,187.68,191.975,195.3836,199.668,204.796,209.647,215.063,220.26559999999998,224.499,228.794,233.277,237.195,239.903,242.512,246.4588,250.69,255.918,261.333,266.561,270.856,274.308,278.88,283.731,288.026" svgx:width="0.57,0.54,0.38,0.54,0.6,0.3,0.46,0.55,0.5,0.46,0.3,0.58,0.27,0.55,0.5,0.6,0.58,0.55,0.33,0.6,0.48,0.55,0.57,0.54,0.38,0.54,0.6,0.5,0.33,0.48,0.55,0.48,0.44,0.33,0.48,0.38,0.55,0.57,0.54,0.6,0.58,0.55,0.48,0.5,0.44,0.3,0.29,0.44,0.55,0.58,0.6,0.58,0.48,0.38,0.51,0.54,0.48,0.44" style="fill:rgb(0,0,0);font-family:AdvOT999035f4;font-size:8.97px;stroke:none;">boronic acid, and the boronate ester bond easily undergoes</text>
   <text y="163.728" x="42.519,47.934,51.853,57.08,60.532,65.383,67.992,71.91,75.829,78.536,82.455,84.87689999999999,88.155,95.157,102.16,107.477,112.5899,115.877,123.901,128.752,131.361,135.656,139.763,144.99,147.599,151.894,155.8408,159.075,163.559,167.011,171.3166,174.496,178.79,182.798,187.927,192.222,196.329,199.314,203.609,208.8116,212.139,215.125,219.9688,223.194,228.323,232.6286,235.893,239.345,243.64,246.249,250.544,255.027,258.946,263.241,268.4436,271.722,276.295,279.747,284.23,289.457" svgx:width="0.6,0.44,0.58,0.38,0.54,0.29,0.44,0.44,0.3,0.44,0.27,0.55,0.78,0.78,0.59,0.57,0.55,0.89,0.54,0.29,0.48,0.46,0.58,0.29,0.48,0.44,0.55,0.5,0.38,0.48,0.55,0.48,0.45,0.57,0.48,0.46,0.33,0.48,0.58,0.55,0.33,0.54,0.55,0.57,0.48,0.55,0.38,0.48,0.29,0.48,0.5,0.44,0.48,0.58,0.55,0.51,0.38,0.5,0.58,0.28" style="fill:rgb(0,0,0);font-family:AdvOT999035f4;font-size:8.97px;stroke:none;">hydrolysis, HHTP molecules are expected to be released grad-</text>
   <text y="175.69" x="42.519,47.746,52.229,54.839,57.448,61.394800000000004,63.268,68.495,73.911,79.138,83.433,86.84160000000001,88.835,93.318,101.343,106.472,109.18,113.475,118.89,121.8501,123.757,127.864,132.714,138.13,143.357,146.065,149.051,151.759,156.61,162.025,165.944,168.36589999999998,170.3,176.55,181.965,184.673,188.78,194.162,196.095,200.201,205.052,210.279,212.888,218.0906,220.075,222.783,228.165,230.053,233.038,238.266,241.718,247.1,249.044,253.151,258.001,263.417,266.403,269.855,274.706,277.3073,279.261,282.246,287.662" svgx:width="0.58,0.5,0.29,0.29,0.44,0.55,0.58,0.6,0.58,0.48,0.38,0.55,0.5,0.89,0.57,0.3,0.48,0.6,0.33,0.55,0.46,0.54,0.6,0.58,0.3,0.33,0.3,0.54,0.6,0.44,0.27,0.55,0.7,0.6,0.3,0.46,0.6,0.55,0.46,0.54,0.58,0.29,0.58,0.55,0.3,0.6,0.55,0.33,0.58,0.38,0.6,0.55,0.46,0.54,0.6,0.33,0.38,0.54,0.29,0.55,0.33,0.6,0.48" style="fill:rgb(0,0,0);font-family:AdvOT999035f4;font-size:8.97px;stroke:none;">ually under ambient conditions, which could in turn control the</text>
   <text y="187.651" x="42.519,47.934,53.162,57.268,59.878,64.172,68.656,71.641,74.349,79.2,84.58200000000001,87.418,90.871,95.354,98.339,102.6446,105.39,110.24" svgx:width="0.6,0.58,0.46,0.29,0.48,0.5,0.33,0.3,0.54,0.6,0.55,0.38,0.5,0.33,0.48,0.55,0.54,0.33" style="fill:rgb(0,0,0);font-family:AdvOT999035f4;font-size:8.97px;stroke:none;">nucleation rate of</text>
   <text y="187.651" x="115.993,121.122,127.004,132.321,134.84" svgx:width="0.57,0.66,0.59,0.28,0.52" style="fill:rgb(0,0,0);font-family:AdvOTaa6301a5.B;font-size:8.97px;stroke:none;">PCT-1</text>
   <text y="187.651" x="139.521" svgx:width="0.45" style="fill:rgb(0,0,0);font-family:AdvPS44A44B;font-size:8.97px;stroke:none;">$</text>
   <text y="187.651" x="143.546,149.984,158.008" svgx:width="0.72,0.89,0.55" style="fill:rgb(0,0,0);font-family:AdvOTaa6301a5.B;font-size:8.97px;stroke:none;">DMF</text>
   <text y="187.651" x="162.992,165.41389999999998,168.151,173.468,178.884,184.111,188.029,190.4509,193.265,199.147,205.584,210.534,213.053,217.7174,220.477,224.96,230.375,235.5776,238.391,245.394,250.711,256.028,258.548,264.429,270.88739999999996,273.653,279.903,284.197,287.649" svgx:width="0.27,0.55,0.59,0.6,0.58,0.44,0.27,0.55,0.66,0.72,0.55,0.28,0.52,0.55,0.5,0.6,0.58,0.55,0.78,0.59,0.59,0.28,0.66,0.72,0.55,0.7,0.48,0.38,0.48" style="fill:rgb(0,0,0);font-family:AdvOT999035f4;font-size:8.97px;stroke:none;">. Thus, COF-5 and HAT-CN were</text>
   <text y="199.613" x="42.519,46.437,51.664,55.583,60.711,65.006,70.422,75.649,79.944,85.1466,89.232,91.94,97.322,101.421,107.859,115.884,120.8175,124.835,129.318,134.734,139.9366,143.997,148.48,151.089,153.698,158.549,164.799,169.093,174.29559999999998,178.409,181.394,186.2378,190.314,194.232,197.218,201.701,207.117,212.31959999999998,216.392,220.687,224.695,229.824,234.675,238.593,242.888,248.0906,252.164,255.15,259.9938,264.013,269.429,273.724,277.732,282.215,287.631" svgx:width="0.44,0.58,0.44,0.57,0.48,0.6,0.58,0.48,0.58,0.55,0.3,0.6,0.55,0.72,0.89,0.55,0.55,0.5,0.6,0.58,0.55,0.5,0.29,0.29,0.54,0.7,0.48,0.58,0.55,0.33,0.54,0.55,0.44,0.33,0.5,0.6,0.58,0.55,0.48,0.45,0.57,0.54,0.44,0.48,0.58,0.55,0.33,0.54,0.55,0.6,0.48,0.45,0.5,0.6,0.48" style="fill:rgb(0,0,0);font-family:AdvOT999035f4;font-size:8.97px;stroke:none;">suspended in DMF and allowed to stand exposed to hexane</text>
   <text y="211.575" x="42.519,46.527,51.01,56.139,60.989,64.3976,66.499,70.982,74.9288,76.987,81.472,83.506,88.635,93.486,98.337,101.74560000000001,103.858,107.776,112.627,115.236,119.244,123.539,128.955,131.941,134.3629,136.455,141.788,147.798,152.092,155.50060000000002,157.605,162.2694,164.295,170.544,174.839,179.134,183.985,186.4069,188.502,193.631,196.24,200.723,203.709,208.004,210.523,213.132,215.84,220.691,224.9966,227.052,230.97,233.678,239.093,243.666,246.275,250.5806,252.676,256.783,260.235,264.153,268.072,271.057,275.54,278.15,282.0968,284.14,288.991" svgx:width="0.45,0.5,0.57,0.54,0.38,0.55,0.5,0.44,0.55,0.5,0.55,0.57,0.54,0.54,0.38,0.55,0.44,0.54,0.29,0.45,0.48,0.6,0.33,0.27,0.55,0.59,0.67,0.48,0.38,0.55,0.52,0.55,0.7,0.48,0.48,0.54,0.27,0.55,0.57,0.29,0.5,0.33,0.48,0.28,0.29,0.3,0.54,0.48,0.55,0.44,0.3,0.6,0.51,0.29,0.48,0.55,0.46,0.38,0.44,0.44,0.33,0.5,0.29,0.44,0.55,0.54,0.33" style="fill:rgb(0,0,0);font-family:AdvOT999035f4;font-size:8.97px;stroke:none;">vapor as a poor solvent. Aer 1 week, plate-like single crystals of</text>
   <text y="223.537" x="42.519,47.648,53.529,58.846,61.366" svgx:width="0.57,0.66,0.59,0.28,0.52" style="fill:rgb(0,0,0);font-family:AdvOTaa6301a5.B;font-size:8.97px;stroke:none;">PCT-1</text>
   <text y="223.537" x="66.046" svgx:width="0.45" style="fill:rgb(0,0,0);font-family:AdvPS44A44B;font-size:8.97px;stroke:none;">$</text>
   <text y="223.537" x="70.071,76.509,84.534" svgx:width="0.72,0.89,0.55" style="fill:rgb(0,0,0);font-family:AdvOTaa6301a5.B;font-size:8.97px;stroke:none;">DMF</text>
   <text y="223.537" x="92.692,98.941,101.649,104.635,110.01700000000001,113.271,117.756,120.981,129.006,133.301,137.784,141.702,146.93,150.382,154.865,159.994,162.603,166.9086,170.133,174.051,176.759,180.767,185.0726,188.331,193.181,196.14110000000002,199.385,204.048,208.71" svgx:width="0.7,0.3,0.33,0.6,0.55,0.5,0.55,0.89,0.48,0.5,0.44,0.58,0.38,0.5,0.57,0.29,0.48,0.55,0.44,0.3,0.45,0.48,0.55,0.54,0.33,0.55,0.52,0.52,0.52" style="fill:rgb(0,0,0);font-family:AdvOT999035f4;font-size:8.97px;stroke:none;">with a measurable size of 350</text>
   <text y="223.537" x="216.623" svgx:width="0.56" style="fill:rgb(0,0,0);font-family:AdvPS3F4C13;font-size:8.97px;stroke:none;">m</text>
   <text y="223.537" x="221.668,229.65130000000002,232.893,239.143,243.438,246.89,251.19559999999998,254.436,259.286,264.415,267.401,271.884,274.592,280.007,284.302,289.53" svgx:width="0.89,0.55,0.7,0.48,0.38,0.48,0.55,0.54,0.57,0.33,0.5,0.3,0.6,0.48,0.58,0.27" style="fill:rgb(0,0,0);font-family:AdvOT999035f4;font-size:8.97px;stroke:none;">m were obtained,</text>
   <text y="235.499" x="42.518,46.436,51.664,56.236,60.809,65.104,69.022,72.008,74.716,80.132,84.70670000000001,87.644,90.629,96.045,100.528,103.4881,106.408,112.29,118.728,123.677,126.197,130.8614,133.847,140.096,144.58,148.5268,151.421,156.648,160.943,165.05,169.9,177.925,183.054,187.905,191.823,196.118,201.32059999999998,204.257,209.385,213.3318,216.275,224.3,229.151,231.858,235.777,238.763,243.99,247.442,251.7476,254.655,257.363,262.745,265.711,268.697,274.112,278.41760000000005,281.301,285.784,288.492" svgx:width="0.44,0.58,0.51,0.51,0.48,0.44,0.33,0.3,0.6,0.51,0.55,0.33,0.6,0.5,0.33,0.55,0.66,0.72,0.55,0.28,0.52,0.55,0.7,0.5,0.44,0.55,0.58,0.48,0.46,0.54,0.89,0.57,0.54,0.44,0.48,0.58,0.55,0.57,0.44,0.55,0.89,0.54,0.3,0.44,0.33,0.58,0.38,0.48,0.55,0.3,0.6,0.55,0.33,0.6,0.48,0.55,0.5,0.3,0.38" style="fill:rgb(0,0,0);font-family:AdvOT999035f4;font-size:8.97px;stroke:none;">suggesting that COF-5 was decomposed by moisture in the air</text>
   <text y="247.461" x="42.518,47.001,52.417,57.619600000000005,61.34,68.343,75.345,80.662,85.7749,89.459,97.484,102.335,104.944,109.239,113.345,118.573,121.182,125.477,129.4238,133.112,139.361,143.656,147.108,151.4136,155.108,158.56,162.855,165.464,169.759,174.242,178.16,182.455,187.6576,191.39,194.098,199.48000000000002,203.182,206.168,211.584,215.8896,219.623,226.061,234.086,239.01950000000002,242.696,246.614,251.465,254.074,258.082,262.377,267.793,270.779,273.2009,276.937,282.254,287.67" svgx:width="0.5,0.6,0.58,0.55,0.78,0.78,0.59,0.57,0.55,0.89,0.54,0.29,0.48,0.46,0.58,0.29,0.48,0.44,0.55,0.7,0.48,0.38,0.48,0.55,0.38,0.48,0.29,0.48,0.5,0.44,0.48,0.58,0.55,0.3,0.6,0.55,0.33,0.6,0.48,0.55,0.72,0.89,0.55,0.55,0.44,0.54,0.29,0.45,0.48,0.6,0.33,0.27,0.55,0.59,0.6,0.48" style="fill:rgb(0,0,0);font-family:AdvOT999035f4;font-size:8.97px;stroke:none;">and HHTP molecules were released in the DMF solvent. The</text>
   <text y="259.366" x="42.518,46.625,50.077,53.995,57.913,60.899,65.382,67.9833,73.245,77.163,80.149,83.601,88.828,92.935,95.92,101.148,104.6,108.90559999999999,114.176,116.973,121.923,124.63,129.203,131.6249,136.852,141.515,144.29569999999998,149.551,153.003,157.298,161.306,165.601,170.084,172.693,176.988,182.1906,187.478,190.464,195.879,200.363" svgx:width="0.46,0.38,0.44,0.44,0.33,0.5,0.29,0.55,0.44,0.33,0.38,0.58,0.46,0.33,0.58,0.38,0.48,0.55,0.31,0.55,0.3,0.51,0.27,0.55,0.52,0.31,0.55,0.38,0.48,0.45,0.48,0.5,0.29,0.48,0.58,0.55,0.33,0.6,0.5,0.33" style="fill:rgb(0,0,0);font-family:AdvOT999035f4;font-size:8.97px;stroke:none;">crystal structure (Fig. 2) revealed that</text>
   <text y="259.366" x="208.572,213.701,219.583,224.9,227.419" svgx:width="0.57,0.66,0.59,0.28,0.52" style="fill:rgb(0,0,0);font-family:AdvOTaa6301a5.B;font-size:8.97px;stroke:none;">PCT-1</text>
   <text y="259.366" x="232.1" svgx:width="0.45" style="fill:rgb(0,0,0);font-family:AdvPS44A44B;font-size:8.97px;stroke:none;">$</text>
   <text y="259.366" x="236.125,242.562,250.587" svgx:width="0.72,0.89,0.55" style="fill:rgb(0,0,0);font-family:AdvOTaa6301a5.B;font-size:8.97px;stroke:none;">DMF</text>
   <text y="259.366" x="260.786,265.081,269.089,274.505,277.213,282.341,285.049,288.035" svgx:width="0.48,0.45,0.6,0.3,0.57,0.3,0.33,0.44" style="fill:rgb(0,0,0);font-family:AdvOT999035f4;font-size:8.97px;stroke:none;">exhibits</text>
   <text y="271.328" x="42.518,47.003,51.022,56.15,60.069,64.363,69.591,74.818,79.669,82.188,87.604,91.899,95.907,100.39,104.963,109.814,115.229,119.712,122.3133,126.364,130.47,135.321,137.93,143.157,151.182,156.598,161.081,164.4896,168.598,172.517,175.503,178.955,184.182,188.288,191.274,196.502,199.954,204.2596,208.282,210.99,216.372,220.415,226.664,232.08,234.788,238.894,244.276,248.364,255.366,262.369,267.686,272.7989,276.823,281.306,286.721" svgx:width="0.5,0.55,0.57,0.44,0.48,0.58,0.58,0.54,0.28,0.6,0.48,0.45,0.5,0.51,0.54,0.6,0.5,0.29,0.55,0.46,0.54,0.29,0.58,0.89,0.6,0.5,0.38,0.55,0.44,0.33,0.38,0.58,0.46,0.33,0.58,0.38,0.48,0.55,0.3,0.6,0.55,0.7,0.6,0.3,0.46,0.6,0.55,0.78,0.78,0.59,0.57,0.55,0.5,0.6,0.58" style="fill:rgb(0,0,0);font-family:AdvOT999035f4;font-size:8.97px;stroke:none;">a pseudo-hexagonal columnar structure in which HHTP and</text>
   <text y="283.29" x="42.518,49.521,54.838,60.155,62.674,68.556,75.0144,80.557,88.582,93.433,96.042,100.337,104.444,109.671,112.28,116.575,120.5218,126.024,129.942,132.928,137.411,141.518,146.3618,151.932,156.415,159.024,162.01,166.305,169.757,175.173,179.656,182.642,186.936,189.546,193.4928,198.985,203.468,206.078,210.928,216.344,220.9187,226.48,229.466,234.882" svgx:width="0.78,0.59,0.59,0.28,0.66,0.72,0.55,0.89,0.54,0.29,0.48,0.46,0.58,0.29,0.48,0.44,0.55,0.44,0.33,0.5,0.46,0.54,0.55,0.5,0.29,0.33,0.48,0.38,0.6,0.5,0.33,0.48,0.29,0.44,0.55,0.5,0.29,0.54,0.6,0.51,0.55,0.33,0.6,0.48" style="fill:rgb(0,0,0);font-family:AdvOT999035f4;font-size:8.97px;stroke:none;">HAT-CN molecules stack alternately along the</text>
   <text y="283.29" x="244.686" svgx:width="0.41" style="fill:rgb(0,0,0);font-family:AdvOTce71c481.I;font-size:8.97px;stroke:none;">c</text>
   <text y="283.29" x="253.87,258.353,262.361,265.069,268.987,271.4089,276.943,282.26,287.675" svgx:width="0.5,0.45,0.3,0.44,0.27,0.55,0.59,0.6,0.48" style="fill:rgb(0,0,0);font-family:AdvOT999035f4;font-size:8.97px;stroke:none;">axis. The</text>
   <text y="295.252" x="42.518,47.745,50.453,54.371,57.357,61.84,67.256,71.363,75.6686,79.481,84.609,88.904,91.89,98.139,102.434,106.729,112.111,115.99,118.975,124.391" svgx:width="0.58,0.3,0.44,0.33,0.5,0.6,0.46,0.48,0.55,0.57,0.48,0.33,0.7,0.48,0.48,0.6,0.55,0.33,0.6,0.48" style="fill:rgb(0,0,0);font-family:AdvOT999035f4;font-size:8.97px;stroke:none;">distance between the</text>
   <text y="295.252" x="132.49" svgx:width="0.69" style="fill:rgb(0,0,0);font-family:AdvPS3F4C13;font-size:8.97px;stroke:none;">p</text>
   <text y="295.252" x="142.468,147.597,150.206,154.689,160.105,164.4,168.3468,172.118,176.968,179.9281,183.796,190.799,197.802,203.119,208.2319,212.085,216.568,221.984,227.1866,231.02,238.023,243.34,248.657,251.176,257.058,263.5164,267.302,270.01,275.392,279.264,282.25,287.666" svgx:width="0.57,0.29,0.5,0.6,0.48,0.44,0.55,0.54,0.33,0.55,0.78,0.78,0.59,0.57,0.55,0.5,0.6,0.58,0.55,0.78,0.59,0.59,0.28,0.66,0.72,0.55,0.3,0.6,0.55,0.33,0.6,0.48" style="fill:rgb(0,0,0);font-family:AdvOT999035f4;font-size:8.97px;stroke:none;">planes of HHTP and HAT-CN in the</text>
   <text y="307.214" x="42.518,46.624,51.475,54.084,59.312,67.337,72.71900000000001,77.269,83.519,88.002,91.94879999999999,96.488,101.15,103.571,108.234" svgx:width="0.46,0.54,0.29,0.58,0.89,0.6,0.55,0.7,0.5,0.44,0.55,0.52,0.27,0.52,0.52" style="fill:rgb(0,0,0);font-family:AdvOT999035f4;font-size:8.97px;stroke:none;">column was 3.27</text>
   <text y="305.4" x="117.75" svgx:width="0.54" style="fill:rgb(0,0,0);font-family:AdvOT999035f4;font-size:8.97px;stroke:none;">˚</text>
   <text y="307.214" x="117.41,122.909,125.3309,129.882,133.8,139.028,143.6,148.173,152.468,156.386,159.372,162.08,167.496,172.07070000000002,176.595,179.581,184.997,189.3026,193.83,198.958,202.41,206.705,210.624,214.918,220.334,224.441,228.7466,233.23,238.081,241.0411,245.589,249.508,252.493,255.945,260.796,266.212" svgx:width="0.59,0.27,0.55,0.44,0.58,0.51,0.51,0.48,0.44,0.33,0.3,0.6,0.51,0.55,0.33,0.6,0.48,0.55,0.57,0.38,0.48,0.44,0.48,0.6,0.46,0.48,0.55,0.54,0.33,0.55,0.44,0.33,0.38,0.54,0.6,0.51" style="fill:rgb(0,0,0);font-family:AdvOT999035f4;font-size:8.97px;stroke:none;">A, suggesting the presence of strong</text>
   <text y="307.214" x="275.357" svgx:width="0.69" style="fill:rgb(0,0,0);font-family:AdvPS3F4C13;font-size:8.97px;stroke:none;">p</text>
   <text y="307.214" x="281.48" svgx:width="0.48" style="fill:rgb(0,0,0);font-family:AdvOT999035f4;font-size:8.97px;stroke:none;">–</text>
   <text y="307.214" x="285.788" svgx:width="0.69" style="fill:rgb(0,0,0);font-family:AdvPS3F4C13;font-size:8.97px;stroke:none;">p</text>
   <text y="319.176" x="42.518,45.226,50.641,53.627,57.922,61.374,65.857,69.964,72.95,75.657,80.508,85.924,89.8708,93.88,99.008,103.303,106.289,112.538,116.833,121.128,126.51,130.502,133.488,138.904,143.199,147.117,151.4226,155.447,158.432,164.682,169.52579999999998,173.532,177.638,182.489,190.514,195.643,200.493,205.721,211.136,216.364,220.282,222.7039,226.708,229.784,235.166,239.237,243.72,248.947,254.175,256.882,259.868,262.576,267.427,272.842,275.2639,279.261,282.246,287.662" svgx:width="0.3,0.6,0.33,0.48,0.38,0.5,0.46,0.33,0.3,0.54,0.6,0.44,0.55,0.57,0.48,0.33,0.7,0.48,0.48,0.6,0.55,0.33,0.6,0.48,0.44,0.48,0.55,0.33,0.7,0.54,0.55,0.46,0.54,0.89,0.57,0.54,0.58,0.6,0.58,0.44,0.27,0.55,0.34,0.6,0.55,0.5,0.58,0.58,0.3,0.33,0.3,0.54,0.6,0.27,0.55,0.33,0.6,0.48" style="fill:rgb(0,0,0);font-family:AdvOT999035f4;font-size:8.97px;stroke:none;">interactions between these two compounds. In addition, the</text>
   <text y="331.138" x="42.518,45.226,50.641,53.627,57.922,61.374,65.481,70.331,72.941,78.168,86.193,91.608,96.092,99.5006,105.502,109.42,114.549,119.032,123.138,127.433,131.37980000000002,137.363,143.612,147.907,151.359,155.6646,161.63,167.016,169.625,172.234,176.529,181.7316,187.708,193.958,196.666,199.651,205.03300000000002,211.066,217.503,225.528,230.478,232.8999,238.844,245.094,250.509,253.217,257.324,262.706,268.721,271.706,276.557,280.009,288.034" svgx:width="0.3,0.6,0.33,0.48,0.38,0.46,0.54,0.29,0.58,0.89,0.6,0.5,0.38,0.55,0.44,0.57,0.5,0.46,0.48,0.44,0.55,0.7,0.48,0.38,0.48,0.55,0.6,0.29,0.29,0.48,0.58,0.55,0.7,0.3,0.33,0.6,0.55,0.72,0.89,0.55,0.27,0.55,0.7,0.6,0.3,0.46,0.6,0.55,0.33,0.54,0.38,0.89,0.44" style="fill:rgb(0,0,0);font-family:AdvOT999035f4;font-size:8.97px;stroke:none;">intercolumnar spaces were lled with DMF, which forms</text>
   <text y="343.1" x="42.518,47.934,51.852,57.079,60.531,65.382,69.955,74.25,79.632,81.861,86.99,91.841,97.256,102.484,106.43079999999999,108.563,114.812,117.52,120.506,125.888,128.121,131.107,136.522,140.8276,142.975,148.39,152.309,157.536,160.988,165.839,169.847,173.7938,175.969,180.542,183.994,188.844,194.072,199.2,203.14679999999998,205.335,210.186,213.14610000000002,215.313,222.316,229.318,234.635,239.7479,241.958,244.756,249.705,252.413,256.986,259.4079,261.573,266.146" svgx:width="0.6,0.44,0.58,0.38,0.54,0.51,0.48,0.6,0.55,0.57,0.54,0.6,0.58,0.44,0.55,0.7,0.3,0.33,0.6,0.55,0.33,0.6,0.48,0.55,0.6,0.44,0.58,0.38,0.54,0.45,0.44,0.55,0.51,0.38,0.54,0.58,0.57,0.44,0.55,0.54,0.33,0.55,0.78,0.78,0.59,0.57,0.55,0.31,0.55,0.3,0.51,0.27,0.55,0.51,0.52" style="fill:rgb(0,0,0);font-family:AdvOT999035f4;font-size:8.97px;stroke:none;">hydrogen bonds with the hydroxy groups of HHTP (Fig. S2</text>
   <text y="343.1" x="270.821" svgx:width="0.5" style="fill:rgb(0,0,0);font-family:AdvPS497E2;font-size:8.97px;stroke:none;">†</text>
   <text y="343.1" x="275.3,278.098,280.5199,282.727,288.044" svgx:width="0.31,0.27,0.55,0.59,0.44" style="fill:rgb(0,0,0);font-family:AdvOT999035f4;font-size:8.97px;stroke:none;">). As</text>
   <text y="355.006" x="42.518,46.436,51.852,56.703,62.952,68.334,71.033,73.741,79.123,81.805,86.754,89.462,94.035,96.45689999999999,99.095,103.758,108.241,110.6629,113.268,116.254,121.67,125.9756,128.632,134.137,139.921,145.049,151.50740000000002,154.143,159.272,163.755,166.741,169.726,174.021,177.473,182.85500000000002,185.55,190.401" svgx:width="0.44,0.6,0.54,0.7,0.6,0.55,0.3,0.6,0.55,0.55,0.3,0.51,0.27,0.55,0.52,0.5,0.27,0.55,0.33,0.6,0.48,0.55,0.61,0.64,0.57,0.72,0.55,0.57,0.5,0.33,0.33,0.48,0.38,0.6,0.55,0.54,0.33" style="fill:rgb(0,0,0);font-family:AdvOT999035f4;font-size:8.97px;stroke:none;">shown in Fig. 3a, the XRPD pattern of</text>
   <text y="355.006" x="196.043,201.171,207.053,212.37,214.89" svgx:width="0.57,0.66,0.59,0.28,0.52" style="fill:rgb(0,0,0);font-family:AdvOTaa6301a5.B;font-size:8.97px;stroke:none;">PCT-1</text>
   <text y="355.006" x="219.57" svgx:width="0.45" style="fill:rgb(0,0,0);font-family:AdvPS44A44B;font-size:8.97px;stroke:none;">$</text>
   <text y="355.006" x="223.595,230.033,238.058" svgx:width="0.72,0.89,0.55" style="fill:rgb(0,0,0);font-family:AdvOTaa6301a5.B;font-size:8.97px;stroke:none;">DMF</text>
   <text y="355.006" x="245.649,250.132,254.705,258.157,262.451,266.746,271.9486,274.618,280.867,283.575,286.561" svgx:width="0.5,0.51,0.38,0.48,0.48,0.58,0.55,0.7,0.3,0.33,0.6" style="fill:rgb(0,0,0);font-family:AdvOT999035f4;font-size:8.97px;stroke:none;">agreed with</text>
   <text y="366.967" x="42.517,45.503,50.918,55.2236,58.845,62.763,65.471,73.496,78.723,81.332,85.815,88.801,93.096,98.29860000000001,101.93,107.058,111.541,114.527,117.513,121.808,125.26,130.642,134.301,139.429,142.881,147.176,152.404,155.111,159.218,162.204,166.499,171.70159999999998,175.345,178.331,181.783,186.633,194.61630000000002,198.305,201.291,206.706,211.0116,214.575,218.493,221.201,226.617,231.19,233.799,238.094,240.613,244.72,248.172,252.09,256.008,258.994,263.477,266.07829999999996,269.735,273.653,276.639,280.091,285.318,289.425" svgx:width="0.33,0.6,0.48,0.55,0.44,0.3,0.89,0.58,0.29,0.5,0.33,0.48,0.58,0.55,0.57,0.5,0.33,0.33,0.48,0.38,0.6,0.55,0.57,0.38,0.48,0.58,0.3,0.46,0.33,0.48,0.58,0.55,0.33,0.38,0.54,0.89,0.55,0.33,0.6,0.48,0.55,0.44,0.3,0.6,0.51,0.29,0.48,0.28,0.46,0.38,0.44,0.44,0.33,0.5,0.29,0.55,0.44,0.33,0.38,0.58,0.46,0.28" style="fill:rgb(0,0,0);font-family:AdvOT999035f4;font-size:8.97px;stroke:none;">the simulated pattern predicted from the single-crystal struc-</text>
   <text y="378.929" x="42.517,45.503,50.73,54.182,58.665,61.2663,65.534,70.017,75.432,79.915,82.525,86.443,90.361,93.069,96.987,99.40889999999999,103.63,108.857,113.152,121.177,126.027,131.443,135.361,138.347,141.799,146.282,149.268,151.976,157.392,161.9667,166.216,169.202,174.618,179.101,182.0611,186.285,189.27,194.686,198.9916,203.235,208.364,213.591,216.201,221.051,223.571,227.489,231.407,236.823,239.809,245.225,249.519,253.438,256.146,260.153,264.448,269.6506,273.929,279.157,283.64,287.092" svgx:width="0.33,0.58,0.38,0.5,0.29,0.55,0.5,0.6,0.5,0.29,0.44,0.44,0.3,0.44,0.27,0.55,0.58,0.48,0.89,0.54,0.6,0.44,0.33,0.38,0.5,0.33,0.3,0.6,0.51,0.55,0.33,0.6,0.5,0.33,0.55,0.33,0.6,0.48,0.55,0.57,0.58,0.29,0.54,0.28,0.44,0.44,0.6,0.33,0.6,0.48,0.44,0.3,0.45,0.48,0.58,0.55,0.58,0.5,0.38,0.54" style="fill:rgb(0,0,0);font-family:AdvOT999035f4;font-size:8.97px;stroke:none;">tural analysis, demonstrating that the bulk-synthesized dark</text>
   <text y="390.891" x="42.517,47.09,50.542,54.837,59.132,64.514,67.234,72.363,77.214,83.463,88.691,92.986,96.39460000000001,99.152,102.138,106.988,110.44,118.465,122.4118,125.116,128.102,133.518,137.8236,140.48,144.398,148.882,156.906,161.2116,163.894,167.812,170.798,174.25,179.477,183.584,186.57,191.797,195.249,199.544" svgx:width="0.51,0.38,0.48,0.48,0.6,0.55,0.57,0.54,0.7,0.58,0.48,0.38,0.55,0.33,0.54,0.38,0.89,0.44,0.55,0.33,0.6,0.48,0.55,0.44,0.5,0.89,0.48,0.55,0.44,0.33,0.38,0.58,0.46,0.33,0.58,0.38,0.48,0.27" style="fill:rgb(0,0,0);font-family:AdvOT999035f4;font-size:8.97px;stroke:none;">green powder forms the same structure.</text>
   <text y="402.853" x="54.479,59.796,62.405,65.391,70.807,75.657,80.885,85.458,90.84,100.739,103.725,109.14,113.4456,123.246,128.473,133.324,138.74,143.591,146.99960000000002,156.921,163.923,170.926,176.243,181.3559,191.22,195.703,201.118,206.32059999999998,216.164,220.647,224.754,228.86,233.155,238.284,241.269,246.12,249.5286,259.476,266.479,271.796,277.113,279.633,285.515" svgx:width="0.59,0.29,0.33,0.6,0.54,0.58,0.51,0.6,0.55,0.33,0.6,0.48,0.55,0.58,0.54,0.6,0.54,0.38,0.55,0.78,0.78,0.59,0.57,0.55,0.5,0.6,0.58,0.55,0.5,0.46,0.46,0.48,0.57,0.33,0.54,0.38,0.55,0.78,0.59,0.59,0.28,0.66,0.72" style="fill:rgb(0,0,0);font-family:AdvOT999035f4;font-size:8.97px;stroke:none;">Although the donor HHTP and acceptor HAT-CN</text>
   <text y="414.815" x="42.517,46.624,51.474,59.499,64.628,69.479,74.706,80.122,85.349,89.2958,93.085,97.568,101.02,105.3256,109.072,115.322,120.737,123.445,126.431,130.7366,134.527,139.01,144.425,149.6276,153.462,157.38,161.675,164.284,166.893,171.744,178.023,181.75,186.879,191.73,197.979,203.207,207.501,210.954,214.872,217.2939,221.151,224.603,228.898,232.816,237.945,242.24,246.346,249.332,252.04,256.048,260.343,262.952,266.87" svgx:width="0.46,0.54,0.89,0.57,0.54,0.58,0.6,0.58,0.44,0.55,0.5,0.38,0.48,0.55,0.7,0.6,0.3,0.33,0.48,0.55,0.5,0.6,0.58,0.55,0.44,0.48,0.29,0.29,0.54,0.7,0.55,0.57,0.54,0.7,0.58,0.48,0.38,0.44,0.27,0.55,0.38,0.48,0.44,0.57,0.48,0.46,0.33,0.3,0.45,0.48,0.29,0.44,0.27" style="fill:rgb(0,0,0);font-family:AdvOT999035f4;font-size:8.97px;stroke:none;">compounds are white and yellow powders, respectively,</text>
   <text y="414.815" x="273.088,278.217,284.099,289.416" svgx:width="0.57,0.66,0.59,0.28" style="fill:rgb(0,0,0);font-family:AdvOTaa6301a5.B;font-size:8.97px;stroke:none;">PCT-</text>
   <text y="426.777" x="42.517" svgx:width="0.52" style="fill:rgb(0,0,0);font-family:AdvOTaa6301a5.B;font-size:8.97px;stroke:none;">1</text>
   <text y="426.777" x="47.166" svgx:width="0.45" style="fill:rgb(0,0,0);font-family:AdvPS44A44B;font-size:8.97px;stroke:none;">$</text>
   <text y="426.777" x="51.191,57.629,65.654" svgx:width="0.72,0.89,0.55" style="fill:rgb(0,0,0);font-family:AdvOTaa6301a5.B;font-size:8.97px;stroke:none;">DMF</text>
   <text y="426.777" x="73.982,80.231,84.714,88.6608,91.953,96.804,101.932,104.918,109.401,112.109,117.525,121.819,127.0216,130.446,134.929,138.8758,142.181,146.66600000000003,150.005,155.232,159.527,163.822,168.9349,172.285,176.857,180.309,184.604,188.899,194.281,197.682,202.811,207.662,213.911,219.139,223.434,226.886,229.3079,232.661,236.579,241.807,246.379,250.952,255.247,259.165,262.151,264.859,270.275,274.8497,278.24,284.122,289.439" svgx:width="0.7,0.5,0.44,0.55,0.54,0.57,0.33,0.5,0.3,0.6,0.48,0.58,0.55,0.5,0.44,0.55,0.5,0.55,0.58,0.48,0.48,0.57,0.55,0.51,0.38,0.48,0.48,0.6,0.55,0.57,0.54,0.7,0.58,0.48,0.38,0.27,0.55,0.44,0.58,0.51,0.51,0.48,0.44,0.33,0.3,0.6,0.51,0.55,0.66,0.59,0.28" style="fill:rgb(0,0,0);font-family:AdvOT999035f4;font-size:8.97px;stroke:none;">was obtained as a deep green powder, suggesting CT-</text>
   <text y="438.739" x="42.517,47.646,52.129,57.545,62.747600000000006,66.611,69.597,74.448,77.9,85.925,90.408,93.394,96.101,100.952,106.368,108.78989999999999,112.644,115.72,121.135,126.363,130.658,134.952,140.18,142.6019,146.432,152.681,158.097,160.617,166.032,168.74,172.658,175.178,181.616,184.691,190.4318,194.279,199.506,202.221,208.061,213.288,217.207,221.5126,225.295,228.747,233.063,238.449,242.743,246.85,249.836,254.319,259.735,263.841,268.14660000000003,272.01,275.928,281.057,285.351,289.458" svgx:width="0.57,0.5,0.6,0.58,0.55,0.33,0.54,0.38,0.89,0.5,0.33,0.3,0.54,0.6,0.27,0.55,0.34,0.6,0.58,0.48,0.48,0.58,0.27,0.55,0.7,0.6,0.28,0.6,0.3,0.44,0.28,0.72,0.34,0.64,0.55,0.58,0.3,0.64,0.58,0.44,0.48,0.55,0.38,0.48,0.6,0.48,0.46,0.33,0.5,0.6,0.46,0.48,0.55,0.44,0.57,0.48,0.46,0.28" style="fill:rgb(0,0,0);font-family:AdvOT999035f4;font-size:8.97px;stroke:none;">band formation. Indeed, UV-Vis-NIR diﬀuse reectance spec-</text>
   <text y="450.645" x="42.517,45.503,48.955,53.806,57.724,61.83,66.681,71.81,75.7568,78.686,86.711,91.006,95.489,99.407,104.635,108.087,112.382,120.406,124.701,130.117,133.103,137.0498,140.026,144.876" svgx:width="0.33,0.38,0.54,0.44,0.46,0.54,0.57,0.44,0.55,0.89,0.48,0.5,0.44,0.58,0.38,0.48,0.89,0.48,0.6,0.33,0.44,0.55,0.54,0.33" style="fill:rgb(0,0,0);font-family:AdvOT999035f4;font-size:8.97px;stroke:none;">troscopy measurements of</text>
   <text y="450.645" x="150.801,155.93,161.812,167.129,169.648" svgx:width="0.57,0.66,0.59,0.28,0.52" style="fill:rgb(0,0,0);font-family:AdvOTaa6301a5.B;font-size:8.97px;stroke:none;">PCT-1</text>
   <text y="450.645" x="174.329" svgx:width="0.45" style="fill:rgb(0,0,0);font-family:AdvPS44A44B;font-size:8.97px;stroke:none;">$</text>
   <text y="450.645" x="178.354,184.792,192.816" svgx:width="0.72,0.89,0.55" style="fill:rgb(0,0,0);font-family:AdvOTaa6301a5.B;font-size:8.97px;stroke:none;">DMF</text>
   <text y="450.645" x="200.691,204.609,210.025,214.875,221.125,225.42,230.62259999999998,233.628,238.113,241.055,247.305,250.013,255.24,259.54560000000004,262.485,266.968,272.097,276.015,280.866,284.318,289.446" svgx:width="0.44,0.6,0.54,0.7,0.48,0.58,0.55,0.5,0.55,0.7,0.3,0.58,0.48,0.55,0.5,0.57,0.44,0.54,0.38,0.57,0.28" style="fill:rgb(0,0,0);font-family:AdvOT999035f4;font-size:8.97px;stroke:none;">showed a wide absorp-</text>
   <text y="462.607" x="42.517,45.503,48.211,53.061,58.443,61.962,67.091,71.574,76.99,82.1926,85.659,90.142,93.1021,96.601,101.263,105.926,110.605,114.914,119.576,124.239,128.9034,132.375,137.79,145.7733,149.269,152.066,157.016,159.724,164.296,166.7179,170.188,174.761" svgx:width="0.33,0.3,0.54,0.6,0.55,0.57,0.5,0.6,0.58,0.55,0.5,0.33,0.55,0.52,0.52,0.52,0.48,0.52,0.52,0.52,0.55,0.6,0.89,0.55,0.31,0.55,0.3,0.51,0.27,0.55,0.51,0.52" style="fill:rgb(0,0,0);font-family:AdvOT999035f4;font-size:8.97px;stroke:none;">tion band at 700–800 nm (Fig. S3</text>
   <text y="462.607" x="179.431" svgx:width="0.5" style="fill:rgb(0,0,0);font-family:AdvPS497E2;font-size:8.97px;stroke:none;">†</text>
   <text y="462.607" x="183.909,186.707,189.1289,192.583,198.833,204.249,206.956,211.063,216.445,219.966,223.418,227.712,232.841,236.293,240.588,244.506,248.801,254.217,257.203,261.14979999999997,264.581,267.567,272.982,277.28760000000005,280.738,286.62" svgx:width="0.31,0.27,0.55,0.7,0.6,0.3,0.46,0.6,0.55,0.38,0.48,0.57,0.38,0.48,0.44,0.48,0.6,0.33,0.44,0.55,0.33,0.6,0.48,0.55,0.66,0.59" style="fill:rgb(0,0,0);font-family:AdvOT999035f4;font-size:8.97px;stroke:none;">), which represents the CT</text>
   <text y="474.568" x="42.517,47.646,52.129,57.545,62.747600000000006,65.137,70.266,74.561,77.547,83.796,88.091,92.386,97.768,100.229,107.231,114.234,119.551,124.6639,127.043,131.526,136.942,142.1446,144.561,151.563,156.88,162.197,164.717,170.599,177.037,179.4589,181.863,187.18,192.596,196.9016,199.268,203.563,206.172,210.467,214.573,217.559,221.011,225.862,231.277,233.985,238.11120000000003,240.539,244.457,247.443,251.926,254.912,259.2176,261.571,266.422,269.38210000000004,271.776,278.778,284.095,289.412" svgx:width="0.57,0.5,0.6,0.58,0.55,0.57,0.48,0.33,0.7,0.48,0.48,0.6,0.55,0.78,0.78,0.59,0.57,0.55,0.5,0.6,0.58,0.55,0.78,0.59,0.59,0.28,0.66,0.72,0.27,0.55,0.59,0.6,0.48,0.55,0.48,0.29,0.48,0.46,0.33,0.38,0.54,0.6,0.3,0.46,0.55,0.44,0.33,0.5,0.33,0.48,0.55,0.54,0.33,0.55,0.78,0.59,0.59,0.28" style="fill:rgb(0,0,0);font-family:AdvOT999035f4;font-size:8.97px;stroke:none;">band between HHTP and HAT-CN. The electronic state of HAT-</text>
   <text y="486.53" x="42.517,48.399,54.8574,57.257,59.965" svgx:width="0.66,0.72,0.55,0.3,0.6" style="fill:rgb(0,0,0);font-family:AdvOT999035f4;font-size:8.97px;stroke:none;">CN in</text>
   <text y="486.53" x="67.802,72.931,78.813,84.13,86.649" svgx:width="0.57,0.66,0.59,0.28,0.52" style="fill:rgb(0,0,0);font-family:AdvOTaa6301a5.B;font-size:8.97px;stroke:none;">PCT-1</text>
   <text y="486.53" x="91.33" svgx:width="0.45" style="fill:rgb(0,0,0);font-family:AdvPS44A44B;font-size:8.97px;stroke:none;">$</text>
   <text y="486.53" x="95.355,101.792,109.817" svgx:width="0.72,0.89,0.55" style="fill:rgb(0,0,0);font-family:AdvOTaa6301a5.B;font-size:8.97px;stroke:none;">DMF</text>
   <text y="486.53" x="117.181,123.431,127.914,131.8608,134.245,137.231,142.646,146.941,152.323,154.767,159.062,163.07,167.553,170.162,175.39,179.873,182.859,187.153,192.35559999999998,194.791,199.92,203.86679999999998,206.299,211.249,216.566,219.085,222.16,227.9008,230.336,234.254,239.383,243.678,247.784,250.77,254.222,259.073,262.991,267.098,271.949,277.077,280.996,283.4179,285.893,288.968" svgx:width="0.7,0.5,0.44,0.55,0.33,0.6,0.48,0.6,0.55,0.48,0.45,0.5,0.29,0.58,0.5,0.33,0.48,0.58,0.55,0.57,0.44,0.55,0.55,0.59,0.28,0.34,0.64,0.55,0.44,0.57,0.48,0.46,0.33,0.38,0.54,0.44,0.46,0.54,0.57,0.44,0.27,0.55,0.34,0.33" style="fill:rgb(0,0,0);font-family:AdvOT999035f4;font-size:8.97px;stroke:none;">was then evaluated by FT-IR spectroscopy. It</text>
   <text y="498.492" x="42.516,47.932,52.415,56.3618,60.26,65.389,69.684,73.979,79.361,83.334,86.786,91.081,96.21,101.061,104.513,107.499,111.793,116.99560000000001,120.978,123.963,129.379,133.862,136.8221,140.763,143.748,149.164,153.46959999999999,157.374,161.292,164.278,167.73,172.025,175.01,179.117,184.533,187.24,192.656,197.2307,201.196,205.203,207.911,213.04,216.492,220.975,223.961,226.669,231.52,236.90200000000002,240.879,246.008,250.303,254.786,259.637,263.5838,267.468,272.319,275.2791,279.26,282.246,287.661" svgx:width="0.6,0.5,0.44,0.55,0.57,0.48,0.48,0.6,0.55,0.38,0.48,0.57,0.54,0.38,0.33,0.48,0.58,0.55,0.33,0.6,0.5,0.33,0.55,0.33,0.6,0.48,0.55,0.44,0.33,0.38,0.48,0.33,0.46,0.6,0.3,0.6,0.51,0.55,0.45,0.3,0.57,0.38,0.5,0.33,0.3,0.54,0.6,0.55,0.57,0.48,0.5,0.54,0.44,0.55,0.54,0.33,0.55,0.33,0.6,0.48" style="fill:rgb(0,0,0);font-family:AdvOT999035f4;font-size:8.97px;stroke:none;">has been reported that the stretching vibration peaks of the</text>
   <text y="510.454" x="42.516,47.932,50.64,53.625,57.077,59.785,62.394,66.6996,69.047,73.62,77.072,81.923,87.15,92.2629,94.672" svgx:width="0.6,0.3,0.33,0.38,0.3,0.29,0.48,0.55,0.51,0.38,0.54,0.58,0.57,0.55,0.31" style="fill:rgb(0,0,0);font-family:AdvOT999035f4;font-size:8.97px;stroke:none;">nitrile group (</text>
   <text y="510.454" x="97.452" svgx:width="0.44" style="fill:rgb(0,0,0);font-family:AdvPS4721B4;font-size:8.97px;stroke:none;">n</text>
   <text y="511.938" x="101.367,105.779" svgx:width="0.66,0.72" style="fill:rgb(0,0,0);font-family:AdvOT999035f4;font-size:5.98px;stroke:none;">CN</text>
   <text y="510.464" x="110.664,113.4447,115.824,120.674,123.6341,126.028,133.031,138.348,143.665,146.185,152.066,158.5244,160.894,167.143,169.851,172.837,178.219,180.566,185.981,190.276,195.504,198.489,201.941,206.425,209.02630000000002,211.405,215.889,221.304,226.5066,228.923,233.406,238.822,241.53,246.38,251.796,254.504,258.6302,260.953,264.405,268.888,274.116,276.824,280.93,285.413,288.022" svgx:width="0.31,0.55,0.54,0.33,0.55,0.78,0.59,0.59,0.28,0.66,0.72,0.55,0.7,0.3,0.33,0.6,0.55,0.6,0.48,0.58,0.33,0.38,0.5,0.29,0.55,0.5,0.6,0.58,0.55,0.5,0.6,0.3,0.54,0.6,0.3,0.46,0.55,0.38,0.5,0.58,0.3,0.46,0.5,0.29,0.44" style="fill:rgb(0,0,0);font-family:AdvOT999035f4;font-size:8.97px;stroke:none;">) of HAT-CN with neutral and anionic radicals</text>
   <text y="522.425" x="42.52,47.003,52.132,57.26,61.555,66.038,69.4466,74.21,78.693,81.6531,86.399,91.061,95.724,100.386,105.0504,109.756,114.239,119.655,124.8576,129.599,134.261,138.924,143.586,148.2504,153.012,157.119" svgx:width="0.5,0.57,0.57,0.48,0.5,0.38,0.55,0.5,0.33,0.55,0.52,0.52,0.52,0.52,0.55,0.5,0.6,0.58,0.55,0.52,0.52,0.52,0.52,0.55,0.46,0.89" style="fill:rgb(0,0,0);font-family:AdvOT999035f4;font-size:8.97px;stroke:none;">appear at 2241 and 2210 cm</text>
   <text y="518.401" code="1" x="165.146" svgx:width="0.77" style="fill:rgb(0,0,0);font-family:AdvP4C4E74;font-size:5.98px;stroke:none;">?</text>
   <text y="518.401" x="170.306" svgx:width="0.52" style="fill:rgb(0,0,0);font-family:AdvOT999035f4;font-size:5.98px;stroke:none;">1</text>
   <text y="522.426" x="173.82,176.2419,180.964,184.416,188.711,192.629,197.758,202.053,206.159,209.145,211.853,215.861,220.156,222.765,226.683" svgx:width="0.27,0.55,0.38,0.48,0.44,0.57,0.48,0.46,0.33,0.3,0.45,0.48,0.29,0.44,0.27" style="fill:rgb(0,0,0);font-family:AdvOT999035f4;font-size:8.97px;stroke:none;">, respectively.</text>
   <text y="519.081" x="229.153,232.066" svgx:width="0.52,0.52" style="fill:rgb(0,0,0);font-family:AdvOTaa6301a5.B;font-size:4.98px;stroke:none;">51</text>
   <text y="522.426" x="239.698,242.773,248.155,252.907,255.893,261.308,265.6136,270.311,275.261,280.578,283.097,286.173" svgx:width="0.34,0.6,0.55,0.33,0.6,0.48,0.55,0.55,0.59,0.28,0.34,0.64" style="fill:rgb(0,0,0);font-family:AdvOT999035f4;font-size:8.97px;stroke:none;">In the FT-IR</text>
   <text y="534.388" x="42.519,46.437,51.566,55.861,59.967,62.953,66.405,71.632,79.6153,85.434,90.285" svgx:width="0.44,0.57,0.48,0.46,0.33,0.38,0.58,0.89,0.55,0.54,0.33" style="fill:rgb(0,0,0);font-family:AdvOT999035f4;font-size:8.97px;stroke:none;">spectrum of</text>
   <text y="534.388" x="98.985,104.114,109.996,115.313,117.832" svgx:width="0.57,0.66,0.59,0.28,0.52" style="fill:rgb(0,0,0);font-family:AdvOTaa6301a5.B;font-size:8.97px;stroke:none;">PCT-1</text>
   <text y="534.388" x="122.513" svgx:width="0.27" style="fill:rgb(0,0,0);font-family:AdvOT999035f4;font-size:8.97px;stroke:none;">,</text>
   <text y="534.388" x="130.676" svgx:width="0.44" style="fill:rgb(0,0,0);font-family:AdvPS4721B4;font-size:8.97px;stroke:none;">n</text>
   <text y="535.862" x="134.646,139.058" svgx:width="0.66,0.72" style="fill:rgb(0,0,0);font-family:AdvOT999035f4;font-size:5.98px;stroke:none;">CN</text>
   <text y="534.388" x="149.613,155.862,160.345,164.2918,170.022,174.872,180.001,183.919,188.214,191.666,195.674,199.969,205.17159999999998,210.953,215.804,221.219,223.828,227.7748,233.516,238.0,240.9601,246.726,251.388,256.051,260.713,265.3774,271.103,275.21" svgx:width="0.7,0.5,0.44,0.55,0.54,0.57,0.44,0.48,0.38,0.45,0.48,0.58,0.55,0.54,0.6,0.29,0.44,0.55,0.5,0.33,0.55,0.52,0.52,0.52,0.52,0.55,0.46,0.89" style="fill:rgb(0,0,0);font-family:AdvOT999035f4;font-size:8.97px;stroke:none;">was observed only at 2241 cm</text>
   <text y="530.363" code="1" x="283.294" svgx:width="0.77" style="fill:rgb(0,0,0);font-family:AdvP4C4E74;font-size:5.98px;stroke:none;">?</text>
   <text y="530.363" x="288.454" svgx:width="0.52" style="fill:rgb(0,0,0);font-family:AdvOT999035f4;font-size:5.98px;stroke:none;">1</text>
   <text y="546.293" x="42.52,45.317,50.267,52.974,57.547,59.9689,62.078,66.651" svgx:width="0.31,0.55,0.3,0.51,0.27,0.55,0.51,0.52" style="fill:rgb(0,0,0);font-family:AdvOT999035f4;font-size:8.97px;stroke:none;">(Fig. S4</text>
   <text y="546.293" x="71.319" svgx:width="0.5" style="fill:rgb(0,0,0);font-family:AdvPS497E2;font-size:8.97px;stroke:none;">†</text>
   <text y="546.293" x="75.798,78.596,81.0179,83.055,85.762,91.178,96.405,99.113,103.22,107.703,110.689,113.397,118.812,123.38669999999999,125.46,128.446,133.861,138.344,141.3041,143.431,146.417,151.832,156.1376,158.227,165.23,170.547,175.864,178.383,184.265,190.7234,192.752,200.777,205.627,208.237,212.532,216.638,221.865,224.475,228.77,232.7168,234.816,237.524" svgx:width="0.31,0.27,0.55,0.3,0.6,0.58,0.3,0.46,0.5,0.33,0.3,0.6,0.51,0.55,0.33,0.6,0.5,0.33,0.55,0.33,0.6,0.48,0.55,0.78,0.59,0.59,0.28,0.66,0.72,0.55,0.89,0.54,0.29,0.48,0.46,0.58,0.29,0.48,0.44,0.55,0.3,0.6" style="fill:rgb(0,0,0);font-family:AdvOT999035f4;font-size:8.97px;stroke:none;">), indicating that the HAT-CN molecules in</text>
   <text y="546.293" x="245.027,250.156,256.038,261.355,263.874" svgx:width="0.57,0.66,0.59,0.28,0.52" style="fill:rgb(0,0,0);font-family:AdvOTaa6301a5.B;font-size:8.97px;stroke:none;">PCT-1</text>
   <text y="546.293" x="268.555" svgx:width="0.45" style="fill:rgb(0,0,0);font-family:AdvPS44A44B;font-size:8.97px;stroke:none;">$</text>
   <text y="546.293" x="272.523,278.961,286.986" svgx:width="0.72,0.89,0.55" style="fill:rgb(0,0,0);font-family:AdvOTaa6301a5.B;font-size:8.97px;stroke:none;">DMF</text>
   <text y="609.79" x="303.307,307.79,311.242,315.54760000000005,319.465,324.88,329.175,334.402,337.388,340.84,345.323,347.933,350.3549,354.329,359.646,365.062,369.36760000000004,373.321,381.345,386.196,388.805,393.1,397.207,402.434,405.043,409.527,412.93559999999997,416.973,421.824,425.276,430.405,433.112,436.098,440.581,443.1823,447.133,451.984,454.9441,458.925,463.408,468.79,472.758,479.76,486.763,492.08,497.1929,501.16,505.643,511.059,516.2616,520.266,527.268,532.585,537.902,540.422,546.304" svgx:width="0.5,0.38,0.48,0.55,0.6,0.48,0.58,0.33,0.38,0.5,0.29,0.27,0.55,0.59,0.6,0.48,0.55,0.89,0.54,0.29,0.48,0.46,0.58,0.29,0.5,0.38,0.55,0.54,0.38,0.57,0.3,0.33,0.5,0.29,0.55,0.54,0.33,0.55,0.5,0.6,0.55,0.78,0.78,0.59,0.57,0.55,0.5,0.6,0.58,0.55,0.78,0.59,0.59,0.28,0.66,0.72" style="fill:rgb(0,0,0);font-family:AdvOT999035f4;font-size:8.97px;stroke:none;">are neutral. The molecular orbital of an HHTP and HAT-CN</text>
   <text y="621.695" x="303.307,308.535,311.242,319.267,323.562,326.9706,331.256,335.363,340.59,343.5501,347.867,350.853,354.305,359.156,367.1393,371.395,374.38,379.796,384.1016,388.345,392.452,395.904,399.822,403.741,406.726,411.21,413.81129999999996,418.108,422.026,425.012,428.464,433.692,437.798,440.784,446.011,449.463,453.76860000000005,458.019,462.87" svgx:width="0.58,0.3,0.89,0.48,0.38,0.55,0.46,0.58,0.33,0.55,0.33,0.38,0.54,0.89,0.55,0.33,0.6,0.48,0.55,0.46,0.38,0.44,0.44,0.33,0.5,0.29,0.55,0.44,0.33,0.38,0.58,0.46,0.33,0.58,0.38,0.48,0.55,0.54,0.33" style="fill:rgb(0,0,0);font-family:AdvOT999035f4;font-size:8.97px;stroke:none;">dimer cut from the crystal structure of</text>
   <text y="621.695" x="470.098,475.227,481.109,486.426,488.945" svgx:width="0.57,0.66,0.59,0.28,0.52" style="fill:rgb(0,0,0);font-family:AdvOTaa6301a5.B;font-size:8.97px;stroke:none;">PCT-1</text>
   <text y="621.695" x="493.626" svgx:width="0.45" style="fill:rgb(0,0,0);font-family:AdvPS44A44B;font-size:8.97px;stroke:none;">$</text>
   <text y="621.695" x="497.651,504.089,512.114" svgx:width="0.72,0.89,0.55" style="fill:rgb(0,0,0);font-family:AdvOTaa6301a5.B;font-size:8.97px;stroke:none;">DMF</text>
   <text y="621.695" x="521.349,527.598,532.081,536.0278000000001,540.227,545.078,550.207" svgx:width="0.7,0.5,0.44,0.55,0.54,0.57,0.28" style="fill:rgb(0,0,0);font-family:AdvOT999035f4;font-size:8.97px;stroke:none;">was ob-</text>
   <text y="633.657" x="303.307,306.293,310.776,313.484,318.9,323.195,328.3976,330.519,335.648,339.5948,341.631,346.858,351.153,356.569,360.487,363.195,366.181,370.1278,372.187,375.173,380.4,385.816,389.923,392.908,395.616,400.467,405.883,410.366,412.96729999999997,415.102,418.088,423.503,427.798,432.649,436.101,440.0478,442.087,444.884,451.322,456.272,461.589,464.3697,466.521,470.627,475.111,477.72,481.826,487.054,489.663,494.146,497.132,499.84,504.69,510.106,514.0528,516.125,521.353,525.271,527.979,533.394,537.9687,540.049,543.035,548.451" svgx:width="0.33,0.5,0.3,0.6,0.48,0.58,0.55,0.57,0.44,0.55,0.58,0.48,0.6,0.44,0.3,0.33,0.44,0.55,0.33,0.58,0.6,0.46,0.33,0.3,0.54,0.6,0.5,0.29,0.55,0.33,0.6,0.48,0.54,0.38,0.44,0.55,0.31,0.72,0.55,0.59,0.31,0.55,0.46,0.5,0.29,0.46,0.58,0.29,0.5,0.33,0.3,0.54,0.6,0.44,0.55,0.58,0.44,0.3,0.6,0.51,0.55,0.33,0.6,0.48" style="fill:rgb(0,0,0);font-family:AdvOT999035f4;font-size:8.97px;stroke:none;">tained by density functional theory (DFT) calculations using the</text>
   <text y="645.619" x="303.307,308.813,313.475,318.514,323.831,328.96,331.668,336.33,338.85,343.512,348.175,352.837,357.5" svgx:width="0.61,0.52,0.56,0.59,0.57,0.3,0.52,0.28,0.52,0.52,0.52,0.52,0.7" style="fill:rgb(0,0,0);font-family:AdvOT999035f4;font-size:8.97px;stroke:none;">B3LYP/6-31++G</text>
   <text y="645.619" x="363.798,368.282" svgx:width="0.5,0.5" style="fill:rgb(0,0,0);font-family:AdvPS497E3;font-size:8.97px;stroke:none;">**</text>
   <text y="645.619" x="376.895,379.504,383.799,387.807,392.101,394.7023,398.891,403.741,406.7011,410.853,413.838,419.254,423.549,428.4,431.852,435.79879999999997,439.935,445.162,450.578,455.805,460.1,463.5086,467.657,472.23,476.713,480.631,483.151,488.279,493.695,498.178,502.096,506.40160000000003,510.515,514.621,519.472,524.888,530.115,532.823,535.809,538.517,543.367,548.783" svgx:width="0.29,0.48,0.45,0.48,0.29,0.55,0.54,0.33,0.55,0.33,0.6,0.48,0.54,0.38,0.44,0.55,0.58,0.6,0.58,0.48,0.38,0.55,0.51,0.5,0.44,0.28,0.57,0.6,0.5,0.44,0.48,0.55,0.46,0.54,0.6,0.58,0.3,0.33,0.3,0.54,0.6,0.44" style="fill:rgb(0,0,0);font-family:AdvOT999035f4;font-size:8.97px;stroke:none;">level of theory under gas-phase conditions</text>
   <text y="657.581" x="303.307,306.015,311.431,315.537,318.147,323.374,328.601,331.309,336.725,341.29970000000003,344.295,349.522,352.23,356.148,361.277,365.572,369.024,372.942,375.65,380.501,385.883,388.91,391.896,396.747,400.199,404.306,408.6,412.5468,415.498,421.748,424.455,427.441,432.823,435.851,442.1,445.552,448.26,456.285,464.31,468.605,470.658,474.6048,477.575,484.013,488.6774,491.692,496.821,501.304,504.756,509.239,517.264,521.559,524.544,528.839,532.291,534.7129000000001,537.725,543.042,548.458" svgx:width="0.3,0.6,0.46,0.29,0.58,0.58,0.3,0.6,0.51,0.55,0.58,0.3,0.44,0.57,0.48,0.38,0.44,0.3,0.54,0.6,0.55,0.33,0.54,0.38,0.46,0.48,0.44,0.55,0.7,0.3,0.33,0.6,0.55,0.7,0.38,0.3,0.89,0.89,0.48,0.23,0.44,0.55,0.72,0.52,0.55,0.57,0.5,0.38,0.5,0.89,0.48,0.33,0.48,0.38,0.27,0.55,0.59,0.6,0.48" style="fill:rgb(0,0,0);font-family:AdvOT999035f4;font-size:8.97px;stroke:none;">including dispersion forces with Grimme's D2 parameter. The</text>
   <text y="669.543" x="303.307,308.723,311.431,316.004,321.419,325.714,329.632,332.5921,335.904,340.755,344.862,348.968,354.196,359.324,362.032,366.327,371.5296,374.795,382.82,387.67,390.28,394.574,398.681,403.908,406.518,411.001,414.40959999999995,417.767,422.617,426.069,431.198,433.906,436.892,441.375,443.9763,447.246,450.044,457.046,463.484,471.509,477.947,480.7277,484.038,488.522,493.937,499.13960000000003,502.407,505.016,509.867,516.116,520.411,524.329,527.2891,530.639,535.866,541.282,546.133,550.239" svgx:width="0.6,0.3,0.51,0.6,0.48,0.44,0.33,0.55,0.54,0.46,0.46,0.58,0.57,0.3,0.48,0.58,0.55,0.89,0.54,0.29,0.48,0.46,0.58,0.29,0.5,0.38,0.55,0.54,0.38,0.57,0.3,0.33,0.5,0.29,0.55,0.31,0.78,0.72,0.89,0.72,0.31,0.55,0.5,0.6,0.58,0.55,0.29,0.54,0.7,0.48,0.44,0.33,0.55,0.58,0.6,0.54,0.46,0.28" style="fill:rgb(0,0,0);font-family:AdvOT999035f4;font-size:8.97px;stroke:none;">highest occupied molecular orbital (HOMO) and lowest unoc-</text>
   <text y="681.505" x="303.307,307.414,312.641,317.77,320.478,324.773,329.97560000000004,333.977,342.002,346.853,349.462,353.757,357.864,363.091,365.7,370.183,373.59159999999997,377.63,382.481,385.933,391.061,393.769,396.755,401.238,403.8393,407.846,410.644,415.683,421.932,429.957,436.395,439.1757,443.222,447.14,452.556,457.407,463.656,469.038,473.041,475.749,481.13100000000003,485.117,490.066,492.774,497.347,499.7689,503.769,508.341" svgx:width="0.46,0.58,0.57,0.3,0.48,0.58,0.55,0.89,0.54,0.29,0.48,0.46,0.58,0.29,0.5,0.38,0.55,0.54,0.38,0.57,0.3,0.33,0.5,0.29,0.55,0.31,0.56,0.7,0.89,0.72,0.31,0.55,0.44,0.6,0.54,0.7,0.6,0.55,0.3,0.6,0.55,0.55,0.3,0.51,0.27,0.55,0.51,0.52" style="fill:rgb(0,0,0);font-family:AdvOT999035f4;font-size:8.97px;stroke:none;">cupied molecular orbital (LUMO) shown in Fig. S5</text>
   <text y="681.505" x="513.015" svgx:width="0.5" style="fill:rgb(0,0,0);font-family:AdvPS497E2;font-size:8.97px;stroke:none;">†</text>
   <text y="681.505" x="521.462,525.568,530.419,535.862,541.248,544.7" svgx:width="0.46,0.54,0.6,0.6,0.38,0.89" style="fill:rgb(0,0,0);font-family:AdvOT999035f4;font-size:8.97px;stroke:none;">conrm</text>
   <text y="693.467" x="303.306,306.292,311.708,316.191,319.1511,324.226,327.211,332.627,336.93260000000004,341.97,349.995,354.478,357.087,361.938,365.39,368.098,371.084,375.0308,380.066,384.917,387.8771,392.935,395.921,401.337,405.6426,410.68,417.682,424.12,432.145,438.60339999999997,443.617,446.325,450.2718,455.296,457.905,462.756,466.862,471.346,473.955,476.663,480.671,484.965,490.1676,495.263,500.114,505.496,510.571,513.556,518.972,523.2776,528.258,535.261,542.264,547.581" svgx:width="0.33,0.6,0.5,0.33,0.55,0.33,0.6,0.48,0.55,0.89,0.5,0.29,0.54,0.38,0.3,0.33,0.44,0.55,0.54,0.33,0.55,0.33,0.6,0.48,0.55,0.78,0.72,0.89,0.72,0.55,0.3,0.44,0.55,0.29,0.54,0.46,0.5,0.29,0.3,0.45,0.48,0.58,0.55,0.54,0.6,0.55,0.33,0.6,0.48,0.55,0.78,0.78,0.59,0.57" style="fill:rgb(0,0,0);font-family:AdvOT999035f4;font-size:8.97px;stroke:none;">that the majority of the HOMO is localized on the HHTP</text>
   <text y="705.429" x="303.306,311.331,316.182,318.791,323.086,327.193,332.42,335.029,339.3346,341.289,345.773,351.188,356.3906,358.411,361.396,366.812,371.11760000000004,373.037,381.062,385.545,388.154,393.005,396.457,399.165,402.151,406.0978,408.072,412.923,415.8831,417.88,420.865,426.281,430.58660000000003,432.506,437.545,443.795,451.82,458.2784,460.228,462.936,466.8828,468.846,471.455,476.306,480.412,484.896,487.505,490.213,494.22,498.515,503.7176,505.695,510.545,515.927,517.94,520.926,526.341,530.6466,532.567,539.569,544.886,550.203" svgx:width="0.89,0.54,0.29,0.48,0.46,0.58,0.29,0.48,0.55,0.5,0.6,0.58,0.55,0.33,0.6,0.48,0.55,0.89,0.5,0.29,0.54,0.38,0.3,0.33,0.44,0.55,0.54,0.33,0.55,0.33,0.6,0.48,0.55,0.56,0.7,0.89,0.72,0.55,0.3,0.44,0.55,0.29,0.54,0.46,0.5,0.29,0.3,0.45,0.48,0.58,0.55,0.54,0.6,0.55,0.33,0.6,0.48,0.55,0.78,0.59,0.59,0.28" style="fill:rgb(0,0,0);font-family:AdvOT999035f4;font-size:8.97px;stroke:none;">molecule and the majority of the LUMO is localized on the HAT-</text>
   <text y="717.335" x="303.306,309.188,315.64639999999997,317.933,325.958,330.809,333.418,337.713,341.819,347.047,349.656,353.951,356.3729,358.637,363.954,369.37,372.078,376.02479999999997,378.309,381.761,386.056,389.975,395.202,397.811,400.7711,403.083,405.791,411.207,416.434,419.142,423.249,427.732,430.717,435.012,438.9588,441.237,444.223,449.638,454.121" svgx:width="0.66,0.72,0.55,0.89,0.54,0.29,0.48,0.46,0.58,0.29,0.48,0.27,0.55,0.59,0.6,0.3,0.44,0.55,0.38,0.48,0.44,0.58,0.29,0.33,0.55,0.3,0.6,0.58,0.3,0.46,0.5,0.33,0.48,0.44,0.55,0.33,0.6,0.5,0.33" style="fill:rgb(0,0,0);font-family:AdvOT999035f4;font-size:8.97px;stroke:none;">CN molecule. This result indicates that</text>
   <text y="717.335" x="459.383,464.511,470.393,475.71,478.23" svgx:width="0.57,0.66,0.59,0.28,0.52" style="fill:rgb(0,0,0);font-family:AdvOTaa6301a5.B;font-size:8.97px;stroke:none;">PCT-1</text>
   <text y="717.335" x="482.91" svgx:width="0.45" style="fill:rgb(0,0,0);font-family:AdvPS44A44B;font-size:8.97px;stroke:none;">$</text>
   <text y="717.335" x="486.935,493.373,501.398" svgx:width="0.72,0.89,0.55" style="fill:rgb(0,0,0);font-family:AdvOTaa6301a5.B;font-size:8.97px;stroke:none;">DMF</text>
   <text y="717.335" x="508.592,511.3,515.2468,517.493,521.9780000000001,524.297,529.713,534.007,539.235,542.221,545.673,550.156" svgx:width="0.3,0.44,0.55,0.5,0.55,0.6,0.48,0.58,0.33,0.38,0.5,0.29" style="fill:rgb(0,0,0);font-family:AdvOT999035f4;font-size:8.97px;stroke:none;">is a neutral</text>
  </g>
  <rect style="stroke:blue;stroke-width:0.3;" x="50.06" y="605.543" height="105.619" width="234.458" title="3"/>
  <text y="605.543" class="image" id="image.3.1" width="234" height="105" x="50.06">image.3.1.50_285.606_711</text>
  <g begin="text">
   <text y="705.657" x="42.52,46.405,48.191,52.547,54.4145,56.295" svgx:width="0.52,0.24,0.58,0.25,0.55,0.56" style="fill:rgb(0,0,0);font-family:AdvOTd3a5f740;font-size:7.47px;stroke:none;">Fig. 2</text>
   <text y="705.657" x="67.975,73.697,76.519,80.416,83.899,86.553,90.618,92.5308,94.563,98.046,100.7,103.521,108.168,112.48,115.134,119.677,122.498,126.8815,128.917,133.811" svgx:width="0.72,0.35,0.49,0.44,0.33,0.51,0.24,0.55,0.44,0.33,0.35,0.58,0.54,0.33,0.58,0.35,0.55,0.55,0.61,0.31" style="fill:rgb(0,0,0);font-family:AdvOT9b12cd41;font-size:7.97px;stroke:none;">Crystal structure of</text>
   <text y="705.657" x="138.331,143.145,148.868,153.514,157.244" svgx:width="0.6,0.72,0.58,0.47,0.48" style="fill:rgb(0,0,0);font-family:AdvOTd3a5f740;font-size:7.97px;stroke:none;">PCT-1</text>
   <text y="705.657" x="161.009" svgx:width="0.45" style="fill:rgb(0,0,0);font-family:AdvPS44A44B;font-size:7.97px;stroke:none;">$</text>
   <text y="705.657" x="164.58,170.47,177.356" svgx:width="0.74,0.86,0.52" style="fill:rgb(0,0,0);font-family:AdvOTd3a5f740;font-size:7.97px;stroke:none;">DMF</text>
   <text y="705.657" x="181.474,183.78529999999998,185.84,188.079,192.144,194.37560000000002,196.384,201.031,205.925,210.54760000000002,212.541,216.359,218.184,222.584,228.8803,230.91,234.974,239.621,244.24360000000001,246.273,248.513,253.159,255.3906,257.384,260.867,262.692,267.339,271.7225,273.768,277.585,279.411,283.81,290.115" svgx:width="0.29,0.55,0.28,0.51,0.28,0.55,0.58,0.61,0.58,0.55,0.48,0.23,0.55,0.79,0.55,0.51,0.58,0.58,0.55,0.28,0.58,0.28,0.55,0.44,0.23,0.58,0.55,0.55,0.48,0.23,0.55,0.79,0.24" style="fill:rgb(0,0,0);font-family:AdvOT9b12cd41;font-size:7.97px;stroke:none;">: (a) Top view and (b) side view.</text>
   <text y="715.635" x="42.52,47.166,51.813,56.1965,58.11,62.008,66.407,68.312,70.217,75.111,81.4073,83.337,90.558,95.452,97.357,101.756,106.068,110.715,112.62,117.019,120.5258,122.34,125.162,129.561,134.208,137.029,141.429,144.912,149.311,153.958,156.5881,158.509,164.399,171.118,175.183,177.0958,178.974,183.621,188.267,192.6505,194.621,199.18,202.002,206.066,209.964,211.8768,213.782,216.604,221.003,225.65,227.5628,229.429,233.494,238.14,242.7626,244.736,249.382,254.029,256.85,261.497,263.402,267.7855,269.68,273.745,276.399,281.292,288.513" svgx:width="0.58,0.58,0.55,0.55,0.49,0.55,0.24,0.24,0.61,0.79,0.55,0.91,0.61,0.24,0.55,0.54,0.58,0.24,0.55,0.44,0.55,0.35,0.55,0.58,0.35,0.55,0.44,0.55,0.58,0.33,0.55,0.74,0.84,0.51,0.24,0.55,0.58,0.58,0.55,0.55,0.57,0.35,0.51,0.49,0.24,0.55,0.35,0.55,0.58,0.24,0.55,0.51,0.58,0.58,0.55,0.58,0.58,0.35,0.58,0.24,0.55,0.55,0.51,0.33,0.61,0.91,0.44" style="fill:rgb(0,0,0);font-family:AdvOT9b12cd41;font-size:7.97px;stroke:none;">The yellow molecules represent DMF. The gray, red, and purple atoms</text>
   <text y="725.613" x="42.52,45.341,49.741,54.387,57.209,61.608,65.091,69.491,74.137,76.7671,79.085,84.808,86.72080000000001,89.12,95.671,97.58380000000001,99.948,104.013,108.659,113.28160000000001,115.652,121.629,123.54180000000001,125.913,128.734,133.134,136.617,141.263,145.663,149.975,152.629,154.454,158.17,162.569,164.474,168.371,170.6823,173.079,179.0565,181.413,185.478,188.132,193.026,200.247,203.7538,206.074,210.138,212.96,217.3435,219.736,224.63,231.851,233.676,236.33,238.984,243.384,248.0066,250.349,252.836,257.729,260.51849999999996,262.935,267.247,269.151,273.216,276.038,277.863,280.517,284.414" svgx:width="0.35,0.55,0.58,0.35,0.55,0.44,0.55,0.58,0.33,0.55,0.72,0.24,0.55,0.82,0.24,0.55,0.51,0.58,0.58,0.55,0.75,0.24,0.55,0.35,0.55,0.44,0.58,0.55,0.54,0.33,0.23,0.48,0.55,0.24,0.49,0.29,0.55,0.75,0.55,0.51,0.33,0.61,0.91,0.44,0.55,0.51,0.35,0.55,0.55,0.61,0.91,0.23,0.33,0.33,0.55,0.58,0.55,0.31,0.61,0.35,0.55,0.54,0.24,0.51,0.35,0.23,0.33,0.49,0.24" style="fill:rgb(0,0,0);font-family:AdvOT9b12cd41;font-size:7.97px;stroke:none;">represent C, O, and N, respectively; H atoms are omitted for clarity.</text>
  </g>
  <path style="fill:rgb(222,217,201);stroke:none;stroke-width:1.0;" d="M50.060 585.070 L284.430 585.070 L284.430 690.690 L50.060 690.690 "/>
  <rect style="stroke:blue;stroke-width:0.3;" x="311.017" y="71.043" height="427.748" width="234.181" title="3"/>
  <text y="71.043" class="image" id="image.3.2" width="234" height="427" x="311.017">image.3.2.311_545.71_499</text>
  <g begin="text">
   <text y="493.286" x="303.307,307.192,308.978,313.334,315.2015,317.649" svgx:width="0.52,0.24,0.58,0.25,0.55,0.56" style="fill:rgb(0,0,0);font-family:AdvOTd3a5f740;font-size:7.47px;stroke:none;">Fig. 3</text>
   <text y="493.286" x="329.329,331.569,335.633,337.8646,340.384,344.616,346.441,353.662,358.309,360.214,364.278,366.932,371.332,375.95459999999997,378.423,383.07,388.051,392.777,398.6748,401.213,405.86,409.924,412.579,415.233,419.632,422.454,427.0766,429.558,434.452" svgx:width="0.28,0.51,0.28,0.55,0.53,0.23,0.91,0.58,0.24,0.51,0.33,0.55,0.58,0.55,0.58,0.63,0.59,0.74,0.55,0.58,0.51,0.33,0.33,0.55,0.35,0.58,0.55,0.61,0.31" style="fill:rgb(0,0,0);font-family:AdvOT9b12cd41;font-size:7.97px;stroke:none;">(a) Simulated XRPD pattern of</text>
   <text y="493.286" x="439.484,444.298,450.02,454.667,458.397" svgx:width="0.6,0.72,0.58,0.47,0.48" style="fill:rgb(0,0,0);font-family:AdvOTd3a5f740;font-size:7.97px;stroke:none;">PCT-1</text>
   <text y="493.286" x="462.161" svgx:width="0.45" style="fill:rgb(0,0,0);font-family:AdvPS44A44B;font-size:7.97px;stroke:none;">$</text>
   <text y="493.286" x="465.733,471.623,478.509" svgx:width="0.74,0.86,0.52" style="fill:rgb(0,0,0);font-family:AdvOTd3a5f740;font-size:7.97px;stroke:none;">DMF</text>
   <text y="493.286" x="485.178,487.418,492.065,493.969,498.034,502.346,506.331,508.56260000000003,511.03,515.094,519.741,524.3636,526.903,531.303,535.2,539.847,544.246,547.068,548.893" svgx:width="0.28,0.58,0.24,0.51,0.54,0.5,0.28,0.55,0.51,0.58,0.58,0.55,0.55,0.49,0.58,0.55,0.35,0.23,0.49" style="fill:rgb(0,0,0);font-family:AdvOT9b12cd41;font-size:7.97px;stroke:none;">(black) and experi-</text>
   <text y="503.264" x="303.307,310.528,314.928,319.574,322.228,326.293,328.2058,330.858,335.505,340.487,345.213,351.11080000000004,353.762,358.408,362.473,365.127,367.781,372.181,375.002,379.649,383.1558,385.735,390.629" svgx:width="0.91,0.55,0.58,0.33,0.51,0.24,0.55,0.58,0.63,0.59,0.74,0.55,0.58,0.51,0.33,0.33,0.55,0.35,0.58,0.44,0.55,0.61,0.31" style="fill:rgb(0,0,0);font-family:AdvOT9b12cd41;font-size:7.97px;stroke:none;">mental XRPD patterns of</text>
   <text y="503.264" x="395.83,400.644,406.367,411.013,414.743" svgx:width="0.6,0.72,0.58,0.47,0.48" style="fill:rgb(0,0,0);font-family:AdvOTd3a5f740;font-size:7.97px;stroke:none;">PCT-1</text>
   <text y="503.264" x="418.508" svgx:width="0.45" style="fill:rgb(0,0,0);font-family:AdvPS44A44B;font-size:7.97px;stroke:none;">$</text>
   <text y="503.264" x="422.079,427.969,434.855" svgx:width="0.74,0.86,0.52" style="fill:rgb(0,0,0);font-family:AdvOTd3a5f740;font-size:7.97px;stroke:none;">DMF</text>
   <text y="503.264" x="441.695,443.935,446.756,451.156,455.802,458.042" svgx:width="0.28,0.35,0.55,0.58,0.28,0.24" style="fill:rgb(0,0,0);font-family:AdvOT9b12cd41;font-size:7.97px;stroke:none;">(red),</text>
   <text y="503.264" x="462.615,467.429,473.151,477.798,481.528" svgx:width="0.6,0.72,0.58,0.47,0.48" style="fill:rgb(0,0,0);font-family:AdvOTd3a5f740;font-size:7.97px;stroke:none;">PCT-1</text>
   <text y="503.264" x="488.013,490.253,494.812,497.633,502.033,506.432,510.973,513.213,515.1257999999999,517.833,521.898,526.544" svgx:width="0.28,0.57,0.35,0.55,0.55,0.58,0.28,0.24,0.55,0.51,0.58,0.58" style="fill:rgb(0,0,0);font-family:AdvOT9b12cd41;font-size:7.97px;stroke:none;">(green), and</text>
   <text y="503.264" x="533.878,538.692,544.414,549.061" svgx:width="0.6,0.72,0.58,0.47" style="fill:rgb(0,0,0);font-family:AdvOTd3a5f740;font-size:7.97px;stroke:none;">PCT-</text>
   <text y="513.241" x="303.307" svgx:width="0.48" style="fill:rgb(0,0,0);font-family:AdvOTd3a5f740;font-size:7.97px;stroke:none;">1</text>
   <text y="513.241" x="307.106" svgx:width="0.45" style="fill:rgb(0,0,0);font-family:AdvPS44A44B;font-size:7.97px;stroke:none;">$</text>
   <text y="513.241" x="310.677" svgx:width="0.75" style="fill:rgb(0,0,0);font-family:AdvOTd3a5f740;font-size:7.97px;stroke:none;">H</text>
   <text y="514.545" x="316.63" svgx:width="0.56" style="fill:rgb(0,0,0);font-family:AdvOTd3a5f740;font-size:5.31px;stroke:none;">2</text>
   <text y="513.242" x="319.975" svgx:width="0.81" style="fill:rgb(0,0,0);font-family:AdvOTd3a5f740;font-size:7.97px;stroke:none;">O</text>
   <text y="513.242" x="328.535,330.775,335.422,337.327,341.973,346.373,348.612,350.5248,352.572,357.219,361.865,366.24850000000004,368.332,372.891,375.713,380.112,384.512,389.1346,391.179,395.244,398.727,401.381,405.78,408.602,410.427,413.91,417.89500000000004,419.978,421.803,426.449,431.096,432.921,437.233,441.298,443.952,448.351,451.8578,453.822,456.476,461.123,465.5065,467.598,472.245,476.309,480.621,484.606,489.165,491.987,496.88,501.527,506.174,510.79659999999996,512.837,516.32,518.145,522.704,527.351,531.415,533.3277999999999,535.343,537.83,540.651,545.545" svgx:width="0.28,0.58,0.24,0.58,0.55,0.28,0.24,0.55,0.58,0.58,0.55,0.55,0.57,0.35,0.55,0.55,0.58,0.55,0.51,0.44,0.33,0.55,0.35,0.23,0.44,0.5,0.55,0.23,0.58,0.58,0.23,0.54,0.51,0.33,0.55,0.44,0.55,0.33,0.58,0.55,0.55,0.58,0.51,0.54,0.5,0.57,0.35,0.61,0.58,0.58,0.58,0.55,0.44,0.23,0.57,0.58,0.51,0.24,0.55,0.31,0.35,0.61,0.91" style="fill:rgb(0,0,0);font-family:AdvOT9b12cd41;font-size:7.97px;stroke:none;">(blue). The green asterisk indicates the background signal from</text>
   <text y="523.163" x="303.307,305.962,310.608,314.99150000000003,317.48,322.206,326.271,330.918,333.572,338.466,343.0886,345.544,349.853,351.757,359.0097,361.418,364.072,368.719,372.784,375.4141,377.915,381.398,386.044,387.87,392.269,394.174,398.821,402.3278,404.73,407.384,412.031,416.41450000000003,418.902,422.385,426.45,433.671,438.318,440.223,444.60650000000004,447.021,449.508,452.329,457.223,464.4757,466.92,470.984,478.205,482.852,484.677,489.077,493.621,496.2511,498.78,502.845,504.67,507.491,509.4038,511.876,514.115,518.762,520.9935999999999,523.44,527.92,529.824,534.224,538.536,541.19,544.011,548.905" svgx:width="0.33,0.58,0.55,0.55,0.59,0.51,0.58,0.33,0.61,0.58,0.55,0.54,0.24,0.91,0.55,0.33,0.58,0.51,0.33,0.55,0.44,0.58,0.23,0.55,0.24,0.58,0.44,0.55,0.33,0.58,0.55,0.55,0.44,0.51,0.91,0.58,0.24,0.55,0.55,0.31,0.35,0.61,0.91,0.55,0.51,0.91,0.58,0.23,0.55,0.58,0.33,0.55,0.51,0.23,0.35,0.24,0.55,0.28,0.58,0.28,0.55,0.56,0.24,0.55,0.54,0.33,0.35,0.61,0.49" style="fill:rgb(0,0,0);font-family:AdvOT9b12cd41;font-size:7.97px;stroke:none;">the Kapton ﬁlm that shields the sample from ambient air. (b) Electro-</text>
   <text y="533.141" x="303.307,306.79,309.444,313.509,316.163,317.989,322.2928,324.34,328.987,333.88,336.534,340.934,345.581,348.235,350.06,354.125,356.03,359.53679999999997,361.529,363.769,368.248,372.48,377.206,380.689,382.92060000000004,384.999,389.892,392.3627,394.41,400.388,406.365,411.012,415.7143,417.823,420.063,421.968,426.367,428.854,431.508,433.7396,435.794,439.859,444.506,449.12859999999995,451.214,457.192,462.086,466.732,470.63,476.352,482.3295,484.322,486.561,489.383,491.208,495.767,500.414,503.068,505.2996,507.338,509.163,513.7856,515.899,518.553,523.2,527.5835000000001,529.675,533.986,536.808,540.705,544.188,546.842,550.907" svgx:width="0.44,0.33,0.51,0.33,0.23,0.54,0.55,0.58,0.61,0.33,0.55,0.58,0.33,0.23,0.51,0.24,0.44,0.55,0.28,0.56,0.53,0.59,0.44,0.28,0.55,0.61,0.31,0.55,0.75,0.75,0.58,0.59,0.55,0.28,0.24,0.55,0.31,0.33,0.28,0.55,0.51,0.58,0.58,0.55,0.75,0.61,0.58,0.49,0.72,0.75,0.55,0.28,0.35,0.23,0.57,0.58,0.33,0.28,0.55,0.23,0.58,0.55,0.33,0.58,0.55,0.55,0.54,0.35,0.49,0.44,0.33,0.51,0.24" style="fill:rgb(0,0,0);font-family:AdvOT9b12cd41;font-size:7.97px;stroke:none;">static potentials (ESPs) of HHTP (left) and HAT-CN (right) in the crystal</text>
   <text y="543.119" x="303.307,306.79,309.444,312.266,316.913,321.224,323.879,328.525,331.347,335.7305,337.435,342.329" svgx:width="0.44,0.33,0.35,0.58,0.54,0.33,0.58,0.35,0.55,0.55,0.61,0.31" style="fill:rgb(0,0,0);font-family:AdvOT9b12cd41;font-size:7.97px;stroke:none;">structure of</text>
   <text y="543.119" x="346.564,351.378,357.101,361.747,365.477" svgx:width="0.6,0.72,0.58,0.47,0.48" style="fill:rgb(0,0,0);font-family:AdvOTd3a5f740;font-size:7.97px;stroke:none;">PCT-1</text>
   <text y="543.119" x="369.242" svgx:width="0.45" style="fill:rgb(0,0,0);font-family:AdvPS44A44B;font-size:7.97px;stroke:none;">$</text>
   <text y="543.119" x="372.757,378.647,385.533" svgx:width="0.74,0.86,0.52" style="fill:rgb(0,0,0);font-family:AdvOTd3a5f740;font-size:7.97px;stroke:none;">DMF</text>
   <text y="543.119" x="389.651,391.5638,393.336,397.569,402.048,410.457,412.282,419.503,423.568,428.127,432.527,436.0338,437.726,442.619,445.08970000000005,446.853,449.093,453.405" svgx:width="0.24,0.55,0.53,0.56,0.84,0.23,0.91,0.51,0.57,0.55,0.44,0.55,0.61,0.31,0.55,0.28,0.54,0.28" style="fill:rgb(0,0,0);font-family:AdvOT9b12cd41;font-size:7.97px;stroke:none;">. SEMimages of (c)</text>
   <text y="543.119" x="457.343,462.157,467.879,472.526,476.256" svgx:width="0.6,0.72,0.58,0.47,0.48" style="fill:rgb(0,0,0);font-family:AdvOTd3a5f740;font-size:7.97px;stroke:none;">PCT-1</text>
   <text y="543.119" x="480.02" svgx:width="0.45" style="fill:rgb(0,0,0);font-family:AdvPS44A44B;font-size:7.97px;stroke:none;">$</text>
   <text y="543.119" x="483.592,489.482,496.368" svgx:width="0.74,0.86,0.52" style="fill:rgb(0,0,0);font-family:AdvOTd3a5f740;font-size:7.97px;stroke:none;">DMF</text>
   <text y="543.119" x="502.244,506.308,510.955,515.5776,517.323,519.563,524.209" svgx:width="0.51,0.58,0.58,0.55,0.28,0.58,0.28" style="fill:rgb(0,0,0);font-family:AdvOT9b12cd41;font-size:7.97px;stroke:none;">and (d)</text>
   <text y="543.119" x="528.152,532.966,538.689,543.336,547.066" svgx:width="0.6,0.72,0.58,0.47,0.48" style="fill:rgb(0,0,0);font-family:AdvOTd3a5f740;font-size:7.97px;stroke:none;">PCT-1</text>
   <text y="543.119" x="550.83" svgx:width="0.24" style="fill:rgb(0,0,0);font-family:AdvOT9b12cd41;font-size:7.97px;stroke:none;">.</text>
   <text y="553.096" x="303.308,305.548,309.947,312.1786,318.728,323.622,328.268,331.751,336.645,339.467,344.113,346.767,348.592,353.486,358.10859999999997,364.591,366.831,371.724,376.371,380.771,385.3936,391.973,395.456,399.353,406.574,411.221,416.114,418.019,421.502,423.7336,430.239,434.304,438.951,443.5736,450.138,454.785,459.185,462.668,467.561,470.383,475.029,477.683,479.509,484.402,489.02459999999996,495.548,497.788,501.27,506.164,508.069,509.894,514.5166,521.059,524.542,528.439,535.66,540.307,545.201,547.105,550.588" svgx:width="0.28,0.55,0.28,0.55,0.61,0.58,0.44,0.61,0.35,0.58,0.33,0.23,0.61,0.58,0.55,0.28,0.61,0.58,0.55,0.58,0.55,0.44,0.49,0.91,0.58,0.61,0.24,0.44,0.28,0.55,0.51,0.58,0.58,0.55,0.58,0.55,0.44,0.61,0.35,0.58,0.33,0.23,0.61,0.58,0.55,0.28,0.44,0.61,0.24,0.23,0.58,0.55,0.44,0.49,0.91,0.58,0.61,0.24,0.44,0.28" style="fill:rgb(0,0,0);font-family:AdvOT9b12cd41;font-size:7.97px;stroke:none;">(e) Adsorption (open symbols) and desorption (solid symbols)</text>
   <text y="563.018" x="303.308,305.133,308.616,313.51,316.164,320.811,325.21,328.032,335.253,338.7598,341.064,343.551,348.444,351.2335,353.706" svgx:width="0.23,0.44,0.61,0.33,0.58,0.55,0.35,0.91,0.44,0.55,0.31,0.61,0.35,0.55,0.75" style="fill:rgb(0,0,0);font-family:AdvOT9b12cd41;font-size:7.97px;stroke:none;">isotherms for H</text>
   <text y="564.379" x="359.66" svgx:width="0.56" style="fill:rgb(0,0,0);font-family:AdvOT9b12cd41;font-size:5.31px;stroke:none;">2</text>
   <text y="563.018" x="363.005,369.5404,371.962,376.027,378.6571,381.146,385.626,390.352,395.05429999999996,397.473,402.1753,404.617,406.857,411.168,412.994,415.815,420.127,422.032,426.431,429.914,432.1456,434.55,438.615,443.261,447.8836,450.31" svgx:width="0.82,0.55,0.51,0.33,0.55,0.56,0.59,0.59,0.55,0.59,0.55,0.28,0.54,0.23,0.35,0.54,0.24,0.55,0.44,0.28,0.55,0.51,0.58,0.58,0.55,0.75" style="fill:rgb(0,0,0);font-family:AdvOT9b12cd41;font-size:7.97px;stroke:none;">O at 298 K (circles) and N</text>
   <text y="564.379" x="456.264" svgx:width="0.56" style="fill:rgb(0,0,0);font-family:AdvOT9b12cd41;font-size:5.31px;stroke:none;">2</text>
   <text y="563.018" x="462.047,466.112,468.74210000000005,471.175,475.239,479.3037,481.719,486.4213,488.863,491.102,493.757,496.578,498.403,502.468,507.115,511.673,513.578,517.978,521.461,523.614,525.5268,527.979,530.219,532.705,534.9366,537.333,541.565,546.044" svgx:width="0.51,0.33,0.55,0.51,0.51,0.55,0.59,0.55,0.28,0.33,0.35,0.23,0.51,0.58,0.57,0.24,0.55,0.44,0.28,0.24,0.55,0.28,0.31,0.28,0.55,0.53,0.56,0.84" style="fill:rgb(0,0,0);font-family:AdvOT9b12cd41;font-size:7.97px;stroke:none;">at 77 K (triangles). (f) SEM</text>
   <text y="572.996" x="303.306,305.131,312.352,316.417,320.976,325.3595,327.74,332.633" svgx:width="0.23,0.91,0.51,0.57,0.55,0.55,0.61,0.31" style="fill:rgb(0,0,0);font-family:AdvOT9b12cd41;font-size:7.97px;stroke:none;">image of</text>
   <text y="572.996" x="337.492,342.306,348.029,352.675,356.405" svgx:width="0.6,0.72,0.58,0.47,0.48" style="fill:rgb(0,0,0);font-family:AdvOTd3a5f740;font-size:7.97px;stroke:none;">PCT-1</text>
   <text y="572.996" x="362.55,366.615,369.102,371.756,376.155,378.94449999999995,381.315,387.62,391.685,394.339,398.738,401.5275,403.935,408.0,412.646,416.129,421.023,423.844,428.491,431.145,432.97,437.864,442.51" svgx:width="0.51,0.31,0.33,0.55,0.35,0.55,0.79,0.51,0.33,0.55,0.35,0.55,0.51,0.58,0.44,0.61,0.35,0.58,0.33,0.23,0.61,0.58,0.24" style="fill:rgb(0,0,0);font-family:AdvOT9b12cd41;font-size:7.97px;stroke:none;">after water adsorption.</text>
   <text y="758.268" x="42.52,46.584,50.731,52.035,55.247099999999996,57.648,58.952,63.317,67.381,69.66,73.807,77.379,79.09710000000001,81.517,82.821,86.0331,88.434,94.63409999999999,97.278,101.343,105.49,109.5985,112.01,116.388,120.767,124.112,127.713,129.4311,131.795,135.471,139.85,143.648,145.009,148.924,151.021,154.6066,156.974,161.396,163.637,166.045,171.261,175.408,179.323,185.958,187.262,190.243,192.341,194.619,198.2046,200.572,204.487,208.866,212.781" svgx:width="0.57,0.58,0.21,0.43,0.55,0.21,0.61,0.57,0.33,0.58,0.51,0.23,0.55,0.21,0.43,0.55,0.83,0.55,0.57,0.58,0.55,0.55,0.61,0.61,0.48,0.51,0.23,0.55,0.52,0.61,0.54,0.21,0.55,0.31,0.48,0.55,0.61,0.3,0.55,0.73,0.58,0.55,0.92,0.21,0.43,0.31,0.33,0.48,0.55,0.55,0.61,0.55,0.61" style="fill:rgb(102,102,102);font-family:AdvOT4199d003;font-size:7.47px;stroke:none;">This journal is © The Royal Society of Chemistry 2020</text>
   <text y="758.268" x="444.81,450.082,454.221,458.133,464.765,466.4831,468.847,472.589,476.501,477.918" svgx:width="0.73,0.58,0.55,0.92,0.23,0.55,0.53,0.55,0.22,0.23" style="fill:rgb(0,0,0);font-family:AdvOT358878cb.I;font-size:7.47px;stroke:none;">Chem. Sci.</text>
   <text y="758.268" x="479.393,481.1858,483.588,487.5,491.867,495.771,500.138" svgx:width="0.24,0.55,0.55,0.61,0.55,0.61,0.24" style="fill:rgb(0,0,0);font-family:AdvOT4199d003;font-size:7.47px;stroke:none;">, 2020,</text>
   <text y="758.268" x="504.337,507.683" svgx:width="0.48,0.48" style="fill:rgb(0,0,0);font-family:AdvOTd3a5f740;font-size:7.47px;stroke:none;">11</text>
   <text y="758.268" x="511.027,512.8198,515.222,519.134,522.649,526.561,530.699,534.8075,538.353" svgx:width="0.24,0.55,0.55,0.5,0.55,0.58,0.55,0.55,0.26" style="fill:rgb(0,0,0);font-family:AdvOT4199d003;font-size:7.47px;stroke:none;">, 37–43 |</text>
   <text y="758.268" x="543.798,548.05" svgx:width="0.56,0.59" style="fill:rgb(0,0,0);font-family:AdvOTd3a5f740;font-size:7.97px;stroke:none;">39</text>
   <text y="31.066" x="42.518,47.077,51.891,56.617,61.000499999999995,63.38,68.441,71.51,74.499,76.571,80.883,83.122,87.5055,486.879,492.522,497.336,501.736,508.957,511.029,515.341,519.573,521.8045999999999,524.125,528.524,532.836,534.908,539.308,544.122,548.434" svgx:width="0.57,0.6,0.59,0.55,0.55,0.63,0.38,0.38,0.26,0.54,0.28,0.55,0.55,0.71,0.6,0.55,0.91,0.26,0.54,0.53,0.28,0.55,0.55,0.54,0.26,0.55,0.6,0.54,0.55" style="fill:rgb(44,65,68);font-family:AdvOT2c8ce45a;font-size:7.97px;stroke:none;">Edge Article Chemical Science</text>
  </g>
  <g begin="text">
   <text y="466.978" transform="matrix(0.0,-1.0,1.0,0.0,-455.978,477.978)" rotateDegrees="-90" matrix="[0.0,8.0,-8.0,0.0,11.0,312.55]" x="11.0,16.77600000000001,20.77600000000001,24.32800000000003,28.32800000000003,30.32800000000003,36.103999999999985,39.656000000000006,43.20800000000003,46.75999999999999,49.872000000000014,52.98399999999998,54.98399999999998,60.75999999999999,63.424000000000035,65.64800000000002,67.87200000000001,71.42400000000004,73.64800000000002,77.19999999999999,79.19999999999999,81.19999999999999,85.64800000000002,89.64800000000002,93.64800000000002,95.87200000000001,98.096,101.20800000000003,105.20800000000003,108.75999999999999,112.75999999999999,114.75999999999999,118.75999999999999,122.75999999999999,124.75999999999999,128.76,132.76,134.76,140.536,144.536,148.536,152.08800000000002,158.312,162.312,165.86400000000003,168.52800000000002,170.52800000000002,174.52800000000002,178.52800000000002,182.52800000000002,186.52800000000002,188.52800000000002,190.52800000000002,196.30400000000003,200.30400000000003,206.07999999999998,210.07999999999998,212.30400000000003,216.30400000000003,219.856,223.856,227.40800000000002,231.40800000000002,233.40800000000002,237.40800000000002,241.40800000000002,243.40800000000002,247.40800000000002,249.632,253.632,257.632,259.856,263.856,267.856,271.856,275.856,277.856,281.856,284.08000000000004,288.08000000000004,292.08000000000004,294.304,298.304,302.304,304.304,308.752,315.86400000000003,317.86400000000003" svgx:width="0.72,0.5,0.44,0.5,0.25,0.72,0.44,0.44,0.44,0.39,0.39,0.25,0.72,0.33,0.28,0.28,0.44,0.28,0.44,0.25,0.25,0.56,0.5,0.5,0.28,0.28,0.39,0.5,0.44,0.5,0.25,0.5,0.5,0.25,0.5,0.5,0.25,0.72,0.5,0.5,0.44,0.78,0.5,0.44,0.33,0.25,0.5,0.5,0.5,0.5,0.25,0.25,0.72,0.5,0.72,0.5,0.28,0.5,0.44,0.5,0.44,0.5,0.25,0.5,0.5,0.25,0.5,0.28,0.5,0.5,0.28,0.5,0.5,0.5,0.5,0.25,0.5,0.28,0.5,0.5,0.28,0.5,0.5,0.25,0.56,0.89,0.25,0.25" style="fill:rgb(0,0,0);font-family:Times-Roman;font-size:8.0px;stroke:none;">Open Access Article. Published on 29 November 2019. Downloaded on 3/12/2020 3:02:22 PM. </text>
  </g>
  <g begin="text">
   <text y="423.148" transform="matrix(0.0,-1.0,1.0,0.0,-401.148,445.148)" rotateDegrees="-90" matrix="[0.0,8.0,-8.0,0.0,22.0,356.38]" x="22.0,24.0,28.888000000000034,32.888000000000034,35.11200000000002,38.224000000000046,40.224000000000046,43.77600000000001,46.44,48.664000000000044,50.888000000000034,54.44,56.664000000000044,60.21600000000001,62.21600000000001,64.44,67.55200000000002,69.55200000000002,71.77600000000001,74.0,77.55200000000002,81.10400000000004,85.10400000000004,88.21600000000001,91.76800000000003,95.76800000000003,97.76800000000003,101.76800000000003,105.76800000000003,109.76800000000003,113.32000000000005,115.98400000000004,117.98400000000004,121.536" svgx:width="0.25,0.61,0.5,0.28,0.39,0.25,0.44,0.33,0.28,0.28,0.44,0.28,0.44,0.25,0.28,0.39,0.25,0.28,0.28,0.44,0.44,0.5,0.39,0.44,0.5,0.25,0.5,0.5,0.5,0.44,0.33,0.25,0.44,0.25" style="fill:rgb(0,0,0);font-family:Times-Roman;font-size:8.0px;stroke:none;"> This article is licensed under a </text>
  </g>
  <rect style="stroke:blue;stroke-width:0.3;" x="14.0" y="446.24" height="64.0" width="12.0" title="3"/>
  <text y="446.24" class="image" id="image.3.3" width="12" height="64" x="14.0">image.3.3.14_26.446_510</text>
  <g begin="text">
   <text y="321.038" transform="matrix(0.0,-1.0,1.0,0.0,-299.038,343.038)" rotateDegrees="-90" matrix="[0.0,8.0,-8.0,0.0,22.0,458.49]" x="22.0,27.336000000000013,30.0,33.55200000000002,37.103999999999985,39.32800000000003,41.55200000000002,45.55200000000002,49.103999999999985,51.103999999999985,56.44,60.44,66.66399999999999,72.88800000000003,76.88800000000003,80.88800000000003,84.0,86.0,91.77600000000001,94.0,96.22400000000002,98.888,101.11200000000002,105.11200000000002,109.11200000000002,111.33600000000001,113.56,117.56,121.56,123.56,127.56,129.56,133.56,135.56,141.336,145.336,149.336,153.336,156.0,158.22400000000002,161.776,165.776,167.776,172.66400000000002,174.888,178.44,181.99200000000002,185.99200000000002,189.544,193.096" svgx:width="0.67,0.33,0.44,0.44,0.28,0.28,0.5,0.44,0.25,0.67,0.5,0.78,0.78,0.5,0.5,0.39,0.25,0.72,0.28,0.28,0.33,0.28,0.5,0.5,0.28,0.28,0.5,0.5,0.25,0.5,0.25,0.5,0.25,0.72,0.5,0.5,0.5,0.33,0.28,0.44,0.5,0.25,0.61,0.28,0.44,0.44,0.5,0.44,0.44,0.25" style="fill:rgb(0,0,0);font-family:Times-Roman;font-size:8.0px;stroke:none;">Creative Commons Attribution 3.0 Unported Licence.</text>
  </g>
  <g begin="text">
   <text y="15.998" x="497.03,501.092,502.82,506.192,511.574,513.074,517.436,519.8,522.128,523.856,526.616,528.344,531.716,533.216,537.92,541.682,543.41,545.138,548.9" svgx:width="0.68,0.29,0.56,0.9,0.25,0.73,0.39,0.39,0.29,0.46,0.29,0.56,0.25,0.78,0.63,0.29,0.29,0.63,0.56" style="fill:rgb(0,0,0);font-family:FrutigerNeueLTW1G-Bold;font-size:6.0px;stroke:none;">View Article Online</text>
  </g>
 </g>
</svg>
