<?xml version="1.0" encoding="UTF-8"?>
<svg height="809.37" width="4486.363" xmlns="http://www.w3.org/2000/svg">
 <g id="page" xmlns:svgx="http://www.xml-cml.org/schema/svgx">
  <path style="fill:rgb(66,75,155);stroke:none;stroke-width:1.0;" d="M76.540 49.300 L110.490 49.300 L110.490 83.250 L76.540 83.250 L76.540 49.300 "/>
  <path style="fill:rgb(187,194,231);stroke:none;stroke-width:1.0;" d="M107.110 68.170 C107.060 68.160 107.010 68.160 106.960 68.160 L107.250 66.120 C107.300 66.140 107.350 66.150 107.410 66.170 L107.110 68.170 M106.840 65.890 L106.490 68.250 C106.180 68.370 105.910 68.570 105.720 68.870 C105.610 69.040 105.550 69.220 105.520 69.410 L105.010 69.410 C104.930 69.030 104.700 68.680 104.330 68.450 C104.160 68.350 103.980 68.280 103.800 68.250 L102.210 65.130 C102.500 64.460 102.270 63.660 101.630 63.260 C101.510 63.190 101.380 63.140 101.250 63.100 L101.620 60.830 C102.140 60.840 102.640 60.590 102.930 60.120 C102.980 60.050 103.010 59.970 103.040 59.890 L103.810 59.850 C103.930 60.100 104.110 60.310 104.360 60.470 C104.750 60.700 105.200 60.740 105.600 60.620 L106.980 63.430 C106.780 63.550 106.610 63.710 106.480 63.920 C106.070 64.580 106.240 65.430 106.840 65.890 ZM106.030 72.970 C105.460 72.900 104.880 73.150 104.560 73.670 C104.250 74.170 104.270 74.770 104.560 75.240 L103.250 76.340 C103.190 76.290 103.130 76.240 103.060 76.190 C102.660 75.950 102.200 75.910 101.790 76.050 L101.530 75.500 C101.660 75.400 101.780 75.270 101.870 75.120 C102.270 74.480 102.120 73.650 101.550 73.180 L102.860 71.060 C103.550 71.420 104.410 71.190 104.820 70.520 C104.950 70.310 105.020 70.080 105.040 69.850 L105.510 69.850 C105.570 70.280 105.800 70.690 106.210 70.940 C106.310 71.000 106.410 71.050 106.520 71.080 L106.030 72.970 ZM101.730 65.740 C101.810 65.690 101.880 65.630 101.940 65.560 L103.310 68.250 C103.210 68.270 103.130 68.290 103.040 68.320 L101.730 65.740 ZM101.180 72.950 C100.510 72.670 99.710 72.900 99.320 73.540 C99.230 73.680 99.170 73.840 99.130 73.990 L96.470 74.030 C96.430 73.570 96.180 73.140 95.770 72.890 C95.360 72.630 94.880 72.610 94.460 72.760 L93.090 69.990 C93.230 69.880 93.350 69.760 93.440 69.610 C93.720 69.160 93.730 68.630 93.530 68.180 L94.970 65.860 C95.490 65.870 96.010 65.630 96.300 65.150 C96.410 64.970 96.480 64.780 96.510 64.590 L99.330 64.610 C99.350 65.090 99.600 65.550 100.040 65.820 C100.450 66.070 100.930 66.100 101.340 65.950 L102.650 68.520 C102.500 68.640 102.370 68.770 102.260 68.940 C101.880 69.560 102.000 70.340 102.500 70.820 L101.180 72.950 ZM96.370 74.720 C96.400 74.630 96.430 74.550 96.440 74.460 L99.100 74.440 C99.100 74.520 99.110 74.600 99.130 74.690 L96.370 74.720 L96.370 74.720 ZM100.980 76.680 C100.820 76.940 100.750 77.240 100.760 77.520 L99.380 78.350 C98.690 77.990 97.830 78.210 97.410 78.880 C97.290 79.080 97.220 79.290 97.200 79.500 L94.010 79.580 C93.930 79.190 93.700 78.830 93.330 78.600 C92.970 78.380 92.550 78.330 92.160 78.430 L92.010 78.070 C92.210 77.950 92.400 77.780 92.530 77.570 C92.830 77.080 92.820 76.500 92.550 76.040 L93.890 75.190 C93.980 75.280 94.070 75.370 94.180 75.440 C94.820 75.830 95.620 75.700 96.100 75.160 L99.320 75.120 C99.440 75.310 99.600 75.480 99.800 75.610 C100.230 75.870 100.720 75.890 101.150 75.720 L101.400 76.240 C101.240 76.350 101.100 76.500 100.980 76.680 L100.980 76.680 ZM99.810 78.680 C99.790 78.660 99.780 78.640 99.760 78.630 L100.850 77.970 C100.860 77.990 100.870 78.020 100.880 78.040 L99.810 78.680 L99.810 78.680 ZM91.760 78.610 L91.600 78.240 C91.600 78.240 91.610 78.240 91.610 78.230 L91.770 78.600 C91.760 78.600 91.760 78.600 91.760 78.610 L91.760 78.610 ZM90.140 75.770 L87.210 73.960 C87.520 73.280 87.300 72.460 86.640 72.050 C86.480 71.950 86.310 71.890 86.130 71.860 L86.270 70.390 C86.780 70.390 87.290 70.140 87.570 69.680 C87.700 69.480 87.760 69.250 87.790 69.030 L90.680 68.970 C90.730 69.410 90.970 69.830 91.370 70.090 C91.790 70.350 92.290 70.370 92.710 70.200 L94.070 72.960 C93.930 73.070 93.800 73.210 93.700 73.370 C93.410 73.830 93.410 74.390 93.640 74.840 L92.290 75.690 C92.210 75.620 92.130 75.550 92.040 75.490 C91.410 75.110 90.610 75.240 90.140 75.770 L90.140 75.770 ZM91.260 79.090 C91.160 79.250 91.100 79.420 91.070 79.590 L90.040 79.580 C89.950 79.210 89.720 78.880 89.380 78.670 C89.060 78.470 88.710 78.420 88.370 78.460 L85.210 76.500 C85.170 76.040 84.920 75.610 84.500 75.350 C84.090 75.100 83.610 75.070 83.190 75.220 L82.890 74.630 C83.090 74.510 83.280 74.350 83.410 74.130 C83.530 73.940 83.600 73.720 83.620 73.510 L84.360 73.520 C84.420 73.950 84.660 74.360 85.060 74.610 C85.690 75.010 86.500 74.870 86.980 74.330 L89.900 76.130 C89.570 76.820 89.800 77.650 90.460 78.060 C90.670 78.190 90.910 78.250 91.140 78.270 L91.410 78.890 C91.360 78.950 91.300 79.020 91.260 79.090 ZM87.600 78.820 L85.070 77.260 C85.110 77.170 85.140 77.080 85.170 76.990 L87.840 78.650 C87.750 78.700 87.670 78.750 87.600 78.820 ZM84.380 73.050 C84.380 73.060 84.370 73.070 84.370 73.080 L83.610 73.070 C83.610 73.060 83.600 73.050 83.600 73.040 L84.380 73.050 L84.380 73.050 ZM81.510 71.970 L80.130 69.250 C80.290 69.140 80.440 68.990 80.550 68.810 C80.970 68.130 80.780 67.260 80.140 66.800 L80.340 64.870 C80.640 64.760 80.910 64.560 81.090 64.260 C81.190 64.110 81.240 63.950 81.280 63.780 L82.140 63.800 C82.190 64.240 82.430 64.650 82.840 64.910 C83.210 65.140 83.650 65.180 84.040 65.070 L85.380 67.700 C85.240 67.810 85.110 67.940 85.020 68.100 C84.580 68.810 84.800 69.730 85.500 70.170 C85.610 70.240 85.730 70.280 85.840 70.320 L85.690 71.850 C85.240 71.890 84.830 72.130 84.570 72.540 C84.560 72.570 84.550 72.590 84.540 72.610 L83.440 72.600 C83.310 72.390 83.150 72.200 82.920 72.060 C82.480 71.790 81.950 71.770 81.510 71.970 ZM80.940 60.170 C81.520 60.260 82.120 60.010 82.450 59.480 C82.770 58.960 82.730 58.330 82.420 57.860 L83.620 56.800 C83.710 56.890 83.800 56.960 83.900 57.030 C84.290 57.270 84.740 57.300 85.140 57.180 L85.520 57.920 C85.370 58.030 85.240 58.170 85.140 58.330 C84.760 58.950 84.870 59.730 85.370 60.210 L84.130 62.210 C83.480 61.980 82.730 62.220 82.350 62.830 C82.250 63.000 82.190 63.180 82.150 63.360 L81.310 63.350 C81.270 62.890 81.020 62.450 80.600 62.190 C80.530 62.140 80.450 62.110 80.370 62.080 L80.940 60.170 L80.940 60.170 ZM85.970 56.540 C86.180 56.210 86.230 55.830 86.170 55.470 L87.890 54.160 C88.570 54.480 89.400 54.250 89.800 53.590 C89.940 53.380 90.000 53.150 90.020 52.910 L93.240 52.890 C93.320 53.290 93.550 53.660 93.920 53.890 C94.290 54.120 94.720 54.160 95.100 54.060 L95.410 54.690 C95.220 54.810 95.060 54.960 94.930 55.160 C94.630 55.660 94.650 56.260 94.920 56.720 L93.200 58.080 C93.140 58.020 93.070 57.960 92.990 57.910 C92.370 57.530 91.570 57.650 91.090 58.170 L87.550 58.150 C87.450 58.030 87.340 57.930 87.210 57.850 C86.800 57.600 86.320 57.570 85.900 57.720 L85.530 56.990 C85.700 56.880 85.860 56.730 85.970 56.540 L85.970 56.540 ZM87.400 53.790 C87.440 53.830 87.470 53.870 87.510 53.910 L86.010 55.040 C85.990 55.000 85.970 54.950 85.940 54.910 L87.400 53.790 L87.400 53.790 ZM94.340 65.690 C94.400 65.720 94.450 65.750 94.510 65.770 L93.260 67.790 C93.220 67.740 93.170 67.700 93.120 67.660 L94.340 65.690 ZM87.810 58.590 L90.820 58.610 C90.780 58.690 90.750 58.780 90.740 58.870 L87.890 58.850 C87.870 58.760 87.850 58.670 87.810 58.590 L87.810 58.590 ZM86.030 67.410 C85.940 67.430 85.850 67.450 85.760 67.490 L84.440 64.890 C84.520 64.840 84.590 64.780 84.660 64.710 L86.030 67.410 ZM84.950 64.330 C85.300 63.670 85.120 62.860 84.520 62.420 L85.730 60.460 C86.420 60.810 87.280 60.590 87.700 59.920 C87.820 59.720 87.880 59.500 87.910 59.280 L90.700 59.300 C90.740 59.770 90.980 60.210 91.410 60.470 C91.830 60.730 92.330 60.760 92.750 60.590 L94.080 63.200 C93.950 63.300 93.840 63.420 93.750 63.560 C93.370 64.180 93.480 64.960 93.980 65.440 L92.750 67.430 C92.080 67.150 91.280 67.380 90.890 68.020 C90.790 68.180 90.730 68.350 90.690 68.530 L87.770 68.600 C87.690 68.200 87.460 67.840 87.090 67.610 C86.910 67.500 86.710 67.430 86.510 67.400 L84.950 64.330 ZM97.370 56.900 L100.290 58.710 C99.980 59.380 100.210 60.200 100.860 60.600 C100.970 60.670 101.080 60.720 101.190 60.750 L100.820 63.040 C100.320 63.040 99.840 63.290 99.550 63.750 C99.470 63.880 99.420 64.030 99.380 64.170 L96.510 64.150 C96.450 63.720 96.210 63.320 95.820 63.080 C95.390 62.810 94.880 62.790 94.450 62.970 L93.130 60.370 C93.260 60.260 93.380 60.140 93.480 59.980 C93.790 59.490 93.760 58.880 93.480 58.410 L95.200 57.060 C95.260 57.120 95.340 57.180 95.420 57.230 C96.070 57.640 96.900 57.480 97.370 56.900 ZM95.520 53.870 L95.820 54.510 C95.820 54.510 95.810 54.510 95.810 54.510 L95.510 53.880 C95.520 53.880 95.520 53.880 95.520 53.870 L95.520 53.870 ZM103.680 59.420 L103.150 59.450 C103.150 59.450 103.150 59.440 103.150 59.440 L103.670 59.410 C103.670 59.420 103.670 59.420 103.680 59.420 L103.680 59.420 ZM95.990 53.400 C96.080 53.250 96.140 53.090 96.180 52.930 L96.650 52.950 C96.680 53.410 96.930 53.850 97.350 54.110 C98.020 54.530 98.870 54.350 99.340 53.740 L102.100 55.450 C101.760 56.130 101.980 56.980 102.650 57.390 C103.070 57.650 103.560 57.680 103.990 57.510 L104.250 57.980 C104.100 58.090 103.980 58.230 103.880 58.390 C103.760 58.570 103.690 58.770 103.670 58.970 L103.120 59.000 C103.040 58.620 102.810 58.270 102.450 58.040 C101.810 57.650 101.000 57.790 100.520 58.340 L97.600 56.520 C97.870 55.860 97.640 55.070 97.000 54.670 C96.780 54.540 96.530 54.470 96.280 54.460 L95.860 53.570 C95.910 53.520 95.950 53.460 95.990 53.400 L95.990 53.400 ZM79.720 66.590 C79.690 66.580 79.650 66.570 79.620 66.560 L79.780 64.970 C79.820 64.970 79.850 64.970 79.890 64.970 L79.720 66.590 L79.720 66.590 ZM108.550 63.430 C108.190 63.210 107.770 63.160 107.390 63.250 L106.000 60.420 C106.170 60.310 106.320 60.160 106.430 59.970 C106.870 59.270 106.650 58.340 105.950 57.900 C105.540 57.650 105.050 57.620 104.630 57.780 L104.370 57.290 C104.500 57.190 104.630 57.060 104.720 56.910 C105.160 56.200 104.940 55.270 104.230 54.830 C103.610 54.450 102.820 54.580 102.340 55.090 L99.550 53.370 C99.800 52.710 99.560 51.940 98.940 51.560 C98.230 51.120 97.300 51.340 96.860 52.040 C96.770 52.190 96.720 52.350 96.680 52.510 L96.210 52.490 C96.170 52.030 95.930 51.590 95.510 51.330 C94.800 50.890 93.870 51.110 93.430 51.820 C93.310 52.020 93.250 52.230 93.220 52.450 L89.990 52.470 C89.910 52.090 89.670 51.740 89.320 51.520 C88.610 51.090 87.680 51.300 87.250 52.010 C86.970 52.460 86.960 52.990 87.160 53.430 L85.640 54.590 C85.590 54.550 85.540 54.500 85.490 54.470 C84.780 54.030 83.850 54.250 83.410 54.960 C83.130 55.420 83.130 55.990 83.360 56.440 L82.120 57.530 C82.070 57.490 82.020 57.440 81.960 57.410 C81.250 56.970 80.330 57.190 79.890 57.890 C79.450 58.600 79.670 59.530 80.380 59.970 C80.420 59.990 80.470 60.010 80.520 60.040 L79.950 61.980 C79.400 61.930 78.840 62.180 78.530 62.680 C78.100 63.380 78.310 64.310 79.020 64.750 C79.130 64.820 79.240 64.860 79.360 64.900 L79.200 66.520 C78.720 66.540 78.260 66.790 77.990 67.230 C77.550 67.930 77.770 68.860 78.480 69.300 C78.870 69.540 79.330 69.570 79.740 69.440 L81.150 72.210 C81.040 72.310 80.940 72.420 80.860 72.550 C80.420 73.250 80.640 74.180 81.340 74.620 C81.700 74.840 82.100 74.890 82.480 74.800 L82.810 75.430 C82.660 75.540 82.530 75.670 82.430 75.830 C82.000 76.540 82.220 77.470 82.920 77.910 C83.550 78.300 84.360 78.160 84.830 77.620 L87.310 79.150 C86.870 79.860 87.090 80.790 87.790 81.220 C88.500 81.660 89.430 81.440 89.860 80.740 C90.000 80.510 90.070 80.260 90.080 80.010 L91.050 80.030 C91.090 80.480 91.330 80.910 91.750 81.160 C92.450 81.600 93.380 81.380 93.820 80.670 C93.950 80.470 94.010 80.240 94.030 80.010 L97.220 79.940 C97.290 80.340 97.520 80.720 97.900 80.950 C98.610 81.390 99.530 81.170 99.970 80.470 C100.250 80.020 100.260 79.490 100.060 79.050 L101.110 78.420 C101.210 78.550 101.330 78.660 101.470 78.750 C102.180 79.190 103.110 78.970 103.540 78.260 C103.860 77.760 103.830 77.150 103.530 76.680 L104.830 75.580 C104.890 75.640 104.960 75.690 105.040 75.740 C105.750 76.180 106.680 75.960 107.110 75.260 C107.550 74.550 107.330 73.620 106.630 73.190 C106.570 73.150 106.500 73.120 106.440 73.090 L106.940 71.160 C107.470 71.180 107.980 70.930 108.280 70.460 C108.720 69.750 108.500 68.820 107.790 68.390 C107.710 68.340 107.630 68.300 107.540 68.260 L107.840 66.210 C108.320 66.190 108.770 65.940 109.040 65.500 C109.470 64.790 109.250 63.870 108.550 63.430 "/>
  <g begin="text">
   <text y="71.828" x="116.496,125.323,133.261,142.089,150.027,162.379,170.317,174.729,181.776,187.955,192.366,200.304,204.715" svgx:width="0.56,0.5,0.56,0.5,0.78,0.5,0.28,0.44,0.39,0.28,0.5,0.28,0.39" style="fill:rgb(66,75,155);font-family:TimesNewRomanPS-BoldItalicMT;font-size:15.88px;stroke:none;">nanomaterials</text>
  </g>
  <rect style="stroke:blue;stroke-width:0.3;" x="476.363" y="13.209" height="27.476" width="41.6" title="1"/>
  <text y="13.209" class="image" id="image.1.1" width="41" height="27" x="476.363">image.1.1.476_518.13_41</text>
  <rect style="stroke:blue;stroke-width:0.3;" x="476.363" y="13.209" height="27.476" width="41.6" title="1"/>
  <text y="13.209" class="image" id="image.1.2" width="41" height="27" x="476.363">image.1.2.476_518.13_41</text>
  <rect style="stroke:blue;stroke-width:0.3;" x="476.363" y="13.209" height="27.476" width="41.6" title="1"/>
  <text y="13.209" class="image" id="image.1.3" width="41" height="27" x="476.363">image.1.3.476_518.13_41</text>
  <rect style="stroke:blue;stroke-width:0.3;" x="476.363" y="13.209" height="27.476" width="41.6" title="1"/>
  <text y="13.209" class="image" id="image.1.4" width="41" height="27" x="476.363">image.1.4.476_518.13_41</text>
  <g begin="text">
   <text y="108.46" x="76.177,83.37,87.245,90.563,93.333,97.387,100.157" svgx:width="0.72,0.39,0.33,0.28,0.41,0.28,0.39" style="fill:rgb(0,0,0);font-family:URWPalladioL-Ital;font-size:9.96px;stroke:none;">Article</text>
   <text y="127.727" x="76.535,91.473,97.445,106.411,113.387,122.353,129.329,137.291,148.248,154.22,162.182,171.148,177.12,183.092,193.1328,197.546,208.502,218.473,225.449,235.42,246.377,254.2662,258.822,271.769,280.736,287.712,298.669,308.639,319.5763,324.079,339.017,347.984,354.96,360.931,370.902,379.868,390.8053,395.308,402.284,409.26,419.231,439.656,451.617,457.589,467.56,483.502,492.468,500.431" svgx:width="0.83,0.33,0.5,0.39,0.5,0.39,0.44,0.61,0.33,0.44,0.5,0.33,0.33,0.56,0.55,0.61,0.56,0.39,0.56,0.61,0.44,0.55,0.72,0.5,0.39,0.61,0.56,0.61,0.55,0.83,0.5,0.39,0.33,0.56,0.5,0.61,0.55,0.39,0.39,0.56,0.89,0.67,0.33,0.56,0.89,0.5,0.44,0.44" style="fill:rgb(0,0,0);font-family:URWPalladioL-Bold;font-size:17.93px;stroke:none;">Hierarchically Porous Carbon Derived fromBiomass</text>
   <text y="147.991" x="76.535,89.482,98.449,107.415,118.35230000000001,122.855,132.826,138.798,148.768,163.706,172.673,179.649,187.5382,192.094,201.06,208.9492,213.506,228.444,234.415,244.386,255.343,261.315,271.3558,275.768,286.725,292.697,301.663,312.62,318.592,327.55699999999996,332.042,342.999,348.97,354.942,361.918,371.888,382.82529999999997,387.328,399.29,408.256,414.228,420.199,429.166,436.141,446.1818,450.595,464.547,475.504,485.475,496.432" svgx:width="0.72,0.5,0.5,0.61,0.55,0.56,0.33,0.56,0.83,0.5,0.39,0.44,0.55,0.5,0.44,0.55,0.83,0.33,0.56,0.61,0.33,0.56,0.55,0.61,0.33,0.5,0.61,0.33,0.5,0.55,0.61,0.33,0.33,0.39,0.56,0.61,0.55,0.67,0.5,0.33,0.33,0.5,0.39,0.56,0.55,0.78,0.61,0.56,0.61,0.5" style="fill:rgb(0,0,0);font-family:URWPalladioL-Bold;font-size:17.93px;stroke:none;">Reed Flowers as Highly Stable Li-Ion Battery Anode</text>
   <text y="177.683" x="76.037,85.262,90.244,93.561,102.418,105.736,111.8116,114.313,120.958,127.046,132.027" svgx:width="1.0,0.5,0.33,0.89,0.33,0.61,0.55,0.67,0.61,0.5,0.56" style="fill:rgb(0,0,0);font-family:URWPalladioL-Bold;font-size:9.96px;stroke:none;">Weimin Zhao</text>
   <text y="174.066" x="140.057" svgx:width="0.5" style="fill:rgb(0,0,0);font-family:URWPalladioL-Bold;font-size:7.57px;stroke:none;">1</text>
   <text y="177.683" x="144.341,146.83100000000002,149.322,153.198,156.515,162.602,168.142,171.459,174.777,180.864,186.4416,188.894,198.119,203.1" svgx:width="0.25,0.55,0.39,0.33,0.61,0.56,0.33,0.33,0.61,0.56,0.55,1.0,0.5,0.61" style="fill:rgb(0,0,0);font-family:URWPalladioL-Bold;font-size:9.96px;stroke:none;">, Jingjing Wen</text>
   <text y="174.066" x="211.678" svgx:width="0.5" style="fill:rgb(0,0,0);font-family:URWPalladioL-Bold;font-size:7.57px;stroke:none;">1</text>
   <text y="177.683" x="215.962,218.452,220.943,226.851,231.832,237.92,246.776,250.094,256.181,261.7586,264.211,270.856,276.943,281.924" svgx:width="0.25,0.55,0.67,0.5,0.61,0.89,0.33,0.61,0.56,0.55,0.67,0.61,0.5,0.56" style="fill:rgb(0,0,0);font-family:URWPalladioL-Bold;font-size:9.96px;stroke:none;">, Yanming Zhao</text>
   <text y="174.066" x="289.954" svgx:width="0.5" style="fill:rgb(0,0,0);font-family:URWPalladioL-Bold;font-size:7.57px;stroke:none;">1</text>
   <text y="177.683" x="294.238,296.728,299.219,305.864,311.952,315.269,319.145,324.126,330.213,335.79060000000004,338.243,347.468,352.449,358.537" svgx:width="0.25,0.55,0.67,0.61,0.33,0.39,0.5,0.61,0.56,0.55,1.0,0.5,0.61,0.56" style="fill:rgb(0,0,0);font-family:URWPalladioL-Bold;font-size:9.96px;stroke:none;">, Zhifeng Wang</text>
   <text y="174.066" x="366.566,370.852,373.244,377.522" svgx:width="0.5,0.25,0.5,0.25" style="fill:rgb(0,0,0);font-family:URWPalladioL-Bold;font-size:7.57px;stroke:none;">1,2,</text>
   <text y="177.683" x="379.916" svgx:width="0.44" style="fill:rgb(0,0,0);font-family:URWPalladioL-Bold;font-size:9.96px;stroke:none;">*</text>
  </g>
  <path style="fill:rgb(179,201,62);stroke:none;stroke-width:1.0;" d="M488.210 73.600 L488.210 67.020 L486.500 73.600 L484.720 73.600 L482.960 67.020 L482.960 73.600 L480.840 73.600 L480.840 64.400 L484.520 64.400 L485.850 69.290 L487.120 64.400 L490.820 64.400 L490.820 73.600 L488.210 73.600 M499.310 72.310 C498.490 73.170 497.420 73.600 496.110 73.600 L492.400 73.600 L492.400 64.400 L495.940 64.400 C497.480 64.400 498.630 64.860 499.390 65.780 C500.160 66.700 500.540 67.750 500.540 68.960 C500.540 70.330 500.130 71.450 499.310 72.310 M497.180 67.220 C496.890 66.730 496.480 66.490 495.950 66.490 L495.210 66.490 L495.210 71.480 L495.950 71.480 C496.410 71.480 496.800 71.250 497.120 70.800 C497.440 70.350 497.600 69.730 497.600 68.950 C497.600 68.280 497.460 67.700 497.180 67.220 M508.610 69.450 C508.000 69.980 507.190 70.250 506.170 70.250 L504.580 70.250 L504.580 73.600 L501.730 73.600 L501.730 64.400 L505.650 64.400 C506.620 64.400 507.360 64.520 507.870 64.740 C508.380 64.970 508.780 65.310 509.080 65.770 C509.380 66.230 509.530 66.750 509.530 67.330 C509.530 68.200 509.220 68.910 508.610 69.450 M505.580 66.490 L504.550 66.490 L504.550 68.290 L505.490 68.290 C506.310 68.290 506.730 67.980 506.730 67.360 C506.730 66.780 506.350 66.490 505.580 66.490 M510.570 73.600 L510.570 64.400 L513.380 64.400 L513.380 73.600 L510.570 73.600 M517.090 75.980 L517.090 62.890 L517.780 62.410 L517.780 76.450 L517.090 75.980 M507.150 82.560 L507.160 81.750 L517.110 75.980 L517.780 76.440 L507.150 82.560 M496.570 76.420 L497.230 75.950 L507.170 81.750 L507.170 82.560 L496.570 76.420 M515.980 75.580 L507.450 80.510 L507.460 79.700 L515.980 74.790 L515.980 75.580 M477.260 75.030 L476.560 75.500 L476.560 61.460 L477.260 61.930 L477.260 75.030 M487.180 56.150 L477.230 61.920 L476.560 61.460 L487.190 55.340 L487.180 56.150 M497.110 61.950 L487.170 56.150 L487.170 55.340 L497.770 61.490 L497.110 61.950 M486.880 58.200 L478.360 63.120 L478.370 62.330 L486.890 57.390 L486.880 58.200 M393.410 173.150 C393.410 175.650 391.380 177.680 388.870 177.680 C386.370 177.680 384.340 175.650 384.340 173.150 C384.340 170.640 386.370 168.610 388.870 168.610 C391.380 168.610 393.410 170.640 393.410 173.150 "/>
  <path style="fill:rgb(255,255,255);stroke:none;stroke-width:1.0;" d="M388.690 171.800 L388.690 174.810 L389.300 174.810 C389.830 174.810 390.240 174.670 390.540 174.400 C390.840 174.130 390.990 173.750 390.990 173.270 C390.990 172.780 390.830 172.410 390.530 172.170 C390.220 171.920 389.820 171.800 389.320 171.800 L388.690 171.800 ZM388.150 175.250 L388.150 171.350 L389.340 171.350 C389.980 171.350 390.500 171.520 390.920 171.870 C391.340 172.210 391.550 172.670 391.550 173.250 C391.550 173.860 391.340 174.340 390.920 174.710 C390.500 175.070 389.960 175.250 389.300 175.250 L388.150 175.250 "/>
  <path style="fill:rgb(255,255,255);stroke:none;stroke-width:1.0;" d="M387.380 175.260 L386.840 175.260 L386.840 171.360 L387.380 171.360 L387.380 175.260 "/>
  <path style="fill:rgb(255,255,255);stroke:none;stroke-width:1.0;" d="M387.470 170.710 C387.470 170.900 387.320 171.050 387.130 171.050 C386.940 171.050 386.790 170.900 386.790 170.710 C386.790 170.520 386.940 170.370 387.130 170.370 C387.320 170.370 387.470 170.520 387.470 170.710 "/>
  <g begin="text">
   <text y="177.683" x="393.41,395.90000000000003,398.391,404.299,409.28,413.156,419.2316,421.734,427.821,433.908" svgx:width="0.25,0.55,0.67,0.5,0.39,0.61,0.55,0.61,0.61,0.33" style="fill:rgb(0,0,0);font-family:URWPalladioL-Bold;font-size:9.96px;stroke:none;">, Yaru Shi</text>
   <text y="174.066" x="439.716,444.002" svgx:width="0.5,0.25" style="fill:rgb(0,0,0);font-family:URWPalladioL-Bold;font-size:7.57px;stroke:none;">3,</text>
   <text y="177.683" x="446.391,450.77340000000004,453.305,458.286,464.374" svgx:width="0.44,0.55,0.5,0.61,0.61" style="fill:rgb(0,0,0);font-family:URWPalladioL-Bold;font-size:9.96px;stroke:none;">* and</text>
   <text y="191.192" x="76.207,82.115,87.096,93.1716,95.674,102.319,108.406,113.387" svgx:width="0.67,0.5,0.61,0.55,0.67,0.61,0.5,0.56" style="fill:rgb(0,0,0);font-family:URWPalladioL-Bold;font-size:9.96px;stroke:none;">Yan Zhao</text>
   <text y="187.576" x="121.417,125.703" svgx:width="0.5,0.25" style="fill:rgb(0,0,0);font-family:URWPalladioL-Bold;font-size:7.57px;stroke:none;">1,</text>
   <text y="191.192" x="128.092" svgx:width="0.44" style="fill:rgb(0,0,0);font-family:URWPalladioL-Bold;font-size:9.96px;stroke:none;">*</text>
   <text y="206.02" x="82.205" svgx:width="0.5" style="fill:rgb(0,0,0);font-family:URWPalladioL-Roma;font-size:6.97px;stroke:none;">1</text>
   <text y="209.274" x="97.398,102.105,106.086,111.305,116.201,121.096,123.6973,125.947,130.843,133.8031,136.07,144.552,149.035,151.959,156.253,159.795,162.404,166.888,169.497,173.26440000000002,175.54,180.248,184.229,186.838,191.133,196.351,200.332,204.6376,206.869,211.352,216.57,222.0417,224.29,229.769,234.987,239.973,242.582,247.8,252.095,256.39,259.932,262.541,267.76,272.745,274.9875,277.228,284.688,288.983,293.941,298.236,300.83729999999997,303.087,310.063,315.281,317.891,322.957,327.252,330.793,334.595,337.204,340.127,345.1502,347.354,352.25,355.2101,357.477,362.149,366.444,370.425,375.643,380.862,385.757,388.367,393.262,398.248,402.238,404.4805,406.721,411.724,414.333,418.816,424.026,426.124,428.733,433.9356,436.193,440.677,445.16,449.643,454.126,458.609,463.093,465.3355,467.576,473.933,479.151,481.761,486.979,491.462" svgx:width="0.52,0.44,0.58,0.55,0.55,0.29,0.55,0.55,0.33,0.55,0.95,0.5,0.33,0.48,0.4,0.29,0.5,0.29,0.42,0.55,0.52,0.44,0.29,0.48,0.58,0.44,0.48,0.55,0.5,0.58,0.61,0.55,0.61,0.58,0.56,0.29,0.58,0.48,0.48,0.4,0.29,0.58,0.56,0.25,0.55,0.83,0.48,0.55,0.48,0.29,0.55,0.78,0.58,0.29,0.56,0.48,0.4,0.42,0.29,0.33,0.56,0.55,0.55,0.33,0.55,0.61,0.48,0.44,0.58,0.58,0.55,0.29,0.55,0.56,0.56,0.25,0.55,0.61,0.29,0.5,0.58,0.23,0.29,0.58,0.55,0.5,0.5,0.5,0.5,0.5,0.5,0.25,0.55,0.71,0.58,0.29,0.58,0.5,0.25" style="fill:rgb(0,0,0);font-family:URWPalladioL-Roma;font-size:8.97px;stroke:none;">School of Materials Science and Engineering, Hebei University of Technology, Tianjin 300401, China;</text>
   <text y="221.379" x="97.071,104.549,112.466,116.949,122.168,126.651,131.547,138.245,143.463,147.758,152.716,158.123,161.046,163.288,167.583,173.061,178.468,180.71,184.691,189.8936,192.151,195.137,203.278,205.52,211.5,213.742,216.728,218.97050000000002,221.211,224.197,226.806,232.024,237.01,239.108,241.717,246.935,251.921,257.57,262.053,267.271,271.566,278.264,282.747,287.23,291.714,293.955,297.936,302.832,312.991,315.977,318.963,321.204,329.346,331.587,334.573,336.8155,339.056,343.539,348.758,353.241,358.137,363.122,367.605,372.824,380.741,383.35,388.569,393.554,400.252,405.47,409.765,414.724,420.13,423.054,425.295,429.59,435.069,440.475,442.717,446.698,451.9006,454.158,457.144,462.129,464.371,470.351,472.593" svgx:width="0.83,0.88,0.5,0.58,0.5,0.55,0.75,0.58,0.48,0.55,0.6,0.33,0.25,0.48,0.61,0.6,0.25,0.44,0.58,0.55,0.33,1.0,0.25,0.67,0.25,0.33,0.25,0.55,0.33,0.29,0.58,0.56,0.23,0.29,0.58,0.56,0.72,0.5,0.58,0.48,0.75,0.5,0.5,0.5,0.25,0.44,0.55,0.88,0.33,0.33,0.25,1.0,0.25,0.33,0.25,0.55,0.5,0.58,0.5,0.55,0.56,0.5,0.58,0.88,0.29,0.58,0.56,0.75,0.58,0.48,0.55,0.6,0.33,0.25,0.48,0.61,0.6,0.25,0.44,0.58,0.55,0.33,0.67,0.25,0.67,0.25,0.33" style="fill:rgb(0,0,0);font-family:URWPalladioL-Roma;font-size:8.97px;stroke:none;">wmzhao@hebut.edu.cn (W.Z.); JingjingVane@163.com(J.W.); zhaoyanming@hebut.edu.cn (Y.Z.)</text>
   <text y="230.229" x="82.205" svgx:width="0.5" style="fill:rgb(0,0,0);font-family:URWPalladioL-Roma;font-size:6.97px;stroke:none;">2</text>
   <text y="233.484" x="97.398,103.908,108.203,113.2262,115.429,120.908,125.391,130.35,135.245,138.787,143.27,146.193,151.089,154.631,159.6542,161.857,164.843,169.739,173.327,175.522,182.973,187.268,194.7131,196.988,201.677,206.663,212.051,216.3566,218.588,223.484,226.44410000000002,228.711,233.696,239.103,244.322,248.303,251.226,253.835,258.73,263.949,268.432,271.0333,273.283,281.765,286.248,289.171,293.466,297.008,299.617,304.1,306.71,310.4774,312.753,315.362,320.56460000000004,322.822,330.282,334.577,339.536,343.831,346.4323,348.681,354.097,357.477,362.373,367.439,370.048,375.267,379.248,383.543,385.7855,388.026,395.486,399.781,404.739,409.034,411.6353,413.885,420.861,426.07,428.68,433.746,438.04,441.582,445.384,447.993,450.916,455.93919999999997,458.143,463.039,465.9991,468.266,472.938,477.233,481.214,486.432,491.65,496.546,499.155,504.051,509.036,513.026" svgx:width="0.73,0.48,0.56,0.55,0.61,0.5,0.55,0.55,0.4,0.5,0.33,0.55,0.4,0.56,0.55,0.33,0.55,0.4,0.55,0.83,0.48,0.83,0.55,0.61,0.56,0.6,0.48,0.55,0.55,0.33,0.55,0.56,0.6,0.58,0.44,0.33,0.29,0.55,0.58,0.5,0.29,0.55,0.95,0.5,0.33,0.48,0.4,0.29,0.5,0.29,0.42,0.55,0.29,0.58,0.55,0.83,0.48,0.55,0.48,0.29,0.55,0.6,0.4,0.55,0.56,0.29,0.58,0.44,0.48,0.25,0.55,0.83,0.48,0.55,0.48,0.29,0.55,0.78,0.58,0.29,0.56,0.48,0.4,0.42,0.29,0.33,0.56,0.55,0.55,0.33,0.55,0.61,0.48,0.44,0.58,0.58,0.55,0.29,0.55,0.56,0.56,0.25" style="fill:rgb(0,0,0);font-family:URWPalladioL-Roma;font-size:8.97px;stroke:none;">Key Laboratory for New Type of Functional Materials in Hebei Province, Hebei University of Technology,</text>
   <text y="245.588" x="97.169,102.172,104.781,109.265,114.483,116.581,119.19,124.3926,126.651,131.134,135.617,140.1,144.583,149.067,153.55,155.79250000000002,158.033,164.39,169.609,172.218,177.436" svgx:width="0.61,0.29,0.5,0.58,0.23,0.29,0.58,0.55,0.5,0.5,0.5,0.5,0.5,0.5,0.25,0.55,0.71,0.58,0.29,0.58,0.5" style="fill:rgb(0,0,0);font-family:URWPalladioL-Roma;font-size:8.97px;stroke:none;">Tianjin 300130, China</text>
   <text y="254.438" x="82.205" svgx:width="0.5" style="fill:rgb(0,0,0);font-family:URWPalladioL-Roma;font-size:6.97px;stroke:none;">3</text>
   <text y="257.693" x="97.398,102.105,106.086,111.305,116.201,121.096,123.6973,125.947,130.843,133.8031,136.07,144.552,148.847,152.828,158.047,162.53,167.748,170.358,174.339,178.822,181.4233,183.673,189.151,194.37,199.355,201.964,207.183,211.477,215.772,219.314,221.923,227.142,232.127,234.36950000000002,236.61,244.07,248.365,253.324,257.619,260.2203,262.469,269.445,274.664,277.273,282.339,286.634,290.176,293.977,296.587,299.51,304.53319999999997,306.737,311.632,314.5921,316.86,321.531,325.826,329.807,335.025,340.244,345.14,347.749,352.644,357.63,361.62,363.8625,366.103,371.106,373.716,378.199,383.417,385.515,388.125,393.3276,395.585,400.068,404.551,409.034,413.517,418.001,422.484,424.7265,426.967,433.324,438.543,441.152,446.361" svgx:width="0.52,0.44,0.58,0.55,0.55,0.29,0.55,0.55,0.33,0.55,0.95,0.48,0.44,0.58,0.5,0.58,0.29,0.44,0.5,0.29,0.55,0.61,0.58,0.56,0.29,0.58,0.48,0.48,0.4,0.29,0.58,0.56,0.25,0.55,0.83,0.48,0.55,0.48,0.29,0.55,0.78,0.58,0.29,0.56,0.48,0.4,0.42,0.29,0.33,0.56,0.55,0.55,0.33,0.55,0.61,0.48,0.44,0.58,0.58,0.55,0.29,0.55,0.56,0.56,0.25,0.55,0.61,0.29,0.5,0.58,0.23,0.29,0.58,0.55,0.5,0.5,0.5,0.5,0.5,0.5,0.25,0.55,0.71,0.58,0.29,0.58,0.5" style="fill:rgb(0,0,0);font-family:URWPalladioL-Roma;font-size:8.97px;stroke:none;">School of Mechanical Engineering, Hebei University of Technology, Tianjin 300401, China</text>
   <text y="269.798" x="81.407" svgx:width="0.44" style="fill:rgb(0,0,0);font-family:URWPalladioL-Bold;font-size:8.97px;stroke:none;">*</text>
   <text y="269.798" x="97.447,103.804,108.7,112.242,115.622,119.917,123.719,129.107,134.003,139.221,144.7,148.995,154.213,158.194,162.489,164.7315,167.869,175.347,179.83,185.049,190.034,194.517,197.503,204.201,209.419,213.714,218.673,224.079,227.003,229.244,233.539,239.018,244.424,246.666,250.647,255.84959999999998,258.107,261.093,267.073,269.315,277.456,279.698,282.684,284.92650000000003,287.167,292.152,295.694,299.496,304.714,307.324,311.807,316.29,320.773,325.256,331.954,337.173,341.468,346.426,351.833,354.756,356.997,361.292,366.771,372.178,374.419,378.4,383.6026,385.86,388.846,393.831,396.073,400.78,403.022,406.008" svgx:width="0.71,0.55,0.4,0.4,0.48,0.42,0.6,0.55,0.58,0.61,0.48,0.58,0.44,0.48,0.25,0.55,0.83,0.5,0.58,0.56,0.5,0.33,0.75,0.58,0.48,0.55,0.6,0.33,0.25,0.48,0.61,0.6,0.25,0.44,0.58,0.55,0.33,0.67,0.25,1.0,0.25,0.33,0.25,0.55,0.56,0.4,0.42,0.58,0.29,0.5,0.5,0.5,0.5,0.75,0.58,0.48,0.55,0.6,0.33,0.25,0.48,0.61,0.6,0.25,0.44,0.58,0.55,0.33,0.67,0.25,0.52,0.25,0.33,0.25" style="fill:rgb(0,0,0);font-family:URWPalladioL-Roma;font-size:8.97px;stroke:none;">Correspondence: wangzf@hebut.edu.cn (Z.W.); yrshi1982@hebut.edu.cn (Y.S.);</text>
   <text y="281.902" x="97.196,102.181,106.665,111.883,116.366,121.585,126.068,130.963,135.447,139.93,144.413,148.896,155.594,160.813,165.108,170.066,175.473,178.396,180.637,184.932,190.411,195.817,198.059,202.04,207.24259999999998,209.5,212.486,217.471,219.713,225.694,227.935,230.921,233.1635,235.404,240.076,244.371,246.98,249.221" svgx:width="0.56,0.5,0.58,0.5,0.58,0.5,0.55,0.5,0.5,0.5,0.5,0.75,0.58,0.48,0.55,0.6,0.33,0.25,0.48,0.61,0.6,0.25,0.44,0.58,0.55,0.33,0.67,0.25,0.67,0.25,0.33,0.25,0.55,0.61,0.48,0.29,0.25,0.25" style="fill:rgb(0,0,0);font-family:URWPalladioL-Roma;font-size:8.97px;stroke:none;">yanzhao1984@hebut.edu.cn (Y.Z.); Tel.:</text>
   <text y="281.902" x="253.703" svgx:width="0.67" style="fill:rgb(0,0,0);font-family:Rpxr;font-size:8.97px;stroke:none;">+</text>
   <text y="281.902" x="259.702,264.185,268.668,271.654,276.137,280.621,283.606,288.09,292.573,297.056,301.539,306.022,310.506,314.989,319.474,321.714,324.7,330.68,332.922,341.063,343.305,346.291" svgx:width="0.5,0.5,0.33,0.5,0.5,0.33,0.5,0.5,0.5,0.5,0.5,0.5,0.5,0.5,0.55,0.33,0.67,0.25,1.0,0.25,0.33,0.25" style="fill:rgb(0,0,0);font-family:URWPalladioL-Roma;font-size:8.97px;stroke:none;">86-22-60202006 (Z.W.);</text>
   <text y="281.902" x="350.773" svgx:width="0.67" style="fill:rgb(0,0,0);font-family:Rpxr;font-size:8.97px;stroke:none;">+</text>
   <text y="281.902" x="356.771,361.254,365.737,368.723,373.206,377.69,380.675,385.159,389.642,394.125,398.608,403.091,407.575,412.058,416.543,418.783,421.769,426.754,428.995,433.703,435.944,438.93" svgx:width="0.5,0.5,0.33,0.5,0.5,0.33,0.5,0.5,0.5,0.5,0.5,0.5,0.5,0.5,0.55,0.33,0.67,0.25,0.52,0.25,0.33,0.25" style="fill:rgb(0,0,0);font-family:URWPalladioL-Roma;font-size:8.97px;stroke:none;">86-22-60204477 (Y.S.);</text>
   <text y="294.007" x="95.95" svgx:width="0.67" style="fill:rgb(0,0,0);font-family:Rpxr;font-size:8.97px;stroke:none;">+</text>
   <text y="294.007" x="101.949,106.432,110.915,113.901,118.384,122.868,125.853,130.337,134.82,139.303,143.786,148.269,152.753,157.236,161.721,163.961,166.946,171.932,174.173,180.154,182.396" svgx:width="0.5,0.5,0.33,0.5,0.5,0.33,0.5,0.5,0.5,0.5,0.5,0.5,0.5,0.5,0.55,0.33,0.67,0.25,0.67,0.25,0.33" style="fill:rgb(0,0,0);font-family:URWPalladioL-Roma;font-size:8.97px;stroke:none;">86-22-60204060 (Y.Z.)</text>
   <text y="319.356" x="82.205,88.195,92.489,96.471,100.765,103.375,108.441,112.736,118.214,120.4565,123.594,128.077,132.562,134.802,137.788,142.271,147.489,152.896,157.379,160.921,165.9442,168.148,172.631,177.114,181.598,186.081,188.3235,190.564,197.54,201.521,205.502,209.797,215.186,218.109,222.404,227.882,230.1245,233.262,237.745,242.23000000000002,244.47,249.455,253.75,258.709,262.179,267.585,272.069,275.61,280.6332,282.837,287.32,291.804,296.287,300.77,303.0125,305.253,310.669,316.076,321.034,323.643,326.253,330.054,335.273,339.568,345.046,347.2885,350.426,354.909,359.394,361.634,366.619,370.914,375.873,379.343,384.749,389.233,392.774,397.7972,400.001,404.484,408.968,413.451" svgx:width="0.67,0.48,0.44,0.48,0.29,0.56,0.48,0.61,0.25,0.55,0.5,0.5,0.55,0.33,0.5,0.58,0.6,0.5,0.4,0.56,0.55,0.5,0.5,0.5,0.5,0.25,0.55,0.78,0.44,0.44,0.48,0.6,0.33,0.48,0.61,0.25,0.55,0.5,0.5,0.55,0.56,0.48,0.55,0.4,0.6,0.5,0.4,0.56,0.55,0.5,0.5,0.5,0.5,0.25,0.55,0.6,0.6,0.55,0.29,0.29,0.42,0.58,0.48,0.61,0.25,0.55,0.5,0.5,0.55,0.56,0.48,0.55,0.4,0.6,0.5,0.4,0.56,0.55,0.5,0.5,0.5,0.5" style="fill:rgb(0,0,0);font-family:URWPalladioL-Roma;font-size:8.97px;stroke:none;">Received: 25 January 2020; Accepted: 14 February 2020; Published: 18 February 2020</text>
  </g>
  <path style="fill:rgb(255,207,0);stroke:none;stroke-width:1.0;" d="M477.390 315.780 L475.250 317.920 L469.500 312.160 L471.640 310.020 L475.250 313.630 L482.590 306.300 C481.080 304.340 478.700 303.070 476.030 303.070 C471.450 303.070 467.740 306.780 467.740 311.360 C467.740 315.940 471.450 319.650 476.030 319.650 C480.610 319.650 484.320 315.940 484.320 311.360 C484.320 310.600 484.210 309.850 484.020 309.150 L477.390 315.780 "/>
  <g begin="text">
   <text y="310.433" code="1" x="487.076,490.658,494.948,498.979,502.561,506.671,508.458,510.68,514.915" svgx:width="0.46,0.54,0.5,0.46,0.5,0.2,0.29,0.54,0.35" style="fill:rgb(4,5,8);font-family:SourceSansRoman-Regular;font-size:7.87px;stroke:none;">?????????</text>
   <text y="310.433" code="1" x="517.85" svgx:width="0.2" style="fill:rgb(4,5,8);font-family:SourceSansRoman.613wght;font-size:6.99px;stroke:none;">?</text>
   <text y="317.583" code="1" x="487.076,491.858,496.861,501.682,506.142,509.467,514.071" svgx:width="0.57,0.57,0.57,0.53,0.38,0.52,0.44" style="fill:rgb(4,5,8);font-family:SourceSansRoman-Bold;font-size:7.87px;stroke:none;">???????</text>
  </g>
  <g begin="text">
   <text y="343.489" x="81.816,89.567,95.654,100.077,103.395,107.27,112.252,116.675,119.993" svgx:width="0.78,0.61,0.44,0.33,0.39,0.5,0.44,0.33,0.25" style="fill:rgb(0,0,0);font-family:URWPalladioL-Bold;font-size:9.96px;stroke:none;">Abstract:</text>
   <text y="343.489" x="125.821,133.417,137.6002,139.744,142.585,145.426,148.609,154.291,157.132,163.019,171.64,174.892,177.733,183.064,188.8408,190.943,196.342,201.223,204.406,207.589,212.266,216.122,221.6996,223.738,226.989,232.954,236.244,242.21,245.4968,247.658,252.539,258.222,263.553,269.518,274.29879999999997,276.382,285.003,289.884,293.067,297.744,301.6,304.441,309.323,312.164,316.304,318.794,321.0,326.868,332.199,335.879,341.21,347.097,351.2802,353.424,357.759,362.641,366.497,371.896,377.227,382.909,387.0922,389.246,397.388,400.23,403.412,409.18879999999996,411.282,416.964,419.805,425.234,431.01079999999996,433.113,437.252,443.12,447.797,452.132,454.973,460.88,465.2624,467.401,471.541,477.428,481.285,484.536,489.418,493.753,498.5338,500.626,505.508,509.179,513.855" svgx:width="0.78,0.42,0.55,0.29,0.29,0.33,0.58,0.29,0.6,0.88,0.33,0.29,0.55,0.58,0.55,0.55,0.5,0.33,0.33,0.48,0.4,0.56,0.55,0.33,0.61,0.34,0.61,0.33,0.55,0.5,0.58,0.55,0.61,0.48,0.55,0.88,0.5,0.33,0.48,0.4,0.29,0.5,0.29,0.42,0.25,0.55,0.6,0.55,0.4,0.55,0.6,0.42,0.55,0.44,0.5,0.4,0.55,0.55,0.58,0.42,0.55,0.83,0.29,0.33,0.58,0.55,0.58,0.29,0.56,0.58,0.55,0.42,0.6,0.48,0.44,0.29,0.61,0.44,0.55,0.42,0.6,0.4,0.33,0.5,0.44,0.48,0.55,0.5,0.4,0.48,0.5" style="fill:rgb(0,0,0);font-family:URWPalladioL-Roma;font-size:9.96px;stroke:none;">As lithium-ion battery (LIB) anode materials, porous carbons with high speciﬁc surface area</text>
   <text y="356.998" x="82.205,87.146,90.872,95.6528,98.077,103.829,106.705,112.2,117.951,120.827,126.4046,128.803,132.529,137.263,142.797,148.756,151.632,155.358,160.092,166.16760000000002,168.611,174.076,178.81,183.198,188.14,194.089,198.28,203.0608,205.494,208.716,214.468,219.202,224.7796,227.177,231.565,236.507,242.2838,244.739,252.981,257.715,260.591,263.4794,265.938,270.879,275.267,279.655,285.051,293.778,302.505,307.901,313.939,318.881,322.102,326.8828,329.317,335.069,341.028,346.523,351.3038,353.738,359.321,364.717,367.584,373.543,382.27,387.0508,389.484,394.218,399.318,405.257,410.199,415.95,420.141,423.017,428.413" svgx:width="0.5,0.4,0.48,0.55,0.58,0.29,0.56,0.58,0.29,0.56,0.55,0.4,0.48,0.56,0.6,0.29,0.4,0.48,0.61,0.55,0.55,0.48,0.44,0.5,0.6,0.42,0.48,0.55,0.33,0.58,0.48,0.56,0.55,0.44,0.5,0.58,0.55,0.83,0.48,0.29,0.29,0.55,0.5,0.44,0.44,0.55,0.88,0.88,0.55,0.61,0.5,0.33,0.48,0.55,0.58,0.6,0.56,0.48,0.55,0.56,0.55,0.29,0.6,0.88,0.48,0.55,0.48,0.52,0.6,0.5,0.58,0.42,0.29,0.55,0.58" style="fill:rgb(0,0,0);font-family:URWPalladioL-Roma;font-size:9.96px;stroke:none;">are highly required because they can well accommodate huge volume expansion</text>
   <text y="356.998" x="434.166" svgx:width="0.29" style="fill:rgb(0,0,0);font-family:Rpxr;font-size:9.96px;stroke:none;">/</text>
   <text y="356.998" x="437.003,441.391,446.787,452.539,455.761,459.664,464.606,468.994,472.216,475.092,480.488,486.2648,488.72,494.759,500.718,504.622,507.498,513.25" svgx:width="0.44,0.55,0.58,0.33,0.4,0.5,0.44,0.33,0.29,0.55,0.58,0.55,0.61,0.6,0.4,0.29,0.58,0.56" style="fill:rgb(0,0,0);font-family:URWPalladioL-Roma;font-size:9.96px;stroke:none;">contraction during</text>
   <text y="370.508" x="82.205,86.54,91.968,96.303,99.144,101.986,107.668,113.096,115.586,118.944,122.235,128.0118,130.163,133.345,139.028,141.869,146.0522,148.254,156.397,161.727,165.584,171.012,173.502,175.757,181.44,184.281,188.957,192.814,197.696,201.367,205.702,211.384,214.225,218.56,223.442,226.283,229.124,234.70159999999998,236.808,242.675,248.006,251.677,257.008,262.895,267.0782,269.29,273.625,278.507,282.363,287.763,293.093,298.8698,301.021,304.272,312.396,318.293,325.215,328.5018,330.712,338.854,341.695,344.878,350.65479999999997,352.816,358.498,361.339,366.768,372.54479999999995,374.696,378.835,384.703,389.38,393.715,396.556,402.462,406.8444,409.043,413.183,419.07,422.926,426.178,431.059,435.394,440.1748,442.326,447.208,450.879,455.556,460.536,462.683,465.934,471.851,476.732,481.614,486.496,491.377,493.818,498.7,503.68,505.837" svgx:width="0.44,0.56,0.44,0.29,0.29,0.58,0.56,0.25,0.55,0.34,0.58,0.55,0.33,0.58,0.29,0.42,0.55,0.83,0.55,0.4,0.56,0.25,0.55,0.58,0.29,0.48,0.4,0.5,0.4,0.44,0.58,0.29,0.44,0.5,0.29,0.29,0.56,0.55,0.6,0.55,0.4,0.55,0.6,0.42,0.55,0.44,0.5,0.4,0.55,0.55,0.58,0.55,0.33,0.83,0.6,0.71,0.33,0.55,0.83,0.29,0.33,0.58,0.55,0.58,0.29,0.56,0.58,0.55,0.42,0.6,0.48,0.44,0.29,0.61,0.44,0.55,0.42,0.6,0.4,0.33,0.5,0.44,0.48,0.55,0.5,0.4,0.48,0.5,0.55,0.33,0.61,0.5,0.5,0.5,0.5,0.25,0.5,0.5,0.55,0.88" style="fill:rgb(0,0,0);font-family:URWPalladioL-Roma;font-size:9.96px;stroke:none;">cycling. In this work, hierarchically porous carbon (HPC) with high speciﬁc surface area (~1714.83 m</text>
   <text y="366.891" x="514.456" svgx:width="0.5" style="fill:rgb(0,0,0);font-family:URWPalladioL-Roma;font-size:7.57px;stroke:none;">2</text>
   <text y="384.017" x="82.205" svgx:width="0.56" style="fill:rgb(0,0,0);font-family:URWPalladioL-Roma;font-size:9.96px;stroke:none;">g</text>
   <text y="380.401" x="87.655" svgx:width="0.67" style="fill:rgb(0,0,0);font-family:Pxsy;font-size:7.57px;stroke:none;">−</text>
   <text y="380.401" x="92.72" svgx:width="0.5" style="fill:rgb(0,0,0);font-family:URWPalladioL-Roma;font-size:7.57px;stroke:none;">1</text>
   <text y="384.017" x="97.004,100.2908,102.749,105.601,109.7842,112.238,116.395,121.845,127.551,130.747,136.452,141.148,145.304,148.157,153.059,157.754,163.8296,166.234,169.499,173.185,178.537,189.683,195.105,197.957,203.31,211.966,216.868,221.024,225.2072,227.661,231.347,236.043,240.738,246.8136,249.218,255.179,260.531,268.707,273.403,277.275,281.432,283.922,287.363,293.372,299.077,303.8578,306.253,314.91,319.811,323.007,327.703,331.575,334.428,339.329,342.2174,344.662,350.554,354.25,358.945,363.102,367.798,373.503,376.699,380.8822,383.336,388.786,394.139,399.491,405.5666,407.961,412.314,417.765,422.117,424.97,427.823,433.528,439.10560000000004,441.469,445.625,448.821,453.723,459.144,461.997,464.849,467.702,470.898,476.47560000000004,478.829,483.73,487.9132,490.367,495.269,501.0458,503.454,509.444,512.748" svgx:width="0.33,0.55,0.29,0.42,0.55,0.42,0.56,0.58,0.33,0.58,0.48,0.42,0.29,0.5,0.48,0.61,0.55,0.33,0.4,0.55,0.88,0.55,0.29,0.55,0.88,0.5,0.42,0.42,0.55,0.4,0.48,0.48,0.61,0.55,0.61,0.55,0.83,0.48,0.4,0.42,0.25,0.55,0.61,0.58,0.48,0.55,0.88,0.5,0.33,0.48,0.4,0.29,0.5,0.29,0.55,0.6,0.4,0.48,0.42,0.48,0.58,0.33,0.42,0.55,0.56,0.55,0.55,0.61,0.55,0.44,0.56,0.44,0.29,0.29,0.58,0.56,0.55,0.42,0.33,0.5,0.55,0.29,0.29,0.29,0.33,0.56,0.55,0.5,0.42,0.55,0.5,0.58,0.55,0.61,0.34,0.61" style="fill:rgb(0,0,0);font-family:URWPalladioL-Roma;font-size:9.96px;stroke:none;">) is synthesized frombiomass reed ﬂowers. The material presents good cycling stability as an LIB</text>
   <text y="397.526" x="82.205,87.256,93.135,98.651,104.824,109.662,112.152,114.683,120.856,125.694,128.634,131.574,137.282,142.12,146.111,149.05,154.93,160.5076,163.042,168.093,173.8698,176.467,181.306,186.519,191.004,195.843,198.783,201.723,206.562,212.441,215.7278,218.229,222.038,226.877,232.585,237.423,241.414,245.697,248.637,254.223,257.163,261.9438,264.497,268.982,274.033,280.105,285.156,289.641,292.581,295.874,301.45160000000004,303.986,309.502,312.78880000000004,315.361,320.412,325.463,330.514,333.039,338.019,340.586,349.506,357.365,363.1418,365.74" svgx:width="0.5,0.58,0.55,0.61,0.48,0.25,0.55,0.61,0.48,0.29,0.29,0.56,0.48,0.4,0.29,0.58,0.56,0.55,0.5,0.58,0.55,0.48,0.52,0.44,0.48,0.29,0.29,0.48,0.58,0.33,0.55,0.4,0.48,0.56,0.48,0.4,0.42,0.29,0.55,0.29,0.48,0.55,0.44,0.5,0.6,0.5,0.44,0.29,0.33,0.56,0.55,0.55,0.33,0.55,0.5,0.5,0.5,0.25,0.5,0.55,0.88,0.78,0.58,0.55,0.56" style="fill:rgb(0,0,0);font-family:URWPalladioL-Roma;font-size:9.96px;stroke:none;">anode, delivering an excellent reversible capacity of 581.2 mAh g</text>
   <text y="393.91" x="371.357" svgx:width="0.67" style="fill:rgb(0,0,0);font-family:Pxsy;font-size:7.57px;stroke:none;">−</text>
   <text y="393.91" x="376.423" svgx:width="0.5" style="fill:rgb(0,0,0);font-family:URWPalladioL-Roma;font-size:7.57px;stroke:none;">1</text>
   <text y="397.526" x="383.202,388.253,391.617,394.91,399.749,403.733,406.235,410.72,416.337,420.822,423.762,426.702,432.581,438.15860000000004,440.693,444.057,449.573,453.55699999999996,456.058,461.109,466.16,471.14000000000004,473.706,478.192,483.809,488.294,491.234,496.072,500.2552,502.851,507.902,511.1888,513.69" svgx:width="0.5,0.33,0.33,0.48,0.4,0.55,0.44,0.56,0.44,0.29,0.29,0.58,0.56,0.55,0.33,0.55,0.4,0.55,0.5,0.5,0.5,0.55,0.44,0.56,0.44,0.29,0.48,0.42,0.55,0.5,0.33,0.55,0.5" style="fill:rgb(0,0,0);font-family:URWPalladioL-Roma;font-size:9.96px;stroke:none;">after cycling for 100 cycles at a</text>
   <text y="411.036" x="82.205,86.615,92.605,96.528,100.273,105.03,110.811,114.0978,116.542,122.611,127.369,133.15,137.361,140.252,143.49,149.0676,151.515,156.939,160.2258,162.739,167.706,172.672,177.652,180.132,188.902,196.67079999999999,199.133" svgx:width="0.44,0.6,0.4,0.4,0.48,0.58,0.33,0.55,0.61,0.48,0.58,0.42,0.29,0.33,0.56,0.55,0.55,0.33,0.55,0.5,0.5,0.5,0.55,0.88,0.78,0.55,0.56" style="fill:rgb(0,0,0);font-family:URWPalladioL-Roma;font-size:9.96px;stroke:none;">current density of 100 mA g</text>
   <text y="407.419" x="204.654" svgx:width="0.67" style="fill:rgb(0,0,0);font-family:Pxsy;font-size:7.57px;stroke:none;">−</text>
   <text y="407.419" x="209.72" svgx:width="0.5" style="fill:rgb(0,0,0);font-family:URWPalladioL-Roma;font-size:7.57px;stroke:none;">1</text>
   <text y="411.036" x="214.004,216.494,218.99,223.957,229.737,235.8126,238.299,242.511,245.749,248.639,251.53,254.4184,256.913,260.658,265.416,274.186,279.153,282.043,287.824,292.0072,294.538,299.51800000000003,301.998,305.743,310.5,316.112,320.87,324.793,329.005,331.895,337.388,340.279,345.0598,347.529,351.94,356.906,362.876,367.842,372.252,375.142,378.38,383.9576,386.406,391.829,395.11580000000004,397.63,402.596,407.563,412.529,415.012,419.992,422.482,431.252,438.98,444.7568,447.254" svgx:width="0.25,0.55,0.5,0.58,0.61,0.55,0.42,0.33,0.29,0.29,0.29,0.55,0.4,0.48,0.88,0.5,0.29,0.58,0.42,0.55,0.5,0.55,0.4,0.48,0.56,0.48,0.4,0.42,0.29,0.55,0.29,0.48,0.55,0.44,0.5,0.6,0.5,0.44,0.29,0.33,0.56,0.55,0.55,0.33,0.55,0.5,0.5,0.5,0.25,0.5,0.55,0.88,0.78,0.58,0.55,0.56" style="fill:rgb(0,0,0);font-family:URWPalladioL-Roma;font-size:9.96px;stroke:none;">, and still remains a reversible capacity of 298.5 mAh g</text>
   <text y="407.419" x="452.777" svgx:width="0.67" style="fill:rgb(0,0,0);font-family:Pxsy;font-size:7.57px;stroke:none;">−</text>
   <text y="407.419" x="457.842" svgx:width="0.5" style="fill:rgb(0,0,0);font-family:URWPalladioL-Roma;font-size:7.57px;stroke:none;">1</text>
   <text y="411.036" x="464.623,469.589,472.897,476.135,480.893,484.87699999999995,487.309,491.719,497.242,501.652,504.543,507.433,513.214" svgx:width="0.5,0.33,0.33,0.48,0.4,0.55,0.44,0.56,0.44,0.29,0.29,0.58,0.56" style="fill:rgb(0,0,0);font-family:URWPalladioL-Roma;font-size:9.96px;stroke:none;">after cycling</text>
   <text y="424.545" x="82.205,85.569,91.085,95.06899999999999,97.56,102.611,107.662,112.713,117.693,120.249,124.735,130.352,134.837,137.777,142.615,146.7982,149.384,154.223,159.93,164.769,170.5458,173.134,178.185,181.4718,183.973,189.024,194.075,199.126,204.106,206.663,215.583,223.3518,225.927" svgx:width="0.33,0.55,0.4,0.55,0.5,0.5,0.5,0.5,0.55,0.44,0.56,0.44,0.29,0.48,0.42,0.55,0.48,0.56,0.48,0.58,0.55,0.5,0.33,0.55,0.5,0.5,0.5,0.5,0.55,0.88,0.78,0.55,0.56" style="fill:rgb(0,0,0);font-family:URWPalladioL-Roma;font-size:9.96px;stroke:none;">for 1000 cycles even at 1000 mA g</text>
   <text y="420.929" x="231.542" svgx:width="0.67" style="fill:rgb(0,0,0);font-family:Pxsy;font-size:7.57px;stroke:none;">−</text>
   <text y="420.929" x="236.608" svgx:width="0.5" style="fill:rgb(0,0,0);font-family:URWPalladioL-Roma;font-size:7.57px;stroke:none;">1</text>
   <text y="424.545" x="240.891,243.381,246.902,253.094,258.974,263.7548,266.298,271.914,277.43,282.946,289.02160000000003,291.603,296.442,299.382,304.221,308.706,312.0,315.818,321.334,325.819,331.699,336.537,345.458,348.397,352.873,357.924,360.81239999999997,363.358,369.43,374.269,378.259,381.623,387.139,391.129,400.049,405.1,410.98,415.465,420.2458,422.789,427.274,432.325,438.10179999999997,440.69,446.276,451.0568,453.6,458.651,462.935,467.42,471.41,474.35,479.936,484.775,490.8506,493.433,496.726,502.204,504.727,508.02,513.9" svgx:width="0.25,0.55,0.61,0.58,0.48,0.55,0.56,0.55,0.55,0.61,0.55,0.48,0.29,0.48,0.44,0.33,0.4,0.55,0.44,0.58,0.48,0.88,0.29,0.44,0.5,0.29,0.55,0.6,0.48,0.4,0.33,0.55,0.4,0.88,0.5,0.58,0.44,0.48,0.55,0.44,0.5,0.58,0.55,0.55,0.48,0.55,0.5,0.42,0.44,0.4,0.29,0.55,0.48,0.61,0.55,0.33,0.55,0.55,0.33,0.58,0.48" style="fill:rgb(0,0,0);font-family:URWPalladioL-Roma;font-size:9.96px;stroke:none;">. The good electrochemical performance can be ascribed to the</text>
   <text y="438.055" x="82.205,88.084,91.024,96.641,102.4178,105.015,109.299,115.37,120.209,124.694,127.634,133.746,138.1284,140.736,145.02,151.111,155.102,158.466,163.517,168.002,172.7828,175.346,180.397,184.206,189.045,194.02499999999998,196.591,202.107,205.3938,207.976,211.269,217.149,221.9298,224.483,232.888,238.989,246.0606,248.657,254.536,259.375,262.668,271.094,276.609,280.6,286.216,288.706,291.247,299.672,305.552,308.492,312.977,318.75379999999996,321.351,327.423,331.231,336.747,342.455,345.394,351.567,356.406,360.5892,363.194,367.185,370.124,374.61,380.3868,382.984,388.035,393.915,399.99060000000003,402.592,405.956,411.007,415.291,418.5778,421.089,427.161,432.212,435.505,441.384,445.5672,448.163,451.527,457.042,461.02599999999995,463.538,468.377,471.317,476.156,480.641,483.934,487.743,493.258,499.03479999999996,501.633,506.684,512.563" svgx:width="0.58,0.29,0.56,0.58,0.55,0.42,0.6,0.48,0.44,0.29,0.61,0.44,0.55,0.42,0.6,0.4,0.33,0.5,0.44,0.48,0.55,0.5,0.4,0.48,0.5,0.55,0.55,0.33,0.55,0.33,0.58,0.48,0.55,0.83,0.6,0.71,0.55,0.58,0.48,0.33,0.83,0.55,0.4,0.56,0.25,0.55,0.83,0.58,0.29,0.44,0.58,0.55,0.6,0.4,0.55,0.56,0.29,0.61,0.48,0.42,0.55,0.4,0.29,0.44,0.58,0.55,0.5,0.58,0.61,0.55,0.33,0.5,0.42,0.33,0.55,0.6,0.5,0.33,0.58,0.42,0.55,0.33,0.55,0.4,0.55,0.48,0.29,0.48,0.44,0.33,0.4,0.55,0.58,0.55,0.5,0.58,0.61" style="fill:rgb(0,0,0);font-family:URWPalladioL-Roma;font-size:9.96px;stroke:none;">high speciﬁc surface area of the HPC network, which provides rich and fast paths for electron and</text>
   <text y="451.564" x="82.205,85.162,90.71,96.48679999999999,99.592,102.905,106.919,112.0,117.914,122.222,125.606,130.474,134.458,137.455,142.536,148.45,154.5256,157.636,163.744,167.575,173.123,178.865,181.822,188.031,192.898,197.0812,200.174,203.131,208.212,212.053,217.703,222.4838,225.538,230.05,235.598,241.512,244.825,249.906,254.418,257.70480000000003,260.698,265.779,269.61,274.477,279.457,282.536,287.617,293.531,299.6066,302.707,311.68,317.808,321.12,327.248,332.329,335.2174,338.253,341.21,347.124,350.437,355.305,359.319,364.4,368.911,372.224,375.181,380.73,386.644,390.8272,393.92,399.539,404.407,407.72,416.195,421.062,425.93,431.7068,434.811,438.124,444.038,448.8188,451.883,456.75,459.708,464.575,469.087,472.4,476.231,481.779,484.736,490.386,493.699,498.4798,501.534,506.615,512.529" svgx:width="0.29,0.55,0.58,0.55,0.33,0.4,0.5,0.58,0.42,0.33,0.48,0.4,0.55,0.5,0.58,0.61,0.55,0.6,0.4,0.55,0.56,0.29,0.61,0.48,0.42,0.55,0.29,0.5,0.4,0.56,0.48,0.55,0.44,0.55,0.58,0.33,0.5,0.44,0.33,0.55,0.5,0.4,0.48,0.5,0.55,0.5,0.58,0.61,0.55,0.88,0.6,0.33,0.6,0.5,0.29,0.55,0.29,0.58,0.33,0.48,0.4,0.5,0.44,0.33,0.29,0.55,0.58,0.42,0.55,0.55,0.48,0.33,0.83,0.48,0.48,0.58,0.55,0.33,0.58,0.48,0.55,0.48,0.29,0.48,0.44,0.33,0.4,0.55,0.29,0.56,0.33,0.48,0.55,0.5,0.58,0.61" style="fill:rgb(0,0,0);font-family:URWPalladioL-Roma;font-size:9.96px;stroke:none;">ion transfer and provides large contact area and mutual interactions between the electrolyte and</text>
   <text y="465.073" x="82.205,87.087,91.422,94.604,97.446,102.962,107.7428,110.06,118.681,123.563,126.745,131.422,135.279,138.12,143.001,145.842,149.982,152.472,155.889,161.874,167.556,172.3368,174.654,182.797,188.128,191.984,197.5616,199.834,205.702,209.382,214.713,220.581,225.912,230.051,234.728,238.9112,241.289,246.26899999999998,248.592,254.274,258.951,269.515,273.196,278.526,284.414,287.597,292.3778,294.695,297.946,303.276,307.26,309.554,312.737,318.419,323.1998,325.517,331.385,335.066,339.743,345.61,350.492,354.349,359.23,362.413,365.254,370.585,376.36179999999996,378.689,384.019,387.30580000000003,389.692,392.533,397.864,408.428,412.763,418.093,422.233,425.51980000000003,427.837,432.172,437.054,440.91,446.31,451.64,457.323,460.574,465.973,470.855,474.994,479.671,485.7466,488.067,492.949,498.631,503.962,509.927,514.604" svgx:width="0.5,0.44,0.33,0.29,0.56,0.48,0.55,0.88,0.5,0.33,0.48,0.4,0.29,0.5,0.29,0.42,0.25,0.55,0.61,0.58,0.48,0.55,0.83,0.55,0.4,0.56,0.55,0.6,0.4,0.55,0.6,0.55,0.42,0.48,0.42,0.55,0.5,0.55,0.58,0.48,0.83,0.4,0.55,0.6,0.33,0.48,0.55,0.33,0.55,0.4,0.55,0.33,0.58,0.48,0.55,0.6,0.4,0.48,0.6,0.5,0.4,0.5,0.33,0.29,0.55,0.58,0.55,0.55,0.33,0.55,0.29,0.55,0.83,0.44,0.55,0.42,0.33,0.55,0.44,0.5,0.4,0.55,0.55,0.58,0.33,0.55,0.5,0.42,0.48,0.61,0.55,0.5,0.58,0.55,0.61,0.48,0.42" style="fill:rgb(0,0,0);font-family:URWPalladioL-Roma;font-size:9.96px;stroke:none;">active materials. The work proposes a newroute for the preparation of lowcost carbon-based anodes</text>
   <text y="478.583" x="82.205,87.191,92.995,99.0706,101.562,110.368,115.354,120.9316,123.372,129.365,133.125,138.57,147.376,152.821,156.072,160.8528,163.332,166.583,172.387,177.1678,179.637,185.73,190.507,196.142,200.918,203.82,209.265,215.259,224.065,228.842,234.646,237.9328,240.37,245.815,249.1018,251.609,257.054,260.305,266.109,270.886,274.87,277.298,283.292,288.737,292.496,297.941,303.955,308.1382,310.666,315.094,320.08,324.02,329.534,334.979,340.75579999999997,343.257,352.062,357.049,360.3,365.077,369.016,371.918,376.904,379.806,383.9892,386.508,392.601,397.378,401.317,404.219,409.853,414.63,420.7056,423.197,426.518,430.277,435.722,447.001,452.636,457.622,461.561,464.463,469.908,475.922,480.1052,482.633,488.148,491.05,496.495,505.301,510.287,514.515" svgx:width="0.5,0.58,0.61,0.55,0.88,0.5,0.56,0.55,0.6,0.4,0.55,0.88,0.55,0.33,0.48,0.55,0.33,0.58,0.48,0.55,0.61,0.48,0.56,0.48,0.29,0.55,0.6,0.88,0.48,0.58,0.33,0.55,0.55,0.33,0.55,0.55,0.33,0.58,0.48,0.4,0.55,0.6,0.55,0.4,0.55,0.6,0.42,0.55,0.44,0.5,0.4,0.55,0.55,0.58,0.55,0.88,0.5,0.33,0.48,0.4,0.29,0.5,0.29,0.42,0.55,0.61,0.48,0.4,0.29,0.56,0.48,0.61,0.55,0.33,0.4,0.55,0.88,0.56,0.5,0.4,0.29,0.55,0.6,0.42,0.55,0.55,0.29,0.55,0.88,0.5,0.42,0.42" style="fill:rgb(0,0,0);font-family:URWPalladioL-Roma;font-size:9.96px;stroke:none;">and may promote the development of other porous carbon materials derived fromvarious biomass</text>
   <text y="492.092" x="82.205,86.628,91.61,95.545,101.054,106.494,112.2708,114.783,119.007,124.446,130.454,134.21,138.633,143.405,147.629" svgx:width="0.44,0.5,0.4,0.55,0.55,0.58,0.55,0.42,0.55,0.6,0.4,0.44,0.48,0.42,0.25" style="fill:rgb(0,0,0);font-family:URWPalladioL-Roma;font-size:9.96px;stroke:none;">carbon sources.</text>
   <text y="517.557" x="82.205,89.956,94.937,100.476,108.775,114.314,118.19,124.277,128.7" svgx:width="0.78,0.5,0.56,0.83,0.56,0.39,0.61,0.44,0.25" style="fill:rgb(0,0,0);font-family:URWPalladioL-Bold;font-size:9.96px;stroke:none;">Keywords:</text>
   <text y="517.557" x="134.677,140.186,143.085,148.525,157.322,162.303,166.527,170.752,173.24200000000002,175.733,181.72,187.16,190.916,196.355,202.363,206.587,209.077,211.568,215.992,220.973,224.908,230.418,235.857,241.655,244.145,246.637,252.724,255.623,258.94,261.84,267.279,273.0558,275.568,281.077,286.059,289.306,292.554,297.326,301.262,306.801,309.291,311.782,316.763,322.562,328.001,334.088" svgx:width="0.55,0.29,0.55,0.88,0.5,0.42,0.42,0.25,0.55,0.6,0.55,0.4,0.55,0.6,0.42,0.25,0.55,0.44,0.5,0.4,0.55,0.55,0.58,0.25,0.55,0.61,0.29,0.33,0.29,0.55,0.58,0.55,0.55,0.5,0.33,0.33,0.48,0.4,0.56,0.25,0.55,0.5,0.58,0.55,0.61,0.48" style="fill:rgb(0,0,0);font-family:URWPalladioL-Roma;font-size:9.96px;stroke:none;">biomass; porous; carbon; Li-ion battery; anode</text>
  </g>
  <path style="fill:none;stroke:rgb(0,0,0);stroke-width:1.0;" d="M76.540 536.510 L518.740 536.510 "/>
  <g begin="text">
   <text y="568.501" x="76.535,81.516,84.006,87.494,91.369,97.456,100.774,104.649,110.189,116.276,122.363,126.786,130.104,133.421,138.961" svgx:width="0.5,0.25,0.55,0.39,0.61,0.33,0.39,0.56,0.61,0.61,0.44,0.33,0.33,0.56,0.61" style="fill:rgb(0,0,0);font-family:URWPalladioL-Bold;font-size:9.96px;stroke:none;">1. Introduction</text>
   <text y="587.988" x="97.795,107.408,110.365,113.678,119.45479999999999,122.427,125.74,131.654,136.4348,139.357,144.225,149.468,153.98,158.847,163.156,167.465,170.422,176.163,180.9438,183.856,188.368,193.916,199.83,204.139,210.266,219.239,225.347,228.659,231.616,237.165,242.9418,245.914,251.462,254.7488,257.682,263.596,269.144,275.058,278.889,283.757,289.671,294.539,303.013,308.094,313.714,316.671,321.4518,324.374,328.205,333.072,337.381,342.929,349.057,352.898,357.41,362.277,366.586,369.076,372.043,375.356,381.27,386.0508,388.973,393.84,399.754,404.622,408.453,414.103,419.6806,422.588,427.1,431.114,434.071,438.379,441.337,445.5202,448.48,452.789,458.896,462.727,467.595,472.676,478.885,483.0682,486.028,491.109,494.94,500.489,506.616,512.53" svgx:width="1.0,0.29,0.33,0.58,0.55,0.33,0.58,0.48,0.55,0.48,0.52,0.44,0.48,0.42,0.42,0.29,0.56,0.48,0.55,0.44,0.55,0.58,0.42,0.6,0.88,0.6,0.33,0.29,0.55,0.58,0.55,0.55,0.33,0.55,0.58,0.55,0.58,0.4,0.48,0.58,0.48,0.83,0.5,0.55,0.29,0.48,0.55,0.4,0.48,0.42,0.55,0.6,0.4,0.44,0.48,0.42,0.25,0.55,0.33,0.58,0.48,0.55,0.48,0.58,0.48,0.4,0.56,0.56,0.55,0.44,0.4,0.29,0.42,0.29,0.42,0.55,0.42,0.6,0.4,0.48,0.5,0.61,0.42,0.55,0.5,0.4,0.55,0.6,0.58,0.61" style="fill:rgb(0,0,0);font-family:URWPalladioL-Roma;font-size:9.96px;stroke:none;">With the excessive consumption of nonrenewable resources, the energy crisis spreads around</text>
   <text y="601.497" x="76.535,79.848,85.762,90.5428,93.485,101.96,107.508,111.522,114.479,120.688,123.178,127.822,134.051,139.965,144.833,148.664,153.531,156.915,162.464,166.305,171.172,173.662,176.66,179.617,182.9038,185.785,188.742,192.9252,195.916,202.044,205.875,211.525,216.393,222.307,225.5938,228.475,231.788,237.26600000000002,240.202,245.069,250.313,256.42,259.377,264.926,268.757,273.5378,276.48,282.394,287.261,295.5278,298.602,307.077,312.158,317.808,321.9912,324.972,328.356,333.904,337.888,340.774,345.082,348.395,353.943,357.957,360.914,366.829,372.4066,375.334,380.202,386.116,390.983,394.824,400.474,406.0516,408.98" svgx:width="0.33,0.58,0.48,0.55,0.83,0.55,0.4,0.29,0.61,0.25,0.55,0.61,0.58,0.48,0.4,0.48,0.33,0.55,0.4,0.48,0.25,0.55,0.29,0.33,0.55,0.29,0.42,0.55,0.6,0.4,0.56,0.48,0.58,0.33,0.55,0.33,0.55,0.55,0.48,0.52,0.6,0.29,0.55,0.4,0.48,0.55,0.58,0.48,0.83,0.55,0.83,0.5,0.56,0.42,0.55,0.33,0.55,0.4,0.55,0.42,0.33,0.55,0.4,0.29,0.58,0.56,0.55,0.48,0.58,0.48,0.4,0.56,0.56,0.55,0.33" style="fill:rgb(0,0,0);font-family:URWPalladioL-Roma;font-size:9.96px;stroke:none;">the world. Therefore, it is urgent to explore new ways for storing energy [</text>
   <text y="601.497" x="412.365" svgx:width="0.5" style="fill:rgb(8,117,183);font-family:URWPalladioL-Roma;font-size:9.96px;stroke:none;">1</text>
   <text y="601.497" x="417.347" svgx:width="0.25" style="fill:rgb(0,0,0);font-family:URWPalladioL-Roma;font-size:9.96px;stroke:none;">,</text>
   <text y="601.497" x="419.887" svgx:width="0.5" style="fill:rgb(8,117,183);font-family:URWPalladioL-Roma;font-size:9.96px;stroke:none;">2</text>
   <text y="601.497" x="424.869,428.253,430.743,435.387,443.292,447.4752,450.457,456.005,461.919,466.6998,469.642,475.19,478.4768,481.44" svgx:width="0.33,0.25,0.55,0.78,0.42,0.55,0.55,0.58,0.48,0.55,0.55,0.33,0.55,0.48" style="fill:rgb(0,0,0);font-family:URWPalladioL-Roma;font-size:9.96px;stroke:none;">]. As one of e</text>
   <text y="601.497" x="486.304" svgx:width="0.61" style="fill:rgb(0,0,0);font-family:Rpxr;font-size:9.96px;stroke:none;">ﬀ</text>
   <text y="601.497" x="492.482,497.35,501.861,505.174,508.131,513.873" svgx:width="0.48,0.44,0.33,0.29,0.56,0.48" style="fill:rgb(0,0,0);font-family:URWPalladioL-Roma;font-size:9.96px;stroke:none;">ective</text>
   <text y="615.006" x="76.535,81.403,87.317,92.184,96.015,101.665,107.315,110.699,115.008,118.321,123.869,127.883,132.964,138.614,143.3948,146.662,152.871,157.738,163.48,166.437,170.949,175.816,180.125,182.615,186.019,188.976,191.933,195.246,201.16,204.117,210.245,219.0098,222.388,225.345,230.893,236.6698,239.988,245.608,250.689,254.002,257.314,262.182,266.196,269.153,274.02,278.2032,281.51,284.894,291.102,294.527,300.736,305.044,308.3308,311.599,317.513,322.594,328.335,333.1158,336.384,341.465,344.777,348.09,352.104,357.185,361.697,365.01,369.877,375.9526,379.267,384.886,388.717,394.266,399.347,405.4226,408.736,413.817,417.13,420.443,425.31,431.224,434.537,437.484,443.032,448.80879999999996,452.127,458.336,464.464,469.2448,472.512,475.825,481.303,484.554,487.511,490.824,495.0072,498.303,504.217,507.174,512.824" svgx:width="0.48,0.58,0.48,0.4,0.56,0.56,0.33,0.42,0.33,0.55,0.4,0.5,0.56,0.48,0.55,0.61,0.48,0.56,0.29,0.44,0.48,0.42,0.25,0.55,0.29,0.29,0.33,0.58,0.29,0.6,0.88,0.55,0.29,0.55,0.58,0.55,0.55,0.5,0.33,0.33,0.48,0.4,0.29,0.48,0.42,0.55,0.33,0.61,0.34,0.61,0.42,0.33,0.55,0.58,0.5,0.56,0.48,0.55,0.5,0.33,0.33,0.4,0.5,0.44,0.33,0.48,0.61,0.55,0.55,0.4,0.55,0.5,0.61,0.55,0.5,0.33,0.33,0.48,0.58,0.33,0.29,0.55,0.58,0.55,0.61,0.6,0.48,0.55,0.33,0.55,0.55,0.29,0.33,0.42,0.55,0.58,0.29,0.56,0.58" style="fill:rgb(0,0,0);font-family:URWPalladioL-Roma;font-size:9.96px;stroke:none;">energy-storage devices, lithium ion batteries (LIBs) have attracted broad attention due to its high</text>
   <text y="628.516" x="76.535,81.403,87.317,92.184,96.015,101.665,107.24260000000001,110.445,116.654,121.522,127.436,131.744,134.701,138.014,142.567,145.05700000000002,148.389,151.347,156.895,162.809,168.3866,171.599,176.111,181.761,186.273,189.23,192.187,198.101,203.6786,206.881,209.838,212.795,216.179,221.047,223.537,226.869,231.95,237.865,243.94060000000002,247.213,250.171,253.128,258.778,264.692,267.97880000000004,271.134,279.609,284.477,287.434,293.084,298.998,302.2848,305.441" svgx:width="0.48,0.58,0.48,0.4,0.56,0.56,0.55,0.61,0.48,0.58,0.42,0.29,0.33,0.56,0.25,0.55,0.29,0.55,0.58,0.56,0.55,0.44,0.56,0.44,0.29,0.29,0.58,0.56,0.55,0.29,0.29,0.33,0.48,0.25,0.55,0.5,0.58,0.61,0.55,0.29,0.29,0.56,0.58,0.33,0.55,0.83,0.48,0.29,0.56,0.58,0.33,0.55,0.33" style="fill:rgb(0,0,0);font-family:URWPalladioL-Roma;font-size:9.96px;stroke:none;">energy density, long cycling life, and light weight [</text>
   <text y="628.516" x="308.822" svgx:width="0.5" style="fill:rgb(8,117,183);font-family:URWPalladioL-Roma;font-size:9.96px;stroke:none;">3</text>
   <text y="628.516" x="313.803" svgx:width="0.5" style="fill:rgb(0,0,0);font-family:URWPalladioL-Roma;font-size:9.96px;stroke:none;">–</text>
   <text y="628.516" x="318.884" svgx:width="0.5" style="fill:rgb(8,117,183);font-family:URWPalladioL-Roma;font-size:9.96px;stroke:none;">5</text>
   <text y="628.516" x="323.865,327.249,329.73900000000003,335.195,341.425,347.339,352.1198,355.336,361.444,365.285,370.833,376.94,381.808,385.822,389.135,394.7126,397.914,403.463,406.74980000000005,409.977,415.057,420.8338,424.102,429.182,435.097,440.645,446.854,451.6348,454.851,463.824,468.905,472.218,477.085,481.099,484.056,489.137,492.0254,495.224,501.138,506.219,510.4022,513.658" svgx:width="0.33,0.25,0.55,0.61,0.58,0.48,0.55,0.6,0.4,0.55,0.6,0.48,0.4,0.33,0.56,0.55,0.55,0.33,0.55,0.5,0.58,0.55,0.5,0.58,0.55,0.61,0.48,0.55,0.88,0.5,0.33,0.48,0.4,0.29,0.5,0.29,0.55,0.58,0.5,0.42,0.55,0.5" style="fill:rgb(0,0,0);font-family:URWPalladioL-Roma;font-size:9.96px;stroke:none;">]. The property of an anode material has a</text>
   <text y="642.025" x="76.535,80.772,83.68,89.235,95.051,97.959,104.004,108.441,113.437,119.253,122.5398,125.009" svgx:width="0.42,0.29,0.56,0.58,0.29,0.61,0.44,0.5,0.58,0.33,0.55,0.48" style="fill:rgb(0,0,0);font-family:URWPalladioL-Roma;font-size:9.96px;stroke:none;">signiﬁcant e</text>
   <text y="642.025" x="129.797" svgx:width="0.61" style="fill:rgb(0,0,0);font-family:Rpxr;font-size:9.96px;stroke:none;">ﬀ</text>
   <text y="642.025" x="135.872,140.658,145.095,148.3818,150.851,156.307,162.0838,164.62,167.878,173.694,178.4748,180.988,187.034,192.849,197.845,200.7334,203.251,209.257,214.043,217.99,221.318,226.774,230.721,239.544,244.54,250.356,254.793,259.579,263.7622,266.314,271.77,275.0568,277.595,282.57500000000005,285.09,288.347,293.803,297.061,302.057,304.9454,307.463,313.568,316.936,323.041,325.531,328.047,335.822,339.10880000000003,341.577,347.583,351.35,356.136,360.373,365.16,370.975,374.233,376.723,379.229,384.225,390.041,395.497,401.602,406.3828,408.887,417.71,422.706,425.964,430.75,434.697,437.605,442.601,445.509,449.6922,452.244,461.067,466.064,468.971,474.787,477.695,483.2726,485.759,488.667,494.482,498.919,501.827,507.852,513.958" svgx:width="0.48,0.44,0.33,0.55,0.55,0.58,0.55,0.33,0.58,0.48,0.55,0.61,0.58,0.5,0.29,0.55,0.6,0.48,0.4,0.33,0.55,0.4,0.88,0.5,0.58,0.44,0.48,0.42,0.55,0.55,0.33,0.55,0.5,0.55,0.33,0.55,0.33,0.5,0.29,0.55,0.61,0.34,0.61,0.25,0.55,0.78,0.33,0.55,0.6,0.4,0.48,0.42,0.48,0.58,0.33,0.25,0.55,0.5,0.58,0.55,0.61,0.48,0.55,0.88,0.5,0.33,0.48,0.4,0.29,0.5,0.29,0.42,0.55,0.88,0.5,0.29,0.58,0.29,0.56,0.55,0.29,0.58,0.44,0.29,0.6,0.61,0.48" style="fill:rgb(0,0,0);font-family:URWPalladioL-Roma;font-size:9.96px;stroke:none;">ect on the ﬁnal performances of a total LIB. At present, anode materials mainly include</text>
   <text y="655.535" x="76.535,81.047,86.595,92.509,98.251,103.118,107.132,111.441,114.398,119.946,125.72279999999999,128.625,132.456,137.323,142.404,146.916,150.229,153.186,158.734,164.51080000000002,167.412,170.725,176.375,182.482,187.35,189.84,192.726,197.807,200.764,203.721,209.269,214.919,218.303,221.616,227.266,233.373,238.241,240.73100000000002,243.606,248.687,254.601,260.6766,263.574,268.086,273.167,277.181,282.8,288.349,294.263,299.344,303.856,308.723,314.272,320.399,324.5822,327.472,336.445,341.526,344.838,349.706,353.72,356.677,361.758,364.715,368.8982,371.788" svgx:width="0.44,0.55,0.58,0.56,0.48,0.4,0.42,0.29,0.55,0.58,0.55,0.4,0.48,0.5,0.44,0.33,0.29,0.55,0.58,0.55,0.33,0.56,0.6,0.48,0.25,0.55,0.5,0.29,0.29,0.55,0.56,0.33,0.33,0.56,0.6,0.48,0.25,0.55,0.5,0.58,0.61,0.55,0.44,0.5,0.4,0.55,0.55,0.58,0.5,0.44,0.48,0.55,0.6,0.42,0.55,0.88,0.5,0.33,0.48,0.4,0.29,0.5,0.29,0.42,0.55,0.33" style="fill:rgb(0,0,0);font-family:URWPalladioL-Roma;font-size:9.96px;stroke:none;">conversion reaction type, alloy-type, and carbonaceous materials [</text>
   <text y="655.535" x="375.167" svgx:width="0.5" style="fill:rgb(8,117,183);font-family:URWPalladioL-Roma;font-size:9.96px;stroke:none;">6</text>
   <text y="655.535" x="380.149" svgx:width="0.5" style="fill:rgb(0,0,0);font-family:URWPalladioL-Roma;font-size:9.96px;stroke:none;">–</text>
   <text y="655.535" x="385.23" svgx:width="0.5" style="fill:rgb(8,117,183);font-family:URWPalladioL-Roma;font-size:9.96px;stroke:none;">9</text>
   <text y="655.535" x="390.211,393.595,396.08500000000004,400.434,408.888,414.437,422.912,427.779,433.521,438.388,441.671,444.161,447.036,450.349,456.263,461.0438,463.895,468.976,475.083,481.19,484.147,487.104,491.616,496.697,500.01,502.967,508.515,514.43" svgx:width="0.33,0.25,0.55,0.83,0.55,0.83,0.48,0.56,0.48,0.4,0.25,0.55,0.33,0.58,0.48,0.55,0.5,0.6,0.6,0.29,0.29,0.44,0.5,0.33,0.29,0.55,0.58,0.42" style="fill:rgb(0,0,0);font-family:URWPalladioL-Roma;font-size:9.96px;stroke:none;">]. However, the applications</text>
   <text y="669.044" x="76.535,82.045,85.3318,87.889,93.47,98.98,102.27,108.04679999999999,110.626,115.107,120.617,126.491,132.193,137.027,141.014,145.293,148.229,153.74,159.613,162.974,166.779,171.613,176.659,181.14,184.43,187.367,192.877,198.75,202.111,205.401,211.012,217.078,221.8588,224.395,229.441,235.314,241.3896,243.963,249.009,251.946,254.883,260.393,266.004,269.365,272.655,278.266,284.332,289.1128,291.638,296.684,302.558,308.068,314.235,319.069,323.2522,325.83,330.876,334.691,339.4718,341.998,345.813,350.647,354.926,358.216,362.202,365.139,369.62,372.91,377.744,383.81960000000004,386.393,391.964,397.5416,400.058,403.348,409.222,414.056,416.992,420.976,423.462,426.398,431.909,440.1758,442.808,447.289,452.799,458.673,464.839,470.925,475.406,478.696,481.632,487.335,490.271,493.561,499.1386,501.655,506.701,512.575" svgx:width="0.55,0.33,0.55,0.55,0.55,0.33,0.58,0.55,0.44,0.55,0.58,0.56,0.48,0.4,0.42,0.29,0.55,0.58,0.33,0.4,0.48,0.5,0.44,0.33,0.29,0.55,0.58,0.33,0.33,0.56,0.6,0.48,0.55,0.5,0.58,0.61,0.55,0.5,0.29,0.29,0.55,0.56,0.33,0.33,0.56,0.6,0.48,0.55,0.5,0.58,0.55,0.61,0.48,0.42,0.55,0.5,0.4,0.48,0.55,0.4,0.48,0.42,0.33,0.4,0.29,0.44,0.33,0.48,0.61,0.55,0.55,0.56,0.55,0.33,0.58,0.48,0.29,0.4,0.55,0.29,0.55,0.83,0.55,0.44,0.55,0.58,0.61,0.6,0.44,0.33,0.29,0.56,0.29,0.33,0.56,0.55,0.5,0.58,0.61" style="fill:rgb(0,0,0);font-family:URWPalladioL-Roma;font-size:9.96px;stroke:none;">of both conversion-reaction-type and alloy-type anodes are restricted by their low conductivity and</text>
   <text y="682.553" x="76.535,80.675,85.351,89.208,92.049,97.38,103.267,107.4502,109.232,114.749,120.08,122.921,128.808,137.429,142.2098,143.931,148.608,153.646,159.514,164.395,170.078,174.217,177.058,182.389,189.897,195.863,201.75,205.606,208.448,214.13,219.70759999999999,221.384,225.719,231.147,235.482,238.323,241.165,246.847,252.4246,254.101" svgx:width="0.42,0.48,0.4,0.29,0.55,0.6,0.42,0.55,0.56,0.55,0.29,0.6,0.88,0.48,0.55,0.48,0.52,0.6,0.5,0.58,0.42,0.29,0.55,0.58,0.61,0.6,0.4,0.29,0.58,0.56,0.55,0.44,0.56,0.44,0.29,0.29,0.58,0.56,0.55,0.33" style="fill:rgb(0,0,0);font-family:URWPalladioL-Roma;font-size:9.96px;stroke:none;">serious volume expansionduring cycling [</text>
   <text y="682.553" x="257.349,262.33" svgx:width="0.5,0.5" style="fill:rgb(8,117,183);font-family:URWPalladioL-Roma;font-size:9.96px;stroke:none;">10</text>
   <text y="682.553" x="267.311" svgx:width="0.5" style="fill:rgb(0,0,0);font-family:URWPalladioL-Roma;font-size:9.96px;stroke:none;">–</text>
   <text y="682.553" x="272.193,277.174" svgx:width="0.5,0.5" style="fill:rgb(8,117,183);font-family:URWPalladioL-Roma;font-size:9.96px;stroke:none;">13</text>
   <text y="682.553" x="282.156,285.407,287.897,291.109,298.031,303.362,311.983,317.851,322.732,326.413,331.09,338.881,347.024,349.865,353.048,360.556,363.739,369.421,374.097,378.237,383.0178,384.739,390.168,393.009,398.691,404.657,408.8402,410.622,415.953,419.2398,421.03,425.911,431.594,436.925,442.89,447.567,451.706,454.196,456.1,460.435,465.316,469.173,474.572,479.903,485.585,488.836,492.517,497.194,500.035,504.917,508.099,512.776" svgx:width="0.33,0.25,0.55,0.71,0.55,0.88,0.6,0.5,0.4,0.48,0.61,0.83,0.29,0.33,0.58,0.33,0.58,0.48,0.42,0.48,0.55,0.56,0.29,0.58,0.61,0.42,0.55,0.55,0.33,0.55,0.5,0.58,0.55,0.61,0.48,0.42,0.25,0.55,0.44,0.5,0.4,0.55,0.55,0.58,0.33,0.4,0.48,0.29,0.5,0.33,0.48,0.61" style="fill:rgb(0,0,0);font-family:URWPalladioL-Roma;font-size:9.96px;stroke:none;">]. Comparedwiththese kinds of anodes, carbon-related</text>
   <text y="696.063" x="76.535,85.226,90.148,93.357,98.072,101.96,104.824,109.745,112.61,116.7932,119.254,122.532,126.705,132.64,137.011,142.7878,145.22,150.141,154.3242,156.785,162.258,166.146,171.068,176.983,182.712,185.576,188.785,193.5,195.99,198.441,203.914,207.802,212.723,218.639,224.368,229.083,234.811,239.526,242.01600000000002,244.457,249.379,253.749,256.958,259.822,265.384,270.305,273.514,278.229,284.3046,286.723,291.094,296.015,299.903,305.346,310.721,316.449,318.939,321.381,325.751,330.673,334.561,340.004,345.378,351.15479999999997,353.587,359.316,364.237,369.966,375.34,378.549,384.485,389.928,394.643,398.816,401.306,403.747,408.118,413.039,416.927,422.37,427.745,433.5218,435.954,441.909,447.352,452.067,455.955,460.128,462.618,465.06,469.775,472.983,477.354,479.814,483.10080000000005,486.577,492.492,496.203,500.918,505.091,509.806,515.535" svgx:width="0.88,0.5,0.33,0.48,0.4,0.29,0.5,0.29,0.42,0.55,0.33,0.42,0.6,0.44,0.58,0.55,0.5,0.42,0.55,0.56,0.4,0.5,0.6,0.58,0.29,0.33,0.48,0.25,0.55,0.56,0.4,0.5,0.6,0.58,0.48,0.58,0.48,0.25,0.55,0.5,0.44,0.33,0.29,0.56,0.5,0.33,0.48,0.61,0.55,0.44,0.5,0.4,0.55,0.55,0.58,0.25,0.55,0.44,0.5,0.4,0.55,0.55,0.58,0.55,0.58,0.5,0.58,0.55,0.33,0.6,0.55,0.48,0.42,0.25,0.55,0.44,0.5,0.4,0.55,0.55,0.58,0.55,0.61,0.55,0.48,0.4,0.42,0.25,0.55,0.48,0.33,0.44,0.25,0.33,0.55,0.6,0.4,0.48,0.42,0.48,0.58,0.33" style="fill:rgb(0,0,0);font-family:URWPalladioL-Roma;font-size:9.96px;stroke:none;">materials (such as graphite, graphene, activated carbon, carbon nanotubes, carbon ﬁbers, etc.) present</text>
   <text y="709.572" x="76.535,82.185,87.733,93.282,99.35759999999999,103.281,107.793,113.707,118.788,122.802,127.883,132.395,135.707,140.575,144.589,147.546,151.855,155.167,158.124,162.636,166.8192,170.745,173.703,179.617,184.129,187.086,193.213,199.422,202.379,208.294,213.8716,217.734,223.648,226.605,232.255,238.0318,241.96,246.268,251.349,254.733,259.601,262.914,267.466,269.956,274.122,280.036,282.993,288.643,294.41979999999995,298.348,302.86,308.408,314.322,320.531,326.659,331.171,334.483,337.441,343.182,346.139,349.452,353.994,356.48400000000004,360.66,363.617,369.166,377.4328,381.431,385.943,391.491,395.8,399.113,401.603,405.779,410.647,415.89,420.402,425.269,428.227,431.184,436.051,441.965,445.2518,449.068,453.936,456.893,461.761,466.272,469.585,473.416,478.965,483.477,489.391,494.258,503.231,506.188,510.7,515.781" svgx:width="0.56,0.55,0.55,0.61,0.55,0.44,0.58,0.5,0.4,0.5,0.44,0.33,0.48,0.4,0.29,0.42,0.33,0.29,0.44,0.42,0.55,0.29,0.58,0.44,0.29,0.6,0.61,0.29,0.58,0.56,0.55,0.58,0.29,0.56,0.58,0.55,0.42,0.5,0.33,0.48,0.33,0.56,0.25,0.55,0.58,0.29,0.56,0.58,0.55,0.44,0.55,0.58,0.61,0.6,0.44,0.33,0.29,0.56,0.29,0.33,0.56,0.25,0.55,0.29,0.55,0.83,0.55,0.44,0.55,0.42,0.33,0.25,0.55,0.48,0.52,0.44,0.48,0.29,0.29,0.48,0.58,0.33,0.55,0.48,0.29,0.48,0.44,0.33,0.4,0.55,0.44,0.58,0.48,0.88,0.29,0.44,0.5,0.29" style="fill:rgb(0,0,0);font-family:URWPalladioL-Roma;font-size:9.96px;stroke:none;">good characteristics including high safety, high conductivity, low cost, excellent electrochemical</text>
   <text y="723.082" x="76.535,80.713,83.925,88.851,94.3,97.167,100.034,102.902,106.114,110.488,112.978,115.435,120.361,126.096,132.1716,134.599,140.333,143.2,148.679,154.4558,156.896,165.596,170.316,174.691,180.425,185.352,191.086,193.953,198.328,203.255,206.14339999999999,208.615,214.576,218.468,227.168,232.902,237.622,241.8,245.9832,248.46" svgx:width="0.42,0.33,0.5,0.55,0.29,0.29,0.29,0.33,0.56,0.25,0.55,0.5,0.58,0.61,0.55,0.58,0.29,0.56,0.58,0.55,0.88,0.48,0.44,0.58,0.5,0.58,0.29,0.44,0.5,0.29,0.55,0.61,0.4,0.88,0.58,0.48,0.42,0.42,0.55,0.33" style="fill:rgb(0,0,0);font-family:URWPalladioL-Roma;font-size:9.96px;stroke:none;">stability, and high mechanical ﬁrmness [</text>
   <text y="723.082" x="251.74,256.721" svgx:width="0.5,0.5" style="fill:rgb(8,117,183);font-family:URWPalladioL-Roma;font-size:9.96px;stroke:none;">14</text>
   <text y="723.082" x="261.702" svgx:width="0.5" style="fill:rgb(0,0,0);font-family:URWPalladioL-Roma;font-size:9.96px;stroke:none;">–</text>
   <text y="723.082" x="266.629,271.61" svgx:width="0.5,0.5" style="fill:rgb(8,117,183);font-family:URWPalladioL-Roma;font-size:9.96px;stroke:none;">19</text>
   <text y="723.082" x="276.591,279.872,282.362,285.823,291.863,297.598,302.317,306.032,310.751,314.033,319.412,323.117,327.837,330.327,332.793,337.167,342.094,345.986,351.435,356.814,362.5908,365.032,373.732,378.658,381.87,386.59,390.482,393.349,398.276,401.143,405.3262,407.804,413.538,418.465,424.032,428.8128,431.234,436.683,441.402,445.777,451.157,459.857,464.6378,467.06,475.76,480.686,483.554,489.288,493.466,496.678,500.392,505.112,510.038" svgx:width="0.33,0.25,0.55,0.61,0.58,0.48,0.4,0.48,0.33,0.55,0.4,0.48,0.25,0.55,0.44,0.5,0.4,0.55,0.55,0.58,0.55,0.88,0.5,0.33,0.48,0.4,0.29,0.5,0.29,0.42,0.55,0.58,0.5,0.56,0.48,0.55,0.55,0.48,0.44,0.55,0.88,0.48,0.55,0.88,0.5,0.29,0.58,0.42,0.33,0.4,0.48,0.5,0.88" style="fill:rgb(0,0,0);font-family:URWPalladioL-Roma;font-size:9.96px;stroke:none;">]. Therefore, carbon materials have become mainstream</text>
   <text y="736.591" x="76.535,85.508,90.589,93.902,98.769,102.783,105.74,110.821,113.778,117.9612,121.207,124.59,130.139,134.12300000000002,137.283,141.794,147.343,156.316,165.289,170.156,173.987,178.499,181.456,186.537,189.4254,192.614,198.823,202.247,208.32260000000002,211.586,216.667,222.581,228.13,234.338,239.206,243.3892,246.634,250.018,255.567,259.551,262.7,271.673,276.754,282.668,288.2456,291.448,297.098,301.966,307.046,311.06,315.369,317.85900000000004,323.285,326.71,332.48679999999996,335.754,341.861,346.942,350.956,354.269,357.226,361.737,367.865,370.822,375.903,379.175,381.665,384.998,391.105,396.654,400.485,406.033,412.161,416.3442,419.599,424.111,429.192,433.206,438.825,444.374,450.1508,453.408,462.38,467.461,470.774,475.642,479.656,482.613,487.694,490.651,494.8342,498.079,506.554,509.511,512.824" svgx:width="0.88,0.5,0.33,0.48,0.4,0.29,0.5,0.29,0.42,0.55,0.33,0.55,0.4,0.55,0.44,0.55,0.88,0.88,0.48,0.4,0.44,0.29,0.5,0.29,0.55,0.61,0.34,0.61,0.55,0.5,0.58,0.55,0.61,0.48,0.42,0.55,0.33,0.55,0.4,0.55,0.88,0.5,0.58,0.56,0.55,0.56,0.48,0.5,0.4,0.42,0.25,0.55,0.34,0.58,0.55,0.6,0.5,0.4,0.33,0.29,0.44,0.6,0.29,0.5,0.4,0.25,0.55,0.6,0.55,0.4,0.55,0.6,0.42,0.55,0.44,0.5,0.4,0.55,0.55,0.58,0.55,0.88,0.5,0.33,0.48,0.4,0.29,0.5,0.29,0.42,0.55,0.83,0.29,0.33,0.58" style="fill:rgb(0,0,0);font-family:URWPalladioL-Roma;font-size:9.96px;stroke:none;">materials for commercial LIB anodes for many years. In particular, porous carbon materials with</text>
   <text y="750.1" x="76.236,82.265,85.185,89.99,95.829,99.1,104.6776,107.156,112.633,115.9198,118.452,124.291,129.096,132.367,140.734,146.212,150.174,155.7516,158.24,162.494,165.765,169.647,175.697,180.151,183.421,189.471,193.253,198.03379999999999,200.537,204.991,210.007,215.7838,218.324,224.353,228.136,233.613,239.282,242.201,248.331,253.1118,255.614,259.868,265.707,271.184,275.147,278.4338,280.896,287.025" svgx:width="0.6,0.29,0.48,0.58,0.33,0.56,0.55,0.55,0.33,0.55,0.58,0.48,0.33,0.83,0.55,0.4,0.56,0.55,0.42,0.33,0.4,0.6,0.44,0.33,0.6,0.4,0.48,0.55,0.44,0.5,0.58,0.55,0.6,0.4,0.55,0.56,0.29,0.61,0.48,0.55,0.42,0.58,0.55,0.4,0.33,0.55,0.61,0.29" style="fill:rgb(0,0,0);font-family:URWPalladioL-Roma;font-size:9.96px;stroke:none;">plenty of network structure can provide short di</text>
   <text y="750.1" x="289.95" svgx:width="0.61" style="fill:rgb(0,0,0);font-family:Rpxr;font-size:9.96px;stroke:none;">ﬀ</text>
   <text y="750.1" x="296.049,302.099,306.352,309.272,314.749,320.5258,323.066,329.096,334.112,337.382,343.221,351.588,356.604,362.182,366.3652,368.914,372.255,377.732,381.716,384.183,387.103,392.58,398.35679999999996,400.897,405.913,411.752,417.8276,420.36,425.165,428.085,432.89,437.344,440.615,444.397,449.875,455.6518,458.192,461.462,465.425,470.441,476.28,480.534,486.563,492.041,496.004,499.29080000000005,501.752,506.768,512.607" svgx:width="0.6,0.42,0.29,0.55,0.58,0.55,0.6,0.5,0.33,0.58,0.83,0.5,0.56,0.42,0.55,0.33,0.55,0.4,0.55,0.29,0.55,0.58,0.55,0.5,0.58,0.61,0.55,0.48,0.29,0.48,0.44,0.33,0.4,0.55,0.58,0.55,0.33,0.4,0.5,0.58,0.42,0.6,0.55,0.4,0.33,0.55,0.5,0.58,0.61" style="fill:rgb(0,0,0);font-family:URWPalladioL-Roma;font-size:9.96px;stroke:none;">usion pathways for ion and electron transport and</text>
   <text y="763.61" x="76.535,79.478,84.534,88.346,93.968,98.7488,101.31,106.366,110.855,114.152,117.094,122.808,127.5888,130.149,133.971,138.815,144.437,147.37,152.891,158.776,162.9592,165.561,168.929,174.45,178.434,180.942,185.786,188.728,193.572,198.062,201.358,205.18,210.702,215.191,221.077,225.92,234.849,237.792,242.282,247.338,250.22639999999998,252.778,256.59,261.434,266.49,270.979,274.276,277.219,282.74,288.625,292.8082,295.41" svgx:width="0.29,0.5,0.4,0.56,0.48,0.55,0.5,0.44,0.33,0.29,0.56,0.48,0.55,0.4,0.48,0.56,0.29,0.55,0.58,0.42,0.55,0.33,0.55,0.4,0.55,0.48,0.29,0.48,0.44,0.33,0.4,0.55,0.44,0.58,0.48,0.88,0.29,0.44,0.5,0.29,0.55,0.4,0.48,0.5,0.44,0.33,0.29,0.55,0.58,0.42,0.55,0.33" style="fill:rgb(0,0,0);font-family:URWPalladioL-Roma;font-size:9.96px;stroke:none;">large active regions for electrochemical reactions [</text>
   <text y="763.61" x="298.777,303.758" svgx:width="0.5,0.5" style="fill:rgb(8,117,183);font-family:URWPalladioL-Roma;font-size:9.96px;stroke:none;">20</text>
   <text y="763.61" x="308.739" svgx:width="0.5" style="fill:rgb(0,0,0);font-family:URWPalladioL-Roma;font-size:9.96px;stroke:none;">–</text>
   <text y="763.61" x="313.795,318.776" svgx:width="0.5,0.5" style="fill:rgb(8,117,183);font-family:URWPalladioL-Roma;font-size:9.96px;stroke:none;">23</text>
   <text y="763.61" x="323.758,327.125,329.615,333.162,336.57,342.3468,344.953,348.249,354.135,357.077,361.2602,363.862,368.15,371.092,374.389,380.487,385.543,388.839,391.782,397.303,403.188,405.678,408.214,411.51,417.396,422.1768,424.737,430.814,434.626,439.47,445.547,450.603,454.598,459.654,462.95,465.893,471.414,477.19079999999997,479.797,488.726,493.57,496.866,502.751,508.272,514.451" svgx:width="0.33,0.25,0.55,0.34,0.58,0.55,0.33,0.58,0.29,0.42,0.55,0.42,0.29,0.33,0.6,0.5,0.33,0.29,0.55,0.58,0.25,0.55,0.33,0.58,0.48,0.55,0.6,0.4,0.48,0.6,0.5,0.4,0.5,0.33,0.29,0.55,0.58,0.55,0.88,0.48,0.33,0.58,0.55,0.61,0.42" style="fill:rgb(0,0,0);font-family:URWPalladioL-Roma;font-size:9.96px;stroke:none;">]. In this situation, the preparation methods</text>
   <text y="799.37" x="76.535,82.736,86.274,90.706,94.245,100.445,103.984,106.638,109.738,112.839,115.055,118.593,120.809" svgx:width="0.78,0.44,0.56,0.44,0.78,0.44,0.33,0.39,0.39,0.28,0.44,0.28,0.39" style="fill:rgb(0,0,0);font-family:URWPalladioL-Ital;font-size:7.97px;stroke:none;">Nanomaterials</text>
   <text y="799.37" x="125.901,129.886,133.871,137.856" svgx:width="0.5,0.5,0.5,0.5" style="fill:rgb(0,0,0);font-family:URWPalladioL-Bold;font-size:7.97px;stroke:none;">2020</text>
   <text y="799.37" x="141.842" svgx:width="0.25" style="fill:rgb(0,0,0);font-family:URWPalladioL-Roma;font-size:7.97px;stroke:none;">,</text>
   <text y="799.37" x="145.827,149.812" svgx:width="0.5,0.5" style="fill:rgb(0,0,0);font-family:URWPalladioL-Ital;font-size:7.97px;stroke:none;">10</text>
   <text y="799.37" x="153.797,155.7895,157.782,161.767,165.752,169.737,171.7295,173.722,178.592,182.944,185.263,187.255,191.241,195.226,197.218,201.203,205.188,209.173" svgx:width="0.25,0.55,0.5,0.5,0.5,0.25,0.55,0.61,0.55,0.29,0.25,0.5,0.5,0.25,0.5,0.5,0.5,0.5" style="fill:rgb(0,0,0);font-family:URWPalladioL-Roma;font-size:7.97px;stroke:none;">, 346; doi:10.3390</text>
   <text y="799.37" x="213.158" svgx:width="0.29" style="fill:rgb(0,0,0);font-family:Rpxr;font-size:7.97px;stroke:none;">/</text>
   <text y="799.37" x="215.445,220.084,224.069,228.707,233.059,237.044,241.029,245.014,248.999,252.984,256.969,260.954,264.939,381.709,388.356,395.003,400.917,402.91,409.947,414.817,419.607,421.926,423.919,427.458,431.809" svgx:width="0.58,0.5,0.58,0.55,0.5,0.5,0.5,0.5,0.5,0.5,0.5,0.5,0.55,0.83,0.83,0.83,0.25,0.88,0.61,0.6,0.29,0.25,0.44,0.55,0.88" style="fill:rgb(0,0,0);font-family:URWPalladioL-Roma;font-size:7.97px;stroke:none;">nano10020346 www.mdpi.com</text>
   <text y="799.37" x="438.849" svgx:width="0.29" style="fill:rgb(0,0,0);font-family:Rpxr;font-size:7.97px;stroke:none;">/</text>
   <text y="799.37" x="441.136,443.001,447.353,452.159,455.307,459.945,463.93" svgx:width="0.23,0.55,0.6,0.4,0.58,0.5,0.29" style="fill:rgb(0,0,0);font-family:URWPalladioL-Roma;font-size:7.97px;stroke:none;">journal</text>
   <text y="799.37" x="466.25" svgx:width="0.29" style="fill:rgb(0,0,0);font-family:Rpxr;font-size:7.97px;stroke:none;">/</text>
   <text y="799.37" x="468.537,473.176,477.161,481.799,486.151,493.189,497.174,499.772,503.59,506.738,509.057,513.042,515.361" svgx:width="0.58,0.5,0.58,0.55,0.88,0.5,0.33,0.48,0.4,0.29,0.5,0.29,0.42" style="fill:rgb(0,0,0);font-family:URWPalladioL-Roma;font-size:7.97px;stroke:none;">nanomaterials</text>
  </g>
 </g>
</svg>
