<?xml version="1.0" encoding="UTF-8"?>
<svg height="779.252" width="530.3304999999999" xmlns="http://www.w3.org/2000/svg">
 <g id="page" xmlns:svgx="http://www.xml-cml.org/schema/svgx">
  <g begin="text">
   <text y="62.979" x="76.535,82.736,86.274,90.706,94.245,100.445,103.984,106.638,109.738,112.839,115.055,118.593,120.809" svgx:width="0.78,0.44,0.56,0.44,0.78,0.44,0.33,0.39,0.39,0.28,0.44,0.28,0.39" style="fill:rgb(0,0,0);font-family:URWPalladioL-Ital;font-size:7.97px;stroke:none;">Nanomaterials</text>
   <text y="62.979" x="125.901,129.886,133.871,137.856" svgx:width="0.5,0.5,0.5,0.5" style="fill:rgb(0,0,0);font-family:URWPalladioL-Bold;font-size:7.97px;stroke:none;">2020</text>
   <text y="62.979" x="141.842" svgx:width="0.25" style="fill:rgb(0,0,0);font-family:URWPalladioL-Roma;font-size:7.97px;stroke:none;">,</text>
   <text y="62.979" x="145.827,149.812" svgx:width="0.5,0.5" style="fill:rgb(0,0,0);font-family:URWPalladioL-Ital;font-size:7.97px;stroke:none;">10</text>
   <text y="62.979" x="153.797,155.7895,157.782,161.767,165.752,169.73700000000002,495.794,499.779,501.772,506.123,508.7531,510.77,514.755" svgx:width="0.25,0.55,0.5,0.5,0.5,0.55,0.5,0.55,0.55,0.33,0.55,0.5,0.5" style="fill:rgb(0,0,0);font-family:URWPalladioL-Roma;font-size:7.97px;stroke:none;">, 346 9 of 11</text>
   <text y="97.848" x="76.535,81.018,85.501,87.74350000000001,98.05,103.656,108.979,111.641,115.18,120.695,125.78,131.295,139.37,143.943,147.556,152.129,157.452,159.6945,163.387,167.75,170.036,172.2785,176.676,182.264,186.837,189.498,194.071,197.949,203.464,208.521,212.134,216.707,224.782,229.355,234.678,237.339,241.912,247.235,249.47750000000002,253.171,259.28,261.566,263.8085,268.197,275.313,278.294,282.355,287.678,293.192,298.78,303.353,308.676,310.9185,314.612,320.721,323.008,325.2505,329.647,335.171,339.744,343.357,348.524,352.905,357.286,362.608,364.8505,368.544,375.659,377.946,382.747,385.034,387.2765,391.664,397.253,401.633,406.014,408.2565,411.95,417.053,419.339,425.449,427.735,429.9775,434.375,441.015,443.676,451.752,453.9945,457.688,462.489,464.775,471.26,473.5025,477.186,485.838,490.219,493.2,497.773,500.435,503.48,506.526,509.983,514.364" svgx:width="0.5,0.5,0.25,0.55,0.61,0.58,0.29,0.4,0.6,0.56,0.6,0.88,0.5,0.4,0.5,0.58,0.25,0.55,0.6,0.25,0.25,0.55,0.61,0.5,0.29,0.5,0.42,0.6,0.55,0.4,0.5,0.88,0.5,0.58,0.29,0.5,0.58,0.25,0.55,0.67,0.25,0.25,0.55,0.78,0.33,0.44,0.58,0.6,0.61,0.5,0.58,0.25,0.55,0.67,0.25,0.25,0.55,0.6,0.5,0.4,0.56,0.48,0.48,0.58,0.25,0.55,0.78,0.25,0.52,0.25,0.25,0.55,0.61,0.48,0.48,0.25,0.55,0.67,0.25,0.67,0.25,0.25,0.55,0.73,0.29,0.88,0.25,0.55,0.52,0.25,0.71,0.25,0.55,0.95,0.48,0.33,0.5,0.29,0.33,0.33,0.4,0.48,0.48" style="fill:rgb(0,0,0);font-family:URWPalladioL-Roma;font-size:8.97px;stroke:none;">19. Thirukumaran, P.; Balasubramanian, R.; Atchudan, R.; Parveen, A.S.; Lee, Y.R.; Kim, S.C. Metal-free</text>
   <text y="110.76" x="98.05,103.185,105.752,108.629,111.955,116.772,121.678,125.904,131.039,133.977,137.462,140.03,143.947,149.1496,151.323,156.228,158.796,163.207,166.948,170.689,175.7122,177.845,181.762,186.173,189.659,194.538,199.355,204.55759999999998,206.74,211.151,214.91840000000002,217.142,221.553,226.7556,228.929,233.156,235.723,239.949,243.867,246.743,250.069,254.887,258.804,263.215,266.092,270.503,273.071,277.976,281.717,284.6771,286.843,289.781,294.599,298.187,300.325,305.46,310.365,315.756,319.082,323.9,328.805,333.031,338.2336,340.416,344.642,349.627,354.445,357.012,362.332,365.208,367.776,372.593,377.79560000000004,379.978,383.296,387.522,391.933,395.851,398.727,401.294,406.112,411.247" svgx:width="0.58,0.29,0.33,0.4,0.55,0.56,0.48,0.58,0.33,0.4,0.29,0.44,0.58,0.55,0.56,0.29,0.5,0.42,0.42,0.56,0.55,0.44,0.5,0.4,0.55,0.55,0.58,0.55,0.5,0.42,0.55,0.5,0.58,0.55,0.48,0.29,0.48,0.44,0.33,0.4,0.55,0.44,0.5,0.33,0.5,0.29,0.56,0.42,0.33,0.55,0.33,0.55,0.4,0.55,0.58,0.56,0.61,0.4,0.55,0.56,0.48,0.58,0.55,0.48,0.56,0.55,0.29,0.6,0.33,0.29,0.55,0.58,0.55,0.4,0.48,0.5,0.44,0.33,0.29,0.55,0.58,0.25" style="fill:rgb(0,0,0);font-family:URWPalladioL-Roma;font-size:8.97px;stroke:none;">nitrogen-rich glassy carbon as an electrocatalyst for hydrogen evolution reaction.</text>
   <text y="110.76" x="416.611,424.94,428.857,431.795,435.227,437.998,440.2405,443.362,449.247,452.679,456.103,458.3455,461.467,466.858,471.763,474.216,476.669" svgx:width="0.94,0.44,0.33,0.39,0.39,0.25,0.55,0.67,0.39,0.39,0.25,0.55,0.61,0.56,0.28,0.28,0.25" style="fill:rgb(0,0,0);font-family:URWPalladioL-Ital;font-size:8.97px;stroke:none;">Mater. Res. Bull.</text>
   <text y="110.76" x="482.033,486.516,490.999,495.483" svgx:width="0.5,0.5,0.5,0.5" style="fill:rgb(0,0,0);font-family:URWPalladioL-Bold;font-size:8.97px;stroke:none;">2020</text>
   <text y="110.76" x="499.966" svgx:width="0.25" style="fill:rgb(0,0,0);font-family:URWPalladioL-Roma;font-size:8.97px;stroke:none;">,</text>
   <text y="110.76" x="504.421,508.832,513.244" svgx:width="0.5,0.5,0.5" style="fill:rgb(0,0,0);font-family:URWPalladioL-Ital;font-size:8.97px;stroke:none;">124</text>
   <text y="110.76" x="517.655" svgx:width="0.25" style="fill:rgb(0,0,0);font-family:URWPalladioL-Roma;font-size:8.97px;stroke:none;">,</text>
   <text y="123.672" x="97.602,102.085,106.568,111.052,115.535,120.018,124.501,126.74350000000001,129.881" svgx:width="0.5,0.5,0.5,0.5,0.5,0.5,0.25,0.55,0.33" style="fill:rgb(0,0,0);font-family:URWPalladioL-Roma;font-size:8.97px;stroke:none;">110734. [</text>
   <text y="123.672" x="132.867,139.224,142.604,147.5,151.302,155.104,161.093,165.388" svgx:width="0.71,0.4,0.55,0.42,0.42,0.67,0.48,0.33" style="fill:rgb(8,117,183);font-family:URWPalladioL-Roma;font-size:8.97px;stroke:none;">CrossRef</text>
   <text y="123.672" x="168.374" svgx:width="0.33" style="fill:rgb(0,0,0);font-family:URWPalladioL-Roma;font-size:8.97px;stroke:none;">]</text>
   <text y="136.583" x="76.535,81.018,85.501,87.74350000000001,98.05,100.988,103.556,108.69,110.9325,113.146,119.04,121.246,123.4885,125.701,131.957,137.277,139.844,142.0865,144.3,149.188,151.393,153.6355,155.849,163.851,168.263,173.398,178.303,180.5455,182.759,189.694,191.9,194.1425,196.355,201.746,204.313,206.5555,208.769,215.501,217.7435,219.948,224.853,229.265,233.182,235.75,238.317,242.6226,244.793,247.731,252.143,257.022,260.507,263.074,266.992,271.403,274.279,276.847,281.664,286.8666,289.049,293.866,296.8261,299.054,305.31,312.641,317.238,320.979,327.57,333.825,340.416,348.763,353.58,358.212" svgx:width="0.5,0.5,0.25,0.55,0.33,0.29,0.58,0.25,0.55,0.67,0.25,0.25,0.55,0.71,0.6,0.29,0.25,0.55,0.67,0.25,0.25,0.55,1.0,0.5,0.58,0.56,0.25,0.55,0.79,0.25,0.25,0.55,0.61,0.29,0.25,0.55,0.76,0.25,0.55,0.56,0.5,0.44,0.29,0.29,0.48,0.55,0.33,0.5,0.55,0.4,0.29,0.44,0.5,0.33,0.29,0.55,0.58,0.55,0.55,0.33,0.55,0.71,0.83,0.61,0.42,0.75,0.71,0.75,0.95,0.55,0.52,0.48" style="fill:rgb(0,0,0);font-family:URWPalladioL-Roma;font-size:8.97px;stroke:none;">20. Jin, R.; Cui, Y.; Wang, Q.; Li, G. Facile fabrication of CNTs@C@MoSe</text>
   <text y="138.375" x="362.439" svgx:width="0.5" style="fill:rgb(0,0,0);font-family:URWPalladioL-Roma;font-size:6.97px;stroke:none;">2</text>
   <text y="136.583" x="366.424,373.015,377.647,381.9526,384.123,389.258,394.163,399.042,402.527,405.095,410.486,414.2534,416.477,423.835,426.402,429.279,434.4816,436.655,441.066,448.857,453.674,457.159,462.462,467.597,472.414,477.734,481.5014,483.725,487.466,490.342,493.757,499.077,502.994,505.871,511.191,514.517" svgx:width="0.75,0.52,0.48,0.55,0.58,0.56,0.55,0.4,0.29,0.61,0.42,0.55,0.83,0.29,0.33,0.58,0.55,0.5,0.88,0.55,0.4,0.6,0.58,0.55,0.6,0.42,0.55,0.42,0.33,0.4,0.6,0.44,0.33,0.6,0.4,0.48" style="fill:rgb(0,0,0);font-family:URWPalladioL-Roma;font-size:8.97px;stroke:none;">@Se hybrids with amorphous structure</text>
   <text y="149.495" x="98.05,101.036,105.931,109.51899999999999,111.715,116.933,119.542,124.528,129.7306,131.988,137.377,141.672,145.213,148.199,153.095,156.636,164.554,169.037,174.255,178.237,182.5426,184.773,189.256,194.475,199.37,204.849,209.1546,211.385,213.995,219.1976,221.455,224.064,226.673,229.596,234.815,237.424,242.83,250.748,253.734,256.343,261.238,266.4406,268.699,273.657,278.14,281.063,283.986,288.281,291.823,294.432,298.727,302.529" svgx:width="0.33,0.55,0.4,0.55,0.58,0.29,0.56,0.58,0.55,0.6,0.48,0.4,0.33,0.55,0.4,0.88,0.5,0.58,0.44,0.48,0.55,0.5,0.58,0.55,0.61,0.48,0.55,0.29,0.58,0.55,0.29,0.29,0.33,0.58,0.29,0.6,0.88,0.33,0.29,0.55,0.58,0.55,0.55,0.5,0.33,0.33,0.48,0.4,0.29,0.48,0.42,0.25" style="fill:rgb(0,0,0);font-family:URWPalladioL-Roma;font-size:8.97px;stroke:none;">for high performance anode in lithium-ion batteries.</text>
   <text y="149.495" x="307.906,310.892,313.1345,315.375,321.356,325.337,327.829,330.322,334.303,336.796,341.281,343.521,346.506,351.492,354.477,357.965,361.453,363.946,367.927,371.576,375.0743,377.306,382.291,385.941,388.433" svgx:width="0.33,0.25,0.55,0.67,0.44,0.28,0.28,0.44,0.28,0.5,0.55,0.33,0.56,0.33,0.39,0.39,0.28,0.44,0.41,0.39,0.55,0.56,0.41,0.28,0.25" style="fill:rgb(0,0,0);font-family:URWPalladioL-Ital;font-size:8.97px;stroke:none;">J. Colloid Interface Sci.</text>
   <text y="149.495" x="393.811,398.294,402.777,407.261" svgx:width="0.5,0.5,0.5,0.5" style="fill:rgb(0,0,0);font-family:URWPalladioL-Bold;font-size:8.97px;stroke:none;">2017</text>
   <text y="149.495" x="411.744" svgx:width="0.25" style="fill:rgb(0,0,0);font-family:URWPalladioL-Roma;font-size:8.97px;stroke:none;">,</text>
   <text y="149.495" x="416.227,420.71,425.193" svgx:width="0.5,0.5,0.5" style="fill:rgb(0,0,0);font-family:URWPalladioL-Ital;font-size:8.97px;stroke:none;">508</text>
   <text y="149.495" x="429.677,431.9195,434.16,438.643,443.127,447.61,452.093,456.576,461.06,465.543,467.7855,470.923" svgx:width="0.25,0.55,0.5,0.5,0.5,0.5,0.5,0.5,0.5,0.25,0.55,0.33" style="fill:rgb(0,0,0);font-family:URWPalladioL-Roma;font-size:8.97px;stroke:none;">, 435–442. [</text>
   <text y="149.495" x="473.908,480.266,483.646,488.542,492.343,496.145,502.135,506.43" svgx:width="0.71,0.4,0.55,0.42,0.42,0.67,0.48,0.33" style="fill:rgb(8,117,183);font-family:URWPalladioL-Roma;font-size:8.97px;stroke:none;">CrossRef</text>
   <text y="149.495" x="509.415" svgx:width="0.33" style="fill:rgb(0,0,0);font-family:URWPalladioL-Roma;font-size:8.97px;stroke:none;">]</text>
   <text y="162.406" x="76.535,81.018,85.501,87.74350000000001,98.05,104.69,109.263,114.585,119.671,121.91350000000001,125.185,128.231,130.517,132.7595,136.535,141.337,146.852,149.0945,152.367,159.555,161.841,164.08350000000002,167.859,172.944,177.325,182.648,187.733,189.9755,193.248,200.857,203.144,205.3865,209.161,216.771,222.286,226.858,232.181,237.266,239.5085,242.781,247.153,249.439,251.6815,255.457,262.536,268.051,270.2935,273.566,280.544,282.83,285.0725,288.848,294.948,300.463,302.70550000000003,305.978,311.566,313.8085,317.081,325.733,330.727,335.528" svgx:width="0.5,0.5,0.25,0.55,0.73,0.5,0.58,0.56,0.25,0.55,0.33,0.25,0.25,0.55,0.52,0.6,0.25,0.55,0.79,0.25,0.25,0.55,0.56,0.48,0.58,0.56,0.25,0.55,0.83,0.25,0.25,0.55,0.83,0.6,0.5,0.58,0.56,0.25,0.55,0.6,0.25,0.25,0.55,0.77,0.6,0.25,0.55,0.76,0.25,0.25,0.55,0.67,0.6,0.25,0.55,0.61,0.25,0.55,0.95,0.55,0.52,0.48" style="fill:rgb(0,0,0);font-family:URWPalladioL-Roma;font-size:8.97px;stroke:none;">21. Kang, J.; Su, Q.; Feng, H.; Huang, P.; Du, G.; Xu, B. MoSe</text>
   <text y="164.198" x="339.912" svgx:width="0.5" style="fill:rgb(0,0,0);font-family:URWPalladioL-Roma;font-size:6.97px;stroke:none;">2</text>
   <text y="162.406" x="347.13,352.453,357.026,362.349,367.342,371.22,376.543,380.923,385.304,388.286,392.164,395.209,402.837,406.449,411.022,416.519,422.015,426.396,431.8677,435.212,440.773,445.154,449.873,452.535,457.592,460.254,464.55960000000005,467.872,471.933,476.505,480.118,485.176,490.169,495.3716,498.72,502.781,505.443,510.436,513.418" svgx:width="0.58,0.5,0.58,0.55,0.42,0.58,0.48,0.48,0.33,0.42,0.33,0.83,0.4,0.5,0.6,0.6,0.48,0.61,0.55,0.61,0.48,0.52,0.29,0.55,0.29,0.48,0.55,0.44,0.5,0.4,0.55,0.55,0.58,0.55,0.44,0.29,0.55,0.33,0.58" style="fill:rgb(0,0,0);font-family:URWPalladioL-Roma;font-size:8.97px;stroke:none;">nanosheets-wrapped ﬂexible carbon cloth</text>
   <text y="175.318" x="98.05,102.623,106.3904,109.217,114.275,116.936,122.259,127.847,132.228,135.685,138.73,141.776,145.224,149.604,153.9096,156.702,161.274,166.597,171.591,177.179,181.56,185.3274,188.154,191.199,196.193,199.781,202.531,207.854,210.515,215.591,220.914,223.959,227.572,232.145,235.126,239.4316,242.232,244.894,247.555,250.537,255.86,258.521,264.036,271.9296,274.828,279.401,284.723,290.1947,293.028,296.906,301.899,307.487,310.149,315.663,323.5566,326.455,329.117,334.11,339.31260000000003,342.149,346.027,349.009,354.002,357.615,362.188,367.273,371.654,375.531" svgx:width="0.5,0.42,0.55,0.55,0.29,0.58,0.61,0.48,0.4,0.33,0.33,0.4,0.48,0.48,0.55,0.5,0.58,0.55,0.61,0.48,0.42,0.55,0.33,0.55,0.4,0.55,0.58,0.29,0.56,0.58,0.33,0.4,0.5,0.33,0.48,0.55,0.29,0.29,0.33,0.58,0.29,0.6,0.88,0.55,0.5,0.58,0.61,0.55,0.42,0.55,0.61,0.29,0.6,0.88,0.55,0.29,0.55,0.58,0.55,0.42,0.33,0.55,0.4,0.5,0.56,0.48,0.42,0.25" style="fill:rgb(0,0,0);font-family:URWPalladioL-Roma;font-size:8.97px;stroke:none;">as binder-free anodes for high-rate lithium and sodium ion storages.</text>
   <text y="175.318" x="382.39,387.978,390.521,394.078,397.801,400.846,404.239,408.3,412.022,416.595,419.138,426.253,428.4955,433.112,439.715,443.438,446.483" svgx:width="0.61,0.28,0.39,0.41,0.33,0.39,0.44,0.41,0.5,0.28,0.78,0.25,0.55,0.72,0.41,0.33,0.44" style="fill:rgb(0,0,0);font-family:URWPalladioL-Ital;font-size:8.97px;stroke:none;">Electrochim. Acta</text>
   <text y="175.318" x="453.26,457.743,462.226,466.71" svgx:width="0.5,0.5,0.5,0.5" style="fill:rgb(0,0,0);font-family:URWPalladioL-Bold;font-size:8.97px;stroke:none;">2019</text>
   <text y="175.318" x="471.192" svgx:width="0.25" style="fill:rgb(0,0,0);font-family:URWPalladioL-Roma;font-size:8.97px;stroke:none;">,</text>
   <text y="175.318" x="476.316,480.889,485.462" svgx:width="0.5,0.5,0.5" style="fill:rgb(0,0,0);font-family:URWPalladioL-Ital;font-size:8.97px;stroke:none;">301</text>
   <text y="175.318" x="490.035,492.27750000000003,495.157,499.729,504.302,508.875,513.448,518.021" svgx:width="0.25,0.55,0.5,0.5,0.5,0.5,0.5,0.25" style="fill:rgb(0,0,0);font-family:URWPalladioL-Roma;font-size:8.97px;stroke:none;">, 29–38.</text>
   <text y="188.23" x="98.05" svgx:width="0.33" style="fill:rgb(0,0,0);font-family:URWPalladioL-Roma;font-size:8.97px;stroke:none;">[</text>
   <text y="188.23" x="101.036,107.393,110.773,115.669,119.471,123.272,129.262,133.557" svgx:width="0.71,0.4,0.55,0.42,0.42,0.67,0.48,0.33" style="fill:rgb(8,117,183);font-family:URWPalladioL-Roma;font-size:8.97px;stroke:none;">CrossRef</text>
   <text y="188.23" x="136.543" svgx:width="0.33" style="fill:rgb(0,0,0);font-family:URWPalladioL-Roma;font-size:8.97px;stroke:none;">]</text>
   <text y="201.141" x="76.535,81.018,85.501,87.74350000000001,98.05,103.534,107.833,112.132,114.37450000000001,116.62,119.609,121.853,124.0955,126.331,132.848,135.459,143.385,145.6275,147.872,150.861,153.105,155.3475,157.584,165.051,170.041,174.341,179.241,184.465,186.7075,188.952,193.79,196.0325,198.278,204.273,208.573,212.558,216.857,222.081,225.0411,227.241,232.636,236.019,240.92,245.91,249.294,253.593,257.399,261.1664,263.448,266.06,271.2626,273.518,276.444,281.668,285.97360000000003,288.211,292.016,297.007,302.23,305.156,310.38,314.679,318.485,321.097,324.8644,327.137,332.038,334.9981,337.27,342.664,347.565,350.949,355.849,361.261,365.02840000000003,367.311,371.296,375.783,379.329,384.292,389.193,394.3956,396.651,404.576,409.064,411.99,416.289,419.835,422.446,426.934,429.546,433.351" svgx:width="0.5,0.5,0.25,0.55,0.61,0.48,0.48,0.25,0.55,0.33,0.25,0.25,0.55,0.73,0.29,0.88,0.25,0.55,0.33,0.25,0.25,0.55,0.83,0.56,0.48,0.55,0.58,0.25,0.55,0.61,0.25,0.55,0.67,0.48,0.44,0.48,0.58,0.33,0.55,0.6,0.4,0.55,0.56,0.4,0.48,0.42,0.42,0.55,0.29,0.58,0.55,0.33,0.58,0.48,0.55,0.42,0.56,0.58,0.33,0.58,0.48,0.42,0.29,0.42,0.55,0.55,0.33,0.55,0.6,0.55,0.4,0.55,0.6,0.42,0.55,0.44,0.5,0.4,0.55,0.55,0.58,0.55,0.88,0.5,0.33,0.48,0.4,0.29,0.5,0.29,0.42,0.25" style="fill:rgb(0,0,0);font-family:URWPalladioL-Roma;font-size:8.97px;stroke:none;">22. Lee, J.; Kim, J.; Hyeon, T. Recent progress in the synthesis of porous carbon materials.</text>
   <text y="201.141" x="438.734,445.214,449.702,453.696,455.93850000000003,459.081,467.554,471.539,474.528,478.019,480.846" svgx:width="0.72,0.5,0.5,0.25,0.55,0.94,0.44,0.33,0.39,0.39,0.25" style="fill:rgb(0,0,0);font-family:URWPalladioL-Ital;font-size:8.97px;stroke:none;">Adv. Mater.</text>
   <text y="201.141" x="486.225,490.708,495.191,499.675" svgx:width="0.5,0.5,0.5,0.5" style="fill:rgb(0,0,0);font-family:URWPalladioL-Bold;font-size:8.97px;stroke:none;">2006</text>
   <text y="201.141" x="504.158" svgx:width="0.25" style="fill:rgb(0,0,0);font-family:URWPalladioL-Roma;font-size:8.97px;stroke:none;">,</text>
   <text y="201.141" x="508.642,513.13" svgx:width="0.5,0.5" style="fill:rgb(0,0,0);font-family:URWPalladioL-Ital;font-size:8.97px;stroke:none;">18</text>
   <text y="201.141" x="517.617" svgx:width="0.25" style="fill:rgb(0,0,0);font-family:URWPalladioL-Roma;font-size:8.97px;stroke:none;">,</text>
   <text y="214.053" x="98.05,102.533,107.016,111.5,115.983,120.466,124.949,129.432,133.916,138.399,140.6415,143.779" svgx:width="0.5,0.5,0.5,0.5,0.5,0.5,0.5,0.5,0.5,0.25,0.55,0.33" style="fill:rgb(0,0,0);font-family:URWPalladioL-Roma;font-size:8.97px;stroke:none;">2073–2094. [</text>
   <text y="214.053" x="146.764,153.122,156.502,161.398,165.199,169.001,174.991,179.286" svgx:width="0.71,0.4,0.55,0.42,0.42,0.67,0.48,0.33" style="fill:rgb(8,117,183);font-family:URWPalladioL-Roma;font-size:8.97px;stroke:none;">CrossRef</text>
   <text y="214.053" x="182.271" svgx:width="0.33" style="fill:rgb(0,0,0);font-family:URWPalladioL-Roma;font-size:8.97px;stroke:none;">]</text>
   <text y="226.964" x="76.535,81.018,85.501,87.74350000000001,98.05,106.077,110.502,115.652,120.573,122.8155,125.015,132.379,134.591,142.618,144.83,147.07250000000002,149.282,154.689,157.264,159.50650000000002,161.707,169.07,171.282,173.52450000000002,175.734,181.637,186.787,192.124,194.3665,196.575,202.85,205.062,210.974,213.186,215.4285,217.629,225.656,230.081,235.231,240.152,242.3945,244.603,250.497,252.71,256.807,259.02,261.2625,263.471,268.392,272.817,277.967,280.2095,282.41,289.773,291.985,294.932,297.1745,299.384,304.304,309.641,314.792,318.721,321.606,324.181,329.013,334.164,338.589,341.164,343.739,348.164,352.403,357.8747,360.041,365.191,367.767,372.687,377.838,380.413,385.4362,387.573,392.891,397.723,401.051,405.883,411.219,414.9864,417.211,422.131,425.627,430.052,435.371,440.521,443.097,445.982,448.557,452.5038,454.716,458.646,463.071,466.566,471.46,476.292,481.4946,483.673,489.027,493.921,498.16,501.656,505.4234,507.647,510.594,515.426" svgx:width="0.5,0.5,0.25,0.55,1.0,0.5,0.58,0.56,0.25,0.55,0.83,0.25,1.0,0.25,0.25,0.55,0.67,0.29,0.25,0.55,0.83,0.25,0.25,0.55,0.67,0.58,0.6,0.25,0.55,0.71,0.25,0.67,0.25,0.25,0.55,1.0,0.5,0.58,0.56,0.25,0.55,0.67,0.25,0.56,0.25,0.25,0.55,0.56,0.5,0.58,0.25,0.55,0.83,0.25,0.33,0.25,0.55,0.56,0.6,0.58,0.44,0.33,0.29,0.55,0.58,0.5,0.29,0.29,0.5,0.48,0.61,0.55,0.58,0.29,0.56,0.58,0.29,0.56,0.55,0.6,0.55,0.4,0.55,0.6,0.42,0.55,0.56,0.4,0.5,0.6,0.58,0.29,0.33,0.29,0.44,0.55,0.44,0.5,0.4,0.55,0.55,0.58,0.55,0.61,0.55,0.48,0.4,0.42,0.55,0.33,0.55,0.4" style="fill:rgb(0,0,0);font-family:URWPalladioL-Roma;font-size:8.97px;stroke:none;">23. Wang, H.W.; Yi, H.; Zhu, C.R.; Wang, X.F.; Fan, H.J. Functionalized highly porous graphitic carbon ﬁbers for</text>
   <text y="239.876" x="98.05,103.268,105.878,110.863,116.081,119.067,122.609,127.092,130.015,134.32059999999998,136.552,140.353,145.76,151.149,155.444,158.824,162.805,167.289,172.677,177.161,181.142,183.751,186.674,189.283,194.349,198.6546,200.886,205.181,207.79,212.085,216.066,218.989,222.369,227.265,232.743,237.038,240.84" svgx:width="0.58,0.29,0.56,0.58,0.33,0.4,0.5,0.33,0.48,0.55,0.42,0.6,0.6,0.48,0.4,0.44,0.5,0.6,0.5,0.44,0.29,0.33,0.29,0.56,0.48,0.55,0.48,0.29,0.48,0.44,0.33,0.4,0.55,0.61,0.48,0.42,0.25" style="fill:rgb(0,0,0);font-family:URWPalladioL-Roma;font-size:8.97px;stroke:none;">high-rate supercapacitive electrodes.</text>
   <text y="239.876" x="246.218,253.194,257.175,262.16,266.1068,268.383,273.861,278.847,282.335,285.661,290.144" svgx:width="0.78,0.44,0.56,0.44,0.55,0.61,0.56,0.39,0.39,0.5,0.5" style="fill:rgb(0,0,0);font-family:URWPalladioL-Ital;font-size:8.97px;stroke:none;">Nano Energy</text>
   <text y="239.876" x="296.868,301.351,305.834,310.318" svgx:width="0.5,0.5,0.5,0.5" style="fill:rgb(0,0,0);font-family:URWPalladioL-Bold;font-size:8.97px;stroke:none;">2015</text>
   <text y="239.876" x="314.801" svgx:width="0.25" style="fill:rgb(0,0,0);font-family:URWPalladioL-Roma;font-size:8.97px;stroke:none;">,</text>
   <text y="239.876" x="319.284,323.767" svgx:width="0.5,0.5" style="fill:rgb(0,0,0);font-family:URWPalladioL-Ital;font-size:8.97px;stroke:none;">13</text>
   <text y="239.876" x="328.251,330.4935,332.734,337.217,341.701,346.184,350.667,355.15,359.634,364.117,366.3595,369.497" svgx:width="0.25,0.55,0.5,0.5,0.5,0.5,0.5,0.5,0.5,0.25,0.55,0.33" style="fill:rgb(0,0,0);font-family:URWPalladioL-Roma;font-size:8.97px;stroke:none;">, 658–669. [</text>
   <text y="239.876" x="372.482,378.84,382.22,387.116,390.917,394.719,400.709,405.004" svgx:width="0.71,0.4,0.55,0.42,0.42,0.67,0.48,0.33" style="fill:rgb(8,117,183);font-family:URWPalladioL-Roma;font-size:8.97px;stroke:none;">CrossRef</text>
   <text y="239.876" x="407.989" svgx:width="0.33" style="fill:rgb(0,0,0);font-family:URWPalladioL-Roma;font-size:8.97px;stroke:none;">]</text>
   <text y="252.788" x="76.535,81.018,85.501,87.74350000000001,98.05,104.886,107.751,111.652,116.766,122.065,127.434,131.828,136.942,139.1845,141.309,147.179,149.375,151.6175,153.769,159.076,163.285,166.686,171.984,179.743,184.137,186.694,188.9365,191.061,195.674,197.871,200.11350000000002,202.265,207.651,212.765,215.322,218.714,224.013,228.898,234.197,241.956,246.349,249.82,254.214,259.328,261.5705,263.704,267.851,270.048,272.2905,274.442,280.294,282.851,287.965,292.763,298.132,303.246,305.4885,307.613,313.483,315.679,317.9215,320.073,325.442,329.651,333.86,336.1025,338.227,343.086,345.283,351.153,353.3955,355.529,362.225,365.537,369.746,373.955,379.1576,381.24,384.966,389.851,394.965,397.83,402.944,407.153,410.879,413.436,417.2034,419.332,424.13,427.0901,429.226,434.34,436.897,439.762,443.074,447.872,452.758,456.967,462.081,465.007,470.376,475.174,480.455,484.664,490.1357,492.203,496.104,500.498,503.969,508.828,513.626" svgx:width="0.5,0.5,0.25,0.55,0.78,0.33,0.44,0.58,0.6,0.61,0.5,0.58,0.25,0.55,0.67,0.25,0.25,0.55,0.6,0.48,0.4,0.6,0.88,0.5,0.29,0.25,0.55,0.52,0.25,0.25,0.55,0.61,0.58,0.29,0.4,0.6,0.56,0.6,0.88,0.5,0.4,0.5,0.58,0.25,0.55,0.6,0.25,0.25,0.55,0.72,0.29,0.58,0.55,0.61,0.58,0.25,0.55,0.67,0.25,0.25,0.55,0.61,0.48,0.48,0.25,0.55,0.67,0.25,0.67,0.25,0.55,0.76,0.4,0.48,0.48,0.58,0.55,0.42,0.56,0.58,0.33,0.58,0.48,0.42,0.29,0.42,0.55,0.55,0.33,0.55,0.58,0.29,0.33,0.4,0.55,0.56,0.48,0.58,0.33,0.61,0.55,0.6,0.48,0.61,0.55,0.44,0.5,0.4,0.55,0.55,0.58" style="fill:rgb(0,0,0);font-family:URWPalladioL-Roma;font-size:8.97px;stroke:none;">24. Atchudan, R.; Perumal, S.; Thirukumaran, P.; Vinodh, R.; Lee, Y.R. Green synthesis of nitrogen-doped carbon</text>
   <text y="265.699" x="98.05,103.268,107.752,112.97,117.866,122.851,126.393,130.876,134.678,138.4454,140.721,143.707,148.603,152.191,154.386,158.188,163.594,168.983,173.278,176.658,180.64,185.123,190.512,194.995,198.976,201.585,204.508,209.404,212.945,216.747" svgx:width="0.58,0.5,0.58,0.55,0.56,0.4,0.5,0.42,0.42,0.55,0.33,0.55,0.4,0.55,0.42,0.6,0.6,0.48,0.4,0.44,0.5,0.6,0.5,0.44,0.29,0.33,0.55,0.4,0.42,0.25" style="fill:rgb(0,0,0);font-family:URWPalladioL-Roma;font-size:8.97px;stroke:none;">nanograss for supercapacitors.</text>
   <text y="265.699" x="222.126,225.112,227.3545,229.595,234.078,238.059,240.552,247.026,251.007,256.0302,258.234,261.22,266.205,269.693,272.679,274.9215,278.058,284.039,288.522,292.01,298.986,301.2285,304.366,309.844,314.83,319.313" svgx:width="0.33,0.25,0.55,0.61,0.44,0.28,0.72,0.44,0.56,0.55,0.33,0.56,0.39,0.33,0.25,0.55,0.67,0.5,0.39,0.78,0.25,0.55,0.61,0.56,0.5,0.25" style="fill:rgb(0,0,0);font-family:URWPalladioL-Ital;font-size:8.97px;stroke:none;">J. Taiwan Inst. Chem. Eng.</text>
   <text y="265.699" x="324.691,329.174,333.657,338.141" svgx:width="0.5,0.5,0.5,0.5" style="fill:rgb(0,0,0);font-family:URWPalladioL-Bold;font-size:8.97px;stroke:none;">2019</text>
   <text y="265.699" x="342.624" svgx:width="0.25" style="fill:rgb(0,0,0);font-family:URWPalladioL-Roma;font-size:8.97px;stroke:none;">,</text>
   <text y="265.699" x="347.107,351.59,356.073" svgx:width="0.5,0.5,0.5" style="fill:rgb(0,0,0);font-family:URWPalladioL-Ital;font-size:8.97px;stroke:none;">102</text>
   <text y="265.699" x="360.557,362.7995,365.04,369.523,374.007,378.49,382.973,387.456,391.94,396.423,398.6655,401.803" svgx:width="0.25,0.55,0.5,0.5,0.5,0.5,0.5,0.5,0.5,0.25,0.55,0.33" style="fill:rgb(0,0,0);font-family:URWPalladioL-Roma;font-size:8.97px;stroke:none;">, 475–486. [</text>
   <text y="265.699" x="404.788,411.146,414.526,419.422,423.223,427.025,433.015,437.31" svgx:width="0.71,0.4,0.55,0.42,0.42,0.67,0.48,0.33" style="fill:rgb(8,117,183);font-family:URWPalladioL-Roma;font-size:8.97px;stroke:none;">CrossRef</text>
   <text y="265.699" x="440.295" svgx:width="0.33" style="fill:rgb(0,0,0);font-family:URWPalladioL-Roma;font-size:8.97px;stroke:none;">]</text>
   <text y="278.611" x="76.535,81.018,85.501,87.74350000000001,98.05,105.165,108.147,112.208,117.53,123.045,128.633,133.206,138.529,140.7715,143.861,149.97,152.257,154.4995,157.991,163.515,167.896,171.444,176.959,185.035,189.608,192.269,194.5115,197.601,202.403,204.689,206.9315,210.424,215.948,220.52,224.133,229.3,233.681,238.062,243.385,245.6275,248.717,255.832,258.119,262.92,265.207,267.4495,270.95,276.538,280.919,285.291,287.5335,290.632,295.735,298.021,304.131,306.3735,309.463,315.051,317.712,322.093,326.154,329.135,332.583,337.577,341.637,346.21,349.192,353.765,356.426,361.511,364.493,367.154,371.1008,374.269,378.842,384.165,389.6367,392.799,397.179,402.502,406.883,410.331,415.416,420.43919999999997,423.547,427.424,430.406,435.399,439.012,443.585,448.67,452.97560000000004,456.096,461.593,465.974,469.586,472.632,477.625,481.238,489.313,493.886,499.209,503.27,507.5756,510.705,515.699" svgx:width="0.5,0.5,0.25,0.55,0.78,0.33,0.44,0.58,0.6,0.61,0.5,0.58,0.25,0.55,0.67,0.25,0.25,0.55,0.6,0.48,0.4,0.6,0.88,0.5,0.29,0.25,0.55,0.52,0.25,0.25,0.55,0.6,0.5,0.4,0.56,0.48,0.48,0.58,0.25,0.55,0.78,0.25,0.52,0.25,0.25,0.55,0.61,0.48,0.48,0.25,0.55,0.67,0.25,0.67,0.25,0.55,0.61,0.29,0.48,0.44,0.33,0.4,0.55,0.44,0.5,0.33,0.5,0.29,0.56,0.33,0.29,0.44,0.55,0.5,0.58,0.61,0.55,0.48,0.58,0.48,0.4,0.56,0.56,0.55,0.42,0.33,0.55,0.4,0.5,0.56,0.48,0.55,0.6,0.48,0.4,0.33,0.55,0.4,0.88,0.5,0.58,0.44,0.48,0.55,0.55,0.33" style="fill:rgb(0,0,0);font-family:URWPalladioL-Roma;font-size:8.97px;stroke:none;">25. Atchudan, R.; Perumal, S.; Parveen, A.S.; Lee, Y.R. Electrocatalytic and energy storage performance of</text>
   <text y="291.522" x="98.05,103.008,105.618,110.513,113.499,118.978,123.272,126.814,129.423,134.489,138.784,144.2557,146.504,150.306,155.713,158.322,163.711,168.929,174.336,177.716,180.702,185.921,188.53,191.453,194.833,199.729,204.714,209.009,214.228,217.213,222.692,227.588,232.976,237.271,242.74269999999999,244.991,248.972,253.456,256.997,261.956,266.851,272.07" svgx:width="0.55,0.29,0.55,0.33,0.61,0.48,0.4,0.29,0.56,0.48,0.61,0.55,0.42,0.6,0.29,0.6,0.58,0.6,0.4,0.33,0.58,0.29,0.33,0.4,0.55,0.56,0.48,0.58,0.33,0.61,0.55,0.6,0.48,0.61,0.55,0.44,0.5,0.4,0.55,0.55,0.58,0.25" style="fill:rgb(0,0,0);font-family:URWPalladioL-Roma;font-size:8.97px;stroke:none;">bio-derived sulphur-nitrogen-doped carbon.</text>
   <text y="291.522" x="277.447,280.433,282.6755,284.916,290.395,292.887,296.375,300.024,303.01,306.337,310.318,314.299,319.284,323.265,325.758,328.0005,331.138,337.118,341.602,345.089,352.065" svgx:width="0.33,0.25,0.55,0.61,0.28,0.39,0.41,0.33,0.39,0.44,0.44,0.56,0.44,0.28,0.25,0.55,0.67,0.5,0.39,0.78,0.25" style="fill:rgb(0,0,0);font-family:URWPalladioL-Ital;font-size:8.97px;stroke:none;">J. Electroanal. Chem.</text>
   <text y="291.522" x="357.444,361.927,366.41,370.894" svgx:width="0.5,0.5,0.5,0.5" style="fill:rgb(0,0,0);font-family:URWPalladioL-Bold;font-size:8.97px;stroke:none;">2019</text>
   <text y="291.522" x="375.377" svgx:width="0.25" style="fill:rgb(0,0,0);font-family:URWPalladioL-Roma;font-size:8.97px;stroke:none;">,</text>
   <text y="291.522" x="379.86,384.343,388.826" svgx:width="0.5,0.5,0.5" style="fill:rgb(0,0,0);font-family:URWPalladioL-Ital;font-size:8.97px;stroke:none;">833</text>
   <text y="291.522" x="393.31,395.5525,397.793,402.276,406.76,411.243,415.726,420.209,424.693,429.176,431.4185,434.556" svgx:width="0.25,0.55,0.5,0.5,0.5,0.5,0.5,0.5,0.5,0.25,0.55,0.33" style="fill:rgb(0,0,0);font-family:URWPalladioL-Roma;font-size:8.97px;stroke:none;">, 357–369. [</text>
   <text y="291.522" x="437.541,443.899,447.279,452.175,455.976,459.778,465.768,470.063" svgx:width="0.71,0.4,0.55,0.42,0.42,0.67,0.48,0.33" style="fill:rgb(8,117,183);font-family:URWPalladioL-Roma;font-size:8.97px;stroke:none;">CrossRef</text>
   <text y="291.522" x="473.048" svgx:width="0.33" style="fill:rgb(0,0,0);font-family:URWPalladioL-Roma;font-size:8.97px;stroke:none;">]</text>
   <text y="304.434" x="76.535,81.018,85.501,87.74350000000001,98.05,103.911,109.025,113.234,118.348,123.234,125.4765,127.416,131.476,133.673,139.903,142.1,144.3425,146.361,151.73,154.287,159.586,161.82850000000002,163.768,170.57,172.766,175.0085,177.028,182.889,185.446,189.84,192.0825,194.022,200.727,202.924,208.293,210.489,212.7315,214.751,219.786,224.18,229.294,234.179,236.4215,238.362,243.23,245.427,247.6695,249.688,255.057,257.614,262.913,265.1555,267.096,271.814,274.011,276.25350000000003,278.282,286.621,291.919,294.1615,296.093,304.406,306.602,312.463,314.66,316.90250000000003,318.931,325.161,330.275,334.484,339.598,341.8405,343.772,350.678,352.875,360.845,363.08750000000003,365.019,370.388,372.945,377.743,385.501,389.895,393.621,397.3884,399.332,406.661,411.054,414.78,417.645,421.9506,423.831,426.388,431.502,435.227,440.509,443.066,446.378,450.587,456.0587,457.942,463.056,465.613,468.478,471.782,476.579,481.465,485.674,490.788,493.714,499.083,503.881,509.162,513.371" svgx:width="0.5,0.5,0.25,0.55,0.67,0.58,0.48,0.58,0.56,0.25,0.55,0.56,0.25,0.71,0.25,0.25,0.55,0.61,0.29,0.6,0.25,0.55,0.77,0.25,0.25,0.55,0.67,0.29,0.5,0.25,0.55,0.76,0.25,0.61,0.25,0.25,0.55,0.67,0.5,0.58,0.56,0.25,0.55,0.67,0.25,0.25,0.55,0.61,0.29,0.6,0.25,0.55,0.61,0.25,0.25,0.55,1.0,0.6,0.25,0.55,0.95,0.25,0.67,0.25,0.25,0.55,0.71,0.58,0.48,0.58,0.25,0.55,0.79,0.25,1.0,0.25,0.55,0.61,0.29,0.55,0.88,0.5,0.42,0.42,0.55,0.83,0.5,0.42,0.33,0.48,0.55,0.29,0.58,0.42,0.6,0.29,0.4,0.48,0.61,0.55,0.58,0.29,0.33,0.4,0.55,0.56,0.48,0.58,0.33,0.61,0.55,0.6,0.48,0.61" style="fill:rgb(0,0,0);font-family:URWPalladioL-Roma;font-size:8.97px;stroke:none;">26. Zheng, F.C.; Liu, D.; Xia, G.L.; Yang, Y.; Liu, T.; Wu, M.Z.; Chen, Q.W. Biomass waste inspired nitrogen-doped</text>
   <text y="317.346" x="97.781,103.278,108.271,111.719,116.713,122.228,125.99539999999999,128.529,132.59,137.163,140.775,145.833,150.826,156.02859999999998,158.564,166.639,171.212,174.194,178.574,182.187,184.848,189.421,192.083,195.8504,198.375,202.948,206.71540000000002,209.24,214.563,217.224,222.309,227.632,230.678,236.174,240.555,244.168,247.213,252.207,255.819,263.895,268.468,273.791,277.851,282.1566,284.647,289.219,294.542,299.536,305.124,309.42960000000005,311.919,314.965,319.958,323.54600000000005,325.994,328.656,331.317,334.289,339.612,342.274,347.789,355.864,358.91,361.571,366.565,371.7676,374.311,379.369,383.942,386.923,389.905,394.285,397.898,400.559,404.94,408.818" svgx:width="0.6,0.55,0.4,0.55,0.6,0.42,0.55,0.44,0.5,0.4,0.55,0.55,0.58,0.55,0.88,0.5,0.33,0.48,0.4,0.29,0.5,0.29,0.42,0.55,0.5,0.42,0.55,0.58,0.29,0.56,0.58,0.33,0.6,0.48,0.4,0.33,0.55,0.4,0.88,0.5,0.58,0.44,0.48,0.55,0.5,0.58,0.55,0.61,0.48,0.55,0.33,0.55,0.4,0.55,0.29,0.29,0.33,0.58,0.29,0.6,0.88,0.33,0.29,0.55,0.58,0.55,0.55,0.5,0.33,0.33,0.48,0.4,0.29,0.48,0.42,0.25" style="fill:rgb(0,0,0);font-family:URWPalladioL-Roma;font-size:8.97px;stroke:none;">porous carbon materials as high-performance anode for lithium-ion batteries.</text>
   <text y="317.346" x="414.763,417.809,420.05150000000003,422.509,429.113,431.655,434.198,438.258,442.831,446.3293,448.803,454.904,458.964,466.08,470.653,475.225" svgx:width="0.33,0.25,0.55,0.72,0.28,0.28,0.44,0.5,0.39,0.55,0.67,0.44,0.78,0.5,0.5,0.25" style="fill:rgb(0,0,0);font-family:URWPalladioL-Ital;font-size:8.97px;stroke:none;">J. Alloys Compd.</text>
   <text y="317.346" x="481.177,485.66,490.143,494.627" svgx:width="0.5,0.5,0.5,0.5" style="fill:rgb(0,0,0);font-family:URWPalladioL-Bold;font-size:8.97px;stroke:none;">2017</text>
   <text y="317.346" x="499.11" svgx:width="0.25" style="fill:rgb(0,0,0);font-family:URWPalladioL-Roma;font-size:8.97px;stroke:none;">,</text>
   <text y="317.346" x="503.856,508.429,513.002" svgx:width="0.5,0.5,0.5" style="fill:rgb(0,0,0);font-family:URWPalladioL-Ital;font-size:8.97px;stroke:none;">693</text>
   <text y="317.346" x="517.575" svgx:width="0.25" style="fill:rgb(0,0,0);font-family:URWPalladioL-Roma;font-size:8.97px;stroke:none;">,</text>
   <text y="330.257" x="97.602,102.085,106.568,111.052,115.535,120.018,124.501,128.984,133.468,137.951,140.1935,143.331" svgx:width="0.5,0.5,0.5,0.5,0.5,0.5,0.5,0.5,0.5,0.25,0.55,0.33" style="fill:rgb(0,0,0);font-family:URWPalladioL-Roma;font-size:8.97px;stroke:none;">1197–1204. [</text>
   <text y="330.257" x="146.316,152.674,156.054,160.95,164.751,168.553,174.543,178.838" svgx:width="0.71,0.4,0.55,0.42,0.42,0.67,0.48,0.33" style="fill:rgb(8,117,183);font-family:URWPalladioL-Roma;font-size:8.97px;stroke:none;">CrossRef</text>
   <text y="330.257" x="181.823" svgx:width="0.33" style="fill:rgb(0,0,0);font-family:URWPalladioL-Roma;font-size:8.97px;stroke:none;">]</text>
   <text y="343.169" x="76.535,81.018,85.501,87.74350000000001,98.05,106.6,112.05,114.68,117.31,121.829,124.459,129.566,134.085,139.345,143.864,149.124,153.644,156.59,161.85,166.369,171.629,173.8715,176.139,181.508,183.768,186.0105,188.278,193.023,197.542,200.488,205.748,208.378,212.211,217.471,219.7135,221.972,228.009,230.269,232.5115,234.779,241.341,245.86,248.49,253.009,255.639,259.471,263.8,266.43,271.537,274.167,276.4095,278.677,286.188,288.4305,290.698,297.106,302.041,304.671,308.259,310.482,315.914,318.544,321.491,326.6936,329.001,334.524,338.853,342.423,345.053,350.16,354.489,359.9607,362.262,367.26,369.89,374.825,377.834,381.847,386.366,389.927,394.925,399.86,405.12,407.3625,410.534,417.53,421.859,429.84,434.775,440.035,443.867,446.813,450.383,454.902,457.849,460.479,465.414,470.6166,472.925,477.859,480.8191,483.111,488.542,493.477,496.424,500.753,506.013,508.96,511.59,516.109" svgx:width="0.5,0.5,0.25,0.55,0.95,0.6,0.29,0.29,0.5,0.29,0.56,0.5,0.58,0.5,0.58,0.5,0.33,0.58,0.5,0.58,0.25,0.55,0.72,0.25,0.25,0.55,0.52,0.5,0.33,0.58,0.29,0.42,0.58,0.25,0.55,0.67,0.25,0.25,0.55,0.73,0.5,0.29,0.5,0.29,0.42,0.48,0.29,0.56,0.29,0.25,0.55,0.83,0.25,0.55,0.71,0.55,0.29,0.4,0.55,0.6,0.29,0.33,0.58,0.55,0.61,0.48,0.4,0.29,0.56,0.48,0.61,0.55,0.55,0.29,0.55,0.33,0.44,0.5,0.4,0.55,0.55,0.58,0.25,0.55,0.77,0.48,0.88,0.55,0.58,0.42,0.33,0.4,0.5,0.33,0.29,0.55,0.58,0.55,0.55,0.33,0.55,0.6,0.55,0.33,0.48,0.58,0.33,0.29,0.5,0.29" style="fill:rgb(0,0,0);font-family:URWPalladioL-Roma;font-size:8.97px;stroke:none;">27. Mullaivananathan, V.; Sathish, R.; Kalaiselvi, N. Coir pith derived bio-carbon: Demonstration of potential</text>
   <text y="356.08" x="98.05,102.533,107.752,112.647,118.126,122.4316,124.662,129.621,133.916,139.134,143.617,148.683,151.292,156.188,159.77599999999998,161.971,164.581,169.78359999999998,172.041,174.65,177.259,180.182,185.401,188.01,193.417,201.334,204.32,206.929,211.825,217.02759999999998,219.285,224.243,228.726,231.649,234.572,238.867,242.409,245.018,249.313,253.115" svgx:width="0.5,0.58,0.55,0.61,0.48,0.55,0.55,0.48,0.58,0.5,0.56,0.29,0.55,0.4,0.55,0.29,0.58,0.55,0.29,0.29,0.33,0.58,0.29,0.6,0.88,0.33,0.29,0.55,0.58,0.55,0.55,0.5,0.33,0.33,0.48,0.4,0.29,0.48,0.42,0.25" style="fill:rgb(0,0,0);font-family:URWPalladioL-Roma;font-size:8.97px;stroke:none;">anode behavior in lithium-ion batteries.</text>
   <text y="356.08" x="258.493,263.971,266.464,269.952,273.601,276.587,279.914,283.895,287.544,292.027,294.52,301.496,303.7385,306.876,313.349,316.999,319.985" svgx:width="0.61,0.28,0.39,0.41,0.33,0.39,0.44,0.41,0.5,0.28,0.78,0.25,0.55,0.72,0.41,0.33,0.44" style="fill:rgb(0,0,0);font-family:URWPalladioL-Ital;font-size:8.97px;stroke:none;">Electrochim. Acta</text>
   <text y="356.08" x="326.206,330.689,335.172,339.656" svgx:width="0.5,0.5,0.5,0.5" style="fill:rgb(0,0,0);font-family:URWPalladioL-Bold;font-size:8.97px;stroke:none;">2017</text>
   <text y="356.08" x="344.139" svgx:width="0.25" style="fill:rgb(0,0,0);font-family:URWPalladioL-Roma;font-size:8.97px;stroke:none;">,</text>
   <text y="356.08" x="348.622,353.105,357.588" svgx:width="0.5,0.5,0.5" style="fill:rgb(0,0,0);font-family:URWPalladioL-Ital;font-size:8.97px;stroke:none;">225</text>
   <text y="356.08" x="362.071,364.31350000000003,366.554,371.037,375.521,380.004,384.487,388.97,393.453,397.937,400.1795,403.317" svgx:width="0.25,0.55,0.5,0.5,0.5,0.5,0.5,0.5,0.5,0.25,0.55,0.33" style="fill:rgb(0,0,0);font-family:URWPalladioL-Roma;font-size:8.97px;stroke:none;">, 143–150. [</text>
   <text y="356.08" x="406.302,412.66,416.04,420.936,424.737,428.539,434.529,438.823" svgx:width="0.71,0.4,0.55,0.42,0.42,0.67,0.48,0.33" style="fill:rgb(8,117,183);font-family:URWPalladioL-Roma;font-size:8.97px;stroke:none;">CrossRef</text>
   <text y="356.08" x="441.809" svgx:width="0.33" style="fill:rgb(0,0,0);font-family:URWPalladioL-Roma;font-size:8.97px;stroke:none;">]</text>
   <text y="368.992" x="76.535,81.018,85.501,87.74350000000001,98.05,103.938,109.253,111.4955,113.695,121.028,123.232,130.565,132.768,135.0105,137.21,143.089,145.654,150.061,155.191,160.092,162.33450000000002,164.534,170.933,173.136,179.015,181.219,183.4615,185.661,191.54,196.67,201.482,206.797,209.0395,211.239,219.233,221.437,223.67950000000002,225.879,231.758,236.888,242.202,244.4445,246.645,251.528,253.731,259.619,261.822,264.0645,266.265,272.144,277.273,281.68,286.493,288.7355,290.935,296.814,299.017,303.645,305.848,308.0905,310.29,316.539,321.669,325.891,331.021,333.2635,335.463,342.796,345.0385,347.239,352.624,356.846,361.253,366.382,369.318,374.703,378.026,382.248,387.148,390.083,395.469,399.69,403.172,405.737,410.717,414.939,420.4107,422.563,426.476,430.883,434.365,439.239,444.051,449.2536,451.42,459.202,463.609,466.483,470.705,474.186,476.751,481.158,483.723,487.4904,489.699,495.014,498.751,502.973,508.4447,510.597,515.004" svgx:width="0.5,0.5,0.25,0.55,0.67,0.6,0.25,0.55,0.83,0.25,0.83,0.25,0.25,0.55,0.67,0.29,0.5,0.58,0.56,0.25,0.55,0.73,0.25,0.67,0.25,0.25,0.55,0.67,0.58,0.55,0.6,0.25,0.55,1.0,0.25,0.25,0.55,0.67,0.58,0.6,0.25,0.55,0.67,0.25,0.67,0.25,0.25,0.55,0.67,0.58,0.5,0.55,0.25,0.55,0.67,0.25,0.52,0.25,0.25,0.55,0.71,0.58,0.48,0.58,0.25,0.55,0.83,0.25,0.55,0.61,0.48,0.5,0.58,0.33,0.61,0.4,0.48,0.56,0.33,0.61,0.48,0.4,0.29,0.56,0.48,0.61,0.55,0.44,0.5,0.4,0.55,0.55,0.58,0.55,0.88,0.5,0.33,0.48,0.4,0.29,0.5,0.29,0.42,0.55,0.6,0.42,0.48,0.61,0.55,0.5,0.42" style="fill:rgb(0,0,0);font-family:URWPalladioL-Roma;font-size:8.97px;stroke:none;">28. Ru, H.H.; Xiang, K.X.; Zhou, W.; Zhu, Y.R.; Zhao, X.S.; Chen, H. Bean-dreg-derived carbon materials used as</text>
   <text y="381.904" x="98.05,101.852,107.258,112.647,116.942,120.484,123.093,127.989,131.577,133.772,138.255,143.474,148.369,153.848,158.1536,160.384,168.302,172.785,175.708,180.003,183.545,186.154,190.637,193.2383,195.488,198.474,203.369,206.957,209.153,211.762,214.371,217.294,222.513,225.122,230.529,238.446,241.432,244.041,248.937,254.1396,256.397,261.355,265.838,268.761,271.684,275.979,279.521,282.13,286.425,290.227" svgx:width="0.42,0.6,0.6,0.48,0.4,0.29,0.55,0.4,0.55,0.5,0.58,0.55,0.61,0.48,0.55,0.88,0.5,0.33,0.48,0.4,0.29,0.5,0.29,0.55,0.33,0.55,0.4,0.55,0.29,0.29,0.33,0.58,0.29,0.6,0.88,0.33,0.29,0.55,0.58,0.55,0.55,0.5,0.33,0.33,0.48,0.4,0.29,0.48,0.42,0.25" style="fill:rgb(0,0,0);font-family:URWPalladioL-Roma;font-size:8.97px;stroke:none;">superior anode material for lithium-ion batteries.</text>
   <text y="381.904" x="295.604,301.082,303.575,307.063,310.712,313.698,317.025,321.006,324.655,329.138,331.631,338.607,340.84950000000003,343.987,350.46,354.11,357.096" svgx:width="0.61,0.28,0.39,0.41,0.33,0.39,0.44,0.41,0.5,0.28,0.78,0.25,0.55,0.72,0.41,0.33,0.44" style="fill:rgb(0,0,0);font-family:URWPalladioL-Ital;font-size:8.97px;stroke:none;">Electrochim. Acta</text>
   <text y="381.904" x="363.317,367.8,372.283,376.767" svgx:width="0.5,0.5,0.5,0.5" style="fill:rgb(0,0,0);font-family:URWPalladioL-Bold;font-size:8.97px;stroke:none;">2016</text>
   <text y="381.904" x="381.25" svgx:width="0.25" style="fill:rgb(0,0,0);font-family:URWPalladioL-Roma;font-size:8.97px;stroke:none;">,</text>
   <text y="381.904" x="385.733,390.216,394.699" svgx:width="0.5,0.5,0.5" style="fill:rgb(0,0,0);font-family:URWPalladioL-Ital;font-size:8.97px;stroke:none;">222</text>
   <text y="381.904" x="399.183,401.4255,403.666,408.149,412.633,417.116,421.599,426.082,430.566,435.049,437.2915,440.429" svgx:width="0.25,0.55,0.5,0.5,0.5,0.5,0.5,0.5,0.5,0.25,0.55,0.33" style="fill:rgb(0,0,0);font-family:URWPalladioL-Roma;font-size:8.97px;stroke:none;">, 551–560. [</text>
   <text y="381.904" x="443.414,449.772,453.152,458.048,461.849,465.651,471.641,475.936" svgx:width="0.71,0.4,0.55,0.42,0.42,0.67,0.48,0.33" style="fill:rgb(8,117,183);font-family:URWPalladioL-Roma;font-size:8.97px;stroke:none;">CrossRef</text>
   <text y="381.904" x="478.921" svgx:width="0.33" style="fill:rgb(0,0,0);font-family:URWPalladioL-Roma;font-size:8.97px;stroke:none;">]</text>
   <text y="394.815" x="76.535,81.018,85.501,87.74350000000001,98.05,104.15,109.473,114.988,117.2305,120.402,125.505,127.792,134.871,137.157,139.39950000000002,143.01,150.62,156.135,160.707,166.03,171.115,173.35750000000002,176.52,181.624,183.91,186.1525,189.763,196.248,201.571,205.951,211.274,213.5165,216.688,223.173,225.459,227.7015,231.312,239.635,244.208,249.531,254.616,256.8585,260.021,268.673,270.959,276.062,278.349,280.5915,284.202,289.79,292.452,297.966,300.2085,303.381,307.743,310.03,315.618,317.8605,321.032,326.556,331.879,336.872,340.75,346.247,351.57,356.563,360.103,365.617,369.495,372.541,378.129,383.122,388.619,393.0,398.4717,401.716,407.212,412.206,415.654,420.647,426.162,429.9294,433.159,438.216,440.878,445.871,453.947,458.52,462.397,466.1644,469.403,473.464,478.037,481.649,486.707,491.7,496.9026,500.151,507.779,510.44,513.421" svgx:width="0.5,0.5,0.25,0.55,0.67,0.58,0.6,0.25,0.55,0.67,0.25,0.77,0.25,0.25,0.55,0.83,0.6,0.5,0.58,0.56,0.25,0.55,0.67,0.25,0.25,0.55,0.71,0.58,0.48,0.58,0.25,0.55,0.71,0.25,0.25,0.55,1.0,0.5,0.58,0.56,0.25,0.55,0.95,0.25,0.67,0.25,0.25,0.55,0.61,0.29,0.6,0.25,0.55,0.6,0.25,0.61,0.25,0.55,0.6,0.58,0.55,0.42,0.6,0.58,0.55,0.4,0.6,0.42,0.33,0.61,0.55,0.6,0.48,0.61,0.55,0.6,0.55,0.4,0.55,0.6,0.42,0.55,0.55,0.29,0.55,0.88,0.5,0.42,0.42,0.55,0.44,0.5,0.4,0.55,0.55,0.58,0.55,0.83,0.29,0.33,0.58" style="fill:rgb(0,0,0);font-family:URWPalladioL-Roma;font-size:8.97px;stroke:none;">29. Zhu, Y.D.; Huang, Y.; Chen, C.; Wang, M.Y.; Liu, P.B. Phosphorus-doped porous biomass carbon with</text>
   <text y="407.727" x="98.05,103.565,106.226,109.208,112.82,117.393,120.439,124.317,127.298,131.871,136.928,139.59,143.8956,147.501,152.998,157.378,160.991,164.036,169.03,172.643,180.718,185.291,190.614,194.675,198.9806,202.577,205.238,210.4406,214.091,217.969,222.962,228.55,231.212,236.727,244.6206,248.323,252.201,255.183,260.176,263.789,268.362,273.447,277.75260000000003,281.358,285.931,291.254,296.7257,300.372,303.033,305.695,308.676,313.999,316.66,322.175,330.0686,333.772,337.65,340.631,345.625,349.237,353.81,358.895,363.276" svgx:width="0.6,0.29,0.33,0.4,0.5,0.33,0.42,0.33,0.5,0.55,0.29,0.48,0.55,0.6,0.48,0.4,0.33,0.55,0.4,0.88,0.5,0.58,0.44,0.48,0.55,0.29,0.58,0.55,0.42,0.55,0.61,0.29,0.6,0.88,0.55,0.42,0.33,0.55,0.4,0.5,0.56,0.48,0.55,0.5,0.58,0.61,0.55,0.29,0.29,0.33,0.58,0.29,0.6,0.88,0.55,0.42,0.33,0.55,0.4,0.5,0.56,0.48,0.25" style="fill:rgb(0,0,0);font-family:URWPalladioL-Roma;font-size:8.97px;stroke:none;">ultra-stable performance in sodium storage and lithium storage.</text>
   <text y="407.727" x="372.56,378.148,380.691,384.248,387.971,391.016,394.409,398.47,402.192,406.765,409.308,416.423,418.6655,425.706,432.309,436.031,439.077" svgx:width="0.61,0.28,0.39,0.41,0.33,0.39,0.44,0.41,0.5,0.28,0.78,0.25,0.55,0.72,0.41,0.33,0.44" style="fill:rgb(0,0,0);font-family:URWPalladioL-Ital;font-size:8.97px;stroke:none;">Electrochim. Acta</text>
   <text y="407.727" x="446.665,451.148,455.631,460.115" svgx:width="0.5,0.5,0.5,0.5" style="fill:rgb(0,0,0);font-family:URWPalladioL-Bold;font-size:8.97px;stroke:none;">2019</text>
   <text y="407.727" x="464.597" svgx:width="0.25" style="fill:rgb(0,0,0);font-family:URWPalladioL-Roma;font-size:8.97px;stroke:none;">,</text>
   <text y="407.727" x="470.732,475.305,479.878" svgx:width="0.5,0.5,0.5" style="fill:rgb(0,0,0);font-family:URWPalladioL-Ital;font-size:8.97px;stroke:none;">321</text>
   <text y="407.727" x="484.451,486.69350000000003,490.588,495.161,499.734,504.306,508.879,513.452,518.025" svgx:width="0.25,0.55,0.5,0.5,0.5,0.5,0.5,0.5,0.25" style="fill:rgb(0,0,0);font-family:URWPalladioL-Roma;font-size:8.97px;stroke:none;">, 134698.</text>
   <text y="420.638" x="98.05" svgx:width="0.33" style="fill:rgb(0,0,0);font-family:URWPalladioL-Roma;font-size:8.97px;stroke:none;">[</text>
   <text y="420.638" x="101.036,107.393,110.773,115.669,119.471,123.272,129.262,133.557" svgx:width="0.71,0.4,0.55,0.42,0.42,0.67,0.48,0.33" style="fill:rgb(8,117,183);font-family:URWPalladioL-Roma;font-size:8.97px;stroke:none;">CrossRef</text>
   <text y="420.638" x="136.543" svgx:width="0.33" style="fill:rgb(0,0,0);font-family:URWPalladioL-Roma;font-size:8.97px;stroke:none;">]</text>
   <text y="433.55" x="76.535,81.018,85.501,87.74350000000001,98.05,104.955,109.826,115.206,117.44850000000001,119.676,124.627,126.858,132.309,134.539,136.7815,139.009,144.46,147.056,152.436,154.6785,156.906,162.856,165.087,167.3295,169.556,174.695,180.075,182.3175,184.545,191.022,193.252,197.392,199.622,201.86450000000002,204.083,212.184,216.644,221.837,226.797,229.0395,231.267,237.218,239.448,243.579,245.809,248.0515,250.279,255.73,258.326,263.706,265.9485,268.175,276.267,278.498,282.735,284.966,287.2085,289.435,294.887,297.483,301.944,307.136,312.096,314.3385,316.557,319.528,321.758,328.084,330.314,332.5565,334.784,340.235,342.831,347.292,352.484,357.445,359.6875,361.914,368.24,370.4825,372.709,378.16,380.757,385.628,393.505,397.966,401.749,405.51640000000003,407.762,413.124,417.995,421.359,426.23,431.61,435.3774,437.632,441.593,446.054,449.578,454.511,459.382,464.5846,466.814,472.265,476.539,480.063,482.659,487.699,491.973,497.4447,499.654,502.625,505.989,510.86" svgx:width="0.5,0.5,0.25,0.55,0.77,0.55,0.6,0.25,0.55,0.67,0.25,0.61,0.25,0.25,0.55,0.61,0.29,0.6,0.25,0.55,0.67,0.25,0.25,0.55,0.67,0.6,0.25,0.55,0.73,0.25,0.56,0.25,0.25,0.55,1.0,0.5,0.58,0.56,0.25,0.55,0.67,0.25,0.56,0.25,0.25,0.55,0.61,0.29,0.6,0.25,0.55,1.0,0.25,0.6,0.25,0.25,0.55,0.61,0.29,0.5,0.58,0.56,0.25,0.55,0.33,0.25,0.71,0.25,0.25,0.55,0.61,0.29,0.5,0.58,0.56,0.25,0.55,0.71,0.25,0.55,0.61,0.29,0.55,0.88,0.5,0.42,0.42,0.55,0.6,0.55,0.4,0.55,0.6,0.42,0.55,0.44,0.5,0.4,0.55,0.55,0.58,0.55,0.61,0.48,0.4,0.29,0.56,0.48,0.61,0.55,0.33,0.4,0.55,0.88" style="fill:rgb(0,0,0);font-family:URWPalladioL-Roma;font-size:8.97px;stroke:none;">30. Dou, Y.L.; Liu, X.; Yu, K.F.; Wang, X.F.; Liu, W.P.; Liang, J.C.; Liang, C. Biomass porous carbon derived from</text>
   <text y="446.462" x="98.05,100.148,105.555,108.478,112.78359999999999,115.014,120.439,125.398,129.692,133.28,135.476,139.959,143.7264,146.002,150.486,155.704,160.6,166.078,170.3836,172.615,180.532,185.015,187.938,192.233,195.775,198.384,202.867,205.476,209.2434,211.52,214.506,219.401,222.989,225.185,227.794,230.403,233.326,238.545,241.154,246.561,254.478,257.464,260.073,264.969,270.1716,272.429,277.387,281.87,284.793,287.716,292.011,295.553,298.162,302.457,306.259" svgx:width="0.23,0.6,0.33,0.48,0.55,0.61,0.55,0.48,0.4,0.55,0.5,0.42,0.55,0.5,0.58,0.55,0.61,0.48,0.55,0.88,0.5,0.33,0.48,0.4,0.29,0.5,0.29,0.42,0.55,0.33,0.55,0.4,0.55,0.29,0.29,0.33,0.58,0.29,0.6,0.88,0.33,0.29,0.55,0.58,0.55,0.55,0.5,0.33,0.33,0.48,0.4,0.29,0.48,0.42,0.25" style="fill:rgb(0,0,0);font-family:URWPalladioL-Roma;font-size:8.97px;stroke:none;">jute ﬁber as anode materials for lithium-ion batteries.</text>
   <text y="446.462" x="311.636,318.612,321.104,325.086,332.061,334.3035,337.441,343.422,346.91,349.402,353.384,356.369,358.61150000000004,361.749,370.213,374.195,377.18,380.668,383.493" svgx:width="0.78,0.28,0.44,0.78,0.25,0.55,0.67,0.39,0.28,0.44,0.33,0.25,0.55,0.94,0.44,0.33,0.39,0.39,0.25" style="fill:rgb(0,0,0);font-family:URWPalladioL-Ital;font-size:8.97px;stroke:none;">Diam. Relat. Mater.</text>
   <text y="446.462" x="388.871,393.354,397.837,402.321" svgx:width="0.5,0.5,0.5,0.5" style="fill:rgb(0,0,0);font-family:URWPalladioL-Bold;font-size:8.97px;stroke:none;">2019</text>
   <text y="446.462" x="406.804" svgx:width="0.25" style="fill:rgb(0,0,0);font-family:URWPalladioL-Roma;font-size:8.97px;stroke:none;">,</text>
   <text y="446.462" x="411.287,415.77" svgx:width="0.5,0.5" style="fill:rgb(0,0,0);font-family:URWPalladioL-Ital;font-size:8.97px;stroke:none;">98</text>
   <text y="446.462" x="420.253,422.4955,424.736,429.219,433.703,438.186,442.669,447.152,451.635,453.8775,457.015" svgx:width="0.25,0.55,0.5,0.5,0.5,0.5,0.5,0.5,0.25,0.55,0.33" style="fill:rgb(0,0,0);font-family:URWPalladioL-Roma;font-size:8.97px;stroke:none;">, 107514. [</text>
   <text y="446.462" x="460.001,466.358,469.739,474.634,478.436,482.238,488.227,492.522" svgx:width="0.71,0.4,0.55,0.42,0.42,0.67,0.48,0.33" style="fill:rgb(8,117,183);font-family:URWPalladioL-Roma;font-size:8.97px;stroke:none;">CrossRef</text>
   <text y="446.462" x="495.508" svgx:width="0.33" style="fill:rgb(0,0,0);font-family:URWPalladioL-Roma;font-size:8.97px;stroke:none;">]</text>
   <text y="459.373" x="76.535,81.018,85.501,87.74350000000001,98.054,105.03,107.953,111.934,117.153,122.56,128.038,132.521,137.74,139.98250000000002,142.214,148.203,150.445,152.6875,154.928,160.344,164.639,168.109,173.516,181.433,185.916,188.525,190.7675,193.009,197.716,199.958,202.2005,204.441,209.919,214.214,218.509,220.7515,222.992,227.978,230.219,236.729,238.97150000000002,241.203,248.044,251.425,255.72,260.015,265.2176,267.475,271.276,276.262,281.48,284.403,289.622,293.917,297.718,300.328,304.0954,306.371,311.267,314.2271,316.494,321.712,324.322,327.245,330.625,335.521,340.506,344.801,350.019,353.005,358.484,363.379,368.768,373.063,378.5347,380.774,385.759,389.301,393.784,399.173,404.392,407.001,409.924,412.533,416.4798,418.756,422.737,427.22,430.762,435.72,440.616,445.8186,448.076,451.878,457.096,461.391,465.686,468.609,472.3764,474.652,482.13,484.739,487.662,492.8646,495.113,500.52,504.322,508.62760000000003,510.858,515.754" svgx:width="0.5,0.5,0.25,0.55,0.78,0.33,0.44,0.58,0.6,0.61,0.5,0.58,0.25,0.55,0.67,0.25,0.25,0.55,0.6,0.48,0.4,0.6,0.88,0.5,0.29,0.25,0.55,0.52,0.25,0.25,0.55,0.61,0.48,0.48,0.25,0.55,0.67,0.25,0.73,0.25,0.55,0.76,0.4,0.48,0.48,0.58,0.55,0.42,0.56,0.58,0.33,0.58,0.48,0.42,0.29,0.42,0.55,0.55,0.33,0.55,0.58,0.29,0.33,0.4,0.55,0.56,0.48,0.58,0.33,0.61,0.55,0.6,0.48,0.61,0.55,0.56,0.4,0.5,0.6,0.58,0.29,0.33,0.29,0.44,0.55,0.44,0.5,0.4,0.55,0.55,0.58,0.55,0.42,0.58,0.48,0.48,0.33,0.42,0.55,0.83,0.29,0.33,0.58,0.55,0.6,0.42,0.48,0.55,0.55,0.33" style="fill:rgb(0,0,0);font-family:URWPalladioL-Roma;font-size:8.97px;stroke:none;">31. Atchudan, R.; Perumal, S.; Lee, Y.K. Green synthesis of nitrogen-doped graphitic carbon sheets with use of</text>
   <text y="472.285" x="97.781,103.17,106.64,112.047,117.265,122.672,126.43939999999999,128.715,134.104,138.399,141.941,145.742,148.352,152.333,156.818,159.057,162.043,166.939,170.527,172.722,176.524,181.931,187.32,191.614,194.995,198.976,203.459,208.848,213.331,217.312,219.921,222.844,227.74,231.328,233.523,238.007,243.395,248.784,251.393,254.003,257.984,262.467,265.39,267.999,272.895,278.113,281.915" svgx:width="0.6,0.4,0.6,0.58,0.6,0.42,0.55,0.6,0.48,0.4,0.42,0.29,0.44,0.5,0.55,0.33,0.55,0.4,0.55,0.42,0.6,0.6,0.48,0.4,0.44,0.5,0.6,0.5,0.44,0.29,0.33,0.55,0.4,0.55,0.5,0.6,0.6,0.29,0.29,0.44,0.5,0.33,0.29,0.55,0.58,0.42,0.25" style="fill:rgb(0,0,0);font-family:URWPalladioL-Roma;font-size:8.97px;stroke:none;">prunus persica for supercapacitor applications.</text>
   <text y="472.285" x="287.292,293.766,298.249,302.732,305.225,307.46750000000003,310.605,315.59,320.575,324.063,326.556,328.7985,331.936,336.921,340.57,343.063" svgx:width="0.72,0.5,0.5,0.28,0.25,0.55,0.56,0.56,0.39,0.28,0.25,0.55,0.56,0.41,0.28,0.25" style="fill:rgb(0,0,0);font-family:URWPalladioL-Ital;font-size:8.97px;stroke:none;">Appl. Surf. Sci.</text>
   <text y="472.285" x="348.442,352.925,357.408,361.892" svgx:width="0.5,0.5,0.5,0.5" style="fill:rgb(0,0,0);font-family:URWPalladioL-Bold;font-size:8.97px;stroke:none;">2017</text>
   <text y="472.285" x="366.375" svgx:width="0.25" style="fill:rgb(0,0,0);font-family:URWPalladioL-Roma;font-size:8.97px;stroke:none;">,</text>
   <text y="472.285" x="370.858,375.341,379.824" svgx:width="0.5,0.5,0.5" style="fill:rgb(0,0,0);font-family:URWPalladioL-Ital;font-size:8.97px;stroke:none;">393</text>
   <text y="472.285" x="384.308,386.5505,388.791,393.274,397.758,402.241,406.724,411.207,415.69,420.174,422.4165,425.554" svgx:width="0.25,0.55,0.5,0.5,0.5,0.5,0.5,0.5,0.5,0.25,0.55,0.33" style="fill:rgb(0,0,0);font-family:URWPalladioL-Roma;font-size:8.97px;stroke:none;">, 276–286. [</text>
   <text y="472.285" x="428.539,434.897,438.277,443.173,446.974,450.776,456.766,461.06" svgx:width="0.71,0.4,0.55,0.42,0.42,0.67,0.48,0.33" style="fill:rgb(8,117,183);font-family:URWPalladioL-Roma;font-size:8.97px;stroke:none;">CrossRef</text>
   <text y="472.285" x="464.046" svgx:width="0.33" style="fill:rgb(0,0,0);font-family:URWPalladioL-Roma;font-size:8.97px;stroke:none;">]</text>
   <text y="485.196" x="76.535,81.018,85.501,87.74350000000001,98.05,103.574,109.089,112.701,118.024,123.018,131.094,136.087,138.3295,141.19,147.675,149.961,158.275,160.561,162.8035,165.948,172.588,176.968,180.846,186.361,194.437,199.01,201.2525,204.113,209.701,211.988,216.35,218.636,220.8785,224.023,229.547,233.928,237.376,242.964,247.537,252.86,257.433,259.6755,262.536,265.618,267.905,270.1475,273.291,280.407,284.98,287.641,292.214,294.4565,297.308,305.96,308.2025,311.063,316.651,319.313,322.294,327.617,330.278,335.793,343.6866,346.677,350.134,354.515,358.575,363.569,368.736,373.117,376.73,381.7532,384.622,387.668,391.125,396.118,404.0116,407.002,410.88,416.376,420.757,426.08,429.0401,431.878,437.466,440.128,443.173,445.835,450.828,456.0306,458.959,464.016,468.589,471.571,474.552,478.933,482.546,485.207,489.588,493.35540000000003,496.282,501.797,505.675,508.336,513.659" svgx:width="0.5,0.5,0.25,0.55,0.6,0.6,0.4,0.58,0.55,0.88,0.55,0.25,0.55,0.71,0.25,1.0,0.25,0.25,0.55,0.73,0.48,0.42,0.6,0.88,0.5,0.25,0.55,0.61,0.25,0.6,0.25,0.25,0.55,0.6,0.48,0.4,0.61,0.5,0.58,0.5,0.25,0.55,0.34,0.25,0.25,0.55,0.78,0.5,0.29,0.5,0.25,0.55,0.95,0.25,0.55,0.61,0.29,0.33,0.58,0.29,0.6,0.88,0.55,0.4,0.48,0.44,0.55,0.56,0.48,0.4,0.56,0.55,0.33,0.4,0.55,0.88,0.55,0.42,0.6,0.48,0.58,0.33,0.55,0.61,0.29,0.33,0.29,0.55,0.58,0.55,0.55,0.5,0.33,0.33,0.48,0.4,0.29,0.48,0.42,0.55,0.6,0.42,0.29,0.58,0.56" style="fill:rgb(0,0,0);font-family:URWPalladioL-Roma;font-size:8.97px;stroke:none;">32. Purnomo, C.W.; Kesuma, E.P.; Perdana, I.; Aziz, M. Lithium recovery from spent Li-ion batteries using</text>
   <text y="498.108" x="98.05,102.031,106.927,110.908,115.803,121.022,126.429,129.3891,131.593,135.395,140.613,144.908,147.518,150.1193,152.368,156.852,160.833,163.756,166.365,171.431,175.914,178.837,183.132,188.6037,190.852,194.833,199.317,202.858,207.817,212.712,217.931" svgx:width="0.44,0.55,0.44,0.55,0.58,0.6,0.33,0.55,0.42,0.58,0.48,0.29,0.29,0.55,0.5,0.44,0.33,0.29,0.56,0.5,0.33,0.48,0.61,0.55,0.44,0.5,0.4,0.55,0.55,0.58,0.25" style="fill:rgb(0,0,0);font-family:URWPalladioL-Roma;font-size:8.97px;stroke:none;">coconut shell activated carbon.</text>
   <text y="498.108" x="223.309,231.594,235.575,239.063,242.049,245.537,247.7795,250.917,259.381,263.362,268.347,272.328,276.812" svgx:width="0.94,0.44,0.39,0.33,0.39,0.25,0.55,0.94,0.44,0.56,0.44,0.5,0.39" style="fill:rgb(0,0,0);font-family:URWPalladioL-Ital;font-size:8.97px;stroke:none;">Waste. Manage</text>
   <text y="498.108" x="282.54,287.023,291.506,295.99" svgx:width="0.5,0.5,0.5,0.5" style="fill:rgb(0,0,0);font-family:URWPalladioL-Bold;font-size:8.97px;stroke:none;">2018</text>
   <text y="498.108" x="300.473" svgx:width="0.25" style="fill:rgb(0,0,0);font-family:URWPalladioL-Roma;font-size:8.97px;stroke:none;">,</text>
   <text y="498.108" x="304.956,309.439" svgx:width="0.5,0.5" style="fill:rgb(0,0,0);font-family:URWPalladioL-Ital;font-size:8.97px;stroke:none;">79</text>
   <text y="498.108" x="313.923,316.1655,318.406,322.889,327.373,331.856,336.339,340.822,345.306,349.789,352.0315,355.169" svgx:width="0.25,0.55,0.5,0.5,0.5,0.5,0.5,0.5,0.5,0.25,0.55,0.33" style="fill:rgb(0,0,0);font-family:URWPalladioL-Roma;font-size:8.97px;stroke:none;">, 454–461. [</text>
   <text y="498.108" x="358.154,364.512,367.892,372.788,376.589,380.391,386.381,390.676" svgx:width="0.71,0.4,0.55,0.42,0.42,0.67,0.48,0.33" style="fill:rgb(8,117,183);font-family:URWPalladioL-Roma;font-size:8.97px;stroke:none;">CrossRef</text>
   <text y="498.108" x="393.661,396.6211,398.889" svgx:width="0.33,0.55,0.33" style="fill:rgb(0,0,0);font-family:URWPalladioL-Roma;font-size:8.97px;stroke:none;">] [</text>
   <text y="498.108" x="401.875,407.29,412.697,417.655,426.138,430.433" svgx:width="0.6,0.6,0.55,0.95,0.48,0.61" style="fill:rgb(8,117,183);font-family:URWPalladioL-Roma;font-size:8.97px;stroke:none;">PubMed</text>
   <text y="498.108" x="435.911" svgx:width="0.33" style="fill:rgb(0,0,0);font-family:URWPalladioL-Roma;font-size:8.97px;stroke:none;">]</text>
   <text y="511.02" x="76.535,81.018,85.501,87.74350000000001,98.05,102.833,107.406,112.729,117.814,120.0565,123.301,130.38,132.667,137.77,140.056,142.29850000000002,146.029,151.617,157.131,162.125,164.3675,167.612,172.716,175.002,180.115,182.401,184.64350000000002,188.364,193.952,198.333,200.994,203.2365,206.482,214.804,217.091,224.17,226.456,228.6985,232.428,238.528,241.19,245.763,251.086,256.171,258.4135,261.658,268.847,271.133,273.3755,277.105,283.215,287.595,292.918,295.1605,298.406,306.728,309.015,311.2575,314.987,319.788,324.782,330.105,335.19,337.4325,340.677,349.0,351.286,357.771,360.057,362.2995,366.02,372.504,377.827,382.208,387.531,389.7735,393.027,399.667,401.954,404.1965,407.917,412.718,418.233,423.556,425.7985,429.052,432.098,434.3405,437.585,445.195,447.856,452.237,455.849,460.422,463.87,467.931,473.254,475.915,479.976,484.549,487.15029999999996,490.411,495.908,500.901,504.358,509.352,514.867" svgx:width="0.5,0.5,0.25,0.55,0.61,0.5,0.58,0.56,0.25,0.55,0.77,0.25,0.67,0.25,0.25,0.55,0.61,0.6,0.55,0.25,0.55,0.67,0.25,0.67,0.25,0.25,0.55,0.61,0.48,0.29,0.25,0.55,1.0,0.25,0.77,0.25,0.25,0.55,0.67,0.29,0.5,0.58,0.56,0.25,0.55,0.79,0.25,0.25,0.55,0.67,0.48,0.58,0.25,0.55,1.0,0.25,0.25,0.55,0.52,0.55,0.58,0.56,0.25,0.55,1.0,0.25,0.71,0.25,0.25,0.55,0.71,0.58,0.48,0.58,0.25,0.55,0.73,0.25,0.25,0.55,0.52,0.6,0.58,0.25,0.55,0.33,0.25,0.55,0.83,0.29,0.48,0.4,0.5,0.4,0.44,0.58,0.29,0.44,0.5,0.29,0.55,0.6,0.55,0.4,0.55,0.6,0.42" style="fill:rgb(0,0,0);font-family:URWPalladioL-Roma;font-size:8.97px;stroke:none;">33. Tang, D.Y.; Luo, Y.Y.; Lei, W.D.; Xiang, Q.; Ren, W.; Song, W.C.; Chen, K.; Sun, J. Hierarchical porous</text>
   <text y="523.931" x="98.05,101.991,106.43,109.936,114.845,119.691,124.8936,127.112,134.951,139.389,142.283,146.535,150.041,152.624,157.063,159.646,163.4134,165.664,171.088,175.34,178.846,181.429,186.445,190.696,196.1677,198.375,201.331,204.668,209.515,219.608,227.011,231.45,235.213,238.107,242.4126,244.614,247.197,251.449,256.615,259.509,262.092,267.258,272.611,276.3784,278.629,282.881,288.305,293.152,298.575,302.827,306.5944,308.846,313.755,318.77819999999997,320.945,325.43,327.638,332.804,337.74,342.648,346.155,348.738,354.2097,356.416,361.583,366.518,371.942,375.279,380.126,383.02,388.186,392.438,395.944,403.783,408.221,410.8223,413.059,417.497,422.663,428.1347,430.342,438.18,443.027,445.61,448.504,452.755,457.9576,460.176,463.94,468.379,470.962,473.9221,476.11,481.445,484.792,489.638,493.58,497.832,501.595,505.36240000000004,507.614,510.57,515.416" svgx:width="0.44,0.5,0.4,0.55,0.55,0.58,0.55,0.88,0.5,0.33,0.48,0.4,0.29,0.5,0.29,0.42,0.55,0.61,0.48,0.4,0.29,0.56,0.48,0.61,0.55,0.33,0.4,0.55,0.88,0.83,0.5,0.42,0.33,0.48,0.55,0.29,0.48,0.58,0.33,0.29,0.58,0.6,0.42,0.55,0.48,0.61,0.55,0.61,0.48,0.42,0.55,0.55,0.56,0.55,0.5,0.55,0.58,0.56,0.55,0.4,0.29,0.61,0.55,0.58,0.56,0.61,0.4,0.55,0.33,0.58,0.48,0.4,0.88,0.5,0.29,0.55,0.5,0.58,0.61,0.55,0.88,0.55,0.29,0.33,0.48,0.58,0.55,0.42,0.5,0.29,0.33,0.55,0.6,0.4,0.55,0.44,0.48,0.42,0.42,0.55,0.33,0.55,0.4" style="fill:rgb(0,0,0);font-family:URWPalladioL-Roma;font-size:8.97px;stroke:none;">carbon materials derived fromwaste lentinus edodes by a hybrid hydrothermal and molten salt process for</text>
   <text y="536.843" x="98.05,101.852,107.258,112.647,116.942,120.323,124.304,128.787,134.176,138.659,142.64,145.249,148.172,153.068,156.656,158.851,163.334,168.723,174.112,176.721,179.33,183.312,187.795,190.718,193.327,198.223,203.441,207.243" svgx:width="0.42,0.6,0.6,0.48,0.4,0.44,0.5,0.6,0.5,0.44,0.29,0.33,0.55,0.4,0.55,0.5,0.6,0.6,0.29,0.29,0.44,0.5,0.33,0.29,0.55,0.58,0.42,0.25" style="fill:rgb(0,0,0);font-family:URWPalladioL-Roma;font-size:8.97px;stroke:none;">supercapacitor applications.</text>
   <text y="536.843" x="212.621,219.095,223.578,228.061,230.554,232.7965,235.934,240.919,245.904,249.392,251.885,254.1275,257.265,262.25,265.899,268.392" svgx:width="0.72,0.5,0.5,0.28,0.25,0.55,0.56,0.56,0.39,0.28,0.25,0.55,0.56,0.41,0.28,0.25" style="fill:rgb(0,0,0);font-family:URWPalladioL-Ital;font-size:8.97px;stroke:none;">Appl. Surf. Sci.</text>
   <text y="536.843" x="273.771,278.254,282.737,287.221" svgx:width="0.5,0.5,0.5,0.5" style="fill:rgb(0,0,0);font-family:URWPalladioL-Bold;font-size:8.97px;stroke:none;">2018</text>
   <text y="536.843" x="291.704" svgx:width="0.25" style="fill:rgb(0,0,0);font-family:URWPalladioL-Roma;font-size:8.97px;stroke:none;">,</text>
   <text y="536.843" x="296.187,300.67,305.153" svgx:width="0.5,0.5,0.5" style="fill:rgb(0,0,0);font-family:URWPalladioL-Ital;font-size:8.97px;stroke:none;">462</text>
   <text y="536.843" x="309.637,311.8795,314.12,318.603,323.087,327.57,332.053,336.536,341.02,345.503,347.7455,350.883" svgx:width="0.25,0.55,0.5,0.5,0.5,0.5,0.5,0.5,0.5,0.25,0.55,0.33" style="fill:rgb(0,0,0);font-family:URWPalladioL-Roma;font-size:8.97px;stroke:none;">, 862–871. [</text>
   <text y="536.843" x="353.868,360.226,363.606,368.502,372.303,376.105,382.095,386.39" svgx:width="0.71,0.4,0.55,0.42,0.42,0.67,0.48,0.33" style="fill:rgb(8,117,183);font-family:URWPalladioL-Roma;font-size:8.97px;stroke:none;">CrossRef</text>
   <text y="536.843" x="389.375" svgx:width="0.33" style="fill:rgb(0,0,0);font-family:URWPalladioL-Roma;font-size:8.97px;stroke:none;">]</text>
   <text y="549.754" x="76.535,81.018,85.501,87.74350000000001,98.05,104.15,109.473,114.467,119.789,124.874,127.1165,129.621,134.724,137.011,139.2535,141.867,146.669,151.992,154.653,156.8955,159.4,164.347,166.634,172.222,174.508,176.75050000000002,179.365,186.974,192.489,197.062,202.385,207.47,209.7125,212.216,217.32,219.606,224.709,226.996,229.23850000000002,231.861,238.346,243.668,248.049,253.372,258.457,260.6995,263.204,268.005,270.292,275.395,277.681,279.9235,282.538,288.126,290.787,295.36,300.354,302.5965,305.1,312.078,314.365,319.953,322.239,324.4815,327.096,331.879,336.452,341.775,346.86,349.1025,351.606,357.707,359.993,366.102,368.3445,370.849,378.037,383.36,387.741,390.787,394.664,397.646,402.027,407.409,409.983,413.861,418.946,424.269,427.251,432.573,436.954,440.832,443.493,447.2604,449.831,454.825,457.7851,460.331,465.827,470.821,474.278,479.271,484.786,488.5534,491.124,495.185,499.758,503.37,508.428,513.422" svgx:width="0.5,0.5,0.25,0.55,0.67,0.58,0.55,0.58,0.56,0.25,0.55,0.67,0.25,0.25,0.55,0.52,0.58,0.29,0.25,0.55,0.61,0.25,0.61,0.25,0.25,0.55,0.83,0.6,0.5,0.58,0.56,0.25,0.55,0.67,0.25,0.67,0.25,0.25,0.55,0.71,0.58,0.48,0.58,0.56,0.25,0.55,0.52,0.25,0.67,0.25,0.25,0.55,0.61,0.29,0.5,0.55,0.25,0.55,0.76,0.25,0.61,0.25,0.25,0.55,0.61,0.5,0.58,0.56,0.25,0.55,0.67,0.25,0.67,0.25,0.55,0.79,0.58,0.48,0.33,0.42,0.33,0.48,0.6,0.55,0.42,0.56,0.58,0.33,0.58,0.48,0.42,0.29,0.42,0.55,0.55,0.33,0.55,0.6,0.55,0.4,0.55,0.6,0.42,0.55,0.44,0.5,0.4,0.55,0.55,0.58" style="fill:rgb(0,0,0);font-family:URWPalladioL-Roma;font-size:8.97px;stroke:none;">34. Zhong, Y.; Shi, T.L.; Huang, Y.Y.; Cheng, S.Y.; Liao, G.L.; Tang, Z.R. One-step synthesis of porous carbon</text>
   <text y="562.666" x="98.05,103.479,107.735,111.245,113.831,118.851,123.108,128.5797,130.776,133.735,137.085,141.936,152.022,155.789,158.686,163.129,166.479,170.424,175.6266,177.835,180.794,185.645,189.233,191.394,195.837,198.423,201.009,203.968,207.913,212.356,215.866,220.779,225.631,230.8336,233.042,237.955,240.532,245.704,251.133,255.389,258.739,261.698,264.657,268.007,272.263,276.5686,278.759,283.93,286.516,291.456,296.628,299.587,303.097,307.539,310.436,314.7416,316.932,320.699,326.057,331.398,335.654,339.004,342.949,347.392,352.732,357.175,361.12,363.706,366.603,371.454,374.298" svgx:width="0.61,0.48,0.4,0.29,0.56,0.48,0.61,0.55,0.33,0.4,0.55,0.88,0.42,0.33,0.5,0.4,0.44,0.58,0.55,0.33,0.55,0.4,0.55,0.5,0.29,0.29,0.33,0.44,0.5,0.4,0.55,0.55,0.58,0.55,0.55,0.29,0.58,0.61,0.48,0.4,0.33,0.33,0.4,0.48,0.48,0.55,0.58,0.29,0.56,0.58,0.33,0.4,0.5,0.33,0.48,0.55,0.42,0.6,0.6,0.48,0.4,0.44,0.5,0.6,0.5,0.44,0.29,0.33,0.55,0.4,0.25" style="fill:rgb(0,0,0);font-family:URWPalladioL-Roma;font-size:8.97px;stroke:none;">derived fromstarch for all-carbon binder-free high-rate supercapacitor.</text>
   <text y="562.666" x="379.657,385.086,387.556,391.013,394.629,397.588,400.885,404.83,408.447,412.89,415.36,422.273,424.51550000000003,427.631,434.046,437.663,440.622" svgx:width="0.61,0.28,0.39,0.41,0.33,0.39,0.44,0.41,0.5,0.28,0.78,0.25,0.55,0.72,0.41,0.33,0.44" style="fill:rgb(0,0,0);font-family:URWPalladioL-Ital;font-size:8.97px;stroke:none;">Electrochim. Acta</text>
   <text y="562.666" x="446.805,451.288,455.771,460.255" svgx:width="0.5,0.5,0.5,0.5" style="fill:rgb(0,0,0);font-family:URWPalladioL-Bold;font-size:8.97px;stroke:none;">2018</text>
   <text y="562.666" x="464.737" svgx:width="0.25" style="fill:rgb(0,0,0);font-family:URWPalladioL-Roma;font-size:8.97px;stroke:none;">,</text>
   <text y="562.666" x="469.198,473.641,478.084" svgx:width="0.5,0.5,0.5" style="fill:rgb(0,0,0);font-family:URWPalladioL-Ital;font-size:8.97px;stroke:none;">269</text>
   <text y="562.666" x="482.527,484.7695,486.988,491.43,495.873,500.316,504.759,509.202,513.645,518.088" svgx:width="0.25,0.55,0.5,0.5,0.5,0.5,0.5,0.5,0.5,0.25" style="fill:rgb(0,0,0);font-family:URWPalladioL-Roma;font-size:8.97px;stroke:none;">, 676–685.</text>
   <text y="575.578" x="98.05" svgx:width="0.33" style="fill:rgb(0,0,0);font-family:URWPalladioL-Roma;font-size:8.97px;stroke:none;">[</text>
   <text y="575.578" x="101.036,107.393,110.773,115.669,119.471,123.272,129.262,133.557" svgx:width="0.71,0.4,0.55,0.42,0.42,0.67,0.48,0.33" style="fill:rgb(8,117,183);font-family:URWPalladioL-Roma;font-size:8.97px;stroke:none;">CrossRef</text>
   <text y="575.578" x="136.543" svgx:width="0.33" style="fill:rgb(0,0,0);font-family:URWPalladioL-Roma;font-size:8.97px;stroke:none;">]</text>
   <text y="588.489" x="76.535,81.018,85.501,87.74350000000001,98.05,104.159,109.674,111.91650000000001,114.247,121.856,124.143,131.752,134.038,136.28050000000002,138.648,144.236,148.809,151.47,153.7125,156.043,163.643,165.93,171.518,173.804,176.0465,178.404,184.505,187.166,191.739,197.062,202.147,204.3895,206.72,213.359,215.646,221.746,224.032,226.27450000000002,228.633,234.733,240.056,245.049,250.564,252.8065,255.146,263.469,265.755,267.9975,270.356,276.84,282.163,286.544,291.866,294.1085,296.439,304.048,306.335,308.5775,310.935,317.035,322.358,326.931,331.925,334.1675,336.507,342.607,344.893,349.695,351.9375,354.268,359.792,364.785,368.233,373.227,378.742,382.5094,384.915,388.976,393.549,397.161,402.219,407.212,412.535,416.30240000000003,418.699,424.287,428.668,432.281,434.942,440.109,444.49,449.9617,452.374,455.419,458.867,463.861,471.7546,474.223,482.299,484.96,489.021,492.478,497.471,502.044,504.706,509.791,514.364" svgx:width="0.5,0.5,0.25,0.55,0.67,0.6,0.25,0.55,0.83,0.25,0.83,0.25,0.25,0.55,0.61,0.5,0.29,0.25,0.55,0.83,0.25,0.61,0.25,0.25,0.55,0.67,0.29,0.5,0.58,0.56,0.25,0.55,0.73,0.25,0.67,0.25,0.25,0.55,0.67,0.58,0.55,0.6,0.25,0.55,1.0,0.25,0.25,0.55,0.71,0.58,0.48,0.58,0.25,0.55,0.83,0.25,0.25,0.55,0.67,0.58,0.5,0.55,0.25,0.55,0.67,0.25,0.52,0.25,0.55,0.6,0.55,0.4,0.55,0.6,0.42,0.55,0.44,0.5,0.4,0.55,0.55,0.58,0.42,0.55,0.61,0.48,0.4,0.29,0.56,0.48,0.61,0.55,0.33,0.4,0.55,0.88,0.55,0.88,0.29,0.44,0.4,0.55,0.5,0.29,0.56,0.5,0.48" style="fill:rgb(0,0,0);font-family:URWPalladioL-Roma;font-size:8.97px;stroke:none;">35. Ru, H.H.; Bai, N.B.; Xiang, K.X.; Zhou, W.; Chen, H.; Zhao, X.S. Porous carbons derived from microalgae</text>
   <text y="601.401" x="97.674,105.302,107.963,110.944,116.1466,118.837,123.218,128.541,133.864,138.437,143.759,147.82,152.201,157.6727,160.359,164.74,167.401,171.782,175.843,178.824,182.272,187.266,191.326,196.649,201.03,209.106,211.767,215.828,220.4,223.00130000000001,225.632,231.128,235.509,239.122,242.167,247.161,250.773,258.849,263.422,268.745,272.806,277.1116,279.756,282.802,287.795,291.38300000000004,293.978,296.639,299.301,302.282,307.605,310.266,315.781,323.857,326.902,329.564,334.557,339.75960000000003,342.441,347.499,352.072,355.053,358.035,362.415,366.028,368.689,373.07,376.948" svgx:width="0.83,0.29,0.33,0.58,0.55,0.48,0.58,0.58,0.5,0.58,0.44,0.48,0.61,0.55,0.48,0.29,0.48,0.44,0.33,0.4,0.55,0.44,0.58,0.48,0.88,0.29,0.44,0.5,0.29,0.55,0.6,0.48,0.4,0.33,0.55,0.4,0.88,0.5,0.58,0.44,0.48,0.55,0.33,0.55,0.4,0.55,0.29,0.29,0.33,0.58,0.29,0.6,0.88,0.33,0.29,0.55,0.58,0.55,0.55,0.5,0.33,0.33,0.48,0.4,0.29,0.48,0.42,0.25" style="fill:rgb(0,0,0);font-family:URWPalladioL-Roma;font-size:8.97px;stroke:none;">with enhanced electrochemical performance for lithium-ion batteries.</text>
   <text y="601.401" x="383.359,388.947,391.49,395.047,398.77,401.815,405.208,409.269,412.991,417.564,420.107,427.222,429.4645,433.633,440.236,443.959,447.004" svgx:width="0.61,0.28,0.39,0.41,0.33,0.39,0.44,0.41,0.5,0.28,0.78,0.25,0.55,0.72,0.41,0.33,0.44" style="fill:rgb(0,0,0);font-family:URWPalladioL-Ital;font-size:8.97px;stroke:none;">Electrochim. Acta</text>
   <text y="601.401" x="453.632,458.115,462.598,467.082" svgx:width="0.5,0.5,0.5,0.5" style="fill:rgb(0,0,0);font-family:URWPalladioL-Bold;font-size:8.97px;stroke:none;">2016</text>
   <text y="601.401" x="471.565" svgx:width="0.25" style="fill:rgb(0,0,0);font-family:URWPalladioL-Roma;font-size:8.97px;stroke:none;">,</text>
   <text y="601.401" x="476.503,481.076,485.649" svgx:width="0.5,0.5,0.5" style="fill:rgb(0,0,0);font-family:URWPalladioL-Ital;font-size:8.97px;stroke:none;">194</text>
   <text y="601.401" x="490.221,492.4635,495.16,499.733,504.305,508.878,513.451,518.024" svgx:width="0.25,0.55,0.5,0.5,0.5,0.5,0.5,0.25" style="fill:rgb(0,0,0);font-family:URWPalladioL-Roma;font-size:8.97px;stroke:none;">, 10–16.</text>
   <text y="614.312" x="98.05" svgx:width="0.33" style="fill:rgb(0,0,0);font-family:URWPalladioL-Roma;font-size:8.97px;stroke:none;">[</text>
   <text y="614.312" x="101.036,107.393,110.773,115.669,119.471,123.272,129.262,133.557" svgx:width="0.71,0.4,0.55,0.42,0.42,0.67,0.48,0.33" style="fill:rgb(8,117,183);font-family:URWPalladioL-Roma;font-size:8.97px;stroke:none;">CrossRef</text>
   <text y="614.312" x="136.543" svgx:width="0.33" style="fill:rgb(0,0,0);font-family:URWPalladioL-Roma;font-size:8.97px;stroke:none;">]</text>
   <text y="627.224" x="76.535,81.018,85.501,87.74350000000001,98.05,104.985,110.305,112.54750000000001,114.761,117.699,119.904,126.31,128.516,130.7585,132.989,138.044,142.456,147.591,152.496,154.73850000000002,156.961,162.352,164.557,166.7995,169.022,174.907,180.042,184.453,189.588,194.494,196.7365,198.949,204.834,207.04,209.2825,211.504,217.389,219.957,222.1995,224.421,230.306,232.512,239.852,242.0945,244.308,251.648,256.466,261.601,265.827,270.733,274.473,279.794,283.711,288.617,291.184,295.41,298.348,303.739,307.965,311.45,314.018,319.003,323.229,328.7007,330.87,336.005,338.572,342.798,346.283,350.695,354.021,357.938,363.073,365.641,369.558,373.97,376.5713,378.787,384.09,388.907,392.233,397.05,402.371,406.1384,408.37,413.505,416.073,418.949,422.266,427.084,431.989,436.215,441.35,443.59250000000003,445.815,449.556,454.876,457.443,460.382,465.702,468.525,470.7675,472.99,478.38,483.701,488.112,490.679,493.618,499.008,503.826,509.119,513.346" svgx:width="0.5,0.5,0.25,0.55,0.79,0.6,0.25,0.55,0.33,0.25,0.73,0.25,0.25,0.55,0.67,0.5,0.58,0.56,0.25,0.55,0.61,0.25,0.25,0.55,0.67,0.58,0.5,0.58,0.56,0.25,0.55,0.67,0.25,0.25,0.55,0.67,0.29,0.25,0.55,0.67,0.25,0.83,0.25,0.55,0.83,0.55,0.58,0.48,0.56,0.42,0.6,0.44,0.56,0.29,0.48,0.33,0.61,0.48,0.4,0.29,0.56,0.48,0.61,0.55,0.58,0.29,0.48,0.4,0.5,0.4,0.44,0.58,0.29,0.44,0.5,0.29,0.55,0.6,0.55,0.4,0.55,0.6,0.42,0.55,0.58,0.29,0.33,0.4,0.55,0.56,0.48,0.58,0.25,0.55,0.42,0.6,0.29,0.33,0.6,0.4,0.25,0.55,0.61,0.6,0.5,0.29,0.33,0.61,0.55,0.6,0.48,0.61" style="fill:rgb(0,0,0);font-family:URWPalladioL-Roma;font-size:8.97px;stroke:none;">36. Ou, J.K.; Yang, L.; Zhang, Z.; Xi, X.H. Honeysuckle-derived hierarchical porous nitrogen, sulfur, dual-doped</text>
   <text y="640.136" x="98.05,102.031,106.514,110.056,115.014,119.91,125.1126,127.37,130.356,135.252,138.84,141.035,146.442,149.051,151.974,155.516,159.999,162.985,168.203,170.812,175.798,181.0006,183.258,186.799,191.283,194.206,198.5116,200.742,203.351,205.961,208.884,214.102,216.711,222.118,232.277,234.886,239.782,244.9846,247.242,252.2,256.684,259.607,262.53,266.825,270.366,275.38919999999996,277.593,282.076,287.295,292.191,297.669,301.964,305.766" svgx:width="0.44,0.5,0.4,0.55,0.55,0.58,0.55,0.33,0.55,0.4,0.55,0.6,0.29,0.33,0.4,0.5,0.33,0.58,0.29,0.56,0.58,0.55,0.4,0.5,0.33,0.48,0.55,0.29,0.29,0.33,0.58,0.29,0.6,0.88,0.29,0.55,0.58,0.55,0.55,0.5,0.33,0.33,0.48,0.4,0.56,0.55,0.5,0.58,0.55,0.61,0.48,0.42,0.25" style="fill:rgb(0,0,0);font-family:URWPalladioL-Roma;font-size:8.97px;stroke:none;">carbon for ultra-high rate lithiumion battery anodes.</text>
   <text y="640.136" x="311.143,314.129,316.3715,318.612,324.091,328.072,334.545,338.033,341.5313,343.763,348.748,352.729,357.715,361.041,364.69,368.178" svgx:width="0.33,0.25,0.55,0.61,0.44,0.72,0.39,0.39,0.55,0.56,0.44,0.56,0.39,0.41,0.39,0.39" style="fill:rgb(0,0,0);font-family:URWPalladioL-Ital;font-size:8.97px;stroke:none;">J. Power Sources</text>
   <text y="640.136" x="373.906,378.389,382.872,387.356" svgx:width="0.5,0.5,0.5,0.5" style="fill:rgb(0,0,0);font-family:URWPalladioL-Bold;font-size:8.97px;stroke:none;">2016</text>
   <text y="640.136" x="391.839" svgx:width="0.25" style="fill:rgb(0,0,0);font-family:URWPalladioL-Roma;font-size:8.97px;stroke:none;">,</text>
   <text y="640.136" x="396.322,400.805,405.288" svgx:width="0.5,0.5,0.5" style="fill:rgb(0,0,0);font-family:URWPalladioL-Ital;font-size:8.97px;stroke:none;">333</text>
   <text y="640.136" x="409.772,412.0145,414.255,418.738,423.222,427.705,432.188,436.671,441.155,445.638,447.8805,451.018" svgx:width="0.25,0.55,0.5,0.5,0.5,0.5,0.5,0.5,0.5,0.25,0.55,0.33" style="fill:rgb(0,0,0);font-family:URWPalladioL-Roma;font-size:8.97px;stroke:none;">, 193–202. [</text>
   <text y="640.136" x="454.003,460.361,463.741,468.637,472.438,476.24,482.23,486.525" svgx:width="0.71,0.4,0.55,0.42,0.42,0.67,0.48,0.33" style="fill:rgb(8,117,183);font-family:URWPalladioL-Roma;font-size:8.97px;stroke:none;">CrossRef</text>
   <text y="640.136" x="489.51" svgx:width="0.33" style="fill:rgb(0,0,0);font-family:URWPalladioL-Roma;font-size:8.97px;stroke:none;">]</text>
   <text y="653.047" x="76.535,81.018,85.501,87.74350000000001,98.05,102.852,107.845,113.168,118.253,120.4955,124.243,129.045,131.331,133.5735,138.044,146.696,151.269,153.5115,157.259,161.512,163.799,166.0415,170.521,179.218,184.733,186.9755,190.715,197.693,199.979,202.22150000000002,206.701,215.353,219.926,222.1685,225.907,232.986,235.273,237.5155,241.995,248.973,253.354,258.667,263.752,265.9945,269.743,278.065,280.352,282.5945,287.065,295.387,299.96,305.283,307.5255,311.274,314.319,316.5615,320.3,325.385,329.958,334.019,336.68,339.342,343.6476,347.427,351.304,355.685,358.347,361.392,364.438,367.419,371.8,379.876,385.372,388.034,392.607,395.588,398.249,403.572,408.5952,412.352,415.014,419.586,423.044,428.129,432.43460000000005,436.204,440.082,444.143,448.716,451.377,455.68260000000004,459.462,464.958,468.406,472.787,478.284,482.857,486.469,491.042,494.023,496.685,501.678,506.8806,510.705,515.699" svgx:width="0.5,0.5,0.25,0.55,0.52,0.55,0.58,0.56,0.25,0.55,0.52,0.25,0.25,0.55,0.95,0.5,0.25,0.55,0.56,0.25,0.25,0.55,1.0,0.6,0.25,0.55,0.76,0.25,0.25,0.55,0.95,0.5,0.25,0.55,0.77,0.25,0.25,0.55,0.76,0.48,0.58,0.56,0.25,0.55,1.0,0.25,0.25,0.55,1.0,0.5,0.58,0.25,0.55,0.33,0.25,0.55,0.56,0.5,0.44,0.29,0.29,0.48,0.55,0.42,0.48,0.29,0.33,0.33,0.33,0.48,0.88,0.6,0.29,0.5,0.33,0.29,0.58,0.56,0.55,0.29,0.5,0.4,0.56,0.48,0.55,0.42,0.44,0.5,0.29,0.48,0.55,0.6,0.4,0.48,0.6,0.5,0.4,0.5,0.33,0.29,0.55,0.58,0.55,0.55,0.33" style="fill:rgb(0,0,0);font-family:URWPalladioL-Roma;font-size:8.97px;stroke:none;">37. Song, S.; Ma, F.; Wu, G.; Ma, D.; Geng, W.; Wan, J. Facile self-templating large scale preparation of</text>
   <text y="665.959" x="98.05,103.108,105.769,110.763,118.838,123.411,127.289,131.167,134.212,139.8,144.181,147.794,150.455,155.622,160.003,165.47469999999998,168.015,172.588,179.4949,182.099,187.422,190.083,194.464,198.077,202.65,206.098,210.158,215.481,218.143,222.203,226.776,229.37730000000002,231.861,237.358,242.351,245.808,250.802,256.317,260.0844,262.618,266.679,271.252,274.864,279.922,284.915,290.11760000000004,292.671,295.717,300.71,304.298,306.746,311.319,316.907,322.075,326.647,331.97,336.031,340.412,345.8837,348.423,352.301,357.816,363.313,367.693,371.15,375.211,379.784,385.281,389.854,393.914,396.576,399.557,404.551,408.163,412.041" svgx:width="0.55,0.29,0.55,0.88,0.5,0.42,0.42,0.33,0.61,0.48,0.4,0.29,0.56,0.48,0.61,0.55,0.5,0.77,0.55,0.58,0.29,0.48,0.4,0.5,0.4,0.44,0.58,0.29,0.44,0.5,0.29,0.55,0.6,0.55,0.4,0.55,0.6,0.42,0.55,0.44,0.5,0.4,0.55,0.55,0.58,0.55,0.33,0.55,0.4,0.55,0.5,0.61,0.56,0.5,0.58,0.44,0.48,0.61,0.55,0.42,0.6,0.6,0.48,0.4,0.44,0.5,0.6,0.5,0.44,0.29,0.33,0.55,0.4,0.42,0.25" style="fill:rgb(0,0,0);font-family:URWPalladioL-Roma;font-size:8.97px;stroke:none;">biomass-derived 3D hierarchical porous carbon for advanced supercapacitors.</text>
   <text y="665.959" x="418.018,421.064,423.3065,425.774,434.407,438.468,441.513,445.071,447.97,450.21250000000003,453.952,460.052,464.625,468.182,475.298,477.5405,481.279" svgx:width="0.33,0.25,0.55,0.94,0.44,0.33,0.39,0.39,0.25,0.55,0.67,0.5,0.39,0.78,0.25,0.55,0.72" style="fill:rgb(0,0,0);font-family:URWPalladioL-Ital;font-size:8.97px;stroke:none;">J. Mater. Chem. A</text>
   <text y="665.959" x="490.309,494.792,499.275,503.759" svgx:width="0.5,0.5,0.5,0.5" style="fill:rgb(0,0,0);font-family:URWPalladioL-Bold;font-size:8.97px;stroke:none;">2015</text>
   <text y="665.959" x="508.242" svgx:width="0.25" style="fill:rgb(0,0,0);font-family:URWPalladioL-Roma;font-size:8.97px;stroke:none;">,</text>
   <text y="665.959" x="513.002" svgx:width="0.5" style="fill:rgb(0,0,0);font-family:URWPalladioL-Ital;font-size:8.97px;stroke:none;">3</text>
   <text y="665.959" x="517.575" svgx:width="0.25" style="fill:rgb(0,0,0);font-family:URWPalladioL-Roma;font-size:8.97px;stroke:none;">,</text>
   <text y="678.871" x="97.602,102.085,106.568,111.052,115.535,120.018,124.501,128.984,133.468,137.951,142.434,146.917,149.1595,152.297" svgx:width="0.5,0.5,0.5,0.5,0.5,0.5,0.5,0.5,0.5,0.5,0.5,0.25,0.55,0.33" style="fill:rgb(0,0,0);font-family:URWPalladioL-Roma;font-size:8.97px;stroke:none;">18154–18162. [</text>
   <text y="678.871" x="155.283,161.64,165.02,169.916,173.718,177.52,183.509,187.804" svgx:width="0.71,0.4,0.55,0.42,0.42,0.67,0.48,0.33" style="fill:rgb(8,117,183);font-family:URWPalladioL-Roma;font-size:8.97px;stroke:none;">CrossRef</text>
   <text y="678.871" x="190.79" svgx:width="0.33" style="fill:rgb(0,0,0);font-family:URWPalladioL-Roma;font-size:8.97px;stroke:none;">]</text>
   <text y="691.782" x="76.535,81.018,85.501,87.74350000000001,98.05,102.663,106.872,111.758,116.151,118.963,121.2055,123.111,127.724,129.921,132.1635,134.174,139.543,143.752,147.961,150.20350000000002,152.117,156.985,159.182,161.4245,163.435,169.814,172.371,180.121,182.36350000000002,184.278,191.079,193.275,198.144,200.34,202.5825,204.593,209.962,214.171,218.38,220.6225,222.536,227.15,229.3925,231.306,235.919,241.218,246.077,249.803,252.667,257.061,262.175,265.039,267.597,271.99,274.5913,276.507,281.875,284.837,290.3087,292.165,296.559,301.673,306.47,311.839,316.1446,318.008,323.289,327.498,330.969,333.895,338.693,342.164,349.922,354.316,359.43,363.323,367.6286,369.491,374.289,377.2491,379.175,384.06,387.531,391.925,397.206,402.32,404.877,407.741,410.298,414.2448,416.159,420.061,424.454,427.925,432.784,437.582,442.7846,444.656,449.77,454.163,459.277,464.075,469.418,473.811,478.697,482.906,486.6734,488.591,493.96,498.169,501.64,504.197,509.162,513.371" svgx:width="0.5,0.5,0.25,0.55,0.52,0.48,0.56,0.5,0.4,0.25,0.55,0.52,0.25,0.25,0.55,0.61,0.48,0.48,0.25,0.55,0.67,0.25,0.25,0.55,0.73,0.29,0.88,0.25,0.55,0.77,0.25,0.67,0.25,0.25,0.55,0.61,0.48,0.48,0.25,0.55,0.52,0.25,0.55,0.52,0.6,0.55,0.42,0.33,0.5,0.58,0.33,0.29,0.5,0.29,0.55,0.61,0.34,0.61,0.55,0.5,0.58,0.55,0.61,0.48,0.55,0.6,0.48,0.4,0.33,0.55,0.4,0.88,0.5,0.58,0.44,0.48,0.55,0.55,0.33,0.55,0.56,0.4,0.5,0.6,0.58,0.29,0.33,0.29,0.44,0.55,0.44,0.5,0.4,0.55,0.55,0.58,0.55,0.58,0.5,0.58,0.55,0.61,0.5,0.56,0.48,0.42,0.55,0.61,0.48,0.4,0.29,0.56,0.48,0.61" style="fill:rgb(0,0,0);font-family:URWPalladioL-Roma;font-size:8.97px;stroke:none;">38. Sekar, S.; Lee, Y.; Kim, D.Y.; Lee, S. Substantial LIB anode performance of graphitic carbon nanoﬂakes derived</text>
   <text y="704.694" x="98.05,101.036,104.416,109.312,119.471,124.429,127.038,131.934,139.851,144.335,148.136,151.9034,154.18,159.165,162.545,166.84,171.135,176.354,179.339,182.262,186.557,191.042,193.282,200.76,205.243,209.045,211.968,216.263" svgx:width="0.33,0.4,0.55,0.88,0.55,0.29,0.55,0.88,0.5,0.42,0.42,0.55,0.56,0.4,0.48,0.48,0.58,0.33,0.33,0.48,0.5,0.55,0.83,0.5,0.42,0.33,0.48,0.25" style="fill:rgb(0,0,0);font-family:URWPalladioL-Roma;font-size:8.97px;stroke:none;">frombiomass green-tea waste.</text>
   <text y="704.694" x="221.642,228.618,232.599,237.584,241.565,248.541,252.522,255.508,258.996,262.484,264.977,268.958,271.45" svgx:width="0.78,0.44,0.56,0.44,0.78,0.44,0.33,0.39,0.39,0.28,0.44,0.28,0.39" style="fill:rgb(0,0,0);font-family:URWPalladioL-Ital;font-size:8.97px;stroke:none;">Nanomaterials</text>
   <text y="704.694" x="277.179,281.662,286.145,290.629" svgx:width="0.5,0.5,0.5,0.5" style="fill:rgb(0,0,0);font-family:URWPalladioL-Bold;font-size:8.97px;stroke:none;">2019</text>
   <text y="704.694" x="295.111" svgx:width="0.25" style="fill:rgb(0,0,0);font-family:URWPalladioL-Roma;font-size:8.97px;stroke:none;">,</text>
   <text y="704.694" x="299.595" svgx:width="0.5" style="fill:rgb(0,0,0);font-family:URWPalladioL-Ital;font-size:8.97px;stroke:none;">9</text>
   <text y="704.694" x="304.078,306.3205,308.561,313.044,317.528,322.011,324.25350000000003,327.391" svgx:width="0.25,0.55,0.5,0.5,0.5,0.25,0.55,0.33" style="fill:rgb(0,0,0);font-family:URWPalladioL-Roma;font-size:8.97px;stroke:none;">, 871. [</text>
   <text y="704.694" x="330.377,336.734,340.114,345.01,348.811,352.613,358.603,362.898" svgx:width="0.71,0.4,0.55,0.42,0.42,0.67,0.48,0.33" style="fill:rgb(8,117,183);font-family:URWPalladioL-Roma;font-size:8.97px;stroke:none;">CrossRef</text>
   <text y="704.694" x="365.883" svgx:width="0.33" style="fill:rgb(0,0,0);font-family:URWPalladioL-Roma;font-size:8.97px;stroke:none;">]</text>
   <text y="717.605" x="76.535,81.018,85.501,87.74350000000001,98.05,105.352,109.746,114.631,119.025,121.582,125.975,130.861,134.587,139.701,147.46,150.017,152.2595,154.366,162.679,164.876,167.1185,169.26,175.64,180.033,182.59,186.984,189.541,193.267,197.476,200.033,204.997,207.555,209.7975,211.913,219.215,221.4575,223.565,231.877,236.086,239.812,244.61,249.891,254.688,258.001,262.799,268.097,271.8644,273.976,279.345,284.143,291.902,294.459,299.573,303.966,309.08,312.0401,314.107,317.999,322.393,326.118,331.232,335.441,342.77,347.884,353.183,356.1431,358.209,361.935,367.049,371.258,375.651,378.516,383.71860000000004,385.783,391.152,395.361,398.831,401.388,406.353,410.562,416.0337,418.093,422.952,425.509,430.307,433.233,437.134,441.528,444.999,449.858,454.656,459.8586,461.923,466.316,471.43,476.228,481.597,485.9026,487.967,490.894,495.691,499.279,501.315,506.684,509.645,515.014" svgx:width="0.5,0.5,0.25,0.55,0.83,0.5,0.56,0.5,0.29,0.5,0.56,0.42,0.58,0.88,0.29,0.25,0.55,0.95,0.25,0.25,0.55,0.73,0.5,0.29,0.5,0.29,0.42,0.48,0.29,0.56,0.29,0.25,0.55,0.83,0.25,0.55,0.95,0.48,0.42,0.55,0.6,0.55,0.4,0.55,0.6,0.42,0.55,0.61,0.55,0.88,0.29,0.58,0.5,0.58,0.33,0.55,0.44,0.5,0.42,0.58,0.48,0.83,0.58,0.6,0.33,0.55,0.42,0.58,0.48,0.5,0.33,0.58,0.55,0.61,0.48,0.4,0.29,0.56,0.48,0.61,0.55,0.55,0.29,0.55,0.33,0.44,0.5,0.4,0.55,0.55,0.58,0.55,0.5,0.58,0.55,0.61,0.48,0.55,0.33,0.55,0.4,0.55,0.61,0.34,0.61,0.42" style="fill:rgb(0,0,0);font-family:URWPalladioL-Roma;font-size:8.97px;stroke:none;">39. Nagalakshmi, M.; Kalaiselvi, N. Mesoporous dominant cashewnut sheath derived bio-carbon anode for LIBs</text>
   <text y="730.517" x="98.05,102.533,107.752,113.2237,115.472,120.179,123.201,128.679,132.481" svgx:width="0.5,0.58,0.61,0.55,0.52,0.34,0.61,0.42,0.25" style="fill:rgb(0,0,0);font-family:URWPalladioL-Roma;font-size:8.97px;stroke:none;">and SIBs.</text>
   <text y="730.517" x="137.861,143.339,145.832,149.32,152.969,155.955,159.282,163.263,166.912,171.395,173.888,180.864,183.1065,186.244,192.717,196.367,199.353" svgx:width="0.61,0.28,0.39,0.41,0.33,0.39,0.44,0.41,0.5,0.28,0.78,0.25,0.55,0.72,0.41,0.33,0.44" style="fill:rgb(0,0,0);font-family:URWPalladioL-Ital;font-size:8.97px;stroke:none;">Electrochim. Acta</text>
   <text y="730.517" x="205.574,210.057,214.54,219.024" svgx:width="0.5,0.5,0.5,0.5" style="fill:rgb(0,0,0);font-family:URWPalladioL-Bold;font-size:8.97px;stroke:none;">2019</text>
   <text y="730.517" x="223.507" svgx:width="0.25" style="fill:rgb(0,0,0);font-family:URWPalladioL-Roma;font-size:8.97px;stroke:none;">,</text>
   <text y="730.517" x="227.99,232.473,236.956" svgx:width="0.5,0.5,0.5" style="fill:rgb(0,0,0);font-family:URWPalladioL-Ital;font-size:8.97px;stroke:none;">304</text>
   <text y="730.517" x="241.44,243.6825,245.923,250.406,254.89,259.373,263.856,268.339,272.822,277.306,279.5485,282.686" svgx:width="0.25,0.55,0.5,0.5,0.5,0.5,0.5,0.5,0.5,0.25,0.55,0.33" style="fill:rgb(0,0,0);font-family:URWPalladioL-Roma;font-size:8.97px;stroke:none;">, 175–183. [</text>
   <text y="730.517" x="285.671,292.029,295.409,300.304,304.106,307.908,313.898,318.192" svgx:width="0.71,0.4,0.55,0.42,0.42,0.67,0.48,0.33" style="fill:rgb(8,117,183);font-family:URWPalladioL-Roma;font-size:8.97px;stroke:none;">CrossRef</text>
   <text y="730.517" x="321.178" svgx:width="0.33" style="fill:rgb(0,0,0);font-family:URWPalladioL-Roma;font-size:8.97px;stroke:none;">]</text>
   <text y="743.429" x="76.535,81.018,85.501,87.74350000000001,98.05,102.852,107.424,112.747,117.832,122.405,125.35,127.5925,130.417,135.218,137.505,139.7475,142.837,148.425,152.805,157.186,159.4285,162.253,169.862,172.149,174.3915,177.481,180.526,186.041,191.364,196.449,198.69150000000002,201.516,209.125,211.411,213.6535,216.743,223.383,226.045,234.12,236.3625,239.187,246.302,248.589,250.8315,253.921,261.036,266.359,274.435,278.815,284.403,286.6455,289.461,296.576,298.863,303.811,306.097,313.213,315.499,317.74150000000003,320.831,323.913,329.236,333.809,341.884,347.473,352.045,354.99,357.2325,360.057,367.172,369.459,372.541,374.827,377.0695,380.159,386.799,389.461,397.536,399.7785,402.603,410.212,412.499,414.74150000000003,417.831,423.419,427.8,432.18,434.4225,437.238,442.039,444.326,446.56850000000003,449.667,452.749,460.825,463.0675,465.882,473.492,475.778,478.0205,481.11,487.75,490.411,498.487,500.72950000000003,503.554,510.632,512.919,518.022" svgx:width="0.5,0.5,0.25,0.55,0.52,0.5,0.58,0.56,0.5,0.4,0.25,0.55,0.52,0.25,0.25,0.55,0.61,0.48,0.48,0.25,0.55,0.83,0.25,0.25,0.55,0.33,0.6,0.58,0.56,0.25,0.55,0.83,0.25,0.25,0.55,0.73,0.29,0.88,0.25,0.55,0.78,0.25,0.25,0.55,0.78,0.58,0.88,0.48,0.61,0.25,0.55,0.78,0.25,0.61,0.25,0.78,0.25,0.25,0.55,0.34,0.58,0.5,0.88,0.61,0.5,0.4,0.25,0.55,0.78,0.25,0.34,0.25,0.25,0.55,0.73,0.29,0.88,0.25,0.55,0.83,0.25,0.25,0.55,0.61,0.48,0.48,0.25,0.55,0.52,0.25,0.25,0.55,0.34,0.88,0.25,0.55,0.83,0.25,0.25,0.55,0.73,0.29,0.88,0.25,0.55,0.77,0.25,0.67,0.25" style="fill:rgb(0,0,0);font-family:URWPalladioL-Roma;font-size:8.97px;stroke:none;">40. Sankar, S.; Lee, H.; Jung, H.; Kim, A.; Ahmed, A.T.A.; Inamdar, A.I.; Kim, H.; Lee, S.; Im, H.; Kim, D.Y.</text>
   <text y="756.34" x="98.05,105.165,107.827,110.808,114.421,118.994,121.975,127.298,129.959,135.1616,137.651,142.736,146.349,150.921,156.418,161.732,166.113,171.435,175.7406,178.185,183.508,188.081,193.403,198.397,202.275,207.598,211.978,216.359,219.341,223.10840000000002,225.587,231.175,235.547,239.159,241.821,246.988,251.369,256.8407,259.326,262.371,265.819,270.813,278.7066,281.257,284.87,287.531,291.592,295.8976,298.332,303.655,309.17,313.048,318.133,321.9004,324.379,327.425,332.418,336.00600000000003,338.4,342.268,347.783,351.661,354.642,359.215,361.877,367.199,371.772,376.83,379.491,383.7966,386.241,390.119,395.634,401.13,405.511,408.959,413.02,417.592,423.089,427.662,431.723,434.384,437.366,442.359,445.947,448.34,452.721,455.383,459.763,463.824,466.806,470.254,475.247,480.835,485.216,489.094" svgx:width="0.78,0.29,0.33,0.4,0.5,0.33,0.58,0.29,0.58,0.55,0.56,0.4,0.5,0.6,0.58,0.48,0.58,0.48,0.55,0.58,0.5,0.58,0.55,0.42,0.58,0.48,0.48,0.33,0.42,0.55,0.61,0.48,0.4,0.29,0.56,0.48,0.61,0.55,0.33,0.4,0.55,0.88,0.55,0.4,0.29,0.44,0.48,0.55,0.58,0.6,0.42,0.56,0.42,0.55,0.33,0.55,0.4,0.55,0.42,0.6,0.42,0.33,0.5,0.29,0.58,0.5,0.55,0.29,0.48,0.55,0.42,0.6,0.6,0.48,0.4,0.44,0.5,0.6,0.5,0.44,0.29,0.33,0.55,0.4,0.55,0.48,0.29,0.48,0.44,0.33,0.4,0.55,0.61,0.48,0.42,0.25" style="fill:rgb(0,0,0);font-family:URWPalladioL-Roma;font-size:8.97px;stroke:none;">Ultrathin graphene nanosheets derived from rice husks for sustainable supercapacitor electrodes.</text>
   <text y="756.34" x="494.888,502.003,505.561,512.0194,514.533,517.579" svgx:width="0.78,0.39,0.72,0.55,0.33,0.25" style="fill:rgb(0,0,0);font-family:URWPalladioL-Ital;font-size:8.97px;stroke:none;">New J.</text>
   <text y="769.252" x="97.755,103.736,108.219,111.707,118.683" svgx:width="0.67,0.5,0.39,0.78,0.25" style="fill:rgb(0,0,0);font-family:URWPalladioL-Ital;font-size:8.97px;stroke:none;">Chem.</text>
   <text y="769.252" x="124.062,128.545,133.028,137.512" svgx:width="0.5,0.5,0.5,0.5" style="fill:rgb(0,0,0);font-family:URWPalladioL-Bold;font-size:8.97px;stroke:none;">2017</text>
   <text y="769.252" x="141.994" svgx:width="0.25" style="fill:rgb(0,0,0);font-family:URWPalladioL-Roma;font-size:8.97px;stroke:none;">,</text>
   <text y="769.252" x="146.478,150.961" svgx:width="0.5,0.5" style="fill:rgb(0,0,0);font-family:URWPalladioL-Ital;font-size:8.97px;stroke:none;">41</text>
   <text y="769.252" x="155.444,157.6865,159.927,164.41,168.894,173.377,177.86,182.343,186.826,191.31,195.793,200.276,204.759,209.242,211.4845,214.622" svgx:width="0.25,0.55,0.5,0.5,0.5,0.5,0.5,0.5,0.5,0.5,0.5,0.5,0.5,0.25,0.55,0.33" style="fill:rgb(0,0,0);font-family:URWPalladioL-Roma;font-size:8.97px;stroke:none;">, 13792–13797. [</text>
   <text y="769.252" x="217.608,223.965,227.346,232.241,236.043,239.845,245.834,250.129" svgx:width="0.71,0.4,0.55,0.42,0.42,0.67,0.48,0.33" style="fill:rgb(8,117,183);font-family:URWPalladioL-Roma;font-size:8.97px;stroke:none;">CrossRef</text>
   <text y="769.252" x="253.115" svgx:width="0.33" style="fill:rgb(0,0,0);font-family:URWPalladioL-Roma;font-size:8.97px;stroke:none;">]</text>
  </g>
 </g>
</svg>
