<?xml version="1.0" encoding="UTF-8"?>
<svg height="772.796" width="530.3585" xmlns="http://www.w3.org/2000/svg">
 <g id="page" xmlns:svgx="http://www.xml-cml.org/schema/svgx">
  <g begin="text">
   <text y="62.979" x="76.535,82.736,86.274,90.706,94.245,100.445,103.984,106.638,109.738,112.839,115.055,118.593,120.809" svgx:width="0.78,0.44,0.56,0.44,0.78,0.44,0.33,0.39,0.39,0.28,0.44,0.28,0.39" style="fill:rgb(0,0,0);font-family:URWPalladioL-Ital;font-size:7.97px;stroke:none;">Nanomaterials</text>
   <text y="62.979" x="125.901,129.886,133.871,137.856" svgx:width="0.5,0.5,0.5,0.5" style="fill:rgb(0,0,0);font-family:URWPalladioL-Bold;font-size:7.97px;stroke:none;">2020</text>
   <text y="62.979" x="141.842" svgx:width="0.25" style="fill:rgb(0,0,0);font-family:URWPalladioL-Roma;font-size:7.97px;stroke:none;">,</text>
   <text y="62.979" x="145.827,149.812" svgx:width="0.5,0.5" style="fill:rgb(0,0,0);font-family:URWPalladioL-Ital;font-size:7.97px;stroke:none;">10</text>
   <text y="62.979" x="153.797,155.7895,157.782,161.767,165.752,169.73700000000002,495.794,499.779,501.772,506.123,508.7531,510.77,514.755" svgx:width="0.25,0.55,0.5,0.5,0.5,0.55,0.5,0.55,0.55,0.33,0.55,0.5,0.5" style="fill:rgb(0,0,0);font-family:URWPalladioL-Roma;font-size:7.97px;stroke:none;">, 346 8 of 11</text>
   <text y="97.848" x="76.535,83.009,87.994,93.473,98.951,101.937,105.918,108.904,112.85079999999999,115.126,120.112,123.6103,125.841,129.329,134.808,137.793,142.277,145.765,150.248,154.229,157.215" svgx:width="0.72,0.56,0.61,0.61,0.33,0.44,0.33,0.44,0.55,0.56,0.39,0.55,0.39,0.61,0.33,0.5,0.39,0.5,0.44,0.33,0.25" style="fill:rgb(0,0,0);font-family:URWPalladioL-Bold;font-size:8.97px;stroke:none;">Conﬂicts of Interest:</text>
   <text y="97.848" x="162.594,168.09,173.309,177.6146,179.845,184.329,189.735,192.658,197.877,202.772,206.314,210.0814,212.358,217.836,222.131,226.112,228.721,233.204,236.585,240.8906,243.121,248.34,253.2735,255.477,259.458,264.354,269.572,275.024,277.633,281.614,284.5741,286.779,291.674,294.6341,296.902,299.511,304.729,307.652,311.947,315.328,319.623,323.424,326.347" svgx:width="0.61,0.58,0.48,0.55,0.5,0.6,0.33,0.58,0.55,0.4,0.42,0.55,0.61,0.48,0.44,0.29,0.5,0.4,0.48,0.55,0.58,0.55,0.55,0.44,0.55,0.58,0.61,0.29,0.44,0.33,0.55,0.55,0.33,0.55,0.29,0.58,0.33,0.48,0.4,0.48,0.42,0.33,0.25" style="fill:rgb(0,0,0);font-family:URWPalladioL-Roma;font-size:8.97px;stroke:none;">The authors declare no conﬂict of interest.</text>
   <text y="124.15" x="76.535,83.728,88.709,92.585,97.566,101.441,106.423,112.51,116.933,121.915" svgx:width="0.72,0.5,0.39,0.5,0.39,0.5,0.61,0.44,0.5,0.44" style="fill:rgb(0,0,0);font-family:URWPalladioL-Bold;font-size:9.96px;stroke:none;">References</text>
   <text y="143.039" x="76.535,81.018,83.26050000000001,98.05,105.034,107.62,112.791,115.0335,117.252,123.552,125.773,131.203,133.424,135.6665,137.885,143.811,148.983,153.239,158.411,163.351,165.5935,167.812,174.689,176.911,184.303,186.525,188.7675,190.986,198.378,203.736,205.9785,208.197,215.181,217.403,221.517,223.738,225.9805,228.199,234.126,239.297,243.74,248.911,253.852,256.0945,258.312,264.239,266.461,274.867,277.088,279.33050000000003,281.549,289.608,294.051,299.222,304.163,306.4055,308.623,314.55,316.772,320.886,323.107,325.34950000000003,327.568,332.997,335.583,337.82550000000003,340.043,344.975,347.196,352.128,354.349,356.5915,358.81,364.737,369.908,375.266,377.5085,379.727,382.686,384.907,389.572,391.794,394.0365,396.254,403.238,408.596,410.8385,413.057,416.016,418.238,424.164,426.386,428.62850000000003,430.846,435.947,440.39,445.561,450.501,452.7435,454.962,461.262,463.484,470.876,473.098,475.3405,477.559,485.618,490.061,495.232,500.173,502.4155,504.633,509.565,511.786,518.086" svgx:width="0.5,0.25,0.55,0.79,0.29,0.58,0.25,0.55,0.71,0.25,0.61,0.25,0.25,0.55,0.67,0.58,0.48,0.58,0.56,0.25,0.55,0.77,0.25,0.83,0.25,0.25,0.55,0.83,0.6,0.25,0.55,0.79,0.25,0.56,0.25,0.25,0.55,0.67,0.58,0.5,0.58,0.56,0.25,0.55,0.67,0.25,0.95,0.25,0.25,0.55,1.0,0.5,0.58,0.56,0.25,0.55,0.67,0.25,0.56,0.25,0.25,0.55,0.61,0.29,0.25,0.55,0.67,0.25,0.67,0.25,0.25,0.55,0.67,0.58,0.6,0.25,0.55,0.33,0.25,0.52,0.25,0.25,0.55,0.79,0.6,0.25,0.55,0.33,0.25,0.67,0.25,0.25,0.55,0.67,0.5,0.58,0.56,0.25,0.55,0.71,0.25,0.83,0.25,0.25,0.55,1.0,0.5,0.58,0.56,0.25,0.55,0.67,0.25,0.71,0.25" style="fill:rgb(0,0,0);font-family:URWPalladioL-Roma;font-size:8.97px;stroke:none;">1. Qin, C.L.; Zheng, D.H.; Hu, Q.F.; Zhang, X.M.; Wang, Z.F.; Li, Y.Y.; Zhu, J.S.; Ou, J.Z.; Yang, C.H.; Wang, Y.C.</text>
   <text y="155.951" x="98.05,103.045,105.66,109.963,114.599,117.214,122.182,124.796,129.10160000000002,131.346,133.96,139.189,142.118,146.422,151.417,154.966,159.458,162.387,166.69,172.1617,174.426,182.359,186.662,189.591,194.084,196.698,199.312,201.927,205.8738,208.153,213.148,215.763,220.255,224.064,227.874,230.865,235.834,240.326,244.135,248.439,253.9107,256.174,259.984,264.476,269.705,275.194,282.687,285.301,289.291,294.4936,296.766,301.069,303.683,307.987,311.976,314.905,318.292,323.197,328.687,332.99,336.7574,339.046,342.038,346.943,350.531,352.738,357.967,360.572,365.568,370.796,373.788,379.188,383.491,387.04,390.032,394.937,398.486,406.419,410.912,416.14,420.129,424.43460000000005,426.679,434.172,438.475,442.968,446.516,451.009,455.977,458.591,462.89660000000003,465.141,469.633,472.248,474.862,477.854,481.663,486.569,489.183,491.797,497.287,500.279,504.088,507.017,511.509,514.438" svgx:width="0.56,0.29,0.48,0.52,0.29,0.55,0.29,0.48,0.55,0.29,0.58,0.33,0.48,0.56,0.4,0.5,0.33,0.48,0.61,0.55,0.88,0.48,0.33,0.5,0.29,0.29,0.29,0.44,0.55,0.56,0.29,0.5,0.42,0.42,0.33,0.55,0.5,0.42,0.48,0.61,0.55,0.42,0.5,0.58,0.61,0.83,0.29,0.44,0.58,0.55,0.48,0.29,0.48,0.44,0.33,0.4,0.55,0.61,0.48,0.42,0.55,0.33,0.55,0.4,0.55,0.58,0.29,0.56,0.58,0.33,0.6,0.48,0.4,0.33,0.55,0.4,0.88,0.5,0.58,0.44,0.48,0.55,0.83,0.48,0.5,0.4,0.5,0.55,0.29,0.48,0.55,0.5,0.29,0.29,0.33,0.42,0.55,0.29,0.29,0.61,0.33,0.42,0.33,0.5,0.33,0.48" style="fill:rgb(0,0,0);font-family:URWPalladioL-Roma;font-size:8.97px;stroke:none;">Flexible integrated metallic glass-based sandwich electrodes for high-performance wearable all-solid-state</text>
   <text y="168.862" x="98.05,101.852,107.258,112.647,116.942,120.323,124.304,128.787,134.176,138.659,142.64,145.249,148.172,153.068,156.61,160.411" svgx:width="0.42,0.6,0.6,0.48,0.4,0.44,0.5,0.6,0.5,0.44,0.29,0.33,0.55,0.4,0.42,0.25" style="fill:rgb(0,0,0);font-family:URWPalladioL-Roma;font-size:8.97px;stroke:none;">supercapacitors.</text>
   <text y="168.862" x="165.791,172.265,176.748,181.231,183.724,185.9665,189.104,197.568,201.549,204.535,208.023,210.847,213.08950000000002,216.227,220.71,224.691,229.174,233.156" svgx:width="0.72,0.5,0.5,0.28,0.25,0.55,0.94,0.44,0.33,0.39,0.39,0.25,0.55,0.61,0.44,0.5,0.44,0.5" style="fill:rgb(0,0,0);font-family:URWPalladioL-Ital;font-size:8.97px;stroke:none;">Appl. Mater. Today</text>
   <text y="168.862" x="239.879,244.362,248.845,253.329" svgx:width="0.5,0.5,0.5,0.5" style="fill:rgb(0,0,0);font-family:URWPalladioL-Bold;font-size:8.97px;stroke:none;">2020</text>
   <text y="168.862" x="257.812" svgx:width="0.25" style="fill:rgb(0,0,0);font-family:URWPalladioL-Roma;font-size:8.97px;stroke:none;">,</text>
   <text y="168.862" x="262.295,266.778" svgx:width="0.5,0.5" style="fill:rgb(0,0,0);font-family:URWPalladioL-Ital;font-size:8.97px;stroke:none;">19</text>
   <text y="168.862" x="271.261,273.50350000000003,275.744,280.227,284.711,289.194,293.677,298.16,302.643,304.8855,308.023" svgx:width="0.25,0.55,0.5,0.5,0.5,0.5,0.5,0.5,0.25,0.55,0.33" style="fill:rgb(0,0,0);font-family:URWPalladioL-Roma;font-size:8.97px;stroke:none;">, 100539. [</text>
   <text y="168.862" x="311.009,317.366,320.747,325.642,329.444,333.246,339.235,343.53" svgx:width="0.71,0.4,0.55,0.42,0.42,0.67,0.48,0.33" style="fill:rgb(8,117,183);font-family:URWPalladioL-Roma;font-size:8.97px;stroke:none;">CrossRef</text>
   <text y="168.862" x="346.516" svgx:width="0.33" style="fill:rgb(0,0,0);font-family:URWPalladioL-Roma;font-size:8.97px;stroke:none;">]</text>
   <text y="181.774" x="76.535,81.018,83.26050000000001,98.05,105.013,107.591,112.747,114.9895,117.203,123.484,125.698,131.111,133.326,135.5685,137.782,143.691,148.846,153.276,158.432,163.357,165.5995,167.813,172.73,174.944,179.595,181.81,184.0525,186.266,194.301,198.73,203.886,208.812,211.05450000000002,213.268,219.176,221.391,225.484,227.699,229.94150000000002,232.155,238.063,240.641,245.478,250.634,255.56,257.8025,260.016,267.386,269.601,276.564,278.778,281.0205,283.234,288.337,293.679,295.9215,298.135,305.505,307.72,309.96250000000003,312.176,318.085,323.241,327.67,332.507,334.7495,336.963,344.998,347.213,355.593,357.8355,360.049,367.012,372.168,376.411,379.361,383.117,386.005,390.249,395.63100000000003,397.814,401.57,406.496,411.652,414.539,419.695,423.939,427.695,430.273,434.04040000000003,436.27,441.107,444.06710000000004,446.298,452.579,457.921,464.884,471.502,476.401,479.9,484.329,488.085,491.8524,494.083,497.033,501.87,504.448,507.04929999999996,509.267,514.166" svgx:width="0.5,0.25,0.55,0.79,0.29,0.58,0.25,0.55,0.71,0.25,0.61,0.25,0.25,0.55,0.67,0.58,0.5,0.58,0.56,0.25,0.55,0.67,0.25,0.52,0.25,0.25,0.55,1.0,0.5,0.58,0.56,0.25,0.55,0.67,0.25,0.56,0.25,0.25,0.55,0.67,0.29,0.55,0.58,0.56,0.25,0.55,0.83,0.25,0.79,0.25,0.25,0.55,0.67,0.6,0.25,0.55,0.83,0.25,0.25,0.55,0.67,0.58,0.5,0.55,0.25,0.55,1.0,0.25,0.95,0.25,0.55,0.79,0.58,0.48,0.33,0.42,0.33,0.48,0.6,0.55,0.42,0.56,0.58,0.33,0.58,0.48,0.42,0.29,0.42,0.55,0.55,0.33,0.55,0.71,0.6,0.79,0.75,0.55,0.4,0.5,0.42,0.42,0.55,0.33,0.55,0.29,0.29,0.55,0.55,0.56" style="fill:rgb(0,0,0);font-family:URWPalladioL-Roma;font-size:8.97px;stroke:none;">2. Qin, C.L.; Zhang, Y.S.; Wang, Z.F.; Xiong, H.Q.; Yu, H.; Zhao, W.M. One-step synthesis of CuO@brass foil by</text>
   <text y="194.685" x="98.05,103.638,108.019,112.592,115.253,117.915,122.908,127.993,130.655,135.977,141.0002,143.431,151.507,155.888,158.869,164.192,169.185,174.6567,177.133,180.179,185.172,188.76,191.154,193.815,198.808,206.436,209.482,213.542,218.536,222.414,225.3741,227.764,233.324,237.705,242.424,245.077,250.134,252.796,257.1016,259.545,263.423,268.938,274.434,278.815,282.263,286.324,290.897,296.393,300.966,305.027,307.688,310.67,315.663,319.25100000000003,321.645,326.026,328.687,333.068,337.128,340.11,343.558,348.551,354.139,358.52,362.398" svgx:width="0.61,0.48,0.5,0.29,0.29,0.55,0.56,0.29,0.58,0.56,0.55,0.88,0.48,0.33,0.58,0.55,0.61,0.55,0.33,0.55,0.4,0.55,0.29,0.55,0.83,0.33,0.44,0.55,0.42,0.33,0.55,0.61,0.48,0.52,0.29,0.55,0.29,0.48,0.55,0.42,0.6,0.6,0.48,0.4,0.44,0.5,0.6,0.5,0.44,0.29,0.33,0.55,0.4,0.55,0.48,0.29,0.48,0.44,0.33,0.4,0.55,0.61,0.48,0.42,0.25" style="fill:rgb(0,0,0);font-family:URWPalladioL-Roma;font-size:8.97px;stroke:none;">dealloying method for low-cost ﬂexible supercapacitor electrodes.</text>
   <text y="194.685" x="368.198,371.244,373.48650000000004,375.899,384.532,388.593,391.639,395.196,398.086,400.3285,403.885,408.97,412.692,415.234,417.4765,421.033,429.666,433.727,436.773,440.33,443.22,445.46250000000003,449.019,454.607,457.149,460.707,464.429,467.475,470.868,474.929,480.014" svgx:width="0.33,0.25,0.55,0.94,0.44,0.33,0.39,0.39,0.25,0.55,0.56,0.41,0.28,0.25,0.55,0.94,0.44,0.33,0.39,0.39,0.25,0.55,0.61,0.28,0.39,0.41,0.33,0.39,0.44,0.56,0.25" style="fill:rgb(0,0,0);font-family:URWPalladioL-Ital;font-size:8.97px;stroke:none;">J. Mater. Sci. Mater. Electron.</text>
   <text y="194.685" x="485.813,490.296,494.779,499.263" svgx:width="0.5,0.5,0.5,0.5" style="fill:rgb(0,0,0);font-family:URWPalladioL-Bold;font-size:8.97px;stroke:none;">2016</text>
   <text y="194.685" x="503.746" svgx:width="0.25" style="fill:rgb(0,0,0);font-family:URWPalladioL-Roma;font-size:8.97px;stroke:none;">,</text>
   <text y="194.685" x="508.429,513.002" svgx:width="0.5,0.5" style="fill:rgb(0,0,0);font-family:URWPalladioL-Ital;font-size:8.97px;stroke:none;">27</text>
   <text y="194.685" x="517.575" svgx:width="0.25" style="fill:rgb(0,0,0);font-family:URWPalladioL-Roma;font-size:8.97px;stroke:none;">,</text>
   <text y="207.597" x="98.05,102.533,107.016,111.5,115.983,120.466,124.949,129.432,133.916,138.399,140.6415,143.779" svgx:width="0.5,0.5,0.5,0.5,0.5,0.5,0.5,0.5,0.5,0.25,0.55,0.33" style="fill:rgb(0,0,0);font-family:URWPalladioL-Roma;font-size:8.97px;stroke:none;">9206–9215. [</text>
   <text y="207.597" x="146.764,153.122,156.502,161.398,165.199,169.001,174.991,179.286" svgx:width="0.71,0.4,0.55,0.42,0.42,0.67,0.48,0.33" style="fill:rgb(8,117,183);font-family:URWPalladioL-Roma;font-size:8.97px;stroke:none;">CrossRef</text>
   <text y="207.597" x="182.271" svgx:width="0.33" style="fill:rgb(0,0,0);font-family:URWPalladioL-Roma;font-size:8.97px;stroke:none;">]</text>
   <text y="220.509" x="76.535,81.018,83.26050000000001,98.05,106.373,110.945,116.268,121.353,123.5955,126.502,132.603,134.889,139.151,141.437,143.67950000000002,146.906,151.992,156.372,159.034,161.2765,164.192,168.554,170.841,175.944,178.231,180.4735,183.7,189.8,192.461,197.455,202.778,207.863,210.1055,213.021,220.63,222.917,230.105,232.392,234.6345,237.852,245.04,247.702,253.024,255.2665,258.183,264.667,266.953,272.541,274.828,277.0705,280.297,286.397,291.72,296.293,301.286,303.5285,306.435,314.758,317.044,325.696,327.983,330.2255,333.452,339.04,341.701,347.216,349.4585,352.365,358.465,360.752,366.852,369.0945,372.01,378.495,383.488,388.573" svgx:width="0.5,0.25,0.55,1.0,0.5,0.58,0.56,0.25,0.55,0.67,0.25,0.56,0.25,0.25,0.55,0.56,0.48,0.29,0.25,0.55,0.6,0.25,0.67,0.25,0.25,0.55,0.67,0.29,0.55,0.58,0.56,0.25,0.55,0.83,0.25,0.79,0.25,0.25,0.55,0.79,0.29,0.58,0.25,0.55,0.71,0.25,0.61,0.25,0.25,0.55,0.67,0.58,0.5,0.55,0.25,0.55,1.0,0.25,0.95,0.25,0.25,0.55,0.61,0.29,0.6,0.25,0.55,0.67,0.25,0.67,0.25,0.55,0.71,0.55,0.56,0.48" style="fill:rgb(0,0,0);font-family:URWPalladioL-Roma;font-size:8.97px;stroke:none;">3. Wang, Z.F.; Fei, P.Y.; Xiong, H.Q.; Qin, C.L.; Zhao, W.M.; Liu, X.Z. CoFe</text>
   <text y="222.3" x="392.952" svgx:width="0.5" style="fill:rgb(0,0,0);font-family:URWPalladioL-Roma;font-size:6.97px;stroke:none;">2</text>
   <text y="220.509" x="396.937" svgx:width="0.79" style="fill:rgb(0,0,0);font-family:URWPalladioL-Roma;font-size:8.97px;stroke:none;">O</text>
   <text y="222.3" x="404.126" svgx:width="0.5" style="fill:rgb(0,0,0);font-family:URWPalladioL-Roma;font-size:6.97px;stroke:none;">4</text>
   <text y="220.509" x="410.979,416.302,420.875,426.198,431.191,436.688,439.349,443.922,446.903,451.284,455.0514,458.025,461.902,466.987,472.31,475.292,480.615,484.995,488.873,491.535,496.107,500.488,505.9597,508.948,514.006" svgx:width="0.58,0.5,0.58,0.55,0.6,0.29,0.5,0.33,0.48,0.42,0.55,0.42,0.56,0.58,0.33,0.58,0.48,0.42,0.29,0.5,0.48,0.61,0.55,0.55,0.56" style="fill:rgb(0,0,0);font-family:URWPalladioL-Roma;font-size:8.97px;stroke:none;">nanoplates synthesized by</text>
   <text y="233.42" x="98.05,103.638,108.019,112.592,115.253,117.915,122.908,127.993,130.655,135.977,141.0002,144.684,152.76,157.141,160.122,165.445,170.438,175.9097,179.648,184.221,187.9884,191.711,197.034,199.696,204.781,209.9836,213.725,219.222,223.603,227.215,230.261,235.254,238.867,246.942,251.515,256.838,260.899,265.2046,268.901,274.489,277.151,280.196,282.858,287.851,293.0536,296.796,301.853,306.426,309.408,312.389,316.77,320.383,325.40619999999996,329.089,333.662,338.985,343.979,349.567,353.947,357.825" svgx:width="0.61,0.48,0.5,0.29,0.29,0.55,0.56,0.29,0.58,0.56,0.55,0.88,0.48,0.33,0.58,0.55,0.61,0.55,0.5,0.42,0.55,0.58,0.29,0.56,0.58,0.55,0.6,0.48,0.4,0.33,0.55,0.4,0.88,0.5,0.58,0.44,0.48,0.55,0.61,0.29,0.33,0.29,0.55,0.58,0.55,0.55,0.5,0.33,0.33,0.48,0.4,0.56,0.55,0.5,0.58,0.55,0.61,0.48,0.42,0.25" style="fill:rgb(0,0,0);font-family:URWPalladioL-Roma;font-size:8.97px;stroke:none;">dealloying method as high performance Li-ion battery anodes.</text>
   <text y="233.42" x="367.381,372.969,375.512,379.069,382.792,385.837,389.23,393.291,397.013,401.586,404.129,411.244,413.48650000000004,420.81,427.414,431.136,434.181" svgx:width="0.61,0.28,0.39,0.41,0.33,0.39,0.44,0.41,0.5,0.28,0.78,0.25,0.55,0.72,0.41,0.33,0.44" style="fill:rgb(0,0,0);font-family:URWPalladioL-Ital;font-size:8.97px;stroke:none;">Electrochim. Acta</text>
   <text y="233.42" x="441.859,446.342,450.825,455.309" svgx:width="0.5,0.5,0.5,0.5" style="fill:rgb(0,0,0);font-family:URWPalladioL-Bold;font-size:8.97px;stroke:none;">2017</text>
   <text y="233.42" x="459.792" svgx:width="0.25" style="fill:rgb(0,0,0);font-family:URWPalladioL-Roma;font-size:8.97px;stroke:none;">,</text>
   <text y="233.42" x="466.043,470.616,475.189" svgx:width="0.5,0.5,0.5" style="fill:rgb(0,0,0);font-family:URWPalladioL-Ital;font-size:8.97px;stroke:none;">252</text>
   <text y="233.42" x="479.762,482.0045,486.009,490.581,495.154,499.727,504.3,508.873,513.446,518.019" svgx:width="0.25,0.55,0.5,0.5,0.5,0.5,0.5,0.5,0.5,0.25" style="fill:rgb(0,0,0);font-family:URWPalladioL-Roma;font-size:8.97px;stroke:none;">, 295–305.</text>
   <text y="246.332" x="98.05" svgx:width="0.33" style="fill:rgb(0,0,0);font-family:URWPalladioL-Roma;font-size:8.97px;stroke:none;">[</text>
   <text y="246.332" x="101.036,107.393,110.773,115.669,119.471,123.272,129.262,133.557" svgx:width="0.71,0.4,0.55,0.42,0.42,0.67,0.48,0.33" style="fill:rgb(8,117,183);font-family:URWPalladioL-Roma;font-size:8.97px;stroke:none;">CrossRef</text>
   <text y="246.332" x="136.543" svgx:width="0.33" style="fill:rgb(0,0,0);font-family:URWPalladioL-Roma;font-size:8.97px;stroke:none;">]</text>
   <text y="259.243" x="76.535,81.018,83.26050000000001,98.05,103.638,106.299,111.814,114.0565,116.369,122.469,124.756,130.856,133.142,135.3845,137.706,143.806,149.129,153.702,159.025,164.11,166.35250000000002,168.655,174.764,177.051,182.639,184.925,187.16750000000002,189.489,194.784,200.299,202.5415,204.854,213.176,215.463,217.7055,220.027,225.295,229.867,235.19,240.275,242.5175,244.83,249.933,252.22,255.265,257.552,259.7945,262.115,270.438,275.011,280.334,285.419,287.6615,289.973,296.073,298.36,302.613,304.899,307.1415,309.463,315.563,320.886,325.459,330.781,335.866,338.1085,340.421,346.905,349.192,351.4345,353.755,359.343,363.916,369.239,374.827,379.821,382.06350000000003,384.375,389.479,391.765,394.0075,396.329,403.307,408.301,410.962,416.02,420.4,423.848,428.933,431.1755,433.488,440.567,442.853,445.0955,447.417,455.739,460.312,465.635,470.72,472.96250000000003,475.266,481.366,483.652,485.8945,488.216,495.295,497.956,503.279,508.364,510.6065,512.919,518.022" svgx:width="0.5,0.25,0.55,0.61,0.29,0.6,0.25,0.55,0.67,0.25,0.67,0.25,0.25,0.55,0.67,0.58,0.5,0.58,0.56,0.25,0.55,0.67,0.25,0.61,0.25,0.25,0.55,0.67,0.6,0.25,0.55,1.0,0.25,0.25,0.55,0.67,0.5,0.58,0.56,0.25,0.55,0.67,0.25,0.33,0.25,0.25,0.55,1.0,0.5,0.58,0.56,0.25,0.55,0.67,0.25,0.56,0.25,0.25,0.55,0.67,0.58,0.5,0.58,0.56,0.25,0.55,0.71,0.25,0.25,0.55,0.61,0.5,0.58,0.61,0.55,0.25,0.55,0.67,0.25,0.25,0.55,0.76,0.55,0.29,0.55,0.48,0.4,0.56,0.25,0.55,0.77,0.25,0.25,0.55,1.0,0.5,0.58,0.56,0.25,0.55,0.67,0.25,0.25,0.55,0.77,0.29,0.58,0.56,0.25,0.55,0.67,0.25" style="fill:rgb(0,0,0);font-family:URWPalladioL-Roma;font-size:8.97px;stroke:none;">4. Liu, X.Z.; Zhang, R.E.; Yu, W.; Yang, Y.J.; Wang, Z.F.; Zhang, C.; Bando, Y.; Golberg, D.; Wang, X.; Ding, Y.</text>
   <text y="272.155" x="97.773,103.159,108.274,111.586,115.795,120.004,122.93,128.299,130.856,138.615,142.824,147.938,151.664,154.212,159.01,164.124,168.518,171.1193,173.122,177.331,179.888,184.097,187.999,190.863,194.176,198.974,204.343,208.6486,210.599,217.919,220.476,223.34,228.5426,230.502,234.403,239.201,244.315,249.684,254.983,258.884,261.749,264.306,269.27,273.5756,275.527,281.757,287.139,289.103,292.029,295.5,299.893,307.652,311.861,319.19,323.987,327.458,332.4812,334.383,337.309,342.106,345.694,347.625,351.35,354.215,358.608,363.468,366.025,370.3306,372.281,376.675,381.789,387.2607,389.196,392.122,396.516,400.242,403.20210000000003,405.154,410.522,413.079,416.006,418.563,423.36,428.56260000000003,430.522,434.248,437.112,441.91,445.381,449.774,454.66,458.869" svgx:width="0.61,0.58,0.4,0.48,0.48,0.33,0.61,0.29,0.88,0.48,0.58,0.42,0.29,0.55,0.58,0.5,0.29,0.55,0.48,0.29,0.48,0.44,0.33,0.4,0.55,0.61,0.48,0.55,0.83,0.29,0.33,0.58,0.55,0.44,0.55,0.58,0.61,0.6,0.44,0.33,0.29,0.56,0.48,0.55,0.71,0.6,0.55,0.33,0.4,0.5,0.88,0.48,0.83,0.55,0.4,0.56,0.55,0.33,0.55,0.4,0.55,0.42,0.33,0.5,0.55,0.29,0.48,0.55,0.5,0.58,0.61,0.55,0.33,0.5,0.42,0.33,0.55,0.61,0.29,0.33,0.29,0.55,0.58,0.55,0.42,0.33,0.55,0.4,0.5,0.56,0.48,0.25" style="fill:rgb(0,0,0);font-family:URWPalladioL-Roma;font-size:8.97px;stroke:none;">Three-dimensional electrode with conductive Cu framework for stable and fast Li-ion storage.</text>
   <text y="272.155" x="464.135,469.504,474.39,477.808,481.068,485.461,489.946,491.893,496.779,499.705,503.607,507.025,510.926,515.32" svgx:width="0.61,0.56,0.39,0.39,0.5,0.5,0.55,0.56,0.33,0.44,0.39,0.44,0.5,0.39" style="fill:rgb(0,0,0);font-family:URWPalladioL-Ital;font-size:8.97px;stroke:none;">Energy Storage</text>
   <text y="285.067" x="98.05,106.514,110.495,113.481,116.969,119.794" svgx:width="0.94,0.44,0.33,0.39,0.39,0.25" style="fill:rgb(0,0,0);font-family:URWPalladioL-Ital;font-size:8.97px;stroke:none;">Mater.</text>
   <text y="285.067" x="125.173,129.656,134.139,138.623" svgx:width="0.5,0.5,0.5,0.5" style="fill:rgb(0,0,0);font-family:URWPalladioL-Bold;font-size:8.97px;stroke:none;">2018</text>
   <text y="285.067" x="143.106" svgx:width="0.25" style="fill:rgb(0,0,0);font-family:URWPalladioL-Roma;font-size:8.97px;stroke:none;">,</text>
   <text y="285.067" x="147.589,152.072" svgx:width="0.5,0.5" style="fill:rgb(0,0,0);font-family:URWPalladioL-Ital;font-size:8.97px;stroke:none;">11</text>
   <text y="285.067" x="156.556,158.79850000000002,161.039,165.522,170.006,174.489,178.972,183.455,185.69750000000002,188.835" svgx:width="0.25,0.55,0.5,0.5,0.5,0.5,0.5,0.25,0.55,0.33" style="fill:rgb(0,0,0);font-family:URWPalladioL-Roma;font-size:8.97px;stroke:none;">, 83–90. [</text>
   <text y="285.067" x="191.821,198.178,201.558,206.454,210.256,214.058,220.047,224.342" svgx:width="0.71,0.4,0.55,0.42,0.42,0.67,0.48,0.33" style="fill:rgb(8,117,183);font-family:URWPalladioL-Roma;font-size:8.97px;stroke:none;">CrossRef</text>
   <text y="285.067" x="227.328" svgx:width="0.33" style="fill:rgb(0,0,0);font-family:URWPalladioL-Roma;font-size:8.97px;stroke:none;">]</text>
   <text y="297.978" x="76.535,81.018,83.26050000000001,98.054,103.228,108.635,110.87750000000001,113.118,117.825,120.067,127.527,129.769,132.0115,134.27,139.255,143.55,148.768,153.754,155.9965,158.237,164.217,166.459,168.7015,170.96,176.941,182.159,186.642,191.861,196.846,199.0885,201.329,208.781,211.022,213.2645,215.523,220.231,224.526,229.421,234.407,236.64950000000002,238.89,241.876,244.117,246.3595,248.618,255.594,260.553,264.023,269.429,274.648,279.131,281.3735,283.614,291.074,293.316,300.256,302.4985,304.748,311.724,316.942,322.421,326.716,330.257,334.059,336.982,341.465,346.684,352.162,354.772,359.99,365.0132,367.226,371.207,376.103,381.321,386.387,390.682,394.224,398.026,400.635,405.53,410.749,413.735,416.658,421.643,427.032,431.3376,433.577,437.872,440.481,444.776,448.757,451.68,455.061,459.956,465.435,469.73,473.4974,475.773,478.759,483.655,487.243,489.447,492.056,494.665,497.588,502.807,505.416,510.823" svgx:width="0.5,0.25,0.55,0.67,0.6,0.25,0.55,0.52,0.25,0.83,0.25,0.25,0.55,0.56,0.48,0.58,0.56,0.25,0.55,0.67,0.25,0.25,0.55,0.67,0.58,0.5,0.58,0.56,0.25,0.55,0.83,0.25,0.25,0.55,0.52,0.48,0.55,0.56,0.25,0.55,0.33,0.25,0.25,0.55,0.78,0.55,0.4,0.6,0.58,0.5,0.25,0.55,0.83,0.25,0.77,0.25,0.55,0.78,0.58,0.61,0.48,0.4,0.42,0.33,0.5,0.58,0.61,0.29,0.58,0.56,0.55,0.44,0.55,0.58,0.56,0.48,0.4,0.42,0.29,0.55,0.58,0.33,0.33,0.56,0.6,0.48,0.55,0.48,0.29,0.48,0.44,0.33,0.4,0.55,0.61,0.48,0.42,0.55,0.33,0.55,0.4,0.55,0.29,0.29,0.33,0.58,0.29,0.6,0.88" style="fill:rgb(0,0,0);font-family:URWPalladioL-Roma;font-size:8.97px;stroke:none;">5. Yu, S.H.; Feng, X.; Zhang, N.; Seok, J.; Abruña, H.D. Understanding conversion-type electrodes for lithium</text>
   <text y="310.89" x="98.05,101.43,105.725,109.706,114.925,119.408,122.788,127.774,132.069,136.552,141.51,144.119,148.4246,150.656,155.614,160.097,163.021,165.944,170.238,173.78,176.389,180.684,184.486" svgx:width="0.4,0.48,0.44,0.58,0.5,0.4,0.56,0.48,0.5,0.55,0.29,0.48,0.55,0.55,0.5,0.33,0.33,0.48,0.4,0.29,0.48,0.42,0.25" style="fill:rgb(0,0,0);font-family:URWPalladioL-Roma;font-size:8.97px;stroke:none;">rechargeable batteries.</text>
   <text y="310.89" x="189.865,196.339,199.988,203.637,205.8795,209.017,214.998,219.481,222.969,229.945,232.1875,235.325,241.305,244.793,248.281" svgx:width="0.72,0.41,0.41,0.25,0.55,0.67,0.5,0.39,0.78,0.25,0.55,0.67,0.39,0.39,0.25" style="fill:rgb(0,0,0);font-family:URWPalladioL-Ital;font-size:8.97px;stroke:none;">Acc. Chem. Res.</text>
   <text y="310.89" x="253.66,258.143,262.626,267.11" svgx:width="0.5,0.5,0.5,0.5" style="fill:rgb(0,0,0);font-family:URWPalladioL-Bold;font-size:8.97px;stroke:none;">2018</text>
   <text y="310.89" x="271.593" svgx:width="0.25" style="fill:rgb(0,0,0);font-family:URWPalladioL-Roma;font-size:8.97px;stroke:none;">,</text>
   <text y="310.89" x="276.076,280.559" svgx:width="0.5,0.5" style="fill:rgb(0,0,0);font-family:URWPalladioL-Ital;font-size:8.97px;stroke:none;">51</text>
   <text y="310.89" x="285.042,287.2845,289.525,294.008,298.492,302.975,307.458,311.941,316.424,320.908,323.1505,326.288" svgx:width="0.25,0.55,0.5,0.5,0.5,0.5,0.5,0.5,0.5,0.25,0.55,0.33" style="fill:rgb(0,0,0);font-family:URWPalladioL-Roma;font-size:8.97px;stroke:none;">, 273–281. [</text>
   <text y="310.89" x="329.273,335.631,339.011,343.907,347.708,351.51,357.5,361.794" svgx:width="0.71,0.4,0.55,0.42,0.42,0.67,0.48,0.33" style="fill:rgb(8,117,183);font-family:URWPalladioL-Roma;font-size:8.97px;stroke:none;">CrossRef</text>
   <text y="310.89" x="364.78,367.7401,370.008" svgx:width="0.33,0.55,0.33" style="fill:rgb(0,0,0);font-family:URWPalladioL-Roma;font-size:8.97px;stroke:none;">] [</text>
   <text y="310.89" x="372.994,378.409,383.816,388.774,397.257,401.551" svgx:width="0.6,0.6,0.55,0.95,0.48,0.61" style="fill:rgb(8,117,183);font-family:URWPalladioL-Roma;font-size:8.97px;stroke:none;">PubMed</text>
   <text y="310.89" x="407.03" svgx:width="0.33" style="fill:rgb(0,0,0);font-family:URWPalladioL-Roma;font-size:8.97px;stroke:none;">]</text>
   <text y="323.801" x="76.535,81.018,83.26050000000001,98.05,101.003,103.583,108.745,110.98750000000001,113.196,118.118,120.335,122.5775,124.786,130.701,135.862,141.209,143.4515,145.661,151.079,153.296,155.5385,157.748,163.166,168.513,170.7555,172.965,178.88,181.097,187.96,190.177,192.4195,194.638,200.056,202.637,207.984,210.22650000000002,212.435,219.805,222.021,224.2635,226.473,232.388,237.549,242.896,245.1385,247.348,250.301,252.5435,254.752,261.04,266.201,270.635,273.215,275.796,280.043,285.204,290.135,294.383,298.1504,300.377,304.811,309.972,315.4437,317.625,320.968,325.216,329.153,333.401,338.562,341.5221,343.687,349.017,352.36,357.202,362.132,365.476,369.723,373.483,377.2504,379.478,382.058,387.2606,389.454,392.345,397.506,401.8116,403.988,409.406,413.654,418.664,422.912,425.493,430.334,435.664,443.494,447.742,452.903,455.86310000000003,458.028,462.87,465.8301,468.058,472.713,475.3143,477.529,481.963,487.124,491.965,497.384,501.631,505.3984,507.626,510.579,515.421" svgx:width="0.5,0.25,0.55,0.33,0.29,0.58,0.25,0.55,0.67,0.25,0.25,0.55,0.67,0.58,0.6,0.25,0.55,0.61,0.25,0.25,0.55,0.61,0.6,0.25,0.55,0.67,0.25,0.77,0.25,0.25,0.55,0.61,0.29,0.6,0.25,0.55,0.83,0.25,0.25,0.55,0.67,0.58,0.6,0.25,0.55,0.33,0.25,0.55,0.71,0.58,0.5,0.29,0.29,0.48,0.58,0.56,0.48,0.42,0.55,0.5,0.58,0.61,0.55,0.4,0.48,0.44,0.48,0.58,0.33,0.55,0.6,0.4,0.55,0.56,0.4,0.48,0.42,0.42,0.55,0.29,0.58,0.55,0.33,0.58,0.48,0.55,0.61,0.48,0.56,0.48,0.29,0.55,0.6,0.88,0.48,0.58,0.33,0.55,0.55,0.33,0.55,0.52,0.29,0.55,0.5,0.58,0.55,0.61,0.48,0.42,0.55,0.33,0.55,0.4" style="fill:rgb(0,0,0);font-family:URWPalladioL-Roma;font-size:8.97px;stroke:none;">6. Jin, Y.; Zhu, B.; Lu, Z.D.; Liu, N.; Zhu, J. Challenges and recent progress in the development of Si anodes for</text>
   <text y="336.713" x="98.05,100.659,103.268,106.191,111.41,114.019,119.426,127.343,130.329,132.938,137.834,143.0366,145.294,150.252,154.736,157.659,160.582,164.877,168.418,172.408" svgx:width="0.29,0.29,0.33,0.58,0.29,0.6,0.88,0.33,0.29,0.55,0.58,0.55,0.55,0.5,0.33,0.33,0.48,0.4,0.56,0.25" style="fill:rgb(0,0,0);font-family:URWPalladioL-Roma;font-size:8.97px;stroke:none;">lithium-ion battery.</text>
   <text y="336.713" x="177.787,184.261,188.744,192.734,194.97650000000002,198.114,203.592,208.578,212.066,215.392,219.875,224.36,226.6,235.064,239.045,242.031,245.519,248.344" svgx:width="0.72,0.5,0.5,0.25,0.55,0.61,0.56,0.39,0.39,0.5,0.5,0.55,0.94,0.44,0.33,0.39,0.39,0.25" style="fill:rgb(0,0,0);font-family:URWPalladioL-Ital;font-size:8.97px;stroke:none;">Adv. Energy Mater.</text>
   <text y="336.713" x="253.723,258.206,262.689,267.173" svgx:width="0.5,0.5,0.5,0.5" style="fill:rgb(0,0,0);font-family:URWPalladioL-Bold;font-size:8.97px;stroke:none;">2017</text>
   <text y="336.713" x="271.656" svgx:width="0.25" style="fill:rgb(0,0,0);font-family:URWPalladioL-Roma;font-size:8.97px;stroke:none;">,</text>
   <text y="336.713" x="276.139" svgx:width="0.5" style="fill:rgb(0,0,0);font-family:URWPalladioL-Ital;font-size:8.97px;stroke:none;">7</text>
   <text y="336.713" x="280.622,282.8645,285.105,289.588,294.072,298.555,303.038,307.521,312.005,316.488,318.7305,321.868" svgx:width="0.25,0.55,0.5,0.5,0.5,0.5,0.5,0.5,0.5,0.25,0.55,0.33" style="fill:rgb(0,0,0);font-family:URWPalladioL-Roma;font-size:8.97px;stroke:none;">, 1700715. [</text>
   <text y="336.713" x="324.853,331.211,334.591,339.487,343.288,347.09,353.08,357.375" svgx:width="0.71,0.4,0.55,0.42,0.42,0.67,0.48,0.33" style="fill:rgb(8,117,183);font-family:URWPalladioL-Roma;font-size:8.97px;stroke:none;">CrossRef</text>
   <text y="336.713" x="360.36" svgx:width="0.33" style="fill:rgb(0,0,0);font-family:URWPalladioL-Roma;font-size:8.97px;stroke:none;">]</text>
   <text y="349.625" x="76.535,81.018,83.26050000000001,98.05,106.373,110.945,116.268,121.353,123.5955,127.966,134.066,136.352,140.614,142.901,145.14350000000002,150.565,156.665,161.988,166.561,171.883,176.968,179.2105,183.581,189.681,191.967,200.619,202.906,205.1485,210.57,215.847,220.42,225.743,227.9855,232.355,237.458,239.745,247.354,249.64,251.8825,257.305,263.405,268.728,273.301,278.623,283.708,285.95050000000003,290.321,295.424,297.71,304.689,306.975,309.21750000000003,314.639,322.962,327.535,332.857,337.943,340.1855,344.555,349.667,351.954,358.438,360.725,362.96750000000003,368.379,375.568,378.229,383.552,385.7945,390.174,396.658,398.945,404.533,406.819,409.0615,414.474,420.062,424.635,429.72,434.101,439.424,444.417,448.588,450.83050000000003,455.209,461.309,463.55150000000003,467.922,475.522,480.095,485.417,490.411,495.908,500.901,504.358,509.352,514.867" svgx:width="0.5,0.25,0.55,1.0,0.5,0.58,0.56,0.25,0.55,0.67,0.25,0.56,0.25,0.25,0.55,0.67,0.58,0.5,0.58,0.56,0.25,0.55,0.67,0.25,0.95,0.25,0.25,0.55,0.67,0.5,0.58,0.25,0.55,0.67,0.25,0.83,0.25,0.25,0.55,0.67,0.58,0.5,0.58,0.56,0.25,0.55,0.67,0.25,0.76,0.25,0.25,0.55,1.0,0.5,0.58,0.56,0.25,0.55,0.67,0.25,0.71,0.25,0.25,0.55,0.79,0.29,0.58,0.25,0.55,0.71,0.25,0.61,0.25,0.25,0.55,0.61,0.5,0.56,0.48,0.58,0.55,0.56,0.25,0.55,0.67,0.25,0.55,0.83,0.5,0.58,0.55,0.6,0.55,0.4,0.55,0.6,0.42" style="fill:rgb(0,0,0);font-family:URWPalladioL-Roma;font-size:8.97px;stroke:none;">7. Wang, Z.F.; Zhang, X.M.; Yan, Y.H.; Zhang, Y.G.; Wang, Y.C.; Qin, C.L.; Bakenov, Z. Nanoporous</text>
   <text y="362.536" x="98.05,104.816,109.064" svgx:width="0.76,0.48,0.79" style="fill:rgb(0,0,0);font-family:URWPalladioL-Roma;font-size:8.97px;stroke:none;">GeO</text>
   <text y="364.328" x="116.034" svgx:width="0.5" style="fill:rgb(0,0,0);font-family:URWPalladioL-Roma;font-size:6.97px;stroke:none;">2</text>
   <text y="362.536" x="120.019" svgx:width="0.29" style="fill:rgb(0,0,0);font-family:Rpxr;font-size:8.97px;stroke:none;">/</text>
   <text y="362.536" x="122.564,128.851" svgx:width="0.71,0.6" style="fill:rgb(0,0,0);font-family:URWPalladioL-Roma;font-size:8.97px;stroke:none;">Cu</text>
   <text y="362.536" x="134.199" svgx:width="0.29" style="fill:rgb(0,0,0);font-family:Rpxr;font-size:8.97px;stroke:none;">/</text>
   <text y="362.536" x="136.744,143.031" svgx:width="0.71,0.6" style="fill:rgb(0,0,0);font-family:URWPalladioL-Roma;font-size:8.97px;stroke:none;">Cu</text>
   <text y="364.328" x="148.378" svgx:width="0.5" style="fill:rgb(0,0,0);font-family:URWPalladioL-Roma;font-size:6.97px;stroke:none;">2</text>
   <text y="362.536" x="152.363,159.4493,161.577,166.738,170.985,173.876,181.272,186.114,189.617,194.6402,196.799,200.559,205.49,210.651,213.542,218.703,222.95,226.71,229.291,233.725,237.972,243.4437,245.634,250.538,255.5612,257.712,263.13,267.378,271.812,274.392,276.973,281.815,286.745,289.326,294.487,299.5102,301.661,309.491,313.739,316.63,321.791,326.632,332.1037,334.303,337.256,342.098,345.68600000000004,347.844,351.604,354.495,358.929,363.833,366.413,370.71860000000004,372.905,378.323,380.903,383.856,386.437,391.279,396.4816,398.692,402.452,405.343,410.185,413.688,418.121,423.052,427.3" svgx:width="0.79,0.55,0.58,0.48,0.33,0.83,0.55,0.4,0.56,0.55,0.42,0.56,0.58,0.33,0.58,0.48,0.42,0.29,0.5,0.48,0.61,0.55,0.55,0.56,0.55,0.61,0.48,0.5,0.29,0.29,0.55,0.56,0.29,0.58,0.56,0.55,0.88,0.48,0.33,0.58,0.55,0.61,0.55,0.33,0.55,0.4,0.55,0.42,0.33,0.5,0.55,0.29,0.48,0.55,0.61,0.29,0.33,0.29,0.55,0.58,0.55,0.42,0.33,0.55,0.4,0.5,0.56,0.48,0.25" style="fill:rgb(0,0,0);font-family:URWPalladioL-Roma;font-size:8.97px;stroke:none;">O network synthesized by dealloying method for stable Li-ion storage.</text>
   <text y="362.536" x="432.666,438.084,440.549,443.999,447.608,450.561,453.851,457.788,461.398,465.831,468.297,475.196,477.43850000000003,480.561,486.963,490.573,493.526" svgx:width="0.61,0.28,0.39,0.41,0.33,0.39,0.44,0.41,0.5,0.28,0.78,0.25,0.55,0.72,0.41,0.33,0.44" style="fill:rgb(0,0,0);font-family:URWPalladioL-Ital;font-size:8.97px;stroke:none;">Electrochim. Acta</text>
   <text y="362.536" x="499.711,504.194,508.677,513.161" svgx:width="0.5,0.5,0.5,0.5" style="fill:rgb(0,0,0);font-family:URWPalladioL-Bold;font-size:8.97px;stroke:none;">2019</text>
   <text y="362.536" x="517.644" svgx:width="0.25" style="fill:rgb(0,0,0);font-family:URWPalladioL-Roma;font-size:8.97px;stroke:none;">,</text>
   <text y="375.448" x="98.05,102.533,107.016" svgx:width="0.5,0.5,0.5" style="fill:rgb(0,0,0);font-family:URWPalladioL-Ital;font-size:8.97px;stroke:none;">300</text>
   <text y="375.448" x="111.5,113.7425,115.983,120.466,124.95,129.433,133.916,138.399,142.882,147.366,149.60850000000002,152.745" svgx:width="0.25,0.55,0.5,0.5,0.5,0.5,0.5,0.5,0.5,0.25,0.55,0.33" style="fill:rgb(0,0,0);font-family:URWPalladioL-Roma;font-size:8.97px;stroke:none;">, 363–372. [</text>
   <text y="375.448" x="155.731,162.088,165.469,170.364,174.166,177.968,183.958,188.252" svgx:width="0.71,0.4,0.55,0.42,0.42,0.67,0.48,0.33" style="fill:rgb(8,117,183);font-family:URWPalladioL-Roma;font-size:8.97px;stroke:none;">CrossRef</text>
   <text y="375.448" x="191.238" svgx:width="0.33" style="fill:rgb(0,0,0);font-family:URWPalladioL-Roma;font-size:8.97px;stroke:none;">]</text>
   <text y="388.359" x="76.535,81.018,83.26050000000001,98.05,106.117,110.565,115.742,120.687,122.9295,125.152,131.085,133.308,137.436,139.659,141.9015,144.124,150.057,155.234,159.681,164.858,169.803,172.0455,174.268,179.205,181.429,186.098,188.322,190.5645,192.787,198.72,201.308,206.165,211.341,216.287,218.5295,220.752,228.152,230.376,237.367,239.591,241.83350000000002,244.056,251.047,253.635,258.812,261.0545,263.277,269.584,271.807,277.242,279.466,281.7085,283.931,289.863,295.04,299.487,304.344,306.5865,308.809,316.877,319.1,327.515,329.738,331.9805,334.203,339.638,342.226,347.59,349.8325,352.055,357.988,360.211,366.144,368.3865,370.609,375.733,381.096,385.045,388.994,393.47900000000004,395.683,398.645,402.906,406.419,411.6216,413.837,417.609,422.785,427.233,432.578,436.839,442.3107,444.515,450.821,456.185,463.2713,465.417,470.594,475.041,480.218,485.075,492.493,495.081,498.434,502.695,506.4624,508.708,513.564" svgx:width="0.5,0.25,0.55,1.0,0.5,0.58,0.56,0.25,0.55,0.67,0.25,0.56,0.25,0.25,0.55,0.67,0.58,0.5,0.58,0.56,0.25,0.55,0.67,0.25,0.52,0.25,0.25,0.55,0.67,0.29,0.55,0.58,0.56,0.25,0.55,0.83,0.25,0.79,0.25,0.25,0.55,0.79,0.29,0.58,0.25,0.55,0.71,0.25,0.61,0.25,0.25,0.55,0.67,0.58,0.5,0.55,0.25,0.55,1.0,0.25,0.95,0.25,0.25,0.55,0.61,0.29,0.6,0.25,0.55,0.67,0.25,0.67,0.25,0.55,0.67,0.6,0.44,0.44,0.5,0.55,0.33,0.48,0.4,0.58,0.55,0.42,0.58,0.5,0.6,0.48,0.61,0.55,0.71,0.6,0.79,0.55,0.58,0.5,0.58,0.55,0.83,0.29,0.4,0.48,0.42,0.55,0.55,0.58" style="fill:rgb(0,0,0);font-family:URWPalladioL-Roma;font-size:8.97px;stroke:none;">8. Wang, Z.F.; Zhang, Y.S.; Xiong, H.Q.; Qin, C.L.; Zhao, W.M.; Liu, X.Z. Yucca fern shaped CuO nanowires on</text>
   <text y="401.271" x="98.05,104.407,109.789,112.056,115.041,119.937,124.42,134.579,137.565,142.461,146.049,148.244,151.624,155.919,163.836,166.446,169.369,172.292,174.901,180.119,185.1422,187.346,191.327,195.811,201.199,205.683,209.664,212.273,215.196,220.2192,222.423,225.409,229.892,235.37,237.98,243.198,248.2212,250.425,255.321,258.2811,260.548,266.027,268.636,271.622,274.231,279.126,284.3286,286.587,291.545,296.028,298.951,301.874,306.169,309.711,314.7342,316.938,321.421,326.639,331.535,337.014,341.308,345.11" svgx:width="0.71,0.6,0.55,0.33,0.55,0.5,0.88,0.33,0.55,0.4,0.55,0.4,0.48,0.88,0.29,0.33,0.33,0.29,0.58,0.56,0.55,0.44,0.5,0.6,0.5,0.44,0.29,0.33,0.56,0.55,0.33,0.5,0.61,0.29,0.58,0.56,0.55,0.55,0.33,0.55,0.61,0.29,0.33,0.29,0.55,0.58,0.55,0.55,0.5,0.33,0.33,0.48,0.4,0.56,0.55,0.5,0.58,0.55,0.61,0.48,0.42,0.25" style="fill:rgb(0,0,0);font-family:URWPalladioL-Roma;font-size:8.97px;stroke:none;">Cu foamfor remitting capacity fading of Li-ion battery anodes.</text>
   <text y="401.271" x="350.487,355.472,359.122,361.614,363.8565,366.994,372.975,376.463,380.946" svgx:width="0.56,0.41,0.28,0.25,0.55,0.67,0.39,0.5,0.25" style="fill:rgb(0,0,0);font-family:URWPalladioL-Ital;font-size:8.97px;stroke:none;">Sci. Rep.</text>
   <text y="401.271" x="386.325,390.808,395.291,399.775" svgx:width="0.5,0.5,0.5,0.5" style="fill:rgb(0,0,0);font-family:URWPalladioL-Bold;font-size:8.97px;stroke:none;">2018</text>
   <text y="401.271" x="404.258" svgx:width="0.25" style="fill:rgb(0,0,0);font-family:URWPalladioL-Roma;font-size:8.97px;stroke:none;">,</text>
   <text y="401.271" x="408.741" svgx:width="0.5" style="fill:rgb(0,0,0);font-family:URWPalladioL-Ital;font-size:8.97px;stroke:none;">8</text>
   <text y="401.271" x="413.224,415.4665,417.707,422.19,426.674,431.157,435.64,437.8825,441.02" svgx:width="0.25,0.55,0.5,0.5,0.5,0.5,0.25,0.55,0.33" style="fill:rgb(0,0,0);font-family:URWPalladioL-Roma;font-size:8.97px;stroke:none;">, 6530. [</text>
   <text y="401.271" x="444.006,450.363,453.743,458.639,462.441,466.242,472.232,476.527" svgx:width="0.71,0.4,0.55,0.42,0.42,0.67,0.48,0.33" style="fill:rgb(8,117,183);font-family:URWPalladioL-Roma;font-size:8.97px;stroke:none;">CrossRef</text>
   <text y="401.271" x="479.513" svgx:width="0.33" style="fill:rgb(0,0,0);font-family:URWPalladioL-Roma;font-size:8.97px;stroke:none;">]</text>
   <text y="414.183" x="76.535,81.018,83.26050000000001,98.05,104.15,109.473,114.467,119.981,122.2235,125.121,131.222,133.508,135.75050000000002,138.95,144.245,149.76,152.0025,154.9,160.488,162.774,165.0165,168.216,173.804,178.798,184.313,186.5555,189.452,195.553,197.839,206.162,208.448,215.527,217.7695,220.667,225.752,230.745,234.358,242.434,247.007,249.988,252.649,257.643,262.8456,265.819,270.813,273.7731,276.703,282.218,287.54,290.202,293.247,298.241,301.853,309.7466,312.783,320.383,323.428,329.016,334.01,339.506,343.887,349.3587,352.329,356.389,360.962,364.575,369.632,374.626,379.949,382.994,387.055,392.049,396.621,399.603,403.984,409.4557,412.425,417.227,422.55" svgx:width="0.5,0.25,0.55,0.67,0.58,0.55,0.6,0.25,0.55,0.67,0.25,0.25,0.55,0.67,0.6,0.25,0.55,0.61,0.25,0.25,0.55,0.61,0.55,0.6,0.25,0.55,0.67,0.25,1.0,0.25,0.77,0.25,0.55,0.56,0.55,0.4,0.88,0.5,0.33,0.29,0.55,0.58,0.55,0.55,0.33,0.55,0.6,0.58,0.29,0.33,0.55,0.4,0.88,0.55,0.83,0.33,0.61,0.55,0.6,0.48,0.61,0.55,0.44,0.5,0.4,0.55,0.55,0.58,0.33,0.44,0.55,0.5,0.33,0.48,0.61,0.55,0.52,0.58,0.79" style="fill:rgb(0,0,0);font-family:URWPalladioL-Roma;font-size:8.97px;stroke:none;">9. Zhou, X.; Yu, L.; Lou, X.W.D. Formation of uniform N-doped carbon-coated SnO</text>
   <text y="415.974" x="429.737" svgx:width="0.5" style="fill:rgb(0,0,0);font-family:URWPalladioL-Roma;font-size:6.97px;stroke:none;">2</text>
   <text y="414.183" x="436.574,440.452,445.967,451.024,459.1,461.761,465.822,469.27,474.264,479.321,484.315,489.034,493.415,497.18240000000003,500.146,507.773,510.435,513.416" svgx:width="0.42,0.6,0.55,0.88,0.29,0.44,0.4,0.55,0.55,0.55,0.52,0.48,0.42,0.55,0.83,0.29,0.33,0.58" style="fill:rgb(0,0,0);font-family:URWPalladioL-Roma;font-size:8.97px;stroke:none;">submicroboxes with</text>
   <text y="427.094" x="98.05,102.345,107.563,112.782,117.265,122.483,126.465,130.759,136.23069999999998,138.479,141.089,143.698,146.621,151.839,154.449,159.855,170.014,173.816,176.739,181.635,185.177,189.66,194.645,198.9506,201.182,206.57,209.951,214.846,220.235,224.53,228.072,230.995,233.604,237.899,241.701" svgx:width="0.48,0.58,0.58,0.5,0.58,0.44,0.48,0.61,0.55,0.29,0.29,0.33,0.58,0.29,0.6,0.88,0.42,0.33,0.55,0.4,0.5,0.56,0.48,0.55,0.6,0.4,0.55,0.6,0.48,0.4,0.33,0.29,0.48,0.42,0.25" style="fill:rgb(0,0,0);font-family:URWPalladioL-Roma;font-size:8.97px;stroke:none;">enhanced lithiumstorage properties.</text>
   <text y="427.094" x="247.079,253.553,258.036,262.026,264.2685,267.406,272.884,277.87,281.358,284.684,289.167,293.652,295.892,304.356,308.337,311.323,314.811,317.636" svgx:width="0.72,0.5,0.5,0.25,0.55,0.61,0.56,0.39,0.39,0.5,0.5,0.55,0.94,0.44,0.33,0.39,0.39,0.25" style="fill:rgb(0,0,0);font-family:URWPalladioL-Ital;font-size:8.97px;stroke:none;">Adv. Energy Mater.</text>
   <text y="427.094" x="323.014,327.497,331.98,336.464" svgx:width="0.5,0.5,0.5,0.5" style="fill:rgb(0,0,0);font-family:URWPalladioL-Bold;font-size:8.97px;stroke:none;">2016</text>
   <text y="427.094" x="340.947" svgx:width="0.25" style="fill:rgb(0,0,0);font-family:URWPalladioL-Roma;font-size:8.97px;stroke:none;">,</text>
   <text y="427.094" x="345.43" svgx:width="0.5" style="fill:rgb(0,0,0);font-family:URWPalladioL-Ital;font-size:8.97px;stroke:none;">6</text>
   <text y="427.094" x="349.913,352.1555,354.396,358.879,363.363,367.846,372.329,376.812,381.296,385.779,388.0215,391.159" svgx:width="0.25,0.55,0.5,0.5,0.5,0.5,0.5,0.5,0.5,0.25,0.55,0.33" style="fill:rgb(0,0,0);font-family:URWPalladioL-Roma;font-size:8.97px;stroke:none;">, 1600451. [</text>
   <text y="427.094" x="394.144,400.502,403.882,408.778,412.579,416.381,422.371,426.666" svgx:width="0.71,0.4,0.55,0.42,0.42,0.67,0.48,0.33" style="fill:rgb(8,117,183);font-family:URWPalladioL-Roma;font-size:8.97px;stroke:none;">CrossRef</text>
   <text y="427.094" x="429.651" svgx:width="0.33" style="fill:rgb(0,0,0);font-family:URWPalladioL-Roma;font-size:8.97px;stroke:none;">]</text>
   <text y="440.006" x="76.535,81.018,85.501,87.74350000000001,98.05,106.266,110.785,116.045,121.07,123.3125,125.571,131.6,133.859,138.062,140.321,142.5635,144.822,150.851,156.111,160.63,165.89,170.915,173.1575,175.416,181.445,183.704,192.254,194.514,196.75650000000002,199.015,204.537,207.167,212.617,214.8595,217.118,223.147,225.406,230.929,233.188,235.4305,237.689,245.905,250.424,255.684,260.709,262.9515,265.21,270.245,272.504,278.912,281.172,283.41450000000003,285.673,291.701,296.961,301.48,306.74,311.766,314.0085,316.276,321.301,323.56,330.456,332.716,334.9585,337.226,342.748,345.378,347.6205,349.879,354.914,357.173,362.207,364.467,366.7095,368.968,374.996,380.257,384.776,389.71,391.9525,394.211,402.427,404.687,413.237,415.496,417.7385,419.997,427.101,429.731,434.991,437.2335,439.492,445.9,448.16,453.682,455.942,458.1845,460.443,468.993,474.443,479.468,483.987,489.247,494.182,499.289,503.808,506.0505,508.309,515.34,517.6" svgx:width="0.5,0.5,0.25,0.55,1.0,0.5,0.58,0.56,0.25,0.55,0.67,0.25,0.56,0.25,0.25,0.55,0.67,0.58,0.5,0.58,0.56,0.25,0.55,0.67,0.25,0.95,0.25,0.25,0.55,0.61,0.29,0.6,0.25,0.55,0.67,0.25,0.61,0.25,0.25,0.55,1.0,0.5,0.58,0.56,0.25,0.55,0.67,0.25,0.71,0.25,0.25,0.55,0.67,0.58,0.5,0.58,0.56,0.25,0.55,0.67,0.25,0.76,0.25,0.25,0.55,0.61,0.29,0.25,0.55,0.67,0.25,0.67,0.25,0.25,0.55,0.67,0.58,0.5,0.55,0.25,0.55,1.0,0.25,0.95,0.25,0.25,0.55,0.79,0.29,0.58,0.25,0.55,0.71,0.25,0.61,0.25,0.25,0.55,0.95,0.6,0.56,0.5,0.58,0.55,0.56,0.5,0.25,0.55,0.78,0.25,0.25" style="fill:rgb(0,0,0);font-family:URWPalladioL-Roma;font-size:8.97px;stroke:none;">10. Wang, Z.F.; Zhang, X.M.; Liu, X.L.; Wang, Y.C.; Zhang, Y.G.; Li, Y.Y.; Zhao, W.M.; Qin, C.L.; Mukanova, A.;</text>
   <text y="452.917" x="98.05,103.638,108.211,113.296,117.677,123.0,127.993,132.164,134.4065,137.111,143.212,145.4545,148.15,153.738,156.4,164.475,169.469,175.057,179.63,182.2313,184.944,190.266,194.839,200.162,205.156,210.652,215.646,219.103,224.096,229.611,233.3784,236.141,243.741,246.403,253.591,260.423,268.023,270.685,275.258,280.059,282.6603,285.373,290.696,295.076,298.058,305.685,310.679,314.292,319.31519999999995,322.038,327.535,330.983,335.363,340.86,345.433,348.881,353.262,358.7337,361.511,366.569,371.5922,374.306,379.894,384.275,388.848,391.509,394.17,399.164,404.249,406.91,412.233,417.2562,419.98,428.055,432.436,435.408,440.731,445.725,451.1967,453.974,457.02,462.013,465.601,468.278,472.156,475.137,479.71,484.768,487.429,491.7346,494.472,500.06,502.721,505.767,508.428,513.422" svgx:width="0.61,0.5,0.56,0.48,0.58,0.55,0.56,0.25,0.55,0.67,0.25,0.55,0.61,0.29,0.88,0.55,0.61,0.5,0.29,0.55,0.58,0.5,0.58,0.55,0.6,0.55,0.4,0.55,0.6,0.42,0.55,0.83,0.29,0.79,0.75,0.83,0.29,0.5,0.52,0.29,0.55,0.58,0.48,0.33,0.83,0.55,0.4,0.56,0.55,0.6,0.4,0.48,0.6,0.5,0.4,0.48,0.61,0.55,0.55,0.56,0.55,0.61,0.48,0.5,0.29,0.29,0.55,0.56,0.29,0.58,0.56,0.55,0.88,0.48,0.33,0.58,0.55,0.61,0.55,0.33,0.55,0.4,0.55,0.42,0.33,0.5,0.55,0.29,0.48,0.55,0.61,0.29,0.33,0.29,0.55,0.58" style="fill:rgb(0,0,0);font-family:URWPalladioL-Roma;font-size:8.97px;stroke:none;">Bakenov, Z. Bimodal nanoporous NiO@Ni–Si network prepared by dealloying method for stable Li-ion</text>
   <text y="465.829" x="98.05,101.852,104.775,109.67,113.212,117.695,122.681,126.976" svgx:width="0.42,0.33,0.55,0.4,0.5,0.56,0.48,0.25" style="fill:rgb(0,0,0);font-family:URWPalladioL-Roma;font-size:8.97px;stroke:none;">storage.</text>
   <text y="465.829" x="132.355,135.341,137.58350000000002,139.824,145.303,149.284,155.757,159.245,162.7433,164.975,169.96,173.941,178.927,182.253,185.902,189.39" svgx:width="0.33,0.25,0.55,0.61,0.44,0.72,0.39,0.39,0.55,0.56,0.44,0.56,0.39,0.41,0.39,0.39" style="fill:rgb(0,0,0);font-family:URWPalladioL-Ital;font-size:8.97px;stroke:none;">J. Power Sources</text>
   <text y="465.829" x="195.119,199.602,204.085,208.569" svgx:width="0.5,0.5,0.5,0.5" style="fill:rgb(0,0,0);font-family:URWPalladioL-Bold;font-size:8.97px;stroke:none;">2020</text>
   <text y="465.829" x="213.052" svgx:width="0.25" style="fill:rgb(0,0,0);font-family:URWPalladioL-Roma;font-size:8.97px;stroke:none;">,</text>
   <text y="465.829" x="217.535,222.018,226.501" svgx:width="0.5,0.5,0.5" style="fill:rgb(0,0,0);font-family:URWPalladioL-Ital;font-size:8.97px;stroke:none;">449</text>
   <text y="465.829" x="230.985,233.22750000000002,235.468,239.951,244.435,248.918,253.401,257.884,262.367,264.6095,267.747" svgx:width="0.25,0.55,0.5,0.5,0.5,0.5,0.5,0.5,0.25,0.55,0.33" style="fill:rgb(0,0,0);font-family:URWPalladioL-Roma;font-size:8.97px;stroke:none;">, 227550. [</text>
   <text y="465.829" x="270.733,277.09,280.471,285.366,289.168,292.97,298.959,303.254" svgx:width="0.71,0.4,0.55,0.42,0.42,0.67,0.48,0.33" style="fill:rgb(8,117,183);font-family:URWPalladioL-Roma;font-size:8.97px;stroke:none;">CrossRef</text>
   <text y="465.829" x="306.24" svgx:width="0.33" style="fill:rgb(0,0,0);font-family:URWPalladioL-Roma;font-size:8.97px;stroke:none;">]</text>
   <text y="478.741" x="76.535,81.018,85.501,87.74350000000001,98.05,104.15,109.473,114.046,119.039,121.28150000000001,124.884,133.206,135.493,144.144,146.431,148.67350000000002,152.934,158.019,162.399,165.061,167.3035,170.914,175.277,177.563,182.666,184.953,187.1955,191.464,197.565,202.888,207.46,212.783,217.868,220.1105,223.712,229.813,232.099,240.751,243.037,245.2795,249.54,255.64,260.963,265.536,270.859,275.944,278.1865,281.788,286.9,289.187,296.165,298.451,300.69350000000003,304.954,312.142,314.804,320.127,322.3695,325.971,332.455,334.742,340.33,342.616,344.8585,349.128,357.441,362.014,367.337,372.422,374.66450000000003,378.275,384.375,386.662,390.915,393.1575,396.768,402.292,407.285,410.733,415.727,421.242,425.0094,428.677,433.79,436.451" svgx:width="0.5,0.5,0.25,0.55,0.67,0.58,0.5,0.55,0.25,0.55,1.0,0.25,0.95,0.25,0.25,0.55,0.56,0.48,0.29,0.25,0.55,0.6,0.25,0.67,0.25,0.25,0.55,0.67,0.58,0.5,0.58,0.56,0.25,0.55,0.67,0.25,0.95,0.25,0.25,0.55,0.67,0.58,0.5,0.58,0.56,0.25,0.55,0.67,0.25,0.76,0.25,0.25,0.55,0.79,0.29,0.58,0.25,0.55,0.71,0.25,0.61,0.25,0.25,0.55,1.0,0.5,0.58,0.56,0.25,0.55,0.67,0.25,0.56,0.25,0.55,0.6,0.55,0.4,0.55,0.6,0.42,0.55,0.61,0.29,0.79" style="fill:rgb(0,0,0);font-family:URWPalladioL-Roma;font-size:8.97px;stroke:none;">11. Zhao, W.M.; Fei, P.Y.; Zhang, X.M.; Zhang, Y.G.; Qin, C.L.; Wang, Z.F. Porous TiO</text>
   <text y="480.532" x="443.641" svgx:width="0.5" style="fill:rgb(0,0,0);font-family:URWPalladioL-Roma;font-size:6.97px;stroke:none;">2</text>
   <text y="478.741" x="447.627" svgx:width="0.29" style="fill:rgb(0,0,0);font-family:Rpxr;font-size:8.97px;stroke:none;">/</text>
   <text y="478.741" x="450.251,455.336" svgx:width="0.56,0.48" style="fill:rgb(0,0,0);font-family:URWPalladioL-Roma;font-size:8.97px;stroke:none;">Fe</text>
   <text y="480.532" x="459.717" svgx:width="0.5" style="fill:rgb(0,0,0);font-family:URWPalladioL-Roma;font-size:6.97px;stroke:none;">2</text>
   <text y="478.741" x="463.702" svgx:width="0.79" style="fill:rgb(0,0,0);font-family:URWPalladioL-Roma;font-size:8.97px;stroke:none;">O</text>
   <text y="480.532" x="470.891" svgx:width="0.5" style="fill:rgb(0,0,0);font-family:URWPalladioL-Roma;font-size:6.97px;stroke:none;">3</text>
   <text y="478.741" x="478.436,483.759,488.332,493.655,498.648,504.145,506.806,511.379,514.36" svgx:width="0.58,0.5,0.58,0.55,0.6,0.29,0.5,0.33,0.48" style="fill:rgb(0,0,0);font-family:URWPalladioL-Roma;font-size:8.97px;stroke:none;">nanoplate</text>
   <text y="491.652" x="98.05,102.015,106.891,114.777,120.144,125.02,128.807,131.406,134.317,138.595,142.3624,144.623,149.99,153.357,157.635,163.002,167.467,170.834,175.112,180.5837,182.81,187.748,192.7712,194.955,200.412,204.689,207.663,212.129,214.727,217.326,222.202,227.168,229.766,234.964,239.9872,242.171,250.057,254.334,257.246,262.443,267.319,272.7907,275.017,277.991,282.867,286.45500000000004,288.637,294.093,296.692,299.666,302.265,307.141,312.34360000000004,314.58,319.518,323.984,326.895,329.806,334.084,337.612,340.21,344.488,348.275" svgx:width="0.44,0.55,0.88,0.6,0.55,0.42,0.29,0.33,0.48,0.42,0.55,0.6,0.4,0.48,0.6,0.5,0.4,0.48,0.61,0.55,0.55,0.56,0.55,0.61,0.48,0.33,0.5,0.29,0.29,0.55,0.56,0.29,0.58,0.56,0.55,0.88,0.48,0.33,0.58,0.55,0.61,0.55,0.33,0.55,0.4,0.55,0.61,0.29,0.33,0.29,0.55,0.58,0.55,0.55,0.5,0.33,0.33,0.48,0.4,0.29,0.48,0.42,0.25" style="fill:rgb(0,0,0);font-family:URWPalladioL-Roma;font-size:8.97px;stroke:none;">composites prepared by de-alloying method for Li-ion batteries.</text>
   <text y="491.652" x="353.641,362.071,366.037,369.01,372.484,375.298,377.5405,380.665,385.63,389.104,392.078,395.052" svgx:width="0.94,0.44,0.33,0.39,0.39,0.25,0.55,0.56,0.39,0.33,0.33,0.25" style="fill:rgb(0,0,0);font-family:URWPalladioL-Ital;font-size:8.97px;stroke:none;">Mater. Lett.</text>
   <text y="491.652" x="400.423,404.906,409.389,413.873" svgx:width="0.5,0.5,0.5,0.5" style="fill:rgb(0,0,0);font-family:URWPalladioL-Bold;font-size:8.97px;stroke:none;">2018</text>
   <text y="491.652" x="418.356" svgx:width="0.25" style="fill:rgb(0,0,0);font-family:URWPalladioL-Roma;font-size:8.97px;stroke:none;">,</text>
   <text y="491.652" x="422.83,427.295,431.761" svgx:width="0.5,0.5,0.5" style="fill:rgb(0,0,0);font-family:URWPalladioL-Ital;font-size:8.97px;stroke:none;">211</text>
   <text y="491.652" x="436.226,438.4685,440.7,445.165,449.631,454.096,458.561,463.027,467.492,471.957,474.1995,477.324" svgx:width="0.25,0.55,0.5,0.5,0.5,0.5,0.5,0.5,0.5,0.25,0.55,0.33" style="fill:rgb(0,0,0);font-family:URWPalladioL-Roma;font-size:8.97px;stroke:none;">, 254–257. [</text>
   <text y="491.652" x="480.298,486.63,489.997,494.873,498.659,502.446,508.412,512.689" svgx:width="0.71,0.4,0.55,0.42,0.42,0.67,0.48,0.33" style="fill:rgb(8,117,183);font-family:URWPalladioL-Roma;font-size:8.97px;stroke:none;">CrossRef</text>
   <text y="491.652" x="515.663" svgx:width="0.33" style="fill:rgb(0,0,0);font-family:URWPalladioL-Roma;font-size:8.97px;stroke:none;">]</text>
   <text y="504.564" x="76.535,81.018,85.501,87.74350000000001,98.05,106.373,110.945,116.268,121.353,123.5955,125.972,132.072,134.359,138.611,140.898,143.1405,145.562,151.662,156.985,161.558,166.881,171.966,174.20850000000002,176.584,182.685,184.971,193.623,195.909,198.1515,200.574,206.162,208.823,214.329,216.57150000000001,218.947,225.048,227.334,232.922,235.209,237.4515,239.873,245.973,251.296,255.869,261.192,266.277,268.5195,270.895,279.218,281.504,288.693,290.979,293.2215,295.634,301.735,307.057,311.63,316.953,322.038,324.2805,326.657,331.76,334.046,341.025,343.311,345.5535,347.975,353.563,356.225,358.46750000000003,360.843,365.947,368.233,373.336,375.623,377.8655,380.287,387.476,390.137,395.46,397.7025,400.069,406.554,408.84,414.428,416.715,418.9575,421.379,427.479,432.802,437.375,442.368,444.6105,446.987,455.31,457.596,466.248,468.534,470.7765,473.19,478.778,483.35,488.436,492.816,498.139,503.133,507.303,509.5455,511.922,518.022" svgx:width="0.5,0.5,0.25,0.55,1.0,0.5,0.58,0.56,0.25,0.55,0.67,0.25,0.56,0.25,0.25,0.55,0.67,0.58,0.5,0.58,0.56,0.25,0.55,0.67,0.25,0.95,0.25,0.25,0.55,0.61,0.29,0.6,0.25,0.55,0.67,0.25,0.61,0.25,0.25,0.55,0.67,0.58,0.5,0.58,0.56,0.25,0.55,1.0,0.25,0.79,0.25,0.25,0.55,0.67,0.58,0.5,0.58,0.56,0.25,0.55,0.67,0.25,0.76,0.25,0.25,0.55,0.61,0.29,0.25,0.55,0.67,0.25,0.67,0.25,0.25,0.55,0.79,0.29,0.58,0.25,0.55,0.71,0.25,0.61,0.25,0.25,0.55,0.67,0.58,0.5,0.55,0.25,0.55,1.0,0.25,0.95,0.25,0.25,0.55,0.61,0.5,0.56,0.48,0.58,0.55,0.56,0.25,0.55,0.67,0.25" style="fill:rgb(0,0,0);font-family:URWPalladioL-Roma;font-size:8.97px;stroke:none;">12. Wang, Z.F.; Zhang, X.M.; Liu, X.L.; Zhang, W.Q.; Zhang, Y.G.; Li, Y.Y.; Qin, C.L.; Zhao, W.M.; Bakenov, Z.</text>
   <text y="517.475" x="98.05,104.851,110.15,114.543,117.1,120.026,125.141,129.35,132.214,139.543,144.34,147.811,152.8342,154.806,159.92,164.313,169.427,174.225,179.506,184.304,187.617,192.414,197.713,201.4804,203.548,210.85,213.407,218.292" svgx:width="0.77,0.6,0.5,0.29,0.33,0.58,0.48,0.33,0.83,0.55,0.4,0.56,0.55,0.58,0.5,0.58,0.55,0.6,0.55,0.4,0.55,0.6,0.42,0.55,0.83,0.29,0.56,0.48" style="fill:rgb(0,0,0);font-family:URWPalladioL-Roma;font-size:8.97px;stroke:none;">Dual-network nanoporous NiFe</text>
   <text y="519.267" x="222.499" svgx:width="0.5" style="fill:rgb(0,0,0);font-family:URWPalladioL-Roma;font-size:6.97px;stroke:none;">2</text>
   <text y="517.475" x="226.484" svgx:width="0.79" style="fill:rgb(0,0,0);font-family:URWPalladioL-Roma;font-size:8.97px;stroke:none;">O</text>
   <text y="519.267" x="233.391" svgx:width="0.5" style="fill:rgb(0,0,0);font-family:URWPalladioL-Roma;font-size:6.97px;stroke:none;">4</text>
   <text y="517.475" x="237.376" svgx:width="0.29" style="fill:rgb(0,0,0);font-family:Rpxr;font-size:8.97px;stroke:none;">/</text>
   <text y="517.475" x="239.898,247.2,249.757,258.773,262.674,267.472,275.231,280.512,285.31,289.035,291.592,294.457,298.666,302.4334,304.5,307.427,312.224,315.812,317.804,322.918,325.475,330.361,335.5636,337.584,342.865,347.074,350.545,353.471,358.269,361.739,369.498,373.892,379.006,382.907,387.2126,389.225,394.594,397.151,400.077,402.634,407.432,412.63460000000003,414.664,419.523,423.917,426.781,429.637,433.846,437.317,442.3402,444.32,448.714,453.828,458.626,463.994,468.203,471.929" svgx:width="0.83,0.29,0.79,0.44,0.55,0.88,0.6,0.55,0.42,0.29,0.33,0.48,0.42,0.55,0.33,0.55,0.4,0.55,0.58,0.29,0.56,0.58,0.55,0.6,0.48,0.4,0.33,0.55,0.4,0.88,0.5,0.58,0.44,0.48,0.55,0.61,0.29,0.33,0.29,0.55,0.58,0.55,0.55,0.5,0.33,0.33,0.48,0.4,0.56,0.55,0.5,0.58,0.55,0.61,0.48,0.42,0.25" style="fill:rgb(0,0,0);font-family:URWPalladioL-Roma;font-size:8.97px;stroke:none;">NiOcomposites for high performance Li-ion battery anodes.</text>
   <text y="517.475" x="477.216,483.077,487.47,490.889,497.725,499.96750000000003,503.015,508.384,513.269,517.663" svgx:width="0.67,0.5,0.39,0.78,0.25,0.55,0.61,0.56,0.5,0.25" style="fill:rgb(0,0,0);font-family:URWPalladioL-Ital;font-size:8.97px;stroke:none;">Chem. Eng.</text>
   <text y="530.387" x="98.05,101.036" svgx:width="0.33,0.25" style="fill:rgb(0,0,0);font-family:URWPalladioL-Ital;font-size:8.97px;stroke:none;">J.</text>
   <text y="530.387" x="105.519,110.002,114.485,118.969" svgx:width="0.5,0.5,0.5,0.5" style="fill:rgb(0,0,0);font-family:URWPalladioL-Bold;font-size:8.97px;stroke:none;">2020</text>
   <text y="530.387" x="123.452" svgx:width="0.25" style="fill:rgb(0,0,0);font-family:URWPalladioL-Roma;font-size:8.97px;stroke:none;">,</text>
   <text y="530.387" x="127.935,132.418,136.901" svgx:width="0.5,0.5,0.5" style="fill:rgb(0,0,0);font-family:URWPalladioL-Ital;font-size:8.97px;stroke:none;">388</text>
   <text y="530.387" x="141.385,143.6275,145.868,150.351,154.835,159.318,163.801,168.284,172.767,175.0095,178.147" svgx:width="0.25,0.55,0.5,0.5,0.5,0.5,0.5,0.5,0.25,0.55,0.33" style="fill:rgb(0,0,0);font-family:URWPalladioL-Roma;font-size:8.97px;stroke:none;">, 124207. [</text>
   <text y="530.387" x="181.133,187.49,190.871,195.766,199.568,203.37,209.359,213.654" svgx:width="0.71,0.4,0.55,0.42,0.42,0.67,0.48,0.33" style="fill:rgb(8,117,183);font-family:URWPalladioL-Roma;font-size:8.97px;stroke:none;">CrossRef</text>
   <text y="530.387" x="216.64" svgx:width="0.33" style="fill:rgb(0,0,0);font-family:URWPalladioL-Roma;font-size:8.97px;stroke:none;">]</text>
   <text y="543.299" x="76.535,81.018,85.501,87.74350000000001,98.05,106.422,110.847,113.0895,115.298,123.325,125.538,132.494,134.706,136.9485,139.158,144.565,147.14,152.477,154.7195,156.928,162.831,165.043,170.946,173.159,175.4015,177.61,185.637,190.062,195.212,200.133,202.37550000000002,204.584,210.487,212.7,214.9425,217.151,225.178,229.603,234.754,239.674,241.9165,244.126,250.028,252.241,256.338,258.551,260.7935,263.002,268.905,274.056,278.481,283.631,288.552,290.7945,293.003,298.915,301.127,306.535,308.747,310.9895,313.199,318.296,323.633,328.057,333.208,335.45050000000003,337.66,343.562,345.775,353.138,355.35,357.59250000000003,359.802,366.652,369.227,374.378,379.298,381.5405,383.749,388.661,390.9035,393.113,399.387,402.883,407.803,411.556,414.441,418.866,421.441,424.016,426.592,431.742,436.04760000000005,438.22,444.495,449.831,452.778,456.531,459.106,461.681,464.257,468.186,470.761,476.168,480.47360000000003,482.647,486.399,489.284,493.709,498.603,501.178,503.753,506.329,510.754,514.993" svgx:width="0.5,0.5,0.25,0.55,0.95,0.5,0.25,0.55,1.0,0.25,0.79,0.25,0.25,0.55,0.61,0.29,0.6,0.25,0.55,0.67,0.25,0.67,0.25,0.25,0.55,1.0,0.5,0.58,0.56,0.25,0.55,0.67,0.25,0.25,0.55,1.0,0.5,0.58,0.56,0.25,0.55,0.67,0.25,0.56,0.25,0.25,0.55,0.67,0.58,0.5,0.58,0.56,0.25,0.55,0.67,0.25,0.61,0.25,0.25,0.55,0.67,0.6,0.5,0.58,0.25,0.55,0.67,0.25,0.83,0.25,0.25,0.55,0.77,0.29,0.58,0.56,0.25,0.55,0.67,0.25,0.55,0.71,0.4,0.56,0.42,0.33,0.5,0.29,0.29,0.29,0.58,0.48,0.55,0.71,0.6,0.33,0.42,0.29,0.29,0.29,0.44,0.29,0.61,0.48,0.55,0.42,0.33,0.5,0.55,0.29,0.29,0.29,0.5,0.48,0.42" style="fill:rgb(0,0,0);font-family:URWPalladioL-Roma;font-size:8.97px;stroke:none;">13. Ma, W.Q.; Liu, X.Z.; Wang, X.; Wang, Z.F.; Zhang, R.E.; Yuan, Z.H.; Ding, Y. Crystalline Cu-silicide stabilizes</text>
   <text y="556.21" x="98.05,101.032,106.354,110.6596,113.031,118.527,122.908,126.521,129.566,134.56,138.172,146.248,150.821,156.144,160.204,164.5096,166.881,171.874,174.8341,177.215,181.70000000000002,184.075,189.398,192.059,197.144,202.3466,204.762,208.823,213.396,218.893,223.465,227.526,230.187,233.169,238.1922,240.55,245.351,248.012,251.058,256.116,260.689,264.566,268.947,274.4187,276.831,282.419,285.08,288.126,290.787,295.781,300.9836,303.399,308.457,313.029,316.011,318.992,323.373,326.986,332.00919999999996,334.357,338.93,344.253,349.247,354.835,359.215" svgx:width="0.33,0.58,0.48,0.55,0.6,0.48,0.4,0.33,0.55,0.4,0.88,0.5,0.58,0.44,0.48,0.55,0.55,0.33,0.55,0.5,0.55,0.58,0.29,0.56,0.58,0.55,0.44,0.5,0.6,0.5,0.44,0.29,0.33,0.56,0.55,0.52,0.29,0.33,0.55,0.5,0.42,0.48,0.61,0.55,0.61,0.29,0.33,0.29,0.55,0.58,0.55,0.55,0.5,0.33,0.33,0.48,0.4,0.56,0.55,0.5,0.58,0.55,0.61,0.48,0.25" style="fill:rgb(0,0,0);font-family:URWPalladioL-Roma;font-size:8.97px;stroke:none;">the performance of a high capacity Si-based Li-ion battery anode.</text>
   <text y="556.21" x="364.802,367.848,370.0905,372.43,381.063,385.124,388.169,391.727,394.617,396.8595,400.205,406.305,410.878,414.436,421.551,423.7935,427.13" svgx:width="0.33,0.25,0.55,0.94,0.44,0.33,0.39,0.39,0.25,0.55,0.67,0.5,0.39,0.78,0.25,0.55,0.72" style="fill:rgb(0,0,0);font-family:URWPalladioL-Ital;font-size:8.97px;stroke:none;">J. Mater. Chem. A</text>
   <text y="556.21" x="436.028,440.511,444.994,449.478" svgx:width="0.5,0.5,0.5,0.5" style="fill:rgb(0,0,0);font-family:URWPalladioL-Bold;font-size:8.97px;stroke:none;">2016</text>
   <text y="556.21" x="453.961" svgx:width="0.25" style="fill:rgb(0,0,0);font-family:URWPalladioL-Roma;font-size:8.97px;stroke:none;">,</text>
   <text y="556.21" x="458.555" svgx:width="0.5" style="fill:rgb(0,0,0);font-family:URWPalladioL-Ital;font-size:8.97px;stroke:none;">4</text>
   <text y="556.21" x="463.128,465.3705,467.719,472.292,476.865,481.438,486.011,490.584,495.156,499.729,504.302,508.875,513.448,518.021" svgx:width="0.25,0.55,0.5,0.5,0.5,0.5,0.5,0.5,0.5,0.5,0.5,0.5,0.5,0.25" style="fill:rgb(0,0,0);font-family:URWPalladioL-Roma;font-size:8.97px;stroke:none;">, 19140–19146.</text>
   <text y="569.122" x="98.05" svgx:width="0.33" style="fill:rgb(0,0,0);font-family:URWPalladioL-Roma;font-size:8.97px;stroke:none;">[</text>
   <text y="569.122" x="101.036,107.393,110.773,115.669,119.471,123.272,129.262,133.557" svgx:width="0.71,0.4,0.55,0.42,0.42,0.67,0.48,0.33" style="fill:rgb(8,117,183);font-family:URWPalladioL-Roma;font-size:8.97px;stroke:none;">CrossRef</text>
   <text y="569.122" x="136.543" svgx:width="0.33" style="fill:rgb(0,0,0);font-family:URWPalladioL-Roma;font-size:8.97px;stroke:none;">]</text>
   <text y="582.033" x="76.535,81.018,85.501,87.74350000000001,98.05,106.373,110.945,116.268,121.353,123.5955,127.143,132.731,135.017,137.2595,141.437,149.76,154.333,159.656,164.741,166.98350000000002,170.53,175.633,177.92,180.1625,184.349,189.873,194.254,199.577,204.662,206.9045,210.451,215.554,217.841,220.08350000000002,224.261,232.584,237.157,242.479,247.564,249.8065,253.354,259.454,261.74,263.9825,268.161,276.483,281.056,286.379,291.464,293.7065,297.253,304.853,307.14,309.3825,313.569,321.883,326.455,331.778,336.863,339.1055,342.662,345.707,347.994,350.23650000000004,354.414,360.514,365.837,370.41,375.403,377.6455,381.193,384.238,386.4805,390.027,397.628,400.289,403.27,406.727,411.721,416.806,421.187,426.51,429.555,435.143,440.128,445.624,450.005,455.4767,459.105,464.163,466.824,471.818,479.893,484.466,488.344,492.222,495.267,500.325,504.898,508.775,513.156" svgx:width="0.5,0.5,0.25,0.55,1.0,0.5,0.58,0.56,0.25,0.55,0.61,0.25,0.25,0.55,1.0,0.5,0.58,0.56,0.25,0.55,0.67,0.25,0.25,0.55,0.6,0.48,0.58,0.56,0.25,0.55,0.67,0.25,0.25,0.55,1.0,0.5,0.58,0.56,0.25,0.55,0.67,0.25,0.25,0.55,1.0,0.5,0.58,0.56,0.25,0.55,0.83,0.25,0.25,0.55,1.0,0.5,0.58,0.56,0.25,0.55,0.33,0.25,0.25,0.55,0.67,0.58,0.5,0.55,0.25,0.55,0.33,0.25,0.55,0.83,0.29,0.33,0.4,0.55,0.56,0.48,0.58,0.33,0.61,0.55,0.6,0.48,0.61,0.55,0.55,0.29,0.55,0.88,0.5,0.42,0.42,0.33,0.55,0.5,0.42,0.48,0.61" style="fill:rgb(0,0,0);font-family:URWPalladioL-Roma;font-size:8.97px;stroke:none;">14. Wang, B.; Wang, Y.; Peng, Y.; Wang, X.; Wang, N.; Wang, J.; Zhao, J. Nitrogen-doped biomass-based</text>
   <text y="594.945" x="98.05,103.295,105.917,110.233,113.793,118.298,121.695,125.696,130.941,133.563,137.564,142.07,144.6713,146.927,152.343,157.263,160.66,165.58,171.014,174.78140000000002,177.079,181.079,185.585,189.145,194.128,199.048,204.2506,206.527,214.043,216.665,219.603,224.8056,227.082,229.704,234.21,237.607,242.617,246.9226,249.177,257.134,261.451,265.271,270.192,275.607,280.527,283.925,288.845,294.279,298.0464,300.334,305.425,310.346,312.968,318.402,326.359,330.6646,332.91,335.91,340.831,344.41900000000004,346.625,351.13,356.546,361.962,364.584,367.206,371.207,375.713,378.651,381.273,386.193,391.3956,393.681,396.304,401.5066,403.783,408.099,413.344,417.66,421.057,426.068,431.09119999999996,433.313,437.134,440.071,444.991,448.551,453.056,458.067,462.383" svgx:width="0.58,0.29,0.48,0.4,0.5,0.4,0.44,0.58,0.29,0.44,0.5,0.29,0.55,0.6,0.55,0.4,0.55,0.6,0.42,0.55,0.44,0.5,0.4,0.55,0.55,0.58,0.55,0.83,0.29,0.33,0.58,0.55,0.29,0.5,0.4,0.56,0.48,0.55,0.88,0.48,0.42,0.55,0.6,0.55,0.4,0.55,0.6,0.42,0.55,0.56,0.55,0.29,0.6,0.88,0.48,0.55,0.33,0.55,0.4,0.55,0.5,0.6,0.6,0.29,0.29,0.44,0.5,0.33,0.29,0.55,0.58,0.55,0.29,0.58,0.55,0.48,0.58,0.48,0.4,0.56,0.56,0.55,0.42,0.33,0.55,0.4,0.5,0.56,0.48,0.25" style="fill:rgb(0,0,0);font-family:URWPalladioL-Roma;font-size:8.97px;stroke:none;">hierarchical porous carbon with large mesoporous volume for application in energy storage.</text>
   <text y="594.945" x="467.775,473.785,478.291,481.796,488.807,491.0495,494.196,499.702,504.712,509.218,511.4605,514.606,517.607" svgx:width="0.67,0.5,0.39,0.78,0.25,0.55,0.61,0.56,0.5,0.25,0.55,0.33,0.25" style="fill:rgb(0,0,0);font-family:URWPalladioL-Ital;font-size:8.97px;stroke:none;">Chem. Eng. J.</text>
   <text y="607.857" x="98.05,102.533,107.016,111.5" svgx:width="0.5,0.5,0.5,0.5" style="fill:rgb(0,0,0);font-family:URWPalladioL-Bold;font-size:8.97px;stroke:none;">2018</text>
   <text y="607.857" x="115.983" svgx:width="0.25" style="fill:rgb(0,0,0);font-family:URWPalladioL-Roma;font-size:8.97px;stroke:none;">,</text>
   <text y="607.857" x="120.466,124.949,129.432" svgx:width="0.5,0.5,0.5" style="fill:rgb(0,0,0);font-family:URWPalladioL-Ital;font-size:8.97px;stroke:none;">348</text>
   <text y="607.857" x="133.916,136.1585,138.399,142.882,147.366,151.849,156.332,160.815,165.298,169.782,172.02450000000002,175.161" svgx:width="0.25,0.55,0.5,0.5,0.5,0.5,0.5,0.5,0.5,0.25,0.55,0.33" style="fill:rgb(0,0,0);font-family:URWPalladioL-Roma;font-size:8.97px;stroke:none;">, 850–859. [</text>
   <text y="607.857" x="178.147,184.504,187.885,192.78,196.582,200.384,206.374,210.668" svgx:width="0.71,0.4,0.55,0.42,0.42,0.67,0.48,0.33" style="fill:rgb(8,117,183);font-family:URWPalladioL-Roma;font-size:8.97px;stroke:none;">CrossRef</text>
   <text y="607.857" x="213.654" svgx:width="0.33" style="fill:rgb(0,0,0);font-family:URWPalladioL-Roma;font-size:8.97px;stroke:none;">]</text>
   <text y="620.768" x="76.535,81.018,85.501,87.74350000000001,98.05,102.61,107.004,109.561,113.955,119.236,123.629,128.743,132.952,138.066,140.623,142.8655,144.797,149.41,151.607,158.909,161.106,163.3485,165.359,170.728,174.937,179.146,181.3885,183.32,186.246,188.443,195.753,197.95,200.1925,202.212,205.138,209.347,211.58950000000002,213.512,218.125,220.322,227.633,229.83,232.07250000000002,234.091,239.46,244.759,249.645,254.943,259.829,263.73,268.124,273.009,275.566,278.369,280.61150000000004,282.543,289.45,291.647,293.8895,295.9,302.279,309.608,314.405,319.519,321.7615,323.693,328.412,330.609,338.57,340.767,343.0095,345.028,350.336,355.133,357.69,362.576,366.478,371.592,374.904,379.702,384.816,389.614,394.895,399.693,404.991,407.548,412.346,417.645,419.8875,421.81,428.189,430.386,432.62850000000003,434.648,440.878,445.992,450.789,453.346,455.5885,457.512,460.438,462.634,470.604,472.801,475.0435,477.054,483.284,488.082,491.808,496.693,501.992,507.106,509.3485,511.28,518.116" svgx:width="0.5,0.5,0.25,0.55,0.61,0.5,0.29,0.5,0.6,0.5,0.58,0.48,0.58,0.29,0.25,0.55,0.52,0.25,0.83,0.25,0.25,0.55,0.61,0.48,0.48,0.25,0.55,0.33,0.25,0.83,0.25,0.25,0.55,0.33,0.48,0.25,0.55,0.52,0.25,0.83,0.25,0.25,0.55,0.61,0.6,0.56,0.6,0.56,0.44,0.5,0.56,0.29,0.4,0.25,0.55,0.79,0.25,0.25,0.55,0.73,0.83,0.55,0.58,0.25,0.55,0.61,0.25,1.0,0.25,0.25,0.55,0.6,0.55,0.29,0.56,0.44,0.58,0.4,0.55,0.58,0.55,0.6,0.55,0.6,0.29,0.55,0.6,0.25,0.55,0.73,0.25,0.25,0.55,0.71,0.58,0.55,0.29,0.25,0.55,0.33,0.25,1.0,0.25,0.25,0.55,0.71,0.55,0.42,0.56,0.6,0.58,0.25,0.55,0.78,0.25" style="fill:rgb(0,0,0);font-family:URWPalladioL-Roma;font-size:8.97px;stroke:none;">15. Talapaneni, S.N.; Lee, J.H.; Je, S.H.; Buyukcakir, O.; Kwon, T.W.; Polychronopoulou, K.; Choi, J.W.; Coskun, A.</text>
   <text y="633.68" x="98.05,104.414,109.637,113.936,121.862,124.473,128.459,132.946,135.5473,137.811,142.774,145.377,150.278,157.763,160.375,165.599,170.6222,172.842,177.329,182.724,188.118,191.502,196.402,200.89,204.875,210.0776,212.342,215.331,220.232,223.82,226.03,231.442,234.054,236.98,240.525,245.013,252.938,255.55,259.535,262.919,267.819,273.213,278.114,281.497,286.398,291.81,295.5774,297.86,301.845,306.332,309.878,314.841,319.741,324.9436,327.218,332.442,335.053,337.979,341.525,344.137,349.62,353.92560000000003,356.164,359.152,362.698,367.185,375.111,379.41,386.895,391.796,395.341,400.331,404.0984,406.39,410.877,416.101,421.5727,423.829,426.755,431.978,436.278,438.889,442.47700000000003,444.687,449.175,454.569,459.963,462.575,465.187,469.172,473.66,476.586,479.198,484.098,489.322,493.0894,495.371,497.983,503.1856,505.46,510.45,514.938" svgx:width="0.71,0.58,0.48,0.88,0.29,0.44,0.5,0.29,0.55,0.55,0.29,0.55,0.83,0.29,0.58,0.56,0.55,0.5,0.6,0.6,0.4,0.55,0.5,0.44,0.58,0.55,0.33,0.55,0.4,0.55,0.6,0.29,0.33,0.4,0.5,0.88,0.29,0.44,0.4,0.55,0.6,0.55,0.4,0.55,0.6,0.42,0.55,0.44,0.5,0.4,0.55,0.55,0.58,0.55,0.58,0.29,0.33,0.4,0.29,0.61,0.48,0.55,0.33,0.4,0.5,0.88,0.48,0.83,0.55,0.4,0.56,0.42,0.55,0.5,0.58,0.61,0.55,0.33,0.58,0.48,0.29,0.4,0.55,0.5,0.6,0.6,0.29,0.29,0.44,0.5,0.33,0.29,0.55,0.58,0.42,0.55,0.29,0.58,0.55,0.56,0.5,0.42" style="fill:rgb(0,0,0);font-family:URWPalladioL-Roma;font-size:8.97px;stroke:none;">Chemical blowing approach for ultramicroporous carbon nitride frameworks and their applications in gas</text>
   <text y="646.591" x="98.05,102.533,107.752,113.2237,115.472,119.767,124.985,129.28,132.66,137.646,142.6692,144.873,148.674,151.597,156.493,160.035,164.518,169.503,173.798" svgx:width="0.5,0.58,0.61,0.55,0.48,0.58,0.48,0.4,0.56,0.56,0.55,0.42,0.33,0.55,0.4,0.5,0.56,0.48,0.25" style="fill:rgb(0,0,0);font-family:URWPalladioL-Roma;font-size:8.97px;stroke:none;">and energy storage.</text>
   <text y="646.591" x="179.178,185.652,190.135,194.125,196.3675,199.505,204.49,209.475,214.461,218.11,221.096,223.3385,226.476,234.94,238.921,241.907,245.395,248.219" svgx:width="0.72,0.5,0.5,0.25,0.55,0.56,0.56,0.56,0.41,0.33,0.25,0.55,0.94,0.44,0.33,0.39,0.39,0.25" style="fill:rgb(0,0,0);font-family:URWPalladioL-Ital;font-size:8.97px;stroke:none;">Adv. Funct. Mater.</text>
   <text y="646.591" x="253.598,258.081,262.564,267.048" svgx:width="0.5,0.5,0.5,0.5" style="fill:rgb(0,0,0);font-family:URWPalladioL-Bold;font-size:8.97px;stroke:none;">2017</text>
   <text y="646.591" x="271.531" svgx:width="0.25" style="fill:rgb(0,0,0);font-family:URWPalladioL-Roma;font-size:8.97px;stroke:none;">,</text>
   <text y="646.591" x="276.014,280.497" svgx:width="0.5,0.5" style="fill:rgb(0,0,0);font-family:URWPalladioL-Ital;font-size:8.97px;stroke:none;">27</text>
   <text y="646.591" x="284.98,287.2225,289.463,293.946,298.43,302.913,307.396,311.879,316.362,320.846,323.0885,326.226" svgx:width="0.25,0.55,0.5,0.5,0.5,0.5,0.5,0.5,0.5,0.25,0.55,0.33" style="fill:rgb(0,0,0);font-family:URWPalladioL-Roma;font-size:8.97px;stroke:none;">, 1604658. [</text>
   <text y="646.591" x="329.211,335.569,338.949,343.845,347.646,351.448,357.438,361.732" svgx:width="0.71,0.4,0.55,0.42,0.42,0.67,0.48,0.33" style="fill:rgb(8,117,183);font-family:URWPalladioL-Roma;font-size:8.97px;stroke:none;">CrossRef</text>
   <text y="646.591" x="364.718" svgx:width="0.33" style="fill:rgb(0,0,0);font-family:URWPalladioL-Roma;font-size:8.97px;stroke:none;">]</text>
   <text y="659.503" x="76.535,81.018,85.501,87.74350000000001,98.05,104.15,109.473,114.988,117.2305,119.954,128.606,130.892,133.1345,136.087,141.675,147.19,152.184,154.4265,157.15,163.25,165.536,167.7785,170.731,176.255,180.828,186.151,188.39350000000002,191.117,198.232,200.519,202.7615,205.714,210.991,215.564,220.886,225.971,228.2135,230.937,238.547,240.833,243.0755,246.028,252.128,257.451,262.966,265.2085,267.932,272.88,275.166,277.4085,280.352,285.94,288.601,293.174,298.497,303.582,305.8245,308.557,313.359,315.645,317.8875,320.831,327.315,331.888,336.882,339.1245,341.857,348.835,351.0775,353.801,361.401,364.447,370.035,375.028,380.525,384.906,390.3777,393.174,398.167,403.49,407.871,410.916,416.504,419.166,427.241,431.622,436.945,440.823,443.484,448.478,453.801,458.373,460.97429999999997,463.724,467.784,472.357,475.97,481.027,486.021,491.344,495.917,499.977,504.358,509.352,514.867" svgx:width="0.5,0.5,0.25,0.55,0.67,0.58,0.6,0.25,0.55,0.95,0.25,0.25,0.55,0.61,0.6,0.55,0.25,0.55,0.67,0.25,0.25,0.55,0.6,0.5,0.58,0.25,0.55,0.78,0.25,0.25,0.55,0.67,0.5,0.58,0.56,0.25,0.55,0.83,0.25,0.25,0.55,0.67,0.58,0.6,0.25,0.55,0.61,0.25,0.25,0.55,0.61,0.29,0.5,0.58,0.56,0.25,0.55,0.52,0.25,0.25,0.55,0.71,0.5,0.55,0.25,0.55,0.76,0.25,0.55,0.83,0.33,0.61,0.55,0.6,0.48,0.61,0.55,0.55,0.58,0.48,0.33,0.61,0.29,0.88,0.48,0.58,0.42,0.29,0.55,0.58,0.5,0.29,0.55,0.44,0.5,0.4,0.55,0.55,0.58,0.5,0.44,0.48,0.55,0.6,0.42" style="fill:rgb(0,0,0);font-family:URWPalladioL-Roma;font-size:8.97px;stroke:none;">16. Zhu, M.; Luo, Z.; Pan, A.; Yang, H.; Zhu, T.; Liang, S.; Cao, G. N-doped one-dimensional carbonaceous</text>
   <text y="672.415" x="98.05,102.909,107.303,111.204,116.09,120.949,125.747,130.861,135.07,138.8374,140.72,144.446,149.744,155.025,160.298,165.095,168.566,171.431,175.64,181.11169999999998,182.933,191.246,196.043,200.657" svgx:width="0.55,0.5,0.44,0.56,0.55,0.55,0.58,0.48,0.42,0.55,0.42,0.6,0.6,0.6,0.55,0.4,0.33,0.48,0.61,0.55,0.95,0.55,0.52,0.48" style="fill:rgb(0,0,0);font-family:URWPalladioL-Roma;font-size:8.97px;stroke:none;">backbones supported MoSe</text>
   <text y="674.206" x="204.865" svgx:width="0.5" style="fill:rgb(0,0,0);font-family:URWPalladioL-Roma;font-size:6.97px;stroke:none;">2</text>
   <text y="672.415" x="210.771,215.885,220.279,225.393,230.19,233.916,239.03,243.239,247.448,250.313,254.0804,255.954,260.348,264.1154,265.998,269.723,275.022,280.303,284.512,287.983,290.54,295.338,298.92600000000004,300.724,304.933,307.49,311.699,315.601,318.465,321.778,326.576,331.945,336.154,339.9214,341.804,344.73,349.528,353.11600000000004,354.914,359.123,364.237,368.446,371.759,376.645,381.66819999999996,383.446,387.171,390.036,394.834,398.305,402.698,407.584,411.88960000000003,413.717,418.111,423.225,428.6967,430.509,434.411,439.208,444.323,449.287,453.496,456.967,460.693,463.25,468.048,473.162" svgx:width="0.58,0.5,0.58,0.55,0.42,0.58,0.48,0.48,0.33,0.42,0.55,0.5,0.42,0.55,0.42,0.6,0.6,0.48,0.4,0.29,0.55,0.4,0.55,0.48,0.29,0.48,0.44,0.33,0.4,0.55,0.61,0.48,0.42,0.55,0.33,0.55,0.4,0.55,0.48,0.58,0.48,0.4,0.56,0.56,0.55,0.42,0.33,0.55,0.4,0.5,0.56,0.48,0.55,0.5,0.58,0.61,0.55,0.44,0.55,0.58,0.56,0.48,0.4,0.42,0.29,0.55,0.58,0.25" style="fill:rgb(0,0,0);font-family:URWPalladioL-Roma;font-size:8.97px;stroke:none;">nanosheets as superior electrodes for energy storage and conversion.</text>
   <text y="672.415" x="478.391,484.252,488.645,492.064,498.9,501.1425,503.012,508.381,513.267,517.66" svgx:width="0.67,0.5,0.39,0.78,0.25,0.55,0.61,0.56,0.5,0.25" style="fill:rgb(0,0,0);font-family:URWPalladioL-Ital;font-size:8.97px;stroke:none;">Chem. Eng.</text>
   <text y="685.326" x="98.05,101.036" svgx:width="0.33,0.25" style="fill:rgb(0,0,0);font-family:URWPalladioL-Ital;font-size:8.97px;stroke:none;">J.</text>
   <text y="685.326" x="105.519,110.002,114.485,118.969" svgx:width="0.5,0.5,0.5,0.5" style="fill:rgb(0,0,0);font-family:URWPalladioL-Bold;font-size:8.97px;stroke:none;">2018</text>
   <text y="685.326" x="123.452" svgx:width="0.25" style="fill:rgb(0,0,0);font-family:URWPalladioL-Roma;font-size:8.97px;stroke:none;">,</text>
   <text y="685.326" x="127.935,132.418,136.901" svgx:width="0.5,0.5,0.5" style="fill:rgb(0,0,0);font-family:URWPalladioL-Ital;font-size:8.97px;stroke:none;">334</text>
   <text y="685.326" x="141.385,143.6275,145.868,150.351,154.835,159.318,163.801,168.284,172.767,177.251,181.734,186.217,188.45950000000002,191.597" svgx:width="0.25,0.55,0.5,0.5,0.5,0.5,0.5,0.5,0.5,0.5,0.5,0.25,0.55,0.33" style="fill:rgb(0,0,0);font-family:URWPalladioL-Roma;font-size:8.97px;stroke:none;">, 2190–2200. [</text>
   <text y="685.326" x="194.583,200.94,204.32,209.216,213.018,216.819,222.809,227.104" svgx:width="0.71,0.4,0.55,0.42,0.42,0.67,0.48,0.33" style="fill:rgb(8,117,183);font-family:URWPalladioL-Roma;font-size:8.97px;stroke:none;">CrossRef</text>
   <text y="685.326" x="230.09" svgx:width="0.33" style="fill:rgb(0,0,0);font-family:URWPalladioL-Roma;font-size:8.97px;stroke:none;">]</text>
   <text y="698.238" x="76.535,81.018,85.501,87.74350000000001,98.05,103.589,107.931,113.207,117.739,120.377,125.417,129.95,132.869,135.1115,137.374,145.95,148.216,154.271,156.538,158.78050000000002,161.043,165.775,170.307,172.945,177.478,182.926,187.458,192.734,197.076,202.352,204.99,207.23250000000002,209.505,214.264,216.53,224.063,226.329,228.57150000000001,230.835,233.853,238.803,242.646,246.988,252.436,257.712,259.9545,262.218,266.977,269.243,271.4855,273.748,279.804,284.336,292.341,296.873,302.412,306.945,310.788,314.632,316.8745,319.146,325.727,327.994,330.23650000000004,332.499,337.258,339.896,345.172,350.212,355.488,357.7305,359.993,366.91,369.176,371.4185,373.681,378.441,382.465,386.998,390.579,395.111,400.387,403.342,408.292,410.5345,412.806,415.825,418.091,420.3335,422.596,428.652,433.184,438.306,443.255,448.531,450.7735,453.037,460.089,462.355,464.5975,466.861,473.913,476.551,479.57,485.109,489.641,494.917,497.555,500.193,504.236,506.4785,508.75,515.331,517.598" svgx:width="0.5,0.5,0.25,0.55,0.61,0.48,0.58,0.5,0.29,0.56,0.5,0.4,0.25,0.55,0.95,0.25,0.67,0.25,0.25,0.55,0.61,0.5,0.29,0.5,0.6,0.5,0.58,0.48,0.58,0.29,0.25,0.55,0.52,0.25,0.83,0.25,0.25,0.55,0.33,0.55,0.42,0.48,0.6,0.58,0.25,0.55,0.52,0.25,0.25,0.55,0.67,0.5,0.88,0.5,0.61,0.5,0.42,0.42,0.25,0.55,0.73,0.25,0.25,0.55,0.52,0.29,0.58,0.56,0.58,0.25,0.55,0.76,0.25,0.25,0.55,0.52,0.44,0.5,0.4,0.5,0.58,0.33,0.55,0.25,0.55,0.33,0.25,0.25,0.55,0.67,0.5,0.56,0.55,0.58,0.25,0.55,0.78,0.25,0.25,0.55,0.78,0.29,0.33,0.61,0.5,0.58,0.29,0.29,0.56,0.25,0.55,0.73,0.25,0.25" style="fill:rgb(0,0,0);font-family:URWPalladioL-Roma;font-size:8.97px;stroke:none;">17. Benzigar, M.R.; Talapaneni, S.N.; Joseph, S.; Ramadass, K.; Singh, G.; Scaranto, J.; Ravon, U.; Al-Bahily, K.;</text>
   <text y="711.149" x="97.728,103.837,106.499,111.822,117.336,119.5785,123.51,130.625,132.8675,136.789,142.899,147.28,151.34,155.721,161.044,164.00410000000002,167.912,172.485,178.073,183.241,187.813,193.136,197.197,201.578,205.3454,209.333,211.995,217.1976,221.204,224.25,229.765,235.088,239.148,242.13,244.791,249.785,255.108,259.681,262.342,265.003,269.576,273.957,279.4287,283.423,291.499,294.16,298.221,301.678,306.6115,310.549,315.122,320.445,325.9167,329.92,337.995,342.376,346.254,351.248,356.744,361.738,365.186,370.179,375.694,379.4614,383.459,387.519,392.092,395.705,400.762,405.756,410.9586,414.957,423.032,427.605,430.587,434.967,438.58,441.241,445.814,448.476,452.353,454.5955,461.06,465.862,470.947,476.27,479.251,484.574,488.955,492.832,495.494,499.26140000000004,503.259,507.831,513.154" svgx:width="0.72,0.29,0.58,0.6,0.25,0.55,0.78,0.25,0.55,0.67,0.48,0.44,0.48,0.58,0.33,0.55,0.5,0.61,0.56,0.5,0.58,0.44,0.48,0.42,0.55,0.29,0.58,0.55,0.33,0.6,0.58,0.44,0.33,0.29,0.55,0.58,0.5,0.29,0.29,0.5,0.48,0.61,0.55,0.88,0.29,0.44,0.4,0.55,0.55,0.5,0.58,0.61,0.55,0.88,0.48,0.42,0.55,0.6,0.55,0.4,0.55,0.6,0.42,0.55,0.44,0.5,0.4,0.55,0.55,0.58,0.55,0.88,0.5,0.33,0.48,0.4,0.29,0.5,0.29,0.42,0.25,0.55,0.52,0.56,0.58,0.33,0.58,0.48,0.42,0.29,0.42,0.55,0.5,0.58,0.61" style="fill:rgb(0,0,0);font-family:URWPalladioL-Roma;font-size:8.97px;stroke:none;">Vinu, A. Recent advances in functionalized micro and mesoporous carbon materials: Synthesis and</text>
   <text y="724.061" x="98.05,102.533,107.922,113.311,115.92,118.529,122.51,126.994,129.917,132.526,137.421,142.64,146.442" svgx:width="0.5,0.6,0.6,0.29,0.29,0.44,0.5,0.33,0.29,0.55,0.58,0.42,0.25" style="fill:rgb(0,0,0);font-family:URWPalladioL-Roma;font-size:8.97px;stroke:none;">applications.</text>
   <text y="724.061" x="151.821,157.802,162.285,165.773,172.749,174.9915,178.128,183.114,187.095,190.744,192.9865,196.124,202.105,205.593,209.583" svgx:width="0.67,0.5,0.39,0.78,0.25,0.55,0.56,0.44,0.41,0.25,0.55,0.67,0.39,0.5,0.25" style="fill:rgb(0,0,0);font-family:URWPalladioL-Ital;font-size:8.97px;stroke:none;">Chem. Soc. Rev.</text>
   <text y="724.061" x="214.962,219.445,223.928,228.412" svgx:width="0.5,0.5,0.5,0.5" style="fill:rgb(0,0,0);font-family:URWPalladioL-Bold;font-size:8.97px;stroke:none;">2018</text>
   <text y="724.061" x="232.894" svgx:width="0.25" style="fill:rgb(0,0,0);font-family:URWPalladioL-Roma;font-size:8.97px;stroke:none;">,</text>
   <text y="724.061" x="237.378,241.861" svgx:width="0.5,0.5" style="fill:rgb(0,0,0);font-family:URWPalladioL-Ital;font-size:8.97px;stroke:none;">47</text>
   <text y="724.061" x="246.344,248.5865,250.827,255.31,259.794,264.277,268.76,273.243,277.726,282.21,286.693,291.176,293.4185,296.556" svgx:width="0.25,0.55,0.5,0.5,0.5,0.5,0.5,0.5,0.5,0.5,0.5,0.25,0.55,0.33" style="fill:rgb(0,0,0);font-family:URWPalladioL-Roma;font-size:8.97px;stroke:none;">, 2680–2721. [</text>
   <text y="724.061" x="299.542,305.899,309.279,314.175,317.977,321.778,327.768,332.063" svgx:width="0.71,0.4,0.55,0.42,0.42,0.67,0.48,0.33" style="fill:rgb(8,117,183);font-family:URWPalladioL-Roma;font-size:8.97px;stroke:none;">CrossRef</text>
   <text y="724.061" x="335.049" svgx:width="0.33" style="fill:rgb(0,0,0);font-family:URWPalladioL-Roma;font-size:8.97px;stroke:none;">]</text>
   <text y="736.973" x="76.535,81.018,85.501,87.74350000000001,98.05,105.165,108.147,112.208,117.53,123.045,128.633,133.206,138.529,140.7715,145.571,151.681,153.967,156.20950000000002,162.262,170.914,176.429,179.41,184.733,190.248,194.309,199.632,204.204,212.28,216.368,218.6105,223.411,231.011,233.297,235.5395,241.592,247.116,251.497,255.036,260.551,268.627,273.2,275.861,278.1035,282.904,287.705,289.991,292.2335,298.287,304.396,307.057,312.38,317.374,322.962,328.285,330.52750000000003,335.318,341.427,343.713,345.95550000000003,352.018,357.542,362.115,365.727,370.812,373.0545,377.845,384.485,386.772,394.381,396.667,398.9095,404.962,410.551,414.931,419.312,421.5545,426.354,431.458,433.744,439.853,442.0955,446.896,454.011,459.21360000000004,464.09,469.604,472.266,475.247,478.86,483.433,487.311,491.691,497.014,500.892,503.553,506.535,509.196,514.364" svgx:width="0.5,0.5,0.25,0.55,0.78,0.33,0.44,0.58,0.6,0.61,0.5,0.58,0.25,0.55,0.67,0.25,0.25,0.55,0.95,0.6,0.33,0.58,0.6,0.44,0.58,0.5,0.88,0.56,0.25,0.55,0.83,0.25,0.25,0.55,0.6,0.48,0.4,0.6,0.88,0.5,0.29,0.25,0.55,0.52,0.25,0.25,0.55,0.72,0.29,0.58,0.55,0.61,0.58,0.25,0.55,0.67,0.25,0.25,0.55,0.6,0.5,0.4,0.56,0.25,0.55,0.73,0.25,0.83,0.25,0.25,0.55,0.61,0.48,0.48,0.25,0.55,0.67,0.25,0.67,0.25,0.55,0.78,0.58,0.55,0.6,0.29,0.33,0.4,0.5,0.42,0.48,0.58,0.42,0.29,0.33,0.29,0.56,0.48" style="fill:rgb(0,0,0);font-family:URWPalladioL-Roma;font-size:8.97px;stroke:none;">18. Atchudan, R.; Muthuchamy, N.; Perumal, S.; Vinodh, R.; Park, K.H.; Lee, Y.R. An ultrasensitive</text>
   <text y="749.884" x="97.781,103.245,108.537,113.501,116.465,121.429,125.784,128.43,132.785,136.822,139.786,143.213,148.178,152.214,157.506,161.861,169.889,172.535,176.572,181.118,183.7193,186.0,191.028,193.674,198.638,202.493,206.848,212.139,215.994,220.958,224.546,226.795,229.823,234.787,238.375,240.615,245.67,248.316,253.799,257.835,262.8,266.655,270.9606,273.246,278.274,282.82,286.675,291.03,296.50169999999997,298.822,303.786,308.9886,311.314,316.342,318.988,323.952,326.979,332.535,336.89,340.481,343.127,348.264,352.619,358.0907,360.42,365.711,368.357,371.321,374.748,379.713,384.768,389.123,394.414,397.442,402.997,407.961,413.426,417.781,423.2527,425.572,429.609,434.155,437.746,442.774,447.738,452.9406,455.267,459.122,464.413,468.768,473.123,476.087,479.8544,482.179,489.761,493.353,497.899,503.363,508.827,513.182" svgx:width="0.6,0.58,0.55,0.33,0.55,0.48,0.29,0.48,0.44,0.33,0.4,0.55,0.44,0.58,0.48,0.88,0.29,0.44,0.5,0.29,0.55,0.55,0.29,0.55,0.42,0.48,0.58,0.42,0.55,0.4,0.55,0.33,0.55,0.4,0.55,0.56,0.29,0.6,0.44,0.55,0.42,0.48,0.55,0.55,0.5,0.42,0.48,0.61,0.55,0.55,0.58,0.55,0.55,0.29,0.55,0.33,0.61,0.48,0.4,0.29,0.56,0.48,0.61,0.55,0.58,0.29,0.33,0.4,0.55,0.56,0.48,0.58,0.33,0.61,0.55,0.6,0.48,0.61,0.55,0.44,0.5,0.4,0.55,0.55,0.58,0.55,0.42,0.58,0.48,0.48,0.33,0.42,0.55,0.83,0.4,0.5,0.6,0.6,0.48,0.61" style="fill:rgb(0,0,0);font-family:URWPalladioL-Roma;font-size:8.97px;stroke:none;">photoelectrochemical biosensor for glucose based on bio-derived nitrogen-doped carbon sheets wrapped</text>
   <text y="762.796" x="98.05,100.973,103.582,106.505,110.989,116.207,118.816,124.223,134.382,139.86,142.47,147.365,151.992,154.601,160.08,164.3856,166.616,171.835,176.318,181.536,186.432,191.821,196.304,199.846,202.769,205.378,209.359,211.968,216.263,220.065" svgx:width="0.33,0.29,0.33,0.5,0.58,0.29,0.6,0.88,0.61,0.29,0.55,0.52,0.29,0.61,0.48,0.55,0.58,0.5,0.58,0.55,0.6,0.5,0.4,0.33,0.29,0.44,0.29,0.48,0.42,0.25" style="fill:rgb(0,0,0);font-family:URWPalladioL-Roma;font-size:8.97px;stroke:none;">titaniumdioxide nanoparticles.</text>
   <text y="762.796" x="225.443,230.921,233.414,237.395,240.883,244.371,249.356,252.844,255.0865,258.224,263.703,266.195,270.176,273.664,276.157,279.645,283.294,286.28,289.606,293.588,298.573" svgx:width="0.61,0.28,0.44,0.39,0.39,0.56,0.39,0.25,0.55,0.61,0.28,0.44,0.39,0.28,0.39,0.41,0.33,0.39,0.44,0.56,0.25" style="fill:rgb(0,0,0);font-family:URWPalladioL-Ital;font-size:8.97px;stroke:none;">Biosens. Bioelectron.</text>
   <text y="762.796" x="303.951,308.434,312.917,317.401" svgx:width="0.5,0.5,0.5,0.5" style="fill:rgb(0,0,0);font-family:URWPalladioL-Bold;font-size:8.97px;stroke:none;">2019</text>
   <text y="762.796" x="321.884" svgx:width="0.25" style="fill:rgb(0,0,0);font-family:URWPalladioL-Roma;font-size:8.97px;stroke:none;">,</text>
   <text y="762.796" x="326.367,330.85,335.333" svgx:width="0.5,0.5,0.5" style="fill:rgb(0,0,0);font-family:URWPalladioL-Ital;font-size:8.97px;stroke:none;">126</text>
   <text y="762.796" x="339.817,342.0595,344.3,348.783,353.267,357.75,362.233,366.716,371.2,375.683,377.9255,381.063" svgx:width="0.25,0.55,0.5,0.5,0.5,0.5,0.5,0.5,0.5,0.25,0.55,0.33" style="fill:rgb(0,0,0);font-family:URWPalladioL-Roma;font-size:8.97px;stroke:none;">, 160–169. [</text>
   <text y="762.796" x="384.048,390.406,393.786,398.682,402.483,406.285,412.275,416.57" svgx:width="0.71,0.4,0.55,0.42,0.42,0.67,0.48,0.33" style="fill:rgb(8,117,183);font-family:URWPalladioL-Roma;font-size:8.97px;stroke:none;">CrossRef</text>
   <text y="762.796" x="419.555" svgx:width="0.33" style="fill:rgb(0,0,0);font-family:URWPalladioL-Roma;font-size:8.97px;stroke:none;">]</text>
  </g>
 </g>
</svg>
