<?xml version="1.0" encoding="UTF-8"?>
<svg height="779.482" width="530.035" xmlns="http://www.w3.org/2000/svg">
 <g id="page" xmlns:svgx="http://www.xml-cml.org/schema/svgx">
  <g begin="text">
   <text y="62.979" x="76.535,82.736,86.274,90.706,94.245,100.445,103.984,106.638,109.738,112.839,115.055,118.593,120.809" svgx:width="0.78,0.44,0.56,0.44,0.78,0.44,0.33,0.39,0.39,0.28,0.44,0.28,0.39" style="fill:rgb(0,0,0);font-family:URWPalladioL-Ital;font-size:7.97px;stroke:none;">Nanomaterials</text>
   <text y="62.979" x="125.901,129.886,133.871,137.856" svgx:width="0.5,0.5,0.5,0.5" style="fill:rgb(0,0,0);font-family:URWPalladioL-Bold;font-size:7.97px;stroke:none;">2020</text>
   <text y="62.979" x="141.842" svgx:width="0.25" style="fill:rgb(0,0,0);font-family:URWPalladioL-Roma;font-size:7.97px;stroke:none;">,</text>
   <text y="62.979" x="145.827,149.812" svgx:width="0.5,0.5" style="fill:rgb(0,0,0);font-family:URWPalladioL-Ital;font-size:7.97px;stroke:none;">10</text>
   <text y="62.979" x="153.797,155.7895,157.782,161.767,165.752,169.73700000000002,495.794,499.779,501.772,506.123,508.7531,510.77,514.755" svgx:width="0.25,0.55,0.5,0.5,0.5,0.55,0.5,0.55,0.55,0.33,0.55,0.5,0.5" style="fill:rgb(0,0,0);font-family:URWPalladioL-Roma;font-size:7.97px;stroke:none;">, 346 7 of 11</text>
   <text y="97.848" x="97.795,102.97,107.936,113.429,116.32" svgx:width="0.61,0.5,0.55,0.29,0.48" style="fill:rgb(0,0,0);font-family:URWPalladioL-Roma;font-size:9.96px;stroke:none;">Table</text>
   <text y="97.848" x="123.57" svgx:width="0.5" style="fill:rgb(8,117,183);font-family:URWPalladioL-Roma;font-size:9.96px;stroke:none;">1</text>
   <text y="97.848" x="131.03" svgx:width="0.33" style="fill:rgb(0,0,0);font-family:URWPalladioL-Roma;font-size:9.96px;stroke:none;">[</text>
   <text y="97.848" x="134.333,139.314" svgx:width="0.5,0.5" style="fill:rgb(8,117,183);font-family:URWPalladioL-Roma;font-size:9.96px;stroke:none;">27</text>
   <text y="97.848" x="144.296" svgx:width="0.25" style="fill:rgb(0,0,0);font-family:URWPalladioL-Roma;font-size:9.96px;stroke:none;">,</text>
   <text y="97.848" x="146.779,151.76" svgx:width="0.5,0.5" style="fill:rgb(8,117,183);font-family:URWPalladioL-Roma;font-size:9.96px;stroke:none;">28</text>
   <text y="97.848" x="156.742" svgx:width="0.25" style="fill:rgb(0,0,0);font-family:URWPalladioL-Roma;font-size:9.96px;stroke:none;">,</text>
   <text y="97.848" x="159.225,164.206" svgx:width="0.5,0.5" style="fill:rgb(8,117,183);font-family:URWPalladioL-Roma;font-size:9.96px;stroke:none;">38</text>
   <text y="97.848" x="169.188" svgx:width="0.25" style="fill:rgb(0,0,0);font-family:URWPalladioL-Roma;font-size:9.96px;stroke:none;">,</text>
   <text y="97.848" x="171.671,176.652" svgx:width="0.5,0.5" style="fill:rgb(8,117,183);font-family:URWPalladioL-Roma;font-size:9.96px;stroke:none;">44</text>
   <text y="97.848" x="181.633" svgx:width="0.5" style="fill:rgb(0,0,0);font-family:URWPalladioL-Roma;font-size:9.96px;stroke:none;">–</text>
   <text y="97.848" x="186.6,191.581" svgx:width="0.5,0.5" style="fill:rgb(8,117,183);font-family:URWPalladioL-Roma;font-size:9.96px;stroke:none;">46</text>
   <text y="97.848" x="196.563" svgx:width="0.25" style="fill:rgb(0,0,0);font-family:URWPalladioL-Roma;font-size:9.96px;stroke:none;">,</text>
   <text y="97.848" x="199.046,204.027" svgx:width="0.5,0.5" style="fill:rgb(8,117,183);font-family:URWPalladioL-Roma;font-size:9.96px;stroke:none;">53</text>
   <text y="97.848" x="209.008" svgx:width="0.25" style="fill:rgb(0,0,0);font-family:URWPalladioL-Roma;font-size:9.96px;stroke:none;">,</text>
   <text y="97.848" x="211.492,216.473" svgx:width="0.5,0.5" style="fill:rgb(8,117,183);font-family:URWPalladioL-Roma;font-size:9.96px;stroke:none;">60</text>
   <text y="97.848" x="221.454" svgx:width="0.5" style="fill:rgb(0,0,0);font-family:URWPalladioL-Roma;font-size:9.96px;stroke:none;">–</text>
   <text y="97.848" x="226.421,231.402" svgx:width="0.5,0.5" style="fill:rgb(8,117,183);font-family:URWPalladioL-Roma;font-size:9.96px;stroke:none;">62</text>
   <text y="97.848" x="236.383,239.6698,242.184,246.594,252.017,260.788,266.757,271.724,275.468,280.226,284.4092,286.931,290.169,295.949,300.7298,303.2,307.958,310.849,315.606,320.016,323.255,326.999,332.422,336.833,342.613,347.371,356.142,359.032,363.442,368.409,371.2974,373.792,379.762,384.52,388.443,391.751,397.174,401.097,409.868,414.834,420.615,425.025,429.8058,432.266,437.689,440.97580000000005,443.49,446.728,452.509,457.2898,459.76,464.17,470.159,474.083,477.827,482.585,488.366,491.6528,494.097,498.309,501.547,507.536,513.605" svgx:width="0.33,0.55,0.44,0.55,0.88,0.6,0.5,0.4,0.48,0.42,0.55,0.33,0.58,0.48,0.55,0.48,0.29,0.48,0.44,0.33,0.4,0.55,0.44,0.58,0.48,0.88,0.29,0.44,0.5,0.29,0.55,0.6,0.48,0.4,0.33,0.55,0.4,0.88,0.5,0.58,0.44,0.48,0.55,0.55,0.33,0.55,0.33,0.58,0.48,0.55,0.44,0.6,0.4,0.4,0.48,0.58,0.33,0.55,0.42,0.33,0.6,0.61,0.56" style="fill:rgb(0,0,0);font-family:URWPalladioL-Roma;font-size:9.96px;stroke:none;">] compares the electrochemical performance of the current study</text>
   <text y="111.358" x="76.117,84.509,87.437,90.717,96.4938,99.059,102.339,108.195,112.97579999999999,115.501,121.548,125.341,130.161,135.846,138.774,144.268,150.336,154.602,157.53,163.1076,165.62,169.414,174.234,180.281,185.775,189.75,193.03,197.85,203.9256,206.483,214.875,220.369,224.344,229.938,234.205,236.69500000000002,240.202,243.593,246.8798,249.358,253.826,258.857,264.6338,267.199,272.763,277.5438,280.078,284.345,289.164,293.984,299.76079999999996,302.326,305.606,311.462,316.493,319.7798,322.259,325.539,331.396,336.1768,338.701,343.521,346.449,351.268,355.736,359.016,362.81,368.304,372.771,378.628,383.447,392.332,395.26,399.728,404.759,407.6474,410.173,416.22,421.04,425.014,428.365,433.859,437.834,446.719,451.75,457.606,462.074,466.8548,469.379,474.873,478.1598,480.709,483.989,489.845,494.6258,497.161,505.532,511.61" svgx:width="0.83,0.29,0.33,0.58,0.55,0.33,0.58,0.48,0.55,0.6,0.4,0.48,0.56,0.29,0.55,0.6,0.42,0.29,0.56,0.55,0.4,0.48,0.6,0.55,0.4,0.33,0.48,0.61,0.55,0.83,0.55,0.4,0.56,0.42,0.25,0.55,0.34,0.33,0.55,0.44,0.5,0.58,0.55,0.55,0.48,0.55,0.42,0.48,0.48,0.58,0.55,0.33,0.58,0.5,0.33,0.55,0.33,0.58,0.48,0.55,0.48,0.29,0.48,0.44,0.33,0.4,0.55,0.44,0.58,0.48,0.88,0.29,0.44,0.5,0.29,0.55,0.6,0.48,0.4,0.33,0.55,0.4,0.88,0.5,0.58,0.44,0.48,0.55,0.55,0.33,0.55,0.33,0.58,0.48,0.55,0.83,0.6,0.71" style="fill:rgb(0,0,0);font-family:URWPalladioL-Roma;font-size:9.96px;stroke:none;">with the previously reported works. It can be seen that the electrochemical performance of the HPC</text>
   <text y="124.867" x="76.535,81.417,87.099,92.43,98.395,103.1758,105.103,107.944,112.1272,114.104,118.244,124.131,129.999,134.676,138.532,141.373,146.704,150.68800000000002,152.591,155.774,161.252,163.136,171.757,177.088,181.227,184.5138,186.431,191.762,195.0488,197.044,200.715,205.392,211.259,216.59,220.447,223.63,228.306,234.38160000000002,236.302,241.702,244.543,249.873,258.495,263.376,267.516,271.656,274.907,280.306,285.188,289.327,294.004,300.0796,302.0,306.335,311.217,315.073,320.472,325.803,331.5798,333.506,342.127,347.009,350.192,354.869,358.725,361.566,366.448,369.289,373.429,375.919,379.209,385.193,390.876,395.6568,397.573,402.904,408.792,411.974,416.114,419.297,424.179,429.861,435.826,438.667,444.35,449.92760000000004,451.809,456.485,459.327,464.003,468.338,471.521,475.192,480.523,484.858,490.54,495.217,503.838,506.679,511.014,515.895" svgx:width="0.5,0.58,0.55,0.61,0.48,0.55,0.29,0.42,0.55,0.42,0.6,0.6,0.48,0.4,0.29,0.55,0.4,0.55,0.33,0.55,0.55,0.88,0.55,0.42,0.33,0.55,0.55,0.33,0.55,0.4,0.48,0.6,0.55,0.4,0.33,0.48,0.61,0.55,0.55,0.29,0.55,0.88,0.5,0.42,0.42,0.33,0.55,0.5,0.42,0.48,0.61,0.55,0.44,0.5,0.4,0.55,0.55,0.58,0.55,0.88,0.5,0.33,0.48,0.4,0.29,0.5,0.29,0.42,0.25,0.55,0.61,0.58,0.48,0.55,0.55,0.6,0.33,0.42,0.33,0.5,0.58,0.61,0.29,0.58,0.56,0.55,0.48,0.29,0.48,0.44,0.33,0.4,0.55,0.44,0.58,0.48,0.88,0.29,0.44,0.5,0.29" style="fill:rgb(0,0,0);font-family:URWPalladioL-Roma;font-size:9.96px;stroke:none;">anode is superior to most of reported biomass-based carbon materials. The outstanding electrochemical</text>
   <text y="138.377" x="76.236,82.194,85.931,91.343,97.301,102.049,105.964,109.196,114.7736,117.196,121.597,126.553,132.3298,134.821,140.302,145.0828,147.549,152.505,156.708,161.109,165.025,167.9,173.381,178.13,184.2056,186.684,189.916,195.394,197.826,201.058,206.827,211.6078,214.063,217.364,222.777,225.661,228.546,233.958,242.226,245.11,250.88,256.4576,258.889,263.845,268.048,274.006,278.754,283.156,286.387,290.59,293.08,296.558,302.069,304.954,308.869,313.072,316.304,319.189,323.6,326.09000000000003,328.566,331.798,337.567,342.3478,344.813,353.061,359.048,366.1196,368.564,376.831,379.716,382.948,388.72479999999996,391.215,396.984,399.869,405.38,411.1568,413.638,417.841,423.798,428.546,432.948,435.832,441.83,446.2124,448.729,452.932,458.909,462.825,466.126,471.082,475.483,480.2638,482.72,487.676,491.413,496.162,501.142,503.616,508.017,512.974" svgx:width="0.6,0.4,0.55,0.6,0.48,0.4,0.33,0.56,0.55,0.44,0.5,0.58,0.55,0.55,0.48,0.55,0.5,0.42,0.44,0.4,0.29,0.55,0.48,0.61,0.55,0.33,0.55,0.55,0.33,0.58,0.48,0.55,0.33,0.55,0.29,0.29,0.55,0.83,0.29,0.58,0.56,0.55,0.5,0.42,0.6,0.48,0.44,0.33,0.42,0.25,0.55,0.56,0.29,0.4,0.42,0.33,0.29,0.56,0.25,0.55,0.33,0.58,0.48,0.55,0.83,0.6,0.71,0.55,0.83,0.29,0.33,0.58,0.55,0.58,0.29,0.56,0.58,0.55,0.42,0.6,0.48,0.44,0.29,0.61,0.44,0.55,0.42,0.6,0.4,0.33,0.5,0.44,0.48,0.55,0.5,0.4,0.48,0.5,0.55,0.44,0.5,0.58" style="fill:rgb(0,0,0);font-family:URWPalladioL-Roma;font-size:9.96px;stroke:none;">property can be ascribed to the following aspects. Firstly, the HPC with high speciﬁc surface area can</text>
   <text y="151.886" x="76.535,85.156,90.038,95.466,100.2468,102.603,105.786,111.468,116.2488,118.605,123.282,126.123,130.8,135.135,138.317,141.988,147.319,150.16,155.589,158.772,163.448,168.33,173.007,175.848,180.524,184.859,188.042,191.723,197.054,203.019,207.7998,210.156,212.997,218.68,221.862,226.539,230.396,233.647,238.529,242.863,247.6438,250.0,252.842,257.723,261.394,266.823,271.6038,273.96,278.636,284.319,289.649,295.537,300.965,306.74179999999996,309.108,312.291,317.769,320.082,324.963,329.298,333.633,339.521,348.142,354.029,356.87,361.752,364.935,369.7158,372.072,375.928,378.769,383.104,388.88079999999997,391.247,395.582,401.264,406.146,409.817,415.245,419.922,424.1052,426.522,431.404,437.086,443.1616,445.512,448.353,453.683,459.366,463.505,465.995,469.422,472.712,478.48879999999997,480.855,485.737,491.702,497.667,500.508,503.691,506.532,511.863,517.545" svgx:width="0.88,0.5,0.56,0.48,0.55,0.33,0.58,0.48,0.55,0.48,0.29,0.48,0.44,0.33,0.4,0.55,0.29,0.56,0.33,0.48,0.5,0.48,0.29,0.48,0.44,0.33,0.4,0.55,0.61,0.48,0.55,0.29,0.58,0.33,0.48,0.4,0.33,0.5,0.44,0.48,0.55,0.29,0.5,0.4,0.56,0.48,0.55,0.48,0.58,0.55,0.6,0.56,0.58,0.55,0.33,0.55,0.55,0.5,0.44,0.44,0.6,0.88,0.6,0.29,0.5,0.33,0.48,0.55,0.4,0.29,0.44,0.58,0.55,0.44,0.58,0.5,0.4,0.56,0.48,0.42,0.55,0.5,0.58,0.61,0.55,0.29,0.55,0.58,0.42,0.25,0.55,0.34,0.58,0.55,0.5,0.61,0.61,0.29,0.33,0.29,0.55,0.58,0.25" style="fill:rgb(0,0,0);font-family:URWPalladioL-Roma;font-size:9.96px;stroke:none;">make the electrolyte–electrode interface large enough to accumulate rich charges and ions. In addition,</text>
   <text y="165.395" x="76.535,79.492,82.7788,86.301,91.381,94.339,98.647,104.125,107.691,112.203,117.284,123.0608,126.694,132.801,136.642,142.191,147.932,150.889,157.098,161.8788,165.461,168.418,173.499,177.33,182.98,187.7608,191.344,195.855,201.404,207.318,210.631,215.712,220.224,223.5108,227.042,232.123,235.954,240.822,245.802,249.398,254.479,260.393,266.4686,270.098,279.071,285.198,288.511,294.639,299.72,302.6084,306.173,309.13,315.044,318.357,323.224,327.238,332.319,336.831,340.144,343.101,348.649,354.563,358.7462,362.368,367.987,372.855,376.167,384.642,389.51,394.377,400.1538,403.787,407.1,413.014,417.7948,421.388,426.255,429.212,434.08,438.592,441.904,445.735,451.284,454.241,459.891,463.204,467.9848,471.567,476.648,482.562,488.6376,492.266,497.347,501.859,505.172,508.129,513.871" svgx:width="0.29,0.33,0.55,0.5,0.29,0.42,0.55,0.55,0.44,0.5,0.58,0.55,0.6,0.4,0.55,0.56,0.29,0.61,0.48,0.55,0.29,0.5,0.4,0.56,0.48,0.55,0.44,0.55,0.58,0.33,0.5,0.44,0.33,0.55,0.5,0.4,0.48,0.5,0.55,0.5,0.58,0.61,0.55,0.88,0.6,0.33,0.6,0.5,0.29,0.55,0.29,0.58,0.33,0.48,0.4,0.5,0.44,0.33,0.29,0.55,0.58,0.42,0.55,0.55,0.48,0.33,0.83,0.48,0.48,0.58,0.55,0.33,0.58,0.48,0.55,0.48,0.29,0.48,0.44,0.33,0.4,0.55,0.29,0.56,0.33,0.48,0.55,0.5,0.58,0.61,0.55,0.5,0.44,0.33,0.29,0.56,0.48" style="fill:rgb(0,0,0);font-family:URWPalladioL-Roma;font-size:9.96px;stroke:none;">it also can provide large contact area and mutual interactions between the electrolyte and active</text>
   <text y="178.905" x="76.535,85.323,90.299,93.544,98.311,102.243,105.139,110.115,113.011,117.231,119.72099999999999,123.203,128.428,133.195,137.614,143.048,148.841,154.922,157.818,162.247,164.73700000000002,167.223,170.468,176.26,181.0408,183.516,189.537,193.469,197.688,200.933,204.247,208.666,211.562,216.539,220.759,224.94219999999999,227.467,233.448,238.882,242.635,247.402,251.5852,254.11,257.006,262.78279999999995,265.287,268.531,274.324,279.1048,281.579,287.372,290.268,295.035,298.966,303.943,307.695,312.114,317.906,320.803,325.222,330.198,333.094,335.99,341.5676,344.012,349.984,355.418,359.17,364.604,370.606,374.7892,377.314,381.534,384.778,388.63,394.631,399.05,402.295,408.296,412.048,416.8288,419.304,423.723,428.699,434.4758,436.98,440.732,445.499,448.395,451.292,456.059,461.682,466.4628,468.938,472.182,477.975,482.7558,485.23,490.853,496.287,499.184,505.185,513.973" svgx:width="0.88,0.5,0.33,0.48,0.4,0.29,0.5,0.29,0.42,0.25,0.55,0.52,0.48,0.44,0.55,0.58,0.61,0.29,0.56,0.25,0.55,0.33,0.58,0.48,0.55,0.61,0.4,0.42,0.33,0.33,0.44,0.29,0.5,0.42,0.42,0.55,0.6,0.55,0.4,0.48,0.42,0.55,0.29,0.58,0.55,0.33,0.58,0.48,0.55,0.58,0.29,0.48,0.4,0.5,0.4,0.44,0.58,0.29,0.44,0.5,0.29,0.29,0.56,0.55,0.6,0.55,0.4,0.55,0.6,0.42,0.55,0.42,0.33,0.4,0.6,0.44,0.33,0.6,0.4,0.48,0.55,0.44,0.5,0.58,0.55,0.4,0.48,0.29,0.29,0.48,0.56,0.48,0.55,0.33,0.58,0.48,0.55,0.56,0.55,0.29,0.6,0.88,0.48" style="fill:rgb(0,0,0);font-family:URWPalladioL-Roma;font-size:9.96px;stroke:none;">materials. Secondly, the ﬁrst-class pores in the hierarchically porous structure can relieve the volume</text>
   <text y="192.414" x="76.535,80.95,86.736,91.708,97.494,103.022,107.8028,110.28,116.355,122.351,126.278,129.172,134.958,140.5356,142.982,146.223,152.01,156.7908,159.268,163.683,169.211,173.625,176.519,179.412,185.199,190.7766,193.212,199.188,202.936,208.365,212.779,217.542,223.617,229.612,233.361,238.1418,240.619,248.911,254.698,257.591,260.484,265.2648,267.743,270.984,276.771,281.5518,284.029,288.244,293.007,297.421,302.85,308.637,314.712,318.023,322.437,325.331,330.302,334.518,338.7012,341.229,347.204,352.633,356.382,361.144,365.3272,367.845,372.26,377.231,383.0078,385.514,391.489,395.238,400.666,406.284,409.177,415.252,420.0328,422.51,426.438,429.331,433.746,439.52279999999996,442.028,446.999,452.786,458.8616,461.356,464.667,469.639,473.854,477.1408,479.591,485.567,490.538,493.78,499.566,503.7492,506.277,509.578,515.007" svgx:width="0.44,0.58,0.5,0.58,0.56,0.48,0.55,0.61,0.6,0.4,0.29,0.58,0.56,0.55,0.33,0.58,0.48,0.55,0.44,0.56,0.44,0.29,0.29,0.58,0.56,0.55,0.6,0.4,0.55,0.44,0.48,0.61,0.6,0.4,0.48,0.55,0.83,0.58,0.29,0.29,0.48,0.55,0.33,0.58,0.48,0.55,0.42,0.48,0.44,0.55,0.58,0.61,0.33,0.44,0.29,0.5,0.42,0.42,0.55,0.6,0.55,0.4,0.48,0.42,0.55,0.44,0.5,0.58,0.55,0.6,0.4,0.55,0.56,0.29,0.61,0.48,0.55,0.4,0.29,0.44,0.58,0.55,0.5,0.58,0.61,0.55,0.33,0.5,0.42,0.33,0.55,0.6,0.5,0.33,0.58,0.42,0.55,0.33,0.55,0.4" style="fill:rgb(0,0,0);font-family:URWPalladioL-Roma;font-size:9.96px;stroke:none;">change during the cycling procedure while the second-class pores can provide rich and fast paths for</text>
   <text y="205.924" x="76.535,79.718,85.4,90.1808,92.469,95.652,99.508,104.39,110.072,114.212,117.463,122.14,126.124,128.378,133.709,136.9958,139.352,142.194,147.524,153.207,157.3902,159.738,164.62,170.302,176.3776,178.65,183.327,186.168,190.844,195.179,198.362,202.043,207.374,213.056,217.196,219.686,223.093,229.078,234.76,237.601,241.272,247.237,250.079,254.404,256.894,259.256,262.439,268.121,272.9018,275.18,280.696,285.578,288.419,294.307,299.0878,301.375,306.706,309.99280000000005,312.349" svgx:width="0.33,0.58,0.48,0.55,0.33,0.4,0.5,0.58,0.42,0.33,0.48,0.4,0.55,0.55,0.33,0.55,0.29,0.55,0.58,0.42,0.55,0.5,0.58,0.61,0.55,0.48,0.29,0.48,0.44,0.33,0.4,0.55,0.58,0.42,0.25,0.55,0.61,0.58,0.29,0.4,0.61,0.29,0.56,0.25,0.55,0.33,0.58,0.48,0.55,0.56,0.5,0.29,0.6,0.48,0.55,0.55,0.33,0.55,0.34" style="fill:rgb(0,0,0);font-family:URWPalladioL-Roma;font-size:9.96px;stroke:none;">the transfer of ions and electrons. Thirdly, the value of I</text>
   <text y="207.788" x="315.637" svgx:width="0.77" style="fill:rgb(0,0,0);font-family:URWPalladioL-Roma;font-size:7.57px;stroke:none;">D</text>
   <text y="205.924" x="321.995" svgx:width="0.29" style="fill:rgb(0,0,0);font-family:Rpxr;font-size:9.96px;stroke:none;">/</text>
   <text y="205.924" x="324.797" svgx:width="0.34" style="fill:rgb(0,0,0);font-family:URWPalladioL-Roma;font-size:9.96px;stroke:none;">I</text>
   <text y="207.788" x="328.087" svgx:width="0.76" style="fill:rgb(0,0,0);font-family:URWPalladioL-Roma;font-size:7.57px;stroke:none;">G</text>
   <text y="205.924" x="336.751,339.592,343.7752,346.124,351.005,353.446,358.328,360.818,363.171,366.012,371.694,377.659,380.501,384.835,389.717,392.9,395.741,401.423,407.0006,409.244,412.427,418.109,422.991,426.2778,428.566,431.748,437.431,442.2118,444.49,453.111,457.992,461.175,465.852,469.708,472.55,477.431,480.272,484.4552,486.804,491.139,496.47,502.152,505.335,510.217,513.058" svgx:width="0.29,0.42,0.55,0.5,0.25,0.5,0.25,0.55,0.29,0.58,0.61,0.29,0.44,0.5,0.33,0.29,0.58,0.56,0.55,0.33,0.58,0.5,0.33,0.55,0.33,0.58,0.48,0.55,0.88,0.5,0.33,0.48,0.4,0.29,0.5,0.29,0.42,0.55,0.44,0.55,0.58,0.33,0.5,0.29,0.58" style="fill:rgb(0,0,0);font-family:URWPalladioL-Roma;font-size:9.96px;stroke:none;">is 1.0, indicating that the materials contain</text>
   <text y="219.433" x="76.535,82.006,87.407,90.632,96.4088,98.873,104.918,109.656,112.951,117.689,122.082,125.307,129.49020000000002,131.994,136.941,142.698,148.77360000000002,151.226,156.727,162.128,167.53,173.6056,176.057,180.796,183.675,188.413,192.806,196.031,199.939,202.817,207.21,212.156,215.0444,217.528,221.92,227.322,233.08,239.124,245.09,249.482,252.707,255.586,261.175,264.054,267.279,271.672,274.16200000000003,277.627,283.691,289.449,294.2298,296.681,302.725,307.464,310.758,315.497,319.88,323.105,327.2882,329.792,334.739,338.468,343.2488,345.69,351.19,356.592,361.993,368.0686,370.521,373.815,379.217,383.20099999999996,385.618,390.356,393.235,397.974,402.366,405.591,409.321,414.722,420.49879999999996,422.963,426.188,430.096,435.042,440.8,444.995,448.289,453.028,456.193,458.683,461.159,466.106,471.864,477.9396,480.391,483.616,489.374,494.1548,496.606,502.106,505.826,510.564,515.511" svgx:width="0.55,0.55,0.33,0.58,0.55,0.61,0.48,0.33,0.48,0.44,0.33,0.42,0.55,0.5,0.58,0.61,0.55,0.56,0.55,0.55,0.61,0.55,0.48,0.29,0.48,0.44,0.33,0.4,0.29,0.44,0.5,0.29,0.55,0.44,0.55,0.58,0.61,0.6,0.44,0.33,0.29,0.56,0.29,0.33,0.56,0.25,0.55,0.61,0.58,0.48,0.55,0.61,0.48,0.33,0.48,0.44,0.33,0.42,0.55,0.5,0.4,0.48,0.55,0.56,0.55,0.55,0.61,0.55,0.33,0.55,0.4,0.55,0.48,0.29,0.48,0.44,0.33,0.4,0.55,0.58,0.55,0.33,0.4,0.5,0.58,0.42,0.33,0.48,0.4,0.25,0.55,0.5,0.58,0.61,0.55,0.33,0.58,0.48,0.55,0.56,0.4,0.48,0.5,0.33" style="fill:rgb(0,0,0);font-family:URWPalladioL-Roma;font-size:9.96px;stroke:none;">both defects and good electrical conductivity. The defects are good for electron transfer, and the great</text>
   <text y="232.942" x="76.535,81.403,84.36,89.227,93.739,97.052,101.066,104.023,108.535,113.616,116.5044,119.286,123.798,129.346,135.26,141.469,147.597,152.109,155.421,158.379,164.12,167.077,170.39,175.96759999999998,178.753,181.71,185.8932,188.732,194.341,199.209,205.123,209.991,216.138,220.65,223.607,228.688,231.57639999999998,234.359,237.671,243.149,245.933,248.89,257.863,263.97,267.811,273.36,279.101,283.8818,286.672,289.985,295.899,300.6798,303.48,307.494,312.574,315.887,320.6678,323.468,329.575,333.406,338.955,345.062,349.929,353.943,357.256,362.8336,365.619,371.168,374.45480000000003,377.265,380.578,386.492,391.2728,394.073,399.692,404.773,408.086,411.399,416.266,420.28,424.822,427.312,431.519,437.728,442.809,447.117,451.985,458.0606,460.897,466.445,472.2218,475.073,478.386,484.3,489.0808,491.88,496.961,502.581,508.129,513.871" svgx:width="0.48,0.29,0.48,0.44,0.33,0.4,0.29,0.44,0.5,0.29,0.55,0.44,0.55,0.58,0.61,0.6,0.44,0.33,0.29,0.56,0.29,0.33,0.56,0.55,0.29,0.42,0.55,0.55,0.48,0.58,0.48,0.61,0.44,0.29,0.5,0.29,0.55,0.33,0.55,0.55,0.29,0.88,0.6,0.4,0.55,0.56,0.48,0.55,0.33,0.58,0.48,0.55,0.4,0.5,0.33,0.48,0.55,0.6,0.4,0.55,0.6,0.48,0.4,0.33,0.56,0.55,0.55,0.33,0.55,0.33,0.58,0.48,0.55,0.55,0.5,0.33,0.33,0.48,0.4,0.56,0.25,0.55,0.61,0.5,0.42,0.48,0.61,0.55,0.55,0.58,0.55,0.33,0.58,0.48,0.55,0.5,0.55,0.55,0.56,0.48" style="fill:rgb(0,0,0);font-family:URWPalladioL-Roma;font-size:9.96px;stroke:none;">electrical conductivity is beneﬁcial to improve the rate property of the battery. Based on the above</text>
   <text y="246.452" x="76.535,82.592,85.476,89.679,94.081,100.058,104.261,108.464,111.349,116.761,122.53,126.733,129.223,131.69,139.957,144.7378,147.183,151.585,156.541,162.3178,164.798,169.2,174.612,180.381,184.783,187.667,193.645,199.701,204.4818,206.928,210.159,215.929,220.885,224.1718,226.595,229.826,235.596,240.3768,242.822,251.069,257.057,264.1286,266.563,270.766,276.278,282.047,285.279,291.048,295.796,299.999,302.884,307.84,312.588,318.66360000000003,321.123,324.424,328.161,333.574,344.805,350.287,353.171,358.584,367.337,372.293,376.496,380.6792,383.177,391.93,396.887,400.118,404.866,408.782,411.667,416.623,419.5114,421.986,424.87,430.6468,433.118,436.349,442.119,445.003,449.1862,451.685,455.888,459.119,465.097,471.153,476.73060000000004,479.153,484.922,489.879,494.0622,496.56,502.071,505.808,510.557,515.513" svgx:width="0.61,0.29,0.42,0.44,0.6,0.42,0.42,0.29,0.55,0.58,0.42,0.25,0.55,0.83,0.48,0.55,0.44,0.5,0.58,0.55,0.44,0.55,0.58,0.44,0.29,0.6,0.61,0.48,0.55,0.33,0.58,0.5,0.33,0.55,0.33,0.58,0.48,0.55,0.83,0.6,0.71,0.55,0.42,0.56,0.58,0.33,0.58,0.48,0.42,0.29,0.5,0.48,0.61,0.55,0.33,0.4,0.55,0.88,0.55,0.29,0.55,0.88,0.5,0.42,0.42,0.55,0.88,0.5,0.33,0.48,0.4,0.29,0.5,0.29,0.55,0.29,0.58,0.55,0.33,0.58,0.29,0.42,0.55,0.42,0.33,0.6,0.61,0.56,0.55,0.58,0.5,0.42,0.55,0.56,0.4,0.48,0.5,0.33" style="fill:rgb(0,0,0);font-family:URWPalladioL-Roma;font-size:9.96px;stroke:none;">discussions, we can conclude that the HPC synthesized frombiomass material in this study has great</text>
   <text y="259.961" x="76.236,82.182,87.583,90.808,95.547,101.305,104.53,107.408,112.355,115.24340000000001,117.717,122.663,126.8462,129.351,134.297,140.055,145.456,151.501,156.24,160.4232,162.917,166.212,171.613,175.597,178.004,184.048,187.382,193.427,197.621,200.11100000000002,203.587,212.945,218.347,222.077,226.815,232.217,237.806,242.545,245.711,248.20100000000002,250.677,253.892,259.65,262.529,266.7122,269.216,275.162,280.108,286.054,290.792,294.77599999999995,297.183,302.13,305.009,309.203,314.681,317.098,323.043,326.763,332.164,337.754,340.633,346.677,351.416,355.5992,358.104,364.069,368.2522,370.747,375.72700000000003,378.176,383.934,388.672,399.416,405.362,409.091,414.493,420.438,425.84,430.035,434.981,437.8694,440.343,443.637,449.039,453.02299999999997,455.429,458.655,464.412,469.1928,471.644,474.938,479.885,485.355,489.263,492.142,496.534,501.481,504.706,507.585,512.986" svgx:width="0.6,0.55,0.33,0.48,0.58,0.33,0.29,0.5,0.29,0.55,0.5,0.42,0.55,0.5,0.58,0.55,0.61,0.48,0.42,0.55,0.33,0.55,0.4,0.55,0.61,0.34,0.61,0.42,0.25,0.55,0.95,0.55,0.4,0.48,0.55,0.56,0.48,0.4,0.25,0.55,0.33,0.58,0.29,0.42,0.55,0.6,0.5,0.6,0.48,0.4,0.55,0.5,0.29,0.42,0.55,0.55,0.6,0.4,0.55,0.56,0.29,0.61,0.48,0.42,0.55,0.6,0.42,0.55,0.5,0.55,0.58,0.48,0.83,0.6,0.4,0.55,0.6,0.55,0.42,0.5,0.29,0.55,0.33,0.55,0.4,0.55,0.33,0.58,0.48,0.55,0.33,0.5,0.55,0.4,0.29,0.44,0.5,0.33,0.29,0.55,0.58" style="fill:rgb(0,0,0);font-family:URWPalladioL-Roma;font-size:9.96px;stroke:none;">potential as anodes for LIBs. Moreover, this paper also provides us a newproposal for the fabrication</text>
   <text y="273.471" x="76.535,82.083,85.3698,88.13,91.087,96.635,105.11,108.494,113.006,118.554,122.863,126.1498,128.828,133.34,138.421,142.435,148.054,153.602,159.517,162.901,168.52,173.601,177.91,182.777,188.8526,191.648,196.729,202.644,208.192,214.401,219.1818,221.931,230.904,235.985,239.297,244.165,248.179,251.136,256.217,259.174,263.483,265.973,268.716,273.797,279.711,285.7866,288.582,291.895,297.809,302.5898,305.339,309.17,314.719,320.846,324.159,328.9398,331.689,334.646,338.8292,341.607,346.474,351.718,357.825,362.693,367.205,370.517,375.385,381.4606,384.256,387.569,393.047,395.78,401.399,406.1798,408.919,413.787,419.03,422.343,427.21,433.125,439.333,444.201,450.27660000000003,453.072,458.153,464.067,470.1426,472.939,478.02,484.127,490.234,493.191,496.148,501.016,507.0916,509.877,513.19" svgx:width="0.55,0.33,0.55,0.29,0.55,0.83,0.33,0.44,0.55,0.42,0.33,0.55,0.44,0.5,0.4,0.55,0.55,0.58,0.33,0.55,0.5,0.42,0.48,0.61,0.55,0.5,0.58,0.55,0.61,0.48,0.55,0.88,0.5,0.33,0.48,0.4,0.29,0.5,0.29,0.42,0.25,0.55,0.5,0.58,0.61,0.55,0.33,0.58,0.48,0.55,0.4,0.55,0.6,0.33,0.48,0.55,0.29,0.42,0.55,0.48,0.52,0.6,0.48,0.44,0.33,0.48,0.61,0.55,0.33,0.55,0.55,0.55,0.48,0.55,0.48,0.52,0.33,0.48,0.58,0.61,0.48,0.61,0.55,0.5,0.58,0.61,0.55,0.5,0.6,0.6,0.29,0.29,0.48,0.61,0.55,0.33,0.55" style="fill:rgb(0,0,0);font-family:URWPalladioL-Roma;font-size:9.96px;stroke:none;">of low-cost carbon-based anode materials, and the route is expected to be extended and applied to</text>
   <text y="286.98" x="76.256,81.885,86.866,90.801,93.701,99.14,105.148,109.3312,111.862,117.372,120.271,125.71,134.507,139.489,143.713,147.937,152.709,156.8922,159.424,162.323,168.09980000000002,170.612,173.929,179.937,183.185,189.192,192.948,197.72" svgx:width="0.56,0.5,0.4,0.29,0.55,0.6,0.42,0.55,0.55,0.29,0.55,0.88,0.5,0.42,0.42,0.48,0.42,0.55,0.29,0.58,0.55,0.33,0.6,0.33,0.6,0.4,0.48,0.25" style="fill:rgb(0,0,0);font-family:URWPalladioL-Roma;font-size:9.96px;stroke:none;">various biomasses in future.</text>
   <text y="307.815" x="97.499,102.484,106.968,112.446,115.432,119.917,123.968,128.451" svgx:width="0.67,0.5,0.61,0.33,0.5,0.55,0.5,0.25" style="fill:rgb(0,0,0);font-family:URWPalladioL-Bold;font-size:8.97px;stroke:none;">Table 1.</text>
   <text y="307.815" x="139.26,145.744,150.738,158.814,164.31,168.883,172.496,175.157,179.035,184.028,189.23059999999998,193.403,198.396,201.3561,205.493,209.874,212.536,216.916,220.977,223.959,227.406,232.4,236.461,241.784,246.164,254.24,256.901,260.962,265.535,268.1363,272.248,277.745,282.125,285.738,288.783,293.777,297.39,305.465,310.038,315.361,319.422,323.802,327.56940000000003,331.732,334.777,339.771,343.35900000000004,347.435,352.602,357.175,360.788,363.449,368.443,373.958,377.72540000000004,381.887,386.944,389.606,394.599,402.675,407.248,411.126,415.004,418.049,423.637,428.018,431.63,434.292,439.459,443.84,449.3117,453.48,457.54,462.113,465.726,470.783,475.777,481.1,484.86740000000003,489.029,493.602" svgx:width="0.71,0.55,0.88,0.6,0.5,0.4,0.29,0.42,0.55,0.58,0.55,0.55,0.33,0.55,0.48,0.29,0.48,0.44,0.33,0.4,0.55,0.44,0.58,0.48,0.88,0.29,0.44,0.5,0.29,0.55,0.6,0.48,0.4,0.33,0.55,0.4,0.88,0.5,0.58,0.44,0.48,0.42,0.55,0.33,0.55,0.4,0.55,0.56,0.5,0.4,0.29,0.55,0.6,0.42,0.55,0.55,0.29,0.55,0.88,0.5,0.42,0.42,0.33,0.61,0.48,0.4,0.29,0.56,0.48,0.61,0.55,0.44,0.5,0.4,0.55,0.55,0.58,0.42,0.55,0.5,0.42" style="fill:rgb(0,0,0);font-family:URWPalladioL-Roma;font-size:8.97px;stroke:none;">Comparison of electrochemical performances for various biomass-derived carbons as</text>
   <text y="320.637" x="97.795,103.273,106.295,111.7667,114.015,118.498,123.717,128.613,134.091,138.386,142.188" svgx:width="0.61,0.34,0.61,0.55,0.5,0.58,0.55,0.61,0.48,0.42,0.25" style="fill:rgb(0,0,0);font-family:URWPalladioL-Roma;font-size:8.97px;stroke:none;">LIB anodes.</text>
  </g>
  <path style="fill:none;stroke:rgb(0,0,0);stroke-width:1.0;" d="M85.690 330.820 L509.590 330.820 "/>
  <g begin="text">
   <text y="340.59" x="91.067,96.45,99.137,103.624,110.798,114.833,118.416,121.999,126.033" svgx:width="0.67,0.33,0.56,0.89,0.5,0.44,0.44,0.5,0.44" style="fill:rgb(0,0,0);font-family:URWPalladioL-Bold;font-size:8.07px;stroke:none;">Biomasses</text>
   <text y="350.453" x="90.801,93.488,99.314,103.801,106.94,110.079,114.114,117.697,122.628,127.115,132.045,136.976,139.663,144.594,149.1132,151.098,156.924,160.959,164.098,169.029,173.516,178.43869999999998,180.464,188.534,192.569,195.256,199.291,202.43,205.117,209.152,211.839,215.422" svgx:width="0.33,0.72,0.56,0.39,0.39,0.5,0.44,0.61,0.56,0.61,0.61,0.33,0.61,0.56,0.55,0.72,0.5,0.39,0.61,0.56,0.61,0.55,1.0,0.5,0.33,0.5,0.39,0.33,0.5,0.33,0.44,0.33" style="fill:rgb(0,0,0);font-family:URWPalladioL-Bold;font-size:8.07px;stroke:none;">(Corresponding Carbon Materials)</text>
   <text y="341.076" x="261.383,267.21,272.14,275.279,278.418,282.453,287.384,290.0471,292.089,298.811,302.846,307.776,311.359,314.047,316.734" svgx:width="0.72,0.61,0.39,0.39,0.5,0.61,0.33,0.55,0.83,0.5,0.61,0.44,0.33,0.33,0.56" style="fill:rgb(0,0,0);font-family:URWPalladioL-Bold;font-size:8.07px;stroke:none;">Current Density</text>
   <text y="350.939" x="261.117,263.804,270.978,277.2726,279.274" svgx:width="0.33,0.89,0.78,0.55,0.56" style="fill:rgb(0,0,0);font-family:URWPalladioL-Bold;font-size:8.07px;stroke:none;">(mA g</text>
   <text y="348.661" x="283.761" svgx:width="0.67" style="fill:rgb(0,0,0);font-family:Pxsy;font-size:6.28px;stroke:none;">−</text>
   <text y="348.661" x="287.959" svgx:width="0.5" style="fill:rgb(0,0,0);font-family:URWPalladioL-Bold;font-size:6.28px;stroke:none;">1</text>
   <text y="350.939" x="291.546" svgx:width="0.33" style="fill:rgb(0,0,0);font-family:URWPalladioL-Bold;font-size:8.07px;stroke:none;">)</text>
   <text y="340.59" x="334.5,340.326,344.813,348.396,351.083" svgx:width="0.72,0.56,0.44,0.33,0.5" style="fill:rgb(0,0,0);font-family:URWPalladioL-Bold;font-size:8.07px;stroke:none;">Cycle</text>
   <text y="350.453" x="334.5,341.222,346.153,353.327,358.258,362.292" svgx:width="0.83,0.61,0.89,0.61,0.5,0.39" style="fill:rgb(0,0,0);font-family:URWPalladioL-Bold;font-size:8.07px;stroke:none;">Number</text>
   <text y="341.076" x="381.697,387.523,391.558,396.045,400.08,403.219,406.802,409.489,414.42,417.107,421.14200000000005,423.159,428.986,433.021,437.951,441.986,445.569,448.256,450.944" svgx:width="0.72,0.5,0.56,0.5,0.39,0.44,0.33,0.61,0.33,0.5,0.55,0.72,0.5,0.61,0.5,0.44,0.33,0.33,0.56" style="fill:rgb(0,0,0);font-family:URWPalladioL-Bold;font-size:8.07px;stroke:none;">Reversible Capacity</text>
   <text y="350.939" x="381.431,384.118,391.292,397.57,402.4927,404.518" svgx:width="0.33,0.89,0.78,0.61,0.55,0.56" style="fill:rgb(0,0,0);font-family:URWPalladioL-Bold;font-size:8.07px;stroke:none;">(mAh g</text>
   <text y="348.661" x="409.005" svgx:width="0.67" style="fill:rgb(0,0,0);font-family:Pxsy;font-size:6.28px;stroke:none;">−</text>
   <text y="348.661" x="413.203" svgx:width="0.5" style="fill:rgb(0,0,0);font-family:URWPalladioL-Bold;font-size:6.28px;stroke:none;">1</text>
   <text y="350.939" x="416.79" svgx:width="0.33" style="fill:rgb(0,0,0);font-family:URWPalladioL-Bold;font-size:8.07px;stroke:none;">)</text>
   <text y="345.522" x="467.774,473.6,477.635,480.774" svgx:width="0.72,0.5,0.39,0.25" style="fill:rgb(0,0,0);font-family:URWPalladioL-Bold;font-size:8.07px;stroke:none;">Ref.</text>
  </g>
  <path style="fill:none;stroke:rgb(0,0,0);stroke-width:0.72;" d="M85.690 355.580 L509.590 355.580 "/>
  <g begin="text">
   <text y="365.124" x="91.067,96.789,101.195,103.543,106.771,108.748,113.598,115.946,118.577,123.2576,125.291,132.021,136.056,139.478,142.108,145.98160000000001,147.991,150.679,155.528,159.935,162.977,167.383,172.249,175.6384,177.688,181.271,185.306,188.493,192.956,197.362,202.059,204.7221,261.388,265.422,269.457,273.492,334.5,338.534,342.569,381.7,385.735,389.769,393.80400000000003,467.772" svgx:width="0.71,0.55,0.29,0.4,0.55,0.6,0.29,0.33,0.58,0.55,0.83,0.5,0.42,0.33,0.48,0.55,0.33,0.6,0.55,0.4,0.55,0.6,0.42,0.55,0.44,0.5,0.4,0.55,0.55,0.58,0.33,0.55,0.5,0.5,0.5,0.55,0.5,0.5,0.55,0.5,0.5,0.5,0.55,0.33" style="fill:rgb(0,0,0);font-family:URWPalladioL-Roma;font-size:8.07px;stroke:none;">Coir pith waste (porous carbon) 100 50 837 [</text>
   <text y="365.124" x="470.459,474.494" svgx:width="0.5,0.5" style="fill:rgb(8,117,183);font-family:URWPalladioL-Roma;font-size:8.07px;stroke:none;">27</text>
   <text y="365.124" x="478.529" svgx:width="0.33" style="fill:rgb(0,0,0);font-family:URWPalladioL-Roma;font-size:8.07px;stroke:none;">]</text>
   <text y="375.201" x="91.067,95.998,99.863,103.898,108.595,111.282,116.213,119.255,123.12,127.6392,129.625,132.312,136.799,139.986,144.021,148.871,153.568,155.916,158.547,160.895,164.44580000000002,166.495,169.917,174.613,178.479,182.344,184.975,187.6381,261.388,265.422,269.457,273.492,334.5,338.534,342.569,346.60400000000004,381.7,385.735,389.769,393.80400000000003,467.772" svgx:width="0.61,0.48,0.5,0.58,0.33,0.61,0.4,0.48,0.56,0.55,0.33,0.56,0.4,0.5,0.6,0.58,0.29,0.33,0.29,0.44,0.55,0.42,0.58,0.48,0.48,0.33,0.33,0.55,0.5,0.5,0.5,0.55,0.5,0.5,0.5,0.55,0.5,0.5,0.5,0.55,0.33" style="fill:rgb(0,0,0);font-family:URWPalladioL-Roma;font-size:8.07px;stroke:none;">Bean-dreg (graphitic sheet) 100 100 396 [</text>
   <text y="375.201" x="470.459,474.494" svgx:width="0.5,0.5" style="fill:rgb(8,117,183);font-family:URWPalladioL-Roma;font-size:8.07px;stroke:none;">28</text>
   <text y="375.201" x="478.529" svgx:width="0.33" style="fill:rgb(0,0,0);font-family:URWPalladioL-Roma;font-size:8.07px;stroke:none;">]</text>
   <text y="385.278" x="91.067,98.247,102.209,105.569,108.152,112.0256,113.969,118.375,121.363,125.158,128.946,133.6266,135.579,138.163,141.958,145.993,147.941,150.58,154.986,158.116,162.079,166.841,171.453,173.759,176.343,178.649,182.1998,184.18,187.699,191.661,194.791,199.173,203.5,208.1806,210.133,214.745,218.707,223.319,227.646,232.464,236.426,240.832,244.628,247.988,250.65109999999999,261.383,265.418,269.453,273.488,334.503,338.538,342.573,346.608,381.695,385.73,389.765,393.8,467.775" svgx:width="1.0,0.5,0.42,0.33,0.48,0.55,0.56,0.4,0.48,0.48,0.58,0.55,0.33,0.48,0.5,0.55,0.33,0.56,0.4,0.5,0.6,0.58,0.29,0.33,0.29,0.44,0.55,0.44,0.5,0.4,0.55,0.55,0.58,0.55,0.58,0.5,0.58,0.55,0.61,0.5,0.56,0.48,0.42,0.33,0.55,0.5,0.5,0.5,0.55,0.5,0.5,0.5,0.55,0.5,0.5,0.5,0.55,0.33" style="fill:rgb(0,0,0);font-family:URWPalladioL-Roma;font-size:8.07px;stroke:none;">Waste green tea (graphitic carbon nanoﬂakes) 100 100 400 [</text>
   <text y="385.278" x="470.463,474.498" svgx:width="0.5,0.5" style="fill:rgb(8,117,183);font-family:URWPalladioL-Roma;font-size:8.07px;stroke:none;">38</text>
   <text y="385.278" x="478.533" svgx:width="0.33" style="fill:rgb(0,0,0);font-family:URWPalladioL-Roma;font-size:8.07px;stroke:none;">]</text>
   <text y="395.356" x="91.067,96.361,98.667,102.185,106.0586,108.002,112.614,117.392,120.752,125.158,128.5474,130.531,133.17,136.689,140.651,143.781,148.163,152.49,157.102,159.741,164.583,168.379,171.897,176.224,179.354,183.316,185.9,189.696,194.6187,196.558,199.918,202.224,204.53,206.836,210.355,214.681,219.3616,221.306,224.666,229.429,234.041,237.837,240.824,244.62,247.98,250.6431,261.383,265.418,269.453,273.488,334.503,338.538,342.573,346.608,381.695,385.73,389.765,393.8,467.775" svgx:width="0.67,0.29,0.44,0.48,0.55,0.58,0.6,0.42,0.56,0.42,0.55,0.33,0.44,0.5,0.4,0.55,0.55,0.58,0.33,0.61,0.48,0.44,0.55,0.4,0.5,0.33,0.48,0.61,0.55,0.42,0.29,0.29,0.29,0.44,0.55,0.58,0.55,0.42,0.6,0.58,0.48,0.4,0.48,0.42,0.33,0.55,0.5,0.5,0.5,0.55,0.5,0.5,0.5,0.55,0.5,0.5,0.5,0.55,0.33" style="fill:rgb(0,0,0);font-family:URWPalladioL-Roma;font-size:8.07px;stroke:none;">Rice husks (carbon-decorated silicon spheres) 100 100 429 [</text>
   <text y="395.356" x="470.463,474.498" svgx:width="0.5,0.5" style="fill:rgb(8,117,183);font-family:URWPalladioL-Roma;font-size:8.07px;stroke:none;">44</text>
   <text y="395.356" x="478.533" svgx:width="0.33" style="fill:rgb(0,0,0);font-family:URWPalladioL-Roma;font-size:8.07px;stroke:none;">]</text>
   <text y="405.433" x="91.067,96.789" svgx:width="0.71,0.55" style="fill:rgb(0,0,0);font-family:URWPalladioL-Roma;font-size:8.07px;stroke:none;">Co</text>
   <text y="405.433" x="101.195" svgx:width="0.61" style="fill:rgb(0,0,0);font-family:Rpxr;font-size:8.07px;stroke:none;">ﬀ</text>
   <text y="405.433" x="106.101,109.966,113.83959999999999,115.849,122.579,126.614,130.036,132.666,136.5396,138.549,141.237,145.933,150.339,155.036,159.886,164.292,167.334,171.74,176.606,179.9954,182.045,185.628,189.663,192.851,197.313,201.719,206.416,209.838,212.5011,261.387,265.422,269.457,273.492,334.499,338.534,342.569,346.60400000000004,381.699,385.734,389.769,393.80400000000003,467.771" svgx:width="0.48,0.48,0.55,0.83,0.5,0.42,0.33,0.48,0.55,0.33,0.58,0.55,0.58,0.6,0.55,0.4,0.55,0.6,0.42,0.55,0.44,0.5,0.4,0.55,0.55,0.58,0.42,0.33,0.55,0.5,0.5,0.5,0.55,0.5,0.5,0.5,0.55,0.5,0.5,0.5,0.55,0.33" style="fill:rgb(0,0,0);font-family:URWPalladioL-Roma;font-size:8.07px;stroke:none;">ee waste (nonporous carbons) 100 100 285 [</text>
   <text y="405.433" x="470.459,474.494" svgx:width="0.5,0.5" style="fill:rgb(8,117,183);font-family:URWPalladioL-Roma;font-size:8.07px;stroke:none;">53</text>
   <text y="405.433" x="478.528" svgx:width="0.33" style="fill:rgb(0,0,0);font-family:URWPalladioL-Roma;font-size:8.07px;stroke:none;">]</text>
   <text y="415.51" x="91.067,99.137,103.834,107.699,111.734,114.3971,116.382,121.288,125.695,130.561,133.78900000000002,135.766,138.453,142.036,146.071,149.258,153.721,158.127,162.8076,164.841,169.691,173.726,176.913,179.544,181.892,185.475,187.824,191.689,195.111,197.77409999999998,261.388,265.422,269.457,273.492,277.52700000000004,334.5,338.535,342.569,346.60400000000004,381.7,385.735,389.77,393.805,467.772" svgx:width="1.0,0.58,0.48,0.5,0.33,0.55,0.61,0.55,0.6,0.4,0.55,0.33,0.44,0.5,0.4,0.55,0.55,0.58,0.55,0.6,0.5,0.4,0.33,0.29,0.44,0.29,0.48,0.42,0.33,0.55,0.5,0.5,0.5,0.5,0.55,0.5,0.5,0.5,0.55,0.5,0.5,0.5,0.55,0.33" style="fill:rgb(0,0,0);font-family:URWPalladioL-Roma;font-size:8.07px;stroke:none;">Wheat ﬂour (carbon particles) 1000 100 217 [</text>
   <text y="415.51" x="470.459,474.494" svgx:width="0.5,0.5" style="fill:rgb(8,117,183);font-family:URWPalladioL-Roma;font-size:8.07px;stroke:none;">45</text>
   <text y="415.51" x="478.529" svgx:width="0.33" style="fill:rgb(0,0,0);font-family:URWPalladioL-Roma;font-size:8.07px;stroke:none;">]</text>
   <text y="425.587" x="91.067,97.41,100.598,104.632,109.329,113.816,117.6896,119.699,124.549,128.414,132.279,134.6193,136.645,139.332,144.182,148.588,151.631,156.037,160.903,164.2924,166.342,169.925,173.96,177.147,181.61,186.016,190.713,193.3761,261.388,265.422,269.457,273.492,277.52700000000004,334.5,338.535,342.569,346.60400000000004,381.7,385.735,389.77,393.805,467.772" svgx:width="0.79,0.4,0.5,0.58,0.56,0.48,0.55,0.6,0.48,0.48,0.29,0.55,0.33,0.6,0.55,0.4,0.55,0.6,0.42,0.55,0.44,0.5,0.4,0.55,0.55,0.58,0.33,0.55,0.5,0.5,0.5,0.5,0.55,0.5,0.5,0.5,0.55,0.5,0.5,0.5,0.55,0.33" style="fill:rgb(0,0,0);font-family:URWPalladioL-Roma;font-size:8.07px;stroke:none;">Orange peel (porous carbon) 1000 100 301 [</text>
   <text y="425.587" x="470.459,474.494" svgx:width="0.5,0.5" style="fill:rgb(8,117,183);font-family:URWPalladioL-Roma;font-size:8.07px;stroke:none;">46</text>
   <text y="425.587" x="478.529" svgx:width="0.33" style="fill:rgb(0,0,0);font-family:URWPalladioL-Roma;font-size:8.07px;stroke:none;">]</text>
   <text y="435.665" x="91.067,95.998,100.404,104.81,107.497,111.532,116.2126,118.246,120.933,123.564,128.261,131.303,135.168,139.034,141.721,146.652,149.0,156.126,159.991,164.688,168.109,170.457,174.864,179.56,183.595,185.9353,187.961,192.811,197.217,200.259,204.665,209.531,212.9204,214.97,218.553,222.588,225.776,230.238,234.644" svgx:width="0.61,0.55,0.55,0.33,0.5,0.58,0.55,0.33,0.33,0.58,0.4,0.48,0.48,0.33,0.61,0.29,0.88,0.48,0.58,0.42,0.29,0.55,0.58,0.5,0.29,0.55,0.6,0.55,0.4,0.55,0.6,0.42,0.55,0.44,0.5,0.4,0.55,0.55,0.58" style="fill:rgb(0,0,0);font-family:URWPalladioL-Roma;font-size:8.07px;stroke:none;">Loofah (three-dimensional porous carbon</text>
   <text y="445.528" x="91.067,93.754,96.942,100.977,108.102,111.968,118.698,123.104,126.292,130.778" svgx:width="0.33,0.4,0.5,0.88,0.48,0.83,0.55,0.4,0.56,0.33" style="fill:rgb(0,0,0);font-family:URWPalladioL-Roma;font-size:8.07px;stroke:none;">framework)</text>
   <text y="440.597" x="261.383,265.418,269.453,273.488,334.503,338.538,342.573,346.608,381.695,385.73,389.765,393.8,467.775" svgx:width="0.5,0.5,0.5,0.55,0.5,0.5,0.5,0.55,0.5,0.5,0.5,0.55,0.33" style="fill:rgb(0,0,0);font-family:URWPalladioL-Roma;font-size:8.07px;stroke:none;">100 100 225 [</text>
   <text y="440.597" x="470.463,474.498" svgx:width="0.5,0.5" style="fill:rgb(8,117,183);font-family:URWPalladioL-Roma;font-size:8.07px;stroke:none;">60</text>
   <text y="440.597" x="478.533" svgx:width="0.33" style="fill:rgb(0,0,0);font-family:URWPalladioL-Roma;font-size:8.07px;stroke:none;">]</text>
   <text y="455.391" x="91.067,98.395,102.429,105.851,108.482,112.3556,114.365,118.851,121.894,125.759,129.625,134.3056,136.339,138.969,142.835,146.87,148.887,151.574,156.271,160.306,165.002,169.408,174.258,178.293,181.481,184.112,186.46,190.043,192.391,196.257,199.678,202.34109999999998,261.388,265.422,269.457,273.492,334.5,338.534,342.569,346.60400000000004,381.7,385.735,389.769,393.80400000000003,467.772" svgx:width="1.0,0.5,0.42,0.33,0.48,0.55,0.56,0.4,0.48,0.48,0.58,0.55,0.33,0.48,0.5,0.55,0.33,0.58,0.5,0.58,0.55,0.6,0.5,0.4,0.33,0.29,0.44,0.29,0.48,0.42,0.33,0.55,0.5,0.5,0.5,0.55,0.5,0.5,0.5,0.55,0.5,0.5,0.5,0.55,0.33" style="fill:rgb(0,0,0);font-family:URWPalladioL-Roma;font-size:8.07px;stroke:none;">Waste green tea (nanoparticles) 100 100 498 [</text>
   <text y="455.391" x="470.459,474.494" svgx:width="0.5,0.5" style="fill:rgb(8,117,183);font-family:URWPalladioL-Roma;font-size:8.07px;stroke:none;">61</text>
   <text y="455.391" x="478.529" svgx:width="0.33" style="fill:rgb(0,0,0);font-family:URWPalladioL-Roma;font-size:8.07px;stroke:none;">]</text>
   <text y="465.468" x="91.067,97.797,101.832,104.181,108.877,113.743,116.4061,118.391,121.813,126.51,130.375,132.723,135.06330000000003,137.089,139.776,144.626,149.032,152.075,156.481,161.347,164.7364,166.786,170.369,174.404,177.591,182.054,186.46,191.1406,193.174,197.87,201.905,206.602,211.008,215.89,220.353,224.218,227.406,230.0691,261.388,265.422,269.457,273.492,334.5,338.534,342.569,346.60400000000004,381.7,385.735,389.769,393.80400000000003,467.772" svgx:width="0.83,0.5,0.29,0.58,0.6,0.33,0.55,0.42,0.58,0.48,0.29,0.29,0.55,0.33,0.6,0.55,0.4,0.55,0.6,0.42,0.55,0.44,0.5,0.4,0.55,0.55,0.58,0.55,0.58,0.5,0.58,0.55,0.61,0.55,0.48,0.4,0.33,0.55,0.5,0.5,0.5,0.55,0.5,0.5,0.5,0.55,0.5,0.5,0.5,0.55,0.33" style="fill:rgb(0,0,0);font-family:URWPalladioL-Roma;font-size:8.07px;stroke:none;">walnut shell (porous carbon nanoﬁber) 100 200 280 [</text>
   <text y="465.468" x="470.459,474.494" svgx:width="0.5,0.5" style="fill:rgb(8,117,183);font-family:URWPalladioL-Roma;font-size:8.07px;stroke:none;">62</text>
   <text y="465.468" x="478.529" svgx:width="0.33" style="fill:rgb(0,0,0);font-family:URWPalladioL-Roma;font-size:8.07px;stroke:none;">]</text>
   <text y="480.477" x="91.067,96.458,100.323,104.189,109.1117,111.137,116.043,120.449,127.179,131.045,134.232,137.6214,139.671,142.359,147.055,149.403,153.269,156.456,160.491,163.534,167.117,171.813,174.162,177.744,181.779,184.1193,186.145,190.995,195.401,198.443,202.85,207.716,211.1054,213.155,216.738,220.772,223.96,228.423,232.829,237.525" svgx:width="0.67,0.48,0.48,0.61,0.55,0.61,0.55,0.83,0.48,0.4,0.42,0.55,0.33,0.58,0.29,0.48,0.4,0.5,0.4,0.44,0.58,0.29,0.44,0.5,0.29,0.55,0.6,0.55,0.4,0.55,0.6,0.42,0.55,0.44,0.5,0.4,0.55,0.55,0.58,0.33" style="fill:rgb(0,0,0);font-family:URWPalladioL-Roma;font-size:8.07px;stroke:none;">Reed ﬂowers (hierarchical porous carbon)</text>
   <text y="475.546" x="261.383,265.418,269.453" svgx:width="0.5,0.5,0.5" style="fill:rgb(0,0,0);font-family:URWPalladioL-Roma;font-size:8.07px;stroke:none;">100</text>
   <text y="485.409" x="260.98,265.015,269.05,273.085" svgx:width="0.5,0.5,0.5,0.5" style="fill:rgb(0,0,0);font-family:URWPalladioL-Roma;font-size:8.07px;stroke:none;">1000</text>
   <text y="475.546" x="334.5,338.535,342.57" svgx:width="0.5,0.5,0.5" style="fill:rgb(0,0,0);font-family:URWPalladioL-Roma;font-size:8.07px;stroke:none;">100</text>
   <text y="485.409" x="334.097,338.132,342.167,346.202" svgx:width="0.5,0.5,0.5,0.5" style="fill:rgb(0,0,0);font-family:URWPalladioL-Roma;font-size:8.07px;stroke:none;">1000</text>
   <text y="475.546" x="381.697,385.732,389.767,393.802,395.819" svgx:width="0.5,0.5,0.5,0.25,0.5" style="fill:rgb(0,0,0);font-family:URWPalladioL-Roma;font-size:8.07px;stroke:none;">581.2</text>
   <text y="485.409" x="381.697,385.732,389.767,393.802,395.819" svgx:width="0.5,0.5,0.5,0.25,0.5" style="fill:rgb(0,0,0);font-family:URWPalladioL-Roma;font-size:8.07px;stroke:none;">298.5</text>
   <text y="480.477" x="467.774,472.721,477.417,479.766,483.15540000000004,485.205,491.935,496.341,499.528" svgx:width="0.61,0.58,0.29,0.42,0.55,0.83,0.55,0.4,0.56" style="fill:rgb(0,0,0);font-family:URWPalladioL-Roma;font-size:8.07px;stroke:none;">This work</text>
  </g>
  <path style="fill:none;stroke:rgb(0,0,0);stroke-width:0.27;" d="M85.690 490.270 L509.590 490.270 "/>
  <g begin="text">
   <text y="512.535" x="76.535,81.516,84.006,87.494,94.687,100.226,106.313,110.737,114.054,120.141,124.565,127.882,133.421,139.509" svgx:width="0.5,0.25,0.55,0.72,0.56,0.61,0.44,0.33,0.61,0.44,0.33,0.56,0.61,0.44" style="fill:rgb(0,0,0);font-family:URWPalladioL-Bold;font-size:9.96px;stroke:none;">4. Conclusions</text>
   <text y="532.022" x="97.795,106.25,109.207,114.074,118.088,123.169,127.0,131.512,137.426,140.383,144.895,149.976,152.8644,156.734,162.841,168.389,172.22,177.769,183.896,188.0792,191.995,196.507,201.588,205.602,211.222,216.77,222.54680000000002,226.475,229.858,238.313,244.451,251.656,254.9428,258.84,267.315,272.396,276.5792,280.495,284.804,290.931,295.443,299.955,304.822,309.131,313.44,316.824,322.951,325.908,328.865,334.4426,338.306,342.614,348.264,354.179,357.491,363.405,368.273,372.582,375.539,380.62,385.487,391.56260000000003,395.486,401.106,406.6836,410.556,419.529,425.657,428.614,431.927,434.884,439.193,442.505,447.373,453.349,457.271,461.782,466.863,469.82,474.332,477.289,483.204,488.285,491.597,494.554,500.103,505.8798,509.807,515.356" svgx:width="0.83,0.29,0.48,0.4,0.5,0.4,0.44,0.58,0.29,0.44,0.5,0.29,0.55,0.6,0.55,0.4,0.55,0.6,0.42,0.55,0.44,0.5,0.4,0.55,0.55,0.58,0.55,0.33,0.83,0.6,0.71,0.33,0.55,0.83,0.5,0.42,0.55,0.42,0.6,0.44,0.44,0.48,0.42,0.42,0.33,0.6,0.29,0.29,0.56,0.55,0.42,0.56,0.58,0.33,0.58,0.48,0.42,0.29,0.5,0.48,0.61,0.55,0.55,0.56,0.55,0.88,0.6,0.29,0.33,0.29,0.42,0.33,0.48,0.6,0.55,0.44,0.5,0.29,0.44,0.29,0.58,0.5,0.33,0.29,0.55,0.58,0.55,0.55,0.33" style="fill:rgb(0,0,0);font-family:URWPalladioL-Roma;font-size:9.96px;stroke:none;">Hierarchical porous carbon (HPC) was successfully synthesized by multistep calcination of</text>
   <text y="545.531" x="76.535,81.989,84.859,90.245,98.954,103.885,108.067,112.25019999999999,114.744,118.463,123.187,127.911,133.9866,136.443,142.439,147.825,156.05,160.775,164.671,168.8542,171.348,174.218,179.9948,182.463,185.679,191.419,194.289,198.4722,200.966,209.192,214.577,218.473,223.957,226.447,229.934,235.98,241.72,246.5008,248.95,257.156,263.113,270.1846,272.601,277.533,283.273,288.658,294.684,299.4648,301.914,306.638,311.728,317.468,320.338,325.792,328.662,331.868,336.0512,338.555,343.535,345.982,351.722,354.592,360.076,365.8528,368.321,372.503,378.431,383.155,387.534,390.404,396.372,400.75440000000003,403.246,407.428,413.375,417.271,420.556,425.487,429.866,434.6468,437.096,442.481,445.7678,448.261,454.238,459.169,464.101,469.032,473.964,476.429,481.361,486.341,488.797" svgx:width="0.55,0.29,0.55,0.88,0.5,0.42,0.42,0.55,0.4,0.48,0.48,0.61,0.55,0.61,0.55,0.83,0.48,0.4,0.42,0.55,0.29,0.58,0.55,0.33,0.58,0.29,0.42,0.55,0.83,0.55,0.4,0.56,0.25,0.55,0.61,0.58,0.48,0.55,0.83,0.6,0.71,0.55,0.5,0.58,0.55,0.61,0.48,0.55,0.48,0.52,0.58,0.29,0.55,0.29,0.33,0.42,0.55,0.5,0.55,0.58,0.29,0.56,0.58,0.55,0.42,0.6,0.48,0.44,0.29,0.61,0.44,0.55,0.42,0.6,0.4,0.33,0.5,0.44,0.48,0.55,0.55,0.33,0.55,0.61,0.5,0.5,0.5,0.5,0.25,0.5,0.5,0.55,0.88" style="fill:rgb(0,0,0);font-family:URWPalladioL-Roma;font-size:9.96px;stroke:none;">biomass reed ﬂowers in this work. The HPC anode exhibits a high speciﬁc surface of ~1714.83 m</text>
   <text y="541.915" x="497.502" svgx:width="0.5" style="fill:rgb(0,0,0);font-family:URWPalladioL-Roma;font-size:7.57px;stroke:none;">2</text>
   <text y="545.531" x="504.286" svgx:width="0.56" style="fill:rgb(0,0,0);font-family:URWPalladioL-Roma;font-size:9.96px;stroke:none;">g</text>
   <text y="541.915" x="509.77" svgx:width="0.67" style="fill:rgb(0,0,0);font-family:Pxsy;font-size:7.57px;stroke:none;">−</text>
   <text y="541.915" x="514.835" svgx:width="0.5" style="fill:rgb(0,0,0);font-family:URWPalladioL-Roma;font-size:7.57px;stroke:none;">1</text>
   <text y="559.041" x="76.535,81.417,87.099,93.1746,95.408,100.388,102.632,108.032,110.873,116.45060000000001,118.644,124.512,129.843,133.524,138.3048,140.534,146.05,151.381,154.222,160.109,168.73,173.5108,175.75,179.001,184.918,189.8,192.24,197.122,202.102,204.347,208.682" svgx:width="0.5,0.58,0.61,0.55,0.5,0.55,0.55,0.29,0.56,0.55,0.6,0.55,0.4,0.48,0.55,0.56,0.55,0.29,0.6,0.88,0.48,0.55,0.33,0.61,0.5,0.25,0.5,0.5,0.55,0.44,0.88" style="fill:rgb(0,0,0);font-family:URWPalladioL-Roma;font-size:9.96px;stroke:none;">and a big pore volume (~1.13 cm</text>
   <text y="555.424" x="217.306" svgx:width="0.5" style="fill:rgb(0,0,0);font-family:URWPalladioL-Roma;font-size:7.57px;stroke:none;">3</text>
   <text y="559.041" x="223.933" svgx:width="0.56" style="fill:rgb(0,0,0);font-family:URWPalladioL-Roma;font-size:9.96px;stroke:none;">g</text>
   <text y="555.424" x="229.361" svgx:width="0.67" style="fill:rgb(0,0,0);font-family:Pxsy;font-size:7.57px;stroke:none;">−</text>
   <text y="555.424" x="234.427" svgx:width="0.5" style="fill:rgb(0,0,0);font-family:URWPalladioL-Roma;font-size:7.57px;stroke:none;">1</text>
   <text y="559.041" x="238.711,241.962,244.452,247.84,255.514,263.656,266.497,272.18,277.7576,279.951,283.134,288.612,290.808,293.991,299.673,304.4538,306.693,311.575,317.54,323.057,327.938,333.621,336.803,341.685,347.114,351.79,355.9732,358.273,363.604,366.8908,369.198,372.381,378.063,382.8438,385.083,390.765,393.607,398.283,402.14,407.021,410.692,415.027,420.71,423.551,427.886,432.767,435.609,438.45,444.0276,446.221,452.089,457.42,461.101,466.431,472.319,476.5022,478.802,482.941,486.124,489.902,495.79,500.125,503.308,509.195,512.866,517.543" svgx:width="0.33,0.25,0.55,0.79,0.83,0.29,0.58,0.56,0.55,0.33,0.55,0.55,0.33,0.58,0.48,0.55,0.5,0.61,0.56,0.5,0.58,0.33,0.5,0.56,0.48,0.42,0.55,0.55,0.33,0.55,0.33,0.58,0.48,0.55,0.58,0.29,0.48,0.4,0.5,0.4,0.44,0.58,0.29,0.44,0.5,0.29,0.29,0.56,0.55,0.6,0.55,0.4,0.55,0.6,0.42,0.55,0.42,0.33,0.4,0.6,0.44,0.33,0.6,0.4,0.48,0.25" style="fill:rgb(0,0,0);font-family:URWPalladioL-Roma;font-size:9.96px;stroke:none;">). Owing to the advantages of the hierarchically porous structure,</text>
   <text y="572.55" x="76.535,79.848,85.762,90.5428,93.312,101.767,107.905,114.9766,117.782,122.649,125.607,130.474,134.986,138.299,142.13,147.678,153.887,158.6678,161.437,167.646,170.603,174.912,181.019,183.976,189.057,194.707,198.8902,201.688,207.338,212.887,218.435,224.5106,227.327,232.194,235.151,240.019,244.531,247.843,251.674,257.223,261.735,267.649,272.516,281.489,284.446,288.958,294.039,296.9274,299.679,305.786,309.617,315.166,321.273,326.141,330.154,333.467,339.0446,341.8,350.275,353.232,356.545,362.3218,365.132,370.112,372.895,379.104,382.061,386.37,390.882,396.796,401.877,405.708,411.358,416.1388,418.908,423.42,428.501,434.608,439.689,444.201,447.158,450.471,456.0486,458.793,464.342,467.6288,470.408,475.489,480.57,485.651,488.192,493.172,495.945,504.918,512.824" svgx:width="0.33,0.58,0.48,0.55,0.83,0.6,0.71,0.55,0.48,0.29,0.48,0.44,0.33,0.4,0.55,0.61,0.48,0.55,0.61,0.29,0.42,0.6,0.29,0.5,0.56,0.42,0.55,0.56,0.55,0.55,0.61,0.55,0.48,0.29,0.48,0.44,0.33,0.4,0.55,0.44,0.58,0.48,0.88,0.29,0.44,0.5,0.29,0.55,0.6,0.4,0.55,0.6,0.48,0.4,0.33,0.56,0.55,0.83,0.29,0.33,0.58,0.55,0.5,0.55,0.61,0.29,0.42,0.44,0.58,0.5,0.4,0.56,0.48,0.55,0.44,0.5,0.6,0.5,0.44,0.29,0.33,0.56,0.55,0.55,0.33,0.55,0.5,0.5,0.5,0.25,0.5,0.55,0.88,0.78,0.58" style="fill:rgb(0,0,0);font-family:URWPalladioL-Roma;font-size:9.96px;stroke:none;">the HPC electrode displays good electrochemical property with a discharge capacity of 581.2 mAh</text>
   <text y="586.06" x="76.535" svgx:width="0.56" style="fill:rgb(0,0,0);font-family:URWPalladioL-Roma;font-size:9.96px;stroke:none;">g</text>
   <text y="582.443" x="82.108" svgx:width="0.67" style="fill:rgb(0,0,0);font-family:Pxsy;font-size:7.57px;stroke:none;">−</text>
   <text y="582.443" x="87.173" svgx:width="0.5" style="fill:rgb(0,0,0);font-family:URWPalladioL-Roma;font-size:7.57px;stroke:none;">1</text>
   <text y="586.06" x="93.941,98.952,102.2388,104.705,109.716,114.727,119.70700000000001,122.224,131.074,138.8428,141.347" svgx:width="0.5,0.33,0.55,0.5,0.5,0.5,0.55,0.88,0.78,0.55,0.56" style="fill:rgb(0,0,0);font-family:URWPalladioL-Roma;font-size:9.96px;stroke:none;">at 100 mA g</text>
   <text y="582.443" x="146.923" svgx:width="0.67" style="fill:rgb(0,0,0);font-family:Pxsy;font-size:7.57px;stroke:none;">−</text>
   <text y="582.443" x="151.989" svgx:width="0.5" style="fill:rgb(0,0,0);font-family:URWPalladioL-Roma;font-size:7.57px;stroke:none;">1</text>
   <text y="586.06" x="158.756,163.767,167.105,170.372,175.173,179.157,181.617,186.628,191.639,196.619,199.136,203.586,209.159,213.608,216.525,221.326,225.575,228.065,230.566,235.577,238.494,241.41,246.883,255.241,258.158,263.991,269.5686,272.039,275.376,280.849,284.83299999999997,287.293,292.273,294.79,300.813,304.592,310.064,318.914,321.83,326.079,328.996,334.829,340.4066,342.887,348.91,352.689,358.161,362.411,368.434,373.235,377.685,380.97180000000003,383.438,388.91,392.19680000000005,394.733,398.07,404.114,408.073,411.34,417.173,421.974,425.95799999999997,428.408,434.431,438.39,443.401,447.851,451.119,454.035,458.485,463.496,466.38439999999997,468.898,473.909,479.933,485.956,488.873,491.789,496.239,501.25,504.518,507.434,512.906" svgx:width="0.5,0.33,0.33,0.48,0.4,0.55,0.5,0.5,0.5,0.55,0.44,0.56,0.44,0.29,0.48,0.42,0.25,0.55,0.5,0.29,0.29,0.55,0.83,0.29,0.58,0.56,0.55,0.33,0.55,0.4,0.55,0.5,0.55,0.6,0.4,0.55,0.88,0.29,0.42,0.29,0.58,0.56,0.55,0.6,0.4,0.55,0.42,0.6,0.48,0.44,0.33,0.55,0.55,0.33,0.55,0.33,0.6,0.4,0.33,0.58,0.48,0.4,0.55,0.6,0.4,0.5,0.44,0.33,0.29,0.44,0.5,0.29,0.55,0.5,0.6,0.6,0.29,0.29,0.44,0.5,0.33,0.29,0.55,0.58" style="fill:rgb(0,0,0);font-family:URWPalladioL-Roma;font-size:9.96px;stroke:none;">after 100 cycles, allowing for a promising prospect of further practical application</text>
   <text y="599.569" x="76.535,79.454,85.23079999999999,87.781,91.052,96.891,101.6718,104.184,109.732,114.748,118.019,121.289,126.095,130.058,135.63559999999998,138.124,141.043,146.882,153.012,159.061,163.315,166.585,170.548,176.1256,178.614,183.63,187.8132,190.382,195.86,201.698,206.4788,208.992,214.47,217.7568,220.298,223.569,229.408,234.1888,236.701" svgx:width="0.29,0.58,0.55,0.33,0.58,0.48,0.55,0.55,0.5,0.33,0.33,0.48,0.4,0.56,0.55,0.29,0.58,0.61,0.6,0.42,0.33,0.4,0.56,0.55,0.5,0.42,0.55,0.55,0.58,0.48,0.55,0.55,0.33,0.55,0.33,0.58,0.48,0.55,0.48" style="fill:rgb(0,0,0);font-family:URWPalladioL-Roma;font-size:9.96px;stroke:none;">in the battery industry as one of the e</text>
   <text y="599.569" x="241.507" svgx:width="0.61" style="fill:rgb(0,0,0);font-family:Rpxr;font-size:9.96px;stroke:none;">ﬀ</text>
   <text y="599.569" x="247.607,252.412,256.867,260.137,263.057,268.725,273.5058,276.019,281.035,286.874,292.94960000000003,295.491,299.946,305.784,310.59,315.606,321.582,324.124,329.14,332.059,335.33,340.135,344.098,349.937,354.953,358.223,361.143,366.811,371.617,375.8002,378.358,383.836,387.12280000000004,389.675,395.253,399.216,404.232,410.261,416.1,419.019,422.28,427.085,429.575,433.085,442.575,448.053,451.835,456.641,462.118,467.787,472.592,475.822,478.312,480.819,484.089,489.928,494.7088,497.221,505.568,511.628" svgx:width="0.48,0.44,0.33,0.29,0.56,0.48,0.55,0.5,0.58,0.61,0.55,0.44,0.58,0.48,0.5,0.6,0.55,0.5,0.29,0.33,0.48,0.4,0.58,0.5,0.33,0.29,0.56,0.48,0.42,0.55,0.55,0.33,0.55,0.56,0.4,0.5,0.6,0.58,0.29,0.33,0.48,0.25,0.55,0.95,0.55,0.4,0.48,0.55,0.56,0.48,0.4,0.25,0.55,0.33,0.58,0.48,0.55,0.83,0.6,0.71" style="fill:rgb(0,0,0);font-family:URWPalladioL-Roma;font-size:9.96px;stroke:none;">ective and cheap alternatives of graphite. Moreover, the HPC</text>
   <text y="613.078" x="76.535,81.616,87.53,93.078,99.287,104.0678,106.634,111.715,116.227,122.141,125.099,129.966,135.707,140.575,144.7582,147.363,153.013,158.561,164.11,170.18560000000002,172.808,176.822,181.903,185.206,189.9868,192.563,198.67,203.538,207.552,210.936,216.484,220.498,229.471,234.552,240.466,244.978,249.845,252.335,255.861,262.07,267.812,272.679,278.45579999999995,281.083,286.164,289.4508,291.956,296.93600000000004,299.517,302.474,307.555,311.386,317.036,321.8168,324.383,328.894,335.022,339.036,342.877,347.745,353.659,356.9458,359.451,365.66,370.527,376.442,380.75,383.707,387.02,392.5976,395.15,400.698,403.9848,406.561,411.642,416.723,421.804,426.784,429.365,438.338,446.1068,448.733" svgx:width="0.5,0.58,0.55,0.61,0.48,0.55,0.5,0.44,0.58,0.29,0.48,0.56,0.48,0.42,0.55,0.56,0.55,0.55,0.61,0.55,0.4,0.5,0.33,0.48,0.55,0.6,0.48,0.4,0.33,0.55,0.4,0.88,0.5,0.58,0.44,0.48,0.25,0.55,0.61,0.56,0.48,0.58,0.55,0.5,0.33,0.55,0.5,0.55,0.29,0.5,0.4,0.56,0.48,0.55,0.44,0.6,0.4,0.4,0.48,0.58,0.33,0.55,0.61,0.48,0.58,0.42,0.29,0.33,0.56,0.55,0.55,0.33,0.55,0.5,0.5,0.5,0.5,0.55,0.88,0.78,0.55,0.56" style="fill:rgb(0,0,0);font-family:URWPalladioL-Roma;font-size:9.96px;stroke:none;">anode achieves good rate performance. Even at a large current density of 1000 mA g</text>
   <text y="609.462" x="454.38" svgx:width="0.67" style="fill:rgb(0,0,0);font-family:Pxsy;font-size:7.57px;stroke:none;">−</text>
   <text y="609.462" x="459.445" svgx:width="0.5" style="fill:rgb(0,0,0);font-family:URWPalladioL-Roma;font-size:7.57px;stroke:none;">1</text>
   <text y="613.078" x="463.729,466.219,468.749,472.062,477.976,482.7568,485.333,489.642,495.749,500.617,505.128,508.085,514.233" svgx:width="0.25,0.55,0.33,0.58,0.48,0.55,0.42,0.6,0.48,0.44,0.29,0.61,0.44" style="fill:rgb(0,0,0);font-family:URWPalladioL-Roma;font-size:9.96px;stroke:none;">, the speciﬁc</text>
   <text y="626.588" x="76.535,80.95,85.921,91.896,96.868,101.282,104.176,107.417,112.9946,115.441,119.855,125.284,131.279,134.173,140.2486,142.743,147.715,150.608,154.824,160.30200000000002,162.738,166.486,171.249,174.49,179.462,182.355,188.1318,190.637,195.609,198.8958,201.345,206.317,211.288,216.259,218.745,223.725,226.212,234.992,242.727,248.5038,250.999" svgx:width="0.44,0.5,0.6,0.5,0.44,0.29,0.33,0.56,0.55,0.44,0.55,0.6,0.29,0.61,0.55,0.5,0.29,0.42,0.55,0.55,0.4,0.48,0.33,0.5,0.29,0.58,0.55,0.5,0.33,0.55,0.5,0.5,0.5,0.25,0.5,0.55,0.88,0.78,0.58,0.55,0.56" style="fill:rgb(0,0,0);font-family:URWPalladioL-Roma;font-size:9.96px;stroke:none;">capacity could also retain at 298.5 mAh g</text>
   <text y="622.971" x="256.532" svgx:width="0.67" style="fill:rgb(0,0,0);font-family:Pxsy;font-size:7.57px;stroke:none;">−</text>
   <text y="622.971" x="261.597" svgx:width="0.5" style="fill:rgb(0,0,0);font-family:URWPalladioL-Roma;font-size:7.57px;stroke:none;">1</text>
   <text y="626.588" x="268.375,273.346,276.657,279.899,284.661,288.645,291.084,296.055,301.027,305.998,310.978,313.465,317.88,323.408,327.822,330.716,335.478,339.694,342.184,345.669,351.764,357.551,362.3318,364.809,369.78,375.279,380.707,386.325,391.1058,393.583,399.559,403.307,408.736,414.711,419.474,423.401,426.643,432.2206,434.656,440.085,443.3718,445.892,449.133,454.92,459.7008,462.178,467.149,471.365,474.676,477.987,482.958,488.456,492.384,495.277,499.691,504.663,507.904,512.667" svgx:width="0.5,0.33,0.33,0.48,0.4,0.55,0.5,0.5,0.5,0.5,0.55,0.44,0.56,0.44,0.29,0.48,0.42,0.25,0.55,0.61,0.58,0.48,0.55,0.5,0.55,0.55,0.56,0.48,0.55,0.6,0.4,0.55,0.6,0.48,0.4,0.33,0.56,0.55,0.55,0.33,0.55,0.33,0.58,0.48,0.55,0.5,0.42,0.33,0.33,0.5,0.55,0.4,0.29,0.44,0.5,0.33,0.48,0.61" style="fill:rgb(0,0,0);font-family:URWPalladioL-Roma;font-size:9.96px;stroke:none;">after 1000 cycles. The above property of the as-fabricated</text>
   <text y="640.097" x="76.535,84.675,90.584,97.6556,100.015,103.703,108.389,113.917,118.603,123.495,126.342,130.5252,132.975,135.822,139.011,143.1942,145.654,151.093,154.782,159.468,164.359,167.6458,170.044,175.923,181.265,184.454,189.14,194.834,198.024,200.871,205.762,208.6504,211.104,215.996,220.1792,222.629,227.52,233.29680000000002,235.709,241.686,244.983,251.0586,253.456,258.347,264.041,269.383,275.361,280.047,282.53700000000003,285.985,291.982,297.676,300.523,304.7062,307.166,315.325,320.667,324.531,330.1086,332.465,338.159,343.501,346.7878,349.185,354.527,360.221,363.068,368.6456,371.002,376.529,379.376,383.524,389.424,394.315,397.162,400.009,404.901,409.587,413.7702,416.23,419.419,425.113,429.8938,432.284,438.164,443.506,447.654,451.802,454.649,460.059,462.906,467.6868,470.087,474.978,480.858,486.738,489.585,492.432,496.776,501.667,504.857,507.703,513.045" svgx:width="0.83,0.6,0.71,0.55,0.4,0.48,0.56,0.48,0.5,0.29,0.42,0.55,0.29,0.33,0.42,0.55,0.56,0.4,0.48,0.5,0.33,0.55,0.6,0.55,0.33,0.48,0.58,0.33,0.29,0.5,0.29,0.55,0.5,0.42,0.55,0.5,0.58,0.55,0.61,0.34,0.61,0.55,0.5,0.58,0.55,0.61,0.48,0.25,0.55,0.61,0.58,0.29,0.42,0.55,0.83,0.55,0.4,0.56,0.55,0.58,0.55,0.33,0.55,0.55,0.58,0.29,0.56,0.55,0.56,0.29,0.42,0.6,0.5,0.29,0.29,0.5,0.48,0.42,0.55,0.33,0.58,0.48,0.55,0.6,0.55,0.42,0.42,0.29,0.55,0.29,0.48,0.55,0.5,0.6,0.6,0.29,0.29,0.44,0.5,0.33,0.29,0.55,0.58" style="fill:rgb(0,0,0);font-family:URWPalladioL-Roma;font-size:9.96px;stroke:none;">HPC reveals its great potential as an LIB anode. This work not only visualizes the possible application</text>
   <text y="653.607" x="76.535,81.975,85.2618,87.793,93.302,96.201,101.641,110.438,115.419,119.643,123.8262,126.368,130.791,135.773,139.708,145.217,150.657,156.43380000000002,158.956,163.937,168.1202,170.652,175.643,181.4198,183.932,188.913,194.711,200.151,206.238,211.0188,213.511,222.308,227.289,230.537,235.309,239.244,242.143,247.125,250.0134,252.524,255.842,261.281,265.265,267.717,273.804,277.162,283.249,287.4322,289.974,295.483,301.49,304.77680000000004,307.239,312.22,315.119,319.343,324.821,327.284,333.271,337.027,342.467,348.454,353.894,358.118,362.89,367.0732,369.605,374.58500000000004,377.087,382.885,387.657,395.92379999999997,398.466,402.222,407.662,413.669,416.917,421.6978,424.19,427.507,432.947,436.931,439.383,442.631,448.429,453.2098,455.702,461.689,465.445,470.217,476.205,481.186,485.121,490.102,493.35,496.249,501.689,507.4658,509.988,515.427" svgx:width="0.55,0.33,0.55,0.55,0.29,0.55,0.88,0.5,0.42,0.42,0.55,0.44,0.5,0.4,0.55,0.55,0.58,0.55,0.5,0.42,0.55,0.5,0.58,0.55,0.5,0.58,0.55,0.61,0.48,0.55,0.88,0.5,0.33,0.48,0.4,0.29,0.5,0.29,0.55,0.33,0.55,0.4,0.55,0.61,0.34,0.61,0.42,0.55,0.55,0.6,0.33,0.55,0.5,0.29,0.42,0.55,0.55,0.6,0.4,0.55,0.6,0.55,0.42,0.48,0.42,0.55,0.5,0.55,0.58,0.48,0.83,0.55,0.4,0.55,0.6,0.33,0.48,0.55,0.33,0.55,0.4,0.55,0.33,0.58,0.48,0.55,0.6,0.4,0.48,0.6,0.5,0.4,0.5,0.33,0.29,0.55,0.58,0.55,0.55,0.33" style="fill:rgb(0,0,0);font-family:URWPalladioL-Roma;font-size:9.96px;stroke:none;">of biomass carbon as an anode material for LIBs but also proposes a new route for the preparation of</text>
   <text y="667.116" x="76.535,79.472,84.982,93.399,96.76,101.24,106.751,111.03,114.3168,116.823,121.304,126.35,130.336,135.917,141.427,147.301,150.662,156.243,161.289,165.568,170.402,176.4776,179.071,184.117,189.991,195.501,201.667,206.501,210.6842,213.293,218.339,224.213,230.2886,232.882,241.793,246.839,252.4166,254.953,261.019,264.823,270.334,279.245,284.755,288.045,292.8258,295.382,298.672,304.546,309.3268,311.893,318.059,322.894,328.596,333.43,336.367,341.877,347.942,356.854,361.688,367.561,370.8478,373.354,378.864,382.1508,384.728,390.238,393.528,399.402,404.236,408.21999999999997,410.725,416.791,422.301,426.116,431.626,437.701,441.8842,444.493,448.974,454.02,458.007,463.588,469.098,474.8748,477.474,486.386,491.432,494.722,499.556,503.542,506.479,511.525,514.462" svgx:width="0.29,0.55,0.83,0.33,0.44,0.55,0.42,0.33,0.55,0.44,0.5,0.4,0.55,0.55,0.58,0.33,0.55,0.5,0.42,0.48,0.61,0.55,0.5,0.58,0.55,0.61,0.48,0.42,0.55,0.5,0.58,0.61,0.55,0.88,0.5,0.56,0.55,0.6,0.4,0.55,0.88,0.55,0.33,0.48,0.55,0.33,0.58,0.48,0.55,0.61,0.48,0.56,0.48,0.29,0.55,0.6,0.88,0.48,0.58,0.33,0.55,0.55,0.33,0.55,0.55,0.33,0.58,0.48,0.4,0.55,0.6,0.55,0.4,0.55,0.6,0.42,0.55,0.44,0.5,0.4,0.55,0.55,0.58,0.55,0.88,0.5,0.33,0.48,0.4,0.29,0.5,0.29,0.42" style="fill:rgb(0,0,0);font-family:URWPalladioL-Roma;font-size:9.96px;stroke:none;">low-cost carbon-based anodes and may promote the development of other porous carbon materials</text>
   <text y="680.625" x="76.535,82.622,87.394,91.329,94.229,99.857,104.63,110.70559999999999,113.207,116.525,120.281,125.72,137.008,142.637,147.618,151.553,154.452,159.892,165.9,170.0832,172.614,178.124,181.023,186.462,195.259,200.241,204.465,208.6482,211.18,215.603,220.584,224.519,230.029,235.468,241.2448,243.757,247.981,253.421,259.428,263.184,267.608,272.38,276.604" svgx:width="0.61,0.48,0.4,0.29,0.56,0.48,0.61,0.55,0.33,0.4,0.55,0.88,0.56,0.5,0.4,0.29,0.55,0.6,0.42,0.55,0.55,0.29,0.55,0.88,0.5,0.42,0.42,0.55,0.44,0.5,0.4,0.55,0.55,0.58,0.55,0.42,0.55,0.6,0.4,0.44,0.48,0.42,0.25" style="fill:rgb(0,0,0);font-family:URWPalladioL-Roma;font-size:9.96px;stroke:none;">derived fromvarious biomass carbon sources.</text>
   <text y="702.713" x="76.186,83.162,88.64,91.626,97.105,102.09,105.5883,108.25,114.724,119.709,125.187,128.173,131.661,134.647,140.125,145.604,148.59,151.576,156.561,162.039,166.02" svgx:width="0.78,0.61,0.33,0.61,0.56,0.39,0.55,0.72,0.56,0.61,0.33,0.39,0.33,0.61,0.61,0.33,0.33,0.56,0.61,0.44,0.25" style="fill:rgb(0,0,0);font-family:URWPalladioL-Bold;font-size:8.97px;stroke:none;">Author Contributions:</text>
   <text y="702.713" x="172.262,179.341,183.914,186.895,191.38000000000002,194.139,198.199,203.714,207.327,211.9,214.881,217.542,222.536,227.859,230.10150000000002,232.926,235.971,238.258,246.58,248.82250000000002,251.537,256.11,261.433,266.9047,269.701,278.014,280.3,286.401,288.687,290.9295,293.864,296.909,301.903,305.515,313.591,318.164,320.76529999999997,323.496,328.069,333.391,337.964,340.626,345.711,349.589,352.25,356.128,358.3705,361.194,366.307,368.593,374.694,376.9365,379.651,382.696,387.973,392.546,397.869,405.944,408.606,413.929,418.95219999999995,421.684,427.784,433.107,437.68,442.674,445.6341,448.39,452.963,458.286,463.7577,466.544,471.647,473.934,478.735,481.022,483.2645,486.198,489.244,494.759,500.082,505.67,508.331,513.654" svgx:width="0.77,0.5,0.33,0.5,0.55,0.44,0.6,0.4,0.5,0.33,0.29,0.55,0.58,0.25,0.55,0.33,0.25,1.0,0.25,0.55,0.5,0.58,0.61,0.55,1.0,0.25,0.67,0.25,0.25,0.55,0.33,0.55,0.4,0.88,0.5,0.29,0.55,0.5,0.58,0.5,0.29,0.56,0.42,0.29,0.42,0.25,0.55,0.67,0.25,0.67,0.25,0.55,0.33,0.67,0.5,0.58,0.88,0.29,0.58,0.56,0.55,0.67,0.58,0.5,0.55,0.33,0.55,0.5,0.58,0.61,0.55,0.67,0.25,0.52,0.25,0.25,0.55,0.33,0.6,0.58,0.61,0.29,0.58,0.56" style="fill:rgb(0,0,0);font-family:URWPalladioL-Roma;font-size:8.97px;stroke:none;">Data curation, J.W. and W.Z.; formal analysis, Y.Z. (Yanming Zhao) and Y.S.; funding</text>
   <text y="712.845" x="76.535,81.108,85.169,90.29,95.805,98.466,102.344,105.006,107.987,110.649,115.642,120.965,123.20750000000001,125.666,131.766,134.052,142.375,144.662,146.9045,149.399,152.06,157.383,162.551,166.931,170.809,173.791,176.452,181.537,186.11,189.091,191.753,196.746,202.069,204.3115,206.779,209.825,212.111,220.434,222.72,224.9625,227.421,232.525,234.811,240.911,243.1535,245.585,248.63,253.907,258.48,263.803,271.879,274.54,279.863,284.8862,287.326,293.426,298.749,303.322,308.315,311.361,313.6035,316.062,320.635,325.957,331.4287,333.932,342.255,344.541,350.642,352.928,355.1705,357.666,365.741,370.122,373.104,378.426,383.42,389.008,394.002,396.663,401.657,406.742,410.83,413.0725,415.54,421.64,423.926,432.24,434.4825,436.913,441.486,446.809,452.2807,454.784,459.887,462.174,468.274,470.5165,472.938,475.984,481.261,485.834,491.0366,493.544,499.644,504.967,509.539,514.533,517.579" svgx:width="0.5,0.44,0.56,0.6,0.29,0.42,0.29,0.33,0.29,0.55,0.58,0.25,0.55,0.67,0.25,1.0,0.25,0.25,0.55,0.29,0.58,0.56,0.48,0.42,0.33,0.29,0.56,0.5,0.33,0.29,0.55,0.58,0.25,0.55,0.33,0.25,1.0,0.25,0.25,0.55,0.67,0.25,0.67,0.25,0.55,0.33,0.67,0.5,0.58,0.88,0.29,0.58,0.56,0.55,0.67,0.58,0.5,0.55,0.33,0.25,0.55,0.5,0.58,0.61,0.55,1.0,0.25,0.67,0.25,0.25,0.55,0.88,0.48,0.33,0.58,0.55,0.61,0.55,0.29,0.55,0.56,0.56,0.25,0.55,0.67,0.25,1.0,0.25,0.55,0.5,0.58,0.61,0.55,0.67,0.25,0.67,0.25,0.55,0.33,0.67,0.5,0.58,0.55,0.67,0.58,0.5,0.55,0.33,0.25" style="fill:rgb(0,0,0);font-family:URWPalladioL-Roma;font-size:8.97px;stroke:none;">acquisition, Z.W.; investigation, J.W., Y.Z. (Yanming Zhao), and W.Z.; methodology, Z.W. and Y.Z. (Yan Zhao);</text>
   <text y="722.977" x="76.266,81.671,85.061,89.972,92.076,96.384,100.377,103.33709999999999,105.548,110.045,115.54,123.481,126.098,131.332,133.949,137.762,140.694,144.246,148.743,151.675,154.292,159.202,164.436,166.6785,168.915,174.913,177.162,185.337,187.5795,189.815,194.312,199.546,205.0177,207.28,212.281,214.529,220.527,222.7695,225.015,228.01,233.181,237.678,242.8806,245.142,251.141,256.375,260.871,265.782,268.777,271.0195,273.264,276.655,280.962,284.776,289.686,295.109,298.499,302.492,306.8,310.613,312.8555,315.101,320.101,322.35,328.348,330.5905,332.836,335.831,341.002,345.498,350.733,358.674,361.291,366.525,371.54819999999995,373.764,379.763,384.997,389.494,394.404,397.3641,399.629,404.126,409.36,414.8317,417.094,422.094,424.343,429.064,431.312,433.5545,435.8,439.613,445.036,450.441,454.749,458.301,463.383,466.0,469.813,472.43,477.34,482.574,484.8165,487.062,492.062,494.311,499.032,501.2745,503.52,508.016,513.25" svgx:width="0.6,0.4,0.55,0.23,0.48,0.44,0.33,0.55,0.5,0.61,0.88,0.29,0.58,0.29,0.42,0.33,0.4,0.5,0.33,0.29,0.55,0.58,0.25,0.55,0.67,0.25,1.0,0.25,0.55,0.5,0.58,0.61,0.55,0.67,0.25,0.67,0.25,0.55,0.33,0.67,0.5,0.58,0.55,0.67,0.58,0.5,0.55,0.33,0.25,0.55,0.4,0.48,0.42,0.55,0.6,0.4,0.44,0.48,0.42,0.25,0.55,0.67,0.25,0.67,0.25,0.55,0.33,0.67,0.5,0.58,0.88,0.29,0.58,0.56,0.55,0.67,0.58,0.5,0.55,0.33,0.55,0.5,0.58,0.61,0.55,0.67,0.25,0.52,0.25,0.25,0.55,0.42,0.6,0.6,0.48,0.4,0.56,0.29,0.42,0.29,0.55,0.58,0.25,0.55,0.67,0.25,0.52,0.25,0.55,0.5,0.58,0.61" style="fill:rgb(0,0,0);font-family:URWPalladioL-Roma;font-size:8.97px;stroke:none;">project administration, Z.W. and Y.Z. (Yan Zhao); resources, Y.Z. (Yanming Zhao) and Y.S.; supervision, Y.S. and</text>
   <text y="733.109" x="76.239,81.156,83.37,89.279,91.5215,93.744,96.694,101.779,106.208,111.4106,113.614,119.523,124.679,129.108,133.945,136.895,139.13750000000002,141.369,148.757,152.256,154.834,157.722,160.3,165.456,170.382,179.24,184.077,187.576,190.154,195.08,197.658,202.814,207.243,209.8443,212.071,217.484,220.983,225.412,228.362,231.25,233.4925,235.724,241.633,243.848,251.882,254.1245,256.347,260.777,265.933,271.4047,273.595,278.512,280.727,285.378,287.592,289.8345,292.066,299.454,302.953,305.531,308.419,310.997,316.153,321.079,329.937,333.277,337.521,342.526,345.104,349.347,358.985,363.415,368.571,374.0427,376.233,380.477,385.89,388.467,391.355,393.933,399.089,404.015,406.2575,408.488,413.405,415.62,421.529,423.7715,425.993,428.943,434.028,438.458,443.66060000000004,445.864,451.772,456.928,461.358,466.195,469.145,471.3875,474.531,481.423,484.001,486.60229999999996,488.838,493.267,498.609,501.497,506.653,511.49,514.989" svgx:width="0.67,0.25,0.67,0.25,0.55,0.33,0.67,0.5,0.58,0.55,0.67,0.58,0.5,0.55,0.33,0.25,0.55,0.83,0.4,0.29,0.33,0.29,0.58,0.56,1.0,0.55,0.4,0.29,0.56,0.29,0.58,0.5,0.29,0.55,0.61,0.4,0.5,0.33,0.33,0.25,0.55,0.67,0.25,1.0,0.25,0.55,0.5,0.58,0.61,0.55,0.67,0.25,0.52,0.25,0.25,0.55,0.83,0.4,0.29,0.33,0.29,0.58,0.56,1.0,0.4,0.48,0.56,0.29,0.48,0.83,0.5,0.58,0.61,0.55,0.48,0.61,0.29,0.33,0.29,0.58,0.56,0.25,0.55,0.67,0.25,0.67,0.25,0.55,0.33,0.67,0.5,0.58,0.55,0.67,0.58,0.5,0.55,0.33,0.25,0.55,0.78,0.29,0.29,0.55,0.5,0.6,0.33,0.58,0.55,0.4,0.42" style="fill:rgb(0,0,0);font-family:URWPalladioL-Roma;font-size:8.97px;stroke:none;">Y.Z. (Yan Zhao); writing—original draft, Z.W. and Y.S.; writing—reviewand editing, Y.Z. (Yan Zhao). All authors</text>
   <text y="743.241" x="76.535,81.753,86.237,91.303,95.6086,97.839,101.22,105.514,109.998,115.4697,117.718,122.201,127.419,132.8907,135.139,139.623,144.608,147.988,152.283,156.578,162.0497,164.298,167.221,172.1545,174.358,177.282,182.5,186.8056,189.036,194.425,199.832,204.79,207.4,210.009,213.811,219.029,223.324,228.7957,231.044,236.11,240.405,243.947,247.748,250.358,255.253,260.4556,262.713,267.609,270.5691,272.836,275.76,280.978,285.28360000000004,287.514,295.432,299.915,305.133,310.54,314.342,318.323,321.865,324.474,329.863,332.786" svgx:width="0.58,0.5,0.56,0.48,0.55,0.4,0.48,0.5,0.61,0.55,0.5,0.58,0.61,0.55,0.5,0.56,0.4,0.48,0.48,0.61,0.55,0.33,0.55,0.55,0.33,0.58,0.48,0.55,0.6,0.6,0.55,0.29,0.29,0.42,0.58,0.48,0.61,0.55,0.56,0.48,0.4,0.42,0.29,0.55,0.58,0.55,0.55,0.33,0.55,0.33,0.58,0.48,0.55,0.88,0.5,0.58,0.6,0.42,0.44,0.4,0.29,0.6,0.33,0.25" style="fill:rgb(0,0,0);font-family:URWPalladioL-Roma;font-size:8.97px;stroke:none;">have read and agreed to the published version of the manuscript.</text>
   <text y="759.35" x="76.535,81.52,86.999,92.477,97.956,100.942,106.42,111.405" svgx:width="0.56,0.61,0.61,0.61,0.33,0.61,0.56,0.25" style="fill:rgb(0,0,0);font-family:URWPalladioL-Bold;font-size:8.97px;stroke:none;">Funding:</text>
   <text y="759.35" x="116.545,121.931,127.046,131.35160000000002,133.012,137.406,142.704,145.569,150.683,155.481,158.951,162.7184,164.443,171.772,176.57,181.868,184.425,189.8967,191.551,194.108,196.666,201.551,205.8566,207.518,210.382,215.31550000000001,216.946,221.34,225.241,230.127,235.241,240.039,247.367,249.924,254.133,259.502,264.388,268.6936,270.354,273.219,278.333,282.63860000000005,284.299,289.615,294.729,299.123,304.237,308.138,310.695,315.089,317.6903,319.412,323.138,328.436,333.709,338.99,343.788,347.258,350.2181,351.889,354.815,358.119,362.917,372.442,378.822,383.031,388.0542,389.674,394.981,398.294,403.091,405.148,409.357,413.258,416.2181,417.88,422.678,425.6381,427.361,431.975,435.876,438.433,442.642,447.756,451.658,455.96360000000004,457.633,462.026,467.14,472.6117,474.267,478.827,483.036,486.938,492.052,497.166,501.964,504.521,509.318,514.204" svgx:width="0.61,0.58,0.48,0.55,0.5,0.6,0.33,0.58,0.55,0.4,0.42,0.55,0.83,0.55,0.6,0.29,0.61,0.55,0.29,0.29,0.56,0.48,0.55,0.33,0.55,0.55,0.5,0.44,0.56,0.58,0.55,0.83,0.29,0.48,0.61,0.56,0.48,0.55,0.33,0.58,0.48,0.55,0.61,0.58,0.5,0.58,0.44,0.29,0.5,0.29,0.55,0.42,0.6,0.6,0.6,0.55,0.4,0.33,0.55,0.33,0.4,0.55,0.88,0.73,0.48,0.56,0.55,0.6,0.4,0.55,0.23,0.48,0.44,0.33,0.55,0.55,0.33,0.55,0.52,0.44,0.29,0.48,0.58,0.44,0.48,0.55,0.5,0.58,0.61,0.55,0.61,0.48,0.44,0.58,0.58,0.55,0.29,0.55,0.56,0.56" style="fill:rgb(0,0,0);font-family:URWPalladioL-Roma;font-size:8.97px;stroke:none;">The authors would like to acknowledge the ﬁnancial support fromKey Project of Science and Technology</text>
   <text y="769.482" x="76.535,82.525,86.819,90.621,94.916,99.399,102.78,106.761,111.9636,114.221,119.116,122.0761,124.344,131.804,134.413,139.398,144.617,148.912,152.5,154.695,160.174,165.652,171.059,175.04,179.523,182.446,185.055,189.951,195.15359999999998,197.411,200.433,205.651,209.453,212.376,214.985,217.908,223.315,226.238,228.847,233.743,238.961,242.72840000000002,245.005,249.9,252.86010000000002,255.128,262.588,266.883,271.841,276.136,278.7373,280.987,286.403,289.783,294.679,299.745,302.354,307.572,311.553,315.848,318.0905,320.331,326.689,331.907,334.516,339.735,344.22,346.46,349.445,355.426,362.366,366.849,371.332,375.816,380.299,384.782,389.265,393.748,396.734" svgx:width="0.67,0.48,0.42,0.48,0.5,0.4,0.44,0.58,0.55,0.55,0.33,0.55,0.83,0.29,0.56,0.58,0.48,0.4,0.55,0.61,0.61,0.6,0.44,0.5,0.33,0.29,0.55,0.58,0.55,0.34,0.58,0.42,0.33,0.29,0.33,0.6,0.33,0.29,0.55,0.58,0.42,0.55,0.55,0.33,0.55,0.83,0.48,0.55,0.48,0.29,0.55,0.6,0.4,0.55,0.56,0.29,0.58,0.44,0.48,0.25,0.55,0.71,0.58,0.29,0.58,0.5,0.55,0.33,0.67,0.77,0.5,0.5,0.5,0.5,0.5,0.5,0.5,0.33,0.25" style="fill:rgb(0,0,0);font-family:URWPalladioL-Roma;font-size:8.97px;stroke:none;">Research of Higher Education Institutions of Hebei Province, China (ZD2018059).</text>
  </g>
 </g>
</svg>
