<?xml version="1.0" encoding="UTF-8"?>
<svg height="766.621" width="530.4350000000001" xmlns="http://www.w3.org/2000/svg">
 <g id="page" xmlns:svgx="http://www.xml-cml.org/schema/svgx">
  <g begin="text">
   <text y="62.979" x="76.535,82.736,86.274,90.706,94.245,100.445,103.984,106.638,109.738,112.839,115.055,118.593,120.809" svgx:width="0.78,0.44,0.56,0.44,0.78,0.44,0.33,0.39,0.39,0.28,0.44,0.28,0.39" style="fill:rgb(0,0,0);font-family:URWPalladioL-Ital;font-size:7.97px;stroke:none;">Nanomaterials</text>
   <text y="62.979" x="125.901,129.886,133.871,137.856" svgx:width="0.5,0.5,0.5,0.5" style="fill:rgb(0,0,0);font-family:URWPalladioL-Bold;font-size:7.97px;stroke:none;">2020</text>
   <text y="62.979" x="141.842" svgx:width="0.25" style="fill:rgb(0,0,0);font-family:URWPalladioL-Roma;font-size:7.97px;stroke:none;">,</text>
   <text y="62.979" x="145.827,149.812" svgx:width="0.5,0.5" style="fill:rgb(0,0,0);font-family:URWPalladioL-Ital;font-size:7.97px;stroke:none;">10</text>
   <text y="62.979" x="153.797,155.7895,157.782,161.767,165.752,169.73700000000002,495.794,499.779,501.772,506.123,508.7531,510.77,514.755" svgx:width="0.25,0.55,0.5,0.5,0.5,0.55,0.5,0.55,0.55,0.33,0.55,0.5,0.5" style="fill:rgb(0,0,0);font-family:URWPalladioL-Roma;font-size:7.97px;stroke:none;">, 346 3 of 11</text>
   <text y="97.848" x="76.535,81.516,84.007,88.988,91.478,94.966,101.611,106.592,111.016,114.891,119.314,123.369,126.687,130.562,134.438,137.207,141.631,146.054,149.372,152.141,156.565" svgx:width="0.5,0.25,0.5,0.25,0.55,0.67,0.5,0.44,0.39,0.44,0.41,0.33,0.39,0.39,0.28,0.44,0.44,0.33,0.28,0.44,0.56" style="fill:rgb(0,0,0);font-family:URWPalladioL-Ital;font-size:9.96px;stroke:none;">2.2. Characterization</text>
   <text y="117.335" x="97.795,103.78,109.462,114.2428,116.55,122.418,128.1,132.982,137.122,141.9028,144.21,149.541,152.8278,155.203,160.085,164.225,167.476,173.344,177.015,181.691,187.559,192.441,196.122,200.798,206.8736,209.175,213.315,218.197,226.818,232.685,235.527,240.203,244.3862,246.745,254.887,259.769,263.9522,266.32,271.202,276.884,281.766,284.607,290.035,294.917,299.594,305.6696,307.971,313.37,318.9476,321.21,327.722,330.973,334.83,339.711,345.28860000000003,347.551,353.517" svgx:width="0.61,0.58,0.48,0.55,0.6,0.58,0.5,0.42,0.48,0.55,0.55,0.33,0.55,0.5,0.42,0.33,0.6,0.4,0.48,0.6,0.5,0.4,0.48,0.61,0.55,0.42,0.5,0.88,0.6,0.29,0.48,0.42,0.55,0.83,0.5,0.42,0.55,0.5,0.58,0.5,0.29,0.56,0.5,0.48,0.61,0.55,0.55,0.56,0.55,0.67,0.33,0.4,0.5,0.56,0.55,0.61,0.29" style="fill:rgb(0,0,0);font-family:URWPalladioL-Roma;font-size:9.96px;stroke:none;">The phase of as-prepared samples was analyzed by X-ray di</text>
   <text y="117.335" x="356.356" svgx:width="0.61" style="fill:rgb(0,0,0);font-family:Rpxr;font-size:9.96px;stroke:none;">ﬀ</text>
   <text y="117.335" x="362.292,366.149,371.03,375.365,378.548,381.389,386.72,392.4968,394.814,398.065,404.577,411.099,418.656,421.146,423.508,430.03,432.871,438.3,443.181,448.61,454.497,457.748,463.733,469.718,476.24,479.53,482.821,486.111,488.601,490.953,496.03,501.361,506.79,512.218,517.549" svgx:width="0.4,0.5,0.44,0.33,0.29,0.55,0.58,0.55,0.33,0.67,0.67,0.77,0.25,0.55,0.67,0.29,0.56,0.5,0.56,0.6,0.33,0.61,0.61,0.67,0.34,0.34,0.34,0.25,0.55,0.61,0.55,0.56,0.56,0.55,0.25" style="fill:rgb(0,0,0);font-family:URWPalladioL-Roma;font-size:9.96px;stroke:none;">raction (XRD, Rigaku-TTRIII, Tokyo,</text>
   <text y="130.845" x="76.366,79.75,84.831,90.938,96.019,101.933,105.2198,108.528,114.656,118.964,121.922,127.836,133.4136,136.697,143.902,149.878,153.24" svgx:width="0.33,0.5,0.6,0.5,0.58,0.33,0.55,0.6,0.42,0.29,0.58,0.56,0.55,0.71,0.6,0.55,0.73" style="fill:rgb(0,0,0);font-family:URWPalladioL-Roma;font-size:9.96px;stroke:none;">Japan) using Cu K</text>
   <text y="130.845" x="160.621" svgx:width="0.66" style="fill:rgb(0,0,0);font-family:EURM10;font-size:9.96px;stroke:none;">α</text>
   <text y="130.845" x="170.394,174.408,179.489,185.698,188.655,193.736,197.049,200.006,205.554,211.468,213.958,219.659,225.888,231.802,236.5828,239.881,246.669,251.75,260.723,265.804,271.58079999999995,274.929,279.238,285.345,290.212,294.724,298.037,302.051,307.031,310.353,318.828,323.909,328.0922,331.429,334.386,340.595,345.462,351.377,354.689,357.646,363.794,368.662,374.7376,378.082,383.63,389.4068,392.756,397.736,401.048,407.257,412.338,417.81600000000003,421.168,427.956,435.862,445.324,448.686,457.141,463.929,469.01,474.091,479.071,482.383,485.767,494.222,499.77,503.784,506.741,512.361,517.442" svgx:width="0.4,0.5,0.61,0.29,0.5,0.33,0.29,0.55,0.58,0.25,0.55,0.61,0.58,0.48,0.55,0.67,0.5,0.88,0.5,0.58,0.55,0.42,0.6,0.48,0.44,0.33,0.4,0.5,0.55,0.83,0.5,0.42,0.55,0.29,0.61,0.48,0.58,0.33,0.29,0.61,0.48,0.61,0.55,0.55,0.58,0.55,0.5,0.55,0.61,0.5,0.55,0.55,0.67,0.78,0.95,0.55,0.83,0.67,0.5,0.5,0.5,0.55,0.33,0.83,0.55,0.4,0.29,0.55,0.5,0.25" style="fill:rgb(0,0,0);font-family:URWPalladioL-Roma;font-size:9.96px;stroke:none;">radiation. The Raman spectra was identiﬁed on a Lab RAM HR800 (Horiba,</text>
   <text y="144.354" x="76.535,83.71,89.205,94.601,97.823,103.219,105.70899999999999,108.19,111.481,116.422,122.362,127.303,133.055,136.3418,138.847,147.089,149.965,153.187,158.96380000000002,161.439,166.41899999999998,168.881,173.822,178.764,183.705,186.996,192.748,203.975,206.851,211.792,215.983,220.717,223.879,226.369,229.868,235.057,239.445,244.386,250.138,255.89,258.766,264.518,270.0956,272.513,277.247,280.113,284.847,289.235,292.457,296.182,301.579,307.3558,309.831,318.557,321.433,325.821,329.547,334.943,339.134,343.522,348.918,354.857,360.43460000000005,362.852,366.143,371.332,377.37,386.72,389.21000000000004,391.691,399.913,402.789,406.011,410.953,415.341,421.092,423.9804,426.469,431.657,434.948,439.89,444.831,449.772,454.714,457.204,459.685,464.824,470.22,475.715,481.21,486.606,489.096,491.577,494.868,499.81,505.749,510.691,516.443" svgx:width="0.73,0.56,0.55,0.33,0.55,0.25,0.55,0.33,0.5,0.6,0.5,0.58,0.33,0.55,0.83,0.29,0.33,0.58,0.55,0.5,0.55,0.5,0.5,0.5,0.33,0.58,0.88,0.29,0.5,0.42,0.48,0.4,0.25,0.55,0.52,0.44,0.5,0.58,0.58,0.29,0.58,0.56,0.55,0.48,0.29,0.48,0.44,0.33,0.4,0.55,0.58,0.55,0.88,0.29,0.44,0.4,0.55,0.42,0.44,0.55,0.6,0.56,0.55,0.33,0.52,0.61,0.95,0.25,0.55,0.83,0.29,0.33,0.5,0.44,0.58,0.29,0.55,0.52,0.33,0.5,0.5,0.5,0.5,0.25,0.55,0.61,0.55,0.56,0.56,0.55,0.25,0.55,0.33,0.5,0.6,0.5,0.58,0.33" style="fill:rgb(0,0,0);font-family:URWPalladioL-Roma;font-size:9.96px;stroke:none;">Kyoto, Japan) with a 632-nmlaser. Scanning electron microscopy (SEM, Hitachi S-4800, Tokyo, Japan)</text>
   <text y="157.864" x="76.535,81.616,87.53,93.6056,97.336,100.649,104.663,109.744,115.658,119.967,128.94,131.897,136.205,140.514,143.471,149.019,154.7958,158.541,163.409,166.366,171.233,175.745,179.058,182.889,188.437,194.21380000000002,197.949,206.922,209.879,214.391,218.232,223.78,228.089,232.601,238.149,244.256,249.8336,253.504,256.888,263.117,269.326,278.939,281.42900000000003,285.076,288.46,294.669,304.131,307.88,312.961,318.042,323.122,328.214,330.704,334.626,339.94,345.489,351.139,356.789,362.337,364.827,368.759,372.143,377.224,383.331,388.412,394.327,397.6138,401.308,409.783,414.65,418.481,423.2618,426.956,433.084,437.393,442.26,448.3356,452.066,455.379,460.857,464.525,469.037,474.951,480.032,484.046,489.127,493.638,496.951,501.819,505.833,508.79,513.871" svgx:width="0.5,0.58,0.61,0.55,0.33,0.4,0.5,0.58,0.42,0.88,0.29,0.42,0.42,0.29,0.55,0.58,0.55,0.48,0.29,0.48,0.44,0.33,0.4,0.55,0.58,0.55,0.88,0.29,0.44,0.4,0.55,0.42,0.44,0.55,0.6,0.56,0.55,0.33,0.61,0.61,0.95,0.25,0.55,0.33,0.61,0.95,0.55,0.5,0.5,0.5,0.5,0.25,0.55,0.61,0.55,0.56,0.56,0.55,0.25,0.55,0.33,0.5,0.6,0.5,0.58,0.33,0.55,0.83,0.48,0.4,0.48,0.55,0.6,0.42,0.48,0.61,0.55,0.33,0.55,0.55,0.44,0.58,0.5,0.4,0.5,0.44,0.33,0.48,0.4,0.29,0.5,0.48" style="fill:rgb(0,0,0);font-family:URWPalladioL-Roma;font-size:9.96px;stroke:none;">and transmission electron microscopy (TEM, JEM 2100, Tokyo, Japan) were used to characterize</text>
   <text y="171.373" x="76.535,79.848,85.762,90.5428,93.587,102.56,105.517,110.028,113.859,119.408,123.716,127.029,130.972,137.1,141.611,144.924,151.052,154.883,159.6638,162.707,167.788,173.703,179.7786,182.869,191.842,197.39,201.404,207.511,213.425,218.974,221.931,227.479,233.129,238.70659999999998,241.736,247.285,250.5718,253.626,256.938,262.853,267.6338,270.677,274.986,280.067,289.04,295.147,298.104,302.971,305.461,310.41,318.854,321.812,325.124,328.955,334.504,340.154,345.021,350.7978,353.892,358.973,365.182,369.491,375.039,379.053,385.16,388.473,391.43,396.979,402.893,406.277,412.486,417.353,421.662,427.21,431.224,437.331,440.644,443.601,449.15,454.92679999999996,458.021,460.978,465.287,470.835,474.148,480.062,484.93,488.943,497.70779999999996,500.873,509.348,514.429" svgx:width="0.33,0.58,0.48,0.55,0.88,0.29,0.44,0.4,0.55,0.42,0.33,0.4,0.6,0.44,0.33,0.6,0.4,0.48,0.55,0.5,0.58,0.61,0.55,0.88,0.55,0.4,0.6,0.58,0.55,0.29,0.55,0.56,0.56,0.55,0.55,0.33,0.55,0.33,0.58,0.48,0.55,0.42,0.5,0.88,0.6,0.29,0.48,0.25,0.55,0.83,0.29,0.33,0.4,0.55,0.56,0.48,0.58,0.55,0.5,0.61,0.42,0.55,0.4,0.6,0.33,0.29,0.55,0.58,0.33,0.61,0.48,0.42,0.55,0.4,0.6,0.33,0.29,0.55,0.58,0.55,0.29,0.42,0.55,0.33,0.58,0.48,0.4,0.88,0.55,0.83,0.5,0.42" style="fill:rgb(0,0,0);font-family:URWPalladioL-Roma;font-size:9.96px;stroke:none;">the microstructure and morphology of the sample. Nitrogen adsorption-desorption isotherm was</text>
   <text y="184.882" x="76.236,82.343,87.211,91.225,94.609,100.157,104.171,113.144,118.011,124.08659999999999,128.072,133.62,139.3968,143.375,149.981,153.364,158.699,164.248,168.252,173.73000000000002,177.722,182.803,187.884,192.965,198.046,204.022,208.025,211.409,214.793,217.75,223.664,228.745,231.702,237.809,243.937,246.42700000000002,250.664,256.873,261.741,264.698,267.076,270.033,275.947,281.597,284.087,288.324,295.529,301.443,304.4,310.314,315.395,318.779,321.269,328.88,335.109,341.023,345.8038,349.732,354.041,360.148,365.015,369.527,372.484,378.632,383.0144,386.996,391.304,397.432,401.446,404.83,409.911,414.422,419.2028,423.131,431.606,436.687,440.8702,444.847,449.928,455.842,460.923,463.88,469.53,474.611,479.479,485.5546,489.529,495.148,500.72560000000004,504.65,507.962,513.877" svgx:width="0.6,0.48,0.4,0.33,0.55,0.4,0.88,0.48,0.61,0.55,0.55,0.58,0.55,0.72,0.33,0.52,0.55,0.4,0.55,0.55,0.5,0.5,0.5,0.5,0.6,0.55,0.33,0.33,0.29,0.58,0.5,0.29,0.6,0.6,0.25,0.55,0.61,0.48,0.29,0.23,0.29,0.58,0.56,0.25,0.55,0.71,0.58,0.29,0.58,0.5,0.33,0.25,0.55,0.61,0.58,0.48,0.55,0.42,0.6,0.48,0.44,0.29,0.61,0.44,0.55,0.42,0.6,0.4,0.33,0.5,0.44,0.48,0.55,0.83,0.5,0.42,0.55,0.5,0.58,0.5,0.29,0.56,0.5,0.48,0.61,0.55,0.55,0.56,0.55,0.33,0.58,0.48" style="fill:rgb(0,0,0);font-family:URWPalladioL-Roma;font-size:9.96px;stroke:none;">performed on V-Sorb 2800P (Jinaipu, Beijing, China). The speciﬁc surface was analyzed by the</text>
   <text y="198.392" x="76.535,82.5,86.279,92.166,97.848,102.73,108.617,113.294,116.965,121.847,127.812,136.433,145.054,149.731,152.914,156.097,160.978,166.055,170.732,173.573,176.414,181.091,185.07500000000002,186.998,190.249,196.214,202.18,208.164,211.4508,213.466,222.087,226.764,229.946,235.629,240.96,246.925,249.41500000000002,251.504,256.386,262.068,268.1436,270.084,273.266,278.949,283.7298,285.676,291.641,296.523,300.379,304.06,308.737,311.92,315.102,319.984,323.235,328.566,333.995,339.677,344.353,348.034,352.916,361.039,365.921,368.762,373.438,379.121,385.086,390.06600000000003,392.018,395.269,401.235,404.486,412.609,415.8958,417.91,426.532,431.208,434.391,440.073,445.404,451.4796,453.42,461.562,466.444,470.6272,472.634,478.502,483.178,487.035,490.286,495.617,499.473,508.095,512.771" svgx:width="0.61,0.4,0.6,0.58,0.5,0.6,0.48,0.4,0.5,0.61,0.88,0.88,0.48,0.33,0.33,0.5,0.61,0.48,0.29,0.29,0.48,0.4,0.55,0.33,0.61,0.61,0.61,0.33,0.55,0.88,0.48,0.33,0.58,0.55,0.61,0.25,0.55,0.5,0.58,0.61,0.55,0.33,0.58,0.48,0.55,0.61,0.5,0.4,0.4,0.48,0.33,0.33,0.5,0.33,0.55,0.56,0.58,0.48,0.4,0.5,0.83,0.5,0.29,0.48,0.58,0.61,0.5,0.55,0.33,0.61,0.33,0.83,0.33,0.55,0.88,0.48,0.33,0.58,0.55,0.61,0.55,0.83,0.5,0.42,0.55,0.6,0.48,0.4,0.33,0.55,0.4,0.88,0.48,0.61" style="fill:rgb(0,0,0);font-family:URWPalladioL-Roma;font-size:9.96px;stroke:none;">Brunauer–Emmett–Teller (BET) method, and the Barrett–Joyner–Halenda (BJH) method was performed</text>
   <text y="211.901" x="76.535,79.783,85.261,87.713,93.153,98.662,101.91,106.891,109.79,115.5668,118.079,124.067,129.506,133.262,138.0428,140.525,144.749,147.648,152.629,157.4098,159.892,165.979,168.878,173.102,176.35,180.285,183.185,188.694,194.701,197.949,200.848,206.288,212.086,216.31" svgx:width="0.33,0.55,0.55,0.55,0.55,0.33,0.5,0.29,0.58,0.55,0.6,0.55,0.4,0.48,0.55,0.42,0.29,0.5,0.48,0.55,0.61,0.29,0.42,0.33,0.4,0.29,0.55,0.6,0.33,0.29,0.55,0.58,0.42,0.25" style="fill:rgb(0,0,0);font-family:URWPalladioL-Roma;font-size:9.96px;stroke:none;">to obtain pore size distributions.</text>
   <text y="235.114" x="76.535,81.516,84.007,88.988,91.478,94.966,101.053,103.823,107.698,111.753,115.07,118.766,123.19,127.245,132.226,136.101,143.852,146.622,150.677,155.1,157.8888,160.36,169.765,173.64,178.064,181.939,187.479,191.175,195.05,202.801,206.676,212.216,215.533" svgx:width="0.5,0.25,0.5,0.25,0.55,0.61,0.28,0.39,0.41,0.33,0.39,0.44,0.41,0.5,0.39,0.78,0.28,0.41,0.44,0.28,0.55,0.94,0.39,0.44,0.39,0.56,0.39,0.39,0.78,0.39,0.56,0.33,0.39" style="fill:rgb(0,0,0);font-family:URWPalladioL-Ital;font-size:9.96px;stroke:none;">2.3. Electrochemical Measurements</text>
   <text y="254.601" x="97.795,103.13,107.997,113.739,118.606,124.521,127.833,133.4106,136.136,142.243,147.11,150.941,155.453,160.321,166.235,169.5218,172.2,177.748,181.0348,183.785,187.097,193.012,197.7928,200.531,208.986,215.124,222.19559999999998,224.981,233.954,239.035,242.347,247.215,251.229,254.186,259.267,262.224,266.533,269.023,271.766,276.847,281.928,290.2944,293.116,298.664,301.9508,304.7,308.013,313.927,318.7078,321.447,328.825,333.692,337.005,339.383,344.25,350.0268,352.817,358.426,361.383,366.464,370.976,376.626,379.116,381.859,386.94,392.855,398.9306,401.716,406.797,411.878,420.2444,423.066,428.614,431.9008,434.65,437.963,443.877,448.6578,451.397,455.909,460.99,465.004,470.623,476.172,481.415,487.065,496.038,500.906,504.218,510.133,515.783" svgx:width="0.52,0.48,0.56,0.48,0.58,0.33,0.56,0.55,0.6,0.48,0.4,0.44,0.48,0.58,0.33,0.55,0.55,0.33,0.55,0.33,0.58,0.48,0.55,0.83,0.6,0.71,0.55,0.88,0.5,0.33,0.48,0.4,0.29,0.5,0.29,0.42,0.25,0.55,0.5,0.5,0.84,0.55,0.55,0.33,0.55,0.33,0.58,0.48,0.55,0.73,0.48,0.33,0.23,0.48,0.58,0.55,0.55,0.29,0.5,0.44,0.56,0.25,0.55,0.5,0.58,0.61,0.55,0.5,0.5,0.84,0.55,0.55,0.33,0.55,0.33,0.58,0.48,0.55,0.44,0.5,0.4,0.55,0.55,0.52,0.56,0.88,0.48,0.33,0.58,0.56,0.29" style="fill:rgb(0,0,0);font-family:URWPalladioL-Roma;font-size:9.96px;stroke:none;">Seventy percent of the HPC materials, 20% of the Ketjen black, and 10% of the carboxymethyl</text>
   <text y="268.111" x="76.535,81.047,85.914,88.871,91.829,97.956,100.913,106.462,110.77,115.5508,118.636,122.019,129.224,138.837,146.042,149.3288,152.424,158.043,161.0,166.915,173.123,177.991,181.97500000000002,184.992,193.467,198.548,202.7312,205.855,214.828,217.785,223.028,227.896,233.9716,237.102,240.06,245.8368,248.971,256.837,260.261,263.645,272.12,277.201,280.514,285.381,289.36499999999995,292.393,295.706,301.184,304.252,307.636,313.184,317.198,325.96279999999996,329.159,333.467,336.424,342.552,346.566,350.58,355.132,357.622,362.672,368.902,374.816,379.683,385.598,388.088,391.258,394.57,400.485,405.2658,408.35,413.431,419.345,424.893,431.102,435.8828,438.968,447.443,452.523,456.7062,459.83,463.214,468.295,473.914,477.928,480.885,485.397,490.478,493.791,498.658,504.7336,507.855,513.474" svgx:width="0.44,0.48,0.29,0.29,0.6,0.29,0.55,0.42,0.48,0.55,0.33,0.71,0.95,0.71,0.33,0.55,0.55,0.29,0.58,0.61,0.48,0.4,0.55,0.83,0.5,0.42,0.55,0.88,0.29,0.52,0.48,0.61,0.55,0.29,0.58,0.55,0.77,0.34,0.33,0.83,0.5,0.33,0.48,0.4,0.55,0.33,0.55,0.55,0.33,0.55,0.4,0.88,0.55,0.42,0.29,0.6,0.4,0.4,0.56,0.25,0.55,0.61,0.58,0.48,0.58,0.25,0.55,0.33,0.58,0.48,0.55,0.5,0.58,0.55,0.61,0.48,0.55,0.83,0.5,0.42,0.55,0.33,0.5,0.55,0.4,0.29,0.44,0.5,0.33,0.48,0.61,0.55,0.55,0.56" style="fill:rgb(0,0,0);font-family:URWPalladioL-Roma;font-size:9.96px;stroke:none;">cellulose (CMC) binder was mixed in DI-water to form slurry. Then, the anode was fabricated by</text>
   <text y="281.62" x="76.236,82.343,87.424,90.381,96.296,99.608,102.565,108.48,114.05760000000001,117.351,120.664,126.578,131.3588,134.667,138.975,141.932,148.05,152.064,156.078,161.6556,164.949,170.497,176.27380000000002,179.633,186.838,192.814,196.187,199.57,205.119,208.076,210.96439999999998,214.254,219.335,225.239,231.3146,234.669,243.144,248.225,252.4082,255.755,261.964,265.978,268.935,273.803,279.8786,283.233,288.314,291.60080000000005,294.848,299.929" svgx:width="0.6,0.5,0.29,0.58,0.33,0.29,0.58,0.56,0.55,0.33,0.58,0.48,0.55,0.42,0.29,0.6,0.4,0.4,0.56,0.55,0.55,0.58,0.55,0.71,0.6,0.55,0.33,0.55,0.29,0.29,0.55,0.5,0.58,0.61,0.55,0.83,0.5,0.42,0.55,0.61,0.4,0.29,0.48,0.61,0.55,0.5,0.33,0.55,0.5,0.5" style="fill:rgb(0,0,0);font-family:URWPalladioL-Roma;font-size:9.96px;stroke:none;">painting the slurry on Cu foil and was dried at 60</text>
   <text y="278.003" x="308.224" svgx:width="0.52" style="fill:rgb(0,0,0);font-family:Pxsy;font-size:7.57px;stroke:none;">◦</text>
   <text y="281.62" x="312.682,319.7536,323.108,326.492,332.04,336.024,339.265,344.346,349.326,352.649,358.563,361.053,366.774,373.003,378.917,383.6978,387.006,395.46,401.598,408.6696,412.024,417.105,423.019,428.568,434.777,439.644,442.134,445.579,448.536,451.493,454.806,460.72,463.677,469.805,478.5698,481.999,486.511,491.592,494.904,500.818,506.367,512.576,517.443" svgx:width="0.71,0.55,0.33,0.55,0.4,0.55,0.5,0.5,0.55,0.58,0.25,0.55,0.61,0.58,0.48,0.55,0.83,0.6,0.71,0.55,0.5,0.58,0.55,0.61,0.48,0.25,0.55,0.29,0.29,0.33,0.58,0.29,0.6,0.88,0.55,0.44,0.5,0.33,0.58,0.55,0.61,0.48,0.25" style="fill:rgb(0,0,0);font-family:URWPalladioL-Roma;font-size:9.96px;stroke:none;">C for 10 h. The HPC anode, lithium cathode,</text>
   <text y="295.129" x="76.535,81.003,85.822,88.751,94.345,99.376,103.17,109.2456,111.813,116.844,121.875,126.907,131.887,134.443,138.71,143.529,149.577,154.608,158.582,163.614,166.894,172.388,175.618,178.108,180.639,185.67,191.526,197.60160000000002,200.17,203.45,209.306,214.0868,216.621,221.441,224.369,229.189,233.657,236.937,240.74,246.234,249.163,254.757,258.037,262.8178,265.353,268.703,273.683,276.23,288.244,294.392,297.32,303.398" svgx:width="0.44,0.48,0.29,0.56,0.5,0.4,0.61,0.55,0.5,0.5,0.5,0.5,0.55,0.42,0.48,0.6,0.5,0.4,0.5,0.33,0.55,0.4,0.25,0.55,0.5,0.58,0.61,0.55,0.33,0.58,0.48,0.55,0.48,0.29,0.48,0.44,0.33,0.4,0.55,0.29,0.56,0.33,0.48,0.55,0.33,0.5,0.55,0.95,0.61,0.29,0.6,0.56" style="fill:rgb(0,0,0);font-family:URWPalladioL-Roma;font-size:9.96px;stroke:none;">celgard 2400 separator, and the electrolyte (1 MLiPF</text>
   <text y="296.994" x="308.996" svgx:width="0.5" style="fill:rgb(0,0,0);font-family:URWPalladioL-Roma;font-size:7.57px;stroke:none;">6</text>
   <text y="295.129" x="315.778,318.706,324.4828,327.058,332.038,334.594,343.479,346.407,351.6,356.409,362.4846,365.063,369.329,374.823,377.751,383.819,387.099,390.027,395.521,401.2978,403.873,409.367,412.65380000000005,415.213,420.033,423.313,429.169,434.764,437.692,442.512,448.368,453.1488,455.683,460.151,465.182,469.156,474.721,480.215,486.071,491.102,494.382,499.1628,501.708,506.739,512.595" svgx:width="0.29,0.58,0.55,0.5,0.55,0.88,0.29,0.52,0.48,0.61,0.55,0.42,0.55,0.29,0.6,0.33,0.29,0.55,0.58,0.55,0.55,0.33,0.55,0.48,0.33,0.58,0.56,0.29,0.48,0.58,0.48,0.55,0.44,0.5,0.4,0.55,0.55,0.58,0.5,0.33,0.48,0.55,0.5,0.58,0.61" style="fill:rgb(0,0,0);font-family:URWPalladioL-Roma;font-size:9.96px;stroke:none;">in a mixed solution of ethylene carbonate and</text>
   <text y="308.639" x="76.535,82.744,85.701,90.569,93.881,99.795,105.445,108.3334,111.4,115.912,120.993,125.007,130.627,136.175,142.089,147.17,150.483,155.35,157.84,161.0,167.209" svgx:width="0.61,0.29,0.48,0.33,0.58,0.56,0.29,0.55,0.44,0.5,0.4,0.55,0.55,0.58,0.5,0.33,0.48,0.25,0.55,0.61,0.71" style="fill:rgb(0,0,0);font-family:URWPalladioL-Roma;font-size:9.96px;stroke:none;">diethyl carbonate, EC</text>
   <text y="308.639" x="174.418" svgx:width="0.29" style="fill:rgb(0,0,0);font-family:Rpxr;font-size:9.96px;stroke:none;">/</text>
   <text y="308.639" x="177.335,185.2,191.409" svgx:width="0.77,0.61,0.71" style="fill:rgb(0,0,0);font-family:URWPalladioL-Roma;font-size:9.96px;stroke:none;">DEC</text>
   <text y="308.639" x="201.606" svgx:width="0.67" style="fill:rgb(0,0,0);font-family:Rpxr;font-size:9.96px;stroke:none;">=</text>
   <text y="308.639" x="211.398,216.479,219.019,223.999,227.098,232.718,238.29559999999998,241.355,247.097,252.645,255.602,261.73,270.703,275.57,278.8568,281.952,290.427,295.294,299.125,303.9058,306.98,311.848,317.762,322.274,327.355,333.462,337.771,343.898,346.855,351.936,355.249,360.117,366.1926,369.323,372.28,378.195,381.507,386.985,390.053,395.134,400.215,405.296,410.276,413.365,417.877,423.425,426.382,432.1588,435.294,439.806,444.673,447.631,450.588,454.7712,457.884,460.841,466.6178,469.753,474.733,477.821,483.471,486.428,491.977,497.718,502.586,508.205,513.754" svgx:width="0.5,0.25,0.5,0.55,0.55,0.56,0.55,0.56,0.55,0.29,0.6,0.88,0.48,0.33,0.55,0.83,0.48,0.4,0.48,0.55,0.48,0.58,0.44,0.5,0.6,0.42,0.6,0.29,0.5,0.33,0.48,0.61,0.55,0.29,0.58,0.33,0.55,0.55,0.5,0.5,0.5,0.5,0.55,0.44,0.55,0.29,0.58,0.55,0.44,0.48,0.29,0.29,0.42,0.55,0.29,0.58,0.55,0.5,0.55,0.56,0.29,0.55,0.56,0.48,0.55,0.55,0.52" style="fill:rgb(0,0,0);font-family:URWPalladioL-Roma;font-size:9.96px;stroke:none;">1:1 by volume) were encapsulated into 2025 coin cells in a glovebox</text>
   <text y="322.148" x="76.535,82.663,88.577,94.786,99.653,103.637,106.97,112.051,117.8278,121.267,129.173,133.157,136.48,141.561,144.873,153.846,159.395,163.703,169.811,175.725,180.592,184.434,189.2148,192.604,195.988" svgx:width="0.6,0.58,0.61,0.48,0.4,0.55,0.5,0.58,0.55,0.78,0.4,0.55,0.5,0.33,0.88,0.55,0.42,0.6,0.58,0.48,0.4,0.48,0.55,0.33,0.83" style="fill:rgb(0,0,0);font-family:URWPalladioL-Roma;font-size:9.96px;stroke:none;">under an Ar atmosphere (H</text>
   <text y="324.013" x="204.438" svgx:width="0.5" style="fill:rgb(0,0,0);font-family:URWPalladioL-Roma;font-size:7.57px;stroke:none;">2</text>
   <text y="322.148" x="208.722" svgx:width="0.79" style="fill:rgb(0,0,0);font-family:URWPalladioL-Roma;font-size:9.96px;stroke:none;">O</text>
   <text y="322.148" x="220.009" svgx:width="0.67" style="fill:rgb(0,0,0);font-family:Rpxr;font-size:9.96px;stroke:none;">&lt;</text>
   <text y="322.148" x="230.108,235.189,237.729,242.81,247.79,251.194,257.301,263.408,272.1728,275.684,280.765,286.679,292.7546,296.18" svgx:width="0.5,0.25,0.5,0.5,0.55,0.6,0.6,0.88,0.55,0.5,0.58,0.61,0.55,0.79" style="fill:rgb(0,0,0);font-family:URWPalladioL-Roma;font-size:9.96px;stroke:none;">0.01 ppm and O</text>
   <text y="324.013" x="304.172" svgx:width="0.5" style="fill:rgb(0,0,0);font-family:URWPalladioL-Roma;font-size:7.57px;stroke:none;">2</text>
   <text y="322.148" x="311.756" svgx:width="0.67" style="fill:rgb(0,0,0);font-family:Rpxr;font-size:9.96px;stroke:none;">&lt;</text>
   <text y="322.148" x="321.855,326.936,329.476,334.557,339.53700000000003,342.941,349.048,355.155,364.128,367.512,370.002,375.967,382.196,388.11,392.8908,396.28,401.148,404.105,408.973,413.484,416.797,420.628,426.177,430.688,436.603,441.47,450.443,453.4,457.912,462.993,465.8814,469.253,472.21,481.183,487.29,492.158,498.366,503.447,509.362,513.873" svgx:width="0.5,0.25,0.5,0.5,0.55,0.6,0.6,0.88,0.33,0.25,0.55,0.61,0.58,0.48,0.55,0.48,0.29,0.48,0.44,0.33,0.4,0.55,0.44,0.58,0.48,0.88,0.29,0.44,0.5,0.29,0.55,0.29,0.88,0.6,0.48,0.61,0.5,0.58,0.44,0.48" style="fill:rgb(0,0,0);font-family:URWPalladioL-Roma;font-size:9.96px;stroke:none;">0.01 ppm). The electrochemical impedance</text>
   <text y="335.657" x="76.535,80.679,86.553,91.234,95.573,98.759,102.444,107.78,111.924,116.263,121.6,127.473,133.0506,135.409,138.664,144.635,147.929,153.06,156.3468,158.826,163.713,169.401,175.47660000000002,177.874,182.214,187.648,191.987,194.831,197.675,202.0574,204.526,210.048,215.384,218.228,221.415,226.301,234.931,243.561,248.242,251.428,255.289,260.8666,263.225,266.479,273.409,280.465,283.7518,286.231,291.567,294.85380000000004,297.324,300.51,306.198,310.9788,313.391,318.796,323.683,326.869,330.045,334.726,338.587,341.431,346.112,350.2952,352.768,360.919,365.6,369.285,374.0658,376.468,382.342,387.023,390.884,394.138,399.475,403.335,411.965,416.646,422.7216,425.129,430.466,436.2428,438.656,443.542,449.31879999999995,451.742,456.424,459.268,463.949,468.288,471.475,475.149,480.486,484.825,490.513,495.194,503.824,506.668,511.008,515.894" svgx:width="0.42,0.6,0.48,0.44,0.33,0.4,0.55,0.42,0.44,0.55,0.6,0.56,0.55,0.33,0.61,0.34,0.52,0.33,0.55,0.5,0.58,0.61,0.55,0.44,0.56,0.44,0.29,0.29,0.44,0.55,0.56,0.55,0.29,0.33,0.5,0.88,0.88,0.48,0.33,0.4,0.56,0.55,0.33,0.71,0.72,0.33,0.55,0.55,0.33,0.55,0.33,0.58,0.48,0.55,0.55,0.5,0.33,0.33,0.48,0.4,0.29,0.48,0.42,0.55,0.83,0.48,0.4,0.48,0.55,0.6,0.48,0.4,0.33,0.55,0.4,0.88,0.48,0.61,0.55,0.55,0.58,0.55,0.5,0.58,0.55,0.48,0.29,0.48,0.44,0.33,0.4,0.55,0.44,0.58,0.48,0.88,0.29,0.44,0.5,0.29" style="fill:rgb(0,0,0);font-family:URWPalladioL-Roma;font-size:9.96px;stroke:none;">spectroscopy (EIS) and cyclic voltammetry (CV) of the batteries were performed on an electrochemical</text>
   <text y="349.167" x="76.117,84.26,89.59,93.447,98.875,103.015,106.198,111.08,114.262,117.104,122.434,128.2108,130.177,133.428,139.325,143.181,146.023,151.705,156.04,160.716,163.899,169.23,174.912,177.40200000000002,179.501,185.447,190.124,193.98,198.12,203.001,208.127,213.37,220.234,226.30960000000002,228.279,233.16,235.65,237.749,245.423,250.305,255.8826,257.793,264.315,267.156,273.122,278.55,283.227,285.717,287.816,293.801,301.914,304.404,306.415,314.011,319.136,326.732,330.01880000000006,332.044,336.925,340.21180000000004,342.168,347.05,349.491,354.471,356.432,365.053,374.172" svgx:width="0.83,0.55,0.4,0.56,0.42,0.33,0.5,0.33,0.29,0.55,0.58,0.55,0.33,0.6,0.4,0.29,0.58,0.44,0.48,0.33,0.55,0.58,0.25,0.55,0.72,0.48,0.4,0.42,0.5,0.52,0.61,0.78,0.61,0.55,0.5,0.25,0.55,0.79,0.5,0.56,0.55,0.67,0.29,0.61,0.56,0.48,0.25,0.55,0.61,0.83,0.25,0.55,0.78,0.52,0.78,0.33,0.55,0.5,0.33,0.55,0.5,0.25,0.5,0.55,0.88,0.72,0.42" style="fill:rgb(0,0,0);font-family:URWPalladioL-Roma;font-size:9.96px;stroke:none;">workstation (Princeton, VersaSTAT 4, Oak Ridge, TN, USA) at 0.1 mVs</text>
   <text y="345.55" x="378.309" svgx:width="0.67" style="fill:rgb(0,0,0);font-family:Pxsy;font-size:7.57px;stroke:none;">−</text>
   <text y="345.55" x="383.374" svgx:width="0.5" style="fill:rgb(0,0,0);font-family:URWPalladioL-Roma;font-size:7.57px;stroke:none;">1</text>
   <text y="349.167" x="389.72,392.971,396.652,401.983,412.664,417.546,419.986,424.868,429.848,431.81,434.993,440.471,442.383,447.363,449.325,455.095,457.58500000000004,459.596,467.046,471.927,474.768,480.285,485.166,490.849,496.18,500.319,503.502,508.384,511.567,514.408" svgx:width="0.33,0.4,0.55,0.88,0.5,0.25,0.5,0.5,0.55,0.33,0.55,0.55,0.5,0.55,0.72,0.25,0.55,0.76,0.5,0.29,0.56,0.5,0.58,0.55,0.42,0.33,0.5,0.33,0.29,0.44" style="fill:rgb(0,0,0);font-family:URWPalladioL-Roma;font-size:9.96px;stroke:none;">from0.01 to 3 V. Galvanostatic</text>
   <text y="362.676" x="76.535,80.87,86.552,91.434,95.115,100.543,105.22,108.471,114.436,117.277,121.417,125.752,131.434,136.316,139.987,145.415,150.1958,152.435,160.578,165.255,168.926,173.7068,175.945,179.128,183.805,187.945,191.127,195.804,201.8796,204.103,209.434,215.2108,217.459,222.439,224.684,232.797,238.763,247.608,255.204,261.726,267.8016,270.025,275.424,280.306,283.489,286.672,291.348,295.205,300.7826,302.976,306.159,310.836,314.975,318.158,322.835,326.81899999999996,329.025,332.276,337.402,343.084,347.761,353.443,358.325,364.007,368.684,374.366,376.856,379.179,386.102,391.784,394.625,400.307,405.189,408.47580000000005,410.774,413.615,419.3918,421.64,424.823,430.505,435.2858,437.515,443.032,448.362,451.204,454.386,459.268,464.697,469.4778,471.716,479.859,482.7,488.382,494.348,499.679,510.155,515.485" svgx:width="0.44,0.58,0.5,0.4,0.56,0.48,0.33,0.61,0.29,0.42,0.44,0.58,0.5,0.4,0.56,0.48,0.55,0.83,0.48,0.4,0.48,0.55,0.33,0.48,0.42,0.33,0.48,0.61,0.55,0.55,0.58,0.55,0.5,0.55,0.83,0.61,1.0,0.78,0.67,0.61,0.55,0.55,0.5,0.33,0.33,0.48,0.4,0.56,0.55,0.33,0.48,0.42,0.33,0.48,0.4,0.55,0.33,0.52,0.58,0.48,0.58,0.5,0.58,0.48,0.58,0.25,0.55,0.71,0.58,0.29,0.58,0.5,0.33,0.55,0.29,0.58,0.55,0.33,0.58,0.48,0.55,0.56,0.55,0.29,0.33,0.5,0.56,0.48,0.55,0.83,0.29,0.58,0.61,0.55,0.83,0.55,0.33" style="fill:rgb(0,0,0);font-family:URWPalladioL-Roma;font-size:9.96px;stroke:none;">charge-discharge were tested on a NEWARE battery tester (Shenzhen, China) in the voltage windowof</text>
   <text y="376.186" x="76.535,81.516,84.007,88.988,93.97,98.951,103.931,106.423,113.5942,116.106,119.424,125.053,129.277,131.767,135.255,141.342" svgx:width="0.5,0.25,0.5,0.5,0.5,0.5,0.55,0.72,0.55,0.33,0.56,0.42,0.25,0.55,0.61,0.29" style="fill:rgb(0,0,0);font-family:URWPalladioL-Roma;font-size:9.96px;stroke:none;">0.01–3 V (vs. Li</text>
   <text y="372.569" x="144.241" svgx:width="0.67" style="fill:rgb(0,0,0);font-family:Rpxr;font-size:7.57px;stroke:none;">+</text>
   <text y="376.186" x="149.805" svgx:width="0.29" style="fill:rgb(0,0,0);font-family:Rpxr;font-size:9.96px;stroke:none;">/</text>
   <text y="376.186" x="152.664,158.751,161.65,164.968" svgx:width="0.61,0.29,0.33,0.25" style="fill:rgb(0,0,0);font-family:URWPalladioL-Roma;font-size:9.96px;stroke:none;">Li).</text>
   <text y="399.399" x="76.535,81.516,84.006,87.494,94.687,99.668,104.092,110.179,113.496,116.814,121.1964,123.728,128.709,134.796,140.8716,143.374,151.673,154.99,159.414,163.837,169.924,174.348,178.771,182.089,187.628" svgx:width="0.5,0.25,0.55,0.72,0.5,0.44,0.61,0.33,0.33,0.44,0.55,0.5,0.61,0.61,0.55,0.83,0.33,0.44,0.44,0.61,0.44,0.44,0.33,0.56,0.61" style="fill:rgb(0,0,0);font-family:URWPalladioL-Bold;font-size:9.96px;stroke:none;">3. Results and Discussion</text>
   <text y="418.886" x="97.795,103.223,106.065,111.493,117.38,121.061" svgx:width="0.56,0.29,0.56,0.6,0.4,0.48" style="fill:rgb(0,0,0);font-family:URWPalladioL-Roma;font-size:9.96px;stroke:none;">Figure</text>
   <text y="418.886" x="127.876" svgx:width="0.5" style="fill:rgb(8,117,183);font-family:URWPalladioL-Roma;font-size:9.96px;stroke:none;">2</text>
   <text y="418.886" x="132.758,137.738,139.787,143.927,149.609,154.94,163.083,167.2662,169.36,172.543,178.225,183.0058,185.05,191.562,198.084,207.779,213.647,218.529,221.711,224.894,229.571,233.427,239.11,243.2932,245.397,250.728,254.0148,256.117,259.3,264.983,269.7638,271.807,279.93,285.827,292.75,295.24,297.329,302.415,310.558,316.036,318.037,323.436,327.117,332.447,337.329,343.4046,345.433,351.3,355.977,360.859,366.287,370.4702,372.575,377.456,380.74280000000005,382.777,387.659,393.058,398.389,404.276,407.56280000000004,409.607,414.489" svgx:width="0.5,0.55,0.42,0.58,0.55,0.83,0.42,0.55,0.33,0.58,0.48,0.55,0.67,0.67,0.77,0.6,0.5,0.33,0.33,0.48,0.4,0.58,0.42,0.55,0.55,0.33,0.55,0.33,0.58,0.48,0.55,0.83,0.6,0.71,0.25,0.55,0.61,0.83,0.55,0.55,0.55,0.4,0.55,0.5,0.61,0.55,0.6,0.48,0.5,0.56,0.42,0.55,0.5,0.33,0.55,0.5,0.55,0.55,0.6,0.33,0.55,0.5,0.5" style="fill:rgb(0,0,0);font-family:URWPalladioL-Roma;font-size:9.96px;stroke:none;">a shows the XRDpatterns of the HPC. Two broad peaks at about 26</text>
   <text y="415.269" x="419.368" svgx:width="0.52" style="fill:rgb(0,0,0);font-family:Pxsy;font-size:7.57px;stroke:none;">◦</text>
   <text y="418.886" x="425.97,430.852,436.534,442.6096,444.647,449.529" svgx:width="0.5,0.58,0.61,0.55,0.5,0.5" style="fill:rgb(0,0,0);font-family:URWPalladioL-Roma;font-size:9.96px;stroke:none;">and 44</text>
   <text y="415.269" x="454.406" svgx:width="0.52" style="fill:rgb(0,0,0);font-family:Pxsy;font-size:7.57px;stroke:none;">◦</text>
   <text y="418.886" x="461.007,465.342,470.224,476.00079999999997,478.054,483.453,488.2338,490.268,494.603,497.444,502.12,507.002,510.859,513.7" svgx:width="0.44,0.5,0.58,0.55,0.55,0.48,0.55,0.44,0.29,0.48,0.5,0.4,0.29,0.56" style="fill:rgb(0,0,0);font-family:URWPalladioL-Roma;font-size:9.96px;stroke:none;">can be clearly</text>
   <text y="432.395" x="76.535,79.919,85.467,91.595,97.509,103.718,106.208,109.795,116.024,121.938,126.7188,129.316,134.935,138.766,144.315,149.396,155.4716,158.114,164.222,169.089,174.17,179.74759999999998,182.32,187.401,190.6878,193.224,198.305" svgx:width="0.33,0.55,0.6,0.58,0.61,0.25,0.55,0.61,0.58,0.48,0.55,0.55,0.4,0.55,0.5,0.61,0.55,0.6,0.48,0.5,0.56,0.55,0.5,0.33,0.55,0.5,0.5" style="fill:rgb(0,0,0);font-family:URWPalladioL-Roma;font-size:9.96px;stroke:none;">found. The broad peak at 26</text>
   <text y="428.779" x="203.384" svgx:width="0.52" style="fill:rgb(0,0,0);font-family:Pxsy;font-size:7.57px;stroke:none;">◦</text>
   <text y="432.395" x="210.349,213.306,217.4892,220.125,225.206,229.514,234.026,238.04,240.997,246.617,251.484,257.5596,260.193,263.506,268.984,271.564,274.877,280.791,285.5718,288.168,291.552,296.633,301.714,306.795,310.08180000000004,312.679,317.191,321.205,326.855,331.163,334.476,339.557,342.4454,345.024,351.131,354.088,359.169,365.084,369.8648,372.461,378.009,381.29580000000004,383.893,389.543,393.557,398.638,404.745,410.66,413.617,416.929,421.7098,424.307,427.691,431.075,438.279,444.417,452.282,457.46119999999996,460.127,468.572,474.12,476.61,480.187,485.268,490.349,493.733,498.814,503.895,508.975,514.056,517.44" svgx:width="0.29,0.42,0.55,0.5,0.42,0.44,0.4,0.29,0.55,0.48,0.61,0.55,0.33,0.55,0.55,0.33,0.58,0.48,0.55,0.33,0.5,0.5,0.5,0.33,0.55,0.44,0.4,0.56,0.42,0.33,0.5,0.29,0.55,0.6,0.29,0.5,0.58,0.48,0.55,0.55,0.33,0.55,0.56,0.4,0.5,0.6,0.58,0.29,0.33,0.48,0.55,0.33,0.33,0.71,0.6,0.77,0.52,0.55,0.83,0.55,0.25,0.55,0.5,0.5,0.33,0.5,0.5,0.5,0.5,0.33,0.25" style="fill:rgb(0,0,0);font-family:URWPalladioL-Roma;font-size:9.96px;stroke:none;">is ascribed to the (002) crystal plane of graphite (JCPDS No. 65-6212),</text>
   <text y="445.904" x="76.117,84.575,90.478,93.429,96.381,101.1618,103.733,107.04,112.942,117.72279999999999,120.295,126.391,131.249,136.319,141.89659999999998,144.453,149.524,153.348,158.885,165.001,170.903,176.9786,179.595,184.666" svgx:width="0.83,0.58,0.29,0.29,0.48,0.55,0.33,0.58,0.48,0.55,0.6,0.48,0.5,0.56,0.55,0.5,0.4,0.55,0.6,0.58,0.61,0.55,0.5,0.5" style="fill:rgb(0,0,0);font-family:URWPalladioL-Roma;font-size:9.96px;stroke:none;">while the peak around 44</text>
   <text y="442.288" x="189.737" svgx:width="0.52" style="fill:rgb(0,0,0);font-family:Pxsy;font-size:7.57px;stroke:none;">◦</text>
   <text y="445.904" x="196.689,200.512,205.37,208.322,213.393,216.699,221.557,225.7402,228.352,231.658,237.136,239.691,242.997,248.9,253.6808,256.253,259.63,264.701,269.772,274.843,278.12980000000005,280.715,285.218,289.224,294.863,299.163,302.469,307.54,310.4284,312.986,319.082,322.033,327.104,333.007,337.7878,340.359,345.897,349.1838,351.769,356.069" svgx:width="0.4,0.48,0.29,0.5,0.33,0.48,0.42,0.55,0.33,0.55,0.55,0.33,0.58,0.48,0.55,0.33,0.5,0.5,0.5,0.33,0.55,0.44,0.4,0.56,0.42,0.33,0.5,0.29,0.55,0.6,0.29,0.5,0.58,0.48,0.55,0.55,0.33,0.55,0.42,0.6" style="fill:rgb(0,0,0);font-family:URWPalladioL-Roma;font-size:9.96px;stroke:none;">relates to the (100) crystal plane of sp</text>
   <text y="442.288" x="362.162" svgx:width="0.5" style="fill:rgb(0,0,0);font-family:URWPalladioL-Roma;font-size:7.57px;stroke:none;">2</text>
   <text y="445.904" x="366.446,369.823,375.726,381.365,386.973,390.979,393.931,400.127,403.079,408.15,413.008,419.0836,421.699,426.202,431.273,435.279,440.888,446.425,452.2018,454.823" svgx:width="0.33,0.58,0.56,0.55,0.4,0.29,0.61,0.29,0.5,0.48,0.61,0.55,0.44,0.5,0.4,0.55,0.55,0.58,0.55,0.33" style="fill:rgb(0,0,0);font-family:URWPalladioL-Roma;font-size:9.96px;stroke:none;">-hybridized carbon [</text>
   <text y="445.904" x="458.198,463.179" svgx:width="0.5,0.5" style="fill:rgb(8,117,183);font-family:URWPalladioL-Roma;font-size:9.96px;stroke:none;">35</text>
   <text y="445.904" x="468.161" svgx:width="0.5" style="fill:rgb(0,0,0);font-family:URWPalladioL-Roma;font-size:9.96px;stroke:none;">–</text>
   <text y="445.904" x="473.232,478.213" svgx:width="0.5,0.5" style="fill:rgb(8,117,183);font-family:URWPalladioL-Roma;font-size:9.96px;stroke:none;">37</text>
   <text y="445.904" x="483.194,486.571,489.06100000000004,492.606,498.823,504.725,509.583,513.883" svgx:width="0.33,0.25,0.55,0.61,0.58,0.48,0.42,0.48" style="fill:rgb(0,0,0);font-family:URWPalladioL-Roma;font-size:9.96px;stroke:none;">]. These</text>
   <text y="459.414" x="76.535,80.216,84.892,89.032,94.919,97.761,100.943,105.1262,107.582,113.548,118.224,126.846,132.176,137.859,141.998,145.181,149.038,153.919,157.102,161.8828,164.268,167.451,173.134,178.015,181.3018,183.697,186.88,192.563,197.3438,199.739,204.62,208.76,212.011,217.879,221.56,226.236,232.104,236.986,240.667,245.343,251.4186,253.808,261.931,267.828,274.89959999999996,277.25,283.108,288.439,292.578,296.718,301.395,305.534,309.7172,312.173,317.153,319.554,324.983,328.839,333.721,339.589,345.271,348.112,351.295,354.136,358.51840000000004,360.971,365.11,368.293,372.072,377.959,382.294,385.477,391.364,395.045,399.8258,402.221" svgx:width="0.4,0.48,0.42,0.6,0.29,0.33,0.42,0.55,0.61,0.48,0.88,0.55,0.58,0.42,0.33,0.4,0.5,0.33,0.48,0.55,0.33,0.58,0.5,0.33,0.55,0.33,0.58,0.48,0.55,0.5,0.42,0.33,0.6,0.4,0.48,0.6,0.5,0.4,0.48,0.61,0.55,0.83,0.6,0.71,0.55,0.6,0.55,0.42,0.42,0.48,0.42,0.42,0.55,0.5,0.55,0.56,0.4,0.5,0.6,0.58,0.29,0.33,0.29,0.44,0.55,0.42,0.33,0.4,0.6,0.44,0.33,0.6,0.4,0.48,0.55,0.33" style="fill:rgb(0,0,0);font-family:URWPalladioL-Roma;font-size:9.96px;stroke:none;">results demonstrate that the as-prepared HPC possess a graphitic structure [</text>
   <text y="459.414" x="405.469,410.45" svgx:width="0.5,0.5" style="fill:rgb(8,117,183);font-family:URWPalladioL-Roma;font-size:9.96px;stroke:none;">38</text>
   <text y="459.414" x="415.432" svgx:width="0.5" style="fill:rgb(0,0,0);font-family:URWPalladioL-Roma;font-size:9.96px;stroke:none;">–</text>
   <text y="459.414" x="420.314,425.295" svgx:width="0.5,0.5" style="fill:rgb(8,117,183);font-family:URWPalladioL-Roma;font-size:9.96px;stroke:none;">40</text>
   <text y="459.414" x="430.276,433.527,436.017,439.483,444.911,447.752,453.181,459.068,462.739" svgx:width="0.33,0.25,0.55,0.56,0.29,0.56,0.6,0.4,0.48" style="fill:rgb(0,0,0);font-family:URWPalladioL-Roma;font-size:9.96px;stroke:none;">]. Figure</text>
   <text y="459.414" x="469.915" svgx:width="0.5" style="fill:rgb(8,117,183);font-family:URWPalladioL-Roma;font-size:9.96px;stroke:none;">2</text>
   <text y="459.414" x="474.797,480.27500000000003,482.695,488.563,492.244,496.921,501.06,505.737,511.419,514.602" svgx:width="0.55,0.55,0.6,0.4,0.48,0.42,0.48,0.58,0.33,0.42" style="fill:rgb(0,0,0);font-family:URWPalladioL-Roma;font-size:9.96px;stroke:none;">b presents</text>
   <text y="472.923" x="76.535,83.323,88.404,97.377,102.458,108.23479999999999,111.543,115.851,121.958,126.826,131.338,134.651,138.482,144.03,148.339,152.85,158.399,164.506,170.0836,173.327,178.875,182.1618,185.419,188.732,194.646,199.4268,202.684,211.139,217.277,224.34859999999998,227.642,236.615,241.696,245.008,249.876,253.89,256.847,261.928,264.885,267.375,272.943,278.278,286.753,292.231,295.462,301.569,306.437,311.518,317.168,321.3512,324.647,329.728,333.01480000000004,336.211,342.369,347.45,352.531,357.612,362.59200000000004,365.853,370.365" svgx:width="0.67,0.5,0.88,0.5,0.58,0.55,0.42,0.6,0.48,0.44,0.33,0.4,0.55,0.42,0.44,0.55,0.6,0.56,0.55,0.55,0.33,0.55,0.33,0.58,0.48,0.55,0.83,0.6,0.71,0.55,0.88,0.5,0.33,0.48,0.4,0.29,0.5,0.29,0.25,0.55,0.61,0.83,0.55,0.55,0.6,0.48,0.5,0.56,0.42,0.55,0.5,0.33,0.55,0.61,0.5,0.5,0.5,0.5,0.55,0.44,0.88" style="fill:rgb(0,0,0);font-family:URWPalladioL-Roma;font-size:9.96px;stroke:none;">Raman spectroscopy of the HPC material. Two peaks at ~1342 cm</text>
   <text y="469.307" x="379.341" svgx:width="0.67" style="fill:rgb(0,0,0);font-family:Pxsy;font-size:7.57px;stroke:none;">−</text>
   <text y="469.307" x="384.406" svgx:width="0.5" style="fill:rgb(0,0,0);font-family:URWPalladioL-Roma;font-size:7.57px;stroke:none;">1</text>
   <text y="472.923" x="391.857,396.938,402.852,408.9276,412.232,418.39,423.471,428.551,433.632,438.612,441.874,446.386" svgx:width="0.5,0.58,0.61,0.55,0.61,0.5,0.5,0.5,0.5,0.55,0.44,0.88" style="fill:rgb(0,0,0);font-family:URWPalladioL-Roma;font-size:9.96px;stroke:none;">and ~1599 cm</text>
   <text y="469.307" x="455.361" svgx:width="0.67" style="fill:rgb(0,0,0);font-family:Pxsy;font-size:7.57px;stroke:none;">−</text>
   <text y="469.307" x="460.426" svgx:width="0.5" style="fill:rgb(0,0,0);font-family:URWPalladioL-Roma;font-size:7.57px;stroke:none;">1</text>
   <text y="472.923" x="467.877,472.389,477.937,481.951,485.782,490.65,494.958,501.066,506.614,512.528" svgx:width="0.44,0.55,0.4,0.4,0.48,0.42,0.6,0.55,0.58,0.61" style="fill:rgb(0,0,0);font-family:URWPalladioL-Roma;font-size:9.96px;stroke:none;">correspond</text>
   <text y="486.433" x="76.535,79.848,85.326,88.15,91.463,97.377,102.1578,105.009,112.6782,115.628,121.247,126.328,132.242,138.3176,141.215,146.296,152.21,158.28560000000002,161.173,168.7426,171.68,177.3,182.381,188.295,194.504,196.994,199.869,203.711,208.578,212.887,218.994,223.862,228.373,231.686,234.643,240.385,245.252,248.209,253.7866,256.613" svgx:width="0.33,0.55,0.55,0.33,0.58,0.48,0.55,0.77,0.55,0.55,0.5,0.58,0.61,0.55,0.5,0.58,0.61,0.55,0.76,0.55,0.55,0.5,0.58,0.61,0.25,0.55,0.4,0.48,0.42,0.6,0.48,0.44,0.33,0.29,0.56,0.48,0.29,0.56,0.55,0.33" style="fill:rgb(0,0,0);font-family:URWPalladioL-Roma;font-size:9.96px;stroke:none;">to the D band and G band, respectively [</text>
   <text y="486.433" x="259.999,264.98" svgx:width="0.5,0.5" style="fill:rgb(8,117,183);font-family:URWPalladioL-Roma;font-size:9.96px;stroke:none;">30</text>
   <text y="486.433" x="269.962" svgx:width="0.25" style="fill:rgb(0,0,0);font-family:URWPalladioL-Roma;font-size:9.96px;stroke:none;">,</text>
   <text y="486.433" x="272.502,277.483" svgx:width="0.5,0.5" style="fill:rgb(8,117,183);font-family:URWPalladioL-Roma;font-size:9.96px;stroke:none;">31</text>
   <text y="486.433" x="282.465,285.849,288.339,292.678,298.907,304.821,309.6018,312.442,320.1112,323.072,328.691,333.772,339.686,345.7616,348.649,352.49,357.358,363.465,367.296,372.164,376.472,381.34,387.254,390.567,394.7502,397.629,403.838,408.706,412.09,416.957,421.469,424.7558,427.546,432.627,438.541,444.6166,447.504,453.713,456.67,460.978,466.527,470.368,476.577,481.444,485.428,488.212" svgx:width="0.33,0.25,0.55,0.61,0.58,0.48,0.55,0.77,0.55,0.55,0.5,0.58,0.61,0.55,0.4,0.48,0.6,0.4,0.48,0.42,0.48,0.58,0.33,0.42,0.55,0.61,0.48,0.33,0.48,0.44,0.33,0.55,0.5,0.58,0.61,0.55,0.61,0.29,0.42,0.55,0.4,0.61,0.48,0.4,0.55,0.33" style="fill:rgb(0,0,0);font-family:URWPalladioL-Roma;font-size:9.96px;stroke:none;">]. The D band represents defect and disorder [</text>
   <text y="486.433" x="491.595,496.576" svgx:width="0.5,0.5" style="fill:rgb(8,117,183);font-family:URWPalladioL-Roma;font-size:9.96px;stroke:none;">41</text>
   <text y="486.433" x="501.558" svgx:width="0.25" style="fill:rgb(0,0,0);font-family:URWPalladioL-Roma;font-size:9.96px;stroke:none;">,</text>
   <text y="486.433" x="504.099,509.08" svgx:width="0.5,0.5" style="fill:rgb(8,117,183);font-family:URWPalladioL-Roma;font-size:9.96px;stroke:none;">42</text>
   <text y="486.433" x="514.061,517.445" svgx:width="0.33,0.25" style="fill:rgb(0,0,0);font-family:URWPalladioL-Roma;font-size:9.96px;stroke:none;">],</text>
   <text y="499.942" x="76.117,84.592,90.506,93.463,96.42,101.2008,103.889,107.202,113.116,117.8968,120.585,128.1546,130.94,136.56,141.641,147.555,153.63060000000002,156.365,160.877,166.425,170.439,174.27,179.138,183.446,189.554,195.102,201.016,207.225,211.4082,214.135,217.448,222.92600000000002,225.598,228.911,234.825,239.6058,242.294,247.161,252.405,255.362,259.671,262.983,267.851,273.765,278.277,283.0578,285.746,291.294,294.5808,297.28,302.615" svgx:width="0.83,0.58,0.29,0.29,0.48,0.55,0.33,0.58,0.48,0.55,0.76,0.55,0.55,0.5,0.58,0.61,0.55,0.44,0.55,0.4,0.4,0.48,0.42,0.6,0.55,0.58,0.61,0.42,0.55,0.33,0.55,0.55,0.33,0.58,0.48,0.55,0.48,0.52,0.29,0.42,0.33,0.48,0.58,0.44,0.48,0.55,0.55,0.33,0.55,0.52,0.6" style="fill:rgb(0,0,0);font-family:URWPalladioL-Roma;font-size:9.96px;stroke:none;">while the G band corresponds to the existence of SP</text>
   <text y="496.326" x="308.757" svgx:width="0.5" style="fill:rgb(0,0,0);font-family:URWPalladioL-Roma;font-size:7.57px;stroke:none;">2</text>
   <text y="499.942" x="313.041,316.425,322.339,327.989,333.609,337.622,340.58,346.788,349.746,354.827,359.694,365.7696,368.504,373.016,378.097,382.111,387.731,393.279,399.0558,401.795" svgx:width="0.33,0.58,0.56,0.55,0.4,0.29,0.61,0.29,0.5,0.48,0.61,0.55,0.44,0.5,0.4,0.55,0.55,0.58,0.55,0.33" style="fill:rgb(0,0,0);font-family:URWPalladioL-Roma;font-size:9.96px;stroke:none;">-hybridized carbon [</text>
   <text y="499.942" x="405.178,410.159" svgx:width="0.5,0.5" style="fill:rgb(8,117,183);font-family:URWPalladioL-Roma;font-size:9.96px;stroke:none;">43</text>
   <text y="499.942" x="415.141,418.525,421.015,424.886,431.115,437.03,441.8108,444.499,447.456,453.37,456.683,461.55,467.464,471.773,474.73,478.043,483.6206,486.294,490.308,495.389,498.702,501.659,507.137,509.809,515.357" svgx:width="0.33,0.25,0.55,0.61,0.58,0.48,0.55,0.29,0.58,0.33,0.48,0.58,0.42,0.29,0.33,0.56,0.55,0.4,0.5,0.33,0.29,0.55,0.55,0.55,0.33" style="fill:rgb(0,0,0);font-family:URWPalladioL-Roma;font-size:9.96px;stroke:none;">]. The intensity ratio of</text>
   <text y="513.451" x="76.535,84.2042,87.113,90.426,95.904,98.688,106.2576,109.155,112.112,116.2952,119.133,124.214,126.755,131.836,134.32600000000002,137.14,145.615,151.529,154.487,158.998,164.7748,167.626,171.934,178.062,183.712,189.362,194.23,198.538,201.851,206.0342,208.873,212.186,218.1,223.181,226.4678,229.207,232.519,238.434,243.2148,246.014,254.469,260.607,267.6786,270.525,276.632,282.18,286.489,290.798,295.665,299.974,304.282,309.15,313.3332,316.172,321.15200000000004,323.966,326.923,332.004,335.835,341.485,346.2658,349.066,354.98,361.107,370.08,375.7,380.567,384.551,387.295,392.843,396.12980000000005,398.94,405.149,410.017,413.4,418.268,422.78,426.093,430.2762,433.114,438.195,444.11,450.1856,453.032,458.682,464.23,469.778,475.85360000000003,478.701,483.568,486.525,491.393,495.905,499.217,503.231,506.188,510.7,515.781" svgx:width="0.77,0.55,0.33,0.55,0.55,0.76,0.55,0.29,0.42,0.55,0.5,0.25,0.5,0.25,0.55,0.83,0.58,0.29,0.44,0.58,0.55,0.42,0.6,0.56,0.56,0.48,0.42,0.33,0.42,0.55,0.33,0.58,0.5,0.33,0.55,0.33,0.58,0.48,0.55,0.83,0.6,0.71,0.55,0.6,0.55,0.42,0.42,0.48,0.42,0.42,0.48,0.42,0.55,0.5,0.55,0.29,0.5,0.4,0.56,0.48,0.55,0.58,0.6,0.88,0.55,0.48,0.4,0.55,0.55,0.33,0.55,0.61,0.48,0.33,0.48,0.44,0.33,0.42,0.55,0.5,0.58,0.61,0.55,0.56,0.55,0.55,0.61,0.55,0.48,0.29,0.48,0.44,0.33,0.4,0.29,0.44,0.5,0.29" style="fill:rgb(0,0,0);font-family:URWPalladioL-Roma;font-size:9.96px;stroke:none;">D to G is 1.0, which suggests that the HPC possesses a large number of defects and good electrical</text>
   <text y="526.961" x="76.535,80.958,86.398,92.196,98.283,104.291,108.714,111.962,114.861,120.49,123.389,126.637,132.2146,134.667" svgx:width="0.44,0.55,0.58,0.61,0.6,0.44,0.33,0.29,0.56,0.29,0.33,0.56,0.55,0.33" style="fill:rgb(0,0,0);font-family:URWPalladioL-Roma;font-size:9.96px;stroke:none;">conductivity [</text>
   <text y="526.961" x="137.984,142.966" svgx:width="0.5,0.5" style="fill:rgb(8,117,183);font-family:URWPalladioL-Roma;font-size:9.96px;stroke:none;">44</text>
   <text y="526.961" x="147.947" svgx:width="0.25" style="fill:rgb(0,0,0);font-family:URWPalladioL-Roma;font-size:9.96px;stroke:none;">,</text>
   <text y="526.961" x="150.438,155.419" svgx:width="0.5,0.5" style="fill:rgb(8,117,183);font-family:URWPalladioL-Roma;font-size:9.96px;stroke:none;">45</text>
   <text y="526.961" x="160.4,163.718,166.208,169.695,175.802,181.601,186.373,190.597,195.3778,197.859,202.283,208.081,213.062,216.998,221.979,226.402,229.65,234.422,238.357,241.257,245.481,248.729,251.628,256.051,260.2342,262.766,267.747,271.503,276.2838,278.766,284.305,289.745,295.184,301.25960000000003,303.762,307.08,312.519,316.503,318.945,323.717,326.616,331.388,335.812,339.06,342.815,348.255,354.0318,356.544,359.792,363.727,368.708,374.506,378.731,382.048,386.82,390.804,393.246,398.227,404.026,410.1016,412.604,416.539,421.52,424.768,429.54879999999997,432.031,438.018,442.79,446.725,450.043,455.483,459.418,468.215,473.196,478.994,483.418,488.1988,490.68" svgx:width="0.33,0.25,0.55,0.61,0.58,0.48,0.42,0.48,0.55,0.44,0.58,0.5,0.4,0.5,0.44,0.33,0.48,0.4,0.29,0.42,0.33,0.29,0.44,0.42,0.55,0.5,0.4,0.48,0.55,0.56,0.55,0.55,0.61,0.55,0.33,0.55,0.4,0.55,0.48,0.29,0.48,0.44,0.33,0.4,0.55,0.58,0.55,0.33,0.4,0.5,0.58,0.42,0.33,0.48,0.4,0.55,0.5,0.58,0.61,0.55,0.4,0.5,0.33,0.48,0.55,0.6,0.48,0.4,0.33,0.55,0.4,0.88,0.5,0.58,0.44,0.48,0.55,0.33" style="fill:rgb(0,0,0);font-family:URWPalladioL-Roma;font-size:9.96px;stroke:none;">]. These characteristics are good for electron transfer and rate performance [</text>
   <text y="526.961" x="493.998,498.979" svgx:width="0.5,0.5" style="fill:rgb(8,117,183);font-family:URWPalladioL-Roma;font-size:9.96px;stroke:none;">46</text>
   <text y="526.961" x="503.961,507.278" svgx:width="0.33,0.25" style="fill:rgb(0,0,0);font-family:URWPalladioL-Roma;font-size:9.96px;stroke:none;">].</text>
   <text y="540.47" x="97.795,101.22,106.9968,114.958,120.507,124.348,130.557,135.424,139.40800000000002,147.263,150.576,156.054,163.949,168.816,174.558,179.639,182.596,188.723,193.804,197.117,201.8978,209.809,213.122,219.036,223.8168,231.728,236.037,242.144,247.012,251.523,254.481,260.628,265.0104,272.965,277.274,283.401,287.415,290.799,295.88,300.392,305.1728,313.084,318.165,322.006,326.874,331.85400000000004,339.779,344.86,350.774,356.8496,364.808,370.915,376.463,380.294,385.843,390.151,393.109,396.421,401.9986,409.896,415.444,418.73080000000004,426.653,429.966,435.88,440.6608,448.582,457.037,463.174,470.379,472.869,480.744,486.658,489.616,492.928,496.759,502.308,507.958,512.825" svgx:width="0.34,0.58,0.55,0.55,0.4,0.61,0.48,0.4,0.55,0.33,0.55,0.55,0.48,0.56,0.5,0.29,0.6,0.5,0.33,0.48,0.55,0.33,0.58,0.48,0.55,0.42,0.6,0.48,0.44,0.29,0.61,0.44,0.55,0.42,0.6,0.4,0.33,0.5,0.44,0.48,0.55,0.5,0.4,0.48,0.5,0.55,0.5,0.58,0.61,0.55,0.6,0.55,0.4,0.55,0.42,0.29,0.33,0.56,0.55,0.55,0.33,0.55,0.33,0.58,0.48,0.55,0.83,0.6,0.71,0.25,0.55,0.58,0.29,0.33,0.4,0.55,0.56,0.48,0.58" style="fill:rgb(0,0,0);font-family:URWPalladioL-Roma;font-size:9.96px;stroke:none;">In order to evaluate the speciﬁc surface area and porosity of the HPC, nitrogen</text>
   <text y="553.98" x="76.535,81.616,87.825,92.133,97.682,101.696,107.803,111.116,114.073,119.621,125.535,128.919,135.128,139.996,144.304,149.853,153.867,159.974,163.287,166.244,171.792,177.5688,183.438,186.395,190.703,196.252,199.565,205.479,210.346,214.36,223.333,227.5162,233.373,238.454,244.368,250.4436,256.308,259.621,265.535,270.3158,276.134,282.241,287.79,291.631,296.41179999999997,302.23,306.538,309.495,314.576,319.3568,325.175,331.384,334.341,338.65,341.963,345.977,348.934,354.553,360.681,363.993,366.951,372.499,378.413,382.5962,388.453,392.965,399.092,403.106,408.848,413.715,417.8982,423.755,432.23,437.098,440.939,445.7198,451.538,460.511,465.378,470.459,474.768,480.895,484.726,489.594,495.6696,501.534,506.615,512.529" svgx:width="0.5,0.61,0.42,0.55,0.4,0.6,0.33,0.29,0.55,0.58,0.33,0.61,0.48,0.42,0.55,0.4,0.6,0.33,0.29,0.55,0.58,0.55,0.29,0.42,0.55,0.33,0.58,0.48,0.4,0.88,0.42,0.55,0.5,0.58,0.61,0.55,0.33,0.58,0.48,0.55,0.6,0.55,0.4,0.48,0.55,0.42,0.29,0.5,0.48,0.55,0.61,0.29,0.42,0.33,0.4,0.29,0.55,0.6,0.33,0.29,0.55,0.58,0.42,0.55,0.44,0.6,0.4,0.56,0.48,0.42,0.55,0.83,0.48,0.4,0.48,0.55,0.88,0.48,0.5,0.42,0.6,0.4,0.48,0.61,0.55,0.5,0.58,0.61" style="fill:rgb(0,0,0);font-family:URWPalladioL-Roma;font-size:9.96px;stroke:none;">adsorption-desorption isotherms and the pore size distributions curves were measured and</text>
   <text y="567.489" x="76.535,80.844,86.758,92.306,100.781,106.5578,110.364,113.321,119.09779999999999,122.904,128.554,131.511,137.161,143.288,147.129" svgx:width="0.42,0.58,0.55,0.83,0.58,0.55,0.29,0.58,0.55,0.56,0.29,0.56,0.6,0.4,0.48" style="fill:rgb(0,0,0);font-family:URWPalladioL-Roma;font-size:9.96px;stroke:none;">shown in Figure</text>
   <text y="567.489" x="155.665" svgx:width="0.5" style="fill:rgb(8,117,183);font-family:URWPalladioL-Roma;font-size:9.96px;stroke:none;">2</text>
   <text y="567.489" x="160.746,165.258,167.799,174.007,176.497,180.511,184.352,189.22,193.528,199.636,204.503,209.015,212.328,215.285,221.026,225.894,228.851,233.393,235.883,242.956,250.862,255.0452,258.839,263.147,269.061,274.61,283.085,288.86179999999996,292.678,295.635,301.41179999999997,305.217,310.867,313.824,319.474,325.602,329.433" svgx:width="0.44,0.25,0.61,0.25,0.55,0.4,0.48,0.42,0.6,0.48,0.44,0.33,0.29,0.56,0.48,0.29,0.56,0.25,0.55,0.78,0.42,0.55,0.42,0.58,0.55,0.83,0.58,0.55,0.29,0.58,0.55,0.56,0.29,0.56,0.6,0.4,0.48" style="fill:rgb(0,0,0);font-family:URWPalladioL-Roma;font-size:9.96px;stroke:none;">c,d, respectively. As shown in Figure</text>
   <text y="567.489" x="337.969" svgx:width="0.5" style="fill:rgb(8,117,183);font-family:URWPalladioL-Roma;font-size:9.96px;stroke:none;">2</text>
   <text y="567.489" x="343.05,347.562,350.052,354.075,357.388,363.302,368.0828,371.838,376.35,382.478,386.492,392.233,397.0138,400.769,406.978,409.935,414.244,420.351,423.308,428.389,434.039,438.2222,442.016,446.99600000000004,450.765,454.078,459.728,465.836,468.793,473.304,478.385,481.2734,485.021,488.324,493.974,500.081,504.948,508.332,511.757" svgx:width="0.44,0.25,0.55,0.33,0.58,0.48,0.55,0.44,0.6,0.4,0.56,0.48,0.55,0.61,0.29,0.42,0.6,0.29,0.5,0.56,0.42,0.55,0.5,0.55,0.33,0.56,0.6,0.29,0.44,0.5,0.29,0.55,0.33,0.56,0.6,0.48,0.33,0.34,0.72" style="fill:rgb(0,0,0);font-family:URWPalladioL-Roma;font-size:9.96px;stroke:none;">c, the curve displays a typical type-IV</text>
   <text y="580.998" x="76.535,81.586,87.758,92.042,97.557,101.548,107.619,110.912,113.852,119.368,125.247,128.611,134.784,139.622,143.906,149.421,153.412,159.483,162.776,165.716,171.232,177.0088,179.586,182.526,186.809,192.325,195.618,201.498,206.337,210.327,219.0918,221.722,230.147,233.087,236.38,242.1568,244.735,249.715,252.261,255.554,261.171,267.242,272.081,275.445,283.85,288.83000000000004,291.376,297.255,302.872,307.155,310.449,315.287,319.106,323.945,328.228,331.168,335.3512,337.926,340.866,346.382,351.897,357.873,360.444" svgx:width="0.5,0.61,0.42,0.55,0.4,0.6,0.33,0.29,0.55,0.58,0.33,0.61,0.48,0.42,0.55,0.4,0.6,0.33,0.29,0.55,0.58,0.55,0.29,0.42,0.55,0.33,0.58,0.48,0.4,0.88,0.55,0.83,0.29,0.33,0.58,0.55,0.5,0.55,0.33,0.56,0.6,0.48,0.33,0.83,0.5,0.55,0.58,0.56,0.42,0.33,0.48,0.4,0.48,0.42,0.29,0.42,0.55,0.29,0.55,0.55,0.6,0.55,0.33" style="fill:rgb(0,0,0);font-family:URWPalladioL-Roma;font-size:9.96px;stroke:none;">adsorption-desorption isotherm with a type-H4 hysteresis loop [</text>
   <text y="580.998" x="363.806,368.787" svgx:width="0.5,0.5" style="fill:rgb(8,117,183);font-family:URWPalladioL-Roma;font-size:9.96px;stroke:none;">38</text>
   <text y="580.998" x="373.769,377.133,379.623,382.134,388.306,393.145,402.065,407.581,413.46,417.743,421.037,425.027,430.078,433.371,436.311,442.19,447.7676,450.282,453.575,459.455,464.2358,466.779,471.618,476.83,479.77,484.053,487.347,492.186,498.065,502.55,507.3308,509.864,515.38" svgx:width="0.33,0.25,0.55,0.61,0.48,0.88,0.55,0.58,0.42,0.33,0.4,0.5,0.33,0.29,0.58,0.56,0.55,0.33,0.58,0.48,0.55,0.48,0.52,0.29,0.42,0.33,0.48,0.58,0.44,0.48,0.55,0.55,0.33" style="fill:rgb(0,0,0);font-family:URWPalladioL-Roma;font-size:9.96px;stroke:none;">], demonstrating the existence of</text>
   <text y="594.508" x="76.535,82.072,87.539,90.803,96.57979999999999,99.133,107.974,110.888,115.333,119.108,124.575,130.592,136.059,139.833,144.629,148.8122,151.368,156.374,162.201,168.2766,170.822,179.663,184.459,188.704,194.171,200.188,205.655,209.43,214.226,218.471,220.961,224.478,232.2468,234.771,238.546,243.342,246.255,251.262,254.526,257.439,263.096,267.892,270.806,276.3836,278.876,284.703,287.617,293.184,298.9608,301.504,305.749,311.767,316.563,321.008,323.922,329.979,334.3614,336.928,341.173,347.211,351.165,354.5,359.506,363.951,368.7318,371.24,376.247,380.021,384.817,389.797,392.327,397.793,401.07980000000003,403.621,409.688,414.694,419.7,424.707,429.713,432.216,437.222,442.202,444.731" svgx:width="0.55,0.55,0.33,0.58,0.55,0.88,0.29,0.44,0.4,0.55,0.6,0.55,0.4,0.48,0.42,0.55,0.5,0.58,0.61,0.55,0.88,0.48,0.42,0.55,0.6,0.55,0.4,0.48,0.42,0.25,0.55,0.78,0.55,0.4,0.48,0.29,0.5,0.33,0.29,0.56,0.48,0.29,0.56,0.55,0.58,0.29,0.56,0.58,0.55,0.42,0.6,0.48,0.44,0.29,0.61,0.44,0.55,0.42,0.6,0.4,0.33,0.5,0.44,0.48,0.55,0.5,0.4,0.48,0.5,0.55,0.55,0.33,0.55,0.61,0.5,0.5,0.5,0.5,0.25,0.5,0.5,0.55,0.88" style="fill:rgb(0,0,0);font-family:URWPalladioL-Roma;font-size:9.96px;stroke:none;">both micropores and mesopores. A relatively high speciﬁc surface area of ~1714.83 m</text>
   <text y="590.891" x="453.571" svgx:width="0.5" style="fill:rgb(0,0,0);font-family:URWPalladioL-Roma;font-size:7.57px;stroke:none;">2</text>
   <text y="594.508" x="460.354" svgx:width="0.56" style="fill:rgb(0,0,0);font-family:URWPalladioL-Roma;font-size:9.96px;stroke:none;">g</text>
   <text y="590.891" x="465.921" svgx:width="0.67" style="fill:rgb(0,0,0);font-family:Pxsy;font-size:7.57px;stroke:none;">−</text>
   <text y="590.891" x="470.986" svgx:width="0.5" style="fill:rgb(0,0,0);font-family:URWPalladioL-Roma;font-size:7.57px;stroke:none;">1</text>
   <text y="594.508" x="477.769,482.775,488.602,494.6776,497.223,502.20300000000003,504.722,510.259,513.173" svgx:width="0.5,0.58,0.61,0.55,0.5,0.55,0.55,0.29,0.56" style="fill:rgb(0,0,0);font-family:URWPalladioL-Roma;font-size:9.96px;stroke:none;">and a big</text>
   <text y="608.017" x="76.236,82.343,87.892,91.723,96.5038,99.202,104.943,110.492,113.449,119.576,128.549,133.3298,136.018,139.402,145.56,150.641,153.182,158.262,163.242,165.945,170.457" svgx:width="0.6,0.55,0.4,0.48,0.55,0.56,0.55,0.29,0.6,0.88,0.48,0.55,0.33,0.61,0.5,0.25,0.5,0.5,0.55,0.44,0.88" style="fill:rgb(0,0,0);font-family:URWPalladioL-Roma;font-size:9.96px;stroke:none;">pore volume (~1.13 cm</text>
   <text y="604.401" x="179.433" svgx:width="0.5" style="fill:rgb(0,0,0);font-family:URWPalladioL-Roma;font-size:7.57px;stroke:none;">3</text>
   <text y="608.017" x="186.321" svgx:width="0.56" style="fill:rgb(0,0,0);font-family:URWPalladioL-Roma;font-size:9.96px;stroke:none;">g</text>
   <text y="604.401" x="191.971" svgx:width="0.67" style="fill:rgb(0,0,0);font-family:Pxsy;font-size:7.57px;stroke:none;">−</text>
   <text y="604.401" x="197.036" svgx:width="0.5" style="fill:rgb(0,0,0);font-family:URWPalladioL-Roma;font-size:7.57px;stroke:none;">1</text>
   <text y="608.017" x="201.32,204.6068,207.305,212.386,216.227,221.0078,223.696,229.245,234.864,238.177,243.258,246.215,252.129,256.997,263.0726,265.807,271.427,276.508,280.816,285.684,291.75960000000003,294.504,300.053,305.8298,308.568,311.881,317.795,322.5758,325.264,331.473,337.682,343.7576,346.513,349.825,354.693,359.002,362.314,364.80400000000003,368.686,374.915,380.829,385.697,390.005,394.7858,397.484,403.693,408.774,412.087,417.067,419.769,424.85,428.681,433.4618,436.161,445.133,451.261,455.773,461.5498,464.289,469.939,473.77,478.637,483.718,487.031,491.898,495.882,498.514,501.826,507.741,512.822" svgx:width="0.33,0.55,0.5,0.4,0.48,0.55,0.55,0.55,0.33,0.5,0.29,0.58,0.48,0.61,0.55,0.55,0.5,0.42,0.48,0.61,0.55,0.55,0.58,0.55,0.33,0.58,0.48,0.55,0.61,0.61,0.61,0.55,0.33,0.48,0.42,0.33,0.25,0.55,0.61,0.58,0.48,0.42,0.48,0.55,0.61,0.5,0.33,0.5,0.55,0.5,0.4,0.48,0.55,0.88,0.6,0.44,0.58,0.55,0.56,0.4,0.48,0.5,0.33,0.48,0.4,0.55,0.33,0.58,0.5,0.58" style="fill:rgb(0,0,0);font-family:URWPalladioL-Roma;font-size:9.96px;stroke:none;">) are obtained based on the BET test. These data are much greater than</text>
   <text y="621.527" x="76.535,79.848,85.762,91.31,95.619,100.3998,103.098,108.646,111.9328,114.652,120.2,123.513,129.427,134.295,138.279,140.921,146.54,149.497,155.045,164.018,169.099,173.408,177.5912,180.338,184.85,189.931,193.945,199.565,205.113,210.8898,213.639,222.612,227.693,231.005,235.873,239.887,242.844,247.925,250.8134,253.504" svgx:width="0.33,0.58,0.55,0.42,0.48,0.55,0.55,0.33,0.55,0.55,0.33,0.58,0.48,0.4,0.55,0.55,0.29,0.55,0.88,0.5,0.42,0.42,0.55,0.44,0.5,0.4,0.55,0.55,0.58,0.55,0.88,0.5,0.33,0.48,0.4,0.29,0.5,0.29,0.55,0.33" style="fill:rgb(0,0,0);font-family:URWPalladioL-Roma;font-size:9.96px;stroke:none;">those of other biomass carbon material [</text>
   <text y="621.527" x="256.883,261.864" svgx:width="0.5,0.5" style="fill:rgb(8,117,183);font-family:URWPalladioL-Roma;font-size:9.96px;stroke:none;">26</text>
   <text y="621.527" x="266.845" svgx:width="0.5" style="fill:rgb(0,0,0);font-family:URWPalladioL-Roma;font-size:9.96px;stroke:none;">–</text>
   <text y="621.527" x="271.926,276.907" svgx:width="0.5,0.5" style="fill:rgb(8,117,183);font-family:URWPalladioL-Roma;font-size:9.96px;stroke:none;">28</text>
   <text y="621.527" x="281.889" svgx:width="0.25" style="fill:rgb(0,0,0);font-family:URWPalladioL-Roma;font-size:9.96px;stroke:none;">,</text>
   <text y="621.527" x="284.43,289.411" svgx:width="0.5,0.5" style="fill:rgb(8,117,183);font-family:URWPalladioL-Roma;font-size:9.96px;stroke:none;">38</text>
   <text y="621.527" x="294.392,297.776,300.266,304.178,307.602,310.8888,313.537,318.049,323.13,328.9068,331.656,337.275,342.0558,344.754,349.063,353.93,358.798,364.5748,367.334,370.718,374.549,380.097,388.86179999999996,391.692,397.342,400.299,405.949,412.076,415.907" svgx:width="0.33,0.25,0.55,0.34,0.33,0.55,0.44,0.5,0.58,0.55,0.55,0.48,0.55,0.42,0.48,0.48,0.58,0.55,0.33,0.4,0.55,0.88,0.55,0.56,0.29,0.56,0.6,0.4,0.48" style="fill:rgb(0,0,0);font-family:URWPalladioL-Roma;font-size:9.96px;stroke:none;">]. It can be seen from Figure</text>
   <text y="621.527" x="423.387" svgx:width="0.5" style="fill:rgb(8,117,183);font-family:URWPalladioL-Roma;font-size:9.96px;stroke:none;">2</text>
   <text y="621.527" x="428.468,434.5436,437.298,440.611,446.525,451.606,454.8928,457.53,460.843,466.757,471.5378,474.247,480.354,485.902,489.733,494.5138,497.212,501.521,504.478,509.559,514.427" svgx:width="0.61,0.55,0.33,0.58,0.5,0.33,0.55,0.33,0.58,0.48,0.55,0.6,0.55,0.4,0.48,0.55,0.42,0.29,0.5,0.48,0.42" style="fill:rgb(0,0,0);font-family:URWPalladioL-Roma;font-size:9.96px;stroke:none;">d that the pore sizes</text>
   <text y="635.036" x="76.535,82.083,85.3698,88.252,91.564,97.479,102.2598,105.12,113.575,119.713,126.7846,129.702,138.675,143.756,146.713,152.627,155.584,161.1616,164.018,170.227,173.184,177.493,180.806,184.82,187.777,193.396,199.524,202.837,207.6178,210.478,216.098,220.965,224.278,232.753,237.621,242.488,248.2648,251.187,256.16700000000003,259.052,264.133,270.047,276.12260000000003,279.04,284.02000000000004,286.895,292.81,301.783,304.273,307.178,313.286,317.117,321.984,326.293,331.16,337.075,340.387,343.344,349.259,354.83660000000003,357.693,363.241,368.861,374.602,377.559,383.108,389.235,393.4182,396.328,405.301,410.169,414.477,420.026,426.133,431.681,435.512,441.061,447.188,451.3712,454.281,458.793,464.707,469.788,473.802,478.883,483.395,486.708,491.575,495.589,498.546,502.855,506.168,509.125,513.637,517.945" svgx:width="0.55,0.33,0.55,0.33,0.58,0.48,0.55,0.83,0.6,0.71,0.55,0.88,0.5,0.29,0.58,0.29,0.56,0.55,0.61,0.29,0.42,0.33,0.4,0.29,0.55,0.6,0.33,0.48,0.55,0.55,0.48,0.33,0.83,0.48,0.48,0.58,0.55,0.5,0.55,0.5,0.58,0.61,0.55,0.5,0.55,0.58,0.88,0.25,0.55,0.6,0.4,0.48,0.42,0.48,0.58,0.33,0.29,0.58,0.56,0.55,0.55,0.55,0.56,0.29,0.55,0.6,0.42,0.55,0.88,0.48,0.42,0.55,0.6,0.55,0.4,0.55,0.6,0.42,0.55,0.44,0.58,0.5,0.4,0.5,0.44,0.33,0.48,0.4,0.29,0.42,0.33,0.29,0.44,0.42,0.25" style="fill:rgb(0,0,0);font-family:URWPalladioL-Roma;font-size:9.96px;stroke:none;">of the HPC mainly distribute between 2 and 5 nm, presenting obvious mesoporous characteristics.</text>
   <text y="648.545" x="76.226,82.455,88.369,93.237,97.546,102.3268,105.634,114.607,119.475,123.783,129.332,135.439,140.987,144.829,149.696,154.005,156.495,159.949,165.03,169.2132,172.571,176.879,181.747,186.259,191.807,197.711,203.92,207.304,211.816,214.773,219.854,224.162,228.3452,231.702,237.81,243.358,247.189,252.057,256.365,258.855,262.32,265.633,271.181,276.831,281.699,285.011,290.926,295.793,299.777,303.028,311.503,314.46,317.773,323.5498,326.909,330.221,336.136,340.9168,344.235,350.383,354.397,358.705,362.018,365.402,369.914,372.871,377.952,382.26,386.4432,389.79,395.898,401.446,405.277,410.145,414.3282,417.685,421.069,430.041,435.122,439.634,443.465,449.014,455.121,460.669,464.5,469.368,473.676,476.166,479.631,485.789,490.87,495.85,499.173,505.087,514.06,517.444" svgx:width="0.61,0.58,0.48,0.42,0.48,0.55,0.88,0.48,0.42,0.55,0.6,0.55,0.4,0.48,0.42,0.25,0.55,0.5,0.42,0.55,0.42,0.48,0.44,0.55,0.58,0.61,0.33,0.44,0.29,0.5,0.42,0.42,0.55,0.6,0.55,0.4,0.48,0.42,0.25,0.55,0.33,0.55,0.56,0.48,0.33,0.58,0.48,0.4,0.55,0.83,0.29,0.33,0.58,0.55,0.33,0.58,0.48,0.55,0.61,0.4,0.42,0.33,0.33,0.44,0.29,0.5,0.42,0.42,0.55,0.6,0.55,0.4,0.48,0.42,0.55,0.33,0.88,0.5,0.44,0.4,0.55,0.6,0.55,0.4,0.48,0.42,0.25,0.55,0.61,0.5,0.5,0.55,0.58,0.88,0.33,0.25" style="fill:rgb(0,0,0);font-family:URWPalladioL-Roma;font-size:9.96px;stroke:none;">These mesopores, as second-class pores, together with the ﬁrst-class pores (macropores, ~70 nm),</text>
   <text y="662.055" x="76.535,79.833,85.24,89.151,100.371,105.351,107.808,113.572,116.453,121.197,125.108,130.06,133.793,138.19,143.953,146.835,151.232,156.183,159.065,161.947,167.5246,169.929,175.88,181.287,185.02,190.427,196.399,200.5822,203.073,207.272,210.5,214.333,220.304,224.701,227.929,233.901,237.634,242.378,244.868,248.339,254.41,260.173,264.9538,267.392,270.274,275.225,278.959,284.465,289.2458,291.684,295.883,301.834,306.578,310.974,313.856,319.847,324.2294,326.73,330.929,336.89,340.802,344.099,349.051,353.448,358.2288,360.677,365.628,369.361,374.105,379.08500000000004,381.532,390.276,395.228,400.734,405.477,409.6602,412.152,415.38,421.143,425.92379999999997,428.372,433.116,435.998,440.741,445.138,448.366,452.1,457.507,460.388,465.894,469.123,473.866,478.817,483.561,486.443,491.186,495.583,498.811,502.535,507.942,513.992" svgx:width="0.33,0.55,0.4,0.88,0.5,0.55,0.58,0.29,0.48,0.4,0.5,0.4,0.44,0.58,0.29,0.44,0.5,0.29,0.29,0.56,0.55,0.6,0.55,0.4,0.55,0.6,0.42,0.55,0.42,0.33,0.4,0.6,0.44,0.33,0.6,0.4,0.48,0.25,0.55,0.61,0.58,0.48,0.55,0.29,0.5,0.4,0.56,0.48,0.55,0.42,0.6,0.48,0.44,0.29,0.61,0.44,0.55,0.42,0.6,0.4,0.33,0.5,0.44,0.48,0.55,0.5,0.4,0.48,0.5,0.55,0.88,0.5,0.56,0.48,0.42,0.55,0.33,0.58,0.48,0.55,0.48,0.29,0.48,0.44,0.33,0.4,0.55,0.29,0.56,0.33,0.48,0.5,0.48,0.29,0.48,0.44,0.33,0.4,0.55,0.61,0.48" style="fill:rgb(0,0,0);font-family:URWPalladioL-Roma;font-size:9.96px;stroke:none;">forma hierarchically porous structure. The large speciﬁc surface area makes the electrolyte–electrode</text>
   <text y="675.564" x="76.535,79.376,85.058,88.241,92.918,96.774,100.026,104.907,109.242,114.0228,116.184,119.025,123.907,127.588,133.016,137.7968,139.958,144.634,150.317,155.647,161.535,166.963,172.7398,174.911,178.093,183.571,185.689,190.571,194.906,199.241,205.128,213.749,219.636,222.478,227.359,230.542,235.3228,237.484,241.34,244.181,248.516,254.2928,256.464,260.799,266.481,271.363,275.034,280.462,285.139,289.3222,291.543,296.425,302.107,308.18260000000004,310.338,313.179,318.51,324.192,328.3752,330.597" svgx:width="0.29,0.58,0.33,0.48,0.4,0.33,0.5,0.44,0.48,0.55,0.29,0.5,0.4,0.56,0.48,0.55,0.48,0.58,0.55,0.6,0.56,0.58,0.55,0.33,0.55,0.55,0.5,0.44,0.44,0.6,0.88,0.6,0.29,0.5,0.33,0.48,0.55,0.4,0.29,0.44,0.58,0.55,0.44,0.58,0.5,0.4,0.56,0.48,0.42,0.55,0.5,0.58,0.61,0.55,0.29,0.55,0.58,0.42,0.55,0.33" style="fill:rgb(0,0,0);font-family:URWPalladioL-Roma;font-size:9.96px;stroke:none;">interface large enough to accumulate rich charges and ions [</text>
   <text y="675.564" x="333.85,338.831" svgx:width="0.5,0.5" style="fill:rgb(8,117,183);font-family:URWPalladioL-Roma;font-size:9.96px;stroke:none;">47</text>
   <text y="675.564" x="343.813" svgx:width="0.25" style="fill:rgb(0,0,0);font-family:URWPalladioL-Roma;font-size:9.96px;stroke:none;">,</text>
   <text y="675.564" x="346.253,351.234" svgx:width="0.5,0.5" style="fill:rgb(8,117,183);font-family:URWPalladioL-Roma;font-size:9.96px;stroke:none;">48</text>
   <text y="675.564" x="356.216,359.467,361.957,365.315,374.552,379.882,383.563,388.24,393.571,399.087,403.763,406.888,409.378,411.633,414.816,420.498,425.2788,427.44,433.122,435.963,440.64,444.496,449.378,453.059,457.394,463.076,465.917,470.252,475.134,477.975,480.816,486.3936,488.509,494.377,499.708,503.379,508.71,514.597" svgx:width="0.33,0.25,0.55,0.95,0.55,0.4,0.48,0.55,0.56,0.48,0.4,0.25,0.55,0.33,0.58,0.48,0.55,0.58,0.29,0.48,0.4,0.5,0.4,0.44,0.58,0.29,0.44,0.5,0.29,0.29,0.56,0.55,0.6,0.55,0.4,0.55,0.6,0.42" style="fill:rgb(0,0,0);font-family:URWPalladioL-Roma;font-size:9.96px;stroke:none;">]. Moreover, the hierarchically porous</text>
   <text y="689.074" x="76.535,80.827,84.127,88.044,94.147,98.641,101.941,108.045,111.861,116.6418,119.209,123.704,128.765,134.5418,137.156,143.239,147.055,152.582,158.301,161.246,167.431,172.2118,174.779,179.759,182.34,185.711,190.772,195.064,198.3508,200.853,205.348,211.239,216.3,222.191,228.082,232.93,235.8184,238.376,241.746,247.273,251.257,253.771,257.071,262.962,267.7428,270.3,279.238,282.184,287.812,291.81,296.871,300.171,303.116,308.643,314.41979999999995,317.034,322.56,325.84680000000003,328.431,334.616,337.5044,340.051,342.997,348.523,354.414,358.5972,361.206,366.267,372.158,378.2336,380.843,385.691,388.637,393.485,397.979,401.279,405.095,410.622,416.513,420.6962,423.305,428.366,434.257,440.3326,442.941,449.025,452.841,458.367,464.086,467.032,473.216,478.065,482.2482,484.856,489.705,495.596,501.122,507.226,512.854" svgx:width="0.42,0.33,0.4,0.6,0.44,0.33,0.6,0.4,0.48,0.55,0.44,0.5,0.58,0.55,0.6,0.4,0.55,0.56,0.29,0.61,0.48,0.55,0.5,0.55,0.33,0.5,0.42,0.33,0.55,0.44,0.58,0.5,0.58,0.58,0.48,0.29,0.55,0.33,0.55,0.4,0.55,0.33,0.58,0.48,0.55,0.88,0.29,0.56,0.4,0.5,0.33,0.29,0.55,0.58,0.55,0.55,0.33,0.55,0.61,0.29,0.55,0.29,0.55,0.58,0.42,0.55,0.5,0.58,0.61,0.55,0.48,0.29,0.48,0.44,0.33,0.4,0.55,0.58,0.42,0.55,0.5,0.58,0.61,0.55,0.6,0.4,0.55,0.56,0.29,0.61,0.48,0.42,0.55,0.48,0.58,0.55,0.6,0.56,0.58" style="fill:rgb(0,0,0);font-family:URWPalladioL-Roma;font-size:9.96px;stroke:none;">structure can provide a fast channel for the migration of Li ions and electrons and provides enough</text>
   <text y="702.583" x="76.535,80.759,86.747,91.728,96.151,100.9318,103.414,106.732,112.171,116.155,118.597,121.845,127.643,132.4238,134.906,140.535,145.974,148.873,154.881,163.678,168.4588,170.941,175.713,180.853,186.841,191.822,197.62,201.845,204.744,210.183" svgx:width="0.42,0.6,0.5,0.44,0.48,0.55,0.33,0.55,0.4,0.55,0.33,0.58,0.48,0.55,0.56,0.55,0.29,0.6,0.88,0.48,0.55,0.48,0.52,0.6,0.5,0.58,0.42,0.29,0.55,0.58" style="fill:rgb(0,0,0);font-family:URWPalladioL-Roma;font-size:9.96px;stroke:none;">space for the volume expansion</text>
   <text y="702.583" x="215.981" svgx:width="0.29" style="fill:rgb(0,0,0);font-family:Rpxr;font-size:9.96px;stroke:none;">/</text>
   <text y="702.583" x="218.84,223.263,228.703,234.501,237.749,241.684,246.666,251.089,254.337,257.236,262.675,268.4518,270.964,277.051,283.059,286.994,289.893,295.691,301.2686,303.721,308.145,313.684,318.107,321.006,323.906,329.704,335.2816,337.734,340.981,346.459,348.912,354.351,359.861,363.108,368.09,370.989,376.76579999999996,379.278,384.25800000000004,386.75,390.974,394.222,399.203,404.712,407.611,412.3918,414.874,420.961,423.8494,426.351,430.575,433.823,439.263,443.198,448.179,453.718,458.4988,460.981" svgx:width="0.44,0.55,0.58,0.33,0.4,0.5,0.44,0.33,0.29,0.55,0.58,0.55,0.61,0.6,0.4,0.29,0.58,0.56,0.55,0.44,0.56,0.44,0.29,0.29,0.58,0.56,0.55,0.33,0.55,0.55,0.55,0.55,0.33,0.5,0.29,0.58,0.55,0.5,0.55,0.42,0.33,0.5,0.55,0.29,0.48,0.55,0.61,0.29,0.55,0.42,0.33,0.55,0.4,0.5,0.56,0.48,0.55,0.33" style="fill:rgb(0,0,0);font-family:URWPalladioL-Roma;font-size:9.96px;stroke:none;">contraction during cycling to obtain a stable Li storage [</text>
   <text y="702.583" x="464.299,469.28" svgx:width="0.5,0.5" style="fill:rgb(8,117,183);font-family:URWPalladioL-Roma;font-size:9.96px;stroke:none;">49</text>
   <text y="702.583" x="474.261,477.579" svgx:width="0.33,0.25" style="fill:rgb(0,0,0);font-family:URWPalladioL-Roma;font-size:9.96px;stroke:none;">].</text>
   <text y="716.092" x="97.795,103.445,106.402,112.052,118.18,122.011" svgx:width="0.56,0.29,0.56,0.6,0.4,0.48" style="fill:rgb(0,0,0);font-family:URWPalladioL-Roma;font-size:9.96px;stroke:none;">Figure</text>
   <text y="716.092" x="129.398" svgx:width="0.5" style="fill:rgb(8,117,183);font-family:URWPalladioL-Roma;font-size:9.96px;stroke:none;">3</text>
   <text y="716.092" x="134.479,139.459,142.07,146.379,152.293,157.841,166.316,170.4992,173.135,178.11499999999998,180.736,186.071,192.28,204.403,207.36,216.333,221.414,227.064,231.8448,234.441,239.99,243.2768,245.894,249.207,255.121,259.90180000000004,262.498,270.953,277.091,284.295,286.785,289.346,292.77,296.0568,298.603,301.56,305.7432,308.379,312.891,315.848,320.716,325.796,329.81,332.768,338.3456,340.927,345.236,351.15,356.699,365.174,370.95079999999996,373.608,376.921,382.835,387.916,391.2028,393.739,397.051,402.966,407.7468,410.343,418.798,424.935,432.0066,434.66,439.528,444.771,450.686,453.643,459.262,462.219,465.532,469.7152,472.351,477.331,479.942,483.254,488.904,495.012,497.969,502.481,507.562,510.519,513.476" svgx:width="0.5,0.55,0.42,0.58,0.55,0.83,0.42,0.55,0.5,0.55,0.52,0.61,0.95,0.29,0.88,0.5,0.56,0.48,0.55,0.55,0.33,0.55,0.33,0.58,0.48,0.55,0.83,0.6,0.71,0.25,0.55,0.34,0.33,0.55,0.29,0.42,0.55,0.44,0.29,0.48,0.5,0.4,0.29,0.56,0.55,0.42,0.58,0.55,0.83,0.58,0.55,0.33,0.58,0.5,0.33,0.55,0.33,0.58,0.48,0.55,0.83,0.6,0.71,0.55,0.48,0.52,0.58,0.29,0.55,0.29,0.33,0.42,0.55,0.5,0.55,0.33,0.56,0.6,0.29,0.44,0.5,0.29,0.29,0.56" style="fill:rgb(0,0,0);font-family:URWPalladioL-Roma;font-size:9.96px;stroke:none;">a shows a SEMimage of the HPC. It is clearly shown that the HPC exhibits a typically</text>
   <text y="729.602" x="76.236,82.158,87.537,91.252,96.632,102.573,106.75619999999999,109.244,113.421,116.633,120.446,126.388,130.763,133.975,139.916,143.631,148.4118,150.853,159.07,161.937,165.14,170.9168,173.377,177.269,180.136,184.511,190.2878,192.748,201.448,206.375,210.749,214.454,219.834,225.755,231.135,234.85,239.569,243.7522,246.25,249.531,254.511,256.95,260.231,264.951,275.671,281.405,287.347,293.081,299.101,302.806,307.526,313.6016,316.049,321.783,326.71,332.444,337.824,346.524,351.243,354.456,359.175,363.067,367.2502,369.738,372.605,378.3818,380.842,386.862,389.729,394.656,403.356,408.076,411.288,416.007,419.899,423.18,425.67,429.151,434.63,437.497,442.975,448.916,452.631" svgx:width="0.6,0.55,0.4,0.55,0.6,0.42,0.55,0.42,0.33,0.4,0.6,0.44,0.33,0.6,0.4,0.48,0.55,0.83,0.29,0.33,0.58,0.55,0.4,0.29,0.44,0.58,0.55,0.88,0.5,0.44,0.4,0.55,0.6,0.55,0.4,0.48,0.42,0.55,0.33,0.5,0.55,0.33,0.48,0.83,0.58,0.6,0.58,0.61,0.4,0.48,0.61,0.55,0.58,0.5,0.58,0.55,0.88,0.48,0.33,0.48,0.4,0.42,0.55,0.29,0.58,0.55,0.61,0.29,0.5,0.88,0.48,0.33,0.48,0.4,0.33,0.25,0.55,0.56,0.29,0.56,0.6,0.4,0.48" style="fill:rgb(0,0,0);font-family:URWPalladioL-Roma;font-size:9.96px;stroke:none;">porous structure with rich macropores (a fewhundred nanometers in diameter). Figure</text>
   <text y="729.602" x="459.843" svgx:width="0.5" style="fill:rgb(8,117,183);font-family:URWPalladioL-Roma;font-size:9.96px;stroke:none;">3</text>
   <text y="729.602" x="464.77,470.219,475.145,479.9258,482.367,488.289,492.004,496.723,500.901,505.62,511.355,514.567" svgx:width="0.55,0.5,0.48,0.55,0.6,0.4,0.48,0.42,0.48,0.58,0.33,0.42" style="fill:rgb(0,0,0);font-family:URWPalladioL-Roma;font-size:9.96px;stroke:none;">b–e presents</text>
   <text y="743.111" x="76.226,82.388,88.53,100.532,103.458,112.334,117.36,122.949,127.764,131.9472,134.519,140.008,143.2948,145.858,149.135,154.985,159.7658,162.293,170.657,176.729,183.856,186.346,188.862,196.6308,199.175,202.1,207.127,210.916,216.505,221.2858,223.813,229.664,235.725,244.601,250.16,254.975,258.959,261.449,266.938,270.2248,272.778,278.819,284.308,288.098,292.913,297.0962,299.668,303.015,306.292,311.107,316.958,321.1412,323.713,326.99,332.468,334.971,340.822,346.883,352.733,358.875,362.675,367.49,373.632,377.8152,380.387,385.876,389.1628,391.716,397.566,402.593,408.443,413.932,422.808,427.623,430.9,435.715,439.685,443.8682,446.441,449.366,455.14279999999997,457.709,463.851,466.776,471.802,480.679,485.494,488.771,493.586,497.556,500.8428,503.397,507.86,512.886" svgx:width="0.61,0.61,0.95,0.29,0.88,0.5,0.56,0.48,0.42,0.55,0.55,0.33,0.55,0.33,0.58,0.48,0.55,0.83,0.6,0.71,0.25,0.55,0.78,0.55,0.29,0.5,0.4,0.56,0.48,0.55,0.58,0.6,0.88,0.55,0.48,0.4,0.55,0.55,0.33,0.55,0.6,0.55,0.4,0.48,0.42,0.55,0.33,0.33,0.48,0.58,0.42,0.55,0.33,0.55,0.55,0.58,0.6,0.58,0.61,0.4,0.48,0.61,0.42,0.55,0.55,0.33,0.55,0.58,0.5,0.58,0.55,0.88,0.48,0.33,0.48,0.4,0.42,0.55,0.29,0.58,0.55,0.61,0.29,0.5,0.88,0.48,0.33,0.48,0.4,0.33,0.55,0.44,0.5,0.58" style="fill:rgb(0,0,0);font-family:URWPalladioL-Roma;font-size:9.96px;stroke:none;">TEMimages of the HPC. A large number of pores (tens to hundreds of nanometers in diameter) can</text>
   <text y="756.621" x="76.535,82.155,86.9358,89.573,92.957,98.505,104.633,110.547,116.62259999999999,119.316,122.273,128.0498,130.738,136.388,139.345,144.995,151.123,154.954" svgx:width="0.55,0.48,0.55,0.33,0.55,0.6,0.58,0.61,0.55,0.29,0.58,0.55,0.56,0.29,0.56,0.6,0.4,0.48" style="fill:rgb(0,0,0);font-family:URWPalladioL-Roma;font-size:9.96px;stroke:none;">be found in Figure</text>
   <text y="756.621" x="162.382" svgx:width="0.5" style="fill:rgb(8,117,183);font-family:URWPalladioL-Roma;font-size:9.96px;stroke:none;">3</text>
   <text y="756.621" x="167.463,173.083,175.623,180.135,182.625,185.247,188.63,194.179,198.193,207.166,210.123,216.037,221.6146,224.238,227.55,233.464,238.2448,240.883,247.031,251.044,255.353,258.63980000000004,261.227,265.739,268.696,273.777,278.085,282.2682,284.944,291.052,296.6,300.431,305.299,309.607,312.09700000000004,315.826,321.964,324.921,329.789,335.703,339.016,344.59360000000004,347.226,352.775,356.0618,358.709,367.682,372.55,376.858,382.407,388.514,394.062,397.893,402.761,406.9442,409.63,418.105,421.062,424.375,430.1518,432.84,437.82,440.472,446.68,449.638,454.719,463.691,468.559,471.872,476.739,480.72299999999996,483.314,488.862,492.14880000000005,494.797,499.77700000000004,502.428,505.812,510.68" svgx:width="0.55,0.25,0.44,0.25,0.55,0.33,0.55,0.4,0.88,0.29,0.58,0.56,0.55,0.33,0.58,0.48,0.55,0.61,0.4,0.42,0.33,0.55,0.44,0.29,0.5,0.42,0.42,0.55,0.6,0.55,0.4,0.48,0.42,0.25,0.55,0.6,0.29,0.48,0.58,0.33,0.56,0.55,0.55,0.33,0.55,0.88,0.48,0.42,0.55,0.6,0.55,0.4,0.48,0.42,0.55,0.83,0.29,0.33,0.58,0.55,0.5,0.55,0.61,0.29,0.5,0.88,0.48,0.33,0.48,0.4,0.55,0.55,0.33,0.55,0.5,0.55,0.33,0.48,0.83" style="fill:rgb(0,0,0);font-family:URWPalladioL-Roma;font-size:9.96px;stroke:none;">b,c, forming the ﬁrst class pores. Plenty of mesopores with a diameter of a few</text>
  </g>
 </g>
</svg>
