<?xml version="1.0" encoding="UTF-8"?>
<svg height="774.244" width="4165.638" xmlns="http://www.w3.org/2000/svg">
 <g id="page" xmlns:svgx="http://www.xml-cml.org/schema/svgx">
  <path style="fill:rgb(206,221,228);stroke:none;stroke-width:1.0;" d="M382.560 8.590 L382.560 26.390 L548.650 26.390 C548.650 26.390 554.310 26.390 554.310 20.720 L554.310 8.590 Z"/>
  <g begin="text">
   <text y="764.23" x="544.339,549.839" svgx:width="0.45,0.48" style="fill:rgb(206,221,228);font-family:Corbel2;font-size:10.0px;stroke:none;">15</text>
   <text y="764.244" x="40.794,45.842,50.946,53.586,58.562,64.818,69.81,72.45,77.05,79.69" svgx:width="0.58,0.58,0.28,0.57,0.73,0.57,0.28,0.52,0.28,0.58" style="fill:rgb(0,0,0);font-family:Corbel-Bold2;font-size:8.0px;stroke:none;">Scientific</text>
   <text y="764.244" x="84.65" svgx:width="0.2" style="fill:rgb(0,0,0);font-family:Corbel2;font-size:8.0px;stroke:none;"> </text>
   <text y="764.244" x="86.25,91.706,96.682,101.922,108.226,113.682,118.674" svgx:width="0.63,0.57,0.6,0.73,0.63,0.57,0.58" style="fill:rgb(0,0,0);font-family:Corbel-Bold2;font-size:8.0px;stroke:none;">RepoRtS</text>
   <text y="764.244" x="123.57,125.01,126.826" svgx:width="0.2,0.23,0.2" style="fill:rgb(0,0,0);font-family:Corbel2;font-size:8.0px;stroke:none;"> | </text>
   <text y="764.244" x="128.266,129.722,131.178,132.634,134.09,135.546,137.002,138.458,139.914,142.186,146.122,150.058,153.994,157.93,160.202,161.658,165.594,169.53,171.218,175.154,179.09,183.026,186.962" svgx:width="0.18,0.18,0.18,0.18,0.18,0.18,0.18,0.18,0.28,0.49,0.49,0.49,0.49,0.28,0.18,0.49,0.49,0.21,0.49,0.49,0.49,0.49,0.18" style="fill:rgb(0,0,0);font-family:MyriadPro-It;font-size:8.0px;stroke:none;"> (2020) 10:3812 </text>
   <text y="764.244" x="188.418,189.858,191.674" svgx:width="0.2,0.23,0.2" style="fill:rgb(0,0,0);font-family:Corbel2;font-size:8.0px;stroke:none;"> | </text>
   <text y="764.244" x="193.114,197.37,200.146,202.922,207.17,210.402,212.514,214.714,216.914,221.202,225.466,227.322,229.434,233.698,236.378,240.626,242.826,246.93,251.034,253.146,257.25,261.354,265.458,269.562,271.762,274.994,279.098,283.202,287.306,291.41,295.514,298.178,302.282,306.386,310.49,313.154,317.258,321.362,325.466,329.57,333.674,336.338" svgx:width="0.53,0.35,0.35,0.53,0.4,0.26,0.28,0.28,0.54,0.53,0.23,0.26,0.53,0.34,0.53,0.28,0.51,0.51,0.26,0.51,0.51,0.51,0.51,0.28,0.4,0.51,0.51,0.51,0.51,0.51,0.33,0.51,0.51,0.51,0.33,0.51,0.51,0.51,0.51,0.51,0.33,0.48" style="fill:rgb(0,0,0);font-family:Corbel;font-size:8.0px;stroke:none;">https://doi.org/10.1038/s41598-020-60633-y</text>
  </g>
  <g begin="text">
   <text y="22.277" x="389.724,397.484,405.243,412.702,415.869,421.732,427.216,431.234,437.005,440.9,446.465,449.633,454.583,460.508,469.466,472.746,477.349,482.299,485.139,490.699,496.562,500.58,503.419,507.14,509.979,514.93,518.825,524.391,530.295,536.219,540.115,544.133" svgx:width="0.71,0.71,0.71,0.26,0.53,0.49,0.35,0.52,0.34,0.5,0.26,0.44,0.53,0.83,0.28,0.4,0.44,0.23,0.5,0.53,0.35,0.23,0.32,0.23,0.44,0.34,0.5,0.53,0.53,0.34,0.35,0.4" style="fill:rgb(0,0,0);font-family:Corbel2;font-size:10.25px;stroke:none;">www.nature.com/scientificreports</text>
  </g>
  <path style="fill:none;stroke:rgb(0,0,0);stroke-width:1.0;" d="M40.640 752.550 L554.640 752.550 "/>
  <g begin="text">
   <text y="22.46" x="40.638,48.208,55.778,63.055,66.145,71.865,77.215,81.135,86.765,90.565,95.995,99.085,103.915,109.695,118.435,121.635,126.125,130.955,133.725,139.15,144.87,148.79,151.56,155.19,157.96,162.79,166.59,172.02,177.78,183.56,187.36,191.28,195.77" svgx:width="0.71,0.71,0.71,0.26,0.53,0.49,0.35,0.52,0.34,0.5,0.26,0.44,0.53,0.83,0.28,0.4,0.44,0.23,0.5,0.53,0.35,0.23,0.32,0.23,0.44,0.34,0.5,0.53,0.53,0.34,0.35,0.4,0.28" style="fill:rgb(0,0,0);font-family:Corbel2;font-size:10.0px;stroke:none;">www.nature.com/scientificreports/</text>
  </g>
  <g begin="text">
   <text y="542.923" x="155.638,162.062,168.156,174.261,179.112,181.884,187.879,192.543,195.282,201.376" svgx:width="0.58,0.55,0.56,0.44,0.25,0.55,0.42,0.25,0.55,0.56" style="fill:rgb(0,0,0);font-family:Corbel-Bold2;font-size:11.0px;stroke:none;">conclusion</text>
   <text y="552.923" x="155.638,158.554,163.468,165.196,167.986,172.747,176.563,178.291,182.89,186.103,189.919,193.285,197.101,201.844,204.58,206.308,212.392,216.865,220.159,224.614,226.657,228.385,232.246,237.16,238.888,242.875,245.035,247.717,251.533,254.917,259.804,263.575,266.356,268.696,272.782,276.598,278.326,285.652,289.468,292.258,297.019,301.681,306.424,308.152,310.726,315.199,318.529,320.257,322.912,326.782,331.237,334.621,337.024,340.849,344.62,347.401,349.804,354.647,358.85,360.578,365.465,367.868,371.063,373.466,377.939,382.853,384.581,388.361,390.629,394.49,398.351,401.132,404.345,409.007,413.75,417.566,420.86,422.588,424.991,429.833,433.082,437.682,440.085,443.298,447.159,451.902,453.63,458.104,460.759,462.487,465.277,470.038,473.854,475.582,480.334,484.105,488.893,492.709,495.823,499.018,506.353,510.34,514.831,517.234,522.076,526.279,528.007,532.606,535.819,540.481,544.279,548.095,551.344,554.647" svgx:width="0.34,0.55,0.23,0.31,0.53,0.43,0.23,0.52,0.37,0.43,0.37,0.43,0.55,0.31,0.23,0.69,0.51,0.37,0.5,0.23,0.23,0.44,0.55,0.23,0.44,0.25,0.31,0.43,0.37,0.55,0.44,0.31,0.27,0.46,0.43,0.23,0.82,0.43,0.31,0.53,0.51,0.53,0.23,0.3,0.51,0.37,0.23,0.3,0.44,0.51,0.37,0.27,0.42,0.44,0.31,0.27,0.55,0.47,0.23,0.54,0.27,0.36,0.27,0.51,0.55,0.23,0.43,0.25,0.43,0.42,0.31,0.37,0.51,0.53,0.43,0.37,0.23,0.27,0.55,0.37,0.52,0.27,0.37,0.43,0.53,0.23,0.51,0.3,0.23,0.31,0.53,0.43,0.23,0.52,0.44,0.52,0.43,0.37,0.36,0.82,0.44,0.5,0.27,0.55,0.47,0.23,0.52,0.37,0.51,0.42,0.43,0.37,0.37,0.23" style="fill:rgb(0,0,0);font-family:MinionPro-Regular;font-size:9.0px;stroke:none;">In the present work, an alternative method for fabricating Li-ion electrodes inspired of the paper-making process </text>
   <text y="562.922" x="155.638,158.113,161.506,163.657,168.355,171.667,176.249,181.136,185.816,189.281,193.241,198.029,200.171,202.322,212.015,215.93,218.081,222.923,226.388,230.303,232.454,237.027,239.781,241.932,246.018,248.277,253.146,260.607,263.109,267.951,272.82,280.281,283.35,287.247,291.828,296.535,301.422,305.337,308.766,310.917,314.877,319.746,323.229,326.541,330.456,335.298,338.133,340.284,344.181,348.798,351.21,353.577,357.537,361.497,364.278,368.85,372.225,375.618,377.76,379.911,383.808,388.488,391.836,394.725,397.029,401.25,403.401,407.955,410.457,415.434,420.276,424.191,427.566,430.959,433.101,435.252,439.213,444.19,449.032,451.183,456.052,460.012,463.495,470.956,473.764,478.678,481.045,483.196,486.661,491.278,493.583,497.768,501.683,506.525,509.36,512.753,514.904,518.107,524.884,532.993,538.15,541.354,543.505,547.465,550.777,554.602" svgx:width="0.27,0.37,0.23,0.52,0.37,0.51,0.52,0.51,0.37,0.43,0.53,0.23,0.23,1.07,0.43,0.23,0.53,0.37,0.43,0.23,0.51,0.3,0.23,0.44,0.25,0.53,0.82,0.27,0.55,0.53,0.82,0.33,0.42,0.51,0.52,0.52,0.43,0.37,0.23,0.42,0.53,0.37,0.37,0.43,0.55,0.31,0.23,0.42,0.51,0.25,0.25,0.43,0.42,0.31,0.51,0.37,0.37,0.23,0.23,0.42,0.51,0.37,0.31,0.25,0.46,0.23,0.51,0.27,0.55,0.53,0.43,0.37,0.37,0.23,0.23,0.44,0.55,0.53,0.23,0.53,0.44,0.37,0.82,0.3,0.53,0.25,0.23,0.37,0.51,0.25,0.46,0.43,0.55,0.31,0.37,0.23,0.35,0.74,0.89,0.56,0.35,0.23,0.44,0.37,0.43,0.23" style="fill:rgb(0,0,0);font-family:MinionPro-Regular;font-size:9.0px;stroke:none;">is proposed. The use of aluminum/copper current collectors, costly binders, and harmful solvents (NMP) are </text>
   <text y="572.921" x="155.638,159.427,163.522,168.004,170.416,175.168,179.038,183.79,185.653,188.065,192.988,194.851,197.649,202.455,204.84,208.143,210.006,212.67,216.549,221.013,224.406,226.818,230.652,234.432,237.221,239.633,244.115,249.038,250.901,258.235,262.06,264.859,269.629,274.3,278.998,281.05,282.913,292.516,296.341,299.716,303.541,305.404,309.274,312.496,316.321,318.184,321.406,325.231,329.884,332.188,336.139,339.946,343.816,348.568,350.431,356.623,358.927,361.726,366.532,368.395,373.282,377.764,382.687,385.891,393.226,397.897,402.649,405.061,409.876,413.746,418.498,420.361,424.168,427.957,430.279,432.448,437.272,439.549,444.139,447.514,451.284,453.336,455.199,461.427,466.233,468.645,472.398,477.204,479.067,481.452,484.755,486.618,490.488,495.411,497.274,501.153,505.626,510.405,515.292,520.071,523.941,528.693,531.438,533.49,535.353,540.249,544.029,546.684,551.463" svgx:width="0.44,0.46,0.51,0.27,0.53,0.43,0.53,0.23,0.27,0.55,0.23,0.31,0.53,0.27,0.37,0.23,0.3,0.44,0.51,0.37,0.27,0.42,0.44,0.31,0.27,0.51,0.55,0.23,0.82,0.43,0.31,0.53,0.51,0.53,0.23,0.23,1.07,0.43,0.37,0.43,0.23,0.44,0.37,0.43,0.23,0.37,0.43,0.52,0.25,0.44,0.42,0.43,0.53,0.23,0.69,0.27,0.31,0.53,0.23,0.55,0.51,0.55,0.36,0.82,0.51,0.53,0.27,0.54,0.43,0.53,0.23,0.42,0.43,0.25,0.25,0.53,0.25,0.51,0.37,0.43,0.23,0.23,0.69,0.53,0.27,0.42,0.53,0.23,0.27,0.37,0.23,0.44,0.55,0.23,0.44,0.51,0.53,0.55,0.53,0.44,0.55,0.31,0.23,0.23,0.55,0.44,0.31,0.53,0.36" style="fill:rgb(0,0,0);font-family:MinionPro-Regular;font-size:9.0px;stroke:none;">avoided in this fabrication method. These are replaced with non-modified cellulose, which is an abundant, natu-</text>
   <text y="582.92" x="155.638,158.95,162.921,165.119,167.144,168.854,172.7,177.562,182.287,183.997,186.247,190.669,196.807,199.984,203.764,208.327,211.56,214.278,215.988,220.761,225.264,227.454,231.586,238.897,242.695,245.442,247.467,249.177,258.756,262.554,264.264,267.54,269.925,277.1,281.729,283.979,287.777,289.487,293.333,298.195,302.92,304.63,307.942,311.698,316.282,318.667,323.392,325.102,329.685,332.883,337.529,341.309,345.107,348.34,351.616,353.326,355.686,358.962,360.672,364.527,368.426,371.702,374.135,376.323,380.427,382.137,385.488,389.298,393.269,395.548,399.402,403.887,406.137,409.935,411.645,415.491,420.352,425.077,426.787,431.245,436.189,438.379,442.483,444.193,448.919,452.27,456.068,459.344,461.054,467.192,470.948,473.614,477.412,480.724,482.434,486.334,489.61,491.32,494.671,499.173,501.362,505.433,509.231,513.958,516.676,518.386,521.053,525.616,527.326,531.909,535.106,538.904,543.64,547.486,550.683,554.508" svgx:width="0.37,0.44,0.25,0.23,0.23,0.44,0.55,0.53,0.23,0.25,0.51,0.69,0.36,0.42,0.51,0.37,0.31,0.23,0.52,0.51,0.25,0.46,0.82,0.43,0.37,0.23,0.23,1.07,0.43,0.23,0.37,0.27,0.82,0.52,0.25,0.43,0.23,0.44,0.55,0.53,0.23,0.37,0.44,0.52,0.27,0.53,0.23,0.52,0.37,0.51,0.42,0.43,0.37,0.37,0.23,0.27,0.37,0.23,0.43,0.44,0.37,0.27,0.25,0.46,0.23,0.37,0.42,0.44,0.25,0.44,0.51,0.25,0.43,0.23,0.44,0.55,0.53,0.23,0.51,0.55,0.25,0.46,0.23,0.53,0.37,0.43,0.37,0.23,0.69,0.44,0.31,0.43,0.37,0.23,0.44,0.37,0.23,0.37,0.51,0.25,0.46,0.43,0.55,0.31,0.23,0.31,0.51,0.23,0.52,0.37,0.43,0.52,0.44,0.37,0.43,0.23" style="fill:rgb(0,0,0);font-family:MinionPro-Regular;font-size:9.0px;stroke:none;">ral, and low-cost polymer. The simple and rapid process is easily scalable and only uses water as solvent to prepare </text>
   <text y="592.919" x="155.638,159.616,161.578,164.859,169.636,172.918,177.738,181.59,186.466,189.796,192.235,196.741,201.691,203.653,207.487,211.993,219.217,224.038,228.655,232.054,235.948,240.727,242.689,247.194,249.885,251.847,255.093,258.987,263.766,268.235,272.51,274.472,278.45,282.345,285.158,287.531,291.65,295.502,297.464,304.832,308.635,311.351,315.203,318.62,321.082,325.103,327.35,329.429,331.391,335.225,339.73,344.642,349.31,354.116,358.01,360.824,363.197,367.315,371.167,373.129,376.987,380.881,384.247,388.923,393.43,398.38,400.459,402.421,406.314,411.226,416.005,417.967,421.801,425.614,427.959,430.153,435.0,437.304,441.921,445.319,449.171,451.133,455.936,460.613,464.465,467.774,471.104,473.183,475.145,481.362,486.569,490.421,493.787,495.749,499.031,503.837,507.671,511.505,515.357,518.64,521.97,524.343,528.461,532.313,534.275,539.159,541.352,544.165,547.531,551.509" svgx:width="0.44,0.23,0.37,0.53,0.37,0.52,0.43,0.55,0.37,0.27,0.51,0.55,0.23,0.42,0.51,0.82,0.52,0.51,0.37,0.43,0.53,0.23,0.51,0.3,0.23,0.37,0.43,0.53,0.51,0.47,0.23,0.44,0.42,0.31,0.27,0.46,0.43,0.23,0.82,0.44,0.31,0.43,0.37,0.27,0.44,0.25,0.23,0.23,0.42,0.51,0.55,0.53,0.53,0.42,0.31,0.27,0.46,0.43,0.23,0.42,0.44,0.37,0.51,0.51,0.55,0.23,0.23,0.44,0.55,0.53,0.23,0.42,0.43,0.25,0.25,0.53,0.25,0.51,0.37,0.43,0.23,0.54,0.51,0.43,0.37,0.37,0.23,0.23,0.69,0.58,0.43,0.37,0.23,0.37,0.53,0.42,0.42,0.43,0.37,0.37,0.27,0.46,0.43,0.23,0.54,0.25,0.31,0.37,0.44,0.36" style="fill:rgb(0,0,0);font-family:MinionPro-Regular;font-size:9.0px;stroke:none;">a suspension composed of redox active material, conductive carbon, and cellulose fibers. After successive filtra-</text>
   <text y="602.918" x="155.638,158.428,160.84,165.322,170.173,173.476,175.528,177.436,181.387,183.295,186.669,190.458,192.735,195.399,198.603,201.861,204.66,208.53,213.417,218.169,220.581,225.432,229.644,231.552,235.341,237.618,241.488,245.358,248.148,251.37,256.04,260.792,264.617,266.525,271.385,273.662,281.033,282.941,285.326,288.629,290.537,293.12,297.602,300.995,308.33,312.2,316.898,318.95,320.858,323.576,326.321,328.229,330.614,333.917,335.825,343.169,347.12,351.872,355.697,357.605,362.087,364.751,366.659,370.529,375.452,377.36,381.14,385.757,390.365,393.587,398.033,402.281,404.693,412.036,415.816,418.507,422.296,424.51,428.641,430.549,434.869,439.189" svgx:width="0.31,0.27,0.51,0.55,0.37,0.23,0.23,0.44,0.23,0.37,0.43,0.25,0.3,0.36,0.37,0.31,0.44,0.55,0.53,0.27,0.55,0.47,0.23,0.43,0.25,0.43,0.42,0.31,0.37,0.51,0.53,0.43,0.23,0.54,0.25,0.82,0.23,0.27,0.37,0.23,0.3,0.51,0.37,0.82,0.43,0.53,0.23,0.23,0.34,0.31,0.23,0.27,0.37,0.23,0.82,0.44,0.53,0.43,0.23,0.51,0.3,0.23,0.44,0.55,0.23,0.44,0.52,0.52,0.37,0.51,0.47,0.27,0.82,0.44,0.31,0.43,0.25,0.46,0.23,0.48,0.48,0.36" style="fill:rgb(0,0,0);font-family:MinionPro-Regular;font-size:9.0px;stroke:none;">tions, a self-standing electrode film is formed. It is made of an approximately 20-</text>
   <text y="602.918" x="442.393" svgx:width="0.5" style="fill:rgb(0,0,0);font-family:STIXGeneral-Regular;font-size:9.0px;stroke:none;">µ</text>
   <text y="602.918" x="446.893,454.264,456.172,458.971,463.777,466.189,469.942,474.406,476.314,479.572,482.362,485.584,490.066,494.917,499.129,501.037,504.871,508.741,512.08,516.733,521.215,526.138,528.046,531.915,536.694,540.087,543.309,547.134,551.886,554.631" svgx:width="0.82,0.23,0.31,0.53,0.27,0.42,0.5,0.23,0.37,0.31,0.37,0.51,0.55,0.47,0.23,0.42,0.44,0.37,0.51,0.51,0.55,0.23,0.42,0.53,0.37,0.37,0.43,0.55,0.31,0.23" style="fill:rgb(0,0,0);font-family:MinionPro-Regular;font-size:9.0px;stroke:none;">m thick strong carbon current </text>
   <text y="612.917" x="155.638,159.49,164.061,166.428,168.75,172.665,176.579,179.315,183.841,187.225,189.223,193.714,197.854,201.724,205.108,207.106,213.379,218.23,220.687,224.484,229.335,231.333,234.176,238.992,242.861,244.859,248.693,251.016,254.93,258.845,261.679,264.946,269.661,274.458,278.328,280.326,284.178,288.704,295.949,300.79,305.425,308.773,311.122,313.858,317.728,319.726,322.885,326.764,330.588,333.432,338.246,342.962,347.759,351.629,354.653,358.567,363.499,368.214,373.011,376.881,378.879,386.268,390.092,392.828,396.698,400.136,402.619,406.66,408.982,410.98,414.895,419.826,424.623,426.621,430.499,434.414,437.798,442.496,447.022,451.99,455.149,457.147,459.577,462.925,464.923,469.72,473.59,478.431,483.066,486.414,488.762,491.498,495.412,500.155,502.252,504.25,512.143,515.967,518.703,522.573,525.741,528.99,532.41,536.982,539.195,543.983,548.537,550.859,554.684" svgx:width="0.42,0.51,0.25,0.25,0.43,0.42,0.31,0.51,0.37,0.23,0.51,0.46,0.43,0.37,0.23,0.69,0.53,0.27,0.42,0.53,0.23,0.31,0.53,0.43,0.23,0.43,0.25,0.43,0.42,0.31,0.37,0.51,0.53,0.43,0.23,0.42,0.51,0.82,0.52,0.51,0.37,0.27,0.31,0.43,0.23,0.35,0.42,0.44,0.31,0.53,0.51,0.53,0.43,0.33,0.44,0.55,0.51,0.53,0.43,0.23,0.82,0.44,0.31,0.43,0.37,0.27,0.44,0.25,0.23,0.44,0.55,0.53,0.23,0.42,0.44,0.37,0.51,0.51,0.55,0.35,0.23,0.27,0.37,0.23,0.53,0.43,0.52,0.51,0.37,0.27,0.31,0.43,0.53,0.23,0.23,0.97,0.44,0.31,0.43,0.37,0.36,0.37,0.51,0.25,0.53,0.51,0.25,0.43,0.23" style="fill:rgb(0,0,0);font-family:MinionPro-Regular;font-size:9.0px;stroke:none;">collector over which the electrode composite (cathode/anode material and carbon) is deposited. Water-soluble </text>
   <text y="622.916" x="155.638,159.604,163.607,167.081,171.865,176.479,181.463,184.901,187.205,191.207,196.226,201.113,203.417,208.394,213.29,218.492,220.796,224.799,228.153,232.113,234.417,238.545,240.927,244.434,249.159,251.463,256.202,259.557,264.36,269.136,274.05,277.992,281.994,286.881,289.185,292.008,296.733,299.037,302.391,306.393,311.17,316.084,320.026,323.986,326.29,329.221,334.123,338.083,340.387,345.128,348.482,352.442,357.335,361.338,364.812,368.724,371.645,374.192,378.807,383.865,386.169,389.091,391.638,399.105,403.065,405.369,409.371,414.391,419.278,421.582,424.381,428.467,432.409,434.998,437.41,439.846,442.778,446.69,449.512,453.472,455.776,458.708,463.61,467.57,469.874,474.761,477.278,480.668,485.598,489.558,492.975,496.413,498.96,503.574,508.632,510.936,515.551,518.35,520.654,524.575,526.987,530.988,534.991,537.913,541.267,546.07,550.957,554.782" svgx:width="0.42,0.44,0.37,0.51,0.51,0.55,0.37,0.23,0.44,0.55,0.53,0.23,0.54,0.53,0.56,0.23,0.44,0.37,0.43,0.23,0.44,0.25,0.37,0.51,0.23,0.52,0.37,0.51,0.53,0.53,0.42,0.43,0.53,0.23,0.31,0.51,0.23,0.37,0.43,0.53,0.53,0.42,0.43,0.23,0.31,0.53,0.43,0.23,0.52,0.37,0.43,0.52,0.44,0.37,0.44,0.31,0.27,0.51,0.55,0.23,0.31,0.27,0.82,0.43,0.23,0.44,0.55,0.53,0.23,0.3,0.44,0.42,0.27,0.25,0.27,0.31,0.44,0.31,0.43,0.23,0.31,0.53,0.43,0.23,0.53,0.27,0.37,0.52,0.43,0.37,0.37,0.27,0.51,0.55,0.23,0.51,0.3,0.23,0.43,0.25,0.43,0.42,0.31,0.37,0.51,0.53,0.43,0.23" style="fill:rgb(0,0,0);font-family:MinionPro-Regular;font-size:9.0px;stroke:none;">carbons and LFP are also produced to reduce the preparation time and facilitate the dispersion of electrode </text>
   <text y="632.915" x="155.638,162.979,166.757,169.445,173.27,176.66,179.097,183.09,185.337,188.64,190.377,192.789,197.712,199.449,205.614,209.391,212.08,215.905,218.674,220.726,222.463,232.063,235.888,237.625,242.276,246.101,248.752,251.44,255.265,258.604,260.341,263.561,267.386,272.144,276.01,279.437,282.224,284.525,287.312,289.724,294.204,299.127,300.864,305.342,308.006,309.743,312.539,317.306,321.131,324.503,328.328,330.065,333.897,337.763,341.102,345.752,350.232,355.08,358.383,360.12,362.532,367.455,369.192,371.988,376.755,380.58,382.317,386.104,388.381,392.248,396.115,398.903,402.121,406.789,411.541,415.366,417.103,420.323,424.148,427.403,432.224,434.39,437.135,440.438,442.175,444.587,449.51,451.247,455.114,460.037,461.774,464.186,471.383,475.989,479.208,483.651,487.743,491.61,496.362,498.099,501.885,504.162,508.03,511.897,514.683,517.903,522.571,526.321,531.089,534.914,542.284,544.696,548.528,552.52,554.797" svgx:width="0.82,0.44,0.31,0.43,0.37,0.27,0.44,0.25,0.37,0.23,0.27,0.55,0.23,0.69,0.44,0.31,0.43,0.37,0.23,0.23,1.07,0.43,0.23,0.51,0.43,0.31,0.31,0.43,0.37,0.23,0.37,0.43,0.52,0.44,0.37,0.31,0.27,0.31,0.27,0.51,0.55,0.23,0.51,0.3,0.23,0.31,0.53,0.43,0.37,0.43,0.23,0.42,0.44,0.37,0.51,0.51,0.55,0.37,0.23,0.27,0.55,0.23,0.31,0.53,0.43,0.23,0.43,0.25,0.43,0.42,0.31,0.37,0.51,0.53,0.43,0.23,0.37,0.43,0.37,0.53,0.25,0.31,0.37,0.23,0.27,0.55,0.23,0.44,0.55,0.23,0.27,0.82,0.52,0.37,0.51,0.46,0.43,0.53,0.23,0.43,0.25,0.43,0.42,0.31,0.37,0.51,0.42,0.53,0.43,0.82,0.27,0.42,0.44,0.25,0.23" style="fill:rgb(0,0,0);font-family:MinionPro-Regular;font-size:9.0px;stroke:none;">materials in water. The better repartition of these carbons in the electrode results in an improved electrochemical </text>
   <text y="642.914" x="155.638,160.435,164.26,167.653,170.235,174.717,178.11,185.454,189.324,194.211,198.018,201.789,203.841,205.614,210.375,212.652,216.477,220.725,223.1,227.61,229.887,233.712,235.485,240.327,245.088,248.904,250.956,252.729,257.796,263.277,269.262,275.553,281.772,283.824,285.597,289.853,293.192,296.972,301.625,306.431,308.735,311.426,315.197,317.249,319.022,322.892,327.779,332.531,334.304,338.57,344.051,350.774,352.547,356.336,358.613,362.482,366.352,369.142,372.364,377.035,381.787,385.612,388.915,390.688,396.88,399.184,401.983,406.789,408.562,412.702,417.373,422.044,426.796,428.569,435.904,439.774,443.527,448.306,452.176,457.099,459.511,463.345,467.341,469.618,471.391,474.613,478.438,481.741,484.127,487.384,490.183,494.053,498.94,502.747,506.572,508.345,512.215,515.437,519.262,521.035,525.58,530.053,532.852,536.722,539.134,544.021,547.891,552.589,554.641" svgx:width="0.52,0.43,0.37,0.3,0.51,0.37,0.82,0.44,0.55,0.42,0.43,0.23,0.23,0.53,0.25,0.43,0.47,0.27,0.51,0.25,0.43,0.23,0.54,0.53,0.56,0.23,0.23,0.56,0.62,0.67,0.74,0.69,0.23,0.23,0.47,0.37,0.44,0.52,0.53,0.27,0.31,0.43,0.23,0.23,0.44,0.55,0.53,0.23,0.54,0.62,0.75,0.23,0.43,0.25,0.43,0.42,0.31,0.37,0.51,0.53,0.43,0.37,0.23,0.69,0.27,0.31,0.53,0.23,0.47,0.51,0.51,0.53,0.23,0.82,0.43,0.42,0.53,0.44,0.55,0.27,0.42,0.44,0.25,0.23,0.37,0.43,0.37,0.27,0.37,0.31,0.44,0.55,0.42,0.43,0.23,0.44,0.37,0.43,0.23,0.51,0.51,0.31,0.44,0.27,0.55,0.43,0.53,0.23,0.23" style="fill:rgb(0,0,0);font-family:MinionPro-Regular;font-size:9.0px;stroke:none;">performance. Flexible LFP, PTCDA, graphite, and LTO electrodes with good mechanical resistance are obtained. </text>
   <text y="652.913" x="155.638,165.252,169.086,171.039,174.839,177.125,181.006,184.887,187.688,190.922,195.603,200.364,204.198,207.51,209.463,212.697,216.531,223.886,227.768,230.189,235.121,237.074,239.495,244.257,247.067,251.027,254.908,257.662,259.615,263.496,268.691,272.525,275.873,277.826,282.454,287.242,292.14,295.905,300.72,303.141,308.004,312.253,314.314,316.267,320.23,324.3,328.065,330.351,332.772,337.634,341.884,343.945,345.898,349.78,354.678,359.439,361.392,365.893,370.701,374.535,379.467,381.888,386.75,390.971,392.924,397.418,400.091,402.044,405.86,409.661,411.993,414.254,417.566,419.627,421.58,431.195,435.029,436.982,440.782,443.068,446.949,450.829,453.63,456.864,461.546,465.31,470.091,473.925,481.305,483.726,487.571,491.578,493.864,495.817,500.625,504.459,507.863,510.457,514.951,518.355,525.709,529.591,534.489,538.305,542.139,545.451,547.404,551.898,554.562" svgx:width="1.07,0.43,0.23,0.43,0.25,0.43,0.42,0.31,0.37,0.51,0.53,0.43,0.37,0.23,0.37,0.43,0.82,0.44,0.27,0.55,0.23,0.27,0.55,0.31,0.44,0.42,0.31,0.23,0.44,0.58,0.43,0.37,0.23,0.52,0.53,0.55,0.42,0.53,0.27,0.55,0.47,0.23,0.23,0.42,0.46,0.42,0.25,0.27,0.55,0.47,0.23,0.23,0.44,0.55,0.53,0.23,0.51,0.52,0.43,0.55,0.27,0.55,0.47,0.23,0.51,0.3,0.23,0.42,0.43,0.25,0.25,0.37,0.23,0.23,1.07,0.43,0.23,0.43,0.25,0.43,0.42,0.31,0.37,0.51,0.42,0.53,0.43,0.82,0.27,0.42,0.44,0.25,0.23,0.52,0.43,0.37,0.3,0.51,0.37,0.82,0.44,0.55,0.42,0.43,0.37,0.23,0.51,0.3,0.23" style="fill:rgb(0,0,0);font-family:MinionPro-Regular;font-size:9.0px;stroke:none;">The electrodes remain intact after punching, cycling, and opening of cells. The electrochemical performances of </text>
   <text y="662.912" x="155.638,159.431,164.113,166.817,171.416,174.629,177.899,182.582,187.211,192.02,196.514,199.956,202.658,206.54,211.301,213.254,217.056,219.342,223.223,227.106,229.908,233.142,237.825,242.586,246.42,249.732,251.685,255.567,258.801,262.635,264.588,267.9,270.321,277.701,280.17,282.487,286.368,289.716,291.669,294.372,298.971,300.924,303.735,308.517,313.116,316.504,320.338,322.291,326.443,330.277,335.176,339.01,342.358,346.367,348.701,350.927,355.067,357.02,360.255,364.089,368.898,373.392,376.834,379.536,383.419,388.18,390.133,392.729,397.222,400.57,402.523,407.374,412.144,415.972,418.033,419.986,425.062,430.556,436.55,442.853,449.081,451.142,453.095,457.364,460.712,464.504,469.169,473.984,476.301,479.004,482.787,484.848,486.801,490.683,495.583,500.344,502.297,506.575,512.068,518.8,520.753,524.599,528.535,531.806,534.509,538.39,543.151,545.104,549.599,554.521" svgx:width="0.44,0.53,0.31,0.51,0.36,0.37,0.53,0.52,0.52,0.51,0.37,0.31,0.43,0.53,0.23,0.43,0.25,0.43,0.42,0.31,0.37,0.51,0.53,0.43,0.37,0.23,0.44,0.37,0.43,0.23,0.37,0.27,0.82,0.27,0.25,0.44,0.37,0.23,0.31,0.51,0.23,0.31,0.53,0.51,0.37,0.43,0.23,0.47,0.43,0.55,0.43,0.37,0.44,0.25,0.25,0.46,0.23,0.37,0.43,0.52,0.51,0.37,0.31,0.43,0.53,0.23,0.3,0.51,0.37,0.23,0.54,0.53,0.56,0.23,0.23,0.56,0.62,0.67,0.74,0.69,0.23,0.23,0.47,0.37,0.44,0.52,0.53,0.27,0.31,0.43,0.23,0.23,0.44,0.55,0.53,0.23,0.54,0.62,0.75,0.23,0.42,0.44,0.37,0.31,0.43,0.53,0.23,0.51,0.55,0.23" style="fill:rgb(0,0,0);font-family:MinionPro-Regular;font-size:9.0px;stroke:none;">auto-supported electrodes are similar to those generally reported for LFP, PTCDA, graphite, and LTO casted on </text>
   <text y="672.911" x="155.638,163.011,166.872,169.708,173.742,176.055,178.035,181.942,186.757,190.187,193.447,197.308,202.098,204.879,206.859,210.702,215.267,217.626,219.939,223.846,227.754,230.482,235.002,238.325,241.664,243.644,247.631,251.474,255.317,259.836,263.096,267.884,270.332,275.221,279.469,281.449,284.178,288.804,290.784,293.621,298.428,302.289,304.27,308.112,312.632,317.385,321.519,325.38,330.17,332.998,335.446,339.965,344.899,348.932,351.245,353.225,358.013,362.722,366.63,369.358,373.877,377.252,379.232,383.779,386.121,390.108,394.896,398.757,400.737,404.609,408.571,411.865,414.693,417.141,422.03,426.278,428.258,435.631,439.492,442.329,447.136,451.845,456.581,458.669,460.649,470.29,474.151,476.131,479.391,483.252,486.547,491.408,493.615,496.396,499.735,501.715,506.235,508.935,510.915,513.228,517.748,522.637,526.885,528.865,532.852,536.949,540.74,543.053,545.501,550.39,554.602" svgx:width="0.82,0.43,0.31,0.44,0.25,0.23,0.42,0.53,0.37,0.37,0.43,0.55,0.31,0.23,0.42,0.51,0.25,0.25,0.43,0.42,0.31,0.51,0.37,0.37,0.23,0.44,0.42,0.42,0.51,0.37,0.53,0.27,0.55,0.47,0.23,0.31,0.51,0.23,0.31,0.53,0.43,0.23,0.42,0.51,0.55,0.46,0.43,0.55,0.31,0.27,0.51,0.55,0.44,0.25,0.23,0.53,0.51,0.42,0.31,0.51,0.37,0.23,0.51,0.25,0.44,0.53,0.43,0.23,0.42,0.44,0.37,0.31,0.27,0.55,0.47,0.23,0.82,0.43,0.31,0.53,0.51,0.53,0.23,0.23,1.07,0.43,0.23,0.37,0.43,0.37,0.53,0.25,0.31,0.37,0.23,0.51,0.3,0.23,0.25,0.51,0.55,0.47,0.23,0.42,0.46,0.42,0.25,0.27,0.55,0.47,0.23" style="fill:rgb(0,0,0);font-family:MinionPro-Regular;font-size:9.0px;stroke:none;">metal current collectors according to the conventional doctor blade casting method. The results of long cycling </text>
   <text y="682.91" x="155.638,159.508,163.801,168.64,172.51,175.946,178.403,185.782,189.652,194.447,197.237,200.585,202.574,206.426,210.95,215.88,220.567,225.391,229.303,232.037,235.949,240.746,242.735,247.261,252.229,254.218,256.978,261.844,264.209,266.531,268.52,273.407,278.213,283.325,286.349,290.659,296.182,302.95,304.939,308.852,313.782,318.579,320.568,325.455,330.261,335.373,338.397,342.698,346.082,349.905,354.6,359.451,361.797,364.532,368.402,370.391,375.05,378.873,381.57,384.305,388.175,391.611,394.068,397.938,401.286,403.275,405.732,410.661,415.458,417.915,421.792,425.615,428.349,432.219,434.208,437.049,441.871,445.694,448.484,450.473,453.315,458.127,461.997,465.414,469.284,471.273,475.125,478.958,481.322,483.615,486.963,488.952,493.774,497.607,501.744,505.614,507.603,511.599,513.588,516.853,520.723,528.11,532.023,535.369,539.878,543.8,548.351,550.608,554.739" svgx:width="0.43,0.47,0.52,0.43,0.37,0.27,0.82,0.43,0.55,0.31,0.37,0.23,0.42,0.51,0.55,0.53,0.53,0.42,0.31,0.43,0.53,0.23,0.51,0.55,0.23,0.3,0.53,0.25,0.25,0.23,0.54,0.53,0.56,0.33,0.54,0.62,0.75,0.23,0.44,0.55,0.53,0.23,0.54,0.53,0.56,0.33,0.47,0.37,0.44,0.52,0.53,0.27,0.31,0.43,0.23,0.51,0.44,0.31,0.31,0.43,0.37,0.27,0.43,0.37,0.23,0.27,0.55,0.53,0.27,0.42,0.44,0.31,0.43,0.23,0.31,0.53,0.44,0.31,0.23,0.31,0.53,0.43,0.37,0.43,0.23,0.42,0.43,0.25,0.25,0.37,0.23,0.53,0.44,0.46,0.43,0.23,0.44,0.23,0.37,0.43,0.82,0.44,0.37,0.5,0.44,0.51,0.25,0.46,0.23" style="fill:rgb(0,0,0);font-family:MinionPro-Regular;font-size:9.0px;stroke:none;">experiments conducted on full LFP/LTO and LFP/graphite batteries indicate that these cells have a remarkably </text>
   <text y="692.909" x="155.638,159.854,164.601,169.348,174.172,176.278,179.612,182.487,186.442,190.982,193.514,195.863,198.243,201.092,205.295,207.401,213.668,216.049,218.923,223.801,225.907,230.785,233.269,237.62,242.498,244.604,247.937,252.81,256.756,260.635,263.119,268.006,271.885,273.991,277.9,281.757,286.593,290.616,294.495,296.875,299.741,302.225,306.122,309.497,311.621,313.727,319.994,324.989,327.095,331.167,333.564,335.913,339.189,343.747,347.09,351.374,355.321,360.316,362.8,366.679,368.785,373.469,376.767,381.334,384.101,388.668,391.516,395.719,400.593,404.49,406.596,411.735,417.291,423.348,429.715,436.006,439.057,443.39,446.801,450.656,455.386,460.264,462.644,465.411,469.308,471.414,476.107,479.963,482.694,485.461,489.358,493.034,497.237,499.343,505.611,507.992,510.866,515.713,520.279,525.027,527.844,529.95,533.973,536.079,538.944,542.355,546.301,551.296" svgx:width="0.47,0.51,0.51,0.53,0.23,0.37,0.31,0.44,0.51,0.27,0.25,0.27,0.31,0.46,0.23,0.69,0.27,0.31,0.53,0.23,0.53,0.27,0.47,0.53,0.23,0.37,0.52,0.43,0.42,0.27,0.54,0.42,0.23,0.42,0.44,0.52,0.44,0.42,0.27,0.31,0.27,0.43,0.37,0.23,0.23,0.69,0.55,0.23,0.44,0.25,0.25,0.36,0.51,0.37,0.47,0.44,0.55,0.27,0.42,0.23,0.52,0.37,0.51,0.31,0.51,0.31,0.46,0.52,0.43,0.23,0.56,0.62,0.67,0.74,0.69,0.33,0.47,0.37,0.44,0.52,0.53,0.27,0.31,0.43,0.23,0.51,0.44,0.31,0.31,0.43,0.37,0.46,0.23,0.69,0.27,0.31,0.53,0.51,0.53,0.31,0.23,0.44,0.23,0.31,0.37,0.44,0.55,0.36" style="fill:rgb(0,0,0);font-family:MinionPro-Regular;font-size:9.0px;stroke:none;">good stability with high specific capacities. An all-organic prototype PTCDA/graphite battery without a tran-</text>
   <text y="702.908" x="155.638,159.013,161.393,164.258,166.742,171.3,176.295,178.401,185.811,189.708,192.583,196.655,199.004,201.11,203.57,206.945,209.051,213.736,217.033,220.93,225.767,229.712,233.011,236.957,241.781,243.887,247.832,252.796,257.62,259.726,263.59,265.939,269.885,273.83,276.696,279.995,284.741,288.57,293.415,297.312,304.755,307.239,311.149,315.221,317.618,319.909,324.112,326.218,328.984,332.881,336.215,338.982,342.928,347.702,349.826,351.931,354.726,357.543,359.649,362.11,365.485,367.591,371.537,378.948,383.505,388.432,392.716,394.822,397.697,402.543,406.44,408.546,413.433,416.793,420.128,422.945,425.051,428.502,432.366,434.715,437.451,440.727,444.061,446.935,450.881,455.844,460.668,463.152,468.079,472.363,474.469,479.163,483.018,485.749,488.516,492.413,495.882,498.366,502.263,505.638,507.744,511.623,516.181,523.457,528.329,532.991,536.442,540.388,545.212,547.318,551.875,554.539" svgx:width="0.37,0.27,0.31,0.27,0.51,0.55,0.23,0.82,0.43,0.31,0.44,0.25,0.23,0.27,0.37,0.23,0.52,0.37,0.43,0.52,0.44,0.37,0.43,0.53,0.23,0.44,0.55,0.53,0.23,0.43,0.25,0.43,0.42,0.31,0.37,0.51,0.42,0.53,0.43,0.82,0.27,0.42,0.44,0.25,0.25,0.46,0.23,0.31,0.43,0.37,0.31,0.43,0.53,0.23,0.23,0.34,0.31,0.23,0.27,0.37,0.23,0.44,0.82,0.51,0.55,0.47,0.23,0.31,0.53,0.43,0.23,0.54,0.37,0.37,0.31,0.23,0.37,0.43,0.25,0.3,0.36,0.37,0.31,0.44,0.55,0.53,0.27,0.55,0.47,0.23,0.51,0.44,0.31,0.31,0.43,0.37,0.27,0.43,0.37,0.23,0.42,0.51,0.82,0.52,0.51,0.37,0.43,0.53,0.23,0.51,0.3,0.23" style="fill:rgb(0,0,0);font-family:MinionPro-Regular;font-size:9.0px;stroke:none;">sition metal is prepared and electrochemically tested. It is among the first self-standing batteries composed of </text>
   <text y="712.907" x="155.638,160.13,163.407,167.628,171.507,176.439,178.86,182.676,184.629,187.861,191.741,196.502,200.958,205.215,207.168,214.512,219.048,221.334,225.214,229.093,233.927,236.213,240.047,243.359,245.312,249.192,254.089,258.85,260.803,265.277,267.698,272.378,277.139,280.973,285.24,288.588,292.548,297.337,301.226,305.744,308.03,311.865,313.818,317.634,322.125,329.334,334.141,338.633,343.53,347.364,352.126,354.88,358.192,360.145,363.377,367.211,372.018,376.51,379.948,382.649,386.529,391.29,393.243,395.664,400.596,402.549,404.835,407.149,409.849,413.683,417.031,420.821,423.486,428.274,431.506,435.287,437.348,439.301,445.557,447.736,450.545,455.325,459.826,464.614,468.898,473.713,475.666,478.474,483.254,487.088,489.041,493.802,496.197,499.582,503.344,508.133,512.013,515.29,519.44,523.274,525.227,529.071,532.861,537.631,541.591,545.407,547.721,550.502,554.633" svgx:width="0.51,0.37,0.47,0.44,0.55,0.27,0.42,0.23,0.37,0.43,0.53,0.51,0.47,0.23,0.82,0.51,0.25,0.43,0.42,0.53,0.25,0.43,0.37,0.23,0.44,0.55,0.53,0.23,0.51,0.27,0.51,0.53,0.43,0.47,0.37,0.44,0.53,0.44,0.51,0.25,0.43,0.23,0.42,0.51,0.82,0.52,0.51,0.55,0.43,0.55,0.31,0.37,0.23,0.37,0.43,0.52,0.51,0.37,0.31,0.43,0.53,0.23,0.27,0.55,0.23,0.25,0.27,0.31,0.43,0.37,0.44,0.31,0.53,0.37,0.43,0.23,0.23,0.69,0.25,0.31,0.53,0.51,0.53,0.47,0.53,0.23,0.31,0.53,0.43,0.23,0.53,0.27,0.37,0.42,0.53,0.44,0.37,0.47,0.43,0.23,0.42,0.44,0.52,0.44,0.42,0.27,0.31,0.46,0.23" style="fill:rgb(0,0,0);font-family:MinionPro-Regular;font-size:9.0px;stroke:none;">organic redox molecules and biodegradable components reported in literature. Although the discharge capacity </text>
   <text y="722.906" x="155.638,158.007,161.292,163.011,166.217,169.988,172.276,176.04,178.813,181.146,185.225,188.996,191.194,195.307,197.026,199.285,203.715,209.206,211.24,212.959,216.813,221.683,226.417,228.136,230.919,235.671,239.478,241.197,245.131,249.174,252.911,255.198,259.061,263.508,265.948,268.207,270.494,273.25,277.363,279.082,281.451,284.736,286.455,291.325,295.8,298.527,300.246,304.035,308.5,313.335,316.62,319.014,323.748,327.555,330.876,334.739,339.232,341.429,345.542,347.261,350.503,353.284,357.147,361.64,363.899,367.654,369.688,371.407,374.189,378.943,382.75,384.469,388.258,392.723,397.593,401.382,405.189,409.79,412.517,414.236,418.701,421.347,423.066,426.999,428.718,433.318,437.082,439.719,442.394,446.201,449.784,453.897,455.616,458.398,463.161,466.925,469.652,471.371,473.74,477.025,478.743,483.379,487.854,490.636,495.424,497.143,499.537,504.407,508.214,512.444,517.225,521.032,525.867,529.152,531.484,535.562,539.369,541.088,544.941,549.812,554.564" svgx:width="0.27,0.37,0.23,0.37,0.43,0.25,0.44,0.31,0.27,0.46,0.43,0.25,0.46,0.23,0.25,0.51,0.69,0.23,0.23,0.44,0.55,0.53,0.23,0.31,0.53,0.43,0.23,0.42,0.46,0.42,0.25,0.44,0.51,0.27,0.25,0.27,0.31,0.46,0.23,0.27,0.37,0.23,0.55,0.51,0.31,0.23,0.42,0.51,0.55,0.37,0.27,0.53,0.43,0.37,0.44,0.51,0.25,0.46,0.23,0.37,0.31,0.44,0.51,0.25,0.43,0.23,0.23,0.31,0.53,0.43,0.23,0.42,0.51,0.55,0.42,0.43,0.52,0.31,0.23,0.51,0.3,0.23,0.44,0.23,0.51,0.44,0.31,0.31,0.43,0.37,0.46,0.23,0.31,0.53,0.44,0.31,0.23,0.27,0.37,0.23,0.51,0.51,0.31,0.53,0.23,0.27,0.55,0.43,0.47,0.52,0.43,0.55,0.37,0.27,0.46,0.43,0.23,0.44,0.55,0.53,0.23" style="fill:rgb(0,0,0);font-family:MinionPro-Regular;font-size:9.0px;stroke:none;">is relatively low, and the cyclability is not considerably stable, the concept of a battery that is both inexpensive and </text>
   <text y="732.905" x="155.638,160.152,162.618,167.34,172.146,176.025,180.332,183.725,187.73,192.56,196.489,201.049,203.38,207.259,209.275,211.711,215.068,217.084,221.89,225.769,233.154,237.687,242.588,245.897,248.738,252.131,255.961,258.702,262.623,267.371,269.477,271.493,276.125,280.958,284.437,287.286,292.107,295.986,299.379,301.395,305.274,309.576,314.423,318.302,321.746,324.212,331.597,335.476,340.278,343.077,346.434,348.54,350.556,353.865,358.698,362.501,367.361,369.377,373.352,376.709,378.725,381.574,386.395,390.274,392.29,396.833,401.5,404.34,406.806,414.231,416.697,420.531,424.362,427.202,429.668,434.201,439.178,441.194,445.726,448.444,450.46,453.309,458.13,462.009,464.025,468.692,472.739,475.093,479.013,483.952,487.813,491.692,493.708,498.411,502.29,505.113,511.256,515.176,519.055,524.032,526.048,529.933,533.763,536.613,541.434,546.155,550.961,554.786" svgx:width="0.51,0.27,0.51,0.53,0.43,0.47,0.37,0.44,0.53,0.44,0.51,0.25,0.43,0.23,0.27,0.37,0.23,0.53,0.43,0.82,0.51,0.55,0.37,0.31,0.37,0.44,0.31,0.43,0.53,0.23,0.23,0.53,0.53,0.37,0.31,0.53,0.43,0.37,0.23,0.43,0.47,0.52,0.43,0.37,0.27,0.82,0.43,0.55,0.31,0.37,0.23,0.23,0.37,0.53,0.42,0.53,0.23,0.44,0.37,0.23,0.31,0.53,0.43,0.23,0.51,0.52,0.31,0.27,0.82,0.27,0.42,0.44,0.31,0.27,0.51,0.55,0.23,0.51,0.3,0.23,0.31,0.53,0.43,0.23,0.51,0.44,0.25,0.44,0.55,0.42,0.43,0.23,0.51,0.43,0.31,0.69,0.43,0.43,0.55,0.23,0.42,0.44,0.31,0.53,0.51,0.53,0.43,0.23" style="fill:rgb(0,0,0);font-family:MinionPro-Regular;font-size:9.0px;stroke:none;">biodegradable is demonstrated. Further experiments, such as the optimization of the balance between cathode </text>
  </g>
  <rect style="stroke:blue;stroke-width:0.3;" x="155.638" y="64.138" height="165.12" width="396.0" title="15"/>
  <text y="64.138" class="image" id="image.15.1" width="396" height="165" x="155.638">image.15.1.156_552.64_229</text>
  <path style="fill:none;stroke:rgb(206,221,228);stroke-width:0.3;" d="M159.130 260.730 L552.640 260.730 "/>
  <path style="fill:none;stroke:rgb(206,221,228);stroke-width:1.0;" d="M156.140 260.730 L156.140 260.730 M554.140 260.730 L554.140 260.730 "/>
  <g begin="text">
   <text y="230.727" x="155.638,160.552,163.207,167.662,172.657,176.221,180.154,181.909,186.409,190.909" svgx:width="0.55,0.29,0.49,0.56,0.4,0.44,0.22,0.5,0.5,0.25" style="fill:rgb(0,0,0);font-family:MinionPro-Bold;font-size:9.0px;stroke:none;">Figure 17.</text>
   <text y="230.727" x="193.195,195.265,197.695" svgx:width="0.23,0.55,0.35" style="fill:rgb(0,0,0);font-family:MinionPro-Regular;font-size:9.0px;stroke:none;"> (</text>
   <text y="230.727" x="200.809" svgx:width="0.47" style="fill:rgb(0,0,0);font-family:MinionPro-Bold;font-size:9.0px;stroke:none;">a</text>
   <text y="230.727" x="205.003,208.117,209.953,212.878,217.801,220.105,222.895,225.334,229.329,231.606,233.442,238.194,240.579,243.954,247.707,252.486,256.356,259.623,263.763,267.588,270.891,272.727,277.272,281.745,284.544,288.414,290.826,295.713,299.582,304.334,306.17,309.95,312.695,314.531,318.482,320.318,324.125,328.607,333.458,336.716,339.515,343.385,348.137,350.882,352.718,356.588,361.367,364.76,367.982,371.807,376.559,379.304,381.14,385.622,388.286,390.122,396.107,399.086,403.406,407.726,409.562,412.316,415.538,420.02,427.391,429.227,436.112,442.097,447.164,449.0,451.691,456.281,458.117,462.437,464.489,468.809,469.972,476.299,478.135,482.23,486.055,489.339,492.597,497.35,500.653,502.489,507.385,509.797,512.776,517.672" svgx:width="0.35,0.23,0.34,0.55,0.27,0.31,0.27,0.44,0.25,0.23,0.53,0.27,0.37,0.42,0.53,0.44,0.37,0.47,0.43,0.37,0.23,0.51,0.51,0.31,0.44,0.27,0.55,0.43,0.53,0.23,0.44,0.31,0.23,0.44,0.23,0.42,0.51,0.55,0.37,0.31,0.44,0.55,0.31,0.23,0.42,0.53,0.37,0.37,0.43,0.55,0.31,0.23,0.51,0.3,0.23,0.67,0.33,0.48,0.48,0.23,0.3,0.37,0.51,0.82,0.23,0.75,0.67,0.56,0.23,0.31,0.51,0.23,0.48,0.23,0.48,0.23,0.7,0.23,0.46,0.43,0.37,0.37,0.53,0.37,0.23,0.54,0.27,0.33,0.54,0.27" style="fill:rgb(0,0,0);font-family:MinionPro-Regular;font-size:9.0px;stroke:none;">) Initial discharges obtained at a constant current of C/24 from OCP to 1.5 V versus Li/Li</text>
   <text y="227.667" x="520.085" svgx:width="0.78" style="fill:rgb(0,0,0);font-family:EuclidSymbol;font-size:5.85px;stroke:none;">+</text>
   <text y="230.727" x="524.637,526.473,529.056,533.538,536.877" svgx:width="0.23,0.3,0.51,0.37,0.23" style="fill:rgb(0,0,0);font-family:MinionPro-Regular;font-size:9.0px;stroke:none;"> for </text>
   <text y="240.726" x="155.637,158.436,163.242,166.464,170.334,174.159,175.995,181.062,186.543,192.528,198.819,205.038,208.017,212.913,215.325,217.161,224.495,228.32,231.119,235.115,237.392,239.228,243.845,247.625,250.28,252.971,256.796,260.188,262.6,266.425,269.728,271.78,273.616" svgx:width="0.31,0.53,0.37,0.43,0.43,0.23,0.56,0.62,0.67,0.74,0.69,0.33,0.54,0.27,0.23,0.82,0.43,0.31,0.44,0.25,0.23,0.51,0.44,0.31,0.31,0.43,0.37,0.27,0.43,0.37,0.23,0.23,0.35" style="fill:rgb(0,0,0);font-family:MinionPro-Regular;font-size:9.0px;stroke:none;">three PTCDA/Li metal batteries. (</text>
   <text y="240.726" x="276.73" svgx:width="0.53" style="fill:rgb(0,0,0);font-family:MinionPro-Bold;font-size:9.0px;stroke:none;">b</text>
   <text y="240.726" x="281.536,284.65,286.486,292.516,297.322,300.544,305.026,309.913,314.548,318.418,325.618,330.415,334.24,337.462,341.944,349.279,353.104,355.893,359.493,363.624,365.46,369.285,373.533,378.33,382.155,385.547,387.959,395.294,399.119,403.871,406.616,408.452,410.836,414.139,415.975,420.727,423.139,426.361,430.231,434.101,436.9,439.114,443.245,445.081,449.878,453.703,457.096,459.679,464.161,467.554,474.889,478.759,483.511,485.347,489.127,491.872,493.708,496.507,501.277,505.102,506.938,510.763,515.65,520.402,522.238,526.719,529.383" svgx:width="0.35,0.23,0.67,0.53,0.37,0.51,0.55,0.51,0.44,0.82,0.52,0.43,0.37,0.51,0.82,0.43,0.31,0.37,0.46,0.23,0.43,0.47,0.52,0.43,0.37,0.27,0.82,0.43,0.55,0.31,0.23,0.27,0.37,0.23,0.53,0.27,0.37,0.43,0.42,0.31,0.25,0.46,0.23,0.52,0.43,0.37,0.3,0.51,0.37,0.82,0.43,0.53,0.23,0.44,0.31,0.23,0.31,0.53,0.43,0.23,0.43,0.55,0.53,0.23,0.51,0.3,0.23" style="fill:rgb(0,0,0);font-family:MinionPro-Regular;font-size:9.0px;stroke:none;">) Chronoamperometry experiment is directly performed at the end of </text>
   <text y="250.725" x="155.637,160.389,162.774,166.149,169.902,174.681,178.551,181.818,185.958,189.729,191.781,193.617,203.22,207.045,208.881,213.678,218.169,220.86,224.685,229.437,232.227,234.665,238.661,240.938,242.774,245.159,248.462,250.298,255.113,259.289,263.158,267.91,269.746,272.437,277.027,278.863,283.183,285.235,289.555,290.7,297.027,298.863,302.958,306.783,310.067,313.325,318.078,321.381,323.217,328.113,330.525,333.504,338.4" svgx:width="0.53,0.27,0.37,0.42,0.53,0.44,0.37,0.47,0.43,0.23,0.23,1.07,0.43,0.23,0.52,0.51,0.31,0.43,0.55,0.31,0.27,0.44,0.25,0.23,0.27,0.37,0.23,0.54,0.47,0.43,0.53,0.23,0.31,0.51,0.23,0.48,0.23,0.48,0.23,0.7,0.23,0.46,0.43,0.37,0.37,0.53,0.37,0.23,0.54,0.27,0.33,0.54,0.27" style="fill:rgb(0,0,0);font-family:MinionPro-Regular;font-size:9.0px;stroke:none;">discharge. The potential is fixed to 1.5 V versus Li/Li</text>
   <text y="247.667" x="340.813" svgx:width="0.78" style="fill:rgb(0,0,0);font-family:EuclidSymbol;font-size:5.85px;stroke:none;">+</text>
   <text y="250.727" x="345.365,347.201,349.784,354.266,357.604,359.44,363.76,364.895,369.701" svgx:width="0.23,0.3,0.51,0.37,0.23,0.48,0.23,0.53,0.23" style="fill:rgb(0,0,0);font-family:MinionPro-Regular;font-size:9.0px;stroke:none;"> for 3 h.</text>
  </g>
  <rect style="stroke:blue;stroke-width:0.3;" x="155.638" y="300.248" height="164.88" width="396.0" title="15"/>
  <text y="300.248" class="image" id="image.15.2" width="396" height="164" x="155.638">image.15.2.156_552.300_465</text>
  <path style="fill:none;stroke:rgb(206,221,228);stroke-width:1.0;" d="M159.130 516.030 L552.640 516.030 "/>
  <path style="fill:none;stroke:rgb(206,221,228);stroke-width:1.0;" d="M156.140 516.030 L156.140 516.030 M554.140 516.030 L554.140 516.030 "/>
  <g begin="text">
   <text y="466.033" x="155.638,160.552,163.207,167.662,172.657,176.221,180.154,181.909,186.409,190.909" svgx:width="0.55,0.29,0.49,0.56,0.4,0.44,0.22,0.5,0.5,0.25" style="fill:rgb(0,0,0);font-family:MinionPro-Bold;font-size:9.0px;stroke:none;">Figure 18.</text>
   <text y="466.033" x="193.195,195.265,197.695" svgx:width="0.23,0.55,0.35" style="fill:rgb(0,0,0);font-family:MinionPro-Regular;font-size:9.0px;stroke:none;"> (</text>
   <text y="466.033" x="200.809" svgx:width="0.47" style="fill:rgb(0,0,0);font-family:MinionPro-Bold;font-size:9.0px;stroke:none;">a</text>
   <text y="466.033" x="205.003,208.117,209.953,212.878,217.801,220.105,222.895,225.334,229.329,231.606,233.442,237.195,241.974,245.844,249.111,253.251,257.076,260.379,262.215,265.329,273.627,275.463,279.333,284.22,288.972" svgx:width="0.35,0.23,0.34,0.55,0.27,0.31,0.27,0.44,0.25,0.23,0.42,0.53,0.44,0.37,0.47,0.43,0.37,0.23,0.35,0.92,0.23,0.44,0.55,0.53,0.23" style="fill:rgb(0,0,0);font-family:MinionPro-Regular;font-size:9.0px;stroke:none;">) Initial charges (— and </text>
   <text y="466.033" x="290.808" svgx:width="0.5" style="fill:rgb(0,0,0);font-family:STIXGeneral-Regular;font-size:9.0px;stroke:none;">‒</text>
   <text y="466.033" x="295.308" svgx:width="0.23" style="fill:rgb(0,0,0);font-family:MinionPro-Regular;font-size:9.0px;stroke:none;"> </text>
   <text y="466.033" x="297.163" svgx:width="0.5" style="fill:rgb(0,0,0);font-family:STIXGeneral-Regular;font-size:9.0px;stroke:none;">‒</text>
   <text y="466.033" x="301.663" svgx:width="0.23" style="fill:rgb(0,0,0);font-family:MinionPro-Regular;font-size:9.0px;stroke:none;"> </text>
   <text y="466.033" x="303.499" svgx:width="0.5" style="fill:rgb(0,0,0);font-family:STIXGeneral-Regular;font-size:9.0px;stroke:none;">‒</text>
   <text y="466.033" x="307.999,311.113,312.949,316.819,321.706,326.458,328.294,333.046,335.431,338.806,342.558,347.338,351.208,354.475,358.615,362.44,365.743,367.579" svgx:width="0.35,0.23,0.44,0.55,0.53,0.23,0.53,0.27,0.37,0.42,0.53,0.44,0.37,0.47,0.43,0.37,0.23,0.35" style="fill:rgb(0,0,0);font-family:MinionPro-Regular;font-size:9.0px;stroke:none;">) and discharges (</text>
  </g>
  <g begin="text">
   <text y="466.033" x="382.919,384.755,388.625,393.513,398.264" svgx:width="0.23,0.44,0.55,0.53,0.23" style="fill:rgb(0,0,0);font-family:MinionPro-Regular;font-size:9.0px;stroke:none;"> and </text>
  </g>
  <path style="fill:rgb(255,0,0);stroke:none;stroke-width:1.0;" d="M418.860 462.410 "/>
  <g begin="text">
   <text y="466.033" x="425.067,428.181,430.017,434.562,439.035,441.834,445.704,448.116,453.003,456.873,461.625,463.461,467.241,469.986,471.822,475.773,477.609,481.416,485.898,490.749,494.007,496.806,500.676,505.428,508.173,510.009,513.878,518.657,522.05,525.272,529.097,533.849,536.594,538.43,542.912,545.576" svgx:width="0.35,0.23,0.51,0.51,0.31,0.44,0.27,0.55,0.43,0.53,0.23,0.44,0.31,0.23,0.44,0.23,0.42,0.51,0.55,0.37,0.31,0.44,0.55,0.31,0.23,0.42,0.53,0.37,0.37,0.43,0.55,0.31,0.23,0.51,0.3,0.23" style="fill:rgb(0,0,0);font-family:MinionPro-Regular;font-size:9.0px;stroke:none;">) obtained at a constant current of </text>
   <text y="476.032" x="155.634,161.619,164.598,168.918,173.238,175.074,179.726,183.551,186.323,192.416,196.286,200.111,205.034,206.87,211.19,213.242,217.562,219.398,223.268,228.155,232.907,234.743,239.063,241.115,245.435,246.57,252.897,254.733,258.828,262.653,265.937,269.195,273.948,277.251,279.087,283.344,286.683,290.463,295.116,299.922,302.226,304.917,308.742,310.578,315.059,317.723,319.559,322.331,328.424,333.014,334.85,339.458,342.68,346.469,348.746,351.05,353.848,358.654,361.093,364.873,367.564,371.434,376.186,378.022,383.089,388.57,394.555,400.846,407.065,410.044,414.301,417.64,421.42,426.073,430.879,433.183,435.874,439.699,441.535,446.151,449.931,452.587,455.277,459.102,462.495,464.907,468.732,472.035,474.087,475.923,482.142,483.978,488.739,492.519,497.316,501.141,504.48,506.316,512.158,516.828,521.58,526.17,529.437,534.243,536.655" svgx:width="0.67,0.33,0.48,0.48,0.23,0.51,0.43,0.31,0.69,0.43,0.43,0.55,0.23,0.48,0.23,0.48,0.23,0.44,0.55,0.53,0.23,0.48,0.23,0.48,0.23,0.7,0.23,0.46,0.43,0.37,0.37,0.53,0.37,0.23,0.47,0.37,0.44,0.52,0.53,0.27,0.31,0.43,0.23,0.51,0.3,0.23,0.31,0.69,0.51,0.23,0.52,0.37,0.43,0.25,0.27,0.31,0.53,0.27,0.44,0.31,0.43,0.53,0.23,0.56,0.62,0.67,0.74,0.69,0.33,0.47,0.37,0.44,0.52,0.53,0.27,0.31,0.43,0.23,0.51,0.44,0.31,0.31,0.43,0.37,0.27,0.43,0.37,0.23,0.23,0.69,0.23,0.52,0.44,0.52,0.43,0.37,0.23,0.67,0.51,0.53,0.51,0.37,0.53,0.27,0.23" style="fill:rgb(0,0,0);font-family:MinionPro-Regular;font-size:9.0px;stroke:none;">C/24 between 1.5 and 3.5 V versus graphite of two prelithiated PTCDA/graphite batteries. A paper Kodoshi </text>
   <text y="486.031" x="155.634,159.009,162.834,167.595,171.465,174.804,178.583,181.274,185.756,189.095,190.931,193.316,196.619,198.455,203.207,206.582,210.452,215.149,217.201,219.037,222.907,227.794,232.546,234.382,238.252,243.175,245.011,248.836,253.012,256.819,260.644,263.902,267.205,269.041,272.911,277.799,282.469,287.221,291.046,292.882,296.716,300.496,305.257,309.208,313.015,315.318,318.09,322.221,324.057,326.442,329.745,331.581,335.406,342.606,347.259,349.536,353.982,358.04,361.91,366.608,368.66,370.496" svgx:width="0.37,0.43,0.52,0.44,0.37,0.44,0.31,0.51,0.37,0.23,0.27,0.37,0.23,0.53,0.37,0.43,0.53,0.23,0.23,0.44,0.55,0.53,0.23,0.44,0.55,0.23,0.43,0.47,0.42,0.43,0.37,0.37,0.23,0.44,0.55,0.51,0.53,0.43,0.23,0.42,0.44,0.52,0.44,0.42,0.27,0.31,0.46,0.23,0.27,0.37,0.23,0.43,0.82,0.52,0.25,0.51,0.46,0.43,0.53,0.23,0.23,0.35" style="fill:rgb(0,0,0);font-family:MinionPro-Regular;font-size:9.0px;stroke:none;">separator is used, and an excess anode capacity is employed. (</text>
   <text y="486.031" x="373.61" svgx:width="0.53" style="fill:rgb(0,0,0);font-family:MinionPro-Bold;font-size:9.0px;stroke:none;">b</text>
   <text y="486.031" x="378.416,381.53,383.366,389.486,393.968,397.361,400.583,404.408,407.666,412.462,416.944,421.831,426.583,428.995,433.846,438.059,439.895,442.172,446.654,451.505,455.717,457.553,461.503,465.562,469.315,471.592,474.004,478.855,483.067,484.903,488.728,492.976,497.772,501.597,504.99,507.402,514.737,518.562,523.314,526.059,529.362,531.198,535.068,538.29,542.115" svgx:width="0.35,0.23,0.67,0.51,0.37,0.37,0.43,0.37,0.52,0.51,0.55,0.53,0.27,0.55,0.47,0.23,0.25,0.51,0.55,0.47,0.23,0.42,0.46,0.42,0.25,0.27,0.55,0.47,0.23,0.43,0.47,0.52,0.43,0.37,0.27,0.82,0.43,0.55,0.31,0.37,0.23,0.44,0.37,0.43,0.23" style="fill:rgb(0,0,0);font-family:MinionPro-Regular;font-size:9.0px;stroke:none;">) Corresponding long cycling experiments are </text>
   <text y="496.03" x="155.634,160.431,164.256,167.649,170.231,174.713,178.106,185.441,189.311,194.063,195.899,199.679,202.424,204.26,208.211,210.047,216.032,219.011,223.331,227.651,229.487,232.826,236.606,239.297,243.068,245.12,246.956,256.56,260.385,262.221,266.892,270.699,274.569,279.348,282.741,285.963,289.788,294.675,298.482,302.307,304.143,308.625,311.289,313.125,317.076,318.912,322.251,326.03,330.638,333.05,337.802,339.638,342.221,346.703,350.096,357.44,361.22,364.01,366.422,370.904,375.827,377.663,380.048,383.351,385.187,389.732,394.304,397.679,401.504,405.104,409.199,413.069,417.821,419.657,423.437,426.182,428.018,432.338,433.5,439.485,441.537,443.373,447.954,452.778,455.099,457.376,459.212,463.082,467.969,472.721,474.557,478.382,485.582,490.199,492.971,497.102,498.938,502.69,507.469,511.34,514.679,518.63,522.5,525.191,529.016,532.301,535.604" svgx:width="0.52,0.43,0.37,0.3,0.51,0.37,0.82,0.43,0.53,0.23,0.44,0.31,0.23,0.44,0.23,0.67,0.33,0.48,0.48,0.23,0.37,0.44,0.31,0.43,0.23,0.23,1.07,0.43,0.23,0.51,0.42,0.42,0.53,0.37,0.37,0.43,0.55,0.42,0.43,0.23,0.51,0.3,0.23,0.44,0.23,0.37,0.44,0.52,0.27,0.53,0.23,0.3,0.51,0.37,0.82,0.44,0.31,0.27,0.51,0.55,0.23,0.27,0.37,0.23,0.51,0.51,0.37,0.43,0.37,0.46,0.43,0.53,0.23,0.44,0.31,0.23,0.48,0.23,0.67,0.23,0.23,0.53,0.53,0.25,0.25,0.23,0.44,0.55,0.53,0.23,0.43,0.82,0.52,0.31,0.46,0.23,0.42,0.53,0.44,0.37,0.44,0.42,0.31,0.43,0.37,0.37,0.23" style="fill:rgb(0,0,0);font-family:MinionPro-Regular;font-size:9.0px;stroke:none;">performed at a C/10 rate. The occurrence of a rapid formation is observed at 5 C. Full and empty characters </text>
   <text y="506.029" x="155.634,158.856,162.681,167.289,170.511,174.336,177.711,181.536,186.287,189.032,190.868,194.621,199.4,203.27,206.537,210.677,214.502,217.805,219.641,223.511,228.398,233.15,234.986,239.738,242.123,245.498,249.25,254.029,257.9,261.167,265.306,269.131,272.434,274.486,276.322,279.544,283.369,286.627,291.424,295.293,299.163,301.953,304.302,308.397,312.186,314.4,317.874" svgx:width="0.37,0.43,0.52,0.37,0.43,0.37,0.43,0.55,0.31,0.23,0.42,0.53,0.44,0.37,0.47,0.43,0.37,0.23,0.44,0.55,0.53,0.23,0.53,0.27,0.37,0.42,0.53,0.44,0.37,0.47,0.43,0.37,0.23,0.23,0.37,0.43,0.37,0.52,0.43,0.42,0.31,0.27,0.46,0.43,0.25,0.46,0.23" style="fill:rgb(0,0,0);font-family:MinionPro-Regular;font-size:9.0px;stroke:none;">represent charges and discharges, respectively.</text>
  </g>
 </g>
</svg>
