<?xml version="1.0" encoding="UTF-8"?>
<svg height="774.244" width="4165.638" xmlns="http://www.w3.org/2000/svg">
 <g id="page" xmlns:svgx="http://www.xml-cml.org/schema/svgx">
  <g begin="text">
   <text y="764.23" x="543.973,549.473" svgx:width="0.45,0.52" style="fill:rgb(206,221,228);font-family:Corbel2;font-size:10.0px;stroke:none;">14</text>
   <text y="764.244" x="40.794,45.842,50.946,53.586,58.562,64.818,69.81,72.45,77.05,79.69" svgx:width="0.58,0.58,0.28,0.57,0.73,0.57,0.28,0.52,0.28,0.58" style="fill:rgb(0,0,0);font-family:Corbel-Bold2;font-size:8.0px;stroke:none;">Scientific</text>
   <text y="764.244" x="84.65" svgx:width="0.2" style="fill:rgb(0,0,0);font-family:Corbel2;font-size:8.0px;stroke:none;"> </text>
   <text y="764.244" x="86.25,91.706,96.682,101.922,108.226,113.682,118.674" svgx:width="0.63,0.57,0.6,0.73,0.63,0.57,0.58" style="fill:rgb(0,0,0);font-family:Corbel-Bold2;font-size:8.0px;stroke:none;">RepoRtS</text>
   <text y="764.244" x="123.57,125.01,126.826" svgx:width="0.2,0.23,0.2" style="fill:rgb(0,0,0);font-family:Corbel2;font-size:8.0px;stroke:none;"> | </text>
   <text y="764.244" x="128.266,129.722,131.178,132.634,134.09,135.546,137.002,138.458,139.914,142.186,146.122,150.058,153.994,157.93,160.202,161.658,165.594,169.53,171.218,175.154,179.09,183.026,186.962" svgx:width="0.18,0.18,0.18,0.18,0.18,0.18,0.18,0.18,0.28,0.49,0.49,0.49,0.49,0.28,0.18,0.49,0.49,0.21,0.49,0.49,0.49,0.49,0.18" style="fill:rgb(0,0,0);font-family:MyriadPro-It;font-size:8.0px;stroke:none;"> (2020) 10:3812 </text>
   <text y="764.244" x="188.418,189.858,191.674" svgx:width="0.2,0.23,0.2" style="fill:rgb(0,0,0);font-family:Corbel2;font-size:8.0px;stroke:none;"> | </text>
   <text y="764.244" x="193.114,197.37,200.146,202.922,207.17,210.402,212.514,214.714,216.914,221.202,225.466,227.322,229.434,233.698,236.378,240.626,242.826,246.93,251.034,253.146,257.25,261.354,265.458,269.562,271.762,274.994,279.098,283.202,287.306,291.41,295.514,298.178,302.282,306.386,310.49,313.154,317.258,321.362,325.466,329.57,333.674,336.338" svgx:width="0.53,0.35,0.35,0.53,0.4,0.26,0.28,0.28,0.54,0.53,0.23,0.26,0.53,0.34,0.53,0.28,0.51,0.51,0.26,0.51,0.51,0.51,0.51,0.28,0.4,0.51,0.51,0.51,0.51,0.51,0.33,0.51,0.51,0.51,0.33,0.51,0.51,0.51,0.51,0.51,0.33,0.48" style="fill:rgb(0,0,0);font-family:Corbel;font-size:8.0px;stroke:none;">https://doi.org/10.1038/s41598-020-60633-y</text>
  </g>
  <path style="fill:rgb(206,221,228);stroke:none;stroke-width:1.0;" d="M382.590 8.650 L382.590 26.450 L548.670 26.450 C548.670 26.450 554.340 26.450 554.340 20.780 L554.340 8.650 Z"/>
  <g begin="text">
   <text y="22.277" x="389.724,397.483,405.242,412.701,415.869,421.732,427.215,431.233,437.004,440.899,446.465,449.632,454.583,460.507,469.466,472.746,477.348,482.299,485.138,490.699,496.562,500.58,503.419,507.14,509.979,514.93,518.825,524.391,530.295,536.219,540.114,544.132" svgx:width="0.71,0.71,0.71,0.26,0.53,0.49,0.35,0.52,0.34,0.5,0.26,0.44,0.53,0.83,0.28,0.4,0.44,0.23,0.5,0.53,0.35,0.23,0.32,0.23,0.44,0.34,0.5,0.53,0.53,0.34,0.35,0.4" style="fill:rgb(0,0,0);font-family:Corbel2;font-size:10.25px;stroke:none;">www.nature.com/scientificreports</text>
  </g>
  <path style="fill:none;stroke:rgb(0,0,0);stroke-width:1.0;" d="M40.640 752.550 L554.640 752.550 "/>
  <g begin="text">
   <text y="22.46" x="40.638,48.208,55.778,63.055,66.145,71.865,77.215,81.135,86.765,90.565,95.995,99.085,103.915,109.695,118.435,121.635,126.125,130.955,133.725,139.15,144.87,148.79,151.56,155.19,157.96,162.79,166.59,172.02,177.78,183.56,187.36,191.28,195.77" svgx:width="0.71,0.71,0.71,0.26,0.53,0.49,0.35,0.52,0.34,0.5,0.26,0.44,0.53,0.83,0.28,0.4,0.44,0.23,0.5,0.53,0.35,0.23,0.32,0.23,0.44,0.34,0.5,0.53,0.53,0.34,0.35,0.4,0.28" style="fill:rgb(0,0,0);font-family:Corbel2;font-size:10.0px;stroke:none;">www.nature.com/scientificreports/</text>
  </g>
  <g begin="text">
   <text y="281.312" x="155.638,161.088,163.378,168.273,172.453,176.013,179.277,184.582,188.762,194.126,199.021,207.311,209.565,213.745,218.66,220.95,222.47,227.74,232.635,235.899,238.949,244.254,247.518,255.808,260.723,266.038,270.218,275.113,276.633,281.938,284.988,286.508,290.688,295.993,304.283,309.553,311.843,316.737,320.297,325.191,326.711,331.838,336.818,342.588,345.298,350.568,353.832,358.746,364.016,369.38,371.634,375.194,380.088,381.608,386.948,391.862,395.422,398.982,403.877,407.141,409.395,414.29,418.3,420.99" svgx:width="0.57,0.25,0.51,0.44,0.38,0.35,0.55,0.44,0.56,0.51,0.85,0.25,0.44,0.51,0.25,0.21,0.55,0.51,0.35,0.33,0.55,0.35,0.85,0.51,0.56,0.44,0.51,0.21,0.55,0.33,0.21,0.44,0.55,0.85,0.55,0.25,0.51,0.38,0.51,0.21,0.54,0.52,0.6,0.29,0.55,0.35,0.51,0.55,0.56,0.25,0.38,0.51,0.21,0.56,0.51,0.38,0.38,0.51,0.35,0.25,0.51,0.42,0.29,0.21" style="fill:rgb(0,0,0);font-family:Corbel-Bold2;font-size:10.0px;stroke:none;">electrochemical performance of complete Lfp/graphite batteries. </text>
   <text y="281.312" x="430.761,433.475,438.186,439.707,443.978,446.988,451.528,455.141,458.269,459.79,462.269,466.648,468.169,472.565,475.576,480.034,484.467,489.034,492.63,496.243,497.764,501.503,503.024,505.089,509.323,515.277,518.269,521.864,526.242,529.289,531.822,533.343,538.028,540.228,543.22,545.42,549.691,554.614" svgx:width="0.34,0.55,0.23,0.51,0.37,0.53,0.43,0.37,0.23,0.31,0.51,0.23,0.52,0.37,0.51,0.53,0.53,0.42,0.43,0.23,0.44,0.23,0.25,0.51,0.69,0.36,0.42,0.51,0.37,0.31,0.23,0.54,0.27,0.36,0.27,0.51,0.55,0.23" style="fill:rgb(0,0,0);font-family:MinionPro-Regular;font-size:9.0px;stroke:none;">In order to produce a low-cost Li-ion </text>
   <text y="291.311" x="155.64,160.083,163.689,166.169,168.687,172.341,175.767,179.727,181.491,187.509,189.639,192.263,196.898,198.662,201.709,205.406,209.182,213.066,216.646,218.775,222.48,226.815,228.921,232.575,234.339,238.647,241.74,245.781,249.476,254.228,256.469,260.105,261.869,265.529,269.135,271.76,276.355,280.852,285.433,289.087,290.851,294.547,299.259,303.84,305.604,309.3,314.013,318.51,323.091,326.687,328.568,330.332,333.532,337.148,339.254,341.747,344.78,347.863,350.488,354.184,358.897,363.478,365.719,370.395,374.436,376.2,380.283,383.451,387.057,391.536,396.171,398.3,400.817,404.471,406.235,409.851,411.957,415.652,419.348,421.964,425.012,429.508,434.089,437.743,440.875,442.639,446.336,449.383,453.037,454.801,458.622,460.698,463.899,468.318,470.082,474.516,477.564,481.218,485.804,489.501,492.548,496.243,500.768,502.649,504.413,510.602,513.77,517.376,521.855,526.49,528.619,531.136,534.79,536.554,538.766,541.898,543.662,546.286,550.882,554.707" svgx:width="0.51,0.44,0.31,0.31,0.43,0.37,0.46,0.23,0.69,0.27,0.31,0.53,0.23,0.37,0.43,0.42,0.46,0.42,0.25,0.44,0.51,0.25,0.43,0.23,0.51,0.37,0.47,0.44,0.55,0.27,0.42,0.23,0.42,0.44,0.31,0.53,0.51,0.53,0.43,0.23,0.44,0.55,0.53,0.23,0.44,0.55,0.51,0.53,0.43,0.23,0.23,0.37,0.43,0.25,0.3,0.36,0.37,0.31,0.44,0.55,0.53,0.27,0.55,0.47,0.23,0.47,0.37,0.44,0.52,0.53,0.27,0.31,0.43,0.23,0.43,0.25,0.43,0.42,0.31,0.37,0.51,0.53,0.43,0.37,0.23,0.44,0.37,0.43,0.23,0.44,0.25,0.37,0.51,0.23,0.52,0.37,0.43,0.52,0.44,0.37,0.43,0.53,0.23,0.23,0.71,0.37,0.44,0.52,0.53,0.27,0.31,0.43,0.23,0.27,0.37,0.23,0.31,0.53,0.43,0.23" style="fill:rgb(0,0,0);font-family:MinionPro-Regular;font-size:9.0px;stroke:none;">battery with recyclable organic cathode and anode, self-standing graphite electrodes are also prepared. Graphite is the </text>
   <text y="301.31" x="155.64,162.75,167.115,170.149,172.669,174.172,177.754,182.011,189.157,196.268,200.525,205.223,206.726,210.371,215.034,219.48,224.007,227.607,229.11,236.229,239.785,242.251,245.851,249.019,251.233,255.004,257.056,258.559,263.086,266.236,269.881,274.408,275.911,278.098,282.796,284.299,288.97,291.157,294.136,296.323,300.581,305.279,306.782,311.174,314.729,317.16,319.626,323.226,326.394,328.581,332.181" svgx:width="0.82,0.51,0.37,0.31,0.23,0.42,0.51,0.82,0.82,0.51,0.55,0.23,0.44,0.55,0.51,0.53,0.43,0.23,0.82,0.44,0.31,0.43,0.37,0.27,0.44,0.25,0.23,0.53,0.37,0.43,0.53,0.23,0.27,0.55,0.23,0.54,0.27,0.36,0.27,0.51,0.55,0.23,0.51,0.44,0.31,0.31,0.43,0.37,0.27,0.43,0.37" style="fill:rgb(0,0,0);font-family:MinionPro-Regular;font-size:9.0px;stroke:none;">most common anode material used in Li-ion batteries</text>
   <text y="298.252" x="335.255,337.917" svgx:width="0.48,0.48" style="fill:rgb(0,0,255);font-family:MinionPro-Regular;font-size:5.85px;stroke:none;">73</text>
   <text y="301.312" x="340.579,342.406,343.909,352.082,354.161,356.735,361.316,362.819,366.545,368.048,370.622,375.167,378.812,383.069,386.066,389.666,392.231,394.418,398.027,401.798,403.85,405.353,408.962,412.518,417.054,420.78,424.362,426.441,428.988,432.894,434.397,438.654,441.093,442.596,446.691,450.786,454.881,456.384,463.53,469.551,474.132,475.94" svgx:width="0.23,0.23,0.97,0.27,0.31,0.53,0.23,0.44,0.23,0.31,0.53,0.43,0.51,0.37,0.43,0.31,0.27,0.42,0.44,0.25,0.23,0.42,0.44,0.52,0.44,0.42,0.27,0.31,0.46,0.23,0.51,0.3,0.23,0.48,0.48,0.48,0.23,0.82,0.69,0.53,0.23,0.47" style="fill:rgb(0,0,0);font-family:MinionPro-Regular;font-size:9.0px;stroke:none;">. With a theoretical capacity of 372 mAh·g</text>
   <text y="298.252" x="479.927" svgx:width="0.78" style="fill:rgb(0,0,0);font-family:EuclidSymbol;font-size:5.85px;stroke:none;">−</text>
   <text y="298.252" x="484.332" svgx:width="0.48" style="fill:rgb(0,0,0);font-family:MinionPro-Regular;font-size:5.85px;stroke:none;">1</text>
   <text y="301.312" x="486.992,488.819,490.322,496.325,500.906,503.093,506.621,511.202,512.705,516.287,520.544,523.712,526.709,530.309,533.342,537.915,542.172,546.834,551.334,554.637" svgx:width="0.23,0.23,0.69,0.53,0.27,0.42,0.53,0.23,0.42,0.51,0.37,0.37,0.43,0.37,0.52,0.51,0.55,0.53,0.37,0.23" style="fill:rgb(0,0,0);font-family:MinionPro-Regular;font-size:9.0px;stroke:none;">, which corresponds </text>
   <text y="311.311" x="155.639,158.125,162.508,164.038,166.633,171.207,174.782,177.32,178.85,183.128,185.585,187.115,190.169,192.764,196.464,200.4,204.018,207.015,209.877,211.407,215.007,219.284,226.28,230.871,235.158,239.73,244.413,248.958,250.488,255.179,257.384" svgx:width="0.31,0.51,0.23,0.31,0.53,0.44,0.31,0.23,0.51,0.3,0.23,0.37,0.31,0.44,0.47,0.43,0.36,0.34,0.23,0.42,0.51,0.82,0.52,0.51,0.53,0.55,0.53,0.23,0.54,0.27,0.67" style="fill:rgb(0,0,0);font-family:MinionPro-Regular;font-size:9.0px;stroke:none;">to that of stage-I compound LiC</text>
   <text y="313.112" x="263.195" svgx:width="0.48" style="fill:rgb(0,0,0);font-family:MinionPro-Regular;font-size:5.85px;stroke:none;">6</text>
   <text y="311.312" x="265.87,267.715,269.245,273.297,276.429,280.005,284.453,289.052,291.152,293.638,297.256,298.786,303.36,307.079,310.175,311.705,314.722,318.34,325.479,329.145,331.35,336.031,339.697,344.242,345.772,349.516,351.046,354.646,358.924,366.088,373.218,377.495,382.211,383.741,387.289,391.855,396.133,398.337,401.938,405.556,407.086,409.464,413.741,416.873,418.403,422.069,426.75,431.217,435.762,439.38,442.476,444.006,446.211,450.927,452.457,457.149,459.354,462.351,464.556,468.834,473.55,475.08,479.491,483.066,485.517,488.004,491.622,494.81,497.015,500.633" svgx:width="0.23,0.23,0.47,0.37,0.44,0.52,0.53,0.27,0.31,0.43,0.23,0.53,0.44,0.37,0.23,0.37,0.43,0.82,0.44,0.27,0.55,0.43,0.53,0.23,0.44,0.23,0.42,0.51,0.82,0.82,0.51,0.55,0.23,0.42,0.53,0.51,0.27,0.42,0.43,0.23,0.3,0.51,0.37,0.23,0.44,0.55,0.51,0.53,0.43,0.37,0.23,0.27,0.55,0.23,0.54,0.27,0.36,0.27,0.51,0.55,0.23,0.51,0.44,0.31,0.31,0.43,0.37,0.27,0.43,0.37" style="fill:rgb(0,0,0);font-family:MinionPro-Regular;font-size:9.0px;stroke:none;">, graphite has remained a common choice for anodes in Li-ion batteries</text>
   <text y="308.252" x="503.818,506.491" svgx:width="0.48,0.48" style="fill:rgb(0,0,255);font-family:MinionPro-Regular;font-size:5.85px;stroke:none;">74</text>
   <text y="311.312" x="509.168,511.013,512.543,516.729,520.394,524.06,526.645,528.85,533.127,537.843,539.373,543.327,546.189,550.302,554.621" svgx:width="0.23,0.23,0.47,0.43,0.42,0.31,0.27,0.51,0.55,0.23,0.47,0.34,0.48,0.48,0.23" style="fill:rgb(0,0,0);font-family:MinionPro-Regular;font-size:9.0px;stroke:none;">. Section SI10 </text>
   <text y="321.311" x="155.639,158.573,162.533,167.024,171.462,176.079,180.381,183.631,186.241,188.473,193.145,197.177,198.941,201.686,206.429,208.832,213.135,216.348,223.512,227.113,229.723,231.955,236.258,241.001,243.935,245.699,250.127,253.17,256.815,260.011,263.656,268.228,270.793,273.916,275.68,278.299,282.889,286.534,288.298,291.907,294.004,297.695,301.385,303.995,307.038,311.529,315.102,319.693,323.338,330.529,332.761,336.415,340.231,342.328,344.092,348.709,352.354,355.567,357.971,362.273,365.486,372.651,376.341,381.049,384.676,388.321,391.444,393.208,397.511,399.995,401.759,406.331,408.563,413.351,416.996,420.038,423.683,428.256,430.821,432.585,436.662,439.821,443.422,447.895,452.521,454.645,457.156,460.801,462.565,466.174,468.271,471.961,475.652,478.262,481.304,485.795,490.367,494.012,497.135,498.899,506.064,509.835,514.407,518.052,519.816,524.118,526.602,528.366,532.794,536.007,538.213,541.291,543.901,546.133,550.84,554.665" svgx:width="0.35,0.47,0.53,0.52,0.52,0.51,0.37,0.31,0.27,0.55,0.47,0.23,0.34,0.55,0.3,0.51,0.37,0.82,0.44,0.31,0.27,0.51,0.55,0.35,0.23,0.52,0.37,0.43,0.37,0.43,0.55,0.31,0.37,0.23,0.31,0.53,0.43,0.23,0.43,0.25,0.43,0.42,0.31,0.37,0.51,0.42,0.53,0.43,0.82,0.27,0.42,0.44,0.25,0.23,0.52,0.43,0.37,0.3,0.51,0.37,0.82,0.44,0.55,0.42,0.43,0.37,0.23,0.51,0.3,0.23,0.53,0.27,0.56,0.43,0.37,0.43,0.55,0.31,0.23,0.47,0.37,0.44,0.52,0.53,0.27,0.31,0.43,0.23,0.43,0.25,0.43,0.42,0.31,0.37,0.51,0.53,0.43,0.37,0.23,0.82,0.44,0.53,0.43,0.23,0.51,0.3,0.23,0.52,0.37,0.27,0.37,0.31,0.27,0.55,0.43,0.23" style="fill:rgb(0,0,0);font-family:MinionPro-Regular;font-size:9.0px;stroke:none;">(Supporting Information) presents the electrochemical performances of different graphite electrodes made of pristine </text>
   <text y="331.31" x="155.639,159.729" svgx:width="0.47,0.75" style="fill:rgb(0,0,0);font-family:MinionPro-Regular;font-size:9.0px;stroke:none;">SO</text>
   <text y="333.112" x="166.277" svgx:width="0.48" style="fill:rgb(0,0,0);font-family:MinionPro-Regular;font-size:5.85px;stroke:none;">3</text>
   <text y="331.312" x="168.971,175.689,178.723,185.882,190.378,194.959,197.195,201.835,205.53,210.106,211.87,215.952,219.115,222.721,227.198,231.833,233.962,236.478,240.128,241.892,246.513,250.784,256.702,261.279,264.933,268.042,271.17,272.934,275.872,280.462,282.699,286.735,289.867,291.744,293.509,297.493,300.386,304.531,308.68,310.444,314.139,318.851,323.432,325.196,329.178,332.076,336.221,340.365,343.308,345.185,346.949,356.376,360.03,361.794,364.994,368.607,370.713,373.202,376.23,379.314,381.937,385.633,390.344,394.921,397.162,401.837,405.878,407.642,411.338,416.049,420.545,425.122,428.771,430.535,432.746,435.873,437.637,442.277,445.387,448.47,451.093,453.133,457.088,458.852,462.484,466.791,473.897,478.186,480.423,485.134,488.829,493.406,495.17,501.186,503.316,505.939,510.57,512.334,514.957,519.553,523.202,524.966,529.633,534.223,537.863,539.744,541.508,545.204,549.916,554.667" svgx:width="0.77,0.36,0.82,0.51,0.53,0.27,0.54,0.43,0.53,0.23,0.47,0.37,0.44,0.52,0.53,0.27,0.31,0.43,0.23,0.52,0.51,0.69,0.53,0.43,0.37,0.37,0.23,0.35,0.53,0.27,0.47,0.37,0.23,0.23,0.47,0.34,0.48,0.48,0.23,0.44,0.55,0.53,0.23,0.47,0.34,0.48,0.48,0.35,0.23,0.23,1.07,0.43,0.23,0.37,0.43,0.25,0.3,0.36,0.37,0.31,0.44,0.55,0.53,0.27,0.55,0.47,0.23,0.44,0.55,0.51,0.53,0.43,0.23,0.27,0.37,0.23,0.54,0.37,0.37,0.31,0.25,0.46,0.23,0.42,0.51,0.82,0.51,0.27,0.55,0.43,0.53,0.23,0.69,0.27,0.31,0.53,0.23,0.31,0.53,0.43,0.23,0.54,0.53,0.56,0.23,0.23,0.44,0.55,0.53,0.23" style="fill:rgb(0,0,0);font-family:MinionPro-Regular;font-size:9.0px;stroke:none;">H-modified graphite powders (Figs. SI11 and SI12). The self-standing anode is firstly combined with the LFP, and </text>
   <text y="341.311" x="155.642,158.244,162.816,166.443,167.982,170.503,175.13,177.254,179.333,180.872,185.516,190.079,194.948,197.729,201.788,204.929,208.512,212.968,217.576,219.682,222.176,225.803,227.342,231.761,235.344,237.802,240.296,243.923,247.326,251.259,252.798,254.986,258.091,259.63,263.356,266.417,269.595,273.222,280.306,284.617,286.696,290.368,294.922,296.461,302.456,304.563,307.164,311.772,313.311,316.984,321.709,323.248,326.875,330.853,334.462,338.089,341.15,344.255,345.794,349.43,353.013,357.576,361.329,364.938,367.045,369.619,373.552,375.091,377.477,381.762,384.903,386.442,389.043,393.616,397.243,398.782,402.455,407.144,411.617,416.171,419.745,421.599,423.138,432.544,436.171,437.71,441.266,445.848,449.521,452.59,456.533,460.16,462.941,467.495,469.683,472.861,476.417,480.998,484.67,487.74,491.683,495.31,496.849,501.26,504.285,508.57,513.233,515.312,518.939,520.478,524.763,527.229,528.768,531.369,535.942,539.569,541.108,545.725,548.812,551.873,554.618" svgx:width="0.31,0.53,0.43,0.23,0.3,0.53,0.25,0.25,0.23,0.54,0.53,0.56,0.33,0.47,0.37,0.44,0.52,0.53,0.27,0.31,0.43,0.23,0.51,0.44,0.31,0.31,0.43,0.37,0.46,0.23,0.27,0.37,0.23,0.44,0.37,0.37,0.43,0.82,0.51,0.25,0.43,0.53,0.23,0.69,0.27,0.31,0.53,0.23,0.44,0.55,0.23,0.43,0.47,0.42,0.43,0.37,0.37,0.23,0.42,0.44,0.52,0.44,0.42,0.27,0.31,0.46,0.23,0.3,0.51,0.37,0.23,0.31,0.53,0.43,0.23,0.44,0.55,0.51,0.53,0.43,0.23,0.23,1.07,0.43,0.23,0.42,0.53,0.44,0.37,0.47,0.43,0.33,0.53,0.27,0.37,0.42,0.53,0.44,0.37,0.47,0.43,0.23,0.52,0.37,0.51,0.54,0.25,0.43,0.23,0.51,0.3,0.23,0.31,0.53,0.43,0.23,0.54,0.37,0.37,0.31,0.23" style="fill:rgb(0,0,0);font-family:MinionPro-Regular;font-size:9.0px;stroke:none;">the full LFP/graphite battery is assembled with an excess capacity for the anode. The charge/discharge profile of the first </text>
   <text y="351.31" x="155.642,159.472,163.412,167.045,169.205,172.913,174.785,178.445,181.073,182.945,188.813,191.675,195.878,200.081,201.953,206.316,208.863,210.735,213.414,218.064,221.772,223.644,227.334,231.696,234.969,238.07,241.778,244.917,249.593,253.955,258.722,263.357,265.652,270.382,274.477,276.349,280.845,284.506,287.041,289.611,293.319,296.799,300.813,302.685,304.95,308.136,310.008,314.496,317.599,321.307,324.562,328.27,332.902,335.473,339.223,343.858,345.73,348.025,352.831,354.703,359.347,361.642,365.761,367.696" svgx:width="0.42,0.46,0.42,0.25,0.43,0.23,0.44,0.31,0.23,0.67,0.33,0.48,0.48,0.23,0.51,0.3,0.23,0.31,0.53,0.43,0.23,0.42,0.51,0.37,0.37,0.43,0.37,0.52,0.51,0.55,0.53,0.27,0.55,0.47,0.23,0.51,0.44,0.31,0.31,0.43,0.37,0.46,0.23,0.27,0.37,0.23,0.52,0.37,0.43,0.37,0.43,0.55,0.31,0.43,0.53,0.23,0.27,0.55,0.23,0.53,0.27,0.47,0.23,0.23" style="fill:rgb(0,0,0);font-family:MinionPro-Regular;font-size:9.0px;stroke:none;">cycle at C/24 of the corresponding battery is presented in Fig. </text>
   <text y="351.31" x="369.455,373.658,377.861" svgx:width="0.48,0.48,0.44" style="fill:rgb(0,0,255);font-family:MinionPro-Regular;font-size:9.0px;stroke:none;">16a</text>
   <text y="351.31" x="381.695,383.63,385.502,391.604,393.476,398.18,401.84,404.468,406.34,410.873,413.056,416.717,419.288,423.046,426.707,431.369,433.241,436.901,439.529,441.401,445.061,449.558,454.046,457.147,461.474,465.605,467.9,475.124,478.784,481.355,485.023,487.118,491.132,493.004,497.207,499.142,503.345,507.548,508.487,514.697,516.569,518.833,522.019,523.891,528.317,532.67,535.348,539.099,541.394,546.161,549.91,554.662" svgx:width="0.23,0.23,0.69,0.23,0.53,0.44,0.31,0.23,0.52,0.25,0.44,0.31,0.43,0.44,0.53,0.23,0.44,0.31,0.23,0.44,0.52,0.52,0.37,0.51,0.47,0.27,0.82,0.44,0.31,0.43,0.25,0.46,0.23,0.48,0.23,0.48,0.48,0.23,0.7,0.23,0.27,0.37,0.23,0.51,0.51,0.31,0.44,0.27,0.55,0.43,0.53,0.23" style="fill:rgb(0,0,0);font-family:MinionPro-Regular;font-size:9.0px;stroke:none;">. A flat plateau at approximately 3.25 V is obtained </text>
   <text y="361.309" x="155.651,161.663,163.787,166.406,171.032,172.661,176.432,178.061,181.184,188.348,192.164,194.306,196.403,198.032,202.648,206.996,209.119,212.81,216.022,218.254,221.854,225.454,228.064,230.296,234.598,239.341,241.213,242.842,246.532,251.24,255.812,257.441,260.06,264.65,268.295,269.924,274.559,277.663,280.742,283.307,284.936,289.508,291.713,294.908,298.48,303.08,306.77,309.857,313.817,317.462,319.091,323.663,327.272,329.369,331.539,335.454,339.099,342.141,345.831,350.403,352.032,354.237,357.36,358.989,362.589,367.026,371.454,374.496,378.762,382.83,385.062,392.226,395.826,398.337,401.946,403.98,407.931,409.56,413.7,417.84,421.98,423.609,430.8,436.866,441.492,443.346" svgx:width="0.69,0.27,0.31,0.53,0.23,0.44,0.23,0.37,0.82,0.44,0.25,0.25,0.23,0.52,0.51,0.25,0.44,0.37,0.27,0.42,0.44,0.31,0.27,0.51,0.55,0.23,0.23,0.44,0.55,0.53,0.23,0.31,0.53,0.43,0.23,0.54,0.37,0.37,0.31,0.23,0.53,0.27,0.37,0.42,0.53,0.44,0.37,0.47,0.43,0.23,0.53,0.43,0.25,0.27,0.46,0.43,0.37,0.43,0.53,0.23,0.27,0.37,0.23,0.44,0.52,0.52,0.37,0.51,0.47,0.27,0.82,0.44,0.31,0.43,0.25,0.46,0.23,0.48,0.48,0.48,0.23,0.82,0.69,0.53,0.23,0.47" style="fill:rgb(0,0,0);font-family:MinionPro-Regular;font-size:9.0px;stroke:none;">with a small polarization, and the first discharge delivered is approximately 125 mAh·g</text>
   <text y="358.252" x="447.317" svgx:width="0.78" style="fill:rgb(0,0,0);font-family:EuclidSymbol;font-size:5.85px;stroke:none;">−</text>
   <text y="358.252" x="451.751" svgx:width="0.48" style="fill:rgb(0,0,0);font-family:MinionPro-Regular;font-size:5.85px;stroke:none;">1</text>
   <text y="361.312" x="454.442,456.314,457.943,467.366,471.011,472.64,476.906,480.821,484.466,487.625,491.441,493.583,495.68,497.309,501.926,506.237,508.748,512.393,516.965,519.575,521.833,525.649,527.746,529.375,531.58,534.703,536.332,543.487,547.789,550.831,554.656" svgx:width="0.23,0.23,1.07,0.43,0.23,0.51,0.46,0.43,0.37,0.44,0.25,0.25,0.23,0.52,0.51,0.31,0.43,0.55,0.31,0.27,0.44,0.25,0.23,0.27,0.37,0.23,0.82,0.51,0.37,0.43,0.23" style="fill:rgb(0,0,0);font-family:MinionPro-Regular;font-size:9.0px;stroke:none;">. The overall potential is more </text>
   <text y="371.311" x="155.642,157.942,162.581,165.16,168.872,171.982,175.694,178.84,181.517,183.817,188.555,192.655,194.554,197.239,201.907,205.664,210.475,212.369,215.056,219.723,223.39,226.027,227.921,232.291,234.842,236.741,239.428,244.085,247.798,249.697,254.426,259.075,264.028,266.895,271.049,276.417,283.028,284.927,288.117,292.136,295.281,297.86,301.572,308.831,310.73,315.225,318.335,322.047,325.31,329.022,333.662,336.24,339.997,344.641,346.535,350.302,354.059,357.25,359.414,361.714,365.426,368.869,370.808,372.707,377.365,381.698,387.679,391.463,395.446,399.158,401.818,403.757,405.656,408.342,413.0,416.712,418.611,421.756,426.441,430.198,433.893,436.192,440.895,444.589,446.484,450.205,453.873,458.521,462.36,466.054,468.246,470.905,474.924,476.823,479.095,482.286,484.18,486.345,490.678,496.66,500.371,503.598,505.497,510.037,513.795,517.516,521.184,525.824,529.086,532.799,534.693,539.063,541.614,543.513,546.2,550.857,554.682" svgx:width="0.27,0.55,0.31,0.43,0.37,0.43,0.37,0.31,0.27,0.55,0.47,0.23,0.31,0.53,0.44,0.55,0.23,0.31,0.53,0.44,0.31,0.23,0.51,0.3,0.23,0.31,0.53,0.43,0.23,0.54,0.53,0.56,0.33,0.54,0.62,0.75,0.23,0.37,0.46,0.37,0.31,0.43,0.82,0.23,0.52,0.37,0.43,0.37,0.43,0.55,0.31,0.43,0.53,0.23,0.43,0.44,0.37,0.25,0.27,0.43,0.37,0.23,0.23,0.53,0.51,0.69,0.43,0.46,0.43,0.37,0.23,0.23,0.31,0.53,0.43,0.23,0.37,0.52,0.43,0.42,0.27,0.54,0.42,0.23,0.42,0.44,0.52,0.44,0.42,0.27,0.31,0.46,0.23,0.27,0.37,0.23,0.25,0.51,0.69,0.43,0.37,0.23,0.51,0.43,0.42,0.44,0.53,0.37,0.43,0.23,0.51,0.3,0.23,0.31,0.53,0.43,0.23" style="fill:rgb(0,0,0);font-family:MinionPro-Regular;font-size:9.0px;stroke:none;">interesting than that of the LFP/LTO system presented earlier; however, the specific capacity is lower because of the </text>
   <text y="381.31" x="155.642,157.901,161.138,164.204,167.945,171.884,175.556,178.684,181.834,184.054,188.407,190.531,194.203,195.985,199.639,203.965,208.66,211.762,216.388,223.432,227.893,230.527,232.786,237.111,241.881,243.663,247.99,250.501,252.283,254.407,256.555,259.197,263.85,265.999,270.625,277.843,279.625,283.897,287.875,289.657,292.3,296.914,300.586,302.368,306.469,309.655,313.279,317.776,322.429,324.577,327.111,330.783,332.565,336.28,341.01,345.525,350.124,353.739,355.638,357.42,363.339,366.489,368.271,371.382,375.997,380.286,386.322,391.092,392.874,395.133,399.903,401.685,406.293,408.552,412.635,414.534" svgx:width="0.27,0.37,0.37,0.43,0.46,0.43,0.37,0.37,0.27,0.51,0.25,0.43,0.23,0.42,0.51,0.55,0.37,0.53,0.82,0.52,0.31,0.27,0.51,0.55,0.23,0.51,0.3,0.23,0.25,0.27,0.31,0.53,0.27,0.53,0.82,0.23,0.51,0.46,0.23,0.31,0.53,0.43,0.23,0.47,0.37,0.44,0.52,0.53,0.27,0.31,0.43,0.23,0.44,0.55,0.51,0.53,0.43,0.23,0.23,0.69,0.37,0.23,0.37,0.53,0.51,0.69,0.55,0.23,0.27,0.55,0.23,0.53,0.27,0.47,0.23,0.23" style="fill:rgb(0,0,0);font-family:MinionPro-Regular;font-size:9.0px;stroke:none;">irreversible consumption of lithium by the graphite anode. As shown in Fig. </text>
   <text y="381.31" x="416.264,420.431,424.598" svgx:width="0.48,0.48,0.44" style="fill:rgb(0,0,255);font-family:MinionPro-Regular;font-size:9.0px;stroke:none;">16a</text>
   <text y="381.31" x="428.396,430.295,432.077,434.72,439.373,441.601,444.751,446.533,449.635,452.269,455.335,459.662,464.356,468.415,470.197,472.456,475.692,478.759,482.499,486.438,490.11,493.239,496.389,498.608,502.917,505.218,507.342,509.49,512.105,516.083,517.865,520.932,524.604,527.706,532.373,534.387,536.979,540.129,541.911,544.17,548.94,550.722,554.673" svgx:width="0.23,0.23,0.31,0.53,0.27,0.37,0.23,0.37,0.31,0.37,0.51,0.55,0.47,0.23,0.27,0.37,0.37,0.43,0.46,0.43,0.37,0.37,0.27,0.51,0.27,0.25,0.27,0.31,0.46,0.23,0.37,0.43,0.37,0.53,0.25,0.31,0.37,0.23,0.27,0.55,0.23,0.44,0.23" style="fill:rgb(0,0,0);font-family:MinionPro-Regular;font-size:9.0px;stroke:none;">, this strong irreversibility results in a </text>
   <text y="391.309" x="155.642,161.632,165.992,170.685,172.831,177.183,184.333,188.666,190.948,194.623,196.45,200.145,207.195,210.872,213.153,216.847,221.603,225.424,229.423,231.25,235.602,238.135,239.962,244.313,249.15,251.233,255.234,257.061,261.25,265.44,272.112,273.939,276.392,280.742,283.951,285.778,288.446,293.086,296.779,298.606,303.291,306.445,309.572,312.187,314.014,317.834,321.763,325.384,327.531,331.171,333.092,334.919,339.261,343.801,346.415,348.242,350.415,353.03,354.857,359.333,362.542,366.362,370.101,372.76,375.041,378.744,382.61,384.8,386.884,390.884,392.711,395.803,399.552,403.371,406.994,411.633,415.328,418.499,420.326,424.515,428.704,432.894,439.567,441.394,443.676,448.467,450.294,452.963,457.602,461.296,463.123,466.251,470.899,474.576,478.251,481.991,485.729,490.351,492.632,497.353,501.433,503.26,507.08,511.009,514.631,516.777,520.471,523.644,525.471,529.12,531.735,533.562,537.818,538.808,544.663,546.583,548.411,554.63" svgx:width="0.67,0.51,0.53,0.25,0.51,0.82,0.51,0.27,0.42,0.23,0.43,0.8,0.42,0.27,0.43,0.55,0.42,0.46,0.23,0.51,0.3,0.23,0.51,0.55,0.25,0.46,0.23,0.48,0.48,0.76,0.23,0.3,0.51,0.37,0.23,0.31,0.53,0.43,0.23,0.54,0.37,0.37,0.31,0.23,0.42,0.46,0.42,0.25,0.43,0.23,0.23,0.51,0.53,0.31,0.23,0.27,0.31,0.23,0.52,0.37,0.44,0.42,0.31,0.27,0.42,0.44,0.25,0.25,0.46,0.23,0.37,0.43,0.44,0.42,0.53,0.43,0.37,0.23,0.48,0.48,0.48,0.76,0.23,0.27,0.55,0.23,0.31,0.53,0.43,0.23,0.37,0.53,0.42,0.42,0.43,0.43,0.53,0.27,0.55,0.47,0.23,0.42,0.46,0.42,0.25,0.43,0.37,0.23,0.44,0.31,0.23,0.48,0.23,0.67,0.23,0.23,0.69,0.23" style="fill:rgb(0,0,0);font-family:MinionPro-Regular;font-size:9.0px;stroke:none;">Coulombic efficiency of only 76% for the first cycle, but it practically reaches 100% in the succeeding cycles at 1 C. A </text>
   <text y="401.308" x="155.633,157.784,162.143,166.872,170.958,174.036,176.603,180.302,183.572,190.817,192.671,196.499,200.434,204.064,206.215,208.501,213.23,217.316,219.17,222.869,226.991,231.664,235.363,238.633,240.919,248.131,251.83,256.459,259.078,260.932,263.194,266.371,268.225,272.098,274.225,277.476,281.94,283.794,288.468,292.167,295.437,297.896,302.256,305.525,312.737,316.484,321.11,322.964,325.424,329.783,332.996,334.85,339.044,343.238,347.432,349.286,353.114,357.05,360.679,362.83,366.529,369.706,371.56,375.217,377.836,379.69,383.515,385.369,389.197,393.133,396.762,398.913,401.199,405.928,410.014,411.868,415.081,418.738,421.306,425.005,426.859,431.218,433.756,435.61,439.804,440.951,446.81,448.736,450.59,455.225,457.511,461.597,466.25,469.349,473.048" svgx:width="0.25,0.51,0.55,0.47,0.36,0.31,0.43,0.37,0.82,0.23,0.42,0.46,0.42,0.25,0.27,0.55,0.47,0.23,0.43,0.47,0.52,0.43,0.37,0.27,0.82,0.43,0.55,0.31,0.23,0.27,0.37,0.23,0.44,0.25,0.37,0.51,0.23,0.52,0.43,0.37,0.3,0.51,0.37,0.82,0.43,0.53,0.23,0.3,0.51,0.37,0.23,0.48,0.48,0.48,0.23,0.42,0.46,0.42,0.25,0.43,0.37,0.23,0.44,0.31,0.23,0.44,0.23,0.42,0.46,0.42,0.25,0.27,0.55,0.47,0.23,0.37,0.44,0.31,0.43,0.23,0.51,0.3,0.23,0.48,0.23,0.67,0.23,0.23,0.53,0.27,0.47,0.53,0.37,0.43,0.23" style="fill:rgb(0,0,0);font-family:MinionPro-Regular;font-size:9.0px;stroke:none;">long-term cycling experiment is also performed for 300 cycles at a cycling rate of 1 C. Figure </text>
   <text y="401.308" x="474.926,479.12,483.314" svgx:width="0.48,0.48,0.51" style="fill:rgb(0,0,255);font-family:MinionPro-Regular;font-size:9.0px;stroke:none;">16b</text>
   <text y="401.308" x="487.76,489.614,494.099,497.198,500.897,504.148,507.847,512.475,515.094,518.271,520.125,522.801,527.449,531.148,533.002,536.136,538.812,542.569,546.909,549.243,551.394" svgx:width="0.23,0.52,0.37,0.43,0.37,0.43,0.55,0.31,0.37,0.23,0.31,0.53,0.43,0.23,0.37,0.31,0.44,0.51,0.27,0.25,0.36" style="fill:rgb(0,0,0);font-family:MinionPro-Regular;font-size:9.0px;stroke:none;"> presents the stabil-</text>
   <text y="411.307" x="155.633,157.808,160.449,164.454,166.29,170.642,173.18,175.016,177.685,182.325,186.024,187.86,192.571,197.206,202.143,204.996,209.122,212.335,215.985,220.508,225.183,227.358,229.918,233.617,235.453,239.941,243.59,246.116,248.676,252.375,255.845,259.189,261.111,262.947,269.009,274.063,277.758,280.966,282.802,286.992,291.186,295.375,297.211,300.834,305.483,309.223,312.36,316.37,320.069,322.922,327.543,329.799,333.043,336.667,341.315,345.055,348.192,352.202,355.897,357.733,361.553,365.483,369.105,371.256,374.951,378.128,380.049,381.885,384.555,389.194,392.893,394.729,397.858,402.524,406.264,409.945,412.226,416.915,420.592,422.428,426.132,429.782,434.413,438.234,441.915,444.088,446.73,450.731,452.567,454.821,457.998,459.834,463.485,467.971,472.45,475.541,479.858,483.975,486.261,493.475,497.125,499.686,503.345,505.429,509.434,511.27,515.464,519.653,521.489,528.729,534.845,539.525,541.433" svgx:width="0.27,0.31,0.46,0.23,0.51,0.3,0.23,0.31,0.53,0.43,0.23,0.54,0.53,0.56,0.33,0.47,0.37,0.44,0.52,0.53,0.27,0.31,0.43,0.23,0.51,0.44,0.31,0.31,0.43,0.37,0.46,0.23,0.23,0.69,0.58,0.43,0.37,0.23,0.48,0.48,0.48,0.23,0.42,0.53,0.44,0.37,0.47,0.43,0.33,0.53,0.27,0.37,0.42,0.53,0.44,0.37,0.47,0.43,0.23,0.42,0.46,0.42,0.25,0.43,0.37,0.23,0.23,0.31,0.53,0.43,0.23,0.37,0.52,0.43,0.42,0.27,0.54,0.42,0.23,0.42,0.44,0.52,0.44,0.42,0.27,0.31,0.46,0.23,0.27,0.37,0.23,0.44,0.52,0.52,0.37,0.51,0.47,0.27,0.82,0.44,0.31,0.43,0.25,0.46,0.23,0.48,0.48,0.23,0.82,0.69,0.53,0.23,0.47" style="fill:rgb(0,0,0);font-family:MinionPro-Regular;font-size:9.0px;stroke:none;">ity of the LFP/graphite battery. After 300 charge/discharge cycles, the specific capacity is approximately 88 mAh·g</text>
   <text y="408.252" x="545.392" svgx:width="0.78" style="fill:rgb(0,0,0);font-family:EuclidSymbol;font-size:5.85px;stroke:none;">−</text>
   <text y="408.252" x="549.862" svgx:width="0.48" style="fill:rgb(0,0,0);font-family:MinionPro-Regular;font-size:5.85px;stroke:none;">1</text>
   <text y="411.312" x="552.586,554.638" svgx:width="0.23,0.23" style="fill:rgb(0,0,0);font-family:MinionPro-Regular;font-size:9.0px;stroke:none;">, </text>
   <text y="421.311" x="155.641,161.682,166.299,168.522,172.089,176.706,178.254,181.872,186.168,189.374,192.411,196.047,199.119,203.729,208.025,212.727,217.265,220.379,221.927,224.432,228.833,230.381,234.512,238.643,245.258,246.806,251.103,253.578,255.126,257.739,262.323,265.959,267.507,269.73,274.464,276.582,279.185,281.439,285.249,287.337,288.885,293.448,295.646,298.835,302.402,306.995,310.679,313.76,317.714,321.35,322.898,326.547,330.141,334.715,338.477,342.095,344.213,346.8,350.742,352.29,356.649,360.936,363.549,367.233,369.456,374.157,377.841,382.404,383.952,387.545,390.101,391.649,395.78,396.814,402.61,404.473,406.021,412.08,414.064,416.677,421.26,425.565,430.155,434.244,438.861,440.409,443.022,447.606,451.242,452.79,458.724,463.028,467.666,469.754,474.05,481.144,485.422,487.645,491.263,492.811,496.447,503.44,507.058,509.281,512.917,517.619,521.383,525.326,526.873,529.909,533.545,540.703,544.388,546.611,551.275,554.578" svgx:width="0.69,0.53,0.27,0.42,0.53,0.23,0.42,0.51,0.37,0.37,0.43,0.37,0.52,0.51,0.55,0.53,0.37,0.23,0.31,0.51,0.23,0.48,0.48,0.76,0.23,0.51,0.3,0.23,0.31,0.53,0.43,0.23,0.27,0.55,0.27,0.31,0.27,0.44,0.25,0.23,0.53,0.27,0.37,0.42,0.53,0.44,0.37,0.47,0.43,0.23,0.42,0.44,0.52,0.44,0.42,0.27,0.31,0.46,0.23,0.51,0.51,0.31,0.44,0.27,0.55,0.43,0.53,0.23,0.44,0.31,0.23,0.48,0.23,0.67,0.23,0.23,0.69,0.25,0.31,0.53,0.51,0.53,0.47,0.53,0.23,0.31,0.53,0.43,0.23,0.67,0.51,0.53,0.25,0.51,0.82,0.51,0.27,0.42,0.23,0.43,0.8,0.42,0.27,0.43,0.55,0.42,0.46,0.23,0.37,0.43,0.82,0.44,0.27,0.55,0.37,0.23" style="fill:rgb(0,0,0);font-family:MinionPro-Regular;font-size:9.0px;stroke:none;">which corresponds to 85% of the initial discharge capacity obtained at 1 C. Although the Coulombic efficiency remains </text>
   <text y="431.31" x="155.641,159.322,163.679,168.407,171.541,174.216,177.962,182.59,185.209,187.063,190.719,193.338,195.192,198.849,203.341,207.825,210.924,215.246,219.368,221.654,228.874,232.53,235.097,238.762,240.853,244.858,246.712,250.906,255.1,259.294,265.972,267.826,272.345,276.998,280.268,282.554,287.281,291.367,293.221,295.896,300.542,304.241,306.095,309.794,314.422,317.088,319.374,322.473,326.172,328.026,331.725,335.847,340.52,344.219,347.488,349.774,356.985,360.684,365.313,367.932,369.858,371.712,375.537,377.391,381.524,384.737,388.562,393.082,397.764,401.636,403.787,405.641,409.351,413.007,417.644,421.469,425.15,427.33,429.979,433.984,435.838,438.376,442.201,446.827,449.113,453.84,457.926,459.78,462.04,465.217,467.071,470.845,474.915,477.201,481.827,485.526,490.155,492.774,494.628,499.111,502.209,506.631,511.124,514.879,519.264,521.354,525.359,527.213,531.742,535.488,539.198,542.854,547.482,550.733,554.558" svgx:width="0.42,0.51,0.55,0.37,0.31,0.44,0.55,0.31,0.23,0.44,0.31,0.23,0.44,0.52,0.52,0.37,0.51,0.47,0.27,0.82,0.44,0.31,0.43,0.25,0.46,0.23,0.48,0.48,0.48,0.76,0.23,0.53,0.53,0.37,0.27,0.55,0.47,0.23,0.31,0.53,0.43,0.23,0.43,0.55,0.31,0.27,0.37,0.43,0.23,0.43,0.47,0.52,0.43,0.37,0.27,0.82,0.43,0.55,0.31,0.23,0.23,0.44,0.23,0.47,0.37,0.44,0.53,0.53,0.44,0.25,0.23,0.42,0.44,0.52,0.44,0.42,0.27,0.31,0.46,0.23,0.3,0.44,0.53,0.27,0.55,0.47,0.23,0.27,0.37,0.23,0.43,0.46,0.27,0.53,0.43,0.55,0.31,0.23,0.52,0.37,0.51,0.51,0.44,0.51,0.25,0.46,0.23,0.51,0.43,0.42,0.44,0.53,0.37,0.43,0.23" style="fill:rgb(0,0,0);font-family:MinionPro-Regular;font-size:9.0px;stroke:none;">constant at approximately 100% during the entire experiment, a gradual capacity fading is evident probably because </text>
   <text y="441.309" x="155.641,159.978,162.498,164.298,166.952,171.577,175.258,177.058,180.747,184.382,187.037,191.662,196.188,200.796,204.477,206.277,210.003,214.745,219.353,221.153,224.879,229.622,234.149,238.757,242.383,244.291,246.091,249.87,253.029,254.829,257.952,262.577,266.879,272.926,277.705,279.505,281.773,286.552,288.352,292.969,295.237,299.305,302.464,304.372" svgx:width="0.51,0.3,0.23,0.31,0.53,0.43,0.23,0.42,0.44,0.31,0.53,0.51,0.53,0.43,0.23,0.44,0.55,0.53,0.23,0.44,0.55,0.51,0.53,0.43,0.23,0.23,0.44,0.37,0.23,0.37,0.53,0.51,0.69,0.55,0.23,0.27,0.55,0.23,0.53,0.27,0.47,0.37,0.23,0.23" style="fill:rgb(0,0,0);font-family:MinionPro-Regular;font-size:9.0px;stroke:none;">of the cathode and anode, as shown in Figs. </text>
   <text y="441.309" x="306.13,310.306" svgx:width="0.48,0.48" style="fill:rgb(0,0,255);font-family:MinionPro-Regular;font-size:9.0px;stroke:none;">13</text>
   <text y="441.309" x="314.482,316.282,320.007,324.75,329.358,331.158,335.172,338.097,342.273,346.449,348.357,350.157,352.937,357.716,359.516,363.179,367.516,372.124,374.769,377.964,381.744,384.857,387.458,389.366,391.166,393.82,398.446,402.127,403.927,407.778,409.956,412.089,415.149,419.766,423.401,428.053,431.734,434.929,436.729,441.427,446.044,450.967,453.802,457.914,461.109,464.745,469.254,473.916,476.075,478.622,482.303,484.103,488.575,492.211,494.721,497.267,500.948,504.403,508.39,510.19,512.71,516.444,520.764,524.012,526.28,529.97,533.606,536.152,539.878,544.486,546.286,550.569,554.7" svgx:width="0.23,0.44,0.55,0.53,0.23,0.47,0.34,0.48,0.48,0.23,0.23,0.34,0.55,0.23,0.42,0.51,0.55,0.31,0.37,0.44,0.37,0.31,0.23,0.23,0.31,0.53,0.43,0.23,0.44,0.25,0.25,0.36,0.52,0.44,0.52,0.43,0.37,0.23,0.54,0.53,0.56,0.33,0.47,0.37,0.44,0.52,0.53,0.27,0.31,0.43,0.23,0.51,0.44,0.31,0.31,0.43,0.37,0.46,0.23,0.3,0.44,0.51,0.37,0.27,0.42,0.44,0.31,0.43,0.53,0.23,0.51,0.46,0.23" style="fill:rgb(0,0,0);font-family:MinionPro-Regular;font-size:9.0px;stroke:none;"> and SI12. In contrast, the all-paper LFP/graphite battery fabricated by </text>
   <text y="451.308" x="155.641,160.357,163.975,166.073,168.216,172.492,177.208,184.346,188.01,191.026,194.573,198.83" svgx:width="0.54,0.43,0.27,0.26,0.51,0.55,0.82,0.44,0.37,0.42,0.5,0.23" style="fill:rgb(0,0,0);font-family:MinionPro-Regular;font-size:9.0px;stroke:none;">Leijonmarck </text>
   <text y="451.308" x="200.362,203.692,206.248,207.796,211.9" svgx:width="0.4,0.31,0.23,0.49,0.25" style="fill:rgb(0,0,0);font-family:MinionPro-It;font-size:9.0px;stroke:none;">et al</text>
   <text y="451.308" x="213.934,215.779,217.309,220.927,224.968,229.567,231.736,235.993,238.091,240.629,243.725,245.255,249.846,254.311,258.587,261.719,263.249,266.993,270.846,274.393,276.491,280.164,284.422,286.672,288.742,290.839,293.405" svgx:width="0.23,0.23,0.43,0.47,0.53,0.27,0.51,0.27,0.31,0.37,0.23,0.52,0.51,0.51,0.37,0.23,0.42,0.46,0.42,0.25,0.44,0.51,0.27,0.25,0.27,0.31,0.46" style="fill:rgb(0,0,0);font-family:MinionPro-Regular;font-size:9.0px;stroke:none;">. exhibits poor cyclability</text>
   <text y="448.252" x="297.336,300.01" svgx:width="0.48,0.48" style="fill:rgb(0,0,255);font-family:MinionPro-Regular;font-size:5.85px;stroke:none;">31</text>
   <text y="451.312" x="302.684,304.529,306.059,308.778,313.494,315.024,317.481,321.225,324.889,327.427,329.272,330.802,334.466,339.443,343.061,346.193,347.723,351.836,355.949,360.062,361.592,365.139,369.712,373.376,376.437,380.371,383.989,386.761,391.306,393.484,396.653,400.2,404.773,408.437,411.498,415.432,419.05,420.58,424.324,428.177,431.724,433.794,437.412,440.508,442.038,445.612,448.15,449.68,453.793,454.73,460.508,462.353,463.883,467.457,471.868,476.27,479.286,483.526,487.567,489.772,496.91,500.484,502.969,506.551,508.559,512.483,514.013,518.126,522.239,523.769,530.933,536.972,541.571,543.398" svgx:width="0.23,0.23,0.34,0.55,0.23,0.3,0.44,0.42,0.31,0.23,0.23,0.44,0.58,0.43,0.37,0.23,0.48,0.48,0.48,0.23,0.42,0.53,0.44,0.37,0.47,0.43,0.33,0.53,0.27,0.37,0.42,0.53,0.44,0.37,0.47,0.43,0.23,0.42,0.46,0.42,0.25,0.43,0.37,0.23,0.44,0.31,0.23,0.48,0.23,0.67,0.23,0.23,0.44,0.52,0.52,0.37,0.51,0.47,0.27,0.82,0.44,0.31,0.43,0.25,0.46,0.23,0.48,0.48,0.23,0.82,0.69,0.53,0.23,0.47" style="fill:rgb(0,0,0);font-family:MinionPro-Regular;font-size:9.0px;stroke:none;">. In fact, after 300 charge/discharge cycles at 1 C, approximately 50 mAh·g</text>
   <text y="448.252" x="547.414" svgx:width="0.78" style="fill:rgb(0,0,0);font-family:EuclidSymbol;font-size:5.85px;stroke:none;">−</text>
   <text y="448.252" x="551.831" svgx:width="0.48" style="fill:rgb(0,0,0);font-family:MinionPro-Regular;font-size:5.85px;stroke:none;">1</text>
   <text y="451.312" x="554.638" svgx:width="0.23" style="fill:rgb(0,0,0);font-family:MinionPro-Regular;font-size:9.0px;stroke:none;"> </text>
   <text y="461.311" x="155.641,157.846,160.969,162.625,166.99,171.283,173.902,177.592,179.824,184.531,188.221,192.739,194.611,196.267,202.315,206.941,209.173,212.746,217.372,219.028,222.655,226.957,230.17,233.212,236.857,239.934,244.551,248.853,253.56,258.106,261.229,262.885,265.396,269.806,271.462,275.233,276.889,279.931,283.576,286.087,289.732,294.304,296.914,299.146,303.448,308.191,309.847,313.501,317.101,321.682,325.453,329.08,331.204,333.795,337.746,339.402,343.704,346.188,347.844,352.884,357.024,361.164,367.788" svgx:width="0.27,0.37,0.23,0.51,0.51,0.31,0.44,0.27,0.55,0.43,0.53,0.23,0.23,0.69,0.53,0.27,0.42,0.53,0.23,0.42,0.51,0.37,0.37,0.43,0.37,0.52,0.51,0.55,0.53,0.37,0.23,0.31,0.51,0.23,0.44,0.23,0.37,0.43,0.31,0.43,0.55,0.31,0.27,0.51,0.55,0.23,0.42,0.44,0.52,0.44,0.42,0.27,0.31,0.46,0.23,0.51,0.3,0.23,0.58,0.48,0.48,0.76,0.23" style="fill:rgb(0,0,0);font-family:MinionPro-Regular;font-size:9.0px;stroke:none;">is obtained, which corresponds to a retention capacity of ~45%.</text>
   <text y="483.312" x="155.638,161.368,163.946,169.126,173.586,177.434,180.984,186.574,191.034,196.684,201.864,210.434,212.974,217.434,222.634,225.212,227.252,232.802,237.982,241.532,244.868,250.458,254.008,262.578,267.778,273.378,277.838,283.018,285.058,290.648,293.984,296.024,300.484,306.074,314.644,320.194,322.772,327.952,331.8,336.98,339.02,345.08,350.593,356.558,363.498,370.124,373.123,378.673,382.223,387.423,392.973,398.623,401.163,405.011,410.191,412.231,417.851,423.051,426.899,430.747,435.927,439.477,442.017,447.197,451.487,454.488" svgx:width="0.57,0.25,0.51,0.44,0.38,0.35,0.55,0.44,0.56,0.51,0.85,0.25,0.44,0.51,0.25,0.21,0.55,0.51,0.35,0.33,0.55,0.35,0.85,0.51,0.56,0.44,0.51,0.21,0.55,0.33,0.21,0.44,0.55,0.85,0.55,0.25,0.51,0.38,0.51,0.21,0.6,0.57,0.58,0.69,0.66,0.29,0.55,0.35,0.51,0.55,0.56,0.25,0.38,0.51,0.21,0.56,0.51,0.38,0.38,0.51,0.35,0.25,0.51,0.42,0.29,0.21" style="fill:rgb(0,0,0);font-family:Corbel-Bold2;font-size:10.0px;stroke:none;">electrochemical performance of complete ptcDA/graphite batteries. </text>
   <text y="483.312" x="464.544,470.79,475.767,477.792,481.841,484.217,486.548,489.806,494.342,497.663,501.928,505.852,510.829,513.295,517.156,519.181,523.842,527.118,531.663,534.407,538.952,541.777,545.962,550.812,554.637" svgx:width="0.69,0.55,0.23,0.44,0.25,0.25,0.36,0.51,0.37,0.47,0.44,0.55,0.27,0.42,0.23,0.52,0.37,0.51,0.31,0.51,0.31,0.46,0.52,0.43,0.23" style="fill:rgb(0,0,0);font-family:MinionPro-Regular;font-size:9.0px;stroke:none;">An all-organic prototype </text>
   <text y="493.311" x="155.637,160.731,166.237,172.249,178.564,184.81,187.816,192.097,195.463,199.267,203.945,208.778,211.106,213.821,217.673,219.635,224.277,228.081,230.76,233.476,237.328,240.952,245.11,247.072,253.288,255.616,258.44,263.234,267.75,272.446,275.218,277.18,279.994,283.36,287.254,292.129,295.459,297.788,300.602,303.041,307.547,312.497,314.459,321.819,325.671,328.494,332.514,334.818,336.78,339.19,342.52,344.482,349.114,352.36,356.212,360.998,364.892,368.138,372.032,376.811,378.773,382.669,387.58,392.359,394.321,398.134,400.438,404.332,408.227,411.041,414.287,418.983,422.76,427.554,431.406,438.804,441.243,445.102,449.122,451.468,453.707,457.865,459.827,462.542,466.394,469.677,472.392,476.286,481.008,483.087,485.049,487.791,490.563,492.525,494.935,498.265,500.227,504.121,511.48,515.986,520.863,525.102,527.064,529.887,534.681,538.533,540.495,545.337,548.646,551.929,554.674" svgx:width="0.56,0.62,0.67,0.74,0.69,0.33,0.47,0.37,0.44,0.52,0.53,0.27,0.31,0.43,0.23,0.51,0.44,0.31,0.31,0.43,0.37,0.46,0.23,0.69,0.27,0.31,0.53,0.51,0.53,0.31,0.23,0.31,0.37,0.44,0.55,0.37,0.27,0.31,0.27,0.51,0.55,0.23,0.82,0.43,0.31,0.44,0.25,0.23,0.27,0.37,0.23,0.52,0.37,0.43,0.52,0.44,0.37,0.43,0.53,0.23,0.44,0.55,0.53,0.23,0.43,0.25,0.43,0.42,0.31,0.37,0.51,0.42,0.53,0.43,0.82,0.27,0.42,0.44,0.25,0.25,0.46,0.23,0.31,0.43,0.37,0.31,0.43,0.53,0.23,0.23,0.34,0.31,0.23,0.27,0.37,0.23,0.44,0.82,0.51,0.55,0.47,0.23,0.31,0.53,0.43,0.23,0.54,0.37,0.37,0.31,0.23" style="fill:rgb(0,0,0);font-family:MinionPro-Regular;font-size:9.0px;stroke:none;">PTCDA/graphite battery without transition metal is prepared and electrochemically tested. It is among the first </text>
   <text y="503.31" x="155.637,159.034,162.845,165.144,167.831,171.056,174.336,177.157,181.049,185.958,190.732,193.166,198.039,202.274,204.236,208.875,212.677,215.354,218.067,221.913,225.329,227.762,231.61,234.935,236.897,239.717,244.519,248.32,251.088,253.05,255.457,258.782,260.744,264.573,269.077,276.299,281.118,285.73,289.126,293.019,297.792,299.754,304.259,306.944,308.906,313.41,316.7,320.933,324.826,329.77,332.204,336.033,337.995,341.239,345.131,349.905,354.374,358.643,360.605,367.962,372.511,374.81,378.701,382.594,387.44,389.738,393.585,396.91,398.872,402.764,407.673,412.447,414.409,418.896,421.329,426.022,430.796,434.643,438.921,442.283,446.256,451.057,454.958,459.489,461.788,465.635,467.597,471.427,475.93,483.153,487.971,492.475,497.385,501.231,506.006,508.772,512.098,514.06,517.304,521.151,525.969,530.474,533.925,536.638,540.53,545.303,547.265,549.7,554.623" svgx:width="0.37,0.43,0.25,0.3,0.36,0.37,0.31,0.44,0.55,0.53,0.27,0.55,0.47,0.23,0.51,0.44,0.31,0.31,0.43,0.37,0.27,0.43,0.37,0.23,0.31,0.53,0.44,0.31,0.23,0.27,0.37,0.23,0.42,0.51,0.82,0.52,0.51,0.37,0.43,0.53,0.23,0.51,0.3,0.23,0.51,0.37,0.47,0.44,0.55,0.27,0.42,0.23,0.37,0.43,0.53,0.51,0.47,0.23,0.82,0.51,0.25,0.43,0.42,0.53,0.25,0.43,0.37,0.23,0.44,0.55,0.53,0.23,0.51,0.27,0.51,0.53,0.43,0.47,0.37,0.44,0.53,0.44,0.51,0.25,0.43,0.23,0.42,0.51,0.82,0.52,0.51,0.55,0.43,0.55,0.31,0.37,0.23,0.37,0.43,0.52,0.51,0.37,0.31,0.43,0.53,0.23,0.27,0.55,0.23" style="fill:rgb(0,0,0);font-family:MinionPro-Regular;font-size:9.0px;stroke:none;">self-standing batteries that is composed of organic redox molecules and biodegradable components reported in </text>
   <text y="513.309" x="155.637,157.91,160.21,162.897,166.722,170.056,173.833,176.483,181.262,184.48,188.247,190.294,192.027,201.626,205.447,207.179,211.721,216.189,218.535,222.4,226.266,229.051,231.397,235.488,239.308,241.041,245.518,248.182,249.915,252.709,257.515,259.896,263.199,264.931,268.756,272.999,277.792,281.617,285.005,287.417,294.748,298.573,303.32,306.065,307.797,310.178,313.477,315.209,317.896,322.482,324.215,328.967,332.787,340.118,344.596,349.443,352.697,355.482,358.821,362.597,365.284,369.105,370.837,373.633,378.398,382.219,383.951,387.758,392.236,397.119,400.922,404.747,409.359,412.104,413.837,418.314,420.974,422.706,426.657,428.39,433.002,436.779,439.429,442.117,445.937,449.533,453.66,455.392,458.187,462.962,466.738,469.483,471.215,473.596,476.899,478.631,483.28,487.767,490.562,495.363,497.096,499.508,504.39,508.215,512.459,517.251,521.076,525.923,529.226,531.57,535.662,539.482,541.215,545.081,549.963,554.715" svgx:width="0.25,0.27,0.31,0.43,0.37,0.44,0.31,0.53,0.37,0.43,0.23,0.23,1.07,0.43,0.23,0.51,0.51,0.26,0.43,0.42,0.31,0.27,0.46,0.43,0.23,0.51,0.3,0.23,0.31,0.53,0.27,0.37,0.23,0.43,0.47,0.52,0.43,0.37,0.27,0.82,0.43,0.55,0.31,0.23,0.27,0.37,0.23,0.31,0.51,0.23,0.53,0.43,0.82,0.51,0.55,0.37,0.31,0.37,0.44,0.31,0.43,0.23,0.31,0.53,0.43,0.23,0.42,0.51,0.55,0.42,0.43,0.52,0.31,0.23,0.51,0.3,0.23,0.44,0.23,0.51,0.44,0.31,0.31,0.43,0.37,0.46,0.23,0.31,0.53,0.44,0.31,0.23,0.27,0.37,0.23,0.51,0.51,0.31,0.53,0.23,0.27,0.55,0.43,0.47,0.52,0.43,0.55,0.37,0.27,0.46,0.43,0.23,0.44,0.55,0.53,0.23" style="fill:rgb(0,0,0);font-family:MinionPro-Regular;font-size:9.0px;stroke:none;">literature. The objective of this experiment is to demonstrate the concept of a battery that is both inexpensive and </text>
   <text y="523.308" x="155.637,160.168,162.647,167.385,172.204,176.096,180.421,183.826,187.844,192.69,196.636,201.212,203.556,207.394,209.513,211.583,216.412,218.89,222.242,225.567,228.379,230.498,232.568,236.586,238.656,243.331,246.62,250.476,252.82,255.191,258.057,262.93,265.435,269.283,272.14,274.619,279.168,284.158,286.228,289.554,292.312,296.204,300.986,303.056,305.508,308.878,310.948,315.902,319.839,323.713,327.605,330.93,334.354,338.291,341.958,345.5,347.618,349.688,354.525,359.038,365.199,369.162,373.324,377.216,380.055,382.175,384.245,388.964,392.901,396.801,400.649,405.467,408.91,412.802,414.872,417.737,422.575,426.466,428.536,433.67,439.218,445.27,451.629,457.914,459.984,467.386,471.98,474.325,478.261,482.198,487.089,489.433,493.325,495.395,497.846,501.217,503.287,505.765,510.755,512.825,515.196,518.008,521.379,523.449,527.962,532.277,534.756,539.575,542.054,545.901,549.838,554.589" svgx:width="0.51,0.27,0.51,0.53,0.43,0.47,0.37,0.44,0.53,0.44,0.51,0.25,0.43,0.23,0.23,0.53,0.27,0.37,0.37,0.31,0.23,0.23,0.44,0.23,0.52,0.37,0.43,0.25,0.27,0.31,0.53,0.27,0.44,0.31,0.27,0.51,0.55,0.23,0.37,0.31,0.43,0.52,0.23,0.27,0.37,0.23,0.55,0.43,0.42,0.43,0.37,0.37,0.44,0.37,0.46,0.23,0.23,0.53,0.51,0.69,0.43,0.46,0.43,0.37,0.23,0.23,0.51,0.43,0.42,0.44,0.53,0.37,0.43,0.23,0.31,0.53,0.43,0.23,0.56,0.62,0.67,0.74,0.69,0.23,0.82,0.51,0.25,0.43,0.42,0.53,0.25,0.43,0.23,0.27,0.37,0.23,0.27,0.55,0.23,0.27,0.31,0.37,0.23,0.51,0.47,0.27,0.53,0.27,0.42,0.43,0.53,0.23" style="fill:rgb(0,0,0);font-family:MinionPro-Regular;font-size:9.0px;stroke:none;">biodegradable. First, a prelithiation step is necessary, however, because the PTCDA molecule is in its oxidized </text>
   <text y="533.307" x="155.637,158.322,162.905,166.4,173.87,176.021,178.217,182.989,187.678,189.874,192.774,197.679,200.166,203.568,205.764,209.688,214.676,219.476,221.627,223.823,226.724,231.595,235.519,237.715,242.881,248.464,254.548,260.941,267.259,269.455,272.931,276.821,279.197,281.96,285.263,288.622,291.523,295.494,300.482,305.333,307.844,312.797,317.108,319.304,324.265,326.641,334.111,336.307,338.793,342.195,344.391,348.416,351.775,355.252,359.176,366.558,371.168,373.544,377.516,382.367,384.563,390.856,393.262,396.162,401.067,403.263,407.313,409.509,411.885,414.291,417.191,422.096,424.502,429.38,436.85,439.046,442.952,447.544,452.422,457.275,460.068,463.992,467.43,469.626,473.517,475.893,479.863,483.834,486.726,490.049,494.821,499.672,503.596,505.792,508.303,513.325,515.521,519.571,521.767,525.673,530.256,532.767,537.789,539.985,543.891,547.782,550.205,552.529,554.581" svgx:width="0.3,0.51,0.37,0.82,0.23,0.23,0.62,0.51,0.23,0.31,0.53,0.27,0.37,0.23,0.43,0.55,0.53,0.23,0.23,0.31,0.53,0.43,0.23,0.56,0.62,0.67,0.74,0.69,0.23,0.37,0.43,0.25,0.3,0.36,0.37,0.31,0.44,0.55,0.53,0.27,0.55,0.47,0.23,0.54,0.25,0.82,0.23,0.27,0.37,0.23,0.44,0.37,0.37,0.43,0.82,0.51,0.25,0.43,0.53,0.23,0.69,0.27,0.31,0.53,0.23,0.44,0.23,0.25,0.27,0.31,0.53,0.27,0.53,0.82,0.23,0.42,0.51,0.53,0.55,0.31,0.43,0.37,0.23,0.43,0.25,0.43,0.42,0.31,0.37,0.51,0.53,0.43,0.23,0.27,0.55,0.23,0.44,0.23,0.42,0.51,0.27,0.55,0.23,0.42,0.43,0.25,0.25,0.23,0.23" style="fill:rgb(0,0,0);font-family:MinionPro-Regular;font-size:9.0px;stroke:none;">form. To this end, the PTCDA self-standing film is assembled with a lithium counter electrode in a coin cell. </text>
   <text y="543.306" x="155.637,160.371,162.756,166.941,171.693,174.889,178.687" svgx:width="0.53,0.27,0.47,0.53,0.37,0.43,0.23" style="fill:rgb(0,0,0);font-family:MinionPro-Regular;font-size:9.0px;stroke:none;">Figure </text>
   <text y="543.306" x="180.396,184.689,188.982" svgx:width="0.48,0.48,0.44" style="fill:rgb(0,0,255);font-family:MinionPro-Regular;font-size:9.0px;stroke:none;">17a</text>
   <text y="543.306" x="192.906,194.616,197.856,202.599,207.019,213.157,216.433,218.143,220.916,225.659,229.457,231.167,233.552,238.448,240.725,243.488,245.9,249.869,252.119,253.829,258.554,260.912,264.26,267.986,272.738,276.581,279.822,283.935,287.733,291.009,292.719,297.174,299.811,301.521,306.165,310.854,312.564,315.228,319.791,321.501,325.794,327.819,332.112,333.207,339.507,341.217,345.357,348.633,350.658,352.368,357.237,359.622,362.574,367.443" svgx:width="0.23,0.37,0.53,0.51,0.69,0.37,0.23,0.31,0.53,0.43,0.23,0.27,0.55,0.27,0.31,0.27,0.44,0.25,0.23,0.53,0.27,0.37,0.42,0.53,0.44,0.37,0.47,0.43,0.37,0.23,0.51,0.3,0.23,0.53,0.52,0.23,0.31,0.51,0.23,0.48,0.23,0.48,0.23,0.7,0.23,0.46,0.37,0.23,0.23,0.54,0.27,0.33,0.54,0.27" style="fill:rgb(0,0,0);font-family:MinionPro-Regular;font-size:9.0px;stroke:none;"> shows the initial discharges of up to 1.5 V vs. Li/Li</text>
   <text y="540.252" x="369.828" svgx:width="0.78" style="fill:rgb(0,0,0);font-family:EuclidSymbol;font-size:5.85px;stroke:none;">+</text>
   <text y="543.312" x="374.36,376.07,380.525,383.162,384.872,387.644,392.423,395.618,399.461,403.259,404.969,410.009,415.463,421.421,427.685,433.877,436.829,441.698,444.083,445.793,450.383,454.136,456.764,459.429,463.227,466.593,468.978,472.776,476.052,477.762,485.079,489.003,493.728,497.526,499.236,503.691,506.328,508.038,512.331,516.624,518.334,522.178,527.038,531.763,533.473,537.766,542.059,543.155,550.427,554.639" svgx:width="0.23,0.51,0.3,0.23,0.31,0.53,0.37,0.43,0.43,0.23,0.56,0.62,0.67,0.74,0.69,0.33,0.54,0.27,0.23,0.51,0.44,0.31,0.31,0.43,0.37,0.27,0.43,0.37,0.23,0.82,0.44,0.53,0.43,0.23,0.51,0.3,0.23,0.48,0.48,0.23,0.44,0.55,0.53,0.23,0.48,0.48,0.23,0.82,0.47,0.23" style="fill:rgb(0,0,0);font-family:MinionPro-Regular;font-size:9.0px;stroke:none;"> of three PTCDA/Li batteries made of 50 and 60 mg </text>
   <text y="553.311" x="155.642,160.111,162.766,164.49,168.96,172.214,176.417,180.276,185.19,187.593,191.391,193.119,196.94,200.708,203.495,208.252,212.911,217.654,221.47,223.198,230.529,234.296,236.976,240.792,244.172,246.599,250.582,252.793,254.836,256.564,261.223,265.804,267.532,271.474,275.215,280.012,282.415,286.299,290.383,294.199,295.927,298.713,303.47,307.286,309.01,312.808,317.278,324.466,329.106,331.374,335.19,337.869,341.685,343.413,345.681,347.973,350.759,355.556,357.983,361.751,364.528,366.931,371.402,376.316,378.044,382.513,385.168,386.896,391.954,397.423,403.399,409.677,415.887,417.93,419.653,422.441,427.198,431.014,432.742,437.526,442.006,444.684,448.5,453.24,456.017,458.444,462.428,464.696,466.424,468.796,472.09,473.814,481.146,485.003,487.406,492.147,494.933,498.79,501.193,506.069,509.926,514.669,516.397,520.165,522.901,524.624,528.935,530.978,535.289,536.225,542.543,544.271,546.841,551.312,554.651" svgx:width="0.51,0.3,0.23,0.51,0.37,0.47,0.44,0.55,0.27,0.42,0.23,0.42,0.44,0.31,0.53,0.51,0.53,0.43,0.23,0.82,0.44,0.31,0.43,0.37,0.27,0.44,0.25,0.23,0.23,0.62,0.51,0.23,0.44,0.42,0.53,0.27,0.43,0.46,0.43,0.23,0.31,0.53,0.43,0.23,0.42,0.51,0.82,0.52,0.25,0.43,0.31,0.43,0.23,0.25,0.27,0.31,0.53,0.27,0.44,0.31,0.27,0.51,0.55,0.23,0.51,0.3,0.23,0.56,0.62,0.67,0.74,0.69,0.23,0.23,0.31,0.53,0.43,0.23,0.52,0.51,0.31,0.43,0.55,0.31,0.27,0.44,0.25,0.23,0.27,0.37,0.23,0.82,0.44,0.27,0.55,0.31,0.44,0.27,0.55,0.43,0.53,0.23,0.44,0.31,0.23,0.48,0.23,0.48,0.23,0.7,0.23,0.3,0.51,0.37,0.23" style="fill:rgb(0,0,0);font-family:MinionPro-Regular;font-size:9.0px;stroke:none;">of organic cathode material. To achieve the complete lithiation of PTCDA, the potential is maintained at 1.5 V for </text>
   <text y="563.31" x="155.642,159.998,161.159,166.005,167.985,171.14,174.932,179.779,183.041,187.563,192.491,197.165,201.076,208.315,213.153,217.017,220.28,224.801,232.177,236.042,238.872,242.512,246.683,248.663,252.529,256.816,261.654,265.518,268.951,271.403,278.779,282.644,287.436,290.221,292.201,294.652,299.616,301.596,306.396,308.849,313.127,315.22" svgx:width="0.48,0.23,0.53,0.23,0.35,0.42,0.53,0.37,0.51,0.55,0.51,0.44,0.82,0.52,0.43,0.37,0.51,0.82,0.43,0.31,0.37,0.46,0.23,0.43,0.47,0.52,0.43,0.37,0.27,0.82,0.43,0.55,0.31,0.23,0.27,0.55,0.23,0.53,0.27,0.47,0.23,0.23" style="fill:rgb(0,0,0);font-family:MinionPro-Regular;font-size:9.0px;stroke:none;">3 h (chronoamperometry experiment in Fig. </text>
   <text y="563.31" x="317.201,321.561,325.921" svgx:width="0.48,0.48,0.51" style="fill:rgb(0,0,255);font-family:MinionPro-Regular;font-size:9.0px;stroke:none;">17b</text>
   <text y="563.31" x="330.53,333.684,335.776,337.756,347.399,351.264,353.244,357.091,361.613,364.065,369.028,371.008,374.855,378.684,381.046,383.363,385.344,387.768,391.112,393.092,397.883,400.309,403.705,407.67,410.967,414.383,418.247,425.569,430.118,432.435,436.345,441.083,443.175,445.155,447.994,452.804,456.669,459.931,463.85,467.761,472.985,476.85,479.662,481.754,483.734,487.644,492.571,497.363,499.343,502.182,506.992,510.858,512.838,517.485,520.748,524.576,526.894,529.237,532.077,536.922,539.402,543.221,545.953,549.863,554.615" svgx:width="0.35,0.23,0.23,1.07,0.43,0.23,0.42,0.51,0.27,0.55,0.23,0.42,0.43,0.25,0.25,0.23,0.27,0.37,0.23,0.53,0.27,0.37,0.44,0.37,0.37,0.43,0.82,0.51,0.25,0.43,0.53,0.23,0.23,0.31,0.53,0.43,0.37,0.43,0.44,0.58,0.43,0.37,0.23,0.23,0.44,0.55,0.53,0.23,0.31,0.53,0.43,0.23,0.52,0.37,0.43,0.25,0.27,0.31,0.53,0.27,0.44,0.31,0.43,0.53,0.23" style="fill:rgb(0,0,0);font-family:MinionPro-Regular;font-size:9.0px;stroke:none;">). The coin cell is disassembled, thereafter, and the prelithiated </text>
   <text y="573.309" x="155.624,160.691,166.172,172.157,178.448,184.667,186.503,190.337,194.117,196.916,201.686,206.357,211.109,214.934,216.77,219.155,222.458,224.294,227.516,231.386,235.193,239.639,243.734,247.559,250.781,254.651,259.403,261.239,263.93,268.52,270.356,275.009,278.834,280.67,284.594,287.852,291.227,295.052,302.333,306.842,309.119,312.988,317.74,319.576,325.768,328.072,330.871,335.677,337.513,341.464,343.3,347.556,350.895,354.675,359.328,364.134,366.438,369.129,372.954,374.79,378.66,383.547,388.218,392.97,396.741" svgx:width="0.56,0.62,0.67,0.74,0.69,0.23,0.42,0.44,0.31,0.53,0.51,0.53,0.43,0.23,0.27,0.37,0.23,0.37,0.43,0.42,0.51,0.46,0.43,0.37,0.43,0.53,0.23,0.31,0.51,0.23,0.51,0.43,0.23,0.44,0.37,0.37,0.43,0.82,0.51,0.25,0.43,0.53,0.23,0.69,0.27,0.31,0.53,0.23,0.44,0.23,0.47,0.37,0.44,0.52,0.53,0.27,0.31,0.43,0.23,0.44,0.55,0.51,0.53,0.43,0.23" style="fill:rgb(0,0,0);font-family:MinionPro-Regular;font-size:9.0px;stroke:none;">PTCDA cathode is recovered to be assembled with a graphite anode.</text>
   <text y="584.109" x="167.621,177.344,181.286,183.545,186.074,191.114,193.538,196.448,199.007,203.123,205.517,207.776,211.65,216.548,220.539,223.927,228.186,232.128,235.548,237.807,241.038,249.453,251.712,255.703,260.71,265.579" svgx:width="1.07,0.43,0.23,0.27,0.55,0.27,0.31,0.27,0.44,0.25,0.23,0.42,0.53,0.44,0.37,0.47,0.43,0.37,0.23,0.35,0.92,0.23,0.44,0.55,0.53,0.23" style="fill:rgb(0,0,0);font-family:MinionPro-Regular;font-size:9.0px;stroke:none;">The initial charges (— and </text>
   <text y="584.109" x="267.838" svgx:width="0.5" style="fill:rgb(0,0,0);font-family:STIXGeneral-Regular;font-size:9.0px;stroke:none;">‒</text>
   <text y="584.109" x="272.498" svgx:width="0.23" style="fill:rgb(0,0,0);font-family:MinionPro-Regular;font-size:9.0px;stroke:none;"> </text>
   <text y="584.109" x="274.757" svgx:width="0.5" style="fill:rgb(0,0,0);font-family:STIXGeneral-Regular;font-size:9.0px;stroke:none;">‒</text>
   <text y="584.109" x="279.392" svgx:width="0.23" style="fill:rgb(0,0,0);font-family:MinionPro-Regular;font-size:9.0px;stroke:none;"> </text>
   <text y="584.109" x="281.651" svgx:width="0.5" style="fill:rgb(0,0,0);font-family:STIXGeneral-Regular;font-size:9.0px;stroke:none;">‒</text>
   <text y="584.109" x="286.286,289.517,291.776,295.766,300.773,305.642,307.901,312.77,315.275,318.77,322.643,327.543,331.533,334.92,339.181,343.123,346.543,348.802" svgx:width="0.35,0.23,0.44,0.55,0.53,0.23,0.53,0.27,0.37,0.42,0.53,0.44,0.37,0.47,0.43,0.37,0.23,0.35" style="fill:rgb(0,0,0);font-family:MinionPro-Regular;font-size:9.0px;stroke:none;">) and discharges (</text>
  </g>
  <g begin="text">
   <text y="584.112" x="364.408,366.667,370.654,375.661,380.533" svgx:width="0.23,0.44,0.55,0.53,0.23" style="fill:rgb(0,0,0);font-family:MinionPro-Regular;font-size:9.0px;stroke:none;"> and </text>
  </g>
  <path style="fill:rgb(255,0,0);stroke:none;stroke-width:0.3;" d="M401.550 580.490 "/>
  <g begin="text">
   <text y="584.112" x="407.877,411.108,413.367,418.033,422.626,425.545,429.535,432.064,437.072,441.061,445.93,448.189,452.089,454.951,457.21,461.278,463.537,467.461,472.064,477.034,480.413,483.332,487.322,492.195,495.057,497.316,501.305,506.201,509.715,513.057,516.999,521.871,524.733,526.992,531.595,534.376,536.635,542.737,545.833,550.27,554.59" svgx:width="0.35,0.23,0.51,0.51,0.31,0.44,0.27,0.55,0.43,0.53,0.23,0.44,0.31,0.23,0.44,0.23,0.42,0.51,0.55,0.37,0.31,0.44,0.55,0.31,0.23,0.42,0.53,0.37,0.37,0.43,0.55,0.31,0.23,0.51,0.3,0.23,0.67,0.33,0.48,0.48,0.23" style="fill:rgb(0,0,0);font-family:MinionPro-Regular;font-size:9.0px;stroke:none;">) obtained at a constant current of C/24 </text>
   <text y="594.912" x="155.634,160.277,164.093,166.856,172.94,176.8,180.616,185.53,187.258,191.569,193.612,197.923,199.651,203.512,208.389,213.132,214.86,219.171,221.214,225.525,226.635,232.953,234.681,238.767,242.583,245.859,249.107,253.851,257.145,258.872,263.12,266.45,270.22,274.864,279.661,281.956,284.637,288.453,290.181,294.653,297.308,299.036,301.799,307.882,312.463,314.191,318.789,322.002,325.781,328.049,330.344,333.133,337.93,340.359,344.13,346.811,350.673,355.416,357.144,362.202,367.674,373.65,379.932,386.142,389.112,393.359,396.689,400.46,405.103,409.9,412.194,414.876,418.692,420.42,425.028,428.798,431.444,434.125,437.941,441.324,443.727,447.543,450.837,452.565,456.426,459.638,463.454,465.182,469.781,472.994,476.81,480.175,483.991,488.733,491.415,495.276,500.019,501.747,504.15,509.064,510.792,515.544,517.947,522.176,524.219" svgx:width="0.51,0.43,0.31,0.69,0.43,0.43,0.55,0.23,0.48,0.23,0.48,0.23,0.44,0.55,0.53,0.23,0.48,0.23,0.48,0.23,0.7,0.23,0.46,0.43,0.37,0.37,0.53,0.37,0.23,0.47,0.37,0.44,0.52,0.53,0.27,0.31,0.43,0.23,0.51,0.3,0.23,0.31,0.69,0.51,0.23,0.52,0.37,0.43,0.25,0.27,0.31,0.53,0.27,0.44,0.31,0.43,0.53,0.23,0.56,0.62,0.67,0.74,0.69,0.33,0.47,0.37,0.44,0.52,0.53,0.27,0.31,0.43,0.23,0.51,0.44,0.31,0.31,0.43,0.37,0.27,0.43,0.37,0.23,0.44,0.37,0.43,0.23,0.52,0.37,0.43,0.37,0.43,0.55,0.31,0.43,0.53,0.23,0.27,0.55,0.23,0.53,0.27,0.47,0.23,0.23" style="fill:rgb(0,0,0);font-family:MinionPro-Regular;font-size:9.0px;stroke:none;">between 1.5 and 3.5 V versus graphite of two prelithiated PTCDA/graphite batteries are presented in Fig. </text>
   <text y="594.912" x="525.912,530.223,534.534" svgx:width="0.48,0.48,0.44" style="fill:rgb(0,0,255);font-family:MinionPro-Regular;font-size:9.0px;stroke:none;">18a</text>
   <text y="594.912" x="538.476,540.519,542.247,546.828,551.301,554.64" svgx:width="0.23,0.23,0.53,0.51,0.37,0.23" style="fill:rgb(0,0,0);font-family:MinionPro-Regular;font-size:9.0px;stroke:none;">. For </text>
   <text y="604.911" x="155.634,158.573,163.481,167.446,169.772,174.979,180.599,186.723,193.154,199.512,201.703,204.029,206.968,211.877,215.841,218.167,223.122,226.546,229.943,232.827,235.154,239.046,243.964,247.973,251.38,255.659,259.623,261.95,264.474,267.917,270.243,275.188,277.739,282.154,287.062,291.027,294.505,296.832,299.769,304.688,308.697,313.76,316.086,319.024,323.934,327.898,330.224,333.162,338.072,342.08,346.702,350.063,354.028,356.956,359.508,363.481,367.616,370.033,372.359,376.333,380.251,385.152,389.242,393.188,395.631,398.543,402.813,405.139,409.76,412.564,414.89,419.349,423.809,428.268,430.595,438.104,444.49,449.435,451.609" svgx:width="0.31,0.53,0.43,0.23,0.56,0.62,0.67,0.74,0.69,0.23,0.23,0.31,0.53,0.43,0.23,0.54,0.37,0.37,0.31,0.23,0.42,0.53,0.44,0.37,0.47,0.43,0.23,0.27,0.37,0.23,0.53,0.27,0.47,0.53,0.43,0.37,0.23,0.31,0.53,0.44,0.55,0.23,0.31,0.53,0.43,0.23,0.31,0.53,0.43,0.51,0.37,0.43,0.31,0.27,0.42,0.44,0.25,0.23,0.42,0.44,0.52,0.44,0.42,0.27,0.31,0.46,0.23,0.51,0.3,0.23,0.48,0.48,0.48,0.23,0.82,0.69,0.53,0.23,0.47" style="fill:rgb(0,0,0);font-family:MinionPro-Regular;font-size:9.0px;stroke:none;">the PTCDA, the first charge is higher than the theoretical capacity of 137 mAh·g</text>
   <text y="601.852" x="455.968" svgx:width="0.78" style="fill:rgb(0,0,0);font-family:EuclidSymbol;font-size:5.85px;stroke:none;">−</text>
   <text y="601.852" x="460.619" svgx:width="0.48" style="fill:rgb(0,0,0);font-family:MinionPro-Regular;font-size:5.85px;stroke:none;">1</text>
   <text y="604.912" x="463.518,465.709,468.036,470.893,473.777,476.104,479.465,483.484,487.573,491.466,496.375,500.34,503.781,506.108,510.567,515.026,519.485,521.812,529.322,535.707,540.652,542.826" svgx:width="0.23,0.23,0.34,0.31,0.23,0.37,0.43,0.44,0.42,0.53,0.43,0.37,0.23,0.48,0.48,0.48,0.23,0.82,0.69,0.53,0.23,0.47" style="fill:rgb(0,0,0);font-family:MinionPro-Regular;font-size:9.0px;stroke:none;">. It reaches 160 mAh·g</text>
   <text y="601.852" x="547.179" svgx:width="0.78" style="fill:rgb(0,0,0);font-family:EuclidSymbol;font-size:5.85px;stroke:none;">−</text>
   <text y="601.852" x="551.829" svgx:width="0.48" style="fill:rgb(0,0,0);font-family:MinionPro-Regular;font-size:5.85px;stroke:none;">1</text>
   <text y="604.912" x="554.638" svgx:width="0.23" style="fill:rgb(0,0,0);font-family:MinionPro-Regular;font-size:9.0px;stroke:none;"> </text>
   <text y="614.911" x="155.641,160.386,164.348,168.275,172.147,176.992,180.46,184.375,186.535,191.109,193.863,196.023,198.914,203.777,207.692,209.852,212.528,217.102,220.588,228.025,231.897,234.779,237.281,241.856,246.869,249.029,253.604,256.358,258.518,262.768,267.97,271.129,273.289,277.162,279.997,282.157,285.049,289.911,293.826,295.986,300.336,303.765,307.637,312.383,317.279,319.675,322.459,326.374,328.534,332.497,337.476,342.24,347.082,350.997,353.157,356.508,361.377,364.863,367.617,371.658,375.555,379.418,381.56,383.72,386.738,391.751,393.911,396.665,400.706,404.668,407.503,409.645,411.805,415.767,420.747,425.511,430.353,434.268,437.661,439.821,442.323,447.336,449.496,453.729,457.644,462.623,466.538,469.967,474.055" svgx:width="0.51,0.43,0.42,0.44,0.53,0.37,0.43,0.23,0.51,0.3,0.23,0.31,0.53,0.43,0.23,0.3,0.51,0.37,0.82,0.44,0.31,0.27,0.51,0.55,0.23,0.51,0.3,0.23,0.47,0.57,0.34,0.23,0.44,0.31,0.23,0.31,0.53,0.43,0.23,0.47,0.37,0.44,0.52,0.53,0.27,0.31,0.43,0.23,0.44,0.55,0.51,0.53,0.43,0.23,0.37,0.53,0.37,0.3,0.44,0.42,0.43,0.23,0.23,0.34,0.55,0.23,0.3,0.44,0.42,0.31,0.23,0.23,0.44,0.55,0.51,0.53,0.43,0.37,0.23,0.27,0.55,0.23,0.47,0.43,0.55,0.43,0.37,0.44,0.25" style="fill:rgb(0,0,0);font-family:MinionPro-Regular;font-size:9.0px;stroke:none;">because of the formation of SEI at the graphite anode surface. In fact, anodes in general</text>
   <text y="611.852" x="476.545,479.411" svgx:width="0.48,0.48" style="fill:rgb(0,0,255);font-family:MinionPro-Regular;font-size:5.85px;stroke:none;">75</text>
   <text y="614.912" x="482.281,484.423,486.583,490.498,493.849,498.738,502.7,506.597,509.129,513.217,515.631,517.938,522.159,524.319,528.669,532.098,535.97,540.715,545.611,548.008,550.792,554.617" svgx:width="0.23,0.23,0.43,0.37,0.52,0.43,0.42,0.27,0.44,0.25,0.25,0.46,0.23,0.47,0.37,0.44,0.52,0.53,0.27,0.31,0.43,0.23" style="fill:rgb(0,0,0);font-family:MinionPro-Regular;font-size:9.0px;stroke:none;">, especially graphite </text>
   <text y="624.911" x="155.635,159.588,164.557,169.311,174.144,178.05" svgx:width="0.44,0.55,0.51,0.53,0.43,0.37" style="fill:rgb(0,0,0);font-family:MinionPro-Regular;font-size:9.0px;stroke:none;">anodes</text>
   <text y="621.852" x="181.441,184.302" svgx:width="0.48,0.48" style="fill:rgb(0,0,255);font-family:MinionPro-Regular;font-size:5.85px;stroke:none;">76</text>
   <text y="624.912" x="187.164,189.297,191.421,194.761,199.596,202.937,205.818,209.77,212.263,217.267,219.391,224.278,226.771,231.128,236.015,238.139,243.035,246.403,249.744,252.57,255.855,259.888,264.03,267.865,270.223,274.129,276.253,280.285,284.238,287.111,289.542,293.72,297.626,299.75,302.108,304.495,307.375,312.262,314.649,319.509,326.961,329.085,331.443,336.114,339.455,342.912,346.818,350.202,352.326,355.521,361.821,366.744,371.667,374.862,376.995,379.119,385.43,390.317,392.81,396.645,401.532,403.656,406.96,410.866,414.206,419.113,421.365,424.191,427.575,429.699,432.535,435.84,440.404,447.856,449.98,452.338,454.725,457.606,462.493,464.88,469.74,477.192,480.477,484.365,488.93,493.863,497.203,502.063,509.515,512.008,516.941,521.234,523.358,528.202,532.154,535.574,539.581,542.965,545.352,548.223,550.716,554.523" svgx:width="0.23,0.23,0.37,0.53,0.37,0.31,0.44,0.27,0.55,0.23,0.53,0.27,0.47,0.53,0.23,0.54,0.37,0.37,0.31,0.36,0.42,0.46,0.42,0.25,0.43,0.23,0.44,0.42,0.31,0.27,0.46,0.43,0.23,0.25,0.27,0.31,0.53,0.27,0.53,0.82,0.23,0.25,0.51,0.37,0.37,0.43,0.37,0.23,0.35,0.69,0.54,0.54,0.35,0.23,0.23,0.69,0.53,0.27,0.42,0.53,0.23,0.37,0.43,0.37,0.53,0.25,0.31,0.37,0.23,0.3,0.37,0.51,0.82,0.23,0.25,0.27,0.31,0.53,0.27,0.53,0.82,0.36,0.42,0.51,0.55,0.37,0.53,0.82,0.27,0.55,0.47,0.23,0.52,0.44,0.37,0.44,0.37,0.27,0.31,0.27,0.42,0.23" style="fill:rgb(0,0,0);font-family:MinionPro-Regular;font-size:9.0px;stroke:none;">, sustain high first-cycle active lithium losses (ALL), which results from lithium-consuming parasitic </text>
   <text y="634.911" x="155.637,158.859,162.738,166.689,170.559,173.348,175.76,180.242,185.093,188.396,190.448,192.311,195.569,200.348,204.101,208.907,210.77,214.694,217.997,219.86,222.659,227.429,231.254,233.117,235.7,240.182,243.575,250.919,254.699,257.489,259.901,264.383,269.306,271.169,275.651,278.315,280.178,284.048,288.971,290.834,294.992,300.104" svgx:width="0.37,0.43,0.44,0.42,0.31,0.27,0.51,0.55,0.37,0.23,0.23,0.37,0.53,0.42,0.53,0.23,0.44,0.37,0.23,0.31,0.53,0.43,0.23,0.3,0.51,0.37,0.82,0.44,0.31,0.27,0.51,0.55,0.23,0.51,0.3,0.23,0.44,0.55,0.23,0.47,0.57,0.34" style="fill:rgb(0,0,0);font-family:MinionPro-Regular;font-size:9.0px;stroke:none;">reactions, such as the formation of an SEI</text>
   <text y="631.852" x="303.194,306.002" svgx:width="0.48,0.48" style="fill:rgb(0,0,255);font-family:MinionPro-Regular;font-size:5.85px;stroke:none;">77</text>
   <text y="634.912" x="308.81,310.862,312.725,315.65,320.573,322.436,327.196,331.066,334.495,337.285,339.697,343.567,348.391,350.694,354.564,357.336,359.388,361.251,365.085,368.955,372.294,376.946,381.428,386.279,389.582,391.445,395.315,400.202,404.954,406.817,411.074,414.413,418.193,422.846,427.652,429.955,432.647,436.472,439.775,441.638,447.83,450.133,452.932,457.738,459.601,464.407,466.819,471.093,475.899,477.762,481.02,485.798,489.191,491.855,495.806,499.613,503.438,505.301,509.171,512.393,516.273,520.197,523.5,525.362,528.584,532.409,535.667,540.491,542.66,545.405,547.268,549.68,554.603" svgx:width="0.23,0.23,0.34,0.55,0.23,0.52,0.44,0.37,0.31,0.27,0.42,0.53,0.25,0.44,0.37,0.23,0.23,0.42,0.44,0.37,0.51,0.51,0.55,0.37,0.23,0.44,0.55,0.53,0.23,0.47,0.37,0.44,0.52,0.53,0.27,0.31,0.43,0.37,0.23,0.69,0.27,0.31,0.53,0.23,0.53,0.27,0.47,0.53,0.23,0.37,0.53,0.37,0.3,0.44,0.42,0.43,0.23,0.44,0.37,0.43,0.44,0.37,0.23,0.37,0.43,0.37,0.53,0.25,0.31,0.23,0.27,0.55,0.23" style="fill:rgb(0,0,0);font-family:MinionPro-Regular;font-size:9.0px;stroke:none;">. In particular, carbons and graphites with high surface areas result in </text>
   <text y="644.911" x="155.639,162.974,167.456,170.678,174.503,176.348,180.506,185.618,188.687,190.532,193.115,197.597,200.99,208.334,212.113,214.903,217.315,221.797,226.648,229.951,231.796,235.666,240.553,245.305,247.15,249.949,254.584,259.336,262.639,264.484,269.29,271.702,275.977,280.747,284.572,287.911,289.756,295.975,300.817" svgx:width="0.82,0.51,0.37,0.43,0.23,0.47,0.57,0.34,0.23,0.3,0.51,0.37,0.82,0.44,0.31,0.27,0.51,0.55,0.37,0.23,0.44,0.55,0.53,0.23,0.31,0.53,0.53,0.37,0.23,0.53,0.27,0.47,0.53,0.43,0.37,0.23,0.69,0.54,0.54" style="fill:rgb(0,0,0);font-family:MinionPro-Regular;font-size:9.0px;stroke:none;">more SEI formations and thus higher ALL</text>
   <text y="641.852" x="305.676,308.484" svgx:width="0.48,0.48" style="fill:rgb(0,0,255);font-family:MinionPro-Regular;font-size:5.85px;stroke:none;">78</text>
   <text y="644.912" x="311.292,313.344,315.189,318.113,323.036,324.881,329.021,332.846,337.733,341.558,344.897,348.892,351.115,353.167,355.012,357.811,362.581,366.406,368.251,370.528,375.118,378.376,381.679,383.524,388.006,390.67,392.515,396.466,400.335,403.125,405.474,409.569,413.394,415.239,417.516,419.819,422.618,427.424,429.728,434.507,441.878,443.723,446.945,450.77,454.027,458.851,461.02,463.81,466.222,471.073,475.285,477.13,479.884,483.106,487.588,494.959,496.804,499.108,501.853,505.156,507.001,510.808,515.29,520.141,523.399,528.178,535.378,539.995,542.785,545.197,549.679,554.602" svgx:width="0.23,0.23,0.34,0.55,0.23,0.47,0.43,0.55,0.43,0.37,0.44,0.25,0.23,0.23,0.31,0.53,0.43,0.23,0.25,0.51,0.37,0.37,0.23,0.51,0.3,0.23,0.44,0.42,0.31,0.27,0.46,0.43,0.23,0.25,0.27,0.31,0.53,0.27,0.53,0.82,0.23,0.37,0.43,0.37,0.53,0.25,0.31,0.27,0.55,0.47,0.23,0.3,0.37,0.51,0.82,0.23,0.27,0.31,0.37,0.23,0.42,0.51,0.55,0.37,0.53,0.82,0.52,0.31,0.27,0.51,0.55,0.23" style="fill:rgb(0,0,0);font-family:MinionPro-Regular;font-size:9.0px;stroke:none;">. In general, the loss of active lithium resulting from its consumption </text>
   <text y="654.911" x="155.637,158.067,163.008,164.97,167.79,172.579,176.422,178.384,183.201,187.809,191.13,193.455,196.265,198.633,202.748,206.591,208.553,212.362,214.657,218.547,222.437,225.246,228.488,233.18,237.95,241.793,243.755,251.119,254.919,257.63,261.473,264.886,267.345,271.361,273.656,275.618,280.434,284.277,287.69,295.054,298.944,303.852,307.695,312.466,315.286,317.52,321.669,323.631,326.873,330.762,335.427,340.224,344.049,347.892,351.213,353.175,355.995,360.785,364.628,366.59,370.398,374.583,378.473,380.95,383.274,387.173,391.702,393.997,397.84,399.802,403.645,408.552,412.395,415.682,420.13,423.624,425.694,427.656,436.307,441.097,444.94,449.881,451.843,454.663,459.453,463.296,465.258,470.343,475.843,481.846,488.157,494.394,497.391,501.668,505.025,508.825,513.498,518.322,520.646,523.357,527.2,529.162,533.799,537.599,540.274,542.985,546.828,550.448,554.579" svgx:width="0.27,0.55,0.23,0.31,0.53,0.43,0.23,0.52,0.51,0.37,0.27,0.31,0.27,0.46,0.43,0.23,0.43,0.25,0.43,0.42,0.31,0.37,0.51,0.53,0.43,0.23,0.82,0.44,0.31,0.43,0.37,0.27,0.44,0.25,0.23,0.52,0.43,0.37,0.82,0.44,0.55,0.43,0.55,0.31,0.25,0.46,0.23,0.37,0.43,0.53,0.53,0.42,0.43,0.37,0.23,0.31,0.53,0.43,0.23,0.44,0.46,0.44,0.27,0.25,0.44,0.51,0.25,0.43,0.23,0.43,0.55,0.43,0.37,0.47,0.46,0.23,0.23,0.97,0.53,0.43,0.55,0.23,0.31,0.53,0.43,0.23,0.56,0.62,0.67,0.74,0.69,0.33,0.47,0.37,0.44,0.52,0.53,0.27,0.31,0.43,0.23,0.51,0.44,0.31,0.31,0.43,0.37,0.46,0.23" style="fill:rgb(0,0,0);font-family:MinionPro-Regular;font-size:9.0px;stroke:none;">in the positive electrode material permanently reduces the available energy. When the PTCDA/graphite battery </text>
   <text y="664.91" x="155.637,158.043,161.364,163.326,168.096,170.502,173.899,177.673,182.473,186.365,189.653,193.815,197.706,202.425,204.495,206.457,210.426,212.388,215.709,223.075,227.091,229.435,231.73,233.692,238.222,243.049,246.941,251.715,254.525,256.851,259.644,263.793,265.755,270.258,272.94,274.902,277.197,279.523,282.343,287.167,289.493,294.29,301.679,303.641,306.047,309.368,311.33,313.76,317.174,320.417,324.336,328.452,332.295,335.601,338.922,341.319,345.849,348.085,352.234,354.196,358.021,362.524,367.397,370.676,375.473,382.829,386.72,391.49,393.452,397.902,402.051,404.013,406.833,411.625,415.468,417.43,421.32,426.229,430.922,435.692,439.483,441.553,443.515,447.407,452.316,457.086,459.048,463.551,468.54,470.775,474.924,476.886,481.224,485.562,489.9,491.862,495.754,500.662,505.432,507.394,511.732,516.07,520.408,522.37,529.759,536.026,540.849,542.901" svgx:width="0.27,0.37,0.23,0.53,0.27,0.37,0.42,0.53,0.44,0.37,0.47,0.43,0.53,0.23,0.23,0.44,0.23,0.37,0.82,0.44,0.25,0.25,0.23,0.51,0.53,0.44,0.55,0.31,0.27,0.31,0.46,0.23,0.51,0.3,0.23,0.25,0.27,0.31,0.53,0.27,0.53,0.82,0.23,0.27,0.37,0.23,0.27,0.37,0.37,0.43,0.46,0.43,0.37,0.37,0.27,0.51,0.25,0.46,0.23,0.42,0.51,0.55,0.37,0.53,0.82,0.43,0.53,0.23,0.51,0.46,0.23,0.31,0.53,0.43,0.23,0.44,0.55,0.51,0.53,0.43,0.23,0.23,0.44,0.55,0.53,0.23,0.51,0.55,0.25,0.46,0.23,0.48,0.48,0.48,0.23,0.44,0.55,0.53,0.23,0.48,0.48,0.48,0.23,0.82,0.69,0.53,0.23,0.47" style="fill:rgb(0,0,0);font-family:MinionPro-Regular;font-size:9.0px;stroke:none;">is discharged, a small quantity of lithium is irreversibly consumed by the anode, and only 104 and 108 mAh·g</text>
   <text y="661.852" x="547.263" svgx:width="0.78" style="fill:rgb(0,0,0);font-family:EuclidSymbol;font-size:5.85px;stroke:none;">−</text>
   <text y="661.852" x="551.832" svgx:width="0.48" style="fill:rgb(0,0,0);font-family:MinionPro-Regular;font-size:5.85px;stroke:none;">1</text>
   <text y="664.912" x="554.638" svgx:width="0.23" style="fill:rgb(0,0,0);font-family:MinionPro-Regular;font-size:9.0px;stroke:none;"> </text>
   <text y="674.911" x="155.641,159.556,162.823,166.693,168.691,173.281,177.8,180.645,184.56,187.017,191.949,195.865,200.662,202.66,208.934,213.75,217.62,222.588,224.586,227.43,232.246,236.116,238.114,241.994,245.819,248.664,253.479,258.196,262.993,266.863,268.861,271.29,274.638,276.636,284.025,288.021,292.818,296.688,298.686,303.214,305.923,307.921,312.286,316.651,318.649,322.565,327.498,332.295,334.293,338.658,343.023,344.208,351.553,355.81,357.808,362.336,365.045,367.043,372.155,377.681,383.711,390.047,396.311,398.408,400.406,403.674,407.544,410.848,415.69,419.606,423.521,426.357,428.751,432.892,436.726,438.986,442.505,444.602,446.6,456.248,460.118,462.116,464.438,468.965,473.862,478.119,481.368,484.104,487.974,491.412,498.828,500.826,504.822,508.927,512.725,515.047,517.504,522.401,526.658,528.656,532.526,536.819,541.662,545.532,548.971,551.428" svgx:width="0.44,0.37,0.43,0.23,0.51,0.51,0.31,0.44,0.27,0.55,0.43,0.53,0.23,0.69,0.53,0.43,0.55,0.23,0.31,0.53,0.43,0.23,0.42,0.44,0.31,0.53,0.51,0.53,0.43,0.23,0.27,0.37,0.23,0.82,0.44,0.53,0.43,0.23,0.51,0.3,0.23,0.48,0.48,0.23,0.44,0.55,0.53,0.23,0.48,0.48,0.23,0.82,0.47,0.23,0.51,0.3,0.23,0.56,0.62,0.67,0.74,0.69,0.23,0.23,0.37,0.43,0.37,0.52,0.43,0.42,0.31,0.27,0.46,0.43,0.25,0.46,0.23,0.23,1.07,0.43,0.23,0.25,0.51,0.55,0.47,0.36,0.31,0.43,0.37,0.82,0.23,0.42,0.46,0.42,0.25,0.27,0.55,0.47,0.23,0.43,0.47,0.52,0.43,0.37,0.27,0.36" style="fill:rgb(0,0,0);font-family:MinionPro-Regular;font-size:9.0px;stroke:none;">are obtained when the cathode is made of 50 and 60 mg of PTCDA, respectively. The long-term cycling experi-</text>
   <text y="684.91" x="155.641,162.976,166.801,171.553,174.298,177.6,179.454,183.234,185.979,187.833,193.818,196.797,201.117,205.437,207.291,209.874,214.356,217.695,219.549,222.347,227.117,230.942,234.317,238.142,239.996,244.613,248.393,251.048,253.739,257.564,260.957,263.369,267.194,270.497,272.351,276.221,279.443,283.268,285.122,288.389,293.159,297.605,303.797,308.72,310.574,312.986,317.909,319.763,324.524,326.936,331.175,333.227" svgx:width="0.82,0.43,0.55,0.31,0.37,0.23,0.44,0.31,0.23,0.67,0.33,0.48,0.48,0.23,0.3,0.51,0.37,0.23,0.31,0.53,0.43,0.37,0.43,0.23,0.51,0.44,0.31,0.31,0.43,0.37,0.27,0.43,0.37,0.23,0.44,0.37,0.43,0.23,0.37,0.53,0.51,0.69,0.55,0.23,0.27,0.55,0.23,0.53,0.27,0.47,0.23,0.23" style="fill:rgb(0,0,0);font-family:MinionPro-Regular;font-size:9.0px;stroke:none;">ments at C/10 for these batteries are shown in Fig. </text>
   <text y="684.91" x="335.065,339.385,343.705" svgx:width="0.48,0.48,0.51" style="fill:rgb(0,0,255);font-family:MinionPro-Regular;font-size:9.0px;stroke:none;">18b</text>
   <text y="684.91" x="348.016,350.068,351.922,357.996,361.299,363.154,367.699,372.271,375.646,379.471,383.07,387.165,391.036,395.788,397.642,400.054,404.977,406.831,411.088,414.427,418.207,422.86,427.666,429.97,432.661,436.486,438.34,442.129,444.406,448.275,452.145,454.935,458.157,462.828,467.58,471.405,474.708,476.562,479.676,484.437,486.849,491.088,493.14,494.992,499.15,502.219,506.539,510.859,513.973,516.025,517.879,521.83,523.684,527.491,531.973,536.725,539.515,541.927,546.679,551.458" svgx:width="0.23,0.23,0.69,0.37,0.23,0.51,0.51,0.37,0.43,0.37,0.46,0.43,0.53,0.23,0.27,0.55,0.23,0.47,0.37,0.44,0.52,0.53,0.27,0.31,0.43,0.23,0.43,0.25,0.43,0.42,0.31,0.37,0.51,0.53,0.43,0.37,0.23,0.35,0.53,0.27,0.47,0.23,0.23,0.47,0.34,0.48,0.48,0.35,0.23,0.23,0.44,0.23,0.42,0.51,0.55,0.31,0.27,0.55,0.53,0.36" style="fill:rgb(0,0,0);font-family:MinionPro-Regular;font-size:9.0px;stroke:none;">. As observed in graphite electrodes (Fig. SI12), a continu-</text>
   <text y="694.909" x="155.641,160.249,165.118,168.538,170.788,174.739,178.637,183.515,187.583,191.507,193.929,196.819,201.067,203.317,205.711,210.418,213.794,217.214,219.464,224.253,229.167,233.767,238.807,241.057,245.125,249.302,253.173,255.567,258.096,263.064,267.393,269.643,274.431,278.355,282.343,287.239,290.642,294.062,296.312,298.841,303.881,306.131,310.055,314.655,321.972,326.743,329.137,333.079,335.888,339.83,342.08,347.264,352.862,358.964,365.373,371.709,374.805,379.18,382.636,386.534,391.304,396.227,398.649,401.457,405.399,407.649,412.384,416.281,419.054,421.862,425.804,429.314,431.843,435.785,439.205,441.455,448.916,452.904,455.433,460.518,462.85,467.098,469.348,474.119,478.106,482.058,485.955,490.825,494.318,498.26,500.51,505.109,507.89,510.14,513.056,517.944,521.886,524.136,528.51,531.966,535.863,540.633,545.556,547.978,550.786,554.611" svgx:width="0.51,0.53,0.37,0.23,0.42,0.44,0.52,0.44,0.42,0.27,0.31,0.46,0.23,0.25,0.51,0.37,0.37,0.23,0.53,0.52,0.51,0.55,0.23,0.42,0.46,0.42,0.25,0.27,0.55,0.47,0.23,0.51,0.42,0.42,0.53,0.37,0.37,0.23,0.27,0.55,0.23,0.42,0.51,0.82,0.52,0.25,0.43,0.31,0.43,0.23,0.56,0.62,0.67,0.74,0.69,0.33,0.47,0.37,0.44,0.52,0.53,0.27,0.31,0.43,0.23,0.51,0.44,0.31,0.31,0.43,0.37,0.27,0.43,0.37,0.23,0.82,0.44,0.27,0.55,0.25,0.46,0.23,0.51,0.43,0.42,0.44,0.53,0.37,0.43,0.23,0.51,0.3,0.23,0.31,0.53,0.43,0.23,0.47,0.37,0.44,0.52,0.53,0.27,0.31,0.43,0.23" style="fill:rgb(0,0,0);font-family:MinionPro-Regular;font-size:9.0px;stroke:none;">ous capacity loss upon cycling occurs in complete PTCDA/graphite batteries mainly because of the graphite </text>
   <text y="704.908" x="155.641,159.695,164.767,169.623,174.564,178.051,179.389,182.876,185.36,189.352,194.019,199.055,202.498,207.462,214.847,219.648,222.623,225.224,229.891,234.998,237.482,242.148,244.997,247.481,249.947,252.435,255.42,260.41,262.899,267.867,275.422,277.663,280.147,286.551,289.035,292.486,294.952,297.549,302.008,306.829,309.758,312.242,314.839,322.224,327.017,330.424,335.055,339.335,343.345,350.864,354.878,359.815,362.744,365.228,367.798,371.285,373.769,378.5,383.256,386.816,390.826,394.611,398.891,402.945,407.882,410.366,416.779,421.734,425.748,430.855,433.339,436.323,441.278,445.288,447.772,455.3,459.41,462.852,466.344,468.828,473.495,476.348,478.832,483.625,487.032,491.006,493.467,495.957,498.94,503.931,506.555,510.52,513.396,517.451,522.387,524.871,530.127,535.793,541.962,548.439,554.658" svgx:width="0.44,0.55,0.51,0.53,0.43,0.22,0.37,0.23,0.42,0.51,0.55,0.37,0.53,0.82,0.52,0.31,0.27,0.51,0.55,0.23,0.51,0.3,0.23,0.25,0.27,0.31,0.53,0.27,0.53,0.82,0.23,0.23,0.69,0.23,0.37,0.25,0.27,0.47,0.53,0.31,0.23,0.27,0.82,0.52,0.37,0.51,0.46,0.43,0.82,0.43,0.55,0.31,0.23,0.27,0.37,0.23,0.51,0.51,0.37,0.43,0.37,0.46,0.43,0.53,0.23,0.69,0.53,0.43,0.55,0.23,0.31,0.53,0.43,0.23,0.82,0.44,0.37,0.37,0.23,0.51,0.3,0.23,0.52,0.37,0.43,0.25,0.27,0.31,0.53,0.27,0.44,0.31,0.43,0.53,0.23,0.56,0.62,0.67,0.74,0.69,0.23" style="fill:rgb(0,0,0);font-family:MinionPro-Regular;font-size:9.0px;stroke:none;">anode’s consumption of lithium. A slight improvement is observed when the mass of prelithiated PTCDA </text>
   <text y="714.907" x="155.641,158.062,162.955,166.771,169.998,173.884,177.813,181.194,185.028,188.34,190.284,194.943,198.818,202.658,206.444,211.202,214.583,218.417,220.361,224.85,227.523,229.467,232.271,237.047,240.881,242.825,247.64,250.061,254.342,259.118,262.952,266.3,268.244,272.12,279.462,283.958,288.746,293.504,296.258,298.202,302.691,305.364,307.308,311.103,315.279,319.155,321.618,323.928,327.812,332.328,334.614,338.448,340.392,342.678,344.988,347.793,352.608,354.919,359.707,367.087,369.148,371.092,375.688,380.175,383.523,385.467,388.272,393.087,395.477,398.789,400.733,403.961,407.846,411.776,415.156,419.645,424.577,426.638,428.582,431.305,435.982,438.644,443.432,446.659,450.493,452.437,458.536,463.024,466.333,470.806,474.118,476.062,482.26,484.723,487.05,489.336,491.28,493.87,498.546,502.422,507.18,510.492,512.436,516.924,521.856,523.8,526.605,531.381,535.215,537.159,541.655,546.278,549.074,551.495" svgx:width="0.27,0.55,0.42,0.37,0.43,0.44,0.37,0.43,0.37,0.23,0.51,0.43,0.42,0.44,0.53,0.37,0.43,0.23,0.51,0.3,0.23,0.31,0.53,0.43,0.23,0.53,0.27,0.47,0.53,0.43,0.37,0.23,0.44,0.82,0.51,0.53,0.55,0.31,0.23,0.51,0.3,0.23,0.44,0.46,0.44,0.27,0.25,0.44,0.51,0.25,0.43,0.23,0.25,0.27,0.31,0.53,0.27,0.53,0.82,0.23,0.23,0.53,0.51,0.37,0.23,0.31,0.53,0.27,0.37,0.23,0.37,0.43,0.44,0.37,0.51,0.55,0.23,0.23,0.3,0.53,0.31,0.53,0.37,0.43,0.23,0.69,0.51,0.37,0.5,0.37,0.23,0.69,0.27,0.25,0.25,0.23,0.3,0.51,0.42,0.53,0.37,0.23,0.51,0.55,0.23,0.31,0.53,0.43,0.23,0.51,0.52,0.31,0.27,0.36" style="fill:rgb(0,0,0);font-family:MinionPro-Regular;font-size:9.0px;stroke:none;">increases because of the higher amount of available lithium. For this reason, future works will focus on the opti-</text>
   <text y="724.906" x="155.641,163.012,165.424,169.204,172.984,175.773,178.186,182.667,187.59,189.408,193.89,196.554,198.372,202.206,205.986,208.785,213.555,218.226,222.978,226.803,229.782,233.651,238.539,243.209,247.961,251.786,253.604,257.555,261.425,264.215,266.564,270.659,274.484,276.302,283.646,287.57,290.828,294.131,295.949,299.288,303.068,305.858,308.27,312.86,316.163,318.215,320.033,326.019,330.771,335.523,337.826,340.616,343.028,347.51,352.406,356.402,358.679,360.497,363.188,367.013,370.271,373.016,376.319,378.137,381.251,385.021,387.073,391.312,393.364,395.416,397.234,401.842,405.064,408.853,411.13,413.434,416.233,421.039,423.477,427.257,430.047,432.459,436.941,441.864,443.682,448.164,450.828,452.646,456.516,461.403,466.074,470.826,474.651,477.765,479.583,482.382,487.161,490.941,493.686,495.504,499.311,503.802,508.626,510.903,515.655,517.473,519.75,523.628,527.579,532.331,534.149,536.84,541.43,543.248,546.047,550.817,554.642" svgx:width="0.82,0.27,0.42,0.44,0.31,0.27,0.51,0.55,0.23,0.51,0.3,0.23,0.42,0.44,0.31,0.53,0.51,0.53,0.43,0.33,0.44,0.55,0.51,0.53,0.43,0.23,0.44,0.42,0.31,0.27,0.46,0.43,0.23,0.82,0.44,0.37,0.37,0.23,0.37,0.44,0.31,0.27,0.51,0.37,0.23,0.23,0.69,0.53,0.53,0.27,0.31,0.27,0.51,0.55,0.44,0.25,0.23,0.31,0.43,0.37,0.31,0.37,0.23,0.35,0.43,0.23,0.47,0.23,0.23,0.23,0.52,0.37,0.43,0.25,0.27,0.31,0.53,0.27,0.44,0.31,0.27,0.51,0.55,0.23,0.51,0.3,0.23,0.44,0.55,0.51,0.53,0.43,0.35,0.23,0.31,0.53,0.44,0.31,0.23,0.42,0.51,0.53,0.25,0.53,0.23,0.25,0.43,0.44,0.53,0.23,0.31,0.51,0.23,0.31,0.53,0.43,0.23" style="fill:rgb(0,0,0);font-family:MinionPro-Regular;font-size:9.0px;stroke:none;">mization of cathode/anode active mass ratios. Additional tests (e.g., prelithiation of anode) that could lead to the </text>
   <text y="734.905" x="155.641,158.863,162.742,166.738,169.014,171.426,175.206,178.986,181.776,184.188,188.67,193.593,195.429,199.911,202.575,204.411,208.362,210.198,212.916,217.739,220.061,222.338,224.174,228.656,231.923,236.135,240.005,244.928,247.34,251.147,252.983,257.6,261.38,264.035,266.726,270.551,274.151,278.282,280.118,286.309,288.613,291.412,296.218,298.054,302.005,303.841,307.099,309.898,313.777,318.286,320.563,324.388,326.224,330.057,333.837,338.598,342.549,346.356,348.66,351.432,355.563,357.399,361.881,364.545,366.381,370.161,374.778,379.386,382.608,387.054,391.302,393.714,401.058,404.838,407.529,411.318,413.532,417.663,419.499,423.819,428.139,432.459,434.295,441.666,447.912,452.718,454.752" svgx:width="0.37,0.43,0.44,0.25,0.27,0.42,0.44,0.31,0.27,0.51,0.55,0.23,0.51,0.3,0.23,0.44,0.23,0.3,0.53,0.25,0.25,0.23,0.51,0.37,0.47,0.44,0.55,0.27,0.42,0.23,0.51,0.44,0.31,0.31,0.43,0.37,0.46,0.23,0.69,0.27,0.31,0.53,0.23,0.44,0.23,0.37,0.31,0.44,0.51,0.25,0.43,0.23,0.42,0.44,0.52,0.44,0.42,0.27,0.31,0.46,0.23,0.51,0.3,0.23,0.44,0.52,0.52,0.37,0.51,0.47,0.27,0.82,0.44,0.31,0.43,0.25,0.46,0.23,0.48,0.48,0.48,0.23,0.82,0.69,0.53,0.23,0.47" style="fill:rgb(0,0,0);font-family:MinionPro-Regular;font-size:9.0px;stroke:none;">realization of a full organic battery with a stable capacity of approximately 120 mAh·g</text>
   <text y="731.852" x="458.994" svgx:width="0.78" style="fill:rgb(0,0,0);font-family:EuclidSymbol;font-size:5.85px;stroke:none;">−</text>
   <text y="731.852" x="463.546" svgx:width="0.48" style="fill:rgb(0,0,0);font-family:MinionPro-Regular;font-size:5.85px;stroke:none;">1</text>
   <text y="734.912" x="466.353,468.189,471.456,476.226,480.717,485.541,487.818,492.57,494.406,499.059,502.884,504.72,509.374,511.678,515.548,520.471,525.357,529.227,533.925" svgx:width="0.23,0.37,0.53,0.51,0.53,0.25,0.53,0.23,0.51,0.43,0.23,0.52,0.25,0.44,0.55,0.55,0.43,0.53,0.23" style="fill:rgb(0,0,0);font-family:MinionPro-Regular;font-size:9.0px;stroke:none;"> should be planned.</text>
  </g>
  <rect style="stroke:blue;stroke-width:0.3;" x="155.638" y="64.138" height="152.52" width="396.0" title="14"/>
  <text y="64.138" class="image" id="image.14.1" width="396" height="152" x="155.638">image.14.1.156_552.64_217</text>
  <path style="fill:none;stroke:rgb(206,221,228);stroke-width:0.3;" d="M159.130 257.560 L552.640 257.560 "/>
  <path style="fill:none;stroke:rgb(206,221,228);stroke-width:1.0;" d="M156.140 257.560 L156.140 257.560 M554.140 257.560 L554.140 257.560 "/>
  <g begin="text">
   <text y="217.563" x="155.638,160.552,163.207,167.662,172.657,176.221,180.154,181.909,186.409,190.909" svgx:width="0.55,0.29,0.49,0.56,0.4,0.44,0.22,0.5,0.5,0.25" style="fill:rgb(0,0,0);font-family:MinionPro-Bold;font-size:9.0px;stroke:none;">Figure 16.</text>
   <text y="217.563" x="193.195,195.265,197.695" svgx:width="0.23,0.55,0.35" style="fill:rgb(0,0,0);font-family:MinionPro-Regular;font-size:9.0px;stroke:none;"> (</text>
   <text y="217.563" x="200.809" svgx:width="0.47" style="fill:rgb(0,0,0);font-family:MinionPro-Bold;font-size:9.0px;stroke:none;">a</text>
   <text y="217.563" x="205.003,208.117,209.953,214.714,217.126,220.411,223.669,226.414,228.25,232.003,236.782,240.652,243.919,248.059,251.884,253.72,256.834,265.132,268.246,270.082,273.952,278.839,283.591,285.427,290.179,292.564,295.939,299.692,304.471,308.341,311.608,315.748,319.573,321.409" svgx:width="0.35,0.23,0.53,0.27,0.37,0.37,0.31,0.23,0.42,0.53,0.44,0.37,0.47,0.43,0.23,0.35,0.92,0.35,0.23,0.44,0.55,0.53,0.23,0.53,0.27,0.37,0.42,0.53,0.44,0.37,0.47,0.43,0.23,0.35" style="fill:rgb(0,0,0);font-family:MinionPro-Regular;font-size:9.0px;stroke:none;">) First charge (—) and discharge (</text>
  </g>
  <path style="fill:rgb(255,0,0);stroke:none;stroke-width:1.0;" d="M342.480 213.810 "/>
  <g begin="text">
   <text y="217.563" x="348.685,351.799,353.635,358.18,362.653,365.452,369.322,371.734,376.621,380.491,385.243,387.079,390.859,393.604,395.44,399.391,401.227,405.034,409.516,414.367,417.625,420.424,424.294,429.046,431.791,433.627,437.496,442.275,445.668,448.89,452.715,457.467,460.212,462.048,466.53,469.194,471.03,477.015,479.994,484.314,488.634,490.47,495.123,498.948,501.72,507.813,511.683,515.508,520.431,522.267,526.587,528.423,532.293,537.18,541.932" svgx:width="0.35,0.23,0.51,0.51,0.31,0.44,0.27,0.55,0.43,0.53,0.23,0.44,0.31,0.23,0.44,0.23,0.42,0.51,0.55,0.37,0.31,0.44,0.55,0.31,0.23,0.42,0.53,0.37,0.37,0.43,0.55,0.31,0.23,0.51,0.3,0.23,0.67,0.33,0.48,0.48,0.23,0.51,0.43,0.31,0.69,0.43,0.43,0.55,0.23,0.48,0.23,0.44,0.55,0.53,0.23" style="fill:rgb(0,0,0);font-family:MinionPro-Regular;font-size:9.0px;stroke:none;">) obtained at a constant current of C/24 between 2 and </text>
   <text y="227.562" x="155.635,159.955,161.08,167.407,169.243,173.338,177.163,180.447,183.705,188.457,191.76,193.596,197.853,201.192,204.972,209.625,214.431,216.735,219.426,223.251,225.087,227.499,232.422,234.258,238.128,243.051,244.887,249.729,254.49,259.557,262.536,266.792,270.131,273.911,278.564,283.37,285.674,288.365,292.19,294.026,298.643,302.423,305.078,307.769,311.594,315.193,318.667,320.719,322.555,328.774,330.61,335.371,339.151,343.948,347.773,351.112,352.948,358.789,363.46,368.212,372.802,376.069,380.875,383.287,385.123,388.498,392.323,397.083,400.953,404.292,408.072,410.763,415.245,418.584,420.42,422.805,426.108,427.944,432.695,436.07,439.94,444.638,446.69,448.526,452.396,457.283,462.035,463.871,467.741,472.664,474.5,478.325,482.501,486.308,490.133,493.391,496.694,498.53,503.012,505.676,507.512,510.311,515.081,518.906,520.742,524.613,529.5,534.17,538.922,542.747" svgx:width="0.48,0.23,0.7,0.23,0.46,0.43,0.37,0.37,0.53,0.37,0.23,0.47,0.37,0.44,0.52,0.53,0.27,0.31,0.43,0.23,0.27,0.55,0.23,0.44,0.55,0.23,0.54,0.53,0.56,0.33,0.47,0.37,0.44,0.52,0.53,0.27,0.31,0.43,0.23,0.51,0.44,0.31,0.31,0.43,0.37,0.46,0.23,0.23,0.69,0.23,0.52,0.44,0.52,0.43,0.37,0.23,0.67,0.51,0.53,0.51,0.37,0.53,0.27,0.23,0.37,0.43,0.52,0.44,0.37,0.44,0.31,0.51,0.37,0.23,0.27,0.37,0.23,0.53,0.37,0.43,0.53,0.23,0.23,0.44,0.55,0.53,0.23,0.44,0.55,0.23,0.43,0.47,0.42,0.43,0.37,0.37,0.23,0.51,0.3,0.23,0.31,0.53,0.43,0.23,0.44,0.55,0.51,0.53,0.43,0.23" style="fill:rgb(0,0,0);font-family:MinionPro-Regular;font-size:9.0px;stroke:none;">4 V versus graphite in an LFP/graphite battery. A paper Kodoshi separator is used, and an excess of the anode </text>
   <text y="237.561" x="155.635,159.469,163.249,168.01,171.961,175.768,178.071,180.843,184.974,186.81,189.195,192.498,194.334,198.159,205.358,210.012,212.289,216.735,220.794,224.663,229.361,231.413,233.249" svgx:width="0.42,0.44,0.52,0.44,0.42,0.27,0.31,0.46,0.23,0.27,0.37,0.23,0.43,0.82,0.52,0.25,0.51,0.46,0.43,0.53,0.23,0.23,0.35" style="fill:rgb(0,0,0);font-family:MinionPro-Regular;font-size:9.0px;stroke:none;">capacity is employed. (</text>
   <text y="237.561" x="236.363" svgx:width="0.53" style="fill:rgb(0,0,0);font-family:MinionPro-Bold;font-size:9.0px;stroke:none;">b</text>
   <text y="237.561" x="241.169,244.283,246.119,255.722,259.547,261.383,265.19,269.672,273.065,276.287,280.112,283.37,288.167,292.649,297.536,302.288,304.7,309.551,313.763,315.599,317.876,322.357,327.209,331.421,333.257,337.208,341.267,345.02,347.297,349.709,354.56,358.772,360.608,364.433,368.681,373.477,377.302,380.695,383.107,390.442,394.267,399.018,401.763,403.599,405.984,409.287,411.123,415.92,419.745,423.137,425.72,430.202,433.595,440.93,444.8,449.552,451.388,455.168,457.913,459.749,463.7,465.536,469.856,471.013,476.998,478.834,482.173,485.953,488.644,492.414,494.466,496.302,505.905,509.73,511.566,514.284,519.108,521.43,523.707,525.543,529.414,534.301,539.053" svgx:width="0.35,0.23,1.07,0.43,0.23,0.42,0.51,0.37,0.37,0.43,0.37,0.52,0.51,0.55,0.53,0.27,0.55,0.47,0.23,0.25,0.51,0.55,0.47,0.23,0.42,0.46,0.42,0.25,0.27,0.55,0.47,0.23,0.43,0.47,0.52,0.43,0.37,0.27,0.82,0.43,0.55,0.31,0.23,0.27,0.37,0.23,0.52,0.43,0.37,0.3,0.51,0.37,0.82,0.43,0.53,0.23,0.44,0.31,0.23,0.44,0.23,0.48,0.23,0.67,0.23,0.37,0.44,0.31,0.43,0.23,0.23,1.07,0.43,0.23,0.3,0.53,0.25,0.25,0.23,0.44,0.55,0.53,0.23" style="fill:rgb(0,0,0);font-family:MinionPro-Regular;font-size:9.0px;stroke:none;">) The corresponding long cycling experiment is performed at a 1 C rate. The full and </text>
   <text y="247.56" x="155.635,159.46,166.66,171.277,174.049,178.18,180.016,183.769,188.548,192.418,195.757,199.708,203.578,206.269,210.094,213.379,216.682,218.518,221.74,225.565,230.172,233.394,237.219,240.594,244.419,249.171,251.916,253.752,256.551,261.321,265.146,266.982,273.101,277.593,282.416,284.693,289.175,296.456,300.92,303.332,307.139,308.975,312.8,319.982,323.789,326.201,330.026,334.912,338.863,342.994,344.83,347.944,354.748,357.862,359.698,363.567,368.455,373.207,375.043,379.795,382.179,385.554,389.307,394.086,397.956,401.223,405.363,409.188,411.024,414.858,418.638,423.398,427.349,431.156,433.46,436.232,439.706,441.758,443.594,446.816,450.641,453.899,458.696,462.565,466.435,469.225,471.574,475.669,479.458,481.672,485.146" svgx:width="0.43,0.82,0.52,0.31,0.46,0.23,0.42,0.53,0.44,0.37,0.44,0.42,0.31,0.43,0.37,0.37,0.23,0.37,0.43,0.52,0.37,0.43,0.37,0.43,0.55,0.31,0.23,0.31,0.53,0.43,0.23,0.67,0.51,0.53,0.25,0.51,0.82,0.51,0.27,0.42,0.23,0.43,0.8,0.42,0.27,0.43,0.55,0.42,0.46,0.23,0.35,0.76,0.35,0.23,0.44,0.55,0.53,0.23,0.53,0.27,0.37,0.42,0.53,0.44,0.37,0.47,0.43,0.23,0.42,0.44,0.52,0.44,0.42,0.27,0.31,0.46,0.23,0.23,0.37,0.43,0.37,0.52,0.43,0.42,0.31,0.27,0.46,0.43,0.25,0.46,0.23" style="fill:rgb(0,0,0);font-family:MinionPro-Regular;font-size:9.0px;stroke:none;">empty characters represent the Coulombic efficiency (%) and discharge capacity, respectively.</text>
  </g>
 </g>
</svg>
