<?xml version="1.0" encoding="UTF-8"?>
<svg height="774.244" width="4165.638" xmlns="http://www.w3.org/2000/svg">
 <g id="page" xmlns:svgx="http://www.xml-cml.org/schema/svgx">
  <path style="fill:rgb(206,221,228);stroke:none;stroke-width:1.0;" d="M382.560 8.590 L382.560 26.390 L548.650 26.390 C548.650 26.390 554.310 26.390 554.310 20.720 L554.310 8.590 Z"/>
  <g begin="text">
   <text y="764.23" x="550.106" svgx:width="0.45" style="fill:rgb(206,221,228);font-family:Corbel2;font-size:10.0px;stroke:none;">3</text>
   <text y="764.244" x="40.794,45.842,50.946,53.586,58.562,64.818,69.81,72.45,77.05,79.69" svgx:width="0.58,0.58,0.28,0.57,0.73,0.57,0.28,0.52,0.28,0.58" style="fill:rgb(0,0,0);font-family:Corbel-Bold2;font-size:8.0px;stroke:none;">Scientific</text>
   <text y="764.244" x="84.65" svgx:width="0.2" style="fill:rgb(0,0,0);font-family:Corbel2;font-size:8.0px;stroke:none;"> </text>
   <text y="764.244" x="86.25,91.706,96.682,101.922,108.226,113.682,118.674" svgx:width="0.63,0.57,0.6,0.73,0.63,0.57,0.58" style="fill:rgb(0,0,0);font-family:Corbel-Bold2;font-size:8.0px;stroke:none;">RepoRtS</text>
   <text y="764.244" x="123.57,125.01,126.826" svgx:width="0.2,0.23,0.2" style="fill:rgb(0,0,0);font-family:Corbel2;font-size:8.0px;stroke:none;"> | </text>
   <text y="764.244" x="128.266,129.722,131.178,132.634,134.09,135.546,137.002,138.458,139.914,142.186,146.122,150.058,153.994,157.93,160.202,161.658,165.594,169.53,171.218,175.154,179.09,183.026,186.962" svgx:width="0.18,0.18,0.18,0.18,0.18,0.18,0.18,0.18,0.28,0.49,0.49,0.49,0.49,0.28,0.18,0.49,0.49,0.21,0.49,0.49,0.49,0.49,0.18" style="fill:rgb(0,0,0);font-family:MyriadPro-It;font-size:8.0px;stroke:none;"> (2020) 10:3812 </text>
   <text y="764.244" x="188.418,189.858,191.674" svgx:width="0.2,0.23,0.2" style="fill:rgb(0,0,0);font-family:Corbel2;font-size:8.0px;stroke:none;"> | </text>
   <text y="764.244" x="193.114,197.37,200.146,202.922,207.17,210.402,212.514,214.714,216.914,221.202,225.466,227.322,229.434,233.698,236.378,240.626,242.826,246.93,251.034,253.146,257.25,261.354,265.458,269.562,271.762,274.994,279.098,283.202,287.306,291.41,295.514,298.178,302.282,306.386,310.49,313.154,317.258,321.362,325.466,329.57,333.674,336.338" svgx:width="0.53,0.35,0.35,0.53,0.4,0.26,0.28,0.28,0.54,0.53,0.23,0.26,0.53,0.34,0.53,0.28,0.51,0.51,0.26,0.51,0.51,0.51,0.51,0.28,0.4,0.51,0.51,0.51,0.51,0.51,0.33,0.51,0.51,0.51,0.33,0.51,0.51,0.51,0.51,0.51,0.33,0.48" style="fill:rgb(0,0,0);font-family:Corbel;font-size:8.0px;stroke:none;">https://doi.org/10.1038/s41598-020-60633-y</text>
  </g>
  <g begin="text">
   <text y="22.277" x="389.724,397.484,405.243,412.702,415.869,421.732,427.216,431.234,437.005,440.9,446.465,449.633,454.583,460.508,469.466,472.746,477.349,482.299,485.139,490.699,496.562,500.58,503.419,507.14,509.979,514.93,518.825,524.391,530.295,536.219,540.115,544.133" svgx:width="0.71,0.71,0.71,0.26,0.53,0.49,0.35,0.52,0.34,0.5,0.26,0.44,0.53,0.83,0.28,0.4,0.44,0.23,0.5,0.53,0.35,0.23,0.32,0.23,0.44,0.34,0.5,0.53,0.53,0.34,0.35,0.4" style="fill:rgb(0,0,0);font-family:Corbel2;font-size:10.25px;stroke:none;">www.nature.com/scientificreports</text>
  </g>
  <path style="fill:none;stroke:rgb(0,0,0);stroke-width:1.0;" d="M40.640 752.550 L554.640 752.550 "/>
  <g begin="text">
   <text y="22.46" x="40.638,48.208,55.778,63.055,66.145,71.865,77.215,81.135,86.765,90.565,95.995,99.085,103.915,109.695,118.435,121.635,126.125,130.955,133.725,139.15,144.87,148.79,151.56,155.19,157.96,162.79,166.59,172.02,177.78,183.56,187.36,191.28,195.77" svgx:width="0.71,0.71,0.71,0.26,0.53,0.49,0.35,0.52,0.34,0.5,0.26,0.44,0.53,0.83,0.28,0.4,0.44,0.23,0.5,0.53,0.35,0.23,0.32,0.23,0.44,0.34,0.5,0.53,0.53,0.34,0.35,0.4,0.28" style="fill:rgb(0,0,0);font-family:Corbel2;font-size:10.0px;stroke:none;">www.nature.com/scientificreports/</text>
  </g>
  <g begin="text">
   <text y="329.5" x="155.638,158.287,162.832,164.524,167.064,171.504,174.856,182.182,183.874,187.78,189.472,193.263,197.092,200.386,204.997,209.437,214.315,216.007,219.835,224.569,227.921,231.1,234.88,239.591,242.291,243.983,247.745,252.231,254.51,256.742,260.57,264.398,267.047,271.488,274.782,276.474,282.624,284.885,287.643,292.404,294.096,297.858,301.605,303.885,306.012,310.793,313.025,317.57,320.903,324.683,326.375,331.113,335.723,339.503,342.747,346.005,348.012,349.704,355.728,359.556,362.85,367.461,371.902,376.78,378.472,383.326,387.154,391.999,396.448,399.061,403.763,408.373,412.153,415.411,417.103,420.172,426.112,432.754,438.262,441.331,443.023,446.852,451.697,456.404,458.096,461.312,465.923,470.651,474.431,477.781,480.148,483.941,487.895,490.127,491.819,498.445,502.225,507.151,511.57,515.476,517.168,520.961,524.788,528.082,532.694,537.133,542.011,543.703,547.532,550.712,554.537" svgx:width="0.31,0.51,0.23,0.3,0.51,0.37,0.82,0.23,0.44,0.23,0.42,0.44,0.37,0.51,0.51,0.55,0.23,0.42,0.53,0.37,0.37,0.43,0.55,0.31,0.23,0.42,0.51,0.25,0.25,0.43,0.42,0.31,0.51,0.37,0.23,0.69,0.27,0.31,0.53,0.23,0.42,0.43,0.25,0.25,0.53,0.25,0.51,0.37,0.43,0.23,0.54,0.51,0.43,0.37,0.37,0.23,0.23,0.67,0.44,0.37,0.51,0.51,0.55,0.23,0.55,0.44,0.55,0.51,0.31,0.53,0.51,0.43,0.37,0.23,0.35,0.67,0.74,0.62,0.35,0.23,0.44,0.55,0.53,0.23,0.37,0.52,0.53,0.43,0.37,0.27,0.42,0.44,0.25,0.23,0.74,0.43,0.55,0.5,0.44,0.23,0.42,0.44,0.37,0.51,0.51,0.55,0.23,0.44,0.37,0.43,0.23" style="fill:rgb(0,0,0);font-family:MinionPro-Regular;font-size:9.0px;stroke:none;">to form a carbon current collector with cellulose fibers. Carbon nanotubes (CNT) and spherical Denka carbon are </text>
   <text y="339.499" x="155.638,159.61,161.835,165.185,169.748,171.458,178.769,183.416,188.141,190.526,195.314,199.159,203.833,205.858,207.568,217.147,220.945,224.295,228.093,229.803,232.551,238.62,243.183,244.893,247.64,251.744,256.516,260.314,263.59,265.3,269.758,272.395,274.105,277.914,281.76,285.072,289.7,294.157,299.053,300.763,304.609,307.806,311.604,313.314,317.112,324.287,328.916,331.166,335.588,339.622,343.468,348.193,349.903,352.57,357.133,358.843,361.401,365.859,369.227,376.571,378.281,381.056,385.801,389.599,391.309,395.119,398.875,401.648,406.394,411.041,415.766,419.564,421.274,425.12,429.982,434.707,436.417,440.263,445.125,449.771,454.496,458.294,460.004,464.462,469.358,471.068,473.843,478.589,482.387,484.096,487.996,491.272,494.449,499.033,502.231,506.029,510.765,514.611,517.809,521.654,526.378,528.089,531.933,536.685,540.054,543.252,547.05,551.777,554.522" svgx:width="0.44,0.25,0.37,0.51,0.23,0.82,0.51,0.53,0.27,0.54,0.43,0.53,0.23,0.23,1.07,0.43,0.37,0.43,0.23,0.31,0.69,0.51,0.23,0.31,0.46,0.52,0.43,0.37,0.23,0.51,0.3,0.23,0.42,0.44,0.37,0.51,0.51,0.55,0.23,0.44,0.37,0.43,0.23,0.43,0.82,0.52,0.25,0.51,0.46,0.43,0.53,0.23,0.31,0.51,0.23,0.3,0.51,0.37,0.82,0.23,0.31,0.53,0.43,0.23,0.42,0.44,0.31,0.53,0.51,0.53,0.43,0.23,0.44,0.55,0.53,0.23,0.44,0.55,0.51,0.53,0.43,0.23,0.51,0.55,0.23,0.31,0.53,0.43,0.23,0.44,0.37,0.36,0.52,0.37,0.43,0.52,0.44,0.37,0.43,0.53,0.23,0.42,0.53,0.37,0.37,0.43,0.55,0.31,0.23" style="fill:rgb(0,0,0);font-family:MinionPro-Regular;font-size:9.0px;stroke:none;">also modified. These two types of carbon are employed to form the cathode and anode on the as-prepared current </text>
   <text y="349.498" x="155.638,159.445,163.972,166.294,168.571,172.44,176.31,179.001,183.483,186.255,188.307,190.143,196.506,199.845,203.625,208.278,213.084,215.388,218.079,221.904,223.74,226.125,229.428,231.264,235.26,237.51,240.885,245.475,247.311,254.646,259.316,264.068,266.48,271.295,275.165,279.917,281.753,286.226,290.897,293.642,295.478,297.863,301.166,303.002,307.484,312.452,314.666,318.797,320.633,325.385,328.76,332.63,337.382,339.218,343.142,346.445,348.281,352.151,357.074,358.91,362.861,366.731,369.521,371.87,375.965,379.79,381.626,388.97,392.75,395.44,399.265,402.658,405.097,409.093,411.316" svgx:width="0.42,0.51,0.25,0.25,0.43,0.42,0.31,0.51,0.37,0.23,0.23,0.71,0.37,0.44,0.52,0.53,0.27,0.31,0.43,0.23,0.27,0.37,0.23,0.44,0.25,0.37,0.51,0.23,0.82,0.51,0.53,0.27,0.54,0.43,0.53,0.23,0.51,0.53,0.31,0.23,0.27,0.37,0.23,0.51,0.55,0.25,0.46,0.23,0.53,0.37,0.43,0.53,0.23,0.44,0.37,0.23,0.44,0.55,0.23,0.44,0.42,0.31,0.27,0.46,0.43,0.23,0.82,0.44,0.31,0.43,0.37,0.27,0.44,0.25,0.23" style="fill:rgb(0,0,0);font-family:MinionPro-Regular;font-size:9.0px;stroke:none;">collector. Graphite is also modified but is only used as an active material.</text>
   <text y="359.497" x="167.635,172.225,176.707,180.046,181.909,184.708,189.478,193.303,195.166,202.501,207.172,211.924,214.336,219.151,222.985,226.765,229.554,231.966,236.448,241.371,243.234,247.842,251.064,255.735,259.542,263.367,266.625,269.928,271.98,273.843,278.163,279.289,283.501,285.364,289.846,292.51,294.373,298.207,302.077,305.416,310.069,314.551,319.474,321.337,323.722,327.025,328.888,331.659,335.79,340.398,342.81,346.644,350.64,352.962,355.176,359.307,361.17,365.922,368.307,371.564,376.361,380.186,383.471,386.846,390.716,395.468,397.331,399.743,404.666,406.529,410.48,412.343,416.663,420.983,425.303,428.507,435.878,440.72,442.583,446.903,448.955,453.275,456.479,464.498,466.361" svgx:width="0.53,0.51,0.37,0.23,0.31,0.53,0.43,0.23,0.82,0.51,0.53,0.27,0.54,0.42,0.44,0.31,0.27,0.51,0.55,0.23,0.52,0.37,0.51,0.42,0.43,0.37,0.37,0.23,0.23,0.48,0.23,0.47,0.23,0.51,0.3,0.23,0.42,0.44,0.37,0.51,0.51,0.55,0.23,0.27,0.37,0.23,0.31,0.46,0.52,0.27,0.42,0.44,0.25,0.25,0.46,0.23,0.53,0.27,0.37,0.52,0.43,0.37,0.37,0.43,0.53,0.23,0.27,0.55,0.23,0.44,0.23,0.48,0.48,0.48,0.36,0.82,0.54,0.23,0.48,0.23,0.48,0.36,0.89,0.23,0.77" style="fill:rgb(0,0,0);font-family:MinionPro-Regular;font-size:9.0px;stroke:none;">For the modification process, 5 g of carbon is typically dispersed in a 200-mL 0.5-M H</text>
   <text y="361.3" x="473.252" svgx:width="0.48" style="fill:rgb(0,0,0);font-family:MinionPro-Regular;font-size:5.85px;stroke:none;">2</text>
   <text y="359.5" x="476.06,480.326" svgx:width="0.47,0.75" style="fill:rgb(0,0,0);font-family:MinionPro-Regular;font-size:9.0px;stroke:none;">SO</text>
   <text y="361.3" x="487.049" svgx:width="0.48" style="fill:rgb(0,0,0);font-family:MinionPro-Regular;font-size:5.85px;stroke:none;">4</text>
   <text y="359.5" x="489.857,491.72,495.671,500.18,504.959,508.828,513.319,518.071,521.374,523.237,526.612,531.139,533.308,537.979,540.769,543.181,547.663,552.586,554.638" svgx:width="0.23,0.44,0.51,0.53,0.43,0.51,0.53,0.37,0.23,0.37,0.51,0.25,0.53,0.31,0.27,0.51,0.55,0.23,0.23" style="fill:rgb(0,0,0);font-family:MinionPro-Regular;font-size:9.0px;stroke:none;"> aqueous solution. </text>
   <text y="369.499" x="155.642,161.969,164.192,168.812,173.728,177.709,182.571,185.472,187.887,190.769,195.008,197.231,201.824,204.596" svgx:width="0.69,0.23,0.51,0.53,0.44,0.55,0.31,0.27,0.31,0.46,0.23,0.51,0.3,0.23" style="fill:rgb(0,0,0);font-family:MinionPro-Regular;font-size:9.0px;stroke:none;">A quantity of </text>
   <text y="369.499" x="206.819" svgx:width="0.49" style="fill:rgb(0,0,0);font-family:MinionPro-It;font-size:9.0px;stroke:none;">p</text>
   <text y="369.499" x="211.316,214.628,217.997,222.851,227.531,230.899,233.8,236.215,238.98,243.762,246.564,250.544,255.404,257.627,261.607,264.939,269.532,276.986,280.877,283.778,286.298,290.213,292.436,296.417,303.896,306.416,311.413,315.346,317.569,323.872,326.287,329.196,334.11,336.333,340.707" svgx:width="0.36,0.37,0.53,0.51,0.37,0.31,0.27,0.31,0.53,0.31,0.43,0.53,0.23,0.44,0.37,0.51,0.82,0.44,0.31,0.27,0.42,0.23,0.44,0.82,0.27,0.55,0.43,0.23,0.69,0.27,0.31,0.53,0.23,0.47,0.75" style="fill:rgb(0,0,0);font-family:MinionPro-Regular;font-size:9.0px;stroke:none;">-substituted aromatic amine with SO</text>
   <text y="371.3" x="347.574" svgx:width="0.48" style="fill:rgb(0,0,0);font-family:MinionPro-Regular;font-size:5.85px;stroke:none;">3</text>
   <text y="369.5" x="350.454,357.456,359.679,364.272,367.719,369.942,376.1,383.095,389.848,396.85,399.073,403.441,406.773,411.375,416.157,420.981,424.392,426.615,430.53,435.122,438.626,441.959,445.892,449.261,454.167,458.76,463.758,468.618,471.138,476.1,480.42,482.643,485.444,490.142,492.365,496.424,498.647,503.075,505.235,509.663,514.091,516.314,520.295,524.915,529.802,532.261,536.536,540.643,543.028,546.961,551.824,554.569" svgx:width="0.77,0.23,0.51,0.37,0.23,0.67,0.75,0.75,0.77,0.23,0.47,0.37,0.51,0.53,0.52,0.37,0.23,0.42,0.51,0.37,0.37,0.43,0.37,0.52,0.51,0.55,0.53,0.27,0.55,0.47,0.23,0.31,0.51,0.23,0.44,0.23,0.48,0.23,0.48,0.48,0.23,0.43,0.51,0.53,0.27,0.46,0.44,0.25,0.43,0.55,0.31,0.23" style="fill:rgb(0,0,0);font-family:MinionPro-Regular;font-size:9.0px;stroke:none;">H or COOH groups corresponding to a 0.01 equivalent </text>
   <text y="379.499" x="155.64,159.447,163.929,171.129,175.89,179.76,182.982,186.851,191.603,193.448,196.139,200.729,202.574,206.408,210.278,213.617,218.27,222.752,227.675,229.52,231.905,235.208,237.053,239.852,244.622,248.447,253.37,255.215,259.166,263.918,268.67,272.54,277.292,279.137,281.828,286.418,288.263,291.062,295.832,299.657,301.502,308.873,311.285,315.533,318.188,322.967,326.189,329.959,332.011,333.856,343.459,347.284,349.129,356.5,358.912,363.16,365.815,370.594,373.816,377.641,379.486,381.871,385.174,387.019,391.213,393.625,397.765,402.247,405.469,409.96,414.712,417.979,420.193,424.324,426.169,429.427,432.217,434.629,438.022,441.244,445.114,449.866,451.711,456.49,461.242,464.032,466.489,468.766,470.611,473.41,478.18,482.005,483.85,487.72,495.091,497.503,502.39,506.215,508.06,510.445,513.748,515.593,519.4,523.882,531.082,535.735,538.012,541.837,544.528,548.317,550.531,554.662" svgx:width="0.42,0.51,0.82,0.52,0.44,0.37,0.43,0.53,0.23,0.31,0.51,0.23,0.42,0.44,0.37,0.51,0.51,0.55,0.23,0.27,0.37,0.23,0.31,0.53,0.43,0.55,0.23,0.44,0.53,0.53,0.43,0.53,0.23,0.31,0.51,0.23,0.31,0.53,0.43,0.23,0.82,0.27,0.47,0.31,0.53,0.37,0.43,0.23,0.23,1.07,0.43,0.23,0.82,0.27,0.47,0.31,0.53,0.37,0.43,0.23,0.27,0.37,0.23,0.46,0.27,0.47,0.51,0.37,0.51,0.53,0.37,0.25,0.46,0.23,0.37,0.31,0.27,0.37,0.37,0.43,0.53,0.23,0.53,0.55,0.31,0.27,0.25,0.23,0.31,0.53,0.43,0.23,0.44,0.82,0.27,0.55,0.43,0.23,0.27,0.37,0.23,0.42,0.51,0.82,0.52,0.25,0.43,0.31,0.43,0.25,0.46,0.23" style="fill:rgb(0,0,0);font-family:MinionPro-Regular;font-size:9.0px;stroke:none;">compared to carbon is then added to the mixture. The mixture is vigorously stirred until the amine is completely </text>
   <text y="389.498" x="155.64,160.392,162.777,166.035,169.41,173.937,176.151,180.246,184.116,188.814,190.866,192.738,202.341,206.166,209.388,213.267,217.137,222.321,226.146,228.917,230.969,232.841,236.792,238.664,242.984,245.036,249.356,253.676,255.548,259.418,263.927,268.706,271.054,275.221,279.217,281.494,285.319,290.071,292.816,294.688,299.17,301.834,303.706,307.081,311.752,316.504,318.808,323.587,330.958,332.83,337.753,340.057,342.847,346.239,348.543,351.234,355.059,356.931,360.738,365.22,372.42,377.181,381.051,384.273,388.143,392.895,394.767,397.458,402.048,403.921,407.755,411.625,414.964,419.616,424.098,429.021,430.893,433.278,436.581,438.453,442.404,447.156,451.909,455.779,460.531,462.403,465.094,469.684,471.556,474.355,479.125,482.95,484.822,492.193,494.605,498.853,501.507,506.286,509.508,513.333,515.205,517.895,522.485,524.357,528.496,532.321,537.208,541.033,544.372,548.152,550.843,554.668" svgx:width="0.53,0.27,0.37,0.37,0.51,0.25,0.46,0.43,0.53,0.23,0.23,1.07,0.43,0.37,0.43,0.44,0.58,0.43,0.37,0.23,0.23,0.44,0.23,0.48,0.23,0.48,0.48,0.23,0.43,0.51,0.53,0.27,0.46,0.44,0.25,0.43,0.55,0.31,0.23,0.51,0.3,0.23,0.37,0.51,0.53,0.27,0.53,0.82,0.23,0.55,0.27,0.31,0.37,0.27,0.31,0.43,0.23,0.42,0.51,0.82,0.52,0.44,0.37,0.43,0.53,0.23,0.31,0.51,0.23,0.42,0.44,0.37,0.51,0.51,0.55,0.23,0.27,0.37,0.23,0.44,0.53,0.53,0.43,0.53,0.23,0.31,0.51,0.23,0.31,0.53,0.43,0.23,0.82,0.27,0.47,0.31,0.53,0.37,0.43,0.23,0.31,0.51,0.23,0.47,0.43,0.55,0.43,0.37,0.44,0.31,0.43,0.23" style="fill:rgb(0,0,0);font-family:MinionPro-Regular;font-size:9.0px;stroke:none;">dissolved. Thereafter, a 0.03 equivalent of sodium nitrite compared to carbon is added to the mixture to generate </text>
   <text y="399.497" x="155.64,158.491,163.314,167.193,169.217,173.078,177.613,181.057,184.331,188.21,191.52,196.37,200.904,205.842,210.648,213.114,218.017,222.283,224.304,228.226,231.878,236.124,238.455,240.48,245.286,247.777,251.782,255.616,260.15,265.127,267.483,272.316,279.741,281.766,284.232,288.766,293.669,297.026,299.047,302.215" svgx:width="0.31,0.53,0.43,0.23,0.42,0.51,0.37,0.37,0.43,0.37,0.52,0.51,0.55,0.53,0.27,0.55,0.47,0.23,0.44,0.37,0.46,0.25,0.23,0.53,0.27,0.44,0.42,0.51,0.55,0.27,0.53,0.82,0.23,0.27,0.51,0.55,0.37,0.23,0.35,0.74" style="fill:rgb(0,0,0);font-family:MinionPro-Regular;font-size:9.0px;stroke:none;">the corresponding aryl diazonium ions (N</text>
   <text y="401.3" x="308.908" svgx:width="0.48" style="fill:rgb(0,0,0);font-family:MinionPro-Regular;font-size:5.85px;stroke:none;">2</text>
   <text y="396.438" x="311.751" svgx:width="0.78" style="fill:rgb(0,0,0);font-family:EuclidSymbol;font-size:5.85px;stroke:none;">+</text>
   <text y="399.5" x="316.339,319.596,323.519,327.17,331.416,333.747,337.005,341.325" svgx:width="0.36,0.44,0.37,0.46,0.25,0.36,0.47,0.75" style="fill:rgb(0,0,0);font-family:MinionPro-Regular;font-size:9.0px;stroke:none;">-aryl-SO</text>
   <text y="401.3" x="348.093" svgx:width="0.48" style="fill:rgb(0,0,0);font-family:MinionPro-Regular;font-size:5.85px;stroke:none;">3</text>
   <text y="399.5" x="350.934,357.882,359.903,364.437,367.83,369.851" svgx:width="0.77,0.23,0.51,0.37,0.23,0.74" style="fill:rgb(0,0,0);font-family:MinionPro-Regular;font-size:9.0px;stroke:none;">H or N</text>
   <text y="401.3" x="376.586" svgx:width="0.48" style="fill:rgb(0,0,0);font-family:MinionPro-Regular;font-size:5.85px;stroke:none;">2</text>
   <text y="396.438" x="379.429" svgx:width="0.78" style="fill:rgb(0,0,0);font-family:EuclidSymbol;font-size:5.85px;stroke:none;">+</text>
   <text y="399.5" x="384.017,387.275,391.197,394.848,399.094,401.425,404.683,410.783,417.72,424.414,431.362,434.53" svgx:width="0.36,0.44,0.37,0.46,0.25,0.36,0.67,0.75,0.75,0.77,0.35,0.23" style="fill:rgb(0,0,0);font-family:MinionPro-Regular;font-size:9.0px;stroke:none;">-aryl-COOH) </text>
   <text y="399.5" x="436.541,438.933,443.774,445.812,448.808,451.193,453.927" svgx:width="0.27,0.53,0.23,0.34,0.27,0.31,0.53" style="fill:rgb(0,0,0);font-family:MinionPro-It;font-size:9.0px;stroke:none;">in situ</text>
   <text y="399.5" x="458.78,460.886,462.906,472.561,476.44,478.461,485.886,488.352,492.654,495.36,500.193,503.467,507.346,509.371,511.808,515.165,517.19,521.237,523.611,525.942,530.44,536.586,540.507,545.313,547.338,550.081,554.67" svgx:width="0.23,0.23,1.07,0.43,0.23,0.82,0.27,0.47,0.31,0.53,0.37,0.43,0.23,0.27,0.37,0.23,0.44,0.25,0.25,0.51,0.69,0.43,0.53,0.23,0.31,0.51,0.23" style="fill:rgb(0,0,0);font-family:MinionPro-Regular;font-size:9.0px;stroke:none;">. The mixture is allowed to </text>
   <text y="409.499" x="155.642,158.837,162.689,166.613,170.455,173.173,174.883,179.302,183.37,187.168,190.533,195.429,197.814,202.062,206.67,209.388,211.098,214.851,217.569,219.279,222.474,227.118,231.573,238.917,240.627,243.291,247.089,254.262,259.031,262.829,266.141,269.894,272.522,277.274,280.469,284.213,286.238,287.948,292.313,296.039,300.782,304.58,311.887,315.685" svgx:width="0.37,0.43,0.44,0.42,0.31,0.23,0.51,0.46,0.43,0.37,0.55,0.27,0.47,0.53,0.31,0.23,0.44,0.31,0.23,0.37,0.51,0.51,0.82,0.23,0.31,0.43,0.82,0.52,0.43,0.37,0.44,0.31,0.53,0.37,0.43,0.23,0.23,0.47,0.42,0.53,0.43,0.82,0.43,0.23" style="fill:rgb(0,0,0);font-family:MinionPro-Regular;font-size:9.0px;stroke:none;">react overnight at room temperature. Scheme </text>
   <text y="409.499" x="317.39" svgx:width="0.48" style="fill:rgb(0,0,255);font-family:MinionPro-Regular;font-size:9.0px;stroke:none;">1</text>
   <text y="409.499" x="321.683,323.393,326.48,329.675,333.527,337.451,341.294,344.057,346.442,350.897,355.793,357.503,361.427,364.514,366.224,369.419,373.217,377.797,380.992,384.79,388.138,391.936,396.661,399.379,402.655,404.365,407.137,411.88,415.678,417.388,421.195,425.038,428.35,432.976,437.43,442.326,444.036,447.267,452.019,455.384,458.021,461.945,465.725,469.523,471.233,473.924,478.676,483.536,487.378,490.141,492.526,496.981,501.85,505.819,508.069,510.454,514.207,517.96,520.722,523.107,527.562,532.458,534.483,536.193,542.357,547.514,551.312,554.651" svgx:width="0.23,0.35,0.37,0.43,0.44,0.42,0.31,0.27,0.51,0.55,0.23,0.44,0.35,0.23,0.37,0.43,0.52,0.37,0.43,0.37,0.43,0.55,0.31,0.37,0.23,0.31,0.53,0.43,0.23,0.42,0.44,0.37,0.51,0.51,0.55,0.23,0.37,0.53,0.37,0.3,0.44,0.42,0.43,0.23,0.3,0.53,0.55,0.42,0.31,0.27,0.51,0.55,0.44,0.25,0.27,0.42,0.44,0.31,0.27,0.51,0.55,0.23,0.23,0.69,0.58,0.43,0.37,0.23" style="fill:rgb(0,0,0);font-family:MinionPro-Regular;font-size:9.0px;stroke:none;"> (reaction a) represents the carbon surface functionalization. After </text>
   <text y="419.498" x="155.642,158.441,163.211,167.036,168.872,172.094,175.972,179.923,183.793,186.583,188.995,193.477,198.4,200.236,202.621,205.924,207.76,211.567,216.049,223.249,227.902,230.179,234.004,236.695,240.565,245.263,247.315,249.151,251.95,256.72,260.545,262.381,269.752,272.164,276.412,279.067,283.846,287.068,290.893,292.729,295.114,298.417,300.253,305.113,307.282,309.973,313.798,317.02,320.89,325.588,327.64,329.476,333.346,338.233,342.985,344.821,347.62,352.39,356.215,358.051,362.848,367.294,373.387,378.139,381.964,385.303,387.139,389.523,392.826,394.662,400.827,404.751,408.018,412.788,416.658,421.41,423.246,426.621,430.517,434.612,438.437,441.776,445.772,448.049,449.885,452.675,455.087,462.421,466.246,469.549,471.385,475.309,478.612,480.448,485.2,489.025,492.4,496.207,499.6,501.976,506.629,510.499,515.251,517.087,521.739,525.528,527.805,532.251,537.759" svgx:width="0.31,0.53,0.43,0.23,0.37,0.43,0.44,0.42,0.31,0.27,0.51,0.55,0.23,0.27,0.37,0.23,0.42,0.51,0.82,0.52,0.25,0.43,0.31,0.43,0.53,0.23,0.23,0.31,0.53,0.43,0.23,0.82,0.27,0.47,0.31,0.53,0.37,0.43,0.23,0.27,0.37,0.23,0.54,0.25,0.31,0.43,0.37,0.43,0.53,0.23,0.23,0.44,0.55,0.53,0.23,0.31,0.53,0.43,0.23,0.52,0.51,0.69,0.53,0.43,0.37,0.23,0.27,0.37,0.23,0.69,0.44,0.37,0.53,0.43,0.53,0.23,0.37,0.43,0.46,0.43,0.37,0.44,0.25,0.23,0.31,0.27,0.82,0.43,0.37,0.23,0.44,0.37,0.23,0.53,0.43,0.37,0.42,0.37,0.27,0.51,0.43,0.53,0.23,0.51,0.43,0.25,0.51,0.69,0.23" style="fill:rgb(0,0,0);font-family:MinionPro-Regular;font-size:9.0px;stroke:none;">the reaction is completed, the mixture is filtered, and the powder is washed several times as described below.</text>
   <text y="439.055" x="155.642,159.699,164.34,167.811,170.123,174.432,177.768,181.332,183.042,190.023,194.18,198.596,200.907,205.611,208.949,213.122,215.766,218.148,222.251,227.003,228.713,232.806,235.209,236.919,241.671,246.378,251.328,253.038,257.337,261.412,267.368,271.866,275.43,278.056,280.135" svgx:width="0.47,0.53,0.37,0.27,0.49,0.38,0.4,0.23,0.79,0.47,0.51,0.27,0.53,0.38,0.49,0.31,0.27,0.47,0.53,0.23,0.47,0.27,0.23,0.53,0.53,0.55,0.23,0.49,0.47,0.67,0.51,0.4,0.37,0.23,0.23" style="fill:rgb(0,0,0);font-family:MinionPro-It;font-size:9.0px;stroke:none;">Surface modification of LFP powder. </text>
   <text y="439.055" x="289.094,293.952,296.328,300.879,304.668,309.699" svgx:width="0.54,0.27,0.53,0.43,0.56,0.75" style="fill:rgb(0,0,0);font-family:MinionPro-Regular;font-size:9.0px;stroke:none;">LiFePO</text>
   <text y="440.857" x="316.375" svgx:width="0.48" style="fill:rgb(0,0,0);font-family:MinionPro-Regular;font-size:5.85px;stroke:none;">4</text>
   <text y="439.057" x="319.158,322.101,328.05,329.751,332.829,337.113,341.757,346.041,347.742,353.871,356.58,358.596,365.364,367.065,370.861,374.693,377.996,382.611,387.055,391.942,395.02,396.721,401.48,405.888,411.943,416.659,420.448,423.751,425.452,428.53,433.336,438.061,443.092,446.17,447.871,450.219,453.486,455.187,459.757,462.941,467.349,471.504,473.88,478.596,482.429,487.145,488.846,493.236,497.331,499.032,505.591,509.612,514.328,517.512,522.066,525.234,531.947,536.69,540.45,545.064,548.896,552.667,554.719" svgx:width="0.33,0.67,0.23,0.35,0.48,0.52,0.48,0.23,0.69,0.31,0.23,0.76,0.23,0.42,0.44,0.37,0.51,0.51,0.55,0.35,0.23,0.52,0.51,0.69,0.53,0.43,0.37,0.23,0.35,0.54,0.53,0.56,0.35,0.23,0.27,0.37,0.23,0.52,0.37,0.51,0.46,0.27,0.53,0.43,0.53,0.23,0.51,0.46,0.23,0.77,0.46,0.53,0.37,0.51,0.36,0.75,0.53,0.43,0.51,0.43,0.42,0.23,0.23" style="fill:rgb(0,0,0);font-family:MinionPro-Regular;font-size:9.0px;stroke:none;">/C (2–3 wt.% carbon) powder (LFP) is provided by Hydro-Québec, </text>
   <text y="449.056" x="155.637,161.135,165.067,168.351,172.239,177.225,182.174,186.062,189.428,191.543,193.6,199.728,203.66,208.618,212.632,217.473,221.487,223.602,225.659,235.324,239.212,241.268,245.938,249.223,253.776,256.529,261.262,265.132,269.721,272.061,274.117,276.763,281.307,284.709,286.765,289.626,294.458,298.346,300.403,303.723,308.565,312.02,314.747,318.761,322.631,326.519,328.576,335.973,340.706,345.521,347.996,352.874,356.769,360.612,363.463,365.938,370.482,375.468,377.524,382.069,384.796,386.853,391.758,396.582,401.712,403.768,410.022,412.388,415.249,420.118,422.175,426.107,429.769,434.025,436.365,439.632,445.742,452.689,459.394,466.351,468.407,472.726,476.01,480.563,485.297,490.076,493.441,495.498,497.945,501.311,503.367,506.733,509.208,516.642,519.161,521.527,525.459,528.861,530.917,533.671,538.324,540.38,543.241,548.082,551.924,554.669" svgx:width="0.7,0.44,0.37,0.43,0.55,0.55,0.43,0.37,0.23,0.23,0.67,0.44,0.55,0.44,0.53,0.44,0.23,0.23,1.07,0.43,0.23,0.52,0.37,0.51,0.31,0.51,0.42,0.51,0.25,0.23,0.3,0.51,0.37,0.23,0.31,0.53,0.43,0.23,0.37,0.53,0.37,0.3,0.44,0.42,0.43,0.23,0.82,0.51,0.53,0.27,0.54,0.42,0.44,0.31,0.27,0.51,0.55,0.23,0.51,0.3,0.23,0.54,0.53,0.56,0.23,0.69,0.27,0.31,0.53,0.23,0.44,0.37,0.46,0.25,0.36,0.67,0.75,0.75,0.77,0.23,0.47,0.37,0.51,0.53,0.52,0.37,0.23,0.27,0.37,0.23,0.37,0.27,0.82,0.27,0.25,0.44,0.37,0.23,0.31,0.51,0.23,0.31,0.53,0.44,0.31,0.23" style="fill:rgb(0,0,0);font-family:MinionPro-Regular;font-size:9.0px;stroke:none;">Varennes, Canada. The protocol for the surface modification of LFP with aryl-COOH groups is similar to that </text>
   <text y="459.055" x="155.637,158.275,162.811,166.204,168.233,172.122,176.046,179.439,184.147,188.683,193.66,195.766,197.796,207.454,211.333,213.367,216.643,220.576,224.581,228.506,231.351,233.817,238.354,243.331,245.437,247.471,252.295,256.796,262.944,266.895,271.045,274.924,277.751,279.857,281.886,284.326,287.683,289.717,294.568,298.447,301.894,304.532,309.069,312.516,319.906,323.83,328.636,330.665,333.131,338.108,340.138,344.143,348.004,351.883,354.628,359.165,364.142,366.5,369.345,372.792,375.304,377.635,381.514,383.543,388.251,392.175,396.064,399.898,404.705,408.135,412.014,414.048,416.901,421.726,425.605,427.634,432.53,437.345,442.466,444.496,447.817,450.148,454.649,460.932,463.2,467.385,469.415,472.692,476.626,480.631,484.556,487.355,490.712,492.741,498.988,501.347,504.2,509.06,511.089,517.308,521.142,523.888,527.767,531.16,533.19,537.115,542.057,546.863,548.892,551.332,554.635" svgx:width="0.3,0.51,0.37,0.23,0.42,0.44,0.37,0.51,0.51,0.55,0.23,0.23,1.07,0.43,0.23,0.37,0.43,0.44,0.42,0.31,0.27,0.51,0.55,0.23,0.23,0.53,0.51,0.69,0.43,0.46,0.43,0.37,0.23,0.23,0.27,0.37,0.23,0.52,0.43,0.37,0.3,0.51,0.37,0.82,0.43,0.53,0.23,0.27,0.55,0.23,0.44,0.42,0.43,0.31,0.51,0.55,0.27,0.31,0.37,0.27,0.25,0.43,0.23,0.51,0.43,0.42,0.44,0.53,0.37,0.43,0.23,0.31,0.53,0.43,0.23,0.54,0.53,0.56,0.23,0.37,0.25,0.51,0.69,0.25,0.46,0.23,0.37,0.43,0.44,0.42,0.31,0.37,0.23,0.69,0.27,0.31,0.53,0.23,0.69,0.44,0.31,0.43,0.37,0.23,0.44,0.55,0.53,0.23,0.27,0.37,0.23" style="fill:rgb(0,0,0);font-family:MinionPro-Regular;font-size:9.0px;stroke:none;">for carbon. The reaction, however, is performed in acetonitrile because the LFP slowly reacts with water and is </text>
   <text y="469.054" x="155.637,160.524,165.485,168.852,171.76,175.749,180.368,182.753,186.686,188.909,191.429,196.46,198.683,202.663,207.694,209.917,213.976,217.891,220.411,225.271,227.791,231.706,233.929,241.374,245.353,250.213,252.626,257.513" svgx:width="0.53,0.55,0.37,0.31,0.44,0.51,0.25,0.43,0.23,0.27,0.55,0.23,0.44,0.55,0.23,0.44,0.42,0.27,0.53,0.27,0.42,0.23,0.82,0.43,0.53,0.27,0.53,0.82" style="fill:rgb(0,0,0);font-family:MinionPro-Regular;font-size:9.0px;stroke:none;">unstable in an acidic medium</text>
   <text y="465.997" x="265.016,267.894" svgx:width="0.48,0.48" style="fill:rgb(0,0,255);font-family:MinionPro-Regular;font-size:5.85px;stroke:none;">48</text>
   <text y="465.997" x="270.772" svgx:width="0.52" style="fill:rgb(0,0,0);font-family:MinionPro-Regular;font-size:5.85px;stroke:none;">–</text>
   <text y="465.997" x="273.89,276.768" svgx:width="0.48,0.48" style="fill:rgb(0,0,255);font-family:MinionPro-Regular;font-size:5.85px;stroke:none;">50</text>
   <text y="469.057" x="279.646,281.806,284.029,288.531,293.311,298.171,300.585,305.472,312.951,315.174,320.205,322.619,325.518,329.021,331.434,334.235,338.168,340.391,342.886,346.297,348.52,351.851,355.784,360.547,362.961,367.02,370.935,374.913,379.773,381.996,388.297,390.711,393.62,398.534,400.757,403.558,407.491,411.03,413.883,417.195,421.777,426.558,429.439,433.743,436.128,438.351,443.382,445.796,448.695,452.198,454.612,457.413,461.346,463.569" svgx:width="0.23,0.23,0.47,0.51,0.53,0.27,0.53,0.82,0.23,0.55,0.27,0.31,0.37,0.27,0.31,0.43,0.23,0.27,0.37,0.23,0.37,0.43,0.52,0.25,0.44,0.42,0.43,0.53,0.23,0.69,0.27,0.31,0.53,0.23,0.31,0.43,0.37,0.31,0.36,0.51,0.53,0.31,0.46,0.25,0.23,0.55,0.27,0.31,0.37,0.27,0.31,0.43,0.23,0.35" style="fill:rgb(0,0,0);font-family:MinionPro-Regular;font-size:9.0px;stroke:none;">. Sodium nitrite is replaced with tert-butyl nitrite (</text>
   <text y="469.057" x="466.791" svgx:width="0.31" style="fill:rgb(0,0,0);font-family:MinionPro-It;font-size:9.0px;stroke:none;">t</text>
   <text y="469.057" x="469.69,473.002,478.341,483.228,489.979,496.712,503.543,506.765,508.925,511.148,515.182,518.593,520.816,524.193,529.073,533.629,539.93,544.961,547.184,549.704,554.627" svgx:width="0.36,0.59,0.53,0.75,0.74,0.75,0.35,0.23,0.23,0.44,0.37,0.23,0.37,0.53,0.51,0.69,0.55,0.23,0.27,0.55,0.23" style="fill:rgb(0,0,0);font-family:MinionPro-Regular;font-size:9.0px;stroke:none;">-BuONO), as shown in </text>
   <text y="479.056" x="155.635,160.027,163.78,168.55,172.375,179.71,183.535" svgx:width="0.47,0.42,0.53,0.43,0.82,0.43,0.23" style="fill:rgb(0,0,0);font-family:MinionPro-Regular;font-size:9.0px;stroke:none;">Scheme </text>
   <text y="479.056" x="185.371" svgx:width="0.48" style="fill:rgb(0,0,255);font-family:MinionPro-Regular;font-size:9.0px;stroke:none;">1</text>
   <text y="479.056" x="189.691,191.527,194.641,197.863,201.742,205.693,209.562,212.352,214.764,219.246,224.169,226.005,230.577,233.691" svgx:width="0.23,0.35,0.37,0.43,0.44,0.42,0.31,0.27,0.51,0.55,0.23,0.51,0.35,0.23" style="fill:rgb(0,0,0);font-family:MinionPro-Regular;font-size:9.0px;stroke:none;"> (reaction b).</text>
   <text y="489.055" x="167.632,173.817,178.993,182.809,186.139,187.867,191.73,196.644,198.372,202.811,206.899,210.715,214.1,219.014,221.417,225.685,230.312,233.048,234.776,237.991,241.862,245.804,249.667,252.45,254.853,259.327,264.241,266.284,268.012,270.803,275.566,279.382,281.11,288.472,290.875,295.114,297.762,302.532,305.747,309.563,311.291,313.668,316.962,318.69,322.848,326.79,330.653,335.317,340.087,347.449,350.644,355.497,357.659,360.342,364.158,367.372,371.235,375.978,377.706,382.451,385.745,388.148,392.992,397.195,398.923,402.865,404.593,409.815,414.585,418.33,423.127,428.007,431.823,435.153,436.881,440.799,444.049,447.417,451.233,458.506,463.008,465.215,469.337,471.065,474.928,479.808,484.551,486.279,490.221,491.949,496.657,500.844,503.112,507.587,512.501,514.229,519.082,521.244,523.927,527.743,531.073,532.801,538.985,541.282,544.074,548.871,550.599,554.55" svgx:width="0.69,0.58,0.43,0.37,0.23,0.44,0.55,0.23,0.51,0.46,0.43,0.37,0.55,0.27,0.47,0.53,0.31,0.23,0.37,0.43,0.44,0.42,0.31,0.27,0.51,0.55,0.23,0.23,0.31,0.53,0.43,0.23,0.82,0.27,0.47,0.31,0.53,0.37,0.43,0.23,0.27,0.37,0.23,0.46,0.44,0.42,0.53,0.53,0.82,0.36,0.54,0.25,0.31,0.43,0.37,0.43,0.53,0.23,0.53,0.37,0.27,0.55,0.47,0.23,0.44,0.23,0.59,0.53,0.42,0.53,0.55,0.43,0.37,0.23,0.44,0.37,0.37,0.43,0.82,0.51,0.25,0.46,0.23,0.44,0.55,0.53,0.23,0.44,0.23,0.55,0.46,0.25,0.51,0.55,0.23,0.54,0.25,0.31,0.43,0.37,0.23,0.69,0.27,0.31,0.53,0.23,0.44,0.23" style="fill:rgb(0,0,0);font-family:MinionPro-Regular;font-size:9.0px;stroke:none;">After an overnight reaction, the mixture is vacuum-filtered using a Büchner assembly and a nylon filter with a </text>
   <text y="499.054" x="155.635,159.919,161.93,166.214,170.498" svgx:width="0.48,0.23,0.48,0.48,0.36" style="fill:rgb(0,0,0);font-family:MinionPro-Regular;font-size:9.0px;stroke:none;">0.22-</text>
   <text y="499.054" x="173.653" svgx:width="0.5" style="fill:rgb(0,0,0);font-family:STIXGeneral-Regular;font-size:9.0px;stroke:none;">µ</text>
   <text y="499.054" x="178.108,185.443,187.139,191.896,196.338,199.521,203.305,205.002,208.269,210.645,214.384,218.116,220.132,221.828,231.391,235.176,236.872,244.168,248.798,253.514,255.89,260.665,264.495,269.211,270.908,275.664,280.071,286.124,290.836,294.625,297.928,299.624,301.97,305.232,306.929,310.147,314.89,318.656,322.427,326.212,329.43,332.697,335.007,339.061,342.811,344.985,349.076,350.777,356.901,360.785,364.013,368.742,372.573,377.289,378.985,385.137,387.401,390.161,394.926,396.623,403.063,411.046,415.767,417.463,421.293,426.141,430.857,432.553,436.468,440.235,444.024,446.674,451.117,455.964,459.696,461.707,463.404,471.149,475.78,480.492,482.868,487.647,491.476,496.192,497.889,501.683,505.513,508.816,513.429,517.871,522.758,524.454,529.212,533.617,539.67,544.386,548.171,551.416,554.719" svgx:width="0.82,0.23,0.52,0.51,0.37,0.43,0.23,0.37,0.27,0.42,0.43,0.23,0.23,1.07,0.43,0.23,0.82,0.51,0.53,0.27,0.54,0.43,0.53,0.23,0.52,0.51,0.69,0.53,0.43,0.37,0.23,0.27,0.37,0.23,0.37,0.53,0.42,0.42,0.43,0.37,0.37,0.27,0.46,0.43,0.25,0.46,0.23,0.69,0.44,0.37,0.53,0.43,0.53,0.23,0.69,0.27,0.31,0.53,0.23,0.74,0.89,0.53,0.23,0.44,0.55,0.53,0.23,0.44,0.42,0.43,0.31,0.51,0.55,0.43,0.23,0.23,0.89,0.51,0.53,0.27,0.54,0.43,0.53,0.23,0.42,0.44,0.37,0.51,0.51,0.55,0.23,0.52,0.51,0.69,0.53,0.43,0.37,0.37,0.23" style="fill:rgb(0,0,0);font-family:MinionPro-Regular;font-size:9.0px;stroke:none;">m pore size. The modified powder is successively washed with DMF and acetone. Modified carbon powders </text>
   <text y="509.053" x="155.635,159.467,162.651,166.44,168.141,174.27,178.156,181.386,186.118,189.949,194.665,196.366,202.52,204.787,207.547,212.317,214.018,218.734,222.523,224.899,229.343,234.23,236.606,240.35,244.181,248.897,250.598,256.727,260.47,263.123,266.912,270.215,271.916,276.659,281.373,284.125,286.544,288.785,290.486,294.401,296.102,300.951,304.74,309.373,312.125,315.428,319.385,321.626,323.327,328.007,334.865,336.566,338.914,342.181,343.882,347.066,350.907,354.822,358.536,363.269,367.101,371.761,373.777,375.478,378.023,382.511,384.796,387.037,391.445,397.499,401.331,406.047,407.748,412.138,416.233,417.934,424.377,432.36,437.085,438.786,442.618,447.467,452.183,453.884,457.799,461.57,465.359,468.012,472.456,477.305,481.094,482.795,488.924,492.81,496.039,500.809,503.185,507.998,512.2,514.216,515.917,520.642,523.018,527.876,531.834,534.117,536.293,539.73,541.746,543.447,546.208,550.939,554.764" svgx:width="0.44,0.37,0.43,0.23,0.69,0.44,0.37,0.53,0.43,0.53,0.23,0.69,0.27,0.31,0.53,0.23,0.53,0.43,0.27,0.51,0.55,0.27,0.42,0.43,0.53,0.23,0.69,0.44,0.31,0.43,0.37,0.23,0.53,0.55,0.31,0.27,0.25,0.23,0.44,0.23,0.55,0.43,0.53,0.31,0.37,0.44,0.25,0.23,0.52,0.77,0.23,0.27,0.37,0.23,0.37,0.43,0.44,0.42,0.53,0.43,0.53,0.23,0.23,0.3,0.51,0.25,0.25,0.51,0.69,0.43,0.53,0.23,0.51,0.46,0.23,0.74,0.89,0.53,0.23,0.44,0.55,0.53,0.23,0.44,0.42,0.43,0.31,0.51,0.55,0.43,0.23,0.69,0.44,0.37,0.53,0.27,0.55,0.47,0.23,0.23,0.53,0.27,0.55,0.44,0.25,0.25,0.46,0.23,0.23,0.31,0.53,0.43,0.23" style="fill:rgb(0,0,0);font-family:MinionPro-Regular;font-size:9.0px;stroke:none;">are washed with deionized water until a neutral pH is reached, followed by DMF and acetone washing. Finally, the </text>
   <text y="519.052" x="155.635,162.97,167.641,172.393,174.805,179.62,183.489,188.241,190.077,194.874,199.32,205.413,210.165,213.99,217.275,220.578,222.414,226.285,229.507,233.332,235.168,239.335,243.286,247.156,251.827,256.606,263.977,267.181,271.933,275.325,277.737,281.607,286.359,288.195,291.975,294.72,296.556,300.876,305.196,309.516,310.651,313.738,319.723,321.559,324.142,328.624,331.963,333.799,337.579,340.324,342.16,344.437,348.316,352.24,355.498,358.243,360.079,364.561,369.448,373.273,375.109,379.888,383.677,387.808,389.644,394.297,398.122,400.705,405.187,408.409,412.234,414.07,418.741,421.531,423.987,426.264,428.676,432.456,436.236,439.026,441.438,445.92,450.843" svgx:width="0.82,0.51,0.53,0.27,0.54,0.43,0.53,0.23,0.52,0.51,0.69,0.53,0.43,0.37,0.37,0.23,0.44,0.37,0.43,0.23,0.46,0.44,0.42,0.53,0.53,0.82,0.36,0.53,0.37,0.27,0.43,0.53,0.23,0.44,0.31,0.23,0.48,0.48,0.48,0.23,0.34,0.67,0.23,0.3,0.51,0.37,0.23,0.44,0.31,0.23,0.25,0.43,0.44,0.37,0.31,0.23,0.51,0.55,0.43,0.23,0.53,0.44,0.46,0.23,0.51,0.43,0.3,0.51,0.37,0.43,0.23,0.53,0.31,0.27,0.25,0.27,0.42,0.44,0.31,0.27,0.51,0.55,0.23" style="fill:rgb(0,0,0);font-family:MinionPro-Regular;font-size:9.0px;stroke:none;">modified powders are vacuum-dried at 100 °C for at least one day before utilization.</text>
   <text y="538.609" x="155.635,161.723,165.868,172.891,176.496,181.225,184.56,186.769,190.986,193.671,198.356,201.484,205.088,207.05,209.404,213.548,216.846,218.808,221.232,225.773,229.377,233.972,236.658,239.012,241.644,245.743,248.087,252.763,256.547,258.509,265.534,269.731,274.191,276.544,281.292,284.842,289.419,291.381,295.723,299.841,305.839,310.379,313.984,317.246,320.284,322.405" svgx:width="0.7,0.47,0.79,0.4,0.53,0.38,0.25,0.49,0.31,0.53,0.37,0.4,0.23,0.27,0.47,0.37,0.23,0.27,0.51,0.4,0.53,0.31,0.27,0.27,0.44,0.27,0.53,0.42,0.23,0.79,0.47,0.51,0.27,0.53,0.4,0.51,0.23,0.49,0.47,0.67,0.51,0.4,0.37,0.34,0.23,0.23" style="fill:rgb(0,0,0);font-family:MinionPro-It;font-size:9.0px;stroke:none;">Nomenclature for identifying modified powders. </text>
   <text y="538.609" x="331.405,336.08,340.674,342.618,346.501,350.429,353.737,356.198,358.416,362.551,364.495,366.911,371.667,375.497,380.252,383.047,385.462,388.284,392.42,394.364,397.166,401.941,405.769,407.713,411.975,415.317,419.192,424.38,428.254,433.01,434.954,439.755,444.206,450.303,455.059,458.888,461.664,463.72,465.664,469.62,471.564,474.87,477.287,484.491,489.148,491.43,495.258,497.202,502.094,506.579,513.919,517.748,522.639,526.396,528.704,532.489,535.147,539.931,543.157,546.986,548.93,551.319,554.622" svgx:width="0.62,0.51,0.23,0.43,0.44,0.37,0.27,0.25,0.46,0.23,0.27,0.53,0.43,0.55,0.31,0.27,0.3,0.46,0.23,0.31,0.53,0.43,0.23,0.47,0.37,0.44,0.58,0.43,0.53,0.23,0.52,0.51,0.69,0.53,0.43,0.37,0.23,0.23,0.44,0.23,0.37,0.27,0.82,0.52,0.25,0.43,0.23,0.55,0.51,0.82,0.43,0.55,0.42,0.25,0.44,0.31,0.53,0.37,0.43,0.23,0.27,0.37,0.23" style="fill:rgb(0,0,0);font-family:MinionPro-Regular;font-size:9.0px;stroke:none;">To easily identify the grafted powder, a simple nomenclature is </text>
   <text y="548.608" x="155.635,159.559,164.284,168.75,173.341,176.006,179.85,184.523,186.548,188.258,196.864,201.609,205.407,210.303,212.013,215.857,219.431,223.599,225.849,229.026,235.048,241.908,248.524,255.391,257.101,261.332,264.529,268.994,273.639,278.328,281.604,283.314,287.159,290.355,294.153,295.863,299.617,302.247,305.02,308.944,312.671,317.415,321.259,325.984,327.694,330.36,334.923,336.633,339.407,344.151,347.949,349.659,352.891,357.643,361.009,363.646,367.57,371.35,375.148,376.858,381.314,383.951,385.661,390.476,395.21,399.001,401.026,402.736,409.38,413.178,418.12,422.557,426.481,428.506,430.216,436.174,442.834,447.471,449.496,451.206,455.05,459.911,464.636,466.346,472.314,478.722,484.68,489.414,491.124,494.932,498.777,502.089,506.717,511.174,515.998,519.274,521.299,523.01,525.783,530.527,534.325,536.035,540.806,545.226,551.364" svgx:width="0.44,0.53,0.51,0.52,0.31,0.43,0.53,0.23,0.23,0.97,0.53,0.43,0.55,0.23,0.44,0.37,0.46,0.25,0.36,0.67,0.75,0.75,0.77,0.23,0.47,0.37,0.51,0.53,0.52,0.37,0.23,0.44,0.37,0.43,0.23,0.44,0.31,0.31,0.44,0.42,0.53,0.43,0.53,0.23,0.31,0.51,0.23,0.31,0.53,0.43,0.23,0.37,0.53,0.37,0.3,0.44,0.42,0.43,0.23,0.51,0.3,0.23,0.54,0.53,0.56,0.23,0.23,0.74,0.43,0.55,0.5,0.44,0.23,0.23,0.67,0.74,0.62,0.23,0.23,0.44,0.55,0.53,0.23,0.7,0.71,0.67,0.53,0.23,0.42,0.44,0.37,0.51,0.51,0.55,0.37,0.23,0.23,0.31,0.53,0.43,0.23,0.52,0.51,0.69,0.36" style="fill:rgb(0,0,0);font-family:MinionPro-Regular;font-size:9.0px;stroke:none;">adopted. When aryl-COOH groups are attached to the surface of LFP, Denka, CNT, and VGCF carbons, the pow-</text>
   <text y="558.607" x="155.635,160.387,164.212,167.497,170.8,172.744,176.615,179.838,183.663,185.607,190.504,194.374,201.71,205.58,210.332,212.276,217.118,221.879,226.506,231.186,237.235,244.121,250.764,257.658,259.71,261.654,268.323,272.148,277.117,281.581,285.532,290.212,296.26,303.146,309.789,316.683,318.735,320.679,326.664,333.351,338.4,343.08,349.128,356.013,362.656,369.55,371.602,373.546,377.417,382.305,387.057,389.001,394.996,401.431,407.416,411.998,416.678,422.727,429.612,436.255,443.149,445.201,447.145,450.368,454.193,457.451,462.248,466.119,469.989,472.78,475.13,479.226,483.015,485.23,488.705,490.757,492.701,501.333,506.104,509.929,514.852,516.796,520.667,524.267,528.461,530.738,533.942,538.208" svgx:width="0.53,0.43,0.37,0.37,0.23,0.44,0.37,0.43,0.23,0.55,0.44,0.82,0.43,0.53,0.23,0.54,0.53,0.56,0.52,0.67,0.75,0.75,0.77,0.23,0.23,0.74,0.43,0.55,0.5,0.44,0.52,0.67,0.75,0.75,0.77,0.23,0.23,0.67,0.74,0.62,0.52,0.67,0.75,0.75,0.77,0.23,0.23,0.44,0.55,0.53,0.23,0.7,0.71,0.67,0.53,0.52,0.67,0.75,0.75,0.77,0.23,0.23,0.37,0.43,0.37,0.52,0.43,0.42,0.31,0.27,0.46,0.43,0.25,0.46,0.23,0.23,0.97,0.53,0.43,0.55,0.23,0.44,0.37,0.46,0.25,0.36,0.47,0.75" style="fill:rgb(0,0,0);font-family:MinionPro-Regular;font-size:9.0px;stroke:none;">ders are named LFP–COOH, Denka–COOH, CNT–COOH, and VGCF–COOH, respectively. When aryl-SO</text>
   <text y="560.414" x="544.936" svgx:width="0.48" style="fill:rgb(0,0,0);font-family:MinionPro-Regular;font-size:5.85px;stroke:none;">3</text>
   <text y="558.614" x="547.744,554.638" svgx:width="0.77,0.23" style="fill:rgb(0,0,0);font-family:MinionPro-Regular;font-size:9.0px;stroke:none;">H </text>
   <text y="568.613" x="155.641,162.976,167.458,169.87,173.695,176.485,178.897,182.722,186.025,187.87,191.74,194.962,198.787,200.632,203.044,210.415,217.749,222.294,226.758,229.215,231.492,233.904,237.684,241.554,246.306,248.151,252.633,257.556,259.401,262.2,266.97,270.795,272.64,276.474,280.344,283.683,288.336,292.818,297.741,299.586,302.844,307.623,311.016,313.68,317.631,321.438,325.208,327.26,329.105,331.904,336.674,340.499,342.344,349.679,354.35,359.102,361.514,366.329,370.199,374.951,376.796,381.593,386.039,392.132,396.884,400.709,403.993,407.296,409.141,413.012,416.234,420.059,421.904,424.316,429.068,432.893,437.644,440.434,442.846,447.661,451.531,456.283,458.128,462.052,465.355,467.2,471.457,474.796,478.576,483.229,488.035,490.339,493.03,496.855,501.535,505.801" svgx:width="0.82,0.51,0.27,0.43,0.31,0.27,0.43,0.37,0.23,0.44,0.37,0.43,0.23,0.27,0.82,0.82,0.51,0.51,0.27,0.25,0.27,0.42,0.43,0.53,0.23,0.51,0.55,0.23,0.31,0.53,0.43,0.23,0.42,0.44,0.37,0.51,0.51,0.55,0.23,0.37,0.53,0.37,0.3,0.44,0.42,0.43,0.23,0.23,0.31,0.53,0.43,0.23,0.82,0.51,0.53,0.27,0.54,0.43,0.53,0.23,0.52,0.51,0.69,0.53,0.43,0.37,0.37,0.23,0.44,0.37,0.43,0.23,0.27,0.53,0.43,0.55,0.31,0.27,0.54,0.43,0.53,0.23,0.44,0.37,0.23,0.47,0.37,0.44,0.52,0.53,0.27,0.31,0.43,0.52,0.47,0.75" style="fill:rgb(0,0,0);font-family:MinionPro-Regular;font-size:9.0px;stroke:none;">moieties are immobilized on the carbon surface, the modified powders are identified as graphite–SO</text>
   <text y="570.414" x="512.485" svgx:width="0.48" style="fill:rgb(0,0,0);font-family:MinionPro-Regular;font-size:5.85px;stroke:none;">3</text>
   <text y="568.614" x="515.293,522.187,524.239,526.084,532.753,536.578,541.546,546.01,549.961" svgx:width="0.77,0.23,0.23,0.74,0.43,0.55,0.5,0.44,0.52" style="fill:rgb(0,0,0);font-family:MinionPro-Regular;font-size:9.0px;stroke:none;">H, Denka–</text>
   <text y="578.613" x="155.635,159.901" svgx:width="0.47,0.75" style="fill:rgb(0,0,0);font-family:MinionPro-Regular;font-size:9.0px;stroke:none;">SO</text>
   <text y="580.414" x="166.627" svgx:width="0.48" style="fill:rgb(0,0,0);font-family:MinionPro-Regular;font-size:5.85px;stroke:none;">3</text>
   <text y="578.614" x="169.435,176.329,178.381,180.217,186.202,192.889,197.938,202.618,206.884" svgx:width="0.77,0.23,0.23,0.67,0.74,0.62,0.52,0.47,0.75" style="fill:rgb(0,0,0);font-family:MinionPro-Regular;font-size:9.0px;stroke:none;">H, CNT–SO</text>
   <text y="580.414" x="213.609" svgx:width="0.48" style="fill:rgb(0,0,0);font-family:MinionPro-Regular;font-size:5.85px;stroke:none;">3</text>
   <text y="578.614" x="216.417,223.311,225.363,227.199,231.069,235.956,240.708,242.544,248.538,254.973,260.958,265.539,270.219,274.485" svgx:width="0.77,0.23,0.23,0.44,0.55,0.53,0.23,0.7,0.71,0.67,0.53,0.52,0.47,0.75" style="fill:rgb(0,0,0);font-family:MinionPro-Regular;font-size:9.0px;stroke:none;">H, and VGCF–SO</text>
   <text y="580.414" x="281.213" svgx:width="0.48" style="fill:rgb(0,0,0);font-family:MinionPro-Regular;font-size:5.85px;stroke:none;">3</text>
   <text y="578.614" x="284.021,290.915" svgx:width="0.77,0.23" style="fill:rgb(0,0,0);font-family:MinionPro-Regular;font-size:9.0px;stroke:none;">H.</text>
   <text y="596.662" x="155.638,160.878,166.052,171.652,175.175,177.687,182.127,187.301,191.121,193.633,199.197,204.771,206.756,212.32,215.63,217.615,221.88,227.034,229.584,232.697,236.049,240.319,244.139,249.312,254.886,260.489,263.002,268.576,274.101,276.085,281.775,284.325,292.875,297.145,300.095" svgx:width="0.52,0.51,0.56,0.35,0.25,0.44,0.51,0.38,0.25,0.55,0.56,0.21,0.55,0.33,0.21,0.42,0.51,0.25,0.33,0.33,0.42,0.38,0.51,0.56,0.56,0.25,0.56,0.55,0.21,0.57,0.25,0.85,0.42,0.29,0.21" style="fill:rgb(0,0,0);font-family:Corbel-Bold;font-size:10.0px;stroke:none;">Fabrication of self-standing films. </text>
   <text y="596.662" x="310.11,314.529,318.309,323.106,326.958,334.32,338.172" svgx:width="0.47,0.42,0.53,0.43,0.82,0.43,0.23" style="fill:rgb(0,0,0);font-family:MinionPro-Regular;font-size:9.0px;stroke:none;">Scheme </text>
   <text y="596.662" x="340.134" svgx:width="0.48" style="fill:rgb(0,0,255);font-family:MinionPro-Regular;font-size:9.0px;stroke:none;">2</text>
   <text y="596.662" x="344.481,346.452,349.746,354.542,359.015,365.207,368.537,370.508,373.334,378.13,381.982,383.953,388.867,392.791,398.983,400.954,408.316,412.168,414.993,419.79,424.488,429.267,431.238,435.747,438.438,440.409,445.332,447.771,451.002,453.441,457.95,462.9,464.871,468.686,470.99,474.886,478.783,481.6,484.848,489.546,494.325,498.177,500.148,502.839,506.745,511.236,514.655,517.094,520.955,524.761,527.578,530.017,534.525,539.475,541.554,543.525,549.744,554.667" svgx:width="0.23,0.37,0.53,0.51,0.69,0.37,0.23,0.31,0.53,0.43,0.23,0.55,0.43,0.69,0.23,0.82,0.43,0.31,0.53,0.51,0.53,0.23,0.51,0.3,0.23,0.54,0.27,0.36,0.27,0.51,0.55,0.23,0.43,0.25,0.43,0.42,0.31,0.37,0.51,0.53,0.43,0.23,0.3,0.44,0.51,0.37,0.27,0.42,0.44,0.31,0.27,0.51,0.55,0.23,0.23,0.69,0.55,0.23" style="fill:rgb(0,0,0);font-family:MinionPro-Regular;font-size:9.0px;stroke:none;"> shows the new method of Li-ion electrode fabrication. An </text>
   <text y="606.661" x="155.634,159.603,164.373,168.261,172.788,177.613,181.412,184.122,187.965,189.927,194.041,198.587,200.775,205.572,212.925,216.768,218.73,223.231,225.913,227.875,230.692,235.481,239.324,241.286,245.255,249.783,254.58,258.469,262.978,267.748,271.069,273.031,276.424,280.97,283.158,287.848,290.657,293.087,297.588,302.529,304.491,307.309,312.107,315.906,318.669,320.631,324.456,328.956,333.727,336.544,340.433,342.863,347.733,351.054,353.016,356.841,360.649,362.989,365.177,370.02,372.315,376.923,380.316,384.159,386.121,390.919,395.591,399.434,402.738,406.059,408.021,411.153,415.491,416.634,420.864,422.826,427.605,432.915,435.912,440.772,443.904,445.866,448.27,451.591,453.553,458.224,460.546,464.515,468.34,472.229,476.999,478.961,481.391,486.332,488.294,492.263,494.225,498.897,502.795,506.81,511.211,515.054,518.628,520.698,522.66,525.451,529.6,534.227,536.657,540.51,544.524,546.865,549.098,552.591,554.642" svgx:width="0.44,0.53,0.43,0.51,0.53,0.44,0.31,0.43,0.23,0.46,0.51,0.25,0.53,0.82,0.43,0.23,0.51,0.3,0.23,0.31,0.53,0.43,0.23,0.44,0.51,0.53,0.43,0.51,0.53,0.37,0.23,0.37,0.51,0.25,0.53,0.31,0.27,0.51,0.55,0.23,0.31,0.53,0.44,0.31,0.23,0.42,0.51,0.55,0.31,0.44,0.27,0.55,0.37,0.23,0.42,0.43,0.25,0.25,0.53,0.25,0.51,0.37,0.43,0.23,0.54,0.51,0.43,0.37,0.37,0.23,0.35,0.48,0.23,0.47,0.23,0.53,0.59,0.33,0.54,0.35,0.23,0.27,0.37,0.23,0.52,0.25,0.44,0.42,0.43,0.53,0.23,0.27,0.55,0.23,0.44,0.23,0.51,0.43,0.44,0.5,0.43,0.37,0.23,0.23,0.31,0.46,0.52,0.27,0.42,0.44,0.25,0.25,0.46,0.23,0.23" style="fill:rgb(0,0,0);font-family:MinionPro-Regular;font-size:9.0px;stroke:none;">adequate volume of the aqueous solution that contains cellulose fibers (1 g FB/L) is placed in a beaker; typically, </text>
   <text y="616.66" x="155.634,159.693,161.925,166.131,170.77,173.051,177.938,185.385,189.318,191.55,194.46,199.352,203.244,206.097,208.329,212.244,216.837,220.342,223.676,227.609,230.979,235.888,240.482,245.481,250.318,253.729,255.961,258.765,263.463,265.695,270.123,274.551,275.82,283.23,287.55,289.782,294.376,297.148,299.38,304.249,309.649,311.881,314.378,317.789,320.021,323.954,331.267,336.031,338.416,342.975,347.146,351.127,355.938,358.098,360.33,370.045,373.978,377.313,381.303,385.285,390.581,394.514,397.398,399.558,401.79,406.218,410.646,411.918,419.328,423.648,425.88,430.474,433.246,435.478,441.583,448.126,454.219,458.102,460.262,462.494,468.6,475.143,481.236,485.928,490.716,495.09" svgx:width="0.44,0.23,0.46,0.51,0.25,0.53,0.82,0.43,0.23,0.31,0.53,0.44,0.31,0.23,0.42,0.51,0.37,0.37,0.43,0.37,0.52,0.51,0.55,0.53,0.37,0.23,0.31,0.51,0.23,0.48,0.48,0.23,0.82,0.47,0.23,0.51,0.3,0.23,0.53,0.59,0.23,0.27,0.37,0.23,0.43,0.82,0.52,0.25,0.51,0.46,0.43,0.53,0.23,0.23,1.07,0.43,0.37,0.43,0.44,0.58,0.43,0.37,0.23,0.23,0.48,0.48,0.23,0.82,0.47,0.23,0.51,0.3,0.23,0.7,0.71,0.67,0.53,0.23,0.23,0.7,0.71,0.67,0.53,0.52,0.47,0.75" style="fill:rgb(0,0,0);font-family:MinionPro-Regular;font-size:9.0px;stroke:none;">a volume that corresponds to 30 mg of FB is employed. Thereafter, 10 mg of VGCF, VGCF–SO</text>
   <text y="618.462" x="501.96" svgx:width="0.48" style="fill:rgb(0,0,0);font-family:MinionPro-Regular;font-size:5.85px;stroke:none;">3</text>
   <text y="616.662" x="504.841,511.843,514.003,516.235,520.828,524.275,526.507,532.613,539.156,545.249,549.942" svgx:width="0.77,0.23,0.23,0.51,0.37,0.23,0.7,0.71,0.67,0.53,0.52" style="fill:rgb(0,0,0);font-family:MinionPro-Regular;font-size:9.0px;stroke:none;">H, or VGCF–</text>
   <text y="626.661" x="155.641,161.715,168.627,175.295,182.216,184.187,186.598,189.928,191.895,196.674,199.085,202.37,207.193,211.045,214.356,217.757,221.654,226.433,228.404,230.843,235.621,238.339,242.956,244.927,247.752,252.548,256.4,258.367,261.769,266.322,268.517,273.215,276.031,278.47,282.978,287.928,290.007,291.978,301.607,305.531,309.689,311.66,315.556,318.805,322.657,324.628,328.65,330.999,333.302,335.273,338.558,341.375,343.814,347.233,350.482,354.378,359.157,361.128,365.906,369.236,371.675,376.552,380.791,382.762,386.659,391.609,393.58,398.43,400.625,403.442,406.808,410.758,414.159,418.668,423.618,426.057,429.891,431.858,435.107,439.804,444.528,446.607,448.574,458.204,462.056,464.027,471.388,476.085,480.864,483.303,488.145,492.041,496.82,498.791,504.811,511.273,517.285,522.073,524.044,528.867,533.339,539.459,544.238,548.09,551.401,554.704" svgx:width="0.67,0.75,0.75,0.77,0.23,0.27,0.37,0.23,0.53,0.27,0.37,0.52,0.43,0.37,0.37,0.43,0.53,0.23,0.27,0.55,0.31,0.51,0.23,0.31,0.53,0.43,0.23,0.37,0.51,0.25,0.53,0.31,0.27,0.51,0.55,0.23,0.23,1.07,0.43,0.46,0.23,0.44,0.37,0.43,0.23,0.44,0.25,0.25,0.23,0.37,0.31,0.27,0.37,0.37,0.43,0.53,0.23,0.53,0.37,0.27,0.55,0.47,0.23,0.44,0.55,0.23,0.53,0.25,0.31,0.37,0.44,0.37,0.51,0.55,0.27,0.42,0.23,0.37,0.51,0.53,0.23,0.23,1.07,0.43,0.23,0.82,0.51,0.53,0.27,0.54,0.43,0.53,0.23,0.7,0.71,0.67,0.53,0.23,0.52,0.51,0.69,0.53,0.43,0.37,0.37,0.23" style="fill:rgb(0,0,0);font-family:MinionPro-Regular;font-size:9.0px;stroke:none;">COOH is dispersed into the solution. They are all stirred using an ultrasonic rod. The modified VGCF powders </text>
   <text y="636.66" x="155.641,159.534,162.78,166.627,168.589,171.028,175.902,179.183,182.005,185.899,190.673,193.496,195.733,199.887,201.849,205.247,209.797,211.989,216.755,221.243,223.722,226.026,228.465,232.268,236.161,240.94,242.902,245.341,250.291,252.253,258.441,262.244,264.958,268.806,271.601,273.68,275.642,281.894,286.686,290.538,293.784,297.685,301.632,304.958,306.92,310.722,313.494,315.456,317.756,321.658,325.606,328.886,331.658,333.62,337.967,342.292,343.444,350.837,353.276,358.226,360.188,362.597,365.922,367.884,372.795,376.687,380.521,384.373,387.654,391.034,394.927,398.55,402.708,404.67,407.384,411.997,413.959,418.738,421.146,424.428,429.247,433.095,436.403,439.801,443.649,445.611,448.433,453.227,457.074,459.036,462.87,467.376,474.769,482.128,485.975,489.22,493.054,495.516,499.535,501.835,503.797,509.814,516.276,522.284,526.078,528.157,530.119,536.334,541.541,545.393,548.755,550.716,554.668" svgx:width="0.44,0.37,0.43,0.23,0.27,0.55,0.37,0.31,0.44,0.55,0.31,0.25,0.46,0.23,0.37,0.51,0.25,0.53,0.51,0.27,0.25,0.27,0.42,0.43,0.53,0.23,0.27,0.55,0.23,0.69,0.44,0.31,0.43,0.37,0.23,0.23,0.69,0.53,0.43,0.37,0.43,0.44,0.37,0.23,0.44,0.31,0.23,0.25,0.43,0.44,0.37,0.31,0.23,0.48,0.48,0.23,0.82,0.27,0.55,0.23,0.27,0.37,0.23,0.55,0.43,0.42,0.43,0.37,0.37,0.44,0.37,0.46,0.23,0.31,0.51,0.23,0.53,0.27,0.37,0.52,0.43,0.37,0.37,0.43,0.23,0.31,0.53,0.43,0.23,0.42,0.51,0.82,0.82,0.43,0.37,0.42,0.27,0.44,0.25,0.23,0.7,0.71,0.67,0.53,0.23,0.23,0.69,0.58,0.43,0.37,0.23,0.44,0.23" style="fill:rgb(0,0,0);font-family:MinionPro-Regular;font-size:9.0px;stroke:none;">are instantly solubilized in water, whereas at least 10 min is necessary to disperse the commercial VGCF. After a </text>
   <text y="646.659" x="155.65,160.477,165.017,172.41,177.054,181.251,185.13,190.075,194.002,198.551,203.361,206.718,208.761,212.193,216.777,219.003,223.732,226.58,229.046,233.585,238.562,240.605,243.048,246.405,248.448,253.05,257.581,260.438,264.365,266.831,271.776,275.703,280.459,282.565,284.608,287.465,292.292,296.171,298.214,302.075,306.615,311.424,314.173,318.052,322.862,325.661,327.704,330.146,333.503,335.546,339.767,343.772,347.7,352.428,357.261,364.686,367.944,372.862,375.089,377.837,381.716,384.997,388.923,393.729,395.772,400.312,405.289,407.332,411.337,413.38,417.754,422.128,425.386,432.811,440.236,442.279,447.085,449.582,453.509,460.901,464.78,467.528,471.407,474.8,476.843,480.2,482.666,486.5,490.379,492.422,497.196,501.448,503.779,508.317,513.294,515.337,522.73,526.609,533.948,538.468,541.861,545.789,550.733,554.558" svgx:width="0.53,0.51,0.82,0.51,0.47,0.43,0.55,0.43,0.51,0.53,0.37,0.23,0.37,0.51,0.25,0.53,0.31,0.27,0.51,0.55,0.23,0.27,0.37,0.23,0.51,0.51,0.31,0.44,0.27,0.55,0.43,0.53,0.23,0.23,0.31,0.53,0.43,0.23,0.42,0.51,0.55,0.31,0.43,0.55,0.31,0.23,0.27,0.37,0.23,0.46,0.44,0.42,0.53,0.53,0.82,0.36,0.54,0.25,0.31,0.43,0.37,0.43,0.53,0.23,0.51,0.55,0.23,0.44,0.23,0.48,0.48,0.36,0.82,0.82,0.23,0.53,0.27,0.44,0.82,0.43,0.31,0.43,0.37,0.23,0.37,0.27,0.42,0.43,0.23,0.55,0.46,0.25,0.51,0.55,0.23,0.82,0.43,0.82,0.51,0.37,0.44,0.55,0.43,0.23" style="fill:rgb(0,0,0);font-family:MinionPro-Regular;font-size:9.0px;stroke:none;">homogeneous solution is obtained, the content is vacuum-filtered on a 47-mm diameter size nylon membrane </text>
   <text y="656.658" x="155.65,161.8,164.063,166.821,171.582,173.274,177.18,178.872,183.147,185.154,189.429,193.704" svgx:width="0.69,0.27,0.31,0.53,0.23,0.44,0.23,0.48,0.23,0.48,0.48,0.36" style="fill:rgb(0,0,0);font-family:MinionPro-Regular;font-size:9.0px;stroke:none;">with a 0.22-</text>
   <text y="656.658" x="196.863" svgx:width="0.52" style="fill:rgb(0,0,0);font-family:EuclidSymbol;font-size:9.0px;stroke:none;">μ</text>
   <text y="656.658" x="201.505,208.831,210.523,215.278,219.72,222.9,226.68,228.372,231.022,235.567,237.259,239.801,244.241,247.593,254.919,256.611,259.368,264.097,267.877,269.569,273.362,277.191,280.485,285.097,289.537,294.415,296.107,299.936,304.67,308.021,311.202,314.982,319.693,322.393,324.085,327.847,332.332,334.613,336.845,340.674,344.502,347.152,351.592,355.106,357.113,358.805,362.711,364.403,367.134,371.22,375.786,378.153,381.945,385.899,388.131,389.823,393.616,397.445,400.739,405.35,409.791,414.669,416.361,420.189,424.923,428.275,431.456,435.236,439.946,442.646,444.338,448.1,452.586,454.866,457.098,460.927,464.756,467.405,471.847,475.141,476.833,479.176,482.434,484.126,487.352,492.081,496.485,502.636,507.514,509.206,511.573,516.451,518.143,522.859,525.226,529.424,531.431" svgx:width="0.82,0.23,0.52,0.51,0.37,0.43,0.23,0.31,0.51,0.23,0.3,0.51,0.37,0.82,0.23,0.31,0.53,0.43,0.23,0.42,0.44,0.37,0.51,0.51,0.55,0.23,0.42,0.53,0.37,0.37,0.43,0.55,0.31,0.23,0.42,0.51,0.25,0.25,0.43,0.42,0.31,0.51,0.37,0.23,0.23,0.44,0.23,0.31,0.46,0.52,0.27,0.42,0.44,0.25,0.23,0.42,0.44,0.37,0.51,0.51,0.55,0.23,0.42,0.53,0.37,0.37,0.43,0.55,0.31,0.23,0.42,0.51,0.25,0.25,0.43,0.42,0.31,0.51,0.37,0.23,0.27,0.37,0.23,0.37,0.53,0.51,0.69,0.55,0.23,0.27,0.55,0.23,0.53,0.27,0.47,0.23,0.23" style="fill:rgb(0,0,0);font-family:MinionPro-Regular;font-size:9.0px;stroke:none;">m pore to form the carbon current collector; a typical carbon current collector is shown in Fig. </text>
   <text y="656.658" x="533.272" svgx:width="0.48" style="fill:rgb(0,0,255);font-family:MinionPro-Regular;font-size:9.0px;stroke:none;">1</text>
   <text y="656.658" x="537.547,539.557,541.249,550.807,554.632" svgx:width="0.23,0.23,1.07,0.43,0.23" style="fill:rgb(0,0,0);font-family:MinionPro-Regular;font-size:9.0px;stroke:none;">. The </text>
   <text y="666.657" x="155.641,160.47,162.72,170.064,171.774,177.972,182.712,186.51,189.702,193.5,195.21,199.134,200.844,208.158,212.052,215.279,218.555,220.265,224.717,227.354,229.064,232.823,235.073,238.912,242.753,245.512,248.704,253.345,258.07,261.868,263.578,267.502,271.342,274.102,276.421,280.485,284.283,285.993,293.308,297.057,299.718,303.516,306.88,309.288,313.253,315.503,317.213,320.3,325.115,329.849,333.635,335.66,337.37,342.41,347.861,353.819,360.08,366.272,368.297,370.007,374.234,377.546,381.296,385.919,390.698,392.971,395.632,399.373,401.398,403.108,407.559,410.871,412.577,416.813,422.263,428.959,432.046,433.756,436.141,441.037,442.747,445.517,450.256,454.054,455.764,459.076,462.915,467.737,471.846,475.644,477.354,481.647,485.94,490.593,494.886,499.179,500.098,507.367,511.552,513.262,515.617,518.893,520.603,525.328,527.683,530.91,535.677,539.475,542.729,546.074,549.914,554.666" svgx:width="0.54,0.25,0.82,0.23,0.69,0.53,0.43,0.37,0.43,0.23,0.44,0.23,0.82,0.44,0.37,0.37,0.23,0.51,0.3,0.23,0.43,0.25,0.43,0.42,0.31,0.37,0.51,0.53,0.43,0.23,0.44,0.42,0.31,0.27,0.46,0.43,0.23,0.82,0.44,0.31,0.43,0.37,0.27,0.44,0.25,0.23,0.35,0.54,0.53,0.56,0.23,0.23,0.56,0.62,0.67,0.74,0.69,0.23,0.23,0.47,0.37,0.44,0.52,0.53,0.27,0.31,0.43,0.23,0.23,0.51,0.37,0.23,0.54,0.62,0.75,0.35,0.23,0.27,0.55,0.23,0.31,0.53,0.43,0.23,0.37,0.44,0.55,0.47,0.43,0.23,0.48,0.48,0.52,0.48,0.48,0.23,0.82,0.47,0.23,0.27,0.37,0.23,0.53,0.27,0.37,0.52,0.43,0.37,0.37,0.43,0.53,0.23" style="fill:rgb(0,0,0);font-family:MinionPro-Regular;font-size:9.0px;stroke:none;">film where a mass of electrode active material (LFP, PTCDA, graphite, or LTO) in the range 40–70 mg is dispersed </text>
   <text y="676.656" x="155.641,158.062,162.994,164.938,169.699,173.533,175.954,180.442,185.374,187.795,191.584,195.46,200.221,202.165,208.339,212.125,214.821,218.655,222.003,223.947,226.338,229.65,231.594,235.595,237.922,240.208,244.66,250.758,254.634,259.395,261.339,264.035,268.634,270.578,275.339,278.944,283.084,285.028,287.617,292.105,295.453,297.397,301.726,306.055,307.138,314.518,316.939,321.871,323.932,325.876,335.524,337.915,341.227,343.171,345.562,348.874,350.818,353.408,357.94,360.268,362.554,367.005,373.104,376.98,381.741,383.685,388.119,392.259,394.203,397.007,401.783,405.617,407.561,411.521,416.282,421.043,423.353,426.148,428.569,433.057,437.989,439.933,444.42,447.093,449.037,453.366,457.695,458.779,466.083,470.304,472.248,476.736,479.409,481.353,485.192,489.067,492.415,497.074,501.562,506.494,508.555,510.499,516.733,521.548,523.969,527.727,532.542,534.486,538.302,542.798,547.628,549.914,554.666" svgx:width="0.27,0.55,0.23,0.53,0.43,0.27,0.51,0.55,0.27,0.42,0.43,0.53,0.23,0.69,0.44,0.31,0.43,0.37,0.23,0.27,0.37,0.23,0.44,0.25,0.25,0.51,0.69,0.43,0.53,0.23,0.31,0.51,0.23,0.53,0.37,0.46,0.23,0.3,0.51,0.37,0.23,0.48,0.48,0.23,0.82,0.27,0.55,0.23,0.23,1.07,0.27,0.37,0.23,0.27,0.37,0.23,0.3,0.51,0.25,0.25,0.51,0.69,0.43,0.53,0.23,0.51,0.46,0.23,0.31,0.53,0.43,0.23,0.44,0.53,0.53,0.27,0.31,0.27,0.51,0.55,0.23,0.51,0.3,0.23,0.48,0.48,0.23,0.82,0.47,0.23,0.51,0.3,0.23,0.42,0.44,0.37,0.51,0.51,0.55,0.23,0.23,0.69,0.53,0.27,0.42,0.53,0.23,0.42,0.51,0.53,0.25,0.53,0.23" style="fill:rgb(0,0,0);font-family:MinionPro-Regular;font-size:9.0px;stroke:none;">in deionized water is allowed to dry for 10 min. This is followed by the addition of 10 mg of carbon, which could </text>
   <text y="686.655" x="155.641,160.346,164.225,166.245,173.633,178.356,183.162,185.628,190.497,194.419,199.225,201.25,205.783,209.176,211.197,216.03,221.007,228.393,233.116,237.922,240.388,245.257,249.18,253.986,256.006,262.051,268.54,274.579,278.403,280.509,282.529,289.249,293.128,298.149,302.667,306.672,308.778,310.798,316.837,323.578,328.291,330.397,332.418,336.952,340.345,342.366,346.371,348.391,355.816,358.282,362.584,365.29,370.123,373.398,377.277,379.297,383.831,386.548,388.569,391.42,396.242,400.121,403.549,407.428,409.448,412.299,417.159,420.433,424.356,428.179,430.285,432.305,435.282,440.259,442.279,446.327,448.701,451.032,453.052,456.938,460.915,464.341,468.22,471.577,473.683,475.703,478.554,483.376,487.255,489.275,496.663,501.385,506.191,508.657,513.526,517.447,522.253,524.274,529.17,533.985,539.106,541.126,545.048,549.988,554.74" svgx:width="0.51,0.43,0.23,0.82,0.51,0.53,0.27,0.54,0.43,0.53,0.23,0.51,0.37,0.23,0.53,0.55,0.82,0.51,0.53,0.27,0.54,0.43,0.53,0.23,0.7,0.71,0.67,0.53,0.23,0.23,0.74,0.43,0.55,0.5,0.44,0.23,0.23,0.67,0.74,0.62,0.23,0.23,0.51,0.37,0.23,0.44,0.23,0.82,0.27,0.47,0.31,0.53,0.37,0.43,0.23,0.51,0.3,0.23,0.31,0.53,0.43,0.37,0.43,0.23,0.31,0.53,0.37,0.43,0.43,0.23,0.23,0.34,0.55,0.23,0.44,0.25,0.25,0.23,0.42,0.44,0.37,0.43,0.37,0.23,0.23,0.31,0.53,0.43,0.23,0.82,0.51,0.53,0.27,0.54,0.43,0.53,0.23,0.54,0.53,0.56,0.23,0.44,0.55,0.53,0.23" style="fill:rgb(0,0,0);font-family:MinionPro-Regular;font-size:9.0px;stroke:none;">be modified or unmodified VGCF, Denka, CNT, or a mixture of these three. In all cases, the modified LFP and </text>
   <text y="696.654" x="155.641,159.469,163.332,166.662,171.308,175.784,180.628,183.922,185.65,189.514,192.73,196.546,198.274,202.146,206.063,209.357,211.808,214.016,218.138,219.866,223.729,228.61,233.353,235.081,242.41,246.885,250.101,253.917,255.645,258.975,262.749,267.351,269.754,274.544,276.752,280.874,282.602,287.345,289.724,292.975,297.766,301.582,304.861,308.229,312.092,316.835,318.563,320.966,325.88,327.608,333.764,337.538,340.223,344.039,346.804,348.847,350.575,353.368,357.997,362.743,366.037,367.765,370.033,373.904,377.846,382.589,384.992,389.837,394.04,395.768,398.453,403.034,404.762,408.704,410.432,415.078,418.894,421.543,424.228,428.044,431.374,433.102,437.955,440.223,447.585,449.313,453.086,457.697,462.488,466.36,470.224,473.554,477.418,482.298,486.096,489.861,491.904,493.632,499.818,504.996,508.812,512.142,513.87,521.232,523.635,527.874,530.277,535.121,539.354,541.397,543.125,545.918,550.682,554.507" svgx:width="0.42,0.44,0.37,0.51,0.51,0.55,0.37,0.23,0.44,0.37,0.43,0.23,0.43,0.44,0.37,0.27,0.25,0.46,0.23,0.44,0.55,0.53,0.23,0.82,0.51,0.37,0.43,0.23,0.37,0.44,0.52,0.27,0.53,0.25,0.46,0.23,0.53,0.27,0.37,0.52,0.43,0.37,0.37,0.43,0.53,0.23,0.27,0.55,0.23,0.69,0.44,0.31,0.43,0.37,0.23,0.23,0.31,0.53,0.53,0.37,0.23,0.25,0.43,0.44,0.53,0.27,0.55,0.47,0.23,0.31,0.51,0.23,0.44,0.23,0.51,0.43,0.31,0.31,0.43,0.37,0.23,0.54,0.25,0.82,0.23,0.44,0.52,0.52,0.43,0.44,0.37,0.44,0.55,0.42,0.43,0.23,0.23,0.69,0.58,0.43,0.37,0.23,0.82,0.27,0.47,0.27,0.55,0.47,0.23,0.23,0.31,0.53,0.43,0.23" style="fill:rgb(0,0,0);font-family:MinionPro-Regular;font-size:9.0px;stroke:none;">carbons are easily and more rapidly dispersed in water, thus leading to a better film appearance. After mixing, the </text>
   <text y="706.653" x="155.641,159.016,163.543,165.712,170.383,173.173,175.585,180.067,184.99,186.763,189.148,192.451,194.224,198.364,202.189,206.941,209.74,211.954,216.085,217.858,222.655,227.146,231.925,235.147,239.017,243.769,245.542,250.024,254.947,256.72,259.519,264.288,268.113,269.886,273.81,277.113,280.317,284.925,288.147,291.972,296.732,300.602,303.824,307.694,312.446,314.219,318.053,321.923,325.262,329.915,334.397,339.32,341.093,344.963,349.742,353.135,356.357,360.182,364.934,367.679,369.452,373.259,377.786,380.108,382.385,386.255,390.124,392.815,397.297,400.636,402.409,405.1,409.69,411.463,414.046,418.528,421.921,429.292,431.065,433.864,438.634,442.459,444.232,448.021,450.298,454.168,458.037,460.827,464.049,468.72,473.472,477.243,479.295,481.068,490.671,494.496,496.269,501.128,503.405,510.776,512.549,514.934,518.237,520.01,524.807,528.677,532.466,534.742,538.612,543.365,545.138,549.62,553.783" svgx:width="0.37,0.51,0.25,0.53,0.31,0.27,0.51,0.55,0.23,0.27,0.37,0.23,0.47,0.43,0.55,0.31,0.25,0.46,0.23,0.52,0.51,0.53,0.37,0.43,0.53,0.23,0.51,0.55,0.23,0.31,0.53,0.43,0.23,0.44,0.37,0.36,0.52,0.37,0.43,0.52,0.44,0.37,0.43,0.53,0.23,0.42,0.44,0.37,0.51,0.51,0.55,0.23,0.42,0.53,0.37,0.37,0.43,0.55,0.31,0.23,0.42,0.51,0.25,0.25,0.43,0.42,0.31,0.51,0.37,0.23,0.31,0.51,0.23,0.3,0.51,0.37,0.82,0.23,0.31,0.53,0.43,0.23,0.43,0.25,0.43,0.42,0.31,0.37,0.51,0.53,0.43,0.23,0.23,1.07,0.43,0.23,0.54,0.25,0.82,0.23,0.27,0.37,0.23,0.52,0.43,0.43,0.25,0.43,0.53,0.23,0.51,0.56,0.23" style="fill:rgb(0,0,0);font-family:MinionPro-Regular;font-size:9.0px;stroke:none;">solution is gently poured on the as-prepared carbon current collector to form the electrode. The film is peeled off </text>
   <text y="716.652" x="155.641,158.44,163.21,167.035,168.835,173.695,175.864,178.554,182.379,185.718,187.518,190.209,194.799,196.599,201.144,205.617,208.416,212.286,214.698,219.621,221.421,224.22,228.99,232.815,234.615,237.99,241.779,244.056,246.72,249.924,253.181,255.98,259.85,264.737,269.489,271.901,276.752,280.964,282.764,287.66,290.072,293.276,295.688,300.17,305.093,306.893,310.682,312.959,316.828,320.698,323.488,326.71,331.381,336.133,339.904,341.956,343.756,353.359,357.184,358.98,362.769,365.046,368.916,372.786,375.576,378.798,383.469,388.221,392.046,393.841,396.226,399.529,401.329,404.128,408.898,412.723,415.945,419.824,423.694,428.878,432.703,436.042,437.842,441.675,445.671,447.948,451.773,456.66,461.412,465.237,468.459,472.329,477.081,478.881,482.661,485.406,487.206,490.428,495.098,499.581,506.952,508.752,511.443,515.268,522.468,527.265,531.09,534.429,538.21,540.864,545.643,548.865,552.636,554.688" svgx:width="0.31,0.53,0.43,0.23,0.54,0.25,0.31,0.43,0.37,0.23,0.31,0.51,0.23,0.51,0.51,0.31,0.44,0.27,0.55,0.23,0.31,0.53,0.43,0.23,0.37,0.43,0.25,0.3,0.36,0.37,0.31,0.44,0.55,0.53,0.27,0.55,0.47,0.23,0.54,0.27,0.36,0.27,0.51,0.55,0.23,0.43,0.25,0.43,0.42,0.31,0.37,0.51,0.53,0.43,0.23,0.23,1.07,0.43,0.23,0.43,0.25,0.43,0.42,0.31,0.37,0.51,0.53,0.43,0.23,0.27,0.37,0.23,0.31,0.53,0.43,0.37,0.43,0.44,0.58,0.43,0.37,0.23,0.42,0.44,0.25,0.43,0.55,0.53,0.43,0.37,0.43,0.53,0.23,0.44,0.31,0.23,0.37,0.51,0.51,0.82,0.23,0.31,0.43,0.82,0.52,0.43,0.37,0.44,0.31,0.53,0.37,0.43,0.23,0.23" style="fill:rgb(0,0,0);font-family:MinionPro-Regular;font-size:9.0px;stroke:none;">the filter to obtain the self-standing Li-ion electrode. The electrode is thereafter calendered at room temperature, </text>
   <text y="726.651" x="155.641,158.032,160.12,163.924,166.012,168.1,170.071,174.427,178.783,180.754,185.271,188.646,190.617,194.973,199.329,200.479,203.602,209.623,211.711,213.682,223.318,227.179,229.15,233.792,237.048,241.752,246.43,251.245,255.088,258.992,263.78,265.751,270.645,272.958,280.365,282.336,284.755,288.094,290.065,294.751,297.088,301.075,304.918,308.822,313.61,315.581,318.029,322.988,324.959,328.946,330.917,335.12,339.107,343.01,347.714,352.529,359.936,361.907,366.388,370.516,374.377,379.336,381.307,385.21,390.131,394.919,396.89,401.694,405.606,409.42,412.144,416.048,420.836,422.807,426.62,429.401,431.372,435.728,440.084,444.44,445.576,448.699,454.72,456.691,459.308,463.823,467.198,469.169,472.984,475.765,477.736,480.049,483.961,487.919,491.21,493.991,495.962,500.318,502.289,507.103,510.925,515.092,517.063,521.75,525.611,528.227,532.744,535.999,539.86,541.831,544.169,546.95,548.921,551.339,554.642" svgx:width="0.27,0.23,0.43,0.23,0.23,0.23,0.48,0.48,0.23,0.51,0.37,0.23,0.48,0.48,0.23,0.34,0.67,0.23,0.23,1.07,0.43,0.23,0.52,0.37,0.51,0.53,0.53,0.42,0.43,0.53,0.23,0.54,0.25,0.82,0.23,0.27,0.37,0.23,0.52,0.25,0.44,0.42,0.43,0.53,0.23,0.27,0.55,0.23,0.44,0.23,0.46,0.44,0.42,0.53,0.53,0.82,0.23,0.51,0.46,0.43,0.55,0.23,0.44,0.55,0.53,0.23,0.53,0.43,0.44,0.31,0.43,0.53,0.23,0.44,0.31,0.23,0.48,0.48,0.48,0.23,0.34,0.67,0.23,0.3,0.51,0.37,0.23,0.44,0.31,0.23,0.25,0.43,0.44,0.37,0.31,0.23,0.48,0.23,0.53,0.44,0.46,0.23,0.51,0.43,0.3,0.51,0.37,0.43,0.23,0.27,0.31,0.23,0.27,0.37,0.23" style="fill:rgb(0,0,0);font-family:MinionPro-Regular;font-size:9.0px;stroke:none;">i.e., 50 or 80 °C. The produced film is placed in a vacuum oven and heated at 130 °C for at least 1 day before it is </text>
   <text y="736.65" x="155.641,160.312,163.102,165.559,167.836,170.248,174.028,177.897,182.649,184.485,186.897,191.82,193.656,196.455,201.225,205.05,206.886,211.503,215.283,217.938,220.629,224.454,228.054,231.528,233.58,235.416,240.177,242.589,246.801,251.58,254.801,258.626" svgx:width="0.53,0.31,0.27,0.25,0.27,0.42,0.43,0.53,0.23,0.27,0.55,0.23,0.31,0.53,0.43,0.23,0.51,0.44,0.31,0.31,0.43,0.37,0.46,0.23,0.23,0.53,0.27,0.47,0.53,0.37,0.43,0.23" style="fill:rgb(0,0,0);font-family:MinionPro-Regular;font-size:9.0px;stroke:none;">utilized in the battery. Figure </text>
   <text y="736.65" x="260.473" svgx:width="0.48" style="fill:rgb(0,0,255);font-family:MinionPro-Regular;font-size:9.0px;stroke:none;">2</text>
   <text y="736.65" x="264.793,266.629,269.896,274.666,279.112,285.277,288.58,290.416,294.286,299.209,301.045,305.887,310.648,315.715,317.551,321.34,323.617,327.487,331.356,334.146,337.368,342.039,346.791,350.616,352.452,359.796,363.747,368.499,372.324,374.16,378.111,381.918,385.725,390.207,393.429,398.181,400.593,405.444,409.656,411.492,414.183,418.773,420.609,423.408,428.178,432.003,433.839,438.726,442.623,448.788,450.624,453.288,457.167,461.631,465.023,467.435,471.269,475.049,477.839,480.251,484.733,489.656,491.492,498.827,502.652,505.45,510.22,514.891,519.589" svgx:width="0.23,0.37,0.53,0.51,0.69,0.37,0.23,0.44,0.55,0.23,0.54,0.53,0.56,0.23,0.43,0.25,0.43,0.42,0.31,0.37,0.51,0.53,0.43,0.23,0.82,0.44,0.53,0.43,0.23,0.44,0.42,0.42,0.51,0.37,0.53,0.27,0.55,0.47,0.23,0.31,0.51,0.23,0.31,0.53,0.43,0.23,0.55,0.43,0.69,0.23,0.3,0.44,0.51,0.37,0.27,0.42,0.44,0.31,0.27,0.51,0.55,0.23,0.82,0.43,0.31,0.53,0.51,0.53,0.23" style="fill:rgb(0,0,0);font-family:MinionPro-Regular;font-size:9.0px;stroke:none;"> shows an LFP electrode made according to the new fabrication method.</text>
  </g>
  <rect style="stroke:blue;stroke-width:0.3;" x="155.638" y="64.138" height="230.52" width="324.0" title="3"/>
  <text y="64.138" class="image" id="image.3.1" width="324" height="230" x="155.638">image.3.1.156_480.64_295</text>
  <path style="fill:none;stroke:rgb(206,221,228);stroke-width:0.3;" d="M159.130 305.560 L552.640 305.560 "/>
  <path style="fill:none;stroke:rgb(206,221,228);stroke-width:1.0;" d="M156.140 305.560 L156.140 305.560 M554.140 305.560 L554.140 305.560 "/>
  <g begin="text">
   <text y="295.563" x="155.638,160.291,164.089,169.039,172.927,180.514,184.447,186.202,190.702" svgx:width="0.5,0.42,0.55,0.44,0.84,0.44,0.22,0.5,0.25" style="fill:rgb(0,0,0);font-family:MinionPro-Bold;font-size:9.0px;stroke:none;">Scheme 1.</text>
   <text y="295.563" x="192.988,195.058,197.488,201.88,205.633,210.403,214.228,221.572,225.352,228.142,230.554,234.361,236.197,240.067,244.954,249.706,251.542,255.349,259.831,264.718,269.47,271.774,274.564,276.976,281.458,286.309,289.612,291.448,295.93,298.594,300.43,303.688,308.467,311.86,314.524,318.475,322.282,326.107,327.943,335.278,339.949,344.701,347.113,351.928,355.762,359.542,362.331,364.743,369.225,374.148,375.984,380.466,383.13,384.966,388.917,392.031,393.867,397.701,401.571,404.91,409.562,414.044,418.967,420.803,424.673,429.56,434.312,436.148,440.72,443.834,445.67,450.566,452.978,457.568,461.393,466.46" svgx:width="0.23,0.55,0.47,0.42,0.53,0.43,0.82,0.44,0.31,0.27,0.42,0.23,0.44,0.55,0.53,0.23,0.42,0.51,0.55,0.53,0.27,0.31,0.27,0.51,0.55,0.37,0.23,0.51,0.3,0.23,0.37,0.53,0.37,0.3,0.44,0.42,0.43,0.23,0.82,0.51,0.53,0.27,0.54,0.42,0.44,0.31,0.27,0.51,0.55,0.23,0.51,0.3,0.23,0.44,0.35,0.23,0.42,0.44,0.37,0.51,0.51,0.55,0.23,0.44,0.55,0.53,0.23,0.51,0.35,0.23,0.54,0.27,0.53,0.43,0.56,0.75" style="fill:rgb(0,0,0);font-family:MinionPro-Regular;font-size:9.0px;stroke:none;"> Schematic and conditions of surface modification of a) carbon and b) LiFePO</text>
   <text y="297.363" x="473.212" svgx:width="0.48" style="fill:rgb(0,0,0);font-family:MinionPro-Regular;font-size:5.85px;stroke:none;">4</text>
   <text y="295.563" x="476.02,478.999,484.984,486.82,491.616,496.062,502.155,506.907,510.732,514.017,517.32" svgx:width="0.33,0.67,0.23,0.52,0.51,0.69,0.53,0.43,0.37,0.37,0.23" style="fill:rgb(0,0,0);font-family:MinionPro-Regular;font-size:9.0px;stroke:none;">/C powders.</text>
  </g>
 </g>
</svg>
