<?xml version="1.0" encoding="UTF-8"?>
<svg height="774.244" width="4165.638" xmlns="http://www.w3.org/2000/svg">
 <g id="page" xmlns:svgx="http://www.xml-cml.org/schema/svgx">
  <g begin="text">
   <text y="764.23" x="544.032,549.532" svgx:width="0.45,0.51" style="fill:rgb(206,221,228);font-family:Corbel2;font-size:10.0px;stroke:none;">12</text>
   <text y="764.244" x="40.794,45.842,50.946,53.586,58.562,64.818,69.81,72.45,77.05,79.69" svgx:width="0.58,0.58,0.28,0.57,0.73,0.57,0.28,0.52,0.28,0.58" style="fill:rgb(0,0,0);font-family:Corbel-Bold2;font-size:8.0px;stroke:none;">Scientific</text>
   <text y="764.244" x="84.65" svgx:width="0.2" style="fill:rgb(0,0,0);font-family:Corbel2;font-size:8.0px;stroke:none;"> </text>
   <text y="764.244" x="86.25,91.706,96.682,101.922,108.226,113.682,118.674" svgx:width="0.63,0.57,0.6,0.73,0.63,0.57,0.58" style="fill:rgb(0,0,0);font-family:Corbel-Bold2;font-size:8.0px;stroke:none;">RepoRtS</text>
   <text y="764.244" x="123.57,125.01,126.826" svgx:width="0.2,0.23,0.2" style="fill:rgb(0,0,0);font-family:Corbel2;font-size:8.0px;stroke:none;"> | </text>
   <text y="764.244" x="128.266,129.722,131.178,132.634,134.09,135.546,137.002,138.458,139.914,142.186,146.122,150.058,153.994,157.93,160.202,161.658,165.594,169.53,171.218,175.154,179.09,183.026,186.962" svgx:width="0.18,0.18,0.18,0.18,0.18,0.18,0.18,0.18,0.28,0.49,0.49,0.49,0.49,0.28,0.18,0.49,0.49,0.21,0.49,0.49,0.49,0.49,0.18" style="fill:rgb(0,0,0);font-family:MyriadPro-It;font-size:8.0px;stroke:none;"> (2020) 10:3812 </text>
   <text y="764.244" x="188.418,189.858,191.674" svgx:width="0.2,0.23,0.2" style="fill:rgb(0,0,0);font-family:Corbel2;font-size:8.0px;stroke:none;"> | </text>
   <text y="764.244" x="193.114,197.37,200.146,202.922,207.17,210.402,212.514,214.714,216.914,221.202,225.466,227.322,229.434,233.698,236.378,240.626,242.826,246.93,251.034,253.146,257.25,261.354,265.458,269.562,271.762,274.994,279.098,283.202,287.306,291.41,295.514,298.178,302.282,306.386,310.49,313.154,317.258,321.362,325.466,329.57,333.674,336.338" svgx:width="0.53,0.35,0.35,0.53,0.4,0.26,0.28,0.28,0.54,0.53,0.23,0.26,0.53,0.34,0.53,0.28,0.51,0.51,0.26,0.51,0.51,0.51,0.51,0.28,0.4,0.51,0.51,0.51,0.51,0.51,0.33,0.51,0.51,0.51,0.33,0.51,0.51,0.51,0.51,0.51,0.33,0.48" style="fill:rgb(0,0,0);font-family:Corbel;font-size:8.0px;stroke:none;">https://doi.org/10.1038/s41598-020-60633-y</text>
  </g>
  <path style="fill:rgb(206,221,228);stroke:none;stroke-width:1.0;" d="M382.590 8.650 L382.590 26.450 L548.670 26.450 C548.670 26.450 554.340 26.450 554.340 20.780 L554.340 8.650 Z"/>
  <g begin="text">
   <text y="22.277" x="389.724,397.483,405.242,412.701,415.869,421.732,427.215,431.233,437.004,440.899,446.465,449.632,454.583,460.507,469.466,472.746,477.348,482.299,485.138,490.699,496.562,500.58,503.419,507.14,509.979,514.93,518.825,524.391,530.295,536.219,540.114,544.132" svgx:width="0.71,0.71,0.71,0.26,0.53,0.49,0.35,0.52,0.34,0.5,0.26,0.44,0.53,0.83,0.28,0.4,0.44,0.23,0.5,0.53,0.35,0.23,0.32,0.23,0.44,0.34,0.5,0.53,0.53,0.34,0.35,0.4" style="fill:rgb(0,0,0);font-family:Corbel2;font-size:10.25px;stroke:none;">www.nature.com/scientificreports</text>
  </g>
  <path style="fill:none;stroke:rgb(0,0,0);stroke-width:1.0;" d="M40.640 752.550 L554.640 752.550 "/>
  <g begin="text">
   <text y="22.46" x="40.638,48.208,55.778,63.055,66.145,71.865,77.215,81.135,86.765,90.565,95.995,99.085,103.915,109.695,118.435,121.635,126.125,130.955,133.725,139.15,144.87,148.79,151.56,155.19,157.96,162.79,166.59,172.02,177.78,183.56,187.36,191.28,195.77" svgx:width="0.71,0.71,0.71,0.26,0.53,0.49,0.35,0.52,0.34,0.5,0.26,0.44,0.53,0.83,0.28,0.4,0.44,0.23,0.5,0.53,0.35,0.23,0.32,0.23,0.44,0.34,0.5,0.53,0.53,0.34,0.35,0.4,0.28" style="fill:rgb(0,0,0);font-family:Corbel2;font-size:10.0px;stroke:none;">www.nature.com/scientificreports/</text>
  </g>
  <g begin="text">
   <text y="518.51" x="155.638,160.475,165.232,170.294,172.022,175.887,180.77,185.516,187.244,191.506,196.982,203.701,205.429,210.203,214.123,217.421,219.149,222.367,226.187,229.441,234.259,236.424,239.11,242.976,247.722,249.45,251.858,256.776,258.504,262.451,264.179,268.008,271.784,276.54,280.486,284.288,286.588,289.355,293.482,295.21,298.427,302.248,304.934,308.754,313.502,316.287,318.695,323.172,328.09,329.818,334.295,336.954,338.682,343.159,348.123,350.332,354.458,356.186,360.501,364.817,366.864,371.179,377.979,379.707,382.816,387.573,389.98,394.215,396.261,397.994,402.147,405.211,409.526,411.574,413.302,417.437,422.103,426.715,431.508,435.985,439.41,442.195,444.602,449.449,453.656,455.384,458.305,463.223,465.802,470.279,473.668,481.006,484.782,487.567,489.975,494.452,499.371,502.479,504.527,506.255,509.175,514.093,515.821,520.469,524.956,527.75,532.551,534.279,538.108,542.027,545.398,549.218,552.516,554.568" svgx:width="0.54,0.53,0.56,0.23,0.44,0.55,0.53,0.23,0.54,0.62,0.75,0.23,0.53,0.44,0.37,0.23,0.37,0.43,0.37,0.53,0.25,0.31,0.43,0.53,0.23,0.27,0.55,0.23,0.44,0.23,0.42,0.44,0.52,0.44,0.42,0.27,0.31,0.46,0.23,0.37,0.43,0.31,0.43,0.55,0.31,0.27,0.51,0.55,0.23,0.51,0.3,0.23,0.51,0.55,0.25,0.46,0.23,0.48,0.48,0.23,0.48,0.76,0.23,0.35,0.53,0.27,0.47,0.23,0.23,0.47,0.34,0.48,0.23,0.23,0.47,0.53,0.52,0.52,0.51,0.37,0.31,0.27,0.55,0.47,0.23,0.34,0.55,0.3,0.51,0.37,0.82,0.44,0.31,0.27,0.51,0.55,0.35,0.23,0.23,0.34,0.55,0.23,0.51,0.51,0.31,0.53,0.23,0.42,0.44,0.37,0.43,0.37,0.23,0.23" style="fill:rgb(0,0,0);font-family:MinionPro-Regular;font-size:9.0px;stroke:none;">LFP and LTO has resulted in a capacity retention of only 82.9% (Fig. SI7; Supporting Information). In both cases, </text>
   <text y="528.509" x="155.638,160.433,164.904,171.022,174.943,179.063,182.915,185.712,187.791,189.753,193.731,195.693,200.526,202.965,207.264,212.097,214.059,220.203,224.719,229.568,231.872,236.379,243.684,248.173,250.612,254.446,256.408,260.26,267.469,271.303,273.742,277.594,282.506,286.482,290.64,292.602,297.108,299.799,301.761,307.008,311.355,315.702,317.781,322.128,328.959,330.921,333.331,336.661,338.623,343.194,347.691,350.515,354.409,356.848,361.76,365.654,370.377,372.456,374.418,384.084,386.493,389.823,391.785,396.355,400.954,404.353,408.205,411.829,416.023,419.828,422.643,425.082,429.588,434.538,436.5,443.869,447.683,451.841,453.803,458.624,463.241,466.524,469.854,472.255,476.789,479.028,483.186,485.148,489.826,493.678,495.64,499.492,503.767,508.444,510.773,514.668,517.107,522.018,525.912,530.691,532.653,537.106,541.264,543.226,546.049,550.844,554.668" svgx:width="0.53,0.51,0.69,0.43,0.46,0.43,0.37,0.23,0.23,0.44,0.23,0.53,0.27,0.47,0.53,0.23,0.67,0.51,0.53,0.25,0.51,0.82,0.51,0.27,0.42,0.23,0.43,0.8,0.42,0.27,0.43,0.55,0.42,0.46,0.23,0.51,0.3,0.23,0.58,0.48,0.48,0.23,0.48,0.76,0.23,0.27,0.37,0.23,0.51,0.51,0.31,0.44,0.27,0.55,0.43,0.53,0.23,0.23,1.07,0.27,0.37,0.23,0.51,0.51,0.37,0.43,0.37,0.46,0.44,0.31,0.27,0.51,0.55,0.23,0.82,0.44,0.46,0.23,0.52,0.51,0.37,0.37,0.27,0.51,0.25,0.46,0.23,0.51,0.43,0.23,0.43,0.47,0.52,0.25,0.44,0.27,0.55,0.43,0.53,0.23,0.51,0.46,0.23,0.31,0.53,0.43,0.23" style="fill:rgb(0,0,0);font-family:MinionPro-Regular;font-size:9.0px;stroke:none;">however, a high Coulombic efficiency of ~99.9% is obtained. This observation may possibly be explained by the </text>
   <text y="538.508" x="155.638,160.291,164.116,166.771,169.462,173.287,176.626,178.363,182.17,186.652,191.404,194.203,198.154,202.024,204.769,206.506,211.159,214.984,217.756,223.849,227.718,231.543,236.466,238.203,241.002,245.772,249.597,251.334,255.285,259.155,261.945,264.294,268.389,272.214,273.951,281.295,285.075,287.766,291.591,294.983,297.422,301.418,303.695,305.432,308.546,313.388,318.149,323.216,324.953,329.435,332.774,334.511,338.777,344.258,350.981,354.095,355.832,359.702,364.589,369.341,371.078,374.912,378.782,382.121,386.774,391.256,396.179,397.916,400.328,405.251,406.988,409.787,414.557,418.382,420.119,424.889,428.768,432.557,436.75,439.162,442.987,446.326,448.063,452.923,455.2,462.571,464.623,466.36,468.637,472.515,476.466,481.218,483.63,488.481,492.693,494.43,497.12,501.71,503.447,506.714,508.991,511.403,515.678,520.313,523.112,525.326,529.457,531.194,536.0,538.412,542.687,547.457,551.282,554.621" svgx:width="0.51,0.43,0.31,0.31,0.43,0.37,0.23,0.42,0.51,0.55,0.31,0.44,0.42,0.31,0.23,0.51,0.43,0.31,0.69,0.43,0.43,0.55,0.23,0.31,0.53,0.43,0.23,0.44,0.42,0.31,0.27,0.46,0.43,0.23,0.82,0.44,0.31,0.43,0.37,0.27,0.44,0.25,0.23,0.35,0.54,0.53,0.56,0.23,0.51,0.37,0.23,0.54,0.62,0.75,0.35,0.23,0.44,0.55,0.53,0.23,0.42,0.44,0.37,0.51,0.51,0.55,0.23,0.27,0.55,0.23,0.31,0.53,0.43,0.23,0.53,0.43,0.44,0.46,0.27,0.43,0.37,0.23,0.54,0.25,0.82,0.23,0.23,0.25,0.43,0.44,0.53,0.27,0.55,0.47,0.23,0.31,0.51,0.23,0.37,0.25,0.27,0.47,0.53,0.31,0.25,0.46,0.23,0.53,0.27,0.47,0.53,0.43,0.37,0.23" style="fill:rgb(0,0,0);font-family:MinionPro-Regular;font-size:9.0px;stroke:none;">better contact between the active material (LFP or LTO) and carbon in the heavier film, leading to slightly higher </text>
   <text y="548.507" x="155.638,159.507,163.322,168.119,172.106,175.949,178.288,181.114,183.562,187.423,190.762,192.742,196.648,201.57,206.358,208.338,212.163,216.293,220.811,223.259,228.047,230.495,235.381,239.629,241.604,244.439,249.244,253.105,255.085,259.728,262.986,267.612,271.904,275.162,279.023,282.316,285.655,288.04,292.17,296.031,298.011,301.835,304.148,308.054,311.959,314.784,318.212,320.66,324.53,328.561,330.874,332.854,335.274,338.684,343.247,345.587,349.402,352.227,354.675,359.192,364.151,366.131,370.648,373.348,375.324,378.159,382.964,386.825,388.805,392.792,396.697,399.522,401.906,406.036,409.897,411.873,419.253,423.068,425.794,429.655,433.083,435.557,439.588,441.901,443.877,447.027,449.421,451.509,455.315,457.403,459.491,461.471,466.159,470.02,472.711,475.437,479.298,482.673,484.653,488.522,492.337,497.134,501.121,504.964,507.303,510.111,514.278,516.258,519.515,523.376,526.103,529.964,534.751,537.577,540.025,544.542,549.501,552.651,554.703" svgx:width="0.42,0.44,0.52,0.44,0.42,0.27,0.31,0.27,0.43,0.37,0.23,0.44,0.55,0.53,0.23,0.44,0.46,0.51,0.27,0.53,0.27,0.55,0.47,0.23,0.31,0.53,0.43,0.23,0.52,0.37,0.51,0.47,0.37,0.43,0.37,0.37,0.27,0.46,0.43,0.23,0.43,0.25,0.43,0.42,0.31,0.37,0.27,0.42,0.44,0.25,0.23,0.27,0.37,0.51,0.25,0.44,0.31,0.27,0.51,0.55,0.23,0.51,0.3,0.23,0.31,0.53,0.43,0.23,0.44,0.42,0.31,0.27,0.46,0.43,0.23,0.82,0.44,0.31,0.43,0.37,0.27,0.44,0.25,0.23,0.35,0.27,0.23,0.43,0.23,0.23,0.23,0.51,0.43,0.31,0.31,0.43,0.37,0.23,0.42,0.44,0.52,0.44,0.42,0.27,0.31,0.46,0.23,0.37,0.43,0.31,0.43,0.55,0.31,0.27,0.51,0.55,0.35,0.23,0.23" style="fill:rgb(0,0,0);font-family:MinionPro-Regular;font-size:9.0px;stroke:none;">capacities and avoiding the progressive electrical isolation of the active material (i.e., better capacity retention). </text>
   <text y="558.506" x="155.638,165.331,167.769,171.126,173.151,177.038,180.871,185.685,189.69,193.551,195.908,198.734,202.919,204.944,207.275,211.919,215.23,218.587,220.612,223.051,226.408,228.433,232.482,234.813,238.088,242.02,246.025,250.767,254.952,256.977,261.575,266.201,269.629,273.508,277.161,281.309,285.233,290.039,292.064,295.987,303.375,307.91,312.814,317.08,319.105,322.947,325.278,329.201,333.124,335.967,339.242,343.967,348.773,352.652,356.009,358.034,365.431,369.436,374.242,378.121,380.146,384.682,387.4,389.425,394.321,399.136,404.257,406.282,409.593,414.389,419.015,422.273,429.698,432.164,436.025,439.3,443.835,451.223,455.102,457.846,461.725,465.118,467.143,471.849,474.206,478.04,480.784,484.663" svgx:width="1.07,0.27,0.37,0.23,0.42,0.44,0.52,0.44,0.42,0.27,0.31,0.46,0.23,0.25,0.51,0.37,0.37,0.23,0.27,0.37,0.23,0.44,0.25,0.37,0.43,0.44,0.53,0.46,0.23,0.51,0.51,0.37,0.43,0.37,0.46,0.43,0.53,0.23,0.44,0.82,0.51,0.55,0.47,0.23,0.43,0.25,0.43,0.42,0.31,0.37,0.51,0.53,0.43,0.37,0.23,0.82,0.44,0.53,0.43,0.23,0.51,0.3,0.23,0.54,0.53,0.56,0.23,0.37,0.53,0.51,0.36,0.82,0.27,0.42,0.37,0.51,0.82,0.43,0.31,0.43,0.37,0.23,0.52,0.25,0.44,0.31,0.43,0.37" style="fill:rgb(0,0,0);font-family:MinionPro-Regular;font-size:9.0px;stroke:none;">This capacity loss is already observed among electrodes made of LFP sub-micrometer plates</text>
   <text y="555.45" x="487.981,490.824" svgx:width="0.48,0.48" style="fill:rgb(0,0,255);font-family:MinionPro-Regular;font-size:5.85px;stroke:none;">56</text>
   <text y="558.51" x="493.666,495.691,499.614,504.554,509.36,511.385,518.81,521.276,525.137,528.412,533.056,536.314,539.671,542.137,545.971,549.894,554.646" svgx:width="0.23,0.44,0.55,0.53,0.23,0.82,0.27,0.42,0.37,0.51,0.36,0.37,0.27,0.42,0.43,0.53,0.23" style="fill:rgb(0,0,0);font-family:MinionPro-Regular;font-size:9.0px;stroke:none;"> and micro-sized </text>
   <text y="568.509" x="155.635,160.513,165.31" svgx:width="0.54,0.53,0.56" style="fill:rgb(0,0,0);font-family:MinionPro-Regular;font-size:9.0px;stroke:none;">LFP</text>
   <text y="565.45" x="170.409,173.241" svgx:width="0.48,0.48" style="fill:rgb(0,0,255);font-family:MinionPro-Regular;font-size:5.85px;stroke:none;">57</text>
   <text y="568.51" x="176.069,178.04,182.024,186.117,189.904,192.217,196.12,200.908,202.879,206.692,209.473,211.444,215.8,216.965,222.986,225.074,227.045,231.659,236.474,239.937,242.77,247.573,251.434,254.809,256.78,260.765,264.858,268.645,270.958,273.406,278.291,282.539,284.51,288.371,292.655,297.486,301.347,304.774,307.222,314.591,318.452,323.237,326.018,329.357,331.328,335.142,337.923,339.894,345.915,348.93,353.286,355.257,359.16,366.53,371.045,375.93,380.178,382.149,386.937,389.385,394.387,398.248,401.505,405.366,410.152,412.933,414.904,418.727,421.04,424.944,428.848,431.671,434.927,439.631,444.419,448.28,450.251,454.094,458.61,465.844,470.674,475.3,478.639,480.976,483.801,486.249,490.765,495.649,498.988,500.959,504.862,508.119,511.98,513.951,518.782,522.643,526.069,528.686,533.203,536.629,543.998,547.901,552.633,554.685" svgx:width="0.23,0.42,0.46,0.42,0.25,0.43,0.53,0.23,0.44,0.31,0.23,0.48,0.23,0.67,0.23,0.23,0.53,0.53,0.37,0.31,0.53,0.43,0.37,0.23,0.42,0.46,0.42,0.25,0.27,0.55,0.47,0.23,0.43,0.47,0.52,0.43,0.37,0.27,0.82,0.43,0.55,0.31,0.37,0.23,0.44,0.31,0.23,0.67,0.33,0.48,0.23,0.44,0.82,0.51,0.55,0.47,0.23,0.53,0.27,0.56,0.43,0.37,0.43,0.55,0.31,0.23,0.43,0.25,0.43,0.42,0.31,0.37,0.51,0.53,0.43,0.23,0.42,0.51,0.82,0.52,0.51,0.37,0.27,0.31,0.27,0.51,0.55,0.37,0.23,0.44,0.37,0.43,0.23,0.52,0.43,0.37,0.3,0.51,0.37,0.82,0.43,0.53,0.23,0.23" style="fill:rgb(0,0,0);font-family:MinionPro-Regular;font-size:9.0px;stroke:none;"> cycled at 1 C. Further cycling experiments at C/2 among different electrode compositions are performed, </text>
   <text y="578.509" x="155.639,159.527,164.433,169.203,171.165,173.982,178.771,182.614,184.576,187.951,191.84,199.193,203.036,204.998,208.823,213.324,218.229,222.0,224.188,228.958,232.279,234.709,239.209,244.15,246.112,248.515,251.836,253.798,258.361,262.853,265.67,269.559,271.989,276.894,280.782,285.499,287.569,289.531,299.153,302.996,306.389,310.232,312.194,315.435,319.278,322.554,327.396,329.584,332.347,335.668,337.63,341.519,344.759,348.602,350.564,353.85,358.638,363.102,369.313,374.254,376.216,378.646,383.587,385.549,390.328,392.758,397.015,399.085,401.043,405.22,408.307,412.645,416.975,419.045,421.007,427.253,432.077,434.507,438.278,443.102,445.064,449.079,451.347,454.74,459.348,461.31,464.595,469.383,473.848,480.031,483.352,485.314,488.132,492.929,496.727,499.49,501.452,505.304,509.102,513.881,517.85,521.675,523.997,526.787,530.936,532.898,536.138,539.981,542.691,546.534,551.475" svgx:width="0.44,0.55,0.53,0.23,0.31,0.53,0.43,0.23,0.37,0.44,0.82,0.43,0.23,0.42,0.51,0.55,0.42,0.25,0.53,0.37,0.27,0.51,0.55,0.23,0.27,0.37,0.23,0.51,0.51,0.31,0.44,0.27,0.55,0.43,0.53,0.23,0.23,1.07,0.43,0.37,0.43,0.23,0.37,0.43,0.37,0.53,0.25,0.31,0.37,0.23,0.44,0.37,0.43,0.23,0.37,0.53,0.51,0.69,0.55,0.23,0.27,0.55,0.23,0.53,0.27,0.47,0.23,0.23,0.47,0.34,0.48,0.51,0.23,0.23,0.69,0.53,0.27,0.42,0.53,0.23,0.44,0.25,0.37,0.51,0.23,0.37,0.53,0.51,0.69,0.37,0.23,0.31,0.53,0.44,0.31,0.23,0.42,0.44,0.52,0.44,0.42,0.27,0.31,0.46,0.23,0.37,0.43,0.31,0.43,0.55,0.36" style="fill:rgb(0,0,0);font-family:MinionPro-Regular;font-size:9.0px;stroke:none;">and the same conclusion is obtained. These results are shown in Fig. SI8b, which also shows that capacity reten-</text>
   <text y="588.508" x="155.639,158.429,160.841,165.323,170.174,173.477,175.313,179.795,182.459,184.295,188.615,192.935,194.987,199.307,201.359,203.195,207.515,211.835,213.887,218.207,220.259,222.095,225.965,230.852,235.604,237.44,241.76,246.08,248.132,252.452,259.256,261.092,264.962,268.184,272.009,273.845,278.39,282.863,285.662,289.532,291.944,296.831,300.701,305.453,307.289,313.516,318.287,322.112,327.035,328.871,333.191,337.511,339.563,341.399,345.719,350.039,352.091,353.927,357.797,362.684,367.436,369.272,373.592,377.912,379.064,386.363,390.575,392.411,396.893,399.557,401.393,406.235,410.996,416.063,417.899,421.769,424.991,428.816,430.652,435.404,438.779,442.649,447.346,449.398,451.234,454.456,458.281,461.539,466.336,470.206,474.075,476.865,479.214,483.309,487.098,489.312,492.786" svgx:width="0.31,0.27,0.51,0.55,0.37,0.23,0.51,0.3,0.23,0.48,0.48,0.23,0.48,0.23,0.23,0.48,0.48,0.23,0.48,0.23,0.23,0.44,0.55,0.53,0.23,0.48,0.48,0.23,0.48,0.76,0.23,0.44,0.37,0.43,0.23,0.51,0.51,0.31,0.44,0.27,0.55,0.43,0.53,0.23,0.69,0.53,0.43,0.55,0.23,0.48,0.48,0.23,0.23,0.48,0.48,0.23,0.23,0.44,0.55,0.53,0.23,0.48,0.48,0.23,0.82,0.47,0.23,0.51,0.3,0.23,0.54,0.53,0.56,0.23,0.44,0.37,0.43,0.23,0.53,0.37,0.43,0.53,0.23,0.23,0.37,0.43,0.37,0.52,0.43,0.42,0.31,0.27,0.46,0.43,0.25,0.46,0.23" style="fill:rgb(0,0,0);font-family:MinionPro-Regular;font-size:9.0px;stroke:none;">tions of 89.6, 90.8, and 91.4% are obtained when 40, 60, and 70 mg of LFP are used, respectively.</text>
   <text y="606.662" x="155.638,161.398,164.008,169.219,173.713,177.593,181.174,186.796,191.289,196.97,202.181,210.786,213.356,217.85,223.081,225.691,227.841,233.423,238.635,242.215,245.585,251.207,254.787,263.392,268.623,274.255,278.748,283.96,286.11,291.732,295.097,297.247,303.337,308.881,314.811,321.785,328.445,330.595,335.807,338.417,343.629,348.122,352.002,355.583,361.204,366.865,372.076,376.399,379.409" svgx:width="0.57,0.25,0.51,0.44,0.38,0.35,0.55,0.44,0.56,0.51,0.85,0.25,0.44,0.51,0.25,0.21,0.55,0.51,0.35,0.33,0.55,0.35,0.85,0.51,0.56,0.44,0.51,0.21,0.55,0.33,0.21,0.6,0.57,0.58,0.69,0.66,0.21,0.51,0.25,0.51,0.44,0.38,0.35,0.55,0.56,0.51,0.42,0.29,0.21" style="fill:rgb(0,0,0);font-family:Corbel-Bold2;font-size:10.0px;stroke:none;">electrochemical performance of ptcDA electrodes. </text>
   <text y="606.662" x="389.483,396.287,399.638,403.931,407.885,412.889,415.382,419.27,421.403,425.276,427.634,431.587,435.54,438.414,441.72,446.475,451.308,455.214,458.598,460.731,464.685,467.99,471.896,474.029,478.613,483.584,488.114,494.389,499.393,501.526,504.301,508.972,511.105,515.842,519.748,521.881,526.761,531.336,534.112,538.018,542.853,545.727,548.25,552.329,554.606" svgx:width="0.75,0.37,0.47,0.44,0.55,0.27,0.42,0.23,0.43,0.25,0.43,0.42,0.31,0.37,0.51,0.53,0.43,0.37,0.23,0.44,0.37,0.43,0.23,0.5,0.55,0.51,0.69,0.55,0.23,0.31,0.51,0.23,0.51,0.43,0.23,0.52,0.51,0.31,0.43,0.55,0.31,0.27,0.44,0.25,0.23" style="fill:rgb(0,0,0);font-family:MinionPro-Regular;font-size:9.0px;stroke:none;">Organic electrodes are known to be potential </text>
   <text y="616.661" x="155.636,159.514,163.429,168.36,173.157,175.614,180.437,184.261,186.996,190.866,194.214,196.207,198.835,203.361,206.745,208.738,213.669,217.539,221.832,224.622,227.871,232.056,235.926,240.858,244.728,248.112,251.936,254.77,257.227,261.754,266.722,268.715,273.655,276.112,279.361,281.818,286.344,291.312,293.306,297.968,301.792,304.491,307.226,311.096,314.533,316.99,320.86" svgx:width="0.42,0.44,0.55,0.53,0.27,0.53,0.44,0.31,0.43,0.37,0.23,0.3,0.51,0.37,0.23,0.55,0.43,0.47,0.31,0.36,0.47,0.43,0.55,0.43,0.37,0.44,0.31,0.27,0.51,0.55,0.23,0.54,0.27,0.36,0.27,0.51,0.55,0.23,0.51,0.44,0.31,0.31,0.43,0.37,0.27,0.43,0.37" style="fill:rgb(0,0,0);font-family:MinionPro-Regular;font-size:9.0px;stroke:none;">candidates for next-generation Li-ion batteries</text>
   <text y="613.602" x="324.192" svgx:width="0.48" style="fill:rgb(0,0,255);font-family:MinionPro-Regular;font-size:5.85px;stroke:none;">9</text>
   <text y="613.602" x="327.029" svgx:width="0.23" style="fill:rgb(0,0,0);font-family:MinionPro-Regular;font-size:5.85px;stroke:none;">,</text>
   <text y="613.602" x="328.392,331.23" svgx:width="0.48,0.48" style="fill:rgb(0,0,255);font-family:MinionPro-Regular;font-size:5.85px;stroke:none;">58</text>
   <text y="616.662" x="334.065,336.162,338.155,344.923,348.234,352.491,356.406,361.374,363.831,367.683,369.676,373.509,375.831,379.745,383.659,386.493,389.76,394.475,399.272,403.142,406.49,408.483,412.335,416.87,421.738,424.06,428.857,430.851,433.173,437.664,443.801,447.671,451.055,453.048,455.892,460.706,464.576,466.569,470.421,475.056,478.358,481.148,483.142,487.668,490.377,492.37,497.031,500.856,503.556,506.291,510.161,513.805,517.981,519.974,527.362,531.276,536.073,540.897,543.606,547.602,551.453" svgx:width="0.23,0.23,0.75,0.37,0.47,0.44,0.55,0.27,0.42,0.23,0.43,0.25,0.43,0.42,0.31,0.37,0.51,0.53,0.43,0.37,0.23,0.42,0.51,0.53,0.25,0.53,0.23,0.25,0.51,0.69,0.43,0.37,0.23,0.31,0.53,0.43,0.23,0.42,0.51,0.37,0.31,0.23,0.51,0.3,0.23,0.51,0.44,0.31,0.31,0.43,0.37,0.46,0.23,0.82,0.44,0.55,0.53,0.3,0.44,0.42,0.36" style="fill:rgb(0,0,0);font-family:MinionPro-Regular;font-size:9.0px;stroke:none;">. Organic electrodes could lower the cost of battery manufac-</text>
   <text y="626.661" x="155.64,158.382,163.251,166.732,169.234,174.172,178.474,180.616,185.355,189.313,193.233,197.1,201.939,205.401,209.316,211.458,216.027,219.381,223.683,227.639,232.652,235.154,239.051,241.193,248.623,252.491,255.268,259.183,262.663,265.189,269.271,271.609,275.002,277.144,281.064,285.021,290.034,292.176,296.917,300.832,302.974,307.669,310.977,314.892,319.74,323.697,327.005,330.963,335.805,337.947,340.788,344.096,348.666,356.127,358.269,363.252,367.118,369.861,374.73,378.159,382.241,384.608,386.75,391.444,394.754,399.511,404.242,409.111,413.069,415.904,419.297,421.439,425.395,430.369,435.211,437.353,441.905,444.407,448.976,456.407,460.418,463.763" svgx:width="0.31,0.53,0.37,0.27,0.55,0.47,0.23,0.51,0.43,0.42,0.44,0.53,0.37,0.43,0.23,0.51,0.37,0.47,0.44,0.55,0.27,0.42,0.23,0.82,0.44,0.31,0.43,0.37,0.27,0.44,0.25,0.37,0.23,0.42,0.44,0.55,0.23,0.51,0.43,0.23,0.52,0.37,0.43,0.52,0.44,0.37,0.43,0.53,0.23,0.3,0.37,0.51,0.82,0.23,0.55,0.44,0.31,0.53,0.37,0.44,0.25,0.23,0.52,0.37,0.51,0.53,0.53,0.42,0.31,0.37,0.23,0.44,0.55,0.53,0.23,0.51,0.27,0.51,0.82,0.44,0.37,0.37" style="fill:rgb(0,0,0);font-family:MinionPro-Regular;font-size:9.0px;stroke:none;">turing because organic materials can be prepared from natural products and biomass</text>
   <text y="623.602" x="467.082,469.948" svgx:width="0.48,0.48" style="fill:rgb(0,0,255);font-family:MinionPro-Regular;font-size:5.85px;stroke:none;">59</text>
   <text y="626.662" x="472.81,474.952,477.094,484.967,489.536,492.844,496.802,501.334,505.516,509.431,512.291,514.433,516.575,521.315,525.271,529.193,533.059,537.898,541.36,545.275,547.417,551.986,554.65" svgx:width="0.23,0.23,0.89,0.51,0.37,0.43,0.51,0.46,0.43,0.37,0.23,0.23,0.51,0.43,0.42,0.44,0.53,0.37,0.43,0.23,0.51,0.3,0.23" style="fill:rgb(0,0,0);font-family:MinionPro-Regular;font-size:9.0px;stroke:none;">. Moreover, because of </text>
   <text y="636.661" x="155.641,158.481,163.291,167.157,169.137,173.056,177.669,181.084,184.954,189.882,193.729,197.595,199.575,204.097,206.802,208.782,211.234,216.162,220.684,223.992,228.244,232.156,237.119,239.572,243.419,245.399,248.698,251.528,254.998,259.817,263.728,266.423,271.243,274.506,278.372,281.715,283.695,287.607,292.534,297.327,299.307,306.682,310.548,313.387,317.424,319.714,323.058,325.155,327.135,330.433,335.257,339.051,343.897,345.877,349.843,353.186,355.166,359.014,363.6,368.258,372.294,374.504,377.289,379.269,383.792,387.171,389.151,394.115,396.567,400.361,404.784,408.614,410.878,412.971,414.951,419.608,423.429,426.125,428.856,432.722,436.155,438.608,442.473,445.821,447.801,455.186,459.177,463.974,467.84,469.82,474.343,477.048,479.028,483.551,486.859,491.111,495.022,499.985,502.438,506.29,508.27,515.654,519.476,522.207,526.073,529.506,531.986,536.022,538.313,541.656,543.636,547.547,550.809,554.634" svgx:width="0.31,0.53,0.43,0.23,0.44,0.51,0.37,0.43,0.55,0.42,0.43,0.23,0.51,0.3,0.23,0.27,0.55,0.51,0.37,0.47,0.44,0.55,0.27,0.42,0.23,0.37,0.31,0.37,0.53,0.42,0.31,0.53,0.37,0.43,0.37,0.23,0.44,0.55,0.53,0.23,0.82,0.43,0.31,0.44,0.25,0.37,0.23,0.23,0.37,0.53,0.42,0.53,0.23,0.44,0.37,0.23,0.42,0.51,0.51,0.44,0.25,0.31,0.23,0.51,0.37,0.23,0.55,0.27,0.42,0.5,0.43,0.25,0.23,0.23,0.51,0.44,0.31,0.31,0.43,0.37,0.27,0.43,0.37,0.23,0.82,0.44,0.53,0.43,0.23,0.51,0.3,0.23,0.51,0.37,0.47,0.44,0.55,0.27,0.42,0.23,0.82,0.44,0.31,0.43,0.37,0.27,0.44,0.25,0.37,0.23,0.44,0.37,0.43,0.23" style="fill:rgb(0,0,0);font-family:MinionPro-Regular;font-size:9.0px;stroke:none;">the absence of inorganic structures and metals, such as cobalt or nickel, batteries made of organic materials are </text>
   <text y="646.66" x="155.641,159.541,163.375,167.992,171.223,174.007,177.429,179.868,183.72,188.636,193.463,195.707,199.865,201.836,205.735,210.652,215.431,217.402,220.123,224.644,227.471,231.497,233.849,236.092,240.251,242.221,245.473,249.373,253.353,257.441,261.224,263.558,267.466,272.005,274.309,278.11,280.189,282.16,291.792,295.644,297.615,302.441,307.058,310.346,313.676,316.082,320.62,322.924,326.776,328.747,331.438,335.347,339.841,343.264,345.703,349.566,353.376,356.196,358.635,363.146,368.096,370.067,374.578,377.269,379.24,383.218,385.189,388.593,392.412,394.716,397.407,400.638,403.925,406.754,410.654,415.57,420.349,422.788,427.669,431.908,433.879,438.391,441.688,445.927,449.826,454.776,457.215,461.049,463.02,466.884,470.693,473.522,478.321,483.022,487.801,491.653,493.624,498.514,500.818,508.216,510.187,513.015,517.824,521.634,524.406,526.377,528.792,532.122,534.093,537.497,542.054,544.358,548.176,550.42,554.551" svgx:width="0.43,0.42,0.51,0.36,0.3,0.37,0.27,0.43,0.55,0.53,0.25,0.46,0.23,0.44,0.55,0.53,0.23,0.31,0.51,0.31,0.44,0.25,0.25,0.46,0.23,0.37,0.43,0.42,0.46,0.42,0.25,0.44,0.51,0.25,0.43,0.23,0.23,1.07,0.43,0.23,0.52,0.51,0.37,0.37,0.27,0.51,0.25,0.43,0.23,0.3,0.44,0.51,0.37,0.27,0.42,0.44,0.31,0.27,0.51,0.55,0.23,0.51,0.3,0.23,0.44,0.23,0.37,0.43,0.25,0.3,0.36,0.37,0.31,0.44,0.55,0.53,0.27,0.55,0.47,0.23,0.51,0.37,0.47,0.44,0.55,0.27,0.42,0.23,0.42,0.44,0.31,0.53,0.51,0.53,0.43,0.23,0.54,0.25,0.82,0.23,0.31,0.53,0.44,0.31,0.23,0.27,0.37,0.23,0.37,0.51,0.25,0.43,0.25,0.46,0.23" style="fill:rgb(0,0,0);font-family:MinionPro-Regular;font-size:9.0px;stroke:none;">eco-friendly and totally recyclable. The possible fabrication of a self-standing organic cathode film that is solely </text>
   <text y="656.659" x="155.641,159.547,164.127,171.424,176.318,181.007,184.479,188.446,193.297,195.475,200.054,202.817,204.995,208.314,212.28,216.328,220.485,224.335,226.736,230.712,235.318,237.694,241.618,243.796,251.238,255.115,257.903,261.827,265.317,267.853,271.947,274.294,277.696,279.874,283.087,286.993,290.879,293.298,295.564,300.486,302.862,307.551,311.023,314.891,317.042,319.22,323.151,327.119,330.557,335.307,339.886,344.908,347.059,349.237,353.204,358.188,363.039,365.217,368.537,372.504,377.355,381.899,386.246,389.549,393.599,397.566,400.453,402.899,407.092,411.016,413.194,417.773,421.137,425.448,429.415,434.437,436.948,440.854,443.032,450.464,455.089,457.465,461.432,465.399,470.32,472.696,476.62,479.833,482.011,484.493,487.895,490.073,492.969,497.836,501.76,505.079,509.003,511.684,516.263,519.583,523.507,525.685,530.536,534.46,541.892,546.471,551.493" svgx:width="0.42,0.51,0.82,0.52,0.51,0.37,0.43,0.53,0.23,0.51,0.3,0.23,0.37,0.43,0.42,0.46,0.42,0.25,0.44,0.51,0.25,0.43,0.23,0.82,0.44,0.31,0.43,0.37,0.27,0.44,0.25,0.37,0.23,0.35,0.42,0.43,0.25,0.25,0.53,0.25,0.51,0.37,0.43,0.23,0.23,0.42,0.44,0.37,0.51,0.51,0.55,0.23,0.23,0.44,0.55,0.53,0.23,0.37,0.43,0.53,0.51,0.47,0.36,0.44,0.42,0.31,0.27,0.46,0.43,0.23,0.51,0.37,0.47,0.44,0.55,0.27,0.42,0.23,0.82,0.51,0.25,0.43,0.42,0.53,0.25,0.43,0.35,0.23,0.27,0.37,0.23,0.31,0.53,0.43,0.37,0.43,0.3,0.51,0.37,0.43,0.23,0.53,0.43,0.82,0.51,0.55,0.36" style="fill:rgb(0,0,0);font-family:MinionPro-Regular;font-size:9.0px;stroke:none;">composed of recyclable materials (cellulose, carbon, and redox-active organic molecule) is therefore demon-</text>
   <text y="666.658" x="155.641,158.863,161.617,164.92,168.664,171.318,175.152,179.813,181.829,183.53,189.713,191.414,196.13,200.873,208.117,212.734,216.523,219.826,221.527,225.973,228.601,230.302,234.748,237.979,242.155,245.989,250.876,253.252,257.023,258.724,266.022,270.513,272.754,276.587,280.421,285.208,287.449,291.238,294.505,296.206,300.949,304.702,308.76,312.549,314.25,318.867,322.7,326.489,331.376,333.077,336.263,340.052,344.812,349.258,352.651,355.306,359.139,363.855,365.556,369.444,372.711,374.412,379.173,383.727,386.949,390.216,392.556,397.028,399.269,403.058,404.759,408.674,412.507,415.26,417.573,421.631,425.42,427.121,434.428,438.172,440.826,444.615,447.971,450.373,454.333,456.547,459.814,461.515,463.891,468.778,470.479,475.339,477.715,480.883,483.259,487.705,492.592,494.293,498.874,502.617,505.236,507.89,511.679,515.036,517.412,521.201" svgx:width="0.37,0.31,0.37,0.44,0.31,0.43,0.53,0.23,0.23,0.69,0.23,0.55,0.53,0.82,0.51,0.43,0.37,0.23,0.51,0.3,0.23,0.51,0.37,0.47,0.44,0.55,0.27,0.42,0.23,0.82,0.51,0.25,0.43,0.42,0.53,0.25,0.43,0.37,0.23,0.53,0.44,0.46,0.43,0.23,0.51,0.43,0.43,0.55,0.23,0.37,0.43,0.52,0.51,0.37,0.31,0.43,0.53,0.23,0.44,0.37,0.23,0.52,0.51,0.37,0.37,0.27,0.51,0.25,0.43,0.23,0.44,0.42,0.31,0.27,0.46,0.43,0.23,0.82,0.44,0.31,0.43,0.37,0.27,0.44,0.25,0.37,0.23,0.27,0.55,0.23,0.54,0.27,0.36,0.27,0.51,0.55,0.23,0.51,0.44,0.31,0.31,0.43,0.37,0.27,0.43,0.37" style="fill:rgb(0,0,0);font-family:MinionPro-Regular;font-size:9.0px;stroke:none;">strated. A number of organic molecules have been reported as possible active materials in Li-ion batteries</text>
   <text y="663.602" x="524.428,527.213" svgx:width="0.48,0.48" style="fill:rgb(0,0,255);font-family:MinionPro-Regular;font-size:5.85px;stroke:none;">60</text>
   <text y="663.602" x="529.997" svgx:width="0.52" style="fill:rgb(0,0,0);font-family:MinionPro-Regular;font-size:5.85px;stroke:none;">–</text>
   <text y="663.602" x="533.016,535.801" svgx:width="0.48,0.48" style="fill:rgb(0,0,255);font-family:MinionPro-Regular;font-size:5.85px;stroke:none;">63</text>
   <text y="666.662" x="538.584,540.599,542.3,546.854,551.299,554.638" svgx:width="0.23,0.23,0.53,0.51,0.37,0.23" style="fill:rgb(0,0,0);font-family:MinionPro-Regular;font-size:9.0px;stroke:none;">. For </text>
   <text y="676.661" x="155.634,160.133,164.921,168.269,170.218,174.052,178.309,183.113,186.947,190.348,192.769,200.112,203.946,208.705,211.459,214.771,216.832,218.785,222.662,227.594,229.543,231.964,236.859,240.693,244.95,249.755,253.589,258.448,261.76,264.116,268.22,272.054,274.002,277.818,282.308,289.688,297.031,300.865,304.095,307.911,310.358,314.362,316.648,318.596,322.925,324.986,329.315,331.376,335.705,337.766,342.095,346.424,349.637,354.441,358.276,361.883,366.085,368.371,372.205,377.1,380.934,383.633,387.467,390.265,393.613,397.573,401.415,405.293,408.641,413.302,417.757,422.014,426.216,428.502,430.923,434.739,436.687,441.448,443.895,447.772,452.749,457.356,461.423,466.184,469.585,472.006,476.767,480.601,482.549,485.672,490.748,496.237,502.231,508.53,514.758,517.881,519.829,527.172,531.707,533.993,537.87,541.749,546.58,548.866,552.645,554.697" svgx:width="0.51,0.53,0.37,0.23,0.43,0.47,0.52,0.43,0.37,0.27,0.82,0.43,0.55,0.31,0.37,0.23,0.23,0.44,0.55,0.23,0.27,0.55,0.43,0.47,0.52,0.43,0.55,0.37,0.27,0.46,0.43,0.23,0.42,0.51,0.82,0.82,0.43,0.37,0.42,0.27,0.44,0.25,0.23,0.48,0.23,0.48,0.23,0.48,0.23,0.48,0.48,0.36,0.52,0.43,0.37,0.46,0.25,0.43,0.55,0.43,0.31,0.43,0.31,0.37,0.44,0.42,0.44,0.37,0.51,0.51,0.47,0.46,0.25,0.27,0.42,0.23,0.53,0.27,0.44,0.55,0.53,0.46,0.53,0.37,0.27,0.53,0.43,0.23,0.35,0.56,0.62,0.67,0.74,0.69,0.35,0.23,0.82,0.51,0.25,0.43,0.42,0.53,0.25,0.43,0.23,0.23" style="fill:rgb(0,0,0);font-family:MinionPro-Regular;font-size:9.0px;stroke:none;">our experiments, an inexpensive commercial 3,4,9,10-perylenetetracarboxylic dianhydride (PTCDA) molecule, </text>
   <text y="686.66" x="155.634,161.862,166.668,169.08,172.833,177.639,179.475,184.255,188.179,191.482,193.318,197.269,199.105,201.904,206.674,210.544,215.026,218.248,222.073,224.863,227.275,231.108,235.104,237.381,239.217,243.051,246.831,251.591,255.542,259.349,261.653,264.425,268.556,270.392,274.874,277.538,279.374,283.694,288.014,292.334,294.17,301.541,307.787,312.593,314.627" svgx:width="0.69,0.53,0.27,0.42,0.53,0.23,0.53,0.44,0.37,0.23,0.44,0.23,0.31,0.53,0.43,0.51,0.37,0.43,0.31,0.27,0.42,0.44,0.25,0.23,0.42,0.44,0.52,0.44,0.42,0.27,0.31,0.46,0.23,0.51,0.3,0.23,0.48,0.48,0.48,0.23,0.82,0.69,0.53,0.23,0.47" style="fill:rgb(0,0,0);font-family:MinionPro-Regular;font-size:9.0px;stroke:none;">which has a theoretical capacity of 273 mAh·g</text>
   <text y="683.602" x="318.859" svgx:width="0.78" style="fill:rgb(0,0,0);font-family:EuclidSymbol;font-size:5.85px;stroke:none;">−</text>
   <text y="683.602" x="323.411" svgx:width="0.48" style="fill:rgb(0,0,0);font-family:MinionPro-Regular;font-size:5.85px;stroke:none;">1</text>
   <text y="686.662" x="326.219,328.271,330.107,332.492,335.795,337.631,341.005,344.794,347.071,350.941,354.811,357.502,361.372,366.069" svgx:width="0.23,0.23,0.27,0.37,0.23,0.37,0.43,0.25,0.43,0.42,0.31,0.43,0.53,0.23" style="fill:rgb(0,0,0);font-family:MinionPro-Regular;font-size:9.0px;stroke:none;">, is selected.</text>
   <text y="696.661" x="167.639,172.136,176.031,178.416,181.188,184.5,187.864,190.769,194.745,199.737,204.597,207.117,212.074,216.393,218.598,223.773,229.36,235.453,241.849,248.176,250.381,254.32,258.207,261.111,265.986,270.763,275.622,279.556,282.967,285.172,291.469,293.879,296.783,301.697,303.902,308.762,311.282,316.356,320.289,323.618,327.551,332.408,335.261,337.466,341.525,345.5,348.396,350.85,355.051,358.984,361.189,368.638,372.668,376.032,379.443,381.648,384.033,388.773,392.832,397.692,400.212,405.169,409.489,412.9,415.105,419.081,422.409,426.342,428.547,433.26,436.587,440.52,445.388,449.363,452.691,456.666,461.526,463.731,467.79,471.705,475.62,480.209,483.536,488.396,490.916,495.872,500.192,502.397,505.194,509.892,512.097,515.002,519.877,523.81,526.015,533.455,537.388,540.293,545.168,549.944,554.697" svgx:width="0.47,0.43,0.25,0.3,0.36,0.37,0.31,0.44,0.55,0.53,0.27,0.55,0.47,0.23,0.56,0.62,0.67,0.74,0.69,0.23,0.42,0.44,0.31,0.53,0.51,0.53,0.43,0.37,0.23,0.69,0.27,0.31,0.53,0.23,0.53,0.27,0.56,0.43,0.37,0.43,0.55,0.31,0.23,0.44,0.42,0.31,0.27,0.46,0.43,0.23,0.82,0.44,0.37,0.37,0.23,0.25,0.51,0.44,0.53,0.27,0.55,0.47,0.37,0.23,0.44,0.37,0.43,0.23,0.52,0.37,0.43,0.52,0.44,0.37,0.43,0.53,0.23,0.44,0.42,0.42,0.51,0.37,0.53,0.27,0.55,0.47,0.23,0.31,0.51,0.23,0.31,0.53,0.43,0.23,0.82,0.43,0.31,0.53,0.51,0.53,0.23" style="fill:rgb(0,0,0);font-family:MinionPro-Regular;font-size:9.0px;stroke:none;">Self-standing PTCDA cathodes with different active mass loadings are prepared according to the method </text>
   <text y="706.66" x="155.642,160.448,164.327,167.754,171.615,175.06,177.489,182.194,186.117,190.923,192.948,195.414,200.391,202.416,206.86,210.665,215.487,219.366,226.753,230.632" svgx:width="0.53,0.43,0.37,0.42,0.37,0.27,0.51,0.43,0.53,0.23,0.27,0.55,0.23,0.47,0.42,0.53,0.43,0.82,0.43,0.23" style="fill:rgb(0,0,0);font-family:MinionPro-Regular;font-size:9.0px;stroke:none;">described in Scheme </text>
   <text y="706.66" x="232.637" svgx:width="0.48" style="fill:rgb(0,0,255);font-family:MinionPro-Regular;font-size:9.0px;stroke:none;">2</text>
   <text y="706.66" x="237.011,239.117,241.142,250.835,253.272,256.629,258.654,263.188,266.507,270.773,274.695,279.672,282.138,285.999,288.024,295.412,299.992,302.323,306.245,310.167,315.043,317.374,321.253,323.278,325.716,329.073,331.098,335.912,339.834,343.315,346.157,348.648,352.697,355.071,357.338,361.523,363.548,366.975,371.555,373.776,378.572,383.133,385.464,389.343,391.368,393.834,398.811,400.836,407.055,410.887,413.63,417.509,421.117,423.223,425.247,430.07,433.949,438.888,442.749,446.573,448.679,450.704,453.555,458.378,462.257,464.282,468.942,472.217,476.096,480.909,484.832,488.225,492.057,494.899,497.365,501.9,506.877,508.902,513.436,516.154,518.179,522.065,525.897,528.748,533.571,538.294,543.1,546.979,549.004,551.441,554.744" svgx:width="0.23,0.23,1.07,0.27,0.37,0.23,0.51,0.37,0.47,0.44,0.55,0.27,0.42,0.23,0.82,0.51,0.25,0.43,0.42,0.53,0.25,0.43,0.23,0.27,0.37,0.23,0.52,0.44,0.37,0.31,0.27,0.44,0.25,0.25,0.46,0.23,0.37,0.51,0.25,0.53,0.51,0.25,0.43,0.23,0.27,0.55,0.23,0.69,0.44,0.31,0.43,0.37,0.23,0.23,0.53,0.43,0.55,0.42,0.43,0.23,0.23,0.31,0.53,0.43,0.23,0.52,0.37,0.43,0.52,0.44,0.37,0.44,0.31,0.27,0.51,0.55,0.23,0.51,0.3,0.23,0.42,0.44,0.31,0.53,0.51,0.53,0.43,0.23,0.27,0.37,0.23" style="fill:rgb(0,0,0);font-family:MinionPro-Regular;font-size:9.0px;stroke:none;">. This organic molecule is partially soluble in water; hence, the preparation of cathode is </text>
   <text y="716.659" x="155.651,159.458,163.94,168.791,172.094,174.506,179.258,183.083,186.422,190.301,194.81,197.023,201.154,203.053,206.356,208.768,215.968,220.621,222.898,226.668,228.72,230.619,234.489,239.376,244.128,246.027,248.826,253.596,257.421,259.32,264.387,269.867,275.852,282.143,288.362,290.261,292.646,295.949,297.848,301.223,305.092,308.962,313.741,316.963,320.833,325.63,327.844,331.975,333.874,337.681,342.163,346.915,349.714,353.584,355.996,360.883,364.753,369.505,371.404,373.816,378.739,380.638,383.437,388.207,392.032,393.931,397.738,401.527,403.848,406.017,410.841,413.118,417.708,421.083,424.908,427.887,433.881,440.316,446.301,451.062,452.961,456.219,460.962,465.534,468.792,471.582,474.921,478.7,481.391,485.162,487.214,489.113,498.716,502.541,504.44,508.391,512.45,516.203,518.48,520.892,524.699,526.598,530.693,535.22,537.389,540.188,544.058,551.429" svgx:width="0.42,0.51,0.55,0.37,0.27,0.53,0.43,0.37,0.44,0.51,0.25,0.46,0.23,0.37,0.27,0.82,0.52,0.25,0.43,0.23,0.23,0.44,0.55,0.53,0.23,0.31,0.53,0.43,0.23,0.56,0.62,0.67,0.74,0.69,0.23,0.27,0.37,0.23,0.37,0.43,0.42,0.53,0.37,0.43,0.53,0.25,0.46,0.23,0.42,0.51,0.55,0.31,0.44,0.27,0.55,0.43,0.53,0.23,0.27,0.55,0.23,0.31,0.53,0.43,0.23,0.42,0.43,0.25,0.25,0.53,0.25,0.51,0.37,0.43,0.33,0.7,0.71,0.67,0.53,0.23,0.37,0.53,0.51,0.37,0.31,0.37,0.44,0.31,0.43,0.23,0.23,1.07,0.43,0.23,0.42,0.46,0.42,0.25,0.27,0.42,0.23,0.46,0.51,0.25,0.31,0.44,0.82,0.36" style="fill:rgb(0,0,0);font-family:MinionPro-Regular;font-size:9.0px;stroke:none;">considerably simple, and the PTCDA is securedly contained in the cellulose/VGCF substrate. The cyclic voltam-</text>
   <text y="726.658" x="155.651,162.989,166.814,169.608,173.211,177.342,179.286,183.159,188.05,192.802,194.746,198.085,201.868,204.562,208.387,210.331,214.169,217.951,222.716,226.599,231.065,233.526,235.803,238.111,240.885,245.016,246.96,250.785,255.033,259.834,263.659,267.054,269.466,276.805,280.63,285.386,288.131,291.434,293.378,295.963,300.449,303.788,305.732,308.535,313.308,317.133,319.077,324.144,329.629,335.614,341.907,348.126,350.07,353.863,356.14,360.013,363.886,366.679,369.905,374.579,379.331,383.156,386.459,388.403,392.277,395.502,399.327,401.271,405.883,409.109,412.934,416.311,420.136,424.892,427.587,431.459,436.211,438.155,440.567,445.49,447.434,452.195,454.607,458.85,460.902" svgx:width="0.82,0.43,0.31,0.37,0.46,0.23,0.44,0.55,0.53,0.23,0.37,0.44,0.31,0.43,0.23,0.42,0.44,0.52,0.44,0.51,0.27,0.25,0.27,0.31,0.46,0.23,0.43,0.47,0.52,0.43,0.37,0.27,0.82,0.43,0.55,0.31,0.37,0.23,0.3,0.51,0.37,0.23,0.31,0.53,0.43,0.23,0.56,0.62,0.67,0.74,0.69,0.23,0.43,0.25,0.43,0.42,0.31,0.37,0.51,0.53,0.43,0.37,0.23,0.44,0.37,0.43,0.23,0.52,0.37,0.43,0.37,0.43,0.55,0.31,0.43,0.53,0.23,0.27,0.55,0.23,0.53,0.27,0.47,0.23,0.23" style="fill:rgb(0,0,0);font-family:MinionPro-Regular;font-size:9.0px;stroke:none;">metry and rate capability experiments for the PTCDA electrodes are presented in Fig. </text>
   <text y="726.658" x="462.956,467.276" svgx:width="0.48,0.48" style="fill:rgb(0,0,255);font-family:MinionPro-Regular;font-size:9.0px;stroke:none;">14</text>
   <text y="726.658" x="471.596,473.648,475.592,485.231,487.619,490.922,492.866,497.352,500.622,504.834,508.707,513.63,516.042,519.849,521.793,529.132,533.662,535.939,539.813,543.687,548.513,550.79,554.615" svgx:width="0.23,0.23,1.07,0.27,0.37,0.23,0.51,0.37,0.47,0.44,0.55,0.27,0.42,0.23,0.82,0.51,0.25,0.43,0.42,0.53,0.25,0.43,0.23" style="fill:rgb(0,0,0);font-family:MinionPro-Regular;font-size:9.0px;stroke:none;">. This organic molecule </text>
   <text y="736.657" x="155.651,158.136,161.538,163.725,168.324,173.311,177.856,184.148,189.17,191.357,194.147,198.836,201.023,205.776,209.7,211.887,215.937,218.124,221.599,225.523,232.993,235.504,239.41,243.991,248.978,253.722,258.6,262.57,265.36,269.942" svgx:width="0.27,0.37,0.23,0.5,0.55,0.51,0.69,0.55,0.23,0.31,0.51,0.23,0.51,0.43,0.23,0.44,0.23,0.37,0.43,0.82,0.27,0.42,0.51,0.55,0.53,0.53,0.42,0.31,0.51,0.37" style="fill:rgb(0,0,0);font-family:MinionPro-Regular;font-size:9.0px;stroke:none;">is known to be a semiconductor</text>
   <text y="733.602" x="273.373,276.245" svgx:width="0.48,0.48" style="fill:rgb(0,0,255);font-family:MinionPro-Regular;font-size:5.85px;stroke:none;">64</text>
   <text y="736.662" x="279.118,281.269,283.456,287.426,292.412,297.263,299.45,301.854,304.698,308.1,310.287,313.725,317.604,320.395,324.319,326.506,331.402,335.326,338.819,341.502,346.083,349.576,357.02,360.988,365.975,369.881,373.805,375.992,379.962,384.949,389.8,391.987,395.345,398.244,402.222,406.786,409.342,411.718,414.122,416.993,421.223,423.41,427.38,430.701,434.625,436.812,440.718,445.3,450.25,453.652,456.163,461.014,464.938,468.376,472.355,476.963,479.276,483.507,485.694,490.59,495.36,499.942,503.38,505.567,510.32,514.289,518.223,522.102,526.954,530.429,534.353,536.54,541.122,543.885,546.072,548.475,551.319,554.622" svgx:width="0.23,0.23,0.44,0.55,0.53,0.23,0.27,0.31,0.37,0.23,0.37,0.44,0.31,0.43,0.23,0.52,0.43,0.37,0.3,0.51,0.37,0.82,0.44,0.55,0.42,0.43,0.23,0.44,0.55,0.53,0.23,0.37,0.31,0.44,0.51,0.27,0.25,0.27,0.31,0.46,0.23,0.44,0.37,0.43,0.23,0.42,0.51,0.55,0.37,0.27,0.53,0.43,0.37,0.44,0.51,0.25,0.46,0.23,0.52,0.51,0.51,0.37,0.23,0.51,0.43,0.42,0.44,0.53,0.37,0.43,0.23,0.51,0.3,0.23,0.27,0.31,0.37,0.23" style="fill:rgb(0,0,0);font-family:MinionPro-Regular;font-size:9.0px;stroke:none;">, and its rate performance and stability are considerably poor because of its </text>
  </g>
  <rect style="stroke:blue;stroke-width:0.3;" x="155.638" y="64.138" height="158.28" width="204.0" title="12"/>
  <text y="64.138" class="image" id="image.12.1" width="204" height="158" x="155.638">image.12.1.156_360.64_222</text>
  <path style="fill:none;stroke:rgb(206,221,228);stroke-width:0.3;" d="M159.130 253.320 L552.640 253.320 "/>
  <path style="fill:none;stroke:rgb(206,221,228);stroke-width:1.0;" d="M156.140 253.320 L156.140 253.320 M554.140 253.320 L554.140 253.320 "/>
  <g begin="text">
   <text y="223.323" x="155.638,160.552,163.207,167.662,172.657,176.221,180.154,181.909,186.409,190.909" svgx:width="0.55,0.29,0.49,0.56,0.4,0.44,0.22,0.5,0.5,0.25" style="fill:rgb(0,0,0);font-family:MinionPro-Bold;font-size:9.0px;stroke:none;">Figure 13.</text>
   <text y="223.323" x="193.195,195.265,197.695,202.618,207.1,211.951,216.163,217.999,221.949,226.008,229.761,232.038,234.45,239.301,243.513,245.349,249.174,253.422,258.218,262.043,265.436,267.848,275.183,279.008,283.76,286.505,288.341,292.148,296.63,301.517,306.161,310.94,314.81,317.501,321.371,326.123,327.959,331.739,334.484,336.32,340.271,342.107,345.914,350.396,355.247,358.505,361.304,365.174,369.926,372.671,374.507,378.26,383.039,386.909,390.176,394.316,398.141,401.12,405.872,408.257,411.631,415.384,420.163,424.034,427.3,431.44,435.265,437.101,440.971,445.75,449.143,452.365,456.19,460.941,463.686,465.522,470.004,472.668,474.504,478.824,479.971,485.956,487.792,492.445,496.27,499.041,505.134,509.004,512.829,517.752,519.588,523.908,525.96,530.28,532.116,535.987,540.874,545.626" svgx:width="0.23,0.55,0.54,0.51,0.55,0.47,0.23,0.42,0.46,0.42,0.25,0.27,0.55,0.47,0.23,0.43,0.47,0.52,0.43,0.37,0.27,0.82,0.43,0.55,0.31,0.23,0.42,0.51,0.55,0.53,0.53,0.42,0.31,0.43,0.53,0.23,0.44,0.31,0.23,0.44,0.23,0.42,0.51,0.55,0.37,0.31,0.44,0.55,0.31,0.23,0.42,0.53,0.44,0.37,0.47,0.43,0.33,0.53,0.27,0.37,0.42,0.53,0.44,0.37,0.47,0.43,0.23,0.42,0.53,0.37,0.37,0.43,0.55,0.31,0.23,0.51,0.3,0.23,0.48,0.23,0.67,0.23,0.51,0.43,0.31,0.69,0.43,0.43,0.55,0.23,0.48,0.23,0.48,0.23,0.44,0.55,0.53,0.23" style="fill:rgb(0,0,0);font-family:MinionPro-Regular;font-size:9.0px;stroke:none;"> Long cycling experiment conducted at a constant charge/discharge current of 2 C between 1.0 and </text>
   <text y="233.322" x="155.629,159.949,162.001,166.321,167.446,173.773,175.609,179.704,183.529,186.813,190.071,194.823,198.126,199.962,204.228,209.709,216.432,218.268,220.851,225.333,228.672,230.508,234.378,239.301,241.137,245.979,250.74,255.807,258.786,263.051,268.532,275.255,277.091,281.708,285.488,288.143,290.834,294.659,298.259,302.39,304.226,311.57,315.521,320.273,324.098,325.934,330.416,333.08,334.916,339.236,343.556,344.701,352.0,356.212,358.048,362.89,367.651,372.718,374.554,378.424,383.311,388.063,389.899,394.165,399.646,406.369,408.421,410.257,414.208,416.044,420.804,424.584,429.381,433.206,436.545,438.381,444.222,448.893,453.645,458.235,461.501,466.307,468.719,470.555,473.93,477.755,482.516,486.386,489.725,493.505,496.196,500.678,504.017,505.853,508.238,511.541,513.377,518.129,521.504,525.374,530.072,532.124,533.96,538.541,543.364,545.686,547.963" svgx:width="0.48,0.23,0.48,0.23,0.7,0.23,0.46,0.43,0.37,0.37,0.53,0.37,0.23,0.54,0.62,0.75,0.23,0.3,0.51,0.37,0.23,0.44,0.55,0.23,0.54,0.53,0.56,0.33,0.54,0.62,0.75,0.23,0.51,0.44,0.31,0.31,0.43,0.37,0.46,0.23,0.82,0.44,0.53,0.43,0.23,0.51,0.3,0.23,0.48,0.48,0.23,0.82,0.47,0.23,0.54,0.53,0.56,0.23,0.44,0.55,0.53,0.23,0.54,0.62,0.75,0.23,0.23,0.44,0.23,0.52,0.44,0.52,0.43,0.37,0.23,0.67,0.51,0.53,0.51,0.37,0.53,0.27,0.23,0.37,0.43,0.52,0.44,0.37,0.44,0.31,0.51,0.37,0.23,0.27,0.37,0.23,0.53,0.37,0.43,0.53,0.23,0.23,0.53,0.53,0.25,0.25,0.23" style="fill:rgb(0,0,0);font-family:MinionPro-Regular;font-size:9.0px;stroke:none;">2.5 V versus LTO for an LFP/LTO battery made of 70 mg LFP and LTO; a paper Kodoshi separator is used. Full </text>
   <text y="243.321" x="155.629,159.499,164.386,169.138,170.974,174.799,181.999,186.616,189.387,193.518,195.354,199.107,203.886,207.756,211.095,215.046,218.916,221.607,225.432,228.717,232.02,233.856,237.078,240.903,245.511,248.733,252.558,255.933,259.758,264.51,267.255,269.091,272.844,277.623,281.493,284.76,288.9,292.725,296.028,297.864,301.734,306.621,311.373,313.209,317.961,320.346,323.721,327.474,332.253,336.123,339.39,343.53,347.355,350.658,352.71,354.546,357.768,361.593,364.85,369.647,373.517,377.387,380.177,382.525,386.62,390.409,392.624,396.098" svgx:width="0.44,0.55,0.53,0.23,0.43,0.82,0.52,0.31,0.46,0.23,0.42,0.53,0.44,0.37,0.44,0.42,0.31,0.43,0.37,0.37,0.23,0.37,0.43,0.52,0.37,0.43,0.37,0.43,0.55,0.31,0.23,0.42,0.53,0.44,0.37,0.47,0.43,0.37,0.23,0.44,0.55,0.53,0.23,0.53,0.27,0.37,0.42,0.53,0.44,0.37,0.47,0.43,0.37,0.23,0.23,0.37,0.43,0.37,0.52,0.43,0.42,0.31,0.27,0.46,0.43,0.25,0.46,0.23" style="fill:rgb(0,0,0);font-family:MinionPro-Regular;font-size:9.0px;stroke:none;">and empty characters represent charges and discharges, respectively.</text>
  </g>
  <rect style="stroke:blue;stroke-width:0.3;" x="155.638" y="284.648" height="160.2" width="396.0" title="12"/>
  <text y="284.648" class="image" id="image.12.2" width="396" height="160" x="155.638">image.12.2.156_552.285_445</text>
  <path style="fill:none;stroke:rgb(206,221,228);stroke-width:1.0;" d="M159.130 486.320 L552.640 486.320 "/>
  <path style="fill:none;stroke:rgb(206,221,228);stroke-width:1.0;" d="M156.140 486.320 L156.140 486.320 M554.140 486.320 L554.140 486.320 "/>
  <g begin="text">
   <text y="446.317" x="155.638,160.552,163.207,167.662,172.657,176.221,180.154,181.909,186.409,190.909" svgx:width="0.55,0.29,0.49,0.56,0.4,0.44,0.22,0.5,0.5,0.25" style="fill:rgb(0,0,0);font-family:MinionPro-Bold;font-size:9.0px;stroke:none;">Figure 14.</text>
   <text y="446.317" x="193.195,195.265,197.695" svgx:width="0.23,0.55,0.35" style="fill:rgb(0,0,0);font-family:MinionPro-Regular;font-size:9.0px;stroke:none;"> (</text>
   <text y="446.317" x="200.809" svgx:width="0.47" style="fill:rgb(0,0,0);font-family:MinionPro-Bold;font-size:9.0px;stroke:none;">a</text>
   <text y="446.317" x="205.003,208.117,209.953,215.839,219.898,223.651,225.928,228.34,232.147,233.983,238.078,242.605,244.774,247.573,251.443,258.814,266.149,269.974,272.763,276.363,280.494,282.33,286.155,290.403,295.199,299.024,302.417,304.829,312.164,315.989,320.741,323.486,326.789,328.625,333.422,337.247,340.64,343.223,347.705,351.098,358.433,362.302,367.054,368.89,372.67,375.415,377.251,381.202,383.038,386.413,390.246,394.116,399.039,400.875,404.214,407.994,410.685,414.51,416.346,420.828,423.492,425.328,429.648,431.7,436.02,440.34,441.496,448.867,455.194,457.228" svgx:width="0.35,0.23,0.67,0.46,0.42,0.25,0.27,0.42,0.23,0.46,0.51,0.25,0.31,0.44,0.82,0.82,0.43,0.31,0.37,0.46,0.23,0.43,0.47,0.52,0.43,0.37,0.27,0.82,0.43,0.55,0.31,0.37,0.23,0.52,0.43,0.37,0.3,0.51,0.37,0.82,0.43,0.53,0.23,0.44,0.31,0.23,0.44,0.23,0.37,0.42,0.44,0.55,0.23,0.37,0.44,0.31,0.43,0.23,0.51,0.3,0.23,0.48,0.23,0.48,0.48,0.23,0.82,0.7,0.23,0.37" style="fill:rgb(0,0,0);font-family:MinionPro-Regular;font-size:9.0px;stroke:none;">) Cyclic voltammetry experiments performed at a scan rate of 0.03 mV·s</text>
   <text y="443.257" x="460.528" svgx:width="0.78" style="fill:rgb(0,0,0);font-family:EuclidSymbol;font-size:5.85px;stroke:none;">−</text>
   <text y="443.257" x="465.079" svgx:width="0.48" style="fill:rgb(0,0,0);font-family:MinionPro-Regular;font-size:5.85px;stroke:none;">1</text>
   <text y="446.317" x="467.887,469.723,472.306,476.788,480.127,481.963,484.761,489.567,492.789,496.659,500.484,502.32,507.387,512.868,518.853,525.144,531.363" svgx:width="0.23,0.3,0.51,0.37,0.23,0.31,0.53,0.37,0.43,0.43,0.23,0.56,0.62,0.67,0.74,0.69,0.23" style="fill:rgb(0,0,0);font-family:MinionPro-Regular;font-size:9.0px;stroke:none;"> for three PTCDA </text>
   <text y="456.316" x="155.641,159.43,161.707,165.577,169.446,172.236,175.458,180.129,184.881,188.706,192.009,193.845,197.652,202.133,206.885,209.684,213.554,215.966,220.889,223.301,228.152,232.364,234.2,238.151,239.987,247.358,249.77,254.018,256.672,261.451,264.673,268.498,270.334,274.816,277.48,279.316,285.31,291.745,297.73,302.311,306.991,311.257" svgx:width="0.43,0.25,0.43,0.42,0.31,0.37,0.51,0.53,0.43,0.37,0.23,0.42,0.51,0.55,0.31,0.44,0.27,0.55,0.27,0.55,0.47,0.23,0.44,0.23,0.82,0.27,0.47,0.31,0.53,0.37,0.43,0.23,0.51,0.3,0.23,0.7,0.71,0.67,0.53,0.52,0.47,0.75" style="fill:rgb(0,0,0);font-family:MinionPro-Regular;font-size:9.0px;stroke:none;">electrodes containing a mixture of VGCF–SO</text>
   <text y="458.117" x="317.991" svgx:width="0.48" style="fill:rgb(0,0,0);font-family:MinionPro-Regular;font-size:5.85px;stroke:none;">3</text>
   <text y="456.317" x="320.799,327.693,329.529,333.399,338.286,343.038,344.874,350.859,357.546,362.595,367.275,371.541" svgx:width="0.77,0.23,0.44,0.55,0.53,0.23,0.67,0.74,0.62,0.52,0.47,0.75" style="fill:rgb(0,0,0);font-family:MinionPro-Regular;font-size:9.0px;stroke:none;">H and CNT–SO</text>
   <text y="458.117" x="378.268" svgx:width="0.48" style="fill:rgb(0,0,0);font-family:MinionPro-Regular;font-size:5.85px;stroke:none;">3</text>
   <text y="456.317" x="381.076,387.97,390.022,391.858" svgx:width="0.77,0.23,0.23,0.35" style="fill:rgb(0,0,0);font-family:MinionPro-Regular;font-size:9.0px;stroke:none;">H. (</text>
   <text y="456.317" x="394.972" svgx:width="0.53" style="fill:rgb(0,0,0);font-family:MinionPro-Bold;font-size:9.0px;stroke:none;">b</text>
   <text y="456.317" x="399.778,402.892,404.728,410.848,415.33,422.53,427.291,431.161,434.554,436.939,440.314,444.796,449.719,451.555,456.037,458.701,460.537,463.876,467.656,470.347,474.172,476.008,479.842,483.622,488.383,492.262,496.725,499.182,501.46,503.763,506.553,508.965,512.79,516.093,517.929,520.512,524.994,528.333,530.169,532.968,537.738,541.563" svgx:width="0.35,0.23,0.67,0.51,0.82,0.52,0.44,0.37,0.27,0.37,0.51,0.55,0.23,0.51,0.3,0.23,0.37,0.44,0.31,0.43,0.23,0.42,0.44,0.52,0.44,0.51,0.27,0.25,0.27,0.31,0.27,0.43,0.37,0.23,0.3,0.51,0.37,0.23,0.31,0.53,0.43,0.23" style="fill:rgb(0,0,0);font-family:MinionPro-Regular;font-size:9.0px;stroke:none;">) Comparison of rate capabilities for the </text>
   <text y="466.316" x="155.635,158.992,162.862,170.197,174.022,175.858,179.647,181.924,185.794,189.664,192.454,195.676,200.347,205.099,208.924,212.227,214.279,216.115,220.696,225.52,227.842,230.119,231.955,235.826,240.713,245.465,247.301,251.126,258.326,262.943,265.715,269.846,271.682,275.435,280.214,284.084,287.423,291.374,295.243,297.934,301.759,305.044,308.347,310.183,313.405,317.23,321.838,325.06,328.885,332.26,336.085,340.837,343.582,345.418,348.217,352.987,356.812,358.648,364.768,369.259,374.083,376.36,380.842,388.123,392.587,394.999,398.806,400.642,404.467,411.649,415.456,417.868,421.693,426.58,430.53,434.661,436.497,439.611,446.415,449.529,451.365,455.235,460.122,464.874,466.71,471.462,473.847,477.222,480.975,485.754,489.624,492.891,497.031,500.856,502.692,506.526,510.306,515.067,519.018,522.825,525.129,527.901,531.374,533.426" svgx:width="0.37,0.44,0.82,0.43,0.23,0.43,0.25,0.43,0.42,0.31,0.37,0.51,0.53,0.43,0.37,0.23,0.23,0.53,0.53,0.25,0.25,0.23,0.44,0.55,0.53,0.23,0.43,0.82,0.52,0.31,0.46,0.23,0.42,0.53,0.44,0.37,0.44,0.42,0.31,0.43,0.37,0.37,0.23,0.37,0.43,0.52,0.37,0.43,0.37,0.43,0.55,0.31,0.23,0.31,0.53,0.43,0.23,0.67,0.51,0.53,0.25,0.51,0.82,0.51,0.27,0.42,0.23,0.43,0.8,0.42,0.27,0.43,0.55,0.42,0.46,0.23,0.35,0.76,0.35,0.23,0.44,0.55,0.53,0.23,0.53,0.27,0.37,0.42,0.53,0.44,0.37,0.47,0.43,0.23,0.42,0.44,0.52,0.44,0.42,0.27,0.31,0.46,0.23,0.23" style="fill:rgb(0,0,0);font-family:MinionPro-Regular;font-size:9.0px;stroke:none;">same electrodes. Full and empty characters represent the Coulombic efficiency (%) and discharge capacity, </text>
   <text y="476.315" x="155.635,158.857,162.682,165.94,170.737,174.607,178.477,181.267,183.616,187.711,191.499,193.714,197.188" svgx:width="0.37,0.43,0.37,0.52,0.43,0.42,0.31,0.27,0.46,0.43,0.25,0.46,0.23" style="fill:rgb(0,0,0);font-family:MinionPro-Regular;font-size:9.0px;stroke:none;">respectively.</text>
  </g>
 </g>
</svg>
