<?xml version="1.0" encoding="UTF-8"?>
<svg height="772.973" width="555.45" xmlns="http://www.w3.org/2000/svg">
 <g id="page" xmlns:svgx="http://www.xml-cml.org/schema/svgx">
  <g begin="text">
   <text y="109.361" x="57.657,61.474,65.48,68.134,72.397,77.123,81.865,86.264,89.69109999999999,91.559,94.213,98.475,102.5,105.1301,107.149,110.553,114.803,117.122,119.281,123.681,126.3111,128.238,130.558,133.057,137.784,146.493,149.147,153.41,157.7935,159.76,163.163,164.919,171.725,173.479,175.384,179.375,182.0051,184.024,188.918,190.657,194.06,197.346,202.073,203.809,208.209,210.726,212.631,217.189,221.5725,223.539,225.444,228.698,232.101,236.352,240.751,242.8232,244.742,247.061,251.659,254.2891,256.251,260.651,264.301,268.445,275.129,280.023,281.762,286.162,288.2342,290.152,296.842,300.986,305.232,310.126,314.132,318.532,322.749,326.153,330.402,333.057,337.773,341.917,345.199,349.599,354.4607,356.368,360.186,364.191,366.845,371.108,375.834,380.576,384.975,388.4021,390.27,392.481,397.207,399.8371,401.778,405.763,407.504,410.158,411.926,416.652,421.0355,422.98,427.005,431.405" svgx:width="0.48,0.52,0.33,0.55,0.59,0.61,0.55,0.43,0.55,0.33,0.55,0.52,0.33,0.55,0.43,0.55,0.29,0.29,0.55,0.33,0.55,0.29,0.33,0.59,0.85,0.33,0.55,0.55,0.55,0.43,0.24,0.85,0.24,0.24,0.52,0.33,0.55,0.61,0.24,0.43,0.43,0.59,0.24,0.55,0.33,0.24,0.59,0.55,0.55,0.24,0.43,0.43,0.55,0.55,0.26,0.55,0.29,0.59,0.33,0.55,0.55,0.48,0.52,0.85,0.61,0.24,0.55,0.26,0.55,0.85,0.52,0.55,0.61,0.52,0.55,0.55,0.43,0.55,0.33,0.61,0.52,0.43,0.55,0.61,0.55,0.48,0.52,0.33,0.55,0.59,0.61,0.55,0.43,0.55,0.29,0.59,0.33,0.55,0.5,0.24,0.33,0.24,0.59,0.55,0.55,0.52,0.55,0.61" style="fill:rgb(0,0,0);font-family:AdvPSA5CD;font-size:7.97px;stroke:none;">cathodes that suffer fromthe similar dissolution issue, for example, manganese-based cathodes for Li-ion and</text>
   <text y="120.302" x="57.657,63.881,67.918,70.572,72.283,77.009,81.3925,83.281,88.175,92.125,94.779,97.284,101.683,104.2,106.105,110.38,113.80709999999999,115.652,119.796,124.042,128.90370000000001,130.845,134.249,138.499,140.404,142.581,146.98,149.6101,151.481,155.299,159.305,161.959,166.165,170.891,175.632,180.032,183.4591,185.27,187.589,192.186,194.8161,196.722,200.707,202.612,205.055,209.4385,211.405,215.43,219.83,224.69170000000003,226.599,232.823,236.803,239.457,243.8405,245.647,250.54,254.547,257.201,259.706,264.106,266.623,268.527,272.745,276.149" svgx:width="0.78,0.52,0.33,0.24,0.59,0.55,0.55,0.61,0.52,0.33,0.33,0.55,0.33,0.24,0.55,0.43,0.55,0.52,0.55,0.61,0.55,0.43,0.55,0.24,0.29,0.55,0.33,0.55,0.48,0.52,0.33,0.55,0.59,0.61,0.55,0.43,0.55,0.29,0.59,0.33,0.55,0.5,0.24,0.33,0.55,0.55,0.52,0.55,0.61,0.55,0.78,0.52,0.33,0.55,0.55,0.61,0.52,0.33,0.33,0.55,0.33,0.24,0.55,0.43,0.26" style="fill:rgb(0,0,0);font-family:AdvPSA5CD;font-size:7.97px;stroke:none;">Na-ion batteries and sulfur cathodes for Li-S and Na-S batteries.</text>
   <text y="143.207" x="57.657,62.373,64.711,72.256,74.593,78.167,82.883,86.399,88.723,94.058,99.037,102.9332,105.387,110.716,113.93459999999999,116.329,119.9,124.88,129.7079,132.193,137.172,140.687,145.667,151.052" svgx:width="0.54,0.26,0.88,0.26,0.41,0.54,0.41,0.26,0.61,0.57,0.46,0.55,0.61,0.38,0.55,0.41,0.57,0.57,0.55,0.57,0.41,0.57,0.63,0.55" style="fill:rgb(0,138,141);font-family:AdvPSA5BC;font-size:8.47px;stroke:none;">Limitations of the Study</text>
   <text y="155.906" x="57.657,64.399,68.901,71.5311,73.21,78.936,83.765,86.522,90.3476,92.021,96.499,100.747,104.1741,105.849,110.846,115.348,122.258,127.087,131.589,134.992,137.825,140.603,144.85,147.607,152.109,156.97070000000002,158.685,163.188,168.017,175.33,179.242,184.117,189.107,193.354,195.362,197.9921,199.727,206.534,211.462,216.452,218.459,222.707,226.627,230.875,233.632,235.639,240.468,244.8515,246.535,250.455,254.722,259.1055,260.788,263.227,267.463,271.372,273.413,275.398,277.439,280.217,284.453,287.198,291.5815,293.265,296.042,300.533,304.91650000000004,306.6,311.585,316.12,321.105,325.923,329.418,331.459,334.205,336.246,341.064,345.44750000000005,347.13,351.948,354.2593,355.973,363.119,367.50250000000005,369.185,373.094,377.912,384.81,389.796,394.614,399.149,403.64,408.625,412.0521,413.728,418.547,422.93050000000005,424.613,427.334,431.87" svgx:width="0.83,0.55,0.33,0.55,0.71,0.59,0.33,0.48,0.55,0.55,0.52,0.43,0.55,0.61,0.55,0.85,0.59,0.55,0.43,0.33,0.33,0.52,0.33,0.55,0.61,0.55,0.55,0.59,0.71,0.48,0.59,0.61,0.52,0.24,0.33,0.55,0.85,0.59,0.61,0.24,0.52,0.48,0.52,0.33,0.24,0.59,0.55,0.55,0.48,0.52,0.55,0.55,0.29,0.52,0.48,0.24,0.24,0.24,0.33,0.52,0.33,0.55,0.55,0.33,0.55,0.55,0.55,0.61,0.55,0.61,0.59,0.43,0.24,0.33,0.24,0.59,0.55,0.55,0.59,0.29,0.55,0.88,0.55,0.55,0.48,0.59,0.85,0.61,0.59,0.55,0.55,0.61,0.43,0.55,0.59,0.55,0.55,0.33,0.55,0.55" style="fill:rgb(0,0,0);font-family:AdvPSA5CD;font-size:7.97px;stroke:none;">Our work has demonstrated howcobalt modiﬁcation can facilitate the deposition of Mn compounds on the</text>
   <text y="166.905" x="57.657" svgx:width="0.5" style="fill:rgb(0,0,0);font-family:AdvPS3F4C13;font-size:7.97px;stroke:none;">d</text>
   <text y="166.905" x="61.796,64.529,71.661,76.197" svgx:width="0.33,0.88,0.55,0.83" style="fill:rgb(0,0,0);font-family:AdvPSA5CD;font-size:7.97px;stroke:none;">-MnO</text>
   <text y="168.208" x="82.942" svgx:width="0.52" style="fill:rgb(0,0,0);font-family:AdvPSA5CD;font-size:5.31px;stroke:none;">2</text>
   <text y="166.904" x="87.761,91.729,95.981,98.723,103.259,108.073,113.054,117.4375,119.177,123.429,127.965,132.82670000000002,134.597,136.59,141.125,145.357,150.2187,151.99,154.768,159.4703,161.231,164.722,167.463,171.696,176.742,178.734,183.1175,184.913,189.895,194.382,197.16,199.598,204.412,207.189,213.996,218.301,222.836,226.748,231.1315,232.871,237.746,240.0573,241.771,246.306,250.793,253.571,255.564,260.439,264.82250000000005,266.562,271.56,275.827,278.604,281.381,285.859,288.636,290.621,295.143,298.669,300.7412,302.467,308.023,310.051,312.828,317.306,322.125,326.647,331.664,336.0475,337.787,340.564,345.043,349.42650000000003,351.222,355.162,359.43,362.206,366.474,368.458,372.2,374.977,377.005,380.8306,382.561,387.039,389.481,391.923,396.402,400.342,402.9721,404.708,409.557,411.86830000000003,413.582,417.522,422.371,427.388,431.655,433.639" svgx:width="0.48,0.52,0.33,0.55,0.59,0.61,0.55,0.55,0.52,0.55,0.61,0.55,0.24,0.55,0.52,0.61,0.55,0.33,0.59,0.55,0.43,0.33,0.52,0.61,0.24,0.55,0.55,0.61,0.55,0.33,0.29,0.59,0.33,0.85,0.52,0.55,0.48,0.55,0.55,0.59,0.29,0.55,0.55,0.55,0.33,0.24,0.59,0.55,0.55,0.61,0.52,0.33,0.33,0.55,0.33,0.24,0.55,0.43,0.26,0.55,0.69,0.24,0.33,0.55,0.59,0.55,0.61,0.55,0.55,0.33,0.55,0.55,0.55,0.48,0.52,0.33,0.52,0.24,0.46,0.33,0.24,0.48,0.55,0.55,0.29,0.29,0.55,0.48,0.33,0.55,0.59,0.29,0.55,0.48,0.59,0.61,0.52,0.24,0.33" style="fill:rgb(0,0,0);font-family:AdvPSA5CD;font-size:7.97px;stroke:none;">cathode and lead to stable performance of Zn-ion batteries. Although the catalytic effect of cobalt</text>
   <text y="177.846" x="57.656,61.182,66.171,70.693,74.604,76.632,81.109,84.53609999999999,86.381,92.106,96.373,99.8001,101.645,106.167,109.908,111.892,116.881,121.403,125.88,129.791,134.326,139.1877,141.072,146.06,149.7262,151.559,156.093,158.077,162.611,166.522,169.299,172.019,176.894,180.805,185.282,189.805,196.61,198.703,202.614,206.882,208.7948,210.679,214.947,219.424,223.692,225.719,229.46,232.974,234.958,238.3851,240.23,244.497,249.019,253.88070000000002,255.765,259.279,263.757,268.745,273.734,278.609,281.329,284.106,288.583,293.4447,295.386,300.374,304.0402,305.873,312.802,317.28,319.308,322.084,324.068,329.057,331.084" svgx:width="0.43,0.61,0.55,0.48,0.24,0.55,0.43,0.55,0.71,0.52,0.43,0.55,0.55,0.46,0.24,0.61,0.55,0.55,0.48,0.55,0.61,0.55,0.61,0.46,0.55,0.55,0.24,0.55,0.48,0.33,0.33,0.59,0.48,0.55,0.55,0.85,0.24,0.48,0.52,0.24,0.55,0.52,0.55,0.52,0.24,0.46,0.43,0.24,0.43,0.55,0.52,0.55,0.61,0.55,0.43,0.55,0.61,0.61,0.59,0.33,0.33,0.55,0.61,0.55,0.61,0.46,0.55,0.85,0.55,0.24,0.33,0.24,0.61,0.24,0.55" style="fill:rgb(0,0,0);font-family:AdvPSA5CD;font-size:7.97px;stroke:none;">species was evidenced by electrochemical analysis and supported by multiple</text>
   <text y="177.846" x="337.38,341.902,345.7276,347.571,351.097,353.081,355.857" svgx:width="0.55,0.48,0.55,0.43,0.24,0.33,0.55" style="fill:rgb(0,0,0);font-family:AdvPSA5CE;font-size:7.97px;stroke:none;">ex situ</text>
   <text y="177.846" x="362.098,366.039,370.517,374.784,377.561,381.828,385.769,388.546,393.024,395.801,397.785,401.311,405.579,408.356,410.34,415.189,419.668,423.194,425.2662,427.162,429.147,433.625" svgx:width="0.48,0.55,0.52,0.33,0.52,0.48,0.33,0.55,0.33,0.24,0.43,0.52,0.33,0.24,0.59,0.55,0.43,0.26,0.55,0.24,0.55,0.33" style="fill:rgb(0,0,0);font-family:AdvPSA5CD;font-size:7.97px;stroke:none;">characterizations, in-</text>
   <text y="188.787" x="57.656,62.702,67.181,72.165,74.943,79.3265,81.179,85.657,90.193,95.182,99.673,102.45,105.945,108.69,112.925,117.46,122.445,124.486,128.976,133.8377,135.723,140.54,142.85129999999998,144.679,147.457,151.935,156.3185,158.171,162.083,166.318,169.096,173.331,175.372,179.113,181.891,183.887,187.7126,189.556,196.453,200.944,204.852,209.387,213.623,218.113,220.109,223.603,232.277,234.262,237.6891,239.534,242.937,245.77,247.811,249.807,251.7198,253.549,258.084,262.574,267.065,272.111,276.601,281.586,283.6582,285.497,290.033,294.524,297.301,300.046,304.582,309.072,311.70210000000003,313.551,315.592,320.071,323.869,328.348,331.842,334.619,336.615,341.6,345.835,348.613,350.654,355.473,359.85650000000004,361.708,367.434,369.475,372.196,376.57950000000005,378.432,382.684,387.669,391.468,395.703,400.193,404.102,408.637" svgx:width="0.61,0.55,0.61,0.33,0.55,0.55,0.55,0.55,0.61,0.55,0.33,0.43,0.33,0.52,0.55,0.61,0.24,0.55,0.61,0.55,0.59,0.29,0.55,0.33,0.55,0.55,0.55,0.48,0.52,0.33,0.52,0.24,0.46,0.33,0.24,0.48,0.55,0.85,0.55,0.48,0.55,0.52,0.55,0.24,0.43,0.85,0.24,0.43,0.55,0.43,0.33,0.24,0.24,0.24,0.55,0.55,0.55,0.55,0.61,0.55,0.61,0.26,0.55,0.55,0.55,0.33,0.33,0.55,0.55,0.33,0.55,0.24,0.55,0.46,0.55,0.43,0.33,0.24,0.61,0.52,0.33,0.24,0.59,0.55,0.55,0.71,0.24,0.33,0.55,0.55,0.52,0.61,0.46,0.52,0.55,0.48,0.55,0.61" style="fill:rgb(0,0,0);font-family:AdvPSA5CD;font-size:7.97px;stroke:none;">depth understanding of the catalytic mechanismis still needed. Further investigation with advanced</text>
   <text y="188.787" x="415.333,417.362,421.74550000000005,423.598,427.125,429.109,431.887" svgx:width="0.24,0.55,0.55,0.43,0.24,0.33,0.55" style="fill:rgb(0,0,0);font-family:AdvPSA5CE;font-size:7.97px;stroke:none;">in situ</text>
   <text y="199.785" x="57.656,60.438,64.965,68.877,73.355,77.882,79.867,84.856,89.392,93.871,97.29809999999999,99.596,103.868,108.395,113.2567,115.596,118.373,122.852,127.387,132.206,134.983,139.462,142.239,144.224,148.192,152.464,154.3768,156.66,160.605,164.877,166.862,170.773,175.301,177.285,181.557,184.339,186.371,191.19,195.668,199.0951,201.451,208.257,212.562,216.22820000000002,218.572,223.561,226.343,231.161,234.903,236.944,241.934,246.3175,248.681,252.8254,255.144,260.133,264.66,269.138,274.128,278.664,281.2941,283.653,285.638,290.165,293.695,295.68,300.669,305.196,307.917" svgx:width="0.33,0.55,0.48,0.55,0.55,0.24,0.61,0.55,0.55,0.43,0.55,0.52,0.55,0.61,0.55,0.33,0.55,0.55,0.59,0.33,0.55,0.33,0.24,0.48,0.52,0.24,0.55,0.48,0.52,0.24,0.48,0.55,0.24,0.52,0.33,0.24,0.59,0.55,0.43,0.55,0.85,0.52,0.46,0.55,0.61,0.33,0.59,0.46,0.24,0.61,0.55,0.55,0.52,0.55,0.61,0.55,0.55,0.61,0.55,0.33,0.55,0.24,0.55,0.43,0.24,0.61,0.55,0.33,0.26" style="fill:rgb(0,0,0);font-family:AdvPSA5CD;font-size:7.97px;stroke:none;">techniques and theoretical calculations may provide a deeper insight.</text>
   <text y="223.427" x="57.657,66.148,71.752,76.88,83.695,91.048,97.862" svgx:width="0.95,0.63,0.57,0.76,0.83,0.76,0.57" style="fill:rgb(0,138,141);font-family:AdvPSA5BC;font-size:8.97px;stroke:none;">METHODS</text>
   <text y="236.353" x="57.657,63.269,65.254,67.16680000000001,69.506,76.423,80.958,83.679,88.215,93.034,98.023,101.45009999999999,103.749,107.661,111.913,116.2965,118.66,123.649,128.0325,130.396,132.834,137.653,142.189,146.667,151.52870000000001,153.867,155.909,160.2925,162.655,165.433,169.911,174.2945,176.658,180.91,184.822,188.734,193.553,200.469,205.458,209.711,214.246,217.988,219.972,224.508" svgx:width="0.69,0.24,0.24,0.55,0.85,0.55,0.33,0.55,0.59,0.61,0.43,0.55,0.48,0.52,0.55,0.55,0.61,0.55,0.55,0.29,0.59,0.55,0.55,0.61,0.55,0.24,0.55,0.55,0.33,0.55,0.55,0.55,0.52,0.48,0.48,0.59,0.85,0.61,0.52,0.55,0.46,0.24,0.55,0.61" style="fill:rgb(0,0,0);font-family:AdvPSA5CD;font-size:7.97px;stroke:none;">All methods can be found in the accompanying</text>
   <text y="236.353" x="231.704,236.41,239.131,243.369,247.905,251.401,256.388,260.626,263.373,267.908,272.387,275.0171,277.376,284.52,289.055,291.832,296.325,301.145,306.132,309.5591,311.914,315.317,319.907,324.894,329.881,331.922,336.415,343.315,347.808,352.344,355.091,359.329,361.2418,363.581,367.833,369.874" svgx:width="0.57,0.33,0.52,0.55,0.43,0.61,0.52,0.33,0.55,0.55,0.33,0.55,0.88,0.55,0.33,0.55,0.59,0.61,0.43,0.55,0.43,0.55,0.61,0.61,0.24,0.55,0.85,0.55,0.55,0.33,0.52,0.24,0.55,0.52,0.24,0.55" style="fill:rgb(0,138,141);font-family:AdvPSA5CD;font-size:7.97px;stroke:none;">Transparent Methods supplemental ﬁle</text>
   <text y="236.353" x="374.344" svgx:width="0.26" style="fill:rgb(0,0,0);font-family:AdvPSA5CD;font-size:7.97px;stroke:none;">.</text>
   <text y="260.051" x="57.657,62.785,69.412,75.015,80.619,85.47,91.074,99.565,105.169,112.45,117.578,124.205,129.0488,131.639,134.248,141.528,146.845,154.314,160.098,168.589,175.215,180.343,182.953,190.422" svgx:width="0.57,0.74,0.63,0.63,0.54,0.63,0.95,0.63,0.81,0.57,0.74,0.54,0.55,0.29,0.81,0.59,0.83,0.64,0.95,0.74,0.57,0.29,0.83,0.81" style="fill:rgb(0,138,141);font-family:AdvPSA5BC;font-size:8.97px;stroke:none;">SUPPLEMENTAL INFORMATION</text>
   <text y="273.26" x="57.657,62.183,66.661,71.651,76.697,78.681,83.217,90.024,94.612,99.091,101.868,106.139,108.0518,110.392,112.546,117.082,119.528,124.347,127.068,133.984,138.255,141.036,143.068,147.887,152.2705,154.576,158.544,162.816,167.1995,169.505,174.525,178.9085,181.215,183.661,188.48,193.006,197.484,202.34570000000002,204.741,209.56,214.038,216.07,218.102,222.58,226.9635,229.327,233.579" svgx:width="0.55,0.55,0.61,0.61,0.24,0.55,0.85,0.55,0.55,0.33,0.52,0.24,0.55,0.26,0.55,0.29,0.59,0.33,0.85,0.52,0.33,0.24,0.59,0.55,0.55,0.48,0.52,0.55,0.55,0.61,0.55,0.55,0.29,0.59,0.55,0.55,0.61,0.55,0.59,0.55,0.24,0.24,0.55,0.55,0.55,0.52,0.33" style="fill:rgb(0,0,0);font-family:AdvPSA5CD;font-size:7.97px;stroke:none;">Supplemental Information can be found online at</text>
   <text y="273.26" x="238.564,243.066,245.822,248.578,253.574,257.079,259.253,262.344,265.435,270.431,275.306,277.313,279.487,284.316,287.072,292.067,295.144,299.398,303.653,305.835,310.09,314.344,318.599,322.853,325.952,327.967,330.149,332.164,335.677,339.605,341.62,343.802,348.056,352.311,356.565,360.82,363.002,367.257,371.511,375.766,380.02,384.275" svgx:width="0.55,0.33,0.33,0.61,0.43,0.26,0.38,0.38,0.61,0.59,0.24,0.26,0.59,0.33,0.61,0.38,0.52,0.52,0.26,0.52,0.52,0.52,0.52,0.38,0.24,0.26,0.24,0.43,0.48,0.24,0.26,0.52,0.52,0.52,0.52,0.26,0.52,0.52,0.52,0.52,0.52,0.52" style="fill:rgb(0,138,141);font-family:AdvPSA5CD;font-size:7.97px;stroke:none;">https://doi.org/10.1016/j.isci.2020.100943</text>
   <text y="273.26" x="388.517" svgx:width="0.26" style="fill:rgb(0,0,0);font-family:AdvPSA5CD;font-size:7.97px;stroke:none;">.</text>
   <text y="296.901" x="57.657,64.283,70.443,76.88,84.161,91.63,100.596,105.447,111.051,117.865,124.868,133.359,138.963,146.244,151.372" svgx:width="0.74,0.69,0.72,0.81,0.83,1.0,0.54,0.63,0.76,0.78,0.95,0.63,0.81,0.57,0.57" style="fill:rgb(0,138,141);font-family:AdvPSA5BC;font-size:8.97px;stroke:none;">ACKNOWLEDGMENTS</text>
   <text y="310.111" x="57.657,62.321,66.826,68.836,72.2631,74.845,80.593,85.469,88.19,92.01559999999999,94.653,100.401,104.651,108.07809999999999,110.717,114.232,118.736,123.735,128.734,133.61,136.331,139.108,143.613,148.4747,151.096,156.095,159.7612,162.388,165.148,169.652,174.03549999999998,176.682,182.295,186.799,190.308,193.067,195.788,200.038,202.048,204.058,208.308,212.6915,215.281,220.156,224.661,228.17,232.674,236.92,239.679,243.602,247.9855,250.632,256.414,261.246,265.751,270.255,274.178,276.188,278.1008,280.723,286.719,288.729,292.237,296.16,300.992,304.747,309.252,311.973,315.6392,318.266,322.915,325.675,330.506,332.516,337.021,340.989,343.71,345.7822,348.416,354.766,357.525,361.775,366.28,368.9101,371.552,377.882,382.713,384.78520000000003,387.419,393.428,398.093,402.342,406.592,410.842,415.091,419.341,423.591,427.841,432.09" svgx:width="0.57,0.55,0.24,0.43,0.55,0.71,0.59,0.33,0.48,0.55,0.71,0.52,0.43,0.55,0.43,0.55,0.61,0.61,0.59,0.33,0.33,0.55,0.61,0.55,0.61,0.46,0.55,0.33,0.55,0.55,0.55,0.69,0.55,0.43,0.33,0.33,0.52,0.24,0.24,0.52,0.55,0.55,0.59,0.55,0.43,0.55,0.52,0.33,0.48,0.55,0.55,0.71,0.59,0.55,0.55,0.48,0.24,0.24,0.55,0.74,0.24,0.43,0.48,0.59,0.46,0.55,0.33,0.46,0.55,0.57,0.33,0.59,0.24,0.55,0.48,0.33,0.26,0.55,0.78,0.33,0.52,0.55,0.33,0.55,0.78,0.59,0.26,0.55,0.74,0.57,0.52,0.52,0.52,0.52,0.52,0.52,0.52,0.52,0.52" style="fill:rgb(0,0,0);font-family:AdvPSA5CD;font-size:7.97px;stroke:none;">This work was supported by the Australian Research Council Discovery Project, Grant No. DP150104365</text>
   <text y="321.052" x="57.657,61.91,66.419,71.2807,74.356,80.309,84.977,89.231,93.484,97.738,101.992,106.245,110.499,114.753,119.006,123.26,125.3322,128.363,133.031,137.285,140.048,142.6781,145.717,150.553,152.8643,155.938,158.701,163.21,165.224,168.65109999999999,171.631,174.394,178.903,182.415,186.924,191.177,193.941,197.868,202.2515,205.294,211.046,215.3,218.7271,221.707,226.185,230.694,235.697,240.205,242.969,245.732,249.986,253.913,258.407,262.7905,265.834,270.369,273.876,275.885,280.388,285.24969999999996,288.268,291.026,295.529,299.9125,302.956,307.434,312.264,319.421,321.4932,324.524,329.57,334.4,340.353,342.4252,345.512,349.764,354.267,359.1287,362.204,367.201,371.864,376.2475,379.29,381.331,385.835,389.341,392.099,394.82,399.323,406.234,410.737,415.24,417.998,422.246,425.003,427.012,431.887" svgx:width="0.52,0.55,0.61,0.55,0.74,0.57,0.52,0.52,0.52,0.52,0.52,0.52,0.52,0.52,0.52,0.26,0.55,0.57,0.52,0.33,0.33,0.55,0.59,0.29,0.55,0.33,0.55,0.24,0.43,0.55,0.33,0.55,0.43,0.55,0.52,0.33,0.48,0.55,0.55,0.71,0.52,0.43,0.55,0.55,0.55,0.61,0.55,0.33,0.33,0.52,0.48,0.55,0.55,0.55,0.55,0.43,0.24,0.55,0.61,0.55,0.33,0.55,0.55,0.55,0.55,0.59,0.88,0.26,0.55,0.61,0.59,0.74,0.26,0.55,0.52,0.55,0.61,0.55,0.61,0.57,0.55,0.55,0.24,0.55,0.43,0.33,0.33,0.55,0.85,0.55,0.55,0.33,0.52,0.33,0.24,0.59,0.55" style="fill:rgb(0,0,0);font-family:AdvPSA5CD;font-size:7.97px;stroke:none;">and DP160104835. Part of this research was undertaken using the SEM, XRD, and XPS instrumentation</text>
   <text y="331.994" x="57.657,59.836,65.418,69.924,73.435,76.156,78.933,83.184,85.196,87.208,91.459,95.8425,98.545,103.364,107.871,111.274,115.864,120.116,122.877,126.801,131.1845,133.831,139.613,144.447,148.953,153.459,157.384,159.396,161.3088,163.988,168.08,172.955,177.207,181.458,185.709,189.96,194.212,198.463,202.714,204.7862,207.42,211.512,216.387,220.639,224.89,229.141,233.392,237.644,241.895,246.146,248.2182,250.924,255.014,259.846,264.095,268.345,272.595,276.844,281.094,285.344,289.594,293.843,298.093,300.1652,302.855,307.105,309.73510000000005,312.434,315.155,319.691,324.0745,326.72,330.689,335.52,340.025,344.4085,347.111,352.101,356.4845,359.187,363.269,367.518,372.023,374.782,379.287,381.9171,384.616,390.398,394.903,399.408,402.167,406.672,409.431,411.5032,414.193,419.919,424.424,427.145,429.904,431.914" svgx:width="0.26,0.69,0.55,0.43,0.33,0.33,0.52,0.24,0.24,0.52,0.55,0.55,0.59,0.55,0.43,0.55,0.52,0.33,0.48,0.55,0.55,0.71,0.59,0.55,0.55,0.48,0.24,0.24,0.55,0.5,0.59,0.52,0.52,0.52,0.52,0.52,0.52,0.52,0.26,0.55,0.5,0.59,0.52,0.52,0.52,0.52,0.52,0.52,0.52,0.26,0.55,0.5,0.59,0.52,0.52,0.52,0.52,0.52,0.52,0.52,0.52,0.52,0.26,0.55,0.52,0.33,0.55,0.33,0.55,0.55,0.55,0.48,0.59,0.55,0.55,0.55,0.61,0.55,0.55,0.5,0.52,0.55,0.33,0.55,0.33,0.55,0.71,0.55,0.55,0.33,0.55,0.33,0.26,0.55,0.71,0.55,0.33,0.33,0.24,0.55" style="fill:rgb(0,0,0);font-family:AdvPSA5CD;font-size:7.97px;stroke:none;">(Australian Research Council LE0775553, LE0775551, LE120100026) at the John de Laeter Center, Curtin</text>
   <text y="342.992" x="57.657,63.269,67.748,69.789,73.531,78.022,80.8,84.295,86.336,89.082,92.88,94.95219999999999,97.586,102.235,106.77,111.1535,113.8,118.036,122.571,125.317,129.852,134.67,137.447,140.8741,143.457,147.709,151.677,155.589,160.08,164.898,170.681,172.665,177.201,182.186,187.172,191.5555,194.201,196.979,201.458,205.8415,208.544,213.193,218.011,225.0246,227.705,230.116,234.352,238.262,240.303,242.344,244.328,247.106,249.091,253.626,257.05310000000003,259.692,263.928,268.419,273.28069999999997,275.959,278.737,283.228,287.61150000000004,290.314,293.809,297.718,299.715,304.251,308.742,311.52,313.516,317.752,321.5776,324.215,328.524,333.015,337.87669999999997,340.555,343.333,347.811,351.721,356.256,360.748,362.789,366.698,370.934,372.84680000000003,375.47,379.722,383.217,386.712,388.753,392.248,394.994,399.23,403.766,407.675,412.05850000000004,414.705,419.523,421.83430000000004,424.512,427.29,431.769" svgx:width="0.69,0.55,0.24,0.46,0.55,0.33,0.43,0.24,0.33,0.46,0.26,0.55,0.57,0.55,0.55,0.55,0.52,0.55,0.33,0.55,0.59,0.33,0.43,0.55,0.52,0.48,0.48,0.55,0.59,0.71,0.24,0.55,0.61,0.61,0.55,0.55,0.33,0.55,0.55,0.55,0.57,0.59,0.88,0.55,0.29,0.52,0.48,0.24,0.24,0.24,0.33,0.24,0.55,0.43,0.55,0.52,0.55,0.61,0.55,0.33,0.55,0.55,0.55,0.43,0.48,0.24,0.55,0.55,0.33,0.24,0.52,0.48,0.55,0.52,0.55,0.61,0.55,0.33,0.55,0.48,0.55,0.55,0.24,0.48,0.52,0.24,0.55,0.52,0.43,0.43,0.24,0.43,0.33,0.52,0.55,0.48,0.55,0.55,0.59,0.29,0.55,0.33,0.55,0.55" style="fill:rgb(0,0,0);font-family:AdvPSA5CD;font-size:7.97px;stroke:none;">University. The authors acknowledge the TEM facilities and the scientiﬁc and technical assistance of the</text>
   <text y="353.934" x="57.657,63.236,67.739,71.246,74.004,76.761,81.009,83.018,85.026,89.275,93.6585,95.568,101.896,106.144,108.902,110.91,115.786,120.264,124.512,126.4248,128.311,132.814,137.062,142.108,144.829,146.838,150.759,155.007,157.765,159.773,164.649,169.0325,170.885,175.42,179.669,183.59,185.598,187.607,189.615,192.336,196.00220000000002,197.892,202.145,204.7751,206.68,209.457,213.96,218.3435,220.254,226.0,230.503,235.006,237.764,242.267,244.8971,246.841,249.267,254.099,256.7291,258.691,265.835,267.846,271.77,274.53,279.362,282.871,286.795,291.628,296.627,300.384,302.4562,304.352,310.101,314.606,318.857,321.578,325.828,329.752,332.473,337.009,339.73,341.771,345.28,349.531,352.291,354.302,359.134,363.51750000000004,365.428,371.0867,372.967,378.523,383.029,387.279,389.29,393.047,396.556,398.567,402.076,404.14820000000003,406.045,410.709,415.215,419.5985,421.508,427.121,431.626,433.637" svgx:width="0.69,0.55,0.43,0.33,0.33,0.52,0.24,0.24,0.52,0.55,0.55,0.78,0.52,0.33,0.24,0.59,0.55,0.52,0.24,0.55,0.55,0.52,0.61,0.33,0.24,0.48,0.52,0.33,0.24,0.59,0.55,0.55,0.55,0.52,0.48,0.24,0.24,0.24,0.33,0.46,0.55,0.52,0.33,0.55,0.33,0.55,0.55,0.55,0.71,0.55,0.55,0.33,0.55,0.33,0.55,0.29,0.59,0.33,0.55,0.88,0.24,0.48,0.33,0.59,0.43,0.48,0.59,0.61,0.46,0.26,0.55,0.71,0.55,0.52,0.33,0.52,0.48,0.33,0.55,0.33,0.24,0.43,0.52,0.33,0.24,0.59,0.55,0.55,0.71,0.55,0.69,0.55,0.52,0.24,0.46,0.43,0.24,0.43,0.26,0.55,0.57,0.55,0.55,0.55,0.69,0.55,0.24,0.33" style="fill:rgb(0,0,0);font-family:AdvPSA5CD;font-size:7.97px;stroke:none;">Australian National Fabrication Facility at the Center for Microscopy, Characterization &amp; Analysis, The Uni-</text>
   <text y="364.875" x="57.657,61.427,65.906,68.68,72.204,74.189,76.966,80.6322,83.202,88.021,90.3323,92.896,100.55,105.07,108.593,111.315,115.85,118.571,122.9545,125.544,131.14,135.618,139.142,141.916,144.637,148.889,150.914,152.94,157.204,159.27620000000002,161.854,165.9984,168.543,170.983,175.247,179.186,181.211,183.195,185.236,188.011,191.6772,194.19,196.63,201.15,205.628,210.618,215.137,219.9987,222.564,227.578,231.2442,233.814,236.588,241.067,245.4505,248.04,253.653,258.131,260.172,263.943,268.421,271.196,274.719,276.704,279.482,283.252,285.3242,287.901,292.421,295.196,299.461,302.182,306.56550000000004,309.155,313.407,317.927,322.7887,325.353,331.117,335.963,342.77,349.739,354.586,359.105,364.831,369.367,373.632,375.617,378.391,382.77450000000005,385.364,391.657,396.476,400.247,404.725,407.5,411.978,418.905,423.383,427.903,430.624,434.148" svgx:width="0.46,0.55,0.33,0.43,0.24,0.33,0.46,0.55,0.59,0.29,0.55,0.95,0.55,0.43,0.33,0.55,0.33,0.55,0.55,0.69,0.55,0.43,0.33,0.33,0.52,0.24,0.24,0.52,0.26,0.55,0.52,0.55,0.29,0.52,0.48,0.24,0.24,0.24,0.33,0.46,0.55,0.29,0.55,0.55,0.61,0.55,0.61,0.55,0.61,0.46,0.55,0.33,0.55,0.55,0.55,0.69,0.55,0.24,0.46,0.55,0.33,0.43,0.24,0.33,0.46,0.26,0.55,0.55,0.33,0.52,0.33,0.55,0.55,0.52,0.55,0.61,0.55,0.71,0.59,0.85,0.85,0.59,0.55,0.71,0.55,0.52,0.24,0.33,0.55,0.55,0.78,0.59,0.46,0.55,0.33,0.55,0.85,0.55,0.55,0.33,0.43,0.26" style="fill:rgb(0,0,0);font-family:AdvPSA5CD;font-size:7.97px;stroke:none;">versity of Western Australia, a facility funded by the University, State and Commonwealth Governments.</text>
   <text y="375.873" x="57.657,62.362,66.614,69.392,72.0221,75.005,79.819,82.1303,85.148,87.926,92.404,94.446,97.8731,100.795,103.573,108.052,111.543,116.079,120.312,123.055,127.023,131.4065,134.393,140.124,144.357,147.7841,150.764,155.252,159.74,164.786,169.274,172.051,174.794,179.027,182.995,187.474,191.8575,194.844,199.663,204.0465,207.089,209.81,214.346,218.7295,221.716,226.204,231.08,233.399,236.0291,239.129,244.112,246.889,251.704,255.937,259.6032,262.57,267.559,272.095,276.347,283.154,285.247,287.289,291.767,296.1505,299.137,303.389,306.01910000000004,309.058,311.779,316.315,320.6985,323.685,329.249,333.785,337.277,340.019,342.797,347.049,349.09,351.075,355.308,359.6915,362.678,367.213,370.955,375.443,379.411,383.899,386.677,391.492,394.269,397.012,401.887,406.375,408.4472,411.421,416.403,420.636,423.414,426.0441,429.083,433.898" svgx:width="0.57,0.52,0.33,0.33,0.55,0.59,0.29,0.55,0.33,0.55,0.24,0.43,0.55,0.33,0.55,0.43,0.55,0.52,0.33,0.48,0.55,0.55,0.71,0.52,0.43,0.55,0.55,0.55,0.61,0.55,0.33,0.33,0.52,0.48,0.55,0.55,0.55,0.59,0.55,0.55,0.33,0.55,0.55,0.55,0.55,0.59,0.29,0.33,0.55,0.61,0.33,0.59,0.52,0.46,0.55,0.61,0.55,0.52,0.85,0.24,0.24,0.55,0.55,0.55,0.52,0.33,0.55,0.33,0.55,0.55,0.55,0.69,0.55,0.43,0.33,0.33,0.52,0.24,0.24,0.52,0.55,0.55,0.55,0.46,0.55,0.48,0.55,0.33,0.59,0.33,0.33,0.59,0.55,0.26,0.55,0.61,0.52,0.33,0.33,0.55,0.59,0.29" style="fill:rgb(0,0,0);font-family:AdvPSA5CD;font-size:7.97px;stroke:none;">Part of this research was undertaken on the Soft X-Ray beamline at the Australian Synchrotron, part of</text>
   <text y="386.815" x="57.657,60.434,64.97,69.3535,71.66,77.272,81.764,85.26,88.038,90.759,94.996,97.037,99.078,103.33,107.7135,110.019,116.369,120.861,124.771,126.813,131.291,135.528,138.1581,140.574,145.066,148.976,151.017,155.509,160.001,163.97,168.3535,170.659,174.911,179.446,184.3077,186.646,191.352,195.831,199.741,204.277,208.769,213.587,215.629,220.447,225.433,229.0992,231.443,238.175,240.921,245.907,250.144,254.679,256.664,260.16,264.397,267.174,269.215,274.034,278.4175,280.781,282.946,288.514,294.863,299.342,304.048,310.687,312.948" svgx:width="0.33,0.55,0.55,0.55,0.69,0.55,0.43,0.33,0.33,0.52,0.24,0.24,0.52,0.55,0.55,0.78,0.55,0.48,0.24,0.55,0.52,0.33,0.55,0.55,0.48,0.24,0.55,0.55,0.48,0.55,0.55,0.52,0.55,0.61,0.55,0.57,0.55,0.48,0.55,0.55,0.59,0.24,0.59,0.61,0.46,0.55,0.83,0.33,0.61,0.52,0.55,0.24,0.43,0.52,0.33,0.24,0.59,0.55,0.55,0.26,0.69,0.78,0.55,0.57,0.83,0.26,0.26" style="fill:rgb(0,0,0);font-family:AdvPSA5CD;font-size:7.97px;stroke:none;">the Australian Nuclear Science and Technology Organisation (ANSTO).</text>
   <text y="410.457" x="57.657,64.283,70.909,76.038,82.852,90.321,96.0618,98.644,104.804,112.273,119.554,124.682,130.466,133.075,138.858,145.484,150.613,153.222,160.691,167.972" svgx:width="0.74,0.74,0.57,0.76,0.83,0.64,0.55,0.69,0.83,0.81,0.57,0.64,0.29,0.64,0.74,0.57,0.29,0.83,0.81,0.57" style="fill:rgb(0,138,141);font-family:AdvPSA5BC;font-size:8.97px;stroke:none;">AUTHOR CONTRIBUTIONS</text>
   <text y="423.666" x="57.657,62.185,64.339,68.867,70.9392,73.459,77.732,82.21,87.07169999999999,89.581,94.286,96.44,100.976,103.0482,105.511,109.48,114.299,118.777,122.689,127.225,129.209,133.008,137.486,142.3477,144.856,149.129,153.657,158.51870000000002,161.027,166.016,170.544,174.076,176.06,181.05,185.578,190.056,194.91770000000002,197.483,200.204,204.732,209.1155,211.592,214.374,218.852,222.384,226.912,231.185,233.906,237.852,242.33,244.40220000000002,246.923,251.572,253.772,258.237,260.30920000000003,262.83,266.741,271.555,276.091,281.073,285.56,289.465,292.243,296.73,301.5917,304.157,311.051,315.283,318.025,322.561,325.302,327.344,331.576,333.4888,335.998,339.489,343.227,347.714,350.491,354.979,359.548,363.062,365.078,368.592,370.6642,373.184,377.113,381.623,385.878,388.599,392.855,396.783,399.548,404.058,406.779,408.821,412.335,416.59,419.311,421.352,426.189,430.7,434.214" svgx:width="0.55,0.26,0.55,0.26,0.55,0.52,0.55,0.61,0.55,0.57,0.26,0.55,0.26,0.55,0.48,0.59,0.55,0.48,0.55,0.24,0.46,0.55,0.61,0.55,0.52,0.55,0.61,0.55,0.61,0.55,0.43,0.24,0.61,0.55,0.55,0.61,0.55,0.33,0.55,0.55,0.55,0.33,0.55,0.43,0.55,0.52,0.33,0.48,0.55,0.26,0.55,0.57,0.26,0.55,0.26,0.55,0.48,0.59,0.55,0.61,0.55,0.48,0.33,0.55,0.61,0.55,0.85,0.52,0.33,0.55,0.33,0.24,0.52,0.24,0.55,0.43,0.46,0.55,0.33,0.55,0.55,0.43,0.24,0.43,0.26,0.55,0.48,0.55,0.52,0.33,0.52,0.48,0.33,0.55,0.33,0.24,0.43,0.52,0.33,0.24,0.59,0.55,0.43,0.26" style="fill:rgb(0,0,0);font-family:AdvPSA5CD;font-size:7.97px;stroke:none;">Z.S. and Y.Z. conceived and designed the research. Y.Z. conducted material synthesis, characterizations,</text>
   <text y="434.608" x="57.658,61.913,66.423,71.2847,74.247,78.727,80.742,85.253,89.222,91.944,94.709,99.546,103.474,107.985,112.495,119.412,121.428,125.356,129.612,131.5248,134.431,138.687,143.197,147.452,149.468,153.267,156.671,158.768,162.1951,165.119,169.956,172.26729999999998,175.229,177.994,182.504,186.8875,189.875,194.865,199.121,201.842,204.607,209.118,211.839,213.881,218.392,221.8191,224.742,228.998,233.508,238.36970000000002,241.332,244.054,248.565,252.9485,255.856,260.391,262.375,266.91,270.821,273.61,276.331,281.15,283.191,286.933,290.448,294.982,297.703,299.7752,302.749,307.398,309.605,314.084,316.291,318.3632,321.28,326.269,328.48,333.47,335.624,337.69620000000003,340.67,344.922,349.4,354.26169999999996,357.224,361.176,363.331,366.119,370.768,372.975,377.794,379.8662,382.784,386.752,391.571,396.049,401.038,405.574,409.485,412.263,416.741,421.60269999999997,424.565,427.354,431.832" svgx:width="0.52,0.55,0.61,0.55,0.55,0.24,0.55,0.48,0.33,0.33,0.59,0.48,0.55,0.55,0.85,0.24,0.48,0.52,0.24,0.55,0.52,0.55,0.52,0.24,0.46,0.43,0.24,0.43,0.55,0.59,0.29,0.55,0.33,0.55,0.55,0.55,0.61,0.52,0.33,0.33,0.55,0.33,0.24,0.55,0.43,0.55,0.52,0.55,0.61,0.55,0.33,0.55,0.55,0.55,0.55,0.24,0.55,0.48,0.33,0.33,0.59,0.24,0.46,0.43,0.55,0.33,0.26,0.55,0.57,0.26,0.55,0.26,0.26,0.55,0.61,0.26,0.61,0.26,0.26,0.55,0.52,0.55,0.61,0.55,0.48,0.26,0.33,0.57,0.26,0.59,0.26,0.55,0.48,0.59,0.55,0.61,0.55,0.48,0.33,0.55,0.61,0.55,0.33,0.55,0.55" style="fill:rgb(0,0,0);font-family:AdvPSA5CD;font-size:7.97px;stroke:none;">and electrochemical analysis of the batteries and the electrolyzer. Y.Z., X.X., and J.-P.V. conducted the</text>
   <text y="445.606" x="57.658,64.007,68.826,73.813,79.426,83.919,88.3025,90.665,94.576,99.069,103.307,106.084,110.322,114.233,117.011,121.489,124.267,126.308,129.805,134.042,136.79,138.831,143.65,148.0335,150.397,154.635,159.128,163.9897,166.385,170.637,175.13,179.367,181.408,185.15,188.647,190.688,194.091,196.16320000000002,198.568,203.274,205.428,209.963,212.118,214.1902,216.539,221.529,223.74,228.729,230.895,232.96720000000002,235.316,239.554,244.047,248.9087,251.304,255.782,257.993,262.472,264.5442,266.894,270.805,275.681,278.402,284.184,286.905,291.725,294.502,298.88550000000004,301.249,304.027,308.519,312.90250000000003,315.266,322.166,326.404,330.897,335.389,338.886,342.797,345.574,347.616,352.605,355.383" svgx:width="0.78,0.59,0.61,0.69,0.55,0.55,0.55,0.48,0.55,0.52,0.33,0.52,0.48,0.33,0.55,0.33,0.24,0.43,0.52,0.33,0.24,0.59,0.55,0.55,0.52,0.55,0.61,0.55,0.52,0.55,0.52,0.24,0.46,0.43,0.24,0.43,0.26,0.55,0.57,0.26,0.55,0.26,0.26,0.55,0.61,0.26,0.61,0.26,0.26,0.55,0.52,0.55,0.61,0.55,0.55,0.26,0.55,0.26,0.55,0.48,0.59,0.33,0.71,0.33,0.59,0.33,0.55,0.55,0.33,0.55,0.55,0.55,0.85,0.52,0.55,0.55,0.43,0.48,0.33,0.24,0.61,0.33,0.26" style="fill:rgb(0,0,0);font-family:AdvPSA5CD;font-size:7.97px;stroke:none;">NEXAFS characterization and analysis. Y.Z., X.X., and Z.S. co-wrote the manuscript.</text>
   <text y="469.248" x="57.657,64.471,70.075,76.235,81.086,87.712,93.495,100.121,105.25,107.859,115.328,122.5937,125.176,132.645,137.93730000000002,140.482,143.091,150.372,155.501,161.105,166.888,172.492,177.62,182.749" svgx:width="0.76,0.63,0.69,0.54,0.74,0.64,0.74,0.57,0.29,0.83,0.81,0.55,0.83,0.59,0.55,0.29,0.81,0.57,0.63,0.64,0.63,0.57,0.57,0.57" style="fill:rgb(0,138,141);font-family:AdvPSA5BC;font-size:8.97px;stroke:none;">DECLARATION OF INTERESTS</text>
   <text y="482.457" x="57.657,62.334,66.813,71.1965,73.56,77.812,82.29,85.068,89.546,94.422,97.143,100.5701,102.925,107.938,112.416,116.352,118.376,122.639,125.412,129.7955,132.102,136.638,141.3403,143.668,147.636,152.481,159.407,164.419,168.898,171.67,173.655,178.173,183.03470000000002,185.374,187.397,191.876,194.649,199.127,201.9,206.378,209.9,212.673,216.195" svgx:width="0.57,0.55,0.55,0.55,0.52,0.55,0.33,0.55,0.59,0.33,0.43,0.55,0.61,0.55,0.48,0.24,0.52,0.33,0.55,0.55,0.55,0.59,0.55,0.48,0.59,0.85,0.61,0.55,0.33,0.24,0.55,0.61,0.55,0.24,0.55,0.33,0.55,0.33,0.55,0.43,0.33,0.43,0.26" style="fill:rgb(0,0,0);font-family:AdvPSA5CD;font-size:7.97px;stroke:none;">The authors declare no competing interests.</text>
   <text y="506.098" x="57.657,62.816,67.635,71.783,76.603,78.719,82.867,87.687,92.959,95.3306,97.835,105.035,109.183,112.095,117.254,122.583,127.35,130.14509999999999,132.679,137.446,142.265,144.6366,147.141,151.908,156.675,161.494" svgx:width="0.59,0.55,0.48,0.55,0.24,0.48,0.55,0.61,0.28,0.55,0.83,0.48,0.33,0.59,0.61,0.55,0.33,0.55,0.55,0.55,0.28,0.55,0.55,0.55,0.55,0.55" style="fill:rgb(0,0,0);font-family:AdvPSA5B8;font-size:8.47px;stroke:none;">Received: October 20, 2019</text>
   <text y="518.06" x="57.657,62.815,67.625,71.764,73.918,77.67,82.433,87.769,90.1406,92.645,97.407,102.227,107.562,110.519,115.281,119.817,122.773,126.8386,129.293,134.103,136.4746,138.923,143.733,148.496,153.307" svgx:width="0.59,0.55,0.48,0.24,0.43,0.55,0.61,0.28,0.55,0.55,0.55,0.61,0.33,0.55,0.52,0.33,0.48,0.55,0.55,0.28,0.55,0.55,0.55,0.55,0.55" style="fill:rgb(0,0,0);font-family:AdvPSA5B8;font-size:8.47px;stroke:none;">Revised: February 6, 2020</text>
   <text y="530.022" x="57.657,63.614,67.81,71.948,76.768,82.107,84.998,89.812,95.151,97.5226,100.027,104.79,109.604,114.876,117.836,122.65,127.129,130.077,134.1426,136.653,141.416,146.23,148.6016,151.049,155.863,160.626,165.44" svgx:width="0.69,0.48,0.48,0.55,0.61,0.33,0.55,0.61,0.28,0.55,0.55,0.55,0.61,0.33,0.55,0.52,0.33,0.48,0.55,0.55,0.55,0.28,0.55,0.55,0.55,0.55,0.55" style="fill:rgb(0,0,0);font-family:AdvPSA5B8;font-size:8.47px;stroke:none;">Accepted: February 21, 2020</text>
   <text y="541.984" x="57.657,62.645,67.465,72.737,74.867,76.998,80.721,85.502,90.321,95.627,97.9986,100.447,108.1,112.579,115.506,119.701,124.3595,126.844,131.663,136.444,138.8156,141.32,146.101,150.92,155.702" svgx:width="0.57,0.55,0.61,0.24,0.24,0.43,0.55,0.55,0.61,0.28,0.55,0.88,0.52,0.33,0.48,0.55,0.55,0.55,0.55,0.28,0.55,0.55,0.55,0.55,0.55" style="fill:rgb(0,0,0);font-family:AdvPSA5B8;font-size:8.47px;stroke:none;">Published: March 27, 2020</text>
   <text y="569.877" x="57.657,62.797,67.779,72.505,77.487,82.627,87.609,94.081,99.556,104.537" svgx:width="0.64,0.63,0.59,0.63,0.64,0.63,0.81,0.69,0.63,0.57" style="fill:rgb(0,138,141);font-family:AdvPSA5BC;font-size:7.97px;stroke:none;">REFERENCES</text>
   <text y="579.855" x="57.657,62.448,64.114,66.218,69.844,72.166,76.016,80.298,81.965,83.77720000000001,85.324,91.496,93.309,98.316,100.129,101.94120000000001,103.523,109.694,113.321,115.643,119.493,123.342,128.28,130.0922,131.643,135.779,137.592,139.4042,140.941,146.388,148.055,154.01,155.82219999999998,157.383,160.723,162.536,164.3482,165.887,170.168,171.835,177.791,179.6032,181.138,184.987,186.8,188.6122,190.152,194.001,198.137,201.986,206.268" svgx:width="0.69,0.24,0.29,0.52,0.33,0.55,0.61,0.24,0.26,0.55,0.88,0.26,0.72,0.26,0.26,0.55,0.88,0.52,0.33,0.55,0.55,0.71,0.26,0.55,0.59,0.26,0.26,0.55,0.78,0.24,0.85,0.26,0.55,0.48,0.26,0.26,0.55,0.61,0.24,0.85,0.26,0.55,0.55,0.26,0.26,0.55,0.55,0.59,0.55,0.61,0.26" style="fill:rgb(0,138,141);font-family:AdvPSA5CD;font-size:6.97px;stroke:none;">Alfaruqi, M.H., Mathew, V., Gim, J., Kim, S., Song,</text>
   <text y="587.849" x="57.657,61.059,62.872,64.6842,66.615,70.973,74.6,78.881,83.017,87.152,88.9642,90.993,94.333,96.146,100.135,101.949,103.7612,105.733,110.671,114.52,118.656,120.323,122.1352,124.159,128.008,129.822,134.829,136.642,138.4542,140.43,144.056,147.906,152.1577,154.15,158.432,160.099,166.055,167.8672,169.855,173.195,175.00719999999998,176.998,178.811,182.437,186.064,189.69,193.317,195.13" svgx:width="0.48,0.26,0.26,0.55,0.63,0.52,0.61,0.59,0.59,0.26,0.55,0.48,0.26,0.57,0.26,0.26,0.55,0.71,0.55,0.59,0.24,0.26,0.55,0.55,0.26,0.72,0.26,0.26,0.55,0.52,0.55,0.61,0.55,0.61,0.24,0.85,0.26,0.55,0.48,0.26,0.55,0.26,0.52,0.52,0.52,0.52,0.26,0.26" style="fill:rgb(0,138,141);font-family:AdvPSA5CD;font-size:6.97px;stroke:none;">J., Baboo, J.P., Choi, S.H., and Kim, J. (2015).</text>
   <text y="595.843" x="57.657,61.792,63.459,67.308,70.649,72.971,75.293,79.429,82.886,86.735,90.585,96.541,98.207,101.548,105.174,106.841,108.508,111.71419999999999,113.671,115.338,119.187,123.535,127.385,130.725,134.575,138.8267,140.827,143.805,146.127,148.449,152.299,155.639,157.962,161.811,164.133,167.76" svgx:width="0.59,0.24,0.55,0.48,0.33,0.33,0.59,0.48,0.55,0.55,0.85,0.24,0.48,0.52,0.24,0.24,0.46,0.55,0.24,0.55,0.61,0.55,0.48,0.55,0.61,0.55,0.43,0.33,0.33,0.55,0.48,0.33,0.55,0.33,0.52,0.24" style="fill:rgb(0,138,141);font-family:AdvPSA5CD;font-size:6.97px;stroke:none;">Electrochemically induced structural</text>
   <text y="603.78" x="57.657,59.979,62.301,65.928,69.846,72.824,74.853,78.989,81.311,87.267,90.893,93.215,94.882,99.018,102.8515,104.883,106.55,110.3835,112.367" svgx:width="0.33,0.33,0.52,0.55,0.43,0.29,0.59,0.33,0.85,0.52,0.33,0.24,0.59,0.55,0.55,0.24,0.55,0.55,0.52" style="fill:rgb(0,138,141);font-family:AdvPSA5CD;font-size:6.97px;stroke:none;">transformation in a</text>
   <text y="603.78" x="117.978" svgx:width="0.58" style="fill:rgb(0,138,141);font-family:AdvPS3F4C13;font-size:6.97px;stroke:none;">g</text>
   <text y="603.78" x="122.06,124.382,130.554,134.403" svgx:width="0.33,0.88,0.55,0.83" style="fill:rgb(0,138,141);font-family:AdvPSA5CD;font-size:6.97px;stroke:none;">-MnO</text>
   <text y="604.97" x="140.202" svgx:width="0.52" style="fill:rgb(0,138,141);font-family:AdvPSA5CD;font-size:4.65px;stroke:none;">2</text>
   <text y="603.78" x="144.907,148.247,151.874,154.196,158.046,162.181,166.463,170.29649999999998,172.29,176.426,178.44729999999998,180.455,184.07940000000002,186.067,189.917,191.583,195.865" svgx:width="0.48,0.52,0.33,0.55,0.59,0.61,0.55,0.55,0.59,0.29,0.55,0.52,0.55,0.55,0.24,0.61,0.55" style="fill:rgb(0,138,141);font-family:AdvPSA5CD;font-size:6.97px;stroke:none;">cathode of a high</text>
   <text y="611.773" x="57.656,61.058,64.685,68.966,72.593,75.933,77.6,79.922,83.12819999999999,85.097,88.075,89.741,93.591,96.931,99.254,100.92,105.056,108.8895,110.893,115.175,118.801,121.124,123.446,127.295,129.715,132.9212,134.817,137.795,141.053,144.031,146.353,150.203,156.159,157.97119999999998,159.933,164.87,168.72,172.569,178.525,180.3372,182.327,188.499,192.125,194.447,198.297,200.619" svgx:width="0.48,0.52,0.61,0.52,0.48,0.24,0.33,0.46,0.55,0.43,0.24,0.55,0.48,0.33,0.24,0.59,0.55,0.55,0.61,0.52,0.33,0.33,0.55,0.33,0.46,0.55,0.43,0.46,0.43,0.33,0.55,0.85,0.26,0.55,0.71,0.55,0.55,0.85,0.26,0.55,0.88,0.52,0.33,0.55,0.33,0.26" style="fill:rgb(0,138,141);font-family:AdvPSA5CD;font-size:6.97px;stroke:none;">capacity zinc-ion battery system. Chem. Mater.</text>
   <text y="619.71" x="57.656,61.283" svgx:width="0.52,0.52" style="fill:rgb(0,138,141);font-family:AdvPSA5CE;font-size:6.97px;stroke:none;">27</text>
   <text y="619.71" x="64.97,66.7822,68.711,72.338,75.964,79.59,83.217,86.797,90.423,94.05,97.676,101.303" svgx:width="0.26,0.55,0.52,0.52,0.52,0.52,0.5,0.52,0.52,0.52,0.52,0.26" style="fill:rgb(0,138,141);font-family:AdvPSA5CD;font-size:6.97px;stroke:none;">, 3609–3620.</text>
   <text y="641.65" x="57.656,62.594,66.443,70.07,73.919,75.7312,77.329,83.501,85.314,89.164,90.977,92.78920000000001,94.338,99.345,103.195,107.33,109.1422,110.723,114.063,115.876,122.481,124.294,126.1062,127.675,131.162,132.89,138.846,140.6582,142.189,146.038,147.851,150.174,155.111,156.924,158.7362,160.331,163.957,167.807,172.0587,173.654,178.661,182.796,186.646,190.928,192.7402,194.291,198.14,199.953,202.276,206.265" svgx:width="0.71,0.55,0.52,0.55,0.26,0.55,0.88,0.26,0.55,0.26,0.26,0.55,0.72,0.55,0.59,0.26,0.55,0.48,0.26,0.95,0.26,0.26,0.55,0.5,0.24,0.85,0.26,0.55,0.55,0.26,0.33,0.71,0.26,0.26,0.55,0.52,0.55,0.61,0.55,0.72,0.59,0.55,0.61,0.26,0.55,0.55,0.26,0.33,0.57,0.26" style="fill:rgb(0,138,141);font-family:AdvPSA5CD;font-size:6.97px;stroke:none;">Chae, M.S., Heo, J.W., Lim, S.-C., and Hong, S.-T.</text>
   <text y="649.644" x="57.656,59.47,63.096,66.722,70.349,73.975,75.788,77.6002,79.654,83.789,85.456,89.306,92.646,94.968,97.291,101.426,104.766,108.616,112.466,118.421,120.19,123.531,127.157,128.8298,130.792,133.77,135.437,139.286,142.627,144.949,146.616,150.751,154.5845,156.588,158.255,162.104,164.427,168.276,170.598,173.939,177.565,179.323,182.949,185.271,186.938,191.074" svgx:width="0.26,0.52,0.52,0.52,0.52,0.26,0.26,0.55,0.59,0.24,0.55,0.48,0.33,0.33,0.59,0.48,0.55,0.55,0.85,0.24,0.48,0.52,0.24,0.55,0.43,0.24,0.55,0.48,0.33,0.24,0.59,0.55,0.55,0.24,0.55,0.33,0.55,0.33,0.48,0.52,0.24,0.52,0.33,0.24,0.59,0.55" style="fill:rgb(0,138,141);font-family:AdvPSA5CD;font-size:6.97px;stroke:none;">(2016). Electrochemical zinc-ion intercalation</text>
   <text y="657.581" x="57.656,61.938,64.261,68.396,72.678,76.527,78.85,81.172,82.942,86.792,89.7891,91.672,95.299,99.213,103.4647,105.392,108.732,111.055,114.249,117.227,119.622,123.248,124.9208,126.823,129.8,132.123,134.445,138.294,141.635,143.957,147.807,150.129,153.979,156.9761,158.968,163.104,165.1253,167.075,170.925,174.774,180.946" svgx:width="0.61,0.33,0.59,0.61,0.55,0.33,0.33,0.24,0.55,0.43,0.55,0.52,0.55,0.61,0.55,0.48,0.33,0.46,0.43,0.33,0.52,0.24,0.55,0.43,0.33,0.33,0.55,0.48,0.33,0.55,0.33,0.55,0.43,0.55,0.59,0.29,0.55,0.55,0.55,0.88,0.59" style="fill:rgb(0,138,141);font-family:AdvPSA5CD;font-size:6.97px;stroke:none;">properties and crystal structures of ZnMo</text>
   <text y="658.772" x="185.102" svgx:width="0.52" style="fill:rgb(0,138,141);font-family:AdvPSA5CD;font-size:4.65px;stroke:none;">6</text>
   <text y="657.581" x="187.824" svgx:width="0.55" style="fill:rgb(0,138,141);font-family:AdvPSA5CD;font-size:6.97px;stroke:none;">S</text>
   <text y="658.772" x="191.679" svgx:width="0.52" style="fill:rgb(0,138,141);font-family:AdvPSA5CD;font-size:4.65px;stroke:none;">8</text>
   <text y="657.581" x="196.327,199.954,203.803" svgx:width="0.52,0.55,0.61" style="fill:rgb(0,138,141);font-family:AdvPSA5CD;font-size:6.97px;stroke:none;">and</text>
   <text y="665.575" x="57.656,61.506" svgx:width="0.55,0.55" style="fill:rgb(0,138,141);font-family:AdvPSA5CD;font-size:6.97px;stroke:none;">Zn</text>
   <text y="666.709" x="65.424" svgx:width="0.52" style="fill:rgb(0,138,141);font-family:AdvPSA5CD;font-size:4.65px;stroke:none;">2</text>
   <text y="665.575" x="68.145,74.317" svgx:width="0.88,0.59" style="fill:rgb(0,138,141);font-family:AdvPSA5CD;font-size:6.97px;stroke:none;">Mo</text>
   <text y="666.709" x="78.463" svgx:width="0.52" style="fill:rgb(0,138,141);font-family:AdvPSA5CD;font-size:4.65px;stroke:none;">6</text>
   <text y="665.575" x="81.184" svgx:width="0.55" style="fill:rgb(0,138,141);font-family:AdvPSA5CD;font-size:6.97px;stroke:none;">S</text>
   <text y="666.709" x="85.039" svgx:width="0.52" style="fill:rgb(0,138,141);font-family:AdvPSA5CD;font-size:4.65px;stroke:none;">8</text>
   <text y="665.575" x="89.178,92.518,96.368,100.217,103.411,105.734,109.583,111.2558,112.706,116.988,120.838,124.464,127.442,131.291,134.2881,135.724,137.391,141.22449999999998,142.697,146.323,150.605,154.455,158.304,162.44,166.289,169.28609999999998,170.704,174.553,176.22,180.07,183.41,185.732,188.055,192.19,193.949,197.143,199.465,203.315,206.292" svgx:width="0.48,0.55,0.55,0.46,0.33,0.55,0.24,0.55,0.61,0.55,0.52,0.43,0.55,0.43,0.55,0.24,0.55,0.55,0.52,0.61,0.55,0.55,0.59,0.55,0.43,0.55,0.55,0.24,0.55,0.48,0.33,0.33,0.59,0.24,0.46,0.33,0.55,0.43,0.26" style="fill:rgb(0,138,141);font-family:AdvPSA5CD;font-size:6.97px;stroke:none;">chevrel phases in aqueous electrolytes.</text>
   <text y="673.512" x="57.656,59.47,63.383,67.518,69.84,74.122,75.9342,77.896,82.834,86.683,90.533,96.489" svgx:width="0.26,0.55,0.59,0.33,0.61,0.26,0.55,0.71,0.55,0.55,0.85,0.26" style="fill:rgb(0,138,141);font-family:AdvPSA5CD;font-size:6.97px;stroke:none;">Inorg. Chem.</text>
   <text y="673.512" x="100.289,103.916" svgx:width="0.52,0.52" style="fill:rgb(0,138,141);font-family:AdvPSA5CE;font-size:6.97px;stroke:none;">55</text>
   <text y="673.512" x="107.546,109.35820000000001,111.345,114.971,118.598,122.224,125.85,129.337,132.964,136.687,140.313,143.94" svgx:width="0.26,0.55,0.52,0.52,0.52,0.52,0.5,0.52,0.52,0.52,0.52,0.26" style="fill:rgb(0,138,141);font-family:AdvPSA5CD;font-size:6.97px;stroke:none;">, 3294–3301.</text>
   <text y="695.452" x="57.656,62.594,66.443,70.07,74.205,76.0172,78.067,83.22,85.033,86.8452,88.782,92.631,96.481,100.687,104.537,106.34920000000001,108.285,114.889,116.702,118.5142,120.474,124.463,128.313,130.12519999999998,132.153,137.091,138.904,140.7162,142.642,146.491,150.341,154.037,157.887,162.168,163.9802,165.943,171.752,173.565,175.3772,177.338,182.275,186.125,189.974,193.824,195.6362,197.634,201.623,203.437" svgx:width="0.71,0.55,0.52,0.59,0.26,0.55,0.74,0.26,0.26,0.55,0.55,0.55,0.59,0.55,0.26,0.55,0.95,0.26,0.26,0.55,0.57,0.55,0.26,0.55,0.71,0.26,0.26,0.55,0.55,0.55,0.52,0.55,0.61,0.26,0.55,0.83,0.26,0.26,0.55,0.71,0.55,0.55,0.55,0.26,0.55,0.57,0.26,0.26" style="fill:rgb(0,138,141);font-family:AdvPSA5CD;font-size:6.97px;stroke:none;">Chao, D., Zhou, W., Ye, C., Zhang, Q., Chen, Y.,</text>
   <text y="703.389" x="57.656,63.103,66.952,68.7642,70.752,74.239,76.053,77.8652,79.823,85.039,88.665,91.859,95.709,98.903,100.71520000000001,102.671,106.953,108.766,110.57820000000001,112.592,116.219,120.068,124.3197,126.313,132.122,133.789,137.415,141.55,143.3622,145.362,149.212,151.025,153.347,157.197,159.0092,161.01,162.823,166.45,170.076,173.702,177.329,179.142,180.9542,182.951,187.742" svgx:width="0.78,0.55,0.26,0.55,0.5,0.26,0.26,0.55,0.74,0.52,0.46,0.55,0.46,0.26,0.55,0.61,0.26,0.26,0.55,0.52,0.55,0.61,0.55,0.83,0.24,0.52,0.59,0.26,0.55,0.55,0.26,0.33,0.55,0.26,0.55,0.26,0.52,0.52,0.52,0.52,0.26,0.26,0.55,0.69,0.55" style="fill:rgb(0,138,141);font-family:AdvPSA5CD;font-size:6.97px;stroke:none;">Gu, L., Davey, K., and Qiao, S.-Z. (2019). An</text>
   <text y="711.383" x="57.656,61.506,63.173,67.022,70.363,72.685,75.007,79.143,80.901,84.095,86.418,88.084,91.42960000000001,93.374,97.224,101.073,104.56,110.732,114.581" svgx:width="0.55,0.24,0.55,0.48,0.33,0.33,0.59,0.24,0.46,0.33,0.24,0.48,0.55,0.55,0.55,0.5,0.88,0.55,0.83" style="fill:rgb(0,138,141);font-family:AdvPSA5CD;font-size:6.97px;stroke:none;">electrolytic Zn–MnO</text>
   <text y="712.573" x="120.472" svgx:width="0.52" style="fill:rgb(0,138,141);font-family:AdvPSA5CD;font-size:4.65px;stroke:none;">2</text>
   <text y="711.383" x="125.121,129.403,133.029,135.352,137.674,141.524,143.846,147.0522,149.046,151.076,155.211,157.5111,159.535,163.384,165.051,169.333" svgx:width="0.61,0.52,0.33,0.33,0.55,0.33,0.46,0.55,0.29,0.59,0.33,0.55,0.55,0.24,0.61,0.55" style="fill:rgb(0,138,141);font-family:AdvPSA5CD;font-size:6.97px;stroke:none;">battery for high</text>
   <text y="711.383" x="173.196" svgx:width="0.33" style="fill:rgb(0,138,141);font-family:AdvTimes;font-size:6.97px;stroke:none;">-</text>
   <text y="711.383" x="175.521,178.715,182.85,184.517,186.839,190.466,194.748" svgx:width="0.46,0.59,0.24,0.33,0.52,0.61,0.55" style="fill:rgb(0,138,141);font-family:AdvPSA5CD;font-size:6.97px;stroke:none;">voltage</text>
   <text y="719.376" x="57.656,61.282,65.196,69.4477,71.432,74.41,77.75,81.377,83.043,86.67,90.952,92.618,96.4515,98.475,102.325,106.174,110.024,112.346,116.628,119.8342,121.833,124.811,127.133,131.269,133.591,137.217,141.499,145.349,147.16119999999998,149.16,153.951,157.8,162.082,165.932,170.869,172.6812,174.672,179.61,183.459,187.371,193.327,195.1392,197.066,198.88,202.729,205.051" svgx:width="0.52,0.55,0.61,0.55,0.43,0.48,0.52,0.24,0.52,0.61,0.24,0.55,0.55,0.55,0.55,0.55,0.33,0.61,0.46,0.55,0.43,0.33,0.59,0.33,0.52,0.61,0.55,0.26,0.55,0.69,0.55,0.61,0.55,0.71,0.26,0.55,0.71,0.55,0.55,0.85,0.26,0.55,0.26,0.55,0.33,0.26" style="fill:rgb(0,138,141);font-family:AdvPSA5CD;font-size:6.97px;stroke:none;">and scalable energy storage. Angew. Chem. Int.</text>
   <text y="727.313" x="57.656,61.791,66.073" svgx:width="0.59,0.61,0.26" style="fill:rgb(0,138,141);font-family:AdvPSA5CD;font-size:6.97px;stroke:none;">Ed.</text>
   <text y="727.313" x="69.902,73.528" svgx:width="0.52,0.52" style="fill:rgb(0,138,141);font-family:AdvPSA5CE;font-size:6.97px;stroke:none;">58</text>
   <text y="727.313" x="77.159,78.97120000000001,80.958,84.584,88.21,91.837,95.463,98.95,102.576,106.203,109.829,113.455" svgx:width="0.26,0.55,0.52,0.52,0.52,0.52,0.5,0.52,0.52,0.52,0.52,0.26" style="fill:rgb(0,138,141);font-family:AdvPSA5CD;font-size:6.97px;stroke:none;">, 7823–7828.</text>
   <text y="579.855" x="226.035,230.972,234.822,238.734,242.584,246.866,248.6782,250.583,254.433,256.246,258.0582,259.938,264.875,268.725,272.575,276.424,278.2362,280.178,283.519,285.332,287.1442,289.022,294.469,298.604,302.454,304.2662,306.201,310.483,312.296,314.1082,316.009,319.635,323.485,327.73670000000004,329.672,333.522,337.371,341.221,345.07,346.8822,348.778,352.767,354.5792,356.488,358.302,361.928,365.554,369.181,372.807,374.62" svgx:width="0.71,0.55,0.55,0.55,0.61,0.26,0.55,0.55,0.26,0.26,0.55,0.71,0.55,0.55,0.55,0.26,0.55,0.48,0.26,0.26,0.55,0.78,0.59,0.55,0.26,0.55,0.61,0.26,0.26,0.55,0.52,0.55,0.61,0.55,0.55,0.55,0.55,0.55,0.26,0.55,0.57,0.26,0.55,0.26,0.52,0.52,0.52,0.52,0.26,0.26" style="fill:rgb(0,138,141);font-family:AdvPSA5CD;font-size:6.97px;stroke:none;">Cheng, F., Chen, J., Gou, X., and Shen, P. (2005).</text>
   <text y="587.849" x="226.035,231.042,232.709,236.991" svgx:width="0.72,0.24,0.61,0.55" style="fill:rgb(0,138,141);font-family:AdvPSA5CD;font-size:6.97px;stroke:none;">High</text>
   <text y="587.849" x="240.888" svgx:width="0.33" style="fill:rgb(0,138,141);font-family:AdvTimes;font-size:6.97px;stroke:none;">-</text>
   <text y="587.849" x="243.213,247.495,251.63,256.568,260.417,262.71709999999996,264.757,268.383,270.05,273.39,277.017,278.684,280.35,284.2,288.0335,290.043,293.892,297.742,301.229,307.4,311.25" svgx:width="0.61,0.59,0.71,0.55,0.33,0.55,0.52,0.24,0.48,0.52,0.24,0.24,0.55,0.55,0.55,0.55,0.55,0.5,0.88,0.55,0.83" style="fill:rgb(0,138,141);font-family:AdvPSA5CD;font-size:6.97px;stroke:none;">power alkaline Zn–MnO</text>
   <text y="588.983" x="317.14" svgx:width="0.52" style="fill:rgb(0,138,141);font-family:AdvPSA5CD;font-size:4.65px;stroke:none;">2</text>
   <text y="587.849" x="321.789,326.071,329.697,332.019,334.342,338.191,340.514,342.18,346.111,349.1081,351.043,354.893,357.871,359.537,363.387" svgx:width="0.61,0.52,0.33,0.33,0.55,0.33,0.24,0.55,0.43,0.55,0.55,0.43,0.24,0.55,0.61" style="fill:rgb(0,138,141);font-family:AdvPSA5CD;font-size:6.97px;stroke:none;">batteries using</text>
   <text y="595.842" x="226.034" svgx:width="0.58" style="fill:rgb(0,138,141);font-family:AdvPS3F4C13;font-size:6.97px;stroke:none;">g</text>
   <text y="595.842" x="230.116" svgx:width="0.33" style="fill:rgb(0,138,141);font-family:AdvTimes;font-size:6.97px;stroke:none;">-</text>
   <text y="595.842" x="232.441,238.612,242.462" svgx:width="0.88,0.55,0.83" style="fill:rgb(0,138,141);font-family:AdvPSA5CD;font-size:6.97px;stroke:none;">MnO</text>
   <text y="596.977" x="248.315" svgx:width="0.52" style="fill:rgb(0,138,141);font-family:AdvPSA5CD;font-size:4.65px;stroke:none;">2</text>
   <text y="595.843" x="252.964,256.813,260.504,264.353,268.489,273.426,275.093,277.415,281.265,284.243,286.858,290.707,294.334,298.183,302.319,304.641,308.581,312.863,316.713,319.7101,321.677,325.304,329.153,333.40470000000005,335.397,339.246,340.913,344.763,348.103,350.425,352.748,356.883,358.55,361.744,364.066,365.733" svgx:width="0.55,0.52,0.55,0.59,0.71,0.24,0.33,0.55,0.43,0.38,0.55,0.52,0.55,0.59,0.33,0.55,0.61,0.55,0.43,0.55,0.52,0.55,0.61,0.55,0.55,0.24,0.55,0.48,0.33,0.33,0.59,0.24,0.46,0.33,0.24,0.48" style="fill:rgb(0,138,141);font-family:AdvPSA5CD;font-size:6.97px;stroke:none;">nanowires/nanotubes and electrolytic</text>
   <text y="603.78" x="226.034,229.012,230.679,234.528,237.87359999999998,239.868,244.149,248.285,253.222,257.504,261.354,263.676,265.4882,267.478,272.269,276.55,279.744,281.55620000000005,283.579,289.75,293.377,295.699,299.549,301.871" svgx:width="0.43,0.24,0.55,0.48,0.55,0.61,0.59,0.71,0.61,0.55,0.33,0.26,0.55,0.69,0.61,0.46,0.26,0.55,0.88,0.52,0.33,0.55,0.33,0.26" style="fill:rgb(0,138,141);font-family:AdvPSA5CD;font-size:6.97px;stroke:none;">zinc powder. Adv. Mater.</text>
   <text y="603.78" x="305.688,309.314" svgx:width="0.52,0.52" style="fill:rgb(0,138,141);font-family:AdvPSA5CE;font-size:6.97px;stroke:none;">17</text>
   <text y="603.78" x="312.945,314.7572,316.743,320.37,323.996,327.622,331.249,334.736,338.362,341.988,345.615,349.241" svgx:width="0.26,0.55,0.52,0.52,0.52,0.52,0.5,0.52,0.52,0.52,0.52,0.26" style="fill:rgb(0,138,141);font-family:AdvPSA5CD;font-size:6.97px;stroke:none;">, 2753–2756.</text>
   <text y="620.391" x="226.034,230.972,235.107,240.045,241.795,245.645,247.4572,248.712,253.07,254.884,259.821,261.634,266.572,268.385,270.1972,271.503,275.492,279.118,283.4,285.067,288.407,292.257,294.0692,295.428,300.219,302.032,303.8442,305.123,308.749,312.599,316.85069999999996,318.163,322.152,326.001,330.137,336.092,339.07,342.995,346.844,348.6562,349.912,353.398,355.21020000000004,356.488,358.301,361.927,365.554,369.18,372.807,374.62" svgx:width="0.71,0.59,0.71,0.24,0.55,0.26,0.55,0.63,0.26,0.71,0.26,0.71,0.26,0.26,0.55,0.57,0.52,0.61,0.24,0.48,0.55,0.26,0.55,0.69,0.26,0.26,0.55,0.52,0.55,0.61,0.55,0.57,0.55,0.59,0.85,0.43,0.55,0.55,0.26,0.55,0.5,0.26,0.55,0.26,0.52,0.52,0.52,0.52,0.26,0.26" style="fill:rgb(0,138,141);font-family:AdvPSA5CD;font-size:6.97px;stroke:none;">Cowie, B.C.C., Tadich, A., and Thomsen, L. (2010).</text>
   <text y="628.384" x="226.034,230.023,233.873,237.70649999999998,239.697,243.038,246.887,249.21,251.603,255.453,259.302,261.6021,263.565,267.847,271.697,274.019,276.048,280.184,282.506,288.462,292.088,295.938,299.278,303.11150000000004,305.179,309.315,311.3363,313.286,315.609,319.522,323.3555,325.305,330.242,331.909,336.191,340.0245,342.03,344.352,347.978,351.828,356.11,359.94350000000003,361.929,363.743,367.369,370.995" svgx:width="0.57,0.55,0.55,0.55,0.48,0.55,0.33,0.33,0.55,0.55,0.33,0.55,0.61,0.55,0.33,0.29,0.59,0.33,0.85,0.52,0.55,0.48,0.55,0.55,0.59,0.29,0.55,0.33,0.55,0.55,0.55,0.71,0.24,0.61,0.55,0.55,0.33,0.52,0.55,0.61,0.55,0.55,0.26,0.52,0.52,0.5" style="fill:rgb(0,138,141);font-family:AdvPSA5CD;font-size:6.97px;stroke:none;">The current performance of the wide range (90–</text>
   <text y="636.321" x="226.034,229.661,233.287,236.913,240.53740000000002,242.532,246.382,250.583,252.3952,254.324,257.302,261.438,263.467,265.76709999999997,267.761" svgx:width="0.52,0.52,0.52,0.52,0.55,0.55,0.59,0.26,0.55,0.43,0.59,0.29,0.33,0.55,0.61" style="fill:rgb(0,138,141);font-family:AdvPSA5CD;font-size:6.97px;stroke:none;">2500 eV) soft X</text>
   <text y="636.321" x="272.069" svgx:width="0.33" style="fill:rgb(0,138,141);font-family:AdvTimes;font-size:6.97px;stroke:none;">-</text>
   <text y="636.321" x="274.393,276.716,280.342,283.5482,285.505,289.787,293.637,297.263,303.219,304.886,306.552,310.402,314.2355,316.291,319.917,322.21709999999996,324.228,326.55,330.399,334.2325,336.19,340.981,344.83,347.808,350.13,352.453,356.079,357.746,359.412,363.039" svgx:width="0.33,0.52,0.46,0.55,0.61,0.55,0.52,0.85,0.24,0.24,0.55,0.55,0.55,0.52,0.33,0.55,0.33,0.55,0.55,0.55,0.69,0.55,0.43,0.33,0.33,0.52,0.24,0.24,0.52,0.55" style="fill:rgb(0,138,141);font-family:AdvPSA5CD;font-size:6.97px;stroke:none;">ray beamline at the Australian</text>
   <text y="644.314" x="226.034,229.884,233.078,236.927,240.268,244.117,246.44,250.575,252.897,255.22,259.355,263.205,265.0172,267.081,271.872,273.686,277.65889999999996,279.668,284.605,288.741,292.59,294.62,296.4322,298.434,302.423,304.745,308.88,312.221" svgx:width="0.55,0.46,0.55,0.48,0.55,0.33,0.59,0.33,0.33,0.59,0.55,0.26,0.55,0.69,0.26,0.57,0.55,0.71,0.59,0.55,0.29,0.26,0.55,0.57,0.33,0.59,0.48,0.26" style="fill:rgb(0,138,141);font-family:AdvPSA5CD;font-size:6.97px;stroke:none;">Synchrotron. AIP Conf. Proc.</text>
   <text y="644.314" x="316.006,319.633,323.259,326.885" svgx:width="0.52,0.52,0.52,0.52" style="fill:rgb(0,138,141);font-family:AdvPSA5CE;font-size:6.97px;stroke:none;">1234</text>
   <text y="644.314" x="330.577,332.3892,334.318,337.944,341.571,345.197,348.684,352.31,356.032,359.658" svgx:width="0.26,0.55,0.52,0.52,0.52,0.5,0.52,0.52,0.52,0.26" style="fill:rgb(0,138,141);font-family:AdvPSA5CD;font-size:6.97px;stroke:none;">, 307–310.</text>
   <text y="660.925" x="226.035,231.189,235.038,236.8502,238.848,245.02,246.833,248.6452,250.641,254.128,255.794,259.421,263.556,265.3682,267.365,271.647,273.46,275.2722,277.23,280.717,284.567,286.3792,288.343,294.152,295.965,297.7772,299.738,303.364,307.278,311.52970000000005,313.514,317.363,321.213,324.839,328.975,330.78720000000004,332.79,336.64,338.4522,340.387,342.201,345.827,349.453,353.08,356.706,358.519" svgx:width="0.74,0.55,0.26,0.55,0.88,0.26,0.26,0.55,0.5,0.24,0.52,0.59,0.26,0.55,0.61,0.26,0.26,0.55,0.5,0.55,0.26,0.55,0.83,0.26,0.26,0.55,0.52,0.55,0.61,0.55,0.55,0.55,0.52,0.59,0.26,0.55,0.55,0.26,0.55,0.26,0.52,0.52,0.52,0.52,0.26,0.26" style="fill:rgb(0,138,141);font-family:AdvPSA5CD;font-size:6.97px;stroke:none;">Du, M., Liao, K., Lu, Q., and Shao, Z. (2019).</text>
   <text y="668.862" x="226.035,230.171,234.02,237.431,241.28,245.13,247.43009999999998,249.393,253.019,257.301,260.495,264.122,267.971,271.391,275.24,278.2371,280.178,281.845,285.67850000000004,287.662,289.984,293.834,297.6675,299.624,301.291,305.14,307.463,311.312,313.634,315.664,319.29,322.631,326.4645,328.482,332.331,336.181,340.463,342.202,346.052,349.901,353.751,356.073,357.74,361.589,365.84069999999997,367.884,372.02" svgx:width="0.59,0.55,0.48,0.55,0.55,0.33,0.55,0.52,0.61,0.46,0.52,0.55,0.48,0.55,0.43,0.55,0.24,0.55,0.55,0.33,0.55,0.55,0.55,0.24,0.55,0.33,0.55,0.33,0.29,0.52,0.48,0.55,0.55,0.55,0.55,0.61,0.24,0.55,0.55,0.55,0.33,0.24,0.55,0.61,0.55,0.59,0.29" style="fill:rgb(0,138,141);font-family:AdvPSA5CD;font-size:6.97px;stroke:none;">Recent advances in the interface engineering of</text>
   <text y="676.855" x="226.035,229.013,233.148,234.815,236.482,240.764,243.086,246.161,248.484,252.11,254.432,258.2655,260.221,263.708,265.375,267.697,269.364,273.499,277.33250000000004,279.384,283.666,287.292,289.615,291.937,295.786,298.109,299.775,303.625,306.6221,308.582,313.519,315.186,317.508,321.3415,323.379,327.005,329.328,331.65,333.317,336.943,340.283,341.95,345.576,347.2488,349.231,353.513,357.363,359.392,361.422,365.271" svgx:width="0.43,0.59,0.24,0.24,0.61,0.33,0.43,0.33,0.52,0.33,0.55,0.55,0.5,0.24,0.33,0.24,0.59,0.55,0.55,0.61,0.52,0.33,0.33,0.55,0.33,0.24,0.55,0.43,0.55,0.71,0.24,0.33,0.55,0.55,0.52,0.33,0.33,0.24,0.52,0.48,0.24,0.52,0.24,0.55,0.61,0.55,0.29,0.29,0.55,0.33" style="fill:rgb(0,138,141);font-family:AdvPSA5CD;font-size:6.97px;stroke:none;">solid-state Li-ion batteries with artiﬁcial buffer</text>
   <text y="684.792" x="226.035,227.702,231.328,234.522,238.372,240.776,243.753,245.56519999999998,247.522,250.862,254.712,258.338,260.005,261.672,265.521,269.371,273.653,277.502,280.48,282.29220000000004,284.317,290.272,293.899,296.221,300.07,302.393,304.059,307.686,309.353,312.33,314.1422,316.179,319.52,323.655,327.505,330.482,332.805,335.127,338.977,342.317,344.639,346.306,350.441,354.291,356.1032,358.133,361.759,365.609" svgx:width="0.24,0.52,0.46,0.55,0.33,0.43,0.26,0.55,0.48,0.55,0.52,0.24,0.24,0.55,0.55,0.61,0.55,0.43,0.26,0.55,0.85,0.52,0.33,0.55,0.33,0.24,0.52,0.24,0.43,0.26,0.55,0.48,0.59,0.55,0.43,0.33,0.33,0.55,0.48,0.33,0.24,0.59,0.55,0.26,0.55,0.52,0.55,0.61" style="fill:rgb(0,138,141);font-family:AdvPSA5CD;font-size:6.97px;stroke:none;">layers: challenges, materials, construction, and</text>
   <text y="692.786" x="226.035,229.376,233.225,236.92,239.243,242.869,246.21,248.532,252.381,254.704,256.37,259.348,262.975,265.297,266.964,271.099,274.949,276.76120000000003,278.818,282.953,286.803,290.652,292.975,297.256,300.4622,302.402,306.538,310.453,313.647,315.314,317.636,321.771,325.621,327.4332,329.389,333.239,336.579,338.246" svgx:width="0.48,0.55,0.52,0.33,0.52,0.48,0.33,0.55,0.33,0.24,0.43,0.52,0.33,0.24,0.59,0.55,0.26,0.55,0.59,0.55,0.55,0.33,0.61,0.46,0.55,0.59,0.55,0.46,0.24,0.33,0.59,0.55,0.26,0.55,0.55,0.48,0.24,0.26" style="fill:rgb(0,138,141);font-family:AdvPSA5CD;font-size:6.97px;stroke:none;">characterization. Energy Environ. Sci.</text>
   <text y="692.786" x="342.029,345.655" svgx:width="0.52,0.52" style="fill:rgb(0,138,141);font-family:AdvPSA5CE;font-size:6.97px;stroke:none;">12</text>
   <text y="692.786" x="349.342,351.1542,353.084,356.711,360.337,363.964,367.59" svgx:width="0.26,0.55,0.52,0.52,0.52,0.52,0.5" style="fill:rgb(0,138,141);font-family:AdvPSA5CD;font-size:6.97px;stroke:none;">, 1780–</text>
   <text y="700.78" x="226.035,229.661,233.288,236.914,240.541" svgx:width="0.52,0.52,0.52,0.52,0.26" style="fill:rgb(0,138,141);font-family:AdvPSA5CD;font-size:6.97px;stroke:none;">1804.</text>
   <text y="717.334" x="226.035,229.885,233.511,237.43,241.712,243.52419999999998,245.481,250.927,252.74,254.5522,256.536,260.386,264.235,268.371,272.22,274.03220000000005,275.983,279.323,281.136,282.94820000000004,284.941,288.93,292.556,296.406,298.2182,300.192,304.983,306.796,308.6082,310.623,314.25,318.099,322.35069999999996,324.343,327.83,329.497,333.123,336.973,341.255,343.0672,345.037,348.886,350.69820000000004,352.691,354.504,358.13,361.757,365.383,369.009,370.823" svgx:width="0.55,0.52,0.55,0.61,0.26,0.55,0.78,0.26,0.26,0.55,0.55,0.55,0.59,0.55,0.26,0.55,0.48,0.26,0.26,0.55,0.57,0.52,0.55,0.26,0.55,0.69,0.26,0.26,0.55,0.52,0.55,0.61,0.55,0.5,0.24,0.52,0.55,0.61,0.26,0.55,0.55,0.26,0.55,0.26,0.52,0.52,0.52,0.52,0.26,0.26" style="fill:rgb(0,138,141);font-family:AdvPSA5CD;font-size:6.97px;stroke:none;">Fang, G., Zhou, J., Pan, A., and Liang, S. (2018).</text>
   <text y="725.328" x="226.035,230.171,234.02,237.431,241.28,245.13,247.43009999999998,249.393,253.019,257.301,260.495,264.122,267.971,271.391,275.24,278.2371,280.178,281.845,285.67850000000004,287.662,291.288,295.57,299.42,303.269,307.405,311.254,314.2511,316.236,319.213,320.88,324.73,328.07,330.392,332.059,336.195,340.0285,342.032,346.314,349.94,352.262,354.585,358.434,360.756,362.423,366.354,369.331" svgx:width="0.59,0.55,0.48,0.55,0.55,0.33,0.55,0.52,0.61,0.46,0.52,0.55,0.48,0.55,0.43,0.55,0.24,0.55,0.55,0.52,0.61,0.55,0.55,0.59,0.55,0.43,0.55,0.43,0.24,0.55,0.48,0.33,0.24,0.59,0.55,0.55,0.61,0.52,0.33,0.33,0.55,0.33,0.24,0.55,0.43,0.26" style="fill:rgb(0,138,141);font-family:AdvPSA5CD;font-size:6.97px;stroke:none;">Recent advances in aqueous zinc-ion batteries.</text>
   <text y="733.322" x="226.035,230.826,235.763,239.5965,241.626,245.761,249.611,253.46,255.782,260.064,263.27020000000005,265.268,268.754,272.604,274.926,277.249" svgx:width="0.69,0.71,0.55,0.55,0.59,0.55,0.55,0.33,0.61,0.46,0.55,0.5,0.55,0.33,0.33,0.26" style="fill:rgb(0,138,141);font-family:AdvPSA5CD;font-size:6.97px;stroke:none;">ACS Energy Lett.</text>
   <text y="733.322" x="281.027" svgx:width="0.52" style="fill:rgb(0,138,141);font-family:AdvPSA5CE;font-size:6.97px;stroke:none;">3</text>
   <text y="733.322" x="284.655,286.4672,288.454,292.08,295.707,299.333,302.96,306.446,310.073,313.699,317.326,320.952" svgx:width="0.26,0.55,0.52,0.52,0.52,0.52,0.5,0.52,0.52,0.52,0.52,0.26" style="fill:rgb(0,138,141);font-family:AdvPSA5CD;font-size:6.97px;stroke:none;">, 2480–2501.</text>
   <text y="579.855" x="394.413,398.263,401.889,405.739,410.021,411.83320000000003,413.86,419.306,421.119,422.93120000000005,424.858,428.708,432.557,436.407,438.2192,440.222,445.16,446.973,448.78520000000003,450.767,455.705,459.554,463.404,467.253,469.0652,471.064,477.236,479.049,480.8612,482.799,486.649,490.498,494.705,498.555,500.3672,502.302,505.643,507.456,509.26820000000004,511.26,515.249,518.876,522.725,527.007,528.8191999999999,530.82,535.178,536.992" svgx:width="0.55,0.52,0.55,0.61,0.26,0.55,0.78,0.26,0.26,0.55,0.55,0.55,0.55,0.26,0.55,0.71,0.26,0.26,0.55,0.71,0.55,0.55,0.55,0.26,0.55,0.88,0.26,0.26,0.55,0.55,0.55,0.59,0.55,0.26,0.55,0.48,0.26,0.26,0.55,0.57,0.52,0.55,0.61,0.26,0.55,0.63,0.26,0.26" style="fill:rgb(0,138,141);font-family:AdvPSA5CD;font-size:6.97px;stroke:none;">Fang, G., Zhu, C., Chen, M., Zhou, J., Tang, B.,</text>
   <text y="587.849" x="394.413,399.351,402.977,407.113,408.9252,410.911,415.193,417.006,418.8182,420.833,424.682,428.532,432.382,436.231,440.513,442.3252,444.305,448.587,450.4,452.2122,454.169,458.158,461.784,465.634,467.44620000000003,469.42,474.211,476.024,477.8362,479.852,483.478,487.327,491.5787,493.572,497.059,498.725,502.352,506.201,510.483,512.2952,514.322,518.171,519.9832,521.919,523.732,527.359,530.985,534.611,538.238,540.051" svgx:width="0.71,0.52,0.59,0.26,0.55,0.61,0.26,0.26,0.55,0.55,0.55,0.55,0.55,0.61,0.26,0.55,0.61,0.26,0.26,0.55,0.57,0.52,0.55,0.26,0.55,0.69,0.26,0.26,0.55,0.52,0.55,0.61,0.55,0.5,0.24,0.52,0.55,0.61,0.26,0.55,0.55,0.26,0.55,0.26,0.52,0.52,0.52,0.52,0.26,0.26" style="fill:rgb(0,138,141);font-family:AdvPSA5CD;font-size:6.97px;stroke:none;">Cao, X., Zheng, X., Pan, A., and Liang, S. (2019).</text>
   <text y="595.843" x="394.413,398.263,402.112,406.394,410.676,412.998,416.921,419.899,422.877,424.544,428.393,432.64469999999994,433.986,439.942,443.568,447.418,451.7,455.326,459.176,463.127,466.105,469.93850000000003,471.234,475.516,477.183,480.16,483.138,487.274,488.94,492.79,495.112,496.779,500.914,504.7475,506.158,507.825,511.6585,513.018,517.3,521.436,523.758,527.384,530.362,533.34,535.007,538.856" svgx:width="0.55,0.55,0.61,0.61,0.33,0.55,0.43,0.43,0.24,0.55,0.61,0.55,0.85,0.52,0.55,0.61,0.52,0.55,0.55,0.43,0.55,0.55,0.61,0.24,0.43,0.43,0.59,0.24,0.55,0.33,0.24,0.59,0.55,0.55,0.24,0.55,0.55,0.61,0.59,0.33,0.52,0.43,0.43,0.24,0.55,0.85" style="fill:rgb(0,138,141);font-family:AdvPSA5CD;font-size:6.97px;stroke:none;">Suppressing manganese dissolution in potassium</text>
   <text y="603.78" x="394.413,400.369,403.995,407.845,412.127,415.753,419.603,423.327,425.65,429.4835,431.434,436.372,438.039,440.361,444.1945,446.175,448.497,450.164,453.504,457.33750000000003,459.385,463.52,466.861,470.055,474.337,478.186,482.0195,483.99,488.272,492.122,494.151,498.001,501.341,503.664,506.6611,508.653,512.502,516.352,520.634,524.26,528.542,532.391" svgx:width="0.85,0.52,0.55,0.61,0.52,0.55,0.52,0.33,0.55,0.55,0.71,0.24,0.33,0.55,0.55,0.33,0.24,0.48,0.55,0.55,0.59,0.48,0.46,0.61,0.55,0.55,0.55,0.61,0.55,0.29,0.55,0.48,0.33,0.43,0.55,0.55,0.55,0.61,0.52,0.61,0.55,0.61" style="fill:rgb(0,138,141);font-family:AdvPSA5CD;font-size:6.97px;stroke:none;">manganate with rich oxygen defects engaged</text>
   <text y="611.773" x="394.413,398.263,399.93,404.211,408.061,410.383,414.233,418.168,422.018,424.34,428.622,431.816,434.138,438.42,442.27,446.119,449.097,450.764,453.086,456.29220000000004,458.308,461.934,465.784,470.0357,472.028,476.31,480.16,482.482,486.108,490.39,492.057,495.89050000000003,497.937,501.564,505.846,509.695,513.545,517.68,521.53,524.5271,526.511,529.489,531.156,535.005,538.346" svgx:width="0.55,0.24,0.61,0.55,0.33,0.55,0.55,0.55,0.33,0.61,0.46,0.33,0.61,0.55,0.55,0.43,0.24,0.33,0.46,0.55,0.52,0.55,0.61,0.55,0.61,0.55,0.33,0.52,0.61,0.24,0.55,0.55,0.52,0.61,0.55,0.55,0.59,0.55,0.43,0.55,0.43,0.24,0.55,0.48,0.33" style="fill:rgb(0,138,141);font-family:AdvPSA5CD;font-size:6.97px;stroke:none;">high-energy-density and durable aqueous zinc-</text>
   <text y="619.71" x="394.413,396.08,400.215,404.0485,406.036,410.318,413.944,416.266,418.589,422.438,424.76,428.033,429.84520000000003,431.775,436.566,440.848,444.042,445.8542,447.876,451.725,455.575,459.424,462.765,465.087,466.8992,468.853,475.089,478.715,481.038,484.887,487.21" svgx:width="0.24,0.59,0.55,0.55,0.61,0.52,0.33,0.33,0.55,0.33,0.46,0.26,0.55,0.69,0.61,0.46,0.26,0.55,0.55,0.55,0.55,0.48,0.33,0.26,0.55,0.88,0.52,0.33,0.55,0.33,0.26" style="fill:rgb(0,138,141);font-family:AdvPSA5CD;font-size:6.97px;stroke:none;">ion battery. Adv. Funct. Mater.</text>
   <text y="619.71" x="490.961,494.588" svgx:width="0.52,0.52" style="fill:rgb(0,138,141);font-family:AdvPSA5CE;font-size:6.97px;stroke:none;">29</text>
   <text y="619.71" x="498.275,500.0872,502.016,505.643,509.269,512.895,516.522,520.148,523.775,527.401" svgx:width="0.26,0.55,0.52,0.52,0.52,0.52,0.52,0.52,0.52,0.26" style="fill:rgb(0,138,141);font-family:AdvPSA5CD;font-size:6.97px;stroke:none;">, 1808375.</text>
   <text y="640.63" x="394.413,398.263,402.112,403.92420000000004,405.922,409.911,411.724,413.5362,415.504,422.108,425.957,427.624,429.43620000000004,431.434,437.244,439.057,440.86920000000003,442.83,446.68,450.529,454.156,458.005,462.287,464.0992,466.075,471.521,473.335,475.1472,477.13,483.735,487.361,491.211,495.492,497.30420000000004,499.355,503.636,505.45,507.2622,509.219,513.069,516.918,520.544,524.394,528.676,530.4882,532.463,535.804,537.617" svgx:width="0.55,0.55,0.26,0.55,0.57,0.26,0.26,0.55,0.95,0.55,0.24,0.26,0.55,0.83,0.26,0.26,0.55,0.55,0.55,0.52,0.55,0.61,0.26,0.55,0.78,0.26,0.26,0.55,0.95,0.52,0.55,0.61,0.26,0.55,0.61,0.26,0.26,0.55,0.55,0.55,0.52,0.55,0.61,0.26,0.55,0.48,0.26,0.26" style="fill:rgb(0,138,141);font-family:AdvPSA5CD;font-size:6.97px;stroke:none;">Fu, Y., Wei, Q., Zhang, G., Wang, X., Zhang, J.,</text>
   <text y="648.623" x="394.413,399.42,403.27,405.0822,407.056,411.045,412.858,414.6702,416.637,423.242,426.868,430.718,434.999,436.81120000000004,438.862,444.015,445.828,447.6402,449.577,453.426,457.276,458.943,462.792,464.6042,466.585,470.072,471.885,473.6972,475.713,479.563,483.412,487.548,491.397,493.2092,495.16,499.149,500.962,502.7742,504.798,511.402,515.251,517.0631999999999,519.028,523.017,524.83,526.6422,528.609,532.459,534.7591,536.773,540.4,542.066" svgx:width="0.72,0.55,0.26,0.55,0.57,0.26,0.26,0.55,0.95,0.52,0.55,0.61,0.26,0.55,0.74,0.26,0.26,0.55,0.55,0.55,0.24,0.55,0.26,0.55,0.5,0.26,0.26,0.55,0.55,0.55,0.59,0.55,0.26,0.55,0.57,0.26,0.26,0.55,0.95,0.55,0.26,0.55,0.57,0.26,0.26,0.55,0.55,0.33,0.55,0.52,0.24,0.26" style="fill:rgb(0,138,141);font-family:AdvPSA5CD;font-size:6.97px;stroke:none;">Hu, Y., Wang, D., Zuin, L., Zhou, T., Wu, Y., et al.</text>
   <text y="656.617" x="394.413,396.226,399.853,403.479,407.106,410.732,412.545,414.35720000000003,416.128,421.135,422.874,427.156,431.006,433.328,437.61,441.459,443.782,445.811,449.946,452.269,458.224,461.851,465.792,469.132,472.9655,474.692,477.015,480.864,484.058,487.908,490.23,493.208,494.874,499.241,500.908,504.74150000000003,506.498,510.124,514.406,518.256,522.105,526.241,530.09,533.0871000000001,534.845,538.694,542.544" svgx:width="0.26,0.52,0.52,0.52,0.52,0.26,0.26,0.55,0.72,0.24,0.61,0.55,0.33,0.61,0.55,0.33,0.29,0.59,0.33,0.85,0.52,0.55,0.48,0.55,0.55,0.33,0.55,0.46,0.55,0.33,0.43,0.24,0.61,0.24,0.55,0.55,0.52,0.61,0.55,0.55,0.59,0.55,0.43,0.55,0.55,0.55,0.33" style="fill:rgb(0,138,141);font-family:AdvPSA5CD;font-size:6.97px;stroke:none;">(2018). High-performance reversible aqueous Zn-</text>
   <text y="664.554" x="394.413,396.08,400.215,404.0485,406.036,410.318,413.944,416.266,418.589,422.438,424.76,427.9662,429.961,434.243,437.869,440.847,444.696,448.94770000000005,450.995,455.13,458.9635,460.973,465.255,469.39,471.712,475.848,479.697,482.6941,484.671,490.843,494.692" svgx:width="0.24,0.59,0.55,0.55,0.61,0.52,0.33,0.33,0.55,0.33,0.46,0.55,0.61,0.52,0.43,0.55,0.61,0.55,0.59,0.55,0.55,0.61,0.59,0.33,0.59,0.55,0.43,0.55,0.88,0.55,0.83" style="fill:rgb(0,138,141);font-family:AdvPSA5CD;font-size:6.97px;stroke:none;">ion battery based on porous MnO</text>
   <text y="665.745" x="500.485" svgx:width="0.48" style="fill:rgb(0,138,141);font-family:AdvPSA5CD;font-size:4.65px;stroke:none;">x</text>
   <text y="664.555" x="504.964,508.813,512.44,516.289,520.424,522.747,526.961,531.243" svgx:width="0.55,0.52,0.55,0.59,0.33,0.59,0.61,0.43" style="fill:rgb(0,138,141);font-family:AdvPSA5CD;font-size:6.97px;stroke:none;">nanorods</text>
   <text y="672.548" x="394.412,397.753,401.888,405.514,407.837,411.761,416.0127,417.997,422.279,425.4852,427.408,433.58,439.389,443.239,445.561,449.916,453.765,456.088,457.754,460.948,464.798,469.04970000000003,471.063,476.509,478.831,483.113,487.249,491.531,495.38,499.6317,501.678,505.018,508.644,510.967,515.249,519.384,523.234,525.0462,527.077,531.868,536.15,539.344" svgx:width="0.48,0.59,0.52,0.33,0.55,0.61,0.55,0.61,0.46,0.55,0.88,0.83,0.55,0.33,0.61,0.55,0.33,0.24,0.46,0.55,0.61,0.55,0.78,0.33,0.61,0.59,0.61,0.55,0.61,0.55,0.48,0.52,0.33,0.61,0.59,0.55,0.26,0.55,0.69,0.61,0.46,0.26" style="fill:rgb(0,138,141);font-family:AdvPSA5CD;font-size:6.97px;stroke:none;">coated by MOF-derived N-doped carbon. Adv.</text>
   <text y="680.485" x="394.412,398.548,402.397,406.247,408.569,412.851,416.0572,418.054,424.226,427.852,430.174,434.024,436.346" svgx:width="0.59,0.55,0.55,0.33,0.61,0.46,0.55,0.88,0.52,0.33,0.55,0.33,0.26" style="fill:rgb(0,138,141);font-family:AdvPSA5CD;font-size:6.97px;stroke:none;">Energy Mater.</text>
   <text y="680.485" x="440.163" svgx:width="0.52" style="fill:rgb(0,138,141);font-family:AdvPSA5CE;font-size:6.97px;stroke:none;">8</text>
   <text y="680.485" x="443.792,445.6042,447.59,451.217,454.843,458.469,462.096,465.722,469.348,472.975" svgx:width="0.26,0.55,0.52,0.52,0.52,0.52,0.52,0.52,0.52,0.26" style="fill:rgb(0,138,141);font-family:AdvPSA5CD;font-size:6.97px;stroke:none;">, 1801445.</text>
   <text y="701.405" x="394.412,399.859,403.485,407.335,411.25,413.0622,414.425,418.56,420.374,422.18620000000004,423.609,429.781,433.191,438.637,442.487,444.154,445.82,447.487,449.29920000000004,450.709,455.646,457.46,461.595,463.408,465.22020000000003,466.64,470.629,474.255,478.537,480.204,483.544,487.394,489.2062,490.679,495.47,497.283,499.09520000000003,500.543,505.481,509.616,514.553,516.22,520.07,521.8822,523.334,527.693,529.506,534.443,536.257,541.194,543.007" svgx:width="0.78,0.52,0.55,0.55,0.26,0.55,0.59,0.26,0.26,0.55,0.88,0.48,0.78,0.55,0.24,0.24,0.24,0.26,0.55,0.71,0.26,0.59,0.26,0.26,0.55,0.57,0.52,0.61,0.24,0.48,0.55,0.26,0.55,0.69,0.26,0.26,0.55,0.71,0.59,0.71,0.24,0.55,0.26,0.55,0.63,0.26,0.71,0.26,0.71,0.26,0.26" style="fill:rgb(0,138,141);font-family:AdvPSA5CD;font-size:6.97px;stroke:none;">Gann, E., McNeill, C.R., Tadich, A., Cowie, B.C.C.,</text>
   <text y="709.399" x="394.412,398.038,401.888,406.13969999999995,408.132,412.121,415.971,420.106,426.062,429.04,432.965,436.814,438.62620000000004,440.618,444.105,445.91720000000004,447.875,449.689,453.315,456.941,460.568,464.194,466.007,467.8192,469.816,475.626,479.475,481.142,484.482,487.8276,489.83,494.621,498.4545,500.431,505.878,510.013,514.295,519.086,522.936,526.7695,528.779,532.768,536.903,541.039" svgx:width="0.52,0.55,0.61,0.55,0.57,0.55,0.59,0.85,0.43,0.55,0.55,0.26,0.55,0.5,0.26,0.55,0.26,0.52,0.52,0.52,0.52,0.26,0.26,0.55,0.83,0.55,0.24,0.48,0.48,0.55,0.69,0.55,0.55,0.78,0.59,0.61,0.69,0.55,0.55,0.55,0.57,0.59,0.59,0.24" style="fill:rgb(0,138,141);font-family:AdvPSA5CD;font-size:6.97px;stroke:none;">and Thomsen, L. (2016). Quick AS NEXAFS Tool</text>
   <text y="717.336" x="394.412,396.225,402.034,406.826,412.272,416.261,418.167,419.9792,421.908,425.5324,427.521,431.803,434.125,438.261,442.543,444.865,448.491,454.4155,456.435,458.464,462.6,464.9001,466.924,472.37,476.506,480.788,485.579,489.428,493.2615,495.271,496.938,501.073,504.699,508.981,510.648,514.498,518.7497000000001,520.783,524.409,528.259" svgx:width="0.26,0.83,0.69,0.78,0.57,0.26,0.26,0.55,0.52,0.55,0.61,0.33,0.59,0.61,0.33,0.52,0.85,0.55,0.29,0.59,0.33,0.55,0.78,0.59,0.61,0.69,0.55,0.55,0.55,0.24,0.59,0.52,0.61,0.24,0.55,0.61,0.55,0.52,0.55,0.61" style="fill:rgb(0,138,141);font-family:AdvPSA5CD;font-size:6.97px;stroke:none;">(QANT): a program for NEXAFS loading and</text>
   <text y="725.33" x="394.412,398.038,401.888,405.514,407.181,410.375,413.353,415.105,418.1021,419.584,423.866,427.716,430.91,434.759,436.426,440.561,444.843,448.693,452.9447,454.508,458.135,460.4351,461.992,464.314,468.164,471.9975,473.501,478.292,482.141,485.119,487.441,489.764,493.39,495.057,496.723,500.35,504.18350000000004,505.817,509.666,512.86,516.71,520.05,523.9,526.222,530.357,532.68,535.002,539.137,542.987" svgx:width="0.52,0.55,0.52,0.24,0.46,0.43,0.24,0.43,0.55,0.61,0.55,0.46,0.55,0.24,0.59,0.61,0.55,0.61,0.55,0.52,0.33,0.55,0.33,0.55,0.55,0.55,0.69,0.55,0.43,0.33,0.33,0.52,0.24,0.24,0.52,0.55,0.55,0.55,0.46,0.55,0.48,0.55,0.33,0.59,0.33,0.33,0.59,0.55,0.26" style="fill:rgb(0,138,141);font-family:AdvPSA5CD;font-size:6.97px;stroke:none;">analysis developed at the Australian Synchrotron.</text>
   <text y="733.324" x="394.412,397.753,399.5652,401.555,405.405,408.599,412.448,415.789,419.638,421.961,426.096,428.418,430.741,434.876,438.726,440.5382,442.545,446.681,450.307,454.589" svgx:width="0.48,0.26,0.55,0.55,0.46,0.55,0.48,0.55,0.33,0.59,0.33,0.33,0.59,0.55,0.26,0.55,0.59,0.52,0.61,0.26" style="fill:rgb(0,138,141);font-family:AdvPSA5CD;font-size:6.97px;stroke:none;">J. Synchrotron. Rad.</text>
   <text y="733.324" x="458.418,462.045" svgx:width="0.52,0.52" style="fill:rgb(0,138,141);font-family:AdvPSA5CE;font-size:6.97px;stroke:none;">23</text>
   <text y="733.324" x="465.675,467.48720000000003,469.474,473.1,476.727,480.353,483.84,487.466,491.093,494.719" svgx:width="0.26,0.55,0.52,0.52,0.52,0.5,0.52,0.52,0.52,0.26" style="fill:rgb(0,138,141);font-family:AdvPSA5CD;font-size:6.97px;stroke:none;">, 374–380.</text>
  </g>
  <g begin="text">
   <text y="762.973" x="57.657,61.506" svgx:width="0.55,0.55" style="fill:rgb(0,0,0);font-family:AdvPSA5BA;font-size:6.97px;stroke:none;">12</text>
   <text y="762.973" x="78.633,80.3,84.149,87.49,89.157,93.006,96.856,100.196" svgx:width="0.24,0.55,0.48,0.24,0.55,0.55,0.48,0.55" style="fill:rgb(0,0,0);font-family:AdvPSA5B8;font-size:6.97px;stroke:none;">iScience</text>
   <text y="762.973" x="106.016,109.865" svgx:width="0.55,0.55" style="fill:rgb(0,0,0);font-family:AdvPSA5B9;font-size:6.97px;stroke:none;">23</text>
   <text y="762.973" x="113.726,115.6776,117.638,121.487,125.337,129.186,133.036,136.885,140.735,142.68660000000003,144.681,150.852,154.545,156.867,160.208,164.04149999999998,165.997,169.847,173.697,175.64860000000002,177.62,181.47,185.319,189.169" svgx:width="0.28,0.55,0.55,0.55,0.55,0.55,0.55,0.55,0.28,0.55,0.88,0.52,0.33,0.48,0.55,0.55,0.55,0.55,0.28,0.55,0.55,0.55,0.55,0.55" style="fill:rgb(0,0,0);font-family:AdvPSA5B8;font-size:6.97px;stroke:none;">, 100943, March 27, 2020</text>
  </g>
  <path style="fill:rgb(0,139,142);stroke:none;stroke-width:1.0;" d="M60.500 52.180 M57.680 53.770 "/>
  <path style="fill:rgb(0,139,142);stroke:none;stroke-width:1.0;" d="M65.020 59.320 C65.020 61.200 66.490 61.940 68.150 61.940 C69.240 61.940 70.900 61.620 70.900 60.170 C70.900 58.650 68.780 58.390 66.700 57.830 C64.600 57.280 62.480 56.460 62.480 53.810 C62.480 50.910 65.220 49.530 67.770 49.530 C70.730 49.530 73.440 50.810 73.440 54.090 L70.430 54.090 C70.330 52.380 69.120 51.940 67.630 51.940 C66.640 51.940 65.490 52.360 65.490 53.550 C65.490 54.640 66.170 54.780 69.720 55.690 C70.750 55.950 73.920 56.600 73.920 59.820 C73.920 62.410 71.880 64.350 68.030 64.350 C64.900 64.350 61.960 62.810 62.000 59.320 L65.020 59.320 "/>
  <path style="fill:rgb(0,139,142);stroke:none;stroke-width:1.0;" d="M81.930 57.380 C81.750 56.230 81.020 55.610 79.850 55.610 C78.040 55.610 77.450 57.440 77.450 58.940 C77.450 60.410 78.020 62.180 79.790 62.180 C81.100 62.180 81.850 61.340 82.030 60.090 L84.740 60.090 C84.390 62.810 82.500 64.300 79.810 64.300 C76.710 64.300 74.630 62.110 74.630 59.040 C74.630 55.850 76.540 53.490 79.870 53.490 C82.280 53.490 84.510 54.760 84.680 57.380 L81.930 57.380 "/>
  <path style="fill:rgb(0,139,142);stroke:none;stroke-width:1.0;" d="M88.630 52.180 M85.810 53.770 "/>
  <path style="fill:rgb(0,139,142);stroke:none;stroke-width:1.0;" d="M92.590 59.580 C92.670 61.360 93.540 62.170 95.110 62.170 C96.240 62.170 97.150 61.480 97.330 60.850 L99.810 60.850 C99.010 63.260 97.330 64.300 95.010 64.300 C91.780 64.300 89.780 62.080 89.780 58.900 C89.780 55.830 91.900 53.490 95.010 53.490 C98.500 53.490 100.190 56.430 99.990 59.580 L92.590 59.580 ZM97.170 57.790 C96.910 56.370 96.300 55.610 94.930 55.610 C93.150 55.610 92.630 57.000 92.590 57.790 L97.170 57.790 "/>
  <path style="fill:rgb(0,139,142);stroke:none;stroke-width:1.0;" d="M101.060 53.770 L103.730 53.770 L103.730 55.200 L103.790 55.200 C104.500 54.050 105.740 53.490 106.920 53.490 C109.920 53.490 110.670 55.180 110.670 57.710 L110.670 64.020 L107.850 64.020 L107.850 58.230 C107.850 56.540 107.360 55.710 106.050 55.710 C104.530 55.710 103.870 56.560 103.870 58.650 L103.870 64.020 L101.060 64.020 L101.060 53.770 "/>
  <path style="fill:rgb(0,139,142);stroke:none;stroke-width:1.0;" d="M118.730 57.380 C118.550 56.230 117.820 55.610 116.650 55.610 C114.840 55.610 114.250 57.440 114.250 58.940 C114.250 60.410 114.820 62.180 116.590 62.180 C117.900 62.180 118.650 61.340 118.830 60.090 L121.550 60.090 C121.190 62.810 119.310 64.300 116.610 64.300 C113.520 64.300 111.440 62.110 111.440 59.040 C111.440 55.850 113.340 53.490 116.670 53.490 C119.090 53.490 121.310 54.760 121.490 57.380 L118.730 57.380 "/>
  <path style="fill:rgb(0,139,142);stroke:none;stroke-width:1.0;" d="M57.680 49.530 M124.890 59.580 C124.970 61.360 125.850 62.170 127.410 62.170 C128.540 62.170 129.460 61.480 129.630 60.850 L132.110 60.850 C131.320 63.260 129.630 64.300 127.310 64.300 C124.080 64.300 122.080 62.080 122.080 58.900 C122.080 55.830 124.200 53.490 127.310 53.490 C130.800 53.490 132.490 56.430 132.290 59.580 L124.890 59.580 ZM129.470 57.790 C129.220 56.370 128.600 55.610 127.230 55.610 C125.450 55.610 124.930 57.000 124.890 57.790 L129.470 57.790 "/>
  <path style="fill:rgb(220,219,219);stroke:none;stroke-width:1.0;" d="M508.760 54.130 L505.880 54.130 L505.880 56.250 L508.010 56.250 C509.280 56.250 510.410 56.530 510.410 58.120 C510.410 59.710 509.280 59.990 508.010 59.990 L505.880 59.990 L505.880 62.110 L508.760 62.110 C511.860 62.110 513.060 60.140 513.060 58.120 C513.060 56.100 511.860 54.130 508.760 54.130 "/>
  <path style="fill:rgb(220,219,219);stroke:none;stroke-width:1.0;" d="M519.070 57.320 C517.860 57.320 516.650 58.100 516.190 59.240 L516.160 59.240 L516.160 57.560 L513.810 57.560 L513.810 66.580 L516.280 66.580 L516.280 62.520 C516.280 60.930 516.910 59.620 518.720 59.620 C519.020 59.620 519.380 59.650 519.610 59.710 L519.610 57.400 C519.450 57.350 519.240 57.320 519.070 57.320 "/>
  <path style="fill:rgb(220,219,219);stroke:none;stroke-width:1.0;" d="M523.740 57.320 C521.000 57.320 519.140 59.380 519.140 62.080 C519.140 64.870 520.900 66.820 523.740 66.820 C525.780 66.820 527.260 65.910 527.960 63.790 L525.780 63.790 C525.620 64.340 524.820 64.960 523.830 64.960 C522.450 64.960 521.680 64.240 521.610 62.670 L528.110 62.670 C528.290 59.900 526.800 57.320 523.740 57.320 M521.610 61.100 C521.650 60.400 522.100 59.180 523.670 59.180 C524.870 59.180 525.410 59.850 525.640 61.100 L521.610 61.100 "/>
  <path style="fill:rgb(220,219,219);stroke:none;stroke-width:1.0;" d="M532.570 57.320 C530.640 57.320 528.650 57.910 528.650 60.210 C528.650 61.800 530.080 62.300 531.510 62.620 C533.290 63.000 534.310 63.270 534.310 64.010 C534.310 64.890 533.410 65.160 532.690 65.160 C531.720 65.160 530.810 64.730 530.800 63.650 L528.440 63.650 C528.550 66.040 530.590 66.820 532.680 66.820 C534.730 66.820 536.790 66.050 536.790 63.680 C536.790 62.010 535.380 61.490 533.930 61.150 C532.520 60.820 531.130 60.700 531.130 59.810 C531.130 59.080 531.950 58.970 532.500 58.970 C533.390 58.970 534.120 59.240 534.190 60.200 L536.540 60.200 C536.350 57.980 534.540 57.320 532.570 57.320 "/>
  <path style="fill:rgb(220,219,219);stroke:none;stroke-width:1.0;" d="M541.230 57.320 C539.290 57.320 537.310 57.910 537.310 60.210 C537.310 61.800 538.740 62.300 540.170 62.620 C541.940 63.000 542.970 63.270 542.970 64.010 C542.970 64.890 542.070 65.160 541.350 65.160 C540.380 65.160 539.470 64.730 539.450 63.650 L537.100 63.650 C537.210 66.040 539.240 66.820 541.340 66.820 C543.390 66.820 545.450 66.050 545.450 63.680 C545.450 62.010 544.040 61.490 542.590 61.150 C541.180 60.820 539.780 60.700 539.780 59.810 C539.780 59.080 540.600 58.970 541.160 58.970 C542.050 58.970 542.780 59.240 542.850 60.200 L545.200 60.200 C545.010 57.980 543.200 57.320 541.230 57.320 "/>
  <path style="fill:rgb(143,143,143);stroke:none;stroke-width:1.0;" d="M484.670 53.800 C481.470 53.800 478.950 56.020 478.950 60.370 C478.950 64.670 481.330 66.910 484.640 66.910 C487.760 66.910 489.520 65.020 490.040 62.310 L487.440 62.310 C487.130 63.840 486.130 64.650 484.690 64.650 C482.490 64.650 481.610 62.640 481.610 60.400 C481.610 56.880 483.440 56.050 484.690 56.050 C486.840 56.050 487.240 57.460 487.440 58.200 L490.040 58.200 C489.900 56.360 488.400 53.800 484.670 53.800 M505.040 54.130 M502.050 54.130 M494.820 57.110 C490.790 57.110 490.410 60.670 490.410 61.770 C490.410 65.570 492.400 66.820 495.000 66.820 C496.570 66.820 498.410 66.090 499.050 63.870 L496.560 63.870 C496.360 64.530 495.670 64.880 495.000 64.880 C493.040 64.880 492.900 63.320 492.830 62.620 L499.150 62.620 L499.150 62.190 C499.150 57.980 496.640 57.110 494.820 57.110 M492.900 61.050 C493.040 59.830 493.640 59.100 494.790 59.100 C495.570 59.100 496.520 59.560 496.660 61.050 L492.900 61.050 "/>
 </g>
</svg>
