<?xml version="1.0" encoding="UTF-8"?>
<svg height="772.973" width="4068.28" xmlns="http://www.w3.org/2000/svg">
 <g id="page" xmlns:svgx="http://www.xml-cml.org/schema/svgx">
  <g begin="text">
   <text y="643.692" x="57.657,62.056,66.614,69.2441,71.263,75.662,80.0455,81.92,86.32,88.026,92.425,96.044,98.698,101.152,105.879,110.62,114.872,116.9442,118.954,124.597,126.302,128.957,133.3405,135.203,137.857,142.057,146.4405,148.464,153.056,157.456,160.66,165.059,167.6891,169.616,173.267,177.794,179.699,182.154,186.298,190.993,195.3765,197.399,201.424" svgx:width="0.55,0.59,0.33,0.55,0.55,0.55,0.55,0.55,0.24,0.55,0.48,0.33,0.33,0.59,0.61,0.55,0.26,0.55,0.71,0.24,0.33,0.55,0.55,0.33,0.55,0.55,0.55,0.59,0.55,0.43,0.55,0.33,0.55,0.46,0.59,0.24,0.33,0.52,0.61,0.55,0.55,0.52,0.33" style="fill:rgb(0,0,0);font-family:AdvPSA5CD;font-size:7.97px;stroke:none;">For SS electrode, with the onset voltage at</text>
   <text y="643.692" code="3" x="206.079" svgx:width="0.77" style="fill:rgb(0,0,0);font-family:AdvP4C4E74;font-size:7.97px;stroke:none;">?</text>
   <text y="643.692" x="212.202,216.347,218.212,222.356,226.50039999999998,228.416,233.142,235.2142,237.09,241.234,245.6175,247.521,252.248,255.855,257.76,262.488,266.513,269.167,270.878,275.604,279.9875,281.876,286.77,291.003,295.028,298.85360000000003,300.811,304.628,308.861,313.26,315.721,320.12,322.58,326.98,331.8417,333.749,337.774" svgx:width="0.52,0.26,0.52,0.52,0.55,0.59,0.26,0.55,0.52,0.55,0.55,0.59,0.48,0.24,0.61,0.52,0.33,0.24,0.59,0.55,0.55,0.61,0.55,0.52,0.48,0.55,0.48,0.55,0.55,0.33,0.55,0.33,0.55,0.61,0.55,0.52,0.33" style="fill:rgb(0,0,0);font-family:AdvPSA5CD;font-size:7.97px;stroke:none;">1.85 V, an oxidation peak centered at</text>
   <text y="643.692" code="3" x="342.426" svgx:width="0.77" style="fill:rgb(0,0,0);font-family:AdvP4C4E74;font-size:7.97px;stroke:none;">?</text>
   <text y="643.692" x="348.549,352.574,354.646,358.64,362.7844,364.763,369.46529999999996,371.453,377.096,381.034,384.4611,386.419,391.146,395.831,399.234,403.427,406.081,409.55,413.949,418.8107,420.718" svgx:width="0.52,0.26,0.52,0.52,0.55,0.59,0.55,0.71,0.52,0.43,0.55,0.59,0.61,0.43,0.55,0.33,0.46,0.55,0.61,0.55,0.26" style="fill:rgb(0,0,0);font-family:AdvPSA5CD;font-size:7.97px;stroke:none;">2.05 V was observed (</text>
   <text y="643.692" x="422.704,427.103,428.826,433.72" svgx:width="0.55,0.24,0.61,0.33" style="fill:rgb(0,138,141);font-family:AdvPSA5CD;font-size:7.97px;stroke:none;">Fig-</text>
   <text y="654.69" x="57.657,62.056,64.517,68.9005,70.696" svgx:width="0.55,0.33,0.55,0.55,0.52" style="fill:rgb(0,138,141);font-family:AdvPSA5CD;font-size:7.97px;stroke:none;">ure 4</text>
   <text y="654.69" x="74.778,79.76,81.581,83.6532,85.436,92.984,94.733,97.387,101.537,106.263,110.494,113.1241,114.915,118.94,123.34,127.0062,128.691,135.608,139.9915,141.787,145.472,150.199,156.811,161.704,166.221,170.621,174.839,179.7007,181.471,186.198,190.5815,192.3,194.954,199.16,203.5435,205.282,210.009,212.482,214.387,219.115,221.02,225.237,229.262,231.1748,232.948,237.347,239.07,243.323,247.14,249.615,252.269,256.815,261.709,265.886,267.95820000000003,269.741,272.395,276.601,278.506,281.93309999999997,283.574,288.468,290.945,295.671,299.278,303.678,306.875,310.3021,312.034,315.851,319.801,324.1845,325.98,330.874,335.25750000000005,336.921,341.066,343.554,346.208,348.657,350.562,355.29,359.542,362.196,366.402,371.2637,373.092,375.746,380.44829999999996,382.106,384.76,388.966,393.34950000000003,395.145,399.872,403.479,405.384,410.112,414.137,416.791,418.502,423.228,427.61150000000004,429.33,433.923" svgx:width="0.63,0.26,0.26,0.55,0.95,0.24,0.33,0.55,0.59,0.55,0.33,0.55,0.52,0.55,0.46,0.55,0.88,0.55,0.55,0.48,0.59,0.85,0.61,0.59,0.55,0.55,0.61,0.55,0.59,0.55,0.55,0.33,0.55,0.55,0.55,0.59,0.33,0.24,0.61,0.24,0.55,0.52,0.24,0.55,0.55,0.24,0.55,0.48,0.33,0.33,0.59,0.61,0.55,0.26,0.55,0.33,0.55,0.24,0.43,0.55,0.61,0.33,0.59,0.48,0.55,0.43,0.43,0.55,0.48,0.52,0.55,0.55,0.61,0.55,0.55,0.52,0.33,0.33,0.33,0.24,0.61,0.55,0.33,0.55,0.61,0.55,0.33,0.59,0.55,0.33,0.55,0.55,0.55,0.59,0.48,0.24,0.61,0.52,0.33,0.24,0.59,0.55,0.55,0.59,0.29" style="fill:rgb(0,0,0);font-family:AdvPSA5CD;font-size:7.97px;stroke:none;">B). Without any Mn compound on the original electrode, this process can be attributed to the oxidation of</text>
   <text y="665.632" x="57.657,60.311,64.517,68.9005,70.413,77.467" svgx:width="0.33,0.55,0.55,0.55,0.88,0.55" style="fill:rgb(0,0,0);font-family:AdvPSA5CD;font-size:7.97px;stroke:none;">the Mn</text>
   <text y="662.06" x="81.638,84.746" svgx:width="0.52,0.67" style="fill:rgb(0,0,0);font-family:AdvPSA5CD;font-size:5.31px;stroke:none;">2+</text>
   <text y="665.632" x="90.142,92.047,96.4305,97.852,100.506,104.712,109.0955,110.552,114.951,116.675,121.074,124.724,127.378,129.827,134.553,136.29,139.805,142.459,146.665,148.7372,150.236,155.712,157.833,160.487,164.693,167.3231,168.831,172.12,175.938,179.887,184.286,188.504,190.409,194.627,199.48870000000002,200.977,203.631,208.3333,209.764,213.789,215.861,220.00539999999998,221.385,226.112,228.1842,229.606,232.26,236.466,240.8495,242.306,246.705,248.428,252.828,256.478,259.132,261.581,266.307,270.992,275.37550000000005,276.888,278.961,283.635,288.035,292.252,296.979,299.452,303.704,308.5657,310.11,314.135" svgx:width="0.24,0.55,0.55,0.33,0.55,0.55,0.55,0.55,0.24,0.55,0.48,0.33,0.33,0.59,0.24,0.46,0.33,0.55,0.26,0.55,0.69,0.29,0.33,0.55,0.33,0.55,0.43,0.48,0.52,0.55,0.55,0.24,0.55,0.61,0.55,0.33,0.59,0.55,0.52,0.26,0.52,0.55,0.59,0.26,0.55,0.33,0.55,0.55,0.55,0.55,0.24,0.55,0.48,0.33,0.33,0.59,0.61,0.55,0.55,0.26,0.61,0.55,0.55,0.59,0.33,0.55,0.61,0.55,0.52,0.43" style="fill:rgb(0,0,0);font-family:AdvPSA5CD;font-size:7.97px;stroke:none;">in the electrolyte. After scanning to 2.3 V, the electrode (denoted as</text>
   <text y="665.632" x="319.012" svgx:width="1.09" style="fill:rgb(0,0,0);font-family:AdvPS480274;font-size:7.97px;stroke:none;">-</text>
   <text y="665.632" x="329.217,331.121" svgx:width="0.24,0.55" style="fill:rgb(0,0,0);font-family:AdvPSA5CD;font-size:7.97px;stroke:none;">in</text>
   <text y="665.632" x="336.927,341.169,343.074,347.811,352.211,354.671,359.071,362.4981,363.855" svgx:width="0.55,0.24,0.61,0.55,0.33,0.55,0.43,0.55,0.52" style="fill:rgb(0,138,141);font-family:AdvPSA5CD;font-size:7.97px;stroke:none;">Figures 4</text>
   <text y="665.632" x="367.882,372.863,376.669,380.694,386.584,388.6562,390.048,395.69,399.629,403.0561,404.504,408.322,412.894,414.799,416.522,420.922,424.515,427.17,431.375" svgx:width="0.63,0.5,0.52,0.74,0.26,0.55,0.71,0.52,0.43,0.55,0.48,0.59,0.24,0.24,0.55,0.48,0.33,0.55,0.61" style="fill:rgb(0,0,0);font-family:AdvPSA5CD;font-size:7.97px;stroke:none;">B–4D) was collected</text>
   <text y="676.573" x="57.657,61.801,66.047,70.9087,72.623,76.441,80.616,84.761,87.249,91.274,95.092,97.567,101.966,104.427,106.332,109.529,113.929,118.7907,120.471,125.97,127.875,130.335,134.7185,136.458,141.22,145.779,150.007,152.07920000000001,153.806,158.228,162.627,167.0105,168.659,175.576,179.9595,181.699,185.724" svgx:width="0.52,0.55,0.61,0.55,0.48,0.55,0.52,0.33,0.52,0.48,0.33,0.55,0.33,0.24,0.43,0.55,0.61,0.55,0.71,0.24,0.33,0.55,0.55,0.61,0.57,0.55,0.26,0.55,0.57,0.55,0.55,0.55,0.88,0.55,0.55,0.52,0.61" style="fill:rgb(0,0,0);font-family:AdvPSA5CD;font-size:7.97px;stroke:none;">and characterized with XPS. The Mn 2p</text>
   <text y="677.934" x="190.545,193.653,195.704" svgx:width="0.52,0.38,0.52" style="fill:rgb(0,0,0);font-family:AdvPSA5CD;font-size:5.31px;stroke:none;">3/2</text>
   <text y="676.573" x="200.523,205.285,207.939,212.485,216.63,218.381,222.7645,224.447,229.173,231.4843,233.121,235.775,239.981,244.3645,246.047,249.45,253.417,260.107,265.001,266.74,271.12350000000004,272.806,274.711,278.929,283.823,285.562,289.247,293.392,295.88,300.279,303.7061,305.291,307.945,312.151,316.176,318.8061,320.541,323.195,327.401,331.78450000000004,333.524,338.286,342.686,347.357,352.083,355.294,357.199,359.716,363.968,368.8297,370.6,377.517,381.9005,383.64,387.325,392.051,398.664,403.557,408.074,412.473,416.691,421.55269999999996,423.267,428.91,432.848" svgx:width="0.61,0.33,0.59,0.52,0.24,0.55,0.55,0.59,0.29,0.55,0.33,0.55,0.55,0.55,0.43,0.52,0.85,0.61,0.24,0.55,0.55,0.24,0.55,0.61,0.24,0.48,0.52,0.33,0.55,0.43,0.55,0.33,0.55,0.52,0.33,0.55,0.33,0.55,0.55,0.55,0.61,0.55,0.61,0.59,0.43,0.24,0.33,0.55,0.61,0.55,0.88,0.55,0.55,0.48,0.59,0.85,0.61,0.59,0.55,0.55,0.61,0.55,0.71,0.52,0.43" style="fill:rgb(0,0,0);font-family:AdvPSA5CD;font-size:7.97px;stroke:none;">proﬁle of the sample indicates that the deposited Mn compound was</text>
   <text y="687.515" x="57.656,64.463,68.428,70.333,74.551,76.455,80.1212,82.997,84.902,89.2855,92.238,96.49,98.395,103.123,107.5065,110.493,114.143,118.089,119.994,124.212,128.612,131.2421,134.19,137.479,140.133,144.111,146.765,150.971,154.3981,157.321,162.047,164.35829999999999,167.299,172.607,176.7514,179.658,183.683,188.082,192.9437,195.871,201.18,205.3244,208.23" svgx:width="0.85,0.52,0.24,0.55,0.24,0.46,0.55,0.24,0.55,0.55,0.55,0.24,0.61,0.55,0.55,0.46,0.52,0.24,0.55,0.55,0.33,0.55,0.43,0.33,0.52,0.33,0.55,0.43,0.55,0.59,0.29,0.55,0.67,0.52,0.55,0.52,0.55,0.61,0.55,0.67,0.52,0.55,0.26" style="fill:rgb(0,0,0);font-family:AdvPSA5CD;font-size:7.97px;stroke:none;">mainly in high valent states of +3 and +4 (</text>
   <text y="687.515" x="210.217,214.616,216.34,221.233,225.411,228.065,232.4485,235.388" svgx:width="0.55,0.24,0.61,0.55,0.33,0.55,0.55,0.52" style="fill:rgb(0,138,141);font-family:AdvPSA5CD;font-size:7.97px;stroke:none;">Figure 4</text>
   <text y="687.515" x="239.414,245.057,246.954,249.02620000000002,252.0,256.399,260.957,263.5871,266.626,269.28,273.486,277.8695,280.856,285.256,289.473,292.127,297.581,302.173,304.245,310.676,316.289" svgx:width="0.71,0.26,0.26,0.55,0.55,0.59,0.33,0.55,0.33,0.55,0.55,0.55,0.55,0.55,0.33,0.71,0.59,0.26,0.83,0.72,0.26" style="fill:rgb(0,0,0);font-family:AdvPSA5CD;font-size:7.97px;stroke:none;">C). For the SS-Co(OH)</text>
   <text y="688.876" x="318.274" svgx:width="0.52" style="fill:rgb(0,0,0);font-family:AdvPSA5CD;font-size:5.31px;stroke:none;">2</text>
   <text y="687.515" x="324.397,328.796,330.519,334.919,338.513,341.167,343.672,348.264,353.158,357.392,359.4642,362.438,365.092,370.545,375.2473,378.255,382.4,387.099,391.993,393.732,396.386,398.097,402.824,407.054,411.079,412.9918,416.011,420.773,425.173,429.107,432.925" svgx:width="0.55,0.24,0.55,0.48,0.33,0.33,0.59,0.61,0.55,0.26,0.55,0.33,0.71,0.59,0.55,0.52,0.61,0.61,0.24,0.33,0.24,0.59,0.55,0.52,0.24,0.55,0.61,0.55,0.52,0.48,0.43" style="fill:rgb(0,0,0);font-family:AdvPSA5CD;font-size:7.97px;stroke:none;">electrode, two additional peaks</text>
   <text y="698.514" x="57.656,61.473,65.706,70.105,72.566,76.965,79.426,83.825,88.6867,90.48,94.625" svgx:width="0.48,0.55,0.55,0.33,0.55,0.33,0.55,0.61,0.55,0.52,0.33" style="fill:rgb(0,0,0);font-family:AdvPSA5CD;font-size:7.97px;stroke:none;">centered at</text>
   <text y="698.514" code="3" x="99.098" svgx:width="0.77" style="fill:rgb(0,0,0);font-family:AdvP4C4E74;font-size:7.97px;stroke:none;">?</text>
   <text y="698.514" x="105.221,109.23,111.302,115.311,119.45540000000001,121.321,126.02329999999999,127.954,131.979,136.378" svgx:width="0.52,0.26,0.52,0.52,0.55,0.59,0.55,0.52,0.55,0.61" style="fill:rgb(0,0,0);font-family:AdvPSA5CD;font-size:7.97px;stroke:none;">1.65 V and</text>
   <text y="698.514" code="3" x="143.092" svgx:width="0.77" style="fill:rgb(0,0,0);font-family:AdvP4C4E74;font-size:7.97px;stroke:none;">?</text>
   <text y="698.514" x="149.215,153.24,155.312,159.306,163.4504,165.316,170.0183,171.948,177.591,181.812,184.466,188.8495,190.656,192.561,197.232,201.632,205.85,208.504,210.215,214.24,218.639,223.367,225.4392,227.336,232.979,237.143,239.048,242.699,247.0825,248.992,252.678,257.404,261.635,263.539,268.4007,270.252,275.014,279.39750000000004,281.307,285.332,288.736,292.362,295.016,296.727,301.621,305.855,310.7167,312.658,315.312,320.0143,321.786,324.44,328.646,333.02950000000004,334.939,339.665,343.329,345.234,349.905,354.05,356.538,358.443,362.945,367.3285,369.238,373.964,376.2753,378.082,385.135" svgx:width="0.52,0.26,0.52,0.52,0.55,0.59,0.55,0.71,0.55,0.33,0.55,0.55,0.24,0.61,0.55,0.55,0.33,0.24,0.52,0.55,0.61,0.26,0.55,0.71,0.55,0.24,0.48,0.55,0.55,0.48,0.59,0.55,0.24,0.61,0.55,0.61,0.55,0.55,0.52,0.43,0.48,0.33,0.24,0.61,0.55,0.61,0.55,0.33,0.59,0.55,0.33,0.55,0.55,0.55,0.59,0.48,0.24,0.61,0.52,0.33,0.24,0.59,0.55,0.55,0.59,0.29,0.55,0.88,0.55" style="fill:rgb(0,0,0);font-family:AdvPSA5CD;font-size:7.97px;stroke:none;">1.80 V were identiﬁed, which could be ascribed to the oxidation of Mn</text>
   <text y="694.942" x="389.367,392.475" svgx:width="0.52,0.67" style="fill:rgb(0,0,0);font-family:AdvPSA5CD;font-size:5.31px;stroke:none;">2+</text>
   <text y="698.514" x="398.268,400.172,404.55550000000005,406.318,408.972,413.178,417.5615,419.471,423.871,425.594,429.994,433.644" svgx:width="0.24,0.55,0.55,0.33,0.55,0.55,0.55,0.55,0.24,0.55,0.48,0.33" style="fill:rgb(0,0,0);font-family:AdvPSA5CD;font-size:7.97px;stroke:none;">in the elec-</text>
   <text y="709.455" x="57.656,60.31,62.815,67.407,69.312,72.793,75.447,81.126,85.271,89.46,95.753,98.407,102.613,106.9965,108.395,110.715,114.915,117.569,120.074,124.326,128.726,131.3561,132.717,137.309,141.127,142.865,147.627,151.772,154.26,156.165,160.723,165.1065,166.505,171.098,173.4093,174.84,181.756,186.1395,187.539,191.356,195.929,202.618,207.381,212.107,216.337,220.737,226.882,228.954,233.175,235.247,239.978,241.905,243.9772,245.42,247.631,250.285,254.831,262.995,268.303,272.4474,273.767,276.421,282.441,287.6,291.744,293.81620000000004,295.14,299.866,304.2495,305.571,308.225,312.431,316.8145,318.213,321.502,326.228,327.965,329.87,336.016,340.415,342.138,346.538,350.188,352.842,355.291,359.883,364.777,369.1605,370.484" svgx:width="0.33,0.33,0.59,0.24,0.46,0.33,0.55,0.52,0.55,0.61,0.33,0.55,0.55,0.55,0.29,0.55,0.33,0.33,0.55,0.55,0.33,0.55,0.59,0.48,0.24,0.61,0.52,0.33,0.24,0.59,0.55,0.55,0.59,0.29,0.55,0.88,0.55,0.55,0.48,0.59,0.85,0.61,0.59,0.55,0.55,0.61,0.26,0.55,0.26,0.61,0.26,0.26,0.55,0.29,0.33,0.59,0.85,0.67,0.52,0.55,0.33,0.59,0.67,0.52,0.26,0.55,0.59,0.55,0.55,0.33,0.55,0.55,0.55,0.43,0.59,0.24,0.24,0.61,0.55,0.24,0.55,0.48,0.33,0.33,0.59,0.61,0.55,0.55,0.26" style="fill:rgb(0,0,0);font-family:AdvPSA5CD;font-size:7.97px;stroke:none;">trolyteandthe further oxidation of Mn compound(e.g., from+3 to+4) on the solidelectrode (</text>
   <text y="709.455" x="372.472,376.872,378.595,383.357,387.757,390.217,394.6005,395.999" svgx:width="0.55,0.24,0.61,0.55,0.33,0.55,0.55,0.52" style="fill:rgb(0,138,141);font-family:AdvPSA5CD;font-size:7.97px;stroke:none;">Figure 4</text>
   <text y="709.455" x="400.082,405.063,406.942,409.0142,410.4,414.959,419.13,423.5135,424.913,431.966" svgx:width="0.63,0.26,0.26,0.55,0.57,0.55,0.55,0.55,0.88,0.55" style="fill:rgb(0,0,0);font-family:AdvPSA5CD;font-size:7.97px;stroke:none;">B). The Mn</text>
   <text y="720.397" x="57.656,61.8" svgx:width="0.52,0.61" style="fill:rgb(0,0,0);font-family:AdvPSA5CD;font-size:7.97px;stroke:none;">2p</text>
   <text y="721.758" x="66.501,69.609,71.717" svgx:width="0.52,0.38,0.52" style="fill:rgb(0,0,0);font-family:AdvPSA5CD;font-size:5.31px;stroke:none;">3/2</text>
   <text y="720.397" x="77.272,82.166,84.642,89.369,93.316,95.221,99.6045,102.047" svgx:width="0.61,0.33,0.59,0.52,0.24,0.55,0.55,0.26" style="fill:rgb(0,0,0);font-family:AdvPSA5CD;font-size:7.97px;stroke:none;">proﬁle (</text>
   <text y="720.397" x="103.975,108.375,110.098,114.991,119.225,121.879,126.2625,128.636" svgx:width="0.55,0.24,0.61,0.55,0.33,0.55,0.55,0.52" style="fill:rgb(0,138,141);font-family:AdvPSA5CD;font-size:7.97px;stroke:none;">Figure 4</text>
   <text y="720.397" x="132.719,138.218,140.2902,142.811,147.403,149.71429999999998,152.222,154.876,159.082,163.4655,165.998,170.25,174.65,177.11,182.753,187.315,189.387,195.819,201.431" svgx:width="0.71,0.26,0.55,0.59,0.29,0.55,0.33,0.55,0.55,0.55,0.55,0.55,0.33,0.71,0.59,0.26,0.83,0.72,0.26" style="fill:rgb(0,0,0);font-family:AdvPSA5CD;font-size:7.97px;stroke:none;">C) of the SS-Co(OH)</text>
   <text y="721.758" x="203.414" svgx:width="0.52" style="fill:rgb(0,0,0);font-family:AdvPSA5CD;font-size:5.31px;stroke:none;">2</text>
   <text y="720.397" x="209.027,213.426,215.149,219.402,223.219,225.694,228.348,232.894,237.656,242.0395,244.573,248.598,250.917,253.417,257.669,260.2991,262.828,266.116,269.934,273.883,278.283,282.501,284.406,288.623,293.4847,295.993,298.648,303.3503,305.744,309.889,311.81,315.835,319.9794,322.468,327.1703,329.668,331.741,336.472,340.871,345.032,349.759,352.232,356.631,361.49269999999996,363.911,368.055" svgx:width="0.55,0.24,0.55,0.48,0.33,0.33,0.59,0.61,0.55,0.55,0.52,0.29,0.33,0.55,0.33,0.55,0.43,0.48,0.52,0.55,0.55,0.24,0.55,0.61,0.55,0.33,0.59,0.55,0.52,0.26,0.52,0.52,0.55,0.59,0.55,0.26,0.61,0.55,0.55,0.59,0.33,0.55,0.61,0.55,0.52,0.43" style="fill:rgb(0,0,0);font-family:AdvPSA5CD;font-size:7.97px;stroke:none;">electrode after scanning to 1.85 V (denoted as</text>
   <text y="720.397" x="373.834" svgx:width="0.88" style="fill:rgb(0,0,0);font-family:AdvPS480274;font-size:7.97px;stroke:none;">+</text>
   <text y="720.397" x="380.694,382.7662,385.286,388.575,392.974,397.531,403.031,406.4581,408.927,411.581,415.787,419.932,422.56210000000004,424.971,427.625,431.831" svgx:width="0.26,0.55,0.43,0.55,0.59,0.71,0.43,0.55,0.33,0.55,0.52,0.33,0.55,0.33,0.55,0.55" style="fill:rgb(0,0,0);font-family:AdvPSA5CD;font-size:7.97px;stroke:none;">) shows that the</text>
   <text y="731.396" x="57.657,61.474,65.707,70.106,76.705,78.61,82.204,86.349,88.26180000000001,90.368,93.656,96.311,100.289,102.943,107.3265,109.36,114.086,116.3973,118.488,121.142,125.348,129.7315,131.924,136.686,141.086,145.813,150.406,153.809,155.565,158.219,162.425,167.28670000000002,169.455,176.371,180.7545,182.947,186.765,191.281,197.97,202.864,207.438,211.69,216.09,220.95170000000002,223.085,228.585,232.729,236.1561,238.222,241.873,246.046,248.7,252.3662,254.436,257.725,259.629,266.285,268.19,269.913,273.938,276.5681,278.757,281.411,286.1133,288.225,290.879,295.028,299.755,302.965,307.3485,309.541,314.268,316.5793,318.669,323.068,327.4515,329.497,333.641,337.831,342.6927,344.917,349.316,353.478,356.132,361.585,366.311,368.218,374.737,380.35" svgx:width="0.48,0.55,0.55,0.85,0.24,0.48,0.52,0.24,0.55,0.43,0.33,0.52,0.33,0.55,0.55,0.59,0.29,0.55,0.33,0.55,0.55,0.55,0.61,0.55,0.61,0.59,0.43,0.24,0.33,0.55,0.61,0.55,0.88,0.55,0.55,0.48,0.59,0.85,0.61,0.59,0.55,0.55,0.61,0.55,0.71,0.52,0.43,0.55,0.46,0.55,0.33,0.46,0.55,0.43,0.24,0.85,0.24,0.24,0.52,0.33,0.55,0.33,0.59,0.55,0.33,0.55,0.59,0.43,0.55,0.55,0.59,0.29,0.55,0.55,0.55,0.55,0.52,0.55,0.61,0.55,0.55,0.55,0.33,0.71,0.59,0.26,0.83,0.72,0.26" style="fill:rgb(0,0,0);font-family:AdvPSA5CD;font-size:7.97px;stroke:none;">chemical state of the deposited Mn compound was very similar to those of SS and SS-Co(OH)</text>
   <text y="732.699" x="382.337" svgx:width="0.52" style="fill:rgb(0,0,0);font-family:AdvPSA5CD;font-size:5.31px;stroke:none;">2</text>
   <text y="731.396" x="387.609,391.754,393.902,396.556,400.762,403.3921,405.581,408.869,412.687,416.636,421.036,425.253,427.158,431.376" svgx:width="0.52,0.29,0.33,0.55,0.33,0.55,0.43,0.48,0.52,0.55,0.55,0.24,0.55,0.61" style="fill:rgb(0,0,0);font-family:AdvPSA5CD;font-size:7.97px;stroke:none;">after scanning</text>
  </g>
  <rect style="stroke:blue;stroke-width:0.3;" x="58.28" y="120.649" height="413.801" width="377.501" title="8"/>
  <text y="120.649" class="image" id="image.8.1" width="377" height="413" x="58.28">image.8.1.58_436.121_534</text>
  <g begin="text">
   <text y="533.934" x="57.657,61.955,63.932,68.41,72.549,75.543,79.5159,81.609,85.908,87.9293,91.577,96.531,100.467,103.461,107.397,109.374,113.342,116.337,118.313,121.6586,123.699,128.235,131.013,133.735,137.887,141.39,144.24769999999998,146.323,150.745,153.3936,155.45,160.439,164.884,169.363,173.299,175.227,178.0847,180.159,185.092,189.537,195.802,200.281,204.759,208.911,213.064,217.216,220.139,223.3452,225.468,227.396,231.3689,233.519,236.466,240.602,244.5749,246.725,252.171,256.307,260.812,265.24,268.581,270.54,273.518,275.478,279.906,283.8789,285.972,290.477,293.455,297.933,301.392,305.527,308.868,312.0742,314.197,318.619,321.2676,323.324,328.654,332.141,335.118,337.046,341.071,345.0439,347.138,353.941,357.91389999999996,360.007,364.94,369.418,375.654,380.159,384.638,388.773,392.909" svgx:width="0.59,0.26,0.63,0.57,0.41,0.57,0.55,0.59,0.29,0.55,0.69,0.54,0.41,0.54,0.26,0.55,0.41,0.26,0.48,0.55,0.63,0.38,0.38,0.57,0.48,0.41,0.55,0.61,0.38,0.55,0.69,0.61,0.63,0.54,0.26,0.41,0.55,0.69,0.61,0.88,0.63,0.61,0.57,0.57,0.57,0.41,0.46,0.55,0.26,0.57,0.55,0.41,0.57,0.57,0.55,0.76,0.57,0.63,0.61,0.46,0.26,0.41,0.26,0.61,0.57,0.55,0.63,0.41,0.61,0.48,0.57,0.46,0.46,0.55,0.61,0.38,0.55,0.74,0.48,0.41,0.26,0.55,0.57,0.55,0.95,0.57,0.55,0.69,0.61,0.88,0.63,0.61,0.57,0.57,0.63" style="fill:rgb(0,138,141);font-family:AdvPSA5BC;font-size:6.97px;stroke:none;">Figure 4. Catalytic Effect of Cobalt Components in the Deposition Process of Active Mn Compound</text>
   <text y="543.855" x="57.657,59.593,64.469,66.2812,68.38,73.426,77.685,83.764,88.169,91.919,94.365,96.122,99.223,103.482,107.3155,109.379,113.687,115.7083,117.769,122.814,127.073,130.0701,132.119,134.055,137.805,139.742,143.3664,145.468,151.547,155.6593,157.783" svgx:width="0.26,0.69,0.26,0.55,0.71,0.59,0.85,0.61,0.52,0.33,0.24,0.43,0.59,0.55,0.55,0.59,0.29,0.55,0.71,0.59,0.43,0.55,0.26,0.52,0.26,0.52,0.55,0.85,0.59,0.55,0.43" style="fill:rgb(0,0,0);font-family:AdvPSA5CD;font-size:6.97px;stroke:none;">(A) Comparison of CVs (0.1 mV s</text>
   <text y="540.794" code="1" x="160.838" svgx:width="0.77" style="fill:rgb(0,0,0);font-family:AdvP4C4E74;font-size:4.65px;stroke:none;">?</text>
   <text y="540.794" x="164.863" svgx:width="0.52" style="fill:rgb(0,0,0);font-family:AdvPSA5CD;font-size:4.65px;stroke:none;">1</text>
   <text y="543.855" x="167.698,169.5102,171.609,175.861,177.8823,179.943,183.401,187.656,189.442,193.411,195.852,198.294,201.607,206.008,209.8415,211.905,216.306,220.051,222.493,224.934,228.903,231.345,233.131,237.099,240.09609999999998,242.145,246.114,249.211,250.997,254.966" svgx:width="0.26,0.55,0.59,0.29,0.55,0.48,0.59,0.24,0.55,0.33,0.33,0.46,0.61,0.55,0.55,0.61,0.52,0.33,0.33,0.55,0.33,0.24,0.55,0.43,0.55,0.55,0.43,0.24,0.55,0.61" style="fill:rgb(0,0,0);font-family:AdvPSA5CD;font-size:6.97px;stroke:none;">) of coin-type batteries using</text>
   <text y="543.855" x="261.298" svgx:width="0.5" style="fill:rgb(0,0,0);font-family:AdvPS3F4C13;font-size:6.97px;stroke:none;">d</text>
   <text y="543.855" x="264.926,267.368,273.659,277.628" svgx:width="0.33,0.88,0.55,0.83" style="fill:rgb(0,0,0);font-family:AdvPSA5CD;font-size:6.97px;stroke:none;">-MnO</text>
   <text y="545.046" x="283.578" svgx:width="0.52" style="fill:rgb(0,0,0);font-family:AdvPSA5CD;font-size:4.65px;stroke:none;">2</text>
   <text y="543.855" x="288.34,291.799,295.544,297.985,301.953,306.207,310.607,314.576,317.5731,319.621,324.677,326.462,328.903,332.73650000000004,334.8,339.054,341.35409999999996,343.419,348.522,350.279,352.72,356.688,360.942,364.91,367.2101,369.332,372.791,377.045,381.445,385.244,387.001,389.30109999999996,391.367,397.49,401.744,406.144,407.93,411.675,415.134,418.879,421.319,423.105,427.359,431.327" svgx:width="0.48,0.52,0.33,0.55,0.59,0.61,0.55,0.43,0.55,0.71,0.24,0.33,0.55,0.55,0.59,0.33,0.55,0.71,0.24,0.33,0.55,0.59,0.55,0.33,0.55,0.48,0.59,0.61,0.52,0.24,0.33,0.55,0.85,0.59,0.61,0.24,0.52,0.48,0.52,0.33,0.24,0.59,0.55,0.26" style="fill:rgb(0,0,0);font-family:AdvPSA5CD;font-size:6.97px;stroke:none;">cathodes with or without cobalt modiﬁcation.</text>
   <text y="553.833" x="57.657,59.6,64.022,65.83420000000001,67.424,72.47,76.735,82.821,87.187,90.929,93.381,95.178,98.287,102.552,106.38550000000001,107.938,112.19,114.2113,115.819,119.391,123.371,127.4833,129.097,133.509,135.962,140.228,143.985,145.782,149.762,152.7591,154.297,156.225,160.637,164.903,167.965,169.779,172.231,173.989,177.313,181.14649999999997,182.699,185.807,190.875,194.855,198.835,203.247,205.0592,206.592,210.21640000000002,211.808,217.894,222.0063,223.62" svgx:width="0.26,0.63,0.26,0.55,0.71,0.59,0.85,0.61,0.52,0.33,0.24,0.43,0.59,0.55,0.55,0.59,0.29,0.55,0.5,0.55,0.59,0.55,0.61,0.33,0.59,0.52,0.24,0.55,0.43,0.55,0.26,0.61,0.59,0.43,0.24,0.33,0.24,0.46,0.55,0.55,0.43,0.71,0.55,0.55,0.61,0.26,0.55,0.52,0.55,0.85,0.59,0.55,0.43" style="fill:rgb(0,0,0);font-family:AdvPSA5CD;font-size:6.97px;stroke:none;">(B) Comparison of LSV proﬁles (positive sweep, 1 mV s</text>
   <text y="550.715" code="1" x="226.715" svgx:width="0.77" style="fill:rgb(0,0,0);font-family:AdvP4C4E74;font-size:4.65px;stroke:none;">?</text>
   <text y="550.715" x="230.74" svgx:width="0.52" style="fill:rgb(0,0,0);font-family:AdvPSA5CD;font-size:4.65px;stroke:none;">1</text>
   <text y="553.833" x="233.575,235.38719999999998,236.919,241.171,243.1923,244.8,247.918,250.357,254.101,255.885,259.851,261.635,265.602,268.663,271.6601,273.199,276.294,278.734,282.7,286.667,288.33979999999997,289.899,291.829,295.796,299.762,301.5742,303.164,306.908,310.874,315.12570000000005,316.714,320.682,324.51550000000003,326.125,329.583,333.836,337.147,341.114,343.553,347.52,351.7717,353.416,358.471,360.255,362.694,366.52750000000003,368.136,372.535,374.975,378.942,381.381,385.348,387.132,391.098,394.556,396.995,399.435,403.687,408.086,412.053,416.419,420.727,423.789,425.603,428.042,432.009" svgx:width="0.26,0.55,0.59,0.29,0.55,0.43,0.33,0.52,0.24,0.55,0.24,0.55,0.43,0.43,0.55,0.43,0.33,0.55,0.55,0.24,0.55,0.26,0.55,0.55,0.26,0.55,0.52,0.55,0.61,0.55,0.55,0.55,0.55,0.48,0.59,0.46,0.55,0.33,0.55,0.61,0.55,0.71,0.24,0.33,0.55,0.55,0.61,0.33,0.55,0.33,0.55,0.24,0.55,0.48,0.33,0.33,0.59,0.61,0.55,0.61,0.59,0.43,0.24,0.33,0.55,0.61" style="fill:rgb(0,0,0);font-family:AdvPSA5CD;font-size:6.97px;stroke:none;">) of stainless steel (SS) and SS covered with pre-electrodeposited</text>
   <text y="563.811" x="57.656,62.752,67.004,68.932,74.828,79.994" svgx:width="0.71,0.59,0.26,0.83,0.72,0.26" style="fill:rgb(0,0,0);font-family:AdvPSA5CD;font-size:6.97px;stroke:none;">Co(OH)</text>
   <text y="564.945" x="81.921" svgx:width="0.52" style="fill:rgb(0,0,0);font-family:AdvPSA5CD;font-size:4.65px;stroke:none;">2</text>
   <text y="563.811" x="84.756" svgx:width="0.26" style="fill:rgb(0,0,0);font-family:AdvPSA5CD;font-size:6.97px;stroke:none;">.</text>
   <text y="573.732" x="57.656,59.64,64.5887,66.614,70.356,74.321,78.5727,80.671,85.943,87.7552,89.854,91.782,96.835,98.6472,100.747,107.034,110.8675,112.931,116.673" svgx:width="0.26,0.71,0.55,0.52,0.55,0.61,0.55,0.74,0.26,0.55,0.26,0.71,0.26,0.55,0.88,0.55,0.55,0.52,0.61" style="fill:rgb(0,0,0);font-family:AdvPSA5CD;font-size:6.97px;stroke:none;">(C and D) (C) Mn 2p</text>
   <text y="574.923" x="121.096,123.931,125.972" svgx:width="0.52,0.38,0.52" style="fill:rgb(0,0,0);font-family:AdvPSA5CD;font-size:4.65px;stroke:none;">3/2</text>
   <text y="573.733" x="130.79,135.156,139.295,143.12849999999997,145.191,149.613,152.056,156.311,160.057,161.844,165.814,168.81109999999998,170.859,174.605,178.575,182.8267,184.925,186.852,192.126,193.9382,195.981,200.383,202.169,206.535,208.349,210.791,214.537,216.2098,218.279,222.644,226.614,230.869,233.312,237.62,241.986,244.424,248.17,252.572,256.541,259.5381,261.587,265.842,267.8633,269.924,272.366,276.336,280.1695,282.288,285.35,289.096,295.219,299.585,301.399,305.368,308.3651,310.414,314.16,316.309,318.752,322.721,325.0211,327.087,329.525,333.494,337.32750000000004,339.447,343.054,347.023,351.13530000000003,353.259,357.625,361.88,364.978,366.765,369.207,370.994,374.308,378.1415,380.261,383.322,388.379,392.349,396.318,400.5697,402.725,405.167,409.2793,411.346,414.444,418.81,422.779,426.239,428.026,431.772" svgx:width="0.61,0.57,0.55,0.55,0.61,0.33,0.59,0.52,0.24,0.55,0.43,0.55,0.52,0.55,0.61,0.55,0.26,0.74,0.26,0.55,0.61,0.24,0.61,0.24,0.33,0.52,0.24,0.55,0.61,0.55,0.59,0.33,0.59,0.61,0.33,0.52,0.61,0.55,0.43,0.55,0.59,0.29,0.55,0.33,0.55,0.55,0.55,0.43,0.52,0.85,0.61,0.24,0.55,0.43,0.55,0.52,0.29,0.33,0.55,0.33,0.55,0.33,0.55,0.55,0.55,0.5,0.55,0.59,0.55,0.61,0.59,0.43,0.24,0.33,0.24,0.46,0.55,0.55,0.43,0.71,0.55,0.55,0.61,0.55,0.33,0.59,0.55,0.43,0.61,0.55,0.48,0.24,0.52,0.48" style="fill:rgb(0,0,0);font-family:AdvPSA5CD;font-size:6.97px;stroke:none;">XPS proﬁles and (D) digital photographs of the samples after the LSV positive sweep to speciﬁc</text>
   <text y="583.711" x="57.656,62.06,66.318,68.762,72.734,76.705,79.15,80.938,84.687,86.475,89.575" svgx:width="0.61,0.59,0.33,0.55,0.55,0.33,0.24,0.52,0.24,0.43,0.26" style="fill:rgb(0,0,0);font-family:AdvPSA5CD;font-size:6.97px;stroke:none;">potentials.</text>
   <text y="593.689" x="57.656,59.64,63.892,65.7042,67.753,71.722,73.536,75.974,79.035,81.3351,83.457,85.895,90.941,95.05330000000001,97.124,102.226,106.3383,108.409,111.867,115.155,118.614,120.427,124.396,127.3931,129.422,131.349,134.9734,137.023,143.146,147.2583,149.329" svgx:width="0.26,0.59,0.26,0.55,0.55,0.24,0.33,0.43,0.33,0.55,0.33,0.71,0.59,0.55,0.71,0.59,0.55,0.48,0.46,0.48,0.24,0.55,0.43,0.55,0.26,0.52,0.55,0.85,0.59,0.55,0.43" style="fill:rgb(0,0,0);font-family:AdvPSA5CD;font-size:6.97px;stroke:none;">(E) First two CV cycles (1 mV s</text>
   <text y="590.57" code="1" x="152.447" svgx:width="0.77" style="fill:rgb(0,0,0);font-family:AdvP4C4E74;font-size:4.65px;stroke:none;">?</text>
   <text y="590.57" x="156.472" svgx:width="0.52" style="fill:rgb(0,0,0);font-family:AdvPSA5CD;font-size:4.65px;stroke:none;">1</text>
   <text y="593.688" x="159.307,161.11919999999998,163.162,167.414,169.43529999999998,171.552,175.521,179.35449999999997,181.417,186.463,188.249,190.691,194.5245,196.587,201.009,203.45,207.419,209.861,213.83,215.616,219.584,223.044,225.486,227.927,232.182,236.583,240.552,244.953,249.208,252.305,254.091,256.532,260.501,264.7527,266.851,271.896,276.151,278.083,284.012,289.138" svgx:width="0.26,0.55,0.59,0.29,0.55,0.55,0.55,0.55,0.71,0.24,0.33,0.55,0.55,0.61,0.33,0.55,0.33,0.55,0.24,0.55,0.48,0.33,0.33,0.59,0.61,0.55,0.61,0.59,0.43,0.24,0.33,0.55,0.61,0.55,0.71,0.59,0.26,0.83,0.72,0.26" style="fill:rgb(0,0,0);font-family:AdvPSA5CD;font-size:6.97px;stroke:none;">) of SS with pre-electrodeposited Co(OH)</text>
   <text y="594.822" x="291.061" svgx:width="0.52" style="fill:rgb(0,0,0);font-family:AdvPSA5CD;font-size:4.65px;stroke:none;">2</text>
   <text y="593.688" x="293.896" svgx:width="0.26" style="fill:rgb(0,0,0);font-family:AdvPSA5CD;font-size:6.97px;stroke:none;">.</text>
   <text y="603.667" x="57.656,59.64,63.552,65.3642,66.84,68.768,70.552,72.336,76.247,79.365,81.805,84.244,87.988,90.427,92.211,96.464,100.2975,101.736,105.988,108.0093,109.447,115.519,119.486,122.944,126.91,130.654,134.621,136.405,139.5,146.869,151.121,153.1423,154.58,157.018,160.984,164.8175,166.257,169.714,173.458,175.897,179.696,181.48,184.791,187.886,189.67,192.66709999999998,194.092,198.061,200.207,202.354,206.32,209.778,212.07809999999998,213.519,216.831,218.615,222.23940000000002,223.66,229.953,233.7865,235.225,238.343,242.255,244.069,246.215,248.655,252.115,255.86,258.302,262.047,263.833,267.147,270.244,272.03,275.02709999999996,276.452,278.379,282.634,286.889,290.858,293.299,297.1325,298.571,302.317,304.1292,305.549,309.294,313.263,317.51469999999995,318.989,322.277,324.063,327.68739999999997,329.109,332.569,336.823,341.224,344.97,346.734,349.173,351.613,353.396,357.363,361.762,365.729,369.187,373.153,377.40470000000005,378.879,382.337,386.081,388.52,392.264,394.047,397.359,400.454,402.237,405.2341,406.66,408.587,412.84,417.092,421.059,423.499,427.33250000000004,428.771,432.514,434.445" svgx:width="0.26,0.55,0.26,0.55,0.26,0.24,0.24,0.55,0.43,0.33,0.33,0.52,0.33,0.24,0.59,0.55,0.55,0.59,0.29,0.55,0.85,0.55,0.48,0.55,0.52,0.55,0.24,0.43,0.85,0.59,0.29,0.55,0.33,0.55,0.55,0.55,0.48,0.52,0.33,0.52,0.24,0.46,0.43,0.24,0.43,0.55,0.55,0.29,0.29,0.55,0.48,0.33,0.55,0.46,0.24,0.52,0.55,0.88,0.55,0.55,0.43,0.55,0.24,0.29,0.33,0.48,0.52,0.33,0.52,0.24,0.46,0.43,0.24,0.43,0.55,0.26,0.59,0.59,0.55,0.33,0.55,0.55,0.52,0.26,0.55,0.52,0.55,0.61,0.55,0.46,0.24,0.52,0.55,0.48,0.59,0.61,0.52,0.24,0.33,0.33,0.24,0.55,0.61,0.55,0.48,0.55,0.61,0.55,0.48,0.52,0.33,0.52,0.24,0.46,0.43,0.24,0.43,0.55,0.26,0.59,0.59,0.55,0.33,0.55,0.55,0.52,0.26,0.26" style="fill:rgb(0,0,0);font-family:AdvPSA5CD;font-size:6.97px;stroke:none;">(F) Illustration of mechanismof the catalysis effect via Mn self-catalysis (Route 1) and via cobalt-induced catalysis (Route 2).</text>
   <text y="613.587" x="57.656,63.269,67.521,69.959,73.7925,75.855,78.293,82.259,86.001,88.3011,90.423,92.861,96.826,99.92,103.885,105.668,108.106,111.1031,113.151,114.909,118.7425,120.861,122.789,127.263,130.866,135.117,136.92919999999998,139.029,142.771,145.209,149.0425,151.105,155.357,159.755,162.193,165.935,167.718,171.683,175.648,179.8997,181.998,186.396,190.138,193.231,197.197,201.4487,203.546,207.798,211.6315,213.751,217.3754,219.42,223.385,227.637,233.708,237.673,240.111,246.234,249.976,254.374,258.2075,260.327,264.296,266.078,270.043,273.5,275.938,278.376,282.627,286.083,290.049,294.014,300.085,301.868,305.324,309.066,310.73879999999997,312.807,316.264,320.229,322.012,323.6848,325.753,327.682,331.647,335.613" svgx:width="0.78,0.59,0.33,0.55,0.55,0.33,0.55,0.52,0.33,0.55,0.33,0.55,0.43,0.55,0.24,0.33,0.43,0.55,0.24,0.55,0.55,0.26,0.63,0.5,0.59,0.26,0.55,0.52,0.33,0.55,0.55,0.59,0.61,0.33,0.52,0.24,0.55,0.55,0.61,0.55,0.61,0.52,0.43,0.55,0.61,0.55,0.59,0.55,0.55,0.52,0.55,0.55,0.59,0.85,0.55,0.33,0.85,0.52,0.61,0.55,0.55,0.55,0.24,0.55,0.48,0.33,0.33,0.59,0.48,0.55,0.55,0.85,0.24,0.48,0.52,0.24,0.55,0.48,0.55,0.24,0.24,0.55,0.26,0.55,0.55,0.55" style="fill:rgb(0,0,0);font-family:AdvPSA5CD;font-size:6.97px;stroke:none;">Note that results in (B–E) are obtained based on a home-made electrochemical cell (See</text>
   <text y="613.587" x="341.518,345.492,347.284,351.691,355.665,358.112,361.94550000000004,364.008,367.983" svgx:width="0.55,0.24,0.61,0.55,0.33,0.55,0.55,0.55,0.52" style="fill:rgb(0,138,141);font-family:AdvPSA5CD;font-size:6.97px;stroke:none;">Figure S9</text>
   <text y="613.587" x="371.735,376.655,378.596" svgx:width="0.69,0.26,0.26" style="fill:rgb(0,0,0);font-family:AdvPSA5CD;font-size:6.97px;stroke:none;">A).</text>
  </g>
  <path style="fill:rgb(0,138,141);stroke:none;stroke-width:1.0;" d="M58.280 103.640 L435.680 103.640 L435.680 517.440 L58.280 517.440 "/>
  <g begin="text">
   <text y="762.973" x="409.493,411.16,415.009,418.35,420.016,423.866,427.715,431.056" svgx:width="0.24,0.55,0.48,0.24,0.55,0.55,0.48,0.55" style="fill:rgb(0,0,0);font-family:AdvPSA5B8;font-size:6.97px;stroke:none;">iScience</text>
   <text y="762.973" x="436.875,440.725" svgx:width="0.55,0.55" style="fill:rgb(0,0,0);font-family:AdvPSA5B9;font-size:6.97px;stroke:none;">23</text>
   <text y="762.973" x="444.586,446.5376,448.497,452.347,456.196,460.12,463.969,467.819,471.668,473.6196,475.597,481.769,485.396,487.718,491.058,494.8915,496.858,500.707,504.557,506.5086,508.537,512.386,516.236,520.085" svgx:width="0.28,0.55,0.55,0.55,0.55,0.55,0.55,0.55,0.28,0.55,0.88,0.52,0.33,0.48,0.55,0.55,0.55,0.55,0.28,0.55,0.55,0.55,0.55,0.55" style="fill:rgb(0,0,0);font-family:AdvPSA5B8;font-size:6.97px;stroke:none;">, 100943, March 27, 2020</text>
   <text y="762.973" x="541.02" svgx:width="0.55" style="fill:rgb(0,0,0);font-family:AdvPSA5BA;font-size:6.97px;stroke:none;">7</text>
  </g>
  <path style="fill:rgb(0,139,142);stroke:none;stroke-width:1.0;" d="M60.500 52.180 M57.680 53.770 "/>
  <path style="fill:rgb(0,139,142);stroke:none;stroke-width:1.0;" d="M65.020 59.320 C65.020 61.200 66.490 61.940 68.150 61.940 C69.240 61.940 70.900 61.620 70.900 60.170 C70.900 58.650 68.780 58.390 66.700 57.830 C64.600 57.280 62.480 56.460 62.480 53.810 C62.480 50.910 65.220 49.530 67.770 49.530 C70.730 49.530 73.440 50.810 73.440 54.090 L70.430 54.090 C70.330 52.380 69.120 51.940 67.630 51.940 C66.640 51.940 65.490 52.360 65.490 53.550 C65.490 54.640 66.170 54.780 69.720 55.690 C70.750 55.950 73.920 56.600 73.920 59.820 C73.920 62.410 71.880 64.350 68.030 64.350 C64.900 64.350 61.960 62.810 62.000 59.320 L65.020 59.320 "/>
  <path style="fill:rgb(0,139,142);stroke:none;stroke-width:1.0;" d="M81.930 57.380 C81.750 56.230 81.020 55.610 79.850 55.610 C78.040 55.610 77.450 57.440 77.450 58.940 C77.450 60.410 78.020 62.180 79.790 62.180 C81.100 62.180 81.850 61.340 82.030 60.090 L84.740 60.090 C84.390 62.810 82.500 64.300 79.810 64.300 C76.710 64.300 74.630 62.110 74.630 59.040 C74.630 55.850 76.540 53.490 79.870 53.490 C82.280 53.490 84.510 54.760 84.680 57.380 L81.930 57.380 "/>
  <path style="fill:rgb(0,139,142);stroke:none;stroke-width:1.0;" d="M88.630 52.180 M85.810 53.770 "/>
  <path style="fill:rgb(0,139,142);stroke:none;stroke-width:1.0;" d="M92.590 59.580 C92.670 61.360 93.540 62.170 95.110 62.170 C96.240 62.170 97.150 61.480 97.330 60.850 L99.810 60.850 C99.010 63.260 97.330 64.300 95.010 64.300 C91.780 64.300 89.780 62.080 89.780 58.900 C89.780 55.830 91.900 53.490 95.010 53.490 C98.500 53.490 100.190 56.430 99.990 59.580 L92.590 59.580 ZM97.170 57.790 C96.910 56.370 96.300 55.610 94.930 55.610 C93.150 55.610 92.630 57.000 92.590 57.790 L97.170 57.790 "/>
  <path style="fill:rgb(0,139,142);stroke:none;stroke-width:1.0;" d="M101.060 53.770 L103.730 53.770 L103.730 55.200 L103.790 55.200 C104.500 54.050 105.740 53.490 106.920 53.490 C109.920 53.490 110.670 55.180 110.670 57.710 L110.670 64.020 L107.850 64.020 L107.850 58.230 C107.850 56.540 107.360 55.710 106.050 55.710 C104.530 55.710 103.870 56.560 103.870 58.650 L103.870 64.020 L101.060 64.020 L101.060 53.770 "/>
  <path style="fill:rgb(0,139,142);stroke:none;stroke-width:1.0;" d="M118.730 57.380 C118.550 56.230 117.820 55.610 116.650 55.610 C114.840 55.610 114.250 57.440 114.250 58.940 C114.250 60.410 114.820 62.180 116.590 62.180 C117.900 62.180 118.650 61.340 118.830 60.090 L121.550 60.090 C121.190 62.810 119.310 64.300 116.610 64.300 C113.520 64.300 111.440 62.110 111.440 59.040 C111.440 55.850 113.340 53.490 116.670 53.490 C119.090 53.490 121.310 54.760 121.490 57.380 L118.730 57.380 "/>
  <path style="fill:rgb(0,139,142);stroke:none;stroke-width:1.0;" d="M57.680 49.530 M124.890 59.580 C124.970 61.360 125.850 62.170 127.410 62.170 C128.540 62.170 129.460 61.480 129.630 60.850 L132.110 60.850 C131.320 63.260 129.630 64.300 127.310 64.300 C124.080 64.300 122.080 62.080 122.080 58.900 C122.080 55.830 124.200 53.490 127.310 53.490 C130.800 53.490 132.490 56.430 132.290 59.580 L124.890 59.580 ZM129.470 57.790 C129.220 56.370 128.600 55.610 127.230 55.610 C125.450 55.610 124.930 57.000 124.890 57.790 L129.470 57.790 "/>
  <path style="fill:rgb(220,219,219);stroke:none;stroke-width:1.0;" d="M508.760 54.130 L505.880 54.130 L505.880 56.250 L508.010 56.250 C509.280 56.250 510.410 56.530 510.410 58.120 C510.410 59.710 509.280 59.990 508.010 59.990 L505.880 59.990 L505.880 62.110 L508.760 62.110 C511.860 62.110 513.060 60.140 513.060 58.120 C513.060 56.100 511.860 54.130 508.760 54.130 "/>
  <path style="fill:rgb(220,219,219);stroke:none;stroke-width:1.0;" d="M519.070 57.320 C517.860 57.320 516.650 58.100 516.190 59.240 L516.160 59.240 L516.160 57.560 L513.810 57.560 L513.810 66.580 L516.280 66.580 L516.280 62.520 C516.280 60.930 516.910 59.620 518.720 59.620 C519.020 59.620 519.380 59.650 519.610 59.710 L519.610 57.400 C519.450 57.350 519.240 57.320 519.070 57.320 "/>
  <path style="fill:rgb(220,219,219);stroke:none;stroke-width:1.0;" d="M523.740 57.320 C521.000 57.320 519.140 59.380 519.140 62.080 C519.140 64.870 520.900 66.820 523.740 66.820 C525.780 66.820 527.260 65.910 527.960 63.790 L525.780 63.790 C525.620 64.340 524.820 64.960 523.830 64.960 C522.450 64.960 521.680 64.240 521.610 62.670 L528.110 62.670 C528.290 59.900 526.800 57.320 523.740 57.320 M521.610 61.100 C521.650 60.400 522.100 59.180 523.670 59.180 C524.870 59.180 525.410 59.850 525.640 61.100 L521.610 61.100 "/>
  <path style="fill:rgb(220,219,219);stroke:none;stroke-width:1.0;" d="M532.570 57.320 C530.640 57.320 528.650 57.910 528.650 60.210 C528.650 61.800 530.080 62.300 531.510 62.620 C533.290 63.000 534.310 63.270 534.310 64.010 C534.310 64.890 533.410 65.160 532.690 65.160 C531.720 65.160 530.810 64.730 530.800 63.650 L528.440 63.650 C528.550 66.040 530.590 66.820 532.680 66.820 C534.730 66.820 536.790 66.050 536.790 63.680 C536.790 62.010 535.380 61.490 533.930 61.150 C532.520 60.820 531.130 60.700 531.130 59.810 C531.130 59.080 531.950 58.970 532.500 58.970 C533.390 58.970 534.120 59.240 534.190 60.200 L536.540 60.200 C536.350 57.980 534.540 57.320 532.570 57.320 "/>
  <path style="fill:rgb(220,219,219);stroke:none;stroke-width:1.0;" d="M541.230 57.320 C539.290 57.320 537.310 57.910 537.310 60.210 C537.310 61.800 538.740 62.300 540.170 62.620 C541.940 63.000 542.970 63.270 542.970 64.010 C542.970 64.890 542.070 65.160 541.350 65.160 C540.380 65.160 539.470 64.730 539.450 63.650 L537.100 63.650 C537.210 66.040 539.240 66.820 541.340 66.820 C543.390 66.820 545.450 66.050 545.450 63.680 C545.450 62.010 544.040 61.490 542.590 61.150 C541.180 60.820 539.780 60.700 539.780 59.810 C539.780 59.080 540.600 58.970 541.160 58.970 C542.050 58.970 542.780 59.240 542.850 60.200 L545.200 60.200 C545.010 57.980 543.200 57.320 541.230 57.320 "/>
  <path style="fill:rgb(143,143,143);stroke:none;stroke-width:1.0;" d="M484.670 53.800 C481.470 53.800 478.950 56.020 478.950 60.370 C478.950 64.670 481.330 66.910 484.640 66.910 C487.760 66.910 489.520 65.020 490.040 62.310 L487.440 62.310 C487.130 63.840 486.130 64.650 484.690 64.650 C482.490 64.650 481.610 62.640 481.610 60.400 C481.610 56.880 483.440 56.050 484.690 56.050 C486.840 56.050 487.240 57.460 487.440 58.200 L490.040 58.200 C489.900 56.360 488.400 53.800 484.670 53.800 M505.040 54.130 M502.050 54.130 M494.820 57.110 C490.790 57.110 490.410 60.670 490.410 61.770 C490.410 65.570 492.400 66.820 495.000 66.820 C496.570 66.820 498.410 66.090 499.050 63.870 L496.560 63.870 C496.360 64.530 495.670 64.880 495.000 64.880 C493.040 64.880 492.900 63.320 492.830 62.620 L499.150 62.620 L499.150 62.190 C499.150 57.980 496.640 57.110 494.820 57.110 M492.900 61.050 C493.040 59.830 493.640 59.100 494.790 59.100 C495.570 59.100 496.520 59.560 496.660 61.050 L492.900 61.050 "/>
 </g>
</svg>
