<?xml version="1.0" encoding="UTF-8"?>
<svg height="764.32" width="4151.65" xmlns="http://www.w3.org/2000/svg">
 <g id="page" xmlns:svgx="http://www.xml-cml.org/schema/svgx">
  <g begin="text">
   <text y="92.7" x="54.0,63.325,71.866,80.408,88.95,92.836,100.609,113.079,120.852,129.394,134.049,141.864,145.751,149.637,158.179,162.065,170.607,179.149,184.587,192.36,200.175,204.061,211.834,220.376,228.918,232.804,240.311,248.084,256.626,260.513,268.313" svgx:width="0.67,0.61,0.61,0.61,0.28,0.56,0.89,0.56,0.61,0.33,0.56,0.28,0.28,0.61,0.28,0.61,0.61,0.39,0.56,0.56,0.28,0.56,0.61,0.61,0.28,0.61,0.56,0.61,0.28,0.56,0.56" style="fill:rgb(0,0,0);font-family:Arial-BoldMT;font-size:13.98px;stroke:none;">Supplemental Figures and Tables</text>
  </g>
  <g begin="text">
   <text y="92.7" x="276.22" svgx:width="0.28" style="fill:rgb(0,0,0);font-family:Arial-BoldMT;font-size:13.98px;stroke:none;"> </text>
  </g>
  <g begin="text">
   <text y="345.02" x="453.72" svgx:width="0.28" style="fill:rgb(0,0,0);font-family:ArialMT;font-size:10.02px;stroke:none;"> </text>
  </g>
  <g begin="text">
   <text y="364.28" x="54.0,60.122,62.908,69.03,75.122,79.02,84.591,87.377" svgx:width="0.61,0.28,0.61,0.61,0.39,0.56,0.28,0.67" style="fill:rgb(0,0,0);font-family:Arial-BoldMT;font-size:10.02px;stroke:none;">Figure S</text>
  </g>
  <g begin="text">
   <text y="364.28" x="94.04" svgx:width="0.56" style="fill:rgb(0,0,0);font-family:Arial-BoldMT;font-size:10.02px;stroke:none;">1</text>
  </g>
  <g begin="text">
   <text y="364.28" x="99.62" svgx:width="0.28" style="fill:rgb(0,0,0);font-family:Arial-BoldMT;font-size:10.02px;stroke:none;">.</text>
  </g>
  <g begin="text">
   <text y="364.28" x="102.38" svgx:width="0.28" style="fill:rgb(0,0,0);font-family:ArialMT;font-size:10.02px;stroke:none;"> </text>
  </g>
  <g begin="text">
   <text y="364.28" x="105.14,112.344,117.916,126.262,131.833,137.364,140.701,142.925,147.935,153.507,159.078,161.863,167.434,170.18" svgx:width="0.72,0.56,0.83,0.56,0.56,0.33,0.22,0.5,0.56,0.56,0.28,0.56,0.28,0.28" style="fill:rgb(0,0,0);font-family:ArialMT;font-size:10.02px;stroke:none;">Comparison of </text>
  </g>
  <g begin="text">
   <text y="364.28" x="172.94,178.511,180.736,185.746,190.756,196.327,201.858,205.194,210.786,216.357,219.062,224.072,229.643,235.214,240.785,245.795,248.02,250.805,253.03,258.541,263.551,266.336,271.908,274.693,277.439,280.224,285.795,291.366,294.122,302.468,308.04,313.611,319.182,324.723,330.294,335.825,340.835,346.406,349.142,354.713,359.753,361.977,367.548,373.119,375.835,380.845,386.446,389.231,394.803,400.304,405.825,411.396,416.436,419.221,426.456,428.68,431.466,436.957,442.528,448.099,450.884,453.64,456.425,461.997,467.568,470.323,475.894,481.465,487.036,489.261,492.046,494.271,499.241,504.812,507.597,515.944,521.445,528.128" svgx:width="0.56,0.22,0.5,0.5,0.56,0.56,0.33,0.56,0.56,0.28,0.5,0.56,0.56,0.56,0.5,0.22,0.28,0.22,0.56,0.5,0.28,0.56,0.28,0.28,0.28,0.56,0.56,0.28,0.83,0.56,0.56,0.56,0.56,0.56,0.56,0.5,0.56,0.28,0.56,0.5,0.22,0.56,0.56,0.28,0.5,0.56,0.28,0.56,0.56,0.56,0.56,0.5,0.28,0.72,0.22,0.28,0.56,0.56,0.56,0.28,0.28,0.28,0.56,0.56,0.28,0.56,0.56,0.56,0.22,0.28,0.22,0.5,0.56,0.28,0.83,0.56,0.67,0.78" style="fill:rgb(0,0,0);font-family:ArialMT;font-size:10.02px;stroke:none;">discharge capacities of the manganese oxide cathodes without the additive MnSO</text>
  </g>
  <g begin="text">
   <text y="364.76" x="535.98" svgx:width="0.56" style="fill:rgb(0,0,0);font-family:ArialMT;font-size:6.48px;stroke:none;">4</text>
  </g>
  <g begin="text">
   <text y="364.28" x="539.58" svgx:width="0.28" style="fill:rgb(0,0,0);font-family:ArialMT;font-size:10.02px;stroke:none;"> </text>
  </g>
  <g begin="text">
   <text y="379.88" x="54.0,56.224,61.796,64.581,67.317,72.888,78.459,81.244,86.816,89.04,94.611,99.651,102.437,105.713,111.284,113.449,118.459,121.244,126.815,129.601,135.172,137.958,140.693,146.264,151.835,157.406,160.192,168.539,174.591,177.376" svgx:width="0.22,0.56,0.28,0.28,0.56,0.56,0.28,0.56,0.22,0.56,0.5,0.28,0.33,0.56,0.22,0.5,0.28,0.56,0.28,0.56,0.28,0.28,0.56,0.56,0.56,0.28,0.83,0.67,0.28,0.56" style="fill:rgb(0,0,0);font-family:ArialMT;font-size:10.02px;stroke:none;">in the electrolyte at 300 mA g</text>
  </g>
  <g begin="text">
   <text y="376.4" x="182.96" svgx:width="0.33" style="fill:rgb(0,0,0);font-family:ArialMT;font-size:6.48px;stroke:none;">-</text>
  </g>
  <g begin="text">
   <text y="376.4" x="185.12" svgx:width="0.56" style="fill:rgb(0,0,0);font-family:ArialMT;font-size:6.48px;stroke:none;">1</text>
  </g>
  <g begin="text">
   <text y="379.88" x="188.72" svgx:width="0.28" style="fill:rgb(0,0,0);font-family:ArialMT;font-size:10.02px;stroke:none;"> </text>
  </g>
  <g begin="text">
   <text y="379.88" x="191.48,194.266,199.837,203.173,205.959,211.53,217.101,219.887,224.897,229.907,234.857,237.081,242.652" svgx:width="0.28,0.56,0.33,0.28,0.56,0.56,0.28,0.5,0.5,0.5,0.22,0.56,0.5" style="fill:rgb(0,0,0);font-family:ArialMT;font-size:10.02px;stroke:none;">for 50 cycles</text>
  </g>
  <g begin="text">
   <text y="379.88" x="247.72" svgx:width="0.28" style="fill:rgb(0,0,0);font-family:ArialMT;font-size:10.02px;stroke:none;">.</text>
  </g>
  <g begin="text">
   <text y="379.88" x="250.48" svgx:width="0.28" style="fill:rgb(0,0,0);font-family:ArialMT;font-size:10.02px;stroke:none;"> </text>
  </g>
  <g begin="text">
   <text y="379.88" x="253.24,260.474,266.066,268.23,273.801,276.587,282.158,287.729,290.514,293.25,298.821,301.606,307.729,309.953,315.524,321.095,324.392,329.963,332.749,338.32,344.973" svgx:width="0.72,0.56,0.22,0.56,0.28,0.56,0.56,0.28,0.28,0.56,0.28,0.61,0.22,0.56,0.56,0.33,0.56,0.28,0.56,0.67,0.28" style="fill:rgb(0,0,0);font-family:ArialMT;font-size:10.02px;stroke:none;">Related to Figure 1B.</text>
  </g>
  <g begin="text">
   <text y="379.88" x="347.74" svgx:width="0.28" style="fill:rgb(0,0,0);font-family:ArialMT;font-size:10.02px;stroke:none;"> </text>
  </g>
  <g begin="text">
   <text y="720.96" x="496.44" svgx:width="0.28" style="fill:rgb(0,0,0);font-family:ArialMT;font-size:10.02px;stroke:none;"> </text>
  </g>
  <g begin="text">
   <text y="738.72" x="54.0,60.122,62.908,69.03,75.122,79.02,84.591,87.377,94.02" svgx:width="0.61,0.28,0.61,0.61,0.39,0.56,0.28,0.67,0.56" style="fill:rgb(0,0,0);font-family:Arial-BoldMT;font-size:10.02px;stroke:none;">Figure S2</text>
  </g>
  <g begin="text">
   <text y="738.72" x="99.62" svgx:width="0.28" style="fill:rgb(0,0,0);font-family:Arial-BoldMT;font-size:10.02px;stroke:none;">.</text>
  </g>
  <g begin="text">
   <text y="738.72" x="102.38" svgx:width="0.28" style="fill:rgb(0,0,0);font-family:ArialMT;font-size:10.02px;stroke:none;"> </text>
  </g>
  <g begin="text">
   <text y="738.72" x="105.14,111.823,118.457,125.14,127.875,132.885,138.487,144.058,149.098,151.793,155.13,160.721,163.506,169.078,171.763,174.548,179.558,185.13,190.701,196.292,198.516" svgx:width="0.67,0.67,0.67,0.28,0.5,0.56,0.56,0.5,0.28,0.33,0.56,0.28,0.56,0.28,0.28,0.5,0.56,0.56,0.56,0.22,0.28" style="fill:rgb(0,0,0);font-family:ArialMT;font-size:10.02px;stroke:none;">XPS spectra of cobalt</text>
  </g>
  <g begin="text">
   <text y="738.72" x="201.32" svgx:width="0.33" style="fill:rgb(0,0,0);font-family:ArialMT;font-size:10.02px;stroke:none;">-</text>
  </g>
  <g begin="text">
   <text y="738.72" x="204.62,212.967,218.538,224.109,226.333,229.119,231.263,236.834,242.405" svgx:width="0.83,0.56,0.56,0.22,0.28,0.22,0.56,0.56,0.28" style="fill:rgb(0,0,0);font-family:ArialMT;font-size:10.02px;stroke:none;">modified </text>
  </g>
  <g begin="text">
   <text y="738.72" x="245.2" svgx:width="0.56" style="fill:rgb(0,0,0);font-family:ArialMT;font-size:10.02px;stroke:none;">δ</text>
  </g>
  <g begin="text">
   <text y="738.72" x="250.78" svgx:width="0.33" style="fill:rgb(0,0,0);font-family:ArialMT;font-size:10.02px;stroke:none;">-</text>
  </g>
  <g begin="text">
   <text y="738.72" x="254.14,262.417,267.988" svgx:width="0.83,0.56,0.78" style="fill:rgb(0,0,0);font-family:ArialMT;font-size:10.02px;stroke:none;">MnO</text>
  </g>
  <g begin="text">
   <text y="739.2" x="275.8" svgx:width="0.56" style="fill:rgb(0,0,0);font-family:ArialMT;font-size:6.48px;stroke:none;">2</text>
  </g>
  <g begin="text">
   <text y="738.72" x="279.4,282.186,284.921,290.492,293.849,296.634,304.951,310.522,313.308,318.879,324.45,327.235,329.971,335.542,338.899,341.684,349.941,355.512,358.297,363.868" svgx:width="0.28,0.28,0.56,0.33,0.28,0.83,0.56,0.28,0.56,0.56,0.28,0.28,0.56,0.33,0.28,0.83,0.56,0.28,0.56,0.56" style="fill:rgb(0,0,0);font-family:ArialMT;font-size:10.02px;stroke:none;">: a) Mn 2p, b) Mn 2p</text>
  </g>
  <g begin="text">
   <text y="739.2" x="369.46,373.06,374.859" svgx:width="0.56,0.28,0.56" style="fill:rgb(0,0,0);font-family:ArialMT;font-size:6.48px;stroke:none;">3/2</text>
  </g>
  <g begin="text">
   <text y="738.72" x="378.46" svgx:width="0.28" style="fill:rgb(0,0,0);font-family:ArialMT;font-size:10.02px;stroke:none;"> </text>
  </g>
  <g begin="text">
   <text y="738.72" x="381.22,388.454,390.679,393.464,399.036,401.821,407.392,412.963,418.534,423.574,426.36,429.095,431.32,434.105,436.831,439.055,444.626,450.198,452.983,455.729,460.739,464.115,466.811,474.045,479.636,482.422,487.993,493.564,496.32,499.105,504.676,510.177,515.748,518.534,524.105,527.402,530.187,537.983" svgx:width="0.72,0.22,0.28,0.56,0.28,0.56,0.56,0.56,0.5,0.28,0.28,0.22,0.28,0.28,0.22,0.56,0.56,0.28,0.28,0.5,0.33,0.28,0.72,0.56,0.28,0.56,0.56,0.28,0.28,0.56,0.56,0.56,0.28,0.56,0.33,0.28,0.78,0.28" style="fill:rgb(0,0,0);font-family:ArialMT;font-size:10.02px;stroke:none;">with peak fitting, c) Co 2p, and d) O </text>
  </g>
  <g begin="text">
   <text y="754.32" x="54.0,59.571,64.611,67.397,74.631,76.856,79.641,85.212,87.948,93.469,99.04,104.571,109.581,112.367,115.152,117.377,120.112,122.898,125.122,130.693,136.264" svgx:width="0.56,0.5,0.28,0.72,0.22,0.28,0.56,0.28,0.56,0.56,0.56,0.5,0.28,0.28,0.22,0.28,0.28,0.22,0.56,0.56,0.28" style="fill:rgb(0,0,0);font-family:ArialMT;font-size:10.02px;stroke:none;">1s with peak fitting.</text>
  </g>
  <g begin="text">
   <text y="754.32" x="139.04" svgx:width="0.28" style="fill:rgb(0,0,0);font-family:ArialMT;font-size:10.02px;stroke:none;"> </text>
  </g>
  <g begin="text">
   <text y="754.32" x="141.8,149.034,154.626,156.85,162.421,165.207,170.778,176.289,179.074,181.81,187.381,190.167,196.289,198.513,204.084,209.655,212.992,218.563,221.349,226.92,233.603" svgx:width="0.72,0.56,0.22,0.56,0.28,0.56,0.56,0.28,0.28,0.56,0.28,0.61,0.22,0.56,0.56,0.33,0.56,0.28,0.56,0.67,0.28" style="fill:rgb(0,0,0);font-family:ArialMT;font-size:10.02px;stroke:none;">Related to Figure 2B.</text>
  </g>
  <g begin="text">
   <text y="754.32" x="236.3" svgx:width="0.28" style="fill:rgb(0,0,0);font-family:ArialMT;font-size:10.02px;stroke:none;"> </text>
  </g>
  <rect style="stroke:blue;stroke-width:0.3;" x="141.65" y="69.08" height="233.8" width="311.8" title="17"/>
  <text y="69.08" class="image" id="image.17.1" width="311" height="233" x="141.65">image.17.1.142_453.69_303</text>
  <rect style="stroke:blue;stroke-width:0.3;" x="98.9" y="348.38" height="330.6" width="396.8" title="17"/>
  <text y="348.38" class="image" id="image.17.2" width="396" height="330" x="98.9">image.17.2.99_496.348_679</text>
 </g>
</svg>
