<?xml version="1.0" encoding="UTF-8"?>
<svg height="772.973" width="555.45" xmlns="http://www.w3.org/2000/svg">
 <g id="page" xmlns:svgx="http://www.xml-cml.org/schema/svgx">
  <g begin="text">
   <text y="109.361" x="57.657,62.169,64.7991,66.534,70.791,72.808,74.993,77.06519999999999,78.735,82.992,87.248,91.505,95.762,100.768,102.8402,104.567,109.556,113.813,117.576,122.088,126.6,130.362,132.38,136.142,138.16,140.881,144.792,149.304,153.561,155.4738,157.133,161.385,165.897,170.7587,172.473,179.639,183.896,188.408,191.174,195.686,197.703,200.47,204.727,211.646,213.7182,215.388,219.645,223.902,228.158" svgx:width="0.55,0.33,0.55,0.52,0.24,0.26,0.26,0.55,0.52,0.52,0.52,0.52,0.61,0.26,0.55,0.61,0.52,0.46,0.55,0.55,0.46,0.24,0.46,0.24,0.33,0.48,0.55,0.52,0.24,0.55,0.52,0.55,0.61,0.55,0.88,0.52,0.55,0.33,0.55,0.24,0.33,0.52,0.85,0.26,0.55,0.52,0.52,0.52,0.52" style="fill:rgb(0,138,141);font-family:AdvPSA5CD;font-size:7.97px;stroke:none;">et al., 2019b; Kaveevivitchai and Manthiram, 2016</text>
   <text y="109.361" x="232.328,234.515,236.5872,238.257,242.515,245.283,249.66649999999998,251.349,258.266,263.106,265.874,270.25750000000005,271.94,275.455,279.934,281.975,284.743,289.001,294.009,295.994,300.37750000000005,302.116,306.028,310.287,313.055,317.533,322.352,327.359,331.7425,333.482,340.289,344.593,347.362,351.875,354.596,356.637,360.896,362.88,366.3071,367.983,370.421,375.261,377.89110000000005,379.626,384.105,388.641,391.409,393.393,398.234,402.6175,404.356,409.364,413.623,416.391,419.112,423.625,426.346,428.365,432.843" svgx:width="0.26,0.26,0.55,0.52,0.33,0.55,0.55,0.85,0.59,0.33,0.55,0.55,0.43,0.55,0.24,0.33,0.52,0.61,0.24,0.55,0.55,0.48,0.52,0.33,0.55,0.59,0.61,0.55,0.55,0.85,0.52,0.33,0.55,0.33,0.24,0.52,0.24,0.43,0.55,0.29,0.59,0.33,0.55,0.55,0.55,0.33,0.24,0.59,0.55,0.55,0.61,0.52,0.33,0.33,0.55,0.33,0.24,0.55,0.43" style="fill:rgb(0,0,0);font-family:AdvPSA5CD;font-size:7.97px;stroke:none;">), are more suitable cathode materials for Zn-ion batteries</text>
   <text y="120.302" x="57.657,61.892,65.3191,67.164,71.3084,73.117,78.107,80.148,83.89,88.125,90.166,94.657,99.147,101.7771,103.682,105.678,110.495,114.8785,116.731,121.72,125.956,128.733,131.511,135.989,138.767,142.4332,144.21,147.704,151.503,154.906,157.739,162.274,169.081,171.1532,173.046,177.298,181.833,186.6947,188.523,191.301,195.78,200.315,203.036,207.571,210.009,214.826,217.604,221.9875,223.783,226.56,231.051,235.587,239.2532,241.03,245.565,249.801,253.542,257.9255,259.778,264.767,269.258,273.794,278.1775,280.029,285.755,287.751,292.797,297.287,299.328,302.9942,304.771,308.286,311.064,315.542,320.527,322.568,327.058,331.9197,333.805" svgx:width="0.52,0.43,0.55,0.52,0.55,0.61,0.24,0.46,0.52,0.24,0.55,0.55,0.33,0.55,0.24,0.59,0.55,0.55,0.61,0.52,0.33,0.33,0.55,0.33,0.46,0.55,0.43,0.46,0.43,0.33,0.55,0.85,0.26,0.55,0.52,0.55,0.61,0.55,0.33,0.55,0.55,0.33,0.55,0.29,0.59,0.33,0.55,0.55,0.33,0.55,0.55,0.46,0.55,0.55,0.52,0.46,0.55,0.55,0.61,0.55,0.55,0.55,0.55,0.71,0.24,0.61,0.55,0.24,0.46,0.55,0.43,0.33,0.55,0.61,0.24,0.55,0.61,0.55,0.26" style="fill:rgb(0,0,0);font-family:AdvPSA5CD;font-size:7.97px;stroke:none;">as a bivalent ion battery system, and therefore they have been widely studied (</text>
   <text y="120.302" x="335.963,340.839,345.317,348.084,354.89,359.0344,360.952,365.431,368.0611,369.909,374.161,376.179,378.363,380.4352,382.275,386.532,390.789,395.046" svgx:width="0.59,0.55,0.33,0.85,0.52,0.55,0.55,0.33,0.55,0.52,0.24,0.26,0.26,0.55,0.52,0.52,0.52,0.52" style="fill:rgb(0,138,141);font-family:AdvPSA5CD;font-size:7.97px;stroke:none;">Verma et al., 2019</text>
   <text y="120.302" x="399.29,401.492,403.5642,405.404,410.96,414.872,417.656,422.134,426.408,428.443,430.478,434.22" svgx:width="0.26,0.26,0.55,0.69,0.48,0.33,0.55,0.52,0.24,0.24,0.46,0.26" style="fill:rgb(0,0,0);font-family:AdvPSA5CD;font-size:7.97px;stroke:none;">). Actually,</text>
   <text y="131.244" x="57.657,62.189,66.668,69.79,76.933,81.412" svgx:width="0.55,0.55,0.38,0.88,0.55,0.83" style="fill:rgb(0,0,0);font-family:AdvPSA5CD;font-size:7.97px;stroke:none;">Zn/MnO</text>
   <text y="132.605" x="88.158" svgx:width="0.52" style="fill:rgb(0,0,0);font-family:AdvPSA5CD;font-size:5.31px;stroke:none;">2</text>
   <text y="131.244" x="92.863,97.875,102.139,104.912,107.684,112.163,114.936,118.60220000000001,120.151,122.175,125.6021,127.164,132.009,136.528,140.9115,142.481,147.356,149.66729999999998,151.268,154.045,158.524,162.9075,164.533,169.012,173.264,176.037,178.021,180.045,184.523,188.046,190.6761,192.298,195.82,199.589,203.111,205.884,210.362,217.279,220.7061,222.268,224.706,229.551,232.1811,233.803,238.816,241.589,243.612,250.419,254.682,257.455,261.1212,262.727,267.206,271.684,274.462,279.474,283.737,287.259,291.778,296.6397,298.241,303.23,307.493,310.266,313.039,317.517,320.29,322.275,326.793,330.315,332.3872,333.943,339.726,344.204,346.245,350.182,354.56550000000004,356.135,360.653,364.916,368.3431,369.906,374.158,378.094,382.612,384.597,389.075,392.845,397.323,402.18469999999996,403.843,407.754,412.6,419.525,426.331,430.92,433.693" svgx:width="0.61,0.52,0.33,0.33,0.55,0.33,0.46,0.55,0.24,0.43,0.55,0.59,0.55,0.55,0.55,0.59,0.29,0.55,0.33,0.55,0.55,0.55,0.55,0.52,0.33,0.24,0.24,0.55,0.43,0.33,0.55,0.43,0.46,0.43,0.33,0.55,0.85,0.43,0.55,0.29,0.59,0.33,0.55,0.61,0.33,0.24,0.85,0.52,0.33,0.46,0.55,0.55,0.55,0.33,0.61,0.52,0.43,0.55,0.61,0.55,0.61,0.52,0.33,0.33,0.55,0.33,0.24,0.55,0.43,0.26,0.55,0.71,0.55,0.24,0.48,0.55,0.55,0.55,0.52,0.43,0.55,0.52,0.48,0.55,0.24,0.55,0.46,0.55,0.61,0.55,0.48,0.59,0.85,0.85,0.55,0.33,0.33" style="fill:rgb(0,0,0);font-family:AdvPSA5CD;font-size:7.97px;stroke:none;">battery is one of the earliest systems for primary Zn-based batteries, which has achieved commer-</text>
   <text y="142.243" x="57.656,61.625,63.609,67.864,69.88,71.896,75.41,79.665,82.43,84.446,89.283,93.6665,97.787,104.704,108.959,113.469,117.1352,121.236,124.978,129.488,133.744,136.509,139.93609999999998,143.992,148.247,153.252,157.95430000000002,162.095" svgx:width="0.48,0.24,0.52,0.24,0.24,0.43,0.52,0.33,0.24,0.59,0.55,0.55,0.85,0.52,0.55,0.46,0.55,0.46,0.55,0.52,0.33,0.43,0.55,0.52,0.61,0.59,0.55,0.26" style="fill:rgb(0,0,0);font-family:AdvPSA5CD;font-size:7.97px;stroke:none;">cialization many years ago (</text>
   <text y="142.243" x="164.296,168.389,170.30180000000001,174.399,178.907,181.5371,185.654,189.907,191.92,194.1,196.1722,200.336,204.589,208.842,213.095,217.348" svgx:width="0.5,0.24,0.55,0.55,0.33,0.55,0.52,0.24,0.26,0.26,0.55,0.52,0.52,0.52,0.52,0.52" style="fill:rgb(0,138,141);font-family:AdvPSA5CD;font-size:7.97px;stroke:none;">Li et al., 2019a</text>
   <text y="142.243" x="221.613,223.78,225.8522,229.959,236.693,242.476,244.475,248.97,253.8317,257.984,260.762,265.4643,269.606,272.384,276.878,281.2615,285.382,287.797,292.036,295.534,298.1641,302.337,306.25,308.25,312.785,317.264,320.013,322.054,325.967,329.3941,333.45,338.325,340.6363,344.732,351.88,356.2635,360.441,363.19,367.726,372.714,377.535,381.36060000000003,385.472,388.25,392.744,396.983,400.896,403.645,405.686,410.505,414.999,418.497,420.5692,424.677,431.82" svgx:width="0.26,0.26,0.55,0.83,0.71,0.24,0.55,0.61,0.55,0.33,0.59,0.55,0.33,0.55,0.55,0.55,0.29,0.52,0.43,0.33,0.55,0.48,0.24,0.55,0.55,0.33,0.24,0.48,0.43,0.55,0.59,0.29,0.55,0.88,0.55,0.55,0.33,0.55,0.61,0.59,0.48,0.55,0.33,0.55,0.52,0.48,0.33,0.24,0.59,0.55,0.43,0.26,0.55,0.88,0.55" style="fill:rgb(0,0,0);font-family:AdvPSA5CD;font-size:7.97px;stroke:none;">). Owing to the fast kinetics of Mn redox reactions, Mn</text>
   <text y="153.185" x="57.656,61.625,66.443,73.337,78.317,83.131,87.617,92.152,97.141,100.5681,103.151,105.362,109.848,112.007,117.053,119.208,121.2802,123.913,131.057,135.543" svgx:width="0.48,0.59,0.85,0.61,0.59,0.55,0.55,0.61,0.43,0.55,0.26,0.55,0.26,0.61,0.26,0.26,0.55,0.88,0.55,0.83" style="fill:rgb(0,0,0);font-family:AdvPSA5CD;font-size:7.97px;stroke:none;">compounds (e.g., MnO</text>
   <text y="154.489" x="142.299" svgx:width="0.52" style="fill:rgb(0,0,0);font-family:AdvPSA5CD;font-size:5.31px;stroke:none;">2</text>
   <text y="153.185" x="145.531,147.60320000000002,150.236,153.751,158.244,163.064,168.7227,171.341,176.33,179.108,183.926,190.826,192.824,196.321,198.362,202.855,207.7167,210.395,214.306,218.543,223.53,227.768,232.755,234.796,236.794,238.835,241.613,245.2792,247.849,252.087,255.51409999999998,258.096,262.632,264.617,269.604,274.139,276.917,281.906,286.399,289.177,291.589,296.409,299.186,305.993,310.298,314.834,318.745,323.12850000000003,325.774,329.685,333.923,336.701,341.179,345.999,350.986,355.521,358.9481,361.531,363.943,368.763,371.3931,374.035,376.813,381.306,385.217,389.753,394.005,396.752,401.798,406.291,410.528,415.515,417.557,421.94050000000004,424.53,429.066,433.558" svgx:width="0.26,0.55,0.43,0.55,0.59,0.71,0.55,0.61,0.33,0.59,0.85,0.24,0.43,0.24,0.55,0.61,0.55,0.48,0.52,0.61,0.52,0.61,0.24,0.24,0.24,0.33,0.46,0.55,0.52,0.43,0.55,0.55,0.24,0.61,0.55,0.33,0.61,0.55,0.33,0.29,0.59,0.33,0.85,0.52,0.55,0.48,0.55,0.55,0.48,0.52,0.33,0.55,0.59,0.61,0.55,0.43,0.55,0.29,0.59,0.33,0.55,0.33,0.55,0.48,0.55,0.52,0.33,0.61,0.55,0.52,0.61,0.24,0.55,0.55,0.55,0.55,0.33" style="fill:rgb(0,0,0);font-family:AdvPSA5CD;font-size:7.97px;stroke:none;">) show promising capability as high-performance cathodes for rechargeable Zn-</text>
   <text y="164.126" x="57.656,59.697,64.516,68.8995,70.526,75.515,79.767,82.545,85.27,89.805,92.53,94.571,99.041,102.46809999999999,104.031" svgx:width="0.24,0.59,0.55,0.55,0.61,0.52,0.33,0.33,0.55,0.33,0.24,0.55,0.43,0.55,0.26" style="fill:rgb(0,0,0);font-family:AdvPSA5CD;font-size:7.97px;stroke:none;">ion batteries (</text>
   <text y="164.126" x="106.242,111.991,116.495,121.0,125.505,130.3667,132.024,136.529,139.1591,140.781,145.031,147.041,149.219,151.2912,152.847,157.155,161.405,165.655,169.904,171.9762,173.532,178.197,182.446,186.8295,188.456,192.934,195.5641,197.186,201.438,203.449,205.626,207.6982,209.311,213.561,217.811,222.061,226.31,228.3822,229.938,235.766,239.91039999999998,241.492,245.742,250.246,255.10770000000002,256.709,260.791,265.296,269.8,271.8722,273.428,277.678,281.928,286.178" svgx:width="0.71,0.55,0.55,0.55,0.61,0.55,0.55,0.33,0.55,0.52,0.24,0.26,0.26,0.55,0.52,0.52,0.52,0.52,0.26,0.55,0.57,0.52,0.55,0.55,0.55,0.33,0.55,0.52,0.24,0.26,0.26,0.55,0.52,0.52,0.52,0.52,0.26,0.55,0.72,0.52,0.55,0.52,0.55,0.61,0.55,0.5,0.55,0.55,0.26,0.55,0.52,0.52,0.52,0.52" style="fill:rgb(0,138,141);font-family:AdvPSA5CD;font-size:7.97px;stroke:none;">Cheng et al., 2005; Pan et al., 2016; Ha and Lee, 2016</text>
   <text y="164.126" x="290.439,292.626,294.6982,296.254,298.442,302.82550000000003,304.395,307.165,311.68,315.613,320.128,324.643,327.2731,328.839,332.637,337.116,341.376,344.146,347.664,349.7362,351.293,355.4374,357.018,360.76,365.02,367.79,369.81,374.326,377.095,380.76120000000003,382.311,387.153,389.46430000000004,391.065,397.987,402.829,407.875,409.859,414.119,418.052,422.313,425.082,427.103,431.945" svgx:width="0.26,0.26,0.55,0.26,0.55,0.55,0.33,0.55,0.48,0.55,0.55,0.33,0.55,0.46,0.55,0.52,0.33,0.43,0.26,0.55,0.52,0.55,0.46,0.52,0.33,0.24,0.55,0.33,0.46,0.55,0.59,0.29,0.55,0.85,0.59,0.61,0.24,0.52,0.48,0.52,0.33,0.24,0.59,0.55" style="fill:rgb(0,0,0);font-family:AdvPSA5CD;font-size:7.97px;stroke:none;">). In recent years, a variety of modiﬁcation</text>
   <text y="175.124" x="57.657,61.15,63.928,66.705,70.958,73.735,78.214,83.197,85.239,89.728,93.15509999999999,95.738,97.949,102.427,104.638,109.627,111.79,113.8622,116.495,121.479,124.257,128.746,131.524,133.565,138.043,140.821,145.3,148.077,151.989,156.224,158.265,162.499,165.243,167.285,172.103,176.639,178.71120000000002,181.288,185.824,190.303,193.08,197.559,200.336,205.155,209.39,212.167,216.984,223.7585,226.395,231.379,236.254,241.238,243.233,247.768,252.758,254.83020000000002,257.463,261.716,266.205,271.06669999999997,273.745,278.729,283.218,285.628,290.117,294.086,296.71610000000004,299.358,303.848,308.337,313.383,315.378,319.913,324.403,328.892,331.67,333.711,338.19,343.173,345.2452,347.879,352.369,356.603,360.402,364.7855,367.375,372.421,376.911,381.4,385.7835,388.43,393.414,396.191,401.008,405.991,410.808,414.301,418.836,423.6977,426.319,428.729,433.545" svgx:width="0.43,0.33,0.33,0.52,0.33,0.55,0.61,0.24,0.55,0.43,0.55,0.26,0.55,0.26,0.61,0.26,0.26,0.55,0.61,0.33,0.55,0.33,0.24,0.55,0.33,0.55,0.33,0.48,0.52,0.24,0.52,0.33,0.24,0.59,0.55,0.26,0.55,0.55,0.55,0.33,0.55,0.33,0.59,0.52,0.33,0.59,0.85,0.55,0.61,0.59,0.61,0.24,0.55,0.61,0.26,0.55,0.52,0.55,0.61,0.55,0.61,0.55,0.29,0.55,0.48,0.33,0.55,0.55,0.55,0.61,0.24,0.55,0.55,0.55,0.33,0.24,0.55,0.61,0.26,0.55,0.55,0.52,0.46,0.55,0.55,0.61,0.55,0.55,0.55,0.55,0.61,0.33,0.59,0.61,0.59,0.43,0.55,0.61,0.55,0.29,0.59,0.33" style="fill:rgb(0,0,0);font-family:AdvPSA5CD;font-size:7.97px;stroke:none;">strategies (e.g., pre-intercalation, heteroatom doping, and defect engineering) have been proposed for</text>
   <text y="186.066" x="57.657,59.688,66.62,71.64,74.42,79.239,82.981,85.011,89.49,94.3517,98.051,100.772,105.297,109.6805,113.291,118.311,122.789,125.569,128.015,132.833,135.611,142.418,146.722,151.248,155.159,159.5425,163.21,168.029,170.34029999999998,173.982,176.76,181.238,185.6215,189.289,196.432,200.911,203.691,208.71,212.981,216.51,221.036,225.89770000000001,229.54,233.452,237.704,240.484,244.962,249.814,254.834,259.312,262.7391,266.342" svgx:width="0.24,0.85,0.61,0.33,0.59,0.46,0.24,0.55,0.61,0.55,0.33,0.55,0.55,0.55,0.61,0.55,0.33,0.29,0.59,0.33,0.85,0.52,0.55,0.48,0.55,0.55,0.59,0.29,0.55,0.33,0.55,0.55,0.55,0.88,0.55,0.33,0.61,0.52,0.43,0.55,0.61,0.55,0.48,0.52,0.33,0.55,0.59,0.61,0.55,0.43,0.55,0.26" style="fill:rgb(0,0,0);font-family:AdvPSA5CD;font-size:7.97px;stroke:none;">improving the performance of the Mn-based cathodes (</text>
   <text y="186.066" x="268.498,276.152,280.402,284.908,289.7697,293.469,297.974,300.6041,304.268,308.518,310.529,312.707,314.7792,318.433,322.684,326.934,331.185,335.435,339.686,341.7582,345.411,349.503,354.335,358.84,363.70169999999996,367.345,371.85,374.48010000000005,378.143,382.394,384.405,386.583,388.65520000000004,392.309,396.559,400.81,405.06,409.311,411.3832,415.037,420.036,422.047,426.88,431.385" svgx:width="0.95,0.52,0.55,0.61,0.55,0.55,0.33,0.55,0.52,0.24,0.26,0.26,0.55,0.52,0.52,0.52,0.52,0.52,0.26,0.55,0.5,0.59,0.55,0.61,0.55,0.55,0.33,0.55,0.52,0.24,0.26,0.26,0.55,0.52,0.52,0.52,0.52,0.26,0.55,0.61,0.24,0.59,0.55,0.61" style="fill:rgb(0,138,141);font-family:AdvPSA5CD;font-size:7.97px;stroke:none;">Wang et al., 2019a; Long et al., 2019; Xiong</text>
   <text y="197.007" x="57.657,62.162,64.7921,66.64,70.891,72.901,75.08,77.1522,78.991,83.241,87.492,91.742,95.993,98.06519999999999,99.904,104.409,108.66,113.165,118.0267,119.911,124.417,127.0471,128.951,133.202,135.212,137.391,139.4632,141.302,145.552,149.803,154.053" svgx:width="0.55,0.33,0.55,0.52,0.24,0.26,0.26,0.55,0.52,0.52,0.52,0.52,0.26,0.55,0.55,0.52,0.55,0.61,0.55,0.55,0.33,0.55,0.52,0.24,0.26,0.26,0.55,0.52,0.52,0.52,0.52" style="fill:rgb(0,138,141);font-family:AdvPSA5CD;font-size:7.97px;stroke:none;">et al., 2019; Fang et al., 2019</text>
   <text y="197.007" x="158.344,160.506,162.5782,164.418,168.954,173.772,176.4021,178.251,182.787,186.694,190.929,197.826,202.809,204.804,209.339,211.4112,213.251,218.24,221.018,225.497,228.274,230.259,234.795,237.516,242.051,244.828,248.736,252.971,254.966,259.2,261.978,264.019,268.835,273.2185,275.071,279.888,282.1993,284.083,286.078,290.894,295.43,298.8571,300.646,305.462,308.0921,309.998,316.805,321.734,323.729,328.264,332.172,336.662,338.703,343.181,346.6081,348.454,350.608,355.098,357.309,362.292,364.503,366.5752,368.415,374.708" svgx:width="0.26,0.26,0.55,0.55,0.59,0.33,0.55,0.55,0.48,0.52,0.85,0.61,0.24,0.55,0.26,0.55,0.61,0.33,0.55,0.33,0.24,0.55,0.33,0.55,0.33,0.48,0.52,0.24,0.52,0.33,0.24,0.59,0.55,0.55,0.59,0.29,0.55,0.24,0.59,0.55,0.43,0.55,0.59,0.33,0.55,0.85,0.59,0.24,0.55,0.48,0.55,0.24,0.55,0.43,0.55,0.26,0.55,0.26,0.61,0.26,0.26,0.55,0.78,0.52" style="fill:rgb(0,0,0);font-family:AdvPSA5CD;font-size:7.97px;stroke:none;">). For example, pre-intercalation of ions or molecules (e.g., Na</text>
   <text y="193.493" x="378.992" svgx:width="0.67" style="fill:rgb(0,0,0);font-family:AdvPSA5CD;font-size:5.31px;stroke:none;">+</text>
   <text y="197.008" x="383.074,385.1462,386.986,391.522" svgx:width="0.26,0.55,0.55,0.55" style="fill:rgb(0,0,0);font-family:AdvPSA5CD;font-size:7.97px;stroke:none;">, Zn</text>
   <text y="193.493" x="396.0,399.231" svgx:width="0.52,0.67" style="fill:rgb(0,0,0);font-family:AdvPSA5CD;font-size:5.31px;stroke:none;">2+</text>
   <text y="197.008" x="403.313,405.3852,407.225,412.214,417.09,419.074,422.873,427.125,431.603,433.588" svgx:width="0.26,0.55,0.61,0.59,0.24,0.46,0.52,0.55,0.24,0.33" style="fill:rgb(0,0,0);font-family:AdvPSA5CD;font-size:7.97px;stroke:none;">, polyani-</text>
   <text y="208.006" x="57.655,59.696,61.738,66.216,70.59949999999999,73.133,77.951,80.58109999999999,83.167,88.893,93.121,95.899,100.382,103.16,105.23219999999999,107.752,109.737,114.12049999999999,116.653,119.431,123.914,128.2975,130.83,132.872,137.124,140.858,145.393,148.131,152.666,157.5277,160.036,167.237,171.72" svgx:width="0.24,0.24,0.55,0.55,0.55,0.59,0.33,0.55,0.71,0.52,0.33,0.55,0.33,0.26,0.55,0.24,0.55,0.55,0.33,0.55,0.55,0.55,0.24,0.52,0.46,0.55,0.33,0.55,0.61,0.55,0.88,0.55,0.83" style="fill:rgb(0,0,0);font-family:AdvPSA5CD;font-size:7.97px;stroke:none;">line or water) in the layered MnO</text>
   <text y="209.311" x="178.469" svgx:width="0.52" style="fill:rgb(0,0,0);font-family:AdvPSA5CD;font-size:5.31px;stroke:none;">2</text>
   <text y="208.007" x="184.082,188.002,192.248,196.6315,199.165,204.154,209.029,213.848,217.353,219.9831,222.513,225.269,229.77,234.1535,236.687,239.464,243.966,248.962,253.837,257.6626,260.13,264.099,266.083,270.618,275.097,277.853,279.86,283.779,287.2061,289.732,294.728,298.3942,300.907,303.329,307.575,311.495,313.502,315.543,317.584,320.305,324.552,327.308,329.349,333.828,338.68969999999996,341.254,343.975,348.51,352.8935,355.427,359.347,363.848,368.095,370.851,375.846,380.22950000000003,382.763,386.268,389.024,393.853,396.609,400.855,405.851,410.2345,412.768" svgx:width="0.48,0.52,0.55,0.55,0.61,0.59,0.59,0.43,0.33,0.55,0.33,0.55,0.55,0.55,0.33,0.55,0.61,0.59,0.48,0.55,0.48,0.24,0.55,0.55,0.33,0.24,0.48,0.43,0.55,0.61,0.46,0.55,0.29,0.52,0.48,0.24,0.24,0.24,0.33,0.52,0.33,0.24,0.55,0.61,0.55,0.33,0.55,0.55,0.55,0.48,0.55,0.52,0.33,0.61,0.55,0.55,0.43,0.33,0.59,0.33,0.52,0.61,0.55,0.55,0.26" style="fill:rgb(0,0,0);font-family:AdvPSA5CD;font-size:7.97px;stroke:none;">can boost the redox kinetics by facilitating the charge storage (</text>
   <text y="208.007" x="414.936,422.606,426.872,431.394" svgx:width="0.95,0.52,0.55,0.61" style="fill:rgb(0,138,141);font-family:AdvPSA5CD;font-size:7.97px;stroke:none;">Wang</text>
   <text y="218.948" x="57.656,62.167,64.7971,67.61,71.866,73.883,76.067,78.13919999999999,80.885,85.141,89.397,93.654,97.91,102.166,104.23819999999999,107.041,111.297,115.553,119.809,124.065,129.071,131.1432,133.946,139.669,144.264,148.516,153.028,157.8897,160.681,165.193,167.8231,170.635,174.891,176.908,179.092,181.16420000000002,183.911,188.167,192.423,196.679" svgx:width="0.55,0.33,0.55,0.52,0.24,0.26,0.26,0.55,0.52,0.52,0.52,0.52,0.52,0.26,0.55,0.52,0.52,0.52,0.52,0.61,0.26,0.55,0.72,0.55,0.52,0.55,0.61,0.55,0.55,0.33,0.55,0.52,0.24,0.26,0.26,0.55,0.52,0.52,0.52,0.52" style="fill:rgb(0,138,141);font-family:AdvPSA5CD;font-size:7.97px;stroke:none;">et al., 2019a, 2019b; Huang et al., 2018</text>
   <text y="218.948" x="200.863,203.074,205.14620000000002,207.893,213.902,218.721,223.703,225.744,230.232,235.0937,237.943,241.849,246.082,248.86,253.338,258.153,263.135,267.5185,270.335,277.252,281.485,284.227,288.763,291.484,293.525,297.777,299.819,303.2461,305.998,311.729,313.723,316.5,320.8835,323.701,327.607,332.422,337.404,341.637,343.678,346.3081,349.121,353.936,356.5661,359.378,363.866,365.86,369.828,373.74,378.228,380.1408,382.933,384.927,388.3541,391.106,396.152,400.64,405.128,409.663,413.896,417.802,419.796,424.029,425.9418,428.734,431.512" svgx:width="0.26,0.26,0.55,0.74,0.59,0.61,0.24,0.55,0.61,0.55,0.48,0.52,0.33,0.55,0.59,0.61,0.55,0.55,0.85,0.52,0.33,0.55,0.33,0.24,0.52,0.24,0.43,0.55,0.71,0.24,0.33,0.55,0.55,0.48,0.59,0.61,0.52,0.24,0.33,0.55,0.59,0.33,0.55,0.55,0.24,0.48,0.48,0.55,0.24,0.55,0.24,0.43,0.55,0.61,0.55,0.55,0.55,0.52,0.48,0.24,0.52,0.24,0.55,0.33,0.59" style="fill:rgb(0,0,0);font-family:AdvPSA5CD;font-size:7.97px;stroke:none;">). Doping cathode materials with cobalt or nickel is beneﬁcial to</text>
   <text y="229.89" x="57.656,59.697,66.614,71.598,74.375,79.192,82.932,87.3155,89.111,91.889,96.379,100.7625,102.614,107.104,111.594,116.13,118.907,123.896,127.5622,129.339,134.329,138.818,143.353,146.847,148.842,151.619,155.2852,157.062,161.878,164.18929999999997,166.017,168.795,173.273,177.6565,179.453,183.365,187.599,190.377,194.912,199.731,204.714,209.0975,210.894,215.877,219.5432,221.32,223.361,227.84,231.748,234.525,239.06,243.312,246.716,248.812,253.301,258.1627,259.994,262.769,267.29,271.67350000000005,273.469,278.459,280.443,283.958,287.897,292.375,296.641,299.416,304.431,308.8145,310.61,314.382,319.229,321.255,324.031,328.296,333.311,337.6945,339.49,344.309,346.93910000000005,348.788,350.829,357.635,362.677,365.453,370.3,374.072,376.056,380.577,385.4387,387.266,389.987,394.522,398.9055,400.702,405.18,407.206,411.685,415.623,418.399,421.174,426.021,430.542,432.527" svgx:width="0.24,0.85,0.61,0.33,0.59,0.46,0.55,0.55,0.33,0.55,0.55,0.55,0.55,0.55,0.55,0.33,0.61,0.46,0.55,0.61,0.55,0.55,0.43,0.24,0.33,0.46,0.55,0.59,0.29,0.55,0.33,0.55,0.55,0.55,0.48,0.52,0.33,0.55,0.59,0.61,0.55,0.55,0.61,0.46,0.55,0.24,0.55,0.48,0.33,0.55,0.52,0.43,0.24,0.55,0.61,0.55,0.33,0.55,0.55,0.55,0.61,0.24,0.43,0.48,0.55,0.52,0.33,0.61,0.55,0.55,0.46,0.59,0.24,0.33,0.52,0.61,0.55,0.55,0.59,0.33,0.55,0.24,0.85,0.61,0.33,0.59,0.46,0.24,0.55,0.61,0.55,0.33,0.55,0.55,0.55,0.55,0.24,0.55,0.48,0.33,0.33,0.59,0.55,0.24,0.48" style="fill:rgb(0,0,0);font-family:AdvPSA5CD;font-size:7.97px;stroke:none;">improve the energy density of the cathode by increasing the discharge voltage or improving the electronic</text>
   <text y="240.831" x="57.656,61.601,66.454,70.932,75.921,80.448,84.392,87.173,89.158,92.935,94.919,97.7,101.3662,103.653" svgx:width="0.48,0.59,0.55,0.61,0.55,0.48,0.33,0.24,0.46,0.24,0.33,0.46,0.55,0.26" style="fill:rgb(0,0,0);font-family:AdvPSA5CD;font-size:7.97px;stroke:none;">conductivity (</text>
   <text y="240.831" x="105.846,109.941,114.779,119.289,124.1507,126.489,131.0,133.6301,135.989,140.244,142.26,144.443,146.51520000000002,148.865,153.12,157.375,161.631,165.886,167.9582,170.308,174.978,179.233,183.6165,185.98,190.458,193.0881,195.447,199.7,201.715,203.898,205.9702,208.32,212.575,216.831,221.086,225.341,227.41320000000002,229.763,236.928,241.0724,243.391,247.901,250.5311,252.89,257.146,259.161,261.344,263.4162,265.766,270.021,274.277,278.532" svgx:width="0.5,0.59,0.55,0.61,0.55,0.55,0.33,0.55,0.52,0.24,0.26,0.26,0.55,0.52,0.52,0.52,0.52,0.26,0.55,0.57,0.52,0.55,0.55,0.55,0.33,0.55,0.52,0.24,0.26,0.26,0.55,0.52,0.52,0.52,0.52,0.26,0.55,0.88,0.52,0.55,0.55,0.33,0.55,0.52,0.24,0.26,0.26,0.55,0.52,0.52,0.52,0.52" style="fill:rgb(0,138,141);font-family:AdvPSA5CD;font-size:7.97px;stroke:none;">Long et al., 2019; Pan et al., 2018; Ma et al., 2019</text>
   <text y="240.831" x="282.728,284.883" svgx:width="0.26,0.26" style="fill:rgb(0,0,0);font-family:AdvPSA5CD;font-size:7.97px;stroke:none;">).</text>
   <text y="262.771" x="57.657,63.666,68.143,71.546,76.589,78.576,81.312,85.6955,88.114,91.628,93.615,98.591,103.073,105.06,109.203,113.165,117.392,121.874,124.5041,126.919,131.062,136.101,139.842,144.069,148.551,151.287,155.431,160.469,164.947,168.3741,170.786,172.939,177.421,179.575,184.468,186.717,188.78920000000002,191.194,195.593,197.656,202.549,206.9325,209.39,212.166,216.648,221.13,225.855,228.668,233.146,235.882,237.869,241.769,245.912,247.8248,250.328,254.145,258.434,263.422,267.566,271.528,273.515,276.251,279.983,282.0552,284.461,286.448,291.256,296.9147,299.306,303.217,308.026,311.428,314.203,316.2752,318.681,320.721,325.447,331.1057,333.532,336.252,341.061,344.96,346.947,350.847,352.834,355.57,359.303,361.457,363.5292,365.935,368.712,373.193,377.5765,379.939,384.421,389.229,392.006,396.732,399.544,401.528,406.337,410.818,414.2451,416.6,418.584,423.065,426.551,429.287,433.43" svgx:width="0.74,0.55,0.43,0.61,0.24,0.33,0.55,0.55,0.43,0.24,0.61,0.55,0.24,0.52,0.48,0.52,0.55,0.33,0.55,0.52,0.61,0.46,0.52,0.55,0.33,0.52,0.61,0.55,0.43,0.55,0.26,0.55,0.26,0.61,0.26,0.26,0.55,0.55,0.24,0.61,0.55,0.55,0.33,0.55,0.55,0.59,0.33,0.55,0.33,0.24,0.48,0.52,0.24,0.55,0.48,0.52,0.61,0.52,0.48,0.24,0.33,0.46,0.26,0.55,0.24,0.59,0.71,0.55,0.48,0.59,0.43,0.33,0.26,0.55,0.24,0.59,0.71,0.55,0.33,0.59,0.48,0.24,0.48,0.24,0.33,0.46,0.26,0.26,0.55,0.33,0.55,0.55,0.55,0.55,0.59,0.33,0.59,0.33,0.24,0.59,0.55,0.43,0.55,0.24,0.55,0.43,0.33,0.52,0.33" style="fill:rgb(0,0,0);font-family:AdvPSA5CD;font-size:7.97px;stroke:none;">Despite signiﬁcant advantages (e.g., high theoretical capacity, low cost, low toxicity), the notorious insta-</text>
   <text y="273.713" x="57.657,62.633,64.62,66.661,68.645,71.382,75.04820000000001,77.901,82.71,85.0213,87.925,90.662,95.143,99.5265,102.457,109.6,114.082,116.818,121.794,125.938,129.504,133.983,138.84470000000002,141.75,145.662,149.806,152.635,157.116,161.843,166.867,171.345,174.7721,177.639,182.628,187.11,189.846,191.833,196.315,201.1767,204.082,206.859,211.341,215.159,219.64,223.867,226.603,231.579,233.566,238.047,242.9087,245.814,249.726,253.459,257.358,259.345,263.827,267.2541,270.12,273.523,278.057,281.799,286.281,289.017,293.498,295.54,299.2062,302.059,304.044,310.85,315.892,320.374,325.35,329.831,333.2581,336.125,338.861,343.342,347.824,349.811,352.4411,355.367,359.845,363.249,367.63250000000005,370.617,372.604,376.9875,379.918,384.811,387.628,391.773,395.735,398.471,400.458,404.358,408.585,410.4978,413.347,417.829,422.31,425.088,427.075,431.883" svgx:width="0.61,0.24,0.24,0.24,0.33,0.46,0.55,0.59,0.29,0.55,0.33,0.55,0.55,0.55,0.88,0.55,0.33,0.61,0.52,0.43,0.55,0.61,0.55,0.48,0.52,0.33,0.55,0.59,0.61,0.55,0.43,0.55,0.61,0.55,0.33,0.24,0.55,0.61,0.55,0.33,0.55,0.48,0.55,0.52,0.33,0.61,0.24,0.55,0.61,0.55,0.48,0.46,0.48,0.24,0.55,0.43,0.55,0.43,0.55,0.46,0.55,0.33,0.55,0.24,0.46,0.55,0.24,0.85,0.61,0.55,0.61,0.55,0.43,0.55,0.33,0.55,0.55,0.24,0.33,0.55,0.55,0.43,0.55,0.55,0.24,0.55,0.55,0.61,0.33,0.52,0.48,0.33,0.24,0.48,0.52,0.24,0.55,0.55,0.55,0.33,0.24,0.59,0.55" style="fill:rgb(0,0,0);font-family:AdvPSA5CD;font-size:7.97px;stroke:none;">bility of the Mn-based cathodes during recharging cycles severely impedes their use in practical Zn-ion</text>
   <text y="284.711" x="57.657,62.631,66.883,69.618,72.352,76.832,79.61,81.595,86.075,89.5021,92.028" svgx:width="0.61,0.52,0.33,0.33,0.55,0.33,0.24,0.55,0.43,0.55,0.26" style="fill:rgb(0,0,0);font-family:AdvPSA5CD;font-size:7.97px;stroke:none;">batteries (</text>
   <text y="284.711" x="94.168,100.49,104.634,111.4085,114.039,118.517,121.1471,123.733,127.878,129.88,132.049,134.12120000000002,136.642,140.894,145.038,149.341,153.485,155.55720000000002,158.184,162.681,166.826,171.322,176.18370000000002,178.749,183.246,185.8761,188.462,192.703,194.705,196.875,198.9472,201.467,205.709,209.951,214.095" svgx:width="0.78,0.52,0.85,0.55,0.55,0.33,0.55,0.52,0.24,0.26,0.26,0.55,0.52,0.52,0.52,0.52,0.26,0.55,0.55,0.52,0.55,0.61,0.55,0.55,0.33,0.55,0.52,0.24,0.26,0.26,0.55,0.52,0.52,0.52,0.52" style="fill:rgb(0,138,141);font-family:AdvPSA5CD;font-size:7.97px;stroke:none;">Nam et al., 2019; Fang et al., 2019</text>
   <text y="284.711" x="218.439,220.595,222.6672,225.187,229.83,234.313,238.6965,241.23,243.271,247.754,251.157,253.933,258.186,263.163,265.152,267.14,269.129,271.866,275.5322,278.102,281.92,286.776,291.255,293.243,298.1047,300.67,305.647,310.0305,312.564,319.454,323.599,325.69,330.168,332.157,335.8232,338.336,342.481,346.047,349.45,354.324,358.225,360.214,364.442,367.18,371.663,376.5247,379.089,384.816,386.805,389.542,393.9255,396.516,399.253,403.737,408.12050000000005,410.653,415.642,417.631,421.118,426.012,428.828,433.555" svgx:width="0.26,0.26,0.55,0.57,0.55,0.55,0.55,0.24,0.55,0.43,0.33,0.52,0.61,0.24,0.24,0.24,0.33,0.46,0.55,0.48,0.59,0.55,0.24,0.61,0.55,0.61,0.55,0.55,0.85,0.52,0.24,0.55,0.24,0.46,0.55,0.52,0.43,0.43,0.59,0.48,0.24,0.52,0.33,0.55,0.61,0.55,0.71,0.24,0.33,0.55,0.55,0.33,0.55,0.55,0.55,0.61,0.24,0.43,0.61,0.33,0.59,0.33" style="fill:rgb(0,0,0);font-family:AdvPSA5CD;font-size:7.97px;stroke:none;">). The instability could be mainly associated with the dispro-</text>
   <text y="295.652" x="57.658,62.635,67.445,70.183,72.96,74.948,79.758,84.242,88.385,91.123,93.163,97.889,102.2725,104.727,109.537,111.84830000000001,114.242,121.379,125.863,128.019,130.175,132.331,134.486,136.642,138.7142,141.12,146.097,150.581,155.064,159.547,162.285,166.513,169.251,171.239,175.723,180.58470000000003,183.035,190.178,194.661,196.817,198.973,203.783,205.8552,208.261,212.405,216.933,221.7947,224.246,228.729,230.718,235.695,240.178,242.167,245.8332,248.176,251.663,256.473,258.461,262.945,267.922,269.91,274.29350000000005,276.656,283.799,288.283,290.439,292.595,294.75,296.8222,299.228" svgx:width="0.61,0.59,0.33,0.33,0.24,0.59,0.55,0.52,0.33,0.24,0.59,0.55,0.55,0.59,0.29,0.55,0.88,0.55,0.26,0.26,0.26,0.26,0.26,0.26,0.55,0.61,0.55,0.55,0.55,0.33,0.52,0.33,0.24,0.55,0.61,0.55,0.88,0.55,0.26,0.26,0.59,0.26,0.55,0.52,0.55,0.61,0.55,0.55,0.24,0.61,0.55,0.24,0.46,0.55,0.43,0.59,0.24,0.55,0.61,0.24,0.55,0.55,0.88,0.55,0.26,0.26,0.26,0.26,0.55,0.26" style="fill:rgb(0,0,0);font-family:AdvPSA5CD;font-size:7.97px;stroke:none;">portionation of Mn(III), generating Mn(IV) and highly soluble Mn(II) (</text>
   <text y="295.652" x="301.438,305.917,310.736,315.214,320.0757,322.527,327.006,329.6361,332.052,336.196,338.288,340.442,342.5142,344.921,349.065,353.367,357.512,361.814,363.88620000000003,366.293,370.942,375.32550000000003,377.745,382.223,384.85310000000004,387.269,391.414,393.505,395.66,397.73220000000003,400.138,404.283,408.585,412.729" svgx:width="0.55,0.59,0.55,0.61,0.55,0.55,0.33,0.55,0.52,0.24,0.26,0.26,0.55,0.52,0.52,0.52,0.52,0.26,0.55,0.57,0.55,0.55,0.55,0.33,0.55,0.52,0.24,0.26,0.26,0.55,0.52,0.52,0.52,0.52" style="fill:rgb(0,138,141);font-family:AdvPSA5CD;font-size:7.97px;stroke:none;">Song et al., 2018; Yu et al., 2019</text>
   <text y="295.652" x="417.036,419.189,421.26120000000003,423.668,425.821,428.45110000000005,430.867,432.853" svgx:width="0.26,0.26,0.55,0.26,0.33,0.55,0.24,0.43" style="fill:rgb(0,0,0);font-family:AdvPSA5CD;font-size:7.97px;stroke:none;">). It is</text>
   <text y="306.594" x="57.658,59.699,66.505,71.547,76.274,79.087,81.808,86.06,90.539,93.1691,95.698,98.419,103.12129999999999,105.676,110.154,114.881,117.694,122.0775,124.611,127.332,131.81,135.955,138.5851,141.221,143.541,148.422,151.0521,153.581,160.724,165.203" svgx:width="0.24,0.85,0.61,0.59,0.33,0.33,0.52,0.55,0.33,0.55,0.33,0.59,0.55,0.55,0.59,0.33,0.55,0.55,0.33,0.55,0.52,0.33,0.55,0.29,0.59,0.33,0.55,0.88,0.55,0.83" style="fill:rgb(0,0,0);font-family:AdvPSA5CD;font-size:7.97px;stroke:none;">important to note that for MnO</text>
   <text y="307.956" x="171.893" svgx:width="0.52" style="fill:rgb(0,0,0);font-family:AdvPSA5CD;font-size:5.31px;stroke:none;">2</text>
   <text y="306.596" x="175.068,177.14020000000002,179.66,182.438,186.919,191.812,196.103,198.824,203.799,205.785,210.266,213.75,217.1771,219.647,224.465,226.7763,229.284,231.269,234.004,237.4311,239.957,241.943,246.424,248.41,251.146,253.132,257.358,259.2708,261.78,266.769,271.25,275.394,278.96,283.3435,285.877,289.28,292.056,294.834,299.312,303.13,305.945,310.426,313.161,317.5445,320.078,322.232,326.713,328.866,333.841,335.995" svgx:width="0.26,0.55,0.33,0.55,0.61,0.52,0.33,0.61,0.24,0.55,0.43,0.43,0.55,0.59,0.29,0.55,0.24,0.33,0.43,0.55,0.24,0.55,0.24,0.33,0.24,0.52,0.24,0.55,0.61,0.55,0.52,0.43,0.55,0.55,0.43,0.33,0.33,0.55,0.48,0.33,0.55,0.33,0.55,0.55,0.26,0.55,0.26,0.61,0.26,0.26" style="fill:rgb(0,0,0);font-family:AdvPSA5CD;font-size:7.97px;stroke:none;">, regardless of its initial phase structure (e.g.,</text>
   <text y="306.596" x="340.612" svgx:width="0.57" style="fill:rgb(0,0,0);font-family:AdvPS3F4C13;font-size:7.97px;stroke:none;">a</text>
   <text y="306.596" x="345.204,347.976,355.03,359.548" svgx:width="0.33,0.88,0.55,0.83" style="fill:rgb(0,0,0);font-family:AdvPSA5CD;font-size:7.97px;stroke:none;">-MnO</text>
   <text y="307.956" x="366.293" svgx:width="0.52" style="fill:rgb(0,0,0);font-family:AdvPSA5CD;font-size:5.31px;stroke:none;">2</text>
   <text y="306.596" x="369.468" svgx:width="0.26" style="fill:rgb(0,0,0);font-family:AdvPSA5CD;font-size:7.97px;stroke:none;">,</text>
   <text y="306.596" x="374.06" svgx:width="0.55" style="fill:rgb(0,0,0);font-family:AdvPS3F4C13;font-size:7.97px;stroke:none;">b</text>
   <text y="306.596" x="378.538,381.271,388.404,392.882" svgx:width="0.33,0.88,0.55,0.83" style="fill:rgb(0,0,0);font-family:AdvPSA5CD;font-size:7.97px;stroke:none;">-MnO</text>
   <text y="307.956" x="399.572" svgx:width="0.52" style="fill:rgb(0,0,0);font-family:AdvPSA5CD;font-size:5.31px;stroke:none;">2</text>
   <text y="306.596" x="402.803" svgx:width="0.26" style="fill:rgb(0,0,0);font-family:AdvPSA5CD;font-size:7.97px;stroke:none;">,</text>
   <text y="306.596" x="407.395" svgx:width="0.58" style="fill:rgb(0,0,0);font-family:AdvPS3F4C13;font-size:7.97px;stroke:none;">g</text>
   <text y="306.596" x="412.101,414.834,421.967,426.445" svgx:width="0.33,0.88,0.55,0.83" style="fill:rgb(0,0,0);font-family:AdvPSA5CD;font-size:7.97px;stroke:none;">-MnO</text>
   <text y="307.956" x="433.134" svgx:width="0.52" style="fill:rgb(0,0,0);font-family:AdvPSA5CD;font-size:5.31px;stroke:none;">2</text>
   <text y="317.594" x="57.657,62.475" svgx:width="0.59,0.33" style="fill:rgb(0,0,0);font-family:AdvPSA5CD;font-size:7.97px;stroke:none;">or</text>
   <text y="317.594" x="68.598" svgx:width="0.5" style="fill:rgb(0,0,0);font-family:AdvPS3F4C13;font-size:7.97px;stroke:none;">d</text>
   <text y="317.594" x="72.623,75.356,82.489,86.967" svgx:width="0.33,0.88,0.55,0.83" style="fill:rgb(0,0,0);font-family:AdvPSA5CD;font-size:7.97px;stroke:none;">-MnO</text>
   <text y="318.898" x="93.713" svgx:width="0.52" style="fill:rgb(0,0,0);font-family:AdvPSA5CD;font-size:5.31px;stroke:none;">2</text>
   <text y="317.594" x="96.888,99.043,101.1152,104.542,107.263,111.741,113.726,117.1531,120.586,124.498,128.976,133.121,135.893,140.882,145.2655,148.706,153.695,155.68,159.083,164.126,166.847,171.666,176.656,181.474,184.195,186.916,188.958,193.684,198.198,202.45,205.171,207.156,211.975,216.3585,219.798,221.783,225.21009999999998,228.643,232.293,236.807,239.584,243.2502,246.671,248.655,250.64,254.552,259.03,261.015,264.6812,268.044,270.822,275.5243,278.986,283.385,287.66,292.649,297.638,302.117,306.516,308.58820000000003,312.038,314.079,318.558,322.702,327.742,329.727,334.205,339.06669999999997,342.539,345.26,349.96229999999997,353.424,356.145,360.623,365.0065,368.447,371.85,376.157,382.964,387.3475,390.84,393.561,398.04,401.555,406.033,408.018,410.6481,414.084,418.903,421.21430000000004,424.629,427.406,431.885" svgx:width="0.26,0.26,0.55,0.33,0.55,0.24,0.43,0.55,0.48,0.55,0.52,0.33,0.61,0.55,0.55,0.61,0.24,0.43,0.61,0.33,0.59,0.61,0.59,0.33,0.33,0.24,0.59,0.55,0.52,0.33,0.24,0.59,0.55,0.55,0.24,0.43,0.55,0.46,0.55,0.33,0.46,0.55,0.24,0.24,0.48,0.55,0.24,0.46,0.55,0.33,0.59,0.55,0.55,0.52,0.61,0.61,0.55,0.55,0.26,0.55,0.24,0.55,0.52,0.61,0.24,0.55,0.61,0.55,0.33,0.59,0.55,0.33,0.55,0.55,0.55,0.43,0.52,0.85,0.55,0.55,0.33,0.55,0.43,0.55,0.24,0.33,0.55,0.59,0.29,0.55,0.33,0.55,0.55" style="fill:rgb(0,0,0);font-family:AdvPSA5CD;font-size:7.97px;stroke:none;">), this charge disproportionation is very likely to happen, leading to the same result of the</text>
   <text y="328.536" x="57.656,62.639,64.632,68.124,71.527,76.401,78.385,82.873,85.651,87.644,92.371,96.7545,99.153,103.297,107.827,112.6887,115.027,117.02,121.835,125.238,128.6651,131.019,135.834,138.1453,140.426,144.659,148.565,151.308,153.301,157.04,161.4235,163.729,170.872,175.2555,177.561,181.467,186.193,193.146,198.04,202.897,207.385,211.873,216.7347,219.073,223.306,227.794,232.688,234.7602,237.148,240.966,245.822,250.31,253.802,258.201,263.213,267.701,272.189,276.677,279.419,281.46,285.111,287.1832,289.568,294.461,298.949,301.727,306.215,308.958,310.951,315.766,318.508,322.741,325.484,327.477,332.292,336.6755,338.981,343.796,346.1073,348.445,351.188,355.676,360.0595,362.365,366.277,370.421,375.461,379.694,383.512,385.505,388.283,392.021,394.0932,396.387,401.034,405.73629999999997,408.064,412.208,417.248,422.23,424.973,429.461,432.864" svgx:width="0.61,0.24,0.43,0.43,0.59,0.24,0.55,0.33,0.24,0.59,0.55,0.55,0.52,0.55,0.61,0.55,0.24,0.59,0.43,0.43,0.55,0.59,0.29,0.55,0.52,0.48,0.33,0.24,0.46,0.55,0.55,0.88,0.55,0.55,0.48,0.59,0.85,0.61,0.59,0.55,0.55,0.61,0.55,0.52,0.55,0.61,0.26,0.55,0.48,0.59,0.55,0.43,0.55,0.61,0.55,0.55,0.55,0.33,0.24,0.46,0.26,0.55,0.61,0.55,0.33,0.55,0.33,0.24,0.59,0.33,0.52,0.33,0.24,0.59,0.55,0.55,0.59,0.29,0.55,0.33,0.55,0.55,0.55,0.48,0.52,0.61,0.52,0.48,0.24,0.33,0.46,0.26,0.55,0.57,0.59,0.55,0.52,0.61,0.61,0.33,0.55,0.43,0.43" style="fill:rgb(0,0,0);font-family:AdvPSA5CD;font-size:7.97px;stroke:none;">dissolution and loss of active Mn compound and, consequently, deterioration of the capacity. To address</text>
   <text y="339.477" x="57.656,60.434,64.913,66.903,70.3301,72.685,74.675,78.079,81.648,86.133,90.618,92.69019999999999,95.04,99.184,104.224,109.203,111.193,113.932,115.923,120.734,125.219,129.449,131.36180000000002,133.701,140.84" svgx:width="0.33,0.55,0.24,0.43,0.55,0.24,0.43,0.43,0.55,0.55,0.26,0.55,0.52,0.61,0.61,0.24,0.33,0.24,0.59,0.55,0.52,0.24,0.55,0.88,0.55" style="fill:rgb(0,0,0);font-family:AdvPSA5CD;font-size:7.97px;stroke:none;">this issue, additional Mn</text>
   <text y="335.963" x="145.304,148.478" svgx:width="0.52,0.67" style="fill:rgb(0,0,0);font-family:AdvPSA5CD;font-size:5.31px;stroke:none;">2+</text>
   <text y="339.478" x="154.828,159.08,161.7101,164.07,168.548,170.533,175.522,179.9055,182.269,186.181,190.999,195.478,199.296,203.812,208.29,211.068,213.789,217.933,220.762,222.746,227.565,232.044,235.4711,237.769,239.924,244.402,247.917,252.396,256.54,258.631,260.616,264.2822,266.626,270.77,272.975,277.227,281.308,285.453,287.658,291.80240000000003,294.178,301.321,303.39320000000004,305.743,311.469,315.614,319.0411,321.447,326.436,329.157,333.976,338.965,343.692,347.243,351.721,356.5827,358.978,361.699,366.4013,368.785,373.775,378.1585,380.521,382.506,386.984,389.705,392.426,397.245,402.235,406.713,410.625,415.103,419.9647,422.36,424.345,428.823,431.544" svgx:width="0.52,0.33,0.55,0.55,0.24,0.61,0.55,0.55,0.48,0.59,0.55,0.48,0.55,0.55,0.33,0.33,0.52,0.33,0.24,0.59,0.55,0.43,0.55,0.26,0.55,0.43,0.55,0.52,0.24,0.24,0.46,0.55,0.52,0.26,0.52,0.5,0.52,0.26,0.52,0.55,0.88,0.26,0.55,0.71,0.52,0.43,0.55,0.61,0.33,0.59,0.61,0.59,0.43,0.55,0.61,0.55,0.33,0.59,0.55,0.61,0.55,0.55,0.24,0.55,0.33,0.33,0.59,0.61,0.55,0.48,0.55,0.61,0.55,0.24,0.55,0.33,0.59" style="fill:rgb(0,0,0);font-family:AdvPSA5CD;font-size:7.97px;stroke:none;">at high concentrations (usually 0.1–0.5 M) was proposed to be introduced into</text>
   <text y="350.476" x="57.656,60.434,64.912,69.2955,71.602,76.08,78.063,82.539,86.357,89.172,91.904,96.707,98.689,102.417,105.148,109.5315,111.839,114.57,119.27229999999999,121.6,125.115,129.514,134.526,139.515,142.246,146.723,150.238,153.6651,155.907,158.639,163.116,167.4995,169.805,174.794,176.777,180.18,185.223,188.001,192.727,197.752,202.555,205.287,208.018,210.059,214.786,219.3,223.552,226.273,228.255,233.059,237.4425,239.748,242.469,246.946,251.198,255.093,257.825,259.807,264.611,268.9945,271.3" svgx:width="0.33,0.55,0.55,0.55,0.55,0.24,0.55,0.48,0.33,0.33,0.59,0.24,0.46,0.33,0.55,0.55,0.33,0.59,0.55,0.43,0.55,0.61,0.61,0.33,0.55,0.43,0.43,0.55,0.33,0.55,0.55,0.55,0.61,0.24,0.43,0.61,0.33,0.59,0.61,0.59,0.33,0.33,0.24,0.59,0.55,0.52,0.33,0.24,0.59,0.55,0.55,0.33,0.55,0.52,0.48,0.33,0.24,0.59,0.55,0.55,0.26" style="fill:rgb(0,0,0);font-family:AdvPSA5CD;font-size:7.97px;stroke:none;">the electrolyte to suppress the disproportionation reaction (</text>
   <text y="350.476" x="273.487,278.138,282.282,286.6655,289.023,293.501,296.1311,298.433,302.685,304.682,306.845,308.91720000000004,311.211,315.463,319.607,323.91,328.146,330.2182,332.511,340.059,344.44250000000005,346.798,351.289,353.9191,356.221,360.457,362.454,364.618,366.6902,368.983,373.219,377.363,381.666,385.81,387.8822,390.227,396.066,400.558,404.702,409.193,414.05469999999997,416.394,420.885,423.5151,425.817,430.053,432.049,434.213" svgx:width="0.57,0.52,0.55,0.55,0.55,0.33,0.55,0.52,0.24,0.26,0.26,0.55,0.52,0.52,0.52,0.52,0.26,0.55,0.95,0.55,0.55,0.55,0.33,0.55,0.52,0.24,0.26,0.26,0.55,0.52,0.52,0.52,0.52,0.26,0.55,0.72,0.55,0.52,0.55,0.61,0.55,0.55,0.33,0.55,0.52,0.24,0.26,0.26" style="fill:rgb(0,138,141);font-family:AdvPSA5CD;font-size:7.97px;stroke:none;">Pan et al., 2016; Wu et al., 2018; Huang et al.,</text>
   <text y="361.417" x="57.656,61.895,66.134,70.278,74.58,76.6522,79.115,83.26,87.562,91.707,96.009,100.248,102.3202,104.726,108.965,113.203,117.348,121.65,126.639,128.7112,131.118,135.611,140.105,144.343,148.837,153.6987,156.15,160.644,163.2741,165.747,169.985,171.984,174.15,176.22220000000002,178.686,182.925,187.069,191.372,195.516,197.5882,200.102,204.581,208.819,213.313,218.1747,220.626,225.105,227.7351,230.207,234.459,236.458,238.625,240.6972,243.16,247.412,251.556,255.859" svgx:width="0.52,0.52,0.52,0.52,0.26,0.55,0.52,0.52,0.52,0.52,0.52,0.26,0.55,0.52,0.52,0.52,0.52,0.61,0.26,0.55,0.55,0.55,0.52,0.55,0.61,0.55,0.55,0.33,0.55,0.52,0.24,0.26,0.26,0.55,0.52,0.52,0.52,0.52,0.26,0.55,0.55,0.52,0.55,0.61,0.55,0.55,0.33,0.55,0.52,0.24,0.26,0.26,0.55,0.52,0.52,0.52,0.52" style="fill:rgb(0,138,141);font-family:AdvPSA5CD;font-size:7.97px;stroke:none;">2018, 2019a, 2019b; Zhang et al., 2017; Fang et al., 2019</text>
   <text y="361.417" x="260.051,262.207,264.2792,266.743,271.385,275.869,280.25250000000005,282.729,286.64,290.291,294.237,296.225,298.214,302.697,307.5587,310.067,313.47,316.303,320.448,325.487,327.476,329.464,331.453,334.23,337.8962,340.296,345.115,347.4263,349.877,357.021,361.504,364.242,369.22,373.448,376.851,381.384,386.2457,388.755,392.572,396.862,399.583,404.066,408.876,413.854,418.337,421.7641,424.177,428.655,432.799" svgx:width="0.26,0.26,0.55,0.57,0.55,0.55,0.55,0.48,0.46,0.48,0.24,0.24,0.55,0.61,0.55,0.43,0.33,0.52,0.61,0.24,0.24,0.24,0.33,0.46,0.55,0.59,0.29,0.55,0.88,0.55,0.33,0.61,0.52,0.43,0.55,0.61,0.55,0.48,0.52,0.33,0.55,0.59,0.61,0.55,0.43,0.55,0.55,0.52,0.43" style="fill:rgb(0,0,0);font-family:AdvPSA5CD;font-size:7.97px;stroke:none;">). The cycling stability of Mn-based cathodes has</text>
   <text y="372.359" x="57.656,62.635,67.12,71.605,75.9885,80.166,85.06,87.876,92.361,96.506,99.334,101.319,104.9852,109.086,113.571,118.055,122.54,126.685,131.214,135.126,139.611,144.4727,148.625,153.604,157.27020000000002,161.371,165.601,170.58,175.391,180.285,183.102,185.086,189.571,194.4327,198.585,201.325,205.81,207.8,211.2271,215.34,218.828,221.568,224.307,228.537,231.276,235.761,240.74,244.476,246.5482,250.655,256.495,261.306,266.949,271.434,275.17,279.654,282.432,284.5042,288.611,291.332,295.817,297.858,301.2851,305.342,309.826,314.311,318.796,323.026,327.511,331.414,335.899,342.705,347.237,351.715,354.3451,358.519,360.503,363.9301,368.043,372.188,374.8181,379.041,381.762,386.247,390.63050000000004,394.808,399.293,403.196,408.089,412.607,417.092,420.58,424.9635,429.085,433.903" svgx:width="0.61,0.55,0.55,0.55,0.55,0.61,0.33,0.55,0.52,0.33,0.24,0.46,0.55,0.55,0.55,0.55,0.52,0.55,0.48,0.55,0.61,0.55,0.61,0.46,0.55,0.52,0.61,0.59,0.61,0.33,0.24,0.55,0.61,0.55,0.33,0.55,0.24,0.43,0.55,0.43,0.33,0.33,0.52,0.33,0.55,0.61,0.46,0.26,0.55,0.72,0.59,0.71,0.55,0.46,0.55,0.33,0.26,0.55,0.33,0.55,0.24,0.43,0.55,0.55,0.55,0.55,0.52,0.55,0.48,0.55,0.85,0.55,0.55,0.33,0.55,0.24,0.43,0.55,0.52,0.33,0.55,0.33,0.55,0.55,0.55,0.55,0.48,0.61,0.55,0.55,0.43,0.55,0.55,0.59,0.29" style="fill:rgb(0,0,0);font-family:AdvPSA5CD;font-size:7.97px;stroke:none;">been greatly enhanced by adopting this strategy. However, this enhancement is at the expense of</text>
   <text y="383.3" x="57.656,60.434,64.912,69.806,74.323,78.226,82.711,87.5727,90.365,97.171,101.401,104.889,108.31609999999999,111.012,115.497,119.982,124.467,127.206,132.185,135.8512,138.535,143.514,147.999,152.483,155.887,157.983,160.704,164.3702,167.054,171.873,174.18429999999998,176.918,179.696,184.096,188.4795,191.261,196.24,200.384,203.213,205.934,210.419,213.158,216.894,218.96620000000001,221.713,226.692,228.682,232.417,236.817,241.2005,243.982,246.703,251.188,255.418,258.04810000000003,260.803,263.524,268.009,272.39250000000004,275.153,277.143,281.288,284.116,289.01,293.3935,296.192,301.181,303.92,308.732,313.711,318.437,321.251,323.972,325.962,330.774,335.1575,337.917,342.644,344.9553,347.725,350.502,354.987,359.37050000000005,362.073,366.558,370.461,373.201,375.978,380.1224,382.838,389.982" svgx:width="0.33,0.55,0.61,0.55,0.48,0.55,0.61,0.55,0.85,0.52,0.43,0.43,0.55,0.55,0.55,0.55,0.33,0.61,0.46,0.55,0.61,0.55,0.55,0.43,0.24,0.33,0.46,0.55,0.59,0.29,0.55,0.33,0.55,0.55,0.55,0.61,0.52,0.33,0.33,0.55,0.33,0.46,0.26,0.55,0.61,0.24,0.46,0.55,0.55,0.55,0.33,0.55,0.52,0.33,0.55,0.33,0.55,0.55,0.55,0.24,0.52,0.33,0.61,0.55,0.55,0.61,0.33,0.59,0.61,0.59,0.33,0.33,0.24,0.59,0.55,0.55,0.59,0.29,0.55,0.33,0.55,0.55,0.55,0.55,0.48,0.33,0.33,0.52,0.55,0.88,0.55" style="fill:rgb(0,0,0);font-family:AdvPSA5CD;font-size:7.97px;stroke:none;">reduced mass energy density of the battery, given that the large proportion of the extra Mn</text>
   <text y="379.786" x="394.469,397.644" svgx:width="0.52,0.67" style="fill:rgb(0,0,0);font-family:AdvPSA5CD;font-size:5.31px;stroke:none;">2+</text>
   <text y="383.301" x="404.334,409.146,413.05,416.954,421.439,426.333,428.356,432.842" svgx:width="0.59,0.48,0.48,0.55,0.61,0.24,0.55,0.43" style="fill:rgb(0,0,0);font-family:AdvPSA5CD;font-size:7.97px;stroke:none;">occupies</text>
   <text y="394.3" x="57.656,61.888,66.871,71.853,73.846,76.589,78.582,83.397,87.885,92.118,94.0308,96.88,102.611,107.099,109.093,114.075,118.563,121.1931,124.062,129.045,133.533,136.1631,139.032,145.949,147.942,152.924,157.324,159.9541,162.902,167.39,172.205,174.8351,177.704,182.694,185.436,190.251,193.99,195.983,200.965,205.3485,208.222,213.204,217.692,221.51,226.026,230.514,233.1441,236.07,239.976,244.121,249.16,253.412,257.23,259.251,261.994,265.733" svgx:width="0.52,0.61,0.61,0.24,0.33,0.24,0.59,0.55,0.52,0.24,0.55,0.71,0.55,0.24,0.61,0.55,0.33,0.55,0.61,0.55,0.33,0.55,0.85,0.24,0.61,0.55,0.33,0.55,0.55,0.59,0.33,0.55,0.61,0.33,0.59,0.46,0.24,0.61,0.55,0.55,0.61,0.55,0.48,0.55,0.55,0.33,0.55,0.48,0.52,0.61,0.52,0.48,0.24,0.33,0.46,0.26" style="fill:rgb(0,0,0);font-family:AdvPSA5CD;font-size:7.97px;stroke:none;">additional weight but might not provide decent capacity.</text>
   <text y="416.184" x="57.656,62.299,67.0013,70.576,75.554,79.699,82.527,87.006,89.0782,92.618,99.425,103.957,107.869,112.353,116.497,121.027,123.011,126.499,133.305,136.7321,140.332,145.226,149.71,154.194,156.183,160.667,165.52870000000001,169.115,171.836,176.32,180.7035,184.257,188.741,193.225,197.709,201.938,206.422,210.239,214.723,219.58470000000003,223.171,226.574,229.407,233.551,238.591,240.58,242.57,244.611,247.349,251.0152,254.55,259.276,261.5873,265.208,269.692,274.176,276.914,278.904,283.714,288.0975,291.651,296.64,300.785,303.557,306.335,310.813,313.552,315.541,320.025,323.4521,326.998,332.641,334.708,337.447,341.83050000000003,345.384,352.437" svgx:width="0.57,0.59,0.55,0.61,0.52,0.33,0.55,0.26,0.55,0.85,0.55,0.48,0.55,0.52,0.55,0.24,0.43,0.85,0.43,0.55,0.61,0.55,0.55,0.24,0.55,0.61,0.55,0.33,0.55,0.55,0.55,0.55,0.55,0.55,0.52,0.55,0.48,0.55,0.61,0.55,0.43,0.33,0.52,0.61,0.24,0.24,0.24,0.33,0.46,0.55,0.59,0.29,0.55,0.55,0.55,0.33,0.24,0.59,0.55,0.55,0.61,0.52,0.33,0.33,0.55,0.33,0.24,0.55,0.43,0.55,0.71,0.24,0.33,0.55,0.55,0.88,0.55" style="fill:rgb(0,0,0);font-family:AdvPSA5CD;font-size:7.97px;stroke:none;">To date, mechanisms behind the enhanced stability of Zn-ion batteries with Mn</text>
   <text y="412.668" x="356.939,360.17" svgx:width="0.52,0.67" style="fill:rgb(0,0,0);font-family:AdvPSA5CD;font-size:5.31px;stroke:none;">2+</text>
   <text y="416.183" x="364.252,366.973,370.885,375.611,380.125,382.901,387.045,389.136,393.536,395.562,400.04,404.9017,408.431,412.909,414.894,419.372,423.311,426.032,428.807,433.655" svgx:width="0.33,0.48,0.59,0.55,0.33,0.52,0.24,0.55,0.24,0.55,0.61,0.55,0.55,0.24,0.55,0.48,0.33,0.33,0.59,0.33" style="fill:rgb(0,0,0);font-family:AdvPSA5CD;font-size:7.97px;stroke:none;">-containing electro-</text>
   <text y="427.181" x="57.656,59.697,63.347,66.16,70.638,74.0651,77.895,82.04,84.868,89.2515,93.089,96.577,99.317,101.307,103.297,105.2098,109.08,113.564,118.049,121.952,123.942,128.427,132.657,135.396,137.4682,141.349,146.076,150.56,154.463,158.948,163.433,166.0631,169.953,172.692,177.177,182.156,186.968,189.707,192.446,195.8731,199.703,204.188,208.418,212.153,216.5365,220.374,225.353,228.092,232.904,236.639,238.63,243.609,248.093,252.9547,256.824,260.313,265.039,271.991,276.3745,280.212,284.115,286.105,290.59,295.075,298.5021,302.332,305.109,309.588,313.732,316.36210000000005,320.302,327.441" svgx:width="0.24,0.46,0.33,0.55,0.43,0.55,0.52,0.33,0.55,0.55,0.43,0.33,0.24,0.24,0.24,0.55,0.55,0.55,0.48,0.24,0.55,0.52,0.33,0.26,0.55,0.59,0.55,0.48,0.55,0.55,0.33,0.55,0.33,0.55,0.61,0.59,0.33,0.33,0.43,0.55,0.55,0.52,0.46,0.55,0.55,0.61,0.33,0.59,0.46,0.24,0.61,0.55,0.61,0.55,0.43,0.59,0.85,0.55,0.55,0.48,0.24,0.55,0.55,0.43,0.55,0.33,0.55,0.52,0.33,0.55,0.88,0.55" style="fill:rgb(0,0,0);font-family:AdvPSA5CD;font-size:7.97px;stroke:none;">lytes are still unclear. Recent reports have provided some clues that Mn</text>
   <text y="423.61" x="331.937,335.111" svgx:width="0.52,0.67" style="fill:rgb(0,0,0);font-family:AdvPSA5CD;font-size:5.31px;stroke:none;">2+</text>
   <text y="427.181" x="342.935,344.976,349.3595,353.197,355.933,360.415,364.79850000000005,368.692,373.17,375.157,379.639,383.539,386.275,389.011,393.819,395.806,399.539,402.316,406.6995,410.537,414.437,418.689,423.07250000000005,426.909,431.899" svgx:width="0.24,0.55,0.55,0.33,0.55,0.55,0.55,0.55,0.24,0.55,0.48,0.33,0.33,0.59,0.24,0.46,0.33,0.55,0.55,0.48,0.52,0.55,0.55,0.61,0.55" style="fill:rgb(0,0,0);font-family:AdvPSA5CD;font-size:7.97px;stroke:none;">in the electrolyte can be</text>
   <text y="438.123" x="57.656,62.474,66.386,68.371,73.36,75.345,78.859,83.338,88.232,90.3042,94.903,96.944,101.422,106.316,110.833,114.744,116.729,121.208,126.0697,130.675,133.396,137.875,142.2585,146.833,151.822,156.3,161.29,166.108,169.512,171.551,174.272,176.313,181.039,185.42249999999999,190.089,194.816,197.1273,201.768,205.912,209.875,212.653,214.637,218.379,222.7625,227.337,234.391,238.7745,243.381,247.293,252.112,258.918,263.96,268.779,273.257,277.736,282.5977,287.204,291.93,296.31350000000003,300.923,303.7,308.179,312.5625,317.137,321.048,325.193,327.965,332.443,337.262,342.251,346.6345,351.209,354.612,359.146,361.923,364.243,368.556,372.468,376.85150000000004,381.426" svgx:width="0.59,0.48,0.24,0.61,0.24,0.43,0.55,0.61,0.26,0.55,0.24,0.55,0.61,0.55,0.48,0.24,0.55,0.61,0.55,0.33,0.55,0.55,0.55,0.61,0.55,0.61,0.59,0.43,0.24,0.33,0.24,0.59,0.55,0.55,0.59,0.29,0.55,0.52,0.48,0.33,0.24,0.46,0.55,0.55,0.88,0.55,0.55,0.48,0.59,0.85,0.61,0.59,0.55,0.55,0.61,0.55,0.59,0.55,0.55,0.33,0.55,0.55,0.55,0.48,0.52,0.33,0.55,0.59,0.61,0.55,0.55,0.43,0.55,0.33,0.29,0.52,0.48,0.55,0.55,0.26" style="fill:rgb(0,0,0);font-family:AdvPSA5CD;font-size:7.97px;stroke:none;">oxidized, inducing the deposition of active Mn compound on the cathode surface (</text>
   <text y="438.123" x="383.584,389.894,391.884,396.863,400.267,405.14,409.5235,414.098,418.583,421.21310000000005,425.783,430.013,432.003,434.161" svgx:width="0.78,0.24,0.61,0.43,0.59,0.55,0.55,0.55,0.33,0.55,0.52,0.24,0.26,0.26" style="fill:rgb(0,138,141);font-family:AdvPSA5CD;font-size:7.97px;stroke:none;">Gibson et al.,</text>
   <text y="449.064" x="57.656,61.893,66.131,70.276,74.578,76.6502,80.247,84.325,86.23780000000001,89.881,94.374,97.0041,100.61,104.848,106.846,109.012,111.0842,114.737,118.882,123.184,127.329,131.631" svgx:width="0.52,0.52,0.52,0.52,0.26,0.55,0.5,0.24,0.55,0.55,0.33,0.55,0.52,0.24,0.26,0.26,0.55,0.52,0.52,0.52,0.52,0.48" style="fill:rgb(0,138,141);font-family:AdvPSA5CD;font-size:7.97px;stroke:none;">2016; Li et al., 2019c</text>
   <text y="449.064" x="135.552,137.713,139.7852,143.382,148.03,152.519,154.513,157.9401,161.543,165.036,169.435,174.418,179.401,183.89,187.293,190.126,193.5531,197.099,199.877,204.355,208.5,211.1301,214.843,217.586,222.075,226.4585,230.126,235.02,239.508,244.491,249.307,252.71,254.806,257.527,259.522,264.337,268.7205,272.331,277.15,279.4613,283.103,290.247,294.63050000000004,298.241,302.153,306.879,313.831,318.814,323.541,328.029,332.518,337.37969999999996,341.022,343.461,346.204,351.019,357.7935,361.451,364.172,368.661,373.0445,376.655,383.798" svgx:width="0.26,0.26,0.55,0.57,0.55,0.24,0.43,0.55,0.43,0.55,0.61,0.61,0.55,0.43,0.33,0.43,0.55,0.33,0.55,0.52,0.33,0.55,0.33,0.55,0.55,0.55,0.61,0.55,0.61,0.59,0.43,0.24,0.33,0.24,0.59,0.55,0.55,0.59,0.29,0.55,0.88,0.55,0.55,0.48,0.59,0.85,0.61,0.59,0.55,0.55,0.61,0.55,0.29,0.33,0.59,0.85,0.55,0.33,0.55,0.55,0.55,0.88,0.55" style="fill:rgb(0,0,0);font-family:AdvPSA5CD;font-size:7.97px;stroke:none;">). This suggests that the deposition of Mn compound from the Mn</text>
   <text y="445.55" x="388.29,391.465" svgx:width="0.52,0.67" style="fill:rgb(0,0,0);font-family:AdvPSA5CD;font-size:5.31px;stroke:none;">2+</text>
   <text y="449.065" x="395.546,398.278,402.174,406.979,411.456,414.189,418.441,420.424,424.901,426.884,431.362" svgx:width="0.33,0.48,0.59,0.55,0.33,0.52,0.24,0.55,0.24,0.55,0.61" style="fill:rgb(0,0,0);font-family:AdvPSA5CD;font-size:7.97px;stroke:none;">-containing</text>
   <text y="460.063" x="57.655,62.138,64.179,68.661,72.479,75.294,78.015,82.824,84.812,88.545,91.282,95.765,99.1921,102.908,104.896,108.3231,112.04,116.267,118.255,121.658,126.3603,130.218,134.362,138.7455,142.576,144.564,151.37,156.412,161.231,163.968,166.746,170.89,175.42,178.0501,181.826,186.816,191.298,195.78,200.263,204.989,211.942,216.424,220.906,225.716,230.0995,233.823,236.544,241.026,245.254,247.8841,251.66,256.65,261.132,264.535,269.069,271.79,275.523,280.006,283.43309999999997,287.149,293.956,298.828,301.606,305.9895,309.713,312.434,316.916,320.403,324.885,329.029,331.858,335.676,340.0595,343.877,348.129,350.866,353.603,358.086,362.568,365.305,367.346,372.073,376.555,378.6272,382.395,386.877,391.36,395.26,399.6435,403.368,407.5124,411.248,414.734,419.216,421.204,423.523,426.363,429.084,433.567" svgx:width="0.55,0.24,0.55,0.48,0.33,0.33,0.59,0.24,0.46,0.33,0.55,0.43,0.55,0.24,0.43,0.55,0.52,0.24,0.43,0.59,0.55,0.52,0.55,0.55,0.24,0.85,0.61,0.59,0.33,0.33,0.52,0.55,0.33,0.55,0.61,0.55,0.55,0.55,0.59,0.85,0.55,0.55,0.59,0.55,0.55,0.33,0.55,0.52,0.33,0.55,0.61,0.55,0.43,0.55,0.33,0.46,0.55,0.43,0.55,0.85,0.59,0.33,0.55,0.55,0.33,0.55,0.43,0.55,0.52,0.33,0.48,0.55,0.55,0.52,0.33,0.33,0.55,0.55,0.33,0.24,0.59,0.55,0.26,0.55,0.55,0.55,0.48,0.55,0.55,0.52,0.55,0.43,0.55,0.24,0.29,0.33,0.33,0.55,0.33" style="fill:rgb(0,0,0);font-family:AdvPSA5CD;font-size:7.97px;stroke:none;">electrolytes is also an important phenomenon that deserves more research attention. Such a self-re-</text>
   <text y="471.004" x="57.655,61.559,66.371,70.108,74.594,77.334,81.0002,85.611,90.59,95.076,99.562,104.047,108.86,115.666,120.198,124.684,129.496,133.8795,138.511,141.232,145.717,149.207,153.692,155.683,158.423,160.414,164.9,169.76170000000002,174.424,176.83,179.57,184.382,191.1565,195.777,198.555,203.033,207.41649999999998,212.048,216.941,221.427,226.407,231.219,234.622,236.719,239.44,241.43,246.243,250.6265,255.257,260.076,262.38730000000004,267.049,274.103,278.48650000000004,283.15,287.061,291.874,298.68,303.722,308.541,313.027,317.512,322.3737,327.037,331.849,336.2325,340.863,343.604,348.089,352.4725,357.104,361.015,365.246,367.986,372.472,377.284,382.178,386.5615,391.287,398.093,402.398,406.0642,410.675,415.154,419.298,423.09,427.4735,432.105" svgx:width="0.48,0.59,0.46,0.55,0.33,0.46,0.55,0.61,0.55,0.55,0.55,0.59,0.85,0.55,0.55,0.59,0.55,0.55,0.33,0.55,0.43,0.55,0.24,0.33,0.24,0.55,0.61,0.55,0.29,0.33,0.59,0.85,0.55,0.33,0.55,0.55,0.55,0.61,0.55,0.61,0.59,0.43,0.24,0.33,0.24,0.59,0.55,0.55,0.59,0.29,0.55,0.88,0.55,0.55,0.48,0.59,0.85,0.61,0.59,0.55,0.55,0.61,0.55,0.59,0.55,0.55,0.33,0.55,0.55,0.55,0.48,0.52,0.33,0.55,0.59,0.61,0.55,0.55,0.85,0.52,0.46,0.55,0.55,0.52,0.46,0.55,0.55,0.52" style="fill:rgb(0,0,0);font-family:AdvPSA5CD;font-size:7.97px;stroke:none;">covery phenomenon resulting from the deposition of Mn compound on the cathode may have a</text>
   <text y="481.946" x="57.655,61.143,63.132,68.111,72.595,74.584,78.813,82.631,86.92,91.404,94.0341,97.754,102.238,104.557,107.057,111.456,115.359,117.9891,121.709,126.519,130.9025,134.57,137.348,141.826,146.2095,149.877,153.789,157.933,162.973,167.202,171.019,173.097,175.818,179.48420000000002,183.132,187.384,191.868,196.7297,200.429,203.832,206.664,210.809,215.849,217.838,219.827,221.817,224.594,228.2602,231.908,236.726,239.0373,242.736,247.22,251.704,254.443,256.432,261.243,265.6265,269.293,274.283,278.512,281.25,283.989,288.473,291.251,293.235,297.719,301.122,303.1942,306.96,312.682,317.561,323.287,327.771,331.506,335.99,338.728,340.8002,344.454,351.371,356.181,359.585,362.2151,365.989,370.808,373.1193,376.76,379.538,384.022,388.4055,392.073,397.051,399.79,404.274,408.008,409.998,414.809,419.293,422.7201,426.379,429.118,433.602" svgx:width="0.43,0.24,0.61,0.55,0.24,0.52,0.48,0.52,0.55,0.33,0.55,0.55,0.29,0.29,0.55,0.48,0.33,0.55,0.59,0.55,0.55,0.33,0.55,0.55,0.55,0.48,0.52,0.61,0.52,0.48,0.24,0.33,0.46,0.55,0.52,0.55,0.61,0.55,0.43,0.33,0.52,0.61,0.24,0.24,0.24,0.33,0.46,0.55,0.59,0.29,0.55,0.55,0.55,0.33,0.24,0.59,0.55,0.55,0.61,0.52,0.33,0.33,0.55,0.33,0.24,0.55,0.43,0.26,0.55,0.72,0.59,0.71,0.55,0.46,0.55,0.33,0.26,0.55,0.85,0.59,0.43,0.33,0.55,0.59,0.29,0.55,0.33,0.55,0.55,0.55,0.61,0.33,0.55,0.46,0.24,0.59,0.55,0.43,0.55,0.33,0.55,0.33" style="fill:rgb(0,0,0);font-family:AdvPSA5CD;font-size:7.97px;stroke:none;">signiﬁcant effect on the capacity and stability of Zn-ion batteries. However, most of the previous re-</text>
   <text y="492.887" x="57.655,62.635,67.447,70.188,72.965,76.3921,80.392,84.87,88.607,92.837,94.828,99.314,103.458,106.287,110.773,115.6347,119.674,122.451,126.93,131.3135,135.377,139.195,143.485,148.474,152.619,156.581,158.572,161.313,164.9792,169.023,173.842,178.327,180.318,183.98420000000002,188.029,193.018,197.162,200.728,205.214,210.0757,214.172,218.898,223.2815,227.381,230.158,234.637,239.0205,243.084,248.81,253.296,255.287,260.18,264.698,267.3281,271.445,276.263,278.5743,282.613,285.334,289.82,294.2035,298.268,305.407,309.893,312.633,317.613,321.843,325.247,329.78,334.64169999999996,338.738,342.642,346.786,349.526,354.012,358.824,363.804,368.29,370.36220000000003,374.412,376.571,380.95450000000005,385.018,389.249,394.143,399.17,401.155,403.932,405.917,410.729,415.215,417.2872,421.338,426.156,430.642,432.633" svgx:width="0.61,0.59,0.33,0.33,0.43,0.55,0.55,0.46,0.52,0.24,0.55,0.52,0.33,0.55,0.61,0.55,0.33,0.55,0.55,0.55,0.48,0.52,0.61,0.52,0.48,0.24,0.33,0.46,0.55,0.59,0.55,0.24,0.46,0.55,0.61,0.52,0.43,0.55,0.61,0.55,0.59,0.55,0.55,0.33,0.55,0.55,0.55,0.71,0.55,0.24,0.61,0.55,0.33,0.55,0.59,0.29,0.55,0.33,0.55,0.55,0.55,0.88,0.55,0.33,0.61,0.52,0.43,0.55,0.61,0.55,0.48,0.52,0.33,0.55,0.59,0.61,0.55,0.26,0.55,0.26,0.55,0.55,0.52,0.61,0.61,0.24,0.33,0.24,0.59,0.55,0.26,0.55,0.59,0.55,0.24,0.46" style="fill:rgb(0,0,0);font-family:AdvPSA5CD;font-size:7.97px;stroke:none;">ports evaluated the capacity only based on the weight of the Mn-based cathode. In addition, only</text>
   <text y="503.885" x="57.655,60.433,64.911,69.2945,73.472,80.616" svgx:width="0.33,0.55,0.55,0.55,0.88,0.55" style="fill:rgb(0,0,0);font-family:AdvPSA5CD;font-size:7.97px;stroke:none;">the Mn</text>
   <text y="500.315" x="85.096,88.271" svgx:width="0.52,0.67" style="fill:rgb(0,0,0);font-family:AdvPSA5CD;font-size:5.31px;stroke:none;">2+</text>
   <text y="503.887" x="96.435,100.333,105.14,109.62,113.518,117.998,122.478,125.213,127.947,132.199,134.934,136.919,141.726,146.1095,150.343,152.329,156.7125,160.89,163.624,168.104,172.4875,176.722,181.2,183.185,187.666,191.564,194.298,197.033,201.84,203.825,207.556,210.291,214.6745,218.908,224.631,228.776,232.2031,236.423,241.413,243.398,247.129,251.609,256.089,258.1612,262.325,268.048,272.528,277.008,279.786,284.185,288.46,291.8871,296.057,298.042,302.522,304.96,309.686,312.5,319.306,323.611,326.345,328.331,333.138,337.5215,341.698,345.951,350.94,355.666,360.181,362.8111,367.04,369.762,374.242,378.62550000000005,382.859,386.59,391.316,393.392,397.871,404.677,409.06050000000005,413.291,418.098,420.40930000000003,424.617,427.352,431.832" svgx:width="0.48,0.59,0.55,0.48,0.55,0.55,0.33,0.33,0.52,0.33,0.24,0.59,0.55,0.55,0.24,0.55,0.55,0.33,0.55,0.55,0.55,0.55,0.24,0.55,0.48,0.33,0.33,0.59,0.24,0.46,0.33,0.55,0.55,0.71,0.52,0.43,0.55,0.61,0.24,0.46,0.55,0.55,0.26,0.55,0.71,0.55,0.55,0.33,0.55,0.52,0.43,0.55,0.24,0.55,0.29,0.59,0.33,0.85,0.52,0.33,0.24,0.59,0.55,0.55,0.52,0.61,0.59,0.55,0.33,0.55,0.33,0.55,0.55,0.55,0.46,0.59,0.24,0.55,0.85,0.55,0.55,0.59,0.29,0.55,0.33,0.55,0.55" style="fill:rgb(0,0,0);font-family:AdvPSA5CD;font-size:7.97px;stroke:none;">concentration in the electrolyte was given, whereas information about the volume of the</text>
   <text y="514.828" x="57.656,62.139,64.18,68.662,72.48,75.295,78.016,82.825,84.813,88.547,91.283,95.6665,100.014,104.266,108.749,113.6107,117.933,120.71,125.189,129.5725,133.863,141.006,145.3895,149.737,152.458,156.685,159.422,161.463,166.1653,170.478,172.633,176.86,179.597,184.406,191.213,193.307,197.125,200.223,205.949,210.432,212.419,217.396,221.878,224.615,226.68720000000002,231.078,235.805,238.1163,242.53,245.251,249.733,254.1165,258.464,261.867,266.741,268.729,270.77,275.63169999999997,279.954,287.098,291.58,294.317,299.294,303.521,306.924,311.458,316.3197,320.698,324.61,328.755,331.527,336.009,340.818,345.795,350.17850000000004,354.526,357.263,361.96529999999996,366.333,369.07,373.553,377.9365,382.283,386.535,391.512,395.912,400.394,405.203,409.686,413.1131,417.453,424.506" svgx:width="0.55,0.24,0.55,0.48,0.33,0.33,0.59,0.24,0.46,0.33,0.55,0.55,0.52,0.55,0.61,0.55,0.33,0.55,0.55,0.55,0.88,0.55,0.55,0.33,0.52,0.33,0.24,0.59,0.55,0.26,0.52,0.33,0.59,0.85,0.24,0.48,0.38,0.71,0.55,0.24,0.61,0.55,0.33,0.26,0.55,0.59,0.29,0.55,0.33,0.55,0.55,0.55,0.43,0.59,0.24,0.24,0.61,0.55,0.88,0.55,0.33,0.61,0.52,0.43,0.55,0.61,0.55,0.48,0.52,0.33,0.55,0.59,0.61,0.55,0.55,0.33,0.59,0.55,0.33,0.55,0.55,0.55,0.52,0.61,0.55,0.55,0.59,0.55,0.43,0.55,0.88,0.55" style="fill:rgb(0,0,0);font-family:AdvPSA5CD;font-size:7.97px;stroke:none;">electrolyte and the Mn ratio (atomic/weight) of the solid Mn-based cathode to the aqueous Mn</text>
   <text y="511.314" x="429.052,432.283" svgx:width="0.52,0.67" style="fill:rgb(0,0,0);font-family:AdvPSA5CD;font-size:5.31px;stroke:none;">2+</text>
   <text y="525.77" x="57.657,59.698,64.0815,67.238,69.975,74.459,78.8425,81.998,86.477,88.466,92.949,96.85,99.588,102.326,107.136,109.124,112.858,115.596,119.9795,123.136,125.124,128.5511,131.701,133.689,137.834,141.797,145.708,147.697,152.18,157.157,159.22920000000002,162.373,167.016,171.499,173.488,176.9151,180.007,183.909,188.719,193.202,195.19,200.0517,203.241,205.226,209.709,213.853,218.71470000000002,221.954,224.675,229.37730000000002,232.556,236.808,241.1915,244.347,248.826,253.225,256.025,260.509,262.497,264.486,268.714,273.608,275.687,280.07050000000004,283.17,287.082,291.892,298.699,303.741,307.993,310.73,312.719,316.206,320.932,325.31550000000004,328.508,333.327,335.6383,338.826,341.547,346.03,350.4135,353.571,356.309,360.792,364.195,368.729,370.77,373.491,376.9181,380.011,384.263,388.164,390.902,395.712,399.115,402.5421,405.746,410.64,412.629,415.032,417.351,421.892,424.669,429.153,433.636" svgx:width="0.24,0.55,0.55,0.33,0.55,0.55,0.55,0.55,0.24,0.55,0.48,0.33,0.33,0.59,0.24,0.46,0.33,0.55,0.55,0.24,0.43,0.55,0.24,0.52,0.48,0.48,0.24,0.55,0.61,0.26,0.55,0.57,0.55,0.24,0.43,0.55,0.48,0.59,0.55,0.24,0.61,0.55,0.24,0.55,0.52,0.61,0.55,0.33,0.59,0.55,0.52,0.55,0.55,0.55,0.55,0.33,0.55,0.24,0.24,0.52,0.61,0.24,0.55,0.55,0.48,0.59,0.85,0.61,0.52,0.33,0.24,0.43,0.59,0.55,0.55,0.59,0.29,0.55,0.33,0.55,0.55,0.55,0.33,0.55,0.43,0.55,0.24,0.33,0.43,0.55,0.52,0.48,0.33,0.59,0.43,0.43,0.55,0.61,0.24,0.29,0.29,0.55,0.33,0.55,0.55,0.33" style="fill:rgb(0,0,0);font-family:AdvPSA5CD;font-size:7.97px;stroke:none;">in the electrolyte is lacking. This could lead to an unreliable comparison of the results across different</text>
   <text y="536.768" x="57.657,62.632,67.113,72.088,74.074,76.06,79.959,84.185,86.92,88.906,93.714,98.195,101.598,103.6702,107.152,113.792,119.568,121.552,126.033,130.8947,134.367,137.102,141.8043,145.209,147.987,152.465,156.8485,160.232,165.222,170.029,172.765,177.246,181.726,184.462,186.448,190.674,192.5868,196.003,199.82,204.677,209.155,211.89,214.668,216.654,221.629,226.11,228.845,230.832,235.639,240.0225,243.406,248.225,250.53629999999998,253.951,261.094" svgx:width="0.61,0.55,0.61,0.24,0.24,0.48,0.52,0.33,0.24,0.59,0.55,0.43,0.26,0.55,0.83,0.71,0.24,0.55,0.61,0.55,0.33,0.59,0.55,0.33,0.55,0.55,0.55,0.61,0.59,0.33,0.55,0.55,0.33,0.24,0.52,0.24,0.55,0.48,0.59,0.55,0.33,0.33,0.24,0.61,0.55,0.33,0.24,0.59,0.55,0.55,0.59,0.29,0.55,0.88,0.55" style="fill:rgb(0,0,0);font-family:AdvPSA5CD;font-size:7.97px;stroke:none;">publications. Owing to the potential contribution of Mn</text>
   <text y="533.197" x="265.606,268.781" svgx:width="0.52,0.67" style="fill:rgb(0,0,0);font-family:AdvPSA5CD;font-size:5.31px;stroke:none;">2+</text>
   <text y="536.769" x="276.208,278.191,282.5745,285.958,288.735,293.214,297.5975,300.981,305.459,307.442,311.92,315.816,318.548,321.326,326.052,328.128,331.778,334.591,338.97450000000003,342.358,345.136,349.8383,353.243,355.975,360.453,364.8365,368.276,372.094,376.384,381.373,385.518,389.48,391.463,394.241,397.891,399.96320000000003,403.425,406.157,410.635,413.413,417.89,422.368,425.1,427.083,431.887" svgx:width="0.24,0.55,0.55,0.33,0.55,0.55,0.55,0.55,0.24,0.55,0.48,0.33,0.33,0.59,0.24,0.46,0.33,0.55,0.55,0.33,0.59,0.55,0.33,0.55,0.55,0.55,0.48,0.52,0.61,0.52,0.48,0.24,0.33,0.46,0.26,0.55,0.33,0.55,0.33,0.55,0.55,0.33,0.24,0.59,0.55" style="fill:rgb(0,0,0);font-family:AdvPSA5CD;font-size:7.97px;stroke:none;">in the electrolyte to the capacity, retention</text>
   <text y="547.71" x="57.656,60.434,64.578,67.407,71.885,75.3121,78.745,83.564,85.8753,89.346,92.067,96.551,100.9345,104.431,108.332,112.477,115.305,119.784,124.594,129.488,133.8715,137.406,144.212,148.744,152.656,157.0395,160.536,165.015,167.003,171.981,176.464,180.947,183.5771,187.07,189.808,194.291,198.519,202.9025,206.399,210.544,214.846,218.99,225.44570000000002,229.019,234.662,239.167,241.945,246.3285,249.825,254.551,259.575,263.062,267.546,270.283,274.017,278.501,283.36269999999996,286.834,288.823,293.2065,296.703,300.19,304.916,311.869,316.25250000000005,319.749,321.738,323.726,326.464,330.947,333.685,337.913,340.651,345.134,347.912,352.2955,355.735,358.513,362.996,367.89,372.747,375.524,378.262,381.6891,385.122,390.849,395.332,399.815,402.553,406.9365,410.433,413.154,417.637,422.0205,425.518,429.419,433.564" svgx:width="0.33,0.52,0.33,0.55,0.43,0.55,0.59,0.29,0.55,0.33,0.55,0.55,0.55,0.48,0.52,0.33,0.55,0.59,0.61,0.55,0.55,0.85,0.55,0.48,0.55,0.55,0.55,0.24,0.61,0.55,0.55,0.33,0.55,0.33,0.55,0.52,0.55,0.55,0.52,0.52,0.52,0.81,0.55,0.71,0.55,0.33,0.55,0.55,0.59,0.61,0.43,0.55,0.33,0.46,0.55,0.61,0.55,0.24,0.55,0.55,0.43,0.59,0.85,0.55,0.55,0.24,0.24,0.33,0.55,0.33,0.52,0.33,0.55,0.33,0.55,0.55,0.33,0.55,0.61,0.59,0.33,0.33,0.43,0.55,0.71,0.55,0.55,0.33,0.55,0.55,0.33,0.55,0.55,0.55,0.48,0.52,0.33" style="fill:rgb(0,0,0);font-family:AdvPSA5CD;font-size:7.97px;stroke:none;">rates of the cathode much higher than 100% were observed in some literature reports where the ca-</text>
   <text y="558.652" x="57.656,62.63,66.882,70.781,72.766,75.501,79.16720000000001,82.133,87.857,92.109,95.53609999999999,98.515,102.427,106.572,108.606,112.505,116.985,118.97,123.222,125.957,130.437,135.29870000000003,138.317,140.302,144.782,148.296,150.9261,153.966,158.859,163.15,166.553,171.086,175.94770000000003,179.023,183.749,188.1325,191.212,193.947,198.427,202.8105,205.853,209.998,213.96,216.681,218.722,222.372,226.7555,229.834,236.641,240.945,243.666,248.146,250.881,252.866,257.118,259.0308,262.05,266.195,268.8251,271.915,274.636,279.116,283.4995,286.543,290.441,294.586,297.414,301.893,306.619,311.643,316.0265,319.07" svgx:width="0.61,0.52,0.48,0.24,0.33,0.46,0.55,0.71,0.52,0.43,0.55,0.48,0.52,0.24,0.48,0.55,0.24,0.52,0.33,0.55,0.61,0.55,0.24,0.55,0.43,0.33,0.55,0.61,0.52,0.43,0.55,0.61,0.55,0.59,0.55,0.55,0.33,0.55,0.55,0.55,0.52,0.48,0.33,0.24,0.46,0.55,0.55,0.85,0.52,0.33,0.55,0.33,0.24,0.52,0.24,0.55,0.52,0.33,0.55,0.33,0.55,0.55,0.55,0.48,0.52,0.33,0.55,0.59,0.61,0.55,0.55,0.26" style="fill:rgb(0,0,0);font-family:AdvPSA5CD;font-size:7.97px;stroke:none;">pacity was calculated just based on the active material at the cathode (</text>
   <text y="558.652" x="321.223,328.77,333.1535,336.246,340.739,343.3691,346.351,350.589,352.587,354.753,356.8252,359.855,364.0,368.302,372.54,376.684,378.75620000000004,381.837,386.315,390.6985,393.685,398.164,400.7941,403.833,408.085,410.083,412.249,414.32120000000003,417.295,421.532,425.77,429.915,434.217" svgx:width="0.95,0.55,0.55,0.55,0.33,0.55,0.52,0.24,0.26,0.26,0.55,0.52,0.52,0.52,0.52,0.26,0.55,0.55,0.55,0.55,0.55,0.33,0.55,0.52,0.24,0.26,0.26,0.55,0.52,0.52,0.52,0.52,0.26" style="fill:rgb(0,138,141);font-family:AdvPSA5CD;font-size:7.97px;stroke:none;">Wu et al., 2018; Fu et al., 2018;</text>
   <text y="569.651" x="57.656,62.147,66.637,71.0205,74.744,79.235,81.8651,85.528,89.763,91.759,93.922,95.99419999999999,99.648,103.883,108.119,112.263,116.565,118.63719999999999,122.291,129.93,134.074,138.604,143.46570000000003,147.165,151.655,154.2851,158.005,162.149,164.184,166.347,168.41920000000002,172.13,176.274,180.577,184.812,188.956" svgx:width="0.55,0.55,0.55,0.55,0.55,0.33,0.55,0.52,0.24,0.26,0.26,0.55,0.52,0.52,0.52,0.52,0.26,0.55,0.95,0.52,0.55,0.61,0.55,0.55,0.33,0.55,0.52,0.24,0.26,0.26,0.55,0.52,0.52,0.52,0.52,0.61" style="fill:rgb(0,138,141);font-family:AdvPSA5CD;font-size:7.97px;stroke:none;">Zhu et al., 2018; Wang et al., 2019b</text>
   <text y="569.651" x="194.003,196.158" svgx:width="0.26,0.26" style="fill:rgb(0,0,0);font-family:AdvPSA5CD;font-size:7.97px;stroke:none;">).</text>
   <text y="591.534" x="57.656,63.25,65.234,67.1468,68.92,71.697,76.176,80.654,84.169,88.5525,90.292,92.73,96.992,100.928,103.7,107.1271,108.859,113.338,120.254,125.266,129.744,134.007,137.528,139.551,143.072,147.4555,149.195,151.972,156.451,160.8345,162.573,169.498,174.342,177.114,179.099,182.867,187.13,189.851,191.892,196.736,201.1195,202.859,207.703,210.0143,211.728,214.5,218.979,221.001,224.4281,226.161,231.886,236.705,239.477,243.413,245.48520000000002,247.211,249.253,251.407,255.943,258.097,260.1692,261.952,264.673,269.3753,271.136,274.658,277.43,281.908,286.897,290.5632,292.284,295.799,300.316,302.301,304.738,307.51,310.282,314.76,318.696,323.54,327.309,331.787,334.559,338.22520000000003,339.945,343.88,348.359,352.876,359.683,361.777,365.292,368.064,370.785,374.45120000000003,376.171,378.212,382.5955,384.335,387.112,391.591,395.97450000000003,397.714,401.649,405.912,408.684,413.201,418.046,423.057,427.44050000000004,429.18,433.999" svgx:width="0.69,0.24,0.24,0.55,0.33,0.55,0.55,0.43,0.55,0.55,0.29,0.52,0.48,0.33,0.43,0.55,0.55,0.85,0.61,0.55,0.52,0.43,0.24,0.43,0.55,0.55,0.33,0.55,0.55,0.55,0.85,0.59,0.33,0.24,0.46,0.52,0.33,0.24,0.59,0.55,0.55,0.59,0.29,0.55,0.33,0.55,0.24,0.43,0.55,0.71,0.59,0.33,0.48,0.26,0.55,0.24,0.26,0.55,0.26,0.26,0.55,0.33,0.59,0.55,0.43,0.33,0.55,0.61,0.46,0.55,0.43,0.55,0.24,0.29,0.33,0.33,0.55,0.48,0.59,0.46,0.55,0.33,0.46,0.55,0.48,0.55,0.55,0.85,0.24,0.43,0.33,0.33,0.46,0.55,0.24,0.55,0.55,0.33,0.55,0.55,0.55,0.48,0.52,0.33,0.55,0.59,0.61,0.55,0.55,0.59,0.29" style="fill:rgb(0,0,0);font-family:AdvPSA5CD;font-size:7.97px;stroke:none;">All these facts emphasize the motivation of this work, i.e., to study self-recovery chemistry in the cathode of</text>
   <text y="602.533" x="57.656,62.176,66.655,69.429,71.454,76.301,80.6845,82.537,87.551,91.816,94.59,97.365,101.843,104.617,106.643,111.121,114.636,116.70819999999999,118.548,120.589,125.067,128.979,131.004,135.483,140.497,142.481,147.001,151.86270000000002,153.748,156.523,161.001,165.3845,167.237,169.278,173.756,178.009,182.528,187.007,191.485,195.454,197.438,201.973,206.83470000000003,208.72,213.709,217.974,220.749,225.014,231.82,236.409,239.186,243.665,246.442,249.8691,251.715,254.034,258.971,261.60110000000003,263.45,266.224,270.744,275.12750000000005,276.98,281.969,284.744,289.59,293.529,298.048,301.572,304.9991,306.788,311.053,315.573,320.43469999999996,322.319,325.097,329.575,334.111,336.096,338.72610000000003,340.631,342.615,347.151,349.926,354.404,357.178,361.443,365.381,368.156,370.14,374.959,379.479,382.9061,384.751,389.016,393.495,398.3567,400.241,403.019,407.497,411.88050000000004,413.791,420.718,425.196,429.134,433.654" svgx:width="0.55,0.55,0.33,0.24,0.59,0.55,0.55,0.61,0.52,0.33,0.33,0.55,0.33,0.24,0.55,0.43,0.26,0.55,0.24,0.55,0.48,0.24,0.55,0.61,0.24,0.55,0.61,0.55,0.33,0.55,0.55,0.55,0.24,0.55,0.52,0.55,0.55,0.55,0.48,0.24,0.55,0.61,0.55,0.61,0.52,0.33,0.52,0.85,0.55,0.33,0.55,0.33,0.43,0.55,0.29,0.59,0.33,0.55,0.33,0.55,0.55,0.55,0.61,0.33,0.59,0.48,0.55,0.43,0.43,0.55,0.52,0.55,0.61,0.55,0.33,0.55,0.55,0.24,0.33,0.55,0.24,0.55,0.33,0.55,0.33,0.52,0.48,0.33,0.24,0.59,0.55,0.43,0.55,0.52,0.55,0.61,0.55,0.33,0.55,0.55,0.55,0.85,0.55,0.48,0.55,0.33" style="fill:rgb(0,0,0);font-family:AdvPSA5CD;font-size:7.97px;stroke:none;">Zn-ion batteries, including the inﬂuencing parameters for the process and their interactions and the mech-</text>
   <text y="613.475" x="57.656,61.931,66.46,68.445,71.959,78.7335,81.258,86.247,90.776,95.255,97.29,101.768,106.6297,109.138,111.916,116.394,120.7775,123.311,127.789,129.83,134.309,138.277,140.998,143.776,148.595,152.506,157.036,161.514,168.451,170.435,174.383,178.657,180.56980000000001,183.023,188.069,192.547,197.536,202.355,205.87,207.905,210.626,212.661,217.479,221.8625,224.396,229.215,231.5263,234.034,241.177,245.5605,248.094,252.006,256.824,263.741,268.73,273.549,278.078,282.557,287.4187,289.927,294.916,299.446,302.23,304.214,308.693,313.55469999999997,316.12,318.841,323.37,327.75350000000003,330.23,335.254,339.528,342.249,345.027,349.505,352.283,355.9492,358.405,362.374,366.116,370.028,372.062,374.047,378.576,383.566,385.6382,388.102,393.204,397.479,401.012,405.49,410.3517,412.917,417.736,422.1195,424.596,427.38,431.858" svgx:width="0.52,0.55,0.24,0.43,0.85,0.55,0.61,0.55,0.55,0.24,0.55,0.61,0.55,0.33,0.55,0.55,0.55,0.55,0.24,0.55,0.48,0.33,0.33,0.59,0.48,0.55,0.55,0.85,0.24,0.48,0.52,0.24,0.55,0.61,0.55,0.61,0.59,0.43,0.24,0.33,0.24,0.59,0.55,0.55,0.59,0.29,0.55,0.88,0.55,0.55,0.48,0.59,0.85,0.61,0.59,0.55,0.55,0.61,0.55,0.61,0.55,0.33,0.24,0.55,0.61,0.55,0.33,0.55,0.55,0.55,0.61,0.52,0.33,0.33,0.55,0.33,0.46,0.55,0.48,0.46,0.48,0.24,0.24,0.55,0.61,0.26,0.55,0.63,0.52,0.43,0.55,0.61,0.55,0.59,0.55,0.55,0.33,0.55,0.55" style="fill:rgb(0,0,0);font-family:AdvPSA5CD;font-size:7.97px;stroke:none;">anism behind the electrochemical deposition of Mn compound during the battery cycling. Based on the</text>
   <text y="624.416" x="57.656,62.174,66.653,71.665,76.184,78.957,82.36,85.192,89.445,93.963,98.975,100.96,105.496,110.3577,114.51,119.385,121.69630000000001,125.848,128.626,133.104,137.4875,141.665,145.187,149.706,151.69,154.128,156.901,159.674,164.152,168.089,172.934,176.703,181.181,183.954,187.6202,191.778,195.714,200.193,204.711,211.518,213.611,217.126,219.899,222.62,226.2862,230.444,232.485,236.8685,241.046,243.823,248.302,252.6855,256.863,260.799,265.062,267.835,272.314,277.159,282.171,286.65,288.7222,292.885,298.647,303.0305,307.208,309.646,314.124,316.897,319.67,324.149,328.627,331.25710000000004,335.487,340.499,343.272,348.117,353.13,357.975,361.497,365.88050000000004,370.058,374.2024,378.391,382.328,387.173,392.185,396.449,398.472,401.245,403.966,410.883,415.728,420.74,422.725,426.977,431.495" svgx:width="0.55,0.55,0.61,0.55,0.33,0.43,0.33,0.52,0.55,0.61,0.24,0.55,0.61,0.55,0.59,0.29,0.55,0.33,0.55,0.55,0.55,0.43,0.55,0.24,0.29,0.33,0.33,0.55,0.48,0.59,0.46,0.55,0.33,0.46,0.55,0.48,0.55,0.55,0.85,0.24,0.43,0.33,0.33,0.46,0.55,0.24,0.55,0.55,0.33,0.55,0.55,0.55,0.48,0.52,0.33,0.55,0.59,0.61,0.55,0.26,0.55,0.71,0.55,0.55,0.29,0.55,0.33,0.33,0.55,0.55,0.33,0.55,0.61,0.33,0.59,0.61,0.59,0.43,0.55,0.55,0.52,0.55,0.48,0.59,0.61,0.52,0.24,0.33,0.33,0.85,0.59,0.61,0.24,0.52,0.55,0.61" style="fill:rgb(0,0,0);font-family:AdvPSA5CD;font-size:7.97px;stroke:none;">understanding of the self-recovery chemistry in the cathode, we further propose a cobalt-modiﬁed</text>
   <text y="635.358" x="57.656" svgx:width="0.5" style="fill:rgb(0,0,0);font-family:AdvPS3F4C13;font-size:7.97px;stroke:none;">d</text>
   <text y="635.358" x="61.795,64.528,71.661,76.196" svgx:width="0.33,0.88,0.55,0.83" style="fill:rgb(0,0,0);font-family:AdvPSA5CD;font-size:7.97px;stroke:none;">-MnO</text>
   <text y="636.718" x="82.942" svgx:width="0.52" style="fill:rgb(0,0,0);font-family:AdvPSA5CD;font-size:5.31px;stroke:none;">2</text>
   <text y="635.358" x="87.931,92.18,95.6071,97.508,101.6524,103.575,107.486,111.735,114.494,118.998,123.828,128.874,133.2575,135.168,142.079,146.328,149.049,153.584,156.305,158.346,162.595,164.5078,166.45,172.197,174.207,176.965,181.3485,183.258,187.4024,189.324,192.102,196.606,201.652,206.483,210.405,213.163,217.412,221.334,224.093,226.102,229.857,234.2405,236.207,239.722,244.226,246.984,249.408,253.657,257.579,261.96250000000003,263.872,266.296,271.127,273.75710000000004,275.719,278.157,282.406,285.809,288.43910000000005,290.456,295.445,299.949,304.947,309.778,313.286,315.295,318.054,320.063,324.894,329.27750000000003,331.187,336.006,338.3173,340.258,347.401,351.78450000000004,353.751,357.663,362.494,369.405,374.403,379.234,383.738,388.242,393.24,395.3122,397.208,401.871,406.57329999999996,408.504,413.008,419.919,424.917,429.421,433.67" svgx:width="0.52,0.43,0.55,0.52,0.55,0.48,0.52,0.33,0.55,0.59,0.61,0.55,0.55,0.85,0.52,0.33,0.55,0.33,0.24,0.52,0.24,0.55,0.71,0.24,0.33,0.55,0.55,0.52,0.55,0.33,0.55,0.61,0.59,0.48,0.33,0.52,0.48,0.33,0.24,0.46,0.55,0.55,0.43,0.55,0.33,0.29,0.52,0.48,0.55,0.55,0.29,0.59,0.33,0.55,0.29,0.52,0.43,0.33,0.55,0.61,0.55,0.61,0.59,0.43,0.24,0.33,0.24,0.59,0.55,0.55,0.59,0.29,0.55,0.88,0.55,0.55,0.48,0.59,0.85,0.61,0.59,0.55,0.55,0.61,0.26,0.55,0.57,0.59,0.55,0.55,0.85,0.61,0.55,0.52,0.33" style="fill:rgb(0,0,0);font-family:AdvPSA5CD;font-size:7.97px;stroke:none;">as a cathode material with a redox-active surface for fast deposition of Mn compound. To empha-</text>
   <text y="646.357" x="57.657,61.179,63.202,66.724,71.1075,72.904,75.625,80.16,84.5435,86.282,88.324,95.249,100.261,105.106,107.879,110.652,114.915,119.394,123.306,127.6895,129.485,134.304,136.6153,138.443,141.164,145.682,150.0655,151.805,156.817,161.296,166.308,171.153,174.675,176.699,179.472,181.456,186.301,190.68449999999999,192.481,195.253,199.517,202.29,206.6735,208.412,213.257,215.5683,217.339,220.112,224.59,228.9735,230.769,237.913,242.392,245.169,249.432,253.304,256.076,258.06,261.828,266.2115,268.007,271.942,276.785,283.709,288.72,293.563,298.042,302.559,307.57,310.9971,312.729,315.167,320.01,322.6401,324.432,327.203,331.72,336.10350000000005,337.843,341.358,345.874,347.859,350.295,353.067,355.838,360.316,364.251,369.095,372.862,377.341,380.112,383.7782,385.498,389.433,393.201,397.135,399.158,401.142,405.621,410.48269999999997,412.311,416.223,420.484,425.495,429.757,433.692" svgx:width="0.43,0.24,0.43,0.55,0.55,0.33,0.55,0.55,0.55,0.24,0.85,0.61,0.59,0.33,0.33,0.52,0.55,0.48,0.55,0.55,0.59,0.29,0.55,0.33,0.55,0.55,0.55,0.61,0.55,0.61,0.59,0.43,0.24,0.33,0.24,0.59,0.55,0.55,0.33,0.52,0.33,0.55,0.55,0.59,0.29,0.55,0.33,0.55,0.55,0.55,0.88,0.55,0.33,0.52,0.48,0.33,0.24,0.46,0.55,0.55,0.48,0.59,0.85,0.61,0.59,0.55,0.55,0.61,0.43,0.55,0.29,0.59,0.33,0.55,0.33,0.55,0.55,0.55,0.43,0.55,0.24,0.29,0.33,0.33,0.55,0.48,0.59,0.46,0.55,0.33,0.46,0.55,0.48,0.46,0.48,0.24,0.24,0.55,0.61,0.55,0.48,0.52,0.61,0.52,0.48,0.33" style="fill:rgb(0,0,0);font-family:AdvPSA5CD;font-size:7.97px;stroke:none;">size the importance of the deposition rate of the Mn-active compounds for the self-recovery cycling capac-</text>
   <text y="657.298" x="57.657,59.664,62.42,66.172,68.24419999999999,70.594,74.84,79.2235,81.531,86.032,91.028,95.529,99.776,102.532,104.539,109.367,113.7505,116.114,118.835,123.371,127.618,130.2481,132.607,137.603,142.104,145.609,149.529,152.285,154.292,159.338,163.817,167.2441,169.542,172.32,176.822,181.2055,183.511,188.507,192.305,196.807,201.053,207.962,209.969,213.7946,216.148,220.06,224.306,229.302,233.549,237.468,239.475,242.193,245.85920000000002,248.203,253.021,255.33229999999998,257.67,260.391,264.92,269.30350000000004,271.609,278.753,283.288,286.009,291.055,295.329,298.861,303.34,308.20169999999996,310.54,314.452,318.704,321.487,325.965,330.821,335.81,340.19350000000003,342.5,344.542,347.96909999999997,350.267,354.519,356.504,360.019,364.7213,367.049,372.038,376.567,383.373,388.302,392.78,396.313,399.096,401.817,406.069,408.852,413.381,418.37,420.4422,422.736,427.385,431.92" svgx:width="0.24,0.33,0.46,0.26,0.55,0.52,0.55,0.55,0.55,0.61,0.55,0.52,0.33,0.24,0.59,0.55,0.55,0.33,0.55,0.52,0.33,0.55,0.61,0.55,0.43,0.48,0.33,0.24,0.61,0.55,0.43,0.55,0.33,0.55,0.55,0.55,0.61,0.46,0.55,0.52,0.85,0.24,0.48,0.55,0.48,0.52,0.61,0.52,0.48,0.24,0.33,0.46,0.55,0.59,0.29,0.55,0.33,0.55,0.55,0.55,0.88,0.55,0.33,0.61,0.52,0.43,0.55,0.61,0.55,0.48,0.52,0.33,0.55,0.59,0.61,0.55,0.55,0.24,0.43,0.55,0.52,0.24,0.43,0.59,0.55,0.61,0.55,0.85,0.59,0.55,0.43,0.33,0.33,0.52,0.33,0.55,0.61,0.26,0.55,0.57,0.55,0.55" style="fill:rgb(0,0,0);font-family:AdvPSA5CD;font-size:7.97px;stroke:none;">ity, an equation that describes the dynamic capacity of the Mn-based cathode is also demonstrated. The</text>
   <text y="668.24" x="57.657,61.588,66.429,71.436,75.695,77.714,80.435,83.203,85.222,89.7,94.689,99.203,103.135,107.613,112.4747,115.096,117.53,121.788,125.72,127.739,129.758,131.742,134.51,138.769,141.537,143.521,148.035,152.8967,155.518,160.358,162.6693,165.29,170.298,174.811,179.819,184.659,188.177,190.195,192.917,194.958,199.798,204.1815,206.828,208.812,212.2391,214.822,218.753,223.594,228.072,232.324,235.092,242.013,246.491,251.35270000000003,253.975,258.982,262.64820000000003,265.276,267.997,272.532,276.9155,279.505,284.041,286.025,290.56,294.492,297.26,299.981,304.856,308.788,313.266,317.78,324.586,326.68,330.592,334.851,336.7638,339.386,343.645,348.123,352.9847,355.607,359.575,364.053,368.532,375.448,377.467,381.399,385.657,387.5698,390.193,394.125,398.603,402.862,405.63,409.888,413.82,416.588,421.067,423.835,425.854,429.257,433.564" svgx:width="0.48,0.59,0.61,0.52,0.24,0.33,0.33,0.24,0.55,0.61,0.55,0.48,0.55,0.61,0.55,0.29,0.52,0.48,0.24,0.24,0.24,0.33,0.52,0.33,0.24,0.55,0.61,0.55,0.59,0.29,0.55,0.61,0.55,0.61,0.59,0.43,0.24,0.33,0.24,0.59,0.55,0.55,0.24,0.43,0.55,0.48,0.59,0.55,0.52,0.33,0.85,0.55,0.61,0.55,0.61,0.46,0.55,0.33,0.55,0.55,0.55,0.55,0.24,0.55,0.48,0.33,0.33,0.59,0.48,0.55,0.55,0.85,0.24,0.48,0.52,0.24,0.55,0.52,0.55,0.61,0.55,0.48,0.55,0.55,0.85,0.24,0.48,0.52,0.24,0.55,0.48,0.55,0.52,0.33,0.52,0.48,0.33,0.55,0.33,0.24,0.43,0.52,0.33" style="fill:rgb(0,0,0);font-family:AdvPSA5CD;font-size:7.97px;stroke:none;">cobalt-induced facilitating of deposition is conﬁrmed by the electrochemical and chemical characteriza-</text>
   <text y="679.238" x="57.657,60.429,62.452,67.296,71.774,75.2011,76.933,81.752,84.0633,85.834,90.823,95.667,98.439,102.82249999999999,104.562,109.551,112.324,116.586,120.522,123.294,125.278,129.19,133.453,135.3658,137.138,141.074,145.918,147.941,152.419,155.191,157.963,161.732,166.743,171.1265,172.866,177.878,182.14,184.912,187.684,192.163,194.935,196.919,201.437,204.8641,206.539,210.802,215.319,220.1807,221.895,226.0394,227.792,232.27,236.805,242.531,244.572,248.2382,249.958,254.947,259.426,262.94,264.963,269.975,274.453,278.988,283.8497,285.565,290.1,292.085,296.621,300.557,303.329,306.05,310.925,312.91,316.652,320.173,324.69,327.3201,329.056,332.57,336.339,339.86,342.632,347.111,354.035,356.10720000000003,357.834,360.024,364.502,368.024,370.008,375.02,379.498,382.27,385.6971,387.373,389.396,393.874,396.646,401.3483,403.109,405.881,410.36,414.74350000000004,416.482,420.394,424.657,427.429,431.691,433.714" svgx:width="0.33,0.24,0.59,0.55,0.43,0.55,0.59,0.29,0.55,0.61,0.59,0.33,0.55,0.55,0.61,0.33,0.52,0.48,0.33,0.24,0.48,0.52,0.24,0.55,0.48,0.59,0.24,0.55,0.33,0.33,0.46,0.61,0.55,0.55,0.61,0.52,0.33,0.33,0.55,0.33,0.24,0.55,0.43,0.55,0.52,0.55,0.61,0.55,0.52,0.55,0.55,0.55,0.71,0.24,0.46,0.55,0.61,0.55,0.43,0.24,0.61,0.55,0.55,0.61,0.55,0.55,0.24,0.55,0.48,0.33,0.33,0.59,0.24,0.46,0.43,0.55,0.33,0.55,0.43,0.46,0.43,0.33,0.55,0.85,0.26,0.55,0.26,0.55,0.43,0.24,0.61,0.55,0.33,0.43,0.55,0.24,0.55,0.33,0.59,0.55,0.33,0.55,0.55,0.55,0.48,0.52,0.33,0.52,0.24,0.33" style="fill:rgb(0,0,0);font-family:AdvPSA5CD;font-size:7.97px;stroke:none;">tions of both practical coin-type batteries and a newly designed electrolyzer system. Insights into the catal-</text>
   <text y="690.18" x="57.657,61.439,64.975,66.96,70.38709999999999,72.288,75.075,79.894,84.425,87.146,91.678,95.1051,97.007,101.826,104.1373,106.135,108.856,113.392,117.7755,119.685,126.885,131.26850000000002,133.178,137.09,141.949,148.755,153.854,158.673,163.151,167.686,172.54770000000002,174.489,179.479,184.011,189.0,193.819,197.334,199.318,202.096,204.133,208.952,213.3355,215.302,219.554,222.275,226.6585,228.625,232.902,234.939,238.474,243.1763,245.107,247.893,252.372,256.155,260.633,264.91,266.947,271.425,276.415,278.48720000000003,280.44,285.089,289.621,291.605,295.0321,296.991,302.716,307.535,310.313,314.1386,316.039,321.028,323.814,328.633,332.416,334.4,339.39,343.925,347.3521,349.254,354.243,358.775,360.759,365.749,370.001,374.533,378.444,382.82750000000004,384.794,389.613,391.9243,393.865,396.643,401.121,405.5045,407.471,411.95,414.727,416.764,418.749,420.786,423.573,427.2392,429.129,433.947" svgx:width="0.46,0.43,0.24,0.43,0.55,0.33,0.59,0.55,0.33,0.55,0.43,0.55,0.59,0.29,0.55,0.33,0.55,0.55,0.55,0.88,0.55,0.55,0.48,0.59,0.85,0.61,0.59,0.55,0.55,0.61,0.55,0.61,0.55,0.61,0.59,0.43,0.24,0.33,0.24,0.59,0.55,0.55,0.52,0.33,0.55,0.55,0.52,0.24,0.43,0.59,0.55,0.33,0.55,0.46,0.55,0.52,0.24,0.55,0.61,0.26,0.55,0.57,0.55,0.24,0.43,0.55,0.71,0.59,0.33,0.48,0.55,0.61,0.33,0.59,0.46,0.24,0.61,0.55,0.43,0.55,0.61,0.55,0.24,0.61,0.52,0.55,0.48,0.55,0.55,0.59,0.29,0.55,0.33,0.55,0.55,0.55,0.55,0.33,0.24,0.24,0.24,0.33,0.46,0.55,0.59,0.29" style="fill:rgb(0,0,0);font-family:AdvPSA5CD;font-size:7.97px;stroke:none;">ysis routes of the Mn compound deposition are also revealed. This work provides guidance of the utility of</text>
   <text y="701.121" x="57.657,60.441,64.97,69.3535,71.83,79.03" svgx:width="0.33,0.55,0.55,0.55,0.88,0.55" style="fill:rgb(0,0,0);font-family:AdvPSA5CD;font-size:7.97px;stroke:none;">the Mn</text>
   <text y="697.607" x="83.509,86.74" svgx:width="0.52,0.67" style="fill:rgb(0,0,0);font-family:AdvPSA5CD;font-size:5.31px;stroke:none;">2+</text>
   <text y="701.121" x="90.822,93.608,97.519,102.338,106.817,109.602,113.878,115.915,120.393,122.429,126.908,131.7697,134.335,138.813,140.849,145.328,149.24,152.025,154.811,159.63,161.666,165.408,168.194,172.5775,175.053,177.504,182.362,184.9921,187.521,190.299,194.777,199.16049999999998,201.694,206.683,211.162,214.943,219.422,221.458,226.277,231.266,238.183,242.661,247.14,249.77009999999999,252.356,257.174,259.4853,261.993,266.524,271.003,273.788,275.773,280.631,285.0145,287.547,292.537,296.789,299.51,302.287,306.818,309.539,311.576,316.054,319.48109999999997,322.007,326.259,330.738,335.5997,338.164,344.971,349.276,352.9422,355.455,360.444,363.23,368.049,371.791,373.832,378.821,383.20450000000005,385.738,387.774,392.252,395.787,400.777,402.813,405.534,409.81,412.596,414.632,419.451,423.83450000000005,426.367,428.805,433.624" svgx:width="0.33,0.48,0.59,0.55,0.33,0.52,0.24,0.55,0.24,0.55,0.61,0.55,0.55,0.24,0.55,0.48,0.33,0.33,0.59,0.24,0.46,0.33,0.55,0.55,0.29,0.59,0.33,0.55,0.33,0.55,0.55,0.55,0.61,0.55,0.46,0.55,0.24,0.59,0.61,0.85,0.55,0.55,0.33,0.55,0.59,0.29,0.55,0.55,0.55,0.33,0.24,0.59,0.55,0.55,0.61,0.52,0.33,0.33,0.55,0.33,0.24,0.55,0.43,0.55,0.52,0.55,0.61,0.55,0.85,0.52,0.46,0.55,0.61,0.33,0.59,0.46,0.24,0.61,0.55,0.55,0.24,0.55,0.43,0.61,0.24,0.33,0.52,0.33,0.24,0.59,0.55,0.55,0.29,0.59,0.33" style="fill:rgb(0,0,0);font-family:AdvPSA5CD;font-size:7.97px;stroke:none;">-containing electrolyte for the development of Zn-ion batteries and may provide inspiration for</text>
   <text y="712.12" x="57.656,64.552,68.786,71.564,76.042,78.82,80.861,85.095,87.089,90.5161,94.175,98.654,103.189,108.179,110.173,114.708,119.197,123.733,126.476,128.517,133.006,137.8677,141.567,143.975,148.791,151.4211,155.141,157.579,162.068,164.845,169.334,172.112,176.4955,180.162,182.6,187.136,191.614,195.521,198.299,200.293,205.168,209.657,213.891,215.932,217.916,221.409,225.944,230.8057,234.505,238.417,242.65,245.394,249.929,254.748,259.73,264.266,267.669,269.7412,273.506,277.995,281.488,286.471,291.006,294.913,296.907,301.141,303.182,305.223,308.8892,312.536,314.945,319.761,322.39110000000005,326.054,330.929,333.673,338.208,342.696,345.32610000000005,349.046,352.953,357.769,362.258,366.056,370.545,373.323,376.815,378.809,383.625,388.161,390.938,393.66,397.458,402.447,406.83050000000003,410.498,415.488,419.721,422.499,425.277,429.755,432.533" svgx:width="0.85,0.52,0.33,0.55,0.33,0.24,0.52,0.24,0.43,0.55,0.55,0.55,0.61,0.24,0.55,0.55,0.55,0.33,0.24,0.55,0.61,0.55,0.29,0.59,0.33,0.55,0.29,0.55,0.33,0.55,0.33,0.55,0.55,0.29,0.55,0.55,0.48,0.33,0.24,0.59,0.55,0.52,0.24,0.24,0.43,0.55,0.61,0.55,0.48,0.52,0.33,0.55,0.59,0.61,0.55,0.43,0.26,0.55,0.55,0.43,0.61,0.55,0.48,0.24,0.52,0.24,0.24,0.46,0.55,0.29,0.59,0.33,0.55,0.59,0.33,0.55,0.55,0.33,0.55,0.48,0.59,0.55,0.46,0.55,0.33,0.43,0.24,0.59,0.55,0.33,0.33,0.46,0.61,0.55,0.55,0.61,0.52,0.33,0.33,0.55,0.33,0.46" style="fill:rgb(0,0,0);font-family:AdvPSA5CD;font-size:7.97px;stroke:none;">materials engineering for future functionalized cathodes, especially for other conversion-type battery</text>
   <text y="723.062" x="57.656,61.6,65.87,68.592,73.127,77.946,82.935,87.461,90.864,92.9362,95.341,101.123,105.602,107.643,111.555,115.9385,118.244,122.77,127.04,130.782,135.1655,137.529,141.058,143.043,149.975,152.006,153.991,158.243,160.8731,163.232,168.221,170.252,173.781,177.311,182.129,184.16,188.639,191.419,193.403,198.255,202.6385,204.945,206.976,210.505,214.034,218.513,222.991,226.506" svgx:width="0.48,0.52,0.33,0.55,0.59,0.61,0.55,0.43,0.26,0.55,0.71,0.55,0.24,0.48,0.55,0.55,0.55,0.52,0.46,0.55,0.55,0.43,0.24,0.85,0.24,0.24,0.52,0.33,0.55,0.61,0.24,0.43,0.43,0.59,0.24,0.55,0.33,0.24,0.59,0.55,0.55,0.24,0.43,0.43,0.55,0.55,0.43,0.26" style="fill:rgb(0,0,0);font-family:AdvPSA5CD;font-size:7.97px;stroke:none;">cathodes, which have similar dissolution issues.</text>
  </g>
  <g begin="text">
   <text y="762.973" x="57.657" svgx:width="0.55" style="fill:rgb(0,0,0);font-family:AdvPSA5BA;font-size:6.97px;stroke:none;">2</text>
   <text y="762.973" x="78.633,80.3,84.149,87.49,89.157,93.006,96.856,100.196" svgx:width="0.24,0.55,0.48,0.24,0.55,0.55,0.48,0.55" style="fill:rgb(0,0,0);font-family:AdvPSA5B8;font-size:6.97px;stroke:none;">iScience</text>
   <text y="762.973" x="106.016,109.865" svgx:width="0.55,0.55" style="fill:rgb(0,0,0);font-family:AdvPSA5B9;font-size:6.97px;stroke:none;">23</text>
   <text y="762.973" x="113.726,115.6776,117.638,121.487,125.337,129.186,133.036,136.885,140.735,142.68660000000003,144.681,150.852,154.545,156.867,160.208,164.04149999999998,165.997,169.847,173.697,175.64860000000002,177.62,181.47,185.319,189.169" svgx:width="0.28,0.55,0.55,0.55,0.55,0.55,0.55,0.55,0.28,0.55,0.88,0.52,0.33,0.48,0.55,0.55,0.55,0.55,0.28,0.55,0.55,0.55,0.55,0.55" style="fill:rgb(0,0,0);font-family:AdvPSA5B8;font-size:6.97px;stroke:none;">, 100943, March 27, 2020</text>
  </g>
  <path style="fill:rgb(0,139,142);stroke:none;stroke-width:1.0;" d="M60.500 52.180 M57.680 53.770 "/>
  <path style="fill:rgb(0,139,142);stroke:none;stroke-width:1.0;" d="M65.020 59.320 C65.020 61.200 66.490 61.940 68.150 61.940 C69.240 61.940 70.900 61.620 70.900 60.170 C70.900 58.650 68.780 58.390 66.700 57.830 C64.600 57.280 62.480 56.460 62.480 53.810 C62.480 50.910 65.220 49.530 67.770 49.530 C70.730 49.530 73.440 50.810 73.440 54.090 L70.430 54.090 C70.330 52.380 69.120 51.940 67.630 51.940 C66.640 51.940 65.490 52.360 65.490 53.550 C65.490 54.640 66.170 54.780 69.720 55.690 C70.750 55.950 73.920 56.600 73.920 59.820 C73.920 62.410 71.880 64.350 68.030 64.350 C64.900 64.350 61.960 62.810 62.000 59.320 L65.020 59.320 "/>
  <path style="fill:rgb(0,139,142);stroke:none;stroke-width:1.0;" d="M81.930 57.380 C81.750 56.230 81.020 55.610 79.850 55.610 C78.040 55.610 77.450 57.440 77.450 58.940 C77.450 60.410 78.020 62.180 79.790 62.180 C81.100 62.180 81.850 61.340 82.030 60.090 L84.740 60.090 C84.390 62.810 82.500 64.300 79.810 64.300 C76.710 64.300 74.630 62.110 74.630 59.040 C74.630 55.850 76.540 53.490 79.870 53.490 C82.280 53.490 84.510 54.760 84.680 57.380 L81.930 57.380 "/>
  <path style="fill:rgb(0,139,142);stroke:none;stroke-width:1.0;" d="M88.630 52.180 M85.810 53.770 "/>
  <path style="fill:rgb(0,139,142);stroke:none;stroke-width:1.0;" d="M92.590 59.580 C92.670 61.360 93.540 62.170 95.110 62.170 C96.240 62.170 97.150 61.480 97.330 60.850 L99.810 60.850 C99.010 63.260 97.330 64.300 95.010 64.300 C91.780 64.300 89.780 62.080 89.780 58.900 C89.780 55.830 91.900 53.490 95.010 53.490 C98.500 53.490 100.190 56.430 99.990 59.580 L92.590 59.580 ZM97.170 57.790 C96.910 56.370 96.300 55.610 94.930 55.610 C93.150 55.610 92.630 57.000 92.590 57.790 L97.170 57.790 "/>
  <path style="fill:rgb(0,139,142);stroke:none;stroke-width:1.0;" d="M101.060 53.770 L103.730 53.770 L103.730 55.200 L103.790 55.200 C104.500 54.050 105.740 53.490 106.920 53.490 C109.920 53.490 110.670 55.180 110.670 57.710 L110.670 64.020 L107.850 64.020 L107.850 58.230 C107.850 56.540 107.360 55.710 106.050 55.710 C104.530 55.710 103.870 56.560 103.870 58.650 L103.870 64.020 L101.060 64.020 L101.060 53.770 "/>
  <path style="fill:rgb(0,139,142);stroke:none;stroke-width:1.0;" d="M118.730 57.380 C118.550 56.230 117.820 55.610 116.650 55.610 C114.840 55.610 114.250 57.440 114.250 58.940 C114.250 60.410 114.820 62.180 116.590 62.180 C117.900 62.180 118.650 61.340 118.830 60.090 L121.550 60.090 C121.190 62.810 119.310 64.300 116.610 64.300 C113.520 64.300 111.440 62.110 111.440 59.040 C111.440 55.850 113.340 53.490 116.670 53.490 C119.090 53.490 121.310 54.760 121.490 57.380 L118.730 57.380 "/>
  <path style="fill:rgb(0,139,142);stroke:none;stroke-width:1.0;" d="M57.680 49.530 M124.890 59.580 C124.970 61.360 125.850 62.170 127.410 62.170 C128.540 62.170 129.460 61.480 129.630 60.850 L132.110 60.850 C131.320 63.260 129.630 64.300 127.310 64.300 C124.080 64.300 122.080 62.080 122.080 58.900 C122.080 55.830 124.200 53.490 127.310 53.490 C130.800 53.490 132.490 56.430 132.290 59.580 L124.890 59.580 ZM129.470 57.790 C129.220 56.370 128.600 55.610 127.230 55.610 C125.450 55.610 124.930 57.000 124.890 57.790 L129.470 57.790 "/>
  <path style="fill:rgb(220,219,219);stroke:none;stroke-width:1.0;" d="M508.760 54.130 L505.880 54.130 L505.880 56.250 L508.010 56.250 C509.280 56.250 510.410 56.530 510.410 58.120 C510.410 59.710 509.280 59.990 508.010 59.990 L505.880 59.990 L505.880 62.110 L508.760 62.110 C511.860 62.110 513.060 60.140 513.060 58.120 C513.060 56.100 511.860 54.130 508.760 54.130 "/>
  <path style="fill:rgb(220,219,219);stroke:none;stroke-width:1.0;" d="M519.070 57.320 C517.860 57.320 516.650 58.100 516.190 59.240 L516.160 59.240 L516.160 57.560 L513.810 57.560 L513.810 66.580 L516.280 66.580 L516.280 62.520 C516.280 60.930 516.910 59.620 518.720 59.620 C519.020 59.620 519.380 59.650 519.610 59.710 L519.610 57.400 C519.450 57.350 519.240 57.320 519.070 57.320 "/>
  <path style="fill:rgb(220,219,219);stroke:none;stroke-width:1.0;" d="M523.740 57.320 C521.000 57.320 519.140 59.380 519.140 62.080 C519.140 64.870 520.900 66.820 523.740 66.820 C525.780 66.820 527.260 65.910 527.960 63.790 L525.780 63.790 C525.620 64.340 524.820 64.960 523.830 64.960 C522.450 64.960 521.680 64.240 521.610 62.670 L528.110 62.670 C528.290 59.900 526.800 57.320 523.740 57.320 M521.610 61.100 C521.650 60.400 522.100 59.180 523.670 59.180 C524.870 59.180 525.410 59.850 525.640 61.100 L521.610 61.100 "/>
  <path style="fill:rgb(220,219,219);stroke:none;stroke-width:1.0;" d="M532.570 57.320 C530.640 57.320 528.650 57.910 528.650 60.210 C528.650 61.800 530.080 62.300 531.510 62.620 C533.290 63.000 534.310 63.270 534.310 64.010 C534.310 64.890 533.410 65.160 532.690 65.160 C531.720 65.160 530.810 64.730 530.800 63.650 L528.440 63.650 C528.550 66.040 530.590 66.820 532.680 66.820 C534.730 66.820 536.790 66.050 536.790 63.680 C536.790 62.010 535.380 61.490 533.930 61.150 C532.520 60.820 531.130 60.700 531.130 59.810 C531.130 59.080 531.950 58.970 532.500 58.970 C533.390 58.970 534.120 59.240 534.190 60.200 L536.540 60.200 C536.350 57.980 534.540 57.320 532.570 57.320 "/>
  <path style="fill:rgb(220,219,219);stroke:none;stroke-width:1.0;" d="M541.230 57.320 C539.290 57.320 537.310 57.910 537.310 60.210 C537.310 61.800 538.740 62.300 540.170 62.620 C541.940 63.000 542.970 63.270 542.970 64.010 C542.970 64.890 542.070 65.160 541.350 65.160 C540.380 65.160 539.470 64.730 539.450 63.650 L537.100 63.650 C537.210 66.040 539.240 66.820 541.340 66.820 C543.390 66.820 545.450 66.050 545.450 63.680 C545.450 62.010 544.040 61.490 542.590 61.150 C541.180 60.820 539.780 60.700 539.780 59.810 C539.780 59.080 540.600 58.970 541.160 58.970 C542.050 58.970 542.780 59.240 542.850 60.200 L545.200 60.200 C545.010 57.980 543.200 57.320 541.230 57.320 "/>
  <path style="fill:rgb(143,143,143);stroke:none;stroke-width:1.0;" d="M484.670 53.800 C481.470 53.800 478.950 56.020 478.950 60.370 C478.950 64.670 481.330 66.910 484.640 66.910 C487.760 66.910 489.520 65.020 490.040 62.310 L487.440 62.310 C487.130 63.840 486.130 64.650 484.690 64.650 C482.490 64.650 481.610 62.640 481.610 60.400 C481.610 56.880 483.440 56.050 484.690 56.050 C486.840 56.050 487.240 57.460 487.440 58.200 L490.040 58.200 C489.900 56.360 488.400 53.800 484.670 53.800 M505.040 54.130 M502.050 54.130 M494.820 57.110 C490.790 57.110 490.410 60.670 490.410 61.770 C490.410 65.570 492.400 66.820 495.000 66.820 C496.570 66.820 498.410 66.090 499.050 63.870 L496.560 63.870 C496.360 64.530 495.670 64.880 495.000 64.880 C493.040 64.880 492.900 63.320 492.830 62.620 L499.150 62.620 L499.150 62.190 C499.150 57.980 496.640 57.110 494.820 57.110 M492.900 61.050 C493.040 59.830 493.640 59.100 494.790 59.100 C495.570 59.100 496.520 59.560 496.660 61.050 L492.900 61.050 "/>
 </g>
</svg>
