<?xml version="1.0" encoding="UTF-8"?>
<svg height="701.9" width="4137.4" xmlns="http://www.w3.org/2000/svg">
 <g id="page" xmlns:svgx="http://www.xml-cml.org/schema/svgx">
  <g begin="text">
   <text y="332.18" x="467.94" svgx:width="0.28" style="fill:rgb(0,0,0);font-family:ArialMT;font-size:10.02px;stroke:none;"> </text>
  </g>
  <g begin="text">
   <text y="348.68" x="54.0,60.122,62.908,69.03,75.122,79.02,84.591,87.377,94.02" svgx:width="0.61,0.28,0.61,0.61,0.39,0.56,0.28,0.67,0.56" style="fill:rgb(0,0,0);font-family:Arial-BoldMT;font-size:10.02px;stroke:none;">Figure S1</text>
  </g>
  <g begin="text">
   <text y="348.68" x="99.62" svgx:width="0.56" style="fill:rgb(0,0,0);font-family:Arial-BoldMT;font-size:10.02px;stroke:none;">7</text>
  </g>
  <g begin="text">
   <text y="348.68" x="105.2" svgx:width="0.28" style="fill:rgb(0,0,0);font-family:Arial-BoldMT;font-size:10.02px;stroke:none;">.</text>
  </g>
  <g begin="text">
   <text y="348.68" x="107.96" svgx:width="0.28" style="fill:rgb(0,0,0);font-family:ArialMT;font-size:10.02px;stroke:none;"> </text>
  </g>
  <g begin="text">
   <text y="348.68" x="110.66,117.343,124.578,131.812,134.538,140.109,143.445,149.017,151.762,153.986,156.211,161.782,164.477,170.049,172.834,175.519,178.305,183.876,189.447,192.143,197.153,202.754,208.325,213.896,216.12" svgx:width="0.67,0.72,0.72,0.28,0.56,0.33,0.56,0.28,0.22,0.22,0.56,0.28,0.56,0.28,0.28,0.28,0.56,0.56,0.28,0.5,0.56,0.56,0.56,0.22,0.28" style="fill:rgb(0,0,0);font-family:ArialMT;font-size:10.02px;stroke:none;">XRD profile of the cobalt</text>
  </g>
  <g begin="text">
   <text y="348.68" x="218.9" svgx:width="0.33" style="fill:rgb(0,0,0);font-family:ArialMT;font-size:10.02px;stroke:none;">-</text>
  </g>
  <g begin="text">
   <text y="348.68" x="222.26,230.537,236.108,241.679,243.903,246.689,248.913,254.484,260.055" svgx:width="0.83,0.56,0.56,0.22,0.28,0.22,0.56,0.56,0.28" style="fill:rgb(0,0,0);font-family:ArialMT;font-size:10.02px;stroke:none;">modified </text>
  </g>
  <g begin="text">
   <text y="348.68" x="262.78" svgx:width="0.56" style="fill:rgb(0,0,0);font-family:ArialMT;font-size:10.02px;stroke:none;">δ</text>
  </g>
  <g begin="text">
   <text y="348.68" x="268.36" svgx:width="0.33" style="fill:rgb(0,0,0);font-family:ArialMT;font-size:10.02px;stroke:none;">-</text>
  </g>
  <g begin="text">
   <text y="348.68" x="271.72,280.067,285.578" svgx:width="0.83,0.56,0.78" style="fill:rgb(0,0,0);font-family:ArialMT;font-size:10.02px;stroke:none;">MnO</text>
  </g>
  <g begin="text">
   <text y="349.16" x="293.38" svgx:width="0.56" style="fill:rgb(0,0,0);font-family:ArialMT;font-size:6.48px;stroke:none;">2</text>
  </g>
  <g begin="text">
   <text y="348.68" x="296.98" svgx:width="0.28" style="fill:rgb(0,0,0);font-family:ArialMT;font-size:10.02px;stroke:none;"> </text>
  </g>
  <g begin="text">
   <text y="348.68" x="299.68,304.69,310.291,313.077,318.648,324.219,329.79,335.361,338.067,343.638,346.343,349.129,354.7,358.036,360.742,363.527,365.752,369.088,374.098,376.884,379.579,385.15,387.375,392.405,397.415,402.906,408.477,411.834,417.405,422.976,425.691,428.477,434.048,436.733,442.304,445.09,450.661,453.356,459.118" svgx:width="0.5,0.56,0.28,0.56,0.56,0.56,0.56,0.28,0.56,0.28,0.28,0.56,0.33,0.28,0.28,0.22,0.33,0.5,0.28,0.28,0.56,0.22,0.5,0.5,0.56,0.56,0.33,0.56,0.56,0.28,0.28,0.56,0.28,0.56,0.28,0.56,0.28,0.67,0.28" style="fill:rgb(0,0,0);font-family:ArialMT;font-size:10.02px;stroke:none;">cathode after first discharge to 1.0 V.</text>
  </g>
  <g begin="text">
   <text y="348.68" x="461.94" svgx:width="0.28" style="fill:rgb(0,0,0);font-family:ArialMT;font-size:10.02px;stroke:none;"> </text>
  </g>
  <g begin="text">
   <text y="348.68" x="464.64,471.874,477.466,479.69,485.261,488.047,493.618,499.189,501.884,504.67,510.241,512.926,519.048,521.273,526.844,532.415,535.772,541.343" svgx:width="0.72,0.56,0.22,0.56,0.28,0.56,0.56,0.28,0.28,0.56,0.28,0.61,0.22,0.56,0.56,0.33,0.56,0.28" style="fill:rgb(0,0,0);font-family:ArialMT;font-size:10.02px;stroke:none;">Related to Figure </text>
  </g>
  <g begin="text">
   <text y="364.28" x="54.0,59.58" svgx:width="0.56,0.28" style="fill:rgb(0,0,0);font-family:ArialMT;font-size:10.02px;stroke:none;">6.</text>
  </g>
  <g begin="text">
   <text y="364.28" x="62.34" svgx:width="0.28" style="fill:rgb(0,0,0);font-family:ArialMT;font-size:10.02px;stroke:none;"> </text>
  </g>
  <g begin="text">
   <text y="379.88" x="54.0" svgx:width="0.28" style="fill:rgb(0,0,0);font-family:ArialMT;font-size:10.02px;stroke:none;"> </text>
  </g>
  <g begin="text">
   <text y="395.48" x="54.0" svgx:width="0.28" style="fill:rgb(0,0,0);font-family:ArialMT;font-size:10.02px;stroke:none;"> </text>
  </g>
  <g begin="text">
   <text y="649.12" x="524.46" svgx:width="0.28" style="fill:rgb(0,0,0);font-family:ArialMT;font-size:10.02px;stroke:none;"> </text>
  </g>
  <g begin="text">
   <text y="660.7" x="54.0,60.122,62.908,69.03,75.122,79.02,84.591,87.377" svgx:width="0.61,0.28,0.61,0.61,0.39,0.56,0.28,0.67" style="fill:rgb(0,0,0);font-family:Arial-BoldMT;font-size:10.02px;stroke:none;">Figure S</text>
  </g>
  <g begin="text">
   <text y="660.7" x="94.04" svgx:width="0.56" style="fill:rgb(0,0,0);font-family:Arial-BoldMT;font-size:10.02px;stroke:none;">1</text>
  </g>
  <g begin="text">
   <text y="660.7" x="99.62" svgx:width="0.56" style="fill:rgb(0,0,0);font-family:Arial-BoldMT;font-size:10.02px;stroke:none;">8</text>
  </g>
  <g begin="text">
   <text y="660.7" x="105.2" svgx:width="0.28" style="fill:rgb(0,0,0);font-family:Arial-BoldMT;font-size:10.02px;stroke:none;">.</text>
  </g>
  <g begin="text">
   <text y="660.7" x="107.96" svgx:width="0.28" style="fill:rgb(0,0,0);font-family:ArialMT;font-size:10.02px;stroke:none;"> </text>
  </g>
  <g begin="text">
   <text y="660.7" x="110.72,119.067,124.638,127.974,133.546,139.117,144.688,146.912,152.423,157.994,163.034" svgx:width="0.83,0.56,0.33,0.56,0.56,0.56,0.22,0.56,0.56,0.5,0.28" style="fill:rgb(0,0,0);font-family:ArialMT;font-size:10.02px;stroke:none;">Morphology </text>
  </g>
  <g begin="text">
   <text y="660.7" x="165.8,171.321,176.331,181.932,184.157,189.728,192.513,194.738,200.229,205.8,208.585,214.157,219.668,224.678,230.249,233.585,238.615,244.136,249.707,252.493,259.727,261.952,264.737" svgx:width="0.56,0.5,0.56,0.22,0.56,0.28,0.22,0.56,0.56,0.28,0.56,0.56,0.5,0.56,0.33,0.5,0.56,0.56,0.28,0.72,0.22,0.28,0.56" style="fill:rgb(0,0,0);font-family:ArialMT;font-size:10.02px;stroke:none;">evolution observed with</text>
  </g>
  <g begin="text">
   <text y="660.7" x="270.34" svgx:width="0.28" style="fill:rgb(0,0,0);font-family:ArialMT;font-size:10.02px;stroke:none;"> </text>
  </g>
  <g begin="text">
   <text y="660.7" x="273.1,279.783,286.417,294.763,297.519,299.743,308.09,313.661,319.232,324.763,329.773,332.559,338.13,340.915" svgx:width="0.67,0.67,0.83,0.28,0.22,0.83,0.56,0.56,0.56,0.5,0.28,0.56,0.28,0.28" style="fill:rgb(0,0,0);font-family:ArialMT;font-size:10.02px;stroke:none;">SEM images of </text>
  </g>
  <g begin="text">
   <text y="660.7" x="343.66" svgx:width="0.5" style="fill:rgb(0,0,0);font-family:ArialMT;font-size:10.02px;stroke:none;">c</text>
  </g>
  <g begin="text">
   <text y="660.7" x="348.7,354.271,359.802,365.373,367.598" svgx:width="0.56,0.56,0.56,0.22,0.28" style="fill:rgb(0,0,0);font-family:ArialMT;font-size:10.02px;stroke:none;">obalt</text>
  </g>
  <g begin="text">
   <text y="660.7" x="370.36" svgx:width="0.33" style="fill:rgb(0,0,0);font-family:ArialMT;font-size:10.02px;stroke:none;">-</text>
  </g>
  <g begin="text">
   <text y="660.7" x="373.72,382.067,387.578,393.149,395.373,398.159,400.383,405.954,411.525" svgx:width="0.83,0.56,0.56,0.22,0.28,0.22,0.56,0.56,0.28" style="fill:rgb(0,0,0);font-family:ArialMT;font-size:10.02px;stroke:none;">modified </text>
  </g>
  <g begin="text">
   <text y="660.7" x="414.3" svgx:width="0.56" style="fill:rgb(0,0,0);font-family:ArialMT;font-size:10.02px;stroke:none;">δ</text>
  </g>
  <g begin="text">
   <text y="660.7" x="419.88" svgx:width="0.33" style="fill:rgb(0,0,0);font-family:ArialMT;font-size:10.02px;stroke:none;">-</text>
  </g>
  <g begin="text">
   <text y="660.7" x="423.24,431.517,437.088" svgx:width="0.83,0.56,0.78" style="fill:rgb(0,0,0);font-family:ArialMT;font-size:10.02px;stroke:none;">MnO</text>
  </g>
  <g begin="text">
   <text y="661.18" x="444.9" svgx:width="0.56" style="fill:rgb(0,0,0);font-family:ArialMT;font-size:6.48px;stroke:none;">2</text>
  </g>
  <g begin="text">
   <text y="660.7" x="448.5" svgx:width="0.28" style="fill:rgb(0,0,0);font-family:ArialMT;font-size:10.02px;stroke:none;"> </text>
  </g>
  <g begin="text">
   <text y="660.7" x="451.26,456.27,461.841,464.577,470.148,475.719,481.29,486.891,489.677,492.953,497.963,503.534,509.105,514.616,520.188,525.228,528.013,530.238,535.188,540.759" svgx:width="0.5,0.56,0.28,0.56,0.56,0.56,0.56,0.28,0.33,0.5,0.56,0.56,0.56,0.56,0.5,0.28,0.22,0.5,0.56,0.28" style="fill:rgb(0,0,0);font-family:ArialMT;font-size:10.02px;stroke:none;">cathode (conductive </text>
  </g>
  <g begin="text">
   <text y="676.3" x="54.0,59.01,64.611,67.908,73.479,79.05,84.621,87.407,92.928,98.499,104.07,106.856,112.427,114.591,120.162,125.733,131.304,134.681,137.376,142.386,147.988,153.559,156.344,161.915,164.07,169.641,175.172,180.743,184.1,186.885" svgx:width="0.5,0.56,0.33,0.56,0.56,0.56,0.28,0.56,0.56,0.56,0.28,0.56,0.22,0.56,0.56,0.56,0.33,0.28,0.5,0.56,0.56,0.28,0.56,0.22,0.56,0.56,0.56,0.33,0.28,0.56" style="fill:rgb(0,0,0);font-family:ArialMT;font-size:10.02px;stroke:none;">carbon and binder contained) a</text>
  </g>
  <g begin="text">
   <text y="676.3" x="192.5" svgx:width="0.33" style="fill:rgb(0,0,0);font-family:ArialMT;font-size:10.02px;stroke:none;">-</text>
  </g>
  <g begin="text">
   <text y="676.3" x="195.8,201.371,204.728,207.513,213.084,218.656,221.411,226.932,230.269,235.84,238.575,243.585,248.595,253.605,255.83,258.054,263.625,269.227,272.012,277.503,283.074,288.645,291.431" svgx:width="0.56,0.33,0.28,0.56,0.56,0.28,0.56,0.33,0.56,0.28,0.5,0.5,0.5,0.22,0.22,0.56,0.56,0.28,0.56,0.56,0.56,0.28,0.5" style="fill:rgb(0,0,0);font-family:ArialMT;font-size:10.02px;stroke:none;">b) before cycling and c</text>
  </g>
  <g begin="text">
   <text y="676.3" x="296.44" svgx:width="0.33" style="fill:rgb(0,0,0);font-family:ArialMT;font-size:10.02px;stroke:none;">-</text>
  </g>
  <g begin="text">
   <text y="676.3" x="299.8,305.371,308.728,311.513,317.084,319.83,322.616,328.106,331.443,334.229,339.8,345.371,350.942,353.667,358.677,363.687,368.697,370.922,376.493" svgx:width="0.56,0.33,0.28,0.56,0.28,0.28,0.56,0.33,0.28,0.56,0.56,0.56,0.28,0.5,0.5,0.5,0.22,0.56,0.5" style="fill:rgb(0,0,0);font-family:ArialMT;font-size:10.02px;stroke:none;">e) after 100 cycles</text>
  </g>
  <g begin="text">
   <text y="676.3" x="381.52" svgx:width="0.28" style="fill:rgb(0,0,0);font-family:ArialMT;font-size:10.02px;stroke:none;">.</text>
  </g>
  <g begin="text">
   <text y="676.3" x="384.28" svgx:width="0.28" style="fill:rgb(0,0,0);font-family:ArialMT;font-size:10.02px;stroke:none;"> </text>
  </g>
  <g begin="text">
   <text y="676.3" x="387.04,394.274,399.866,402.03,407.601,410.387,415.958,421.529,424.314,427.05,432.621,435.406,441.529,443.753,449.324,454.895,458.192,463.763,466.549,472.12" svgx:width="0.72,0.56,0.22,0.56,0.28,0.56,0.56,0.28,0.28,0.56,0.28,0.61,0.22,0.56,0.56,0.33,0.56,0.28,0.56,0.28" style="fill:rgb(0,0,0);font-family:ArialMT;font-size:10.02px;stroke:none;">Related to Figure 6.</text>
  </g>
  <g begin="text">
   <text y="676.3" x="474.9" svgx:width="0.28" style="fill:rgb(0,0,0);font-family:ArialMT;font-size:10.02px;stroke:none;"> </text>
  </g>
  <g begin="text">
   <text y="691.9" x="54.0" svgx:width="0.28" style="fill:rgb(0,0,0);font-family:ArialMT;font-size:10.02px;stroke:none;"> </text>
  </g>
  <g begin="text">
   <text y="691.9" x="198.02" svgx:width="0.28" style="fill:rgb(0,0,0);font-family:ArialMT;font-size:10.02px;stroke:none;"> </text>
  </g>
  <rect style="stroke:blue;stroke-width:0.3;" x="127.4" y="35.1" height="255.15" width="340.13" title="26"/>
  <text y="35.1" class="image" id="image.26.1" width="340" height="255" x="127.4">image.26.1.127_468.35_290</text>
  <rect style="stroke:blue;stroke-width:0.3;" x="70.9" y="357.83" height="249.3" width="453.47" title="26"/>
  <text y="357.83" class="image" id="image.26.2" width="453" height="249" x="70.9">image.26.2.71_524.358_607</text>
 </g>
</svg>
