<?xml version="1.0" encoding="UTF-8"?>
<svg height="764.32" width="4137.4" xmlns="http://www.w3.org/2000/svg">
 <g id="page" xmlns:svgx="http://www.xml-cml.org/schema/svgx">
  <g begin="text">
   <text y="334.7" x="467.94" svgx:width="0.28" style="fill:rgb(0,0,0);font-family:ArialMT;font-size:10.02px;stroke:none;"> </text>
  </g>
  <g begin="text">
   <text y="348.68" x="54.0,60.122,62.908,69.03,75.122,79.02,84.591,87.417,94.1,99.12" svgx:width="0.61,0.28,0.61,0.61,0.39,0.56,0.28,0.67,0.56,0.56" style="fill:rgb(0,0,0);font-family:Arial-BoldMT;font-size:10.02px;stroke:none;">Figure S11</text>
  </g>
  <g begin="text">
   <text y="348.68" x="104.72" svgx:width="0.28" style="fill:rgb(0,0,0);font-family:Arial-BoldMT;font-size:10.02px;stroke:none;">.</text>
  </g>
  <g begin="text">
   <text y="348.68" x="107.48" svgx:width="0.28" style="fill:rgb(0,0,0);font-family:Arial-BoldMT;font-size:10.02px;stroke:none;"> </text>
  </g>
  <g begin="text">
   <text y="348.68" x="110.3,116.983,124.218,131.452,134.288,139.809,143.146,148.737,151.522,153.747,155.941,161.462,166.472,169.308,174.879,177.664,180.45,183.236,188.807,194.378,197.193,203.877" svgx:width="0.67,0.72,0.72,0.28,0.56,0.33,0.56,0.28,0.22,0.22,0.56,0.5,0.28,0.56,0.28,0.28,0.28,0.56,0.56,0.28,0.67,0.67" style="fill:rgb(0,0,0);font-family:ArialMT;font-size:10.02px;stroke:none;">XRD profiles of the SS</text>
  </g>
  <g begin="text">
   <text y="348.68" x="210.56" svgx:width="0.33" style="fill:rgb(0,0,0);font-family:ArialMT;font-size:10.02px;stroke:none;">-</text>
  </g>
  <g begin="text">
   <text y="348.68" x="213.92,221.154,226.746,230.042,237.838,245.072" svgx:width="0.72,0.56,0.33,0.78,0.72,0.33" style="fill:rgb(0,0,0);font-family:ArialMT;font-size:10.02px;stroke:none;">Co(OH)</text>
  </g>
  <g begin="text">
   <text y="349.16" x="248.44" svgx:width="0.56" style="fill:rgb(0,0,0);font-family:ArialMT;font-size:6.48px;stroke:none;">2</text>
  </g>
  <g begin="text">
   <text y="348.68" x="252.04" svgx:width="0.28" style="fill:rgb(0,0,0);font-family:ArialMT;font-size:10.02px;stroke:none;"> </text>
  </g>
  <g begin="text">
   <text y="348.68" x="254.86,260.431,262.656,268.227,273.267,276.052,279.329,284.9,290.431,296.002,298.818,304.389,307.174,309.96,312.745,318.317,323.888,326.703,328.928,334.499,336.723,339.509,341.733,347.304,349.529,352.314,357.354,360.14,365.711,368.457,374.028,376.843,382.414,387.985,393.557,396.392,401.963,404.749,407.494,413.065,416.422,419.228,422.013,427.584,433.156,435.941,441.542,448.226,454.859,457.664,462.674,467.624,473.195,478.767,481.592,484.378,489.949,492.734,498.306,501.091,506.662,512.233,515.059,521.742,524.528,530.099,535.67,541.241" svgx:width="0.56,0.22,0.56,0.5,0.28,0.33,0.56,0.56,0.56,0.28,0.56,0.28,0.28,0.28,0.56,0.56,0.28,0.22,0.56,0.22,0.28,0.22,0.56,0.22,0.28,0.5,0.28,0.56,0.28,0.56,0.28,0.56,0.56,0.56,0.28,0.56,0.28,0.28,0.56,0.33,0.28,0.28,0.56,0.56,0.28,0.56,0.67,0.67,0.28,0.5,0.5,0.56,0.56,0.28,0.28,0.56,0.28,0.56,0.28,0.56,0.56,0.28,0.67,0.28,0.56,0.56,0.56,0.28" style="fill:rgb(0,0,0);font-family:ArialMT;font-size:10.02px;stroke:none;">electrode at the initial state and after the LSV scan to 1.85 V and </text>
  </g>
  <g begin="text">
   <text y="364.28" x="54.0,59.571,62.357,67.928,70.503,76.264,79.05" svgx:width="0.56,0.28,0.56,0.28,0.67,0.28,0.28" style="fill:rgb(0,0,0);font-family:ArialMT;font-size:10.02px;stroke:none;">2.3 V. </text>
  </g>
  <g begin="text">
   <text y="364.28" x="81.62,88.854,94.446,97.231,102.802,108.373,110.949,113.734,119.305,124.876,127.632,130.207" svgx:width="0.72,0.56,0.28,0.56,0.56,0.28,0.28,0.56,0.56,0.28,0.28,0.28" style="fill:rgb(0,0,0);font-family:ArialMT;font-size:10.02px;stroke:none;">Noted that t</text>
  </g>
  <g begin="text">
   <text y="364.28" x="132.98,138.551,141.136,146.707,152.279,155.064,160.635,162.86,168.431,171.016,176.587,179.172,184.743,188.1,193.671,199.242,202.028,207.539,210.875,213.481,219.052,227.338,232.909,238.481,244.052,246.837,249.422,254.994,257.779,260.344,263.13,268.701,274.272,276.847,285.194,290.765,293.55,299.122,302.458,304.683,310.254,312.428" svgx:width="0.56,0.28,0.56,0.56,0.28,0.56,0.22,0.56,0.28,0.56,0.28,0.56,0.33,0.56,0.56,0.28,0.56,0.33,0.28,0.56,0.83,0.56,0.56,0.56,0.28,0.28,0.56,0.28,0.28,0.28,0.56,0.56,0.28,0.83,0.56,0.28,0.56,0.33,0.22,0.56,0.22,0.5" style="fill:rgb(0,0,0);font-family:ArialMT;font-size:10.02px;stroke:none;">o obtain a greater amount of the materials</text>
  </g>
  <g begin="text">
   <text y="364.28" x="317.5" svgx:width="0.28" style="fill:rgb(0,0,0);font-family:ArialMT;font-size:10.02px;stroke:none;"> </text>
  </g>
  <g begin="text">
   <text y="364.28" x="320.08,322.866,328.437,331.773,334.358,336.583,342.154,347.725,353.296,356.082,358.306,363.316,368.907,371.132,373.707,380.39,387.565,394.799,397.404,402.414,404.609,410.18,415.751,421.322" svgx:width="0.28,0.56,0.33,0.28,0.22,0.56,0.56,0.56,0.28,0.22,0.5,0.56,0.22,0.28,0.67,0.72,0.72,0.28,0.5,0.22,0.56,0.56,0.56,0.22" style="fill:rgb(0,0,0);font-family:ArialMT;font-size:10.02px;stroke:none;">for identical XRD signal</text>
  </g>
  <g begin="text">
   <text y="364.28" x="423.6,426.386,428.941,431.726,437.297,442.868,445.444,451.015,454.371" svgx:width="0.28,0.28,0.28,0.56,0.56,0.28,0.56,0.33,0.56" style="fill:rgb(0,0,0);font-family:ArialMT;font-size:10.02px;stroke:none;">, the pre</text>
  </g>
  <g begin="text">
   <text y="364.28" x="459.96" svgx:width="0.33" style="fill:rgb(0,0,0);font-family:ArialMT;font-size:10.02px;stroke:none;">-</text>
  </g>
  <g begin="text">
   <text y="364.28" x="463.26,468.831,474.402,479.973,485.544,490.554,492.779,495.564,497.789,503.36,508.931,511.496,514.282,516.506,524.813,530.384,532.969,538.54,541.356" svgx:width="0.56,0.56,0.56,0.56,0.5,0.22,0.28,0.22,0.56,0.56,0.28,0.28,0.22,0.83,0.56,0.28,0.56,0.28,0.28" style="fill:rgb(0,0,0);font-family:ArialMT;font-size:10.02px;stroke:none;">deposition time of </text>
  </g>
  <g begin="text">
   <text y="379.88" x="54.0,56.786,62.357,67.928,71.395,78.629,84.22,87.557,95.322,102.527" svgx:width="0.28,0.56,0.56,0.28,0.72,0.56,0.33,0.78,0.72,0.33" style="fill:rgb(0,0,0);font-family:ArialMT;font-size:10.02px;stroke:none;">the Co(OH)</text>
  </g>
  <g begin="text">
   <text y="380.36" x="105.92" svgx:width="0.56" style="fill:rgb(0,0,0);font-family:ArialMT;font-size:6.48px;stroke:none;">2</text>
  </g>
  <g begin="text">
   <text y="379.88" x="109.52" svgx:width="0.28" style="fill:rgb(0,0,0);font-family:ArialMT;font-size:10.02px;stroke:none;"> </text>
  </g>
  <g begin="text">
   <text y="379.88" x="113.0,120.234,125.806,130.816,134.292,137.078,140.415,142.639,148.21,150.435,156.006,161.577,165.064,168.401,173.972,179.543,185.114,188.571,193.581,196.958,199.743,203.19,208.761,214.332,219.903,223.4,228.41,230.605,236.176,243.43,248.951,252.288,255.785,261.356,268.039,274.683,278.15,283.16,288.17,293.741,299.312,302.799,306.135,311.727,314.512,320.083,323.54,330.775,336.346,341.356,344.833,350.404,353.189,355.414,357.638,359.863,364.873,370.444,376.015,379.502" svgx:width="0.72,0.56,0.5,0.28,0.28,0.33,0.22,0.56,0.22,0.56,0.56,0.28,0.33,0.56,0.56,0.56,0.28,0.5,0.33,0.28,0.28,0.56,0.56,0.56,0.28,0.5,0.22,0.56,0.72,0.56,0.33,0.28,0.56,0.67,0.67,0.28,0.5,0.5,0.56,0.56,0.28,0.33,0.56,0.28,0.56,0.28,0.72,0.56,0.5,0.28,0.56,0.28,0.22,0.22,0.22,0.5,0.56,0.56,0.28,0.33" style="fill:rgb(0,0,0);font-family:ArialMT;font-size:10.02px;stroke:none;">was tripled (180 s), and slower LSV scan rate was utilized (</text>
  </g>
  <g begin="text">
   <text y="379.88" x="383.02,388.591,391.377,396.948,400.355,408.701,415.385,418.821" svgx:width="0.56,0.28,0.56,0.28,0.83,0.67,0.28,0.5" style="fill:rgb(0,0,0);font-family:ArialMT;font-size:10.02px;stroke:none;">0.2 mV s</text>
  </g>
  <g begin="text">
   <text y="376.4" x="423.9" svgx:width="0.33" style="fill:rgb(0,0,0);font-family:ArialMT;font-size:6.48px;stroke:none;">-</text>
  </g>
  <g begin="text">
   <text y="376.4" x="426.06" svgx:width="0.56" style="fill:rgb(0,0,0);font-family:ArialMT;font-size:6.48px;stroke:none;">1</text>
  </g>
  <g begin="text">
   <text y="379.88" x="429.66,433.02" svgx:width="0.33,0.28" style="fill:rgb(0,0,0);font-family:ArialMT;font-size:10.02px;stroke:none;">).</text>
  </g>
  <g begin="text">
   <text y="379.88" x="435.78" svgx:width="0.28" style="fill:rgb(0,0,0);font-family:ArialMT;font-size:10.02px;stroke:none;"> </text>
  </g>
  <g begin="text">
   <text y="379.88" x="439.26,445.382,450.953,456.524,460.072,466.755,473.989,481.224,484.721,490.292,493.649,499.22,502.005,504.23,506.454,512.025,515.482,521.003,523.789,527.236,530.041,535.672,541.304" svgx:width="0.61,0.56,0.56,0.28,0.67,0.72,0.72,0.28,0.56,0.33,0.56,0.28,0.22,0.22,0.56,0.28,0.56,0.28,0.28,0.28,0.56,0.56,0.28" style="fill:rgb(0,0,0);font-family:ArialMT;font-size:10.02px;stroke:none;">The XRD profile of the </text>
  </g>
  <g begin="text">
   <text y="395.48" x="54.0,59.01,64.611,70.132,75.703,77.928" svgx:width="0.5,0.56,0.56,0.56,0.22,0.28" style="fill:rgb(0,0,0);font-family:ArialMT;font-size:10.02px;stroke:none;">cobalt</text>
  </g>
  <g begin="text">
   <text y="395.48" x="80.72" svgx:width="0.33" style="fill:rgb(0,0,0);font-family:ArialMT;font-size:10.02px;stroke:none;">-</text>
  </g>
  <g begin="text">
   <text y="395.48" x="84.08,92.427,97.938,103.509,105.733,108.519,110.743,116.314,121.885" svgx:width="0.83,0.56,0.56,0.22,0.28,0.22,0.56,0.56,0.28" style="fill:rgb(0,0,0);font-family:ArialMT;font-size:10.02px;stroke:none;">modified </text>
  </g>
  <g begin="text">
   <text y="395.48" x="124.64" svgx:width="0.56" style="fill:rgb(0,0,0);font-family:ArialMT;font-size:10.02px;stroke:none;">δ</text>
  </g>
  <g begin="text">
   <text y="395.48" x="130.22" svgx:width="0.33" style="fill:rgb(0,0,0);font-family:ArialMT;font-size:10.02px;stroke:none;">-</text>
  </g>
  <g begin="text">
   <text y="395.48" x="133.58,141.857,147.428" svgx:width="0.83,0.56,0.78" style="fill:rgb(0,0,0);font-family:ArialMT;font-size:10.02px;stroke:none;">MnO</text>
  </g>
  <g begin="text">
   <text y="395.96" x="155.24" svgx:width="0.56" style="fill:rgb(0,0,0);font-family:ArialMT;font-size:6.48px;stroke:none;">2</text>
  </g>
  <g begin="text">
   <text y="395.48" x="158.84" svgx:width="0.28" style="fill:rgb(0,0,0);font-family:ArialMT;font-size:10.02px;stroke:none;"> </text>
  </g>
  <g begin="text">
   <text y="395.48" x="161.6,167.121,172.692,179.947,185.468,191.039,194.395,197.181,202.131,207.702,216.049,221.62,223.794,229.365,232.151,234.375,239.385,242.171,247.742,249.966,254.936,260.507,263.293,268.864,272.201,277.732,282.742,288.313,293.884,296.629,302.201,307.772,310.557,313.313,318.884,322.241,324.936,329.946,335.547,343.824,349.395,354.966,358.333,360.497,365.507,371.108,376.679" svgx:width="0.56,0.56,0.72,0.56,0.56,0.33,0.28,0.5,0.56,0.83,0.56,0.22,0.56,0.28,0.22,0.5,0.28,0.56,0.22,0.5,0.56,0.28,0.56,0.33,0.56,0.5,0.56,0.56,0.28,0.56,0.56,0.28,0.28,0.56,0.33,0.28,0.5,0.56,0.83,0.56,0.56,0.33,0.22,0.5,0.56,0.56,0.28" style="fill:rgb(0,0,0);font-family:ArialMT;font-size:10.02px;stroke:none;">powder sample is also presented for comparison.</text>
  </g>
  <g begin="text">
   <text y="395.48" x="379.54" svgx:width="0.28" style="fill:rgb(0,0,0);font-family:ArialMT;font-size:10.02px;stroke:none;"> </text>
  </g>
  <g begin="text">
   <text y="395.48" x="382.3,389.504,395.075,397.3,402.821,405.606,411.178,416.749,419.504,422.29,427.861,430.606,436.729,438.953,444.524,450.095,453.452,459.023,461.728,467.299" svgx:width="0.72,0.56,0.22,0.56,0.28,0.56,0.56,0.28,0.28,0.56,0.28,0.61,0.22,0.56,0.56,0.33,0.56,0.28,0.56,0.67" style="fill:rgb(0,0,0);font-family:ArialMT;font-size:10.02px;stroke:none;">Related to Figure 4B</text>
  </g>
  <g begin="text">
   <text y="395.48" x="474.0" svgx:width="0.33" style="fill:rgb(0,0,0);font-family:ArialMT;font-size:10.02px;stroke:none;">-</text>
  </g>
  <g begin="text">
   <text y="395.48" x="477.36,484.62" svgx:width="0.72,0.28" style="fill:rgb(0,0,0);font-family:ArialMT;font-size:10.02px;stroke:none;">D.</text>
  </g>
  <g begin="text">
   <text y="395.48" x="487.32" svgx:width="0.28" style="fill:rgb(0,0,0);font-family:ArialMT;font-size:10.02px;stroke:none;"> </text>
  </g>
  <g begin="text">
   <text y="411.08" x="54.0" svgx:width="0.28" style="fill:rgb(0,0,0);font-family:ArialMT;font-size:10.02px;stroke:none;"> </text>
  </g>
  <g begin="text">
   <text y="675.46" x="467.94" svgx:width="0.28" style="fill:rgb(0,0,0);font-family:ArialMT;font-size:10.02px;stroke:none;"> </text>
  </g>
  <g begin="text">
   <text y="691.9" x="54.0,60.122,62.908,69.03,75.122,79.02,84.591,87.377" svgx:width="0.61,0.28,0.61,0.61,0.39,0.56,0.28,0.67" style="fill:rgb(0,0,0);font-family:Arial-BoldMT;font-size:10.02px;stroke:none;">Figure S</text>
  </g>
  <g begin="text">
   <text y="691.9" x="94.04" svgx:width="0.56" style="fill:rgb(0,0,0);font-family:Arial-BoldMT;font-size:10.02px;stroke:none;">1</text>
  </g>
  <g begin="text">
   <text y="691.9" x="99.62" svgx:width="0.56" style="fill:rgb(0,0,0);font-family:Arial-BoldMT;font-size:10.02px;stroke:none;">2</text>
  </g>
  <g begin="text">
   <text y="691.9" x="105.2" svgx:width="0.28" style="fill:rgb(0,0,0);font-family:Arial-BoldMT;font-size:10.02px;stroke:none;">.</text>
  </g>
  <g begin="text">
   <text y="691.9" x="107.96" svgx:width="0.28" style="fill:rgb(0,0,0);font-family:ArialMT;font-size:10.02px;stroke:none;"> </text>
  </g>
  <g begin="text">
   <text y="691.9" x="110.72,117.954,123.546,131.892,137.403,142.974,146.331,148.495,153.505,159.077,164.648,167.393,172.964,175.75,178.495,184.066,190.75,197.393,200.179,205.75,209.086,214.657,217.443,219.667,221.892,227.463,232.473,235.259,238.595,244.166,249.737,254.747,256.972,259.757,261.982,266.932,272.503,275.288,280.248,287.453,293.024,298.595,304.166,306.952,309.737,315.308,318.054,326.4,333.084,335.809" svgx:width="0.72,0.56,0.83,0.56,0.56,0.33,0.22,0.5,0.56,0.56,0.28,0.56,0.28,0.28,0.56,0.67,0.67,0.28,0.56,0.33,0.56,0.28,0.22,0.22,0.56,0.5,0.28,0.33,0.56,0.56,0.5,0.22,0.28,0.22,0.5,0.56,0.28,0.5,0.72,0.56,0.56,0.56,0.28,0.28,0.56,0.28,0.83,0.67,0.28,0.5" style="fill:rgb(0,0,0);font-family:ArialMT;font-size:10.02px;stroke:none;">Comparison of LSV profiles (positive sweep, 1 mV s</text>
  </g>
  <g begin="text">
   <text y="688.42" x="340.9" svgx:width="0.33" style="fill:rgb(0,0,0);font-family:ArialMT;font-size:6.48px;stroke:none;">-</text>
  </g>
  <g begin="text">
   <text y="688.42" x="343.06" svgx:width="0.56" style="fill:rgb(0,0,0);font-family:ArialMT;font-size:6.48px;stroke:none;">1</text>
  </g>
  <g begin="text">
   <text y="691.9" x="346.66,349.997,352.782,358.353,361.139,363.884,369.455,372.241,377.251,380.037,385.608,387.832,393.403,395.628,401.149,406.159,411.169,413.954,418.964,421.75,427.321,432.892,435.116,437.812,441.148,447.832,454.515,457.852,460.637,462.862,468.433,471.168,476.739,485.086,487.872,493.994,499.565,506.208" svgx:width="0.33,0.28,0.56,0.28,0.28,0.56,0.28,0.5,0.28,0.56,0.22,0.56,0.22,0.56,0.5,0.5,0.28,0.5,0.28,0.56,0.56,0.22,0.28,0.33,0.67,0.67,0.33,0.28,0.22,0.56,0.28,0.56,0.83,0.28,0.61,0.56,0.67,0.78" style="fill:rgb(0,0,0);font-family:ArialMT;font-size:10.02px;stroke:none;">) of a stainless steel (SS) in 2M ZnSO</text>
  </g>
  <g begin="text">
   <text y="692.4" x="514.02" svgx:width="0.56" style="fill:rgb(0,0,0);font-family:ArialMT;font-size:6.48px;stroke:none;">4</text>
  </g>
  <g begin="text">
   <text y="691.9" x="517.62" svgx:width="0.28" style="fill:rgb(0,0,0);font-family:ArialMT;font-size:10.02px;stroke:none;"> </text>
  </g>
  <g begin="text">
   <text y="691.9" x="520.38,526.26" svgx:width="0.58,0.28" style="fill:rgb(0,0,0);font-family:ArialMT;font-size:10.02px;stroke:none;">+ </text>
  </g>
  <g begin="text">
   <text y="707.52" x="54.0,59.571,62.357,67.928,76.274,79.02,87.367,92.938,99.621" svgx:width="0.56,0.28,0.56,0.83,0.28,0.83,0.56,0.67,0.78" style="fill:rgb(0,0,0);font-family:ArialMT;font-size:10.02px;stroke:none;">0.2M MnSO</text>
  </g>
  <g begin="text">
   <text y="708.0" x="107.42" svgx:width="0.56" style="fill:rgb(0,0,0);font-family:ArialMT;font-size:6.48px;stroke:none;">4</text>
  </g>
  <g begin="text">
   <text y="707.52" x="111.02" svgx:width="0.28" style="fill:rgb(0,0,0);font-family:ArialMT;font-size:10.02px;stroke:none;"> </text>
  </g>
  <g begin="text">
   <text y="707.52" x="113.78,119.351,121.576,127.147,132.187,134.972,138.249,143.82,146.044,151.074,153.86" svgx:width="0.56,0.22,0.56,0.5,0.28,0.33,0.56,0.22,0.5,0.28,0.56" style="fill:rgb(0,0,0);font-family:ArialMT;font-size:10.02px;stroke:none;">electrolyte</text>
  </g>
  <g begin="text">
   <text y="707.52" x="159.38" svgx:width="0.5" style="fill:rgb(0,0,0);font-family:ArialMT;font-size:10.02px;stroke:none;">s</text>
  </g>
  <g begin="text">
   <text y="707.52" x="164.42" svgx:width="0.28" style="fill:rgb(0,0,0);font-family:ArialMT;font-size:10.02px;stroke:none;"> </text>
  </g>
  <g begin="text">
   <text y="707.52" x="167.18,174.384,176.609,179.394,184.965" svgx:width="0.72,0.22,0.28,0.56,0.28" style="fill:rgb(0,0,0);font-family:ArialMT;font-size:10.02px;stroke:none;">with </text>
  </g>
  <g begin="text">
   <text y="707.52" x="187.7,193.271,196.628" svgx:width="0.56,0.33,0.28" style="fill:rgb(0,0,0);font-family:ArialMT;font-size:10.02px;stroke:none;">or </text>
  </g>
  <g begin="text">
   <text y="707.52" x="199.4,206.634,208.859,211.644,217.216,222.787,228.358,231.143,233.839,239.41,244.981,250.552,252.777,255.562,257.786,263.358,268.879,274.45,276.674,279.46,285.031,287.776,293.297,298.868,307.215,310.001,317.235,322.806,329.489" svgx:width="0.72,0.22,0.28,0.56,0.56,0.56,0.28,0.28,0.56,0.56,0.56,0.22,0.28,0.22,0.56,0.56,0.56,0.22,0.28,0.56,0.28,0.56,0.56,0.83,0.28,0.72,0.56,0.67,0.78" style="fill:rgb(0,0,0);font-family:ArialMT;font-size:10.02px;stroke:none;">without additional 0.01M CoSO</text>
  </g>
  <g begin="text">
   <text y="708.0" x="337.3" svgx:width="0.56" style="fill:rgb(0,0,0);font-family:ArialMT;font-size:6.48px;stroke:none;">4</text>
  </g>
  <g begin="text">
   <text y="707.52" x="340.9,343.686,346.421,355.88,358.104,360.89,366.461,369.247,374.818,377.563,382.573,384.798,393.144,395.369,397.593,403.124,406.421,409.206,414.777,420.348,425.358,430.95,433.735,436.471,442.042,447.613,450.398,455.909,461.48,464.266,466.49,472.062,474.286,477.031,482.603,485.388,488.134,493.985,499.586,502.372,507.943,510.689,516.45,519.236,521.971,524.757,530.328,532.552,537.562" svgx:width="0.28,0.28,0.94,0.22,0.28,0.56,0.28,0.56,0.28,0.5,0.22,0.83,0.22,0.22,0.56,0.33,0.28,0.56,0.56,0.5,0.56,0.28,0.28,0.56,0.56,0.28,0.56,0.56,0.28,0.22,0.56,0.22,0.28,0.56,0.28,0.28,0.58,0.56,0.28,0.56,0.28,0.67,0.28,0.28,0.28,0.56,0.22,0.5,0.28" style="fill:rgb(0,0,0);font-family:ArialMT;font-size:10.02px;stroke:none;">. With a similar onset potential of ~1.9 V, this </text>
  </g>
  <g begin="text">
   <text y="723.12" x="54.0,57.337,62.928,67.938,73.509,75.733,78.469,81.254,83.479,89.05,94.621,96.846,101.805,107.377,110.162,115.733,120.743" svgx:width="0.33,0.56,0.5,0.56,0.22,0.28,0.28,0.22,0.56,0.56,0.22,0.5,0.56,0.28,0.56,0.5,0.28" style="fill:rgb(0,0,0);font-family:ArialMT;font-size:10.02px;stroke:none;">result indicates </text>
  </g>
  <g begin="text">
   <text y="723.12" x="123.56,126.346,131.917,137.488,140.243" svgx:width="0.28,0.56,0.56,0.28,0.28" style="fill:rgb(0,0,0);font-family:ArialMT;font-size:10.02px;stroke:none;">that </text>
  </g>
  <g begin="text">
   <text y="723.12" x="143.0,145.786,151.357,156.928,159.683,166.888,172.459,175.244,180.815,183.04,188.611,196.958,202.529,208.1,210.885,213.631,215.855,221.427,224.212,226.948,232.519,238.09,240.875,245.885,248.671,254.242,257.028,262.599,265.344,270.915,273.701,276.446,282.017,287.548,293.12,298.691,304.262,309.833,315.404,318.149,325.384" svgx:width="0.28,0.56,0.56,0.28,0.72,0.56,0.28,0.56,0.22,0.56,0.83,0.56,0.56,0.28,0.28,0.22,0.56,0.28,0.28,0.56,0.56,0.28,0.5,0.28,0.56,0.28,0.56,0.28,0.56,0.28,0.28,0.56,0.56,0.56,0.56,0.56,0.56,0.56,0.28,0.72,0.56" style="fill:rgb(0,0,0);font-family:ArialMT;font-size:10.02px;stroke:none;">the Co element in the state of unbound Co</text>
  </g>
  <g begin="text">
   <text y="719.64" x="331.0,334.6" svgx:width="0.56,0.58" style="fill:rgb(0,0,0);font-family:ArialMT;font-size:6.48px;stroke:none;">2+</text>
  </g>
  <g begin="text">
   <text y="723.12" x="338.38" svgx:width="0.28" style="fill:rgb(0,0,0);font-family:ArialMT;font-size:10.02px;stroke:none;"> </text>
  </g>
  <g begin="text">
   <text y="723.12" x="341.14,343.364,348.875,351.661,354.396,359.968,365.539,368.324,373.895,376.12,381.691,386.731,389.516,392.853,398.424,400.589,405.599,408.324,413.895,416.681,422.252,427.823,433.344,438.354,441.139,446.711,452.282,455.067,457.853,460.588,466.159,471.199,473.424,475.648,477.873,480.618,486.189" svgx:width="0.22,0.56,0.28,0.28,0.56,0.56,0.28,0.56,0.22,0.56,0.5,0.28,0.33,0.56,0.22,0.5,0.28,0.56,0.28,0.56,0.56,0.56,0.5,0.28,0.56,0.56,0.28,0.28,0.28,0.56,0.5,0.22,0.22,0.22,0.28,0.56,0.28" style="fill:rgb(0,0,0);font-family:ArialMT;font-size:10.02px;stroke:none;">in the electrolyte does not facilitat</text>
  </g>
  <g begin="text">
   <text y="723.12" x="489.0" svgx:width="0.56" style="fill:rgb(0,0,0);font-family:ArialMT;font-size:10.02px;stroke:none;">e</text>
  </g>
  <g begin="text">
   <text y="723.12" x="494.58" svgx:width="0.28" style="fill:rgb(0,0,0);font-family:ArialMT;font-size:10.02px;stroke:none;"> </text>
  </g>
  <g begin="text">
   <text y="723.12" x="497.34,500.126,505.697,511.268" svgx:width="0.28,0.56,0.56,0.28" style="fill:rgb(0,0,0);font-family:ArialMT;font-size:10.02px;stroke:none;">the </text>
  </g>
  <g begin="text">
   <text y="738.72" x="54.0,59.571,65.142,70.713,76.284,81.294,83.519,86.304,88.529,94.1,99.671,102.417,107.988,110.773,113.459,119.03,124.07,126.855,129.08,134.03,139.601,142.386,150.733,156.304,159.05,164.06,169.631,177.977,183.549,189.12,194.691,200.212,205.783" svgx:width="0.56,0.56,0.56,0.56,0.5,0.22,0.28,0.22,0.56,0.56,0.28,0.56,0.28,0.28,0.56,0.5,0.28,0.22,0.5,0.56,0.28,0.83,0.56,0.28,0.5,0.56,0.83,0.56,0.56,0.56,0.56,0.56,0.28" style="fill:rgb(0,0,0);font-family:ArialMT;font-size:10.02px;stroke:none;">deposition of active Mn compound.</text>
  </g>
  <g begin="text">
   <text y="738.72" x="208.58" svgx:width="0.28" style="fill:rgb(0,0,0);font-family:ArialMT;font-size:10.02px;stroke:none;"> </text>
  </g>
  <g begin="text">
   <text y="738.72" x="211.34,218.574,224.166,226.33,231.901,234.687,240.258,245.829,248.614,251.35,256.921,259.707,265.829,268.053,273.624,279.195,282.492,288.063,290.849,296.42" svgx:width="0.72,0.56,0.22,0.56,0.28,0.56,0.56,0.28,0.28,0.56,0.28,0.61,0.22,0.56,0.56,0.33,0.56,0.28,0.56,0.28" style="fill:rgb(0,0,0);font-family:ArialMT;font-size:10.02px;stroke:none;">Related to Figure 4.</text>
  </g>
  <g begin="text">
   <text y="738.72" x="299.2" svgx:width="0.28" style="fill:rgb(0,0,0);font-family:ArialMT;font-size:10.02px;stroke:none;"> </text>
  </g>
  <g begin="text">
   <text y="754.32" x="54.0" svgx:width="0.28" style="fill:rgb(0,0,0);font-family:ArialMT;font-size:10.02px;stroke:none;"> </text>
  </g>
  <rect style="stroke:blue;stroke-width:0.3;" x="127.4" y="32.6" height="260.15" width="340.13" title="22"/>
  <text y="32.6" class="image" id="image.22.1" width="340" height="260" x="127.4">image.22.1.127_468.33_293</text>
  <rect style="stroke:blue;stroke-width:0.3;" x="127.4" y="378.25" height="255.25" width="340.12" title="22"/>
  <text y="378.25" class="image" id="image.22.2" width="340" height="255" x="127.4">image.22.2.127_468.378_634</text>
 </g>
</svg>
