<?xml version="1.0" encoding="UTF-8"?>
<svg height="608.3" width="4137.4" xmlns="http://www.w3.org/2000/svg">
 <g id="page" xmlns:svgx="http://www.xml-cml.org/schema/svgx">
  <g begin="text">
   <text y="533.32" x="467.94" svgx:width="0.28" style="fill:rgb(0,0,0);font-family:ArialMT;font-size:10.02px;stroke:none;"> </text>
  </g>
  <g begin="text">
   <text y="551.5" x="54.12,60.242,63.028,69.15,75.242,79.14,84.711,87.497,94.14,99.711" svgx:width="0.61,0.28,0.61,0.61,0.39,0.56,0.28,0.67,0.56,0.56" style="fill:rgb(0,0,0);font-family:Arial-BoldMT;font-size:10.02px;stroke:none;">Figure S13</text>
  </g>
  <g begin="text">
   <text y="551.5" x="105.32" svgx:width="0.28" style="fill:rgb(0,0,0);font-family:Arial-BoldMT;font-size:10.02px;stroke:none;">.</text>
  </g>
  <g begin="text">
   <text y="551.5" x="108.08" svgx:width="0.28" style="fill:rgb(0,0,0);font-family:ArialMT;font-size:10.02px;stroke:none;"> </text>
  </g>
  <g begin="text">
   <text y="551.5" x="110.84,116.411,119.768" svgx:width="0.56,0.33,0.28" style="fill:rgb(0,0,0);font-family:ArialMT;font-size:10.02px;stroke:none;">a) </text>
  </g>
  <g begin="text">
   <text y="551.5" x="122.54,129.774,135.346,143.662,149.233,154.764,158.101,160.325,165.335,170.846,176.418,179.203,184.774,187.53,190.315,195.325,200.335,205.345,207.57,209.794,215.365,220.936,223.722,229.233,234.804,238.161,240.946,246.517,249.854,258.141,263.712,269.243,274.253,279.854,282.639,288.13,290.916,293.651,301.998,307.569,313.14,318.711,324.282,329.884,335.405,340.415,346.016,348.711,354.282,359.322,361.547,367.058,372.629,375.414,380.424,385.996,388.781,394.302,399.873,405.404,410.975,416.015,418.801,426.035,428.26,431.045,436.616,439.352,444.923,447.147,449.733,452.518,458.009,461.306,466.877,472.448,475.233,477.989,482.999,488.6,494.171,496.957,502.458,508.029,510.814,515.824,518.54,524.111,526.897" svgx:width="0.72,0.56,0.83,0.56,0.56,0.33,0.22,0.5,0.56,0.56,0.28,0.56,0.28,0.28,0.5,0.5,0.5,0.22,0.22,0.56,0.56,0.28,0.56,0.56,0.33,0.28,0.56,0.33,0.83,0.56,0.56,0.5,0.56,0.28,0.56,0.28,0.28,0.83,0.56,0.56,0.56,0.56,0.56,0.56,0.5,0.56,0.28,0.56,0.5,0.22,0.56,0.56,0.28,0.5,0.56,0.28,0.56,0.56,0.56,0.56,0.5,0.28,0.72,0.22,0.28,0.56,0.28,0.56,0.22,0.28,0.28,0.56,0.33,0.56,0.56,0.28,0.28,0.5,0.56,0.56,0.28,0.56,0.56,0.28,0.5,0.28,0.56,0.28,0.28" style="fill:rgb(0,0,0);font-family:ArialMT;font-size:10.02px;stroke:none;">Comparison of cycling performance of manganese oxide cathodes with different contents of </text>
  </g>
  <g begin="text">
   <text y="567.1" x="54.12,59.13,64.731,70.252,75.823,78.048,80.833" svgx:width="0.5,0.56,0.56,0.56,0.22,0.28,0.28" style="fill:rgb(0,0,0);font-family:ArialMT;font-size:10.02px;stroke:none;">cobalt </text>
  </g>
  <g begin="text">
   <text y="567.1" x="83.36,86.697,93.38,98.951,104.522" svgx:width="0.33,0.67,0.56,0.56,0.28" style="fill:rgb(0,0,0);font-family:ArialMT;font-size:10.02px;stroke:none;">(See </text>
  </g>
  <g begin="text">
   <text y="567.1" x="107.06,113.663,118.673,124.274,127.06,132.631,138.132,143.142,145.336,150.346,152.891,158.463,161.248,163.753,172.03,177.601,183.172,188.743,194.314,199.885,205.386,210.396,215.997,218.512,224.033,229.043,231.238,236.809,242.38,244.915,252.15,254.374,257.16,262.731,265.196,270.767,272.991,275.777,278.512,284.083,287.42,292.991,298.562,301.308,303.823,308.833,314.404,319.975,325.546,327.77,330.526,333.041,338.051,343.542,349.113,351.898,357.47,363.041,365.826" svgx:width="0.67,0.5,0.56,0.28,0.56,0.56,0.5,0.22,0.5,0.28,0.56,0.28,0.28,0.83,0.56,0.56,0.56,0.56,0.56,0.56,0.5,0.56,0.28,0.56,0.5,0.22,0.56,0.56,0.28,0.72,0.22,0.28,0.56,0.28,0.56,0.22,0.28,0.28,0.56,0.33,0.56,0.56,0.28,0.28,0.5,0.56,0.56,0.56,0.22,0.28,0.28,0.5,0.56,0.56,0.28,0.56,0.56,0.28,0.5" style="fill:rgb(0,0,0);font-family:Arial-ItalicMT;font-size:10.02px;stroke:none;">Synthesis of manganese oxide with different cobalt contents</text>
  </g>
  <g begin="text">
   <text y="567.1" x="370.9" svgx:width="0.28" style="fill:rgb(0,0,0);font-family:ArialMT;font-size:10.02px;stroke:none;"> </text>
  </g>
  <g begin="text">
   <text y="567.1" x="373.42,375.64" svgx:width="0.22,0.56" style="fill:rgb(0,0,0);font-family:ArialMT;font-size:10.02px;stroke:none;">in</text>
  </g>
  <g begin="text">
   <text y="567.1" x="381.22" svgx:width="0.28" style="fill:rgb(0,0,0);font-family:ArialMT;font-size:10.02px;stroke:none;"> </text>
  </g>
  <g begin="text">
   <text y="567.1" x="383.68,389.261,393.159,398.73,404.802,410.373,416.495,422.067,425.964,431.535,437.618,440.954,443.499,451.846,457.357,460.654,466.776,472.898,479.02" svgx:width="0.61,0.39,0.56,0.61,0.56,0.61,0.56,0.39,0.56,0.61,0.33,0.28,0.83,0.56,0.33,0.61,0.61,0.61,0.56" style="fill:rgb(0,0,0);font-family:Arial-BoldMT;font-size:10.02px;stroke:none;">Transparent Methods</text>
  </g>
  <g begin="text">
   <text y="567.1" x="484.62,487.98" svgx:width="0.33,0.28" style="fill:rgb(0,0,0);font-family:ArialMT;font-size:10.02px;stroke:none;">) </text>
  </g>
  <g begin="text">
   <text y="567.1" x="490.44,496.011,501.051,503.215,508.787,514.358,516.833,522.404,524.929,530.5,533.025,541.372" svgx:width="0.56,0.5,0.22,0.56,0.56,0.28,0.56,0.28,0.56,0.28,0.83,0.28" style="fill:rgb(0,0,0);font-family:ArialMT;font-size:10.02px;stroke:none;">using a 2 M </text>
  </g>
  <g begin="text">
   <text y="582.7" x="54.12,60.242,65.813,72.497" svgx:width="0.61,0.56,0.67,0.78" style="fill:rgb(0,0,0);font-family:ArialMT;font-size:10.02px;stroke:none;">ZnSO</text>
  </g>
  <g begin="text">
   <text y="583.18" x="80.3" svgx:width="0.56" style="fill:rgb(0,0,0);font-family:ArialMT;font-size:6.48px;stroke:none;">4</text>
  </g>
  <g begin="text">
   <text y="582.7" x="83.9" svgx:width="0.28" style="fill:rgb(0,0,0);font-family:ArialMT;font-size:10.02px;stroke:none;"> </text>
  </g>
  <g begin="text">
   <text y="582.7" x="86.42,91.991,94.216,99.787,104.827,107.612,110.889,116.46,118.684,123.714,126.5,132.071,134.576,139.586,145.157,150.728,153.474,159.045,161.269,166.841,169.015,174.586,180.157,182.692,188.263,191.049,196.62,199.135,207.482,209.997,218.343,223.914,230.598" svgx:width="0.56,0.22,0.56,0.5,0.28,0.33,0.56,0.22,0.5,0.28,0.56,0.28,0.5,0.56,0.56,0.28,0.56,0.22,0.56,0.22,0.56,0.56,0.28,0.56,0.28,0.56,0.28,0.83,0.28,0.83,0.56,0.67,0.78" style="fill:rgb(0,0,0);font-family:ArialMT;font-size:10.02px;stroke:none;">electrolyte containing 0.2 M MnSO</text>
  </g>
  <g begin="text">
   <text y="583.18" x="238.4" svgx:width="0.56" style="fill:rgb(0,0,0);font-family:ArialMT;font-size:6.48px;stroke:none;">4</text>
  </g>
  <g begin="text">
   <text y="582.7" x="242.02,244.806,247.301,252.872,256.228,258.743,265.978,271.569,279.916,285.487,291.058,294.415,296.579,301.589,307.19,312.761,315.286,320.857,323.643,326.148,329.484,335.076,337.771,343.342,348.913,351.699,353.923,359.494,365.065,367.59,370.927,376.518,379.304,384.795,389.805,392.35,395.687,398.472,404.043,409.614,412.149,417.159,422.761,424.925,429.935,435.536,437.76,443.332,446.117,448.342,453.832,459.353,461.868,467.44,470.225,472.73,476.067,481.658,484.444,490.015,495.586,498.341,500.566,506.137,511.708,514.243,517.58,523.171,525.956,531.527,534.032,536.257,541.237" svgx:width="0.28,0.28,0.56,0.33,0.28,0.72,0.56,0.83,0.56,0.56,0.33,0.22,0.5,0.56,0.56,0.28,0.56,0.28,0.28,0.33,0.56,0.28,0.56,0.56,0.28,0.22,0.56,0.56,0.28,0.33,0.56,0.28,0.56,0.5,0.28,0.33,0.28,0.56,0.56,0.28,0.5,0.56,0.22,0.5,0.56,0.22,0.56,0.28,0.22,0.56,0.56,0.28,0.56,0.28,0.28,0.33,0.56,0.28,0.56,0.56,0.28,0.22,0.56,0.56,0.28,0.33,0.56,0.28,0.56,0.28,0.22,0.5,0.28" style="fill:rgb(0,0,0);font-family:ArialMT;font-size:10.02px;stroke:none;">, b) Comparison of retention rates (the calculation of retention rate is </text>
  </g>
  <g begin="text">
   <text y="598.3" x="54.12,59.691,65.262,70.272,75.843,81.414,84.2,89.771,95.342,98.128,100.863,106.434,112.006,114.721,120.292" svgx:width="0.56,0.56,0.5,0.56,0.56,0.28,0.56,0.56,0.28,0.28,0.56,0.56,0.28,0.56,0.56" style="fill:rgb(0,0,0);font-family:ArialMT;font-size:10.02px;stroke:none;">based on the 10</text>
  </g>
  <g begin="text">
   <text y="594.82" x="125.9,127.7" svgx:width="0.28,0.56" style="fill:rgb(0,0,0);font-family:ArialMT;font-size:6.48px;stroke:none;">th</text>
  </g>
  <g begin="text">
   <text y="598.3" x="131.3" svgx:width="0.28" style="fill:rgb(0,0,0);font-family:ArialMT;font-size:10.02px;stroke:none;"> </text>
  </g>
  <g begin="text">
   <text y="598.3" x="134.06,139.631,141.856,146.866,151.876,157.447,162.978,166.314,171.906,174.07,179.641,185.212,187.998,193.569,196.354,199.09,201.875,207.446,213.018,215.773,220.783,226.384,229.17,234.661,240.232,245.803,251.344,256.354,259.731" svgx:width="0.56,0.22,0.5,0.5,0.56,0.56,0.33,0.56,0.22,0.56,0.56,0.28,0.56,0.28,0.28,0.28,0.56,0.56,0.28,0.5,0.56,0.28,0.56,0.56,0.56,0.56,0.5,0.33,0.28" style="fill:rgb(0,0,0);font-family:ArialMT;font-size:10.02px;stroke:none;">discharging of the cathodes).</text>
  </g>
  <g begin="text">
   <text y="598.3" x="262.54" svgx:width="0.28" style="fill:rgb(0,0,0);font-family:ArialMT;font-size:10.02px;stroke:none;"> </text>
  </g>
  <g begin="text">
   <text y="598.3" x="265.3,272.534,278.126,280.29,285.861,288.647,294.148,299.719,302.504,305.25,310.821,313.606,319.729,321.953,327.524,333.095,336.432,342.003,344.789,350.36" svgx:width="0.72,0.56,0.22,0.56,0.28,0.56,0.56,0.28,0.28,0.56,0.28,0.61,0.22,0.56,0.56,0.33,0.56,0.28,0.56,0.28" style="fill:rgb(0,0,0);font-family:ArialMT;font-size:10.02px;stroke:none;">Related to Figure 4.</text>
  </g>
  <g begin="text">
   <text y="598.3" x="353.08" svgx:width="0.28" style="fill:rgb(0,0,0);font-family:ArialMT;font-size:10.02px;stroke:none;"> </text>
  </g>
  <rect style="stroke:blue;stroke-width:0.3;" x="127.4" y="36.83" height="454.1" width="340.13" title="23"/>
  <text y="36.83" class="image" id="image.23.1" width="340" height="454" x="127.4">image.23.1.127_468.37_491</text>
 </g>
</svg>
